<svg xmlns="http://www.w3.org/2000/svg" viewBox="0 0 45 45"><defs><clipPath id="a"><path d="M0 36h36V0H0v36z"/></clipPath></defs><g clip-path="url(#a)" transform="matrix(1.25 0 0 -1.25 0 45)"><path d="M32 4a4 4 0 0 0-4-4H8a4 4 0 0 0-4 4v28a4 4 0 0 0 4 4h20a4 4 0 0 0 4-4V4z" fill="#e6e7e8"/><path d="M19.003 23.578v-6.163c.728.087 1.435.18 2.119.265 1.326.178 2.286.286 2.879.332.048.11.103.232.168.363.199.641.463 1.645.798 3.015.264 1.084.393 1.77.393 2.057 0 .353-.338.53-1.024.53-1.041 0-2.696-.122-4.973-.364-.128 0-.253-.013-.36-.035m-7.26-6.69c1.813.085 3.546.195 5.204.327v6.132a55.914 55.914 0 0 1-4.937-.796 5.076 5.076 0 0 0-.862-.232c0-.264.022-.529.067-.793.265-2.012.44-3.56.529-4.638M8.398 24.11c.53 0 .995-.078 1.39-.233.245-.066.454-.143.63-.23.797.043 1.613.121 2.454.23 1.104.134 2.463.298 4.075.498v2.32c0 1.612-.188 2.947-.563 4.01-.155.331-.233.55-.233.661 0 .331.133.497.398.497a6.84 6.84 0 0 0 1.955-.266c.686-.198 1.027-.453 1.027-.76 0-.112-.042-.343-.133-.697-.265-.685-.395-1.955-.395-3.81v-1.723c1.299.132 2.723.276 4.27.43.707.045 1.38.166 2.023.366.463.088.739.132.83.132.264 0 .837-.222 1.72-.662.928-.553 1.393-.985 1.393-1.294 0-.242-.12-.486-.362-.729-.82-.88-1.408-1.809-1.76-2.783l-.797-1.69a2.755 2.755 0 0 0-.425-.76c.042-.022.086-.047.128-.068.507-.31.76-.586.76-.828 0-.199-.182-.31-.56-.332-1.7 0-3.236-.088-4.606-.266l-2.614-.196-.034-4.443c0-2.009-.07-3.62-.198-4.838-.134-1.368-.334-2.34-.598-2.914-.243-.486-.443-.73-.596-.73-.09 0-.232.265-.431.797-.133.617-.2 1.687-.2 3.214v8.75l-1.788-.168c-1.194-.112-2.111-.168-2.75-.168-.266 0-.488.024-.664.07-.044-.2-.11-.377-.197-.534-.133-.287-.277-.43-.433-.43-.197 0-.385.154-.562.465-.287.438-.442.892-.464 1.358L9.69 18.94c-.155 1.35-.332 2.286-.531 2.818-.111.551-.41 1.081-.894 1.59-.177.11-.266.187-.266.231 0 .354.133.531.398.531" fill="#be1931"/></g></svg>