<svg xmlns="http://www.w3.org/2000/svg" viewBox="0 0 45 45"><defs><clipPath id="a"><path d="M0 36h36V0H0v36z"/></clipPath></defs><g clip-path="url(#a)" transform="matrix(1.25 0 0 -1.25 0 45)"><path d="M32 4a4 4 0 0 0-4-4H8a4 4 0 0 0-4 4v28a4 4 0 0 0 4 4h20a4 4 0 0 0 4-4V4z" fill="#e6e7e8"/><path d="M11 29c-2.519 0-4.583-1.87-4.929-4.294A3.976 3.976 0 0 0 9 26a4 4 0 0 0 4-4c0-2 1.497-2.198.706-2.929C16.13 19.417 16 21.481 16 24a5 5 0 0 1-5 5" fill="#dd2e44"/><path d="M23 22a4 4 0 0 0 4 4 3.976 3.976 0 0 0 2.929-1.294C29.583 27.13 27.52 29 25 29a5 5 0 0 1-5-5c0-2.519-.131-4.583 2.293-4.929-.79.731.707.929.707 2.929" fill="#55acee"/><path d="M14 24c0 4.971 4 9 4 9s4-4.029 4-9-1.791-9-4-9-4 4.029-4 9" fill="#ffac33"/><path d="M11.707 14.929A3.975 3.975 0 0 0 13 11.999a4 4 0 0 0-4-4 3.976 3.976 0 0 0-2.928 1.294C6.417 6.869 8.48 5 11 5a5 5 0 0 1 5 5c0 2.52-1.87 4.583-4.294 4.929M27 8a4 4 0 0 0-4 4c0 1.161.503 2.198 1.293 2.929C21.869 14.583 20 12.52 20 10a5 5 0 0 1 5-5c2.52 0 4.583 1.869 4.929 4.293A3.979 3.979 0 0 0 27 8" fill="#553788"/><path d="M14 12c0-4.971 3-9 4-9s4 4.029 4 9-1.791 9-4 9-4-4.029-4-9" fill="#9266cc"/><path d="M13 19c0 3.866 3 4 5 4s5-.134 5-4c0-3.865-2.238-7-5-7-2.761 0-5 3.135-5 7" fill="#edbb9f"/><path d="M17 19a1 1 0 1 0-2 0 1 1 0 0 0 2 0M21 19a1 1 0 1 0-2 0 1 1 0 0 0 2 0M18 14a2 2 0 0 1 2 2h-4a2 2 0 0 1 2-2" fill="#662113"/><path d="M7 25a1 1 0 1 0-2 0 1 1 0 0 0 2 0" fill="#a0041e"/><path d="M29 25a1 1 0 1 1 2 0 1 1 0 0 1-2 0" fill="#269"/><path d="M17 33a1 1 0 1 0 2 0 1 1 0 0 0-2 0" fill="#dd2e44"/></g></svg>