<svg xmlns="http://www.w3.org/2000/svg" viewBox="0 0 45 45"><defs><clipPath id="a"><path d="M0 36h36V0H0v36z"/></clipPath></defs><g clip-path="url(#a)" transform="matrix(1.25 0 0 -1.25 0 45)"><path d="M36 4a4 4 0 0 0-4-4H4a4 4 0 0 0-4 4v28a4 4 0 0 0 4 4h28a4 4 0 0 0 4-4V4z" fill="#269"/><path d="M16 18h3.063c2.017 0 3.296 1.465 3.296 3.385 0 1.92-1.279 3.391-3.296 3.391H16V18zm-5 8.504c0 1.504.896 2.496 2.496 2.496h5.664c4.703 0 8.192-2.944 8.192-7.52 0-4.67-3.618-7.48-8-7.48H16V8.521c0-1.599-1.024-2.496-2.4-2.496S11 6.922 11 8.521v17.983z" fill="#fff"/></g></svg>