<svg xmlns="http://www.w3.org/2000/svg" viewBox="0 0 45 45"><defs><clipPath id="a"><path d="M0 36h36V0H0v36z"/></clipPath></defs><g clip-path="url(#a)" transform="matrix(1.25 0 0 -1.25 0 45)"><path d="M36 4a4 4 0 0 0-4-4H4a4 4 0 0 0-4 4v28a4 4 0 0 0 4 4h28a4 4 0 0 0 4-4V4z" fill="#dd2e44"/><path d="M7.458 15.765h5.32l-2.604 8.119h-.056l-2.66-8.12zM7.15 25.928c.476 1.288 1.568 2.324 2.996 2.324 1.484 0 2.52-.98 2.997-2.324l5.488-15.231c.168-.45.223-.84.223-1.036 0-1.092-.896-1.848-1.931-1.848-1.177 0-1.765.616-2.044 1.456L14 11.999H6.28l-.866-2.702c-.28-.868-.868-1.484-2.016-1.484-1.12 0-2.072.84-2.072 1.96 0 .448.14.784.196.924l5.628 15.23zM24.2 12h3.304c1.512 0 2.632.729 2.632 2.296 0 1.315-1.008 2.112-2.968 2.112H24.2V12zm0 8h2.184c1.372 0 2.268.815 2.268 2.216 0 1.315-1.036 2.088-2.268 2.088H24.2V20zM20 25.9c0 1.344.924 2.1 2.212 2.1h5.376c2.912 0 5.264-1.96 5.264-4.928 0-1.96-.812-3.276-2.604-4.116V18.9c2.38-.336 4.256-2.423 4.256-4.859 0-3.948-2.632-6.041-6.496-6.041H22.24C20.952 8 20 8.876 20 10.192V25.9z" fill="#fff"/></g></svg>