<svg xmlns="http://www.w3.org/2000/svg" viewBox="0 0 45 45"><defs><clipPath id="a"><path d="M0 36h36V0H0v36z"/></clipPath></defs><g clip-path="url(#a)" transform="matrix(1.25 0 0 -1.25 0 45)"><path d="M36 4a4 4 0 0 0-4-4H4a4 4 0 0 0-4 4v28a4 4 0 0 0 4 4h28a4 4 0 0 0 4-4V4z" fill="#dd2e44"/><path d="M9.762 23.482c0-.78-.52-1.48-1.34-1.48-.82 0-1.46.6-2.66.6-.86 0-1.64-.46-1.64-1.3 0-2.06 6.68-.74 6.68-5.9 0-2.862-2.36-4.643-5.12-4.643C4.141 10.76.82 11.12.82 13c0 .78.521 1.42 1.34 1.42.941 0 2.061-.78 3.361-.78 1.321 0 2.041.74 2.041 1.721 0 2.36-6.682.94-6.682 5.58 0 2.801 2.301 4.541 4.962 4.541 1.12 0 3.92-.419 3.92-2M21.763 18.121c0 2.421-1.261 4.602-3.761 4.602s-3.76-2.18-3.76-4.602c0-2.44 1.22-4.6 3.76-4.6s3.76 2.16 3.76 4.6m-10.642 0c0 4.161 2.8 7.362 6.882 7.362 4.02 0 6.88-3.3 6.88-7.362 0-4.14-2.78-7.36-6.88-7.36-4.061 0-6.882 3.22-6.882 7.36M34.143 23.482c0-.78-.521-1.48-1.342-1.48-.82 0-1.46.6-2.66.6-.86 0-1.641-.46-1.641-1.3 0-2.06 6.682-.74 6.682-5.9 0-2.862-2.36-4.643-5.121-4.643-1.54 0-4.861.361-4.861 2.241 0 .78.52 1.42 1.34 1.42.94 0 2.062-.78 3.36-.78 1.32 0 2.042.74 2.042 1.721 0 2.36-6.682.94-6.682 5.58 0 2.801 2.3 4.541 4.96 4.541 1.122 0 3.923-.419 3.923-2" fill="#fff"/></g></svg>