<svg xmlns="http://www.w3.org/2000/svg" viewBox="0 0 45 45"><defs><clipPath id="a"><path d="M0 36h36V0H0v36z"/></clipPath></defs><g clip-path="url(#a)" transform="matrix(1.25 0 0 -1.25 0 45)"><path d="M36 4a4 4 0 0 0-4-4H4a4 4 0 0 0-4 4v28a4 4 0 0 0 4 4h28a4 4 0 0 0 4-4V4z" fill="#3b88c3"/><path d="M2.508 25.361c0 1.2.768 1.872 1.8 1.872.456 0 1.2-.36 1.513-.792l7.608-10.153h.048v9.073c0 1.2.768 1.872 1.8 1.872s1.8-.672 1.8-1.872V11.728c0-1.2-.768-1.872-1.8-1.872-.456 0-1.176.36-1.512.792L6.156 20.681H6.11v-8.953c0-1.2-.768-1.872-1.8-1.872-1.033 0-1.8.672-1.8 1.872v13.633zM31.91 20.129c1.512 0 2.111-.768 2.111-2.305 0-4.632-3.023-8.112-7.824-8.112-4.873 0-8.257 3.864-8.257 8.833 0 4.992 3.361 8.833 8.257 8.833 3.623 0 6.6-1.705 6.6-3.385 0-1.032-.647-1.68-1.489-1.68-1.63 0-1.966 1.752-5.11 1.752-3 0-4.514-2.616-4.514-5.52 0-2.93 1.464-5.521 4.513-5.521 1.897 0 4.08 1.056 4.08 3.792H27.83c-.984 0-1.682.697-1.682 1.68 0 1.009.77 1.633 1.682 1.633h4.08z" fill="#fff"/></g></svg>