<svg xmlns="http://www.w3.org/2000/svg" viewBox="0 0 45 45"><defs><clipPath id="a"><path d="M0 36h36V0H0v36z"/></clipPath></defs><g clip-path="url(#a)" transform="matrix(1.25 0 0 -1.25 0 45)"><path d="M36 4a4 4 0 0 0-4-4H4a4 4 0 0 0-4 4v28a4 4 0 0 0 4 4h28a4 4 0 0 0 4-4V4z" fill="#3b88c3"/><path d="M2.281 24.438c0 1.05.672 1.638 1.575 1.638.903 0 1.574-.589 1.574-1.639V17.11c0-1.932 1.24-3.464 3.234-3.464 1.91 0 3.212 1.617 3.212 3.465v7.328c0 1.05.672 1.638 1.575 1.638.903 0 1.575-.589 1.575-1.639v-7.496c0-3.527-2.898-6.193-6.362-6.193-3.507 0-6.383 2.625-6.383 6.193v7.496zM19.941 18.727h2.142c1.323 0 2.163.966 2.163 2.225 0 1.26-.84 2.226-2.163 2.226h-2.142v-4.451zm-3.149 5.585c0 .987.587 1.638 1.637 1.638h3.717c3.086 0 5.375-2.016 5.375-5.018 0-3.066-2.373-4.977-5.25-4.977h-2.33v-3.443c0-1.05-.672-1.638-1.575-1.638-.903 0-1.574.588-1.574 1.638v11.8zM29.518 24.773c0 .882.65 1.428 1.512 1.428.84 0 1.51-.567 1.51-1.428V16.69c0-.86-.67-1.428-1.51-1.428-.862 0-1.512.547-1.512 1.428v8.084zm-.127-12.388a1.638 1.638 0 1 0 1.639-1.637 1.64 1.64 0 0 0-1.64 1.637" fill="#fff"/></g></svg>