<svg xmlns="http://www.w3.org/2000/svg" viewBox="0 0 45 45"><defs><clipPath id="a"><path d="M0 36h36V0H0v36z"/></clipPath></defs><g clip-path="url(#a)" transform="matrix(1.25 0 0 -1.25 0 45)"><path d="M36 4a4 4 0 0 0-4-4H4a4 4 0 0 0-4 4v28a4 4 0 0 0 4 4h28a4 4 0 0 0 4-4V4z" fill="#3b88c3"/><path d="M5.97 23.142c1.022 0 3.012-.336 3.012-1.57 0-.503-.35-.938-.87-.938-.573 0-.965.49-2.142.49-1.737 0-2.633-1.47-2.633-3.18 0-1.666.91-3.095 2.633-3.095 1.177 0 1.653.589 2.227.589.63 0 .925-.631.925-.953 0-1.345-2.115-1.653-3.152-1.653-2.843 0-4.818 2.255-4.818 5.155 0 2.914 1.96 5.155 4.818 5.155" fill="#fff"/><path d="M16.317 17.986c0 1.695-.882 3.222-2.633 3.222s-2.634-1.527-2.634-3.222c0-1.709.855-3.222 2.634-3.222s2.633 1.513 2.633 3.222m-7.452 0c0 2.914 1.96 5.155 4.819 5.155 2.815 0 4.819-2.31 4.819-5.155 0-2.899-1.948-5.154-4.82-5.154-2.843 0-4.818 2.255-4.818 5.154M26.426 17.986c0 1.695-.883 3.222-2.635 3.222-1.75 0-2.633-1.527-2.633-3.222 0-1.709.855-3.222 2.633-3.222 1.78 0 2.635 1.513 2.635 3.222m-7.453 0c0 2.914 1.96 5.155 4.818 5.155 2.817 0 4.819-2.31 4.819-5.155 0-2.899-1.946-5.154-4.82-5.154-2.842 0-4.817 2.255-4.817 5.154M29.193 21.965c0 .7.447 1.093 1.051 1.093.601 0 1.051-.393 1.051-1.093v-7.032h2.492c.715 0 1.023-.532 1.01-1.008a.983.983 0 0 0-1.01-.925h-3.502c-.686 0-1.092.448-1.092 1.149v7.816z" fill="#fff"/></g></svg>