<svg xmlns="http://www.w3.org/2000/svg" viewBox="0 0 45 45"><defs><clipPath id="a"><path d="M0 36h36V0H0v36z"/></clipPath></defs><g clip-path="url(#a)" transform="matrix(1.25 0 0 -1.25 0 45)"><path d="M36 4a4 4 0 0 0-4-4H4a4 4 0 0 0-4 4v28a4 4 0 0 0 4 4h28a4 4 0 0 0 4-4V4z" fill="#3b88c3"/><path d="M1.836 23.416c0 .738.504 1.404 1.405 1.404h4.61c.791 0 1.205-.612 1.205-1.242 0-.612-.396-1.242-1.206-1.242H4.537v-2.63h2.791c.864 0 1.296-.613 1.296-1.224 0-.63-.432-1.26-1.296-1.26h-2.79v-3.926c0-.9-.577-1.405-1.35-1.405-.776 0-1.352.505-1.352 1.405v10.12zM12.53 19.148h1.854c.99 0 1.674.594 1.674 1.603 0 1.025-.684 1.584-1.674 1.584H12.53v-3.187zm-2.702 4.267c0 .864.486 1.404 1.387 1.404h3.17c2.771 0 4.482-1.242 4.482-4.068 0-1.982-1.495-3.116-3.33-3.404l3.06-3.277c.252-.27.36-.54.36-.792 0-.702-.558-1.387-1.35-1.387-.325 0-.757.126-1.045.47l-3.997 4.842h-.036v-3.907c0-.9-.576-1.405-1.35-1.405-.775 0-1.35.505-1.35 1.405v10.12zM19.477 23.253c0 .9.449 1.566 1.404 1.566h4.465c.865 0 1.279-.612 1.279-1.242 0-.612-.433-1.242-1.28-1.242h-3.167v-2.629h2.952c.882 0 1.314-.613 1.314-1.243 0-.612-.45-1.242-1.314-1.242h-2.952v-2.737h3.33c.865 0 1.279-.61 1.279-1.242 0-.613-.433-1.242-1.28-1.242h-4.643c-.793 0-1.387.54-1.387 1.35v9.903zM27.451 23.253c0 .9.45 1.566 1.404 1.566h4.465c.863 0 1.277-.612 1.277-1.242 0-.612-.43-1.242-1.277-1.242h-3.17v-2.629h2.953c.883 0 1.315-.613 1.315-1.243 0-.612-.449-1.242-1.315-1.242H30.15v-2.737h3.332c.864 0 1.278-.61 1.278-1.242 0-.613-.432-1.242-1.278-1.242h-4.646c-.79 0-1.385.54-1.385 1.35v9.903z" fill="#fff"/></g></svg>