<svg xmlns="http://www.w3.org/2000/svg" viewBox="0 0 45 45"><defs><clipPath id="a"><path d="M0 36h36V0H0v36z"/></clipPath></defs><g clip-path="url(#a)" transform="matrix(1.25 0 0 -1.25 0 45)"><path d="M36 4a4 4 0 0 0-4-4H4a4 4 0 0 0-4 4v28a4 4 0 0 0 4 4h28a4 4 0 0 0 4-4V4z" fill="#3b88c3"/><path d="M1.527 22.879c0 .85.544 1.326 1.275 1.326.323 0 .85-.255 1.071-.561l5.388-7.191h.034v6.426c0 .85.544 1.326 1.275 1.326.731 0 1.275-.476 1.275-1.326v-9.655c0-.85-.544-1.325-1.275-1.325-.323 0-.833.254-1.07.56l-5.39 7.106h-.033v-6.341c0-.85-.544-1.325-1.275-1.325-.73 0-1.275.475-1.275 1.325v9.655zM12.594 22.624c0 .85.425 1.479 1.326 1.479h4.215c.816 0 1.207-.578 1.207-1.173 0-.578-.408-1.173-1.207-1.173h-2.992v-2.482h2.788c.833 0 1.241-.578 1.241-1.172 0-.579-.425-1.173-1.24-1.173h-2.789v-2.584h3.145c.816 0 1.207-.578 1.207-1.173 0-.578-.407-1.173-1.207-1.173h-4.385c-.748 0-1.309.51-1.309 1.274v9.35zM19.904 22.505c-.05.22-.068.34-.068.578 0 .544.46 1.122 1.207 1.122.816 0 1.207-.476 1.36-1.224l1.444-7.224h.035l2.21 7.445c.187.612.697 1.003 1.326 1.003.63 0 1.138-.391 1.326-1.003l2.21-7.445h.032l1.445 7.224c.153.748.545 1.224 1.36 1.224.748 0 1.207-.578 1.207-1.122 0-.238-.016-.357-.069-.578l-2.158-9.281c-.17-.714-.73-1.325-1.68-1.325-.835 0-1.482.543-1.685 1.24l-1.973 6.56H27.4l-1.972-6.56a1.733 1.733 0 0 0-1.682-1.24c-.952 0-1.514.61-1.684 1.325l-2.158 9.28z" fill="#fff"/></g></svg>