<svg xmlns="http://www.w3.org/2000/svg" viewBox="0 0 45 45"><defs><clipPath id="a"><path d="M0 36h36V0H0v36z"/></clipPath></defs><g clip-path="url(#a)" transform="matrix(1.25 0 0 -1.25 0 45)"><path d="M36 4a4 4 0 0 0-4-4H4a4 4 0 0 0-4 4v28a4 4 0 0 0 4 4h28a4 4 0 0 0 4-4V4z" fill="#3b88c3"/><path d="M14.702 18.545c0 2.904-1.512 5.52-4.513 5.52-3 0-4.512-2.616-4.512-5.52 0-2.93 1.464-5.521 4.512-5.521 3.049 0 4.513 2.592 4.513 5.52m-12.77 0c0 4.993 3.36 8.834 8.257 8.834 4.825 0 8.257-3.961 8.257-8.833 0-4.97-3.336-8.833-8.257-8.833-4.872 0-8.256 3.864-8.256 8.833M19.932 25.457c0 .984.72 1.776 1.8 1.776 1.032 0 1.8-.672 1.8-1.776v-5.185l5.906 6.29c.264.288.719.672 1.39.672.913 0 1.778-.696 1.778-1.728 0-.624-.385-1.128-1.176-1.92l-4.537-4.465 5.545-5.785c.576-.576 1.008-1.103 1.008-1.824 0-1.128-.89-1.655-1.873-1.655-.696 0-1.151.407-1.825 1.128l-6.215 6.72v-6.121c0-.935-.72-1.727-1.8-1.727-1.032 0-1.801.672-1.801 1.727v13.874z" fill="#fff"/></g></svg>