<svg xmlns="http://www.w3.org/2000/svg" viewBox="0 0 45 45"><defs><clipPath id="a"><path d="M0 36h36V0H0v36z"/></clipPath></defs><g clip-path="url(#a)" transform="matrix(1.25 0 0 -1.25 0 45)"><path d="M36 4a4 4 0 0 0-4-4H4a4 4 0 0 0-4 4v28a4 4 0 0 0 4 4h28a4 4 0 0 0 4-4V4z" fill="#3b88c3"/><path d="M15.149 11.093h3.659c1.675 0 2.915.96 2.915 2.697 0 1.458-1.117 2.45-3.287 2.45h-3.287v-5.147zm0 9.24h2.419c1.519 0 2.51.899 2.51 2.449 0 1.457-1.146 2.202-2.51 2.202h-2.42v-4.651zm-4.65 6.418c0 1.488 1.023 2.325 2.449 2.325H18.9c3.224 0 5.83-2.17 5.83-5.457 0-2.17-.901-3.628-2.885-4.557v-.063c2.637-.372 4.713-2.573 4.713-5.27 0-4.372-2.914-6.73-7.194-6.73h-6.386c-1.427 0-2.48.9-2.48 2.358V26.75z" fill="#fff"/></g></svg>