<svg xmlns="http://www.w3.org/2000/svg" viewBox="0 0 45 45"><defs><clipPath id="a"><path d="M0 36h36V0H0v36z"/></clipPath><clipPath id="b"><path d="M4 31a4 4 0 0 1-4-4V9a4 4 0 0 1 4-4h28a4 4 0 0 1 4 4v18a4 4 0 0 1-4 4H4z"/></clipPath><clipPath id="c"><path d="M0 36h36V0H0v36z"/></clipPath></defs><g clip-path="url(#a)" transform="matrix(1.25 0 0 -1.25 0 45)"><path d="M36 9a4 4 0 0 0-4-4H4a4 4 0 0 0-4 4v18a4 4 0 0 0 4 4h28a4 4 0 0 0 4-4V9z" fill="#4289de"/></g><g clip-path="url(#b)" transform="matrix(1.25 0 0 -1.25 0 45)"><path d="M36 18H0v13h36V18z" fill="#3e9a00"/><path d="M0 30l36-12L0 6v24z" fill="#eb0438"/></g><g clip-path="url(#c)" transform="matrix(1.25 0 0 -1.25 0 45)"><path d="M11.688 11.688c-.458-.188-2-.313-2.376 0-.374.311.75 1 .75 1s-1.124-.064-2.468.405c-1.343.47-1.968 1.314-2.593 1.314.406.406 1.78-.281 1.78-.281s-2.468 1.156-2.593 2.843c.78-1.095 1.656-1.344 1.656-1.344s-1.969 1.406-1.313 3.468c.156-.53.562-1.094.562-1.094s-.75 2.313.094 3.626c.281-.25.375-1.844.375-1.844s-.125 1.531.094 2.375c.22.844.876 1.156.876 1.156L6.25 21.75s.562.437.78.812c.22.375 1.25 1.75 2 1.844.094-.219-.593-.875-.593-.875s1.844.937 2.688.531c-.5-.469-2.063-.656-2.063-.656s.813-.375 1.188-.094c-.094-.28-.72-.5-1.157-.406-.437.094-.844-.28-.844-.28s.629-.267.907 0c-.188-.595-1.125-.47-1.438-.47-.312 0-1.437-.75-1.437-1.28.5.155.875.78.875.78s.344-.906-.563-1.313c-.906-.406-.843-1.187-.843-1.187s.5.184.562.625c.53-.25-.156-.688-.312-.938-.157-.25-.188-1.375-.188-1.375s.28.97.344 1.094c.062.125.53-.875.344-1.313-.188-.437-.375-1.343-.094-1.843.187.125.062 1.093.062 1.093s.657-.593.688-1.187c.187-.156.187.375.187.375s.438-.905.594-1.405c.156-.5 1.062-.939 1.5-.908.438.032.969-.28.969-.28s-.188 1.093-.188 1.562c0 .47.063.97.063.97s-1.875-.908-1.938.842c.469-.53 1.063-.344 1.063-.344s-1.157.22-1.094 1.25c.375-.468.937-.468.937-.468s-.625.402-.468 1.03c.718-.124 1.125-1.218 1.125-1.218s.062.903.03 1.217c-.03.314-.061.908-.061.908s-1.157-.5-1.344 1.032c.312-.407.656-.25.656-.25s-.656.5-.375 1.437c.219-.625.719-.875.719-.875s-.22.5-.22.781c.439 0 .907-.437.814-1.406.593.594.5 1.406.375 1.656-.532-.187-1.001.5-1.001.5s.657-.25.782.22c-.782-.22-.97.405-.97.405s.689.25 1.032 0c.25.188.094.594.094.594s.969-.344.313-1.187c.125-.407.125-1.032.125-1.032s.312.97 1.093 1.032c-.468-.438-.281-.844-.281-.844s.562.094.625.437c.719-.593-.687-1.312-.687-1.312s.406-.156.749.281c.438-.719-.687-.906-1.124-.75-.438.156-.688.188-.782-.094-.093-.28-.218-1.562-.187-1.469.03.094.252.93.5 1.282-.031-.469.125-.907.125-.907s1-.03.75.907c.968.062-.188-1.346-.188-1.346s.472-.377 1.049 0c.2-.873-.768-.686-1.111-.686-.344 0-1.188.063-1.063-.53.125-.595.438-1.719.438-1.719s.094.687.375 1.187c.28.5.656.656.5-.125.406.062.718.75.718.75s.469-.844-.531-1.437c.219-.219.7.374.7.374s.113-.874-.637-1.124c-.75-.25-1.031-.094-1.094-.563-.062-.469 0-.844 0-.844s.375-.062.969.313c.593.375 1.062.031 1.437.437.375.407.438 1.532 1.063 1.938.03-.406 0-.813 0-.813s.469.313.469.781c0 .47.093.72.25.907.156.187-.188.621-.22 1.154-.03.533.26.783.26.783s.178-1.187.585-1.594c.312 1-.25 1.47-.375 2.032s.218.594-.375 1c-.594.406-.938 1-.72 1.656.407-.906.938-.969.938-.969s-.562 1.407-.875 1.313c-.312-.094-1.094-.469-1.656.094.78-.032.906.125.906.125s-.187.593-.906.375c-.72-.219-1.625.186-1.906.562.53-.156.687-.062.687-.062l-.531.343s.438-.093.75 0c.312.094.406.313.812-.03.407-.345 1-.688 1-.688s-1.031.687-.968 1.531c1.28-.375 1.625-1.53 1.937-1.719.313-.187.813-.687.969-1.187.156.593-.47 1.625-.47 1.625s1.095-.094 1.157-2.782c.282.188 0 1.532 0 1.532s1-.5.75-1.907c-.25-1.406-.656-2.033-.656-2.033s.612.283.697.971c.709-.688.147-1.813-1.01-3.28 1.324.623 1.324 1.655 1.324 1.655s.27-1.375-.886-2.188c-1.156-.812-1.687-.937-1.687-.937s.78-.063 1.156-.156c-.187-1.063-3.844-1.219-4.531-1.313.843-.5.809-.886.53-1" fill="#ffc827"/></g></svg>