<svg xmlns="http://www.w3.org/2000/svg" viewBox="0 0 45 45"><defs><clipPath id="a"><path d="M0 36h36V0H0v36z"/></clipPath></defs><g clip-path="url(#a)" transform="matrix(1.25 0 0 -1.25 0 45)"><path d="M36 4a4 4 0 0 0-4-4H4a4 4 0 0 0-4 4v28a4 4 0 0 0 4 4h28a4 4 0 0 0 4-4V4z" fill="#3b88c3"/><path d="M19.723 29.448c2.264 0 6.666-.744 6.666-3.473 0-1.116-.775-2.077-1.922-2.077-1.271 0-2.14 1.085-4.744 1.085-3.844 0-5.83-3.256-5.83-7.038 0-3.689 2.016-6.852 5.83-6.852 2.605 0 3.658 1.301 4.93 1.301 1.396 0 2.047-1.394 2.047-2.107 0-2.977-4.682-3.659-6.977-3.659-6.294 0-10.666 4.992-10.666 11.41 0 6.45 4.34 11.41 10.666 11.41" fill="#fff"/></g></svg>