<svg xmlns="http://www.w3.org/2000/svg" viewBox="0 0 45 45"><defs><clipPath id="a"><path d="M0 36h36V0H0v36z"/></clipPath><clipPath id="b"><path d="M4 31a4 4 0 0 1-4-4V9a4 4 0 0 1 4-4h28a4 4 0 0 1 4 4v18a4 4 0 0 1-4 4H4z"/></clipPath><clipPath id="c"><path d="M0 36h36V0H0v36z"/></clipPath></defs><g clip-path="url(#a)" transform="matrix(1.25 0 0 -1.25 0 45)"><path d="M36 9a4 4 0 0 0-4-4H4a4 4 0 0 0-4 4v18a4 4 0 0 0 4 4h28a4 4 0 0 0 4-4V9z" fill="#e32118"/></g><g clip-path="url(#b)" transform="matrix(1.25 0 0 -1.25 0 45)"><path d="M36 13H0v10h36V13z" fill="#eee"/><path d="M36 23H0v8h36v-8z" fill="#3e9a00"/><path d="M0 33l11-15L0 3v30z" fill="#0173ce"/></g><g clip-path="url(#c)" transform="matrix(1.25 0 0 -1.25 0 45)"><path d="M18.443 21h-2.396v-4.75c0-.969.546-1.125.828-1.125h.922c.578 0 .646-.479.646-.479s.068.479.646.479h.922c.282 0 .828.156.828 1.125V21h-2.396z"/><path d="M18.443 15.07c-.133.141-.339.255-.646.255h-.922c-.189 0-.628.09-.628.925v4.55h4.392v-4.55c0-.835-.439-.925-.628-.925h-.922c-.307 0-.513-.114-.646-.255" fill="#fff"/><path d="M14.922 17.297s.249-.44.562-.734c.579-.547-.351-.985-.351-.985s-.29.188-.383.407c-.094.218.234.875.172 1.312"/><path d="M15.148 15.815a.774.774 0 0 0-.215.248c-.015.056.041.273.077.418.021.078.041.16.06.243.082-.104.176-.213.276-.307.143-.135.13-.22.125-.248-.02-.132-.189-.27-.323-.354" fill="#fff"/><path d="M15.202 16.27s.001-.776.767-1.081c.943-.376 1.593-.22 1.671-.251.08-.031 0-.797 0-.797s-1.042-.172-1.966.266c-.924.437-.877.782-.829.876.048.094.11.16.155.405.042.226.202.581.202.581"/><path d="M17.134 14.308c-.357 0-.887.048-1.374.279-.668.317-.75.56-.735.609.066.115.122.212.164.414.128-.23.342-.462.706-.607a3.694 3.694 0 0 1 1.58-.266 4.915 4.915 0 0 0-.02-.416 3.792 3.792 0 0 0-.321-.013" fill="#fff"/><path d="M21.965 17.297s-.25-.44-.562-.734c-.58-.547.35-.985.35-.985s.29.188.384.407c.094.218-.234.875-.172 1.312"/><path d="M21.738 15.815a.774.774 0 0 1 .215.248c.015.056-.04.273-.077.418a6.65 6.65 0 0 0-.06.243 2.834 2.834 0 0 0-.276-.307c-.143-.135-.129-.22-.125-.248.02-.132.19-.27.323-.354" fill="#fff"/><path d="M21.685 16.27s-.001-.776-.767-1.081c-.943-.376-1.593-.22-1.672-.251-.078-.031 0-.797 0-.797s1.044-.172 1.967.266c.924.437.877.782.829.876-.048.094-.11.16-.155.405-.042.226-.202.581-.202.581"/><path d="M19.753 14.308c.357 0 .887.048 1.374.279.668.317.75.56.735.609-.066.115-.122.212-.164.414a1.357 1.357 0 0 0-.706-.607 3.694 3.694 0 0 0-1.581-.266 4.915 4.915 0 0 1 .02-.416c.08-.007.19-.013.322-.013" fill="#fff"/><path d="M19.715 14.646s-.012-.339-1.271-.339c-1.26 0-1.272.339-1.272.339s-.047-.539 0-.756c.047-.217.375-.344 1.272-.344.896 0 1.224.128 1.27.345.048.216 0 .754 0 .754"/><path d="M18.443 13.747c-1.007 0-1.072.167-1.076.186a1.657 1.657 0 0 0-.016.32c.22-.084.561-.146 1.092-.146s.873.062 1.092.145a1.657 1.657 0 0 0-.016-.319c-.004-.019-.069-.186-1.076-.186" fill="#fff"/><path d="M17.855 22.524l.169-.293h.339l-.17-.294.17-.293h-.34l-.168-.294-.17.294h-.34l.17.293-.17.294h.34l.17.293zM16.515 22.37l.23-.249.33.076-.1-.324.232-.248-.33-.076-.098-.324-.232.248-.33-.076.099.324-.231.248.33.076.1.324zM15.256 21.938l.273-.2.31.137-.037-.337.274-.2-.31-.137-.035-.336-.274.199-.31-.137.036.337-.274.199.31.138.037.337zM19.118 22.524l-.169-.293h-.339l.17-.294-.17-.293h.34l.168-.294.17.294h.34l-.17.293.17.294h-.34l-.17.293zM20.458 22.37l-.23-.249-.331.076.1-.324-.231-.248.33-.076.098-.324.232.248.33-.076-.099.324.231.248-.33.076-.1.324zM21.717 21.938l-.273-.2-.31.137.037-.337-.274-.2.309-.137.036-.336.274.199.309-.137-.035.337.274.199-.31.138-.037.337z" fill="#ffd701"/><path d="M18.443 15.375c-.6 0-.693.219-.49.687.203.469.312 1.105.312 1.873s-.273.94-.59 1.237c-.316.297.163.187.384 0 .222-.188.303-.359.303-.359v.718l.248-.078v-.547s.36.313.601.344c.242.031.382-.156.07-.25-.313-.094-.67-.255-.67-1.065 0-.81.123-1.654.28-1.951.156-.297.152-.609-.448-.609" fill="#a36629"/><path d="M17.75 18.453c-.318-.167-.543.203-.543.203s-.289-.203-.561-.062c-.271.14-.228.265 0 .39.229.125.505.156.505.156s.072.344.195.58c.123.233.33.327.33.327s.252.547.686.578c.435.031.435-.422.435-.422s.269 0 .322-.156c.24.25.662.218.756.11.094-.11 0-.345 0-.345s.371.11.451-.015c.08-.125 0-.286 0-.286s.299-.058.158-.386c-.14-.328-.578-.235-.578-.235s-.177-.187-.37-.17c-.192.014-.255.28-.255.28s-.298-.078-.484.187c-.187-.28-.531-.125-.578-.015-.047-.36-.141-.547-.469-.719" fill="#009a3b"/></g></svg>