<svg xmlns="http://www.w3.org/2000/svg" viewBox="0 0 45 45"><defs><clipPath id="a"><path d="M0 36h36V0H0v36z"/></clipPath></defs><g clip-path="url(#a)" transform="matrix(1.25 0 0 -1.25 0 45)"><path d="M0 9a4 4 0 0 1 4-4h28a4 4 0 0 1 4 4v2H0V9z" fill="#002b7f"/><path d="M0 11h36v4H0v-4z" fill="#f9e814"/><path d="M9.567 20.843L8 21.982l-1.568-1.14.6 1.844-1.569 1.138h1.938l.6 1.843.597-1.843h1.938l-1.568-1.138.6-1.843zM4 26.236l-1.176-.854.45 1.382-1.177.854h1.454L4.001 29l.448-1.382h1.453l-1.176-.854.45-1.382L4 26.236zM32 31H4a4 4 0 0 1-4-4V15h36v12a4 4 0 0 1-4 4" fill="#002b7f"/><path d="M8.599 23.824l-.6 1.843-.597-1.843H5.464l1.568-1.139-.6-1.842L8 21.981l1.568-1.138-.6 1.842 1.568 1.139H8.599zM5.902 27.618H4.45L4 29l-.449-1.382H2.098l1.175-.854-.449-1.382L4 26.236l1.175-.854-.449 1.382 1.176.854z" fill="#fff"/></g></svg>