<svg xmlns="http://www.w3.org/2000/svg" viewBox="0 0 45 45"><defs><clipPath id="a"><path d="M0 36h36V0H0v36z"/></clipPath></defs><g clip-path="url(#a)" transform="matrix(1.25 0 0 -1.25 0 45)"><path d="M36 9a4 4 0 0 0-4-4H4a4 4 0 0 0-4 4v18a4 4 0 0 0 4 4h28a4 4 0 0 0 4-4V9z" fill="#141414"/><path d="M32 31a4 4 0 0 0 4-4V9a4 4 0 0 0-4-4h-8v26h8z" fill="#019900"/><path d="M24 5H12v26h12V5z" fill="#bf1700"/><path d="M21.767 21.97l-1.15-1.34a3.715 3.715 0 1 0-5.235 0l-1.15 1.34a5.463 5.463 0 0 1-1.713-3.975 5.481 5.481 0 0 1 10.963 0 5.46 5.46 0 0 1-1.715 3.975" fill="#ff8b88"/><path d="M17.973 23.6c1.906 0 3.49-1.176 3.49-1.176l-.775-.843s-1.282.796-2.688.796c-1.406 0-2.688-.972-2.688-.972l-.683.87s1.388 1.325 3.344 1.325" fill="#ff5b57"/><path d="M18.84 20.126a.84.84 0 1 0-1.68 0 .84.84 0 0 0 1.68 0" fill="#fff"/><path d="M19.09 19.289l-.422.454h-1.339l-.422-.454-.926-.115.288-.431h3.46l.288.43-.927.116z" fill="#fff"/><path d="M16.749 19.367a.21.21 0 1 0-.419 0v1.434a.21.21 0 0 0 .419 0v-1.434zM16.721 18.145h-.446v.658h.446v-.658zM16.721 17.145h-.446v.658h.446v-.658zM16.721 15.941h-.446v.861h.446v-.861z" fill="#fff"/><path d="M16.044 15.929h1.297v.34h-.982l-.315-.34zM19.271 19.367a.21.21 0 1 1 .42 0v1.434a.21.21 0 0 1-.42 0v-1.434zM19.3 18.145h.446v.658H19.3v-.658zM19.3 17.145h.446v.658H19.3v-.658zM19.3 15.941h.446v.861H19.3v-.861z" fill="#fff"/><path d="M19.976 15.929h-1.297v.34h.983l.314-.34z" fill="#fff"/><path d="M17.028 17.91l.878-.047 1.157-1.603-.384.009-.542.27-1.154.012.045 1.359zM12.403 17.77c-.015.064.481-.45.875-.466.394-.015 1.152-.03 1.257-.344.105-.312.192-.632.192-.632s-.232.191-.566.248c-.333.056-1.029.203-1.29.34-.262.138-.408.601-.468.854M13.33 14.896s.454-.068.882.131c.429.2 1.297.554 1.832-.17 0 0-.431.145-.808-.078-.376-.224-.943-.466-1.37-.361-.428.106-.536.478-.536.478M13.119 19.126c.053.116.27-.026.357.053.087.079-.012.359.116.391.127.032.457-.622.62-1.037.163-.416.05-.933-.096-1.042-.147-.108-.037 0-.037 0s-.041.425-.271.682c-.23.257-.69.953-.69.953M23.593 17.77c.015.064-.482-.45-.875-.466-.394-.015-1.152-.03-1.257-.344-.105-.312-.192-.632-.192-.632s.232.191.565.248c.334.056 1.03.203 1.29.34.263.138.409.601.469.854M22.69 14.896s-.453-.068-.882.131c-.429.2-1.297.554-1.83-.17 0 0 .43.145.806-.078.377-.224.943-.466 1.371-.361a.747.747 0 0 1 .535.478M22.877 19.126c-.053.116-.27-.026-.356.053-.087.079.011.359-.117.391-.127.032-.457-.622-.62-1.037-.163-.416-.051-.933.097-1.042.146-.108.037 0 .037 0s.04.425.27.682c.23.257.689.953.689.953M15.86 15.356l-.006.386H20l.016-.395-4.157.01zM14.89 18.367l.48.483 1.057-1.545-.093-.053-.784.985-.198-.272-.463.402zM21.116 18.367l-.482.483-1.057-1.545.094-.053.784.985.197-.272.464.402zM20.991 13.135c.054.17-.767.764-1.042.889s-.773-.19-1.11-.251c-.338-.062-.839-.031-.839-.031s-.36-.031-.697.03c-.337.062-.694.377-.969.252-.276-.125-1.1-.72-1.046-.89.054-.17.792-.411.792-.411l-.036-.288 1.201-.034.177.224.578.117.722-.117.248-.224 1.238.034-.018.288s.747.242.801.412" fill="#fff"/></g></svg>