<svg xmlns="http://www.w3.org/2000/svg" viewBox="0 0 45 45"><defs><clipPath id="a"><path d="M0 36h36V0H0v36z"/></clipPath></defs><g clip-path="url(#a)" transform="matrix(1.25 0 0 -1.25 0 45)"><path d="M36 9a4 4 0 0 0-4-4H4a4 4 0 0 0-4 4v18a4 4 0 0 0 4 4h28a4 4 0 0 0 4-4V9z" fill="#dd2e44"/><path d="M35 9a3 3 0 0 0-3-3H4a3 3 0 0 0-3 3v18a3 3 0 0 0 3 3h28a3 3 0 0 0 3-3V9z" fill="#00297b"/><path d="M17.519 9.375c2.672 2.22 5.629 4.795 5.629 8.434 0 3.64-2.957 6.215-5.629 8.435-2.673-2.22-5.63-4.795-5.63-8.435 0-3.639 2.957-6.214 5.63-8.434" fill="#dd2e44"/><path d="M12.727 16.374c.615-2.561 2.794-4.497 4.792-6.202 1.999 1.705 4.179 3.641 4.792 6.202h-9.584z" fill="#017bdd"/><path d="M22.31 16.374c.112.457.173.936.173 1.435 0 3.296-2.608 5.628-4.964 7.638-2.355-2.01-4.962-4.342-4.962-7.638 0-.499.06-.978.17-1.435h9.584z" fill="#66afeb"/><path d="M22.463 17.336a5.92 5.92 0 0 0-.152-.962h-5.76c.072.192.172.488.257.71 1.62-.222 4.173-.162 5.655.252" fill="#9c8431"/><path d="M14.938 12.577c-.442.48-.849.982-1.197 1.515.907-.04 2.677-.23 3.38-.84.17-.148.17-.222-.042-.193-.428.06-1.568-.18-2.142-.482" fill="#fff100"/><path d="M21.79 14.95c-.933-1.88-2.66-3.404-4.27-4.778-.502.427-1.014.87-1.51 1.331.684 1.083 2.59.417 2.59 1.38 0 .502-.483.942-1.166.991-.213.014-.265.023-.1.147.782.591 1.578-.044 2.914.562.973.441 1.418.408 1.541.367" fill="#fff100"/><path d="M18.543 21.55c-.018.022-.04.084-.046.1.042-.038.228-.086.295-.097-.028.018-.078.092-.096.107.053-.022.252-.092.295-.07a2.196 2.196 0 0 1-.177.17c.074-.026.25-.126.298-.126-.01.04-.026.103-.05.156.064-.045.18-.097.24-.119a.703.703 0 0 1-.04.17c.063-.044.178-.133.254-.163-.02.03-.013.126-.05.171.05-.037.2-.156.265-.178-.037.044-.043.133-.072.17.043-.037.185-.104.25-.148-.016.03-.043.097-.073.141.043-.044.235-.156.292-.2-.014.044-.043.141-.063.178.084-.03.305-.163.377-.193-.256.512-1.406.684-2.063.476.104.051.16.153.357.201a.645.645 0 0 0-.185.1c.063-.015.298.03.347.037-.043.037-.121.096-.156.133.093-.007.313.015.378.037-.037.015-.116.045-.158.067a1.17 1.17 0 0 1 .277-.008c-.041.037-.113.126-.17.163.092-.022.277-.022.398-.007-.056.037-.134.074-.185.104.058-.008.299.06.363.074-.035.036-.13.058-.185.081a.72.72 0 0 1 .312.148c-.792-.012-1.45-.397-1.793-.962.01.183-.051.408-.06.538-.031-.038-.081-.103-.1-.124.03.101.03.373.014.455-.018-.053-.067-.133-.09-.174.009.097-.018.368-.048.474-.022-.055-.078-.132-.101-.174.018.123-.06.44-.098.56a.861.861 0 0 0-.07-.236c-.002.11-.091.464-.133.54.018-.06-.014-.216-.016-.27a2.78 2.78 0 0 1-.171.34c.013-.042 0-.122 0-.165a1.913 1.913 0 0 1-.3.308c.065-.098.12-.252.155-.319a.4.4 0 0 1-.093.036c.056-.067.162-.253.2-.319a.637.637 0 0 1-.143.017c.074-.058.22-.223.27-.29a.32.32 0 0 1-.156-.005c.065-.034.214-.17.258-.233a.327.327 0 0 1-.153.042c.075-.078.185-.217.234-.27a.612.612 0 0 1-.231.06c.058-.058.23-.242.276-.304-.044.016-.146.001-.182.001a5.41 5.41 0 0 0 .276-.303.728.728 0 0 1-.193.045c.074-.084.18-.252.229-.322a.636.636 0 0 0-.155.028c-.371.613-1.041.991-1.506 1.026.064-.03.284-.17.355-.244-.05 0-.121.015-.163.015.078-.067.24-.163.305-.193-.021 0-.114 0-.142-.018.064-.064.235-.112.345-.193-.043 0-.114-.007-.156-.007a.882.882 0 0 0 .319-.24 3.221 3.221 0 0 1-.146.014 1.43 1.43 0 0 0 .278-.204c-.035.012-.117.012-.15.012.057-.045.232-.122.285-.189a2.08 2.08 0 0 1-.156.011c.06-.048.228-.178.32-.277-1.083.523-2.402.287-3.1-.677.085.03.384.207.483.237-.043-.052-.03-.119-.056-.17.085.051.22.162.32.23-.022-.038-.036-.119-.071-.186.07.044.29.192.397.281a.73.73 0 0 0-.064-.17c.114.066.327.214.399.266-.035-.066-.064-.14-.1-.185.1.037.327.185.462.26-.021-.053-.035-.127-.071-.17a.83.83 0 0 0 .39.102c-.021-.037-.056-.103-.1-.132.108.036.26.064.43.042-.732-.242-1.465-1.032-1.445-1.552.068.118.203.277.288.355-.018-.055-.007-.144-.004-.196.035.111.11.244.178.363a.472.472 0 0 1 .025-.196c.035.106.164.325.22.414a.63.63 0 0 1 .018-.244c.053.111.164.281.253.381a.71.71 0 0 1-.015-.222c.057.1.199.277.285.37-.026-.078-.026-.197-.03-.252.069.107.26.307.37.403-.031-.07-.042-.184-.052-.233.08.09.32.237.408.263-.142-.1-.291-.355-.376-.477l.138.026a1.356 1.356 0 0 1-.267-.307c.043.025.12.051.16.066a1.788 1.788 0 0 1-.234-.358c.046.025.128.044.167.058-.082-.074-.206-.34-.25-.447.033.04.15.107.182.122a2.026 2.026 0 0 1-.213-.455c.022.052.132.141.164.178a2.563 2.563 0 0 1-.075-.34c.014.036.067.084.092.114a1.79 1.79 0 0 1 .032-.396c.01.107.06.248.075.315a.53.53 0 0 1 .042-.082c0 .082.033.274.043.344a.65.65 0 0 1 .089-.1 2.092 2.092 0 0 0-.021.366.29.29 0 0 1 .11-.092 1.204 1.204 0 0 0-.046.318.324.324 0 0 1 .082-.122c-.007.1-.004.263-.007.33a.556.556 0 0 1 .124-.182 4.027 4.027 0 0 0-.018.377c.022-.037.1-.088.124-.11-.01.08-.017.318-.017.377a.604.604 0 0 1 .107-.148c-.004.103.017.285.024.362a.66.66 0 0 0 .093-.115c.013.156.107.32.227.467.128-.134.239-.429.259-.455.015.033.032.103.047.118.003-.074.035-.266.042-.318a.54.54 0 0 0 .072.126c0-.089.01-.237.02-.304a.327.327 0 0 0 .072.112 1.455 1.455 0 0 1 0-.349c.014.03.06.093.085.116-.022-.067.05-.304.057-.408.007.038.058.097.078.133 0-.08.028-.318.035-.436a.561.561 0 0 0 .09.148c-.018-.107.035-.31.074-.403a.558.558 0 0 0 .05.17c.035-.07.13-.27.135-.38.043.106.036.325-.014.461a.304.304 0 0 1 .085-.05c-.024.095-.1.28-.138.313.036-.019.088-.044.11-.063a1.758 1.758 0 0 1-.152.374c.042-.01.102-.022.14-.044a1.554 1.554 0 0 1-.234.321c.036-.01.126-.04.157-.052-.04.067-.221.226-.331.297.058.007.156.007.203.007-.067.085-.227.2-.327.251.032-.004.117-.022.159-.033-.027.081-.184.237-.26.303.066-.033.272-.136.335-.203a.479.479 0 0 1-.017.225c.063-.04.217-.184.245-.24a.57.57 0 0 1 .01.174c.164-.115.267-.252.31-.326a.903.903 0 0 1-.004.237 1.1 1.1 0 0 0 .193-.24c.002.048.01.125-.004.166.035-.044.13-.237.145-.277.012.04.037.17.025.207.039-.056.17-.25.19-.318.013.06.039.151.035.185.043-.063.12-.289.127-.352.017.03.052.182.047.237.035-.066.138-.336.16-.392a.846.846 0 0 1 .03.196c.026-.04.144-.333.148-.38a.632.632 0 0 1 .023.192c.016-.067.103-.245.217-.37.095.96-.926 1.567-1.741 1.691" fill="#029270"/><path d="M15.894 15.183c-.006 1.665.003 2.242-.045 2.242s-.04-.577-.045-2.242" fill="#7b4800"/><path d="M15.522 14.854c1.045 0 1.393.232 1.372.463-.498 0-.633-.119-1.372-.119-.74 0-.875.118-1.373.118-.021-.23.327-.462 1.373-.462" fill="#7b4800"/><path d="M15.522 14.57c.487 0 .881.04.849.206a.818.818 0 0 0-.208-.03l-.025.157c-.009.043-.126.031-.119-.012l.021-.158c-.173-.024-.394-.024-.518-.024-.126 0-.345 0-.52.024l.021.158c.008.043-.109.055-.118.012l-.025-.158a.818.818 0 0 0-.208.031c-.032-.167.363-.207.85-.207M17.66 21.293c.065-1.825-.717-6.224 2.047-7.589.264-.119.069-.617-.38-.386-2.631 1.492-1.79 6.032-1.836 7.986l.17-.011zM17.436 21.744c-.255 0-.255-.4 0-.4.256 0 .256.4 0 .4" fill="#7b4800"/><path d="M17.788 21.681c-.256 0-.256-.4 0-.4s.256.4 0 .4" fill="#7b4800"/><path d="M17.45 21.425c-.257 0-.257-.4 0-.4.255 0 .255.4 0 .4" fill="#7b4800"/><path d="M17.688 21.495c-.256 0-.256-.4 0-.4s.256.4 0 .4" fill="#7b4800"/><path d="M14.825 17.306c.17-.621-.015-1.441-.32-2.012.654.067 1.706.133 2.062 0-.313.828-1.03 1.842-1.742 2.012" fill="#fff"/><path d="M14.845 18.433c-.048.135-.137.218-.257.218-.18 0-.296-.184-.296-.458s.119-.465.3-.462c.152 0 .253.109.264.288h-.234v.215h.432v-.7h-.138a.608.608 0 0 1-.02.155.367.367 0 0 0-.308-.19c-.278-.017-.511.288-.511.695s.197.676.51.676a.437.437 0 0 0 .45-.437h-.192zM16.456 17.724c.165 0 .208.124.208.24v.906h.231v-.902c0-.223-.102-.471-.439-.471s-.439.248-.439.47v.903h.231v-.906c0-.116.045-.24.208-.24M18.545 18.007H18.4l.151.557.15-.558-.156.001v-.229h.22l.074-.279h.225l-.38 1.373h-.267l-.38-1.373h.224l.075.28h.21v.228zM20.326 17.499l-.213 1.046v-1.046h-.223v1.373h.346l.205-1.053.205 1.053h.346v-1.373h-.223v1.046l-.213-1.046h-.23z" fill="#dd2e44"/></g></svg>