<svg xmlns="http://www.w3.org/2000/svg" viewBox="0 0 45 45"><defs><clipPath id="a"><path d="M0 36h36V0H0v36z"/></clipPath></defs><g clip-path="url(#a)" transform="matrix(1.25 0 0 -1.25 0 45)"><path d="M32 31H4a3.98 3.98 0 0 1-2.646-1.006L17.5 18H36v9a4 4 0 0 1-4 4" fill="#6ab2e7"/><path d="M32 5H4a3.98 3.98 0 0 0-2.646 1.006L17.5 18H36V9a4 4 0 0 0-4-4" fill="#12ad2b"/><path d="M1.383 6.027L17.5 18 1.354 29.994A3.989 3.989 0 0 1 0 27V9.5c0-1.48.538-2.683 1.383-3.473" fill="#eee"/><path d="M6.5 21.5l.826-2.543H10l-2.163-1.571.826-2.543L6.5 16.414l-2.163-1.571.826 2.543L3 18.957h2.674L6.5 21.5z" fill="#d7141a"/></g></svg>