<svg xmlns="http://www.w3.org/2000/svg" viewBox="0 0 45 45"><defs><clipPath id="a"><path d="M0 36h36V0H0v36z"/></clipPath></defs><g clip-path="url(#a)" transform="matrix(1.25 0 0 -1.25 0 45)"><path d="M36 4a4 4 0 0 0-4-4H4a4 4 0 0 0-4 4v28a4 4 0 0 0 4 4h28a4 4 0 0 0 4-4V4z" fill="#3b88c3"/><path d="M12.513 26.658c0 1.27.868 2.418 2.42 2.418h7.936c1.365 0 2.078-1.054 2.078-2.14 0-1.053-.683-2.138-2.078-2.138h-5.705V20.27h4.807c1.488 0 2.232-1.054 2.232-2.11 0-1.084-.744-2.17-2.232-2.17h-4.807V9.234c0-1.551-.992-2.418-2.325-2.418-1.334 0-2.326.867-2.326 2.418v17.425z" fill="#fff"/></g></svg>