<svg xmlns="http://www.w3.org/2000/svg" viewBox="0 0 45 45"><defs><clipPath id="a"><path d="M0 36h36V0H0v36z"/></clipPath></defs><g clip-path="url(#a)" transform="matrix(1.25 0 0 -1.25 0 45)"><path d="M36 9a4 4 0 0 0-4-4H4a4 4 0 0 0-4 4v18a4 4 0 0 0 4 4h28a4 4 0 0 0 4-4V9z" fill="#ce1b26"/><path d="M.555 29A3.965 3.965 0 0 1 0 27V9c0-.732.212-1.409.555-2h34.89c.344.591.555 1.268.555 2v18c0 .732-.211 1.41-.554 2H.555z" fill="#003e87"/><path d="M8 18c0 5.523 4.477 10 10 10s10-4.477 10-10S23.523 8 18 8 8 12.476 8 18" fill="#fff"/><path d="M9 18a9 9 0 0 0 9 9 9 9 0 1 0-9-9" fill="#730900"/><path d="M9.257 18a8.743 8.743 0 0 0 17.486 0 8.744 8.744 0 0 0-17.486 0" fill="#fff"/><path d="M18 9.656c-.282 0-.51-.293-.51-.656 0-.364.228-.656.51-.656.282 0 .51.292.51.656 0 .363-.228.656-.51.656M18.51 27c0-.363-.228-.656-.51-.656-.282 0-.51.293-.51.656 0 .363.228.657.51.657.282 0 .51-.294.51-.657M20.16 26.06c.272-.072.568.15.662.502.094.35-.05.693-.322.767-.273.072-.569-.153-.662-.502-.094-.352.05-.694.322-.766M15.178 9.439c.094.35.391.575.663.503.272-.073.417-.416.322-.767-.093-.35-.39-.575-.662-.503-.272.074-.416.416-.323.767M22.172 25.227c.244-.141.588-.001.77.313.18.315.13.683-.114.824-.244.14-.588 0-.77-.314-.181-.314-.13-.682.114-.823M13.059 10.46c.18.315.526.455.77.315.243-.142.294-.51.113-.824-.182-.315-.526-.456-.77-.315-.244.142-.295.51-.113.824M23.9 23.9c.2-.199.567-.152.824.104.257.257.303.625.104.825-.199.2-.568.153-.824-.105-.257-.256-.303-.625-.104-.824M11.275 11.997c.257.257.626.303.825.104.2-.199.152-.568-.104-.825-.257-.257-.625-.304-.825-.105-.199.2-.152.57.104.826M25.227 22.172c.14-.243.508-.295.822-.113.315.18.455.526.315.769-.142.244-.51.296-.825.114-.314-.181-.454-.526-.312-.77M9.95 13.942c.314.18.683.13.824-.114.14-.243 0-.588-.314-.77-.315-.181-.683-.13-.824.114-.141.244 0 .589.314.77M26.06 20.16c.073-.273.415-.417.767-.323.35.094.574.39.502.663-.074.271-.416.416-.766.322-.352-.094-.575-.39-.502-.662M9.175 16.163c.35.094.694-.05.766-.322.073-.273-.151-.569-.502-.663-.351-.094-.693.05-.766.323-.073.272.152.568.502.662M26.344 18c0-.282.293-.51.656-.51.364 0 .656.228.656.51 0 .282-.292.51-.656.51-.363 0-.656-.228-.656-.51M9 18.51c.363 0 .657-.228.657-.51 0-.282-.294-.51-.657-.51-.363 0-.657.228-.657.51 0 .282.294.51.657.51M26.06 15.84c-.072-.272.15-.568.502-.662.35-.094.693.05.767.322.072.273-.153.569-.502.662-.352.094-.694-.05-.766-.322M9.439 20.822c.35-.094.575-.391.503-.663-.073-.272-.416-.417-.767-.322-.35.093-.575.39-.503.662.074.272.416.416.767.323M25.227 13.828c-.141-.243-.001-.588.313-.77.315-.18.683-.129.824.114.14.244 0 .59-.314.77-.314.182-.682.13-.823-.114M10.46 22.942c.315-.18.455-.526.315-.77-.142-.243-.51-.294-.824-.112-.315.181-.456.525-.315.77.142.243.51.294.824.112M23.9 12.1c-.199-.2-.152-.566.104-.824.257-.256.625-.303.825-.104.2.199.153.569-.105.824-.256.258-.625.303-.824.104M11.997 24.725c.257-.256.303-.625.104-.825-.199-.2-.568-.152-.825.104-.257.257-.304.626-.105.825.2.199.57.153.826-.104M22.172 10.774c-.243-.14-.295-.509-.113-.823.18-.315.526-.454.769-.314.244.141.296.51.114.824-.181.314-.526.454-.77.313m-8.23 15.275c.18-.314.13-.682-.114-.823-.243-.14-.588 0-.77.314-.181.314-.13.682.114.823.244.141.589.001.77-.314M20.16 9.94c-.273-.073-.417-.415-.323-.767.094-.349.39-.574.663-.5.271.073.416.415.322.765-.094.351-.39.575-.662.502m-3.997 16.885c.094-.35-.05-.693-.322-.766-.273-.073-.569.152-.663.503-.094.35.05.693.323.766.272.072.568-.152.662-.503" fill="#007f00"/><path d="M14.96 23.802l.992-1.693h1.087l.487-.39.3-1.037-1.076.472 1.004-.822-.242-.824h.827v1.463l1.35.827-.223.166-1.12-.625-.13.914-.202.217.688.85-.356.143-.519-.77-.073.626.073.773s-.346.275-.315.184c.033-.09 0-.68 0-.68l-.65.7-.3-.12.652-.58-.759-.566-.92.253.176.94h-.189l-.163-.886-.163.755-.236-.417M18.665 23.897h-.217v.813h.217v-.813zM19.857 24.114h-.271v.433h.271v-.433z" fill="#b34b00"/><path d="M16.16 22.84c.033-.08.18-.48.18-.48l1.044-.107.443-.455-.174.522-.269.604-1.224-.083z" fill="#fff"/><path d="M14.981 24.692c.63.378 1.04-.253 1.04-.253s.26.795 1.036.849c.776.054.77-.29.77-.29s.172.5 1.21.296c1.037-.204 1.005-.548.831-.692-.174-.145-1.745-.055-1.745-.055s.162-.307.18-.433c.018-.127.578.235 1.462 0 0 0 .435.759 1.103.36.67-.396 1.106-1.155.941-1.371-.164-.217-1.356-.073-1.492.072 0 0-.242-.398-.803-.325-.56.072-1.5.668-1.5.668l-.188.289s-.435.344-.964.362c-.528.017-.895 0-.895 0s-.356-.416-.77-.47c-.417-.055-.849-.036-.849-.036s-.088.595.633 1.029" fill="#289400"/><path d="M15.711 23.536c1.04.163 1.725 0 1.797-.506.072-.506-.775-.415-.947-.433-.173-.019-1.166-.362-1.49-.344-.326.018-.995.344-.507.813.488.47 1.147.47 1.147.47M19.69 22.615c1.021-.238 1.503-.795 1.268-1.03-.235-.234-.837-.2-1.385 0-.548.199-1.308.055-1.478.434-.17.379.435.867 1.594.596M19.342 21.314c.776-.128.804-.812.678-.939-.127-.126-1.32.036-1.59.361-.271.325.144.704.912.578M16.456 21.658c.968.366 1.383-.055 1.37-.434-.01-.38-.822-.361-1.14-.505-.315-.146-.893-.326-1.091-.11-.2.218.097.76.86 1.049" fill="#289400"/><path d="M15.792 11.664c-.27-.266-.677-.82.197-.99.875-.17.534.69.35.832-.185.144-.547.158-.547.158" fill="#adadad"/><path d="M16.227 11.416c.018-.053.126-.307 0-.451-.127-.145-.343-.254-.542-.235 0 0 .849-.144 1.029-.236.18-.088.343.182.253.561-.09.379-.74.361-.74.361" fill="#69f"/><path d="M18.015 11.815v-.922s-.741-.018-1.59.306c-.848.327-1.011.489-1.011.489s-.723-.218-1.066-.218c-.343 0-.451.127-.578.344-.126.217-.343.648-.361.775-.018.127.398.58.867.58s1.102-.38 1.102-.38.289.29.759.038c.469-.254.74-.326.704-.795 0 0 .256-.131.506-.2.397-.11.668-.017.668-.017" fill="#eee"/><path d="M15.458 12.73c.346-.234 1.068-.564 1.383-.699 0 0 .112.304-.168.48-.279.179-.684.339-.881.417-.198.077-.334-.198-.334-.198M15.594 11.664c-.487.437-.794.602-1.156.674-.36.072-.784-.06-.77-.338.011-.277.358-.566.68-.529.321.035 1.246.193 1.246.193" fill="#adadad"/><path d="M15.594 12.627s.018.342.253.199c.235-.146.163-.406.163-.406l-.416.207zM15.27 11.777s-.614.451-.885.451c-.272 0-.542-.017-.525-.224.019-.209.38-.299.579-.334.198-.038.83.107.83.107" fill="#69f"/><path d="M20.236 11.664c.271-.266.678-.82-.196-.99-.876-.17-.534.69-.35.832.185.144.546.158.546.158" fill="#adadad"/><path d="M19.803 11.416c-.02-.053-.127-.307 0-.451.126-.145.343-.254.54-.235 0 0-.848-.144-1.028-.236-.181-.088-.343.182-.252.561.09.379.74.361.74.361" fill="#69f"/><path d="M18.015 11.815v-.922s.74-.018 1.589.306c.849.327 1.012.489 1.012.489s.722-.218 1.065-.218c.343 0 .45.127.578.344.126.217.344.648.36.775.019.127-.396.58-.866.58s-1.101-.38-1.101-.38-.29.29-.76.038c-.47-.254-.74-.326-.703-.795 0 0-.256-.131-.506-.2-.397-.11-.668-.017-.668-.017" fill="#eee"/><path d="M20.571 12.73c-.348-.234-1.068-.564-1.383-.699 0 0-.112.304.167.48.28.179.685.339.881.417.198.077.335-.198.335-.198M20.435 11.664c.487.437.794.602 1.156.674.36.072.783-.06.77-.338-.012-.277-.358-.566-.68-.529-.322.035-1.246.193-1.246.193" fill="#adadad"/><path d="M20.435 12.627s-.018.342-.252.199c-.236-.146-.163-.406-.163-.406l.415.207zM20.76 11.777s.614.451.885.451c.27 0 .542-.017.524-.224-.018-.209-.38-.299-.578-.334-.2-.038-.831.107-.831.107" fill="#69f"/><path d="M15.017 12.734c.422-.164 1.102-.902 0-.434-1.103.471-.651.688 0 .434M16.48 11.867c.479-.13 1.282-.27 1.734-.27.45 0 .74-.47.18-.416-.56.055-1.716.176-2.113.34-.397.166-.195.455.199.346M19.333 11.815c.505.27 1.463.865 1.788.939.325.073.723.036.687-.127-.037-.165-.236-.252-.542-.29-.308-.036-1.301-.866-1.933-.956-.631-.092 0 .433 0 .433" fill="#d3d3d3"/><path d="M13.047 14.723c.997.199 5.491.324 6.773.162 1.283-.162 4.083-.94 3.721-1.391-.36-.451-1.914-.416-2.799-.271-.885.145-1.229-.633-2.728-.65-1.499-.018-2.258.47-2.89.705-.632.234-1.535.107-2.077-.055s-2.33 1.029 0 1.5" fill="#289400"/><path d="M18.015 12.896v6.828H15.36V16.31c0-1.246.939-2.258 1.327-2.619.389-.359 1.328-.885 1.328-.885M18.015 12.896v6.828h2.654V16.31c0-1.246-.938-2.258-1.327-2.619-.388-.359-1.327-.885-1.327-.885"/><path d="M18.015 19.508H15.63v-3.201c0-1.12.843-2.137 1.192-2.461.349-.324 1.192-.795 1.192-.795s.843.47 1.19.795c.35.324 1.194 1.342 1.194 2.46v3.202h-2.384z" fill="#9ed7ff"/><path d="M16.456 14.252h3.118c.122.154.25.336.369.541h-3.856c.118-.205.247-.387.369-.541" fill="#006ac8"/><path d="M16.456 14.252c.14-.178.272-.318.367-.406a2.6 2.6 0 0 1 .235-.19h1.914a2.6 2.6 0 0 1 .235.19c.094.088.226.228.367.406h-3.118z" fill="#5ac800"/><path d="M18.015 13.05s.56.315.957.606h-1.915c.396-.291.958-.605.958-.605" fill="#ffd801"/><path d="M15.825 15.336l2.19 1.95v2.222H15.63v-3.201c0-.338.077-.668.194-.971" fill="#fff"/><path d="M20.203 15.336c.118.303.195.633.195.97v3.202h-2.383v-2.221l2.188-1.951z" fill="#ffd83c"/><path d="M17.703 17.673l-.01.01a.08.08 0 0 1-.116 0l-.068-.068-.472.473c.055.075.062.167.01.218l-.958.941c-.058.058-.168.04-.245-.039-.077-.078-.093-.188-.035-.245l.958-.942c.04-.039.104-.043.165-.016l.483-.484-.099-.099a.082.082 0 0 1 0-.116l.011-.01a.083.083 0 0 1 .115 0l.261.262a.08.08 0 0 1 0 .115" fill="#b34b00"/><path d="M16.166 17.183a.11.11 0 0 0-.156-.02.111.111 0 0 0-.02.155l1.026 1.34a.11.11 0 0 0 .155.02.112.112 0 0 0 .02-.156l-1.024-1.339z" fill="#782121"/><path d="M17.436 18.46l-.6.38.286.45.6-.38-.286-.45z" fill="#d3d3d3"/><path d="M20.001 17.344a.11.11 0 0 1 .164.15l-1.137 1.245a.11.11 0 0 1-.157.007.11.11 0 0 1-.007-.156l1.137-1.246z" fill="#782121"/><path d="M18.584 18.273l.515.49-.367.385-.515-.488.367-.387zM20.113 18.799l-1.346-1.291-.337.353 1.345 1.29.338-.352z" fill="#fff"/><path d="M16.686 15.402s.73-.336 1.355-.352c.624-.015.781.088.781.088l-.179-.345h-1.522l-.434.61z" fill="#b34b00"/><path d="M16.927 15.45l.383-.276h1.418l-.194.937-1.224-.058-.383-.604z" fill="#fff"/><path d="M14.221 22.258c.42.203 1.22.65 1.341.718.122.067.325-.176.136-.258-.19-.08-1.192-.677-1.477-.812-.284-.136 0 .352 0 .352" fill="#892614"/><path d="M12.758 14.342c-.054-.396-.29-.795.163-.92.45-.127.536.293.413.67-.124.377-.576.25-.576.25M14.33 14.363c-.072-.166-.29-.529.145-.482.433.046.704.043.975 0 .27-.045.434.25.144.238-.288-.012-.506.094-.615.363-.108.268-.65-.119-.65-.119M13.269 19.355l-.129.7s-.365-.374-.491-.554c-.126-.181-.377.08-.523.199-.144.117-.307.478-.343.784-.036.307-.398.488-.271.704.126.217.235.326.452.326.216 0 .27-.29.27-.29s.418-.053.253-.252c-.406-.493-.084-.577-.084-.577l.246.306s-.091.577 0 .686c.091.109.633.307.813.325.182.018.398.18.317.289-.081.108-.262.307-.262.542 0 .235-.082.74.446.668.529-.072.71-.415.565-.704-.144-.29-.216-.38-.162-.542.054-.163.07-.362.423-.38.353-.017.421-.13.475-.438.054-.307.059-.464.041-.717-.018-.253.002-.343.002-.343s.323.063.558.027c.235-.036.722-.335.722-.335h-1.173l-.091-.38s-.127-.145-.181-.126c-.054.019-.353.488-.353.488l-.134-.488-1.386.082z" fill="#fbd44d"/><path d="M13.173 19.399c-.198-.433-.379-1.372-.343-1.877.036-.506.136-1.03-.005-1.498-.139-.471-.338-1.807-.338-1.807l.506-.344.56.362.09 2.113.32 1.046.312-.757-.126-2.348.921.018s-.073 2.168-.09 2.51c-.018.343-.147 1.39-.19 1.716-.045.325-.135.74-.135.74l-1.482.126z" fill="#d3d3d3"/><path d="M13.21 19.49s.371-.102.753-.09c.4.011.809.136.818.09.018-.09 0-.398 0-.398s-.335.073-.782 0c-.446-.072-.627-.054-.79 0-.161.054 0 .398 0 .398" fill="#9b5f00"/><path d="M14.09 23.5c.398 0 .57-.307.553-.632-.017-.325-.116-.416-.116-.416s.065.352-.143.181v.343s-.452-.036-.605 0c-.154.036-.244.072-.244.072l-.063-.244s-.208.244-.01.479c.199.235.535.217.535.217"/><path d="M11.038 20.551c.184.271.515.474.515.474s.054-.068.244 0 .176.122.285.162c.108.041.094.163.094.163s.637.258.908.38c.27.121.582.311.582.311l.122-.095s0-.203-.108-.27c-.11-.068-.921-.475-.99-.529-.067-.054-.216-.109-.216-.109s-.067.136-.135.081c-.068-.053-.11-.202-.11-.202s-.27-.122-.432-.23c-.163-.109-.352-.489-.53-.57-.174-.08-.297.331-.23.434" fill="#892614"/><path d="M14.935 22.718c.1.095.464.351.553.216.088-.135.223-.88.657-.812 0 0-.257-.23-.474-.338-.217-.109-.6-.136-.6-.136s-.006.352 0 .555c.004.204-.136.515-.136.515" fill="#d3d3d3"/><path d="M19.139 23.68c.149.068 1.619-.718 1.866-.826.247-.109.397-.542.64-.637.244-.095.04-.257-.108-.176-.15.081-.474.054-.76.15-.284.094-1.805.905-1.846 1.027-.04.121.208.462.208.462" fill="#b34b00"/><path d="M23.226 14.342c.054-.396.289-.795-.163-.92-.451-.127-.535.293-.411.67.122.377.574.25.574.25M21.654 14.363c.072-.166.288-.529-.145-.482-.433.046-.704.043-.975 0-.27-.045-.433.25-.144.238.288-.012.507.094.615.363.108.268.65-.119.65-.119M22.715 19.355l.129.7s.29-.291.417-.472c.126-.18.42-.2.564-.082.146.116.34.676.376.982.035.307.378.253.25.47-.125.217-.26.356-.476.356-.217 0-.225-.085-.225-.085s-.276-.073-.168-.308c.108-.234-.032-.549-.032-.549l-.215.184s-.068.692-.16.8c-.091.108-.473.343-.653.36-.181.019-.398.182-.317.29.082.108.262.307.262.542 0 .235.083.74-.446.668-.53-.072-.71-.415-.565-.704.144-.29.12-.398.068-.56-.055-.162.024-.344-.33-.362-.352-.017-.47-.203-.525-.51-.054-.307-.008-.392.01-.645.018-.253-.002-.343-.002-.343s-.323.063-.558.027c-.235-.036-.722-.335-.722-.335h1.173l.09-.38s.127-.145.182-.126c.055.019.353.488.353.488l.134-.488 1.386.082z" fill="#892614"/><path d="M22.81 19.399c.199-.433.38-1.372.344-1.877-.036-.506-.136-1.03.005-1.498.139-.471.338-1.807.338-1.807l-.505-.344-.561.362-.09 2.113-.32 1.046-.312-.757.127-2.348-.922.018s.071 2.168.09 2.51c.018.343.146 1.39.19 1.716.045.325.135.74.135.74l1.481.126z" fill="#d3d3d3"/><path d="M22.773 19.49s-.37-.102-.753-.09c-.398.011-.809.136-.818.09-.018-.09 0-.398 0-.398s.336.073.782 0c.446-.072.627-.054.79 0 .162.054 0 .398 0 .398" fill="#9b5f00"/><path d="M21.894 23.5c-.396 0-.571-.307-.553-.632.018-.325.112-.416.112-.416s-.08.352.138.181v.343s.456-.036.61 0c.154.036.247.072.247.072l.063-.244s.208.244.01.479c-.2.235-.533.217-.533.217"/><path d="M22.205 22.041l1.484-.797s-.197.001-.193-.17c.005-.171-1.215.574-1.215.574l-.076.393zM24.286 20.85l.461-.15s.055.15.19.075-.068-.678-.163-.668c-.094.011-.203.16-.217.281-.013.122-.419.285-.419.285l.148.176z" fill="#b34b00"/></g></svg>