<svg xmlns="http://www.w3.org/2000/svg" viewBox="0 0 45 45"><defs><clipPath id="a"><path d="M0 36h36V0H0v36z"/></clipPath></defs><g clip-path="url(#a)" transform="matrix(1.25 0 0 -1.25 0 45)"><path d="M36 9a4 4 0 0 0-4-4H4a4 4 0 0 0-4 4v18a4 4 0 0 0 4 4h28a4 4 0 0 0 4-4V9z" fill="#0021ad"/><path d="M34.618 5.998C35.458 6.731 36 7.798 36 9v18a4 4 0 0 1-4 4H4a3.963 3.963 0 0 1-2.618-.998L34.618 5.998z" fill="#1b8a42"/><path d="M8.52 13.738l.17-.584h.587l-.464-.357.17-.567-.464.358-.464-.342.17.551-.464.357h.572l.186.584zM6.988 20.242l-.679-.627.068.92-.914.14.762.523-.46.8.884-.27.34.86.338-.86.884.27-.46-.8.761-.522-.913-.14.068-.921-.679.627zM3.365 14.93l-.679-.627.068.92-.914.14.762.522-.46.802.884-.271.34.86.338-.86.884.27-.46-.801.761-.521-.913-.14.068-.921-.679.627zM10.476 15.368l-.68-.627.069.921-.914.14.762.522-.46.801.884-.27.339.86.339-.86.884.27-.46-.8.76-.522-.912-.14.068-.922-.68.627zM6.929 7.627L6.249 7l.069.922-.914.139.762.523-.46.801.884-.27.339.86.339-.86.884.27-.46-.801.76-.521-.912-.141L7.608 7l-.68.627z" fill="#fff"/><path d="M14.437 18a3.563 3.563 0 1 0 7.125 0 3.563 3.563 0 0 0-7.125 0" fill="#ffc639"/><path d="M15.862 19.64s1.085-1.005 1.643-1.048c.91-.07 1.777.688 1.777 1.247l.855.362v-1.12l.816-.56-1.528-1.398v-1.68l-.913.222-.066 1.167s-.04.442-.6.442c-.56 0-.998.036-1.114.339-.032.083-1.514-.21-1.514-.21l.96 1.337-.316.34v.56z" fill="#1b8a42"/><path d="M29.617 29.482c.232.182 2.41-1.969 2.668-2.384.26-.414.156-1.969.415-2.669.26-.699.491-.855.751-.699.26.155 1.167 0 1.296-.337 0 0-.726-.44-.778-.752 0 0-2.305-.803-3.627-1.476-1.322-.674-.979-.328-2.073-.804-1.607-.699-3.058-.362-4.12-.207-1.063.155-.753.39 0 .285.751-.104 3.004.13 3.601.337.596.206 1.762 1.14 2.255 1.373.492.233 1.114 1.088.57 1.606-.545.52-2.177 1.244-2.825 1.944-.649.7-.648.803.363.648 1.011-.156 1.9-.69 2.383-1.174.52-.518.98.145.67.975-.312.83-.746.743-1.032 1.495-.285.751-.75 1.658-.517 1.84" fill="#ffc639"/></g></svg>