<svg xmlns="http://www.w3.org/2000/svg" viewBox="0 0 45 45"><defs><clipPath id="a"><path d="M0 36h36V0H0v36z"/></clipPath></defs><g clip-path="url(#a)" transform="matrix(1.25 0 0 -1.25 0 45)"><path d="M10 31H4a4 4 0 0 1-4-4v-6h10v10zM32 31H16V21h20v6a4 4 0 0 1-4 4M16 5h16c2.209 0 4 1.791 4 4.5V15H16V5zM0 15V9.5C0 6.791 1.791 5 4 5h6v10H0z" fill="#ef2b2d"/><path d="M14.5 31h-2.944l-.025-11.5H0v-3h11.525L11.5 5h3v11.5H36v3H14.5V31z" fill="#002868"/><path d="M14.5 5H16v10h20v1.5H14.5V5zM16 31h-1.5V19.5H36V21H16v10zM11.5 31H10V21H0v-1.5h11.5V31zM0 16.5V15h10V5h1.5v11.5H0z" fill="#edecec"/></g></svg>