<svg xmlns="http://www.w3.org/2000/svg" viewBox="0 0 45 45"><defs><clipPath id="a"><path d="M0 36h36V0H0v36z"/></clipPath><clipPath id="b"><path d="M4 31a4 4 0 0 1-4-4v-9h19v13H4z"/></clipPath><clipPath id="c"><path d="M0 36h36V0H0v36z"/></clipPath></defs><g clip-path="url(#a)" transform="matrix(1.25 0 0 -1.25 0 45)"><path d="M36 9a4 4 0 0 0-4-4H4a4 4 0 0 0-4 4v18a4 4 0 0 0 4 4h28a4 4 0 0 0 4-4V9z" fill="#00247d"/><path d="M9 9.977L7.78 8.847l.12 1.66-1.645.252 1.373.94-.828 1.443 1.59-.487.612 1.549.61-1.55 1.593.488-.83-1.442 1.374-.941-1.646-.251.122-1.66L9 9.977zM27.95 26.438l-.799-.738.08 1.086-1.078.164.9.615-.543.944 1.04-.319.4 1.013.4-1.013 1.041.319-.543-.944.9-.615-1.077-.164.08-1.086-.8.738zM23.95 20.438l-.799-.738.08 1.086-1.078.163.9.615-.543.944 1.04-.319.4 1.014.4-1.014 1.041.32-.543-.945.9-.615-1.077-.164.08-1.086-.8.738zM32.95 22.438l-.799-.738.08 1.086-1.078.163.9.615-.543.944 1.04-.319.4 1.014.4-1.014 1.041.32-.543-.945.9-.615-1.077-.164.08-1.086-.8.738zM27.95 8.438l-.799-.739.08 1.087-1.078.164.9.615-.543.944 1.04-.32.4 1.015.4-1.015 1.041.32-.543-.944.9-.615-1.077-.164.08-1.086-.8.738zM31 20l.294-.596.657-.095-.475-.463.112-.655L31 18.5l-.588-.309.112.655-.475.463.657.095L31 20z" fill="#fff"/><path d="M19 31H4a4 4 0 0 1-4-4v-9h19v13z" fill="#00247d"/><path d="M19 18v2.029L11.9 25H6.671l9.997-7H19z" fill="#eee"/><path d="M19 19.418L11.029 25H9.286L19 18.198v1.22z" fill="#cf1b2b"/><path d="M8.1 25L0 19.234V18h3.332l9.998 7H8.1z" fill="#eee"/><path d="M10.714 25l-9.98-7H2.46l9.998 7h-1.744z" fill="#cf1b2b"/><path d="M16.669 31l-9.997-7H11.9L19 28.971V31h-2.331z" fill="#eee"/><path d="M17.54 31l-9.997-7h1.743L19 30.802V31h-1.46z" fill="#cf1b2b"/></g><g clip-path="url(#b)" transform="matrix(1.25 0 0 -1.25 0 45)"><path d="M10 24h3.328l-9.996 7H1l-.625-1.594L10 22.669V24z" fill="#eee"/><path d="M10 24h.714L1 30.802l-.5-.865 9.5-6.659V24z" fill="#cf1b2b"/></g><g clip-path="url(#c)" transform="matrix(1.25 0 0 -1.25 0 45)"><path d="M19 27h-7v4H7v-4H0v-5h7v-4h5v4h7v5z" fill="#eee"/><path d="M11 18H8v13h3V18z" fill="#cf1b2b"/><path d="M19 23H0v3h19v-3z" fill="#cf1b2b"/></g></svg>