<svg xmlns="http://www.w3.org/2000/svg" viewBox="0 0 45 45"><defs><clipPath id="a"><path d="M0 36h36V0H0v36z"/></clipPath></defs><path d="M0 28.75h45V16.249H0V28.75z" fill="#e00034"/><g clip-path="url(#a)" transform="matrix(1.25 0 0 -1.25 0 45)"><path d="M32 31H4a4 4 0 0 1-4-4v-4h36v4a4 4 0 0 1-4 4" fill="#0098c3"/><path d="M17.845 14.667a3.333 3.333 0 1 0 2.475 5.566 4 4 0 1 1 0-4.465 3.325 3.325 0 0 0-2.475-1.101" fill="#fff"/><path d="M23.667 18.002l-1.196.424.544 1.147-1.146-.546-.426 1.196-.424-1.196h-.003l-1.144.544.546-1.146-1.195-.426 1.196-.424-.544-1.147 1.14.543.005.003.426-1.196.425 1.196 1.146-.544-.545 1.146 1.195.426z" fill="#fff"/><path d="M4 5h28a4 4 0 0 1 4 4v4H0V9a4 4 0 0 1 4-4" fill="#00ae65"/></g></svg>