<svg xmlns="http://www.w3.org/2000/svg" viewBox="0 0 45 45"><defs><clipPath id="a"><path d="M4 31a4 4 0 0 1-4-4V9a4 4 0 0 1 4-4h28a4 4 0 0 1 4 4v18a4 4 0 0 1-4 4H4z"/></clipPath><clipPath id="b"><path d="M0 36h36V0H0v36z"/></clipPath></defs><g clip-path="url(#a)" transform="matrix(1.25 0 0 -1.25 0 45)"><path d="M36 9a4 4 0 0 0-4-4H4a4 4 0 0 0-4 4v18a4 4 0 0 0 4 4h28a4 4 0 0 0 4-4V9z" fill="#eee"/></g><g clip-path="url(#b)" transform="matrix(1.25 0 0 -1.25 0 45)"><path d="M25.786 24.872l-.07-.277c-.018-.067-.057-.108-.129-.112-.333-.017-.557-.253-.816-.415-.083-.052-.115-.15-.148-.24-.026-.07-.062-.134-.136-.153-.268-.07-.438-.263-.597-.471a.182.182 0 0 0-.125-.077c-.089-.012-.168-.057-.25-.095-.126-.061-.265-.111-.379-.186-.278-.181-.537-.393-.713-.682-.033-.054-.046-.121-.062-.184-.03-.118-.115-.173-.224-.19a.668.668 0 0 0-.248.003c-.192.039-.32-.072-.45-.18-.01-.01-.023-.027-.022-.04.007-.113-.07-.175-.138-.25-.074-.086-.086-.2-.103-.31a.917.917 0 0 1 .288-.855c.124-.12.25-.237.286-.418.01-.046.048-.078.085-.106.062-.046.126-.09.186-.137.032-.024.082-.05.087-.08.023-.157.164-.223.244-.336.047-.067.065-.146.047-.23-.008-.033-.012-.063.04-.091-.034 0-.049-.005-.055 0-.102.087-.243.08-.35.15-.043.026-.095.025-.144.028-.132.009-.264.053-.394-.035-.056-.04-.138-.02-.209-.015-.047.003-.072-.012-.06-.063.022-.082-.01-.135-.083-.175-.084-.046-.164-.05-.242.004-.08.053-.152.115-.23.168a.53.53 0 0 1-.288.088c-.154.004-.308.02-.46-.004-.25-.04-.493-.211-.499-.538a30.255 30.255 0 0 1-.006-.426c0-.048-.013-.082-.062-.11-.087-.051-.129-.14-.155-.232-.015-.052-.03-.074-.093-.058-.247.065-.39.012-.535-.198a.237.237 0 0 0-.16-.104c-.199-.04-.395-.086-.53-.255-.015-.02-.038-.018-.058-.022-.092-.021-.18-.048-.243-.123-.023-.025-.046-.025-.074-.025-.04.002-.086-.006-.11-.035-.053-.07-.112-.07-.186-.043-.068.02-.14.009-.21 0a.087.087 0 0 1-.065-.032.375.375 0 0 0-.382-.12c-.259.076-.517.09-.766-.032-.09-.043-.184-.08-.273-.123a.838.838 0 0 1-.449-.49c-.044-.131.004-.254.08-.367.032-.05.08-.092.096-.157-.196.018-.387.036-.579.049-.034.002-.048.008-.04.047.017.11.02.22-.047.32-.103.157-.207.31-.373.405-.089.05-.19.043-.288.017-.088-.021-.173-.041-.26 0-.054.026-.104 0-.145-.037a.389.389 0 0 0-.349-.103c-.025.004-.049.002-.07-.014-.079-.063-.16-.05-.243-.01-.14.065-.285.113-.43.162a.315.315 0 0 0-.164.114c-.08.109-.182.17-.325.154-.06-.006-.127-.006-.169.062-.019.032-.06.018-.095.014-.087-.01-.18.012-.222.084-.088.154-.237.219-.378.297-.062.035-.077.08-.1.145-.068.19-.094.392-.153.585-.023.072-.085.103-.147.13-.104.048-.203.097-.199.234 0 .009-.006.018-.01.026-.055.085-.14.159-.049.277.023.03-.025.09-.05.133a.225.225 0 0 0-.03.184.772.772 0 0 1-.002.348.182.182 0 0 1-.046.089.992.992 0 0 0-.175.28c-.064.138-.01.266.042.39.025.056.068.028.08-.01.063-.2.261-.272.396-.396.114-.105.307-.092.465-.018.115.054.206.148.317.204.202.102.29.274.344.475.037.14.137.237.233.337.01.009.021.023.03.022.118-.03.2.058.293.099.276.119.543.094.817-.008.214-.08.414-.186.62-.286a.32.32 0 0 1 .321.007c.294.16.472.392.498.735.018.23.027.46.036.692.005.169-.052.327-.066.492-.012.142-.012.146.113.088.261-.12.54-.184.811-.271a.592.592 0 0 1 .346.015.345.345 0 0 0 .267-.022.226.226 0 0 1 .23.007c.088.052.167.046.245-.024a.323.323 0 0 1 .282-.081c.178.029.352-.012.53-.03.24-.021.48-.088.726-.031.103.025.214-.013.322.008.238.047.486.05.706.17a.232.232 0 0 0 .144.019.773.773 0 0 1 .673.23c.047.048.102.089.158.128.092.066.175.11.31.075.163-.045.341.004.51.043.405.094.77.288 1.131.485.193.105.372.24.596.286.067.013.116.066.161.119.082.1.167.198.244.3.033.046.07.063.124.057a.736.736 0 0 1 .467.113c.05.03.101.062.157.074.175.036.3.143.398.28a.423.423 0 0 0 .357.193c.08.002.155.014.176.114.006.034.041.05.071.048.317-.021.57.15.838.277l.15.073a.174.174 0 0 0 .011-.014" fill="#f4900c" fill-rule="evenodd"/><path d="M12.974 13.852c.013-.061-.008-.072-.073-.053-.355.1-.67.26-.89.569a.898.898 0 0 0-.149.334c-.013.058-.002.089.068.072.411-.102.74-.324.97-.682a.456.456 0 0 0 .074-.24M21.443 13.783a.416.416 0 0 0 .064.303c.23.363.562.584.977.69.073.017.075-.022.063-.075a1.005 1.005 0 0 0-.366-.572 1.762 1.762 0 0 0-.738-.346M22.393 13.553a.16.16 0 0 0-.06-.092c-.293-.27-.63-.418-1.037-.38a.575.575 0 0 0-.278.115c-.045.03-.042.052-.001.087.148.127.319.208.505.256.255.067.514.084.776.04a.222.222 0 0 0 .095-.026M12.439 13.602c.276-.004.584-.061.858-.244.05-.033.133-.07.128-.12-.006-.056-.09-.083-.15-.11a.792.792 0 0 0-.515-.03 1.39 1.39 0 0 0-.689.369c-.023.024-.058.05-.046.084.011.026.054.024.083.03.095.019.19.02.331.02M13.53 13.986a.774.774 0 0 0-.044-.27c-.02-.052-.042-.06-.087-.027a.848.848 0 0 0-.285.412c-.096.268-.141.541-.072.822.024.098.035.1.104.028.256-.272.36-.602.384-.965M20.88 14.016c.028.338.13.666.383.932.073.078.087.076.106-.028a1.375 1.375 0 0 0-.25-1.131c-.04-.052-.098-.13-.154-.115-.066.018-.063.115-.074.184-.01.045-.007.092-.011.158M18.652 13.396c.032-.55-.229-.947-.604-1.303-.12.432.092 1.096.604 1.303M16.37 12.082c-.362.352-.628.723-.614 1.236.002.076.027.078.085.043.35-.209.508-.529.547-.92.011-.111.01-.224-.018-.359M19.997 13.99c.067-.193.06-.387.02-.582a1.127 1.127 0 0 0-.325-.629c-.09-.084-.104-.082-.15.035a.71.71 0 0 0-.017.446 1.385 1.385 0 0 0 .442.718c.007.004.015.006.03.012M14.407 13.998c.333-.223.567-.764.488-1.1-.015-.066-.028-.156-.085-.173-.053-.016-.105.062-.145.111-.28.34-.351.725-.258 1.162M20.03 12.568c.325-.02.606-.137.823-.39.071-.083.066-.09-.04-.12-.27-.074-.523-.006-.766.108a1.422 1.422 0 0 0-.367.246c-.045.041-.044.066.016.09a.875.875 0 0 0 .333.066M14.385 12.566a.781.781 0 0 0 .306-.057c.093-.037.097-.048.023-.11a1.478 1.478 0 0 0-.718-.354.838.838 0 0 0-.4.015c-.105.03-.108.035-.037.12a1.117 1.117 0 0 0 .826.386M20.17 11.74c-.383-.186-.943-.174-1.218.254-.038.062-.03.082.038.098.456.105.84-.03 1.18-.352M14.243 11.736c.21.223.46.342.752.383.14.02.276.012.412-.024.096-.023.098-.029.044-.109-.189-.277-.46-.377-.783-.357a1.012 1.012 0 0 0-.425.107M15.642 12.658a.734.734 0 0 0-.045-.229c-.022-.056-.046-.062-.092-.023a1.257 1.257 0 0 0-.358.516c-.082.203-.147.41-.11.634.005.028.005.067.028.075.033.013.05-.026.07-.045.22-.217.407-.453.484-.76.009-.035.013-.07.018-.107l.005-.06M18.77 12.654a.904.904 0 0 0 .11.414c.102.201.245.373.407.531.048.045.069.05.084-.023a.935.935 0 0 0-.037-.455c-.076-.266-.195-.508-.407-.697-.077-.069-.085-.065-.121.031a.543.543 0 0 0-.036.2M19.432 11.256c-.2-.014-.401-.021-.6.035-.271.078-.441.27-.564.514-.018.035-.02.056.03.056a1.354 1.354 0 0 0 1.128-.566c.006-.006.008-.016.012-.025a.052.052 0 0 0-.006-.014M14.961 11.248a.773.773 0 0 0 .227.271c.258.213.55.344.892.342.058 0 .088-.004.051-.072-.173-.344-.445-.533-.834-.539-.106-.004-.213-.002-.336-.002M20.356 13.18c-.132.195-.142.402-.09.615.052.229.168.426.322.602.043.049.064.04.091-.01a.643.643 0 0 0 .06-.42 1.492 1.492 0 0 0-.383-.787M13.773 14.435c.31-.27.553-.887.286-1.244-.348.265-.511.976-.286 1.244M13.271 12.572a.859.859 0 0 0-.45.113c-.093.06-.092.067-.012.135.18.158.394.178.617.145.17-.026.334-.075.501-.118.057-.015.056-.035.024-.074a.571.571 0 0 0-.28-.152 1.398 1.398 0 0 0-.4-.049M21.112 12.572a1.186 1.186 0 0 0-.55.123c-.05.03-.12.063-.118.12.003.05.083.042.13.054.217.057.432.123.66.105a.63.63 0 0 0 .367-.154c.08-.068.081-.076-.01-.135-.149-.095-.317-.109-.479-.113" fill="#5c913b" fill-rule="evenodd"/><path d="M18.027 11.445c-.25.061-.502.121-.752.184a.318.318 0 0 1-.144 0 24.355 24.355 0 0 0-.755-.18c.158.125.338.205.551.27-.278.095-.535.185-.815.283.1.015.165-.016.231-.034.263-.068.527-.125.792-.175.114-.022.221.015.328.037.32.062.635.144.952.224-.3-.125-.609-.222-.936-.334.208-.066.39-.142.548-.275" fill="#5c913b" fill-rule="evenodd"/><path d="M25.774 24.886c.008.005.017.01.021-.002.002-.002-.006-.008-.009-.012a.174.174 0 0 1-.012.014" fill="#ec8001" fill-rule="evenodd"/></g></svg>