<svg xmlns="http://www.w3.org/2000/svg" viewBox="0 0 45 45"><defs><clipPath id="a"><path d="M4 31a4 4 0 0 1-4-4V9a4 4 0 0 1 4-4h28a4 4 0 0 1 4 4v18a4 4 0 0 1-4 4H4z"/></clipPath></defs><g clip-path="url(#a)" transform="matrix(1.25 0 0 -1.25 0 45)"><path d="M0 5h36v26H0V5z" fill="#eeeded"/><path d="M36 5H0l36 26V5z" fill="#012a87"/><path d="M0 31V20.167L13.25 31H0z" fill="#f9d90f"/><path d="M11 15.952a4.847 4.847 0 0 0-4.842 4.842A4.848 4.848 0 0 0 11 25.637a4.848 4.848 0 0 0 4.842-4.843A4.847 4.847 0 0 0 11 15.952m5.513 4.154l1.193.688-1.193.689a5.566 5.566 0 0 1-4.825 4.825L11 27.5l-.688-1.192a5.566 5.566 0 0 1-4.825-4.825l-1.193-.69 1.193-.687a5.566 5.566 0 0 1 4.825-4.825L11 14.089l.688 1.192a5.566 5.566 0 0 1 4.825 4.825"/><path d="M12.914 20.794l.957 1.658h-1.914L11 24.11l-.957-1.657H8.129l.957-1.658-.957-1.657h1.914L11 17.48l.957 1.658h1.914l-.957 1.657z" fill="#dc171d"/></g></svg>