<svg xmlns="http://www.w3.org/2000/svg" viewBox="0 0 45 45"><defs><clipPath id="a"><path d="M4 31a4 4 0 0 1-4-4V9a4 4 0 0 1 4-4h28a4 4 0 0 1 4 4v18a4 4 0 0 1-4 4H4z"/></clipPath></defs><g clip-path="url(#a)" transform="matrix(1.25 0 0 -1.25 0 45)"><path d="M26.903 15.527l-1.11 1.528-1.797-.583L25.106 18l-1.11 1.528 1.797-.584 1.11 1.528v-1.889L28.7 18l-1.797-.584v-1.889zm-7.659 9.966l.584-1.797-1.528 1.111-1.529-1.11.584 1.796-1.528 1.11h1.89L18.3 28.4l.583-1.797h1.89l-1.529-1.11zM18.3 7.6l-.584 1.796h-1.889l1.528 1.111-.584 1.796 1.53-1.11 1.527 1.11-.584-1.796 1.528-1.11h-1.889L18.3 7.6zm-5.697 8.872l-1.797.583-1.11-1.528v1.89L7.9 18l1.796.583v1.89l1.11-1.529 1.797.584L11.493 18l1.11-1.528zM0 5h36v26H0V5z" fill="#75b2dd"/><path d="M18.3 28.4l-.584-1.797h-1.889l1.528-1.11-.583-1.796 1.528 1.11 1.528-1.11-.583 1.796 1.528 1.11h-1.889L18.3 28.4zM26.903 18.584v1.889l-1.11-1.528-1.797.584 1.11-1.53-1.11-1.527 1.797.584 1.11-1.528v1.889L28.7 18l-1.797.584zM19.244 10.507l.584 1.797-1.529-1.111-1.528 1.11.584-1.796-1.528-1.11h1.89L18.3 7.6l.583 1.797h1.89l-1.529 1.11zM10.807 18.945l-1.11 1.528v-1.89L7.9 18l1.797-.583v-1.89l1.11 1.529 1.797-.584L11.493 18l1.11 1.529-1.796-.584z" fill="#fff"/></g></svg>