<svg xmlns="http://www.w3.org/2000/svg" viewBox="0 0 45 45"><defs><clipPath id="a"><path d="M0 36h36V0H0v36z"/></clipPath></defs><path d="M0 27.5h45v-9.999H0V27.5z" fill="#eee"/><g clip-path="url(#a)" transform="matrix(1.25 0 0 -1.25 0 45)"><path d="M32 31H4a4 4 0 0 1-4-4v-5h36v5a4 4 0 0 1-4 4M0 9a4 4 0 0 1 4-4h28a4 4 0 0 1 4 4v5H0V9z" fill="#0156a3"/><path d="M18.265 18.24l-.25.766-.248-.766h-.806l.652-.474-.25-.766.653.473.652-.473-.25.766.653.474h-.806zM23.597 15.76l-.249-.766.652.474.652-.474-.249.766.652.474h-.806L24 17l-.249-.766h-.806l.652-.474zM24.249 20.24l-.249.766-.249-.766h-.806l.652-.474-.249-.766.652.473.652-.473-.249.766.652.474h-.806zM11.542 15.76l-.249-.766.652.474.652-.474-.249.766.652.474h-.806l-.249.766-.249-.766h-.806l.652-.474zM12.194 20.24l-.25.766-.248-.766h-.806l.652-.474-.25-.766.653.473.652-.473-.25.766.653.474h-.806z" fill="#2657a7"/></g></svg>