<svg xmlns="http://www.w3.org/2000/svg" viewBox="0 0 45 45"><defs><clipPath id="a"><path d="M0 36h36V0H0v36z"/></clipPath></defs><g clip-path="url(#a)" transform="matrix(1.25 0 0 -1.25 0 45)"><path d="M4 5h28a3.98 3.98 0 0 1 1.935.5H2.065A3.98 3.98 0 0 1 4 5" fill="#0d5eb0"/><path d="M8.5 16.5H0V14h36v2.5H8.5zM0 9c0-.17.014-.336.035-.5h35.93c.021.164.035.33.035.5v2H0V9zM14 19.5h22V22H14v-2.5zM14 27.5V25h22v2c0 .17-.014.336-.035.5H14z" fill="#eee"/><path d="M14 22h22v3H14v-3zM0 11h36v3H0v-3zM2.065 5.5h31.87a3.998 3.998 0 0 1 2.03 3H.035a4.002 4.002 0 0 1 2.03-3M0 16.5h5.5V22H0v-5.5zM14 19.5V22H8.5v-5.5H36v3H14zM33.935 30.5A3.98 3.98 0 0 1 32 31H4a3.998 3.998 0 0 1-3.965-3.5A3.923 3.923 0 0 1 0 27v-2h5.5v5.5h3V25H14v2.5h21.966a4.002 4.002 0 0 1-2.031 3" fill="#0d5eb0"/><path d="M8.5 25v6h-3v-6H0v-3h5.5v-5.5h3V22H14v3H8.5z" fill="#eee"/></g></svg>