<svg xmlns="http://www.w3.org/2000/svg" viewBox="0 0 45 45"><defs><clipPath id="a"><path d="M0 36h36V0H0v36z"/></clipPath></defs><g clip-path="url(#a)" transform="matrix(1.25 0 0 -1.25 0 45)"><path d="M32 31H4a4 4 0 0 1-4-4V17h36v10a4 4 0 0 1-4 4" fill="#003893"/><path d="M0 15h36v2H0v-2zM0 10h36v2H0v-2z" fill="#eee"/><path d="M0 15v-3h36v3H0z" fill="#cf2027"/><path d="M4 5h28a4 4 0 0 1 4 4v1H0V9a4 4 0 0 1 4-4" fill="#003893"/><path d="M14.347 20.097l.764.555h-.944l-.292.898-.292-.898h-.945l.764-.555-.29-.898.763.555.764-.555-.292.898zM20.53 15.605l.763.555h-.944l-.292.898-.292-.898h-.945l.764-.555-.29-.898.763.555.764-.555-.292.898zM8.165 15.605l.764.555h-.944l-.292.898-.292-.898h-.945l.764-.555-.29-.898.763.555.764-.555-.292.898zM8.165 11.588l.764.555h-.944l-.292.898-.292-.898h-.945l.764-.555-.29-.898.763.555.764-.555-.292.898zM20.53 11.588l.763.555h-.944l-.292.898-.292-.898h-.945l.764-.555-.29-.898.763.555.764-.555-.292.898zM14.167 7.652l-.292.898-.292-.898h-.944l.764-.555-.292-.898.764.555.764-.555-.292.898.765.555h-.945zM18.168 8.338l.764.555h-.944l-.292.898-.292-.898h-.945l.764-.555-.291-.898.764.555.764-.555-.292.898zM18.168 18.842l.764.555h-.944l-.292.898-.292-.898h-.945l.764-.555-.291-.898.764.555.764-.555-.292.898zM9.582 8.338l-.764.555h.944l.292.898.292-.898h.945l-.764-.555.291-.898-.764.555-.764-.555.292.898zM9.582 18.842l-.764.555h.944l.292.898.292-.898h.945l-.764-.555.291-.898-.764.555-.764-.555.292.898z" fill="#f7d116"/></g></svg>