<svg xmlns="http://www.w3.org/2000/svg" viewBox="0 0 45 45"><defs><clipPath id="a"><path d="M0 36h36V0H0v36z"/></clipPath><clipPath id="b"><path d="M4 31a4 4 0 0 1-4-4v-9h19v13H4z"/></clipPath><clipPath id="c"><path d="M0 36h36V0H0v36z"/></clipPath></defs><g clip-path="url(#a)" transform="matrix(1.25 0 0 -1.25 0 45)"><path d="M36 9a4 4 0 0 0-4-4H4a4 4 0 0 0-4 4v18a4 4 0 0 0 4 4h28a4 4 0 0 0 4-4V9z" fill="#cf1b2b"/><path d="M19 31H4a4 4 0 0 1-4-4v-9h19v13z" fill="#00247d"/><path d="M19 18v2.029L11.9 25H6.671l9.997-7H19z" fill="#eee"/><path d="M19 19.418L11.029 25H9.286L19 18.198v1.22z" fill="#cf1b2b"/><path d="M8.1 25L0 19.234V18h3.332l9.998 7H8.1z" fill="#eee"/><path d="M10.714 25l-9.98-7H2.46l9.998 7h-1.744z" fill="#cf1b2b"/><path d="M16.669 31l-9.997-7H11.9L19 28.971V31h-2.331z" fill="#eee"/><path d="M17.54 31l-9.997-7h1.743L19 30.802V31h-1.46z" fill="#cf1b2b"/></g><g clip-path="url(#b)" transform="matrix(1.25 0 0 -1.25 0 45)"><path d="M10 24h3.328l-9.996 7H1l-.625-1.594L10 22.669V24z" fill="#eee"/><path d="M10 24h.714L1 30.802l-.5-.865 9.5-6.659V24z" fill="#cf1b2b"/></g><g clip-path="url(#c)" transform="matrix(1.25 0 0 -1.25 0 45)"><path d="M19 27h-7v4H7v-4H0v-5h7v-4h5v4h7v5z" fill="#eee"/><path d="M11 18H8v13h3V18z" fill="#cf1b2b"/><path d="M19 23H0v3h19v-3z" fill="#cf1b2b"/><path d="M22.583 23.415v-9.067c0-.64.145-1.515 1.312-2.057.994-.461 2.473-.993 3.147-1.418.376-.237.958-.638.958-.638s.582.4.958.638c.674.425 2.049.957 3.042 1.418 1.167.542 1.312 1.418 1.312 2.057v9.067H22.583z"/><path d="M23.108 22.894v-8.401c0-.598.138-1.418 1.23-1.926.928-.432 2.134-.93 2.765-1.328.352-.222.897-.597.897-.597s.545.375.896.597c.631.399 1.841.896 2.771 1.328 1.09.508 1.228 1.328 1.228 1.927V22.893h-9.787z" fill="#fff"/><path d="M23.108 14.454c.007-.594.16-1.392 1.228-1.888.93-.43 2.136-.928 2.767-1.328.352-.222.897-.597.897-.597s.545.375.896.597c.631.4 1.842.897 2.772 1.328 1.067.496 1.22 1.294 1.227 1.888h-9.787z" fill="#2e8f22"/><path d="M31.862 15.624c-.07.39 0 .993-.106 1.171-.107.177-1.099.531-1.809.461-.708-.071-.213.886.284 1.134.497.249.958.462 1.028.745.072.284-.177.496-.602.426-.426-.072-.674-.072-.923-.32-.248-.248-.283.035-.39.32-.105.283.071.389.107.673.035.284-.036 1.064-.249 1.383-.212.319-.103.531-.457.709-.356.178-.742.32-.742.32s-.39-.142-.746-.32c-.354-.178-.248-.39-.459-.709-.213-.319-.285-1.099-.25-1.383.037-.284.212-.39.107-.673-.107-.285-.142-.568-.39-.32-.249.248-.497.248-.923.32-.424.07-.673-.142-.602-.426.07-.283.531-.496 1.028-.745.497-.248.992-1.205.284-1.134-.71.07-1.702-.284-1.808-.461-.107-.178-.036-.781-.107-1.171-.07-.39-.248-.709-.07-.638.177.071.992.354 1.383.638.39.284.85-1.135.674-1.489-.179-.355-.213-.603-.497-.461-.285.141-.709-.071-.85-.356-.143-.283.176-.46.531-.708.354-.249.78.248.957.496.177.25 1.738 1.029 1.738 1.029s1.557-.779 1.734-1.029c.178-.248.602-.745.957-.496.354.248.673.425.53.708-.14.285-.567.497-.85.356-.285-.142-.32.106-.498.461-.176.354.284 1.773.674 1.489.39-.284 1.206-.567 1.383-.638.177-.071 0 .248-.07.638" fill="#cf1b2b"/><path d="M30.866 17.61s.107-.248.248-.248c.142 0 .391.319.178.567-.212.249-.39.355-.283.567.105.213-.178.568-.178.568-.142-.212-.532-.532-1.206-.106-.674.425-1.206.496-1.312.248h-.627c-.105.248-.637.177-1.31-.248-.675-.426-1.066-.106-1.207.106 0 0-.283-.355-.178-.568.107-.212-.07-.318-.283-.567-.213-.248.036-.567.178-.567.141 0 .248.248.248.248s.46-.39.425-.922c-.036-.532-.745-1.028-.745-1.028.213-.248.213-.603.426-1.241.212-.64.957-.461.957-.461.036-.39.71-.781.957-.781.25 0 .32-.212.32-.212s-.284-.178-.142-.32c.133-.132.61.047.668.069.058-.022.535-.201.668-.07.141.143-.142.32-.142.32s.07.213.32.213c.247 0 .92.39.957.78 0 0 .745-.177.957.462.213.638.213.993.425 1.24 0 0-.709.497-.745 1.029-.034.532.426.922.426.922" fill="#ffe000"/><path d="M31.298 17.894c-.213.249-.39.355-.284.567.107.213-.142.355-.142.355-.141-.213-.734-.516-1.24-.213-.532.32-.674.249-.816.32 0 0 .086-.247-.107-.32-.283-.107-.39.143-.39.143h-.637s-.108-.25-.391-.143c-.193.073-.106.32-.106.32-.143-.071-.284 0-.817-.32-.506-.303-1.098 0-1.24.213 0 0-.25-.142-.142-.355.106-.212-.071-.318-.284-.567-.213-.248.107-.035.248-.035.142 0 .497-.25.497-.25s.39-.282.355-.956c-.028-.532-.816-1.063-.816-1.063.212-.25.262-.681.39-1.065a.27.27 0 0 1 .035-.07c.213-.462.603-.284.603-.284s-.07.248.14.284c.214.035.286-.178.286-.178s.248.07.319-.142c.07-.213-.248-.284-.248-.284-.035-.07.177-.39.915-.555.142-.101.219-.296.219-.296v-.318h.711V13s.077.195.218.296c.739.165.95.485.915.555 0 0-.318.07-.248.284.072.213.32.142.32.142s.07.213.284.178c.212-.036.14-.284.14-.284s.39-.178.604.284c.015.02.026.043.035.07.128.384.178.815.39 1.065 0 0-.787.53-.816 1.063-.035.674.355.957.355.957s.355.249.497.249c.142 0 .46-.213.248.035" fill="#64b4d1"/><path d="M30.198 16.652c-.005.094 0 .18.008.258-.337-.02-.667.158-.788.31-.142.177-.319.177-.638 0-.319-.178-.319-.673-.319-.673v-.073l1.95-1.275.562.336a.713.713 0 0 0 .041.055s-.788.53-.816 1.062" fill="#ccc"/><path d="M25.66 18.106l.248-2.624 1.134-.85 1.171.957-.248.745-.142.957-.426.283-.355.71-.46.035-.248-.177s-.213.141-.213.106c0-.035-.178-.213-.178-.213l-.283.071z" fill="#e4cb5e"/><path d="M27.645 18l.427.106.602-1.064.603.071.106-.283-1.631-.532v.426l.072.141-.18 1.135z"/><path d="M26.51 17.645l.178-2.554.178.108s-.248 2.091-.213 2.056c.035-.035.532-1.808.532-1.808l.213-.072-.603 2.2.957-1.667.177.425-.992 1.347-.284.355-.142-.39z"/><path d="M27.716 16.547l1.597.354.709-1.064-.285-.815s-1.206-.603-1.24-.64c-.036-.034-1.171.107-1.171.107l.39 2.058z" fill="#9f5a2b"/><path d="M29.56 14.276s.072.213.285.178c.212-.035.142-.283.142-.283s.39-.179.602.283c.015.02.027.044.036.07.127.384.177.815.389 1.065 0 0-.02.012-.053.038a2.004 2.004 0 0 1-.336-.18s0 .318-.355.39c-.354.071-.71-.46-.71-.46-.142.423-.71 0-.957-.39-.247-.392-.851-.285-.851-.285l-.107.213s.037.354-.247.532c-.284.177-.71-.248-.71-.248.107.461-.39.39-.495.318-.107-.07-.284.178-.532.248-.186.053-.352-.349-.44-.689.052-.178.095-.37.156-.552a.23.23 0 0 1 .035-.07c.213-.462.602-.283.602-.283s-.07.248.142.283c.213.035.284-.178.284-.178s.248.071.319-.142c.07-.212-.248-.284-.248-.284-.035-.07.177-.389.915-.554a.76.76 0 0 0 .219-.296v-.319h.711v.32s.077.193.219.295c.738.165.95.484.915.554 0 0-.32.072-.248.284.07.213.319.142.319.142" fill="#ccc"/><path d="M28.46 21.936l-.354-.177.07-.142.355.072-.07.247zm-.957 0l.355-.177-.071-.142-.354.072.07.247z" fill="#fff"/><path d="M28.745 21.476l.07.248-.318-.32-.142-.177-.178.178-.177-.178-.177.178-.179-.178-.14.178-.32.319.071-.248-.355-.25.32.143.177-.071.177-.177.25.07.176-.212.177.213.25-.071.175.177.178.07.32-.141-.355.249z"/></g></svg>