<svg xmlns="http://www.w3.org/2000/svg" viewBox="0 0 45 45"><defs><clipPath id="a"><path d="M0 36h36V0H0v36z"/></clipPath></defs><g clip-path="url(#a)" transform="matrix(1.25 0 0 -1.25 0 45)"><path d="M6.276 24.724l-.943-3.057-.943 3.057-3.057.943 3.057.943.943 3.057.943-3.057 3.057-.943-3.057-.943zM32 31H4a4 4 0 0 1-4-4V13.945h36V27a4 4 0 0 1-4 4M4 5h28a3.991 3.991 0 0 1 3.867 3.028H.133A3.991 3.991 0 0 1 4 5M0 10h36v1.972H0V10z" fill="#4189dd"/><path d="M6.06 24.94l-.726-2.355-.727 2.355-2.355.726 2.355.727.727 2.355.726-2.355 2.355-.727-2.355-.726zm-.726 4.726L4.39 26.61l-3.057-.943 3.057-.942.943-3.058.942 3.058 3.058.942-3.058.943-.942 3.057z" fill="#fff"/><path d="M5.333 28.748l-.726-2.355-2.355-.726 2.355-.727.726-2.355.726 2.355 2.356.727-2.356.726-.726 2.355z" fill="#d21034"/><path d="M0 11.972h36v1.972H0v-1.972zM0 9c0-.337.054-.659.133-.972h35.734c.079.313.133.635.133.972v1H0V9z" fill="#f9d616"/></g></svg>