<svg xmlns="http://www.w3.org/2000/svg" viewBox="0 0 45 45"><defs><clipPath id="a"><path d="M0 36h36V0H0v36z"/></clipPath><clipPath id="b"><path d="M4 31a4 4 0 0 1-4-4v-9h19v13H4z"/></clipPath><clipPath id="c"><path d="M0 36h36V0H0v36z"/></clipPath></defs><g clip-path="url(#a)" transform="matrix(1.25 0 0 -1.25 0 45)"><path d="M36 9a4 4 0 0 0-4-4H4a4 4 0 0 0-4 4v18a4 4 0 0 0 4 4h28a4 4 0 0 0 4-4V9z" fill="#eee"/><path d="M34.363 7.875c-1.817 0-1.817 1.062-3.636 1.062-1.818 0-1.818-1-3.693-1-1.762 0-1.762 1-3.609 1-1.789 0-1.789-1-3.607-1-1.818 0-1.818 1-3.637 1-1.817 0-1.817-1-3.636-1-1.818 0-1.818 1-3.636 1s-1.818-1-3.636-1c-1.819 0-1.819 1-3.637 1-.762 0-1.2-.177-1.59-.382a3.96 3.96 0 0 1 .611-1.744c.264.077.576.127.98.127 1.817 0 1.817-1 3.636-1 1.818 0 1.818 1 3.636 1s1.818-1 3.636-1c1.82 0 1.82 1 3.636 1 1.82 0 1.82-1 3.637-1 1.818 0 1.818 1 3.63 1 1.824 0 1.824-1 3.64-1 1.821 0 1.821 1 3.637 1 1.821 0 1.821-.969 3.638-.969.088 0 .157.01.236.014a3.964 3.964 0 0 1 1.326 2.284c-.383-.211-.818-.392-1.562-.392M36 10.617v1.944c-.402-.227-.846-.429-1.637-.429-1.817 0-1.817 1.062-3.635 1.062-1.819 0-1.819-1-3.694-1-1.761 0-1.761 1-3.608 1-1.789 0-1.789-1-3.608-1-1.818 0-1.818 1-3.636 1s-1.818-1-3.637-1c-1.818 0-1.818 1-3.636 1s-1.818-1-3.636-1-1.818 1-3.637 1c-.79 0-1.234-.19-1.636-.404v-2c.402.214.846.404 1.636.404 1.819 0 1.819-1 3.637-1s1.818 1 3.636 1 1.818-1 3.636-1c1.819 0 1.819 1 3.637 1s1.818-1 3.636-1c1.819 0 1.819 1 3.629 1 1.826 0 1.826-1 3.64-1 1.822 0 1.822 1 3.639 1 1.82 0 1.82-.969 3.637-.969.791 0 1.235.185 1.637.392M36 14.874v1.944c-.402-.227-.846-.429-1.637-.429-1.817 0-1.817 1.063-3.635 1.063-1.819 0-1.819-1.001-3.694-1.001-1.761 0-1.761 1.001-3.608 1.001-1.789 0-1.789-1.001-3.608-1.001-1.818 0-1.818 1.001-3.636 1.001s-1.818-1.001-3.637-1.001c-1.818 0-1.818 1.001-3.636 1.001s-1.818-1.001-3.636-1.001-1.818 1.001-3.637 1.001c-.79 0-1.234-.191-1.636-.405v-2c.402.214.846.404 1.636.404 1.819 0 1.819-1 3.637-1s1.818 1 3.636 1 1.818-1 3.636-1c1.819 0 1.819 1 3.637 1s1.818-1 3.636-1c1.819 0 1.819 1 3.629 1 1.826 0 1.826-1 3.64-1 1.822 0 1.822 1 3.639 1 1.82 0 1.82-.969 3.637-.969.791 0 1.235.185 1.637.392M36 19.131v1.944c-.402-.227-.846-.429-1.637-.429-1.817 0-1.817 1.062-3.635 1.062-1.819 0-1.819-1-3.694-1-1.761 0-1.761 1-3.608 1-1.789 0-1.789-1-3.608-1-1.818 0-1.818 1-3.636 1s-1.818-1-3.637-1c-1.818 0-1.818 1-3.636 1s-1.818-1-3.636-1-1.818 1-3.637 1c-.79 0-1.234-.19-1.636-.404v-2c.402.214.846.404 1.636.404 1.819 0 1.819-1 3.637-1s1.818 1 3.636 1 1.818-1 3.636-1c1.819 0 1.819 1 3.637 1s1.818-1 3.636-1c1.819 0 1.819 1 3.629 1 1.826 0 1.826-1 3.64-1 1.822 0 1.822 1 3.639 1 1.82 0 1.82-.969 3.637-.969.791 0 1.235.185 1.637.392M36 23.389v1.944c-.402-.227-.846-.43-1.637-.43-1.817 0-1.817 1.063-3.635 1.063-1.819 0-1.819-1-3.694-1-1.761 0-1.761 1-3.608 1-1.789 0-1.789-1-3.608-1-1.818 0-1.818 1-3.636 1s-1.818-1-3.637-1c-1.818 0-1.818 1-3.636 1s-1.818-1-3.636-1-1.818 1-3.637 1c-.79 0-1.234-.19-1.636-.404v-2c.402.214.846.404 1.636.404 1.819 0 1.819-1 3.637-1s1.818 1 3.636 1 1.818-1 3.636-1c1.819 0 1.819 1 3.637 1s1.818-1 3.636-1c1.819 0 1.819 1 3.629 1 1.826 0 1.826-1 3.64-1 1.822 0 1.822 1 3.639 1 1.82 0 1.82-.97 3.637-.97.791 0 1.235.186 1.637.393M35.938 27.616a3.955 3.955 0 0 1-.657 1.663 3.301 3.301 0 0 0-.917-.119c-1.818 0-1.818 1.062-3.636 1.062s-1.818-1-3.693-1c-1.762 0-1.762 1-3.61 1-1.789 0-1.789-1-3.607-1-1.818 0-1.818 1-3.637 1-1.818 0-1.818-1-3.636-1-1.817 0-1.817 1-3.635 1-1.82 0-1.82-1-3.637-1-1.814 0-1.82.995-3.624 1A3.982 3.982 0 0 1 .1 27.866c.378.192.808.355 1.536.355 1.818 0 1.818-1 3.636-1s1.818 1 3.637 1c1.818 0 1.818-1 3.636-1s1.818 1 3.636 1c1.819 0 1.819-1 3.637-1s1.818 1 3.629 1c1.825 0 1.825-1 3.639-1 1.823 0 1.823 1 3.639 1 1.82 0 1.82-.968 3.638-.968.752 0 1.187.168 1.574.362" fill="#00247d"/><path d="M19 31H4a4 4 0 0 1-4-4v-9h19v13z" fill="#00247d"/><path d="M19 18v2.029L11.9 25H6.671l9.997-7H19z" fill="#eee"/><path d="M19 19.418L11.029 25H9.286L19 18.198v1.22z" fill="#cf1b2b"/><path d="M8.1 25L0 19.234V18h3.332l9.998 7H8.1z" fill="#eee"/><path d="M10.714 25l-9.98-7H2.46l9.998 7h-1.744z" fill="#cf1b2b"/><path d="M16.669 31l-9.997-7H11.9L19 28.971V31h-2.331z" fill="#eee"/><path d="M17.54 31l-9.997-7h1.743L19 30.802V31h-1.46z" fill="#cf1b2b"/></g><g clip-path="url(#b)" transform="matrix(1.25 0 0 -1.25 0 45)"><path d="M10 24h3.328l-9.996 7H1l-.625-1.594L10 22.669V24z" fill="#eee"/><path d="M10 24h.714L1 30.802l-.5-.865 9.5-6.659V24z" fill="#cf1b2b"/></g><g clip-path="url(#c)" transform="matrix(1.25 0 0 -1.25 0 45)"><path d="M19 27h-7v4H7v-4H0v-5h7v-4h5v4h7v5z" fill="#eee"/><path d="M11 18H8v13h3V18z" fill="#cf1b2b"/><path d="M19 23H0v3h19v-3z" fill="#cf1b2b"/><path d="M27.248 7.323a.323.323 0 0 0-.646 0v15.861a.322.322 0 1 0 .646 0V7.324z" fill="#c1694f"/><path d="M24.656 15.636s.14.334.627.334c.49 0 .607-.255.901-.372.294-.118.666-.177.666-.177v-2.447h-2.624s-.098.92-.255 1.37c-.157.449-.294 1.058.04 1.254.333.194.645.038.645.038" fill="#dd2e44"/><path d="M26.84 16.273v-.352s-.675.059-1.263.47c-.358.25-1.116.559-1.703.058-.382-.323-.352-1.147-.116-1.469.233-.323.469-1.058-.031-.559-.5.5-.647 1.265-.5 1.764.148.499.47.998 1.234.998.765 0 1.264-.411 1.616-.617.306-.178.794-.234.763-.293" fill="#ffcc4d"/><path d="M23.895 14.501l.41.018-.117-.625s.41.312.43.235c.019-.08.079-.647.079-.647l-.53.118.313-.452-.41-.194s-.157.528-.196.781c-.04.256.02.766.02.766M24.755 14.167l.39.039s-.337.764.158.745c.549-.02.176-.725.176-.725h.412l.058-.568-.39.236v-.334l.429-.412-1.135-.116.293.489-.02.352-.273-.313-.098.607z" fill="#ffcc4d"/><path d="M29.205 15.636s-.138.334-.627.334-.606-.255-.9-.372c-.294-.118-.666-.177-.666-.177v-2.447h2.625s.096.92.254 1.37c.157.449.293 1.058-.039 1.254-.335.194-.647.038-.647.038" fill="#dd2e44"/><path d="M27.021 16.273v-.352s.676.059 1.263.47c.359.25 1.117.559 1.705.058.382-.323.35-1.147.116-1.469-.234-.323-.468-1.058.03-.559.499.5.648 1.265.499 1.764-.146.499-.47.998-1.233.998-.765 0-1.264-.411-1.615-.617-.305-.178-.793-.234-.764-.293" fill="#ffcc4d"/><path d="M29.969 14.501l-.411.018.117-.625s-.411.312-.431.235c-.018-.08-.078-.647-.078-.647l.528.118-.314-.452.41-.194s.158.528.199.781c.038.256-.02.766-.02.766M29.106 14.167l-.392.039s.34.764-.157.745c-.547-.02-.175-.725-.175-.725h-.41l-.06-.568.391.236v-.334l-.43-.412 1.136-.116-.295.489.021.352.274-.313.097.607zM27.611 17.262a.695.695 0 0 0-.686-.704.694.694 0 0 0-.685.704c0 .389.307.705.685.705a.696.696 0 0 0 .686-.705M27.542 18.318H26.31v.49h1.232v-.49z" fill="#ffcc4d"/><path d="M27.219 14.617h-.586v4.523h.586v-4.523z" fill="#ffcc4d"/><path d="M26.44 14.813h.92l-.255-.646.588.313v-.86l-.57.195.49-.743h-1.272l.392.743-.567-.136v.764l.529-.255-.255.625z" fill="#ffcc4d"/><path d="M26.928 13.365c1.215 0 1.978-.1 2.84-.41 0 0 .059-.512-.06-.766-.115-.255-2.8.177-2.8.177l.02 1z" fill="#ffcc4d"/><path d="M26.963 13.365c-1.214 0-1.978-.1-2.838-.41 0 0-.06-.512.057-.766.118-.255 2.799.177 2.799.177l-.018 1z" fill="#ffcc4d"/><path d="M30.078 11.67c0-.384-1.412-.693-3.152-.693-1.74 0-3.154.309-3.154.693 0 .385 1.413.696 3.154.696 1.74 0 3.152-.311 3.152-.696" fill="#eee"/><path d="M29.043 11.417c0-.212-.948-.384-2.117-.384-1.17 0-2.119.172-2.119.384 0 .21.949.382 2.119.382 1.169 0 2.117-.172 2.117-.382" fill="#99aab5"/><path d="M25.655 29.127l.645-.803s.452.275.471.216c.02-.059-.039-.666-.039-.666l.314-.078-.255-.803s.392.216.372.137a24.86 24.86 0 0 1-.117-.764l.157-.097-.02-.765s.158-.273.158-.214c0 .058.156.998.156.998l.216-.176.076.489.177.842.196-.313.411 1.391.216-.49.49.568.332.019.49.137.098-.294h.45s-.234-.196-.215-.254c.02-.059.43-.274.371-.294-.058-.019-1.057.079-1.057.079l-.567-.568.352-.118-.53-.313.451-.137-.41-.313.351.039-.568-.431.568-.118-.763-.391.175-.196-.762-.45-.099-.314.725.568s.588.392.88.568c.294.176.53.509 1.02.646s1.43-.02 1.43-.02l-.883-.469.177-.274-.568-.177.078-.332-.94-.138.02-.352-.803-.137-.098-.333-.548-.196.255-.215s-.47-.157-.41-.176c.058-.02.685-.079.685-.079s-.315-.274-.256-.274c.06 0 .841-.039.841-.039l-.333-.235.786-.039-.355-.274s.647-.059.647-.118c0-.058-.274-.352-.274-.352l.567-.059s-.273-.294-.215-.314c.06-.019.803-.528.803-.528l-.88.117s-.216-.293-.237-.234c-.018.058-.233.411-.233.411l-.216-.235-.234.469s-.275-.156-.256-.097c.02.059-.314.431-.314.431l-.078-.177-.215.529-.195-.275-.373.51-.137-.215-.509.45s-.019-.294 0-.352c.02-.059.373-.314.373-.314s-.236-.098-.236-.156c0-.059.471-.431.471-.431l-.216-.157.51-.431s-.47-.097-.413-.137c.06-.039.294-.352.294-.352l-.196-.47-.39.607-.216-.059-.04.509-.214.02.116.567-.234-.038-.02.47-.098.469-.196.314s-.136-.236-.118-.294c.021-.059.178-.431.178-.431s-.216-.117-.178-.176c.04-.059.255-.489.255-.489s-.47-.098-.41-.098.215-.274.215-.274l-.255-.098-.117-.294s-.293.333-.275.274c.02-.059-.176-.607-.176-.607l-.292.333.292 1.155-.353.098-.254-.529s-.215.254-.235.196c-.02-.058-.236-.45-.236-.45s-.252.431-.233.372c.02-.059-.295-.686-.295-.686s-.274.549-.274.47c0-.078-.196-.763-.196-.763s-.312.529-.294.431c.021-.098-.214-.549-.214-.549l-.06.49-.43-.255.49.705.823.764.627.469-.413.059s.596.208.665.216c.177.02-.273.176-.273.176l1.096.333s-.489.255-.548.196c-.059-.059-.646-.176-.646-.176l-.079.45-.606-.255s-.099.412-.118.353c-.02-.059-.49-.313-.49-.313l-.234.254-.275-.431-.314.236-.566-.177.273.411-.313.177.646.411.137.274.882-.059s-.236.314-.196.255c.04-.059.9-.196.9-.196l.256.039.861-.313-.705.568-.607.117.391.313-.92.333.197.313-1.216.314.746.196-.51.861 1.057-.627.47.157.236-.607.431-.255.077-.45.216.098.195-.528.256.078.136-.372.373-.02-.099.49.156.235-.43.352.373.176-.549.451.47.059-.667.646.531-.02-.53.607.431.098-.079.783z" fill="#77b255"/></g></svg>