<svg xmlns="http://www.w3.org/2000/svg" viewBox="0 0 45 45"><defs><clipPath id="a"><path d="M4 31a4 4 0 0 1-4-4V9a4 4 0 0 1 4-4h28a4 4 0 0 1 4 4v18a4 4 0 0 1-4 4H4z"/></clipPath></defs><g clip-path="url(#a)" transform="matrix(1.25 0 0 -1.25 0 45)"><path d="M0 31h36V5H0v26z" fill="#039"/><path d="M18.54 26.296l.848.617H18.34l-.325.998-.324-.998h-1.049l.85-.617-.326-.998.85.617.848-.617-.324.998zM18.54 8.962l.848.617H18.34l-.325.998-.324-.998h-1.049l.85-.617-.326-.998.85.617.848-.617-.324.998zM9.873 17.629l.849.617h-1.05l-.324.998-.324-.998h-1.05l.85-.617-.325-.998.849.617.849-.617-.324.998zM10.98 21.914l.849.617h-1.05l-.324.998-.324-.998H9.08l.85-.617-.325-.998.849.617.849-.617-.324.998zM10.98 13.296l.849.617h-1.05l-.324.998-.324-.998H9.08l.85-.617-.325-.998.849.617.849-.617-.324.997zM14.206 25.134l.849.617h-1.05l-.324.998-.324-.998h-1.05l.85-.617-.325-.998.849.617.849-.617-.324.998zM14.206 10.067l.849.617h-1.05l-.324.998-.324-.998h-1.05l.85-.617-.325-.998.849.617.849-.617-.324.998zM26.128 17.629l-.85.617h1.05l.325.998.324-.998h1.049l-.85-.617.326-.998-.85.617-.849-.617.324.998zM25.02 21.914l-.849.617h1.05l.324.998.324-.998h1.05l-.85-.617.325-.998-.849.617-.849-.617.324.998zM25.02 13.296l-.849.617h1.05l.324.998.324-.998h1.05l-.85-.617.325-.998-.849.617-.849-.617.324.997zM21.794 25.134l-.849.617h1.05l.324.998.324-.998h1.05l-.85-.617.325-.998-.849.617-.849-.617.324.998zM21.794 10.067l-.849.617h1.05l.324.998.324-.998h1.05l-.85-.617.325-.998-.849.617-.849-.617.324.998z" fill="#fc0"/></g></svg>