<svg xmlns="http://www.w3.org/2000/svg" viewBox="0 0 45 45"><defs><clipPath id="a"><path d="M0 36h36V0H0v36z"/></clipPath></defs><g clip-path="url(#a)" transform="matrix(1.25 0 0 -1.25 0 45)"><path d="M0 9a4 4 0 0 1 4-4h28a4 4 0 0 1 4 4v4H0V9z" fill="#141414"/><path d="M0 13h36v10H0V13z" fill="#eee"/><path d="M32 31H4a4 4 0 0 1-4-4v-4h36v4a4 4 0 0 1-4 4" fill="#dd2e44"/><path d="M11.227 17.94v-1.23h5.651v.738c0 .328-.368.308-.368.06v-.551h-4.423v.86l3.103 3.102.47-.501-2.814-2.847h2.928s.133.86.93.86l.913-.634v-2.314H9.385s-.205-1.085-1.454-.942c0 0 .86.573.86 1.249 0 .675-.552 1.208-.552 1.208l.778.49s.082-.42.163-.542c.083-.122.389-.235.389-.235h1.045l-.013.549-.151.066.778.614zM19.53 16.938l-.167-.227h-.487c.003 1.152.006 3.418 0 3.44-.012.031.214.194.214.194l-.983.543v-5.406h1.843l-.42 1.455zM22.423 16.71h-.036c-.246 0-.215.329.123.329.187 0 .248-.101.267-.191v-.137h-.354zm2.564 3.318V16.71h-.491v2.949l-.615-.615V16.71h-.491v1.966l-.613-.614v-.006l-.134-.127.134-.053v-.457c-.586.302-1.23-.154-1.23-.71v-1.228h4.054V20.64l-.614-.613zM23.738 20.919c0-.152-.05-.277-.113-.277-.062 0-.113.125-.113.277 0 .153.051.276.113.276.062 0 .113-.123.113-.276M22.704 20.172s.184-.175.523-.123c.337.05.45.358.45.358s.194-.317.41-.266c.215.05.41.389.41.389s.01-.542-.309-.593c-.317-.052-.45.173-.45.173s-.164-.245-.47-.266c-.308-.021-.564.328-.564.328M27.648 16.967l-.266-.256h-.429v3.49l.255.114-.993.573v-5.405h1.853l-.42 1.484z" fill="#007a3c"/><path d="M10.716 14.868a.267.267 0 1 0-.534.002.267.267 0 0 0 .534-.002" fill="#007a3c"/></g></svg>