<svg xmlns="http://www.w3.org/2000/svg" viewBox="0 0 45 45"><defs><clipPath id="a"><path d="M0 36h36V0H0v36z"/></clipPath></defs><g clip-path="url(#a)" transform="matrix(1.25 0 0 -1.25 0 45)"><path d="M36 9a4 4 0 0 0-4-4H4a4 4 0 0 0-4 4v18a4 4 0 0 0 4 4h28a4 4 0 0 0 4-4V9z" fill="#00247d"/><path d="M34.184 30.346L0 18.034v-.04L34.185 5.656A3.987 3.987 0 0 1 36 9v18a3.99 3.99 0 0 1-1.816 3.346" fill="#bd1721"/><path d="M35.27 6.707A3.98 3.98 0 0 1 36 9v18c0 .856-.275 1.645-.733 2.296L3.944 18.014 35.27 6.707z" fill="#eee"/><path d="M22 16.463s.767-.121 1.089 0c.323.12.726.242.726.242l.605-.644.242.604.444-.121-.041-.202s.364-.121.364-.161c0-.04-.04-.364-.04-.364l1.129-.282.202.444s.725-.645 1.009-.685c.281-.041 1.128 0 1.29-.121.161-.122.524-.363.524-.363s2.864-.646 2.864-.687c0-.04-.04-.281-.282-.241-.242.04-3.953.767-4.438.928-.484.16-1.209-.161-1.209-.161v.443l-1.251.363-.121-.323h-.323l-.121-.282-.443.12.08.606s-.362.04-.524-.081a3.254 3.254 0 0 0-.403-.242s-.242.443-.605.686c-.364.242-.767.524-.767.524" fill="#d89500"/><path d="M26.114 14.325s5.405-.443 5.73-.483c.321-.04.321-.324 0-.364-.325-.04-5.73.404-5.73.404s-.242-.243-.242-.324c0-.08 2.137-.12 2.137-.12l-.2-.202s.846-.04 1.17.04c.321.081.362.322.403.242.04-.08-.243-.403-.162-.403.08 0 .968.081.968.081l-.645-.323.968-.363s-.484-.12-.686-.12c-.2 0-.525.08-.525.08s.324-.444.566-.525c0 0-.807.202-.929.323-.12.121.242-.605-.483.04-.726.646-.726.323-.726.323l.241-.404s-.604 0-1.008.243c-.404.242-.887.363-1.25.484-.364.121-.686.242-.968.403-.282.161-.888.525-.767.887.121.363.605.242.605.242s.323.081.565.041c.242-.04.404.282.646.161.242-.12.322-.363.322-.363" fill="#d89500"/><path d="M31.722 20.578c.483-.121 1.37.04 1.774.12.404.082.686.203.847.04.162-.16.122-.241.122-.241s.24-.121.24-.242v-.121s.163-.282 0-.403c0 0 .163-.444-.12-.525 0 0 .202-.362-.12-.403l-.122-.403-2.662.444.04 1.734z" fill="#fff"/><path d="M31.722 20.578c.483-.121 1.37.04 1.774.12.404.082.686.203.847.04.162-.16.122-.241.122-.241s.24-.121.24-.242v-.121s.163-.282 0-.403c0 0 .163-.444-.12-.525 0 0 .202-.362-.12-.403l-.122-.403-2.662.444.04 1.734z" fill="none" stroke="#66757f" stroke-width=".15" stroke-miterlimit="10"/><path d="M28.857 16.18c-.016-.036-.322-.806-.484-.927-.162-.121-.525-.403-.686-.443-.16-.041-.16-.202-.16-.202s-.364-.202-.485-.282c-.122-.082-.243-.082.081-.122.322-.04.403-.081.403-.081s-.242-.241-.16-.363c.08-.12.406-.142.805-.241.323-.081.646.04.646.16 0 .122-.08.444-.08.404 0-.04.241.12.483.243.242.12.363.403.282.605-.08.2 0 .524.202.887s-.04.806-.242.847c-.202.04-.525-.282-.605-.484" fill="#ffc220"/><path d="M25.71 19.57c.364.241.687.725.687.725s-.122.161-.565-.04c-.443-.202-1.01-.444-1.251-.162-.37.434.17.98.606 1.13 1.29.443-.525.927 1.008 1.613.643.288 1.896.484 2.138.605s.605.565.605.524c0-.04.04-.322.04-.322s.888.242 1.17.363c.283.121.525.443.525.443l.08-.282s.727.081 1.009.282c.282.202.484.041.484.041s.807.202 1.129.363c.323.161.767.242.686-.04-.08-.282-.565-1.695-.767-1.977-.201-.282-.161-.726-.403-.928-.242-.2-1.896-1.129-1.896-1.129s.807-.04 1.13-.162c.322-.12.16-.524.16-.524s.082-.16.082-.322-.202-.202-.202-.202.202-.08.16-.242c-.04-.162-.402-.162-.321-.162.08 0 .403-.322.363-.443-.041-.12-.686.161-.97.08 0 0 .043-.2.284-.322.242-.12.242-.202.04-.323-.201-.12-.404-.282-.201-.282.202 0 .282-.12.16-.202-.12-.08.485 0 .122-.282-.362-.283-.444-.283-.444-.283s.364-.443.202-.484c-.162-.04-.686.243-.686.243s.12-.404.323-.526c0 0-.444-.28-.685.041 0 0 .04-.444.16-.565 0 0-.241-.04-.443.121 0 0-.162-.322-.081-.524l-.403.646-.565.16-.323-.564s-.202.404-.161.767c.04.362 0 .887-.041 1.09-.04.201-.523.765-.926.846-.405.08-1.171.08-1.171.08l-.928 1.13" fill="#9c3900"/><path d="M23.653 17.31s.848-.282 1.13.283c.282.564-.686.766-1.049.564-.362-.202-.645-.564-.604-.847.04-.282.403-.404.403-.404l.12.404z" fill="#ffc220"/><path d="M23.573 18.077l.202-.484h1.008s.928.766 1.654.807c.726.04 1.25.403.444.444 0 0 1.088.483-.08.403 0 0 .765.524-.244.323 0 0 .888.605-.282.322l.121.444s-.483-.565-.806-.726c-.323-.162-1.33-.646-1.574-.726-.24-.081-.2-.202-.24-.404-.042-.201-.203-.403-.203-.403" fill="#fff"/><path d="M23.573 18.077l.202-.484h1.008s.928.766 1.654.807c.726.04 1.25.403.444.444 0 0 1.088.483-.08.403 0 0 .765.524-.244.323 0 0 .888.605-.282.322l.121.444s-.483-.565-.806-.726c-.323-.162-1.33-.646-1.574-.726-.24-.081-.2-.202-.24-.404-.042-.201-.203-.403-.203-.403z" fill="none" stroke="#66757f" stroke-width=".15" stroke-miterlimit="10"/><path d="M24.523 18.481c.038-.077-.02-.186-.134-.242-.112-.056-.235-.039-.274.038-.038.078.021.186.134.242.112.057.235.04.274-.038"/></g></svg>