<svg xmlns="http://www.w3.org/2000/svg" viewBox="0 0 45 45"><defs><clipPath id="a"><path d="M4 31a4 4 0 0 1-4-4V9a4 4 0 0 1 4-4h28a4 4 0 0 1 4 4v18a4 4 0 0 1-4 4H4z"/></clipPath></defs><g clip-path="url(#a)" transform="matrix(1.25 0 0 -1.25 0 45)"><path d="M0 5h36v8.5H0V5z" fill="#007a3d"/><path d="M0 13.5h36v9H0v-9z" fill="#eee"/><path d="M0 22.5h36V31H0v-8.5z" fill="#141414"/><path d="M0 31V5l17.5 13L0 31z" fill="#ce1126"/><path d="M6.627 16.662l1.056-.976-.104 1.434 1.42.217-1.185.813.716 1.247-1.375-.42-.528 1.336-.528-1.337-1.375.421.716-1.247-1.186-.813 1.42-.217-.103-1.434 1.056.976z" fill="#fff"/></g></svg>