<svg xmlns="http://www.w3.org/2000/svg" viewBox="0 0 45 45"><defs><clipPath id="a"><path d="M0 36h36V0H0v36z"/></clipPath></defs><g clip-path="url(#a)" transform="matrix(1.25 0 0 -1.25 0 45)"><path d="M32 31H4a3.965 3.965 0 0 1-2.618-.998L16.228 19.28h.828L18 22.186l.944-2.906H22l-2.472-1.796.249-.768L34.618 5.998A3.973 3.973 0 0 1 36 9v18a4 4 0 0 1-4 4" fill="#078930"/><path d="M20.472 14.578L18 16.374l-2.472-1.796.944 2.906L14 19.28h2.228L1.382 30.002A3.973 3.973 0 0 1 0 27V9a4 4 0 0 1 4-4h28a3.97 3.97 0 0 1 2.618.998l-14.84 10.719.694-2.14z" fill="#fcdd09"/><path d="M16.472 17.484l-.944-2.906L18 16.374l2.472-1.796-.695 2.139-.249.767L22 19.28h-3.056L18 22.186l-.944-2.906H14l2.472-1.796z" fill="#da121a"/></g></svg>