<svg xmlns="http://www.w3.org/2000/svg" viewBox="0 0 45 45"><defs><clipPath id="a"><path d="M0 36h36V0H0v36z"/></clipPath></defs><g clip-path="url(#a)" transform="matrix(1.25 0 0 -1.25 0 45)"><path d="M36 4a4 4 0 0 0-4-4H4a4 4 0 0 0-4 4v28a4 4 0 0 0 4 4h28a4 4 0 0 0 4-4V4z" fill="#3b88c3"/><path d="M12.22 26.379c0 1.55.774 2.697 2.417 2.697h7.69c1.487 0 2.201-1.054 2.201-2.14 0-1.053-.744-2.14-2.202-2.14H16.87v-4.525h5.086c1.52 0 2.264-1.055 2.264-2.14 0-1.054-.776-2.14-2.264-2.14H16.87V11.28h5.736c1.49 0 2.201-1.054 2.201-2.14 0-1.054-.744-2.14-2.2-2.14h-8c-1.364 0-2.387.93-2.387 2.326v17.054z" fill="#fff"/></g></svg>