<svg xmlns="http://www.w3.org/2000/svg" viewBox="0 0 45 45"><defs><clipPath id="a"><path d="M0 36h36V0H0v36z"/></clipPath></defs><g clip-path="url(#a)" transform="matrix(1.25 0 0 -1.25 0 45)"><path d="M1.383 6.027A3.797 3.797 0 0 1 4 5h28c2.209 0 4 1.791 4 4.5V18H17.5L1.383 6.027z" fill="#d7141a"/><path d="M32 31H4a3.98 3.98 0 0 1-2.646-1.006L17.5 18H36v9a4 4 0 0 1-4 4" fill="#eee"/><path d="M1.383 6.027L17.5 18 1.354 29.994A3.989 3.989 0 0 1 0 27V9.5c0-1.48.538-2.683 1.383-3.473" fill="#11457e"/></g></svg>