<svg xmlns="http://www.w3.org/2000/svg" viewBox="0 0 45 45"><defs><clipPath id="a"><path d="M0 36h36V0H0v36z"/></clipPath></defs><g clip-path="url(#a)" transform="matrix(1.25 0 0 -1.25 0 45)"><path d="M36 9a4 4 0 0 0-4-4H4a4 4 0 0 0-4 4v18a4 4 0 0 0 4 4h28a4 4 0 0 0 4-4V9z" fill="#eee"/><path d="M3.186 30.916a3.991 3.991 0 0 1-2.687-2.02L15.286 18 .498 7.104a3.991 3.991 0 0 1 2.686-2.02L18 16 32.816 5.084a3.989 3.989 0 0 1 2.687 2.02L20.713 18l14.788 10.896a3.989 3.989 0 0 1-2.687 2.02L18 20 3.186 30.916z" fill="#d52048"/><path d="M20.531 29c-.168-.065-.254-.365-.254-.365s-.15.339-.605.117c0 0 .248-.247.195-.456-.053-.209-.197-.3-.443-.267-.288.039-.34.371-.34.371s.177.033.197.183c.012.091-.033.222-.189.234-.119.01-.235-.065-.235-.208 0-.105.131-.195.131-.195s-.105-.225-.34-.235c-.3-.013-.432.156-.436.443-.007.411.521.417.521.417s-.046.202-.228.306c-.182.105-.352-.039-.352-.039s.13.294.091.496c-.033.173-.164.345-.21.403v.02l-.009-.01-.009.01v-.02c-.047-.058-.177-.23-.21-.403-.04-.202.09-.496.09-.496s-.169.144-.35.039c-.184-.104-.23-.306-.23-.306s.528-.006.522-.417c-.005-.287-.137-.456-.437-.443-.235.01-.339.235-.339.235s.13.09.13.195c0 .143-.116.218-.234.208-.156-.012-.2-.143-.189-.234.02-.15.196-.183.196-.183s-.053-.332-.34-.371c-.246-.033-.39.058-.443.267-.05.209.196.456.196.456-.456.222-.606-.117-.606-.117s-.085.3-.254.365c-.17.065-.339.039-.339.039s.313-.496.521-.977c.21-.482.287-.978.287-.978s.357.249.938.391c.45.109 1.024.117 1.1.118.075-.001.65-.009 1.098-.118.584-.142.94-.391.94-.391s.077.496.286.978c.21.481.522.977.522.977s-.17.026-.34-.039" fill="#ffcc4d"/><path d="M20.063 27.084s-.477.313-.977.424a5.46 5.46 0 0 1-2.121 0c-.502-.111-.977-.424-.977-.424s-.41-1.52-.17-2.626c.473-2.186 2.02-3.086 2.199-3.184v-.009l.008.004a.041.041 0 0 0 .009-.004v.009c.177.098 1.726.998 2.199 3.184.24 1.106-.17 2.626-.17 2.626" fill="#dd2e44"/><path d="M20.063 27.084s-.477.313-.977.424a5.46 5.46 0 0 1-2.121 0c-.502-.111-.977-.424-.977-.424s-.41-1.52-.17-2.626c.473-2.186 2.02-3.086 2.199-3.184v-.009l.008.004a.041.041 0 0 0 .009-.004v.009c.177.098 1.726.998 2.199 3.184.24 1.106-.17 2.626-.17 2.626z" fill="none" stroke="#231f20" stroke-width=".005" stroke-miterlimit="10"/><path d="M19.406 27.078s-.092-.124-.41-.124c-.32 0-.177.042-.43.042-.256 0-.366-.064-.366-.143 0-.078.091-.127.431-.127.338 0 .463.085.736.085.273 0 .377-.098.377-.222 0-.123-.176-.352-.457-.28 0 0 .197-.097.406-.085.207.013.383.053.397.007.013-.046.097-.286.086-.417-.02-.202-.276-.273-.379-.261-.104.013-.24-.085-.28-.13l.026.137-.106-.04.06.17h-.13s.064.13.168.13c.105 0 .34-.026.353.046.012.07-.066.169-.214.163-.15-.007-.438-.092-.614-.046 0 0-.058-.084-.006-.15.051-.065.13-.143.09-.19-.039-.044-.136-.044-.227-.038a2.055 2.055 0 0 1-.515-.058 1.522 1.522 0 0 1-.215-.098l.052.15s-.104.033-.156-.013c0 0 .02.097.104.117l-.098.026s.04.117.183.104c.143-.012.208-.045.254.007.046.052-.11.156-.11.156s-.118-.045-.379-.084c-.26-.04-.43-.026-.43-.026s-.033-.274-.45-.32c-.417-.045-.625.15-.723.189-.097.039-.235.007-.235.007l.066.124-.157-.033s-.01.15.098.156l-.143.039s.104.124.247.092c.144-.033.218-.154.352-.222.222-.111.737-.032.352.046a.295.295 0 0 0-.153.104s-.245-.052-.434.24c-.128.202-.188.366-.423.32 0 0 .11.143.235.098 0 0-.072.09-.183.085 0 0 .052.13.21.084 0 0-.086.079-.164.072 0 0 .045.137.254.02.21-.117.083-.216.124-.287.026-.045.083-.124.221-.247.235-.21.346-.261.274-.05-.078.052-.124.186-.143.252-.02.065-.13.22-.098.26.032.039.13-.033.13-.033s.124.053.293.053c.17 0 .235-.078.235-.078s.117.09.137.045c.02-.045-.065-.117-.104-.196-.04-.078.006-.17.006-.17s.114-.148.35-.155c.233-.007.582.032.706.058.123.027.338.069.482.043.144-.027.548-.016.535.088-.014.104-.112.136-.313.11-.202-.025-.378-.091-.75-.065-.372.026-.409.215-.385.307.033.124.242.198.437.198.196 0 .441-.082.583-.082.144 0 .33.04.33.04" fill="#ffcc4d"/><path d="M16.995 26.508s.078-.037.124-.033a.492.492 0 0 1 .127.045s-.026-.05-.026-.094c0-.045-.01-.092-.088-.094-.117-.004-.101.072-.108.104-.006.032-.03.072-.03.072" fill="#dd2e44"/><path d="M17.19 26.087a.06.06 0 0 0-.059-.059h-.013a.059.059 0 0 0-.058.06v.253c0 .032.026.058.058.058h.013a.058.058 0 0 0 .06-.058v-.254zM16.16 26.121a.319.319 0 0 1-.097-.073l.144-.039c-.108-.006-.098-.157-.098-.157l.155.033-.103.236zM19.475 25.804c-.068-.035-.107-.115-.107-.115h.128l-.058-.169.105.04-.025-.138a.433.433 0 0 0 .113.087l-.156.295zM18.282 25.497l-.107.322a.164.164 0 0 1-.085-.09l.098-.026c-.085-.02-.105-.117-.105-.117.052.046.157.013.157.013l-.052-.15s.038.022.094.048M16.102 26.967c.045.004.094-.021.125-.043l.02.106c-.116.022-.145-.063-.145-.063M16.264 25.884l-.064-.123s.05.013.112.013l-.048.11zM16.201 26.762l.023.141a.16.16 0 0 1-.168-.093.219.219 0 0 0 .145-.048M16.004 26.628a.285.285 0 0 0 .173-.012l.02.118c-.106.006-.193-.106-.193-.106" fill="#11429a"/><path d="M19.219 25.281s-.08-.11-.368-.11c-.287 0-.158.037-.386.037s-.328-.058-.328-.129c0-.069.082-.113.387-.113.303 0 .415.076.66.076.246 0 .34-.089.34-.199 0-.112-.16-.316-.41-.252 0 0 .175-.088.363-.076.187.012.346.047.357.006.012-.04.086-.257.076-.375-.017-.18-.246-.245-.34-.234-.093.012-.216-.076-.251-.117l.023.123-.094-.034.053.151h-.117s.058.117.152.117.305-.023.317.041c.01.065-.06.152-.194.146-.135-.005-.392-.08-.55-.04 0 0-.052-.077-.005-.136.046-.058.116-.128.08-.169-.034-.04-.122-.04-.203-.035a1.863 1.863 0 0 1-.462-.053 1.401 1.401 0 0 1-.193-.087l.046.134s-.094.03-.14-.012c0 0 .018.088.094.106l-.088.023s.035.105.163.093c.129-.01.188-.04.229.007.04.047-.1.14-.1.14s-.105-.04-.34-.076c-.233-.036-.385-.023-.385-.023s-.03-.246-.404-.287c-.375-.04-.562.135-.65.17-.087.035-.21.005-.21.005l.058.112-.14-.03s-.008.135.087.141l-.128.035s.094.111.222.082c.129-.029.196-.139.317-.2.198-.099.66-.028.316.042-.082.016-.138.093-.138.093s-.22-.046-.39.217c-.116.18-.17.328-.38.287 0 0 .1.128.21.088 0 0-.063.081-.163.076 0 0 .047.117.187.076 0 0-.076.07-.146.063 0 0 .04.123.228.02.188-.107.075-.195.11-.259a.975.975 0 0 1 .2-.223c.21-.187.31-.233.246-.043-.071.046-.111.167-.13.225-.016.06-.116.2-.086.234.029.035.117-.03.117-.03s.11.048.263.048c.152 0 .21-.07.21-.07s.106.081.123.041c.018-.042-.058-.106-.093-.176-.035-.07.006-.152.006-.152s.102-.135.313-.14c.21-.006.523.03.634.052.112.023.305.061.433.038.13-.024.492-.015.48.08-.012.093-.1.122-.281.1-.182-.025-.34-.083-.672-.06-.334.024-.367.192-.345.275.029.111.216.178.392.178.175 0 .395-.073.524-.073.128 0 .294.035.294.035" fill="#ffcc4d"/><path d="M17.002 24.77s.07-.032.111-.03a.446.446 0 0 1 .114.042s-.023-.044-.023-.085c0-.041-.009-.083-.079-.085-.106-.003-.09.065-.097.094a.23.23 0 0 1-.026.064" fill="#dd2e44"/><path d="M17.178 24.393a.052.052 0 0 0-.053-.053h-.011a.053.053 0 0 0-.053.053v.228c0 .029.024.052.053.052h.01c.03 0 .054-.023.054-.052v-.228zM16.253 24.422c-.054-.025-.088-.065-.088-.065l.13-.036c-.098-.005-.089-.14-.089-.14l.14.03-.093.211zM19.229 24.139a.274.274 0 0 1-.098-.103h.118l-.051-.152.093.035-.023-.123c.016.02.055.052.102.077l-.141.266zM18.158 23.862l-.096.289c-.059-.026-.077-.081-.077-.081l.088-.023c-.076-.018-.094-.105-.094-.105.047.04.14.012.14.012l-.046-.135s.035.02.085.043M16.2 25.182a.179.179 0 0 0 .114-.038l.015.096c-.103.019-.128-.058-.128-.058M16.346 24.209l-.058-.11s.046.011.101.011l-.043.099zM16.29 24.998l.02.126c-.111.015-.15-.081-.15-.081a.199.199 0 0 0 .13-.044M16.113 24.878a.251.251 0 0 0 .155-.011l.018.107c-.095.004-.173-.096-.173-.096" fill="#11429a"/><path d="M18.864 23.538s-.062-.082-.274-.082c-.213 0-.117.028-.287.028-.17 0-.243-.044-.243-.095 0-.054.06-.086.286-.086.226 0 .31.057.492.057s.252-.066.252-.148c0-.083-.118-.235-.304-.187 0 0 .13-.065.269-.056.139.008.258.035.265.004.008-.03.065-.19.057-.278-.014-.135-.183-.183-.252-.174-.07.01-.16-.057-.187-.088l.017.092-.07-.026.04.113h-.087s.044.087.112.087c.07 0 .228-.018.236.03.008.05-.043.114-.145.11-.1-.006-.29-.06-.407-.03 0 0-.04-.058-.005-.1.035-.045.087-.097.06-.128-.025-.029-.09-.029-.152-.025a1.397 1.397 0 0 1-.342-.039c-.075-.027-.144-.066-.144-.066l.035.101s-.07.02-.105-.009c0 0 .013.064.07.078l-.065.017s.025.078.12.07c.097-.009.14-.03.17.004.03.035-.073.105-.073.105s-.078-.03-.252-.057c-.174-.026-.287-.017-.287-.017s-.022-.183-.3-.213c-.278-.03-.417.1-.483.125-.065.026-.156.005-.156.005l.043.083-.104-.022s-.006.1.065.104l-.095.026s.069.083.164.061c.096-.022.146-.103.235-.148.148-.074.492-.02.235.03a.198.198 0 0 0-.102.07s-.163-.035-.29.161c-.085.134-.125.243-.282.213 0 0 .074.095.157.065 0 0-.048.061-.122.057 0 0 .035.086.139.056 0 0-.056.053-.11.05 0 0 .032.09.17.011.14-.078.057-.144.084-.192a.689.689 0 0 1 .148-.164c.156-.139.23-.174.182-.034-.052.036-.083.125-.095.168-.013.044-.087.148-.066.175.022.026.087-.022.087-.022s.083.035.196.035.157-.053.157-.053.078.062.09.031c.014-.03-.043-.079-.07-.13-.025-.053.005-.114.005-.114s.077-.1.233-.104a2.64 2.64 0 0 1 .472.04.997.997 0 0 0 .32.027c.098-.017.367-.01.358.06-.008.068-.074.09-.21.073-.133-.018-.251-.06-.5-.044-.246.018-.271.143-.255.205.022.082.16.133.29.133.13 0 .295-.055.39-.055.096 0 .22.026.22.026" fill="#ffcc4d"/><path d="M17.255 23.157s.052-.023.083-.02c.03.001.084.03.084.03s-.017-.033-.017-.064c0-.03-.006-.06-.06-.063-.077-.003-.066.047-.07.07a.16.16 0 0 1-.02.047" fill="#dd2e44"/><path d="M17.385 22.877a.039.039 0 0 0-.039-.039h-.008a.04.04 0 0 0-.04.039v.169c0 .022.018.04.04.04h.008a.04.04 0 0 0 .04-.04v-.169zM16.699 22.9c-.04-.02-.065-.05-.065-.05l.095-.025c-.071-.004-.065-.104-.065-.104l.103.022-.068.157zM18.909 22.689c-.044-.023-.071-.077-.071-.077h.088l-.04-.112.069.026-.017-.092c.012.016.042.04.076.058l-.105.197zM18.114 22.483l-.071.215c-.044-.02-.057-.06-.057-.06l.065-.018c-.057-.013-.07-.077-.07-.077.035.03.105.008.105.008l-.035-.1.063.032M16.66 23.465c.03.003.062-.015.083-.03l.012.072c-.077.015-.096-.042-.096-.042M16.768 22.74l-.043-.08s.034.008.075.009l-.032.072zM16.726 23.328l.015.094c-.083.01-.112-.062-.112-.062a.14.14 0 0 0 .097-.032M16.594 23.238a.195.195 0 0 0 .115-.008l.013.08c-.07.002-.128-.072-.128-.072" fill="#11429a"/></g></svg>