<svg xmlns="http://www.w3.org/2000/svg" viewBox="0 0 45 45"><defs><clipPath id="a"><path d="M0 36h36V0H0v36z"/></clipPath></defs><g clip-path="url(#a)" transform="matrix(1.25 0 0 -1.25 0 45)"><path d="M36 9a4 4 0 0 0-4-4H4a4 4 0 0 0-4 4v18a4 4 0 0 0 4 4h28a4 4 0 0 0 4-4V9z" fill="#f7e017"/><path d="M36 9L0 17v5l36-8V9z" fill="#141414"/><path d="M36 14L0 22v5l36-8v-5z" fill="#eee"/><path d="M21.596 21.065a4.418 4.418 0 1 0-8.137-2.386c0 .879.257 1.698.698 2.386a5.071 5.071 0 1 1 7.439 0" fill="#cf1b26"/><path d="M9.78 20.494c.538-.118.657-.323.63-.758 0 0 .273-.053.463-.325.19-.271.367-.543.694-.651.326-.11.584-.326.584-.978v-2.42s-.06-.246.076-.571c.136-.327.058-.79-.947-.79-1.007 0-1.013.437-.877.762.136.326.294.599.294.599v2.08s-.197.285-.468.475c-.272.19-.846.87-.927 1.523-.083.653-.235 1.21.479 1.054M25.96 20.494c-.537-.118-.656-.323-.629-.758 0 0-.273-.053-.464-.325-.19-.271-.267-.543-.594-.651-.326-.11-.485-.326-.485-.978v-2.42s-.039-.246-.176-.571c-.135-.327-.107-.79.899-.79s1.087.437.951.762c-.136.326-.219.599-.219.599v2.08s.097.285.368.475c.273.19.796.87.878 1.523.082.653.184 1.21-.529 1.054M23.436 11.262s.325.652-.028.788c-.354.136-1.061 0-1.061 0s.589.747.027 1.06c-.562.314-.948-.461-1.44-.815-.491-.353-.986-.55-1.586-.748-.598-.2-1.378-.285-1.378-.285s-.875.086-1.473.285c-.6.199-1.19.395-1.681.748-.491.354-.877 1.129-1.44.816-.56-.314.029-1.061.029-1.061s-.706.136-1.06 0c-.353-.136-.026-.788-.026-.788-.788-.11-.513-.6-.513-.6s.196.254 1.012.254c.816 0 1.153-.797 1.697-.797s.54.517.54.517c1.007-.843 2.915-.843 2.915-.843s1.814 0 2.82.843c0 0-.051-.517.493-.517s.857.797 1.674.797c.815 0 1-.253 1-.253s.268.49-.521.599M21.275 21.833c-.598.163-1.238.924-2.08.924-.844 0-1.226-.653-1.226-.653s-.467.653-1.31.653-1.57-.761-2.168-.924c-.598-.164-1.169 0-1.169 0 .137-.626.835-.768.835-.768.074-.388.66-.401.66-.401.078-.463.926-.144.926-.144s-.053-.455.383-.4c.435.054 1.171.815 1.171.815s-.21-.217-.184-.415c.028-.198.365-.183.365-.183-.299-.299.241-.652.241-.652l.25.19.165-.19s.496.353.197.652c0 0 .316-.015.344.183.027.198-.195.415-.195.415s.731-.761 1.166-.815c.436-.055.38.4.38.4s.847-.319.927.144c0 0 .584.013.657.401 0 0 .7.142.835.768 0 0-.57-.164-1.17 0M17.02 24.28c0 .12.383.218.856.218s.857-.097.857-.218c0-.12-.384-.217-.857-.217s-.856.097-.856.217M18.882 23.845c-.027.19-.142.218-.142.218s-.449-.116-.863-.116c-.415 0-.857.116-.857.116s-.109-.027-.136-.218c-.027-.19-.217-.775-.217-.775l.353.388.3-.388.298.388.26-.388.264.388.303-.388.3.388.354-.388s-.19.585-.217.775M17.97 26.17v-1.06l.728-.314-.282.435.573.272-1.02.666z" fill="#cf1b26"/><path d="M18.081 21.928h-.449v1.142h.449v-1.142zM18.43 14.994s.295.407.234.714c-.061.306-.346.79-.427 1.098-.082.31.197.595.197.595l-.217.04s.292.265.217.551c-.074.286-.217.652-.257.98-.041.325.257.713.257.713l-.387-.225-.21.225-.205-.225-.38.225s.299-.388.258-.714c-.04-.327-.183-.693-.258-.979-.075-.286.218-.55.218-.55l-.218-.04s.279-.287.197-.596c-.081-.309-.367-.792-.428-1.098-.061-.307.23-.714.23-.714l-.584.122c.32-.652.693-.733 1.17-.733.476 0 .856.081 1.175.733l-.581-.122z" fill="#cf1b26"/></g></svg>