<svg xmlns="http://www.w3.org/2000/svg" viewBox="0 0 45 45"><defs><clipPath id="a"><path d="M0 36h36V0H0v36z"/></clipPath></defs><path d="M13.846 26.25l8.654 12.5 8.654-12.5H13.846z" fill="#fff"/><g clip-path="url(#a)" transform="matrix(1.25 0 0 -1.25 0 45)"><path d="M10.279 21l-.105.022 3.988.827-3.392 2.417 3.977-.889-2.281 3.64 3.36-2.47-.821 4.308 2.232-3.676L18 29.5l.764-4.321 2.23 3.676-.82-4.308 3.36 2.47-2.28-3.64 3.977.889-3.393-2.417 3.988-.827-.104-.022h3.355l5.956 8.603A3.987 3.987 0 0 1 32 31H4a3.988 3.988 0 0 1-3.033-1.397L6.923 21h3.356z" fill="#141414"/><path d="M25.826 21.022l-3.988.827 3.392 2.418-3.976-.89 2.28 3.64-3.36-2.47.821 4.308-2.232-3.675L18 29.5l-.763-4.32-2.232 3.675.821-4.308-3.36 2.47 2.28-3.64-3.976.89 3.392-2.418-3.988-.827.105-.022h15.442l.105.022z" fill="#fcd116"/><path d="M10.279 21H6.923l4.154-6h13.846l4.154 6H10.279z" fill="#0072c6"/><path d="M29.077 21l-4.154-6L18 5h14a4 4 0 0 1 4 4v18c0 .995-.366 1.903-.967 2.603L29.077 21zM6.923 21L.967 29.603A3.982 3.982 0 0 1 0 27V9a4 4 0 0 1 4-4h14l-6.923 10-4.154 6z" fill="#ce1126"/></g></svg>