<svg xmlns="http://www.w3.org/2000/svg" viewBox="0 0 45 45"><defs><clipPath id="a"><path d="M0 36h36V0H0v36z"/></clipPath></defs><g clip-path="url(#a)" transform="matrix(1.25 0 0 -1.25 0 45)"><path d="M36 9a4 4 0 0 0-4-4H4a4 4 0 0 0-4 4v18a4 4 0 0 0 4 4h28a4 4 0 0 0 4-4V9z" fill="#d01c3a"/><path d="M4 31a4 4 0 0 1-4-4V9a4 4 0 0 1 4-4h8v26H4z" fill="#0020a8"/><path d="M24 5H12v26h12V5z" fill="#fedf00"/><path d="M23.035 16.36c-.159.471-.564.381-.564.224 0 0-.539.39-.134 1.104 0 0 .786-.093.337.514 0 0 .673.382.696 1.168.022.787-.876 1.281-1.258.966 0 0-.022.315-.18.315-.157 0-.247-.202-.247-.202s.023.516.36.808c.337.292 1.033 1.08-.428 1.53-1.46.448-1.527-.474-1.303-.676 0 0-.359-.2-.763-.179-.405.022-.114.493-.023.697.09.202.023.92-.473.898-.493-.023-.516-.225-.695-.292-.18-.067-.36-.022-.36-.022s-.18-.045-.36.022c-.179.067-.202.27-.696.292-.495.022-.562-.696-.472-.898.09-.204.382-.675-.023-.697-.404-.022-.764.18-.764.18.225.201.158 1.123-1.303.674-1.46-.45-.764-1.237-.427-1.529.337-.292.36-.808.36-.808s-.09.202-.248.202c-.157 0-.179-.315-.179-.315-.382.315-1.28-.179-1.259-.966.023-.786.697-1.168.697-1.168-.45-.607.337-.514.337-.514.404-.715-.135-1.104-.135-1.104 0 .157-.404.247-.563-.225-.16-.472.316-.629.316-.629-.629-.81-.225-1.573.382-2.022.607-.45 1.775-.383 2.36-.427.584-.045.696-.337.696-.337-.449-.428.225-.765.225-.765.134-.449.674.045.674.045l.382-.337.382.337s.54-.494.673-.045c0 0 .675.337.225.765 0 0 .113.292.697.337.584.044 1.753-.023 2.36.427.606.45 1.01 1.212.382 2.022 0 0 .475.157.316.63" fill="#c7b37f"/><path d="M17.82 21.325h-2.966v-2.966h2.966v2.966z" fill="#d01c3a"/><path d="M15.933 19.494l-.881-.91.138-.157.743.82v.247zM17.382 20.651s.391-.102.391.247c0 .35-.234.35-.312.35-.079 0-.439-.058-.45-.203-.01-.147.141-.237.06-.316-.082-.078-.303-.272-.303-.272l.131-.157s.188.157.337.373c.075.111.018.378.09.394.213.044.292-.057.281-.136-.012-.078-.146-.157-.146-.157l-.079-.123z" fill="#fedf00"/><path d="M16.652 19.09s.056-.416.258-.438c.202-.023.27.646.6.646.333 0 .367-.58 0-.67l-.05.169s.237.236.068.27c-.168.034-.247-.18-.27-.27-.022-.09-.157-.325-.36-.325-.336 0-.381.309-.432.547-.05.239.186.07.186.07M16.052 19.09s-.056-.416-.259-.438c-.202-.023-.269.646-.6.646-.332 0-.366-.58 0-.67l.05.169s-.236.236-.067.27c.168.034.247-.18.27-.27.022-.09.156-.325.36-.325.336 0 .381.309.431.547.051.239-.185.07-.185.07" fill="#fff"/><path d="M16.394 21.202l.865-1.102-.432-1.179s-.175.101-.433.101c-.26 0-.461-.1-.461-.1l-.46 1.19.92 1.09z" fill="#fff"/><path d="M16.466 20.82l.604-.726-.306-.926-.292.09-.006 1.562zM16.267 20.82l-.604-.726.306-.926.292.09.006 1.562zM14.854 18.09v-1.843c0-1.214.886-1.381 1.648-1.214.614.136 1.318 0 1.318 0v3.057h-2.966z" fill="#fedf00"/><path d="M16.502 15.033l.06.012v3.045h-.45v-3.109c.131.006.262.025.39.052M17.46 15.08v3.01h-.45v-2.998c.166.005.32-.002.45-.013M15.663 15.02v3.07h-.449v-2.841a1.01 1.01 0 0 1 .45-.229" fill="#d01c3a"/><path d="M18.18 21.325h2.966v-2.966H18.18v2.966z" fill="#fedf00"/><path d="M18.989 18.359h-.45v2.966h.45v-2.966zM19.888 18.359h-.45v2.966h.45v-2.966zM20.786 18.359h-.449v2.966h.449v-2.966z" fill="#d01c3a"/><path d="M21.145 18.09v-1.843c0-1.214-.886-1.381-1.648-1.214-.614.136-1.318 0-1.318 0v3.057h2.966z" fill="#fedf00"/><path d="M18.629 17.596l.28.225h.349v-.181s.495.008.899.049c.405.042.529-.262.405-.34-.123-.08.022-.383 0-.528-.023-.147-.292-.36-.225-.237.067.124 0 .46 0 .46s-.078-.258-.146-.336c-.068-.08-.303-.09-.213-.022.089.067.179.213.1.292-.078.078-.43.09-.446.056-.014-.034-.081-.426-.126-.45-.046-.022-.102.034-.068.157.034.125 0 .337 0 .337s-.236.012-.225-.09c.012-.1.113-.145.09-.224-.023-.078-.168-.18-.18-.045-.011.135-.235.225-.134.292.1.067.202.173.202.173s-.126.029-.216.153c-.09.123-.166.113-.346.113-.09 0 0 .146 0 .146M18.629 16.247l.28.225h.349v-.18s.495.007.899.05c.405.04.529-.263.405-.342-.123-.079.022-.382 0-.528-.023-.146-.292-.359-.225-.237.067.124 0 .461 0 .461s-.078-.258-.146-.337c-.068-.079-.303-.09-.213-.022.089.067.179.214.1.292-.078.078-.43.09-.446.056-.014-.034-.081-.426-.126-.45-.046-.02-.102.034-.068.158.034.124 0 .337 0 .337s-.236.011-.225-.09c.012-.1.113-.146.09-.224-.023-.079-.168-.18-.18-.045-.011.134-.235.225-.134.292.1.067.202.173.202.173s-.126.03-.216.152c-.09.124-.166.113-.346.113-.09 0 0 .146 0 .146" fill="#d01c3a"/><path d="M14.63 14.809c0-.033 1.651-.482 1.836-.517.186-.033.118-.415-.129-.392-.248.02-1.472.29-1.629.37-.158.079-.079.539-.079.539M16.899 14.253s.495-.067.92-.085c.428-.017.72.02.72.02l.304-.412s-.528-.057-.888-.057-.944.057-.944.057l-.112.477zM19.056 14.253s.708.129 1.136.23c.426.1.988.303 1.135.326.145.022.247-.242.29-.278l.045-.037s-.741-.347-1.1-.45c-.36-.1-1.506-.258-1.506-.258s-.164.437 0 .467" fill="#af9167"/></g></svg>