<svg xmlns="http://www.w3.org/2000/svg" viewBox="0 0 45 45"><defs><clipPath id="a"><path d="M4 31a4 4 0 0 1-4-4V9a4 4 0 0 1 4-4h28a4 4 0 0 1 4 4v18a4 4 0 0 1-4 4H4z"/></clipPath></defs><g clip-path="url(#a)" transform="matrix(1.25 0 0 -1.25 0 45)"><path d="M36 5v13L0 5h36zM0 31l36-13v13H0z" fill="#009e49"/><path d="M3.168 28.712L32.5 18 3.168 7.288 0 5l36 13L0 31l3.168-2.288z" fill="#fff"/><path d="M3.168 7.288L32.5 18 3.168 28.712 18 18 3.168 7.288z" fill="#fcd116"/><path d="M18 18L3.168 28.712 0 31v-1.517L16 18 0 6.517V5l3.168 2.288L18 18z" fill="#141414"/><path d="M0 29.483V6.516L16 18 0 29.483z" fill="#ce1126"/></g></svg>