<svg xmlns="http://www.w3.org/2000/svg" viewBox="0 0 45 45"><defs><clipPath id="a"><path d="M0 36h36V0H0v36z"/></clipPath></defs><g clip-path="url(#a)" transform="matrix(1.25 0 0 -1.25 0 45)"><path d="M1.364 6.013A3.966 3.966 0 0 1 4 5h28a4 4 0 0 1 4 4v4.5H11.443L1.363 6.013z" fill="#00abc9"/><path d="M17.5 18l-6.058-4.5H36v9H11.442L17.5 18z" fill="#fae042"/><path d="M32 31H4a3.966 3.966 0 0 1-2.636-1.013L11.442 22.5H36V27a4 4 0 0 1-4 4" fill="#00abc9"/><path d="M17.5 18l-6.058 4.5-10.078 7.487A3.974 3.974 0 0 1 0 27V9c0-1.194.534-2.254 1.364-2.987L11.442 13.5 17.5 18z" fill="#141414"/></g></svg>