<svg xmlns="http://www.w3.org/2000/svg" viewBox="0 0 45 45"><defs><clipPath id="a"><path d="M0 36h36V0H0v36z"/></clipPath><clipPath id="b"><path d="M4 31a4 4 0 0 1-4-4v-9h19v13H4z"/></clipPath><clipPath id="c"><path d="M0 36h36V0H0v36z"/></clipPath></defs><g clip-path="url(#a)" transform="matrix(1.25 0 0 -1.25 0 45)"><path d="M36 9a4 4 0 0 0-4-4H4a4 4 0 0 0-4 4v18a4 4 0 0 0 4 4h28a4 4 0 0 0 4-4V9z" fill="#68bfe5"/><path d="M27.646 24.375h-4.875v-8.25c0-2.791 4.875-4.354 4.875-4.354s4.875 1.563 4.875 4.354v8.25h-4.874z"/><path d="M27.646 11.981c-.555.191-4.675 1.694-4.675 4.144v8.05h9.35v-8.05c0-2.45-4.12-3.953-4.674-4.144" fill="#fff"/><path d="M32.321 24.175h-9.35v-3.071h9.35v3.071z" fill="#d21034"/><path d="M26.98 12.237c.317-.132.56-.219.667-.256.104.036.338.12.645.247v9.167H26.98v-9.158z" fill="#d21034"/><path d="M32.321 16.396h-9.35v1.312h9.35v-1.312z" fill="#d21034"/><path d="M24.184 22.308c0-.275-.257-.498-.572-.498-.317 0-.572.223-.572.498s.255.498.572.498c.315 0 .572-.223.572-.498" fill="#fff"/><path d="M23.719 22.703c-.326-.057-.484.141-.422.328.063.188.375.36.672.391.297.031.578-.266.812-.282.235-.015.36.115.407.284.047.17.375.557.172.654.265 0 .265-.28.265-.28s.297.296.516.28c.125-.219 0-.53 0-.53s.312.124.53-.017c-.421-.062-.483-.312-.483-.312s.078-.204-.031-.313c-.11-.109.859-.312 1.39-.156.53.156 1.547.515 2.203.515.656 0 .797-.25.953-.03.157.218-.187.452-.75.405-.562-.046-1.515-.698-1.89-.263-.094 0-.141-.112-.141-.112s-.234.08-.47.204c-.233.125-.186-.297-.061-.36-.391.016-.378.268-.378.268s-.481.357-.17.623c.024-.485.454-.344.689-.25a.707.707 0 0 0 .67-.11c.142-.125.548-.234 1.064.063.515.297 1.906.406 1.922-.219.015-.625-.688-.672-.688-.672s.078-.375.516-.296c.437.078.719.203.844-.14.125-.345.406-.36.312-.642-.094-.28-.406-.412-.828-.339-.422.074-.47.246-.125.308.344.063.406.328.28.391-.124.062-.358-.188-.671-.063-.312.125-.718.375-.718.375s.015-.172-.266-.265c-.281-.094-.047-.204.03-.375.079-.172-.28-.312-.655-.39-.375-.079-.656-.282-1.016.155-.36.438.094.563.282.422.187-.14.375-.39.53-.266.157.125-.11.204-.14.438-.031.234.016.515.016.515s-.5-.78-1.563-.937c-1.062-.156-1.25-.156-1.25-.156l-.312.22-.375-.25-.016.28s-.594-.466-.906-.538c-.313-.072-1.166.132-1.185.366-.018.234.076.344.357.437.28.094.328-.062.469-.187.14-.125.296-.297.5-.125.203.172.312.234.312.234l.063.297-.297.016.109.343s-.22-.046-.375.094c-.156.141-.172.281-.312.235-.141-.047-.032-.204-.391-.266" fill="#ffd101"/><path d="M24.469 18.172c-.266-.11-.672.766-.437 1.016.234.25.703-.907.437-1.016M24.984 18.281c-.249-.022-.156 1.187 0 1.187s.344-1.156 0-1.187M25.422 18.09c-.311.057.156.785.28.785.126 0 .079-.85-.28-.785M30.36 17.89c-.61-.016-.267.108-.204.273.062.165.025 1.4.025 1.4h.35s-.11-1.064 0-1.282c.11-.218.39-.374-.172-.39M31.563 15.734c.145.162-.22.422-.47.422-.25 0-.533-.14-.743-.734-.21-.594.235-.422.35-.094.113.328.207.515.379.531.172.016.234-.406.484-.125M29.172 13.656c-.321.023-.594-.812-.594-.812s1.438.75.594.812" fill="#964b36"/><path d="M24.184 18.875c.078-.249-.715.04-.73-.394-.33.05.14.691.437.597-.062.344-.506.484-.55-.078-.497.437.136.859.42.672-.151.531-.442.522-.478.203-.376.312.003.812.329.578.326-.234.349-.484.349-.484s.227.808.805.545c-.698-.296-.836-.827-.582-1.639" fill="#00a651"/><path d="M25.004 19.223c-.207.199-.332.418-.332.418s.22-.594-.124-.844c.015.547-.36.735-.157.953.203.219.547 0 .547 0s.08.128-.271.438c-.352.31-.604.297-.62.562.352-.21.893-.211.957-.797.074.704.39.719.537.735.147.015.49-.063.615.062 0-.25-.281-.172-.468-.25.25-.172.265-.726.265-.726s-.36.633-.515.586c-.157-.047-.26-.516-.26-.516s.57.017.363-.75c-.088.422-.182.469-.291.469-.11 0-.246-.34-.246-.34" fill="#00a651"/><path d="M25.541 18.693c.021.292.162.792.318.83.052.32.219.774.563.852.344.078.422-.281.344-.484-.204.297-.485.375-.547-.328.297.078.468-.157.39-.47-.281.329-.484.368-.609.13.328-.13.334-.41.167-.645-.073.407-.29.375-.405 0-.116-.374-.221.115-.221.115M30.295 19.223c-.357 0-.826-.37-.857-.942-.375.563.084 1.188.565 1.407-.847-.016-1.16-.391-1.27-.703-.108.828.945 1.156 1.27 1.015-.206.36-1.02.329-1.425.032 0 .687 1.215.852 1.717.23-.061.504.143.629.143.629v-.672s1.13 1.063 1.752-.22c-1.002.517-1.491-.014-1.491-.014s1.039.25.897-.953c-.33.734-1.018.656-1.018.656s.797-.361.485-1.251c-.313.86-.768.786-.768.786" fill="#00a651"/><path d="M29.531 15.313c-.047.468.547.733.547.733s1-.608 1.14-.733c.141-.125-.085-.648-.519-.785s-1.168.785-1.168.785" fill="#fff202"/><path d="M29.256 13.645c-.235.148-.385.98 0 1.059-.146.5.166.75.275.78.11.032.514-.152.82-.443.305-.292.57-.362.594-.475.024-.113-.191-.457-.56-.488.115-.343-.764-.663-1.13-.433" fill="#00a651"/><path d="M24.047 15.593s.234.095.375.235c.14.14.328.14.484-.117.157-.258.272-.586.272-.586s-.053.469.43.719c.486.25.559.312.559.312L26 15.488s.578.356.672.559c.125-.797-.47-1.367-.844-1.52.203-.34.11-.621.11-.621l.687-.562-.75-.234-.334.718s-.867-.031-.993.625c-.126.657.173 1.008 0 1.035-.173.028-.501.105-.501.105"/><path d="M25.604 13.93l-.067-.002c-.147 0-.791.028-.89.544-.066.343-.01.597.028.765.028.129.046.214-.002.284l-.024.036-.086.03c-.064.01-.148.028-.23.045a.908.908 0 0 1 .16.126c.03.029.075.065.127.065.065 0 .136-.058.2-.163.15-.247.262-.565.263-.568l.194.044a.648.648 0 0 0 .378.619c.157.08.271.143.355.19l-.167-.67.21.129c.07.044.344.215.534.39-.02-.638-.533-1.066-.797-1.174l-.108-.043.06-.101c.175-.292.103-.528.1-.538l-.02-.066.595-.488-.489-.153-.325.7z" fill="#fff"/><path d="M24.255 15.701c-.114.268-.114.268-.294.346-.008-.172 0-.282 0-.282s-.101.33-.258.282c-.093-.375.242-.454.242-.454s-.148-.048-.132-.313c.265-.108.234.126.234.126s-.055-.24.137-.378c.129.206.07.673.07.673" fill="#00a651"/><path d="M19 31H4a4 4 0 0 1-4-4v-9h19v13z" fill="#00247d"/><path d="M19 18v2.029L11.9 25H6.671l9.997-7H19z" fill="#eee"/><path d="M19 19.418L11.029 25H9.286L19 18.198v1.22z" fill="#cf1b2b"/><path d="M8.1 25L0 19.234V18h3.332l9.998 7H8.1z" fill="#eee"/><path d="M10.714 25l-9.98-7H2.46l9.998 7h-1.744z" fill="#cf1b2b"/><path d="M16.669 31l-9.997-7H11.9L19 28.971V31h-2.331z" fill="#eee"/><path d="M17.54 31l-9.997-7h1.743L19 30.802V31h-1.46z" fill="#cf1b2b"/></g><g clip-path="url(#b)" transform="matrix(1.25 0 0 -1.25 0 45)"><path d="M10 24h3.328l-9.996 7H1l-.625-1.594L10 22.669V24z" fill="#eee"/><path d="M10 24h.714L1 30.802l-.5-.865 9.5-6.659V24z" fill="#cf1b2b"/></g><g clip-path="url(#c)" transform="matrix(1.25 0 0 -1.25 0 45)"><path d="M19 27h-7v4H7v-4H0v-5h7v-4h5v4h7v5z" fill="#eee"/><path d="M11 18H8v13h3V18z" fill="#cf1b2b"/><path d="M19 23H0v3h19v-3z" fill="#cf1b2b"/></g></svg>