<svg xmlns="http://www.w3.org/2000/svg" viewBox="0 0 45 45"><defs><clipPath id="a"><path d="M0 36h36V0H0v36z"/></clipPath><clipPath id="b"><path d="M4 31a4 4 0 0 1-4-4v-9h19v13H4z"/></clipPath><clipPath id="c"><path d="M0 36h36V0H0v36z"/></clipPath></defs><g clip-path="url(#a)" transform="matrix(1.25 0 0 -1.25 0 45)"><path d="M36 9a4 4 0 0 0-4-4H4a4 4 0 0 0-4 4v18a4 4 0 0 0 4 4h28a4 4 0 0 0 4-4V9z" fill="#00247d"/><path d="M23.278 13.344c.276.516.468 1.03.692 1.187.225.157 1.485.032 1.73-.25.245-.281.12-1.734-.364-2.546-.485-.813-1.387-1.125-1.725-1.063-.338.063-.557.672-.619.89-.063.22.144.298.62.157.474-.141 1.177 1.063 1.161 1.5-.406.297-.762.063-.92-.297-.158-.36-.575.422-.575.422" fill="#ba6747"/><path d="M22.648 12.297c.066-.291.338-.982.63-1.366-.142.852.495.585.448.24.22-.061-.058.485-.115.798-.057.312-.01.922-.526.89-.515-.031-.485-.353-.437-.562" fill="#d7a896"/><path d="M32.612 13.344c-.276.516-.468 1.03-.692 1.187-.225.157-1.485.032-1.73-.25-.245-.281-.12-1.734.364-2.546.485-.813 1.387-1.125 1.725-1.063.338.063.55.672.611.89.063.22-.144.298-.619.157-.474-.141-1.17 1.063-1.154 1.5.406.297.762.063.92-.297.158-.36.575.422.575.422" fill="#ba6747"/><path d="M32.91 12.547c.072.312-.298.797-.532 1.263-.954-1.792-3.47-2.026-4.433-2.03-.963.004-3.478.238-4.432 2.03-.235-.466-.605-.951-.532-1.263.074-.312 2.337-1.937 4.95-1.951v-.002h.03v.002c2.611.014 4.875 1.639 4.948 1.95" fill="#e9cfc6"/><path d="M33.242 12.297c-.066-.291-.338-.982-.63-1.366.142.852-.495.585-.448.24-.219-.061.058.485.115.798.057.312.01.922.526.89.515-.031.485-.353.437-.562" fill="#d7a896"/><path d="M27.958 25.354h-4.687v-6.5c0-5.708 4.687-6.958 4.687-6.958s4.687 1.25 4.687 6.958v6.5h-4.687z" fill="#fff"/><path d="M27.957 12.297c-.517.155-4.354 1.48-4.354 6.55v6.113h8.709v-6.113c0-5.022-3.872-6.398-4.355-6.55" fill="#0072c4"/><path d="M26.094 19.313c.109.437.187 1.047-.078 1.14-.266.093-.736.375-.892.875-.155.5-.077 1.656-.217 1.734-.141.078-.563-.109-.813.203-.25.313-.094.422.078.531.172.11.656.36.625.453-.031.094.03.243.327.344.548.188.986-.297 1.157-.484.172-.188.625-.438.829-.453.203-.016 2.656-.047 2.937-.078.28-.032 1-.219.938-1.078-.063-.86-.184-1.688-.303-1.844-.12-.157-.197-.203-.197-.203s.125-.688.109-.813-.234-.172-.25.047c-.016.22-.094.734-.094.734l-.422.079s.016-.75-.125-.968c-.14-.22-.5-.078-.406.078a.875.875 0 0 1 .14.484c0 .188-.046.469-.14.5-.094.03-.562-.156-.906-.156s-1.11.219-1.25.094c-.141-.125-.328-.766-.422-1.125-.094-.36-.25-.141-.234.03.015.173.078.75-.016.657-.094-.094-.063-.531-.125-.672-.063-.14-.25-.11-.25-.11" fill="#fff"/><path d="M24.984 20.094s.203-1.165.97-1.672c.764-.506 3.977-.375 4.53.016.553.39 1.062 1.344 1.062 1.344s-.453 0-.609.17c-.453-.25-.719-.14-.812.017-.36-.36-.329-.141-.375-.031-.313-.36-.766-.141-.907-.016-.312-.203-.78-.078-.875.047-.359-.312-.89-.234-1-.094-.234-.39-.578-.25-.765-.125-.266-.25-.375.032-.469.203-.219-.375-.578-.11-.75.14" fill="#015121"/><path d="M23.422 18.625s.484-.062.859.281c.375.344 1.016.516 1.485 0 .469-.515 1-.5 1.406-.078.406.422 1.016.622 1.594.046.578-.577 1.078-.33 1.422 0 .343.329 1.062.545 1.53 0 .47-.546.798-.249.798-.249l-.203-1.437s-.141-.032-.578.343c-.438.375-1.047.516-1.485.047-.437-.469-1.094-.484-1.562-.031-.47.453-1.016.406-1.422.047-.406-.36-1.11-.531-1.672 0-.563.531-1.047.265-1.328-.016-.282-.281-.662-.391-.662-.391l-.182 1.438zM23.903 16.06c.124.042.257.11.378.222.375.343 1.016.515 1.484 0 .47-.516 1-.5 1.407-.08.406.423 1.015.624 1.593.046.578-.576 1.078-.33 1.422 0 .344.33 1.063.546 1.531 0 .094-.108.182-.183.263-.234.081-.311-.359-1.018-.419-.98-.415.273-.93.33-1.312-.081-.438-.468-1.094-.484-1.563-.031-.469.453-1.015.406-1.422.047-.406-.36-1.109-.531-1.672 0-.486.46-.915.322-1.203.095-.045-.035-.746.907-.487.996M25.124 14.01a.932.932 0 0 0 .642-.322c.468-.516 1-.5 1.406-.078.406.422 1.015.622 1.594.045.578-.577 1.078-.33 1.421 0 .125.12.3.225.495.284-.644-.924-2.479-1.862-2.724-1.861-.248 0-2.239.875-2.834 1.933" fill="#fff"/><path d="M24.703 23.906c.078.172.342.125.421 0 .08-.125-.499-.172-.42 0"/><path d="M23.846 16.281c-.095-.115 1.2-.682 1.2-.682s.116-.615.22-.537c.103.078.547-.007.547-.007s.106-1.837 2.156-1.837c2.05 0 2.6 1.963 2.6 1.963s.74-.008.828-.053c.087-.045-.178.243-.07.471.11.23.376.495.22.557-.156.063-1.812-.39-1.812-.39s.03-1.485-1.766-1.485c-1.797 0-1.562.97-1.562.97s-2.415 1.21-2.561 1.03" fill="#dd8b59"/><path d="M26.484 14.678a.085.085 0 0 0-.086-.086.085.085 0 0 0-.086.086v3.955c0 .048.038.086.086.086a.085.085 0 0 0 .086-.086v-3.955zM27.969 14.195a.07.07 0 0 0-.07-.07.07.07 0 0 0-.071.07v4.72c0 .038.032.07.07.07a.07.07 0 0 0 .07-.07v-4.72zM29.516 14.453a.078.078 0 0 0-.156 0v4.187c0 .043.035.08.078.08a.079.079 0 0 0 .078-.08v-4.187z" fill="#dd8b59"/><path d="M25.875 18s.141-.281.609-.156c.469.125.485.515.485.515L25.875 18zM28.453 18.625l-1.062-.266s.11-.346.507-.267c.4.08.555.533.555.533M28.922 18.125s.25-.297.594-.187c.343.109.562.515.562.515l-1.156-.328zM27.125 17.811l-1.34-.368s-.129-.24-.082-.49.172-.484.172-.484.125.313.438.375c.312.063.531-.188.531-.188s-.12.574.281 1.156M27.39 17.811s-.272-.155-.265-.625c.004-.257.266-.58.266-.58s.14.253.437.347c.297.093.625-.172.625-.172s-.123.38-.078.672c.045.293.25.637.25.637l-1.234-.279zM28.828 17.578s-.094-.204-.094-.438.188-.67.188-.67.093.327.437.405c.344.078.531-.156.531-.156s-.115.231-.065.57c.05.336.394.624.394.624l-1.39-.335zM26.89 16.547l-1.17-.22s.14-.374.585-.327c.445.047.586.547.586.547M28.516 16.606s-1.125-.06-1.125-.138c0-.076.109-.359.484-.296.375.062.64.434.64.434M29.969 16.547l-1.11-.248s.157-.283.555-.205c.399.078.555.453.555.453" fill="#fecf3d"/><path d="M26.313 18.633l-.828-.273.828-.09v.363zM27.89 18.9l-.828-.273.828-.09v.363zM29.453 18.719l-.828-.273.828-.09v.363z" fill="#ff0100"/><path d="M19 31H4a4 4 0 0 1-4-4v-9h19v13z" fill="#00247d"/><path d="M19 18v2.029L11.9 25H6.671l9.997-7H19z" fill="#eee"/><path d="M19 19.418L11.029 25H9.286L19 18.198v1.22z" fill="#cf1b2b"/><path d="M8.1 25L0 19.234V18h3.332l9.998 7H8.1z" fill="#eee"/><path d="M10.714 25l-9.98-7H2.46l9.998 7h-1.744z" fill="#cf1b2b"/><path d="M16.669 31l-9.997-7H11.9L19 28.971V31h-2.331z" fill="#eee"/><path d="M17.54 31l-9.997-7h1.743L19 30.802V31h-1.46z" fill="#cf1b2b"/></g><g clip-path="url(#b)" transform="matrix(1.25 0 0 -1.25 0 45)"><path d="M10 24h3.328l-9.996 7H1l-.625-1.594L10 22.669V24z" fill="#eee"/><path d="M10 24h.714L1 30.802l-.5-.865 9.5-6.659V24z" fill="#cf1b2b"/></g><g clip-path="url(#c)" transform="matrix(1.25 0 0 -1.25 0 45)"><path d="M19 27h-7v4H7v-4H0v-5h7v-4h5v4h7v5z" fill="#eee"/><path d="M11 18H8v13h3V18z" fill="#cf1b2b"/><path d="M19 23H0v3h19v-3z" fill="#cf1b2b"/></g></svg>