<svg xmlns="http://www.w3.org/2000/svg" viewBox="0 0 45 45"><defs><clipPath id="a"><path d="M0 36h36V0H0v36z"/></clipPath></defs><g clip-path="url(#a)" transform="matrix(1.25 0 0 -1.25 0 45)"><path d="M32 31H9.177l-.665-.484.364-1.123-.955.695-.956-.695.365 1.123-.665.484H4a4 4 0 0 1-4-4V9a4 4 0 0 1 4-4h19.725l.105.324-.955.695h1.181l.365 1.122.365-1.122h1.181l-.956-.695.106-.324H32a4 4 0 0 1 4 4v18a4 4 0 0 1-4 4" fill="#2d3189"/><path d="M6.965 29.393l.956.695.955-.695-.365 1.123.666.484H6.664l.666-.484-.365-1.123zM25.967 6.019h-1.181l-.365 1.123-.365-1.123h-1.181l.955-.695L23.725 5h1.392l-.105.324.955.695zM9.999 29.185l.365-1.123h1.18l-.954-.694.364-1.123-.955.694-.956-.694.365 1.123-.955.694h1.18L10 29.185zM12.068 26.035l.365-1.123h1.181l-.955-.694.364-1.123-.955.694-.956-.694.365 1.123-.955.694h1.181l.365 1.123zM14.122 22.887l.365-1.123h1.18l-.954-.695.365-1.123-.956.695-.956-.695.365 1.123-.955.695h1.18l.366 1.123zM16.183 19.737l.365-1.123h1.181l-.955-.694.365-1.123-.956.694-.956-.694.365 1.123-.955.694h1.181l.365 1.123zM18.244 16.588l.365-1.124h1.181l-.955-.693.365-1.124-.956.695-.955-.695.364 1.124-.955.693h1.181l.365 1.124zM20.306 13.44l.365-1.123h1.18l-.954-.695.365-1.122-.956.694-.955-.695.364 1.123-.955.695h1.18l.366 1.123zM22.36 10.29l.364-1.123h1.181l-.955-.694.365-1.123-.956.694-.956-.694.365 1.123-.955.694h1.181l.365 1.124z" fill="#e1e8ed"/><path d="M28 5v26H11L28 5z" fill="#fbd116"/></g></svg>