<svg xmlns="http://www.w3.org/2000/svg" viewBox="0 0 45 45"><defs><clipPath id="a"><path d="M4 31a4 4 0 0 1-4-4V9a4 4 0 0 1 4-4h28a4 4 0 0 1 4 4v18a4 4 0 0 1-4 4H4z"/></clipPath></defs><g clip-path="url(#a)" transform="matrix(1.25 0 0 -1.25 0 45)"><path d="M21 24.5h15V31H21v-6.5zM6.198 26.294L4.417 25l.68 2.094-1.781 1.294h2.202l.68 2.094.68-2.094H9.08l-1.781-1.294.68-2.094-1.781 1.294zM15 31H0v-6.5h15V31z" fill="#003082"/><path d="M21 18h15v6.5H21V18zM15 24.5H0V18h15v6.5z" fill="#eee"/><path d="M15 18H0v-6.5h15V18zM21 11.5h15V18H21v-6.5z" fill="#289728"/><path d="M21 5h15v6.5H21V5zM0 5h15v6.5H0V5z" fill="#ffce00"/><path d="M21 18v13h-6V5h6v13z" fill="#d21034"/><path d="M9.08 28.388H6.878l-.68 2.094-.68-2.094H3.316l1.78-1.294L4.417 25l1.782 1.294L7.978 25l-.68 2.094 1.782 1.294z" fill="#ffce00"/></g></svg>