<svg xmlns="http://www.w3.org/2000/svg" viewBox="0 0 45 45"><defs><clipPath id="a"><path d="M4 31a4 4 0 0 1-4-4V9a4 4 0 0 1 4-4h28a4 4 0 0 1 4 4v18a4 4 0 0 1-4 4H4z"/></clipPath><clipPath id="b"><path d="M0 36h36V0H0v36z"/></clipPath></defs><g clip-path="url(#a)" transform="matrix(1.25 0 0 -1.25 0 45)"><path d="M36 9a4 4 0 0 0-4-4H4a4 4 0 0 0-4 4v18a4 4 0 0 0 4 4h28a4 4 0 0 0 4-4V9z" fill="#ff4e11"/><path d="M40.313 32.875L-1.002 4.656V32h16.002l25.312.875z" fill="#ffd521"/></g><g clip-path="url(#b)" transform="matrix(1.25 0 0 -1.25 0 45)"><path d="M31.516 28.605s.24-.362-.145-.65c-.385-.29-.385-.82-.481-1.132-.097-.314-.458-1.037-.458-1.037s.267.337.579.41c.312.072 1.034-.049 1.348.168 0 0-.025-.169-.168-.289-.146-.12-.772-.169-.94-.289-.17-.12-.482-.554-.482-.554h.386c.216 0 .409.265.77.29.362.023 1.278-.242 1.59-.05 0 0-.168-.409-.892-.385-.722.025-1.01-.096-1.3-.24-.288-.145-1.325-.314-1.325-.314l-.313-.578s.29-.362.12-.723c-.168-.36-.24-.818-.24-.818v-.17s-.217.386-.192.868c0 0-.291-.193-.314-.53-.024-.338.048-.892-.29-1.133 0 0 .024 1.061 0 1.35 0 0-.482-.048-.65-.24-.17-.194-.41-.507-.41-.507s-.048.433.24.626c.29.193.797.651.797.651l.072.24-.723-.096.192.338-.337.264-.243-.53-.19.434s-.144.144-.386-.024c-.241-.169-.458-.578-.458-.578s-.578-1.012-1.06-1.012c-.482 0-.82.12-1.011.072-.193-.048-.58-.41-.868-.41-.29 0 .433.507.626.724.193.216-.434-.048-1.083 0-.651.047.168.29.48.41.314.12-.726.192-.726.192s-.19-.53-.19-.868c0 0 1.013-.988 1.737-1.349.722-.36 1.903-.963 2.625-.77.722.192 1.254-.038 1.254-.038s.385 1.555 1.662 1.555c1.276 0 .939-.77.939-.77s.867-.65.867-1.109c0-.459-.964-1.494-1.927-1.494-.963 0-1.446.7-1.446.7s-1.012-.7-1.974-.7l.312-1.06-.506.578-.168-.819s-.554.626-.386 1.157c0 0-.168-.338-.53-.314 0 0 .314.217.338.723 0 0-.651.361-1.133-.12 0 0 .097-1.229-.265-1.976-.362-.747-1.084-1.349-1.11-1.662-.023-.313-.143-.458-.07-.458.07 0 1.638-.844 2.529-.555.892.29 1.397 1.664 2.59.965 0 0-.735-.41-1.048-1.025 0 0 1.518.445 1.518-.975 0 0 .627-1.228-.146-1.903-.77-.675-1.613-.289-1.613-.289s-1.107.217-1.59.987c-.481.771-.023.988-.023.988s-1.351.241-2.05.506c-.698.265-1.54.867-1.54.867l-.41-.579-.17.7s-.457-.578-.866-.289c0 0 .385.264.53.626l-.41.506.676-.265s.385.434.457.723c0 0-2.145.121-3.662.722-1.52.603-3.11.555-3.422-.36-.313-.916-.265-2.098.12-2.146.386-.048.218 1.157.7 1.326.48.17 1.325-.265 1.325-.265s-.723 0-.892-.747c0 0 1.639.627 1.759-.482 0 0 .722-.554.337-1.253-.385-.698-1.181-.626-1.181-.626s-.698-.216-1.132.096c-.433.314-.385.53-.385.53l-.603.05s-.192-.892-.072-1.254c.12-.36.603-.675.627-1.229 0 0 1.06.023 1.493-.314.434-.337.145-1.685.145-1.685s-.073.722-.361 1.035c-.29.313-.747.144-.747.144s.24-.288.289-.818c.048-.53-.217-.796-.217-.796s.072-1.01-.675-1.252c-.747-.24-1.493.193-1.638.602-.144.41 0 .627 0 .627s-.795.963-.361 1.47c.433.505.819.41.819.41s-.024.77-.313 1.107c0 0-.193.121-.458-.435l-.178.484-.834-.097s.48.675.819.53l-.53.385.843.073s.024.747.024.674c0-.072-.891.025-1.397-.433s-.795-.819-1.084-.988c-.29-.169-.747-.65-1.084-.94-.338-.289-1.253-.217-1.446-.627 0 0 .337.507.627.555.289.048.554.506.554.506s-.29 0-.723-.265c-.434-.266-.771-.675-1.205-.555 0 0 .36.266.506.578 0 0-.145-.169-.506-.169s-.265-.192-.41-.432c-.144-.24-.65-.218-.843-.24-.192-.026-.12-.53-.722-.7-.602-.169-.867.024-1.374-.265-.506-.289-.747-.65-1.228-.362 0 0 .506.218.795.507.289.29 1.036.866 1.518.94.482.071.65.36.939.601 0 0-.554-.192-1.084-.289-.53-.097-.602-.217-.964-.482-.361-.265-.602 0-.602 0s.385.072.699.482c.313.41.867.578 1.204.578.338 0 .94.241 1.157.507a.707.707 0 0 0 .506.265s-.41-.024-.844-.096c-.434-.073-.626.144-.94-.12-.312-.267.146.288.53.36.386.074.845.217 1.18.337.339.121.58.265.58.265s-.7.338-1.037.193c-.337-.144-.433.145-.747.217-.313.072-.674-.048-.674-.048s.265.434.699.386c.433-.049.988.096 1.518-.049.53-.144 1.108-.169 1.373-.144.265.024 1.277.265 1.638.384.36.121.65.675.65.675s-.385.025-.553.241c0 0 .313.048.554.242.24.192.48.361.578.29.096-.074-.29.577.145.65 0 0-.05.843.289.843 0 0-.964-.362-1.398-.025 0 0 .507 0 .723.242.217.241.313.601.843.601 0 0-.168.943.458 1.11 0 0-.12.505.144.601 0 0-.698.193-.915.072 0 0 .627.723 1.277.531.65-.193.096.457.77.384.675-.07.218.748 1.133.555 0 0-.241.313-.41.626-.168.314.675.121 1.18-.217.507-.337 1.085-.048 1.664-.12.578-.073.072.41.072.41l1.18-.53s1.012-.579 1.566-.435c.556.145-.506.17-.506.17s.772.264.844.24c.073-.024-.386.46-.145.892 0 0-.82.313-.602.82 0 0-.483.023-.674-.17-.194-.193-.338-.578-.338-.578s-.097.482.217.867c.312.386.192.651.192.651s-.674-.096-.867-.41c0 0 .482.916.987 1.036 0 0-.023.892.458 1.373 0 0-1.18.29-1.601.146-.422-.146-.76-.338-.76-.338s.218.627.796.627c.578 0 1.276.241 1.879.071.602-.168-.795.46.169.386 0 0-.362.53.627.073.987-.459.842.096.48.24-.36.145-1.662.482-2 .386-.337-.096-.494-.476.025-.626 0 0-.458-.193-.7.144-.24.337.315 1.036 1.037.963.724-.072 1.47-.385 1.47-.385s1.639-.217.964.145c-.675.361-1.107.7-1.494.554-.385-.145.24.53 1.663-.314 0 0 .698.05.049.29-.652.241-1.471.482-1.832.458-.362-.025-.531.192.12.264a3.409 3.409 0 0 0 2.144-.457c.723-.434 1.277-.482.723 0-.554.482-1.228.674-1.228.674s.674.362 1.276-.072c0 0-1.012.41-1.493.386-.483-.025.29.53 1.517-.049 1.23-.578.964-.795 1.47-.963.506-.169 1.76-.41 2.289-.338.529.073.843-.602 1.518-.36.674.24.819-.314 1.132.216.314.53.314.482.506.674.193.193.169.193.145.602-.025.41.24.386.506.603.264.217.36.458.36.458" fill="#fff"/><path d="M26.144 23.33c.43-.112.939-.29 1.204-.507.265-.217 1.325-.892 1.132-1.157-.193-.264-.458-.842-.892-.409-.432.433-1.444 1.397-1.88 1.373-.431-.024.436.7.436.7" fill="#fff"/><path d="M26.287 23.811c.386-.434 2.04-.991 2.675-1.108.636-.118 1.084-.266 1.374 0 .288.265-.17.48-.17.48s.7-.191.627-.504c0 0 .564.337.005.65 0 0 .67.024.67-.53 0 0 .506.024.89-.362.386-.385.12-.578.12-.578s-.047.603-.698.531c-.65-.073-1.107-.314-1.805-.29-.7.024-2.627 1.012-3.688 1.036-1.06.025 0 .675 0 .675" fill="#fff"/></g></svg>