<svg xmlns="http://www.w3.org/2000/svg" viewBox="0 0 45 45"><defs><clipPath id="a"><path d="M0 36h36V0H0v36z"/></clipPath></defs><g clip-path="url(#a)" transform="matrix(1.25 0 0 -1.25 0 45)"><path d="M36 9a4 4 0 0 0-4-4H4a4 4 0 0 0-4 4v18a4 4 0 0 0 4 4h28a4 4 0 0 0 4-4V9z" fill="#75aadb"/><path d="M36 13H0v10h36V13z" fill="#eee"/><path d="M17.577 15.874l-1.236-1.879.455 2.203-1.862-1.263 1.264 1.861-2.203-.455 1.878 1.236-2.209.423 2.21.423-1.879 1.236 2.203-.455-1.264 1.861 1.862-1.263-.455 2.203 1.236-1.879.423 2.209.423-2.208 1.236 1.878-.455-2.203 1.861 1.263-1.263-1.861 2.203.455-1.879-1.236 2.21-.423-2.21-.423 1.88-1.236-2.204.455 1.262-1.86-1.86 1.262.455-2.203-1.236 1.879L18 13.665l-.423 2.209z" fill="#fcbf49"/><path d="M22.62 20h.004-.005zm-1.085 2h.005-.005zm-1.62 1h.004-.005zM18 23l-.488-2.548-1.425 2.167.524-2.54-2.147 1.457 1.457-2.147-2.54.524 2.167-1.425L13 18l2.548-.488-2.167-1.426 2.54.525-1.457-2.146 2.147 1.457-.524-2.541 1.425 2.167L18 13l.488 2.548 1.426-2.167-.525 2.541 2.146-1.457-1.457 2.146 2.541-.525-2.167 1.426L23 18l-2.548.488 2.167 1.425-2.54-.524 1.456 2.147-2.146-1.457.525 2.54-1.426-2.167L18 23zm0-1.33l.242-1.265.116-.605.34.515.706 1.076-.26-1.262-.125-.604.51.347 1.066.723-.724-1.066-.346-.509.604.124 1.261.26-1.076-.707-.514-.339.605-.116L21.671 18l-1.266-.242-.604-.116.513-.339 1.076-.707-1.26.26-.605.125.346-.51.724-1.066-1.066.724-.51.346.125-.604.26-1.262-.707 1.077-.339.513-.116-.604L18 14.329l-.242 1.266-.116.605-.339-.514-.707-1.077.26 1.262.124.604-.509-.346-1.066-.724.723 1.066.346.51-.603-.125-1.262-.26 1.076.707.515.339-.605.116L14.33 18l1.265.242.605.116-.515.339-1.076.707 1.262-.26.603-.124-.346.509-.723 1.066 1.066-.723.51-.346-.125.603-.26 1.262.707-1.076.34-.515.115.605L18 21.67z" fill="#843511"/><path d="M16 18a2 2 0 1 0 4 0 2 2 0 0 0-4 0" fill="#fcbf49"/><path d="M16 18a2 2 0 1 0 4 0 2 2 0 0 0-4 0z" fill="none" stroke="#843511" stroke-width=".25" stroke-miterlimit="10"/><path d="M17.801 18.226c0-.155-.26-.28-.583-.28-.323 0-.584.125-.584.28 0 .155.261.28.584.28.322 0 .583-.125.583-.28M19.355 18.25c0 .161-.266.292-.594.292-.328 0-.593-.131-.593-.292 0-.161.265-.292.593-.292.328 0 .594.131.594.292" fill="#c16540"/><path d="M17.463 17.126c0 .126.246.229.548.229.303 0 .549-.103.549-.229s-.246-.229-.55-.229c-.301 0-.547.103-.547.229" fill="#ed8662"/></g></svg>