<svg xmlns="http://www.w3.org/2000/svg" viewBox="0 0 45 45"><defs><clipPath id="a"><path d="M0 36h36V0H0v36z"/></clipPath></defs><g clip-path="url(#a)" transform="matrix(1.25 0 0 -1.25 0 45)"><path d="M4 31a4 4 0 0 1-4-4V9a4 4 0 0 1 4-4h6v26H4zM32 31h-6V5h6a4 4 0 0 1 4 4v18a4 4 0 0 1-4 4" fill="#d52b1e"/><path d="M10 5h16v26H10V5z" fill="#eee"/><path d="M18.615 13.887c1.198-.14 2.272-.264 3.47-.401l-.306 1.002a.46.46 0 0 0 .16.475l3.478 2.834-.72.339c-.317.113-.229.292-.115.722l.531 1.936-2.02-.427c-.199-.03-.33.096-.36.216l-.26.91-1.598-1.793c-.227-.287-.687-.287-.544.376l.683 3.635-.916-.475c-.257-.144-.514-.168-.658.089l-1.264 2.366v-.06.06l-1.266-2.366c-.144-.257-.4-.233-.657-.09l-.916.476.682-3.635c.144-.663-.317-.663-.544-.376l-1.598 1.794-.26-.911c-.03-.12-.162-.245-.359-.216l-2.02.427.531-1.936c.113-.43.201-.61-.116-.722l-.72-.34 3.48-2.833a.457.457 0 0 0 .157-.475l-.305-1.002c1.2.137 2.273.262 3.471.4.106 0 .175-.058.175-.18l-.214-3.704h.957l-.214 3.704c0 .122.07.18.175.18" fill="#d52b1e"/></g></svg>