<svg xmlns="http://www.w3.org/2000/svg" viewBox="0 0 45 45"><defs><clipPath id="a"><path d="M0 36h36V0H0v36z"/></clipPath></defs><g clip-path="url(#a)" transform="matrix(1.25 0 0 -1.25 0 45)"><path d="M36 9a4 4 0 0 0-4-4H4a4 4 0 0 0-4 4v18a4 4 0 0 0 4 4h28a4 4 0 0 0 4-4V9z" fill="#de2910"/><path d="M15.524 20.508c-.268.646-.437 1.378-.461 1.717-.035.478-.034.962-.038 1.252-.007.421.112.877.254 1.391.3 1.092 1.407 2.032 2.312 2.24.746.172 1.43.005 2.035-.309.559-.29 1.043-.83 1.079-.96.01-.037-.156.052-.22.086-.072.04-.098.033-.236.102-.161.083-.436.102-.558.038-.166-.089-.22-.2-.268-.283-.062-.103-.09-.128-.091-.344-.002-.182-.002-.472.145-.726.038-.068.077-.176.146-.27.136-.187.306-.429.412-.675.143-.328.198-.655.179-.774l.022-.326c.024-.439-.265-1.523-1.125-2.07-.19-.12-.396-.282-.614-.4-.318-.172-.592-.353-.78-.69-.111-.2-.093-.424-.088-.647.007-.402.122-.792.223-.994l.068-.152c-.051-.012-.075.014-.098.034l-.113.127c-.172.175-.344.61-.48.991-.11.305-.204.787-.197 1.106.015.558.145 1.014.226 1.31.12.445.152.498.203.624l.009.021c-.002.02.003.035-.012.05a.076.076 0 0 1-.107 0l-.011-.022c-.082-.114-.154-.368-.28-.806a3.5 3.5 0 0 1-.151-1.295c.02-.318.073-.807.196-1.105.178-.427.36-.798.502-.966l.085-.134c.008-.026.02-.043.036-.052l.014-.008c-.015-.075-.492.26-1.092 1.047-.476.625-.962 1.387-1.11 1.878" fill="#fff"/><path d="M17.785 23.363l.054-.646.626-.174-.599-.25.028-.65-.423.491-.608-.226.335.555-.402.507.631-.147.358.54z" fill="#de2910"/><path d="M17.785 23.363l.054-.646.626-.174-.599-.25.028-.65-.423.491-.608-.226.335.555-.402.507.631-.147.358.54z" fill="none" stroke="#de2910" stroke-width=".013"/><path d="M14.372 15.94c-.694-.084-1.445-.048-1.777.02-.47.095-.935.227-1.216.3-.408.107-.815.345-1.271.62-.97.584-1.578 1.902-1.534 2.831.036.764.38 1.377.847 1.876.43.46 1.08.78 1.216.78.037 0-.094-.136-.144-.189-.057-.058-.057-.086-.161-.198-.124-.134-.216-.395-.187-.529.04-.185.134-.264.2-.333.082-.088.098-.122.306-.182.176-.05.454-.129.74-.056.075.02.189.026.3.068.215.081.493.18.759.216.354.047.684.013.794-.037l.32-.067c.429-.095 1.394-.666 1.69-1.642.065-.215.165-.457.22-.699.079-.352.18-.665.453-.936.164-.162.384-.203.6-.26a2.564 2.564 0 0 1 1.017-.054l.165.025c-.002-.05-.033-.068-.06-.085l-.151-.074c-.216-.119-.682-.167-1.085-.195-.323-.023-.813.015-1.118.11-.533.162-.938.411-1.201.57-.395.234-.438.28-.547.362l-.016.014c-.02.005-.033.014-.052.002a.074.074 0 0 1-.027-.103l.017-.016c.088-.11.312-.247.7-.486a3.457 3.457 0 0 1 1.206-.495c.312-.066.797-.147 1.118-.109.459.056.865.133 1.065.222l.152.045c.028.002.046.01.059.022l.012.011c.068-.033-.382-.404-1.303-.77-.73-.289-1.594-.552-2.107-.56" fill="#fff"/><path d="M12.232 18.889l.638-.122.335.555.08-.644.633-.148-.588-.275.055-.647-.443.473-.6-.252.314.568-.424.492z" fill="#de2910"/><path d="M12.232 18.889l.638-.122.335.555.08-.644.633-.148-.588-.275.055-.647-.443.473-.6-.252.314.568-.424.492z" fill="none" stroke="#de2910" stroke-width=".013"/><path d="M20.099 20.705c.52.466 1.156.867 1.468 1.002.44.191.896.35 1.17.45.394.144.865.182 1.395.218 1.13.076 2.382-.658 2.878-1.444.408-.647.477-1.348.38-2.024-.09-.622-.44-1.257-.551-1.335-.03-.02-.003.165.009.238.015.08-.002.103.019.255.025.18-.048.447-.15.54-.14.128-.261.141-.353.16-.12.024-.152.042-.356-.027-.173-.059-.445-.155-.638-.378-.051-.059-.14-.129-.208-.227a3.552 3.552 0 0 0-.5-.61c-.262-.243-.552-.404-.67-.425l-.301-.129c-.406-.167-1.526-.25-2.327.38-.175.138-.395.28-.58.447-.266.244-.528.443-.907.508-.227.04-.431-.052-.641-.13a2.552 2.552 0 0 1-.864-.537l-.122-.116c-.027.044-.011.075 0 .104l.083.148c.109.221.463.527.778.781.25.203.676.453.979.55.53.171 1.005.198 1.31.22.46.033.52.021.658.015l.02-.003c.019.008.036.01.045.028a.076.076 0 0 1-.038.101l-.022.003c-.135.04-.398.024-.853-.002a3.524 3.524 0 0 1-1.273-.283c-.292-.125-.737-.336-.98-.55-.343-.31-.632-.605-.744-.793l-.1-.124c-.021-.017-.033-.034-.035-.05l-.003-.017c-.076-.01.082.55.627 1.376.432.655.992 1.365 1.408 1.667" fill="#fff"/><path d="M23.54 19.512l-.593-.265.041-.647-.434.482-.603-.24.324.562-.414.5.635-.135.346.548.068-.645.63-.16z" fill="#de2910"/><path d="M23.54 19.512l-.593-.265.041-.647-.434.482-.603-.24.324.562-.414.5.635-.135.346.548.068-.645.63-.16z" fill="none" stroke="#de2910" stroke-width=".013"/><path d="M18.318 13.577c-.13-.686-.391-1.392-.556-1.687-.234-.419-.5-.823-.654-1.068-.226-.355-.575-.673-.976-1.024-.851-.748-2.291-.928-3.162-.606-.718.266-1.198.781-1.532 1.376-.308.548-.416 1.265-.375 1.395.01.036.1-.13.136-.195.038-.072.065-.08.14-.213.09-.159.31-.326.447-.338.189-.017.294.048.379.09.108.051.146.058.265.237.102.151.26.393.278.687.004.077.032.19.026.307-.012.23-.022.524.025.79.06.352.194.655.274.744l.16.285c.222.38 1.058 1.128 2.078 1.115.224-.004.485.018.733-.002.359-.032.688-.03 1.029.148.204.107.31.304.429.492.214.34.332.731.359.954l.027.164c.048-.017.054-.052.063-.083l.024-.167c.048-.242-.047-.7-.142-1.092-.076-.315-.261-.77-.442-1.033-.318-.459-.677-.768-.907-.97-.343-.308-.4-.334-.512-.412l-.018-.01c-.011-.019-.023-.03-.018-.05a.077.077 0 0 1 .09-.059l.019.012c.133.051.332.223.677.521.284.246.563.514.837 1 .157.277.382.713.442 1.032.086.454.135.863.11 1.082l.003.158c.008.027.006.047-.003.063l-.006.014c.053.055.269-.485.339-1.473.055-.784.043-1.687-.103-2.179" fill="#fff"/><path d="M14.861 12.43l.31.572-.428.489.638-.12.332.558.085-.643.632-.144-.585-.28.058-.646-.446.47-.596-.255z" fill="#de2910"/><path d="M14.861 12.43l.31.572-.428.489.638-.12.332.558.085-.643.632-.144-.585-.28.058-.646-.446.47-.596-.255z" fill="none" stroke="#de2910" stroke-width=".013"/><path d="M21.775 16.352c.592-.374 1.152-.874 1.367-1.136.305-.372.583-.766.754-1.001.25-.34.415-.78.596-1.283.383-1.064.023-2.471-.597-3.164-.51-.57-1.165-.83-1.842-.921-.62-.086-1.328.076-1.433.162-.03.024.158.047.23.056.081.01.1.03.251.052.18.027.415.17.478.293.084.168.062.29.055.383-.008.12 0 .158-.124.334-.104.15-.27.388-.538.51-.07.033-.163.1-.274.137a3.717 3.717 0 0 0-.727.313c-.304.186-.539.42-.592.529l-.207.254c-.272.344-.66 1.396-.274 2.339.084.208.16.458.27.68.16.325.28.632.238 1.014-.025.229-.169.399-.3.58a2.57 2.57 0 0 1-.756.683l-.143.085c.034.039.068.032.1.029l.164-.038c.242-.044.635-.3.965-.533.265-.186.621-.525.798-.79.311-.464.467-.912.572-1.2.16-.433.163-.494.196-.627l.002-.02c.012-.017.02-.033.04-.035.042-.007.081.02.085.062l-.002.022c.002.142-.086.39-.237.82a3.494 3.494 0 0 1-.623 1.145c-.2.248-.524.617-.799.79-.39.246-.755.443-.966.499l-.146.06c-.022.018-.042.024-.06.022l-.015-.001c-.032.069.551.072 1.495-.225.75-.236 1.585-.577 1.99-.893" fill="#fff"/><path d="M21.575 12.715l-.416.497-.61-.22.342.55-.396.514.63-.156.365.537.046-.65.622-.18-.6-.244.017-.648z" fill="#de2910"/><path d="M21.575 12.715l-.416.497-.61-.22.342.55-.396.514.63-.156.365.537.046-.65.622-.18-.6-.244.017-.648z" fill="none" stroke="#de2910" stroke-width=".013"/><path d="M17.156 21.766c.115.362.471.316.346-.122-.125-.437-.43-1.54-.268-2.322.15-.721.364-1.152.617-1.455.253-.304-.017-.492-.304-.132-.313.39-.624 1.104-.688 1.587-.124.943.036 1.625.297 2.444" fill="#de2910"/><path d="M13.608 17.862c-.32.206-.18.538.209.302.39-.236 1.372-.822 2.17-.87.735-.046 1.207.047 1.566.211.36.164.47-.145.047-.329-.46-.198-1.23-.31-1.712-.245-.942.13-1.558.463-2.28.931" fill="#de2910"/><path d="M16.339 13.493c-.288-.247-.567-.02-.231.286.336.31 1.174 1.085 1.447 1.838.249.691.293 1.17.237 1.562-.057.391.27.41.328-.047.062-.496-.047-1.268-.246-1.712-.39-.867-.883-1.365-1.535-1.927M21.17 14.379c.113-.362-.205-.528-.354-.098-.15.43-.528 1.509-1.11 2.059-.534.505-.956.735-1.338.84-.381.104-.268.412.174.282.48-.141 1.144-.55 1.473-.907.64-.703.898-1.354 1.155-2.176" fill="#de2910"/><path d="M21.82 19.594c.38.01.454-.341-.002-.367-.454-.026-1.595-.098-2.28-.508-.633-.38-.969-.723-1.174-1.062-.203-.337-.468-.147-.224.244.266.424.838.952 1.274 1.17.85.426 1.546.499 2.406.523" fill="#de2910"/></g></svg>