<svg xmlns="http://www.w3.org/2000/svg" viewBox="0 0 45 45"><defs><clipPath id="a"><path d="M4 31a4 4 0 0 1-4-4V9a4 4 0 0 1 4-4h28a4 4 0 0 1 4 4v18a4 4 0 0 1-4 4H4z"/></clipPath></defs><g clip-path="url(#a)" transform="matrix(1.25 0 0 -1.25 0 45)"><path d="M36 9a4 4 0 0 0-4-4H4a4 4 0 0 0-4 4v18a4 4 0 0 0 4 4h28a4 4 0 0 0 4-4V9z" fill="#4aa657"/><path d="M32 31H4a4 4 0 0 1-4-4V13h36v14a4 4 0 0 1-4 4" fill="#c8313e"/><path d="M6 3h-7v29h7V3z" fill="#c8313e"/><path d="M1.438 10.531l1.453 2.563 1.672-2.704L6 12.937V6.875l-1.515 2.25-1.578-2.282-1.5 2.407L-1 5.531v8.72l2.438-3.72z" fill="#fff"/><path d="M1.531 4.625l1.36 2.469 1.726-2.625L6 6.938V1L4.594 3.188 2.906.844l-1.5 2.406L-1-.469V8l2.531-3.375z" fill="#fff"/><path d="M1.39 7.922l-.624-1.11.625-1.062.64 1.03-.64 1.142zM4.528 7.922l-.625-1.11.625-1.062.64 1.03-.64 1.142z" fill="#fff"/><path d="M.65 10.922l-.624-1.11L.65 8.75l.64 1.03-.64 1.142zM2.167 10.922l-.625-1.11.625-1.062.64 1.03-.64 1.142zM3.65 10.922l-.624-1.11.625-1.062.64 1.03-.64 1.142zM5.243 10.922l-.625-1.11.625-1.062.64 1.03-.64 1.142z" fill="#c8313e"/><path d="M1.438 32.531l1.453 2.563 1.672-2.704L6 34.937v-6.062l-1.515 2.25-1.578-2.282-1.5 2.407L-1 27.531v8.72l2.438-3.72z" fill="#fff"/><path d="M1.531 26.625l1.36 2.469 1.726-2.625L6 28.938V23l-1.406 2.188-1.688-2.344-1.5 2.406L-1 21.531V30l2.531-3.375z" fill="#fff"/><path d="M1.39 29.922l-.624-1.11.625-1.062.64 1.03-.64 1.142zM4.528 29.922l-.625-1.11.625-1.062.64 1.03-.64 1.142z" fill="#fff"/><path d="M.65 26.984l-.624-1.109.625-1.063.64 1.031-.64 1.141zM2.167 26.984l-.625-1.109.625-1.063.64 1.031-.64 1.141zM3.65 26.984l-.624-1.109.625-1.063.64 1.031-.64 1.141zM5.243 26.984l-.625-1.109.625-1.063.64 1.031-.64 1.141z" fill="#c8313e"/><path d="M.86 21l.608.891-.437.609.328.437.953-1.234-1.406-2.312L-1 22.016l.984.437L.86 21zM.86 14.727l.608-.891-.437-.61.328-.436.953 1.234-1.406 2.312L-1 13.71l.984-.437.875 1.453zM-.442 17.225l.61.891-.438.61.328.436.953-1.234-1.406-2.313-1.906 2.626.984.437.875-1.453zM1.563 18H4.28l.004.969-1.395 2.203-1.314-2.214L1.562 18z" fill="#fff"/><path d="M1.563 18.01H4.28l.004-.97-1.395-2.202-1.314 2.212-.014.96z" fill="#fff"/><path d="M3.578 19.297L2.25 16.875M2.25 19.297l1.328-2.422" fill="none" stroke="#c8313e" stroke-width=".5" stroke-linejoin="round" stroke-miterlimit="10"/><path d="M6 22.377l-.172.077L4.953 21l-.61.89.438.61-.328.437-.953-1.234 1.406-2.313L6 20.898v1.479zM6 17.668l-.313.458.313.435v.34l-.204.27-.953-1.234L6 16.035v1.632zM6 14.894l-1.047 1.442-1.407-2.312.954-1.235.328.438-.438.609.61.89.875-1.452.125.056v1.564z" fill="#fff"/></g></svg>