<svg xmlns="http://www.w3.org/2000/svg" viewBox="0 0 45 45"><defs><clipPath id="a"><path d="M0 36h36V0H0v36z"/></clipPath></defs><g clip-path="url(#a)" transform="matrix(1.25 0 0 -1.25 0 45)"><path d="M36 9a4 4 0 0 0-4-4H4a4 4 0 0 0-4 4v18a4 4 0 0 0 4 4h28a4 4 0 0 0 4-4V9z" fill="#007934"/><path d="M36 13H0v10h36V13z" fill="#ffe000"/><path d="M32 31H4a4 4 0 0 1-4-4v-4h36v4a4 4 0 0 1-4 4" fill="#d52b1e"/><path d="M12.894 19.665c.041-.062.381-.55.381-.55h.489l-.199.275-.671.275zM13.627 20.153l.381-.55h.49l-.2.275-.67.275zM14.31 20.767c.018-.07.184-.643.184-.643l.462-.156-.1.324-.547.475z" fill="#fff"/><path d="M13.953 14.502a.08.08 0 0 0-.11.036.081.081 0 0 0 .036.11l2.467 1.259a.08.08 0 0 0 .109-.034.083.083 0 0 0-.035-.11l-2.467-1.261zM14.447 14.046a.082.082 0 0 0-.09.138l2.309 1.527a.081.081 0 0 0 .09-.135l-2.31-1.53z" fill="#a05a2d"/><path d="M14.947 13.623a.083.083 0 0 0-.115-.008.083.083 0 0 0-.008.116l1.83 2.079c.03.034.082.036.116.006a.08.08 0 0 0 .007-.114l-1.83-2.079z" fill="#a05a2d"/><path d="M17.348 15.285l-.57-1.18-.102.103-.222-.307-.603.327.748 1.465.75-.408z" fill="#a05a2d"/><path d="M17.593 13.475L18 15.409l-.042 1.69-2.931 2.8-.204-.641-.407.326-.122-.672s-.51.366-.53.305c-.02-.061-.142-1.548-.183-2.383-.04-.834-.075-2.076.835-2.24 1.588-.285 2.77.897 2.77.897s.387-.368.407-.428c.02-.061-.143-.774-.204-1.06-.061-.284.204-.528.204-.528" fill="#d52b1e"/><path d="M15.555 19.356l-.162-.465-.264.142s-.675-3.4.426-3.665c1.1-.265 1.224.183 1.224.183l-.53.712-.398-.182s-.192.526-.192 1.24c0 .636.102 1.264.102 1.264l.2-.142.043.468-.45.445z" fill="#ffe000"/><path d="M16.676 18.34l-.672.572-.042-.468-.264.183s-.145-.49-.144-1.121c.002-.631.083-1.242.083-1.242s.47-.162.713 0c.244.163.326 2.077.326 2.077" fill="#007934"/><path d="M16.454 16.427c-.529-.227-1.61-.635-1.326-1.142.286-.508 1.12-.304 1.65.267.53.57-.324.875-.324.875" fill="#e8a30f"/><path d="M23.105 19.665c-.04-.062-.38-.55-.38-.55h-.49l.2.275.67.275zM22.372 20.153c-.04-.06-.38-.55-.38-.55h-.489l.2.275.67.275zM21.691 20.767l-.185-.643-.463-.156.101.324.547.475z" fill="#fff"/><path d="M22.047 14.502a.08.08 0 0 1 .109.036c.02.04.005.09-.035.11l-2.466 1.259a.081.081 0 1 1-.074-.144l2.466-1.261zM21.553 14.046a.083.083 0 0 1 .113.024.082.082 0 0 1-.023.114l-2.31 1.527a.08.08 0 0 1-.111-.022.082.082 0 0 1 .022-.113l2.309-1.53z" fill="#a05a2d"/><path d="M21.054 13.623a.082.082 0 0 1 .114-.008.083.083 0 0 1 .008.116l-1.831 2.079c-.028.034-.08.036-.114.006a.08.08 0 0 1-.008-.114l1.83-2.079z" fill="#a05a2d"/><path d="M18.652 15.285l.57-1.18.102.103.222-.307.603.327-.748 1.465-.75-.408z" fill="#a05a2d"/><path d="M18.407 13.475L18 15.409l.042 1.69 2.931 2.8.205-.641.407.326.122-.672s.508.366.528.305c.022-.061.144-1.548.184-2.383.041-.834.075-2.076-.834-2.24-1.589-.285-2.77.897-2.77.897s-.388-.368-.408-.428c-.02-.061.143-.774.204-1.06.061-.284-.204-.528-.204-.528" fill="#d52b1e"/><path d="M20.445 19.356l.161-.465.265.142s.676-3.4-.426-3.665c-1.102-.265-1.224.183-1.224.183l.53.712.398-.182s.192.526.192 1.24c0 .636-.1 1.264-.1 1.264l-.203-.142-.042.468.45.445z" fill="#ffe000"/><path d="M19.324 18.34l.672.572.042-.468.263.183s.146-.49.144-1.121c-.002-.631-.083-1.242-.083-1.242s-.469-.162-.713 0c-.245.163-.325 2.077-.325 2.077" fill="#007934"/><path d="M19.546 16.427c.529-.227 1.61-.635 1.325-1.142-.285-.508-1.12-.304-1.65.267-.53.57.325.875.325.875" fill="#e8a30f"/><path d="M16.33 20.175c.172-.202.164-.489-.017-.642-.18-.152-.464-.112-.635.09-.17.201-.162.488.017.641.18.153.466.113.636-.089" fill="#d52b1e"/><path d="M19.75 20.175c-.17-.202-.162-.489.019-.642.18-.152.463-.112.635.09.171.201.163.488-.017.641-.181.153-.465.113-.637-.089" fill="#e7e7e7"/><path d="M18 19.034v.733s-1.202.57-1.283 1.283c-.081.713.326 1.364.183 1.466-.142.102-.896-.55-.936-1.242-.041-.692.66-1.735 1.119-1.935.461-.2.917-.305.917-.305M18 19.034v.733s1.201.57 1.283 1.283c.081.713-.326 1.364-.183 1.466.142.102.896-.55.936-1.242.042-.692-.659-1.735-1.119-1.935-.461-.2-.917-.305-.917-.305" fill="#007934"/><path d="M18 19.787s.122.428.917.672c.794.245 1.547.428 1.832.448.286.021-1.13.57-1.466.612-.336.04-.753-.042-.815-.286-.061-.244-.162-.163-.468-.204-.306-.04-.509.245-.652.448-.142.204-.683.102-.947.081-.264-.019-1.273-.65-1.273-.65s1.752-.286 2.119-.469c.366-.184.02-.836-.082-1.019-.102-.183.606.056.835.367" fill="#fff"/><path d="M18 19.787s.122.428.917.672c.794.245 1.547.428 1.832.448.286.021-1.038.428-1.375.47-.336.04-.6.04-.661-.205-.061-.244-.407-.102-.713-.143-.306-.04-.652.061-.794.265-.143.204-.387.122-.652.102-.264-.02-1.426-.489-1.426-.489s1.752-.285 2.119-.468c.366-.184.02-.836-.082-1.019-.102-.183.606.056.835.367"/><path d="M15.821 17.344c0 1.315.976 2.382 2.18 2.382 1.203 0 2.177-1.067 2.177-2.382 0-1.316-.974-2.383-2.178-2.383-1.203 0-2.179 1.067-2.179 2.383" fill="#00a6de"/><path d="M16.401 17.344c0 1.034.716 1.873 1.6 1.873.881 0 1.597-.84 1.597-1.873 0-1.036-.716-1.874-1.598-1.874-.883 0-1.599.838-1.599 1.874" fill="#e8a30f"/><path d="M17.308 18.158a.692.692 0 1 0 1.384 0 .692.692 0 0 0-1.384 0" fill="#d52b1e"/><path d="M18 15.47c.849 0 1.544.775 1.596 1.755-.522.194-1.382.934-1.596.934-.224 0-.509-.245-.876-.571-.188-.168-.479-.303-.718-.394.066-.964.754-1.724 1.594-1.724" fill="#007934"/><path d="M18.204 20.867c0-.102-.21-.184-.468-.184-.26 0-.47.082-.47.184 0 .1.21.183.47.183.258 0 .468-.082.468-.183" fill="#e8a30f"/><path d="M17.186 16.427h.489l.142.407.183-.223-.203-.591h-.448l-.163.407z" fill="#fff"/><path d="M18.427 16.081c0-.19-.095-.347-.213-.347s-.214.156-.214.347c0 .191.096.346.214.346s.213-.155.213-.346M18.733 15.734a.041.041 0 0 0-.04-.04.04.04 0 0 0-.04.04v1.06c0 .021.017.04.04.04a.042.042 0 0 0 .04-.04v-1.06z" fill="#b37d0a"/><path d="M19.038 16.895c0-.18-.159-.326-.356-.326-.197 0-.356.146-.356.326 0 .18.16.326.356.326.197 0 .356-.146.356-.326" fill="#32b266"/></g></svg>