<svg xmlns="http://www.w3.org/2000/svg" viewBox="0 0 45 45"><defs><clipPath id="a"><path d="M4 31a4 4 0 0 1-4-4V9a4 4 0 0 1 4-4h28a4 4 0 0 1 4 4v18a4 4 0 0 1-4 4H4z"/></clipPath></defs><g clip-path="url(#a)" transform="matrix(1.25 0 0 -1.25 0 45)"><path d="M0 31h36V5H0v26z" fill="#ce1126"/><path d="M3.5 27.5h29v-19h-29v19z" fill="#007a5e"/><path d="M3.5 27.5h29l-29-19h29l-29 19z" fill="#fcd116"/><path d="M21.5 18a3.5 3.5 0 1 0-7 0 3.5 3.5 0 0 0 7 0" fill="#ce1126"/><path d="M18 21.202l.719-2.212h2.326l-1.882-1.367.719-2.213L18 16.778l-1.882-1.368.719 2.213-1.882 1.367h2.326L18 21.202zM18 30.818l.386-1.188h1.249l-1.01-.734.386-1.188-1.011.734-1.011-.734.386 1.188-1.01.734h1.249L18 30.818zM26.02 30.818l.386-1.188h1.25l-1.01-.734.385-1.188-1.01.734-1.012-.734.386 1.188-1.01.734h1.25l.385 1.188zM9.98 30.818l.386-1.188h1.249l-1.01-.734.386-1.188-1.011.734-1.011-.734.386 1.188-1.01.734h1.249l.386 1.188zM18 8.318l.386-1.188h1.249l-1.01-.734.386-1.188L18 5.942l-1.011-.734.386 1.188-1.01.734h1.249L18 8.318zM26.02 8.318l.386-1.188h1.25l-1.01-.734.385-1.188-1.01.734-1.012-.734.386 1.188-1.01.734h1.25l.385 1.188zM9.98 8.318l.386-1.188h1.249l-1.01-.734.386-1.188-1.011.734-1.011-.734.386 1.188-1.01.734h1.249l.386 1.188z" fill="#fcd116"/><path d="M6.118 16.933c.304-.315.645-.579.962-.712.005.35-.057.748-.164 1.148-.268.251-.571.464-.868.577a2.812 2.812 0 0 1 .07-1.013" fill="#ce1126"/><path d="M7.643 16.437c.803 2.916-2.06 2.738-2.803 3.67.512-1.068-1.33-3.617 1.739-4.214a2.99 2.99 0 0 0-.461 1.04 2.813 2.813 0 0 0-.07 1.013c.297-.113.6-.326.869-.577.313-.293.578-.637.726-.932" fill="#fcd116"/></g></svg>