<svg xmlns="http://www.w3.org/2000/svg" viewBox="0 0 45 45"><defs><clipPath id="a"><path d="M0 36h36V0H0v36z"/></clipPath><clipPath id="b"><path d="M15 21h6v-6h-6v6z"/></clipPath></defs><g clip-path="url(#a)" transform="matrix(1.25 0 0 -1.25 0 45)"><path d="M0 9a4 4 0 0 1 4-4h28a4 4 0 0 1 4 4v4H0V9z" fill="#138808"/><path d="M0 13h36v10H0V13z" fill="#eee"/><path d="M36 23v4a4 4 0 0 1-4 4H4a4 4 0 0 1-4-4v-4h36z" fill="#f93"/><path d="M22 18a4 4 0 1 1-8.001 0A4 4 0 0 1 22 18" fill="navy"/><path d="M21 18a3.002 3.002 0 1 1-6.003-.001A3.002 3.002 0 0 1 21 18" fill="#eee"/><g clip-path="url(#b)" opacity=".6"><path d="M18 21l.146-2.264 1.002 2.035-.731-2.147 1.704 1.498-1.497-1.705 2.147.731-2.035-1.002L21 18l-2.264-.146 2.035-1.001-2.147.73 1.497-1.704-1.704 1.497.731-2.147-1.002 2.035L18 15l-.146 2.264-1.002-2.035.731 2.147-1.705-1.497 1.498 1.704-2.147-.73 2.035 1.001L15 18l2.264.146-2.035 1.002 2.147-.731-1.498 1.705 1.705-1.498-.731 2.147 1.002-2.035L18 21z" fill="navy"/></g><g><path d="M17 18a1 1 0 1 0 2 0 1 1 0 0 0-2 0" fill="navy"/></g></g></svg>