<svg xmlns="http://www.w3.org/2000/svg" viewBox="0 0 45 45"><defs><clipPath id="a"><path d="M0 36h36V0H0v36z"/></clipPath><clipPath id="b"><path d="M4 31a4 4 0 0 1-4-4v-9h19v13H4z"/></clipPath><clipPath id="c"><path d="M0 36h36V0H0v36z"/></clipPath></defs><g clip-path="url(#a)" transform="matrix(1.25 0 0 -1.25 0 45)"><path d="M36 9a4 4 0 0 0-4-4H4a4 4 0 0 0-4 4v18a4 4 0 0 0 4 4h28a4 4 0 0 0 4-4V9z" fill="#00247d"/><path d="M19 31H4a4 4 0 0 1-4-4v-9h19v13z" fill="#00247d"/><path d="M19 18v2.029L11.9 25H6.671l9.997-7H19z" fill="#eee"/><path d="M19 19.418L11.029 25H9.286L19 18.198v1.22z" fill="#cf1b2b"/><path d="M8.1 25L0 19.234V18h3.332l9.998 7H8.1z" fill="#eee"/><path d="M10.714 25l-9.98-7H2.46l9.998 7h-1.744z" fill="#cf1b2b"/><path d="M16.669 31l-9.997-7H11.9L19 28.971V31h-2.331z" fill="#eee"/><path d="M17.54 31l-9.997-7h1.743L19 30.802V31h-1.46z" fill="#cf1b2b"/></g><g clip-path="url(#b)" transform="matrix(1.25 0 0 -1.25 0 45)"><path d="M10 24h3.328l-9.996 7H1l-.625-1.594L10 22.669V24z" fill="#eee"/><path d="M10 24h.714L1 30.802l-.5-.865 9.5-6.659V24z" fill="#cf1b2b"/></g><g clip-path="url(#c)" transform="matrix(1.25 0 0 -1.25 0 45)"><path d="M19 27h-7v4H7v-4H0v-5h7v-4h5v4h7v5z" fill="#eee"/><path d="M11 18H8v13h3V18z" fill="#cf1b2b"/><path d="M19 23H0v3h19v-3z" fill="#cf1b2b"/><path d="M29.16 19.791l-1.53-3.927-1.532 3.927 1.531 3.927 1.53-3.927z" fill="#288548"/><path d="M24.352 18.426s.273-.591.91-.591 1.001.455 1.001.455l.637-.82s-.408-.273-.408-.591c0 0-.274.274-.182.5 0 0-.183-.182-.318-.226 0 0-.046.272.045.409 0 0-.32-.182-.728-.182-.41 0-.82.273-.91.5-.091.228-.046.546-.046.546M26.9 19.018a.272.272 0 0 0-.273-.272H26.4a.273.273 0 0 0 0 .545h.227a.273.273 0 0 0 .273-.273M28.311 19.382a.273.273 0 0 0-.273-.273h-.228a.272.272 0 0 0 0 .545h.228a.272.272 0 0 0 .273-.272" fill="#fff"/><path d="M27.076 18.811a.274.274 0 0 0-.377.085l-.097.153a.273.273 0 0 0 .084.377l.04.025a.271.271 0 0 0 .375-.085l.098-.154a.273.273 0 0 0-.084-.377l-.039-.024zM28.623 18.994a.272.272 0 0 0-.376.084l-.098.154a.272.272 0 0 0 .084.376l.04.025a.272.272 0 0 0 .376-.084l.097-.155a.27.27 0 0 0-.084-.375l-.039-.025z" fill="#6488bd"/><path d="M27.622 18.902a.272.272 0 0 0-.376.085l-.098.153a.273.273 0 0 0 .084.377l.04.025a.273.273 0 0 0 .376-.085l.097-.154a.272.272 0 0 0-.084-.376l-.039-.025zM28.959 18.769a.274.274 0 0 0-.264.282l.006.182c.005.15.132.268.282.263l.045-.002a.27.27 0 0 0 .264-.281l-.006-.182a.273.273 0 0 0-.281-.264l-.046.002z" fill="#297f47"/><path d="M27.629 19.291c.59.027 1.456-1.684 1.502-1.911.045-.228-.273-.864-.501-1.001-.228-.137-1.274-.274-1.547-.046-.273.228-.318.819-.364 1.001-.045.183-.501.819-.501.819l-.5.091.18.182.593-.045.046.181h-.273s.41.683 1.365.729" fill="#689f9e"/><path d="M27.447 16.47c.228.273 1.046.955 1.32.818.273-.135.227-.41-.047-.681-.272-.274-1.273-.137-1.273-.137" fill="#481918"/><path d="M27.629 16.56h-2.73v-2.41c0-1.64.615-2.503 1.115-2.958.5-.455 1.615-.864 1.615-.864s1.114.409 1.615.864c.5.455 1.115 1.319 1.115 2.958v2.41h-2.73z" fill="#fff"/><path d="M29.63 11.92c-.363 0-.636-.41-1-.41s-.637.364-.955.364c-.32 0-.592-.364-.956-.364-.363 0-.637.41-1.001.41a.636.636 0 0 1-.252-.065c.175-.285.369-.5.548-.664.5-.455 1.615-.864 1.615-.864s1.114.409 1.615.864c.186.169.386.394.566.694a.567.567 0 0 1-.18.035M29.63 13.876c-.363 0-.636-.409-1-.409s-.637.364-.955.364c-.32 0-.592-.364-.956-.364-.363 0-.637.409-1.001.409-.251 0-.567-.26-.783-.376.032-.29.085-.55.153-.783.176.125.357.249.585.249.454 0 .773-.409 1.092-.409.318 0 .59.318.91.318.318 0 .59-.318.909-.318.318 0 .638.409 1.093.409.194 0 .355-.091.508-.195.065.232.115.491.144.779-.21.128-.478.326-.698.326M29.63 15.833c-.363 0-.636-.41-1-.41s-.637.364-.955.364c-.32 0-.592-.364-.956-.364-.363 0-.637.41-1.001.41-.265 0-.603-.29-.82-.395v-.893c.242.147.466.378.775.378.454 0 .773-.41 1.092-.41.318 0 .59.319.91.319.318 0 .59-.319.909-.319.318 0 .638.41 1.093.41.268 0 .474-.176.683-.319v.884c-.213.126-.5.345-.73.345" fill="#3ab1d6"/><path d="M25.13 12.585c.135-.409.316-.73.508-.982l1.99 2.228 1.992-2.228c.192.252.373.573.508.982l-2.5 2.701-2.498-2.701z" fill="#288548"/><path d="M23.534 12.102c.146.009.466.012.591-.045.38-.174.638-.592.638-.592s.545-.41.591-.682c0 0 .41-.183.41-.365 0-.181-.592-.363-.774-.318-.183.046-.683.182-.865.09-.182-.09-.728-.227-.955-.181-.228.046-.5 0-.683 0-.182 0-.409.182-.682.273-.273.09-.91-.091-1 .182-.092.273.635.546.91.546.272 0 1.046 1.047 1.82 1.092" fill="#74948f"/><path d="M23.033 11.874s.227-.045.273-.045c.045 0 .32.091.41.045.09-.045.046-.182.181-.227.137-.046.183-.091.092-.228l-.183-.272s-.5-.091-.682-.183c-.182-.091-.546-.228-.136-.273.41-.045 1.001-.227.91-.273-.092-.045-.638 0-.819 0-.183 0-.546-.091-.638-.091-.09 0-.363-.046-.226-.137.135-.09-.183.046-.365.091-.18.046-.59.183-.318.274.272.091.5.045.637.045.136 0 .318.182.181.227-.135.046.137.364.41.41.273.045.728.137.364.228s-.409.227-.09.409" fill="#cfdcd9"/><path d="M23.352 10.964c.183.046.638-.045.592-.137-.046-.091-.091-.181-.228-.135-.137.044-.364.272-.364.272" fill="#cfdcd9"/><path d="M25.355 10.782c-.046.273-.592.683-.592.683s-.242.39-.601.573c-.135-.05-.19-.163-.037-.255.228-.137.228-.228.137-.273a.543.543 0 0 1-.227-.228c-.045-.09.136.046.364 0 .227-.045.227-.045.409-.09.183-.046.364-.228.274-.273-.091-.046.09-.092.135-.228.046-.136-.091-.092-.272-.092-.182 0-.683 0-.73-.044-.044-.046.867-.046.867-.137 0-.09-.501 0-.637-.045-.137-.046-.592-.137-.774-.092-.182.046-.546.092-.637.046-.091-.046-.32-.09-.045-.137a3.728 3.728 0 0 1 1 0c.273.046.456.228.728.137.14-.047.149-.13.16-.199.044-.01.083-.02.114-.029.107-.027.359.027.547.112.072.045.14.094.203.142a.122.122 0 0 1 .023.065c0 .181-.41.364-.41.364" fill="#3c4544"/><path d="M23.762 12.283s-.091.41 0 .455c.09.046.228-.137.228-.137s0 .501.135.456c.137-.045.183-.227.183-.227s.137.363.272.272c.137-.09 0-.364 0-.364s.319-.137.228-.272c-.091-.137-.546-.137-.637-.183-.091-.045-.046-.182.045-.136.092.045.547.228.5.045-.044-.182-.136-.227-.317-.227-.183 0-.501.091-.501.091l-.41-.273-.045.046.319.454zM22.988 12.738c.045-.182.091-.228.272-.228.182 0 .32-.09.228-.18-.09-.092-.318-.092-.318-.092l.136-.364-.046-.045-.18.363-.184-.227s-.272.182-.18.273c.09.091.272.091.18.182-.09.09-.226.364.046.318.274-.045-.182-.137-.182-.137M20.258 10.827c.046.092.318.183.318.183s.046.364.183.364c.136 0 .272-.274.272-.274s.046.182.137.137c.09-.046.319-.273.273-.364-.045-.09-.091-.409-.273-.455-.181-.045-.364.273-.364.273s-.091-.046-.273-.046c-.182 0-.273.182-.273.182M24.398 11.556s.137.409.273.364c.136-.046.136-.227.136-.227s.41.045.592-.092c.182-.136.182-.41-.045-.5-.228-.091-.547.09-.592.137-.046.045-.046-.501-.227-.501-.183 0-.274.227-.228.364.045.137 0 .273 0 .273s-.364 0-.455-.182c0 0 .091.136.273.227.182.09.273.137.273.137" fill="#288548"/><path d="M24.17 18.107s-.136.273-.591.091c-.455-.182-.546-.5-.591-.728-.046-.227.09-.455-.227-.682-.32-.228-.546-1.638-.183-1.593.364.046.455.091.638-.045.182-.137.59-.183.864.136 0 0 .273-.409.273-.637 0-.228-.091-.864.182-.955 0 0 .409.546.409 1.092s-.136 1.137-.591 1.41c0 0 .182.137.319.32.136.181.227.135.5.135h.728s-.182.41-.41.501c-.227.091-.636.318-1.046 0-.41-.318-.682-.546-.682-.546l-.046.318s.09.182.273.364c.182.182.182.455.182.591v.228z" fill="#d1bea7"/><path d="M24.944 17.334c.773 0 1.001-.728 1.001-.728h-.819s-.136.045-.228.045c-.09 0-.409-.227-.546-.5-.137-.273-.818.045-.68.273.134.227.453.91 1.272.91" fill="#937a61"/><path d="M23.352 16.47c.019.076.156.09.318.058.177-.035.342-.187.5-.241.41-.135.866-.727.866-1.273 0-.546-.41-1.183-.456-1.32-.044-.136-.135 0-.181.137-.046.136-.046.455-.046.728 0 .273-.137.682-.363.819-.228.137-.82.365-.638 1.092M22.67 12.738c0-.11.146-.504.136-.909 0-.03-.044-.243-.045-.274a1.277 1.277 0 0 0-.228-.728s-.227.092-.455.41c-.227.318-.273.637-.137.91.137.273.729.591.729.591" fill="#af987e"/><path d="M22.396 13.24c.045 0 .16-.952.091-1.32-.136-.729-.682-1.547-1.046-1.456-.363.09-.136.318-.045.5.09.182.227.591.136.91-.092.318.864 1.365.864 1.365" fill="#d1bea7"/><path d="M23.124 15.332c.137-.272.455-.5.819-.091 0 0 .137-.682-.136-1.138-.273-.455-1.32-1.637-1.32-1.637l-.136.773.773 2.093z" fill="#ba8f69"/><path d="M22.441 16.879c.32.137.774-.091.82-.363.045-.274.09-.91.045-1.184-.046-.272 0-.727-.09-.955-.092-.228-.456-.455-.502-.774-.044-.32-.318-.591-.727-1.046-.41-.455-1.047-1.183-1.229-1.092-.182.09-.41 1.728.136 3.14a6.278 6.278 0 0 0 1.547 2.274" fill="#bb6c3f"/><path d="M23.625 18.063c.182.09.318.045.182-.092-.136-.135-.365 0-.182.092" fill="#020202"/><path d="M31.724 12.102c-.146.009-.466.012-.591-.045-.38-.174-.638-.592-.638-.592s-.545-.41-.591-.682c0 0-.41-.183-.41-.365 0-.181.592-.363.774-.318.183.046.683.182.865.09.182-.09.728-.227.955-.181.228.046.5 0 .683 0 .182 0 .409.182.682.273.273.09.91-.091 1 .182.092.273-.635.546-.91.546-.272 0-1.046 1.047-1.82 1.092" fill="#74948f"/><path d="M32.225 11.874s-.228-.045-.273-.045c-.045 0-.32.091-.41.045-.09-.045-.046-.182-.181-.227-.137-.046-.183-.091-.092-.228l.183-.272s.5-.091.682-.183c.182-.091.546-.228.136-.273-.41-.045-1.001-.227-.91-.273.092-.045.637 0 .819 0 .183 0 .546-.091.638-.091.09 0 .363-.046.226-.137-.135-.09.183.046.365.091.18.046.59.183.318.274-.273.091-.5.045-.637.045s-.318.182-.181.227c.135.046-.137.364-.411.41-.272.045-.727.137-.363.228.363.091.409.227.09.409" fill="#cfdcd9"/><path d="M31.906 10.964c-.183.046-.638-.045-.592-.137.046-.091.091-.181.228-.135.136.044.364.272.364.272" fill="#cfdcd9"/><path d="M29.903 10.782c.046.273.592.683.592.683s.242.39.601.573c.135-.05.19-.163.036-.255-.227-.137-.227-.228-.136-.273a.543.543 0 0 0 .227-.228c.045-.09-.136.046-.364 0-.227-.045-.227-.045-.409-.09-.183-.046-.364-.228-.274-.273.091-.046-.09-.092-.135-.228-.046-.136.091-.092.272-.092.182 0 .683 0 .73-.044.044-.046-.867-.046-.867-.137 0-.09.501 0 .637-.045.137-.046.592-.137.774-.092.182.046.546.092.637.046.091-.046.32-.09.045-.137a3.728 3.728 0 0 0-1 0c-.273.046-.456.228-.728.137-.14-.047-.149-.13-.16-.199a15.39 15.39 0 0 1-.114-.029c-.107-.027-.359.027-.547.112a2.498 2.498 0 0 0-.203.142.122.122 0 0 0-.023.065c0 .181.41.364.41.364" fill="#3c4544"/><path d="M31.496 12.283s.091.41 0 .455c-.09.046-.227-.137-.227-.137s0 .501-.136.456c-.137-.045-.183-.227-.183-.227s-.137.363-.272.272c-.137-.09 0-.364 0-.364s-.319-.137-.228-.272c.091-.137.546-.137.637-.183.091-.045.046-.182-.045-.136-.092.045-.547.228-.5.045.044-.182.136-.227.317-.227.183 0 .501.091.501.091l.41-.273.045.046-.319.454zM32.27 12.738c-.046-.182-.092-.228-.273-.228-.181 0-.318-.09-.227-.18.09-.092.318-.092.318-.092l-.137-.364.046-.045.181.363.184-.227s.271.182.18.273c-.09.091-.273.091-.18.182.09.09.225.364-.047.318-.272-.045.183-.137.183-.137M35 10.827c-.046.092-.318.183-.318.183s-.046.364-.183.364c-.136 0-.272-.274-.272-.274s-.046.182-.137.137c-.091-.046-.319-.273-.273-.364.045-.09.091-.409.273-.455.181-.045.364.273.364.273s.091-.046.273-.046c.182 0 .273.182.273.182M30.86 11.556s-.138.409-.274.364c-.136-.046-.136-.227-.136-.227s-.409.045-.592-.092c-.182-.136-.182-.41.045-.5.228-.091.547.09.592.137.046.045.046-.501.227-.501.183 0 .274.227.228.364a.485.485 0 0 0 0 .273s.364 0 .455-.182c0 0-.09.136-.273.227-.182.09-.273.137-.273.137" fill="#288548"/><path d="M31.087 18.107s.137.273.592.091c.455-.182.546-.5.59-.728.047-.227-.09-.455.228-.682.32-.228.546-1.638.183-1.593-.364.046-.455.091-.637-.045-.183-.137-.592-.183-.865.136 0 0-.273-.409-.273-.637 0-.228.09-.864-.182-.955 0 0-.41.546-.41 1.092s.137 1.137.592 1.41c0 0-.182.137-.32.32-.135.181-.225.135-.5.135h-.727s.182.41.41.501c.227.091.636.318 1.046 0 .41-.318.682-.546.682-.546l.046.318s-.091.182-.273.364c-.182.182-.182.455-.182.591v.228z" fill="#d1bea7"/><path d="M30.314 17.334c-.773 0-1.001-.728-1.001-.728h.819s.135.045.227.045c.091 0 .41-.227.546-.5.137-.273.818.045.681.273-.134.227-.453.91-1.272.91" fill="#937a61"/><path d="M31.906 16.47c-.02.076-.156.09-.318.058-.177-.035-.342-.187-.5-.241-.41-.135-.866-.727-.866-1.273 0-.546.41-1.183.455-1.32.045-.136.136 0 .182.137.046.136.046.455.046.728 0 .273.137.682.363.819.228.137.82.365.638 1.092M32.588 12.738c0-.11-.146-.504-.136-.909 0-.03.044-.243.045-.274.014-.394.142-.598.228-.728 0 0 .227.092.455.41.227.318.273.637.137.91-.137.273-.73.591-.73.591" fill="#af987e"/><path d="M32.861 13.24c-.045 0-.16-.952-.09-1.32.136-.729.682-1.547 1.046-1.456.363.09.136.318.045.5-.09.182-.228.591-.137.91.092.318-.864 1.365-.864 1.365" fill="#d1bea7"/><path d="M32.134 15.332c-.137-.272-.455-.5-.82-.091 0 0-.136-.682.137-1.138.273-.455 1.32-1.637 1.32-1.637l.136.773-.773 2.093z" fill="#ba8f69"/><path d="M32.816 16.879c-.319.137-.773-.091-.819-.363-.046-.274-.09-.91-.046-1.184.046-.272 0-.727.092-.955.09-.228.454-.455.5-.774.044-.32.318-.591.727-1.046.41-.455 1.047-1.183 1.23-1.092.181.09.41 1.728-.137 3.14a6.278 6.278 0 0 1-1.547 2.274" fill="#bb6c3f"/><path d="M31.633 18.063c-.182.09-.318.045-.182-.092.136-.135.365 0 .182.092" fill="#020202"/><path d="M23.216 21.247s.182-.455.728-.409c.545.045.955.181 1.09-.319 0 0-.317-.045-.454-.273-.135-.228.228-.819.228-.819s-.363 0-.5.227c0 0-.046-.409-.32-.682-.115-.116-.41-.136-.41-.136s.366.727.456.91c.09.182.182.41-.227.136-.41-.273-.955-.5-1.274-.136 0 0 1.32.591 1.592.728-.454 0-.5.045-.91 0-.243-.028-.5-.137-.5-.137s-.045.364.455.364c.318 0-.046.091-.091.273-.046.182.137.273.137.273M30.177 17.517s1 .136.865 1.046c-.136.91-.82 1.547-.682 2.093 0 0-.326-.09-.411-.364-.181-.591.397-1.072.5-1.228.183-.274.274-.592.274-.592s-.5.409-.774 0c0 0 .319.046.455-.091.137-.137.228-.318.09-.501a3.848 3.848 0 0 0-.317-.363M33.043 20.61s.455-.183.455-.455c0-.274-.227-.364-.591-.364 0 0 .182.136.228.318.045.183-.092.501-.092.501" fill="#fff"/><path d="M26.036 20.929s.683-.455.864-.501c.183-.045.91 0 .91 0l.137.319s.364.09.592.09c.227 0 .501-.045.501-.045l.091-.272-.365-.82h-1.228c-.182 0-.592.137-.683.319-.09.183-.455.409-.546.546-.09.137-.59.5-.273.364" fill="#905f41"/><path d="M27.901 20.438c0-.056-.04-.101-.09-.101-.05 0-.092.045-.092.1v1.802c0 .055.041.1.091.1.051 0 .091-.044.091-.1v-1.802zM27.083 20.383a.09.09 0 0 0-.091-.091.09.09 0 0 0-.092.09v1.639a.092.092 0 0 0 .183 0v-1.638zM28.402 20.383a.09.09 0 0 0-.09-.091.09.09 0 0 0-.092.09v1.639c0 .05.041.09.091.09.05 0 .091-.04.091-.09v-1.638z" fill="#905f41"/><path d="M27.265 21.565c0-.05-.163-.09-.364-.09-.2 0-.364.04-.364.09 0 .051.164.091.364.091.2 0 .364-.04.364-.09M27.447 21.11c0-.05-.214-.09-.479-.09-.263 0-.477.04-.477.09 0 .051.214.091.477.091.265 0 .48-.04.48-.09M28.13 21.725c0-.037-.163-.068-.364-.068-.201 0-.365.03-.365.068 0 .038.164.068.365.068.2 0 .364-.03.364-.068" fill="#fff"/><path d="M28.676 21.748c0-.025-.133-.046-.296-.046-.164 0-.296.021-.296.046 0 .025.132.045.296.045.163 0 .296-.02.296-.045M28.038 21.293c0-.051-.132-.092-.296-.092-.163 0-.295.041-.295.092 0 .05.132.091.295.091.164 0 .296-.041.296-.091M28.676 21.293c0-.04-.133-.071-.296-.071-.164 0-.296.031-.296.071 0 .039.132.07.296.07.163 0 .296-.031.296-.07" fill="#fff"/><path d="M26.127 19.564s.364.046.183.364c0 0 .181.09.409-.137.227-.227.637 0 .364.274 0 0 .228.137.409-.046.183-.182.501-.228.364.137 0 0 .319.09.456-.183.136-.272.636-.226.409.137 0 0 .227.046.319-.137.091-.182.182-.226.182-.226s.181.226.363 0c.183-.228.092-.456-.227-.501-.318-.045-.456.318-.456.318s-.135-.182-.363-.137c-.227.046-.364.228-.364.228s-.266-.136-.409-.136c-.228 0-.399.22-.455.136a.514.514 0 0 0-.637-.136s-.228-.364-.501-.364c-.274 0-.546.164-.546.409 0 .227.137.318.272.273.137-.046.228-.273.228-.273" fill="#8fd2e2"/><path d="M25.49 18.608s-.5-.137-.546-.41c-.046-.273-.09-.319-.09-.319s-.228.091-.365.274c-.137.182-.182.592-.137.728.046.136.228.545.41.773.182.227.273.683.228.865-.046.182-.273.363-.273.363s.591 0 .682-.363c.091-.364-.09-.638-.09-.638s.09-.044.227.137c0 0 .045-.455-.228-.546 0 0-.182-.272-.273-.5-.09-.227-.248-.5-.137-.41.228.183.592.046.592.046M22.487 20.474s-.182-.228-.182-.364c0-.137.182-.455.455-.546 0 0-.819.318-.819.592 0 .272.364.318.546.318M29.903 20.201s.092.682.592.637c.501-.046 1.228-.183 1.365-.046.137.136.091.41.091.41s.273-.046.318-.183c.046-.136-.136-.318-.136-.318s.228.046.364-.09c.136-.138.273-.319.273-.319s-.455.136-.682.136c-.228 0-.865.045-.865.045s.637-.364 1.001-.5c.364-.136.637-.273 1.092-.136 0 0-.455-.274-.592-.365-.136-.09-.363-.09-.636.046s-.728.454-.728.454 0-.318.136-.636c.136-.319.364-.546.364-.546s-.409.091-.592.273c-.18.182-.18.591-.18.591s-.229-.318-.547-.227c0 0 .136.091.227.32.091.225.228.408.091.59s-.318.364-.546.318c-.227-.045-.41-.454-.41-.454M28.266 19.291c-.41-.183-.683-.455-.637-1.138 0 0 .228.455.455.592 0 0 0-.41.137-.774.137-.364.5-.637.774-.683 0 0-.32.501-.32.91 0 0 .274-.681.729-1.092l.046.319s-.183.182-.228.41c0 0 .273-.364.637-.364s.637.227.682.546c0 0-.181-.091-.5-.137-.32-.045-.682.137-.956.501-.273.364-.318.683-.318.683l-.501.227z" fill="#288548"/></g></svg>