<svg xmlns="http://www.w3.org/2000/svg" viewBox="0 0 45 45"><defs><clipPath id="a"><path d="M4 31a4 4 0 0 1-4-4V9a4 4 0 0 1 4-4h28a4 4 0 0 1 4 4v18a4 4 0 0 1-4 4H4z"/></clipPath></defs><g clip-path="url(#a)" transform="matrix(1.25 0 0 -1.25 0 45)"><path d="M32.584 31H3.416L18 20.467 32.584 31z" fill="#009b3a"/><path d="M36 7.467v21.065L21.416 18 36 7.467zM0 28.533V7.468L14.584 18 0 28.533z" fill="#141414"/><path d="M3.416 5h29.168L18 15.533 3.416 5z" fill="#009b3a"/><path d="M36 31h-3.416L18 20.467 3.416 31H0v-2.467L14.584 18 0 7.467V5h3.416L18 15.533 32.584 5H36v2.467L21.416 18 36 28.533V31z" fill="#ffd202"/></g></svg>