<svg xmlns="http://www.w3.org/2000/svg" viewBox="0 0 45 45"><defs><clipPath id="a"><path d="M0 36h36V0H0v36z"/></clipPath><clipPath id="b"><path d="M4 31a4 4 0 0 1-4-4V9a4 4 0 0 1 4-4h28a4 4 0 0 1 4 4v18a4 4 0 0 1-4 4H4z"/></clipPath><clipPath id="c"><path d="M0 36h36V0H0v36z"/></clipPath></defs><g clip-path="url(#a)" transform="matrix(1.25 0 0 -1.25 0 45)"><path d="M36 9a4 4 0 0 0-4-4H4a4 4 0 0 0-4 4v18a4 4 0 0 0 4 4h28a4 4 0 0 0 4-4V9z" fill="#002488"/></g><g clip-path="url(#b)" transform="matrix(1.25 0 0 -1.25 0 45)"><path d="M36 5H0v17h36V5z" fill="#141414"/></g><g clip-path="url(#c)" transform="matrix(1.25 0 0 -1.25 0 45)"><path d="M29 7.52s-8.395 4.418-12.458 5.75c-4.062 1.334-5.146.293-5.375-.207.438 1.186.896 1.477.896 1.477s-1.604-.415-1.583-1.415c-.334.895.791 2 2.27 2.02-1.333.187-3.646-.02-4.062-1.333.02 1.353 2.375 1.73 3.333 1.687-2.396.75-4.396.73-4.542-.27-.166.436.292.796.292.796s-.938.08-1.396-.338c-.021.375 1.521.75 2.271.666-1.313.521-2.333.606-2.583.012-.084.697 2.354.884 3.479.634-2.625.96-3.604 1.334-4.584.313 0 .708.854.98 1.459.916-.521.542-.917.897-1.459.917.313.125.98-.125.98-.125s-.751.792-1.271 1.042c.916-.146 2.625-1.917 2.75-2.063.125-.145.854-.311.854-.311s-2.375 1.937-2.458 2.562c.979-.48 2.895-2.583 2.895-2.583s.48-.272.5-.064c.021.21-2.875 2.105-2.833 3.188.583-.813 1.417-1.729 1.417-1.729s-.604.792-.542 1.521c.583-1.041 1.458-2.312 2.25-2.75-1.302 1.279-1.438 2.02-1.333 2.292.708-1.291 1.854-2.583 2.041-2.666.188-.084.292-.063.292-.063s-.812.854-.937 1.396c.562-.396.958-1.313 1.083-1.354.125-.042.271.04.271.04s-1.209 1.252-1.209 1.856c.584-.46 1.354-1.73 1.459-1.917.104-.188.583-.521.646-.375.062.146-1.73 1.77-1.209 2.042.834-.688 1.313-1.688 1.396-1.71.083-.02.458-.165.396-.04-.063.125-1.175 1.53-.896 2.312.061-.828.917-2.416 2.396-2.771 1.479-.355 5.875-3.313 8.812-4.188 2.938-.875 8.229-2.042 8.229-2.042l-.166-.25S23 12.437 23 12.375c0-.063.23-.272.23-.272s7.459-1.958 7.437-2.02a6.462 6.462 0 0 0-.167-.355l-7.562 2.354h-.23S30.25 9.54 30.25 9.478c0-.063-.145-.333-.145-.333l-7.792 2.937.25-.292s7.438-2.832 7.417-2.916c-.022-.084-.209-.292-.209-.292l-7.083 2.896-.417.104 7.375-3.187-.229-.27-6.854 3.04h-.23l6.938-3.437L29 7.52z" fill="green"/><path d="M17.802 21.333s-1.021-.687.057-3c1.079-2.312 2.086-.194.829.833-1.021.834-1.022 1.687-.886 2.167M18.318 6.169s1.022.687-.057 3c-1.08 2.312-2.087.193-.83-.834 1.022-.833 1.023-1.686.887-2.166" fill="#fcdd09"/><path d="M19.37 21.223s-1.14-.462-.562-2.947c.58-2.485 2.001-.62.982.645-.827 1.026-.65 1.861-.42 2.302M16.749 6.278s1.142.462.563 2.947c-.579 2.486-2.002.62-.983-.645.827-1.025.652-1.86.42-2.302" fill="#fcdd09"/><path d="M20.879 20.794s-1.212-.217-1.157-2.768c.056-2.551 1.832-1.02 1.095.429-.6 1.174-.255 1.955.062 2.339M15.24 6.707s1.213.218 1.158 2.769c-.055 2.551-1.832 1.018-1.095-.43.599-1.172.256-1.954-.062-2.339" fill="#fcdd09"/><path d="M22.275 20.058s-1.23.038-1.705-2.469c-.473-2.507 1.582-1.376 1.16.193-.343 1.273.155 1.965.545 2.276M13.844 7.443s1.231-.038 1.705 2.47c.474 2.507-1.582 1.375-1.16-.195.343-1.27-.154-1.964-.545-2.275" fill="#fcdd09"/><path d="M23.513 19.025s-1.194.297-2.188-2.052c-.992-2.352 1.255-1.68 1.174-.057-.065 1.316.568 1.888 1.014 2.109M12.607 8.477s1.195-.298 2.188 2.053c.993 2.35-1.255 1.678-1.175.056.067-1.314-.566-1.888-1.013-2.11" fill="#fcdd09"/><path d="M24.526 17.718s-1.103.55-2.58-1.53c-1.48-2.08.861-1.91 1.133-.309.22 1.3.963 1.72 1.447 1.84M11.594 9.783s1.102-.549 2.58 1.53c1.479 2.08-.861 1.91-1.135.31-.218-1.298-.961-1.722-1.445-1.84" fill="#fcdd09"/><path d="M25.179 16.373s-.973.754-2.831-.994c-1.857-1.751.47-2.043 1.052-.527.47 1.232 1.28 1.499 1.779 1.521M10.94 11.129s.974-.755 2.83.994c1.859 1.75-.468 2.042-1.051.526-.47-1.23-1.28-1.5-1.778-1.52" fill="#fcdd09"/><path d="M25.581 14.742s-.782.95-2.98-.347c-2.198-1.299.01-2.096.91-.745.73 1.098 1.58 1.18 2.07 1.092M10.539 12.76s.782-.95 2.979.348c2.198 1.298-.008 2.094-.91.744-.728-1.096-1.578-1.181-2.07-1.092" fill="#fcdd09"/><path d="M25.629 13.241s-.58 1.084-2.99.247c-2.41-.842-.404-2.058.745-.91.933.933 1.78.845 2.245.663M10.49 14.26s.58-1.084 2.99-.245c2.41.84.405 2.056-.745.909-.93-.931-1.781-.847-2.244-.663" fill="#fcdd09"/><path d="M25.35 11.655s-.337 1.182-2.87.872c-2.533-.313-.828-1.926.537-1.047 1.108.715 1.919.45 2.334.175M10.769 15.847s.337-1.183 2.87-.871c2.533.31.829 1.924-.537 1.046-1.105-.714-1.919-.452-2.333-.175" fill="#fcdd09"/><path d="M24.71 10.102s-.068 1.228-2.606 1.483c-2.542.251-1.234-1.697.292-1.14 1.238.454 1.97.017 2.315-.343M11.409 17.4s.069-1.23 2.608-1.482c2.54-.253 1.232 1.694-.294 1.138-1.235-.453-1.971-.019-2.314.343" fill="#fcdd09"/><path d="M23.879 8.884s.17 1.218-2.271 1.959c-2.446.739-1.54-1.425.066-1.175 1.303.206 1.937-.364 2.205-.784M12.24 18.618s-.17-1.219 2.273-1.958c2.443-.74 1.537 1.423-.067 1.173-1.3-.205-1.938.364-2.205.785" fill="#fcdd09"/><path d="M22.706 7.754s.426 1.153-1.802 2.398c-2.23 1.245-1.806-1.063-.185-1.162 1.317-.077 1.815-.77 1.987-1.236M13.414 19.748s-.426-1.155 1.802-2.398c2.228-1.245 1.805 1.062.184 1.16-1.313.077-1.816.77-1.986 1.238" fill="#fcdd09"/><path d="M21.383 6.932s.652 1.042-1.273 2.716c-1.93 1.673-1.987-.672-.42-1.1 1.274-.345 1.62-1.125 1.693-1.616M14.737 20.571s-.653-1.044 1.274-2.716c1.927-1.674 1.984.671.417 1.098-1.27.345-1.62 1.124-1.69 1.618" fill="#fcdd09"/><path d="M19.879 6.387s.856.882-.676 2.922c-1.535 2.04-2.083-.24-.64-.986 1.173-.605 1.347-1.441 1.316-1.936M16.24 21.116s-.856-.883.678-2.923c1.532-2.04 2.08.241.638.987-1.17.603-1.35 1.44-1.315 1.936" fill="#fcdd09"/><path d="M23.148 13.755a5.12 5.12 0 1 0-10.239 0 5.12 5.12 0 0 0 10.239 0M6.249 24.583s.043 1.479-.916 2.271c-.958.792-1.563-.062-1.521-.542.042-.479.456-1.104 1.218-1.333-.468.916.167.934.387.812.311-.171.479-.625.479-1.208h.353zM6.688 29.729c-1.042-.542-1-2.146-.667-2.958.334-.813.417-2.188.417-2.188h.5s.083 1.375.417 2.188c.332.812.374 2.416-.668 2.958M7.126 24.583s-.043 1.479.916 2.271c.958.792 1.563-.062 1.521-.542-.042-.479-.456-1.104-1.218-1.333.468.916-.167.934-.387.812-.311-.171-.479-.625-.479-1.208h-.353zM6.688 24.395l-.877-.073.877-.073.877.073-.878.073zM7.828 23.313c-.547.297-.702.75-.702.75H6.25s-.155-.453-.702-.75c.484-.078.984.172.984.172s-.282-.688.156-1.36c.44.672.157 1.36.157 1.36s.5-.25.984-.172M17.561 24.583s.043 1.479-.916 2.271c-.958.792-1.563-.062-1.52-.542.041-.479.455-1.104 1.217-1.333-.468.916.167.934.387.812.311-.171.48-.625.48-1.208h.352zM18 29.729c-1.042-.542-1-2.146-.667-2.958.334-.813.417-2.188.417-2.188h.5s.083 1.375.417 2.188c.333.812.375 2.416-.667 2.958M18.439 24.583s-.043 1.479.916 2.271c.958.792 1.563-.062 1.52-.542-.041-.479-.455-1.104-1.217-1.333.467.916-.167.934-.387.812-.311-.171-.48-.625-.48-1.208h-.352zM18 24.395l-.877-.073.877-.073.877.073-.877.073zM19.14 23.313c-.546.297-.701.75-.701.75h-.877s-.155-.453-.702-.75c.484-.078.984.172.984.172s-.282-.688.156-1.36c.439.672.157 1.36.157 1.36s.5-.25.984-.172M28.952 24.583s.043 1.479-.915 2.271c-.959.792-1.564-.062-1.522-.542.042-.479.456-1.104 1.217-1.333-.467.916.168.934.388.812.311-.171.48-.625.48-1.208h.352zM29.39 29.729c-1.041-.542-1-2.146-.665-2.958.333-.813.416-2.188.416-2.188h.5s.083 1.375.416 2.188c.334.812.376 2.416-.666 2.958M29.83 24.583s-.044 1.479.915 2.271c.958.792 1.563-.062 1.52-.542-.04-.479-.455-1.104-1.217-1.333.467.916-.167.934-.387.812-.31-.171-.48-.625-.48-1.208h-.352zM29.39 24.395l-.876-.073.877-.073.877.073-.877.073zM30.531 23.313c-.547.297-.702.75-.702.75h-.877s-.155-.453-.702-.75c.484-.078.984.172.984.172s-.282-.688.156-1.36c.44.672.157 1.36.157 1.36s.5-.25.984-.172" fill="#fcdd09"/></g></svg>