<svg xmlns="http://www.w3.org/2000/svg" viewBox="0 0 45 45"><defs><clipPath id="a"><path d="M4 31a4 4 0 0 1-4-4V9a4 4 0 0 1 4-4h28a4 4 0 0 1 4 4v18a4 4 0 0 1-4 4H4z"/></clipPath></defs><g clip-path="url(#a)" transform="matrix(1.25 0 0 -1.25 0 45)"><path d="M0 5h36v8.5H0V5z" fill="#007a3d"/><path d="M0 13.5h36v9H0v-9z" fill="#eee"/><path d="M0 22.5h36V31H0v-8.5z" fill="#141414"/><path d="M0 31V5l12 13L0 31zM17.894 17.967a3.467 3.467 0 0 0 2.817 3.405 3.467 3.467 0 1 1 0-6.81 3.467 3.467 0 0 0-2.817 3.405" fill="#c4111b"/><path d="M19.13 15.868l1.478 1.057 1.467-1.073-.548 1.732L23 18.648l-1.817.014-.556 1.73-.575-1.724-1.817.006 1.462-1.08-.567-1.726z" fill="#c4111b"/></g></svg>