<svg xmlns="http://www.w3.org/2000/svg" viewBox="0 0 45 45"><defs><clipPath id="a"><path d="M0 36h36V0H0v36z"/></clipPath></defs><g clip-path="url(#a)" transform="matrix(1.25 0 0 -1.25 0 45)"><path d="M36 9a4 4 0 0 0-4-4H4a4 4 0 0 0-4 4v18a4 4 0 0 0 4 4h28a4 4 0 0 0 4-4V9z" fill="green"/><path d="M30.53 16.339l.17-.583h.586l-.464-.357.171-.568-.464.358-.464-.341.17.55-.464.358h.572l.186.583zM28.998 22.843l-.679-.627.068.92-.914.14.762.523-.46.8.884-.27.339.86.339-.86.884.27-.46-.8.762-.522-.914-.14.068-.921-.679.627zM25.375 17.53l-.679-.627.068.921-.914.14.762.522-.46.801.884-.27.339.86.339-.86.884.27-.46-.8.761-.523-.913-.14.068-.92-.679.626zM32.485 17.97l-.679-.628.068.921-.914.14.762.522-.46.801.884-.27.34.86.338-.86.884.27-.46-.8.761-.523-.913-.14.068-.92-.679.626zM28.939 10.229l-.68-.627.069.921-.914.14.762.522-.46.801.884-.27.339.86.339-.86.884.27-.46-.8.76-.523-.913-.14.068-.922-.679.627zM20.365 14.06a3.94 3.94 0 1 0 0 7.881 3.91 3.91 0 0 0 2.228-.695 4.924 4.924 0 0 1-3.724 1.7A4.944 4.944 0 0 1 13.925 18a4.945 4.945 0 0 1 4.944-4.945 4.93 4.93 0 0 1 3.726 1.7 3.925 3.925 0 0 0-2.23-.695M11.973 24a5.085 5.085 0 1 0-10.171 0 5.085 5.085 0 1 0 10.17 0" fill="#ffe000"/><path d="M7.144 20H6.01s.372.352.567.67c.194.319.972 2.012.885 3.558-.088 1.544.178 1.287.266.364.089-.921 0-2.812-.159-3.362-.159-.548-.336-.898-.106-.97.23-.071.301-.26.301-.26h-.62z" fill="#802000"/><path d="M5.177 27.08h.69l1.419-1.347-.48.869.437.27.13 1.077 1.188.106-.16-.603.62-.32-.69-1.008 1.506.142-.283-.887h.815l.337-1.116-1.985.16.992-.745v-1.134L7.622 24.51l-.176-.833-.124-.832-.46-.138-.108.634-.478-.798h-.638l.62 2.249-3.19-.601.85 1.028 1.684.337-1.488.779 2.197-.39-2.268 1.135h1.134z" fill="green"/></g></svg>