<svg xmlns="http://www.w3.org/2000/svg" viewBox="0 0 45 45"><defs><clipPath id="a"><path d="M0 36h36V0H0v36z"/></clipPath></defs><g clip-path="url(#a)" transform="matrix(1.25 0 0 -1.25 0 45)"><path d="M36 4a4 4 0 0 0-4-4H4a4 4 0 0 0-4 4v28a4 4 0 0 0 4 4h28a4 4 0 0 0 4-4V4z" fill="#3b88c3"/><path d="M13.707 11.28h3.132c4 0 5.829 2.944 5.829 6.665 0 3.97-1.86 6.852-6.138 6.852h-2.823V11.28zm-4.65 15.408c0 1.427.992 2.388 2.387 2.388h5.147c6.946 0 10.914-4.465 10.914-11.348C27.505 11.218 23.29 7 16.901 7h-5.395c-1.024 0-2.449.558-2.449 2.325v17.363z" fill="#fff"/></g></svg>