<svg xmlns="http://www.w3.org/2000/svg" viewBox="0 0 45 45"><defs><clipPath id="a"><path d="M0 36h36V0H0v36z"/></clipPath><clipPath id="b"><path d="M0 13h36v-1H0v1z"/></clipPath><clipPath id="c"><path d="M0 24h36v-1H0v1z"/></clipPath></defs><g clip-path="url(#a)" transform="matrix(1.25 0 0 -1.25 0 45)"><path d="M0 9a4 4 0 0 1 4-4h28a4 4 0 0 1 4 4v4H0V9z" fill="#da0001"/><path d="M0 13h36v10H0V13z" fill="#eee"/><path d="M36 23v4a4 4 0 0 1-4 4H4a4 4 0 0 1-4-4v-4h36z" fill="#239f40"/><g clip-path="url(#b)" opacity=".4"><path d="M36 12H0v1h36v-1z" fill="#fff"/></g><path d="M19.465 21.031c.957-.49 3.038-2.953.798-5.73 1.39.307 3.162 4.407-.798 5.73M16.528 21.031c-.956-.49-3.038-2.953-.798-5.73-1.391.307-3.161 4.407.798 5.73M20.453 14.69c-.758-.012-1.714.105-2.423.473.117-.227.214-.37.331-.597.677-.062 1.61-.14 2.092.124M15.608 14.69c.758-.012 1.713.105 2.422.473-.116-.227-.214-.37-.33-.597-.676-.062-1.609-.14-2.092.124M16.999 21.767c.154-.408.557-.468.988-.227.314-.19.8-.201.968.207.127-1.008-.934-.77-.974-.573-.395-.382-1.13-.161-.982.593" fill="#be1931"/><path d="M20.538 18.096c-.015 1.248-.677 2.352-1.329 2.799.43-.527 1.752-3.436-.785-5.351l.047 5.097-.475.418-.475-.4.08-5.144c-.007.006-.01.01-.018.015-2.563 1.914-1.234 4.836-.802 5.365-.653-.447-1.315-1.551-1.329-2.8-.014-1.155.544-2.432 2.162-3.432l.003-.172.398-.436.4.455v.179c1.588.996 2.137 2.26 2.123 3.407" fill="#be1931"/><g><g clip-path="url(#c)" opacity=".4"><path d="M36 23H0v1h36v-1z" fill="#fff"/></g></g></g></svg>