<svg xmlns="http://www.w3.org/2000/svg" viewBox="0 0 45 45"><defs><clipPath id="a"><path d="M0 36h36V0H0v36z"/></clipPath></defs><g clip-path="url(#a)" transform="matrix(1.25 0 0 -1.25 0 45)"><path d="M32 31H4a4 4 0 0 1-4-4v-5h36v5a4 4 0 0 1-4 4" fill="#cc212d"/><path d="M15.423 14h5.186l-2.593 1.884L15.423 14zM19.01 18.941h3.215l-2.601-1.89.99-3.05H36v8H18.016l.994-3.06zM16.408 17.052l-2.602 1.89h3.216L18.015 22H0v-8h15.416l.992 3.052z" fill="#fbd116"/><path d="M20.617 13.994l-.009.006h-5.185l-.009-.006.002.006H0V9a4 4 0 0 1 4-4h28a4 4 0 0 1 4 4v5H20.615l.002-.006z" fill="#288541"/><path d="M13.807 18.941l2.602-1.89-.993-3.05-.002-.008.009.007 2.593 1.883L20.609 14l.009-.007-.003.007-.991 3.051 2.6 1.89H19.01l-.994 3.06-.994-3.06h-3.215z"/></g></svg>