<svg xmlns="http://www.w3.org/2000/svg" viewBox="0 0 45 45"><defs><clipPath id="a"><path d="M0 36h36V0H0v36z"/></clipPath></defs><g clip-path="url(#a)" transform="matrix(1.25 0 0 -1.25 0 45)"><path d="M36 9a4 4 0 0 0-4-4H4a4 4 0 0 0-4 4v18a4 4 0 0 0 4 4h28a4 4 0 0 0 4-4V9z" fill="#141414"/><path d="M36 13H0v10h36V13z" fill="#eee"/><path d="M32 31H4a4 4 0 0 1-4-4v-4h36v4a4 4 0 0 1-4 4" fill="#ce1225"/><path d="M14.75 14.438s.016-.25.234-.376c0 0-.062-.186.172-.296.235-.11 1.078-.282 2.547-.282s2.297.156 2.516.266c.218.11.234.36.234.36s.234.124.219.28c-.016.156-.328.328-.328.328s-.078.203-.297.281c-.219.08-.922-.343-2.266-.28-1.344.062-2.109.265-2.359.25-.25-.016-.36-.266-.36-.266s-.281-.125-.312-.266" fill="#bf9300"/><path d="M14.922 14.453c-.013-.093.187-.297.187-.297s0-.234.204-.297c.203-.062 1.03-.218 2.375-.203 1.343.016 2.296.094 2.406.188.109.093.203.297.203.297s.219.156.203.281c-.016.125-.328.203-.328.203s-.088.187-.192.265c-.105.08-.777-.312-2.214-.312-1.408 0-2.22.344-2.36.328-.14-.016-.234-.28-.234-.28s-.234-.064-.25-.173" fill="#eee"/><path d="M15.11 15.578l.186 4.937.47-.5L15.608 16l-.5-.422zM20.297 15.578l-.187 4.937-.47-.5.157-4.015.5-.422zM16.719 18.172l-1.031-3.016s-.72.047-.516-.531c0 0 .11.328.297.266.188-.063.734-.203.734-.203l.188-.297.234.218.735.032s.234-.063.218-.266c.203.469-.312.609-.312.609l-.235.047.516 2.016c.335-.477-.828 1.125-.828 1.125" fill="#bf9300"/><path d="M17.375 17.11l-.562-2.142-.938.188.969 2.75.531-.797z" fill="#eee"/><path d="M18.73 18.172l1.031-3.016s.719.047.515-.531c0 0-.109.328-.296.266-.188-.063-.734-.203-.734-.203l-.187-.297-.235.218-.735.032s-.234-.063-.218-.266c-.203.469.312.609.312.609l.235.047-.516 2.016c-.334-.477.828 1.125.828 1.125" fill="#bf9300"/><path d="M18.074 17.11l.562-2.142.939.188-.97 2.75-.531-.797z" fill="#eee"/><path d="M17.752 17.078c-1.126.696-1.22 2.453-1.22 2.453s.697.036 1.203.391c.455-.405 1.234-.36 1.234-.36s-.053-1.763-1.218-2.484m0 3.125c-.626-.437-1.486-.469-1.486-.469s.094-2.125 1.485-2.984c1.437.89 1.5 3.016 1.5 3.016s-.938-.063-1.5.437" fill="#bf9300"/><path d="M16.766 19.36s.078-.907.484-1.61v1.812s-.265-.156-.484-.203M18.719 19.328s-.078-.906-.484-1.609v1.812s.265-.156.484-.203M14.547 20.516s.03.734.703.64c.672-.093.719-.421 1.438-.5.718-.078 1.03-.062 1.03-.062l-.015-.22s-.56.055-1.093.11c-.594.063-.827.373-1.391.454-.438.062-.422-.375-.422-.375l-.25-.047z" fill="#bf9300"/><path d="M20.86 20.516s-.032.734-.704.64c-.672-.093-.719-.421-1.438-.5-.718-.078-1.03-.062-1.03-.062l.015-.22s.56.055 1.093.11c.594.063.827.373 1.391.454.438.062.422-.375.422-.375l.25-.047z" fill="#bf9300"/><path d="M16.719 20.39s.734.876.578 1.642c0 0-.312.312-.391.203-.078-.11-.171.25 0 .39.172.14.547-.046.547-.046s.094.218.578-.016c.485-.235.344-.438.344-.906 0-.47.188-1.172.36-1.313 0 0-.235 0-.375.094l-.032-.156s-.218.078-.328.156l-.281-.141-.156.219s-.297-.22-.453-.266l.062.219s-.297-.078-.453-.078" fill="#bf9300"/><path d="M16.953 22.422s.11.109.422-.11c.203-.141.383-.25.383-.25s.128.136.316.105c.187-.032.082-.292.113-.84.032-.546.25-.78.25-.78l-.265.156.015-.172-.297.14-.14-.202-.14.219-.229-.14-.069.187-.265-.141s.39.484.422 1.016c.01.158-.032.515-.032.515s-.25.313-.484.297" fill="#eee"/><path d="M17.047 15.469l.187-.281.235.187.187.86-.11-.938.126-.297.219.235-.032 1.093.172-1.078.235-.156.156.297L18 17.047l-.547-.031-.406-1.547zM15.547 14.344c-.18-.107-.11-.172 0-.22.109-.046.765-.125 2.094-.155 1.359-.031 2.203.125 2.312.188.11.062.125.17-.062.203-.188.03-1.125-.125-2.266-.125-1.406 0-2 .156-2.078.109M16.266 19.734l-.133.053-1.054.947-.532-.219-.265-5.672.547.422.003.067 1.137 1.011.219.22.625 1.452-.297.563-.25 1.156zM21.125 14.844l-.266 5.672-.531.219-.953-.907-.234-.093-.25-1.157-.172-.468.5-1.547.219-.22 1.137-1.01.003-.067.547-.422z" fill="#bf9300"/><path d="M17.076 15.578l-.222-.734.506-.203.974.067.143.302L18 16.663s-.625.058-.64 0c-.014-.058-.284-1.085-.284-1.085" fill="#bf9300"/></g></svg>