<svg xmlns="http://www.w3.org/2000/svg" viewBox="0 0 45 45"><defs><clipPath id="a"><path d="M0 36h36V0H0v36z"/></clipPath></defs><g clip-path="url(#a)" transform="matrix(1.25 0 0 -1.25 0 45)"><path d="M36 9a4 4 0 0 0-4-4H4a4 4 0 0 0-4 4v18a4 4 0 0 0 4 4h28a4 4 0 0 0 4-4V9z" fill="#006b3f"/><path d="M36 21H21v10h-6V21H0v-6h15V5h6v10h15v6z" fill="#eee"/><path d="M17 5h-2v26h2V5z" fill="#fcd116"/><path d="M36 19H0v2h36v-2z" fill="#fcd116"/><path d="M19 5h-2v26h2V5z" fill="#141414"/><path d="M36 17H0v2h36v-2z" fill="#141414"/><path d="M23.999 18.001a6 6 0 1 0-12 0 6 6 0 0 0 12 0" fill="#dd2e44"/><path d="M18 23.36l-.169-.524h-.555l.451-.326-.173-.523.446.325.445-.325-.171.528.449.32h-.552L18 23.36zM14.92 22.36l.17-.523-.447-.326h.555l.168-.524.169.525.552-.001-.448.327.175.52-.447-.323-.447.325zM13.016 19.74l.446-.323-.171-.527.45.327.444-.326-.172.524.447.324h-.554l-.166.525-.17-.525h-.554zM13.016 16.5l.55.002.172-.527.17.529.552-.002-.447.322.172.525-.45-.325-.442.327.17-.525-.447-.326zM14.92 13.88l.444.325.449-.326-.173.529.448.323-.552-.002-.17.525-.172-.527-.55.004.447-.325-.171-.525zM18 12.88l.169.524h.554l-.45.327.172.523-.445-.326-.445.326.17-.527-.448-.321h.552L18 12.88zM21.08 13.88l-.172.524.448.327-.555-.002-.168.525-.169-.525-.552.002.448-.327-.175-.523.448.326.447-.326zM22.983 16.502l-.446.322.171.527-.45-.327-.443.326.171-.524-.446-.324h.553l.166-.525.171.525h.553zM22.982 19.74h-.55l-.17.526-.172-.529-.55.002.446-.323-.172-.525.45.326.442-.327-.17.525.446.325zM21.08 22.36l-.445-.325-.449.326.172-.528-.447-.322.552.001.17-.525.172.527.55-.005-.447.325.171.526z" fill="#006000"/><path d="M16.99 20.819c0-.097 0-.262.237-.292.148.054.097.382.052.472-.104-.007-.25-.122-.29-.18" fill="#fff"/><path d="M17.28 20.909c-.162-.084-.368-.238-.349-.49-.283.2-.3.779.013.863.116.006.354-.154.335-.373" fill="#fff"/><path d="M17.146 20.338c.147-.128.428-.105.564-.028.244-.14.507-.16.848-.05.065-.02.237-.046.302-.02a.71.71 0 0 0 .116.09.697.697 0 0 0-.193.295s.064.078.09.116a1.855 1.855 0 0 1-.257.206c.04.038.077.154.077.154a.863.863 0 0 0-.309.18l.013.078c-.21.012-.2.27-.655.347-.309.052-.772-.077-.798-.425.172-.167.433-.39.283-.754a.593.593 0 0 0-.154-.142c.025-.03.043-.034.073-.047" fill="#7d76b6"/><path d="M18.402 16.553c.111-.471.402-1.354.48-1.551.077-.197.188-.6.437-.67.111-.058.266-.015.197.498.077.018.094.215.077.352-.017.137-.06.652-.069 1.062-.008.413-1.13 1.056-1.122.309" fill="#00693f"/><path d="M17.356 17.462c-.043-.309.034-.91.18-1.14l.677-.154a.46.46 0 0 1 .171.23c.163.053.292.182.334.43-.196.471-.899 1.097-1.362.634" fill="#00693f"/><path d="M18.86 20.24a.447.447 0 0 1 .154-.27.277.277 0 0 1-.09-.128c-.283-.245-.938-1.942-.95-2.315-.046-.2-.136-.514-.214-.65-.436.392-.886 1.126-.81 1.456-.027.004-.066.008-.109.02.01.03.026.18.031.27-.027 0-.074 0-.113.014.01.056.027.219.027.292a.33.33 0 0 0-.133.098c.03.077.106.227.145.318-.064.008-.11.072-.132.11a.574.574 0 0 1 .158.194.428.428 0 0 0-.11.12c.06.056.235.248.312.355-.048 0-.064.005-.103.014.064.025.137.12.223.2.148-.128.428-.104.564-.027.244-.141.507-.161.848-.051.065-.02.238-.045.302-.02" fill="#7d76b6"/><path d="M19.838 15.572c.05 1.813-.258 3.472-.733 4.076-.476.605-1.35.47-1.594-.05-.104-.22-.118-.742-.014-.966.18-.386.875-1.607 1.35-2.07.476-.463.81-.77.99-.99" fill="#00693f"/><path d="M19.122 16.004a.846.846 0 0 0-.429.078c-.129.06-.24.119-.377.119s-.883.053-1.003.096c-.12.043-.455.102-.59.094-.138-.008-.353-.104-.439-.104-.086 0-.128-.068-.128-.137 0-.068.017-.197.12-.265.18.008.437.025.471.06.25-.068.583-.138.79-.146.205-.008.573-.025.711-.018.137.01.162.053.343-.007.18-.061.42-.19.531-.223.111-.035.18.076.205.197.026.119-.06.266-.205.256" fill="#ffd420"/><path d="M19.122 15.55c.111-.034.18.077.205.198.026.119-.06.266-.205.256-.107-.021-.246-.29 0-.453" fill="#ffd420"/><path d="M17.673 16.39c-.146.12-.4.007-.437-.282-.034-.266.103-.455.3-.446-.043.145-.01.668.137.729" fill="#fff"/><path d="M17.896 16.39c-.138.112-.315.003-.395-.103-.11-.144-.103-.42-.034-.556.07-.137.276-.086.319-.018-.027.137 0 .592.11.678" fill="#fff"/><path d="M18.166 16.285c-.097.162-.364.113-.45-.006-.085-.12-.103-.377 0-.506s.215-.11.308-.043c-.025.12.014.426.142.555" fill="#fff"/><path d="M18.325 16.21c-.095.163-.272.093-.344-.01-.102-.143-.093-.477.13-.53.112-.025.196.068.231.11-.086.01-.17.105-.17.18 0 .079.007.233.153.25" fill="#fff"/><path d="M17.561 21.41c-.23 0-.225-.347 0-.347.226 0 .231.347 0 .347" fill="#ffd420"/><path d="M17.561 21.28c-.058 0-.056-.086 0-.086.057 0 .06.086 0 .086"/></g></svg>