<svg xmlns="http://www.w3.org/2000/svg" viewBox="0 0 45 45"><defs><clipPath id="a"><path d="M0 36h36V0H0v36z"/></clipPath></defs><g clip-path="url(#a)" transform="matrix(1.25 0 0 -1.25 0 45)"><path d="M19.602 17.058l.99-3.048L18 15.894l-2.593-1.884.99 3.048-1.296.942H.001V9a4 4 0 0 1 4-4h28a4 4 0 0 1 4 4v9H20.897l-1.296-.942z" fill="#009e49"/><path d="M32 31H4a4 4 0 0 1-4-4v-9h15.101l-1.296.942h3.205L18 21.99l.99-3.048h3.205L20.899 18H36v9a4 4 0 0 1-4 4" fill="#ef2b2d"/><path d="M15.408 14.01L18 15.894l2.592-1.884-.99 3.048 1.296.942 1.296.941H18.99L18 21.99l-.991-3.048h-3.204l1.296-.94 1.296-.943-.99-3.048z" fill="#fcd116"/></g></svg>