<svg xmlns="http://www.w3.org/2000/svg" viewBox="0 0 45 45"><defs><clipPath id="a"><path d="M4 31a4 4 0 0 1-4-4V9a4 4 0 0 1 4-4h28a4 4 0 0 1 4 4v18a4 4 0 0 1-4 4H4z"/></clipPath></defs><g clip-path="url(#a)" transform="matrix(1.25 0 0 -1.25 0 45)"><path d="M18.01 24.59a6.471 6.471 0 0 0 4.292-1.626L33.387 31H2.557l11.129-8.07a6.465 6.465 0 0 0 4.325 1.658" fill="#ce1126"/><path d="M24.51 18.09c0-.928-.197-1.81-.547-2.608L36 6.754V29.19l-11.962-8.673c.302-.75.473-1.568.473-2.427M11.51 18.09c0 .842.166 1.644.458 2.383L0 29.148V6.793l12.039 8.73a6.47 6.47 0 0 0-.528 2.565" fill="#1eb53a"/><path d="M18.01 11.59a6.471 6.471 0 0 0-4.18 1.525L2.635 5h30.674l-11.152 8.084a6.473 6.473 0 0 0-4.146-1.495" fill="#ce1126"/><path d="M22.029 15.522h-.778l-.388-.674-.39.674h-.777l.389.673-.39.674h.779l.389.673.388-.673h.778l-.39-.674.39-.673zm-2.851 4.538H18.4l-.39-.673-.388.673h-.777l.389.673-.39.674h.778l.389.673.389-.673h.778l-.39-.674.39-.673zm-2.852-4.538h-.777l-.39-.674-.388.674h-.778l.389.673-.39.674h.779l.389.673.389-.673h.777l-.389-.674.389-.673zM36 31h-2.614l-11.085-8.037a6.47 6.47 0 0 1-8.616-.031L2.556 31H0v-1.852l11.968-8.676a6.482 6.482 0 0 1 .071-4.949L0 6.795V5h2.636l11.194 8.116a6.474 6.474 0 0 1 4.181-1.527c1.577 0 3.021.562 4.147 1.495L33.308 5H36v1.754l-12.037 8.727a6.482 6.482 0 0 1 .076 5.036L36 29.19V31z" fill="#eee"/><path d="M18.788 20.733l.39.673h-.779l-.389.675-.388-.674h-.778l.39-.673-.39-.674h.778l.388-.674.39.674h.777l-.389.673z" fill="#ce1126"/><path d="M18.01 19.387l-.388.673h-.777l.388.674-.388.673h.777l.389.674.389-.674h.777l-.388-.673.388-.674H18.4l-.39-.673zm1.384.798l-.317.549.317.548.216.375h-1.066l-.317.549-.216.375-.216-.375-.317-.55h-1.066l.216-.374.317-.548-.317-.55-.216-.374h1.066l.317-.548.216-.375.217.375.316.548h1.066l-.216.375z" fill="#1eb53a"/><path d="M22.029 15.522l-.39.673.39.674h-.778l-.388.673-.39-.673h-.777l.389-.674-.39-.673h.779l.389-.674.388.674h.778z" fill="#ce1126"/><path d="M20.473 15.522h-.778l.39.673-.39.674h.778l.39.673.388-.673h.777l-.389-.674.39-.673h-.778l-.389-.674-.389.674zm1.772.125l-.317.548.317.55.216.374h-1.066l-.317.548-.216.375-.217-.375-.316-.548h-1.067l.217-.375.317-.549-.317-.548-.217-.375h1.067l.316-.549.217-.375.216.375.317.55h1.066l-.216.374z" fill="#1eb53a"/><path d="M15.937 16.195l.389.673h-.778l-.389.674-.388-.674h-.778l.389-.673-.389-.673h.778l.388-.674.389.674h.778l-.389.673z" fill="#ce1126"/><path d="M15.16 14.848l-.39.674h-.777l.388.673-.388.673h.777l.39.674.388-.674h.777l-.388-.673.388-.673h-.777l-.389-.674zm1.065 1.347l.317.548.216.375h-1.066l-.317.55-.216.374-.216-.375-.317-.549H13.56l.216-.375.317-.548-.317-.548-.216-.375h1.066l.316-.549.217-.375.217.375.316.55h1.067l-.217.374-.317.548z" fill="#1eb53a"/></g></svg>