<svg xmlns="http://www.w3.org/2000/svg" viewBox="0 0 45 45"><defs><clipPath id="a"><path d="M0 36h36V0H0v36z"/></clipPath></defs><g clip-path="url(#a)" transform="matrix(1.25 0 0 -1.25 0 45)"><path d="M32 31H15V18h21v9a4 4 0 0 1-4 4" fill="#fcd116"/><path d="M15 5h17a4 4 0 0 1 4 4v9H15V5z" fill="#009e49"/><path d="M10 14l-2.547 1.851L4.906 14l.973 2.994-2.547 1.851H6.48l.973 2.994.973-2.994h3.148l-2.547-1.851L10 14zm5 17H4a4 4 0 0 1-4-4V9a4 4 0 0 1 4-4h11v26z" fill="#ce1126"/><path d="M8.426 18.845l-.973 2.994-.973-2.994H3.332l2.547-1.851L4.906 14l2.547 1.85L10 14l-.973 2.994 2.547 1.85H8.426z"/></g></svg>