<svg xmlns="http://www.w3.org/2000/svg" viewBox="0 0 45 45"><defs><clipPath id="a"><path d="M0 36h36V0H0v36z"/></clipPath></defs><g clip-path="url(#a)" transform="matrix(1.25 0 0 -1.25 0 45)"><path d="M36 9a4 4 0 0 0-4-4H4a4 4 0 0 0-4 4v18a4 4 0 0 0 4 4h28a4 4 0 0 0 4-4V9z" fill="#002d62"/><path d="M32 31H20V20h16v7a4 4 0 0 1-4 4" fill="#dd2e44"/><path d="M4 5h12v11H0V9a4 4 0 0 1 4-4" fill="#ce1225"/><path d="M36 21H21v10h-6V21H0v-6h15V5h6v10h15v6z" fill="#eee"/><path d="M18.022 20.055h-1.917l.335-.323v-1.655h1.582v1.978zM18.022 16.12c.255.277.429.266 1.15.266.385 0 .43.261.43.771v.92h-1.58V16.12z" fill="#002d62"/><path d="M18.022 16.12c-.255.277-.429.266-1.151.266-.386 0-.431.261-.431.771v.92h1.582V16.12zM18.022 20.055h1.915l-.335-.323v-1.655h-1.58v1.978z" fill="#ce1225"/><path d="M18.295 16.323v3.732h-.547V16.32a.69.69 0 0 0 .274-.2c.07.084.186.171.273.203" fill="#fff"/><path d="M16.44 17.809h3.161v.547H16.44v-.547z" fill="#fff"/><path d="M18.022 18.444l1.038 1.107v-.335l.193.162v-1.851c0-.687-1.083-.62-1.231-.302-.149-.317-1.232-.385-1.232.302v1.85l.193-.161v.335l1.039-1.107z" fill="#002d62"/><path d="M18.022 17.257c-.498-.268-.821-.057-.821.198v.318c-.193 0-.411.099-.411.162v.273c0-.08.324-.155.411-.155v.958l.18-.144v.25l.274-.28v-.197l-.181.154v-.81c.187 0 .333-.112.548-.112.214 0 .36.112.547.112v.81l-.18-.154v.197l.273.28v-.25l.181.144v-.958c.087 0 .41.075.41.155v-.273c0-.063-.218-.162-.41-.162v-.318c0-.255-.324-.466-.821-.198v.279c.267-.155.547-.192.547-.025v.2c-.187 0-.333-.112-.547-.112-.215 0-.361.112-.548.112v-.2c0-.167.281-.13.548.025v-.28z" fill="#fff"/><path d="M18.389 18.836v-.196l.18.153v-.81c-.187 0-.332-.11-.547-.11-.215 0-.361.11-.548.11v.81l.182-.153v.196l.366-.393.367.393z" fill="#ce1225"/><path d="M16.79 17.934v-.407c0-.687 1.083-.618 1.232-.301.148-.317 1.231-.386 1.231.3v.408c0-.061-.218-.161-.41-.161v-.318c0-.254-.324-.465-.821-.198-.498-.267-.821-.056-.821.198v.318c-.193 0-.411.1-.411.16" fill="#ce1225"/><path d="M18.439 20.718c.018.05.038.122.056.187a3.92 3.92 0 0 1-.473.03c-.16 0-.331-.012-.473-.03.018-.065.037-.137.056-.187.012-.038-.062-.13-.33-.115a4.171 4.171 0 0 1-.853-.059c.049-.075.067-.09.06-.148-.005-.065-.158-.126-.426-.164-.267-.037-.37-.313-.462-.71a1.838 1.838 0 0 1-.375.101c.06.258.267.843.526.903-.063.14-.048.21.193.322.26.122.703.196 1.19.214-.03.118 0 .166.154.231.13.056.339.1.74.1.4 0 .61-.044.74-.1.154-.065.184-.113.154-.23.486-.019.928-.093 1.189-.215.24-.112.256-.182.193-.322.258-.06.466-.645.526-.903a1.804 1.804 0 0 1-.373-.102c-.092.398-.197.674-.464.711-.267.038-.421.1-.427.164-.007.058.013.073.062.148-.29.05-.626.072-.853.06-.268-.017-.342.076-.33.114" fill="#002d62"/><path d="M18.022 18.35l1.273 1.09.028-.033-1.301-1.113v.056zM18.022 18.472l1.075 1.167.031-.03-1.106-1.2v.063zM18.022 18.632l.854 1.179.034-.025-.888-1.228v.074zM18.022 18.35l-1.273 1.09-.028-.033 1.301-1.113v.056z" fill="#996b38"/><path d="M18.022 18.472l-1.075 1.167-.032-.03 1.107-1.2v.063zM18.022 18.632l-.855 1.179-.035-.025.89-1.228v.074z" fill="#996b38"/><path d="M19.274 19.456l.183.096-.122-.167c-.01-.008-.07.064-.06.07M19.074 19.651l.172.117-.103-.179c-.009-.01-.077.054-.069.062M18.853 19.823l.157.137-.082-.192c-.008-.011-.082.045-.075.055M16.769 19.456l-.184.096.123-.167c.01-.008.07.064.06.07M16.968 19.651l-.17.117.102-.179c.01-.01.076.054.068.062M17.19 19.823l-.156.137.08-.192c.01-.011.083.045.076.055" fill="#ffce46"/><path d="M17.713 18.628c.05.04.191.109.274.065.064.074.216.138.3.095l.175-.544c-.049-.034-.148-.017-.209-.055-.018-.01-.065-.037-.074-.057-.03.013-.098.006-.145-.01-.044-.013-.075-.06-.127-.066l-.194.572" fill="#fff"/><path d="M17.713 18.628c.05.04.191.109.274.065.064.074.216.138.3.095l.175-.544c-.049-.034-.148-.017-.209-.055-.018-.01-.065-.037-.074-.057-.03.013-.098.006-.145-.01-.044-.013-.075-.06-.127-.066l-.194.572" fill="none" stroke="#000" stroke-width=".007" stroke-linecap="round" stroke-linejoin="round"/><path d="M19.707 15.72c.163 0 .379-.043.447-.068a1.067 1.067 0 0 1-.285.149c.15-.024.187-.05.287-.074.07-.02.08-.027.083-.127.001-.067.001-.154.042-.014.038.126.052.144-.014.186a1.475 1.475 0 0 1-.261.135c.192-.05.347-.113.441-.173a.74.74 0 0 1-.236.229c.112-.026.262-.087.367-.143a.74.74 0 0 1-.244.228c.17-.036.352-.092.449-.147-.094.125-.203.235-.344.278.189-.023.368-.08.449-.13-.111.107-.225.217-.338.255.155-.02.299-.061.383-.1a.858.858 0 0 1-.45.22c.118-.001.267-.012.394-.038a.776.776 0 0 1-.368.108c.193.044.41.038.647-.04a1.534 1.534 0 0 1-.443.17c.094.006.231.029.319.016a1.657 1.657 0 0 1-.434.073c.19.056.379.092.493.114-.199.012-.423 0-.622-.033.22.187.38.187.523.21.142.026.249.057.101.072-.096.009-.174.017-.241.019.155.046.351.146.416.18s.223.15.052.072-.416-.09-.637-.115a.6.6 0 0 1-.23-.065c.12.069.255.142.396.21.14.069.11.092.233-.05.059-.067.055 0-.022.179-.062.138-.116.074-.25.02a1.7 1.7 0 0 1-.188-.087c.078.093.348.405.393.458.047.053.119-.01.211-.068.088-.06.057-.003-.027.094-.085.095-.125.11-.18.064-.055-.047-.326-.218-.476-.361.276.262.596.556.669.639-.158-.085-.3-.18-.427-.278.044.063.124.178.166.227-.063-.043-.152-.09-.202-.136.074.132.152.253.163.274.017.034.035.042.061.045l.139.012c.08.006.049.023.014.032-.222.058-.213.033-.263-.014a1.7 1.7 0 0 1-.135-.161c.055.174.223.334.25.384a1.058 1.058 0 0 1-.328-.25c.08.128.328.324.404.403-.077-.032-.24-.113-.283-.163.041.073.081.149.117.228a.97.97 0 0 1-.313-.334c.008.032.021.08.034.119.044.085.164.202.226.27.063.069.077.088.254-.024a.711.711 0 0 1-.091.174c-.051.077-.075.044-.145-.015-.039-.031-.076-.075-.145-.136.076.196.165.406.212.543a1.474 1.474 0 0 1-.306-.485c.006.137.081.416.069.56a.862.862 0 0 1-.155-.352c-.004.15-.005.338-.043.445.011-.093-.085-.306-.11-.455-.06.142-.126.279-.164.374.003-.075.023-.245.056-.448-.05.156-.232.317-.238.442-.005-.18.125-.486.139-.573.002-.028.013-.07.023-.118-.062.1-.21.28-.249.398 0-.074.029-.203.042-.285-.078.072-.132.03-.264-.22.043.015.092.07.13.095.037.025.072.052.112-.013.05-.082.184-.27.258-.51-.022.07-.146.23-.191.302.01-.034.033-.146.047-.211a1.602 1.602 0 0 1-.167.345c-.004-.081.056-.31.066-.406-.036.084-.075.157-.106.219.024-.065.057-.293.053-.41a2.503 2.503 0 0 1-.142.224c.032-.094.06-.281.065-.387a.8.8 0 0 1-.045.08c-.063.102-.103-.08-.14-.172-.038-.093-.017-.081.026-.016.064.099.056.086.094-.022.025-.064.091-.217.146-.416-.054.087-.129.205-.169.29-.041.089-.044.084 0-.09.028-.113.098-.323.07-.547-.04.14-.092.312-.149.465.008-.096.019-.281.019-.36a.37.37 0 0 1-.083.11c.041-.13.051-.357.051-.5a.963.963 0 0 1-.084.23 2.62 2.62 0 0 1 .051-.456c-.022.086-.054.17-.09.237.02-.116.028-.306-.006-.43a.8.8 0 0 1-.048.188c-.01-.057-.023-.226-.065-.3a.815.815 0 0 1 .016.268 1.57 1.57 0 0 0-.12-.314c.015.054.036.16.042.263-.013-.065-.057-.118-.082-.174.012.092.015.169.011.206a1.214 1.214 0 0 0-.204-.391c.048.126.06.26.06.34-.08-.14-.086-.201-.214-.37.067.14.055.259.041.326a1.457 1.457 0 0 0-.118-.252.968.968 0 0 0 .031.334c-.055-.037-.13-.144-.13-.224a.464.464 0 0 1-.1.205c.043-.278.028-.52-.14-.631-.372-.244-.686-.785-1.142-.986a.808.808 0 0 0 .144-.125c.435.192.728.625 1.065.867.16.086.527-.107.932-.002.156.04.46-.05.595-.105-.061.086-.184.155-.403.198" fill="#549334"/><path d="M16.575 16.001c.075.013.28.011.443-.016-.108.041-.039.298-.17.394.134-.062.191-.04.262-.052l.025-.007a.255.255 0 0 0 .031.149c.018-.069.094-.083.158-.133a.354.354 0 0 0 .033-.028c.002.081.12.186.133.24.024-.072.091-.123.114-.225.062-.261-.143-.317-.068-.504.372-.244.703-.731 1.157-.932a.772.772 0 0 1-.143-.125c-.603.266-.992 1.04-1.544 1.078l-.042-.017c-.137-.066-.264-.116-.386-.09a.53.53 0 0 1-.33-.059c.154.234.233.302.327.327a.52.52 0 0 0-.348-.007c-.068-.165-.227-.212-.37-.23-.143-.02-.249-.078-.293-.157a.519.519 0 0 0 .01.235.772.772 0 0 1-.228-.005c.085.033.162.274.37.303a.372.372 0 0 0-.1.097c.048-.028.092.003.182.028a.655.655 0 0 0 .183.019.362.362 0 0 0-.137.204c-.064-.194-.276-.246-.4-.255-.15-.009-.222-.058-.25-.099 0 .092.03.167.065.217-.063-.006-.119-.008-.152-.021a.397.397 0 0 0 .171.276c-.09.022-.217.181-.223.295.071-.083.367.003.511-.158a.411.411 0 0 0-.148.287c.034-.044.104-.046.174-.085-.097.352-.34.274-.485.385-.183.144-.109.393-.255.511a.672.672 0 0 0 .161-.015c-.032.076-.03.227-.028.317.035-.112.16-.097.237-.206.013.031.02.062.015.091.056-.068.11-.125.141-.187-.009.117.038.187.074.219a.532.532 0 0 1 .057-.238c.046-.093.065-.199.03-.37-.032-.162.034-.287.117-.406a1.27 1.27 0 0 1-.023.344.63.63 0 0 0-.01.295.527.527 0 0 1 .135-.183.149.149 0 0 0 .034-.062l.05.116c.018.056-.24.15-.226.442-.174.097-.33.226-.375.459a.302.302 0 0 1 .096-.05c-.096.142-.12.323-.087.413.022-.074.098-.094.18-.152.021.155-.144.268-.139.417.006.236.13.239.173.386a.782.782 0 0 0 .077-.157c.028.099.148.172.15.247.063-.09.108-.191.074-.293a.284.284 0 0 0 .226-.031c-.153-.028-.143-.211-.243-.257-.1-.047-.287-.179-.24-.377.063-.068.12-.177.153-.364a.364.364 0 0 0 .076-.107.74.74 0 0 1 .067.147c-.009.078-.113.165-.14.24-.038.101.052.255.016.392.05-.019.133-.05.192-.124.046.107.135.175.138.357a1.15 1.15 0 0 0 .088-.226.55.55 0 0 0 .27.195c-.073-.124-.048-.246-.05-.349-.004-.101-.007-.273-.156-.388-.149-.116-.188-.148-.22-.438.063.137.215.243.22.317.031-.131.056-.231.052-.319.05.059.14.092.246.097-.074-.086-.13-.425-.33-.465-.198-.041-.278-.242-.332-.324-.069-.102-.085-.182-.017-.318a.696.696 0 0 0 .054.296c.066.133.208.187.218.28a1.11 1.11 0 0 0 .025-.241c.1.202.311.144.37.203a.515.515 0 0 1-.103-.236.383.383 0 0 0-.22-.267c-.093-.044-.173-.051-.22-.146-.013-.055.035-.103.035-.187a.205.205 0 0 0 .028.08c.057.082.094.144.094.19.124-.124.152-.246.112-.376-.04-.131-.07-.238.011-.341a.435.435 0 0 1 .156-.087c.065.066-.012.146-.086.223-.075.077-.069.26-.007.335.063.078.116.157.113.224a.477.477 0 0 0 .111-.153c.024.06.06.113.106.141.01-.109.081-.159.081-.277a.272.272 0 0 0 .156.156c-.016-.059.038-.151.047-.208a.304.304 0 0 0-.022-.152.288.288 0 0 0-.153-.165c-.028-.014-.073-.029-.119-.049.107.014.3-.022.343-.1-.08.029-.252-.034-.336-.068" fill="#549334"/><path d="M17.622 15.321a.807.807 0 0 1-.238-.055c.01-.04.03-.19.03-.224a.558.558 0 0 0 .208.07v.21z" fill="#ce1225"/><path d="M17.94 15.312c-.206.076-.338.043-.338-.02v-.188c0-.032.072-.072.338-.008v.216zM18.427 15.321a.8.8 0 0 0 .238-.055 2.166 2.166 0 0 1-.03-.224.563.563 0 0 1-.208.07v.21z" fill="#ce1225"/><path d="M18.109 15.312c.207.076.338.043.338-.02v-.188c0-.032-.072-.072-.338-.008v.216z" fill="#ce1225"/><path d="M18.022 15.34c.104 0 .13-.03.13-.132 0-.104-.026-.135-.13-.135-.105 0-.131.03-.131.135 0 .102.026.132.131.132" fill="#ce1225"/><path d="M18.022 15.515c.567 0 1.023-.034 1.386-.112-.044-.034-.083-.08-.112-.102-.033-.028-.021-.105.054-.173a.44.44 0 0 1 .437-.042c.035.016.07.032.105.046-.051-.043-.093-.1-.071-.153.108-.24.52.075.765-.227.066.084.23.259.299.325-.14.169-.335.14-.496.128.058.097.065.17-.064.263-.052.038-.233.032-.399-.043.03.078.025.206-.232.319-.391.176-1.056.212-1.672.212-.616 0-1.282-.036-1.674-.212-.257-.113-.263-.241-.231-.32-.167.076-.347.082-.401.044-.128-.092-.12-.166-.062-.263-.162.013-.358.04-.497-.128.068-.066.234-.241.299-.325.245.302.658-.012.764.227.024.054-.018.11-.068.153l.103-.046a.443.443 0 0 1 .438.042c.076.068.088.145.054.173-.03.023-.067.068-.113.102.364.078.82.112 1.388.112" fill="#ce1225"/></g></svg>