<svg xmlns="http://www.w3.org/2000/svg" viewBox="0 0 45 45"><defs><clipPath id="a"><path d="M0 36h36V0H0v36z"/></clipPath></defs><g clip-path="url(#a)" transform="matrix(1.25 0 0 -1.25 0 45)"><path d="M36 4a4 4 0 0 0-4-4H4a4 4 0 0 0-4 4v28a4 4 0 0 0 4 4h28a4 4 0 0 0 4-4V4z" fill="#3b88c3"/><path d="M15.087 15.62h5.891l-2.883 8.991h-.062l-2.946-8.992zm-.34 11.255c.526 1.426 1.735 2.573 3.317 2.573 1.643 0 2.791-1.085 3.317-2.573l6.078-16.867c.185-.496.248-.93.248-1.148 0-1.209-.993-2.046-2.139-2.046-1.303 0-1.954.682-2.264 1.612l-.93 2.915h-8.62l-.93-2.884c-.31-.96-.962-1.643-2.233-1.643-1.24 0-2.294.93-2.294 2.17 0 .496.155.868.217 1.024l6.232 16.867z" fill="#fff"/></g></svg>