<svg xmlns="http://www.w3.org/2000/svg" viewBox="0 0 45 45"><defs><clipPath id="a"><path d="M0 36h36V0H0v36z"/></clipPath><clipPath id="b"><path d="M4 31a4 4 0 0 1-4-4V9a4 4 0 0 1 4-4h28a4 4 0 0 1 4 4v18a4 4 0 0 1-4 4H4z"/></clipPath><clipPath id="c"><path d="M0 36h36V0H0v36z"/></clipPath></defs><g clip-path="url(#a)" transform="matrix(1.25 0 0 -1.25 0 45)"><path d="M36 9a4 4 0 0 0-4-4H4a4 4 0 0 0-4 4v18a4 4 0 0 0 4 4h28a4 4 0 0 0 4-4V9z" fill="#da121a"/></g><g clip-path="url(#b)" transform="matrix(1.25 0 0 -1.25 0 45)"><path d="M36 13H0v10h36V13z" fill="#fcdd0a"/><path d="M36 23H0v8h36v-8z" fill="#088930"/></g><g clip-path="url(#c)" transform="matrix(1.25 0 0 -1.25 0 45)"><path d="M27 18a9 9 0 0 0-9-9 9 9 0 0 0-9 9 9 9 0 0 0 9 9 9 9 0 0 0 9-9" fill="#0f47af"/><path d="M13.25 11.531l1.719 5.531-2.731 1.985h1.157l3.777-2.893-.594-.359-.922.83-1.469-4.407-.937-.687z" fill="#fcdd0a"/><path d="M22.61 11.531l-4.73 3.345-2.724-1.97.356 1.1 3.964 2.824.158-.676-1.127-.76 3.74-2.759.362-1.104z" fill="#fcdd0a"/><path d="M25.382 20.36l-4.52-3.372 1.013-3.223-.935.678-1.463 4.633.693-.059.395-1.272 3.7 2.647 1.117-.032z" fill="#fcdd0a"/><path d="M17.872 25.93l1.86-5.486 3.344-.051-.934-.68-4.548.038.271.642.98.06-1.328 4.37.355 1.107zM10.203 20.453h5.906l1.063 3.254.358-1.098L16.012 18l-.526.456.476 1.372-4.783-.029-.976.654zM18.146 10.041h-.417v3.646h.417v-3.646zM25.576 15.775l-.128-.396L22 16.534l.128.395 3.448-1.154z" fill="#fcdd0a"/><path d="M22.473 24.547l.337-.245-2.177-3.021-.337.244 2.177 3.022zM13.114 24.302l.337.245 2.174-3.02-.336-.246-2.175 3.021zM10.477 15.379l-.13.396 3.456 1.155.129-.397-3.455-1.154z" fill="#fcdd0a"/></g></svg>