<svg xmlns="http://www.w3.org/2000/svg" viewBox="0 0 45 45"><defs><clipPath id="a"><path d="M0 36h36V0H0v36z"/></clipPath></defs><g clip-path="url(#a)" transform="matrix(1.25 0 0 -1.25 0 45)"><path d="M36 9a4 4 0 0 0-4-4H4a4 4 0 0 0-4 4v18a4 4 0 0 0 4 4h28a4 4 0 0 0 4-4V9z" fill="#cf1b2b"/><path d="M19.019 19.425a1.383 1.383 0 1 0-2.766 0 1.383 1.383 0 0 0 2.766 0" fill="#f8dc15"/><path d="M19.019 18.684a1.383 1.383 0 1 0-2.766 0 1.383 1.383 0 0 0 2.766 0" fill="#f8dc15"/><path d="M9.858 23.89c.407.204 1.33-1.544 2.059-1.5.729.041 2.616 1.438 3.646 1.533 0 0 0 .44.857.44.859 0 .986-.432 1.073-.989 0 0 .685-1.07.986-1.886.3-.815.3-1.373.3-1.373s-.643-.643-1.03-.686c-.385-.043-1.457.343-1.457.343s-.214 1.626-.3 2.121l-.3.324s-.428-.472-1.201-.6c-.773-.129-1.973-.086-2.403-.172-.43-.086-.385-.643-.772-.6-.385.042-.085.9-.772 1.372-.686.472-1.201 1.416-.686 1.673" fill="#fff"/><path d="M11.628 21.108l.376-.327.48.124-.194-.458.266-.42-.495.045-.318-.383-.111.485-.462.184.428.254.03.496z" fill="#f8dc15"/><path d="M17.421 9.81c-.38.252.672 1.926.271 2.535-.402.61-2.555 1.545-3.152 2.39 0 0-.379-.22-.808.524-.429.742-.122 1.07.317 1.422 0 0 .586 1.13 1.142 1.797.555.67 1.038.947 1.038.947s.88-.236 1.11-.549c.23-.312.431-1.435.431-1.435s-1.3-.996-1.686-1.32l-.13-.421s.622-.135 1.12-.741c.498-.603 1.06-1.666 1.35-1.994.288-.328.75-.011.906-.37.156-.352-.738-.522-.803-1.352-.066-.83-.627-1.748-1.106-1.432" fill="#fff"/><path d="M18.946 12.734l.095.49-.348.356.494.058.23.442.209-.453.49-.082-.363-.34.07-.49-.432.242-.445-.223z" fill="#f8dc15"/><path d="M25.786 23.335c-.027-.456-2.003-.38-2.33-1.032-.327-.654-.062-2.986-.492-3.926 0 0 .38-.218-.05-.96-.43-.744-.866-.64-1.39-.437 0 0-1.27-.058-2.129.09-.856.147-1.338.425-1.338.425s-.235.88-.08 1.235c.155.356 1.026 1.092 1.026 1.092s1.515-.629 1.987-.8l.432.096s-.197.608.08 1.341c.273.734.912 1.752 1.052 2.166.14.415-.364.656-.134.97.23.313.822-.377 1.573-.018.753.358 1.828.331 1.793-.242" fill="#fff"/><path d="M22.492 23.194l-.47-.163-.135-.48-.298.399-.497-.021.287.407-.174.466.475-.145.39.308.007-.498.415-.273z" fill="#f8dc15"/></g></svg>