<svg xmlns="http://www.w3.org/2000/svg" viewBox="0 0 45 45"><defs><clipPath id="a"><path d="M0 36h36V0H0v36z"/></clipPath></defs><path d="M0 16.25h7.035L0 11.325v4.925zM5.83 38.75h10.42v-7.296L5.83 38.75zM28.75 31.455v7.295h10.419L28.75 31.455zM0 28.75v4.927l7.037-4.927H0zM39.171 6.25H28.75v7.296L39.17 6.25zM37.96 28.75L45 33.678v-4.927h-7.04zM37.964 16.25h7.037v-4.927l-7.037 4.927zM16.25 6.25H5.83l10.42 7.296V6.25z" fill="#00247d"/><g clip-path="url(#a)" transform="matrix(1.25 0 0 -1.25 0 45)"><path d="M25.14 13l9.712-6.801c.47.48.808 1.082.99 1.749L28.627 13H25.14zM13 13h-2.141L1.148 6.2a3.991 3.991 0 0 1 1.938-1.085L13 12.057V13zM23 23h2.141l9.711 6.8a3.993 3.993 0 0 1-1.937 1.085L23 23.943V23zM10.859 23l-9.711 6.8a3.994 3.994 0 0 1-.991-1.749L7.372 23h3.487z" fill="#cf1b2b"/><path d="M36 15H21V5h2v5.836L31.335 5H32a3.99 3.99 0 0 1 2.852 1.199L25.14 13h3.487l7.215-5.052c.093.337.158.686.158 1.052v.058L30.369 13H36v2zM0 15v-2h5.63L0 9.059V9c0-1.091.439-2.078 1.148-2.8l9.711 6.8H13v-.943L3.086 5.115C3.38 5.046 3.684 5 4 5h.664L13 10.837V5h2v10H0zM36 27a3.983 3.983 0 0 1-1.148 2.8L25.141 23H23v.943l9.915 6.942A4.001 4.001 0 0 1 32 31h-.663L23 25.163V31h-2V21h15v2h-5.629L36 26.941V27zM13 31v-5.837L4.664 31H4a3.985 3.985 0 0 1-2.852-1.2l9.711-6.8H7.372L.157 28.051A3.968 3.968 0 0 1 0 27v-.059L5.628 23H0v-2h15v10h-2z" fill="#eee"/><path d="M21 21v10h-6V21H0v-6h15V5h6v10h15v6H21z" fill="#cf1b2b"/></g></svg>