<svg xmlns="http://www.w3.org/2000/svg" viewBox="0 0 45 45"><defs><clipPath id="a"><path d="M0 36h36V0H0v36z"/></clipPath></defs><path d="M20 6.25V20h25v-2.5H22.5V6.25H20zM20 25v13.75h2.5V27.5H45V25H20zM0 25v2.5h13.75v11.25h2.5V25H0zM13.75 6.25V17.5H0V20h16.25V6.25h-2.5z" fill="#ffce00"/><path d="M16.25 6.25V20H0v5h16.25v13.75H20V25h25v-5H20V6.25h-3.75z" fill="#d21034"/><g clip-path="url(#a)" transform="matrix(1.25 0 0 -1.25 0 45)"><path d="M18 14V5h14a4 4 0 0 1 4 4v5H18zM0 14V9a4 4 0 0 1 4-4h7v9H0zM11 31H4a4 4 0 0 1-4-4v-5h11v9zM32 31H18v-9h18v5a4 4 0 0 1-4 4" fill="#0053a5"/></g></svg>