<svg xmlns="http://www.w3.org/2000/svg" viewBox="0 0 45 45"><defs><clipPath id="a"><path d="M0 36h36V0H0v36z"/></clipPath></defs><g clip-path="url(#a)" transform="matrix(1.25 0 0 -1.25 0 45)"><path d="M0 9a4 4 0 0 1 4-4h28a4 4 0 0 1 4 4v4H0V9z" fill="#171796"/><path d="M0 13h36v10H0V13z" fill="#eee"/><path d="M32 31H4a4 4 0 0 1-4-4v-4h14v-7a4 4 0 0 1 8 0v7h14v4a4 4 0 0 1-4 4" fill="#d52b1e"/><path d="M17 21h-2v2h2v-2zM19 19h-2v2h2v-2zM21 21h-2v2h2v-2zM21 17h-2v2h2v-2zM17 17h-2v2h2v-2zM19 15h-2v2h2v-2zM17 13.184V15h-1.816A2.99 2.99 0 0 1 17 13.184M19 13.184A2.987 2.987 0 0 1 20.816 15H19v-1.816z" fill="#eee"/><path d="M18 24.098c.287 0 .57-.018.852-.043l.159 1.843-1.011.9-1.011-.9.159-1.843c.282.025.564.043.852.043M22.17 23.168l.78 1.68-.64 1.19-1.26-.499-.48-1.79a9.844 9.844 0 0 0 1.6-.581M15.428 23.749l-.48 1.79-1.258.5-.643-1.191.781-1.681a9.785 9.785 0 0 0 1.6.582" fill="#0193dd"/><path d="M22.11 23.333a10.02 10.02 0 0 1-1.387.504l.432 1.609 1.097.435.56-1.038-.703-1.51zm-4.848.857l-.143 1.657.881.784.88-.784-.143-1.657a9.351 9.351 0 0 1-.737.033c-.267 0-.525-.016-.738-.033m-3.373-.857l-.702 1.51.56 1.039 1.095-.436.433-1.61a9.831 9.831 0 0 1-1.386-.503m8.48 2.862l-1.293-.511-.859 1.087-1.182-.727-1.035.922-1.037-.923-1.18.729-.86-1.089-1.29.513-.726-1.344.861-1.851.113.053a9.721 9.721 0 0 0 1.58.574l.025.007a9.686 9.686 0 0 0 1.632.292l.041.004a12.09 12.09 0 0 0 1.681 0l.037-.003a9.802 9.802 0 0 0 1.64-.294l.021-.005a9.803 9.803 0 0 0 1.58-.575l.112-.053.86 1.85-.722 1.344z" fill="#171796"/></g></svg>