<svg xmlns="http://www.w3.org/2000/svg" viewBox="0 0 45 45"><defs><clipPath id="a"><path d="M0 36h36V0H0v36z"/></clipPath></defs><path d="M25.25 24.761h1.166l-.584-1.011-.582 1.011zM21.916 26.011l.584 1.011.584-1.01h-1.168z" fill="#edecec"/><path d="M0 31.25h45v-17.5H0v17.5z" fill="#eee"/><g clip-path="url(#a)" transform="matrix(1.25 0 0 -1.25 0 45)"><path d="M.293 28.5h35.413A4 4 0 0 1 32 31H4a4 4 0 0 1-3.705-2.5" fill="#eee"/><path d="M21.133 19.809h-.934l.467-.808.467.808zM15.8 19.809h-.933l.467-.808.467.808zM19.044 16.191l1.044 1.81-1.044 1.807h-2.089L15.913 18l1.043-1.809h2.09zM15.334 17l-.467-.808h.934l-.467.808zM18 21.618l-.467-.81h.934l-.467.81z" fill="#edecec"/><path d="M.293 28.5A3.982 3.982 0 0 1 0 27v-2h36v2c0 .531-.106 1.036-.294 1.5H.294z" fill="#0038b8"/><path d="M.293 7.5h35.413A4 4 0 0 0 32 5H4A4 4 0 0 0 .294 7.5" fill="#eee"/><path d="M.293 7.5A3.982 3.982 0 0 0 0 9v2h36V9c0-.531-.106-1.036-.294-1.5H.293zM15.334 17l.467-.808h-.934l.467.808zm.467 2.809l-.467-.81-.467.81h.934zm1.155 0h2.089l1.044-1.81-1.044-1.807h-2.09L15.912 18l1.045 1.809zM18 21.618l.467-.81h-.934l.467.81zM20.666 17l.467-.808h-.934l.467.808zm.467 2.809l-.467-.81-.467.81h.934zM18 14.383l-.467.809h.934l-.467-.81zm-1.622.809L18 12.382l1.622 2.81h3.243L21.244 18l1.62 2.809h-3.242L18 23.618l-1.622-2.81h-3.243L14.755 18l-1.62-2.808h3.243z" fill="#0038b8"/></g></svg>