<svg xmlns="http://www.w3.org/2000/svg" viewBox="0 0 45 45"><defs><clipPath id="a"><path d="M0 36h36V0H0v36z"/></clipPath></defs><g clip-path="url(#a)" transform="matrix(1.25 0 0 -1.25 0 45)"><path d="M36 4a4 4 0 0 0-4-4H4a4 4 0 0 0-4 4v28a4 4 0 0 0 4 4h28a4 4 0 0 0 4-4V4z" fill="#3b88c3"/><path d="M23.102 13.201c0-5.209-3.318-6.573-6.14-6.573-2.14 0-5.704.837-5.704 3.534 0 .838.713 1.891 1.736 1.891 1.24 0 2.325-1.147 3.72-1.147 1.737 0 1.737 1.613 1.737 2.606v13.332c0 1.55.993 2.418 2.325 2.418 1.334 0 2.326-.868 2.326-2.418V13.201z" fill="#fff"/></g></svg>