<svg xmlns="http://www.w3.org/2000/svg" viewBox="0 0 45 45"><defs><clipPath id="a"><path d="M0 36h36V0H0v36z"/></clipPath><clipPath id="b"><path d="M4 31a4 4 0 0 1-4-4V9a4 4 0 0 1 4-4h28a4 4 0 0 1 4 4v18a4 4 0 0 1-4 4H4z"/></clipPath><clipPath id="c"><path d="M0 36h36V0H0v36z"/></clipPath></defs><g clip-path="url(#a)" transform="matrix(1.25 0 0 -1.25 0 45)"><path d="M36 9a4 4 0 0 0-4-4H4a4 4 0 0 0-4 4v18a4 4 0 0 0 4 4h28a4 4 0 0 0 4-4V9z" fill="#e41e20"/></g><g clip-path="url(#b)" transform="matrix(1.25 0 0 -1.25 0 45)"><path d="M36 9a4 4 0 0 0-4-4H4a4 4 0 0 0-4 4v18a4 4 0 0 0 4 4h28a4 4 0 0 0 4-4V9z" fill="#e41e20"/></g><g clip-path="url(#c)" transform="matrix(1.25 0 0 -1.25 0 45)"><path d="M20.588 25.44a.513.513 0 0 1-.28-.058c-.093-.056-.096-.14-.007-.2.129-.086.432-.083.555.006.09.065.089.144-.007.198a.505.505 0 0 1-.261.055m-5.315 0a.495.495 0 0 1-.222-.048c-.042-.021-.082-.05-.084-.103-.001-.053.035-.088.078-.11a.582.582 0 0 1 .53-.002c.107.052.104.148.002.208-.084.049-.176.055-.304.055m-2.868-10.915c-.32.022-.622.039-.923.059a.091.091 0 0 1-.07-.02c-.175-.142-.366-.137-.564-.056-.011.005-.023.008-.033.015-.156.097-.313.18-.5.054a.324.324 0 0 0 .28.23c.038.006.072.009.1.04.234.257.474.22.703.007a.333.333 0 0 1 .256-.1c.246.005.493.002.74.002.002-.01.003.003-.002.007-.125.117-.253.232-.376.352-.041.04-.08.049-.133.033a.592.592 0 0 0-.251-.02.368.368 0 0 0-.313.208c-.084.179-.23.246-.411.262-.011 0-.022.004-.046.009.116.117.247.153.39.109a.545.545 0 0 1 .348-.013c.16.053.265-.008.324-.17a.458.458 0 0 1 .204-.24c.208-.132.412-.271.616-.41a.154.154 0 0 1 .138-.022c.503.136 1.007.267 1.51.4a.553.553 0 0 1 .08.024c.003.037-.026.049-.045.068-.093.096-.19.19-.283.287-.086.087-.061.185.056.22.099.028.199.05.3.075.82.194 1.34.707 1.59 1.504a.447.447 0 0 1 .016.268c-.018.057-.052.102-.114.113-.062.012-.111-.02-.142-.07a1.104 1.104 0 0 1-.078-.158c-.148-.356-.343-.673-.668-.895a.365.365 0 0 0-.358-.028c-.09.035-.103.103-.05.182a.358.358 0 0 0 .108.102c.272.19.392.47.46.78.029.13-.055.265-.173.293-.111.029-.233-.053-.275-.185-.057-.182-.105-.366-.17-.545a1.57 1.57 0 0 0-.841-.91c-.156-.073-.302-.033-.425.079-.104.094-.101.212 0 .31a.544.544 0 0 0 .166.1c.287.127.54.292.677.589a.94.94 0 0 1 .069.567c-.025.13-.102.162-.221.103a.499.499 0 0 1-.15-.125c-.492-.54-.98-1.085-1.506-1.593-.342-.331-.923-.465-1.413-.09a.467.467 0 0 0-.16.228c-.06.176.03.306.216.314.068.004.136-.01.205-.013.529-.025.977.163 1.362.518.3.277.54.605.757.949a.62.62 0 0 1 .104.345c-.001.09-.045.117-.127.075a.494.494 0 0 1-.16-.143c-.341-.418-.747-.753-1.255-.95-.268-.104-.546-.156-.834-.085-.222.054-.386.348-.321.568.028.099.115.144.232.113.135-.036.27-.072.412-.08.422-.023.79.12 1.125.364.277.202.512.449.722.718a.51.51 0 0 1 .102.334c-.003.12-.075.168-.19.135a.444.444 0 0 1-.152-.09c-.394-.31-.807-.588-1.293-.738a1.094 1.094 0 0 0-.508-.05c-.233.04-.42.23-.44.45-.018.218.11.345.328.326.084-.006.168-.016.252-.024.466-.044.873.1 1.24.38.185.143.367.29.544.445a.309.309 0 0 1 .113.188c.008.044.01.09-.03.122s-.082.018-.123.002a.333.333 0 0 1-.058-.033 3.28 3.28 0 0 0-1.398-.496 1.385 1.385 0 0 0-.521.03.45.45 0 0 0-.355.39c-.031.198.1.346.292.333a.44.44 0 0 0 .198-.05c.386-.232.775-.188 1.166-.018.28.12.536.282.785.454a.306.306 0 0 1 .118.143c.03.076.025.148-.036.207-.06.057-.13.057-.2.023-.146-.073-.29-.147-.442-.205a2.463 2.463 0 0 0-.98-.173c-.471.02-.836.319-.915.75a.377.377 0 0 0 .005.168c.033.115.12.167.236.14a.473.473 0 0 0 .213-.112c.462-.401.973-.44 1.52-.212.158.064.296.162.442.246.01.006.02.015.029.024.077.076.124.21.085.27-.063.097-.163.066-.248.049a3.468 3.468 0 0 0-1.1-.067c-.27.03-.531.1-.765.25a.92.92 0 0 0-.403.577.343.343 0 0 0 .026.247c.06.122.175.169.304.12a.517.517 0 0 0 .179-.117c.345-.34.77-.473 1.24-.493.15-.006.3-.005.45-.004a.298.298 0 0 1 .236.116.218.218 0 0 1 .038.237.21.21 0 0 1-.197.136c-.59.008-1.107.232-1.597.53-.332.2-.592.469-.713.85a.565.565 0 0 0 .073.5c.14.214.333.21.465-.008a2.813 2.813 0 0 1 1.943-1.321c.052-.01.08-.001.107.046a.403.403 0 0 0 .103.119.165.165 0 0 0 .175.03 15.262 15.262 0 0 0 1.763-.823c.049-.027.068-.068.069-.123a.906.906 0 0 0-.061-.292.855.855 0 0 1 .003-.543c.089-.298.294-.432.626-.423.25.006.456.234.498.518.05.339-.044.635-.25.903a2.059 2.059 0 0 1-1.227.768c-.248.053-.493.112-.74.168a.898.898 0 0 0-.351.146c-.047.037-.091.075-.097.152.099-.018.187-.056.276-.09a.552.552 0 0 1 .589.11c-.05.029-.096.02-.14.017a3.137 3.137 0 0 0-.922.058c-.158.037-.304.093-.417.215a.393.393 0 0 0-.097.148c-.021.07-.03.148.038.197.069.05.13.004.186-.038a.433.433 0 0 0 .085-.086c.188-.26.463-.335.76-.36.128-.01.257-.014.382.023-.07.155-.366.33-.528.312-.101-.011-.16-.086-.228-.153-.055.194.03.357.217.416.153.048.309.034.464.013.044-.006.064-.004.08.044.033.086.114.12.193.15.309.114.615.1.915-.021a4.537 4.537 0 0 1 1.306-.3c-.147-.15-.323-.242-.49-.37.295-.126.538-.303.746-.577h-.475l-.006-.033c.285-.1.584-.17.802-.417-.075-.017-.14-.031-.205-.048-.061-.015-.085-.044-.03-.094.195-.17.355-.37.532-.554.035-.036.058-.057.104-.01.18.19.345.396.543.57.045.039.033.07-.022.084a7.804 7.804 0 0 1-.216.052.976.976 0 0 0 .377.265c.138.056.28.103.42.153 0 .009.003.017.003.026h-.454l-.006.032c.188.247.429.425.727.55-.166.128-.34.222-.488.365.17.025.333.043.494.072.272.048.534.124.79.227.289.118.588.143.889.045.102-.034.21-.071.248-.192.013-.045.045-.021.068-.018.13.014.26.028.393.005.228-.04.338-.194.297-.423-.03-.01-.036.018-.05.03-.118.123-.214.144-.371.079a1.093 1.093 0 0 1-.358-.27.393.393 0 0 1 .15-.034c.185-.012.368.007.547.053a.72.72 0 0 1 .4.242c.056.068.11.137.189.182.109.064.193.014.194-.111a.268.268 0 0 0-.05-.15c-.136-.205-.348-.264-.573-.311a3.223 3.223 0 0 0-.82-.037.46.46 0 0 1-.137-.012c.133-.12.279-.19.458-.144.132.033.26.078.4.12-.01-.08-.052-.12-.102-.156-.155-.114-.337-.14-.518-.181-.334-.076-.674-.135-.992-.268a1.886 1.886 0 0 1-.954-.874 1.014 1.014 0 0 1-.081-.747c.064-.25.266-.424.493-.434.28-.012.5.123.594.377a.861.861 0 0 1 .022.588.962.962 0 0 0-.062.282c-.002.065.02.11.08.144a15.4 15.4 0 0 0 1.738.81c.106.042.183.015.266-.11.046-.07.089-.09.173-.073.79.158 1.41.569 1.854 1.24.03.045.055.092.088.133.104.133.242.145.36.025a.534.534 0 0 0 .152-.516 1.164 1.164 0 0 0-.371-.628c-.54-.476-1.167-.758-1.892-.808-.162-.01-.26-.075-.274-.197-.014-.135.086-.28.238-.287.582-.028 1.154-.01 1.634.392.056.048.11.1.169.147.126.097.244.113.336.049.102-.068.147-.225.11-.363-.11-.411-.403-.624-.787-.737-.483-.141-.97-.11-1.455-.014a.74.74 0 0 1-.14.016c-.122 0-.171-.066-.135-.183.034-.108.114-.17.209-.227.188-.116.378-.217.592-.274a1.308 1.308 0 0 1 1.245.269.602.602 0 0 0 .24.139c.122.028.21-.025.243-.145a.325.325 0 0 0 .004-.158.9.9 0 0 0-.762-.736c-.382-.063-.745.015-1.102.144a3.45 3.45 0 0 0-.434.196c-.117.059-.2.05-.255-.021-.06-.076-.05-.184.033-.272.103-.107.234-.176.359-.253.247-.154.502-.29.786-.363.289-.075.564-.05.825.096a.601.601 0 0 0 .203.068c.222.034.372-.12.33-.341a.447.447 0 0 0-.357-.378c-.29-.074-.576-.036-.862.029a3.312 3.312 0 0 0-1.041.43c-.06.039-.122.09-.195.035-.05-.034-.038-.144.015-.225a.255.255 0 0 1 .054-.064c.238-.208.48-.41.744-.584.354-.234.742-.295 1.155-.25.082.01.16.025.244.015.142-.018.228-.11.237-.254.019-.248-.18-.48-.443-.52-.285-.045-.543.047-.797.159-.366.16-.694.38-1.003.63a.364.364 0 0 1-.19.095c-.083.01-.134-.026-.145-.11a.478.478 0 0 1 .09-.354c.268-.344.569-.656.954-.874.399-.224.819-.288 1.262-.153.21.064.32-.024.288-.245-.05-.324-.17-.41-.431-.442-.356-.044-.68.058-.99.222a3.168 3.168 0 0 0-.997.836.46.46 0 0 1-.152.136c-.087.046-.131.022-.134-.076a.592.592 0 0 1 .096-.32c.248-.404.527-.782.9-1.082a1.76 1.76 0 0 1 1.354-.394c.107.012.21.003.279-.094.069-.097.037-.2-.016-.291-.126-.218-.34-.311-.57-.356a1.055 1.055 0 0 0-.98.3c-.522.507-1.008 1.049-1.498 1.587a.502.502 0 0 1-.145.119c-.122.063-.201.032-.223-.106a.929.929 0 0 1 .17-.734c.15-.198.356-.322.579-.418a.482.482 0 0 0 .178-.116c.08-.088.08-.19 0-.278a.377.377 0 0 0-.434-.095 1.555 1.555 0 0 0-.846.907c-.065.175-.113.356-.168.535-.045.146-.166.23-.283.198-.128-.035-.197-.18-.162-.324.073-.314.212-.586.484-.774.063-.043.129-.1.1-.185-.028-.086-.116-.094-.194-.101a.357.357 0 0 0-.255.068c-.313.223-.503.532-.65.879a1.059 1.059 0 0 1-.076.159c-.03.049-.077.084-.14.074-.066-.01-.1-.057-.12-.12a.447.447 0 0 1 .02-.265c.248-.79.763-1.302 1.574-1.498.104-.027.207-.047.309-.077.124-.035.149-.134.058-.225-.111-.111-.225-.221-.352-.347.23-.063.437-.12.644-.173.325-.086.653-.168.978-.256a.14.14 0 0 1 .13.02c.238.162.477.32.717.479.046.029.064.074.08.119.095.239.206.29.447.199.054-.021.097-.011.149.01.173.069.338.07.492-.078-.064-.013-.118-.018-.171-.032a.398.398 0 0 1-.27-.213c-.102-.204-.293-.285-.548-.223-.084.02-.14.004-.196-.054-.115-.113-.236-.223-.353-.335.014-.028.039-.017.059-.016.259.007.519.016.777.022a.148.148 0 0 1 .115.05.78.78 0 0 0 .173.14c.19.116.362.106.523-.046a.358.358 0 0 1 .199-.105c.118-.017.19-.096.242-.2-.01-.004-.015-.011-.02-.01-.153.07-.29.052-.438-.038-.21-.126-.436-.153-.646.019-.026.018-.051.017-.08.016l-.9-.06c.035-.056.09-.072.134-.101.152-.102.3-.162.505-.13.299.052.494-.1.586-.39.046-.148.109-.293.109-.453 0-.044 0-.086-.01-.131-.053.106-.102.212-.194.292-.043.039-.084.062-.15.044a.565.565 0 0 0-.232-.016c-.19.026-.294.115-.33.302-.01.063-.041.093-.088.122-.113.069-.235.113-.356.166-.08.035-.164.064-.234.114-.078.057-.143.052-.225.02-.142-.053-.288-.098-.434-.144-.044-.016-.073-.036-.093-.081-.098-.218-.271-.31-.507-.276-.032.004-.062.013-.093.012-.211-.007-.335-.01-.368-.265-.095.112-.091.276.024.393.073.075.136.15.193.238.087.137.235.178.395.113a.21.21 0 0 1 .178.002c.144.059.27.152.44.202a5.54 5.54 0 0 1-.626.173c-.322.075-.645.144-.961.244-.05.016-.086.004-.124-.033a11.69 11.69 0 0 0-.338-.295c-.123-.106-.2-.096-.29.038-.216.322-.384.67-.594.997a3.411 3.411 0 0 1-.511.595.667.667 0 0 1-.183.129c-.195.096-.371.028-.444-.178-.068-.191-.042-.385.018-.571.162-.491.455-.892.867-1.204.116-.09.244-.163.366-.243a.712.712 0 0 1 .53-.1c.13.022.26.029.387-.026.144-.061.174-.162.079-.288a.472.472 0 0 0-.186-.151 1.108 1.108 0 0 0-.603-.094.549.549 0 0 0-.281.138c-.097.079-.19.164-.282.246-.082.07-.168.078-.237.018a.17.17 0 0 1-.021-.238c.285-.354.594-.67 1.093-.686a.522.522 0 0 0 .165-.038c.147-.06.167-.177.04-.28a.694.694 0 0 0-.553-.141c-.273.04-.485.189-.68.372-.075.07-.145.145-.222.215-.033.032-.077.06-.126.033-.043-.023-.045-.071-.05-.114-.011-.121.044-.225.088-.331.15-.365.403-.584.819-.578.165.002.223-.124.132-.265a.53.53 0 0 0-.753-.126c-.235.17-.368.418-.49.673-.02.042-.04.085-.071.12-.063.07-.134.068-.19-.006a.41.41 0 0 1-.078-.256c-.003-.286.113-.527.295-.738.084-.098.173-.191.272-.272.053-.043.056-.073.018-.13-.283-.42-.56-.842-.84-1.264a12.304 12.304 0 0 1-.197-.307c-.024-.04-.041-.048-.071-.002-.347.529-.696 1.058-1.047 1.586-.03.048-.024.073.017.107.144.125.28.26.387.42.119.175.185.365.19.579.002.05-.003.1-.02.148-.024.08-.048.172-.15.18-.098.01-.13-.081-.164-.153-.121-.255-.255-.502-.486-.678a.524.524 0 0 0-.774.142c-.071.127-.016.232.13.242.087.006.175.006.26.027a.731.731 0 0 1 .42.28c.106.14.177.3.226.47.025.082.048.19-.035.24-.085.054-.147-.038-.201-.094-.134-.135-.268-.271-.433-.37-.263-.157-.536-.22-.83-.085a.417.417 0 0 0-.157.114c-.072.086-.055.17.044.224.06.035.128.055.196.056.293.005.536.126.752.315.119.102.224.218.325.338.03.036.05.077.055.126a.161.161 0 0 1-.084.165.156.156 0 0 1-.184-.017c-.07-.058-.14-.115-.202-.182-.256-.27-.56-.28-.89-.17a.55.55 0 0 0-.293.204c-.08.118-.054.214.076.27a.621.621 0 0 0 .385.033.789.789 0 0 1 .565.11c.514.297.904.703 1.143 1.249.098.222.154.45.104.692-.057.277-.277.37-.515.213-.26-.175-.452-.42-.628-.675-.18-.266-.32-.557-.49-.83-.041-.065-.083-.133-.126-.198-.076-.114-.157-.128-.264-.041-.122.104-.24.21-.358.315-.033.03-.062.046-.108.033-.441-.141-.897-.22-1.342-.34-.081-.022-.161-.048-.262-.08.154-.05.273-.123.398-.184.08-.04.156-.054.249-.015.154.06.3.006.386-.14a.979.979 0 0 1 .162-.2c.126-.121.139-.281.037-.418-.02.085-.014.176-.1.222a.495.495 0 0 1-.31.047c-.303-.04-.422.019-.566.289-.017.032-.041.044-.071.053l-.514.174c-.03.01-.058.02-.088-.001-.144-.105-.312-.156-.472-.227-.051-.023-.1-.051-.151-.075a.212.212 0 0 1-.132-.164c-.04-.19-.17-.282-.374-.284-.034 0-.071-.003-.102.009-.172.06-.261-.04-.337-.167-.03-.051-.052-.105-.08-.158-.02.016-.013.036-.014.053-.01.25.07.48.187.696.114.209.323.273.54.226a.478.478 0 0 1 .412.094c.06.044.135.067.203.137" fill-rule="evenodd"/><path d="M15.273 25.44c.128 0 .22-.005.305-.054.1-.06.105-.156-.001-.208a.584.584 0 0 0-.532.003c-.042.02-.078.056-.077.109 0 .053.04.082.084.103.08.04.166.049.22.048M20.588 25.44c.09 0 .18-.007.26-.054.097-.054.099-.133.008-.198-.123-.09-.426-.092-.555-.005-.09.06-.086.143.007.199a.513.513 0 0 0 .28.059" fill="#dd2e44" fill-rule="evenodd"/></g></svg>