<svg xmlns="http://www.w3.org/2000/svg" viewBox="0 0 45 45"><defs><clipPath id="a"><path d="M0 36h36V0H0v36z"/></clipPath><clipPath id="b"><path d="M4 31a4 4 0 0 1-4-4v-9h19v13H4z"/></clipPath><clipPath id="c"><path d="M0 36h36V0H0v36z"/></clipPath></defs><g clip-path="url(#a)" transform="matrix(1.25 0 0 -1.25 0 45)"><path d="M36 9a4 4 0 0 0-4-4H4a4 4 0 0 0-4 4v18a4 4 0 0 0 4 4h28a4 4 0 0 0 4-4V9z" fill="#00247d"/><path d="M19 31H4a4 4 0 0 1-4-4v-9h19v13z" fill="#00247d"/><path d="M19 18v2.029L11.9 25H6.671l9.997-7H19z" fill="#eee"/><path d="M19 19.418L11.029 25H9.286L19 18.198v1.22z" fill="#cf1b2b"/><path d="M8.1 25L0 19.234V18h3.332l9.998 7H8.1z" fill="#eee"/><path d="M10.714 25l-9.98-7H2.46l9.998 7h-1.744z" fill="#cf1b2b"/><path d="M16.669 31l-9.997-7H11.9L19 28.971V31h-2.331z" fill="#eee"/><path d="M17.54 31l-9.997-7h1.743L19 30.802V31h-1.46z" fill="#cf1b2b"/></g><g clip-path="url(#b)" transform="matrix(1.25 0 0 -1.25 0 45)"><path d="M10 24h3.328l-9.996 7H1l-.625-1.594L10 22.669V24z" fill="#eee"/><path d="M10 24h.714L1 30.802l-.5-.865 9.5-6.659V24z" fill="#cf1b2b"/></g><g clip-path="url(#c)" transform="matrix(1.25 0 0 -1.25 0 45)"><path d="M19 27h-7v4H7v-4H0v-5h7v-4h5v4h7v5z" fill="#eee"/><path d="M11 18H8v13h3V18z" fill="#cf1b2b"/><path d="M19 23H0v3h19v-3z" fill="#cf1b2b"/><path d="M33.938 23.676s-1.469-.51-3.113-.51c-1.643 0-2.879.854-2.879.854s-1.233-.854-2.877-.854c-1.645 0-3.195.51-3.195.51-.154-4.12.1-8.458 1.61-10.73C25.108 10.502 27.946 9 27.946 9s2.754 1.502 4.378 3.946c1.512 2.272 1.768 6.61 1.614 10.73" fill="#cccc32"/><path d="M33.416 23.189s-1.175-.44-2.734-.44c-1.563 0-2.736.782-2.736.782s-1.171-.781-2.731-.781c-1.562 0-2.732.439-2.732.439-.147-3.901 0-7.901 1.512-9.998 1.513-2.1 3.951-3.562 3.951-3.562s2.444 1.463 3.956 3.562c1.511 2.097 1.66 6.097 1.514 9.998" fill="#fff"/><path d="M26.58 22.603s.05-.683.341-.926c0 0 .732.146 1.317-.098.463-.193 1.318-.536 1.756-.39.44.146.83.292.928.195.097-.097-.489-.244-.587-.341-.098-.098-.438-.196-.243-.488.196-.293.537-.536.44-.829 0 0-.44.341-.635.633-.196.293-.634.537-1.367.44-.73-.098-1.315-.488-1.413-.927-.098-.439.44-.39.877-.488 0 0-.634-.244-.975-.244 0 0-.292-.536-.585-1.024-.292-.488-.342-.781-.488-.732-.146.049-.196.732-.097 1.122 0 0-.34.196-.293 1.171.042.833.633 1.61.633 1.61s-.047.292 0 .633c.05.342.391.683.391.683" fill="#f90"/><path d="M26.044 19.165a.17.17 0 0 0-.171-.171.17.17 0 1 0 0 .341.17.17 0 0 0 .17-.17" fill="#fff"/><path d="M25.024 14.273s.5.47.502.85c0 0-.575.474-.757 1.083-.143.48-.417 1.358-.807 1.606-.392.248-.75.458-.739.595.015.137.498-.223.636-.238.137-.013.428-.217.532.12.104.336.076.755.365.864 0 0 .013-.556-.09-.892-.104-.336-.015-.83.522-1.336.54-.505 1.211-.712 1.613-.51.403.203.026.587-.177.989 0 0 .59-.337.806-.603 0 0 .602.114 1.163.196.564.08.821.228.875.084.055-.144-.443-.614-.808-.786 0 0 .066-.386-.72-.965-.674-.496-1.649-.528-1.649-.528s-.195-.222-.492-.4c-.295-.178-.775-.13-.775-.13" fill="#f90"/><path d="M28.027 16.031a.171.171 0 0 0 .216-.266.171.171 0 1 0-.216.266" fill="#fff"/><path d="M32.781 17.17s-.637.256-.983.1c0 0-.189-.721-.664-1.141-.377-.334-1.059-.95-1.12-1.408-.06-.46-.1-.874-.23-.92-.13-.044-.006.546-.05.677-.046.129.016.48-.333.432-.348-.047-.718-.247-.937-.032 0 0 .5.246.847.294.348.046.76.335.993 1.034.233.702.138 1.399-.214 1.678-.35.28-.543-.224-.824-.577 0 0 .06.679.208.986 0 0-.353.498-.664.974-.31.477-.552.649-.444.759.107.11.744-.145 1.051-.404 0 0 .326.222 1.181-.248.732-.404 1.168-1.276 1.168-1.276s.286-.084.572-.278c.285-.193.443-.65.443-.65" fill="#f90"/><path d="M29.925 19.159a.17.17 0 1 0 .148.307.17.17 0 0 0-.148-.307" fill="#fff"/><path d="M23.77 13.53c.071-.118.146-.232.225-.34 1.512-2.099 3.951-3.56 3.951-3.56s2.443 1.461 3.956 3.56c.079.108.152.222.223.34h-8.354z" fill="#9cf"/></g></svg>