<svg xmlns="http://www.w3.org/2000/svg" viewBox="0 0 45 45"><defs><clipPath id="a"><path d="M0 36h36V0H0v36z"/></clipPath></defs><g clip-path="url(#a)" transform="matrix(1.25 0 0 -1.25 0 45)"><path d="M0 18V9a4 4 0 0 1 4-4h28a4 4 0 0 1 4 4v9H0z" fill="#141414"/><path d="M36 18v9a4 4 0 0 1-4 4H4a4 4 0 0 1-4-4v-9h36z" fill="#ce1b26"/><path d="M17.452 22.355l.602-1.222 1.349-.196-.976-.95.23-1.343-1.205.634-1.206-.634.23 1.343-.975.95 1.348.195.603 1.222zM15.156 18.813c.344-.562 3.172-3.516 5.922-5.234.36-.236 1.344-.986 1.72-1.25-.158-.204-.376-.5-.61-.75-.39.311-3.969 2.514-5.14 3.108-1.173.595-2.236 1.626-2.236 2.61 0 .985.344 1.516.344 1.516M22.984 12.203a12.23 12.23 0 0 0-.594-.78c.313-.048 1.11-.439 1.516-1.283.406-.843 1.141-.406 1.078.047-.063.454-.953 1.438-2 2.016" fill="#f9d616"/><path d="M23.438 11.508a.18.18 0 1 0-.36 0c0 .1.08.18.18.18.1 0 .18-.08.18-.18M24.438 10.508a.18.18 0 1 0-.36 0c0 .1.08.18.18.18.1 0 .18-.08.18-.18" fill="#292f33"/><path d="M17.89 15.281l4.657-3.172" fill="none" stroke="#292f33" stroke-width=".3" stroke-linecap="round" stroke-miterlimit="10"/><path d="M24.826 17.352l.008 1.295-1.085-.007c-.04.417-.126.82-.244 1.21l.971.388-.437 1.22-1.046-.416a6.244 6.244 0 0 1-.614.91l.7.797-.995.832-.625-.71c-.31.25-.64.472-.994.66l.454.967-1.213.457-.442-.935a6.223 6.223 0 0 1-1.105.214l-.138-1.347c2.495-.257 4.448-2.34 4.448-4.903 0-1.508-.688-2.842-1.75-3.75l.551-.383 1.365-1.015.532.578-.833.618c.252.303.476.627.668.974l1.006-.408.5 1.195-1 .406a6.2 6.2 0 0 1 .237 1.146l1.081.007zM19.896 12.232l-.412.8-.51.242a4.897 4.897 0 0 0-1.459-.243 4.909 4.909 0 0 0-3.139 1.15l-.832-.978c.308-.255.645-.473 1-.665l-.447-.959 1.196-.503.45.971a6.271 6.271 0 0 1 1.068-.218l-.008-1.01 1.296.014.007.96c.404.04.797.115 1.175.226l.345-.994.687.203-.431 1 .015.004" fill="#f9d616"/></g></svg>