<svg xmlns="http://www.w3.org/2000/svg" viewBox="0 0 45 45"><defs><clipPath id="a"><path d="M0 36h36V0H0v36z"/></clipPath></defs><g clip-path="url(#a)" transform="matrix(1.25 0 0 -1.25 0 45)"><path d="M36 9a4 4 0 0 0-4-4H4a4 4 0 0 0-4 4v5h36V9z" fill="#da1c0b"/><path d="M32 31H4a4 4 0 0 1-4-4V13h36v14a4 4 0 0 1-4 4" fill="#eee"/><path d="M14.451 25.637v-.778h-.778v.778h-1.557v-.778h-.779v.778h-.778v-1.558h.778v-3.891h3.114v3.892h.779v1.557h-.779z" fill="#da1c0b"/><path d="M15.24 21.745v-.778h-.778v.778h-.778v-.778h-1.557v.778h-.78v-.778h-.777v.778h-.778v-1.558.002-.001h.778v-4.254l-.778-.416v-.778h6.227v.778l-.778.416v4.254h.778v1.557h-.778z" fill="#da1c0b"/><path d="M13.673 20.967h-1.557v1.557h1.557v-1.557z"/><path d="M13.673 22.523a.778.778 0 1 0-1.555 0 .778.778 0 0 0 1.555 0M13.673 17.62c0 .621-.157 1.125-.778 1.125s-.78-.504-.78-1.125v-1.325h1.558v1.325z"/><path d="M24.91 25.637v-.778h-.778v.778h-1.557v-.778h-.778v.778h-.78v-1.558h.781v-3.891h3.112v3.892h.78v1.557h-.78z" fill="#da1c0b"/><path d="M25.69 21.745v-.778h-.78v.778h-.779v-.778h-1.556v.778h-.779v-.778h-.779v.778h-.777v-1.558.002-.001h.777v-4.254l-.777-.416v-.778h6.226v.778l-.777.416v4.254h.777v1.557h-.777z" fill="#da1c0b"/><path d="M24.132 20.967h-1.557v1.557h1.557v-1.557z"/><path d="M24.132 22.523a.778.778 0 1 0-1.557 0 .778.778 0 0 0 1.557 0M24.132 17.62c0 .621-.157 1.125-.778 1.125s-.78-.504-.78-1.125v-1.325h1.558v1.325z"/><path d="M20 28v-1h-1v1h-2v-1h-1v1h-1v-2h1v-5h4v5h1v2h-1z" fill="#da1c0b"/><path d="M21 23v-1h-1v1h-1v-1h-2v1h-1v-1h-1v1h-1v-9h8v9h-1z" fill="#da1c0b"/><path d="M19 22.001h-2v2h2v-2z"/><path d="M19 24a1 1 0 1 0-2 .001 1 1 0 0 0 2 0M19.444 17.702a1.444 1.444 0 1 1-2.889 0v-2.167h2.89v2.167z"/><path d="M18.162 12.651v-.134l1.08-1.077-1.08-1.078V5.644h-.348v.528h-1.19v.707h.347v-.362h.843v1.05h-.843v-.355h-.348v.702h1.191v2.45l-1.08 1.076 1.08 1.073v.138h.348z" fill="#fff100"/><path d="M17.988 10.692l.748.748-.748.75-.748-.75.748-.748z" fill="#da1c0b"/><path d="M18.257 12.651c0-.209-.111-.377-.247-.377-.137 0-.25.168-.25.377v1.35c0 .206.113.374.25.374.136 0 .247-.168.247-.375v-1.349zm-.11 2.028h-.294c-.243 0-.44-.299-.44-.669v-1.338c0-.369.197-.668.44-.668h.294c.243 0 .44.3.44.668v1.338c0 .37-.197.67-.44.67" fill="#fff100"/><path d="M19.326 15.735c-.107.06-.25.058-.318-.003L18 14.823l-1.008.91c-.068.06-.21.062-.318.002-.108-.059-.14-.156-.072-.218l1.232-1.108c.04-.034.1-.045.166-.04.066-.005.127.006.166.04l1.232 1.108c.07.062.036.16-.072.218" fill="#fff100"/></g></svg>