<svg xmlns="http://www.w3.org/2000/svg" viewBox="0 0 45 45"><defs><clipPath id="a"><path d="M0 36h36V0H0v36z"/></clipPath></defs><g clip-path="url(#a)" transform="matrix(1.25 0 0 -1.25 0 45)"><path d="M9.444 31H4a4 4 0 0 1-4-4v-5.5h9.444V31zM36 21.5V27a4 4 0 0 1-4 4H16.5v-9.5H36z" fill="#eee"/><path d="M36 20v1.5H16.5V31H15V20h21zM11 31H9.444v-9.5H0V20h11v11z" fill="#0065bd"/><path d="M0 14.5V9a4 4 0 0 1 4-4h5.444v9.5H0zM16.5 14.5V5H32a4 4 0 0 1 4 4v5.5H16.5z" fill="#eee"/><path d="M15 20v11h-4V20H0v-4h11V5h4v11h21v4H15z" fill="#ed2939"/><path d="M15 16V5h1.5v9.5H36V16H15zM11 16H0v-1.5h9.444V5H11v11z" fill="#0065bd"/></g></svg>