<svg xmlns="http://www.w3.org/2000/svg" viewBox="0 0 45 45"><defs><clipPath id="a"><path d="M0 36h36V0H0v36z"/></clipPath></defs><path d="M24.852 25.737L22.5 24.03l-2.353 1.708.899-2.765-2.353-1.709h2.908l.899-2.766.898 2.767h2.908l-2.353 1.708.9 2.765zM15 38.75h15V6.25H15v32.5z" fill="#cc212d"/><g clip-path="url(#a)" transform="matrix(1.25 0 0 -1.25 0 45)"><path d="M4 31a4 4 0 0 1-4-4V9a4 4 0 0 1 4-4h8v26H4z" fill="#288541"/><path d="M32 31h-8V5h8a4 4 0 0 1 4 4v18a4 4 0 0 1-4 4M18.719 18.99l-.72 2.211-.717-2.212h-2.327l1.882-1.367-.72-2.212L18 16.777l1.882-1.367-.72 2.212 1.883 1.367h-2.326z" fill="#fee833"/></g></svg>