<svg xmlns="http://www.w3.org/2000/svg" viewBox="0 0 45 45"><defs><clipPath id="a"><path d="M0 36h36V0H0v36z"/></clipPath></defs><g clip-path="url(#a)" transform="matrix(1.25 0 0 -1.25 0 45)"><path d="M4 5h28a4 4 0 0 1 4 4v15.75L3.215 5.079C3.469 5.029 3.731 5 4 5M9.63 19.98l-3.06 2.34-3.06-2.34 1.17 3.78-3.06 2.34H5.4l1.17 3.78 1.17-3.78h3.78l-3.06-2.34 1.17-3.78zM32 31H4a4 4 0 0 1-4-4V11.25l32.785 19.671c-.254.05-.516.079-.785.079" fill="#007fff"/><path d="M7.74 26.1l-1.17 3.78L5.4 26.1H1.62l3.06-2.34-1.17-3.78 3.06 2.34 3.06-2.34-1.17 3.78 3.06 2.34H7.74zM3.215 5.08L36 24.75v1.35L1.873 5.624a3.958 3.958 0 0 1 1.342-.545M32.785 30.92L0 11.25V9.9l34.127 20.476a3.958 3.958 0 0 1-1.342.545" fill="#f7d618"/><path d="M34.127 30.376L0 9.9V9c0-1.425.751-2.668 1.873-3.376L36 26.1v.9a3.987 3.987 0 0 1-1.873 3.376" fill="#ce1021"/></g></svg>