<svg xmlns="http://www.w3.org/2000/svg" viewBox="0 0 45 45"><defs><clipPath id="a"><path d="M0 36h36V0H0v36z"/></clipPath></defs><g clip-path="url(#a)" transform="matrix(1.25 0 0 -1.25 0 45)"><path d="M8.337 21.708l-1.882 1.367-1.882-1.367.719 2.212-1.882 1.368h2.326l.719 2.212.719-2.212H9.5L7.618 23.92l.719-2.212zM13 31H4a4 4 0 0 1-4-4v-9h13v13z" fill="#1f429b"/><path d="M32 31H13V18h23v9a4 4 0 0 1-4 4" fill="#eee"/><path d="M0 18V9a4 4 0 0 1 4-4h28a4 4 0 0 1 4 4v9H0z" fill="#d42d27"/><path d="M7.174 25.288l-.72 2.212-.717-2.212H3.41l1.882-1.367-.72-2.213 1.883 1.368 1.882-1.368-.72 2.213L9.5 25.288H7.174z" fill="#fff"/></g></svg>