<svg xmlns="http://www.w3.org/2000/svg" viewBox="0 0 45 45"><defs><clipPath id="a"><path d="M0 36h36V0H0v36z"/></clipPath><clipPath id="b"><path d="M4 31a4 4 0 0 1-4-4v-9h19v13H4z"/></clipPath><clipPath id="c"><path d="M0 36h36V0H0v36z"/></clipPath></defs><g clip-path="url(#a)" transform="matrix(1.25 0 0 -1.25 0 45)"><path d="M36 9a4 4 0 0 0-4-4H4a4 4 0 0 0-4 4v18a4 4 0 0 0 4 4h28a4 4 0 0 0 4-4V9z" fill="#00247d"/><path d="M19 31H4a4 4 0 0 1-4-4v-9h19v13z" fill="#00247d"/><path d="M19 18v2.029L11.9 25H6.671l9.997-7H19z" fill="#eee"/><path d="M19 19.418L11.029 25H9.286L19 18.198v1.22z" fill="#cf1b2b"/><path d="M8.1 25L0 19.234V18h3.332l9.998 7H8.1z" fill="#eee"/><path d="M10.714 25l-9.98-7H2.46l9.998 7h-1.744z" fill="#cf1b2b"/><path d="M16.669 31l-9.997-7H11.9L19 28.971V31h-2.331z" fill="#eee"/><path d="M17.54 31l-9.997-7h1.743L19 30.802V31h-1.46z" fill="#cf1b2b"/></g><g clip-path="url(#b)" transform="matrix(1.25 0 0 -1.25 0 45)"><path d="M10 24h3.328l-9.996 7H1l-.625-1.594L10 22.669V24z" fill="#eee"/><path d="M10 24h.714L1 30.802l-.5-.865 9.5-6.659V24z" fill="#cf1b2b"/></g><g clip-path="url(#c)" transform="matrix(1.25 0 0 -1.25 0 45)"><path d="M19 27h-7v4H7v-4H0v-5h7v-4h5v4h7v5z" fill="#eee"/><path d="M11 18H8v13h3V18z" fill="#cf1b2b"/><path d="M19 23H0v3h19v-3z" fill="#cf1b2b"/><path d="M27.803 24.217l.812.59h-1.004l-.31.954-.31-.954h-1.004l.812-.59-.31-.955.812.59.812-.59-.31.955zM30.365 23.476l.982.208-.917.409.105.998-.672-.746-.916.409.501-.87-.672-.745.982.208.502-.869.105.998zM32.416 21.714l.982-.207-.674.745.5.87-.915-.41-.673.744.107-.998-.916-.41.981-.206.107-.998.5.87zM33.56 19.314l.814-.586-.315.953.81.595-1.005-.006-.314.953-.305-.956-1.004-.005.815-.586-.305-.956.809.594zM33.64 16.624l.503-.868.104.998.98.21-.917.407.104.998-.671-.747-.917.407.503-.868-.67-.747.98.21zM32.602 14.178l.104-.998.503.87.981-.21-.67.746.501.87-.917-.409-.67.746.103-.998-.917-.408.982-.209zM30.664 12.298l-.306-.956.81.593.814-.586-.314.953.81.593-1.004-.004-.314.953-.307-.955-1.003-.004.814-.587zM28.143 11.42l-.669-.749.981.212.506-.867.1.998.981.213-.918.404.102 1-.67-.749-.918.404.505-.867zM24.238 23.476l-.982.208.917.409-.105.998.672-.746.916.409-.501-.87.672-.745-.982.208-.502-.869-.105.998zM22.187 21.714l-.982-.207.673.745-.5.87.916-.41.673.744-.107-.998.916-.41-.982-.206-.107-.998-.5.87zM21.043 19.314l-.815-.586.315.953-.809.595 1.004-.006.315.953.305-.956 1.004-.005-.815-.586.305-.956-.809.594zM20.963 16.624l-.503-.868-.104.998-.981.21.918.407-.104.998.67-.747.918.407-.503-.868.67-.747-.981.21zM22 14.178l-.104-.998-.503.87-.98-.21.67.746-.502.87.917-.409.671.746-.104-.998.917-.408-.982-.209zM23.939 12.298l.306-.956-.81.593-.814-.586.314.953-.81.593 1.003-.004.314.953.307-.955 1.003-.004-.814-.587zM26.46 11.42l.668-.749-.98.212-.506-.867-.1.998-.982.213.918.404-.1 1 .668-.749.918.404-.505-.867z" fill="#fff"/></g></svg>