<svg xmlns="http://www.w3.org/2000/svg" viewBox="0 0 45 45"><defs><clipPath id="a"><path d="M4 31a4 4 0 0 1-4-4V9a4 4 0 0 1 4-4h28a4 4 0 0 1 4 4v18a4 4 0 0 1-4 4H4z"/></clipPath></defs><g clip-path="url(#a)" transform="matrix(1.25 0 0 -1.25 0 45)"><path d="M0 31l6.923-5H36v5H0z" fill="#002a8f"/><path d="M13.846 21H36v5H6.923l6.923-5z" fill="#eee"/><path d="M18 18l-4.154-3H36v6H13.846L18 18z" fill="#002a8f"/><path d="M6.923 10H36v5H13.846l-6.923-5z" fill="#eee"/><path d="M0 5h36v5H6.923L0 5z" fill="#002a8f"/><path d="M13.846 15L18 18l-4.154 3-6.923 5L0 31V5l6.923 5 6.923 5z" fill="#cf142b"/><path d="M7.495 17.398L9.5 18.85H7.022l-.77 2.362-.77-2.362H3l2.006-1.453-.77-2.36 2.014 1.46 2.014-1.46-.769 2.361z" fill="#fff"/></g></svg>