<svg xmlns="http://www.w3.org/2000/svg" viewBox="0 0 45 45"><defs><clipPath id="a"><path d="M0 36h36V0H0v36z"/></clipPath></defs><g clip-path="url(#a)" transform="matrix(1.25 0 0 -1.25 0 45)"><path d="M32 31H20.5V20.5H36V27a4 4 0 0 1-4 4" fill="#eee"/><path d="M20.5 31h-5V20.5H0v-5h15.5V5h5v10.5H36v5H20.5V31z" fill="#e8112d"/><path d="M28.915 26.415c.03.623.104 1.244.22 1.86a7.092 7.092 0 0 0-1.77 0c.117-.616.19-1.237.22-1.86a13.56 13.56 0 0 0-1.86.22 7.092 7.092 0 0 0 0-1.77c.616.117 1.238.19 1.86.22a13.58 13.58 0 0 0-.22-1.86 7.092 7.092 0 0 0 1.77 0 13.58 13.58 0 0 0-.22 1.86 13.58 13.58 0 0 0 1.86-.22 7.092 7.092 0 0 0 0 1.77 13.58 13.58 0 0 0-1.86-.22" fill="#e8112d"/><path d="M15.5 31H4a4 4 0 0 1-4-4v-6.5h15.5V31z" fill="#eee"/><path d="M8.415 26.415c.03.623.104 1.244.22 1.86a7.092 7.092 0 0 0-1.77 0c.117-.616.19-1.237.22-1.86a13.56 13.56 0 0 0-1.86.22 7.092 7.092 0 0 0 0-1.77c.616.117 1.238.19 1.86.22a13.58 13.58 0 0 0-.22-1.86 7.092 7.092 0 0 0 1.77 0 13.58 13.58 0 0 0-.22 1.86 13.58 13.58 0 0 0 1.86-.22 7.092 7.092 0 0 0 0 1.77 13.58 13.58 0 0 0-1.86-.22" fill="#e8112d"/><path d="M36 9v6.5H20.5V5H32a4 4 0 0 1 4 4" fill="#eee"/><path d="M28.915 9.585a13.58 13.58 0 0 1 .22-1.86 7.092 7.092 0 0 1-1.77 0c.117.616.19 1.237.22 1.86a13.56 13.56 0 0 1-1.86-.22 7.092 7.092 0 0 1 0 1.77 13.56 13.56 0 0 1 1.86-.22 13.58 13.58 0 0 1-.22 1.86 7.092 7.092 0 0 1 1.77 0 13.58 13.58 0 0 1-.22-1.86 13.58 13.58 0 0 1 1.86.22 7.092 7.092 0 0 1 0-1.77 13.58 13.58 0 0 1-1.86.22" fill="#e8112d"/><path d="M15.5 15.5H0V9a4 4 0 0 1 4-4h11.5v10.5z" fill="#eee"/><path d="M8.415 9.585a13.58 13.58 0 0 1 .22-1.86 7.092 7.092 0 0 1-1.77 0c.117.616.19 1.237.22 1.86a13.56 13.56 0 0 1-1.86-.22 7.092 7.092 0 0 1 0 1.77 13.56 13.56 0 0 1 1.86-.22 13.58 13.58 0 0 1-.22 1.86 7.092 7.092 0 0 1 1.77 0 13.58 13.58 0 0 1-.22-1.86 13.58 13.58 0 0 1 1.86.22 7.092 7.092 0 0 1 0-1.77 13.58 13.58 0 0 1-1.86.22" fill="#e8112d"/></g></svg>