<svg xmlns="http://www.w3.org/2000/svg" viewBox="0 0 45 45"><defs><clipPath id="a"><path d="M0 36h36V0H0v36z"/></clipPath><clipPath id="b"><path d="M28.267 18.75c-.51.313-1.361.265-1.892.265v-2.218c0-.547.238-1.953 1.892-2.578 1.655.625 1.893 2.031 1.893 2.578v2.218c-.124 0-.265.003-.416.003-.494 0-1.085-.028-1.477-.268"/></clipPath><clipPath id="c"><path d="M0 36h36V0H0v36z"/></clipPath><clipPath id="d"><path d="M4 31a4 4 0 0 1-4-4v-9h19v13H4z"/></clipPath><clipPath id="e"><path d="M0 36h36V0H0v36z"/></clipPath></defs><g clip-path="url(#a)" transform="matrix(1.25 0 0 -1.25 0 45)"><path d="M36 9a4 4 0 0 0-4-4H4a4 4 0 0 0-4 4v18a4 4 0 0 0 4 4h28a4 4 0 0 0 4-4V9z" fill="#00247d"/><path d="M26.656 26a6.377 6.377 0 0 1-.64.406.593.593 0 0 0-.219.797c.14.266.474.359.393.109-.08-.25-.169-.556 0-.583.17-.026.122.333.28.318.155-.016-.158-.578 0-.594.155-.016.108.5.28.438.172-.063.14-.516 0-.547-.14-.032.015-.235.117-.344.101-.109-.07-.108-.21 0M27.455 26c.135.104.344.234.641.406a.593.593 0 0 1 .218.797c-.14.266-.474.359-.393.109.081-.25.17-.556 0-.583-.169-.026-.122.333-.279.318-.156-.016.157-.578 0-.594-.156-.016-.109.5-.28.438-.173-.063-.14-.516 0-.547.14-.032-.016-.235-.118-.344-.1-.109.07-.108.211 0" fill="#cdad57"/><path d="M26.917 25.125c.091.348-.021.687-.292.583-.27-.104-.522.063-.479.146.041.083.355.333.771.333.416 0 .957-.229.916-.333-.041-.104-.5-.198-.5-.198s.063-.406.834-.406c.77 0 1.416-.187 1.27-1.125-.145-.937-.187-1.063-.312-1.021-.125.042-.145.354-.083.625.063.271-.104.646-.188.375-.083-.271-.251-.792-.458-.833-.209-.042.082.792.062.979-.021.188-.5.146-.521-.146-.02-.291.038-.771-.137-.896-.175-.125-.196.292-.175.584.021.291-.187.749-.208.354-.021-.396-.042-.896-.23-.958-.187-.063 0 .479-.062.812-.063.333-.312.73-.208 1.125" fill="#923f00"/><path d="M27.516 20.39c-.266-.25-1.266-.811-1.656.11.937-.375 1.49.438 1.49.438l.166-.547zM26.14 22.61c-.414 1.28-1.343 1.39-1.343 1.39s-.047-.407.157-.696c-.67.062-1.33.367-1.33.367-.186-.53.939-1.093 1.626-1.062-.328-.328-.015-.61.297-.665-.156.384.344.64.453.34.11-.3.14.325.14.325" fill="#fff"/><path d="M26.311 20.403c-.843-.09-1.442 1.203-1.439 1.587.502-.147.91-.49.91-.49s.132 1.141.237 1.422c.418-.313.527-1.188.387-1.594.46-.023.547-.406.406-.688-.219.313-.45.016-.5-.237" fill="#1500ff"/><path d="M28.745 20.39c.266-.25 1.266-.811 1.656.11-.937-.375-1.49.438-1.49.438l-.166-.547zM30.12 22.61c.415 1.28 1.344 1.39 1.344 1.39s.047-.407-.157-.696c.67.062 1.33.367 1.33.367.186-.53-.939-1.093-1.626-1.062.328-.328.015-.61-.297-.665.156.384-.344.64-.453.34-.11-.3-.14.325-.14.325" fill="#fff"/><path d="M29.95 20.403c.842-.09 1.441 1.203 1.438 1.587-.503-.147-.909-.49-.909-.49s-.133 1.141-.238 1.422c-.418-.313-.527-1.188-.387-1.594-.459-.023-.547-.406-.406-.688.22.313.45.016.501-.237" fill="#1500ff"/><path d="M28.203 18.594c-1.297 0-1.75.594-1.625 1s.563.187.703.297c.141.109.141.828-.187 1.156-.328.328-.532.672-.39.844-.188.312.106.453.193.812.087.36.18.695.317.735.137.04.208-.297.255-.235.047.063.1.344.331.36.231.015.2-.235.278-.297.078-.063.141.29.36.297.218.008.281-.297.374-.313.094-.015.125.225.313.188.187-.038.125-.516.25-.72.125-.202.39-.593.234-.827.22-.156-.015-.438-.28-.641-.267-.203-.579-.703-.392-1.265.172-.375.828.015.985-.22.156-.234.093-1.171-1.719-1.171" fill="#656263"/><path d="M26.559 22.11c0 .374 1.004.5 1.566.5.563 0 1.594-.13 1.594-.5s-.785 0-1.58 0-1.58-.36-1.58 0" fill="#fff"/><path d="M27.588 22.577a3.62 3.62 0 0 1-.511-.093.595.595 0 0 1 .07-.493c.15.025.32.055.502.08a.473.473 0 0 0-.061.506M28.078 22.608v-.502c.021.001.04.003.061.003.192 0 .382-.022.563-.05a.325.325 0 0 1 .095.218c0 .12-.073.22-.17.304a4.986 4.986 0 0 1-.502.028h-.047M29.048 22.002c.392-.07.67-.112.67.108 0 .194-.284.32-.635.398.058-.071.105-.15.105-.23 0-.116-.066-.204-.14-.276" fill="#1500ff"/><path d="M26.662 21.714c.041.176 1.477-.808 1.477-.808s1.52 1.06 1.534.916c.014-.144-1.534-1.182-1.534-1.182s-1.518.898-1.477 1.074" fill="#adb0b2"/><path d="M26.688 17.563c-.687-.656-3.438-3.031-3.594-3.531-.157-.5.171-.626.655-.298-.17-.39.047-.547.157-.563.11-.015.562.141.75.547.203-.328.72-.375.812-.312a.437.437 0 0 1 .141.172s.09-.47.264-.407c.173.064.328.314.438.298.11-.015-.007-.234.247-.218.254.015.358.125.493.265.136.14.355-.062.464-.031.11.03.22.703.391 1.187.172.484-1.219 2.89-1.219 2.89" fill="#6a4c2d"/><path d="M29.188 15.125c.459-.104.969.021 1.214-.125.244-.145.431-.271.785-.292.355-.02 1.021.291 1.167 0 .147-.291.334-.708.522-.77.187-.063.895-.292.187-.333-.709-.042-2.292 0-2.292 0l.187-.25-1.384-.084s-.814.709-.777 1.209c.037.5.39.645.39.645" fill="#fff"/><path d="M27.516 15.125c-.565-.342-.302-.77-.302-.77s.09-.584.137-.522c.046.063.299.272.299.272s-.044-.466-.037-.448c.007.019.308-.001.308-.001s.11-.409.157-.491c.047-.082.308.19.308.19s.25-.161.36-.206c.109-.044.15.289.15.289s.297-.378.487-.273c.19.106.43.418.43.418l-.355.313s.062.081 0 .239c-.061.157-.291.22-.291.22s.23.166.063.27c-.167.105-.782 1.062-1.714.5" fill="#00713d"/><path d="M28.268 18.75c-.511.312-1.361.266-1.893.266v-2.219c0-.547.239-1.953 1.893-2.578 1.654.625 1.893 2.031 1.893 2.578v2.219c-.532 0-1.382.046-1.893-.266" fill="#fff"/></g><g clip-path="url(#b)" transform="matrix(1.25 0 0 -1.25 0 45)"><path d="M29.209 16.96l-.37.481.37.481.37-.481-.37-.481zm0-.187l.355-.461-.355-.461-.354.461.354.461zm-.936-.934l-.364.473.364.472.363-.472-.363-.473zm0-.164l.356-.463-.356-.463-.357.463.357.463zm-.924 1.081l.341-.444-.341-.445-.342.445.342.444zm0 1.149l.357-.464-.357-.464-.358.464.358.464zm0 .221l-.372.483.372.484.372-.484-.372-.483zm.924-.028l-.394.511.394.512.393-.512-.393-.511zm0-1.15l-.379.493.379.492.378-.492-.378-.493zm.936 1.161l-.385.5.385.5.385-.5-.385-.5zm.543.5l.457.594-.536.696-.464-.602-.464.602-.472-.613-.473.613-.451-.585-.451.585-.537-.696.457-.594-.457-.593.443-.575-.443-.575.427-.554-.427-.555.537-.697.451.586.335-.434-.42-.545.536-.696.473.614.472-.614.536.696-.42.545.348.451.464-.603.536.697-.427.555.427.554-.442.575.442.575-.457.593z" fill="#1e5aa6"/><path d="M28.273 14.783l1.6 4.498s-1.388-.08-1.606-.303c-.218.222-1.605.303-1.605.303l1.599-4.498v-.034l.006.016.006-.016v.034z" fill="#016c00"/></g><g clip-path="url(#c)" transform="matrix(1.25 0 0 -1.25 0 45)"><path d="M23.922 18.36c.036.998.203 1.5.187 1.89-.015.39.329.39.594.468.266.08.39-.14.61-.156.218-.015.343-.047.28-.312-.062-.266-.265-.609-.312-.703-.047-.094.266-.688.516-1.188s.609-1.14.344-2.14c-.266-1-.422-1.36-.532-1.438-.11-.078-.025.656-.122 1-.096.344-.221.422-.221.422s-.422-.399-.578-.903c-.157-.504-.032-.87.265-1.078.297-.207.969-.332 1.078-.394.11-.063-.218-.203-.672-.172-.453.031-1.525.412-1.926.84-.402.425-.95 1.124-.636 1.894.172.422.5.563.609.703.11.141.505.966.516 1.266" fill="#8b9497"/><path d="M31.531 20.399c.341.047 1.187-2.133 1.281-3.071.094-.937.078-2.625-.484-2.687-.563-.063-1.068.156-1.245 1.094-.177.937-.042 1.656 0 2.265.042.61-.052 2.329.448 2.399" fill="#fff"/><path d="M31.389 20.399c.024.4.408.539.86.46.454-.078.423-.781.408-1.11-.016-.327.71-.25.714-2.014.004-1.766-.496-2.766-.355-3.016.14-.25.78-.578.422-.641-.36-.062-.813.313-1.125.422-.313.11.027.547.154 1.078.127.532.065 1.112-.201 1.04-.266-.071.109-1.36-.328-1.317-.438.043-.672 1.009-.625 1.893.047.884.219.947.469 1.228.25.28.093.406-.172.703-.266.297-.172.53.109.688.28.156-.363.048-.33.586"/><path d="M30.994 18.89c-.375-.03-.76-.14-.76-.296 0-.156-.015-.672 0-.734.016-.063.531.265.76.25v.78z" fill="#fff"/><path d="M31.531 20.399c.092.483-.78.023-.828-.102-.047-.125.734-.39.828.102" fill="#f66b01"/><path d="M31.797 20.64c.047.14 1.094.313 1.266.298.17-.016.162.022.115-.057-.017-.028-.515-.096-.522-.145-.013-.087.44-.032.516-.095.05-.042-.504-.037-.41-.106.125-.093.597-.306.459-.253-.24.09-1.501.13-1.424.359" fill="#f8f001"/><path d="M31.63 14.767c-.233-.043-.958.01-.708-.136.25-.146.328-.162.328-.162s-.45-.164-.256-.246c.194-.082.637-.031.93-.025.295.005.51.17.389.302-.122.132-.334.33-.683.267" fill="#f66b01"/><path d="M25.054 10.922a13.93 13.93 0 0 0 1.297-.344l-.094-1.015s-.234.343-1.47.562c-.14.406.267.797.267.797" fill="#c11600"/><path d="M28.384 12.828c-1.394 0-2.314-.547-2.314-.547s-.5.776-.985.864c-.484.09-.765-.208-.578-.583.188-.375.438-.359.797-.75-.578-.39-1.047-1.172-1.047-1.172l.53-.515s.298.5.923 1.016c.547-.626.547-1.579.547-1.579s.164.672.418.891c-.012.61-.184 1.063-.184 1.063s.817.5 1.893.5v.812z" fill="#ffbc00"/><path d="M25.241 12.625s.016-.328-.422-.703c-.437-.375-.937-.344-.906.078.422.109.312.946.663 1.054-.038-.351.103-.585.665-.429M31.714 10.922a13.93 13.93 0 0 1-1.297-.344l.094-1.015s.234.343 1.469.562c.14.406-.266.797-.266.797" fill="#c11600"/><path d="M28.384 12.828c1.393 0 2.314-.547 2.314-.547s.5.776.985.864c.484.09.765-.208.578-.583-.188-.375-.438-.359-.797-.75.578-.39 1.047-1.172 1.047-1.172l-.531-.515s-.297.5-.922 1.016c-.547-.626-.547-1.579-.547-1.579s-.164.672-.418.891a3.5 3.5 0 0 0 .184 1.063s-.817.5-1.893.5v.812z" fill="#ffbc00"/><path d="M31.526 12.625s-.016-.328.422-.703c.437-.375.937-.344.906.078-.422.109-.312.946-.663 1.054.038-.351-.103-.585-.665-.429" fill="#c11600"/><path d="M19 31H4a4 4 0 0 1-4-4v-9h19v13z" fill="#00247d"/><path d="M19 18v2.029L11.9 25H6.671l9.997-7H19z" fill="#eee"/><path d="M19 19.418L11.029 25H9.286L19 18.198v1.22z" fill="#cf1b2b"/><path d="M8.1 25L0 19.234V18h3.332l9.998 7H8.1z" fill="#eee"/><path d="M10.714 25l-9.98-7H2.46l9.998 7h-1.744z" fill="#cf1b2b"/><path d="M16.669 31l-9.997-7H11.9L19 28.971V31h-2.331z" fill="#eee"/><path d="M17.54 31l-9.997-7h1.743L19 30.802V31h-1.46z" fill="#cf1b2b"/></g><g clip-path="url(#d)" transform="matrix(1.25 0 0 -1.25 0 45)"><path d="M10 24h3.328l-9.996 7H1l-.625-1.594L10 22.669V24z" fill="#eee"/><path d="M10 24h.714L1 30.802l-.5-.865 9.5-6.659V24z" fill="#cf1b2b"/></g><g clip-path="url(#e)" transform="matrix(1.25 0 0 -1.25 0 45)"><path d="M19 27h-7v4H7v-4H0v-5h7v-4h5v4h7v5z" fill="#eee"/><path d="M11 18H8v13h3V18z" fill="#cf1b2b"/><path d="M19 23H0v3h19v-3z" fill="#cf1b2b"/></g></svg>