<svg xmlns="http://www.w3.org/2000/svg" viewBox="0 0 45 45"><defs><clipPath id="a"><path d="M0 36h36V0H0v36z"/></clipPath></defs><g clip-path="url(#a)" transform="matrix(1.25 0 0 -1.25 0 45)"><path d="M36 4a4 4 0 0 0-4-4H4a4 4 0 0 0-4 4v28a4 4 0 0 0 4 4h28a4 4 0 0 0 4-4V4z" fill="#3b88c3"/><path d="M25.66 20.084c1.953 0 2.73-.992 2.73-2.977 0-5.984-3.908-10.48-10.109-10.48-6.294 0-10.666 4.993-10.666 11.411 0 6.45 4.34 11.41 10.666 11.41 4.682 0 8.525-2.2 8.525-4.372 0-1.333-.835-2.17-1.92-2.17-2.109 0-2.543 2.264-6.605 2.264-3.876 0-5.829-3.38-5.829-7.132 0-3.783 1.891-7.132 5.83-7.132 2.448 0 5.271 1.365 5.271 4.9H20.39c-1.27 0-2.17.9-2.17 2.17 0 1.302.992 2.108 2.17 2.108h5.271z" fill="#fff"/></g></svg>