<svg xmlns="http://www.w3.org/2000/svg" viewBox="0 0 45 45"><defs><clipPath id="a"><path d="M0 36h36V0H0v36z"/></clipPath></defs><g clip-path="url(#a)" transform="matrix(1.25 0 0 -1.25 0 45)"><path d="M36 9a4 4 0 0 0-4-4H4a4 4 0 0 0-4 4v18a4 4 0 0 0 4 4h28a4 4 0 0 0 4-4V9z" fill="#ed1c23"/><path d="M36 12H0v7h36v-7z" fill="#034ea2"/><path d="M36 19v8a4 4 0 0 1-4 4H4a4 4 0 0 1-4-4v-8h36z" fill="#fd0"/><path d="M23 17a2 2 0 0 0-2-2h-6a2 2 0 0 0-2 2v3a2 2 0 0 0 2 2h6a2 2 0 0 0 2-2v-3z" fill="#fd0"/><path d="M22 18c0-1.104-.895-3-2-3h-4c-1.104 0-2 1.896-2 3v1a2 2 0 0 0 2 2h4a2 2 0 0 0 2-2v-1z" fill="#034ea2"/><path d="M21 18c0-1.104-.895-3-2-3h-2c-1.104 0-2 1.896-2 3v1a2 2 0 0 0 2 2h2a2 2 0 0 0 2-2v-1z" fill="#ed1c23"/><path d="M19.973 21.865C19.84 21.377 19.012 21 18 21s-1.84.377-1.972.865C14.822 21.693 15 21.372 15 21c0-.552.79-1 3-1 2.209 0 3 .448 3 1 0 .372.178.693-1.027.865" fill="#6dbe46"/><path d="M19 17a1 1 0 1 0-2 0v3a1 1 0 0 0 2 0v-3z" fill="#a6d388"/><path d="M21.5 24c.44 0 .858-.052 1.246-.137C22.123 24.939 20 26 18 24c-2 2-4.123.939-4.746-.137.388.085.806.137 1.246.137 1.933 0 3.5-.895 3.5-2 0 1.105 1.566 2 3.5 2" fill="#662113"/><path d="M20 18.5c0-1.933-.895-3.5-2-3.5-1.104 0-2 1.567-2 3.5s.896 3.5 2 3.5c1.105 0 2-1.567 2-3.5" fill="#8ed2e7"/><path d="M17.5 19c-.536 0-1.037-.13-1.491-.345-.001-.052-.009-.102-.009-.155 0-1.933.896-3.5 2-3.5 1.003 0 1.825 1.295 1.97 2.979A3.492 3.492 0 0 1 17.5 19" fill="#6dbe46"/><path d="M21 14c0-.553-1.343-1-3-1s-3 .447-3 1c0 .553 1.343 1 3 1s3-.447 3-1" fill="#ffcc4d"/><path d="M20 13c0-.828-.895-1-2-1-1.104 0-2 .172-2 1 0 .828.896 2 2 2 1.105 0 2-1.172 2-2" fill="#034ea2"/><path d="M17 13c0 .828.448 2 1 2s1-1.172 1-2c0-.828-.448-1-1-1s-1 .172-1 1" fill="#ed1c23"/><path d="M17 25c0 .552.448 0 1 0s1 .552 1 0a1 1 0 0 0-2 0" fill="#ccd6dd"/><path d="M19 18.5c0-.276-.448-.5-1-.5s-1 .224-1 .5.448.5 1 .5 1-.224 1-.5" fill="#fff"/><path d="M14 20.5c0-.276-.448-.5-1-.5s-1 .224-1 .5.448.5 1 .5 1-.224 1-.5M15 22.5c0-.276-.448-.5-1-.5s-1 .224-1 .5.448.5 1 .5 1-.224 1-.5M24 20.5c0-.276-.447-.5-1-.5-.553 0-1 .224-1 .5s.447.5 1 .5c.553 0 1-.224 1-.5M23 22.5c0-.276-.447-.5-1-.5-.553 0-1 .224-1 .5s.447.5 1 .5c.553 0 1-.224 1-.5" fill="#c1694f"/></g></svg>