<svg xmlns="http://www.w3.org/2000/svg" viewBox="0 0 45 45"><defs><clipPath id="a"><path d="M0 36h36V0H0v36z"/></clipPath></defs><g clip-path="url(#a)" transform="matrix(1.25 0 0 -1.25 0 45)"><path d="M36 9a4 4 0 0 0-4-4H4a4 4 0 0 0-4 4v18a4 4 0 0 0 4 4h28a4 4 0 0 0 4-4V9z" fill="#d21c33"/><path d="M32 31H4a4 4 0 0 1-4-4v-9h36v9a4 4 0 0 1-4 4" fill="#00209f"/><path d="M23.906 13H12v9.959h11.906V13z" fill="#fff"/><path d="M23.906 14.378c-1.499.76-3.529 1.237-5.9 1.237-2.37 0-4.507-.476-6.006-1.237V13h11.906v1.378z" fill="#006a16"/><path d="M15.523 19.28l1.165-1.31-.146-.823-.252.142-.226-.858h-.06l-.107-.452-1.978.167.047 1.412.477-.137.058 1.317.693-.47.036.798.293.214z" fill="#00209f"/><path d="M18.005 16.718v-2.002l-1.5.44-.382.56-.262.192.143.506.226.876h.345l.085.739 1.345-1.311zM13.692 17.624c.18.214.513.071.524 0 .012-.072-.13-.06-.262-.179-.13-.119-.095-.488-.322-.441-.226.048.06.62.06.62M14.501 18.739c.231.156.513-.074.504-.145-.008-.073-.142-.022-.301-.1-.159-.078-.227-.442-.432-.334-.204.109.229.579.229.579M15.455 19.42c.249.126.499-.14.48-.21-.017-.07-.192.055-.36-.001-.167-.057-.234-.466-.422-.332-.188.134.302.544.302.544" fill="#d21c33"/><path d="M14.945 19.977l.773-.47-.084-.227 2.086-2.31v-.18l-2.168 2.431-.284.047-.323.71zM13.835 19.28s.775-.298.775-.334c0-.036.142-.274.142-.274l2.825-2.288-.083-.107-2.8 2.288-.406.178-.453.537zM13.013 18.106s.894-.125.906-.16l.072-.239 3.276-1.787-.143-.084L13.93 17.6l-.369.024-.548.482z" fill="#f1b517"/><path d="M13.788 16.408l3.367-.41-.32-.385-.498-.05.372-.5-.18-.204-.5.548s-.156-.798-.835-.798c-.68 0-.893.68-.893.905 0 .227.059.345.059.345h-.644l.072.55z" fill="#f1b517"/><path d="M20.445 19.352l-1.218-1.442.051-.834.313.214.226-.858h.06l.107-.452 1.978.167-.048 1.41-.477-.135-.058 1.317-.693-.471-.036.798-.205.286z" fill="#00209f"/><path d="M18.005 16.718v-2.002l1.436.44.35.56.245.192-.152.506-.234.876-.267-.198-.09.817-1.288-1.191zM22.189 17.624c-.18.214-.514.071-.525 0-.012-.072.13-.06.262-.179.13-.119.096-.488.322-.441.226.048-.06.62-.06.62M21.379 18.739c-.23.156-.512-.074-.504-.145.009-.073.143-.022.302-.1.159-.078.226-.442.43-.334.206.109-.228.579-.228.579M20.426 19.42c-.25.126-.498-.14-.48-.21.017-.07.192.055.359-.001.168-.057.235-.466.424-.332.188.134-.303.544-.303.544" fill="#d21c33"/><path d="M20.936 19.977l-.772-.47.149-.227-2.021-2.31v-.18l2.103 2.431.25.047.29.71zM22.045 19.28s-.774-.298-.774-.334c0-.036-.144-.274-.144-.274l-2.824-2.288.084-.107 2.8 2.288.405.178.453.537zM22.867 18.106s-.894-.125-.905-.16c-.013-.037-.072-.239-.072-.239l-3.277-1.787.143-.084L21.95 17.6l.37.024.548.482z" fill="#f1b517"/><path d="M22.093 16.408l-3.366-.41.319-.385.498-.05-.373-.5.18-.204.502.548s.155-.798.834-.798c.679 0 .893.68.893.905a.846.846 0 0 1-.058.345h.642l-.071.55z" fill="#f1b517"/><path d="M22.86 13.858s-.59-.02-1.209.113c-.619.135-.726.377-.995.324-.269-.054-.893-.286-1.404-.35-.512-.066-1.247-.087-1.247-.087s-.676.021-1.189.086c-.51.065-1.077.297-1.346.351-.27.053-.377-.189-.997-.324-.619-.134-1.212-.113-1.212-.113l.161-.286-.16-.14c1.4-.026 2.047.426 2.047.426.7-.464 2.696-.477 2.696-.477s2.056.013 2.756.477c0 0 .676-.452 2.077-.426l-.148.14.17.286z" fill="#fff"/><path d="M18.292 18.106c0-1.49-.13-2.699-.292-2.699-.161 0-.292 1.21-.292 2.7 0 1.49.131 2.698.292 2.698.162 0 .292-1.208.292-2.699" fill="#f1b517"/><path d="M18.578 14.43h-1.144v1.145h1.144V14.43z" fill="#d21c33"/><path d="M18.65 15.646c0-.133-.275-.239-.615-.239-.339 0-.613.107-.613.239 0 .131.274.237.613.237.34 0 .614-.105.614-.237" fill="#fff"/><path d="M18.65 14.502c0-.132-.275-.238-.615-.238-.339 0-.613.106-.613.238s.274.238.613.238c.34 0 .614-.106.614-.238" fill="#d21c33"/><path d="M20.514 21.306c-.23.274-.818.262-1.218.274-.4.012-.6-.131-.422.06.179.19.455.142.746.154.292.012.343.047.164.142a1.227 1.227 0 0 1-.91.106c-.41-.105-.666-.36-.884-.404-.218.044-.491.299-.9.404-.417.107-.74-.01-.918-.106-.18-.095-.131-.13.16-.142.292-.012.566.036.745-.154.179-.191-.024-.048-.423-.06-.4-.012-.99 0-1.22-.274-.228-.274.2-.095.428-.06.226.037.56.048.56.048s-.56-.166-.715-.381c-.155-.214.047-.405.333-.238.287.167.727.393.966.417 0 0-.62-.258-.894-.481-.274-.222.013-.2.22-.2.209 0 .423.085.6.216.18.13-.117-.262-.165-.512-.047-.25.322-.191.388 0 .065.19.279.572.279.572s-.094-.548-.083-.918c.012-.37.134-.393.229-.226.096.166.426-.1.426-.1s.3.266.394.1c.096-.167.187-.143.198.226.012.37-.083.918-.083.918s.215-.381.28-.572c.066-.191.435-.25.387 0-.047.25-.345.643-.166.512.179-.131.393-.215.6-.215.209 0 .496-.023.222.199-.274.223-.894.48-.894.48.239-.023.679-.25.965-.416.287-.167.489.024.334.238-.156.215-.715.38-.715.38s.334-.01.56-.046c.227-.036.655-.215.426.059" fill="#006a16"/></g></svg>