<svg xmlns="http://www.w3.org/2000/svg" viewBox="0 0 45 45"><defs><clipPath id="a"><path d="M0 36h36V0H0v36z"/></clipPath></defs><g clip-path="url(#a)" transform="matrix(1.25 0 0 -1.25 0 45)"><path d="M36 9a4 4 0 0 0-4-4H4a4 4 0 0 0-4 4v18a4 4 0 0 0 4 4h28a4 4 0 0 0 4-4V9z" fill="#002b7f"/><path d="M36 9H0v18h36V9z" fill="#eee"/><path d="M36 13H0v10h36V13z" fill="#ce1225"/><path d="M12 18c0-2.209-1.567-4-3.5-4S5 15.791 5 18s1.567 4 3.5 4 3.5-1.791 3.5-4" fill="#eee"/><path d="M10.269 16.5c0-.828-.792-2.079-1.77-2.079-.976 0-1.767 1.251-1.767 2.079 0 .829.79 1.5 1.768 1.5.977 0 1.769-.671 1.769-1.5" fill="#f4cb58"/><path d="M11 16.5c0-.828-1.119-1.5-2.5-1.5S6 15.672 6 16.5c0 .829 1.119 1.5 2.5 1.5s2.5-.671 2.5-1.5" fill="#dca841"/><path d="M10 20c0-.552-.671-1-1.5-1S7 19.448 7 20s.671 1 1.5 1 1.5-.448 1.5-1" fill="#89c5e4"/><path d="M10 17.5c0-1.381-.671-2.5-1.5-2.5S7 16.119 7 17.5 7.671 20 8.5 20s1.5-1.119 1.5-2.5" fill="#088930"/><path d="M10 19.5c0-.276-.671-.5-1.5-.5s-1.5.224-1.5.5.671.5 1.5.5 1.5-.224 1.5-.5" fill="#dca841"/><path d="M10 18c0-1.104-.671-2-1.5-2S7 16.896 7 18c0 1.105.671 1.498 1.5 1.498S10 19.105 10 18" fill="#89c5e4"/><path d="M10 17.5c0-.276-.671-.5-1.5-.5s-1.5.224-1.5.5.671.5 1.5.5 1.5-.224 1.5-.5" fill="#dca841"/></g></svg>