<svg xmlns="http://www.w3.org/2000/svg" viewBox="0 0 45 45"><defs><clipPath id="a"><path d="M0 36h36V0H0v36z"/></clipPath></defs><g clip-path="url(#a)" transform="matrix(1.25 0 0 -1.25 0 45)"><path d="M32 31h-8V5h8a4 4 0 0 1 4 4v18a4 4 0 0 1-4 4M4 31a4 4 0 0 1-4-4V9a4 4 0 0 1 4-4h8v26H4z" fill="#4997d0"/><path d="M12 5h12v26H12V5z" fill="#eee"/><path d="M17.127 14.47c-.559.23-.788.83-.734 1.154.023.136.086.22.147-.007.072-.276.278-.208.44-.733.084-.268.158-.321.507-.48M17.019 14.427c-1.033.158-1.004-.312-1.518-.464-.147-.044-.195-.126.045-.148 1.051-.09 1.203.678 1.795.447M15.904 14.81c-.307.15-.845.34-1.17.237-.327-.1-.384-.139-.135-.262.858-.43 1.195-.017 1.565-.1M15.523 15.035c-.61.44-.509.701-.672.955-.164.255-.142.318.085.163.767-.518.446-.909.733-1.072" fill="#437e24"/><path d="M14.813 15.697c-.566.762-.086.947-.126 1.142-.039.191.011.224.119-.012.282-.628-.209-.848.141-1.203M14.026 16.833c-.136.31-.458.416-.599.401-.14-.018-.32-.04-.423-.006-.102.034-.102-.119.181-.238.281-.118.914-.367 1.056-.609M13.744 18.329c.016.345.068.554.282.746.215.19.323.216.238.05-.182-.35-.074-.586-.458-1.09M13.8 19.006c-.045.525-.315.514-.4.752-.084.237-.14.038-.108-.186.05-.368.44-.61.44-.96" fill="#437e24"/><path d="M13.783 18.752c.018.334-.023.61-.135.808-.114.198-.085-.05-.187-.27-.115-.25-.073-.786.283-1.204" fill="#437e24"/><path d="M13.948 19.707c.028.695-.255.689-.34.989-.084.3-.101.229-.141-.012-.181-1.095.419-.971.36-1.394M14.241 20.582c.073.447-.094.564.08.842.084.136.214.316.18.091-.035-.226-.006-.582-.26-.933" fill="#437e24"/><path d="M13.965 19.871c.073.548-.315 1.003-.034 1.47.146.242.223.264.207.067-.027-.35.319-.729-.128-1.424" fill="#437e24"/><path d="M16.721 14.657c.758-.203 1.37-.492 1.573-.74-.012-.103-.207-.085-.23-.142-.576.611-1.23.487-2.066.96-2.812 1.595-2.577 4.046-1.774 5.842.104.235.22.463.242.717.025.277.25.436.532.526.241.077.166-.036.078-.13-.173-.187-.043-.43-.524-.752-.119-.078-.165-.189-.238-.36-1.412-3.31.361-5.37 2.407-5.92" fill="#437e24"/><path d="M14.02 19.82c.075.214.27.684.566.762.293.08.564.216.7.61.047.138.147.442-.045.204-.191-.238-.56-.039-.937-.796-.07-.136-.238-.43-.368-.865" fill="#437e24"/><path d="M13.896 19.69c.192.69.582.583.768.83.188.249.26.254.149-.067-.278-.78-.833-.74-.923-1.102" fill="#437e24"/><path d="M13.857 19.273c.203.706.688.61.894.91.2.299.28.332.24-.023-.104-.951-1.09-.605-1.151-1.13" fill="#437e24"/><path d="M13.716 18.775c.08.756.695.672.886.87.075.077.115-.112-.022-.31-.333-.48-.717-.159-.763-.673M13.84 17.82c-.08.763-.565.994-.678 1.277-.113.283-.093-.062-.068-.232.152-1.01.548-.666.655-1.23" fill="#437e24"/><path d="M13.755 17.566c-.101.531.085.933.39 1.147.305.215.228.091.204-.096-.12-.91-.566-.549-.441-1.199" fill="#437e24"/><path d="M13.89 17.392c-.153.525-.536.74-.818.757-.283.016-.077-.092-.035-.192.25-.588.684-.345.843-.802" fill="#437e24"/><path d="M14.45 16.2c-.26.377-.21.654-.474.885-.266.233-.47.256-.605.397-.135.14-.15-.028-.023-.283.29-.576.707-.526.943-.938" fill="#437e24"/><path d="M14.297 16.43c-.118.243-.033.95.052 1.317.085.368.023.426-.147.226-.21-.242-.503-.587.056-1.542M14.434 16.172c-.548.66-.933.4-1.204.559-.272.157-.124-.09-.05-.164.774-.775.886-.17 1.322-.605" fill="#437e24"/><path d="M14.382 16.25c-.27.423-.27.825-.085 1.204.171.346.223.248.204-.017-.018-.254.196-.356.056-.841-.045-.16-.078-.487.124-.7M15.027 15.49c-.221.258-.42.505-.757.546-.34.04-.46.09-.283-.125.61-.74.92-.417 1.226-.644" fill="#437e24"/><path d="M15.441 15.227c-.27.166-.817.296-1.205.214-.218-.046-.143-.086.005-.13.291-.088.378-.38 1.01-.334.123.009.253.048.476-.076" fill="#437e24"/><path d="M15.704 15.002c-.311.198-.507.656-.553 1.118-.025.252.042.374.152.102.136-.334.379-.326.53-.83.139-.453.228-.503.465-.599" fill="#437e24"/><path d="M16.456 14.676a1.251 1.251 0 0 0-.678 1c-.046.383.05.328.18.096.123-.222.357-.19.506-.674.05-.157.162-.406.482-.503M16.867 14.54c-.654.202-1.256.18-1.614-.086-.18-.133-.131-.183.023-.158.439.07.615-.182 1.145.056.115.051.31.11.747-.056M18.826 14.479c.566.234.796.838.742 1.165-.022.137-.086.222-.15-.006-.073-.28-.278-.212-.444-.743-.084-.269-.16-.325-.512-.485M18.935 14.434c1.044.16 1.015-.315 1.537-.47.148-.044.195-.127-.047-.15-1.063-.09-1.217.687-1.816.454M20.064 14.822c.309.15.854.342 1.184.24.33-.102.386-.14.134-.265-.867-.435-1.207-.017-1.582-.1M20.446 15.05c.62.445.516.708.68.965.166.259.144.322-.084.165-.776-.525-.45-.92-.744-1.084" fill="#437e24"/><path d="M21.167 15.719c.57.77.086.958.125 1.153.041.195-.01.229-.119-.011-.285-.634.211-.857-.143-1.217M21.962 16.866c.135.314.46.422.604.407.144-.019.326-.04.427-.007.106.034.106-.119-.181-.24-.286-.12-.926-.372-1.067-.616M22.247 18.38c-.02.348-.068.56-.285.753-.217.195-.326.22-.24.052.181-.354.072-.594.461-1.102M22.189 19.065c.047.53.322.52.406.76.086.24.14.039.11-.188-.053-.372-.446-.618-.446-.971" fill="#437e24"/><path d="M22.206 18.808c-.018.337.021.617.137.817.115.201.088-.052.19-.275.114-.25.073-.793-.286-1.216" fill="#437e24"/><path d="M22.042 19.774c-.029.702.256.696.342 1 .086.302.103.232.142-.013.184-1.107-.422-.982-.365-1.41M21.745 20.66c-.076.45.094.57-.08.85-.088.137-.219.32-.186.091.036-.228.006-.588.266-.942" fill="#437e24"/><path d="M22.024 19.94c-.074.553.318 1.012.033 1.484-.148.246-.226.268-.21.07.03-.356-.32-.738.13-1.44" fill="#437e24"/><path d="M19.235 14.667c-.764-.205-1.42-.531-1.628-.782.011-.103.248-.052.271-.11.583.618 1.242.493 2.09.97 2.841 1.614 2.603 4.092 1.792 5.909-.105.238-.222.468-.246.724-.023.28-.252.44-.535.532-.244.079-.17-.037-.08-.132.176-.188.043-.434.531-.759.12-.08.166-.192.24-.365 1.428-3.347-.365-5.431-2.435-5.987" fill="#437e24"/><path d="M21.966 19.888c-.074.217-.273.691-.572.771-.295.08-.57.217-.707.616-.047.14-.15.447.047.206.193-.24.566-.039.947-.805.07-.137.24-.434.37-.874" fill="#437e24"/><path d="M22.093 19.756c-.195.697-.59.59-.777.84-.19.25-.264.255-.15-.068.28-.788.84-.75.93-1.114" fill="#437e24"/><path d="M22.132 19.334c-.205.714-.695.617-.902.92-.205.303-.285.337-.246-.024.107-.96 1.103-.61 1.166-1.142" fill="#437e24"/><path d="M22.274 18.831c-.078.765-.7.68-.896.88-.077.078-.116-.113.023-.315.336-.485.725-.159.771-.679M22.15 17.866c.077.77.57 1.005.685 1.29.113.287.093-.062.068-.233-.154-1.022-.555-.674-.662-1.246" fill="#437e24"/><path d="M22.235 17.608c.102.537-.086.943-.395 1.16-.306.217-.23.092-.205-.097.12-.92.571-.555.446-1.212" fill="#437e24"/><path d="M22.097 17.431c.154.531.545.75.83.766.285.017.076-.093.035-.194-.252-.594-.693-.348-.853-.81" fill="#437e24"/><path d="M21.534 16.227c.26.383.211.662.48.897.266.234.473.257.61.399.137.143.152-.027.023-.285-.293-.583-.715-.532-.955-.95" fill="#437e24"/><path d="M21.689 16.46c.117.246.033.96-.053 1.331-.086.372-.025.43.149.229.21-.245.508-.594-.057-1.56M21.55 16.197c.555.67.943.406 1.217.565.273.161.125-.09.05-.164-.783-.783-.896-.17-1.337-.61" fill="#437e24"/><path d="M21.6 16.278c.276.428.276.833.089 1.216-.174.351-.225.25-.21-.017.02-.257-.196-.359-.056-.85.047-.162.08-.493-.123-.709M20.95 15.508c.223.263.422.512.766.554.341.039.463.09.287-.126-.619-.747-.934-.423-1.242-.653" fill="#437e24"/><path d="M20.53 15.242c.271.17.826.3 1.217.217.22-.046.146-.086-.004-.13-.293-.09-.38-.386-1.022-.339-.123.01-.253.048-.48-.076" fill="#437e24"/><path d="M20.267 15.016c.312.199.512.664.559 1.13.025.255-.045.38-.155.104-.136-.338-.383-.332-.54-.84-.135-.457-.225-.51-.468-.604" fill="#437e24"/><path d="M19.503 14.685c.424.23.635.587.687 1.012.045.389-.05.333-.181.098-.125-.225-.363-.193-.514-.683-.05-.159-.162-.41-.486-.509M19.089 14.548c.662.205 1.27.182 1.63-.086.184-.135.136-.185-.021-.161-.443.07-.623-.183-1.158.059-.115.05-.314.108-.755-.06" fill="#437e24"/><path d="M16.595 17.578s-.763-.686-.857-.779c-.093-.093-.187-.499-.187-.499l.25-.156 1.107 1.138-.313.296z" fill="#b1b6ba"/><path d="M15.536 16.315l.234-.186s-.202-.203-.234-.406c-.031-.203-.577-.825-.686-.98-.108-.158-.25-.125-.312 0-.061.123-.201.217-.217.31-.016.093.343.421.514.608.17.187.358.264.452.373.093.11.249.281.249.281M16.643 17.407l-.473-.529.127-.126.455.514-.11.141z" fill="#6c301e"/><path d="M14.46 22.02l1.511-1.574.374.186-.116.17-.258-.06-1.51 1.278z" fill="#b1b6ba"/><path d="M16.346 15.476l.187-.314.17.158s.138-.25 0-.296c-.14-.048-.242 0-.242 0l-.473-.387s-.187.113-.343 0c0 0 .032.23.125.23s.434.452.434.452-.18.05-.144.157c.037.107.286 0 .286 0" fill="#fab81b"/><path d="M16.346 15.35s2.772 2.758 3.927 2.862c0 0-.873-.531-1.42-.967-.545-.437-2.32-2.082-2.32-2.082l-.187.187z" fill="#b1b6ba"/><path d="M19.493 17.578s.764-.686.855-.779c.094-.093.188-.499.188-.499l-.248-.156-1.107 1.138.312.296z" fill="#b1b6ba"/><path d="M20.552 16.315l-.234-.186s.203-.203.234-.406c.03-.203.578-.825.686-.98.109-.158.25-.125.312 0 .063.123.2.217.217.31.017.093-.344.421-.514.608-.17.187-.357.264-.451.373-.094.11-.25.281-.25.281M19.444 17.407l.473-.529-.125-.126-.455.514.107.141z" fill="#6c301e"/><path d="M18.785 19.736l-.176-.497 1.506 1.503-.232.042-1.098-1.048z" fill="#b1b6ba"/><path d="M21.626 22.02l-1.512-1.574-.373.186.373.11 1.512 1.278z" fill="#b1b6ba"/><path d="M19.741 15.476l-.186-.314-.169.158s-.139-.25 0-.296a.347.347 0 0 1 .242 0l.472-.387s.188.113.342 0c0 0-.03.23-.125.23-.094 0-.433.452-.433.452s.18.05.142.157c-.035.107-.285 0-.285 0" fill="#fab81b"/><path d="M19.741 15.35s-2.773 2.758-3.926 2.862c0 0 .874-.531 1.42-.967.545-.437 2.32-2.082 2.32-2.082l.186.187z" fill="#b1b6ba"/><path d="M16.367 20.836c.453.026 1.76-.016 2.244 0 .482.015.373-.234.404-.375.03-.14-.263-.295-.263-.295s.31-.187.716-1.278c.404-1.091.31-1.59-.234-1.621-.545-.031-1.947-.124-2.416-.124-.467 0-.545.17-.545.42 0 .25.374.624.748.412 0 0 0 .166-.217.789-.218.623-.686 1.293-.733 1.589-.047.296.062.469.296.483" fill="#f9f0aa"/><path d="M17.738 21.91c-.187.173.073.36.263.344.188-.016.282-.124.08-.343 0 0 .546-.296.98-.701.436-.405 1.333-1.498 1.419-2.68.109-1.527-.733-2.322-1.045-2.866-.311-.546-1.012-1.918-1.012-1.918s-.015.702.904 1.98c0 0-.716-1.278-1.822-1.512 0 0 1.384.976 1.773 1.756.389.778.958 1.949.866 2.759-.094.81-.241 1.499-1.315 2.03 0 0-.681.038-.982.28-.483.39-.11.872-.11.872" fill="#437e24"/><path d="M18.752 20.166c0-.047.202-.3.175-.3h-2.381c-.026 0-.16.164-.16.212l-.181.212c.14-.055.315 0 .34 0h2.38c.027 0-.174-.077-.174-.124M17.022 17.407c0-.047-.1-.2-.073-.2h2.381c.025 0 .245.164.245.211l.096.212c-.142-.055-.316 0-.341 0h-2.381c-.026 0 .073-.176.073-.223" fill="#e2cf81"/></g></svg>