<svg xmlns="http://www.w3.org/2000/svg" viewBox="0 0 45 45"><defs><clipPath id="a"><path d="M0 36h36V0H0v36z"/></clipPath></defs><g clip-path="url(#a)" transform="matrix(1.25 0 0 -1.25 0 45)"><path d="M36 9a4 4 0 0 0-4-4H4a4 4 0 0 0-4 4v18a4 4 0 0 0 4 4h28a4 4 0 0 0 4-4V9z" fill="#265fb5"/><path d="M27.532 17.067c-.05.525.801 1.828.117 1.734-.837-.114-1.49.462-1.774.45.906 1.28.233 1.606.031 2.436-.356 1.458.781 2.172-1.25 2.485-1.32.203-2.232.065-2.63 1.574-.583-.409-1.275-.51-1.93-.224-.42.183-.552.532-.948.701-.299.127-.925.126-1.26.18-.923.145-1.399-.265-2.227-.128.08-.12.091-.275.146-.403-.51-.018-.82-.36-.876-.837-.747.075-.937-.898-.853-1.512L14 23.5l.031-.032c-.157-1.625-.818-2.438-2.483-2.693-1.096-.168-2.07.561-3.017 1.147a4.265 4.265 0 0 0-.766.625c-.28.31-.478.747-.75.968-.125.102-.39.188-.354-.02-.172-1.078.616-2.42 1.522-2.94-1.242-.573.315-.916.538-1.11.004-.005.54-.74.543-.768.085-.526-.277-.466-.315-.887-.04-.436-.039-.787.107-1.222l-.03-.03c.005-.35-.26-.226-.604-.148.047-1.062 1.058-1.154 1.228-1.362.545-.669.357-1.642.992-2.265 1.564-1.532 3.347-.628 5.117-.884.994-.145 1.846-.979 2.747-.038 1.06-1.16-.815-2.535-.357-2.926a.664.664 0 0 1 .41-.167c-.026-.072-.067-.136-.086-.21 1.273-.12 2.613-.425 3.802.201-.002-.19.126-.423.133-.525.292.35.52.33.892.515.465.233 1.286.511 1.594.976.368.553-.21 1.32.95 1.082.088.4.126.358.338.624-.319.8.63 1.34.914 1.912.057.116.062.652.137.854.145.385.556.6.67 1.081.21.887-.297 1.04-.37 1.81" fill="#fff"/></g></svg>