<svg xmlns="http://www.w3.org/2000/svg" viewBox="0 0 45 45"><defs><clipPath id="a"><path d="M0 36h36V0H0v36z"/></clipPath></defs><g clip-path="url(#a)" transform="matrix(1.25 0 0 -1.25 0 45)"><path d="M36 9a4 4 0 0 0-4-4H4a4 4 0 0 0-4 4v18a4 4 0 0 0 4 4h28a4 4 0 0 0 4-4V9z" fill="#eee"/><path d="M10.39 14.746s-.336-1.015-.252-2.029c.085-1.015 2.45-.93 2.959-.846.506.085.845.085.506-.339-.337-.42-.76-1.097-.675-1.859.084-.759-1.015-.253-1.352.51-.34.758-.678.758-1.27 1.096-.591.338-1.164 1.191-1.521 1.692-.423.59-.676 1.014 1.606 1.775M25.608 14.746s.34-1.015.254-2.029c-.083-1.015-2.452-.93-2.959-.846-.508.085-.845.085-.508-.339.34-.42.762-1.097.678-1.859-.085-.759 1.014-.253 1.351.51.34.758.677.758 1.27 1.096.592.338 1.163 1.191 1.521 1.692.422.59.676 1.014-1.607 1.775" fill="#ce1a24"/><path d="M27.047 13.14c-.931-.423-2.861-.702-3.637-.761-1.025-.08-1.182-.338-1.182-.592 0-.254 1.098-.422 1.69-.337.592.083 1.269-.085.254-.677-1.015-.591-2.367-1.438-3.636-1.775C19.268 8.658 18 8.744 18 8.744s-1.268-.085-2.537.254c-1.267.337-2.62 1.184-3.634 1.775-1.015.592-.34.76.253.677.592-.085 1.69.083 1.69.337s-.157.513-1.183.592c-.774.059-2.706.338-3.635.762a.976.976 0 0 0-.508.506s0-.17.085-.676c.085-.507.508-.845.592-1.353.085-.506.085-.761.507-.845.423-.085 1.353-.17 1.353-.17s0-.76-.17-1.183c-.168-.422.424-1.184 2.706-2.03 2.283-.846 3.298-.761 4.48-.761 1.185 0 2.199-.085 4.482.762 2.284.845 2.874 1.607 2.706 2.029-.17.424-.17 1.183-.17 1.183s.93.085 1.352.17c.425.084.425.339.508.845.085.508.507.846.592 1.353.084.506.084.676.084.676s-.114-.328-.506-.506" fill="#f6e4be"/><path d="M14.28 8.658c.938-.314 4.833-1.13 7.186-.085.761.341 1.014-.674.338-.93-.53-.198-2.62-.506-3.55-.506-.93 0-3.483.295-4.228.591-.423.171-.253 1.101.254.93" fill="#bcad96"/><path d="M23.41 25.483H12.589v-1.521H23.41v1.521z" fill="#666"/><path d="M18 11.532V24.47h-5.411v-6.426c0-3.214 2.029-4.482 3.043-5.24 1.015-.762 2.368-1.27 2.368-1.27M18 11.532V24.47h5.41v-6.426c0-3.214-2.029-4.482-3.044-5.24-1.013-.762-2.366-1.27-2.366-1.27" fill="#ce1a24"/><path d="M12.723 16.69c.468-2.239 2.052-3.246 2.91-3.889 1.014-.76 2.367-1.269 2.367-1.269s1.352.51 2.366 1.27c.861.642 2.442 1.65 2.911 3.888H12.723zM23.41 20.495H12.589v3.974H23.41v-3.974z" fill="#1353b4"/><path d="M18 29.372V25.23s-1.268 0-2.621-.169-2.79-.59-2.79-.59l-1.268 2.788-.253-.084-.423 1.1.845.252.169-.507.338.085-.084.507.845.17.092-.536.331.091v.614l.845.084.071-.529.606.106v-.338h.169v.423h.423v-.339h.253v.423h.423v-.338l.339.084v.762l.844.084v-.507h.423v.507H18zM18 29.372V25.23s1.268 0 2.621-.169 2.789-.59 2.789-.59l1.269 2.788.254-.084.422 1.1-.845.252-.17-.507-.337.085.084.507-.845.17-.093-.536-.331.091.001.614-.845.084-.072-.529-.605.106v-.338h-.169v.423h-.422v-.339h-.255v.423h-.422v-.338l-.338.084v.762l-.845.084v-.507h-.423v.507H18z" fill="#eace23"/><path d="M18 28.019a.337.337 0 0 1-.338-.337v-.846h.676v.846a.337.337 0 0 1-.338.337M12.878 27.493a.337.337 0 0 1-.242-.413l.213-.817.654.17-.213.817a.338.338 0 0 1-.412.243M23.121 27.493a.339.339 0 0 0 .243-.413l-.214-.817-.654.17.213.817c.047.181.231.29.412.243" fill="#5e520d"/><path d="M14.788 23.031s.084.17 0 .423c-.076.227-.423.423-.423.423s-.347-.196-.423-.423c-.085-.254 0-.423 0-.423-.423.17-.592-.254-.592-.507 0-.254.339-.423.339-.423s0 .34.168.34c.17 0 .17-.34.17-.34-.338 0 0-.254 0-.254l-.254-.422.338.085c-.084-.254.254-.508.254-.508s.338.254.253.508l.339-.085-.254.422s.338.254 0 .254c0 0 0 .34.169.34s.169-.34.169-.34.338.17.338.423-.17.676-.591.507M22.059 23.031s.084.17 0 .423c-.075.227-.423.423-.423.423s-.346-.196-.423-.423c-.085-.254 0-.423 0-.423-.423.17-.591-.254-.591-.507 0-.254.337-.423.337-.423s0 .34.169.34.169-.34.169-.34c-.338 0 0-.254 0-.254l-.253-.422.337.085c-.084-.254.255-.508.255-.508s.338.254.253.508l.339-.085-.254.422s.338.254 0 .254c0 0 0 .34.169.34s.169-.34.169-.34.339.17.339.423-.17.676-.592.507M18.423 23.031s.084.17 0 .423c-.076.227-.423.423-.423.423s-.347-.196-.423-.423c-.084-.254 0-.423 0-.423-.423.17-.591-.254-.591-.507 0-.254.338-.423.338-.423s0 .34.169.34.169-.34.169-.34c-.338 0 0-.254 0-.254l-.254-.422.339.085c-.085-.254.253-.508.253-.508s.338.254.254.508l.338-.085-.254.422s.338.254 0 .254c0 0 0 .34.169.34s.169-.34.169-.34.339.17.339.423-.17.676-.592.507" fill="#eace23"/><path d="M18.93 18.55l.422.592-1.183-.339.338 1.1-.507-.338-.507.338.338-1.1-1.184.34.423-.593-.423-.507 1.184.422-.423-1.182.592.337.592-.337-.423 1.182 1.183-.422-.422.507z" fill="#fff"/><path d="M18.93 13.985s-.254 0-.254-.254c0-.255.254-.338.254-.338s-.17-.253-.423-.253c-.254 0-.338.253-.338.253s.338.083.338.253c0 .17-.254.254-.254.254s0 .423-.253.423c-.254 0-.254-.423-.254-.423s-.253-.084-.253-.254c0-.17.338-.253.338-.253s-.085-.253-.338-.253c-.254 0-.423.253-.423.253s.253.083.253.338c0 .254-.253.254-.253.254 0 .338-.338.17-.338.17l.253-1.776h2.029l.253 1.776s-.337.168-.337-.17M16.985 16.185s-.253 0-.253-.256c0-.253.253-.338.253-.338s-.169-.253-.422-.253c-.254 0-.339.253-.339.253s.34.085.34.253c0 .17-.255.256-.255.256s0 .42-.254.42c-.253 0-.253-.42-.253-.42s-.254-.085-.254-.256c0-.168.338-.253.338-.253s-.084-.253-.338-.253c-.253 0-.423.253-.423.253s.254.085.254.338c0 .256-.254.256-.254.256 0 .336-.338.168-.338.168l.254-1.776h2.029l.253 1.776s-.338.168-.338-.168M20.874 16.185s-.253 0-.253-.256c0-.253.253-.338.253-.338s-.168-.253-.423-.253c-.253 0-.338.253-.338.253s.338.085.338.253c0 .17-.253.256-.253.256s0 .42-.254.42c-.253 0-.253-.42-.253-.42s-.254-.085-.254-.256c0-.168.338-.253.338-.253s-.084-.253-.338-.253c-.253 0-.422.253-.422.253s.253.085.253.338c0 .256-.253.256-.253.256 0 .336-.339.168-.339.168l.254-1.776h2.029l.254 1.776s-.339.168-.339-.168" fill="#eace23"/></g></svg>