<svg xmlns="http://www.w3.org/2000/svg" viewBox="0 0 45 45"><defs><clipPath id="a"><path d="M0 36h36V0H0v36z"/></clipPath></defs><g clip-path="url(#a)" transform="matrix(1.25 0 0 -1.25 0 45)"><path d="M36 9a4 4 0 0 0-4-4H4a4 4 0 0 0-4 4v18a4 4 0 0 0 4 4h28a4 4 0 0 0 4-4V9z" fill="#fc0"/><path d="M4 31a4 4 0 0 1-4-4V9a4 4 0 0 1 4-4h8v26H4z" fill="#eee"/><path d="M24 5H12v26h12V5z" fill="#0868a9"/><path d="M21.02 19.7c-.278.29-.614 0-.762.088-.145.088-.336.154-.32-.154.014-.308.248-.45.38-.553.132-.102.058-.408.058-.408s-.219.25-.307.41c-.088.162-.16.309-.322.309s-.323-.22-.22-.307c.102-.088.47-.176.47-.41 0-.235.146-.47.146-.47l-.044-.16s-.146.073-.19.16c-.044.089.044.367-.161.367-.207 0-.265-.454-.133-.527.132-.073.512-.498.512-.498s.161-.307.41-.454c.25-.145.572-.47.572-.47s-.425-.306-.454-.497c-.03-.19.146-.262.131-.425-.015-.16-.205-.078-.366-.166-.162-.087.003-.312.003-.312h.44l.217.405v.294l.463.103s-.042-.176.046-.28c.088-.102.426-.248.426-.497 0-.25-.13-.257-.278-.271-.146-.016-.219-.186-.219-.186h.572s.16.375.25.55c.086.177.028.298-.075.343-.102.044-.204.272-.175.463 0 0 .204-.164.44-.12.233.044.438.24.453.489.014.25 0 .495-.234.582-.235.087-.19-.164-.103-.236.088-.074.088-.397-.029-.47-.118-.074-.307-.162-.367.043-.058.205-.186.526-.435.614-.249.088-.589.645-.574 1.04.014.396.117 1.26-.22 1.61M14.96 19.7c.277.29.614 0 .76.088.147.088.337.154.322-.154-.014-.308-.249-.45-.38-.553-.132-.102-.059-.408-.059-.408s.22.25.309.41c.087.162.16.309.321.309s.322-.22.22-.307c-.103-.088-.469-.176-.469-.41 0-.235-.147-.47-.147-.47l.045-.16s.146.073.19.16c.044.089-.044.367.161.367.205 0 .264-.454.132-.527-.131-.073-.512-.498-.512-.498s-.161-.307-.41-.454c-.25-.145-.571-.47-.571-.47s.425-.306.454-.497c.029-.19-.146-.262-.132-.425.015-.16.205-.078.367-.166.16-.087.118-.306.118-.306h-.441l-.337.399v.294l-.456.103s.038-.176-.05-.28c-.088-.102-.428-.248-.428-.497 0-.25.13-.257.276-.271.147-.016.218-.186.218-.186h-.57s-.162.375-.25.55c-.088.177-.03.298.073.343.102.044.205.272.176.463 0 0-.205-.164-.439-.12-.235.044-.44.24-.454.489-.015.25 0 .495.233.582.235.087.191-.164.103-.236-.087-.074-.087-.397.03-.47.116-.074.307-.162.366.043.06.205.186.526.435.614.25.088.59.645.575 1.04-.015.396-.117 1.26.22 1.61" fill="#c09b5a"/><path d="M21.226 18.755c-.213-.036-.555-.009-.805.007-.088.006-.122-.249-.058-.263.196-.046.713-.076.875.018.06.035.084.253-.012.238" fill="#8c8d8f"/><path d="M20.176 19.831s-.086-.13-.24-.154c0 0-.016.124.073.172.09.048.167-.018.167-.018M20.53 19.612c-.128.026-.227-.051-.103-.095.125-.044.183.079.103.095M21.08 19.311s-.015-.468-.27-.46c-.257.007-.155.402 0 .57 0 0-.185-.47-.016-.483.17-.013.286.374.286.374"/><path d="M14.754 18.755c.213-.036.555-.009.806.007.088.006.121-.249.058-.263-.196-.046-.713-.076-.875.018-.06.035-.084.253.011.238" fill="#8c8d8f"/><path d="M15.805 19.831s.085-.13.239-.154c0 0 .017.124-.072.172-.09.048-.167-.018-.167-.018M15.45 19.612c.129.026.227-.051.103-.095-.124-.044-.183.079-.103.095M14.9 19.311s.016-.468.272-.46c.256.007.154.402 0 .57 0 0 .184-.47.015-.483-.17-.013-.286.374-.286.374"/><path d="M17.998 21.435v-2.491h-.97s-.315.783-.374.847c-.058.063-.332.227-.332.587 0 .362.457.675.932.485 0 0 .296.284.615.212l.07.046-.007.314h.066z" fill="#ebd11b"/><path d="M17.815 20.549v-.234l-.163-.182s-.158-.014-.23.04c-.073.055-.136.186-.136.186s.167.113.264.14c.098.028.265.05.265.05M17.227 20.282s-.027-.19-.168-.24c-.14-.05-.28-.027-.28-.027s.036.1.153.181a.64.64 0 0 0 .295.086" fill="#be1827"/><path d="M17.507 20.753c.146.035.308 0 .308 0s-.004-.206-.195-.237c-.19-.03-.267.056-.267.056s.04.154.154.18M16.605 20.359c-.052.25.292.342.464.15 0 0 .034-.258-.17-.337-.202-.08-.275.088-.295.187M17.07 20.707c.045.096.238.008.18-.095-.06-.103-.254-.067-.18.096" fill="#0868a9"/><path d="M17.112 20.463c.09.095.227-.094.115-.145-.112-.05-.184.073-.115.145" fill="#0868a9"/><path d="M17.998 21.435v-2.491h.984s.317.783.376.847c.058.063.332.227.332.587 0 .362-.457.675-.933.485 0 0-.296.284-.615.212l-.07.046.007.314h-.08z" fill="#ebd11b"/><path d="M18.166 20.549v-.234l.177-.182s.166-.014.238.04c.073.055.14.186.14.186s-.18.113-.278.14c-.097.028-.277.05-.277.05M18.784 20.282s.027-.19.167-.24c.141-.05.281-.027.281-.027s-.036.1-.154.181c-.117.081-.294.086-.294.086" fill="#be1827"/><path d="M18.503 20.753c-.145.035-.307 0-.307 0s.003-.206.194-.237c.19-.03.267.056.267.056s-.04.154-.154.18M19.406 20.359c.052.25-.292.342-.464.15 0 0-.034-.258.17-.337.201-.08.273.088.294.187M18.94 20.707c-.044.096-.237.008-.18-.095.06-.103.256-.067.18.096" fill="#0868a9"/><path d="M18.898 20.463c-.09.095-.227-.094-.114-.145.112-.05.184.073.114.145" fill="#0868a9"/><path d="M17.028 19.084c0 .186.43.337.963.337.532 0 .963-.15.963-.337 0-.186-.431-.337-.963-.337s-.963.151-.963.337" fill="#be1827"/><path d="M17.998 19.145h-1.874v-3.064c0-1.207 1.876-1.207 1.876-1.207s1.855 0 1.855 1.207v3.064h-1.856z" fill="#020202"/><path d="M17.998 18.943v-3.842s-1.66-.015-1.66.981v2.861h1.66zM17.998 18.943v-3.842s1.661-.015 1.661.981v2.861H18z" fill="#4c86c7"/><path d="M17.998 21.79v.75s-.657-.018-1.088-.067c-.555-.066-.85-.254-.675-.567 0 0-.185-.176-.43-.225-.245-.048-.635 0-.635 0s.197-.332.44-.419c0 0-.07-.225-.373-.273 0 0 .635-.108 1.094.087.46.195.712.361.78.43.07.068-.18.224.005.244.185.02.882.04.882.04" fill="#a5a7a9"/><path d="M17.998 21.79v.75s.645-.018 1.076-.067c.555-.066.845-.254.67-.567 0 0 .18-.176.426-.225.245-.048.634 0 .634 0s-.197-.332-.44-.419c0 0 .068-.225.371-.273 0 0-.634-.108-1.093.087-.459.195-.713.361-.78.43-.07.068.193.224.008.244-.187.02-.872.04-.872.04" fill="#a5a7a9"/><path d="M18.557 15.453h-1.132l.566.566.566-.566zM17.737 17.327h-1.132l.566.566.566-.566zM17.737 18.206h-1.132l.566.567.566-.567zM17.737 16.39h-1.132l.566.567.566-.566zM19.318 17.327h-1.132l.566.566.566-.566zM19.318 18.206h-1.132l.566.567.566-.567zM19.318 16.39h-1.132l.566.567.566-.566z" fill="#fff"/></g></svg>