<svg xmlns="http://www.w3.org/2000/svg" viewBox="0 0 45 45"><defs><clipPath id="a"><path d="M0 36h36V0H0v36z"/></clipPath><clipPath id="b"><path d="M4 31a4 4 0 0 1-4-4V9a4 4 0 0 1 4-4h28a4 4 0 0 1 4 4v18a4 4 0 0 1-4 4H4z"/></clipPath></defs><g clip-path="url(#a)" transform="matrix(1.25 0 0 -1.25 0 45)"><path d="M36 9a4 4 0 0 0-4-4H4a4 4 0 0 0-4 4v18a4 4 0 0 0 4 4h28a4 4 0 0 0 4-4V9z" fill="#eee"/></g><g clip-path="url(#b)" transform="matrix(1.25 0 0 -1.25 0 45)"><path d="M36 13H0v10h36V13z" fill="#0a4ea2"/><path d="M36 5H0v8h36V5z" fill="#ee2024"/><path d="M11.837 10.91c-1.129.645-3.638 2.278-4.555 4.488-.925 2.227-.719 5.424-.482 9.124l.06.936h11.963l.061-.935c.238-3.7.444-6.895-.48-9.124-.919-2.21-3.427-3.844-4.556-4.489l-1.004-.572-1.007.572z" fill="#fff"/><path d="M17.886 24.459H7.8c-.239-3.706-.422-6.68.407-8.676 1.021-2.46 4.516-4.22 4.631-4.277V11.5l.006.002.005-.002v.005c.115.057 3.61 1.817 4.632 4.277.828 1.996.645 4.97.406 8.676" fill="#ee2024"/><path d="M13.469 15.197c0-.247-.2-.447-.447-.447h-.606c-.247 0-.447.2-.447.447 0 0 .28 4.053.28 5.178s-.28 3.146-.28 3.146c0 .247.2.447.447.447h.606c.247 0 .447-.2.447-.447 0 0-.25-1.895-.25-3.115 0-1.219.25-5.209.25-5.209" fill="#fff"/><path d="M10.557 20.766c-.247 0-.447.2-.447.447v.606c0 .247.2.447.447.447 0 0 1.048-.203 2.1-.203 1.05 0 2.224.203 2.224.203.247 0 .447-.2.447-.447v-.606c0-.247-.2-.447-.447-.447 0 0-.944.266-2.225.266-1.281 0-2.1-.266-2.1-.266M9.541 18.39c-.247 0-.447.2-.447.448v.606c0 .247.2.447.447.447 0 0 1.896-.172 3.209-.172 1.312 0 3.115.172 3.115.172.247 0 .447-.2.447-.447v-.606c0-.247-.2-.447-.447-.447 0 0-1.842.133-3.279.133-1.437 0-3.045-.133-3.045-.133" fill="#fff"/><path d="M17.08 15.035c-.509 1.086-1.906 1.393-2.569.066-.438 1.594-1.68 1.594-1.68 1.594s-1.245 0-1.683-1.594c-.658 1.317-2.04 1.025-2.557-.04 1.314-2.075 4.143-3.505 4.246-3.555V11.5l.006.003.005-.003v.006c.103.05 2.91 1.468 4.231 3.53" fill="#0a4ea2"/></g></svg>