<svg xmlns="http://www.w3.org/2000/svg" viewBox="0 0 45 45"><defs><clipPath id="a"><path d="M0 36h36V0H0v36z"/></clipPath></defs><g clip-path="url(#a)" transform="matrix(1.25 0 0 -1.25 0 45)"><path d="M36 9a4 4 0 0 0-4-4H4a4 4 0 0 0-4 4v18a4 4 0 0 0 4 4h28a4 4 0 0 0 4-4V9z" fill="#eee"/><path d="M32 31H4a4 4 0 0 1-4-4V19.049c.402.213.846.404 1.636.404 1.819 0 1.819-1 3.637-1s1.818 1 3.636 1 1.818-1 3.636-1c1.819 0 1.819 1 3.637 1s1.818-1 3.636-1c1.819 0 1.819 1 3.629 1 1.826 0 1.826-1 3.64-1 1.822 0 1.822 1 3.639 1 1.82 0 1.82-1.016 3.637-1.016.791 0 1.235.231 1.637.438V27a4 4 0 0 1-4 4" fill="#ce1126"/><path d="M20.878 18.263c.277.377.663.375 1.124.135-.063.61-.793.996-1.122 1.049.134.449.565.675 1.078.608-.266.553-1.145.57-1.475.504-.025.47.306.832.808.948-.433.427-1.267.137-1.555-.04-.18.434.007.888.443 1.172-.552.25-1.24-.311-1.45-.576-.316.344-.291.836.02 1.253-.602.044-1.058-.725-1.165-1.047-.414.213-.558.68-.407 1.182-.58-.17-.748-1.05-.741-1.388-.46.055-.753.447-.78.97-.488-.361-.35-1.245-.228-1.561-.451-.11-.86.159-1.06.64-.338-.51.09-1.293.31-1.547-.387-.258-.86-.15-1.211.235-.146-.596.52-1.185.813-1.348-.276-.377-.444-.653-.904-.416.064-.611.575-.715.905-.766l6.597-.007z" fill="#ffac33"/><path d="M19.922 18.858l2.266.823-2.404-.012 1.85 1.563-2.257-.849 1.213 2.112-1.836-1.58.429 2.405-1.193-2.123-.407 2.41-.407-2.41-1.192 2.123.429-2.405-1.835 1.58 1.212-2.112-2.257.85 1.85-1.564-2.405.012 2.267-.823h4.677z" fill="#fff100"/><path d="M17.583 16.48c1.291 0 2.339 1.064 2.339 2.377 0 1.313-1.048 2.376-2.339 2.376-1.292 0-2.339-1.063-2.339-2.376s1.047-2.377 2.339-2.377" fill="#fff100"/><path d="M17.583 16.48c1.291 0 2.339 1.064 2.339 2.377 0 1.313-1.048 2.376-2.339 2.376-1.292 0-2.339-1.063-2.339-2.376s1.047-2.377 2.339-2.377z" fill="none" stroke="#f15a29" stroke-width=".06"/><path d="M17.439 26.496c-.187.253-.421.522-.702.649-.28.126-.782.205-1.324.063-.609-.158-1.332-.403-1.903-.236-.108.03-.186-.08.033-.206.218-.128.77-.16 1.324-.088.39.05.903.032 1.106-.047.241-.095.678-.42.864-.753l.601.618zM18.67 25.118c.168.067.552.1.707.073.204-.034.486.068.58.11.167.074-.012.202-.664.165-.429-.023-.596-.212-.624-.348" fill="#ffac33"/><path d="M18.241 24.825c.395.151.765.666 1.435.65.638-.017.972.19.42.332-.553.142-.975.087-1.349.015-.48-.09-.974.38-1.706.12-.295-.106-.694.015-.88.197-.212.205-.496.23-.702.02-.039-.04-.086-.103-.215-.103-.222 0-.576-.004-.58-.376.117.147.198.17.577.17.058 0 .128-.027.187-.127a.58.58 0 0 1 .467-.265c.191-.004.271-.133.397-.269.367-.396 1.185-.657 1.95-.364" fill="#fcd116"/><path d="M16.627 25.783c-.02-.2.34-.4.452-.444.15-.055.28-.015.312.127.11-.095.288-.008.288.111.102-.047.242.016.265.158.125-.032.25.032.233.127.141-.055.25-.012.274.083.097-.036.245.024.277.127.096-.04.24.016.278.11.127-.046.26-.01.318.103.085-.05.233.005.257.123.086-.055.218-.047.25.08.11-.076.241-.017.234.11.05-.023.154 0 .163.08.202-.009.46 0 .46.15.171-.008.412.07.407.256.12.008.273.102.31.235.031.11-.094.18-.312.19-1.348.063-1.69-.214-2.346-.269-.598-.05-.974-.232-1.278-.586-.273-.317-.544-.605-.694-.705-.089-.06-.144-.127-.148-.166" fill="#fcd116"/><path d="M20 16h-5v2h5v-2z" fill="#eee"/><path d="M35.926 8.267c-.384-.211-.818-.314-1.562-.314-1.818 0-1.818.985-3.636.985-1.82 0-1.82-1-3.694-1-1.761 0-1.761 1-3.608 1-1.79 0-1.79-1-3.607-1-1.82 0-1.82 1-3.637 1-1.818 0-1.818-1-3.636-1-1.82 0-1.82 1-3.637 1-1.818 0-1.818-1-3.636-1s-1.818 1-3.637 1c-.762 0-1.2-.178-1.591-.383C.269 6.559 1.944 5 4 5h28a3.996 3.996 0 0 1 3.926 3.267M36 10.617v1.944c-.402-.227-.846-.374-1.637-.374-1.817 0-1.817 1.007-3.635 1.007-1.819 0-1.819-1-3.694-1-1.761 0-1.761 1-3.608 1-1.789 0-1.789-1-3.608-1-1.818 0-1.818 1-3.636 1s-1.818-1-3.637-1c-1.818 0-1.818 1-3.636 1s-1.818-1-3.636-1-1.818 1-3.637 1c-.79 0-1.234-.19-1.636-.404v-2c.402.214.846.404 1.636.404 1.819 0 1.819-1 3.637-1s1.818 1 3.636 1 1.818-1 3.636-1c1.819 0 1.819 1 3.637 1s1.818-1 3.636-1c1.819 0 1.819 1 3.629 1 1.826 0 1.826-1 3.64-1 1.822 0 1.822 1 3.639 1 2.378 0 2.323-.99 3.637-.99.791 0 1.235.206 1.637.413M36 14.874v1.944c-.402-.227-.846-.365-1.637-.365-1.817 0-1.817.999-3.635.999-1.819 0-1.819-1.001-3.694-1.001-1.761 0-1.761 1.001-3.608 1.001-1.789 0-1.789-1.001-3.608-1.001-1.818 0-1.818 1.001-3.636 1.001s-1.818-1.001-3.637-1.001c-1.818 0-1.818 1.001-3.636 1.001s-1.818-1.001-3.636-1.001-1.818 1.001-3.637 1.001c-.79 0-1.234-.191-1.636-.405v-2c.402.214.846.404 1.636.404 1.819 0 1.819-1 3.637-1s1.818 1 3.636 1 1.818-1 3.636-1c1.819 0 1.819 1 3.637 1s1.818-1 3.636-1c1.819 0 1.819 1 3.629 1 1.826 0 1.826-1 3.64-1 1.822 0 1.822 1 3.639 1 1.82 0 1.82-.969 3.637-.969.791 0 1.235.185 1.637.392" fill="#00247d"/><path d="M36 16.875v1.979c-.402-.228-.846-.43-1.637-.43-1.817 0-1.817 1.063-3.635 1.063-1.819 0-1.819-1.001-3.694-1.001-1.761 0-1.761 1.001-3.608 1.001-1.789 0-1.789-1.001-3.608-1.001-1.818 0-1.818 1.001-3.636 1.001s-1.818-1.001-3.637-1.001c-1.818 0-1.818 1.001-3.636 1.001s-1.818-1.001-3.636-1.001-1.818 1.001-3.637 1.001c-.79 0-1.234-.191-1.636-.404v-2c.402.212.846.404 1.636.404 1.819 0 1.819-1.001 3.637-1.001s1.818 1.001 3.636 1.001 1.818-1.001 3.636-1.001c1.819 0 1.819 1.001 3.637 1.001s1.818-1.001 3.636-1.001c1.819 0 1.819 1.001 3.629 1.001 1.826 0 1.826-1.001 3.64-1.001 1.822 0 1.822 1.001 3.639 1.001 1.82 0 1.82-.987 3.637-.987.791 0 1.235.168 1.637.375" fill="#eee"/></g></svg>