<svg xmlns="http://www.w3.org/2000/svg" viewBox="0 0 45 45"><defs><clipPath id="a"><path d="M0 36h36V0H0v36z"/></clipPath></defs><g clip-path="url(#a)" transform="matrix(1.25 0 0 -1.25 0 45)"><path d="M32 31H6.5L19 22.5h17V27a4 4 0 0 1-4 4" fill="#de3830"/><path d="M6.5 5H32a4 4 0 0 1 4 4v4.5H19L6.5 5z" fill="#002395"/><path d="M0 25V11l10.5 7L0 25z" fill="#141414"/><path d="M0 27v-2l10.5-7L0 11V9l13.5 9L0 27z" fill="#ffb611"/><path d="M3.54 30.972A4 4 0 0 1 0 27l13.5-9L0 9a4 4 0 0 1 3.54-3.971l14.96 10.47H36v5H18.5L3.54 30.973z" fill="#007a4d"/><path d="M6.5 31H4c-.156 0-.308-.011-.459-.028L18.5 20.5H36v2H19L6.5 31zM3.54 5.028C3.693 5.011 3.846 5 4 5h2.5L19 13.5h17v2H18.5L3.54 5.028z" fill="#eee"/></g></svg>