<svg xmlns="http://www.w3.org/2000/svg" viewBox="0 0 45 45"><defs><clipPath id="a"><path d="M0 36h36V0H0v36z"/></clipPath></defs><g clip-path="url(#a)" transform="matrix(1.25 0 0 -1.25 0 45)"><path d="M36 4a4 4 0 0 0-4-4H4a4 4 0 0 0-4 4v28a4 4 0 0 0 4 4h28a4 4 0 0 0 4-4V4z" fill="#3b88c3"/><path d="M23.088 14.07c.526 1.178.744 2.541.744 3.968 0 3.69-1.954 7.131-5.83 7.131-3.875 0-5.83-3.379-5.83-7.13 0-3.783 1.893-7.133 5.83-7.133.713 0 1.365.094 1.984.218L18.87 12.21c-.342.31-.59.806-.59 1.24 0 1.21.838 2.232 2.109 2.232.434 0 .805-.155 1.178-.403l1.52-1.209zm.37-6.078c-1.518-.868-3.347-1.364-5.456-1.364-6.294 0-10.665 4.992-10.665 11.41 0 6.45 4.34 11.41 10.665 11.41 6.232 0 10.666-5.116 10.666-11.41 0-2.729-.713-5.209-2.078-7.162l1.768-1.52c.589-.527 1.085-1.023 1.085-1.892 0-1.084-1.085-1.953-2.138-1.953-.684 0-1.24.28-2.078.993l-1.768 1.488z" fill="#fff"/></g></svg>