<svg xmlns="http://www.w3.org/2000/svg" viewBox="0 0 45 45"><defs><clipPath id="a"><path d="M0 36h36V0H0v36z"/></clipPath></defs><g clip-path="url(#a)" transform="matrix(1.25 0 0 -1.25 0 45)"><path d="M36 9a4 4 0 0 0-4-4H4a4 4 0 0 0-4 4v18a4 4 0 0 0 4 4h28a4 4 0 0 0 4-4V9z" fill="#ffcc4d"/><path d="M35 9a3 3 0 0 0-3-3H4a3 3 0 0 0-3 3v18a3 3 0 0 0 3 3h28a3 3 0 0 0 3-3V9z" fill="#dd2e44"/><path d="M22.885 18.6c.604 2.41-1.354 4.54-1.354 4.54l-.513-2.5-1.055-1.39.438-.779-.437-.243-1.037 1.437.384.87 1.336.69-1.48.488-.895-1.043L18 19.517l-.342 1.153-.968 1.043-1.388-.317 1.164-.776.465-.955-.953-1.483-.521.29.438.778-1.054 1.39-.514 2.5s-1.957-2.13-1.354-4.54c.604-2.41 3.2-2.749 3.2-2.749l-1.651-1.117-.967-.078-.165-1.06.876-.409.77.844 1.917.703-1.093-1.594L18 12l2.07 1.14L19 14.65v.062l1.84-.68.76-.845.873.408-.168 1.061-.97.078-1.651 1.117s2.597.338 3.2 2.748" fill="#ffcc4d"/><path d="M18 16.5v-1.297s-.181.272-.75.438c-.75.218-.875.859-.875.859H18zM18.002 16.5v-1.297s.181.272.75.438c.75.218.875.859.875.859h-1.625z" fill="#5c913b"/><path d="M16.734 19.203s.734-.297 1.266-.03v-2.548h-1.625s-.063.547.156 1.266c.137.448-.125.812-.125.812l.328.5zM19.268 19.203s-.734-.297-1.266-.03v-2.548h1.625s.063.547-.156 1.266c-.137.448.125.812.125.812l-.328.5zM23.078 14.828a.797.797 0 1 0-1.593 0 .797.797 0 0 0 1.593 0" fill="#269"/><path d="M19.031 21.977c0-.22-.437-.4-.977-.4-.539 0-.976.18-.976.4 0 .22.437.398.976.398.54 0 .977-.178.977-.398" fill="#ffcc4d"/><path d="M19.094 22.497c-.187-.082-.266.066-.113.228.153.162-.028.54-.028.54s.266-.155.297-.312c.03-.156.03-.375-.156-.456m-.527.236c-.043-.126-.051-.201-.12-.222-.067-.021-.321.089-.321.089s.124.166.156.322c.03.156-.078.474-.078.474s.39-.13.42-.286c.033-.157-.014-.25-.057-.377m-.968-.222c-.067.02-.075.096-.118.222-.043.127-.09.22-.06.377.032.156.423.286.423.286s-.11-.318-.078-.474c.03-.156.156-.322.156-.322s-.255-.11-.323-.09m-.646-.013c-.187.08-.187.3-.156.456.03.157.297.313.297.313s-.181-.38-.028-.541c.153-.162.075-.31-.113-.228m1.079 1.253c-.846 0-1.532-.395-1.532-.882 0-.488.686-.883 1.532-.883.845 0 1.53.395 1.53.883 0 .487-.685.882-1.53.882M23.075 14.742a.202.202 0 0 0-.247-.146l-1.104.287a.204.204 0 0 0 .102.394l1.104-.287a.202.202 0 0 0 .145-.248" fill="#ffcc4d"/><path d="M22.495 14.87a.18.18 0 1 0-.347.091l.247 1.13a.18.18 0 0 0 .22.128.179.179 0 0 0 .127-.219l-.247-1.13zM14.835 12.125c-.06-.023-.166.102-.235.278l-1.946 4.942c-.07.177-.077.34-.017.363l.098.04c.061.023.315-.043.384-.22l1.945-4.941c.07-.177-.07-.398-.131-.423l-.098-.039zM18.814 16.625h-1.631v1.127h1.631v-1.127z" fill="#ffcc4d"/></g></svg>