<svg xmlns="http://www.w3.org/2000/svg" viewBox="0 0 45 45"><defs><clipPath id="a"><path d="M0 36h36V0H0v36z"/></clipPath></defs><g clip-path="url(#a)" transform="matrix(1.25 0 0 -1.25 0 45)"><path d="M32 31H17V18H0V9a4 4 0 0 1 4-4h28a4 4 0 0 1 4 4v18a4 4 0 0 1-4 4" fill="#fe0000"/><path d="M11.59 23.957a2.854 2.854 0 0 1 0 1.085l2.035-.543-2.034-.541zm-.653-1.347c.237.273.423.591.545.94l1.49-1.488-2.035.548zM9.7 21.768c.348.122.666.308.939.544l.548-2.034-1.487 1.49zm-.951-2.144l-.542 2.035a2.854 2.854 0 0 1 1.085 0l-.543-2.035zm-2.437.654l.548 2.034c.273-.236.59-.422.939-.544l-1.487-1.49zm-.294 3.271c.12-.348.308-.666.544-.939l-2.035-.548 1.49 1.487zm-.11 1.493a2.94 2.94 0 0 1 0-1.085l-2.034.542 2.034.543zm.654 1.347a2.889 2.889 0 0 1-.544-.939l-1.491 1.487 2.035-.548zm1.237.842a2.907 2.907 0 0 1-.94-.544l-.547 2.034 1.487-1.49zm.95 2.143l.543-2.034a2.857 2.857 0 0 1-1.085 0l.542 2.034zm2.438-.653l-.548-2.034a2.907 2.907 0 0 1-.94.544l1.488 1.49zm0-4.222a2.438 2.438 0 1 0-4.876.002 2.438 2.438 0 0 0 4.876-.002m-.251 1.89l2.035.548-1.49-1.487a2.891 2.891 0 0 1-.545.94M17 31H4a4 4 0 0 1-4-4v-9h17v13z" fill="#000095"/><path d="M9.293 27.34l-.542 2.035-.543-2.034a2.857 2.857 0 0 0 1.085 0M5.857 24.5c0 .185.018.367.052.542L3.875 24.5l2.034-.542a2.846 2.846 0 0 0-.052.542M8.207 21.66l.542-2.035.543 2.034a2.857 2.857 0 0 0-1.085 0M11.643 24.5c0-.185-.019-.367-.053-.542l2.035.542-2.034.542c.034-.175.052-.357.052-.542M11.188 28.722L9.7 27.23c.349-.121.667-.307.94-.544l.547 2.035zM10.937 22.61l2.035-.548-1.49 1.487a2.871 2.871 0 0 0-.545-.939M6.313 20.278L7.8 21.77a2.871 2.871 0 0 0-.94.544l-.548-2.035zM6.563 26.39l-2.035.548 1.49-1.487c.122.348.308.666.545.939M9.7 21.769l1.488-1.491-.549 2.035a2.889 2.889 0 0 0-.938-.544M6.019 23.55l-1.491-1.487 2.035.548a2.889 2.889 0 0 0-.544.939M7.8 27.231l-1.487 1.491.548-2.035c.273.236.59.422.939.544M12.972 26.938l-2.035-.548c.237-.274.423-.592.544-.94l1.49 1.487z" fill="#fff"/><path d="M8.75 26.938a2.438 2.438 0 1 1 0-4.876 2.438 2.438 0 0 1 0 4.875" fill="#fff"/></g></svg>