<svg xmlns="http://www.w3.org/2000/svg" viewBox="0 0 45 45"><defs><clipPath id="a"><path d="M0 36h36V0H0v36z"/></clipPath><clipPath id="b"><path d="M4 31a4 4 0 0 1-4-4V9a4 4 0 0 1 4-4h28a4 4 0 0 1 4 4v18a4 4 0 0 1-4 4H4z"/></clipPath><clipPath id="c"><path d="M0 36h36V0H0v36z"/></clipPath></defs><g clip-path="url(#a)" transform="matrix(1.25 0 0 -1.25 0 45)"><path d="M36 9a4 4 0 0 0-4-4H4a4 4 0 0 0-4 4v18a4 4 0 0 0 4 4h28a4 4 0 0 0 4-4V9z" fill="#1a8a00"/></g><g clip-path="url(#b)" transform="matrix(1.25 0 0 -1.25 0 45)"><path d="M31 21h5V5h-5v16z" fill="#ef7d00"/><path d="M26 21h5V5h-5v16z" fill="#141414"/><path d="M21 21h5V5h-5v16z" fill="#de200f"/></g><g clip-path="url(#c)" transform="matrix(1.25 0 0 -1.25 0 45)"><path d="M28.648 24.017c-.28 0-.088.15-.132.303-.044.152.152.022.13.152-.024.13 0 .758 0 .758.216-.216.324-.498.303-.715-.022-.217.108-.238.151-.347.043-.11-.173-.151-.453-.151m6.436 3.728c-.11.02-.715-.326-.715-.326s.563.65.432.65c-.13 0-.865-.346-.865-.346s.454.564.302.498c-.153-.065-.976-.433-1.604-.696.088.149.066.37 0 .37-.064 0-.433-.237-.997-.367-.564-.13-1.408-.607-1.777-.542-.368.065-1.106 0-1.106 0s-.215.325-.043.412c.172.087.304-.13.304-.13s.304.13.304.314-.52.206-.52.206-.218.28-.564.28c-.91 0-.976-.974-.976-.974s-.369.13-.715.217-.954.043-1.56.412c-.607.369-.997.498-.26-.282-1.085.368-1.647 1.105-1.8.785-.152-.32.412-.698.412-.698s-.303.086-.563.325c-.26.239-.629.39-.28-.13-.456.13-.13-.347-.13-.347s-.37-.108 0-.368c.368-.261 1.04-.37 1.04-.37s-.305-.215-.11-.302.52-.022.52-.022-.26-.216 0-.303.585 0 .585 0-.108-.217.151-.315c.261-.098.673.119.673.119s-.195-.13 0-.238c.196-.108.498.119.498.119s-.173-.292 0-.336c.173-.043.455.174.455.174s-.173-.282 0-.304c.173-.022.564.195.564.195s-.239-.303 0-.303c.24 0 .52.15.52.15s-.065-.237.13-.323c.195-.087.477.15.477.15s.065-.454.022-.714c-.043-.26.281-.065.281-.065s-.044-.39-.303-.368c-.26.02-.52-.325-.433-.412.087-.087.433.065.433.065s-.022-.477.108-.437c.13.04.347.307.347.307s.13-.347.218-.304c.086.044.13.239.13.347 0 .108.237.152.237.152s.065-.433.152-.35c.088.085.108.372.238.458.13.086.087-.498.217-.455.131.043.066.434.022.564-.043.13.26-.11.24 0-.023.109-.262.325-.262.325s.303-.11.217 0c-.086.109-.13.39 0 .328.13-.061.24.192.24.192s.345-.26.562-.173c.216.085-.282.39-.282.39s.76-.261.926-.217c.168.044-.255.325-.255.325s.478-.108.565 0c.086.109-.31.195-.31.195s.526-.087.591 0c.065.087-.15.195-.15.195s.865.022 1.04.325c.866-.021 1.82.672 1.906.824.086.15-.15.15-.15.15s.52.413.454.478-.347-.086-.347-.086.672.585.564.607" fill="#ef7d00"/></g></svg>