<svg xmlns="http://www.w3.org/2000/svg" viewBox="0 0 45 45"><defs><clipPath id="a"><path d="M4 31a4 4 0 0 1-4-4V9a4 4 0 0 1 4-4h28a4 4 0 0 1 4 4v18a4 4 0 0 1-4 4H4z"/></clipPath></defs><g clip-path="url(#a)" transform="matrix(1.25 0 0 -1.25 0 45)"><path d="M9.333 7.253L18 28.66l8.666-21.407H9.333zM0 5h36v26H0V5z" fill="#6cf"/><path d="M9.333 7.253l2.346 2.91L18 25.8l6.321-15.638 2.345-2.909L18 28.66 9.333 7.253z" fill="#fff"/><path d="M24.321 10.162L18 25.8l-6.321-15.638L18 18l6.321-7.838z"/><path d="M18 18l-6.321-7.838-2.346-2.909h17.334l-2.346 2.909L18 18z" fill="#fcd116"/></g></svg>