<svg xmlns="http://www.w3.org/2000/svg" viewBox="0 0 45 45"><defs><clipPath id="a"><path d="M0 36h36V0H0v36z"/></clipPath></defs><g clip-path="url(#a)" transform="matrix(1.25 0 0 -1.25 0 45)"><path d="M32 31h-8V5h8a4 4 0 0 1 4 4v18a4 4 0 0 1-4 4" fill="#dd2e44"/><path d="M4 31a4 4 0 0 1-4-4V9a4 4 0 0 1 4-4h8v26H4z" fill="#265fb5"/><path d="M12 5h12v26H12V5z" fill="#ffcc4d"/><path d="M20 18h-4v3h4v-3z" fill="#dd2e44"/><path d="M16 18v-2l2-1 2 1v2h-4z" fill="#269"/><path d="M16 25v-1h1v-2h2v3h-3zM19 15l-1-.625L17 15l-1-3 2-1 2 1-1 3zM15 23l-1 1-1-1V13l2 2v7h1l-1 1zM22 24l-1-1-1-1h1v-7l2-2v10l-1 1z" fill="#a0724a"/><path d="M16.766 18h-.531v.406h.531V18zM19.766 18h-.531v.406h.531V18z" fill="#ffcc4d"/><path d="M15.637 13.257c-.106-.062-.263.01-.35.159l-2.232 3.866c-.086.15-.07.322.037.383l.135.078c.107.062.264-.01.35-.16l2.232-3.866c.087-.15.07-.32-.036-.382l-.136-.078z" fill="#77b255"/><path d="M22.817 17.607c.107-.06.125-.23.04-.377l-2.192-3.798c-.086-.147-.24-.216-.348-.155l-.135.078c-.106.063-.124.231-.039.378l2.193 3.798c.085.146.24.217.346.154l.135-.078z" fill="#ffcc4d"/><path d="M16 15l-1-1v-1l1 1v1zM20 15v-1l1-1v1l-1 1z" fill="#dd2e44"/><path d="M18 19l-1 1v-2.958L18 16l1 1.042V20l-1-1z" fill="#ffcc4d"/></g></svg>