<svg xmlns="http://www.w3.org/2000/svg" viewBox="0 0 45 45"><defs><clipPath id="a"><path d="M4 31a4 4 0 0 1-4-4V9a4 4 0 0 1 4-4h28a4 4 0 0 1 4 4v18a4 4 0 0 1-4 4H4z"/></clipPath></defs><g clip-path="url(#a)" transform="matrix(1.25 0 0 -1.25 0 45)"><path d="M0 5h36v5.2H0V5zM15.5 15.5l20.5-.1v5.2H15.5v-5.1zM15.5 25.8H36V31H15.5v-5.2z" fill="#006a4e"/><path d="M15.5 20.6H36v5.2H15.5v-5.2zM0 15.5v-5.3h36v5.2l-20.5.1H0z" fill="#ffce00"/><path d="M.026 31V15.5h15.5V31H.026z" fill="#d21034"/><path d="M12.339 24.587H8.885l-.013.04L7.776 28l-.022-.067-1.087-3.346H3.078l2.858-2.077.046-.033-1.068-3.284-.041-.13 2.903 2.11 2.904-2.11-1.11 3.414 2.904 2.11h-.135z" fill="#fff"/></g></svg>