<svg xmlns="http://www.w3.org/2000/svg" viewBox="0 0 45 45"><defs><clipPath id="a"><path d="M0 36h36V0H0v36z"/></clipPath></defs><g clip-path="url(#a)" transform="matrix(1.25 0 0 -1.25 0 45)"><path d="M36 4a4 4 0 0 0-4-4H4a4 4 0 0 0-4 4v28a4 4 0 0 0 4 4h28a4 4 0 0 0 4-4V4z" fill="#3b88c3"/><path d="M8.174 26.875c.186 1.116 1.395 2.387 3.039 2.387 1.55 0 2.759-1.116 3.1-2.232l3.659-12.278h.062l3.659 12.278c.34 1.116 1.549 2.232 3.1 2.232 1.643 0 2.852-1.271 3.039-2.387l2.883-17.302c.03-.185.03-.372.03-.526 0-1.365-.991-2.233-2.231-2.233-1.582 0-2.201.713-2.418 2.17l-1.83 12.62h-.063l-3.72-12.992c-.217-.744-.805-1.798-2.48-1.798-1.674 0-2.264 1.054-2.481 1.798L11.8 21.604h-.061L9.91 8.984c-.217-1.457-.837-2.17-2.418-2.17-1.24 0-2.233.868-2.233 2.233 0 .154 0 .341.032.526l2.883 17.302z" fill="#fff"/></g></svg>