<svg xmlns="http://www.w3.org/2000/svg" viewBox="0 0 45 45"><defs><clipPath id="a"><path d="M0 36h36V0H0v36z"/></clipPath></defs><g clip-path="url(#a)" transform="matrix(1.25 0 0 -1.25 0 45)"><path d="M36 9a4 4 0 0 0-4-4H4a4 4 0 0 0-4 4v18a4 4 0 0 0 4 4h28a4 4 0 0 0 4-4V9z" fill="#20603d"/><path d="M36 10H0v7h36v-7z" fill="#fad201"/><path d="M32 31H4a4 4 0 0 1-4-4V15h36v12a4 4 0 0 1-4 4" fill="#00a1de"/><path d="M26 31l.523-4.034 1.547 3.762-.539-4.032L30 29.928l-1.564-3.755 3.22 2.484-2.483-3.222L32.929 27l-3.234-2.469 4.033.54-3.762-1.548L34 23l-4.034-.522 3.762-1.548-4.033.539L32.929 19l-3.756 1.565 2.483-3.222-3.22 2.484L30 16.071l-2.469 3.234.539-4.032-1.547 3.761L26 15l-.522 4.034-1.549-3.761.54 4.032L22 16.071l1.564 3.756-3.22-2.484 2.482 3.222L19.071 19l3.233 2.469-4.031-.539 3.76 1.548L18 23l4.033.523-3.76 1.548 4.031-.54L19.071 27l3.755-1.565-2.482 3.222 3.22-2.484L22 29.928l2.469-3.232-.54 4.032 1.549-3.762L26 31z" fill="#fad201"/><path d="M30 23a4 4 0 1 0-8 0 4 4 0 0 0 8 0" fill="#00a1de"/><path d="M29 23a3 3 0 1 0-6 0 3 3 0 0 0 6 0" fill="#fad201"/></g></svg>