<svg xmlns="http://www.w3.org/2000/svg" viewBox="0 0 45 45"><defs><clipPath id="a"><path d="M0 36h36V0H0v36z"/></clipPath></defs><g clip-path="url(#a)" transform="matrix(1.25 0 0 -1.25 0 45)"><path d="M32 31H19V18H0V9a4 4 0 0 1 4-4h28a4 4 0 0 1 4 4v18a4 4 0 0 1-4 4" fill="#ce1126"/><path d="M14.316 25.174l-.837.608-.837-.608.32.984-.837.608h1.034l.32.984.32-.984h1.034l-.837-.608.32-.984zm-2.355-2.48l-.558.406-.558-.406.213.656-.558.405h.69l.213.656.213-.656h.69l-.558-.405.213-.656zm-1.429-4.153l-1.115.811-1.116-.81.426 1.311-1.116.811h1.38l.426 1.312.426-1.312h1.38l-1.117-.81.426-1.313zm-4.195 5.92l-.893.648-.892-.648.341 1.05-.893.648h1.103l.341 1.05.341-1.05H6.89l-.893-.649.341-1.049zm2.74 4.948l.34 1.05.341-1.05h1.103l-.893-.649.341-1.049-.892.648-.893-.648.341 1.05-.893.648h1.104zM19 31H4a4 4 0 0 1-4-4v-9h19v13z" fill="#002b7f"/><path d="M8.524 27.71l.893.65.892-.65-.341 1.05.893.649H9.758l-.341 1.049-.341-1.05H7.972l.893-.648-.341-1.05zM5.785 26.159l-.34 1.049-.342-1.05H4l.892-.648-.34-1.05.892.65.893-.65-.34 1.05.891.649H5.785zM13.799 26.766l-.32.984-.32-.984h-1.034l.837-.608-.32-.984.837.608.837-.608-.32.984.837.608h-1.034zM11.616 23.756l-.213.656-.213-.656h-.69l.558-.405-.213-.656.558.405.558-.405-.213.656.558.405h-.69zM9.843 20.664l-.426 1.312-.426-1.312H7.61l1.116-.81L8.3 18.54l1.116.811 1.116-.81-.427 1.311 1.116.811h-1.38z" fill="#fff"/></g></svg>