<svg xmlns="http://www.w3.org/2000/svg" viewBox="0 0 45 45"><defs><clipPath id="a"><path d="M4 31a4 4 0 0 1-4-4V9a4 4 0 0 1 4-4h28a4 4 0 0 1 4 4v18a4 4 0 0 1-4 4H4z"/></clipPath></defs><g clip-path="url(#a)" transform="matrix(1.25 0 0 -1.25 0 45)"><path d="M0 31h36V5H0v26z" fill="#006233"/><path d="M25.5 21.96a7.5 7.5 0 0 0-15 0 7.75 7.75 0 1 1 14.999 0" fill="#ffc400"/><path d="M19.09 21.646l1.763 1.28h-2.18L18 25l-.673-2.073h-2.18l1.763-1.281-.673-2.073L18 20.853l1.764-1.28-.674 2.073z" fill="#ffc400"/></g></svg>