<svg xmlns="http://www.w3.org/2000/svg" viewBox="0 0 45 45"><defs><clipPath id="a"><path d="M0 36h36V0H0v36z"/></clipPath></defs><g clip-path="url(#a)" transform="matrix(1.25 0 0 -1.25 0 45)"><path d="M36 9a4 4 0 0 0-4-4H4a4 4 0 0 0-4 4v18a4 4 0 0 0 4 4h28a4 4 0 0 0 4-4V9z" fill="#265fb5"/><path d="M36 13H0v10h36V13z" fill="#eee"/><path d="M22.557 18a4.557 4.557 0 1 0-9.114 0 4.557 4.557 0 0 0 9.114 0" fill="#a9bf4c"/><path d="M22 18a4 4 0 1 0-8 0 4 4 0 0 0 8 0" fill="#eee"/><path d="M14.758 15.845l3.228 5.59 3.228-5.59h-6.456z" fill="#265fb5"/><path d="M15.116 16.061l2.87 4.97 2.87-4.97h-5.74z" fill="#55acee"/><path d="M15.116 16.061l.692 1.2 4.323.055.724-1.254h-5.739z" fill="#bbddf5"/><path d="M15.672 16.844l1.078.875.469-.531.406.437.344-.344.328.36.39-.36.36.375.328-.375.313.344.515-.64.094-.188s-.547-.11-1.297-.047c-.75.063-1.187-.11-1.781-.187-.594-.078-1.656.078-1.656.078l.109.203z" fill="#5c913b"/><path d="M16.734 17.531l.72-.78-.36-.032-.407.593.047.22zM17.594 17.469l.578-.516-.266-.046-.281.39-.031.172zM18.328 17.5l.5-.469-.125-.078-.406.438.031.109zM18.984 17.5l-.203-.187.094-.11.11.297zM19.61 17.484l-.235-.297.078-.14.172.328-.016.11z" fill="#e2f09f"/><path d="M18.031 19.57l.066-.93.532.764-.399-.83.83.398-.763-.53.93-.067-.93-.067.763-.53-.83.397.4-.83-.533.764-.066-.93-.066.93-.532-.764.4.83-.83-.398.762.531-.929.067.93.066-.764.531.83-.398-.399.83.532-.764.066.93z" fill="#bbddf5"/><path d="M18 18.797l-.187-.187s.046-.282.031-.33C17.828 18.236 18 18 18 18l.234.28-.062.376-.172.14z" fill="#dd2e44"/><path d="M18.094 19.125c.766 0 1.203-.375 1.203-.375l-.281.5s-.453.344-.984.344c-.532 0-1.125-.422-1.125-.422l-.266-.531s.687.484 1.453.484" fill="#269"/><path d="M18.094 19.125c.766 0 1.203-.375 1.203-.375l-.203.359s-.547.328-1.078.328-1.188-.421-1.188-.421l-.187-.375s.687.484 1.453.484" fill="#ffcc4d"/><path d="M18.094 19.125c.766 0 1.203-.375 1.203-.375l-.141.234s-.421.297-1.14.266c-.531 0-1.266-.391-1.266-.391l-.11-.218s.688.484 1.454.484" fill="#dd2e44"/><path d="M18.583 13.298h-.996v.955h.996v-.955zM17.428 21.658h-.716l-.359.876.717.08.358-.956zM19.06 21.26l-.476.159.238 1.155.916-.08-.677-1.234zM14.761 16.363l-1.393-.318-.04.955 1.393.2.04-.837zM15.12 15.368l-1.155-.479-.278.757 1.075.36.358-.638zM22.803 16.243l-1.273.358v.677l1.432.2-.16-1.235zM22.166 14.93l-1.194.558.397.716 1.315-.398-.518-.876z" fill="#eee"/></g></svg>