<svg xmlns="http://www.w3.org/2000/svg" viewBox="0 0 45 45"><defs><clipPath id="a"><path d="M0 36h36V0H0v36z"/></clipPath><clipPath id="b"><path d="M4 31a4 4 0 0 1-4-4V9a4 4 0 0 1 4-4h28a4 4 0 0 1 4 4v18a4 4 0 0 1-4 4H4z"/></clipPath><clipPath id="c"><path d="M0 36h36V0H0v36z"/></clipPath></defs><g clip-path="url(#a)" transform="matrix(1.25 0 0 -1.25 0 45)"><path d="M36 9a4 4 0 0 0-4-4H4a4 4 0 0 0-4 4v18a4 4 0 0 0 4 4h28a4 4 0 0 0 4-4V9z" fill="#319209"/></g><g clip-path="url(#b)" transform="matrix(1.25 0 0 -1.25 0 45)"><path d="M36 8H0v20h36V8z" fill="#ffd200"/><path d="M36 12H0v12h36V12z" fill="#de200f"/><path d="M36 16H0v4h36v-4z" fill="#141414"/><path d="M1 31l17-13L1 5H0v26h1z" fill="#141414"/><path d="M0 31l17-13L0 5v26z" fill="#eee"/></g><g clip-path="url(#c)" transform="matrix(1.25 0 0 -1.25 0 45)"><path d="M6.682 24.403l1.784-3.614 3.988-.579-2.886-2.813.68-3.973L6.683 15.3l-3.567-1.876.68 3.973L.912 20.21l3.987.58 1.784 3.613z" fill="#de200f"/><path d="M2.875 22.125s.167.625.75.75c.375.917 1.25 1.042 1.917 0 .666-1.042 1.041-1.583 1.958-2.333.917-.75 3.958-2.875 3.958-2.875h-.5l-.825-3.568H4.176l-.384 2.026s-.667.291-.084 1.458c.584 1.167.917 1.541.834 2.875-.084 1.334-.709 1.959-1.667 1.667" fill="#ffd200"/><path d="M2.875 22.125s.167.625.75.75c.375.917 1.25 1.042 1.917 0 .666-1.042 1.041-1.583 1.958-2.333.917-.75 3.958-2.875 3.958-2.875h-.5l-.825-3.568H4.176l-.384 2.026s-.667.291-.084 1.458c.584 1.167.917 1.541.834 2.875-.084 1.334-.709 1.959-1.667 1.667z" fill="none" stroke="#f15a29" stroke-width=".1"/><path d="M10.959 17.666s-3.031.365-3.792.49c-.76.125-1.354 1.312-1.354 1.312l-.344-.236S6.094 17.864 7 17.666c.906-.198 3.837-.523 3.837-.523l.12.523zM10.685 16.316s-3.06.494-3.873.542c-.813.048-1.625-.347-1.75-.766 0 0 1.281.107 1.937 0 .657-.106 3.574-.262 3.574-.262l.112.486zM5.719 15.125s2.523.169 4.596-.241l-.181-.785h-4.26l-.155 1.026z" fill="#ffac33"/></g></svg>