<svg xmlns="http://www.w3.org/2000/svg" viewBox="0 0 45 45"><defs><clipPath id="a"><path d="M0 36h36V0H0v36z"/></clipPath></defs><g clip-path="url(#a)" transform="matrix(1.25 0 0 -1.25 0 45)"><path d="M36 9a4 4 0 0 0-4-4H4a4 4 0 0 0-4 4v18a4 4 0 0 0 4 4h28a4 4 0 0 0 4-4V9z" fill="#00afca"/><path d="M19.035 22.353a2.864 2.864 0 0 0 2.865-2.865 2.865 2.865 0 1 0-2.865 2.865M19.037 22.568c.17.002.232.109.232.236 0 .17-.232 1.496-.232 1.496s-.236-1.326-.236-1.496c0-.127.064-.236.236-.236M19.037 16.39c-.172-.001-.236-.108-.236-.235 0-.171.236-1.48.236-1.48s.232 1.309.232 1.48c0 .127-.062.235-.232.235M18.236 16.51c-.165.043-.252-.044-.285-.167-.044-.164-.163-1.506-.163-1.506s.571 1.22.615 1.385c.033.123 0 .245-.167.289M19.836 22.479c.166-.044.256.044.289.166.044.165.154 1.49.154 1.49s-.562-1.204-.607-1.37c-.033-.122-.001-.243.164-.287M17.493 16.821c-.148.083-.256.022-.319-.089-.085-.146-.547-1.412-.547-1.412s.867 1.031.952 1.178c.064.111.062.237-.086.323M20.582 22.172c.149-.086.259-.024.322.086.086.147.535 1.398.535 1.398s-.855-1.016-.941-1.164c-.062-.11-.062-.235.084-.32M16.855 17.31c-.122.12-.241.089-.331-.001-.12-.121-.894-1.223-.894-1.223s1.105.772 1.225.89c.09.09.122.214 0 .335" fill="#ffcc4d"/><path d="M21.224 21.68c.122-.121.243-.09.333 0 .12.12.879 1.213.879 1.213s-1.09-.762-1.21-.883c-.09-.09-.122-.21-.002-.33M16.367 17.95c-.087.144-.21.145-.321.082-.147-.085-1.18-.949-1.18-.949s1.267.458 1.415.543c.11.063.172.174.086.323M21.717 21.038c.087-.148.213-.15.322-.087.149.086 1.163.944 1.163.944s-1.25-.453-1.397-.538c-.11-.064-.172-.172-.088-.319M16.06 18.692c-.046.164-.166.196-.29.164-.163-.044-1.384-.612-1.384-.612s1.342.115 1.506.16c.123.032.212.122.168.288M22.026 20.292c.046-.166.166-.2.29-.167.164.044 1.367.61 1.367.61s-1.324-.114-1.49-.158c-.122-.032-.21-.121-.167-.285M15.955 19.49c-.002.17-.11.231-.236.231-.17 0-1.496-.232-1.496-.232s1.326-.236 1.496-.236c.127 0 .236.064.236.236M22.133 19.49c0-.173.108-.237.235-.237.17 0 1.48.236 1.48.236s-1.31.232-1.48.232c-.127 0-.235-.062-.235-.232M16.06 20.286c.042.165-.045.253-.168.285-.164.044-1.506.163-1.506.163s1.22-.57 1.385-.615c.123-.033.245.001.289.167M22.027 18.686c-.044-.166.044-.256.166-.289.165-.044 1.49-.154 1.49-.154s-1.203.563-1.369.607c-.122.033-.243.001-.287-.164M16.368 21.03c.083.147.022.255-.089.318-.146.085-1.412.547-1.412.547s1.031-.867 1.178-.952c.111-.064.237-.062.323.086M21.719 17.94c-.086-.149-.024-.259.086-.322.147-.086 1.398-.535 1.398-.535s-1.016.855-1.164.94c-.11.064-.235.064-.32-.083M16.857 21.667c.12.122.088.241-.002.331-.12.12-1.223.894-1.223.894s.772-1.105.891-1.225c.09-.09.213-.122.334 0M21.227 17.298c-.121-.122-.09-.244 0-.333.12-.122 1.213-.879 1.213-.879s-.762 1.09-.883 1.21c-.09.09-.21.122-.33.002M17.497 22.156c.145.087.146.21.083.32-.085.148-.949 1.18-.949 1.18s.458-1.266.543-1.414c.063-.11.174-.172.323-.086M20.586 16.805c-.148-.086-.15-.211-.087-.321.086-.148.944-1.163.944-1.163s-.453 1.25-.538 1.397c-.064.11-.172.173-.32.087M18.24 22.463c.163.046.195.166.163.289-.044.164-.612 1.385-.612 1.385s.115-1.342.16-1.506c.032-.123.122-.212.288-.168M19.839 16.496c-.166-.046-.2-.166-.167-.289.044-.165.61-1.368.61-1.368s-.114 1.325-.158 1.49c-.032.122-.121.211-.285.167" fill="#ffcc4d"/><path d="M17.428 12.872l.125-.055.033.027.045.034.048.026.045.03.165.065.143.065.071.028.061.033.061.032.05.034.124.081.127.083.122.076.11.078.082.066.065.061.072.065.077.072.028.027.033.022.038.023.043.021.095.045.093.032.126.033.138.033.143.028.158.027.193.023.192.026.197.023.193.032.065.012.06.016.067.017.066.015.067.083.105.116.072.071.08.066.094.072.11.072.166.098.173.087.182.094.178.083.162.082.156.077.127.066.098.066.027.083.04.081.048.083.06.082.067.088.082.09.088.098.11.103.1.09.104.086.053.04.057.037.06.034.061.033.06.028.06.02.067.018.061.017.064.004.061.005.064-.005.061-.01-.004-.067-.016-.065-.023-.067-.026-.07-.04-.072-.049-.072-.06-.077-.073-.077.056.006.05.011.038.012.037.015.034.011.04.012.048.005.054.005.006-.039V15.9l-.006-.038-.01-.033-.015-.033-.024-.033-.02-.027-.028-.028-.116-.109-.115-.105.065-.006.072-.022.072-.02.053-.012-.065-.05-.076-.05-.078-.049-.088-.05-.088-.049-.088-.054-.088-.06-.082-.067.038-.005.05-.023.022-.005.021-.01.018-.006.016.005-.11-.06-.139-.067-.064-.032-.057-.034-.027-.016-.016-.017-.009-.016-.012-.016.004-.022.012-.017.021-.016.02-.017-.008-.022-.012-.017-.02-.016-.02-.017-.054-.026-.064-.028-.065-.023-.06-.02-.045-.024-.033-.016.11-.11-.04-.038-.037-.028-.033-.017-.039-.015-.077-.01h-.105l.012-.05.015-.05.012-.055.012-.056-.094-.07-.115-.083-.127-.082-.14-.082-.085-.045-.082-.038-.088-.034-.093-.033-.1-.032-.104-.022-.109-.023-.117-.017.203-.004h.178l.162.016.15.017.137.027.121.033.121.043.115.045.153.071.15.083.141.09.15.085-.09.044-.086.028-.043.017-.045.022-.048.021-.05.03.042.031.053.022.056.022.07.016.13.03.136.014.121.017.11.011.045.011.04.01.02.012.016.016-.004.006-.012.011-.016.006-.02.01-.062.011-.078.011-.076.006-.076.011-.068.016-.04.017.145.033.148.032.133.03.11.025.093.028.082.033.04.016.025.017.027.017.024.022-.006.005-.01.011-.023.005-.028.006-.07.006h-.084l-.086.006-.084.004-.07.012-.045.01.04.017.038.016.131.04.115.032.106.027.097.033.106.034.103.043.05.028.044.027.016.017.017.022.016.016.006.016-.006.017-.016.012-.017.004h-.153l-.072-.004h-.098l-.029.004-.02.011-.023.011.22.144.204.132.181.115.16.11.063.055.061.054.048.055.045.055.034.06.027.061.016.066v.072h-.038l-.039-.006-.045-.017-.04-.015-.088-.055-.094-.055-.05-.028-.044-.029-.05-.02-.05-.018-.044-.01-.043-.006h-.05l-.044.016.133.1.148.126.17.148.17.166.17.175.158.176.072.094.073.088.06.088.055.082.012.021.003.017-.003.022-.006.016-.006.017-.016.011-.017.017-.016.006-.02.01-.025.005h-.043l-.02-.006-.03-.004-.016-.017-.024-.017-.097-.098-.114-.116-.12-.127-.134-.126-.132-.115-.13-.11-.068-.044-.06-.038-.067-.033-.054-.028.037.034.051.048.066.067.07.082.16.193.176.225.088.121.082.121.084.115.07.12.067.111.055.1.043.093.027.076.006.028v.044l-.006.016-.01.017-.01.016-.01.011-.019.005-.03.017-.042.011h-.076l-.022-.006-.016-.005-.023-.01-.016-.017-.044-.039-.045-.055-.098-.127-.104-.159-.117-.17-.125-.176-.07-.082-.068-.082-.07-.073-.077-.066.098.182.1.208.054.116.05.115.05.121.043.121.04.127.036.121.027.121.024.12.01.116.007.11-.008.055-.004.048-.005.051-.012.05-.004.015-.012.017-.015.016-.012.012-.037.015-.04.012h-.038l-.036-.006-.009-.006-.016-.004-.006-.01-.006-.019-.054-.18-.049-.18-.05-.194-.05-.186-.05-.188-.065-.175-.033-.088-.039-.077-.043-.082-.05-.072.032.158.024.144.02.132.011.121.012.104.005.094-.005.077-.006.066-.01.054-.016.044-.01.017-.013.017-.012.01-.017.006-.016.005-.016.006h-.017l-.016-.006-.045-.01-.043-.023-.037-.175-.04-.17-.044-.16-.049-.153-.054-.155-.06-.154-.067-.159-.078-.159-.053-.104-.057-.105-.06-.104-.06-.105-.065-.099-.067-.099-.072-.099-.072-.099-.129-.164-.139-.154-.142-.153-.149-.144-.154-.144-.16-.13-.162-.127-.172-.12-.116-.078-.12-.077-.122-.07-.12-.072-.192-.088-.194-.089-.197-.07-.199-.072-.162-.05-.166-.049-.17-.038-.17-.039-.17-.028-.178-.022-.17-.022-.175-.01-.017-.006-.017-.005-.033-.018-.037-.026-.057-.05-.07-.065-.088-.089-.104-.116-.099-.115-.116-.126-.06-.06-.06-.06-.072-.056-.07-.054-.057-.038-.055-.035-.059-.026-.06-.028-.134-.055-.13-.05-.133-.049-.115-.045-.05-.02-.049-.028-.045-.023-.032-.02-.032-.034-.028-.028-.017-.027-.012-.027-.004-.04v-.02m4.417-.518l-.037-.015-.04-.006-.032-.006-.029.006-.028.006-.025.01-.023.01-.028.018-.045.032-.04.033-.024.016-.029.012-.02.005h-.029l-.049-.104-.065-.132-.023-.033-.02-.027-.025-.017-.019-.017-.03-.01h-.027l-.025.01-.036.017-.009.017-.012.016-.012.023-.012.026-.009.05-.006.033-.033-.027-.032-.039-.029-.043-.033-.05-.037-.05-.039-.038-.022-.023-.027-.016-.027-.012-.034-.01h-.015l-.03-.005-.027.005-.02.01-.066.077-.072.078-.049-.078-.057-.065-.027-.027-.025-.028-.028-.02-.029-.018-.02-.012-.029-.006h-.027l-.024.006-.02.012-.017.017-.02.026-.013.034-.012.032-.02.055-.007.03-.01.02-.01.011h-.013l-.149-.243-.02-.02-.04-.018-.043-.01-.043-.01h-.05l-.04.01-.012.006-.015.016-.004.01v.022l.02.243-.016-.006-.022-.01-.02-.012-.023-.022-.045-.049-.048-.055-.049-.06-.06-.05-.029-.023-.028-.02-.033-.019-.028-.003-.037-.006-.027.006-.012.003-.01.012-.007.017v.016l.006.071.011.072.006.04-.006.031-.005.033-.023.04-.033-.05-.053-.072-.068-.072-.07-.07-.04-.029-.037-.027-.034-.012-.026-.009-.012.006h-.017l-.01.01-.006.005-.01.017-.006.016v.022l-.006.028.006.208-.138-.093-.165-.104-.038-.017-.044-.022-.039-.01-.045-.012-.037-.01h-.039l-.037.004-.034.012.017.044.017.038.016.04.021.031.023.034.021.033.028.027.028.028.06.043.07.044.072.034.083.027.083.021.093.017.093.017.094.011.202.01.21.006h.417l.105.006.098.005.1.006.093.01.094.018.08.016.084.022.078.032.073.033.056.044.061.044.052.062-.056.11.045.005.043.01.045.022.037.03.015.008.018.017.012.023.011.015.004.023v.038l-.01.022.092.017.1.01.105.006h.11l.226-.01.231-.017.234-.028.231-.022.226-.022.207-.01v-.077l-.004-.034-.01-.033-.01-.033-.013-.027-.015-.023-.024-.026-.037-.039-.049-.032-.053-.023-.052-.01-.06-.012-.06.006-.058.005-.06.016-.053.03-.057.026-.043.04-.043.042v-.094l-.018-.12-.009-.06-.018-.056-.012-.023-.015-.015-.012-.017-.016-.01z" fill="#ffcc4d"/><path d="M19.441 12.625l.092-.012.045-.016.01-.005v-.006h-.01l-.012-.005-.088-.017h-.07l-.23.017-.282.005-.3.006-.316-.006-.148-.005-.148-.011-.132-.011-.126-.011-.105-.017-.093-.021-.033-.012-.033-.011-.027-.011-.022-.017.01.056.023.055-.039-.011-.038-.011-.033-.017-.033-.016-.027-.017-.023-.022-.017-.027-.004-.028-.016.038-.012.034-.006.038-.006.033.006.028.006.033.005.026.017.029.01.022.023.027.022.022.022.022.06.038.067.039a.462.462 0 0 1 .114-.049.344.344 0 0 1 .117.01.149.149 0 0 1 .214.012c.01.01.023.029.027.043a.244.244 0 0 1 0 .111l.066.004.077.012.082.022.088.022.09.017.08.021.077.011.065.006-.026-.023-.067-.049-.077-.06-.053-.038.07-.018.06-.01-.043-.05-.044-.049-.043-.049-.034-.044.043-.016.044-.012.05-.011h.1l.048.011.05.012.04.022.043-.022.044-.017.043-.012.043-.011.1-.01.105-.011h.418M18.94 14.295l-.05-.1-.054-.126-.033-.06-.028-.055-.021-.043-.028-.028-.065.055-.073.049-.077.039-.081.033-.09.022-.087.023-.087.015-.094.01-.192.018-.193.005-.186.012-.177.02-.098.018-.094.02-.048.018-.05.017-.044.022-.04.02-.06.04-.06.044-.066.05-.06.054-.126.12-.126.122-.127.115-.115.105-.056.038-.054.038-.05.023-.05.017-.093.02-.082.029-.082.027-.083.039-.072.032-.07.044-.067.045-.06.044-.067.049-.054.05-.055.055-.055.055-.105.115-.1.12-.197.258-.208.265-.12.126-.127.127-.071.065-.073.06-.076.056-.082.06-.016-.005-.018-.017-.016-.021-.01-.03-.017-.047-.005-.023-.04.017-.032.016-.04.017-.032.01h-.071l-.038-.01-.04-.017.04-.048.049-.067.048-.077.045-.083.044-.087.032-.083.012-.044.012-.033.005-.038v-.032h-.296l.043-.067.05-.066.053-.066.06-.06.06-.061.062-.06.06-.05.057-.038L14 15.63l-.082-.006-.083-.01-.061-.006.049-.044.06-.043.067-.05.07-.05.073-.043.07-.04.068-.022.06-.015.027-.006.022-.005.017-.006.01-.011.006-.005v-.022l-.005-.012-.011-.033-.005-.032-.007-.022v-.016l.007-.028.005-.023.01-.01.017-.011.02-.011.03-.006.028-.011.027-.011.027-.01.022-.017.005-.006v-.01l-.005-.006-.022-.016-.022-.016-.022-.023-.022-.027v-.023l-.005-.022.005-.027.006-.033.093-.033.099-.033.044-.01.044-.018.033-.016.028-.017-.182-.142.049-.044.06-.033.077-.04.077-.026.089-.028.08-.016.074-.016h.065l-.06-.044-.078-.05-.081-.044-.061-.044.055-.038.077-.04.088-.043.104-.05.243-.104.263-.104.275-.1.269-.087.12-.04.11-.026.1-.027.088-.017-.177.017-.164.022-.164.028-.154.033-.154.044-.15.043-.141.049-.138.055-.27.11-.252.11-.121.05-.121.05-.115.043-.115.044.027.016.033.012.044.016.049.01.105.034.093.034-.165.026-.226.044-.11.034-.093.026-.038.017-.033.017-.027.017-.017.016v.005l.006.005.016.006.016.01.045.018.06.017.13.038.112.038-.27.049-.21.033-.075.018-.061.02-.022.012-.021.017-.017.01-.011.017.016.01.049.012.073.01.08.017.09.01.077.023.038.012.032.01.023.016.022.018-.045.017-.043.016-.056.01-.054.012-.127.016-.126.017-.065.015-.061.012-.06.022-.061.02-.056.029-.05.039-.043.039-.033.048.012.006.02.006h.029l.044-.006.099-.006.109-.004.122-.012h.153l.044.006.033.01.023.012-.133.055-.175.077-.1.049-.104.05-.103.054-.105.055-.1.06-.093.067-.087.065-.077.067-.033.038-.034.033-.021.033-.023.039-.021.033-.012.038-.005.033-.004.038h.037l.044-.005.044-.018.044-.015.088-.055.099-.055.044-.028.049-.026.049-.023.044-.016.049-.012.045-.005h.05l.043.017-.131.099-.15.125-.17.149-.17.165-.17.176-.16.176-.07.093-.072.088-.06.088-.055.083-.011.022v.038l.005.017.006.016.016.01.016.017.018.012.02.006.023.004h.044l.027-.004.024-.006.02-.017.017-.016.099-.1.115-.115.12-.127.134-.125.13-.115.133-.112.065-.043.06-.038.066-.034.06-.022-.042.028-.05.049-.066.066-.072.083-.158.192-.176.225-.088.12-.083.122-.077.12-.077.117-.066.109-.055.1-.038.093-.032.076-.007.028v.045l.007.015.01.017.01.017.012.01.017.01.038.013.033.01h.077l.022-.004.016-.006.022-.012.018-.016.043-.04.043-.053.1-.127.105-.16.12-.17.127-.175.065-.083.065-.082.073-.071.076-.066-.093.18-.105.209-.054.115-.05.117-.05.119-.044.12-.037.128-.04.12-.026.123-.022.12-.012.116-.005.109.005.055.007.05.005.05.01.048.012.018.006.016.016.017.01.01.039.017.038.01h.039l.032-.006.017-.004.01-.005.007-.012.006-.016.053-.175.05-.188.05-.192.05-.187.048-.187.067-.176.034-.082.037-.082.044-.077.049-.078-.032.16-.021.143-.024.13-.011.122-.01.106-.006.092.006.078.005.065.01.056.018.043.012.017.01.016.01.012.017.01.016.005h.05l.045-.015.042-.023.04-.176.037-.17.045-.16.048-.153.057-.154.06-.155.065-.158.077-.16.056-.104.055-.105.059-.104.06-.104.067-.1.067-.098.07-.098.072-.1.132-.165.138-.154.142-.153.149-.144.154-.141.159-.133.165-.126.17-.121.115-.077.12-.072.128-.071.12-.066.192-.093.187-.09.198-.075.198-.071.186-.061.194-.05.198-.044.19-.038.205-.028.198-.022.203-.016.203-.011zM3.457 7.478S3.22 7.28 3.14 7.38c-.13.16.397.959.397 1.242 0 .46-.308.589-.688.654-.257.044-.673-.02-.673-.02.078-.104.13-.136.261-.143a.554.554 0 0 1-.295-.501c0-.397.162-.561.162-1.01 0-.248-.204-.564-.204-.564.36.036.54.369.438.636a.177.177 0 0 0 .154-.046c.026.073-.015.16-.07.233.043.023.077.009.148-.005-.007.076-.053.156-.164.232.324-.083.524.142.524.378 0 .18-.126.308-.248.308a.256.256 0 0 1-.13-.041c-.024.047-.012.113.012.162-.089-.021-.146-.075-.106-.186a.218.218 0 0 1-.16-.075.19.19 0 0 1 .16-.072c-.05-.104.006-.163.087-.21 0 0-.052.21.081.21.06 0 .114-.02.114-.108 0-.076-.067-.181-.22-.175-.156.007-.28.106-.28.35 0 .23.183.343.424.35.218.007.382-.111.382-.336 0-.299-.432-.98-.432-1.247 0-.2.18-.31.355-.31.228 0 .42.225.42.225l-.133.166zM3.407 12.88c0 .498.448.755.8.755.474 0 .727-.284.727-.654 0-.212-.038-.344-.135-.545 0 0-.783-1.628-1.088-2.257a.683.683 0 0 1-.05-.3c0-.202.197-.368.402-.373.187-.005.392.175.392.38 0 .249-.129.359-.26.359-.164 0-.229-.066-.229-.18 0-.081.038-.116.093-.116.14 0 .101.189.101.189a.13.13 0 0 0 .094-.176.247.247 0 0 0 .135-.08.238.238 0 0 0-.135-.073c.033-.11-.01-.161-.105-.184a.2.2 0 0 1 .013.116c-.149-.042-.378.025-.378.283 0 .255.178.47.51.418-.079.036-.119.113-.127.2a.41.41 0 0 1 .127-.028c-.039.069-.093.127-.09.263.062-.03.118-.08.198-.047-.124.243.028.577.415.658a.798.798 0 0 1-.21-.524c0-.58.16-.676.16-1.078a.597.597 0 0 0-.257-.474v.007a.35.35 0 0 0 .227-.162c-.259-.073-.636-.072-.838.007a.62.62 0 0 0-.443.295.9.9 0 0 0 0 .714c.154.32.88 1.86 1.106 2.344a.773.773 0 0 1 .077.33c0 .295-.27.4-.425.4-.184 0-.372-.142-.372-.317 0-.112.06-.177.147-.177.21 0 .196.176.154.289.13-.06.205-.162.184-.273a.332.332 0 0 0 .21-.117c-.052-.065-.114-.114-.21-.115.042-.17-.072-.242-.184-.281.035.124.058.268-.154.268-.155 0-.277.027-.348.128-.005-.135-.018-.665-.018-.665-.008-.2.267-.194.443-.135-.066-.23-.2-.354-.516-.322a.247.247 0 0 0 .158-.241c0-.188-.152-.395-.252-.457l-.049 1.948z" fill="#ffcc4d"/><path d="M3.506 12.88c0 .498-.448.755-.8.755-.474 0-.727-.284-.727-.654 0-.212.038-.344.135-.545 0 0 .783-1.628 1.088-2.257a.685.685 0 0 0 .05-.3c0-.202-.197-.368-.402-.373-.188-.005-.392.175-.392.38 0 .249.129.359.26.359.164 0 .229-.066.229-.18 0-.081-.038-.116-.093-.116-.14 0-.101.189-.101.189a.13.13 0 0 1-.094-.176.247.247 0 0 1-.135-.08.238.238 0 0 1 .135-.073c-.032-.11.01-.161.105-.184a.2.2 0 0 0-.013.116c.149-.042.378.025.378.283 0 .255-.178.47-.51.418.079.036.119.113.127.2a.41.41 0 0 0-.127-.028c.038.069.093.127.09.263-.062-.03-.118-.08-.198-.047.124.243-.028.577-.415.658a.798.798 0 0 0 .21-.524c0-.58-.16-.676-.16-1.078 0-.168.087-.351.258-.474v.007a.343.343 0 0 1-.227-.162c.259-.073.635-.072.837.007a.62.62 0 0 1 .443.295.9.9 0 0 1 0 .714c-.154.32-.88 1.86-1.106 2.344a.773.773 0 0 0-.077.33c0 .295.27.4.425.4.184 0 .372-.142.372-.317 0-.112-.06-.177-.147-.177-.21 0-.196.176-.155.289-.13-.06-.204-.162-.184-.273a.332.332 0 0 1-.208-.117c.05-.065.113-.114.208-.115-.041-.17.072-.242.184-.281-.035.124-.058.268.155.268.155 0 .277.027.348.128l.018-.665c.008-.2-.268-.194-.443-.135.066-.23.2-.354.516-.322a.247.247 0 0 1-.158-.241c0-.188.152-.395.252-.457l.049 1.948zM3.457 7.478s.237-.197.317-.098c.129.16-.398.959-.398 1.242 0 .46.309.589.689.654.255.044.671-.02.671-.02-.078-.104-.129-.136-.26-.143a.554.554 0 0 0 .295-.501c0-.397-.163-.561-.163-1.01 0-.248.204-.564.204-.564-.36.036-.54.369-.438.636a.178.178 0 0 1-.153-.046c-.026.073.016.16.07.233-.045.023-.078.009-.149-.005.007.076.052.156.164.232-.324-.083-.524.142-.524.378 0 .18.126.308.248.308a.259.259 0 0 0 .131-.041c.024.047.012.113-.013.162.09-.021.147-.075.107-.186a.218.218 0 0 0 .16-.075.19.19 0 0 0-.16-.072c.05-.104-.006-.163-.087-.21 0 0 .052.21-.081.21-.06 0-.114-.02-.114-.108 0-.076.067-.181.22-.175.156.007.28.106.28.35 0 .23-.183.343-.424.35-.219.007-.383-.111-.383-.336 0-.299.432-.98.432-1.247 0-.2-.18-.31-.356-.31-.227 0-.42.225-.42.225l.134.166zM3.407 21.623c0 .5.448.756.8.756.474 0 .727-.284.727-.655 0-.211-.038-.343-.135-.544 0 0-.783-1.63-1.088-2.258a.679.679 0 0 1-.05-.3c0-.202.197-.367.402-.373.187-.004.392.176.392.38 0 .249-.129.36-.26.36-.164 0-.229-.067-.229-.182 0-.08.038-.114.093-.114.14 0 .101.188.101.188a.128.128 0 0 0 .094-.174.245.245 0 0 0 .135-.081.25.25 0 0 0-.135-.074c.033-.108-.01-.161-.105-.183a.2.2 0 0 1 .013.116c-.149-.042-.378.025-.378.283 0 .254.178.469.51.416-.079.038-.119.115-.127.2a.464.464 0 0 1 .127-.025c-.039.068-.093.127-.09.26.062-.026.118-.08.198-.045-.124.243.028.578.415.658a.804.804 0 0 1-.21-.524c0-.58.16-.676.16-1.08a.6.6 0 0 0-.257-.473v.007A.344.344 0 0 0 4.737 18c-.259-.073-.636-.072-.838.008a.623.623 0 0 0-.443.295.898.898 0 0 0 0 .713c.154.322.88 1.86 1.106 2.345a.768.768 0 0 1 .077.329c0 .297-.27.4-.425.4-.184 0-.372-.14-.372-.315 0-.112.06-.18.147-.18.21 0 .196.179.154.29.13-.058.205-.162.184-.272a.338.338 0 0 0 .21-.118c-.052-.064-.114-.112-.21-.114.042-.17-.072-.242-.184-.281.035.123.058.268-.154.268-.155 0-.277.027-.348.127-.005-.134-.018-.665-.018-.665-.008-.2.267-.194.443-.134-.066-.23-.2-.355-.516-.323a.248.248 0 0 0 .158-.242c0-.187-.152-.394-.252-.455l-.049 1.947z" fill="#ffcc4d"/><path d="M3.506 21.623c0 .5-.448.756-.8.756-.474 0-.727-.284-.727-.655 0-.211.038-.343.135-.544 0 0 .783-1.63 1.088-2.258a.68.68 0 0 0 .05-.3c0-.202-.197-.367-.402-.373-.188-.004-.392.176-.392.38 0 .249.129.36.26.36.164 0 .229-.067.229-.182 0-.08-.038-.114-.093-.114-.14 0-.101.188-.101.188a.128.128 0 0 1-.094-.174.245.245 0 0 1-.135-.081.25.25 0 0 1 .135-.074c-.032-.108.01-.161.105-.183a.2.2 0 0 0-.013.116c.149-.042.378.025.378.283 0 .254-.178.469-.51.416.079.038.119.115.127.2a.464.464 0 0 0-.127-.025c.038.068.093.127.09.26-.062-.026-.118-.08-.198-.045.124.243-.028.578-.415.658a.804.804 0 0 0 .21-.524c0-.58-.16-.676-.16-1.08 0-.167.087-.348.258-.473v.007c-.113-.03-.186-.085-.227-.162.259-.073.635-.072.837.008a.623.623 0 0 1 .443.295.898.898 0 0 1 0 .713c-.154.322-.88 1.86-1.106 2.345a.768.768 0 0 0-.077.329c0 .297.27.4.425.4.184 0 .372-.14.372-.315 0-.112-.06-.18-.147-.18-.21 0-.196.179-.155.29-.13-.058-.204-.162-.184-.272a.339.339 0 0 1-.208-.118c.05-.064.113-.112.208-.114-.041-.17.072-.242.184-.281-.035.123-.058.268.155.268.155 0 .277.027.348.127l.018-.665c.008-.2-.268-.194-.443-.134.066-.23.2-.355.516-.323a.248.248 0 0 1-.158-.242c0-.187.152-.394.252-.455l.049 1.947z" fill="#ffcc4d"/><path d="M3.506 23.12c0-.498-.448-.755-.8-.755-.474 0-.727.283-.727.655 0 .21.038.343.135.544 0 0 .783 1.629 1.088 2.258a.68.68 0 0 1 .05.299c0 .203-.197.368-.402.374-.188.004-.392-.176-.392-.38 0-.25.129-.36.26-.36.164 0 .229.067.229.182 0 .08-.038.114-.093.114-.14 0-.101-.188-.101-.188a.128.128 0 0 0-.094.175.25.25 0 0 0-.135.08.25.25 0 0 0 .135.074c-.032.108.01.16.105.183a.2.2 0 0 1-.013-.116c.149.043.378-.025.378-.282 0-.255-.178-.47-.51-.417.079-.038.119-.115.127-.201a.464.464 0 0 1-.127.026c.038-.068.093-.127.09-.262-.062.028-.118.08-.198.047.124-.243-.028-.58-.415-.658a.804.804 0 0 1 .21.524c0 .579-.16.676-.16 1.079 0 .168.087.35.258.474v-.008c-.113.03-.186.087-.227.163.259.073.635.072.837-.008a.62.62 0 0 0 .443-.296.895.895 0 0 0 0-.712c-.154-.322-.88-1.86-1.106-2.345a.765.765 0 0 1-.077-.33c0-.296.27-.4.425-.4.184 0 .372.14.372.317 0 .11-.06.178-.147.178-.21 0-.196-.177-.155-.29-.13.059-.204.163-.184.273a.334.334 0 0 0-.208.118c.05.064.113.113.208.114-.041.17.072.242.184.282-.035-.125-.058-.27.155-.27.155 0 .277-.025.348-.126l.018.666c.008.198-.268.193-.443.133.066.23.2.355.516.323a.248.248 0 0 0-.158.242c0 .187.152.395.252.456l.049-1.948zM3.506 14.377c0-.499-.448-.755-.8-.755-.474 0-.727.283-.727.654 0 .211.038.344.135.544l1.088 2.259c.037.079.05.168.05.298 0 .204-.197.368-.402.373-.188.005-.392-.175-.392-.379 0-.249.129-.359.26-.359.164 0 .229.067.229.181 0 .079-.038.114-.093.114-.14 0-.101-.188-.101-.188a.129.129 0 0 0-.094.175.238.238 0 0 0-.135.08.25.25 0 0 0 .135.074c-.032.109.01.161.105.183a.198.198 0 0 1-.013-.116c.149.043.378-.025.378-.282 0-.255-.178-.469-.51-.417.079-.039.119-.115.127-.202-.06.024-.127.028-.127.028.038-.069.093-.128.09-.262-.062.028-.118.08-.198.047.124-.243-.028-.58-.415-.658a.8.8 0 0 1 .21.524c0 .577-.16.676-.16 1.078 0 .168.087.35.258.474v-.007c-.113.03-.186.085-.227.162.259.073.635.072.837-.008a.623.623 0 0 0 .443-.295.898.898 0 0 0 0-.713c-.154-.322-.88-1.861-1.106-2.345a.761.761 0 0 1-.077-.329c0-.296.27-.4.425-.4.184 0 .372.141.372.317 0 .109-.06.176-.147.176-.21 0-.196-.176-.155-.288-.13.058-.204.163-.184.273a.327.327 0 0 0-.208.117.272.272 0 0 0 .208.115c-.041.17.072.241.184.281-.035-.125-.058-.268.155-.268.155 0 .277-.027.348-.128l.018.666c.008.198-.268.193-.443.134.066.229.2.353.516.322a.248.248 0 0 0-.158.242c0 .187.152.394.252.456l.049-1.948z" fill="#ffcc4d"/><path d="M3.407 14.377c0-.499.448-.755.8-.755.474 0 .727.283.727.654a1.1 1.1 0 0 1-.135.544l-1.088 2.259a.677.677 0 0 0-.05.298c0 .204.197.368.402.373.187.005.392-.175.392-.379 0-.249-.129-.359-.26-.359-.164 0-.229.067-.229.181 0 .079.038.114.093.114.14 0 .101-.188.101-.188.07.016.126.086.094.175.051.01.098.037.135.08a.25.25 0 0 1-.135.074c.033.109-.01.161-.105.183a.198.198 0 0 0 .013-.116c-.149.043-.378-.025-.378-.282 0-.255.178-.469.51-.417-.079-.039-.119-.115-.127-.202.06.024.127.028.127.028-.039-.069-.093-.128-.09-.262.062.028.118.08.198.047-.124-.243.028-.58.415-.658a.8.8 0 0 0-.21.524c0 .577.16.676.16 1.078 0 .168-.087.35-.257.474v-.007c.112.03.184.085.227.162-.259.073-.636.072-.838-.008a.623.623 0 0 1-.443-.295.898.898 0 0 1 0-.713c.154-.322.88-1.861 1.106-2.345a.761.761 0 0 0 .077-.329c0-.296-.27-.4-.425-.4-.184 0-.372.141-.372.317 0 .109.06.176.147.176.21 0 .196-.176.154-.288.13.058.205.163.184.273.074.01.144.043.21.117a.272.272 0 0 1-.21.115c.042.17-.072.241-.184.281.035-.125.058-.268-.154-.268-.155 0-.277-.027-.348-.128-.005.134-.018.666-.018.666-.008.198.267.193.443.134-.066.229-.2.353-.516.322a.248.248 0 0 1 .158.242c0 .187-.152.394-.252.456l-.049-1.948zM3.457 28.521s.237.199.317.1c.129-.162-.398-.961-.398-1.243 0-.461.309-.587.689-.652.255-.045.671.018.671.018-.078.105-.129.136-.26.144a.548.548 0 0 1 .295.499c0 .399-.163.562-.163 1.01 0 .249.204.566.204.566-.36-.037-.54-.37-.438-.637a.176.176 0 0 0-.154.047c-.026-.074.016-.16.071-.234-.045-.024-.078-.009-.149.006.007-.077.052-.157.164-.233-.324.084-.524-.142-.524-.379 0-.179.126-.306.248-.306a.25.25 0 0 1 .131.041c.023-.05.011-.115-.014-.164.09.023.147.077.107.187.07.007.123.03.16.074a.188.188 0 0 1-.16.074c.05.103-.006.162-.087.208 0 0 .052-.208-.08-.208-.06 0-.115.02-.115.107 0 .076.067.182.221.175.155-.006.28-.106.28-.352 0-.227-.184-.34-.425-.348-.218-.006-.382.112-.382.336 0 .299.432.98.432 1.246 0 .2-.18.312-.356.312-.227 0-.42-.226-.42-.226l.134-.168z" fill="#ffcc4d"/><path d="M3.457 28.521s-.237.199-.317.1c-.13-.162.397-.961.397-1.243 0-.461-.308-.587-.688-.652-.257-.045-.673.018-.673.018.078.105.13.136.261.144a.548.548 0 0 0-.295.499c0 .399.163.562.163 1.01 0 .249-.205.566-.205.566.36-.037.54-.37.438-.637a.175.175 0 0 1 .155.047c.025-.074-.016-.16-.072-.234.044-.024.078-.009.15.006-.008-.077-.054-.157-.165-.233.324.084.524-.142.524-.379 0-.179-.126-.306-.248-.306a.247.247 0 0 0-.13.041c-.024-.05-.012-.115.012-.164-.089.023-.146.077-.106.187a.228.228 0 0 0-.16.074.188.188 0 0 0 .16.074c-.05.103.006.162.087.208 0 0-.052-.208.081-.208.06 0 .114.02.114.107 0 .076-.067.182-.22.175-.156-.006-.28-.106-.28-.352 0-.227.183-.34.424-.348.218-.006.382.112.382.336 0 .299-.432.98-.432 1.246 0 .2.18.312.355.312.228 0 .42-.226.42-.226l-.133-.168zM3.407 23.12c0-.498.448-.755.8-.755.474 0 .727.283.727.655 0 .21-.038.343-.135.544 0 0-.783 1.629-1.088 2.258a.679.679 0 0 0-.05.299c0 .203.197.368.402.374.187.004.392-.176.392-.38 0-.25-.129-.36-.26-.36-.164 0-.229.067-.229.182 0 .08.038.114.093.114.14 0 .101-.188.101-.188.07.015.126.086.094.175a.25.25 0 0 1 .135.08.25.25 0 0 1-.135.074c.033.108-.01.16-.105.183a.2.2 0 0 0 .013-.116c-.149.043-.378-.025-.378-.282 0-.255.178-.47.51-.417-.079-.038-.119-.115-.127-.201.06.023.127.026.127.026-.039-.068-.093-.127-.09-.262.062.028.118.08.198.047-.124-.243.028-.58.415-.658a.804.804 0 0 0-.21.524c0 .579.16.676.16 1.079 0 .168-.087.35-.257.474v-.008a.351.351 0 0 1 .227.163c-.259.073-.636.072-.838-.008a.62.62 0 0 1-.443-.296.895.895 0 0 1 0-.712c.154-.322.88-1.86 1.106-2.345a.765.765 0 0 0 .077-.33c0-.296-.27-.4-.425-.4-.184 0-.372.14-.372.317 0 .11.06.178.147.178.21 0 .196-.177.154-.29.13.059.205.163.184.273.074.01.144.045.21.118-.052.064-.114.113-.21.114.042.17-.072.242-.184.282.035-.125.058-.27-.154-.27-.155 0-.277-.025-.348-.126-.005.134-.018.666-.018.666-.008.198.267.193.443.133-.066.23-.2.355-.516.323a.248.248 0 0 1 .158.242c0 .187-.152.395-.252.456l-.049-1.948z" fill="#ffcc4d"/></g></svg>