<svg xmlns="http://www.w3.org/2000/svg" viewBox="0 0 45 45"><defs><clipPath id="a"><path d="M0 36h36V0H0v36z"/></clipPath><clipPath id="b"><path d="M4 31a4 4 0 0 1-4-4v-9h19v13H4z"/></clipPath><clipPath id="c"><path d="M0 36h36V0H0v36z"/></clipPath></defs><g clip-path="url(#a)" transform="matrix(1.25 0 0 -1.25 0 45)"><path d="M36 9a4 4 0 0 0-4-4H4a4 4 0 0 0-4 4v18a4 4 0 0 0 4 4h28a4 4 0 0 0 4-4V9z" fill="#00247d"/><path d="M19 31H4a4 4 0 0 1-4-4v-9h19v13z" fill="#00247d"/><path d="M19 18v2.029L11.9 25H6.671l9.997-7H19z" fill="#eee"/><path d="M19 19.418L11.029 25H9.286L19 18.198v1.22z" fill="#cf1b2b"/><path d="M8.1 25L0 19.234V18h3.332l9.998 7H8.1z" fill="#eee"/><path d="M10.714 25l-9.98-7H2.46l9.998 7h-1.744z" fill="#cf1b2b"/><path d="M16.669 31l-9.997-7H11.9L19 28.971V31h-2.331z" fill="#eee"/><path d="M17.54 31l-9.997-7h1.743L19 30.802V31h-1.46z" fill="#cf1b2b"/></g><g clip-path="url(#b)" transform="matrix(1.25 0 0 -1.25 0 45)"><path d="M10 24h3.328l-9.996 7H1l-.625-1.594L10 22.669V24z" fill="#eee"/><path d="M10 24h.714L1 30.802l-.5-.865 9.5-6.659V24z" fill="#cf1b2b"/></g><g clip-path="url(#c)" transform="matrix(1.25 0 0 -1.25 0 45)"><path d="M19 27h-7v4H7v-4H0v-5h7v-4h5v4h7v5z" fill="#eee"/><path d="M11 18H8v13h3V18z" fill="#cf1b2b"/><path d="M19 23H0v3h19v-3z" fill="#cf1b2b"/><path d="M33.74 13.28c-.279-.04-.396-.439-.516-.68 0 0-.279-.24-.719-.2 0 0 .202.32.401.641.2.32.081.72-.199.76-.279.04-.32.2-.68.52-.36.32-1 .36-1.12.08-.12-.28-.68-.48-.6-.88.08-.4.28-.92.48-1.24 0 0-.946-.6-1.707-.88-.76-.28-1.544-.32-1.544-.32s-.567.04-1.326.32c-.76.28-1.485.88-1.485.88.2.32.4.84.481 1.24.08.4-.48.6-.6.88s-.76.24-1.12-.08c-.36-.32-.4-.48-.682-.52-.279-.04-.4-.44-.2-.76l.4-.64c-.442-.04-.722.2-.722.2-.12.24-.244.64-.524.68-.28.04-.287-.24-.247-.522.041-.279.225-.799.344-1.119.12-.32.331-.36.772-.44.44-.08 1.102.28 1.102.28C25.29 9.96 27.536 10 27.536 10s2.465-.04 4.025 1.48c0 0 .773-.36 1.213-.28.44.08.707.12.826.44.12.32.334.84.374 1.12.041.281.047.56-.234.52" fill="#f9d050"/><path d="M33.588 11.68s.319.96.399 1.28c.08.32-.24.44-.48.242-.24-.202-.6-1.362-.6-1.362s.12.24.36.2c.24-.04.32-.36.32-.36M31.667 13.16s.44.52.48.841c.04.32-.4.72-.72.68-.32-.04-.56-.28-.48-.56.08-.28.36-.84.36-.84s0 .08.161.08c.159 0 .199-.2.199-.2M21.926 11.68s-.32.96-.401 1.28c-.08.32.24.44.48.242.24-.202.6-1.362.6-1.362s-.12.24-.36.2c-.24-.04-.32-.36-.32-.36M23.846 13.16s-.44.52-.48.841c-.041.32.4.72.719.68.32-.04.56-.28.48-.56-.08-.28-.36-.84-.36-.84s0 .08-.16.08-.2-.2-.2-.2" fill="#db1c1c"/><path d="M27.767 20.162h-3.23v-3.88c0-1.722.435-2.762.994-3.44.779-.947 2.329-1.483 2.329-1.483s1.68.536 2.459 1.482c.56.68 1.218 1.72 1.218 3.44v3.881h-3.77z" fill="#cf1b2b"/><path d="M30.271 12.642c.56.68 1.265 1.919 1.265 3.64v1.486c-1 .02-.216.033-.303.033-.56 0-.56-.52-1.08-.52s-.66.52-1.18.52c-.52 0-.69-.52-1.211-.52-.44 0-.804.52-1.205.52-.4 0-.843-.52-1.203-.52-.36 0-.576.52-.936.52-.022 0 .119-.002.119-.006v-1.513c0-1.721.435-2.96.994-3.64.5-.607 1.17-.48 1.72-1.48h1.032c.55 1 1.488.873 1.988 1.48" fill="#fff"/><path d="M25.231 15.121c.48 0 1.08.44 1.4.44.32 0 .6-.44 1.04-.44.44 0 1 .44 1.28.44s.72-.44 1.16-.44c.44 0 .6.44.998.44.08 0 .235-.017.3-.045.027.24.127.494.127.765v.326c-1 .022-.216.034-.303.034-.56 0-.56-.52-1.08-.52s-.66.52-1.18.52c-.52 0-.69-.52-1.212-.52-.439 0-.804.52-1.205.52-.4 0-.843-.52-1.203-.52-.36 0-.576.52-.935.52-.023 0 .118-.002.118-.006v-.354c0-.255-.17-.495-.147-.72.352-.012.368-.44.842-.44M29.7 12.372c-.23.154-.4.388-.748.388-.52 0-.68-.52-1.2-.52-.44 0-.8.52-1.2.52-.249 0-.512-.2-.763-.352.831-.674 1.977-1.049 1.977-1.049s1.107.362 1.933 1.013M31.15 14.88c-.56 0-.519-.52-1.038-.52-.52 0-.64.52-1.16.52-.52 0-.68-.52-1.2-.52-.44 0-.8.52-1.202.52-.399 0-.839-.52-1.199-.52-.329 0-.692.435-1.026.51a4.83 4.83 0 0 1 .598-1.443.75.75 0 0 1 .308-.067c.48 0 1.08.44 1.4.44.32 0 .6-.44 1.04-.44.44 0 1 .44 1.28.44s.72-.44 1.16-.44c.284 0 .452.185.643.316.184.338.345.734.457 1.202a.628.628 0 0 1-.062.003" fill="#0b50a0"/><path d="M25.566 16.166l.355 1.207.365-1.204 1.26.036-1.034-.72.422-1.185-1.003.76-.997-.769.412 1.189-1.038.711 1.258-.025zM29.247 16.166l.355 1.207.366-1.204 1.258.036-1.034-.72.423-1.185-1.004.76-.996-.769.412 1.189-1.039.711 1.26-.025z" fill="#059334"/><path d="M27.407 14.006l.355 1.208.365-1.205 1.26.035-1.035-.72.423-1.184-1.003.759-.998-.768.413 1.188-1.039.712 1.26-.025z" fill="#059334"/><path d="M24.866 19.96c.25.206.48-.12.521-.32.04-.2.28-.48.52-.48 0 0 .16.48.28.72.12.24.44.32.64.24.2-.078.56-.04.52-.4-.04-.36-.16-.52-.16-.52s.72-.04 1.04 0c.32.04.68.24.92.12s.6-.16.72-.08.2.32-.08.282c-.28-.041-.52-.041-.76-.081s-1.28-.08-1.28.24.4.36.48.32c.08-.04.68.4.8.2s.12-.44-.24-.44-.88.08-.88-.04.16-.2.4-.2c.24 0 .64.16.92.16s.68.32.92.12.44-.48.24-.6-.92-.16-1.16-.12c0 0 .28-.16.52-.2.24-.04.72-.12.681-.36-.04-.24.08-.56-.24-.52-.32.04-.28.2-.2.32.08.12-.12.24-.48.2-.36-.04-.8.16-.8.16s-.12-.32.04-.4c0 0-.482-.2-.76-.24-.28-.04-.56-.16-.56 0s.2.4.36.32c.16-.08.438.04.52.04.08 0-.282.24-.082.32.201.08-.159.12-.359 0-.2-.12-1.4-.44-1.8-.6-.4-.16-.76-.12-.92-.2-.16-.08-.48.12-.32.32.16.2.24.32.36.2s.32-.08.6 0c.28.08-.16.16-.24.24-.08.08-.4.56-.4.68s-.72.24-.28.6M26.667 22.921c-.24.36-.96.84-.96.84l.68-.2s-.321.44-.68.52c.079 0 .72-.08.919-.24 0 0-.56.641-.84.76 0 0 .681-.2.921-.44l-.28.6s.519-.24.679-.56c0 0-.16.64-.48.96 0 0 .36-.16.521-.4 0 0 .12.12.36.04l.16.44.334-.159.535.24v-.28l.145.34-.494-.22h.24l.32.22s-.12-.39-.16-.75c0 0 .2.325.64.485 0 0-.56-.859-.64-1.178 0 0 .8.791 1.32.991 0 0-.72-.844-.92-1.164 0 0 .6.517 1.159.677 0 0-.719-.76-.839-.92 0 0 .4.16.92.12 0 0-1.2-.682-1.48-.92-.28-.24-2.08.198-2.08.198" fill="#f9d050"/><path d="M26.066 21.162c-.439-.08-.56-.32-.52-.561a.438.438 0 0 1 .6-.32c.28.12.521.2.521.2s.24-.04.4 0c.16.04.24.16.24.16s.44-.08.68 0c0 0 .44-.2.8-.04 0 0 .88-.4 1.28-.24.4.16.073.696-.12.76-.36.12-1.24.24-1.92.28-.68.04-1.96-.24-1.96-.24" fill="#fff"/><path d="M29.947 21.121a4.668 4.668 0 0 1-.655.143l.014-.023s.04-.2.08-.44c.028-.16.037-.339.124-.439.206-.043.413-.058.557 0 .4.16.073.695-.12.76M27.604 21.395c.123-.144.199-.521.37-.757.004 0 .01.001.013.003 0 0 .427-.192.783-.047.037.068-.022.128-.022.128l-.258.644c-.158.015-.316.027-.463.036a3.4 3.4 0 0 1-.423-.007M26.907 20.521c.124 0 .214 0 .274.007.05.032.086.066.106.089-.006.063-.06.169-.14.345-.065.14-.15.258-.24.353a15.39 15.39 0 0 1-.818-.148c.13-.316.45-.645.818-.645" fill="#00247d"/><path d="M24.787 22.761s.12.441.64.441.28-.32.88-.36c.6-.04 2.72-.32 3.04-.48.32-.16.72-.12.92-.08.2.04.041-.2-.16-.32-.2-.12-.6-.04-.6-.04s.44-.4.56-.68c.12-.28 0-.4-.2-.28s-.44-.12-.48.04c-.04.16-.44.72-.44.72s-1.16.16-1.48-.12c-.32-.28-.712-.385-1.36-.32-.4.04-.64.24-.56.48.08.24.28.32.28.32s-.04.48-.2.36-.52-.04-.56.04c-.04.08-.28.28-.28.28" fill="#059334"/><path d="M26.066 22.921c.172.103 1 .48 1.641.44.64-.04 1.04-.2 1.48-.44.44-.24.4-.44.64-.52.24-.08.12-.2 0-.32s-.52-.8-1.8-.76c-1.28.04-1.4.4-1.6.56-.2.16-.32.56-.32.68s-.24.24-.04.36" fill="#059334"/><path d="M28.467 21.721c.434.12 1.023.276 1.308.702-.184.091-.184.278-.588.498-.44.24-.84.401-1.48.44-.452.03-1-.15-1.341-.296-.02-.283-.02-.624-.02-.624s.36-.2.64-.44 1.04-.4 1.48-.28" fill="#00493d"/></g></svg>