<svg xmlns="http://www.w3.org/2000/svg" viewBox="0 0 45 45"><defs><clipPath id="a"><path d="M0 36h36V0H0v36z"/></clipPath></defs><g clip-path="url(#a)" transform="matrix(1.25 0 0 -1.25 0 45)"><path d="M36 9a4 4 0 0 0-4-4H4a4 4 0 0 0-4 4v18a4 4 0 0 0 4 4h28a4 4 0 0 0 4-4V9z" fill="#141414"/><path d="M34.618 5.998C35.458 6.731 36 7.798 36 9v18a4 4 0 0 1-4 4H4a3.963 3.963 0 0 1-2.618-.998L34.618 5.998z" fill="#ce1126"/><path d="M7.72 22.464l.384-1.316h1.324l-1.045-.804.383-1.278-1.045.804-1.045-.768.383 1.242-1.045.804h1.289l.418 1.316zM3.707 17.331l.383-1.315h1.324l-1.045-.804.383-1.279-1.045.804-1.045-.768.383 1.243L2 16.016h1.289l.418 1.315zM7.72 10.398l.384-1.315h1.324L8.383 8.28 8.766 7l-1.045.803-1.045-.766.383 1.242-1.045.804h1.289l.418 1.315zM9.513 13.192l.191-.657h.663l-.523-.404.191-.638-.522.402-.522-.384.191.62-.523.404h.645l.21.657zM11.716 17.696l.383-1.315h1.324l-1.045-.804.383-1.279-1.045.803-1.045-.766.383 1.242-1.044.804h1.288l.418 1.315z" fill="#fff"/><path d="M28.066 20.695c.437-.437 3.391-2.407 3.391-4.814 0-2.408-2.153-2.334-2.772-2.26.693-.585 3.32-.476 3.32 2.26 0 2.407-3.392 4.814-3.83 5.033-.437.218-.548.218-.109-.219m-5.344 2.571c-.308-.4-1.039.401-1.914.42-.875.017-1.496-.84-1.75-1.132-.256-.292-1.077-1.823-1.058-1.987.02-.164.511.456.693.565.018-.218-.2-.474-.147-.546.055-.074.64.437.84.455.055-.146-.109-.29-.054-.51.072-.074.4.364.62.455.036-.164-.202-.474-.074-.674.09-.019.64.62.821.693.181.073-.092-.602 0-.657.164.11.674.693.838.766.164.073-.018-.747.054-.747.202.145.711.838.766.947.055.11-.055-1.056.512-1.677.566-.62 1.422-1.33 1.513-1.33.11.2-.037.62.055.601.256-.274.73-.675.838-.675.11 0-.072.438.074.438.291-.274 1.13-1.35 2.772-1.842-.11.31-.348.584-.366.73.11-.018.493-.2.565-.183.074.018-.8 1.094-.748 1.24.201.018.293-.109.365-.018-.09.146-.857 1.003-.857 1.203 0 .201.238-.036.31 0 .074.037-.29.802-.219.894.073.09.875-.492 1.077-.492.201 0 .054.711.146.747.09.036.766-.383.91-.383.147 0 .13.31.184.274.055-.037 1.641-1.623 1.094-3.483-.547-1.33-1.64-2.042-3.246-1.459.091-.145.95-.856 1.878-.6.93.253 2.061.983 1.934 2.806-.129 1.824-.73 2.08-.82 2.352-.094.274.144-.073.343-.145.204-.073-.035.383-.089.583-.055.2.601-.419.765-.473.164-.055-.383 1.495-.547 1.604-.164.11.164-.037.274-.073.11-.036-1.004 1.696-1.24 1.696-.237 0 .201.09.328.09s-1.276 1.131-1.514 1.131c-.236 0 .512.292.584.31.127-.018-1.623.93-3.19-.018-.09.073.737.647.764.893.01.064-.273.201-.29.274-.018.073.437.292.454.456-.109.146-.308.091-.418.127-.027.137.383.474.346.62-.027.082-.328.11-.4.055-.075-.055.191.383.144.51-.035.055-.18.018-.328-.018-.09.018.475.803.365.912-.109.11-1.64-.802-2.205-1.823-.566-1.022-.129-1.842-.2-2.189-.073-.345-.165-.693-.4-.693-.24 0-.787.365-.968.548-.184.182-.219.31-.475.382-.256.074-.84-.145-1.058-.164-.219-.018-1.075.164-1.129.11-.055-.055.838-.383 1.04-.493.198-.109.218-.254.362-.346.147-.09 1.516-.492 1.076-1.057" fill="#fcd116"/></g></svg>