<svg xmlns="http://www.w3.org/2000/svg" viewBox="0 0 45 45"><defs><clipPath id="a"><path d="M0 36h36V0H0v36z"/></clipPath><clipPath id="b"><path d="M4 31a4 4 0 0 1-4-4V9a4 4 0 0 1 4-4h28a4 4 0 0 1 4 4v18a4 4 0 0 1-4 4H4z"/></clipPath><clipPath id="c"><path d="M0 36h36V0H0v36z"/></clipPath></defs><g clip-path="url(#a)" transform="matrix(1.25 0 0 -1.25 0 45)"><path d="M36 9a4 4 0 0 0-4-4H4a4 4 0 0 0-4 4v18a4 4 0 0 0 4 4h28a4 4 0 0 0 4-4V9z" fill="#d21034"/></g><g clip-path="url(#b)" transform="matrix(1.25 0 0 -1.25 0 45)"><path d="M36 18H0V5h36v13z" fill="#009543"/><path d="M-1 31.959L17 21h19v-6H17L-1 4v27.957z" fill="#141414"/><path d="M36 19v-2H17L-1 6v24l18-11h19z" fill="#fdce12"/></g><g clip-path="url(#c)" transform="matrix(1.25 0 0 -1.25 0 45)"><path d="M0 27l15-9L0 9v18z" fill="#141414"/><path d="M4.375 14.395s3.25.5 3.25 3.71c0 1.973-1.708 3.062-3.042 3.062-1.333 0-2.75-1-2.75-2.75 0-1.751 1.625-2.292 2.417-2.292.792 0 2 .625 1.833 2-.464-1.913-2.412-1.858-3.166-.708-.834 1.27.458 3.083 2.125 2.583 1.579-.473 1.661-2.08 1.125-3.084-.667-1.25-1.771-1.187-1.771-1.187l-.021-1.334z" fill="#fdce12"/><path d="M3.417 17.27s-.032.446.167.708c.645.854 1.791 1.46 1.937 1.375.146-.083-.396-.249-.958-.916-.27-.319-.433-.627-.646-.834-.231-.225-.5-.333-.5-.333" fill="#fdce12"/><path d="M5.543 17.27s.032.446-.167.708c-.645.854-1.791 1.46-1.937 1.375-.146-.083.396-.249.958-.916.27-.319.433-.627.646-.834.231-.225.5-.333.5-.333" fill="#fdce12"/></g></svg>