<svg xmlns="http://www.w3.org/2000/svg" viewBox="0 0 45 45"><defs><clipPath id="a"><path d="M0 36h36V0H0v36z"/></clipPath></defs><g clip-path="url(#a)" transform="matrix(1.25 0 0 -1.25 0 45)"><path d="M36 9a4 4 0 0 0-4-4H4a4 4 0 0 0-4 4v18a4 4 0 0 0 4 4h28a4 4 0 0 0 4-4V9z" fill="#032ea1"/><path d="M36 10.572H0v14.855h36V10.572z" fill="#e01e24"/><path d="M27.021 13.102v.902h-.542v.902h-.496v.586h-.226v.451h-.438l-.237.341v1.598l.27.271v1.49l-.225-.204v.474h-.181v-.226h-.36v.722l-.428-.383.134.485-.249 1.117h-.134s-.112.473-.337.473c0 0 .09.293-.091.293-.182 0-.137-.225-.137-.225s-.315-.137-.315-.475l-.18.022-.27-1.307.19-.384-.44.384V19.416h-2.388v.902l-.136-.134v-.317h-.315v.317l.225.202v.429l-.181-.191-.271.372v.316l-.158-.157-.046.27.226.36-.034.293-.259-.315v.27l.113.247-.519 1.308-.123.362-.192.022v.181s-.135.315-.316.315c-.18 0-.315-.315-.315-.315v-.18l-.192-.023-.125-.362-.518-1.308.113-.248v-.27l-.26.315-.035-.293.226-.36-.045-.27-.158.158v-.316l-.27-.372-.18.19v-.427l.224-.202v-.317h-.315v.317l-.136.134v-.902h-2.39v.992l-.439-.384.191.384-.27 1.307-.182-.022c0 .338-.315.474-.315.474s.045.225-.136.225c-.18 0-.09-.293-.09-.293-.224 0-.337-.473-.337-.473h-.135l-.248-1.116.135-.485-.428.384v-.722h-.361v.226h-.182v-.475l-.223.203v-1.489l.27-.27v-1.599l-.24-.34h-.348v-.452h-.315v-.586h-.452v-.902h-.496v-.902h-.496l-.045-.99h19.035l.045.99h-.496z" fill="#fff"/><path d="M17.458 12.111h-.354v6.02h.354v-6.02zM18.912 12.111h-.349v6.02h.349v-6.02zM11.938 12.111h-.342v6.02h.342v-6.02zM13.413 12.121h-.33v6.02h.33v-6.02zM22.937 12.111h-.427v6.02h.427v-6.02zM24.413 12.111h-.338v6.02h.338v-6.02zM11.596 16.018H10.59l.194.379h.812v-.38z" fill="#db7f86"/><path d="M25.327 16.018h-1.252v.379h1.074l.178-.38zM17.329 16.018h-4.16v.379h4.16v-.379zM22.849 16.018h-4.161v.379h4.161v-.379z" fill="#db7f86"/></g></svg>