<svg xmlns="http://www.w3.org/2000/svg" viewBox="0 0 45 45"><defs><clipPath id="a"><path d="M0 36h36V0H0v36z"/></clipPath></defs><g clip-path="url(#a)" transform="matrix(1.25 0 0 -1.25 0 45)"><path d="M0 9a4 4 0 0 1 4-4h28a4 4 0 0 1 4 4v4H0V9z" fill="#0038a8"/><path d="M0 13h36v10H0V13z" fill="#eee"/><path d="M32 31H4a4 4 0 0 1-4-4v-4h36v4a4 4 0 0 1-4 4" fill="#d52b1e"/><path d="M22 18a4 4 0 1 0-8 0 4 4 0 0 0 8 0"/><path d="M21.75 18a3.75 3.75 0 1 0-7.501.001A3.75 3.75 0 0 0 21.75 18" fill="#eee"/><path d="M21.25 18a3.25 3.25 0 1 0-6.5 0 3.25 3.25 0 0 0 6.5 0"/><path d="M21.126 18a3.126 3.126 0 1 0-6.249 0 3.126 3.126 0 0 0 6.249 0" fill="#eee"/><path d="M21.132 18.02a3.132 3.132 0 1 1-6.265 0c0-.574.154-1.11.423-1.573l2.712 1.491 2.707-1.49c.27.461.423.998.423 1.572" fill="#99aab5"/><path d="M20.5 18a2.5 2.5 0 1 0-5 0 2.5 2.5 0 0 0 5 0"/><path d="M20.4 18a2.4 2.4 0 1 1-4.799.001A2.4 2.4 0 0 1 20.4 18" fill="#eee"/><path d="M18 18.818l.184-.565h.594l-.481-.35.183-.565-.48.349-.48-.35.183.566-.481.35h.594l.184.565z" fill="#ffac33"/><path d="M18.497 19.483s.3.07.476.088c.176.018.335-.387.545-.458.214-.07.212-.282.3-.528.088-.247.035-.3.035-.58 0-.283.16-.424.124-.636-.036-.21-.212-.264-.317-.405-.105-.14-.018-.317-.124-.422-.105-.106-.458-.088-.58-.195-.124-.105-.353-.263-.512-.175-.158.087-.493.123-.493.123s.088.317.335.422c.247.106.352.088.581.16.23.07.211.175.37.316.158.141.176.335.264.476.09.141.106.246.071.44a3.217 3.217 0 0 1-.177.582c-.07.175-.228.387-.335.51-.105.123-.563.282-.563.282" fill="#007127"/><path d="M17.405 19.378s.175.383 0 .405c-.705.088-.846-.546-1.057-.616-.214-.072-.247-.423-.335-.67-.088-.246-.052-.3-.052-.581 0-.282.005-.335.04-.546.035-.212.083-.37.19-.512.104-.14.145-.21.251-.316.105-.105.311-.212.435-.317.123-.106.498-.141.657-.053.158.088.434.123.434.123s-.117.212-.364.317c-.246.106-.264.194-.493.264-.229.07-.21.177-.37.318-.158.14-.176.334-.264.475-.088.14-.04.176-.006.37.036.194.106.352.177.528.07.177.246.406.352.529.106.123.405.282.405.282" fill="#007127"/><path d="M17.423 16.137l.229-.158.299.21.282-.193.37.14-.37-.264-.264.212-.282-.194-.282.159.018.088z" fill="#007127"/></g></svg>