<svg xmlns="http://www.w3.org/2000/svg" viewBox="0 0 45 45"><defs><clipPath id="a"><path d="M4 31a4 4 0 0 1-4-4V9a4 4 0 0 1 4-4h28a4 4 0 0 1 4 4v18a4 4 0 0 1-4 4H4z"/></clipPath></defs><g clip-path="url(#a)" transform="matrix(1.25 0 0 -1.25 0 45)"><path d="M0 31l23.667-13L0 5h36v26H0z" fill="#dc241f"/><path d="M0 31l16-13L0 5l23.667 13L0 31z" fill="#ffc726"/><path d="M0 31V5l16 13L0 31z" fill="#141414"/><path d="M6.777 16.655l3.26-.542-2.32 2.355 1.524 2.934-2.956-1.478-2.32 2.355.492-3.27L1.5 17.533l3.26-.542.493-3.27 1.523 2.935z" fill="#fff"/></g></svg>