<svg xmlns="http://www.w3.org/2000/svg" viewBox="0 0 45 45"><defs><clipPath id="a"><path d="M0 36h36V0H0v36z"/></clipPath></defs><g clip-path="url(#a)" transform="matrix(1.25 0 0 -1.25 0 45)"><path d="M36 4a4 4 0 0 0-4-4H4a4 4 0 0 0-4 4v28a4 4 0 0 0 4 4h28a4 4 0 0 0 4-4V4z" fill="#3b88c3"/><path d="M15.676 24.797h-3.38c-1.488 0-2.108 1.085-2.108 2.14 0 1.085.775 2.14 2.108 2.14h11.411c1.332 0 2.107-1.055 2.107-2.14 0-1.055-.619-2.14-2.107-2.14h-3.38V9.232c0-1.55-.993-2.418-2.326-2.418-1.333 0-2.325.867-2.325 2.418v15.565z" fill="#fff"/></g></svg>