<svg xmlns="http://www.w3.org/2000/svg" viewBox="0 0 45 45"><defs><clipPath id="a"><path d="M0 36h36V0H0v36z"/></clipPath></defs><g clip-path="url(#a)" transform="matrix(1.25 0 0 -1.25 0 45)"><path d="M18 21.25c.902 0 1.718-.368 2.307-.961a2.824 2.824 0 1 1-1.65-5.113c.617 0 1.185.2 1.65.535A3.25 3.25 0 1 0 18 21.25m3.25-.952l1.032-1.42 1.67.542L22.92 18l1.032-1.42-1.67.542-1.032-1.42v1.756L19.58 18l1.67.543v1.755zM0 12h36v12H0V12z" fill="#141414"/><path d="M32 31H4a4 4 0 0 1-4-4v-3h36v3a4 4 0 0 1-4 4" fill="#e70013"/><path d="M32 5H4a4 4 0 0 0-4 4v3h36V9a4 4 0 0 0-4-4" fill="#239e46"/><path d="M18 14.75c.902 0 1.718.368 2.307.961a2.824 2.824 0 1 0-1.65 5.113c.617 0 1.185-.2 1.65-.535A3.25 3.25 0 1 1 18 14.75" fill="#fff"/><path d="M21.25 17.457v-1.756l1.032 1.421 1.67-.543L22.92 18l1.032 1.421-1.67-.543-1.032 1.421v-1.756L19.58 18l1.67-.542z" fill="#fff"/></g></svg>