<svg xmlns="http://www.w3.org/2000/svg" viewBox="0 0 45 45"><defs><clipPath id="a"><path d="M0 36h36V0H0v36z"/></clipPath><clipPath id="b"><path d="M4 31a4 4 0 0 1-4-4V9a4 4 0 0 1 4-4h28a4 4 0 0 1 4 4v18a4 4 0 0 1-4 4H4z"/></clipPath><clipPath id="c"><path d="M0 36h36V0H0v36z"/></clipPath></defs><g clip-path="url(#a)" transform="matrix(1.25 0 0 -1.25 0 45)"><path d="M36 9a4 4 0 0 0-4-4H4a4 4 0 0 0-4 4v18a4 4 0 0 0 4 4h28a4 4 0 0 0 4-4V9z" fill="#ce1126"/></g><g clip-path="url(#b)" transform="matrix(1.25 0 0 -1.25 0 45)"><path d="M36 12H0v12h36V12z" fill="#eee"/></g><g clip-path="url(#c)" transform="matrix(1.25 0 0 -1.25 0 45)"><path d="M18.813 21.75s.583-.021.458-.042c-.044-.007-.055-.413-.05-.937l.91 1.736a4.888 4.888 0 0 1-1.042.366l-.277-1.123zM21.1 20.827v-1.212l1.33.656c-.2.39-.444.752-.736 1.074l-.594-.518zM20.13 19.982l-.874-.763.018-.505.857.423v.845zM20.13 20.796c0 .219.425.314.712.252l.585.578a4.986 4.986 0 0 1-.97.703l-1.228-2.126c.004-.245.01-.493.019-.727l.883.87v.45zM16.688 20.615l-.061 2.17a5 5 0 0 1-.892-.351l.953-1.82z" fill="#ff9d11"/><path d="M14.962 16.234c-.13.35-.165.656-.165.656s-.079.11-.319 0c-.24-.109-.494-.312-.853-.39-.168-.037-.31.048-.42.147.04-.143.101-.275.153-.413h1.604zM18.533 16.234c-.1.202-.221.36-.533.36-.302 0-.437-.177-.536-.36h1.069zM22.643 16.234c.059.152.124.302.167.461-.331-.337-.84-.208-.997-.008-.172.22-.563.252-.563.252s-.046-.314-.15-.689c-.001-.005-.005-.01-.007-.016h1.55zM22.287 15.484c.08.135.161.268.228.411a.82.82 0 0 1-.359.097c-.344.008-.377-.238-.859-.242-.229-.002-.35.055-.416.13a2.12 2.12 0 0 0-.445-.396h1.851zM16.913 15.484h2.067a1.068 1.068 0 0 0-.118.134l.004-.012s-.428.41-.866.41c-.563 0-.95-.41-.95-.41l.013.024a1.738 1.738 0 0 0-.15-.146M15.474 15.484a1.543 1.543 0 0 0-.348.41c-.148-.1-.315-.188-.485-.176-.422.032-.69.481-.938.36-.084-.042-.165-.083-.242-.119.074-.166.164-.32.254-.475h1.759zM14.38 14.594h7.242c.119.129.234.262.339.402-.168.144-.422.317-.711.317-.484 0-.691-.438-1.12-.438-.427 0-.474.39-1.005.39-.531 0-.765-.452-1.18-.452-.414 0-.71.453-1.101.453s-.688-.453-1.11-.453c-.421 0-.656.5-1.031.5-.236 0-.514-.151-.7-.265.118-.16.244-.31.377-.454M20.736 13.86c.115.077.236.146.345.233-.25.12-.667.297-.95.297-.428 0-.538-.234-1.006-.234-.469 0-.676.265-1.143.265-.467 0-.625-.343-1.069-.343-.445 0-.632.375-1.179.375-.32 0-.698-.134-.957-.245.148-.13.315-.238.48-.349h5.48zM19.14 13.594c-.53 0-.78-.453-1.14-.453-.36 0-.673.469-1.086.469-.25 0-.54-.138-.74-.25A4.856 4.856 0 0 1 18 13a4.85 4.85 0 0 1 1.832.369c-.182.113-.427.225-.691.225" fill="#083e9d"/><path d="M14.777 18.325l-1.737.07c-.011-.132-.04-.26-.04-.395 0-.221.037-.432.065-.646h1.712v.97z" fill="#ff9d11"/><path d="M12.709 18.62l3.187-.306-.162-.226-3.171.084.145.448z" fill="#eee"/><path d="M14.777 19.323l-1.4.574a4.917 4.917 0 0 1-.3-1.126l1.7-.122v.674zM15.797 18.904v-.328l.949-.068v.006l-.95.39zM15.797 19.087l.946-.467-.012.459-.934.815v-.807zM14.777 20.783l-.542.473a4.93 4.93 0 0 1-.702-1.053l1.244-.613v1.193zM15.797 20.984v-.737l.926-.914-.02.686-1.293 2.238a5.014 5.014 0 0 1-.931-.71l.475-.469c.292.121.843.113.843-.094M22.96 18.402l-1.86-.075v-.973h1.835c.028.213.065.424.065.646 0 .138-.029.267-.04.402" fill="#ff9d11"/><path d="M21 18.088l2.333.084v.35L21 18.402v-.314z" fill="#eee"/><path d="M21.1 18.652l1.82.131a4.946 4.946 0 0 1-.32 1.177l-1.5-.616v-.692zM20.13 18.946l-.852-.35c0-.026.002-.052.003-.074l.85.061v.363z" fill="#ff9d11"/><path d="M13.354 20.615l3.559-1.88v-.213l-3.559 1.46v.633zM19.123 18.522l3.687 1.77-.205.479-3.482-1.825v-.424zM14.604 21.822l2.157-2.346v-.31L14.333 21.5l.271.322zM19.123 19.306l2.643 2.256-.339.396-2.304-2.39v-.262zM15.96 22.688l.924-2.073-.198-.192-1.016 2.119.29.145zM20 22.785l-.877-1.863v-.499l1.205 2.16-.328.202zM23.333 17.156H12.854v.266h10.479v-.266z" fill="#eee"/><path d="M15.047 20.703v-3.578c0-.484.266-1.64 1.03-1.64 1.048 0 1.387 1.296 1.387 1.296s-.755-.664-1.291-.453c-.535.211-.572.531-.572 1.234v3.053c0 .275-.554.338-.554.088M20.902 20.703v-3.578c0-.484-.266-1.64-1.03-1.64-1.048 0-1.387 1.296-1.387 1.296s.755-.664 1.29-.453c.536.211.573.531.573 1.234v3.053c0 .275.554.338.554.088M18.813 18.706l-1.797.551v2.868c0 .844.647 1.26 1.797.86-1-.095-1.318-.937 0-1.563v-2.716z" fill="#ce1126"/><path d="M20 17.29a.134.134 0 0 0-.133-.134h-3.859a.134.134 0 0 0-.133.133c0 .073.06.133.133.133h3.859c.073 0 .133-.06.133-.133M17.016 16.587h-.893l.383.507h.893l-.383-.507zM18.87 16.587h.892l-.383.507h-.894l.384-.507zM16.344 17.848a.066.066 0 0 0-.066-.066.066.066 0 0 0-.067.066v.48c0 .037.03.067.067.067.036 0 .066-.03.066-.067v-.48z" fill="#630810"/><path d="M16.083 17.558c-.043-.046-.127-.06-.189-.03-.061.032-.078.094-.036.139l.57.62c.042.045.127.058.188.028.063-.03.078-.093.036-.138l-.569-.62z" fill="#630810"/><path d="M16.429 17.558c.043-.046.127-.06.189-.03.06.032.078.094.036.139l-.57.62c-.042.045-.127.058-.188.028-.063-.03-.078-.093-.036-.138l.569-.62zM17.231 17.848a.066.066 0 0 0-.066-.066.066.066 0 0 0-.067.066v.48c0 .037.03.067.067.067.036 0 .066-.03.066-.067v-.48z" fill="#630810"/><path d="M16.97 17.558c-.042-.046-.126-.06-.188-.03-.061.032-.078.094-.036.139l.57.62c.042.045.127.058.188.028.063-.03.078-.093.036-.138l-.57-.62z" fill="#630810"/><path d="M17.316 17.558c.043-.046.127-.06.188-.03.062.032.08.094.037.139l-.57.62c-.042.045-.127.058-.188.028-.063-.03-.078-.093-.036-.138l.57-.62zM18.07 17.848a.066.066 0 0 0-.066-.066.066.066 0 0 0-.067.066v.48c0 .037.03.067.067.067.036 0 .066-.03.066-.067v-.48z" fill="#630810"/><path d="M17.81 17.558c-.043-.046-.127-.06-.19-.03-.06.032-.077.094-.035.139l.57.62c.042.045.127.058.188.028.063-.03.078-.093.036-.138l-.57-.62z" fill="#630810"/><path d="M18.155 17.558c.043-.046.127-.06.188-.03.062.032.08.094.037.139l-.57.62c-.042.045-.127.058-.188.028-.063-.03-.078-.093-.036-.138l.57-.62zM18.9 17.848a.066.066 0 0 0-.066-.066.066.066 0 0 0-.067.066v.48c0 .037.03.067.067.067.036 0 .066-.03.066-.067v-.48z" fill="#630810"/><path d="M18.64 17.558c-.043-.046-.127-.06-.188-.03-.062.032-.08.094-.037.139l.57.62c.042.045.127.058.188.028.063-.03.078-.093.036-.138l-.57-.62z" fill="#630810"/><path d="M18.985 17.558c.043-.046.127-.06.188-.03.062.032.08.094.037.139l-.57.62c-.042.045-.127.058-.188.028-.063-.03-.078-.093-.036-.138l.57-.62zM19.72 17.848a.065.065 0 0 0-.065-.066.066.066 0 0 0-.067.066v.48a.066.066 0 1 0 .133 0v-.48z" fill="#630810"/><path d="M19.46 17.558c-.043-.046-.127-.06-.189-.03-.061.032-.078.094-.036.139l.57.62c.042.045.127.058.188.028.063-.03.078-.093.036-.138l-.569-.62z" fill="#630810"/><path d="M19.806 17.558c.043-.046.127-.06.188-.03.062.032.079.094.037.139l-.57.62c-.042.045-.127.058-.188.028-.063-.03-.078-.093-.036-.138l.569-.62z" fill="#630810"/></g></svg>