<svg xmlns="http://www.w3.org/2000/svg" viewBox="0 0 45 45"><defs><clipPath id="a"><path d="M0 36h36V0H0v36z"/></clipPath></defs><g clip-path="url(#a)" transform="matrix(1.25 0 0 -1.25 0 45)"><path d="M36 9a4 4 0 0 0-4-4H4a4 4 0 0 0-4 4v18a4 4 0 0 0 4 4h28a4 4 0 0 0 4-4V9z" fill="#003893"/><path d="M34.593 30.023L.835 6.58l.08-.098L36 25v2a3.976 3.976 0 0 1-1.407 3.023" fill="#f4900c"/><path d="M1.012 6.365L36 19v6L.915 6.482c.033-.039.063-.079.097-.117" fill="#eee"/><path d="M9 29.082l.306-5.156 1.022 2.16-.442-2.347 1.639 1.736-1.146-2.097 2.096 1.146-1.737-1.639 2.347.442-2.158-1.022L16.083 22l-5.156-.305 2.158-1.022-2.347.441 1.737-1.639-2.096 1.146 1.146-2.096-1.639 1.737.442-2.347-1.022 2.158L9 14.917l-.306 5.155-1.022-2.158.442 2.347-1.639-1.737 1.146 2.096-2.096-1.146 1.737 1.64-2.347-.442 2.158 1.022L1.917 22l5.156.306-2.158 1.022 2.347-.442-1.737 1.64 2.096-1.147-1.146 2.097 1.639-1.737-.442 2.347 1.022-2.159L9 29.082z" fill="#fff"/></g></svg>