<svg xmlns="http://www.w3.org/2000/svg" viewBox="0 0 45 45"><defs><clipPath id="a"><path d="M0 36h36V0H0v36z"/></clipPath><clipPath id="b"><path d="M4 31a4 4 0 0 1-4-4v-9h19v13H4z"/></clipPath><clipPath id="c"><path d="M0 36h36V0H0v36z"/></clipPath></defs><g clip-path="url(#a)" transform="matrix(1.25 0 0 -1.25 0 45)"><path d="M36 9a4 4 0 0 0-4-4H4a4 4 0 0 0-4 4v18a4 4 0 0 0 4 4h28a4 4 0 0 0 4-4V9z" fill="#00247d"/><path d="M19 31H4a4 4 0 0 1-4-4v-9h19v13z" fill="#00247d"/><path d="M19 18v2.029L11.9 25H6.671l9.997-7H19z" fill="#eee"/><path d="M19 19.418L11.029 25H9.286L19 18.198v1.22z" fill="#cf1b2b"/><path d="M8.1 25L0 19.234V18h3.332l9.998 7H8.1z" fill="#eee"/><path d="M10.714 25l-9.98-7H2.46l9.998 7h-1.744z" fill="#cf1b2b"/><path d="M16.669 31l-9.997-7H11.9L19 28.97V31h-2.331z" fill="#eee"/><path d="M17.54 31l-9.998-7h1.744L19 30.802V31h-1.46z" fill="#cf1b2b"/></g><g clip-path="url(#b)" transform="matrix(1.25 0 0 -1.25 0 45)"><path d="M10 24h3.329l-9.997 7H1l-.625-1.594L10 22.669V24z" fill="#eee"/><path d="M10 24h.714L1 30.802l-.5-.865 9.5-6.659V24z" fill="#cf1b2b"/></g><g clip-path="url(#c)" transform="matrix(1.25 0 0 -1.25 0 45)"><path d="M19 27h-7v4H7v-4H0v-5h7v-4h5v4h7v5z" fill="#eee"/><path d="M11 18H8v13h3V18z" fill="#cf1b2b"/><path d="M19 23H0v3h19v-3z" fill="#cf1b2b"/><path d="M30.464 15.847c0-.49-.561-.888-1.253-.888-.691 0-1.252.398-1.252.888s.56.889 1.252.889 1.253-.398 1.253-.89" fill="#dd2e44"/><path d="M24.744 17.23c0-.421 1.267-.916 2.286.326 1.02 1.24.723-.448.305-.71-.418-.262-.865-.894-1.767-.797-.9.098-1.13.454-1.339.974-.208.519.515.207.515.207" fill="#009a67"/><path d="M24.926 19.878a.5.5 0 0 0-.273-.652l-.926-.378a.5.5 0 1 0-.38.925l.927.378a.499.499 0 0 0 .652-.273M32.898 17.061c-.15-.232-.419-.324-.6-.207l-1.31.85c-.18.117-.206.4-.056.631.151.232.42.325.601.208l1.31-.85c.18-.118.205-.4.055-.632" fill="#fff100"/><path d="M33.068 17.37a.5.5 0 1 0-.963-.268l-.537 1.926a.5.5 0 0 0 .963.269l.537-1.927z" fill="#fff100"/><path d="M33.478 17.148a.499.499 0 0 0-.5-.5.499.499 0 1 0 0 1 .5.5 0 0 0 .5-.5" fill="#fff100"/><path d="M25 17.375c0-.208-.224-.375-.5-.375s-.5.167-.5.375v2.25c0 .207.224.374.5.374s.5-.167.5-.375v-2.249z" fill="#009a67"/><path d="M25.719 18.413c.166-.22.167-.499.003-.622l-1.185-.889c-.163-.123-.43-.043-.596.178-.166.222-.167.5-.003.623l1.184.89c.163.121.43.042.597-.18" fill="#009a67"/><path d="M24.535 17.385c0-.272-.239-.493-.535-.493-.296 0-.536.22-.536.493 0 .272.24.493.536.493.296 0 .535-.221.535-.493M33.846 18.999c-.11-.258-.657-.271-1.225-.029-.566.241-.936.646-.826.904.11.258.657.271 1.225.029.566-.241.936-.646.826-.904" fill="#009a67"/><path d="M27.805 18.745c-.58-.376-1.357-1.076-1.357-1.076l.432-.055s.529-.554.62-1.079c.093-.524-.117-.169-.161-.575-.044-.406.185-.68.185-.68s.628.212 1.04.528c.412.317.687.791.923.547.235-.243.208-.355.208-.355H30s-.506.494-.498.777c.008.283-.443 1.69-.443 1.69l-1.254.278zM27.124 20.006s.475.36.425.316c-.05-.044.537-.25.893-.103.357.146 1.052.848 1.223.745.171-.104-.863-.71-.431-.805.433-.096.569.267.835.4.267.132.685.148.282-.12-.404-.266-.959-1.421-.959-1.421l-1.63.128-.427.313-.211.547z" fill="#d4d5d6"/><path d="M29.905 18.797c0-.23-.602-.417-1.344-.417-.74 0-1.343.187-1.343.417 0 .23.602.417 1.343.417.742 0 1.344-.187 1.344-.417M25.466 13.854c-.07-.22-.57-.255-1.12-.081-.55.174-.938.49-.87.71.07.22.572.256 1.122.082.549-.174.937-.492.868-.711M33.071 12.231c-.03-.17-.526-.225-1.108-.122-.582.102-1.03.322-1 .491.03.17.525.224 1.107.121.582-.1 1.03-.322 1.001-.49" fill="#009a67"/><path d="M32.082 12.15c-.157-.758-.423-1.34-.592-1.306-.169.035-.178.676-.02 1.432.157.756.422 1.34.591 1.305.169-.036.178-.677.021-1.432M29.57 18.663c.272-.715 1.048-2.13 1.787-2.14.74-.01.837.31.837.31s.027-.561-.645-.666c-.67-.104-1.053.228-.93.114.123-.115.394-.374 1.02-.538.626-.165 1.697-.358 1.664-.956-.032-.6-.45-.832-.408-.568.042.264-.429.744-1.256.93-.827.185-1.762.637-2.172 1.977-.409 1.34-.076.123-.076.123s-.809-.247-.804.157c.004.405.627.193.5.706-.128.514-.432.865-.13.756.301-.11.612-.205.612-.205M27.531 16.833c-.406-.624-1.585-1.502-1.965-1.914-.38-.412-.655-1.192-.736-1.708-.08-.517.074-1.314.362-.419.288.894.798 1.241 1.314 1.818.515.577.866.959 1.054 1.344.19.385-.029.879-.029.879" fill="#009a67"/><path d="M29.955 16.411c.127-.419.114-.793-.029-.836-.143-.043-.362.261-.488.68-.127.42-.113.794.031.837.142.043.36-.262.486-.68M26.416 16.417c0-.127-.308-.23-.688-.23-.38 0-.688.103-.688.23s.308.229.688.229c.38 0 .688-.102.688-.229M25.315 12.273c.148-.773.127-1.425-.048-1.458-.174-.033-.435.564-.583 1.337-.148.772-.127 1.426.048 1.459.174.032.436-.567.583-1.339" fill="#fff100"/><path d="M25.821 12.415c0-.156-.442-.281-.986-.281-.545 0-.988.125-.988.281 0 .155.443.281.988.281.544 0 .986-.126.986-.281M26.046 10.222c.189-.382.24-.744.11-.807-.126-.063-.382.197-.573.578-.188.382-.24.746-.111.807.128.065.385-.196.574-.578M31.477 9.977c-.277-.396-.65-.614-.834-.486-.185.13-.108.554.169.951.277.397.65.615.835.486.183-.128.107-.553-.17-.95M33.756 14.576c.124-.203-.253-.66-.844-1.02-.59-.363-1.17-.49-1.293-.287-.125.204.252.661.842 1.023.59.361 1.17.488 1.295.284M23.643 14.786c.28.662 1.153 1.016 1.73 1.168.576.152.705.325 1.17.692.466.367.355.616.58.45.228-.166.418-.244.2-.553-.22-.31-.984-.966-1.48-1.157-.494-.192-1.468-.6-1.53-.712-.063-.112-.764-.109-.67.112" fill="#fff100"/><path d="M25.88 15.808h4.775v-3.632c0-1.547-2.387-3.154-2.387-3.154s-2.388 1.577-2.388 3.229v3.557z" fill="#4d8fcc"/><path d="M30.355 11.182l-2.06 4.078-2.217-3.83c.558-1.316 2.19-2.408 2.19-2.408s1.452.988 2.087 2.16" fill="#009a67"/><path d="M26.072 11.688l.156-.387 2.068 3.742 2.005-3.71.163.413-2.125 4.062-2.267-4.12zM30.542 15.424c.333-.55.942-.386 1.204-1.312.262-.927.123-1.931-.151-1.137-.275.794-.355 1.24-1.131 1.445-.777.205.078 1.004.078 1.004M25.566 10.627l-.194-1.158 1.044.531-.85.627zM31.1 10.443l-.982-.457 1.079-.648-.096 1.105z" fill="#fff100"/><path d="M29.251 12.187a.187.187 0 0 0-.187-.186h-1.456a.187.187 0 0 0 0 .373h1.456a.187.187 0 0 0 .187-.188" fill="#fff100"/><path d="M28.428 10.262c0-.145-.038-.262-.084-.262h-.154c-.046 0-.084.117-.084.262v2.477c0 .144.038.26.084.26h.154c.046 0 .084-.116.084-.26v-2.477z" fill="#fff100"/><path d="M27.049 11.17l.584-.61-.102-.125.659-.435.9.434-.19.12.652.493-.094-.832-.24.069-.941-.796-.992.84-.19-.02-.046.862z" fill="#fff100"/></g></svg>