<svg xmlns="http://www.w3.org/2000/svg" viewBox="0 0 45 45"><defs><clipPath id="a"><path d="M0 36h36V0H0v36z"/></clipPath></defs><g clip-path="url(#a)" transform="matrix(1.25 0 0 -1.25 0 45)"><path d="M36 4a4 4 0 0 0-4-4H4a4 4 0 0 0-4 4v28a4 4 0 0 0 4 4h28a4 4 0 0 0 4-4V4z" fill="#3b88c3"/><path d="M15.304 18.814l-5.022 6.82c-.31.404-.497.869-.497 1.366 0 1.364 1.023 2.263 2.357 2.263.775 0 1.581-.527 2.015-1.147l3.845-5.457 3.844 5.457c.435.62 1.241 1.147 2.015 1.147 1.334 0 2.358-.9 2.358-2.263 0-.497-.186-.962-.496-1.365L20.7 18.814l6.14-8.248c.247-.341.526-.93.526-1.581 0-1.303-.992-2.17-2.355-2.17-.838 0-1.457.37-1.923 1.022l-5.085 7.07-5.085-7.07c-.465-.651-1.086-1.022-1.923-1.022-1.364 0-2.356.867-2.356 2.17 0 .65.28 1.24.527 1.58l6.14 8.249z" fill="#fff"/></g></svg>