<svg xmlns="http://www.w3.org/2000/svg" viewBox="0 0 45 45"><defs><clipPath id="a"><path d="M0 36h36V0H0v36z"/></clipPath></defs><g clip-path="url(#a)" transform="matrix(1.25 0 0 -1.25 0 45)"><path d="M36 9a4 4 0 0 0-4-4H4a4 4 0 0 0-4 4v18a4 4 0 0 0 4 4h28a4 4 0 0 0 4-4V9z" fill="#ce1126"/><path d="M32 31H4a4 4 0 0 1-4-4v-9h36v9a4 4 0 0 1-4 4" fill="#0038a8"/><path d="M1.313 6.055l17.718 11.88L1.33 29.96A3.973 3.973 0 0 1 0 26.999V9c0-1.17.512-2.213 1.313-2.944" fill="#eee"/><path d="M16.07 19.48l.043-1.153 1.115-.294-1.084-.396.066-1.152-.712.908-1.075-.417.643.957-.73.893 1.11-.316.624.97zM1.603 28.018l.866-.763.98.607-.458-1.059.88-.745-1.148.108-.437-1.066-.251 1.125-1.151.085.993.587-.274 1.121zM2.034 10.805l.574-1 1.124.258-.774-.855.594-.99-1.053.474-.756-.871.123 1.147-1.06.45 1.127.239.101 1.148zM10 18a3 3 0 1 0-6.001 0A3 3 0 0 0 10 18" fill="#fcd116"/><path d="M7.595 23.403l-.158-2.648-.243.036.085 3.074-.279.182-.28-.182.085-3.074-.243-.036-.157 2.648-.353-.219.33-2.696H7.62l.328 2.696-.353.22zM6.405 12.597l.158 2.648.243-.036-.086-3.074.28-.182.28.182-.085 3.074.243.036.157-2.648.353.219-.33 2.697H6.38l-.328-2.697.353-.22zM2.758 14.6l1.984 1.76.147-.195-2.234-2.114.07-.327.325-.068 2.113 2.234.198-.146-1.76-1.986.403-.094 1.675 2.139-.438.439-.439.437-2.139-1.675.095-.403zM11.242 21.4l-1.984-1.761-.147.197 2.234 2.113-.07.327-.325.069-2.113-2.234-.198.146 1.76 1.985-.403.094-1.675-2.14.438-.437.439-.438 2.139 1.675-.095.404zM1.597 18.595l2.649-.158-.037-.243-3.074.086L.953 18l.182-.279 3.074.084.037-.243-2.65-.157.22-.353 2.697.33v1.238l-2.697.328-.22-.353zM12.403 17.405l-2.649.158.037.243 3.074-.085.182.279-.182.28-3.074-.085-.037.243 2.65.157-.22.353-2.697-.328v-1.24l2.697-.328.22.353zM3.6 22.242l1.761-1.984-.198-.146-2.112 2.233-.327-.068-.068-.327 2.233-2.113-.146-.198-1.985 1.76-.095-.403 2.14-1.675.438.438.438.439-1.675 2.139-.404-.095zM10.4 13.758l-1.761 1.985.198.147 2.112-2.234.327.068.068.327-2.233 2.113.146.197 1.985-1.76.094.403-2.14 1.675-.437-.438-.438-.438 1.675-2.14.404.095z" fill="#fcd116"/></g></svg>