<svg xmlns="http://www.w3.org/2000/svg" viewBox="0 0 45 45"><defs><clipPath id="a"><path d="M0 36h36V0H0v36z"/></clipPath><clipPath id="b"><path d="M4 31a4 4 0 0 1-4-4V9a4 4 0 0 1 4-4h28a4 4 0 0 1 4 4v18a4 4 0 0 1-4 4H4z"/></clipPath><clipPath id="c"><path d="M0 36h36V0H0v36z"/></clipPath></defs><g clip-path="url(#a)" transform="matrix(1.25 0 0 -1.25 0 45)"><path d="M36 9a4 4 0 0 0-4-4H4a4 4 0 0 0-4 4v18a4 4 0 0 0 4 4h28a4 4 0 0 0 4-4V9z" fill="#eee"/></g><g clip-path="url(#b)" transform="matrix(1.25 0 0 -1.25 0 45)"><path d="M36 13H0v10h36V13z" fill="#005da4"/><path d="M36 5H0v8h36V5z" fill="#ed1c23"/></g><g clip-path="url(#c)" transform="matrix(1.25 0 0 -1.25 0 45)"><path d="M11.125 28.084c-2.25 0-3.833-.833-3.833-.833s.145-2 .333-5.084c.187-3.083 3.5-4.166 3.5-4.166s3.313 1.083 3.5 4.166c.188 3.084.333 5.084.333 5.084s-1.583.833-3.833.833" fill="#ed1c23"/><path d="M14.592 27.414a9.283 9.283 0 0 1-3.467.67 9.288 9.288 0 0 1-3.467-.67c.012-.21.138-2.503.3-5.164.17-2.791 3.167-3.771 3.167-3.771s2.998.98 3.168 3.77c.162 2.662.288 4.955.299 5.165" fill="#004a77"/><path d="M12.104 20.08c-.354 0-.521-.21-1.042-.21-.52 0-.604.21-.958.21-.268 0-.434-.12-.639-.179.812-.61 1.66-.86 1.66-.86.711.118 1.27.466 1.693.86-.269.058-.444.18-.714.18M10.146 21.463c.333 0 .625-.26.979-.26s.604.26.979.26c.321 0 .743-.42 1.36-.18.278.47.411.843.411.843l-1.25 1.792-.625-.76-.875 1.676-.833-1.676-.604.799s-.542-.643-1.438-1.851c.107-.286.251-.534.407-.766.709-.35 1.187.123 1.489.123M13.104 20.709c-.458 0-.646.26-1 .26s-.521-.26-1.042-.26-.604.26-.958.26-.53-.26-.854-.26c-.117 0-.248.036-.373.085.127-.168.253-.341.39-.483.386.034.673.273.879.273.333 0 .625-.278.979-.278s.604.278.979.278c.231 0 .516-.236.887-.271.11.142.205.283.293.423-.058-.01-.113-.028-.18-.028" fill="#fff"/><path d="M10.318 27.193l.217-.233-.31.072-.093-.304-.093.304-.31-.072.217.233-.217.233.31-.072.093.304.093-.304.31.072-.217-.233zM12.412 27.193l.217-.233-.31.072-.093-.304-.093.304-.31-.072.217.233-.217.233.31-.072.093.304.093-.304.31.072-.217-.233zM11.328 25.797l.217-.233-.31.072-.093-.304-.093.304-.31-.072.217.233-.217.233.31-.072.093.304.093-.304.31.072-.217-.233z" fill="#fd0"/></g></svg>