<svg xmlns="http://www.w3.org/2000/svg" viewBox="0 0 45 45"><defs><clipPath id="a"><path d="M0 36h36V0H0v36z"/></clipPath></defs><g clip-path="url(#a)" transform="matrix(1.25 0 0 -1.25 0 45)"><path d="M0 9a4 4 0 0 1 4-4h28a4 4 0 0 1 4 4v1H0V9z" fill="#377e3f"/><path d="M0 10h36v3H0v-3z" fill="#eee"/><path d="M32 31H4a4 4 0 0 1-4-4v-1h36v1a4 4 0 0 1-4 4" fill="#377e3f"/><path d="M0 23h36v3H0v-3z" fill="#eee"/><path d="M16.832 19.11L18 22.703l1.169-3.593h3.778l-3.057-2.22 1.168-3.594L18 15.517l-3.057-2.22 1.168 3.592-3.057 2.221h3.778zM0 13h36v10H0V13z" fill="#b40a2d"/><path d="M14.944 13.297l3.055 2.22 3.058-2.22-1.168 3.593 3.057 2.22h-3.778L18 22.705l-1.167-3.593h-3.778l3.056-2.221-1.167-3.593z" fill="#ecc81d"/></g></svg>