<svg xmlns="http://www.w3.org/2000/svg" viewBox="0 0 45 45"><defs><clipPath id="a"><path d="M0 36h36V0H0v36z"/></clipPath></defs><g clip-path="url(#a)" transform="matrix(1.25 0 0 -1.25 0 45)"><path d="M36 9a4 4 0 0 0-4-4H4a4 4 0 0 0-4 4v18a4 4 0 0 0 4 4h28a4 4 0 0 0 4-4V9z" fill="#dd2e44"/><path d="M.555 7h34.89c.344.591.555 1.268.555 2H0c0-.732.212-1.409.555-2M36 11H0v2h36v-2zM36 15H0v2h36v-2zM36 19H0v2h36v-2zM36 23H0v2h36v-2zM.555 29A3.965 3.965 0 0 1 0 27h36c0 .732-.211 1.41-.554 2H.555z" fill="#eee"/><path d="M18 31H4a4 4 0 0 1-4-4V17h18v14z" fill="#010066"/><path d="M9.534 18.767a5.233 5.233 0 1 0 2.018 10.062A5.967 5.967 0 0 1 8 29.999a6 6 0 0 1 0-12c1.33 0 2.557.44 3.552 1.173a5.215 5.215 0 0 0-2.018-.405" fill="#ffcc4d"/><path d="M12.922 27.171l.334-1.62 1.003 1.315-.402-1.605 1.475.75-1.058-1.272 1.653.036-1.505-.686 1.505-.687-1.653.036 1.058-1.27-1.475.748.402-1.605-1.003 1.315-.334-1.62-.334 1.62-1.003-1.315.402 1.605-1.475-.749 1.058 1.271-1.653-.036 1.505.687-1.505.686 1.653-.036-1.058 1.271 1.475-.749-.402 1.605 1.003-1.315.334 1.62z" fill="#ffcc4d"/></g></svg>