<svg xmlns="http://www.w3.org/2000/svg" viewBox="0 0 45 45"><defs><clipPath id="a"><path d="M0 36h36V0H0v36z"/></clipPath></defs><g clip-path="url(#a)" transform="matrix(1.25 0 0 -1.25 0 45)"><path d="M36 9a4 4 0 0 0-4-4H4a4 4 0 0 0-4 4v18a4 4 0 0 0 4 4h28a4 4 0 0 0 4-4V9z" fill="#002b7f"/><path d="M36 17H0v2h36v-2z" fill="#ffc61e"/><path d="M9.979 16.521l.492-1.966 1.409 1.457-.556-1.948 1.949.557-1.457-1.41 1.966-.492-1.966-.492 1.457-1.41-1.949.557.556-1.95-1.409 1.458-.492-1.965-.492 1.965-1.409-1.457.556 1.949-1.948-.556 1.456 1.409-1.966.492 1.966.492-1.456 1.41 1.948-.557-.556 1.948 1.409-1.456.492 1.966z" fill="#fff"/></g></svg>