<svg xmlns="http://www.w3.org/2000/svg" viewBox="0 0 45 45"><defs><clipPath id="a"><path d="M0 36h36V0H0v36z"/></clipPath></defs><g clip-path="url(#a)" transform="matrix(1.25 0 0 -1.25 0 45)"><path d="M36 9a4 4 0 0 0-4-4H4a4 4 0 0 0-4 4v18a4 4 0 0 0 4 4h28a4 4 0 0 0 4-4V9z" fill="#21428e"/><path d="M20 5h-4v26h4V5z" fill="#eee"/><path d="M36 16H0v4h36v-4z" fill="#eee"/><path d="M6.655 22.377c.27.311 4.001.453 3.798-.058-.26-.657-4.125-.318-3.798.058m.11 6.654c-.125-.125-.234-.078-.109.078s.234.047.11-.078m4.671-6.28c-.375.666-3.687.936-4.895.332 1.083.937 4.333.25 4.437 1.792.083 1.227-2.229 1.125-3.125 1.354-.895.23-.104.48.583.771.688.292 1.438.562 1.271 1.555-.166.992-1.854.924-2.625.965-.77.042-1.75-.25-1.52-.729-.605-.25-1.313-.208-1.73 0-.005-.166.26-.229.26-.229l-.447-.104c.521-.25 1.604-.125 2.062.104.084-.104.375-.167 1.5-.104 1.125.062 1.25.271 1.521.021.455-.42-.5-.584-1.708-1.02-1.209-.439-.688-1.5-.042-1.834.646-.333 1.292-.305 2.375-.48 1.084-.176.313-.395-.312-.437-.23-.016-2.063-.083-3.042-.604-1.144-.609-.917-1.375-1.02-1.5-.105-.125-1.105-.084-1.876.146.271-.75 1.563-.75 2.021-.77.458-.022.875-1.105 3.646-1.064 2.771.042 3.041 1.167 2.666 1.834M27.488 22.377c.27.311 4.001.453 3.798-.058-.26-.657-4.125-.318-3.798.058m.11 6.654c-.125-.125-.234-.078-.109.078s.234.047.11-.078m4.671-6.28c-.375.666-3.687.936-4.895.332 1.084.937 4.333.25 4.437 1.792.083 1.227-2.229 1.125-3.125 1.354-.895.23-.104.48.583.771.688.292 1.438.562 1.271 1.555-.166.992-1.854.924-2.625.965-.77.042-1.75-.25-1.52-.729-.605-.25-1.313-.208-1.73 0-.005-.166.261-.229.261-.229l-.449-.104c.522-.25 1.605-.125 2.063.104.084-.104.375-.167 1.5-.104 1.125.062 1.25.271 1.521.021.455-.42-.5-.584-1.709-1.02-1.208-.439-.687-1.5-.04-1.834.646-.333 1.29-.305 2.374-.48 1.084-.176.313-.395-.312-.437-.23-.016-2.063-.083-3.042-.604-1.144-.609-.917-1.375-1.02-1.5-.104-.125-1.105-.084-1.876.146.272-.75 1.563-.75 2.021-.77.458-.022.875-1.105 3.645-1.064 2.772.042 3.042 1.167 2.667 1.834M6.655 7.836c.27.31 4.001.453 3.798-.06-.26-.655-4.125-.317-3.798.06m.11 6.653c-.125-.125-.234-.078-.109.078.125.157.234.047.11-.078m4.671-6.281c-.375.667-3.687.938-4.895.333 1.083.938 4.333.25 4.437 1.792.083 1.228-2.229 1.125-3.125 1.355-.895.228-.104.478.583.77.688.292 1.438.563 1.271 1.556-.166.992-1.854.924-2.625.965-.77.04-1.75-.25-1.52-.73-.605-.25-1.313-.208-1.73 0-.005-.166.26-.228.26-.228l-.447-.105c.521-.25 1.604-.125 2.062.105.084-.105.375-.167 1.5-.105 1.125.063 1.25.272 1.521.022.455-.42-.5-.584-1.708-1.022-1.209-.437-.688-1.5-.042-1.833.646-.333 1.292-.304 2.375-.48 1.084-.175.313-.395-.312-.437-.23-.016-2.063-.083-3.042-.603-1.144-.61-.917-1.375-1.02-1.5-.105-.125-1.105-.084-1.876.145.271-.75 1.563-.75 2.021-.77.458-.022.875-1.105 3.646-1.063 2.771.04 3.041 1.166 2.666 1.833M27.488 7.836c.27.31 4.001.453 3.798-.06-.26-.655-4.125-.317-3.798.06m.11 6.653c-.125-.125-.234-.078-.109.078.125.157.234.047.11-.078m4.671-6.281c-.375.667-3.687.938-4.895.333 1.084.938 4.333.25 4.437 1.792.083 1.228-2.229 1.125-3.125 1.355-.895.228-.104.478.583.77.688.292 1.438.563 1.271 1.556-.166.992-1.854.924-2.625.965-.77.04-1.75-.25-1.52-.73-.605-.25-1.313-.208-1.73 0-.005-.166.261-.228.261-.228l-.449-.105c.522-.25 1.605-.125 2.063.105.084-.105.375-.167 1.5-.105 1.125.063 1.25.272 1.521.022.455-.42-.5-.584-1.709-1.022-1.208-.437-.687-1.5-.04-1.833.646-.333 1.29-.304 2.374-.48 1.084-.175.313-.395-.312-.437-.23-.016-2.063-.083-3.042-.603-1.144-.61-.917-1.375-1.02-1.5-.104-.125-1.105-.084-1.876.145.272-.75 1.563-.75 2.021-.77.458-.022.875-1.105 3.645-1.063 2.772.04 3.042 1.166 2.667 1.833" fill="#fff"/></g></svg>