<svg xmlns="http://www.w3.org/2000/svg" viewBox="0 0 45 45"><defs><clipPath id="a"><path d="M0 36h36V0H0v36z"/></clipPath></defs><g clip-path="url(#a)" transform="matrix(1.25 0 0 -1.25 0 45)"><path d="M36 9a4 4 0 0 0-4-4H4a4 4 0 0 0-4 4v18a4 4 0 0 0 4 4h28a4 4 0 0 0 4-4V9z" fill="#060"/><path d="M32 31H15V5h17a4 4 0 0 1 4 4v18a4 4 0 0 1-4 4" fill="#d52b1e"/><path d="M20.287 13.42l-2.933 2.934-.707-.707.47-.472-.395-.592L19.099 13h-3.097V24.92a6.957 6.957 0 0 0 3.498-1.56l-2.657-.886.317-.949 3 1-.103.308c.167-.174.323-.357.47-.548l-2.803-1.87L18 20l-.224-.448L20.882 18l-3.105-1.553.447-.895 3.748 1.874a6.969 6.969 0 0 0-1.685-4.006M14 11.08a6.961 6.961 0 0 0-2.593.92H14v-.92zm-5.972 6.346l3.748-1.874.447.895L9.119 18l2.116 1.058 1.412-1.412.707.707-1.176 1.176.046.023-.447.895-.345-.172-.975.975 1.462-.244.164.987-2.514.42A6.987 6.987 0 0 0 14 24.92V13h-3.1l2.377 1.583-.555.832-3-2 .014-.02a6.964 6.964 0 0 0-1.708 4.031m0 1.147a6.97 6.97 0 0 0 .858 2.833l1.603-1.603-2.461-1.23zM16 12h2.592A6.963 6.963 0 0 0 16 11.08V12zm2.994 8.062l2.089 1.393a6.956 6.956 0 0 0 .888-2.88l-2.977 1.487zM15 26a8 8 0 0 1-8-8 8 8 0 1 1 16 0 8 8 0 0 1-8 8" fill="#ffcc4d"/><path d="M11 23v-7a4 4 0 0 1 8 0v7h-8z" fill="#d52b1e"/><path d="M12 22v-6a3 3 0 0 1 6 0v6h-6z" fill="#fff"/><path d="M17 17h-4v2h4v-2z" fill="#829acd"/><path d="M16 16h-2v4h2v-4z" fill="#829acd"/><path d="M13 17h-1v2h1v-2zM16 17h-2v2h2v-2zM18 17h-1v2h1v-2zM16 14h-2v2h2v-2zM16 22h-2v-2h2v2z" fill="#039"/></g></svg>