<svg xmlns="http://www.w3.org/2000/svg" viewBox="0 0 45 45"><defs><clipPath id="a"><path d="M0 36h36V0H0v36z"/></clipPath></defs><g clip-path="url(#a)" transform="matrix(1.25 0 0 -1.25 0 45)"><path d="M36 9a4 4 0 0 0-4-4H4a4 4 0 0 0-4 4v18a4 4 0 0 0 4 4h28a4 4 0 0 0 4-4V9z" fill="#3e5eb9"/><path d="M36 10H0v16h36V10z" fill="#ffd900"/><path d="M36 11H0v14h36V11z" fill="#b10d0d"/><path d="M27.513 19.221l1.562-.594 1.532.594-1.532.5-1.562-.5z" fill="#fff"/><path d="M28.531 19.2a.281.281 0 0 0-.28-.28H5.78a.281.281 0 0 0 0 .561h22.47a.281.281 0 0 0 .28-.28" fill="#ffd900"/><path d="M28.513 20.221l1.562-.594 1.532.594-1.532.5-1.562-.5z" fill="#fff"/><path d="M29.531 20.2a.281.281 0 0 0-.28-.28H6.78a.281.281 0 0 0 0 .561h22.47a.281.281 0 0 0 .28-.28M33.727 18.008a.422.422 0 0 0-.422-.422H3.149a.422.422 0 0 0 0 .844h30.156a.422.422 0 0 0 .422-.422" fill="#ffd900"/><path d="M27.23 17.969s-4.058-5.49-9.063-5.49c-5.005 0-9.063 5.49-9.063 5.49s4.059 5.49 9.063 5.49c5.004 0 9.062-5.49 9.062-5.49" fill="#fff"/><path d="M18.98 13.646c-.437.207-1.187.457-1.167.644.02.189.583.25 1.105.314.52.062.499.312.354.437-.146.124-.751.291-1.104.5-.355.207-.022.396.296.646s.329.541.329.75c0 .21.249.646.666.916.417.271.02.313-.312.48-.333.167-.313.73-.251 1.146.062.417.041.646-.104.667-.146.02-.23.146-.313.26-.083.115 0 .323-.312.365-.313.04-.293.146-.375.333-.084.188-.355.479-.48.834-.106.298.15.863.828 1.519-4.993-.02-9.036-5.489-9.036-5.489s4.058-5.49 9.063-5.49c.64 0 1.265.092 1.868.25-.142.588-.704.75-1.056.918"/><path d="M12.917 18.479h-.437v1.479h.437v-1.479zM12.917 16.021h-.437V17.5h.437v-1.479zM13.771 18.479h-.437v1.479h.437v-1.479zM13.771 16.021h-.437V17.5h.437v-1.479zM14.625 18.479h-.437v1.479h.437v-1.479zM14.625 16.021h-.437V17.5h.437v-1.479zM15.479 18.479h-.437v1.479h.437v-1.479zM15.479 16.021h-.437V17.5h.437v-1.479zM16.333 18.479h-.437v1.479h.437v-1.479zM16.333 16.021h-.437V17.5h.437v-1.479zM17.187 18.479h-.437v1.479h.437v-1.479zM17.187 16.021h-.437V17.5h.437v-1.479z" fill="#fff"/><path d="M19.667 18.479h-.437v1.479h.437v-1.479zM19.667 16.021h-.437V17.5h.437v-1.479zM20.521 18.479h-.437v1.479h.437v-1.479zM20.521 16.021h-.437V17.5h.437v-1.479zM21.375 18.479h-.437v1.479h.437v-1.479zM21.375 16.021h-.437V17.5h.437v-1.479zM22.229 18.479h-.437v1.479h.437v-1.479zM22.229 16.021h-.437V17.5h.437v-1.479zM23.083 18.479h-.437v1.479h.437v-1.479zM23.083 16.021h-.437V17.5h.437v-1.479zM23.937 18.479H23.5v1.479h.437v-1.479zM23.937 16.021H23.5V17.5h.437v-1.479z"/><path d="M15.156 22.406c-.4-.265-1.219-1.078-1.266-1.672a.806.806 0 0 0 .375.188s-.234-.328-.203-.735a.948.948 0 0 0 .282.22s.083-.376.39-.767c.156.094.203.25.203.25s.094-.328.422-.578c.12.031.12.172.12.172s.193-.406.99-.578c-.14.266.312.635.14 1.052.14-.083.281-.286.281-.286s.14.203-.14.578c.172-.157.265-.292.265-.292s.11.651-.266 1.057c.235-.093.438-.203.438-.203s-.039.787-.625 1.141c-.75.453-1.406.125-1.406.453M4.156 18.094s.36-.328-.14-.375c-.5-.047-.907-.641-.89-1.234l.264.125s-.078-.407.047-.672c.11.265.266.25.266.25s.031-.391.094-.688c.125.156.11.328.11.328s.187-.062.28-.328c.094-.265.141-.47.36-.594.093.047.14.172.14.172s.188-.156.485-.281c-.063.422.343.375.515.672.063-.078.078-.234.078-.234s.125.234.125.468a.78.78 0 0 0 .141.422s.016-.11 0-.281c.141.078.172.969.11 1.25.093-.078.171-.25.171-.25s.11.453 0 .742c-.109.289-.422.524-.812.383-.39-.141-.969.234-.969.234s.094-.234-.03-.312c-.126-.078-.017.125-.345.203M31.547 18.25s-.312-.109-.812-.578-.657-1.266-.657-1.266.282.235.39.266c-.265-.61.25-.891.173-1.375.203.031.39.39.39.39s.375-.671.907-1.046c.125.359.484.656.484.656l.078-.203.219.547.156-.266s.14.307 0 .646c.02-.061.234-.224.234-.224v.75s.125-.234.219-.297c0 .328-.187.563-.11.703l.11-.193s.094.521-.453.928c-.547.406-1.057.375-1.17.32-.111-.055-.158.242-.158.242" fill="#3d5da7"/><path d="M14.86 21.422c.29.088.186-.844-.157-1.22.187.642-.203 1.11.156 1.22M15.54 21.688c.068.24.568-.391 1.21-.422-.563-.094-1.297.125-1.21.422M15.344 20.719c.17.079.219-.86 0-1.125.03.469-.234 1.016 0 1.125M15.969 20.953c-.217-.059.42-.578.78-.547-.337.064-.436.641-.78.547M15.844 19.958c-.226 0 0-.599.406-.739-.14.218-.041.739-.406.739M4.234 17.39c.206 0-.062-.702-.5-.983.234.343.203.984.5.984M4.906 17.5c-.167-.128.297-.7.828-.74-.344.24-.625.896-.828.74M4.406 16.594c.124.02.148-.653-.203-.828.187.437.016.797.203.828M5 16.594c.207.127.31-.402.609-.573-.5.12-.812.448-.609.573M4.743 16.094c.207.09.319-.66 0-.875.117.484-.18.797 0 .875M31.156 16.76c.216.006-.172-.635-.5-.807.313.469.266.8.5.807M31.938 17.094c-.161-.111.297-.422.516-.422-.272.084-.314.563-.517.422M31.375 16.02c.165.126.234-.286 0-.583.143.303-.219.416 0 .583M32.047 16.445c-.171-.069.156-.555.406-.586-.273.168-.156.688-.406.586M31.813 15.953c.142.107.432-.594.09-.953.163.52-.36.75-.09.953" fill="#a70000"/></g></svg>