<svg xmlns="http://www.w3.org/2000/svg" viewBox="0 0 45 45"><defs><clipPath id="a"><path d="M0 36h36V0H0v36z"/></clipPath></defs><g clip-path="url(#a)" transform="matrix(1.25 0 0 -1.25 0 45)"><path d="M36 4a4 4 0 0 0-4-4H4a4 4 0 0 0-4 4v28a4 4 0 0 0 4 4h28a4 4 0 0 0 4-4V4z" fill="#3b88c3"/><path d="M24.125 26.348c0-1.21-.806-2.294-2.076-2.294-1.272 0-2.264.93-4.125.93-1.333 0-2.542-.713-2.542-2.016 0-3.193 10.356-1.147 10.356-9.146 0-4.434-3.659-7.194-7.938-7.194-2.387 0-7.534.558-7.534 3.473 0 1.209.806 2.2 2.077 2.2 1.457 0 3.194-1.208 5.209-1.208 2.047 0 3.163 1.148 3.163 2.667 0 3.658-10.356 1.457-10.356 8.65 0 4.34 3.565 7.039 7.689 7.039 1.737 0 6.077-.652 6.077-3.101" fill="#fff"/></g></svg>