<svg xmlns="http://www.w3.org/2000/svg" viewBox="0 0 45 45"><defs><clipPath id="a"><path d="M4 31a4 4 0 0 1-4-4V9a4 4 0 0 1 4-4h28a4 4 0 0 1 4 4v18a4 4 0 0 1-4 4H4z"/></clipPath></defs><g clip-path="url(#a)" transform="matrix(1.25 0 0 -1.25 0 45)"><path d="M21.68 12.936L18 15.61l-3.679-2.673 1.405 4.325-3.679 2.673h4.548L18 24.26l1.405-4.325h4.548l-3.679-2.673 1.405-4.325zM0 5h36v26H0V5z" fill="#4189dd"/><path d="M19.405 19.934L18 24.26l-1.406-4.325h-4.547l3.68-2.673-1.406-4.325 3.68 2.673 3.678-2.673-1.405 4.325 3.68 2.673h-4.549z" fill="#fff"/></g></svg>