<svg xmlns="http://www.w3.org/2000/svg" viewBox="0 0 45 45"><defs><clipPath id="a"><path d="M0 36h36V0H0v36z"/></clipPath></defs><g clip-path="url(#a)" transform="matrix(1.25 0 0 -1.25 0 45)"><path d="M36 4a4 4 0 0 0-4-4H4a4 4 0 0 0-4 4v28a4 4 0 0 0 4 4h28a4 4 0 0 0 4-4V4z" fill="#3b88c3"/><path d="M9.925 26.968c0 1.27.93 2.294 2.325 2.294 1.333 0 2.325-.868 2.325-2.294V20.27l7.628 8.123c.342.372.93.868 1.8.868 1.176 0 2.294-.898 2.294-2.232 0-.806-.496-1.457-1.52-2.48l-5.86-5.768 7.161-7.472c.744-.744 1.303-1.426 1.303-2.357 0-1.457-1.147-2.138-2.418-2.138-.899 0-1.489.526-2.357 1.457l-8.03 8.68V9.048c0-1.21-.93-2.232-2.326-2.232-1.333 0-2.325.867-2.325 2.232v17.92z" fill="#fff"/></g></svg>