<svg xmlns="http://www.w3.org/2000/svg" viewBox="0 0 45 45"><defs><clipPath id="a"><path d="M0 36h36V0H0v36z"/></clipPath><clipPath id="b"><path d="M4 31a4 4 0 0 1-4-4v-9h19v13H4z"/></clipPath><clipPath id="c"><path d="M0 36h36V0H0v36z"/></clipPath></defs><g clip-path="url(#a)" transform="matrix(1.25 0 0 -1.25 0 45)"><path d="M36 9a4 4 0 0 0-4-4H4a4 4 0 0 0-4 4v18a4 4 0 0 0 4 4h28a4 4 0 0 0 4-4V9z" fill="#00247d"/><path d="M26.917 24.354h-5.042v-9.229c0-1.522 5.042-3.708 5.042-3.708s5.042 2.186 5.042 3.708v9.229h-5.042z" fill="#fff"/><path d="M26.917 11.963c-2.23.995-4.542 2.47-4.542 3.162v8.729h9.084v-8.73c0-.692-2.312-2.167-4.542-3.161" fill="#006129"/><path d="M25.078 18.11c-.204-.08-.266.468 0 .858.266.391 1.047 1.188 1.22 1.922.171.735.473.625.62.828.144.204.166.438 0 .485-.168.047-.403.11-.246.718.156.61.828.547.828.125 0-.42-.156-.796 0-1.124.156-.329.516-.25.734-.875.22-.625.297-1.235.157-1.5-.14-.266-.219-1.282-.407-1.547-.187-.266-.437-.157-.39.328.047.484.36 1.14.453 1.484.094.344-.14 1.047-.485 1.125-.343.078-.968-.719-1.25-1.047-.28-.328-.89-.578-.922-.844-.03-.265-.109-.859-.312-.937" fill="#ffc6b5"/><path d="M28.766 14.125c-.36-.078-1.156-.375-1.594-.266-.437.11-1.22-.171-1.328-.023-.11.148.109.961.14 1.336.032.375.079.75.016.75-.062 0-.326 0-.186.672.139.672.374 1.906.374 1.906s-.235.094-.094.469c.14.375.313 1.265.266 1.468-.047.204-.391.141-.266.454.125.312.219.375.313.609.093.234.286.419.422.359.135-.059.289-.234.44-.14.153.093.169.234.372.218.203-.015.638-.423.547-.515-.091-.092-.256-.41-.284-.807-.03-.396-.28-1.365-.357-1.678-.078-.312.266-1.062.453-1.765.188-.703.766-3.047.766-3.047" fill="#fff"/><path d="M26.682 23.372c.09.24.537.44.912.144.375-.297.53-.844.266-1.172-.266-.328-.42-.25-.523 0-.102.25.007.474-.134.549-.14.076-.015.295-.14.342-.125.047-.512-.21-.381.137" fill="#9c5100"/><path d="M23.114 23.516c-.064.07-.223-.22-.16-.423.062-.204.046-.395.17-.365.122.03.092.209.173.35.062.11-.188.079-.11.204l-.073.234z" fill="red"/><path d="M22.86 22.797h.827s.11.375.281.39c.172.016.22-.374.22-.374s.39-.094.562.015c.172.11.593-.015.265-.203-.328-.187-.14.203-.328 0-.187-.203-.359-.281-.328-.36.031-.077-.098-.14-.36-.14-.265 0-.437.063-.406.188.032.125-.172.172-.406.218-.234.047-.328.266-.328.266" fill="#f8c600"/><path d="M23.114 21.928c-.064.07-.223-.22-.16-.423.062-.204.046-.395.17-.365.122.03.092.209.173.35.062.11-.188.079-.11.204l-.073.234z" fill="red"/><path d="M22.86 21.209h.827s.11.375.281.391c.172.015.22-.375.22-.375s.39-.094.562.015c.172.11.593-.015.265-.203-.328-.187-.14.203-.328 0-.187-.203-.359-.281-.328-.359.031-.078-.098-.14-.36-.14-.265 0-.437.062-.406.187.032.125-.172.172-.406.218-.234.047-.328.266-.328.266" fill="#f8c600"/><path d="M23.114 20.162c-.064.07-.223-.22-.16-.423.062-.204.046-.395.17-.365.122.031.092.21.173.351.062.11-.188.078-.11.203l-.073.234z" fill="red"/><path d="M22.86 19.443h.827s.11.375.281.391c.172.015.22-.375.22-.375s.39-.094.562.015c.172.11.593-.015.265-.203-.328-.187-.14.203-.328 0-.187-.203-.359-.28-.328-.359.031-.078-.098-.14-.36-.14-.265 0-.437.062-.406.187.032.125-.172.172-.406.218-.234.047-.328.266-.328.266" fill="#f8c600"/><path d="M24.114 18.443c-.064.07-.223-.22-.16-.423.062-.204.046-.395.17-.365.122.031.092.21.173.351.062.11-.188.078-.11.203l-.073.234z" fill="red"/><path d="M23.86 17.725h.827s.11.375.281.39c.172.016.22-.374.22-.374s.39-.094.562.015c.172.11.593-.015.265-.203-.328-.187-.14.203-.328 0-.187-.203-.359-.281-.328-.36.031-.077-.098-.14-.36-.14-.265 0-.437.063-.406.188.032.125-.172.172-.406.218-.234.047-.328.266-.328.266" fill="#f8c600"/><path d="M23.056 17.043c-.063.07-.223-.22-.16-.424.062-.203.046-.394.169-.363.123.03.093.208.174.35.062.109-.188.078-.11.203l-.073.234z" fill="red"/><path d="M22.8 16.324h.829s.109.375.28.391c.173.015.22-.375.22-.375s.39-.094.563.015c.172.11.593-.015.265-.203-.328-.187-.14.203-.328 0-.187-.203-.36-.28-.328-.359.03-.078-.098-.14-.361-.14-.264 0-.436.062-.405.187.032.125-.172.172-.406.218-.234.047-.328.266-.328.266" fill="#f8c600"/><path d="M23.056 15.371c-.063.07-.223-.22-.16-.424.062-.203.046-.394.169-.363.123.03.093.208.174.35.062.11-.188.078-.11.203l-.073.234z" fill="red"/><path d="M22.8 14.652h.829s.109.375.28.391c.173.015.22-.375.22-.375s.39-.094.563.015c.172.11.593-.015.265-.203-.328-.187-.14.203-.328 0-.187-.203-.36-.28-.328-.359.03-.078-.098-.14-.361-.14-.264 0-.436.062-.405.187.032.125-.172.172-.406.218-.234.047-.328.266-.328.266" fill="#f8c600"/><path d="M29.02 15.371c-.064.07-.223-.22-.16-.424.062-.203.046-.394.17-.363.122.03.092.208.173.35.062.11-.188.078-.11.203l-.073.234z" fill="red"/><path d="M28.766 14.652h.828s.109.375.28.391c.173.015.22-.375.22-.375s.39-.094.563.015c.172.11.593-.015.265-.203-.328-.187-.14.203-.328 0-.187-.203-.36-.28-.328-.359.03-.078-.098-.14-.361-.14-.264 0-.436.062-.405.187.032.125-.172.172-.406.218-.234.047-.328.266-.328.266" fill="#f8c600"/><path d="M29.02 16.941c-.064.07-.223-.22-.16-.424.062-.203.046-.394.17-.363.122.03.092.208.173.35.062.11-.188.078-.11.203l-.073.234z" fill="red"/><path d="M28.766 16.223h.828s.109.375.28.39c.173.016.22-.374.22-.374s.39-.094.563.015c.172.11.593-.015.265-.203-.328-.187-.14.203-.328 0-.187-.203-.36-.281-.328-.36.03-.077-.098-.14-.361-.14-.264 0-.436.063-.405.188.032.125-.172.172-.406.218-.234.047-.328.266-.328.266" fill="#f8c600"/><path d="M29.02 18.548c-.064.07-.223-.22-.16-.424.062-.203.046-.394.17-.363.122.03.092.208.173.35.062.11-.188.078-.11.203l-.073.234z" fill="red"/><path d="M28.766 17.83h.828s.109.375.28.39c.173.016.22-.374.22-.374s.39-.094.563.015c.172.11.593-.015.265-.203-.328-.187-.14.203-.328 0-.187-.203-.36-.281-.328-.36.03-.077-.098-.14-.361-.14-.264 0-.436.063-.405.188.032.125-.172.172-.406.218-.234.047-.328.266-.328.266" fill="#f8c600"/><path d="M29.02 20.162c-.064.07-.223-.22-.16-.424.062-.203.046-.394.17-.363.122.03.092.208.173.35.062.11-.188.078-.11.203l-.073.234z" fill="red"/><path d="M28.766 19.443h.828s.109.375.28.391c.173.015.22-.375.22-.375s.39-.094.563.015c.172.11.593-.015.265-.203-.328-.187-.14.203-.328 0-.187-.203-.36-.28-.328-.359.03-.078-.098-.14-.361-.14-.264 0-.436.062-.405.187.032.125-.172.172-.406.218-.234.047-.328.266-.328.266" fill="#f8c600"/><path d="M29.02 21.826c-.064.07-.223-.22-.16-.424.062-.203.046-.394.17-.363.122.03.092.208.173.35.062.11-.188.078-.11.203l-.073.234z" fill="red"/><path d="M28.766 21.107h.828s.109.375.28.391c.173.015.22-.375.22-.375s.39-.094.563.015c.172.11.593-.015.265-.203-.328-.187-.14.203-.328 0-.187-.203-.36-.28-.328-.359.03-.078-.098-.14-.361-.14-.264 0-.436.062-.405.187.032.125-.172.172-.406.218-.234.047-.328.266-.328.266" fill="#f8c600"/><path d="M29.02 23.516c-.064.07-.223-.22-.16-.424.062-.203.046-.394.17-.363.122.03.092.208.173.35.062.109-.188.078-.11.203l-.073.234z" fill="red"/><path d="M26.917 9.531c-1.804 0-3.495.668-5.156 2.04-.175-.143-.398-.262-.658-.262a.825.825 0 0 0-.533.198c-.38.316-.609.778-.586 1.177a.84.84 0 0 0 .384.672c.281.184.694.577.766.694.282.468.605.566.827.566.162 0 .402-.054.622-.31.019-.02 2.067-2.197 4.334-2.197 2.267 0 4.315 2.176 4.334 2.197.22.256.46.31.622.31.222 0 .545-.098.827-.566.071-.117.485-.51.766-.694a.84.84 0 0 0 .384-.672c.023-.399-.206-.86-.586-1.177a.825.825 0 0 0-.534-.198c-.259 0-.482.12-.657.262-1.661-1.372-3.352-2.04-5.156-2.04" fill="#fff"/><path d="M28.766 22.797h.828s.109.375.28.39c.173.016.22-.374.22-.374s.39-.094.563.015c.172.11.593-.015.265-.203-.328-.187-.14.203-.328 0-.187-.203-.36-.281-.328-.36.03-.077-.098-.14-.361-.14-.264 0-.436.063-.405.188.032.125-.172.172-.406.218-.234.047-.328.266-.328.266M33.193 12.938c-.312.202-.797.645-.922.854-.125.208-.375.5-.64.19-.266-.31-2.38-2.372-4.714-2.372-2.333 0-4.449 2.062-4.714 2.372-.266.31-.516.018-.64-.19-.126-.208-.61-.651-.923-.854-.312-.204-.125-.735.25-1.048.375-.312.828.375.828.375 1.297-1.156 2.985-2.234 5.2-2.234 2.213 0 3.9 1.078 5.197 2.234 0 0 .453-.687.828-.375.375.313.562.844.25 1.047" fill="#f8c600"/><path d="M19 31H4a4 4 0 0 1-4-4v-9h19v13z" fill="#00247d"/><path d="M19 18v2.029L11.9 25H6.671l9.997-7H19z" fill="#eee"/><path d="M19 19.418L11.029 25H9.286L19 18.198v1.22z" fill="#cf1b2b"/><path d="M8.1 25L0 19.234V18h3.332l9.998 7H8.1z" fill="#eee"/><path d="M10.714 25l-9.98-7H2.46l9.998 7h-1.744z" fill="#cf1b2b"/><path d="M16.669 31l-9.997-7H11.9L19 28.971V31h-2.331z" fill="#eee"/><path d="M17.54 31l-9.997-7h1.743L19 30.802V31h-1.46z" fill="#cf1b2b"/></g><g clip-path="url(#b)" transform="matrix(1.25 0 0 -1.25 0 45)"><path d="M10 24h3.328l-9.996 7H1l-.625-1.594L10 22.669V24z" fill="#eee"/><path d="M10 24h.714L1 30.802l-.5-.865 9.5-6.659V24z" fill="#cf1b2b"/></g><g clip-path="url(#c)" transform="matrix(1.25 0 0 -1.25 0 45)"><path d="M19 27h-7v4H7v-4H0v-5h7v-4h5v4h7v5z" fill="#eee"/><path d="M11 18H8v13h3V18z" fill="#cf1b2b"/><path d="M19 23H0v3h19v-3z" fill="#cf1b2b"/></g></svg>