<svg xmlns="http://www.w3.org/2000/svg" viewBox="0 0 45 45"><defs><clipPath id="a"><path d="M0 36h36V0H0v36z"/></clipPath></defs><g clip-path="url(#a)" transform="matrix(1.25 0 0 -1.25 0 45)"><path d="M36 9a4 4 0 0 0-4-4H4a4 4 0 0 0-4 4v18a4 4 0 0 0 4 4h28a4 4 0 0 0 4-4V9z" fill="#eee"/><path d="M36 18v9a4 4 0 0 1-4 4H4a4 4 0 0 1-4-4v-9h36z" fill="#ed2939"/><path d="M6 24.5c0 2.585 1.624 4.748 3.81 5.336A5.498 5.498 0 0 1 8.5 30a5.5 5.5 0 1 1 0-11c.452 0 .889.061 1.31.164C7.624 19.752 6 21.915 6 24.5" fill="#fff"/><path d="M12 29l.225-.691h.726l-.588-.427.225-.691-.588.427-.588-.427.225.691-.588.427h.726L12 29zM10 22l.225-.691h.726l-.588-.427.225-.691-.588.427-.588-.427.225.691-.588.427h.726L10 22zM14 22l.225-.691h.726l-.588-.427.225-.691-.588.427-.588-.427.225.691-.588.427h.726L14 22zM9 26l.225-.691h.726l-.588-.427.225-.691-.588.427-.588-.427.225.691-.588.427h.726L9 26zM15 26l.225-.691h.726l-.588-.427.225-.691-.588.427-.588-.427.225.691-.588.427h.726L15 26z" fill="#eee"/></g></svg>