<svg xmlns="http://www.w3.org/2000/svg" viewBox="0 0 45 45"><defs><clipPath id="a"><path d="M0 36h36V0H0v36z"/></clipPath><clipPath id="b"><path d="M0 36h36V0H0v36z"/></clipPath></defs><g clip-path="url(#a)" transform="matrix(1.25 0 0 -1.25 0 45)"><path d="M36 9a4 4 0 0 0-4-4H4a4 4 0 0 0-4 4v18a4 4 0 0 0 4 4h28a4 4 0 0 0 4-4V9z" fill="#eee"/></g><text style="-inkscape-font-specification:Helvetica" transform="matrix(1.25 0 0 1.25 10.6 13.75)" font-weight="400" font-size="4" font-family="Helvetica" fill="#d42e11"><tspan y="0" x="0 3.7320001 6.1040001 8.7720003 11.884 14.488 17.172001">MAYOTTE</tspan></text><g clip-path="url(#b)" transform="matrix(1.25 0 0 -1.25 0 45)"><path d="M13.278 22.664v-8.449c0-1.104.618-2 1.722-2H16.999c1 0 1-1 1-1s0 1 1 1h2c1.106 0 1.702.896 1.702 2v8.449h-9.423z" fill="none" stroke="#231f20" stroke-width=".25" stroke-linecap="round" stroke-linejoin="round" stroke-miterlimit="10"/><path d="M20.5 19.475a.988.988 0 0 0-1-.975.988.988 0 0 0-1.001.975c0 .538.448.975 1.001.975.552 0 1-.437 1-.975" fill="#269"/><path d="M20.5 17.975a.988.988 0 0 0-1-.975.988.988 0 0 0-1.001.975c0 .538.448.975 1.001.975.552 0 1-.437 1-.975" fill="#269"/><path d="M19 19.475a.988.988 0 0 0-1-.975.988.988 0 0 0-1.001.975c0 .538.448.975 1.001.975.552 0 1-.437 1-.975" fill="#269"/><path d="M19 17.975A.988.988 0 0 0 18 17a.988.988 0 0 0-1.001.975c0 .538.448.975 1.001.975.552 0 1-.437 1-.975" fill="#269"/><path d="M17.5 19.475a.988.988 0 0 0-1-.975.988.988 0 0 0-1.001.975c0 .538.448.975 1.001.975.552 0 1-.437 1-.975" fill="#269"/><path d="M17.5 17.975a.988.988 0 0 0-1-.975.988.988 0 0 0-1.001.975c0 .538.448.975 1.001.975.552 0 1-.437 1-.975" fill="#269"/><path d="M22 19.475a.95.95 0 0 1-.386.75.95.95 0 0 1 .386.75.988.988 0 0 1-1 .975c-.294 0-.552-.13-.735-.325A.983.983 0 0 1 19.5 22a.992.992 0 0 1-.752-.354A.982.982 0 0 1 18 22a.983.983 0 0 1-.75-.356.986.986 0 0 1-.75.356.983.983 0 0 1-.75-.356A.986.986 0 0 1 15 22a1 1 0 0 1-1-1 .99.99 0 0 1 .356-.75.986.986 0 0 1-.356-.75.99.99 0 0 1 .356-.75A.986.986 0 0 1 14 18c0-.552.447-1.25 1-1.25.366 0 .672.25.847.25h4.297c.172 0 .484-.25.856-.25.552 0 1 .562 1 1.1 0 .308-.156.634-.386.813.23.178.386.504.386.812" fill="#171796"/><path d="M22 16.975c0 .194-.06.374-.16.525h-7.681a.948.948 0 0 1-.16-.525.96.96 0 0 1 .369-.75.96.96 0 0 1-.369-.75.96.96 0 0 1 .369-.75.96.96 0 0 1-.369-.75A.988.988 0 0 1 15 13c.3 0 .566.132.75.336a1.004 1.004 0 0 1 1.5 0 1.004 1.004 0 0 1 1.5 0 1.004 1.004 0 0 1 1.5 0c.183-.204.449-.336.75-.336.552 0 1 .437 1 .975a.957.957 0 0 1-.369.75.957.957 0 0 1 .369.75.957.957 0 0 1-.369.75.957.957 0 0 1 .369.75" fill="#d42e11"/><path d="M18 19c-.931 0-1.706.639-1.93 1.5A2.011 2.011 0 0 1 16 20a2 2 0 0 1 4 0c0 .174-.029.339-.071.5A1.995 1.995 0 0 0 18 19" fill="#eee"/><path d="M16.87 15.373a1.502 1.502 0 0 1-.286.127c.09.029.184.069.285.127.287.165.475.377.42.473-.056.095-.333.039-.62-.127a1.454 1.454 0 0 1-.252-.184c.02.092.033.194.033.311 0 .332-.09.6-.2.6-.11 0-.2-.268-.2-.6 0-.117.014-.219.033-.311a1.52 1.52 0 0 1-.253.184c-.287.166-.565.222-.62.127-.055-.096.133-.307.42-.473.101-.058.197-.098.286-.127a1.508 1.508 0 0 1-.286-.127c-.287-.166-.475-.378-.42-.473.055-.095.333-.039.62.127.101.058.183.122.253.184a1.514 1.514 0 0 1-.033-.311c0-.332.09-.6.2-.6.11 0 .2.268.2.6 0 .117-.014.219-.033.311.07-.063.152-.126.252-.185.287-.165.564-.221.62-.126.055.096-.133.308-.42.473M20.37 15.373c-.1.058-.197.098-.286.127.09.029.185.069.285.127.287.165.475.377.42.473-.056.095-.333.039-.62-.127a1.494 1.494 0 0 1-.252-.184c.02.092.033.195.033.311 0 .332-.09.6-.2.6-.11 0-.2-.268-.2-.6 0-.117.014-.219.033-.311a1.52 1.52 0 0 1-.253.184c-.287.166-.565.222-.62.127-.055-.096.133-.307.42-.473.101-.058.196-.098.286-.127a1.481 1.481 0 0 1-.286-.127c-.287-.166-.475-.378-.42-.473.055-.095.333-.039.62.127.101.058.183.122.253.184a1.514 1.514 0 0 1-.033-.311c0-.332.09-.6.2-.6.11 0 .2.268.2.6 0 .116-.014.218-.033.31.07-.062.152-.125.252-.184.287-.165.564-.221.62-.126.056.096-.133.308-.42.473" fill="#ffac33"/><path d="M9.18 7.342s2.398 1.298 3.168 1.473c.77.176 1.65.198 1.299-.33-.353-.527.065-1.165-.485-1.1-.55.067-1.803-.505-2.265-.704a21.846 21.846 0 0 1-1.145-.55L9.18 7.34z" fill="#ccd6dd"/><path d="M13.998 8.155c-.132.33-.306.66-.306.66s-.085-.2-.386-.338c-.262-.119-.521-.33-.451-.476.096-.205 1.143.154 1.143.154" fill="#66757f"/><path d="M27.154 7.342s-2.397 1.298-3.169 1.473c-.769.176-1.649.198-1.298-.33.354-.527-.065-1.165.486-1.1.55.067 1.802-.505 2.265-.704.462-.197 1.145-.55 1.145-.55l.571 1.21z" fill="#ccd6dd"/><path d="M22.336 8.155c.132.33.306.66.306.66s.086-.2.387-.338c.262-.119.52-.33.45-.476-.095-.205-1.143.154-1.143.154" fill="#66757f"/><path d="M21.963 8.661c-.595.198-2.222.31-2.751.31h-2.09c-.528 0-2.155-.112-2.75-.31-.594-.198-1.108-.672-1.517-.66.03-.125.065-.285.219-.77.154-.484.573-.462 1.056-.22.484.243 1.188.396 1.849.396h4.377c.66 0 1.365-.153 1.848-.396.484-.242.902-.264 1.057.22.153.485.188.645.219.77-.411-.012-.924.462-1.517.66" fill="#ccd6dd"/><path d="M17.314 7.681h-1.729V8.5h1.729v-.819zM21.127 7.681h-2.949V8.5h2.949v-.819z" fill="#99aab5"/><path d="M6.464 23.125l.99-.25.833.667s1 .375 1.542.083c.54-.292.083-.25-.417-.375s-.607-.622-.48-.812c.188-.282.76-.305.688.125-.031.187.792-.23.709-.688l-.084-.458s-.041-1.042.625-1.25c.667-.209.594-.834-.031-.792-.625.042-1.677.833-1.677.833s-.542-.375-.667-.125c0 0-1.291.292-1.125 1.459 0 0-.406-1.292.406-1.73 1.17-.63 1.316-.195 2.303-.979 1.166-.927 2.083-2.645 1.79-5.021-.291-2.375-.957-3.968-3.624-3.968-1.562 0-2.406 1.167-2.406 2.312 0 1.146 1.03 1.844 1.687 1.844.782 0 1.032-.75.938-.938-.314-.627-.615-.194-.375.094.156.188-.157.485-.531.469-.75-.031-1.156-.76-1.156-1.469 0-.709.802-1.781 1.802-1.781s2.125.916 2.125 2.333c0 1.417-.584 2.333-1.542 3.125l-.48-.927s-1.833.261-2.874 1.344c-1.042 1.083-.941 2.463-.75 2.313.437-.344 1.479-.396 1.479-.396s-.416.874-.708 1.041c-.292.167-.886 1.063-.427 2.105.458 1.041 1.135 1.353 1.302 1.02.166-.333.604-.103.479.23s-.344.562-.344.562" fill="#ccd6dd"/><path d="M5.933 18.594c.594-.812 1.28-1.875 2.28-2.406 1-.532 2.157-1.906 2.157-3.281 0-1.375-.926-2.532-2.166-2.532-1.24 0-1.834 1.157-1.834 1.907s.657 1.156.657 1.156-.72-.156-.875-1.094c-.14-.832.656-2.188 1.969-2.188 1.937 0 2.656 1.313 2.656 2.75 0 1.438-1.25 3-2.094 3.844-.844.844-2 1.813-2.531 2.375-.531.563-.22-.531-.22-.531" fill="#99aab5"/><path d="M29.479 23.125l-.99-.25-.834.667s-1 .375-1.54.083c-.542-.292-.084-.25.416-.375s.607-.622.479-.812c-.188-.282-.759-.305-.688.125.031.187-.792-.23-.708-.688l.083-.458s.042-1.042-.625-1.25c-.667-.209-.594-.834.031-.792.625.042 1.677.833 1.677.833s.542-.375.667-.125c0 0 1.292.292 1.125 1.459 0 0 .406-1.292-.406-1.73-1.17-.63-1.316-.195-2.302-.979-1.167-.927-2.084-2.645-1.792-5.021.292-2.375.958-3.968 3.625-3.968 1.562 0 2.406 1.167 2.406 2.312 0 1.146-1.03 1.844-1.687 1.844-.782 0-1.032-.75-.938-.938.314-.627.615-.194.375.094-.156.188.157.485.531.469.75-.031 1.156-.76 1.156-1.469 0-.709-.8-1.781-1.8-1.781s-2.126.916-2.126 2.333c0 1.417.584 2.333 1.541 3.125l.48-.927s1.832.261 2.874 1.344c1.042 1.083.941 2.463.75 2.313-.437-.344-1.479-.396-1.479-.396s.416.874.71 1.041c.29.167.884 1.063.425 2.105-.457 1.041-1.135 1.353-1.3 1.02-.168-.333-.606-.103-.48.23.124.333.343.562.343.562" fill="#ccd6dd"/><path d="M30.01 18.594c-.594-.812-1.281-1.875-2.281-2.406-1-.532-2.156-1.906-2.156-3.281 0-1.375.926-2.532 2.167-2.532 1.239 0 1.833 1.157 1.833 1.907s-.657 1.156-.657 1.156.719-.156.875-1.094c.139-.832-.656-2.188-1.97-2.188-1.936 0-2.655 1.313-2.655 2.75 0 1.438 1.25 3 2.094 3.844.844.844 2 1.813 2.53 2.375.532.563.22-.531.22-.531" fill="#99aab5"/></g></svg>