<svg xmlns="http://www.w3.org/2000/svg" viewBox="0 0 45 45"><defs><clipPath id="a"><path d="M0 36h36V0H0v36z"/></clipPath></defs><g clip-path="url(#a)" transform="matrix(1.25 0 0 -1.25 0 45)"><path d="M36 9a4 4 0 0 0-4-4H4a4 4 0 0 0-4 4v18a4 4 0 0 0 4 4h28a4 4 0 0 0 4-4V9z" fill="#009543"/><path d="M36 13H0v10h36V13z" fill="#ed4135"/><path d="M32 31H4a4 4 0 0 1-4-4v-4h36v4a4 4 0 0 1-4 4" fill="#0035ad"/><path d="M22.402 18A9.402 9.402 0 0 0 13 8.598c-5.193 0-9.403 4.21-9.403 9.402 0 5.193 4.21 9.402 9.403 9.402A9.401 9.401 0 0 0 22.402 18" fill="#141414"/><path d="M22 18a9 9 0 0 0-9-9 9 9 0 0 0-9 9 9 9 0 0 0 9 9 9 9 0 0 0 9-9" fill="#fae600"/><path d="M13.192 9.008h-.322v17.984h.322V9.008z" fill="#141414"/><path d="M14.25 21.281a1.22 1.22 0 1 0-2.439 0 1.22 1.22 0 0 0 2.439 0M14.031 13.734c0-.786-.448-1.422-1-1.422s-1 .636-1 1.422c0 .786.448 1.422 1 1.422s1-.636 1-1.422M14.25 17.719c0-.406-.546-.734-1.219-.734s-1.219.328-1.219.734c0 .406.546.734 1.219.734s1.219-.328 1.219-.734M11.688 23s-.126.875.124 1.25.907.719 1.438.844c.531.125 1.25.906 1.25.906s-.094-1.156-.969-1.875C12.656 23.406 11.688 23 11.688 23M10.922 21.224s.484-.312.609-.781c.125-.47.469-.97 1.469-.97v-.562s-.844-.062-1.312.125c-.47.188-.594 1.063-.594 1.376 0 .312-.172.812-.172.812" fill="#141414"/><path d="M15.11 21.224s-.485-.312-.61-.781c-.125-.47-.469-.97-1.469-.97v-.562s.844-.062 1.312.125c.47.188.594 1.063.594 1.376 0 .312.172.812.172.812M14.938 14.813c0 .311-.142 1.186-.61 1.374-.468.187-1.327.26-1.327.26s-.844-.072-1.313-.26c-.47-.188-.595-1.063-.595-1.375 0-.311-.171-1.811-.171-1.811s.656 1.097.781 1.566c.126.469.64 1.053 1.298 1.053.67 0 1.203-.563 1.328-1.032.124-.468.772-1.587.772-1.587s-.164 1.5-.164 1.812M13 12V9s-.875-.094-2.125.234-1.484.453-1.484.453 1.272 1.274 1.828 1.751C11.875 12 13 12 13 12M13 12V9s.875-.094 2.125.234 1.484.453 1.484.453-1.272 1.274-1.828 1.751C14.125 12 13 12 13 12" fill="#141414"/></g></svg>