<svg xmlns="http://www.w3.org/2000/svg" viewBox="0 0 45 45"><defs><clipPath id="a"><path d="M4 31a4 4 0 0 1-4-4V9a4 4 0 0 1 4-4h28a4 4 0 0 1 4 4v18a4 4 0 0 1-4 4H4z"/></clipPath></defs><g clip-path="url(#a)" transform="matrix(1.25 0 0 -1.25 0 45)"><path d="M36 31L21.527 20.547a4.343 4.343 0 0 1-.695.757L30.5 31H20l-1.555-8.666a4.376 4.376 0 0 1-.89 0L16 31H5.5l9.668-9.696a4.343 4.343 0 0 1-.695-.757L0 31V20.5l13.689-1.901a4.387 4.387 0 0 1-.046-.599c0-.204.019-.402.046-.599L0 15.5V5l14.473 10.453c.202-.279.434-.534.695-.757L5.5 5H16l1.555 8.666a4.376 4.376 0 0 1 .89 0L20 5h10.5l-9.668 9.696c.261.223.493.478.695.757L36 5v10.5l-13.689 1.901c.027.197.046.395.046.599 0 .204-.019.402-.046.599L36 20.5V31z" fill="#d20000"/><path d="M13.643 18c0 .204.02.402.046.599L0 20.5v-5l13.69 1.901a4.387 4.387 0 0 0-.047.599M18 22.357c.15 0 .298-.008.445-.023L20 31h-4l1.555-8.666c.147.015.295.023.445.023M21.527 20.547L36 31h-5.5l-9.668-9.696a4.42 4.42 0 0 0 .695-.757M18 13.643c-.15 0-.298.008-.445.023L16 5h4l-1.555 8.666a4.376 4.376 0 0 0-.445-.023M15.168 21.304L5.5 31H0l14.473-10.453c.202.28.434.533.695.757M14.473 15.453L0 5h5.5l9.668 9.696a4.42 4.42 0 0 0-.695.757M20.832 14.696L30.5 5H36L21.527 15.453a4.38 4.38 0 0 0-.695-.757M22.357 18c0-.204-.02-.402-.046-.599L36 15.5v5l-13.69-1.901c.028-.197.047-.395.047-.599M18 21.357A3.36 3.36 0 0 1 14.643 18 3.36 3.36 0 0 1 18 14.643 3.36 3.36 0 0 1 21.357 18 3.36 3.36 0 0 1 18 21.357" fill="#ffe600"/></g></svg>