<svg xmlns="http://www.w3.org/2000/svg" viewBox="0 0 45 45"><defs><clipPath id="a"><path d="M0 36h36V0H0v36z"/></clipPath><clipPath id="b"><path d="M4 31a4 4 0 0 1-4-4V9a4 4 0 0 1 4-4h28a4 4 0 0 1 4 4v18a4 4 0 0 1-4 4H4z"/></clipPath><clipPath id="c"><path d="M0 36h36V0H0v36z"/></clipPath></defs><g clip-path="url(#a)" transform="matrix(1.25 0 0 -1.25 0 45)"><path d="M36 9a4 4 0 0 0-4-4H4a4 4 0 0 0-4 4v18a4 4 0 0 0 4 4h28a4 4 0 0 0 4-4V9z" fill="#d90000"/></g><g clip-path="url(#b)" transform="matrix(1.25 0 0 -1.25 0 45)"><path d="M36 10H0v4h36v-4z" fill="#fcdc02"/><path d="M36 26H0v5h36v-5z" fill="#141414"/><path d="M36 22H0v4h36v-4z" fill="#fcdc02"/><path d="M36 14H0v4h36v-4z" fill="#141414"/></g><g clip-path="url(#c)" transform="matrix(1.25 0 0 -1.25 0 45)"><path d="M22 18a4 4 0 1 0-8 0 4 4 0 0 0 8 0" fill="#fff"/><path d="M17.344 20.969l-.267.703s.579.203 1.142 0c.429-.155.469-.703.469-.703l-.671-.203-.673.203z" fill="#d90000"/><path d="M17.594 21.078v.684s.11.044.423 0c.31-.043.452-.262.452-.262l-.438-.53-.437.108z" fill="#fcdc02"/><path d="M18.474 16.395h-.229l.083.417s.292-.417.146-.417m-.729 2.708c-.083.146 0 1 .24 1.063.238.062.697.812 0 1.062-.699.25-.845-.479-.845-.479s-.689-.203-.603-.375c.083-.166.666.063.791-.083.125-.146-.063-.354-.563-.938-.5-.583-.166-1.375.063-1.578.23-.203.5-.358.71-.546.207-.187.446-.291.446-.291v-.604s-.697-.063-1.03-.021c-.335.042-.564-.188-.647-.458-.083-.272.125-.418.125-.21 0 .209.083.085.103-.082.02-.168.168-.105.168.103 0 .21.084.125.104.021.021-.103.167.043.188.168.021.124.208.186.375.228.167.042.614-.041.614-.041v-1.105s-.927-.062-1.01-.187c-.084-.126.563-.105.563-.105s-.188-.353-.105-.374c.084-.023.667.353.896.395.23.043.583-.103.625 0 .041.106-.563.25-.625.355-.063.102-.188 1.06-.188 1.06s.272.023.605.002c.333-.022.25.271.041.562-.208.291-.02.375.334.312.354-.063.625 0 .625.563s-1.917 1.438-2 1.583" fill="#141414"/><path d="M17.474 20.188c.03.249-.376.229-.396 0-.02-.23.354-.354.396 0" fill="#d90000"/><path d="M17.75 18.953c.115.041 1.406-.547 1.75-.703.344-.156.303-.75.245-1.109-.058-.36-.261-.469-.261-.469s-.224.58-.937.86c-.958.374-1.234 1.265-.797 1.421" fill="#9ca69c"/><path d="M19.203 18.266c.421-.11 1.312-.312 1.391-1.22.078-.905-.849-1.436-.849-1.436l.155.28-.275-.093.12.203-.433-.093s.725.578.472 1.093c.02-.43-.269-.546-.269-.546s.25.595-.828 1.25c.125.03.282.072.282.072l-.282.224.594-.224-.28.349.561-.218-.359.359z" fill="#d90000"/><path d="M17.594 20.664a.102.102 0 1 0 0 0" fill="#9ca69c"/></g></svg>