<svg xmlns="http://www.w3.org/2000/svg" viewBox="0 0 45 45"><defs><clipPath id="a"><path d="M0 36h36V0H0v36z"/></clipPath></defs><g clip-path="url(#a)" transform="matrix(1.25 0 0 -1.25 0 45)"><path d="M36 9a4 4 0 0 0-4-4H4a4 4 0 0 0-4 4v18a4 4 0 0 0 4 4h28a4 4 0 0 0 4-4V9z" fill="#fce100"/><path d="M36 13H0v10h36V13z" fill="#141414"/><path d="M32 31H4a4 4 0 0 1-4-4v-4h36v4a4 4 0 0 1-4 4" fill="#007168"/><path d="M36 22H0v1h36v-1zM36 13H0v1h36v-1z" fill="#eee"/><path d="M1.313 6.055l15.719 11.88L1.33 29.96A3.973 3.973 0 0 1 0 26.999V9c0-1.17.512-2.213 1.313-2.944" fill="#dd2e44"/><path d="M9.478 12.938l-3.271 2.395-3.266-2.395 1.267 3.851L.92 19.154l4.054-.014 1.234 3.857 1.24-3.86 4.05.018-3.289-2.37 1.269-3.847z" fill="#fce100"/><path d="M3.369 15.298h2.356c.19-.213.613-.3 1.016.002.738.404 2.167-.002 2.167-.002l.28.299-.684 2.25-.246.264s-.53.317-1.531.21c-1.002-.105-1.353.037-1.353.037s-.88-.106-1.126-.23c-.027-.021-.281-.281-.281-.281l-.598-2.55z" fill="#141414"/><path d="M3.369 15.624h2.356c.19-.213.613-.3 1.016.002.738.404 2.167-.002 2.167-.002l.28.299-.684 2.25-.246.264s-.53.317-1.531.211c-1.002-.105-1.353.036-1.353.036s-.88-.106-1.126-.229c-.027-.022-.281-.282-.281-.282l-.598-2.549z" fill="#fff"/><path d="M2.213 18.988l1.262 1.85.773-.123.447.46 1.54-1.888 1.237.879.757.63.454-.278 1.607 1.036-1.453-1.362-1.205-.856-.96-.432 3.242-3.822-.423-.301-3.09 3.75-1.003-.805 1.316-.421-.042-.631-1.849.51.082-1.31-.427-.184-.378.755-1.635-1.917-.588 1.01 1.851 1.557.042.547 1.01.925.294.043.841.336-1.262 1.346-1.686-2.352-.723.87" fill="#141414"/></g></svg>