<svg xmlns="http://www.w3.org/2000/svg" viewBox="0 0 45 45"><defs><clipPath id="a"><path d="M4 31a4 4 0 0 1-4-4V9a4 4 0 0 1 4-4h28a4 4 0 0 1 4 4v18a4 4 0 0 1-4 4H4z"/></clipPath><clipPath id="b"><path d="M0 36h36V0H0v36z"/></clipPath><clipPath id="c"><path d="M4 31a4 4 0 0 1-4-4v-9h19v13H4z"/></clipPath><clipPath id="d"><path d="M0 36h36V0H0v36z"/></clipPath></defs><g clip-path="url(#a)" transform="matrix(1.25 0 0 -1.25 0 45)"><path d="M22 20.5zM22 31z" fill="#00247d"/><path d="M21.062 31H.031V20.5h-.03L.03 5h35.97v26H21.061z" fill="#5b97b1"/><path d="M13.598 8.228l-.487 1.5-.487-1.5h-1.577l1.275-.927-.487-1.5 1.276.927 1.275-.926L13.9 7.3l1.276.927h-1.577zM20.083 9.394l.487 1.5-1.275-.927-1.276.927.487-1.5-1.275-.927h1.576l.488-1.5.487 1.5h1.577l-1.276.927zM20.57 16.18l-1.276-.928-1.275.927.487-1.5-1.276-.926h1.577l.487-1.5.488 1.5h1.576l-1.275.926.487 1.5zM25.043 10.73l.487 1.5-1.275-.927-1.276.927.487-1.5-1.275-.927h1.576l.488-1.5.487 1.5h1.577l-1.276.927zM23.767 21.304l.487-1.5.487 1.5h1.577l-1.275.927.487 1.5-1.276-.927-1.275.926.487-1.499-1.276-.927h1.577zM28.313 14.769l-.487 1.5-.487-1.5h-1.577l1.275-.927-.487-1.5 1.276.927 1.275-.926-.487 1.499 1.276.927h-1.577zM28.356 22.873l.487-1.5.487 1.5h1.577l-1.275.927.487 1.499-1.276-.926-1.275.926.487-1.5-1.276-.926h1.577zM32.923 17.737l-.487 1.5-.487-1.5h-1.577l1.275-.927-.487-1.5 1.276.927 1.275-.926-.487 1.499 1.276.927h-1.577zM31.648 26.953l-.487-1.5 1.275.927 1.276-.927-.487 1.5 1.275.927h-1.576l-.488 1.499-.487-1.5h-1.577l1.276-.926z" fill="#ffce00"/></g><g clip-path="url(#b)" transform="matrix(1.25 0 0 -1.25 0 45)"><path d="M19 31H4a4 4 0 0 1-4-4v-9h19v13z" fill="#00247d"/><path d="M19 18v2.029L11.9 25H6.671l9.997-7H19z" fill="#eee"/><path d="M19 19.418L11.029 25H9.286L19 18.198v1.22z" fill="#cf1b2b"/><path d="M8.1 25L0 19.234V18h3.332l9.998 7H8.1z" fill="#eee"/><path d="M10.714 25l-9.98-7H2.46l9.998 7h-1.744z" fill="#cf1b2b"/><path d="M16.669 31l-9.997-7H11.9L19 28.97V31h-2.331z" fill="#eee"/><path d="M17.54 31l-9.998-7h1.744L19 30.802V31h-1.46z" fill="#cf1b2b"/></g><g clip-path="url(#c)" transform="matrix(1.25 0 0 -1.25 0 45)"><path d="M10 24h3.329l-9.997 7H1l-.625-1.594L10 22.669V24z" fill="#eee"/><path d="M10 24h.714L1 30.802l-.5-.865 9.5-6.659V24z" fill="#cf1b2b"/></g><g clip-path="url(#d)" transform="matrix(1.25 0 0 -1.25 0 45)"><path d="M19 27h-7v4H7v-4H0v-5h7v-4h5v4h7v5z" fill="#eee"/><path d="M11 18H8v13h3V18z" fill="#cf1b2b"/><path d="M19 23H0v3h19v-3z" fill="#cf1b2b"/></g></svg>