<svg xmlns="http://www.w3.org/2000/svg" viewBox="0 0 45 45"><defs><clipPath id="a"><path d="M0 36h36V0H0v36z"/></clipPath></defs><g clip-path="url(#a)" transform="matrix(1.25 0 0 -1.25 0 45)"><path d="M36 9a4 4 0 0 0-4-4H4a4 4 0 0 0-4 4v18a4 4 0 0 0 4 4h28a4 4 0 0 0 4-4V9z" fill="#002395"/><path d="M6 31V19H0v-1h19v13H6z" fill="#eee"/><path d="M18 19h-6v12h6V19z" fill="#ed2939"/><path d="M12 19H6v12h6V19z" fill="#eee"/><path d="M29.964 15.906l-1.701-2.63v4.762h2.268l.838.961h-7.76l.838-.96h2.269v-4.764l-1.701 2.631-2.475-3.867h1.237l1.238 2.035 2.474-4.356 2.475 4.356 1.238-2.035h1.238l-2.476 3.867z" fill="#fff"/><path d="M27.013 16.995h3.119l-.687-.94h-2.27l-.162.94zM26.252 12.359h-2.476v.617h2.476v-.617zM31.202 12.359h-2.475v.617h2.475v-.617zM27.49 8.794l.298-1.027h1.034l-.816-.66.298-1.015-.815.62-.816-.604.3 1-.817.659h1.007l.326 1.027zM22.152 18l.3-1.026h1.033l-.815-.632.298-1-.816.627-.815-.6.298.973-.815.632h1.006L22.152 18zM32.825 18l.3-1.026h1.033l-.815-.632.298-1-.816.627-.814-.6.297.973-.815.632H32.5L32.825 18zM24.56 10.85l.299-1.026h1.033l-.815-.642.297-1.005-.814.625-.816-.6.3.98-.817.642h1.006l.327 1.026zM30.418 10.85l.3-1.026h1.033l-.816-.642.299-1.005-.816.625-.814-.6.297.98-.815.642h1.007l.325 1.026z" fill="#fff"/></g></svg>