<svg xmlns="http://www.w3.org/2000/svg" viewBox="0 0 45 45"><defs><clipPath id="a"><path d="M0 36h36V0H0v36z"/></clipPath></defs><g clip-path="url(#a)" transform="matrix(1.25 0 0 -1.25 0 45)"><path d="M32 31H4a4 4 0 0 1-4-4V9a4 4 0 0 1 4-4h28a4 4 0 0 1 4 4v18a4 4 0 0 1-4 4" fill="#006c35"/><path d="M8.497 23.757c-.045-.615-.1-1.696.422-1.807.632-.061.283 1.069.512 1.274.043.1.123.1.13-.026v-.96c-.006-.31.2-.402.357-.466.166.012.277.007.342-.154l.077-1.658s.385-.11.403.933c.018.612-.122 1.124-.04 1.243.003.117.152.124.256.067.165-.116.24-.26.495-.203.391.108.625.298.631.597-.023.285-.055.57-.178.855.017.052-.075.186-.058.238.07-.11.176-.101.201 0-.067.219-.17.429-.337.52-.138.12-.34.096-.414-.158-.034-.292.105-.64.318-.922.046-.111.11-.295.081-.461-.114-.064-.227-.038-.322.063 0 0-.31.233-.31.285.082.528.018.588-.028.734-.032.202-.128.267-.205.405-.078.082-.183.082-.233 0-.138-.238-.074-.75.026-.978.071-.211.181-.343.13-.343-.044-.12-.132-.091-.196.046-.092.284-.11.708-.11.898-.028.237-.057.74-.213.869-.095.129-.236.067-.285-.052a4.191 4.191 0 0 1 .015-.685c.107-.38.14-.713.192-1.102.014-.52-.3-.225-.286.032.072.335.053.863-.01.997-.052.133-.113.167-.238.145-.098.005-.353-.272-.424-.733 0 0-.06-.238-.087-.448-.035-.238-.192-.406-.302.033-.095.319-.153 1.106-.312.922" fill="#fff"/><path d="M10.213 21.235c-.558-.272-1.097-.526-1.645-.79.02.373.782 1.046 1.302 1.056.338-.01.253-.132.343-.266" fill="#fff"/><path d="M11.657 21.002c-.018-.034-.097-.02-.155-.02-.066.002-.097.014-.137.067-.019.06.038.118.063.162.031.053.198.108.257-.041a.168.168 0 0 0-.028-.169m2.564.817a19.412 19.412 0 0 1-.037-.237c-.015-.076-.168-.08-.174.019-.067.305-.345.345-.513-.128-.113-.092-.317-.111-.338.027.027.317-.102.36-.358.21-.082.629-.164 1.23-.247 1.859.107.004.205-.076.302.046-.107.333-.333 1.014-.458 1.062-.06.074-.113.028-.192.01-.134-.043-.259-.16-.22-.385.16-.965.263-1.7.422-2.665.024-.113-.07-.262-.193-.247-.207.14-.259.425-.613.412-.257-.003-.55-.28-.587-.55-.042-.213-.058-.445 0-.631.181-.217.397-.196.587-.147.155.065.284.22.338.183.037-.045.01-.558-.732-.952-.449-.201-.806-.247-.998.119-.119.229.01 1.099-.284.898-.867-2.235 2.03-2.546 2.353-.092.031.1.153.202.174.037-.067-2.222-2.24-2.375-2.609-1.676-.092.165-.12.53-.129.75-.055.437-.284.269-.32-.164-.037-.241-.028-.308-.028-.54.116-1.755 2.916-1.001 3.37.448.241.803-.039 1.395.092 1.393.277-.3.665-.041.75.063.037.052.13.086.193.019.217-.156.598-.082.678.192.045.268.082.546.091.833-.177-.055-.308-.091-.32-.165" fill="#fff"/><path d="M14.33 24.218h-.002c-.053-.013-.12.034-.152.104-.032.071-.015.137.037.15h.001c.052.013.12-.034.152-.104.032-.07.015-.137-.037-.15m.148 0c.204.12.14.38.032.5a.495.495 0 0 1-.444-.005c-.143-.138-.177-.358-.064-.495.11-.052.22-.163.146-.224-.337-.36-1.26-.982-1.153-1.003.023-.03.59-.029.608 0 .175.064 1 1.007 1 1.007-.044.037-.082.064-.125.101-.046.04-.04.08 0 .12M8.625 19.653c-.309-.492-.336-1.228-.165-1.447.09-.104.239-.15.35-.117.193.084.279.478.232.622-.064.101-.115.117-.18.031-.136-.278-.194-.087-.205.068-.021.294.007.565.038.78.034.22 0 .152-.07.063M21.835 20.442c-.3.644-.713 1.279-.845 1.523-.132.245-1.126 1.687-1.271 1.849-.323.384.523-.16-.108.602-.241.207-.255.219-.455.388-.1.072-.346.202-.39-.014a1.249 1.249 0 0 1 .022-.454c.024-.106.179-.284.255-.386 1.009-1.356 1.902-2.725 2.765-4.445.136.064.106.83.027.937" fill="#fff"/><path d="M20.523 18.29c-.06-.066.145-.349.41-.349.444.052.833.301 1.194.956.097.153.267.48.272.733.032 1.486-.075 2.643-.298 3.717a.596.596 0 0 0 .012.259c.028.034.126 0 .177.084.076.078-.2.718-.359.965-.055.11-.075.184-.168-.013-.098-.16-.163-.439-.155-.699.211-1.464.276-2.744.414-4.207.013-.142-.01-.348-.103-.429-.347-.364-.85-.811-1.396-1.017M26.508 18.298c-.317-.185-.318-.396-.061-.403.443.05.966.088 1.328.633.096.153.212.566.216.82.034 1.486-.02 2.595-.242 3.669-.014.105-.06.346-.043.377.029.074.173-.008.225.077.076.077-.374.655-.531.9-.057.112-.077.185-.17-.011-.097-.16-.131-.447-.092-.7.235-1.59.41-2.783.446-4.191-.02-.134-.025-.206-.088-.374-.138-.178-.292-.401-.436-.508-.144-.107-.451-.21-.552-.29" fill="#fff"/><path d="M26.746 19.722c-.003.372.006.692-.007.97-.012.277-.06.503-.157.7-.09.21-.034.38-.077.604-.042.225-.03.561-.096.828-.017.104-.072.438-.056.47.027.074.126-.003.175.083.074.08-.253.926-.419 1.167-.059.108-.168.071-.3-.105-.124-.115-.079-.38-.032-.63.32-1.66.555-3.162.503-4.74-.015-.136.47.4.466.653M24.398 21.78c-.2.004-.62.389-.741.615a.414.414 0 0 0 .024.33c.073.048.188.102.273.05 0 0 .089-.123.07-.14.11-.051.156-.021.168.023.007.078-.032.124-.033.21.047.233.312.268.412.12.073-.09.099-.282.11-.411 0-.067-.107.01-.17-.005-.06-.016-.074-.086-.08-.15-.01-.168-.03-.438-.033-.642M20.707 19.31c.055.505-.02 1.404-.025 1.702-.021.704-.136 2.064-.191 2.291-.061.428.177-.047.144.202-.077.427-.315.717-.593 1.11-.09.126-.087.152-.226-.033-.154-.348-.021-.588.019-.859.201-.884.318-1.697.373-2.5.055-.806.071-1.675.022-2.522.15-.006.392.244.477.61" fill="#fff"/><path d="M27.427 20.119c-.353.592-.885 1.232-1.026 1.47-.143.239-1.345 1.79-1.5 1.946-.438.462.204.075-.082.432-.243.266-.313.349-.52.509-.104.067-.167.195-.201-.024a4.368 4.368 0 0 1-.015-.575c0-.09.093-.258.174-.358 1.066-1.31 2.229-2.648 3.165-4.33.134.07.09.826.005.93M14.822 24.263c-.321-.917.184-1.92.534-1.824.253-.104.414.376.517.903.07.148.124.163.16.088-.01-.7.05-.856.23-1.068a.582.582 0 0 1 .76-.014l.313.313c.069.073.162.078.26.013.096-.087.083-.237.287-.34.172-.07.54-.017.625.132.115.196.143.264.195.338.082.11.222.061.222.026-.013-.06-.095-.12-.04-.23.099-.074.12-.027.179-.01.204.097.356.54.356.54.009.165-.083.151-.143.117-.08-.047-.083-.063-.162-.11-.1-.016-.293-.082-.387.066-.098.178-.1.426-.174.605 0 .014-.13.283-.01.3.062-.01.192-.045.212.064.063.106-.137.408-.273.56-.12.131-.285.146-.443.013-.112-.103-.096-.217-.118-.326a.508.508 0 0 1 .105-.443c.11-.219.314-.5.247-.898 0 0-.12-.188-.325-.164-.086.02-.226.056-.3.607-.057.416.013 1-.164 1.273-.064.165-.11.324-.266.042-.042-.11-.222-.279-.091-.625.106-.219.149-.576.1-.974-.073-.113-.09-.15-.186-.264-.136-.146-.283-.109-.396-.054-.106.071-.188.108-.237.334.009.36.029.95-.037 1.075-.097.194-.257.124-.325.065-.33-.3-.492-.807-.591-1.21-.091-.296-.188-.21-.256-.092-.166.155-.177 1.372-.378 1.172" fill="#fff"/><path d="M17.834 19.748c-.202-.07-.395-.123-.396-.415.074-.406-.103-.266-.208-.211-.125.089-.474.304-.523.768-.008.11.079.204.218.204.209-.058.518-.061.786-.09.218-.013.327-.184.123-.256m.756 1.9c.029.048.12.045.208-.005.087-.051.136-.13.108-.178-.028-.048-.122-.045-.21.006-.086.05-.134.129-.106.177zm1.452-1.117l-1.881.009c-.097.037-.07.069 0 .095.449.06 1.248.192 1.3.958-.008.4-.171.66-.662.734-.36-.028-.616-.377-.575-.761-.017-.103.034-.305-.071-.328-.691-.064-1.444-.495-1.47-.805-.042-.03-.135.055-.123.187a3.716 3.716 0 0 1-.475 1.607c-.218.217-.15.145-.296.042-.094-.108-.111-.182-.106-.397 0-.007.176-.5.325-.843.099-.352.193-.756.125-1.136-.232-.504-.698-.956-1.15-1.201-.231-.075-.43-.048-.48.004-.141.095-.134.273-.124.276.379.265.813.478 1.153 1.19.1.274.13.438.03.86a.832.832 0 0 1-.196.398c.06.039.236-.093.262-.014a1.237 1.237 0 0 1-.331.61c-.135.123-.282.137-.405.025-.14-.078-.17-.357-.103-.6.074-.184.275-.215.419-.585 0-.008.052-.276-.022-.381-.06-.184-.824-.785-.867-.812-.021-.026-.011.013-.014.113-.006.122.049.41.034.412-.25-.161-.332-.654-.377-.8-.63-.436-1.343-.76-1.755-1.201-.215-.335 1.478.385 1.675.472.043-.033.038-.183.157-.32.175-.237.548-.384.912-.293.61.22.963.637 1.32 1.098.052.075.132.132.206.075.246-.552.957-.941 1.874-.982.213.258.11.383.025.438 0 .008-.454.18-.522.352-.042.155.059.293.264.397.589.07 1.168.15 1.728.33.006.188.115.47.19.592.074.123.113.085.1.13l-.094.055zM10.866 24.253c.216-.104.624-.06.606.29 0 .03-.008.135-.011.163-.044.103-.164.078-.192-.029-.008-.034.015-.09-.016-.109-.018-.018-.087-.007-.084.09 0 .03-.023.063-.036.082-.014.01-.023.012-.048.012-.03 0-.03-.009-.046-.035-.007-.025-.017-.05-.017-.08-.004-.034-.016-.046-.042-.05-.028 0-.022-.004-.044.01-.014.015-.031.021-.031.046a.276.276 0 0 1-.014.086c-.012.016-.031.023-.053.03-.118-.002-.126-.136-.12-.188-.008-.009-.013-.25.148-.318" fill="#fff"/><path d="M17.21 21.568c.216-.103.731-.044.605.29 0 .03-.007.135-.01.164-.044.102-.164.077-.192-.03-.008-.034.016-.091-.016-.108-.019-.02-.088-.008-.085.089 0 .03-.023.063-.036.083-.014.009-.023.01-.048.01-.03 0-.029-.008-.046-.033-.007-.026-.017-.051-.017-.08-.002-.035-.015-.047-.04-.052-.03 0-.022-.003-.045.01-.015.016-.032.022-.032.047a.278.278 0 0 1-.014.087c-.01.015-.03.022-.052.028-.118-.001-.126-.135-.12-.186-.009-.01-.014-.252.147-.32M20.91 22.68c.215-.104.622-.06.604.29 0 .03-.007.135-.01.163-.044.103-.164.077-.192-.03-.008-.033.015-.09-.016-.108-.018-.018-.087-.007-.084.089 0 .03-.024.064-.036.083-.014.01-.023.012-.048.012-.03-.002-.03-.01-.046-.035-.007-.026-.017-.05-.017-.08-.004-.034-.016-.047-.042-.051-.028 0-.022-.003-.045.01-.013.016-.03.02-.03.047a.276.276 0 0 1-.014.086c-.012.016-.03.023-.053.028-.118 0-.126-.135-.119-.186-.009-.01-.014-.251.147-.318M22.825 19.888c-.377-.425-.21-1.128-.126-1.28.124-.248.225-.408.467-.53.22-.163.391-.062.486.052.222.23.225.816.33.933.072.214.256.177.345.082a.855.855 0 0 1 .315-.272c.207-.183.454-.216.698-.049.166.093.274.214.372.453.108.29.048 1.626.026 2.418-.009.062-.215 1.09-.215 1.101a9.6 9.6 0 0 1-.05.647c-.004.05-.016.064.036.057.054-.046.062-.049.096-.065.056-.009.106.085.073.172l-.517.952c-.04.041-.095.086-.16-.01a.37.37 0 0 1-.128-.284c.016-.226.055-.455.07-.68.07-.387.138-.773.206-1.159.066-.827.082-1.502.147-2.328-.009-.35-.117-.655-.22-.699 0 0-.155-.09-.259.01-.076.03-.379.504-.379.504-.155.142-.257.101-.367 0-.304-.294-.44-.843-.647-1.22-.054-.086-.204-.158-.37.005-.424.58-.176 1.402-.229 1.19M21.006 24.706c.194-.081.33-.474.286-.666-.038-.237-.141-.493-.215-.46-.081.03.055.236-.022.452-.043.14-.308.398-.281.474-.054.159.114.228.232.2" fill="#fff"/><path d="M23.45 19.655c.04.472-.029.76-.04 1.037-.014.276-.315 2.392-.376 2.601-.073.397.293.053.253.284-.127.291-.443.714-.542.967-.06.108-.034.204-.168.028-.123-.404-.166-.735-.119-.986.318-1.66.643-3.039.592-4.618.151-.002.325.345.4.687M26.762 24.037c.177-.088.28-.58.26-.72-.034-.257-.128-.535-.196-.499-.073.033.015.381-.02.49-.04.152-.28.43-.255.512-.05.172.103.247.21.217M13.626 20.547c.169-.065.268-.426.249-.53-.033-.188-.123-.392-.188-.365-.07.023.015.28-.02.36-.013.192-.248.292-.243.375-.044.154.098.182.202.16M9.106 24.823c.25-.075.264-.442.246-.55-.034-.195-.122-.406-.185-.378-.069.024-.003.29-.036.372-.037.117-.248.328-.224.39-.047.132.096.189.2.166M14.033 23.094c-.191-.104-.266-.412-.146-.591.11-.16.287-.1.31-.1.188-.023.299.352.299.352s.006.105-.217-.095c-.094-.017-.105.018-.13.07a.473.473 0 0 0 .03.294c.034.093-.04.134-.146.07M15.468 24.964c-.096-.064-.288-.263-.294-.49-.005-.13-.029-.13.055-.212.061-.088.123-.08.246-.015a.258.258 0 0 1 .118.173c.03.147-.155-.069-.178.094-.04.152.077.213.188.36.004.1.002.171-.135.09M16.625 24.759c-.042-.091-.091-.57-.083-.57-.033-.142.149-.203.232-.02.124.336.124.478.133.62-.039.218-.185.21-.282-.03M23.917 21.048c.024.025 1.027.738 1.027.738.103.036.08-.368.034-.365.019-.08-.99-.765-1.061-.737-.05-.036-.1.276 0 .364M24.831 21.054c.177-.088.247-.605.227-.746.007-.273-.169-.492-.237-.456-.073.032.006.34-.029.448-.039.152-.189.44-.163.521-.05.172.094.263.202.233M18.867 18.828c.07.102.285.248.29.248.1.05.196-.039.19-.033.017-.1-.062-.19-.038-.324.022-.054.038-.114.136-.09.16.125.307.133.466.14.122-.006.127-.213.05-.214-.294-.065-.426-.143-.636-.224-.1-.058-.185.016-.185.024s-.058.057-.017.19c.007.104-.035.162-.123.15-.067-.036-.125-.059-.158.017-.013.055-.018.083.025.116M25.886 18.549c.043-.055.07-.104-.003-.194-.07-.065-.12-.101-.19-.165-.034-.057-.055-.143.047-.17.187-.053.62.228.62.234.07.053.047.152.042.152-.041.047-.133.02-.196.028-.03 0-.127.014-.08.1a.588.588 0 0 1 .078.152c.03.064.004.107-.101.142-.108.02-.151.01-.27 0-.064-.013-.086-.042-.097-.12.005-.118.076-.112.15-.16M25.5 13H24v.5a.5.5 0 0 1-1 0V13H11s0-1 3-1h9v-.5a.5.5 0 0 1 1 0v.5h1v-.5a.5.5 0 0 1 1 0v1a.5.5 0 0 1-.5.5" fill="#fff"/></g></svg>