<svg xmlns="http://www.w3.org/2000/svg" viewBox="0 0 45 45"><defs><clipPath id="a"><path d="M0 36h36V0H0v36z"/></clipPath><clipPath id="b"><path d="M4 30c-1.655 0-3-1.346-3-3V9c0-1.654 1.345-3 3-3h28c1.655 0 3 1.346 3 3v18c0 1.654-1.345 3-3 3H4z"/></clipPath><clipPath id="c"><path d="M0 36h36V0H0v36z"/></clipPath></defs><g clip-path="url(#a)" transform="matrix(1.25 0 0 -1.25 0 45)"><path d="M36 9a4 4 0 0 0-4-4H4a4 4 0 0 0-4 4v18a4 4 0 0 0 4 4h28a4 4 0 0 0 4-4V9z" fill="#ffb700"/><path d="M4 6C2.346 6 1 7.346 1 9v18c0 1.654 1.346 3 3 3h28c1.654 0 3-1.346 3-3V9c0-1.654-1.346-3-3-3H4z" fill="#8d2129"/></g><g clip-path="url(#b)" transform="matrix(1.25 0 0 -1.25 0 45)"><path d="M5 6H1v24h4V6z" fill="#005641"/><path d="M9 6H5v24h4V6z" fill="#ff5b00"/></g><g clip-path="url(#c)" transform="matrix(1.25 0 0 -1.25 0 45)"><path d="M10 5H9v26h1V5zM13.2 25.938s-.068.959-.036 1.762c.021.532-.277 1.175-.84 1.082-.562-.094-1.188.02-1.188.02s.126-.364 0-.708c-.125-.344-.125-1.062.72-1.156.843-.094 1.187-.531 1.343-1M31.883 25.938s.067.959.035 1.762c-.021.532.277 1.175.84 1.082.562-.094 1.188.02 1.188.02s-.126-.364 0-.708c.125-.344.125-1.062-.72-1.156-.843-.094-1.187-.531-1.343-1M13.2 10.063s-.068-.96-.036-1.764c.021-.531-.277-1.174-.84-1.08-.562.094-1.188-.021-1.188-.021s.126.365 0 .709c-.125.344-.125 1.062.72 1.156.843.093 1.187.53 1.343 1M31.883 10.063s.067-.96.035-1.764c-.021-.531.277-1.174.84-1.08.562.094 1.188-.021 1.188-.021s-.126.365 0 .709c.125.343.125 1.061-.72 1.155-.843.095-1.187.532-1.343 1M18.406 22.625s.594.031 1.187.187c.594.157.407.719.407.719s.531.281.844 0c.312-.281.687-.25.5.125.562.281.812-.344.812-.344s.281.177.344.417c.5.052.593-.448.906-.385.312.062.531.389.531.389s.063-.889-.469-1.108c.438-.562.313-1.656.313-1.937l-.313.187s.188-.875.282-1c.093-.125-.313 0-.313 0s.22-.594.375-.688c.156-.093 3.094.188 3.938.188.844 0 2 .125 2 .875s-.969.688-2.063.531c-1.093-.156-1.812-.125-2.25.157-.437.281-.936.354-.895-.355-.667.313-.188.98-.188.98s-.76.833-.276 1.666 2.36 1.084 3.672.354c1.312-.729 1.833-1.332 2.375-1.437-.02.396.646.687.73-.042.082-.729-.835-.583-1.23-.354-.396.229-1.105.917-1.105.917s-.02-.418.25-.688c-.75.084-.916.646-.916.646s-.042-.604-.729-.625c.5.583.333 1.062-.355 1.312.397-.604.021-1.125-.562-1.208.396.563.063 1.208-.666 1.333.103-.458-.25-.583-.25-.583s-.166.417-.5.188c-.334-.23-.417-.729.02-1.042.271.542.813.501 1 .271-.562-.063-.54-.584-.333-.854.208.354.417.458.625.083.208-.375.833-.354 1.958-.187 1.125.166 2.161.044 2.333-.959.147-.854-.708-1.271-.708-1.271s1.104-.833.396-2.645c-.708-1.813-.416-2.563-.146-2.751.271-.187.688-.207.125-.707-.562-.5-.417-.856-.187-1.147.23-.291.167-.583-.5-.208-.292-.292-.583-.208-.75.042-.167-.23-.48-.292-.688-.042-.208-.167-.478-.167-.333.187.146.355.855.5 1.063.563.208.062.187.439.125.855-.063.416-.417.854-1.167 1.25-.333-.25-.292-.541-.167-.688.125-.146.521-.187.542-.312.02-.125-.208-.397-.458-.584-.25-.188-.208-.522-.125-.688.083-.166.186-.577-.084-.768-.27-.19-.54.247-.54.247s-.169-.52-.648-.02c-.27-.334-.54-.209-.666-.021-.27-.271-.687-.25-.479.125.208.375.458.375.75.396.292.02.686.082.645.666-.04.584-.156 1.177-.562 1.542-.625.563-.52 1.23-.52 1.23s-1.043.103-1.855-.459c-.813-.563-1.438-.563-1.438-.563s-.459-.5-.5-.812c-.04-.313.147-.417.397-.5.25-.084.437-.063.062-.396s-.687-.313-.687-.313-.022-.354.02-.562c.042-.208-.084-.569-.292-.607-.208-.038-.52.232-.52.232s-.396-.417-.708.021c-.355-.334-.667-.21-.792 0-.209-.334-.542-.188-.334.187.21.375.501.418 1.001.397.5-.022.916.375.728.895-.187.521-.353 1.23-.353 1.23s-.396.041-.98.375c-.729-.875-.979-.564-1.187-.397-.209.167-.709.625-.709.625s-.27.022-.229-.228c-.29.02-.187.478-.187.708 0 .229-.084.5-.25.5-.167 0-.417-.042-.417-.042s0-.082.25-.166.23-.251-.02-.272c-.25-.02-.417-.082-.23-.228.188-.147.21-.229.063-.375-.146-.147-.125-.541.125-.688.166.395.48.166.416-.105-.062-.27-.52-.229-.52-.229l.312-.353-.476-.105s-.024-.292-.212-.354c-.187-.063-.229.437-.229.437l-.437.022.291.353s-.417.147-.437.397c-.02.25.312.125.375 0 .333.145.23.478.104.603-.125.125-.042.228.083.375s.105.228-.083.188c-.187-.041-.5.334-.187.334.312 0 .374.021.333.25-.375.041-.146.333-.146.333s-.292.208-.083.354c-.188.166-.23.438-.02.479-.126.104.041.292.041.292s-.605.104-.605.562c0 .458.521.375.521.375s-.062 1.458.084 3.5c.145 2.042 1 2.751 1.52 2.958-.54-1.146-.479-3.083-.479-4.271 0-1.187-.02-2.124-.02-2.124s.583-.042.541-.438c-.042-.396-.312-.479-.312-.479L18 16.167s-.062 1.389.396 1.944c.458.556 1.165 1.076 1.374 1.243.21.167-.129.609-.29.125-.237.029-.438.417-.438.417s.02-.145-.126-.25c-.145-.104-.104.355-.187.312-.083-.041-.313-.166-.604-.25.021.167.146.375.146.375s-.375-.041-.709-.083c0 .292.187.771.354.813-.416.208-.312.604-.125.541.188-.062 1.062-.583 2.042-.646-.313.355-.563.813-.563.813l-.103-.354-.376.354-.04-.354s-.918.666-1.085 1.208c-.166.542.021.939.334.896.604-.084.406-.646.406-.646" fill="#ffb700"/></g></svg>