<svg xmlns="http://www.w3.org/2000/svg" viewBox="0 0 45 45"><defs><clipPath id="a"><path d="M0 36h36V0H0v36z"/></clipPath></defs><g clip-path="url(#a)" transform="matrix(1.25 0 0 -1.25 0 45)"><path d="M4 31a4 4 0 0 1-4-4V9a4 4 0 0 1 4-4h7v26H4z" fill="#006847"/><path d="M32 31h-7V5h7a4 4 0 0 1 4 4v18a4 4 0 0 1-4 4" fill="#ce1126"/><path d="M11 5h14v26H11V5z" fill="#eee"/><path d="M23 18a5 5 0 1 0-10 0h-1a6 6 0 1 1 12 0h-1z" fill="#a6d388"/><path d="M13.543 15.731a.498.498 0 0 1-.468.271.501.501 0 0 1-.424-.725c.091-.177.19-.35.296-.516h.001l.004-.007.008-.01v-.002l.004-.006.001-.002.004-.005a.022.022 0 0 0 .004-.006v-.002a.022.022 0 0 1 .004-.005v-.002c.002 0 .003-.003.004-.004l.001-.002.003-.004.002-.003.002-.003.002-.003.003-.005h.001l.003-.004.003-.006v-.002l.004-.005h.001c.002-.004.004-.008.007-.01l.001-.002.005-.007c.051-.078.105-.152.161-.228a.5.5 0 0 1 .8.598 5.095 5.095 0 0 0-.437.707M13.046 17.314a4.944 4.944 0 0 0-.045.833.5.5 0 0 1-.485.514l-.036-.001a.5.5 0 0 1-.478-.486 6.445 6.445 0 0 1 0-.311v-.015-.006-.02-.007l.001-.006v-.002-.006-.006-.002-.004l.001-.007v-.008-.005-.008-.014l.001-.004a.01.01 0 0 1 .001-.004v-.005-.005-.002-.005-.012-.002-.004l.001-.003V17.7v-.004-.005l.001-.02.001-.008v-.01h.001c.01-.16.025-.32.046-.478a.498.498 0 0 1 .515-.429l.048.004a.5.5 0 0 1 .427.564M18.34 13.013l-.006-.001-.124-.008a5.087 5.087 0 0 0-.71.02.502.502 0 0 1-.548-.448.5.5 0 0 1 .447-.546l.125-.011.004-.001h.007l.006-.001h.006l.003-.001h.016l.006-.001.005-.001h.002a.006.006 0 0 0 .006 0h.006l.006-.001h.014c.15-.01.304-.015.459-.012H18.15c.002.002.003.002.005 0h.008c.002.002.004.002.006.002h.002l.005-.001h.02c.003 0 .005 0 .007.002h.006l.002-.001h.014l.005.002H18.262c.002 0 .004 0 .005.002l.005-.001h.015l.127.008a.494.494 0 0 1 .453.526.51.51 0 0 1-.526.473M15.901 13.46a5.07 5.07 0 0 0-.724.412.489.489 0 0 1-.303.087.5.5 0 0 1-.263-.911l.001-.001.006-.003.006-.006h.001l.006-.004.006-.005h.001c.266-.18.548-.34.842-.475a.5.5 0 0 1 .421.907M20.93 13.86a.498.498 0 0 1-.247-.08 5.142 5.142 0 0 0-.734-.388.498.498 0 0 1 .213-.96.522.522 0 0 1 .173.038l.134.06h.002l.006.004.002.001.004.002h.004l.004.002.002.002.005.001a.003.003 0 0 0 .002.001c0 .002.002.002.003.002.002.002.003.002.005.002l.003.001a.008.008 0 0 0 .005.002l.002.001.005.002.002.001c.003.002.003.003.005.003l.002.001a.022.022 0 0 1 .005.003h.002l.006.003.006.003.002.001.005.003.002.001.006.003v.001l.008.001.006.004.002.001.004.003h.002l.006.003.008.002a.02.02 0 0 0 .006.004l.008.004v.001a.081.081 0 0 0 .014.006l.007.003.014.008.008.003.005.003.015.007v.001l.006.002a.143.143 0 0 1 .022.012l.007.002.014.008a.057.057 0 0 0 .007.004l.008.002c0 .003.003.004.005.005l.008.003.006.004.014.006.008.004v.001l.005.003.008.004.006.003h.002a.02.02 0 0 0 .006.004v.001a.049.049 0 0 1 .007.003v.001l.007.003v.001l.005.002.002.001.004.002c.002 0 .003.002.003.002.002 0 .003 0 .005.002l.002.001.005.003.002.001.006.002v.001a.016.016 0 0 0 .007.003l.002.001s0 .002.003.003l.002.001.006.003.002.001c0 .002.002.002.004.003l.003.001.004.002.003.002.004.002.003.002.003.002.003.003h.004l.004.002.002.001.004.002.004.003.002.001.004.002c0 .002.003.002.004.003l.003.002.005.001.002.002.004.002.002.002.003.002.004.002.004.003.002.001c.002.001.006.001.008.003-.002.001-.002.001 0 .001l.004.002a.057.057 0 0 0 .007.004l.002.002.007.002v.001c.003.003.006.004.01.006l.009.005a.095.095 0 0 0 .02.011c.064.038.129.077.19.117a.5.5 0 0 1-.291.922M23.502 18.477l-.023-.001a.5.5 0 0 1-.479-.498c0-.277-.025-.557-.072-.83a.5.5 0 1 1 .986-.167v.005l.001.002.001.002-.001.002.001.002.001.003V17l.001.002v.008c.002.002.002.004.002.005v.006c.021.129.039.259.052.39h-.001l.001.004.001.005V17.43l.002.003-.001.004v.002l.001.003v.004h.002l-.002.004v.003c.002 0 .002.002.002.003V17.476l.002.003c.012.164.02.329.021.496a.5.5 0 0 1-.498.502M23.059 15.781a.5.5 0 0 1-.68-.196 4.835 4.835 0 0 0-.463-.693.501.501 0 0 1 .784-.622c.116.147.226.3.33.455.002.007.007.014.01.02v.001l.005.006v.001l.004.007c.002.001.004.003.004.005l.005.005v.001a.01.01 0 0 1 .003.007l.002.001.004.006v.001c.002.001.002.003.003.005v.001l.005.006v.002c.002.002.003.002.003.004l.002.002.002.005h.002l.002.006v.002c.003.001.004.003.005.004v.002l.004.005v.003l.005.003c0 .001 0 .002.002.003v.004l.003.001c0 .002.002.003.003.005v.002c0 .002.003.003.004.006l.002.002.002.004.002.003c0 .001 0 .002.002.003v.003c.003.001.003.003.004.005v.003l.003.003c0 .001 0 .002.002.002.002.001.002.002.002.003.002.001.002.002.002.004l.002.003.003.004.003.004v.003l.002.003.003.004c0 .001 0 .002.003.003v.003l.004.005v.003c.002 0 .003.001.003.003 0 .001 0 .002.002.002 0 .001 0 .002.002.003a.01.01 0 0 1 .003.005l.002.003v.002c0 .002 0 .003.003.005 0 .001 0 .002.002.003v.003l.004.004c0 .001 0 .003.002.004 0 .001 0 .002.002.003 0 .001 0 .002.002.003 0 .001 0 .002.002.002l.002.005.002.002.002.006.002.001c0 .001 0 .003.002.004l.002.002c0 .002 0 .004.002.005l.002.002.002.006c.002.001 0 .002 0 .002l.004.004v.002l.004.005v.001l.003.006.002.002.002.006v.001l.005.005.003.006v.001l.004.006.002.001c.008.016.016.033.025.047a.502.502 0 0 1-.195.681" fill="#5c913b"/><path d="M21 15c0-.553-1.343-1-3-1s-3 .447-3 1c0 .553 1.343 1 3 1s3-.447 3-1" fill="#55acee"/><path d="M20 15c0-.553-.672-1-1.5-1-.829 0-1.5.447-1.5 1 0 .553.671 1 1.5 1 .828 0 1.5-.447 1.5-1" fill="#ffcc4d"/><path d="M17.697 16.314a.473.473 0 0 0-.065.004 6.98 6.98 0 0 0-1.056.221.5.5 0 0 0-.337.622l.006.02-.01-.024a.502.502 0 0 0-.682-.192c-.34.19-.645.42-.907.681a.5.5 0 0 0 .707.707c.197-.197.428-.37.688-.515a.501.501 0 0 0 .23-.597.5.5 0 0 0 .59.256c.276-.082.58-.145.9-.187a.5.5 0 0 0-.064-.995m1.42-1.59a.5.5 0 0 0-.44.738c.16.294.33.561.502.795a9.95 9.95 0 0 0-.429-.008c-.277 0-.528.224-.528.501 0 .275.195.5.472.5.008 0 .073 0 .081-.002.296.002.6.019.872.045a.497.497 0 0 0 .41-.156l.043.03c.1.067.194.12.281.162a.473.473 0 0 0 .247.1c.187.063.32.07.372.07a.5.5 0 0 0 .477-.647c-.082-.266-.264-.326-.586-.39a1.302 1.302 0 0 1-.238-.127.504.504 0 0 0-.599.034.5.5 0 0 0-.002-.615 5.629 5.629 0 0 1-.496-.767.499.499 0 0 0-.439-.262M15.245 18.654c-.426 0-.977.165-1.311.56-.511.604-.813 1.378-.766 1.972.012.158-.143.286-.295.326-.087.023-.241.038-.312-.117a.25.25 0 0 0-.454.21c.156.34.506.49.89.391.359-.093.703-.415.669-.849-.036-.462.225-1.109.65-1.61.223-.265.612-.37.876-.382.215-.01.324.038.347.06-.057.133-.797.522-1.113.688-.27.142-.35.335-.37.472-.067.455.4.916.853 1.36.159.157.31.305.39.415.094.123.079.205.06.256-.07.187-.367.372-.727.452-.333.074-.558.235-.668.478-.144.321-.068.741.234 1.285a.25.25 0 1 0 .438-.243c-.285-.512-.257-.744-.216-.837.042-.092.149-.157.32-.195.424-.094.932-.345 1.088-.767.09-.24.045-.5-.127-.729-.105-.139-.27-.3-.441-.47-.26-.255-.74-.728-.71-.932.007-.04.063-.078.108-.102.75-.395 1.25-.679 1.352-1.028a.456.456 0 0 0-.042-.359c-.097-.169-.3-.273-.585-.299a1.525 1.525 0 0 0-.138-.006" fill="#5c913b"/><path d="M20 18c0-.553-.224-1-.5-1s-.5.447-.5 1c0 .552.224 1 .5 1s.5-.448.5-1M17.291 18.813c0-.288-.345-.521-.77-.521-.426 0-.772.232-.772.52 0 .288.346.521.771.521.426 0 .771-.232.771-.52M16.105 23.439c.05-.212-.227-.46-.619-.553-.39-.093-.75.004-.8.216-.05.213.226.461.618.554.392.093.75-.004.801-.217" fill="#ffcc4d"/><path d="M22.533 18.045c.09-.07.243.729.22.978 0 .017-.03.546.083.924.07.128.073 1.084-.033 1.334.084.008.184.034.197.137-.388-.144-.479.817-.852 1.368-.362.553-.81.875-1.28 1.21a.979.979 0 0 0 .162.27c-.575-.287-1.47.756-2.795.678-.297-.03-.437-.047-.514-.23-.247-.02-.498-.075-.498-.4 0-.078.071-.22.23-.221.215-.063.391-.014.538-.316l.04-.312s-.195.246-.3.286l.064.133c-.099.057-.277.01-.277.01s-.384.18-.693.133l-.06.25c-.054-.153-.175-.145-.192-.291-.034.105-.079.234-.112.337-.109-.148-.076-.307-.116-.462-.042-.035-.128-.037-.15.062-.01.122-.026.133-.026.278-.078-.136-.172-.203-.203-.44l-.083.262c.003-.307-.26-.491-.512-.707-.07-.13.012-.131.017-.198l.132-.066.237.017c.038-.05.007-.053.11-.085.275-.076.62.254.89-.266-.124-.104-.249-.347-.21-.393.05 0-.1-.07.102-.006a1.785 1.785 0 0 1-.353-.488c-.024-.058.085.007.062-.097l.05.006c-.48-.518-.016-1.075-.067-1.374.08-.13.09.002.19.016.083-.368.325-.591.473-.882l-.31-.004c.006-.138.131-.27.23-.39l-.209-.066a1.162 1.162 0 0 1-.353-.274c-.069-.17.333-.21.527-.238l-.007-.203c.303-.03.653.06.653.078l.076.058.171-.094c.057 0 .146.228.105.404.11-.131.215-.342.325-.474l.103.014c.094-.15.223-.297.318-.446l.104-.04c.061.02.113.028.146.147l.048-.084.166.114.117.023.087-.142c.05.02.101.13.103.248.052-.103.066-.095.105-.121l.077.16.415-.387.314-.018c.113-.076.42-.123.471-.001.252-.108.55.014.534.134.232-.092.59-.03.59-.015.042.006.152.114.048.195-.767.534-1.905 1.418-2.343 1.63 0 .159-.119.728-.247.884l.103.174c.3-.28.408-.251.567-.296.17-.135.23-.34.4-.527l.152-.028a2.625 2.625 0 0 1-.554.873c.164-.082.435-.301.618-.46.12-.2.155-.361.265-.613.08-.051.162-.237.151-.082-.019.29-.224.752-.224.785.327-.258.323-.66.421-.905.083-.124.125-.29.161-.251l-.095.756-.056.277c.241-.14.327-.67.44-1.305 0-.101.041-.212.035-.277.051-.064.111-.241.11-.136 0 0 0 1.034-.07 1.27-.019.127.03.334.03.334.087-.43.181-.894.271-1.322v-.315l.131-.132c.026.259.055.518.081.776l-.098.925v.264c-.002.093.085.076.14-.03.012-.226.012-.404.022-.63.04-.258.065-.447.085-.776.011-.27.022-.907.08-.896" fill="#c1694f"/></g></svg>