<svg xmlns="http://www.w3.org/2000/svg" viewBox="0 0 45 45"><defs><clipPath id="a"><path d="M0 36h36V0H0v36z"/></clipPath></defs><g clip-path="url(#a)" transform="matrix(1.25 0 0 -1.25 0 45)"><path d="M36 4a4 4 0 0 0-4-4H4a4 4 0 0 0-4 4v28a4 4 0 0 0 4 4h28a4 4 0 0 0 4-4V4z" fill="#3b88c3"/><path d="M8.591 26.844c0 1.55.992 2.418 2.326 2.418.59 0 1.55-.465 1.953-1.022l9.83-13.117h.061v11.72c0 1.55.993 2.419 2.325 2.419 1.334 0 2.326-.868 2.326-2.418V9.233c0-1.551-.992-2.418-2.326-2.418-.588 0-1.519.465-1.954 1.022l-9.828 12.96h-.062V9.234c0-1.551-.992-2.418-2.325-2.418-1.334 0-2.326.867-2.326 2.418v17.61z" fill="#fff"/></g></svg>