<svg xmlns="http://www.w3.org/2000/svg" viewBox="0 0 45 45"><defs><clipPath id="a"><path d="M4 31a4 4 0 0 1-4-4V9a4 4 0 0 1 4-4h28a4 4 0 0 1 4 4v18a4 4 0 0 1-4 4H4z"/></clipPath><clipPath id="b"><path d="M0 36h36V0H0v36z"/></clipPath></defs><g clip-path="url(#a)" transform="matrix(1.25 0 0 -1.25 0 45)"><path d="M16 31V20H0V5h36v26H16z" fill="#ed2939"/><path d="M24.38 13.68h6.24L27.5 16.8l-3.12-3.12zM30.62 22h-6.24l3.12-3.12L30.62 22zM31.66 14.72v6.24l-3.12-3.12 3.12-3.12zM23.34 20.96v-6.24l3.12 3.12-3.12 3.12z" fill="#fff"/></g><g clip-path="url(#b)" transform="matrix(1.25 0 0 -1.25 0 45)"><path d="M6 19H0v8a4 4 0 0 0 4 4h2V19z" fill="#002395"/><path d="M6 31V19H0v-1h19v13H6z" fill="#eee"/><path d="M18 19h-6v12h6V19z" fill="#ed2939"/><path d="M12 19H6v12h6V19z" fill="#eee"/></g></svg>