<svg xmlns="http://www.w3.org/2000/svg" viewBox="0 0 45 45"><defs><clipPath id="a"><path d="M0 36h36V0H0v36z"/></clipPath><clipPath id="b"><path d="M4 31a4 4 0 0 1-4-4v-9h19v13H4z"/></clipPath><clipPath id="c"><path d="M0 36h36V0H0v36z"/></clipPath></defs><g clip-path="url(#a)" transform="matrix(1.25 0 0 -1.25 0 45)"><path d="M36 9a4 4 0 0 0-4-4H4a4 4 0 0 0-4 4v18a4 4 0 0 0 4 4h28a4 4 0 0 0 4-4V9z" fill="#00247d"/><path d="M26.64 22.895c-.14.401-1.061.745-1.468.59.469.874 1.246 1.14 1.639 1.546.392.406.408.765.408.765s.359-.609.719-1.172c.359-.562.846-.875.846-.875s-1.268-.38-2.143-.854" fill="#c0e6e9"/><path d="M26.826 22.98a.085.085 0 1 0-.17 0v2.466a.085.085 0 1 0 .17 0V22.98z" fill="#ae7521"/><path d="M27.412 22.5c-.673 0-1.74.031-1.834.219-.094.187-.125.672-.125.672S26.25 23 27.328 23c1.078 0 1.766.391 1.766.391s.008-.659-.31-.782c-.224-.086-.606-.109-1.372-.109" fill="#c7e9eb"/><path d="M22.61 19.688c-.126-.312-.142-.72.093-.891.234-.171.61.172.61.172s-.673.063-.704.719" fill="#9fc2ff"/><path d="M24.14 19.156c-.296.266-.917.062-.917.062s.074.36.262.47c-.516.046-.79-.095-.965-.532-.207.234.09.812.09.812s.672.407 1.312 0c.53.735.615 2.001-.028 1.891.169.422 1.378.157 1.148-.57-.23-.727-.604-1.008-.604-1.008s.627.592 1.056.327c.428-.265.616-1.505-.322-1.096-.937.41-1.11.154-1.125 0-.015-.153.094-.356.094-.356" fill="#00a3d6"/><path d="M26.313 19.375c-.4-1.177-1.187-1.177-1.187-1.177s.045.407.202.589c-.672-.256-1.61.151-1.407 1.182.157-.656.813-.875 1.422-.578.61.296 1.03.162.97-.016" fill="#9fc2ff"/><path d="M21.922 21.11c-.114.185.158.515.524.39-.243-.266-.131-.532 0-.719.132-.188-.4.125-.524.328" fill="#00a3d6"/><path d="M24.406 21.922c-.297.094-.513-.062-.513-.062s-.159.359-.643.218c-.485-.14-.78.033-.78.033s.155-.506.89-.512c-.454-.583-1.22-.693-1.438-.49.125-.281.562-.624.718-.64.157-.016.98.47 1.157 1.03.031.1.125-.014 0-.21-.125-.195-.235-.414-.157-.758.114.19.36.204.485.5.125.297.015.61.281.704.266.093 0 .187 0 .187" fill="#9fc2ff"/><path d="M28.208 17.521c-.485 0-.521.833-.521.833s-.145-.068-.562-.419c-.417-.352-1.042-.419-1.042-.419s-.479.526.084 1.151c-.022.625-.73 1.271-.73 1.271l-.583.125s1.395 1.354 2.417 1.437c1.021.083 1.082-.375.999-1.312-.083-.938.209-1.521.209-1.521s.874-1.146-.271-1.146" fill="#8da8c3"/><path d="M25.64 20.468c-.108-.125-.104-.17.206-.156.31.016.473-.003.473-.003s-.647-.338-1.053-.152c.063.202.375.311.375.311M27.907 18.453s.421.266.577-.187c.156-.454-.019-.5-.228-.516-.209-.016-.349.703-.349.703" fill="#cc1530"/><path d="M29.36 19.766c-.139-.305-.142-.97.546-1.22.125.5.031.798-.547 1.22M30.844 19.438c.156.156.047.766-.422.53-.47-.234-.68-.172-.801-.094.082.141.41.25.41.25s-.6-.046-.745.454c.355-.094.527 0 .527 0s-.196.14-.192.25c.27.093.645-.204.645-.204s-.133.22-.16.735c-.028.516.394.695.707.45-.297-.356.047-1.044.187-1.638.578.422 1.28.328 1.313-.328.03-.656-.172-.5-.172-.5s.25.625-.656.531c.39-.187.203-.362.203-.362s-.422.112-.844-.075" fill="#9fc2ff"/><path d="M28.799 21.125c-.408.046-.252-.455-.846-.657.14-.062.423 0 .423 0s-.28-.515 0-1.047c.249.203.327.547.327.547s0-.598.313-.885c.273.353.14.791.14.791s.192-.536.799-.79c.608-.256 1.014.306 1.06.603.048.297-.093.386-.093.386s-.512-.48-.967-.199c.2.188.115.291-.334.326-.45.034-.558.66-.605.737-.047.078-.217.188-.217.188M30.154 21.666c.174.46.768.535.986.396.407.22.834-.218 1.175-.077-.143-.328-.565-.49-.784-.385.266-.382.972-.636 1.234-.407.263.23.084-.297-.45-.472s-.909.472-.909.472.11-.4 0-.57c-.406.142-.617.568-.606.877.012.308-.242.534-.646.165" fill="#00a3d6"/><path d="M32.315 20.722c.42.09.732.436.747.568.016.132-.213.534-.747.309.466-.177.378-.75 0-.877" fill="#9fc2ff"/><path d="M32.222 20.158c.325-.44.23-.908.169-1.001-.063-.094-.546-.263-.734.062.406.03.789.386.565.939" fill="#00a3d6"/><path d="M27.428 21.078c-.714 0-1.786-.356-1.786-.356s-.037.424-.267.778c-.23.354-.333.854-.333.854s.583-.105.646-.459c.062-.354-.021-.666-.021-.666l.708.187s-.187.306-.354.084c-.167-.222-.354.604-.104.73.25.124.909.27.909.27s.05-.604.09-.75c.042-.146-.333-.15-.333-.15l.063-.1h.625s-.208.234-.208.604c0 .405.437.791.437.791s.39-.523.39-.833c0-.309-.232-.562-.232-.562l.55-.105s.208.417 0 .313c-.208-.104-.21.125-.125.396.084.271.022.521.022.521l.853-.396s.063-.09 0-.42c-.062-.33-.437-.299-.437-.299v-.198l.562-.146s-.167.39 0 .642c.167.254.73.421.73.421s-.46-.827-.73-1.507a3.977 3.977 0 0 1-1.655.356" fill="#d9a323"/><path d="M27.436 18h-2.662v-3.219c0-2.747 1.848-3.18 2.643-3.401v-.005l.01.003.01-.003v.005c.796.221 2.644.654 2.644 3.401V18h-2.644z" fill="#fff"/><path d="M27.418 18h-2.644v-3.141h5.306V18h-2.662z" fill="#179af9"/><path d="M27.428 13.016s-.193.984-1.053 1.844h2s-.77-.782-.947-1.844" fill="#179af9"/><path d="M27.428 16.703s-.193-.984-1.053-1.844h2s-.77.782-.947 1.844M27.188 16.703c-.06-.173-.406-.5-.656-.578-.25-.078-.637-.375-.686-.516-.05.157.123.391.123.391s-.281-.03-.312-.39c-.031-.36-.614-.376-.614-.376s.114.5.41.797c.298.297.48.125.663.235.18.11-.07.36.135.64.203.281.75.203.937.422.062-.172-.47-.484-.547-.516-.078-.03-.11-.218-.015-.203.093.016.42.063.562.094M27.667 16.703c.059-.173.406-.5.656-.578.25-.078.637-.375.686-.516.049.157-.123.391-.123.391s.281-.03.312-.39c.031-.36.614-.376.614-.376s-.114.5-.411.797c-.297.297-.48.125-.662.235-.181.11.069.36-.135.64-.203.281-.75.203-.937.422-.062-.172.469-.484.547-.516.078-.03.109-.218.015-.203-.093.016-.421.063-.562.094" fill="#fff"/><path d="M27.188 13.031c-.06.173-.406.5-.656.578-.25.078-.637.375-.686.516-.05-.157.123-.39.123-.39s-.281.03-.312.39c-.031.36-.614.375-.614.375s.114-.5.41-.797c.298-.297.48-.125.663-.235.18-.109-.07-.359.135-.64.203-.28.75-.203.937-.422.062.172-.47.484-.547.516-.078.031-.11.218-.015.203.093-.016.42-.063.562-.094M27.667 13.031c.059.173.406.5.656.578.25.078.637.375.686.516.049-.157-.123-.39-.123-.39s.281.03.312.39c.031.36.614.375.614.375s-.114-.5-.411-.797c-.297-.297-.48-.125-.662-.235-.181-.109.069-.359-.135-.64-.203-.28-.75-.203-.937-.422-.062.172.469.484.547.516.078.031.109.218.015.203-.093-.016-.421-.063-.562-.094" fill="#179af9"/><path d="M25.656 19.969c.453-.187.844.062 1.25.39.406.329.846.156.971.11.125-.047-.143-.044-.604-.311-.46-.267-.68-.351-.695-.645-.016-.294-.14-.128-.203 0s-.078-.216 0-.56c.078-.343-.057-.755-.057-.755s-.117 1.079-.662 1.77"/><path d="M21.234 17.406s.078.234.391.406c.312.172.093.313-.11.297-.203-.016-.359-.03-.578-.594-.219-.562-1.047-3 .297-4.312-.39.187-.75.953-.75.953s.047-.516.313-1.03c-.797 1.25-.704 2.577-.579 3.577s.422 1.64.875 1.672c.375.562 1.063.271 1.578-.177.516-.448.766-.87.766-.87s.068.828.456.75c.388-.078.95-.36 1.03-.563.077-.203-.486-.047-.595.078-.11.125-.323.266-.435.141-.112-.125-.19-.687-.19-.687s.277.515.443.468c.166-.047.922-.718.896-.953-.027-.234-.23.125-.433.282-.203.156-.363.437-.463.39-.099-.047-.459-.875-.49-.953-.03-.078.084-.062.237.148.154.211.325.446.42.446.093 0 .741-.89.73-1.094-.012-.203-.109-.39-.189-.438-.08-.046.036.233-.15.562-.189.33-.36.673-.439.626-.078-.047-.437-.609-.5-.75-.062-.14.407.328.578.25.172-.078.424-.967.431-1.25a.717.717 0 0 0-.25-.547c-.087-.078-.054.281 0 .453s-.07.391-.118.656c-.047.266-.094.516-.14.438-.048-.078-.766-.703-.829-.75-.062-.047.225 0 .456.125.232.125.357.11.388-.125.031-.234.078-.969-.28-1.172-.36-.203.03.25.077.47.047.218.015.686-.078.64-.094-.047-.75-.532-.954-.61-.203-.078-.093-.609.11-.906.203-.297.646-.594.737-.328.091.265.437.547.631.406.194-.14.101-.406.101-.406s.255 0 .23-.28c-.027-.283-.387-.564-1.262-.439-.875.125-1.968.47-1.906 2-.328 1.344-.078 1.922-.03 2.297.046.375.186.927.14.971-.047.044-.407-.065-.563-.268M33.67 17.406s-.078.234-.391.406c-.312.172-.093.313.11.297.203-.016.359-.03.578-.594.219-.562 1.047-3-.297-4.312.39.187.75.953.75.953s-.047-.516-.313-1.03c.797 1.25.704 2.577.579 3.577s-.422 1.64-.875 1.672c-.375.562-1.063.271-1.578-.177a3.992 3.992 0 0 1-.766-.87s-.068.828-.456.75c-.388-.078-.95-.36-1.03-.563-.077-.203.486-.047.595.078.11.125.323.266.435.141.112-.125.19-.687.19-.687s-.277.515-.443.468c-.166-.047-.922-.718-.896-.953.027-.234.23.125.433.282.203.156.363.437.463.39.099-.047.459-.875.49-.953.03-.078-.084-.062-.237.148-.154.211-.325.446-.42.446-.093 0-.741-.89-.73-1.094.012-.203.109-.39.189-.438.08-.046-.036.233.15.562.189.33.36.673.439.626.078-.047.437-.609.5-.75.062-.14-.407.328-.578.25-.172-.078-.424-.967-.431-1.25a.717.717 0 0 1 .25-.547c.087-.078.054.281 0 .453s.07.391.118.656c.047.266.094.516.14.438.048-.078.766-.703.829-.75.062-.047-.225 0-.456.125-.232.125-.357.11-.388-.125-.031-.234-.078-.969.28-1.172.36-.203-.03.25-.077.47-.047.218-.015.686.078.64.094-.047.75-.532.954-.61.203-.078.093-.609-.11-.906-.203-.297-.646-.594-.737-.328-.091.265-.437.547-.631.406-.194-.14-.101-.406-.101-.406s-.255 0-.23-.28c.027-.283.387-.564 1.262-.439.875.125 1.968.47 1.906 2 .328 1.344.078 1.922.03 2.297-.046.375-.186.927-.14.971.047.044.407-.065.563-.268" fill="#d8ab6d"/><path d="M23.797 11.203c.128.448 1.219.86 1.562.797.344-.063.969-.313.61-.625-.36-.313-1.125-.578-1.641-.688-.515-.109-.625.188-.531.516M31.08 11.203c-.129.448-1.22.86-1.563.797-.344-.063-.969-.313-.61-.625.36-.313 1.125-.578 1.641-.688.515-.109.625.188.531.516" fill="#cc1530"/><path d="M31.402 11.797s-.484.527-.953.209c-.469-.318-1.824-1.443-3.022-1.443-1.197 0-2.552 1.125-3.02 1.443-.47.318-.954-.21-.954-.21s.234-.108.187-.343c-.047-.234 0-.64.253-.724-.294.728.732.365 1.15-.065.418-.43 1.52-.945 2.384-.945.866 0 1.967.516 2.385.945.418.43 1.444.793 1.15.065.253.084.3.49.253.724-.047.235.187.344.187.344" fill="#fbfae7"/><path d="M25.266 12.003c.55.116 1.266-.487 1.39-.628.126-.14-.062-.578-.281-.406-.218.172-.362.205-.627.249-.264.044-.61.394-.232.532-.161-.187 0-.44.25-.282.25.157.047.429-.5.535M29.686 12.003c-.55.116-1.266-.487-1.39-.628-.126-.14.062-.578.281-.406.218.172.362.205.627.249.264.044.61.394.232.532.161-.187 0-.44-.25-.282-.25.157-.047.429.5.535" fill="#fbfae7"/><path d="M19 31H4a4 4 0 0 1-4-4v-9h19v13z" fill="#00247d"/><path d="M19 18v2.029L11.9 25H6.671l9.997-7H19z" fill="#eee"/><path d="M19 19.418L11.029 25H9.286L19 18.198v1.22z" fill="#cf1b2b"/><path d="M8.1 25L0 19.234V18h3.332l9.998 7H8.1z" fill="#eee"/><path d="M10.714 25l-9.98-7H2.46l9.998 7h-1.744z" fill="#cf1b2b"/><path d="M16.669 31l-9.997-7H11.9L19 28.97V31h-2.331z" fill="#eee"/><path d="M17.54 31l-9.998-7h1.744L19 30.802V31h-1.46z" fill="#cf1b2b"/></g><g clip-path="url(#b)" transform="matrix(1.25 0 0 -1.25 0 45)"><path d="M10 24h3.329l-9.997 7H1l-.625-1.594L10 22.669V24z" fill="#eee"/><path d="M10 24h.714L1 30.802l-.5-.865 9.5-6.659V24z" fill="#cf1b2b"/></g><g clip-path="url(#c)" transform="matrix(1.25 0 0 -1.25 0 45)"><path d="M19 27h-7v4H7v-4H0v-5h7v-4h5v4h7v5z" fill="#eee"/><path d="M11 18H8v13h3V18z" fill="#cf1b2b"/><path d="M19 23H0v3h19v-3z" fill="#cf1b2b"/></g></svg>