<svg xmlns="http://www.w3.org/2000/svg" viewBox="0 0 45 45"><defs><clipPath id="a"><path d="M4 31a4 4 0 0 1-4-4V9a4 4 0 0 1 4-4h28a4 4 0 0 1 4 4v18a4 4 0 0 1-4 4H4z"/></clipPath></defs><g clip-path="url(#a)" transform="matrix(1.25 0 0 -1.25 0 45)"><path d="M0 5h36v8.5H0V5z" fill="#12ad2b"/><path d="M0 13.5h36v9H0v-9z" fill="#ffce00"/><path d="M0 22.5h36V31H0v-8.5z" fill="#12ad2b"/><path d="M0 31V5l12.5 13L0 31z" fill="#d21034"/><path d="M18.004 15.64l1.625 1.18 1.624-1.18-.62 1.91 1.624 1.18H20.25l-.62 1.91-.62-1.91H17l1.625-1.18-.62-1.91zM27.504 15.64l1.625 1.18 1.624-1.18-.62 1.91 1.624 1.18H29.75l-.62 1.91-.62-1.91H26.5l1.625-1.18-.62-1.91z"/></g></svg>