<svg xmlns="http://www.w3.org/2000/svg" viewBox="0 0 45 45"><defs><clipPath id="a"><path d="M0 36h36V0H0v36z"/></clipPath></defs><g clip-path="url(#a)" transform="matrix(1.25 0 0 -1.25 0 45)"><path d="M0 9a4 4 0 0 1 4-4h28a4 4 0 0 1 4 4v4H0V9z" fill="green"/><path d="M32 31H4a4 4 0 0 1-4-4v-4h36v4a4 4 0 0 1-4 4" fill="#eee"/><path d="M36 23H9v8H4a4 4 0 0 1-4-4V9a4 4 0 0 1 4-4h5v8h27v10z" fill="#db161b"/><path d="M3.625 27.547c.312-.567.313-.79.222-.838-.09-.051-.238.09-.55.656-.313.567-.672 1.346-.582 1.395.091.05.598-.647.91-1.213M5.516 27.895c-.312-.567-.493-1.067-.402-1.117.09-.05.418.37.73.935.313.567.493 1.067.402 1.117-.09.05-.418-.369-.73-.935M4.953 26.984l-.297 1.422-.028.005c.103.05.184.127.184.237 0 .16-.147.29-.328.29-.18 0-.328-.13-.328-.29 0-.108.075-.193.175-.243l-.284-1.437.906.016z" fill="#eee"/><path d="M6.703 24.234c-.27.226-1.349 1.16-1.86 1.716.046.16.073.332.062.515h.017v-.007h.89v-.172h1.094v.531H5.812v-.172h-.89v-.008h-.03v.27h-.814v-.27H3.75v-.015h-.64v.218H2.077v-.578H3.11v.22h.641v-.017h.276l-.036-.375s-1.039-.046-1.318-.09c-.688-.11-.469-.313.093-.5.26-.087.518-.12.762-.133-.398-.424-1.208-1.053-1.402-1.164-.219-.125-.219-.28.203-.188.41.091 1.355.927 1.684 1.348l.285.012c.15.005.268.1.37.224.426-.506 1.262-1.254 1.6-1.459.358-.218.526-.214.653-.193.127.021.064.053-.217.287" fill="#eee"/></g></svg>