<svg xmlns="http://www.w3.org/2000/svg" viewBox="0 0 45 45"><defs><clipPath id="a"><path d="M0 36h36V0H0v36z"/></clipPath><clipPath id="b"><path d="M4 31a4 4 0 0 1-4-4V9a4 4 0 0 1 4-4h28a4 4 0 0 1 4 4v18a4 4 0 0 1-4 4H4z"/></clipPath><clipPath id="c"><path d="M0 36h36V0H0v36z"/></clipPath></defs><g clip-path="url(#a)" transform="matrix(1.25 0 0 -1.25 0 45)"><path d="M36 9a4 4 0 0 0-4-4H4a4 4 0 0 0-4 4v18a4 4 0 0 0 4 4h28a4 4 0 0 0 4-4V9z" fill="#c00"/></g><g clip-path="url(#b)" transform="matrix(1.25 0 0 -1.25 0 45)"><path d="M36 13H0v10h36V13z" fill="#eee"/><path d="M36 5H0v8h36V5z" fill="#060"/></g><g clip-path="url(#c)" transform="matrix(1.25 0 0 -1.25 0 45)"><path d="M16.041 14.52c-.408-.115-.646.272-.646.272l.323.146.156.5.324-.465h.364s-.084-.327-.52-.452M21.188 14.083c-.625.187-2.082.437-3.188.437-1.104 0-2.562-.25-3.187-.437s-.48-.791 0-.604c.479.188 1.646.375 3.187.375 1.543 0 2.709-.187 3.188-.375.48-.187.625.417 0 .604M18.25 15.208l-.25.417-.25-.417-.437-.187s.312-.354.687-.354c.375 0 .687.354.687.354l-.437.187zM19.959 14.52c.408-.115.646.272.646.272l-.324.146-.156.5-.322-.465h-.365s.084-.327.521-.452" fill="#ffac33"/><path d="M17.313 18.875c.207.44.687.375.687.375s.48.065.688-.375c-.354-.042-.688-.312-.688-.312s-.333.27-.687.312m5.042-3.1c-.105.267-.362-.448-1.062-.338-.792.125-.96.918-.96.918s-.624-.626-1.27-.334c-.645.291-.813.708-.813 1.167 0 .458-.058.796 0 .979.094.291.438.5.793.166.29.417-.21 1.292-1.043 1.292s-1.333-.875-1.041-1.292c.355.334.698.125.79-.166.06-.183 0-.521 0-.979 0-.459-.165-.876-.811-1.167-.646-.292-1.271.334-1.271.334s-.167-.793-.959-.918c-.7-.11-.959.605-1.063.338-.103-.266.46-1.067 1.25-.807.793.259.896.928.896.928s.407-.75 1.354-.459c.714.22.854.896.854.896s.141-.676.855-.896c.948-.291 1.354.459 1.354.459s.104-.669.896-.928c.792-.26 1.354.541 1.25.807M13.25 17.88l.198-.608h.64l-.518-.377.198-.61-.518.378-.518-.377.198.609-.518.377h.64l.198.609zM13.875 20.11l.198-.61h.64l-.518-.376.198-.61-.518.378-.518-.377.198.609-.518.377h.64l.198.609zM15.552 21.902l.198-.61h.64l-.518-.376.198-.61-.518.378-.518-.377.198.609-.518.377h.64l.198.609zM18 22.506l.198-.609h.64l-.518-.377.198-.609-.518.377-.518-.377.198.61-.518.376h.64l.198.61zM22.572 17.88l-.197-.608h-.64l.517-.377-.198-.61.518.378.52-.377-.2.609.52.377h-.642l-.198.609zM21.947 20.11l-.197-.61h-.64l.517-.376-.198-.61.518.378.52-.377-.2.609.52.377h-.642l-.198.609zM20.271 21.902l-.198-.61h-.64l.518-.376-.199-.61.52.378.517-.377-.198.609.518.377h-.64l-.198.609z" fill="#ffac33"/></g></svg>