<svg xmlns="http://www.w3.org/2000/svg" viewBox="0 0 45 45"><defs><clipPath id="a"><path d="M4 31a4 4 0 0 1-4-4V9a4 4 0 0 1 4-4h28a4 4 0 0 1 4 4v18a4 4 0 0 1-4 4H4z"/></clipPath></defs><g clip-path="url(#a)" transform="matrix(1.25 0 0 -1.25 0 45)"><path d="M0 27h36v4H0v-4z" fill="#024fa2"/><path d="M0 26h36v1H0v-1z" fill="#eee"/><path d="M0 9h36V5H0v4z" fill="#024fa2"/><path d="M0 10h36V9H0v1z" fill="#eee"/><path d="M13.278 23.778a5.778 5.778 0 1 0 0-11.556 5.778 5.778 0 0 0 0 11.556M0 10h36v16H0V10z" fill="#ed1c27"/><path d="M12.021 19.73l1.257 3.868 1.256-3.868h4.067l-3.29-2.39 1.257-3.868-3.29 2.39-3.29-2.39 1.256 3.868-3.29 2.39h4.067zm1.257-7.507a5.777 5.777 0 1 1 0 11.555 5.777 5.777 0 0 1 0-11.555" fill="#fff"/><path d="M9.988 13.472l3.29 2.39 3.29-2.39-1.257 3.868 3.29 2.39h-4.066l-1.257 3.867-1.257-3.867H7.955l3.29-2.39-1.257-3.868z" fill="#ed1c27"/></g></svg>