<svg xmlns="http://www.w3.org/2000/svg" viewBox="0 0 45 45"><defs><clipPath id="a"><path d="M0 36h36V0H0v36z"/></clipPath></defs><g clip-path="url(#a)" transform="matrix(1.25 0 0 -1.25 0 45)"><path d="M36 4a4 4 0 0 0-4-4H4a4 4 0 0 0-4 4v28a4 4 0 0 0 4 4h28a4 4 0 0 0 4-4V4z" fill="#3b88c3"/><path d="M23.832 18.038c0 3.752-1.954 7.131-5.83 7.131-3.876 0-5.829-3.379-5.829-7.13 0-3.783 1.891-7.133 5.829-7.133 3.937 0 5.83 3.35 5.83 7.132m-16.496 0c0 6.45 4.341 11.41 10.666 11.41 6.232 0 10.666-5.116 10.666-11.41 0-6.418-4.31-11.41-10.666-11.41-6.294 0-10.666 4.992-10.666 11.41" fill="#fff"/></g></svg>