<svg xmlns="http://www.w3.org/2000/svg" viewBox="0 0 45 45"><defs><clipPath id="a"><path d="M4 31a4 4 0 0 1-4-4V9a4 4 0 0 1 4-4h28a4 4 0 0 1 4 4v18a4 4 0 0 1-4 4H4z"/></clipPath></defs><g clip-path="url(#a)" transform="matrix(1.25 0 0 -1.25 0 45)"><path d="M11 31l5.295-1.444L11 28.111l5.295-1.444L11 25.222l5.295-1.444L11 22.333l5.295-1.444L11 19.444 16.295 18 11 16.556l5.295-1.445L11 13.667l5.295-1.445L11 10.778l5.295-1.445L11 7.889l5.295-1.445L11 5h25v26H11z" fill="#8d1b3d"/><path d="M11 7.889l5.295 1.444L11 10.778l5.295 1.444L11 13.667l5.295 1.444L11 16.556 16.295 18 11 19.445l5.295 1.444L11 22.333l5.295 1.445L11 25.222l5.295 1.445L11 28.11l5.295 1.445L11 31H0V5h11l5.295 1.445L11 7.889z" fill="#eee"/></g></svg>