<svg xmlns="http://www.w3.org/2000/svg" viewBox="0 0 45 45"><defs><clipPath id="a"><path d="M0 36h36V0H0v36z"/></clipPath></defs><g clip-path="url(#a)" transform="matrix(1.25 0 0 -1.25 0 45)"><path d="M36 9a4 4 0 0 0-4-4H4a4 4 0 0 0-4 4v18a4 4 0 0 0 4 4h28a4 4 0 0 0 4-4V9z" fill="#e8112d"/><path d="M18.473 24.014c.014 1.045.94 1.764.98 3.156.662-.834-.434-2.398-.045-3.304.178 1.029 1.203 1.595 1.461 2.963.525-.927-.803-2.3-.56-3.256.335.99 1.437 1.387 1.906 2.699.373-1-1.153-2.146-1.063-3.128.487.924 1.637 1.144 2.305 2.367.213-1.045-1.475-1.94-1.539-2.924.625.838 1.797.875 2.646 1.978.047-1.066-1.759-1.684-1.976-2.647.748.729 1.91.583 2.922 1.539-.12-1.06-2-1.39-2.368-2.305.854.603 1.981.277 3.13 1.063-.284-1.028-2.194-1.058-2.698-1.907.936.463 1.996-.036 3.256.56-.44-.97-2.334-.701-2.965-1.46.998.31 1.97-.348 3.305.044-.59-.89-2.414-.328-3.156-.98 1.033.15 1.888-.65 3.27-.472-.72-.786-2.436.054-3.27-.473 1.044-.014 1.763-.941 3.154-.978-.834-.666-2.397.434-3.303.043 1.031-.178 1.596-1.203 2.965-1.461-.928-.525-2.3.803-3.258.56.99-.335 1.39-1.437 2.7-1.906-.999-.375-2.145 1.153-3.13 1.063.926-.486 1.147-1.637 2.368-2.305-1.045-.213-1.938 1.475-2.924 1.539.838-.625.875-1.797 1.978-2.646-1.064-.047-1.685 1.76-2.646 1.976.728-.748.582-1.91 1.54-2.921-1.062.119-1.39 2-2.306 2.367.602-.854.276-1.981 1.063-3.13-1.03.284-1.059 2.194-1.907 2.698.463-.935-.037-1.996.561-3.256-.97.442-.703 2.334-1.46 2.965.308-.998-.349-1.97.043-3.305-.89.59-.328 2.414-.979 3.157.15-1.034-.652-1.89-.473-3.27-.787.719.053 2.436-.473 3.27-.014-1.045-.94-1.764-.979-3.155-.665.832.433 2.397.043 3.303-.177-1.031-1.203-1.596-1.46-2.965-.526.928.803 2.3.56 3.256-.336-.988-1.438-1.387-1.906-2.697-.374.998 1.153 2.144 1.063 3.129-.487-.926-1.638-1.147-2.305-2.367-.213 1.044 1.475 1.937 1.54 2.92-.626-.835-1.797-.872-2.648-1.975-.047 1.064 1.76 1.685 1.977 2.646-.748-.728-1.91-.582-2.923-1.54.12 1.062 2.002 1.39 2.367 2.306-.853-.602-1.979-.275-3.128-1.063.284 1.03 2.194 1.059 2.698 1.907-.936-.463-1.997.035-3.256-.561.442.97 2.333.703 2.964 1.46-.998-.307-1.967.349-3.304-.042.588.888 2.414.328 3.156.978-1.034-.15-1.888.652-3.27.473.72.786 2.435-.053 3.27.473-1.045.014-1.763.94-3.156.979.834.665 2.397-.433 3.304-.043-1.03.177-1.595 1.203-2.963 1.46.928.526 2.3-.803 3.256-.56-.99.336-1.387 1.438-2.699 1.906 1 .374 2.146-1.153 3.128-1.063-.925.487-1.144 1.638-2.367 2.305 1.045.214 1.94-1.475 2.924-1.54-.837.626-.874 1.798-1.978 2.648 1.065.047 1.684-1.76 2.647-1.977-.729.748-.583 1.91-1.539 2.923 1.06-.12 1.39-2.002 2.306-2.367-.604.853-.277 1.978-1.064 3.128 1.028-.284 1.06-2.194 1.907-2.698-.463.937.036 1.997-.56 3.255.97-.441.701-2.332 1.46-2.963-.31.998.348 1.967-.044 3.304.89-.588.328-2.414.98-3.155-.152 1.033.651 1.888.472 3.269.787-.72-.053-2.436.473-3.27" fill="#ffcc4d"/><path d="M18.002 13.094A4.906 4.906 0 1 1 18 22.905a4.906 4.906 0 0 1 .002-9.811" fill="#e8112d"/><path d="M18 22.549a4.269 4.269 0 0 0 3.16-1.393c-1.229-.124-2.27-.413-3.16-.854-.889.44-1.932.73-3.159.854a4.262 4.262 0 0 0 3.16 1.393M17.677 20.127a6.899 6.899 0 0 1-.29-.171c-.797.423-1.752.696-2.886.777.052.073.106.145.162.214 1.18-.104 2.174-.386 3.014-.82M18.326 20.127c.099-.055.195-.112.29-.171.797.423 1.752.696 2.886.777-.05.073-.105.145-.162.214-1.18-.104-2.174-.386-3.014-.82M14.357 20.513a4.108 4.108 0 0 1-.13-.225c1.057-.024 1.943-.268 2.67-.67.077.058.154.113.233.167-.76.415-1.68.674-2.773.728" fill="#ffcc4d"/><path d="M14.227 16.255c-.368.633-.504 1.232-.504 2.016 0 .64.138 1.243.388 1.787 1.022.007 1.878-.216 2.576-.604-1.035-.847-1.873-1.84-2.46-3.2M16.257 14.367c-.192.074-.4.283-.579.383.102 1.607.854 2.93 1.902 4.04.078-.075.153-.152.224-.233-.975-1.139-1.6-2.616-1.547-4.19M21.646 20.513c.045-.073.088-.148.13-.225-1.057-.024-1.943-.268-2.67-.67a6.17 6.17 0 0 1-.233.167c.76.415 1.677.674 2.773.728" fill="#ffcc4d"/><path d="M21.775 16.254c.367.633.504 1.233.504 2.017a4.26 4.26 0 0 1-.389 1.787c-1.02.007-1.877-.216-2.575-.604 1.034-.847 1.874-1.84 2.46-3.2M18.002 18.192c.767-1.234.914-2.584.872-4.109-.333-.082-.514-.09-.872-.09-.36 0-.54.008-.872.09-.042 1.447.105 2.828.872 4.11M19.74 14.367c.191.074.406.221.584.32-.102 1.608-.854 2.992-1.902 4.103a4.487 4.487 0 0 1-.224-.233c.976-1.139 1.595-2.616 1.542-4.19M17.324 19.019a4.329 4.329 0 0 1-.293.222c-1.086-.962-1.89-2.08-2.344-3.595.168-.191.164-.332.363-.49.28 1.593 1.187 2.812 2.274 3.863M18.679 19.019c.09.075.194.154.293.222 1.085-.962 1.888-2.1 2.34-3.616-.167-.191-.192-.311-.391-.47-.28 1.594-1.155 2.813-2.242 3.864M18.001 19.946c.054-.032.239-.148.286-.179a9.517 9.517 0 0 1-.286-.19 8.386 8.386 0 0 1-.286.19c.047.031.232.147.286.18M17.46 19.59a6.683 6.683 0 0 1-.226-.177 5.63 5.63 0 0 0 .29-.21c.055.047.164.142.225.187-.075.053-.233.167-.289.2M18.543 19.59c.073-.056.184-.14.226-.177-.105-.069-.246-.176-.291-.21-.055.047-.164.142-.225.187.074.053.232.167.29.2M18.001 19.19c.047-.04.186-.163.223-.2a3.06 3.06 0 0 1-.223-.216 3.042 3.042 0 0 1-.222.216c.036.037.176.16.222.2" fill="#ffcc4d"/></g></svg>