<svg xmlns="http://www.w3.org/2000/svg" viewBox="0 0 45 45"><defs><clipPath id="a"><path d="M0 36h36V0H0v36z"/></clipPath></defs><g clip-path="url(#a)" transform="matrix(1.25 0 0 -1.25 0 45)"><path d="M36 9a4 4 0 0 0-4-4H4a4 4 0 0 0-4 4v18a4 4 0 0 0 4 4h28a4 4 0 0 0 4-4V9z" fill="#244aa5"/><path d="M17.013 22.304c.052 0 .157.004.209.005.123-.128.25-.253.376-.378-.002-.097.038-.167.136-.196-.087-.023-.177-.031-.265-.04a.396.396 0 0 0-.136-.118c.015-.143.146-.223.236-.321.093-.01.198-.007.269-.08l.206-.004v-.267c.087.008.194-.007.219.099.149 0 .3.002.45-.001.04-.083.133-.088.207-.123l.036-.186c.076.097.148.222.287.227.043-.06.087-.12.132-.178.078-.005.16-.013.196-.098l.138-.005c0-.167-.011-.335.01-.501.02-.012.063-.037.082-.05a13.4 13.4 0 0 0 0-.401c.084-.072.225-.136.299-.012h.119a.667.667 0 0 1 .19-.188c.002-.131 0-.262.002-.392.173-.063.062-.3.095-.441a.531.531 0 0 0 .199-.24c.024.045.05.089.077.133l.3-.006c.045-.052.09-.105.139-.158.02-.021.063-.066.082-.09a.453.453 0 0 0 .195-.086l.178-.01c.047-.107.168-.092.264-.113l-.131-.097c-.004-.22.016-.44-.01-.658l-.08-.044a.477.477 0 0 0-.096-.311l.184.002.008-.102h.086c.002.026.006.077.01.102h.16l.006-.098c.095-.017.234.035.287-.075.246-.005.492-.003.74-.001l.01-.131c.039-.044.076-.088.113-.133.082 0 .166 0 .25-.002l-.008-.146c.076-.068.16-.13.268-.13l.002.184.162-.002.01.1c.119-.007.27.03.298-.127.026.036.073.107.096.143.078-.023.143-.075.207-.123l.002-.133c.135-.028.082-.174.094-.271a11.121 11.121 0 0 1-.17-.134c0-.138 0-.277-.002-.415l-.166-.004v-.474c-.096-.077-.182-.163-.27-.246v-.29l-.187-.16v-.122a.439.439 0 0 0-.236-.12 4.794 4.794 0 0 1-.127-.156l-.118-.031.145-.086c-.002-.19-.004-.381-.002-.571-.115-.097-.266-.091-.406-.09-.05-.06-.098-.12-.15-.18-.104 0-.178-.07-.243-.141.002-.091.004-.182.008-.273.16-.085.223-.32.428-.31.002-.152.029-.325-.116-.424-.064.002-.13.002-.193.002-.1-.144-.318-.046-.467-.071v.166a6.546 6.546 0 0 1-.138.004 5.514 5.514 0 0 0-.143-.162.434.434 0 0 1-.213-.1c-.1-.007-.2-.004-.297-.004a22.967 22.967 0 0 1-.008-.103l-.222.005a.347.347 0 0 1-.12-.226l-.154-.132c.004-.107.006-.223-.107-.273.023-.121-.066-.333.105-.366l-.005-.133c-.233-.007-.465-.003-.698-.004l-.004.235c-.168.048-.064.264-.093.389a3.522 3.522 0 0 1-.1.005l.002.157c-.076.008-.164-.004-.195.082h-.137l-.012.189h-.424c-.004-.032-.007-.097-.01-.13l-.12-.133h-.213a5.981 5.981 0 0 1-.112-.165 16.652 16.652 0 0 1-.316-.006 1.082 1.082 0 0 0-.121-.123l-.005-.132c-.081-.008-.17-.01-.192-.105h-.207l-.13-.17h-.383c-.06-.15-.241-.076-.364-.097a.67.67 0 0 0-.19-.185 9.967 9.967 0 0 1-.003-.246l-.1-.006-.002-.238c-.058-.044-.114-.09-.171-.136.006-.213.005-.425 0-.64.058-.044.114-.09.172-.135v-.564a4.333 4.333 0 0 1-.117-.117l-.144-.003c-.001-.037-.004-.11-.004-.147l-.113-.112c-.156 0-.312 0-.467-.002-.071-.09-.146-.178-.221-.267-.104 0-.208 0-.312.002a.44.44 0 0 1-.086.224c-.008.208-.004.415-.004.623.087.084.172.17.26.252 0 .09.002.18 0 .27-.02.013-.063.037-.085.05-.02.28-.001.565-.006.848h-.155c-.014.087.002.202-.115.21-.001.214-.002.426.003.639l-.156.134c-.014.082-.014.176-.108.207l-.004.183c-.112.05-.093.229.026.254-.1.087-.191.18-.286.27l-.001.117c-.11.022-.208.075-.315.104-.03.077-.105.084-.177.086l-.07.077a.271.271 0 0 0-.17.082l-.123.003c-.038.167-.116.323-.094.5-.043.038-.083.08-.121.123-.216.008-.431-.003-.646.004a.174.174 0 0 0-.14.055 2.825 2.825 0 0 1-.15.14c-.002.144.006.289-.006.43-.037.1-.1.187-.16.274 0 .033-.003.099-.004.13-.024.004-.072.012-.096.014v.135c-.103.063-.062.194-.077.292l-.258.006-.001.133-.13.122a6.087 6.087 0 0 0-.138.009l-.003.135c-.08.05-.101.132-.098.22.044.003.13.007.175.008 0 .158.002.317-.006.476-.052.098-.096.205-.18.282l-.083.1a5.459 5.459 0 0 1-.122.01l-.115.115-.001.196c-.132.027-.083.172-.1.269-.158.104-.018.297.027.427.029.037.062.072.096.106.059.059.112.123.16.19h.23l.137-.173.152.01V16.8c.287 0 .574.002.86-.002.009.084-.006.187.1.205.003.164.003.328.009.492.1.008.215-.011.29.076.034 0 .102.005.136.007v.266c.138 0 .278-.007.416.007l.047.098c.093.005.15-.043.174-.13.05.06.103.122.156.18.088.02.169.057.227.128.09.076.206.114.31.17-.026.026-.076.076-.102.1-.003.124-.086.21-.183.273-.002.12-.002.242 0 .363.074.067.145.135.213.207h.187c.11.15.248.279.394.394v.138c.036-.002.108-.002.144-.003.014-.09.089-.097.162-.1a.832.832 0 0 0 .12.133l.009.11c.136.09.043.293.073.43.067.068.162.119.192.214-.027.094-.123.143-.187.21.047.222-.158.32-.272.47l-.154.016c-.017.074-.01.165-.085.212a8.257 8.257 0 0 0-.002.315c.223.004.447-.015.669.009.01.02.033.058.044.077.094.058.199.1.283.173.093.003.186.004.28.004.044.058.09.114.135.17l.152-.005.012.096" fill="#d0a650"/><path d="M28.021 26.788l-.385-1.18-1.222.012 1.003-.73-.39-1.16 1.004.73.982-.73-.38 1.181.995.71h-1.242l-.365 1.167zM24.014 27.868l-.385-1.18-1.224.012 1.005-.729-.39-1.16 1.004.73.982-.73-.383 1.18.998.71h-1.242l-.365 1.167zM20.005 28.395l-.385-1.18-1.223.012 1.004-.73-.39-1.16 1.004.73.982-.73-.383 1.182.998.708H20.37l-.365 1.167zM7.979 26.788l.384-1.18 1.223.012-1.003-.73.389-1.16-1.004.73-.982-.73.383 1.181-.997.71h1.24l.367 1.167zM11.987 27.868l.384-1.18 1.223.012-1.003-.729.39-1.16-1.005.73-.983-.73.384 1.18-.997.71h1.241l.366 1.167zM15.996 28.395l.384-1.18 1.223.012-1.004-.73.39-1.16-1.004.73-.983-.73.384 1.182-.997.708h1.241l.366 1.167z" fill="#ededed"/></g></svg>