<svg xmlns="http://www.w3.org/2000/svg" viewBox="0 0 45 45"><defs><clipPath id="a"><path d="M0 36h36V0H0v36z"/></clipPath></defs><g clip-path="url(#a)" transform="matrix(1.25 0 0 -1.25 0 45)"><path d="M4 31a4 4 0 0 1-4-4V9a4 4 0 0 1 4-4h8v26H4z" fill="#00853f"/><path d="M12 5h12v26H12V5z" fill="#fdef42"/><path d="M32 31h-8V5h8a4 4 0 0 1 4 4v18a4 4 0 0 1-4 4" fill="#e31b23"/><path d="M18.869 19.326L17.999 22l-.868-2.674H14.32l2.275-1.652-.87-2.674L18 16.652 20.275 15l-.87 2.674 2.275 1.652h-2.811z" fill="#00853f"/></g></svg>