<svg xmlns="http://www.w3.org/2000/svg" viewBox="0 0 45 45"><defs><clipPath id="a"><path d="M4 31a4 4 0 0 1-4-4V9a4 4 0 0 1 4-4h28a4 4 0 0 1 4 4v18a4 4 0 0 1-4 4H4z"/></clipPath></defs><g clip-path="url(#a)" transform="matrix(1.25 0 0 -1.25 0 45)"><path d="M0 5h36v8H0V5z" fill="#1eb53a"/><path d="M0 23h36v8H0v-8z" fill="#0099b5"/><path d="M0 21.5h36V23H0v-1.5zM0 13h36v1.5H0V13z" fill="#ce1126"/><path d="M0 18v-3.5h36v7H0V18z" fill="#eee"/><path d="M4.2 26.84a3.12 3.12 0 0 0 2.6 3.076 3.12 3.12 0 1 1 0-6.152 3.12 3.12 0 0 0-2.6 3.076M8.883 24.537l-.14.43-.14-.43h-.454l.367-.266-.14-.432.367.267.367-.267-.14.432.366.266h-.453zM11.585 24.537l-.14.43-.14-.43h-.454l.367-.266-.14-.432.367.267.367-.267-.14.432.366.266h-.453zM11.445 27.464l-.14-.431h-.453l.366-.267-.14-.431.367.267.367-.267-.14.431.366.267h-.453l-.14.431zM14.288 24.537l-.14.43-.14-.43h-.454l.367-.266-.14-.432.367.267.367-.267-.14.432.366.266h-.453zM14.148 27.464l-.14-.431h-.453l.366-.267-.14-.431.367.267.367-.267-.14.431.366.267h-.453l-.14.431zM14.148 29.96l-.14-.431h-.453l.366-.267-.14-.431.367.267.367-.267-.14.431.366.267h-.453l-.14.431zM16.99 24.537l-.14.43-.14-.43h-.453l.367-.266-.14-.432.367.267.367-.267-.14.432.366.266h-.453zM16.85 27.464l-.14-.431h-.452l.366-.267-.14-.431.367.267.367-.267-.14.431.366.267h-.453l-.14.431zM16.85 29.96l-.14-.431h-.452l.366-.267-.14-.431.367.267.367-.267-.14.431.366.267h-.453l-.14.431zM19.693 24.537l-.14.43-.14-.43h-.454l.367-.266-.14-.432.367.267.367-.267-.14.432.366.266h-.453zM19.553 27.464l-.14-.431h-.453l.366-.267-.14-.431.367.267.367-.267-.14.431.366.267h-.453l-.14.431zM19.553 29.96l-.14-.431h-.453l.366-.267-.14-.431.367.267.367-.267-.14.431.366.267h-.453l-.14.431z" fill="#fff"/></g></svg>