<svg xmlns="http://www.w3.org/2000/svg" viewBox="0 0 45 45"><defs><clipPath id="a"><path d="M0 36h36V0H0v36z"/></clipPath></defs><g clip-path="url(#a)" transform="matrix(1.25 0 0 -1.25 0 45)"><path d="M36 9a4 4 0 0 0-4-4H4a4 4 0 0 0-4 4v18a4 4 0 0 0 4 4h28a4 4 0 0 0 4-4V9z" fill="#ed1c23"/><path d="M36 13H0v10h36V13z" fill="#eee"/><path d="M16.993 22.796c-.183-.203-.615-.486-.713-.68-.098-.193-.413-.392-.58-.463-.17-.072-.022-.188.162-.073.185.114.338.109.447.214.108.104.263.005.111-.066-.15-.072-.208-.192-.274-.278-.067-.087-.099-.13-.252-.133-.153-.004-.289-.041-.396-.196-.108-.156-.24-.338-.297-.424-.058-.086-.014-.153.128-.048.143.106.302.194.373.076.071-.117.068-.173-.122-.25-.405-.161-.522-.257-.595-.42-.073-.164-.03-.214-.283-.296-.253-.082-.664-.38-.932-.582-.268-.202-.115-.212.09-.202.314.015.718.228.924.139.062-.118.134-.27.23-.378-.33-.466-.386-.647-.726-.654-.34-.008-.554-.353-.712-.526-.158-.174-.295-.34-.459-.41-.143-.063-.176-.114-.064-.171.111-.058.21.08.313.032.104-.05.172-.031.331.075.16.105.326.246.581.277.122-.143.183-.218.321-.292a2.04 2.04 0 0 0-.912-.691c-.313-.108-.36-.23-.585-.515-.223-.285-.213-.38-.442-.383-.23-.006-.22-.057-.099-.147.121-.092.213-.047.393-.086.18-.038.41-.076.643.176.233.252.803.693 1.288.65.23-.021.393-.068.118-.33-.276-.261-.672-.46-.942-.514-.526-.106-.75-.315-.904-.31-.153.006-.296-.1-.063-.238.233-.141.31-.173.572-.056.261.116.69.313.86.358.168.047.295.118.414.086.121-.031.213.006.348.093.134.088.33.1.496.258.194.182.4.025.53-.082.13-.108.385-.536.154-.831-.232-.294-.489-.606-.57-.761-.083-.155-.13-.165-.227-.2a3.117 3.117 0 0 1-.723-.391c-.092-.078-.057-.104.071-.126.128-.023.145.004.262.099.117.096.26.243.548.234.153-.006.28.082.412.22.133.14.42.265.565.235.145-.031.187.003.271.066.083.06.151.088.281-.02.13-.108.24-.088.374-.01.135.08.28.05.317-.035.035-.084.054-.16.175-.242.121-.083.552-.338.69-.411.137-.074.227.064.124.156-.104.09-.157.167-.142.243.016.077.096.108.33.076.367-.052.892-.313 1.082-.427.191-.116.362-.214.516-.211.153.004.202.039.064.164-.14.124-.309.11-.37.238-.108.219-.293.06-.39.28-.07.158-.165.176-.285.165-.119-.011-.278.096-.388.264-.388.587-.493 1.112-.366 1.507.128.394.5.513.717.347.217-.166.473-.27.584-.26a.514.514 0 0 0 .35-.068c.146-.083.395-.136.698-.01.303.125.41.026.603.02.163-.004.36-.034.49-.142.13-.108.327-.18.625-.224.3-.045.501.036.261.175-.243.14-.448.22-.537.347-.087.125-.216.148-.342.145-.127-.003-.334.086-.508.26-.173.177-.31.208-.447.188a.418.418 0 0 0-.385.135c.131.156.271.448.396.536a.5.5 0 0 0 .385-.12c.105-.09.25-.07.352-.068a.664.664 0 0 0 .333-.103c.087-.058.223-.054.35-.001.125.054.098.12-.056.21-.156.09-.242.149-.296.234-.05.083-.096.124-.282.12-.187-.004-.276.088-.423.247-.332.358-.552.379-.766.349-.21-.03-.423-.07-.599.183.218.107.396-.14.68.074.151.114.251.142.44.078.19-.064.41-.043.467 0 .06.045.136.115.23.125.091.01.08.135-.056.118-.263-.031-.31.13-.563.082-.254-.048-.347-.008-.512.108-.165.115-.303.214-.786.136.022.153.01.315.247.363.181-.107.35-.087.494-.083.145.003.64.005.784-.018.147-.022.178.047-.038.162a1.783 1.783 0 0 1-.632.164c-.11.007-.165.082-.236.225-.07.143-.285.257-.6.259a.859.859 0 0 0-.575.234c-.13.117-.252.208-.405.23-.154.022-.293.13-.227.259.064.129.32.185.501.07.18-.115.291-.121.4-.06.11.063.178.09.341.034.162-.056.325-.053.073.138-.363.272-.719.163-.84.313-.124.15-.224.089-.308.053-.085-.036-.237.048-.055.143.135.072.271.108.391.052a.43.43 0 0 1 .356.007c.093.045.184.132-.097.185-.282.054-.71.223-.877.373a.557.557 0 0 1-.487.15c-.144-.028-.263-.048-.513.109-.25.156-.577.31-.805.629-.229.318-.25.122-.39-.034" fill="green"/><path d="M16.152 20.983c-.165.02-.299-.057-.213-.17.085-.113.128-.042.236.011.107.054.207.132-.023.16M16.607 20.623c-.151-.073-.297-.16-.344-.314-.048-.154-.041-.29.1-.253.217.056.23.312.389.341-.052.075-.067.177-.145.226M16.872 20.757c.014-.063.035-.165.087-.215.14.067.494.202.627.23a.331.331 0 0 1-.043.21 1.501 1.501 0 0 1-.67-.225M18.063 20.155c.002-.094.042-.33.061-.425.085-.04.197-.072.282-.095a.857.857 0 0 1 .07.375c-.156.1-.295.207-.413.145M17.76 20.02c.01-.075.013-.186.023-.254-.11-.002-.289-.065-.398-.102-.11-.036-.242.165-.048.246.194.08.321.1.423.11M15.037 19.255c.202.107.306.041.491.096.087-.083.191-.183.262-.284-.107-.18-.433-.06-.542-.139a1.043 1.043 0 0 0-.21.327M15.858 19.46c.053-.11.107-.202.15-.252.154-.013.21.073.277.177.066.103.063.23-.107.218-.17-.012-.263-.048-.32-.143M14.53 17.5c.045-.11.174-.15.21-.234.143.088.21.082.33.058.12-.022.44.087.624.279.183.19.065.17-.148.14-.212-.03-.372-.067-.518-.036a.532.532 0 0 1-.497-.207M16.409 18.392c-.101-.062-.151-.105-.072-.197.078-.092.12-.05.212.005.093.053.134.13.082.197-.053.067-.121.057-.222-.005M16.907 18.55c-.102-.003-.094-.067-.08-.117.014-.05.027-.083.11-.08.083.001.095.02.068.103-.027.082-.034.095-.098.093M17.215 18.46c.003-.115-.017-.108.098-.125.116-.016.154-.01.158.099.004.109.01.147-.125.15-.134.004-.133-.04-.13-.123M17.69 18.369c-.033-.092-.079-.168.062-.222.142-.054.147-.016.189.106.042.122.047.18-.062.21-.109.029-.147.022-.189-.094M18.195 18.335a1.44 1.44 0 0 0-.065-.238c.058-.024.135-.054.194-.091.058-.037.139.067.11.162-.027.095-.132.246-.24.167M18.793 19.86c-.018-.063-.077-.275-.1-.333.166-.041.294-.064.408-.055.115.009.3.045.39.028.09-.017.138.073-.01.185-.15.11-.24.128-.336.127-.095-.003-.258.115-.352.049M19.429 19.07c-.113.019-.177-.073-.098-.135.078-.063.179-.035.19.023.013.058.017.096-.092.113M19.685 19.102c.007-.057.022-.16.023-.204.085-.081.173.004.264-.077.09-.081.158.003.176.087.018.083.029.128-.047.126-.167-.003-.278.14-.416.068M17.874 21.066c.02-.044.073-.145.074-.196.078-.05.258-.103.307-.013.049.09.067.13-.017.172-.083.043-.266.199-.364.037M18.56 20.908c-.055-.062-.011-.096.067-.138.078-.044.133.028.126.085-.008.058-.112.144-.193.053M16.04 16.563c.058-.052.105-.126.09-.21-.016-.086.036-.119.096-.144.06-.023.217-.17.247-.01.031.161-.103.414-.197.428-.093.016-.136.015-.179.065-.044.05-.17-.029-.057-.129M21.285 17.238c-.04-.145-.196-.462-.296-.525-.154.074-.436.136-.463.22.056.154.111.283.154.377.175.038.456.053.605-.072M20.326 17.456a2.183 2.183 0 0 0-.1-.445c-.178-.02-.605.063-.75.01.007.118.003.272.036.35.272.005.524.181.814.085" fill="#eee"/></g></svg>