<svg xmlns="http://www.w3.org/2000/svg" viewBox="0 0 45 45"><defs><clipPath id="a"><path d="M0 36h36V0H0v36z"/></clipPath></defs><g clip-path="url(#a)" transform="matrix(1.25 0 0 -1.25 0 45)"><path d="M36 9a4 4 0 0 0-4-4H4a4 4 0 0 0-4 4v18a4 4 0 0 0 4 4h28a4 4 0 0 0 4-4V9z" fill="#265fb5"/><path d="M23.747 17.03c.017-.05-.137-.018-.34-.309-.207-.289-.069-.682-.069-.682s-.239-.188-.394-.36c-.153-.17-.153-.496-.153-.496s-.205-.016-.496-.255c-.29-.239-.29-.666-.29-.666s-.205.051-.513-.207c-.308-.255-.308-.597-.308-.597s-.222.172-.684-.05a4.174 4.174 0 0 1-.87-.6s-3.47.035-3.727.411c-.257.374-.94.204-.94.204s.068.224-.274.445c-.34.221-.666.12-.666.12s.188.101.102.274c-.085.17-.324.153-.324.153s.136.051.05.36c-.084.306-.58.273-.58.273s.222.135.068.426c-.154.292-.513.24-.513.24s.07.256 0 .511c-.068.258-.34.31-.34.31s.221.033.17.342c-.052.307-.394.461-.394.461s.07.204.07.547c0 .341-.207.427-.207.427s.257.12.291.41c.034.29-.154.598-.154.598s.171.137.24.36c.068.222-.035.341-.035.341s.223.137.308.376c.086.24.051.495.051.495a.8.8 0 0 0 .36.257c.17.205.085.393.085.393s.393-.017.58.188c.19.205.206.462.206.462s.24-.035.547.188c.308.221.273.427.273.427s.29-.086.53.068c.24.154.36.427.36.427s.084-.119.443 0c.36.121.496.24.496.24s.137-.205.48-.137c.34.068.613.29.613.29s.053-.239.428-.17c.376.068.53.188.53.188s-.034-.257.24-.326a.955.955 0 0 1 .53.036s.033-.189.221-.223a.394.394 0 0 1 .324.102s.034-.273.326-.427c.29-.154.768-.068.768-.068s-.017-.137.188-.239c.206-.104.411-.138.411-.138s-.069-.29.257-.392c.324-.103.512-.103.512-.103s.034-.24.153-.478c.121-.24.428-.343.428-.343s-.103-.153-.05-.426c.05-.274.443-.393.443-.393s-.102-.189-.034-.445a1.1 1.1 0 0 1 .256-.444s-.12-.257-.136-.479c-.017-.222.257-.82.257-.82s-.274-.154-.257-.462c.016-.307.136-.564.153-.615m2.188.65a1.136 1.136 0 0 1-.22.58s.306.29.29.72c-.019.426-.429.733-.429.733s.138.154.154.48a.46.46 0 0 1-.256.443s.102.273-.05.445c-.156.171-.395.154-.395.154s.223.222.07.53c-.155.307-.428.375-.428.375s.068.376-.205.65c-.274.273-.752.24-.752.24s.084.563-.154.802c-.24.24-.769.085-.769.085.085.206-.069.582-.325.753-.257.17-.974.102-.974.102.051.188-.154.427-.462.53-.307.102-.615-.05-.615-.05s-.29.341-.547.358c-.256.017-.444-.103-.444-.103s-.138.308-.446.308c-.306 0-.922-.41-.922-.41s-.7.324-1.042.307c-.342-.017-.53-.239-.53-.239s-.359.205-.77.017c-.409-.188-.444-.462-.444-.462s-.256.137-.666.052c-.41-.086-.462-.513-.462-.513s-.324.137-.649-.085c-.325-.223-.239-.445-.239-.445s-.24.188-.633-.017c-.393-.205-.393-.564-.393-.564s-.256.068-.564-.342c-.308-.41-.256-.58-.256-.58s-.325-.018-.513-.496c-.188-.479 0-.718 0-.718s-.274-.12-.479-.53c-.205-.41-.068-.82-.068-.82s-.376-.172-.342-.667c.034-.496.36-.615.36-.615s-.29-.154-.326-.547c-.034-.393.223-.547.223-.547s-.257-.154-.274-.479c-.017-.323.547-.513.547-.513s-.205-.119-.205-.427c0-.307.41-.443.41-.443s-.17-.155-.068-.549c.102-.39.461-.39.461-.39-.102-.292.24-.395.24-.395s-.154-.102.12-.429c.273-.322.546-.203.546-.203-.119-.359.222-.478.222-.478.035-.633.735-.48.735-.48.12-.58.564-.444.564-.444s-.188-.256.103-.564c.291-.309.752-.205.752-.205.256-.41.82-.563 1.453-.46.631.101 1.316.135 1.64.22.325.085 2.48-.016 2.48-.016s.82-.188 1.263.05c.444.241.41.462.41.462s.24-.153.701.068c.461.223.376.703.376.703s.427 0 .667.221c.24.22.154.36.154.36s.375.186.511.356c.138.172.02.343.02.343s.17-.085.476.187c.31.275.274.72.274.72s.222-.035.411.272c.188.308.067.581.067.581s.257.19.411.581c.154.393.018.805.018.805s.204.307.187.631" fill="#fff"/><path d="M17.925 11.777c-3.637 0-6.6 2.75-6.723 6.358a6.73 6.73 0 1 1 13.448 0c-.123-3.609-3.087-6.358-6.725-6.358" fill="#ffb636"/><path d="M19.867 25.2s-.216.33-.66.273c-.445-.057-1.026.17-1.379.353-.353.183-.9-.09-.9-.535 0-.444.285-.661.695-.661s.97.183 1.355.444c.322.218.89.126.89.126" fill="#b58fe5"/><path d="M19.867 25.2s-.216.33-.66.273c-.445-.057-1.026.17-1.379.353-.353.183-.9-.09-.9-.535 0-.444.285-.661.695-.661s.97.183 1.355.444c.322.218.89.126.89.126z" fill="none" stroke="#6b26b5" stroke-width=".008" stroke-miterlimit="10"/><path d="M24.243 22.385c.604 0 .614-.535.627-.751.011-.217.103-.673.25-.855.148-.182.32-.615.343-.797.022-.183 0-.366-.16-.126-.16.239-.537.718-.9.923-.365.205-.809.502-.809.958 0 .455.376.648.65.648" fill="#b58fe5"/><path d="M24.243 22.385c.604 0 .614-.535.627-.751.011-.217.103-.673.25-.855.148-.182.32-.615.343-.797.022-.183 0-.366-.16-.126-.16.239-.537.718-.9.923-.365.205-.809.502-.809.958 0 .455.376.648.65.648z" fill="none" stroke="#6b26b5" stroke-width=".008" stroke-miterlimit="10"/><path d="M25.246 18.534c.421 0 .593-.319.593-.672 0-.353-.206-.65-.297-1.002-.09-.354-.057-.855-.126-1.026-.068-.172-.159-.263-.159-.263s-.102.148-.125.388c-.024.24 0 .615-.17.913-.172.295-.41.67-.41 1.013 0 .341.421.65.694.65" fill="#b58fe5"/><path d="M25.246 18.534c.421 0 .593-.319.593-.672 0-.353-.206-.65-.297-1.002-.09-.354-.057-.855-.126-1.026-.068-.172-.159-.263-.159-.263s-.102.148-.125.388c-.024.24 0 .615-.17.913-.172.295-.41.67-.41 1.013 0 .341.421.65.694.65z" fill="none" stroke="#6b26b5" stroke-width=".008" stroke-miterlimit="10"/><path d="M10.342 20.391s.171-.182.262-.399c.091-.216.137-.592.33-.83.194-.24.605-.935.605-1.232a.584.584 0 0 0-.605-.592c-.387 0-.822.33-.842.695-.035.626.331.545.285.991-.035.33-.012.376-.023.547-.015.223-.012.82-.012.82" fill="#b58fe5"/><path d="M10.342 20.391s.171-.182.262-.399c.091-.216.137-.592.33-.83.194-.24.605-.935.605-1.232a.584.584 0 0 0-.605-.592c-.387 0-.822.33-.842.695-.035.626.331.545.285.991-.035.33-.012.376-.023.547-.015.223-.012.82-.012.82z" fill="none" stroke="#6b26b5" stroke-width=".008" stroke-miterlimit="10"/><path d="M14.262 24.607s-.398-.353-.604-.9c-.205-.547-.421-1.401-1.047-1.401-.525 0-.662.444-.662.718 0 .273.353.569.707.683.353.114.575.28.752.502.273.34.809.409.809.409" fill="#b58fe5" stroke="#6b26b5" stroke-width=".008" stroke-miterlimit="10"/><path d="M16.826 22.977c.877 0 1.527-.022 1.982-.022.457 0 .912-.147.912-.57 0-.422-.227-.57-.227-.57s.09-.318-.057-.66c-.15-.342-.411-.525-.88-.525-.465 0-1.297-.01-1.525-.01-.227 0-.442.054-.593.57-.444 1.525-.08 1.787.388 1.787M17.088 20.608h1.72c.194 0 .366 0 .387-.547.024-.547.98-8.16 1.038-8.728.056-.57-.422-.638-.422-.638s-.136-.262-.763-.444-.855-.114-1.071-.057c-.217.057-.456.125-.764 0a.952.952 0 0 0-.843.045c-.262.136-.285.343-.285.343s-.171.046-.376.204c-.205.158-.194.547-.137.81.057.26.923 7.656.992 8.18.068.524.148.832.524.832" fill="#8c8a8c"/><path d="M17.955 22.697l1.026-3.21 3.4-.006-2.765-1.98 1.076-3.225-2.737 2.02-2.736-2.02 1.076 3.226-2.768 1.979 3.403.007 1.025 3.209z" fill="#fff"/><path d="M12.109 18.717s-.202.647-.661.558c-.354-.07-.251-.251-.137-.353.114-.102.114-.171.216-.102.103.068.263.056.342-.023.08-.08.24-.08.24-.08M10.673 20.529s.068-.07.148-.206c.08-.136.388-.205.513-.16.125.046.159-.33.045-.432-.113-.102-.245-.153-.467.046-.32.284-.24.752-.24.752M11.744 20.471c.17.058.33-.09.308-.319-.023-.228-.262-.684-.262-.684s-.046.091-.08.206c-.034.113.125.17.023.353-.103.182.01.444.01.444M11.254 22.112s.24-.228.376-.274c.136-.046.41.07.49-.114.08-.182.102-.57-.217-.467a.808.808 0 0 0-.524.467c-.08.171-.125.388-.125.388M12.952 22.625c.137.148.479.16.5-.125.024-.285-.215-.81-.215-.81s-.07.183-.08.262c-.011.08-.08.331-.228.387-.148.059.023.286.023.286M13.567 23.331c.194.137.41.023.468-.148.056-.172-.07-.798-.172-.934l-.068.227c-.022.08.01.387-.251.456-.262.068.023.4.023.4M14.65 25.086s-.639-.581-.263-1.026c.376-.444.433 0 .387.137-.045.137-.01.148-.09.274a.388.388 0 0 0-.035.364c.046.103 0 .25 0 .25" fill="#ffb636"/><path d="M14.205 23.65c-.023-.171.034-.251.137-.33.102-.08.045-.4.045-.4s.205.046.251.423c.046.376-.102.569-.205.569-.102 0-.228-.262-.228-.262M15.071 24.197c-.103-.126-.126-.421.045-.547.171-.125.103-.513.103-.513s.25.148.273.502c.023.353-.194.604-.194.604l-.227-.046zM15.88 25.44s-.559-.492-.274-.9c.285-.411.56.09.456.193-.103.103-.273.194-.205.376.068.183.023.33.023.33" fill="#ffb636"/><path d="M15.926 24.38c.182.056.296-.07.33-.263.035-.194-.25-.763-.25-.763s-.125.114-.07.284c.058.171-.055.285-.158.387-.103.104-.034.297.148.354M17.236 24.732c-.213-.05-.33-.25-.148-.399.182-.148.17-.227.126-.34-.046-.116.01-.252.01-.252s.24.125.308.48c.069.351-.102.557-.296.511M20.038 25.416s-.204-.456.034-.752c.24-.296.468-.068.456.103-.01.17-.17.205-.273.274-.102.068-.159.068-.137.17.024.103-.08.206-.08.206M20.05 24.47c-.103-.045-.147-.375-.091-.478.058-.102-.08-.228-.114-.353l-.034-.126s.285.092.468.365c.182.274.193.502.079.58-.114.08-.307.013-.307.013M21.03 25.223s-.502-.421-.456-.821c.046-.398.422-.307.49-.114.068.194-.057.354-.079.468-.023.114.022.182.056.273.034.09 0 .194-.01.194" fill="#ffb636"/><path d="M20.894 24.106c-.104-.126-.046-.376-.046-.524 0-.148-.17-.296-.16-.434 0 0 .514.126.582.662.068.536-.376.296-.376.296M21.645 24.368c.215.171.593.148.878.045 0 0-.08-.182-.239-.17-.16.011-.08-.319-.479-.376-.399-.058-.33.364-.16.501M21.896 23.502c-.2-.08-.308-.354-.114-.456.193-.102.17-.16.16-.307-.013-.149.08-.262.08-.262s.146.216.181.558c.035.342-.079.558-.307.467M22.558 23.24c.022.217.308.422.58.422a.926.926 0 0 0 .445-.103s-.011-.102-.216-.113c-.205-.012-.217-.41-.56-.434-.341-.022-.25.228-.25.228M24.596 19.31s.126.125.32.135c.193.012.375-.18.49-.33.113-.148.17-.353.17-.353s-.16 0-.216.091c-.057.091-.502.023-.718.183 0 0-.091-.103-.204-.17-.115-.07-.32-.013-.4-.16-.08-.149-.215-.25-.215-.25s-.046.454.158.682c.206.228.297.251.433.228.137-.023.182-.057.182-.057" fill="#ffb636"/><path d="M12.747 22.408s.205-.137.103-.558c-.103-.422-.23-.945-.148-1.299 0 0-.285.342-.251.684.034.342.285.581.205.843-.08.262.09.33.09.33" fill="#207900"/><path d="M12.747 22.408s.205-.137.103-.558c-.103-.422-.23-.945-.148-1.299 0 0-.285.342-.251.684.034.342.285.581.205.843-.08.262.09.33.09.33z" fill="none" stroke="#103800" stroke-width=".034" stroke-miterlimit="10"/><path d="M12.234 21.6c.068-.32.148-.867.114-1.152-.034-.285-.32-.512-.32-.512s.172.364.126.797c-.04.374.08.866.08.866" fill="#207900"/><path d="M12.234 21.6c.068-.32.148-.867.114-1.152-.034-.285-.32-.512-.32-.512s.172.364.126.797c-.04.374.08.866.08.866z" fill="none" stroke="#103800" stroke-width=".034" stroke-miterlimit="10"/><path d="M11.14 19.093s-.15-.226-.148-.388c.002-.162.16-.262.251-.262.375 0 .32.433.193.616 0 0 .126.102.171.307.046.205-.136.365-.136.365s.216 0 .284.228c.07.228-.046.455-.046.455s.206.034.297.274c.091.239-.012.422-.012.422s.183.01.308.216c.126.205.068.399.068.399s.137-.023.296.182c.16.206.115.399.115.399s.16.01.307.148c.15.136.16.387.16.387s.148-.011.32.137c.17.148.158.296.158.296s.183-.057.388.08c.205.137.205.354.205.354s.137-.08.387.056c.251.137.24.32.24.32s.148-.103.398.033c.251.138.262.263.262.263s.115-.092.342-.012c.228.08.308.263.308.263s.08-.172.353-.104a.507.507 0 0 1 .353.286s.114-.194.331-.194c.216 0 .4.16.4.16s.09-.137.306-.137c.217 0 .376.137.376.137s.07-.092.342-.115c.274-.022.377.057.377.057s.101-.17.273-.216c.17-.046.387.034.387.034s.056-.171.262-.251a.633.633 0 0 1 .411 0s-.012-.193.227-.273c.24-.08.41 0 .41 0s.068-.206.284-.307c.217-.103.377-.08.377-.08s.012-.171.193-.296c.182-.126.377-.115.377-.115s0-.205.171-.341c.171-.137.353-.171.353-.171s-.08-.194.046-.342c.125-.148.363-.25.363-.25s-.034-.195.07-.354a.714.714 0 0 1 .307-.24s.012-.136.068-.307c.057-.171.331-.273.331-.273s-.103-.183-.057-.354c.046-.171.274-.318.274-.318s-.08-.092-.058-.275c.023-.181.217-.375.217-.375s-.045-.103-.058-.376c-.01-.274.16-.376.16-.376s-.113-.126-.125-.331c-.01-.205.171-.398.342-.387.172.01.25.125.23.33-.025.206-.197.41-.197.41s.15.16.14.354c-.015.194-.264.433-.264.433s.103.057.091.318c-.012.263-.239.354-.239.354s.08.068.022.342c-.056.273-.26.34-.26.34s.055.149-.036.378c-.09.227-.33.285-.33.285s0 .182-.08.387c-.08.205-.319.194-.319.194s.034.274-.137.433c-.17.159-.376.17-.376.17s.068.183-.137.377c-.205.193-.387.113-.387.113s0 .263-.229.422c-.226.16-.364.09-.364.09s-.01.16-.228.275c-.216.114-.409.08-.409.08s-.01.193-.25.285c-.24.09-.434.022-.434.022s0 .17-.262.262c-.263.092-.423.023-.423.023s-.067.125-.272.205c-.205.08-.445-.046-.445-.046s-.159.17-.387.194c-.228.023-.364-.091-.364-.091s-.069.114-.33.137c-.263.022-.377-.126-.377-.126s-.046.08-.285.103c-.239.023-.432-.228-.432-.228s-.206.159-.422.125a.555.555 0 0 1-.342-.216s-.126.09-.365.034c-.24-.057-.34-.24-.34-.24s-.104.058-.332-.033c-.228-.091-.285-.331-.285-.331s-.148.103-.422-.056c-.273-.16-.26-.297-.26-.297s-.116.046-.343-.08c-.229-.125-.194-.387-.194-.387s-.182.079-.41-.091c-.228-.171-.16-.376-.16-.376s-.273.01-.399-.183c-.125-.193-.102-.41-.102-.41s-.239-.023-.353-.205c-.114-.182-.046-.4-.046-.4s-.216 0-.33-.215c-.115-.217-.046-.41-.046-.41s-.216-.057-.297-.297c-.079-.24.012-.398.012-.398s-.25-.07-.307-.297a.648.648 0 0 1 .045-.421s-.148-.091-.194-.32a.437.437 0 0 1 .103-.375" fill="#de200f"/><path d="M11.14 18.83s.117-.096.25 0c0 0 .091-.325-.147-.285-.208.036-.103.285-.103.285M11.209 19.451s.05-.048.128-.054c.077-.006.142.023.142.023s.006-.086-.028-.165c-.035-.08-.089-.168-.192-.134-.102.034-.094.168-.082.225a.604.604 0 0 0 .031.105M11.388 20.19s.068-.058.134-.064a.61.61 0 0 1 .145.012s-.008-.095-.05-.178c-.038-.082-.112-.136-.194-.116-.083.02-.083.131-.08.197a.454.454 0 0 0 .045.148M11.648 20.881s.045-.059.105-.077c.06-.017.15-.02.15-.02s-.022-.108-.06-.162c-.036-.054-.116-.125-.193-.09-.078.033-.086.127-.069.21a.34.34 0 0 0 .067.14M11.986 21.545s.042-.069.114-.088c.071-.02.148-.02.148-.02s-.032-.083-.077-.149a.183.183 0 0 0-.214-.07c-.069.025-.074.133-.05.198.022.067.08.13.08.13M12.394 22.177s.03-.069.085-.105c.069-.046.148-.05.148-.05s-.093-.12-.136-.155c-.043-.035-.168-.094-.231.011-.05.081 0 .165.03.205.033.04.104.094.104.094M12.835 22.778s.022-.083.082-.119a.444.444 0 0 1 .146-.05s-.093-.232-.26-.207c-.168.026-.125.18-.091.24.035.06.123.136.123.136M13.359 23.28s.04-.087.077-.117c.049-.04.129-.07.129-.07s-.102-.143-.22-.164c-.114-.02-.191.06-.185.148.007.114.199.203.199.203M13.937 23.753s.021-.086.066-.126c.046-.04.133-.085.133-.085s-.108-.151-.236-.151c-.127 0-.168.054-.168.125 0 .072.049.14.086.166.037.026.119.07.119.07M14.567 24.166s.008-.096.054-.157c.03-.041.122-.082.122-.082s-.105-.131-.236-.131-.171.066-.171.143c0 .077.06.136.103.168a.582.582 0 0 0 .128.059M15.23 24.494s-.005-.103.026-.151c.031-.05.117-.105.117-.105s-.105-.075-.191-.086c-.085-.012-.16.003-.185.1-.025.096.043.162.083.188.04.025.15.054.15.054M15.903 24.793s-.003-.094.042-.176c.03-.054.086-.106.086-.106s-.082-.077-.225-.07c-.14.01-.164.123-.142.2.034.123.239.152.239.152M16.649 24.975s-.031-.117-.003-.185a.305.305 0 0 1 .086-.111s-.103-.057-.217-.057c-.113 0-.194.079-.171.194.035.164.305.159.305.159M17.375 25.04s-.023-.082-.02-.13a.241.241 0 0 1 .062-.157s-.099-.051-.216-.023c-.116.029-.157.065-.154.163.003.096.1.14.168.153.068.015.16-.005.16-.005M17.811 24.915c-.005.06.088.156.276.154a.413.413 0 0 1 .003-.157c.017-.051-.279.003-.279.003M18.535 24.932c.048.105.265.111.342.068 0 0-.06-.122-.03-.188.027-.065-.312.12-.312.12M19.617 24.86s-.08-.056-.09-.121a.397.397 0 0 1 .022-.163s-.114.009-.198.04a.184.184 0 0 0-.116.21c.017.078.106.103.186.106.08.003.196-.071.196-.071M20.31 24.619s-.046-.017-.073-.102c-.03-.086-.007-.17-.007-.17a.464.464 0 0 0-.223.1c-.068.059-.076.124-.042.198.034.073.119.07.195.059.073-.011.15-.085.15-.085M20.637 24.394c.045.08.23.042.285 0 .054-.043.069-.08.069-.08s-.063-.014-.092-.08c-.03-.065-.008-.16-.008-.16s-.085.024-.16.072c-.074.048-.156.133-.094.248M21.286 24.038c.048.103.18.083.245.04.066-.043.108-.105.108-.105s-.068-.02-.099-.08c-.03-.06-.034-.166-.034-.166s-.1.032-.168.095c-.069.062-.086.142-.052.216M21.907 23.67c.06.074.148.057.214.006a.44.44 0 0 0 .107-.15s-.067-.016-.104-.061c-.037-.046-.037-.136-.037-.136s-.085.025-.155.105c-.067.079-.07.18-.025.236M22.453 23.197c.067.076.17.042.221-.008a.754.754 0 0 0 .102-.174s-.093-.006-.128-.046c-.034-.04-.056-.137-.056-.137s-.058.034-.115.12-.077.182-.024.245M22.98 22.679c.075.07.198.003.231-.04.049-.062.064-.154.064-.154s-.065-.011-.106-.04a.396.396 0 0 1-.08-.122s-.066.034-.109.11c-.042.078-.067.18 0 .246M23.536 22.058c.157.006.24-.188.24-.188s-.159.003-.215-.125c-.053-.128-.067.173-.067.21 0 .038.042.103.042.103M23.798 21.471c.094.075.192.02.229-.04.037-.06.07-.186.07-.186s-.096-.008-.155-.042c-.06-.034-.11-.105-.11-.105s-.048.062-.085.17c-.036.11.009.17.05.203M24.132 20.822c.093.056.17-.023.21-.07a.498.498 0 0 0 .067-.167s-.103-.002-.15-.031c-.044-.028-.104-.12-.104-.12s-.054.095-.078.172c-.022.076-.01.176.055.216M24.4 20.17c.1.041.178-.055.191-.127.011-.07.02-.176.02-.176s-.049.023-.135 0c-.089-.024-.125-.066-.125-.066s-.046.08-.058.168c-.01.09.007.158.107.2M24.56 19.437c.14.035.186-.077.188-.17.002-.098-.002-.143-.002-.143s-.063.02-.135 0c-.071-.019-.113-.08-.113-.08s-.041.092-.055.18c-.014.088.012.187.118.213M24.61 18.727c.101.026.198-.074.203-.154.006-.079.003-.17.003-.17s-.068.025-.13.014a.408.408 0 0 1-.143-.077s-.027.083-.037.162c-.01.08-.005.197.104.225" fill="#ffe301"/><path d="M22.876 22.43c.265.077.273-.204.331-.33.056-.124-.069-.512-.195-.648 0 0-.079.045-.056.182.022.136-.263.42-.273.547-.013.125.113.228.193.25" fill="#ffb636"/><path d="M19.07 23.673s.32.09.32.592-.718.821-1.095.627l.126-.274s-.012.023.205.023.463-.164.513-.399c.068-.318-.069-.569-.069-.569" fill="#207900"/><path d="M19.07 23.673s.32.09.32.592-.718.821-1.095.627l.126-.274s-.012.023.205.023.463-.164.513-.399c.068-.318-.069-.569-.069-.569z" fill="none" stroke="#103800" stroke-width=".034" stroke-miterlimit="10"/><path d="M17.623 24.79s.251.228.559.228c.307 0 .524-.353.524-.593s-.08-.775-.604-.775c0 0 .296.205.296.605 0 .398-.239.58-.387.58-.149 0-.388-.045-.388-.045" fill="#207900"/><path d="M17.623 24.79s.251.228.559.228c.307 0 .524-.353.524-.593s-.08-.775-.604-.775c0 0 .296.205.296.605 0 .398-.239.58-.387.58-.149 0-.388-.045-.388-.045z" fill="none" stroke="#103800" stroke-width=".034" stroke-miterlimit="10"/><path d="M23.617 22.271s-.104-.41.034-.729c.137-.319.398-1.197-.126-1.527 0 0 .07.41.058.74-.012.331-.217.684-.229.981-.01.296.263.535.263.535" fill="#207900"/><path d="M23.617 22.271s-.104-.41.034-.729c.137-.319.398-1.197-.126-1.527 0 0 .07.41.058.74-.012.331-.217.684-.229.981-.01.296.263.535.263.535z" fill="none" stroke="#103800" stroke-width=".034" stroke-miterlimit="10"/><path d="M24.118 21.166s-.026-.35-.012-.627c.024-.433.718-1.003.502-1.64 0 0-.103.376-.239.638-.138.262-.422.775-.41 1.049.011.273.16.58.16.58" fill="#207900"/><path d="M24.118 21.166s-.026-.35-.012-.627c.024-.433.718-1.003.502-1.64 0 0-.103.376-.239.638-.138.262-.422.775-.41 1.049.011.273.16.58.16.58z" fill="none" stroke="#103800" stroke-width=".034" stroke-miterlimit="10"/><path d="M24.778 17.965s.388-.501.365-.89c-.022-.387-.272-.818-.16-1.15 0 0-.25.309-.159.844.092.535-.046 1.196-.046 1.196" fill="#207900"/><path d="M24.778 17.965s.388-.501.365-.89c-.022-.387-.272-.818-.16-1.15 0 0-.25.309-.159.844.092.535-.046 1.196-.046 1.196z" fill="none" stroke="#103800" stroke-width=".034" stroke-miterlimit="10"/><path d="M24.722 18.021s.27-.466.262-.764c-.011-.488-.307-1.012-.41-1.332-.103-.319-.148-.889-.148-.889s-.114.354-.091.662c.023.307.32.967.376 1.469.056.502.01.854.01.854" fill="#207900"/><path d="M24.722 18.021s.27-.466.262-.764c-.011-.488-.307-1.012-.41-1.332-.103-.319-.148-.889-.148-.889s-.114.354-.091.662c.023.307.32.967.376 1.469.056.502.01.854.01.854z" fill="none" stroke="#103800" stroke-width=".034" stroke-miterlimit="10"/><path d="M10.935 17.873s0-.558.023-.787c.023-.225.513-.98.58-1.353.069-.377-.215-.776-.215-.776s.034.433 0 .66c-.034.229-.558 1.025-.547 1.436.01.41.159.82.159.82" fill="#207900"/><path d="M10.935 17.873s0-.558.023-.787c.023-.225.513-.98.58-1.353.069-.377-.215-.776-.215-.776s.034.433 0 .66c-.034.229-.558 1.025-.547 1.436.01.41.159.82.159.82z" fill="none" stroke="#103800" stroke-width=".034" stroke-miterlimit="10"/><path d="M11.003 15.299s.171.148.16.386c-.012.24-.138.594-.25.889-.115.298-.16.753-.104.912.057.16.125.388.125.388s-.307-.343-.34-.662c-.036-.318.038-.811.215-1.14.228-.42.194-.773.194-.773" fill="#207900"/><path d="M11.003 15.299s.171.148.16.386c-.012.24-.138.594-.25.889-.115.298-.16.753-.104.912.057.16.125.388.125.388s-.307-.343-.34-.662c-.036-.318.038-.811.215-1.14.228-.42.194-.773.194-.773z" fill="none" stroke="#103800" stroke-width=".034" stroke-miterlimit="10"/></g></svg>