<svg xmlns="http://www.w3.org/2000/svg" viewBox="0 0 45 45"><defs><clipPath id="a"><path d="M4 31a4 4 0 0 1-4-4V9a4 4 0 0 1 4-4h28a4 4 0 0 1 4 4v18a4 4 0 0 1-4 4H4z"/></clipPath></defs><g clip-path="url(#a)" transform="matrix(1.25 0 0 -1.25 0 45)"><path d="M0 31V11.677L26.496 31H0z" fill="#009e49"/><path d="M36 24.814L8.767 5H36v19.814z" fill="#ce1126"/><path d="M29.066 31h-2.57L0 11.677V9.803L29.066 31zM36 26.688L6.197 5h2.57L36 24.814v1.873z" fill="#fcd116"/><path d="M29.066 31L0 9.803V5.047h.066L0 5h6.197L36 26.688V31h-6.934z" fill="#141414"/><path d="M25.087 19.876l.79 2.443 2.565.004-2.079 1.505.79 2.443-2.075-1.513L23 26.263l.798-2.44-2.074-1.512 2.566.005.798-2.44zM12.396 13.642l.79 2.442-2.075-1.512-2.079 1.505.797-2.44-2.073-1.512 2.566.005.798-2.44.788 2.442 2.567.005-2.079 1.505z" fill="#fff"/></g></svg>