<svg xmlns="http://www.w3.org/2000/svg" viewBox="0 0 45 45"><defs><clipPath id="a"><path d="M4 31a4 4 0 0 1-4-4V9a4 4 0 0 1 4-4h28a4 4 0 0 1 4 4v18a4 4 0 0 1-4 4H4z"/></clipPath></defs><g clip-path="url(#a)" transform="matrix(1.25 0 0 -1.25 0 45)"><path d="M24.167 31L0 5l36 17.333V31H24.167z" fill="#d62828"/><path d="M12 31L0 5l24.167 26H12z" fill="#fcd856"/><path d="M0 31V5l12 26H0z" fill="#003f87"/><path d="M36 13.667v8.667L0 5l36 8.667z" fill="#eee"/><path d="M36 5v8.667L0 5h36z" fill="#007a3d"/></g></svg>