<svg xmlns="http://www.w3.org/2000/svg" viewBox="0 0 45 45"><defs><clipPath id="a"><path d="M0 36h36V0H0v36z"/></clipPath></defs><g clip-path="url(#a)" transform="matrix(1.25 0 0 -1.25 0 45)"><path d="M36 9a4 4 0 0 0-4-4H4a4 4 0 0 0-4 4v18a4 4 0 0 0 4 4h28a4 4 0 0 0 4-4V9z" fill="#009543"/><path d="M36 13H0v10h36V13z" fill="#eee"/><path d="M32 31H4a4 4 0 0 1-4-4v-4h36v4a4 4 0 0 1-4 4" fill="#00209f"/><path d="M16.906 20.219c0 .594.26 1.138.753 1.312V20.41l-.487-.488h.487v-.727c0-.025.021-.041.027-.064l-.345-.458c-.205.369-.435.982-.435 1.546m2.188 0c0-.554-.222-1.157-.424-1.53l-.352.452c.004.02.022.033.022.054v.727h.488l-.488.488v1.12c.494-.173.754-.717.754-1.311M21.2 16.14c-.016.047-.426-.141-.426-.141l-1.846 2.362c.226.405.49 1.073.49 1.904 0 1.24-.658 1.567-1.077 1.654v.055a.31.31 0 0 1-.31.31h-.06a.311.311 0 0 1-.31-.31v-.055c-.419-.087-1.077-.413-1.077-1.654 0-.848.275-1.528.504-1.93L15.328 16s-.359.188-.375.14c-.016-.046-.75-1.218-.75-1.218s1.562-1.02 3.797-1.02c2 0 3.873 1.02 3.873 1.02s-.659 1.172-.674 1.219" fill="#292f33" fill-rule="evenodd"/><path d="M20.797 15.656S19.375 15.13 18 15.13c-1.375 0-2.797.526-2.797.526l-.343-.649s1.453-.65 3.14-.65c1.688 0 3.14.65 3.14.65l-.343.65z" fill="#53646d" fill-rule="evenodd"/></g></svg>