<svg xmlns="http://www.w3.org/2000/svg" viewBox="0 0 45 45"><defs><clipPath id="a"><path d="M0 36h36V0H0v36z"/></clipPath><clipPath id="b"><path d="M4 31a4 4 0 0 1-4-4V9a4 4 0 0 1 4-4h28a4 4 0 0 1 4 4v18a4 4 0 0 1-4 4H4z"/></clipPath><clipPath id="c"><path d="M0 14h10v7.999H0V14z"/></clipPath><clipPath id="d"><path d="M4 31a4 4 0 0 1-4-4V9a4 4 0 0 1 4-4h28a4 4 0 0 1 4 4v18a4 4 0 0 1-4 4H4z"/></clipPath></defs><g clip-path="url(#a)" transform="matrix(1.25 0 0 -1.25 0 45)"><path d="M36 9a4 4 0 0 0-4-4H4a4 4 0 0 0-4 4v18a4 4 0 0 0 4 4h28a4 4 0 0 0 4-4V9z" fill="#0092c8"/></g><g clip-path="url(#b)" transform="matrix(1.25 0 0 -1.25 0 45)"><path d="M10 4H0v28h10V4z" fill="#ca0000"/><path d="M10 21H0v11h10V21z" fill="#dc241f"/><path d="M0 22.51l10 9v-2l-10-9v2z" fill="#009543"/><path d="M0 29.51l10-9v2l-10 9v-2z" fill="#009543"/><path d="M6 22H4v10h2V22z" fill="#eee"/><path d="M10 25H0v2.021h10V25zM10 14H0v8h10v-8z" fill="#eee"/></g><g clip-path="url(#c)" transform="matrix(1.25 0 0 -1.25 0 45)"><path d="M2.079 18.68c.062-.094.01-.172-.116-.172h-.581c-.127 0-.178.078-.115.173l.29.443c.064.095.168.095.23 0l.292-.443z" fill="#292f33"/><path d="M1.805 18.984c0-.406-.06-.734-.133-.734-.073 0-.133.328-.133.734 0 .406.06.734.133.734.073 0 .133-.328.133-.734M1.805 20.15c0-.237-.06-.214-.133-.214-.073 0-.133-.023-.133.214 0 .236.06.428.133.428.073 0 .133-.192.133-.428M1.998 19.67c-.237 0-.214.06-.214.133 0 .073-.023.133.214.133.236 0 .428-.06.428-.133 0-.073-.192-.133-.428-.133M1.346 19.67c.237 0 .214.06.214.133 0 .073.023.133-.214.133-.236 0-.428-.06-.428-.133 0-.073.192-.133.428-.133M5.223 18.68c.062-.094.01-.172-.116-.172h-.581c-.127 0-.178.078-.115.173l.29.443c.064.095.168.095.23 0l.292-.443z" fill="#292f33"/><path d="M4.95 18.984c0-.406-.06-.734-.134-.734-.073 0-.133.328-.133.734 0 .406.06.734.133.734.073 0 .133-.328.133-.734M4.95 20.15c0-.237-.06-.214-.134-.214-.073 0-.133-.023-.133.214 0 .236.06.428.133.428.073 0 .133-.192.133-.428M5.143 19.67c-.237 0-.214.06-.214.133 0 .073-.023.133.214.133.236 0 .428-.06.428-.133 0-.073-.192-.133-.428-.133M4.49 19.67c.237 0 .214.06.214.133 0 .073.023.133-.214.133-.236 0-.428-.06-.428-.133 0-.073.192-.133.428-.133M8.441 18.68c.062-.094.011-.172-.116-.172h-.58c-.128 0-.179.078-.116.173l.291.443c.063.095.167.095.23 0l.291-.443z" fill="#292f33"/><path d="M8.168 18.984c0-.406-.06-.734-.133-.734-.073 0-.133.328-.133.734 0 .406.06.734.133.734.073 0 .133-.328.133-.734M8.168 20.15c0-.237-.06-.214-.133-.214-.073 0-.133-.023-.133.214 0 .236.06.428.133.428.073 0 .133-.192.133-.428M8.361 19.67c-.237 0-.214.06-.214.133 0 .073-.023.133.214.133.236 0 .428-.06.428-.133 0-.073-.192-.133-.428-.133M7.709 19.67c.237 0 .214.06.214.133 0 .073.023.133-.214.133-.236 0-.428-.06-.428-.133 0-.073.192-.133.428-.133M10.016 21.302c.062-.095.011-.173-.116-.173h-.58c-.128 0-.179.078-.116.173l.292.443c.062.095.166.095.228 0l.292-.443z" fill="#292f33"/><path d="M9.743 21.605c0-.406-.06-.734-.133-.734-.073 0-.133.328-.133.734 0 .406.06.734.133.734.073 0 .133-.327.133-.733M9.743 22.771c0-.237-.06-.214-.133-.214-.073 0-.133-.023-.133.214 0 .236.06.428.133.428.073 0 .133-.192.133-.428M9.936 22.291c-.237 0-.214.06-.214.133 0 .073-.023.133.214.133.236 0 .428-.06.428-.133 0-.073-.192-.133-.428-.133M9.284 22.291c.237 0 .214.06.214.133 0 .073.023.133-.214.133-.236 0-.428-.06-.428-.133 0-.073.192-.133.428-.133M6.797 21.302c.062-.095.011-.173-.116-.173h-.58c-.128 0-.179.078-.116.173l.291.443c.063.095.167.095.23 0l.291-.443z" fill="#292f33"/><path d="M6.524 21.605c0-.406-.06-.734-.133-.734-.073 0-.133.328-.133.734 0 .406.06.734.133.734.073 0 .133-.327.133-.733M6.524 22.771c0-.237-.06-.214-.133-.214-.073 0-.133-.023-.133.214 0 .236.06.428.133.428.073 0 .133-.192.133-.428M6.717 22.291c-.237 0-.214.06-.214.133 0 .073-.023.133.214.133.236 0 .428-.06.428-.133 0-.073-.192-.133-.428-.133M6.065 22.291c.237 0 .214.06.214.133 0 .073.023.133-.214.133-.236 0-.428-.06-.428-.133 0-.073.192-.133.428-.133M3.657 21.302c.062-.095.01-.173-.116-.173H2.96c-.127 0-.178.078-.115.173l.29.443c.064.095.168.095.23 0l.292-.443z" fill="#292f33"/><path d="M3.383 21.605c0-.406-.06-.734-.133-.734-.073 0-.133.328-.133.734 0 .406.06.734.133.734.073 0 .133-.327.133-.733M3.383 22.771c0-.237-.06-.214-.133-.214-.073 0-.133-.023-.133.214 0 .236.06.428.133.428.073 0 .133-.192.133-.428M3.577 22.291c-.237 0-.214.06-.214.133 0 .073-.023.133.214.133.236 0 .428-.06.428-.133 0-.073-.192-.133-.428-.133M2.924 22.291c.237 0 .214.06.214.133 0 .073.023.133-.214.133-.236 0-.428-.06-.428-.133 0-.073.192-.133.428-.133M.625 21.302c.062-.095.011-.173-.116-.173h-.58c-.128 0-.178.078-.116.173l.291.443c.063.095.167.095.23 0l.291-.443z" fill="#292f33"/><path d="M.352 21.605c0-.406-.06-.734-.133-.734-.073 0-.133.328-.133.734 0 .406.06.734.133.734.073 0 .133-.327.133-.733M.352 22.771c0-.237-.06-.214-.133-.214-.073 0-.133-.023-.133.214 0 .236.06.428.133.428.073 0 .133-.192.133-.428M.545 22.291c-.237 0-.214.06-.214.133 0 .073-.023.133.214.133.236 0 .428-.06.428-.133 0-.073-.192-.133-.428-.133M-.107 22.291c.237 0 .214.06.214.133 0 .073.023.133-.214.133-.236 0-.428-.06-.428-.133 0-.073.192-.133.428-.133M.625 16.102c.062-.095.011-.173-.116-.173h-.58c-.128 0-.178.078-.116.173l.291.442c.063.096.167.096.23 0l.291-.442z" fill="#292f33"/><path d="M.352 16.406c0-.406-.06-.734-.133-.734-.073 0-.133.328-.133.734 0 .406.06.734.133.734.073 0 .133-.328.133-.734M.352 17.572c0-.237-.06-.214-.133-.214-.073 0-.133-.023-.133.214 0 .236.06.428.133.428.073 0 .133-.192.133-.428M.545 17.092c-.237 0-.214.06-.214.133 0 .073-.023.133.214.133.236 0 .428-.06.428-.133 0-.073-.192-.133-.428-.133M-.107 17.092c.237 0 .214.06.214.133 0 .073.023.133-.214.133-.236 0-.428-.06-.428-.133 0-.073.192-.133.428-.133M3.672 16.102c.062-.095.011-.173-.116-.173h-.58c-.128 0-.179.078-.116.173l.291.442c.063.096.167.096.23 0l.291-.442z" fill="#292f33"/><path d="M3.399 16.406c0-.406-.06-.734-.133-.734-.073 0-.133.328-.133.734 0 .406.06.734.133.734.073 0 .133-.328.133-.734M3.399 17.572c0-.237-.06-.214-.133-.214-.073 0-.133-.023-.133.214 0 .236.06.428.133.428.073 0 .133-.192.133-.428M3.592 17.092c-.237 0-.214.06-.214.133 0 .073-.023.133.214.133.236 0 .428-.06.428-.133 0-.073-.192-.133-.428-.133M2.94 17.092c.237 0 .214.06.214.133 0 .073.023.133-.214.133-.236 0-.428-.06-.428-.133 0-.073.192-.133.428-.133M6.829 16.102c.062-.095.01-.173-.116-.173h-.581c-.127 0-.178.078-.115.173l.29.442c.064.096.168.096.23 0l.292-.442z" fill="#292f33"/><path d="M6.555 16.406c0-.406-.06-.734-.133-.734-.073 0-.133.328-.133.734 0 .406.06.734.133.734.073 0 .133-.328.133-.734M6.555 17.572c0-.237-.06-.214-.133-.214-.073 0-.133-.023-.133.214 0 .236.06.428.133.428.073 0 .133-.192.133-.428M6.748 17.092c-.237 0-.214.06-.214.133 0 .073-.023.133.214.133.236 0 .428-.06.428-.133 0-.073-.192-.133-.428-.133M6.096 17.092c.237 0 .214.06.214.133 0 .073.023.133-.214.133-.236 0-.428-.06-.428-.133 0-.073.192-.133.428-.133M10.069 16.102c.062-.095.01-.173-.116-.173h-.581c-.127 0-.178.078-.115.173l.292.442c.062.096.166.096.228 0l.292-.442z" fill="#292f33"/><path d="M9.795 16.406c0-.406-.06-.734-.133-.734-.073 0-.133.328-.133.734 0 .406.06.734.133.734.073 0 .133-.328.133-.734M9.795 17.572c0-.237-.06-.214-.133-.214-.073 0-.133-.023-.133.214 0 .236.06.428.133.428.073 0 .133-.192.133-.428M9.989 17.092c-.237 0-.214.06-.214.133 0 .073-.023.133.214.133.236 0 .428-.06.428-.133 0-.073-.192-.133-.428-.133M9.336 17.092c.237 0 .214.06.214.133 0 .073.023.133-.214.133-.236 0-.428-.06-.428-.133 0-.073.192-.133.428-.133M8.46 13.43c.061-.094.01-.172-.117-.172h-.58c-.127 0-.178.078-.115.173l.29.442c.064.096.168.096.23 0l.292-.442z" fill="#292f33"/><path d="M8.186 13.734c0-.406-.06-.734-.133-.734-.073 0-.133.328-.133.734 0 .406.06.734.133.734.073 0 .133-.328.133-.734M8.186 14.9c0-.238-.06-.215-.133-.215-.073 0-.133-.023-.133.215 0 .236.06.428.133.428.073 0 .133-.192.133-.428M8.38 14.42c-.238 0-.215.06-.215.133 0 .073-.023.133.214.133.236 0 .428-.06.428-.133 0-.073-.192-.133-.428-.133M7.727 14.42c.237 0 .214.06.214.133 0 .073.023.133-.214.133-.236 0-.428-.06-.428-.133 0-.073.192-.133.428-.133M5.256 13.43c.062-.094.011-.172-.116-.172h-.58c-.128 0-.179.078-.116.173l.291.442c.063.096.167.096.23 0l.291-.442z" fill="#292f33"/><path d="M4.983 13.734c0-.406-.06-.734-.133-.734-.073 0-.133.328-.133.734 0 .406.06.734.133.734.073 0 .133-.328.133-.734M4.983 14.9c0-.238-.06-.215-.133-.215-.073 0-.133-.023-.133.215 0 .236.06.428.133.428.073 0 .133-.192.133-.428M5.176 14.42c-.237 0-.214.06-.214.133 0 .073-.023.133.214.133.236 0 .428-.06.428-.133 0-.073-.192-.133-.428-.133M4.524 14.42c.237 0 .214.06.214.133 0 .073.023.133-.214.133-.236 0-.428-.06-.428-.133 0-.073.192-.133.428-.133M2.041 13.43c.062-.094.011-.172-.116-.172h-.581c-.127 0-.178.078-.115.173l.291.442c.063.096.167.096.229 0l.292-.442z" fill="#292f33"/><path d="M1.768 13.734c0-.406-.06-.734-.133-.734-.073 0-.133.328-.133.734 0 .406.06.734.133.734.073 0 .133-.328.133-.734M1.768 14.9c0-.238-.06-.215-.133-.215-.073 0-.133-.023-.133.215 0 .236.06.428.133.428.073 0 .133-.192.133-.428M1.96 14.42c-.236 0-.213.06-.213.133 0 .073-.023.133.214.133.236 0 .428-.06.428-.133 0-.073-.192-.133-.428-.133M1.309 14.42c.237 0 .214.06.214.133 0 .073.023.133-.214.133-.236 0-.428-.06-.428-.133 0-.073.192-.133.428-.133" fill="#292f33"/></g><g clip-path="url(#d)" transform="matrix(1.25 0 0 -1.25 0 45)"><path d="M1.531 12.125c-.172.156-.453.062-.453.562s.094.477.476.477c.383 0 .821.031.821-.519 0-.551.39-.364.39-.364s.016.703.782.703c.875 0 .937-.765.937-.765s.378-.149.703-.11c.456.055 1.172.284 1.672-.288.5-.571.875-.618 1.281-.462.407.157 1-.671.313-.953-.688-.281-.953.219-.844.422.11.203-.797-.234-1.125 0 .078-.359-.078-.625-.422-.625s-.788-.105-1.03.156c-.118.126-.188.391-.063.5-.5.032-.922-.093-.922-.093s-.047-.563-.954-.563c-.906 0-1.546-.172-1.546.438 0 .609.322.553.765.453.298-.068.485-.016.485-.016s-.017.212-.063.297c-1.03-.125-1.203.75-1.203.75" fill="#ffcc4d"/><path d="M5.734 11.885c0 .662 1.156.85 1.781.678.625-.172.86-.36.86-.36s-.516-.375-1.032-.328c-.515.047-1.218.449-1.218.063 0-.387-.39-.715-.39-.053" fill="#ffcc4d"/><path d="M3.656 11.75a.293.293 0 0 0-.289-.297.293.293 0 0 0-.289.297c0 .164.13.297.29.297.16 0 .288-.133.288-.297M3.367 12.305c0-.073-.1-.133-.223-.133s-.222.06-.222.133c0 .073.1.133.222.133.123 0 .223-.06.223-.133M3.879 12.305c0-.073-.1-.133-.223-.133s-.222.06-.222.133c0 .073.099.133.222.133s.223-.06.223-.133"/><path d="M1.531 8.61c-.172.155-.453.061-.453.561s.094.477.476.477c.383 0 .821.031.821-.519s.39-.364.39-.364.016.703.782.703c.875 0 .937-.765.937-.765s.378-.149.703-.11c.456.055 1.172.284 1.672-.288.5-.57.875-.618 1.281-.462.407.157 1-.67.313-.953-.688-.28-.953.22-.844.422.11.203-.797-.234-1.125 0 .078-.359-.078-.625-.422-.625s-.788-.105-1.03.156c-.118.126-.188.391-.063.5-.5.032-.922-.093-.922-.093S4 6.687 3.093 6.687c-.906 0-1.546-.172-1.546.438s.322.553.765.453c.298-.068.485-.016.485-.016s-.017.212-.063.297c-1.03-.125-1.203.75-1.203.75" fill="#ffcc4d"/><path d="M5.734 8.37c0 .661 1.156.85 1.781.677.625-.172.86-.36.86-.36s-.516-.375-1.032-.328c-.515.047-1.218.45-1.218.063s-.39-.715-.39-.053" fill="#ffcc4d"/><path d="M3.656 8.234a.293.293 0 0 0-.289-.297.293.293 0 0 0-.289.297c0 .164.13.297.29.297.16 0 .288-.133.288-.297M3.367 8.79c0-.074-.1-.134-.223-.134s-.222.06-.222.133c0 .073.1.133.222.133.123 0 .223-.06.223-.133M3.879 8.79c0-.074-.1-.134-.223-.134s-.222.06-.222.133c0 .073.099.133.222.133s.223-.06.223-.133"/><path d="M23.25 14.844c-.995 0-1.816.134-2.504.34l.512 1.775c.1-.016.195-.022.305-.052 1.588-.437 3.285-1.954 3.294-1.962a12.229 12.229 0 0 0-1.607-.101m10.5 7.437c-1.187.407-2.531.469-2.531.469l-.875-1.72s2.594-.053 2.594-.213c0-.111-.59-1.088-.959-1.69-.19.059-.421.092-.698.092-1.125 0-1.562-.25-2.031-.937-.469-.688 0-.97 0-.97s-.58-1.286-2.752-2.001l.713 2.463c.813.136 1.508-.274 1.508-.274s-.532 1.563.125 3.906c.656 2.344 3.094 4.094 3.094 4.094l-2.726-.805.694 2.399s.344.75 0 .969c-.223.142-.34-.162-.395-.395-.24.068-.657.13-1.105-.074-.687-.312-2.281.139-2.281.139s.625-.701 1.094-.826c-.5-.25-1.469-.157-1.469-.157s1.188-.687 1.984-.437c.53.166 1.115.18 1.452.17l-.583-1.97-2.478-.731s-1.125-.907-1.5-3.563.969-4.625.969-4.625-.141 1.283.934 1.917c-.291-.983-.539-1.821-.706-2.39a9.53 9.53 0 0 0-.964-.176c-.007.018-1.294 2.907-1.077 5.336.219 2.438 2.344 4.928 2.344 4.928l-2.781-1.011.978 3.396s.615.406.084.656-.428-.55-.428-.55a1.583 1.583 0 0 1-.968-.106c-.688-.312-2.281.139-2.281.139s.625-.701 1.093-.826c-.5-.25-1.468-.157-1.468-.157s1.187-.687 1.984-.437c.514.16.976.185 1.241.18l-.83-2.511-2.53-.92s-.438-.624-1.344-2.437c-.906-1.812.375-4.406.375-4.406s.378.574 1.178.738l-.486-1.47c-2.007.923-2.442 2.514-2.442 2.514s.344.062.344.437c0 .36-.155.546-1.196.56l.253.9c.454-.268.787-.68.787-.68s-.438 1.626.468 3.25c.907 1.626 3.031 3.032 3.125 3.032.05 0-1.552-.455-3.055-.88l.628 2.237s.458.675-.041.83c-.5.157-.419-.706-.419-.706v-.001a1.56 1.56 0 0 1-.853-.123c-.687-.313-2.281.138-2.281.138s.625-.701 1.094-.826c-.5-.25-1.469-.156-1.469-.156s1.187-.688 1.984-.438c.461.145.889.178 1.171.18l-.373-1.292c-1.077-.304-1.979-.556-1.979-.556s-.407-.625-.876-2.126c-.468-1.5.344-2.718.344-2.718s.25 1.062 1.032 1.062c.074 0 .146-.014.218-.03l-.32-1.11c-.748-.054-.867-.26-.867-.578 0-.375.406-.407.406-.407s-.094-.656.156-1.47c.25-.811-.312-.655-1.25-.186-.061.03-.122.047-.184.069l.006.006L12 17.469s-.5.719-.75.219.562-.615.562-.615l1.349-.68c-.263-.137-.394-.357-.255-.58.313-.5 1 0 2.407-1.375.911-.892 3.906-4.188 8.374-4.188h5.063c3.938 0 3.344 3.375 1.375 4.157 1.5 1.343 1.594 2.906 1.594 2.906s.406 0 .75.688c.172.344.156.649-.044.868.477.928 1.653 3.205 1.95 3.725.375.656 0 .969-.625-.313" fill="#ffcc4d"/><path d="M10 13.063s.562-1.032 1.156-.626c.594.407 1.219 1.187 2.407.266 1.187-.921 1.624-.351 1.999.036.375.385.969.413 1.719-.07.75-.482 1.313-.36 1.719 0 .406.362 1.188.577 2.031 0 .844-.576 1.25-.7 1.532-.169.281.531.992.906 1.996.281s1.254-.58 1.566-.134c.312.446 1.125.884 1.937.29.813-.594 1.688-.656 1.844-.03.156.624.688.717 1.469.155.781-.562 1.5-.809 1.656-.264.156.545.875.733 1.656.17.782-.562 1.313-.312 1.313-.312v-7H10v7.406z"/><path d="M10 12.406s.562-1.03 1.156-.625c.594.406 1.219 1.186 2.407.265 1.187-.92 1.624-.35 1.999.036.375.386.969.414 1.719-.069.75-.482 1.313-.36 1.719 0 .406.362 1.188.577 2.031 0 .844-.576 1.25-.7 1.532-.169.281.531.992.906 1.996.281s1.254-.58 1.566-.134c.312.446 1.125.884 1.937.29.813-.594 1.688-.656 1.844-.03.156.624.688.717 1.469.155.781-.562 1.5-.809 1.656-.264.156.545.875.733 1.656.17C35.469 11.75 36 12 36 12V5H10v7.406z" fill="#bbddf5"/><path d="M10 11.781s.562-1.03 1.156-.625c.594.406 1.219 1.186 2.407.265 1.187-.92 1.624-.35 1.999.036.375.386.969.414 1.719-.069.75-.482 1.313-.36 1.719 0 .406.362 1.188.577 2.031 0 .844-.576 1.25-.7 1.532-.169.281.531.992.906 1.996.281s1.254-.58 1.566-.134c.312.446 1.125.884 1.937.29.813-.594 1.688-.656 1.844-.03.156.624.688.717 1.469.155.781-.562 1.5-.809 1.656-.264.156.545.875.733 1.656.17.782-.562 1.313-.312 1.313-.312V5H10v6.781z" fill="#0091c8"/><path d="M12.156 10.031c.53.601 1.344.531 1.97 0 .624-.53.905-.129 1.5.217.592.345 1.436.367 1.624-.128.187-.495-.782.18-1.375-.346-.594-.524-1.556-.68-2.25 0-.695.68-1.938-.274-1.469.257M19.125 9.911c.571-.194 1.344-.255 2.031.183.688.437 1.188.232 1.938-.369.75-.6 1.312-.399 2 0 .687.4 1.25.9 2.219.462.968-.437 1.437-.482 1.812-.335.375.148 0-.508-.937-.352-.938.156-1.594.75-2.438.187-.844-.562-1.938-1.088-2.812-.34-.875.747-1.344.643-1.876.32-.531-.323-1.125-.355-1.437-.198-.313.156-.96.598-.5.442M31.156 9.911c.362-.219.75-.276 1.125 0s.75.052 1.22-.21c.468-.264.561-.559 0-.38-.564.18-.783.577-1.22.331-.438-.246-.906-.316-1.125 0-.219.317-.27.423 0 .26M15.063 8.438c.513.272 1.343.655 1.936 0 .595-.657.877-.313 1.345 0 .469.311.875.686 1.594.218.719-.469 1.062-.34 1.344-.186.28.154.53.061 0-.252-.532-.312-1.063-.28-1.47.032-.405.312-.75.468-1.28-.063-.531-.53-1.22-.689-1.72-.189-.5.501-.655.543-1.155.288-.5-.255-1.11-.122-.594.151M24.625 8.286c.629.332 1.469.901 2.156.245.688-.656 1.094-.348 1.657.03.562.376 1.093.921 1.906.274.812-.648 1.343-.585 1.75-.398.406.188.218-.172-.282-.289-.5-.117-1.187-.117-1.656.29-.469.406-.906.384-1.406-.152-.5-.536-1.75-.687-2.219-.205-.469.481-1.062.2-1.5.013-.437-.188-1.034-.14-.406.192M11.5 7.79c.374.344.875.21 1.5-.415s.906-.5 1.469-.187c.562.312 1.312.375 1.625.031.312-.344.187-.453-.188-.289-.375.164-.735.258-1.242-.18-.508-.437-1.414-.531-1.852 0-.437.531-.687.844-1.031.719-.343-.125-.781-.139-.281.321M20.156 7.18c.364.392 1.094.713 1.812 0 .72-.711.844-.617 1.407-.242.562.375 1.218.805 1.906.168.687-.637.97-.512 1.562-.168.594.344 1.125.648 1.782.168.656-.481 1.156-.606 1.72-.262.561.344.685.19.155-.25-.438-.363-1.232-.5-1.78.03-.69.666-1.127.47-1.689.064-.563-.406-1.438-.5-1.938.03-.5.532-.843.376-1.312 0-.469-.374-1.274-.757-1.844.032-.569.789-1.125.438-1.406.282-.28-.157-.906-.42-.375.149" fill="#bbddf5"/></g></svg>