<svg xmlns="http://www.w3.org/2000/svg" viewBox="0 0 45 45"><defs><clipPath id="a"><path d="M0 36h36V0H0v36z"/></clipPath><clipPath id="b"><path d="M4 31a4 4 0 0 1-4-4V9a4 4 0 0 1 4-4h28a4 4 0 0 1 4 4v18a4 4 0 0 1-4 4H4z"/></clipPath><clipPath id="c"><path d="M4.5 30A3.5 3.5 0 0 1 1 26.5v-17A3.5 3.5 0 0 1 4.5 6h25A3.5 3.5 0 0 1 33 9.5v17a3.5 3.5 0 0 1-3.5 3.5h-25z"/></clipPath><clipPath id="d"><path d="M0 36h36V0H0v36z"/></clipPath></defs><g clip-path="url(#a)" transform="matrix(1.25 0 0 -1.25 0 45)"><path d="M36 9a4 4 0 0 0-4-4H4a4 4 0 0 0-4 4v18a4 4 0 0 0 4 4h28a4 4 0 0 0 4-4V9z" fill="#eee"/></g><g clip-path="url(#b)" transform="matrix(1.25 0 0 -1.25 0 45)"><path d="M0 25V5h19L0 25z" fill="#003893"/><path d="M0 31V17h19L0 31z" fill="#003893"/></g><g clip-path="url(#c)" transform="matrix(1.25 0 0 -1.25 0 45)"><path d="M1 22.804V6h15.204L1 22.804z" fill="#dd2e44"/><path d="M1 28.804V18h15.204L1 28.804z" fill="#dd2e44"/></g><g clip-path="url(#d)" transform="matrix(1.25 0 0 -1.25 0 45)"><path d="M6.291 11.959l.586.816-1-.098.1 1-.817-.586-.414.916-.414-.916-.817.586.099-1-1 .098.586-.816-.916-.414.916-.414-.586-.817 1 .099-.099-1 .817.586.414-.916.414.916.817-.586-.1 1 1-.099-.586.817.916.414-.916.414zM4.745 19.106v-.002l.002.002.017-.002a2.8 2.8 0 0 1 2.785 2.567 3.203 3.203 0 0 0-1.595-1.442l-.175.244.61.277-.61.276.39.545-.667-.065.067.668-.547-.39-.276.611-.277-.612-.546.391.067-.668-.668.065.39-.545-.611-.276.612-.277-.168-.233a3.196 3.196 0 0 0-1.565 1.431 2.798 2.798 0 0 1 2.765-2.565" fill="#fff"/></g></svg>