<svg xmlns="http://www.w3.org/2000/svg" viewBox="0 0 45 45"><defs><clipPath id="a"><path d="M4 31a4 4 0 0 1-4-4V9a4 4 0 0 1 4-4h28a4 4 0 0 1 4 4v18a4 4 0 0 1-4 4H4z"/></clipPath></defs><g clip-path="url(#a)" transform="matrix(1.25 0 0 -1.25 0 45)"><path d="M6 23.312l-2.078-1.51.794 2.443-2.078 1.51h2.568L6 28.198l.794-2.443h2.568l-2.078-1.51.794-2.443L6 23.312zm6-1.668V31H0V19.083h12v2.561z" fill="#002868"/><path d="M0 5h36v2.462H0V5zM0 9.629h36v2.561H0V9.629zM12 23.811h24v2.561H12v-2.561zM12 28.538h24V31H12v-2.462zM12 19.083h24v2.561H12v-2.561zM0 14.356h36v2.561H0v-2.561z" fill="#bf0a30"/><path d="M12 21.644h24v2.167H12v-2.167zM0 19.083V16.916h36v2.167H0zM12 26.371h24v2.167H12v-2.167zM0 12.189h36v2.167H0v-2.167zM0 7.462h36v2.167H0V7.462z" fill="#eee"/><path d="M9.363 25.755h-2.57l-.792 2.443-.794-2.443h-2.57l2.079-1.51-.794-2.443L6 23.312l2.078-1.51-.794 2.443 2.078 1.51z" fill="#fff"/></g></svg>