<svg xmlns="http://www.w3.org/2000/svg" viewBox="0 0 45 45"><defs><clipPath id="a"><path d="M0 36h36V0H0v36z"/></clipPath></defs><g clip-path="url(#a)" transform="matrix(1.25 0 0 -1.25 0 45)"><path d="M32 31H4a3.978 3.978 0 0 1-2.629-.99L6.923 26H36v1a4 4 0 0 1-4 4" fill="#ea0b19"/><path d="M13.846 21H36v5H6.923l6.923-5z" fill="#eee"/><path d="M18 18l-4.154-3H36v6H13.846L18 18z" fill="#ea0b19"/><path d="M6.923 10H36v5H13.846l-6.923-5z" fill="#eee"/><path d="M1.371 5.99A3.978 3.978 0 0 1 4.001 5h28a4 4 0 0 1 4 4v1H6.922L1.371 5.99z" fill="#ea0b19"/><path d="M13.846 15L18 18l-4.154 3-6.923 5-5.552 4.01A3.988 3.988 0 0 1 .001 27V9c0-1.201.531-2.276 1.37-3.01L6.923 10l6.923 5z" fill="#0f55ec"/><path d="M8.187 17.162l2.313 1.675H7.641l-.888 2.726-.89-2.726H3l2.315-1.677-.89-2.723 2.325 1.684 2.325-1.684-.888 2.725z" fill="#fff"/></g></svg>