<svg xmlns="http://www.w3.org/2000/svg" viewBox="0 0 45 45"><defs><clipPath id="a"><path d="M0 36h36V0H0v36z"/></clipPath></defs><path d="M0 28.75h45V16.249H0V28.75z" fill="#0c4076"/><g clip-path="url(#a)" transform="matrix(1.25 0 0 -1.25 0 45)"><path d="M0 9a4 4 0 0 1 4-4h28a4 4 0 0 1 4 4v4H0V9z" fill="#eee"/><path d="M36 27a4 4 0 0 1-4 4H4a4 4 0 0 1-4-4v-4h36v4zM7 23v-9.5a5.5 5.5 0 0 1 11 0V23H7z" fill="#c6363c"/><path d="M16.781 26.734c-.187-.266-.28-.453-.25-.766.031-.312-.094-.484-.094-.312s-.318.042-.4-.266c-.1-.375.183.49-.1.578-.25.08-.578-.67-.5-.593.078.078.188.531.125.593-.062.063-.406-.218-.406-.218s.11.187.203.265c.094.078 0 .226 0 .226s.203.134.313.337c.11.203.312 1.093.312 1.093s.516-.125.75-.28c.234-.157.234-.39.047-.657m-2.094-.609c.063-.156.125-.344 0-.297-.125.047-.203.25-.328.297-.125.047.063-.157-.1-.282-.166-.125-.362-.129-.43-.234.155.172.238.663 0 .672-.423.016-.173-.64-.173-.64s-.203-.079-.203.11c0 .186-.219.171-.188.296.032.125-.062.187-.218.078-.157-.109-.219-.25-.297-.172-.078.078 0 .156.125.265.125.11.265.188.078.266.078.094.344.266.344.266s-.36.531-.125 1.61c1.312.03 1.781-.235 1.922-.47.14-.234-.313-.937-.438-1.062s-.094-.235 0-.297c.094-.063.104-.172.104-.172s-.135-.078-.073-.234m-2.437-.172c-.078-.078-.14.063-.297.172-.156.11-.25.047-.219-.078s-.187-.11-.187-.297c0-.188-.203-.11-.203-.11s.25.657-.172.641c-.24-.009-.157-.5 0-.672-.07.105-.266.11-.43.234-.164.125.023.33-.102.282-.125-.047-.203-.25-.328-.297-.125-.047-.062.141 0 .297a.185.185 0 0 1-.072.234s.01.11.104.172c.093.062.125.172 0 .297s-.579.828-.438 1.062c.141.235.61.5 1.922.47.234-1.079-.125-1.61-.125-1.61s.266-.172.344-.266c-.188-.078-.047-.156.078-.266.125-.109.203-.187.125-.265m-3.188.015c-.283-.088 0-.953-.099-.578-.082.308-.4.438-.4.266s-.126 0-.095.312c.032.313-.062.5-.25.766-.187.266-.187.5.047.656.235.156.75.281.75.281s.203-.89.313-1.093c.11-.203.312-.337.312-.337s-.093-.148 0-.226c.094-.078.203-.265.203-.265s-.343.281-.406.218c-.062-.062.078-.14.063-.25-.016-.109-.188.33-.438.25m3.438 2.97c-3.938 0-5.172-1.673-4.844-2.298.328-.625 1.312-2.234 1.312-2.234s-.312-.125 0-.75c.313-.625 1.532-.203 3.532-.203s3.22-.422 3.531.203c.313.625 0 .75 0 .75s.984 1.61 1.313 2.234c.328.625-.907 2.297-4.844 2.297" fill="#edb92e"/><path d="M12.61 28.758a.18.18 0 0 0-.359 0v1.578a.18.18 0 1 0 .358 0v-1.578z" fill="#ffac33"/><path d="M12.969 29.914a.163.163 0 0 0-.164-.164h-.781a.163.163 0 0 0-.164.164c0 .091.073.164.164.164h.78a.163.163 0 0 0 .165-.164" fill="#edb92e"/><path d="M13.016 28.938a.603.603 0 1 0-1.206 0 .603.603 0 0 0 1.206 0M9.604 23.724c0-.147-.169-.266-.378-.266s-.378.12-.378.266c0 .146.169.265.378.265s.378-.119.378-.265" fill="#0c4076"/><path d="M11.124 23.815c0-.147-.169-.266-.378-.266s-.378.119-.378.266c0 .146.17.265.378.265.21 0 .378-.12.378-.265M14.5 23.815c0-.147-.17-.266-.379-.266s-.378.119-.378.266c0 .146.17.265.378.265.21 0 .378-.12.378-.265" fill="#c6363c"/><path d="M16.063 23.724c0-.147-.17-.266-.378-.266-.21 0-.379.12-.379.266 0 .146.17.265.379.265.208 0 .377-.119.377-.265M12.808 23.834c0-.147-.169-.266-.378-.266s-.378.119-.378.266c0 .146.17.265.378.265.21 0 .378-.119.378-.265" fill="#0c4076"/><path d="M10.286 13.438c-.342-.777-.378-1.159-.783-1.132-.406.028-.693.097-.693-.067s.645-.096.645-.096-.609-.26-.489-.558c.12-.3.644.38.644.38s.107-.026.31.138c.203.163.74.953.74.953l-.374.382zM14.698 13.438c.342-.777.378-1.159.783-1.132.406.028.692.097.692-.067s-.644-.096-.644-.096.609-.26.489-.558c-.12-.3-.644.38-.644.38s-.107-.026-.31.138c-.203.163-.74.953-.74.953l.374.382z" fill="#edb92e"/><path d="M17.114 20.313c-.176 1.208-1.313.833-1.796 0-.483-.833-.9-1.333-1.347-.75-.447.583-.742 1.208-.096 2l.646.792c-.092.479-.48.375-1.034.146-.553-.23-.903-.125-.849-.376.056-.25.26-.27.26-.27s-.35-.341-.442-1.514c-.092 1.173-.44 1.514-.44 1.514s.202.02.258.27c.054.25-.296.146-.849.376-.554.229-.942.333-1.034-.146l.646-.792c.646-.792.35-1.417-.096-2-.446-.583-.864-.146-1.347.688-.483.832-1.62 1.207-1.796 0-.176-1.209.028-3.314.028-3.314s-.11-1.146.111-2.125c.221-.978.35-1.853 0-2.603.387.104.627.604.627.604s-.129-.605.111-.543c.24.064.295.522.48.689.184.167.332.542.332.542s.387.145 0-.5c.313-.021.517.187.517.187l.11-.585.185.314.092-.563.332.542.218-.25s.041 1.062.336.854c.295-.207.313-.896.11-1.312-.202-.417 0-.585 0-.585s-.295-.436-.446-.686c-.15-.25.078-.542.078-.542s-.572-.854-.413-1.187c.154-.32 1.107-.524 1.804-.54l.007-.002h.078c.003 0 .004.003.007.003.697.015 1.65.219 1.804.539.16.333-.413 1.187-.413 1.187s.23.292.078.542c-.152.25-.447.687-.447.687s.203.168 0 .584c-.202.415-.183 1.104.111 1.312.295.209.336-.854.336-.854l.218.25.332-.543.092.564.185-.313.11.584s.203-.209.517-.188c-.387.646 0 .5 0 .5s.148-.374.332-.541c.185-.167.24-.625.48-.688.24-.063.111.541.111.541s.24-.5.627-.603c-.35.75-.22 1.625 0 2.604.222.978.111 2.124.111 2.124s.204 2.167.028 3.375" fill="#fff"/><path d="M11.89 21.688c-.44.422-1.537.969-1.901.89-.364-.079-.656-.329-.385-.719.27-.39.385-.375.385-.375s.433.39.62.172c.188-.219.032-.297-.312-.328-.343-.032-.693.203-.693.203s.113-.406.59-.453c.322-.313.727-.078.93-.078.205 0 1.158.312.767.687M13.022 21.688c.44.422 1.538.969 1.902.89.364-.079.656-.329.385-.719-.271-.39-.385-.375-.385-.375s-.433.39-.621.172c-.187-.219-.031-.297.313-.328.343-.032.693.203.693.203s-.113-.406-.591-.453c-.321-.313-.726-.078-.93-.078-.204 0-1.157.312-.766.687M9.97 10.8c.136.317.04.362-.07.472a.793.793 0 0 0-.166.26s-.055-.151-.165-.26c-.11-.11-.207-.155-.07-.471-.334.197-.388-.164-.235-.383.043.197.305.153.305-.088 0-.24-.218-.131-.19-.23.026-.098.224-.305.355-.305.131 0 .33.207.356.306.027.098-.19-.011-.19.229 0 .24.26.285.304.088.154.219.1.58-.235.383M15.407 10.8c.137.317.041.362-.07.472a.781.781 0 0 0-.165.26s-.055-.151-.166-.26c-.11-.11-.206-.155-.07-.471-.333.197-.388-.164-.234-.383.043.197.304.153.304-.088 0-.24-.217-.131-.19-.23.026-.098.224-.305.356-.305.131 0 .33.207.356.306.027.098-.19-.011-.19.229 0 .24.26.285.304.088.153.219.1.58-.235.383" fill="#edb92e"/><path d="M10.244 19.125v-3.859a2.235 2.235 0 1 1 4.469 0v3.859h-4.47z" fill="#c6363c"/><path d="M14.712 16.828H12.96v2.297h-.962v-2.297h-1.754v-.963h1.754v-2.779c.155-.034.315-.055.481-.055.165 0 .326.021.481.055v2.78h1.753v.962z" fill="#eee"/></g></svg>