<svg xmlns="http://www.w3.org/2000/svg" viewBox="0 0 45 45"><defs><clipPath id="a"><path d="M0 36h36V0H0v36z"/></clipPath></defs><path d="M0 28.75h45V16.249H0V28.75z" fill="#eee"/><g clip-path="url(#a)" transform="matrix(1.25 0 0 -1.25 0 45)"><path d="M32 31H4a4 4 0 0 1-4-4v-4h36v4a4 4 0 0 1-4 4" fill="#ce1126"/><path d="M32 5H4a4 4 0 0 0-4 4v4h36V9a4 4 0 0 0-4-4" fill="#141414"/><path d="M9.177 17.668l-.632-1.946 1.655 1.203 1.656-1.203-.633 1.946 1.656 1.203h-2.046l-.633 1.946-.632-1.946H7.52l1.656-1.203zM24.777 17.668l-.632-1.946 1.655 1.203 1.656-1.203-.633 1.946 1.656 1.203h-2.046l-.633 1.946-.632-1.946H23.12l1.656-1.203z" fill="#007a3d"/></g></svg>