<svg xmlns="http://www.w3.org/2000/svg" viewBox="0 0 45 45"><defs><clipPath id="a"><path d="M0 36h36V0H0v36z"/></clipPath></defs><g clip-path="url(#a)" transform="matrix(1.25 0 0 -1.25 0 45)"><path d="M0 9a4 4 0 0 1 4-4h28a4 4 0 0 1 4 4v4H0V9z" fill="#ea2839"/><path d="M0 13h36v10H0V13z" fill="#34b232"/><path d="M32 31H4a4 4 0 0 1-4-4v-4h36v4a4 4 0 0 1-4 4" fill="#fecb01"/><path d="M18 27.24L20.353 20h7.613l-6.159-4.333 2.352-7.17L18 13.008 11.841 8.55l2.353 7.107L8.035 20h7.613L18 27.24z" fill="#fff"/></g></svg>