<svg xmlns="http://www.w3.org/2000/svg" viewBox="0 0 45 45"><defs><clipPath id="a"><path d="M0 36h36V0H0v36z"/></clipPath><clipPath id="b"><path d="M4 31a4 4 0 0 1-4-4V9a4 4 0 0 1 4-4h28a4 4 0 0 1 4 4v18a4 4 0 0 1-4 4H4z"/></clipPath><clipPath id="c"><path d="M0 36h36V0H0v36z"/></clipPath></defs><g clip-path="url(#a)" transform="matrix(1.25 0 0 -1.25 0 45)"><path d="M36 9a4 4 0 0 0-4-4H4a4 4 0 0 0-4 4v18a4 4 0 0 0 4 4h28a4 4 0 0 0 4-4V9z" fill="#0f47af"/></g><g clip-path="url(#b)" transform="matrix(1.25 0 0 -1.25 0 45)"><path d="M36 13H0v10h36V13z" fill="#eee"/></g><g clip-path="url(#c)" transform="matrix(1.25 0 0 -1.25 0 45)"><path d="M17.462 14.703c.246.764-.61.906-.61.906s.063-.437-.452-.453c.17-.344.015-.625-.204-.64.36-.329 1.11-.297 1.266.187M16.192 15.166c.473.578-.221.992-.221.992s-.094-.4-.547-.239c.033-.355-.198-.547-.393-.486.2-.408.86-.635 1.16-.267M15.297 15.96c.563.303.152.857.152.857s-.207-.284-.511-.01c-.091-.29-.336-.366-.471-.254.025-.388.472-.783.83-.592M14.951 16.97c.594.12.371.736.371.736s-.266-.202-.467.13c-.162-.24-.405-.241-.497-.104-.082-.36.216-.84.593-.762" fill="#1f601a"/><path d="M14.812 17.835c.545.004.455.586.455.586s-.27-.133-.39.195c-.184-.183-.398-.142-.456-.005-.135-.303.045-.778.39-.776M14.94 18.66c.425-.146.492.395.492.395s-.241-.043-.257.281c-.187-.112-.344-.017-.356.12-.177-.23-.15-.703.12-.796M15.267 19.343c.212-.124.45.288.45.288s-.184.066-.138.369c-.163-.074-.276-.03-.26.1-.178-.187-.252-.64-.052-.757M18.383 14.703c-.246.764.609.906.609.906s-.062-.437.453-.453c-.171-.344-.015-.625.204-.64-.36-.329-1.11-.297-1.266.187M19.652 15.166c-.473.578.221.992.221.992s.095-.4.547-.239c-.033-.355.2-.547.394-.486-.2-.408-.86-.635-1.162-.267M20.548 15.96c-.563.303-.151.857-.151.857s.207-.284.509-.01c.092-.29.337-.366.47-.254-.023-.388-.47-.783-.828-.592M20.894 16.97c-.594.12-.37.736-.37.736s.265-.202.467.13c.162-.24.404-.241.496-.104.082-.36-.216-.84-.593-.762" fill="#1f601a"/><path d="M21.033 17.835c-.545.004-.455.586-.455.586s.27-.133.39.195c.184-.183.4-.142.456-.005.134-.303-.045-.778-.39-.776M20.904 18.66c-.425-.146-.492.395-.492.395s.242-.043.258.281c.187-.112.343-.017.356.12.177-.23.15-.703-.122-.796M20.578 19.343c-.213-.124-.45.288-.45.288s.184.066.138.369c.163-.074.275-.03.26.1.177-.187.251-.64.052-.757" fill="#1f601a"/><path d="M18.306 14.698a.399.399 0 0 0-.8 0 .4.4 0 1 0 .8 0M17.821 18.226l-1.859 1.993s-.313-2.297.593-2.906c.907-.61 1.266.913 1.266.913" fill="#06209f"/><path d="M16.855 19.261l-.414.444s-.213-1.783.693-2.393c-.437.891-.28 1.95-.28 1.95" fill="#fff"/><path d="M17.821 17.398l-2.549 1.445s-.125-1.484.321-2.203c.447-.719 2.085-.765 2.313-.062.227.703-.085.82-.085.82" fill="#06209f"/><path d="M16.194 18.321l-.478.271s-.284-2.983 1.978-2.298c-1.497.07-1.5 2.027-1.5 2.027" fill="#fff"/><path d="M17.99 18.226l1.858 1.993s.313-2.297-.593-2.906c-.907-.61-1.266.913-1.266.913" fill="#06209f"/><path d="M18.956 19.261l.414.444s.213-1.783-.693-2.393c.437.891.28 1.95.28 1.95" fill="#fff"/><path d="M17.99 17.398l2.548 1.445s.125-1.484-.322-2.203c-.446-.719-2.084-.765-2.312-.062-.227.703.085.82.085.82" fill="#06209f"/><path d="M19.616 18.321l.48.271s.282-2.983-1.98-2.298c1.498.07 1.5 2.027 1.5 2.027" fill="#fff"/><path d="M17.821 20.703l-2.474-4.266h4.949l-2.475 4.266z" fill="#ffcc01"/><path d="M15.694 16.638l2.127 3.667 2.127-3.667h-4.254z" fill="#fff"/><path d="M16.303 17.688l-.609-1.05h4.254l-.609 1.05h-3.036z" fill="#017e93"/><path d="M16.102 17.169s.687.972.953.972c.266 0 .391-.305.391-.305s.104.164.247.164c.143 0 .213-.164.213-.164s.103.16.166.13c.062-.028.267-.278.267-.278s.06.108.202.148c.14.039.234-.148.234-.148s.138.296.17.148c.033-.148.543-.667.543-.667h-3.385z" fill="#ffcc01"/><path d="M18.071 18.765a.19.19 0 0 0-.189-.19.189.189 0 1 0 .189.189" fill="#e60000"/><path d="M14.002 19.76a4.393 4.393 0 0 1-.459-1.651l.5-.013c.043.519.183 1.007.41 1.45l-.45.214zM18.756 21.618a3.9 3.9 0 0 0 1.68-.826l.345.362a4.412 4.412 0 0 1-1.915.951l-.11-.487zM21.193 19.99c.434-.634.69-1.399.69-2.225 0-.15-.027-.293-.044-.439l.491-.09c.021.176.053.348.053.53 0 .927-.286 1.786-.772 2.5l-.418-.277zM16.223 14.241a3.913 3.913 0 0 0-2.17 3.098l-.495-.055a4.41 4.41 0 0 1 2.46-3.498l.205.455zM14.887 20.216a3.916 3.916 0 0 0 3.06 1.487c.025 0 .049-.007.076-.008l.03.497c-.036.001-.07.011-.106.011-1.413 0-2.657-.672-3.47-1.7l.41-.287M21.686 16.595a3.925 3.925 0 0 0-2.068-2.382l.203-.456a4.428 4.428 0 0 1 2.337 2.679l-.472.159z" fill="#ffcc01"/></g></svg>