<svg xmlns="http://www.w3.org/2000/svg" viewBox="0 0 45 45"><defs><clipPath id="a"><path d="M0 36h36V0H0v36z"/></clipPath></defs><g clip-path="url(#a)" transform="matrix(1.25 0 0 -1.25 0 45)"><path d="M4 31a4 4 0 0 1-4-4V9a4 4 0 0 1 4-4h8v26H4zM32 31h-8V5h8a4 4 0 0 1 4 4v18a4 4 0 0 1-4 4" fill="#007934"/><path d="M12 5h12v26H12V5z" fill="#eee"/><path d="M19.488 15.45c-.17-.008-.172.052-.075.081.068.02.191.041.24.007.047-.034.007-.082-.165-.089m-.942.212c-.268-.117-.183.058-.056.116.076.034.437.157.65.24.211.081.37.081.527.101.156.02.156-.007.046-.137-.109-.129-.232-.089-.409-.082-.178.007-.492-.122-.758-.238m-.056-.587c.07 0 .138 0 .22.026.082.028.074-.026.013-.06-.06-.034-.15-.097-.239-.07-.089.028-.068.104.006.104m.404-.514c-.102 0-.253-.109-.389-.08-.137.026-.123.155.013.121.11-.026.191.021.342.056.15.033.136-.097.034-.097m-.089-.539a.4.4 0 0 1-.239.013c-.089-.02-.15.056-.15.15.09-.067.307.042.505-.067.083-.047-.027-.123-.116-.096m-.315 2.391c.097-.005.302.038.374.058.128.04.115-.013.033-.058-.08-.044-.287-.13-.44-.112-.154.016-.103.12.033.112m.09 1.202c.19-.027.212-.095-.04-.137-.124-.02-.168-.027-.178.083-.008.067.026.081.218.054m-.26.656c.003.08.01.1.082.1.191 0 .512.15.64.153.126.003.19-.069.037-.089-.155-.02-.483-.103-.55-.147-.069-.044-.213-.095-.21-.017m.158.516c.147-.007.427 0 .52.055a.456.456 0 0 0 .265.044c.052-.007.033-.04-.058-.096-.088-.054-.399-.058-.502-.123a.715.715 0 0 0-.318-.08c-.065-.005-.074 0-.074.073 0 .117.02.134.167.127m-.017.62c.071-.003.3.04.407.08.105.041.112.011.047-.03a2.604 2.604 0 0 0-.375-.144c-.14-.044-.209-.06-.212.028-.004.078.014.068.133.065m.14-1.555c-.075-.048-.238-.072-.236 0 .004.072 0 .065.042.068.201.017.375.132.481.14.164.014.255.028.161-.044-.096-.072-.373-.116-.448-.164m.471-.61c-.054-.057-.197-.11-.396-.158-.198-.048-.293-.04-.293.075 0 .115.061.082.205.068.143-.014.416-.02.484.014m.104-1.046c-.165-.02-.315-.108-.575-.197-.259-.09-.22.051-.116.115.11.068.465.15.663.165.197.013.191-.062.028-.083m.417.834c-.097-.102-.604-.195-.91-.335-.253-.116-.3-.082-.3.075 0 .172.177.07.266.13.09.062.628.117.793.205.163.088.245.028.151-.075m-1.354 3.208c.006.157.021.163.12.143.111-.023.454-.01.591.003.137.014.25-.037.017-.08a2.902 2.902 0 0 1-.506-.135c-.098-.04-.229-.089-.222.07m-.304.35c-.007-.109-.058-.119-.127-.058-.068.062-.225.106-.389.154-.163.048-.099.15.028.09a.815.815 0 0 1 .443-.073c.076.01.05-.05.045-.113m-.03-1.636c-.007-.062-.062-.02-.117-.02-.099 0-.348.187-.684.242-.165.027-.362.168-.543.225-.18.058-.04.14.06.083.062-.037.15-.059.33-.093.181-.034.574-.18.701-.266.06-.04.268-.028.252-.17m-.976.771c.238 0 .532-.137.734-.233.14-.066.22-.092.215-.18-.003-.075-.089-.04-.157.007s-.55.191-.782.286c-.233.096-.25.12-.01.12m.56.284c-.236.085-.332.157-.315.194.017.038.237-.018.39-.068.27-.089.325-.096.317-.215-.006-.096-.157.003-.392.09m-.519 1.153c.197-.075.597-.044.853-.205.11-.069-.04-.082-.198-.02-.156.061-.342.027-.663.137-.262.09-.15.148.008.088m.706-3.006c-.122.092-.536.222-.69.253-.153.03-.239.082-.092.103.147.02.348-.025.53-.117.1-.05.27-.126.341-.126.072 0 .126.01.126-.14 0-.16-.09-.066-.215.027m-.2-.56c-.199.027-.377.177-.917.3-.224.052-.17.082-.013.082.156 0 .614-.205 1.1-.28.108-.017.24-.04.232-.19-.007-.15-.21.061-.403.088m.198-3.143c-.123 0-.39.102-.622.2-.232.094-.02.15.116.094.137-.055.37-.068.513-.068.164 0 .177-.226-.007-.226m.11-.396c-.017-.137-.246-.04-.417.054-.17.097.013.137.088.117a.463.463 0 0 1 .24 0c.088.02.11 0 .088-.17m-.457 1.475c.116-.075.478-.068.478-.219 0-.068-.075-.027-.165-.027-.088 0-.279.076-.402.184-.123.11-.028.137.09.062m-1.378-1.38c-.058.085.017.03.137-.004.07-.02.14-.068.136-.126-.006-.099-.215.044-.273.13m1.855 7.69c-.11.046-.075.098-.02.118.054.021.17.014.163-.106-.003-.07-.096-.033-.143-.013m.583-.06a.525.525 0 0 1 .237-.016c.072.018.158-.037.044-.067-.202-.055-.409-.1-.413.027-.002.078.082.072.132.055m.004-.322c-.06-.017-.126-.044-.126.028 0 .075.075.044.126.037.052-.007.122-.03 0-.065m1.627-7.114c.526.04 1.344-.185 1.947-.13.6.054.506.095.307.252s-.369.041-.47-.06c-.104-.103-.28-.097-.2.006.082.102.007.15-.19.137-.199-.015-.343-.083-.472-.118-.13-.034-.273.056-.172.103.104.05.09.09.007.096-.082.006-.088.061.137.096.225.034.382-.028.513-.075a.422.422 0 0 1 .377.061c.094.068.15.143.264.136.117-.006.186.055.035.16a.55.55 0 0 1-.499.045c-.13-.06-.19-.02-.24.042-.046.061-.23.055-.415-.028-.185-.083-.31-.187-.417-.04-.055.074-.43-.014-.662-.083-.233-.068-.275 0-.084.09.254.116.41.034.786.177.254.095.614-.06 1.21.28.143.082.28.164-.115.178-.199.007-.294-.014-.362-.103-.069-.09-.15-.068-.144 0 .007.07-.179.115-.335.014-.157-.104-.273-.192-.349-.212-.075-.02-.09-.003-.075.055.017.057-.038.05-.105.006-.069-.044-.185-.102-.26-.096-.075.007-.157.07.055.178.212.11.412.245.734.22.424-.036.52.14.724.133.205-.008.313.15.038.153-.277.003-.359-.058-.42-.103-.062-.043-.186-.075-.165.017.021.093-.028.093-.125.048-.1-.044-.343-.075-.459-.04-.115.033-.226.095.052.11.276.012.468.145.704.085.212-.055.323.053.401.044.08-.01.176.058.035.17-.139.113-.492.12-.615.1-.122-.02-.187 0-.163.047.022.048-.01.068-.117.064a2.118 2.118 0 0 1-.526-.126c-.164-.07-.287.04-.153.126.088.06.323.13.453.114.131-.017.19-.033.15.058-.016.04-.023.092.118.058.14-.034.424-.04.58.048.157.09.042.191-.212.185-.252-.007-.799-.082-1.018-.225-.219-.144-.25.01-.16.057s.102.082.054.113c-.047.03-.045.058.087.106.252.091.518.064.832.208.235.106.478.232.553.416.076.185-.04.123-.178.068-.135-.054-.218-.095-.218-.19 0-.097-.115-.097-.108.02.005.116-.063.17-.247.095-.184-.075-.65-.245-.813-.225-.164.02-.232.123-.062.13.172.007.404.075.541.123.136.047.218.123.115.177-.102.055-.027.123.09.123.115 0 .252.103.402.082.15-.02.32.03.123.144-.08.047-.156.11-.055.164.104.055.042.205-.115.225a.87.87 0 0 1-.384-.04c-.08-.028-.15-.02-.17.047-.02.07-.287.061-.397.034-.109-.027-.32-.014-.163.062.157.075.492.123.655.123.164 0 .336.041.424.075.09.034.11.212-.088.212-.199 0-.457-.014-.41.061.048.076-.124.123-.315.082-.19-.04-.452-.082-.299.02.15.103.457.212.6.206.144-.007.245.02.151.136-.096.116-.035.157.061.171.095.014.116.13-.02.157-.137.028-.489.108-.656.013-.233-.129-.41-.123-.335-.047.075.075.023.073-.097.041-.272-.075-.86-.246-1.024-.232-.082.007-.177-.01-.175.09.001.091.066.097.305.135.48.075 1.004.225 1.23.2.224-.029.322.005.26.101s-.24.021-.164.143c.076.123-.06.11-.165.116a.463.463 0 0 0-.267.103c-.083.08-.366.034-.509-.02-.143-.055-.46-.129-.583-.12-.15.01-.159.01-.166.12-.004.056.016.078.084.105.156.063.794.086.991.048.39-.075.405.07.323.14-.105.093-.443.052-.656.014-.21-.038-.436-.079-.495-.027-.057.051.007.097.154.126.178.034.595.01.66.041.066.03.13.127-.014.164-.143.038-.48 0-.638-.054-.158-.055-.333-.039-.37.017-.038.054-.023.19.24.17.262-.02.744-.014.83 0 .086.014.096.075.051.133-.044.058-.099.12-.049.164.052.045.032.082.005.12-.028.038 0 .068.027.092.027.024.064.083-.035.065-.167-.03-.427.054-.559.003a1.626 1.626 0 0 0-.533-.072c-.044.008-.069.097.013.106.143.018.427.06.533.114a.706.706 0 0 0 .35.092c.131-.004.218.047.088.11a.63.63 0 0 1-.466-.015c-.122-.058-.344-.17-.464-.154-.119.017-.13.087-.085.236.024.08.181.086.29.065.11-.02.431.062.553.034.123-.027.233.021.097.123-.137.103-.26.07-.398.014-.136-.055-.436-.13-.518-.055-.082.076-.102.267.051.2.167-.077.584.06.696.002.113-.058.172.051.061.102-.108.052-.43.004-.538-.02-.185-.042-.26-.055-.26.051 0 .072.21.061.27.045.15-.04.372.146.51.112.135-.034.112.041.041.096-.073.054-.343.027-.439-.034a.7.7 0 0 0-.32-.096c-.062.004-.089.021-.089.13 0 .11.06.141.14.181.133.065.155.164.054.14-.157-.038-.21-.089-.21.123 0 .096.012.181.138.208.127.028.151.113.111.133-.042.021-.093-.03-.155-.054-.06-.024-.103-.048-.109.123-.004.1.055.13.112.133a.206.206 0 0 1 .144.082c.028.038 0 .09-.089.051-.089-.037-.173-.048-.174.052-.003.222-.03.731-.038.85-.006.12-.092.151-.092.014 0-.137-.008-.629-.027-.86-.007-.083-.055-.09-.123-.049-.069.041-.266.014-.13-.048.137-.06.225-.082.232-.19.007-.11-.054-.124-.17-.069-.116.054-.267.034-.055-.096.212-.13.225-.137.218-.273-.006-.137-.075-.124-.21-.062-.166.076-.3.014-.11-.075.191-.089.32-.205.314-.328-.007-.123-.096-.184-.239-.007-.144.178-.376.267-.547.246-.17-.02-.082-.102.116-.177.2-.076.52-.226.595-.308.075-.082.034-.15-.144-.075-.177.075-.574.226-.704.178-.13-.048-.184-.123.035-.13.218-.007.598-.069.758-.13.198-.075.225-.232.034-.177-.19.054-.724.164-.882.068-.156-.096-.204-.192.062-.15.267.041.602.041.752-.02.082-.035.15-.042.143-.158-.007-.117-.096-.117-.259-.048-.165.068-.657.198-.807.075-.15-.123-.116-.144.096-.109.212.034.534.003.69-.027.318-.062.294-.117.09-.117-.206 0-.814-.027-.957.028-.144.054-.356.09-.438.054-.08-.034-.014-.068.054-.068.07 0 .124-.055.076-.103-.048-.047-.076-.136.116-.102.192.034.465.034.61-.02.142-.055.36-.118.538-.137.191-.02.198-.027.191-.17-.005-.107-.225-.042-.437.095-.212.136-.62.211-.813.082-.19-.13-.082-.157.096-.123s.67-.055.854-.116c.184-.062.297-.02.287-.192-.007-.102-.11-.049-.267.014a3.013 3.013 0 0 1-1.243.184c-.134-.017-.154-.03-.11-.068.032-.027.008-.079-.072-.099a.71.71 0 0 1-.238-.096c-.052-.04-.049-.08.1-.068.146.014.292-.01.206-.068-.085-.058-.193-.136-.023-.15.437-.039 1.073-.31 1.291-.434.22-.123.277-.134.273-.247-.003-.112-.122-.094-.249-.026-.4.211-.796.163-1 .307-.206.143-.506.3-.697.177-.192-.123-.158-.198.013-.177.171.02.355-.007.287-.096s-.115-.145.164-.185c.39-.054 1.025-.3 1.237-.389.211-.089.294-.15.116-.177-.178-.028-.185.098-.465.11a1.048 1.048 0 0 0-.526.197c-.123.095-.205.144-.409.123-.206-.02-.5-.055-.609-.117-.109-.06-.15-.149.027-.156.178-.007.26-.116.124-.164-.137-.048-.28-.076-.329-.13-.048-.055.02-.103.205-.103s.472-.06.725-.184c.253-.123.984-.492 1.182-.506.198-.013.218-.04.212-.143-.008-.103-.076-.082-.24-.034-.164.048-.629.191-.779.321-.15.13-.304.253-.44.26-.137.007-.099-.038-.052-.09.048-.05.043-.177-.047-.092-.147.137-.253.284-.448.287-.194.003-.379 0-.478-.055-.1-.054-.087-.134.1-.16.218-.03.454-.099.563-.164.11-.065.061-.13-.04-.123-.104.007-.08-.05.033-.119.113-.068.181-.16.095-.182-.122-.03-.338.217-.437.202-.068-.01-.013-.058.044-.096.06-.037.06-.163-.034-.092-.129.1-.304.23-.502.157-.198-.072-.293-.157-.126-.229.167-.07.288-.137.21-.239-.04-.047-.076-.12.162-.136.147-.01.311-.069.383-.147.072-.078-.02-.11-.109-.072-.09.038-.287.058-.383-.03-.096-.09.001-.15.195-.175.547-.065 1.127-.242 1.448-.27.321-.026.588-.104.724-.157.181-.07.086-.273-.047-.204a1.903 1.903 0 0 1-.39.167c-.072.013-.072-.014-.059-.079.015-.064-.068-.098-.146-.023-.079.075-.318.218-.465.241-.147.025-.126-.003-.102-.05.024-.048.014-.13-.082-.035-.096.096-.396.233-.574.222-.116-.007-.092-.043-.069-.092.025-.048-.037-.15-.108-.052-.072.101-.225.238-.407.13-.075-.044-.15-.106-.259-.126-.11-.02-.087-.084.064-.115.393-.086.546.024.807-.079.197-.079.372-.103.446-.109.076-.007.131-.052.046-.079-.086-.028-.08-.09.013-.174.093-.082.018-.209-.062-.113-.147.178-.362.116-.44.202-.079.085-.113.075-.113.006 0-.068-.038-.086-.113-.027-.263.204-.59.164-.73.068-.14-.095-.11-.128.143-.168.713-.112 1.602-.262 2.367-.583.414-.173.39-.212.37-.263-.022-.05-.102-.064-.268.048-.187.127-.689.202-.91.338-.223.136-.288.065-.227-.02.061-.086.038-.175-.089-.063-.127.114-.389.257-.539.26-.15.003-.038-.06.037-.112.075-.05.092-.208-.037-.126-.13.081-.517.297-.817.222-.3-.076-.256-.12-.103-.219.155-.099.298-.17.626-.16.328.01.642-.052.79-.148.146-.095.01-.119-.09-.06a1.111 1.111 0 0 1-.475.088c-.109-.013-.058-.065-.013-.117.044-.05-.008-.212-.096-.112-.09.1-.33.215-.478.25-.32.074-.464-.074-.324-.124.085-.03.128-.075.078-.144-.052-.068-.079-.145.095-.119.407.062 1.156.05 1.568-.082.355-.113.277-.188.184-.18-.09.005-.19.054-.143-.035.048-.088.044-.168-.075-.085-.246.17-.587.235-.745.23-.085-.004-.047-.05-.01-.098.037-.047-.017-.13-.109-.057-.092.071-.263.174-.376.177-.113.003-.109-.034-.058-.084.051-.052.04-.14-.065-.066-.157.112-.406.232-.587.22-.182-.015-.1-.103.065-.172.31-.13.638-.21.871-.233.231-.02.437-.085.533-.09.095-.008.135-.062.006-.077-.177-.02-.464.107-.608.041-.075-.035.02-.084.031-.109.024-.049.014-.174-.078-.098-.28.228-.455.197-.554.27-.1.07-.2.03-.137-.052.065-.083-.072-.058-.177.006-.106.066-.284.11-.396.075-.114-.035-.165-.075.068-.198.232-.123.42-.215.656-.26.235-.044.266-.183.136-.167-.129.018-.152-.057-.064-.123.041-.03.067-.116.06-.168-.006-.05-.085-.04-.187.073-.246.273-.789.294-1.059.214-.27-.078-.157-.208.038-.392.194-.185.376-.379.881-.318.505.062 1.4.252 1.81.143.41-.108.364-.295.24-.314-.226-.034-.219.185-.45.2-.234.011-.309-.104-.384-.186-.075-.082-.13-.154-.369-.04-.3.143-.533-.062-.663-.035.124-.068.328-.226.274-.287-.055-.062-.144.061-.328.13-.184.068-.458.082-.663-.04-.205-.124.007-.247.232-.302.226-.055.718-.055 1.121.055s.902.186 1.086.191c.136.004.198-.07.106-.157a.525.525 0 0 1 .393.055c.226.143.195 0 .146-.089.148-.01.404.174.507.105.03-.618-.01-1.868-.01-2.299 0-.075.054-.06.43-.06.454 0 .478-.035.464.184-.013.213-.144 1.49-.103 1.953.042.465.171.431.335.397.164-.034.554-.157.746-.15-.123.13-.137.218-.022.191a.448.448 0 0 1 .37.11c-.089.006-.15.122.007.15.157.027.21-.055.484-.144.273-.089 1.301-.292 1.886.082.171.11.035.157-.177.157s-.32-.047-.424-.088c-.103-.04-.195-.072-.174.01.021.081-.163.113-.328.037-.164-.075-.304-.109-.263-.02.04.09-.024.11-.243.096-.19-.012-.758.05-.734.142.013.056.122.082.31.041.448-.094 1.445-.123 1.747-.102.491.034.347.185.16.24-.188.055-.4.014-.447-.045-.049-.059-.21-.096-.172-.003.055.13-.215.16-.454.03-.163-.089-.195-.044-.136.028.058.072-.039.121-.222.105-.264-.019-.742-.026-.926.052-.202.085-.153.112.195.141" fill="#007934"/><path d="M17.88 20.22a.305.305 0 0 0-.305-.303h-.632a.305.305 0 0 0 0 .608h.632a.304.304 0 0 0 .304-.304M19.413 15.972a.44.44 0 0 0-.44-.44h-.042a.44.44 0 0 0 0 .88h.042a.44.44 0 0 0 .44-.44M18.806 14.182a.16.16 0 0 0-.321 0v.629a.16.16 0 0 0 .32 0v-.63zM17.78 14.354a.297.297 0 0 0-.297-.298h-.137a.297.297 0 0 0 0 .595h.137a.297.297 0 0 0 .297-.297M17.89 18.689c0-.24-.136-.436-.304-.436-.168 0-.304.196-.304.436v.478c0 .24.136.436.304.436.168 0 .304-.196.304-.436v-.478zM18.607 20.16a.182.182 0 0 0-.364 0v.278a.182.182 0 0 0 .364 0v-.278zM21.196 14.012c0-.186-.129-.335-.289-.335h-.602c-.16 0-.29.149-.29.335 0 .185.13.334.29.334h.602c.16 0 .29-.15.29-.334M16.564 13.482a.288.288 0 0 0-.288-.288h-.709a.288.288 0 0 0 0 .576h.709a.288.288 0 0 0 .288-.288" fill="#eee"/></g></svg>