<svg xmlns="http://www.w3.org/2000/svg" viewBox="0 0 45 45"><defs><clipPath id="a"><path d="M0 36h36V0H0v36z"/></clipPath><clipPath id="b"><path d="M15.958 22.935c-1.139 0-2.062.523-2.062.523v-2.896c0-3.625 2.883-5.625 4.244-6.437 1.361.812 4.245 2.812 4.245 6.437v2.896s-.925-.523-2.063-.523c-1.138 0-2.182.544-2.182.544s-1.044-.544-2.182-.544"/></clipPath><clipPath id="c"><path d="M0 36h36V0H0v36z"/></clipPath></defs><g clip-path="url(#a)" transform="matrix(1.25 0 0 -1.25 0 45)"><path d="M36 9a4 4 0 0 0-4-4H4a4 4 0 0 0-4 4v18a4 4 0 0 0 4 4h28a4 4 0 0 0 4-4V9z" fill="#eee"/><path d="M13 11.188s-.187-.127-.375-.085c-.187.043-.458-.008-.458-.008l-1.613 2.777s-.866-.81-1.658-.101c.416-.126.916.708 1.521.354-.563.52-1.646-.395-2.188.876.75-.46 1.188.27 1.875-.188-.667.75-1.646-.07-2.041.943.604-.215 1.104.445 1.645 0-.458.931-1.854-.36-2.125 1.202.605-.312 1.271.084 1.646-.23-.708 1.355-1.354-.207-1.958 1.771.417-.582 1-.02 1.604-.936-.437 1.667-1.625.27-2 2.229.75.25 1.062-.856 1.667-1.084-.375 1.293-1.167.917-.688 2.438 1.084-.541.604-1.458.959-2.521.27.375-.084.855.104 1.188.187.333.291.5.229.667.979-1.125-.209-2.084-.104-2.48.104-.395.27-.541.27-.541s-.104.604.105.958c.208.353.541.478.52.791.23-.27.146-.895-.125-1.208-.27-.312-.312-1.083-.145-1.354-.064.845.688.792.563 1.646.416-.083.563-1.042.104-1.396-.459-.354-.104-1.333-.104-1.333s.02.624.27.916c.25.292.396.605.333.896.334-.27.375-1.041.146-1.416s-.583-.584-.229-1.188c-.042 1.104.708.897.688 1.604.437-.333.187-1.042-.063-1.271-.25-.228-.208-.75-.208-.75s.271.376.479.522c.208.145.354.562.354.562s.258-1.3-.562-1.354c-.021-.605 1.145-2.396 1.562-2.896" fill="#379543"/><path d="M23.938 9.566l-.833-.399.792 2.562.5.333 1.29 5.292h-.478l1.312 2.396v-2.833l-.416.374-1.264-5.298.305-.576-.646-2.584-.562.733z" fill="#0081c7"/><path d="M23.286 10.376l-.9-.271 1.33 2.329.56.216 2.951 5.544-.468.104 1.802 2.054-.617-2.766-.324.456-2.925-5.556.172-.566-1.192-2.381-.389.837z" fill="#0081c7"/><path d="M22.42 10.054l-.924.006 1.834 1.955.596.08 3.854 4.566-.43.21 2.229 1.58-1.242-2.545-.21.517-3.832-4.584.02-.652-1.71-2.04-.185.907z" fill="#0081c7"/><path d="M14.584 18.688c-.312-.625-.98-.5-1.187-.292-.23-.459-1.001-.063-1.001.291-.353-.25-.73-.042-.77.23-.542-.084-1 .478-.833.812-.5.104-.647.687-.292.895-1.063-.02-1.896.312-1.584.792-.98.104-1.333.563-1.145.854-1.021.125-1.48.563-1.334.98-1.354.23-1.666.917-1.521 1.208-1.125.25-1.437.812-1.187 1.083-.625.042-.75.667-.542.896-.73.333-.583 1.146-.093 1.083.489-.062 2.072-.916 4.968-1.479.167.125.479.063.979-.167.5-.229 2.897-.895 3.563-1.145.667-.25 1.019-.766.938-1.209-.146-.79-.73-.916-.521-1.145.208-.23.833.312 1.25.062.416-.25.312-3.75.312-3.75M21.508 18.688c.312-.625.98-.5 1.187-.292.23-.459 1-.063 1 .291.355-.25.73-.042.772.23.54-.084 1 .478.833.812.5.104.647.687.292.895 1.062-.02 1.896.312 1.583.792.979.104 1.333.563 1.145.854 1.022.125 1.48.563 1.334.98 1.354.23 1.667.917 1.52 1.208 1.126.25 1.439.812 1.189 1.083.625.042.75.667.54.896.73.333.584 1.146.095 1.083-.49-.062-2.072-.916-4.97-1.479-.165.125-.478.063-.978-.167-.5-.229-2.896-.895-3.562-1.145-.668-.25-1.02-.766-.938-1.209.145-.79.729-.916.52-1.145-.207-.23-.832.312-1.25.062-.416-.25-.312-3.75-.312-3.75M14.5 18.291c-.125-.437-.438-.917-.958-1.313-.521-.395-.791-1.04-.771-1.458.021-.416-.146-.727-.396-.832l.229-.085s-.374-.498-.583-.54c-.209-.043-1.209.082-1.396-.105-.187-.187-.562-.936-.312-1.083.249-.146.354-.396.499-.541.146-.146.937.084 1.105.229.166.145.146.874.291.957.146.084 1.521.709 1.521.709l.021-.313s.229.271.417.354c.187.084.229.48.333.668.104.186.896.895 1.937 1.02 1.042.125-1.937 2.333-1.937 2.333M21.574 18.291c.125-.437.438-.917.958-1.313.521-.395.791-1.04.771-1.458-.02-.416.146-.727.396-.832l-.23-.085s.375-.498.584-.54c.21-.043 1.21.082 1.396-.105.187-.187.562-.936.312-1.083-.249-.146-.354-.396-.499-.541-.146-.146-.937.084-1.105.229-.166.145-.147.874-.29.957-.148.084-1.523.709-1.523.709l-.02-.313s-.23.271-.417.354c-.188.084-.229.48-.333.668-.105.186-.896.895-1.937 1.02-1.043.126 1.937 2.334 1.937 2.334" fill="#f4c63d"/><path d="M16.125 15.708c-.366.081-.521-.396-.5-.583-.396-.042-1.313-1.313-1.458-1.75-.146-.438-.021-.626.166-.605-.02-.312.23-.573.5-.484.021-.328.209-.537.438-.516.042-.353.25-.562.5-.499.042-.354.312-.543.666-.438.021-.479.375-.937.875-.416.084-.959 1.271-1.273 1.396-.064.438-.395 1-.187 1 .48.25-.187.604.063.625.438.25-.104.459.145.459.562.27-.146.459.155.438.474.291-.099.562.192.5.526.27-.104.457.324.125.854-.522.834-1.334 1.438-1.334 1.438s.125.496-.541.592c-.667.095-3.855-.009-3.855-.009M15.646 22.604c.312.271.479.729.479.729s-.292-.042-.479.188c.312.041.751.354.896.583a.595.595 0 0 0-.448.167s.615.166.698.521c.083.354.125.541.271.687.145.146-.125.604-.5.563-.375-.042-.833-.084-.917-.313-.146.396.084.833.437.896.355.062.576.083.576.083s.049.292.299.271c.334.437.552.479 1.109.458.558-.021.829-.354 1.058-.791.23-.438.188-1.438.667-1.875-.125-.167-.5 0-.5 0s.374-.646.958-.98c-.083-.145-.437-.208-.437-.208s.458-.396.562-.854c.105-.458-4.729-.125-4.729-.125" fill="#f4c63d"/><path d="M20.322 22.935c-1.139 0-2.182.544-2.182.544s-1.044-.544-2.182-.544c-1.139 0-2.062.523-2.062.523v-2.896c0-3.625 2.882-5.625 4.244-6.437 1.361.812 4.245 2.812 4.245 6.437v2.896s-.924-.523-2.063-.523" fill="#a70033"/></g><g clip-path="url(#b)" fill="#fff" transform="matrix(1.25 0 0 -1.25 0 45)"><path d="M15.229 13.75h.605v6.749h-.605V13.75zM13.896 13.75h.605v6.749h-.605V13.75zM16.505 13.75h.605v6.749h-.605V13.75zM17.837 13.75h.605v6.749h-.605V13.75zM19.113 13.75h.605v6.749h-.605V13.75zM20.449 13.75h.605v6.749h-.605V13.75zM21.779 13.75h.605v6.749h-.605V13.75z"/></g><g clip-path="url(#c)" transform="matrix(1.25 0 0 -1.25 0 45)"><path d="M18.14 23.479s-1.043-.544-2.182-.544-2.062.523-2.062.523v-2.896c0-.099.01-.193.014-.291h8.46c.005.098.015.192.015.291v2.896s-.924-.523-2.063-.523c-1.139 0-2.182.544-2.182.544" fill="#172668"/><path d="M3.646 20.938H1.729s.417-.083.605-.521c.187-.438 1.361-3.883 1.458-4.297.146-.62-.313-.745-.313-.745h1.896s-.542.095-.375.746c.167.65 1.271 3.879 1.396 4.275a.917.917 0 0 0 .479.541H4.979s.646-.145.459-.666c-.188-.52-1.021-3.313-1.021-3.313s-.938 2.794-1.104 3.314c-.167.52.333.666.333.666M33.844 20.938h-1.75s.34-.234.34-.687c0-.462-.012-3.934-.012-4.267 0-.438-.4-.609-.4-.609h1.894s-.51.265-.51.64v4.336c0 .4.438.587.438.587" fill="#0081c7"/></g></svg>