<svg xmlns="http://www.w3.org/2000/svg" viewBox="0 0 45 45"><defs><clipPath id="a"><path d="M0 36h36V0H0v36z"/></clipPath></defs><g clip-path="url(#a)" transform="matrix(1.25 0 0 -1.25 0 45)"><path d="M36 4a4 4 0 0 0-4-4H4a4 4 0 0 0-4 4v28a4 4 0 0 0 4 4h28a4 4 0 0 0 4-4V4z" fill="#3b88c3"/><path d="M4.298 26.162c-.093.403-.124.62-.124 1.054 0 .992.837 2.047 2.201 2.047 1.488 0 2.202-.87 2.481-2.233l2.635-13.177h.062l4.031 13.58c.341 1.116 1.272 1.83 2.42 1.83 1.146 0 2.076-.714 2.418-1.83l4.03-13.58h.061L27.15 27.03c.277 1.364.992 2.233 2.481 2.233 1.363 0 2.201-1.055 2.201-2.047 0-.434-.032-.651-.125-1.054L27.77 9.232c-.31-1.302-1.334-2.417-3.069-2.417a3.161 3.161 0 0 0-3.069 2.262l-3.598 11.969h-.06l-3.598-11.97a3.163 3.163 0 0 0-3.07-2.261c-1.736 0-2.759 1.115-3.069 2.418L4.298 26.162z" fill="#fff"/></g></svg>