<svg xmlns="http://www.w3.org/2000/svg" viewBox="0 0 45 45"><defs><clipPath id="a"><path d="M0 36h36V0H0v36z"/></clipPath><clipPath id="b"><path d="M4 31a4 4 0 0 1-4-4v-9h19v13H4z"/></clipPath><clipPath id="c"><path d="M0 36h36V0H0v36z"/></clipPath></defs><g clip-path="url(#a)" transform="matrix(1.25 0 0 -1.25 0 45)"><path d="M36 9a4 4 0 0 0-4-4H4a4 4 0 0 0-4 4v18a4 4 0 0 0 4 4h28a4 4 0 0 0 4-4V9z" fill="#ffe150"/><path d="M19 31H4a4 4 0 0 1-4-4v-9h19v13z" fill="#00247d"/><path d="M19 18v2.029L11.9 25H6.671l9.997-7H19z" fill="#eee"/><path d="M19 19.419l-7.971 5.58H9.286L19 18.2v1.22z" fill="#cf1b2b"/><path d="M8.1 25L0 19.234V18h3.332l9.998 7H8.1z" fill="#eee"/><path d="M10.714 25l-9.98-7H2.46l9.998 7h-1.744z" fill="#cf1b2b"/><path d="M16.669 31l-9.997-7H11.9L19 28.97V31h-2.331z" fill="#eee"/><path d="M17.54 31l-9.997-7h1.744L19 30.802V31h-1.46z" fill="#cf1b2b"/></g><g clip-path="url(#b)" transform="matrix(1.25 0 0 -1.25 0 45)"><path d="M10 24h3.329l-9.997 7H1l-.625-1.594L10 22.669V24z" fill="#eee"/><path d="M10 24h.714L1 30.802l-.5-.865 9.5-6.659V24z" fill="#cf1b2b"/></g><g clip-path="url(#c)" transform="matrix(1.25 0 0 -1.25 0 45)"><path d="M19 27h-7v4H7v-4H0v-5h7v-4h5v4h7v5z" fill="#eee"/><path d="M11 18H8v13h3V18z" fill="#cf1b2b"/><path d="M19 23H0v3h19v-3z" fill="#cf1b2b"/><path d="M12 24.5a2.5 2.5 0 1 0-5 0 2.5 2.5 0 0 0 5 0" fill="#004a77"/><path d="M9.5 27.034l.599-1.6 1.824-.038-1.454-1.225.529-1.746L9.5 23.467l-1.498-1.042.529 1.746-1.454 1.225 1.824.037.599 1.601zM3.824 25.515l.246-.707.748-.016-.597-.452.217-.716-.614.428-.614-.428.217.716-.597.452.748.016.246.707zM15.176 25.515l.246-.707.748-.016-.596-.452.216-.716-.614.428-.614-.428.217.716-.597.452.748.016.246.707zM9.5 30.179l.246-.707.748-.016-.596-.452.216-.716-.614.428-.614-.428.217.716-.597.452.748.016.246.707zM9.5 20.712l.246-.707.748-.015-.596-.452.216-.717-.614.428-.614-.428.217.717-.597.452.748.015.246.707z" fill="#ffe150"/></g></svg>