<svg xmlns="http://www.w3.org/2000/svg" viewBox="0 0 45 45"><defs><clipPath id="a"><path d="M4 31a4 4 0 0 1-4-4V9a4 4 0 0 1 4-4h28a4 4 0 0 1 4 4v18a4 4 0 0 1-4 4H4z"/></clipPath></defs><g clip-path="url(#a)" transform="matrix(1.25 0 0 -1.25 0 45)"><path d="M0 31h36v-7H0v7z" fill="#141414"/><path d="M0 22h36v2H0v-2z" fill="#eee"/><path d="M36 5H0v7h36V5z" fill="#078930"/><path d="M36 12v2H0v-2h36z" fill="#eee"/><path d="M0 14h36v8H0v-8z" fill="#da121a"/><path d="M0 31l19.017-13L0 5v26z" fill="#0f47af"/><path d="M8.249 18l1.776 2.445-2.874-.934-1.777 2.445v-3.022L2.5 18l2.874-.934v-3.022l1.777 2.445 2.874-.934L8.249 18z" fill="#fcdd09"/></g></svg>