<svg xmlns="http://www.w3.org/2000/svg" viewBox="0 0 45 45"><defs><clipPath id="a"><path d="M0 36h36V0H0v36z"/></clipPath></defs><g clip-path="url(#a)" transform="matrix(1.25 0 0 -1.25 0 45)"><path d="M36 4a4 4 0 0 0-4-4H4a4 4 0 0 0-4 4v28a4 4 0 0 0 4 4h28a4 4 0 0 0 4-4V4z" fill="#3b88c3"/><path d="M15.428 19.31h3.193c1.705 0 2.885 1.023 2.885 2.759 0 1.767-1.18 2.729-2.885 2.729h-3.193V19.31zm-4.65 7.348c0 1.488.836 2.419 2.386 2.419h5.457c4.775 0 7.721-2.14 7.721-7.008 0-3.41-2.574-5.364-5.737-5.86l5.272-5.643c.433-.465.62-.93.62-1.364 0-1.21-.962-2.387-2.325-2.387-.559 0-1.303.217-1.799.806l-6.884 8.34h-.06V9.233c0-1.551-.993-2.418-2.327-2.418-1.333 0-2.325.867-2.325 2.418v17.425z" fill="#fff"/></g></svg>