<svg xmlns="http://www.w3.org/2000/svg" viewBox="0 0 45 45"><defs><clipPath id="a"><path d="M4 31a4 4 0 0 1-4-4V9a4 4 0 0 1 4-4h28a4 4 0 0 1 4 4v18a4 4 0 0 1-4 4H4z"/></clipPath></defs><g clip-path="url(#a)" transform="matrix(1.25 0 0 -1.25 0 45)"><path d="M13.589 18.705l-1.308.95-1.308-.95.5 1.538-1.31.95h1.618l.5 1.538.5-1.538h1.616l-1.308-.95.5-1.538zm-4.393 3.766l-1.308.95-1.308-.95.499 1.537-1.308.951h1.617l.5 1.537.499-1.537h1.617l-1.308-.95.5-1.538zm-4.893 5.303l.5-1.538-1.308.95-1.31-.95.5 1.538-1.307.95h1.617l.5 1.538.499-1.538H5.61l-1.308-.95zm.5-9.069l-1.308.95-1.31-.95.5 1.538-1.307.95h1.617l.5 1.538.499-1.538H5.61l-1.308-.95.5-1.538zm6.978 10.02l.5 1.537.5-1.538h1.616l-1.308-.95.5-1.538-1.308.95-1.308-.95.5 1.538-1.31.95h1.618zM0 31V6.345L33.983 31H0z" fill="#0051ba"/><path d="M36 5v24.655L2.017 5H36z" fill="#215b33"/><path d="M33.983 31L0 6.345V5h2.018L36 29.655V31h-2.017z" fill="#fcd116"/><path d="M8.387 24.923l-.5 1.538-.499-1.538H5.771l1.308-.95-.5-1.538 1.308.95 1.308-.95-.499 1.538 1.308.95H8.387zM3.494 30.226l-.5-1.538H1.377l1.31-.95-.5-1.538 1.307.95 1.308-.95-.5 1.538 1.308.95H3.994l-.5 1.538zM12.78 21.157l-.5 1.538-.499-1.538h-1.617l1.308-.95-.5-1.538 1.308.95 1.308-.95-.499 1.538 1.308.95H12.78zM3.994 21.157l-.5 1.538-.5-1.538H1.379l1.308-.95-.5-1.538 1.308.95 1.308-.95-.5 1.538 1.309.95H3.994zM10.973 26.2l1.307.95 1.309-.95-.5 1.538 1.308.95H12.78l-.5 1.538-.5-1.538h-1.615l1.308-.95-.5-1.538z" fill="#fff"/></g></svg>