<svg xmlns="http://www.w3.org/2000/svg" viewBox="0 0 45 45"><defs><clipPath id="a"><path d="M4 31a4 4 0 0 1-4-4V9a4 4 0 0 1 4-4h28a4 4 0 0 1 4 4v18a4 4 0 0 1-4 4H4z"/></clipPath></defs><g clip-path="url(#a)" transform="matrix(1.25 0 0 -1.25 0 45)"><path d="M-.031 5h2.5v26h-2.5V5z" fill="#0070c0"/><path d="M2.469 5h2v26h-2V5z" fill="#eee"/><path d="M4.469 5h2.5v26h-2.5V5z" fill="#c00000"/><path d="M6.97 31h-.032V5h.031l14.5 13-14.5 13z" fill="#0070c0"/><path d="M35.97 31H36V5h-.03l-14.5 13 14.5 13z" fill="#c00000"/><path d="M35.97 31h-29l14.5-13 14.5 13z" fill="#ffc000"/><path d="M6.97 5h29l-14.5 13L6.97 5z" fill="#00b050"/><path d="M26.97 18a5.5 5.5 0 1 0-11 0 5.5 5.5 0 1 0 11 0" fill="#fff"/></g></svg>