<svg xmlns="http://www.w3.org/2000/svg" viewBox="0 0 45 45"><defs><clipPath id="a"><path d="M0 36h36V0H0v36z"/></clipPath></defs><g clip-path="url(#a)" transform="matrix(1.25 0 0 -1.25 0 45)"><path d="M36 4a4 4 0 0 0-4-4H4a4 4 0 0 0-4 4v28a4 4 0 0 0 4 4h28a4 4 0 0 0 4-4V4z" fill="#3b88c3"/><path d="M24.281 11.093c1.301 0 2.232-.713 2.232-2.046 0-1.18-1.117-2.047-2.232-2.047H12.095c-1.644 0-2.605.93-2.605 2.233 0 .62.217 1.24.62 1.798l9.984 13.953H11.94c-1.24 0-2.17.713-2.17 1.984 0 1.178.992 2.108 2.17 2.108h11.35c1.796 0 2.602-1.147 2.602-2.232 0-.682-.279-1.457-.68-1.984l-9.924-13.767h8.993z" fill="#fff"/></g></svg>