<svg xmlns="http://www.w3.org/2000/svg" viewBox="0 0 45 45"><defs><clipPath id="a"><path d="M0 36h36V0H0v36z"/></clipPath></defs><g clip-path="url(#a)" transform="matrix(1.25 0 0 -1.25 0 45)"><path d="M36 9a4 4 0 0 0-4-4H4a4 4 0 0 0-4 4v18a4 4 0 0 0 4 4h28a4 4 0 0 0 4-4V9z" fill="#032a87"/><path d="M32 31H4a4 4 0 0 1-4-4v-9h36v9a4 4 0 0 1-4 4" fill="#dc181e"/><path d="M1.313 6.055l15.718 11.88L1.33 29.96A3.973 3.973 0 0 1 0 26.999V9c0-1.17.512-2.213 1.313-2.944" fill="#eee"/><path d="M8.625 21.26c0-.914-.962-1.656-2.148-1.656-1.187 0-2.149.742-2.149 1.657s.962 1.656 2.149 1.656c1.186 0 2.148-.741 2.148-1.656" fill="#fada10"/><path d="M3.854 21.959c.46.46 2.12.437 2.622.146-.56.754.212.396.817.396.603 0 .77-.186.375-.228-.397-.043-.73.02-.625-.105.103-.125.708-.02 1.249.105.542.123 1.167-.334 1.209-.418.04-.083-.96.125-1.313 0-.355-.125-.918-.104-.876-.23.042-.124-.589-.207-.836-.145-.247.063-1.268.042-1.1.146.165.104.374.229.457.27.084.043-1.25.084-1.979.063" fill="#bd725f"/><path d="M10.156 21.438s-.939-.477-1.89-.25c-1.048.25-1.813.139-1.813-.141 0 .28-.766.39-1.813.14-.95-.227-1.89.25-1.89.25s.694-1.109.281-3.328c-.422-2.266-.297-3.297 1.49-3.364 1.51-.056 1.932-.51 1.932-.51s.421.454 1.932.51c1.787.068 1.912 1.099 1.49 3.365-.413 2.219.281 3.328.281 3.328" fill="#dc181e"/><path d="M9.469 17.422c-.531 1.828.03 3.328.03 3.328s-.827-.25-1.75.016c-.921.265-1.296-.188-1.296-.188s-.375.453-1.296.188c-.922-.266-1.75-.016-1.75-.016s.562-1.5.03-3.328c-.53-1.828.766-2.094 1.64-2.078.876.015 1.376-.485 1.376-.485s.5.5 1.375.485c.875-.016 2.172.25 1.64 2.078" fill="#63b0e2"/><path d="M8.547 16.11v.905h.203v.36h-.22v.968h.204l-1.671 1.11v.453h.25l-.86.578-.86-.578h.25v-.453l-1.671-1.11h.203v-.968h-.22v-.36h.205v-.906h-.25v-.453H8.797v.453h-.25zM8.71 19.883c0-.358-.072-.492-.163-.492-.091 0-.164.134-.164.492s.164.648.164.648.164-.29.164-.648" fill="#fff"/><path d="M9.18 19.344H7.914c0 .172.284.312.633.312.35 0 .633-.14.633-.312" fill="#fff"/><path d="M4.875 19.813s-.234-.422-.281-.672c-.047-.25-.188.156-.188.156s-.25-.25-.312-.344c-.063-.094-.078.718 0 .828.078.11-.188.078-.281.125-.094.047.203.343.203.343s-.407.188-.266.235c.141.047.656.015.828-.125.172-.14.578.094.734.125.157.031 0-.156-.125-.266-.125-.109-.062-.39-.062-.53 0-.141-.25.125-.25.125" fill="#018830"/><path d="M7.422 17.266H5.578v.531h1.844v-.531zM5.25 17.5h-.562v.734h.562V17.5zM5.25 16.266h-.562V17h.562v-.734zM8.266 17.5h-.562v.734h.562V17.5zM8.266 16.266h-.562V17h.562v-.734zM6.891 19.391h-.844v.391h.844v-.391z" fill="#b6b6b6"/><path d="M11.5 17.234l-.156.891-.828-.266.25-1.203.187-.047s.016-.969-.719-1.719c-.734-.75-2.031-.75-2.031-.75s-.672-.484-1.75-.484c-1.078 0-1.75.484-1.75.484s-1.297 0-2.031.75c-.735.75-.719 1.72-.719 1.72l.188.046.25 1.203-.829.266-.156-.89-.297-.032s.016-1.75.625-2.672c.61-.922 1.969-1.203 1.969-1.203s.016-.11.047-.219c.891-.516 2.703-.547 2.703-.547s1.813.031 2.703.547c.031.11.047.22.047.22s1.36.28 1.969 1.202c.609.922.625 2.672.625 2.672l-.297.031z" fill="#fada10"/></g></svg>