<svg xmlns="http://www.w3.org/2000/svg" viewBox="0 0 45 45"><defs><clipPath id="a"><path d="M0 36h36V0H0v36z"/></clipPath></defs><g clip-path="url(#a)" transform="matrix(1.25 0 0 -1.25 0 45)"><path d="M0 9a4 4 0 0 1 4-4h28a4 4 0 0 1 4 4v1H0V9zM0 13h36v4H0v-4z" fill="#0038a8"/><path d="M0 10h36v3H0v-3z" fill="#eee"/><path d="M36 27a4 4 0 0 1-4 4H16v-4h20zM16 20h20v4H16v-4z" fill="#0038a8"/><path d="M16 27v4H4a4 4 0 0 1-4-4V17h36v3H16v4h20v3H16z" fill="#eee"/><path d="M13 24a5 5 0 1 1-10.002 0A5 5 0 0 1 13 24" fill="#ffd983"/><path d="M12 24a4 4 0 1 1-8.001 0A4 4 0 0 1 12 24" fill="#ffcc4d"/><path d="M8 30.403l.633-4.04 2.569 3.182-1.473-3.816 3.816 1.472-3.183-2.569L14.403 24l-4.041-.633 3.183-2.569-3.816 1.472 1.473-3.816-2.569 3.183L8 17.597l-.633 4.04-2.569-3.183 1.473 3.816-3.816-1.472 3.183 2.57L1.597 24l4.041.632-3.183 2.57 3.816-1.473-1.473 3.816 2.569-3.183L8 30.403z" fill="#ffac33"/><path d="M11 24a3 3 0 1 1-6 0 3 3 0 0 1 6 0" fill="#c1694f"/><path d="M5.834 23.996a2.153 2.153 0 1 0 4.307.001 2.153 2.153 0 0 0-4.307 0" fill="#ffac33"/></g></svg>