<svg xmlns="http://www.w3.org/2000/svg" viewBox="0 0 45 45"><defs><clipPath id="a"><path d="M0 36h36V0H0v36z"/></clipPath><clipPath id="b"><path d="M4 31a4 4 0 0 1-4-4v-9h19v13H4z"/></clipPath><clipPath id="c"><path d="M0 36h36V0H0v36z"/></clipPath></defs><g clip-path="url(#a)" transform="matrix(1.25 0 0 -1.25 0 45)"><path d="M36 9a4 4 0 0 0-4-4H4a4 4 0 0 0-4 4v18a4 4 0 0 0 4 4h28a4 4 0 0 0 4-4V9z" fill="#00247d"/><path d="M19 31H4a4 4 0 0 1-4-4v-9h19v13z" fill="#00247d"/><path d="M19 18v2.029L11.9 25H6.671l9.997-7H19z" fill="#eee"/><path d="M19 19.418L11.029 25H9.286L19 18.198v1.22z" fill="#cf1b2b"/><path d="M8.1 25L0 19.234V18h3.332l9.998 7H8.1z" fill="#eee"/><path d="M10.714 25l-9.98-7H2.46l9.998 7h-1.744z" fill="#cf1b2b"/><path d="M16.669 31l-9.997-7H11.9L19 28.97V31h-2.331z" fill="#eee"/><path d="M17.54 31l-9.997-7h1.743L19 30.802V31h-1.46z" fill="#cf1b2b"/></g><g clip-path="url(#b)" transform="matrix(1.25 0 0 -1.25 0 45)"><path d="M10 24h3.328l-9.996 7H1l-.625-1.594L10 22.669V24z" fill="#eee"/><path d="M10 24h.714L1 30.802l-.5-.865 9.5-6.659V24z" fill="#cf1b2b"/></g><g clip-path="url(#c)" transform="matrix(1.25 0 0 -1.25 0 45)"><path d="M19 27h-7v4H7v-4H0v-5h7v-4h5v4h7v5z" fill="#eee"/><path d="M11 18H8v13h3V18z" fill="#cf1b2b"/><path d="M19 23H0v3h19v-3z" fill="#cf1b2b"/><path d="M32.948 15.732c.027.232.04.473.04.727v7.043H23V16.46c0-.254.012-.495.04-.727h9.908z" fill="#55acee"/><path d="M32.948 15.732c-.14-1.225-.65-2.13-1.477-2.869-1.43-1.278-3.477-1.559-3.477-1.863 0 .304-2.048.585-3.479 1.863-.826.738-1.335 1.644-1.476 2.87h9.91z" fill="#9f1d22"/><path d="M32.953 15.705h-9.922l-.03.277h10l-.048-.277z" fill="#9f1d22"/><path d="M28.342 21.247h1.894v.628h-1.894v.844h-.663v-.844h-1.927v-.628h1.927v-7.954h.663v7.954z"/><path d="M28.342 20.31c.114.1.175.159.244.149a.571.571 0 0 1 .236.015c.07.022.42.065.565.017.048-.006.113-.032.213-.117.1-.084.248-.231.198-.637-.05-.406-.033-.58-.054-.806-.037-.402-.128-.733-.287-.706.217-.379.238-.704.378-.964s.23-.79.174-1.365c-.055-.574-.206-1.863.249-2.73-.076-.054-.26 0-.423.173-.161.174-.233.167-.368.065-.41-.313-.796-.694-1.365-.313-.13.086-.17.19-.076.454.239.661.354 1.567.316 1.993v4.772z" fill="#77b253"/><path d="M26.023 15.406c.347-.357 1.43-1.503 1.569-1.633.14-.13.207-.12.262.01.392.943.293 2.144-.678 3.327-.157-.58-.561-.959-1.196-1.095-.324-.069-.38-.277-.32-.357.087.156.281.162.374-.017.074-.147-.024-.33-.186-.38-.162-.047-.4-.042-.498.126-.098.167-.178.558.271.751.45.197.932.397 1.023.798.093.401.217.596.488.622 1.5-1.38 1.69-2.925 1.067-4.305-.152-.335-.39-.423-.553-.218a98.806 98.806 0 0 1-1.882 2.21.297.297 0 0 1 .258.161" fill="#faaa34"/><path d="M28.733 20.718a.444.444 0 0 0-.003-.32.431.431 0 0 1 .022-.396c.13.185.314.147.421.255.11.109.131.212.213.233-.082.07-.207.146-.179.352.027.206.314.374.053.688a.38.38 0 0 1-.626-.057c-.014-.035.005-.114-.035-.162a.469.469 0 0 0-.096-.092c-.025-.018-.04-.043-.014-.073.01-.013.03-.015.05-.022a.382.382 0 0 0-.039-.067c-.013-.016-.008-.032.008-.045-.02-.065.02-.073-.008-.121-.023-.042-.055-.092.032-.141a.5.5 0 0 1 .201-.032M27.679 19.64c-.15-.039-.393.026-.58.004-.08-.009-.145.033-.135.114.01.082.023.207.006.32-.024.177.06.422.179.693.12.271.179.423.179.55 0 .085.007.18.083.228.057.036.068.07.088.1.045.068.089.084.093.044.005-.025-.004-.047-.025-.08.049.041.13.09.15.103.019.013.114.08.119.017.039.02.066.017.073-.002.01-.023.004-.033-.013-.049.026.007.058-.04.005-.084.027.01.055-.037.006-.08-.052-.045-.113-.076-.132-.112a.707.707 0 0 0-.198-.155c-.05-.022-.053-.05-.053-.127 0-.835-.102-.767-.102-.967 0-.055-.011-.104.043-.086.056.015.134.04.214.04v-.472zM27.713 17.84c.245.125.524.168.67.208.147.037.38.15.494.21.113.06.205.14.27.163a.296.296 0 0 1 .179.147c.212.41.325.74.325 1.028 0 .189-.05.4-.233.25-.172-.143-.36-.418-.411-.618-.077-.304-.14-.368-.157-.43-.016-.058-.077-.058-.153-.074-.318-.071-.394-.12-.632-.298a6.27 6.27 0 0 0-.673-.433c-.173-.097-.204-.108-.243-.187a.788.788 0 0 0-.106-.174.13.13 0 0 1-.035-.12c.006-.034-.01-.196-.014-.251-.002-.053.01-.068.033-.07.02-.002.05.008.063.073-.012-.065.079-.043.084.005-.003-.07.092-.03.098.036 0-.045.07-.014.077.008.016.055.03.113.052.157.03.063.066.145.127.19.07.052.039.108.185.18M29.467 13.404c.018-.059.046-.127.058-.166.01-.04-.01-.054-.02-.078a1.473 1.473 0 0 1-.126-.41c-.007-.06-.047-.118-.066-.152-.021-.038-.014-.07.035-.107.023-.017.098.006.105.043.029-.026.078-.015.098.026.024-.026.065-.008.092.033.025-.017.06.014.074.038.037-.02.078.003.079.078 0 .013.01.041.022.056a.22.22 0 0 1 .012.083.297.297 0 0 0 .044.132c.026.041.07.115.05.186-.016.066-.046.06-.07.155-.06.063-.14.15-.224.153-.085.006-.134-.049-.163-.07M27.927 12.94c.075-.076.245-.08.366.049a.974.974 0 0 0-.182.096c-.06-.059-.128-.127-.184-.146" fill="#f6ddcd"/><path d="M28.693 21.551c.03.193.165.187.252.168a.467.467 0 0 1 .202.006c.16.042.282-.014.267-.169.043-.03.088-.108.08-.172-.007-.065.006-.093.064-.1.06-.009.188-.082.104-.185.082-.049.143-.173.1-.258-.043-.083-.174-.096-.226-.02-.06-.028-.157-.033-.218.03-.04-.049-.145-.044-.164 0a.131.131 0 0 1-.088.077c-.043.014-.047.133.02.147-.01.035-.006.076.01.094.015.02.003.055-.036.084-.037.03-.07.144-.033.206-.064-.02-.208.041-.238.084-.028.043-.069.046-.096.008" fill="#955c0f"/><path d="M28.693 21.551c.03.193.165.187.252.168a.467.467 0 0 1 .202.006c.16.042.282-.014.267-.169.043-.03.088-.108.08-.172-.007-.065.006-.093.064-.1.06-.009.188-.082.104-.185.082-.049.143-.173.1-.258-.043-.083-.174-.096-.226-.02-.06-.028-.157-.033-.218.03-.04-.049-.145-.044-.164 0a.131.131 0 0 1-.088.077c-.043.014-.047.133.02.147-.01.035-.006.076.01.094.015.02.003.055-.036.084-.037.03-.07.144-.033.206-.064-.02-.208.041-.238.084-.028.043-.069.046-.096.008zM28.733 20.718c.106.014.141.078.22.073M28.752 20.002c-.092-.124-.152-.297-.109-.541.045-.244.115-.601-.063-.764M29.457 18.225c-.125.027-.304.027-.4-.042a.386.386 0 0 0-.37-.022" fill="none" stroke="#000" stroke-width=".015"/></g></svg>