<svg xmlns="http://www.w3.org/2000/svg" viewBox="0 0 45 45"><defs><clipPath id="a"><path d="M4 31a4 4 0 0 1-4-4V9a4 4 0 0 1 4-4h28a4 4 0 0 1 4 4v18a4 4 0 0 1-4 4H4z"/></clipPath></defs><g clip-path="url(#a)" transform="matrix(1.25 0 0 -1.25 0 45)"><path d="M0 31h36V5H0v26z" fill="#009e60"/><path d="M0 31h27V5H0v26z" fill="#fcd116"/><path d="M0 31h9V5H0v26z" fill="#0072c6"/><path d="M15.833 12.583L18 8.25l2.166 4.333L18 16.916l-2.167-4.333zM13.125 18l2.167-4.333L17.458 18l-2.166 4.333L13.125 18zM18.542 18l2.167-4.333L22.875 18l-2.166 4.333L18.542 18z" fill="#009e60"/></g></svg>