<svg xmlns="http://www.w3.org/2000/svg" viewBox="0 0 45 45"><defs><clipPath id="a"><path d="M0 36h36V0H0v36z"/></clipPath></defs><g clip-path="url(#a)" transform="matrix(1.25 0 0 -1.25 0 45)"><path d="M36 4a4 4 0 0 0-4-4H4a4 4 0 0 0-4 4v28a4 4 0 0 0 4 4h28a4 4 0 0 0 4-4V4z" fill="#3b88c3"/><path d="M8.918 25.883A2.903 2.903 0 0 0 8.7 27.03c0 1.302 1.146 2.232 2.386 2.232 1.056 0 1.707-.682 2.109-1.52l4.807-12.897 4.806 12.898c.402.837 1.053 1.519 2.108 1.519 1.24 0 2.386-.93 2.386-2.232 0-.434-.06-.744-.217-1.147l-6.79-17.27c-.403-.993-.93-1.798-2.293-1.798-1.365 0-1.892.805-2.295 1.798l-6.79 17.27z" fill="#fff"/></g></svg>