<svg xmlns="http://www.w3.org/2000/svg" viewBox="0 0 45 45"><defs><clipPath id="a"><path d="M0 36h36V0H0v36z"/></clipPath><clipPath id="b"><path d="M4 31a4 4 0 0 1-4-4V9a4 4 0 0 1 4-4h28a4 4 0 0 1 4 4v18a4 4 0 0 1-4 4H4z"/></clipPath><clipPath id="c"><path d="M0 36h36V0H0v36z"/></clipPath></defs><g clip-path="url(#a)" transform="matrix(1.25 0 0 -1.25 0 45)"><path d="M36 9a4 4 0 0 0-4-4H4a4 4 0 0 0-4 4v18a4 4 0 0 0 4 4h28a4 4 0 0 0 4-4V9z" fill="#003580"/><path d="M1.067 6.299A3.973 3.973 0 0 1 4 4.999h28a4 4 0 0 1 4 4v18a3.97 3.97 0 0 1-1.018 2.644L1.067 6.299z" fill="#009543"/></g><g clip-path="url(#b)" transform="matrix(1.25 0 0 -1.25 0 45)"><path d="M44.296 32.75L-4.854-1.664-8.294 3.25l49.15 34.415 3.44-4.915z" fill="#eee"/><path d="M43.722 33.568L-5.426-.847-7.69 2.384 41.46 36.8l2.26-3.23z" fill="#d20f34"/></g><g clip-path="url(#c)" transform="matrix(1.25 0 0 -1.25 0 45)"><path d="M8 28l.809-1.981L10.5 27.33l-.29-2.12 2.12.29-1.311-1.691L13 23l-1.981-.809L12.33 20.5l-2.12.29.29-2.12-1.691 1.311L8 18l-.809 1.981L5.5 18.67l.29 2.12-2.12-.29 1.311 1.691L3 23l1.981.809L3.67 25.5l2.12-.29-.29 2.12 1.691-1.311L8 28z" fill="#ffce00"/><path d="M11.175 23a3.175 3.175 0 1 0-6.35 0 3.175 3.175 0 0 0 6.35 0" fill="#004a77"/><path d="M10.467 23a2.467 2.467 0 1 0-4.934 0 2.467 2.467 0 0 0 4.934 0" fill="#ffce00"/></g></svg>