<svg xmlns="http://www.w3.org/2000/svg" viewBox="0 0 45 45"><defs><clipPath id="a"><path d="M0 36h36V0H0v36z"/></clipPath></defs><g clip-path="url(#a)" transform="matrix(1.25 0 0 -1.25 0 45)"><path d="M36 9a4 4 0 0 0-4-4H4a4 4 0 0 0-4 4v18a4 4 0 0 0 4 4h28a4 4 0 0 0 4-4V9z" fill="#00785e"/><path d="M17.976 27.433c.18-.347.279-.775.407-1.174h1.272c-.328-.256-.678-.49-1.008-.743.094-.41.248-.76.36-1.15-.068-.027-.164.063-.24.119-.22.163-.513.383-.742.55-.373-.185-.713-.532-1.031-.694.1.403.256.75.36 1.15-.307.278-.657.51-1.007.744.367.056.839.008 1.246.024.144.376.278.76.383 1.174M12.535 24.03c.246.145.466.316.695.48-.104.245-.148.553-.263.79.22-.075.458-.342.695-.48.247.145.47.314.695.48-.018-.23-.179-.524-.239-.79.184-.216.44-.359.67-.529-.24-.057-.589-.013-.838 0a4.227 4.227 0 0 1-.288-.815c-.126.234-.193.528-.264.815h-.647c-.018.07-.198-.02-.216.048M23.249 23.981h-.623c-.103-.257-.168-.55-.264-.815-.109.26-.193.543-.289.815a8.287 8.287 0 0 0-.862-.024c.208.192.464.336.671.527-.067.293-.178.541-.264.815.243-.149.465-.318.695-.479.271.138.46.355.719.503-.104-.246-.148-.553-.263-.79.202-.198.454-.346.695-.504-.019-.069-.197.022-.215-.048M11.266 22.52c.117-.226.118-.568.19-.839.302-.019.57-.07.864-.096-.242-.142-.481-.286-.742-.407.015-.304.094-.545.143-.815-.07-.016-.21.12-.311.216-.113.104-.213.235-.312.311-.27-.123-.498-.285-.766-.408.12.248.218.517.359.744-.17.238-.401.414-.623.599.25.043.57-.051.839-.072.137.237.254.496.359.767M25.07 21.753c.288.03.56.08.863.096-.204-.206-.434-.381-.625-.6.13-.24.23-.507.362-.743-.229.053-.505.263-.745.384-.23-.151-.44-.453-.646-.551.042.277.122.517.144.814a5.714 5.714 0 0 1-.744.409c.244.076.558.08.84.119.105.237.107.579.192.839.132-.243.248-.503.36-.767" fill="#fbd116" fill-rule="evenodd"/><path d="M21.427 12.79c-1.558.08-2.548.728-3.451 1.462-.844-.776-1.874-1.368-3.403-1.463h-4.505c.004-.019 0-.047.023-.047.104-.16.209-.318.336-.455 1.4-.096 3.067-.049 4.48-.025 1.359.082 2.26.617 3.093 1.222.829-.608 1.736-1.139 3.09-1.222 1.44-.024 3.107-.07 4.482.025.122.145.233.295.336.455.007-.003.019.004.026 0-.176.108-.718.047-1.008.047h-3.499zM25.021 11.64c.042-.007.084.093 0 .07-4.689-.03-9.494.065-14.092-.047.025 0 .03-.018.048-.023.062-.07.145-.19.24-.216.19-.052.533 0 .838 0H24.83c.05.087.142.129.192.216M24.16 10.8c.023 0 .027.02.047.025.002.03.03.033.023.072-3.994-.078-8.175.105-12.15 0-.068-.002-.272.068-.288-.072.024 0 .03-.02.048-.024.146-.11.29-.223.431-.335 3.764-.041 7.694-.041 11.456 0 .143.112.287.226.432.335M23.058 10.01c.063.047.056.034 0 .048-.332.078-.844 0-1.271 0h-8.34c-.156 0-.606.032-.503-.047.28-.175.572-.34.886-.48 2.724-.04 5.617-.04 8.339 0 .316.14.608.304.889.48M21.476 9.218h.047c-.001.04-.01.044-.047.049-.526.077-1.158 0-1.75 0-1.762 0-3.616.039-5.25-.05h.05c.86-.317 1.788-.574 2.924-.621.095-.056.294-.01.43-.024h.24c.136.015.335-.032.43.024 1.132.052 2.065.3 2.926.622" fill="#fff" fill-rule="evenodd"/><path d="M16.754 16.624a.317.317 0 0 1 .12-.191.32.32 0 0 1-.12.191m-.84 2.732c.047-1.144.356-2.025.84-2.732-.385.855-.726 1.797-.623 3.02a5.211 5.211 0 0 0 1.893 3.618c.887-.799 1.697-2.014 1.845-3.595.123-1.315-.277-2.358-.743-3.211.522.669.916 1.671.959 2.9.04.041.04.247 0 .288-.031.839-.218 1.524-.503 2.109.15.303.396.515.479.886.379-.601.625-1.34.695-2.252v-.743c-.067-1.131-.45-1.947-.91-2.684-.021-.003-.074-.079-.025-.072.049.087.142.129.193.216 1.035.881 2.253 1.581 4.097 1.653H24.543c.045-.072-.116-.163-.192-.264-.082-.107-.141-.252-.216-.335-2.006-.039-3.317-.775-4.361-1.772.789.543 1.87 1.155 3.139 1.269 1.213.108 2.265-.079 3.163-.455a4.995 4.995 0 0 0-1.078-1.75 2.413 2.413 0 0 1-.312-.311c-.827-.748-1.83-1.316-3.307-1.414h-.575c0-.024.029-.019.048-.024.099-.061.272-.048.43-.049a1.1 1.1 0 0 1 .504 0c1.607.063 2.613.727 3.523 1.487.126-.09.692-.067.576-.193a3.051 3.051 0 0 1-.36-.359c-.847-.742-1.876-1.302-3.38-1.39h-.503c-1.517.088-2.552.658-3.403 1.414-.081.086-.141.193-.263.24-.058-.094-.158-.146-.215-.24-.851-.756-1.887-1.325-3.403-1.414h-.503c-1.517.091-2.558.655-3.404 1.414a2.594 2.594 0 0 1-.336.335c.013.034-.093.06-.024.073.21.022.408.055.576.12.937-.741 1.925-1.43 3.547-1.487.11-.039.39-.039.503 0 .158.001.333-.012.43.049h.048c-.143.055-.39.008-.574.024-1.478.095-2.48.667-3.307 1.414a2.478 2.478 0 0 1-.312.311 4.957 4.957 0 0 0-1.078 1.75c.893.377 1.935.555 3.139.455 1.259-.107 2.344-.702 3.116-1.246.046-.057.112-.096.168-.144-.01.08-.073.103-.12.144-1.072.957-2.345 1.714-4.34 1.749-.154.179-.344.453-.454.599h.455c1.814-.08 3.045-.742 4.05-1.63.098-.102.175-.225.312-.286.018.104-.047-.02-.048.047a.438.438 0 0 1-.096.144c-.435.722-.798 1.517-.863 2.612v.743c.06.915.33 1.619.672 2.252.126-.328.316-.595.503-.863a5.36 5.36 0 0 1-.48-1.82c-.054-.034-.008-.168-.023-.241v-.071c-.04-.041-.04-.247 0-.288" fill="#fff" fill-rule="evenodd"/></g></svg>