<svg xmlns="http://www.w3.org/2000/svg" viewBox="0 0 45 45"><defs><clipPath id="a"><path d="M0 36h36V0H0v36z"/></clipPath><clipPath id="b"><path d="M4 31a4 4 0 0 1-4-4v-9h19v13H4z"/></clipPath><clipPath id="c"><path d="M0 36h36V0H0v36z"/></clipPath><clipPath id="d"><path d="M23.73 22.855c-.189-4.48-.279-8.261 3.922-9.902 4.201 1.641 4.11 5.422 3.92 9.902-.274.187-1.981.676-3.92.676-1.94 0-3.648-.489-3.922-.676"/></clipPath></defs><g clip-path="url(#a)" transform="matrix(1.25 0 0 -1.25 0 45)"><path d="M36 9a4 4 0 0 0-4-4H4a4 4 0 0 0-4 4v18a4 4 0 0 0 4 4h28a4 4 0 0 0 4-4V9z" fill="#00247d"/><path d="M19 31H4a4 4 0 0 1-4-4v-9h19v13z" fill="#00247d"/><path d="M19 18v2.029L11.9 25H6.671l9.997-7H19z" fill="#eee"/><path d="M19 19.418L11.029 25H9.286L19 18.198v1.22z" fill="#cf1b2b"/><path d="M8.1 25L0 19.234V18h3.332l9.998 7H8.1z" fill="#eee"/><path d="M10.714 25l-9.98-7H2.46l9.998 7h-1.744z" fill="#cf1b2b"/><path d="M16.669 31l-9.997-7H11.9L19 28.971V31h-2.331z" fill="#eee"/><path d="M17.54 31l-9.997-7h1.743L19 30.802V31h-1.46z" fill="#cf1b2b"/></g><g clip-path="url(#b)" transform="matrix(1.25 0 0 -1.25 0 45)"><path d="M10 24h3.328l-9.996 7H1l-.625-1.594L10 22.669V24z" fill="#eee"/><path d="M10 24h.714L1 30.802l-.5-.865 9.5-6.659V24z" fill="#cf1b2b"/></g><g clip-path="url(#c)" transform="matrix(1.25 0 0 -1.25 0 45)"><path d="M19 27h-7v4H7v-4H0v-5h7v-4h5v4h7v5z" fill="#eee"/><path d="M11 18H8v13h3V18z" fill="#cf1b2b"/><path d="M19 23H0v3h19v-3z" fill="#cf1b2b"/><path d="M27.47 12.487c-4.602 1.797-4.426 5.971-4.24 10.39l.01.25.208.14c.379.26 2.206.764 4.204.764 1.999 0 3.825-.505 4.204-.765l.206-.14.01-.25c.187-4.418.364-8.592-4.24-10.389l-.18-.07-.182.07z" fill="#eee"/><path d="M31.572 22.855c-.273.187-1.98.677-3.92.677s-3.648-.49-3.922-.677c-.189-4.48-.279-8.261 3.921-9.901 4.201 1.64 4.11 5.42 3.921 9.9" fill="#ff0"/><path d="M23.668 20c.047-3.191.713-5.77 3.983-7.047 3.271 1.277 3.938 3.856 3.984 7.047h-7.967z" fill="#8fc5ff"/></g><g clip-path="url(#d)" transform="matrix(1.25 0 0 -1.25 0 45)"><path d="M24 15.959h7.187s-.843-3.25-3.536-3.25c-2.692 0-3.651 3.25-3.651 3.25" fill="#366cc9"/><path d="M24.563 18.114c.168.45.54 1.084.687 1.104.147.021 1.747-3.113 1.622-3.259-.125-.147-1.913-.24-2.267-.178-.354.062-.042 2.333-.042 2.333" fill="#5d3100"/><path d="M23.542 18.542c.125.292.542.979.667.979s2.103-3.688 2.228-4.084c.125-.395-1.749-.579-2.103-.518-.355.06-.792 3.623-.792 3.623" fill="#cf6200"/><path d="M27.23 19.73h-.131v-3.792h.131v3.792zM28.562 19.834h-.131v-3.896h.131v3.896zM29.792 19.73h-.131v-3.792h.131v3.792z" fill="#ff0"/><path d="M25.313 16.902c.198-.055 1.039-.52 1.559-.677.625-.187 1.546-.163 1.796-.163s.727.73.936.73h1.25c.189 0 .125-1.25-.354-1.25h-3.375c-.312 0-1.375.978-1.582 1.083-.21.104-.407.326-.23.277"/><path d="M27.651 19.323a.198.198 0 0 0-.198-.198h-.693a.198.198 0 0 0 0 .396h.693a.198.198 0 0 0 .198-.198M28.976 19.521a.198.198 0 0 0-.198-.198h-.693a.198.198 0 0 0 0 .396h.693a.198.198 0 0 0 .198-.198M30.337 19.125a.198.198 0 0 0-.198-.198h-.693a.198.198 0 0 0 0 .396h.693a.198.198 0 0 0 .198-.198M30.337 18.031a.198.198 0 0 0-.198-.198h-.693a.198.198 0 0 0 0 .396h.693a.198.198 0 0 0 .198-.198M30.337 17.306a.198.198 0 0 0-.198-.198h-.693a.198.198 0 0 0 0 .396h.693a.198.198 0 0 0 .198-.198M28.976 18.792a.198.198 0 0 0-.198-.198h-.693a.198.198 0 0 0 0 .396h.693a.198.198 0 0 0 .198-.198M28.976 18.031a.198.198 0 0 0-.198-.198h-.693a.198.198 0 0 0 0 .396h.693a.198.198 0 0 0 .198-.198M28.976 17.306a.198.198 0 0 0-.198-.198h-.693a.198.198 0 0 0 0 .396h.693a.198.198 0 0 0 .198-.198M27.651 18.594a.198.198 0 0 0-.198-.198h-.693a.198.198 0 0 0 0 .396h.693a.198.198 0 0 0 .198-.198M27.651 17.833a.198.198 0 0 0-.198-.198h-.693a.198.198 0 0 0 0 .396h.693a.198.198 0 0 0 .198-.198M27.651 17.107a.198.198 0 0 0-.198-.198h-.693a.198.198 0 0 0 0 .396h.693a.198.198 0 0 0 .198-.198" fill="#eee"/><path d="M27.438 15.03c0-.098.079-.177.177-.177h3.02a.177.177 0 1 1 0 .354h-3.02a.177.177 0 0 1-.177-.177M27.292 14.3c0-.097.079-.176.177-.176h3.021a.177.177 0 1 1 0 .354h-3.021a.177.177 0 0 1-.177-.177M26.833 13.571c0-.098.079-.177.177-.177h3.021a.177.177 0 1 1 0 .354H27.01a.177.177 0 0 1-.177-.177" fill="#00d860"/><path d="M25.867 22.759c.023.165.446.032.612.178.166.145.617.498.985.042.205-.255.153-.43.382-.64.228-.208 1.446-.735 1.841-.61-.02-.25-.375-.375-.375-.375s.335-.25.377-.541c.042-.292-.502.453-1.272.249-.308-.082-.652-.404-1.277-.25-.625.155-.64 1.093-.658 1.488-.006.144-.63.35-.615.459" fill="#ac5f1a"/><path d="M26.18 22.844c.03.134.364-.004.51.104.144.106.537.363.804-.034.149-.22.095-.36.268-.546.17-.184 1.126-.697 1.457-.623-.033-.201-.331-.28-.331-.28s.255-.225.269-.466c.015-.24-.376.405-1.018.29-.256-.046-.558-.284-1.055-.115-.5.167-.45.933-.435 1.255.005.117-.49.328-.47.415" fill="#eee"/><path d="M27.375 20.34a.074.074 0 0 0-.074-.074.075.075 0 0 0-.075.074v.47c0 .04.034.074.075.074a.074.074 0 0 0 .074-.074v-.47zM27.929 20.34a.074.074 0 0 0-.074-.074.075.075 0 0 0-.075.074v.47c0 .04.034.074.075.074a.074.074 0 0 0 .074-.074v-.47zM27.27 22.734a.14.14 0 1 0-.282 0 .14.14 0 0 0 .282 0"/></g></svg>