<svg xmlns="http://www.w3.org/2000/svg" viewBox="0 0 45 45"><defs><clipPath id="a"><path d="M0 36h36V0H0v36z"/></clipPath><clipPath id="b"><path d="M4.878 26.122h2.309v-2.309h-2.31v2.31z"/></clipPath></defs><g clip-path="url(#a)" transform="matrix(1.25 0 0 -1.25 0 45)"><path d="M32 31H18V5h14a4 4 0 0 1 4 4v18a4 4 0 0 1-4 4" fill="#cf142b"/><path d="M4 31a4 4 0 0 1-4-4V9a4 4 0 0 1 4-4h14v26H4z" fill="#eee"/><path d="M10.346 23.656H1.655v2.688h8.691v-2.688z" fill="#cf142b"/><path d="M7.344 20.654H4.656v8.691h2.688v-8.691z" fill="#cf142b"/><path d="M5.63 23.729a.921.921 0 1 0-1.843-.001.921.921 0 0 0 1.842.001M8.276 23.76a.922.922 0 1 0-1.844 0 .922.922 0 0 0 1.844 0M5.63 26.176a.92.92 0 1 0-1.84 0 .92.92 0 0 0 1.84 0M8.276 26.176a.921.921 0 1 0-1.842 0 .921.921 0 0 0 1.842 0" fill="#cf142b"/><path d="M5.417 23.729a.708.708 0 1 0-1.416 0 .708.708 0 0 0 1.416 0M8.064 23.76a.708.708 0 1 0-1.416 0 .708.708 0 0 0 1.416 0M5.418 26.176a.708.708 0 1 0-1.416 0 .708.708 0 0 0 1.417 0M8.064 26.176a.708.708 0 1 0-1.416 0 .708.708 0 0 0 1.416 0" fill="#99aab5"/><path d="M7.85 24.968a1.817 1.817 0 1 0-3.635 0 1.817 1.817 0 0 0 3.634 0" fill="#ccd6dd"/><path d="M7 21H5v8h2v-8z" fill="#ccd6dd"/><path d="M10 24H2v2h8v-2z" fill="#ccd6dd"/><g clip-path="url(#b)" opacity=".5"><path d="M7.186 24.968a1.154 1.154 0 1 0-2.308 0 1.154 1.154 0 0 0 2.308 0" fill="#99aab5"/></g><g><path d="M6.647 24.977c.015.017.032.032.048.047l.01.008c.043-.02.083-.048.123-.073.08-.049.334.066.218.137-.098.061-.197.132-.32.111a.496.496 0 0 1-.238-.123c-.009.062-.016.124-.029.185.019.02.03.042.026.07-.011.057.02.12.04.174.01.026-.003.044-.024.055l.024.037a.786.786 0 0 1 .108-.03.266.266 0 0 1 .196.051c.046.037.03.073-.023.084-.094.018-.181.067-.268.105-.058.025-.143 0-.195-.029-.033-.019-.084-.067-.031-.093-.006-.006-.013-.219-.016-.226-.044-.096-.12.533-.17-.467h-.019c-.016 0-.14.345-.134.414.074.015.027.264.027.315v.03c0 .013.113.024.105.032.03.02.116.045.09.067-.042.035-.1.012-.146-.006-.014.007-.014.012-.028.014h-.023c.054.022.1.058.087.098-.008.026-.014.046 0 .071.067.115-.21.09-.257.008a.175.175 0 0 1-.016-.153c.012-.038.06-.05.113-.045a.16.16 0 0 1-.068-.066l-.003-.009a.343.343 0 0 1-.12-.025c-.16-.069-.33-.119-.481-.209-.024-.015-.093-.063-.03-.083a.237.237 0 0 1 .13.007c.003-.006.003-.013.007-.019a.457.457 0 0 1 .154-.126c.06-.03.142-.013.197.023.036.023.075.08.03.112a.285.285 0 0 0 .068.061.824.824 0 0 1 .027-.184.081.081 0 0 1 .023-.038.302.302 0 0 1-.09-.035c-.033-.02-.072-.065-.041-.096a.81.81 0 0 1-.205-.062c-.025-.01-.08-.043-.086-.077-.033-.004-.065-.007-.097-.013-.05-.008-.134-.032-.153-.09a.388.388 0 0 1-.072-.01c-.059-.009-.17-.035-.175-.087-.008-.092.04-.166.08-.245a.253.253 0 0 1-.075-.132c-.025-.119.256-.076.277.03.003.015.005.031.02.042.034.025.07.073.038.108.012.01.02.018.016.025-.035.068-.072.134-.077.21a.195.195 0 0 1 .048-.01.505.505 0 0 1 .17-.26c.019-.015.052-.017.088-.012a.124.124 0 0 1-.034-.042 1.04 1.04 0 0 1-.06-.264.078.078 0 0 1 .06-.08.792.792 0 0 0 .304-.155c.097-.074.339.062.213.158a1.019 1.019 0 0 1-.288.16.578.578 0 0 0 .035.15.095.095 0 0 1 .007.047.354.354 0 0 1 .065.031c.178.107.396.131.587.218-.01-.029.009-.055.049-.065.08-.019.23-.017.258-.112.027-.095-.005-.209.056-.293.056-.078.323.016.256.11-.024.031-.02.094-.021.132-.004.06-.006.12-.034.175-.057.107-.243.116-.347.141-.035.008-.076.054-.114.043 0 .007-.007.071-.024.071h-.006s0-.048.002-.047c.06.003.12-.023.159.024" fill="#99aab5"/></g></g></svg>