<svg xmlns="http://www.w3.org/2000/svg" viewBox="0 0 45 45"><defs><clipPath id="a"><path d="M0 36h36V0H0v36z"/></clipPath></defs><g clip-path="url(#a)" transform="matrix(1.25 0 0 -1.25 0 45)"><path d="M36 9a4 4 0 0 0-4-4H4a4 4 0 0 0-4 4v18a4 4 0 0 0 4 4h28a4 4 0 0 0 4-4V9z" fill="#00247d"/><path d="M3.354 24.854l.342-1.102 1.154.008-.943-.665L4.271 22l-.924.69-.928-.684.371 1.092-.938.671 1.153-.015.349 1.1zM8.1 18l.44-1.417 1.485.01-1.213-.857.469-1.407-1.19.887-1.193-.879.476 1.404-1.206.864 1.484-.019L8.1 18zM8.287 29.481l.342-1.102 1.154.008-.943-.665.364-1.095-.924.69-.928-.684.37 1.092-.937.672 1.153-.016.349 1.1zM13.063 25.08l.242-.78.817.006-.667-.47.257-.776-.654.488-.657-.484.263.773-.665.475.817-.01.247.778z" fill="#fff"/><path d="M32 7H5s-.266.172-.266.5S5 8 5 8h27l1.484-.5L32 7zM5 9s5 2 11 8 10 10 12 11c-1.753-1.753-3.77-14 1.23-18 0 0 2.77-.521 2.77-1H5z" fill="#fed100"/></g></svg>