<svg xmlns="http://www.w3.org/2000/svg" viewBox="0 0 45 45"><defs><clipPath id="a"><path d="M0 36h36V0H0v36z"/></clipPath></defs><g clip-path="url(#a)" transform="matrix(1.25 0 0 -1.25 0 45)"><path d="M36 9a4 4 0 0 0-4-4H4a4 4 0 0 0-4 4v18a4 4 0 0 0 4 4h28a4 4 0 0 0 4-4V9z" fill="#ce1b26"/><path d="M32 31H4a4 4 0 0 1-4-4v-9h36v9a4 4 0 0 1-4 4" fill="#002b7f"/><path d="M10 22H6v3h4v-3z" fill="#b28914"/><path d="M7.897 25.451l-.095-3.184h-3.23c-.398.772-.726 1.43-.726 2.318 0 .744.585 1.334 1.428 1.334.893 0 1.873-.3 2.623-.468" fill="#b28914"/><path d="M7.826 25.592l-.023-.328c-.626.095-1.514.445-2.342.445-.764 0-1.357-.306-1.357-1.077 0-.76.322-1.451.75-2.153l-.445-.211c-.398.772-.726 1.429-.726 2.317 0 .744.584 1.475 1.592 1.475.892 0 1.801-.3 2.551-.468" fill="#ffd83d"/><path d="M8.465 25.451l.095-3.184h3.23c.398.772.726 1.43.726 2.318 0 .744-.585 1.334-1.428 1.334-.893 0-1.873-.3-2.623-.468" fill="#b28914"/><path d="M8.537 25.592l.023-.328c.626.095 1.514.445 2.342.445.764 0 1.357-.306 1.357-1.077 0-.76-.322-1.451-.75-2.153l.445-.211c.398.772.726 1.429.726 2.317 0 .744-.585 1.475-1.592 1.475-.892 0-1.801-.3-2.551-.468M8.181 27.732l-.262-.49.262-.492.263.492-.263.49zm0 1.242l-.262-.492.262-.49.263.49-.263.492zM8.29 27.862l.414-.262.413.262-.414.263-.412-.263zm-1.044 0l.413-.262.413.262-.412.263-.415-.263z" fill="#ffd83d"/><path d="M8.181 28.055a.198.198 0 1 0 0-.397.199.199 0 1 0 0 .397M8.181 27.119a.533.533 0 1 0 0-1.066.533.533 0 0 0 0 1.066M8.18 23.8c-.657 0-1.14-.31-1.17-1.1-.16.283-.84 1.173-1.475 1.054-.376-.07-.71-.594-.653-1.194-.314.898-1.228 1.046-1.897.515.593-.488.858-1.927 1.356-2.552h7.68c.499.625.764 2.064 1.357 2.552-.668.531-1.583.383-1.895-.515.055.6-.28 1.123-.657 1.194-.634.12-1.313-.77-1.474-1.054-.03.79-.513 1.1-1.171 1.1" fill="#ffd83d"/><path d="M12.009 20.523c0-.284-1.715-.597-3.828-.597-2.112 0-3.827.313-3.827.597s1.715.433 3.827.433c2.113 0 3.828-.15 3.828-.433"/><path d="M12.009 20.523c0-.284-1.715-.597-3.828-.597-2.112 0-3.827.313-3.827.597s1.715.433 3.827.433c2.113 0 3.828-.15 3.828-.433z" fill="none" stroke="#000" stroke-width=".076" stroke-linecap="round" stroke-linejoin="round"/><path d="M7.715 25.617s.585-.085.931 0c0 0 .135-1.197.253-1.64 0 0-.412.116-.703.116-.29 0-.732-.117-.732-.117s.083.54.145.9c.063.358.106.741.106.741M3.312 23.982c-.189.804-.198 1.626.817 2.324 1.015.699 2.707.11 3.176-.007.469-.117.478-.627-.096-.484-.574.143-2.183.59-2.959-.102-.776-.693-.626-1.204-.507-1.614.344-1.18-.284-.744-.431-.117M13.05 23.936c.19.804.199 1.626-.816 2.324-1.015.699-2.707.11-3.176-.007-.47-.117-.478-.627.096-.484.574.143 2.183.59 2.959-.102.776-.693.62-1.202.507-1.614-.261-.945.284-.744.43-.117" fill="#ffd83d"/></g></svg>