<svg xmlns="http://www.w3.org/2000/svg" viewBox="0 0 45 45"><defs><clipPath id="a"><path d="M0 36h36V0H0v36z"/></clipPath></defs><g clip-path="url(#a)" transform="matrix(1.25 0 0 -1.25 0 45)"><path d="M36 9a4 4 0 0 0-4-4H4a4 4 0 0 0-4 4v18a4 4 0 0 0 4 4h28a4 4 0 0 0 4-4V9z" fill="#c4272f"/><path d="M24 5H12v26h12V5z" fill="#005197"/><path d="M2.857 7H1.286v12.571h1.571V7zM8.319 16.428H3.68v.786h4.639v-.786zM10.714 7H9.143v12.571h1.571V7zM8.319 9.357H3.68v.786h4.639v-.786zM3.768 19.571h4.464L6 18.011l-2.232 1.56zM3.68 8.373h4.64L6 6.751 3.68 8.373zM7.571 24.286a1.57 1.57 0 1 0-3.143 0 1.57 1.57 0 1 0 3.143 0M6.786 27.232c0-.76-.352-.982-.786-.982-.434 0-.785.223-.785.982 0 .76.54 1.768.785 1.768.246 0 .786-1.008.786-1.768" fill="#f9cf01"/><path d="M6 21.596c-1.303 0-2.438.593-3.084 1.477a3.137 3.137 0 0 1 6.168 0c-.646-.884-1.781-1.477-3.084-1.477M5.63 11.916c0 .23.182.413.412.413a.413.413 0 1 0-.413-.413m2.94 1.37a2.557 2.557 0 0 1-1.649 2.39c.3-.257.58-.447.58-1.063 0-.972-.579-1.496-1.5-1.496v-.008a1.2 1.2 0 0 1-1.159-1.193c0-.645.516-1.167 1.16-1.191v-.008l.027.003.014-.003c.014 0 .027.008.041.008a2.564 2.564 0 0 1 2.486 2.561" fill="#f9cf01"/><path d="M5.969 14.227a.418.418 0 0 0 0 .836.418.418 0 0 0 0-.836m.03 1.621v.006l-.02-.001-.01.001c-.011 0-.02-.005-.031-.005a2.564 2.564 0 0 1-2.507-2.563c0-1.095.686-2.023 1.649-2.39-.3.256-.557.447-.557.998 0 .982.524 1.524 1.43 1.524l.002.018c.005 0 .009-.003.014-.003A1.208 1.208 0 1 1 6 15.849" fill="#f9cf01"/></g></svg>