<svg xmlns="http://www.w3.org/2000/svg" viewBox="0 0 45 45"><defs><clipPath id="a"><path d="M0 36h36V0H0v36z"/></clipPath></defs><g clip-path="url(#a)" transform="matrix(1.25 0 0 -1.25 0 45)"><path d="M36 9a4 4 0 0 0-4-4H4a4 4 0 0 0-4 4v18a4 4 0 0 0 4 4h28a4 4 0 0 0 4-4V9z" fill="#e30917"/><path d="M16 12a6 6 0 1 0 0 12c1.311 0 2.52-.425 3.507-1.138A7.332 7.332 0 0 1 14 25.353a7.354 7.354 0 0 1 0-14.707c2.195 0 4.16.967 5.507 2.493A5.956 5.956 0 0 0 16 12M19.913 17.77l2.44-.562.22-2.493 1.288 2.146 2.44-.561-1.644 1.889 1.287 2.146-2.304-.98-1.643 1.889.22-2.494-2.304-.98z" fill="#eee"/></g></svg>