<svg xmlns="http://www.w3.org/2000/svg" viewBox="0 0 45 45"><defs><clipPath id="a"><path d="M4 31a4 4 0 0 1-4-4V9a4 4 0 0 1 4-4h28a4 4 0 0 1 4 4v18a4 4 0 0 1-4 4H4z"/></clipPath></defs><g clip-path="url(#a)" transform="matrix(1.25 0 0 -1.25 0 45)"><path d="M18 31H0V18h18v13zM18 5h18v13H18V5z" fill="#eee"/><path d="M9.674 25.427L9 27.5l-.673-2.073h-2.18l1.764-1.281-.674-2.073L9 23.354l1.764-1.281-.674 2.073 1.764 1.281h-2.18zM0 5h18v13H0V5z" fill="#005293"/><path d="M18 18h18v13H18V18zM25.91 11.146l-.674-2.073L27 10.353l1.763-1.28-.673 2.073 1.763 1.28h-2.18L27 14.5l-.674-2.073h-2.179l1.763-1.281z" fill="#d21034"/></g></svg>