<svg xmlns="http://www.w3.org/2000/svg" viewBox="0 0 45 45"><defs><clipPath id="a"><path d="M4 31a4 4 0 0 1-4-4V9a4 4 0 0 1 4-4h28a4 4 0 0 1 4 4v18a4 4 0 0 1-4 4H4z"/></clipPath></defs><g clip-path="url(#a)" transform="matrix(1.25 0 0 -1.25 0 45)"><path d="M0 31V11.373L26.456 31H0z" fill="#1eb53a"/><path d="M36 5v19.67L9.479 5H36z" fill="#00a3dd"/><path d="M29.468 31L0 9.362V5h6.467L36 26.682V31h-6.532z" fill="#141414"/><path d="M26.456 31L0 11.373V9.362L29.468 31h-3.012zM9.479 5L36 24.67v2.012L6.467 5h3.012z" fill="#fbd035"/></g></svg>