<svg xmlns="http://www.w3.org/2000/svg" viewBox="0 0 45 45"><defs><clipPath id="a"><path d="M0 36h36V0H0v36z"/></clipPath><clipPath id="b"><path d="M4 31a4 4 0 0 1-4-4V9a4 4 0 0 1 4-4h28a4 4 0 0 1 4 4v18a4 4 0 0 1-4 4H4z"/></clipPath><clipPath id="c"><path d="M0 36h36V0H0v36z"/></clipPath></defs><g clip-path="url(#a)" transform="matrix(1.25 0 0 -1.25 0 45)"><path d="M36 9a4 4 0 0 0-4-4H4a4 4 0 0 0-4 4v18a4 4 0 0 0 4 4h28a4 4 0 0 0 4-4V9z" fill="#eee"/></g><g clip-path="url(#b)" transform="matrix(1.25 0 0 -1.25 0 45)"><path d="M18 5H0v26h18V5z" fill="#ffe000"/></g><g clip-path="url(#c)" transform="matrix(1.25 0 0 -1.25 0 45)"><path d="M31.336 21.766l.328.61-.672-.305.344-.305z" fill="#a3a3a3"/><path d="M31.365 22.318a.247.247 0 1 1 .494-.002.247.247 0 0 1-.494.002M30.79 22.173c-.116-.115-.057-.362.131-.549.187-.188.433-.247.549-.13.116.115.057.361-.131.548-.187.188-.434.247-.549.131" fill="#a3a3a3"/><path d="M25.08 16.438c.38-.36.701.105 1.306.64.552.49 4.187 3.87 4.578 4.214.39.343.028.864-.425.442s-4.8-4.063-5.127-4.36c-.326-.296-.752-.539-.332-.937" fill="#ce9d0a"/><path d="M30.867 21.442l.437-.488-.218-.188.218-.187.22.187.312-.344v-.343l-.61-.516-.359.234v.282h-.297v-.266l.156-.016.141-.156.016-.36-.54-.437-1.109 1.05 1.633 1.548zM23.134 15.338a.488.488 0 1 0 .495.486l-.001-.007c.014 0 .026.009.04.009a.49.49 0 0 0 .978-.002.488.488 0 0 0-.482-.486.49.49 0 0 0-.007-.976.49.49 0 0 0-.488.488c-.015 0-.027.008-.042.008l.002-.007a.489.489 0 1 0-.495.487m-.954 0a1.49 1.49 0 1 1 2.979.002 1.49 1.49 0 0 1-2.98-.001" fill="#ce9d0a"/><path d="M24.642 16.753c-.116-.115-.057-.362.13-.55.188-.187.434-.246.55-.13.116.116.057.362-.131.549-.187.188-.434.247-.55.13M22.247 16.565a.255.255 0 1 1 .51 0 .255.255 0 0 1-.51 0M24.47 14.104a.255.255 0 1 1 .51 0 .255.255 0 0 1-.51 0M22.18 14.187a.255.255 0 1 1 .51 0 .255.255 0 0 1-.51 0" fill="#a3a3a3"/><path d="M29.29 18.918a.864.864 0 0 1 .315.37c.3.652-.072 1.7-.299 2.106-.277.496-.107.82.027.976a.397.397 0 0 1-.13.024c-.11 0-.216-.053-.314-.158-.29-.311-.154-.726.253-1.67.306-.705.425-1.216.147-1.648" fill="#b5b5b5"/><path d="M28.73 21.957a.74.74 0 0 0 .633.324c.22 0 .445-.082.635-.226l.28.422c-.123.103-.422.317-.76.317a.753.753 0 0 1-.258-.045c-.383-.136-.511-.489-.53-.792" fill="#b5b5b5"/><path d="M22.703 21.766l-.328.61.672-.305-.344-.305z" fill="#ce9d0a"/><path d="M22.674 22.318a.247.247 0 1 0-.494-.002.247.247 0 0 0 .494.002M23.249 22.173c.116-.115.057-.362-.131-.549-.187-.188-.433-.247-.549-.13-.116.115-.057.361.131.548.187.188.434.247.549.131" fill="#ce9d0a"/><path d="M28.959 16.438c-.379-.36-.701.105-1.306.64-.552.49-4.187 3.87-4.578 4.214-.39.343-.028.864.425.442s4.801-4.063 5.127-4.36c.326-.296.752-.539.332-.937" fill="#a3a3a3"/><path d="M23.172 21.442l-.437-.488.218-.188-.218-.187-.22.187-.312-.344v-.343l.61-.516.359.234v.282h.297v-.266l-.156-.016-.141-.156-.016-.36.54-.437 1.109 1.05-1.633 1.548zM31.387 14.85a.488.488 0 0 0-.977 0l.002.009c-.014-.001-.027-.01-.042-.01a.488.488 0 1 0-.495.489.488.488 0 1 0 .495.489c.015 0 .028-.008.04-.01v.008a.489.489 0 0 0 .977 0 .488.488 0 0 0-.481-.487.488.488 0 0 0 .48-.487m-1.016 1.977a1.489 1.489 0 1 1 0-2.978 1.489 1.489 0 0 1 0 2.978" fill="#a3a3a3"/><path d="M29.398 16.753c.116-.115.057-.362-.131-.55-.187-.187-.433-.246-.55-.13-.115.116-.056.362.132.549.187.188.434.247.549.13M31.792 16.565a.255.255 0 1 0-.51 0 .255.255 0 0 0 .51 0M29.568 14.104a.255.255 0 1 0-.51 0 .255.255 0 0 0 .51 0M31.86 14.187a.255.255 0 1 0-.51 0 .255.255 0 0 0 .51 0" fill="#ce9d0a"/><path d="M28.438 22.281c0-1.467-.64-1.427-1.428-1.427-.789 0-1.427-.04-1.427 1.427s.639 3.052 1.427 3.052 1.427-1.585 1.427-3.052"/><path d="M26.946 20.954c-.424 0-.72.013-.923.17-.232.181-.34.55-.34 1.157 0 1.49.656 2.952 1.326 2.952s1.33-1.462 1.33-2.952c0-1.327-.535-1.327-1.209-1.327h-.184z" fill="#fff"/><path d="M27.756 21.959c-.5.146-.42.625-.746.625-.327 0-.246-.48-.746-.625-.5-.145-.746.083-.746.083l.233-.959s.419.355 1.259.355c.84 0 1.259-.354 1.259-.354l.233.958s-.247-.229-.746-.084" fill="#ce9d0a"/><path d="M27.838 23.226c-.555.153-.465.658-.828.658-.363 0-.274-.505-.828-.658-.554-.153-.827.087-.827.087l.257-1.008s.466.372 1.398.372c.932 0 1.397-.372 1.397-.372l.258 1.008s-.273-.24-.827-.087" fill="#ce9d0a"/><path d="M27.707 24.555c-.467.129-.392.554-.697.554-.306 0-.231-.425-.698-.554-.465-.13-.696.073-.696.073l.218-.848s.392.236 1.176.236c.784 0 1.176-.236 1.176-.236l.217.848s-.23-.202-.696-.073M26.832 25.502c0-.148.08-.269.178-.269.097 0 .177.121.177.269 0 .149-.08.269-.177.269-.098 0-.178-.12-.178-.269" fill="#ce9d0a"/><path d="M26.56 25.794c0-.102.202-.186.45-.186s.449.084.449.186c0 .103-.201.186-.45.186-.247 0-.448-.083-.448-.186" fill="#ce9d0a"/><path d="M26.832 26.065c0-.103.08-.186.178-.186.097 0 .177.083.177.186s-.08.186-.177.186a.182.182 0 0 1-.178-.186" fill="#ce9d0a"/><path d="M24.73 18.918a.864.864 0 0 0-.316.37c-.299.652.072 1.7.298 2.106.278.496.108.82-.026.976a.397.397 0 0 0 .131.024c.11 0 .215-.053.312-.158.292-.311.155-.726-.253-1.67-.305-.705-.424-1.216-.146-1.648" fill="#b5b5b5"/><path d="M25.29 21.957a.74.74 0 0 1-.634.324c-.219 0-.445-.082-.635-.226l-.28.422c.124.103.423.317.761.317a.753.753 0 0 0 .258-.045c.382-.136.511-.489.53-.792" fill="#b5b5b5"/><path d="M27.01 19c.2-.154.246-.75.246-1.453v-5.484s.307-.079.213-.891c-.027-.233-.484-.188-.563 0-.078.187-.04.791.104.875V17.5c0 .813-.136 1.127-.178 1.281-.042.154.08.294.178.219" fill="#fa0204"/><path d="M28.895 15.201c-.196.137-.471.482-.707.812-.313.438-.391.737-.701 1.112-.311.375-1.122 1.152-1.315 1.125-.077-.01-.157-.188-.084-.25.074-.063.302-.313.818-.703.515-.39.593-.828 1.024-1.453.398-.578.74-.97 1.05-1.025-.046.12-.073.25-.086.382" fill="#fa0204"/><path d="M27.88 18.45a19.384 19.384 0 0 1-1.057-1.09c-.307-.36-.698-1.22-1.042-1.61a4.24 4.24 0 0 0-.641-.596 1.48 1.48 0 0 0-.097-.389c.248.083.603.311 1.046.954.614.89.91 1.546 1.208 1.796.297.25.416.325.583.498.167.174.184.612 0 .436" fill="#fa0204"/><path d="M26.644 17.719v-5.781c-.331-.266-.237-.707-.175-.924.063-.217.603-.216.687-.107.084.108.107.843-.203 1.093v5.36c0 .14-.31.574-.31.359" fill="#fa0204"/><path d="M24.614 15.018c-.297-.207-.552-.564.112-.83s1.543-.625 2.283-.625c.741 0 2.123.502 2.448.727.324.226.464.496-.052.648-.27.08-.312-.125-.17-.172.14-.047.304-.193-.052-.323-.355-.13-1.168-.511-2.23-.511-1.063 0-2.063.453-2.227.51-.164.058-.209.246-.092.324.116.078.113.345-.02.252" fill="#fa0204"/><path d="M27.376 12.241a.211.211 0 1 0-.423 0 .211.211 0 0 0 .423 0" fill="#ce9d0a"/><path d="M27.02 12.1a.211.211 0 1 0-.423.001.211.211 0 0 0 .422 0" fill="#ce9d0a"/></g></svg>