<svg xmlns="http://www.w3.org/2000/svg" viewBox="0 0 45 45"><defs><clipPath id="a"><path d="M0 36h36V0H0v36z"/></clipPath><clipPath id="b"><path d="M4 31a4 4 0 0 1-4-4V9a4 4 0 0 1 4-4h28a4 4 0 0 1 4 4v18a4 4 0 0 1-4 4H4z"/></clipPath><clipPath id="c"><path d="M0 36h36V0H0v36z"/></clipPath></defs><g clip-path="url(#a)" transform="matrix(1.25 0 0 -1.25 0 45)"><path d="M36 9a4 4 0 0 0-4-4H4a4 4 0 0 0-4 4v18a4 4 0 0 0 4 4h28a4 4 0 0 0 4-4V9z" fill="#eee"/></g><g clip-path="url(#b)" transform="matrix(1.25 0 0 -1.25 0 45)"><path d="M36 4H0v14.041h36V4z" fill="#5eb6e4"/></g><g clip-path="url(#c)" transform="matrix(1.25 0 0 -1.25 0 45)"><path d="M18 21.781c-2.433 0-2.656.984 0 .984s2.433-.984 0-.984" fill="#f4900c"/><path d="M19.875 22.063c-.609 0-1.094-.375-1.531-.61-.125.156-.344.14-.344.14s-.219.016-.344-.14c-.437.234-.922.61-1.531.61-.609 0-2.047-.594-2.047-3.61 0-3.969 3.922-5.235 3.922-5.235s3.922 1.266 3.922 5.235c0 3.015-1.438 3.61-2.047 3.61M16.688 24.813c.255.045.567.156.823.312-.005-.046-.016-.088-.016-.136 0-.232.055-.442.145-.595a.955.955 0 0 1-.14-.253c-.093.235-.39.328-.39.328s-.148-.096-.235-.406c-.203.188-.453.219-.453.219s-.125-.188-.11-.422c-1.016.672-.156.859.375.953m2.625 0c.531-.094 1.391-.281.375-.953.016.234-.109.422-.109.422s-.25-.031-.453-.22c-.087.31-.235.407-.235.407s-.297-.093-.39-.328a.89.89 0 0 1-.144.257c.088.153.143.36.143.59 0 .05-.01.093-.016.14a2.52 2.52 0 0 1 .83-.315m-4.125-1.422c.39-.078.903-.797.903-1.117.362.398 1.908.43 1.908.43s1.548-.032 1.91-.43c0 .32.513 1.039.904 1.117-.078.156-.297.11-.297.11s.484.828.297 1.218-.922.375-1.516.438c-.593.062-.703.328-.703.328l.157.187s-.297.063-.235.266c.063.203-.187.187-.187.187s.187.188.109.36-.25.219-.25.219-.11.25 0 .328c.109.078.359-.22.359.078 0 .297-.281.047-.36.156-.078.11.141.39-.188.39-.327 0-.108-.28-.186-.39-.078-.11-.36.14-.36-.156 0-.297.25 0 .36-.078.109-.078 0-.328 0-.328s-.172-.047-.25-.22c-.078-.171.109-.36.109-.36s-.25.017-.187-.186c.062-.203-.235-.266-.235-.266l.157-.187s-.11-.266-.703-.328c-.594-.063-1.328-.047-1.516-.438-.187-.39.297-1.218.297-1.218s-.22.046-.297-.11" fill="#ffac33"/><path d="M20.887 18.063c0 2.328-.672 2.594-.672 2.594s-.324-.391-.787-.235c-.463.157-1.12.672-1.12.672s-.114-.146-.325-.154c-.211.008-.326.154-.326.154s-.657-.515-1.12-.672c-.462-.156-.787.235-.787.235s-.672-.266-.672-2.594c0-2.202 2.609-4.276 2.89-4.494v-.023l.015.012.014-.012v.023c.283.217 2.89 2.291 2.89 4.493" fill="#a0cfeb"/><path d="M17.313 15.844c.156.453.25.75.25 1.016V18s-.25.125-.25.266v.422l.25.094V18.5l.25.094v.25H18v-.266l.219-.046v.234l.28-.078v-.391s-.217-.234-.217-.297v-1.14c0-.11.328-1.016.328-1.016h-1.297zM17.96 19.063s-.07.297-.241.547c-.172.25-.115.718.263.719.706 0 .237-.633.237-.633s-.156.32-.22.226c-.061-.093.165-.453.064-.656l-.102-.203zM16.383 18.781s-.07.297-.242.547c-.172.25-.115.718.263.72.706 0 .237-.634.237-.634s-.156.32-.22.226c-.061-.093.165-.453.064-.656l-.102-.203zM19.514 18.781s-.07.297-.242.547c-.172.25-.115.718.263.72.706 0 .237-.634.237-.634s-.156.32-.22.226c-.061-.093.165-.453.064-.656l-.102-.203zM15.852 15.916c.084.268.132.473.132.662v1.141s-.25.125-.25.265v.422l.25.094v-.281l.25.093v.25h.188v-.265l.218-.047v.234l.282-.078v-.39s-.219-.235-.219-.297v-1.141c0-.109.328-1.016.328-1.016s-1.213.247-1.179.354M18.865 15.563c.156.452.25.75.25 1.015v1.14s-.25.125-.25.266v.422l.25.095v-.282l.25.094v.25h.187v-.266l.22-.046v.234l.28-.078v-.391s-.218-.234-.218-.297v-1.14c0-.07.131-.457.227-.734.056-.16-1.196-.282-1.196-.282" fill="#ccd6dd"/><path d="M16.383 18.563h-.148v-.25l-.25-.094v.281l-.25-.094v-.422c0-.14.25-.266.25-.266v-1.14c0-.19-.048-.395-.133-.662-.016-.05.249-.133.53-.206v2.852zM17.95 18.844h-.147v-.25l-.25-.094v.282l-.25-.094v-.422c0-.141.25-.266.25-.266v-1.14c0-.19-.048-.395-.133-.662-.016-.051.249-.133.53-.206v2.852zM19.552 18.516l-.196.047v-.25l-.25-.094v.28l-.251-.092v-.422c0-.141.25-.266.25-.266v-1.14c0-.19-.048-.395-.132-.663-.016-.05.248-.132.579-.252v2.852z" fill="#99aab5"/><path d="M18.984 16.008s-.328.422-.984.422c-.657 0-.938-.438-.938-.438s-.579.229-1.25-.092c.793-1.25 1.972-2.19 2.156-2.331v-.022l.014.01a.203.203 0 0 0 .015-.01v.022c.185.142 1.371 1.089 2.165 2.344-.717.304-1.178.095-1.178.095" fill="#8bb273"/><path d="M18.855 11.5c-.442.723-.839 1.547-1.917 2.047-1.079.5-1.25.641-1.563 1.156-.312.516-.922.859-.922.859s.016.485-.187.797c-.203.313-.188.703-.188.703s-.25-.132-.187.356c.062.488-.25.816-.25.816s.39.516.062 1.18c.375.649.203 1.383.203 1.383s.328.609 0 1.266c-1.047-.438-1.109-1.829-1.109-1.829l-.594.86s-.5-.328-.375-.938c.125-.609.094-.742.094-.742l-.563.477s-.406-.672.157-1.204c.562-.531.656-.687.656-.687s-.281.156-.281-.094.062-.359.062-.359l-.736.609s-.217-.828.299-1.297c.515-.468.828-.64.828-.64s-.985.281-.969.211c.016-.071.203-.586.703-.868.5-.281.875-.39.875-.39l-1.015-.184s.25-.722.843-.722c.594 0 1.157.187 1.157.187s-.422-.344-.547-.609c-.125-.266-.485-.297-.485-.297s.328-.344.938-.235c.609.11.687.938 1.437.672.75-.265 2.094-.75 2.532-1.422.437-.671.593-.828.687-1.062.094-.234.484-.211.355 0" fill="#658d5c"/><path d="M17.027 11.5c.441.723.84 1.547 1.917 2.047 1.078.5 1.25.641 1.563 1.156.312.516.921.859.921.859s-.015.485.188.797c.203.313.187.703.187.703s.25-.132.188.356c-.063.488.25.816.25.816s-.39.516-.063 1.18c-.375.649-.203 1.383-.203 1.383s-.328.609 0 1.266c1.047-.438 1.11-1.829 1.11-1.829l.593.86s.5-.328.375-.938c-.125-.609-.093-.742-.093-.742l.562.477s.406-.672-.156-1.204c-.563-.531-.656-.687-.656-.687s.281.156.281-.094-.063-.359-.063-.359l.736.609s.218-.828-.298-1.297c-.516-.468-.828-.64-.828-.64s.984.281.97.211a1.6 1.6 0 0 0-.705-.868c-.5-.281-.875-.39-.875-.39l1.016-.184s-.25-.722-.844-.722c-.593 0-1.156.187-1.156.187s.422-.344.547-.609c.125-.266.484-.297.484-.297s-.328-.344-.937-.235c-.61.11-.688.938-1.438.672-.75-.265-2.093-.75-2.53-1.422-.438-.671-.595-.828-.688-1.062-.094-.234-.484-.211-.355 0" fill="#658d5c"/><path d="M15.625 12.898c-.734-.085-.922-.57-1.953-.116-.047-.235.328-.594.328-.594s-.563-.016-.828.078c.14-.578.797-.797 1.344-.75.547.047.89.453 1.523.313.633-.141 1.088-.335.962.796-.423.454-1.376.273-1.376.273M20.375 12.898c.734-.085.922-.57 1.953-.116.047-.235-.328-.594-.328-.594s.563-.016.828.078c-.14-.578-.797-.797-1.344-.75-.547.047-.89.453-1.523.313-.633-.141-1.088-.335-.962.796.423.454 1.376.273 1.376.273" fill="#e1e8ed"/><path d="M20.422 13.625c-.422.187-1.344-.281-2.422-.281s-2 .468-2.422.281c-.422-.187-.343-.25-.312-.406.03-.156.078-.578.109-.813.03-.234.28-.39.578-.187.297.203.672.297 1.188.14.515-.156.834-.146.834-.146s.369-.01.885.146c.515.157.89.063 1.187-.14.297-.203.547-.047.578.187.03.235.078.657.109.813.032.156.11.219-.312.406" fill="#f5f8fa"/><path d="M19.838 13.219c0-.096-.191-.48-1.952-.48-1.76 0-1.892.384-1.892.48 0 .096.287-.212 2.048-.212 1.76 0 1.796.308 1.796.212" fill="#99aab5"/></g></svg>