<svg xmlns="http://www.w3.org/2000/svg" viewBox="0 0 45 45"><defs><clipPath id="a"><path d="M0 36h36V0H0v36z"/></clipPath><clipPath id="b"><path d="M4 31a4 4 0 0 1-4-4v-9h19v13H4z"/></clipPath><clipPath id="c"><path d="M0 36h36V0H0v36z"/></clipPath></defs><g clip-path="url(#a)" transform="matrix(1.25 0 0 -1.25 0 45)"><path d="M36 9a4 4 0 0 0-4-4H4a4 4 0 0 0-4 4v18a4 4 0 0 0 4 4h28a4 4 0 0 0 4-4V9z" fill="#00247d"/><path d="M19 31H4a4 4 0 0 1-4-4v-9h19v13z" fill="#00247d"/><path d="M19 18v2.029L11.9 25H6.671l9.997-7H19z" fill="#eee"/><path d="M19 19.418L11.029 25H9.286L19 18.198v1.22z" fill="#cf1b2b"/><path d="M8.1 25L0 19.234V18h3.332l9.998 7H8.1z" fill="#eee"/><path d="M10.714 25l-9.98-7H2.46l9.998 7h-1.744z" fill="#cf1b2b"/><path d="M16.669 31l-9.997-7H11.9L19 28.971V31h-2.331z" fill="#eee"/><path d="M17.54 31l-9.997-7h1.743L19 30.802V31h-1.46z" fill="#cf1b2b"/></g><g clip-path="url(#b)" transform="matrix(1.25 0 0 -1.25 0 45)"><path d="M10 24h3.328l-9.996 7H1l-.625-1.594L10 22.669V24z" fill="#eee"/><path d="M10 24h.714L1 30.802l-.5-.865 9.5-6.659V24z" fill="#cf1b2b"/></g><g clip-path="url(#c)" transform="matrix(1.25 0 0 -1.25 0 45)"><path d="M19 27h-7v4H7v-4H0v-5h7v-4h5v4h7v5z" fill="#eee"/><path d="M11 18H8v13h3V18z" fill="#cf1b2b"/><path d="M19 23H0v3h19v-3z" fill="#cf1b2b"/><path d="M32.66 22.057l-.473-.39.2-.587.265-.783-.655.504-.497.383-.498-.383-.655-.504.266.783.2.586-.473.391-.535.443h1.263l.195.58.237.706.237-.707.194-.579h1.263l-.535-.443zm-4 4l-.473-.39.2-.587.265-.783-.655.504-.497.383-.498-.383-.655-.504.266.783.2.586-.473.391-.535.443h1.263l.195.58.237.706.237-.707.194-.579h1.263l-.535-.443zm0-16.25l-.473-.39.2-.587.265-.783-.655.504-.497.383-.498-.383-.655-.504.266.783.2.586-.473.391-.535.443h1.263l.195.58.237.706.237-.707.194-.579h1.263l-.535-.443zm-4 10.25l-.473-.39.2-.587.265-.783-.655.504-.497.383-.498-.383-.655-.504.266.783.2.586-.473.391-.535.443h1.263l.195.58.237.706.237-.707.194-.579h1.263l-.535-.443z" fill="#263778"/><path d="M27.5 27l-.251-.75H26.5l.605-.501L26.85 25l.65.5.65-.5-.255.749.605.501h-.749L27.5 27z" fill="#cf1b2b"/><path d="M27.895 25.75l.255-.75-.65.5-.65-.5.255.75-.605.5h.748l.252.75.251-.75h.75l-.606-.5zm.036.75l-.194.58-.237.706-.237-.707-.195-.579h-1.262l.534-.443.473-.39-.2-.587-.266-.783.656.505.497.382.497-.382.655-.505-.266.783-.199.586.472.391.535.443h-1.263z" fill="#eeeded"/><path d="M27.5 10.75l-.251-.75H26.5l.605-.501-.255-.749.65.5.65-.5-.255.749.605.501h-.749l-.251.75z" fill="#cf1b2b"/><path d="M27.895 9.5l.255-.75-.65.5-.65-.5.255.75-.605.5h.748l.252.75.251-.75h.75l-.606-.5zm.036.75l-.194.58-.237.706-.237-.707-.195-.579h-1.262l.534-.443.473-.39-.2-.587-.266-.783.656.505.497.382.497-.382.655-.505-.266.783-.199.586.472.391.535.443h-1.263z" fill="#eeeded"/><path d="M31.5 23l-.251-.75H30.5l.605-.501L30.85 21l.65.5.65-.5-.255.749.605.501h-.749L31.5 23z" fill="#cf1b2b"/><path d="M31.895 21.75l.255-.75-.65.5-.65-.5.255.75-.605.5h.748l.252.75.251-.75h.75l-.606-.5zm.036.75l-.194.58-.237.706-.237-.707-.195-.579h-1.262l.534-.443.473-.39-.2-.587-.266-.783.656.505.497.382.497-.382.655-.505-.266.783-.199.586.472.391.535.443h-1.263z" fill="#eeeded"/><path d="M23.5 21l-.251-.75H22.5l.605-.501L22.85 19l.65.5.65-.5-.255.749.605.501h-.749L23.5 21z" fill="#cf1b2b"/><path d="M23.895 19.75l.255-.75-.65.5-.65-.5.255.75-.605.5h.748l.252.75.251-.75h.75l-.606-.5zm.036.75l-.194.58-.237.706-.237-.707-.195-.579h-1.262l.534-.443.473-.39-.2-.587-.266-.783.656.505.497.382.497-.382.655-.505-.266.783-.199.586.472.391.535.443h-1.263z" fill="#eeeded"/></g></svg>