<svg xmlns="http://www.w3.org/2000/svg" viewBox="0 0 45 45"><defs><clipPath id="a"><path d="M0 36h36V0H0v36z"/></clipPath><clipPath id="b"><path d="M4 31a4 4 0 0 1-4-4v-9h19v13H4z"/></clipPath><clipPath id="c"><path d="M0 36h36V0H0v36z"/></clipPath></defs><g clip-path="url(#a)" transform="matrix(1.25 0 0 -1.25 0 45)"><path d="M36 9a4 4 0 0 0-4-4H4a4 4 0 0 0-4 4v18a4 4 0 0 0 4 4h28a4 4 0 0 0 4-4V9z" fill="#00247d"/><path d="M28.156 24H23v-3.726c0-5.18 2.886-7.072 5.156-8.305 2.27 1.233 4.802 3.125 4.802 8.305V24h-4.802z" fill="#fff"/><path d="M28.156 12.57c-2.202 1.23-4.739 3.008-4.739 7.704v3.06h9.196v-3.06c0-4.696-2.255-6.474-4.457-7.704" fill="#fec400"/><path d="M29.953 15.016c-.062.547-.516 2.266-1.047 2.78-.53.517-.75.119-.75.119s-.219.398-.75-.118c-.53-.515-.984-2.234-1.047-2.781-.062-.547.063-.672.344-.672.125-.265.61-.312.61-.312s.546-.36.843 0c.297-.36.844 0 .844 0s.484.047.61.312c.281 0 .405.125.343.672" fill="#00a728"/><path d="M28.953 18.424c0-.476.126-.861-.78-.861-.908 0-.782.385-.782.86 0 .477.35.863.781.863.431 0 .781-.386.781-.862" fill="#f0082d"/><path d="M26.484 19.047c-.25-.422-.64-.125-.812.375-.172.5-.86.64-1.11.78-.25.142-.312.376 0 .548.313.172.125.39.344.453-.28.063-.533-.093-.556 0-.022.094.197.355.556.396-.297.37-.125 1.15 0 1.167.125.015.381-.22.511-.453.13-.235.505-.188.473-.516.078-.078.344-.031.594-.437.25-.407 0-2.313 0-2.313" fill="#ff9f3e"/><path d="M26.596 19.11c-.355-.028-.486.28-.55.733-.061.453-.702.284-.405.963.297.678.408.267.438.793.03.526.203.963.359.963.156 0 .359-.484.437-.687.078-.203.379-.157.51-.86.13-.703-.025-1.219-.197-1.375-.172-.156-.25-.179-.281-.355-.032-.176-.08-.158-.311-.176" fill="#ff927f"/><path d="M26.596 22.094c.107-.078.11-.187 0-.375-.111-.187.072-.375.082-.687.01-.313-.152-.422-.118-.58.034-.155.284-.452.253-.811-.031-.36-.106-.47-.217-.531-.111-.063-.064.187-.041.42.023.236-.133.5-.211.736-.078.234.106.406.154.64.049.235-.076.449-.091.693-.016.245.189.495.189.495" fill="#fe9de0"/><path d="M30.219 21.5c.047.344.03.875-.078 1.062-.11.188-.281.297-.172.329.109.031.625-.516.344-1.625-.281-1.11-.094.234-.094.234" fill="#ba5b1f"/><path d="M30.164 21.596c-.21.123-.484.436-.457.607.027.172.23.485.262.422.031-.062-.094-.256 0-.51.093-.255.14-.27.266-.44.127-.17-.07-.08-.07-.08M30.049 21.36c-.126.151-1.518 1.046-1.377 1.108.14.063 1.338-.687 1.528-1.109.19-.422-.151 0-.151 0" fill="#ba5b1f"/><path d="M29.969 21.094c-.51.505-1.766.594-1.703.672.062.078 1.674-.07 1.899-.535.226-.465-.196-.137-.196-.137" fill="#ba5b1f"/><path d="M29.934 20.827c-.574.298-1.578.36-1.67.345-.092-.016.969.298 1.728-.171.758-.47-.058-.174-.058-.174M29.969 20.406c-.594.266-1.47.187-1.625.094-.156-.094.453.353.875.31.422-.045.83-.133.946-.214.116-.08.01-.283-.196-.19" fill="#ba5b1f"/><path d="M30.314 21.6c-.072.383-.073.707-.588.668-.515-.039-.607-1.003-.479-2.346.128-1.344-.029-1.784-.052-1.86-.024-.078.287.266.265.86-.023.593-.154 1.9-.112 2.38.043.48.277.84.586.745.31-.095.24-.336.232-.629-.01-.293.149.181.149.181" fill="#ba5b1f"/><path d="M30.656 19.1s.156.088.36 1.15c.202 1.063-.235 1.516-.626 1.516-.39 0-.828-.453-.625-1.516.204-1.062.36-1.15.36-1.15s-.479-.455-.41-.676c.066-.22.675-.225.675-.225s.61.005.677.225c.068.22-.41.676-.41.676" fill="#ba5b1f"/><path d="M30.567 21.5c-.047.344-.03.875.078 1.062.11.188.281.297.172.329-.109.031-.625-.516-.344-1.625.281-1.11.094.234.094.234" fill="#ba5b1f"/><path d="M30.622 21.596c.211.123.484.436.457.607-.027.172-.23.485-.262.422-.03-.062.094-.256 0-.51-.093-.255-.139-.27-.266-.44-.127-.17.071-.08.071-.08M30.737 21.36c.126.151 1.518 1.046 1.377 1.108-.14.063-1.338-.687-1.528-1.109-.19-.422.151 0 .151 0" fill="#ba5b1f"/><path d="M30.817 21.094c.51.505 1.766.594 1.703.672-.062.078-1.674-.07-1.899-.535-.226-.465.196-.137.196-.137" fill="#ba5b1f"/><path d="M30.852 20.827c.574.298 1.578.36 1.67.345.093-.016-.968.298-1.727-.171-.759-.47.057-.174.057-.174M30.817 20.406c.594.266 1.47.187 1.625.094.156-.094-.453.353-.875.31-.422-.045-.83-.133-.946-.214-.116-.08-.01-.283.196-.19" fill="#ba5b1f"/><path d="M30.472 21.6c.072.383.073.707.588.668.515-.039.607-1.003.479-2.346-.128-1.344.029-1.784.052-1.86.024-.078-.287.266-.264.86.022.593.153 1.9.11 2.38-.041.48-.275.84-.584.745-.31-.095-.24-.336-.232-.629.009-.293-.15.181-.15.181" fill="#ba5b1f"/><path d="M19 31H4a4 4 0 0 1-4-4v-9h19v13z" fill="#00247d"/><path d="M19 18v2.029L11.9 25H6.671l9.997-7H19z" fill="#eee"/><path d="M19 19.418L11.029 25H9.286L19 18.198v1.22z" fill="#cf1b2b"/><path d="M8.1 25L0 19.234V18h3.332l9.998 7H8.1z" fill="#eee"/><path d="M10.714 25l-9.98-7H2.46l9.998 7h-1.744z" fill="#cf1b2b"/><path d="M16.669 31l-9.997-7H11.9L19 28.97V31h-2.331z" fill="#eee"/><path d="M17.54 31l-9.998-7h1.744L19 30.802V31h-1.46z" fill="#cf1b2b"/></g><g clip-path="url(#b)" transform="matrix(1.25 0 0 -1.25 0 45)"><path d="M10 24h3.329l-9.997 7H1l-.625-1.594L10 22.669V24z" fill="#eee"/><path d="M10 24h.714L1 30.802l-.5-.865 9.5-6.659V24z" fill="#cf1b2b"/></g><g clip-path="url(#c)" transform="matrix(1.25 0 0 -1.25 0 45)"><path d="M19 27h-7v4H7v-4H0v-5h7v-4h5v4h7v5z" fill="#eee"/><path d="M11 18H8v13h3V18z" fill="#cf1b2b"/><path d="M19 23H0v3h19v-3z" fill="#cf1b2b"/></g></svg>