<svg xmlns="http://www.w3.org/2000/svg" viewBox="0 0 45 45"><defs><clipPath id="a"><path d="M0 36h36V0H0v36z"/></clipPath></defs><g clip-path="url(#a)" transform="matrix(1.25 0 0 -1.25 0 45)"><path d="M0 9a4 4 0 0 1 4-4h28a4 4 0 0 1 4 4v4H0V9z" fill="#cf142b"/><path d="M10.414 15.81l.27.74.216-.756.787-.027-.653-.441.217-.756-.62.484-.653-.44.27.74-.62.484.786-.027zm.756 2.7l.73-.295.506.603-.055-.785.73-.295-.764-.19-.055-.785-.417.667-.764-.19.506.603-.417.667zm2.363 1.983l.585-.526.682.393-.32-.72.585-.525-.783.082-.32-.72-.164.77-.783.083.682.393-.164.77zm2.79.276l.11.78.37-.695.774.136-.547-.566.37-.695-.708.345-.546-.566.11.779-.708.345.775.137zm2.874.085l.37.695.11-.78.774-.137-.707-.345.11-.78-.547.567-.708-.345.37.695-.547.566.775-.136zm2.002-.494l.682-.393.585.526-.164-.77.682-.393-.783-.082-.164-.77-.32.719-.783-.082.585.526-.32.719zm2.9-2.145l.73.295-.417-.667.506-.603-.764.19-.417-.667-.055.785-.763.19.73.295-.056.785.506-.603zm1.217-1.664l.27-.74.786.027-.62-.484.27-.74-.654.44-.62-.484.217.756-.653.44.787.028.217.757zM0 13h36v10H0V13z" fill="#00247d"/><path d="M32 31H4a4 4 0 0 1-4-4v-4h36v4a4 4 0 0 1-4 4" fill="#fc0"/><path d="M18.6 19.729l.707.345.547-.566-.11.779.708.345-.775.137-.11.779-.37-.694-.774.136.547-.566-.37-.695zM21.718 19.197l.32-.72.164.77.783.083-.682.394.164.77-.585-.527-.682.393.32-.72-.585-.525.783.082z" fill="#fff"/><path d="M24.83 18.51" fill="none" stroke="#fff" stroke-width=".8" stroke-linecap="round" stroke-linejoin="round"/><path d="M22.919 17.738l.764-.19.055-.786.417.668.763-.19-.506.602.418.668-.73-.295-.506.603.055-.785-.73-.295zM24.965 15.326l-.217-.757.62.485.653-.44-.269.74.62.484-.787-.027-.269.74-.217-.757-.787-.028.653-.44zM16.146 19.508l.547.566.707-.345-.369.695.546.566-.775-.136-.369.695-.11-.78-.775-.137.708-.345-.11-.78zM13.799 19.247l.164-.77.32.72.783-.082-.585.527.32.719-.682-.394-.585.527.164-.77-.682-.394.783-.082z" fill="#fff"/><path d="M11.17 18.51" fill="none" stroke="#fff" stroke-width=".8" stroke-linecap="round" stroke-linejoin="round"/><path d="M11.845 17.43l.417-.667.055.785.764.19-.73.295.055.785-.506-.603-.73.295.417-.667-.506-.603.764.19zM9.979 14.614l.653.44.62-.484-.217.756.652.44-.786.028-.217.756-.27-.739-.786.027.62-.484-.27-.74z" fill="#fff"/></g></svg>