<svg xmlns="http://www.w3.org/2000/svg" viewBox="0 0 45 45"><defs><clipPath id="a"><path d="M4 31a4 4 0 0 1-4-4V9a4 4 0 0 1 4-4h28a4 4 0 0 1 4 4v18a4 4 0 0 1-4 4H4z"/></clipPath></defs><g clip-path="url(#a)" transform="matrix(1.25 0 0 -1.25 0 45)"><path d="M0 31l9-6.5h27V31H0z" fill="#ffc61e"/><path d="M18 18h18v6.5H9l9-6.5z" fill="#eee"/><path d="M9 11.5h27V18H18l-9-6.5z" fill="#ce1126"/><path d="M0 5h36v6.5H9L0 5z" fill="#3a75c4"/><path d="M18 18l-9 6.5L0 31V5l9 6.5 9 6.5z" fill="#3d8e33"/><path d="M3.926 18a5.52 5.52 0 0 0 4.295 5.38c-.396.09-.805.142-1.227.142a5.522 5.522 0 1 1 0-11.044c.422 0 .831.052 1.227.142A5.52 5.52 0 0 0 3.926 18" fill="#fff"/><path d="M7.248 14.364h.743l.23.707.23-.707h.742l-.6-.437.228-.706-.6.436-.602-.436.23.706-.6.437zm.743 2.635l.23.706.23-.706h.742l-.6-.437.228-.707-.6.437-.602-.437.23.707-.6.437h.742zm0 2.634l.23.707.23-.707h.742l-.6-.436.228-.707-.6.437-.602-.437.23.707-.6.436h.742zm0 2.635l.23.707.23-.707h.742l-.6-.436.228-.707-.6.437-.602-.437.23.707-.6.436h.742z" fill="#3d8e33"/><path d="M7.62 21.125l.6.437.602-.437-.23.707.6.436H8.45l-.23.707-.23-.707H7.25l.6-.436-.23-.707zM7.62 18.49l.6.437.602-.437-.23.707.6.436H8.45l-.23.707-.23-.707H7.25l.6-.436-.23-.707zM7.62 15.855l.6.437.602-.437-.23.707.6.436H8.45l-.23.707-.23-.707H7.25l.6-.436-.23-.707zM8.22 13.657l.602-.437-.23.707.6.437H8.45l-.23.706-.23-.706H7.25l.6-.437-.23-.707.602.437z" fill="#fff"/></g></svg>