<svg xmlns="http://www.w3.org/2000/svg" viewBox="0 0 45 45"><defs><clipPath id="a"><path d="M0 36h36V0H0v36z"/></clipPath></defs><g clip-path="url(#a)" transform="matrix(1.25 0 0 -1.25 0 45)"><path d="M36 4a4 4 0 0 0-4-4H4a4 4 0 0 0-4 4v28a4 4 0 0 0 4 4h28a4 4 0 0 0 4-4V4z" fill="#3b88c3"/><path d="M12.793 26.844c0 1.55.992 2.418 2.325 2.418 1.332 0 2.324-.868 2.324-2.418V11.28h5.52c1.581 0 2.263-1.18 2.233-2.233C25.133 8.024 24.326 7 22.962 7H15.21c-1.519 0-2.418.992-2.418 2.543v17.3z" fill="#fff"/></g></svg>