<svg xmlns="http://www.w3.org/2000/svg" viewBox="0 0 45 45"><defs><clipPath id="a"><path d="M4 31a4 4 0 0 1-4-4V9a4 4 0 0 1 4-4h28a4 4 0 0 1 4 4v18a4 4 0 0 1-4 4H4z"/></clipPath></defs><g clip-path="url(#a)" transform="matrix(1.25 0 0 -1.25 0 45)"><path d="M36 31H0V5h36v26z" fill="#c1272d"/><path d="M18.35 19.452L18 20.53l-.35-1.08h.7zm1.02-.74l.215-.665.915.665h-1.13zm-3.87 0l.915-.665.216.665h-1.13zm1.544-1.122l.956-.694.955.694-.365 1.122h-1.18l-.366-1.122zm-.24-.74l-.35-1.077.916.665-.566.412zm1.826-.412l.916-.665-.35 1.077-.567-.412zm-3.583-2.602l1.127 3.47-2.952 2.146h3.65L18 22.926l1.128-3.474h3.65l-2.953-2.145 1.128-3.471L18 15.98l-2.954-2.145z" fill="#006233"/></g></svg>