<svg xmlns="http://www.w3.org/2000/svg" viewBox="0 0 45 45"><defs><clipPath id="a"><path d="M0 36h36V0H0v36z"/></clipPath></defs><g clip-path="url(#a)" transform="matrix(1.25 0 0 -1.25 0 45)"><path d="M36 9a4 4 0 0 0-4-4H4a4 4 0 0 0-4 4v18a4 4 0 0 0 4 4h28a4 4 0 0 0 4-4V9z" fill="#060"/><path d="M36 13H0v10h36V13z" fill="#bb1600"/><path d="M32 31H4a4 4 0 0 1-4-4v-4h36v4a4 4 0 0 1-4 4" fill="#141414"/><path d="M36 22H0v1h36v-1zM36 13H0v1h36v-1z" fill="#eee"/><path d="M13.78 10.617l7.28 12.234c.542-.15.935.532 1.29 1.592.418 1.242.759 2.085.688 2.127-.072.043-.65-.66-1.543-1.618-.771-.83-1.184-1.509-.764-1.91L13.453 10.81c-.054-.089.273-.287.327-.193" fill="#fff"/><path d="M13.78 10.617l7.28 12.234c.542-.15.935.532 1.29 1.592.418 1.242.759 2.085.688 2.127-.072.043-.65-.66-1.543-1.618-.771-.83-1.184-1.509-.764-1.91L13.453 10.81c-.054-.089.273-.287.327-.193z" fill="none" stroke="#141414" stroke-width=".06"/><path d="M22.219 10.617l-7.28 12.234c-.541-.15-.934.532-1.29 1.592-.417 1.242-.758 2.085-.687 2.127.07.043.649-.66 1.54-1.618.774-.83 1.188-1.509.768-1.91l7.277-12.232c.055-.089-.272-.287-.328-.193" fill="#fff"/><path d="M22.219 10.617l-7.28 12.234c-.541-.15-.934.532-1.29 1.592-.417 1.242-.758 2.085-.687 2.127.07.043.649-.66 1.54-1.618.774-.83 1.188-1.509.768-1.91l7.277-12.232c.055-.089-.272-.287-.328-.193z" fill="none" stroke="#141414" stroke-width=".06"/><path d="M18 10.52c2.493 1.87 3.692 4.362 3.692 7.5s-1.2 5.63-3.692 7.499c-2.492-1.87-3.692-4.361-3.692-7.5 0-3.137 1.2-5.63 3.692-7.5" fill="#bb1600"/><path d="M18 10.52c2.493 1.87 3.692 4.362 3.692 7.5s-1.2 5.63-3.692 7.499c-2.492-1.87-3.692-4.361-3.692-7.5 0-3.137 1.2-5.63 3.692-7.5z" fill="none" stroke="#141414" stroke-width=".06"/><path d="M15.102 14.046c.533 1.184.793 2.499.793 3.965 0 1.465-.26 2.78-.793 3.966-.532-1.185-.794-2.501-.794-3.966 0-1.466.262-2.781.794-3.965" fill="#141414"/><path d="M15.102 14.046c.533 1.184.793 2.499.793 3.965 0 1.465-.26 2.78-.793 3.966-.532-1.185-.794-2.501-.794-3.966 0-1.466.262-2.781.794-3.965z" fill="none" stroke="#141414" stroke-width=".02"/><path d="M20.903 14.046c-.53 1.184-.794 2.499-.794 3.965 0 1.465.263 2.78.794 3.966.532-1.185.793-2.501.793-3.966 0-1.466-.26-2.781-.793-3.965" fill="#141414"/><path d="M20.903 14.046c-.53 1.184-.794 2.499-.794 3.965 0 1.465.263 2.78.794 3.966.532-1.185.793-2.501.793-3.966 0-1.466-.26-2.781-.793-3.965z" fill="none" stroke="#141414" stroke-width=".02"/><path d="M18 17.073c.306 0 .555.424.555.946 0 .523-.25.947-.555.947-.306 0-.554-.424-.554-.947 0-.522.248-.946.554-.946M17.769 19.57c-.502.74-.746 1.677-.746 2.821 0 1.145.244 2.084.746 2.823V19.57zM18.231 19.57c.501.74.744 1.677.744 2.821 0 1.145-.243 2.084-.744 2.823V19.57zM17.769 16.47c-.502-.738-.746-1.677-.746-2.821 0-1.146.244-2.082.746-2.822v5.643zM18.231 16.47c.501-.738.744-1.677.744-2.821 0-1.146-.243-2.082-.744-2.822v5.643z" fill="#fff"/></g></svg>