<svg xmlns="http://www.w3.org/2000/svg" viewBox="0 0 45 45"><defs><clipPath id="a"><path d="M4 31a4 4 0 0 1-4-4V9a4 4 0 0 1 4-4h28a4 4 0 0 1 4 4v18a4 4 0 0 1-4 4H4z"/></clipPath></defs><g clip-path="url(#a)" transform="matrix(1.25 0 0 -1.25 0 45)"><path d="M18 11.5a6.5 6.5 0 1 0 0 13 6.5 6.5 0 0 0 0-13M0 5h36v26H0V5z" fill="#e70013"/><path d="M18 24.5a6.5 6.5 0 1 1 0-13 6.5 6.5 0 0 1 0 13" fill="#fff"/><path d="M15.4 18a3.9 3.9 0 0 0 6.541 2.869 4.875 4.875 0 1 1 0-5.738A3.9 3.9 0 0 0 15.4 18" fill="#e70013"/><path d="M19.645 19.063l-1.249 1.719v-2.125L16.376 18l2.02-.656v-2.125l1.25 1.719 2.02-.657L20.417 18l1.25 1.72-2.022-.657z" fill="#e70013"/></g></svg>