<svg xmlns="http://www.w3.org/2000/svg" viewBox="0 0 45 45"><defs><clipPath id="a"><path d="M0 36h36V0H0v36z"/></clipPath></defs><g clip-path="url(#a)" transform="matrix(1.25 0 0 -1.25 0 45)"><path d="M36 4a4 4 0 0 0-4-4H4a4 4 0 0 0-4 4v28a4 4 0 0 0 4 4h28a4 4 0 0 0 4-4V4z" fill="#269"/><path d="M11.275 28.676c0 .648.432 1.026 1.134 1.026.675 0 1.187-.378 1.187-1.026v-4.29h8.827v4.29c0 .648.405 1.026 1.107 1.026.675 0 1.187-.378 1.187-1.026v-4.29h4.13c.73 0 1.027-.46 1.027-1.054 0-.594-.298-1.08-.999-1.08h-4.158v-2.888c0-3.267-.674-5.83-1.969-7.72-1.674-2.429-4.67-4.184-7.99-4.75-.136-.028-.244-.028-.352-.028-.593 0-.945.297-1.052.837-.027.108-.027.188-.027.297 0 .54.35.89.971 1 2.645.458 5.237 2.05 6.533 3.94 1.08 1.566 1.592 3.697 1.592 6.883v2.43h-8.827V15.61c0-.674-.512-1.025-1.187-1.025-.702 0-1.134.351-1.134 1.025v6.641H7.118c-.7 0-.998.486-.998 1.08 0 .594.297 1.025 1.025 1.025h4.13v4.32z" fill="#fff"/></g></svg>