<svg xmlns="http://www.w3.org/2000/svg" viewBox="0 0 45 45"><defs><clipPath id="a"><path d="M0 36h36V0H0v36z"/></clipPath></defs><g clip-path="url(#a)" transform="matrix(1.25 0 0 -1.25 0 45)"><path d="M36 4a4 4 0 0 0-4-4H4a4 4 0 0 0-4 4v28a4 4 0 0 0 4 4h28a4 4 0 0 0 4-4V4z" fill="#3b88c3"/><path d="M14.735 24.919c1.694 0 2.508-.924 2.508-2.685v-9.571c0-1.76-.814-2.663-2.508-2.663H2.26c-.528 0-.836.374-.836.947 0 .593.264.924.858.924h11.904c.858 0 1.078.242 1.078 1.034v9.13c0 .794-.22 1.013-1.078 1.013H2.633c-.572 0-.836.33-.836.903 0 .594.264.968.858.968h12.08zM31.565 24.919c1.694 0 2.51-.924 2.51-2.685v-9.571c0-1.76-.816-2.663-2.51-2.663H19.09c-.528 0-.836.374-.836.947 0 .593.264.924.858.924h11.904c.86 0 1.078.242 1.078 1.034v9.13c0 .794-.219 1.013-1.078 1.013H19.463c-.572 0-.836.33-.836.903 0 .594.264.968.86.968h12.078z" fill="#fff"/></g></svg>