<svg xmlns="http://www.w3.org/2000/svg" viewBox="0 0 45 45"><defs><clipPath id="a"><path d="M0 36h36V0H0v36z"/></clipPath></defs><g clip-path="url(#a)" transform="matrix(1.25 0 0 -1.25 0 45)"><path d="M36 4a4 4 0 0 0-4-4H4a4 4 0 0 0-4 4v28a4 4 0 0 0 4 4h28a4 4 0 0 0 4-4V4z" fill="#f4900c"/><path d="M25.775 11.744c.311 0 .571-.13.754-.312 1.065-1.326 1.897-2.574 2.573-3.9a.993.993 0 0 0 .105-.442c0-.364-.208-.676-.573-.858a1.168 1.168 0 0 0-.494-.13.971.971 0 0 0-.832.442c-.65 1.326-1.404 2.626-2.39 3.874a.867.867 0 0 0-.13.442c0 .26.13.52.44.728.182.104.364.156.547.156m-1.509 7.332H21.2v-4.523h3.067v4.523zm0 6.24H21.2v-4.42h3.067v4.42zm-4.186-13.65c.416 0 .703-.182.832-.546.494-1.3.91-2.678 1.17-3.926.026-.078.026-.182.026-.26 0-.417-.312-.728-.806-.833-.13-.025-.234-.05-.364-.05-.416 0-.754.233-.806.65-.18 1.221-.597 2.677-1.013 3.925a.892.892 0 0 0-.053.26c0 .364.26.65.676.728.131.026.234.052.338.052m-.623 7.41h-2.99v-4.523h2.99v4.523zm0 6.24h-2.99v-4.42h2.99v4.42zm-4.759-13.702c.416 0 .728-.234.806-.599.312-1.299.494-2.807.598-4.133v-.078c0-.468-.39-.78-.936-.832h-.13c-.494 0-.884.286-.91.728a28.213 28.213 0 0 1-.468 4.03v.13c0 .364.312.65.78.728.078.026.182.026.26.026m0 7.462h-2.964v-4.523h2.964v4.523zm0 6.24h-2.964v-4.42h2.964v4.42zm-3.562-14.482a.898.898 0 0 0-.078-.338c-.598-1.482-1.508-2.99-2.522-4.134-.26-.26-.546-.39-.858-.39-.26 0-.494.078-.728.26-.235.182-.364.416-.364.701 0 .21.078.443.286.651.91.91 1.715 2.158 2.314 3.614.13.338.416.52.78.52.13 0 .286-.026.442-.078.468-.13.728-.442.728-.806M9.914 22.456c0 .703.078 1.457.208 2.184-.676-.78-1.404-1.48-2.159-2.158-.233-.155-.467-.259-.7-.259-.26 0-.52.13-.729.363-.13.183-.208.391-.208.573 0 .312.156.624.494.832 1.872 1.43 3.432 3.432 4.55 5.693.182.287.442.416.78.416.156 0 .338-.025.52-.103.364-.13.572-.416.572-.729a.918.918 0 0 0-.156-.493 15.634 15.634 0 0 0-1.248-1.768c.962.051 1.872.078 2.808.078h13.572c.468 0 .702-.364.702-.91 0-.494-.234-.859-.702-.859H26.06v-4.42h3.095c.468 0 .727-.364.727-.91 0-.52-.259-.91-.727-.91H26.06v-4.523h2.444c.468 0 .703-.365.703-.885 0-.494-.235-.91-.703-.91H7.392c-.469 0-.702.39-.702.91 0 .494.233.885.702.885h2.522v4.523h-3.12c-.442 0-.703.39-.703.91s.261.91.703.91h3.12v1.56z" fill="#fff"/></g></svg>