<svg xmlns="http://www.w3.org/2000/svg" viewBox="0 0 45 45"><defs><clipPath id="a"><path d="M0 36h36V0H0v36z"/></clipPath></defs><g clip-path="url(#a)" transform="matrix(1.25 0 0 -1.25 0 45)"><path d="M36 4a4 4 0 0 0-4-4H4a4 4 0 0 0-4 4v28a4 4 0 0 0 4 4h28a4 4 0 0 0 4-4V4z" fill="#77b255"/><path d="M17.793 11.588V8.806c0-.52.234-.65.728-.65h7.177c.494 0 .754.13.754.65v2.782h-8.66zm8.659 4.213c0 .519-.26.649-.754.649H18.52c-.495 0-.729-.13-.729-.65v-2.548h8.66V15.8zm-8.581 7.384c0-.962.416-1.118 4.784-1.118 3.692 0 4.29.234 4.629.78.18.286.338.858.416 1.586.052.468.338.702.832.702h.155c.546-.052.885-.364.885-.806v-.104c-.105-1.17-.34-2.132-.885-2.808-.65-.832-1.534-1.17-6.058-1.17-5.798 0-6.708.285-6.708 2.47v6.422c0 .468.364.728.962.728.572 0 .988-.26.988-.728v-2.574c3.173.416 6.839 1.352 9.205 2.366.18.078.338.104.493.104.364 0 .65-.234.807-.624.078-.182.103-.338.103-.468 0-.364-.208-.624-.598-.78-2.86-1.118-6.552-1.95-10.01-2.314v-1.664zm8.398-5.018c1.404 0 2.107-.6 2.107-2.055v-7.67c0-1.43-.704-2.054-2.107-2.054h-8.294c-1.378 0-2.106.624-2.106 2.054v7.67c0 1.456.728 2.055 2.106 2.055h8.294zM14.1 24.875c.494 0 .754-.364.754-.884 0-.547-.26-.936-.754-.936h-2.314v-5.15c.753.262 1.482.52 2.08.782.156.05.26.078.39.078.312 0 .52-.182.65-.573a.99.99 0 0 0 .104-.441c0-.287-.156-.52-.52-.677a27.758 27.758 0 0 0-2.704-1.091v-7.49c0-1.871-.728-2.443-2.6-2.443-.91 0-1.534.052-2.106.208-.442.104-.676.442-.676.91 0 .078 0 .156.026.26.077.442.363.728.779.728.079 0 .183 0 .26-.026a6.698 6.698 0 0 1 1.379-.182c.832 0 1.014.156 1.014.91v6.474a80.867 80.867 0 0 0-2.678-.754c-.104-.025-.183-.025-.261-.025-.442 0-.754.26-.858.779-.025.13-.051.235-.051.364 0 .416.234.676.65.728.96.234 2.08.52 3.198.858v5.773h-2.99c-.468 0-.728.389-.728.91 0 .546.26.91.728.91h2.99v4.394c0 .52.338.78.936.78.624 0 .988-.26.988-.78v-4.394H14.1z" fill="#fff"/></g></svg>