<svg xmlns="http://www.w3.org/2000/svg" viewBox="0 0 45 45"><defs><clipPath id="a"><path d="M0 36h36V0H0v36z"/></clipPath></defs><g clip-path="url(#a)" transform="matrix(1.25 0 0 -1.25 0 45)"><path d="M36 4a4 4 0 0 0-4-4H4a4 4 0 0 0-4 4v28a4 4 0 0 0 4 4h28a4 4 0 0 0 4-4V4z" fill="#f4900c"/><path d="M25.222 13.74c.832 0 1.093.26 1.093.963v3.718h-7.541v-4.68h6.448zm1.093 6.501v3.25c0 .702-.261.962-1.093.962h-6.448v-4.212h7.54zm-16.641-1.82v-3.718c0-.703.234-.963 1.09-.963h5.982v4.681H9.674zm1.09 6.032c-.856 0-1.09-.26-1.09-.962v-3.25h7.072v4.212h-5.981zm5.982 4.758c0 .494.39.78 1.014.78s1.014-.286 1.014-.78v-2.938h7.125c1.69 0 2.39-.676 2.39-2.288v-9.75c0-1.612-.7-2.315-2.39-2.315h-7.125V6.642c0-.519-.39-.779-1.014-.779s-1.014.26-1.014.78v5.277H10.09c-1.691 0-2.392.703-2.392 2.314v9.751c0 1.612.7 2.288 2.392 2.288h6.656v2.938z" fill="#fff"/></g></svg>