<svg xmlns="http://www.w3.org/2000/svg" viewBox="0 0 45 45"><defs><clipPath id="a"><path d="M0 36h36V0H0v36z"/></clipPath></defs><g clip-path="url(#a)" transform="matrix(1.25 0 0 -1.25 0 45)"><path d="M36 4a4 4 0 0 0-4-4H4a4 4 0 0 0-4 4v28a4 4 0 0 0 4 4h28a4 4 0 0 0 4-4V4z" fill="#f4900c"/><path d="M22.759 17.75c.52 0 .754.13.754.65v1.95c0 .494-.234.624-.754.624h-9.595c-.546 0-.754-.13-.754-.624V18.4c0-.52.208-.65.754-.65h9.595zm2.028-9.569c.573 0 .806.131.806.65v2.627c0 .52-.233.65-.806.65H11.162c-.572 0-.805-.13-.805-.65V8.831c0-.519.233-.65.805-.65h13.625zm.598 5.643c1.456 0 2.184-.598 2.184-2.029V8.442c0-1.43-.728-2.028-2.184-2.028h-14.82c-1.456 0-2.185.597-2.185 2.028v3.353c0 1.431.729 2.03 2.185 2.03h4.654c.416.727.78 1.533 1.118 2.313h-3.615c-1.611 0-2.236.52-2.236 1.924v2.652c0 1.43.625 1.924 2.236 1.924H23.2c1.612 0 2.236-.494 2.236-1.924v-2.652c0-1.404-.624-1.924-2.236-1.924h-4.81c-.312-.807-.676-1.586-1.144-2.314h8.138zm1.508 12.506c1.534 0 2.236-.597 2.236-2.001v-3.563c0-.494-.364-.78-.988-.78-.572 0-.99.286-.99.78v3.146c0 .572-.258.702-.831.702H9.576c-.52 0-.78-.13-.78-.702v-3.145c0-.494-.39-.78-.988-.78s-.987.286-.987.78v3.562c0 1.404.675 2.002 2.235 2.002h2.626a28.072 28.072 0 0 1-1.403 2.132c-.105.156-.157.287-.157.416 0 .287.235.572.573.703.18.077.363.129.52.129.312 0 .57-.13.779-.416a26.109 26.109 0 0 0 1.768-2.964h3.64c-.337.78-.832 1.742-1.273 2.47a.712.712 0 0 0-.104.365c0 .31.208.597.598.7.156.053.312.079.442.079.337 0 .598-.13.806-.468.493-.78 1.066-2.028 1.533-3.146h2.834c.703 1.014 1.327 2.054 1.717 2.912.207.416.494.572.858.572.156 0 .312-.026.468-.079.442-.13.65-.39.65-.702a1.06 1.06 0 0 0-.13-.467c-.338-.676-.832-1.457-1.378-2.236h2.47z" fill="#fff"/></g></svg>