<svg xmlns="http://www.w3.org/2000/svg" viewBox="0 0 45 45"><defs><clipPath id="a"><path d="M0 36h36V0H0v36z"/></clipPath></defs><g clip-path="url(#a)" transform="matrix(1.25 0 0 -1.25 0 45)"><path d="M36 4a4 4 0 0 0-4-4H4a4 4 0 0 0-4 4v28a4 4 0 0 0 4 4h28a4 4 0 0 0 4-4V4z" fill="#f4900c"/><path d="M24.657 26.279c0 .52-.26.676-.806.676H13.217c-.52 0-.832-.156-.832-.676v-3.432h12.272v3.432zm-12.272-5.382c-.027-1.456-.027-2.938-.183-4.395h12.455v4.395H12.385zm-.416-6.344c-.469-3.276-1.457-5.877-3.329-8.035a1.149 1.149 0 0 0-.858-.39c-.26 0-.52.078-.754.26a.998.998 0 0 0-.416.806c0 .234.104.494.286.703 2.861 3.119 3.432 7.227 3.432 14.534v4.238c0 1.586.78 2.236 2.341 2.236h11.7c1.534 0 2.314-.65 2.314-2.236V8.779c0-1.69-.702-2.443-3.354-2.443-1.015 0-2.002.104-2.834.286-.494.104-.806.416-.806.936 0 .078 0 .182.026.286.13.546.468.78.832.78.078 0 .156 0 .234-.026a9.036 9.036 0 0 1 2.288-.285c1.352 0 1.586.207 1.586 1.039v5.2H11.97z" fill="#fff"/></g></svg>