<svg xmlns="http://www.w3.org/2000/svg" viewBox="0 0 45 45"><defs><clipPath id="a"><path d="M0 36h36V0H0v36z"/></clipPath></defs><g clip-path="url(#a)" transform="matrix(1.25 0 0 -1.25 0 45)"><path d="M36 4a4 4 0 0 0-4-4H4a4 4 0 0 0-4 4v28a4 4 0 0 0 4 4h28a4 4 0 0 0 4-4V4z" fill="#f4900c"/><path d="M13.248 13.514h11.467v2.574H13.248v-2.574zm11.467 6.214c0 .52-.26.702-.78.702h-9.907c-.519 0-.78-.182-.78-.702v-1.873h11.467v1.873zm-13.469-3.302c0 .572.027 1.559.208 2.288-1.222-1.326-2.548-2.522-3.874-3.458-.26-.183-.519-.286-.754-.286-.286 0-.546.13-.754.442-.13.182-.208.39-.208.598 0 .286.13.546.468.78 3.095 2.002 5.721 5.018 7.437 8.19H7.061c-.469 0-.729.442-.729.962 0 .546.26.936.729.936h7.643c.364.858.677 1.742.885 2.601.13.467.416.675.884.675.103 0 .208 0 .311-.026.547-.104.755-.416.755-.754 0-.103-.026-.208-.053-.312a23.842 23.842 0 0 0-.754-2.184h12.481c.494 0 .754-.39.754-.936 0-.52-.26-.962-.754-.962H15.849a34.273 34.273 0 0 0-1.769-2.964c.494.13 1.456.182 2.185.182h8.086c1.586 0 2.314-.65 2.314-2.184V8.651c0-1.82-.936-2.496-3.146-2.496-1.066 0-2.054.105-2.808.286-.442.105-.729.416-.729.884 0 .078 0 .183.027.286.103.443.416.729.805.729.079 0 .157 0 .26-.052.599-.156 1.457-.312 2.158-.312 1.223 0 1.483.208 1.483 1.091v2.679H13.248v-5.07c0-.468-.416-.78-.987-.78-.599 0-1.015.312-1.015.78v9.75z" fill="#fff"/></g></svg>