<svg xmlns="http://www.w3.org/2000/svg" viewBox="0 0 45 45"><defs><clipPath id="a"><path d="M0 36h36V0H0v36z"/></clipPath></defs><g clip-path="url(#a)" transform="matrix(1.25 0 0 -1.25 0 45)"><path d="M36 4a4 4 0 0 0-4-4H4a4 4 0 0 0-4 4v28a4 4 0 0 0 4 4h28a4 4 0 0 0 4-4V4z" fill="#dd2e44"/><path d="M23.486 12.063c.312 0 .6-.13.807-.312 1.066-1.143 2.834-2.521 4.263-3.223.391-.183.624-.495.624-.86a.919.919 0 0 0-.18-.546c-.209-.337-.522-.519-.885-.519-.156 0-.338.052-.52.13-1.69.858-3.64 2.444-4.915 3.9a.91.91 0 0 0-.208.574c0 .258.13.544.442.7.182.105.39.157.572.157m-4.784 13.703c-.442 0-.702.338-.702.858 0 .546.26.832.702.832h3.641v1.794c0 .468.364.702.91.702.545 0 .858-.234.858-.702v-1.794h4.653c.468 0 .73-.286.73-.806 0-.546-.262-.884-.73-.884H24.76c1.3-1.743 3.2-3.12 4.941-4.083a.883.883 0 0 0 .441-.78c0-.181-.05-.39-.155-.546a.865.865 0 0 0-.78-.468c-.182 0-.364.052-.546.156-1.899 1.17-3.614 2.73-4.837 4.81.156-.754.287-1.716.287-2.47V20.15c0-.442-.339-.702-.858-.702-.546 0-.91.26-.91.702v2.34c0 .754.13 1.612.26 2.34-.937-1.82-2.419-3.354-4.005-4.394a1.03 1.03 0 0 0-.572-.208c-.234 0-.468.104-.65.364a.919.919 0 0 0-.156.494c0 .286.156.546.39.702 1.638.936 3.042 2.366 4.082 3.978h-2.99zm-8.84-8.971c-.442 0-.65.417-.65.885 0 .442.208.884.65.884h16.12c.443 0 .65-.442.65-.884 0-.468-.207-.885-.65-.885H9.862zm3.588-5.564c0-.182-.078-.416-.286-.65-1.118-1.327-2.99-2.939-4.68-3.927a1.114 1.114 0 0 0-.572-.157 1.02 1.02 0 0 0-.884.495 1.003 1.003 0 0 0-.156.52c0 .313.182.599.494.78 1.508.859 3.276 2.263 4.264 3.407.208.26.468.39.78.39.182 0 .364-.051.572-.156.286-.156.468-.416.468-.702m-6.396 1.82c-.442 0-.676.39-.676.884s.234.884.676.884h21.762c.443 0 .677-.39.677-.884s-.234-.884-.677-.884h-9.75V8.346c0-1.716-.832-2.314-3.068-2.314-.962 0-1.794.104-2.444.259-.442.105-.728.443-.728.859 0 .103 0 .182.052.286.13.468.468.702.832.702.052 0 .13 0 .208-.026a7.394 7.394 0 0 1 1.872-.26c1.014 0 1.222.182 1.222.858v4.342H7.054zm.052 12.715c-.468 0-.728.338-.728.858 0 .546.26.832.728.832h4.42v1.82c0 .468.364.728.91.728s.858-.26.858-.728v-1.82h3.094c.468 0 .728-.286.728-.806 0-.546-.26-.884-.728-.884H13.84a10.677 10.677 0 0 1 2.886-2.756c.286-.182.416-.442.416-.702 0-.182-.078-.364-.182-.546a.875.875 0 0 0-.676-.312c-.182 0-.39.078-.598.208-.936.728-2.158 2.132-2.678 3.25.156-.78.286-1.768.286-2.47v-2.262c0-.442-.312-.702-.858-.702s-.91.26-.91.701v2.262c0 .676.104 1.716.286 2.418-.884-1.846-2.834-3.77-4.446-4.888a1.042 1.042 0 0 0-.598-.208.9.9 0 0 0-.702.364.866.866 0 0 0-.208.573c0 .286.13.572.39.728 1.742 1.066 3.432 2.574 4.602 4.342H7.106z" fill="#fff"/></g></svg>