<svg xmlns="http://www.w3.org/2000/svg" viewBox="0 0 45 45"><defs><clipPath id="a"><path d="M0 36h36V0H0v36z"/></clipPath></defs><g clip-path="url(#a)" transform="matrix(1.25 0 0 -1.25 0 45)"><path d="M36 4a4 4 0 0 0-4-4H4a4 4 0 0 0-4 4v28a4 4 0 0 0 4 4h28a4 4 0 0 0 4-4V4z" fill="#dd2e44"/><path d="M23.26 21.587c.467 0 .754-.442.754-.962 0-.546-.287-.962-.754-.962H12.729c-.494 0-.754.416-.754.962 0 .52.26.962.754.962h10.53zm.363-13.157c.546 0 .832.156.832.728v4.993c0 .572-.286.728-.832.728H12.365c-.546 0-.806-.156-.806-.728V9.158c0-.572.26-.728.806-.728h11.258zm.598 8.32c1.586 0 2.314-.676 2.314-2.234V8.795c0-1.586-.728-2.236-2.314-2.236H11.793c-1.587 0-2.314.65-2.314 2.236v5.72c0 1.559.727 2.235 2.314 2.235H24.22zm-6.292 12.923c.572 0 1.144-.208 1.482-.624 2.783-3.614 6.267-6.058 10.27-7.956a1 1 0 0 0 .625-.936c0-.156-.026-.338-.105-.52a1.11 1.11 0 0 0-1.481-.546c-4.212 2.132-8.061 5.174-10.453 8.32-.13.156-.234.234-.338.234-.104 0-.208-.078-.312-.208-2.34-3.198-6.344-6.474-10.348-8.346a1.166 1.166 0 0 0-.494-.13c-.39 0-.73.208-.937.624a1.06 1.06 0 0 0 .547 1.43c4.056 1.924 7.488 4.654 10.036 8.034.338.416.936.624 1.508.624" fill="#fff"/></g></svg>