<svg xmlns="http://www.w3.org/2000/svg" viewBox="0 0 45 45"><defs><clipPath id="a"><path d="M0 36h36V0H0v36z"/></clipPath></defs><g clip-path="url(#a)" transform="matrix(1.25 0 0 -1.25 0 45)"><path d="M36 4a4 4 0 0 0-4-4H4a4 4 0 0 0-4 4v28a4 4 0 0 0 4 4h28a4 4 0 0 0 4-4V4z" fill="#dd2e44"/><path d="M29.246 8.618c0-1.689-.858-2.47-2.887-2.47-.832 0-2.002.078-2.73.234-.363.078-.623.416-.623.858 0 .105 0 .183.025.286.104.52.416.78.807.78.052 0 .13 0 .181-.026.598-.13 1.508-.234 2.081-.234.988 0 1.17.182 1.17 1.041V28.9c0 .493.39.78.988.78.597 0 .988-.287.988-.78V8.618zm-4.889 4.03c0-.494-.416-.727-.988-.727-.546 0-.988.26-.988.727V27.6c0 .495.442.728.988.728.572 0 .988-.259.988-.728V12.65zm-7.67-4.602c.494 0 .728.131.728.625v2.912c0 .52-.234.65-.728.65h-6.032c-.494 0-.728-.13-.728-.65V8.671c0-.494.234-.625.728-.625h6.032zm.598 5.772c1.456 0 2.08-.546 2.08-1.975V8.41c0-1.43-.624-1.976-2.08-1.976h-7.202c-1.456 0-2.107.546-2.107 1.976v3.433c0 1.43.651 1.975 2.107 1.975h7.202zm1.638 14.015c1.378 0 2.028-.57 2.028-1.976v-1.69c0-.572-.363-.78-.91-.78-.546 0-.884.234-.884.702v1.456c0 .52-.26.651-.728.651H9.121c-.494 0-.729-.13-.729-.65v-1.743c0-.468-.416-.727-.935-.727-.52 0-.91.233-.91.805v1.976c0 1.405.65 1.976 2.028 1.976h4.238v1.405c0 .467.39.728.988.728.624 0 1.014-.26 1.014-.728v-1.405h4.108zm-10.4-8.918c-.416 0-.65.364-.65.78 0 .416.234.78.65.78h4.394v1.794H9.433c-.468 0-.65.338-.65.78 0 .416.234.754.65.754h3.484v1.222c0 .47.338.702.858.702.546 0 .858-.233.858-.702v-1.222h3.588c.416 0 .65-.338.65-.754 0-.442-.182-.78-.65-.78h-3.588v-1.794h4.264c.39 0 .65-.364.65-.78 0-.416-.26-.78-.65-.78h-4.264V17.07h5.616c.39 0 .624-.339.624-.806 0-.416-.234-.78-.624-.78H6.936c-.416 0-.624.364-.624.78 0 .467.208.806.624.806h5.981v1.846H8.523z" fill="#fff"/></g></svg>