<svg xmlns="http://www.w3.org/2000/svg" viewBox="0 0 45 45"><defs><clipPath id="a"><path d="M0 36h36V0H0v36z"/></clipPath></defs><g clip-path="url(#a)" transform="matrix(1.25 0 0 -1.25 0 45)"><path d="M18 2C9.164 2 2 9.163 2 17.999 2 26.836 9.164 34 18 34c8.837 0 16-7.164 16-16.001C34 9.163 26.837 2 18 2m0 34C8.059 36 0 27.94 0 17.999 0 8.059 8.059 0 18 0s18 8.059 18 17.999C36 27.94 27.941 36 18 36" fill="#dd2e44"/><path d="M17.375 22.704c0-.494.234-.624.702-.624h7.983c.468 0 .702.13.702.624v1.43h-9.386v-1.43zm9.386 2.964v1.378c0 .468-.234.598-.7.598h-7.984c-.468 0-.702-.13-.702-.598v-1.378h9.386zm-9.23-12.715c.26 0 .52-.104.677-.26.91-.884 1.794-1.872 2.445-2.756a.946.946 0 0 0 .156-.52c0-.286-.132-.57-.417-.806a1.084 1.084 0 0 0-.728-.286c-.26 0-.52.105-.65.312-.65.936-1.56 2.054-2.315 2.835a.789.789 0 0 0-.234.545c0 .26.13.495.364.703.208.155.468.233.702.233m8.918 16.251c1.482 0 2.132-.572 2.132-1.95V22.47c0-1.378-.65-1.95-2.132-1.95h-8.736c-1.508 0-2.158.572-2.158 1.95v4.784c0 1.378.65 1.95 2.158 1.95h8.736zm.39-13.989h2.834c.47 0 .703-.312.703-.832 0-.493-.234-.83-.703-.83H26.84V8.584c0-1.794-.935-2.392-2.886-2.392-.936 0-1.819.052-2.497.208-.363.078-.675.416-.675.884 0 .078 0 .156.027.234.104.52.467.78.805.78.052 0 .078 0 .131-.026.675-.182 1.482-.234 1.976-.234.988 0 1.221.182 1.221 1.014v4.5H13.71c-.468 0-.702.31-.702.804 0 .546.234.858.702.858h11.232v2.003H14.073c-.468 0-.702.364-.702.832 0 .494.234.832.702.832h15.42c.44 0 .674-.338.674-.832 0-.468-.234-.832-.675-.832H26.84v-2.003zm-13.13 13.86a.92.92 0 0 0-.156-.495c-1.222-1.976-3.146-4.004-5.096-5.46a.994.994 0 0 0-.65-.26c-.26 0-.495.13-.728.416a.916.916 0 0 0-.234.598c0 .286.156.546.416.754 1.846 1.274 3.51 3.094 4.602 4.94.208.261.494.39.78.39.208 0 .39-.05.572-.156.312-.18.494-.442.494-.727M9.705 14.461c0 1.066.078 2.184.286 3.407-.65-.806-1.352-1.509-2.08-2.055a.75.75 0 0 0-.52-.182c-.26 0-.546.131-.78.39a1.142 1.142 0 0 0-.182.624c0 .286.104.547.338.73 2.236 1.741 3.926 3.9 5.2 6.213.182.312.442.468.728.468a.937.937 0 0 0 .52-.156c.364-.182.52-.442.52-.754a1.06 1.06 0 0 0-.13-.468 24.177 24.177 0 0 0-1.924-2.886V6.583c0-.494-.39-.754-.988-.754-.572 0-.988.26-.988.754v7.878z" fill="#dd2e44"/></g></svg>