<svg xmlns="http://www.w3.org/2000/svg" viewBox="0 0 45 45"><defs><clipPath id="a"><path d="M0 36h36V0H0v36z"/></clipPath></defs><g clip-path="url(#a)" transform="matrix(1.25 0 0 -1.25 0 45)"><path d="M36 18c0-9.941-8.059-18-18-18S0 8.06 0 18c0 9.94 8.059 18 18 18s18-8.06 18-18" fill="#f4900c"/><path d="M17.259 13.479c.546 0 .806.156.806.729v6.37c0 .572-.26.728-.806.728h-5.304c-.52 0-.78-.156-.78-.728v-6.37c0-.574.26-.73.78-.73h5.304zm2.808.443c0-1.665-.728-2.315-2.366-2.315h-6.136c-1.664 0-2.392.65-2.392 2.315v6.941c0 1.665.728 2.315 2.392 2.315H17.7c1.638 0 2.366-.65 2.366-2.314v-6.942zM6.987 26.453c-.493 0-.778.39-.778.962 0 .546.285.936.779.936h22.049c.468 0 .754-.39.754-.936s-.286-.962-.754-.962h-2.6V8.54c0-1.899-.858-2.653-3.276-2.653-1.092 0-2.391.131-3.406.365-.494.104-.78.467-.78.936 0 .078 0 .182.026.285.105.522.416.807.859.807.078 0 .18 0 .259-.026.884-.234 2.028-.39 2.834-.39 1.092 0 1.405.234 1.405 1.248v17.342H6.988z" fill="#fff"/></g></svg>