<svg xmlns="http://www.w3.org/2000/svg" viewBox="0 0 45 45"><defs><clipPath id="a"><path d="M0 36h36V0H0v36z"/></clipPath><clipPath id="b"><path d="M4 36s-4 0-4-4V4c0-4 4-4 4-4h28c4 0 4 4 4 4v28s0 4-4 4H4z"/></clipPath><clipPath id="c"><path d="M14 23C12 19 0 10 0 10V4c0-4 4-4 4-4h28c4 0 4 4 4 4v6s-9 5-14 13c-.75 1.199-2-2-4-2-1.6 0-2.56 2.56-3.392 2.56-.208 0-.408-.16-.608-.56"/></clipPath><clipPath id="d"><path d="M0 36h36V0H0v36z"/></clipPath></defs><g clip-path="url(#a)" transform="matrix(1.25 0 0 -1.25 0 45)"><path d="M36 4s0-4-4-4H4S0 0 0 4v28c0 4 4 4 4 4h28c4 0 4-4 4-4V4z" fill="#c1694f"/></g><g clip-path="url(#b)" transform="matrix(1.25 0 0 -1.25 0 45)"><path d="M0 10s12 9 14 13c1 2 2-2 4-2s3.25 3.199 4 2c5-8 14-13 14-13V0H0v10z" fill="#662213"/></g><g clip-path="url(#c)" transform="matrix(1.25 0 0 -1.25 0 45)"><path d="M14 23L4 13s7.105 7.789 8 6c.558-1.116-2.11-3.881-4.437-4.938-2.282-1.035-2.67-2.838-1.344-3.281.829-.276 2.983.175 4.027 2.456 1.321 2.887 4.276 5.989 4.965 5.538 1.532-1-2.367-7.244-5.149-10.494C8.779 6.782 9.858 5.209 11 5c1.875-.344 3.5 1.469 3.807 4.14.442 3.847 1.62 7.502 3.349 7.423 2.904-.133.719-8.032 4.719-7.032 1.411.353 1.766 2.231.281 3.469-1.477 1.232-2.423 3.733-.802 5.354.353.353 2-.691 2.802-2.198 1.515-2.844 3.208.951 1.911 1.987C26.286 18.766 32 15 32 15l-11 9-7-1z" fill="#be1931"/></g><g clip-path="url(#d)" transform="matrix(1.25 0 0 -1.25 0 45)"><path d="M22 23c0-1.104-1.791-2-4-2s-4 .896-4 2c0 1.105 1.791 2 4 2s4-.895 4-2" fill="#ffcc4d"/><path d="M18 23c-1.562 0-1.5 2.031-5 4-2.756 1.55-5.5.531-7.438-2.063C3.408 22.053-.002 25.003 4 28c6.469 4.844 10.687-1.594 12.313-.875.811.359-.809 3.053-3.32 4.192-2.199.998-3.432 2.683-1.93 3.183 2.999 1 5.125-2.719 6.125-4.719.999-2 2.124-1.156 3.843 1.5 1 1.545 2.65 3.141 4.063 3.386 2.094.364 4.625-2.042 1.875-2.167C24.658 32.395 22 31 21 29s1.386-1.01 3.312.125C28.344 31.5 34 31 33 28s-3.286 3.022-11.312-1.531C19.228 25.073 19.562 23 18 23" fill="#ffac33"/></g></svg>