<svg xmlns="http://www.w3.org/2000/svg" viewBox="0 0 45 45"><defs><clipPath id="a"><path d="M0 36h36V0H0v36z"/></clipPath><clipPath id="b"><path d="M14.211 28.895L2 4l1-1 1-1 24.895 12.211a2 2 0 0 1-.262 3.686L27 18.441V20a2 2 0 0 1-1.515 1.94l-2.836.709-.709 2.836A2 2 0 0 1 20 27h-1.559l-.544 1.633a1.998 1.998 0 0 1-1.756 1.362 2.002 2.002 0 0 1-1.93-1.1"/></clipPath></defs><g clip-path="url(#a)" transform="matrix(1.25 0 0 -1.25 0 45)"><path d="M1 1C0 2 1 3 1 3l26 26s1.48 1.521 0 3c-1.479 1.479-3 0-3 0s-1-1-2 0 0 2 0 2 3.521 3.479 7 0c3.5-3.5 0-7 0-7L3 1S2 0 1 1" fill="#66757f"/><path d="M3 3L2 4l12.211 24.895a2.002 2.002 0 0 0 3.687-.263L18.441 27H20a2 2 0 0 0 1.94-1.515l.709-2.836 2.836-.709A2 2 0 0 0 27 20v-1.559l1.633-.543a2 2 0 1 0 .262-3.687L4 2 3 3z" fill="#9266cc"/></g><g clip-path="url(#b)" transform="matrix(1.25 0 0 -1.25 0 45)"><path d="M21 31L2 3V2l21 21-2 8zM29 20L3 2l2-1 29 13-5 6z" fill="#744eaa"/></g></svg>