<svg xmlns="http://www.w3.org/2000/svg" viewBox="0 0 45 45"><defs><clipPath id="a"><path d="M0 36h36V0H0v36z"/></clipPath><clipPath id="b"><path d="M18 36C8.059 36 0 27.941 0 18S8.059 0 18 0s18 8.059 18 18-8.059 18-18 18z"/></clipPath></defs><g clip-path="url(#a)" transform="matrix(1.25 0 0 -1.25 0 45)"><path d="M36 18c0-9.941-8.059-18-18-18S0 8.059 0 18s8.059 18 18 18 18-8.059 18-18" fill="#88c9f9"/></g><g clip-path="url(#b)" transform="matrix(1.25 0 0 -1.25 0 45)"><path d="M27.938 34.438c-2.305.942-3.375-1.938-5.25-1.376-1.875.564-4.375 1.813-6 .25-1.625-1.562-2-3 0-2.936 2 .061 3.375 2.436 4.375 1.436s.75-1.812-1.625-2.125C17.063 29.375 14.5 29 13.125 29c-1.374 0-1.687-.813-.75-1.688.938-.875-.562-.938-2.124-1.813-1.563-.874.375-1.25 1.687-2 1.311-.75 2.311.189 2.874 1.439.563 1.25 2.98 2.75 3.99 2.563 1.01-.189 1.01-.689.823-1.564-.187-.875.75-.625.813.375.063 1 1.188 1.75 2.063 1.813.874.062 1.623-1.188.624-1.813-1-.625-2-1.125-.75-1.438 1.25-.311 2.124-1.936.687-2.624-1.437-.687-3.938-1.125-5.063-.562-1.124.562-3.686 1.375-4.374.937-.687-.437-1.062-.89-1.874-1.194-.813-.306-4.125-1.806-4.188-3.743C7.5 15.75 7.438 13.563 8.75 13.5c1.312-.063 4.499.812 5.499 1.625 1 .812 2.375.625 2.813-.313.437-.937.125-1.5-.313-3-.437-1.5.287-2.25.987-3.562.7-1.313 1.263-2.063 1.263-3 0-.938 1-1.875 2.5-.313C23 6.5 24.374 9.563 25 10.688c.624 1.125 1.125 3.625 1.875 4.125s1.937 1.688 1.062 1.5c-.875-.187-2.625.063-3.063 1.313-.436 1.249-2.311 3.624-1.436 3.874s1.875-1.39 2.25-2.163c.375-.774.875-1.711 1.625-1.961s2.375 1.672 2.875 1.96c.5.289.125 1.477-.875 1.352s-2.312 0-2.312.625 1.248 1.437 2.248 1.25c1.001-.188 1.751-.5 2.376-1.25.624-.75 1.874-2.125 2.374-3s.875-1 1.125.562c.25 1.563.625 2.063.876 3.25.25 1.187-2.563 10.062-8.063 12.312" fill="#5c913b"/></g></svg>