<svg xmlns="http://www.w3.org/2000/svg" viewBox="0 0 45 45"><defs><clipPath id="a"><path d="M0 36h36V0H0v36z"/></clipPath></defs><g clip-path="url(#a)" transform="matrix(1.25 0 0 -1.25 0 45)"><path d="M33.398 12.322c-7.562-4.875-20.062.437-18.375 8.062 1.48 6.684 9.42 4.763 11.225 3.861 1.805-.902.713 3.89-3.475 5.326-5.673 1.948-12.618 1.536-14.812-8.249C6.461 14.635 9.398 5.26 20.68 5.135c11.282-.125 12.72 7.187 12.72 7.187" fill="#269"/><path d="M35.988 10.807c0 2.146-2.754 2.334-4 1.119-2.994-2.92-7.402-4.012-13.298-2.861-10.25 2-10.342 14.013-3.333 17.44 3.791 1.856 8.288-.34 10-1.653 1.487-1.144 4.333-2.661 4.184-.752-.319 4.062-8.28 12.76-18.946 7.26C-.072 25.86 0 13.449 0 11.199v-7.25C0 1.738 1.814 0 4.023 0h28C34.233 0 36 1.739 36 3.948c0 0-.004 6.853-.012 6.859" fill="#55acee"/></g></svg>