<svg xmlns="http://www.w3.org/2000/svg" viewBox="0 0 45 45"><defs><clipPath id="a"><path d="M4 36a4 4 0 0 1-4-4V4a4 4 0 0 1 4-4h28a4 4 0 0 1 4 4v28a4 4 0 0 1-4 4H4z"/></clipPath></defs><g clip-path="url(#a)" transform="matrix(1.25 0 0 -1.25 0 45)"><path d="M37-1H-1v38h38V-1z" fill="#88c9f9"/><path d="M10 0v29l4 4h2l4-4V0H10zM33 25c0 1-1.286 1-1.286 1h-6.428S24 26.001 24 25.001V0h9v25z" fill="#66757f"/><path d="M28 19c0 1-1 1-1 1h-8c-1 0-1-1-1-1V0h10v19zM6 22s0 1-1 1H0V0h6v22z" fill="#292f33"/><path d="M12 16s0 1-1 1H5s-1 .001-1-1V0h8v16z" fill="#292f33"/><path d="M10 5H8v2h2V5zM10 13H8v2h2v-2zM8 9H6v2h2V9zM18 25h-2v2h2v-2zM18 21h-2v2h2v-2zM16 17h-2v2h2v-2zM26 16h-2v2h2v-2zM24 12h-2v2h2v-2zM22 6h-2v2h2V6zM31 22h-2v2h2v-2zM31 18h-2v2h2v-2z" fill="#ffcc4d"/><path d="M34 16a4.99 4.99 0 0 1-4.652-3.198C28.562 14.113 27.141 15 25.5 15c-.763 0-1.47-.207-2.099-.542a3.49 3.49 0 0 1-6.189-.8A4.474 4.474 0 0 1 15.5 14c-1.757 0-3.263-1.018-4.004-2.486-.604.3-1.275.486-1.996.486a4.47 4.47 0 0 1-3.054-1.213c-.767.961-1.934 1.588-3.258 1.588a4.188 4.188 0 1 1 0-8.375c.995 0 1.897.361 2.616.942A4.487 4.487 0 0 1 9.5 3c.561 0 1.092.115 1.587.303A3.473 3.473 0 0 1 12.5 3c1.4 0 2.599.828 3.159 2.016a4.478 4.478 0 0 1 2.924 1.22A2.989 2.989 0 0 1 21 5a2.99 2.99 0 0 1 2.561 1.456A4.44 4.44 0 0 1 25.5 6a4.497 4.497 0 0 1 4.103 2.668C30.442 7.088 32.086 6 34 6a5 5 0 0 1 5 5 5 5 0 0 1-5 5" fill="#e1e8ed"/><path d="M30 12.291a6.998 6.998 0 0 1-6.475-4.344C23.35 7.966 23.18 8 23 8a4.989 4.989 0 0 1-1.976-.409A3.974 3.974 0 0 1 18 9a4 4 0 0 1-4-4c0-.05.013-.097.015-.146A4 4 0 0 1 13 5a3.964 3.964 0 0 1-2.338-.767A3.468 3.468 0 0 1 8.5 5a3.33 3.33 0 0 1-.577-.059C7.286 6.721 5.602 8 3.604 8a4.604 4.604 0 0 1 0-9.209c.783 0 1.509.214 2.154.558A3.476 3.476 0 0 1 8.5-2c.546 0 1.057.136 1.517.359A3.975 3.975 0 0 1 13-3a3.99 3.99 0 0 1 3.747 2.639A3.28 3.28 0 0 1 18.687-1c.387 0 .752.079 1.097.2A4.957 4.957 0 0 1 23-2c1.299 0 2.472.508 3.36 1.32A6.964 6.964 0 0 1 30-1.709a7 7 0 1 1 0 14" fill="#ccd6dd"/></g></svg>