<svg xmlns="http://www.w3.org/2000/svg" viewBox="0 0 45 45"><defs><clipPath id="a"><path d="M4 36a4 4 0 0 1-4-4V4a4 4 0 0 1 4-4h28a4 4 0 0 1 4 4v28a4 4 0 0 1-4 4H4z"/></clipPath></defs><g clip-path="url(#a)" transform="matrix(1.25 0 0 -1.25 0 45)"><path d="M36-2H-2v38h38V-2z" fill="#004a77"/><path d="M-2 9v2c.117.049 11.263 4.451 18 16l2-1C10.911 13.847-1.497 9.206-2 9" fill="#fe5011"/><path d="M20 27s0 2-2 2-2-2-2-2V-1h4v28z" fill="#fe5011"/><path d="M36 5H0v4h36V5zM38 9v2c-.117.049-11.264 4.451-18 16l-2-1C25.09 13.847 37.497 9.206 38 9" fill="#fe5011"/><path d="M10 8h2v11h-2V8zM26 8h-2v11h2V8zM4 8h2v6H4V8zM32 7h-2v7h2V7z" fill="#fe5011"/><path d="M6.5 29A2.5 2.5 0 0 0 4 31.5c0 1.13.755 2.074 1.784 2.383A2.943 2.943 0 0 1 5 34a3 3 0 1 1 0-6c.959 0 1.803.458 2.353 1.159A2.493 2.493 0 0 0 6.5 29M11 33.5a.5.5 0 1 0-1 0 .5.5 0 0 0 1 0M27 24.5a.5.5 0 1 0-1 0 .5.5 0 0 0 1 0M8 24.5a.5.5 0 1 0-1 0 .5.5 0 0 0 1 0M23 31a1 1 0 1 0-2 0 1 1 0 0 0 2 0M5 19a1 1 0 1 0-2 0 1 1 0 0 0 2 0M13 29a1 1 0 1 0-2 0 1 1 0 0 0 2 0M33 19a1 1 0 1 0-2 0 1 1 0 0 0 2 0M27 30.5a.5.5 0 1 0-1 0 .5.5 0 0 0 1 0M32 33a1 1 0 1 0-2 0 1 1 0 0 0 2 0M32 28.5a.5.5 0 1 0-1 0 .5.5 0 0 0 1 0" fill="#fff"/></g></svg>