<svg xmlns="http://www.w3.org/2000/svg" viewBox="0 0 45 45"><defs><clipPath id="a"><path d="M4 36a4 4 0 0 1-4-4V4a4 4 0 0 1 4-4h28a4 4 0 0 1 4 4v28a4 4 0 0 1-4 4H4z"/></clipPath><clipPath id="b"><path d="M0 36h36V0H0v36z"/></clipPath></defs><g clip-path="url(#a)" transform="matrix(1.25 0 0 -1.25 0 45)"><path d="M37-1H-1v38h38V-1z" fill="#269"/><path d="M10 0v29l4 4h2l4-4V0H10zM33 25c0 1-1.286 1-1.286 1h-6.428S24 26.001 24 25.001V0h9v25z" fill="#3f484c"/><path d="M28 17c0 1-1 1-1 1h-8c-1 0-1-1-1-1V0h10v17zM6 22s0 1-1 1H0V0h6v22z" fill="#292f33"/><path d="M12 14s0 1-1 1H5s-1 .001-1-1V0h8v14zM31 10s0 1 1 1h4V0h-5v10z" fill="#292f33"/></g><path d="M12.5 41.25H10v-2.5h2.5v2.5zM12.5 31.25H10v-2.5h2.5v2.5zM10 36.25H7.5v-2.5H10v2.5zM22.5 13.75H20v-2.5h2.5v2.5zM22.5 18.75H20v-2.5h2.5v2.5zM20 23.75h-2.5v-2.5H20v2.5zM32.5 27.5H30V25h2.5v2.5zM30 32.5h-2.5V30H30v2.5zM27.5 40H25v-2.5h2.5V40zM38.75 17.5h-2.5V15h2.5v2.5zM38.75 22.5h-2.5V20h2.5v2.5z" fill="#ffcc4d"/><g clip-path="url(#b)" transform="matrix(1.25 0 0 -1.25 0 45)"><path d="M6.5 29A2.5 2.5 0 0 0 4 31.5c0 1.13.755 2.074 1.784 2.383A2.943 2.943 0 0 1 5 34a3 3 0 1 1 0-6c.959 0 1.803.458 2.353 1.159A2.493 2.493 0 0 0 6.5 29M11 33.5a.5.5 0 1 0-1 0 .5.5 0 0 0 1 0M8 24.5a.5.5 0 1 0-1 0 .5.5 0 0 0 1 0M23 31a1 1 0 1 0-2 0 1 1 0 0 0 2 0M27 30.5a.5.5 0 1 0-1 0 .5.5 0 0 0 1 0M32 33a1 1 0 1 0-2 0 1 1 0 0 0 2 0M32 28.5a.5.5 0 1 0-1 0 .5.5 0 0 0 1 0" fill="#fff"/></g></svg>