<svg xmlns="http://www.w3.org/2000/svg" viewBox="0 0 45 45"><defs><clipPath id="a"><path d="M4 36a4 4 0 0 1-4-4V4a4 4 0 0 1 4-4h28a4 4 0 0 1 4 4v28a4 4 0 0 1-4 4H4z"/></clipPath></defs><g clip-path="url(#a)" transform="matrix(1.25 0 0 -1.25 0 45)"><path d="M37-1H-1v38h38V-1z" fill="#f4900c"/><path d="M10 0v29l4 4h2l4-4V0H10zM33 25c0 1-1 1-1 1h-7s-1 0-1-1V0h9v25z" fill="#485359"/><path d="M28 19c0 1-1 1-1 1h-8c-1 0-1-1-1-1V0h10v19zM6 22s0 1-1 1H0V0h6v22z" fill="#292f33"/><path d="M12 16s0 1-1 1H5s-1 .001-1-1V0h8v16zM31 10s0 1 1 1h4V0h-5v10z" fill="#292f33"/><path d="M10 5H8v2h2V5zM10 13H8v2h2v-2zM8 9H6v2h2V9zM18 25h-2v2h2v-2zM18 21h-2v2h2v-2zM16 17h-2v2h2v-2zM26 16h-2v2h2v-2zM24 12h-2v2h2v-2zM22 6h-2v2h2V6zM31 22h-2v2h2v-2zM31 18h-2v2h2v-2z" fill="#ffcc4d"/></g></svg>