<svg xmlns="http://www.w3.org/2000/svg" viewBox="0 0 45 45"><defs><clipPath id="a"><path d="M0 36h36V0H0v36z"/></clipPath><clipPath id="b"><path d="M4 36c-4 0-4-4-4-4V4c0-4 4-4 4-4h28c4 0 4 4 4 4v28c0 4-4 4-4 4H4z"/></clipPath></defs><g clip-path="url(#a)" transform="matrix(1.25 0 0 -1.25 0 45)"><path d="M0 32s0 4 4 4h28s4 0 4-4V4s0-4-4-4H4S0 0 0 4v28z" fill="#88c9f9"/></g><g clip-path="url(#b)" transform="matrix(1.25 0 0 -1.25 0 45)"><path d="M0 0c0 19.882 16.118 36 36 36S72 19.882 72 0 55.882-36 36-36 0-19.882 0 0" fill="#ed1c24"/><path d="M3.042 0c0 18.203 14.756 32.958 32.957 32.958 18.203 0 32.96-14.755 32.96-32.958 0-18.202-14.757-32.959-32.96-32.959C17.797-32.959 3.041-18.202 3.041 0" fill="#f4900c"/><path d="M6.042 0c0 16.546 13.413 29.958 29.957 29.958 16.545 0 29.96-13.412 29.96-29.958 0-16.545-13.415-29.959-29.96-29.959S6.041-16.545 6.041 0" fill="#ffcc4d"/><path d="M9.041 0c0 14.889 12.07 26.958 26.958 26.958 14.888 0 26.96-12.069 26.96-26.958 0-14.888-12.072-26.959-26.96-26.959C21.111-26.959 9.041-14.888 9.041 0" fill="#5c913b"/><path d="M12.041 0c0 13.231 10.727 23.958 23.958 23.958 13.232 0 23.96-10.727 23.96-23.958 0-13.231-10.728-23.959-23.96-23.959-13.23 0-23.958 10.728-23.958 23.959" fill="#269"/><path d="M15.041 0c0 11.574 9.384 20.958 20.958 20.958 11.575 0 20.96-9.384 20.96-20.958 0-11.574-9.385-20.959-20.96-20.959-11.574 0-20.958 9.385-20.958 20.959" fill="#9266cc"/><path d="M18.041 0c0 9.917 8.042 17.958 17.958 17.958 9.918 0 17.96-8.041 17.96-17.958 0-9.918-8.042-17.959-17.96-17.959-9.916 0-17.958 8.041-17.958 17.959" fill="#88c9f9"/></g></svg>