<svg xmlns="http://www.w3.org/2000/svg" viewBox="0 0 45 45"><defs><clipPath id="a"><path d="M0 36h36V0H0v36z"/></clipPath><clipPath id="b"><path d="M18 36C8.059 36 0 27.941 0 18S8.059 0 18 0s18 8.059 18 18-8.059 18-18 18z"/></clipPath></defs><g clip-path="url(#a)" transform="matrix(1.25 0 0 -1.25 0 45)"><path d="M36 18c0-9.941-8.059-18-18-18S0 8.059 0 18s8.059 18 18 18 18-8.059 18-18" fill="#88c9f9"/></g><g clip-path="url(#b)" transform="matrix(1.25 0 0 -1.25 0 45)"><path d="M7.688 34.125c2.325-.436 3.438 0 4.312-.312.875-.313.063-.75.688-1.125.624-.375.811-.313 1.311-.125.5.187.876.889 1.25.625.376-.265 1.689-.029 2.002-.5.312-.472.75-.842 1.437-.5.688.341 3.313.661 4 .236.688-.424 2.437-.5 3.125-.612.687-.111 2.437-.17 2.187-.46-.25-.29.688-.102.188-.79-.5-.687-2.438-2.124-2.625-1.937-.188.188-.375 1.063-1 1-.625-.062-1.5.125-1.562-.625-.063-.75-1-1.687-.313-1.687.688 0 1.375.687 1.562 0 .188-.688.063-1.063-.125-1.438-.187-.375.25-.375-.75-.625s-.562.562-1-.25c-.437-.813-1.437-1.063-1.187-1.75.25-.688.438-1.063.5-1.625.063-.563-.625-1.25-1-1.75s-.812-1-1.375-1.125c-.562-.125-1-.25-1.312-1.062-.313-.813.34-2-.58-1.875-.92.125-1.42.687-1.483 1.125-.062.437-1 1.312-1.063 1.562-.062.25-1.25 1.125-1.25 1.125s-.75-.75-.75-1.625.25-1.937.25-1.937-.312-.438-.937.062-1.312.625-1.625 1.313c-.312.687-.687 1.874-.687 2.312 0 .437-.751 1.375-1.063 1.375-.313 0-1.875-.188-2-.438s-.5-.687-.812-1c-.313-.312-1.188-1.437-1.501-1.25-.312.188-1.562.875-1.562 1.5s-.875.25-.937 1.25c-.063 1-.5 1.875-.625.938-.125-.938-.063-1.25.312-2.375s.625-1.5 1.188-1.75c.562-.25.25-.687 1.187-.562s1.5.437 1.562.062c.063-.375.563-1.08-.375-1.696-.937-.616-.812-.679-1.375-1.241C3.313 14 2.75 14.188 2.75 13c0-1.187 0-1.375.062-2.375.063-1 .188-1.937-.687-2.437-.875-.5-3.751 3-4.001 5-.25 2-1.312 8.687-.937 10.249C-2.437 25-.437 29.813.376 30.75c.812.937 5.312 3.75 7.312 3.375M15.938 14.688c0-.688-.5-1.438 0-2.126.5-.687.936-.687 1.374-.75.437-.062 1.688 0 .688.813-1 .812-1.563.187-1.438 1.125.125.937-.625.937-.625.937" fill="#5c913b"/><path d="M22.938 24.688c0-.687-.5-1.437 0-2.125s-1-1.25-.562-1.313c.436-.062 2.311.188 1.311 1-1 .813-.25.563-.125 1.5.125.938-.625.938-.625.938M18.378 13.75c.437.826.934.812 1.434.437.5-.375 2-1.062 1.188-1.374-.813-.313-.573-1-1.193-.313-.62.688-1.926.313-1.429 1.25M22.313 13.241c.339-.175.875-.74 1.625-.679.75.063.688-.785 1.438-.767.75.017 1.436-.17 1.748-.545.313-.375 1.684-.938.905-1-.78-.063-1.092.5-1.904.75-.813.25-.875-.438-1.75.062-.876.5-1.813-.222-2.063.733-.25.955-.737 1.826 0 1.446M15.715 8.5c.574.558.972.937 1.847 1.375.875.437 2.375 1.063 2.75 1.125.375.063.813.235 1.063-.26s.562-.679 1.062-.495c.5.184 1.087.076 1.462-.24s1.288-.88 1.601-1.505c.312-.625.937-.5.75-1.25-.188-.75.062-1.938-.625-2.563-.688-.624-1.125-1.374-1.875-1.749s-2.73.562-2.73 1.125c0 .562-.72 1.025-1.268 1.525-.549.5-.874.412-1.374.037-.5-.375-.316-.75-.94-.875-.626-.125-2.29-1.437-2.227-.437.062.999.907 2.75.504 3.312-.403.563-.898.001 0 .875" fill="#5c913b"/></g></svg>