<svg xmlns="http://www.w3.org/2000/svg" viewBox="0 0 45 45"><defs><clipPath id="a"><path d="M4 36a4 4 0 0 1-4-4V4a4 4 0 0 1 4-4h28a4 4 0 0 1 4 4v28a4 4 0 0 1-4 4H4z"/></clipPath></defs><g clip-path="url(#a)" transform="matrix(1.25 0 0 -1.25 0 45)"><path d="M37-1H-1v38h38V-1z" fill="#ffcc4d"/><path d="M32.114 19.264c1.587.45 1.587 1.147.001 1.599l-.559.153-.556.164v-.005l-2.94.89L30.381 24h-.013l.493.322.497.359c1.291 1.023 1.008 1.686-.629 1.498l-.636-.09-.632-.09h-.002l-2.979-.338 1.77 3.18.31.558c.801 1.44.28 1.963-1.159 1.162l-.559-.28-.555-.281h-.002l-2.626-1.49.34 2.948v.003l.08.633.077.637c.188 1.634-.492 1.915-1.516.623l-.394-.5-2.257-2.85-.819 2.882-.002.004-.349 1.225c-.45 1.587-1.189 1.587-1.64 0l-.175-.613-.174-.612-.82-2.885-1.862 2.35h-.002l-.395.5-.397.502c-1.023 1.289-1.704 1.007-1.515-.63l.074-.633.073-.633v-.001l.346-2.98-3.177 1.77-.556.31c-1.442.804-1.964.282-1.16-1.16l.31-.556 1.77-3.177-2.98.346-.634.073-.634.074c-1.636.189-1.918-.492-.629-1.515l.502-.397.5-.395v-.002l2.35-1.861-2.885-.821-.612-.174-.613-.174c-1.587-.452-1.587-1.19 0-1.642l1.225-.348.004-.002 2.881-.82-2.85-2.257-.499-.395c-1.292-1.024-1.01-1.705.623-1.517l.637.08.633.08h.002l2.948.34L8 11.714v-.002l-.28-.555-.297-.56c-.8-1.438-.27-1.96 1.17-1.157l.56.309 3.184 1.77L12 8.539v-.001l-.08-.631-.077-.635c-.189-1.637.491-1.918 1.515-.627l.395.5.395.5 1.862 2.35.82-2.883.001-.001.174-.613.174-.613c.452-1.586 1.106-1.586 1.557 0L19 7.112v.004l.905 2.88 1.905-2.35.416-.5.408-.5c1.022-1.29 1.71-1.01 1.521.625l-.078.637-.077.632v.003l-.34 2.948L26.284 10h.002l.557-.28.557-.295c1.441-.803 1.963-.272 1.16 1.167l-.28.56-.28.558v.002l-1.49 2.628 2.948-.34h.003l.632-.08.637-.077c1.635-.188 1.915.492.625 1.515l-.5.395-.5.395-2.35 1.947 2.88.905h.004l1.225.264z" fill="#f4900c"/><path d="M27.63 20c0-5.32-4.311-9.63-9.63-9.63A9.628 9.628 0 0 0 8.37 20 9.629 9.629 0 0 0 18 29.629c5.319 0 9.63-4.311 9.63-9.63" fill="#ffe8b6"/><path d="M10-8v29l4 4h2l4-4V-8H10zM33 17c0 1-1 1-1 1h-7s-1 .001-1-1V-8h9v25z" fill="#485359"/><path d="M28 11c0 1-1 1-1 1h-8c-1 0-1-1-1-1V-8h10v19zM6 14s0 1-1 1H0V-8h6v22z" fill="#292f33"/><path d="M12 8s0 1-1 1H5s-1 .001-1-1V-8h8V8zM31 2s0 1 1 1h4V-8h-5V2z" fill="#292f33"/><path d="M10 5H8v2h2V5zM8 1H6v2h2V1zM18 17h-2v2h2v-2zM18 13h-2v2h2v-2zM16 9h-2v2h2V9zM26 8h-2v2h2V8zM24 4h-2v2h2V4zM31 14h-2v2h2v-2zM31 10h-2v2h2v-2z" fill="#ffcc4d"/></g></svg>