<svg xmlns="http://www.w3.org/2000/svg" viewBox="0 0 45 45"><defs><clipPath id="a"><path d="M0 36h36V0H0v36z"/></clipPath></defs><g clip-path="url(#a)" transform="matrix(1.25 0 0 -1.25 0 45)"><path d="M36 18c0-9.941-8.059-18-18-18-.294 0-.58.029-.87.043C11.239 2.607 7 9.668 7 18c0 8.331 4.239 15.393 10.13 17.956.29.014.576.044.87.044 9.941 0 18-8.059 18-18" fill="#ccd6dd"/><path d="M7 18c0 8.331 4.239 15.393 10.13 17.956C7.596 35.499 0 27.647 0 18 0 8.354 7.594.502 17.128.044 11.238 2.609 7 9.669 7 18" fill="#66757f"/><path d="M22 27.5a3.5 3.5 0 1 1 7 0 3.5 3.5 0 1 1-7 0M13 20a3 3 0 1 1 6 0 3 3 0 0 1-6 0M11 8.5C11 6.566 12.566 5 14.5 5S18 6.566 18 8.5 16.434 12 14.5 12A3.499 3.499 0 0 1 11 8.5M13 30a2 2 0 1 1 4.001.001A2 2 0 0 1 13 30M34 18a1 1 0 1 0-1.998-.002A1 1 0 0 0 34 18" fill="#b8c5cd"/><path d="M7 27a1 1 0 1 0-1.998-.002A1 1 0 0 0 7 27" fill="#5b6876"/><path d="M22 5a1 1 0 1 0-2 0 1 1 0 1 0 2 0" fill="#b8c5cd"/><path d="M2 17a2 2 0 1 1 4.001.001A2 2 0 0 1 2 17" fill="#5b6876"/><path d="M24 13a2 2 0 1 1 4.001.001A2 2 0 0 1 24 13" fill="#b8c5cd"/></g></svg>