<svg xmlns="http://www.w3.org/2000/svg" viewBox="0 0 45 45"><defs><clipPath id="a"><path d="M0 36h36V0H0v36z"/></clipPath></defs><g clip-path="url(#a)" transform="matrix(1.25 0 0 -1.25 0 45)"><path d="M18 .2c-.39 0-.745.218-.921.565l-1.8 3.554-3.024-2.596a1.044 1.044 0 0 0-.672-.247c-.133 0-.267.026-.394.08a1.028 1.028 0 0 0-.634.872l-.304 3.975-3.788-1.24a1.035 1.035 0 0 0-1.301 1.303l1.24 3.787-3.972.301a1.036 1.036 0 0 0-.875.633c-.148.362-.083.773.17 1.068l2.594 3.024-3.553 1.8a1.032 1.032 0 0 0 0 1.842l3.553 1.8-2.594 3.023a1.032 1.032 0 1 0 .705 1.701l3.972.304-1.24 3.787c-.121.37-.024.776.25 1.052a1.037 1.037 0 0 0 1.051.25l3.788-1.24.304 3.972a1.03 1.03 0 0 0 1.7.705l3.024-2.595 1.8 3.554a1.032 1.032 0 0 0 1.841.001l1.802-3.555 3.024 2.595a1.036 1.036 0 0 0 1.068.17c.358-.149.602-.488.633-.875l.303-3.972 3.785 1.24a1.03 1.03 0 0 0 1.303-1.302l-1.241-3.787 3.975-.304a1.032 1.032 0 0 0 .704-1.701l-2.595-3.023 3.553-1.8a1.033 1.033 0 0 0 0-1.842l-3.553-1.8 2.595-3.024a1.033 1.033 0 0 0-.707-1.7l-3.972-.302 1.241-3.788a1.029 1.029 0 0 0-.252-1.05 1.028 1.028 0 0 0-1.051-.253L25.75 6.403l-.303-3.973a1.035 1.035 0 0 0-1.701-.707L20.722 4.32 18.92.765A1.03 1.03 0 0 0 18 .2" fill="#f4900c"/><path d="M31 18c0-7.18-5.821-13-13.001-13C10.821 5 5 10.82 5 18s5.821 13 12.999 13C25.179 31 31 25.18 31 18" fill="#ffcc4d"/><path d="M18 12.53c-6.222 0-8 2.327-8 1.228 0-1.102 3.556-3.98 8-3.98s8 2.878 8 3.98c0 1.1-1.777-1.229-8-1.229M26 21.334a2.667 2.667 0 1 0-5.334 0 2.667 2.667 0 0 0 5.334 0M15.334 21.334a2.668 2.668 0 1 0-5.336 0 2.668 2.668 0 0 0 5.336 0" fill="#f4900c"/></g></svg>