<svg xmlns="http://www.w3.org/2000/svg" viewBox="0 0 45 45"><defs><clipPath id="a"><path d="M0 36h36V0H0v36z"/></clipPath></defs><g clip-path="url(#a)" transform="matrix(1.25 0 0 -1.25 0 45)"><path d="M36 18c0-9.941-8.059-18-18-18S0 8.059 0 18s8.059 18 18 18 18-8.059 18-18" fill="#ccd6dd"/><path d="M14 27.5a3.5 3.5 0 1 0-7 0 3.5 3.5 0 1 0 7 0M23 19a3 3 0 1 0-6 0 3 3 0 0 0 6 0M28 7.5C28 5.566 26.434 4 24.5 4A3.499 3.499 0 0 0 21 7.5c0 1.934 1.566 3.5 3.5 3.5S28 9.434 28 7.5M24 31a2 2 0 1 0-4 0 2 2 0 0 0 4 0M2 18a1 1 0 1 1 2 0 1 1 0 0 1-2 0M29 27a1 1 0 1 1 1.998-.002A1 1 0 0 1 29 27M14 5a1 1 0 1 1 2 0 1 1 0 1 1-2 0M34 17a2 2 0 1 0-4 0 2 2 0 0 0 4 0M12 13a2 2 0 1 0-4 0 2 2 0 0 0 4 0" fill="#b8c5cd"/></g></svg>