<svg xmlns="http://www.w3.org/2000/svg" viewBox="0 0 45 45"><defs><clipPath id="a"><path d="M0 36h36V0H0v36z"/></clipPath></defs><g clip-path="url(#a)" transform="matrix(1.25 0 0 -1.25 0 45)"><path d="M18 36V0C8.059 0 0 8.059 0 18s8.059 18 18 18" fill="#ccd6dd"/><path d="M36 18c0-9.941-8.059-18-18-18v36c9.941 0 18-8.059 18-18" fill="#66757f"/><path d="M14 27.5a3.5 3.5 0 1 0-7 0 3.5 3.5 0 1 0 7 0" fill="#b8c5cd"/><path d="M27 20a3 3 0 1 0-6 0 3 3 0 0 0 6 0M26 8.5C26 6.566 24.434 5 22.5 5A3.499 3.499 0 0 0 19 8.5c0 1.934 1.566 3.5 3.5 3.5S26 10.434 26 8.5M23 30a2 2 0 1 0-4 0 2 2 0 0 0 4 0" fill="#5b6876"/><path d="M2 18a1 1 0 1 1 2 0 1 1 0 0 1-2 0" fill="#b8c5cd"/><path d="M29 27a1 1 0 1 1 1.998-.002A1 1 0 0 1 29 27" fill="#5b6876"/><path d="M14 5a1 1 0 1 1 2 0 1 1 0 1 1-2 0" fill="#b8c5cd"/><path d="M34 17a2 2 0 1 0-4 0 2 2 0 0 0 4 0" fill="#5b6876"/><path d="M12 13a2 2 0 1 0-4 0 2 2 0 0 0 4 0" fill="#b8c5cd"/></g></svg>