<svg xmlns="http://www.w3.org/2000/svg" viewBox="0 0 45 45"><defs><clipPath id="a"><path d="M0 36h36V0H0v36z"/></clipPath></defs><g clip-path="url(#a)" transform="matrix(1.25 0 0 -1.25 0 45)"><path d="M36 18c0-9.94-8.06-18-18-18C8.059 0 0 8.06 0 18c0 9.941 8.059 18 18 18 9.94 0 18-8.059 18-18" fill="#66757f"/><path d="M13 28.5a3.5 3.5 0 1 0-7 0 3.5 3.5 0 1 0 7 0M28 7.5C28 5.566 26.434 4 24.5 4A3.499 3.499 0 0 0 21 7.5c0 1.934 1.566 3.5 3.5 3.5S28 9.434 28 7.5M24 31a2 2 0 1 0-4 0 2 2 0 0 0 4 0M2 18a1 1 0 1 1 2 0 1 1 0 0 1-2 0M29 27a1 1 0 1 1 1.998-.002A1 1 0 0 1 29 27M15 5a1 1 0 1 1 2 0 1 1 0 1 1-2 0M34 17a2 2 0 1 0-4 0 2 2 0 0 0 4 0M8 10a2 2 0 1 0-4.001.001A2 2 0 0 0 8 10" fill="#5b6876"/><path d="M18 11.096c-7 0-9 2.618-9 1.38C9 11.24 13 8 18 8s9 3.239 9 4.477c0 1.237-2-1.381-9-1.381M27 21a3 3 0 1 0-6 0 3 3 0 0 0 6 0M15 21a3 3 0 1 0-6 0 3 3 0 0 0 6 0" fill="#4f585d"/></g></svg>