<svg xmlns="http://www.w3.org/2000/svg" viewBox="0 0 45 45"><defs><clipPath id="a"><path d="M0 36h36V0H0v36z"/></clipPath></defs><g clip-path="url(#a)" transform="matrix(1.25 0 0 -1.25 0 45)"><path d="M25.357 3.802C26.371 4.986 27.26 6.396 27.977 8h2.502a16.053 16.053 0 0 0-5.122-4.198M5.52 8h2.503c.716-1.604 1.605-3.014 2.62-4.198A16.042 16.042 0 0 0 5.52 8m5.122 24.199c-1.014-1.184-1.903-2.594-2.619-4.2H5.52a16.056 16.056 0 0 0 5.122 4.2m19.837-4.2h-2.503c-.717 1.606-1.605 3.016-2.619 4.2a16.043 16.043 0 0 0 5.122-4.2m-.513-9c-.092 2.507-.522 4.872-1.228 7h3.103a15.868 15.868 0 0 0 2.108-7h-3.983zm0-2h3.983a15.872 15.872 0 0 0-2.108-7h-3.103c.706 2.13 1.136 4.495 1.228 7M19 10v7h8.968c-.098-2.54-.563-4.916-1.317-7h-7.65zm0-7.918V8h6.8c-1.637-3.264-4.053-5.482-6.8-5.92M17 8V2.08c-2.748.438-5.164 2.656-6.8 5.92H17zm-8.969 9h8.97v-7H9.347c-.754 2.083-1.219 4.459-1.317 7m-1.998 2H2.05a15.893 15.893 0 0 0 2.107 7h3.105c-.707-2.13-1.136-4.494-1.229-7M17 26v-7H8.031c.098 2.54.563 4.917 1.317 7H17zm0 7.92V28h-6.8c1.637 3.264 4.052 5.483 6.8 5.92M26.651 26c.754-2.083 1.22-4.46 1.317-7H19v7h7.651zm-7.65 2v5.92c2.746-.437 5.161-2.656 6.797-5.92H19zM2.05 17h3.982c.092-2.506.522-4.871 1.23-7H4.156a15.897 15.897 0 0 0-2.107 7M18 36C8.06 36 0 27.94 0 18 0 8.059 8.06 0 18 0c9.941 0 18 8.059 18 18 0 9.94-8.059 18-18 18" fill="#3b88c3"/></g></svg>