<svg xmlns="http://www.w3.org/2000/svg" viewBox="0 0 45 45"><defs><clipPath id="a"><path d="M0 36h36V0H0v36z"/></clipPath></defs><g clip-path="url(#a)" transform="matrix(1.25 0 0 -1.25 0 45)"><path d="M18 36V0c9.941 0 18 8.059 18 18s-8.059 18-18 18" fill="#ccd6dd"/><path d="M0 18C0 8.059 8.059 0 18 0v36C8.059 36 0 27.941 0 18" fill="#66757f"/><path d="M22 27.5a3.5 3.5 0 1 1 7 0 3.5 3.5 0 1 1-7 0" fill="#b8c5cd"/><path d="M9 20a3 3 0 1 1 6 0 3 3 0 0 1-6 0M10 8.5C10 6.566 11.566 5 13.5 5S17 6.566 17 8.5 15.434 12 13.5 12A3.499 3.499 0 0 1 10 8.5M13 30a2 2 0 1 1 4.001.001A2 2 0 0 1 13 30" fill="#5b6876"/><path d="M34 18a1 1 0 1 0-1.998-.002A1 1 0 0 0 34 18" fill="#b8c5cd"/><path d="M7 27a1 1 0 1 0-1.998-.002A1 1 0 0 0 7 27" fill="#5b6876"/><path d="M22 5a1 1 0 1 0-2 0 1 1 0 1 0 2 0" fill="#b8c5cd"/><path d="M2 17a2 2 0 1 1 4.001.001A2 2 0 0 1 2 17" fill="#5b6876"/><path d="M24 13a2 2 0 1 1 4.001.001A2 2 0 0 1 24 13" fill="#b8c5cd"/></g></svg>