<svg xmlns="http://www.w3.org/2000/svg" viewBox="0 0 45 45"><defs><clipPath id="a"><path d="M0 36h36V0H0v36z"/></clipPath></defs><g clip-path="url(#a)" transform="matrix(1.25 0 0 -1.25 0 45)"><path d="M11 23c0 4.984 1.934 9.505 5.073 12.894C7.039 34.932 0 27.29 0 18 0 8.059 8.06 0 18 0a17.93 17.93 0 0 1 11.348 4.033c-7.164.245-13.306 4.451-16.351 10.485-.622 1.232 2.795 1.201 2.962 3.482.154 2.13-4.959 2.74-4.959 5" fill="#ccd6dd"/><path d="M14 7.5C14 5.566 12.434 4 10.5 4A3.499 3.499 0 0 0 7 7.5C7 9.434 8.566 11 10.5 11S14 9.434 14 7.5M8 29a1 1 0 1 1 2 0 1 1 0 0 1-2 0M17 4a1 1 0 1 1 2 0 1 1 0 1 1-2 0M5 16a2 2 0 1 0-4.001.001A2 2 0 0 0 5 16" fill="#b8c5cd"/><path d="M16.203 9.977a19.396 19.396 0 0 0-2.104 2.65c-5.45-1.225-7.637.274-7.317-.805.342-1.148 4.798-3.008 9.421-1.845M10 21.5a2.5 2.5 0 1 0-5 0 2.5 2.5 0 0 0 5 0" fill="#99aab5"/></g></svg>