<svg xmlns="http://www.w3.org/2000/svg" viewBox="0 0 45 45"><defs><clipPath id="a"><path d="M0 36h36V0H0v36z"/></clipPath></defs><g clip-path="url(#a)" transform="matrix(1.25 0 0 -1.25 0 45)"><path d="M25 23c0 4.984-1.934 9.505-5.073 12.894C28.961 34.932 36 27.29 36 18c0-9.941-8.06-18-18-18-4.303 0-8.25 1.515-11.347 4.033 7.163.245 13.305 4.451 16.35 10.485.622 1.232-2.795 1.201-2.962 3.482C19.887 20.13 25 20.74 25 23" fill="#ccd6dd"/><path d="M22 7.5C22 5.566 23.566 4 25.5 4S29 5.566 29 7.5 27.434 11 25.5 11A3.499 3.499 0 0 1 22 7.5M28 29a1 1 0 1 0-1.998-.002A1 1 0 0 0 28 29M19 4a1 1 0 1 0-2 0 1 1 0 1 0 2 0M31 16a2 2 0 1 1 4.001.001A2 2 0 0 1 31 16" fill="#b8c5cd"/><path d="M19.797 9.977c.775.819 1.48 1.705 2.104 2.65 5.45-1.225 7.637.274 7.317-.805-.341-1.148-4.798-3.008-9.421-1.845M26 21.5a2.5 2.5 0 1 1 5 0 2.5 2.5 0 0 1-5 0" fill="#99aab5"/></g></svg>