<svg xmlns="http://www.w3.org/2000/svg" viewBox="0 0 45 45"><defs><clipPath id="a"><path d="M0 36h36V0H0v36z"/></clipPath></defs><g clip-path="url(#a)" transform="matrix(1.25 0 0 -1.25 0 45)"><path d="M12 29C5.374 29 0 21.836 0 13h6V7h17.119c.564 1.855.881 3.877.881 6 0 8.836-5.373 16-12 16" fill="#ffe8b6"/><path d="M29 15h4.896c-.74 7.89-5.778 14-11.896 14-6.626 0-11.999-7.164-11.999-16 0-2.123.316-4.145.88-6H29v8z" fill="#ffe8b6"/><path d="M36 13c0 8.836-5.373 16-12 16-6.626 0-11.999-7.164-11.999-16 0-2.123.316-4.145.88-6H30a6 6 0 0 1 6 6" fill="#ffac33"/><path d="M16 13H6V7h10v6z" fill="#ffac33"/><path d="M0 13a6 6 0 1 0 12-.002A6 6 0 0 0 0 13" fill="#ffe8b6"/><path d="M14 29C7.374 29 2 21.836 2 13a4 4 0 0 1 8.001 0c0 6.963 3.342 12.87 7.999 15.07-1.253.592-2.595.93-4 .93" fill="#ffac33"/><path d="M5 13a1 1 0 1 0-1.999 0 1 1 0 0 0 2 0" fill="#d99e82"/><path d="M9.975 12.75A1.497 1.497 0 0 1 8.5 14c-.179 0-.35-.037-.509-.095.001.032.01.063.01.095a2 2 0 1 1-4 0c0-.525.206-1 .538-1.357A1.49 1.49 0 0 1 4 11.5c0-.678.453-1.244 1.071-1.43a1.487 1.487 0 0 1 1.241-1.039 3.976 3.976 0 0 1 3.663 3.719" fill="#c1694f"/><path d="M9.5 15a1.5 1.5 0 1 1 0-3c.13 0 .255.021.376.053.075.305.125.619.125.947 0 .637.037 1.261.09 1.878a1.49 1.49 0 0 1-.59.122" fill="#d99e82"/><path d="M8 16c0-.553-.67-1-1.5-1-.828 0-1.5.447-1.5 1 0 .553.672 1 1.5 1 .83 0 1.5-.447 1.5-1" fill="#ffcc4d"/><path d="M8 15a1 1 0 1 0-1.999 0 1 1 0 0 0 2 0" fill="#ffcc4d"/><path d="M10 15a1 1 0 1 0-1.999 0 1 1 0 0 0 2 0" fill="#c1694f"/><path d="M6 14a1 1 0 1 0-1.999 0 1 1 0 0 0 2 0" fill="#d99e82"/><path d="M8 14a1 1 0 1 0-1.999 0 1 1 0 0 0 2 0" fill="#d99e82"/><path d="M9 16a1 1 0 1 0-1.999 0 1 1 0 0 0 2 0" fill="#ffd983"/><path d="M8 18a1 1 0 1 0-1.999 0 1 1 0 0 0 2 0M7 16a1 1 0 1 0-1.999 0 1 1 0 0 0 2 0" fill="#ffe8b6"/><path d="M10 18a1 1 0 1 0-1.999 0 1 1 0 0 0 2 0" fill="#ffd983"/><path d="M10 16a1 1 0 1 0-1.999 0 1 1 0 0 0 2 0" fill="#ffd983"/><path d="M10 17a1 1 0 1 0-1.999 0 1 1 0 0 0 2 0" fill="#ffd983"/><path d="M10 17a1 1 0 1 0-1.999 0 1 1 0 0 0 2 0" fill="#ffe8b6"/><path d="M10.572 23.547a1.494 1.494 0 0 1-2.544-.783c-.216.14-.478.235-.777.235C6.56 23 6 22.551 6 22c0-.19.084-.358.199-.51A.759.759 0 0 1 6 21a1 1 0 0 1-1-1c0-.202.075-.379.179-.536A.748.748 0 0 1 5 19c0-.553.67-1 1.5-1 .43 0 .815.122 1.089.316a1.48 1.48 0 0 1 1.468-.206 1.49 1.49 0 0 1 1.33-1.092c.496 2.544 1.452 4.835 2.74 6.72A2.49 2.49 0 0 1 12 24c-.561 0-1.066-.174-1.43-.452" fill="#77b255"/><path d="M9 21a1 1 0 1 0-2 0 1 1 0 0 0 2 0M10 22.5a.5.5 0 1 0-1 0 .5.5 0 0 0 1 0M7 19.5a.5.5 0 1 0-1 0 .5.5 0 0 0 1 0M10 19.5a.5.5 0 1 0-1 0 .5.5 0 0 0 1 0" fill="#a6d388"/><path d="M11 21a1 1 0 1 0-2 0 1 1 0 0 0 2 0" fill="#a6d388"/><path d="M10 24a1 1 0 1 0-2 0 1 1 0 0 0 2 0" fill="#dd2e44"/><path d="M12 24a1 1 0 1 0-2 0 1 1 0 0 0 2 0M13 26a1 1 0 1 0-2 0 1 1 0 0 0 2 0M10 22a1 1 0 1 0-2 0 1 1 0 0 0 2 0" fill="#ffd983"/><path d="M15 27a1 1 0 0 1-1-1c0-.035.017-.064.02-.098-.162.06-.335.098-.52.098a1.5 1.5 0 0 1-1.5-1.5c0-.561.312-1.043.768-1.301.843 1.354 1.854 2.513 2.988 3.436A.986.986 0 0 1 15 27" fill="#a6d388"/><path d="M13 25a1 1 0 1 0-2 0 1 1 0 0 0 2 0M15 27a1 1 0 1 0-2 0 1 1 0 0 0 2 0" fill="#dd2e44"/><path d="M18 11a1 1 0 1 0-1.999 0 1 1 0 0 0 2 0M14 8a1 1 0 1 0-1.999 0 1 1 0 0 0 2 0M20 8a1 1 0 1 0-1.998-.002A1 1 0 0 0 20 8M23 9a1 1 0 1 0-2 0 1 1 0 1 0 2 0M27 9a1 1 0 1 0-2 0 1 1 0 1 0 2 0M30 8a1 1 0 1 0-2 0 1 1 0 1 0 2 0M32 10a1 1 0 1 0-2 0 1 1 0 1 0 2 0M22 14a1 1 0 1 0-1.998-.002A1 1 0 0 0 22 14M16 14a1 1 0 1 0-1.999 0 1 1 0 0 0 2 0M35 12a1 1 0 1 0-2 0 1 1 0 1 0 2 0M18 18a1 1 0 1 0-1.999 0 1 1 0 0 0 2 0M23 20a1 1 0 1 0-2-.001 1 1 0 0 0 2 0M20 24a1 1 0 1 0-2-.001 1 1 0 0 0 2 0M28 23a1 1 0 1 0-2-.001 1 1 0 0 0 2 0M25 26a1 1 0 1 0-2-.001 1 1 0 0 0 2 0M32 17a1 1 0 1 0-2 0 1 1 0 1 0 2 0M27 17a1 1 0 1 0-2 0 1 1 0 1 0 2 0M25 13a1 1 0 1 0-2 0 1 1 0 1 0 2 0M30 14a1 1 0 1 0-2 0 1 1 0 1 0 2 0" fill="#f4900c"/></g></svg>