<svg xmlns="http://www.w3.org/2000/svg" viewBox="0 0 45 45"><defs><clipPath id="a"><path d="M0 36h36V0H0v36z"/></clipPath></defs><g clip-path="url(#a)" transform="matrix(1.25 0 0 -1.25 0 45)"><path d="M13 30s0 2 2 2 2-2 2-2v-2s0-2-2-2-2 2-2 2v2zM4 19s2 0 2-2-2-2-2-2H2s-2 0-2 2 2 2 2 2h2zM7.872 25.956s1.414-1.414 0-2.828-2.828 0-2.828 0l-1.415 1.414s-1.414 1.414 0 2.83c1.415 1.414 2.829 0 2.829 0l1.414-1.415zM24.957 23.129s-1.414-1.414-2.828 0 0 2.828 0 2.828l1.414 1.414s1.414 1.414 2.828 0 0-2.828 0-2.828l-1.414-1.414zM23 17a8 8 0 0 1-8 8 8 8 0 0 1-8-8 8 8 0 1 1 16 0" fill="#ffac33"/><path d="M28.223 19.2a7.922 7.922 0 0 1-2.304-.34c-.862 2.41-3.201 4.14-5.961 4.14-2.96 0-5.436-1.99-6.123-4.675a4.399 4.399 0 0 1-2.626.875c-2.417 0-4.375-1.914-4.375-4.275 0-.574.119-1.119.329-1.619a4.907 4.907 0 0 1-1.301.194C3.177 13.5 1 11.374 1 8.75S3.177 4 5.862 4h22.36C32.519 4 36 7.402 36 11.6c0 4.197-3.482 7.6-7.777 7.6" fill="#e1e8ed"/></g></svg>