<svg xmlns="http://www.w3.org/2000/svg" viewBox="0 0 45 45"><defs><clipPath id="a"><path d="M4 36a4 4 0 0 1-4-4V4a4 4 0 0 1 4-4h28a4 4 0 0 1 4 4v28a4 4 0 0 1-4 4H4z"/></clipPath></defs><g clip-path="url(#a)" transform="matrix(1.25 0 0 -1.25 0 45)"><path d="M37-1H-1v38h38V-1z" fill="#f5f8fa"/><path d="M3 31a4.99 4.99 0 0 0 4.652-3.198C8.439 29.113 9.859 30 11.5 30c.763 0 1.47-.207 2.099-.542a3.49 3.49 0 0 0 6.189-.8A4.474 4.474 0 0 0 21.5 29c1.757 0 3.263-1.018 4.004-2.486.604.3 1.275.486 1.996.486a4.47 4.47 0 0 0 3.054-1.213c.767.961 1.934 1.588 3.258 1.588a4.188 4.188 0 1 0 0-8.375c-.995 0-1.897.361-2.616.942A4.49 4.49 0 0 0 27.5 18c-.561 0-1.092.115-1.587.303A3.473 3.473 0 0 0 24.5 18c-1.4 0-2.599.828-3.159 2.016a4.478 4.478 0 0 0-2.924 1.22A2.989 2.989 0 0 0 16 20a2.99 2.99 0 0 0-2.561 1.456A4.44 4.44 0 0 0 11.5 21a4.495 4.495 0 0 0-4.102 2.668C6.558 22.088 4.914 21 3 21a5 5 0 0 0-5 5 5 5 0 0 0 5 5" fill="#e1e8ed"/><path d="M6 27.291a6.998 6.998 0 0 0 6.475-4.344c.175.019.345.053.525.053.702 0 1.369-.147 1.976-.409A3.974 3.974 0 0 0 18 24a4 4 0 0 0 4-4c0-.05-.013-.097-.015-.146A4 4 0 0 0 23 20c.876 0 1.679-.289 2.338-.767A3.468 3.468 0 0 0 27.5 20c.198 0 .388-.026.577-.059.637 1.78 2.321 3.059 4.319 3.059A4.604 4.604 0 0 0 37 18.396c0-2.543-2.062-6.605-4.604-6.605-.783 0-29.061-2.5-30.396-2.5-3.866 0-3 7.134-3 11a7 7 0 0 0 7 7" fill="#ccd6dd"/><path d="M34 16a4.99 4.99 0 0 1-4.652-3.198C28.562 14.113 27.141 15 25.5 15c-.763 0-1.47-.207-2.099-.542a3.49 3.49 0 0 1-6.189-.8A4.474 4.474 0 0 1 15.5 14c-1.757 0-3.263-1.018-4.004-2.486-.604.3-1.275.486-1.996.486a4.47 4.47 0 0 1-3.054-1.213c-.767.961-1.934 1.588-3.258 1.588a4.188 4.188 0 1 1 0-8.375c.995 0 1.897.361 2.616.942A4.487 4.487 0 0 1 9.5 3c.561 0 1.092.115 1.587.303A3.473 3.473 0 0 1 12.5 3c1.4 0 2.599.828 3.159 2.016a4.478 4.478 0 0 1 2.924 1.22A2.989 2.989 0 0 1 21 5a2.99 2.99 0 0 1 2.561 1.456A4.44 4.44 0 0 1 25.5 6a4.497 4.497 0 0 1 4.103 2.668C30.442 7.088 32.086 6 34 6a5 5 0 0 1 5 5 5 5 0 0 1-5 5" fill="#e1e8ed"/><path d="M20 27s0 2-2 2-2-2-2-2V-1h4v28z" fill="#fe5011"/><path d="M-2 9v2c.117.049 11.263 4.451 18 16l2-1C10.911 13.847-1.497 9.206-2 9M36 5H0v4h36V5zM38 9v2c-.117.049-11.264 4.451-18 16l-2-1C25.09 13.847 37.497 9.206 38 9" fill="#fe5011"/><path d="M10 8h2v11h-2V8zM26 8h-2v11h2V8zM4 8h2v6H4V8zM32 7h-2v7h2V7z" fill="#fe5011"/><path d="M-7.048 14.7a6.633 6.633 0 0 0 6.521-3.472c.164.034.321.083.49.1a4.73 4.73 0 0 0 1.902-.196 3.769 3.769 0 0 0 2.716 1.619 3.79 3.79 0 0 0 4.155-3.387c.005-.047-.002-.092.001-.14.298.113.61.202.942.236a3.76 3.76 0 0 0 2.278-.498 3.28 3.28 0 0 0 1.965.93c.186.019.368.013.55 0 .43 1.739 1.894 3.107 3.777 3.299a4.363 4.363 0 1 0 .884-8.682 4.32 4.32 0 0 0-2.083.319 3.3 3.3 0 0 0-2.456-1.535 3.293 3.293 0 0 0-1.464.193 3.767 3.767 0 0 0-2.682-1.568 3.781 3.781 0 0 0-3.786 2.128 3.118 3.118 0 0 0-1.768-.79 3.131 3.131 0 0 0-1.054.085A4.696 4.696 0 0 0 .924 1.9a4.712 4.712 0 0 0-3.295.922 6.601 6.601 0 0 0-3.332-1.32A6.633 6.633 0 1 0-7.047 14.7" fill="#f5f8fa"/><path d="M29 7a4 4 0 1 0-8 0 4 4 0 0 0 8 0" fill="#f5f8fa"/><path d="M33 12.291a6.998 6.998 0 0 1-6.475-4.344C26.35 7.966 26.18 8 26 8a4.972 4.972 0 0 1-1.976-.409A3.974 3.974 0 0 1 21 9a4 4 0 0 1-4-4c0-.05.013-.097.015-.146A4 4 0 0 1 16 5a3.964 3.964 0 0 1-2.338-.767A3.468 3.468 0 0 1 11.5 5a3.33 3.33 0 0 1-.577-.059C10.286 6.721 8.602 8 6.604 8 4.617 8 2.94 6.734 2.294 4.97 2.195 4.978 2.101 5 2 5a4 4 0 0 1 0-8c1.462 0 8.382 1 9.5 1h21.667C37.033-2 40 1.425 40 5.291a7 7 0 0 1-7 7" fill="#ccd6dd"/></g></svg>