<svg xmlns="http://www.w3.org/2000/svg" viewBox="0 0 45 45"><defs><clipPath id="a"><path d="M0 36h36V0H0v36z"/></clipPath></defs><g clip-path="url(#a)" transform="matrix(1.25 0 0 -1.25 0 45)"><path d="M16 34s0 2 2 2 2-2 2-2v-2s0-2-2-2-2 2-2 2v2zM34 20s2 0 2-2-2-2-2-2h-2s-2 0-2 2 2 2 2 2h2zM4 20s2 0 2-2-2-2-2-2H2s-2 0-2 2 2 2 2 2h2zM9.121 28.706s1.414-1.414 0-2.828-2.828 0-2.828 0l-1.415 1.414s-1.414 1.414 0 2.83c1.415 1.414 2.83 0 2.83 0l1.413-1.415zM29.708 25.879s-1.414-1.414-2.828 0 0 2.828 0 2.828l1.414 1.414s1.414 1.414 2.828 0 0-2.828 0-2.828l-1.414-1.414zM8.708 4.879s-1.414-1.414-2.828 0 0 2.828 0 2.828L7.294 9.12s1.414 1.414 2.828 0 0-2.828 0-2.828L8.708 4.879zM28 18c0 5.523-4.477 10-10 10S8 23.523 8 18 12.477 8 18 8s10 4.477 10 10" fill="#ffac33"/><path d="M29.777 12.8c-.642 0-1.26-.1-1.843-.285-.688 2.028-2.56 3.485-4.767 3.485-2.369 0-4.35-1.678-4.9-3.936a3.407 3.407 0 0 1-2.1.736c-1.934 0-3.5-1.611-3.5-3.6 0-.483.095-.941.263-1.363A3.745 3.745 0 0 1 11.888 8C9.74 8 8 6.209 8 4c0-2.21 1.74-4 3.888-4h17.89C33.213 0 36 2.864 36 6.4c0 3.535-2.786 6.4-6.223 6.4" fill="#e1e8ed"/></g></svg>