<svg xmlns="http://www.w3.org/2000/svg" viewBox="0 0 45 45"><defs><clipPath id="a"><path d="M0 36h36V0H0v36z"/></clipPath></defs><g clip-path="url(#a)" transform="matrix(1.25 0 0 -1.25 0 45)"><path d="M36 4a4 4 0 0 0-4-4H4a4 4 0 0 0-4 4v28a4 4 0 0 0 4 4h28a4 4 0 0 0 4-4V4z" fill="#269"/><path d="M11 27s7.29 4.557 21 4.969c.652.02 2 .031 2-.969-6-9-9-23-9-23L11 27z" fill="#f4900c"/><path d="M12 20s12 11 20 11.969c.648.079 2 .031 2-.969-7-4-12-19-12-19l-10 8z" fill="#ffac33"/><path d="M15.156 23.562c.826-.727 2.388-1.164 3.47-.972l4.894.866c1.084.192 1.613-.478 1.177-1.488l-1.967-4.564c-.436-1.009-.37-2.63.148-3.601l2.335-4.384c.518-.972.044-1.682-1.051-1.58l-4.947.463c-1.095.101-2.616-.462-3.38-1.254l-3.45-3.577c-.763-.792-1.585-.562-1.826.511L9.469 8.83c-.241 1.073-1.247 2.345-2.236 2.827l-4.467 2.175c-.99.482-1.025 1.335-.078 1.897l4.274 2.533c.946.561 1.844 1.911 1.997 3.001l.688 4.92c.152 1.09.953 1.387 1.779.66l3.73-3.281z" fill="#ffd983"/></g></svg>