<svg xmlns="http://www.w3.org/2000/svg" viewBox="0 0 45 45"><defs><clipPath id="a"><path d="M0 36h36V0H0v36z"/></clipPath></defs><g clip-path="url(#a)" transform="matrix(1.25 0 0 -1.25 0 45)"><path d="M13 34s0 2 2 2 2-2 2-2v-2s0-2-2-2-2 2-2 2v2zM4 23s2 0 2-2-2-2-2-2H2s-2 0-2 2 2 2 2 2h2zM7.872 29.956s1.414-1.414 0-2.828-2.828 0-2.828 0l-1.415 1.414s-1.414 1.414 0 2.83c1.415 1.414 2.829 0 2.829 0l1.414-1.415zM24.957 27.129s-1.414-1.414-2.828 0 0 2.828 0 2.828l1.414 1.414s1.414 1.414 2.828 0 0-2.828 0-2.828l-1.414-1.414zM23 21a8 8 0 0 1-8 8 8 8 0 0 1-8-8 8 8 0 1 1 16 0" fill="#ffac33"/><path d="M28.223 23.2a7.922 7.922 0 0 1-2.304-.34c-.862 2.41-3.201 4.14-5.961 4.14-2.96 0-5.436-1.99-6.123-4.675a4.399 4.399 0 0 1-2.626.875c-2.417 0-4.375-1.914-4.375-4.275 0-.574.119-1.119.329-1.619a4.948 4.948 0 0 1-1.301.194C3.177 17.5 1 15.374 1 12.75S3.177 8 5.862 8h22.36C32.519 8 36 11.402 36 15.6c0 4.197-3.482 7.6-7.777 7.6" fill="#e1e8ed"/><path d="M11.999 2.04l-.113 3.42-2.869-1.708A1.966 1.966 0 0 1 7.98 1.953 2.034 2.034 0 0 1 10.057 0a1.974 1.974 0 0 1 1.942 2.04M5.02 3.58L4.906 7l-2.87-1.708A1.966 1.966 0 0 1 1 3.493 2.034 2.034 0 0 1 3.077 1.54 1.974 1.974 0 0 1 5.02 3.58M19.02 3.04l-.113 3.42-2.87-1.708a1.964 1.964 0 0 1-1.035-1.799A2.033 2.033 0 0 1 17.078 1a1.974 1.974 0 0 1 1.942 2.04M24.998 2.04l-.113 3.42-2.869-1.708a1.964 1.964 0 0 1-1.036-1.799A2.034 2.034 0 0 1 23.057 0a1.973 1.973 0 0 1 1.941 2.04M31.019 3.58L30.906 7l-2.87-1.708a1.964 1.964 0 0 1-1.035-1.799 2.033 2.033 0 0 1 2.077-1.953 1.973 1.973 0 0 1 1.94 2.04" fill="#5dadec"/></g></svg>