<svg xmlns="http://www.w3.org/2000/svg" viewBox="0 0 45 45"><defs><clipPath id="a"><path d="M0 36h36V0H0v36z"/></clipPath><clipPath id="b"><path d="M21 36c-9.416 0-13.625-2.166-14.75-4-.945-1.539-.625-4.708 2.5-9 2.655-3.646 5.331-4.477 6.042-8.583.917-5.292-2.667-11.084-2.667-11.084S11.197.454 14.75 2c4.5 1.958 9.36 7.55 13.75 15.916 2.667 5.084 3.333 12.459 2.208 14.668C29.794 34.378 27.042 36 21 36z"/></clipPath><clipPath id="c"><path d="M3.125 42.75h29.834V29.666H3.125V42.75z"/></clipPath><clipPath id="d"><path d="M0 36h36V0H0v36z"/></clipPath></defs><g clip-path="url(#a)" transform="matrix(1.25 0 0 -1.25 0 45)"><path d="M12.125 3.333s3.583 5.792 2.667 11.084c-.711 4.106-3.387 4.937-6.042 8.583-3.125 4.292-3.444 7.461-2.5 9 1.125 1.834 5.333 4 14.75 4 6.042 0 8.794-1.622 9.708-3.416 1.125-2.209.459-9.584-2.208-14.667C24.11 9.55 19.25 3.958 14.75 2c-3.553-1.546-2.625 1.333-2.625 1.333" fill="#8899a6"/></g><g clip-path="url(#b)" transform="matrix(1.25 0 0 -1.25 0 45)"><g clip-path="url(#c)" opacity=".2"><path d="M32.959 33.625s-.915-1.088-3.25.167c-3.334 1.791-11.297 2.141-17.542.291-5.209-1.541-1.761-4.174 8.792-2.666 2.625.375 2.5 1.708-3.292 1.458-.849-.037 8.458.5 8.458.5l-2.458-3.25-16.709-.458-3.833 2.125L28.209 42.75l4.75-9.125z" fill="#66757f"/></g><path d="M13.783 27.904c-5.301 0-8.381.856-9.381 2.596-.617 1.075-.256 2.16.055 2.633a1.001 1.001 0 0 0 1.682-1.081.562.562 0 0 1 .008-.573c.288-.47 1.927-1.966 10.883-1.48 4.57.246 7.833 1.28 7.762 2-.073.75-2.723 1.158-7.774.8-1.56-.111-3.913-.348-3.976.2-.062.55 2.11.874 3.792 1.064 5.54.625 8.832.33 9.773-1.058.353-.521.39-1.153.102-1.734-.84-1.692-4.686-3.006-9.571-3.27a62.526 62.526 0 0 0-3.355-.097M15.276 20.168c-7.378 0-9.446 3.434-9.55 3.617a1 1 0 0 0 1.728 1.005c.064-.098 2.796-4.29 13.764-2.181.54.104 3.063.813 3.204.141.113-.54-1.766-1.287-2.297-1.437-2.875-.813-4.92-1.145-6.849-1.145" fill="#66757f"/><path d="M13.39 25.031c-.046.61 2.08.708 2.689.766 10.796 1.031 13.342 3.471 14.296 4.975.852 1.341.41 2.481.39 2.53a1.006 1.006 0 0 0 .54 1.301.995.995 0 0 0 1.3-.516c.036-.084.879-2.079-.496-4.315-2.023-3.29-7.077-4.882-15.921-5.413-.02 0-2.725-.268-2.797.672M18.83 13.032c-6.293 0-6.842 3.087-6.886 3.482a1.001 1.001 0 0 0 .883 1.105 1.006 1.006 0 0 0 1.1-.844c.03-.113.65-2.228 7.386-2.135.56.008 2.095.206 2.156-.343.062-.549-1.141-1.016-1.951-1.104a25.076 25.076 0 0 0-2.687-.16M18.422 18.188c.047.594 1.669.686 2.219.734 8.03.703 10.069 4.818 10.172 5 .268.479.873.654 1.357.389a.997.997 0 0 0 .395-1.351c-.12-.222-2.976-5.191-11.877-5.553-.014-.001-2.336-.108-2.266.78M17.063 5.906c-1.61.078-2.76.448-3.578 1.344-1.223 1.336-1.031 2.97-1.01 3.166a.989.989 0 0 0 1.098.89.997.997 0 0 0 .89-1.09c-.001-.033-.076-1.068.555-1.747.44-.472.95-.985 2.154-1.079 1.203-.093 1.672-.156 1.703-.547.065-.81-1.283-.962-1.812-.937" fill="#66757f"/><g><path d="M19.734 9.35c-.316 0-.64.009-.977.027-.55.03-1.756.369-1.726.92.03.552 1.316.602 1.86.64 6.124.438 7.741 3.26 7.813 3.395.255.483.857.678 1.343.428a.996.996 0 0 0 .441-1.332c-.087-.174-2.12-4.078-8.754-4.078" fill="#66757f"/></g></g><g clip-path="url(#d)" transform="matrix(1.25 0 0 -1.25 0 45)"><path d="M28.642 0c.01.083.025.164.025.25 0 .979-.652 1.795-1.542 2.064-.21 1.953-1.845 3.478-3.853 3.478a3.884 3.884 0 0 1-3.313-1.867c-.448.281-.974.45-1.543.45a2.905 2.905 0 0 1-2.546-1.521 2.861 2.861 0 0 1-2.078.896 2.83 2.83 0 0 1-.822-.134 2.72 2.72 0 0 1-1.171.504 4.098 4.098 0 0 1-7.841-.651c-.104.012-.205.031-.312.031a2.48 2.48 0 0 1-2.48-2.479c0-.365.084-.709.226-1.021h27.25z" fill="#ccd6dd"/></g></svg>