<svg xmlns="http://www.w3.org/2000/svg" viewBox="0 0 45 45"><defs><clipPath id="a"><path d="M0 36h36V0H0v36z"/></clipPath></defs><g clip-path="url(#a)" transform="matrix(1.25 0 0 -1.25 0 45)"><path d="M28 32c-.825 0-1.62-.125-2.369-.357A6.498 6.498 0 0 1 19.5 36c-3.044 0-5.592-2.096-6.299-4.921A4.459 4.459 0 0 1 10.5 32 4.5 4.5 0 0 1 6 27.5c0-.604.123-1.178.339-1.704A4.98 4.98 0 0 1 5 26a5 5 0 0 1-5-5 5 5 0 0 1 5-5h23a8 8 0 1 1 0 16" fill="#e1e8ed"/><path d="M11.999 11.04l-.113 3.42-2.87-1.708a1.965 1.965 0 0 1-1.036-1.799A2.033 2.033 0 0 1 10.056 9c1.11.023 1.98.936 1.943 2.04M10.02 3.58L9.907 7l-2.87-1.708a1.965 1.965 0 0 1-1.036-1.799A2.033 2.033 0 0 1 8.077 1.54c1.11.023 1.98.936 1.943 2.04M5.02 8.04l-.113 3.42-2.87-1.708a1.965 1.965 0 0 1-1.036-1.799A2.033 2.033 0 0 1 3.077 6c1.11.023 1.98.936 1.943 2.04M23.02 11.04l-.113 3.42-2.87-1.708a1.964 1.964 0 0 1-1.035-1.799A2.033 2.033 0 0 1 21.078 9a1.974 1.974 0 0 1 1.942 2.04M16.999 7.04l-.113 3.42-2.869-1.708a1.966 1.966 0 0 1-1.037-1.799A2.034 2.034 0 0 1 15.057 5a1.974 1.974 0 0 1 1.942 2.04M22.02 2.58L21.907 6l-2.87-1.708a1.964 1.964 0 0 1-1.035-1.799A2.032 2.032 0 0 1 20.078.54a1.974 1.974 0 0 1 1.942 2.04M28.999 8.04l-.113 3.42-2.869-1.708a1.966 1.966 0 0 1-1.037-1.799A2.034 2.034 0 0 1 27.057 6a1.974 1.974 0 0 1 1.942 2.04" fill="#5dadec"/></g></svg>