<svg xmlns="http://www.w3.org/2000/svg" viewBox="0 0 45 45"><defs><clipPath id="a"><path d="M0 36h36V0H0v36z"/></clipPath></defs><g clip-path="url(#a)" transform="matrix(1.25 0 0 -1.25 0 45)"><path d="M26.302 22.51l-.174.175-9.182 9.136c2.813-3.28 2.163-7.785-1.616-10.312-3.67-2.455-8.996-2.174-12.389.509l5.227-5.321 2.465-2.465c1.218-1.218 3.126-1.751 4.531-1.714 1.06.028 1.834.379 1.81 1.009-.016.363.188.652.526.882 1.086.736 3.604.828 5.107.527a3.391 3.391 0 0 1 1.396.013c1.332.286 2.393 1.352 3.034 2.6.648 1.265.867 2.705.511 3.69l-.01.036-1.236 1.236z" fill="#ffcc4d"/><path d="M19.014 18.53c-.389.388-1.118.487-1.629.22-.51-.268-.609-.8-.22-1.189.39-.39 1.118-.488 1.63-.22.51.267.608.8.22 1.188" fill="#ffac33"/><path d="M24.457 19.718c-.39.389-.901.27-1.145-.264-.243-.535-.125-1.284.265-1.673.389-.39.9-.271 1.144.264.243.535.125 1.284-.264 1.673" fill="#d99e82"/><path d="M21.903 24.092c-.268-.51-.799-.609-1.189-.22-.389.39-.487 1.118-.22 1.63.267.51.8.608 1.19.22.388-.39.486-1.119.22-1.63" fill="#ffac33"/><path d="M12.747 14.936c-.584-.195-1.372-.037-1.761.352-.39.389-.232.862.352 1.057.584.194 1.372.037 1.76-.352.39-.39.233-.862-.351-1.057" fill="#d99e82"/><path d="M24.003 14.95a3.386 3.386 0 0 0-1.395-.014c-1.503.3-4.022.21-5.108-.528l13.022-13.02c2.486.846 3.93 3.034 3.962 3.08L24.004 14.95zM33.86 14.918l.017.018-3.522 3.522c-1 2.113.775 3.433.071 4.137-.676.677-2.714-.027-4.123-.084l1.236-1.236c.373-.986.154-2.446-.502-3.725l8.928-8.927c.261 3.237-1.368 5.465-2.106 6.295" fill="#bdbdbd"/><path d="M15.165 12.518c-1.405-.037-3.313.496-4.531 1.713l-1.761 1.761c-.176-.528 0-1.409.353-1.76.704-.705-.705-3.522 2.112-4.93 1.89-.946 4.226 0 5.635-1.409 0 0 4.483-4.506 4.93-4.93.449-.427 2.335-1.864 4.9-2.084L15.166 12.52z" fill="#808285"/><path d="M17.5 14.409c-.338-.23-.542-.52-.527-.882.025-.63-.75-.98-1.809-1.008L26.804.878c2.162-.165 3.645.48 3.718.508L17.5 14.408z" fill="#a6a6a6"/><path d="M27.037 17.55c-.641-1.249-1.701-2.315-3.034-2.6l10.48-10.482c1.348 1.902 1.474 4.056 1.482 4.154l-8.928 8.928z" fill="#d8d8d8"/><path d="M3.155 28.593c.07.304.205.605.435.835.646.645 1.473 1.282 2.577 1.308.71.017 1.534-.09 2.501-.675l7.07-.059a5.992 5.992 0 0 1-.908 1.163c-2.529 2.53-7.035 2.936-10.066.91-1.43-.957-2.268-2.285-2.497-3.686.257.207.588.284.888.204M15.747 29.984l-.009.016h-.004l.013-.016M2.96 26.158c-.024.019-.053.028-.074.049a.976.976 0 0 0-.245.462 1.059 1.059 0 0 0-.378.189 4.85 4.85 0 0 0 0 1.502c-.169-1.076.026-2.19.598-3.216v.002c-.082.337-.058.694.098 1.012" fill="#ffac33"/><path d="M2.265 28.387c0-.009 0-.018-.002-.028l.005.03-.003-.002" fill="#c1694f"/><path d="M15.738 30l.009-.016c1.428-2.397.76-5.337-1.826-7.066-3.03-2.027-7.537-1.62-10.065.909a5.93 5.93 0 0 0-.995 1.317c-.572 1.025-.767 2.14-.598 3.215l.002.028.003.002c.229 1.401 1.066 2.729 2.497 3.685 3.03 2.027 7.537 1.62 10.065-.909.366-.365.663-.757.907-1.163m1.209 1.819c-.137.16-.274.32-.427.474-3.307 3.306-9.221 3.869-13.163 1.188-3.835-2.608-4.398-7.608-1.189-10.785a9.41 9.41 0 0 1 .774-.68c3.393-2.683 8.718-2.964 12.389-.509 3.779 2.527 4.43 7.032 1.616 10.312" fill="#ffe8b6"/><path d="M13.921 22.918c2.585 1.729 3.254 4.669 1.826 7.066l-.013.016h.004v.002l-7.07.059c-.967.584-1.79.692-2.5.675-1.105-.025-1.932-.662-2.578-1.308a1.703 1.703 0 0 1-.435-.835c-.3.08-.63.003-.888-.204 0-.01-.003-.02-.004-.03a4.85 4.85 0 0 1 0-1.501c.115-.088.242-.154.378-.19a.968.968 0 0 1 .245-.461c.021-.021.05-.03.073-.05a1.494 1.494 0 0 1-.099-1.011l.001-.002c.257-.461.583-.905.994-1.317 2.53-2.53 7.036-2.936 10.066-.91" fill="#c1694f"/><path d="M8.668 29.85l7.28-.27a4.68 4.68 0 0 1-.485.833c-2.6 1.921-6.547 2.087-9.29.253l-.006-.035c.71.016 1.534-.197 2.501-.78" fill="#f4900c"/><path d="M6.408 26.91a.996.996 0 1 0-1.41 1.41.996.996 0 0 0 1.41-1.41M8.168 24.445a1.494 1.494 0 1 0-2.112 2.112 1.494 1.494 0 0 0 2.112-2.112M10.634 24.092a.996.996 0 1 0-1.41 1.41.996.996 0 0 0 1.41-1.41M4.647 27.966a.497.497 0 1 0-.704.704.497.497 0 1 0 .704-.704M8.52 21.98a.996.996 0 1 0-1.408 1.409.996.996 0 0 0 1.409-1.41" fill="#d99e82"/><path d="M7.464 29.375a1.494 1.494 0 1 0-2.113 2.113 1.494 1.494 0 0 0 2.113-2.113" fill="#ffd983"/><path d="M10.634 22.684a.99.99 0 1 1-1.636-1.035 8.649 8.649 0 0 1 1.882.097.98.98 0 0 1-.246.938" fill="#d99e82"/><path d="M16.269 28.319a.996.996 0 0 1-1.41 0 .978.978 0 0 1-.253-.45.978.978 0 0 1-.45-.254.996.996 0 0 1 0 1.409.991.991 0 0 1 .01 1.397l-.016.016a.993.993 0 0 1-1.402-.005.971.971 0 0 1-.461.244.961.961 0 0 1-.244.46.991.991 0 0 1-.851.277c-.06.413-.24.813-.558 1.131a1.99 1.99 0 0 1-2.817 0 1.99 1.99 0 0 1 0-2.817 1.982 1.982 0 0 1 1.958-.498c.043-.073.092-.144.155-.207a.995.995 0 0 1 0-1.408.99.99 0 0 1 .826-.28 1.37 1.37 0 0 1 .318-.513 1.37 1.37 0 0 1 1.465-.307.996.996 0 0 1 .208-.309.996.996 0 0 1 1.409-1.409c.075-.074.16-.13.249-.176l.03-.016a.994.994 0 0 1 1.13 1.601.998.998 0 0 1 .21.318c.002.04 0 .08 0 .12a.994.994 0 0 1 .494 1.675" fill="#77b255"/><path d="M15.212 27.262a.497.497 0 1 0-.704.704.497.497 0 1 0 .704-.704" fill="#a6d388"/><path d="M13.451 22.684a.996.996 0 1 0-1.409 1.409.996.996 0 0 0 1.41-1.41" fill="#ffd983"/><path d="M12.395 26.558a1.489 1.489 0 0 1-1.797.234 1.486 1.486 0 0 1-.786.786 1.489 1.489 0 0 1-.234 1.797 1.493 1.493 0 1 1-1.643-2.428 1.49 1.49 0 0 1 .234-1.798 1.489 1.489 0 0 1 1.797-.234 1.493 1.493 0 1 1 2.429 1.643" fill="#ffd983"/><path d="M11.338 24.797a1.246 1.246 0 1 0-1.76 1.762 1.246 1.246 0 0 0 1.76-1.762M9.577 27.262a.747.747 0 1 0-1.057 1.056.747.747 0 0 0 1.057-1.056M8.168 28.67a.747.747 0 1 0-1.056 1.057.747.747 0 0 0 1.056-1.056" fill="#ffe8b6"/><path d="M8.873 30.784a.497.497 0 1 0-.704.704.497.497 0 1 0 .704-.704" fill="#a6d388"/><path d="M15.564 29.023a.996.996 0 1 0-1.409 1.41.996.996 0 0 0 1.41-1.41" fill="#77b255"/><path d="M14.86 26.91a.996.996 0 1 0-1.41 1.41.996.996 0 0 0 1.41-1.41" fill="#a6d388"/><path d="M13.099 30.08a1.487 1.487 0 0 1-.77.41.992.992 0 0 1-1.695.646.996.996 0 1 1 0-1.409c.021-.022.046-.037.069-.057a1.487 1.487 0 0 1 .283-1.704 1.493 1.493 0 1 1 2.113 2.113" fill="#a6d388"/><path d="M10.986 31.488a.747.747 0 1 0-1.057 1.056.747.747 0 0 0 1.057-1.056M15.212 28.67a.747.747 0 1 0-1.057 1.057.747.747 0 0 0 1.057-1.056M14.86 25.501a.996.996 0 1 0-1.41 1.41.996.996 0 0 0 1.41-1.41" fill="#dd2e44"/><path d="M13.451 32.545a.996.996 0 0 1-1.409-1.41.995.995 0 1 1 1.41 0 .996.996 0 0 1 0 1.41" fill="#77b255"/><path d="M12.747 29.023a.996.996 0 1 0-1.41 1.41.996.996 0 0 0 1.41-1.41M13.803 31.488a.497.497 0 1 0-.704.704.497.497 0 1 0 .704-.704" fill="#dd2e44"/></g></svg>