<svg xmlns="http://www.w3.org/2000/svg" viewBox="0 0 45 45"><defs><clipPath id="a"><path d="M0 36h36V0H0v36z"/></clipPath></defs><g clip-path="url(#a)" transform="matrix(1.25 0 0 -1.25 0 45)"><path d="M33.535 33.535a5 5 0 0 1-7.07 0l-1.197-1.198 2.842-2.843a1 1 0 0 0-1.415-1.413l-2.84 2.84-2.11-2.11 2.84-2.84a.999.999 0 1 0-1.414-1.415l-2.839 2.84-2.12-2.124 2.837-2.837a1 1 0 1 0-1.414-1.415L16.8 23.857l-2.12-2.122 2.835-2.836a.999.999 0 1 0-1.414-1.414l-2.835 2.835-2.12-2.123 2.833-2.833a.999.999 0 1 0-1.414-1.414l-2.832 2.832-1.783-1.785A6.999 6.999 0 0 1 8 1 6.996 6.996 0 0 1 14.994 7.9l18.542 18.564a5 5 0 0 1 0 7.072" fill="#ccd6dd"/><path d="M30.938 30.909a2 2 0 0 1-2.828 0L9.045 11.844c-1.338.362-2.823.035-3.873-1.015a4 4 0 1 1 5.656-5.657C11.867 6.21 12.199 7.674 11.857 9l19.081 19.08a2 2 0 0 1 0 2.829" fill="#dd2e44"/><path d="M13.272 13.657a.999.999 0 0 1 .707 1.707l-2.833 2.833-1.414-1.415 2.833-2.832a.997.997 0 0 1 .707-.293M16.808 17.192a.999.999 0 0 1 .707 1.707l-2.836 2.836-1.413-1.415 2.835-2.835a.997.997 0 0 1 .707-.293M20.343 20.728a.999.999 0 0 1 .707 1.707l-2.837 2.838-1.414-1.415 2.837-2.837a.997.997 0 0 1 .707-.293M23.879 24.264a.999.999 0 0 1 .707 1.707l-2.841 2.84-1.413-1.415 2.84-2.84a.997.997 0 0 1 .707-.292M27.402 27.787a.999.999 0 0 1 .707 1.707l-2.842 2.843-1.413-1.415 2.841-2.842a.997.997 0 0 1 .707-.293" fill="#292f33"/></g></svg>