<svg xmlns="http://www.w3.org/2000/svg" viewBox="0 0 45 45"><defs><clipPath id="a"><path d="M0 36h36V0H0v36z"/></clipPath></defs><g clip-path="url(#a)" transform="matrix(1.25 0 0 -1.25 0 45)"><path d="M33.052 15.748c0-1.783-1.431-3.227-3.197-3.227-1.767 0-3.198 1.444-3.198 3.227 0 1.782 1.43 3.229 3.198 3.229 1.766 0 3.197-1.447 3.197-3.229" fill="#bbddf5"/><path d="M35.833 13.435a2.78 2.78 0 1 0-5.562 0 2.78 2.78 0 0 0 5.562 0" fill="#bbddf5"/><path d="M34.595 8.928a3.188 3.188 0 1 0-6.375-.001 3.188 3.188 0 0 0 6.375 0" fill="#bbddf5"/><path d="M30.27 8.712c0-.88-.996-1.592-2.225-1.592-1.228 0-2.223.713-2.223 1.592 0 .878.995 1.59 2.223 1.59 1.23 0 2.225-.712 2.225-1.59M29.023 14.49s-2.968-.952-5.789-.505c2.48-1.87 6.845-.998 6.845-.998l-1.056 1.502z" fill="#bbddf5"/><path d="M29.22 12.665c-.086-.02-3.001-.551-7.036-.144 1.222-1.227 6.482-1.359 7.437-1.034.954.326-.4 1.178-.4 1.178M29.907 8.665s-2.422 1.123-6.673 1.988c2.896.836 7.366-.2 7.824-.865.46-.665-1.15-1.123-1.15-1.123" fill="#bbddf5"/><path d="M32.463 11.708c0-2.275-1-4.12-2.232-4.12-1.234 0-2.234 1.845-2.234 4.12 0 2.277 1 4.122 2.234 4.122 1.233 0 2.232-1.845 2.232-4.122" fill="#bbddf5"/><path d="M1.902 27.875s2.803-2.014 5.365-.19c4.217 3.003 8.741 3.165 11.14 1.889 2.685-1.428 4.563-4.921 3.104-7.545-1.792-3.23-.55-4.065.6-4.608 1.186-.562-.338-1.86-1.008-2.018-.668-.16.297-1.501 1.04-1.501-.233-.925-.643-1.348-1.05-1.539.612-.352.868-1.495.484-1.578-.814-.176-1.49-.523-1.77-1.156-1.684-3.818-3.475 1.509-7.987-1.268-4.897-3.012-9.855 2.424-7.298 6.395-3.307.658-4.104 4.176-1.808 6.057-2.562 1.375-3.187 5.625-.812 7.062" fill="#ccd6dd"/><path d="M1.636 19.354s-1.492-3.71 2.886-4.598c3.52-.713 5.645 1.912 5.645 1.912s-2.796-1.832-5.75-.645c-2.955 1.186-2.78 3.33-2.78 3.33M1.902 27.875S.042 27 .208 24.375C.375 21.75 2.375 20.084 4.75 21c-3.708.458-5.25 4.542-2.848 6.875" fill="#99aab5"/><path d="M4.522 14.756s-1.853-2.135 0-5.133S9.549 7.399 10.348 7.7c-5.139-.772-6.749 5.233-4.569 6.933 2.18 1.7-1.257.123-1.257.123M22.143 13.902s-.471-.87-1.674-.934c-.542-.028.07-.67.624-.605.434.051.78.44 1.05 1.54M21.66 10.839c.164.142-.535.54-1.129.304-.594-.237-.777-1.994-1.443-2.623 1.084 1.12.797 1.59 1.677 1.94.468.188.727.234.895.379M22.545 16.833s.006-1.048-1.613-1.534c-1.62-.487-.941.508-.088.576 1.469.117 1.699.96 1.7.958M20.167 18.541s.097.722-.13 1.266c-.167.402-.037-.573-.949-1.023-.985-.486-2.072-.534-2.072-.534s1.968-.844 3.151.291M22.019 23.968s.325-3.562-3.675-3.718c-4-.157-7.47 3.718-7.47 3.718s3.72-3.25 7.5-2.968c3.783.281 3.645 2.968 3.645 2.968" fill="#99aab5"/><path d="M16.792 20.746s-1.417-2.454-5.5-2.496c-4.084-.042-4.459 3.541-4.459 3.541s.955-3.404 5.25-2.883c2.917.354 3.709 2.133 3.709 2.133l1-.295z" fill="#99aab5"/></g></svg>