<svg xmlns="http://www.w3.org/2000/svg" viewBox="0 0 45 45"><defs><clipPath id="a"><path d="M0 36h36V0H0v36z"/></clipPath></defs><g clip-path="url(#a)" transform="matrix(1.25 0 0 -1.25 0 45)"><path d="M28 32c-.825 0-1.62-.125-2.369-.357A6.498 6.498 0 0 1 19.5 36c-3.044 0-5.592-2.096-6.299-4.921A4.459 4.459 0 0 1 10.5 32 4.5 4.5 0 0 1 6 27.5c0-.604.123-1.178.339-1.704A4.98 4.98 0 0 1 5 26a5 5 0 0 1-5-5 5 5 0 0 1 5-5h23a8 8 0 1 1 0 16" fill="#e1e8ed"/><path d="M4 4.5a.5.5 0 0 0-1 0v6a.5.5 0 0 0 1 0v-6z" fill="#5dadec"/><path d="M6.348 6.433a.5.5 0 0 0-.5-.866l-5.196 3a.5.5 0 1 0 .5.866l5.196-3z" fill="#5dadec"/><path d="M.651 6.433a.5.5 0 0 1 .5-.866l5.196 3a.5.5 0 1 1-.5.866l-5.196-3zM14 .5a.5.5 0 0 0-1 0v6a.5.5 0 0 0 1 0v-6z" fill="#5dadec"/><path d="M16.348 2.433a.5.5 0 0 0-.5-.866l-5.196 3a.5.5 0 1 0 .5.866l5.196-3z" fill="#5dadec"/><path d="M10.651 2.433a.5.5 0 0 1 .5-.866l5.196 3a.5.5 0 1 1-.5.866l-5.196-3zM12 8.5a.5.5 0 0 0-1 0v6a.5.5 0 0 0 1 0v-6z" fill="#5dadec"/><path d="M14.348 10.433a.5.5 0 0 0-.5-.866l-5.196 3a.5.5 0 1 0 .5.866l5.196-3z" fill="#5dadec"/><path d="M8.651 10.433a.5.5 0 0 1 .5-.866l5.196 3a.5.5 0 1 1-.5.866l-5.196-3zM22 7.5a.5.5 0 0 0-1 0v6a.5.5 0 0 0 1 0v-6z" fill="#5dadec"/><path d="M24.348 9.433a.5.5 0 0 0-.5-.866l-5.196 3a.5.5 0 1 0 .5.866l5.196-3z" fill="#5dadec"/><path d="M18.651 9.433a.5.5 0 0 1 .5-.866l5.196 3a.5.5 0 1 1-.5.866l-5.196-3zM32 8.5a.5.5 0 0 0-1 0v6a.5.5 0 0 0 1 0v-6z" fill="#5dadec"/><path d="M34.348 10.433a.5.5 0 0 0-.5-.866l-5.196 3a.5.5 0 1 0 .5.866l5.196-3z" fill="#5dadec"/><path d="M28.651 10.433a.5.5 0 0 1 .5-.866l5.196 3a.5.5 0 1 1-.5.866l-5.196-3zM27 .5a.5.5 0 0 0-1 0v6a.5.5 0 0 0 1 0v-6z" fill="#5dadec"/><path d="M29.348 2.433a.5.5 0 0 0-.5-.866l-5.196 3a.5.5 0 1 0 .5.866l5.196-3z" fill="#5dadec"/><path d="M23.651 2.433a.5.5 0 0 1 .5-.866l5.196 3a.5.5 0 1 1-.5.866l-5.196-3z" fill="#5dadec"/></g></svg>