<svg xmlns="http://www.w3.org/2000/svg" viewBox="0 0 45 45"><defs><clipPath id="a"><path d="M0 36h36V0H0v36z"/></clipPath></defs><g clip-path="url(#a)" transform="matrix(1.25 0 0 -1.25 0 45)"><path d="M19.602 3.67c6.509-6.505 17.254 7.67 15.72 7.67-7.668 0-22.226-1.161-15.72-7.67" fill="#77b255"/><path d="M15.645 2.628C9.613-3.404-.07 9.737 1.353 9.737c3.81 0 9.374.349 12.789-.867 2.958-1.052 4.304-3.441 1.503-6.242" fill="#77b255"/><path d="M34.613 20.246c-.052.901-.175 2.585-1.398 4.227-1.16 1.55-3.805 3.371-5.535 2.585.516 1.676-.263 4.125-1.19 5.49-1.18 1.737-4.263 3.843-8.147 3.027-1.754-.37-4.18-2.036-4.632-3.865-1.18 1.472-4.22 1.675-6.015 1.222-2.025-.51-3.153-1.777-3.739-2.46l.004.004-.03-.034-.027-.033c-.583-.689-1.656-1.994-1.847-4.074-.193-2.146.75-5.832 3.026-6.042.15-.014.323-.03.513-.05-2.27-.099-3.572-3.655-3.594-5.8-.023-2.102.926-3.507 1.443-4.244l-.003.004a.23.23 0 0 0 .025-.036c.007-.01.02-.023.026-.036.523-.733 1.525-2.094 3.515-2.777 1.958-.669 5.553-.656 6.566 1.237-.272-2.244 3.028-4.077 5.17-4.439 2.115-.358 3.71.358 4.55.753l-.005-.003a.398.398 0 0 0 .041.021l.041.02c.838.4 2.397 1.177 3.462 3.04.728 1.282 1.27 3.403.951 5.014l.192-.127c1.826-1.224 4.63 1.12 5.705 2.938 1.043 1.763.932 4.426.932 4.438" fill="#f4abba"/><path d="M27.542 22.459c-1.786.997-4.874.434-6.792-.308a3.878 3.878 0 0 1-1.051 1.196c1.393 1.607 3.527 4.593 1.468 6.362-2.191 1.883-3.74-2.154-3.575-5.605-.068.003-.132.02-.2.02-1.02 0-1.94-.402-2.632-1.045-1.402 2.276-3.943 4.243-5.314 2.391-1.482-2.002 1.149-3.153 4.222-4.199a3.862 3.862 0 0 1-.154-1.026c0-.456.093-.887.237-1.293-2.54-.733-6.236-2.718-4.21-4.91 2.122-2.296 4.472 1.238 5.604 3.052a3.847 3.847 0 0 1 2.247-.727c.224 0 .44.03.655.066-.11-4.802 1.443-7.07 4.036-5.89 2.295 1.042-.137 5.297-1.781 7.164.316.362.564.78.729 1.241 7.008-2.544 8.589 2.351 6.511 3.51" fill="#ea596e"/><path d="M17.707 18.541c-.679 0-.668.562-.832 1.251-.532 2.233-2.381 6.308-4.601 9.162a1.5 1.5 0 0 0 2.369 1.842c2.438-3.136 3.263-7.404 3.982-10.421.191-.806.237-1.601-.569-1.792a1.5 1.5 0 0 0-.349-.042" fill="#be1931"/><path d="M15.904 30.673c.498-.684.08-1.838-.936-2.578l-.475-.346c-1.016-.74-2.242-.785-2.74-.101L8.97 31.464c-.498.684-.079 1.838.937 2.578l.475.346c1.015.74 2.242.785 2.74.1l2.781-3.815z" fill="#ffcc4d"/></g></svg>