<svg xmlns="http://www.w3.org/2000/svg" viewBox="0 0 45 45"><defs><clipPath id="a"><path d="M0 36h36V0H0v36z"/></clipPath></defs><g clip-path="url(#a)" transform="matrix(1.25 0 0 -1.25 0 45)"><path d="M36 11c0-4-8.059-11-18-11S0 7 0 11c0 19 17 25 18 25s18-6 18-25" fill="#c1694f"/><path d="M3.002 6.615a1 1 0 0 0-.99 1.148c.134.895 3.43 21.97 15.535 28.128a1 1 0 1 0 .907-1.782C7.268 28.417 4.02 7.675 3.989 7.467a.999.999 0 0 0-.987-.852" fill="#a95233"/><path d="M32.999 6.615a1 1 0 0 0-.988.852c-.032.208-3.278 20.95-14.465 26.642a.999.999 0 1 0 .907 1.782C30.56 29.732 33.854 8.658 33.989 7.763a1 1 0 0 0-.99-1.148" fill="#a95233"/><path d="M12.001 3l-.054.001a1.001 1.001 0 0 0-.946 1.052c.054.999 1.356 24.544 6.176 31.516a1.001 1.001 0 0 0 1.645-1.138c-4.499-6.508-5.811-30.245-5.824-30.484A.999.999 0 0 0 12.001 3" fill="#a95233"/><path d="M23.999 3c-.527 0-.969.413-.998.947-.013.239-1.324 23.976-5.824 30.484a1.001 1.001 0 0 0 1.645 1.138c4.82-6.972 6.123-30.517 6.177-31.516a1.002 1.002 0 0 0-.946-1.052L23.999 3" fill="#a95233"/><path d="M36 11c0-4-8.059-11-18-11S0 7 0 11c3-4 10-7 18-7s15 3 18 7" fill="#662113"/></g></svg>