<svg xmlns="http://www.w3.org/2000/svg" viewBox="0 0 45 45"><defs><clipPath id="a"><path d="M0 36h36V0H0v36z"/></clipPath></defs><g clip-path="url(#a)" transform="matrix(1.25 0 0 -1.25 0 45)"><path d="M4.042 8.084c4.89-.551 9.457 1.625 13.47 5.946 4.812 5.182 5 13 5 14s11.31 3.056 11-5c-.428-11.196-7.428-20.946-19.916-21.916-5.982-.465-9.68.928-11.387 2.345-2.69 2.231-.75 4.916 1.833 4.625" fill="#da2f47"/><path d="M21.333 27.417c.446 1.553 3.311 3.827 7.167 2.958 4.25-.958 6.013-2.97 6.013-6.636 0-3.667-3.597-.489-4.097.636-.5 1.125-2.583-2.25-4.403 1.28-.616 1.194-5.462-.96-4.68 1.762" fill="#77b255"/><path d="M26.229 34.494c1.138-1.16 3.035-2.732 2.205-5.266-.831-2.534 1.277-2.491 1.799-.951.52 1.539.677 4.85-.435 6.33-1.111 1.479-4.43.765-3.57-.113" fill="#77b255"/></g></svg>