<svg xmlns="http://www.w3.org/2000/svg" viewBox="0 0 45 45"><defs><clipPath id="a"><path d="M0 36h36V0H0v36z"/></clipPath></defs><g clip-path="url(#a)" transform="matrix(1.25 0 0 -1.25 0 45)"><path d="M22 3c0-2.209-1.791-3-4-3s-4 .791-4 3l1 9c0 2.209.791 2 3 2s3 .209 3-2l1-9z" fill="#662113"/><path d="M31.406 8.703C24.443 14.668 21.623 23.21 18 23.21c-3.624 0-6.444-8.54-13.406-14.506-2.925-2.507-1.532-3.957 2.48-3.667 3.575.258 6.92 1.07 10.926 1.07 4.007 0 7.351-.812 10.926-1.07 4.011-.29 5.405 1.16 2.48 3.667" fill="#5c913b"/><path d="M29.145 11.066C23.794 15.972 20.788 23 18 23c-2.784 0-5.792-7.028-11.143-11.934-4.252-3.898 5.572-4.773 11.143 0 5.57-4.773 15.396-3.898 11.145 0" fill="#3e721d"/><path d="M29.145 15.041C23.794 19.625 20.788 26.189 18 26.189c-2.784 0-5.792-6.564-11.143-11.148-4.252-3.642 5.572-4.459 11.143 0 5.57-4.459 15.396-3.642 11.145 0" fill="#5c913b"/><path d="M26.7 18.297C22.523 21.876 20.176 27 18 27c-2.174 0-4.523-5.124-8.7-8.703-3.32-2.844 4.35-3.482 8.7 0 4.348-3.482 12.02-2.844 8.7 0" fill="#3e721d"/><path d="M26.7 21.274c-4.177 3.58-6.524 8.703-8.7 8.703-2.174 0-4.523-5.124-8.7-8.703-3.32-2.844 4.35-3.48 8.7 0 4.348-3.48 12.02-2.844 8.7 0" fill="#5c913b"/><path d="M25.021 23.919c-3.37 2.888-5.266 7.024-7.02 7.024-1.756 0-3.65-4.136-7.023-7.024-2.679-2.295 3.511-2.81 7.022 0 3.51-2.81 9.701-2.295 7.021 0" fill="#3e721d"/><path d="M25.021 26.16c-3.37 2.889-5.266 7.025-7.02 7.025-1.756 0-3.65-4.136-7.023-7.024-2.679-2.295 3.511-2.81 7.022 0 3.51-2.81 9.701-2.295 7.021 0" fill="#5c913b"/><path d="M23.343 29.46c-2.564 2.197-4.007 5.345-5.343 5.345-1.335 0-2.778-3.148-5.343-5.345-2.038-1.747 2.672-2.138 5.343 0 2.67-2.138 7.382-1.747 5.343 0" fill="#3e721d"/><path d="M23.343 30.655C20.779 32.852 19.336 36 18 36c-1.335 0-2.778-3.148-5.343-5.345-2.038-1.747 2.672-2.138 5.343 0 2.67-2.138 7.382-1.747 5.343 0" fill="#5c913b"/></g></svg>