<svg xmlns="http://www.w3.org/2000/svg" viewBox="0 0 45 45"><defs><clipPath id="a"><path d="M0 36h36V0H0v36z"/></clipPath></defs><g clip-path="url(#a)" transform="matrix(1.25 0 0 -1.25 0 45)"><path d="M34.751 14c-3.382 0-11.9-3.549-15.751-7.158V19a1 1 0 1 1-2 0V6.659C13.247 10.331 4.491 14 1.052 14 .123 14 11.913.008 17 1.401V1a1 1 0 1 1 2 0v.356C24.188.362 35.668 14 34.751 14" fill="#77b255"/><path d="M25 22.584C25 16.233 23.293 13 18 13c-5.294 0-7 3.232-7 9.583C11 28.934 16 36 18 36s7-7.066 7-13.417" fill="#ea596e"/><path d="M22.795 34c-.48 0-4.106-14.271-4.803-19.279C17.246 19.729 13.48 34 13 34c-1 0-6-9-6-13s5.707-8 11-8 10.795 4 10.795 8-5 13-6 13" fill="#f4abba"/></g></svg>