<svg xmlns="http://www.w3.org/2000/svg" viewBox="0 0 45 45"><defs><clipPath id="a"><path d="M0 36h36V0H0v36z"/></clipPath></defs><g clip-path="url(#a)" transform="matrix(1.25 0 0 -1.25 0 45)"><path d="M19.32 10.642c-.113 0-.217-.003-.32-.005v.415c4.804.479 8.548 4.264 8.548 7.3 0 3.25 0-1.47-9.562-1.47-9.558 0-9.558 4.72-9.558 1.47 0-3.042 3.757-6.837 8.572-7.304v-.411c-.104.002-.207.005-.32.005-2.554 0-6.604 2.05-6.604 1.32 0-.645 4.186-4.016 6.924-4.796V1a1 1 0 1 1 2 0v6.166c2.738.78 6.924 4.15 6.924 4.796 0 .73-4.05-1.32-6.604-1.32" fill="#3e721d"/><path d="M26.527 28.647c-3.887 4.412 1.506 5.882-2.592 5.882-.713 0-1.92-.44-3.29-1.189C19.951 34.912 19.023 36 18 36c-2.05 0-3.726-4.342-3.873-8.27-1.109-1.543-1.855-3.234-1.855-4.965 0-6.092 2.59-8.824 6.48-8.824 7.775 0 13.642 8.048 7.775 14.706" fill="#a0041e"/><path d="M23.727 22.765c0-6.092-2.59-8.823-6.48-8.823-7.775 0-13.643 8.048-7.775 14.705 3.888 4.412-1.506 5.883 2.592 5.883 2.592 0 11.663-5.674 11.663-11.765" fill="#be1931"/></g></svg>