<svg xmlns="http://www.w3.org/2000/svg" viewBox="0 0 45 45"><defs><clipPath id="a"><path d="M0 36h36V0H0v36z"/></clipPath><clipPath id="b"><path d="M18 28c-2.209 0-3 .209-3-2L14 4c0-2.209 1.791-3 4-3s4 .791 4 3l-1 22c0 1.858-.56 2.005-2.051 2.005-.282 0-.598-.005-.949-.005"/></clipPath><clipPath id="c"><path d="M0 36h36V0H0v36z"/></clipPath></defs><g clip-path="url(#a)" transform="matrix(1.25 0 0 -1.25 0 45)"><path d="M20.94 33.53A12.123 12.123 0 0 1 18 31.313a12.15 12.15 0 0 1-2.94 2.217c-5.697 3.105-9.91.524-9.725-.76.187-1.284 3.666 1.845 7.717-3.466 1.596-2.093 2.886-3.561 3.973-4.175.28-.213.575-.315.887-.32.03-.002.058 0 .088 0 .03 0 .057-.002.086 0 .313.005.608.107.887.319 1.088.615 2.377 2.083 3.974 4.176 4.051 5.31 7.53 2.182 7.717 3.467.185 1.283-4.028 3.864-9.725.759" fill="#3e721d"/><path d="M22 4c0-2.209-1.791-3-4-3s-4 .791-4 3l1 22c0 2.209.791 2 3 2s3 .209 3-2l1-22z" fill="#d99e82"/></g><g clip-path="url(#b)" transform="matrix(1.25 0 0 -1.25 0 45)"><path d="M18 3c-2.89 0-6 .899-6 2.875a1 1 0 0 0 1.997.075C14.228 5.648 15.608 5 18 5c2.392 0 3.773.648 4.003.95A1 1 0 0 0 24 5.875C24 3.899 20.89 3 18 3M18 8c-2.89 0-6 .899-6 2.875a1 1 0 0 0 1.997.075c.231-.302 1.611-.95 4.003-.95 2.392 0 3.773.648 4.003.95A1 1 0 0 0 24 10.875C24 8.899 20.89 8 18 8M18 13c-2.89 0-6 .899-6 2.875a1 1 0 0 0 1.997.075c.231-.302 1.611-.95 4.003-.95 2.392 0 3.773.648 4.003.95A1 1 0 0 0 24 15.875C24 13.899 20.89 13 18 13M18 18c-2.89 0-6 .899-6 2.875a1 1 0 0 0 1.997.075c.231-.302 1.611-.95 4.003-.95 2.392 0 3.773.648 4.003.95A1 1 0 0 0 24 20.875C24 18.899 20.89 18 18 18M18 23c-2.89 0-6 .899-6 2.875a1 1 0 0 0 1.997.075c.231-.302 1.611-.95 4.003-.95 2.392 0 3.773.648 4.003.95A1 1 0 0 0 24 25.875C24 23.899 20.89 23 18 23" fill="#c1694f"/></g><g clip-path="url(#c)" transform="matrix(1.25 0 0 -1.25 0 45)"><path d="M27 32c-4.445.635-8.193-.891-8.878-3.227-.043-.018-.08-.041-.122-.06-.042.019-.08.042-.122.06C17.193 31.109 13.445 32.635 9 32c-7-1-9-6-8-7s2 4 9 2l.059-.017c-.161-.11-.322-.218-.481-.338-5.654-4.246-5-9.591-3.643-9.987 1.358-.395-.172 4.469 6.926 6.086 2.22.505 3.961.997 5.139 1.578 1.178-.581 2.919-1.073 5.139-1.578 7.098-1.617 5.568-6.481 6.925-6.086 1.358.396 2.012 5.741-3.642 9.987-.159.12-.32.228-.482.338L26 27c7 2 8-3 9-2s-1 6-8 7" fill="#5c913b"/></g></svg>