<svg xmlns="http://www.w3.org/2000/svg" viewBox="0 0 45 45"><defs><clipPath id="a"><path d="M0 36h36V0H0v36z"/></clipPath><clipPath id="b"><path d="M5.391 13.349c-.595-2.973.086-4.667.825-5.697-.014-.057-.018-.103.007-.125.119-.122.262-.264.428-.413.145-.159.283-.3.402-.421.022-.019.067-.014.115-.004 1.071-.796 2.85-1.582 5.86-.979 16.639 3.327 19.286 22.31 19.286 23.973 0 0-.144 1.727-.781 2.253-.435.545-2.017.546-2.017.546-1.665 0-20.799-2.496-24.125-19.133"/></clipPath><clipPath id="c"><path d="M0 36h36V0H0v36z"/></clipPath></defs><g clip-path="url(#a)" transform="matrix(1.25 0 0 -1.25 0 45)"><path d="M15.373 34.978c-1.663-1.664-6.655-8.318-4.159-14.142 2.495-5.823 5.909-2.239 7.486 2.495.832 2.496.832 5.824-.831 10.815-.832 2.496-2.496.832-2.496.832M34.677 15.674c-1.663-1.663-8.32-6.655-14.142-4.16-5.823 2.497-2.24 5.909 2.496 7.487 2.496.832 5.823.833 10.814-.831 2.495-.832.832-2.496.832-2.496" fill="#5c913b"/><path d="M32.315 29.683s-.145 1.727-.781 2.253c-.436.546-2.018.546-2.018.546-1.664 0-20.798-2.495-24.125-19.133-.595-2.973.086-4.666.826-5.697-.015-.057-.018-.103.006-.125.12-.121.263-.264.428-.413.145-.16.284-.3.403-.42.022-.02.067-.015.114-.005 1.07-.795 2.85-1.581 5.86-.978 16.64 3.326 19.285 22.309 19.287 23.972" fill="#f4900c"/></g><g clip-path="url(#b)" transform="matrix(1.25 0 0 -1.25 0 45)"><path d="M24.769 25.565a1.144 1.144 0 0 0-1.617 0l-1.618 1.618a1.143 1.143 0 1 0 1.618 1.617l1.617-1.617a1.146 1.146 0 0 0 0-1.618M16.681 25.565a1.144 1.144 0 0 0-1.617 0l-1.618 1.618a1.144 1.144 0 0 0 1.618 1.617l1.617-1.617a1.144 1.144 0 0 0 0-1.618M19.107 27.992a1.143 1.143 0 0 0-1.617 0l-1.618 1.617a1.143 1.143 0 1 0 1.618 1.617l1.617-1.617a1.144 1.144 0 0 0 0-1.617M14.256 23.14a1.147 1.147 0 0 0-1.62 0l-1.615 1.617a1.143 1.143 0 1 0 1.616 1.617l1.619-1.617a1.146 1.146 0 0 0 0-1.618M27.194 27.992a1.143 1.143 0 0 0-1.617 0L23.96 29.61a1.143 1.143 0 1 0 1.617 1.617l1.617-1.617a1.144 1.144 0 0 0 0-1.617M29.617 30.383a1.143 1.143 0 0 0-1.617 0L26.383 32a1.14 1.14 0 0 0 0 1.617 1.14 1.14 0 0 0 1.617 0L29.617 32a1.144 1.144 0 0 0 0-1.617M22.343 23.14a1.146 1.146 0 0 0-1.618 0l-1.617 1.617a1.143 1.143 0 1 0 1.617 1.617l1.618-1.617a1.146 1.146 0 0 0 0-1.618M19.915 20.713a1.144 1.144 0 0 0-1.617 0l-1.617 1.618a1.144 1.144 0 0 0 1.617 1.617l1.617-1.617a1.144 1.144 0 0 0 0-1.618M15.064 15.861a1.146 1.146 0 0 0-1.618 0l-1.617 1.618a1.143 1.143 0 1 0 1.617 1.617l1.618-1.617a1.145 1.145 0 0 0 0-1.618M17.49 18.287a1.146 1.146 0 0 0-1.618 0l-1.616 1.617a1.142 1.142 0 0 0 0 1.618c.446.447 1.17.447 1.616 0l1.618-1.618a1.143 1.143 0 0 0 0-1.617" fill="#f7b82d"/></g><g clip-path="url(#c)" transform="matrix(1.25 0 0 -1.25 0 45)"><path d="M27.866 12.426C20.741 14.8 12.77 11.775 8.448 8.85c2.925 4.32 5.95 12.294 3.576 19.418-.933 2.8-5.6 5.6-8.402 2.8-.934-.933-1.867-1.867 0-1.867s4.667-2.8 3.735-5.6C6.521 21.096.468 14.859 3.203 8.226a2.353 2.353 0 0 1-.743-.5l-.715-.713a2.355 2.355 0 0 1 0-3.33l.715-.715c.92-.92 2.41-.92 3.328 0l.716.716c.123.123.226.258.316.398 7-3.84 13.747 2.799 16.38 3.677 2.8.933 5.6-1.868 5.6-3.734 0-1.868.932-.934 1.866 0 2.801 2.799 0 7.469-2.8 8.4" fill="#77b255"/></g></svg>