<svg xmlns="http://www.w3.org/2000/svg" viewBox="0 0 45 45"><defs><clipPath id="a"><path d="M0 36h36V0H0v36z"/></clipPath></defs><g clip-path="url(#a)" transform="matrix(1.25 0 0 -1.25 0 45)"><path d="M18 15.663c-.162.292-.353.538-.588.71-.234.17-.528.275-.856.34.228.244.403.502.493.778.09.276.099.587.059.92.302-.143.602-.23.892-.23.29 0 .59.087.894.23-.041-.333-.032-.644.058-.92s.265-.534.492-.778c-.327-.065-.621-.17-.855-.34-.235-.172-.427-.418-.589-.71m13.298-.47c4.197 1.363 5.027 3.182 4.191 6.416-.952-.308-2.105.001-2.272.518-.168.513.581 1.443 1.533 1.753-1.223 3.107-2.964 4.09-7.161 2.727-1.607-.522-3.238-1.492-4.655-2.634.648 1.7 1.066 3.552 1.066 5.241 0 4.412-1.473 5.765-4.807 5.967 0-1-.652-2-1.193-2s-1.194 1-1.194 2C13.472 34.98 12 33.626 12 29.214c0-1.689.417-3.54 1.066-5.24-1.416 1.141-3.049 2.11-4.655 2.632-4.197 1.364-5.938.381-7.162-2.727.951-.31 1.701-1.239 1.534-1.753-.167-.515-1.32-.826-2.271-.518-.837-3.233-.005-5.052 4.19-6.415 1.607-.52 3.497-.697 5.314-.605-1.524-.994-2.95-2.247-3.943-3.614-2.594-3.57-2.197-5.53.381-7.654.588.81 1.703 1.236 2.142.917.437-.317.378-1.51-.21-2.32C11.202.122 13.189.351 15.782 3.92c.993 1.366 1.743 3.111 2.218 4.867.475-1.757 1.226-3.5 2.218-4.867 2.594-3.57 4.58-3.798 7.397-2.003-.587.81-.649 2.002-.21 2.321.437.318 1.553-.107 2.142-.917 2.577 2.123 2.973 4.083.381 7.653-.993 1.367-2.42 2.62-3.944 3.614 1.817-.092 3.707.084 5.314.605" fill="#f4abba"/><path d="M16.795 17.314a1 1 0 0 0-1.193-.76l-5.857 1.302a1 1 0 1 0 .434 1.952l5.857-1.302a.998.998 0 0 0 .759-1.192M17.771 17.097a1 1 0 0 0 1.193.76l5.857-1.302a1 1 0 1 0-.433-1.952l-5.858 1.302a.999.999 0 0 0-.759 1.192" fill="#fff"/><path d="M17.771 17.097a1 1 0 0 0-1.38.308l-3.222 5.06a1.001 1.001 0 0 0 1.687 1.075l3.222-5.062a1.001 1.001 0 0 0-.307-1.381M18.568 15.845a1 1 0 0 0 1.38-.307l3.222-5.062a1 1 0 1 0-1.688-1.074l-3.22 5.062a1.001 1.001 0 0 0 .306 1.38" fill="#fff"/><path d="M17.988 18.073a1 1 0 0 0-.759 1.193l1.302 5.857a.998.998 0 1 0 1.951-.434l-1.3-5.857a1 1 0 0 0-1.194-.759M17.771 17.097a.998.998 0 0 0 .759-1.192l-1.3-5.858a1 1 0 1 0-1.954.434l1.303 5.857a.998.998 0 0 0 1.192.759" fill="#fff"/><path d="M17.771 17.098a.999.999 0 0 0 .307 1.38l5.062 3.22a.999.999 0 1 0 1.073-1.686l-5.062-3.221a.998.998 0 0 0-1.38.307" fill="#fff"/><path d="M17.771 17.098a1 1 0 0 0-.307-1.381l-5.061-3.222a1 1 0 0 0-1.075 1.688l5.063 3.222a1 1 0 0 0 1.38-.307" fill="#fff"/><path d="M22.012 10.434a2.002 2.002 0 1 0-.614-2.762 2.002 2.002 0 0 0 .614 2.762M14.55 22.16a2 2 0 1 0-2.148 3.373 2 2 0 0 0 2.148-3.374M16.47 11.241a2.005 2.005 0 0 0 1.52-2.388 2.001 2.001 0 1 0-1.52 2.388M19.507 24.906a2 2 0 1 0 .868 3.906 2 2 0 0 0-.868-3.906M13.494 14.376a2.002 2.002 0 1 0-2.762.613 2.003 2.003 0 0 0 2.762-.613M22.833 20.319a2 2 0 1 0 3.377 2.146 2 2 0 0 0-3.377-2.146M23.628 15.795a2.001 2.001 0 1 0 0 0M10.938 18.616a2 2 0 1 0-3.905.867 2 2 0 0 0 3.905-.867" fill="#ea596e"/><path d="M22 17.182a4 4 0 1 0-8 0 4 4 0 0 0 8 0" fill="#ffcc4d"/></g></svg>