<svg xmlns="http://www.w3.org/2000/svg" viewBox="0 0 45 45"><defs><clipPath id="a"><path d="M0 36h36V0H0v36z"/></clipPath></defs><g clip-path="url(#a)" transform="matrix(1.25 0 0 -1.25 0 45)"><path d="M21.388 35.38c-1.852 0-4.235-1.849-6.22-4.826-2.321-3.483-1.07-5.988-.062-8.002A.998.998 0 0 1 16.8 22.4c2.395 3.192 6.21 8.196 6.907 8.893A.996.996 0 0 1 24 32c0 2.492-1.35 3.38-2.612 3.38M23.766 26.385c-1.21 0-2.575-1.132-4.565-3.785-2.124-2.832-2.462-5.314-1.095-8.048a1.001 1.001 0 0 1 1.663-.193c1.719 2.064 5.173 6.168 5.938 6.934A.997.997 0 0 1 26 22c0 1.084 0 4.385-2.234 4.385" fill="#ffcc4d"/><path d="M29.874 24.483a.998.998 0 0 1-1.359.385c-7.171-3.983-13.784-14.15-16.367-19.61.838 10.196 5.569 20.045 13.559 28.035a.999.999 0 1 1-1.414 1.414C16.33 26.744 11.466 16.99 10.288 6.826c-.674 5.698-.977 13.91 1.626 19.768a1 1 0 1 1-1.828.812c-1.325-2.983-1.945-6.501-2.161-10.008C7.04 19.282 6.001 21 4.472 21h-.046c-.91 0-1.691-.466-2.321-1.725-.247-.495-.046-.922.448-1.17a1 1 0 0 1 1.342.448c.311.622.524.769.521.792.636-.196 1.744-2.696 2.162-3.642.196-.443.374-.842.527-1.15a.987.987 0 0 1 .728-.53c.026-4.956.698-9.53 1.163-12.09l.02-.111a1 1 0 0 1 1.162-.806.97.97 0 0 1 .331.132A.972.972 0 0 1 11 1c.183 0 .344.063.492.148A.94.94 0 0 1 11.974 1h.025c.531 0 .972.448 1.001.98.057 1.038 2.494 6.014 6.143 11.044a.941.941 0 0 1 .304.082c.244.122.517.272.808.432.933.517 2.494 1.38 3.106 1.02.15-.088.639-.534.639-2.558a1 1 0 1 1 2 0c0 2.236-.53 3.636-1.622 4.28-.783.46-1.668.424-2.54.174 2.32 2.715 4.938 5.165 7.647 6.67a.996.996 0 0 1 .389 1.359" fill="#77b255"/></g></svg>