<svg xmlns="http://www.w3.org/2000/svg" viewBox="0 0 45 45"><defs><clipPath id="a"><path d="M0 36h36V0H0v36z"/></clipPath></defs><g clip-path="url(#a)" transform="matrix(1.25 0 0 -1.25 0 45)"><path d="M22.911 21.602a17.496 17.496 0 0 1-2.88-2.422c-.127 4.245-1.147 9.735-6.772 12.423C12.146 37.657-.834 34.581.33 33.994c2.313-1.17 3.544-4.148 5.033-5.715 2.653-2.792 5.603-2.964 7.07-.779 3.468-2.254 3.697-6.529 3.59-11.098-.01-.505-.022-.976-.022-1.403V1c0-1.104 4-1.104 4 0V12.49c.542.954 2.122 3.505 4.43 5.294 1.585-1.393 4.141-.949 6.462 1.495 1.49 1.567 2.293 4.544 4.608 5.715 1.221.617-12.8 3.994-12.589-3.392" fill="#77b255"/></g></svg>