<svg xmlns="http://www.w3.org/2000/svg" viewBox="0 0 45 45"><defs><clipPath id="a"><path d="M0 36h36V0H0v36z"/></clipPath></defs><g clip-path="url(#a)" transform="matrix(1.25 0 0 -1.25 0 45)"><path d="M30 32a4 4 0 0 1-4-4v-9.125c0-1.086-.887-1.96-2-2.448V30a6 6 0 0 1-12 0V12.371c-1.122.475-2 1.371-2 2.504V20a4 4 0 0 1-8 0v-7c0-2.209 1.75-3.875 3.375-4.812 1.244-.718 4.73-1.6 6.625-1.652V3C12-.314 24-.314 24 3v7.549c1.981.119 5.291.953 6.479 1.639C32.104 13.125 34 14.791 34 17v11a4 4 0 0 1-4 4" fill="#77b255"/><path d="M13 30a1 1 0 1 0-2 0 1 1 0 0 0 2 0M24 33a1 1 0 1 0-2 0 1 1 0 0 0 2 0M22 27a1 1 0 1 0-2 0 1 1 0 0 0 2 0M15 20a1 1 0 1 0-2 0 1 1 0 0 0 2 0M21 16a1 1 0 1 0-2 0 1 1 0 1 0 2 0M14 10a1 1 0 1 0-2 0 1 1 0 1 0 2 0M6 9a1 1 0 1 0-2 0 1 1 0 1 0 2 0M10 16a1 1 0 1 0-2 0 1 1 0 1 0 2 0M3 18a1 1 0 1 0-2 0 1 1 0 1 0 2 0M35 28a1 1 0 1 0-2 0 1 1 0 1 0 2 0M29 25a1 1 0 1 0-2 0 1 1 0 1 0 2 0M33 20a1 1 0 1 0-2 0 1 1 0 1 0 2 0M30 12a1 1 0 1 0-2 0 1 1 0 1 0 2 0M23 6a1 1 0 1 0-2 0 1 1 0 1 0 2 0" fill="#3e721d"/></g></svg>