<svg xmlns="http://www.w3.org/2000/svg" viewBox="0 0 45 45"><defs><clipPath id="a"><path d="M0 36h36V0H0v36z"/></clipPath></defs><g clip-path="url(#a)" transform="matrix(1.25 0 0 -1.25 0 45)"><path d="M6.401 7.45c5.006-5.006 16.502-11.969 29.533.07-7.366 1.417-8.662 10.79-13.669 15.795-5.006 5.007-11.99 6.14-16.997 1.133S1.394 12.458 6.401 7.45" fill="#a6d388"/><path d="M24.684 6.19c6.128-1.634 10.658.738 11.076 1.156 0 0-3.786-1.75-10.36 1.477.953 1.212 3.854 2.91 3.854 2.91-.552.345-4.078.224-6.485-1.43a37.19 37.19 0 0 0-3.673 2.675l.84.871c3.25 3.384 6.944 2.584 6.944 2.584-.637.614-5.598 3.441-9.582-.7l-.613-.638c-.426.4-.856.813-1.293 1.25l-1.85 1.85 1.064 1.065c3.32 3.321 8.226 3.451 8.226 3.451-.625.627-6.862 2.65-10.923-1.412l-.737-.735-8.293 8.293c-.625.626-1.692.575-2.317-.05-.627-.627-.677-1.692-.051-2.318l8.293-8.293-.058-.059c-4.062-4.06-2.375-10.633-1.75-11.26 0 0 .469 5.242 3.79 8.562l.387.388 3.502-3.502c.056-.057.113-.107.17-.163-2.426-4.797 1.228-10.34 1.958-10.784 0 0-1.466 4.722.48 8.634 1.527-1.195 3.02-2.094 4.457-2.755.083-2.993 2.707-5.7 3.343-5.93 0 0-.911 3.003-.534 4.487l.135.376z" fill="#77b255"/><path d="M22.083 26a1.001 1.001 0 0 0-.375 1.927c.166.069 4.016 1.698 4.416 6.163a1 1 0 0 0 1.992-.179c-.512-5.712-5.451-7.756-5.661-7.84a.996.996 0 0 0-.372-.072M27.083 22a1 1 0 0 0-.334 1.942c.188.068 4.525 1.711 5.38 8.188a.991.991 0 0 0 1.122.861.999.999 0 0 0 .86-1.122c-1.021-7.75-6.467-9.733-6.699-9.814a.998.998 0 0 0-.329-.056M30.084 16a1 1 0 0 0-.483 1.876c.027.015 2.751 1.536 3.6 3.518a1.001 1.001 0 0 0 1.838-.788c-1.123-2.62-4.339-4.408-4.475-4.483a1.003 1.003 0 0 0-.48-.123" fill="#55acee"/></g></svg>