<svg xmlns="http://www.w3.org/2000/svg" viewBox="0 0 45 45"><defs><clipPath id="a"><path d="M0 36h36V0H0v36z"/></clipPath></defs><g clip-path="url(#a)" transform="matrix(1.25 0 0 -1.25 0 45)"><path d="M3 16.5C3 25.612 10.386 33 19.498 33c9.114 0 16.5-7.388 16.5-16.5 0-9.113-7.385-16.5-16.5-16.5C10.387 0 3 7.387 3 16.5" fill="#f4900c"/><path d="M11.414 28.415c-.267.267-.797.197-1.355-.12-3.3 2.732-8.653 3.652-8.895 3.692a1 1 0 1 1-.33-1.972c.054-.01 4.934-.854 7.822-3.16-.275-.525-.324-1.015-.07-1.268.39-.391 1.34-.074 2.12.707.782.78 1.099 1.73.708 2.12" fill="#662113"/><path d="M21 35s-3.106-4.317-7.021-5.272c-2.98-.727-6.938-.797-7.333.122-.394.919 1.572 3.937 4.969 5.393C15.012 36.697 21 35 21 35" fill="#5c913b"/></g></svg>