<svg xmlns="http://www.w3.org/2000/svg" viewBox="0 0 45 45"><defs><clipPath id="a"><path d="M0 36h36V0H0v36z"/></clipPath></defs><g clip-path="url(#a)" transform="matrix(1.25 0 0 -1.25 0 45)"><path d="M9.999 24c-.15 0-.303.034-.446.105-4.381 2.191-7.484 7.527-8.502 10.579a1 1 0 1 0 1.898.632c.877-2.631 3.688-7.517 7.498-9.421A1 1 0 0 0 9.999 24" fill="#77b255"/><path d="M26 7c0-3.865-3.135-7-7-7s-7 3.135-7 7 3.135 7 7 7 7-3.135 7-7" fill="#553788"/><path d="M17 21c0-3.865-3.135-7-7-7s-7 3.135-7 7 3.135 7 7 7 7-3.135 7-7" fill="#9266cc"/><path d="M26 24c0-3.865-3.135-7-7-7s-7 3.135-7 7 3.135 7 7 7 7-3.135 7-7" fill="#aa8dd8"/><path d="M34 18c0-3.865-3.135-7-7-7s-7 3.135-7 7 3.135 7 7 7 7-3.135 7-7M16 10c0-3.865-3.135-7-7-7s-7 3.135-7 7 3.135 7 7 7 7-3.135 7-7" fill="#744eaa"/><path d="M25 15c0-3.865-3.135-7-7-7s-7 3.135-7 7 3.135 7 7 7 7-3.135 7-7" fill="#9266cc"/><path d="M36 7c0-3.865-3.135-7-7-7s-7 3.135-7 7 3.135 7 7 7 7-3.135 7-7" fill="#9266cc"/></g></svg>