<svg xmlns="http://www.w3.org/2000/svg" viewBox="0 0 45 45"><defs><clipPath id="a"><path d="M0 36h36V0H0v36z"/></clipPath></defs><g clip-path="url(#a)" transform="matrix(1.25 0 0 -1.25 0 45)"><path d="M31.924 25.018c4.418-7.652 1.99-17.326-5.424-21.606C19.086-.87 9.995.998 5.576 8.652c-5 8.66-2.49 18.192 4.924 22.472 7.414 4.28 17.924-.044 21.424-6.106" fill="#a6d388"/><path d="M24 30c3-1 6-4 8-7 .836-1.254.73.078-.294 2.348-3.686 5.884-13.929 9.977-21.206 5.776a14.837 14.837 0 0 1-6.413-7.408C4.808 24.529 5.52 25 6 25c1 0-1.896-3.279 1-11 3-8 3-4 3-4s-2 9-1 12 2 5 3 4 5-9 7-14c2.259-5.648 2 1-1 8-2.841 6.628-3 8-2 8s3.465-1.464 7-5c2-2 3-5 4-6s1 1 0 4c-.707 2.121-3 6-6 8-2.496 1.664 0 2 3 1" fill="#77b255"/><path d="M11.934 29.642a1.001 1.001 0 0 0-1.367.366c-1.105 1.914-1.26 4.303-1.266 4.404-.033.55.387 1.022.937 1.058a1.002 1.002 0 0 0 1.06-.936c0-.02.137-2.028 1-3.526a.998.998 0 0 0-.364-1.366" fill="#5c913b"/><path d="M11.96 5.467C11 6 10.235 7.444 9.553 8.693c-.682 1.249.277 1.276.887.159.68-1.25 1.204-1.612 1.886-2.862.68-1.25.193-.832-.364-.523M21.504 5.094c-.874 2.059-.812 3.057-1.686 5.114-.874 2.059-.75 4.055.124 1.997.875-2.058 1.748-4.118 1.687-5.115-.064-1-.125-1.996-.125-1.996M27 17c1-3 0-2 1-5s1-5 1 0c0 3.162-1 6-2 7-1.581 1.581 0-2 0-2" fill="#77b255"/></g></svg>