<svg xmlns="http://www.w3.org/2000/svg" viewBox="0 0 45 45"><defs><clipPath id="a"><path d="M0 36h36V0H0v36z"/></clipPath></defs><g clip-path="url(#a)" transform="matrix(1.25 0 0 -1.25 0 45)"><path d="M36 15.083c0 .687-2.895.5-3.125 1-.23.5 3.208 4.584 2.708 5.5-.5.917-5.086-1.166-5.375-.708-.288.458.292 3.5-.208 3.875s-5.25-4.916-5.917-4.292c-.666.625 1.542 10.5 1.086 10.699-.456.198-3.419-1.366-3.793-1.282C21.002 29.958 18.682 36 18 36c-.682 0-3.002-6.042-3.376-6.125-.374-.084-3.337 1.48-3.793 1.282-.456-.199 1.752-10.074 1.086-10.699C11.25 19.834 6.5 25.125 6 24.75s.08-3.417-.208-3.875c-.289-.458-4.875 1.625-5.375.708-.5-.916 2.938-5 2.708-5.5-.23-.5-3.125-.313-3.125-1s8.438-5.235 9-5.771c.562-.535-2.914-2.801-2.417-3.229.576-.496 3.84.83 10.417.957V1a1 1 0 1 1 2 0v6.04c6.577-.127 9.841-1.453 10.417-.957.496.428-2.98 2.694-2.417 3.229.562.536 9 5.084 9 5.771" fill="#dd2e44"/></g></svg>