<svg xmlns="http://www.w3.org/2000/svg" viewBox="0 0 45 45"><defs><clipPath id="a"><path d="M0 36h36V0H0v36z"/></clipPath></defs><g clip-path="url(#a)" transform="matrix(1.25 0 0 -1.25 0 45)"><path d="M14 16C14 11.582 12 3.437.937 3 3.562 6.875 0 11.582 0 16c0 4.419 2.582 8 7 8 4.419 0 7-3.581 7-8" fill="#d99e82"/><path d="M7.997 14.418c0 .028.003.053.003.082V18h.542c2.93 0 5.449-2.5 5.449-2.5 0 .553-2.157 4.5-5.741 4.5H8v7a1 1 0 1 1-2 0v-7h-.541C1.876 20 .016 16.053.016 15.5c0 0 2.222 2.5 5.152 2.5H6v-2.042c0-.394-.02-.749-.032-1.12l-.431.009c-3.583.07-4.525-3.367-4.537-3.919 0 0 1.277 1.983 4.206 1.924l.634-.012a22.981 22.981 0 0 0-.453-2.837c-1.737-.379-3.27-1.811-3.36-2.197 0 0 1.87.487 2.864.423C3.4 3.905.938 3 .938 3c.37 0 3.43.973 5.398 4.45l.379-.178c.82-.49 1.745-2.217 1.745-2.217.186.396.138 2.914-1.295 4.241.32.905.566 1.931.702 3.094 2.712-.79 4.223-3.659 4.223-3.659.13.529-.74 4.748-4.093 5.687" fill="#c1694f"/><path d="M15.675 18.717c0-6.339 2.87-18.027 18.745-18.655-3.766 5.561 1.346 12.316 1.346 18.655 0 6.341-3.706 11.48-10.045 11.48-6.341 0-10.046-5.139-10.046-11.48" fill="#d99e82"/><path d="M28.296 14.2c4.2.084 6.034-2.762 6.034-2.762-.016.793-1.367 5.725-6.511 5.624l-.792-.015a52.263 52.263 0 0 0-.027 1.61V21h1.349c4.205 0 7.393-3.023 7.393-3.023 0 .793-2.668 6.023-7.81 6.023H27v10.502c0 .793-.708 1.435-1.5 1.435-.793 0-1.5-.642-1.5-1.435V24h-.073c-5.144 0-8.238-5.23-8.238-6.023 0 0 3.616 3.023 7.82 3.023H24v-4.435c0-.072.005-.139.006-.21-4.573-1.503-5.77-7.326-5.59-8.069 0 0 2.064 3.917 5.773 5.163.209-1.724.586-3.239 1.077-4.566-1.843-1.949-1.896-5.323-1.638-5.872 0 0 1.324 2.48 2.503 3.18l.323.153C29.299 1.43 33.67.062 34.199.062c0 0-3.507 1.288-5.625 7.495 1.37.166 4.283-.597 4.283-.597-.131.567-2.441 2.722-5.012 3.2a33.291 33.291 0 0 0-.632 4.02l1.083.02z" fill="#c1694f"/></g></svg>