<svg xmlns="http://www.w3.org/2000/svg" viewBox="0 0 45 45"><defs><clipPath id="a"><path d="M0 36h36V0H0v36z"/></clipPath><clipPath id="b"><path d="M18 36C8.059 36 0 28 0 18a4 4 0 0 1 4-4h28a4 4 0 0 1 4 4c0 10-8.059 18-18 18z"/></clipPath></defs><g clip-path="url(#a)" transform="matrix(1.25 0 0 -1.25 0 45)"><path d="M27 3c0-2.209-1.791-3-4-3H13c-2.209 0-4 .791-4 3s3 7 3 13 12 6 12 0 3-10.791 3-13" fill="#99aab5"/></g><g clip-path="url(#b)" transform="matrix(1.25 0 0 -1.25 0 45)"><path d="M18 36.611c-10.494 0-19-8.639-19-19.194C-1 15.085.891 13 3.222 13h29.555C35.109 13 37 15.085 37 17.417c0 10.555-8.506 19.194-19 19.194" fill="#dd2e44"/><path d="M7.708 19.542a6.174 6.174 0 0 0-6.167 6.166 6.174 6.174 0 0 0 6.168 6.167c3.4 0 6.167-2.766 6.167-6.167 0-3.4-2.768-6.166-6.168-6.166" fill="#f4abba"/><path d="M7.708 32a6.292 6.292 0 1 1 0-12.584 6.292 6.292 0 0 1 0 12.584m0-.25a6.049 6.049 0 0 0 6.042-6.042 6.049 6.049 0 0 0-6.042-6.041 6.049 6.049 0 0 0-6.042 6.041 6.049 6.049 0 0 0 6.042 6.042M34.666 24.811a17.93 17.93 0 0 1-4.209 6.184 4.498 4.498 0 1 1 4.209-6.184M26 20a4.5 4.5 0 1 0-9 0 4.5 4.5 0 0 0 9 0M23 31a3 3 0 1 0-6 0 3 3 0 0 0 6 0" fill="#f4abba"/></g></svg>