<svg xmlns="http://www.w3.org/2000/svg" viewBox="0 0 45 45"><defs><clipPath id="a"><path d="M0 36h36V0H0v36z"/></clipPath></defs><g clip-path="url(#a)" transform="matrix(1.25 0 0 -1.25 0 45)"><path d="M28 34c2.684 1.343 5-4 3-13-1.106-4.976-5-9-9-12-4.001-3-11.001 1-7.001 5 4 4 8.001 7 10.001 13 1.304 3.913 1 6 3 7" fill="#ffe8b6"/><path d="M31 28c0-3-1-9-4-13s-7-5-4-1 5 7 6 11 2 7 2 3" fill="#ffd983"/><path d="M22 16c-.296-.592 1.167 3.833-3.001 6.001-1.983 1.031-10-1-4-1 3.001 0 4-2 2-4a2.935 2.935 0 0 1-.622-.912c-.416-.347-.872-.71-1.378-1.089C12.737 13.303 9.16 10.773 5 8 2 6 1 5 1 4c0-3 9-3 13.999-1C20 5 25 10 25 10l4 4c-3 4.001-7 2-7 2" fill="#ffcc4d"/><path d="M22 16s1.792 4.729-3.001 7.001c-4.041 1.915-8 1-10.999-1-3-2-2-4-3-5.001-1-1 1-2 3 0 2 2.001 8.315 4.895 10.999 4.001C22 20.001 21 18.001 22 16" fill="#ffe8b6"/><path d="M26 1h-4c-2 0-3-1-4-1s-2 2 0 2 4 0 5 1 5-2 3-2" fill="#a6d388"/><path d="M19 1a1 1 0 1 0-2 0 1 1 0 0 0 2 0" fill="#3e721d"/><path d="M32.208 8S28 1 26 1h-4c-2 0 0 1 1 2s5 0 5 6c0 3 4.208-1 4.208-1" fill="#ffcc4d"/><path d="M26 17c3 0 8-3 7-9s-5-7-7-7h-2c-2 0-1 1 0 2s4 0 4 6c0 3-4 7-6 7 0 0 2 1 4 1" fill="#ffe8b6"/><path d="M17 15c3 0 5-1 3-3-1.581-1.581-6-5-10-6S2 5 5 7s9.764 8 12 8" fill="#ffd983"/><path d="M2 5c1 0 1 0 1-.667C3 3.667 3 3 2 3S1 4.333 1 4.333 1 5 2 5" fill="#c1694f"/></g></svg>