<svg xmlns="http://www.w3.org/2000/svg" viewBox="0 0 45 45"><defs><clipPath id="a"><path d="M0 36h36V0H0v36z"/></clipPath></defs><g clip-path="url(#a)" transform="matrix(1.25 0 0 -1.25 0 45)"><path d="M2.472 29.428A17.031 17.031 0 0 1 1 22.5C1 12.835 9.059 5 19 5c7.746 0 14.33 4.767 16.869 11.44L2.472 29.429z" fill="#5c913b"/><path d="M4.332 28.705A15.116 15.116 0 0 1 3 22.5c0-8.59 7.163-15.555 16-15.555 6.905 0 12.77 4.26 15.013 10.218L4.332 28.705z" fill="#ffe8b6"/><path d="M6.19 27.981A13.23 13.23 0 0 1 5 22.501c0-7.519 6.268-13.613 14-13.613 6.063 0 11.21 3.753 13.156 8.995L6.19 27.981z" fill="#dd2e44"/><path d="M9.916 21.723c-.307-.46-.741-.708-.971-.555-.23.154-.168.65.139 1.11.307.46.741.708.971.554.23-.153.168-.65-.139-1.11M15.916 20.723c-.307-.46-.741-.708-.971-.555-.23.154-.168.65.139 1.11.307.46.741.708.971.554.23-.153.168-.65-.139-1.11M20.998 16.045c.05-.551-.132-1.016-.406-1.041-.276-.025-.538.4-.588.95-.051.552.132 1.017.406 1.04.276.028.538-.397.588-.95M11.998 18.045c.05-.551-.132-1.016-.406-1.041-.276-.025-.538.4-.588.95-.05.552.132 1.017.406 1.04.276.028.538-.397.588-.95M15.9 12.7c-.334-.442-.78-.664-1.002-.498-.22.166-.128.658.205 1.1.334.44.781.662 1 .496.222-.166.131-.658-.204-1.099M23.936 12.245c.273-.48.299-.98.06-1.115-.242-.137-.657.142-.93.624-.273.48-.298.978-.058 1.115.24.138.655-.142.928-.624M16.918 17.273c.303-.463.362-.958.131-1.109-.231-.153-.663.1-.966.562-.303.462-.361.958-.131 1.11.231.152.663-.099.966-.563M25.9 15.7c-.334-.442-.78-.664-1.002-.498-.22.166-.129.658.205 1.1.333.441.78.662 1 .496.222-.166.131-.658-.204-1.099"/></g></svg>