<svg xmlns="http://www.w3.org/2000/svg" viewBox="0 0 45 45"><defs><clipPath id="a"><path d="M0 36h36V0H0v36z"/></clipPath></defs><g clip-path="url(#a)" transform="matrix(1.25 0 0 -1.25 0 45)"><path d="M6 32c3 0 5-2 8-6s7.957-7.191 12-8c5-1 9-5 9-11 0-4.898-3.846-7-9-7-5 0-9 3-14 8S2 22 2 26s1 6 4 6" fill="#744eaa"/><path d="M3.515 36c1.248 0 1.248-1.248 1.248-2.495 0-1.764 1.247-1.129 2.495-1.129C8.505 32.376 11 30 11 30H7.258c-1.248 0 0-2.614-1.248-2.614-1.247 0-1.247 1.188-2.495 1.188S2 25 2 25s-1.604 4.153.267 6.024C3.515 32.272 1.02 36 3.515 36" fill="#77b255"/></g></svg>