<svg xmlns="http://www.w3.org/2000/svg" viewBox="0 0 45 45"><defs><clipPath id="a"><path d="M0 36h36V0H0v36z"/></clipPath></defs><g clip-path="url(#a)" transform="matrix(1.25 0 0 -1.25 0 45)"><path d="M24 29c-3 0-3-1-6-1-3.001 0-3 1-6 1-4 0-9-2-9-9C3 9 9 0 13 0c2.999 0 3 1 5 1s2-1 5-1c4 0 10 9 10 20 0 7-5 9-9 9" fill="#dd2e44"/><path d="M19 29s3 4 8 4c4 0 6-2 6-2s-4-3-7-3-7 1-7 1" fill="#77b255"/><path d="M18 26a1 1 0 0 0-1 1c0 3.441 1.2 6.615 3.294 8.707a.999.999 0 1 0 1.414-1.414C19.987 32.573 19 29.915 19 27a1 1 0 0 0-1-1" fill="#662113"/></g></svg>