<svg xmlns="http://www.w3.org/2000/svg" viewBox="0 0 45 45"><defs><clipPath id="a"><path d="M0 36h36V0H0v36z"/></clipPath></defs><g clip-path="url(#a)" transform="matrix(1.25 0 0 -1.25 0 45)"><path d="M22.494 30.656c-.686 0-1.352-.066-1.99-.177-.82.105-2.74.23-3.592.23-8.473 0-15.887-3.176-15.887-14.297C1.025 7.376 8.075.05 18.001.05c9.927 0 17.974 7.325 17.974 16.36 0 11.25-9.385 14.245-13.48 14.245" fill="#dd2e44"/><path d="M8.439 35.909c1.637-1.636 2.77-2.266 3.274-4.91.298-1.564 2.266-1.51 2.266-1.51s-3.903-1.764-5.54-3.4c0 0 4.91 1.636 6.547 1.636 0 0 3.273-1.636 3.273-3.273 0 0 0 3.273-1.636 3.273 0 0 4.909 0 4.909-3.273 0 0 0 4.91-1.636 4.91 0 0 4.911 1.637 6.547 0 0 0-1.685 1.72-4.911 1.637 0 0 1.638 1.637 4.911 1.637 0 0-5.288 1.51-6.924-1.763 0 0-1.386 1.385 1.384 4.155 0 0-4.28-.755-4.28-4.03 0 0-1.552.04-2.644 1.26-2.141 2.392-5.54 3.65-5.54 3.65" fill="#77b255"/></g></svg>