<svg xmlns="http://www.w3.org/2000/svg" viewBox="0 0 45 45"><defs><clipPath id="a"><path d="M0 36h36V0H0v36z"/></clipPath></defs><g clip-path="url(#a)" transform="matrix(1.25 0 0 -1.25 0 45)"><path d="M18.241 26.367c-.277 3.307 2.17 4.72 2.17 4.72-3.199-.113-4.894-2.825-4.894-2.825-.752 1.3.946 4.012 2.17 4.72-3.199-.114-3.67-2.12-3.67-2.12-1.503 2.6-1.03 4.607-1.03 4.607-1.12-.648-1.767-2.113-2.14-3.513l-2.32 2.671c-.23-1.046.156-3.176.572-4.962-3.054 1.791-5.902.151-5.902.151 3.95-1.187 5.45-3.787 5.45-3.787S4.7 27.216 3.002 24.502c2.596.092 4.5-.499 5.856-1.229-1.163-.289-3.145.236-4.355-1.37 0 0 3.198.112 3.851-1.055-2.172-.615-3.574-2.252-3.574-2.252 4.422.818 9.123-1.668 9.123-1.668l6.118 3.532c-1.028 4.607 2.642 6.727 2.642 6.727-2.725 1.893-4.422-.82-4.422-.82" fill="#5c913b"/><path d="M29.56 13.12c2.489-4.309 1.219-9.7-2.836-12.04-4.055-2.342-9.36-.747-11.846 3.561l-1.59 2.753c-2.488 4.31-1.217 9.7 2.838 12.04 4.055 2.342 9.359.747 11.846-3.562l1.588-2.752z" fill="#ffac33"/><path d="M27.718 9.541l-1.951.828.828 1.95 1.95-.827-.827-1.951zM26.062 5.64l-1.951.827.829 1.952 1.95-.828-.828-1.951zm-1.657-3.904l-1.951.828.828 1.952 1.952-.829-.83-1.951zm-4.197 6.388l.828 1.952 1.952-.829-.83-1.952-1.95.829zm.294-4.73l-1.95.828.828 1.95 1.95-.829-.828-1.949zM16.306 9.78l.829 1.951 1.95-.827-.828-1.952-1.951.828zm.295-4.73l-1.951.827.828 1.951L17.428 7l-.827-1.95zm-4.196 6.386l.828 1.952 1.95-.828-.827-1.953-1.951.829zm2.484 5.852l1.95-.828-.828-1.949-1.95.828.828 1.949zm3.902-1.655l1.95-.828-.828-1.951-1.95.828.828 1.951zm1.656 3.902l1.952-.829-.83-1.951-1.951.828.829 1.952zm4.197-6.387l-.828-1.95-1.952.827.829 1.952 1.95-.829zm-.294 4.731l1.95-.829-.828-1.95-1.951.828.829 1.951zm6.213-7.243a9.527 9.527 0 0 1-1.002 2.484l-.187.323v-.001l-1.951.829.624 1.47-.075.131c-2.025 3.51-5.92 5.217-9.486 4.466l-.82-1.926-1.883.799c-3.28-2.122-4.568-6.318-3.262-10.128l1.006-.427-.401-.946c.055-.105.102-.212.162-.315l1.59-2.753a9.406 9.406 0 0 1 2.617-2.91l.229.538 1.95-.828-.323-.763a8.793 8.793 0 0 1 2.06-.573l.215.507 1.403-.594a8.005 8.005 0 0 1 3.343.882l-.016.007.828 1.951 1.188-.504a8.19 8.19 0 0 1 1.334 1.737l-1.693.719.828 1.952 1.667-.707c.19.7.3 1.426.316 2.167l-1.155.49.828 1.951.066-.028z" fill="#ffcc4d"/></g></svg>