<svg xmlns="http://www.w3.org/2000/svg" viewBox="0 0 45 45"><defs><clipPath id="a"><path d="M0 36h36V0H0v36z"/></clipPath></defs><g clip-path="url(#a)" transform="matrix(1.25 0 0 -1.25 0 45)"><path d="M32.55 17.148c-2.092 1.848-6.685 3.264-10.177 3.84 3.492.577 8.085 1.993 10.178 3.84 2.014 1.776 2.963 2.947 2.14 4.721-.566 1.22-2.854 1.334-4.165 2.491-1.312 1.158-1.444 3.177-2.827 3.675-2.01.726-3.336-.113-5.346-1.888-2.094-1.847-3.698-5.899-4.353-8.98-.653 3.081-2.258 7.134-4.351 8.98-2.014 1.776-3.341 2.614-5.351 1.888-1.383-.5-1.512-2.518-2.823-3.675-1.312-1.158-3.603-1.274-4.167-2.494-.823-1.774.129-2.943 2.14-4.718 2.094-1.847 6.688-3.263 10.18-3.84-3.492-.576-8.086-1.993-10.18-3.84-2.013-1.775-2.963-2.945-2.14-4.72.567-1.219 2.855-1.335 4.167-2.49C6.785 8.778 6.919 6.758 8.3 6.26c2.01-.726 3.337.116 5.348 1.89 1.65 1.456 2.997 4.287 3.814 6.932-.262-4.536.528-10.59 3.853-14.262 1.343-1.484 2.407-.55 2.822-.187.416.366 1.604 1.414.185 2.823-3.91 3.882-5.265 7.917-5.627 11.14.827-2.499 2.106-5.078 3.657-6.447 2.012-1.775 3.339-2.615 5.35-1.889 1.382.5 1.512 2.52 2.823 3.676 1.312 1.158 3.602 1.274 4.166 2.494.822 1.774-.13 2.944-2.141 4.717" fill="#77b255"/></g></svg>