<svg xmlns="http://www.w3.org/2000/svg" viewBox="0 0 45 45"><defs><clipPath id="a"><path d="M0 36h36V0H0v36z"/></clipPath></defs><g clip-path="url(#a)" transform="matrix(1.25 0 0 -1.25 0 45)"><path d="M14.017 25.632l-5.844 5.844a2.582 2.582 0 0 1-3.812 3.48 2.585 2.585 0 0 1-.715-2.283 2.585 2.585 0 0 1-2.282-.716 2.59 2.59 0 0 1 0-3.662 2.582 2.582 0 0 1 3.48-.149l5.843-5.844 3.33 3.33z" fill="#ffd983"/><path d="M32.954 3.364C34.62 5.03 38.828 12.174 33 18c-4.059 4.058-7.328 3.826-13.416 5.335-2.497.832-5.752 3.832-6.584 4.665-.833-.833-.542-3.874-.542-3.874S8.832 23.832 8 23c.832-.833 4.7-4.49 5.375-6.207 1.821-5.775 1.613-8.71 5.671-12.77 6.66-6.659 12.244-2.323 13.908-.659" fill="#c1694f"/></g></svg>