<svg xmlns="http://www.w3.org/2000/svg" viewBox="0 0 45 45"><defs><clipPath id="a"><path d="M0 36h36V0H0v36z"/></clipPath><clipPath id="b"><path d="M3 21.5c0-.11.015-.221.017-.332C3.015 21.111 3 21.057 3 21l.043-.346c.044-.769.133-1.547.291-2.328L5 5a4 4 0 0 1 4-4h18a4 4 0 0 1 4 4l1.839 14.714c.035.215.058.428.081.642L33 21c0 .07-.018.136-.02.206.002.097.02.197.02.294C33 29.508 26.285 34 18 34S3 29.508 3 21.5"/></clipPath><clipPath id="c"><path d="M2 35V19c0 1.104.895 1 2 1s3 .104 3-1c0-2.761 4.372-5 11-5 6.627 0 11 2.239 11 5 0 1.104 1.895 1 3 1s2 .104 2-1h1v16H2z"/></clipPath><clipPath id="d"><path d="M0 36h36V0H0v36z"/></clipPath></defs><g clip-path="url(#a)" transform="matrix(1.25 0 0 -1.25 0 45)"><path d="M33 21c0 .07-.018.136-.02.206.002.097.02.197.02.294C33 29.508 26.284 34 18 34 9.716 34 3 29.508 3 21.5c0-.109.015-.222.017-.332C3.015 21.111 3 21.058 3 21l.043-.346c.044-.77.133-1.547.291-2.328L5 5a4 4 0 0 1 4-4h18a4 4 0 0 1 4 4l1.839 14.713c.035.216.057.429.081.643L33 21z" fill="#dd2e44"/></g><g clip-path="url(#b)" transform="matrix(1.25 0 0 -1.25 0 45)"><path d="M2 35V19c0 1.105.896 1 2 1s3 .105 3-1c0-2.762 4.373-5 11-5s11 2.238 11 5c0 1.105 1.896 1 3 1 1.105 0 2 .105 2-1h1v16H2z" fill="#be1931"/></g><g clip-path="url(#c)" transform="matrix(1.25 0 0 -1.25 0 45)"><path d="M10.002 4.5a1.5 1.5 0 0 0-1.46 1.848l5 21a1.501 1.501 0 0 0 2.917-.696l-5-21A1.502 1.502 0 0 0 10.001 4.5M25 26c-1-1-4-4-2-6s-1-8 2-6 4 5 4 7 1 5-1 5h-3z" fill="#f4900c"/><path d="M17 27c-1 0-3-2-3-3s0-6 3-5 3 3 2 5-2 3-2 3" fill="#f4900c"/><path d="M19.998 5.5a1.5 1.5 0 0 0-1.491 1.351l-2 20a1.501 1.501 0 0 0 1.344 1.642 1.504 1.504 0 0 0 1.641-1.344l2-20A1.498 1.498 0 0 0 19.998 5.5" fill="#f4900c"/><path d="M21.002 5.5a1.5 1.5 0 0 0-1.488 1.703l3 22c.111.82.858 1.395 1.689 1.283a1.499 1.499 0 0 0 1.283-1.689l-3-22A1.5 1.5 0 0 0 21.002 5.5M18 4.5a1.5 1.5 0 0 0-1.41.987l-8 22a1.501 1.501 0 0 0 2.82 1.026l8-22A1.502 1.502 0 0 0 18 4.5" fill="#f4900c"/><path d="M22 7.5a1.5 1.5 0 0 0-1.423 1.975l6 17.999a1.5 1.5 0 1 0 2.846-.948l-6-18.001A1.501 1.501 0 0 0 22 7.5M19 9.5a1.5 1.5 0 0 0-1.41.987l-4 11a1.501 1.501 0 0 0 2.82 1.026l4-11A1.502 1.502 0 0 0 19 9.5M8.998 9.5c-.72 0-1.355.52-1.478 1.253l-2 12a1.501 1.501 0 0 0 2.959.494l2-12A1.498 1.498 0 0 0 8.998 9.5M29.002 12.5a1.501 1.501 0 0 0-1.493 1.666l1 8.999a1.5 1.5 0 0 0 2.982-.33l-1-9.001a1.5 1.5 0 0 0-1.489-1.334" fill="#f4900c"/><path d="M28.998 4.5a1.5 1.5 0 0 0-1.484 1.297l-3 22a1.499 1.499 0 0 0 1.283 1.689 1.495 1.495 0 0 0 1.689-1.283l3-22A1.5 1.5 0 0 0 28.998 4.5M21.998 10.5c-.779 0-1.437.604-1.494 1.394l-1 13.999a1.499 1.499 0 0 0 1.39 1.603 1.497 1.497 0 0 0 1.602-1.389l1-14.001a1.497 1.497 0 0 0-1.498-1.606M9.002 8.5a1.5 1.5 0 0 0-1.492 1.674l1.542 13.209a1.5 1.5 0 0 0 2.979-.348L10.49 9.826A1.5 1.5 0 0 0 9.002 8.5M17.998 8.5a1.5 1.5 0 0 0-1.469 1.206l-4 20a1.5 1.5 0 1 0 2.941.588l4-20A1.499 1.499 0 0 0 18 8.5" fill="#ffcc4d"/></g><g clip-path="url(#d)" transform="matrix(1.25 0 0 -1.25 0 45)"><path d="M22 8a4 4 0 1 0-8 0 4 4 0 0 0 8 0" fill="#be1931"/></g></svg>