<svg xmlns="http://www.w3.org/2000/svg" viewBox="0 0 45 45"><defs><clipPath id="a"><path d="M0 36h36V0H0v36z"/></clipPath></defs><g clip-path="url(#a)" transform="matrix(1.25 0 0 -1.25 0 45)"><path d="M36 12c0-5.523-8.059-10-18-10S0 6.477 0 12s8.059 10 18 10 18-4.477 18-10" fill="#939598"/><path d="M36 14c0-5.523-8.059-10-18-10S0 8.477 0 14s8.059 10 18 10 18-4.477 18-10" fill="#f1f2f2"/><path d="M32.8 14.389c0-4.202-6.626-7.611-14.8-7.611s-14.8 3.409-14.8 7.61C3.2 18.593 9.826 22 18 22s14.8-3.408 14.8-7.611" fill="#ffcc4d"/><path d="M11 9a1 1 0 1 0 0 2c1.898 0 3.082 1.085 3.174 1.835.091.736-.96 1.081-1.417 1.195-.906.225-1.58-.033-2.358-.335-1.068-.414-2.531-.978-4.106.598-.689.688-.868 1.605-.492 2.513C6.534 18.575 9.245 20 11 20a1 1 0 0 0 0-2c-1.115 0-2.995-1.099-3.351-1.96-.074-.178-.045-.23.058-.333.629-.628.928-.548 1.971-.146.862.334 2.042.79 3.564.409 2.384-.596 3.07-2.136 2.917-3.379C15.942 10.826 13.953 9 11 9M17 8a1 1 0 1 0 0 2c5.697 0 9.833 1.247 12.293 3.707a.999.999 0 1 0 1.414-1.414C27.858 9.444 23.247 8 17 8" fill="#ffe8b6"/><path d="M21.349 11.84c-.537 0-1.07.06-1.591.19-.543.135-2.194.548-2.245 1.883-.038 1 .66 2.172 5.938 3.957C22.875 18.34 21.493 19 20 19c-2.513 0-3.797-.211-4.293-.707a.999.999 0 1 0-1.414 1.414C15.248 20.662 16.74 21 20 21c2.396 0 5.397-1.333 5.676-3.053.108-.662-.193-1.506-1.36-1.895-2.582-.861-3.92-1.55-4.5-1.957.112-.04.253-.081.427-.125 3.23-.804 7.322 2.366 7.768 3.18A1 1 0 0 0 30 17c0-.706-.634-1.56-1.886-2.537-1.744-1.361-4.29-2.622-6.765-2.623" fill="#ffe8b6"/><path d="M27 15.5c0-2.485-2.029-5.5-7-5.5s-4 2-12 5c-3.376 1.266 5.029 5 10 5s9-2.015 9-4.5" fill="#dd2e44"/><path d="M16 12a.999.999 0 0 0-.707 1.707c.281.305.112.474 0 .586-.558.558-2.238.616-3.846-.188a1 1 0 1 0-.894 1.79c1.977.988 4.725 1.242 6.154-.188 1.253-1.252.686-2.727 0-3.414A.997.997 0 0 0 16 12M20 16c-2.414 0-3.686 1.271-4.707 2.293a.999.999 0 1 0 1.414 1.414C17.661 18.753 18.414 18 20 18c.773 0 2.586 0 3.293.707a.999.999 0 1 0 1.414-1.414C23.414 16 21.108 16 20 16M20 12a1 1 0 1 0 0 2c1.847 0 4.548.962 5.293 1.707a.999.999 0 1 0 1.414-1.414C25.416 13.002 22.041 12 20 12" fill="#ea596e"/><path d="M17.001 16a1 1 0 0 0-.896.553c-.998 1.997-3.076 6.153-4.097 14.323a.999.999 0 1 0 1.984.248c.979-7.83 2.953-11.779 3.902-13.677A1 1 0 0 0 17.001 16" fill="#ffac33"/><path d="M35.125 24.958l-15.24 4.503C16.534 34.77 12.319 33.916 10 34c-.25.009-.819-.22-.833-.625-.015-.392 1.025-.337 1.186-.343 1.705-.062 3.945-.176 6.132-2.487C13.827 31.472 9.744 32.067 9 32c-.458-.042-.5-.375.042-.625.444-.206 4.572-1.647 6.839-2.34-1.419-.49-3.285-.715-6.434.86-.496.248-1.2.599-1.447.105-.247-.494.506-.753 1-1 2.16-1.08 3.43-2.332 4.823-2.332 1.657 0 2.854.505 3.792.9.333.14.634.263.903.343.016-.01.028-.024.045-.033l14.804-6.592c.486-.265 1.572.791 1.837 1.276.265.484.28 2.173-.079 2.396" fill="#99aab5"/><path d="M13 17a.997.997 0 0 0-.707.293c-1.315 1.315-4.446 8.867-.074 14.332a1 1 0 0 0 1.562-1.25c-3.649-4.561-.779-10.963-.074-11.668A.999.999 0 0 0 13 17" fill="#ffac33"/></g></svg>