<svg xmlns="http://www.w3.org/2000/svg" viewBox="0 0 45 45"><defs><clipPath id="a"><path d="M0 36h36V0H0v36z"/></clipPath></defs><g clip-path="url(#a)" transform="matrix(1.25 0 0 -1.25 0 45)"><path d="M7.681 26.903c1.587 3.151 7.698 1.916 11.958-2.17 2.698-2.587 8.056-1.499 11.5-4.805 3.492-3.354 3.257-9.36-3.054-15.767C23-.999 16-.999 11.835 2.616c-4.388 3.81-2.475 8.61-4.41 13.585-1.938 4.976-4.325 10.424.256 10.702" fill="#a6d388"/><path d="M8.178 26.466c-.43-.448-1.114-.49-1.527-.093-3.208 3.079-3.918 7.545-3.946 7.776-.074.587.348 1.157.938 1.278.593.12 1.132-.256 1.205-.841.006-.05.658-3.997 3.36-6.591.413-.397.4-1.081-.03-1.53" fill="#662113"/></g></svg>