<svg xmlns="http://www.w3.org/2000/svg" viewBox="0 0 45 45"><defs><clipPath id="a"><path d="M0 36h36V0H0v36z"/></clipPath></defs><g clip-path="url(#a)" transform="matrix(1.25 0 0 -1.25 0 45)"><path d="M36 22.5c0 4.558-4.435 8.267-10 8.479V31H10v-.021C4.435 30.767 0 27.058 0 22.5c0-1.861.747-3.576 2-4.976V5a4 4 0 0 1 4-4h24a4 4 0 0 1 4 4v12.524c1.253 1.4 2 3.115 2 4.976" fill="#d99e82"/><path d="M21 22.5c0 3.461-3.538 6.291-8 6.489-.165.007-2.332.011-2.5.011C5.806 29 2 26.09 2 22.5c0-1.595.754-3.053 2-4.184V6a3 3 0 0 1 3-3h9a3 3 0 0 1 3 3v12.321c1.244 1.131 2 2.586 2 4.179" fill="#ffe8b6"/></g></svg>