<svg xmlns="http://www.w3.org/2000/svg" viewBox="0 0 45 45"><defs><clipPath id="a"><path d="M0 36h36V0H0v36z"/></clipPath></defs><g clip-path="url(#a)" transform="matrix(1.25 0 0 -1.25 0 45)"><path d="M34.935 9.323c0 6.651-7.597 12.042-16.967 12.042C8.597 21.365 1 15.975 1 9.323c0-6.649 7.597-8.162 16.968-8.162 9.37 0 16.967 1.513 16.967 8.162" fill="#d99e82"/><path d="M34.935 15.14c0 6.652-7.597 12.043-16.967 12.043C8.597 27.183 1 21.792 1 15.14c0-6.65 7.597-8.162 16.968-8.162 9.37 0 16.967 1.513 16.967 8.162" fill="#662113"/><path d="M19.167 9.549c-.964-.531-1.288-.53-2.251.003 0 0-7 3.615-15.708 6.323-1.167.583-.267 2.625.833 2.625l31.876-.041c1.1 0 2.005-2.311 1.125-2.542-6.209-1.625-15.875-6.368-15.875-6.368" fill="#ffcc4d"/><path d="M34.935 20.959c0 6.65-7.597 12.042-16.967 12.042C8.597 33 1 27.61 1 20.959c0-6.65 7.597-7.375 16.968-7.375 9.37 0 16.967.725 16.967 7.375" fill="#d99e82"/><path d="M9.742 27.976a1.07 1.07 0 1 0 1.152 1.802c.498-.318 1.244-1.363.927-1.86-.32-.499-1.581-.26-2.08.058M20.627 30.813a1.07 1.07 0 1 0 .66-2.034c-.562-.183-1.844-.096-2.026.466-.183.562.804 1.386 1.366 1.568M31.208 21.725a1.07 1.07 0 0 0-1.638 1.376c.381.452 1.514 1.058 1.966.677.453-.38.053-1.6-.328-2.053M26.742 26.976a1.068 1.068 0 1 0 1.151 1.802c.498-.318 1.245-1.363.927-1.86-.318-.499-1.58-.26-2.078.058M11.742 19.977a1.07 1.07 0 0 0 1.151 1.802c.498-.32 1.245-1.364.927-1.861-.318-.5-1.58-.26-2.078.059M15.94 26.586a1.068 1.068 0 1 0 1.76-1.215c-.336-.486-1.407-1.196-1.893-.86-.488.336-.205 1.589.132 2.075M22.742 19.977a1.07 1.07 0 0 0 1.151 1.802c.498-.32 1.245-1.364.927-1.861-.318-.5-1.58-.26-2.078.059M5.058 25.665a1.07 1.07 0 1 0 1.593-1.427c-.394-.44-1.546-1.01-1.985-.615-.441.395-.003 1.602.392 2.042" fill="#ffe8b6"/></g></svg>