<svg xmlns="http://www.w3.org/2000/svg" viewBox="0 0 45 45"><defs><clipPath id="a"><path d="M0 36h36V0H0v36z"/></clipPath><clipPath id="b"><path d="M14 33C9 29 1 18 1 10 1 .611 8.609 1 18 1s17-.389 17 9c0 5-6 18-13 23-1.427 1.019-2.732 1.519-4.021 1.519-1.306 0-2.595-.513-3.979-1.519"/></clipPath></defs><g clip-path="url(#a)" transform="matrix(1.25 0 0 -1.25 0 45)"><path d="M35 10c0-9.389-7.609-9-17-9S1 .611 1 10c0 8 8 19 13 23 2.75 2 5.129 2.051 8 0 7-5 13-18 13-23" fill="#eee"/><path d="M27.258 6.358a1.012 1.012 0 0 0-1.145 1.669l1.67 1.144a1.012 1.012 0 0 0 1.143-1.668l-1.668-1.145zM29.696 13.453a1.001 1.001 0 0 0 .755 1.852l1.852-.755a1 1 0 1 0-.755-1.852l-1.852.755zM25.202 18.709a1.011 1.011 0 1 0 .762 1.874l1.875-.764a1.012 1.012 0 0 0-.765-1.873l-1.872.763zM4.201 11.709a1.012 1.012 0 0 0 .764 1.874l1.873-.764a1.012 1.012 0 0 0-.763-1.874l-1.874.764zM7.758 17.858a1.011 1.011 0 1 0-1.145 1.669l1.67 1.144a1.012 1.012 0 0 0 1.143-1.669l-1.668-1.144zM16.786 14.12a1.5 1.5 0 1 0 1.132 2.778l2.778-1.133a1.5 1.5 0 1 0-1.132-2.778l-2.778 1.132zM10.602 8.067a1.011 1.011 0 1 0 .718-1.889l-1.892-.72a1.008 1.008 0 0 0-1.302.586c-.2.523.063 1.106.585 1.306l1.89.717z" fill="#ccd6dd"/></g><g clip-path="url(#b)" transform="matrix(1.25 0 0 -1.25 0 45)"><path d="M26 1a2 2 0 0 0-2-2H12a2 2 0 0 0-2 2v12a2 2 0 0 0 2 2h12a2 2 0 0 0 2-2V1z" fill="#292f33"/></g></svg>