<svg xmlns="http://www.w3.org/2000/svg" viewBox="0 0 45 45"><defs><clipPath id="a"><path d="M0 36h36V0H0v36z"/></clipPath></defs><g clip-path="url(#a)" transform="matrix(1.25 0 0 -1.25 0 45)"><path d="M22.614 1.155c3.462 1.154 6.117 3.034 6.12 9.373C28.736 14.54 33 19 33 23.08c0 3.921-4.615 10.384-15.1 9.285C7.121 31.236 3 28 3 20.926 3 16 8.303 12.546 11.126 7.41 13 4 18.551-2.187 22.614 1.155" fill="#be1931"/><path d="M26.252 32.428c-1.278 1.044-3.28 1.55-5.35 1.677.273.037.542.076.821.094.972.064 3.614 1.233 1.4 1.088-.969-.063-1.901-.26-2.837-.423.237.154.479.306.74.442C21 36 17 36 14.981 34.312 14.469 34.424 14 35 11 35c-2 0-4.685-.926-3-1 .917-.04 2 0 1.858-.364C9.203 33.575 6 33 6 32c0-.353 2.76.174 3 0-1.722-.643-3-2-3-3 0-.423 2.211.825 3 1-1-1-1.4-1.7-1.342-2.427.037-.475 2.387.09 2.632.169.822.27 3.71 1.258 4.6 2.724.117-.285 2.963-1.341 4.11-1.466.529-.058 2.62-.274 2.141.71C21 30 20 31 19.695 31.976c.446.019 8.305-.975 6.557.453" fill="#77b255"/><path d="M9.339 18.694c-.136 1.46-2.54 3.252-2.331 1 .136-1.46 2.54-3.251 2.33-1M16.797 18.14c-.069.623-.282 1.192-.687 1.672-.466.55-1.075.363-1.234-.316-.187-.798.082-1.751.606-2.371a.942.942 0 0 1 .041-.048l-.642 1.573.006-.047c.071-.64.397-1.73 1.136-1.906.754-.182.825.989.774 1.444M22.549 22.982c.476.955.17 3.962-.831 1.954-.476-.955-.171-3.962.83-1.954M29.76 24.439c-.03.357-.073.78-.391 1.01-1.19.858-2.38-2.36-1.384-3.08a.67.67 0 0 0 .054-.039l-.331.919a.44.44 0 0 1 .003-.052c.049-.564.376-1.377 1.084-.947.667.405 1.028 1.443.965 2.189M28.415 15.872c1.016 1.57-.545 3.451-1.78 1.542-1.016-1.568.546-3.45 1.78-1.542M22.667 12.977c.173 1.937-2.309 2.752-2.51.496-.173-1.937 2.309-2.752 2.51-.496M12.77 14.19c-.016 0-.032-.003-.048-.004l1.362-.715c-.006.004-.011.011-.018.017-.307.28-1.354 1.083-1.789.592-.44-.497.499-1.42.805-1.703.341-.314.927-.763 1.428-.73 1.439.093-.782 2.605-1.74 2.543M25.998 8.283c.969 1.066.725 4.05-.798 2.376-.969-1.066-.724-4.05.798-2.376M12.599 22.247l.28.018c.703.047 1.004 1.455 1.042 1.953.044.571-.043 1.456-.785 1.406-.094-.005-.186-.012-.281-.018-.702-.047-1.003-1.454-1.042-1.952-.044-.57.044-1.457.786-1.407M20.445 6.99c.395-.764.252-1.623-.32-1.919-.573-.296-1.358.081-1.753.844-.395.763-.252 1.623.32 1.92.572.295 1.357-.082 1.753-.845" fill="#f4abba"/></g></svg>