<svg xmlns="http://www.w3.org/2000/svg" viewBox="0 0 45 45"><defs><clipPath id="a"><path d="M0 36h36V0H0v36z"/></clipPath></defs><g clip-path="url(#a)" transform="matrix(1.25 0 0 -1.25 0 45)"><path d="M36 13c0-5.523-8.059-10-18-10S0 7.477 0 13s8.059 10 18 10 18-4.477 18-10" fill="#939598"/><path d="M36 15c0-5.523-8.059-10-18-10S0 9.477 0 15s8.059 10 18 10 18-4.477 18-10" fill="#f1f2f2"/><path d="M32.8 15.389c0-4.202-6.626-7.611-14.8-7.611s-14.8 3.409-14.8 7.61C3.2 19.593 9.826 23 18 23s14.8-3.408 14.8-7.611" fill="#f4900c"/><path d="M13 12c-3.75 0-10 2.063-10 5.5 0 4.125 3.828 8.938 10 8.938 6.172 0 10-5.5 10-8.938 0-3.437-5.625-5.5-10-5.5" fill="#eee"/><path d="M4.64 17.18a.674.674 0 1 0 .51 1.248l1.248-.509a.675.675 0 0 0-.509-1.249l-1.249.51zM8.344 20.612a.675.675 0 0 0-.763 1.112l1.114.762a.674.674 0 1 0 .761-1.112l-1.112-.762zM17.344 15.612a.675.675 0 0 0-.763 1.112l1.114.762a.674.674 0 1 0 .761-1.11l-1.112-.764zM11.696 17.453a1 1 0 1 0 .755 1.853l1.852-.756a1 1 0 1 0-.755-1.851l-1.852.754zM16.64 21.18a.675.675 0 0 0 .508 1.249l1.25-.51a.674.674 0 0 0-.51-1.249l-1.247.51zM10.907 15.418a.675.675 0 1 0 .479-1.259l-1.261-.48a.672.672 0 0 0-.868.39.673.673 0 0 0 .39.871l1.26.478z" fill="#ccd6dd"/><path d="M30 17a2 2 0 0 0-2-2h-1a2 2 0 0 0 0 4h1a2 2 0 0 0 2-2M27 12.5a1.5 1.5 0 0 0-1.5-1.5h-1a1.5 1.5 0 0 0 0 3h1a1.5 1.5 0 0 0 1.5-1.5M21 10a1 1 0 0 0-1-1h-1a1 1 0 1 0 0 2h1a1 1 0 0 0 1-1" fill="#ffd983"/></g></svg>