<svg xmlns="http://www.w3.org/2000/svg" viewBox="0 0 45 45"><defs><clipPath id="a"><path d="M0 36h36V0H0v36z"/></clipPath></defs><g clip-path="url(#a)" transform="matrix(1.25 0 0 -1.25 0 45)"><path d="M14.017 25.632l-5.844 5.844a2.582 2.582 0 0 1-3.812 3.48 2.585 2.585 0 0 1-.715-2.283 2.585 2.585 0 0 1-2.282-.716 2.59 2.59 0 0 1 0-3.662 2.582 2.582 0 0 1 3.48-.149l5.843-5.844 3.33 3.33zM25.936 13.713l5.845-5.844a2.58 2.58 0 0 0 3.478-.15 2.587 2.587 0 0 0-2.282-4.377A2.587 2.587 0 0 0 28.6 1.06a2.579 2.579 0 0 0-.15 3.478l-5.845 5.844 3.33 3.33z" fill="#ffd983"/><path d="M30.02 20.121c-1.632 1.633-4.113 1.544-6.234 3.665-2.12 2.121-2.033 4.602-3.665 6.235-3.515 3.515-7.018 1.467-11.314-2.829S2.464 19.394 5.978 15.88c1.633-1.633 4.114-1.544 6.235-3.665 2.122-2.12 2.033-4.603 3.665-6.235 3.515-3.514 7.018-1.467 11.314 2.83 4.296 4.294 6.343 7.797 2.828 11.312" fill="#c1694f"/><path d="M14 13a1 1 0 0 0-.949 1.316c1.11 3.328 5.305 7.523 8.633 8.633a1 1 0 1 0 .632-1.898c-2.685-.895-6.472-4.682-7.367-7.367A1.001 1.001 0 0 0 14 13" fill="#662113"/></g></svg>