<svg xmlns="http://www.w3.org/2000/svg" viewBox="0 0 45 45"><defs><clipPath id="a"><path d="M0 36h36V0H0v36z"/></clipPath><clipPath id="b"><path d="M1 18C1 8.611 8.609 1 18 1s17 7.611 17 17-7.609 17-17 17S1 27.389 1 18"/></clipPath></defs><g clip-path="url(#a)" transform="matrix(1.25 0 0 -1.25 0 45)"><path d="M35 18c0-9.389-7.609-17-17-17S1 8.611 1 18s7.609 17 17 17 17-7.611 17-17" fill="#c1694f"/><path d="M27.258 8.358a1.012 1.012 0 0 0-1.145 1.669l1.67 1.144a1.012 1.012 0 0 0 1.143-1.668l-1.668-1.145zM29.696 15.453a.998.998 0 0 0-.549 1.303c.21.511.793.757 1.304.55l1.852-.756a1 1 0 1 0-.755-1.852l-1.852.755zM25.202 20.709a1.011 1.011 0 1 0 .762 1.874l1.875-.764a1.012 1.012 0 0 0-.765-1.873l-1.872.763zM4.201 13.709a1.012 1.012 0 0 0 .764 1.874l1.873-.764a1.012 1.012 0 0 0-.763-1.874l-1.874.764zM7.758 19.858a1.011 1.011 0 1 0-1.145 1.669l1.67 1.144a1.012 1.012 0 0 0 1.143-1.669l-1.668-1.144zM16.786 16.12a1.5 1.5 0 1 0 1.132 2.778l2.778-1.133a1.5 1.5 0 1 0-1.132-2.778l-2.778 1.132zM10.602 10.067a1.011 1.011 0 1 0 .718-1.889l-1.892-.72a1.008 1.008 0 0 0-1.302.586c-.2.523.063 1.106.585 1.306l1.89.717z" fill="#e29386"/></g><g clip-path="url(#b)" transform="matrix(1.25 0 0 -1.25 0 45)"><path d="M26 3a2 2 0 0 0-2-2H12a2 2 0 0 0-2 2v12a2 2 0 0 0 2 2h12a2 2 0 0 0 2-2V3z" fill="#292f33"/></g></svg>