<svg xmlns="http://www.w3.org/2000/svg" viewBox="0 0 45 45"><defs><clipPath id="a"><path d="M0 36h36V0H0v36z"/></clipPath></defs><g clip-path="url(#a)" transform="matrix(1.25 0 0 -1.25 0 45)"><path d="M18 0C3.042 0 1 15 1 19h34c0-2-1.958-19-17-19" fill="#dd2e44"/><path d="M35 18.944C35 13.728 27.389 9.5 18 9.5S1 13.728 1 18.944c0 5.216 7.611 9.444 17 9.444s17-4.228 17-9.444" fill="#a0041e"/><path d="M18 11c-6 0-16 3-16 8 0 6 6.125 13 16 13s16-8 16-13-9-8-16-8" fill="#e6e9ea"/><path d="M15.41 16.108a1 1 0 0 0-1.302-1.519l-1.518 1.302a1 1 0 0 0 1.301 1.52l1.52-1.303zM7.283 17.615a1 1 0 0 0-1.668 1.103l1.102 1.668a1 1 0 1 0 1.669-1.102l-1.103-1.669zM30.283 17.615a1 1 0 0 0-1.669 1.103l1.103 1.668a.999.999 0 1 0 1.668-1.102l-1.102-1.669zM24.18 21.22a1.001 1.001 0 0 0-1.96-.399l-.4 1.96a.999.999 0 1 0 1.96.4l.4-1.96zM16.64 25.18a.674.674 0 1 0 .51 1.248l1.248-.509a.675.675 0 0 0-.509-1.249l-1.249.51zM7.344 23.612a.675.675 0 0 0-.763 1.112l1.114.762a.674.674 0 1 0 .761-1.112l-1.112-.762zM20.936 15.067a1.001 1.001 0 0 0 .13 1.997l1.997-.13a1 1 0 1 0-.13-1.996l-1.997.13zM11.696 21.453a1 1 0 1 0 .755 1.853l1.852-.756a1 1 0 1 0-.755-1.851l-1.852.754zM27.64 24.18a.675.675 0 0 0 .508 1.249l1.25-.51a.674.674 0 0 0-.51-1.249l-1.247.51z" fill="#ccd6dd"/></g></svg>