<svg xmlns="http://www.w3.org/2000/svg" viewBox="0 0 45 45"><defs><clipPath id="a"><path d="M0 36h36V0H0v36z"/></clipPath></defs><g clip-path="url(#a)" transform="matrix(1.25 0 0 -1.25 0 45)"><path d="M31 14C28 3 25.981 0 18 0 10 0 8 3 5 14c-2.035 7.46 2 14 13 14s15.034-6.54 13-14" fill="#f4900c"/><path d="M29 25c2-4-3-8-11-8S5 21 7 25c1.482 2.964 4.373 6 11 6s9.519-3.036 11-6" fill="#be1931"/><path d="M30 25c0-4-5.373-6-12-6S6 21 6 25c0 3.313 5.373 6 12 6s12-2.687 12-6" fill="#ffac33"/><path d="M27 26c1-1 2-2 2-3s-1-3-2-2c0 0 2.948-1.154 2-4-1-3-4-2-4 0s-1.553 3.342-2 2c-1-3-3-3-4-2s-1 2-1 2-3 0-2 2 0 2 0 2 0 1 1 1 7 1 8 2 2 0 2 0" fill="#ffe8b6"/><path d="M28 26.722C28 24.114 23.523 22 18 22S8 24.114 8 26.722C8 29.33 12.477 31 18 31s10-1.67 10-4.278" fill="#662113"/><path d="M18 22c4.548 0 8.379 1.435 9.593 3.396-.193.202-.392.403-.593.604 0 0-2 2-3 1s-6-1-7-1-2-1-2-1 1.587-2.011 1.398-2.934C16.92 22.026 17.453 22 18 22" fill="#f4900c"/><path d="M26 27.5c0-1.933-3.582-3.5-8-3.5-4.419 0-8 1.567-8 3.5s3.581 5.5 8 5.5c4.418 0 8-3.567 8-5.5" fill="#ffcc4d"/><path d="M20 33.5c0-.828-.895-1.5-2-1.5-1.104 0-2 .672-2 1.5s.896 1.5 2 1.5c1.105 0 2-.672 2-1.5" fill="#f4900c"/><path d="M5.685 11.59C6.41 9.133 7.11 7.154 7.89 5.577 11 3 16 3 18 3s7 0 10.106 2.576c.781 1.577 1.483 3.556 2.208 6.014C27.61 10.028 23.112 9 18 9s-9.61 1.028-12.315 2.59" fill="#ffcc4d"/></g></svg>