<svg xmlns="http://www.w3.org/2000/svg" viewBox="0 0 45 45"><defs><clipPath id="a"><path d="M0 36h36V0H0v36z"/></clipPath><clipPath id="b"><path d="M18.917 23H5.999c-1.175 0-3.739-.493-3.071-2.895C5.71 10.1 16 7.375 16 7.375V6.202s-4.634-2.444-5.588-3.01c-1.027-.587-.267-1.526.144-1.688.684-.269 2.39-1.15 7.115-1.15 4.848 0 7.497.954 8.084 1.15.226.075 1.197.973-.199 1.799C23.073 4.773 20 6.202 20 6.202v1.173S30.661 10.1 33.357 20.281c.396 1.494-1.52 2.719-3.869 2.719H18.917z"/></clipPath><clipPath id="c"><path d="M0 36h36V0H0v36z"/></clipPath></defs><g clip-path="url(#a)" transform="matrix(1.25 0 0 -1.25 0 45)"><path d="M20 7.375S30.661 10.1 33.356 20.28c.397 1.495-1.518 2.72-3.868 2.72H6c-1.176 0-3.74-.493-3.072-2.895C5.711 10.1 16 7.375 16 7.375V6.202s-4.634-2.443-5.588-3.01c-1.027-.587-.267-1.526.144-1.688.684-.27 2.389-1.15 7.115-1.15 4.848 0 7.497.954 8.084 1.15.226.075 1.197.973-.198 1.799C23.073 4.773 20 6.202 20 6.202v1.173z" fill="#55acee"/><path d="M33.291 20.752c0-1.692-6.835-3.063-15.269-3.063-8.432 0-15.268 1.371-15.268 3.063 0 1.693 6.836 3.064 15.268 3.064 8.434 0 15.269-1.371 15.269-3.064" fill="#3b88c3"/><path d="M25.982 29.092c0-1.613-3.133-4.745-7.832-4.745-4.325 0-7.83 2.088-7.83 4.745 0 4.325 3.505 6.787 7.83 6.787 4.326 0 7.832-2.462 7.832-6.787" fill="#f4abba"/><path d="M33.291 21.783c0-1.613-3.132-4.223-7.83-4.223-4.326 0-7.833-1.393-7.833 4.223a7.832 7.832 0 0 0 15.663 0" fill="#ffe8b6"/><path d="M18.672 21.783c0-5.182-3.132-4.31-7.83-4.31-4.325 0-7.83 1.653-7.83 4.31a7.83 7.83 0 1 0 15.66 0" fill="#8a4b38"/></g><g clip-path="url(#b)" transform="matrix(1.25 0 0 -1.25 0 45)"><path d="M2.75 18.777c1.915-.609 16.185-5.264 31.281.523.087-.827-.219-3.743-1.436-3.959-1.218-.217-14.232-4.497-28.762.201-.392.435-1.083 3.235-1.083 3.235" fill="#3b88c3"/></g><g clip-path="url(#c)" transform="matrix(1.25 0 0 -1.25 0 45)"><path d="M2.837 20.823c1.396-.6 15.488-5.046 30.498-.087 0-.653-.411-2.477-.653-3.176-.391-1.132-15.401-4.83-28.888-.261-.392.174-1.566 3.785-.957 3.524" fill="#55acee"/></g></svg>