<svg xmlns="http://www.w3.org/2000/svg" viewBox="0 0 45 45"><defs><clipPath id="a"><path d="M0 36h36V0H0v36z"/></clipPath></defs><g clip-path="url(#a)" transform="matrix(1.25 0 0 -1.25 0 45)"><path d="M35.066.934a1.958 1.958 0 0 0-2.77 0L12.197 21.03a1.96 1.96 0 1 0 2.772 2.773L35.066 3.705a1.958 1.958 0 0 0 0-2.771" fill="#ffac33"/><path d="M27.8 21.92c0-7.576-6.142-13.72-13.72-13.72C6.503 8.2.36 14.344.36 21.92c0 7.578 6.143 13.72 13.72 13.72 7.578 0 13.72-6.142 13.72-13.72" fill="#dd2e44"/><path d="M16.086 21.172a.978.978 0 0 1 .376.356 1.815 1.815 0 0 0-.946-1.378 1.252 1.252 0 0 0-.957-.093 1.247 1.247 0 0 0-.743.611.81.81 0 0 0 .333 1.094.453.453 0 0 0 .611-.186.979.979 0 0 1 1.326-.404M17.41 8.624a12.35 12.35 0 0 0-4.38.503 12.269 12.269 0 0 0-7.3 6.003 9.616 9.616 0 0 0-.718 7.376 9.613 9.613 0 0 0 4.706 5.723 7.49 7.49 0 0 0 5.752.561 7.494 7.494 0 0 0 4.463-3.67 5.804 5.804 0 0 0 .433-4.45 5.802 5.802 0 0 0-2.84-3.457 4.447 4.447 0 0 0-3.412-.332 4.449 4.449 0 0 0-2.648 2.177 3.391 3.391 0 0 0 1.395 4.583 2.486 2.486 0 0 0 1.915.187c.23-.07.447-.17.644-.3a2.41 2.41 0 0 1-2.194-.037 2.772 2.772 0 0 1-1.14-3.746 3.197 3.197 0 0 1 1.9-1.564 3.193 3.193 0 0 1 2.45.24 3.78 3.78 0 0 1 1.556 5.107 4.44 4.44 0 0 1-2.645 2.175 4.446 4.446 0 0 1-3.408-.332 5.354 5.354 0 0 1-2.202-7.236 6.393 6.393 0 0 1 3.806-3.129 6.404 6.404 0 0 1 4.906.478 7.754 7.754 0 0 1 3.794 4.614 7.762 7.762 0 0 1-.58 5.945 9.453 9.453 0 0 1-5.622 4.623 9.444 9.444 0 0 1-7.245-.707 11.571 11.571 0 0 1-5.66-6.883 11.566 11.566 0 0 1 .866-8.869 14.248 14.248 0 0 1 3.623-4.392A13.651 13.651 0 0 1 14.08 8.2a13.7 13.7 0 0 1 3.33.424" fill="#f4900c"/><path d="M14.656 21.498a.57.57 0 0 0-.297-.318 1.097 1.097 0 0 1 .026-2.015 2.194 2.194 0 0 0-.597.134c-.54.204-.97.606-1.206 1.133a1.495 1.495 0 0 0-.036 1.154c.142.376.423.676.79.841a.972.972 0 0 0 .755.024.982.982 0 0 0 .55-.517.569.569 0 0 0 .015-.436m9.859 6.003c-1.57 3.473-6.117 7.313-11.772 7.935-.212.023-.423.033-.633.047a13.69 13.69 0 0 1-8.871-5.176c3.382 2.808 6.776 3.214 9.264 2.943 4.837-.532 8.695-3.75 10.007-6.654 2.009-4.448.023-9.702-4.424-11.71a6.807 6.807 0 0 0-5.247-.165 6.806 6.806 0 0 0-3.83 3.594 5.275 5.275 0 0 0 2.633 6.97c2.007.906 4.38.01 5.286-1.996a2.984 2.984 0 0 0-.822-3.524c.263.27.47.593.607.956a2.754 2.754 0 0 1-.067 2.118 3.163 3.163 0 0 1-1.777 1.669 3.16 3.16 0 0 1-2.437-.077 3.683 3.683 0 0 1-1.944-2.068 3.688 3.688 0 0 1 .09-2.837 4.333 4.333 0 0 1 2.432-2.284 4.337 4.337 0 0 1 3.336.105 5.184 5.184 0 0 1 2.586 6.847c-1.405 3.111-5.083 4.497-8.195 3.095-3.752-1.696-5.425-6.128-3.731-9.88a8.997 8.997 0 0 1 5.056-4.745 9.064 9.064 0 0 1 3.205-.59c1.268 0 2.534.27 3.725.808 5.55 2.509 8.03 9.066 5.523 14.619" fill="#ffcc4d"/></g></svg>