<svg xmlns="http://www.w3.org/2000/svg" viewBox="0 0 45 45"><defs><clipPath id="a"><path d="M0 36h36V0H0v36z"/></clipPath><clipPath id="b"><path d="M10.076 34.324L1.59 25.839c-1.562-1.562-1.562-2.681 0-4.243L20.682 2.504a4 4 0 0 1 5.657 0l7.071 7.071a4.002 4.002 0 0 1 0 5.657L14.318 34.324c-.781.781-1.451 1.172-2.122 1.172-.67 0-1.34-.391-2.12-1.172"/></clipPath><clipPath id="c"><path d="M0 36h36V0H0v36z"/></clipPath><clipPath id="d"><path d="M19.267 25.132l-8.484-8.486a4 4 0 0 1 0-5.657l9.899-9.899A3.985 3.985 0 0 1 22.706 0h1.608a3.984 3.984 0 0 1 2.025 1.09l8.486 8.485a4.002 4.002 0 0 1 0 5.657l-9.9 9.9a3.99 3.99 0 0 1-2.829 1.171 3.991 3.991 0 0 1-2.829-1.171"/></clipPath><clipPath id="e"><path d="M0 36h36V0H0v36z"/></clipPath></defs><g clip-path="url(#a)" transform="matrix(1.25 0 0 -1.25 0 45)"><path d="M26.339 2.504a4 4 0 0 0-5.657 0L1.59 21.596c-1.562 1.562-1.562 2.68 0 4.243l8.485 8.485c1.562 1.562 2.68 1.562 4.243 0L33.41 15.233a4.002 4.002 0 0 0 0-5.658l-7.071-7.071z" fill="#c1694f"/></g><g clip-path="url(#b)" transform="matrix(1.25 0 0 -1.25 0 45)"><path d="M31.996 5.333L11.697 25.632l5.863 5.864-1.414 1.414-5.863-5.864-4.45 4.45-1.415-1.414 4.451-4.45-7.572-7.572 1.414-1.414 7.572 7.572 20.3-20.299 1.413 1.414z" fill="#8a4b38"/></g><g clip-path="url(#c)" transform="matrix(1.25 0 0 -1.25 0 45)"><path d="M26.339 1.09a4.002 4.002 0 0 0-5.657 0l-9.9 9.9a4 4 0 0 0 0 5.657l8.486 8.485a4 4 0 0 0 5.657 0l9.899-9.9a4.002 4.002 0 0 0 0-5.657L26.339 1.09z" fill="#dd2e44"/></g><g clip-path="url(#d)" transform="matrix(1.25 0 0 -1.25 0 45)"><path d="M26 26L17 3l-6 3 13 21 2-1z" fill="#be1931"/></g><g clip-path="url(#e)" transform="matrix(1.25 0 0 -1.25 0 45)"><path d="M22.804 27.253l2.12-2.121c-.706-2.122-8.484-15.557-9.9-18.385 0 0-.706-2.121-2.473-.353-1.242 1.24-3.703 3.702-5.304 5.303-.68.679-.685 2.143 0 2.828l12.728 12.728c1.414 1.415 2.829 0 2.829 0" fill="#ccd6dd"/></g></svg>