<svg xmlns="http://www.w3.org/2000/svg" viewBox="0 0 45 45"><defs><clipPath id="a"><path d="M0 36h36V0H0v36z"/></clipPath><clipPath id="b"><path d="M17.182 13H9.818s1.353-6.5 2.351-9.752C13.168-.006 16.773 0 17.591 0c1.636 0 4.425-.006 5.423 3.248C24.01 6.5 26.183 13 26.183 13h-9.001z"/></clipPath><clipPath id="c"><path d="M0 36h36V0H0v36z"/></clipPath><clipPath id="d"><path d="M19.594 31.425l-7.874-2.939.001-.002c-1.384-.517-2.361-1.767-2.361-3.23 0-1.924 1.691-3.485 3.775-3.485 4.74 0 9.575 3.069 9.575 3.069 1.81 1.071 2.581 2.878 1.799 4.663-.594 1.356-2.009 2.179-3.501 2.179a4.04 4.04 0 0 1-1.414-.255"/></clipPath><clipPath id="e"><path d="M20.27 27.657l-10.211-4.008.001-.001C8.266 22.944 7 21.239 7 19.247c0-2.624 2.192-4.751 4.895-4.751 6.145 0 12.417 4.183 12.417 4.183 2.345 1.459 3.345 3.923 2.332 6.355-.771 1.849-2.605 2.97-4.541 2.97a5.006 5.006 0 0 1-1.833-.347"/></clipPath><clipPath id="f"><path d="M13.143 32.015v-.001a2.205 2.205 0 0 1 .827-4.25c2.769 0 5.596 1.942 5.596 1.942 1.056.678 2.143 1.873 2.143 1.873s.749 1.667-1.625 1.667c-3.562 0-6.941-1.231-6.941-1.231"/></clipPath></defs><g clip-path="url(#a)" transform="matrix(1.25 0 0 -1.25 0 45)"><path d="M27 16c0-1.657-4.03-3-9-3s-9 1.343-9 3 4.03 3 9 3 9-1.343 9-3M17.182 13H9.819s1.352-6.5 2.35-9.752C13.168-.006 16.774 0 17.592 0c1.635 0 4.424-.006 5.422 3.248C24.01 6.5 26.183 13 26.183 13h-9.001z" fill="#ffcc4d"/></g><g clip-path="url(#b)" transform="matrix(1.25 0 0 -1.25 0 45)"><path d="M26.183 11.5c0-1.657-2.76-3.5-8.183-3.5-5.422 0-8.181 1.843-8.181 3.5s2.759 3 8.18 3c5.424 0 8.184-1.343 8.184-3" fill="#ffac33"/></g><g clip-path="url(#c)" transform="matrix(1.25 0 0 -1.25 0 45)"><path d="M9 16v-3c0-1.657 4.03-3 9-3s9 1.343 9 3v3H9z" fill="#ffcc4d"/><path d="M26.183 15.5c0-1.381-3.664-2.5-8.183-2.5-4.52 0-8.181 1.119-8.181 2.5s3.662 2.5 8.18 2.5c4.52 0 8.184-1.119 8.184-2.5" fill="#f4900c"/><path d="M28.375 18.85a4.354 4.354 0 0 1-4.354 4.355c-2.405 0-14.188-4.804-14.188-7.209 0-2.404 8.084-2.329 13.751-1.37 2.371.4 4.791 1.82 4.791 4.224" fill="#ffe8b6"/><path d="M26.644 25.034c-1.014 2.432-3.868 3.606-6.374 2.623L10.06 23.65C8.268 22.942 7 21.238 7 19.245c0-2.623 2.192-4.75 4.895-4.75 6.145 0 12.417 4.183 12.417 4.183 2.346 1.46 3.346 3.923 2.332 6.355" fill="#ffe8b6"/><path d="M24.509 29.501c-.781 1.784-2.982 2.646-4.915 1.924l-7.874-2.939v-.002c-1.383-.517-2.36-1.767-2.36-3.23 0-1.924 1.69-3.484 3.775-3.484 4.74 0 9.575 3.068 9.575 3.068 1.81 1.071 2.58 2.879 1.799 4.663" fill="#ffe8b6"/><path d="M20.694 31.08s.593 1.78-1.78 1.78c-3.563 0-5.772-.845-5.772-.845a2.206 2.206 0 0 1 .827-4.25c2.77 0 5.597 1.941 5.597 1.941 1.056.678 1.128 1.373 1.128 1.373" fill="#ffe8b6"/><path d="M16.982 35.861c1.781-2.375 4.156-1.177 4.751-2.959.562-1.689-1.19-2.374-1.19-2.374h-4.748s-1.782 3.552 1.187 5.333" fill="#ffe8b6"/></g><g clip-path="url(#d)" transform="matrix(1.25 0 0 -1.25 0 45)"><path d="M9.167 23.621c3.417 0 9.708 1.125 16.5 5.833 2.103 1.458 3.667-.875 2-2.458C26 25.413 13.584 19.58 9.334 20.371c-4.25.792-.167 3.25-.167 3.25" fill="#ffd983"/></g><g clip-path="url(#e)" transform="matrix(1.25 0 0 -1.25 0 45)"><path d="M6.792 17.663c1.542-.708 5.458-.583 7.958.125S26 21.33 27.292 24.455c1.292 3.125 2.833.583 2.458-1.792S18.584 11.205 13.459 12.289c-5.125 1.082-8.334.79-8.667 2.582-.333 1.793 2 2.792 2 2.792" fill="#ffd983"/></g><g clip-path="url(#f)" transform="matrix(1.25 0 0 -1.25 0 45)"><path d="M11.5 29.455c2.417-.25 10.333 2.292 10.5 4.375.167 2.083 1.625-1.75 1.125-2.417-.5-.666-9.958-5.708-13.375-3.5-3.417 2.209 1.75 1.542 1.75 1.542" fill="#ffd983"/></g></svg>