<svg xmlns="http://www.w3.org/2000/svg" viewBox="0 0 45 45"><defs><clipPath id="a"><path d="M0 36h36V0H0v36z"/></clipPath></defs><g clip-path="url(#a)" transform="matrix(1.25 0 0 -1.25 0 45)"><path d="M35.337 12.451c-1.046-6.27-7.722-10.45-17.245-10.45S1.894 6.18.849 12.45c-.247 1.48.156 8.12 1.054 9.406 2.559 3.663 3.474-10.365 16.189-10.365 13.848 0 13.64 14.028 16.199 10.365.899-1.286 1.292-7.927 1.046-9.406" fill="#ffac33"/><path d="M18.092 16.63c-3.174 0-5.748.703-5.748 1.569s2.574 1.567 5.748 1.567c3.173 0 5.747-.701 5.747-1.567s-2.574-1.568-5.747-1.568m0 13.374c-9.33 0-16.895-4.584-16.895-10.24 0-5.654 7.564-10.24 16.895-10.24 9.33 0 16.895 4.586 16.895 10.24 0 5.656-7.565 10.24-16.895 10.24" fill="#8a4b38"/><path d="M1.72 21.377c-.653-1.045-.92-5.494.479-7.577 2.134-3.179 3.178-1.567 4.746-2.046C9.28 11.04 9.453 9.194 11.3 8.27c2.09-1.045 3.305-.74 6.27 0 4.18 1.045 6.837-1.088 9.405 0 2.106.893 3.31 4.137 4.486 4.528 3.728 1.243 4.515 7.125 1.74 9.538-.87-1.83-5.136-8.405-7.88-8.71-2.744-.305-10.973-1-14.456.784-3.484 1.785-7.011 4.006-7.447 4.615-.435.61-1.698 2.352-1.698 2.352" fill="#8a4b38"/><path d="M18.092 22.118c-3.752 0-6.793-1.228-6.793-2.743 0-.59.463-1.134 1.245-1.58-.126.13-.2.264-.2.404 0 .866 2.574 1.567 5.748 1.567 3.173 0 5.747-.701 5.747-1.567 0-.14-.073-.274-.2-.404.783.446 1.246.99 1.246 1.58 0 1.515-3.042 2.743-6.793 2.743" fill="#f4900c"/><path d="M4.42 17.85a1.044 1.044 0 0 0-.489 1.969l2.308 1.22a1.044 1.044 0 0 0 1.412-.435c.27-.51.075-1.143-.436-1.412l-2.308-1.22a1.028 1.028 0 0 0-.487-.122M16.307 10.056c-.41 0-.799.242-.966.646l-.74 1.786a1.045 1.045 0 1 0 1.931.798l.74-1.786a1.044 1.044 0 0 0-.965-1.444" fill="#f4abba"/><path d="M28.151 14.236a1.043 1.043 0 0 0-.898 1.576l1.131 1.916a1.044 1.044 0 1 0 1.799-1.063l-1.132-1.915a1.043 1.043 0 0 0-.9-.514" fill="#55acee"/><path d="M29.893 22c-.56 0-1.023.481-1.043 1.046-.02.576.43 1.079 1.007 1.1l1.218.052c.587.007 1.06-.427 1.08-1.004.02-.576-.43-1.095-1.006-1.116L29.93 22h-.038zM19.792 26.123a1.047 1.047 0 0 0-.315 2.042l.826.261a1.045 1.045 0 1 0 .631-1.993l-.827-.26a1.05 1.05 0 0 0-.315-.05" fill="#f4abba"/><path d="M13.998 24.426c-.157 0-.316.036-.466.11l-.784.392a1.046 1.046 0 0 0 .934 1.87l.784-.392a1.045 1.045 0 0 0-.468-1.98M23.1 11.146a1.05 1.05 0 0 0-.465.11l-.784.39a1.045 1.045 0 1 0 .932 1.871l.784-.39a1.046 1.046 0 0 0-.467-1.98" fill="#88c9f9"/><path d="M9.426 13.452a1.045 1.045 0 0 0-.96 1.457l.392.914A1.044 1.044 0 1 0 10.78 15l-.392-.914a1.046 1.046 0 0 0-.96-.633M25.018 23.337a1.045 1.045 0 0 0-.42 2.003l.696.305a1.043 1.043 0 0 0 1.376-.54 1.044 1.044 0 0 0-.538-1.375l-.696-.305a1.036 1.036 0 0 0-.418-.088M8.035 23.38c-.078 0-.157.01-.235.027l-.566.13a1.045 1.045 0 0 0 .468 2.037l.566-.13a1.046 1.046 0 0 0-.233-2.064" fill="#55acee"/></g></svg>