<svg xmlns="http://www.w3.org/2000/svg" viewBox="0 0 45 45"><defs><clipPath id="a"><path d="M0 36h36V0H0v36z"/></clipPath><clipPath id="b"><path d="M15.85 33.617c-.063-.176-.302-.519-.532-.851-.679-.978-1.609-2.319-1.212-3.52.221-.669.814-1.17 1.763-1.491 1.893-.639 5.829-3.862 6.601-7.744a6.31 6.31 0 0 0-.144-3.105c-1.624 3.03-4.566 4.937-8.157 4.937-5.814 0-9.528-4.786-9.528-10.67C4.641 6.218 8.355.502 14.169.502c.028 0 .057.004.086.004L14.346.5a38.424 38.424 0 0 1 2.826-.113c6.086 0 13.838 1.729 16.201 9.968 1.555 5.419.422 11.69-2.959 16.365-2.266 3.135-6.545 6.935-14.066 7.232l-.372.016-.126-.351z"/></clipPath><clipPath id="c"><path d="M4.765 35.562c-1.421-.065-2.508-.791-2.768-1.848-.122-.498-.21-1.771 1.624-2.84.551-.322.887-.661.899-.908.011-.234-.261-.711-1.062-1.283-.794-.567-1.119-1.443-.85-2.284.331-1.033 1.468-1.727 2.828-1.727.744 0 1.513.196 2.285.581 1.996.998 4.682 1.643 6.844 1.643 1.066 0 1.971-.15 2.689-.445a2.777 2.777 0 0 1 1.053-.225h.001a2.11 2.11 0 0 1 1.599.721c1.335 1.477 1.058 4.981.988 5.668a1.014 1.014 0 0 1-.782.889c-1.595.368-12.769 2.061-15.153 2.061l-.195-.003z"/></clipPath></defs><g clip-path="url(#a)" transform="matrix(1.25 0 0 -1.25 0 45)"><path d="M30.414 26.72c-2.266 3.135-6.545 6.934-14.066 7.232l-.372.016-.126-.35c-.064-.177-.302-.52-.532-.852-.679-.979-1.61-2.319-1.213-3.52.222-.669.815-1.17 1.764-1.49 1.893-.64 5.83-3.863 6.602-7.746a6.322 6.322 0 0 0-.145-3.105c-1.624 3.031-4.566 4.938-8.158 4.938-5.814 0-9.527-4.787-9.527-10.67 0-5.082 3.713-10.67 9.527-10.67.03 0 .058.003.087.003L14.346.5a38.303 38.303 0 0 1 2.826-.114c6.086 0 13.838 1.73 16.201 9.968 1.555 5.42.422 11.691-2.959 16.366" fill="#ffac33"/><path d="M5.436 24.671c-1.36 0-2.497.694-2.828 1.728-.269.841.056 1.717.85 2.284.801.571 1.072 1.048 1.062 1.283-.012.246-.348.586-.899.907-1.833 1.07-1.747 2.343-1.624 2.84.26 1.058 1.346 1.783 2.768 1.848l.195.004c2.384 0 13.559-1.693 15.153-2.06.425-.1.739-.457.782-.89.071-.687-3.635-1.88-.988-5.668.365-.522-.98-.722-1.599-.722h-.001c-.336 0-.691.076-1.053.225-.718.296-1.623.446-2.689.446-2.162 0-4.848-.645-6.844-1.644-.772-.385-1.541-.58-2.285-.58" fill="#ff839b"/></g><g clip-path="url(#b)" transform="matrix(1.25 0 0 -1.25 0 45)"><path d="M21.706 18.117c2.286-3.43 4.234-10.84-2.795-12.915-.17-.636 2.905-1.47 5.61 1.461 3.05 3.303 3.24 11.623-3.789 17.297-4.573 1.313.974-5.843.974-5.843M31.254 12.951c1.655.752 4.002 2.667 4.764 4.51.762 1.841 2.477-1.46.762-3.049-1.08-1.08-4.32-2.478-5.907-2.668-1.588-.19-1.017.571.38 1.207M30.873 29.592c.381-3.176 1.334-7.558-.89-9.591-2.222-2.032.101-1.333 1.398-.508 2.096 1.334 2.668 4.319 1.969 6.098-.699 1.778-2.477 4-2.477 4" fill="#f4900c"/></g><g clip-path="url(#c)" transform="matrix(1.25 0 0 -1.25 0 45)"><path d="M1.846 32.514c2.35-3.684 12.576-1.313.212-5.674-5.103-1.25-.212 5.674-.212 5.674" fill="#ea596e"/></g></svg>