<svg xmlns="http://www.w3.org/2000/svg" viewBox="0 0 45 45"><defs><clipPath id="a"><path d="M0 36h36V0H0v36z"/></clipPath></defs><g clip-path="url(#a)" transform="matrix(1.25 0 0 -1.25 0 45)"><path d="M33.875.772c-.314 0-.628.12-.868.36L2.366 31.771a1.228 1.228 0 1 0 1.736 1.737L34.743 2.87a1.228 1.228 0 0 0-.868-2.097" fill="#d99e82"/><path d="M15.254 27.373a6.752 6.752 0 1 0-13.504 0 6.752 6.752 0 0 0 13.504 0" fill="#fcb1e3"/><path d="M22.621 20.006a6.752 6.752 0 1 0-13.506 0 6.752 6.752 0 0 0 13.506 0" fill="#ffd983"/><path d="M29.987 12.64a6.754 6.754 0 0 0-13.505 0 6.753 6.753 0 0 0 13.505 0" fill="#a6d388"/><path d="M33.875.772c-.314 0-.628.12-.868.36l-7.52 7.52a1.228 1.228 0 0 0 1.737 1.736l7.519-7.52a1.228 1.228 0 0 0-.868-2.096" fill="#d99e82"/></g></svg>