<svg xmlns="http://www.w3.org/2000/svg" viewBox="0 0 45 45"><defs><clipPath id="a"><path d="M0 36h36V0H0v36z"/></clipPath></defs><g clip-path="url(#a)" transform="matrix(1.25 0 0 -1.25 0 45)"><path d="M36 13c0-5.523-8.059-10-18-10S0 7.477 0 13s8.059 10 18 10 18-4.477 18-10" fill="#939598"/><path d="M36 15c0-5.523-8.059-10-18-10S0 9.477 0 15s8.059 10 18 10 18-4.477 18-10" fill="#f1f2f2"/><path d="M31 16c0-3.988-5.82-7.223-13-7.223S5 12.012 5 16s5.82 7.222 13 7.222S31 19.988 31 16" fill="#c1694f"/><path d="M29 16c0-3.068-4.926-5.556-11-5.556-6.075 0-11 2.488-11 5.556s4.925 5.556 11 5.556c6.074 0 11-2.488 11-5.556" fill="#8a4b38"/><path d="M18 29c3.383 0 4.724-2 5.921-2 1.691 0 2.537-2 4.228-9 .698-2.885-4.228-6-10.149-6-5.92 0-10.846 3.115-10.149 6 1.691 7 2.537 9 4.229 9 1.195 0 2.537 2 5.92 2" fill="#ffcc4d"/><path d="M25.612 25c0-2.209-3.408-4-7.612-4-4.204 0-7.612 1.791-7.612 4s3.408 4 7.612 4c4.204 0 7.612-1.791 7.612-4" fill="#662113"/></g></svg>