<svg xmlns="http://www.w3.org/2000/svg" viewBox="0 0 45 45"><defs><clipPath id="a"><path d="M0 36h36V0H0v36z"/></clipPath><clipPath id="b"><path d="M22.795 7.428l.398-3.055c.532-4.074 5.629-4.3 6.249-2.126l.933 4.042 4.041.933c2.174.62 1.949 5.717-2.125 6.248l-3.055.399c-.324.042-.64.063-.948.063-3.565 0-5.982-2.754-5.493-6.504"/></clipPath><clipPath id="c"><path d="M7.051 34.587l-.935-4.041-4.041-.932c-2.174-.621-1.948-5.717 2.126-6.249l3.055-.399c4.073-.531 6.972 2.367 6.441 6.442l-.399 3.054c-.316 2.429-2.255 3.49-3.901 3.49-1.115 0-2.096-.487-2.346-1.365"/></clipPath><clipPath id="d"><path d="M0 36h36V0H0v36z"/></clipPath><clipPath id="e"><path d="M11.246 26.21c-4.159-4.161-4.159-10.905 0-15.064 4.161-4.159 10.905-4.159 15.064 0 4.159 4.159 4.159 10.903 0 15.064a10.62 10.62 0 0 1-7.532 3.118 10.62 10.62 0 0 1-7.532-3.118"/></clipPath></defs><g clip-path="url(#a)" transform="matrix(1.25 0 0 -1.25 0 45)"><path d="M13.298 32.462c-.53 4.075-5.627 4.3-6.248 2.125l-.934-4.04-4.04-.934C-.1 28.993.125 23.896 4.2 23.365l3.054-.399c4.074-.53 6.973 2.367 6.442 6.441l-.399 3.055zM32.291 13.47c4.074-.53 4.299-5.628 2.125-6.248l-4.041-.933-.934-4.042c-.62-2.174-5.716-1.948-6.248 2.126l-.398 3.055c-.531 4.074 2.367 6.973 6.441 6.44l3.055-.397z" fill="#dd2e44"/></g><g clip-path="url(#b)" transform="matrix(1.25 0 0 -1.25 0 45)"><path d="M21.554 15.902c-2.846-2.846-3.734-6.572-1.981-8.324 1.75-1.75 5.477-.864 8.323 1.982 2.847 2.846 3.733 6.574 1.982 8.324-1.752 1.752-5.478.864-8.324-1.982" fill="#be1931"/></g><g clip-path="url(#c)" transform="matrix(1.25 0 0 -1.25 0 45)"><path d="M9.662 27.794c-2.846-2.846-3.733-6.573-1.982-8.324 1.752-1.752 5.478-.864 8.324 1.982 2.847 2.846 3.734 6.572 1.982 8.324-1.751 1.751-5.478.864-8.324-1.982" fill="#be1931"/></g><g clip-path="url(#d)" transform="matrix(1.25 0 0 -1.25 0 45)"><path d="M26.31 11.146c-4.16-4.16-10.903-4.16-15.063 0s-4.16 10.903 0 15.063 10.904 4.16 15.063 0c4.16-4.16 4.16-10.904 0-15.063" fill="#dd2e44"/></g><g clip-path="url(#e)" transform="matrix(1.25 0 0 -1.25 0 45)"><path d="M18.709 18.959c-4.184-2.535-11.27-3.17-12.486 1.679-1.162-2.767-1.21-5.46.246-7.157 1.457-1.697 8.22-1.51 12.24 5.478" fill="#f5f8fa"/><path d="M18.75 19c.643-4.85-2.532-12.044-7.461-11.212 2.066-2.175 4.514-3.3 6.652-2.646 2.14.653 5.596 7.372.809 13.858" fill="#f5f8fa"/><path d="M18.75 19c4.65-.867 8.234-5.483 6.392-10.132 2.557 1.568 5.114 2.564 4.922 4.791-.193 2.227-3.97 8.669-11.314 5.341" fill="#f5f8fa"/><path d="M18.75 19c1.541 3.333 8.285 6.246 12.168 3.096-.729 2.91-.734 5.42-2.918 5.904-2.183.484-10.226-.997-9.25-9" fill="#f5f8fa"/><path d="M18.791 18.959C14.916 21 13 27 17 30c-3 0-6 0-7-2s.792-8.042 8.792-9.042" fill="#f5f8fa"/><path d="M26.31 11.146c-4.16-4.16-10.903-4.16-15.063 0s-4.16 10.903 0 15.063 10.904 4.16 15.063 0c4.16-4.16 4.16-10.904 0-15.063z" fill="none" stroke="#dd2e44" stroke-width="3" stroke-miterlimit="10"/></g></svg>