<svg xmlns="http://www.w3.org/2000/svg" viewBox="0 0 45 45"><defs><clipPath id="a"><path d="M0 36h36V0H0v36z"/></clipPath></defs><g clip-path="url(#a)" transform="matrix(1.25 0 0 -1.25 0 45)"><path d="M33.884.77c-.314 0-.63.12-.87.36L2.33 31.816a1.229 1.229 0 1 0 1.739 1.738L34.753 2.87a1.228 1.228 0 0 0-.87-2.1" fill="#d99e82"/><path d="M6.729 32.954c-2.651.536-4.261-1.167-3.578-3.784l1.843-7.055c.684-2.617 2.808-3.193 4.72-1.28l6.102 6.102c1.912 1.913 1.309 3.916-1.343 4.452L6.73 32.954z" fill="#66757f"/><path d="M22.614 20.032a6.761 6.761 0 0 0-6.762-6.761 6.761 6.761 0 1 0 0 13.523 6.762 6.762 0 0 0 6.762-6.762" fill="#d99e82"/><path d="M22.052 5.293a2.459 2.459 0 0 0-3.477 0l-3.478 3.478a2.46 2.46 0 0 0 0 3.476l8.693 8.693a2.46 2.46 0 0 0 3.478 0l3.477-3.477a2.46 2.46 0 0 0 0-3.478l-8.693-8.692z" fill="#ccd6dd"/><path d="M33.884.77c-.314 0-.63.12-.87.36l-9.117 9.12a1.229 1.229 0 1 0 1.738 1.738l9.118-9.118a1.228 1.228 0 0 0-.87-2.1" fill="#d99e82"/></g></svg>