<svg xmlns="http://www.w3.org/2000/svg" viewBox="0 0 45 45"><defs><clipPath id="a"><path d="M0 36h36V0H0v36z"/></clipPath><clipPath id="b"><path d="M2.442 20.978a1.004 1.004 0 0 1-.447-.332C.755 19.012-.619 12.529 3 9c3.557-3.468 6.822-4.304 8.777-4.495.033-.003.108-.007.141-.007 2.458 0 18.332 10.761 19.524 13.235 1.371 2.842 1.281 8.399-1.98 10.298-.395.23-.914.337-1.633.337-5.581 0-24.582-7.088-25.387-7.39"/></clipPath><clipPath id="c"><path d="M0 36h36V0H0v36z"/></clipPath></defs><g clip-path="url(#a)" transform="matrix(1.25 0 0 -1.25 0 45)"><path d="M11.918 4.498a2.15 2.15 0 0 0-.14.007C9.821 4.696 5.755 5.867 3 10c-2 3-2.245 9.012-1.004 10.646a.991.991 0 0 0 .445.332c.807.302 19.807 7.39 25.388 7.39.719 0 1.238-.107 1.633-.337 3.261-1.899 3.352-7.456 1.98-10.299C30.25 15.259 14.376 4.498 11.918 4.498" fill="#eee"/></g><g clip-path="url(#b)" transform="matrix(1.25 0 0 -1.25 0 45)"><path d="M13 17c-1-3-3-14 2-16s24 11.917 22 17.458C35 24 30 29 26 26s-13-9-13-9" fill="#ccd6dd"/></g><g clip-path="url(#c)" transform="matrix(1.25 0 0 -1.25 0 45)"><path d="M32.018 29.48a.995.995 0 0 1-.846.257L1.796 24.904a1 1 0 0 1-.837-1.013c.027-1.011.019-1.746.01-2.574-.005-.46-.01-.948-.01-1.524a1 1 0 0 1 .36-.77c2.034-1.687 8.715-6.157 10.234-6.917a.999.999 0 0 1 1.057.102c2.556 1.966 16.483 9.929 18.664 10.875a1 1 0 0 1 .597.827c.125 1.373.458 4.74.458 4.74a.999.999 0 0 1-.311.83" fill="#a0041e"/><path d="M32.085 29.41c-2.02 2.296-9.627 5.575-10.917 5.63a.998.998 0 0 1-.238-.017C10.824 33.01 4.211 27.217 1.721 25.036l-.416-.362a1.003 1.003 0 0 1 .07-1.57c.339-.243 8.317-5.96 10.258-7.058a1.003 1.003 0 0 1 1.158.125c3.915 3.499 17.1 10.96 18.898 11.644a1 1 0 0 1 .396 1.596" fill="#dd2e44"/><path d="M7.417 27.416C8.292 24.75 8.75 22 9.167 19.584M12.959 30.834c1.042-2.833 2.167-9.333 2.25-11M19 33c1-3 1.592-7.763 1.834-9.375M25.459 31.959c.5-1.417.833-2.833 1.041-4.917" fill="none" stroke="#ea596e" stroke-width="2" stroke-linecap="round" stroke-linejoin="round" stroke-miterlimit="10"/><path d="M32.136 13c-1.714 1.235-4.055 2-6.636 2-2.581 0-4.922-.765-6.635-2H16V8c0-3.859 4.262-7 9.5-7C30.739 1 35 4.141 35 8v5h-2.864z" fill="#292f33"/><path d="M25.5 20c-5.238 0-9.5-3.141-9.5-7s4.262-7 9.5-7S35 9.141 35 13s-4.262 7-9.5 7" fill="#292f33"/><path d="M32.583 13c0-2.762-3.171-5-7.083-5-3.912 0-7.084 2.238-7.084 5s3.172 5 7.084 5c3.912 0 7.083-2.238 7.083-5" fill="#e1e8ed"/><path d="M32.583 13c0-2.762-3.171-5-7.083-5-3.912 0-7.084 2.238-7.084 5s3.172 5 7.084 5c3.912 0 7.083-2.238 7.083-5z" fill="none" stroke="#e1e8ed" stroke-width="1.667" stroke-linecap="round" stroke-linejoin="round" stroke-miterlimit="10"/><path d="M21.209 13.458c0 .422 1.806.335 4.291.335 2.485 0 4.209.546 4.209.124 0-1.775-1.724-3.552-4.209-3.552-2.485 0-4.291 1.318-4.291 3.093" fill="#77b255"/><path d="M21.209 13.458c0 .422 1.806.335 4.291.335 2.485 0 4.209.546 4.209.124 0-1.775-1.724-3.552-4.209-3.552-2.485 0-4.291 1.318-4.291 3.093z" fill="none" stroke="#77b255" stroke-miterlimit="10"/><path d="M30 14s-2 1-5 0c-2.357-.786-4-2.561-4-.785 0 1.775 2.015 3.213 4.5 3.213S30 15 30 14" fill="#f4900c"/><path d="M30 14s-2 1-5 0c-2.357-.786-4-2.561-4-.785 0 1.775 2.015 3.213 4.5 3.213S30 15 30 14z" fill="none" stroke="#f4900c" stroke-linecap="round" stroke-linejoin="round" stroke-miterlimit="10"/></g></svg>