<svg xmlns="http://www.w3.org/2000/svg" viewBox="0 0 45 45"><defs><clipPath id="a"><path d="M0 36h36V0H0v36z"/></clipPath></defs><g clip-path="url(#a)" transform="matrix(1.25 0 0 -1.25 0 45)"><path d="M22.235.338c-.418 0-.83.123-1.182.36l-2.96 2.008L15.134.699a2.116 2.116 0 0 0-1.73-.29 2.1 2.1 0 0 0-1.35 1.115l-1.72 2.392-3.406.568a2.105 2.105 0 0 0-1.641.613 2.11 2.11 0 0 0-.614 1.64l.256 3.569-3.215 1.56a2.112 2.112 0 0 0-.825 3.08l1.152 2.929-1.152 2.99a2.108 2.108 0 0 0 .825 3.08l3.215 1.56-.256 3.566a2.102 2.102 0 0 0 .614 1.642 2.1 2.1 0 0 0 1.49.618c.051 0 .101 0 .151-.004l3.28.506 1.846 2.452a2.106 2.106 0 0 0 1.897 1.189c.417 0 .83-.124 1.183-.363l2.96-2.005 2.96 2.005a2.103 2.103 0 0 0 1.726.29 2.101 2.101 0 0 0 1.353-1.116L26 31.958l3.261-.631c.048.004.1.004.15.004a2.108 2.108 0 0 0 2.105-2.26l-.26-3.565 3.22-1.56a2.097 2.097 0 0 0 1.113-1.351 2.103 2.103 0 0 0-.289-1.73l-.925-2.907.925-3.011a2.102 2.102 0 0 0 .29-1.728 2.096 2.096 0 0 0-1.114-1.353l-3.22-1.56.26-3.568a2.116 2.116 0 0 0-.613-1.641 2.12 2.12 0 0 0-1.642-.613l-3.219-.526-1.909-2.434A2.096 2.096 0 0 0 22.78.41a2.01 2.01 0 0 0-.545-.072" fill="#e1e8ed"/><path d="M18.5 7.291c-3.708-.041-8.167 2.875-7.792 8.37.133 1.959.902 3.779 2.341 5.116a6.306 6.306 0 0 0 8.903-.324 5.385 5.385 0 0 0 1.447-3.891 5.379 5.379 0 0 0-1.726-3.774 4.635 4.635 0 0 0-3.365-1.253 4.663 4.663 0 0 0-3.266 1.495c-.785.844-1.059 2.045-.733 3.214.331 1.189 1.218 2.095 2.375 2.425.532.152 1.123.236 1.274-.294.152-.531-.38-.757-1.083-1.25-.833-.584-1.292-1.667-.368-2.733.471-.544 1.155-.831 1.873-.858a2.692 2.692 0 0 1 1.932.719 3.405 3.405 0 0 1 1.089 2.383 3.401 3.401 0 0 1-.914 2.455 4.303 4.303 0 0 1-6.077.221 5.317 5.317 0 0 1-1.704-3.723 5.316 5.316 0 0 1 1.429-3.838 6.567 6.567 0 0 1 4.599-2.105 6.54 6.54 0 0 1 4.741 1.765 8.072 8.072 0 0 1 2.585 5.649 8.061 8.061 0 0 1-2.167 5.821c-3.725 4.008-8.601 4.952-13.643 1.911-.763-.461-1.401-1.137-1.833-.792-.209.167-.315.481.09.857 4.815 4.478 12.376 4.201 16.85-.614 1.84-1.978 2.919-4.562 2.701-7.257-.683-8.403-6.558-9.861-9.558-9.695" fill="#d372b8"/></g></svg>