<svg xmlns="http://www.w3.org/2000/svg" viewBox="0 0 45 45"><defs><clipPath id="a"><path d="M0 36h36V0H0v36z"/></clipPath></defs><g clip-path="url(#a)" transform="matrix(1.25 0 0 -1.25 0 45)"><path d="M35 18c0-9.389-7.611-17-17-17S1 8.611 1 18s7.611 17 17 17 17-7.611 17-17" fill="#d99e82"/><path d="M22.638 19.053a2.245 2.245 0 1 0 1.386-4.271c-1.181-.384-3.871-.2-4.255.978-.383 1.181 1.687 2.911 2.869 3.293M31.208 19.725a1.069 1.069 0 1 0-1.638 1.377c.381.45 1.514 1.057 1.966.677.453-.38.053-1.601-.328-2.054M9.208 26.725a1.069 1.069 0 1 0-1.638 1.377c.381.45 1.514 1.057 1.966.677.453-.38.053-1.601-.328-2.054M21.3 28.619a1.607 1.607 0 1 0 1.732 2.71c.749-.48 1.873-2.05 1.394-2.798-.48-.75-2.376-.391-3.125.088M13.374 22.402a2.145 2.145 0 1 0 3.87 1.856c.513-1.07.682-3.643-.387-4.154-1.07-.514-2.97 1.227-3.482 2.298M14.4 8.303a1.92 1.92 0 0 0 2.671.492 1.923 1.923 0 0 0 .49-2.675c-.603-.874-2.528-2.147-3.4-1.544-.875.604-.366 2.854.238 3.727M24.412 8.709a1.472 1.472 0 1 0 1.586 2.481c.685-.438 1.715-1.877 1.276-2.562-.438-.688-2.176-.359-2.862.081M5.536 17.58a2.069 2.069 0 1 0 3.083-2.76c-.762-.854-2.992-1.954-3.842-1.191-.853.764-.005 3.1.759 3.95" fill="#8a4b38"/></g></svg>