<svg xmlns="http://www.w3.org/2000/svg" viewBox="0 0 45 45"><defs><clipPath id="a"><path d="M0 36h36V0H0v36z"/></clipPath><clipPath id="b"><path d="M16.769 14H3.806S6.053 6.854 9.589 3.416c2.409-2.34 6.459-2.521 7.9-2.521 2.88 0 6.55.193 8.958 2.535C30.644 7.507 32.612 14 32.612 14H16.769z"/></clipPath><clipPath id="c"><path d="M0 36h36V0H0v36z"/></clipPath><clipPath id="d"><path d="M3.856 16.716c.901-.331 6.69-2.382 13.993-2.382 8.222 0 14.249 1.787 15.627 2.778 1.38.992 1.329 9.591-4.952 12.905-5.363 2.829-5.514 5.608-10.624 5.608-7.661 0-21.194-16.279-14.044-18.909"/></clipPath><clipPath id="e"><path d="M0 36h36V0H0v36z"/></clipPath></defs><g clip-path="url(#a)" transform="matrix(1.25 0 0 -1.25 0 45)"><path d="M16.769 14H3.806S6.054 6.854 9.59 3.416c2.408-2.34 6.459-2.521 7.899-2.521 2.88 0 6.55.193 8.959 2.535C30.645 7.507 32.613 14 32.613 14H16.769z" fill="#55acee"/></g><g clip-path="url(#b)" transform="matrix(1.25 0 0 -1.25 0 45)"><path d="M32.612 12.45c0-2.32-4.858-4.9-14.403-4.9-9.546 0-14.404 2.58-14.404 4.9 0 2.318 4.858 4.197 14.404 4.197 9.545 0 14.403-1.879 14.403-4.198" fill="#3b88c3"/></g><g clip-path="url(#c)" transform="matrix(1.25 0 0 -1.25 0 45)"><path d="M2 19v-4.453c0-2.318 7.251-4.198 16-4.198 8.751 0 16 1.88 16 4.198V19H2z" fill="#55acee"/><path d="M3.857 16.717c.9-.331 6.693-2.383 13.999-2.383 8.225 0 14.253 1.788 15.633 2.779 1.38.993 1.328 9.595-4.955 12.91-5.365 2.83-5.514 5.61-10.627 5.61-7.664 0-21.203-16.285-14.05-18.916" fill="#f9d2dc"/></g><g clip-path="url(#d)" transform="matrix(1.25 0 0 -1.25 0 45)"><path d="M3.47 25.89c1.555.73 5.467 2.242 8.378-1.659 2.91-3.9 9.483-1.756 12.293.975 2.808 2.73 6.52 1.22 10.735.196 4.215-1.025-2.808 14.14-11.49 13.164-8.68-.976-14.347 2.68-17.81-3.12-3.46-5.803-2.106-9.557-2.106-9.557" fill="#f98097"/></g><g clip-path="url(#e)" transform="matrix(1.25 0 0 -1.25 0 45)"><path d="M13 29a1 1 0 1 0-2 0 1 1 0 0 0 2 0M19 26a1 1 0 1 0-2 0 1 1 0 0 0 2 0M23 31a1 1 0 1 0-2 0 1 1 0 0 0 2 0" fill="#ea596e"/></g></svg>