<svg xmlns="http://www.w3.org/2000/svg" viewBox="0 0 45 45"><defs><clipPath id="a"><path d="M0 36h36V0H0v36z"/></clipPath></defs><g clip-path="url(#a)" transform="matrix(1.25 0 0 -1.25 0 45)"><path d="M31 36H5a4 4 0 0 1-4-4V4a4 4 0 0 1 4-4h26a4 4 0 0 1 4 4v28a4 4 0 0 1-4 4" fill="#292f33"/><path d="M14 25a4 4 0 0 0-4-4H9a4 4 0 0 0-4 4v2a4 4 0 0 0 4 4h1a4 4 0 0 0 4-4v-2z" fill="#292f33"/><path d="M22 9a2 2 0 0 0-2-2H5a2 2 0 0 0-2 2v8a2 2 0 0 0 2 2h15a2 2 0 0 0 2-2V9zM33 17a2 2 0 0 1-2 2h-5a2 2 0 0 1-2-2V9a2 2 0 0 1 2-2h5a2 2 0 0 1 2 2v8zM16 32a2 2 0 0 0 2 2h13a2 2 0 0 0 2-2v-9a2 2 0 0 0-2-2H18a2 2 0 0 0-2 2v9zM14 23a2 2 0 0 0-2-2H5a2 2 0 0 0-2 2v9a2 2 0 0 0 2 2h7a2 2 0 0 0 2-2v-9z" fill="#be1931"/><path d="M14 23a2 2 0 0 0-2-2H5a2 2 0 0 0-2 2v6a2 2 0 0 0 2 2h7a2 2 0 0 0 2-2v-6zM33 23a2 2 0 0 0-2-2H18a2 2 0 0 0-2 2v6a2 2 0 0 0 2 2h13a2 2 0 0 0 2-2v-6z" fill="#dd2e44"/><path d="M22 9a2 2 0 0 0-2-2H5a2 2 0 0 0-2 2v5a2 2 0 0 0 2 2h15a2 2 0 0 0 2-2V9z" fill="#e1e8ed"/><path d="M33 9a2 2 0 0 0-2-2h-5a2 2 0 0 0-2 2v5a2 2 0 0 0 2 2h5a2 2 0 0 0 2-2V9z" fill="#dd2e44"/><path d="M27.015 26.76c1.315-1.478 1.908-3.098 1.322-3.62l-1.058-.94c-.585-.522-2.126.255-3.441 1.733l-3.571 4.013c-1.314 1.479-1.907 3.099-1.321 3.62l1.059.94c.586.522 2.124-.254 3.439-1.732l3.57-4.014z" fill="#ffac33"/><path d="M22.28 24.924c-.598-1.538-1.477-2.633-1.96-2.444l-.878.342c-.485.188-.392 1.588.205 3.125l1.625 4.178c.6 1.538 1.477 2.633 1.962 2.444l.876-.341c.485-.19.394-1.59-.205-3.127l-1.625-4.177z" fill="#ffd983"/><path d="M23.113 24.464c-1.562-.535-2.965-.568-3.133-.076l-.305.89c-.168.493.962 1.325 2.523 1.859l4.242 1.45c1.562.533 2.964.567 3.133.074l.304-.89c.17-.492-.96-1.324-2.523-1.857l-4.24-1.45z" fill="#ffd983"/><path d="M6.442 28.127c.373 4.106 4.907.961 7.135-1.049-1.34-1.485-7.587-3.93-7.135 1.049" fill="#5c913b"/><path d="M6.585 28.216c3.739 1.737 3.293-3.763 2.672-6.698-1.956.414-7.206 4.59-2.672 6.698" fill="#5c913b"/><path d="M5 28c-1.2 1.6 1 5 6 5 1-1-3-9-6-5" fill="#77b255"/><path d="M6 9a.999.999 0 0 0-.707 1.707l1 1a.999.999 0 1 0 1.414-1.414l-1-1A.997.997 0 0 0 6 9M18.417 8.501a.997.997 0 0 0-.707.293l-1.001 1a1 1 0 0 0 1.414 1.414l1.001-1a.999.999 0 0 0-.707-1.707M12.25 12.792c-.254 0-.51.098-.706.292l-.459.458a1 1 0 1 0 1.412 1.416l.46-.458a1 1 0 0 0-.707-1.708" fill="#b2c2cc"/><path d="M32.15 12.588a1.999 1.999 0 0 0-.258-2.816L29.588 7.85a2 2 0 0 0-2.817.257l-1.92 2.304a2 2 0 0 0 .256 2.817l2.305 1.92a2 2 0 0 0 2.816-.256l1.921-2.305z" fill="#b26304"/><path d="M32.15 14.588a1.999 1.999 0 0 0-.258-2.816L29.588 9.85a2 2 0 0 0-2.817.257l-1.92 2.304a2 2 0 0 0 .256 2.817l2.305 1.92a2 2 0 0 0 2.816-.256l1.921-2.305z" fill="#f4900c"/><path d="M13 10a1 1 0 1 0-2 0 1 1 0 0 0 2 0M21 14a1 1 0 1 0-2 0 1 1 0 1 0 2 0" fill="#ccd6dd"/></g></svg>