<svg xmlns="http://www.w3.org/2000/svg" viewBox="0 0 45 45"><defs><clipPath id="a"><path d="M0 36h36V0H0v36z"/></clipPath></defs><g clip-path="url(#a)" transform="matrix(1.25 0 0 -1.25 0 45)"><path d="M34.238 8.07c-.704.702-3.856 2.66-6.935 4.363A14.915 14.915 0 0 1 30 21c0 8.284-6.716 15-15 15-8.285 0-15-6.716-15-15C0 12.715 6.715 6 15 6c3.158 0 6.086.981 8.504 2.65 1.705-3.082 3.666-6.24 4.37-6.945C29.288.291 31-.002 32 0c1.177.002 4.054 2.881 4 4-.049 1-.348 2.655-1.762 4.07" fill="#292f33"/><path d="M27 21c0-6.627-5.373-12-12-12S3 14.373 3 21s5.373 12 12 12 12-5.373 12-12" fill="#66757f"/><path d="M16 11c4.863 1.533 4 5 4 9s4.001 6.708.334 9.75c-2.177 1.806-6.751 2.417-8.876 1.625C9.506 30.648 7 29.167 7 26.167s-.058-2.928-1.708-5.625C2.667 16.25 9.125 8.833 16 11" fill="#f5f8fa"/><path d="M17 18a4 4 0 1 0-8 0 4 4 0 0 0 8 0" fill="#ffac33"/></g></svg>