<svg xmlns="http://www.w3.org/2000/svg" viewBox="0 0 45 45"><defs><clipPath id="a"><path d="M0 36h36V0H0v36z"/></clipPath></defs><g clip-path="url(#a)" transform="matrix(1.25 0 0 -1.25 0 45)"><path d="M36 11c0-5.523-8.059-10-18-10S0 5.477 0 11s8.059 10 18 10 18-4.477 18-10" fill="#939598"/><path d="M36 13c0-5.523-8.059-10-18-10S0 7.477 0 13s8.059 10 18 10 18-4.477 18-10" fill="#f1f2f2"/><path d="M32.8 13.389c0-4.202-6.626-7.611-14.8-7.611S3.2 9.187 3.2 13.388C3.2 17.593 9.826 21 18 21s14.8-3.408 14.8-7.611" fill="#fff"/><path d="M8 8c0 3.044.417 7.208.042 13.875.6 1.376 6.146 2.472 6.625 3.792C15.954 29.213 13.458 31.583 16 34c2.05 1.949 5 2 6-1 2 2 6 1 6-2 4 1 6-3 3-6 0-1-1-9-1-11s-.208-1.792-5.208-2.792C19.792 10.208 8 8 8 8" fill="#e1e8ed"/><path d="M8 9v12s21 7 21 2.458V13L8 9z" fill="#ffac33"/><path d="M8 10v10s12.375 4.208 20 4V14L8 10z" fill="#ffd983"/><path d="M8 15v1l21 4v-1L8 15z" fill="#ffac33"/><path d="M8 22l9 9c2 0 8-1 11-5L8 22" fill="#e1e8ed"/><path d="M30 26c1 1 1 5-3 4 0 1-2 4-5 2 0 1-5 2-6 0 10-3 14-6 14-6" fill="#fff"/><path d="M17.959 25.541c-1.833.208-4.417 1.083-3.917 3.5s2.474 4.881 3.75 5.542c1.125.584 2.325.158 3.208-3.25.583-2.25 2.75-5.124-1.667-5.75-.457 0-1.374-.041-1.374-.041" fill="#dd2e44"/><path d="M18.375 30.959a.498.498 0 0 0-.4.2l-.5.667a.5.5 0 1 0 .8.599l.5-.666a.5.5 0 0 0-.4-.8M15.959 27.459a.5.5 0 0 0-.484.626l.25.957a.5.5 0 0 0 .967-.252l-.25-.958a.5.5 0 0 0-.483-.374M20.333 27.375a.496.496 0 0 0-.261.073l-.75.458a.502.502 0 0 0-.166.688.502.502 0 0 0 .688.166l.75-.458a.501.501 0 1 0-.261-.927" fill="#f4abba"/></g></svg>