<svg xmlns="http://www.w3.org/2000/svg" viewBox="0 0 45 45"><defs><clipPath id="a"><path d="M0 36h36V0H0v36z"/></clipPath><clipPath id="b"><path d="M3.214 34.161l-.707-.707a1.998 1.998 0 0 1 0-2.828l.707-.707a1.998 1.998 0 0 1 2.828 0l.707.707a2 2 0 0 1-.001 2.827l-.707.707a1.994 1.994 0 0 1-1.414.586 1.991 1.991 0 0 1-1.413-.585"/></clipPath><clipPath id="c"><path d="M0 36h36V0H0v36z"/></clipPath></defs><g clip-path="url(#a)" transform="matrix(1.25 0 0 -1.25 0 45)"><path d="M8.689 8.5a1.5 1.5 0 1 0-3.001.001 1.5 1.5 0 0 0 3-.001M9.609 22.766A3.5 3.5 0 0 1 6.189 27a3.489 3.489 0 0 1-3.45-3.005c-.017 0-.033.005-.05.005a2 2 0 0 1 0-4c.033 0 .063.008.095.01a1.49 1.49 0 0 1-.095-.51c0-.46.212-.867.539-1.143A1.985 1.985 0 0 1 2.688 17a2 2 0 0 1 2-2c0-.375.11-.721.29-1.021A1.497 1.497 0 0 1 5.188 11a1.5 1.5 0 0 1 1.5 1.5c0 .18-.036.35-.094.51.032-.002.063-.01.095-.01a2 2 0 0 1 2 2c0 .601-.27 1.133-.69 1.5.42.367.69.899.69 1.5 0 .378-.111.728-.294 1.03.097-.015.193-.03.294-.03a2 2 0 0 1 2 2c0 .771-.441 1.432-1.08 1.766" fill="#ccd6dd"/><path d="M6.689 17a1 1 0 1 0-2 0 1 1 0 0 0 2 0M8.689 23a2 2 0 1 1-4 0c0-.032.008-.063.01-.095a1.49 1.49 0 0 1-.51.095 1.5 1.5 0 1 1 .558-2.89A1.495 1.495 0 0 1 6.189 19a1.5 1.5 0 0 1 1.5 1.5c0 .248-.066.478-.172.684A1.996 1.996 0 0 1 8.689 23" fill="#e4ebef"/><path d="M7.3 32.924a2 2 0 0 0 0-2.828l-.707-.708a2.001 2.001 0 0 0-2.828 0l-.707.708a2 2 0 0 0 0 2.828l.707.707a2 2 0 0 0 2.828 0l.708-.707z" fill="#c1694f"/></g><g clip-path="url(#b)" transform="matrix(1.25 0 0 -1.25 0 45)"><path d="M7.01 34.56c.624-.625.498-1.765-.283-2.546l-2.122-2.12c-.78-.782-1.92-.908-2.546-.283l-.565.564c-.625.626-.498 1.765.283 2.546l2.121 2.122c.781.78 1.921.907 2.546.282l.565-.564z" fill="#a95233"/></g><g clip-path="url(#c)" transform="matrix(1.25 0 0 -1.25 0 45)"><path d="M6.17 35.47c.624-.625.497-1.765-.284-2.546l-2.12-2.121c-.782-.781-1.922-.908-2.547-.283l.02-.018c-.626.625-.499 1.764.282 2.545l2.121 2.12c.781.782 1.92.909 2.545.284l-.018.019z" fill="#c1694f"/><path d="M34.9 12.213s-4.172 4.17-5.067 5.067c-3.664 3.664-7.323 4.14-14.358 6.946l-1.928-1.928-1.221-1.221c3.23-6.61 3.236-10.74 6.9-14.403 3.663-3.664 5.069-5.068 5.069-5.068.993-.994 1.787-1.81 2.782-.816l8.409 8.412c.995.995.407 2.018-.586 3.01" fill="#264612"/><path d="M16.205 23.836s1.739-.645-.56-2.943c-2.122-2.122-2.917-.65-2.917-.65l-3.447 3.446 3.536 3.535 3.388-3.388z" fill="#ffe8b6"/><path d="M13.124 26.918l-1.014 1.014-3.536-3.535 1.014-1.015c.994-.994.82-1.055 2.644.77l.592.593c1.443 1.443 1.293 1.18.3 2.172" fill="#ffd983"/><path d="M12.463 28.993a1.5 1.5 0 0 0 0-2.122l-2.828-2.827a1.5 1.5 0 1 0-2.12 2.12l2.826 2.828a1.5 1.5 0 0 0 2.122 0" fill="#264612"/><path d="M28.373 15.911c-.78.78-2.048.78-2.829 0l-4.949-4.95a1.998 1.998 0 0 1 0-2.828l4.243-4.243a2 2 0 0 1 2.829 0l4.949 4.95a2 2 0 0 1 0 2.828l-4.242 4.243z" fill="#ffe8b6"/></g></svg>