<svg xmlns="http://www.w3.org/2000/svg" viewBox="0 0 45 45"><defs><clipPath id="a"><path d="M0 36h36V0H0v36z"/></clipPath><clipPath id="b"><path d="M18.514 16.55c-.376-.78.601-1.875 1.47-.483.868 1.39 6.741 13.697 6.741 13.697l-1.98 1.336s-5.922-13.912-6.231-14.55"/></clipPath><clipPath id="c"><path d="M0 36h36V0H0v36z"/></clipPath><clipPath id="d"><path d="M16.468 33.733c-.336-1.48 1.528-4.291 7.891-7.343 4.216-2.022 6.661-2.446 7.97-2.446h.001c1.474 0 2.038.55 2.252 1.013.215.465.145.99-.185 1.419-1.019 1.582-5.396 7.694-5.584 7.956a1.002 1.002 0 0 1-.813.418c-1.459 0-4.763.016-7.233.029-1.481.007-2.663.012-2.975.012-.648 0-1.18-.424-1.324-1.058"/></clipPath><clipPath id="e"><path d="M0 36h36V0H0v36z"/></clipPath></defs><g clip-path="url(#a)" transform="matrix(1.25 0 0 -1.25 0 45)"><path d="M19 8.745s8 .213 9.651 4.075c1.07 2.501-.609 9.554-.609 13.93 0 1.481-1.167 2.25-3.416 2.25H10.129c-1.125 0-3.329.262-3.329-2.125 0-4.284-1.765-11.34-.634-13.815C8.042 8.958 16 8.745 16 8.745V5.622s-4.584-2.34-5.498-2.883c-.984-.562-.33-1.462.063-1.617C11.222.864 12.819.02 17.346.02c4.64 0 6.202.914 6.764 1.102.217.072 1.347.932.011 1.723C21.743 4.253 19 5.622 19 5.622v3.123z" fill="#8899a6"/><path d="M28 27.558c0-1.621-2.547-2.935-10.623-2.935-8.076 0-10.623 1.314-10.623 2.935 0 1.622 2.547 2.935 10.623 2.935C25.453 30.493 28 29.18 28 27.558" fill="#ccd6dd"/><path d="M8.459 27.416c2.042-9.5-2.417-13.583 2.083-15.167 5.432-1.91 8.543-1.592 13.459 0 4.5 1.46 1.5 6.875 2.125 14.792.16 2.037-17.668.375-17.668.375" fill="#ccd6dd"/><path d="M9.041 21.416c-.083-1.083-1.09-6.129-.625-7.292.5-1.25 1.75-3.25 8.917-3.25 5.25 0 8.585 1.584 9.126 3.584.47 1.74-.25 5.583-.334 7" fill="#f4900c"/><path d="M26 21.5c0-.829-3.806-1.5-8.5-1.5S9 20.671 9 21.5s3.806 1.5 8.5 1.5 8.5-.671 8.5-1.5" fill="#ffcc4d"/><path d="M24.745 31.1s-5.922-13.912-6.23-14.55c-.377-.78.6-1.874 1.47-.484.867 1.391 6.74 13.698 6.74 13.698l-1.98 1.335z" fill="#c1694f"/><path d="M17.31 24.325c-4.291 0-7.671 1.007-8.942 1.604a.998.998 0 0 0-.481 1.329.998.998 0 0 0 1.329.48c.075-.034 7.707-3.275 16.552.112a1 1 0 1 0 .715-1.867c-3.222-1.234-6.39-1.658-9.172-1.658" fill="#fff"/><path d="M28 34.75c-2.333 0-9.375.042-10.208.042-1 0-.325-2.987 7-6.5 7.125-3.418 9.501-2.334 8.792-1.5C32.626 28.292 28 34.75 28 34.75" fill="#77b255"/></g><g clip-path="url(#b)" transform="matrix(1.25 0 0 -1.25 0 45)"><path d="M20.375 21.75c1-.5 1.875-.625 2.792-.5.917.125.75-.667-.25-.875-1-.208-2.833-.374-4-.292-1.167.084 1.458 1.667 1.458 1.667" fill="#ffac33"/><path d="M18.459 20c1.167 0 3.75.167 4.459.333.708.167.416-6.207-1.917-6.166-2.333.041-4.792-.876-4.292 1.208.5 2.083 1.75 4.625 1.75 4.625" fill="#cc6f00"/></g><g clip-path="url(#c)" transform="matrix(1.25 0 0 -1.25 0 45)"><path d="M32.33 23.944c-1.31 0-3.755.424-7.97 2.446-6.364 3.052-8.229 5.863-7.892 7.343a1.336 1.336 0 0 0 1.324 1.059c.312 0 1.494-.006 2.974-.013 2.471-.013 5.775-.03 7.234-.03a1 1 0 0 0 .812-.416c.19-.262 4.566-6.375 5.585-7.957.33-.43.4-.953.185-1.42-.214-.461-.778-1.012-2.252-1.012" fill="#77b255"/></g><g clip-path="url(#d)" transform="matrix(1.25 0 0 -1.25 0 45)"><path d="M29.584 34.041c.916-1.874 3.541-8.707-4.292-8.457 3.458-3.292 2.876-8.543 7.292-5.417C37 23.29 39.458 28.79 37 30.748c-2.458 1.96-7.416 3.292-7.416 3.292" fill="#5c913b"/></g><g clip-path="url(#e)" transform="matrix(1.25 0 0 -1.25 0 45)"><path d="M29.875 34.313a1.687 1.687 0 1 0-3.375 0 1.687 1.687 0 0 0 3.375 0" fill="#3e721d"/></g></svg>