<svg xmlns="http://www.w3.org/2000/svg" viewBox="0 0 45 45"><defs><clipPath id="a"><path d="M0 36h36V0H0v36z"/></clipPath></defs><g clip-path="url(#a)" transform="matrix(1.25 0 0 -1.25 0 45)"><path d="M19 15.745s10.042 2.213 10.042 16.005c0 1.481-1.167 2.25-3.416 2.25H9.129c-1.125 0-3.329.262-3.329-2.125 0-13.708 10.2-16.13 10.2-16.13V5.622s-4.584-2.34-5.498-2.883c-.984-.562-.33-1.462.063-1.617C11.222.864 12.819.02 17.346.02c4.64 0 6.202.914 6.764 1.102.217.072 1.347.932.011 1.723C21.743 4.253 19 5.622 19 5.622v10.123z" fill="#8899a6"/><path d="M29 32.558c0-1.621-3.547-2.935-11.623-2.935-8.076 0-11.623 1.314-11.623 2.935 0 1.622 3.547 2.935 11.623 2.935C25.453 35.493 29 34.18 29 32.558" fill="#ccd6dd"/><path d="M7.458 32.416c2.042-9.5 5.458-12.791 8.7-13.834 1.11-.359 2.025-.429 2.8-.124 3.5 1.375 7.543 5.666 8.168 13.583.16 2.038-19.668.376-19.668.376" fill="#ccd6dd"/><path d="M9 26.5C9 23 12.333 18 17.333 18 22.334 18 26 23.458 26 26.458c-6 0-17 .042-17 .042" fill="#a0041e"/><path d="M26 26.5c0-.829-3.806-1.5-8.5-1.5S9 25.671 9 26.5s3.806 1.5 8.5 1.5 8.5-.671 8.5-1.5" fill="#dd2e44"/><path d="M17.168 29.34c-5.03 0-8.783 1.11-9.801 1.588a1 1 0 0 0 .849 1.81c1.239-.581 9.454-2.893 18.596.128a.999.999 0 1 0 .627-1.9c-3.677-1.214-7.21-1.625-10.271-1.625" fill="#fff"/></g></svg>