<svg xmlns="http://www.w3.org/2000/svg" viewBox="0 0 45 45"><defs><clipPath id="a"><path d="M0 36h36V0H0v36z"/></clipPath><clipPath id="b"><path d="M6 34a2 2 0 0 1-2-2V2a2 2 0 0 1 2-2h18a2 2 0 0 1 2 2v30a2 2 0 0 1-2 2H6z"/></clipPath><clipPath id="c"><path d="M0 36h36V0H0v36z"/></clipPath></defs><g clip-path="url(#a)" transform="matrix(1.25 0 0 -1.25 0 45)"><path d="M23 26V10h6s2 0 2 2v12c0 1.999-2 2-2 2h-6zm8-20h-8c-2.205 0-4 1.794-4 4v16c0 2.206 1.795 4 4 4h8c2.206 0 4-1.794 4-4V10c0-2.206-1.794-4-4-4" fill="#ffac33"/><path d="M26 28a4 4 0 0 1-4 4H8a4 4 0 0 1-4-4V4a4 4 0 0 1 4-4h14a4 4 0 0 1 4 4v24z" fill="#ffcc4d"/><path d="M9 3a1 1 0 0 0-1 1v16a1 1 0 0 0 2 0V4a1 1 0 0 0-1-1M15 3a1 1 0 0 0-1 1v16a1 1 0 0 0 2 0V4a1 1 0 0 0-1-1M21 3a1 1 0 0 0-1 1v16a1 1 0 1 0 2 0V4a1 1 0 0 0-1-1" fill="#f4900c"/></g><g clip-path="url(#b)" transform="matrix(1.25 0 0 -1.25 0 45)"><path d="M25 30a2.991 2.991 0 0 1-2.847-2.097A2.466 2.466 0 0 1 21.5 28c-.587 0-1.119-.21-1.546-.549C19.728 29.445 18.055 31 16 31a3.995 3.995 0 0 1-3.931-3.315c-.31.197-.675.315-1.069.315a1.98 1.98 0 0 1-1.299-.491A4 4 0 0 1 6 30c-2.209 0-4 5-4-4a4 4 0 1 1 7.701-1.509 1.98 1.98 0 0 1 2.934.362A3.988 3.988 0 0 1 16 23a3.98 3.98 0 0 1 3.176 1.593A2.496 2.496 0 0 1 21.5 23c.949 0 1.765.535 2.189 1.314A2.96 2.96 0 0 1 25 24a3 3 0 0 1 3 3c0 5-1.343 3-3 3" fill="#ffac33"/></g><g clip-path="url(#c)" transform="matrix(1.25 0 0 -1.25 0 45)"><path d="M28 32c0 2-2 4-4 4H6c-2 0-4-2-4-4v-2c0-.096.015-.188.028-.279A48.655 48.655 0 0 1 2 28a4 4 0 1 1 7.701-1.509 1.98 1.98 0 0 1 2.934.362A3.988 3.988 0 0 1 16 25a3.98 3.98 0 0 1 3.176 1.593A2.496 2.496 0 0 1 21.5 25c.949 0 1.765.535 2.189 1.314A2.96 2.96 0 0 1 25 26a3 3 0 0 1 3 3c0 .309-.005.59-.016.848.004.051.016.1.016.152v2z" fill="#e1e8ed"/></g></svg>