<svg xmlns="http://www.w3.org/2000/svg" viewBox="0 0 45 45"><defs><clipPath id="a"><path d="M0 36h36V0H0v36z"/></clipPath></defs><g clip-path="url(#a)" transform="matrix(1.25 0 0 -1.25 0 45)"><path d="M36 18c0-9.941-8.059-18-18-18S0 8.059 0 18s8.059 18 18 18 18-8.059 18-18" fill="#e1e8ed"/><path d="M30 18c0-6.628-5.372-12-12-12S6 11.372 6 18s5.372 12 12 12 12-5.372 12-12" fill="#ccd6dd"/><path d="M29 18c0-6.075-4.925-11-11-11-6.076 0-11 4.925-11 11 0 6.076 4.924 11 11 11 6.075 0 11-4.924 11-11" fill="#e1e8ed"/><path d="M2 35a1 1 0 1 0-2 0 1 1 0 0 0 2 0" fill="#99aab5"/><path d="M2 28H0v7h2v-7zM6 35a1 1 0 1 0-2 0 1 1 0 0 0 2 0" fill="#99aab5"/><path d="M6 28H4v7h2v-7zM10 35a1 1 0 1 0-2 0 1 1 0 0 0 2 0" fill="#99aab5"/><path d="M10 28H8v7h2v-7zM7 2H3v20h4V2z" fill="#99aab5"/><path d="M7 2a2 2 0 1 1-4 0 2 2 0 0 1 4 0M8 28a1 1 0 0 0-2 0H4a1 1 0 0 0-2 0H0c0-3.866 1-7 5-7s5 3.134 5 7H8z" fill="#99aab5"/><path d="M2 28a1 1 0 1 0-2.001.001 1 1 0 0 0 2 0M6 28a1 1 0 1 0-2.001.001 1 1 0 0 0 2 0M10 28a1 1 0 1 0-2.001.001 1 1 0 0 0 2 0M34 2h-4v20h4V2z" fill="#99aab5"/><path d="M34 2a2 2 0 1 1-3.999.001A2 2 0 0 1 34 2M32 36c1 0 2-1 2-3V17s-7-2-7 8.001C27 31 30 36 32 36" fill="#99aab5"/></g></svg>