<svg xmlns="http://www.w3.org/2000/svg" viewBox="0 0 45 45"><defs><clipPath id="a"><path d="M0 36h36V0H0v36z"/></clipPath></defs><g clip-path="url(#a)" transform="matrix(1.25 0 0 -1.25 0 45)"><path d="M19 15.745S30.458 26.786 31.583 27.75c1.125.964-.708 2.25-2.957 2.25H6.129c-1.125 0-4.483-.73-2.796-2.417C4.537 26.38 16 15.745 16 15.745V5.622s-4.584-2.34-5.498-2.883c-.984-.562-.33-1.462.063-1.617C11.222.864 12.819.02 17.346.02c4.64 0 6.202.914 6.764 1.102.217.072 1.347.932.011 1.723C21.743 4.253 19 5.622 19 5.622v10.123z" fill="#8899a6"/><path d="M32 28.558c0-1.621-6.547-2.935-14.623-2.935S2.754 26.937 2.754 28.558c0 1.622 6.547 2.935 14.623 2.935S32 30.18 32 28.558" fill="#ccd6dd"/><path d="M4.458 28.416c1.265-1.232 8.538-7.235 11.7-9.835.9-.742 2.134-.623 2.8-.123.668.5 11.168 9.583 11.168 9.583l-25.668.375z" fill="#ccd6dd"/><path d="M16.868 19.468c-.237.124-.05.8.248 1.328l7.449 14.518a1.099 1.099 0 1 0 1.914-1.082L17.81 20.347c-.15-.264-.673-1.02-.943-.88" fill="#662113"/><path d="M21.745 28.145c1.133-.64 1.996-2.636 1.2-4.046-.797-1.411-2.954-1.7-4.087-1.06-1.132.64-2.065 2.515-1.199 4.046.865 1.532 2.953 1.7 4.086 1.06" fill="#5c913b"/><path d="M16.797 25.239c-3.775 0-7.361.49-10.737 1.47l-.13.038a1 1 0 0 0 .556 1.922l.132-.038c6.533-1.9 13.943-1.855 22.018.132a.998.998 0 0 0 1.21-.733.998.998 0 0 0-.732-1.21c-4.288-1.054-8.403-1.581-12.317-1.581" fill="#fff"/></g></svg>