<svg xmlns="http://www.w3.org/2000/svg" viewBox="0 0 45 45"><defs><clipPath id="a"><path d="M0 36h36V0H0v36z"/></clipPath></defs><g clip-path="url(#a)" transform="matrix(1.25 0 0 -1.25 0 45)"><path d="M33 15c-.56 2.797-2.108 6.956-3.707 10.015 1.8 1.248 3.359 3.716 3.359 8.483C32 34 31.371 34 30 34c-1.37 0-3.77 1-3.77 1h-1.372S22.687 34 22 34c-.686 0-3.043.043-3.513-.427 0-4.709 1.613-7.207 3.337-8.49C20.251 22.006 18.699 17.794 18 15c-1-4-.034-9.327 0-9.5.312-1.584 2.254-3.5 7.5-3.5s7.021 1.999 7.5 3.5c.056.175 1 4.5 0 9.5" fill="#55acee"/><path d="M32.626 33.704c0-.988-2.162-1.789-7.083-1.789s-7.083.801-7.083 1.79c0 .988 2.162 1.788 7.083 1.788s7.083-.8 7.083-1.789" fill="#3b88c3"/><path d="M25.43 31.356c-3.153 0-5.514.701-6.153 1.001a1 1 0 1 0 .849 1.811c.732-.344 5.593-1.708 11.045.094a1 1 0 1 0 .627-1.9 20.325 20.325 0 0 0-6.367-1.006" fill="#88c9f9"/><path d="M19.652 11.611c0 1.104-.868 1.39-2.542 1.39H4.835c-.839 0-2.479.48-2.479-1.298 0-10.199 6.195-11.906 8.366-11.906 3.008 0 8.93 1.55 8.93 11.814" fill="#ccd6dd"/><path d="M19.621 12.309c0-1.206-2.639-2.184-8.649-2.184s-8.649.978-8.649 2.184c0 1.207 2.64 2.184 8.65 2.184s8.648-.977 8.648-2.184" fill="#8899a6"/><path d="M10.828 9.662c-3.801 0-6.643.841-7.413 1.202a1 1 0 0 0 .849 1.811c.906-.425 6.927-2.115 13.649.105a.996.996 0 0 0 1.263-.636.998.998 0 0 0-.635-1.262 24.604 24.604 0 0 0-7.713-1.22" fill="#fff"/><path d="M28.667 19.605c0-.955-.793-1.73-1.771-1.73-.978 0-1.771.775-1.771 1.73s.793 1.729 1.771 1.729c.978 0 1.771-.774 1.771-1.73" fill="#88c9f9"/><path d="M30.667 17.605c0-.955-.793-1.73-1.771-1.73-.978 0-1.771.775-1.771 1.73s.793 1.729 1.771 1.729c.978 0 1.771-.774 1.771-1.73" fill="#88c9f9"/><path d="M28.667 16.605c0-.955-.793-1.73-1.771-1.73-.978 0-1.771.775-1.771 1.73s.793 1.729 1.771 1.729c.978 0 1.771-.774 1.771-1.73M22.074 10.047c.658-.262.974-1.021.706-1.694-.269-.674-1.02-1.007-1.678-.745-.657.26-.973 1.02-.705 1.694.268.674 1.02 1.008 1.677.745" fill="#88c9f9"/><path d="M24.001 10.876c.658-.262.974-1.021.706-1.694-.269-.674-1.02-1.008-1.678-.747-.657.263-.974 1.022-.705 1.696.269.674 1.02 1.007 1.677.745" fill="#88c9f9"/><path d="M24.142 9.224c.657-.262.973-1.021.705-1.694-.27-.674-1.02-1.007-1.678-.745-.657.26-.973 1.02-.705 1.694.269.674 1.02 1.008 1.678.745" fill="#88c9f9"/><path d="M28.75 17.875a1.125 1.125 0 1 0-2.25 0 1.125 1.125 0 0 0 2.25 0M23.792 8.916a.792.792 0 1 0-1.585.003.792.792 0 0 0 1.585-.003" fill="#bbddf5"/></g></svg>