<svg xmlns="http://www.w3.org/2000/svg" viewBox="0 0 45 45"><defs><clipPath id="a"><path d="M0 36h36V0H0v36z"/></clipPath><clipPath id="b"><path d="M3.523 32A1.523 1.523 0 0 1 2 30.478V8c0-.84 1.159-2 2-2h13.477C18.319 6 19 6.682 19 7.522v22.956c0 .84-.681 1.522-1.523 1.522H3.523z"/></clipPath><clipPath id="c"><path d="M0 36h36V0H0v36z"/></clipPath><clipPath id="d"><path d="M14.522 26c-.84 0-1.522-.681-1.522-1.523V1.523C13 .681 13.682 0 14.522 0h13.956C29.318 0 30 .681 30 1.523v22.954c0 .842-.682 1.523-1.522 1.523H14.522z"/></clipPath><clipPath id="e"><path d="M0 36h36V0H0v36z"/></clipPath></defs><g clip-path="url(#a)" transform="matrix(1.25 0 0 -1.25 0 45)"><path d="M19 7.522C19 6.683 18.318 6 17.478 6H4c-1 0-2 .683-2 1.857V30.81c0 .508.682 1.19 1.522 1.19h13.956c.84 0 1.522-.681 1.522-1.523V7.523z" fill="#ffcc4d"/></g><g clip-path="url(#b)" transform="matrix(1.25 0 0 -1.25 0 45)"><path d="M17.512 29.432a2.276 2.276 0 0 1-2.168-1.597 1.85 1.85 0 0 1-.497.075 1.89 1.89 0 0 1-1.177-.418 3.035 3.035 0 0 1-3.011 2.702 3.042 3.042 0 0 1-2.993-2.524 1.51 1.51 0 0 1-.814.24c-.38 0-.722-.145-.99-.374a3.043 3.043 0 0 1-2.816 1.896C1.364 29.432 0 33.239 0 26.387a3.043 3.043 0 1 1 5.863-1.149 1.51 1.51 0 0 1 2.234.276 3.035 3.035 0 0 1 2.562-1.412 3.03 3.03 0 0 1 2.418 1.213 1.903 1.903 0 0 1 1.77-1.213c.723 0 1.343.408 1.666 1 .303-.148.639-.238.999-.238a2.284 2.284 0 0 1 2.284 2.284c0 3.807-1.022 2.284-2.284 2.284" fill="#ffac33"/></g><g clip-path="url(#c)" transform="matrix(1.25 0 0 -1.25 0 45)"><path d="M11 9a1 1 0 0 0-1 1v11a1 1 0 0 0 2 0V10a1 1 0 0 0-1-1M6 9a1 1 0 0 0-1 1v11a1 1 0 0 0 2 0V10a1 1 0 0 0-1-1" fill="#ffac33"/><path d="M20 31c0 2-1 3-3 3H3c-2 0-3-1-3-3v-1.568c0-.073.012-.143.021-.213A38.836 38.836 0 0 1 0 27.909a3.045 3.045 0 1 1 5.863-1.149 1.508 1.508 0 0 1 2.234.276 3.037 3.037 0 0 1 2.562-1.411c.99 0 1.862.48 2.418 1.213a1.902 1.902 0 0 1 1.77-1.213c.722 0 1.342.407 1.666 1a2.26 2.26 0 0 1 .999-.239C18.773 26.386 20 27.739 20 29c0 .235.01-.196 0 0 .004.039 0 .392 0 .432V31z" fill="#ccd6dd"/><path d="M27 20V8h4.557S33 8.204 33 9.727V18c0 1 0 2-2 2h-4zm9-11.955A3.045 3.045 0 0 0 32.954 5h-5.908A3.045 3.045 0 0 0 24 8.045v11.91A3.045 3.045 0 0 0 27.046 23h5.908A3.045 3.045 0 0 0 36 19.955V8.045z" fill="#ffac33"/><path d="M30 2c0-1-1-2-2-2H15c-1 0-2 1-2 2v22.478c0 .84.682 1.522 1.523 1.522h13.955c.84 0 1.522-.682 1.522-1.522V2z" fill="#ffcc4d"/></g><g clip-path="url(#d)" transform="matrix(1.25 0 0 -1.25 0 45)"><path d="M28.512 23.432a2.276 2.276 0 0 1-2.168-1.597 1.85 1.85 0 0 1-.497.075 1.89 1.89 0 0 1-1.177-.418 3.035 3.035 0 0 1-3.011 2.702 3.042 3.042 0 0 1-2.993-2.524 1.51 1.51 0 0 1-.814.24c-.38 0-.722-.145-.99-.374a3.043 3.043 0 0 1-2.816 1.896c-1.682 0-3.046 3.807-3.046-3.045a3.043 3.043 0 1 1 5.863-1.149 1.51 1.51 0 0 1 2.234.276 3.035 3.035 0 0 1 2.562-1.411c.99 0 1.863.48 2.418 1.212a1.902 1.902 0 0 1 1.77-1.212c.723 0 1.343.407 1.666 1 .303-.148.639-.24.999-.24a2.284 2.284 0 0 1 2.284 2.285c0 3.807-1.022 2.284-2.284 2.284" fill="#ffac33"/></g><g clip-path="url(#e)" transform="matrix(1.25 0 0 -1.25 0 45)"><path d="M31 25c0 2-1 3-3 3H14c-2 0-3-1-3-3v-1.568c0-.073.012-.143.021-.213a38.836 38.836 0 0 1-.021-1.31 3.045 3.045 0 1 1 5.863-1.149 1.508 1.508 0 0 1 2.234.276 3.037 3.037 0 0 1 2.562-1.411c.99 0 1.862.48 2.418 1.213a1.902 1.902 0 0 1 1.77-1.213c.722 0 1.342.407 1.666 1.001.302-.149.638-.24.999-.24C29.773 20.386 31 21.739 31 23c0 .235.01-.196 0 0 .004.039 0 .392 0 .432V25z" fill="#e1e8ed"/><path d="M16 3a1 1 0 0 0-1 1v11a1 1 0 1 0 2 0V4a1 1 0 0 0-1-1M26 3a1 1 0 0 0-1 1v11a1 1 0 1 0 2 0V4a1 1 0 0 0-1-1M21 3a1 1 0 0 0-1 1v11a1 1 0 1 0 2 0V4a1 1 0 0 0-1-1" fill="#ffac33"/><path d="M22 30a1 1 0 0 0-1 1v3a1 1 0 1 0 2 0v-3a1 1 0 0 0-1-1M25 29a.999.999 0 0 0-.707 1.707l4 4a.999.999 0 1 0 1.414-1.414l-4-4A.997.997 0 0 0 25 29" fill="#f4900c"/></g></svg>