<svg xmlns="http://www.w3.org/2000/svg" viewBox="0 0 45 45"><defs><clipPath id="a"><path d="M0 36h36V0H0v36z"/></clipPath></defs><g clip-path="url(#a)" transform="matrix(1.25 0 0 -1.25 0 45)"><path d="M19 34.5a1.5 1.5 0 1 1-3 0V25a1 1 0 0 0-2 0v9.5a1.5 1.5 0 1 1-3 0V25a1 1 0 0 0-2 0v9.5a1.5 1.5 0 1 1-3 0v-9c0-.127.021-.249.051-.367A4.395 4.395 0 0 1 6 24.5c0-2.316 1.75-5.957 4-6.442V2.5a2.5 2.5 0 1 1 5 0v15.558c2.249.485 4 4.126 4 6.442 0 .216-.021.426-.051.633.031.118.051.24.051.367v9zM27.5 36c-.104 0-.204-.019-.306-.031-.064.01-.127.031-.194.031-2.209 0-5-5.477-5-11 0-4.658 1.275-8.561 3-9.672V2.5a2.5 2.5 0 1 1 5 0v31a2.5 2.5 0 0 1-2.5 2.5" fill="#99aab5"/></g></svg>