<svg xmlns="http://www.w3.org/2000/svg" viewBox="0 0 45 45"><defs><clipPath id="a"><path d="M0 36h36V0H0v36z"/></clipPath><clipPath id="b"><path d="M9 23a3.822 3.822 0 0 1-3.84-3.997l.68-14.006C5.928 2.799 7.799 1 10 1h16c2.201 0 4.073 1.799 4.16 3.997l.679 14.006A3.82 3.82 0 0 1 27 23H9z"/></clipPath><clipPath id="c"><path d="M5 19h26v-2H5v2z"/></clipPath><clipPath id="d"><path d="M0 36h36V0H0v36z"/></clipPath></defs><g clip-path="url(#a)" transform="matrix(1.25 0 0 -1.25 0 45)"><path d="M7 22.5a2.5 2.5 0 1 0-5 0 2.5 2.5 0 0 0 5 0M34 22.5a2.5 2.5 0 1 0-5 0 2.5 2.5 0 0 0 5 0" fill="#e1e8ed"/><path d="M31.594 19H4.449v4h27.145v-4z" fill="#e1e8ed"/><path d="M31 21H4.855v4h26.77L31 21z" fill="#e1e8ed"/><path d="M12 26.5a3.5 3.5 0 1 0-7 0 3.5 3.5 0 0 0 7 0" fill="#ffd983"/><path d="M14 29.5a2.5 2.5 0 1 0-5 0 2.5 2.5 0 0 0 5 0" fill="#ffd983"/><path d="M16 27.5a2.5 2.5 0 1 0-5 0 2.5 2.5 0 0 0 5 0" fill="#ffd983"/><path d="M20 29.5a2.5 2.5 0 1 0-5 0 2.5 2.5 0 0 0 5 0" fill="#ffd983"/><path d="M20 27.5a2.5 2.5 0 1 0-5 0 2.5 2.5 0 0 0 5 0M26 32.5a2.5 2.5 0 1 0-5 0 2.5 2.5 0 0 0 5 0" fill="#ffd983"/><path d="M26 27.5a2.5 2.5 0 1 0-5 0 2.5 2.5 0 0 0 5 0" fill="#ffd983"/><path d="M27 24.5a2.5 2.5 0 1 0-5 0 2.5 2.5 0 0 0 5 0" fill="#ffd983"/><path d="M23 24.5a2.5 2.5 0 1 0-5 0 2.5 2.5 0 0 0 5 0" fill="#ffd983"/><path d="M20 23.5a2.5 2.5 0 1 0-5 0 2.5 2.5 0 0 0 5 0" fill="#ffd983"/><path d="M18 24.5a2.5 2.5 0 1 0-5 0 2.5 2.5 0 0 0 5 0" fill="#ffd983"/><path d="M16 24.5a2.5 2.5 0 1 0-5 0 2.5 2.5 0 0 0 5 0" fill="#ffd983"/><path d="M14 23.5a2.5 2.5 0 1 0-5 0 2.5 2.5 0 0 0 5 0" fill="#ffd983"/><path d="M11 23.5a2.5 2.5 0 1 0-5 0 2.5 2.5 0 0 0 5 0M30 22.5a2.5 2.5 0 1 0-5 0 2.5 2.5 0 0 0 5 0M28 28.5a2.5 2.5 0 1 0-5 0 2.5 2.5 0 0 0 5 0" fill="#ffd983"/><path d="M31 25.5a2.5 2.5 0 1 0-5 0 2.5 2.5 0 0 0 5 0M24 29.5a2.5 2.5 0 1 0-5 0 2.5 2.5 0 0 0 5 0" fill="#ffd983"/><path d="M23 27.5a2.5 2.5 0 1 0-5 0 2.5 2.5 0 0 0 5 0M28 31.5a1.5 1.5 0 1 0-3 0 1.5 1.5 0 0 0 3 0M31 28.5a1.5 1.5 0 1 0-3 0 1.5 1.5 0 0 0 3 0M32 23.5a1.5 1.5 0 1 0-3 0 1.5 1.5 0 0 0 3 0M7 23.5a1.5 1.5 0 1 0-3 0 1.5 1.5 0 0 0 3 0" fill="#ffd983"/><path d="M29 29.5a1.5 1.5 0 1 0-3 0 1.5 1.5 0 0 0 3 0" fill="#ffd983"/><path d="M26 30.5a1.5 1.5 0 1 0-3.001.001A1.5 1.5 0 0 0 26 30.5M12 25.5a1.5 1.5 0 1 0-3.001.001A1.5 1.5 0 0 0 12 25.5" fill="#ffac33"/><path d="M14 24.5a1.5 1.5 0 1 0-3.001.001A1.5 1.5 0 0 0 14 24.5" fill="#ffac33"/><path d="M12 23.5a1.5 1.5 0 1 0-3.001.001A1.5 1.5 0 0 0 12 23.5" fill="#ffac33"/><path d="M11 23.5a1.5 1.5 0 1 0-3.001.001A1.5 1.5 0 0 0 11 23.5" fill="#ffac33"/><path d="M9 23.5a1.5 1.5 0 1 0-3.001.001A1.5 1.5 0 0 0 9 23.5M16 22.5a1.5 1.5 0 1 0-3.001.001A1.5 1.5 0 0 0 16 22.5M20 26.5a1.5 1.5 0 1 0-3.001.001A1.5 1.5 0 0 0 20 26.5M31 23.5a1.5 1.5 0 1 0-3.001.001A1.5 1.5 0 0 0 31 23.5" fill="#ffac33"/><path d="M19 24.5a1.5 1.5 0 1 0-3.001.001A1.5 1.5 0 0 0 19 24.5" fill="#ffac33"/><path d="M18 22.5a1.5 1.5 0 1 0-3.001.001A1.5 1.5 0 0 0 18 22.5M29 28a1 1 0 1 0-2 0 1 1 0 0 0 2 0M29 23a1 1 0 1 0-2 0 1 1 0 0 0 2 0M13 29a1 1 0 1 0-2 0 1 1 0 0 0 2 0M26 25a2 2 0 1 0-4 0 2 2 0 0 0 4 0" fill="#ffac33"/><path d="M23 24a2 2 0 1 0-4 0 2 2 0 0 0 4 0" fill="#ffac33"/><path d="M26 22a2 2 0 1 0-4 0 2 2 0 0 0 4 0M23 27a2 2 0 1 0-4 0 2 2 0 0 0 4 0" fill="#ffac33"/><path d="M22 25.5a1.5 1.5 0 1 0-3 0 1.5 1.5 0 0 0 3 0M13 23.5a1.5 1.5 0 1 0-3 0 1.5 1.5 0 0 0 3 0" fill="#ffd983"/><path d="M11 22.5a1.5 1.5 0 1 0-3 0 1.5 1.5 0 0 0 3 0M20 23.5a1.5 1.5 0 1 0-3 0 1.5 1.5 0 0 0 3 0M23 23.5a1.5 1.5 0 1 0-3 0 1.5 1.5 0 0 0 3 0" fill="#ffd983"/><path d="M22 23.5a1.5 1.5 0 1 0-3 0 1.5 1.5 0 0 0 3 0" fill="#ffd983"/><path d="M30.182 4.996C30.082 2.798 28.2 1 26 1H10C7.8 1 5.919 2.798 5.819 4.996l-.637 14.008A3.797 3.797 0 0 0 9 23h18a3.798 3.798 0 0 0 3.819-3.996l-.637-14.008z" fill="#e1e8ed"/></g><g clip-path="url(#b)" transform="matrix(1.25 0 0 -1.25 0 45)"><path d="M17.668 20h1c-.5 0-2 .657-2-1l-.001-2V1h3.001v18c0 1.657-1.5 1-2 1M23.668 20h1c-.5 0-2 .657-2-1V1h3v18c0 1.657-1.5 1-2 1M29.668 20h1c-.5 0-2 .657-2-1V1h3v18c0 1.657-1.5 1-2 1M11.668 20h1c-.5 0-2 .657-2-1V1h3v18c0 1.657-1.5 1-2 1M5.668 20h1c-.5 0-2 .657-2-1V1h3v18c0 1.657-1.5 1-2 1" fill="#da2f47"/><g clip-path="url(#c)" opacity=".6"><path d="M31 17H5v2h26v-2z" fill="#99aab5"/></g></g><g clip-path="url(#d)" transform="matrix(1.25 0 0 -1.25 0 45)"><path d="M34 21c0-1.104-1.119-2-2.5-2s-2.5.896-2.5 2c0 1.105 1.119 2 2.5 2s2.5-.895 2.5-2M7 21c0-1.104-1.119-2-2.5-2S2 19.896 2 21c0 1.105 1.119 2 2.5 2S7 22.105 7 21" fill="#e1e8ed"/><path d="M31.594 19H4.449v4h27.145v-4z" fill="#e1e8ed"/><path d="M32 22a1 1 0 0 0-1-1H5a1 1 0 0 0 0 2h26a1 1 0 0 0 1-1" fill="#fff"/><path d="M33.281 24.25c.281-.297 2.141-2.422.031-4.594-.359.11-.75 3.875-.562 4.141.187.266.531.453.531.453M2.737 24.25c-.281-.297-2.221-2.391-.112-4.562.36.109.83 3.843.643 4.109-.187.266-.531.453-.531.453" fill="#e1e8ed"/></g></svg>