<svg xmlns="http://www.w3.org/2000/svg" viewBox="0 0 45 45"><defs><clipPath id="a"><path d="M0 36h36V0H0v36z"/></clipPath><clipPath id="b"><path d="M18.456 18.727S21.534 5.75 27.76 2.008c1.041-.626 2.135-.981 2.17-.035.027.769-.035 3.008-.244 3.742.7-.316 2.412-.63 3.601-.49s2.554 1.574 1.085 1.644c-6.331-.315-8.71 13.467-9.234 15.146-1.295-.595-5.807-2.763-6.682-3.288"/></clipPath><clipPath id="c"><path d="M0 36h36V0H0v36z"/></clipPath></defs><g clip-path="url(#a)" transform="matrix(1.25 0 0 -1.25 0 45)"><path d="M21.293 20.542a1 1 0 0 0-.877.518c-1.003 1.82-1.381 3.77-1.685 5.336-.082.427-.161.834-.248 1.215a1 1 0 0 0 1.95.445c.091-.401.174-.83.262-1.279.291-1.504.621-3.207 1.473-4.753a1 1 0 0 0-.875-1.482"/><path d="M18.456 18.727c.875.524 5.387 2.693 6.682 3.288.524-1.679 2.903-15.462 9.234-15.146 1.47-.07.105-1.504-1.085-1.644-1.188-.14-2.9.174-3.602.49.21-.735.272-2.973.245-3.743-.035-.945-1.129-.59-2.169.035-6.227 3.742-9.305 16.72-9.305 16.72" fill="#be1931"/></g><g clip-path="url(#b)" transform="matrix(1.25 0 0 -1.25 0 45)"><path d="M18.212 16.769c.244.14 8.43 3.813 8.43 3.813l-1.26 2.273s-8.15-3.393-8.044-3.393c.104 0 .874-2.693.874-2.693" fill="#a0041e"/></g><g clip-path="url(#c)" transform="matrix(1.25 0 0 -1.25 0 45)"><path d="M18.212 18.552c1.135.454 6.19 2.764 7.205 3.253 1.015.49.7 2.344-.49 1.924-1.19-.42-6.051-2.763-7.205-3.253-1.154-.489-.384-2.274.49-1.924" fill="#ffac33"/><path d="M6.195 21.956c-1.895 1.62 4.242 5.004 7.798 6.138-.251-1.072-5.064-8.475-7.798-6.138M25.54 31.614c.963 2.3 6.06-2.512 8.224-5.55-1.096-.089-9.615 2.233-8.225 5.55" fill="#a6d388"/><path d="M3.083.375a1.5 1.5 0 0 0-1.5 1.5c0 .192-.005.439-.01.734C1.486 6.774 1.512 19.14 10 33.417c.423.712 1.055 1.254 1.766.831.712-.423.323-1.369-.1-2.081C3.617 18.628 4.49 6.624 4.572 2.672c.007-.322.012-.589.012-.797a1.5 1.5 0 0 0-1.5-1.5" fill="#5c913b"/><path d="M2.082 2.959a1.5 1.5 0 0 0-.088 2.997l2.083.125c.825.061 1.537-.58 1.587-1.407a1.5 1.5 0 0 0-1.408-1.587l-2.083-.125a1.383 1.383 0 0 0-.091-.003" fill="#3e721d"/><path d="M7.71.417a1.5 1.5 0 0 0-1.474 1.786c.035.18.078.448.132.793 3.4 21.294 13.516 28.269 21.799 30.837.799.245 2.104.36 2.349-.43.245-.792-.6-1.282-1.391-1.528-7.472-2.316-16.638-9.579-19.794-29.352a34.002 34.002 0 0 0-.15-.892A1.5 1.5 0 0 0 7.71.417" fill="#5c913b"/><path d="M9.916 27.375c-.199 0-.4.04-.594.123l-2.125.917a1.5 1.5 0 1 0 1.189 2.754l2.125-.916a1.501 1.501 0 0 0-.595-2.878M5.46 15.084c-.125 0-.251.016-.377.048l-2.25.583a1.5 1.5 0 0 0 .752 2.904l2.25-.583a1.5 1.5 0 0 0-.375-2.952M22.668 27.25a1.5 1.5 0 0 0-1.245.662l-1.292 1.916a1.5 1.5 0 0 0 2.488 1.677l1.292-1.917a1.5 1.5 0 0 0-1.243-2.338M14.665 17.708c-.235 0-.473.056-.695.172l-2.542 1.334a1.5 1.5 0 1 0 1.394 2.656l2.541-1.333a1.5 1.5 0 0 0-.698-2.829M9.918 6.042a1.5 1.5 0 0 0-.384.05l-2.209.583a1.499 1.499 0 1 0 .766 2.9l2.209-.583a1.499 1.499 0 0 0-.383-2.95" fill="#3e721d"/><path d="M4.958 20.792c-2.252-1.068-2.834 5.916-2.417 9.625.875-.667 5.668-8.084 2.417-9.625" fill="#a6d388"/></g></svg>