<svg xmlns="http://www.w3.org/2000/svg" viewBox="0 0 45 45"><defs><clipPath id="a"><path d="M0 36h36V0H0v36z"/></clipPath></defs><g clip-path="url(#a)" transform="matrix(1.25 0 0 -1.25 0 45)"><path d="M11.626 28.512a1.413 1.413 0 0 1-.268-.395l-.008.008L.134 2.86l.011-.011c-.208-.403.14-1.223.853-1.937C1.71.2 2.53-.148 2.933.06l.01-.01L28.21 11.265l-.008.009c.148.07.282.155.395.268 1.562 1.562-.971 6.627-5.657 11.313-4.686 4.687-9.752 7.219-11.314 5.657" fill="#dd2e44"/><path d="M13 24L.416 3.494l-.282-.635.011-.01c-.208-.404.14-1.223.853-1.937a3.97 3.97 0 0 1 .709-.557L17 19l-4 5z" fill="#ea596e"/><path d="M23.012 22.934c4.67-4.672 7.263-9.652 5.789-11.124-1.473-1.474-6.453 1.118-11.126 5.788-4.671 4.672-7.263 9.653-5.79 11.126 1.474 1.474 6.454-1.119 11.127-5.79" fill="#a0041e"/><path d="M18.59 22.39a.99.99 0 0 0-.734-.214c-.868.094-1.597.396-2.11.873-.54.505-.807 1.182-.734 1.862.128 1.192 1.324 2.286 3.363 2.066.793-.085 1.147.169 1.158.29.014.122-.277.447-1.07.533-.868.094-1.597.396-2.11.873-.54.505-.808 1.183-.734 1.862.13 1.193 1.325 2.286 3.362 2.066.578-.063.882.057 1.01.134.105.063.146.123.15.158.01.12-.276.445-1.071.53a1 1 0 0 0 .215 1.989c2.037-.22 2.973-1.542 2.844-2.735-.13-1.192-1.324-2.285-3.363-2.065-.578.063-.88-.057-1.01-.134-.103-.063-.145-.124-.15-.157-.012-.122.278-.447 1.072-.532 2.037-.22 2.973-1.543 2.844-2.736-.13-1.192-1.325-2.286-3.362-2.065-.578.062-.882-.057-1.012-.134-.103-.063-.143-.124-.147-.158-.013-.121.276-.446 1.07-.531a1 1 0 0 0 .519-1.774" fill="#aa8dd8"/><path d="M30.661 13.143c1.973.557 3.334-.323 3.658-1.478.324-1.154-.378-2.615-2.349-3.17-.77-.215-1-.583-.97-.701.034-.118.425-.312 1.193-.094 1.972.554 3.333-.326 3.657-1.48.327-1.155-.377-2.614-2.35-3.17-.769-.216-1-.585-.967-.702.033-.117.423-.31 1.192-.095a1 1 0 1 0 .54-1.925c-1.97-.555-3.333.323-3.659 1.479-.324 1.154.38 2.613 2.353 3.169.77.217 1.001.584.967.702-.033.117-.422.312-1.19.096-1.974-.556-3.335.322-3.66 1.478-.325 1.155.378 2.614 2.352 3.17.767.215 1 .585.966.7-.034.12-.422.314-1.192.097a1 1 0 1 0-.54 1.924" fill="#77b255"/><path d="M23.001 15.84a1.001 1.001 0 0 0-.626 1.78c.218.176 5.418 4.26 12.767 3.209a.999.999 0 0 0 .848-1.131.995.995 0 0 0-1.132-.848c-6.493.922-11.187-2.754-11.233-2.791a.994.994 0 0 0-.624-.22" fill="#aa8dd8"/><path d="M5.754 20a1 1 0 0 0-.958 1.288c1.133 3.773 2.16 9.793.898 11.363-.142.178-.354.353-.842.316-.939-.071-.849-2.051-.848-2.071a1 1 0 1 0-1.994-.149c-.104 1.379.326 4.035 2.691 4.214 1.056.08 1.933-.287 2.553-1.057 2.371-2.951-.036-11.506-.543-13.192A1 1 0 0 0 5.754 20" fill="#77b255"/><path d="M27 26.5a1.5 1.5 0 1 0-3.001.001A1.5 1.5 0 0 0 27 26.5" fill="#5c913b"/><path d="M4 18a2 2 0 1 0-4.001.001A2 2 0 0 0 4 18" fill="#9266cc"/><path d="M34 16.5a1.5 1.5 0 1 0-3.001.001A1.5 1.5 0 0 0 34 16.5M25 4.5a1.5 1.5 0 1 0-3.001.001A1.5 1.5 0 0 0 25 4.5" fill="#5c913b"/><path d="M30 32a2 2 0 1 0-4 0 2 2 0 0 0 4 0M34 27.5a1.5 1.5 0 1 0-3.001.001A1.5 1.5 0 0 0 34 27.5M31 23.5a1.5 1.5 0 1 0-3.001.001A1.5 1.5 0 0 0 31 23.5M9 12.5a1.5 1.5 0 1 0-3.001.001A1.5 1.5 0 0 0 9 12.5" fill="#ffcc4d"/></g></svg>