<svg xmlns="http://www.w3.org/2000/svg" viewBox="0 0 45 45"><defs><clipPath id="a"><path d="M0 36h36V0H0v36z"/></clipPath></defs><g clip-path="url(#a)" transform="matrix(1.25 0 0 -1.25 0 45)"><path d="M33 5c0-2.2-1.8-4-4-4H7C4.8 1 3 2.8 3 5v17c0 2.2 1.8 4 4 4h22c2.2 0 4-1.8 4-4V5z" fill="#fdd888"/><path d="M36 25c0-2.2-1.8-4-4-4H4c-2.2 0-4 1.8-4 4s1.8 4 4 4h28c2.2 0 4-1.8 4-4" fill="#fdd888"/><path d="M33 19H3v2h30v-2z" fill="#fcab40"/><path d="M19 33h-1.999a3 3 0 0 1-3-3H14V1h8v29a3 3 0 0 1-3 3" fill="#da2f47"/><path d="M16 29c1.1 0 1.263.516.361 1.147l-6.722 4.706a1.795 1.795 0 0 1-2.631-.589l-2.016-3.528C4.446 29.781 4.9 29 6 29h10zM20 29c-1.1 0-1.263.516-.361 1.147l6.722 4.706a1.795 1.795 0 0 0 2.631-.589l2.016-3.528C31.554 29.781 31.1 29 30 29H20z" fill="#da2f47"/></g></svg>