<svg xmlns="http://www.w3.org/2000/svg" viewBox="0 0 45 45"><defs><clipPath id="a"><path d="M0 36h36V0H0v36z"/></clipPath></defs><g clip-path="url(#a)" transform="matrix(1.25 0 0 -1.25 0 45)"><path d="M5 15c0-2.209-1.119-4-2.5-4S0 12.791 0 15c0 2.21 1.119 4.001 2.5 4.001S5 17.21 5 15" fill="#af7e57"/><path d="M3 17.438c0 8.526 5.373 15.438 12 15.438s12-6.912 12-15.438C27 8.912 21.627 2 15 2S3 8.912 3 17.438" fill="#af7e57"/><path d="M20 36c-.249 0-.477-.007-.713-.012-.097.002-.19.012-.287.012-10 0-17-4.582-17-9 0-4.419 6.373-4 13-4 4.442 0 7.648.001 9.966.086L25 23l6-15h2s.343 3.055 1 7c1 6 .533 21-14 21" fill="#dd2e44"/><path d="M30 15c0-2.209-1.119-4-2.5-4S25 12.791 25 15c0 2.21 1.119 4.001 2.5 4.001S30 17.21 30 15" fill="#af7e57"/><path d="M10 15a1 1 0 0 0-1 1v2a1 1 0 0 0 2 0v-2a1 1 0 0 0-1-1M20 15a1 1 0 0 0-1 1v2a1 1 0 1 0 2 0v-2a1 1 0 0 0-1-1" fill="#60352a"/><path d="M16 10h-2a1 1 0 1 0 0 2h2a1 1 0 1 0 0-2" fill="#915a34"/><path d="M27 11c0 2-2.293.707-3 0-1-1-3-3-5-2-2.828 1.414-4 1-4 1s-1.171.414-4-1c-2-1-4 1-5 2-.707.707-3 2-3 0s1-2 1-2C3 7 5 6 5 6c0-3 3-3 3-3 0-3 4-2 4-2 1-1 3-1 3-1s2 0 3 1c0 0 4-1 4 2 0 0 3 0 3 3 0 0 2 1 1 3 0 0 1 0 1 2" fill="#e6e7e8"/><path d="M15 8c7 0 4-2 0-2s-7 2 0 2" fill="#af7e57"/><path d="M1 22c0 2.209.896 4 2 4s2-1.791 2-4-.896-4-2-4-2 1.791-2 4M24 22c0 2.209.896 4 2 4 1.105 0 2-1.791 2-4s-.895-4-2-4c-1.104 0-2 1.791-2 4" fill="#d1d3d4"/><path d="M28 7a4 4 0 1 1 8 0 4 4 0 0 1-8 0M29 24a2 2 0 0 0-2-2H2a2 2 0 0 0-2 2v1a2 2 0 0 0 2 2h25a2 2 0 0 0 2-2v-1z" fill="#f1f2f2"/></g></svg>