<svg xmlns="http://www.w3.org/2000/svg" viewBox="0 0 45 45"><defs><clipPath id="a"><path d="M0 36h36V0H0v36z"/></clipPath></defs><g clip-path="url(#a)" transform="matrix(1.25 0 0 -1.25 0 45)"><path d="M32 5.47C32 3.003 29.969 1 27.5 1S23 3.002 23 5.47v11.942C23 19.88 25.031 23 27.5 23s4.5-3.12 4.5-5.588V5.47z" fill="#77b255"/><path d="M21.456 30.412c0-2.198-1.337-3.98-2.985-3.98-1.649 0-2.986 1.782-2.986 3.98s1.337 3.98 2.986 3.98c1.648 0 2.985-1.782 2.985-3.98" fill="#ffe8b6"/><path d="M23 5.47C23 3.003 20.969 1 18.5 1S14 3.002 14 5.47v24.942C14 32.88 16.031 36 18.5 36s4.5-3.12 4.5-5.588V5.47z" fill="#77b255"/><path d="M21.456 30.412c0-2.198-1.337-3.98-2.985-3.98-1.649 0-2.986 1.782-2.986 3.98s1.337 3.98 2.986 3.98c1.648 0 2.985-1.782 2.985-3.98M30.456 17.412c0-2.2-1.337-3.98-2.985-3.98-1.649 0-2.986 1.78-2.986 3.98 0 2.198 1.337 3.98 2.986 3.98 1.648 0 2.985-1.782 2.985-3.98" fill="#ffe8b6"/><path d="M14 5.47C14 3.003 11.969 1 9.5 1S5 3.002 5 5.47v18.942C5 26.88 7.031 30 9.5 30s4.5-3.12 4.5-5.588V5.47z" fill="#77b255"/><path d="M12.456 24.412c0-2.198-1.337-3.98-2.985-3.98-1.649 0-2.986 1.782-2.986 3.98s1.337 3.98 2.986 3.98c1.648 0 2.985-1.782 2.985-3.98" fill="#ffe8b6"/><path d="M24 14a1 1 0 0 0-1-1h-9a1 1 0 1 0 0 2h9a1 1 0 0 0 1-1M24 22a1 1 0 0 0-1-1h-9a1 1 0 0 0 0 2h9a1 1 0 0 0 1-1M15 18a1 1 0 0 0-1-1H5a1 1 0 1 0 0 2h9a1 1 0 0 0 1-1" fill="#5c913b"/><path d="M35 3.5A2.5 2.5 0 0 0 32.5 1h-28a2.5 2.5 0 1 0 0 5h28A2.5 2.5 0 0 0 35 3.5" fill="#d99e82"/><path d="M31 9s-1.229.565-3.272 1.176c-.645-1.426-1.299-2.785-1.561-3.426-.519-1.27-1.125-.875-.925.169.102.532.461 2.616.737 3.729-1.987.487-4.45.909-7.162.996-.15-1.727-.402-3.219-.484-4.144-.125-1.417-1.5-1.333-1.625-.042-.067.702-.163 2.683-.26 4.171a27.18 27.18 0 0 1-6.292-1.016c.091-1.013.304-2.884.386-3.53.185-1.469-.554-1.086-.834-.291a70.3 70.3 0 0 1-1.266 3.259A24.178 24.178 0 0 1 6 9C4 8 2 6 2 5V4h33v1c0 1-2 3-4 4" fill="#5c913b"/></g></svg>