<svg xmlns="http://www.w3.org/2000/svg" viewBox="0 0 45 45"><defs><clipPath id="a"><path d="M0 36h36V0H0v36z"/></clipPath></defs><g clip-path="url(#a)" transform="matrix(1.25 0 0 -1.25 0 45)"><path d="M36 11c0-5.523-8.059-10-18-10S0 5.477 0 11s8.059 10 18 10 18-4.477 18-10" fill="#939598"/><path d="M36 13c0-5.523-8.059-10-18-10S0 7.477 0 13s8.059 10 18 10 18-4.477 18-10" fill="#f1f2f2"/><path d="M32.8 14c0-4.54-6.626-8.223-14.8-8.223S3.2 9.46 3.2 14c0 4.54 6.626 8.222 14.8 8.222S32.8 18.54 32.8 14" fill="#ccd6dd"/><path d="M29 14c0-3.068-4.926-5.556-11-5.556-6.075 0-11 2.488-11 5.556s4.925 5.556 11 5.556c6.074 0 11-2.488 11-5.556" fill="#8a4b38"/><path d="M31.403 13.957c0-3.891-6-7.044-13.403-7.044-7.403 0-13.404 3.153-13.404 7.044C4.596 17.846 10.597 21 18 21c7.402 0 13.403-3.154 13.403-7.043" fill="#ad5540"/><path d="M31 15c0-9-26-9-26 0v8h26v-8z" fill="#662113"/><path d="M31.403 23.956c0-3.89-6-7.043-13.403-7.043-7.403 0-13.404 3.153-13.404 7.043S10.597 31 18 31c7.402 0 13.403-3.154 13.403-7.044" fill="#ad5540"/><path d="M11 23a1 1 0 0 0-1 1v7a1 1 0 0 0 2 0v-7a1 1 0 0 0-1-1M18 20a1 1 0 0 0-1 1v7a1 1 0 0 0 2 0v-7a1 1 0 0 0-1-1M25 23a1 1 0 0 0-1 1v7a1 1 0 1 0 2 0v-7a1 1 0 0 0-1-1" fill="#88c9f9"/><path d="M25 29.5c-1.061 0-1.896.486-2.233 1.299-.292.706-.438 2.238 1.879 4.555a.502.502 0 0 0 .708 0c2.317-2.317 2.171-3.849 1.879-4.555-.337-.813-1.171-1.299-2.233-1.299M18 26.5c-1.061 0-1.896.486-2.233 1.299-.293.706-.437 2.238 1.879 4.555a.502.502 0 0 0 .708 0c2.317-2.317 2.171-3.849 1.879-4.555-.337-.813-1.171-1.299-2.233-1.299M11 29.5c-1.062 0-1.896.486-2.233 1.299-.293.706-.437 2.238 1.879 4.555a.502.502 0 0 0 .708 0c2.316-2.317 2.172-3.849 1.879-4.555-.337-.813-1.172-1.299-2.233-1.299" fill="#ffac33"/></g></svg>