<svg xmlns="http://www.w3.org/2000/svg" viewBox="0 0 45 45"><defs><clipPath id="a"><path d="M0 36h36V0H0v36z"/></clipPath><clipPath id="b"><path d="M10 15c-2.209 0-3-1.791-3-4V7c0-2.209.791-4 3-4h25c2.209 0-4 3.791-4 6s6.209 6 4 6H10z"/></clipPath><clipPath id="c"><path d="M0 36h36V0H0v36z"/></clipPath><clipPath id="d"><path d="M10 31c-2.209 0-3-1.791-3-4v-4c0-2.209.791-4 3-4h25c2.209 0-4 3.791-4 6s6.209 6 4 6H10z"/></clipPath></defs><path d="M3.75 45h2.501V3.75H3.75V45z" fill="#ccd6dd"/><g clip-path="url(#a)" transform="matrix(1.25 0 0 -1.25 0 45)"><path d="M7 33a3 3 0 1 0-6 0 3 3 0 0 0 6 0" fill="#f4900c"/><path d="M9 8H4a1 1 0 1 0 0 2h5a1 1 0 1 0 0-2" fill="#66757f"/><path d="M27 14c0-1.656-2.463-3-5.5-3-3.038 0-5.5 1.344-5.5 3s.462 4 3.5 4c3.037 0 7.5-2.344 7.5-4" fill="#dd2e44"/><path d="M31 9c0-2.209 6.209-6 4-6H10C7.791 3 7 4.791 7 7v4c0 2.209.791 4 3 4h25c2.209 0-4-3.791-4-6" fill="#dd2e44"/><path d="M15 11a3 3 0 1 0-6 0 3 3 0 0 0 6 0" fill="#fff"/><path d="M13 11.5a1.5 1.5 0 1 0-3 0 1.5 1.5 0 0 0 3 0"/></g><g clip-path="url(#b)" transform="matrix(1.25 0 0 -1.25 0 45)"><path d="M15 16c2-2 7-7 0-14 4-1 10-1.458 16-1 6 .458 6 4.75 6 7.209C37 10.666 43 16 36 17s-21-1-21-1" fill="#f4abba"/></g><g clip-path="url(#c)" transform="matrix(1.25 0 0 -1.25 0 45)"><path d="M9 24H4a1 1 0 0 0 0 2h5a1 1 0 0 0 0-2" fill="#66757f"/><path d="M27 30c0-1.657-2.463-3-5.5-3-3.038 0-5.5 1.343-5.5 3s.462 4 3.5 4c3.037 0 7.5-2.343 7.5-4" fill="#55acee"/><path d="M31 25c0-2.209 6.209-6 4-6H10c-2.209 0-3 1.791-3 4v4c0 2.209.791 4 3 4h25c2.209 0-4-3.791-4-6" fill="#55acee"/><path d="M15 27a3 3 0 1 0-6 0 3 3 0 0 0 6 0" fill="#fff"/><path d="M13 27.5a1.5 1.5 0 1 0-2.999-.001A1.5 1.5 0 0 0 13 27.5"/></g><g clip-path="url(#d)" transform="matrix(1.25 0 0 -1.25 0 45)"><path d="M15 32c2-2 7-7 0-14 4-1 10-1.458 16-1 6 .458 6 4.751 6 7.208C37 26.667 43 32 36 33s-21-1-21-1" fill="#bbddf5"/></g></svg>