<svg xmlns="http://www.w3.org/2000/svg" viewBox="0 0 45 45"><defs><clipPath id="a"><path d="M0 36h36V0H0v36z"/></clipPath></defs><g clip-path="url(#a)" transform="matrix(1.25 0 0 -1.25 0 45)"><path d="M27.999 0a1 1 0 0 0-.969.758c-.036.136-.926 3.435-4.272 4.272C18.054 6.206 18 12.723 18 13a1 1 0 0 0 .998.999c.554-.034 1-.445 1.002-.997 0-.053.054-5.234 3.242-6.032 4.53-1.132 5.682-5.54 5.728-5.728A1 1 0 0 0 27.999 0" fill="#fcab40"/><path d="M18 11c-1.1 0-1.598.805-1.105 1.789l1.21 2.422c.493.984 1.297.984 1.79 0l1.21-2.422C21.598 11.805 21.1 11 20 11h-2z" fill="#bb1a34"/><path d="M28 27c0-6-7-12-9-12s-9 6-9 12c0 5.799 4.581 9 9 9 4.418 0 9-3.201 9-9" fill="#bb1a34"/><path d="M20 14h-2a1 1 0 1 0 0 2h2a1 1 0 1 0 0-2" fill="#fcab40"/></g></svg>