<svg xmlns="http://www.w3.org/2000/svg" viewBox="0 0 45 45"><defs><clipPath id="a"><path d="M0 36h36V0H0v36z"/></clipPath></defs><g clip-path="url(#a)" transform="matrix(1.25 0 0 -1.25 0 45)"><path d="M18 31h6c7 0 11-7.887 11-16C35 0 26 0 18 0S1 0 1 15c0 9.958 6 16 11 16h6" fill="#f18f26"/><path d="M26.972 11.629c-.035-.67-.352-1.405-.972-2.13-1.605-1.872-3.386-1.48-4.04.82A25.258 25.258 0 0 0 18 10c-7 0-12 3-12 3 0-2.672 1.015-4.437 2.465-5.623.148.32.345.634.635.924 1.485 1.485 3.105.675 3.6-1.8a5.09 5.09 0 0 0 .097-1.057C14.849 5.003 16.859 5 18 5c3 0 12 0 12 8 0 0-1.121-.667-3.028-1.371" fill="#642116"/><path d="M20.873 30.764a.637.637 0 0 0-.647-.764h-4.452a.636.636 0 0 0-.647.764l.746 4.472c.07.42.476.764.901.764h2.452a.948.948 0 0 0 .901-.764l.746-4.472z" fill="#3f7123"/><path d="M16 30s2 5.001 8 5.001c5 0 7-5 7-5L16 30z" fill="#5c913b"/><path d="M8.691 24.891c.793 1.48 2.093 1.48 2.887 0l2.163-4.034c.795-1.479-.306-2.689-2.446-2.689H8.971c-2.139 0-3.239 1.21-2.446 2.69l2.166 4.033zM24.423 24.891c.794 1.48 2.093 1.48 2.887 0l2.164-4.034c.794-1.479-.307-2.689-2.447-2.689h-2.324c-2.138 0-3.24 1.21-2.445 2.69l2.165 4.033zM19.198 13.038c-.586-1.09-1.544-1.09-2.13 0l-1.598 2.977c-.586 1.092.226 1.985 1.805 1.985h1.715c1.58 0 2.393-.893 1.806-1.985l-1.598-2.977z" fill="#642116"/></g></svg>