<svg xmlns="http://www.w3.org/2000/svg" viewBox="0 0 45 45"><defs><clipPath id="a"><path d="M0 36h36V0H0v36z"/></clipPath></defs><g clip-path="url(#a)" transform="matrix(1.25 0 0 -1.25 0 45)"><path d="M36 4a4 4 0 0 0-4-4H4a4 4 0 0 0-4 4v28a4 4 0 0 0 4 4h28a4 4 0 0 0 4-4V4z" fill="#269"/><path d="M18 33.751L21.751 30H27v-5.249L30.751 21 27 17.249V12h-5.249L18 8.249 14.249 12H9v5.249L5.249 21 9 24.751V30h5.249L18 33.751z" fill="#55acee"/><path d="M18 31.406l2.234-5.069 4.852 1.417-1.418-4.85 6.486-2.236-6.486-2.235 1.418-4.85L20.234 15 18 2.845 15.765 15l-4.85-1.417 1.417 4.85-6.487 2.235 6.487 2.235-1.417 4.851 4.85-1.417L18 31.407z" fill="#ffd983"/><path d="M21 21a3 3 0 1 0-6 0 3 3 0 0 0 6 0" fill="#f5f8fa"/><path d="M9.999 23a.996.996 0 0 0-.554.168l-6 4a1 1 0 0 0 1.11 1.664l6-4A1 1 0 0 0 9.999 23M26.001 23a1 1 0 0 0-.556 1.832l6 4a1 1 0 1 0 1.11-1.664l-6-4a.996.996 0 0 0-.554-.168M4.001 12a1 1 0 0 0-.556 1.832l6 4a1.001 1.001 0 0 0 1.11-1.664l-6-4A1.004 1.004 0 0 0 4.001 12M32.999 12a.988.988 0 0 0-.495.132l-7 4a.998.998 0 0 0-.372 1.364.998.998 0 0 0 1.364.372l7-4A.998.998 0 0 0 32.999 12M10 2a1 1 0 0 0-.913 1.406l4 9a1 1 0 1 0 1.826-.812l-4-9A1.001 1.001 0 0 0 10 2M26.001 2a1 1 0 0 0-.915.594l-4 9a1 1 0 0 0 1.828.812l4-9A1 1 0 0 0 26.001 2M15.001 28a1 1 0 0 0-.896.553l-2 4a1.001 1.001 0 0 0 1.789.894l2-4A1 1 0 0 0 15.001 28M20.999 28a1.001 1.001 0 0 0-.894 1.447l2 4a1 1 0 1 0 1.789-.894l-2-4a.998.998 0 0 0-.895-.553" fill="#ffcc4d"/></g></svg>