<svg xmlns="http://www.w3.org/2000/svg" viewBox="0 0 45 45"><defs><clipPath id="a"><path d="M0 36h36V0H0v36z"/></clipPath></defs><g clip-path="url(#a)" transform="matrix(1.25 0 0 -1.25 0 45)"><path d="M33.73 17.813c-.491-1.982-1.376-2.514-3.356-2.023l-11.655 2.888 3.332 13.447 11.656-2.887c1.979-.49 2.514-1.376 2.023-3.357l-2-8.068z" fill="#e8eaeb"/><path d="M14.1 1.617a.923.923 0 0 0-.897 1.145l7.609 30.918a.923.923 0 1 0 1.792-.441l-7.608-30.92a.923.923 0 0 0-.896-.702" fill="#66757f"/><path d="M30.247 22.958a3.232 3.232 0 1 0-6.275 1.555 3.232 3.232 0 0 0 6.275-1.555" fill="#be1931"/><path d="M2.27 17.813c.49-1.982 1.375-2.514 3.356-2.023l11.655 2.888-3.333 13.447-11.655-2.887c-1.98-.49-2.514-1.376-2.023-3.357l2-8.068z" fill="#e8eaeb"/><path d="M21.9 1.617a.924.924 0 0 0-.896.703l-7.608 30.919a.923.923 0 1 0 1.794.44l7.607-30.917a.922.922 0 0 0-.897-1.145" fill="#66757f"/><path d="M5.752 22.958a3.233 3.233 0 1 1 6.276 1.556 3.233 3.233 0 0 1-6.276-1.556" fill="#be1931"/></g></svg>