<svg xmlns="http://www.w3.org/2000/svg" viewBox="0 0 45 45"><defs><clipPath id="a"><path d="M0 36h36V0H0v36z"/></clipPath><clipPath id="b"><path d="M27 17h-4c-1.65 0-4-3.584-4-7V4c0-1.65 1.35-3 3-3h10c1.65 0 3 1.35 3 3v6c0 3.416-2.35 7-4 7h-4z"/></clipPath><clipPath id="c"><path d="M0 36h36V0H0v36z"/></clipPath><clipPath id="d"><path d="M9 17H5c-1.65 0-4-3.584-4-7V4c0-1.65 1.35-3 3-3h10c1.65 0 3 1.35 3 3v6c0 3.416-2.35 7-4 7H9z"/></clipPath><clipPath id="e"><path d="M0 36h36V0H0v36z"/></clipPath></defs><g clip-path="url(#a)" transform="matrix(1.25 0 0 -1.25 0 45)"><path d="M31 17h-8c-1.65 0-4-3.583-4-7V4c0-1.65 1.35-3 3-3h10c1.65 0 3 1.35 3 3v6c0 3.417-2.35 7-4 7" fill="#f26522"/></g><g clip-path="url(#b)" transform="matrix(1.25 0 0 -1.25 0 45)"><path d="M23 16c0-2-.2-4 3-5V7c0-2.219-2.267-4-7-4V1h16v2c-4.733 0-7 1.781-7 4v4c3.2 1 3 3 3 5h-8z" fill="#d14a15"/></g><g clip-path="url(#c)" transform="matrix(1.25 0 0 -1.25 0 45)"><path d="M13 17H5c-1.65 0-4-3.583-4-7V4c0-1.65 1.35-3 3-3h10c1.65 0 3 1.35 3 3v6c0 3.417-2.35 7-4 7" fill="#27aae1"/></g><g clip-path="url(#d)" transform="matrix(1.25 0 0 -1.25 0 45)"><path d="M5 16c0-2-.2-4 3-5V7c0-2.219-2.267-4-7-4V1h16v2c-4.733 0-7 1.781-7 4v4c3.2 1 3 3 3 5H5z" fill="#005792"/></g><g clip-path="url(#e)" transform="matrix(1.25 0 0 -1.25 0 45)"><path d="M27 14c-4.527 0-6-3-6-3l6-4 6 4s-1.473 3-6 3" fill="#ffcc4d"/><path d="M35 24v-6c0-3-5.707 0-7.5 0-1.976 0-8.5-3-8.5 0v6a8 8 0 0 0 16 0" fill="#292f33"/><path d="M33 22c0-3-.406-7-6-7s-6 3-6 7c3.031 0 6 2 6 2s3.031-2 6-2" fill="#f5f8fa"/><path d="M31.603 19.639c-.906.146-2.457.47-3.318-.318-.358-.261-.098-1.003.572-.685.67.319 2.184.404 2.79.438.605.034.615.459-.044.565M22.436 19.639c.906.146 2.457.47 3.318-.318.358-.261.098-1.003-.572-.685-.669.319-2.184.404-2.789.438-.606.034-.616.459.043.565" fill="#292f33"/><path d="M32.02 29.741c0 1.247-2.24 2.26-5 2.26-2.761 0-5-1.013-5-2.26 0-.61 2.88-1.164 5-1.57 2.12.406 5 .96 5 1.57" fill="#f26522"/><path d="M27 30a1 1 0 0 0-1 1v3a1 1 0 1 0 2 0v-3a1 1 0 0 0-1-1M24 30a.997.997 0 0 0-.707.293l-2 2a.999.999 0 1 0 1.414 1.414l2-2A.999.999 0 0 0 24 30M30 30a.999.999 0 0 0-.707 1.707l2 2a.999.999 0 1 0 1.414-1.414l-2-2A.997.997 0 0 0 30 30" fill="#d14a15"/><path d="M25.52 16.703c0-.293.672-.53 1.5-.53s1.5.237 1.5.53c0 .293-.672.531-1.5.531s-1.5-.238-1.5-.53" fill="#a0041e"/><path d="M17 23v-3c0-3-6.207-3-8-3-1.976 0-8 0-8 3v3c0 4.418 3.582 6 8 6s8-1.582 8-6" fill="#292f33"/><path d="M3 23v-1c0-4 .406-7 6-7s6 4 6 7v1H3z" fill="#f5f8fa"/><path d="M13.603 19.639c-.906.146-2.457.47-3.318-.318-.358-.261-.098-1.003.572-.685.67.319 2.184.404 2.79.438.605.034.615.459-.044.565M4.436 19.639c.906.146 2.457.47 3.318-.318.358-.261.098-1.003-.572-.685-.669.319-2.184.404-2.789.438-.606.034-.616.459.043.565" fill="#292f33"/><path d="M7.52 16.703c0-.293.672-.53 1.5-.53s1.5.237 1.5.53c0 .293-.672.531-1.5.531s-1.5-.238-1.5-.53" fill="#a0041e"/><path d="M28.563 34a1.562 1.562 0 1 0-3.125 0 1.562 1.562 0 0 0 3.125 0M23.563 33a1.562 1.562 0 1 0-3.125 0 1.562 1.562 0 0 0 3.125 0M33.563 33a1.562 1.562 0 1 0-3.125 0 1.562 1.562 0 0 0 3.125 0" fill="#d14a15"/><path d="M5 9a1 1 0 1 0-2 0 1 1 0 0 0 2 0M15 6a1 1 0 1 0-2 0 1 1 0 0 0 2 0" fill="#bbddf5"/><path d="M23 6a1 1 0 1 0-2 0 1 1 0 0 0 2 0M33 6a1 1 0 1 0-2 0 1 1 0 0 0 2 0" fill="#ffb699"/><path d="M10.181 14.12l-1.18.004-1.18-.003c-.485-.001-.929-.324-.85-.98L8.121 2.998c.098-.513.394-.812.878-.81.484-.002.781.297.88.81L11.03 13.14c.078.656-.366.979-.85.98" fill="#ffcc4d"/><path d="M16 23.847c0-1.01-3.134-1.83-7-1.83s-7 .82-7 1.83c0 1.011 3.134 1.83 7 1.83s7-.819 7-1.83" fill="#292f33"/><path d="M12.125 28.126c0-3.46-6.25-3.46-6.25 0S7.274 35 9 35s3.125-3.414 3.125-6.874" fill="#26aae1"/></g></svg>