<svg xmlns="http://www.w3.org/2000/svg" viewBox="0 0 45 45"><defs><clipPath id="a"><path d="M0 36h36V0H0v36z"/></clipPath></defs><g clip-path="url(#a)" transform="matrix(1.25 0 0 -1.25 0 45)"><path d="M36 32a4 4 0 0 1-4 4H4a4 4 0 0 1-4-4V4a4 4 0 0 1 4-4h28a4 4 0 0 1 4 4v28z" fill="#269"/><path d="M18 16c-.419 0-.809-.265-.949-.684l-3-9a1 1 0 0 1 1.898-.633l3 9A1.001 1.001 0 0 1 18 16" fill="#ffcc4d"/><path d="M18 16a1 1 0 0 1-.965-1.263L20.262 2.88a1 1 0 0 1 1.93.526l-3.228 11.857A1 1 0 0 1 18 16" fill="#ffcc4d"/><path d="M18 16a1 1 0 0 1-.621-.216l-13.25-10.5a1 1 0 0 1 1.243-1.568l13.25 10.5A1 1 0 0 1 18 16" fill="#ffcc4d"/><path d="M18.002 16c-.04 0-.077-.002-.116-.006L5.553 14.577a1 1 0 0 1 .229-1.987l12.333 1.416A1 1 0 0 1 18.002 16" fill="#ffcc4d"/><path d="M3.5 22.917a1.001 1.001 0 0 1-.43-1.902l14.5-6.917a.998.998 0 1 1 .86 1.804l-14.5 6.917a.985.985 0 0 1-.43.098" fill="#ffcc4d"/><path d="M7.332 31.167a1 1 0 0 1-.817-1.575l10.668-15.167a1 1 0 1 1 1.634 1.15L8.151 30.742a.999.999 0 0 1-.819.425" fill="#ffcc4d"/><path d="M18 16a1 1 0 0 1-.663-1.749L29.044 3.876a1.001 1.001 0 0 1 1.326 1.498L18.664 15.749A1 1 0 0 1 18 16" fill="#ffcc4d"/><path d="M18 16a1 1 0 0 1-.314-1.95l12.333-4.083a1 1 0 1 1 .629 1.899L18.314 15.95c-.104.034-.21.051-.314.051" fill="#ffcc4d"/><path d="M31.835 17.5a.977.977 0 0 1-.108-.006l-13.835-1.5a1 1 0 1 1 .216-1.988l13.833 1.5a1 1 0 0 1-.106 1.994" fill="#ffcc4d"/><path d="M18 15l8.917 6.5M18 15l7.834 13" fill="none" stroke="#ffcc4d" stroke-width="2" stroke-linecap="round" stroke-miterlimit="10"/><path d="M20 36h-4V17a2 2 0 0 1 4 0v19z" fill="#55acee"/><path d="M21 15a3 3 0 1 1-6 0 3 3 0 0 1 6 0M6.963 4.306a2.36 2.36 0 1 1-4.719-.001 2.36 2.36 0 0 1 4.719 0M32.666 4.625a2.958 2.958 0 1 1-5.915 0 2.958 2.958 0 0 1 5.915 0M22.833 3.144a1.606 1.606 0 1 1-3.212 0 1.606 1.606 0 0 1 3.212 0M4.827 22.083a1.75 1.75 0 1 1-3.5 0 1.75 1.75 0 0 1 3.5 0M9.75 30.833a2.833 2.833 0 1 1-5.666 0 2.833 2.833 0 0 1 5.666 0M34.334 16.584a2.209 2.209 0 1 1-4.418 0 2.209 2.209 0 0 1 4.418 0M27.667 28a1.75 1.75 0 1 1-3.499.001A1.75 1.75 0 0 1 27.667 28" fill="#f5f8fa"/></g></svg>