<svg xmlns="http://www.w3.org/2000/svg" viewBox="0 0 45 45"><path d="M36.25 31.25h7.5v-17.5h-7.5v17.5zM1.25 31.25h7.5v-17.5h-7.5v17.5zM11.25 31.25h22.5v-17.5h-22.5v17.5z" fill="#bbddf5"/><path d="M33.75 31.25h-22.5v-17.5h22.5v17.5zm10-17.5V7.5H1.25v6.25h7.5v17.5h-7.5v6.25h42.5v-6.25h-7.5v-17.5h7.5z" fill="#231f20"/><path d="M38.75 12.5h2.5V8.75h-2.5v3.75zM33.75 12.5h2.5V8.75h-2.5v3.75zM28.75 12.5h2.5V8.75h-2.5v3.75zM23.75 12.5h2.5V8.75h-2.5v3.75zM18.75 12.5h2.5V8.75h-2.5v3.75zM13.75 12.5h2.5V8.75h-2.5v3.75zM8.75 12.5h2.5V8.75h-2.5v3.75zM3.75 12.5h2.5V8.75h-2.5v3.75zM38.75 36.25h2.5V32.5h-2.5v3.75zM33.75 36.25h2.5V32.5h-2.5v3.75zM28.75 36.25h2.5V32.5h-2.5v3.75zM23.75 36.25h2.5V32.5h-2.5v3.75zM18.75 36.25h2.5V32.5h-2.5v3.75zM13.75 36.25h2.5V32.5h-2.5v3.75zM8.75 36.25h2.5V32.5h-2.5v3.75zM3.75 36.25h2.5V32.5h-2.5v3.75z" fill="#f5f8fa"/><path d="M36.25 31.25h1.25v-17.5h-1.25v17.5zM11.25 31.25h1.25v-17.5h-1.25v17.5z" fill="#88c9f9"/></svg>