<svg xmlns="http://www.w3.org/2000/svg" viewBox="0 0 45 45"><defs><clipPath id="a"><path d="M0 36h36V0H0v36z"/></clipPath><clipPath id="b"><path d="M20.678 35.403L.592 15.326a1.893 1.893 0 0 1 .001-2.679l2.359-2.361a4.675 4.675 0 0 0 5.047-1.032 4.683 4.683 0 0 0 1.032-5.046L12.638.595a1.9 1.9 0 0 1 2.681 0L35.406 20.67c.742.744.742 1.941.005 2.68l-3.614 3.611a4.672 4.672 0 0 0-5.046 1.033 4.673 4.673 0 0 0-1.034 5.046l-2.36 2.362a1.895 1.895 0 0 1-1.342.557c-.484 0-.968-.186-1.337-.556"/></clipPath><clipPath id="c"><path d="M0 36h36V0H0v36z"/></clipPath></defs><g clip-path="url(#a)" transform="matrix(1.25 0 0 -1.25 0 45)"><path d="M26.751 27.994a4.672 4.672 0 0 1 5.046-1.032l3.613-3.611a1.896 1.896 0 0 0-.004-2.68L15.319.596a1.898 1.898 0 0 0-2.681 0L9.032 4.208A4.688 4.688 0 0 1 8 9.255a4.677 4.677 0 0 1-5.048 1.031l-2.359 2.36a1.894 1.894 0 0 0-.001 2.68l20.086 20.078a1.89 1.89 0 0 0 2.678-.003l2.362-2.362a4.673 4.673 0 0 1 1.033-5.046" fill="#ea596e"/><path d="M30.85 25.231l1.882-1.88a1.893 1.893 0 0 0-.001-2.677L15.32 3.274a1.898 1.898 0 0 0-2.682-.003L10.76 5.154a5.672 5.672 0 0 1-6.95 6.949l-.541.541a1.898 1.898 0 0 0 .003 2.68l17.407 17.402a1.9 1.9 0 0 0 2.678.003l.54-.546a5.666 5.666 0 0 1 1.47-5.484 5.67 5.67 0 0 1 5.484-1.468" fill="#be1931"/></g><g clip-path="url(#b)" transform="matrix(1.25 0 0 -1.25 0 45)"><path d="M5.237 20.518l-1.43-1.437 15.08-14.995 1.43 1.436-15.08 14.996zM16.802 32.125l-1.429-1.438 15.083-14.996 1.43 1.44-15.084 14.994z" fill="#ea596e"/></g><g clip-path="url(#c)" transform="matrix(1.25 0 0 -1.25 0 45)"><path d="M20.93 20.886c-2.237 2.228-5.368 2.708-6.993 1.078-1.624-1.634-1.125-4.764 1.114-6.992 2.239-2.226 5.374-2.71 7-1.075 1.625 1.633 1.125 4.76-1.12 6.989" fill="#ea596e"/></g></svg>