<svg xmlns="http://www.w3.org/2000/svg" viewBox="0 0 45 45"><defs><clipPath id="a"><path d="M0 36h36V0H0v36z"/></clipPath><clipPath id="b"><path d="M.963 35.248h34.074V8.64H.963v26.607z"/></clipPath></defs><g clip-path="url(#a)" transform="matrix(1.25 0 0 -1.25 0 45)"><path d="M24 22H12s-5-6-5-10S18 1 18 1s11 7 11 11-5 10-5 10" fill="#292f33"/><path d="M19.64 34.72c-.901.704-2.377.704-3.278 0L1.64 23.223c-.902-.703-.902-1.855 0-2.559L16.36 9.17c.903-.704 2.378-.704 3.279 0l14.723 11.495c.9.704.9 1.856 0 2.56L19.64 34.72z" fill="#292f33"/><g clip-path="url(#b)" opacity=".25"><path d="M19.64 34.72c-.901.704-2.377.704-3.278 0L1.64 23.223c-.902-.703-.902-1.855 0-2.559L16.36 9.17c.903-.704 2.378-.704 3.279 0l14.723 11.495c.9.704.9 1.856 0 2.56L19.64 34.72z" fill="#67757f"/></g><path d="M8 11S6 9 6 8V2s0-2 2-2 2 2 2 2v6c0 1-2 3-2 3" fill="#fcab40"/><path d="M11 10a3 3 0 1 0-6 0 3 3 0 1 0 6 0" fill="#fdd888"/><path d="M8.002 9a1 1 0 0 0-1 1v3.958c-.042.634.187 2.036 1.317 2.884l9.021 7.91a1 1 0 1 0 1.32-1.504L9.576 15.29C8.974 14.834 9 14.018 9 14.01L9.001 10a1 1 0 0 0-1-1" fill="#fcab40"/><g><path d="M21 23a3 3 0 1 0-6 0 3 3 0 0 0 6 0" fill="#292f33"/></g></g></svg>