<svg xmlns="http://www.w3.org/2000/svg" viewBox="0 0 45 45"><defs><clipPath id="a"><path d="M0 36h36V0H0v36z"/></clipPath><clipPath id="b"><path d="M11 36a2 2 0 0 1-2-2V23s0-1 1-2l7-5.444V15c0-.104-.104-1 1-1s1 .896 1 1v.556L26 21c1 1 1 2 1 2v11a2 2 0 0 1-2 2H11z"/></clipPath><clipPath id="c"><path d="M0 36h36V0H0v36z"/></clipPath></defs><g clip-path="url(#a)" transform="matrix(1.25 0 0 -1.25 0 45)"><path d="M25 36H11a2 2 0 0 1-2-2V23s0-1 1-2l7-5.444V15c0-.104-.104-1 1-1 1.105 0 1 .896 1 1v.556L26 21c1 1 1 2 1 2v11a2 2 0 0 1-2 2" fill="#55acee"/></g><g clip-path="url(#b)" transform="matrix(1.25 0 0 -1.25 0 45)"><path d="M24 16H12v20h12V16z" fill="#e1e8ed"/><path d="M22 16h-8v20h8V16z" fill="#dd2e44"/></g><g clip-path="url(#c)" transform="matrix(1.25 0 0 -1.25 0 45)"><path d="M22 15.5a1.5 1.5 0 0 0-1.5-1.5h-5a1.5 1.5 0 1 0 0 3h5a1.5 1.5 0 0 0 1.5-1.5" fill="#ffac33"/><path d="M26 8a8 8 0 1 0-16 0 8 8 0 0 0 16 0" fill="#ffac33"/><path d="M24 8a6 6 0 1 0-12 0 6 6 0 0 0 12 0" fill="#ffd983"/></g></svg>