<svg xmlns="http://www.w3.org/2000/svg" viewBox="0 0 45 45"><defs><clipPath id="a"><path d="M0 36h36V0H0v36z"/></clipPath></defs><g clip-path="url(#a)" transform="matrix(1.25 0 0 -1.25 0 45)"><path d="M33 4a4 4 0 0 0-4-4H7a4 4 0 0 0-4 4v28a4 4 0 0 0 4 4h22a4 4 0 0 0 4-4V4z" fill="#ccd6dd"/><path d="M19 5a1 1 0 1 0-2 0v26a1 1 0 0 0 2 0V5z" fill="#292f33"/><path d="M15 30a1 1 0 0 0-1-1h-4a1 1 0 0 0 0 2h4a1 1 0 0 0 1-1M15 18a1 1 0 0 0-1-1h-4a1 1 0 1 0 0 2h4a1 1 0 0 0 1-1M15 6a1 1 0 0 0-1-1h-4a1 1 0 1 0 0 2h4a1 1 0 0 0 1-1M27 30a1 1 0 0 0-1-1h-4a1 1 0 1 0 0 2h4a1 1 0 0 0 1-1M27 18a1 1 0 0 0-1-1h-4a1 1 0 1 0 0 2h4a1 1 0 0 0 1-1M27 6a1 1 0 0 0-1-1h-4a1 1 0 1 0 0 2h4a1 1 0 0 0 1-1M15 11.894c0-.493-.4-.894-.893-.894h-2.214a.894.894 0 0 0-.893.894v.213c0 .493.4.893.893.893h2.214c.493 0 .893-.4.893-.893v-.213zM25 11.894c0-.493-.4-.894-.893-.894h-2.214a.894.894 0 0 0-.893.894v.213c0 .493.4.893.893.893h2.214c.493 0 .893-.4.893-.893v-.213z" fill="#99aab5"/><path d="M25 23a2 2 0 0 0-2-2H13a2 2 0 0 0-2 2v2a2 2 0 0 0 2 2h10a2 2 0 0 0 2-2v-2z" fill="#269"/></g></svg>