<svg xmlns="http://www.w3.org/2000/svg" viewBox="0 0 45 45"><defs><clipPath id="a"><path d="M0 36h36V0H0v36z"/></clipPath><clipPath id="b"><path d="M4.847 36C1.054 36-4.281 25 5.859 8c.151-.253.823-.776 1.014-1 .192-.225-.297 1 .002 1h4.056c.559 0 1.325.541 1.015 1-14.2 20.917-2.622 25.089-2.587 25.107a.997.997 0 0 1 .528 1.125c-.108.45-.515.768-.983.768H4.847z"/></clipPath><clipPath id="c"><path d="M0 36h36V0H0v36z"/></clipPath><clipPath id="d"><path d="M27.23 36a1 1 0 0 1-.972-.768c-.107-.45.11-.916.522-1.125.035-.018 11.451-4.19-2.55-25.107-.307-.459.448-1 1-1h3.999c.296 0-.187-1.225.002-1 .19.224.852.747 1 1 4.264 7.248 5.753 13.404 5.769 18.083v.153C35.979 32.438 33.357 36 31.229 36H27.23z"/></clipPath><clipPath id="e"><path d="M0 36h36V0H0v36z"/></clipPath></defs><g clip-path="url(#a)" transform="matrix(1.25 0 0 -1.25 0 45)"><path d="M10.932 8c.559 0 1.325.541 1.014 1-14.2 20.917-2.621 25.089-2.587 25.107a.998.998 0 0 1 .529 1.125 1.01 1.01 0 0 1-.984.768H4.848c-3.793 0-9.13-11 1.01-28 .153-.253.824-.775 1.015-1 .193-.225-.296 1 .002 1h4.057z" fill="#c1694f"/></g><g clip-path="url(#b)" transform="matrix(1.25 0 0 -1.25 0 45)"><path d="M12.96 6c.558 0 1.324.541 1.014 1-14.2 20.917-2.621 25.089-2.586 25.107A.997.997 0 0 1 10.932 34H4.846C1.054 34-3.267 23 6.89 7.164c.158-.248.033-.586.225-.81A1.02 1.02 0 0 1 7.89 6h5.07z" fill="#662113"/></g><g clip-path="url(#c)" transform="matrix(1.25 0 0 -1.25 0 45)"><path d="M9.915 28c-.56 0-1.013.448-1.013 1 0 3.316-2.028 5-4.056 5-.47 0-.08.782.029 1.232.109.45.515.768.984.768h5.07c3.792 0 4.939-6.136 5.058-6.835a.992.992 0 0 0-.227-.811 1.023 1.023 0 0 0-.774-.354h-5.07zM25.23 8c-.552 0-1.307.541-1 1 14.002 20.917 2.585 25.089 2.55 25.107A1 1 0 1 0 27.23 36h4c3.74 0 9.003-11-.997-28-.148-.253-.811-.775-1-1-.19-.225.293 1-.002 1h-4z" fill="#c1694f"/></g><g clip-path="url(#d)" transform="matrix(1.25 0 0 -1.25 0 45)"><path d="M23.23 6c-.552 0-1.307.541-1 1 14.002 20.917 2.585 25.089 2.55 25.107A1 1 0 1 0 25.23 34h6.003c3.739 0 8-11-2.016-26.836-.156-.248-.033-.586-.222-.81A.998.998 0 0 0 28.23 6h-5z" fill="#662113"/></g><g clip-path="url(#e)" transform="matrix(1.25 0 0 -1.25 0 45)"><path d="M26.231 28a1 1 0 0 1 1 1c0 3.316 2 5 4 5 .463 0 .078.782-.029 1.232a.999.999 0 0 1-.97.768h-5c-3.739 0-4.87-6.136-4.987-6.835A1 1 0 0 1 21.231 28h5z" fill="#c1694f"/><path d="M6 4s0-4 4-4h16s4 0 4 4v22s0 4-4 4H10c-4 0-4-4-4-4V4z" fill="#be1931"/><path d="M24 8H12c-2.201 0-3 1.794-3 3v14a1 1 0 0 0 2 0V11c.012-.45.195-1 1-1h12c.45.012 1 .194 1 1v14a1 1 0 1 0 2 0V11c0-2.201-1.794-3-3-3" fill="#a0041e"/><path d="M16 11s0 1 1 1h2s1 0 1-1V6s0-1-1-1h-2s-1 0-1 1v5z" fill="#fff"/></g></svg>