<svg xmlns="http://www.w3.org/2000/svg" viewBox="0 0 45 45"><defs><clipPath id="a"><path d="M0 36h36V0H0v36z"/></clipPath><clipPath id="b"><path d="M4 36a4 4 0 0 1-4-4V4a4 4 0 0 1 4-4h28a4 4 0 0 1 4 4v28a4 4 0 0 1-4 4H4z"/></clipPath></defs><g clip-path="url(#a)" transform="matrix(1.25 0 0 -1.25 0 45)"><path d="M36 4a4 4 0 0 0-4-4H4a4 4 0 0 0-4 4v28a4 4 0 0 0 4 4h28a4 4 0 0 0 4-4V4z" fill="#269"/></g><g clip-path="url(#b)" transform="matrix(1.25 0 0 -1.25 0 45)"><path d="M9 20a1.002 1.002 0 0 0-.895.553c-1.006 2.013-2.259 4.519.063 8.002 1.984 2.976 4.367 4.825 6.22 4.825C15.65 33.38 17 32.492 17 30a.997.997 0 0 0-.293-.707c-.697-.697-4.512-5.7-6.907-8.893A1 1 0 0 0 9 20M12 12a1 1 0 0 0-.895.553c-1.366 2.733-1.029 5.216 1.095 8.047 1.99 2.653 3.356 3.785 4.566 3.785C19 24.385 19 21.085 19 20a.997.997 0 0 0-.293-.707c-.766-.766-4.219-4.87-5.939-6.934A1.003 1.003 0 0 0 12 12" fill="#ffcc4d"/><path d="M4-1a1 1 0 0 0-1 1c0 11.875 5.076 23.49 14.293 32.707a.999.999 0 1 0 1.414-1.414C9.868 22.454 5 11.341 5 0a1 1 0 0 0-1-1" fill="#77b255"/><path d="M5-1h-.026A.98.98 0 0 0 4-.012c0 2.42 8.299 17.76 17.515 22.88a.998.998 0 1 0 .97-1.744C13.825 16.312 6.101 1.836 6-.02 5.97-.552 5.53-1 5-1" fill="#77b255"/><path d="M2.999-1a1 1 0 0 0-.983.822l-.02.111c-.892 4.914-2.572 17.234 1.09 25.473a1 1 0 0 0 1.828-.812C1.478 16.863 3.105 5.021 3.964.289l.02-.111A1 1 0 0 0 2.999-1" fill="#77b255"/><path d="M1.001 12a1 1 0 0 0-.896.553 30.89 30.89 0 0 0-.527 1.15c-.418.945-1.526 3.446-2.162 3.642.003-.023-.21-.17-.521-.792a1.002 1.002 0 0 0-1.342-.448c-.494.248-.695.675-.448 1.169.63 1.26 1.411 1.726 2.321 1.726h.046c1.814 0 2.941-2.415 3.935-4.659.181-.411.345-.695.488-.98.247-.494.046-1.051-.448-1.299-.143-.071-.296-.062-.446-.062M18 9a1 1 0 0 0-1 1c0 2.023-.489 2.47-.639 2.558-.609.363-2.172-.503-3.107-1.02-.291-.16-.563-.311-.807-.433a1.002 1.002 0 0 0-.894 1.79c.222.111.47.248.735.394 1.476.816 3.499 1.929 5.089.991C18.469 13.636 19 12.236 19 10a1 1 0 0 0-1-1" fill="#77b255"/><path d="M23 28.5a5.5 5.5 0 1 1 11 0 5.5 5.5 0 0 1-11 0M23 5.5a2.5 2.5 0 1 1 5 0 2.5 2.5 0 0 1-5 0" fill="#e1e8ed"/><path d="M19 5.5a2.5 2.5 0 1 1 5 0 2.5 2.5 0 0 1-5 0M27 5.5a2.5 2.5 0 1 1 5 0 2.5 2.5 0 0 1-5 0" fill="#e1e8ed"/><path d="M25 9.5a2.5 2.5 0 1 1 5 0 2.5 2.5 0 0 1-5 0" fill="#e1e8ed"/><path d="M21 9.5a2.5 2.5 0 1 1 5 0 2.5 2.5 0 0 1-5 0" fill="#e1e8ed"/><path d="M23 13.5a2.5 2.5 0 1 1 5 0 2.5 2.5 0 0 1-5 0" fill="#e1e8ed"/><path d="M18 4h15V0H18v4z" fill="#c1694f"/></g></svg>