<svg xmlns="http://www.w3.org/2000/svg" viewBox="0 0 45 45"><defs><clipPath id="a"><path d="M0 36h36V0H0v36z"/></clipPath></defs><g clip-path="url(#a)" transform="matrix(1.25 0 0 -1.25 0 45)"><path d="M13.193 27.377S14.75 29 18 29c3.25 0 4.954-1.693 4.954-1.693l.186-.137s1.907 3.594.517 6.66c-1.064.705-2.996 1.67-5.657 1.67-2.555 0-4.45-.894-5.54-1.59-1.507-3.067.51-6.66.51-6.66l.223.126zM11.444 33.147l-.043-.038c.014.01.025.022.039.033l.004.005" fill="#1c6399"/><path d="M28.382 8.323c-.06.071-3.026 3.58-6.27 7.491-1.163-1.675-2.586-3.723-4.01-5.77C21.34 5.386 24.54.785 24.592.713a.497.497 0 0 1 .46-.21.498.498 0 0 1 .409.298l3 7a.504.504 0 0 1-.078.521M14.04 25.904c-.343.51-.611.996-.846 1.472-1.027 2.078-1.125 3.85-.945 5.334.059.487.152.905.21 1.201a6.958 6.958 0 0 1-1.015-.765l-.004-.005c-.014-.01-.025-.022-.038-.033-2.122-1.699-3.245-3.896-3.245-6.358 0-2.469 1.718-4.782 3.237-7.043.105-.156 1.194-1.727 2.706-3.904a613.57 613.57 0 0 1 4.01 4.88c-1.883 2.317-3.452 4.303-4.07 5.221" fill="#50a5e6"/><path d="M24.685 33.025l-.086.083a7.319 7.319 0 0 1-.941.722c.058-.297.156-.729.218-1.237.178-1.473.084-3.228-.921-5.285-.24-.49-.516-.994-.87-1.52-.608-.903-2.135-2.838-3.975-5.105a613.57 613.57 0 0 0-4.01-4.88 1145.663 1145.663 0 0 0-6.357-7.596.504.504 0 0 1-.08-.52l3-7a.504.504 0 0 1 .46-.304.5.5 0 0 1 .41.213c.053.074 3.306 4.751 6.57 9.447l4.01 5.77c1.465 2.11 2.515 3.625 2.618 3.778 1.518 2.261 3.237 4.574 3.237 7.042 0 2.478-1.135 4.69-3.283 6.392" fill="#2b7bb9"/></g></svg>