<svg xmlns="http://www.w3.org/2000/svg" viewBox="0 0 45 45"><defs><clipPath id="a"><path d="M0 36h36V0H0v36z"/></clipPath><clipPath id="b"><path d="M18 36a9 9 0 0 1-9-9v-8a9 9 0 0 1 9-9 9 9 0 0 1 9 9v8a9 9 0 0 1-9 9z"/></clipPath><clipPath id="c"><path d="M0 36h36V0H0v36z"/></clipPath></defs><path d="M37.5 21.25h-30v-2.5h30v2.5z" fill="#292f33"/><g clip-path="url(#a)" transform="matrix(1.25 0 0 -1.25 0 45)"><path d="M21 6c0-2.208-.792-4-3-4-2.209 0-3 1.792-3 4s.791 2 3 2c2.208 0 3 .208 3-2" fill="#292f33"/><path d="M18 5C11.373 5 8 3.657 8 2V0h20v2c0 1.657-3.373 3-10 3" fill="#66757f"/><path d="M27 19a9 9 0 0 0-9-9 9 9 0 0 0-9 9v8a9 9 0 0 0 9 9 9 9 0 0 0 9-9v-8z" fill="#99aab5"/></g><g clip-path="url(#b)" transform="matrix(1.25 0 0 -1.25 0 45)"><path d="M17 33.5a1.5 1.5 0 1 0-3 0 1.5 1.5 0 0 0 3 0M22 33.5a1.5 1.5 0 1 0-3 0 1.5 1.5 0 0 0 3 0M19 29.5a1.5 1.5 0 1 0-3 0 1.5 1.5 0 0 0 3 0M24 29.5a1.5 1.5 0 1 0-3 0 1.5 1.5 0 0 0 3 0M14 29.5a1.5 1.5 0 1 0-3 0 1.5 1.5 0 0 0 3 0M17 25.5a1.5 1.5 0 1 0-3 0 1.5 1.5 0 0 0 3 0M12 25.5a1.5 1.5 0 1 0-3 0 1.5 1.5 0 0 0 3 0M22 25.5a1.5 1.5 0 1 0-3 0 1.5 1.5 0 0 0 3 0M27 25.5a1.5 1.5 0 1 0-3 0 1.5 1.5 0 0 0 3 0M19 21.5a1.5 1.5 0 1 0-3 0 1.5 1.5 0 0 0 3 0M24 21.5a1.5 1.5 0 1 0-3 0 1.5 1.5 0 0 0 3 0M14 21.5a1.5 1.5 0 1 0-3 0 1.5 1.5 0 0 0 3 0" fill="#292f33"/><path d="M27 10H9v10.938h18V10z" fill="#66757f"/></g><g clip-path="url(#c)" transform="matrix(1.25 0 0 -1.25 0 45)"><path d="M7 21a1 1 0 1 0-2 0 1 1 0 0 0 2 0M31 21a1 1 0 1 0-2 0 1 1 0 0 0 2 0" fill="#66757f"/><path d="M29 21v-2c0-6.074-4.925-11-11-11S7 12.926 7 19v2H5v-2c0-7.18 5.82-13 13-13s13 5.82 13 13v2h-2z" fill="#66757f"/></g></svg>