<svg xmlns="http://www.w3.org/2000/svg" viewBox="0 0 45 45"><defs><clipPath id="a"><path d="M0 36h36V0H0v36z"/></clipPath></defs><g clip-path="url(#a)" transform="matrix(1.25 0 0 -1.25 0 45)"><path d="M17 0C15.68 0 7.759.826 6.293 2.293a1.001 1.001 0 0 0 .177 1.555c4.563 2.852 6.825 7.968 6.541 14.796A9.422 9.422 0 0 0 13 19a1 1 0 0 0 1 1h9a1 1 0 0 0 .997-.923c.841-10.931-2.468-15.783-3.93-17.361C19.043.609 17.954 0 17 0" fill="#99aab5"/><path d="M18 18a1 1 0 0 0-1 1v3a1 1 0 0 0 2 0v-3a1 1 0 0 0-1-1" fill="#3e721d"/><path d="M26 26c0-4.419-3.582-5-8-5-4.419 0-8 .581-8 5a8 8 0 1 0 16 0" fill="#77b255"/><path d="M18 32a1 1 0 0 0-1 1v2a1 1 0 0 0 2 0v-2a1 1 0 0 0-1-1" fill="#3e721d"/><path d="M20 15a2 2 0 1 0-4 0 2 2 0 0 0 4 0M19 9a2 2 0 1 0-4 0 2 2 0 0 0 4 0M16 3.5c0-.828-.895-1.5-2-1.5-1.104 0-2 .672-2 1.5S12.896 5 14 5c1.105 0 2-.672 2-1.5" fill="#fff"/></g></svg>