<svg xmlns="http://www.w3.org/2000/svg" viewBox="0 0 45 45"><defs><clipPath id="a"><path d="M0 36h36V0H0v36z"/></clipPath><clipPath id="b"><path d="M1 18C1 8.61 8.611 1 18 1c9.39 0 17 7.61 17 17 0 9.389-7.61 17-17 17-9.389 0-17-7.611-17-17"/></clipPath><clipPath id="c"><path d="M0 36h36V0H0v36z"/></clipPath><clipPath id="d"><path d="M9.514 18c0-4.686 3.8-8.486 8.486-8.486a8.486 8.486 0 0 1 .001 16.972A8.486 8.486 0 0 1 9.514 18"/></clipPath></defs><g clip-path="url(#a)" transform="matrix(1.25 0 0 -1.25 0 45)"><path d="M1 18c0 9.389 7.611 17 17 17 9.39 0 17-7.611 17-17 0-9.39-7.61-17-17-17C8.611 1 1 8.61 1 18" fill="#9aaab4"/></g><g clip-path="url(#b)" transform="matrix(1.25 0 0 -1.25 0 45)"><path d="M35 8c.55 1.671 0 8.146 0 10 0 9.389-7.61 17-17 17-9.389 0-17-7.611-17-17 0-1.854-.424-8.329.125-10L18 18 35 8z" fill="#ccd6dd"/></g><g clip-path="url(#c)" transform="matrix(1.25 0 0 -1.25 0 45)"><path d="M19.457 31.6a1.457 1.457 0 1 0-2.914 0 1.457 1.457 0 0 0 2.914 0M12.658 29.657a1.459 1.459 0 1 0-1.458 1.458c.805 0 1.458-.653 1.458-1.458M26.259 29.657a1.46 1.46 0 0 0-1.46-1.458 1.459 1.459 0 1 0 1.459 1.458M7.8 24.8a1.458 1.458 0 1 0-2.916 0 1.458 1.458 0 0 0 2.917 0" fill="#da2f47"/><path d="M31.114 24.8a1.457 1.457 0 1 0-2.915-.001 1.457 1.457 0 0 0 2.915 0" fill="#67757f"/><path d="M5.858 18a1.457 1.457 0 1 0-2.913 0 1.457 1.457 0 0 0 2.913 0" fill="#da2f47"/><path d="M33.059 18a1.457 1.457 0 1 0-2.914.002A1.457 1.457 0 0 0 33.059 18" fill="#67757f"/><path d="M7.628 18c0 5.728 4.644 10.372 10.372 10.372 5.726 0 10.371-4.644 10.371-10.372 0-5.727-4.645-10.371-10.37-10.371-5.729 0-10.373 4.644-10.373 10.371"/><path d="M18 26.486a8.486 8.486 0 1 0 0-16.972A8.487 8.487 0 0 0 18 26.486" fill="#292f33"/></g><g clip-path="url(#d)" transform="matrix(1.25 0 0 -1.25 0 45)"><path d="M18.707 17.293a.999.999 0 1 0-1.414 1.414l4.95 4.95a1 1 0 0 0 1.414-1.414l-4.95-4.95z" fill="#e1e8ed"/></g></svg>