<svg xmlns="http://www.w3.org/2000/svg" viewBox="0 0 45 45"><defs><clipPath id="a"><path d="M0 36h36V0H0v36z"/></clipPath></defs><g clip-path="url(#a)" transform="matrix(1.25 0 0 -1.25 0 45)"><path d="M36 18c0-9.941-8.059-18-18-18S0 8.059 0 18s8.059 18 18 18 18-8.059 18-18" fill="#ccd6dd"/><path d="M32 18c0-7.732-6.268-14-14-14S4 10.268 4 18s6.268 14 14 14 14-6.268 14-14" fill="#3b88c3"/><path d="M28 18c0-5.523-4.477-10-10-10S8 12.477 8 18s4.477 10 10 10 10-4.477 10-10" fill="#dd2e44"/><path d="M24 18a6 6 0 1 0-12 0 6 6 0 0 0 12 0" fill="#ffac33"/><path d="M34.864 6.8c-.42-.305-1.257-.591-1.934-.591-1.964 0-4.654.717-6.334 2.386l-2.954 3.872c-.274.275-.357.575-.21.932.148.359-.73.6-.343.6h5.058c1.867 0 4.308-1.255 5.925-3.016l.371-.351c.773-.843 1.183-1.63 1.182-2.386.001-.622-.27-1.088-.76-1.445"/><path d="M28.305.796c-.771 0-1.632.417-2.49 1.204l-.49.378C23.533 4.024 22 6.508 22 8.41v5.164c0 .396.5-.513.866-.363.363.15.915.066 1.195-.214l3.166-3.124c1.699-1.711 3.06-4.62 3.06-6.62 0-.69-.141-1.255-.451-1.682a1.838 1.838 0 0 0-1.531-.775"/><path d="M31.345 4.036c-.256 0-.487.122-.683.317l-14 14a1 1 0 1 0 1.415 1.414l14-14c.39-.39.377-1.036-.013-1.426a1.036 1.036 0 0 0-.72-.305" fill="#c1694f"/></g></svg>