<svg xmlns="http://www.w3.org/2000/svg" viewBox="0 0 45 45"><defs><clipPath id="a"><path d="M0 36h36V0H0v36z"/></clipPath></defs><g clip-path="url(#a)" transform="matrix(1.25 0 0 -1.25 0 45)"><path d="M32 15v-1h-2v1c0 .446-.09.867-.225 1.268A6.002 6.002 0 0 1 27.999 28a5.972 5.972 0 0 1-4.131-1.656A6.998 6.998 0 0 1 10 25.001 6.989 6.989 0 0 1 13.408 19H13a4 4 0 0 1-4-4H8l-6 4H1V5h1l6 4h1V7a4 4 0 0 1 4-4h13a4 4 0 0 1 4 4v3h2V9h3v6h-3z" fill="#292f33"/><path d="M22 25a5 5 0 1 0-10.002.002A5 5 0 0 0 22 25" fill="#66757f"/><path d="M19 25c0-1.105-1-2-2-2s-2 .895-2 2a2 2 0 0 0 4 0" fill="#ccd6dd"/><path d="M31.999 22a4 4 0 1 0-8 0 4 4 0 0 0 8 0" fill="#66757f"/><path d="M29.999 22a2 2 0 1 0-4 0 2 2 0 0 0 4 0" fill="#ccd6dd"/><path d="M27 6H17v10h10V6z" fill="#8899a6"/><path d="M25 8h-6v6h6V8z" fill="#292f33"/><path d="M14.999 8a2 2 0 1 0-4 0 2 2 0 0 0 4 0" fill="#8899a6"/></g></svg>