<svg xmlns="http://www.w3.org/2000/svg" viewBox="0 0 45 45"><defs><clipPath id="a"><path d="M0 36h36V0H0v36z"/></clipPath></defs><g clip-path="url(#a)" transform="matrix(1.25 0 0 -1.25 0 45)"><path d="M35.845 4c0-2.2-1.8-4-4-4h-26c-2.2 0-4 1.8-4 4v13c0 2.2 1.8 4 4 4h26c2.2 0 4-1.8 4-4V4z" fill="#3f7123"/><path d="M35.845 15h-34v6h34v-6z" fill="#3f7123"/><path d="M35.845 14h-34v7h34v-7z" fill="#ccd6dd"/><path d="M26.845 21l-4-7h7l4 7h-7zm-14 0l-4-7h7l4 7h-7zm-11 0h4l-4-7v7z" fill="#292f33"/><path d="M34.84 29.207L1.844 21l-1.69 6.793L33.15 36l1.69-6.793z" fill="#ccd6dd"/><path d="M32.899 28.725l-5.572 5.828-6.793-1.69 5.572-5.827 6.793 1.689zm-13.586-3.38l-5.572 5.828-6.793-1.69 5.572-5.827 6.793 1.69zM.155 27.794l5.572-5.827L1.845 21l-1.69 6.793z" fill="#292f33"/></g></svg>