<svg xmlns="http://www.w3.org/2000/svg" viewBox="0 0 45 45"><defs><clipPath id="a"><path d="M0 36h36V0H0v36z"/></clipPath><clipPath id="b"><path d="M6 17a2 2 0 0 1-2-2L3 3a2 2 0 0 1 2-2h26a2 2 0 0 1 2 2l-1 12c0-1.562-.895 2-2 2H6z"/></clipPath><clipPath id="c"><path d="M3 17c0-4.782 0-3 2-3h26c2 0 2-1.062 2 3 0 4-8 2-15 13-7-11-15-9-15-13"/></clipPath><clipPath id="d"><path d="M0 36h36V0H0v36z"/></clipPath></defs><g clip-path="url(#a)" transform="matrix(1.25 0 0 -1.25 0 45)"><path d="M33 3a2 2 0 0 0-2-2H5a2 2 0 0 0-2 2l1 12a2 2 0 0 0 2 2h24c1.105 0 2-3.562 2-2l1-12z" fill="#dd2e44"/><path d="M19 27a1 1 0 0 0-2 0v7a1 1 0 0 0 1 1v-.042c.552 0 1-.406 1-.958v-7z"/><path d="M18.838 35.794c-1.171.165-1.838-.112-1.838-1.212v-1c0-1.101.865-1.753 1.923-1.451l5.154.9c1.715.344 1.548 1.594.085 1.886l-5.324.877z" fill="#55acee"/><path d="M18 30C11 19 3 21 3 17c0-2 0-3 2-3h26c2 0 2 1 2 3 0 4-8 2-15 13" fill="#f5f8fa"/></g><g clip-path="url(#b)" transform="matrix(1.25 0 0 -1.25 0 45)"><path d="M13 1c-.792 1.875-1.75 3.291-3.417 4.666 1.75 1.459 4.543 5.5 5.25 8.292.709 2.792 2.75-8.125 2.042-10.625C16.167.833 13 1 13 1M23.303 1c.79 1.875 1.75 3.291 3.416 4.666-1.75 1.459-4.541 5.5-5.25 8.292-.707 2.792-2.75-8.125-2.04-10.625C20.137.833 23.303 1 23.303 1" fill="#ea596e"/><path d="M8 13.5a2.5 2.5 0 1 0-5 0 2.5 2.5 0 0 0 5 0M33 13.5a2.5 2.5 0 1 0-5 0 2.5 2.5 0 0 0 5 0M16 13a2 2 0 1 0-4 0 2 2 0 0 0 4 0M24 13a2 2 0 1 0-4 0 2 2 0 0 0 4 0M12 13a2 2 0 1 0-4 0 2 2 0 0 0 4 0M28 13a2 2 0 1 0-4 0 2 2 0 0 0 4 0" fill="#be1931"/><path d="M23 1H13s2 6 2 13h6c0-7 2-13 2-13"/></g><g clip-path="url(#c)" transform="matrix(1.25 0 0 -1.25 0 45)"><path d="M8 18c3 2 10 7 10 13S7 32 4 30s-5-8-4-11 3-6 8-6v5z" fill="#ccd6dd"/><path d="M28 18c-3 2-10.13 7-10.13 13s10.935 1 13.935-1 5.097-8 4.097-11S33 13 28 13v5z" fill="#ccd6dd"/><path d="M18 30c0 2 0-10-2-12v-5c0-1-4-2-4 0v5c1 1 6 7 6 12M18 30c0 2 0-10 2-12v-5c0-1 4-2 4 0v5c-1 1-6 7-6 12" fill="#ccd6dd"/></g><g clip-path="url(#d)" transform="matrix(1.25 0 0 -1.25 0 45)"><path d="M8 14.5a2.5 2.5 0 1 0-5 0 2.5 2.5 0 0 0 5 0M33 14.5a2.5 2.5 0 1 0-5 0 2.5 2.5 0 0 0 5 0M16 14a2 2 0 1 0-4 0 2 2 0 0 0 4 0M24 14a2 2 0 1 0-4 0 2 2 0 0 0 4 0" fill="#ccd6dd"/><path d="M20 14a2 2 0 1 0-4 0 2 2 0 0 0 4 0M12 14a2 2 0 1 0-4 0 2 2 0 0 0 4 0M28 14a2 2 0 1 0-4 0 2 2 0 0 0 4 0" fill="#f5f8fa"/></g></svg>