<svg xmlns="http://www.w3.org/2000/svg" viewBox="0 0 45 45"><defs><clipPath id="a"><path d="M0 36h36V0H0v36z"/></clipPath></defs><g clip-path="url(#a)" transform="matrix(1.25 0 0 -1.25 0 45)"><path d="M36 4a4 4 0 0 0-4-4H4a4 4 0 0 0-4 4v28a4 4 0 0 0 4 4h28a4 4 0 0 0 4-4V4z" fill="#88c9f9"/><path d="M18 9C11.924 9 7 13.925 7 20s4.924 11 11 11c6.075 0 11-4.925 11-11S24.075 9 18 9m-.001 24C10.82 33 5 27.18 5 20S10.82 7 17.999 7C25.18 7 31 12.82 31 20s-5.82 13-13.001 13" fill="#ffe8b6"/><path d="M21 29.5a2.5 2.5 0 0 0-2.5-2.5h-1a2.5 2.5 0 1 0 0 5h1a2.5 2.5 0 0 0 2.5-2.5M12 26.5A2.5 2.5 0 0 0 9.5 24h-1a2.5 2.5 0 1 0 0 5h1a2.5 2.5 0 0 0 2.5-2.5M30 26.5a2.5 2.5 0 0 0-2.5-2.5h-1a2.5 2.5 0 1 0 0 5h1a2.5 2.5 0 0 0 2.5-2.5M33 17.5a2.5 2.5 0 0 0-2.5-2.5h-1a2.5 2.5 0 1 0 0 5h1a2.5 2.5 0 0 0 2.5-2.5M9 17.5A2.5 2.5 0 0 0 6.5 15h-1a2.5 2.5 0 1 0 0 5h1A2.5 2.5 0 0 0 9 17.5M12 9.5A2.5 2.5 0 0 0 9.5 7h-1a2.5 2.5 0 1 0 0 5h1A2.5 2.5 0 0 0 12 9.5M30 9.5A2.5 2.5 0 0 0 27.5 7h-1a2.5 2.5 0 1 0 0 5h1A2.5 2.5 0 0 0 30 9.5M21 5.5A2.5 2.5 0 0 0 18.5 3h-1a2.5 2.5 0 1 0 0 5h1A2.5 2.5 0 0 0 21 5.5" fill="#ea596e"/><path d="M20.95 6a2.498 2.498 0 0 1-2.45 2h-1a2.5 2.5 0 0 1-2.45-2h5.9zM11.95 10a2.498 2.498 0 0 1-2.45 2h-1a2.5 2.5 0 0 1-2.45-2h5.9zM8.95 18a2.498 2.498 0 0 1-2.45 2h-1a2.5 2.5 0 0 1-2.45-2h5.9zM32.95 18a2.498 2.498 0 0 1-2.45 2h-1a2.499 2.499 0 0 1-2.449-2h5.898zM29.95 10a2.498 2.498 0 0 1-2.45 2h-1a2.499 2.499 0 0 1-2.449-2h5.898zM29.95 27a2.498 2.498 0 0 1-2.45 2h-1a2.499 2.499 0 0 1-2.449-2h5.898zM20.95 30a2.498 2.498 0 0 1-2.45 2h-1a2.5 2.5 0 0 1-2.45-2h5.9zM11.95 27a2.498 2.498 0 0 1-2.45 2h-1a2.5 2.5 0 0 1-2.45-2h5.9z" fill="#fff"/><path d="M26.001 2a1 1 0 0 0-.906.574L18 17.651 10.904 2.574a1 1 0 0 0-1.809.852l8 17a1.001 1.001 0 0 0 1.81 0l8-17A1 1 0 0 0 26.001 2" fill="#414042"/><path d="M15 20a3 3 0 1 0 6 0 3 3 0 0 0-6 0" fill="#414042"/></g></svg>