<svg xmlns="http://www.w3.org/2000/svg" viewBox="0 0 45 45"><defs><clipPath id="a"><path d="M0 36h36V0H0v36z"/></clipPath></defs><g clip-path="url(#a)" transform="matrix(1.25 0 0 -1.25 0 45)"><path d="M0 4a4 4 0 0 1 4-4h28a4 4 0 0 1 4 4v28a4 4 0 0 1-4 4H4a4 4 0 0 1-4-4V4z" fill="#88c9f9"/><path d="M14 2h2v32h-2V2z" fill="#58595b"/><path d="M24 21s2 3 4 3 3-1 3-3-2-4-1-6c0 0-2 3-1 5 1.413 2.829-4 3-3 0 1.14-3.421-2 1-2 1" fill="#dd2e44"/><path d="M28 10c0-2 1-3 3-3s1 0 0 2-3 3-3 3v-2zM6 13c0-2 2-4 3-4s1 1 0 2-3 3-1 3 3 0 4 1 1 3-1 2-3-2-4-2-1-2-1-2" fill="#939598"/><path d="M16 22c-2 0-3 0-4 4-.767 3.068-4 4-7 3 0 0-2 1-1 0s0-1 0-3 0-5 1-5c2 0 2 3 2 3s1 0 1-2c0-1-1-2 1-5 0 0-3 0-4-1s-1-3-1-4 1-3 2-3 1 1 1 2-2 0-1 2 1 1 2 1 3 1 4 1 3-1 5-1 4 2 6 0 5-2 6-3 1-2 1-3 2-2 3-2 1 1 0 2-2 0-2 2-1 3-2 3-1 4-1 5-2 5-5 5-5-1-7-1" fill="#f1f2f2"/><path d="M12.542 24.22C13.39 22.006 14.357 22 16 22c1.685 0 3.378.704 5.662.928.12-.304.232-.614.338-.928 1-3 0-5-5-5a5 5 0 0 0-5 5c0 .802.206 1.55.542 2.22" fill="#cbb7ea"/><path d="M9.002 17a.99.99 0 0 1 .553.168c.134.089 3.298 2.228 4.393 5.516a1 1 0 1 1-1.896.632c-.876-2.627-3.581-4.466-3.608-4.485A1 1 0 0 1 9.002 17" fill="#ffac33"/><path d="M5 29c2 2 4.419 1.581 6 0 2-2 1-4 3-6 1.581-1.581-2 0-3 3-.707 2.121-4 3-6 3" fill="#dd2e44"/></g></svg>