<svg xmlns="http://www.w3.org/2000/svg" viewBox="0 0 45 45"><defs><clipPath id="a"><path d="M0 36h36V0H0v36z"/></clipPath></defs><g clip-path="url(#a)" transform="matrix(1.25 0 0 -1.25 0 45)"><path d="M35.999 24.082a6.884 6.884 0 1 0-13.769 0 6.884 6.884 0 0 0 13.769 0" fill="#8899a6"/><path d="M32.81 17.432a.86.86 0 0 0-1.217 0l-9.127 9.128a.86.86 0 0 0 0 1.217l1.217 1.217a.86.86 0 0 0 1.217 0l9.127-9.128a.86.86 0 0 0 0-1.217l-1.217-1.217zM26.74 17.296l-4.326 4.327c-.779.778-1.995.733-2.719-.101l-9.158-10.575c-1.219-1.408-1.462-3.353-.71-4.73L4.914 1.305l1.41-1.41L11.2 4.774c1.382-.84 3.411-.61 4.863.648l10.574 9.157c.833.724.88 1.94.101 2.718" fill="#292f33"/><path d="M4 30v-8.122a4.292 4.292 0 0 1-1 .123c-1.657 0-3-.896-3-2 0-1.105 1.343-2 3-2 1.656 0 2.999.895 3 1.999v6.111l5-2.222v-5.011a4.292 4.292 0 0 1-1 .123c-1.657 0-3-.896-3-2.001 0-1.104 1.343-2 3-2 1.656 0 2.999.896 2.999 2H13v9l-9 4zM18 35v-8.123A4.285 4.285 0 0 1 17 27c-1.657 0-3-.895-3-2 0-1.104 1.343-2 3-2 1.656 0 3 .896 3 2v10h-2z" fill="#55acee"/></g></svg>