<svg xmlns="http://www.w3.org/2000/svg" viewBox="0 0 45 45"><defs><clipPath id="a"><path d="M0 36h36V0H0v36z"/></clipPath></defs><g clip-path="url(#a)" transform="matrix(1.25 0 0 -1.25 0 45)"><path d="M36 4a4 4 0 0 0-4-4H4a4 4 0 0 0-4 4v28a4 4 0 0 0 4 4h28a4 4 0 0 0 4-4V4z" fill="#3b88c3"/><path d="M21 25a6 6 0 1 0-12.001.001 6 6 0 0 0 12.001 0M31.999 23a5.001 5.001 0 0 0-5-5 5.001 5.001 0 0 0 0 10 5 5 0 0 0 5-5" fill="#fff"/><path d="M30 16a4 4 0 0 1-4 4H15a4 4 0 0 1-4-4l-6 4H4V7h1l6 4V9a4 4 0 0 1 4-4h11a4 4 0 0 1 4 4v7z" fill="#fff"/></g></svg>