<svg xmlns="http://www.w3.org/2000/svg" viewBox="0 0 45 45"><defs><clipPath id="a"><path d="M0 36h36V0H0v36z"/></clipPath><clipPath id="b"><path d="M4 32.666c0-.034.017-.067.022-.101A3.073 3.073 0 0 1 4 32.2L5.801 8.615C2.299 7.705 0 6.424 0 5c0-2.762 8.611-5 18-5s18 2.238 18 5c0 1.424-2.298 2.705-5.801 3.615L32 32.184c0 .135-.008.263-.021.372.003.034.021.076.021.11 0 1.805-6.269 3.267-14 3.267-7.732 0-14-1.462-14-3.267"/></clipPath></defs><g clip-path="url(#a)" transform="matrix(1.25 0 0 -1.25 0 45)"><path d="M30.198 8.615L32 32.183c0 .136-.008.264-.022.373.004.034.022.076.022.11 0 1.804-6.269 3.267-14 3.267-7.732 0-14-1.463-14-3.267 0-.034.017-.068.022-.102A2.847 2.847 0 0 1 4 32.2L5.802 8.615C2.298 7.705 0 6.425 0 5c0-2.762 8.611-5 18-5 9.39 0 18 2.238 18 5 0 1.424-2.298 2.705-5.802 3.615" fill="#292f33"/><path d="M17.536 29.405c-4.89 0-8.602.896-10.852 1.646a1 1 0 0 0 .633 1.898c2.889-.963 10.762-2.891 21.42.016a1 1 0 0 0 .525-1.93c-4.405-1.201-8.347-1.63-11.726-1.63" fill="#66757f"/></g><g clip-path="url(#b)" transform="matrix(1.25 0 0 -1.25 0 45)"><path d="M8.604 5.208c4.459-1.708 13.959-1.646 18.807-.149 1.466.453 2.776 1.733 2.776 3.191 0 3.256 3.742 7.25 2.271 6.75-8.27-2.813-19.77-3-28.25.208-9.995 3.782.125-2.625.792-3.875.4-.751.833-1.347.833-2.73 0-1.75 1.29-2.828 2.771-3.395" fill="#744eaa"/></g></svg>