<svg xmlns="http://www.w3.org/2000/svg" viewBox="0 0 45 45"><defs><clipPath id="a"><path d="M0 36h36V0H0v36z"/></clipPath></defs><g clip-path="url(#a)" transform="matrix(1.25 0 0 -1.25 0 45)"><path d="M20.849 8.41c-.395-1.346-2.46-1.924-4.613-1.29-2.153.631-3.578 2.233-3.183 3.58.395 1.346 2.46 1.924 4.613 1.29 2.154-.63 3.578-2.233 3.183-3.58m-2.85 24.447c-9.94 0-18-6.908-18-15.429 0-1.066.128-2.107.368-3.112C2.146 11.256 3.377 13.188 9 16c5.727 2.864 0-4-2-8-.615-1.23-.281-2.272.56-3.124C10.506 3.072 14.104 2 18 2c9.942 0 18 6.907 18 15.428s-8.058 15.43-18 15.43" fill="#d99e82"/><path d="M13 25a3 3 0 1 0-6 0 3 3 0 0 0 6 0" fill="#5c913b"/><path d="M23 27a3 3 0 1 0-6 0 3 3 0 0 0 6 0" fill="#269"/><path d="M32 21a3 3 0 1 0-6 0 3 3 0 0 0 6 0" fill="#dd2e44"/><path d="M31 12a3.001 3.001 0 0 0-6 0 3.001 3.001 0 0 0 6 0" fill="#ffcc4d"/></g></svg>