<svg xmlns="http://www.w3.org/2000/svg" viewBox="0 0 45 45"><defs><clipPath id="a"><path d="M0 36h36V0H0v36z"/></clipPath></defs><g clip-path="url(#a)" transform="matrix(1.25 0 0 -1.25 0 45)"><path d="M18 36C9.716 36 3 29.284 3 21v-9h3v9c0 7 5.269 12.187 12 12.187C24.73 33.187 30 28 30 21V11l3 1v9c0 8.284-6.716 15-15 15" fill="#66757f"/><path d="M6 9a2 2 0 0 0-2-2H2a2 2 0 0 0-2 2v9a2 2 0 0 0 2 2h2a2 2 0 0 0 2-2V9zM36 9a2 2 0 0 0-2-2h-2a2 2 0 0 0-2 2v9a2 2 0 0 0 2 2h2a2 2 0 0 0 2-2V9z" fill="#292f33"/><path d="M19.182 25.984l-6.364-1.313c-.45-.093-.818-.544-.818-1.003V7.483a6.21 6.21 0 0 1-2.087.36c-2.785 0-5.042-1.754-5.042-3.921C4.87 1.757 7.128.095 9.913.095 12.65.095 14.923 2 15 4v15.61l4.205.872c.449.093.795.545.795 1.004v3.83c0 .46-.368.76-.818.668M27.182 22.832l-4.297-.865c-.45-.092-.885-.543-.885-1.002V9.56c0 .152-.877.24-1.4.24-2.024 0-3.633-1.276-3.633-2.851s1.658-2.852 3.683-2.852 3.677 1.277 3.677 2.852l-.014 11.286 2.869.598c.45.092.818.544.818 1.003v2.33c0 .459-.368.759-.818.667" fill="#55acee"/></g></svg>