<svg xmlns="http://www.w3.org/2000/svg" viewBox="0 0 45 45"><defs><clipPath id="a"><path d="M0 36h36V0H0v36z"/></clipPath></defs><g clip-path="url(#a)" transform="matrix(1.25 0 0 -1.25 0 45)"><path d="M28 10a5 5 0 0 0-5-5 5 5 0 0 0-5 5 5 5 0 0 0 5 5 5 5 0 0 0 5-5M18 10a5 5 0 1 0-10 0 5 5 0 0 0 10 0" fill="#292f33"/><path d="M26 9H10v15.999h16V9z" fill="#292f33"/><path d="M18 17a8 8 0 0 1-8 8c-4.111 0-7.494-3.102-7.945-7.093l-.004.002-2-12.36.004-.003A2.982 2.982 0 0 1 0 5a3 3 0 0 1 3-3c.68 0 1.3.234 1.803.616l.009-.006 10.157 8.127c.059.047.119.093.177.142l.072.057-.006.003A7.974 7.974 0 0 1 18 17" fill="#292f33"/><path d="M18 17a8 8 0 0 0 8 8c4.111 0 7.494-3.102 7.945-7.093l.004.002 2-12.36-.004-.003C35.978 5.368 36 5.187 36 5a3 3 0 0 0-3-3c-.68 0-1.3.234-1.803.616l-.009-.006-10.157 8.127c-.059.047-.119.093-.177.142l-.072.057.005.003A7.98 7.98 0 0 0 18 17" fill="#292f33"/><path d="M22 18a5.001 5.001 0 0 1 10 0 5 5 0 1 1-10 0" fill="#f18f26"/><path d="M26 10a3 3 0 1 0-6 0 3 3 0 0 0 6 0M16 10a3 3 0 1 0-6 0 3 3 0 0 0 6 0M4 18a5.001 5.001 0 0 1 10 0 5 5 0 1 1-10 0" fill="#67757f"/><path d="M28 20.5a1.5 1.5 0 1 0-3 0 1.5 1.5 0 0 0 3 0M31 17.5a1.5 1.5 0 1 0-3.001.001A1.5 1.5 0 0 0 31 17.5" fill="#f18f26"/><path d="M18 25a1 1 0 0 0-1 1c0 2.025-.545 2.795-1.07 3.54-.436.615-.93 1.313-.93 2.46 0 2.588 2.448 3.843 2.552 3.895a1 1 0 1 0 .895-1.79C18.438 34.102 17 33.343 17 32c0-.492.172-.756.561-1.307C18.168 29.835 19 28.66 19 26A.998.998 0 0 0 18 25" fill="#292f33"/><path d="M24 25a2 2 0 0 0-2-2h-8a2 2 0 0 0 0 4h8a2 2 0 0 0 2-2" fill="#292f33"/></g></svg>