<svg xmlns="http://www.w3.org/2000/svg" viewBox="0 0 45 45"><defs><clipPath id="a"><path d="M0 36h36V0H0v36z"/></clipPath></defs><g clip-path="url(#a)" transform="matrix(1.25 0 0 -1.25 0 45)"><path d="M36 4a4 4 0 0 0-4-4H4a4 4 0 0 0-4 4v28a4 4 0 0 0 4 4h28a4 4 0 0 0 4-4V4z" fill="#88c9f9"/><path d="M16 2h-2v11h2V2zM8 2h2v12H8V2zM22 15h-2V2h2v13zM28 20h-2V2h2v18zM34 25h-2V2h2v23zM4 2H2v13h2V2z" fill="#a0041e"/><path d="M34 27.778C29.893 23.148 20.793 14 12.999 14 8.364 14 4.4 15.417 2 16.528v-2.201C4.615 13.21 8.483 12 12.999 12 20.763 12 29.237 19.69 34 24.785v2.993z" fill="#dd2e44"/><path d="M26 22c0-1.104-.447-2-1-2-.553 0-1 .896-1 2 0 1.105.447 2 1 2 .553 0 1-.895 1-2" fill="#66757f"/><path d="M26 25a1 1 0 1 0-2 0 1 1 0 0 0 2 0M31 26c0-1.104-.447-2-1-2-.553 0-1 .896-1 2s.447 2 1 2c.553 0 1-.896 1-2" fill="#66757f"/><path d="M30.667 28.666L31 26l-1-1-1.505 1.505A46.736 46.736 0 0 0 26 24.226V22l-1-1-1.391 1.391C22.227 21.43 21.54 21.081 21 20c-1-2-2.001-6 1-4 5.582 3.72 12 10 12 10v6c-.865-.867-2.158-2.159-3.333-3.334" fill="#ffcc4d"/><path d="M31 29a1 1 0 1 0-2 0 1 1 0 0 0 2 0" fill="#66757f"/></g></svg>