<svg xmlns="http://www.w3.org/2000/svg" viewBox="0 0 45 45"><defs><clipPath id="a"><path d="M0 36h36V0H0v36z"/></clipPath></defs><g clip-path="url(#a)" transform="matrix(1.25 0 0 -1.25 0 45)"><path d="M34.209 35.794l-22.418-2.587c-.985-.115-1.791-1.019-1.791-2.01V12.414A7.92 7.92 0 0 1 7 13c-3.865 0-7-2.685-7-6 0-3.314 3.135-6 7-6s7 2.686 7 6v18.462l18 2.077V14.414A7.92 7.92 0 0 1 29 15c-3.865 0-7-2.685-7-6 0-3.314 3.135-6 7-6s7 2.686 7 6v25.198c0 .991-.806 1.71-1.791 1.596" fill="#5dadec"/></g></svg>