<svg xmlns="http://www.w3.org/2000/svg" viewBox="0 0 45 45"><defs><clipPath id="a"><path d="M0 36h36V0H0v36z"/></clipPath><clipPath id="b"><path d="M8 36a4 4 0 0 1-4-4V4a4 4 0 0 1 4-4h20a4 4 0 0 1 4 4v28a4 4 0 0 1-4 4H8z"/></clipPath><clipPath id="c"><path d="M0 36h36V0H0v36z"/></clipPath></defs><g clip-path="url(#a)" transform="matrix(1.25 0 0 -1.25 0 45)"><path d="M32 4a4 4 0 0 0-4-4H8a4 4 0 0 0-4 4v28a4 4 0 0 0 4 4h20a4 4 0 0 0 4-4V4z" fill="#dd2e44"/></g><g clip-path="url(#b)" transform="matrix(1.25 0 0 -1.25 0 45)"><path d="M32 8c-4.117 2.744-21.139 8.233-28 0C-5.502-3.402-1.982 3.121 2.134-.996c4.117-4.116 16.467-6.861 21.955-5.488 5.489 1.372 10.978-.972 10.978 2.63S32 8 32 8"/></g><g clip-path="url(#c)" transform="matrix(1.25 0 0 -1.25 0 45)"><path d="M22.855 23.506a7.578 7.578 0 1 1-15.157 0 7.578 7.578 0 0 1 15.157 0" fill="#fff"/></g></svg>