<svg xmlns="http://www.w3.org/2000/svg" viewBox="0 0 45 45"><defs><clipPath id="a"><path d="M0 36h36V0H0v36z"/></clipPath></defs><g clip-path="url(#a)" transform="matrix(1.25 0 0 -1.25 0 45)"><path d="M14 20L9 10s-1-2 1-2c1 0 2 2 2 2l14 19s2 4 8 1v-2c-3 1-4-1-4-1L15 3s-2-3-7-3C2 0 1 5 1 8c0 2 1 4 2 6s-2 6-2 6h13z" fill="#fcab40" fill-rule="evenodd"/><path d="M7.5 16C4.04 16 0 17.048 0 20c0 2.953 4.04 4 7.5 4s7.5-1.047 7.5-4c0-2.952-4.04-4-7.5-4" fill="#fdcb58"/><path d="M21 19a2 2 0 1 0-4 0 2 2 0 0 0 4 0M24 23a2 2 0 1 0-4 0 2 2 0 0 0 4 0M27 27a2 2 0 1 0-4 0 2 2 0 0 0 4 0" fill="#ccd6dd"/><path d="M33.998 26c-.3 0-.605.068-.893.21l-2 1a2 2 0 0 0 1.789 3.58l2-1a2 2 0 0 0-.896-3.79" fill="#9aaab4"/><path d="M16.265 10.775l-1.268-1.548-6.19 5.068 1.266 1.547 6.192-5.067z" fill="#fcab40" fill-rule="evenodd"/></g></svg>