<svg xmlns="http://www.w3.org/2000/svg" viewBox="0 0 45 45"><defs><clipPath id="a"><path d="M0 36h36V0H0v36z"/></clipPath></defs><g clip-path="url(#a)" transform="matrix(1.25 0 0 -1.25 0 45)"><path d="M36 9a4 4 0 0 0-4-4H4a4 4 0 0 0-4 4v18a4 4 0 0 0 4 4h28a4 4 0 0 0 4-4V9z" fill="#292f33"/><path d="M11 12c0-2.209-.791-3-3-3H4c-2.209 0-3 .791-3 3v12c0 2.209.791 3 3 3h4c2.209 0 3-.791 3-3V12zM23 12c0-2.209-.791-3-3-3h-4c-2.209 0-3 .791-3 3v12c0 2.209.791 3 3 3h4c2.209 0 3-.791 3-3V12zM35 12c0-2.209-.791-3-3-3h-4c-2.209 0-3 .791-3 3v12c0 2.209.791 3 3 3h4c2.209 0 3-.791 3-3V12z" fill="#ccd6dd"/><path d="M11 13H1v10h10V13zM23 13H13v10h10V13zM35 13H25v10h10V13z" fill="#e1e8ed"/><path d="M30.795 20.315h-2.816c-.594 0-.814.385-.814.759 0 .385.209.759.814.759h3.983c.562 0 .792-.506.792-.792 0-.22-.121-.451-.253-.726l-2.728-5.545c-.308-.616-.43-.836-.925-.836-.605 0-.912.463-.912.78 0 .134.033.232.109.386l2.75 5.215zM18.795 20.315H15.98c-.594 0-.814.385-.814.759 0 .385.21.759.814.759h3.983c.561 0 .792-.506.792-.792 0-.22-.122-.451-.253-.726l-2.729-5.545c-.308-.616-.429-.836-.924-.836-.605 0-.913.463-.913.78 0 .134.033.232.11.386l2.75 5.215zM6.795 20.315H3.98c-.594 0-.814.385-.814.759 0 .385.21.759.814.759h3.983c.561 0 .791-.506.791-.792 0-.22-.12-.451-.252-.726L5.772 14.77c-.308-.616-.429-.836-.924-.836-.605 0-.913.463-.913.78 0 .134.033.232.11.386l2.75 5.215z" fill="#be1931"/><path d="M3.06 27a2.08 2.08 0 0 1-.06-.5C3 25.119 4.344 24 6 24c1.657 0 3 1.119 3 2.5 0 .171-.021.338-.06.5H3.06zM15.06 27a2.08 2.08 0 0 1-.06-.5c0-1.381 1.343-2.5 3-2.5 1.656 0 3 1.119 3 2.5 0 .171-.022.338-.06.5h-5.88zM27.06 27a2.132 2.132 0 0 1-.06-.5c0-1.381 1.344-2.5 3-2.5 1.657 0 3 1.119 3 2.5 0 .171-.022.338-.06.5h-5.88z" fill="#9266cc"/><path d="M8.816 9A.875.875 0 0 1 9 9.5c0 .828-1.344 1.5-3 1.5-1.657 0-3-.672-3-1.5 0-.176.072-.343.183-.5h5.633zM20.816 9a.875.875 0 0 1 .184.5c0 .828-1.344 1.5-3 1.5-1.657 0-3-.672-3-1.5 0-.176.072-.343.183-.5h5.633zM32.816 9a.875.875 0 0 1 .184.5c0 .828-1.344 1.5-3 1.5-1.657 0-3-.672-3-1.5 0-.176.072-.343.183-.5h5.633z" fill="#f4900c"/></g></svg>