<svg xmlns="http://www.w3.org/2000/svg" viewBox="0 0 45 45"><defs><clipPath id="a"><path d="M0 36h36V0H0v36z"/></clipPath><clipPath id="b"><path d="M19.078 32.314c-.247-.166-6.067-4.07-7.079-4.792a.87.87 0 0 1-.234-1.164c.675-1.092 3.729-6.132 5.038-8.319-1.369-1.125-3.432-2.894-5.058-4.608a.87.87 0 0 1-.238-.598c0-.604.141-1.376.353-2.351a.865.865 0 0 1 .447-.585.874.874 0 0 1 .734-.033c.13.054 12.958 5.368 14.301 5.863a.869.869 0 0 1 .569.815c0 .919-1.019 4.808-1.029 4.847a.861.861 0 0 1-.103.237c-.67 1.076-1.517 2.475-2.382 3.903-1.812 2.992-3.521 5.818-4.16 6.609a.867.867 0 0 1-1.159.176"/></clipPath><clipPath id="c"><path d="M0 36h36V0H0v36z"/></clipPath></defs><g clip-path="url(#a)" transform="matrix(1.25 0 0 -1.25 0 45)"><path d="M36 20.95V4s0-4-4-4H4C0 0 0 4 0 4v2s15.958 6.875 36 14.95" fill="#e1e8ed"/><path d="M12.709 9.798a.866.866 0 0 0-.849.685c-.212.974-.353 1.747-.353 2.35 0 .223.085.437.238.598 1.627 1.715 3.69 3.483 5.058 4.608a1239.975 1239.975 0 0 1-5.038 8.32.87.87 0 0 0 .234 1.163c1.013.722 6.832 4.626 7.08 4.792a.866.866 0 0 0 1.159-.176c.639-.791 2.348-3.617 4.16-6.61a379.224 379.224 0 0 1 2.382-3.902.846.846 0 0 0 .102-.237c.01-.04 1.03-3.928 1.03-4.847a.87.87 0 0 0-.57-.815c-1.342-.494-14.171-5.81-14.3-5.863a.875.875 0 0 0-.333-.066" fill="#55acee"/><path d="M11.75 8.63a.869.869 0 0 0-.338 1.67l7.208 3.043a.869.869 0 1 0 .675-1.602l-7.208-3.042a.874.874 0 0 0-.337-.068M23.834 13.714a.87.87 0 0 0-.347 1.666l4.791 2.083a.87.87 0 1 0 .694-1.593l-4.791-2.084a.874.874 0 0 0-.347-.072" fill="#269"/><path d="M5.594 4.343a4.37 4.37 0 0 0-.61.042c-1.264.18-2.26.93-2.878 2.168a1 1 0 1 0 1.789.894c.632-1.265 1.864-1.45 3.658-.552 1.23.615 7.657 3.302 14.462 6.148 4.396 1.838 8.793 3.677 11.592 4.876a.999.999 0 1 0 .787-1.838c-2.802-1.201-7.205-3.042-11.608-4.884C16.312 8.49 9.616 5.69 8.448 5.106c-1.016-.508-1.973-.763-2.854-.763" fill="#be1931"/></g><g clip-path="url(#b)" transform="matrix(1.25 0 0 -1.25 0 45)"><path d="M22.67 33.816c-.275.36-.76.489-1.175.318-1.177-.484-1.224-1.541-1.26-2.312-.05-1.12-.118-2.654-2.997-4.698-.866-.577-.682-1.473 1.039-5.042.9-1.867 1.993-3.924 2.489-4.76a.997.997 0 0 1 1.159-.442c1.33.418 3.16 1.136 4.774 1.769 1.176.46 2.286.897 3.04 1.155.386.13.676.434.797.83.416 1.373-2.23 5.808-7.866 13.182" fill="#3b88c3"/></g><g clip-path="url(#c)" transform="matrix(1.25 0 0 -1.25 0 45)"><path d="M16.69 21.471a.869.869 0 0 0-.475 1.596l2.497 1.63a.868.868 0 1 0 .949-1.456l-2.497-1.629a.862.862 0 0 0-.474-.14M18.68 18.395a.869.869 0 0 0-.136 1.727l2.968.47a.869.869 0 1 0 .271-1.716l-2.967-.47a.799.799 0 0 0-.137-.011M19.541 13.923a.858.858 0 0 0-.408.103l-1.731.924a.869.869 0 0 0 .818 1.534l1.731-.925a.871.871 0 0 0 .358-1.176.871.871 0 0 0-.768-.46" fill="#269"/><path d="M23.543 30.465a.868.868 0 0 0-.427 1.625l5.625 3.167a.868.868 0 1 0 .852-1.514l-5.625-3.166a.86.86 0 0 0-.425-.112M26.043 26.756a.869.869 0 0 0-.427 1.626l3.333 1.875a.868.868 0 1 0 .852-1.515l-3.333-1.875a.873.873 0 0 0-.425-.11M28.043 22.756a.869.869 0 0 0-.418 1.631l2.208 1.208a.869.869 0 0 0 .834-1.524l-2.208-1.208a.857.857 0 0 0-.416-.107" fill="#bbddf5"/></g></svg>