<svg xmlns="http://www.w3.org/2000/svg" viewBox="0 0 45 45"><defs><clipPath id="a"><path d="M0 36h36V0H0v36z"/></clipPath><clipPath id="b"><path d="M18 36C8.059 36 0 27.941 0 18S8.059 0 18 0s18 8.059 18 18-8.059 18-18 18z"/></clipPath></defs><g clip-path="url(#a)" transform="matrix(1.25 0 0 -1.25 0 45)"><path d="M18 0C8.059 0 0 8.059 0 18s8.059 18 18 18 18-8.059 18-18S27.94 0 18 0" fill="#77b255"/></g><g clip-path="url(#b)" transform="matrix(1.25 0 0 -1.25 0 45)"><path d="M34 32c4.352 0 9-3.678 9-14S38.352 4 34 4s-9 3.678-9 14 4.648 14 9 14" fill="#a6d388"/><path d="M34 6c4.318 0 7 4.598 7 12s-2.682 12-7 12-7-4.598-7-12 2.682-12 7-12m0 26c4.352 0 9-3.678 9-14S38.352 4 34 4s-9 3.678-9 14 4.648 14 9 14" fill="#fff"/><path d="M2 32c4.351 0 9-3.678 9-14S6.351 4 2 4s-9 3.678-9 14 4.649 14 9 14" fill="#a6d388"/><path d="M2 6c4.317 0 7 4.598 7 12S6.317 30 2 30s-7-4.598-7-12c0-7.401 2.683-12 7-12m0 26c4.351 0 9-3.678 9-14S6.351 4 2 4s-9 3.678-9 14 4.649 14 9 14" fill="#fff"/></g></svg>