<svg xmlns="http://www.w3.org/2000/svg" viewBox="0 0 45 45"><defs><clipPath id="a"><path d="M0 36h36V0H0v36z"/></clipPath></defs><g clip-path="url(#a)" transform="matrix(1.25 0 0 -1.25 0 45)"><path d="M2 0S0 0 0 2v32s0 2 2 2h32.031C36 36 36 34 36 34V2s0-2-2-2H2z" fill="#292f33"/><path d="M19 3s0-1 1-1h5c1 0 1 1 1 1v28h-7V3zM28 31V3s0-1 1-1h4c1 0 1 1 1 1v28h-6zM10 3s0-1 1-1h5c1 0 1 1 1 1v28h-7V3zM2 3s0-1 1-1h4c1 0 1 1 1 1v28H2V3z" fill="#e1e8ed"/><path d="M30 13s0-1-1-1h-4c-1 0-1 1-1 1v20h6V13zM21 13s0-1-1-1h-4c-1 0-1 1-1 1v20h6V13zM12 13s0-1-1-1H7c-1 0-1 1-1 1v20h6V13z" fill="#292f33"/></g></svg>