<svg xmlns="http://www.w3.org/2000/svg" viewBox="0 0 45 45"><defs><clipPath id="a"><path d="M0 36h36V0H0v36z"/></clipPath></defs><g clip-path="url(#a)" transform="matrix(1.25 0 0 -1.25 0 45)"><path d="M24.925 17.748c-2.392-.797-3.19 3.19-3.19 3.19S22.825 22.03 22 23c1.283 1.283.533 1.925.533 1.925a5.638 5.638 0 0 1-7.974 0 4.821 4.821 0 0 1-.624-.764 5.94 5.94 0 0 1-.191-.296l-.016-.031a5.58 5.58 0 0 1-.682-1.701c-.176-.36-.427-.743-.88-1.195-1.594-1.594-5.58.797-8.77-2.392-.033-.032-.051-.078-.077-.116-.107-.095-.218-.178-.321-.282-3.743-3.743-3.386-10.17.798-14.353C7.77-.18 13.764-.692 17.563 2.475c.066.036.132.07.185.124.08.08.142.158.218.237.06.056.123.105.18.162 1.91 1.91 2.642 4.206 2.353 6.552-.076 1.116-.186 1.99.44 2.618.797.796 3.188 0 4.783 1.594 2.39 2.392.716 4.49-.797 3.987" fill="#f18f26"/><path d="M32.049 29.929L19.908 17.787l-2.122 2.122L29.928 32.05l2.12-2.122z" fill="#642116"/><path d="M35.204 32.815a1.13 1.13 0 0 0 0-1.593l-3.188-3.185a1.129 1.129 0 0 0-1.592 0l-2.39 2.389a1.13 1.13 0 0 0 .001 1.593l3.187 3.185a1.129 1.129 0 0 0 1.592 0l2.39-2.39z" fill="#f18f26"/><path d="M20 16.465l-1.414-1.415-3.536 3.536L16.464 20 20 16.465zM16.464 12.929l-1.414-1.414-3.536 3.535 1.414 1.415 3.536-3.536z" fill="#ccd6dd"/><path d="M12.928 10.808a1.003 1.003 0 0 0 0-1.414 1.003 1.003 0 0 0-1.414 0l-2.122 2.12a1.004 1.004 0 0 0 0 1.415h.001a1.003 1.003 0 0 0 1.414 0l2.121-2.121z" fill="#642116"/></g></svg>