<svg xmlns="http://www.w3.org/2000/svg" viewBox="0 0 45 45"><defs><clipPath id="a"><path d="M0 36h36V0H0v36z"/></clipPath></defs><path d="M7.5 3.75H0v37.5h45v-2.5H7.5V32.5H45V30H7.5v-6.25H45v-2.5H7.5V15H45v-2.5H7.5V6.25H45v-2.5H7.5z" fill="#8899a6"/><g clip-path="url(#a)" transform="matrix(1.25 0 0 -1.25 0 45)"><path d="M18.602 17.42c.653.943 1.452 1.837 2.43 2.718l.339-1.74a4.737 4.737 0 0 1-1.8-1.61 5.01 5.01 0 0 1-.872-2.717 3.986 3.986 0 0 1 .87-2.451 3.951 3.951 0 0 1 2.17-1.4l.12-.03.122.029c.537.127.594.47.594.613 0 .345-.224.62-.58.72a1.71 1.71 0 0 0-.82.758c-.202.368-.308.713-.308.994 0 .475.169.903.515 1.302.214.243.432.432.654.573l1.093-5.508a7.37 7.37 0 0 0-1.046-.152c-1.383.045-2.517.5-3.37 1.349a4.4 4.4 0 0 0-1.298 3.007c.03 1.273.429 2.465 1.187 3.545m4.945 11.479a8.196 8.196 0 0 0-.743-1.576 9.777 9.777 0 0 0-.96-1.36 6.754 6.754 0 0 0-.287-.321 7.073 7.073 0 0 0-.15 1.164 8.88 8.88 0 0 0 .305 2.08c.17.662.408 1.26.696 1.757.304.468.62.705.944.705a.359.359 0 0 0 .259-.087c.07-.071.119-.208.15-.454.03-.134.047-.304.047-.494 0-.443-.088-.918-.261-1.414m1.158-18.64l-1.046 5.15c.26-.055.502-.146.726-.276.397-.224.703-.53.945-.94.242-.388.392-.837.456-1.301 0-1.246-.354-2.115-1.081-2.632m3.122 5.178a5.576 5.576 0 0 1-.947 1.722 4.606 4.606 0 0 1-1.53 1.233 4.286 4.286 0 0 1-1.981.459c-.085 0-.208-.01-.366-.026l-.533 2.593c.613.603 1.156 1.3 1.616 2.077.499.847.885 1.77 1.145 2.74.268.979.399 1.943.399 2.946 0 2.106-.542 3.94-1.627 5.475a3.919 3.919 0 0 1-.386.432c-.395.355-.79.41-1.705-.267-.47-.352-.882-.86-1.223-1.506-.352-.644-.61-1.366-.786-2.2a12.7 12.7 0 0 1-.292-2.684 18.1 18.1 0 0 1 .576-4.013 104.26 104.26 0 0 1-1.881-1.951 18.743 18.743 0 0 1-1.54-1.943c-.494-.71-.91-1.493-1.232-2.323A8.015 8.015 0 0 1 15 15.547a7.905 7.905 0 0 1 .56-2.864 8.122 8.122 0 0 1 1.547-2.45 7.406 7.406 0 0 1 2.325-1.695 6.829 6.829 0 0 1 4.02-.51c.063-.288.146-.628.244-1.022.157-.648.274-1.172.349-1.56.074-.39.11-.765.11-1.122 0-.541-.06-.955-.198-1.3-.05-.203-.184-.413-.401-.621a2.52 2.52 0 0 0-.84-.533c-.467-.183-.921-.231-1.288-.18.195.105.375.24.537.405.433.443.653.988.653 1.622 0 .447-.11.875-.328 1.282a2.684 2.684 0 0 1-.886.929 2.348 2.348 0 0 1-1.226.34h-.006c-.511-.034-.954-.195-1.301-.47a2.763 2.763 0 0 1-.852-1.051 3.608 3.608 0 0 1-.338-1.362c.04-1.04.478-1.885 1.306-2.508C19.773.296 20.696 0 21.727 0a4.39 4.39 0 0 1 2.053.487 3.881 3.881 0 0 1 1.529 1.403c.37.6.559 1.29.559 2.046 0 .495-.043.96-.13 1.419-.084.458-.21 1.08-.383 1.869-.124.535-.22.987-.288 1.349.965.428 1.712 1.049 2.225 1.85a5.46 5.46 0 0 1 .868 3c0 .665-.112 1.342-.333 2.015" fill="#292f33"/></g></svg>