<svg xmlns="http://www.w3.org/2000/svg" viewBox="0 0 45 45"><defs><clipPath id="a"><path d="M0 36h36V0H0v36z"/></clipPath><clipPath id="b"><path d="M28.719 34.396c-1.039-5.316-6.876-9.903-10.72-9.903-3.832 0-9.635 4.563-10.696 9.86-.109.552-1.214 1.458-2.001 1.06-1.83-.929-4.197-2.852-4.197-5.358 3.122-4.608 3.827-6.381 3.827-11.159 0-4.778-1.366-14.118-2.56-16.507C3.566 1.193 10.594 0 17.999 0c7.405 0 14.449 1.193 15.643 2.389-1.194 2.389-2.546 11.729-2.546 16.507 0 4.778.701 6.551 3.822 11.159 0 2.536-2.429 4.474-4.269 5.39a.894.894 0 0 1-.401.091c-.689 0-1.441-.692-1.529-1.14"/></clipPath></defs><g clip-path="url(#a)" transform="matrix(1.25 0 0 -1.25 0 45)"><path d="M6.318 34.97c1.5-1.5 13.184-8.686 23.386 0 1.3-1.19 1.474-6.04-.73-7.627-2.203-1.587-10.137-9.608-16-6.083-5.862 3.526-7.096 5.863-7.317 8.464-.22 2.6.661 5.245.661 5.245" fill="#269"/><path d="M34.918 30.054c0 2.537-2.429 4.475-4.27 5.391-.76.378-1.812-.393-1.896-.873-.943-5.39-6.867-10.08-10.753-10.08-3.832 0-9.635 4.563-10.696 9.861-.11.551-1.183 1.467-1.947 1.085-1.838-.918-4.251-2.853-4.251-5.384 3.122-4.607 3.827-6.38 3.827-11.159 0-4.777-1.366-14.117-2.56-16.506C3.566 1.193 10.594 0 17.999 0c7.405 0 14.448 1.193 15.643 2.39-1.195 2.388-2.546 11.728-2.546 16.505 0 4.778.701 6.552 3.822 11.16" fill="#55acee"/></g><g clip-path="url(#b)" transform="matrix(1.25 0 0 -1.25 0 45)"><path d="M34.88 29.636L2.749 9.479 1.602 2.38l33.72 20.863-.441 6.392z" fill="#ffd983"/></g></svg>