<svg xmlns="http://www.w3.org/2000/svg" viewBox="0 0 45 45"><defs><clipPath id="a"><path d="M0 36h36V0H0v36z"/></clipPath></defs><g clip-path="url(#a)" transform="matrix(1.25 0 0 -1.25 0 45)"><path d="M4 25v-.137c0 .042.011.084.015.125L4 25zM13.81 6c-.994 0-2.033 1.008-2.319 2.25-.287 1.243.286 2.25 1.28 2.25s2.033-1.007 2.32-2.25c.286-1.242-.287-2.25-1.28-2.25m-5.584 7.5c-.994 0-2.033 1.007-2.319 2.25-.287 1.242.286 2.249 1.28 2.249s2.033-1.007 2.32-2.249c.286-1.243-.287-2.25-1.28-2.25m8.772.363a1.966 1.966 0 0 0-.412.245L4.565 23.755c-.377.305-.565.706-.565 1.108V12.625c0-2.042 1.093-2.484 1.093-2.484l11.573-9.099c.205-.161.377-.259.528-.318a1.101 1.101 0 0 0-.194.604v12.535z" fill="#a0041e"/><path d="M30.58 17.484c-.252-1.115-1.164-2.017-2.036-2.017-.872 0-1.375.902-1.123 2.017.251 1.113 1.162 2.016 2.034 2.016.873 0 1.376-.903 1.124-2.016m-3.064-5.105c-.253-1.172-1.177-2.121-2.06-2.121-.884 0-1.393.949-1.139 2.12.255 1.173 1.18 2.122 2.062 2.122.884 0 1.392-.95 1.137-2.121m-3.538-5.271c-.242-1.136-1.119-2.057-1.958-2.057-.838 0-1.322.92-1.08 2.057s1.12 2.058 1.957 2.058c.84 0 1.323-.921 1.081-2.058m7.457 16.73l-12.103-9.73a1.935 1.935 0 0 0-.33-.211V1.327c0-.232-.084-.436-.2-.613.154.058.334.16.548.328 1.821 1.432 11.587 9.099 11.587 9.099S32 10.583 32 12.625v12.322c0-.402-.189-.803-.566-1.108" fill="#dd2e44"/><path d="M31.994 24.995c.001-.016.006-.032.006-.049V25l-.006-.005z" fill="#dd2e44"/><path d="M18.5 27.333c1.61 0 2.916-1.044 2.916-2.333 0-1.289-1.306-2.333-2.916-2.333-1.611 0-2.916 1.044-2.916 2.333 0 1.289 1.305 2.333 2.916 2.333m12.935-1.278L19.289 35.5c-.753.61-1.988.61-2.742 0L4.565 25.971a1.439 1.439 0 0 1-.55-.983c-.004-.042-.015-.083-.015-.125 0-.402.188-.803.565-1.108l12.023-9.647c.125-.1.266-.178.412-.245V1.328c0-.229.081-.43.194-.604.181-.28.466-.474.806-.474.336 0 .619.19.8.464.117.177.2.381.2.614v12.569c.117.06.229.129.331.211l12.104 9.731c.377.305.565.706.565 1.108 0 .016-.005.032-.006.048-.014.386-.198.768-.559 1.06" fill="#ea596e"/><path d="M18.5 22.667c1.61 0 2.916 1.044 2.916 2.333 0 1.289-1.306 2.333-2.916 2.333-1.611 0-2.916-1.044-2.916-2.333 0-1.289 1.305-2.333 2.916-2.333M29.455 19.5c-.872 0-1.783-.903-2.034-2.016-.252-1.115.251-2.017 1.123-2.017s1.784.902 2.035 2.017c.252 1.113-.25 2.016-1.124 2.016M26.378 14.5c-.883 0-1.807-.949-2.061-2.121-.254-1.172.254-2.121 1.137-2.121.884 0 1.808.949 2.062 2.121.255 1.172-.254 2.121-1.138 2.121M22.896 9.166c-.839 0-1.715-.921-1.957-2.058-.242-1.136.242-2.057 1.08-2.057.84 0 1.717.921 1.959 2.057.24 1.137-.243 2.058-1.082 2.058" fill="#fff"/><path d="M7.188 17.999c-.994 0-1.567-1.007-1.28-2.249.286-1.243 1.325-2.25 2.319-2.25s1.567 1.007 1.28 2.25c-.286 1.242-1.325 2.249-2.319 2.249M12.771 10.5c-.994 0-1.567-1.007-1.28-2.25C11.776 7.008 12.815 6 13.81 6c.993 0 1.566 1.008 1.28 2.25-.287 1.243-1.326 2.25-2.32 2.25" fill="#e1e8ed"/></g></svg>