<svg xmlns="http://www.w3.org/2000/svg" viewBox="0 0 45 45"><defs><clipPath id="a"><path d="M0 36h36V0H0v36z"/></clipPath></defs><g clip-path="url(#a)" transform="matrix(1.25 0 0 -1.25 0 45)"><path d="M18 0C8.059 0 0 8.059 0 18s8.059 18 18 18 18-8.059 18-18S27.94 0 18 0" fill="#292f33"/><path d="M27 18a9 9 0 0 0-9-9 9 9 0 0 0-9 9 9 9 0 0 0 9 9 9 9 0 0 0 9-9" fill="#e1e8ed"/><path d="M16.78 21.07c0-.79.456-1.336 1.265-1.336.808 0 1.283.545 1.283 1.336 0 .756-.457 1.336-1.283 1.336-.827 0-1.266-.58-1.266-1.336m-.334-5.098c0-.896.527-1.757 1.6-1.757 1.002 0 1.6.861 1.6 1.757 0 1.108-.634 1.758-1.6 1.758-1.02 0-1.6-.773-1.6-1.758m-2.742-.175c0 1.406.773 2.443 1.881 3.041-.826.597-1.336 1.406-1.336 2.513 0 2.057 1.705 3.375 3.797 3.375 2.04 0 3.814-1.3 3.814-3.375 0-.984-.492-1.968-1.353-2.513 1.195-.598 1.88-1.688 1.88-3.04 0-2.445-1.986-4.009-4.34-4.009-2.427 0-4.343 1.652-4.343 4.008" fill="#292f33"/></g></svg>