<svg xmlns="http://www.w3.org/2000/svg" viewBox="0 0 45 45"><defs><clipPath id="a"><path d="M0 36h36V0H0v36z"/></clipPath><clipPath id="b"><path d="M20 36s-1 0-2-1-1-2-1-4 1-4 1-5c0-3-4-5-4-9.084C14 13.583 16 7 17 5h6c1 2 3 8.583 3 11.916C26 21 22 23 22 26c0 1 1 3 1 5s0 3-1 4-2 1-2 1z"/></clipPath><clipPath id="c"><path d="M0 36h36V0H0v36z"/></clipPath><clipPath id="d"><path d="M28 32c-1-1-1-2-1-4s1-4 1-5c0-3-4-5-4-9.084C24 10.583 26 4 27 2h6c1 2 3 8.583 3 11.916C36 18 32 20 32 23c0 1 1 3 1 5s0 3-1 4-2 1-2 1-1 0-2-1"/></clipPath><clipPath id="e"><path d="M0 36h36V0H0v36z"/></clipPath></defs><g clip-path="url(#a)" transform="matrix(1.25 0 0 -1.25 0 45)"><path d="M22 26c0 1 1 3 1 5s0 3-1 4-2 1-2 1-1 0-2-1-1-2-1-4 1-4 1-5c0-3-4-5-4-9.084C14 13.583 16 7 17 5h6c1 2 3 8.583 3 11.916C26 21 22 23 22 26" fill="#ccd6dd"/></g><g clip-path="url(#b)" fill="#be1931" transform="matrix(1.25 0 0 -1.25 0 45)"><path d="M23 26h-6v2h6v-2zM24 22h-8v2h8v-2z"/></g><g clip-path="url(#c)" transform="matrix(1.25 0 0 -1.25 0 45)"><path d="M32 23c0 1 1 3 1 5s0 3-1 4-2 1-2 1-1 0-2-1-1-2-1-4 1-4 1-5c0-3-4-5-4-9.084C24 10.583 26 4 27 2h6c1 2 3 8.583 3 11.916C36 18 32 20 32 23" fill="#ccd6dd"/></g><g clip-path="url(#d)" fill="#be1931" transform="matrix(1.25 0 0 -1.25 0 45)"><path d="M33 23h-6v2h6v-2zM34 19h-8v2h8v-2z"/></g><g clip-path="url(#e)" transform="matrix(1.25 0 0 -1.25 0 45)"><path d="M12.562 0C5.624 0 0 5.624 0 12.563c0 6.938 5.624 12.562 12.562 12.562s12.563-5.624 12.563-12.562C25.125 5.624 19.5 0 12.562 0" fill="#3a4449"/><path d="M15.23 17.21a2.316 2.316 0 1 0-4.632 0 2.316 2.316 0 0 0 4.633 0M8.82 15.063a2.316 2.316 0 1 0-4.632 0 2.316 2.316 0 0 0 4.632 0M13.747 7.947a2.316 2.316 0 1 0-4.633 0 2.316 2.316 0 0 0 4.633 0"/></g></svg>