<svg xmlns="http://www.w3.org/2000/svg" viewBox="0 0 45 45"><defs><clipPath id="a"><path d="M0 36h36V0H0v36z"/></clipPath></defs><g clip-path="url(#a)" transform="matrix(1.25 0 0 -1.25 0 45)"><path d="M5 0a2 2 0 0 0-2 2v31a2 2 0 0 0 4 0V2a2 2 0 0 0-2-2" fill="#8899a6"/><path d="M5 35a2 2 0 0 1-2-2V2a.5.5 0 0 1 1 0v29.586C4 32.367 4.633 33 5.414 33H7a2 2 0 0 1-2 2" fill="#aab8c2"/><path d="M5 0a2 2 0 0 0-2 2v31a2 2 0 0 0 4 0V2a2 2 0 0 0-2-2" fill="#8899a6"/><path d="M5 35a2 2 0 0 1-2-2V2a.5.5 0 0 1 1 0v29.586C4 32.367 4.633 33 5.414 33H7a2 2 0 0 1-2 2" fill="#aab8c2"/><path d="M32.397 32.918c-1.665.719-3.437 1.076-5.396 1.108l-1.375-.38L21 33l-1 .128-.711-.15c-2.17-.469-4.23-.894-6.29-.982L12 31l-6 1V13h6l1-2h.078c2.243.096 4.47.556 6.632 1.022.098.022.193.041.29.062l.646.645 5.438.709.917-.412c1.679-.032 3.192-.334 4.603-.944A1.002 1.002 0 0 1 33 13v19a1 1 0 0 1-.604.918" fill="#292f33"/><path d="M13 31.996c-.239-.01-.478-.035-.717-.035-1.797 0-3.395.313-4.887.957A.998.998 0 0 1 6 32v-6s3.292-1 7-1v6.996zM20 26s-3.75-1-7-1v-7c3 0 7 1 7 1v7zM27 27v7.026c-.096.002-.186.013-.283.013-2.268 0-4.521-.442-6.717-.911V26s2.167 1 7 1M6.604 12.082c1.5-.648 3.09-.993 4.82-1.082H13v7c-4.166 0-7 1-7 1v-6a1 1 0 0 1 .604-.918M20 19v-6.916c2.313.499 4.511.955 6.717.955.097 0 .187-.011.283-.013V20c-4.5 0-7-1-7-1M27 20c2.676 0 4.82-.56 6-.954v7.046c-1.147.381-3.231.908-6 .908v-7z" fill="#e1e8ed"/></g></svg>