<svg xmlns="http://www.w3.org/2000/svg" viewBox="0 0 45 45"><defs><clipPath id="a"><path d="M0 36h36V0H0v36z"/></clipPath></defs><g clip-path="url(#a)" transform="matrix(1.25 0 0 -1.25 0 45)"><path d="M36 31V4s0-4-4-4H4C0 0 0 4 0 4v5s25 2 36 22" fill="#4289c1"/><path d="M30.59 15.568s2.33 2.136 1.924 3.05c-.408.913-11.676-.832-17.154-3.278C7.14 11.672 3.292 5.574 4.107 3.748c.816-1.827 7.925-3.034 16.143.634 5.48 2.446 14.3 9.67 13.895 10.582-.41.913-3.555.604-3.555.604" fill="#a7d28b"/><path d="M34.145 14.965c-.409.913-3.556.604-3.556.604s2.205 2.024 1.944 2.972L4.612 6.326c-.57-1.116-.748-2.037-.507-2.578.211-.472.85-.9 1.812-1.217l28.215 12.345c0 .028.021.069.011.089" fill="#f5f8fa"/><path d="M24.408 21c-3.4 0-6.462 3.95-6.8 4.4a1 1 0 0 0 1.6 1.201c.754-1.002 3.158-3.601 5.2-3.601a1 1 0 1 0 0-2M7.408 17c-.419 0-.809.265-.949.684-1.195 3.584.152 5.933 1.492 7.273 1.401 1.401 3.07 1.968 3.141 1.992a1 1 0 0 0 .635-1.897c-.516-.176-4.995-1.861-3.37-6.736A.999.999 0 0 0 7.408 17" fill="#d5ab88"/><path d="M18.408 20.5a3.5 3.5 0 1 0-7 0v4a3.5 3.5 0 1 0 7 0v-4z" fill="#67757f"/><path d="M20.408 26a2 2 0 0 0-2-2h-7a2 2 0 0 0 0 4h7a2 2 0 0 0 2-2" fill="#67757f"/><path d="M18.408 32a4 4 0 1 0-8 0 4 4 0 0 0 8 0" fill="#d5ab88"/><path d="M9.408 32s0 4 5 4c4 0 4-4 4-4s0 2-3 2c-2 0-2-3-6-2" fill="#963b22"/><path d="M25.406 10c-.3 0-.605.067-.893.211l-2 1c-.438.22-.78.592-.962 1.046l-1.682 4.204-4.204 1.682a1.999 1.999 0 0 0-1.114 2.6 1.998 1.998 0 0 0 2.6 1.114l5-2c.508-.203.91-.606 1.114-1.114l1.717-4.294 1.32-.66A2 2 0 0 0 25.406 10" fill="#67757f"/><path d="M16.41 6a1.997 1.997 0 0 0-1.79 1.105l-1 2c-.2.398-.26.851-.173 1.288l.848 4.241-2.602 4.337a1.999 1.999 0 1 0 3.43 2.058l3-5a2 2 0 0 0 .246-1.422l-.866-4.327.694-1.385A2.002 2.002 0 0 0 16.41 6" fill="#67757f"/></g></svg>