<svg xmlns="http://www.w3.org/2000/svg" viewBox="0 0 45 45"><defs><clipPath id="a"><path d="M0 36h36V0H0v36z"/></clipPath></defs><g clip-path="url(#a)" transform="matrix(1.25 0 0 -1.25 0 45)"><path d="M6.5 3a3.5 3.5 0 1 0 0 7 3.5 3.5 0 0 0 0-7m0 9a5.5 5.5 0 1 1 0-11 5.5 5.5 0 0 1 0 11M29.5 3a3.5 3.5 0 1 0 0 7 3.5 3.5 0 1 0 0-7m0 9A5.5 5.5 0 1 1 29.501.999 5.5 5.5 0 0 1 29.5 12" fill="#99aab5"/><path d="M6.5 2.086a4.5 4.5 0 1 0 0 9 4.5 4.5 0 0 0 0-9m0 11a6.5 6.5 0 1 1 0-13 6.5 6.5 0 0 1 0 13M29.5 2.086a4.5 4.5 0 1 0 0 9 4.5 4.5 0 0 0 0-9m0 11a6.5 6.5 0 1 1 0-13 6.5 6.5 0 0 1 0 13" fill="#292f33"/><path d="M7.002 8.95c-2-4 .999-2.588 1.999-.588.905 1.811 3.444 2.43 4.66.375A7.503 7.503 0 0 1 6.5 14a7.45 7.45 0 0 1-3.764-1.02C5.568 12.814 8.1 11.15 7 8.95" fill="#77b255"/><path d="M30 7a1 1 0 0 0-1-1h-9a1 1 0 1 0 0 2h9a1 1 0 0 0 1-1" fill="#99aab5"/><path d="M29.923 5.694a.999.999 0 0 0-1.405.161L22.917 12.9a1 1 0 1 0 1.566 1.244l5.6-7.045a1 1 0 0 0-.16-1.405" fill="#99aab5"/><path d="M12.463 15.633a.999.999 0 0 0 .304-1.381L7.917 6.67a1 1 0 1 0-1.684 1.078l4.849 7.582a.999.999 0 0 0 1.38.303" fill="#ccd6dd"/><path d="M10.53 18.632C9.717 18.047 6 17 9 15s5.093-4.125 5.093-6c0-2.665-.656-4 .907-4h7s-1 4 2 7 5 2 8 3c1.897.633 4 2 4 3s0 2-2 1-1-1.55-3-.55-3.16-.45-4.16-.45-7.615-1.68-8.62.05C17.667 19 16.434 20 14.616 20c-1.318 0-3.116-.668-4.087-1.368" fill="#77b255"/><path d="M21 7a2 2 0 1 0-4 0 2 2 0 0 0 4 0" fill="#66757f"/><path d="M36.198 8.975l-9.277-3.732-1.119 2.783 9.277 3.732 1.12-2.783z" fill="#ccd6dd"/><path d="M35.825 9.902L26.548 6.17l-.373.927 9.277 3.733.373-.928z" fill="#fff"/><path d="M36.198 8.975l-9.277-3.732-.373.927 9.277 3.733.373-.928z" fill="#66757f"/><path d="M19 17.863c1.366-.385 5.645.007 6.802.098 1.157.09 1.594-.452 0-1.25C24 15.81 20.187 13.55 19 13.086c-.998-.391-4.5 1.21-4.917 1.696-.416.486 3.745 3.41 4.917 3.08M34 19c-1.549-.04-3 0-4 0s-1.158-1.102 1.549-1.102S34 19 34 19" fill="#292f33"/><path d="M3.736 19.043c0 1.465 4.456 5.134 3.975 4.476-1.15-1.573-.49-3.476 1.487-3.476 1.976 0 2.708-6.52-.198-5.042-2.907 1.476-5.264 3.323-5.264 4.042" fill="#77b255"/><path d="M8.606 25.43c.704-.61.345-1.691-1.045-3.484-1.391-1.794-3.582-2.521-2.359-.542 1.223 1.979 3.404 4.027 3.404 4.027" fill="#ccd6dd"/><path d="M10.53 18.632a.927.927 0 0 0-1.207-.516l-.134.054a.927.927 0 0 0-.516 1.206l.797 1.991a.928.928 0 0 0 1.206.517l.135-.055a.927.927 0 0 0 .516-1.205l-.798-1.992z" fill="#66757f"/><path d="M12.91 22.01a.5.5 0 0 0-.3-.64l-1.881-.68a.5.5 0 0 0-.339.941l1.88.68a.5.5 0 0 0 .64-.302" fill="#292f33"/></g></svg>