<svg xmlns="http://www.w3.org/2000/svg" viewBox="0 0 45 45"><defs><clipPath id="a"><path d="M0 36h36V0H0v36z"/></clipPath><clipPath id="b"><path d="M13.074 16.847c.437-3.033 1.209-8.776 1.403-9.329.196-.552 2.58-4.009 3.466-4.959.492-.528 2.934 1.26 2.527 1.87-.468.703-2.428 3.516-2.674 4.202-.245.689-.506 5.92-.241 8.497 0 0-2.039 1.124-3.374 1.124-.737 0-1.259-.343-1.107-1.405"/></clipPath><clipPath id="c"><path d="M9.64 17.815S8.533 8.788 8.533 7.957c0-.828.516-4.528.83-5.856.105-.44 3.91-.615 3.772.354-.086.599-.645 4.492-.554 4.948.091.458.564 2.888 1.384 4.426.586 1.099 4.429 2.249 3.563 6.077-.211.936-1.124 1.251-2.259 1.251-2.343 0-5.629-1.342-5.629-1.342"/></clipPath><clipPath id="d"><path d="M0 36h36V0H0v36z"/></clipPath></defs><g clip-path="url(#a)" transform="matrix(1.25 0 0 -1.25 0 45)"><path d="M9.811 32.52c-.152-.278-.643-.3-1.093-.052l-2.613 1.418c-.449.25.028 1.304.478 1.055l2.693-1.466c.45-.249.535-.955.535-.955" fill="#66757f"/><path d="M13.095 2.256c-.658.864-4.72-.256-6.118-.957-.934-.47-.657-1.3-.657-1.3h7.033s.399 1.392-.258 2.257" fill="#292f33"/><path d="M19.451 25.57c-2.502 1.644-7.813 4.1-9.964 7.086a1.444 1.444 0 0 1-1.173.594c-.823-.002-1.49-.648-1.492-1.445a1.47 1.47 0 0 1 .3-.87c4.857-6.292 11.782-7.158 12.088-7.287 0 0 1.001 1.424.241 1.922" fill="#5c913b"/><path d="M17.555 17.128c-.265-2.577-.003-7.81.24-8.497.248-.686 2.207-3.5 2.675-4.202.407-.611-2.035-2.398-2.526-1.87-.887.95-3.271 4.407-3.466 4.959-.195.553-.967 6.297-1.403 9.329-.43 2.988 4.48.28 4.48.28" fill="#744eaa"/><path d="M9.64 17.814S8.533 8.788 8.533 7.957c0-.829.516-4.529.83-5.857.105-.439 3.91-.614 3.772.355-.086.598-.645 4.492-.554 4.948.091.458.564 2.888 1.384 4.426.586 1.1 4.43 2.25 3.564 6.077-.648 2.867-7.889-.091-7.889-.091" fill="#9266cc"/></g><g clip-path="url(#b)" transform="matrix(1.25 0 0 -1.25 0 45)"><path d="M18.408 13.375c-2.108.044-3.796-.667-4.936-2M18.154 10.771c-2.1-.19-3.699-1.087-4.682-2.539M19.092 8.427c-2.095-.242-3.672-1.175-4.62-2.65M20.553 6.34c-2.094-.242-3.671-1.175-4.62-2.65" fill="none" stroke="#9266cc" stroke-miterlimit="10"/><path d="M20.896 2.185s-3.173 4.757-3.729 5.736c-.405.712-1.044 4.589-.83 6.938.059.634-.398 2.42-.735 3.107M19.014 2.019s-3.174 4.757-3.73 5.736c-.404.712-1.043 4.589-.83 6.938.059.634-.4 2.42-.735 3.106" fill="none" stroke="#9266cc" stroke-miterlimit="10"/></g><g clip-path="url(#c)" transform="matrix(1.25 0 0 -1.25 0 45)"><path d="M8.188 15.063c2-.75 5.485-1.938 10.055-.688M7.577 11.364c2.032-.659 5.568-1.689 10.076-.234M7.34 8.118c2.062-.56 5.644-1.415 10.076.257M7.648 4.906c2.105-.364 5.75-.88 10.007 1.201" fill="none" stroke="#cbb7ea" stroke-miterlimit="10"/><path d="M11.292 17.167s-1.72-8.25-1.652-9.375C9.708 6.667 10.465 1 10.465 1M12.119 1s-.756 5.667-.825 6.792c-.05.816 1.686 4.889 2.179 7.333.186.923.319 2.375.319 2.375M14.31.447s-.757 5.667-.826 6.792c-.049.816 1.083 4.58 2.31 6.594.33.544.706 2.35.706 3.114" fill="none" stroke="#aa8dd8" stroke-miterlimit="10"/></g><g clip-path="url(#d)" transform="matrix(1.25 0 0 -1.25 0 45)"><path d="M21.979 30.784a3.579 3.579 0 1 0-7.158 0 3.579 3.579 0 0 0 7.158 0" fill="#ffdc5d"/><path d="M16.531 30.785c-1.71 1.278-2.587 3.85-1.95 4.525 1.196 1.268 3.687.109 4.328-.983.642-1.094-1.859-3.93-2.378-3.542" fill="#5c913b"/><path d="M9.64 17.814s.196 6.405 3.264 8.772c2.29 1.769 6.143.447 7.165-1.598 1.024-2.045-2.414-3.167-2.414-8.28 0-1.023-8.015-.897-8.015 1.107" fill="#77b255"/><path d="M16.782 30.186c-.466-1.068-.788-1.977-.988-2.783.573-.27 1.06-1.309 1.7-1.542 1.056-.383 1.173.277 1.198.398.256 1.297.908 2.537 1.328 3.203.512.81-2.646 2.084-3.238.724" fill="#ffdc5d"/><path d="M15.544 32.94c0-1.151 1.674-4.486 4.971-4.473 1.727.007 2.037 1.91 2.028 3.172-.005 1.08-1.175 2.966-2.807 3.433-1.632.467-4.192-.68-4.192-2.133" fill="#77b255"/><path d="M19.49 4.544c1.5.255 1.285-1.386 1.246-1.974-.093-1.4-.37-2.57-1.362-2.57h-3.322s-.184 1.523 1.603 1.868c.354.069-.31 2.312 1.834 2.676" fill="#292f33"/><path d="M10.422 32.737c0-.912-.763-1.652-1.705-1.652-.94 0-1.704.74-1.704 1.652 0 .913.763 1.652 1.704 1.652.942 0 1.705-.74 1.705-1.652" fill="#ffdc5d"/><path d="M15.544 26.722c-3.322-.268-6.347.62-5.772 4.599.07.48.17.724-.224 1.082-.665.599-2.652.942-2.794-.221-1.053-8.61 6.202-8.29 6.473-8.534 0 0 1.37 1.826 2.317 3.074" fill="#77b255"/><path d="M26.191 24.082c1.026-.522.866-4.595 0-4.595-.867 0-2.192.806-2.004 1.61.19.805.881 3.555 2.004 2.985" fill="#66757f"/><path d="M26.542 23.248c-.152-.278-.643-.301-1.093-.052l-15.318 8.48c-.449.25-.192 1.425.257 1.176l15.62-8.65c.449-.25.689-.676.534-.954" fill="#66757f"/></g></svg>