<svg xmlns="http://www.w3.org/2000/svg" viewBox="0 0 45 45"><defs><clipPath id="a"><path d="M0 36h36V0H0v36z"/></clipPath></defs><g clip-path="url(#a)" transform="matrix(1.25 0 0 -1.25 0 45)"><path d="M7.754 28.246C4.068 24.56 1.64 19.63.843 14.666L14.665.842c4.965.797 9.895 3.225 13.58 6.911 3.687 3.686 6.115 8.616 6.912 13.581L21.335 35.157c-4.965-.797-9.895-3.225-13.581-6.91M33.37 33.37c-2.663 1.478-5.736 2.12-8.898 2.066l10.964-10.965c.054 3.162-.588 6.236-2.067 8.898M2.63 2.63C5.294 1.153 8.368.51 11.53.565L.564 11.528C.51 8.367 1.152 5.293 2.63 2.63" fill="#662113"/><path d="M22.828 24.243l-2.414-2.414-.707.707a1 1 0 1 1-1.414-1.415l.707-.706L15.585 17l-.706.707a1 1 0 1 1-1.415-1.414l.707-.707-2.414-2.414-.707.707a.999.999 0 1 1-1.414-1.414l.707-.707-1-1a1 1 0 1 1 1.414-1.415l1 1 .707-.707a1 1 0 1 1 1.415 1.414l-.707.707 2.414 2.415.707-.707a.997.997 0 0 1 1.414 0 .999.999 0 0 1 0 1.414l-.707.707L20.414 19l.707-.707a1 1 0 0 1 1.414 1.414l-.707.707 2.415 2.415.707-.708a1 1 0 0 1 1.414 1.415l-.707.707 1 1a1 1 0 0 1-1.415 1.414l-1-1-.707.707a.999.999 0 1 1-1.414-1.414l.707-.707zM.564 11.528L11.529.563a22.26 22.26 0 0 1 3.136.28L.843 14.664a22.274 22.274 0 0 1-.28-3.137M24.472 35.436a22.274 22.274 0 0 1-3.137-.279l13.823-13.822c.168 1.05.26 2.096.279 3.137L24.472 35.436z" fill="#e1e8ed"/></g></svg>