<svg xmlns="http://www.w3.org/2000/svg" viewBox="0 0 45 45"><defs><clipPath id="a"><path d="M0 36h36V0H0v36z"/></clipPath><clipPath id="b"><path d="M8 36c-2.958 0-6-5-5-7 1.613-3.225 12-13 12-13h6s10 10 12 13c1 2-2.333 7-5 7H8zm4-8c-2 2-1 2 6 2 8 0 7.5-.5 6-2l-6-6-6 6z"/></clipPath><clipPath id="c"><path d="M0 36h36V0H0v36z"/></clipPath></defs><g clip-path="url(#a)" transform="matrix(1.25 0 0 -1.25 0 45)"><path d="M24 28l-6-6-6 6c-2 2-1 2 6 2 8 0 7.5-.5 6-2m4 8H8c-2.958 0-6-5-5-7 1.612-3.225 12-13 12-13h6s10 10 12 13c1 2-2.333 7-5 7" fill="#55acee"/></g><g clip-path="url(#b)" transform="matrix(1.25 0 0 -1.25 0 45)"><path d="M13 27c-1 1-8 9-3 9h16c2.268 0 4-2-2-8-3-3-11-1-11-1" fill="#3b88c3"/></g><g clip-path="url(#c)" transform="matrix(1.25 0 0 -1.25 0 45)"><path d="M22 15.5a1.5 1.5 0 0 0-1.5-1.5h-5a1.5 1.5 0 1 0 0 3h5a1.5 1.5 0 0 0 1.5-1.5" fill="#ffac33"/><path d="M26 8a8 8 0 1 0-16 0 8 8 0 0 0 16 0" fill="#ffac33"/><path d="M24 8a6 6 0 1 0-12 0 6 6 0 0 0 12 0" fill="#ffd983"/></g></svg>