<svg xmlns="http://www.w3.org/2000/svg" viewBox="0 0 45 45"><defs><clipPath id="a"><path d="M0 36h36V0H0v36z"/></clipPath></defs><g clip-path="url(#a)" transform="matrix(1.25 0 0 -1.25 0 45)"><path d="M36 15.637C34.648 16.064 32.158 19 30 19c-3 0-3 7-4 9s-3 4-3 5-3 2-8 0-8-2-10-2-3-2-4-4 0-2 0-2c1-1 2 2 4 3s3-1 5 0c1.493.747 4.658-.178 7 .137.794.106 1.493.356 2 .863 0 0 0-8 2-11 0 0-1-1-2-4s-2 0-2 2-1 5-5 7c-1.789.895-5.658.683-7-2-2-4 0-8 2-9s3-2 7-2c1.943 0 17.813-.48 22-.364v6z" fill="#d5ab88"/><path d="M8.182 19.595c2.186 1.94 5.633 1.687 8.025-.472C15.49 20.496 14.202 21.9 12 23c-1.79.895-5.658.683-7-2-2-4 0-8 2-9 .24-.12.463-.24.68-.356-1.812 2.62-1.664 6.025.502 7.95" fill="#269"/><path d="M12 17.5a.502.502 0 0 0-.354.854C12.78 19.487 13.951 19.5 14 19.5a.5.5 0 0 0 0-1c-.028-.001-.821-.028-1.646-.854A.502.502 0 0 0 12 17.5M8 14.5a.502.502 0 0 0-.354.854C8.78 16.487 9.951 16.5 10 16.5a.5.5 0 0 0 0-1c-.028-.001-.821-.028-1.646-.854A.502.502 0 0 0 8 14.5" fill="#aa8052"/><path d="M36 12H0V0h36v12z" fill="#55acee"/><path d="M6 12c3 2 7 5 6 3s-1.001-3 1-2c2 1 5 2 4 0s2-1 3 0 4 0 3-1-9-2-12-2-5 2-5 2" fill="#55acee"/></g></svg>