<svg xmlns="http://www.w3.org/2000/svg" viewBox="0 0 45 45"><defs><clipPath id="a"><path d="M0 36h36V0H0v36z"/></clipPath></defs><g clip-path="url(#a)" transform="matrix(1.25 0 0 -1.25 0 45)"><path d="M14.316 31.74c-1.207-.268 0-2.139-.37-3.349-.252-.837 1.474-.94 1.474-.94s1.207.266 1.003-1.677c-.207-1.94 2.472-2.616 2.677-.673.204 1.941-1.385 2.988-.511 4.5 2.092 3.62-4.273 2.138-4.273 2.138" fill="#f3d2a2"/><path d="M27.001 18a1 1 0 0 0-.896.553c-1.788 3.575-7.366 5.48-7.422 5.499a1 1 0 0 0 .633 1.897c.261-.087 6.418-2.181 8.578-6.502A1 1 0 0 0 27.001 18" fill="#f3d2a2"/><path d="M12.002 1.999a2 2 0 0 0-1.924 2.551l2 7a2 2 0 0 0 .76 1.077l7 5a2 2 0 1 0 2.324-3.254l-6.43-4.595-1.809-6.328a2.003 2.003 0 0 0-1.922-1.451" fill="#2a6797"/><path d="M26.998 5c-.3 0-.605.067-.893.211l-6 3A2 2 0 0 0 19 10v5a2 2 0 0 0 4 0v-3.764l4.894-2.447A2 2 0 0 0 26.998 5" fill="#4289c1"/><path d="M9.645 1.99L13.041.85c.56 2.976-.972 2.436-2.957 3.102-1.985.666-3.912.26-4.231-.69.779-.26 1.509-.506 2.844-.955l.948-.317M28.89 5.08l.68 3.518c-3.024.16-2.285-1.289-2.682-3.343-.397-2.057.263-3.913 1.244-4.103l.57 2.947.189.981" fill="#292f33"/><path d="M24 17s0-2-2-2-3.999 1-3.999 1c-2 6.001-4 9.001-.153 10.914C20.833 28.398 23 22 24 17" fill="#a0041e"/><path d="M14.316 31.175C13 31 13.243 32.375 14 33c1.067.884 3.52.83 4.589-.055 1.068-.885 1.068-2.656 0-3.54-.755-.625-1.068-1.77-1.068 0s-1.07 0-1.07.884c0 .886-2.135.886-2.135.886" fill="#b39155"/><path d="M20 31a4 4 0 1 0-8 0 4 4 0 0 0 8 0" fill="#f3d2a2"/><path d="M11 31s0 4 5 4c4 0 4-4 4-4s0 2-3 2c-2.001 0-2-3-6-2" fill="#ffe51e"/><path d="M16.143 23.515c-.028-.046-2.825-4.631-7.339-5.534l.004-.02A.985.985 0 0 1 8 17a1 1 0 0 1 1-1c.07 0 .128.026.193.04l.004-.02c5.372 1.074 8.53 6.246 8.661 6.466l-1.715 1.029z" fill="#f3d2a2"/></g></svg>