<svg xmlns="http://www.w3.org/2000/svg" viewBox="0 0 45 45"><defs><clipPath id="a"><path d="M0 36h36V0H0v36z"/></clipPath></defs><path d="M37.5 28.75h3.75l2.5-7.5H40l-2.5 7.5z" fill="#414042"/><g clip-path="url(#a)" transform="matrix(1.25 0 0 -1.25 0 45)"><path d="M29 17s-3 4-4 4h-9l-6-5-6.081-1.77c-.62-.217-1.45-.636-1.56-1.23L0 3c-.125-.646.448-1 1-1h34a1 1 0 0 1 1 1v12c0 2-7 2-7 2" fill="#f4900c"/><path d="M16.094 16L11 2h12l5 14H16.094z" fill="#3b88c3"/><path d="M12 5a4 4 0 1 0-8 0 4 4 0 0 0 8 0" fill="#292f33"/><path d="M10 5a2 2 0 1 0-3.999-.001A2 2 0 0 0 10 5" fill="#58595b"/><path d="M33 5a4 4 0 1 0-8 0 4 4 0 0 0 8 0" fill="#292f33"/><path d="M31 5a2 2 0 1 0-3.999-.001A2 2 0 0 0 31 5" fill="#58595b"/><path d="M16 9.5a3.5 3.5 0 1 0 7 0 3.5 3.5 0 1 0-7 0" fill="#fff"/><path d="M21.055 10.758c0-.441-.19-.826-.574-1.072.504-.231.853-.7.853-1.254 0-.84-.77-1.547-1.763-1.547-1.037 0-1.682.764-1.682 1.316 0 .274.287.469.539.469.477 0 .364-.818 1.156-.818.364 0 .659.279.659.65 0 .98-1.192.26-1.192 1.086 0 .734.995.238.995 1.016 0 .265-.188.468-.505.468-.665 0-.573-.685-1.05-.685-.287 0-.455.258-.455.517 0 .547.749 1.135 1.527 1.135 1.009 0 1.492-.736 1.492-1.281" fill="#231f20"/><path d="M30 18l1 1 5 1v-2h-6z" fill="#f4900c"/><path d="M17 20h8v-4H12l5 4z" fill="#88c9f9"/><path d="M6 12a1 1 0 0 0-1-1H3a1 1 0 1 0 0 2h2a1 1 0 0 0 1-1" fill="#ffcc4d"/><path d="M36 14h-1a1 1 0 0 1-1-1v-1a1 1 0 0 1 1-1h1v3z" fill="#dd2e44"/></g></svg>