<svg xmlns="http://www.w3.org/2000/svg" viewBox="0 0 45 45"><defs><clipPath id="a"><path d="M0 36h36V0H0v36z"/></clipPath></defs><g clip-path="url(#a)" transform="matrix(1.25 0 0 -1.25 0 45)"><path d="M14.778.746a1 1 0 1 1 1.936.51l-1.526 5.802a.998.998 0 0 1-1.22.712.997.997 0 0 1-.713-1.22L14.778.746zM19.287 1.254a1 1 0 1 1 1.935-.508l1.524 5.803a1 1 0 1 1-1.935.509l-1.524-5.804zM14.205 21.296C14.368 20.768 14 19 14 19c-1 0-1.543 1.177-1.706 1.705L9.045 31.214a1 1 0 1 0 1.911.59l3.25-10.508zM21.795 21.296C21.632 20.768 22 19 22 19c1 0 1.543 1.177 1.705 1.705l3.25 10.509a1 1 0 0 1-1.91.59l-3.25-10.508z" fill="#af7e57"/><path d="M18.382 33c-.907 0-1.745-.29-2.432-.778a2.672 2.672 0 0 1-2.539-2.663c0-1.179.006-2.664 1.56-3.218a4.196 4.196 0 0 1 3.411-1.753 4.206 4.206 0 1 1 0 8.412" fill="#60352a"/><path d="M19 13h-2l-3-2-1-5h3l1 3h2l1-3h3l-1 5-3 2z" fill="#4289c1"/><path d="M13 0v1s0 1 2 1 2-1 2-1V0h-4zM19 0v1s0 1 2 1 2-1 2-1V0h-4z" fill="#292f33"/><path d="M22 22h-8V12h8v10z" fill="#4289c1"/><path d="M16.47 24.588V21.53a1.529 1.529 0 1 1 3.06 0v3.06h-3.06z" fill="#af7e57"/><path d="M21.823 30.706h-7.647v-4.588a3.823 3.823 0 0 1 7.647 0v4.588z" fill="#af7e57"/><path d="M16.4 30.777H14v-3.201c1.866 0 2.279 1.93 2.372 2.79.03-.86.652-2.79 5.628-2.79v3.2h-5.6z" fill="#60352a"/><path d="M19.53 23.824h-3.06s0-.765 1.53-.765 1.53.765 1.53.765" fill="#915a34"/><path d="M16.47 26.5a.382.382 0 1 0-.763 0 .382.382 0 0 0 .764 0M20.294 26.5a.382.382 0 1 0-.764 0 .382.382 0 0 0 .764 0" fill="#60352a"/><path d="M17.235 25.353h1.529s0-.765-.764-.765c-.765 0-.765.765-.765.765" fill="#915a34"/><path d="M22 11h-8v2h8v-2z" fill="#662113"/><path d="M33.5 32.5a.5.5 0 0 0-.5-.5H3a.5.5 0 0 0 0 1h30a.5.5 0 0 0 .5-.5" fill="#99aab5"/><path d="M32 36a1 1 0 0 1-1-1 1 1 0 1 1-2 0v-5a1 1 0 1 1 2 0 1 1 0 1 1 2 0v5a1 1 0 0 1-1 1M6 36a1 1 0 0 1-1-1 1 1 0 1 1-2 0v-5a1 1 0 1 1 2 0 1 1 0 1 1 2 0v5a1 1 0 0 1-1 1" fill="#292f33"/></g></svg>