<svg xmlns="http://www.w3.org/2000/svg" viewBox="0 0 45 45"><defs><clipPath id="a"><path d="M0 36h36V0H0v36z"/></clipPath></defs><g clip-path="url(#a)" transform="matrix(1.25 0 0 -1.25 0 45)"><path d="M35.538 9.321s1.328-2.214-2.658-6.2C28.892-.868 26.68.461 26.68.461L7.184 19.954s.977 2.748 3.544 5.316c2.568 2.568 5.317 3.545 5.317 3.545L35.538 9.321z" fill="#d99e82"/><path d="M13.388 26.156c.979-.979 4.522-6.109 3.544-7.088-.98-.978-6.11 2.566-7.088 3.544l-8.86 8.86a2.507 2.507 0 0 0 3.544 3.544l8.86-8.86z" fill="#c1694f"/><path d="M9.844 29.7L6.3 26.158.984 31.472l3.544 3.545L9.844 29.7z" fill="#292f33"/><path d="M24 5a5 5 0 0 0-5-5 5 5 0 0 0-5 5 5 5 0 0 0 5 5 5 5 0 0 0 5-5" fill="#be1931"/><path d="M19 0a1 1 0 0 0-1 1v8a1 1 0 1 0 2 0V1a1 1 0 0 0-1-1" fill="#662113"/></g></svg>