<svg xmlns="http://www.w3.org/2000/svg" viewBox="0 0 45 45"><defs><clipPath id="a"><path d="M0 36h36V0H0v36z"/></clipPath><clipPath id="b"><path d="M8.254 27.746C1.09 20.582-1.927 8.561 2.93 2.93c5.631-4.857 17.652-1.84 24.816 5.324 7.164 7.164 11.229 17.088 5.324 24.816-1.886 1.627-4.488 2.371-7.386 2.371-5.753-.001-12.666-2.931-17.43-7.695"/></clipPath></defs><g clip-path="url(#a)" transform="matrix(1.25 0 0 -1.25 0 45)"><path d="M27.746 8.254C20.582 1.09 8.56-1.927 2.93 2.93c-4.857 5.63-1.84 17.652 5.324 24.816 7.164 7.164 19.185 10.18 24.816 5.324 5.906-7.728 1.84-17.652-5.324-24.816" fill="#3b88c3"/></g><g clip-path="url(#b)" transform="matrix(1.25 0 0 -1.25 0 45)"><path d="M35.834 28.666C35.5 24.25 26.5 9.5 11.417 3.916c-1.167-.5-1.084-1.999.833-2.167 1.917-.167 13.5.166 17.5 2.416s10.75 18.918 9 20.252c-1.75 1.332 4.416 7.75 3 6.416-1.416-1.333-5.916-2.166-5.916-2.166" fill="#ccd6dd"/><path d="M8.084 8.166c7.834 1.917 26.667 10.417 25.25 24.584C32.92 33.917 25.184 38.866 12 28 4.418 21.75 3.223 13.809 3.75 9.083c.203-1.813 2.416-1.387 4.334-.917" fill="#e1e8ed"/></g></svg>