<svg xmlns="http://www.w3.org/2000/svg" viewBox="0 0 45 45"><defs><clipPath id="a"><path d="M0 36h36V0H0v36z"/></clipPath><clipPath id="b"><path d="M18 36C8.059 36 0 27.941 0 18S8.059 0 18 0s18 8.059 18 18-8.059 18-18 18z"/></clipPath></defs><g clip-path="url(#a)" transform="matrix(1.25 0 0 -1.25 0 45)"><path d="M36 18c0-9.941-8.059-18-18-18S0 8.059 0 18s8.059 18 18 18 18-8.059 18-18" fill="#f4900c"/><path d="M19 0h-2v36h2V0z" fill="#231f20"/><path d="M0 19h36v-2H0v2z" fill="#231f20"/></g><g clip-path="url(#b)" transform="matrix(1.25 0 0 -1.25 0 45)"><path d="M2 30c-4.318 0-7-4.598-7-12S-2.318 6 2 6s7 4.598 7 12-2.682 12-7 12M2 4c-4.351 0-9 3.678-9 14s4.649 14 9 14 9-3.678 9-14S6.351 4 2 4M34 30c-4.317 0-7-4.598-7-12s2.683-12 7-12 7 4.598 7 12-2.683 12-7 12m0-26c-4.351 0-9 3.678-9 14s4.649 14 9 14 9-3.678 9-14-4.649-14-9-14" fill="#231f20"/></g></svg>