<svg xmlns="http://www.w3.org/2000/svg" viewBox="0 0 45 45"><defs><clipPath id="a"><path d="M0 36h36V0H0v36z"/></clipPath></defs><path d="M31.294 15.044l-3.013 1.883.21-4.687-5.99-5.99L6.25 22.5v20h32.5v-20l-7.457-7.456z" fill="#d99e82"/><path d="M6.25 42.5H7.5v-20H6.25v20zM37.5 42.5h1.25v-20H37.5v20z" fill="#c1694f"/><g clip-path="url(#a)" transform="matrix(1.25 0 0 -1.25 0 45)"><path d="M31.707 18.707l-5.802 5.802-1.74-1.088 6.128-6.128a.997.997 0 0 1 1.414 0 .999.999 0 0 1 0 1.414M22.852 27.561l-4.146 4.146a1 1 0 0 1-1.414 0l-13-13a1 1 0 0 1 1.415-1.415L18 29.585l4.733-4.732.12 2.708z" fill="#292f33"/><path d="M20 2h-4v8h4V2z" fill="#c1694f"/><path d="M13 14H9v4h4v-4z" fill="#662113"/><path d="M20 14h-4v4h4v-4zM13 6H9v4h4V6z" fill="#c1694f"/><path d="M27 6h-4v4h4V6z" fill="#662113"/><path d="M33 1a1 1 0 0 0-1-1H4a1 1 0 1 0 0 2h28a1 1 0 0 0 1-1" fill="#bcbec0"/><path d="M24.42 23.58l-1.795-1.122.125 2.792L21 27l-1-6 3-2-2-9 6 7-1 5-1.58 1.58z" fill="#662113"/></g></svg>