<svg xmlns="http://www.w3.org/2000/svg" viewBox="0 0 45 45"><defs><clipPath id="a"><path d="M0 36h36V0H0v36z"/></clipPath></defs><g clip-path="url(#a)" transform="matrix(1.25 0 0 -1.25 0 45)"><path d="M36 4s0-4-4-4H4S0 0 0 4v28c0 4 4 4 4 4h28c4 0 4-4 4-4V4z" fill="#88c9f9"/><path d="M31.314 33.322c-.274 0-.54-.042-.787-.12a2.163 2.163 0 0 1-2.04 1.45 2.162 2.162 0 0 1-2.096-1.636c-.25.189-.56.306-.898.306-.827 0-1.497-.67-1.497-1.497 0-.201.04-.391.114-.566a1.66 1.66 0 0 1-.446.067 1.663 1.663 0 1 1 0-3.326h7.65a2.662 2.662 0 0 1 0 5.322" fill="#f5f8fa"/><path d="M2 2l1-1 11 6-1 1L2 2z" fill="#be1931"/><path d="M15 2l-1-1L3 7l1 1 11-6z" fill="#be1931"/><path d="M3 8l1-1 9.154 6L12 14 3 8z" fill="#be1931"/><path d="M14 8l-1-1-9.154 6L5 14l9-6z" fill="#be1931"/><path d="M4 14l1-1 7.308 6H10.23L4 14z" fill="#be1931"/><path d="M13 14l-1-1-7.308 6H6.77L13 14z" fill="#be1931"/><path d="M5.947 21.834a.948.948 0 0 1-1.1-.77L1.301.951c.62-.504 1.338-.74 1.88-.85l3.635 20.616a.95.95 0 0 1-.77 1.1l-.099.017zM15.802 0a.97.97 0 0 1 .008.323l-3.65 20.7a.99.99 0 0 1-1.147.804l-.02-.003a.989.989 0 0 1-.802-1.148L13.836 0h1.966zM9 22.5a.5.5 0 0 0-1 0v8a.5.5 0 0 0 1 0v-8z" fill="#be1931"/><path d="M3.307 22.273c-.128-.18-.415-.197-.64-.037-.225.16-.304.435-.175.616l5.56 7.836c.128.18.414.197.638.037.226-.16.305-.436.177-.616l-5.56-7.837z" fill="#be1931"/><path d="M30.857 21.76a.5.5 0 1 0-.383-.924L8.308 30.038a.5.5 0 1 0 .384.923l22.165-9.2zM12 22a1 1 0 0 0-1-1H6a1 1 0 0 0-1 1v2a1 1 0 0 0 1 1h5a1 1 0 0 0 1-1v-2z" fill="#be1931"/><path d="M27 22.737a.263.263 0 0 1-.263.263h-.474a.263.263 0 0 1-.263-.263V11.262c0-.145.117-.262.263-.262h.474c.146 0 .263.117.263.262v11.475z" fill="#66757f"/><path d="M28 11.5a1.5 1.5 0 1 0-3.001.001A1.5 1.5 0 0 0 28 11.5" fill="#f4900c"/><path d="M27.5 9a1 1 0 1 0-2 0 1 1 0 1 0 2 0" fill="#f4900c"/><path d="M33 20a1 1 0 0 0-1-1H3a1 1 0 0 0-1 1v2a1 1 0 0 0 1 1h29a1 1 0 0 0 1-1v-2z" fill="#be1931"/><path d="M14 20h-1.16v2H14v-2zM17 20h-2v2h2v-2zM20 20h-2v2h2v-2zM23 20h-2v2h2v-2zM26 20h-2v2h2v-2zM29 20h-2v2h2v-2zM31.5 22H30v-2h1.5a.5.5 0 0 1 .5.5v1a.5.5 0 0 1-.5.5" fill="#88c9f9"/><path d="M33 5H20v3h13V5z" fill="#66757f"/><path d="M11 24H9a1 1 0 0 1-1-1v-2a1 1 0 0 1 1-1h3v4h-1z" fill="#55aced"/><path d="M12 20h-2v4h2v-4z" fill="#88c9f9"/></g></svg>