<svg xmlns="http://www.w3.org/2000/svg" viewBox="0 0 45 45"><defs><clipPath id="a"><path d="M0 36h36V0H0v36z"/></clipPath></defs><g clip-path="url(#a)" transform="matrix(1.25 0 0 -1.25 0 45)"><path d="M36 33c-1-1.295-3.027-3.803-4.391-5.671-3.815-5.225-7.156-6.454-10.328-7.632-3.172-1.177-10.407-1.029-13.88-.853-3.472.175-5.735.579-6.42-.415-2.101-3.053-.611-6.482 2.427-6.949 2.378-.367 9.544.32 12.899.616 3.356.297 7.024 1.3 8.283 1.785 1.259.483 2.279.88 2.597 1.643.318.765 1.876 2.818 3.783 5.917C32.045 23.189 35 26.45 36 28v5z" fill="#f4900c"/><path d="M7 11.41c3 .113 7.055.486 9.309.686 2.289.202 4.704.732 6.42 1.203l-.424 6.783c-.344-.13-.686-.259-1.025-.385-3.172-1.178-10.404-1.029-13.877-.853-.141.006-.403.016-.403.024V11.41z" fill="#292f33"/><path d="M17 8V4c0-1.105 3.135-2 7-2 3.866 0 7 .895 7 2v4H17z" fill="#231f20"/><path d="M30.996 8c0-1.104-3.134-2-7-2-3.865 0-7 .896-7 2 0 1.105 3.135 2 7 2 3.866 0 7-.895 7-2" fill="#58595b"/></g></svg>