<svg xmlns="http://www.w3.org/2000/svg" viewBox="0 0 45 45"><defs><clipPath id="a"><path d="M0 36h36V0H0v36z"/></clipPath></defs><g clip-path="url(#a)" transform="matrix(1.25 0 0 -1.25 0 45)"><path d="M23.106 30.029c-5.49 5.49-14.722 6.492-19.799 1.414-5.077-5.077-4.077-14.308 1.414-19.8C8.275 8.09 12.506 7.32 16.427 8.587l-.014-.013.13.052c.263.088.526.179.787.284.698.239 1.734.558 2.942.806 1.848.38 3.541-1.606 4.955-3.021C26.641 5.28 29.47 1.037 30.177.33c.706-.707 1.413 0 2.121.707l.708.707.707.707c.707.708 1.414 1.415.707 2.122-.707.707-4.95 3.536-6.365 4.95-1.414 1.414-3.4 3.107-3.02 4.955.198.965.441 1.815.653 2.48 1.974 4.222 1.536 8.952-2.582 13.07" fill="#dd2e44"/><path d="M15.564 8.345c.289.07.578.148.864.24l-.015-.011.13.05c.264.089.527.18.788.285a24.21 24.21 0 0 0 2.942.806c1.847.38 3.541-1.606 4.955-3.02C26.642 5.28 29.47 1.037 30.177.33c.707-.707 1.414 0 2.122.707l.707.707.707.708c.707.707 1.414 1.414.707 2.122-.707.707-4.95 3.535-6.364 4.949-1.414 1.414-3.401 3.107-3.021 4.955.198.965.442 1.815.654 2.48.357.765.632 1.544.824 2.335L15.564 8.345z" fill="#d99e82"/><path d="M33.713 2.451l-1.414-1.414-12.022 12.021 1.415 1.414 12.02-12.02z" fill="#ffcc4d"/><path d="M35 29.5a3.5 3.5 0 1 0-6.999-.001A3.5 3.5 0 0 0 35 29.5" fill="#ccd6dd"/></g></svg>