<svg xmlns="http://www.w3.org/2000/svg" viewBox="0 0 45 45"><defs><clipPath id="a"><path d="M0 36h36V0H0v36z"/></clipPath><clipPath id="b"><path d="M18 36C8.059 36 0 27.941 0 18S8.059 0 18 0s18 8.059 18 18-8.059 18-18 18z"/></clipPath></defs><g clip-path="url(#a)" transform="matrix(1.25 0 0 -1.25 0 45)"><path d="M36 18c0-9.941-8.059-18-18-18S0 8.059 0 18s8.059 18 18 18 18-8.059 18-18" fill="#e1e8ed"/></g><g clip-path="url(#b)" transform="matrix(1.25 0 0 -1.25 0 45)"><path d="M20 17.125c-7.583 0-13.074 1.717-16.317 5.103C.699 25.342.807 28.713.813 28.855c.024.552.493.972 1.042.957a1 1 0 0 0 .957-1.037c-.004-.118-.05-2.727 2.356-5.207 2.82-2.907 7.949-4.443 14.832-4.443a1 1 0 1 0 0-2M19.202 8.957C-.09 8.957-4.21 23.15-4.25 23.298a1 1 0 0 0 1.928.53c.162-.575 4.074-13.731 23.324-12.829.544.037 1.02-.401 1.045-.953a1 1 0 0 0-.953-1.045 42.227 42.227 0 0 0-1.892-.044" fill="#99aab5"/><path d="M20.063 2h-.02C.48 2-3.364 14.142-3.518 14.645c-.162.528.135 1.055.663 1.217a1.007 1.007 0 0 0 1.248-.676c.145-.459 3.665-10.949 21.69-11.303.552-.011.99-.409.98-.961-.011-.546-.456-.922-1-.922M20.002 17.684a1 1 0 0 0-.942 1.335c4.191 11.787 16.224 8.918 16.346 8.89a1 1 0 0 0-.484-1.942c-.425.104-10.401 2.437-13.978-7.618a1 1 0 0 0-.942-.665" fill="#99aab5"/><path d="M11.563 18.873a1.002 1.002 0 0 0-.949 1.317c5.853 17.514 21.39 13.065 21.55 13.017a.999.999 0 0 0 .668-1.243 1.003 1.003 0 0 0-1.244-.673c-.562.168-13.848 3.91-19.078-11.734a.999.999 0 0 0-.948-.684M16.563-4.688a1 1 0 0 0-.681 1.733c.31.29 7.537 7.231 3.465 20.6-.16.529 1.533 1.789 1.694 1.26l.251-.78c4.382-14.553-3.704-22.227-4.051-22.547a1 1 0 0 0-.678-.266" fill="#99aab5"/><path d="M23.063-4.563a1 1 0 0 0-.808 1.592c.1.134 9.724 13.572 1.917 27.86a1 1 0 0 0 1.756.96c8.427-15.425-1.955-29.86-2.06-30.003a1.001 1.001 0 0 0-.805-.409" fill="#99aab5"/><path d="M27.061-4.563a.999.999 0 0 0-.817 1.573c.119.172 11.892 17.29 4.29 29.137a1 1 0 0 0 1.683 1.08c3.468-5.404 3.803-12.563.97-20.704C31.078.47 28.01-3.95 27.88-4.136a.996.996 0 0 0-.82-.426M5.331 22.26a1 1 0 0 0-.95 1.313c4.257 12.914 17.15 14.224 17.28 14.236a1 1 0 0 0 .182-1.992c-.478-.045-11.724-1.228-15.562-12.87a1.002 1.002 0 0 0-.95-.687" fill="#99aab5"/></g></svg>