<svg xmlns="http://www.w3.org/2000/svg" viewBox="0 0 45 45"><defs><clipPath id="a"><path d="M0 36h36V0H0v36z"/></clipPath><clipPath id="b"><path d="M4 36s-4 0-4-4V4c0-4 4-4 4-4h28c4 0 4 4 4 4v28s0 4-4 4H4z"/></clipPath><clipPath id="c"><path d="M0 17.072V4c0-4 4-4 4-4h28c4 0 4 4 4 4v11h-8c-1.418 0-7.792 5-9 5-1 0-4-2-5-2-2 0-4.348 4-6 4-1.785 0-5.151-3.616-8-4.928"/></clipPath><clipPath id="d"><path d="M0 36h36V0H0v36z"/></clipPath></defs><g clip-path="url(#a)" transform="matrix(1.25 0 0 -1.25 0 45)"><path d="M36 4s0-4-4-4H4S0 0 0 4v28c0 4 4 4 4 4h28c4 0 4-4 4-4V4z" fill="#88c9f9"/></g><g clip-path="url(#b)" transform="matrix(1.25 0 0 -1.25 0 45)"><path d="M8 22c1.653 0 4-4 6-4 1 0 4 2 5 2 1.208 0 7.582-5 9-5h8c2.004 0 0-21 0-21H0s-7.454 21.096-1 22.709C2.018 17.463 6 22 8 22" fill="#f4900c"/></g><g clip-path="url(#c)" transform="matrix(1.25 0 0 -1.25 0 45)"><path d="M-1.958 15H36.04L37-5H-1l-.959 20z" fill="#ffd983"/></g><g clip-path="url(#d)" transform="matrix(1.25 0 0 -1.25 0 45)"><path d="M31.5 21.465c-1.398 0-2.5-1.135-2.5-2.535v-5.782c0-.687-1-1.24-1-1.55v10.6c0 2.1-1.9 3.802-4 3.802s-4-1.702-4-3.802V9.028c-1 .3-1 .868-1 1.586v3.247c0 1.4-1.101 2.535-2.5 2.535S14 15.261 14 13.861V9.425c0-1.399.94-2.455 1.971-3.048C16.758 5.922 19 5.363 20 5.33V3c0-2 8-2 8 0v4.873c1 .075 3.185.603 3.937 1.038 1.03.594 2.063 1.65 2.063 3.05v6.97c0 1.4-1.1 2.534-2.5 2.534" fill="#77b255"/><path d="M20.604 20.198a.633.633 0 1 0-1.267-.001.633.633 0 0 0 1.267.001M27.574 24.1a.634.634 0 1 0-1.267-.002.634.634 0 0 0 1.267.001M26.307 18.297a.634.634 0 1 0-1.268-.001.634.634 0 0 0 1.268 0M21.871 13.861a.634.634 0 1 0-1.267 0 .634.634 0 0 0 1.267 0M25.673 11.327a.633.633 0 1 0-1.268 0 .635.635 0 0 0 1.268 0M21.237 7.525a.633.633 0 1 0-1.266-.002.633.633 0 0 0 1.266.002M16.169 6.892A.634.634 0 1 0 14.9 6.89a.634.634 0 0 0 1.268 0M18.703 11.327a.633.633 0 1 0-1.268 0 .634.634 0 0 0 1.268 0M14.267 12.595a.633.633 0 1 0-1.265-.003.633.633 0 0 0 1.265.003M34.544 18.93a.633.633 0 1 0-1.268 0 .634.634 0 0 0 1.268 0M30.742 17.03a.633.633 0 1 0-1.266-.002.633.633 0 0 0 1.266.002M33.276 13.861a.633.633 0 1 0-1.266-.001.633.633 0 0 0 1.266.001M31.376 8.792a.633.633 0 1 0-.634.634.633.633 0 0 0 .634-.634M26.94 4.99a.634.634 0 1 0-1.267 0 .634.634 0 0 0 1.267 0" fill="#3e721d"/><path d="M17 29a5 5 0 0 0-5-5 5 5 0 0 0-5 5 5 5 0 0 0 5 5 5 5 0 0 0 5-5" fill="#ffcc4d"/><path d="M16 29a4 4 0 1 0-8 0 4 4 0 0 0 8 0" fill="#ffac33"/></g></svg>