<svg xmlns="http://www.w3.org/2000/svg" viewBox="0 0 45 45"><defs><clipPath id="a"><path d="M0 36h36V0H0v36z"/></clipPath></defs><g clip-path="url(#a)" transform="matrix(1.25 0 0 -1.25 0 45)"><path d="M36 4s0-4-4-4H4S0 0 0 4v28c0 4 4 4 4 4h28c4 0 4-4 4-4V4z" fill="#88c9f9"/><path d="M0 4c0-4 4-4 4-4h28c4 0 4 4 4 4v17H0V4z" fill="#77b255"/><path d="M21 26l7 7 7-7v-9H21v9z" fill="#ffcc4d"/><path d="M22 17h-1v9h1v-9zM34 17h1v9h-1v-9z" fill="#ffac33"/><path d="M35 25a.997.997 0 0 0-.707.293L28 31.586l-6.293-6.293a.999.999 0 1 0-1.414 1.414l7 7a.999.999 0 0 0 1.414 0l7-7A.999.999 0 0 0 35 25" fill="#292f33"/><path d="M30 17h-4v7h4v-7z" fill="#662113"/><path d="M25 22h-2v2h2v-2zM33 22h-2v2h2v-2zM25 19h-2v2h2v-2zM33 19h-2v2h2v-2z" fill="#3b88c3"/><path d="M2 21l8 8 8-8V10H2v11z" fill="#ffcc4d"/><path d="M3 10H2v11h1V10zM17 10h1v11h-1V10z" fill="#ffac33"/><path d="M19 19a.997.997 0 0 0-.707.293L10 27.586l-8.293-8.293a.999.999 0 1 0-1.414 1.414l9 9a.999.999 0 0 0 1.414 0l9-9A.999.999 0 0 0 19 19" fill="#292f33"/><path d="M12 10H8v9h4v-9z" fill="#662113"/><path d="M7 16H4v3h3v-3zM16 16h-3v3h3v-3zM7 12H4v3h3v-3zM16 12h-3v3h3v-3z" fill="#3b88c3"/><path d="M10 17l10 10 10-10V3H10v14z" fill="#ffe8b6"/><path d="M11 3h-1v14h1V3zM29 3h1v14h-1V3z" fill="#ffcc4d"/><path d="M31 15a.997.997 0 0 0-.707.293L20 25.586 9.707 15.293a.999.999 0 1 0-1.414 1.414l11 11a.999.999 0 0 0 1.414 0l11-11A.999.999 0 0 0 31 15" fill="#66757f"/><path d="M22 3h-4v6h4V3z" fill="#c1694f"/><path d="M16 11h-4v4h4v-4zM28 11h-4v4h4v-4zM22 11h-4v4h4v-4zM16 5h-4v4h4V5zM28 5h-4v4h4V5z" fill="#55acee"/></g></svg>