<svg xmlns="http://www.w3.org/2000/svg" viewBox="0 0 45 45"><defs><clipPath id="a"><path d="M4 36a4 4 0 0 1-4-4V4a4 4 0 0 1 4-4h28a4 4 0 0 1 4 4v28a4 4 0 0 1-4 4H4z"/></clipPath><clipPath id="b"><path d="M0 36h36V0H0v36z"/></clipPath><clipPath id="c"><path d="M2.948 9.504l-.004.859.007-1.116c.027-2.774 6.76-5.183 15.036-5.259 8.277-.074 14.962 2.264 14.935 5.038 0 .02-.01.207-.011.207l-.009 1.826-.077 7.82-29.972.27.095-9.645z"/></clipPath><clipPath id="d"><path d="M0 36h36V0H0v36z"/></clipPath></defs><g clip-path="url(#a)" transform="matrix(1.25 0 0 -1.25 0 45)"><path d="M38 21H-1V-3h39v24z" fill="#78b159"/><path d="M39 21H-2v17h41V21z" fill="#88c9f9"/></g><g clip-path="url(#b)" transform="matrix(1.25 0 0 -1.25 0 45)"><path d="M5.708 28.813c1.314-.24 3.274-.98 3.776-1.267.503-.287.193-.43-.285-.645-.478-.215-3.06-.908-3.442-.98-.383-.072-.048 2.892-.048 2.892" fill="#dd2e44"/><path d="M5.5 18v11" fill="#fff" stroke="#66757f" stroke-linecap="round" stroke-linejoin="round" stroke-miterlimit="10"/><path d="M13.709 30.813c1.314-.24 3.274-.98 3.776-1.267.502-.287.192-.43-.286-.645-.478-.215-3.06-.908-3.442-.98-.383-.072-.048 2.892-.048 2.892" fill="#269"/><path d="M13.5 20v11" fill="#fff" stroke="#66757f" stroke-linecap="round" stroke-linejoin="round" stroke-miterlimit="10"/><path d="M22.709 30.813c1.314-.24 3.273-.98 3.775-1.267.502-.287.192-.43-.286-.645-.477-.215-3.059-.908-3.442-.98-.383-.072-.047 2.892-.047 2.892" fill="#dd2e44"/><path d="M22.5 20v11" fill="#fff" stroke="#66757f" stroke-linecap="round" stroke-linejoin="round" stroke-miterlimit="10"/><path d="M30.709 28.813c1.314-.24 3.273-.98 3.775-1.267.502-.287.192-.43-.286-.645-.477-.215-3.059-.908-3.442-.98-.383-.072-.047 2.892-.047 2.892" fill="#269"/><path d="M30.5 18v11" fill="#fff" stroke="#66757f" stroke-linecap="round" stroke-linejoin="round" stroke-miterlimit="10"/><path d="M32.825 18.879l-29.972.27.095-9.645-.009 1.826.011-2.083c.028-2.774 6.761-5.183 15.037-5.26 8.277-.073 14.962 2.265 14.935 5.039l-.01.207-.01 1.827-.077 7.819z" fill="#ccd6dd"/></g><g clip-path="url(#c)" transform="matrix(1.25 0 0 -1.25 0 45)"><path d="M21.958 7.593c.09-9.133-1.744-4.551-3.952-4.53-2.206.019-3.887-10.923-4.041 4.602-.036 3.653 1.744 4.55 3.951 4.53 2.207-.02 4.006-.95 4.042-4.602M8.997 2.97l3.006-.94-.072 7.306s.018-1.827 0 0c-.018 1.826-3.024 2.767-3.006.94.018-1.826 0 0 0 0l.072-7.306zM26.99 1.895l-2.998.027-.072 7.306s.017-1.828 0 0c-.019 1.825 2.97 2.711 2.988.885.017-1.826 0 0 0 0l.081-8.219zM6.99 3.901l-.063 6.393-.01.913c-.017 1.826-2.024 2.757-2.006.931.017-1.827 0 0 0 0l.072-7.305 2.007-.932zM28.979 2.79l-.072 7.306-.01.913c-.018 1.826 1.972 2.722 1.989.895.019-1.827 0 0 0 0l.09-9.132-1.997.018z" fill="#66757f"/></g><g clip-path="url(#d)" transform="matrix(1.25 0 0 -1.25 0 45)"><path d="M32.825 18.822c.027-2.774-6.659-4.963-14.936-4.888-8.276.075-15.008 2.385-15.036 5.158-.027 2.774 6.66 4.962 14.937 4.888 8.276-.075 15.008-2.385 15.035-5.158" fill="#e9f0f4"/><path d="M30.646 18.18c.024-2.508-5.686-4.49-12.755-4.427-7.07.065-12.82 2.15-12.845 4.659-.025 2.509 5.686 4.49 12.756 4.427 7.069-.064 12.82-2.15 12.845-4.658" fill="#744eaa"/><path d="M25.86 16.145c.014-1.48-3.554-2.648-7.967-2.607-4.414.04-8.005 1.272-8.019 2.752-.015 1.48 3.551 2.645 7.966 2.606 4.414-.04 8.004-1.272 8.02-2.75" fill="#e9f0f4"/><path d="M24.925 15.959c.01-1.107-3.126-1.975-7.005-1.939-3.88.035-7.034.96-7.045 2.066-.011 1.105 3.126 1.974 7.005 1.938 3.879-.034 7.033-.96 7.045-2.065" fill="#5c913b"/><path d="M12.554 23.085l2.36-4.958.81.135-1.112 5.033-2.058-.21zM23.669 22.985l-2.262-4.917-.813.15 1.012 5.014 2.063-.247zM11.61 17.444c-.346.374-4.411 4.177-4.411 4.177l-1.49-.9 5.28-3.614.622.337zM24.255 17.33c.34.367 4.33 4.098 4.33 4.098l1.508-.927-5.21-3.52-.628.35z" fill="#e9f0f4"/></g></svg>