<svg xmlns="http://www.w3.org/2000/svg" viewBox="0 0 45 45"><defs><clipPath id="a"><path d="M0 36h36V0H0v36z"/></clipPath><clipPath id="b"><path d="M13 8H0V4c0-.959.352-1.827.914-2.517A3.976 3.976 0 0 1 4 0h28a4 4 0 0 1 4 4v4H13z"/></clipPath></defs><g clip-path="url(#a)" transform="matrix(1.25 0 0 -1.25 0 45)"><path d="M32 36H4a4 4 0 0 1-4-4V7h36v25a4 4 0 0 1-4 4" fill="#88c9f9"/><path d="M13 8C12.39 6.78 8.447 3.701.914 1.483A3.976 3.976 0 0 1 4 0h28a4 4 0 0 1 4 4v4H13z" fill="#ffac33"/><path d="M13 8H0V4c0-.959.352-1.827.914-2.517C8.447 3.701 12.39 6.78 13 8" fill="#3b88c3"/><path d="M18.974 3.85a1.284 1.284 0 0 0-2.509.545l5.083 25.985a1.284 1.284 0 1 0 2.508-.544L18.974 3.85z" fill="#66757f"/><path d="M22.712 29.69c-7.622 1.653-14.857-1.874-16.16-7.878 0 0-.363-1.673.473-1.854.836-.182 2.873 1.129 2.873 1.129l20.908-4.54s1.309-2.036 2.146-2.217c.837-.182 1.199 1.491 1.199 1.491 1.304 6.005-3.818 12.214-11.44 13.868" fill="#dd2e44"/><path d="M22.712 29.69c-5.774 1.252-11.511-2.6-12.814-8.604 0 0-.364-1.672 1.309-2.035 1.673-.363 4.545.765 4.545.765l9.199-1.997s2.147-2.217 3.82-2.581c1.673-.362 2.035 1.31 2.035 1.31 1.304 6.004-2.321 11.888-8.094 13.141" fill="#fff"/><path d="M22.712 29.69c-3.003.65-5.657-3.87-6.96-9.875 0 0 2.146-2.218 3.818-2.58l.837-.182c1.673-.362 4.544.766 4.544.766 1.304 6.004.764 11.219-2.24 11.87" fill="#dd2e44"/></g><g clip-path="url(#b)" transform="matrix(1.25 0 0 -1.25 0 45)"><path d="M15.219 8s-.75-.906-2.22-.906C12.23 7.094 11.75 6 14 6c2.437 0 1.126-1-1-1-4.311 0-1.593-2-5-2H7C5.25 3 4.085 2 6 2c3.668 0-.27-2-3-2H2c-3.04 0-3.75 3.08 0 3.08 1.907 0 2.626 1.534 5 1.534C9.126 4.614 9.887 7 11 7c1.094 0 2 1 2 1h2.22z" fill="#f2f9ff"/></g></svg>