<svg xmlns="http://www.w3.org/2000/svg" viewBox="0 0 45 45"><defs><clipPath id="a"><path d="M0 36h36V0H0v36z"/></clipPath></defs><g clip-path="url(#a)" transform="matrix(1.25 0 0 -1.25 0 45)"><path d="M4 15c2.409 0 2-2 2-3s0-3 2-3 3.464 2.465 7 6l21 21v-7S22.5 14.5 18 10 11 3 8 3c-3.513 0-7 2.605-7 7 0 4 2 5 3 5" fill="#c1694f"/><path d="M33 6.5a6.5 6.5 0 1 0-13 0 6.5 6.5 0 0 0 13 0" fill="#dd2e44"/><path d="M25.01 17.288C30.254 22.828 36 29 36 29v7L25.01 25.01v-7.722zM22 14.122l1 1.05V23l-1-1v-7.878z" fill="#ffac33"/></g></svg>