<svg xmlns="http://www.w3.org/2000/svg" viewBox="0 0 45 45"><defs><clipPath id="a"><path d="M4 36a4 4 0 0 1-4-4V4a4 4 0 0 1 4-4h28a4 4 0 0 1 4 4v28a4 4 0 0 1-4 4H4z"/></clipPath><clipPath id="b"><path d="M0 36h36V0H0v36z"/></clipPath></defs><g clip-path="url(#a)" transform="matrix(1.25 0 0 -1.25 0 45)"><path d="M38 10H-1V-3h39v13z" fill="#3b88c3"/><path d="M39 8H-2v30h41V8z" fill="#88c9f9"/></g><g clip-path="url(#b)" transform="matrix(1.25 0 0 -1.25 0 45)"><path d="M7 7c0 1 1 5 11 5 12 0 15-4 15-5s0-2-14-2C7 5 7 6 7 7" fill="#f4900c"/><path d="M24.617 26.638s-2.449 2.24-5.929 2.859c-3.482.62-5.529-.858-5.529-.858s2.582 4.857 6.934 4.082c5.21-.928 4.524-6.083 4.524-6.083" fill="#3e721d"/><path d="M23.977 27.511s1.823 2.773 5.045 4.23c3.222 1.457 5.386.462 5.386.462s-3.073 4.19-7.1 2.367c-4.821-2.18-3.331-7.059-3.331-7.059" fill="#3e721d"/><path d="M21 11.444c0-.35.25-1.007 2-1.444 2.736-.684 3 .444 3 .444s1 3 1 9c0 5.416-2.25 9.417-2.25 9.417l-2.583-.333s1.333-2.75 1.416-8.168c.062-4-2.583-8.565-2.583-8.916" fill="#662113"/><path d="M15.725 16.229s-3.107 5.537.387 10.016c4.079 5.228 9.207 2.877 9.207 2.877s-3.26-2.601-5.717-5.557c-2.802-3.371-3.877-7.336-3.877-7.336" fill="#5c913b"/><path d="M34.645 20.986s1.42 6.059-3.599 8.709C26 32.362 22.813 28.37 22.813 28.37s3.313-.094 6.532-1.893c3.667-2.051 5.3-5.491 5.3-5.491" fill="#5c913b"/><path d="M12 29a5 5 0 0 0-5-5 5 5 0 0 0-5 5 5 5 0 0 0 5 5 5 5 0 0 0 5-5" fill="#ffcc4d"/><path d="M11 29a4 4 0 1 0-8 0 4 4 0 0 0 8 0" fill="#ffac33"/></g></svg>