<svg xmlns="http://www.w3.org/2000/svg" viewBox="0 0 45 45"><defs><clipPath id="a"><path d="M0 36h36V0H0v36z"/></clipPath></defs><path d="M36.25 36.25H8.75v-22.5h27.5v22.5z" fill="#292f33"/><g clip-path="url(#a)" transform="matrix(1.25 0 0 -1.25 0 45)"><path d="M8 7c0-1.104-.597-2-1.333-2H5.333C4.597 5 4 5.896 4 7v18c0 1.105.597 2 1.333 2h1.334C7.403 27 8 26.105 8 25V7zM32 7c0-1.104-.597-2-1.333-2h-1.334C28.597 5 28 5.896 28 7v18c0 1.105.597 2 1.333 2h1.334c.736 0 1.333-.895 1.333-2V7zM16 7c0-1.104-.597-2-1.333-2h-1.334C12.597 5 12 5.896 12 7v18c0 1.105.597 2 1.333 2h1.334c.736 0 1.333-.895 1.333-2V7zM24 7c0-1.104-.598-2-1.334-2h-1.332C20.598 5 20 5.896 20 7v18c0 1.105.598 2 1.334 2h1.332c.736 0 1.334-.895 1.334-2V7z" fill="#ccd6dd"/><path d="M33 6a2 2 0 0 0-2-2H5a2 2 0 0 0 0 4h26a2 2 0 0 0 2-2" fill="#9aaab4"/><path d="M35 4a2 2 0 0 0-2-2H3a2 2 0 0 0 0 4h30a2 2 0 0 0 2-2" fill="#ccd6dd"/><path d="M36 2.5A1.5 1.5 0 0 0 34.5 1h-33a1.5 1.5 0 1 0 0 3h33A1.5 1.5 0 0 0 36 2.5" fill="#e1e8ed"/><path d="M33 26c0 1.104-.956 2-2.133 2H5c-1.179 0-2-.896-2-2 0-.751.386-1.398 1-1.74V23h4v1h4v-1h4v1h4v-1h4v1h4v-1h4v1.312c.599.354 1 .975 1 1.688" fill="#9aaab4"/><path d="M2 27.556C2 28.587 3.012 29 3.012 29l14.904 7 15.047-7S34 28.768 34 27.55V27H2v.556z" fill="#ccd6dd"/><path d="M18 33.459S7.681 28.593 6.65 28.155c-1.031-.437-.686-1.155.001-1.155h22.646c1.062 0 .812.812-.031 1.25C28.422 28.688 18 33.459 18 33.459" fill="#9aaab4"/><path d="M34 27a1 1 0 0 0-1-1H3a1 1 0 0 0 0 2l30-.006c.553 0 1-.442 1-.994" fill="#ccd6dd"/></g></svg>