<svg xmlns="http://www.w3.org/2000/svg" viewBox="0 0 45 45"><defs><clipPath id="a"><path d="M4 36a4 4 0 0 1-4-4V4a4 4 0 0 1 4-4h28a4 4 0 0 1 4 4v28a4 4 0 0 1-4 4H4z"/></clipPath><clipPath id="b"><path d="M0 36h36V0H0v36z"/></clipPath></defs><g clip-path="url(#a)" transform="matrix(1.25 0 0 -1.25 0 45)"><path d="M38 10H-1V-3h39v13z" fill="#78b159"/><path d="M39 8H-2v30h41V8z" fill="#88c9f9"/></g><g clip-path="url(#b)" transform="matrix(1.25 0 0 -1.25 0 45)"><path d="M29.1 8.443c0-1.918-.968-2.594-2.162-2.594s-2.162.676-2.162 2.594l.54 7.816c0 1.917.428 1.736 1.622 1.736 1.194 0 1.623.181 1.623-1.736l.54-7.816z" fill="#662113"/><path d="M35.589 22.678c0-6.405-3.872-8.698-8.651-8.698-4.778 0-8.651 2.293-8.651 8.698S23.152 35 26.937 35c3.786 0 8.652-5.917 8.652-12.322" fill="#5c913b"/><path d="M21.53 19.78c0 .4-.482.723-1.08.723-.598 0-1.083-.324-1.083-.724 0-.4.485-.725 1.082-.725.6 0 1.081.325 1.081.725M34.507 19.78c0 .4-.483.723-1.081.723-.597 0-1.082-.324-1.082-.724 0-.4.485-.725 1.082-.725.598 0 1.08.325 1.08.725M23.694 16.88c0 .402-.485.725-1.082.725-.598 0-1.082-.323-1.082-.724 0-.4.484-.725 1.082-.725.597 0 1.082.325 1.082.725M25.855 19.055c0 .4-.483.725-1.08.725-.597 0-1.08-.325-1.08-.725 0-.4.483-.726 1.08-.726.598 0 1.08.326 1.08.726M23.694 23.404c0 .4-.485.724-1.082.724-.598 0-1.082-.324-1.082-.724 0-.401.484-.726 1.082-.726.597 0 1.082.325 1.082.726M22.072 26.302c0 .401-.485.725-1.082.725-.597 0-1.08-.324-1.08-.725 0-.4.483-.724 1.08-.724.597 0 1.082.324 1.082.724M33.967 26.302c0 .401-.484.725-1.082.725-.597 0-1.08-.324-1.08-.725 0-.4.483-.724 1.08-.724.598 0 1.082.324 1.082.724M25.855 27.752c0 .4-.483.724-1.08.724-.597 0-1.08-.324-1.08-.724 0-.402.483-.726 1.08-.726.598 0 1.08.324 1.08.726M30.183 27.752c0 .4-.484.724-1.082.724-.598 0-1.082-.324-1.082-.724 0-.402.484-.726 1.082-.726.598 0 1.082.324 1.082.726M32.344 23.404c0 .4-.483.724-1.08.724-.598 0-1.081-.324-1.081-.724 0-.401.483-.726 1.08-.726.598 0 1.08.325 1.08.726M28.019 22.678c0 .4-.483.726-1.081.726-.597 0-1.082-.326-1.082-.726 0-.4.485-.725 1.082-.725.598 0 1.08.324 1.08.725M30.183 19.055c0 .4-.484.725-1.082.725-.598 0-1.082-.325-1.082-.725 0-.4.484-.726 1.082-.726.598 0 1.082.326 1.082.726M28.019 16.156c0 .4-.483.725-1.081.725-.597 0-1.082-.325-1.082-.725 0-.402.485-.725 1.082-.725.598 0 1.08.323 1.08.725M32.344 16.88c0 .402-.483.725-1.08.725-.598 0-1.081-.323-1.081-.724 0-.4.483-.725 1.08-.725.598 0 1.08.325 1.08.725" fill="#3e721d"/><path d="M14.029 3c-.424 0-.802.267-.944.666L8.073 17.699a.964.964 0 0 0 .124.895.988.988 0 0 0 .82.406h12.029c.402 0 .764-.22.922-.589l6.014-14.023a.999.999 0 0 0-.084-.943A1.002 1.002 0 0 0 27.06 3H14.029z" fill="#f4900c"/><path d="M3.002 3a1.005 1.005 0 0 0-.92 1.398l6.017 14.041a1.002 1.002 0 0 0 1.843 0L15.96 4.398c.132-.31.1-.666-.085-.948-.186-.28-.5-.45-.837-.45H3.002z" fill="#ffcc4d"/><path d="M9.017 18.036L7.012 3h4.01L9.016 18.036z" fill="#292f33"/><path d="M13 30c-.018 0-.034-.006-.052-.006A2.5 2.5 0 0 1 10.5 33a2.492 2.492 0 0 1-2.11-1.17 2.48 2.48 0 0 1-.89.17 2.491 2.491 0 0 1-2.469-2.189 2.441 2.441 0 0 1-.906.189 2.5 2.5 0 1 1 0-5H13a2.5 2.5 0 1 1 0 5" fill="#fff"/></g></svg>