<svg xmlns="http://www.w3.org/2000/svg" viewBox="0 0 45 45"><defs><clipPath id="a"><path d="M0 36h36V0H0v36z"/></clipPath><clipPath id="b"><path d="M4 36s-4 0-4-4V4c0-4 4-4 4-4h28c4 0 4 4 4 4v28s0 4-4 4H4z"/></clipPath><clipPath id="c"><path d="M16 12C9.435 8.249 4.334 3.326.387 2.108 1.39 0 4 0 4 0h28c4 0 4 4 4 4v12c-3 2-5 6-7 6s-6-6-13-10"/></clipPath><clipPath id="d"><path d="M4 36s-4 0-4-4V4c0-4 4-4 4-4h28c4 0 4 4 4 4v28s0 4-4 4H4z"/></clipPath><clipPath id="e"><path d="M0 15V4c0-4 4-4 4-4h28c4 0 4 4 4 4v3s-7 4-13 10c-4.491 4.49-8 10-10 10S4 18 0 15"/></clipPath></defs><g clip-path="url(#a)" transform="matrix(1.25 0 0 -1.25 0 45)"><path d="M36 4s0-4-4-4H4S0 0 0 4v28c0 4 4 4 4 4h28c4 0 4-4 4-4V4z" fill="#88c9f9"/></g><g clip-path="url(#b)" transform="matrix(1.25 0 0 -1.25 0 45)"><path d="M16 12c7 4 11 10 13 10s4-4 7-6c1.667-1.111 0-20 0-20H0S-6.454.387 0 2c4 1 9.219 6.125 16 10" fill="#4b545c"/></g><g clip-path="url(#c)" transform="matrix(1.25 0 0 -1.25 0 45)"><path d="M30 24l7-5.833s-1.167.583-2.333.583C33.5 18.75 33.5 17 32.917 17c-.584 0-1.167 1.167-2.334 1.167-.807 0-.8-.584-1.75-.584-.583 0-1.166.584-1.75.584-.583 0-1.166-.459-1.75-.459C24.75 17.708 24.167 19 23 19h-3v.333L27.083 24H30z" fill="#fff"/></g><g clip-path="url(#d)" transform="matrix(1.25 0 0 -1.25 0 45)"><path d="M0 15c4 3 11 12 13 12s5.51-5.51 10-10c6-6 13-10 13-10V-4H0s-1.6 17.8 0 19" fill="#292f33"/></g><g clip-path="url(#e)" transform="matrix(1.25 0 0 -1.25 0 45)"><path d="M12.234 27L3 19.511s1.54.872 3.078.872c1.54 0 1.54-2.257 2.308-2.257.77 0 1.54 1.564 3.078 1.564 1.065 0 1.056-.756 2.31-.756.77 0 1.538.776 2.308.776.77 0 1.538-1.01 2.308-1.01.77 0 1.538 1.3 3.078 1.3H25c1 0 0 1.255 0 1.255L16.082 27h-3.848z" fill="#fff"/><path d="M-1.25 6S1.313 4.5 3 4c1.688-.5 4.5 2 5 2 1 0 4-2 5-2 2 0 4 1 5 1s5-2 6-2c.5 0 2.654 2 4 2 1 0 3.5-1 4-1 1 0 5 .749 5 .833C37 4.917 36-2 36-2H-1l-.25 8z" fill="#5c913b"/></g></svg>