<svg xmlns="http://www.w3.org/2000/svg" viewBox="0 0 45 45"><defs><clipPath id="a"><path d="M0 36h36V0H0v36z"/></clipPath><clipPath id="b"><path d="M4 36s-4 0-4-4V4c0-4 4-4 4-4h28c4 0 4 4 4 4v28s0 4-4 4H4z"/></clipPath><clipPath id="c"><path d="M0 36h36V0H0v36z"/></clipPath></defs><g clip-path="url(#a)" transform="matrix(1.25 0 0 -1.25 0 45)"><path d="M36 4s0-4-4-4H4S0 0 0 4v28c0 4 4 4 4 4h28c4 0 4-4 4-4V4z" fill="#88c9f9"/></g><g clip-path="url(#b)" transform="matrix(1.25 0 0 -1.25 0 45)"><path d="M9 11c7 5 6 14 11 16 2.076.831 10 .75 17-.25C45.4 25.55 36 7 36 7V-4H0S7.373 9.838 9 11" fill="#66757f"/><path d="M18 13c2.621 2.622 3.21 9.21 6 12 1 1 2.497.498 3 1 1 1 1 2 2 3 1.581 1.581 6 2 7 2 2.003 0 0-35 0-35H0S-6.454.387 0 2c4 1 12.477 5.477 18 11" fill="#292f33"/><path d="M0 13h36V-2H-1l1 15z" fill="#5c913b"/></g><g clip-path="url(#c)" transform="matrix(1.25 0 0 -1.25 0 45)"><path d="M28 13c0-1-10-1-10-3s4-2 4-3S8.083 4 8 0h17c0 2 5 3 5 6s-7 3-7 4 7 2 7 3h-2z" fill="#55acee"/><path d="M28 13v5c0 7 2 8 2 8h1s-1-1-1-7v-6h-2z" fill="#269"/><path d="M11.53 7.497C11.53 6.394 10.637 6 9.534 6c-1.1 0-1.995.394-1.995 1.497l.5 4.49c0 1.101.394.996 1.495.996 1.103 0 1.497.105 1.497-.997l.5-4.489z" fill="#662113"/><path d="M16.222 10.342c-3.473 2.975-4.88 7.236-6.687 7.236-1.808 0-3.214-4.261-6.687-7.236-1.46-1.251-.765-1.975 1.236-1.83 1.784.129 3.452.534 5.45.534 2 0 3.668-.405 5.452-.534 2-.145 2.696.579 1.236 1.83" fill="#3e721d"/><path d="M15.094 11.52c-2.67 2.448-4.17 5.954-5.56 5.954-1.388 0-2.89-3.506-5.558-5.953-2.121-1.944 2.78-2.382 5.559 0 2.778-2.382 7.68-1.944 5.559 0" fill="#3e721d"/><path d="M15.094 13.503c-2.67 2.287-4.17 5.562-5.56 5.562-1.388 0-2.89-3.275-5.558-5.562-2.121-1.816 2.78-2.224 5.559 0 2.778-2.224 7.68-1.816 5.559 0" fill="#3e721d"/><path d="M13.875 15.127c-2.084 1.785-3.255 4.342-4.34 4.342s-2.257-2.557-4.34-4.342c-1.656-1.418 2.17-1.736 4.34 0 2.169-1.736 5.995-1.418 4.34 0" fill="#3e721d"/><path d="M13.875 16.612c-2.084 1.786-3.255 4.342-4.34 4.342s-2.257-2.556-4.34-4.342c-1.656-1.418 2.17-1.736 4.34 0 2.169-1.736 5.995-1.418 4.34 0" fill="#3e721d"/><path d="M13.037 17.932c-1.68 1.441-2.626 3.503-3.502 3.503-.875 0-1.82-2.062-3.503-3.503-1.336-1.145 1.751-1.402 3.503 0 1.751-1.402 4.84-1.145 3.502 0" fill="#3e721d"/><path d="M13.037 19.05c-1.68 1.441-2.626 3.504-3.502 3.504-.875 0-1.82-2.063-3.503-3.504-1.336-1.145 1.751-1.402 3.503 0 1.751-1.402 4.84-1.145 3.502 0" fill="#3e721d"/><path d="M12.2 20.696c-1.28 1.097-1.999 2.667-2.666 2.667-.666 0-1.385-1.57-2.665-2.667-1.016-.871 1.332-1.066 2.665 0 1.333-1.066 3.683-.871 2.666 0" fill="#3e721d"/><path d="M12.2 21.293c-1.28 1.096-1.999 2.666-2.666 2.666-.666 0-1.385-1.57-2.665-2.666-1.016-.872 1.332-1.067 2.665 0 1.333-1.067 3.683-.872 2.666 0" fill="#3e721d"/><path d="M11.313 32.322c-.274 0-.539-.042-.787-.12a2.162 2.162 0 0 1-4.136-.187c-.25.19-.558.307-.898.307-.827 0-1.497-.67-1.497-1.497 0-.201.041-.391.114-.566a1.66 1.66 0 0 1-.446.067 1.663 1.663 0 1 1 0-3.326h7.65a2.662 2.662 0 0 1 0 5.322" fill="#f5f8fa"/></g></svg>