<svg xmlns="http://www.w3.org/2000/svg" viewBox="0 0 45 45"><defs><clipPath id="a"><path d="M0 36h36V0H0v36z"/></clipPath></defs><g clip-path="url(#a)" transform="matrix(1.25 0 0 -1.25 0 45)"><path d="M29 2a2 2 0 0 0-2-2H9a2 2 0 0 0-2 2v32a2 2 0 0 0 2 2h18a2 2 0 0 0 2-2V2z" fill="#292f33"/><path d="M6.699 4H29.3C33.383 7.3 35 12.342 35 18c0 5.658-1.616 10.7-5.698 14H6.698C2.616 28.7 1 23.658 1 18.001 1 12.342 2.616 7.3 6.699 4" fill="#be1931"/><path d="M1.3 14c.109-.682.246-1.35.416-2h32.568c.17.65.307 1.318.415 2H1.3zM1.072 16h33.855c.048.657.073 1.324.073 2H1c0-.676.024-1.343.072-2M32.677 8c.363.64.684 1.306.956 2H2.367c.272-.694.593-1.36.955-2h29.355zM2.366 26a17.77 17.77 0 0 1-.65-2h32.568c-.18.687-.398 1.354-.65 2H2.365zM1.3 22a23.92 23.92 0 0 1-.228-2h33.856a23.507 23.507 0 0 1-.23 2H1.302zM31.314 6H4.685a13.847 13.847 0 0 1 2.013-2H29.3a13.904 13.904 0 0 1 2.014 2M4.685 30a14.166 14.166 0 0 1-1.363-2h29.356a14.159 14.159 0 0 1-1.362 2H4.685z" fill="#dd2e44"/></g></svg>