<svg xmlns="http://www.w3.org/2000/svg" viewBox="0 0 45 45"><defs><clipPath id="a"><path d="M0 36h36V0H0v36z"/></clipPath></defs><g clip-path="url(#a)" transform="matrix(1.25 0 0 -1.25 0 45)"><path d="M5.942 3c-.138 4.657-.507 8-.942 8-.435 0-.804-3.343-.942-8h1.884z" fill="#ffcc4d"/><path d="M16 15.577C16 10.532 13.762 9 11 9c-2.761 0-5 1.532-5 6.577C6 20.621 10 28 11 28s5-7.379 5-12.423" fill="#a6d388"/><path d="M10 16.269c0-5.574-2.238-7.27-5-7.27-2.761 0-5 1.696-5 7.27 0 5.577 4 13.73 5 13.73s5-8.153 5-13.73" fill="#77b255"/><path d="M8 20l13 13 13-13V4H8v16z" fill="#ffe8b6"/><path d="M22 4h-1v16h1V4z" fill="#fff"/><path d="M9 4H8v16h1V4zM33 4h1v16h-1V4z" fill="#ffcc4d"/><path d="M34 19a.997.997 0 0 0-.707.293L21 31.586 8.707 19.293a.999.999 0 1 0-1.414 1.414l13 13a.999.999 0 0 0 1.414 0l13-13A.999.999 0 0 0 34 19" fill="#66757f"/><path d="M21 19a.999.999 0 0 0-.707 1.707l6.5 6.5a.999.999 0 1 0 1.414-1.414l-6.5-6.5A.997.997 0 0 0 21 19" fill="#66757f"/><path d="M17 4h-4v6h4V4z" fill="#c1694f"/><path d="M29 6h-3v4h3V6z" fill="#55acee"/><path d="M25 6h2v4h-2V6zM30 6h-2v4h2V6zM17 15h-4v4h4v-4zM30 15h-5v4h5v-4z" fill="#55acee"/><path d="M36 2a2 2 0 0 0-2-2H2a2 2 0 0 0 0 4h32a2 2 0 0 0 2-2" fill="#5c913b"/><path d="M17 0h-4v4h4V0z" fill="#fff"/></g></svg>