<svg xmlns="http://www.w3.org/2000/svg" viewBox="0 0 45 45"><defs><clipPath id="a"><path d="M0 36h36V0H0v36z"/></clipPath></defs><g clip-path="url(#a)" transform="matrix(1.25 0 0 -1.25 0 45)"><path d="M36 2a2 2 0 0 0-2-2H2a2 2 0 0 0-2 2v19a2 2 0 0 0 2 2h32a2 2 0 0 0 2-2V2z" fill="#ffcc4d"/><path d="M34 23H2a2 2 0 0 1-2-2h36a2 2 0 0 1-2 2" fill="#6d6e71"/><path d="M34 8H2v4h32V8zM34 14H2v4h32v-4zM34 2H2v4h32V2z" fill="#3b88c3"/><path d="M30 1h-2v18h2V1z" fill="#ffcc4d"/><path d="M22 36H6a2 2 0 0 1-2-2V0h20v34a2 2 0 0 1-2 2" fill="#ffe8b6"/><path d="M22 36H6a2 2 0 0 1-2-2h20a2 2 0 0 1-2 2" fill="#808285"/><path d="M22 14H6v4h16v-4zM22 8H6v4h16V8zM22 2H6v4h16V2z" fill="#55acee"/><path d="M12 0h-2v29h2V0zM18 0h-2v29h2V0z" fill="#ffe8b6"/><path d="M16 0h-4v6h4V0z" fill="#269"/><path d="M20 27a6 6 0 1 0-12 0 6 6 0 0 0 12 0" fill="#a7a9ac"/><path d="M18 27a4 4 0 1 0-8 0 4 4 0 0 0 8 0" fill="#e6e7e8"/><path d="M17 26h-3a1 1 0 0 0-1 1v5a1 1 0 0 0 2 0v-4h2a1 1 0 0 0 0-2" fill="#a0041e"/></g></svg>