<svg xmlns="http://www.w3.org/2000/svg" viewBox="0 0 45 45"><defs><clipPath id="a"><path d="M0 36h36V0H0v36z"/></clipPath></defs><g clip-path="url(#a)" transform="matrix(1.25 0 0 -1.25 0 45)"><path d="M17 2a2 2 0 0 1 2-2h14a2 2 0 0 1 2 2v16a2 2 0 0 1-2 2H19a2 2 0 0 1-2-2V2z" fill="#aab8c2"/><path d="M33 20H23v-2h12a2 2 0 0 1-2 2" fill="#292f33"/><path d="M33 2H3v4h30V2z" fill="#3b88c3"/><path d="M3 20a2 2 0 0 1-2-2V2a2 2 0 0 1 2-2h20v20H3z" fill="#ccd6dd"/><path d="M3 20a2 2 0 0 1-2-2h22v2H3z" fill="#66757f"/><path d="M3 12h4v4H3v-4zM17 12h4v4h-4v-4zM10 12h4v4h-4v-4z" fill="#55acee"/><path d="M33 12h-4v4h4v-4zM27 12h-4v4h4v-4z" fill="#3b88c3"/><path d="M21 0H3v6h18V0z" fill="#55acee"/><path d="M17 0H7v6h10V0z" fill="#3b88c3"/><path d="M23 10H1V6h22v4z" fill="#dd2e44"/><path d="M17 7H7v2h10V7z" fill="#f4abba"/><path d="M15 7H9v2h6V7z" fill="#fff"/><path d="M35 6H23v4h12V6z" fill="#a0041e"/><path d="M7 20H5v2h2v-2zM17 20h2v2h-2v-2z" fill="#292f33"/><path d="M21 24a2 2 0 0 0-2-2H5a2 2 0 0 0-2 2v10a2 2 0 0 0 2 2h14a2 2 0 0 0 2-2V24z" fill="#dd2e44"/><path d="M10.562 25.85c.616 0 1.093-.28 1.093-.926 0-.644-.477-.924-1.01-.924H5.969c-.617 0-1.093.28-1.093.924 0 .295.182.547.322.715 1.163 1.386 2.424 2.647 3.488 4.188.251.364.49.798.49 1.303 0 .574-.435 1.078-1.009 1.078-1.61 0-.84-2.269-2.186-2.269-.672 0-1.022.476-1.022 1.023 0 1.764 1.57 3.18 3.292 3.18 1.723 0 3.11-1.135 3.11-2.914 0-1.947-2.172-3.88-3.362-5.379h2.563zM16.3 31.956h-.028l-1.89-3.908H16.3v3.908zM12.924 26.2c-.687 0-.98.463-.98.826 0 .31.111.477.196.617l3.137 5.687c.31.56.701.813 1.43.813.812 0 1.61-.519 1.61-1.793v-4.3h.238c.546 0 .981-.365.981-.926 0-.56-.435-.924-.98-.924h-.239v-1.19c0-.743-.294-1.093-1.009-1.093-.714 0-1.008.35-1.008 1.093v1.19h-3.376z" fill="#fff"/></g></svg>