<svg xmlns="http://www.w3.org/2000/svg" viewBox="0 0 45 45"><defs><clipPath id="a"><path d="M0 36h36V0H0v36z"/></clipPath></defs><g clip-path="url(#a)" transform="matrix(1.25 0 0 -1.25 0 45)"><path d="M24 26a2 2 0 0 0-2-2h-8a2 2 0 0 0-2 2v8a2 2 0 0 0 2 2h8a2 2 0 0 0 2-2v-8zM0 22V2a2 2 0 0 1 2-2h32a2 2 0 0 1 2 2v20H0z" fill="#ccd6dd"/><path d="M18 24H2a2 2 0 0 1-2-2h20a2 2 0 0 1-2 2" fill="#99aab5"/><path d="M34 24H18a2 2 0 0 1-2-2h20a2 2 0 0 1-2 2" fill="#99aab5"/><path d="M34 10H2v4h32v-4zM34 16H2v4h32v-4zM34 4H2v4h32V4z" fill="#55acee"/><path d="M28 0H8v24h20V0z" fill="#e1e8ed"/><path d="M26 12H10v4h16v-4zM26 18H10v4h16v-4zM26 6H10v4h16V6z" fill="#55acee"/><path d="M23 0H13v4h10V0z" fill="#3b88c3"/><path d="M22 32h-3v3h-2v-3h-3v-2h3v-3h2v3h3v2z" fill="#dd2e44"/><path d="M26 26H10a2 2 0 0 1-2-2h20a2 2 0 0 1-2 2" fill="#99aab5"/></g></svg>