<svg xmlns="http://www.w3.org/2000/svg" viewBox="0 0 45 45"><defs><clipPath id="a"><path d="M0 36h36V0H0v36z"/></clipPath></defs><path d="M31.25 31.25h-17.5V12.5h17.5v18.75z" fill="#edbb9f"/><g clip-path="url(#a)" transform="matrix(1.25 0 0 -1.25 0 45)"><path d="M1 18V2a2 2 0 0 1 2-2h30a2 2 0 0 1 2 2v16H1z" fill="#be1931"/><path d="M35 19H1v3h34v-3z" fill="#ffe8b6"/><path d="M35 18H1v2h34v-2z" fill="#c1694f"/><path d="M18 9a3 3 0 0 1-3-3V0h6v6a3 3 0 0 1-3 3" fill="#ccd6dd"/><path d="M28 9a3 3 0 0 1-3-3V2h6v4a3 3 0 0 1-3 3M8 9a3 3 0 0 1-3-3V2h6v4a3 3 0 0 1-3 3" fill="#aab8c2"/><path d="M22 32a4 4 0 1 0-8.002.002A4 4 0 0 0 22 32" fill="#d99e82"/><path d="M22 28h-8v4h8v-4z" fill="#edbb9f"/><path d="M33 24H3a2 2 0 0 1-2-2h34a2 2 0 0 1-2 2M23 28H13a2 2 0 0 1-2-2h14a2 2 0 0 1-2 2" fill="#d99e82"/><path d="M21.667 14.756c-.204-.201-.007-.403-.007-.403l-.887-.888-1.495-1.495-.004.003a2.21 2.21 0 1 0-3.205 3.042 2.21 2.21 0 0 0 3.127 0c.502-.505.707-1.19.622-1.846l.895.894a3.14 3.14 0 0 1-5.301 1.609 3.14 3.14 0 1 1 4.441-4.442c.029.027.052.059.079.085l.003-.003 2.385 2.385s.184-.187.392.016c.204.199-.004.404-.004.404l-.626.633s-.209.209-.415.006" fill="#ffac33"/><path d="M14.22 12.42a3.725 3.725 0 0 0-.122 1.44l-.085.084c-.824.823-.33 1.978-.495 2.14-.164.165-.329 0-.329 0s-1.77-1.77-1.974-1.976c-.164-.164 0-.328 0-.328.164-.164 1.372.276 2.088-.441l.917-.918" fill="#ffac33"/></g></svg>