<svg xmlns="http://www.w3.org/2000/svg" viewBox="0 0 45 45"><defs><clipPath id="a"><path d="M0 36h36V0H0v36z"/></clipPath></defs><g clip-path="url(#a)" transform="matrix(1.25 0 0 -1.25 0 45)"><path d="M36 4a4 4 0 0 0-4-4H4a4 4 0 0 0-4 4v28a4 4 0 0 0 4 4h28a4 4 0 0 0 4-4V4z" fill="#3b88c3"/><path d="M36 9H0v17h36V9z" fill="#bbddf5"/><path d="M5.474 16.45h3.04l-1.488 4.642h-.031L5.474 16.45zm-.176 5.81c.272.736.896 1.33 1.713 1.33.848 0 1.44-.562 1.712-1.33l3.137-8.707c.096-.256.129-.48.129-.593 0-.624-.513-1.056-1.105-1.056-.672 0-1.008.352-1.168.832l-.481 1.505h-4.45l-.48-1.489c-.16-.496-.496-.848-1.152-.848-.64 0-1.184.48-1.184 1.12 0 .256.079.45.11.53l3.219 8.706zM14.465 21.188H12.72c-.768 0-1.088.56-1.088 1.105 0 .56.4 1.104 1.088 1.104h5.89c.689 0 1.089-.544 1.089-1.104 0-.544-.32-1.105-1.088-1.105h-1.745v-8.035c0-.8-.512-1.249-1.2-1.249-.69 0-1.201.448-1.201 1.248v8.036zM22.033 22.26c.096.576.72 1.232 1.568 1.232.801 0 1.424-.576 1.601-1.152l1.89-6.338h.031l1.89 6.338c.174.576.8 1.152 1.598 1.152.85 0 1.473-.656 1.57-1.232l1.49-8.932c.014-.096.014-.192.014-.272 0-.704-.51-1.152-1.152-1.152-.816 0-1.137.368-1.248 1.12l-.945 6.515h-.032l-1.92-6.707c-.113-.384-.418-.928-1.28-.928-.866 0-1.17.544-1.282.928l-1.92 6.707h-.033l-.944-6.515c-.113-.752-.432-1.12-1.249-1.12-.639 0-1.152.448-1.152 1.152 0 .08 0 .176.017.272l1.488 8.932z" fill="#269"/></g></svg>