<svg xmlns="http://www.w3.org/2000/svg" viewBox="0 0 45 45"><path d="M38.75 28.75H6.25v8.75h32.5v-8.75z" fill="#d1d3d4"/><path d="M5 36.25L0 45h45l-5-8.75H5z" fill="#d99e82"/><path d="M37.5 25h-30l-6.25 5h42.5l-6.25-5z" fill="#66757f"/><path d="M22.5 12.352L12.205 17.5h20.59L22.5 12.352z" fill="#d1d3d4"/><path d="M22.5 12.352L32.795 17.5h-20.59L22.5 12.352zm15 5.148l-1.25-6.25H8.75L7.5 17.5l-5 3.75h40l-5-3.75z" fill="#66757f"/><path d="M37.5 21.25h-30V25h30v-3.75zM30 11.25v-5H15v5h-2.5v2.5h20v-2.5H30z" fill="#d1d3d4"/><path d="M15 2.5h15V5l2.5 2.5h-20L15 5V2.5z" fill="#66757f"/><path d="M28.75 0v1.25h-12.5V0H15v2.5h15V0h-1.25z" fill="#99aab5"/><path d="M15 17.5l7.5-3.75L30 17.5H15zm22.5.955l-6.381-3.191-7.5-3.75-1.119-.559-1.119.559-7.5 3.75L7.5 18.455V20h30v-1.545z" fill="#66757f"/><path d="M38.75 36.25H6.25v-2.5h32.5v2.5z" fill="#6d6e71"/></svg>