<svg xmlns="http://www.w3.org/2000/svg" viewBox="0 0 45 45"><defs><clipPath id="a"><path d="M0 36h36V0H0v36z"/></clipPath></defs><g clip-path="url(#a)" transform="matrix(1.25 0 0 -1.25 0 45)"><path d="M14 2a2 2 0 0 1 2-2h18a2 2 0 0 1 2 2v20a2 2 0 0 1-2 2H16a2 2 0 0 1-2-2V2z" fill="#ffcc4d"/><path d="M34 24H20v-2h16a2 2 0 0 1-2 2" fill="#bcbec0"/><path d="M20 0h14v20H20V0z" fill="#55acee"/><path d="M18 36H2a2 2 0 0 1-2-2V2a2 2 0 0 1 2-2h18v34a2 2 0 0 1-2 2" fill="#ffe8b6"/><path d="M18 36H2a2 2 0 0 1-2-2h20a2 2 0 0 1-2 2" fill="#bcbec0"/><path d="M2 10h16v4H2v-4zM2 16h16v4H2v-4zM2 22h16v4H2v-4zM2 28h16v4H2v-4zM2 0h16v8H2V0z" fill="#55acee"/><path d="M6 0h8v4H6V0zM23 0h8v4h-8V0z" fill="#3b88c3"/><path d="M35 8H20v2h15V8zM35 14H20v2h15v-2z" fill="#ffcc4d"/><path d="M36 29a2 2 0 0 0-2-2H24a2 2 0 0 0-2 2v2a2 2 0 0 0 2 2h10a2 2 0 0 0 2-2v-2z" fill="#dd2e44"/><path d="M28 24h-2v3h2v-3zM32 24h-2v3h2v-3z" fill="#58595b"/><path d="M26 29h-2v2h2v-2z" fill="#f4abba"/><path d="M28 29h-2v2h2v-2z" fill="#fff"/><path d="M30 29h-2v2h2v-2z" fill="#f4abba"/><path d="M32 29h-2v2h2v-2z" fill="#fff"/><path d="M34 29h-2v2h2v-2z" fill="#f4abba"/></g></svg>