<svg xmlns="http://www.w3.org/2000/svg" viewBox="0 0 45 45"><defs><clipPath id="a"><path d="M0 36h36V0H0v36z"/></clipPath></defs><g clip-path="url(#a)" transform="matrix(1.25 0 0 -1.25 0 45)"><path d="M34 23a2 2 0 0 0-2-2h-6a2 2 0 0 0-2 2v2a2 2 0 0 0 2 2h6a2 2 0 0 0 2-2v-2zM12 23a2 2 0 0 0-2-2H4a2 2 0 0 0-2 2v2a2 2 0 0 0 2 2h6a2 2 0 0 0 2-2v-2z" fill="#dac8b1"/><path d="M36 2a2 2 0 0 0-2-2H2a2 2 0 0 0-2 2v21a2 2 0 0 0 2 2h32a2 2 0 0 0 2-2V2z" fill="#f1dcc1"/><path d="M22 27v2c0 .738-.404 1.376-1 1.723V31a2 2 0 0 1-2 2h-2a2 2 0 0 1-2-2v-.277c-.595-.347-1-.985-1-1.723v-2h-1V0h10v27h-1z" fill="#dac8b1"/><path d="M16 27h-2v2h2v-2zM20 27h2v2h-2v-2zM19 27h-2v2h2v-2z" fill="#55acee"/><path d="M17 7h-2v14h2V7zM21 7h-2v14h2V7z" fill="#3b88c3"/><path d="M26 7h-2v12h2V7zM30 7h-2v12h2V7zM34 7h-2v12h2V7zM4 7H2v12h2V7zM8 7H6v12h2V7zM12 7h-2v12h2V7zM4 4H2v2h2V4zM8 4H6v2h2V4zM12 4h-2v2h2V4z" fill="#55acee"/><path d="M17 4h-2v2h2V4zM21 4h-2v2h2V4z" fill="#3b88c3"/><path d="M26 4h-2v2h2V4zM30 4h-2v2h2V4zM34 4h-2v2h2V4z" fill="#55acee"/><path d="M4 0H2v3h2V0zM8 0H6v3h2V0zM12 0h-2v3h2V0zM17 0h-2v3h2V0zM21 0h-2v3h2V0zM26 0h-2v3h2V0zM28 0h2v3h-2V0zM34 0h-2v3h2V0z" fill="#66757f"/></g></svg>