<svg xmlns="http://www.w3.org/2000/svg" viewBox="0 0 45 45"><defs><clipPath id="a"><path d="M0 36h36V0H0v36z"/></clipPath></defs><path d="M41.25 20H3.75v22.5h37.5V20z" fill="#66757f"/><g clip-path="url(#a)" transform="matrix(1.25 0 0 -1.25 0 45)"><path d="M2 2h32a2 2 0 0 0 2-2H0a2 2 0 0 0 2 2" fill="#ccd6dd"/><path d="M18 13a3 3 0 0 1-3-3V4h6v6a3 3 0 0 1-3 3" fill="#292f33"/><path d="M7 15H3V4h4v11zM13 15H9V4h4v11zM33 15h-4V4h4v11zM27 15h-4V4h4v11z" fill="#ccd6dd"/><path d="M34 2H2v2h32V2z" fill="#aab8c2"/><path d="M36 25L18 36 0 25h36z" fill="#66757f"/><path d="M18 33.6L2 24v-4h32v4l-16 9.6z" fill="#ccd6dd"/><path d="M7 15H3v2h4v-2zM13 15H9v2h4v-2zM27 15h-4v2h4v-2zM33 15h-4v2h4v-2z" fill="#8899a6"/><path d="M35 19H1v5h34v-5z" fill="#ccd6dd"/><path d="M36 24a1 1 0 0 0-1-1H1a1 1 0 0 0-1 1v1a1 1 0 0 0 1 1h34a1 1 0 0 0 1-1v-1zM36 18a1 1 0 0 0-1-1H1a1 1 0 0 0-1 1v1a1 1 0 0 0 1 1h34a1 1 0 0 0 1-1v-1z" fill="#aab8c2"/><path d="M23 2H13v2h10V2z" fill="#e1e8ed"/><path d="M25 0H11v2h14V0z" fill="#f5f8fa"/></g></svg>