<svg xmlns="http://www.w3.org/2000/svg" viewBox="0 0 45 45"><defs><clipPath id="a"><path d="M0 36h36V0H0v36z"/></clipPath></defs><g clip-path="url(#a)" transform="matrix(1.25 0 0 -1.25 0 45)"><path d="M21 21a4 4 0 0 0-4-4H4a4 4 0 0 0-4 4v3a4 4 0 0 0 4 4h13a4 4 0 0 0 4-4v-3z" fill="#c1694f"/><path d="M36 30a4 4 0 0 0-4-4H20a4 4 0 0 0-4 4v1a4 4 0 0 0 4 4h12a4 4 0 0 0 4-4v-1z" fill="#c1694f"/><path d="M0 24V2a2 2 0 0 1 2-2h31v24H0z" fill="#ffcc4d"/><path d="M14 0H2v4h12V0zM18 6H2v4h16V6z" fill="#55acee"/><path d="M16 31V0h18a2 2 0 0 1 2 2v29H16z" fill="#ffe8b6"/><path d="M34 12H18v4h16v-4zM34 18H18v4h16v-4zM34 24H18v4h16v-4zM34 6H18v4h16V6z" fill="#55acee"/><path d="M24 5h-2v24h2V5zM30 5h-2v24h2V5z" fill="#ffe8b6"/><path d="M30 0h-8v4h8V0zM10 22v-4H6v4H4V12h2v4h4v-4h2v10h-2z" fill="#3b88c3"/><path d="M9 5H7v6h2V5zM16 5h-2v6h2V5z" fill="#ffcc4d"/></g></svg>