<svg xmlns="http://www.w3.org/2000/svg" viewBox="0 0 45 45"><defs><clipPath id="a"><path d="M0 36h36V0H0v36z"/></clipPath></defs><path d="M6.25 22.5L22.5 6.25 38.75 22.5v20H6.25v-20z" fill="#ffe8b6"/><path d="M6.25 42.5H7.5v-20H6.25v20zM37.5 42.5h1.25v-20H37.5v20z" fill="#ffcc4d"/><g clip-path="url(#a)" transform="matrix(1.25 0 0 -1.25 0 45)"><path d="M31 17a.997.997 0 0 0-.707.293L18 29.586 5.707 17.293a.999.999 0 1 0-1.414 1.414l13 13a.999.999 0 0 0 1.414 0l13-13A.999.999 0 0 0 31 17" fill="#66757f"/><path d="M20 2h-4v8h4V2z" fill="#c1694f"/><path d="M13 14H9v4h4v-4zM27 14h-4v4h4v-4zM20 14h-4v4h4v-4zM13 6H9v4h4V6zM27 6h-4v4h4V6z" fill="#55acee"/><path d="M33 1a1 1 0 0 0-1-1H4a1 1 0 1 0 0 2h28a1 1 0 0 0 1-1" fill="#bcbec0"/></g></svg>