<svg xmlns="http://www.w3.org/2000/svg" viewBox="0 0 45 45"><defs><clipPath id="a"><path d="M0 36h36V0H0v36z"/></clipPath></defs><g clip-path="url(#a)" transform="matrix(1.25 0 0 -1.25 0 45)"><path d="M0 18V2a2 2 0 0 1 2-2h32a2 2 0 0 1 2 2v16H0z" fill="#aab8c2"/><path d="M0 18l18 6.353L36 18H0z" fill="#66757f"/><path d="M34 12H2v4h32v-4zM34 6H2v4h32V6z" fill="#55acee"/><path d="M30 1H6v16h24V1z" fill="#aab8c2"/><path d="M28 0H8v31h20V0z" fill="#ccd6dd"/><path d="M26 12H10v4h16v-4zM26 6H10v4h16V6z" fill="#55acee"/><path d="M16 5h-2v18h2V5zM22 5h-2v18h2V5z" fill="#ccd6dd"/><path d="M20 0h-4v4h4V0z" fill="#3b88c3"/><path d="M23 27H13v2h10v-2zM13 25v-2h4v-4h2v4h4v2H13z" fill="#dd2e44"/><path d="M8 31l10 5 10-5H8z" fill="#66757f"/></g></svg>