<svg xmlns="http://www.w3.org/2000/svg" viewBox="0 0 45 45"><defs><clipPath id="a"><path d="M0 36h36V0H0v36z"/></clipPath></defs><g clip-path="url(#a)" transform="matrix(1.25 0 0 -1.25 0 45)"><path d="M30.12 19.514c-3.348-3.346-7.678-2.927-10.605 0-2.928 2.93-3.347 7.258 0 10.605 3.346 3.347 9.846 3.788 12.12 1.516 2.271-2.274 1.83-8.774-1.516-12.12M16.485 5.88c-3.347-3.345-9.847-3.785-12.12-1.514-2.272 2.273-1.83 8.773 1.516 12.12 3.346 3.346 7.675 2.927 10.604 0 2.928-2.928 3.347-7.258 0-10.605" fill="#553788"/><path d="M19.515 5.88c-3.346 3.347-2.927 7.677 0 10.605 2.929 2.928 7.258 3.347 10.604 0 3.347-3.347 3.788-9.846 1.516-12.12-2.273-2.271-8.772-1.831-12.12 1.516M5.88 19.515c-3.346 3.347-3.787 9.847-1.514 12.12 2.272 2.272 8.773 1.83 12.12-1.516 3.346-3.346 2.927-7.675 0-10.604-2.93-2.928-7.26-3.347-10.605 0" fill="#553788"/><path d="M26.999 11C22.581 11 20 14.135 20 18c.001 3.866 2.581 7 7 7 4.418 0 9-3.999 9-6.999C36 15 31.418 11 26.999 11M9 11c-4.418 0-9 4.001-9 7.001C0 21 4.582 25 9 25s6.999-3.134 7-7c0-3.865-2.581-7-7-7" fill="#55acee"/><path d="M11 9c-.001 4.418 3.134 6.999 7 6.999S25 13.418 25 9c0-4.419-4-9-7-9s-7 4.581-7 9M11 27c0 4.418 4 9.001 7 9.001s7-4.583 7-9.001c0-4.418-3.134-6.999-7-7-3.867 0-7 2.582-7 7" fill="#55acee"/><path d="M23.656 12.343a8 8 0 0 0-11.313 0 7.999 7.999 0 0 0 0 11.314 8 8 0 1 0 11.313-11.314" fill="#88c9f9"/><path d="M21.656 14.343a5.171 5.171 0 1 0-7.314 7.314 5.171 5.171 0 0 0 7.314-7.314" fill="#bbddf5"/></g></svg>