<svg xmlns="http://www.w3.org/2000/svg" viewBox="0 0 45 45"><defs><clipPath id="a"><path d="M0 36h36V0H0v36z"/></clipPath></defs><g clip-path="url(#a)" transform="matrix(1.25 0 0 -1.25 0 45)"><path d="M5 0a2 2 0 0 0-2 2v31a2 2 0 0 0 4 0V2a2 2 0 0 0-2-2" fill="#8899a6"/><path d="M5 35a2 2 0 0 1-2-2V2a.5.5 0 0 1 1 0v29.586C4 32.367 4.633 33 5.414 33H7a2 2 0 0 1-2 2" fill="#aab8c2"/><path d="M5 0a2 2 0 0 0-2 2v31a2 2 0 0 0 4 0V2a2 2 0 0 0-2-2" fill="#8899a6"/><path d="M5 35a2 2 0 0 1-2-2V2a.5.5 0 0 1 1 0v29.586C4 32.367 4.633 33 5.414 33H7a2 2 0 0 1-2 2" fill="#aab8c2"/><path d="M32.415 32.91c-1.752.799-3.615 1.187-5.698 1.187-2.518 0-5.02-.57-7.439-1.122-2.418-.551-4.702-1.071-6.995-1.071-1.79 0-3.382.329-4.868 1.006A1 1 0 0 1 6 32V13a1 1 0 0 1 .585-.91c1.752-.8 3.616-1.186 5.698-1.186 2.518 0 5.02.57 7.439 1.122 2.418.55 4.702 1.07 6.995 1.07 1.79 0 3.383-.328 4.868-1.006A1.004 1.004 0 0 1 33 13v19a1 1 0 0 1-.585.91" fill="#e1e8ed"/></g></svg>