<svg xmlns="http://www.w3.org/2000/svg" viewBox="0 0 45 45"><defs><clipPath id="a"><path d="M0 36h36V0H0v36z"/></clipPath></defs><g clip-path="url(#a)" transform="matrix(1.25 0 0 -1.25 0 45)"><path d="M30.385 7A.98.98 0 0 0 29 5.615L15.5 19.116a.979.979 0 0 0 1.384 1.384L30.384 7z" fill="#55acee"/><path d="M35.56 2.56A1.5 1.5 0 1 0 33.44.44l-5.657 5.655a1.5 1.5 0 1 0 2.121 2.122L35.56 2.56z" fill="#292f33"/><path d="M15.177 19.488l-.707-.708L2.449 30.802l.707.707 12.02-12.021zM4.57 34.337l-.707-.707 12.728-12.728.707.707L4.57 34.337z" fill="#99aab5"/><path d="M10.227 34.337l-8.485-8.485-.707.707 8.485 8.485.707-.707zM13.056 32.923L2.45 22.317l-.708.707L12.349 33.63l.707-.707zM15.884 31.509L4.57 20.195l-.708.707 11.314 11.314.707-.707zM17.298 28.68L7.4 18.78l-.708.708 9.9 9.9.707-.708zM18.712 25.852l-8.485-8.485-.707.707 8.485 8.485.707-.707z" fill="#99aab5"/><path d="M12.349 18.073l-.707-.707L1.035 27.973l.707.707 10.607-10.607zM8.106 35.044l-.707-.707L18.005 23.73l.707.707L8.106 35.044z" fill="#99aab5"/><path d="M15.314 20.686c-2.733-2.733-7.535-2.364-10.725.825C1.4 24.7 1.032 29.5 3.765 32.234c2.734 2.733 7.535 2.364 10.724-.825 3.189-3.19 3.559-7.99.825-10.725M2.468 33.531c-3.471-3.47-3.119-9.45.786-13.356 3.906-3.906 9.885-4.258 13.356-.786 3.472 3.472 3.121 9.45-.786 13.356-3.905 3.905-9.884 4.258-13.356.786" fill="#55acee"/><path d="M17.298 21.609a1 1 0 0 0 0-1.414l-1.414-1.415a1.003 1.003 0 0 0-1.415 0 1.002 1.002 0 0 0 0 1.415l1.415 1.414a.999.999 0 0 0 1.414 0" fill="#269"/><path d="M18.005 19.488a1 1 0 1 0-1.414-1.415l-.708.707a1 1 0 1 0 1.415 1.415l.707-.707zM29.56 8.56c.587-.585-.121-.828-.706-1.414-.586-.585-.83-1.292-1.414-.707a1.5 1.5 0 1 0 2.12 2.121" fill="#269"/><path d="M21.81 32.818a2 2 0 0 1 0-2.828l.708-.707.707.707 1.414 1.414.709.707-.71.707a2 2 0 0 1-2.827 0" fill="#be1931"/><path d="M26.055 31.404l-2.83-2.828-.707.707 2.83 2.828.707-.707z" fill="#99aab5"/><path d="M23.225 28.576l2.83 2.828c1.473-.488 9.125-5.07 8.86-5.334-.756-.76-1.911-.201-1.911-.201s.844-.806.118-1.532c-.727-.727-1.532.118-1.532.118s.969-.741.149-1.564c-.827-.826-1.563.149-1.563.149s.729-.981.098-1.613c-.633-.631-1.514.199-1.514.199s.418-.998-.342-1.756c-.361-.363-4.607 7.33-5.193 8.706" fill="#e1e8ed"/><path d="M26.414 28.177c.578.683 5.432-3.727 4.58-4.579-.854-.852-5.275 3.76-4.58 4.58M28.12 20.729c.68.443-3.073 5.816-3.536 5.427-.03-.027-.045-.073-.053-.126.883-1.626 2.006-3.594 2.824-4.867.336-.342.616-.53.764-.434M28.39 29.962c-.39-.463 4.985-4.215 5.429-3.535.115.178-.17.541-.656.97a91.566 91.566 0 0 1-4.286 2.571c-.24.064-.418.074-.486-.006M25.402 27.103c.426.429 4.641-4.589 4.002-5.093-.639-.5-4.516 4.576-4.002 5.093M27.443 29.144c-.428-.426 4.59-4.64 5.092-4.002.502.639-4.574 4.516-5.092 4.002" fill="#ccd6dd"/></g></svg>