<svg xmlns="http://www.w3.org/2000/svg" viewBox="0 0 45 45"><defs><clipPath id="a"><path d="M0 36h36V0H0v36z"/></clipPath></defs><path d="M5 45h35.001V21.25H5V45z" fill="#ccd6dd"/><path d="M36.25 22.5H7.5v-6.25h28.75v6.25z" fill="#269"/><g clip-path="url(#a)" transform="matrix(1.25 0 0 -1.25 0 45)"><path d="M1 24V2a2 2 0 0 1 2-2h4v24H1zM29 24V0h4a2 2 0 0 1 2 2v22h-6z" fill="#aab8c2"/><path d="M22 3h-8v11h8V3z" fill="#f2f9ff"/><path d="M22 17c-.295 0-.558-.391-.74-1h-6.52c-.182.609-.445 1-.74 1-.552 0-1-1.344-1-3 0-1.657.448-3 1-3s1 1.343 1 3h6c0-1.657.447-3 1-3 .553 0 1 1.343 1 3 0 1.656-.447 3-1 3" fill="#269"/><path d="M5 17H3v2h2v-2zM11 14H9v2h2v-2zM27 14h-2v2h2v-2zM11 10H9v2h2v-2zM27 10h-2v2h2v-2zM5 13H3v2h2v-2zM33 17h-2v2h2v-2zM33 13h-2v2h2v-2z" fill="#66757f"/><path d="M23 10H13v4h10v-4z" fill="#f2f9ff"/><path d="M18 10a2 2 0 0 1-2-2V3h4v5a2 2 0 0 1-2 2" fill="#66757f"/><path d="M24 0H12v3h12V0z" fill="#8899a6"/><path d="M1 24h6s-2 8-3 8-3-8-3-8M29 24h6s-2 8-3 8-3-8-3-8" fill="#269"/><path d="M8 22a1 1 0 0 0-1-1H1a1 1 0 0 0 0 2h6a1 1 0 0 0 1-1M36 22a1 1 0 0 0-1-1h-6a1 1 0 1 0 0 2h6a1 1 0 0 0 1-1" fill="#ccd6dd"/></g></svg>