<svg xmlns="http://www.w3.org/2000/svg" viewBox="0 0 45 45"><defs><clipPath id="a"><path d="M0 36h36V0H0v36z"/></clipPath></defs><g clip-path="url(#a)" transform="matrix(1.25 0 0 -1.25 0 45)"><path d="M8.421 24.579a1.497 1.497 0 1 0-2.118 2.117 1.497 1.497 0 0 0 2.118-2.117m23.595-8.76L17.344 30.255c-.658.659-1.52.746-2.384.746H4.883C3.028 31 2 29.97 2 28.118V18.036c0-.861.088-1.723.746-2.38L17.3.984a3.287 3.287 0 0 1 4.69 0l10.058 10.088c1.31 1.31 1.28 3.437-.03 4.748" fill="#ffd983"/><path d="M8.422 24.578a1.499 1.499 0 1 0-2.12 2.12 1.499 1.499 0 0 0 2.12-2.12m1.53 3.65a3.66 3.66 0 0 1-5.18 0 3.662 3.662 0 1 1 5.179 0" fill="#d99e82"/><path d="M8.507 25.499a1 1 0 1 0-1.415 1.414l8.485 8.485a1 1 0 1 0 1.415-1.414l-8.485-8.485z" fill="#c1694f"/></g></svg>