<svg xmlns="http://www.w3.org/2000/svg" viewBox="0 0 45 45"><defs><clipPath id="a"><path d="M0 36h36V0H0v36z"/></clipPath><clipPath id="b"><path d="M17.659 33h-4.114c1.028-1-1.029-5.186-2.057-6.214-1.028-1.029-6.171-2.079-6.171-8.25 0-6.171 8.228-13.381 9.256-15.437 1.029-1.029 3.086-1.033 3.086-1.033s2.056-.003 3.085 1.025C21.773 5.147 30 12.367 30 18.537c0 6.171-5.143 7.22-6.171 8.249C22.801 27.814 20.744 32 21.773 33h-4.114z"/></clipPath><clipPath id="c"><path d="M0 36h36V0H0v36z"/></clipPath></defs><g clip-path="url(#a)" transform="matrix(1.25 0 0 -1.25 0 45)"><path d="M11.575 23.802c-1.083-.411-2.46.573-3.076 2.197-.615 1.623-.237 3.272.846 3.683 1.082.41 2.459-.573 3.075-2.196.616-1.624.237-3.273-.845-3.684m2.73 4.399c-1.208 3.186-3.91 5.117-6.034 4.31-2.124-.805-2.866-4.041-1.658-7.228 1.209-3.186 3.91-5.116 6.035-4.31 2.124.806 2.866 4.042 1.658 7.228M26.505 25.999c-.616-1.624-1.992-2.608-3.075-2.197-1.081.411-1.461 2.06-.844 3.684.616 1.623 1.992 2.607 3.074 2.196 1.082-.411 1.462-2.059.845-3.683m.229 6.513c-2.124.805-4.827-1.125-6.036-4.311-1.208-3.186-.465-6.423 1.659-7.228 2.125-.807 4.827 1.124 6.035 4.31 1.209 3.187.467 6.423-1.658 7.229" fill="#c1694f"/><path d="M16.63 4.253c-2.057 0-5.142-.971-5.142-3.027 0-1.03 3.942-1.143 6.085-1.143s.086 4.17.086 4.17h-1.03z" fill="#272b2b"/><path d="M18.546 4.253c2.057 0 5.142-.971 5.142-3.027 0-1.03-3.94-1.143-6.084-1.143-2.143 0-.086 4.17-.086 4.17h1.028z" fill="#272b2b"/><path d="M23.83 26.786C22.8 27.814 20.743 32 21.771 33h-8.227c1.028-1-1.029-5.186-2.057-6.214-1.029-1.028-6.17-2.08-6.17-8.25s8.227-13.38 9.255-15.437c1.028-1.028 3.086-1.033 3.086-1.033s2.057-.003 3.085 1.025C21.772 5.148 30 12.368 30 18.538s-5.143 7.22-6.17 8.248" fill="#c1694f"/></g><g clip-path="url(#b)" transform="matrix(1.25 0 0 -1.25 0 45)"><path d="M32 14H4v10h28V14z" fill="#272b2b"/></g><g clip-path="url(#c)" transform="matrix(1.25 0 0 -1.25 0 45)"><path d="M18 33h-4.455c0-4-.859-5.143-1.887-6.171" fill="#c1694f"/><path d="M17.659 31.642c2.057 0 6.03.928 6.03 2.985 0 1.03-3.942 1.164-6.084 1.164-2.144 0-.087-4.149-.087-4.149h.14z" fill="#272b2b"/><path d="M17.659 31.642c-2.057 0-6.03.928-6.03 2.985 0 1.03 3.942 1.164 6.084 1.164 2.144 0 .087-4.149.087-4.149h-.141z" fill="#272b2b"/><path d="M13.03 16h-2.57a.501.501 0 0 0-.514.5c0 .284.229.5.514.5H13v4H9v-1h2.488a.502.502 0 0 0 .514-.5c0-.284-.23-.5-.514-.5H9.063C8.52 19 8 19.146 8 19.771v1.314c0 .727.604.915.888.915h4.143c.699 0 .969-.479.969-.915v-4.113c0-.618-.458-.972-.97-.972M27.031 16H24.46a.503.503 0 0 0-.514.5c0 .284.231.5.514.5H27v4h-4v-1h2.488a.503.503 0 0 0 .514-.5c0-.284-.23-.5-.514-.5h-2.426c-.54 0-1.062.146-1.062.771v1.314c0 .727.603.915.888.915h4.143c.698 0 .97-.479.97-.915v-4.113c0-.618-.459-.972-.97-.972M20.031 16H17.46a.503.503 0 0 0-.514.5c0 .284.231.5.514.5H20v4h-4v-1h2.488a.503.503 0 0 0 .514-.5c0-.284-.23-.5-.514-.5h-2.426c-.54 0-1.062.146-1.062.771v1.314c0 .727.603.915.888.915h4.143c.698 0 .97-.479.97-.915v-4.113c0-.618-.459-.972-.97-.972" fill="#c1694f"/></g></svg>