<svg xmlns="http://www.w3.org/2000/svg" viewBox="0 0 45 45"><defs><clipPath id="a"><path d="M0 36h36V0H0v36z"/></clipPath></defs><g clip-path="url(#a)" transform="matrix(1.25 0 0 -1.25 0 45)"><path d="M21.28 31.72c-9 0-10.5-1.5-13-4s-4-4-4-13c0-11.18-2-14-1-14s3 2 3 4-2 13 5 20 18 5 20 5 4 2 4 3-2.82-1-14-1" fill="#c1694f"/><path d="M29.5 6.22a.5.5 0 0 0-.5-.5H3.78a.5.5 0 1 0 0 1H29a.5.5 0 0 0 .5-.5M29.78 6.5a.5.5 0 0 0-.5.5v25.221a.499.499 0 1 0 1 0V7c0-.275-.226-.5-.5-.5" fill="#d99e82"/><path d="M0 36l2.793-8.52 2.137 3.565 3.52 2.092L0 36z" fill="#99aab5"/><path d="M26.087 8.607c.364-1.896 0-3.564-.812-3.719-.814-.156-1.77 1.256-2.133 3.155-.365 1.898-.001 3.564.812 3.72.814.157 1.769-1.258 2.133-3.156" fill="#dd2e44"/><path d="M26.568 7.535c.365-1.898 0-3.564-.812-3.72-.814-.157-1.769 1.257-2.132 3.154-.366 1.9 0 3.566.811 3.72.814.157 1.77-1.256 2.133-3.154" fill="#f4900c"/><path d="M27.958 6.146c.364-1.898 0-3.564-.812-3.72-.814-.157-1.77 1.255-2.133 3.154-.365 1.898 0 3.564.812 3.72.814.157 1.77-1.256 2.133-3.154" fill="#a0041e"/><path d="M29.372 4.732c.365-1.898 0-3.566-.812-3.72-.814-.157-1.77 1.255-2.133 3.154-.365 1.898 0 3.564.812 3.72.814.157 1.77-1.258 2.133-3.154M27.393 9.913c1.897-.364 3.564 0 3.719.812.156.814-1.256 1.77-3.155 2.133-1.898.365-3.564.001-3.72-.812-.157-.814 1.258-1.769 3.156-2.133" fill="#dd2e44"/><path d="M28.465 9.432c1.898-.365 3.564 0 3.72.812.157.814-1.257 1.769-3.154 2.132-1.9.366-3.566 0-3.72-.811-.157-.814 1.256-1.77 3.154-2.133" fill="#f4900c"/><path d="M29.854 8.042c1.898-.364 3.564 0 3.72.812.157.814-1.255 1.77-3.154 2.133-1.899.365-3.565 0-3.72-.812-.157-.814 1.256-1.77 3.154-2.133" fill="#a0041e"/><path d="M31.268 6.628c1.898-.365 3.566 0 3.72.812.157.814-1.255 1.77-3.154 2.133-1.898.365-3.564 0-3.72-.812-.157-.814 1.258-1.77 3.154-2.133" fill="#dd2e44"/><path d="M30.385 7A.98.98 0 0 0 29 5.615L4.136 30.48a.98.98 0 0 0 1.384 1.384L30.385 7z" fill="#ccd6dd"/></g></svg>