<svg xmlns="http://www.w3.org/2000/svg" viewBox="0 0 45 45"><defs><clipPath id="a"><path d="M0 36h36V0H0v36z"/></clipPath></defs><g clip-path="url(#a)" transform="matrix(1.25 0 0 -1.25 0 45)"><path d="M34 21c0 2-2.127 4.702-4 4-8-3-19 2-19 2-2.209 0-6.857-9.257-5-10 .277-.111.541-.227.799-.343C4.648 15.913 4.283 14.191 6 14c9-1 6.896-14 8-14 1.344 0 2.685 2.614 3.422 5h9.8c.288-2.355.866-5 1.778-5 .866 0 2.611 3.542 3.794 9.142C33.528 11.768 34 15.674 34 21" fill="#ccd6dd"/><path d="M10 14c-2 0-4.946-.087-6.973-.087S-.617 17.391.691 18.695C2 20 6 21 5 25c-.542 2.169 4 3 6 2 4.816-2.408 5-10-2-10 0 0 3-3 1-3M30 25c-2.586-.97-5.485-1.101-8.226-.838A8.286 8.286 0 0 1 20 19c0-4.418 3.357-8 7.5-8 2.587 0 4.866 1.396 6.215 3.521.181 1.872.285 4.017.285 6.479 0 2-2.127 4.702-4 4M21 11.5a3.5 3.5 0 1 0-7 0 3.5 3.5 0 0 0 7 0M32 8a2 2 0 1 0-4 0 2 2 0 0 0 4 0" fill="#292f33"/><path d="M11 27c0-.552-.671-1-1.5-1S5 28.448 5 29s2.23.308 3 0c2.5-1 3-1.448 3-2M9 23a1 1 0 1 0-2 0 1 1 0 0 0 2 0" fill="#ccd6dd"/><path d="M35 12a1 1 0 0 0-1 1v5c0 1.439-.561 2-2 2a1 1 0 1 0 0 2c2.542 0 4-1.458 4-4v-5a1 1 0 0 0-1-1" fill="#292f33"/></g></svg>