<svg xmlns="http://www.w3.org/2000/svg" viewBox="0 0 45 45"><defs><clipPath id="a"><path d="M0 36h36V0H0v36z"/></clipPath></defs><g clip-path="url(#a)" transform="matrix(1.25 0 0 -1.25 0 45)"><path d="M33.912 21.63C33.588 23.398 31.975 25 30 25H11c-.239 0-.522-.135-.83-.365A3.92 3.92 0 0 1 8.565 25c-1 0-4.732-.375-5.565-2L.691 18.695c-.675-1.964.31-4.782 2.336-4.782.57 0 1.535.007 2.665.017 1.65-.286 3.602-1.504 5.436-2.848C13.248 6.675 14.048 0 15 0c.964 0 2.53 4.409 2.912 7h9.124c.147-2.48.771-7 1.964-7 1.015 0 3.24 4.883 4.347 12.238.315 1.625.532 3.698.615 6.32.023-.171.038-.353.038-.558V6a1 1 0 1 1 2 0v12c0 1.807-.749 3.053-2.088 3.63" fill="#292f33"/><path d="M7 20a1 1 0 1 0-2 0 1 1 0 0 0 2 0" fill="#fff"/><path d="M10 21c3 0 6.708 1.625 6.708 5.625 0 2-1.552 4.101-4.458 4.167C8.128 30.884 6.375 28 7 27.625c.528-.317 2 1.875 4.5 1.375 1.861-.372 2.054-1.567 1.667-2.333C12.716 25.774 11 25 9 25s-1-4 1-4" fill="#99aab5"/></g></svg>