<svg xmlns="http://www.w3.org/2000/svg" viewBox="0 0 45 45"><defs><clipPath id="a"><path d="M0 36h36V0H0v36z"/></clipPath></defs><g clip-path="url(#a)" transform="matrix(1.25 0 0 -1.25 0 45)"><path d="M30 0H17a1 1 0 1 0 0 2h13c2.542 0 4 1.367 4 3.75C34 7.287 32.357 9 30 9h-7a1 1 0 1 0 0 2h7c3.589 0 6-2.715 6-5.25C36 2.257 33.645 0 30 0" fill="#ea596e"/><path d="M12 9.283c0 2.85 3 7.035 0 7.035-4 0-10.137-6.566-10.137-8.442C1.863 6 8.304 6 11.153 6c2.849 0 .847.433.847 3.283" fill="#ccd6dd"/><path d="M33 12.098c0 7.973-6.554 9.752-11.381 8.787-9.38-1.876-11.132-6.442-11.132-10.194C10.487 5.769 19.636 6 24.558 6 29.48 6 33 7.175 33 12.098" fill="#ccd6dd"/><path d="M25 13.504L7.894 11.629l3.531-5.63H25v7.505zM16.918 18.857c0 2.683-1.997 4.857-4.458 4.857-2.463 0-4.46-2.174-4.46-4.857C8 16.174 9.997 14 12.46 14c2.461 0 4.458 2.174 4.458 4.857" fill="#ccd6dd"/><path d="M14.37 18.317c0-1.788-1.14-3.239-2.548-3.239-1.408 0-2.548 1.451-2.548 3.24 0 1.787 1.14 3.237 2.548 3.237 1.407 0 2.548-1.45 2.548-3.238" fill="#f4abba"/><path d="M10 11.5a1.5 1.5 0 1 0-3 0 1.5 1.5 0 0 0 3 0" fill="#dd2e44"/></g></svg>