<svg xmlns="http://www.w3.org/2000/svg" viewBox="0 0 45 45"><defs><clipPath id="a"><path d="M0 36h36V0H0v36z"/></clipPath></defs><g clip-path="url(#a)" transform="matrix(1.25 0 0 -1.25 0 45)"><path d="M33.912 21.63C33.588 23.398 31.975 25 30 25H9c-1 0-5.325-.035-6-2L.691 16.695c-.675-1.964.31-4.782 2.336-4.782 1.15 0 2.595.029 3.997.052C10.015 7.954 12.898 0 14 0c.848 0 1.572 3.414 1.862 6h11.25c.235-2.528.843-6 1.888-6 .954 0 2.976 4.3 4.136 10.917.43 1.902.725 4.418.824 7.647A4.02 4.02 0 0 0 34 18V9a1 1 0 1 1 2 0v9c0 1.807-.749 3.053-2.088 3.63" fill="#c1694f"/><path d="M10 24c-2-2-4.791 1-7 1-2.209 0-3 .434-3 .969 0 .535 1.791.969 4 .969S12 26 10 24" fill="#ccd6dd"/><path d="M7 20a1 1 0 1 0-2 0 1 1 0 0 0 2 0" fill="#292f33"/></g></svg>