<svg xmlns="http://www.w3.org/2000/svg" viewBox="0 0 45 45"><defs><clipPath id="a"><path d="M0 36h36V0H0v36z"/></clipPath></defs><g clip-path="url(#a)" transform="matrix(1.25 0 0 -1.25 0 45)"><path d="M9 25c0 4.142-2 11-1 11s7-4 5-11c-1.138-3.983-.895-4-2-4-1.104 0-2-.142-2 4" fill="#99aab5"/><path d="M9.55 24.296c0 3.414-1.297 9.065-.648 9.065.648 0 4.538-3.297 3.24-9.065-.737-3.282-.58-3.296-1.296-3.296-.716 0-1.296-.118-1.296 3.296" fill="#f4abba"/><path d="M4.789 23.625C3.727 27.628.034 33.744.999 34c.968.257 7.793-2.07 7.656-9.349-.077-4.141.16-4.096-.907-4.379-1.067-.283-1.897-.65-2.96 3.353" fill="#99aab5"/><path d="M5.5 23.086c-.876 3.299-3.579 8.429-2.953 8.595.627.167 5.232-2.022 5.46-7.93.128-3.361.284-3.335-.408-3.52-.693-.182-1.223-.444-2.099 2.855" fill="#f4abba"/><path d="M36 7.5a3.5 3.5 0 1 0-7 0 3.5 3.5 0 0 0 7 0" fill="#ccd6dd"/><path d="M30.733 4.264C32.226 5.647 33 7.783 33 11c0 7.18-6.82 11-14 11-2.057 0-3.829-.157-5.324-.54C12.591 22.59 10.817 23 8.4 23 4.135 23 0 18.932 0 14.667c0-4.13 3.88-4.636 7.998-4.664L8 10c3-5 1-10 3-10 1.588 0 1.914 2.217 1.981 4.375a14.873 14.873 0 0 1 3.531-1.577C15.634 2.275 15 1.73 15 1.5 15 .119 17 0 20 0c5.522 0 13 0 11 4a.705.705 0 0 1-.267.264" fill="#99aab5"/><path d="M7 18a1 1 0 1 0-2 0 1 1 0 0 0 2 0" fill="#292f33"/><path d="M2 15c0-1.104-.5-2-1-2s-1 .896-1 2c0 1.105.448 1 1 1s1 .105 1-1" fill="#f4abba"/></g></svg>