<svg xmlns="http://www.w3.org/2000/svg" viewBox="0 0 45 45"><defs><clipPath id="a"><path d="M0 36h36V0H0v36z"/></clipPath></defs><g clip-path="url(#a)" transform="matrix(1.25 0 0 -1.25 0 45)"><path d="M36 24c0 4.252-3.141 7-8 7a1 1 0 1 1 0-2c1.804 0 6-.487 6-5 0-2.881-1.851-4.172-4.054-4.692-.164.073-.328.147-.508.192C25.937 20.375 25 19 19 19c-4.165 0-5.439 4.407-6.832 7.106C11.802 28.152 10.801 32 10 32c-.61 0-1.405-2.027-1.933-4.062C7.41 29.473 6.553 31 6 31c-.711 0-1.42-2.525-1.771-4.706C2.362 25.02 1 23.173 1 21c0-3 7-5 7-5 2.118-1.104 2.743-2.767 3.305-4.276C13.367 5.34 13.119 0 14.5 0 15.881 0 17 3.357 17 7.5c0 .212-.005.42-.011.627 3.155.101 6.755 1.075 9.79.293C28.139 3.927 28.466 0 29.5 0c.958 0 1.79 3.784 2.209 7.484.031.141.054.297.054.493l.01.108c.032.319.061.636.087.948l.515 5.592c0 1.112-.254 2.217-.754 3.103C34.449 18.779 36 20.941 36 24" fill="#c1694f"/><path d="M8 23a1 1 0 1 0-2 0 1 1 0 0 0 2 0M3 22.625C2 22 2 20 1.5 20S0 21.176 0 22.625c0 1.45 4.229.769 3 0" fill="#292f33"/><path d="M3 19.5a.5.5 0 0 0-.223.947c2.14 1.07 6.174.08 6.345.038a.499.499 0 1 0-.243-.97c-.038.01-3.846.942-5.655.038A.497.497 0 0 0 3 19.5" fill="#662113"/><path d="M8 17.5a.5.5 0 0 0-.277.084C7.692 17.604 4.825 19.5 3 19.5a.5.5 0 0 0 0 1c2.127 0 5.15-1.999 5.278-2.084a.5.5 0 0 0-.279-.916" fill="#662113"/></g></svg>