<svg xmlns="http://www.w3.org/2000/svg" viewBox="0 0 45 45"><defs><clipPath id="a"><path d="M0 36h36V0H0v36z"/></clipPath></defs><g clip-path="url(#a)" transform="matrix(1.25 0 0 -1.25 0 45)"><path d="M36 28.999c-2-3-2 1-5-2-3 2-3-3-6 0 .899-2.699 3.419-4.574 6.1-4.926-.277-1.789.202-3.946-2.1-6.073-2.008-1.857-3.023-.312-8 2.999-3 1.996-5 4-10 3C5.117 20.822 0 16 0 14S3 .031 21 .031c2 0 5.243.664 8 2.969 5.955 4.978 5.882 15.349 4.58 19.456 1.78 1.127 2.42 4.15 2.42 6.543" fill="#3b88c3"/><path d="M30.214 4.188c.149.165.289.338.429.51 1.879 2.35 2.902 5.348 3.355 8.29C31.998 7.992 30.992 3 20 3 9 3 5 16 0 14 0 12 3 .031 21 .031c2 0 5.243.664 8 2.97a11.836 11.836 0 0 1 1.214 1.187" fill="#55acee"/><path d="M8 14.5a1.5 1.5 0 1 0-3 0 1.5 1.5 0 0 0 3 0" fill="#292f33"/></g></svg>