<svg xmlns="http://www.w3.org/2000/svg" viewBox="0 0 45 45"><defs><clipPath id="a"><path d="M0 36h36V0H0v36z"/></clipPath></defs><g clip-path="url(#a)" transform="matrix(1.25 0 0 -1.25 0 45)"><path d="M32.855 19.516c-.26.17-.543.329-.854.484-2 1-5 0-9 0-2 0-4.902 3-10 3-.802 0-2.256-.634-4.341-.89C8.62 23.163 8.045 24 7.334 24 6.597 24 6 23.105 6 22c0-.051.007-.1.01-.15C3.19 21.084 0 17.412 0 15.625 0 13.625 2 12 2 12S3 12 5 14c1.58 1.582 5 1 5 1l1-12s-1-1-2-1-1-2-1-2h6l1 9h3c2 0 7 1 7 1 2-3 4-4 4-4V3l-2-1c-2-1-1-2-1-2h6s1 8 2 13V8a1 1 0 1 1 2 0v7c0 2.666-1.358 3.929-3.145 4.516" fill="#ffcc4d"/><path d="M5 19a1 1 0 1 0-2 0 1 1 0 0 0 2 0M0 16s0-2 1-2c0 2 1 2 1 2s-1 1-2 0" fill="#292f33"/><path d="M12 19.5a1.5 1.5 0 1 0-3.001.001A1.5 1.5 0 0 0 12 19.5" fill="#ffac33"/><path d="M10.5 20.5c-.551 0-1-.449-1-1 0-.551.449-1 1-1 .551 0 1 .449 1 1 0 .551-.449 1-1 1m0-3c-1.103 0-2 .897-2 2s.897 2 2 2 2-.897 2-2-.897-2-2-2" fill="#f4900c"/><path d="M19 19.5a1.5 1.5 0 1 0-3.001.001A1.5 1.5 0 0 0 19 19.5" fill="#ffac33"/><path d="M17.5 20.5c-.551 0-1-.449-1-1a1.001 1.001 0 1 1 1 1m0-3c-1.103 0-2 .897-2 2s.897 2 2 2 2-.897 2-2-.897-2-2-2" fill="#f4900c"/><path d="M16 14.5a1.5 1.5 0 1 0-3.001.001A1.5 1.5 0 0 0 16 14.5" fill="#ffac33"/><path d="M14.5 15.5a1.001 1.001 0 0 1 0-2 1.001 1.001 0 0 1 0 2m0-3c-1.103 0-2 .898-2 2 0 1.102.897 2 2 2s2-.898 2-2c0-1.102-.897-2-2-2" fill="#f4900c"/><path d="M23 12.5a1.5 1.5 0 1 0-3.001.001A1.5 1.5 0 0 0 23 12.5" fill="#ffac33"/><path d="M21.5 13.5a1 1 0 1 1 0-2 1 1 0 0 1 0 2m0-3c-1.102 0-2 .898-2 2 0 1.102.898 2 2 2 1.103 0 2-.898 2-2 0-1.102-.897-2-2-2" fill="#f4900c"/><path d="M26 17.5a1.5 1.5 0 1 0-3.001.001A1.5 1.5 0 0 0 26 17.5" fill="#ffac33"/><path d="M24.5 18.5a1.001 1.001 0 0 1 0-2 1 1 0 0 1 0 2m0-3c-1.102 0-2 .898-2 2 0 1.103.898 2 2 2 1.103 0 2-.897 2-2 0-1.102-.897-2-2-2" fill="#f4900c"/><path d="M30 12.5a1.5 1.5 0 1 0-2.999-.001A1.5 1.5 0 0 0 30 12.5" fill="#ffac33"/><path d="M28.5 13.5a1 1 0 1 1 0-2 1 1 0 0 1 0 2m0-3c-1.102 0-2 .898-2 2 0 1.102.898 2 2 2 1.103 0 2-.898 2-2 0-1.102-.897-2-2-2" fill="#f4900c"/><path d="M33 17.5a1.5 1.5 0 1 0-3.001.001A1.5 1.5 0 0 0 33 17.5" fill="#ffac33"/><path d="M31.5 18.5a1.001 1.001 0 0 1 0-2 1 1 0 0 1 0 2m0-3c-1.102 0-2 .898-2 2 0 1.103.898 2 2 2 1.103 0 2-.897 2-2 0-1.102-.897-2-2-2" fill="#f4900c"/></g></svg>