<svg xmlns="http://www.w3.org/2000/svg" viewBox="0 0 45 45"><defs><clipPath id="a"><path d="M0 36h36V0H0v36z"/></clipPath><clipPath id="b"><path d="M7 22c-3 0-7-4.375-7-6.375S2 12 2 12s2.171 1 5 1h3l1-10s-1-1-2-1-1-2-1-2h6l1 8h3c2 0 6 1 6 1 2-3 4-4 4-4V3l-2-1c-2-1-1-2-1-2h6s1 8 2 13 0 6-2 7-5 0-9 0c-2 0-3.901 3-9 3-1 0-3-1-6-1"/></clipPath></defs><g clip-path="url(#a)" transform="matrix(1.25 0 0 -1.25 0 45)"><path d="M32.338 19.148c-.367.33-.818.592-1.338.852-2 1-5 0-9 0-2 0-3.901 3-9 3-.801 0-2.256-.635-4.341-.89-.04 1.053-.614 1.89-1.326 1.89C6.597 24 6 23.105 6 22c0-.051.007-.1.01-.15C3.19 21.084 0 17.41 0 15.625 0 13.625 2 12 2 12s2.17 1 5 1h3l1-10s-1-1-2-1-1-2-1-2h6l1 8h3c2 0 6 1 6 1 2-3 4-4 4-4V3l-2-1c-2-1-1-2-1-2h6s1 8 2 13c.233 1.162.353 2.1.382 2.88A3.17 3.17 0 0 0 34 14c0-2.93 0-5.697-1.832-8.445a1 1 0 1 1 1.664-1.11C36 7.697 36 10.9 36 14c0 2.297-1.395 4.137-3.662 5.148" fill="#ffac33"/><path d="M6 19a1 1 0 1 0-2 0 1 1 0 0 0 2 0M0 16s0-2 1-2c0 2 1 2 1 2s-1 1-2 0" fill="#292f33"/></g><g clip-path="url(#b)" transform="matrix(1.25 0 0 -1.25 0 45)"><path d="M16 23s2-6 0-12c3 4 3 12 3 12s-2 1-3 0M19 22s2-4 1-9c2 3 2 9 2 9s-2 1-3 0M22 23s2-4 1-9c2 3 2 9 2 9s-2 1-3 0M25 24s2-4 1-9c2 3 2 9 2 9s-2 1-3 0M28 21.556s2-4 1-9c2 3 2 9 2 9s-2 1-3 0M12 24s2-4 1-9c2 3 2 9 2 9s-2 1-3 0" fill="#292f33"/></g></svg>