<svg xmlns="http://www.w3.org/2000/svg" viewBox="0 0 45 45"><defs><clipPath id="a"><path d="M0 36h36V0H0v36z"/></clipPath></defs><g clip-path="url(#a)" transform="matrix(1.25 0 0 -1.25 0 45)"><path d="M12.434 6.167c.627 6.708-4.417 7.542-6.417 6.083-1.097-.8-1.353-2.323-.48-1.521 1.543 1.416 2.085.375.918-.375-1.167-.75-1.375-2.146-.083-1.188 1.29.958 1.645.334.645-.895-.604-.745.042-1.438 1.167.062.938 1.251 3.2 1.294 2.662-2.99-.221-1.756 1.454-.608 1.588.824M20.375 27.19c-.583 3.5-1.125 5.247-4.625 5.83-3.5.584-6.417-1.75-6.417-1.75s.584 3.5 2.334 4.667c.686.459 1.166-1.75 1.75-1.75.583 0 1.166 1.75 2.916 1.75.584 0 .584-1.75 1.167-1.75.583 0 2.243.578 2.333 0 .126-.811-.167-1.728.292-2.103.459-.376 1.553.147 1.901-.49.349-.636-.61-1.553-.526-1.969.084-.417.719-.584.526-1.375-.192-.792-.65-.833-.692-1.417-.042-.582.885-1.08.692-1.685-.192-.606-.651-.688-.859-1.46-.208-.771.541-.65.333-1.44-.208-.79-.958-.99-1.208-1.766-.25-.773.666-.94.208-1.69-.458-.75-1.291-.875-1.333-1.333-.042-.458.209-.82.042-1.555-.167-.736-1.126-.362-1.209-.945-.083-.583.209-.875.209-1.583s-.709-.834-.626-1.542c.084-.708.75-.167 1.167-1 .417-.833-.249-1.583.209-2.083.458-.5 1.083.667 1.708.25.625-.417.677-1.25 1.359-1.375.683-.125.891 1.29 1.391 1.25.5-.042 1.625-.71 2.208-.417.583.292.541 1.459 1 1.959.459.5 1.042.04 1.458.583.416.542-.144 1.174-.062 1.966.084.792.854 1.242.813 1.867-.041.625-.667.625-.917 1.292s.458 1.25.208 1.875-1.332.833-1.291 1.458c.041.625.459 1.333.25 2.042-.209.708-1.084 1.167-1.042 1.708.042.542.499 1.25.583 1.646.084.396-.749.813-.666 1.479.083.667.624.62.832 1.223.208.602-.749.902-.249 1.673.5.77.751.27 1.167.687.416.417-.001 1.334.416 1.542.417.208 1.25.042 1.667.333.417.292.417.708.875.875.458.167 1.042-.541 1.417-.541s1.041.708 1.541.54c.5-.166 1.584-1.332.917-1.686-.667-.354-5.751-.605-5.792-2.938-.041-2.333 2.793-12.918 1.959-15.583-.834-2.666-4.291-8.334-8.25-7.25-3.959 1.083-8.667 3.5-7.542 7.209 1.125 3.708 4.749 11.295 5.458 14.772" fill="#3e721d"/><path d="M21 28.103c0-3.978-2.382-8.144-5.833-7.566-5.323.89-5.606 2.587-6.417 1.546-2.917-3.743-4.644.485-5.307 1.186C3.276 23.445 0 24.41 0 26.256c0 1.198 1.75 2.419 2.917 1.231 1.722.044 8.166 6.157 12.25 6.157 4.083 0 5.833-3.079 5.833-5.541" fill="#77b255"/><path d="M14.584 28.938a1.166 1.166 0 1 0-2.333-.002 1.166 1.166 0 0 0 2.333.002" fill="#292f33"/><path d="M2.917 25.729c0-.483-.392-.292-.875-.292s-.875-.191-.875.292a.875.875 0 0 0 1.75 0" fill="#3e721d"/><path d="M11.084 24.856c0-.645-.392-.583-.875-.583s-.875-.062-.875.583c0 .644.392 2.333.875 2.333s.875-1.689.875-2.333M8.75 24.273c0-.645-.392-.583-.875-.583S7 23.628 7 24.273c0 .644.392 2.333.875 2.333s.875-1.69.875-2.333" fill="#fff"/><path d="M11.001 24.848c-3.095-.442-6.215-1.224-7.558-1.579.167-.177.403-.579.708-1.02 1.473.38 4.254 1.05 7.015 1.444a.583.583 0 1 1-.165 1.155" fill="#3e721d"/><path d="M20.946 27.063c0-4.375-1.714-8.201-2.946-11.17-1.334-3.212-1-9 4-9s6.51 3.191 7 5c1.358 5.02-2 8-2 13 0 9 8 7 8 6s-6.934-1.374-3-9C35.933 14.267 36 0 22 0S8 8.893 10 12.893c1.416 2.832 4 7.107.5 9.044-2.283 1.264 10.446 5.126 10.446 5.126" fill="#77b255"/><path d="M11.335 28.229a.999.999 0 0 0-.707 1.707c.083.083 2.08 2.043 5.374 2.043a1 1 0 0 0 0-2c-2.435 0-3.945-1.442-3.96-1.457a.997.997 0 0 0-.707-.293" fill="#3e721d"/><path d="M10.709 10.667c.627 6.708-5.417 7.541-7.417 6.083-1.097-.8-1.353-2.323-.48-1.522 1.543 1.416 2.085.375.918-.375-1.167-.75-1.375-2.145-.083-1.187 1.29.958 1.645.334.645-.895-.604-.745.042-1.438 1.167.062.938 1.251 4.2 1.294 3.662-2.99-.222-1.756 1.453-.608 1.587.824" fill="#5c913b"/></g></svg>