<svg xmlns="http://www.w3.org/2000/svg" viewBox="0 0 45 45"><defs><clipPath id="a"><path d="M0 36h36V0H0v36z"/></clipPath></defs><g clip-path="url(#a)" transform="matrix(1.25 0 0 -1.25 0 45)"><path d="M25 1c-2.75 0-2 6-2 6 0 1.104 2.646 2 3.75 2C27.855 9 30 9.105 30 8c0 0-2.25-7-5-7" fill="#292f33"/><path d="M28 0c-2.75 0-2 6-2 6 0 1.104 2.646 2 3.75 2C30.855 8 33 8.104 33 7c0 0-2.25-7-5-7" fill="#66757f"/><path d="M14 1c-2.75 0-4 6-4 6 0 1.104 2.646 2 3.75 2C14.855 9 17 9.105 17 8c0 0-.25-7-3-7" fill="#292f33"/><path d="M17 0c-2.75 0-4 6-4 6 0 1.104 2.646 2 3.75 2C17.855 8 20 8.104 20 7c0 0-.25-7-3-7" fill="#66757f"/><path d="M35.75 14.616c0-7.782-4.495-11.408-14.519-11.408-10.023 0-13.481 3.626-13.481 11.408 0 7.783 3.458 11.407 13.481 11.407 10.024 0 14.519-3.624 14.519-11.407" fill="#e1e8ed"/><path d="M17 18.333C17 9 12.345 7 8.042 7 3.738 7 1 13.64 1 18.333 1 23.027 3.738 24 8.042 24 12.345 24 17 23.027 17 18.333" fill="#99aab5"/><path d="M6 15.5a1.5 1.5 0 1 0-3 0 1.5 1.5 0 0 0 3 0" fill="#292f33"/><path d="M15.75 23.25C14 20 13.622 20.644 8.622 18.644 5.545 17.413 0 17.75 0 22.5 0 24.433 3.687 25 7 25c3.314 0 10.409 1.331 8.75-1.75" fill="#e1e8ed"/><path d="M16 22.304c3.353-2.427 5.43-6.139 3.724-11.089-1.368-3.967-6.817-3.116-9.617-1.127-2.798 1.988-2.642 4.792-1.733 6.291.909 1.497 4.158 1.228 6.024-.097.934-.663.288-1.559-.72-1.068-2.292 1.118-3.037-1.444-1.246-2.882 1.265-1.016 3.274-1.049 3.655 1.01.671 3.63-3.505 6.274-7.465 5.301C11 20 13.161 24.36 16 22.304" fill="#ffcc4d"/></g></svg>