<svg xmlns="http://www.w3.org/2000/svg" viewBox="0 0 45 45"><defs><clipPath id="a"><path d="M0 36h36V0H0v36z"/></clipPath></defs><g clip-path="url(#a)" transform="matrix(1.25 0 0 -1.25 0 45)"><path d="M19 4c0-1-1.723-3-3.334-3C14.056 1 14 2.343 14 4s1.306 3 2.916 3C18.527 7 19 5.657 19 4M30 4c0-1-1.723-3-3.334-3C25.056 1 25 2.343 25 4s1.306 3 2.916 3C29.527 7 30 5.657 30 4" fill="#3e721d"/><path d="M36 11c0 6-3.172 9.171-6 12-1 1-1.399-.321-1-1 .508-.862 3-8-2-8h-2c-5 0-6.172 1.172-9 4-4.5 4.5-7 0-9 0-6 0-7 1.813-7-2 0-3 3-4 6-4s3-1 5-4c1.071-1.606 2.836-3.211 5.023-4.155C16.255 2.726 18.797 0 20.334 0 21.944 0 22 1.343 22 3h5c.034 0 .066.01.101.01.291-.005.586-.01.899-.01 0-1 1.723-3 3.334-3C32.944 0 33 1.343 33 3c0 .302-.057.587-.137.861C34.612 4.807 36 6.791 36 11" fill="#5c913b"/><path d="M10 17.877a1.5 1.5 0 1 1 3 0c0 .829-.671 0-1.5 0s-1.5.829-1.5 0" fill="#292f33"/><path d="M26 12c0-.553.672-1 1.5-1s1.5.447 1.5 1c0 .553-.672 1-1.5 1s-1.5-.447-1.5-1M22 12c0-.553.672-1 1.5-1s1.5.447 1.5 1c0 .553-.672 1-1.5 1s-1.5-.447-1.5-1M18 12c0-.553.672-1 1.5-1s1.5.447 1.5 1c0 .553-.672 1-1.5 1s-1.5-.447-1.5-1M20 10c0-.553.672-1 1.5-1s1.5.447 1.5 1c0 .553-.672 1-1.5 1s-1.5-.447-1.5-1M24 10c0-.553.672-1 1.5-1s1.5.447 1.5 1c0 .553-.672 1-1.5 1s-1.5-.447-1.5-1" fill="#77b255"/><path d="M6 14c-.389 0-1 1-1 1h2s-.611-1-1-1M4 13.531c-.389 0-1 1.47-1 1.47h2s-.611-1.47-1-1.47M2 13c-.389 0-1 2-1 2h2s-.611-2-1-2" fill="#fff"/></g></svg>