<svg xmlns="http://www.w3.org/2000/svg" viewBox="0 0 45 45"><defs><clipPath id="a"><path d="M0 36h36V0H0v36z"/></clipPath></defs><g clip-path="url(#a)" transform="matrix(1.25 0 0 -1.25 0 45)"><path d="M11.84 28.366c-.719 0-2.295-2.243-3.567-1.03-.44.42 1.818 1.279 1.727 2.018-.075.608-2.843 1.52-1.876 2.099.967.578 2.418-.841 3.513-.866 2.382-.055 4.212.853 4.238.866a1.082 1.082 0 0 0 1.464-.496 1.115 1.115 0 0 0-.488-1.486c-.13-.066-2.225-1.105-5.01-1.105" fill="#dd2e44"/><path d="M27.818 0c-3.967 0-8.182 2.912-8.182 8.308 0 1.374-.889 1.661-1.636 1.661-.746 0-1.637-.287-1.637-1.661C16.363 2.912 12.147 0 8.181 0S.001 2.77.001 8.308C0 21.6 14.18 23.435 14.18 21.6c0-1.835-7.636 1.108-7.636-12.185 0-2.215.89-2.769 1.636-2.769.747 0 1.637.288 1.637 1.662 0 5.395 4.215 8.307 8.182 8.307 3.965 0 8.181-2.912 8.181-8.307 0-1.374.89-1.662 1.637-1.662s1.636.288 1.636 1.662v16.615c0 3.855-3.417 4.431-5.454 4.431 0 0-3.273-1.108-6.546-1.108s-4.364 2.596-4.364 4.431S17.454 36 24 36c6.545 0 12-4.451 12-11.077V8.308C36 2.912 31.784 0 27.818 0" fill="#77b255"/><path d="M20 33a1 1 0 1 0-2 0 1 1 0 0 0 2 0" fill="#292f33"/></g></svg>