<svg xmlns="http://www.w3.org/2000/svg" viewBox="0 0 45 45"><defs><clipPath id="a"><path d="M0 36h36V0H0v36z"/></clipPath></defs><g clip-path="url(#a)" transform="matrix(1.25 0 0 -1.25 0 45)"><path d="M29 35c-4.139 0-6-3.509-6-6 0-2.57 2.43-5 5-5 1.92 0 3.468 1.28 3.766 3.113.231 1.426-.437 3.165-2.45 3.836a1 1 0 1 1-.632-1.898c1.173-.391 1.166-1.261 1.107-1.618C29.68 26.743 29.071 26 28 26c-1.458 0-3 1.542-3 3 0 1.305.978 4 4 4 2.898 0 5-2.523 5-6V12c0-3.576-1.352-5.685-4.285-6.544.11 1.017.193 2.223.24 3.655.604 3.163.103 7.131-1.776 10.889-1.865 3.727-5.926 5.939-10.024 5.695C17.924 30.812 15.121 35 9.407 35c-5.971 0-6.229-7-9.229-11.399-1.351-1.983 5.428-7.058 9.229-7.058l.043.002c.352-.029.801.009 1.361.13a9.223 9.223 0 0 1 1.719.489c2.731.835 4.376.891 5.319.443C17.137 14.239 14.027 11.379 12 8c-3-5 1-8 3-8 3 0 3 3 2 3-2 0-2.632 3.103-2 5 .658 1.974 2.609 3.521 3.871 6.053C18.608 12.373 18 10.457 18 9c0-4.568 1.17-6 6-6 .188 0 .36.034.541.052A3.091 3.091 0 0 0 24 3c-4.694 0-5.5-.896-5.5-2 0-.809.5-1 1.5-1h7c.651 0 1.728.003 2.398 3.321C33.782 4.244 36 7.152 36 12v15c0 4.561-3.01 8-7 8" fill="#bf6952"/><path d="M11.178 28.2a3.8 3.8 0 0 1-3.8 3.8 3.8 3.8 0 0 1-3.8-3.8c0-.274.032-.541.087-.8-1.033-.378-1.996-1.145-2.655-2.4a14.17 14.17 0 0 0-.832-1.4c-.71-1.043.83-2.943 3.004-4.51 1.956-1.408 5.996-.518 5.996 4.91 0 .29-.039.56-.097.822a3.784 3.784 0 0 1 2.097 3.379M13.822 29.5c0-1.933-.255-3.5 1.678-3.5a3.5 3.5 0 1 1 0 7c-1.933 0-1.678-1.567-1.678-3.5" fill="#d79e84"/><path d="M7.435 27.629c0-.9-.485-1.63-1.085-1.63s-1.086.73-1.086 1.63c0 .899.485 1.628 1.086 1.628.6 0 1.085-.73 1.085-1.628" fill="#292f33"/><path d="M4 24c0-.552-2.17-2-3.085-2S0 22.448 0 23h.915C2.001 23 4 24.552 4 24" fill="#642116"/></g></svg>