<svg xmlns="http://www.w3.org/2000/svg" viewBox="0 0 45 45"><defs><clipPath id="a"><path d="M0 36h36V0H0v36z"/></clipPath></defs><g clip-path="url(#a)" transform="matrix(1.25 0 0 -1.25 0 45)"><path d="M29 20.111s6 0 4 6c-1 3 1 1 2-1s2-8-5-7-1 2-1 2" fill="#662113"/><path d="M32.958 16.16c.027.313.042.596.042.84 0 .658-.063 1-.171 1.123-.896 2.946-5.522 2.896-10.853 2.88C18.989 21.024 17 25.102 17 26c0 5-4.848 6.182-7.5 3C7 26 2 29.037 2 26c0-5 3.358-8 7.5-8 .648 0 1.736.15 3.01.381.941-1.647 1.39-3.88 1.49-4.38.024-.12.05-.236.075-.354C14.51 9.027 16.756 0 18 0c1.07 0 1.681 2.484 1.902 5.4.886-.26 1.91-.4 3.098-.4 1.112 0 2.137.247 3.078.66C26.283 2.631 26.898 0 28 0c1.292 0 4.544 11.5 4.956 16.144l.002.015" fill="#d99e82"/><path d="M4 25.5c0-.829-1.171-1.5-2-1.5S.5 25.171.5 26s.671 1 1.5 1c2 0 2-.671 2-1.5M18 24c0-3.038-1.344-3.5-3-3.5-1.657 0-3 .462-3 3.5s.343 7 2 7 4-3.962 4-7" fill="#662113"/><path d="M11 27a1 1 0 1 0-2 0 1 1 0 0 0 2 0" fill="#292f33"/><path d="M31 16.5c0-1.38-1.343-2.5-3-2.5s-3 1.12-3 2.5c0 1.381 1.343 2.5 3 2.5s3-1.119 3-2.5M24 17.5a1.5 1.5 0 1 0-3.001.001A1.5 1.5 0 0 0 24 17.5M26 12.5a1.5 1.5 0 1 0-3.001.001A1.5 1.5 0 0 0 26 12.5" fill="#c1694f"/></g></svg>