<svg xmlns="http://www.w3.org/2000/svg" viewBox="0 0 45 45"><defs><clipPath id="a"><path d="M0 36h36V0H0v36z"/></clipPath></defs><g clip-path="url(#a)" transform="matrix(1.25 0 0 -1.25 0 45)"><path d="M24.88 30.05a6 6 0 0 1 2.116-8.217C29.85 20.15 31.316 19.146 33 22c1.686 2.854 2.483 12.243 1.62 12.751-.86.508-8.055-1.846-9.74-4.7" fill="#c1694f"/><path d="M24.621 26.612c-1.685-2.853-1.167-6.278 1.156-7.65 2.323-1.37 4.54-.17 6.223 2.684 1.685 2.854 2.103 9.82 1.402 10.234-.7.413-7.097-2.414-8.78-5.268" fill="#662113"/><path d="M11.12 30.05a6 6 0 0 0-2.116-8.217C6.15 20.15 4.684 19.146 3 22 1.314 24.853.518 34.242 1.379 34.75c.86.508 8.056-1.846 9.74-4.7" fill="#c1694f"/><path d="M11.378 26.612c1.685-2.853 1.167-6.278-1.156-7.65-2.323-1.37-4.539-.17-6.223 2.684-1.685 2.854-2.103 9.82-1.402 10.234.701.413 7.097-2.414 8.781-5.268" fill="#662113"/><path d="M35 14.521c0-9.989-1-14.52-17-14.52S1 4.531 1 14.52c0 9.99 7.011 19.48 17 19.48s17-9.49 17-19.48" fill="#c1694f"/><path d="M7.65 7s-3.64 3-4.64 11.5c-.235 1.986 1.695 1.977 2 0C6.01 12 11.36 8 14 6c2.255-1.708-6.35 1-6.35 1M28.35 7s3.64 3 4.64 11.5c.235 1.986-1.695 1.977-2 0C29.99 12 24.64 8 22 6c-2.254-1.708 6.35 1 6.35 1" fill="#e1e8ed"/><path d="M29 7c0-1.104-3.82-3-11-3S7 5.896 7 7s3.82-1 11-1 11 2.104 11 1"/><path d="M28 12.875C28 8.388 24.903 3.5 18 3.5c-6.904 0-10 4.888-10 9.375S11.096 18.5 18 18.5c6.903 0 10-1.138 10-5.625" fill="#662113"/><path d="M15 11.4c0-1.857-.34-2.4-1.5-2.4s-1.5.543-1.5 2.4c0 1.856.34 2.4 1.5 2.4s1.5-.544 1.5-2.4M24 11.4c0-1.857-.34-2.4-1.5-2.4s-1.5.543-1.5 2.4c0 1.856.34 2.4 1.5 2.4s1.5-.544 1.5-2.4" fill="#c1694f"/><path d="M13 20.998a2 2 0 1 0-4 0C9 22.102 9.896 23 11 23c1.105 0 2-.898 2-2.002M27 20.998a2 2 0 1 0-4 0c0 1.104.896 2.002 2 2.002 1.105 0 2-.898 2-2.002" fill="#292f33"/></g></svg>