<svg xmlns="http://www.w3.org/2000/svg" viewBox="0 0 45 45"><defs><clipPath id="a"><path d="M0 36h36V0H0v36z"/></clipPath></defs><g clip-path="url(#a)" transform="matrix(1.25 0 0 -1.25 0 45)"><path d="M35 15H1a1 1 0 1 0 0 2h34a1 1 0 1 0 0-2M12.823 17l-.07.002c-.091.007-9.213.714-10.733 8.235a1 1 0 0 0 1.96.397c1.22-6.044 8.833-6.631 8.91-6.636A1.001 1.001 0 0 0 12.823 17M3 5a1 1 0 0 0-.905 1.424c3.165 6.77 11.037 7.721 11.371 7.758a1.004 1.004 0 0 0 1.104-.882 1.003 1.003 0 0 0-.882-1.107c-.07-.007-7.099-.876-9.783-6.617A1 1 0 0 0 3 5" fill="#292f33"/><path d="M22.753 17a1 1 0 0 0-.065 1.998c.08.005 8.116.617 9.332 6.636a.993.993 0 0 0 1.178.781 1 1 0 0 0 .783-1.178c-1.522-7.525-10.77-8.21-11.162-8.235a1.5 1.5 0 0 0-.066-.002M33.001 5a1 1 0 0 0-.907.576c-2.695 5.763-10.124 6.61-10.198 6.617a.999.999 0 0 0-.89 1.099.998.998 0 0 0 1.099.89c.351-.037 8.633-.984 11.801-7.758A1 1 0 0 0 33.001 5" fill="#292f33"/><path d="M24.99 28.234c-.07 2.626-1.278 4.216-3.096 5.04.067.226.106.47.106.726 0 1.105-.672 2-1.5 2s-1.5-.895-1.5-2c0-.015.003-.029.003-.043A13.16 13.16 0 0 1 18 34c-.342 0-.675-.018-1.004-.043.001.014.004.028.004.043 0 1.105-.672 2-1.5 2-.829 0-1.5-.895-1.5-2 0-.257.04-.5.105-.726-1.817-.824-3.025-2.414-3.095-5.04C7.98 26.45 6 23.338 6 19c0-7.16 5.372-16.923 12-16.923S30 11.84 30 19c0 4.338-1.98 7.45-5.01 9.234" fill="#292f33"/><path d="M16.001 1.041C9.564 1.636 4.5 7.936 4.5 15.622c0 7.685 5.064 10.781 11.499 11.377.331.031 1.001.046 1.001-2.294V2.164c0-1.17-.669-1.155-.999-1.123M19.999 1.041C26.435 1.636 31.5 7.936 31.5 15.622c0 7.685-5.065 10.781-11.5 11.377-.33.031-1 .046-1-2.294V2.164c0-1.17.67-1.155.999-1.123" fill="#dd2e44"/><path d="M15 21a2 2 0 1 0-4 0 2 2 0 0 0 4 0M13 14a3 3 0 1 0-6 0 3 3 0 0 0 6 0M15 7a2 2 0 1 0-4 0 2 2 0 0 0 4 0M27 21.5a2.5 2.5 0 1 0-5 0 2.5 2.5 0 0 0 5 0M24 15.5a1.5 1.5 0 1 0-3.001.001A1.5 1.5 0 0 0 24 15.5M30 13a2 2 0 1 0-4 0 2 2 0 0 0 4 0M27 7a3 3 0 1 0-6 0 3 3 0 0 0 6 0" fill="#292f33"/></g></svg>