<svg xmlns="http://www.w3.org/2000/svg" viewBox="0 0 45 45"><defs><clipPath id="a"><path d="M0 36h36V0H0v36z"/></clipPath></defs><g clip-path="url(#a)" transform="matrix(1.25 0 0 -1.25 0 45)"><path d="M7.415 32c1 1 .25 4-1.437 4-1.688 0-1.563-2-.563-2s1-2 1-3 1 1 1 1M3.232 30.28c1 1 .25 4-1.437 4-1.688 0-1.563-2-.563-2s1-2 1-3 1 1 1 1" fill="#aa8dd8"/><path d="M29.607 3.144c.19-.808 1.227-2.28 2.032-2.091.806.19 1.077 1.97.888 2.778a1.501 1.501 0 0 1-2.92-.687M24.173 2.495c.003-.83.68-2.498 1.509-2.495.828.004 1.494 1.677 1.49 2.506a1.5 1.5 0 0 1-3-.01M18.902 4.941c-.326-.764-.365-2.563.396-2.89.762-.324 2.037.948 2.363 1.71a1.503 1.503 0 0 1-.789 1.97 1.502 1.502 0 0 1-1.97-.79M13.871 15.981c-.812-.172-2.308-1.173-2.139-1.983.173-.81 1.946-1.124 2.757-.953.811.17 1.33.966 1.16 1.777a1.502 1.502 0 0 1-1.778 1.16M11.834 20.981c-.812-.172-2.308-1.173-2.139-1.983.173-.81 1.946-1.124 2.757-.953.811.17 1.329.966 1.16 1.777a1.502 1.502 0 0 1-1.778 1.16" fill="#744eaa"/><path d="M27.244 2c2.831 0 4.926.877 5.266 1.027a4.501 4.501 0 0 1 2.284 5.94 4.497 4.497 0 0 1-5.872 2.314c-.133-.05-1.793-.648-3.343.073-1.85.861-2.995 3.308-3.628 5.209-.143.429-.385 1.274-.686 2.316-1.866 6.471-2.832 8.285-3.983 9.82-3.71 4.949-9.592 5.294-12.483 4.714a4.501 4.501 0 0 1 1.765-8.826c.162.026 2.204.306 3.424-1.168.644-1.287 2.08-5.129 2.63-7.034.346-1.199.63-2.171.794-2.667 1.773-5.318 4.666-8.893 8.603-10.629A12.874 12.874 0 0 1 27.245 2" fill="#9266cc"/><path d="M5.682 31a1 1 0 1 1 1.999 0 1 1 0 0 1-2 0" fill="#fff"/><path d="M30.923 3.036a1.002 1.002 0 0 0-.965 1.268c.757 2.721-.77 4.542-.785 4.56a1 1 0 0 0 1.518 1.302c.09-.108 2.234-2.66 1.195-6.398a1.002 1.002 0 0 0-.963-.732M23.724 3.599a.998.998 0 0 0-.73 1.684c1.485 1.587 1.453 4.193 1.452 4.219a1.001 1.001 0 0 0 .97 1.029 1.015 1.015 0 0 0 1.03-.972c.004-.14.073-3.437-1.992-5.644a.997.997 0 0 0-.73-.316M15.182 12.295a1 1 0 0 0-.163 1.986c3.074.51 4.774 2.377 4.792 2.396a.999.999 0 1 0 1.5-1.322c-.087-.1-2.156-2.415-5.964-3.046a.935.935 0 0 0-.165-.014M18.102 7.439a1 1 0 0 0-.302 1.953c2.694.853 3.88 2.83 3.892 2.85a.999.999 0 1 0 1.724-1.013c-.063-.107-1.594-2.662-5.012-3.743a.995.995 0 0 0-.302-.047M13.484 18.108a1 1 0 0 0-.124 1.992c2.689.341 4.657 1.971 4.676 1.988a1 1 0 0 0 1.293-1.526c-.096-.082-2.42-2.029-5.718-2.446a.903.903 0 0 0-.127-.008M11.663 22.875a1.001 1.001 0 0 0-.3 1.955c3.13.983 4.254 2.69 4.3 2.764.295.462.91.604 1.376.312a.997.997 0 0 0 .324-1.366c-.06-.097-1.507-2.395-5.4-3.62a1.003 1.003 0 0 0-.3-.045" fill="#744eaa"/></g></svg>