<svg xmlns="http://www.w3.org/2000/svg" viewBox="0 0 45 45"><defs><clipPath id="a"><path d="M0 36h36V0H0v36z"/></clipPath></defs><g clip-path="url(#a)" transform="matrix(1.25 0 0 -1.25 0 45)"><path d="M7.44 28.497c-1 4 3.687 6 8 4 .907-.42.948-1.316 0-1-3 1-6-1-4-4 1.109-1.664-3.233-2.068-4 1" fill="#ffac33"/><path d="M6.136 30.215c-1 4 3.687 6 8 4 .907-.42.95-1.316 0-1-3 1-6-1-4-4 1.11-1.664-3.233-2.068-4 1" fill="#ffcc4d"/><path d="M5 21.215c0-4-2-4.827-2-4 0 2-1 0-1 1v3c0 1.657.671 3 1.5 3s1.5-1.343 1.5-3" fill="#e1e8ed"/><path d="M35.16 25.51c-.682 1.644-2.314 2.706-4.16 2.706a1 1 0 1 1 0-2c1.034 0 1.941-.578 2.311-1.471.341-.824.168-1.758-.455-2.647-.984 1.506-2.602 2.618-4.856 2.618-2.39 0-7.279-.714-10.828-1.29a4.048 4.048 0 0 1-.172.29c-2 3-4 8.157-7 8.157-4 0-10-4.986-10-9.157 0-2.545 5.738-2.93 7.486-2.99.697-1.43 1.414-2.933 2.232-4.328.066-.205.155-.43.282-.683 3-6 3.12-14.5 4.5-14.5 1.381 0 2.5 4.857 2.5 9 0 .15-.005.299-.007.447 3.126-.65 6.606-.322 9.677.61C28.118 5.229 28.44.216 29.5.216c1.342 0 2.432 8.818 2.494 13.12C33.316 14.775 34 16.49 34 18.215c0 .606-.086 1.23-.248 1.844 1.614 1.643 2.142 3.676 1.407 5.45" fill="#ccd6dd"/><path d="M8 26.715a1 1 0 1 0-2 .001 1 1 0 0 0 2 0" fill="#292f33"/></g></svg>