<svg xmlns="http://www.w3.org/2000/svg" viewBox="0 0 45 45"><defs><clipPath id="a"><path d="M0 36h36V0H0v36z"/></clipPath></defs><g clip-path="url(#a)" transform="matrix(1.25 0 0 -1.25 0 45)"><path d="M20.143 3.785a2.143 2.143 0 1 0-4.287 0 2.143 2.143 0 0 0 4.287 0" fill="#e1e8ed"/><path d="M27.643 20.357C27.643 25.683 23.325 30 18 30c-5.325 0-9.643-4.317-9.643-9.643C8.357 15 7.286 3.785 7.286 3.785a2.143 2.143 0 0 1 4.286 0 2.143 2.143 0 0 1 4.285 0h4.286a2.144 2.144 0 0 1 4.286 0 2.143 2.143 0 0 1 4.285 0S27.643 15 27.643 20.357" fill="#e1e8ed"/><path d="M20 33c0-2.209-1.447-6-2-6-.552 0-2 3.791-2 6s1.448 3 2 3c.553 0 2-.791 2-3M15.635 3c0 2.612 1.71 8 2.365 8 .654 0 2.365-5.388 2.365-8S18.653 0 18 0c-.654 0-2.365.388-2.365 3" fill="#dd2e44"/><path d="M25 13.5C25 12 20.209 9 18 9c-2.209 0-7 3-7 4.5s4.791 4.5 7 4.5c2.209 0 7-3 7-4.5" fill="#f4900c"/><path d="M25 13.5c0-1.5-14-1.5-14 0s4.791 4.5 7 4.5c2.209 0 7-3 7-4.5" fill="#ffac33"/><path d="M13 17.5a1.5 1.5 0 1 0-3 0 1.5 1.5 0 0 0 3 0M26 17.5a1.5 1.5 0 1 0-3.001.001A1.5 1.5 0 0 0 26 17.5" fill="#292f33"/></g></svg>