<svg xmlns="http://www.w3.org/2000/svg" viewBox="0 0 45 45"><defs><clipPath id="a"><path d="M0 36h36V0H0v36z"/></clipPath><clipPath id="b"><path d="M7.719 16C7.719 9.866 12.322 3 18 3c5.679 0 10.282 6.866 10.282 13 0 6.133-4.603 8.923-10.282 8.923-5.678 0-10.281-2.79-10.281-8.923"/></clipPath><clipPath id="c"><path d="M0 36h36V0H0v36z"/></clipPath></defs><g clip-path="url(#a)" transform="matrix(1.25 0 0 -1.25 0 45)"><path d="M19 3c0-1.657-.447-3-1-3-.552 0-1 1.343-1 3s.448 3 1 3c.553 0 1-1.343 1-3M25.753 34.753c-.586.586-1.693.428-2.475-.354-.611-.611-1.948-2.53-2.222-3.62-.884.196-1.93.22-3.056.22-1.125 0-2.172-.024-3.055-.218-.275 1.089-1.611 3.007-2.223 3.618-.781.782-1.888.94-2.474.354-.586-.586-.428-1.693.353-2.475.51-.51 1.937-1.53 3.028-2.011-.821-.532-1.316-1.45-1.316-3.032 0-3.59 2.546-7.312 5.687-7.312 3.142 0 5.688 3.723 5.688 7.312 0 1.582-.496 2.499-1.316 3.032 1.09.482 2.517 1.5 3.027 2.01.782.783.94 1.89.354 2.476" fill="#292f33"/><path d="M28.281 16c0-6.134-4.603-13-10.28-13C12.321 3 7.718 9.866 7.718 16c0 6.133 4.603 8.923 10.281 8.923 5.678 0 10.281-2.79 10.281-8.923" fill="#292f33"/></g><g clip-path="url(#b)" transform="matrix(1.25 0 0 -1.25 0 45)"><path d="M29 17H7v4h22v-4zM29 9H7v4h22V9zM29 1H7v4h22V1z" fill="#ffcc4d"/><path d="M18 22c0-2.647-7.858-10-12-10s-6 5.354-6 8 1.858 1.585 6 1.585c4.143 0 12 3.06 12 .415M18 22c0-2.647 7.857-10 12-10s6 5.354 6 8-1.857 1.585-6 1.585-12 3.06-12 .415" fill="#292f33"/></g><g clip-path="url(#c)" transform="matrix(1.25 0 0 -1.25 0 45)"><path d="M18 22.495c0-2.647-7.858-8.584-12-8.584S0 16.354 0 19c0 2.646 1.858 4.495 6 4.495 4.143 0 12 1.645 12-1M18 22.495c0-2.647 7.857-8.584 12-8.584s6 2.443 6 5.089c0 2.646-1.857 4.495-6 4.495s-12 1.645-12-1" fill="#ccd6dd"/><path d="M2 17a1 1 0 0 0-.002 2c.048.001 4.948.07 13.596 3.914a1 1 0 0 0 .812-1.828C7.317 17.047 2.213 17 2 17M34 17c-.213 0-5.316.047-14.406 4.086a1 1 0 0 0 .812 1.828C29.054 19.07 33.954 19.001 34.003 19A1 1 0 1 0 34 17" fill="#99aab5"/></g></svg>