<svg xmlns="http://www.w3.org/2000/svg" viewBox="0 0 45 45"><defs><clipPath id="a"><path d="M0 36h36V0H0v36z"/></clipPath></defs><g clip-path="url(#a)" transform="matrix(1.25 0 0 -1.25 0 45)"><path d="M33.738 15.632c-.799 5.542-5.186 9.78-12.563 9.78-.292 0-.62-.012-.963-.03a25.527 25.527 0 0 1-4.399-.56 34.048 34.048 0 0 1-2.254-.514c-.775 1.05-2.342 2.163-2.736 2.163-.512 0-.038-1.871-.006-3.052-.88-.35-1.684-.742-2.347-1.183-3.176-2.118-3.176-3.177-6.838-3.177C0 19.059.044 17.4.044 15.354c0-2.046-.044-2.618 1.588-3.707C3.815 10.19 6.363 8.034 9.584 6.26 11.608 3.114 9.91 0 11.647 0c1.227 0 2.807 1.964 3.648 3.945a22.747 22.747 0 0 1 5.88-.77c1.142 0 2.205.09 3.202.246C24.65 1.476 24.217 0 25.412 0c1.555 0 6.998 4.994 8.218 11.29.06.287.103.582.141.882.012.09.03.18.038.27.021.2.031.405.041.609 1.047-.274 2.15-.692 2.15.175 0 .705-1.119 1.716-2.262 2.406" fill="#f4abba"/><path d="M10.588 19.059a1.06 1.06 0 1 0-2.119 0 1.06 1.06 0 0 0 2.119 0" fill="#292f33"/></g></svg>