<svg xmlns="http://www.w3.org/2000/svg" viewBox="0 0 45 45"><defs><clipPath id="a"><path d="M0 36h36V0H0v36z"/></clipPath></defs><g clip-path="url(#a)" transform="matrix(1.25 0 0 -1.25 0 45)"><path d="M11.983 32.438c4.544.262 7.824-1.597 8.089-6.826.215-4.19-5.183-6.79-8.046-6.879-2.462-.077-1.353 1.853.61 2.335 1.576.387 4.123 2.412 3.602 4.44-.597 2.32-4.315 2.684-6.351-.292-.798-1.167-3.553-.872-4.095.434-.958 2.308 1.21 6.501 6.19 6.788" fill="#ffac33"/><path d="M35.75 14.616c0 7.783-4.495 11.407-14.519 11.407-1.086 0-2.083-.05-3.018-.137-1.36 2.423-4.845 2.828-8.213 2.828-4.304 0-10-6.145-10-10.839 0-4.609 3.606-4.866 7.811-4.874.233-3.245 1.226-5.647 3.249-7.26.277-1.15 1.534-5.74 3.94-5.74 1.353 0 2.099 1.694 2.51 3.416a31.056 31.056 0 0 1 3.721-.209c1.733 0 3.289.116 4.696.335C26.017 1.886 26.458 0 28 0c2.317 0 4.273 4.956 4.834 6.52 1.969 1.87 2.916 4.546 2.916 8.096" fill="#e1e8ed"/><path d="M6 20.214a1.5 1.5 0 1 0-3 0 1.5 1.5 0 0 0 3 0" fill="#292f33"/><path d="M17.563 31.661c4.312-1.455 5.74-4.148 4.034-9.099-1.368-3.966-7.346-4.36-10.035-3.375-2.312.85-.561 2.224 1.439 1.938 1.606-.23 4.727.698 4.999 2.773.313 2.375-3 4.102-6 2.102-1.176-.785-5.774-.43-5.5.958.638 3.225 6.336 6.298 11.063 4.703" fill="#ffcc4d"/></g></svg>