<svg xmlns="http://www.w3.org/2000/svg" viewBox="0 0 45 45"><defs><clipPath id="a"><path d="M0 36h36V0H0v36z"/></clipPath></defs><g clip-path="url(#a)" transform="matrix(1.25 0 0 -1.25 0 45)"><path d="M10 24c3-5 0-10.692-3-9.692s-4-2-1-3 9.465.465 13 4c1 1 2 1 2 1L10 24z" fill="#553788"/><path d="M26 24c-3-5 0-10.692 3-9.692s4-2 1-3-9.465.465-13 4c-1 1-2 1-2 1L26 24z" fill="#553788"/><path d="M30.189 20c-3-5 0-10.692 3-9.692s4-2 1-3-9.465.464-13 4c-1 1-2 1-2 1l11 7.692zM5.811 20c3-5 0-10.692-3-9.692s-4-2-1-3 9.465.464 13 4c1 1 2 1 2 1L5.811 20z" fill="#744eaa"/><path d="M33.188 4.625c-2.73-.91-6.425 5.626-4.812 10.578C30.022 18.446 31 22.06 31 25c0 7.18-5.82 11-13 11-7.179 0-13-3.82-13-11 0-2.94.978-6.554 2.624-9.797C9.236 10.251 5.542 3.715 2.812 4.625c-3 1-4-3-1-4s8.31.627 12 4c2.188 2 4.188 2 4.188 2s2 0 4.189-2c3.69-3.373 9-5 12-4s2 5-1 4" fill="#9266cc"/><path d="M16 15a2 2 0 1 0-4 0 2 2 0 0 0 4 0M24 15a2 2 0 1 0-4 0 2 2 0 0 0 4 0" fill="#292f33"/></g></svg>