<svg xmlns="http://www.w3.org/2000/svg" viewBox="0 0 45 45"><defs><clipPath id="a"><path d="M0 36h36V0H0v36z"/></clipPath></defs><g clip-path="url(#a)" transform="matrix(1.25 0 0 -1.25 0 45)"><path d="M7.5 11.484a.999.999 0 0 0-.707 1.707L22.81 29.206a.999.999 0 1 0 1.414-1.414L8.207 11.777a.997.997 0 0 0-.707-.293M15.782 23.222a1.001 1.001 0 0 0-.784 1.621c.113.144 2.572 3.361.971 7.571a1 1 0 0 0 1.87.711c2.017-5.307-1.139-9.357-1.275-9.527a.998.998 0 0 0-.782-.376M19.672 19.334a.997.997 0 0 0-.782 1.621c.137.172 3.434 4.196 9.323 2.725a.999.999 0 1 0-.484-1.94c-4.623 1.157-7.172-1.905-7.28-2.036a.998.998 0 0 0-.777-.37M6.454 17.49c-1.096 0-2.301.185-3.58.67a1 1 0 0 0 .71 1.87c4.22-1.604 7.439.866 7.574.972a1.003 1.003 0 0 0 1.403-.166.998.998 0 0 0-.16-1.4c-.128-.104-2.493-1.947-5.947-1.947M8.018 25.555c-1.829 0-4.968.482-7.542 3.332a1 1 0 0 0 1.485 1.34c3.023-3.348 7.015-2.62 7.184-2.587a.999.999 0 1 0 .393-1.961 8.256 8.256 0 0 0-1.52-.124" fill="#292f33"/><path d="M9.34 25.66a1 1 0 0 0-.982 1.195c.035.172.76 4.161-2.586 7.183a1 1 0 0 0 1.34 1.485c4.215-3.806 3.25-8.849 3.208-9.062a1 1 0 0 0-.98-.802M13.289 7.03a1 1 0 0 0-.97.757c-1.472 5.895 2.554 9.185 2.727 9.323a1 1 0 0 0 1.249-1.56c-.14-.116-3.187-2.668-2.035-7.279a1 1 0 0 0-.971-1.242" fill="#292f33"/><path d="M29.844 16.833c-2.96 2.959-6.095 3.569-8.915 2.069-.157 1.873-1.166 4.007-2.521 5.363-1.488 1.487-3.007 1.653-4.405 1.044 1.058 2.464.6 5.43-.826 6.856-1.842 1.842-4.594.411-7.174-2.169s-4.012-5.331-2.168-7.174c1.425-1.426 4.39-1.883 6.857-.825-.61-1.397-.445-2.918 1.043-4.405 1.355-1.355 3.489-2.364 5.363-2.521-1.5-2.82-.891-5.954 2.069-8.915C22.917 2.407 31.37.629 33.37 2.629s.223 10.455-3.527 14.204" fill="#292f33"/></g></svg>