<svg xmlns="http://www.w3.org/2000/svg" viewBox="0 0 45 45"><defs><clipPath id="a"><path d="M0 36h36V0H0v36z"/></clipPath></defs><g clip-path="url(#a)" transform="matrix(1.25 0 0 -1.25 0 45)"><path d="M33 19c.461-.184.902-3-1-3-6 0-11-11-20-11S1 17.5 1 20s4.82 10 12 10 15-9 20-11" fill="#d99e82"/><path d="M3 17c0-.553-.671-1-1.5-1S0 16.447 0 17c0 .553 0 2 1.5 1 .689-.46 1.5-.447 1.5-1" fill="#d99e82"/><path d="M33 19c.461-.184.876-.687-1-1-6-1-10.045.896-19 0-10-1-12-1-12 2 0 2.5 4.82 10 12 10s15-9 20-11" fill="#c1694f"/><path d="M30 18.5c0-2.485 3.343-4.5 5-4.5s0 2.015 0 4.5 1.657 4.5 0 4.5-5-2.015-5-4.5" fill="#d99e82"/><path d="M8 23a1 1 0 1 0-2 0 1 1 0 0 0 2 0" fill="#292f33"/><path d="M19.16 11S22 7 24 7s0 5 0 5h-2.84c-3 0-2-1-2-1" fill="#d99e82"/><path d="M21.35 27.077S24.21 29.894 26 29c4.075-2.036-2-4-2-4l-1.592.106c-2.993.2-1.057 1.971-1.057 1.971M18 11a2 2 0 1 0-4 0 2 2 0 0 0 4 0M21 15a1 1 0 1 0-2 0 1 1 0 1 0 2 0M26 15.5a1.5 1.5 0 1 0-3.001.001A1.5 1.5 0 0 0 26 15.5" fill="#c1694f"/><path d="M18 21.5a1.5 1.5 0 1 0-2.999-.001A1.5 1.5 0 0 0 18 21.5M25 20.5a1.5 1.5 0 1 0-3 0 1.5 1.5 0 0 0 3 0M21 25a1 1 0 1 0-2 0 1 1 0 0 0 2 0" fill="#662113"/><path d="M3 19c0-.552 1-2-1.5-1-.77.308-1.5.448-1.5 1s.671 1 1.5 1S3 19.552 3 19" fill="#c1694f"/></g></svg>