<svg xmlns="http://www.w3.org/2000/svg" viewBox="0 0 45 45"><defs><clipPath id="a"><path d="M0 36h36V0H0v36z"/></clipPath></defs><g clip-path="url(#a)" transform="matrix(1.25 0 0 -1.25 0 45)"><path d="M17 26.5A8.5 8.5 0 0 0 8.5 18 8.5 8.5 0 0 0 0 26.5 8.5 8.5 0 0 0 8.5 35a8.5 8.5 0 0 0 8.5-8.5M36 26.5a8.5 8.5 0 1 0-17 0 8.5 8.5 0 0 0 17 0" fill="#99aab5"/><path d="M13.813 25.969a5.844 5.844 0 1 0-11.689 0 5.844 5.844 0 0 0 11.688 0M33.875 25.969a5.844 5.844 0 1 0-11.688 0 5.844 5.844 0 0 0 11.688 0" fill="#f4abba"/><path d="M30 18c0-7.18-8-15-12-15S6 10.82 6 18s7 9 12 9 12-1.82 12-9" fill="#99aab5"/><path d="M20.905 6.352C20.905 4.748 18.893 3 18 3c-.894 0-2.906 1.748-2.906 3.352 0 1.605 1.788 1.956 2.906 1.956 1.117 0 2.905-.351 2.905-1.956" fill="#f4abba"/><path d="M34.999 3.84a.994.994 0 0 0-.514.143C29.857 6.76 23.207 5.86 23.141 5.85a.991.991 0 0 0-1.13.849.999.999 0 0 0 .847 1.13c.301.043 7.411 1.015 12.657-2.132a1 1 0 0 0-.516-1.857" fill="#66757f"/><path d="M32.001.84a.997.997 0 0 0-.801.4c-2.728 3.637-8.308 4.604-8.364 4.614a.999.999 0 0 0-.822 1.15.993.993 0 0 0 1.15.822c.262-.044 6.433-1.115 9.636-5.386a1 1 0 0 0-.799-1.6M1.001 3.84a1 1 0 0 0-.516 1.857C5.73 8.844 12.84 7.872 13.142 7.83a1 1 0 0 0-.283-1.98c-.066.009-6.717.909-11.344-1.867a.994.994 0 0 0-.514-.143" fill="#66757f"/><path d="M3.999.84a1 1 0 0 0-.799 1.6c3.203 4.27 9.375 5.342 9.635 5.386a1 1 0 0 0 .33-1.972c-.056-.01-5.648-.992-8.365-4.614a1 1 0 0 0-.801-.4" fill="#66757f"/><path d="M12 15s0 2 2 2 2-2 2-2v-2s0-2-2-2-2 2-2 2v2zM20 15s0 2 2 2 2-2 2-2v-2s0-2-2-2-2 2-2 2v2z" fill="#272b2b"/></g></svg>