<svg xmlns="http://www.w3.org/2000/svg" viewBox="0 0 45 45"><defs><clipPath id="a"><path d="M0 36h36V0H0v36z"/></clipPath><clipPath id="b"><path d="M2.263 16.966c-.44-.761-2.257-.963-2.263-1.718v-.009c.003-.326.343-.755 1.273-1.375-3.102-2.07.45-2.244 1.223-3.104 2.625-2.919 8.996-6.204 14.291-6.204 6.853 0 13.444 5.556 13.444 12.41 0 6.853-5.17 14.479-13.444 14.479-8.274 0-12.061-10.217-14.524-14.479"/></clipPath><clipPath id="c"><path d="M0 36h36V0H0v36z"/></clipPath></defs><g clip-path="url(#a)" transform="matrix(1.25 0 0 -1.25 0 45)"><path d="M8.231 26c6 8 14 10 18 10 1 0 1-1 0-1s-6-2-7-9-11 0-11 0M7.231 8c4-3 13-8 18-8 3 0 2 1 1 1s-9 3-10 7-9 0-9 0" fill="#ffac33"/><path d="M29 17c0-4.418 3.791-10 6-10s-2 5.582-2 10 4.209 10 2 10c-2.209 0-6-5.582-6-10" fill="#ffcc4d"/><path d="M30.231 16.966c0-6.854-6.59-12.41-13.445-12.41-5.294 0-11.666 3.285-14.29 6.205-.774.859-4.326 1.034-1.223 3.102-3.103 2.069.36 2.012.99 3.103 2.462 4.263 6.25 14.479 14.523 14.479 8.274 0 13.445-7.625 13.445-14.48" fill="#ffcc4d"/></g><g clip-path="url(#b)" transform="matrix(1.25 0 0 -1.25 0 45)"><path d="M19.001 17l-.034.001a.999.999 0 0 0-.966 1.032c.249 7.54 7.294 10.748 7.594 10.881a1 1 0 1 0 .812-1.828c-.253-.113-6.2-2.85-6.408-9.119a1 1 0 0 0-.998-.967M24.001 19a1 1 0 0 0-.982 1.196C23.937 24.787 27.987 26 30 26a1 1 0 0 0 .004-2c-.173-.001-4.201-.085-5.024-4.196a1 1 0 0 0-.979-.804" fill="#f4900c"/><path d="M14 15a1 1 0 0 0-1 1c0 12.598 10.605 15.926 10.713 15.958a1 1 0 0 0 .575-1.916C23.881 29.917 15 27.06 15 16a1 1 0 0 0-1-1" fill="#f4900c"/></g><g clip-path="url(#c)" transform="matrix(1.25 0 0 -1.25 0 45)"><path d="M11 20.5a1.5 1.5 0 1 0-2.999-.001A1.5 1.5 0 0 0 11 20.5" fill="#292f33"/></g></svg>