<svg xmlns="http://www.w3.org/2000/svg" viewBox="0 0 45 45"><defs><clipPath id="a"><path d="M0 36h36V0H0v36z"/></clipPath></defs><g clip-path="url(#a)" transform="matrix(1.25 0 0 -1.25 0 45)"><path d="M13 30a6 6 0 1 0-12 0 6 6 0 0 0 12 0M24 6a6 6 0 1 0-12 0 6 6 0 0 0 12 0" fill="#ffcc4d"/><path d="M22 6a4 4 0 1 0-8 0 4 4 0 0 0 8 0" fill="#dd2e44"/><path d="M35 30a6 6 0 1 0-12 0 6 6 0 0 0 12 0" fill="#ffcc4d"/><path d="M11 30a4 4 0 1 0-8 0 4 4 0 0 0 8 0M33 30a4 4 0 1 0-8 0 4 4 0 0 0 8 0" fill="#e6aaaa"/><path d="M34 14c0-7-4.923-7-4.923-7H6.923S2 7 2 14c0 0 1.231 22 16 22 14.77 0 16-22 16-22" fill="#ffcc4d"/><path d="M11 19s0 2 2 2 2-2 2-2v-2s0-2-2-2-2 2-2 2v2zM21 19s0 2 2 2 2-2 2-2v-2s0-2-2-2-2 2-2 2v2z" fill="#272b2b"/><path d="M23.678 13c-2.402 0-4.501-.953-5.678-2.378C16.823 12.047 14.723 13 12.322 13 2 13 2.042 12.579 2 9.818 1.913 4.208 8.63 2.918 12.322 3c2.4.053 4.5.989 5.678 2.398C19.177 3.989 21.277 3.053 23.678 3c3.69-.082 10.409 1.208 10.32 6.818-.042 2.761 0 3.182-10.32 3.182" fill="#fff"/><path d="M33.66 10.758c.204-.28.333-.588.34-.94.03-1.905-.746-3.302-1.916-4.327L27 5l6.661 5.758zM15 11c-1-1 2-4 3-4s4 3 3 4-5 1-6 0M10 33c2.667-2 8-4 8-4s5.333 2 8 4l-8-1-8 1zM18 34s1.652.62 3.576 1.514A13.125 13.125 0 0 1 18 36c-1.295 0-2.48-.178-3.576-.486C16.348 34.62 18 34 18 34M11 27c3-2 7-4 7-4s4 2 7 4l-7-1-7 1zM31.645 24.715L27 21l6.006-.75a36.367 36.367 0 0 1-1.362 4.465M33.556 17.556L28 12h5.835c.102.595.165 1.25.165 2 0 0-.081 1.43-.444 3.556M2.444 17.556C2.081 15.43 2 14 2 14c0-.748.063-1.405.165-2H8l-5.556 5.556zM2.339 10.758c-.204-.28-.333-.588-.34-.94-.03-1.905.746-3.302 1.917-4.327L9 5l-6.661 5.758zM9 21l-4.644 3.715a36.022 36.022 0 0 1-1.361-4.466L9 21z" fill="#272b2b"/></g></svg>