<svg xmlns="http://www.w3.org/2000/svg" viewBox="0 0 45 45"><defs><clipPath id="a"><path d="M0 36h36V0H0v36z"/></clipPath></defs><g clip-path="url(#a)" transform="matrix(1.25 0 0 -1.25 0 45)"><path d="M28.068 4.644C25.84 4.644 19.6 3.86 18 2.813 16.4 3.86 10.16 4.646 7.931 4.646c-2.565 0-1.16-1.04-1.16-2.322 0-1.283-1.405-2.324 1.16-2.324 2.23 0 8.468.786 10.07 1.832C19.6.785 25.838 0 28.067 0c2.565 0 1.161 1.041 1.161 2.323 0 1.283 1.404 2.322-1.16 2.322" fill="#ffac33"/><path d="M31.73 20.134c-1.25 2.499-3.152 4.995-4.942 6.723C24.337 32.289 20.758 36 18 36c-2.759 0-6.337-3.71-8.788-9.142-1.79-1.73-3.693-4.225-4.943-6.724C1.831 15.258 1.153 8.708 2.191 8.19c.873-.437 2.324 1.55 4.208 5.082.267-10.876 7.047-10.95 11.602-10.95 4.552 0 11.333.074 11.6 10.948 1.884-3.53 3.335-5.517 4.207-5.08 1.038.518.36 7.068-2.077 11.944" fill="#292f33"/><path d="M21.675 29.057c-.85-.607-2.172-1.186-3.675-1.186-1.503 0-2.825.579-3.675 1.186-3.302-2.137-5.615-7.061-5.615-12.8 0-7.694 4.159-13.934 9.29-13.934 5.132 0 9.29 6.24 9.29 13.935 0 5.738-2.312 10.662-5.615 12.799" fill="#f5f8fa"/><path d="M28.452 30h-5.808C18.797 30 18 30.78 18 31.743c0 .962-.364 1.741 3.483 1.741 5.808 0 8.13-3.484 6.97-3.484" fill="#ffac33"/><path d="M16.839 32.517a1.161 1.161 0 1 0-2.323-.001 1.161 1.161 0 0 0 2.323 0" fill="#f5f8fa"/></g></svg>