<svg xmlns="http://www.w3.org/2000/svg" viewBox="0 0 45 45"><defs><clipPath id="a"><path d="M0 36h36V0H0v36z"/></clipPath></defs><g clip-path="url(#a)" transform="matrix(1.25 0 0 -1.25 0 45)"><path d="M8.512 20c0-1.656 1.974-3-.512-3-2.485 0-7.988 2-7.988 3s3.515 3 6 3 2.5-1.343 2.5-3M27.88 2.902a.977.977 0 0 1-.418.391C25.865 5 27 7 27 7c0 .552 1 2 0 2l-1-1c-1-1-1-4-1-4h-2a1 1 0 1 1 0-2h1.108l-.222-.12a1 1 0 0 1 .95-1.76l2.64 1.427a.999.999 0 0 1 .404 1.355M20.88 2.902a.977.977 0 0 1-.418.391C18.865 5 20 7 20 7c0 .552 1 2 0 2l-1-1c-1-1-1-4-1-4h-2a1 1 0 1 1 0-2h1.108l-.222-.12a1 1 0 0 1 .95-1.76l2.64 1.427a.999.999 0 0 1 .404 1.355" fill="#ffac33"/><path d="M35.217 18.625c-1.342 0-7.904-4.613-11.553 5.375-.005.014-.011.024-.017.038a9.497 9.497 0 0 1-7.813 6.858C13.138 33.312 9 33.44 9 32c0-.958 1.15-1.227 2.564-1.468C7.756 29.295 5 25.721 5 21.5c0-4.479 3.103-8.223 7.274-9.227C13.277 8.103 17.022 5 21.5 5c3.953 0 6.934 1.678 8.99 3.999.555.626.112-.603.842-.235 4.24 2.132 5.168 9.861 3.885 9.861" fill="#3b88c3"/><path d="M12 24a2 2 0 1 0-4 0 2 2 0 0 0 4 0" fill="#292f33"/><path d="M21.81 20s-2-10 10-10c1 0 0-2-4-2s-9.998 5-7 11c.634 1.265 1 1 1 1" fill="#269"/></g></svg>