<svg xmlns="http://www.w3.org/2000/svg" viewBox="0 0 45 45"><defs><clipPath id="a"><path d="M0 36h36V0H0v36z"/></clipPath></defs><g clip-path="url(#a)" transform="matrix(1.25 0 0 -1.25 0 45)"><path d="M29.213 18.43c2.079 1.323 4.403 3.87 4.403 8.674a1 1 0 1 1-2 0c0-3.827-1.742-5.863-3.34-6.93-1.583 1.304-4.9 1.29-8.068 1.29-4.361 0-7.896-1.65-7.896-5.076 0-3.426 3.535-4.388 7.896-4.388 2.143 0 4.356.644 6.056 1.702 1.099-3.606 4.092-10.287 5.35-10.287 1.558 0-2.383 12.683-2.383 14.665 0 .13-.006.245-.018.35" fill="#ccd6dd"/><path d="M13.44 3.415c-1.558 0-2.947 10.221-2.947 12.202 0 1.984 1.261 3.59 2.82 3.59 1.556 0 2.818-1.606 2.818-3.59 0-1.981-1.135-12.202-2.692-12.202" fill="#ccd6dd"/><path d="M23.592 16.951c0-4.982-2.608-9.023-7.592-9.023s-10.011 4.06-10.456 9.023c-.544 6.05 2.91 8.05 7.896 8.05 4.983 0 10.152-3.065 10.152-8.05M16.824 2.287C16.824.42 15.308.031 13.44.031c-1.87 0-3.384.388-3.384 2.256a3.385 3.385 0 0 0 6.768 0M35 2.287C35 .42 33.484.031 31.615.031c-1.868 0-3.384.388-3.384 2.256a3.385 3.385 0 0 0 6.769 0M36 27.104a3.385 3.385 0 1 0-6.77.001 3.385 3.385 0 0 0 6.77-.001" fill="#99aab5"/><path d="M14.567 26.896c0-1.869-2.778-3.384-6.204-3.384-3.426 0-7.332 4.512-7.332 5.64 0 1.128 3.906 1.128 7.332 1.128 3.426 0 6.204-1.515 6.204-3.384" fill="#ccd6dd"/><path d="M16.837 33.47c-.044 1.16-.581 2.45-4.525 2.45-2.804 0-6.768-3.265-6.768-4.511 0-1.247 2.272-2.256 5.076-2.256.322 0 .65.03.983.083-.283-1.2-.42-2.572-.42-4.032 0-4.672 1.398-6.204 4.513-6.204s4.512 1.532 4.512 6.204c0 4.057-1.056 7.443-3.371 8.266" fill="#66757f"/><path d="M2.256 29.872a1.128 1.128 0 1 0-2.256 0 1.128 1.128 0 0 0 2.256 0" fill="#292f33"/></g></svg>