<svg xmlns="http://www.w3.org/2000/svg" viewBox="0 0 45 45"><defs><clipPath id="a"><path d="M0 36h36V0H0v36z"/></clipPath></defs><g clip-path="url(#a)" transform="matrix(1.25 0 0 -1.25 0 45)"><path d="M17.38 2.902a.969.969 0 0 1-.417.391C15.366 5 16.5 7 16.5 7c0 .552 1 2 0 2l-1-1c-1-1-1-4-1-4h-2a1 1 0 1 1 0-2h1.108l-.222-.12a1 1 0 0 1 .95-1.76l2.64 1.427a.999.999 0 0 1 .404 1.355M23.5 4h-2s0 3-1 4l-1 1c-1 0 0-1.447 0-2 0 0 1.135-2.001-.462-3.707a.977.977 0 0 1-.418-.391 1 1 0 0 1 .404-1.355L21.663.12a1 1 0 1 1 .951 1.76l-.221.12H23.5a1 1 0 1 1 0 2" fill="#ffac33"/><path d="M34 12c-1 2-3 5-4 10h-.008c.001.052.008.102.008.154 0 5.944-4.324 10.865-9.996 11.82 1.189.259 2.031.508.996 1.026-1.115.558-2.23-.129-2.999-.846h-.002c-.769.717-1.883 1.404-2.999.846-1.035-.518-.193-.767.996-1.026C10.325 33.019 6 28.098 6 22.154c0-.052.007-.102.008-.154H6c-1-5-3-8-4-10-.447-.895 0-3 2-2 1.191.596 2.377 1.912 3.357 3.715C8.902 9.061 12.066 5 18 5c5.934 0 9.098 4.061 10.643 8.715.98-1.803 2.166-3.119 3.357-3.715 2-1 2.447 1.105 2 2" fill="#ffcc4d"/><path d="M21 22c0-1.657-1.343-2-3-2s-3 .343-3 2a3 3 0 1 0 6 0" fill="#f4900c"/><path d="M13 24.5a1.5 1.5 0 1 0-2.999-.001A1.5 1.5 0 0 0 13 24.5M26 24.5a1.5 1.5 0 1 0-3 0 1.5 1.5 0 0 0 3 0" fill="#662113"/></g></svg>