<svg xmlns="http://www.w3.org/2000/svg" viewBox="0 0 45 45"><defs><clipPath id="a"><path d="M0 36h36V0H0v36z"/></clipPath></defs><g clip-path="url(#a)" transform="matrix(1.25 0 0 -1.25 0 45)"><path d="M34.559 18c0 3.918-1.515 7.474-3.975 10.146A10.453 10.453 0 0 0 33.559 34c.704.704.25 2-1 2 0 0-6.061-.007-9.893-3.327a15.003 15.003 0 0 1-3.107.327c-8 0-12-4-14-12-.444-1.778-.865-1.399-3-3-1.195-.896-2.117-3 1-3 3 0 5-1 9-1 1.827 0 3.424.352 4.849.717.058-1.588.49-3.611 2.15-4.717 2.354-1.569 2.368-1.897 3 0 .815 2.443.289 3.574-1.01 5.525.71-.004 1.378-.145 2.01-.525 2.698-1.618 2.192-4.108.686-6.374-2.905-3.396-5.94-.541-8.685.374-3 1-1-1 0-2s1.312-4 0-6c-1.313-2 3 0 5 3 .01.017.02.028.032.045C28.39 4.5 34.559 10.064 34.559 18" fill="#3b88c3"/><path d="M15.117 22a2 2 0 1 0-4.001.001A2 2 0 0 0 15.117 22" fill="#292f33"/></g></svg>