<svg xmlns="http://www.w3.org/2000/svg" viewBox="0 0 45 45"><defs><clipPath id="a"><path d="M0 36h36V0H0v36z"/></clipPath></defs><g clip-path="url(#a)" transform="matrix(1.25 0 0 -1.25 0 45)"><path d="M9.842 16.078C9.842 6.236 16.417 6.405 15 6c-7-2-8.804 7.618-9.464 7.618-2.378 0-5.536.423-5.536 2.46C0 18.118 2.46 21 6.151 21c2.378 0 3.691-2.883 3.691-4.922M36 7.362c0-1.104-3.518.741-5 0-2-1-2 .896-2 2s1.343 1 3 1 4-1.896 4-3" fill="#77b255"/><path d="M16.715 2.857C16.715.097 15.435 0 13.858 0 12.278 0 11 .096 11 2.857c0 .49.085 1.03.234 1.587.69 2.59 2.754 5.556 4.052 5.556 1.578 0 1.429-4.382 1.429-7.143M25.286 2.857C25.286.097 26.564 0 28.142 0 29.722 0 31 .096 31 2.857a6.22 6.22 0 0 1-.235 1.587c-.69 2.59-2.753 5.556-4.05 5.556-1.579 0-1.429-4.382-1.429-7.143" fill="#77b255"/><path d="M32 9c0-4-5.149-4-11.5-4S9 5 9 9c0 6.627 5.149 12 11.5 12S32 15.627 32 9" fill="#3e721d"/><path d="M6 18a1 1 0 1 0-2 0 1 1 0 0 0 2 0" fill="#292f33"/><path d="M23.667 10.9c0-3.59-1.418-3.9-3.167-3.9-1.749 0-3.167.31-3.167 3.9S18.751 19 20.5 19c1.749 0 3.167-4.51 3.167-8.1M30 12c.871-3.482-.784-4-2.533-4-1.749 0-2.533-.69-2.533 2.9s-1.117 6.5.632 6.5S29 16 30 12M16.067 10.9c0-3.59-.785-2.9-2.534-2.9-1.75 0-3.403.517-2.533 4 1 4 3.25 5.4 5 5.4s.067-2.91.067-6.5" fill="#5c913b"/></g></svg>