<svg xmlns="http://www.w3.org/2000/svg" viewBox="0 0 45 45"><defs><clipPath id="a"><path d="M0 36h36V0H0v36z"/></clipPath></defs><g clip-path="url(#a)" transform="matrix(1.25 0 0 -1.25 0 45)"><path d="M4 28s-4-2-4-11c0 0 6 1 7 3 0 0 2 12.25-3 8M31.995 27.956s4-2 4-11c0 0-6 1-7 3 0 0-2 12.25 3 8" fill="#99aab5"/><path d="M1 35c-1.01-.99 1-8 5-9s4 5 3 5c-4 0-5.958 6-8 4M35.297 35c1.01-.99-1-8-5-9s-4 5-3 5c4 0 5.959 6 8 4" fill="#ffe8b6"/><path d="M21.976 5h-7.951C8.489 5 4 9.488 4 15.024v8.951C4 29.512 8.489 34 14.025 34h7.95C27.513 34 32 29.512 32 23.975v-8.951C32 9.488 27.512 5 21.976 5" fill="#ccd6dd"/><path d="M35 8c0-5.523-4.477-8-10-8H11C5.477 0 1 2.477 1 8s4.477 10 10 10h14c5.523 0 10-4.477 10-10" fill="#e6aaaa"/><path d="M11 10c0-1.657-.671-3-1.5-3S8 8.343 8 10s.671 3 1.5 3 1.5-1.343 1.5-3M28 10c0-1.657-.672-3-1.5-3S25 8.343 25 10s.672 3 1.5 3 1.5-1.343 1.5-3" fill="#c1694f"/><path d="M11 24s0 2 2 2 2-2 2-2v-2s0-2-2-2-2 2-2 2v2zM21 24s0 2 2 2 2-2 2-2v-2s0-2-2-2-2 2-2 2v2z" fill="#272b2b"/></g></svg>