<svg xmlns="http://www.w3.org/2000/svg" viewBox="0 0 45 45"><defs><clipPath id="a"><path d="M0 36h36V0H0v36z"/></clipPath></defs><g clip-path="url(#a)" transform="matrix(1.25 0 0 -1.25 0 45)"><path d="M31.595 20.993c-1.75 3.624-5.934 9.053-9.531 9.053-4.071 0-8.228-7.259-10.071-10.378a16.23 16.23 0 0 1-.464-.857c-3.37 1.183-.536 6.632-.536 10.463 0 .958-.138 1.637-.44 2.12.488.605.586 1.346.19 1.698-.411.367-1.192.163-1.743-.456-.08-.089-.13-.186-.19-.28a9.395 9.395 0 0 1-1.47.102c-.566 0-2.916-.266-4.23-.792C-.006 30.418.994 27 1.994 27h4c1 0 .756-2.31 0-4.726-.83-2.654-1.44-5.145-1-6.606.808-2.687 3.712-3.589 6.164-3.86 1.059-2.66 1.517-6.456 1.473-7.962-.06-2 1.94-2.059 1.999-.059.035 1.211-.103 3.68.143 5.781.658-2.833.935-6.097.899-7.314-.06-1.998 1.94-2.057 1.999-.059.047 1.602-.182 6.36.559 8.983a60.195 60.195 0 0 1 1.619-.036 53.508 53.508 0 0 1 5.506.015c1.05-1.592 1.996-2.99 1.982-3.435-.03-1-1.117-3.968-1.146-4.968-.03-1 .94-2.03 1.999-.059.648 1.205 1.324 3.42 1.536 5.421.17-.364.274-.656.268-.843-.03-1-.97-3.929-1-4.929-.028-.998.942-2.028 2-.059 1.059 1.971 1.998 4.898 1.058 6.928-.797 1.72.43 4.165.824 7.914 1.082-1.665 1.118-3.35 1.118-3.459a1 1 0 1 1 2 0c0 .213-.066 4.847-4.398 7.325" fill="#c1694f"/><path d="M8.28 30.43a1 1 0 1 0-2 .058 1 1 0 0 0 2-.059" fill="#292f33"/></g></svg>