<svg xmlns="http://www.w3.org/2000/svg" viewBox="0 0 45 45"><defs><clipPath id="a"><path d="M0 36h36V0H0v36z"/></clipPath></defs><path d="M3.438 24.166L6.25 20 10 23.75l5-2.5L18.75 25l5-7.5 5 3.75L32.5 20l2.5 3.75L38.75 20l2.5 5-2.5 8.75L25 40l-13.75-2.5-7.5-7.5-.313-5.834z" fill="#99aab5"/><g clip-path="url(#a)" transform="matrix(1.25 0 0 -1.25 0 45)"><path d="M29.956 21.288c.021.288.044.574.044.867 0 5.943-4.324 10.864-9.996 11.819 1.19.259 2.031.509.996 1.026-1.115.558-2.23-.13-2.999-.845h-.002c-.769.716-1.883 1.403-2.999.845-1.035-.517-.193-.767.996-1.026C10.326 33.019 6 28.098 6 22.154c0-.292.023-.578.044-.866C5.561 14.687-.259 5 18 5c18.26 0 12.438 9.687 11.956 16.288" fill="#ffcc4d"/><path d="M21 22c0-1.657-1.343-2-3-2s-3 .343-3 2a3 3 0 1 0 6 0" fill="#f4900c"/><path d="M13 24.5a1.5 1.5 0 1 0-2.999-.001A1.5 1.5 0 0 0 13 24.5M26 24.5a1.5 1.5 0 1 0-3 0 1.5 1.5 0 0 0 3 0" fill="#662113"/><path d="M31 11l-3 1-4-6-3 5-2-2-4 2-3-4-3 6-3-2-3.294 7.765A13.26 13.26 0 0 1 2 14.5C2 6.491 9.164 0 18 0s16 6.491 16 14.5c0 1.244-.191 2.444-.517 3.597L31 11z" fill="#e1e8ed"/></g></svg>