<svg xmlns="http://www.w3.org/2000/svg" viewBox="0 0 45 45"><defs><clipPath id="a"><path d="M0 36h36V0H0v36z"/></clipPath></defs><g clip-path="url(#a)" transform="matrix(1.25 0 0 -1.25 0 45)"><path d="M36 22.467C36 27.134 32.866 29 29 29c-1.621 0-3.285-.354-4.676-1.027-1.801 1.229-3.919 1.965-6.324 1.965s-4.523-.736-6.324-1.965C10.285 28.646 8.621 29 7 29c-3.866 0-7-1.866-7-6.533 0-3.844 2.128-6.417 5.038-7.206a20.141 20.141 0 0 1-.068-1.611c0-5.73 4.519-7.675 8.581-8.327C14.649 4.513 16.232 4 18 4c1.768 0 3.351.513 4.449 1.323 4.062.652 8.581 2.597 8.581 8.327 0 .538-.025 1.075-.068 1.61 2.91.79 5.038 3.363 5.038 7.207" fill="#99aab5"/><path d="M9.554 26.146a9.26 9.26 0 0 1-.954.054c-3.093 0-5.6-1.493-5.6-5.226 0-2.155.838-3.808 2.138-4.825.473 3.798 2.004 7.417 4.416 9.997M27.4 26.2c-.317 0-.637-.02-.955-.054 2.412-2.58 3.943-6.199 4.416-9.997 1.301 1.017 2.14 2.67 2.14 4.824 0 3.733-2.508 5.227-5.6 5.227" fill="#66757f"/><path d="M21.727 11.193C21.727 7.847 20 7 18 7s-3.727.847-3.727 4.193c0 3.345 1.727 6.057 3.727 6.057 2 0 3.728-2.712 3.728-6.057M14 16.125a1.5 1.5 0 1 0-3 0 1.5 1.5 0 0 0 3 0M25 16.125a1.5 1.5 0 1 0-3.001.001A1.5 1.5 0 0 0 25 16.125" fill="#292f33"/></g></svg>