<svg xmlns="http://www.w3.org/2000/svg" viewBox="0 0 45 45"><defs><clipPath id="a"><path d="M0 36h36V0H0v36z"/></clipPath></defs><g clip-path="url(#a)" transform="matrix(1.25 0 0 -1.25 0 45)"><path d="M13 30a6 6 0 1 0-12 0 6 6 0 0 0 12 0M35 30a6 6 0 1 0-12 0 6 6 0 0 0 12 0" fill="#272b2b"/><path d="M11 30a4 4 0 1 0-8 0 4 4 0 0 0 8 0M33 30a4 4 0 1 0-8 0 4 4 0 0 0 8 0" fill="#66757f"/><path d="M35 14c0-7-6.375-12-17-12S1 7 1 14c0 0 1.308 22 17 22s17-22 17-22" fill="#eee"/><path d="M24 6a6 6 0 1 0-12 0 6 6 0 0 0 12 0" fill="#ccd6dd"/><path d="M22 6a4 4 0 1 0-8 0 4 4 0 0 0 8 0" fill="#dd2e44"/><path d="M20.709 23.346C25.163 26.122 32 19 26.952 13.33 23.463 9.409 20 11 20 11s-2.636 10.26.709 12.346M15.267 23.335C10.813 26.111 3.976 18.99 9.023 13.32c3.49-3.92 6.953-2.329 6.953-2.329s2.636 10.26-.71 12.345" fill="#272b2b"/><path d="M11 19s0 2 2 2 2-2 2-2v-2s0-2-2-2-2 2-2 2v2z" fill="#66757f"/><path d="M18 16S7 12.314 7 9a6 6 0 0 1 11-3.314A6 6 0 0 1 29 9c0 3.314-11 7-11 7" fill="#fff"/><path d="M21 19s0 2 2 2 2-2 2-2v-2s0-2-2-2-2 2-2 2v2z" fill="#66757f"/><path d="M13.126 11C11.502 10 16.375 7 18 7c1.625 0 6.5 3 4.875 4s-8.124 1-9.75 0" fill="#272b2b"/></g></svg>