<svg xmlns="http://www.w3.org/2000/svg" viewBox="0 0 45 45"><defs><clipPath id="a"><path d="M0 36h36V0H0v36z"/></clipPath></defs><g clip-path="url(#a)" transform="matrix(1.25 0 0 -1.25 0 45)"><path d="M13 30a6 6 0 1 0-12 0 6 6 0 0 0 12 0M35 30a6 6 0 1 0-12 0 6 6 0 0 0 12 0" fill="#c1694f"/><path d="M11 30a4 4 0 1 0-8 0 4 4 0 0 0 8 0M33 30a4 4 0 1 0-8 0 4 4 0 0 0 8 0" fill="#e6aaaa"/><path d="M35 14s-1.308 22-17 22S1 14 1 14C1 8.128 5.499 3.677 13.216 2.39a5.982 5.982 0 0 1 9.568 0C30.501 3.677 35 8.128 35 14" fill="#c1694f"/><path d="M22 6a4 4 0 1 0-8 0 4 4 0 0 0 8 0" fill="#dd2e44"/><path d="M18 16S7 12.314 7 9a6 6 0 0 1 11-3.314A6 6 0 0 1 29 9c0 3.314-11 7-11 7" fill="#d99e82"/><path d="M11 19s0 2 2 2 2-2 2-2v-2s0-2-2-2-2 2-2 2v2zM21 19s0 2 2 2 2-2 2-2v-2s0-2-2-2-2 2-2 2v2zM13.126 11C11.502 10 16.375 7 18 7c1.625 0 6.5 3 4.875 4s-8.124 1-9.75 0" fill="#272b2b"/></g></svg>