<svg xmlns="http://www.w3.org/2000/svg" viewBox="0 0 45 45"><defs><clipPath id="a"><path d="M0 36h36V0H0v36z"/></clipPath></defs><path d="M7.5 28.75L1.25 25l2.5 7.5L2.5 35l7.5 6.25 8.75 2.5L22.5 30l-15-1.25zM37.5 28.75L43.75 25l-2.5 7.5L42.5 35 35 41.25l-8.75 2.5L22.5 30l15-1.25z" fill="#ccd6dd"/><g clip-path="url(#a)" transform="matrix(1.25 0 0 -1.25 0 45)"><path d="M11 29c0-3.866-3.032-7-6.771-7S3.101 36 3.101 36 11 32.866 11 29M24 6a6 6 0 1 0-12 0 6 6 0 0 0 12 0" fill="#66757f"/><path d="M22 6a4 4 0 1 0-8 0 4 4 0 0 0 8 0" fill="#dd2e44"/><path d="M31.77 22C28.031 22 25 25.134 25 29s7.9 7 7.9 7 2.61-14-1.13-14" fill="#66757f"/><path d="M9 28a4 4 0 0 0-4-4c-2.209 0 0 8 0 8s4-1.791 4-4M31 24a4 4 0 0 0-4 4c0 2.209 4 4 4 4s2.209-8 0-8" fill="#e6aaaa"/><path d="M34 14c0-7-6.923-7-6.923-7H8.923S2 7 2 14c0 0 1.231 19 16 19 14.77 0 16-19 16-19" fill="#66757f"/><path d="M11 19s0 2 2 2 2-2 2-2v-2s0-2-2-2-2 2-2 2v2zM21 19s0 2 2 2 2-2 2-2v-2s0-2-2-2-2 2-2 2v2z" fill="#272b2b"/><path d="M32.715 11.838L33.945 15l-2.63-2.666c-.387.1-.822.19-1.315.27V17l-2.518-4.121a55.155 55.155 0 0 1-3.804.12c-3.483 0-1.003-4.45-5.762-4.948-4.76.498-2.28 4.949-5.762 4.949-1.38 0-2.582-.04-3.643-.108L6 17v-4.366a15.098 15.098 0 0 1-1.348-.267L2.056 15l1.203-3.093C1.57 11.129 1.757 10.043 2.832 9c5.999-5.818 9-6 9.322-6 2.46 0 4.603.998 5.762 2.48C19.075 3.999 21.219 3 23.678 3 24 3 27 3.182 33 9c1.044 1.013 1.247 2.065-.285 2.838" fill="#ccd6dd"/><path d="M15 11c-1-1 0-4 3-4s4 3 3 4-5 1-6 0" fill="#272b2b"/></g></svg>