<svg xmlns="http://www.w3.org/2000/svg" viewBox="0 0 45 45"><defs><clipPath id="a"><path d="M0 36h36V0H0v36z"/></clipPath></defs><g clip-path="url(#a)" transform="matrix(1.25 0 0 -1.25 0 45)"><path d="M36 14c0-7.456-8.059-12-18-12S0 6.544 0 14s8.059 15 18 15 18-7.544 18-15" fill="#c6e5b3"/><path d="M31.755 23.324A5.986 5.986 0 0 1 34 28a5.999 5.999 0 1 1-11.85 1.315 11.795 11.795 0 0 1-4.15.758c-1.465 0-2.861-.275-4.15-.758A6 6 0 0 1 8 34a6 6 0 0 1-6-6c0-1.89.878-3.576 2.245-4.676C1.6 20.644 0 17.315 0 14c0-7.456 8.059-1 18-1 9.942 0 18-6.456 18 1 0 3.315-1.6 6.644-4.245 9.324" fill="#77b255"/><path d="M11 28.5a3.5 3.5 0 1 0-7 0 3.5 3.5 0 0 0 7 0" fill="#fff"/><path d="M9 28.5a1.5 1.5 0 1 0-2.999-.001A1.5 1.5 0 0 0 9 28.5" fill="#292f33"/><path d="M32 28.5a3.5 3.5 0 1 0-7 0 3.5 3.5 0 1 0 7 0" fill="#fff"/><path d="M30 28.5a1.5 1.5 0 1 0-3 0 1.5 1.5 0 0 0 3 0" fill="#292f33"/><path d="M15 16a1 1 0 1 0-2 0 1 1 0 0 0 2 0M23 16a1 1 0 1 0-2 0 1 1 0 1 0 2 0" fill="#5c913b"/></g></svg>