<svg xmlns="http://www.w3.org/2000/svg" viewBox="0 0 45 45"><defs><clipPath id="a"><path d="M0 36h36V0H0v36z"/></clipPath></defs><g clip-path="url(#a)" transform="matrix(1.25 0 0 -1.25 0 45)"><path d="M33.799 35.995c-.467.178-7.998-3.971-9.97-9.131-1.165-3.052-1.684-6.057-1.651-8.112C20.708 19.54 19.257 20 18 20c-1.257 0-2.71-.458-4.178-1.248.034 2.055-.486 5.06-1.651 8.112-1.971 5.16-9.503 9.309-9.97 9.13-.455-.173 4.268-16.042 7.025-20.836C6.805 12.595 5 9.338 5 6.172c0-3.234 1.635-5.14 4-5.94 2.53-.858 5 .94 9 .94s6.469-1.798 9-.94c2.365.8 4 2.706 4 5.94 0 3.166-1.805 6.423-4.224 8.985 2.755 4.794 7.479 20.664 7.023 20.838" fill="#99aab5"/><path d="M12.692 18.078c-.178 1.54-.68 3.55-1.457 5.584-1.534 4.016-5.686 7.245-6.05 7.107-.32-.122 2.628-10.14 4.784-14.864a19.017 19.017 0 0 0 2.723 2.173M26.03 15.906c2.156 4.723 5.102 14.741 4.784 14.862-.363.14-4.516-3.09-6.05-7.106-.777-2.034-1.279-4.044-1.457-5.584a19.149 19.149 0 0 0 2.723-2.172" fill="#f4abba"/><path d="M25 6c0-2.762-3.06-5-6.834-5-3.773 0-6.833 2.238-6.833 5s3.06 5 6.833 5C21.94 11 25 8.762 25 6" fill="#ccd6dd"/><path d="M21 5.422c0-2.762-.238-3-3-3-2.761 0-3 .238-3 3 0 1 6 1 6 0" fill="#fff"/><path d="M14 11.672a1.5 1.5 0 1 0-3 0 1.5 1.5 0 0 0 3 0M25 11.672a1.5 1.5 0 1 0-3.001.001A1.5 1.5 0 0 0 25 11.672" fill="#292f33"/><path d="M21 10.172c0-1.657-2-3-3-3s-3 1.343-3 3 6 1.657 6 0" fill="#f4abba"/></g></svg>