<svg xmlns="http://www.w3.org/2000/svg" viewBox="0 0 45 45"><defs><clipPath id="a"><path d="M0 0h36v36H0V0z"/></clipPath><clipPath id="b"><path d="M0 36h36V0H0v36z"/></clipPath></defs><g clip-path="url(#a)" transform="matrix(1.25 0 0 -1.25 0 45)"><path d="M36 29c0 4.939-6.772 4.457-9.169 4.132C24.398 34.921 21.444 36 18 36c-3.438 0-6.388-1.081-8.818-2.869C6.797 33.456 0 33.948 0 29c0-2.891 1.563-4.732 2.433-5.533A26.05 26.05 0 0 1 1 15C1 5.059 11 2 18 2s17 3 17 13c0 2.835-.483 5.751-1.426 8.473C34.445 24.278 36 26.117 36 29" fill="#bf6952"/><path d="M18 17c-.038 0-.074-.005-.111-.006l.111.111.111-.111c-.037.001-.073.006-.111.006m12 5a7 7 0 0 1-7 7 6.98 6.98 0 0 1-5-2.105A6.977 6.977 0 0 1 13 29a7 7 0 0 1-7-7c0-3.777 2.993-6.846 6.735-6.986A7.977 7.977 0 0 1 10 9a8 8 0 0 1 8-8 8 8 0 0 1 8 8c0 2.4-1.061 4.547-2.734 6.014A6.993 6.993 0 0 1 30 22" fill="#d79e84"/><path d="M18 2.5c-3.271 0-5.36 4.102-5.447 4.276A.5.5 0 0 0 13 7.5h10c.173 0 .334-.09.426-.237a.502.502 0 0 0 .021-.487C23.36 6.602 21.271 2.5 18 2.5M17 10.5a.5.5 0 0 0-.5.5v2a.5.5 0 0 0 1 0v-2a.5.5 0 0 0-.5-.5M19 10.5a.5.5 0 0 0-.5.5v2a.5.5 0 0 0 1 0v-2a.5.5 0 0 0-.5-.5" fill="#642116"/><path d="M15 20c0-1.656-.895-3-2-3-1.104 0-2 1.344-2 3 0 1.657.896 3 2 3 1.105 0 2-1.343 2-3M25 20c0-1.656-.895-3-2-3-1.104 0-2 1.344-2 3 0 1.657.896 3 2 3 1.105 0 2-1.343 2-3" fill="#292f33"/></g><g clip-path="url(#b)" transform="matrix(1.25 0 0 -1.25 0 45)"><path d="M19 17a1 1 0 1 0-1.998-.002A1 1 0 0 0 19 17" fill="#d79e84"/></g></svg>