<svg xmlns="http://www.w3.org/2000/svg" viewBox="0 0 45 45"><defs><clipPath id="a"><path d="M0 36h36V0H0v36z"/></clipPath></defs><g clip-path="url(#a)" transform="matrix(1.25 0 0 -1.25 0 45)"><path d="M32 24c2.122 2.122 5-14.313-3-21C26.243.695 23 .031 21 .031 18.629.031 10.971 0 8 0 .82 0 0 4.925 0 11s.82 11 8 11c6 0 10-2 13-3.996 4.977-3.312 5.992-3.861 8-2.004 3.213 2.97 1 6 3 8" fill="#744eaa"/><path d="M34.003 13C33.538 9.273 31.962 5.477 29 3 26.243.695 23 .031 21 .031 18.629.031 10.97 0 8 0 3.965 0 1.939 1.555.938 3.996.157 5.898 4 3 15 3c14 0 17 5 19.003 10" fill="#aa8dd8"/><path d="M32 22c4.123 0 4 5 4 7s-2-1-5-2-7 2-6 0 3-5 7-5" fill="#744eaa"/><path d="M10 29c0-2.209-.895-6-2-6-1.104 0-2 3.791-2 6s.896 2 2 2c1.105 0 2 .209 2-2" fill="#55acee"/><path d="M8 31c0 3-6 2-6 0s3-1 4-3 2 3 2 3M8 31c0 3 6 2 6 0s-3-1-4-3-2 3-2 3" fill="#55acee"/><path d="M8 10.5a1.5 1.5 0 1 0-3 0 1.5 1.5 0 0 0 3 0" fill="#292f33"/></g></svg>