<svg xmlns="http://www.w3.org/2000/svg" viewBox="0 0 45 45"><defs><clipPath id="a"><path d="M0 36h36V0H0v36z"/></clipPath></defs><g clip-path="url(#a)" transform="matrix(1.25 0 0 -1.25 0 45)"><path d="M34.193 22.67a6.01 6.01 0 0 1 1.02 1.28c1.685 2.854.27 10.293-.592 10.8-.696.412-5.53-1.05-8.246-3.131-2.499 1.497-5.344 2.38-8.375 2.38-3.022 0-5.856-.878-8.349-2.366-2.72 2.075-7.533 3.528-8.227 3.118-.86-.508-2.276-7.947-.592-10.8.278-.471.615-.884.99-1.25C.664 20.152 0 17.36 0 14.522 0 4.532 8.01 2 18 2s18 2.532 18 12.522c0 2.827-.66 5.605-1.807 8.149" fill="#f4abba"/><path d="M7.398 30.035c-2.166 1.268-4.402 2.08-4.8 1.845-.57-.336-1.083-4.998-.351-8.264a20.366 20.366 0 0 0 5.15 6.42M33.753 23.616c.732 3.267.219 7.928-.351 8.265-.398.234-2.634-.578-4.8-1.846a20.316 20.316 0 0 0 5.15-6.42M28 12.875C28 8.388 24.903 3.5 18 3.5c-6.904 0-10 4.888-10 9.375S11.096 18.5 18 18.5c6.903 0 10-1.138 10-5.625" fill="#ea596e"/><path d="M15 11.4c0-1.857-.34-2.4-1.5-2.4s-1.5.543-1.5 2.4c0 1.856.34 2.4 1.5 2.4s1.5-.544 1.5-2.4M24 11.4c0-1.857-.34-2.4-1.5-2.4s-1.5.543-1.5 2.4c0 1.856.34 2.4 1.5 2.4s1.5-.544 1.5-2.4" fill="#662113"/><path d="M9 19a2 2 0 1 0-4.001.001A2 2 0 0 0 9 19M31 19a2 2 0 1 0-4 0 2 2 0 0 0 4 0" fill="#292f33"/></g></svg>