<svg xmlns="http://www.w3.org/2000/svg" viewBox="0 0 45 45"><defs><clipPath id="a"><path d="M0 36h36V0H0v36z"/></clipPath></defs><g clip-path="url(#a)" transform="matrix(1.25 0 0 -1.25 0 45)"><path d="M17 26.5A8.5 8.5 0 0 0 8.5 18 8.5 8.5 0 0 0 0 26.5 8.5 8.5 0 0 0 8.5 35a8.5 8.5 0 0 0 8.5-8.5M36 26.5a8.5 8.5 0 1 0-17 0 8.5 8.5 0 0 0 17 0" fill="#ffcc4d"/><path d="M13.912 30.146a6.886 6.886 0 0 1-5.443 2.667A6.902 6.902 0 1 1 5.558 19.65c.71 4.196 3.984 8.673 8.354 10.496M27.531 32.813a6.884 6.884 0 0 1-5.443-2.668c4.37-1.823 7.643-6.3 8.353-10.496a6.901 6.901 0 0 1-2.91 13.163" fill="#ea596e"/><path d="M34 13.407c-2 10.045-11.333 6.5-16 6.5s-14 3.545-16-6.5C.705 6.903 5.794 3.528 11.032 2.02 12.682.788 15.19 0 18 0c2.811 0 5.318.788 6.969 2.021C30.206 3.53 35.295 6.903 34 13.407" fill="#ffe8b6"/><path d="M30.6 18c0-11-5.641-6-12.6-6-6.96 0-12.6-5-12.6 6 0 5.799 5.64 13 12.6 13 6.959 0 12.6-7.201 12.6-13" fill="#ffcc4d"/><path d="M20.905 8.044c0-1.604-2.012-3.352-2.905-3.352-.894 0-2.906 1.748-2.906 3.352C15.094 9.649 16.882 10 18 10c1.117 0 2.905-.351 2.905-1.956" fill="#ea596e"/><path d="M35.515 5.697C30.27 8.843 23.16 7.872 22.859 7.83c-.014-.002-.024-.01-.037-.013-.081-.015-.154-.048-.228-.08-.046-.022-.093-.036-.134-.062-.06-.04-.107-.092-.158-.144-.041-.04-.084-.076-.117-.123-.036-.052-.056-.11-.082-.17-.027-.062-.058-.12-.071-.189-.004-.016-.015-.029-.018-.045-.01-.055.006-.106.006-.16-.001-.048-.016-.094-.01-.145.003-.016.013-.027.016-.042.012-.069.04-.13.067-.193.025-.06.044-.12.079-.173.029-.044.068-.076.102-.115.053-.058.103-.115.168-.159.038-.026.083-.04.125-.06a.926.926 0 0 1 .228-.088c.015-.003.027-.013.04-.016.057-.01 5.637-.976 8.366-4.613a.993.993 0 0 1 .8-.4.998.998 0 0 1 .799 1.599c-1.108 1.48-2.573 2.567-4.025 3.37 1.88-.243 3.942-.765 5.71-1.827a.999.999 0 0 1 1.029 1.715M13.83 6.293c.033.052.052.111.076.169.027.064.055.124.068.193.003.016.013.029.016.044.007.053-.009.103-.009.155 0 .05.013.099.005.151-.003.016-.013.027-.016.043-.015.069-.046.131-.075.194-.025.057-.045.115-.08.165-.032.047-.075.082-.115.123-.05.053-.099.106-.16.146-.04.025-.087.039-.13.059a.886.886 0 0 1-.23.081c-.015.003-.025.012-.038.014C12.84 7.872 5.73 8.844.485 5.697a1 1 0 0 1 1.03-1.715c1.768 1.061 3.83 1.583 5.71 1.826-1.453-.802-2.917-1.89-4.025-3.369A.999.999 0 1 1 4.8 1.24c2.717 3.622 8.31 4.604 8.365 4.614.015.002.026.011.04.015.077.016.145.049.215.082.048.023.098.039.141.07.06.04.104.092.153.143.04.043.083.08.115.129" fill="#c1694f"/><path d="M10 16s0 2 2 2 2-2 2-2v-2s0-2-2-2-2 2-2 2v2zM22 16s0 2 2 2 2-2 2-2v-2s0-2-2-2-2 2-2 2v2z" fill="#272b2b"/></g></svg>