<svg xmlns="http://www.w3.org/2000/svg" viewBox="0 0 45 45"><defs><clipPath id="a"><path d="M0 36h36V0H0v36z"/></clipPath></defs><g clip-path="url(#a)" transform="matrix(1.25 0 0 -1.25 0 45)"><path d="M33 19c1.072 6.084 1.262 15.048 0 15.864-1.262.815-10.072-2.216-11.914-6.263-1.005.267-3.087.399-3.087.399s-2.013-.132-3.017-.399C13.14 32.648 4.261 35.679 3 34.864 1.738 34.048 1.926 25.084 3 19c0 0-.967-1.979-.967-8.95l16 3.967v.837l16-4.837C34.033 17.021 33 19 33 19" fill="#ffcb4e"/><path d="M23.946 16.718c-2.085 0-4.273-.477-5.913-1.281-1.639.804-3.827 1.28-5.912 1.28-9.932 0-10.088-5.1-10.088-6.663C2.033 8.494 4 .02 18 .02s16.033 8.44 16.033 10c0 1.564-.156 6.697-10.087 6.697" fill="#ffd882"/><path d="M23.406 27.946c2.17 2.383 6.681 4.172 7.607 3.945.752-.18.635-6.386.032-9.937-2.563 4.25-7.639 5.992-7.639 5.992M12.66 27.946c-2.168 2.383-6.68 4.172-7.606 3.945-.753-.18-.636-6.386-.03-9.937 2.562 4.25 7.636 5.992 7.636 5.992" fill="#f28f20"/><path d="M22.04 16c0 4.693-1.809 13-4.04 13s-4.04-8.307-4.04-13c0-4.695 1.809-2 4.04-2s4.04-2.695 4.04 2" fill="#faaa35"/><path d="M15.02 19.001c0-1.105-.904-2-2.02-2a2.01 2.01 0 0 0-2.02 2c0 1.104.905 1.998 2.02 1.998 1.116 0 2.02-.894 2.02-1.998M25.04 19c0-1.105-.905-2-2.02-2A2.01 2.01 0 0 0 21 19c0 1.104.904 1.998 2.02 1.998 1.115 0 2.02-.894 2.02-1.998" fill="#2a2f33"/><path d="M18.02 7.125a1 1 0 0 0-1 1V11a1 1 0 1 0 2 0V8.125a1 1 0 0 0-1-1" fill="#f28f20"/><path d="M22.07 4.918c-4.002 0-4.957 2.761-5 2.896a.998.998 0 0 0 .64 1.261.997.997 0 0 0 1.255-.624c.044-.116.876-2.137 4.838-1.345a.995.995 0 0 0 1.177-.785.999.999 0 0 0-.784-1.176 10.769 10.769 0 0 0-2.126-.227" fill="#f28f20"/><path d="M13.93 4.918c-.631 0-1.336.068-2.126.227a.999.999 0 0 0-.784 1.176.994.994 0 0 0 1.177.785c4.002-.798 4.848 1.27 4.882 1.359a1.01 1.01 0 0 0 1.278.591.993.993 0 0 0 .61-1.252c-.046-.136-1.034-2.886-5.036-2.886" fill="#f28f20"/><path d="M22.02 14.408c0-1.758-3.216-3.979-4.02-3.979-.802 0-4.02 2.221-4.02 3.98C13.98 16.168 16.226 16 18 16c1.776 0 4.02.168 4.02-1.592" fill="#292f33"/><path d="M34.022 4.065a1 1 0 0 0-.751.34c-.03.034-3.181 3.501-10.41 4.623a1 1 0 1 0 .307 1.976 28.71 28.71 0 0 0 1.072-.186c7.242-1.404 10.399-4.94 10.536-5.096a1.001 1.001 0 0 0-.755-1.657" fill="#f39120"/><path d="M23.014 9.017c-.406 0-.79.25-.94.653a1.001 1.001 0 0 0 .593 1.285c5.477 2.024 12.16.189 12.45.109a1 1 0 0 0-.534-1.928c-.064.018-6.358 1.739-11.222-.058a1.032 1.032 0 0 0-.347-.061M1.988 4.065a1 1 0 0 1 .751.34c.03.034 3.181 3.501 10.41 4.623a1 1 0 0 1-.306 1.976 28.413 28.413 0 0 1-1.073-.186C4.528 9.414 1.371 5.878 1.234 5.722a1.001 1.001 0 0 1 .754-1.657" fill="#f39120"/><path d="M12.996 9.017c.406 0 .79.25.94.653a1.001 1.001 0 0 1-.593 1.285c-5.477 2.024-12.16.189-12.45.109a1 1 0 0 1 .534-1.928c.064.018 6.358 1.739 11.222-.058.115-.041.232-.061.347-.061" fill="#f39120"/></g></svg>