<svg xmlns="http://www.w3.org/2000/svg" viewBox="0 0 45 45"><defs><clipPath id="a"><path d="M0 36h36V0H0v36z"/></clipPath></defs><g clip-path="url(#a)" transform="matrix(1.25 0 0 -1.25 0 45)"><path d="M35.125 22.656c0 1 .771 2.327.771 2.635 0 .656-1.553.422-1.626 1.047-.209 1.794 1.886 3.318-1.746 3.312-1.352-.002-.274 1.768-.274 2.725 0 .957-2.596.145-3.552.145-.957 0-.957 2.87-1.913 2.87-2.87 0-3.827-2.87-4.783-2.87-.957 0-1.744 3.62-2.87 2.87-2.87-1.913-3.826-7.653-3.826-7.653s4.783 3.826 10.522 2.87c5.345-.89 4.79-10.82 5.641-16.889L24.609 0h3.36c.344 1.5 1.939.53 2.375 1.687.381 1.016-.67 1.966-.094 2.97.576 1.002.978.754 2.094 1.374 1.183.657 0 2.2 0 3.156s2.312 1.574 2.312 2.531c0 .63-1.068 1.292-.811 2.357.257 1.064 1.586 1.185 1.749 2.184.137.846-.921 1.455-.796 2.392.125.938 1.174 1.38 1.174 2.097 0 .72-.847 1.002-.847 1.908" fill="#3e721d"/><path d="M34.438 22.543c0 4.038-2.87 9.085-9.567 9.085-6.696 0-17.265-10.024-20.088-10.095C2.87 23.479 0 21.476 0 19.512c0-3.028 5.374-4.61 5.646-4.898 1.088-1.15 3.92-8.082 8.704-1.945.802 1.03 1.301.422 3.483-.542C25.07 8.272 16 0 16 0h9.566c4.782 4.783 8.871 13.843 8.871 21.997l-.02-.008c.005.184.02.369.02.553" fill="#77b255"/><path d="M23.915 23.91a1.913 1.913 0 1 0-3.826 0 1.913 1.913 0 0 0 3.826 0" fill="#292f33"/><path d="M4.783 18.65c0-.794-.643-.48-1.435-.48-.793 0-1.435-.314-1.435.48a1.435 1.435 0 0 0 2.87 0" fill="#3e721d"/><path d="M18.176 17.218c0-1.058-.643-.956-1.436-.956-.792 0-1.434-.102-1.434.956 0 1.056.642 3.826 1.434 3.826.793 0 1.436-2.77 1.436-3.826M14.35 16.262c0-1.058-.644-.957-1.436-.957-.793 0-1.435-.101-1.435.957 0 1.056.642 3.826 1.435 3.826.792 0 1.435-2.77 1.435-3.826" fill="#fff"/><path d="M18.04 17.205c-5.076-.726-10.192-2.007-12.394-2.59.275-.29.661-.95 1.162-1.674 2.414.624 6.975 1.724 11.502 2.37a.958.958 0 0 1-.27 1.895M18.589 23.39a.998.998 0 0 0-.708 1.705c.129.13 3.222 3.164 8.36 3.164a1 1 0 1 0 0-2c-4.281 0-6.922-2.554-6.95-2.58a.997.997 0 0 0-.702-.288" fill="#3e721d"/></g></svg>