<svg xmlns="http://www.w3.org/2000/svg" viewBox="0 0 45 45"><defs><clipPath id="a"><path d="M0 36h36V0H0v36z"/></clipPath><clipPath id="b"><path d="M10.467 33.18c-4.694-1.399-9.492-7.219-9.345-8.397.148-1.177.341-2.638 6.57-3.656 1.105-.18 3.995-1.835 4.4-5.779C12.75 8.938 16.25 4.25 20.344.157 21.951.157 22.01 0 23.787 0c1.78 0 3.679 2.41 4.602 4.673 2.844 6.975 2.029 15.707-5.506 19.83-2.989 1.637-5.212 1.852-5.328 3.038-.136 1.377-1.219 3.698-3.812 5.327.444 1.309-.485 2.786-1.117 2.84-.015.002-.03.002-.046.002-.65 0-1.98-1.075-2.113-2.53"/></clipPath><clipPath id="c"><path d="M0 36h36V0H0v36z"/></clipPath></defs><g clip-path="url(#a)" transform="matrix(1.25 0 0 -1.25 0 45)"><path d="M13.234 16.324c-1.243 1.243-4.97 0-6.21 2.488-.788 1.572-3.729-1.245-2.487-3.734 1.242-2.484 4.97-2.484 7.454-1.242 2.485 1.242 1.243 2.488 1.243 2.488" fill="#ad743d"/><path d="M10.467 33.18c-4.694-1.399-9.492-7.219-9.345-8.397.148-1.177.342-2.638 6.57-3.656 1.105-.18 3.996-1.835 4.4-5.779C12.75 8.938 16.25 4.25 20.345.156 21.95.156 22.01 0 23.787 0c1.78 0 3.679 2.41 4.602 4.673 2.844 6.974 2.029 15.707-5.506 19.83-2.99 1.636-5.211 1.852-5.33 3.037-.133 1.378-1.217 3.7-3.81 5.328.444 1.31-.485 2.786-1.116 2.84-.632.054-2.024-1.038-2.16-2.528" fill="#ad743d"/></g><g clip-path="url(#b)" transform="matrix(1.25 0 0 -1.25 0 45)"><path d="M2.184 22.033c.629 5.908 3.746 8.413 6.202 8.232 1.494-.11 2.136-1.647 2.258-2.725 5.206-.77 3.939-6.729.68-6.819 1.378-1.378 10.14-6.95 8.762-13.836C18.709 0 13.2 0 10.446 2.753c-2.753 2.756-8.262 19.28-8.262 19.28" fill="#d99e82"/></g><g clip-path="url(#c)" transform="matrix(1.25 0 0 -1.25 0 45)"><path d="M9.07 26.54a1.377 1.377 0 1 0-2.754.002 1.377 1.377 0 0 0 2.753-.002" fill="#292f33"/><path d="M6.26 15.854c.304-1.49-.383-4.295-1.874-4.6-1.489-.303-3.22 2.007-3.523 3.496a2.76 2.76 0 0 0 2.147 3.254 2.756 2.756 0 0 0 3.25-2.15M21.254 22.436c4.065-3.341 6.158-7.296 5.402-12.37-.318-2.144.83-2.934 1.688-.902.598 1.422.935 9.887-6.05 14.31-1.858 1.177-1.961-.283-1.04-1.039" fill="#662113"/><path d="M13.907 14.625c-1.635 1.061-5.388-1.148-7.309 1.259-1.215 1.523-3.753-2.209-1.832-4.615 1.922-2.406 5.962-1.543 8.368.377 2.407 1.921.773 2.979.773 2.979M24.625 0H13.697c-2.754 0-2.754 4.132 1.378 4.132h3.634C21.464 4.132 24.625 0 24.625 0" fill="#ad743d"/><path d="M16.535 7.384c.371 3.555 2.87 6.21 5.586 5.93 2.715-.283 4.613-3.397 4.244-6.951-.37-3.56-2.87-6.213-5.584-5.934-2.716.283-4.615 3.396-4.246 6.955" fill="#ad743d"/><path d="M23.012.992c1.653.338 4.956 1.516 6.815 9.035C30.475 12.64 31.2 16.3 29 21.243c-1.875 4.218-1.084 5.128.737 3.766 1.58-1.184 1.948-2.708 2.158-4.928.154.462.377 1.046.264 2.153 3.65-2.056 3.65-6.749 2.25-11.167.385.386.828 1.301 1.023 2.16C36.718 7.436 32.858.7 25.928.086c-3.98-.434-2.916.905-2.916.905" fill="#ad743d"/></g></svg>