<svg xmlns="http://www.w3.org/2000/svg" viewBox="0 0 45 45"><defs><clipPath id="a"><path d="M0 36h36V0H0v36z"/></clipPath></defs><g clip-path="url(#a)" transform="matrix(1.25 0 0 -1.25 0 45)"><path d="M23.283 12.725s1.374-1.635 2.733-10.047c.143-.883.202-1.775.217-2.678H36v28.553c-4.387 3.472-10.4 4.188-17.678 1.757 0 0-5.408 3-6.147 3.74-.719.719-1.857 1.555-1.235-.35.364-1.113.764-2.373 2.36-4.862-3.437-2.036-4.514-4.68-8.559-13.342C1.652 8.88.08 6.732.936 4.204 2.066.867 6.252-1.391 9.78 1.183c1.92 1.4 2.246 3.913 6.225 6.223 3.654.064 7.278 1.603 7.278 5.319" fill="#c1694f"/><path d="M36 29.988c-8.335 5.71-21.646 4.539-20.091-.178C25.51 31.672 31.77 28.269 36 22.642v7.346z" fill="#292f33"/><path d="M19.663 30.237c-2.878-.233-7.157-1.595-9.296-3.967 0 0-.129 5.147 3.566 5.613 6.171.78 5.808-.362 5.808-.362l-.078-1.284z" fill="#292f33"/><path d="M16.357 34.944c.558-1.155 4.006-1.79 5.056-6.03 1.05-4.24-3.134-2.95-4.356-.854-1.362 2.333-1.828 4.16-1.867 5.678-.021.802.039 3.539 1.167 1.206" fill="#c1694f"/><path d="M16.596 33.162c1.103-.968 2.448-2.472 2.65-3.955.202-1.483-1.125-.988-1.736.372-.612 1.359-.753 2.779-1.134 3.233-.38.454.22.35.22.35" fill="#662113"/><path d="M16.94 20.475a1.244 1.244 0 1 0-2.489 0 1.244 1.244 0 0 0 2.489 0" fill="#292f33"/><path d="M4.222 6.083c0-.881-.532-1.594-1.187-1.594-.654 0-1.186.713-1.186 1.594 0 .882.532 1.596 1.186 1.596.655 0 1.187-.714 1.187-1.596" fill="#662113"/><path d="M10.354 26.076c-.032.018-.074.015-.11.024-1.544-2.032-2.922-5.102-5.49-10.604-1.357-2.903-2.42-4.946-3.117-6.538 1.628-.225 3.285 1.443 3.946 3.272.673 1.866 3.215 5.652 4.926 7.778 1.712 2.127 1.561 5.144-.155 6.068" fill="#d99e82"/></g></svg>