<svg xmlns="http://www.w3.org/2000/svg" viewBox="0 0 45 45"><defs><clipPath id="a"><path d="M0 36h36V0H0v36z"/></clipPath></defs><g clip-path="url(#a)" transform="matrix(1.25 0 0 -1.25 0 45)"><path d="M16.706 19.887c0-4.483-2.554-2.038-5.706-2.038-3.151 0-5.705-2.445-5.705 2.038C5.295 22.813 7.849 26 11 26c3.152 0 5.706-3.187 5.706-6.113M5.074 27.963c.393-1.335.007-2.625-.862-2.88-.87-.257-1.893.618-2.286 1.953-.394 1.335-.008 2.625.862 2.882.87.255 1.893-.62 2.286-1.955M20.074 27.019c-.407-1.332-1.442-2.196-2.312-1.93-.869.265-1.244 1.56-.836 2.893.407 1.33 1.442 2.196 2.311 1.93.87-.266 1.244-1.561.837-2.893M9.964 31.878c.366-1.898-.217-3.606-1.302-3.815-1.085-.208-2.261 1.16-2.626 3.059-.365 1.898.218 3.606 1.303 3.815 1.084.209 2.26-1.161 2.625-3.06M15.96 31.1c-.388-1.894-1.579-3.25-2.66-3.03-1.083.222-1.647 1.937-1.26 3.83.388 1.894 1.579 3.25 2.66 3.03 1.083-.222 1.647-1.936 1.26-3.83M30.706 3.887c0-4.483-2.555-2.038-5.706-2.038-3.15 0-5.706-2.445-5.706 2.038C19.294 6.813 21.85 10 25 10c3.151 0 5.706-3.187 5.706-6.113M19.074 11.964c.394-1.336.007-2.626-.862-2.882-.87-.256-1.893.619-2.286 1.954-.394 1.336-.008 2.626.862 2.882.87.256 1.893-.62 2.286-1.954M34.074 11.019c-.407-1.332-1.442-2.196-2.312-1.93-.869.266-1.244 1.56-.836 2.893.407 1.332 1.442 2.196 2.311 1.93.87-.266 1.244-1.561.837-2.893M23.964 15.878c.365-1.897-.218-3.606-1.302-3.814-1.085-.21-2.261 1.16-2.626 3.058-.365 1.898.218 3.606 1.302 3.815 1.085.209 2.26-1.161 2.626-3.06M29.96 15.1c-.388-1.893-1.578-3.25-2.66-3.03-1.082.222-1.647 1.937-1.26 3.83.388 1.895 1.578 3.25 2.66 3.03 1.082-.222 1.647-1.936 1.26-3.83" fill="#662113"/></g></svg>