<svg xmlns="http://www.w3.org/2000/svg" viewBox="0 0 45 45"><defs><clipPath id="a"><path d="M0 36h36V0H0v36z"/></clipPath></defs><g clip-path="url(#a)" transform="matrix(1.25 0 0 -1.25 0 45)"><path d="M29 24c-4.687 3.515-6 6-8 6s-2-1-3-1-1 1-3 1-3.313-2.485-8-6c-4-3-7-3-7-5s5-6 8-9c2-2 5-4 10-4s8 2 10 4c3 3 8 7 8 9s-3 2-7 5" fill="#e75a70"/><path d="M28.389 20.5c-4.426 1.465-7.39 2.083-10.39 2.083-3 0-5.961-.618-10.387-2.083C3.834 19.25 1 19.833 1 19c0-.834 9-5 17-5s17 4.166 17 5c0 .833-2.834.25-6.611 1.5" fill="#662113"/><path d="M28.389 20.5c-4.426 1.465-7.39 2.083-10.39 2.083-3 0-5.961-.618-10.387-2.083-3.624-1.199-6.371-.715-6.59-1.408 2.454-.385 9.119.644 16.978.644 7.86 0 14.525-1.029 16.979-.644-.22.693-2.967.209-6.59 1.408" fill="#fff"/></g></svg>