<svg xmlns="http://www.w3.org/2000/svg" viewBox="0 0 45 45"><defs><clipPath id="a"><path d="M0 36h36V0H0v36z"/></clipPath></defs><g clip-path="url(#a)" transform="matrix(1.25 0 0 -1.25 0 45)"><path d="M32.769 2.64c-2.74 3.287-3.903 6.57-4.397 8.747a1 1 0 0 1-1.336.71L19.923 9.35a1.002 1.002 0 0 1-.61-.688c-.078-.316-.018-.666.212-.896C25.493 1.785 31.945 1 32 1a1 1 0 0 1 .769 1.64" fill="#292f33"/><path d="M18 34C8.059 34 0 24 0 20S8.059 6 18 6s18 10 18 14-8.059 14-18 14" fill="#292f33"/><path d="M18 25a5 5 0 1 1 .001-10.001A5 5 0 0 1 18 25" fill="#292f33"/><path d="M18 15a5 5 0 1 0 .001 10.001A5 5 0 0 0 18 15m0 14c-4.963 0-9-4.037-9-9s4.037-9 9-9 9 4.037 9 9-4.037 9-9 9" fill="#fff"/></g></svg>