<svg xmlns="http://www.w3.org/2000/svg" viewBox="0 0 45 45"><defs><clipPath id="a"><path d="M0 36h36V0H0v36z"/></clipPath></defs><g clip-path="url(#a)" transform="matrix(1.25 0 0 -1.25 0 45)"><path d="M31 22c-1-6-5-8-6-13-1.606-8.034-6.267-9-11-9-7.75 0-3.856 7.568-7 17-3 9-2.716 15.899 7 18 9.25 2 18.634-3.194 17-13" fill="#af7e57"/><path d="M23.999 14a1 1 0 0 0-.831 1.555c.491.737.968 1.34 1.429 1.923C25.992 19.244 27 20.52 27 24c0 2.21-.782 3.975-2.323 5.246-2.194 1.806-5.827 2.485-9.486 1.773-1.861-.363-3.193-1.215-4.074-2.604-2.061-3.254-.827-8.244-.814-8.294a1 1 0 0 0-1.939-.492c-.06.238-1.453 5.883 1.064 9.856 1.174 1.853 2.984 3.029 5.381 3.496 4.227.826 8.496-.014 11.139-2.192C27.944 29.145 29 26.797 29 24c0-4.175-1.377-5.917-2.835-7.763a26.373 26.373 0 0 1-1.333-1.792.998.998 0 0 0-.833-.445" fill="#90603e"/><path d="M11.585 9.083a1 1 0 0 0-.897.553c-.55 1.102-.367 1.995-.115 2.549.545 1.202 1.916 1.935 2.924 2.199 1.997.668 2.975 3.34 2.442 5.181-.57 1.974-2.65 2.673-5.7 1.922a1 1 0 0 0-.479 1.942c4.914 1.214 7.407-.914 8.1-3.308.798-2.755-.564-6.577-3.794-7.653-.589-.157-1.434-.585-1.672-1.11-.068-.149-.132-.396.083-.828a1 1 0 0 0-.893-1.447" fill="#90603e"/></g></svg>