<svg xmlns="http://www.w3.org/2000/svg" viewBox="0 0 45 45"><defs><clipPath id="a"><path d="M0 36h36V0H0v36z"/></clipPath></defs><g clip-path="url(#a)" transform="matrix(1.25 0 0 -1.25 0 45)"><path d="M32.942 24.756a2.855 2.855 0 0 1-.674 1.644l-.356 2.057a3.914 3.914 0 0 1-4.262 3.169L4.258 27.89a3.91 3.91 0 0 1-3.484-3.611l1.76-11.146a4.436 4.436 0 0 1 4.341-3.814 54.738 54.738 0 0 0 1.463-.027l9.483-.463c-.362-.483-.82-1.08-.82-1.718V7.06C17 5.479 18.77 4 20.351 4h7.282c.76 0 1.49.4 2.026.938l4.424 4.47c.583.585.886 1.417.832 2.24l-1.974 13.108z" fill="#f3d2a2"/><path d="M8.217 9.377a1 1 0 0 0-.983.821L5.174 21.53a1 1 0 0 0 1.968.358l2.06-11.332a1 1 0 0 0-.985-1.179M14.398 9.377a.999.999 0 0 0-.996.923l-1.03 13.393a1 1 0 1 0 1.994.153l1.03-13.392a1 1 0 0 0-.998-1.077M21.605 8.271c-.508 0-.757.001-.95 1.062l-.045.002c.001.055.007.11.016.162-.173 1.069-.308 3.07-.56 6.818-.235 3.49-.486 7.552-.486 8.485a1 1 0 1 0 2 0c0-1.533.795-13.324.981-15.145a.979.979 0 0 0 .05-.308c0-.265-.109-.557-.296-.744-.188-.188-.444-.331-.71-.331" fill="#d2a077"/><path d="M25.178 7.316H18.52a1 1 0 1 0 0 2h6.658a2.647 2.647 0 0 1 2.644 2.644V24.8a1 1 0 1 0 2 0V11.96a4.649 4.649 0 0 0-4.644-4.644" fill="#d2a077"/></g></svg>