<svg xmlns="http://www.w3.org/2000/svg" viewBox="0 0 45 45"><defs><clipPath id="a"><path d="M0 36h36V0H0v36z"/></clipPath></defs><g clip-path="url(#a)" transform="matrix(1.25 0 0 -1.25 0 45)"><path d="M34 17.126s-2.861 15.271-2.941 15.824c-.256 1.78-2.057 3.078-4.243 3.049l-17.774.002c-6 0-6.042-2.308-6.042-7.85l.08-13.555a37.518 37.518 0 0 1-.038-1.57c0-2 3-7.001 3-10.501 0-2.5 1.021-2.5 3.521-2.5 1.933 0 2.51 3 2.51 5.5 0 1.041-.65 3.667-1.207 5.728l16.218.772c6.749.209 7.374 2.876 6.916 5.101" fill="#7c533e"/><path d="M32.92 20.766c-.516.295-10.51-.517-14.41-.852-.024.013-.041.034-.067.044-.057.023-1.391.564-1.444 1.86a2.594 2.594 0 0 0 .788 2.007l13.528.87a1 1 0 0 1 .933 1.062.984.984 0 0 1-1.062.934l-11.678-.75c-.815.5-1.74 1.25-1.754 2.078-.012.794.786 1.57 1.269 1.938l10.935.445a1 1 0 0 1 .958 1.04.985.985 0 0 1-1.04.958l-10.528-.428c-.041.012-.076.037-.12.043-.371.054-.588.217-.704.53-.182.486-.036 1.123.214 1.412.088.101.123.094.136.091a1 1 0 1 1 .42 1.955c-.764.164-1.521-.105-2.07-.738-.76-.88-.996-2.287-.574-3.42.122-.328.31-.603.527-.852-.675-.66-1.44-1.69-1.423-2.994.01-.857.362-1.662 1.033-2.41A4.54 4.54 0 0 1 15 21.735a3.76 3.76 0 0 1 .918-2.335c-.988-.52-2-1.582-1.832-3.464.112-1.243.555-2.163 1.316-2.734a2.942 2.942 0 0 1 1.768-.572c.18 0 .323.015.407.028l13.252 1.068a1 1 0 0 1-.16 1.994l-13.385-1.084c-.006 0-.397-.058-.694.175-.351.275-.472.861-.511 1.303-.12 1.32.924 1.632 1.19 1.687 1.736.224 14.165 1.082 15.088 1.102.36-.013.727.158.923.496a.998.998 0 0 1-.361 1.367" fill="#583529"/></g></svg>