<svg xmlns="http://www.w3.org/2000/svg" viewBox="0 0 45 45"><defs><clipPath id="a"><path d="M0 36h36V0H0v36z"/></clipPath></defs><g clip-path="url(#a)" transform="matrix(1.25 0 0 -1.25 0 45)"><path d="M20.145 5s-2.436.167-3.068 1.792c-.647 1.659.621 2.309.621 2.309s-1.914-.059-2.622 1.941c-.668 1.885.958 2.75.958 2.75s-1.87.307-2.417 2.292C13.158 17.755 14.784 19 14.784 19H2.576C1.617 19 0 19.542 0 21.543 0 23.543 1.66 24 2.576 24h20.5c1 0 1 1 0 1H20.41c-3.792 0-6.143 2.038-6.792 2.751-.65.713-.98 1.667-.735 2.82.415 1.956 1.92 1.53 3.198.975 3.079-1.337 7.464-2.254 9.539-2.533 5.857-.791 10.375-5.809 10.38-11.884C36.004 10.503 30.703 5.005 24.077 5h-3.932z" fill="#f3d2a2"/></g></svg>