<svg xmlns="http://www.w3.org/2000/svg" viewBox="0 0 45 45"><defs><clipPath id="a"><path d="M0 36h36V0H0v36z"/></clipPath></defs><g clip-path="url(#a)" transform="matrix(1.25 0 0 -1.25 0 45)"><path d="M15.855 5s2.395.208 3.068 1.792c.699 1.639-.621 2.309-.621 2.309s1.914-.059 2.622 1.941c.668 1.885-.958 2.75-.958 2.75s1.87.307 2.417 2.292C22.841 17.755 21.215 19 21.215 19h12.208c.959 0 2.576.542 2.577 2.543 0 2-1.66 2.457-2.577 2.457h-20.5c-1 0-1 1 0 1h2.666c3.792 0 6.143 2.038 6.792 2.751.65.713.98 1.667.735 2.82-.415 1.956-1.92 1.53-3.198.975-3.079-1.337-7.464-2.254-9.539-2.533C4.523 28.222.005 23.204 0 17.129-.004 10.503 5.297 5.005 11.923 5h3.932z" fill="#ffdc5d"/></g></svg>