<svg xmlns="http://www.w3.org/2000/svg" viewBox="0 0 45 45"><defs><clipPath id="a"><path d="M0 36h36V0H0v36z"/></clipPath></defs><g clip-path="url(#a)" transform="matrix(1.25 0 0 -1.25 0 45)"><path d="M24.997 7.5a2.501 2.501 0 0 0-2.457 2.053l-4 22a2.499 2.499 0 0 0 2.013 2.906 2.496 2.496 0 0 0 2.907-2.012l4-22A2.5 2.5 0 0 0 24.997 7.5" fill="#d2a077"/><path d="M28.375 11.235c.239.745.13 1.591-.375 2.265-.059.078-.439.585-1.017 1.34.005.051.017.112.017.16 0 .458-1.913 2.623-3.74 4.586-1.587 1.964-3.261 3.95-4.492 5.181l-1.274 1.275-1.612-.807c-5.718-2.858-8.647-3.855-8.673-3.864a2.5 2.5 0 1 1 1.582-4.743c.117.04 2.666.9 7.649 3.31 1.095-1.23 2.378-2.795 3.575-4.296l.704-1.174a.784.784 0 0 0-.061-.895l-3.513-4.392a.787.787 0 0 0-.365-.255l-2.531-.843a.786.786 0 0 0-.498 0L9.022 9.66c-.676 2.082-.533 4.102-.531 4.124a2.5 2.5 0 0 1-2.275 2.707 2.496 2.496 0 0 1-2.707-2.274c-.022-.26-.51-6.423 3.313-10.593C9.03 1.214 12.118-.007 16-.007c.66 0 1.283-.009 1.871-.018a102.68 102.68 0 0 1 1.537-.015c2.764 0 5.004.231 6.738 1.941 1.65 1.626 2.354 4.195 2.354 8.592 0 .261-.051.506-.125.742" fill="#f3d2a2"/><path d="M27.001 15a1 1 0 0 0-.915.594l-4 9a1 1 0 0 0 1.828.812l4-9A1 1 0 0 0 27.001 15" fill="#d2a077"/><path d="M24.766 1.62l-1.531 4.76s-.067-.01-.175-.067c.018.01 1.82.995 2.46 6.003.776 6.075-.774 9.6-.79 9.635l-.092.23-3.5 10.105a2.5 2.5 0 1 0 4.725 1.636l3.469-10.012c.376-.887 2.035-5.286 1.148-12.227-1.042-8.163-4.943-9.815-5.714-10.063" fill="#f3d2a2"/></g></svg>