<svg xmlns="http://www.w3.org/2000/svg" viewBox="0 0 45 45"><defs><clipPath id="a"><path d="M0 36h36V0H0v36z"/></clipPath></defs><g clip-path="url(#a)" transform="matrix(1.25 0 0 -1.25 0 45)"><path d="M31.139 26.853c-.941.657-2.357.531-3.201-.166l.969 1.407c.779 1.111.5 2.313-.613 3.092a2.461 2.461 0 0 1-3.426-.604L16.038 18l-.07.031 8.064 11.844c.786 1.122.638 2.544-.484 3.331a2.483 2.483 0 0 1-3.456-.611l-10.42-14.72c-.786-1.123-.401-2.661.72-3.447a2.43 2.43 0 0 1 .608-.299V5h10v3.113c.147.129.967.763 1.083.929l9.667 14.333a2.495 2.495 0 0 1-.611 3.478" fill="#d2a077"/><path d="M33.305 18.664s1.132 1.65-.52 2.78c-1.648 1.132-2.78-.518-2.78-.518l-5.25-7.658c-.18.302-.38.6-.6.893l7.289 10.63s1.13 1.649-.52 2.78c-1.648 1.132-2.78-.518-2.78-.518l-6.855-9.997c-.255.209-.515.417-.785.622l7.947 11.59s1.13 1.649-.518 2.78c-1.65 1.132-2.78-.518-2.78-.518l-7.948-11.59c-.292.18-.581.336-.87.499l7.427 10.832s1.13 1.649-.52 2.78c-1.648 1.132-2.78-.518-2.78-.518L12.61 22.079l-.63-.917-.564-.825c4.948-3.393 5.419-9.78 2.592-13.902-.566-.825-1.391-.26-1.391-.26 3.394 4.949 2.357 10.51-2.592 13.903l1.462 7.302s.545 1.925-1.38 2.47c-1.923.545-2.468-1.38-2.468-1.38l-1.685-5.003c-.668-1.984-1.38-3.961-2.32-5.83-2.657-5.28-1.07-11.843 3.94-15.28C13.04-1.388 20.51.004 24.258 5.468c.198.29.364.574.522.857l.044-.031 8.482 12.37z" fill="#f3d2a2"/><path d="M2.042 29h-2A6.966 6.966 0 0 0 7 35.958v-2A4.964 4.964 0 0 1 2.042 29" fill="#77b255"/><path d="M4 24H2c0 5.514 4.486 10 10 10v-2c-4.411 0-8-3.589-8-8M29 0v2c3 0 5 2 5 5h2c0-4-3-7-7-7" fill="#77b255"/><path d="M24 1.958v2c4 0 8.042 4.042 8.042 8.042h2C34.042 6 30 1.958 24 1.958" fill="#77b255"/><path d="M34 12a1 1 0 1 0-2 0 1 1 0 1 0 2 0M25 3a1 1 0 1 0-2 0 1 1 0 1 0 2 0M30 1a1 1 0 1 0-2 0 1 1 0 1 0 2 0M36 7a1 1 0 1 0-2 0 1 1 0 1 0 2 0M4 24a1 1 0 1 1-2 0 1 1 0 0 1 2 0M11 33a1 1 0 1 1 2 0 1 1 0 0 1-2 0M6 35a1 1 0 1 1 2 0 1 1 0 0 1-2 0M2 29a1 1 0 1 1-2 0 1 1 0 0 1 2 0" fill="#77b255"/></g></svg>