<svg xmlns="http://www.w3.org/2000/svg" viewBox="0 0 45 45"><defs><clipPath id="a"><path d="M0 36h36V0H0v36z"/></clipPath></defs><g clip-path="url(#a)" transform="matrix(1.25 0 0 -1.25 0 45)"><path d="M4 20.106s-.093-2.362 1.792-3.068c1.667-.625 2.309.622 2.309.622s-.059-1.914 1.941-2.622c1.885-.668 2.75.958 2.75.958s.307-1.87 2.292-2.417C16.755 13.12 18 14.746 18 14.746V2.538c0-.959.542-2.575 2.543-2.577 2 0 2.457 1.66 2.457 2.577v20.5c0 1 1 1 1 0v-2.666c0-3.792 2.038-6.143 2.751-6.792.713-.65 1.667-.98 2.82-.735 1.956.415 1.53 1.92.975 3.198-1.337 3.078-2.254 7.463-2.533 9.538-.791 5.857-5.809 10.375-11.884 10.381C9.503 35.965 4.005 30.664 4 24.038v-3.932z" fill="#7c533e"/></g></svg>