<svg xmlns="http://www.w3.org/2000/svg" viewBox="0 0 45 45"><defs><clipPath id="a"><path d="M0 36h36V0H0v36z"/></clipPath></defs><g clip-path="url(#a)" transform="matrix(1.25 0 0 -1.25 0 45)"><path d="M4.005 20.14s-.099-2.363 1.784-3.074c1.666-.629 2.31.617 2.31.617s-.063-1.914 1.936-2.627c1.883-.672 2.752.952 2.752.952s.302-1.873 2.286-2.423c1.67-.463 2.92 1.16 2.92 1.16l-.03-12.208c-.002-.959.536-2.576 2.537-2.582 2-.007 2.461 1.653 2.463 2.57.001.916.03 12.5.04 16.5l.008 4c.003 1 1.003.998 1-.002l-.005-2.666c-.009-3.793 2.023-6.148 2.734-6.799.712-.652 1.665-.983 2.818-.74 1.957.41 1.534 1.915.983 3.193-1.329 3.082-2.236 7.47-2.51 9.545-.777 5.86-5.784 10.39-11.859 10.41-6.626.02-12.137-5.269-12.158-11.895l-.009-3.932" fill="#d5ab88"/></g></svg>