<svg xmlns="http://www.w3.org/2000/svg" viewBox="0 0 45 45"><defs><clipPath id="a"><path d="M0 36h36V0H0v36z"/></clipPath></defs><g clip-path="url(#a)" transform="matrix(1.25 0 0 -1.25 0 45)"><path d="M27.084 24.001l-16.218.772c.557 2.061 1.207 4.687 1.207 5.728 0 2.5-.577 5.5-2.51 5.5-2.5 0-3.521 0-3.521-2.5 0-3.5-3-8.501-3-10.501 0-.491.015-1.032.038-1.57L3 7.875c0-5.542 1-7.85 7-7.85l16.816.002c2.186-.029 3.987 1.269 4.243 3.049C31.139 3.629 34 18.9 34 18.9c.458 2.225-.167 4.891-6.916 5.101" fill="#d5ab88"/><path d="M33.281 16.628a1 1 0 0 1-.923.496c-.924.02-13.35.878-15.042 1.094-.14.025-1.364.28-1.237 1.694.04.443.161 1.028.512 1.303.29.227.67.18.675.179l13.404-1.087a.982.982 0 0 1 1.077.916 1 1 0 0 1-.917 1.077l-13.253 1.069c-.29.04-1.283.123-2.174-.545-.762-.572-1.205-1.491-1.316-2.734-.168-1.874.835-2.934 1.837-3.46a3.76 3.76 0 0 1-.923-2.34 4.55 4.55 0 0 1 1.77-3.841c-.66-.735-1.007-1.525-1.017-2.375-.016-1.327.777-2.356 1.46-3.002a2.755 2.755 0 0 1-.564-.891c-.423-1.133-.186-2.54.574-3.42.443-.511 1.02-.785 1.63-.785.144 0 .292.015.44.048.54.116.883.647.767 1.187a.997.997 0 0 1-1.187.768c-.014.002-.049-.01-.136.09-.25.289-.396.926-.214 1.414.116.31.333.474.703.529.192.027.35.12.49.237l10.16-.25h.041c.533 0 .976.234.998.773.022.55-.406.83-.958.853l-10.937.445c-.472.36-1.277 1.14-1.267 1.936.01.828.932 1.579 1.746 2.08l11.685-.751.066-.002a1 1 0 0 1 .063 1.998l-13.526.87A2.587 2.587 0 0 0 17 14.209c.053 1.295 1.387 1.836 1.436 1.857.028.01.046.032.072.044 3.28-.28 11.03-.914 13.593-.914.452 0 .743.02.82.065a1 1 0 0 1 .361 1.367" fill="#b78b60"/></g></svg>