<svg xmlns="http://www.w3.org/2000/svg" viewBox="0 0 45 45"><defs><clipPath id="a"><path d="M0 36h36V0H0v36z"/></clipPath><clipPath id="b"><path d="M18 36c-3.657 0-7.311-13.692-7.912-23.004-.029 0-.059.004-.088.004-3.867 0-7-4.014-7-6.5 0-2.326 5.257-3.364 9.21-5.128C13.472.276 15.341 0 18 0c2.253 0 3.941.266 5.173 1.081C27.17 3.027 33 4.05 33 6.5c0 2.486-3.133 6.5-7 6.5l-.058-.003C25.441 22.251 21.721 36 18 36z"/></clipPath></defs><g clip-path="url(#a)" transform="matrix(1.25 0 0 -1.25 0 45)"><path d="M33 6.5c0 2.485-3.134 6.5-7 6.5l-.059-.003C25.441 22.251 21.722 36 18 36c-3.657 0-7.311-13.691-7.912-23.004-.028 0-.06.004-.088.004-3.866 0-7-4.015-7-6.5 0-2.326 5.257-3.364 9.21-5.128C13.472.276 15.342 0 18 0c2.253 0 3.941.267 5.173 1.081C27.17 3.026 33 4.05 33 6.5" fill="#ffdc5d"/><path d="M26 6c-.544-.098.137 1 .137 3.722C26.137 11 26 12 26 13c1 0 2.105 0 2.105-2.923C28.105 8.421 26.544 6.099 26 6M9.894 6c.544-.098-.137 1-.137 3.722C9.757 11 9.894 12 9.894 13c-1 0-2.104 0-2.104-2.923C7.79 8.421 9.35 6.099 9.894 6" fill="#ef9645"/></g><g clip-path="url(#b)" transform="matrix(1.25 0 0 -1.25 0 45)"><path d="M11.886 1.513C11.549.358 9.715-.124 7.788.437 5.86.999 4.573 2.393 4.91 3.547c.337 1.156 2.172 1.637 4.098 1.076 1.927-.561 3.215-1.955 2.878-3.11M24.114 1.513c.337-1.155 2.171-1.637 4.1-1.076 1.924.562 3.213 1.956 2.875 3.11-.336 1.156-2.17 1.637-4.097 1.076-1.927-.561-3.215-1.955-2.878-3.11" fill="#662113"/></g></svg>