<svg xmlns="http://www.w3.org/2000/svg" viewBox="0 0 45 45"><defs><clipPath id="a"><path d="M0 36h36V0H0v36z"/></clipPath></defs><g clip-path="url(#a)" transform="matrix(1.25 0 0 -1.25 0 45)"><path d="M30 15.855s.094 2.362-1.791 3.068c-1.667.626-2.309-.621-2.309-.621s.059 1.914-1.941 2.622c-1.885.668-2.75-.958-2.75-.958s-.307 1.87-2.292 2.417C17.246 22.841 16 21.215 16 21.215v12.208c0 .959-.542 2.575-2.542 2.577-2 0-2.458-1.66-2.458-2.577v-20.5c0-1-1-1-1 0v2.666c0 3.792-2.037 6.142-2.75 6.792-.713.65-1.667.98-2.82.735-1.956-.416-1.529-1.92-.974-3.198 1.336-3.078 2.253-7.463 2.532-9.538C6.779 4.524 11.797.006 17.872 0 24.498-.003 29.995 5.297 30 11.924v3.931z" fill="#f7dece"/></g></svg>