<svg xmlns="http://www.w3.org/2000/svg" viewBox="0 0 45 45"><defs><clipPath id="a"><path d="M0 36h36V0H0v36z"/></clipPath><clipPath id="b"><path d="M2.166 18.001c0-3.813 7.086-9.876 15.826-9.876 8.739 0 15.826 6.91 15.826 9.876 0 2.974-7.087 9.874-15.826 9.874-8.74 0-15.826-6.9-15.826-9.874"/></clipPath><clipPath id="c"><path d="M0 36h36V0H0v36z"/></clipPath></defs><g clip-path="url(#a)" transform="matrix(1.25 0 0 -1.25 0 45)"><path d="M35.059 18c0-3.304-7.642-11-17.067-11S.925 13.75.925 18c0 3.313 7.642 11 17.067 11s17.067-7.687 17.067-11" fill="#99aab5"/></g><g clip-path="url(#b)" transform="matrix(1.25 0 0 -1.25 0 45)"><path d="M33.817 18c0-2.904-7.087-9.667-15.826-9.667S2.166 14.268 2.166 18c0 2.912 7.086 9.666 15.825 9.666 8.74 0 15.826-6.754 15.826-9.666" fill="#f5f8fa"/><path d="M26.458 18a8.458 8.458 0 1 0-16.917 0 8.458 8.458 0 0 0 16.917 0" fill="#55acee"/></g><g clip-path="url(#c)" transform="matrix(1.25 0 0 -1.25 0 45)"><path d="M22.708 18a4.708 4.708 0 1 0-9.417 0 4.708 4.708 0 0 0 9.417 0" fill="#292f33"/><path d="M23 21a2 2 0 1 0-4 0 2 2 0 0 0 4 0" fill="#f5f8fa"/></g></svg>