<svg xmlns="http://www.w3.org/2000/svg" viewBox="0 0 45 45"><defs><clipPath id="a"><path d="M0 36h36V0H0v36z"/></clipPath></defs><g clip-path="url(#a)" transform="matrix(1.25 0 0 -1.25 0 45)"><path d="M36 13c0-2.071-8.059-5-18-5S0 10.929 0 13s8.059 5 18 5 18-2.929 18-5" fill="#ffd983"/><path d="M29 19c0-1.566-4.925-6-11-6S7.043 17.434 7.043 19C7.043 26 14 29 18 29c4 0 11-3 11-10" fill="#ffd983"/><path d="M29 15c-5-3-17-3-22 0 0 .492.043 3.535.043 4C13 16 23 16 29 19c-.003-.465 0-3.508 0-4" fill="#9266cc"/><path d="M19 12c0-1.104-.448-2-1-2-.553 0-1 .896-1 2 0 1.105.447 2 1 2 .552 0 1-.895 1-2M19 18c0-1.104-.448-2-1-2-.553 0-1 .896-1 2 0 1.105.447 2 1 2 .552 0 1-.895 1-2" fill="#fff"/><path d="M16.586 12.172c-.781-.781-1.731-1.098-2.122-.707-.39.39-.073 1.34.707 2.12.782.782 1.73 1.099 2.122.708.39-.391.074-1.341-.707-2.121M20.828 16.414c-.78-.78-1.73-1.098-2.12-.707-.392.391-.075 1.34.706 2.121.781.781 1.73 1.098 2.121.707.391-.39.074-1.34-.707-2.12" fill="#fff"/><path d="M15 14c-1.104 0-2 .448-2 1 0 .553.896 1 2 1 1.105 0 2-.447 2-1 0-.553-.895-1-2-1M21 14c-1.104-.001-2 .447-2 1 0 .553.896 1 2 1 1.105 0 2-.447 2-1 0-.552-.895-1-2-1" fill="#fff"/><path d="M15.172 16.413c-.782.782-1.098 1.732-.708 2.122.39.391 1.34.074 2.12-.707.783-.782 1.1-1.73.709-2.12-.391-.393-1.341-.075-2.121.705M19.414 12.17c-.782.78-1.098 1.73-.707 2.122.391.392 1.34.074 2.121-.707.781-.78 1.098-1.73.707-2.121-.39-.39-1.34-.074-2.12.707" fill="#fff"/><path d="M20 15a2 2 0 1 0-4 0 2 2 0 0 0 4 0" fill="#ffac33"/></g></svg>