<svg xmlns="http://www.w3.org/2000/svg" viewBox="0 0 45 45"><defs><clipPath id="a"><path d="M0 36h36V0H0v36z"/></clipPath></defs><g clip-path="url(#a)" transform="matrix(1.25 0 0 -1.25 0 45)"><path d="M11 34c-3 0-11-2-11-4s1-7 2-9 8 0 9 1 2 12 0 12" fill="#3b88c3"/><path d="M1 31.283c-.648-.37-1-.849-1-1.283 0-2 1-7 2-9 .281-.563 1.039-.778 2-.85C3 23 2 27 1 31.283" fill="#55acee"/><path d="M25 34c3 0 11-2 11-4s-1-7-2-9-8 0-9 1-2 12 0 12" fill="#3b88c3"/><path d="M35 31.283c.648-.37 1-.849 1-1.283 0-2-1-7-2-9-.281-.563-1.039-.778-2-.85C33 23 34 27 35 31.283" fill="#55acee"/><path d="M25 34h-1.068c-.417-1.695-2.911-3-5.932-3-3.021 0-5.515 1.305-5.932 3H11c-2.209 0-5-1.791-5-4 0 0 0-20-1-24s1.791-4 4-4h18c2.209 0 5 0 4 4s-1 24-1 24c0 2.209-2.791 4-5 4" fill="#3b88c3"/><path d="M18 29c3.866 0 7 2.239 7 5h-1.068c-.417-1.695-2.911-3-5.932-3-3.021 0-5.515 1.305-5.932 3H11c0-2.761 3.134-5 7-5" fill="#55acee"/></g></svg>