<svg xmlns="http://www.w3.org/2000/svg" viewBox="0 0 45 45"><defs><clipPath id="a"><path d="M0 36h36V0H0v36z"/></clipPath></defs><g clip-path="url(#a)" transform="matrix(1.25 0 0 -1.25 0 45)"><path d="M2.79 15.957s-.513-.062-1.032-2.126C1.24 11.773.805 7.314.804 4.76c-.001-.662 1.03-1.064 1.03-1.064l33.015-.023s1.03.437 1.032 1.064c0 1.333.37 6.061-2.818 5.982-1.032-.026-7.371-.878-10.591 1.474-1.19.868-5.156 5.321-7.216 6.387-2.064 1.065-2.15-3.693-6.277-3.691-4.126.004-4.126 1.066-6.19 1.068" fill="#c36446"/><path d="M34.847.484S27.519.218 21.329.224c-6.192.003-5.574 1.866-7.116 1.866-1.031.001-1.031-1.59-1.031-1.593L1.832.504C1.063.504.802 1.218.802 2.1c0 .882-.106 1.597 1.033 1.597l33.015-.024C35.987 3.675 36 2.88 35.999 2c0 0-.013-1.517-1.152-1.516M13.49 12.383l-.604 1.758c2.655.91 3.562 2.649 3.6 2.724l1.667-.82c-.049-.1-1.242-2.487-4.664-3.662M16.582 9.19l-.604 1.758c2.656.91 3.563 2.648 3.6 2.72l1.667-.818c-.05-.101-1.242-2.484-4.662-3.66" fill="#292f33"/></g></svg>