<svg xmlns="http://www.w3.org/2000/svg" viewBox="0 0 45 45"><defs><clipPath id="a"><path d="M0 36h36V0H0v36z"/></clipPath></defs><path d="M27.5 0L25 13.221l7.5 20.529 11.25-1.106L37.5 3.51 31.25 0H27.5zM13.75 0L7.5 3.51 1.25 32.644 12.5 33.75 20 13.221 17.5 0H13.75z" fill="#3b88c3"/><path d="M13.75 45h17.5V6.25h-17.5V45z" fill="#3b88c3"/><path d="M22.481 10.951l-8.731 6.55h2.5l6.367-6.368-.136-.182z" fill="#269"/><g clip-path="url(#a)" transform="matrix(1.25 0 0 -1.25 0 45)"><path d="M25 16s-1.167-1-7-1-7 1-7 1v6h14v-6z" fill="#88c9f9"/><path d="M25 18s-1.167-1-7-1-7 1-7 1v2h14v-2zM25 36l-7-9-7 9h14z" fill="#fff"/><path d="M20.333 36L18 33l-2.333 3h4.666z" fill="#99aab5"/><path d="M25 11v21l2-23-2 2zM11 11v21L9 9l2 2z" fill="#269"/></g></svg>