<svg xmlns="http://www.w3.org/2000/svg" viewBox="0 0 45 45"><defs><clipPath id="a"><path d="M0 36h36V0H0v36z"/></clipPath></defs><g clip-path="url(#a)" transform="matrix(1.25 0 0 -1.25 0 45)"><path d="M36 4a4 4 0 0 0-4-4H4a4 4 0 0 0-4 4v28a4 4 0 0 0 4 4h28a4 4 0 0 0 4-4V4z" fill="#88c9f9"/><path d="M19.34.545a1.922 1.922 0 0 0-2.68 0l-6.633 6.529c-.737.726-.932 2.032-.434 2.904l7.5 18.447c.499.87 1.315.87 1.814 0l7.5-18.447c.498-.872.303-2.178-.434-2.904L19.34.544z" fill="#dd2e44"/><path d="M18 21.332c.949 0 2.004.952 2.899 2.191l-1.992 4.902c-.499.871-1.315.871-1.814 0L15.1 23.523c.897-1.239 1.951-2.191 2.9-2.191" fill="#a0041e"/><path d="M23 30.222c0-1.964-2.791-7.112-5-7.112s-5 5.148-5 7.112C13 32.005 15.791 33 18 33s5-.995 5-2.778" fill="#dd2e44"/><path d="M0 32v-2.254c2.074-2.77 6.779-7.751 8-7.751 2.209 0 11 10.796 11 13.005 0 1-1 1-2 1H4a4 4 0 0 1-4-4" fill="#4ca0d3"/><path d="M17 35c0-2.209 8.791-13.005 11-13.005 1.221 0 5.926 4.981 8 7.751V32a4 4 0 0 1-4 4H19c-1 0-2 0-2-1" fill="#4ca0d3"/><path d="M4 36c-.267 0-.526-.029-.778-.079C4.405 34.264 10.562 33 18 33c7.437 0 13.595 1.264 14.778 2.921-.252.05-.511.079-.778.079H4z" fill="#269"/></g></svg>