<svg xmlns="http://www.w3.org/2000/svg" viewBox="0 0 45 45"><defs><clipPath id="a"><path d="M0 36h36V0H0v36z"/></clipPath></defs><g clip-path="url(#a)" transform="matrix(1.25 0 0 -1.25 0 45)"><path d="M35.998 15.035l.002.027c0 .17-.022.33-.055.483-.477 3.043-4.013 13.56-4.945 15.424-1 2-3.293 1.722-4 1.015-1-1-1-2.992 0-2.992s3 .043 4-2.992c.79-2.399 1.689-5.979 2.269-8.399-1.6.785-4.157 1.18-6.832 1.18-2.929 0-5.248-.293-6.475-.958-.496.112-1.134.177-1.962.177-.828 0-1.466-.065-1.962-.177-1.227.665-3.546.958-6.476.958-2.674 0-5.231-.395-6.831-1.18.58 2.42 1.479 6.001 2.269 8.4 1 3.034 3 2.991 4 2.991s1 1.992 0 2.992c-.707.707-3 .985-4-1.015C4.068 29.105.533 18.59.055 15.545A2.282 2.282 0 0 1 0 15.062l.002-.027A.435.435 0 0 1 0 15h.004c.022-.85.486-1.53 1.058-1.53.046 0 .089.01.133.018.315-2.724 1.153-5.555 1.992-6.394 2.125-2.125 8.5-2.125 10.625 0 1.304 1.303 2.502 5.302 2.973 7.775.38.073.786.131 1.215.131.429 0 .835-.058 1.215-.13.472-2.474 1.669-6.473 2.972-7.776 2.125-2.125 8.5-2.125 10.625 0 .84.84 1.678 3.67 1.993 6.394.044-.008.088-.019.132-.019.573 0 1.037.68 1.059 1.531H36l-.002.035" fill="#292f33"/><path d="M14.875 13.894c0-1.17-1.105-4.223-2.338-5.454-1.557-1.56-6.233-1.56-7.791 0-.779.779-1.559 2.692-1.559 5.029 0 1.559 3.148 2.125 6.376 2.125 3.187 0 5.312-.531 5.312-1.7M21.125 13.894c0-1.17 1.105-4.223 2.338-5.454 1.558-1.56 6.233-1.56 7.791 0 .779.779 1.559 2.692 1.559 5.029 0 1.559-3.148 2.125-6.376 2.125-3.187 0-5.312-.531-5.312-1.7" fill="#55acee"/></g></svg>