<svg xmlns="http://www.w3.org/2000/svg" viewBox="0 0 45 45"><defs><clipPath id="a"><path d="M0 36h36V0H0v36z"/></clipPath></defs><g clip-path="url(#a)" transform="matrix(1.25 0 0 -1.25 0 45)"><path d="M29 11s-4-1-11-1-11 1-11 1 6-5 11-5 11 5 11 5M18 18.144c-5.514 0-10 4.515-10 10.063 0 2.858 1.214 5.59 3.331 7.499l1.338-1.485A8.11 8.11 0 0 1 10 28.207c0-4.446 3.589-8.063 8-8.063s8 3.617 8 8.063a8.108 8.108 0 0 1-2.669 6.013l1.34 1.485A10.112 10.112 0 0 0 28 28.207c0-5.548-4.486-10.063-10-10.063" fill="#553788"/><path d="M16.625 19.144S11.208 23 8.893 30.474c-.185-.182-4.418-5.665-2.209-10.197 2.209-4.531 9.941-1.133 9.941-1.133M19.44 19.144s5.477 4.73 7.731 11.33c.162-.307 4.418-5.665 2.21-10.197-2.21-4.531-9.942-1.133-9.942-1.133M29 11s-4-3-11-3-11 3-11 3 7.208-5.625 9-11h4c1.958 6.625 9 11 9 11" fill="#744eaa"/></g></svg>