<svg xmlns="http://www.w3.org/2000/svg" viewBox="0 0 45 45"><defs><clipPath id="a"><path d="M0 36h36V0H0v36z"/></clipPath></defs><g clip-path="url(#a)" transform="matrix(1.25 0 0 -1.25 0 45)"><path d="M18.163 34.138a1.81 1.81 0 0 0-1.818-1.814 1.757 1.757 0 0 0-1.75 1.836c.04.975.853 1.742 1.817 1.735a1.76 1.76 0 0 0 1.75-1.757" fill="#939598"/><path d="M33.838 21.483c2.792-16.195 3.02-17.58-14.316-17.47l-3.355.022C1.067 4.13-1.17 4.2 1.866 21.685c1.296 7.464 7.682 11.267 14.752 11.222l2.477-.015c7.07-.045 13.453-3.93 14.743-11.41" fill="#d1d3d4"/><path d="M20.304 34.124a1.753 1.753 0 0 0-1.77-1.814 1.813 1.813 0 0 0-1.798 1.837 1.756 1.756 0 0 0 1.77 1.736 1.819 1.819 0 0 0 1.798-1.759" fill="#d1d3d4"/><path d="M34.364 18.78C37.36 1.4 37.604-.083 19.586.03l-3.488.023C.405.152-1.922.215 1.336 18.99c1.38 7.942 7.97 11.972 15.244 11.925l2.55-.016c7.275-.046 13.862-4.16 15.234-12.12" fill="#ea596e"/><path d="M16.14 30.021s-6.717-7.718-4.98-9.651c1.808-2.017 4.98 9.651 4.98 9.651M18.404 30.007s6.603-7.803 4.84-9.714c-1.839-1.993-4.84 9.714-4.84 9.714" fill="#dd2e44"/></g></svg>