<svg xmlns="http://www.w3.org/2000/svg" viewBox="0 0 45 45"><defs><clipPath id="a"><path d="M0 36h36V0H0v36z"/></clipPath></defs><g clip-path="url(#a)" transform="matrix(1.25 0 0 -1.25 0 45)"><path d="M12 33h12s-1-3-6-3-6 3-6 3" fill="#553788"/><path d="M30.559 19.177L34.999 25c-4 2-11 8-11 8s-2-4-6-4-6 4-6 4-7-6-11-8l4.44-5.824L10 21s.25-16-3-19c0 0 5-1 11-1s11 1 11 1c-3.25 3-3 19-3 19l4.56-1.823z" fill="#aa8dd8"/><path d="M6 19a.994.994 0 0 0-.78.376l-4 5a.999.999 0 1 0 1.56 1.248l4-5A.999.999 0 0 0 6 19M29.999 19a1 1 0 0 0-.78 1.624l4 5a1 1 0 1 0 1.562-1.248l-4-5a.996.996 0 0 0-.782-.376M24 33s-3-3-6-3-6 3-6 3l2-7 3 2.25V2a1 1 0 1 1 2 0v26.25L22 26l2 7z" fill="#9266cc"/></g></svg>