<svg xmlns="http://www.w3.org/2000/svg" viewBox="0 0 45 45"><defs><clipPath id="a"><path d="M0 36h36V0H0v36z"/></clipPath></defs><g clip-path="url(#a)" transform="matrix(1.25 0 0 -1.25 0 45)"><path d="M22.42 24.153L26 34s-.398-.002-1-.034V36h-2v-2.219c-2.271-.303-5-1.028-5-2.78 0 1.752-2.73 2.477-5 2.78v2.22h-2v-2.035c-.601.032-1 .034-1 .034l3.58-9.847L1 10.357S7 0 18 0s17 10.357 17 10.357L22.42 24.153z" fill="#55acee"/><path d="M23 23H13v2h10v-2z" fill="#bbddf5"/><path d="M15 23s-6.734-8.106-5.051-9.006C11.633 13.093 15 23 15 23M21.096 23s6.734-8.105 5.05-9.007c-1.683-.9-5.05 9.007-5.05 9.007M18 23s-2-11 0-11 0 11 0 11" fill="#3b88c3"/></g></svg>