<svg xmlns="http://www.w3.org/2000/svg" viewBox="0 0 45 45"><defs><clipPath id="a"><path d="M0 36h36V0H0v36z"/></clipPath></defs><g clip-path="url(#a)" transform="matrix(1.25 0 0 -1.25 0 45)"><path d="M13.375 19.461l.009-.06-3.782 8.112c-.286.612-1.148.815-1.925.452l-.061-.028c-.68-.318-1.071-.964-.965-1.53 0 0-1.275 1.146-2.024.797l-.059-.028c-.748-.349-1.122-1.136-.832-1.757l.533-1.192c-.301.644-1.19.865-1.985.494l-.063-.03c-.795-.37-1.197-1.193-.896-1.837l5.131-13.15 6.794-.212 2.031 6.25-1.906 3.72zM33.852 24.692l-.061.029c-.796.372-1.685.15-1.986-.494l.533 1.193c.29.62-.085 1.407-.833 1.757l-.059.027c-.749.35-1.59.13-1.882-.491l-.143-.306c.108.567-.283 1.213-.964 1.53l-.06.028c-.778.363-1.64.16-1.925-.451l-3.77-8.09-.035.116-2.02-4.52 3.352-6.395 6.196 4.463 4.553 9.766c.301.644-.1 1.467-.896 1.838" fill="#ef9645"/><path d="M35.809 20.328s.653 1.043-.454 1.558c-1.107.514-1.483-.658-1.483-.658l-2.39-5.142c-.14.164-.704.516-.865.67l3.315 7.137s.653 1.044-.455 1.559c-1.107.514-1.483-.658-1.483-.658l-3.12-6.711c-.173.099-.63.327-.811.424l3.616 7.78s.652 1.044-.455 1.558c-1.106.515-1.482-.657-1.482-.657l-3.62-7.78c-.192.079-.795.335-.987.404l3.38 7.273s.65 1.043-.455 1.557c-1.108.515-1.483-.656-1.483-.656l-3.575-7.69-.286-.616-.128-.276c3.323-1.544 4.487-5.617 3.2-8.384-.257-.554-1.176-.3-1.176-.3 1.544 3.32.358 6.566-2.964 8.109l.143 4.546s.134 1.213-1.08 1.348c-1.214.134-1.347-1.08-1.347-1.08l-.51-3.183c-.202-1.262-.43-2.525-.81-3.746A7.332 7.332 0 0 1 21.96 7.91a7.33 7.33 0 0 1 9.733 3.556l.257.556 3.859 8.305z" fill="#ffdc5d"/><path d="M.192 20.328s-.654 1.043.453 1.558c1.108.514 1.483-.658 1.483-.658l2.39-5.142c.14.164.705.516.866.67l-3.315 7.137s-.654 1.044.455 1.559c1.106.514 1.482-.658 1.482-.658l3.119-6.711c.175.099.63.327.813.424l-3.617 7.78s-.652 1.044.455 1.558c1.107.515 1.483-.657 1.483-.657l3.618-7.78c.193.079.797.335.988.404l-3.38 7.273s-.651 1.043.456 1.557c1.107.515 1.483-.656 1.483-.656l3.574-7.69.286-.616.128-.276c-3.323-1.544-4.486-5.617-3.2-8.384.258-.554 1.177-.3 1.177-.3-1.544 3.32-.36 6.566 2.963 8.109l-.142 4.546s-.135 1.213 1.078 1.348c1.215.134 1.349-1.08 1.349-1.08l.508-3.183c.203-1.262.432-2.525.81-3.746a7.328 7.328 0 0 0-13.648-5.247l-.256.556-3.86 8.305z" fill="#ffdc5d"/></g></svg>