<svg xmlns="http://www.w3.org/2000/svg" viewBox="0 0 45 45"><defs><clipPath id="a"><path d="M0 36h36V0H0v36z"/></clipPath></defs><g clip-path="url(#a)" transform="matrix(1.25 0 0 -1.25 0 45)"><path d="M10 25S0 23 0 18c0-2.043 1.069-2.964 2.507-2.964C5.469 15.036 10 18.941 10 25m-2.402-2.736c-.993-3.26-3.588-5.228-5.091-5.228-.261 0-.507 0-.507.964 0 1.699 2.78 3.284 5.598 4.264" fill="#c1694f"/><path d="M33.752 21.03C33.48 23.215 31.457 25 29.257 25H10.743c-2.2 0-4.222-1.786-4.495-3.97L4.495 6.97C4.223 4.786 5.8 3 8 3h24c2.2 0 3.777 1.786 3.505 3.97l-1.753 14.06z" fill="#a6d388"/><path d="M8 23s2.5-8.5 4-7-4 7-4 7M31.258 23s-2.5-8.5-4-7 4 7 4 7" fill="#77b255"/></g></svg>