<svg xmlns="http://www.w3.org/2000/svg" viewBox="0 0 45 45"><defs><clipPath id="a"><path d="M0 36h36V0H0v36z"/></clipPath></defs><g clip-path="url(#a)" transform="matrix(1.25 0 0 -1.25 0 45)"><path d="M18.935 10.515c-.517-.781-1.353-.781-1.87 0l-4.677 5.07c-.517.783-.517 2.049 0 2.83l4.678 9.07c.516.782 1.352.782 1.869 0l4.678-9.07c.516-.781.516-2.047 0-2.83l-4.678-5.07z" fill="#f4900c"/><path d="M28.435 8.515c-.517-.781-1.353-.781-1.87 0l-4.677 5.07c-.517.783-.517 2.048 0 2.83l6.678 9.07c.516.782 1.352.782 1.869 0l2.678-9.07c.516-.782.516-2.047 0-2.83l-4.678-5.07zM9.435 8.515c-.517-.781-1.354-.781-1.87 0l-4.678 5.07c-.516.783-.516 2.048 0 2.83l2.677 9.07c.517.782 1.354.782 1.871 0l6.678-9.07c.516-.782.516-2.047 0-2.83l-4.678-5.07z" fill="#f4900c"/><path d="M33 25a68.1 68.1 0 0 1-4-4.369l-4.565 8.854c-.517.781-1.353.781-1.87 0L18 20.632l-4.565 8.853c-.516.781-1.354.781-1.871 0L7 20.632A67.97 67.97 0 0 1 3 25c-1 1-2.485.94-2-1 1-4 1-7 1-12v-2a4 4 0 0 1 4-4h24a4 4 0 0 1 4 4v2c0 5 0 8 1 12 .484 1.94-1 2-2 1" fill="#ffcc4d"/><path d="M21 14a3 3 0 1 0-6 0 3 3 0 0 0 6 0M28 14a2 2 0 1 0-4 0 2 2 0 0 0 4 0M35 14a2 2 0 1 0-4 0 2 2 0 0 0 4 0M12 14a2 2 0 1 0-4 0 2 2 0 0 0 4 0M5 14a2 2 0 1 0-4 0 2 2 0 0 0 4 0" fill="#5c913b"/><path d="M34 10a4 4 0 0 0-4-4H6a4 4 0 0 0-4 4h32z" fill="#ffac33"/></g></svg>