<svg xmlns="http://www.w3.org/2000/svg" viewBox="0 0 45 45"><defs><clipPath id="a"><path d="M0 36h36V0H0v36z"/></clipPath></defs><g clip-path="url(#a)" transform="matrix(1.25 0 0 -1.25 0 45)"><path d="M36 1.5A1.5 1.5 0 0 0 34.5 0h-33a1.5 1.5 0 1 0 0 3h33A1.5 1.5 0 0 0 36 1.5" fill="#ccd6dd"/><path d="M1.452 12.613S.93 12.55.402 10.455C-.124 8.366.06 6.392.058 3.8c0-.67 1.045-1.082 1.045-1.082l33.52-.04s1.047.442 1.047 1.078c.003 1.354-.67 5.237-5.07 5.237-1.048 0-5.27-.049-8.538 2.341-1.208.882-5.86 2.852-7.953 3.934-2.094 1.084-2.184-3.748-6.374-3.742-4.189.006-4.188 1.084-6.283 1.088" fill="#55acee"/><path d="M12.312 8.98l-.61 1.782c2.696.923 3.617 2.688 3.655 2.762l1.691-.83c-.05-.104-1.261-2.526-4.736-3.715M17.043 6.697l-.611 1.783c2.697.924 3.642 2.737 3.65 2.754l1.695-.824c-.05-.103-1.262-2.523-4.735-3.713" fill="#269"/><path d="M35 2H1a1 1 0 1 0 0 2h34a1 1 0 1 0 0-2" fill="#3b88c3"/></g></svg>