<svg xmlns="http://www.w3.org/2000/svg" viewBox="0 0 45 45"><defs><clipPath id="a"><path d="M0 36h36V0H0v36z"/></clipPath></defs><g clip-path="url(#a)" transform="matrix(1.25 0 0 -1.25 0 45)"><path d="M8 17c0-2.209-1.119-4-2.5-4S3 14.791 3 17c0 2.21 1.119 4.001 2.5 4.001S8 19.21 8 17M33 17c0-2.209-1.119-4-2.5-4S28 14.791 28 17c0 2.21 1.119 4.001 2.5 4.001S33 19.21 33 17" fill="#ffdc5d"/><path d="M5 15.438c0 8.525 5.82 15.438 13 15.438s13-6.912 13-15.438C31 6.913 25.18 0 18 0S5 6.913 5 15.438" fill="#ffdc5d"/><path d="M13 16a1 1 0 0 0-1 1v2a1 1 0 0 0 2 0v-2a1 1 0 0 0-1-1M23 16a1 1 0 0 0-1 1v2a1 1 0 1 0 2 0v-2a1 1 0 0 0-1-1" fill="#662113"/><path d="M19 12h-2a1 1 0 1 0 0 2h2a1 1 0 1 0 0-2" fill="#c1694f"/><path d="M25.274 8.962l-3.294.94c.003.035.02.064.02.098a1 1 0 0 1-1 1h-6a1 1 0 0 1-1-1c0-.034.016-.063.02-.097l-3.295-.941a1 1 0 1 1 .55-1.924l1.93.552a.993.993 0 0 1-.1-1.037.999.999 0 0 1 1.342-.447l1.576.788a.983.983 0 0 1 .53-.788.998.998 0 0 1 1.341.447l.106.21.105-.21a.999.999 0 0 1 1.342-.447.981.981 0 0 1 .53.788l1.575-.788a1 1 0 0 1 1.342.447.995.995 0 0 1-.099 1.037l1.93-.552a1 1 0 0 1 .549 1.924M18 36c8.615 0 14-6.357 14-11.655 0-5.298-1.077-7.418-2.154-5.298l-2.154 4.238s-6.462 0-8.615 2.12c0 0 3.231-6.358-3.231 0 0 0 1.077-4.24-5.385 1.059 0 0-3.23-2.12-4.307-7.417-.299-1.47-2.154 0-2.154 5.298S8.308 36 18 36" fill="#ffac33"/></g></svg>