<svg xmlns="http://www.w3.org/2000/svg" viewBox="0 0 45 45"><defs><clipPath id="a"><path d="M0 36h36V0H0v36z"/></clipPath></defs><g clip-path="url(#a)" transform="matrix(1.25 0 0 -1.25 0 45)"><path d="M11 36a5.964 5.964 0 0 1-3.403-1.061c-.196.03-.393.061-.597.061a4 4 0 0 1-4-4v-6a7 7 0 1 1 14 0v4.999A6 6 0 0 1 11 36" fill="#ffac33"/><path d="M9 1H6v8h3V1zM14 1h-3v8h3V1z" fill="#ffdc5d"/><path d="M9 8H6v1h3V8zM14 8h-3v1h3V8z" fill="#f9ca55"/><path d="M5 0v1s0 1 2 1 2-1 2-1V0H5zM11 0v1s0 1 2 1 2-1 2-1V0h-4z" fill="#292f33"/><path d="M.999 10a1 1 0 0 0-.873 1.485l5 9.001a1 1 0 1 0 1.748-.972l-5-8.999A1 1 0 0 0 .999 10M19.001 10a1 1 0 0 0-.875.515l-5 8.999a1 1 0 1 0 1.748.972l5-9.001A.998.998 0 0 0 19.001 10" fill="#ffdc5d"/><path d="M4 9h12l-2 6v4h2v1a2 2 0 0 1-2 2H6a2 2 0 0 1-2-2v-1h2v-4L4 9z" fill="#e75a70"/><path d="M14.001 15h-8v2h8v-2z" fill="#da2f47"/><path d="M8 25v-4a2 2 0 0 1 4 0v4H8z" fill="#ffdc5d"/><path d="M12 25l-4-.019V21s2-1 4 0v4z" fill="#f9ca55"/><path d="M15 33H5v-6.001A4.998 4.998 0 0 1 9.999 22 5 5 0 0 1 15 26.999V33z" fill="#ffdc5d"/><path d="M8 33s0-4 8-4v4H8zM8 33s0-4-4-4v4h4z" fill="#ffac33"/><path d="M12 24H8s0-1 2-1 2 1 2 1" fill="#df1f32"/><path d="M8 27.5a.5.5 0 1 0-1 0 .5.5 0 0 0 1 0M13 27.5a.5.5 0 1 0-1 0 .5.5 0 0 0 1 0" fill="#662113"/><path d="M9 26h2s-.001-1-1-1c-1 0-1 1-1 1" fill="#c1694f"/><path d="M26.5 36a5.47 5.47 0 0 1-3.181-1.018A3.492 3.492 0 0 1 20 31.5c0-1.542.007-3.484 2.038-4.208A5.487 5.487 0 0 1 26.5 25a5.5 5.5 0 1 1 0 11" fill="#ffac33"/><path d="M27 13h-5V1h3v8h2V1h3v12h-3z" fill="#664500"/><path d="M21 0v1s0 1 2 1 2-1 2-1V0h-4zM27 0v1s0 1 2 1 2-1 2-1V0h-4z" fill="#292f33"/><path d="M16.999 10a1 1 0 0 0-.873 1.485l5 9.001a1 1 0 1 0 1.748-.972l-5-8.999a1 1 0 0 0-.875-.515M35.001 10a1 1 0 0 0-.875.515l-5 8.999a.999.999 0 1 0 1.748.972l5-9.001A.998.998 0 0 0 35.001 10" fill="#ffdc5d"/><path d="M32 20a2 2 0 0 1-2 2h-8a2 2 0 0 1-2-2v-1h2v-7h8v7h2v1z" fill="#4289c1"/><path d="M24 25v-4a2 2 0 0 1 4 0v4h-4z" fill="#ffdc5d"/><path d="M28 25l-4-.019V21s2-1 4 0v4z" fill="#f9ca55"/><path d="M31 33H21v-6.001A4.998 4.998 0 0 1 26 22c2.762 0 5 2.237 5 4.999V33z" fill="#ffdc5d"/><path d="M24 33h-3v-4c2.333 0 2.85 2.412 2.965 3.488C24.004 31.412 24.779 29 31 29v4h-7z" fill="#ffac33"/><path d="M28 24h-4s0-1 2-1 2 1 2 1" fill="#c1694f"/><path d="M24 27.5a.5.5 0 1 0-1 0 .5.5 0 0 0 1 0M29 27.5a.5.5 0 1 0-1 0 .5.5 0 0 0 1 0" fill="#662113"/><path d="M25 26h2s0-1-1-1-1 1-1 1" fill="#c1694f"/></g></svg>