<svg xmlns="http://www.w3.org/2000/svg" viewBox="0 0 45 45"><defs><clipPath id="a"><path d="M0 0h36v36H0V0z"/></clipPath></defs><path d="M6.25 27.5v-5h6.25v5H15V35H3.75v-7.5h2.5z" fill="#ffdc5d"/><g clip-path="url(#a)" transform="matrix(1.25 0 0 -1.25 0 45)"><path d="M8.14 36a8.809 8.809 0 0 1-3.74-.836 6.89 6.89 0 0 1-.595.03 7.138 7.138 0 0 1-7.139-7.139c0-3.123 2.01-5.772 4.805-6.74a8.831 8.831 0 0 1 6.668-3.038A8.862 8.862 0 0 1 8.14 36" fill="#ffac33"/><path d="M0 32V22h.024c.253-3.89 3.498-6.969 7.476-6.969 3.977 0 7.247 3.079 7.5 6.969v9L0 32z" fill="#ffdc5d"/><path d="M15 14h-5l-2.472-3.778L5 14h-6c-1.779 0-1.945-1.193-1.945-2.973V0H18v11.027C18 13 17 14 15 14" fill="#3b93d9"/><path d="M10.722 18.277H4.278s.805-1.61 3.222-1.61 3.222 1.61 3.222 1.61" fill="#bf6952"/><path d="M4 23a1 1 0 0 0-1 1v1a1 1 0 0 0 2 0v-1a1 1 0 0 0-1-1M11 23a1 1 0 0 0-1 1v1a1 1 0 0 0 2 0v-1a1 1 0 0 0-1-1" fill="#662113"/><path d="M8 20.5H7a.5.5 0 0 0 0 1h1a.5.5 0 0 0 0-1" fill="#bf6952"/><path d="M27.902 36a8.809 8.809 0 0 0 3.74-.836c.196.017.393.03.593.03a7.138 7.138 0 0 0 7.14-7.139c0-3.123-2.01-5.772-4.805-6.74a8.831 8.831 0 0 0-6.668-3.038 8.862 8.862 0 0 0 0 17.723" fill="#ffac33"/><path d="M26 14v4h5v-4h2V8h-9v6h2z" fill="#ffdc5d"/><path d="M36 32V22h-.024c-.253-3.89-3.498-6.969-7.476-6.969-3.977 0-7.223 3.079-7.476 6.969L21 32h15z" fill="#ffdc5d"/><path d="M35.86 26H37l-.14 6-4 1-12-1-1-6c6.07 0 9.55 2.576 11.357 4.603C31.782 28.83 33.114 26 35.86 26" fill="#ffac33"/><path d="M21 14h5l2.472-3.778L31 14h6c1.779 0 1.945-1.193 1.945-2.973V0H18v11.027C18 13 19 14 21 14" fill="#3b93d9"/><path d="M25.278 18.277h6.444s-.805-1.61-3.222-1.61-3.222 1.61-3.222 1.61" fill="#bf6952"/><path d="M32 23a1 1 0 0 1 1 1v1a1 1 0 0 1-2 0v-1a1 1 0 0 1 1-1M25 23a1 1 0 0 1 1 1v1a1 1 0 0 1-2 0v-1a1 1 0 0 1 1-1" fill="#662113"/><path d="M28 20.5h1a.5.5 0 0 1 0 1h-1a.5.5 0 0 1 0-1" fill="#bf6952"/><path d="M15.806 26l-1 6-2 1h-13v-7c6.07 0 9.549 2.576 11.356 4.603C11.727 28.83 13.059 26 15.806 26" fill="#ffac33"/><path d="M18.473 21a7.82 7.82 0 0 1-3.464-.812 6.131 6.131 0 1 1-3.123-11.333 7.85 7.85 0 0 1 6.587-3.578 7.861 7.861 0 0 1 7.86 7.862A7.861 7.861 0 0 1 18.474 21" fill="#f4900c"/><path d="M20 1v4h-4V1h-1V0h6v1h-1z" fill="#ffdc5d"/><path d="M26.334 13.139s.541-4.451 1.666-8.14c0 0-4.344-3-9-3 0 1.564 7.334 11.14 7.334 11.14M9.666 13.139S9.125 8.688 8 4.999c0 0 4.344-3 9-3 0 1.564-7.334 11.14-7.334 11.14" fill="#f4900c"/><path d="M25 16h-3.557a6.99 6.99 0 0 1-3.446.906A6.993 6.993 0 0 1 14.551 16H11v-6h.002L11 9.953C11 6.113 14.133 3 17.997 3s6.997 3.113 6.997 6.953l-.002.047H25v6z" fill="#ffdc5d"/><path d="M21 6h-6s.583-2 3-2 3 2 3 2M18 6.5a.47.47 0 0 0-.35.15.47.47 0 0 0-.15.35c0 .13.05.26.15.36.17.17.52.18.71-.009A.504.504 0 0 0 18.5 7a.47.47 0 0 0-.15-.35.47.47 0 0 0-.35-.15" fill="#bf6952"/><path d="M15 8a1 1 0 0 0-1 1v1a1 1 0 1 0 2 0V9a1 1 0 0 0-1-1M21 8a1 1 0 0 0-1 1v1a1 1 0 1 0 2 0V9a1 1 0 0 0-1-1" fill="#662113"/><path d="M26 13l-1 4-3 2-11-1-.861-5c5.41 0 8.425 1.755 10.065 3.367C21.44 14.908 23.528 13 26 13" fill="#f4900c"/><path d="M20 4h-4V2s2-1 4 0v2z" fill="#ffdc5d"/><path d="M23 3h-3l-2-3-2 3h-2c-3 0-5-2-5-4v-1h18v1c0 1.973-2 4-4 4" fill="#ea596e"/></g></svg>