<svg xmlns="http://www.w3.org/2000/svg" viewBox="0 0 45 45"><defs><clipPath id="a"><path d="M0 36h36V0H0v36z"/></clipPath></defs><path d="M10 43.75H6.25L7.5 31.61h3.75L10 43.75z" fill="#ffdc5d"/><g clip-path="url(#a)" transform="matrix(1.25 0 0 -1.25 0 45)"><path d="M13.875 2.208l-1.834 1.333s3.167 3.012 2.532 3.994c-.637.982-3.782 1.688-3.782 1.688l1.918 2.306s3.957-1.904 4.77-3.333c.826-1.451-3.604-5.988-3.604-5.988" fill="#ffdc5d"/><path d="M4 0v1s0 1 2 1 2-1 2-1V0H4zM14.553.517l.421.908s.42.907-1.396 1.747c-1.813.84-2.233-.066-2.233-.066l-.42-.907L14.553.517z" fill="#292f33"/><path d="M5 9.712a.997.997 0 0 0-.707.293l-3 3a1 1 0 0 0-.074 1.332l4 3.288a1 1 0 1 0 1.562-1.25l-3.441-2.59 2.367-2.366A.999.999 0 0 0 5 9.712M15 9.712a.999.999 0 0 0-.707 1.707l2.367 2.367-3.441 2.589a1 1 0 0 0 1.562 1.25l4-3.288a1 1 0 0 0-.074-1.332l-3-3A.997.997 0 0 0 15 9.712" fill="#ffdc5d"/><path d="M16 17a2 2 0 0 1-2 2H6a2 2 0 0 1-2-2v-1h2v-5.288l3-2h2l3 2V16h2v1z" fill="#292f33"/><path d="M12 19v3H8v-3H7v-1s0-3 3-3 3 3 3 3v1h-1z" fill="#ffdc5d"/><path d="M12 22l-4-.019V18s2-1 4 0v4z" fill="#f9ca55"/><path d="M17 26.999A6.001 6.001 0 0 1 11 33a5.964 5.964 0 0 1-3.402-1.061C7.4 31.969 7.205 32 7 32a4 4 0 0 1-4-4v-6h2.422A4.974 4.974 0 0 0 5 23.999V26.106C7.989 26.715 8 30 8 30s.019-3.644 7-3.968v-2.033c0-.712-.154-1.386-.422-1.999H17v4.999z" fill="#ffac33"/><path d="M15 24v2.032C8.019 26.356 8 30 8 30s-.011-3.285-3-3.894V24c0-.713.154-1.387.422-2A4.995 4.995 0 0 1 10 19a4.996 4.996 0 0 1 4.578 3c.268.613.422 1.287.422 2z" fill="#ffdc5d"/><path d="M12 21H8s0-1 2-1 2 1 2 1" fill="#df1f32"/><path d="M8 24.5a.5.5 0 1 0-1 0 .5.5 0 0 0 1 0M13 24.5a.5.5 0 1 0-1 0 .5.5 0 0 0 1 0" fill="#662113"/><path d="M9 23h2s-.001-1-1-1c-1 0-1 1-1 1" fill="#c1694f"/><path d="M4.687 34.875c2.625.219 3.75-2.875 3-4.25-1.969 0-3.937 1.812-3 4.25M14.675 34.813c-2.625.218-3.75-2.876-3-4.25 1.969 0 3.937 1.812 3 4.25" fill="#292f33"/><path d="M7.312 31.75c1.812 1.437 4.344 1.062 5.156-.156.031-.313-.37-1.178-.687-1.031-.813.375-2.188.937-4.063.062-.094.063-.44 1.098-.406 1.125" fill="#292f33"/><path d="M24 1h-3l1 9.712h3L24 1zM29.875 2.208l-1.833 1.333s3.167 3.012 2.53 3.994c-.635.982-3.781 1.688-3.781 1.688l1.918 2.306s3.958-1.904 4.77-3.333c.826-1.451-3.604-5.988-3.604-5.988" fill="#ffdc5d"/><path d="M30.553.517l.422.908s.418.907-1.397 1.747c-1.812.84-2.232-.066-2.232-.066l-.42-.907L30.553.517zM20 0v1s0 1 2 1 2-1 2-1V0h-4z" fill="#292f33"/><path d="M21 9.712a.997.997 0 0 0-.707.293l-3 3a1 1 0 0 0-.074 1.332l4 3.288a1 1 0 1 0 1.562-1.25l-3.441-2.59 2.367-2.366A.999.999 0 0 0 21 9.712M31 9.712a.999.999 0 0 0-.707 1.707l2.367 2.367-3.441 2.589a1 1 0 1 0 1.562 1.25l4-3.288a1 1 0 0 0-.074-1.332l-3-3A.997.997 0 0 0 31 9.712" fill="#ffdc5d"/><path d="M32 17a2 2 0 0 1-2 2h-8a2 2 0 0 1-2-2v-1h2v-5.288l3-2h2l3 2V16h2v1z" fill="#292f33"/><path d="M28 19v3h-4v-3h-1v-1s0-3 3-3 3 3 3 3v1h-1z" fill="#ffdc5d"/><path d="M28 22l-4-.019V18s2-1 4 0v4z" fill="#f9ca55"/><path d="M33 26.999A6.001 6.001 0 0 1 27 33a5.964 5.964 0 0 1-3.402-1.061c-.197.03-.393.061-.598.061a4 4 0 0 1-4-4v-6h2.422A4.974 4.974 0 0 0 21 23.999V26.106c2.989.609 3 3.894 3 3.894s.019-3.644 7-3.968v-2.033c0-.712-.154-1.386-.422-1.999H33v4.999z" fill="#ffac33"/><path d="M31 24v2.032C24.019 26.356 24 30 24 30s-.011-3.285-3-3.894V24c0-.713.154-1.387.422-2A4.995 4.995 0 0 1 26 19a4.995 4.995 0 0 1 4.578 3c.268.613.422 1.287.422 2z" fill="#ffdc5d"/><path d="M28 21h-4s0-1 2-1 2 1 2 1" fill="#df1f32"/><path d="M24 24.5a.5.5 0 1 0-1 0 .5.5 0 0 0 1 0M29 24.5a.5.5 0 1 0-1 0 .5.5 0 0 0 1 0" fill="#662113"/><path d="M25 23h2s0-1-1-1-1 1-1 1" fill="#c1694f"/><path d="M20.781 34.875c2.625.219 3.75-2.875 3-4.25-1.969 0-3.937 1.812-3 4.25M30.768 34.813c-2.625.218-3.75-2.876-3-4.25 1.97 0 3.937 1.812 3 4.25" fill="#292f33"/><path d="M23.406 31.75c1.812 1.437 4.344 1.062 5.156-.156.031-.313-.37-1.178-.687-1.031-.813.375-2.188.937-4.063.062-.094.063-.44 1.098-.406 1.125" fill="#292f33"/></g></svg>