<svg xmlns="http://www.w3.org/2000/svg" viewBox="0 0 45 45"><defs><clipPath id="a"><path d="M0 0h36v36H0V0z"/></clipPath><clipPath id="b"><path d="M0 36h36V0H0v36z"/></clipPath></defs><g clip-path="url(#a)" transform="matrix(1.25 0 0 -1.25 0 45)"><path d="M43 16c0-6.626-5.374-12-12-12S19 9.374 19 16c0 6.627 5.374 12 12 12s12-5.373 12-12" fill="#ffdc5d"/><path d="M30 29.295c-8.438.01-11.687-5.715-9.333-8.295 1.412-1.548 7.396-1.75 8.333.5 6.516-1.171 11.592-5.618 12.37-11.07a.5.5 0 0 1 .951-.134 13.37 13.37 0 0 1 1.179 5.499c0 7.444-6.056 13.49-13.5 13.5" fill="#ffac33"/><path d="M19.41 22.895s.982-2.695 4.672-4.102c3.691-1.407 9.121-.297 9.121-.297s-5.536 8.889-13.794 4.399" fill="#ffac33"/><path d="M26 13.5c-1.977 0-2.5 1.636-2.5 2.5a.5.5 0 0 0 1 .003c.003-.252.089-1.503 1.5-1.503a.5.5 0 0 0 0-1M31 13.5c-1.977 0-2.5 1.636-2.5 2.5a.5.5 0 0 0 1 .003c.003-.252.089-1.503 1.5-1.503a.5.5 0 0 0 0-1M26 6.5c-.602 0-1.5.399-1.5 1.5 0 .438.143.765.352 1-.209.235-.352.561-.352 1 0 1.101.898 1.5 1.5 1.5a.5.5 0 0 0 .005-1c-.231-.006-.505-.098-.505-.5s.274-.494.505-.5a.501.501 0 0 0 .006-1H26c-.225-.006-.5-.098-.5-.5s.275-.494.506-.5a.502.502 0 0 0 .49-.506A.497.497 0 0 0 26 6.5" fill="#642116"/><path d="M-7 15.938c0-6.627 5.374-12 12-12s12 5.373 12 12c0 6.626-5.374 12-12 12s-12-5.373-12-12" fill="#ffdc5d"/><path d="M6 29.232c8.438.011 11.687-5.715 9.333-8.295-1.412-1.548-7.396-1.75-8.333.5-6.516-1.17-11.592-5.618-12.37-11.07a.5.5 0 0 0-.951-.134 13.37 13.37 0 0 0-1.179 5.5c0 7.443 6.056 13.49 13.5 13.5" fill="#ffac33"/><path d="M16.566 22.92s-.948-2.706-4.62-4.16c-3.673-1.454-9.117-.413-9.117-.413s5.423 8.959 13.737 4.574" fill="#ffac33"/><path d="M10 13.438c1.977 0 2.5 1.635 2.5 2.5a.5.5 0 0 1-1 .002c-.003-.251-.089-1.502-1.5-1.502a.5.5 0 0 1 0-1M5 13.438c1.977 0 2.5 1.635 2.5 2.5a.5.5 0 0 1-1 .002c-.003-.251-.089-1.502-1.5-1.502a.5.5 0 0 1 0-1M10 6.438c.602 0 1.5.399 1.5 1.5 0 .438-.143.765-.352 1 .209.234.352.56.352 1 0 1.1-.898 1.5-1.5 1.5a.5.5 0 0 1-.005-1c.231-.007.505-.099.505-.5 0-.403-.274-.495-.505-.5a.501.501 0 0 1-.006-1H10c.225-.007.5-.099.5-.5 0-.402-.275-.494-.506-.5a.502.502 0 0 1-.49-.506.497.497 0 0 1 .496-.495" fill="#642116"/></g><g clip-path="url(#b)" transform="matrix(1.25 0 0 -1.25 0 45)"><path d="M26.538 31.29a4.711 4.711 0 0 1-4.71 4.71A4.704 4.704 0 0 1 18 34.028 4.702 4.702 0 0 1 14.173 36a4.711 4.711 0 0 1-4.711-4.71c0-.37.047-.728.127-1.07.654-4.066 5.173-8.354 8.41-9.53 3.239 1.176 7.759 5.464 8.413 9.528.08.344.127.702.127 1.071" fill="#ea596e"/></g></svg>