<svg xmlns="http://www.w3.org/2000/svg" viewBox="0 0 45 45"><defs><clipPath id="a"><path d="M0 36h36V0H0v36z"/></clipPath></defs><g clip-path="url(#a)" transform="matrix(1.25 0 0 -1.25 0 45)"><path d="M24 9.201v2.566c2 1.348 4.08 3.78 4.703 6.896.186-.102.206-.17.413-.17.991 0 1.709 1.287 1.709 2.874 0 1.562-.823 2.827-1.794 2.865.187.675.293 1.577.293 2.736 0 3.865-3.324 8.506-10.783 8.506-6.629 0-10.777-4.64-10.777-8.506 0-1.123.069-2.043.188-2.756-.911-.137-1.629-1.35-1.629-2.845 0-1.587.803-2.874 1.796-2.874.206 0 .025.068.209.17C8.952 15.547 11 13.115 13 11.767V9.353C8 8.71 1 5.917 1 3.123V2.062C1 1 2.076 1 3.137 1h29.724C33.924 1 35 1 35 2.062v1.061c0 2.615-6 5.224-11 6.078" fill="#292f33"/></g></svg>