<svg xmlns="http://www.w3.org/2000/svg" viewBox="0 0 45 45"><defs><clipPath id="a"><path d="M0 0h36v36H0V0z"/></clipPath></defs><path d="M12.5 22.5v5H15V35H3.75v-7.5h2.5v-5" fill="#ffdc5d"/><g clip-path="url(#a)" transform="matrix(1.25 0 0 -1.25 0 45)"><path d="M8.139 36a8.809 8.809 0 0 1-3.74-.836c-.196.017-.393.03-.593.03a7.138 7.138 0 0 1-7.14-7.139c0-3.123 2.01-5.772 4.805-6.74a8.831 8.831 0 0 1 6.668-3.038 8.862 8.862 0 0 1 0 17.723" fill="#ffac33"/><path d="M0 32V22h.024c.253-3.89 3.498-6.969 7.476-6.969 3.977 0 7.247 3.079 7.5 6.969v9L0 32z" fill="#ffdc5d"/><path d="M15 14h-5l-2.472-3.778L5 14h-6c-1.78 0-1.945-1.193-1.945-2.973V0H18v11.027C18 13 17 14 15 14" fill="#3b94d9"/><path d="M13.027 0h-1.028v10h1.028V0z" fill="#1c6399"/><path d="M10.722 18.277H4.278s.805-1.61 3.222-1.61 3.222 1.61 3.222 1.61" fill="#bf6952"/><path d="M4 23a1 1 0 0 0-1 1v1a1 1 0 0 0 2 0v-1a1 1 0 0 0-1-1M11 23a1 1 0 0 0-1 1v1a1 1 0 0 0 2 0v-1a1 1 0 0 0-1-1" fill="#662113"/><path d="M8 20.5H7a.5.5 0 0 0 0 1h1a.5.5 0 0 0 0-1" fill="#bf6952"/><path d="M15.805 26l-1 6-2 1h-13v-7c6.07 0 9.55 2.576 11.356 4.603C11.726 28.83 13.058 26 15.805 26M32.538 35.192c-.333 0-.657-.034-.974-.09-1.172.57-2.174.898-3.564.898-4.907 0-9-4.093-9-9v-7c.148-5.224 4.241-9.569 9.5-9.569 5.26 0 9.352 4.345 9.5 9.57v10c0 3.121-2.339 5.191-5.462 5.191" fill="#ffac33"/><path d="M21 14h16.055C38.835 14 39 12.807 39 11.027V0H18v11.027C18 13 19 14 21 14" fill="#9268ca"/><path d="M23 0h-1.028v10H23V0z" fill="#7450a8"/><path d="M21 32V22c.253-3.89 3.521-6.969 7.5-6.969S35.747 18.11 36 22v10H21z" fill="#ffdc5d"/><path d="M32.635 32.327c.25.412.365.673.365.673l-12-1-.577-5.693c5.692 0 9.024 2.305 10.815 4.21C31.653 29.043 32.8 27 36 27v6l-3.365-.673z" fill="#ffac33"/><path d="M29 20.5h-1a.5.5 0 0 0 0 1h1a.5.5 0 0 0 0-1" fill="#bf6952"/><path d="M25 23a1 1 0 0 0-1 1v1a1 1 0 1 0 2 0v-1a1 1 0 0 0-1-1M32 23a1 1 0 0 0-1 1v1a1 1 0 1 0 2 0v-1a1 1 0 0 0-1-1" fill="#662113"/><path d="M26 17v-3a2.5 2.5 0 1 1 5 0v3h-5z" fill="#ffdc5d"/><path d="M25.27 18.231h6.46s-.807-1.616-3.23-1.616c-2.422 0-3.23 1.616-3.23 1.616" fill="#da2f47"/><path d="M18.473 21a7.82 7.82 0 0 1-3.464-.812 6.131 6.131 0 1 1-3.123-11.333 7.85 7.85 0 0 1 6.587-3.578 7.861 7.861 0 0 1 7.86 7.862A7.861 7.861 0 0 1 18.474 21" fill="#f4900c"/><path d="M20 1v4h-4V1h-1V0h6v1h-1z" fill="#ffdc5d"/><path d="M25 16h-3.557a6.99 6.99 0 0 1-3.446.906A6.993 6.993 0 0 1 14.551 16H11v-6h.002L11 9.953C11 6.113 14.133 3 17.997 3s6.997 3.113 6.997 6.953l-.002.047H25v6z" fill="#ffdc5d"/><path d="M26 13l-1 4-3.729.622C21.819 18.42 22 19 22 19l-11-1-.861-5c5.41 0 8.425 1.755 10.065 3.367C21.44 14.908 23.528 13 26 13" fill="#f4900c"/><path d="M23 3h-3l-2-3-2 3h-2c-3 0-5-2-5-4v-1h18v1c0 1.973-2 4-4 4" fill="#88c9f9"/><path d="M21 6h-6s.583-2 3-2 3 2 3 2M18 6.5a.47.47 0 0 0-.35.15.47.47 0 0 0-.15.35c0 .13.05.26.15.36.17.17.52.18.71-.009A.504.504 0 0 0 18.5 7a.47.47 0 0 0-.15-.35.47.47 0 0 0-.35-.15" fill="#bf6952"/><path d="M15 8a1 1 0 0 0-1 1v1a1 1 0 1 0 2 0V9a1 1 0 0 0-1-1M21 8a1 1 0 0 0-1 1v1a1 1 0 1 0 2 0V9a1 1 0 0 0-1-1" fill="#662113"/></g></svg>