<svg xmlns="http://www.w3.org/2000/svg" viewBox="0 0 45 45"><defs><clipPath id="a"><path d="M0 36h36V0H0v36z"/></clipPath></defs><g clip-path="url(#a)" transform="matrix(1.25 0 0 -1.25 0 45)"><path d="M34.54 2.512s1.18-.215 1.18-1.256C35.72.213 34.676 0 33.634 0h-17.72C13.83 0 10 4 8 4l-.592-4H1v2.936C1 5.02.12 5.22.12 6.146c0 2.085.671 4.395.671 4.395l6.746-.31L17 3l17.54-.488z" fill="#662113"/><path d="M1.668 8.719C4.704 7.988 8 6.999 15.637 3.339c0 0 2-1.34 4.363-1.34h14.539s1.18.258 1.18 2.425c0 1.084-7.907 3.38-10.27 4.465-2.361 1.084-6.445 6.316-6.445 6.316s-.17-13.634-7.258-6.05c-7.088 7.589-4.378 6.44-6.741 6.44-.485 0-3.738-1.306-4.544-5.038-.115-.533.343-1.63 1.207-1.838" fill="#c1694f"/><path d="M2 14s1 2 1 4-1 17-1 17 4.917 1 10 1c5.084 0 7-1 7-1s-6-15 2-23c2.55-2.55-2-7-2-7s-1-2-4 0-13 9-13 9" fill="#c1694f"/><path d="M10 16H8v20h2V16z" fill="#d99e82"/></g></svg>