<svg xmlns="http://www.w3.org/2000/svg" viewBox="0 0 45 45"><defs><clipPath id="a"><path d="M0 36h36V0H0v36z"/></clipPath></defs><g clip-path="url(#a)" transform="matrix(1.25 0 0 -1.25 0 45)"><path d="M6 16c0-2.209-1.119-4-2.5-4S1 13.791 1 16c0 2.21 1.119 4.001 2.5 4.001S6 18.21 6 16M35 16c0-2.209-1.119-4-2.5-4S30 13.791 30 16c0 2.21 1.119 4.001 2.5 4.001S35 18.21 35 16" fill="#f3d2a2"/><path d="M4 15.438c0 8.525 6.268 15.438 14 15.438s14-6.912 14-15.438C32 6.913 25.732 1 18 1S4 6.913 4 15.438" fill="#f3d2a2"/><path d="M12 14a1 1 0 0 0-1 1v2a1 1 0 0 0 2 0v-2a1 1 0 0 0-1-1M24 14a1 1 0 0 0-1 1v2a1 1 0 1 0 2 0v-2a1 1 0 0 0-1-1" fill="#662113"/><path d="M18 6c-4.188 0-6.357 1.061-6.447 1.105a1 1 0 0 0 .89 1.791C12.494 8.872 14.368 8 18 8c3.665 0 5.54.888 5.559.898a1.003 1.003 0 0 0 1.336-.458.998.998 0 0 0-.448-1.335C24.356 7.061 22.187 6 18 6M19 11h-2a1 1 0 1 0 0 2h2a1 1 0 1 0 0-2" fill="#c1694f"/><path d="M18 35.645c-9.23 0-15-6.462-15-11.846 0-5.385 1.154-7.539 2.308-5.385l2.307 4.308s3.792.124 6.099 2.278c0 0-1.071-4 6.595-.125 0 0-.166-3.875 5.191.125 0 0 4.039-1.2 5.191-6.586.321-1.494 2.309 0 2.309 5.385 0 5.384-4.615 11.846-15 11.846" fill="#ffe51e"/></g></svg>