<svg xmlns="http://www.w3.org/2000/svg" viewBox="0 0 45 45"><defs><clipPath id="a"><path d="M0 36h36V0H0v36z"/></clipPath></defs><g clip-path="url(#a)" transform="matrix(1.25 0 0 -1.25 0 45)"><path d="M35.447 3.88S34.35 2 32.573 2h-13.23c-3.635 0-4.39 4.18-7.605 10.605-3.212 6.427-6.905 3.048-6.905 3.048L3.618 1H2.334s-.615 12.552-1.25 14.596C-.36 20.246.46 23.778.46 23.778l8.02-.543L18.576 7.71l16.87-3.831z" fill="#292f33"/><path d="M30.45 9.503c-1.138.31-1.875.625-1.875.625-.513-.534-1.23-.625-1.875-.625-3.825 0-5.807 1.556-8.122 6.873C13.58 27.856 5.354 32.62 2.96 32.62c-2.552 0-3.964-11.871-2.5-11.871 4.607 0 8.415-.928 11.12-3.75 4.042-4.216 5.513-13.12 8.116-13.12h15.752s.625 4.062-4.998 5.624" fill="#dd2e44"/></g></svg>