<svg xmlns="http://www.w3.org/2000/svg" viewBox="0 0 45 45"><defs><clipPath id="a"><path d="M0 36h36V0H0v36z"/></clipPath></defs><g clip-path="url(#a)" transform="matrix(1.25 0 0 -1.25 0 45)"><path d="M29.96 12.913C34 9 34.043 1.978 33.021 1.978c-1.021 0-4.115 1.852-6.068 3.937-1.953 2.085-1.75 6.78-1.75 6.78l1.586 4.32s-.869-.189 3.171-4.102" fill="#ffac33"/><path d="M26.96 12.913C31 9 31.043 1.978 30.021 1.978c-1.021 0-4.115 1.852-6.068 3.937-1.953 2.085-1.75 6.78-1.75 6.78l1.586 4.32s-.869-.189 3.171-4.102M3 2C2 2 2 9 6 13c4 4.001 3 4.001 3 4.001L11 13s0-5-2-7-5-4-6-4" fill="#ffac33"/><path d="M6 2C5 2 5 9 9 13c4 4.001 3 4.001 3 4.001L14 13s0-5-2-7-5-4-6-4" fill="#ffac33"/><path d="M6.914 17.647c-.57 2.134-2.116 3.575-3.45 3.217-1.334-.357-1.95-2.377-1.379-4.511.571-2.134 2.116-3.574 3.45-3.216 1.334.357 1.951 2.377 1.38 4.51M33.915 16.352c.571 2.134-.046 4.154-1.38 4.512-1.333.356-2.878-1.083-3.449-3.218-.572-2.134.045-4.153 1.379-4.51 1.334-.357 2.879 1.083 3.45 3.217" fill="#ffdc5d"/><path d="M31 17c0 9.389-5.82 16-13 16S5 26.389 5 17 10.82 2 18 2s13 5.611 13 15" fill="#ffdc5d"/><path d="M18 8.349c-2.42 0-4.274.687-4.352.715a1 1 0 0 0 .702 1.873c.016-.006 1.61-.588 3.65-.588 2.041 0 3.635.582 3.65.588a1 1 0 0 0 .702-1.873c-.078-.028-1.931-.715-4.352-.715" fill="#df1f32"/><path d="M19 13h-2a1 1 0 1 0 0 2h2a1 1 0 1 0 0-2" fill="#c1694f"/><path d="M12 16a1 1 0 0 0-1 1v2a1 1 0 0 0 2 0v-2a1 1 0 0 0-1-1M24 16a1 1 0 0 0-1 1v2a1 1 0 1 0 2 0v-2a1 1 0 0 0-1-1" fill="#662113"/><path d="M32 26c-2 7-7 9-10 9-2 0-4-2-4-2s-2.001 2-4 2c-3 0-8-2-10-9-1.648-5.768 1-11 1-11 0 3.002 2 9 7 9s6 4 6 4 .786-4 5.786-4S31 18.003 31 15c0 0 2.648 5.232 1 11" fill="#ffac33"/></g></svg>