<svg xmlns="http://www.w3.org/2000/svg" viewBox="0 0 45 45"><defs><clipPath id="a"><path d="M0 36h36V0H0v36z"/></clipPath></defs><path d="M13.75 28.75H7.5v15h3.75v-10h2.5v10h3.75v-15h-3.75z" fill="#664500"/><g clip-path="url(#a)" transform="matrix(1.25 0 0 -1.25 0 45)"><path d="M5 0v1s0 1 2 1 2-1 2-1V0H5zM11 0v1s0 1 2 1 2-1 2-1V0h-4z" fill="#292f33"/><path d="M.999 10a1 1 0 0 0-.873 1.485l5 9.001a1 1 0 1 0 1.748-.972l-5-8.999A1 1 0 0 0 .999 10M19.001 10a1 1 0 0 0-.875.515l-5 8.999a1 1 0 1 0 1.748.972l5-9.001A.998.998 0 0 0 19.001 10" fill="#ffdc5d"/><path d="M16 20a2 2 0 0 1-2 2H6a2 2 0 0 1-2-2v-1h2v-7h8v7h2v1z" fill="#4289c1"/><path d="M8 25v-4a2 2 0 0 1 4 0v4H8z" fill="#ffdc5d"/><path d="M12 25l-4-.019V21s2-1 4 0v4z" fill="#f9ca55"/><path d="M15 29c-6.221 0-6.996 2.412-7.035 3.488C7.85 31.412 7.333 29 5 29v-2.001A4.998 4.998 0 0 1 10 22c2.762 0 5 2.237 5 4.999V29z" fill="#ffdc5d"/><path d="M7.965 32.488C8.004 31.412 8.779 29 15 29v-1.656c.628.893 1 1.98 1 3.155a5.5 5.5 0 0 1-5.5 5.5 5.47 5.47 0 0 1-3.181-1.017 3.492 3.492 0 0 1-3.32-3.482c0-1.21.02-2.655 1-3.576V29c2.334 0 2.85 2.412 2.966 3.488" fill="#ffac33"/><path d="M12 24H8s0-1 2-1 2 1 2 1" fill="#c1694f"/><path d="M8 27.5a.5.5 0 1 0-1 0 .5.5 0 0 0 1 0M13 27.5a.5.5 0 1 0-1 0 .5.5 0 0 0 1 0" fill="#662113"/><path d="M9 26h2s0-1-1-1-1 1-1 1" fill="#c1694f"/><path d="M27 13h-5V1h3v8h2V1h3v12h-3z" fill="#67757f"/><path d="M21 0v1s0 1 2 1 2-1 2-1V0h-4zM27 0v1s0 1 2 1 2-1 2-1V0h-4z" fill="#292f33"/><path d="M16.999 10a1 1 0 0 0-.873 1.485l5 9.001a1 1 0 1 0 1.748-.972l-5-8.999a1 1 0 0 0-.875-.515M35.001 10a1 1 0 0 0-.875.515l-5 8.999a.999.999 0 1 0 1.748.972l5-9.001A.998.998 0 0 0 35.001 10" fill="#ffdc5d"/><path d="M32 20a2 2 0 0 1-2 2h-8a2 2 0 0 1-2-2v-1h2v-7h8v7h2v1z" fill="#5b903a"/><path d="M24 25v-4a2 2 0 0 1 4 0v4h-4z" fill="#ffdc5d"/><path d="M28 25l-4-.019V21s2-1 4 0v4z" fill="#f9ca55"/><path d="M32 31.5a3.492 3.492 0 0 1-3.319 3.482A5.469 5.469 0 0 1 25.5 36a5.5 5.5 0 0 1-5.5-5.501c0-1.175.372-2.262 1-3.155V29c6.221 0 6.996 2.412 7.035 3.488C28.15 31.412 28.667 29 31 29v-1.076c.981.921 1 2.367 1 3.576" fill="#ffac33"/><path d="M28.035 32.488C27.996 31.412 27.221 29 21 29v-2c0-2.763 2.238-5 5-5s5 2.237 5 5v2c-2.333 0-2.85 2.412-2.965 3.488" fill="#ffdc5d"/><path d="M28 24h-4s0-1 2-1 2 1 2 1" fill="#c1694f"/><path d="M24 27.5a.5.5 0 1 0-1 0 .5.5 0 0 0 1 0M29 27.5a.5.5 0 1 0-1 0 .5.5 0 0 0 1 0" fill="#662113"/><path d="M25 26h2s0-1-1-1-1 1-1 1" fill="#c1694f"/></g></svg>