<svg xmlns="http://www.w3.org/2000/svg" viewBox="0 0 45 45"><defs><clipPath id="a"><path d="M0 36h36V0H0v36z"/></clipPath></defs><g clip-path="url(#a)" transform="matrix(1.25 0 0 -1.25 0 45)"><path d="M25 24.156c2.297.669 3.315 3.565 3.734 5.369.953-1.477 3.036-3.68 7.266-4.805v10.855c-.955.27-1.959.425-3 .425-6.075 0-11-4.925-11-11 0-3.01 1.211-5.733 3.168-7.72A9.1 9.1 0 0 0 25 19v5.156z" fill="#ffac33"/><path d="M30 20a1 1 0 0 0-1 1v1a1 1 0 1 0 2 0v-1a1 1 0 0 0-1-1m3-2.5h2a.5.5 0 0 0 0-1h-2a.5.5 0 0 0 0 1m1-3.5h2v10.72c-4.23 1.125-6.313 3.328-7.266 4.804-.419-1.803-1.437-4.699-3.734-5.368V19a9.005 9.005 0 0 1 6-8.477V9l3-5 2 3.396v4.967A5.37 5.37 0 0 0 34 12c-3 0-4 2-4 2h4z" fill="#ffdc5d"/><path d="M36 7.396L34 4l-3 5h-6a4 4 0 0 1-4-4V0h15v7.396z" fill="#3b94d9"/><path d="M25 0h1v4h-1V0z" fill="#1c6399"/><path d="M31 14h-1s1-2 4-2a5.37 5.37 0 0 1 2 .363V14h-5z" fill="#bf6952"/><path d="M30 20a1 1 0 0 1 1 1v1a1 1 0 1 1-2 0v-1a1 1 0 0 1 1-1" fill="#662113"/><path d="M33 16.5h2a.5.5 0 0 1 0 1h-2a.5.5 0 0 1 0-1" fill="#bf6952"/><path d="M11 24.156c-2.297.669-3.315 3.565-3.734 5.369C6.313 28.048 4.23 25.845 0 24.72v10.855c.955.27 1.959.425 3 .425 6.075 0 11-4.925 11-11 0-3.01-1.211-5.733-3.168-7.72A9.1 9.1 0 0 1 11 19v5.156z" fill="#ffac33"/><path d="M5 21v1a1 1 0 1 0 2 0v-1a1 1 0 1 0-2 0m-1.5-4a.5.5 0 0 0-.5-.5H1a.5.5 0 0 0 0 1h2a.5.5 0 0 0 .5-.5M5 14h1s-1-2-4-2a5.37 5.37 0 0 0-2 .363V7.396L2 4l3 5v1.523A9.005 9.005 0 0 1 11 19v5.156c-2.297.669-3.315 3.565-3.734 5.368C6.313 28.048 4.23 25.845 0 24.72V14h5z" fill="#ffdc5d"/><path d="M0 7.396L2 4l3 5h6a4 4 0 0 0 4-4V0H0v7.396z" fill="#3b94d9"/><path d="M11 4V0h-1v4h1z" fill="#1c6399"/><path d="M5 14h1s-1-2-4-2a5.37 5.37 0 0 0-2 .363V14h5z" fill="#bf6952"/><path d="M6 20a1 1 0 0 0-1 1v1a1 1 0 1 0 2 0v-1a1 1 0 0 0-1-1" fill="#662113"/><path d="M3 16.5H1a.5.5 0 0 0 0 1h2a.5.5 0 0 0 0-1" fill="#bf6952"/><path d="M26.538 31.29a4.711 4.711 0 0 1-4.71 4.71A4.704 4.704 0 0 1 18 34.028 4.702 4.702 0 0 1 14.173 36a4.711 4.711 0 0 1-4.711-4.71c0-.37.047-.728.127-1.07.654-4.066 5.173-8.354 8.41-9.53 3.239 1.176 7.759 5.464 8.413 9.528.08.344.127.702.127 1.071" fill="#e75a70"/></g></svg>