<svg xmlns="http://www.w3.org/2000/svg" viewBox="0 0 45 45"><defs><clipPath id="a"><path d="M0 36h36V0H0v36z"/></clipPath></defs><g clip-path="url(#a)" transform="matrix(1.25 0 0 -1.25 0 45)"><path d="M34 26c0-5.523-7.163-10-16-10-8.836 0-16 4.477-16 10s7.164 10 16 10c8.837 0 16-4.477 16-10" fill="#2a6797"/><path d="M30 21v3.999H6V21c-1.657 0-3-1.791-3-4s1.343-4 3-4C6 6.371 11.373 1 18 1c6.628 0 12 5.371 12 12 1.656 0 3 1.791 3 4s-1.344 4-3 4" fill="#f3d2a2"/><path d="M24.44 7.236A.5.5 0 0 1 24 7.5H12a.5.5 0 0 1-.416-.778C11.672 6.59 13.78 3.5 18 3.5c4.218 0 6.328 3.09 6.416 3.222a.5.5 0 0 1 .024.514" fill="#662113"/><path d="M15 12s1-2 3-2 3 2 3 2 0-3-3-3-3 3-3 3" fill="#c1694f"/><path d="M27 15c0-1.104-1.567-2-3.5-2s-3.5.896-3.5 2c0 1.105 1.567 2 3.5 2s3.5-.895 3.5-2M16 15c0-1.104-1.567-2-3.5-2S9 13.896 9 15c0 1.105 1.567 2 3.5 2s3.5-.895 3.5-2" fill="#f5f8fa"/><path d="M25 15.5a1.5 1.5 0 1 0-3.001.001A1.5 1.5 0 0 0 25 15.5M14 15.5a1.5 1.5 0 1 0-3.001.001A1.5 1.5 0 0 0 14 15.5" fill="#292f33"/><path d="M30 24H6v4s5 3 12 3 12-3 12-3v-4z" fill="#4289c1"/><path d="M30 24s-5 1-12 1-12-1-12-1v-7s1.336 3.341 1.824 5.654C9.725 21.492 13.112 20 18 20c4.889 0 8.275 1.492 10.177 2.654C28.664 20.341 30 17 30 17v7z" fill="#ffe51e"/><path d="M21 34l-.003-.001V34l-.001-.001a.982.982 0 0 1-.76-.376c-.376-.092-.889-.112-1.544.094a.991.991 0 0 1-1.384 0c-.655-.206-1.169-.186-1.544-.094a.98.98 0 0 1-.761.376l-.001.001v-.001L15 34a1 1 0 1 1 .001-1.999l.001-.001c0-4 1.998-5 2.998-5 1 0 2.997 1 2.997 5v.001L21 32a1 1 0 1 1 0 2" fill="#fdcb58"/><path d="M21 6h-6a.5.5 0 0 0 0 1h6a.5.5 0 0 0 0-1" fill="#fff"/></g></svg>