<svg xmlns="http://www.w3.org/2000/svg" viewBox="0 0 45 45"><defs><clipPath id="a"><path d="M0 0h36v36H0V0z"/></clipPath></defs><g clip-path="url(#a)" transform="matrix(1.25 0 0 -1.25 0 45)"><path d="M15 14h-5l-2.472-3.778L5 14h-6c-1.779 0-1.945-1.193-1.945-2.973V0H18v11.027C18 13 17 14 15 14" fill="#9268ca"/><path d="M14.861 0h-1.028v10h1.028V0z" fill="#7450a8"/><path d="M21 14h5.055l2.472-3.778L31.055 14h6C38.834 14 39 12.807 39 11.027V0H18v11.027C18 13 19 14 21 14" fill="#9268ca"/><path d="M21.673 0h-1.028v10h1.028V0z" fill="#7450a8"/><path d="M32.538 35.192c-.333 0-.657-.034-.974-.09-1.172.57-2.175.898-3.564.898-4.907 0-9-4.093-9-9v-7c.148-5.224 4.241-9.569 9.5-9.569 5.26 0 9.352 4.345 9.5 9.57v10c0 3.121-2.339 5.191-5.462 5.191" fill="#ffac33"/><path d="M21 32V22c.253-3.89 3.521-6.969 7.5-6.969S35.747 18.11 36 22v10H21z" fill="#ffdc5d"/><path d="M32.635 32.327c.25.412.365.673.365.673l-12-1-.577-5.693c5.692 0 9.024 2.305 10.815 4.21C31.653 29.043 32.8 27 36 27v6l-3.365-.673z" fill="#ffac33"/><path d="M25.27 18.231h6.46s-.807-1.616-3.23-1.616c-2.422 0-3.23 1.616-3.23 1.616" fill="#da2f47"/><path d="M29 20.5h-1a.5.5 0 0 0 0 1h1a.5.5 0 0 0 0-1" fill="#bf6952"/><path d="M25 23a1 1 0 0 0-1 1v1a1 1 0 1 0 2 0v-1a1 1 0 0 0-1-1M32 23a1 1 0 0 0-1 1v1a1 1 0 1 0 2 0v-1a1 1 0 0 0-1-1" fill="#662113"/><path d="M11.538 35.192c-.333 0-.657-.034-.974-.09C9.392 35.672 8.39 36 7 36c-4.907 0-9-4.093-9-9v-7c.148-5.224 4.241-9.569 9.5-9.569 5.26 0 9.352 4.345 9.5 9.57v10c0 3.121-2.339 5.191-5.462 5.191" fill="#ffac33"/><path d="M0 32V22c.253-3.89 3.521-6.969 7.5-6.969S14.747 18.11 15 22v10H0z" fill="#ffdc5d"/><path d="M11.635 32.327c.25.412.365.673.365.673L0 32l-.577-5.693c5.692 0 9.024 2.305 10.815 4.21C10.653 29.043 11.8 27 15 27v6l-3.365-.673z" fill="#ffac33"/><path d="M4.27 18.231h6.46s-.808-1.616-3.23-1.616c-2.423 0-3.23 1.616-3.23 1.616" fill="#da2f47"/><path d="M8 20.5H7a.5.5 0 0 0 0 1h1a.5.5 0 0 0 0-1" fill="#bf6952"/><path d="M4 23a1 1 0 0 0-1 1v1a1 1 0 1 0 2 0v-1a1 1 0 0 0-1-1M11 23a1 1 0 0 0-1 1v1a1 1 0 1 0 2 0v-1a1 1 0 0 0-1-1" fill="#662113"/><path d="M9.875 17A6.16 6.16 0 0 1 9 16.93a6.16 6.16 0 0 1-.875.07 6.125 6.125 0 1 1 0-12.25c.298 0 .588.029.875.07a6.16 6.16 0 0 1 .875-.07 6.125 6.125 0 1 1 0 12.25" fill="#f4900c"/><path d="M11 2v3H7V2H6V0h6v2h-1z" fill="#ffdc5d"/><path d="M14 3h-3L9 1 7 3H5C2 3 0 1 0-1h18c0 1.973-2 4-4 4" fill="#87c8f8"/><path d="M15 13.286l-4.286.857L3 13.286V9h.002L3 8.96C3 5.669 5.685 3 8.998 3c3.312 0 5.997 2.669 5.997 5.96l-.002.04H15v4.286z" fill="#ffdc5d"/><path d="M16 10.875l-.875 2.625-3.262 1.419L2.875 13.5l-.753-2.625c4.734 0 7.372 1.536 8.807 2.946 1.081-1.276 2.908-2.946 5.071-2.946" fill="#f4900c"/><path d="M11 6H7s.389-1.333 2-1.333S11 6 11 6M9 6.5a.47.47 0 0 0-.35.15.47.47 0 0 0-.15.35c0 .13.05.26.15.36.17.17.52.18.71-.009A.504.504 0 0 0 9.5 7a.47.47 0 0 0-.15-.35A.47.47 0 0 0 9 6.5" fill="#bf6952"/><path d="M11 8a.832.832 0 0 0-.833.833v.834a.832.832 0 1 0 1.666 0v-.834A.832.832 0 0 0 11 8M7 8a.832.832 0 0 0-.833.833v.834a.832.832 0 1 0 1.666 0v-.834A.832.832 0 0 0 7 8" fill="#662113"/><path d="M27.875 17a6.16 6.16 0 0 1-.875-.07 6.16 6.16 0 0 1-.875.07 6.125 6.125 0 1 1 0-12.25c.298 0 .588.029.875.07a6.16 6.16 0 0 1 .875-.07 6.125 6.125 0 1 1 0 12.25" fill="#f4900c"/><path d="M29 2v3h-4V2h-1V0h6v2h-1z" fill="#ffdc5d"/><path d="M32 3h-3l-2-2-2 2h-2c-3 0-5-2-5-4h18c0 1.973-2 4-4 4" fill="#87c8f8"/><path d="M33 13.286l-4.286.857L21 13.286V9h.002L21 8.96C21 5.669 23.685 3 26.998 3c3.312 0 5.997 2.669 5.997 5.96l-.002.04H33v4.286z" fill="#ffdc5d"/><path d="M34 10.875l-.875 2.625-3.262 1.419-8.988-1.419-.753-2.625c4.734 0 7.372 1.536 8.807 2.946 1.081-1.276 2.908-2.946 5.071-2.946" fill="#f4900c"/><path d="M29 6h-4s.389-1.333 2-1.333S29 6 29 6M27 6.5a.47.47 0 0 0-.35.15.47.47 0 0 0-.15.35c0 .13.05.26.15.36.17.17.52.18.71-.009A.504.504 0 0 0 27.5 7a.47.47 0 0 0-.15-.35.47.47 0 0 0-.35-.15" fill="#bf6952"/><path d="M29 8a.832.832 0 0 0-.833.833v.834a.832.832 0 1 0 1.666 0v-.834A.832.832 0 0 0 29 8M25 8a.832.832 0 0 0-.833.833v.834a.832.832 0 1 0 1.666 0v-.834A.832.832 0 0 0 25 8" fill="#662113"/></g></svg>