<svg xmlns="http://www.w3.org/2000/svg" viewBox="0 0 45 45"><defs><clipPath id="a"><path d="M0 0h36v36H0V0z"/></clipPath><clipPath id="b"><path d="M0 36h36V0H0v36z"/></clipPath></defs><g clip-path="url(#a)" transform="matrix(1.25 0 0 -1.25 0 45)"><path d="M27.063 6.73c-.602 0-1.5.398-1.5 1.5 0 .437.143.764.352 1-.21.234-.352.56-.352 1 0 1.1.898 1.5 1.5 1.5a.5.5 0 0 0 .005-1c-.231-.007-.505-.099-.505-.5 0-.403.274-.495.505-.5a.501.501 0 0 0 .006-1H27.063c-.225-.007-.5-.099-.5-.5 0-.403.275-.495.506-.5a.502.502 0 0 0 .49-.507.497.497 0 0 0-.496-.494" fill="#642116"/><path d="M15.958 15.27l-18 4s-9.424-18.947 0-20c9.7-1.082 26.308-12.23 21 0-3.833 8.834-2.724 16-3 16" fill="#ffac33"/><path d="M-8.042 16.23c0-6.627 5.374-12 12-12s12 5.373 12 12c0 6.626-5.374 12-12 12s-12-5.374-12-12" fill="#ffdc5d"/><path d="M8.958 13.73c1.978 0 2.5 1.635 2.5 2.5a.5.5 0 0 1-1 .002c-.003-.252-.089-1.503-1.5-1.503a.5.5 0 0 1 0-1M4.981 13.73c1.977 0 2.5 1.635 2.5 2.5a.5.5 0 0 1-1 .002c-.003-.252-.089-1.503-1.5-1.503a.5.5 0 0 1 0-1M8.958 6.73c.603 0 1.5.398 1.5 1.5 0 .437-.143.764-.352 1 .21.234.352.56.352 1 0 1.1-.897 1.5-1.5 1.5a.5.5 0 0 1-.005-1c.231-.007.505-.099.505-.5 0-.403-.274-.495-.505-.5a.501.501 0 0 1-.006-1H8.958c.225-.007.5-.099.5-.5 0-.403-.275-.495-.506-.5a.502.502 0 0 1-.49-.507.497.497 0 0 1 .496-.494" fill="#642116"/><path d="M-.741 28.68c-7.147-2.083-11.266-9.59-9.184-16.738a13.403 13.403 0 0 1 2.67-4.95.499.499 0 1 1 .876.395c-.393 2.755 1.162 5.24 2.533 7.434 1.274 2.036 6.897 2.45 6.897 6.803 6.582.698 10.13-2.858 12.402-7.874a.501.501 0 0 1 .528-.289c.023.004.046.008.068.015a.498.498 0 0 1 .355.411 13.373 13.373 0 0 1-.407 5.61C13.914 26.642 6.405 30.762-.741 28.68" fill="#ffac33"/><path d="M32.063 13.73c-1.977 0-2.5 1.635-2.5 2.5a.5.5 0 0 0 1 .002c.003-.252.089-1.503 1.5-1.503a.5.5 0 0 0 0-1" fill="#642116"/><path d="M20.063 15.27l18 4s9.424-18.947 0-20c-9.7-1.082-26.308-12.23-21 0 3.833 8.834 2.724 16 3 16" fill="#f18f26"/><path d="M44.063 16.23c0-6.627-5.374-12-12-12s-12 5.373-12 12c0 6.626 5.374 12 12 12s12-5.374 12-12" fill="#ffdc5d"/><path d="M27.063 13.73c-1.977 0-2.5 1.635-2.5 2.5a.5.5 0 0 0 1 .002c.003-.252.089-1.503 1.5-1.503a.5.5 0 0 0 0-1M32.063 13.73c-1.977 0-2.5 1.635-2.5 2.5a.5.5 0 0 0 1 .002c.003-.252.089-1.503 1.5-1.503a.5.5 0 0 0 0-1M27.063 6.73c-.602 0-1.5.398-1.5 1.5 0 .437.143.764.352 1-.21.234-.352.56-.352 1 0 1.1.898 1.5 1.5 1.5a.5.5 0 0 0 .005-1c-.231-.007-.505-.099-.505-.5 0-.403.274-.495.505-.5a.501.501 0 0 0 .006-1H27.063c-.225-.007-.5-.099-.5-.5 0-.403.275-.495.506-.5a.502.502 0 0 0 .49-.507.497.497 0 0 0-.496-.494" fill="#642116"/><path d="M36.762 28.68c7.147-2.083 11.266-9.59 9.184-16.738a13.403 13.403 0 0 0-2.67-4.95.499.499 0 1 0-.876.395c.393 2.755-1.162 5.24-2.533 7.434-1.274 2.036-6.897 2.45-6.897 6.803-6.582.698-10.13-2.858-12.402-7.874a.501.501 0 0 0-.528-.289c-.023.004-.046.008-.068.015a.498.498 0 0 0-.355.411 13.373 13.373 0 0 0 .407 5.61c2.083 7.146 9.592 11.266 16.738 9.183" fill="#f18f26"/></g><g clip-path="url(#b)" transform="matrix(1.25 0 0 -1.25 0 45)"><path d="M26.538 31.29a4.71 4.71 0 0 1-4.71 4.71A4.704 4.704 0 0 1 18 34.028 4.702 4.702 0 0 1 14.173 36a4.71 4.71 0 0 1-4.711-4.71c0-.37.047-.728.127-1.07.654-4.066 5.173-8.354 8.41-9.53 3.239 1.176 7.759 5.464 8.413 9.528.08.344.127.702.127 1.071" fill="#e75a70"/></g></svg>