<svg xmlns="http://www.w3.org/2000/svg" viewBox="0 0 45 45"><defs><clipPath id="a"><path d="M0 36h36V0H0v36z"/></clipPath></defs><g clip-path="url(#a)" transform="matrix(1.25 0 0 -1.25 0 45)"><path d="M11 19c0-3.917-2.507-7.241-6-8.477V9h6c.148 0 .287-.028.431-.043A11.94 11.94 0 0 1 13.982 16H14v9c0 6.075-4.925 11-11 11-1.044 0-2.045-.165-3-.44v-7.578c1.793-1.795 5.08-3.763 11-3.963V19z" fill="#ffac33"/><path d="M11.431 8.957c-.143.015-.283.042-.431.042H5v-.995V8a3 3 0 0 0-3-3c-.772 0-1.468.3-2 .779v-5.78h15v5c0 2.063-1.566 3.74-3.569 3.958" fill="#9268ca"/><path d="M10 0h1v4h-1V0z" fill="#7450a8"/><path d="M5 8V10.523A8.96 8.96 0 0 0 2 10a8.97 8.97 0 0 0-2 .231V5.779A2.978 2.978 0 0 1 2 5a3 3 0 0 1 3 3" fill="#ffdc5d"/><path d="M5 21v1a1 1 0 0 0 2 0v-1a1 1 0 0 0-2 0m-2-4.5H1a.5.5 0 0 0 0 1h2a.5.5 0 0 0 0-1m2-5.977c3.493 1.236 6 4.56 6 8.477v5.019c-5.92.2-9.207 2.168-11 3.963V14h6s-1-2-4-2a5.37 5.37 0 0 0-2 .363v-2.132A8.97 8.97 0 0 1 2 10c1.053 0 2.06.19 3 .523" fill="#ffdc5d"/><path d="M6 14H0v-1.637A5.37 5.37 0 0 1 2 12c3 0 4 2 4 2" fill="#bb1a34"/><path d="M7 21v1a1 1 0 0 1-2 0v-1a1 1 0 0 1 2 0" fill="#662113"/><path d="M3 17.5H1a.5.5 0 0 1 0-1h2a.5.5 0 0 1 0 1" fill="#bf6952"/><path d="M25 19c0-3.917 2.507-7.241 6-8.477V9h-6c-.148 0-.287-.028-.431-.043A11.94 11.94 0 0 0 22.018 16H22v9c0 6.075 4.925 11 11 11 1.044 0 2.045-.165 3-.44v-7.578c-1.793-1.795-5.08-3.763-11-3.963V19z" fill="#ffac33"/><path d="M24.569 8.957c.143.015.283.042.431.042h6v-.995V8a3 3 0 0 1 3-3c.772 0 1.468.3 2 .779v-5.78H21v5c0 2.063 1.566 3.74 3.569 3.958" fill="#9268ca"/><path d="M26 4V0h-1v4h1z" fill="#7450a8"/><path d="M31 8V10.523A8.96 8.96 0 0 1 34 10a8.97 8.97 0 0 1 2 .231V5.779A2.978 2.978 0 0 0 34 5a3 3 0 0 0-3 3" fill="#ffdc5d"/><path d="M30 20a1 1 0 0 0-1 1v1a1 1 0 0 0 2 0v-1a1 1 0 0 0-1-1m2.5-3a.5.5 0 0 0 .5.5h2a.5.5 0 0 0 0-1h-2a.5.5 0 0 0-.5.5m1.5-7a8.97 8.97 0 0 1 2 .231v2.132A5.37 5.37 0 0 0 34 12c-3 0-4 2-4 2h6v13.982c-1.793-1.795-5.08-3.763-11-3.963V19c0-3.917 2.507-7.241 6-8.477A8.96 8.96 0 0 1 34 10" fill="#ffdc5d"/><path d="M30 14h6v-1.637A5.37 5.37 0 0 0 34 12c-3 0-4 2-4 2" fill="#bb1a34"/><path d="M29 21v1a1 1 0 0 0 2 0v-1a1 1 0 0 0-2 0" fill="#662113"/><path d="M33 17.5h2a.5.5 0 0 0 0-1h-2a.5.5 0 0 0 0 1" fill="#bf6952"/><path d="M26.538 31.29a4.711 4.711 0 0 1-4.71 4.71A4.704 4.704 0 0 1 18 34.028 4.702 4.702 0 0 1 14.173 36a4.711 4.711 0 0 1-4.711-4.71c0-.37.047-.728.127-1.07.654-4.066 5.173-8.354 8.41-9.53 3.239 1.176 7.759 5.464 8.413 9.528.08.344.127.702.127 1.071" fill="#e75a70"/></g></svg>