<svg xmlns="http://www.w3.org/2000/svg" viewBox="0 0 45 45"><defs><clipPath id="a"><path d="M0 36h36V0H0v36z"/></clipPath></defs><g clip-path="url(#a)" transform="matrix(1.25 0 0 -1.25 0 45)"><path d="M18 33c6 0 16-3 16-16s0-16-3-16-7 3-13 3S8.085 1 5 1C1.657 1 2 13 2 17c0 13 10 16 16 16" fill="#292f33"/><path d="M6 17.438c0 8.526 5.373 15.438 12 15.438s12-6.912 12-15.438C30 8.912 24.627 2 18 2S6 8.912 6 17.438" fill="#f7dece"/><path d="M18 6c-2.347 0-3.575 1.16-3.707 1.293a.999.999 0 0 0 1.404 1.424C15.749 8.67 16.503 8 18 8c1.519 0 2.273.689 2.305.719a1.007 1.007 0 0 0 1.408-.03.993.993 0 0 0-.006-1.396C21.575 7.16 20.347 6 18 6" fill="#df1f32"/><path d="M19 11h-2a1 1 0 1 0 0 2h2a1 1 0 1 0 0-2" fill="#c1694f"/><path d="M3.064 12c-.03.325-.064.648-.064 1 0 5.001 3-.563 3 3 0 3.564 2 4.001 4 6.001l3 3s5-3 9-3S30 20 30 16s3 2.001 3-3c0-.355-.033-.673-.057-1h1.049C34 13.477 34 15.132 34 17c0 13-10 18-16 18S2 30 2 17c0-1.158-.03-2.986.012-5h1.052z" fill="#292f33"/><path d="M13 14a1 1 0 0 0-1 1v2a1 1 0 0 0 2 0v-2a1 1 0 0 0-1-1M23 14a1 1 0 0 0-1 1v2a1 1 0 1 0 2 0v-2a1 1 0 0 0-1-1" fill="#662113"/></g></svg>