<svg xmlns="http://www.w3.org/2000/svg" viewBox="0 0 45 45"><defs><clipPath id="a"><path d="M0 0h36v36H0V0z"/></clipPath><clipPath id="b"><path d="M0 36h36V0H0v36z"/></clipPath><clipPath id="c"><path d="M0 0h36v36H0V0z"/></clipPath><clipPath id="d"><path d="M0 36h36V0H0v36z"/></clipPath></defs><g clip-path="url(#a)" transform="matrix(1.25 0 0 -1.25 0 45)"><path d="M3 36c-1.721 0-3.343-.406-4.793-1.111A6.964 6.964 0 0 1-3 35a7 7 0 0 1-7-7V16h.018C-9.799 9.533-4.511 4.344 2 4.344c6.511 0 11.799 5.189 11.982 11.656H14v9c0 6.075-4.925 11-11 11" fill="#ffac33"/><path d="M11 9H-7a4 4 0 0 1-4-4V0h26v5a4 4 0 0 1-4 4" fill="#9268ca"/><path d="M11 0h-1v4h1V0z" fill="#7450a8"/><path d="M5 8.005V13h-6V8a3 3 0 0 1 6 0v.005" fill="#ffdc5d"/><path d="M-2 31h-5V19a9 9 0 0 1 9-9 9 9 0 0 1 9 9v5.019C-.11 24.395-2 31-2 31" fill="#ffdc5d"/><path d="M6 14h-8s1-2 4-2 4 2 4 2" fill="#df1f32"/></g><g clip-path="url(#b)" transform="matrix(1.25 0 0 -1.25 0 45)"><path d="M6 20a1 1 0 0 0-1 1v1a1 1 0 0 0 2 0v-1a1 1 0 0 0-1-1" fill="#662113"/><path d="M3 16.5H1a.5.5 0 0 0 0 1h2a.5.5 0 0 0 0-1" fill="#c1694f"/></g><g clip-path="url(#c)" transform="matrix(1.25 0 0 -1.25 0 45)"><path d="M44 25c0-6.075-4.925-11-11-11s-11 4.925-11 11 4.925 11 11 11 11-4.925 11-11" fill="#ffac33"/><path d="M37 9v5h-6V9h-2V1h10v8h-2z" fill="#ffdc5d"/><path d="M42 31v-7c-8.453 0-11.94 3.471-13.266 5.524-.42-1.803-1.437-4.699-3.734-5.368V19a9 9 0 0 1 9-9 9 9 0 0 1 9 9v12h-1z" fill="#ffdc5d"/><path d="M25 9h6l3-5 3 5.094L43 9a4 4 0 0 0 4-4V0H21v5a4 4 0 0 0 4 4" fill="#4289c1"/><path d="M25 0h1v4h-1V0z" fill="#2a6797"/><path d="M30 14h8s-1-2-4-2-4 2-4 2" fill="#c1694f"/></g><g clip-path="url(#d)" transform="matrix(1.25 0 0 -1.25 0 45)"><path d="M30 20a1 1 0 0 0-1 1v1a1 1 0 1 0 2 0v-1a1 1 0 0 0-1-1" fill="#662113"/><path d="M35 16.5h-2a.5.5 0 0 0 0 1h2a.5.5 0 0 0 0-1" fill="#c1694f"/><path d="M26.538 31.29a4.711 4.711 0 0 1-4.71 4.71A4.704 4.704 0 0 1 18 34.028 4.702 4.702 0 0 1 14.173 36a4.711 4.711 0 0 1-4.711-4.71c0-.37.047-.728.127-1.07.654-4.066 5.173-8.354 8.41-9.53 3.239 1.176 7.759 5.464 8.413 9.528.08.344.127.702.127 1.071" fill="#e75a70"/></g></svg>