<svg xmlns="http://www.w3.org/2000/svg" viewBox="0 0 45 45"><defs><clipPath id="a"><path d="M0 36h36V0H0v36z"/></clipPath></defs><g clip-path="url(#a)" transform="matrix(1.25 0 0 -1.25 0 45)"><path d="M29 15.271v1.963c1 1.03 2.914 2.89 3.391 5.273.141-.079.054-.13.213-.13.757 0 1.255.985 1.255 2.199 0 1.194-.656 2.16-1.398 2.19.143.516.212 1.207.212 2.092 0 2.956-2.549 6.505-8.253 6.505-5.068 0-8.244-3.55-8.244-6.505 0-.858.051-1.562.142-2.107-.697-.105-1.247-1.033-1.247-2.175 0-1.214.615-2.198 1.373-2.198.158 0-.069.05.072.13.477-2.383 2.484-4.243 3.484-5.273v-1.847c-4-.492-7-2.628-7-4.764v-.811C13 9 13.823 9 14.634 9h18.73C34.177 9 35 9 35 9.813v.811c0 2-3 3.996-6 4.648" fill="#66757f"/><path d="M17 7.271v1.963c1 1.03 2.914 2.89 3.391 5.274.141-.08.054-.13.213-.13.757 0 1.255.983 1.255 2.197 0 1.194-.656 2.161-1.398 2.191.143.515.212 1.206.212 2.091 0 2.956-2.549 6.505-8.253 6.505-5.069 0-8.244-3.549-8.244-6.505 0-.858.051-1.562.142-2.107-.697-.105-1.247-1.033-1.247-2.175 0-1.214.615-2.198 1.373-2.198.158 0-.069.051.072.13C4.993 12.123 7 10.264 8 9.234V7.387C4 6.895 1 4.76 1 2.623v-.811C1 1 1.823 1 2.634 1h18.73C22.177 1 23 1 23 1.812v.811c0 2-3 3.996-6 4.648" fill="#292f33"/></g></svg>