<svg xmlns="http://www.w3.org/2000/svg" viewBox="0 0 45 45"><defs><clipPath id="a"><path d="M0 36h36V0H0v36z"/></clipPath></defs><g clip-path="url(#a)" transform="matrix(1.25 0 0 -1.25 0 45)"><path d="M13.062 32c0 2.21 2.211 4 4.938 4 2.728 0 4.938-1.79 4.938-4 0-2.208-2.21-4-4.938-4-2.727 0-4.938 1.792-4.938 4" fill="#6d6e71"/><path d="M33 15c0 2.14-1.053 3.872-2.373 3.98C29.255 26.445 24.13 32 18 32c-6.13 0-11.255-5.555-12.627-13.02C4.053 18.872 3 17.14 3 15c0-2.153 1.066-3.896 2.399-3.983C6.807 4.054 11.906 0 18 0c6.094 0 11.193 4.054 12.602 11.017C31.934 11.104 33 12.847 33 15" fill="#af7e57"/><path d="M25 17h-3a1 1 0 1 0 0 2h3a1 1 0 1 0 0-2M14 17h-3a1 1 0 0 0 0 2h3a1 1 0 0 0 0-2" fill="#808285"/><path d="M18 4.349c-2.519 0-3.494.753-3.664.903a1.001 1.001 0 0 0 1.293 1.526c.06-.04.7-.43 2.371-.43 1.751 0 2.37.429 2.376.434.414.367 1.026.31 1.392-.101.367-.413.309-1.062-.104-1.43-.17-.15-1.145-.902-3.664-.902" fill="#df1f32"/><path d="M19 8h-2a1 1 0 1 0 0 2h2a1 1 0 1 0 0-2" fill="#915a34"/><path d="M23 12a1 1 0 0 0-1 1v2a1 1 0 1 0 2 0v-2a1 1 0 0 0-1-1M13 12a1 1 0 0 0-1 1v2a1 1 0 1 0 2 0v-2a1 1 0 0 0-1-1" fill="#60352a"/><path d="M33 24c-2 7-8 9-11.188 9C20 33 18 32 18 32s-2.001 1-4 1c-3 0-9-2-11-9-1.648-5.768 2-11 2-11 0 3.002 2 9 7 9s6 4 6 4 .786-4 5.786-4S31 16.003 31 13c0 0 3.648 5.232 2 11" fill="#808285"/><path d="M33 12a1 1 0 1 0-2 0 1 1 0 1 0 2 0M5 12a1 1 0 1 1-2 0 1 1 0 0 1 2 0" fill="#aa8dd8"/></g></svg>