<svg xmlns="http://www.w3.org/2000/svg" viewBox="0 0 45 45"><defs><clipPath id="a"><path d="M0 36h36V0H0v36z"/></clipPath></defs><g clip-path="url(#a)" transform="matrix(1.25 0 0 -1.25 0 45)"><path d="M35 19C35 9.611 21.777 0 18 0 14.222 0 1 9.611 1 19s7.611 17 17 17 17-7.611 17-17" fill="#ccd6dd"/><path d="M13.503 21.155c3.124-3.124 4.39-6.923 2.828-8.485-1.561-1.562-5.361-.297-8.485 2.828-3.125 3.124-4.391 6.923-2.828 8.485 1.562 1.562 5.36.296 8.485-2.828M22.497 21.155c-3.124-3.124-4.39-6.923-2.828-8.485 1.561-1.563 5.361-.297 8.485 2.828 3.125 3.125 4.391 6.923 2.828 8.485-1.562 1.562-5.36.296-8.485-2.828M18 5c-2.347 0-3.575 1.16-3.707 1.293a.999.999 0 0 0 1.404 1.424C15.749 7.67 16.503 7 18 7c1.519 0 2.273.689 2.305.719a1.006 1.006 0 0 0 1.408-.03.993.993 0 0 0-.006-1.396C21.575 6.16 20.347 5 18 5" fill="#292f33"/></g></svg>