<svg xmlns="http://www.w3.org/2000/svg" viewBox="0 0 45 45"><defs><clipPath id="a"><path d="M0 36h36V0H0v36z"/></clipPath></defs><g clip-path="url(#a)" transform="matrix(1.25 0 0 -1.25 0 45)"><path d="M32 13s7 0 1 8c0 0 6 2.001-2 7 0 0 6 6.018-7 3 0 0 0 5-2 5s-4-4-4-4-2 4-4 4-2-5-2-5c-13 3.072-7-3-7-3-8-4.999-2-7-2-7-6-8 1-8 1-8s-4-2-4-5 3-2 6-2c-7-9 12-1 12-1s19-8 12 1c3 0 6-1 6 2s-4 5-4 5" fill="#292f33"/><path d="M6 15.438C6 28 11.373 30.876 18 30.876S30 28 30 15.438C30 6.913 25.969 0 18 0 10.004 0 6 6.913 6 15.438" fill="#dd2e44"/><path d="M20 10h-1a1 1 0 1 0 0 2h1a1 1 0 1 0 0-2" fill="#a0041e"/><path d="M17 10h-1a1 1 0 1 0 0 2h1a1 1 0 1 0 0-2" fill="#a0041e"/><path d="M13.86 26.511c.028.05.05.101.07.156.184.512-.046 1.08-.553 1.275C13.35 27.952 11 29.035 8 35.39v.004c0 .058-.11.1-.143.151a1.15 1.15 0 0 1-.131.164c-.09.09-.206.16-.321.21-.031.012-.075.012-.11.022a.981.981 0 0 1-.273.055c-.007 0-.014.004-.02.004-.05 0-.091-.02-.138-.028-.067-.008-.133-.006-.198-.029-.01-.004-.017-.012-.027-.015-.058-.023-.106-.06-.158-.094-.057-.035-.116-.065-.164-.11-.04-.038-.067-.086-.101-.13-.042-.056-.086-.109-.116-.173-.023-.048-.031-.1-.046-.154-.02-.07-.04-.14-.044-.216-.001-.018-.01-.033-.01-.05 0-.269.063-6.604 5.486-9.858a.99.99 0 0 1 1.014-.007c.018-.009.035-.02.053-.03a1 1 0 0 1 1.307 1.405M29.99 35.05a.931.931 0 0 1-.044.216c-.015.053-.023.107-.046.156-.029.062-.072.112-.113.167-.034.046-.063.096-.105.135-.046.043-.102.072-.156.106-.055.034-.104.074-.165.097-.01.004-.017.012-.026.016-.066.023-.13.02-.198.03-.045.006-.086.027-.134.027H29c-.007 0-.012-.004-.019-.004a1.013 1.013 0 0 1-.297-.06c-.024-.009-.052-.008-.077-.018a.991.991 0 0 1-.526-.524c-2.726-6.359-5.392-7.442-5.398-7.445a1 1 0 0 1-.549-1.449 1 1 0 0 1 1.313-1.394c.02.01.034.021.053.03a1 1 0 0 1 1.014.007C29.937 28.397 30 34.733 30 35.001c0 .017-.009.032-.01.05" fill="#ffac33"/><path d="M18 3c-3.171 0-7.194 1.368-7.194 2.905 0 .409.229.778.597.963.177.089.371.132.597.132h12.238l.359-.132.549-.277.047-.686C25.193 4.368 21.171 3 18 3" fill="#292f33"/><path d="M13 5a1 1 0 1 0 0 2 1 1 0 0 0 0-2M23 5a1 1 0 1 0 0 2 1 1 0 1 0 0-2M20 4a1 1 0 0 0-1 1v1a1 1 0 1 0 2 0V5a1 1 0 0 0-1-1M16 4a1 1 0 0 0-1 1v1a1 1 0 1 0 2 0V5a1 1 0 0 0-1-1" fill="#ffac33"/><path d="M14 14a2 2 0 0 0-2 2v3a2 2 0 0 0 4 0v-3a2 2 0 0 0-2-2M22 14a2 2 0 0 0-2 2v3a2 2 0 0 0 4 0v-3a2 2 0 0 0-2-2" fill="#292f33"/></g></svg>