<svg xmlns="http://www.w3.org/2000/svg" viewBox="0 0 45 45"><defs><clipPath id="a"><path d="M0 36h36V0H0v36z"/></clipPath></defs><g clip-path="url(#a)" transform="matrix(1.25 0 0 -1.25 0 45)"><path d="M33 17c0 2.21-1.119 4.001-2.5 4.001-.125 0-.246-.031-.366-.06-1.868 5.805-6.589 9.934-12.134 9.934-5.544 0-10.266-4.129-12.134-9.934-.12.029-.241.06-.366.06C4.119 21.001 3 19.21 3 17c0-2.028.947-3.686 2.171-3.947C6.138 5.663 11.505 0 18 0c6.495 0 11.861 5.663 12.829 13.053C32.053 13.314 33 14.972 33 17" fill="#7c533e"/><path d="M13 12a1 1 0 0 0-1 1v2a1 1 0 1 0 2 0v-2a1 1 0 0 0-1-1M23 12a1 1 0 0 0-1 1v2a1 1 0 1 0 2 0v-2a1 1 0 0 0-1-1"/><path d="M2 21c0 2.762 6.611 5 16 5s16-2.238 16-5c0-2.76-6.611-6-16-6S2 18.24 2 21" fill="#ffe8b6"/><path d="M3 22c0 7 6.198 14 15 14s15-7 15-14c0-1-6.198-4-15-4S3 21 3 22" fill="#ffd983"/><path d="M25 19a1 1 0 0 0-1 1c0 7.728-1.93 13.625-1.949 13.684a1 1 0 0 0 1.897.633c.08-.24 1.876-5.71 2.04-13.224 1.139.162 3.165.603 5.565 1.803a1.001 1.001 0 0 0 .894-1.79C28.284 19.025 25.132 19 25 19M11 19c-.132 0-3.284.024-7.447 2.105a1 1 0 0 0 .894 1.79c2.399-1.2 4.425-1.64 5.565-1.802.164 7.513 1.959 12.984 2.039 13.223.176.524.744.806 1.264.633.524-.175.808-.74.634-1.264C13.929 33.624 12 27.727 12 20a1 1 0 0 0-1-1" fill="#ffac33"/><path d="M21 26h-2v2a1 1 0 0 1-2 0v-2h-2a1 1 0 0 1 0-2h2v-2a1 1 0 0 1 2 0v2h2a1 1 0 1 1 0 2" fill="#5c913b"/><path d="M18 4c-2.21 0-4.357 1.061-4.447 1.105a1.001 1.001 0 0 0 .893 1.791C14.464 6.886 16.27 6 18 6c1.73 0 3.536.886 3.554.896a1 1 0 1 0 .893-1.791C22.356 5.061 20.211 4 18 4M19 8h-2a1 1 0 1 0 0 2h2a1 1 0 1 0 0-2" fill="#3d2e24"/></g></svg>