<svg xmlns="http://www.w3.org/2000/svg" viewBox="0 0 45 45"><defs><clipPath id="a"><path d="M0 36h36V0H0v36z"/></clipPath></defs><g clip-path="url(#a)" transform="matrix(1.25 0 0 -1.25 0 45)"><path d="M32 16c0 2.21-1.119 4.001-2.5 4.001-.012 0-.021-.005-.033-.006-1.512 6.301-6.073 10.88-11.467 10.88s-9.956-4.579-11.467-10.88c-.012.001-.022.006-.033.006C5.119 20.001 4 18.21 4 16c0-2.107 1.021-3.815 2.314-3.97C7.537 5.381 12.299 1 18 1c5.7 0 10.463 4.381 11.686 11.03C30.979 12.185 32 13.893 32 16" fill="#7c533e"/><path d="M13 15a1 1 0 0 0-1 1v2a1 1 0 0 0 2 0v-2a1 1 0 0 0-1-1M23 15a1 1 0 0 0-1 1v2a1 1 0 1 0 2 0v-2a1 1 0 0 0-1-1"/><path d="M18 5c-4.201 0-5.491 1.077-5.707 1.293a.999.999 0 0 0 1.376 1.45C13.749 7.686 14.769 7 18 7c3.355 0 4.326.739 4.336.747.39.389 1.001.37 1.393-.02.39-.391.369-1.043-.022-1.434C23.491 6.077 22.201 5 18 5M19 10h-2a1 1 0 1 0 0 2h2a1 1 0 1 0 0-2" fill="#3d2e24"/><path d="M18 35c8 0 13-6 13-11s-1-7-2-5l-2 4s-6 0-8 2c0 0 3-6-3 0 0 0 1-4-5 1 0 0-3-2-4-7-.277-1.386-2 0-2 5s4 11 13 11" fill="#ffe51e"/></g></svg>