<svg xmlns="http://www.w3.org/2000/svg" viewBox="0 0 45 45"><defs><clipPath id="a"><path d="M0 36h36V0H0v36z"/></clipPath></defs><g clip-path="url(#a)" transform="matrix(1.25 0 0 -1.25 0 45)"><path d="M28 15c0-2.209-3-15-9-15h-8C5 0 2 12.791 2 15v17a4 4 0 0 0 4 4h18a4 4 0 0 0 4-4V15z" fill="#da2f47"/><path d="M14.44 26.829c2.139-2.343 2.716-5.51 1.29-7.071-1.422-1.562-4.311-.928-6.448 1.414-2.136 2.343-2.715 5.51-1.29 7.07 1.425 1.563 4.314.93 6.449-1.413" fill="#f5f8fa"/><path d="M15.934 23.294c.609-.781.609-2.048 0-2.83-.606-.78-1.593-.78-2.201 0-.61.782-.61 2.049 0 2.829.608.782 1.595.782 2.2 0" fill="#292f33"/><path d="M21.727 26.729c-1.826-2.342-2.318-5.509-1.1-7.071 1.215-1.562 3.68-.928 5.504 1.414 1.824 2.343 2.317 5.509 1.1 7.071-1.215 1.562-3.68.929-5.504-1.414" fill="#f5f8fa"/><path d="M21.176 23.193c-.61-.78-.61-2.047 0-2.828.607-.78 1.596-.78 2.2 0 .613.781.613 2.047 0 2.828-.604.781-1.593.781-2.2 0M20.892 25a2 2 0 0 0-1.577 3.229l4.67 6a2 2 0 0 0 3.156-2.458l-4.67-6A1.996 1.996 0 0 0 20.89 25M16.221 25c-.596 0-1.185.265-1.58.771l-4.672 6a2 2 0 0 0 3.156 2.458l4.673-6A2 2 0 0 0 16.221 25" fill="#292f33"/><path d="M24 4.999c-.81 0-1.571.496-1.873 1.299C22.023 6.557 20.96 9 18 9s-4.023-2.443-4.135-2.722a2.012 2.012 0 0 0-2.583-1.133 1.992 1.992 0 0 0-1.155 2.557C10.208 7.919 12.181 13 18 13c5.819 0 7.792-5.081 7.873-5.298A2.001 2.001 0 0 0 24 4.999" fill="#fdd888"/><path d="M18.555 14s4.482.553 7.05-4c2.819-5 2.819 5 2.114 6-.704 1-1.451-1.386-2.82-.9-2.821 1-6.344-1.1-6.344-1.1M18.555 14s-5.888.553-9.263-4c-3.703-5-3.703 5-2.778 6 .927 1 1.908-1.725 3.706-1.239 3.705 1 8.335-.761 8.335-.761" fill="#292f33"/><path d="M32.262 21c-.09 0-.174-.02-.262-.029V21H18.155c-1.511 0-2.735-1.343-2.735-3s1.224-3 2.735-3H32v.029c.088-.009.172-.029.262-.029C33.775 15 35 16.343 35 18c0 1.656-1.225 3-2.738 3" fill="#e75a70"/></g></svg>