<svg xmlns="http://www.w3.org/2000/svg" viewBox="0 0 45 45"><defs><clipPath id="a"><path d="M0 36h36V0H0v36z"/></clipPath></defs><g clip-path="url(#a)" transform="matrix(1.25 0 0 -1.25 0 45)"><path d="M36 17.5c0 1.639-.97 3.004-2.273 3.385C32.367 28.342 25.85 34 18 34c-7.85 0-14.367-5.658-15.727-13.115C.97 20.504 0 19.139 0 17.5c0-1.736 1.087-3.168 2.51-3.442C4.269 7.132 10.527 2 18 2c7.473 0 13.731 5.132 15.49 12.058 1.422.274 2.51 1.706 2.51 3.442" fill="#af7e57"/><path d="M18 11c-3 0-4 1-4-1s2-4 4-4 4 2 4 4-1 1-4 1M25 17.5a2.5 2.5 0 1 0-5 0 2.5 2.5 0 0 0 5 0M16 17.5a2.5 2.5 0 1 0-5 0 2.5 2.5 0 0 0 5 0" fill="#662214"/><path d="M18 10h2V9s0-1-1-1-1 1-1 1v1z" fill="#fff"/><path d="M17.982 25h-.031a4.362 4.362 0 0 0-3.135 1.304 3.739 3.739 0 0 0-1.076 2.847.991.991 0 0 0 1.057.935 1 1 0 0 0 .939-1.059 1.766 1.766 0 0 1 .504-1.337 2.433 2.433 0 0 1 1.725-.729c.653.036 1.27.247 1.735.706a3.31 3.31 0 0 1 .033 4.676 4.392 4.392 0 0 1-6.203.042 1 1 0 1 0-1.404 1.424 6.395 6.395 0 0 0 9.03-.061 5.29 5.29 0 0 0-.051-7.486A4.4 4.4 0 0 0 17.982 25" fill="#845636"/></g></svg>