<svg xmlns="http://www.w3.org/2000/svg" viewBox="0 0 45 45"><defs><clipPath id="a"><path d="M0 36h36V0H0v36z"/></clipPath></defs><g clip-path="url(#a)" transform="matrix(1.25 0 0 -1.25 0 45)"><path d="M18 32c6 0 16-3 16-16s0-16-3-16-7 3-13 3S8.085 0 5 0C1.657 0 2 12 2 16c0 13 10 16 16 16" fill="#60352a"/><path d="M6 16.438c0 8.526 5.373 15.438 12 15.438s12-6.912 12-15.438C30 7.912 24.627 1 18 1S6 7.911 6 16.438" fill="#af7e57"/><path d="M18 5c-2.347 0-3.575 1.16-3.707 1.293a.999.999 0 0 0 1.404 1.424C15.749 7.67 16.503 7 18 7c1.519 0 2.273.689 2.305.719a1.006 1.006 0 0 0 1.408-.03.993.993 0 0 0-.006-1.396C21.575 6.16 20.347 5 18 5" fill="#df1f32"/><path d="M19 10h-2a1 1 0 1 0 0 2h2a1 1 0 1 0 0-2" fill="#915a34"/><path d="M3.064 11c-.03.325-.064.648-.064 1 0 5.001 3-.563 3 3 0 3.564 2 4.001 4 6.001l3 3s5-3 9-3S30 19 30 15s3 2.001 3-3c0-.355-.033-.673-.057-1h1.049C34 12.477 34 14.132 34 16c0 13-10 18-16 18S2 29 2 16c0-1.158-.03-2.986.012-5h1.052z" fill="#60352a"/><path d="M8 30h20v1l-3 1-2 3-3-1-2 2-2-2-3 1-2-3-3-1v-1z" fill="#a7a9ac"/><path d="M17 32.5c0 .83.448 1.5 1 1.5.553 0 1-.67 1-1.5 0-.828-.447-1.5-1-1.5-.552 0-1 .672-1 1.5M13 32a1 1 0 1 0 2 0 1 1 0 0 0-2 0M21 32a1 1 0 1 0 2 .001 1 1 0 0 0-2 0" fill="#f1f2f2"/><path d="M13 13a1 1 0 0 0-1 1v2a1 1 0 1 0 2 0v-2a1 1 0 0 0-1-1M23 13a1 1 0 0 0-1 1v2a1 1 0 1 0 2 0v-2a1 1 0 0 0-1-1" fill="#60352a"/></g></svg>