<svg xmlns="http://www.w3.org/2000/svg" viewBox="0 0 45 45"><defs><clipPath id="a"><path d="M0 36h36V0H0v36z"/></clipPath></defs><g clip-path="url(#a)" transform="matrix(1.25 0 0 -1.25 0 45)"><path d="M29.672 20.973C28.427 27.792 23.68 32.876 18 32.876c-5.68 0-10.427-5.084-11.671-11.903-1.3-.144-2.33-1.857-2.33-3.973 0-2.21 1.12-4 2.5-4h.01C7.99 6.64 12.572 2 17.999 2c5.429 0 10.01 5 11.492 11h.009c1.38 0 2.5 1.79 2.5 4 0 2.116-1.03 3.829-2.328 3.973" fill="#f7dece"/><path d="M13 15a1 1 0 0 0-1 1v2a1 1 0 0 0 2 0v-2a1 1 0 0 0-1-1M23 15a1 1 0 0 0-1 1v2a1 1 0 1 0 2 0v-2a1 1 0 0 0-1-1" fill="#662113"/><path d="M18 6c-2.21 0-4.357 1.061-4.447 1.105a1.001 1.001 0 0 0 .893 1.791C14.464 8.886 16.27 8 18 8c1.73 0 3.536.886 3.554.896a1.002 1.002 0 0 0 .893-1.791C22.356 7.061 20.211 6 18 6M19 11h-2a1 1 0 1 0 0 2h2a1 1 0 1 0 0-2" fill="#c1694f"/><path d="M18 25.048s10.327-2.685 11.91-7.518c.69 1.476 1.09 4.893 1.09 6.719 0 5.545-5.417 9.75-11.375 9.75h-3.25C10.417 34 5 29.795 5 24.25c0-1.826.4-5.388 1.089-6.862C7.673 22.22 18 25.047 18 25.047" fill="#e6e7e8"/><path d="M30.966 23.254c-2.017 1.611-4.384 2.94-6.65 3.695a1 1 0 0 1-.633-1.898c2.406-.8 5.035-2.39 7.04-4.223.12.84.202 1.684.243 2.426M5.169 21.615c2.898 2.072 12.518 8.292 23.604 8.377a10.936 10.936 0 0 1-2.181 1.916c-9.687-.719-17.97-5.545-21.584-7.976.014-.657.066-1.463.16-2.317" fill="#d1d3d4"/><path d="M30.12 27.976c-.04.005-.077.024-.12.024-4.095 0-8.238-1.026-12.318-3.044.201.06.318.092.318.092s1.178-.307 2.797-.898C23.868 25.372 26.954 26 30 26c.293 0 .551.131.733.332a8.568 8.568 0 0 1-.613 1.644M5.271 26.345c3.578 2.291 10.386 5.806 17.956 7.125a12.78 12.78 0 0 1-3.602.53h-2.549a56.957 56.957 0 0 1-10.143-4.36 8.924 8.924 0 0 1-1.662-3.295" fill="#d1d3d4"/></g></svg>