<svg xmlns="http://www.w3.org/2000/svg" viewBox="0 0 45 45"><defs><clipPath id="a"><path d="M0 36h36V0H0v36z"/></clipPath></defs><g clip-path="url(#a)" transform="matrix(1.25 0 0 -1.25 0 45)"><path d="M.005 5.907A.305.305 0 0 1 0 5.867c.001-.11.02-.216.031-.323.01-.074.011-.15.021-.225l.046-.2C.715 2.226 4.431 0 8.94 0c4.505 0 8.224 2.226 8.838 5.12.018.065.035.13.046.198.012.074.015.152.022.227.012.106.031.211.033.321 0 .015-.005.028-.006.041.001.018.004.035.006.053h-.009c-.05 1.652-1.358 2.98-2.97 2.98-1.618 0-2.924-1.328-2.974-2.98h-.017c.001.031.01.06.01.093 0 1.696-1.335 3.072-2.98 3.072S5.96 7.751 5.958 6.053c.001-.033.008-.063.011-.093h-.019c-.05 1.652-1.356 2.98-2.972 2.98C1.364 8.94.06 7.611.01 5.96L0 5.961c0-.019.005-.036.005-.054M18.089 5.907a.203.203 0 0 1-.006-.04c0-.11.02-.216.03-.323.01-.074.012-.15.023-.225.014-.069.03-.137.046-.2C18.798 2.226 22.515 0 27.022 0c4.506 0 8.225 2.226 8.839 5.12.018.065.036.13.046.198.012.074.016.152.023.227.012.106.03.211.032.321 0 .015-.004.028-.006.041l.006.053h-.01c-.05 1.652-1.356 2.98-2.97 2.98-1.616 0-2.922-1.328-2.972-2.98h-.018c0 .031.009.06.009.093 0 1.696-1.334 3.072-2.98 3.072-1.643 0-2.977-1.374-2.98-3.072.003-.033.01-.063.013-.093h-.02c-.05 1.652-1.355 2.98-2.971 2.98s-2.921-1.328-2.97-2.98l-.01.001c0-.019.006-.036.006-.054" fill="#e1e8ed"/><path d="M30 15c0-6.627-5.373-12-12-12S6 8.373 6 15s5.373 12 12 12 12-5.373 12-12" fill="#af7e57"/><path d="M18 30.795c-7.444 0-13.5-6.056-13.5-13.5 0-1.9.396-3.751 1.178-5.5a.5.5 0 0 1 .952.134c.393 2.756 2.581 4.707 4.512 6.429 1.793 1.599 3.497 3.119 3.444 5.04 6.516-1.17 14.006-6.016 14.784-11.468a.5.5 0 0 1 .951-.134 13.37 13.37 0 0 1 1.179 5.499c0 7.444-6.056 13.5-13.5 13.5M14 9h8s-1-2-4-2-4 2-4 2" fill="#60352a"/><path d="M16 14a1 1 0 1 0-2 0v2a1 1 0 1 0 2 0v-2zM22 14a1 1 0 1 0-2 0v2a1 1 0 1 0 2 0v-2z" fill="#60352a"/><path d="M18 27c-4.971 0-9 1.567-9 3.5s4.029 3.5 9 3.5 9-1.567 9-3.5-4.029-3.5-9-3.5m0 9c-6.627 0-12-2.686-12-6 0-3.313 5.373-6 12-6s12 2.687 12 6c0 3.314-5.373 6-12 6" fill="#8ccaf7"/></g></svg>