<svg xmlns="http://www.w3.org/2000/svg" viewBox="0 0 45 45"><defs><clipPath id="a"><path d="M0 36h36V0H0v36z"/></clipPath></defs><g clip-path="url(#a)" transform="matrix(1.25 0 0 -1.25 0 45)"><path d="M35 18c0 7.002-2 13-7 16s-10 .785-10 .785v-.035l-.001.035S13 37 8 34c-5-3-7-8.998-7-16C1 10.998 0-.001 0-.001h36s-1 10.999-1 18.002" fill="#e6e7e8"/><path d="M17.999 33.19c4.876 0 13.001-2.437 13.001-13 0-10.564 0-13.001-2.438-13.001-2.437 0-5.687 2.437-10.563 2.437S9.943 7.189 7.436 7.189c-2.716 0-2.438 9.75-2.438 13 0 10.564 8.125 13.002 13.001 13.002" fill="#963b22"/><path d="M32 0v1a6 6 0 0 1-6 6H10a6 6 0 0 1-6-6V0h28z" fill="#fff"/><path d="M27.75 20.545c0 6.928-4.366 12.544-9.751 12.544s-9.75-5.616-9.75-12.544c0-5.58 2.834-10.305 6.751-11.934v-1.61h-3V2h12v5h-3v1.612c3.916 1.63 6.75 6.352 6.75 11.932" fill="#d5ab88"/><path d="M5.863 16c-.025 0-.052.59-.052.876 0 4.063 2.437-.425 2.437 2.47s1.625 3.266 3.25 4.891c.813.812 2.438 2.446 2.438 2.446S18 24.249 21.25 24.249c3.25 0 6.5-1.624 6.5-4.874 0-3.25 2.437 1.563 2.437-2.5 0-.289-.027-.875-.047-.875h.853C31 17 31 18.608 31 20.126c0 10.563-8.125 14.658-13 14.658-4.877 0-13.002-4.11-13.002-14.674 0-.941-.023-2.11.01-4.11h.855z" fill="#963b22"/><path d="M14 18a1 1 0 0 0-1 1v1a1 1 0 0 0 2 0v-1a1 1 0 0 0-1-1M22 18a1 1 0 0 0-1 1v1a1 1 0 1 0 2 0v-1a1 1 0 0 0-1-1" fill="#662113"/><path d="M27.648 30.04a13.343 13.343 0 0 1-1.516 1.535C24.69 31.235 21.596 31 18 31c-3.591 0-6.682.234-8.125.572a13.34 13.34 0 0 1-1.517-1.534C10.228 29.419 13.845 29 18 29c4.16 0 7.778.42 9.648 1.039" fill="#fff"/><path d="M19 15.5a.5.5 0 0 0-.5-.5h-1a.5.5 0 0 0 0 1h1a.5.5 0 0 0 .5-.5" fill="#c1694f"/><path d="M17.995 12.219c1.13 0 1.817.469 2.35.812.53.344 1.467-.29.655-.988-.813-.7-2.053-.978-3-.978l-.005 1.154zM17.995 12.219c-1.13 0-1.817.469-2.349.812-.53.344-1.468-.29-.656-.988.813-.7 2.053-.978 3.001-.978l.004 1.154z" fill="#df1f32"/></g></svg>