<svg xmlns="http://www.w3.org/2000/svg" viewBox="0 0 45 45"><defs><clipPath id="a"><path d="M0 36h36V0H0v36z"/></clipPath></defs><g clip-path="url(#a)" transform="matrix(1.25 0 0 -1.25 0 45)"><path d="M36 25a2 2 0 1 1-4 0s-.011-3.285-3-3.894V24c0 6.075-4.925 11-11 11S7 30.075 7 24v-3.237C1.778 19.194 0 12.769 0 9a2 2 0 0 1 4 0s.002 3.54 3.336 3.958C7.838 8.117 8.954 3 11 3h1c4 0 3-2 7-2s3 2 6 2 2.395-2 6-2a3 3 0 0 1 3 3c0 .675-2.274 4.994-3.755 9.268C35.981 14.652 36 21.42 36 25" fill="#e1e8ed"/><path d="M15 24a2 2 0 1 0-4 0 2 2 0 0 0 4 0M27 24a4 4 0 1 0-8 0 4 4 0 0 0 8 0" fill="#292f33"/><path d="M25 23a2 2 0 1 0-4 0 2 2 0 0 0 4 0" fill="#9aaab4"/><path d="M22.192 16.509c2.65-1.987 3.591-5.211 2.1-7.2-1.492-1.988-4.849-1.988-7.5 0-2.65 1.988-3.59 5.212-2.1 7.2 1.491 1.989 4.85 1.988 7.5 0" fill="#292f33"/></g></svg>