<svg xmlns="http://www.w3.org/2000/svg" viewBox="0 0 45 45"><defs><clipPath id="a"><path d="M0 36h36V0H0v36z"/></clipPath></defs><g clip-path="url(#a)" transform="matrix(1.25 0 0 -1.25 0 45)"><path d="M36 18c0-9.941-8.059-18-18-18S0 8.059 0 18s8.059 18 18 18 18-8.059 18-18" fill="#aa8ed6"/><path d="M10 32c-2.58 0-5.631 2.466-6.586 3.414A1.999 1.999 0 0 1 0 34c0-3.459 1.672-10 8-10 .757 0 1.45.428 1.789 1.105l2 4A1.999 1.999 0 0 1 10 32M34.766 35.848a1.996 1.996 0 0 1-2.18-.434C31.7 34.529 28.589 32 26 32a2.001 2.001 0 0 1-1.79-2.894l2-4A2.003 2.003 0 0 1 28 24c6.329 0 8 6.54 8 10a2 2 0 0 1-1.234 1.848" fill="#aa8ed6"/><path d="M14.998 18c-.3 0-.605.068-.892.21l-6 3a2.001 2.001 0 0 0 1.789 3.579l6-3a2.002 2.002 0 0 0-.896-3.79M21 6h-6a2 2 0 0 0 0 4h6a2 2 0 1 0 0-4M21.002 18a2 2 0 0 0-.896 3.79l6 3a2 2 0 0 0 1.789-3.579l-6-3a2.004 2.004 0 0 0-.893-.211" fill="#553986"/><path d="M20 18s0 2 2 2 2-2 2-2v-2s0-2-2-2-2 2-2 2v2zM12 18s0 2 2 2 2-2 2-2v-2s0-2-2-2-2 2-2 2v2z" fill="#553986"/></g></svg>