<svg xmlns="http://www.w3.org/2000/svg" viewBox="0 0 45 45"><defs><clipPath id="a"><path d="M0 0h36v36H0V0z"/></clipPath><clipPath id="b"><path d="M0 36h36V0H0v36z"/></clipPath></defs><g clip-path="url(#a)" transform="matrix(1.25 0 0 -1.25 0 45)"><path d="M30.169 27.85L15.319 13s-.706 2.12.708 3.536l12.728 12.728 1.414-1.414z" fill="#9aaab4"/><path d="M30.169 27.85c1.172 1.172 2.439 1.805 2.829 1.414.392-.391-.243-1.656-1.415-2.828-1.171-1.172-2.436-1.805-2.828-1.414-.391.39.243 1.656 1.414 2.828m-1.414 1.414c-1.952-1.953-2.586-4.484-1.414-5.656 1.172-1.172 3.705-.54 5.657 1.414 1.952 1.952 2.586 4.484 1.414 5.656-1.172 1.172-3.704.539-5.657-1.414" fill="#67757f"/><path d="M20 25c0 6.075-4.925 11-11 11-1.721 0-3.343-.406-4.793-1.111A6.964 6.964 0 0 1 3 35a7 7 0 0 1-7-7V16h.018C-3.799 9.533 1.489 4.344 8 4.344c3.358 0 6.384 1.387 8.559 3.612C22.426 7.493 29 0 29 0l7 9c-15 6-16 16-16 16" fill="#ffe51e"/><path d="M17 9H-1a4 4 0 0 1-4-4V0h26v5a4 4 0 0 1-4 4" fill="#9268ca"/><path d="M17 0h-1v4h1V0zM0 0h-1v4h1V0z" fill="#7450a8"/><path d="M11 8.005V12H5V8a3 3 0 1 1 6 0v.005" fill="#f3d2a2"/><path d="M4 31s-.003-5.308-5-5.936V19a9 9 0 0 1 9-9 9 9 0 0 1 9 9v5.019C5.89 24.395 4 31 4 31" fill="#f3d2a2"/><path d="M12 15H4s1-2 4-2 4 2 4 2" fill="#df1f32"/><path d="M24 30V9s2 1 2 3v18h-2z" fill="#9aaab4"/><path d="M23 27c-.553 0-1 1.343-1 3s.447 3 1 3c.553 0 1-1.343 1-3s-.447-3-1-3m0 8c-1.657 0-3-2.239-3-5s1.343-5 3-5 3 2.239 3 5-1.343 5-3 5" fill="#67757f"/></g><g clip-path="url(#b)" transform="matrix(1.25 0 0 -1.25 0 45)"><path d="M26 24a1 1 0 1 0-2 0 1 1 0 0 0 2 0" fill="#67757f"/><path d="M9 16.5H7a.5.5 0 0 0 0 1h2a.5.5 0 0 0 0-1" fill="#c1694f"/><path d="M4 20a1 1 0 0 0-1 1v1a1 1 0 0 0 2 0v-1a1 1 0 0 0-1-1M12 20a1 1 0 0 0-1 1v1a1 1 0 0 0 2 0v-1a1 1 0 0 0-1-1" fill="#662113"/></g></svg>