<svg xmlns="http://www.w3.org/2000/svg" viewBox="0 0 45 45"><defs><clipPath id="a"><path d="M0 36h36V0H0v36z"/></clipPath></defs><g clip-path="url(#a)" transform="matrix(1.25 0 0 -1.25 0 45)"><path d="M18 4a8 8 0 0 0-8 8 8 8 0 1 0 16 0 8 8 0 0 0-8-8m0 20c-6.627 0-12-5.373-12-12S11.373 0 18 0s12 5.373 12 12-5.373 12-12 12" fill="#9aaab4"/><path d="M29 31l-4 5H11l-4-5 11-9 11 9z" fill="#5dadec"/><path d="M29 31l-4 5H11l-4-5h22z" fill="#8ccaf7"/><path d="M29 31l-4 5h-7v-5h11z" fill="#5dadec"/><path d="M18 31h11l-11-9v9z" fill="#8ccaf7"/><path d="M25 23a3 3 0 0 0-3-3h-8a3 3 0 1 0 0 6h8a3 3 0 0 0 3-3" fill="#9aaab4"/></g></svg>