<svg xmlns="http://www.w3.org/2000/svg" viewBox="0 0 45 45"><defs><clipPath id="a"><path d="M0 36h36V0H0v36z"/></clipPath></defs><g clip-path="url(#a)" transform="matrix(1.25 0 0 -1.25 0 45)"><path d="M34 20c0 10-7.163 16-16 16-8.836 0-16-6-16-16 0-5.574.002-10.388 6-12.64V3a3 3 0 1 1 6 0v3.155c.324-.027.659-.05 1-.07V3a3 3 0 1 1 6 0v3.085c.342.02.676.043 1 .07V3a3 3 0 0 1 6 0v4.36c5.998 2.252 6 7.066 6 12.64" fill="#ccd6dd"/><path d="M16 22c0-2.76 0-5-5-5s-5 2.24-5 5a5 5 0 0 0 10 0M30 22c0-2.76 0-5-5-5s-5 2.24-5 5a5 5 0 1 0 10 0M19.903 12.938C19.651 13.55 18.9 14 18 14c-.9 0-1.652-.449-1.904-1.06a1.496 1.496 0 0 1 .404-2.94c.654 0 1.205.422 1.41 1.007.03 0 .06-.007.09-.007.031 0 .06.006.09.007a1.497 1.497 0 1 1 1.813 1.932" fill="#292f33"/></g></svg>