<svg xmlns="http://www.w3.org/2000/svg" viewBox="0 0 45 45"><defs><clipPath id="a"><path d="M0 36h36V0H0v36z"/></clipPath></defs><g clip-path="url(#a)" transform="matrix(1.25 0 0 -1.25 0 45)"><path d="M16.522 35.768c2.246 0 4.831-1.375 6.703-3.25C25.098 30.646 27 28.593 27 26.522V9.317l-15.974-.031v17.133c-.093 1.505 1.075 9.349 5.496 9.349" fill="#ea596e"/><path d="M19 24.622V8c0-1.105.896 0 2 0V6a2 2 0 0 1 2 2v15.666c-1.258.105-2.65.263-4 .956" fill="#dd2e44"/><path d="M22.072 32.545c2.664-2.39 4.277-5.236 2.961-6.699-1.315-1.464-5.06-.99-7.72 1.4-2.662 2.39-3.754 5.515-2.44 6.978 1.316 1.464 4.538.712 7.2-1.679" fill="#f4abba"/><path d="M30 2a2 2 0 0 0-2-2H10a2 2 0 0 0-2 2v6a2 2 0 0 0 2 2h18a2 2 0 0 0 2-2V2z" fill="#ffcc4d"/><path d="M31 2a2 2 0 0 0-2-2H9a2 2 0 0 0-2 2v1a2 2 0 0 0 2 2h20a2 2 0 0 0 2-2V2z" fill="#ffac33"/></g></svg>