<svg xmlns="http://www.w3.org/2000/svg" viewBox="0 0 45 45"><defs><clipPath id="a"><path d="M0 36h36V0H0v36z"/></clipPath><clipPath id="b"><path d="M11 3h14v21.001H11V3z"/></clipPath><clipPath id="c"><path d="M0 36h36V0H0v36z"/></clipPath></defs><g clip-path="url(#a)" transform="matrix(1.25 0 0 -1.25 0 45)"><path d="M24 30a6 6 0 1 0-12 0 6 6 0 0 0 12 0" fill="#ccd6dd"/><path d="M25 3H11v21h14V3z" fill="#ccd6dd"/></g><g clip-path="url(#b)" transform="matrix(1.25 0 0 -1.25 0 45)"><path d="M33.191 14.49L9.823 25.89l1.755 3.595 23.367-11.4-1.754-3.595zM26.176.11L2.809 11.51l1.753 3.594L27.93 3.705 26.176.11z" fill="#dd2e44"/><path d="M31.438 10.895L8.07 22.294l1.752 3.594 23.369-11.398-1.754-3.596zM27.93 3.705l-23.368 11.4L6.317 18.7 29.684 7.3 27.93 3.705zM24.422-3.485L1.055 7.915l1.754 3.595L26.176.11l-1.754-3.595z" fill="#fff"/><path d="M29.684 7.3L6.317 18.7l1.754 3.596 23.367-11.401L29.684 7.3z" fill="#55acee"/></g><g clip-path="url(#c)" transform="matrix(1.25 0 0 -1.25 0 45)"><path d="M27 25a2 2 0 0 0-2-2H11a2 2 0 0 0 0 4h14a2 2 0 0 0 2-2M27 2a2 2 0 0 0-2-2H11a2 2 0 0 0 0 4h14a2 2 0 0 0 2-2" fill="#99aab5"/></g></svg>