<svg xmlns="http://www.w3.org/2000/svg" viewBox="0 0 45 45"><defs><clipPath id="a"><path d="M0 36h36V0H0v36z"/></clipPath></defs><g clip-path="url(#a)" transform="matrix(1.25 0 0 -1.25 0 45)"><path d="M14 36c-1.721 0-3.343-.406-4.794-1.111A6.944 6.944 0 0 1 8 35a7 7 0 0 1-7-7V16h.018C1.201 9.533 6.489 4.344 13 4.344c6.511 0 11.799 5.189 11.982 11.656H25v9c0 6.075-4.925 11-11 11" fill="#0b0200"/><path d="M22 9H4a4 4 0 0 1-4-4V0h26v5a4 4 0 0 1-4 4" fill="#9268ca"/><path d="M22 0h-1v4h1V0zM5 0H4v4h1V0z" fill="#7450a8"/><path d="M10 14V8a3 3 0 1 1 6 0v6h-6z" fill="#7c533e"/><path d="M9 31s-.003-5.308-5-5.936V19a9 9 0 0 1 9-9 9 9 0 0 1 9 9v5.019C10.89 24.395 9 31 9 31" fill="#7c533e"/><path d="M17 14H9s1-2 4-2 4 2 4 2" fill="#df1f32"/><path d="M29 0h-7l1 17h6V0z" fill="#9268ca"/><path d="M31.541 20.557a1.285 1.285 0 0 1-1.517.997L27.35 21H25a2 2 0 0 1-2-2v-2h5c1.079 0 1.953.857 1.992 1.927l.355.073H31c0 .075-.028.144-.045.217.444.275.698.799.586 1.34" fill="#664131"/><path d="M36 20a1 1 0 0 1-1 1l-6-1h-5a1 1 0 0 1-1-1v-2h6l6 2s1 .447 1 1" fill="#7c533e"/><path d="M14 16.5h-2a.5.5 0 0 0 0 1h2a.5.5 0 0 0 0-1" fill="#3d2e24"/><path d="M9 20a1 1 0 0 0-1 1v1a1 1 0 0 0 2 0v-1a1 1 0 0 0-1-1M17 20a1 1 0 0 0-1 1v1a1 1 0 0 0 2 0v-1a1 1 0 0 0-1-1"/></g></svg>