<svg xmlns="http://www.w3.org/2000/svg" viewBox="0 0 45 45"><defs><clipPath id="a"><path d="M0 36h36V0H0v36z"/></clipPath></defs><g clip-path="url(#a)" transform="matrix(1.25 0 0 -1.25 0 45)"><path d="M30 15c0 8.284-5.373 15-12 15S6 23.284 6 15C6 6.716 11.373 0 18 0s12 6.716 12 15" fill="#66757f"/><path d="M28 15c0 7.029-4.477 12.727-10 12.727S8 22.029 8 15 12.477 2.273 18 2.273 28 7.971 28 15" fill="#f3d2a2"/><path d="M14 9a1 1 0 0 0-1 1v2a1 1 0 1 0 2 0v-2a1 1 0 0 0-1-1M22 9a1 1 0 0 0-1 1v2a1 1 0 1 0 2 0v-2a1 1 0 0 0-1-1" fill="#662113"/><path d="M20 4h-4a1 1 0 1 0 0 2h4a1 1 0 1 0 0-2" fill="#c1694f"/><path d="M30 31c0 3-2.134 5-5 5H11c-3 0-5-2-5-5V16a4 4 0 0 1 4-4h16a4 4 0 0 1 4 4v15z" fill="#292f33"/><path d="M19 9a1 1 0 1 0-2 0 1 1 0 0 0 2 0" fill="#c1694f"/></g></svg>