<svg xmlns="http://www.w3.org/2000/svg" viewBox="0 0 45 45"><defs><clipPath id="a"><path d="M0 36h36V0H0v36z"/></clipPath></defs><g clip-path="url(#a)" transform="matrix(1.25 0 0 -1.25 0 45)"><path d="M36 9a4 4 0 0 0-4-4H4a4 4 0 0 0-4 4v18a4 4 0 0 0 4 4h28a4 4 0 0 0 4-4V9z" fill="#ccd6dd"/><path d="M11.95 18.364L.636 7.051C.61 7.023.6 6.988.577 6.961A3.981 3.981 0 0 1 1.96 5.575c.03.023.063.033.09.06L13.365 16.95a1 1 0 0 1-1.416 1.414M35.423 6.96c-.021.028-.033.063-.06.09L24.05 18.364a1 1 0 1 1-1.415-1.414L33.949 5.636c.027-.027.062-.037.09-.06a3.97 3.97 0 0 1 1.384 1.384" fill="#99aab5"/><path d="M32 31H4a4 4 0 0 1-4-4v-1.03l14.527-14.495a4.882 4.882 0 0 1 6.885 0L36 25.991V27a4 4 0 0 1-4 4" fill="#99aab5"/><path d="M32 31H4a3.992 3.992 0 0 1-3.595-2.275l14.766-14.767a4 4 0 0 1 5.657 0l14.767 14.767A3.991 3.991 0 0 1 32 31" fill="#e1e8ed"/><path d="M27 19.22a4.986 4.986 0 0 1-4.986 4.987 4.98 4.98 0 0 1-4.053-2.087 4.98 4.98 0 0 1-4.051 2.087 4.987 4.987 0 0 1-4.987-4.987c0-.39.05-.769.134-1.133.693-4.302 5.476-8.84 8.904-10.087 3.428 1.246 8.212 5.785 8.904 10.086.085.365.135.743.135 1.134" fill="#e75a70"/></g></svg>