<svg xmlns="http://www.w3.org/2000/svg" viewBox="0 0 45 45"><defs><clipPath id="a"><path d="M0 0h36v36H0V0z"/></clipPath><clipPath id="b"><path d="M0 36h36V0H0v36z"/></clipPath></defs><g clip-path="url(#a)" transform="matrix(1.25 0 0 -1.25 0 45)"><path d="M17 15l-18 4S-10.424.052-1.001-1C8.699-2.083 25.308-13.231 20-1c-3.833 8.833-2.724 16-3 16" fill="#ffac33"/><path d="M43 15.958c0-6.626-5.374-12-12-12s-12 5.374-12 12c0 6.627 5.374 12 12 12s12-5.373 12-12" fill="#ffdc5d"/><path d="M30 29.253c-8.438.011-11.687-5.715-9.333-8.295 1.412-1.548 7.396-1.75 8.333.5 6.516-1.17 11.592-5.618 12.37-11.07a.5.5 0 0 1 .951-.134 13.37 13.37 0 0 1 1.179 5.5c0 7.443-6.056 13.49-13.5 13.5" fill="#ffac33"/><path d="M19.41 22.853s.982-2.695 4.672-4.102c3.691-1.407 9.121-.297 9.121-.297s-5.536 8.89-13.794 4.4" fill="#ffac33"/><path d="M26 13.458c-1.977 0-2.5 1.636-2.5 2.5a.5.5 0 0 0 1 .003c.003-.252.089-1.503 1.5-1.503a.5.5 0 0 0 0-1M31 13.458c-1.977 0-2.5 1.636-2.5 2.5a.5.5 0 0 0 1 .003c.003-.252.089-1.503 1.5-1.503a.5.5 0 0 0 0-1M26 6.458c-.602 0-1.5.4-1.5 1.5 0 .438.143.765.352 1-.209.235-.352.562-.352 1 0 1.101.898 1.5 1.5 1.5a.5.5 0 0 0 .005-1c-.231-.006-.505-.098-.505-.5s.274-.494.505-.5a.501.501 0 0 0 .006-1H26c-.225-.006-.5-.098-.5-.5s.275-.494.506-.5a.502.502 0 0 0 .49-.506.497.497 0 0 0-.496-.494" fill="#642116"/><path d="M-7 15.958c0-6.626 5.374-12 12-12s12 5.374 12 12c0 6.627-5.374 12-12 12s-12-5.373-12-12" fill="#ffdc5d"/><path d="M10 13.458c1.977 0 2.5 1.636 2.5 2.5a.5.5 0 0 1-1 .003c-.003-.252-.089-1.503-1.5-1.503a.5.5 0 0 1 0-1M5 13.458c1.977 0 2.5 1.636 2.5 2.5a.5.5 0 0 1-1 .003c-.003-.252-.089-1.503-1.5-1.503a.5.5 0 0 1 0-1M10 6.458c.602 0 1.5.4 1.5 1.5 0 .438-.143.765-.352 1 .209.235.352.562.352 1 0 1.101-.898 1.5-1.5 1.5a.5.5 0 0 1-.005-1c.231-.006.505-.098.505-.5s-.274-.494-.505-.5a.501.501 0 0 1-.006-1H10c.225-.006.5-.098.5-.5s-.275-.494-.506-.5a.502.502 0 0 1-.49-.506.497.497 0 0 1 .496-.494" fill="#642116"/><path d="M.3 28.41c-7.146-2.083-11.265-9.591-9.183-16.738a13.403 13.403 0 0 1 2.67-4.95.499.499 0 1 1 .876.395c-.393 2.755 1.162 5.24 2.533 7.434C-1.53 16.587 4.093 17 4.093 21.354c6.582.698 10.13-2.858 12.402-7.874a.501.501 0 0 1 .528-.29c.023.005.046.009.068.016a.498.498 0 0 1 .355.41 13.373 13.373 0 0 1-.407 5.61C14.956 26.373 7.447 30.493.3 28.41" fill="#ffac33"/></g><g clip-path="url(#b)" transform="matrix(1.25 0 0 -1.25 0 45)"><path d="M26.538 31.29a4.711 4.711 0 0 1-4.71 4.71A4.704 4.704 0 0 1 18 34.028 4.702 4.702 0 0 1 14.173 36a4.711 4.711 0 0 1-4.711-4.71c0-.37.047-.728.127-1.07.654-4.066 5.173-8.354 8.41-9.53 3.239 1.176 7.759 5.464 8.413 9.528.08.344.127.702.127 1.071" fill="#ea596e"/></g></svg>