<svg xmlns="http://www.w3.org/2000/svg" viewBox="0 0 45 45"><defs><clipPath id="a"><path d="M0 36h36V0H0v36z"/></clipPath></defs><g clip-path="url(#a)" transform="matrix(1.25 0 0 -1.25 0 45)"><path d="M30 16.344c0-6.627-5.373-12-12-12s-12 5.373-12 12c0 6.628 5.373 12 12 12s12-5.372 12-12" fill="#60352a"/><path d="M20 28a7 7 0 1 0-14 0 7 7 0 0 0 14 0" fill="#60352a"/><path d="M8 25c0-6.075 4.925-11 11-11s11 4.925 11 11-4.925 11-11 11S8 31.075 8 25" fill="#60352a"/><path d="M30 16H6v12l24-3v-9z" fill="#60352a"/><path d="M27 9H9a4 4 0 0 1-4-4V0h26v5a4 4 0 0 1-4 4" fill="#9268ca"/><path d="M27 0h-1v4h1V0zM10 0H9v4h1V0z" fill="#7450a8"/><path d="M15 14V8a3 3 0 1 1 6 0v6h-6z" fill="#af7e57"/><path d="M14 31s-.003-5.308-5-5.936V19a9 9 0 0 1 9-9 9 9 0 0 1 9 9v5.019C15.89 24.395 14 31 14 31" fill="#af7e57"/><path d="M20 14c0-.553-.895-1-2-1-1.104 0-2 .447-2 1 0 .553.896 1 2 1 1.105 0 2-.447 2-1" fill="#df1f32"/><path d="M15.005 31.847L12 32.54V36H8l-.6-2.4-2.232-2.232L4 29v-8s0-1 1-1 1 1 1 1l.775 6.385c.6.194 1.175.515 1.518.858l2.046 2.046 4.09-.942a1.281 1.281 0 0 1 1.537.96c.16.69-.272 1.379-.96 1.54M30.832 31.368L28.6 33.6 28 36h-4v-3.46l-3.006-.693a1.282 1.282 0 1 1 .576-2.5l4.091.942 2.046-2.046c.343-.343.917-.664 1.519-.858L30 21s0-1 1-1 1 1 1 1v8l-1.168 2.368z" fill="#af7e57"/><path d="M19 16.5h-2a.5.5 0 0 0 0 1h2a.5.5 0 0 0 0-1" fill="#915a34"/><path d="M15 19.016h-2a1 1 0 0 0 0 2h2a1 1 0 0 0 0-2M22.999 19.016H21a1 1 0 1 0 0 2h1.999a1 1 0 1 0 0-2" fill="#60352a"/></g></svg>