<svg xmlns="http://www.w3.org/2000/svg" viewBox="0 0 45 45"><defs><clipPath id="a"><path d="M0 36h36V0H0v36z"/></clipPath></defs><g clip-path="url(#a)" transform="matrix(1.25 0 0 -1.25 0 45)"><path d="M33.207 16.227l-8.868 8.855L11.105 11.46l8.684-8.684h.001A9.468 9.468 0 0 1 26.5 0C31.746 0 36 4.254 36 9.5a9.47 9.47 0 0 1-2.793 6.727" fill="#bb1a34"/><path d="M15.921 33.487A9.453 9.453 0 0 1 9.501 36 9.5 9.5 0 0 1 0 26.5c0-2.48.957-4.73 2.512-6.421l-.013-.014 8.605-8.605 13.233 13.622-8.417 8.405z" fill="#fdcb58"/></g></svg>