<svg xmlns="http://www.w3.org/2000/svg" viewBox="0 0 45 45"><defs><clipPath id="a"><path d="M0 36h36V0H0v36z"/></clipPath></defs><g clip-path="url(#a)" transform="matrix(1.25 0 0 -1.25 0 45)"><path d="M32.201 28.209c-2.223.36-7.568 3.963-11.41 2.762-3.844-1.201-3.544-2.162-5.465-2.763-1.922-.601-2.222.36-6.066-.841-3.842-1.201-6.184-7.206-7.805-8.768 0 0-1.603-1.62-1.02-3.483.581-1.861 2.522-1.32 2.522-1.32 6.725 2.102 9.007 4.925 9.007 4.925s3.482-1.021 6.364-.12c2.883.9 5.164 3.723 5.164 3.723s3.484-1.021 10.21 1.081c0 0 1.901.661 1.32 2.523-.583 1.862-2.82 2.281-2.82 2.281M31.12 21.544c-5.765-1.801-4.563-5.644-11.289-7.747-6.726-2.101-7.927 1.74-13.69-.06-1.922-.602-2.583-1.862-2.283-2.824C4.76 8.032 12.265.887 22.834 4.19c10.568 3.303 12.67 13.451 11.768 16.332-.299.962-1.562 1.623-3.483 1.022" fill="#e75a70"/></g></svg>