<svg xmlns="http://www.w3.org/2000/svg" viewBox="0 0 45 45"><defs><clipPath id="a"><path d="M0 36h36V0H0v36z"/></clipPath></defs><g clip-path="url(#a)" transform="matrix(1.25 0 0 -1.25 0 45)"><path d="M25.071 25.071a.999.999 0 0 0-.707 1.707l7.778 7.778a1 1 0 0 0 1.414-1.414l-7.778-7.778a.997.997 0 0 0-.707-.293" fill="#66757f"/><path d="M6.686 3.443a2.003 2.003 0 0 0-2.829 0L2.443 4.857a2 2 0 0 0 0 2.83l4.95 4.948a1.998 1.998 0 0 0 2.828 0l1.415-1.414c.78-.78.78-2.047 0-2.828l-4.95-4.95z" fill="#ccd6dd"/><path d="M26.839 23.596a1.5 1.5 0 0 0-2.121 0l-2.121 2.121a1.5 1.5 0 0 0 2.12 2.122l2.122-2.122a1.5 1.5 0 0 0 0-2.12" fill="#99aab5"/><path d="M14.464 8.394a2 2 0 0 0-2.828 0l-4.243 4.242a2 2 0 0 0 0 2.829l12.021 12.02a2 2 0 0 0 2.828 0l4.243-4.242a2 2 0 0 0 0-2.828L14.465 8.394z" fill="#e1e8ed"/><path d="M18.707 12.636c-.781-.78-1.34-.073-2.121.707l-4.243 4.243c-.781.78-1.488 1.34-.707 2.12l7.778 7.78c.781.78 2.048.78 2.828 0l4.243-4.243a1.999 1.999 0 0 0 0-2.83l-7.778-7.777z" fill="#dd2e44"/><path d="M14.818 5.919a1.5 1.5 0 0 0-2.121 0l-7.778 7.777a1.502 1.502 0 0 0 2.12 2.123l7.779-7.78a1.5 1.5 0 0 0 0-2.12M7.747 1.676a1.5 1.5 0 0 0-2.122 0L.676 6.626a1.5 1.5 0 1 0 2.121 2.12l4.95-4.95a1.501 1.501 0 0 0 0-2.12" fill="#99aab5"/><path d="M33.883 19.498c-.374.582-.887 1.38-1.535 2.676-.131.263-.565.263-.695 0-.65-1.296-1.162-2.094-1.536-2.676-.523-.814-.838-1.306-.838-2.165a2.724 2.724 0 0 1 2.72-2.722 2.725 2.725 0 0 1 2.723 2.722c0 .859-.316 1.351-.84 2.165M29.883 10.498c-.374.582-.887 1.38-1.535 2.676-.131.263-.565.263-.695 0-.65-1.296-1.162-2.094-1.536-2.676-.523-.814-.838-1.307-.838-2.164a2.725 2.725 0 0 1 2.72-2.723 2.726 2.726 0 0 1 2.723 2.723c0 .857-.316 1.35-.84 2.164" fill="#dd2e44"/></g></svg>