<svg xmlns="http://www.w3.org/2000/svg" viewBox="0 0 45 45"><defs><clipPath id="a"><path d="M0 36h36V0H0v36z"/></clipPath></defs><g clip-path="url(#a)" transform="matrix(1.25 0 0 -1.25 0 45)"><path d="M24.77 16.285a6.8 6.8 0 0 1-6.801 6.801 6.788 6.788 0 0 1-5.527-2.845 6.789 6.789 0 0 1-5.526 2.845 6.8 6.8 0 0 1-6.8-6.8c0-.532.066-1.05.182-1.546C1.243 8.873 7.766 2.681 12.442.982c4.675 1.7 11.2 7.891 12.141 13.756a6.65 6.65 0 0 1 .187 1.547M35.885 30.307a4.71 4.71 0 0 1-4.711 4.71 4.702 4.702 0 0 1-3.828-1.971 4.703 4.703 0 0 1-3.827 1.972 4.71 4.71 0 0 1-4.711-4.711c0-.37.047-.727.127-1.07.654-4.065 5.173-8.353 8.41-9.53 3.239 1.177 7.759 5.465 8.413 9.529.08.344.127.702.127 1.07" fill="#e75a70"/></g></svg>