<svg xmlns="http://www.w3.org/2000/svg" viewBox="0 0 45 45"><defs><clipPath id="a"><path d="M0 36h36V0H0v36z"/></clipPath></defs><g clip-path="url(#a)" transform="matrix(1.25 0 0 -1.25 0 45)"><path d="M35.885 24.166c0 5.45-4.418 9.868-9.867 9.868-3.308 0-6.227-1.632-8.018-4.128-1.79 2.496-4.71 4.129-8.017 4.129-5.45 0-9.868-4.418-9.868-9.868 0-.773.098-1.52.266-2.242C1.75 13.413 11.216 4.431 18 1.965c6.783 2.466 16.249 11.448 17.617 19.96.17.721.268 1.47.268 2.241" fill="#f2abba"/><path d="M31.423 22.628a7.405 7.405 0 0 1-7.405 7.406 7.392 7.392 0 0 1-6.018-3.1 7.39 7.39 0 0 1-6.017 3.1 7.406 7.406 0 0 1-7.406-7.406c0-.58.073-1.141.199-1.681C5.805 14.557 12.908 7.817 18 5.966c5.09 1.85 12.195 8.592 13.223 14.98.127.54.2 1.103.2 1.682" fill="#e75a70"/><path d="M27.191 21.17a5.071 5.071 0 0 1-5.07 5.071 5.058 5.058 0 0 1-4.12-2.123 5.061 5.061 0 0 1-4.122 2.123 5.072 5.072 0 0 1-5.072-5.072c0-.397.051-.78.136-1.15.705-4.377 5.57-8.993 9.057-10.26 3.485 1.267 8.351 5.883 9.054 10.258.087.371.137.755.137 1.152" fill="#bb1a34"/></g></svg>