<svg xmlns="http://www.w3.org/2000/svg" viewBox="0 0 45 45"><defs><clipPath id="a"><path d="M0 36h36V0H0v36z"/></clipPath></defs><g clip-path="url(#a)" transform="matrix(1.25 0 0 -1.25 0 45)"><path d="M36 4a4 4 0 0 0-4-4H4a4 4 0 0 0-4 4v28a4 4 0 0 0 4 4h28a4 4 0 0 0 4-4V4z" fill="#e75a70"/><path d="M31.885 22.236a7.66 7.66 0 0 1-7.66 7.66A7.648 7.648 0 0 1 18 26.692a7.645 7.645 0 0 1-6.224 3.206 7.661 7.661 0 0 1-7.661-7.661c0-.6.077-1.18.206-1.74C5.385 13.886 12.734 6.915 18 5c5.266 1.915 12.615 8.887 13.678 15.496.13.56.207 1.14.207 1.74" fill="#f5f8fa"/></g></svg>