<svg xmlns="http://www.w3.org/2000/svg" viewBox="0 0 45 45"><defs><clipPath id="a"><path d="M0 36h36V0H0v36z"/></clipPath></defs><g clip-path="url(#a)" transform="matrix(1.25 0 0 -1.25 0 45)"><path d="M35.01 5.033c-1.385 2.226-3.34 5.001-5.265 7.888-5.14 8.772-1.512 18.411-2.892 21.51-.56 1.26-3.88-.966-5.555-4.563a3.803 3.803 0 0 1-1.17.148c.155 2.398.293 4.31-.193 5.404-.71 1.598-5.867-2.419-6.464-7.73-1.847-1.006-3.222-1.956-3.222-1.956s-.95-1.376-1.954-3.223c-5.312-.594-9.331-5.753-7.732-6.464 1.096-.489 3.014-.349 5.42-.193a3.79 3.79 0 0 1 .154-1.159C2.527 13.021.289 9.69 1.55 9.128c3.282-1.46 13.9 2.701 23.053-3.893.288-.207.478-.322.6-.37 2.118-1.434 4.114-2.802 5.79-3.847 2.876-1.79 3.963.007 3.963.007s1.844 1.132.053 4.008" fill="#3e721d"/><path d="M35.03 1.172c.368.545.337 1.278-.145 1.76 0 0-11.86 15.813-13.835 23.72-1.977 7.906-4.397 5.737-3.689-.474.325-2.848 1.817-6.14 3.806-9.385l-8.942 8.94a1.398 1.398 0 1 1-1.977-1.976l8.94-8.94c-3.245 1.987-6.536 3.479-9.383 3.804-6.212.709-8.38-1.712-.475-3.688 7.908-1.976 23.72-13.836 23.72-13.836.481-.483 1.214-.513 1.757-.146.035-.007.065-.01.078.004.026.026.035.06.058.086.025.023.06.03.083.056.014.013.01.044.003.075" fill="#77b255"/><path d="M13.771 29.129c1.807-1.806 1.721-4.82-.188-6.73-1.91-1.91-3.77-.841-5.578.965-1.805 1.805-2.873 3.666-.963 5.577 1.91 1.909 4.923 1.994 6.73.188" fill="#dd2e44"/><path d="M12.618 27.976c1.807-1.807 2.875-3.666.965-5.576-1.91-1.91-4.924-1.995-6.73-.19-1.806 1.807-.964 5.578-.902 7.82.075 2.629 4.487.127 6.667-2.054" fill="#ea596e"/><path d="M22.665 20.234c1.808-1.807 1.722-4.819-.187-6.73-1.911-1.91-3.77-.84-5.577.964-1.805 1.806-2.874 3.667-.964 5.577 1.91 1.91 4.924 1.995 6.728.19" fill="#dd2e44"/><path d="M21.514 19.081c1.806-1.807 2.873-3.666.964-5.576-1.91-1.91-4.924-1.995-6.73-.188-1.805 1.806-.964 5.575-.901 7.82.075 2.627 4.486.124 6.667-2.056" fill="#ea596e"/><path d="M11.203 19.89c2.369-1.052 3.327-3.876 2.139-6.308-1.187-2.433-3.354-2.085-5.722-1.033-2.37 1.052-4.045 2.407-2.857 4.842 1.187 2.432 4.07 3.55 6.44 2.499" fill="#f4900c"/><path d="M10.486 18.422c2.368-1.052 4.044-2.408 2.855-4.84-1.186-2.433-4.07-3.553-6.439-2.501-2.37 1.05-2.857 4.84-3.57 6.943-.837 2.463 4.294 1.666 7.154.398" fill="#ffcc4d"/><path d="M24.93 28.988a4.89 4.89 0 0 0-2.365-6.5c-2.447-1.14-3.881.607-5.023 3.056-1.142 2.448-1.56 4.671.887 5.812a4.893 4.893 0 0 0 6.5-2.368" fill="#f4900c"/><path d="M23.453 28.3c1.141-2.45 1.56-4.671-.889-5.812a4.894 4.894 0 0 0-6.5 2.368c-1.14 2.448.89 5.812 1.676 7.978.924 2.539 4.333-1.578 5.713-4.534" fill="#ffcc4d"/></g></svg>