<svg xmlns="http://www.w3.org/2000/svg" viewBox="0 0 45 45"><defs><clipPath id="a"><path d="M0 36h36V0H0v36z"/></clipPath></defs><g clip-path="url(#a)" transform="matrix(1.25 0 0 -1.25 0 45)"><path d="M18.389 17.185c0-.256-.122-.486-.317-.682l-14-14.001a1 1 0 1 0-1.415 1.414l14 14a1.015 1.015 0 0 0 1.427-.012c.195-.194.305-.461.305-.72" fill="#4289c1"/><path d="M32.885 21.887a8.764 8.764 0 0 1-8.764 8.764A8.751 8.751 0 0 1 17 26.984a8.748 8.748 0 0 1-7.12 3.667 8.764 8.764 0 0 1-8.765-8.764c0-.686.087-1.351.236-1.99C2.569 12.335 10.975 4.359 17 2.167c6.025 2.192 14.432 10.168 15.648 17.729.15.64.237 1.305.237 1.99" fill="#e75a70"/><path d="M29.624 34.705c.306-.42.592-1.257.592-1.934 0-1.965-.717-4.654-2.386-6.334l-3.872-2.955c-.275-.274-.788-.357-1.144-.21-.359.148-.814-.73-.814-.342v5.058c0 1.867 3.686 6.296 3.686 6.296.843.772 1.683 1.183 2.44 1.182a1.792 1.792 0 0 0 1.498-.76" fill="#5dadec"/><path d="M35.629 28.145c0-.77-.417-1.837-1.204-2.695 0 0-4.51-4.45-6.41-4.45H22.85c-.396 0 .513.92.363 1.285-.15.363-.066 1.125.214 1.405l3.124 3.271c1.71 1.7 4.619 3.116 6.62 3.116.689 0 1.255-.117 1.682-.426.499-.365.775-.871.775-1.505" fill="#5dadec"/><path d="M32.389 31.186c0-.256-.122-.487-.317-.683l-15-15.001a1.002 1.002 0 0 0-1.416 1.414l15 15.002c.392.39 1.038.377 1.428-.013.195-.194.305-.462.305-.72M1.75.534a1.003 1.003 0 0 0-.971 1.241l1.625 6.541c.113.452.521.73.989.76.465-.01.864-.338.961-.794.031-.144.833-3.636 4.051-4.005a1 1 0 0 0 .145-1.959L2.008.568A.989.989 0 0 0 1.75.534" fill="#2a6797"/><path d="M17.373 11.472a1 1 0 0 0-.988.855c-.477 3.244-2.355 3.607-4.17 3.959l-.417.082a1 1 0 1 0 .405 1.959l.392-.078c1.903-.368 5.086-.984 5.77-5.631a1 1 0 0 0-.991-1.146" fill="#da2f47"/></g></svg>