<svg xmlns="http://www.w3.org/2000/svg" viewBox="0 0 45 45"><defs><clipPath id="a"><path d="M0 36h36V0H0v36z"/></clipPath></defs><g clip-path="url(#a)" transform="matrix(1.25 0 0 -1.25 0 45)"><path d="M35.885 24.166c0 5.45-4.418 9.868-9.867 9.868-3.308 0-6.227-1.632-8.018-4.128-1.79 2.496-4.71 4.129-8.017 4.129-5.45 0-9.868-4.418-9.868-9.868 0-.773.098-1.52.266-2.242C1.75 13.413 11.216 4.431 18 1.965c6.783 2.466 16.249 11.448 17.617 19.96.17.721.268 1.47.268 2.241" fill="#e75a70"/><path d="M36 21c-1-5-4-8-4-8H4s-3 3-4 8h36z" fill="#fdd888"/><path d="M14 18V0L9 5 4 0v18h10z" fill="#fdd888"/><path d="M16.802 26.806l-7.879-5.515-7.878 5.515C.47 27.208 0 26.964 0 26.262V11.603c0-.703.48-.964 1.07-.582l7.853 5.106 7.855-5.106c.588-.382 1.068-.12 1.068.582v14.66c0 .701-.47.945-1.044.543" fill="#fdcb58"/><path d="M13 19a4 4 0 1 0-8 0 4 4 0 0 0 8 0" fill="#fdd888"/></g></svg>