<svg xmlns="http://www.w3.org/2000/svg" viewBox="0 0 45 45"><defs><clipPath id="a"><path d="M0 36h36V0H0v36z"/></clipPath></defs><g clip-path="url(#a)" transform="matrix(1.25 0 0 -1.25 0 45)"><path d="M33.885 20.236A8.764 8.764 0 0 1 25.12 29 8.749 8.749 0 0 1 18 25.333 8.745 8.745 0 0 1 10.88 29a8.764 8.764 0 0 1-8.765-8.764c0-.685.087-1.35.236-1.99C3.569 10.685 11.975 2.708 18 .518c6.025 2.19 14.432 10.167 15.648 17.727.15.64.237 1.306.237 1.99" fill="#e75a70"/><path d="M1.499 24.959a1.001 1.001 0 0 0-.894 1.447c1.016 2.03 3.793 5.196 7.283 5.588a1 1 0 0 0 .224-1.988c-2.679-.302-4.928-2.917-5.717-4.495a1 1 0 0 0-.896-.553M1.04 30.375a.999.999 0 0 0-.827 1.561c.935 1.381 2.895 2.909 4.683 3.02a.993.993 0 0 0 1.06-.935 1.002 1.002 0 0 0-.936-1.061c-.96-.06-2.403-1.043-3.15-2.146a1 1 0 0 0-.83-.439M34.5 24.959a1 1 0 0 0-.895.553c-.79 1.578-3.04 4.193-5.717 4.495a1 1 0 0 0-.882 1.105.994.994 0 0 0 1.106.882c3.49-.392 6.267-3.557 7.282-5.588a1 1 0 0 0-.893-1.447M34.96 30.375a1 1 0 0 0-.83.439c-.747 1.103-2.19 2.086-3.15 2.146-.552.035-.97.51-.937 1.061a.992.992 0 0 0 1.061.935c1.788-.111 3.747-1.64 4.682-3.02a1 1 0 0 0-.827-1.561" fill="#fdcb58"/></g></svg>