<svg xmlns="http://www.w3.org/2000/svg" viewBox="0 0 45 45"><defs><clipPath id="a"><path d="M0 36h36V0H0v36z"/></clipPath></defs><g clip-path="url(#a)" transform="matrix(1.25 0 0 -1.25 0 45)"><path d="M33.541 12.802c.364 1.578.243 3.266-.458 4.946a8.018 8.018 0 0 1-3.271 3.773c.319 1.193.235 2.475-.324 3.75-.84 1.92-2.66 3.202-4.712 3.563.249.572.329 1.288.036 2.167-1 3-5 1-8 4.999-2.439-1.464-2.969-3.64-2.877-5.487-2.422-.412-3.8-.936-3.8-.936v-.002a3.715 3.715 0 0 1-2.323-3.443c0-.88.318-1.676.829-2.312l-.692-.26.001-.002c-2.33-.87-3.975-2.976-3.975-5.44 0-1.046.3-2.026.82-2.877C1.971 13.973 0 11.219 0 8c0-4.418 3.691-8 8.244-8 3.269 0 6.559.703 9.531 1.665C20.018.625 23.47 0 28.667 0A7.333 7.333 0 0 1 36 7.333a7.31 7.31 0 0 1-2.459 5.469" fill="#bf6952"/><path d="M17 20.5c0-2.485-1.567-4.5-3.5-4.5S10 18.015 10 20.5s1.567 4.5 3.5 4.5 3.5-2.015 3.5-4.5M27 20.5c0-2.485-1.566-4.5-3.5-4.5S20 18.015 20 20.5s1.566 4.5 3.5 4.5 3.5-2.015 3.5-4.5" fill="#f5f8fa"/><path d="M16 20.5c0-1.381-.895-2.5-2-2.5-1.104 0-2 1.119-2 2.5s.896 2.5 2 2.5c1.105 0 2-1.119 2-2.5M25 20.5c0-1.381-.895-2.5-2-2.5-1.104 0-2 1.119-2 2.5s.896 2.5 2 2.5c1.105 0 2-1.119 2-2.5M9.447 11.105c-.246.492.003.895.553.895h18c.55 0 .8-.403.552-.895C28.552 11.105 26 6 19 6s-9.553 5.105-9.553 5.105" fill="#292f33"/><path d="M19 10c-2.77 0-5.157-.922-6.292-2.256C14.2 6.789 16.253 6 19 6s4.801.789 6.292 1.744C24.157 9.078 21.771 10 19 10" fill="#f2abba"/></g></svg>