<svg xmlns="http://www.w3.org/2000/svg" viewBox="0 0 45 45"><path d="M27.5 0l-5 10.035-6.25-6.272v8.78l-12.5-2.508 10 10.035L0 27.595h15L7.5 42.648l15-10.036L36.078 45h.138L32.5 27.595h12.498L35 20.07 45 8.781l-14.998 3.763L27.499 0z" fill="#bb1a34"/><path d="M28.643 16.155l2.325-.584 6.532-1.639-4.226 4.77-1.649 1.863 1.986 1.493 3.657 2.753H29.87l.592 2.774 1.938 9.073-7.306-6.664-1.321-1.205-1.484.993-6.55 4.383 3.006-6.035L20.4 24.81h-8.447l4.7-2.574 2.682-1.465-2.159-2.167-3.805-3.818 4.027.808 2.732.549v-5.287l1.813 1.819 2.242 2.25 1.416-2.846 1.592-3.195" fill="#fcab40"/><path d="M26.89 17.876l.96-.24 2.696-.676-1.745 1.968-.681.77.82.615 1.51 1.137H27.397l.245 1.145.8 3.746-3.016-2.751-.545-.498-.614.41-2.704 1.81 1.241-2.491.683-1.371H20l1.94-1.061 1.107-.607-.891-.895-1.57-1.576 1.66.334 1.129.227V15.69l.748.75.925.928.585-1.173.657-1.319" fill="#f5f8fa"/></svg>