<svg xmlns="http://www.w3.org/2000/svg" viewBox="0 0 45 45"><defs><clipPath id="a"><path d="M0 36h36V0H0v36z"/></clipPath></defs><g clip-path="url(#a)" transform="matrix(1.25 0 0 -1.25 0 45)"><path d="M35 24a7 7 0 0 1-7 7 6.972 6.972 0 0 1-3.232-.794c-2.082 2.827-5.425 4.669-9.205 4.669-5.133 0-9.475-3.38-10.923-8.036A5.997 5.997 0 0 1 0 21a5.996 5.996 0 0 1 5.021-5.913C5.237 11.138 8.498 8 12.5 8c2.176 0 4.13.933 5.5 2.413A7.472 7.472 0 0 1 23.5 8c4.143 0 7.5 3.357 7.5 7.5a7.5 7.5 0 0 1-.289 2.045A7.001 7.001 0 0 1 35 24M7 5a3 3 0 1 0-6 0 3 3 0 0 0 6 0" fill="#bdddf4"/></g></svg>