<svg xmlns="http://www.w3.org/2000/svg" viewBox="0 0 45 45"><defs><clipPath id="a"><path d="M0 36h36V0H0v36z"/></clipPath></defs><g clip-path="url(#a)" transform="matrix(1.25 0 0 -1.25 0 45)"><path d="M29 24.94c0-6.44-5-7.44-5-13.44 0-3.098-3.123-3.36-5.5-3.36-2.053 0-6.586.78-6.586 3.362C11.914 17.5 7 18.5 7 24.94c0 6.03 5.285 10.92 11.083 10.92 5.8 0 10.917-4.89 10.917-10.92" fill="#ffd983"/><path d="M22.167 3.5c0-.828-2.234-2.5-4.167-2.5-1.933 0-4.167 1.672-4.167 2.5 0 .828 2.234.5 4.167.5 1.933 0 4.167.328 4.167-.5" fill="#ccd6dd"/><path d="M22.707 25.707a.999.999 0 0 1-1.414 0L18 22.414l-3.293 3.293a.999.999 0 1 1-1.414-1.414L17 20.586V10a1 1 0 1 1 2 0v10.586l3.707 3.707a.999.999 0 0 1 0 1.414" fill="#ffcc4d"/><path d="M24 5a2 2 0 0 0-2-2h-8a2 2 0 0 0-2 2v6h12V5z" fill="#99aab5"/><path d="M11.999 4a1 1 0 0 0-.164 1.986l12.001 2a.994.994 0 0 0 1.15-.822 1 1 0 0 0-.822-1.15l-11.999-2A.946.946 0 0 0 11.999 4M11.999 8a1 1 0 0 0-.164 1.986l12.001 2a.995.995 0 0 0 1.15-.822 1 1 0 0 0-.822-1.15l-11.999-2A.946.946 0 0 0 11.999 8" fill="#ccd6dd"/></g></svg>