<svg xmlns="http://www.w3.org/2000/svg" viewBox="0 0 45 45"><defs><clipPath id="a"><path d="M0 36h36V0H0v36z"/></clipPath></defs><g clip-path="url(#a)" transform="matrix(1.25 0 0 -1.25 0 45)"><path d="M28.865 28.866c7.361-7.359 9.35-17.304 4.443-22.209-4.907-4.907-14.85-2.918-22.21 4.441-.25.25-.478.51-.715.766l4.417 4.417c5.724-5.724 13.016-7.714 16.286-4.442 3.271 3.27 1.282 10.563-4.442 16.287l.023-.02a.213.213 0 0 0-.02.021c-6.543 6.542-15.493 8.2-19.99 3.701-2.175-2.174-2.897-5.392-2.338-8.872-.858 4.082-.15 7.866 2.338 10.352 4.906 4.907 14.85 2.918 22.208-4.442" fill="#fdd888"/><path d="M19.403 2c-.252 0-.503.077-.719.231l-5.076 3.641-5.076-3.64A1.23 1.23 0 0 0 6.64 3.604l1.893 6.111-5.03 3.545a1.234 1.234 0 0 0 .722 2.225l6.147.012 2.067 5.957a1.233 1.233 0 0 0 2.34 0l1.866-5.957 6.347-.012a1.232 1.232 0 0 0 .724-2.225l-5.032-3.545 1.894-6.11A1.232 1.232 0 0 0 19.403 2" fill="#ffac33"/></g></svg>