<svg xmlns="http://www.w3.org/2000/svg" viewBox="0 0 45 45"><defs><clipPath id="a"><path d="M0 36h36V0H0v36z"/></clipPath></defs><g clip-path="url(#a)" transform="matrix(1.25 0 0 -1.25 0 45)"><path d="M22.855 35.242l-14.98-6.266 12.537-9.733c2.633-2.224 6.378-2.937 9.77-1.518 4.826 2.018 7.096 7.577 5.072 12.413-2.021 4.838-7.574 7.122-12.398 5.104M12.893 17.318L2.05 25.716.137 12.47C-.397 9.615.64 6.568 3.095 4.668a8.001 8.001 0 0 1 9.798 12.65M28.232 10.303l-8.156 4.689-.033-9.222c-.088-2 .904-3.981 2.75-5.041a5.46 5.46 0 0 1 7.478 2.05c1.5 2.645.59 6.014-2.039 7.524" fill="#5dadec"/></g></svg>