<svg xmlns="http://www.w3.org/2000/svg" viewBox="0 0 45 45"><defs><clipPath id="a"><path d="M0 36h36V0H0v36z"/></clipPath></defs><g clip-path="url(#a)" transform="matrix(1.25 0 0 -1.25 0 45)"><path d="M12.43 14s-.717 3.641.298 10.874C14.128 24.419 15.542 24 16 24c1 0 4 1 4 2s-1 2-1 2l2 1c1 1 0 7-4 7-7 0-9.57-7-9.57-7l.007-.011H7.43s-6-10.989-6-20c.065 0-1-5 0-6s5-1 5-1C16.43-2 35 1 35 10c0 13-19.57 10-22.57 4" fill="#af7e57"/><path d="M19.494 3.748c-3.178 0-5.793 1.283-5.94 1.357a1.001 1.001 0 0 0 .892 1.79c.042-.02 4.24-2.06 7.956-.64 2.055.785 3.625 2.507 4.67 5.116a1 1 0 1 0 1.857-.742c-1.263-3.155-3.223-5.258-5.827-6.248-1.215-.462-2.45-.633-3.608-.633" fill="#90603e"/></g></svg>