<svg xmlns="http://www.w3.org/2000/svg" viewBox="0 0 45 45"><defs><clipPath id="a"><path d="M0 36h36V0H0v36z"/></clipPath></defs><g clip-path="url(#a)" transform="matrix(1.25 0 0 -1.25 0 45)"><path d="M15.632 1.339c-.799.597-1.497 1.484-2.035 2.592l-.228.47-.46-.25c-.975-.528-1.913-.858-2.744-.968l-.202 3.756-3.636-.968c-.157.854-.125 1.887.097 3.02l.102.527-.532.066c-1.242.154-2.305.526-3.103 1.08l1.521 2.917-2.988 1.524c.32.944.947 1.88 1.834 2.735l.377.362-.379.36c-.804.764-1.408 1.554-1.77 2.31l3.51 1.354-2.045 3.159c.741.402 1.694.686 2.79.83l.517.07-.09.514c-.217 1.21-.173 2.338.123 3.288l3.308-.523.524 3.307c.988-.012 2.08-.325 3.164-.907l.462-.247.226.473c.478 1.003 1.044 1.824 1.653 2.404L18 31.674l2.372 2.92c.61-.58 1.175-1.401 1.653-2.404l.226-.473.462.247c1.085.58 2.177.894 3.164.906l.523-3.308 3.31.525c.296-.951.34-2.078.124-3.288l-.092-.515.518-.07c1.095-.144 2.048-.43 2.79-.831l-2.047-3.155 3.51-1.355c-.36-.758-.965-1.548-1.769-2.311l-.379-.36.377-.363c.888-.854 1.516-1.793 1.835-2.736l-2.984-1.52 1.521-2.984c-.812-.574-1.87-.964-3.094-1.134l-.517-.072.095-.514c.202-1.09.226-2.083.074-2.91l-3.634.97-.204-3.756c-.83.11-1.768.44-2.742.968l-.459.249-.229-.47c-.539-1.108-1.237-1.994-2.036-2.591L18 3.707l-2.368-2.368z" fill="#fff"/><path d="M7.092 25.322c-.53 1.49-.698 2.97-.432 4.2l2.368-.375.987-.156.157.988.375 2.367c1.26-.127 2.612-.742 3.86-1.705.12.337.246.662.384.967-1.551 1.135-3.223 1.763-4.731 1.763-.123 0-.244-.004-.365-.012l-.511-3.224-3.224.51c-.6-1.487-.565-3.415.085-5.393.335.038.685.061 1.047.07M21.593 30.64c1.248.963 2.6 1.579 3.86 1.706l.376-2.368.157-.988.987.156 2.369.376c.266-1.23.098-2.71-.432-4.2.362-.01.71-.032 1.046-.07.652 1.979.686 3.907.085 5.394l-3.224-.512-.511 3.224a4.89 4.89 0 0 1-.365.012c-1.507 0-3.18-.627-4.731-1.762.139-.304.265-.63.383-.967M7.368 9h.035c.067 0 .156.604.259.947-.098-.004-.196-.046-.294-.046-1.496 0-2.826.303-3.83.89l1.089 2.128.453.887-.89.452-2.136 1.088c.508 1.151 1.515 2.249 2.818 3.142-.287.219-.56.442-.81.67-1.686-1.218-2.845-2.756-3.235-4.31l2.909-1.483-1.482-2.842C3.474 9.499 5.303 9 7.368 9M35.174 14.846c-.39 1.555-1.548 3.093-3.234 4.31-.25-.227-.523-.45-.81-.668 1.304-.893 2.31-1.993 2.817-3.145l-2.135-1.088-.891-.453.454-.892 1.089-2.136c-1.004-.587-2.332-.905-3.828-.905-.1 0-.2.01-.3.013.104-.344.193-.682.26-1.011l.04-.002c2.065 0 3.892.564 5.112 1.587l-1.482 2.909 2.908 1.48zM22.521 5.664c-.447-1.517-1.18-2.813-2.119-3.65l-1.695 1.693-.707.707-.708-.707-1.694-1.694c-.938.838-1.672 2.135-2.12 3.652a11.427 11.427 0 0 0-.885-.563c.636-1.98 1.74-3.559 3.1-4.41L18 3 20.308.692c1.359.851 2.464 2.428 3.1 4.41-.294.166-.59.357-.887.562" fill="#ea596e"/><path d="M20.308 35.308L18 32.468l-2.307 2.84c-1.99-1.533-3.421-4.993-3.647-9.112-1.616.43-3.192.636-4.632.636-2.11.001-3.93-.445-5.161-1.288l1.99-3.073-3.415-1.317c.842-2.366 3.69-4.797 7.539-6.283C6.126 11.406 5.25 7.764 5.96 5.355l3.537.942.197-3.655c2.51.071 5.703 2.028 8.306 5.23 2.603-3.202 5.796-5.159 8.306-5.23l.198 3.656 3.536-.944c.709 2.411-.166 6.05-2.405 9.517 3.849 1.485 6.696 3.917 7.538 6.283l-3.415 1.318 1.99 3.07c-1.233.845-3.052 1.29-5.164 1.29-1.438 0-3.012-.207-4.63-.636-.224 4.12-1.657 7.58-3.646 9.112m-.19-4.99c.426-1.147.749-2.597.84-4.285l.202-3.683 3.564.947c1.32.35 2.655.535 3.86.535.16 0 .319-.003.474-.01l-1.827-2.819 3.138-1.21c-.957-.76-2.237-1.514-3.814-2.123l-3.441-1.328 2-3.099c.919-1.42 1.509-2.782 1.839-3.96l-3.245.865-.181-3.357c-1.02.677-2.132 1.66-3.2 2.973l-2.326 2.862-2.328-2.862c-1.067-1.312-2.18-2.295-3.198-2.972l-.18 3.353-3.248-.864c.329 1.178.92 2.54 1.839 3.961l2.004 3.1-3.442 1.328c-1.577.61-2.856 1.363-3.815 2.121l3.135 1.21-1.827 2.822c.156.006.314.01.473.01 1.207 0 2.54-.186 3.862-.537l3.564-.947.202 3.683c.092 1.688.414 3.138.84 4.284L18 27.708l2.119 2.61" fill="#ea596e"/></g></svg>