<svg xmlns="http://www.w3.org/2000/svg" viewBox="0 0 45 45"><defs><clipPath id="a"><path d="M0 36h36V0H0v36z"/></clipPath></defs><path d="M32.93 14.767l-2.695-2.696L37.305 5 40 7.696l-7.07 7.071z" fill="#ccd6dd"/><g clip-path="url(#a)" transform="matrix(1.25 0 0 -1.25 0 45)"><path d="M28 14c0-7.731-6.269-14-14-14C6.268 0 0 6.269 0 14c0 7.732 6.268 14 14 14 7.731 0 14-6.268 14-14" fill="#292f33"/><path d="M24.656 19L19 24.657l5.656 5.657 5.656-5.657L24.656 19z" fill="#292f33"/><path d="M36 32a4 4 0 1 0-8 0 4 4 0 0 0 8 0" fill="#f18f26"/><path d="M34 32a2 2 0 1 0-4 0 2 2 0 0 0 4 0" fill="#fdcb58"/></g></svg>