<svg xmlns="http://www.w3.org/2000/svg" viewBox="0 0 45 45"><defs><clipPath id="a"><path d="M0 36h36V0H0v36z"/></clipPath></defs><g clip-path="url(#a)" transform="matrix(1.25 0 0 -1.25 0 45)"><path d="M2.638 12.179l-1.625 3.1 1.55.812c2.393 1.255 4.982 2.778 5.413 4.982.335 1.714-.611 3.903-2.812 6.505l-1.13 1.336 2.672 2.26 1.13-1.336c2.962-3.502 4.132-6.59 3.575-9.437-.79-4.036-4.975-6.231-7.223-7.41l-1.55-.812zM20.93 1.053l-.812 1.55c-1.255 2.393-2.778 4.982-4.982 5.413-1.713.336-3.903-.611-6.506-2.812l-1.336-1.13-2.26 2.672 1.336 1.13c3.502 2.962 6.585 4.134 9.437 3.574 4.037-.788 6.23-4.973 7.41-7.222l.813-1.55-3.1-1.625zM29.46 5.075l-1.13 1.336c-2.961 3.502-4.13 6.59-3.573 9.437.788 4.037 4.974 6.231 7.223 7.41l1.549.812 1.625-3.099-1.55-.813c-2.393-1.255-4.982-2.778-5.413-4.98-.335-1.716.612-3.905 2.812-6.507l1.13-1.336-2.672-2.26zM21.753 24.663c-.471 0-.934.045-1.393.134-4.036.79-6.231 4.975-7.41 7.223l-.812 1.55 3.099 1.625.813-1.55c1.255-2.393 2.778-4.982 4.98-5.413 1.712-.334 3.904.611 6.507 2.812l1.336 1.13 2.26-2.672-1.336-1.13c-2.94-2.486-5.586-3.709-8.044-3.709" fill="#be1931"/></g></svg>