<svg xmlns="http://www.w3.org/2000/svg" viewBox="0 0 45 45"><defs><clipPath id="a"><path d="M0 36h36V0H0v36z"/></clipPath></defs><g clip-path="url(#a)" transform="matrix(1.25 0 0 -1.25 0 45)"><path d="M18 35C8.059 35 0 28.732 0 21c0-4.368 2.574-8.268 6.604-10.835C6.08 7.856 4.859 4.431 2 1c5.758.96 9.439 3.761 11.716 6.416A22.856 22.856 0 0 1 18 7c9.941 0 18 6.268 18 14s-8.059 14-18 14" fill="#bdddf4"/><path d="M20 21a2 2 0 1 0-4 0 2 2 0 0 0 4 0M28 21a2 2 0 1 0-4 0 2 2 0 0 0 4 0M12 21a2 2 0 1 0-4 0 2 2 0 0 0 4 0" fill="#2a6797"/></g></svg>