<svg xmlns="http://www.w3.org/2000/svg" viewBox="0 0 45 45"><defs><clipPath id="a"><path d="M0 36h36V0H0v36z"/></clipPath></defs><g clip-path="url(#a)" transform="matrix(1.25 0 0 -1.25 0 45)"><path d="M36 21a8 8 0 0 1-7.221 7.96C27.884 32.987 24.297 36 20 36c-4.971 0-9-3.561-9-8.531 0-1.157.25-2.906 1.121-3.785-3.262-.183-8.027-.284-12.121.301 0 0 4.816-3.83 15.357-3.985-.151-.313-.253-1.43-.306-1.786-.248-.003-.595-.009-1.051-.009C6 18.205 0 19 0 19s3-3.234 15.406-4.106C15 14.766 15 13 15 13c-8 0-15 1-15 1 3.362-2.802 6.724-4.033 9.03-4.574C9.019 9.284 9 9.145 9 9c0-3.313 2.686-5 6-5 .487 0 .958.064 1.412.174A8.983 8.983 0 0 1 24 0a9 9 0 0 1 9 9 8.945 8.945 0 0 1-1.427 4.851A7.99 7.99 0 0 1 36 21" fill="#bdddf4"/></g></svg>