<svg xmlns="http://www.w3.org/2000/svg" viewBox="0 0 45 45"><defs><clipPath id="a"><path d="M0 36h36V0H0v36z"/></clipPath></defs><g clip-path="url(#a)" transform="matrix(1.25 0 0 -1.25 0 45)"><path d="M2 30c-2 0-2-2-2-2V8s0-2 2-2h32c2 0 2 2 2 2v20s0 2-2 2H2z" fill="#c6e4b5"/><path d="M23 5.937H13v24.062h10V5.937z" fill="#9aaab4"/><path d="M11.527 9.447c0-.658-1.474-1.447-3.3-1.447-2.42 0-3.878 1.68-4.362 3.742H2.571a.57.57 0 1 0 0 1.14h1.13c-.009.135-.03.27-.03.405 0 .3.026.597.064.89H2.571a.57.57 0 1 0 0 1.14h1.416c.593 1.835 2.03 3.257 4.313 3.257 1.84 0 3.008-.993 3.008-1.52 0-.336-.204-.612-.526-.612-.584 0-.876 1.023-2.482 1.023-1.51 0-2.428-.943-2.89-2.148h3.326a.57.57 0 0 0 0-1.14H5.114a6.218 6.218 0 0 1-.07-.89c0-.134.014-.27.024-.405h3.668a.57.57 0 0 0 0-1.14H5.25c.39-1.43 1.345-2.63 2.977-2.63 1.564 0 2.25.933 2.79.933.307 0 .511-.234.511-.598" fill="#67757f"/></g></svg>