<svg xmlns="http://www.w3.org/2000/svg" viewBox="0 0 45 45"><defs><clipPath id="a"><path d="M0 36h36V0H0v36z"/></clipPath></defs><g clip-path="url(#a)" transform="matrix(1.25 0 0 -1.25 0 45)"><path d="M12 30a2 2 0 0 0 2 2h8a2 2 0 0 0 2-2v-2H12v2zm20-2h-6v4a4 4 0 0 1-4 4h-8a4 4 0 0 1-4-4v-4H4a4 4 0 0 1-4-4V4a4 4 0 0 1 4-4h28a4 4 0 0 1 4 4v20a4 4 0 0 1-4 4" fill="#9a4e1c"/><path d="M36 16a4 4 0 0 0-4-4H4a4 4 0 0 0-4 4v8a4 4 0 0 0 4 4h28a4 4 0 0 0 4-4v-8z" fill="#662113"/><path d="M36 18a4 4 0 0 0-4-4H4a4 4 0 0 0-4 4v6a4 4 0 0 0 4 4h28a4 4 0 0 0 4-4v-6z" fill="#9a4e1c"/><path d="M22 18a2 2 0 0 0-2-2h-4a2 2 0 0 0 0 4h4a2 2 0 0 0 2-2" fill="#ccd6dd"/></g></svg>