<svg xmlns="http://www.w3.org/2000/svg" viewBox="0 0 45 45"><defs><clipPath id="a"><path d="M0 36h36V0H0v36z"/></clipPath></defs><g clip-path="url(#a)" transform="matrix(1.25 0 0 -1.25 0 45)"><path d="M31.898 12.062C31.3 18.68 28 22 28 22l-6 8h-8l-6-8s-1.419-1.433-2.568-4.276C3.444 17.065 2 15.21 2 13c0-1.45.625-2.743 1.61-3.656A4.942 4.942 0 0 1 3 7c0-1.96 1.136-3.636 2.775-4.457C7.058.623 8.772 0 10 0h16c1.378 0 3.373.779 4.677 3.309C32.61 4 34 5.83 34 8a4.986 4.986 0 0 1-2.102 4.062M18 30c.55 0 1.058.158 1.5.416A2.968 2.968 0 0 1 21 30c1.657 0 4 2.344 4 4 0 0 0 2-2 2-.788 0-1-1-2-1s-1 1-3 1-2-1-3-1-1.211 1-2 1c-2 0-2-2-2-2 0-1.656 2.344-4 4-4 .549 0 1.057.158 1.5.416A2.968 2.968 0 0 1 18 30" fill="#fdd888"/><path d="M24 30a1 1 0 0 0-1-1H13a1 1 0 0 0 0 2h10a1 1 0 0 0 1-1" fill="#bf6952"/><path d="M23.901 11.458c0 4.477-8.58 4.185-8.58 6.886 0 1.308 1.301 1.947 2.811 1.947 2.538 0 2.99-1.568 4.14-1.568.813 0 1.204.493 1.204 1.046 0 1.283-2.024 2.255-3.965 2.592V23.6c0 .773-.65 1.4-1.454 1.4-.805 0-1.456-.627-1.456-1.4v-1.284c-2.117-.463-3.937-1.875-3.937-4.176 0-4.299 8.58-4.124 8.58-7.145 0-1.047-1.179-2.093-3.112-2.093-2.9 0-3.867 1.889-5.045 1.889-.574 0-1.087-.464-1.087-1.164 0-1.113 1.937-2.451 4.602-2.824V5.395c0-.773.651-1.401 1.455-1.401s1.455.628 1.455 1.401v1.398c0 .017-.007.03-.008.045 2.397.431 4.397 1.933 4.397 4.62" fill="#67757f"/></g></svg>