<svg xmlns="http://www.w3.org/2000/svg" viewBox="0 0 45 45"><defs><clipPath id="a"><path d="M0 36h36V0H0v36z"/></clipPath></defs><g clip-path="url(#a)" transform="matrix(1.25 0 0 -1.25 0 45)"><path d="M4 31a4 4 0 0 1-4-4V9a4 4 0 0 1 4-4h28a4 4 0 0 1 4 4v18s0 4-4 4H4z" fill="#ffac33"/><path d="M36 21H0v5h36v-5z" fill="#292f33"/><path d="M32 11H4v6h28v-6z" fill="#f4f7f9"/><path d="M19 12c-1.703 0-2.341 1.21-2.469 1.801-.547-.041-1.08-.303-1.804-.764C13.961 12.551 13.094 12 12 12c-1.197 0-1.924.675-2 2-.003.056.038.188.021.188-1.858 0-3.202-1.761-3.215-1.78a.999.999 0 0 0-1.397-.215 1 1 0 0 0-.215 1.399C5.271 13.697 7.11 16 10 16c1.937 0 2.048-1.375 2.078-1.888l.006-.109c.486.034.991.354 1.57.723.961.61 2.154 1.371 3.75.962.871-.223 1.007-1.032 1.059-1.336.013-.077.032-.191.049-.226.008 0 .146-.091.577-.13.82-.075 1.722.279 2.675.653.988.388 2.01.789 3.111.789 3.389 0 4.767-1.635 4.913-1.822a1 1 0 0 0-1.576-1.232c-.024.027-.929 1.053-3.337 1.053-.723 0-1.528-.315-2.381-.649C21.487 12.393 20.062 12 19 12" fill="#8899a6"/></g></svg>