<svg xmlns="http://www.w3.org/2000/svg" viewBox="0 0 45 45"><defs><clipPath id="a"><path d="M0 36h36V0H0v36z"/></clipPath><clipPath id="b"><path d="M3.777 18c0-7.853 6.368-14.223 14.223-14.223 7.853 0 14.223 6.37 14.223 14.223 0 7.855-6.37 14.223-14.223 14.223-7.855 0-14.223-6.368-14.223-14.223m9.988 0a4.236 4.236 0 0 0 8.471 0 4.236 4.236 0 0 0-8.471 0"/></clipPath><clipPath id="c"><path d="M0 36h36V0H0v36z"/></clipPath></defs><g clip-path="url(#a)" transform="matrix(1.25 0 0 -1.25 0 45)"><path d="M36 4a4 4 0 0 0-4-4H4a4 4 0 0 0-4 4v28a4 4 0 0 0 4 4h28a4 4 0 0 0 4-4V4z" fill="#292f33"/><path d="M18 20.667a2.667 2.667 0 1 1 0-5.334 2.667 2.667 0 0 1 0 5.334M34 18c0-8.836-7.164-16-16-16S2 9.164 2 18s7.164 16 16 16 16-7.164 16-16" fill="#ffd983"/></g><g clip-path="url(#b)" transform="matrix(1.25 0 0 -1.25 0 45)"><path d="M18 18L2 19.777V34h14.223L18 18zM18 18l16-1.777V2H19.777L18 18z" fill="#ffac33"/><path d="M18 18L19.889 1.11 34 2.001 18 18zM18 18L2 34l14.222.889L18 17.998z" fill="#ffe8b6"/></g><g clip-path="url(#c)" transform="matrix(1.25 0 0 -1.25 0 45)"><path d="M36 15a2 2 0 0 0-2-2H23a2 2 0 0 0-2 2v6a2 2 0 0 0 2 2h11a2 2 0 0 0 2-2v-6z" fill="#f5f8fa"/></g></svg>