<svg xmlns="http://www.w3.org/2000/svg" viewBox="0 0 45 45"><defs><clipPath id="a"><path d="M0 36h36V0H0v36z"/></clipPath></defs><g clip-path="url(#a)" transform="matrix(1.25 0 0 -1.25 0 45)"><path d="M2 30c-2 0-2-2-2-2V8s0-2 2-2h32c2 0 2 2 2 2v20s0 2-2 2H2z" fill="#fdd888"/><path d="M23 5.937H13v24.062h10V5.937z" fill="#9aaab4"/><path d="M5.743 17.857H3.368c-.397 0-.709.19-.709.57 0 .383.312.574.71.574h1.663l-2.772 4.28c-.173.26-.26.45-.26.691 0 .33.33.573.607.573.278 0 .554-.122.797-.485l3.101-4.662 3.102 4.662c.243.363.52.485.798.485.276 0 .605-.243.605-.573 0-.242-.086-.432-.26-.69l-2.772-4.28h1.663c.4 0 .711-.192.711-.575 0-.38-.312-.57-.71-.57H7.267v-1.23h2.373c.4 0 .711-.192.711-.573 0-.38-.312-.57-.71-.57H7.267v-2.669c0-.502-.312-.815-.763-.815-.45 0-.762.313-.762.815v2.668H3.368c-.397 0-.709.19-.709.571 0 .381.312.573.71.573h2.374v1.23z" fill="#67757f"/></g></svg>