<svg xmlns="http://www.w3.org/2000/svg" viewBox="0 0 45 45"><defs><clipPath id="a"><path d="M0 36h36V0H0v36z"/></clipPath></defs><g clip-path="url(#a)" transform="matrix(1.25 0 0 -1.25 0 45)"><path d="M2 30c-2 0-2-2-2-2V8s0-2 2-2h32c2 0 2 2 2 2v20s0 2-2 2H2z" fill="#a7d28b"/><path d="M23 5.937H13v24.062h10V5.937z" fill="#9aaab4"/><path d="M11 15.969c0 2.979-5.493 2.785-5.493 4.584 0 .87.833 1.296 1.8 1.296 1.624 0 1.914-1.045 2.65-1.045.521 0 .772.328.772.696 0 .856-1.296 1.502-2.539 1.726v.825a.932.932 0 1 1-1.864 0v-.853c-1.354-.31-2.52-1.25-2.52-2.781 0-2.862 5.492-2.746 5.492-4.758 0-.695-.754-1.39-1.991-1.39-1.857 0-2.476 1.257-3.23 1.257-.368 0-.696-.31-.696-.776 0-.741 1.24-1.631 2.947-1.881l-.002-.004v-.933a.933.933 0 0 1 1.865 0v.933c0 .01-.005.019-.006.029C9.719 13.18 11 14.18 11 15.969" fill="#67757f"/></g></svg>