<svg xmlns="http://www.w3.org/2000/svg" viewBox="0 0 45 45"><defs><clipPath id="a"><path d="M0 36h36V0H0v36z"/></clipPath></defs><g clip-path="url(#a)" transform="matrix(1.25 0 0 -1.25 0 45)"><path d="M2 30c-2 0-2-2-2-2V8s0-2 2-2h32c2 0 2 2 2 2v20s0 2-2 2H2z" fill="#cbb8e9"/><path d="M23 5.937H13v24.062h10V5.937z" fill="#9aaab4"/><path d="M8.02 22.99c.439 0 .755-.227.755-.72 0-.491-.316-.72-.755-.72H6.105c.053-.298.123-.631.123-1.16 0-.824-.544-2.088-1.51-2.95h5.919c.44 0 .756-.227.756-.72 0-.491-.316-.72-.756-.72H3.611c-.491 0-.93.123-.93.739 0 .753 2.002 1.579 2.002 3.67 0 .316-.018.755-.123 1.142H2.786c-.439 0-.755.228-.755.72s.316.72.755.72h1.352c-.421.755-.86 1.58-.86 2.51 0 1.846 1.809 3.11 3.793 3.11 2.091 0 4.022-1.721 4.022-3.11 0-.473-.298-.754-.737-.754-1.176 0-.562 2.424-3.267 2.424-1.142 0-2.266-.615-2.266-1.774 0-.931.527-1.633.931-2.406H8.02z" fill="#67757f"/></g></svg>