<svg xmlns="http://www.w3.org/2000/svg" viewBox="0 0 45 45"><defs><clipPath id="a"><path d="M0 36h36V0H0v36z"/></clipPath><clipPath id="b"><path d="M2 18C2 9.164 9.164 2 18 2s16 7.164 16 16-7.164 16-16 16S2 26.836 2 18m11.235 0a4.766 4.766 0 0 0 9.531 0 4.766 4.766 0 0 0-9.531 0"/></clipPath></defs><g clip-path="url(#a)" transform="matrix(1.25 0 0 -1.25 0 45)"><path d="M18 21a3 3 0 1 1 0-6 3 3 0 0 1 0 6m18-3c0-9.941-8.059-18-18-18S0 8.059 0 18s8.059 18 18 18 18-8.059 18-18" fill="#8899a6"/></g><g clip-path="url(#b)" transform="matrix(1.25 0 0 -1.25 0 45)"><path d="M18 18L0 20v16h16l2-18zM18 18l18-2V0H20l-2 18z" fill="#ccd6dd"/><path d="M18 18l2.124-19L36 0 18 18zM18 18L0 36l16 1 2-19z" fill="#f5f8fa"/></g></svg>