<svg xmlns="http://www.w3.org/2000/svg" viewBox="0 0 45 45"><defs><clipPath id="a"><path d="M0 36h36V0H0v36z"/></clipPath></defs><g clip-path="url(#a)" transform="matrix(1.25 0 0 -1.25 0 45)"><path d="M11 9a2 2 0 0 0-4 0v11a2 2 0 0 0 4 0V9zM31 9a2 2 0 0 0-4 0v11a2 2 0 0 0 4 0V9z" fill="#9aaab4"/><path d="M29 2a2 2 0 0 0-4 0v6a2 2 0 0 0 4 0V2zM13 2a2 2 0 0 0-4 0v6a2 2 0 0 0 4 0V2z" fill="#67757f"/><path d="M29 18a4 4 0 0 0-4-4H13a4 4 0 0 0-4 4v14a4 4 0 0 0 4 4h12a4 4 0 0 0 4-4V18z" fill="#4289c1"/><path d="M23 28h-8v8h8v-8z" fill="#e1e8ed"/><path d="M11 21a2 2 0 0 0-2-2H7a2 2 0 0 0 0 4h2a2 2 0 0 0 2-2M33 21a2 2 0 0 0-2-2h-2a2 2 0 0 0 0 4h2a2 2 0 0 0 2-2" fill="#ccd6dd"/><path d="M29 13a3 3 0 0 0-3-3H12a3 3 0 1 0 0 6h14a3 3 0 0 0 3-3" fill="#5dadec"/><path d="M29 7H9v6h20V7z" fill="#2a6797"/></g></svg>