<svg xmlns="http://www.w3.org/2000/svg" viewBox="0 0 45 45"><defs><clipPath id="a"><path d="M0 36h36V0H0v36z"/></clipPath></defs><g clip-path="url(#a)" transform="matrix(1.25 0 0 -1.25 0 45)"><path d="M36.042 4a4 4 0 0 0-4-4h-28a4 4 0 0 0-4 4v28a4 4 0 0 0 4 4h28a4 4 0 0 0 4-4V4z" fill="#77b255"/><path d="M9.896 21.125H5.791c-.687 0-1.226.327-1.226.985 0 .661.54.991 1.226.991h2.876l-4.792 7.398c-.297.449-.449.776-.449 1.195 0 .571.571.991 1.05.991.48 0 .957-.21 1.377-.839l5.36-8.058 5.364 8.058c.418.629.896.839 1.377.839.477 0 1.046-.42 1.046-.991 0-.419-.149-.746-.449-1.195l-4.792-7.398h2.875c.69 0 1.23-.33 1.23-.991 0-.658-.54-.985-1.23-.985h-4.1v-2.126h4.1c.69 0 1.23-.332 1.23-.99 0-.658-.54-.988-1.23-.988h-4.1V12.41c0-.868-.54-1.41-1.32-1.41-.779 0-1.318.542-1.318 1.41v4.611H5.791c-.687 0-1.226.33-1.226.988 0 .658.54.99 1.226.99h4.105v2.126z" fill="#fff"/><path d="M4.002 2a2 2 0 0 0-1.031 3.715l5 3c.501.3 1.109.366 1.661.182l4.678-1.559 3.129 3.911a2 2 0 0 0 2.304.608l3.03-1.212 2.33 6.987c.098.295.263.563.483.782l5 5a2 2 0 1 0 2.828-2.828l-4.666-4.666-2.85-8.553a2 2 0 0 0-2.641-1.224l-3.622 1.449-3.073-3.841a2.003 2.003 0 0 0-2.194-.648L9.24 4.812 5.029 2.285A1.993 1.993 0 0 0 4.002 2" fill="#fff"/></g></svg>