<svg xmlns="http://www.w3.org/2000/svg" viewBox="0 0 45 45"><defs><clipPath id="a"><path d="M0 36h36V0H0v36z"/></clipPath></defs><g clip-path="url(#a)" transform="matrix(1.25 0 0 -1.25 0 45)"><path d="M32 23H4a4 4 0 0 1-4-4v-2a4 4 0 0 1 4-4V4a4 4 0 0 1 4-4h20a4 4 0 0 1 4 4v9a4 4 0 0 1 4 4v2a4 4 0 0 1-4 4" fill="#292f33"/><path d="M30 21a2 2 0 0 0-2-2H8a2 2 0 0 0-2 2v13a2 2 0 0 0 2 2h20a2 2 0 0 0 2-2V21z" fill="#ccd6dd"/><path d="M18 23a1 1 0 0 0-1-1H9a1 1 0 0 0-1 1v10a1 1 0 0 0 1 1h8a1 1 0 0 0 1-1V23z" fill="#55acee"/><path d="M30 4a2 2 0 0 0-2-2H8a2 2 0 0 0-2 2v11a2 2 0 0 0 2 2h20a2 2 0 0 0 2-2V4z" fill="#ccd6dd"/><path d="M28 32a1 1 0 0 0-1-1h-6a1 1 0 1 0 0 2h6a1 1 0 0 0 1-1M28 28a1 1 0 0 0-1-1h-6a1 1 0 1 0 0 2h6a1 1 0 0 0 1-1M28 24a1 1 0 0 0-1-1h-6a1 1 0 1 0 0 2h6a1 1 0 0 0 1-1" fill="#66757f"/><path d="M14 16a1 1 0 1 0-2 0v4a1 1 0 1 0 2 0v-4zM24 16a1 1 0 1 0-2 0v4a1 1 0 1 0 2 0v-4z" fill="#99aab5"/></g></svg>