<svg xmlns="http://www.w3.org/2000/svg" viewBox="0 0 45 45"><defs><clipPath id="a"><path d="M0 36h36V0H0v36z"/></clipPath></defs><g clip-path="url(#a)" transform="matrix(1.25 0 0 -1.25 0 45)"><path d="M30.02 1.736a3.998 3.998 0 0 0-5.656 0L1.736 24.363a4 4 0 0 0 0 5.658l4.242 4.242a4.002 4.002 0 0 0 5.659 0l22.625-22.628a3.998 3.998 0 0 0 .001-5.656L30.02 1.736z" fill="#ffcc4d"/><path d="M9.515 29.314A1 1 0 0 0 8.1 30.728l3.536 3.536c.485-.487.927-.929 1.414-1.415l-3.536-3.535zM15.171 27.9a.999.999 0 1 0-1.414 1.413l1.415 1.415c.485-.487.927-.929 1.414-1.415L15.171 27.9zM16.586 22.243a1 1 0 1 0-1.415 1.414l3.536 3.536 1.414-1.415-3.535-3.535zM22.242 20.829a.998.998 0 0 0-1.413 0 .998.998 0 0 0 0 1.414l1.414 1.415c.485-.487.928-.93 1.414-1.415l-1.415-1.414zM23.657 15.172a1 1 0 1 0-1.415 1.414l3.536 3.535c.486-.486.93-.928 1.414-1.414l-3.535-3.535zM30.727 8.1a.998.998 0 0 0-1.413 0 .998.998 0 0 0 0 1.415l3.535 3.535 1.415-1.414L30.727 8.1zM29.314 13.758a1 1 0 1 0-1.415 1.413l1.415 1.414 1.413-1.413-1.414-1.414z" fill="#292f33"/></g></svg>