<svg xmlns="http://www.w3.org/2000/svg" viewBox="0 0 45 45"><defs><clipPath id="a"><path d="M0 36h36V0H0v36z"/></clipPath></defs><g clip-path="url(#a)" transform="matrix(1.25 0 0 -1.25 0 45)"><path d="M32 2a2 2 0 0 0-2-2H6a2 2 0 0 0-2 2v27a2 2 0 0 0 2 2h24a2 2 0 0 0 2-2V2z" fill="#c1694f"/><path d="M29 4a1 1 0 0 0-1-1H8a1 1 0 0 0-1 1v23a1 1 0 0 0 1 1h20a1 1 0 0 0 1-1V4z" fill="#fff"/><path d="M25 33h-4a3 3 0 1 1-6 0h-4a2 2 0 0 1-2-2v-5h18v5a2 2 0 0 1-2 2" fill="#ccd6dd"/><path d="M20 33a2 2 0 1 0-4 0 2 2 0 0 0 4 0" fill="#292f33"/><path d="M20 22a1 1 0 0 0-1-1h-9a1 1 0 0 0 0 2h9a1 1 0 0 0 1-1M27 18a1 1 0 0 0-1-1H10a1 1 0 0 0 0 2h16a1 1 0 0 0 1-1M27 14a1 1 0 0 0-1-1H10a1 1 0 1 0 0 2h16a1 1 0 0 0 1-1M27 10a1 1 0 0 0-1-1H10a1 1 0 1 0 0 2h16a1 1 0 0 0 1-1M27 6a1 1 0 0 0-1-1h-9a1 1 0 1 0 0 2h9a1 1 0 0 0 1-1" fill="#99aab5"/></g></svg>