<svg xmlns="http://www.w3.org/2000/svg" viewBox="0 0 45 45"><defs><clipPath id="a"><path d="M0 36h36V0H0v36z"/></clipPath></defs><g clip-path="url(#a)" transform="matrix(1.25 0 0 -1.25 0 45)"><path d="M28 4a4 4 0 0 0-4-4H4C1.791 0 0 1.875 0 8v24a4 4 0 0 0 4 4h20a4 4 0 0 0 4-4V4z" fill="#ccd6dd"/><path d="M31 0H4c4 0 4 8 4 8a4 4 0 0 0 4 4h20c2.209 0 4-2 4-4 0 0 .25-8-5-8" fill="#e1e8ed"/><path d="M24 29a1 1 0 0 0-1-1H5a1 1 0 0 0 0 2h18a1 1 0 0 0 1-1M24 25a1 1 0 0 0-1-1H5a1 1 0 0 0 0 2h18a1 1 0 0 0 1-1M24 21a1 1 0 0 0-1-1H5a1 1 0 0 0 0 2h18a1 1 0 0 0 1-1M24 17a1 1 0 0 0-1-1H5a1 1 0 1 0 0 2h18a1 1 0 0 0 1-1" fill="#99aab5"/></g></svg>