<svg xmlns="http://www.w3.org/2000/svg" viewBox="0 0 45 45"><defs><clipPath id="a"><path d="M0 36h36V0H0v36z"/></clipPath></defs><g clip-path="url(#a)" transform="matrix(1.25 0 0 -1.25 0 45)"><path d="M32.415 26.414l-9 8.999a2.001 2.001 0 0 1-2.829-2.827l-3.859-3.86 9-9 3.859 3.86a2 2 0 0 1 2.829 2.828" fill="#e1e8ed"/><path d="M22 36H7a4 4 0 0 1-4-4V4a4 4 0 0 1 4-4h22a4 4 0 0 1 4 4v21h-9c-1 0-2 1-2 2v9z" fill="#ccd6dd"/><path d="M22 36h-2v-9a4 4 0 0 1 4-4l9 .001V25h-9c-1 0-2 1-2 2v9zM17 28a1 1 0 0 0-1-1H8a1 1 0 0 0 0 2h8a1 1 0 0 0 1-1M17 24a1 1 0 0 0-1-1H8a1 1 0 0 0 0 2h8a1 1 0 0 0 1-1M29 20a1 1 0 0 0-1-1H8a1 1 0 0 0 0 2h20a1 1 0 0 0 1-1M29 16a1 1 0 0 0-1-1H8a1 1 0 1 0 0 2h20a1 1 0 0 0 1-1M29 12a1 1 0 0 0-1-1H8a1 1 0 1 0 0 2h20a1 1 0 0 0 1-1M29 8a1 1 0 0 0-1-1H8a1 1 0 1 0 0 2h20a1 1 0 0 0 1-1" fill="#99aab5"/></g></svg>