<svg xmlns="http://www.w3.org/2000/svg" viewBox="0 0 45 45"><defs><clipPath id="a"><path d="M0 36h36V0H0v36z"/></clipPath></defs><path d="M29.564 29.121L15.877 15.435 27.61 5.659l11.73 11.73-9.776 11.732z" fill="#be1931"/><g clip-path="url(#a)" transform="matrix(1.25 0 0 -1.25 0 45)"><path d="M34.6 22.088a4.42 4.42 0 0 0-6.255 0l-6.257 6.256a4.426 4.426 0 0 0 6.257 6.258l6.255-6.258a4.423 4.423 0 0 0 0-6.256" fill="#dd2e44"/><path d="M14 18.177S-.593.971.188.187C.97-.596 18.177 14 18.177 14L14 18.177z" fill="#99aab5"/><path d="M25.215 8.009a4.423 4.423 0 0 0-6.258 0L8.009 18.959a4.425 4.425 0 0 0 6.258 6.257l10.948-10.95a4.423 4.423 0 0 0 0-6.257" fill="#dd2e44"/></g></svg>