<svg xmlns="http://www.w3.org/2000/svg" viewBox="0 0 45 45"><defs><clipPath id="a"><path d="M0 36h36V0H0v36z"/></clipPath></defs><g clip-path="url(#a)" transform="matrix(1.25 0 0 -1.25 0 45)"><path d="M35 4a4 4 0 0 0-4-4H5a4 4 0 0 0-4 4v24a4 4 0 0 0 4 4h26a4 4 0 0 0 4-4V4z" fill="#292f33"/><path d="M33 4a2 2 0 0 0-2-2H5a2 2 0 0 0-2 2v20a2 2 0 0 0 2 2h26a2 2 0 0 0 2-2V4z" fill="#e1e8ed"/><path d="M33 20H3v8a2 2 0 0 0 2 2h26a2 2 0 0 0 2-2v-8z" fill="#dd2e44"/><path d="M11 29a1 1 0 0 0-2 0v6a1 1 0 0 0 2 0v-6zM27 29a1 1 0 1 0-2 0v6a1 1 0 1 0 2 0v-6z" fill="#99aab5"/><path d="M8.299 26.708c0 .393.31.704.704.704h.156a.722.722 0 0 0 .639-.365l1.7-2.77 1.71 2.778a.688.688 0 0 0 .63.357h.156a.699.699 0 0 0 .704-.704v-5.082a.699.699 0 1 0-1.4 0v3.19l-1.233-1.901c-.146-.22-.33-.357-.585-.357-.256 0-.44.137-.585.357l-1.216 1.874v-3.181a.687.687 0 0 0-.694-.686.68.68 0 0 0-.686.686v5.1zM19.382 23.655l-.886 2.112-.887-2.112h1.773zm-3.958-1.773l2.231 5.036c.155.348.438.558.822.558h.082c.384 0 .66-.21.814-.558l2.23-5.036a.684.684 0 0 0 .073-.284.667.667 0 0 0-.667-.676c-.329 0-.548.192-.676.484l-.43 1.006h-2.815l-.448-1.051a.693.693 0 0 0-.649-.439.647.647 0 0 0-.649.658.76.76 0 0 0 .082.302M25.164 24.267c.685 0 1.08.366 1.08.905v.02c0 .602-.422.913-1.108.913h-1.399v-1.838h1.427zm-2.834 2.404c0 .393.311.704.704.704h2.221c.814 0 1.444-.229 1.864-.649.357-.357.55-.859.55-1.462v-.019c0-1.005-.503-1.627-1.28-1.947l.977-1.188c.138-.174.23-.32.23-.539 0-.393-.33-.649-.668-.649-.32 0-.53.155-.695.365l-1.37 1.737h-1.126v-1.398a.698.698 0 0 0-.703-.704.699.699 0 0 0-.704.704v5.045z" fill="#fff"/><path d="M23.477 15.624h-.45c-.976 0-1.383.658-1.383 1.35 0 .711.51 1.348 1.383 1.348h1.813c.874 0 1.362-.63 1.362-1.443V5.307c0-1.016-.5-1.585-1.376-1.585-.874 0-1.349.57-1.349 1.585v10.317zM10.086 6.801l4.086 3.347c1.786 1.457 2.484 2.258 2.484 3.45 0 1.21-.801 1.868-1.93 1.868-.903 0-1.54-.39-2.34-1.253a1.444 1.444 0 0 0-1.068-.452c-.801 0-1.437.637-1.437 1.437 0 .35.144.72.37.986 1.149 1.334 2.504 2.115 4.68 2.115 2.978 0 4.948-1.746 4.948-4.435v-.042c0-2.4-1.231-3.592-3.777-5.563L13.76 6.452h5.01c.76 0 1.376-.616 1.376-1.375 0-.76-.616-1.355-1.376-1.355h-7.802c-.986 0-1.704.554-1.704 1.498 0 .616.287 1.15.82 1.581" fill="#66757f"/></g></svg>