<svg xmlns="http://www.w3.org/2000/svg" viewBox="0 0 45 45"><defs><clipPath id="a"><path d="M0 36h36V0H0v36z"/></clipPath></defs><g clip-path="url(#a)" transform="matrix(1.25 0 0 -1.25 0 45)"><path d="M36 4a4 4 0 0 0-4-4H4a4 4 0 0 0-4 4v23a4 4 0 0 0 4 4h28a4 4 0 0 0 4-4V4z" fill="#e0e7ec"/><path d="M34 36h-3.277c.172-.295.277-.634.277-1a2 2 0 0 0-4 0c0 .366.105.705.277 1H8.723c.172-.295.277-.634.277-1a2 2 0 0 0-4 0c0 .366.105.705.277 1H2a2 2 0 0 1-2-2V23h36v11a2 2 0 0 1-2 2" fill="#dd2f45"/><path d="M23.688 17h-.5c-1.085 0-1.538.731-1.538 1.5 0 .792.566 1.5 1.538 1.5h2.015c.972 0 1.515-.701 1.515-1.605V5.53c0-1.13-.558-1.762-1.53-1.762s-1.5.632-1.5 1.762V17z" fill="#66757f"/><path d="M32 26a1 1 0 1 1 2 0 1 1 0 0 1-2 0M32 29a1 1 0 1 1 2 0 1 1 0 0 1-2 0M29 26a1 1 0 1 1 2 0 1 1 0 0 1-2 0M29 29a1 1 0 1 1 2 0 1 1 0 0 1-2 0M26 26a1 1 0 1 1 2 0 1 1 0 0 1-2 0M26 29a1 1 0 1 1 2 0 1 1 0 0 1-2 0" fill="#f3aab9"/><path d="M2.468 31.06c0 .437.346.783.783.783h.173a.804.804 0 0 0 .711-.407l1.89-3.08 1.901 3.09a.765.765 0 0 0 .701.397H8.8a.777.777 0 0 0 .783-.783v-5.65a.777.777 0 1 0-1.555 0v3.546l-1.372-2.113c-.163-.244-.366-.396-.65-.396-.285 0-.488.152-.65.396l-1.352 2.083V25.39a.764.764 0 0 0-.773-.763.755.755 0 0 0-.762.763v5.67zM14.79 27.666l-.984 2.348-.986-2.348h1.97zm-4.4-1.972l2.48 5.6c.173.386.488.62.915.62h.09c.427 0 .732-.234.905-.62l2.48-5.6a.755.755 0 0 0 .081-.315.742.742 0 0 0-.742-.753c-.366 0-.61.214-.752.54l-.477 1.118h-3.13l-.498-1.17a.772.772 0 0 0-.722-.488.72.72 0 0 0-.722.732c0 .112.041.224.092.335M21.219 28.346c.762 0 1.199.407 1.199 1.006v.021c0 .67-.468 1.016-1.23 1.016h-1.555v-2.043h1.586zm-3.151 2.673c0 .437.346.783.783.783h2.47c.904 0 1.605-.255 2.072-.722.396-.397.61-.955.61-1.626v-.02c0-1.118-.558-1.809-1.423-2.165l1.087-1.32c.154-.194.255-.357.255-.6 0-.438-.366-.722-.742-.722-.356 0-.59.173-.773.406l-1.524 1.931h-1.25V25.41a.776.776 0 0 0-.782-.782.776.776 0 0 0-.783.782v5.61z" fill="#fff"/><path d="M8.8 7.191l4.541 3.721c1.986 1.62 2.762 2.511 2.762 3.835 0 1.346-.89 2.077-2.145 2.077-1.005 0-1.712-.435-2.602-1.393a1.606 1.606 0 0 0-1.187-.502c-.89 0-1.598.708-1.598 1.597 0 .39.16.8.411 1.096 1.278 1.484 2.785 2.351 5.204 2.351 3.31 0 5.501-1.94 5.501-4.93v-.046c0-2.67-1.37-3.994-4.2-6.185l-2.602-2.008h5.57a1.53 1.53 0 0 0 1.53-1.53c0-.844-.686-1.507-1.53-1.507H9.78c-1.096 0-1.895.617-1.895 1.667 0 .685.32 1.278.913 1.757" fill="#66757f"/></g></svg>