<svg xmlns="http://www.w3.org/2000/svg" viewBox="0 0 45 45"><defs><clipPath id="a"><path d="M0 36h36V0H0v36z"/></clipPath></defs><g clip-path="url(#a)" transform="matrix(1.25 0 0 -1.25 0 45)"><path d="M35 4a4 4 0 0 0-4-4H5a4 4 0 0 0-4 4v28a4 4 0 0 0 4 4h26a4 4 0 0 0 4-4V4z" fill="#ccd6dd"/><path d="M26 10h5V5h-5v5zm-7 0h5V5h-5v5zm-7 0h5V5h-5v5zm-7 0h5V5H5v5zm5 16H5v5h5v-5zm7 0h-5v5h5v-5zm7 0h-5v5h5v-5zm2 5h5v-5h-5v5zm0-7h5v-5h-5v5zm0-7h5v-5h-5v5zm-7 0h5v-5h-5v5zm-7 0h5v-5h-5v5zm-2-5H5v5h5v-5zm0 7H5v5h5v-5zm9 5h5v-5h-5v5zm-2-5h-5v5h5v-5zm15 14H4a1 1 0 0 1-1-1V4a1 1 0 0 1 1-1h28a1 1 0 0 1 1 1v28a1 1 0 0 1-1 1" fill="#e1e8ed"/><path d="M31.002 3c-.721 0-1.416.39-1.773 1.072l-9.739 18.59-6.076-6.076a2 2 0 0 0-3.175.466l-7 13a2 2 0 1 0 3.522 1.896l5.725-10.633 6.1 6.099a2.002 2.002 0 0 0 3.186-.486l11-21A2 2 0 0 0 31.002 3" fill="#3b94d9"/></g></svg>