<svg xmlns="http://www.w3.org/2000/svg" viewBox="0 0 45 45"><defs><clipPath id="a"><path d="M0 36h36V0H0v36z"/></clipPath></defs><g clip-path="url(#a)" transform="matrix(1.25 0 0 -1.25 0 45)"><path d="M35 4a4 4 0 0 0-4-4H5a4 4 0 0 0-4 4v28a4 4 0 0 0 4 4h26a4 4 0 0 0 4-4V4z" fill="#ccd6dd"/><path d="M26 10h5V5h-5v5zm-7 0h5V5h-5v5zm-7 0h5V5h-5v5zm-7 0h5V5H5v5zm5 16H5v5h5v-5zm7 0h-5v5h5v-5zm7 0h-5v5h5v-5zm2 5h5v-5h-5v5zm0-7h5v-5h-5v5zm0-7h5v-5h-5v5zm-7 0h5v-5h-5v5zm-7 0h5v-5h-5v5zm-2-5H5v5h5v-5zm0 7H5v5h5v-5zm9 5h5v-5h-5v5zm-2-5h-5v5h5v-5zm15 14H4a1 1 0 0 1-1-1V4a1 1 0 0 1 1-1h28a1 1 0 0 1 1 1v28a1 1 0 0 1-1 1" fill="#e1e8ed"/><path d="M4.998 3a2 2 0 0 0-1.759 2.948l7 13a2 2 0 0 0 3.175.466l6.076-6.076 9.738 18.59a1.999 1.999 0 1 0 3.543-1.856l-11-21a2.001 2.001 0 0 0-1.469-1.05 2.02 2.02 0 0 0-1.716.564l-6.1 6.099L6.761 4.052A2 2 0 0 0 4.998 3" fill="#dd2e44"/></g></svg>