<svg xmlns="http://www.w3.org/2000/svg" viewBox="0 0 45 45"><defs><clipPath id="a"><path d="M0 36h36V0H0v36z"/></clipPath></defs><g clip-path="url(#a)" transform="matrix(1.25 0 0 -1.25 0 45)"><path d="M35 4a4 4 0 0 0-4-4H5a4 4 0 0 0-4 4v28a4 4 0 0 0 4 4h26a4 4 0 0 0 4-4V4z" fill="#ccd6dd"/><path d="M26 10h5V5h-5v5zm-7 0h5V5h-5v5zm-7 0h5V5h-5v5zm-7 0h5V5H5v5zm5 16H5v5h5v-5zm7 0h-5v5h5v-5zm7 0h-5v5h5v-5zm2 5h5v-5h-5v5zm0-7h5v-5h-5v5zm0-7h5v-5h-5v5zm-7 0h5v-5h-5v5zm-7 0h5v-5h-5v5zm-2-5H5v5h5v-5zm0 7H5v5h5v-5zm9 5h5v-5h-5v5zm-2-5h-5v5h5v-5zm15 14H4a1 1 0 0 1-1-1V4a1 1 0 0 1 1-1h28a1 1 0 0 1 1 1v28a1 1 0 0 1-1 1" fill="#e1e8ed"/><path d="M14 5a2 2 0 0 0-2-2h-2a2 2 0 0 0-2 2v15a2 2 0 0 0 2 2h2a2 2 0 0 0 2-2V5z" fill="#5c913b"/><path d="M28 5a2 2 0 0 0-2-2h-2a2 2 0 0 0-2 2v22a2 2 0 0 0 2 2h2a2 2 0 0 0 2-2V5z" fill="#9266cc"/><path d="M21 5a2 2 0 0 0-2-2h-2a2 2 0 0 0-2 2v8a2 2 0 0 0 2 2h2a2 2 0 0 0 2-2V5z" fill="#dd2e44"/></g></svg>