<svg xmlns="http://www.w3.org/2000/svg" viewBox="0 0 45 45"><defs><clipPath id="a"><path d="M0 36h36V0H0v36z"/></clipPath></defs><g clip-path="url(#a)" transform="matrix(1.25 0 0 -1.25 0 45)"><path d="M28.303 33.424a.834.834 0 0 1-1.263-.32l-2.594-5.21c-.246-.491-.696-.52-1.001-.063l-4.89 7.309c-.305.457-.805.457-1.111 0l-4.888-7.31c-.306-.456-.756-.427-1.002.065l-2.593 5.21a.834.834 0 0 1-1.263.319S0 28 0 16C0 8.268 8.059 0 18 0c9.942 0 18 8.268 18 16 0 12-7.697 17.424-7.697 17.424" fill="#dd2e44"/><path d="M32 13a2 2 0 0 0-2-2H6a2 2 0 0 0-2 2v7a2 2 0 0 0 2 2h24a2 2 0 0 0 2-2v-7z" fill="#f5f8fa"/></g></svg>