<svg xmlns="http://www.w3.org/2000/svg" viewBox="0 0 45 45"><defs><clipPath id="a"><path d="M0 36h36V0H0v36z"/></clipPath></defs><g clip-path="url(#a)" transform="matrix(1.25 0 0 -1.25 0 45)"><path d="M36 10a4 4 0 0 0-4-4H8a4 4 0 0 0-4 4v19.687C4 31.896 9.791 36 12 36h18.625C33.719 36 36 33.687 36 30.625V10z" fill="#f4900c"/><path d="M34 6a4 4 0 0 0-4-4H10a4 4 0 0 0-4 4v24c0 4.119-.021 4 5 4h19a4 4 0 0 0 4-4V6z" fill="#ccd6dd"/><path d="M32 5a3 3 0 0 0-3-3H7a3 3 0 0 0-3 3v24a3 3 0 0 0 3 3h22a3 3 0 0 0 3-3V5z" fill="#e1e8ed"/><path d="M32 4a4 4 0 0 0-4-4H9a4 4 0 0 0-4 4v22a4 4 0 0 0 4 4h19a4 4 0 0 0 4-4V4z" fill="#ffac33"/><path d="M30 4a4 4 0 0 0-4-4H9a4 4 0 0 0-4 4v20a4 4 0 0 0 4 4h17.335C28.544 28 30 26.544 30 24.335V4z" fill="#ffcc4d"/><path d="M9 30c-1.687 0-1.731 1.922-1 2.75.832.941 2.125 1.25 4.438 1.25H14v2h-2.719C7.313 36 4 33.5 4 30.625V4a4 4 0 0 1 4-4h2v30H9z" fill="#f4900c"/><path d="M8.541 3.022c0-.702-.667-1.271-1.49-1.271-.822 0-1.489.569-1.489 1.27 0 .702.667 1.272 1.49 1.272.822 0 1.49-.57 1.49-1.271" fill="#662113"/><path d="M6.894 3.728c-.48-.055-.792-.374-1.016-.729C5.57 2.514 4.87 2 4 2 2.896 2 2 2.67 2 3.5 2 4.33 2.896 5 4 5v1.997C1.834 6.976.084 5.42.084 3.5.084 1.566 1.856 0 4.042 0c1.854 0 3.347 1.045 3.9 2.57.277.76-.468 1.223-1.048 1.16" fill="#66757f"/><path d="M8.541 11.021c0-.702-.667-1.27-1.49-1.27-.822 0-1.489.568-1.489 1.27 0 .701.667 1.271 1.49 1.271.822 0 1.49-.57 1.49-1.27" fill="#662113"/><path d="M6.894 11.729c-.48-.055-.792-.374-1.016-.73C5.57 10.516 4.87 10 4 10c-1.104 0-2 .672-2 1.5 0 .83.896 1.5 2 1.5v1.998C1.834 14.976.084 13.42.084 11.5.084 9.567 1.856 8 4.042 8c1.854 0 3.347 1.045 3.9 2.57.277.759-.468 1.223-1.048 1.159" fill="#66757f"/><path d="M8.541 19.021c0-.702-.667-1.27-1.49-1.27-.822 0-1.489.568-1.489 1.27 0 .701.667 1.271 1.49 1.271.822 0 1.49-.57 1.49-1.27" fill="#662113"/><path d="M6.894 19.729c-.48-.055-.792-.374-1.016-.73C5.57 18.516 4.87 18 4 18c-1.104 0-2 .672-2 1.5 0 .83.896 1.5 2 1.5v1.998C1.834 22.976.084 21.42.084 19.5c0-1.933 1.772-3.5 3.958-3.5 1.854 0 3.347 1.045 3.9 2.57.277.759-.468 1.223-1.048 1.159" fill="#66757f"/><path d="M8.541 27.021c0-.702-.667-1.27-1.49-1.27-.822 0-1.489.568-1.489 1.27 0 .701.667 1.271 1.49 1.271.822 0 1.49-.57 1.49-1.27" fill="#662113"/><path d="M6.894 27.729c-.48-.055-.792-.374-1.016-.73C5.57 26.516 4.87 26 4 26c-1.104 0-2 .672-2 1.5 0 .83.896 1.5 2 1.5v1.998C1.834 30.976.084 29.42.084 27.5c0-1.933 1.772-3.5 3.958-3.5 1.854 0 3.347 1.045 3.9 2.57.277.759-.468 1.223-1.048 1.159" fill="#66757f"/></g></svg>