<svg xmlns="http://www.w3.org/2000/svg" viewBox="0 0 45 45"><defs><clipPath id="a"><path d="M0 36h36V0H0v36z"/></clipPath></defs><g clip-path="url(#a)" transform="matrix(1.25 0 0 -1.25 0 45)"><path d="M36 9a4 4 0 0 0-4-4H4a4 4 0 0 0-4 4v17.999A4 4 0 0 0 4 31h28a4 4 0 0 0 4-4.001V9z" fill="#292f33"/><path d="M34 15a2 2 0 0 0-2-2H4a2 2 0 0 0-2 2v12a2 2 0 0 0 2 2h28a2 2 0 0 0 2-2V15z" fill="#c6e5b3"/><path d="M14 9a2 2 0 0 0-2-2H4a2 2 0 0 0 0 4h8a2 2 0 0 0 2-2M28 9a2 2 0 0 0-2-2h-8a2 2 0 0 0 0 4h8a2 2 0 0 0 2-2" fill="#66757f"/><path d="M30 9a2 2 0 1 1 4.001.001A2 2 0 0 1 30 9" fill="#dd2e44"/><path d="M26.049 22.306h-.012l-.803-1.659h.815v1.66zm-1.433-2.444c-.291 0-.416.196-.416.351 0 .13.047.202.083.261l1.332 2.415c.13.238.297.345.606.345.345 0 .684-.22.684-.76v-1.827h.102c.23 0 .416-.155.416-.393 0-.238-.185-.392-.416-.392h-.102v-.506c0-.315-.125-.463-.428-.463s-.428.148-.428.463v.506h-1.433zM22.51 21.135c0 .448-.04 1.368-.642 1.368-.601 0-.643-.92-.643-1.368 0-.42.042-1.368.643-1.368.602 0 .643.949.643 1.368m-2.206 0c0 .96.372 2.17 1.563 2.17 1.192 0 1.563-1.21 1.563-2.17 0-.961-.371-2.171-1.563-2.171-1.191 0-1.563 1.21-1.563 2.17M18.163 22.378h-.012l-.803-1.66h.815v1.66zm-1.433-2.444c-.291 0-.416.196-.416.35 0 .13.047.203.083.262l1.332 2.415c.13.238.297.345.606.345.345 0 .684-.22.684-.761v-1.826h.102c.23 0 .416-.155.416-.393 0-.238-.185-.392-.416-.392h-.102v-.506c0-.315-.125-.463-.428-.463s-.428.148-.428.463v.506H16.73zM14.625 21.063c0 .448-.041 1.368-.643 1.368-.601 0-.643-.92-.643-1.368 0-.419.042-1.368.643-1.368.602 0 .643.95.643 1.368m-2.206 0c0 .961.372 2.17 1.563 2.17 1.192 0 1.563-1.209 1.563-2.17 0-.96-.371-2.17-1.563-2.17-1.191 0-1.563 1.21-1.563 2.17M10.277 22.306h-.012l-.803-1.659h.815v1.66zm-1.433-2.444c-.291 0-.416.196-.416.351 0 .13.047.202.083.261l1.332 2.415c.13.238.297.345.606.345.345 0 .684-.22.684-.76v-1.827h.102c.23 0 .416-.155.416-.393 0-.238-.185-.392-.416-.392h-.102v-.506c0-.315-.125-.463-.428-.463s-.428.148-.428.463v.506H8.844z" fill="#77b255"/></g></svg>