<svg xmlns="http://www.w3.org/2000/svg" viewBox="0 0 45 45"><defs><clipPath id="a"><path d="M0 36h36V0H0v36z"/></clipPath></defs><g clip-path="url(#a)" transform="matrix(1.25 0 0 -1.25 0 45)"><path d="M31 4a4 4 0 0 0-4-4H5a4 4 0 0 0-4 4v28a4 4 0 0 0 4 4h22a4 4 0 0 0 4-4V4z" fill="#ccd6dd"/><path d="M27 12a1 1 0 0 0-1-1H6a1 1 0 1 0 0 2h20a1 1 0 0 0 1-1M11 8a1 1 0 0 0-1-1H6a1 1 0 1 0 0 2h4a1 1 0 0 0 1-1M27 28a1 1 0 0 0-1-1H6a1 1 0 0 0 0 2h20a1 1 0 0 0 1-1M27 24a1 1 0 0 0-1-1H6a1 1 0 1 0 0 2h20a1 1 0 0 0 1-1M27 20a1 1 0 0 0-1-1H6a1 1 0 1 0 0 2h20a1 1 0 0 0 1-1M27 16a1 1 0 0 0-1-1H6a1 1 0 1 0 0 2h20a1 1 0 0 0 1-1" fill="#99aab5"/><path d="M31 29.728c-.827.535-1.837.579-2.52.023l-.793-.646-1.484-1.211-.099-.08-2.376-1.938-11.879-9.686c-.437-.357-.793-1.218-1.173-2.074-.379-.849-.97-2.851-1.443-4.39-.148-.25-1.065-1.846-.551-2.454.519-.615 2.326-.009 2.568.077 1.626.173 3.731.373 4.648.58.925.211 1.854.394 2.291.752.008.006.01.017.018.023l11.857 9.666.792.646.144.117v10.595z" fill="#66757f"/><path d="M18.145 13.474s-1.274 1.88-2.117 2.553c-.672.842-2.55 2.116-2.55 2.116-.449.446-1.192.48-1.629.043-.437-.438-.793-1.366-1.174-2.291-.47-1.146-1.276-4.154-1.768-5.752-.083-.273.517.45.504.21-.01-.187.027-.394.073-.581l-.145-.158c.056-.02.128-.042.21-.068.024-.082.05-.154.067-.21l.16.146c.186-.047.393-.084.58-.074.24.013-.483-.587-.21-.503 1.597.493 4.607 1.296 5.752 1.767.924.38 1.854.737 2.291 1.174.437.437.404 1.18-.045 1.628" fill="#d99e82"/><path d="M25.313 31.649a2.238 2.238 0 0 1 0-3.168l3.167-3.168a2.242 2.242 0 0 1 3.168 0l3.169 3.168a2.242 2.242 0 0 1 0 3.168l-3.17 3.168a2.24 2.24 0 0 1-3.168 0l-3.167-3.168z" fill="#ea596e"/><path d="M11.85 18.186l3.17-3.17 3.163-3.166 11.881 11.879-6.337 6.336-11.878-11.88z" fill="#ffcc4d"/><path d="M11.298 9.258s-2.06-1.133-2.616-.576c-.557.558.58 2.61.58 2.61s1.953-.035 2.036-2.034" fill="#292f33"/><path d="M27.688 34.025l6.336-6.336-3.96-3.96-6.337 6.336 3.96 3.96z" fill="#ccd6dd"/><path d="M26.104 32.44l6.336-6.334.793.79-6.336 6.337-.793-.792zM24.52 30.857l6.336-6.336.791.792-6.335 6.336-.792-.792z" fill="#99aab5"/></g></svg>