<svg xmlns="http://www.w3.org/2000/svg" viewBox="0 0 45 45"><defs><clipPath id="a"><path d="M0 36h36V0H0v36z"/></clipPath></defs><g clip-path="url(#a)" transform="matrix(1.25 0 0 -1.25 0 45)"><path d="M15 5c0-2.209-.791-4-3-4H5C1 1 1 15 5 15h7c2.209 0 3-1.791 3-4V5z" fill="#553788"/><path d="M34 3h-1v10h1a1 1 0 1 1 0 2H10C6 15 6 1 10 1h24a1 1 0 1 1 0 2" fill="#9266cc"/><path d="M34.172 3H11c-2 0-2 10 0 10h23.172c1.104 0 1.104-10 0-10" fill="#ccd6dd"/><path d="M11.5 11h23.35c-.135 1.175-.361 2-.678 2H11c-1.651 0-1.938-6.808-.863-9.187C9.745 6.771 10.199 11 11.5 11" fill="#99aab5"/><path d="M12 28a4 4 0 0 0-4-4H4c-4 0-4 11 0 11h4a4 4 0 0 0 4-4v-3z" fill="#269"/><path d="M31 26h-1v7h1a1 1 0 1 1 0 2H7c-4 0-4-11 0-11h24a1 1 0 1 1 0 2" fill="#55acee"/><path d="M31.172 26H8c-2 0-2 7 0 7h23.172c1.104 0 1.104-7 0-7" fill="#ccd6dd"/><path d="M8 31h23.925c-.114 1.126-.364 2-.753 2H8c-1.193 0-1.669-2.489-1.438-4.5C6.718 29.858 7.193 31 8 31" fill="#99aab5"/><path d="M20 19a4 4 0 0 0-4-4H6c-4 0-4 9 0 9h10a4 4 0 0 0 4-4v-1z" fill="#f4900c"/><path d="M35 17h-1v5h1a1 1 0 1 1 0 2H15c-4 0-4-9 0-9h20a1 1 0 1 1 0 2" fill="#ffac33"/><path d="M35.172 17H16c-2 0-2 5 0 5h19.172c1.104 0 1.104-5 0-5" fill="#ccd6dd"/><path d="M16 20h19.984c-.064 1.062-.334 2-.812 2H16c-1.274 0-1.733-2.027-1.383-3.5.198.839.657 1.5 1.383 1.5" fill="#99aab5"/></g></svg>