<svg xmlns="http://www.w3.org/2000/svg" viewBox="0 0 45 45"><defs><clipPath id="a"><path d="M0 36h36V0H0v36z"/></clipPath><clipPath id="b"><path d="M7 28V0h18a4 4 0 0 1 4 4v20.335C29 26.545 27.544 28 25.335 28H7z"/></clipPath></defs><g clip-path="url(#a)" transform="matrix(1.25 0 0 -1.25 0 45)"><path d="M35 10a4 4 0 0 0-4-4H5a4 4 0 0 0-4 4v19.687C1 31.896 6.791 36 9 36h20.625C32.719 36 35 33.687 35 30.625V10z" fill="#292f33"/><path d="M33 6a4 4 0 0 0-4-4H7a4 4 0 0 0-4 4v24c0 4.119-.021 4 5 4h21a4 4 0 0 0 4-4V6z" fill="#ccd6dd"/><path d="M31 5a3 3 0 0 0-3-3H4a3 3 0 0 0-3 3v24a3 3 0 0 0 3 3h24a3 3 0 0 0 3-3V5z" fill="#e1e8ed"/><path d="M31 4a4 4 0 0 0-4-4H6a4 4 0 0 0-4 4v22a4 4 0 0 0 4 4h21a4 4 0 0 0 4-4V4z" fill="#292f33"/><path d="M29 4a4 4 0 0 0-4-4H6a4 4 0 0 0-4 4v20a4 4 0 0 0 4 4h19.335C27.544 28 29 26.544 29 24.335V4z" fill="#66757f"/><path d="M6 30c-1.687 0-1.731 1.922-1 2.75.832.941 2.125 1.25 4.438 1.25H11v2H8.281C4.313 36 1 33.5 1 30.625V4a4 4 0 0 1 4-4h2v30H6z" fill="#292f33"/></g><g clip-path="url(#b)" fill="#ccd6dd" transform="matrix(1.25 0 0 -1.25 0 45)"><path d="M10 24H6v4h4v-4zM18 24h-4v4h4v-4zM26 24h-4v4h4v-4zM22 20h-4v4h4v-4zM30 20h-4v4h4v-4zM14 20h-4v4h4v-4zM10 16H6v4h4v-4zM18 16h-4v4h4v-4zM26 16h-4v4h4v-4zM22 12h-4v4h4v-4zM30 12h-4v4h4v-4zM14 12h-4v4h4v-4zM10 8H6v4h4V8zM18 8h-4v4h4V8zM26 8h-4v4h4V8zM10 0H6v4h4V0zM18 0h-4v4h4V0zM26 0h-4v4h4V0zM22 4h-4v4h4V4zM30 4h-4v4h4V4zM14 4h-4v4h4V4z"/></g></svg>