<svg xmlns="http://www.w3.org/2000/svg" viewBox="0 0 45 45"><defs><clipPath id="a"><path d="M0 36h36V0H0v36z"/></clipPath></defs><g clip-path="url(#a)" transform="matrix(1.25 0 0 -1.25 0 45)"><path d="M22 3c0-2.209-8-2.209-8 0v10a4 4 0 0 0 8 0V3z" fill="#c1694f"/><path d="M10 33a8 8 0 0 1-8-8V13h16v12a8 8 0 0 1-8 8" fill="#292f33"/><path d="M20 17.24c0-1.237-1.065-2.24-2.293-2.24H2.293C1.064 15 0 16.003 0 17.24v10.52C0 28.997 1.064 30 2.293 30h15.414C18.935 30 20 28.997 20 27.76V17.24z" fill="#ccd6dd"/><path d="M6.637 23.204L.099 16.632c.113-.376.316-.716.596-.984l6.729 6.764a.565.565 0 0 1 0 .792.553.553 0 0 1-.787 0M13.364 23.204a.553.553 0 0 1-.787 0 .563.563 0 0 1 0-.792l6.728-6.764c.28.268.483.608.596.984l-6.537 6.572z" fill="#99aab5"/><path d="M17.707 30H2.293C1.064 30 0 28.997 0 27.761v-1.419l8.073-8.114a2.693 2.693 0 0 1 3.822 0L20 26.354v1.407C20 28.997 18.935 30 17.707 30" fill="#99aab5"/><path d="M17.707 30H2.293C1.127 30 .121 29.094.02 27.945l8.407-8.396c.869-.874 2.277-.84 3.145.035l8.41 8.346c-.093 1.156-1.105 2.07-2.275 2.07" fill="#e1e8ed"/><path d="M26 33H10a8 8 0 0 0 8-8V13h16v12a8 8 0 0 1-8 8" fill="#99aab5"/><path d="M26 35h-4a2 2 0 0 1-2-2V21a2 2 0 0 1 4 0v8h2a2 2 0 0 1 2 2v2a2 2 0 0 1-2 2" fill="#dd2e44"/></g></svg>