<svg xmlns="http://www.w3.org/2000/svg" viewBox="0 0 45 45"><defs><clipPath id="a"><path d="M0 36h36V0H0v36z"/></clipPath></defs><g clip-path="url(#a)" transform="matrix(1.25 0 0 -1.25 0 45)"><path d="M22 3c0-2.209-8-2.209-8 0v10a4 4 0 0 0 8 0V3z" fill="#c1694f"/><path d="M26 33H10V13h24v12a8 8 0 0 1-8 8" fill="#99aab5"/><path d="M10 33a8 8 0 0 1-8-8V13h16v12a8 8 0 0 1-8 8" fill="#292f33"/><path d="M9 33c-3.866 0-7-3.582-7-8V13h14v12c0 4.418-3.134 8-7 8" fill="#99aab5"/><path d="M34 23H22a2 2 0 0 1 0-4h8v-2a2 2 0 0 1 2-2h2a2 2 0 0 1 2 2v4a2 2 0 0 1-2 2" fill="#dd2e44"/></g></svg>