<svg xmlns="http://www.w3.org/2000/svg" viewBox="0 0 45 45"><defs><clipPath id="a"><path d="M0 36h36V0H0v36z"/></clipPath></defs><g clip-path="url(#a)" transform="matrix(1.25 0 0 -1.25 0 45)"><path d="M36 9a4 4 0 0 0-4-4H4a4 4 0 0 0-4 4v18a4 4 0 0 0 4 4h28a4 4 0 0 0 4-4V9z" fill="#ccd6dd"/><path d="M11.95 18.364L.637 7.05C.61 7.023.6 6.988.577 6.96A3.987 3.987 0 0 1 1.96 5.576c.029.023.063.033.09.06L13.365 16.95a1 1 0 0 1-1.415 1.414M35.423 6.96c-.021.028-.033.063-.06.09L24.05 18.364a1 1 0 1 1-1.415-1.414L33.949 5.636c.027-.027.062-.037.09-.06a3.97 3.97 0 0 1 1.384 1.384" fill="#99aab5"/><path d="M32 31H4a4 4 0 0 1-4-4v-1.03l14.528-14.495a4.88 4.88 0 0 1 6.884 0L36 25.991V27a4 4 0 0 1-4 4" fill="#99aab5"/><path d="M32 31H4a3.992 3.992 0 0 1-3.595-2.275l14.766-14.767a4 4 0 0 1 5.657 0l14.767 14.767A3.991 3.991 0 0 1 32 31" fill="#e1e8ed"/><path d="M15 26.73c0 .73.365 1.27 1 1.27h3.62c.839 0 1.174-.49 1.174-1 0-.496-.349-1-1.035-1h-2.708v-2h2.533c.716 0 1.065-.489 1.065-1 0-.496-.366-1-1.065-1h-2.533v-2h2.84c.699 0 1.037-.489 1.037-1 0-.496-.353-1-1.037-1h-3.766c-.643 0-1.125.531-1.125 1.188v7.542z" fill="#66757f"/></g></svg>