<svg xmlns="http://www.w3.org/2000/svg" viewBox="0 0 45 45"><defs><clipPath id="a"><path d="M0 36h36V0H0v36z"/></clipPath></defs><g clip-path="url(#a)" transform="matrix(1.25 0 0 -1.25 0 45)"><path d="M14 7a4 4 0 1 0 0 8 4 4 0 0 0 0-8m0 10a6 6 0 1 1 0-12 6 6 0 0 1 0 12" fill="#3b88c3"/><path d="M1.783 21.977v-.021C.783 21.738 0 20.06 0 18c0-2.06.782-3.737 1.783-3.956v-.02l28.701-7.972v23.884l-28.7-7.96z" fill="#55acee"/><path d="M36 18c0-6.627-2.238-12-5-12s-5 5.373-5 12 2.238 12 5 12 5-5.373 5-12" fill="#269"/></g></svg>