<svg xmlns="http://www.w3.org/2000/svg" viewBox="0 0 45 45"><defs><clipPath id="a"><path d="M0 36h36V0H0v36z"/></clipPath><clipPath id="b"><path d="M11 29V15s0-2 2-2h10s2 0 2 2v14H11z"/></clipPath><clipPath id="c"><path d="M0 36h36V0H0v36z"/></clipPath></defs><g clip-path="url(#a)" transform="matrix(1.25 0 0 -1.25 0 45)"><path d="M31 11a4 4 0 0 0-4-4H9a4 4 0 0 0-4 4v21a4 4 0 0 0 4 4h18a4 4 0 0 0 4-4V11z" fill="#dd2e44"/><path d="M7 26v4s0 2 2 2h18s2 0 2-2v-4H7z" fill="#a0041e"/><path d="M27 24H9s-2 0-2 2v3h22v-3c0-2-2-2-2-2" fill="#292f33"/><path d="M11 29V15s0-2 2-2h10s2 0 2 2v14H11z" fill="#e1e8ed"/></g><g clip-path="url(#b)" transform="matrix(1.25 0 0 -1.25 0 45)"><path d="M24 12l-9 11 6 6H10V12h14z" fill="#ccd6dd"/><path d="M23 12s-7 9-8 10 0 2 0 2l6 6 1-1-6-6 8-10-1-1z" fill="#66757f"/></g><g clip-path="url(#c)" transform="matrix(1.25 0 0 -1.25 0 45)"><path d="M23 7h-9V0h9v7z" fill="#66757f"/></g></svg>