<svg xmlns="http://www.w3.org/2000/svg" viewBox="0 0 45 45"><defs><clipPath id="a"><path d="M0 36h36V0H0v36z"/></clipPath></defs><g clip-path="url(#a)" transform="matrix(1.25 0 0 -1.25 0 45)"><path d="M34.724 6.344c-1.24.01-1.241-1.205-1.241-1.205H18.5c-5.246 0-9.5 4.254-9.5 9.5s4.254 9.5 9.5 9.5 9.5-4.254 9.5-9.5c0-3.063-1.6-5.898-3.851-7.633h5.434C31.023 9.152 32 11.862 32 14.639c0 7.455-6.045 13.5-13.5 13.5S5 22.094 5 14.639s6.045-13.5 13.5-13.5h14.983s-.003-1.127 1.24-1.14c1.239-.01 1.229 1.246 1.229 1.246l.013 3.822s0 1.266-1.241 1.277M5 21.74a16.047 16.047 0 0 0 4 4.739v.52c0 5 5 7 5 8s-1 1-1 1H1c-1 0-1-1-1-1 0-1 5-3.332 5-7.69v-5.57z" fill="#ffac33"/><path d="M13.091 6.834a9.484 9.484 0 0 0-4.045 8.72l-3.977.461A13.588 13.588 0 0 1 5 14.64c0-4.573 2.28-8.609 5.76-11.05l2.331 3.245z" fill="#be1931"/><path d="M6 10.076s-5.187.812-5-1c.188-1.813 5 1 5 1M6 9.764s-4.125-2.688-2.938-3.75C4.25 4.952 6 9.764 6 9.764" fill="#be1931"/></g></svg>