<svg xmlns="http://www.w3.org/2000/svg" viewBox="0 0 45 45"><defs><clipPath id="a"><path d="M0 36h36V0H0v36z"/></clipPath></defs><g clip-path="url(#a)" transform="matrix(1.25 0 0 -1.25 0 45)"><path d="M36 4a4 4 0 0 0-4-4H4a4 4 0 0 0-4 4v18a4 4 0 0 0 4 4h28a4 4 0 0 0 4-4V4z" fill="#ccd6dd"/><path d="M11.95 13.364L.637 2.05C.61 2.023.6 1.988.577 1.96A3.987 3.987 0 0 1 1.96.576c.029.023.063.033.09.06L13.365 11.95a1 1 0 0 1-1.415 1.414M35.423 1.96c-.021.028-.033.063-.06.09L24.05 13.364a1 1 0 1 1-1.415-1.414L33.949.636c.027-.027.062-.037.09-.06a3.97 3.97 0 0 1 1.384 1.384" fill="#99aab5"/><path d="M32 26H4a4 4 0 0 1-4-4v-1.03L14.528 6.475a4.88 4.88 0 0 1 6.884 0L36 20.991V22a4 4 0 0 1-4 4" fill="#99aab5"/><path d="M32 26H4a3.992 3.992 0 0 1-3.595-2.275L15.171 8.958a4 4 0 0 1 5.657 0l14.767 14.767A3.991 3.991 0 0 1 32 26" fill="#e1e8ed"/><path d="M26.716 29H22v5a2 2 0 0 1-2 2h-4a2 2 0 0 1-2-2v-5H9.148c-1.223 0-1.515-.624-.651-1.489l7.863-7.863a2.23 2.23 0 0 1 3.145 0l7.863 7.863c.865.865.572 1.489-.652 1.489" fill="#55acee"/></g></svg>