<svg xmlns="http://www.w3.org/2000/svg" viewBox="0 0 45 45"><defs><clipPath id="a"><path d="M0 36h36V0H0v36z"/></clipPath></defs><g clip-path="url(#a)" transform="matrix(1.25 0 0 -1.25 0 45)"><path d="M12.908 5.25c-.276-2.209-2.29-3-4.5-3-2.209 0-3.776 1.791-3.5 4l1 9c.276 2.209 2.291 4 4.5 4 2.21 0 6.468 0 3.5-4s-1-10-1-10" fill="#be1931"/><path d="M35.825 21.25c0-6.902-1.544-12.5-3.45-12.5-1.905 0-20.45 5.598-20.45 12.5 0 6.903 18.545 12.5 20.45 12.5 1.906 0 3.45-5.597 3.45-12.5" fill="#ccd6dd"/><path d="M35.825 21.25c0-6.902-1.544-12.5-3.45-12.5-1.905 0-3.45 5.598-3.45 12.5 0 6.903 1.545 12.5 3.45 12.5 1.906 0 3.45-5.597 3.45-12.5" fill="#66757f"/><path d="M17.925 14.25l-14 1c-5 0-5 12 0 12l14 1c-3-3-3-11 0-14" fill="#dd2e44"/><path d="M32.825 21.25c0-2.401-.672-4.348-1.5-4.348s-1.5 1.947-1.5 4.348.672 4.348 1.5 4.348 1.5-1.947 1.5-4.348" fill="#99aab5"/></g></svg>