<svg xmlns="http://www.w3.org/2000/svg" viewBox="0 0 45 45"><defs><clipPath id="a"><path d="M0 36h36V0H0v36z"/></clipPath></defs><g clip-path="url(#a)" transform="matrix(1.25 0 0 -1.25 0 45)"><path d="M8 19H0V4a4 4 0 0 1 8 0 4 4 0 0 1 4-4h20a4 4 0 0 1 4 4v15H8z" fill="#292f33"/><path d="M32 26H12a4 4 0 0 1-4-4.001 4 4 0 1 1-8 0V7a4 4 0 0 1 8 0 4 4 0 0 1 4-4h20a4 4 0 0 1 4 4v14.999A4 4 0 0 1 32 26" fill="#66757f"/><path d="M21 20a2 2 0 0 0-2-2h-7a2 2 0 0 0-2 2v2a2 2 0 0 0 2 2h7a2 2 0 0 0 2-2v-2z" fill="#c6e5b3"/><path d="M13 14.5a1.5 1.5 0 1 0-3 0 1.5 1.5 0 0 0 3 0M17 14.5a1.5 1.5 0 1 0-3 0 1.5 1.5 0 0 0 3 0M21 14.5a1.5 1.5 0 1 0-3.001.001A1.5 1.5 0 0 0 21 14.5M13 10.5a1.5 1.5 0 1 0-3 0 1.5 1.5 0 0 0 3 0M17 10.5a1.5 1.5 0 1 0-3 0 1.5 1.5 0 0 0 3 0M21 10.5a1.5 1.5 0 1 0-3.001.001A1.5 1.5 0 0 0 21 10.5M13 6.5a1.5 1.5 0 1 0-3 0 1.5 1.5 0 0 0 3 0M17 6.5a1.5 1.5 0 1 0-3 0 1.5 1.5 0 0 0 3 0M21 6.5a1.5 1.5 0 1 0-3.001.001A1.5 1.5 0 0 0 21 6.5" fill="#ccd6dd"/><path d="M34 15a1 1 0 0 0-1-1h-9a1 1 0 1 0 0 2h9a1 1 0 0 0 1-1M34 12a1 1 0 0 0-1-1h-9a1 1 0 1 0 0 2h9a1 1 0 0 0 1-1M34 9a1 1 0 0 0-1-1h-9a1 1 0 1 0 0 2h9a1 1 0 0 0 1-1M34 6a1 1 0 0 0-1-1h-9a1 1 0 1 0 0 2h9a1 1 0 0 0 1-1" fill="#99aab5"/><path d="M27 21a2 2 0 1 0-4 0 2 2 0 0 0 4 0M34 21a2 2 0 1 0-4 0 2 2 0 0 0 4 0M32 26H12v6a4 4 0 0 0 4 4h12a4 4 0 0 0 4-4v-6z" fill="#ccd6dd"/><path d="M30 32a1 1 0 0 0-1-1H15a1 1 0 1 0 0 2h14a1 1 0 0 0 1-1M22 29a1 1 0 0 0-1-1h-6a1 1 0 1 0 0 2h6a1 1 0 0 0 1-1" fill="#99aab5"/></g></svg>