<svg xmlns="http://www.w3.org/2000/svg" viewBox="0 0 45 45"><defs><clipPath id="a"><path d="M0 36h36V0H0v36z"/></clipPath></defs><g clip-path="url(#a)" transform="matrix(1.25 0 0 -1.25 0 45)"><path d="M10.746 14.48c1.668 0 7.43-4.346 7.427-9.702C18.176-.58 3.32-.58 3.319 4.78c0 5.354 5.759 9.7 7.427 9.7" fill="#99aab5"/><path d="M8.54 10.818c8.84-8.84 17.337-5.163 20.034-2.469 2.695 2.696-.16 9.916-6.371 16.13-6.215 6.212-13.435 9.066-16.13 6.371C3.375 28.155-.3 19.656 8.54 10.818" fill="#ccd6dd"/><path d="M12.443 14.722c6.214-6.214 13.434-9.066 16.13-6.372 2.695 2.696-.158 9.916-6.37 16.129-6.216 6.213-13.436 9.067-16.13 6.37-2.696-2.693.157-9.915 6.37-16.127" fill="#66757f"/><path d="M22.202 24.479a1.138 1.138 0 0 0 0-1.607L14.97 15.64a1.136 1.136 0 1 0-1.607 1.607l7.232 7.23a1.135 1.135 0 0 0 1.608 0" fill="#ccd6dd"/><path d="M23.809 26.085a2.274 2.274 0 1 0-3.217-3.214 2.274 2.274 0 0 0 3.217 3.214" fill="#ccd6dd"/><path d="M28.287 22.922l-.05.001a1.002 1.002 0 0 0-.95 1.05c.001.015.064 2.156-1.58 3.8-1.638 1.636-3.772 1.578-3.8 1.58a.999.999 0 1 0-.1 1.996c.122.012 3.028.123 5.314-2.163 2.287-2.287 2.17-5.19 2.164-5.314a1 1 0 0 0-.998-.95" fill="#ffac33"/><path d="M31.846 23.478a.998.998 0 0 0-.943 1.331c.034.107.892 2.877-2.196 5.964-3.126 3.126-6.126 2.414-6.252 2.382a1.001 1.001 0 0 0-1.215.715.994.994 0 0 0 .7 1.217c.17.046 4.206 1.078 8.18-2.9 4.017-4.014 2.727-7.876 2.669-8.039a.998.998 0 0 0-.943-.67" fill="#ffac33"/><path d="M10.914 3.48c-2.9 0-5.543.657-7.566 1.736-.008-.146-.03-.29-.03-.437.002-5.36 14.858-5.36 14.855 0 0 .09-.014.176-.017.264-1.978-.976-4.496-1.564-7.242-1.564" fill="#66757f"/></g></svg>