<svg xmlns="http://www.w3.org/2000/svg" viewBox="0 0 45 45"><defs><clipPath id="a"><path d="M0 36h36V0H0v36z"/></clipPath></defs><g clip-path="url(#a)" transform="matrix(1.25 0 0 -1.25 0 45)"><path d="M7 24a1 1 0 0 0-1-1H1a1 1 0 0 0 0 2h5a1 1 0 0 0 1-1M5 19a1 1 0 0 0-1-1H1a1 1 0 0 0 0 2h3a1 1 0 0 0 1-1M3 14a1 1 0 0 0-1-1H1a1 1 0 1 0 0 2h1a1 1 0 0 0 1-1" fill="#55acee"/><path d="M32.3 11c-.625-2.209-2.924-4-5.133-4h-20C4.957 7 3.675 8.791 4.3 11l3.398 12c.626 2.209 2.924 4 5.133 4h20c2.209 0 3.493-1.791 2.867-4L32.3 11z" fill="#ccd6dd"/><path d="M17.336 18.364L4.384 9.05c-.034-.027-.054-.062-.085-.09a2.656 2.656 0 0 1 .992-1.384c.035.023.073.033.107.06L18.35 16.95c.5.391.68 1.022.4 1.414-.28.391-.912.391-1.414 0M31.145 8.96c-.015.028-.016.063-.034.09l-7.674 9.314c-.28.391-.913.391-1.416 0-.5-.391-.68-1.023-.4-1.414l7.676-9.314c.019-.027.05-.037.073-.06.667.34 1.274.814 1.776 1.384" fill="#99aab5"/><path d="M35.7 23c.625 2.209-.659 4-2.868 4h-20c-2.21 0-4.507-1.791-5.133-4l-.02-.074 8.805-8.451c1.631-1.584 3.787-1.475 5.725-.371l13.226 7.964.264.932z" fill="#99aab5"/><path d="M32.832 27h-20c-1.578 0-3.189-.921-4.217-2.248l9.217-8.794c.749-.719 2.434-.729 3.656 0l14.294 8.768C35.516 26.067 34.42 27 32.832 27" fill="#e1e8ed"/></g></svg>