<svg xmlns="http://www.w3.org/2000/svg" viewBox="0 0 45 45"><defs><clipPath id="a"><path d="M0 36h36V0H0v36z"/></clipPath></defs><g clip-path="url(#a)" transform="matrix(1.25 0 0 -1.25 0 45)"><path d="M4 25V12.625c0-2.042 1.093-2.484 1.093-2.484l11.574-9.099C18.488-.39 18 2.625 18 2.625V14L4 25z" fill="#662113"/><path d="M32 25V12.625c0-2.042-1.063-2.484-1.063-2.484S21.17 2.474 19.349 1.042C17.526-.39 18 2.625 18 2.625V14l14 11z" fill="#c1694f"/><path d="M19.29 35.5c-.755.61-1.989.61-2.743 0L4.565 25.971c-.754-.61-.754-1.607 0-2.216l12.023-9.647c.755-.609 1.99-.609 2.743 0l12.103 9.731c.754.609.754 1.606 0 2.216L19.29 35.5z" fill="#d99e82"/><path d="M18 .25c-.552 0-1 .482-1 1.078v12.927c0 .596.448 1.078 1 1.078.553 0 1-.482 1-1.078V1.328C19 .732 18.553.25 18 .25" fill="#d99e82"/><path d="M28 17.164c0-1.104.105-1.646-1-2.442l-2.469-1.878c-1.104-.797-1.531-.113-1.531.992v2.961c0 .193-.026.4-.278.608C20.144 19.53 10.134 27.481 8.31 28.95l4.625 3.678c1.266-.926 10.753-8.252 14.721-11.377.199-.156.344-.328.344-.516v-3.57z" fill="#99aab5"/><path d="M27.656 21.25C23.687 24.375 14.2 31.701 12.934 32.627l-1.72-1.368-2.905-2.31c1.825-1.468 11.834-9.419 14.412-11.544a.684.684 0 0 0 .248-.371l4.934 3.967c-.06.086-.146.17-.247.249" fill="#ccd6dd"/><path d="M28 17.164v3.57c0 .188-.145.36-.344.516-3.968 3.125-13.455 10.451-14.721 11.377l-2.074-1.649c3.393-2.669 12.482-9.68 14.861-11.573.256-.204.278-.415.278-.608v-4.836l1 .761c1.105.796 1 1.338 1 2.442" fill="#ccd6dd"/><path d="M27.656 21.25C23.687 24.375 14.2 31.701 12.934 32.627l-2.073-1.649c3.393-2.669 12.482-9.681 14.86-11.573.038-.029.06-.059.087-.089l2.095 1.685c-.06.086-.146.17-.247.249" fill="#e1e8ed"/></g></svg>