<svg xmlns="http://www.w3.org/2000/svg" viewBox="0 0 45 45"><defs><clipPath id="a"><path d="M0 36h36V0H0v36z"/></clipPath></defs><g clip-path="url(#a)" transform="matrix(1.25 0 0 -1.25 0 45)"><path d="M36 4a4 4 0 0 0-4-4H4a4 4 0 0 0-4 4v9c0 2.209.791 3 3 3h30c2.209 0 3-.791 3-3V4z" fill="#d99e82"/><path d="M25 16a7 7 0 1 0-14 0h14z" fill="#662113"/><path d="M4 0h28a4 4 0 0 1 4 4H0a4 4 0 0 1 4-4" fill="#c1694f"/><path d="M27.436 27.489l-7.863 7.863a2.23 2.23 0 0 1-3.145 0l-7.863-7.863c-.865-.865-.571-1.49.652-1.49H14v-6a2 2 0 0 1 2-2h4a2 2 0 0 1 2 2v6h4.785c1.222 0 1.515.625.65 1.49" fill="#dd2e44"/></g></svg>