<svg xmlns="http://www.w3.org/2000/svg" viewBox="0 0 45 45"><defs><clipPath id="a"><path d="M0 36h36V0H0v36z"/></clipPath></defs><g clip-path="url(#a)" transform="matrix(1.25 0 0 -1.25 0 45)"><path d="M2.697 23.611a.999.999 0 1 1 1.414-1.414l9.192 9.192a.999.999 0 1 1-1.414 1.414l-9.192-9.192z" fill="#292f33"/><path d="M36 4c0-4-4-4-4-4H4S0 0 0 4v18s0 4 4 4h28c4 0 4-4 4-4V4z" fill="#99aab5"/><path d="M15.56 32.94a.999.999 0 0 0-1.414 0l-.707.707a.999.999 0 1 0 1.414 1.414l.707-.707a.999.999 0 0 0 0-1.414M33 17.5a5.5 5.5 0 1 0-11 0 5.5 5.5 0 1 0 11 0M31 6.5C31 4.566 29.434 3 27.5 3A3.499 3.499 0 0 0 24 6.5c0 1.934 1.566 3.5 3.5 3.5S31 8.434 31 6.5" fill="#292f33"/><path d="M31 17.5c0-1.934-1.566-3.5-3.5-3.5a3.499 3.499 0 0 0-3.5 3.5c0 1.934 1.566 3.5 3.5 3.5s3.5-1.566 3.5-3.5M29 6.5a1.5 1.5 0 1 0-2.999-.001A1.5 1.5 0 0 0 29 6.5" fill="#66757f"/><path d="M12 10.5a1.5 1.5 0 1 0-3 0 1.5 1.5 0 0 0 3 0M7 10.5a1.5 1.5 0 1 0-3 0 1.5 1.5 0 0 0 3 0M12 15.5a1.5 1.5 0 1 0-3 0 1.5 1.5 0 0 0 3 0M17 15.5a1.5 1.5 0 1 0-3 0 1.5 1.5 0 0 0 3 0M17 10.5a1.5 1.5 0 1 0-3 0 1.5 1.5 0 0 0 3 0M17 5.5a1.5 1.5 0 1 0-3 0 1.5 1.5 0 0 0 3 0M7 5.5a1.5 1.5 0 1 0-3 0 1.5 1.5 0 0 0 3 0M7 15.5a1.5 1.5 0 1 0-3 0 1.5 1.5 0 0 0 3 0M12 20.5a1.5 1.5 0 1 0-3 0 1.5 1.5 0 0 0 3 0M17 20.5a1.5 1.5 0 1 0-3 0 1.5 1.5 0 0 0 3 0M7 20.5a1.5 1.5 0 1 0-3 0 1.5 1.5 0 0 0 3 0M12 5.5a1.5 1.5 0 1 0-3 0 1.5 1.5 0 0 0 3 0" fill="#292f33"/></g></svg>