<svg xmlns="http://www.w3.org/2000/svg" viewBox="0 0 45 45"><defs><clipPath id="a"><path d="M0 36h36V0H0v36z"/></clipPath></defs><g clip-path="url(#a)" transform="matrix(1.25 0 0 -1.25 0 45)"><path d="M36 4c0-4-4-4-4-4H4C0 0 0 4 0 4v28c0 4 4 4 4 4h28s4 0 4-4V4z" fill="#f4900c"/><path d="M14.841 19.084c0 1.728-.9 3.285-2.685 3.285-1.785 0-2.685-1.557-2.685-3.285 0-1.743.872-3.285 2.685-3.285 1.814 0 2.685 1.542 2.685 3.285m-7.598 0c0 2.971 2 5.256 4.913 5.256 2.871 0 4.913-2.357 4.913-5.256 0-2.957-1.985-5.256-4.913-5.256-2.899 0-4.913 2.3-4.913 5.256M18.526 23.055c0 .586.4 1.114 1.114 1.114h3.657c.627 0 .957-.485.957-.985 0-.486-.315-.986-.957-.986H20.67v-2.085h2.213c.686 0 1.03-.486 1.03-.971 0-.5-.344-1-1.03-1H20.67v-3.113c0-.714-.457-1.115-1.072-1.115-.614 0-1.07.4-1.07 1.115v8.026zM26.297 23.055c0 .586.4 1.114 1.114 1.114h3.656c.628 0 .957-.485.957-.985 0-.486-.314-.986-.957-.986H28.44v-2.085h2.213c.686 0 1.029-.486 1.029-.971 0-.5-.343-1-1.03-1H28.44v-3.113c0-.714-.457-1.115-1.072-1.115-.614 0-1.071.4-1.071 1.115v8.026z" fill="#fff"/><path d="M19 12V8H5v20h14v-2h2v4c0 3-3 3-3 3H6c-3 0-3-3-3-3V6c0-3 3-3 3-3h12c3 0 3 3 3 3v6h-2z" fill="#fff"/></g></svg>