<svg xmlns="http://www.w3.org/2000/svg" viewBox="0 0 45 45"><defs><clipPath id="a"><path d="M0 36h36V0H0v36z"/></clipPath></defs><g clip-path="url(#a)" transform="matrix(1.25 0 0 -1.25 0 45)"><path d="M29 18H16c-3.669 0-5 2.99-5 5v2H7c-3 0-3-3-3-3s-2 1-3 1-1-1-1-1V12s0-1 1-1 3 1 3 1V5c0-4 4-4 4-4h18c4 0 4 4 4 4v13.106A5.183 5.183 0 0 0 29 18" fill="#292f33"/><path d="M35 30c-.559 0-2.05-.934-3.26-1.76-.327.826-1.066 1.76-2.74 1.76H18s-5 0-5-5v-2s0-3 3-3h13s2.075.006 2.771 1.739C32.976 20.919 34.446 20 35 20c1 0 1 1 1 1v8s0 1-1 1M9 1v9s0 3 2.75 3H22s3 0 3-3V1h-2v9s0 1-1 1H12s-1 0-1-1V1H9z" fill="#66757f"/></g></svg>