<svg xmlns="http://www.w3.org/2000/svg" viewBox="0 0 45 45"><defs><clipPath id="a"><path d="M0 36h36V0H0v36z"/></clipPath></defs><g clip-path="url(#a)" transform="matrix(1.25 0 0 -1.25 0 45)"><path d="M3.333 24c0 .52.105 1.01.261 1.477l2.095-1.257c-.007-.074-.022-.145-.022-.22 0-.75.36-1.41.91-1.837a3.985 3.985 0 0 1-1.352-1.895A4.644 4.644 0 0 0 3.333 24M8 28.666c.519 0 1.01-.104 1.476-.26L8.22 26.311c-.073.006-.145.021-.22.021a2.32 2.32 0 0 1-1.292-.391l-2.093 1.255A4.64 4.64 0 0 0 8 28.666m3.197-1.282A4.644 4.644 0 0 0 12.667 24c0-.343-.043-.677-.114-1H10.1c.145.305.233.64.233 1 0 .479-.145.923-.392 1.293l1.256 2.093zM20.285 27c0 .564.085 1.107.237 1.62l3.193-1.596-.002-.023c0-.657.313-1.245.771-1.662l-.668-2.34h-1.871a5.67 5.67 0 0 0-1.66 4.002M26 32.715c.282 0 .557-.028.828-.067l-1.131-3.393a2.267 2.267 0 0 1-1.081-.446l-3.196 1.598A5.7 5.7 0 0 0 26 32.715m1.827-7.032l3.552-.592a5.711 5.711 0 0 0-4.214-3.67c-.37.482-.843.874-1.392 1.148l.625 2.19a2.425 2.425 0 0 1 1.429.924m.9 6.34a5.713 5.713 0 0 0 2.984-4.96l-3.531.589c-.112.376-.31.714-.583.982l1.13 3.39zM34.074 18l-4.832-3H28v4c0 .088-.02.17-.026.256C31.436 20.136 34 23.265 34 27a8 8 0 0 1-16.001 0c0-1.464.412-2.822 1.099-4.001H14.92c.047.328.08.66.08 1a7 7 0 1 1-14 0 6.998 6.998 0 0 1 4-6.317V7a4 4 0 0 1 4-4h15a4 4 0 0 1 4 4v3h1.242l4.832-3H35v11h-.926z" fill="#292f33"/><path d="M22 17a2 2 0 1 1 4.001.001A2 2 0 0 1 22 17M7 17a2 2 0 1 1 4.001.001A2 2 0 0 1 7 17M24 9a2 2 0 0 1-2 2H11a2 2 0 0 1-2-2V3a2 2 0 0 1 2-2h11a2 2 0 0 1 2 2v6z" fill="#8899a6"/></g></svg>