<svg xmlns="http://www.w3.org/2000/svg" viewBox="0 0 45 45"><defs><clipPath id="a"><path d="M0 36h36V0H0v36z"/></clipPath></defs><g clip-path="url(#a)" transform="matrix(1.25 0 0 -1.25 0 45)"><path d="M26.797 7.219c.484-1.11-.268-2.391.739-4.323C28.624.809 31.19.095 32.828.078c1.078-.01 1.189.448.759.667-.681.349-.598.87-.598.87s.464-.427 1.308-.662c.62-.172 1.307-.215 1.518.379.18.51-1.648.142-2.492 1.954 1.092-.494 1.693-.223 2.146.152.257.213.453.625.109.5-.343-.125-2.703-.391-3.047 2.062 1.088-1.231 2.403-1.122 3.019-.708.403.27.503.803.11.62-1.422-.655-2.051.607-2.974 1.858-1.114 1.507-2.936.996-3.686 1.324-.276.12-2.203-1.875-2.203-1.875" fill="#292f33"/><path d="M10.087 29.149a2.29 2.29 0 1 0-3.238-3.24 2.29 2.29 0 0 0 3.238 3.24" fill="#553788"/><path d="M7.227 25.782a2.29 2.29 0 1 0-3.238-3.24 2.29 2.29 0 0 0 3.238 3.24" fill="#553788"/><path d="M5.051 21.936a2.29 2.29 0 1 0-3.24-3.242 2.29 2.29 0 0 0 3.24 3.242" fill="#553788"/><path d="M4.04 17.683a2.292 2.292 0 0 0-3.242-3.24 2.292 2.292 0 0 0 3.241 3.24" fill="#553788"/><path d="M4.494 13.33a2.29 2.29 0 1 0-3.239 0 2.29 2.29 0 0 0 3.239 0" fill="#553788"/><path d="M6.848 9.71a2.29 2.29 0 1 0-3.239-3.24 2.29 2.29 0 0 0 3.239 3.24" fill="#553788"/><path d="M10.923 8.32a2.29 2.29 0 1 0-3.239-3.24 2.29 2.29 0 0 0 3.239 3.24" fill="#553788"/><path d="M15.327 7.712a2.292 2.292 0 1 0-3.241-3.241 2.292 2.292 0 0 0 3.24 3.24" fill="#553788"/><path d="M19.604 8.193a2.29 2.29 0 1 0-3.24-3.24 2.292 2.292 0 0 0 3.24 3.24" fill="#553788"/><path d="M23.806 9.66a2.29 2.29 0 1 0-3.24-3.24 2.29 2.29 0 0 0 3.24 3.24M10.214 28.769a2.29 2.29 0 1 1 3.24 3.238 2.29 2.29 0 0 1-3.24-3.238" fill="#553788"/><path d="M14.06 30.945a2.29 2.29 0 1 1 3.242 3.24 2.29 2.29 0 0 1-3.242-3.24" fill="#553788"/><path d="M18.313 31.957a2.292 2.292 0 0 1 3.24 0 2.292 2.292 0 0 1 0 3.24 2.29 2.29 0 1 1-3.24-3.24" fill="#553788"/><path d="M22.666 31.502a2.29 2.29 0 1 1 3.24 3.239 2.29 2.29 0 0 1-3.24-3.239" fill="#553788"/><path d="M26.286 29.149a2.288 2.288 0 0 1 3.238 0 2.29 2.29 0 1 1-3.238 0" fill="#553788"/><path d="M27.677 25.074a2.292 2.292 0 1 1 3.24 3.24 2.292 2.292 0 0 1-3.24-3.24" fill="#553788"/><path d="M28.285 20.67a2.29 2.29 0 1 1 3.24 3.238 2.29 2.29 0 0 1-3.24-3.238" fill="#553788"/><path d="M27.804 16.393a2.29 2.29 0 1 1 3.24 3.238 2.29 2.29 0 0 1-3.24-3.238" fill="#553788"/><path d="M26.336 12.19a2.291 2.291 0 1 1 3.239 3.24 2.291 2.291 0 0 1-3.24-3.24" fill="#553788"/><path d="M28.153 11.417a2.546 2.546 0 0 1-3.599 0 2.543 2.543 0 0 1 0-3.599l2.4-1.2 2.4 2.401-1.2 2.398z" fill="#f4900c"/></g></svg>