<svg xmlns="http://www.w3.org/2000/svg" viewBox="0 0 45 45"><defs><clipPath id="a"><path d="M0 36h36V0H0v36z"/></clipPath></defs><g clip-path="url(#a)" transform="matrix(1.25 0 0 -1.25 0 45)"><path d="M36 4c0-4-4-4-4-4H4C0 0 0 4 0 4v28c0 4 4 4 4 4h28s4 0 4-4V4z" fill="#f4900c"/><path d="M25 8H11v20h14V8zm-1 25H12c-3 0-3-3-3-3V6c0-3 3-3 3-3h12c3 0 3 3 3 3v24c0 3-3 3-3 3M2 21v-5l5 2v1l-5 2zM3 23l4-2v2l-4 3v-3zM3 14l4 2v-2l-4-3v3zM34 21v-5l-5 2v1l5 2zM33 23l-4-2v2l4 3v-3zM33 14l-4 2v-2l4-3v3z" fill="#fff"/></g></svg>