<svg xmlns="http://www.w3.org/2000/svg" viewBox="0 0 45 45"><defs><clipPath id="a"><path d="M0 36h36V0H0v36z"/></clipPath></defs><g clip-path="url(#a)" transform="matrix(1.25 0 0 -1.25 0 45)"><path d="M0 26s0 4 4 4h28s4 0 4-4V8s0-4-4-4H4S0 4 0 8v18z" fill="#292f33"/><path d="M11 17c0-5.523 4.477-10 10-10s10 4.477 10 10-4.477 10-10 10-10-4.477-10-10" fill="#ccd6dd"/><path d="M29 17a8 8 0 0 0-8-8 8 8 0 0 0-8 8 8 8 0 0 0 8 8 8 8 0 0 0 8-8" fill="#292f33"/><path d="M26 17a5 5 0 0 0-5-5 5 5 0 0 0-5 5 5 5 0 0 0 5 5 5 5 0 0 0 5-5" fill="#3b88c3"/><path d="M34 26.5a1.5 1.5 0 1 0-3 0 1.5 1.5 0 0 0 3 0" fill="#fff"/><path d="M16 27l3 6-6-2-4 5-2-5-6 1 4-6-5-4h6l-2-6 6 3 6-5-1 8 6 1-5 4z" fill="#ffac33"/><path d="M10 22l-3-2 1 3-3 1 3 2-3 3h4l1 3 2-3 3 1-2-3 3-3-3-1 1-4-4 3z" fill="#fff"/></g></svg>