<svg xmlns="http://www.w3.org/2000/svg" viewBox="0 0 45 45"><defs><clipPath id="a"><path d="M0 36h36V0H0v36z"/></clipPath><clipPath id="b"><path d="M4 24c-1 0-2-2-2-5s1-5 2-5h6c1 0 1 1 1 1v8c0 1-1 1-1 1H4z"/></clipPath><clipPath id="c"><path d="M0 36h36V0H0v36z"/></clipPath><clipPath id="d"><path d="M26 24s-1 0-1-1v-8s0-1 1-1h6c1 0 2 2 2 5s-1 5-2 5h-6z"/></clipPath><clipPath id="e"><path d="M0 36h36V0H0v36z"/></clipPath></defs><g clip-path="url(#a)" transform="matrix(1.25 0 0 -1.25 0 45)"><path d="M36 11s0-4-4-4H4s-4 0-4 4v15c0 4 4 4 4 4h28s4 0 4-4V11z" fill="#292f33"/><path d="M4 24h6s1 0 1-1v-8s0-1-1-1H4c-1 0-2 2-2 5s1 5 2 5" fill="#ccd6dd"/></g><g clip-path="url(#b)" transform="matrix(1.25 0 0 -1.25 0 45)"><path d="M18 19a7 7 0 1 0-14.001.001A7 7 0 0 0 18 19"/><path d="M14 19a3 3 0 1 0-6 0 3 3 0 0 0 6 0" fill="#66757f"/></g><g clip-path="url(#c)" transform="matrix(1.25 0 0 -1.25 0 45)"><path d="M32 24h-6s-1 0-1-1v-8s0-1 1-1h6c1 0 2 2 2 5s-1 5-2 5" fill="#ccd6dd"/></g><g clip-path="url(#d)" transform="matrix(1.25 0 0 -1.25 0 45)"><path d="M32 19c0-3.867-3.133-7-7-7s-7 3.133-7 7a7 7 0 1 0 14 0"/><path d="M28 19a3 3 0 1 0-6 0 3 3 0 0 0 6 0" fill="#66757f"/></g><g clip-path="url(#e)" transform="matrix(1.25 0 0 -1.25 0 45)"><path d="M13 22s0 1 1 1h8s1 0 1-1v-6s0-1-1-1h-8s-1 0-1 1v6z" fill="#88c9f9"/><path d="M34 10a1 1 0 0 0-1-1H3a1 1 0 1 0 0 2h30a1 1 0 0 0 1-1"/></g></svg>