<svg xmlns="http://www.w3.org/2000/svg" viewBox="0 0 45 45"><defs><clipPath id="a"><path d="M0 36h36V0H0v36z"/></clipPath></defs><g clip-path="url(#a)" transform="matrix(1.25 0 0 -1.25 0 45)"><path d="M35 18c0 9.389-7.611 17-16.999 17-9.389 0-17-7.611-17-17s7.611-17 17-17C27.389 1 35 8.611 35 18"/><path d="M13 5s-3 0-3 3v20s0 3 3 3h10s3 0 3-3V8s0-3-3-3H13z" fill="#fff"/><path d="M12 9h12v18H12V9z"/><path d="M29.68 7.088L7.089 29.678C9.949 32.353 13.778 34 17.999 34c8.838 0 16-7.163 16-16 0-4.223-1.647-8.053-4.32-10.912M18 2C9.165 2 2.002 9.163 2.002 18c0 3.712 1.276 7.12 3.397 9.835L27.835 5.398A15.906 15.906 0 0 0 18 2m0 34C8.06 36 0 27.94 0 18 0 8.059 8.06 0 18 0c9.942 0 18 8.059 18 18 0 9.94-8.058 18-18 18" fill="#dd2e44"/></g></svg>