<svg xmlns="http://www.w3.org/2000/svg" viewBox="0 0 45 45"><defs><clipPath id="a"><path d="M0 36h36V0H0v36z"/></clipPath></defs><g clip-path="url(#a)" transform="matrix(1.25 0 0 -1.25 0 45)"><path d="M18 12a6 6 0 1 0 0 11.999A6 6 0 1 0 18 12m0 16c-5.523 0-10-4.477-10-10.001C8 12.477 12.477 8 18 8s10 4.477 10 9.999C28 23.523 23.523 28 18 28M20 31a2 2 0 1 1-4 0 2 2 0 0 1 4 0M20 5a2 2 0 1 0-3.999-.001A2 2 0 0 0 20 5" fill="#ffac33"/><path d="M10.222 28.606a2 2 0 1 1-2.828-2.828 2 2 0 0 1 2.828 2.828M28.606 10.222a2 2 0 1 0-2.827-2.828 2 2 0 0 0 2.827 2.828M5 20a2 2 0 1 1 0-4 2 2 0 0 1 0 4M31 20a2 2 0 1 0 .001-3.999A2 2 0 0 0 31 20M28.605 25.778a2 2 0 1 1-2.829 2.83 2 2 0 0 1 2.83-2.83M10.222 7.394a2 2 0 1 0-2.828 2.827 2 2 0 0 0 2.828-2.827" fill="#ffac33"/></g></svg>