<svg xmlns="http://www.w3.org/2000/svg" viewBox="0 0 45 45"><defs><clipPath id="a"><path d="M0 36h36V0H0v36z"/></clipPath></defs><g clip-path="url(#a)" transform="matrix(1.25 0 0 -1.25 0 45)"><path d="M24 32a4 4 0 0 0-4-4h-4a4 4 0 0 0 0 8h4a4 4 0 0 0 4-4" fill="#ccd6dd"/><path d="M30 4a4 4 0 0 0-4-4H10a4 4 0 0 0-4 4v24a4 4 0 0 0 4 4h16a4 4 0 0 0 4-4V4z" fill="#e1e8ed"/><path d="M30 4H6v24h24V4z" fill="#77b255"/><path d="M23 22h-3v3a1 1 0 0 1-1 1h-2a1 1 0 0 1-1-1v-3h-3a1 1 0 0 1-1-1v-2a1 1 0 0 1 1-1h3v-3a1 1 0 0 1 1-1h2a1 1 0 0 1 1 1v3h3a1 1 0 0 1 1 1v2a1 1 0 0 1-1 1M13 6a1 1 0 0 0-1 1v2a1 1 0 0 0 1 1h10a1 1 0 0 0 1-1V7a1 1 0 0 0-1-1H13z" fill="#f5f8fa"/></g></svg>