<svg xmlns="http://www.w3.org/2000/svg" viewBox="0 0 45 45"><defs><clipPath id="a"><path d="M0 36h36V0H0v36z"/></clipPath></defs><g clip-path="url(#a)" transform="matrix(1.25 0 0 -1.25 0 45)"><path d="M25.485 13.344l-3.71 3.71A11.935 11.935 0 0 1 24 24c0 6.628-5.373 12-12 12-6.628 0-12-5.372-12-12 0-6.627 5.372-12 12-12 2.591 0 4.984.83 6.945 2.227l3.712-3.711 2.828 2.828z" fill="#9aaab4"/><path d="M20 24a8 8 0 0 0-8-8 8 8 0 0 0-8 8 8 8 0 0 0 8 8 8 8 0 0 0 8-8" fill="#bdddf4"/><path d="M34.727 6.828l-8.484 8.484a1.998 1.998 0 0 1-2.828 0l-2.83-2.828a2 2 0 0 1 0-2.828l2.83-2.828 5.655-5.656a4 4 0 1 1 5.657 5.656" fill="#67757f"/></g></svg>