<svg xmlns="http://www.w3.org/2000/svg" viewBox="0 0 45 45"><defs><clipPath id="a"><path d="M0 36h36V0H0v36z"/></clipPath></defs><g clip-path="url(#a)" transform="matrix(1.25 0 0 -1.25 0 45)"><path d="M36 4a4 4 0 0 0-4-4H4a4 4 0 0 0-4 4v28a4 4 0 0 0 4 4h28a4 4 0 0 0 4-4V4z" fill="#3b88c3"/><path d="M30.2 26L23 32v-4h-8C9.477 28 5 23.523 5 18c0-1.414.297-2.758.827-3.977l3.3 2.75A6 6 0 0 0 15 24h8v-4l7.2 6zM30.174 21.977l-3.301-2.75A6 6 0 0 0 21 12h-8v4l-7.2-6L13 4v4h8c5.523 0 10 4.477 10 10a9.965 9.965 0 0 1-.826 3.977" fill="#fff"/></g></svg>