<svg xmlns="http://www.w3.org/2000/svg" viewBox="0 0 45 45"><defs><clipPath id="a"><path d="M0 36h36V0H0v36z"/></clipPath></defs><g clip-path="url(#a)" transform="matrix(1.25 0 0 -1.25 0 45)"><path d="M11.858 19.736a1.003 1.003 0 0 0 0-1.414 1.003 1.003 0 0 0-1.414 0L1.96 26.808a1.003 1.003 0 0 0 0 1.414 1.004 1.004 0 0 0 1.414 0l8.485-8.486zM18.93 26.807a1.003 1.003 0 0 0 0-1.414 1.003 1.003 0 0 0-1.414 0L9.03 33.88a1.003 1.003 0 0 0 0 1.414 1.004 1.004 0 0 0 1.414 0l8.486-8.486z" fill="#9aaab4"/><path d="M34 0c0 4.966-2.56 8.581-4.561 10.65.898 1.533.704 3.53-.611 4.844l-1.098 1.099c.351 1.332.021 2.806-1.023 3.85l-4.949 4.95a2.001 2.001 0 0 1-2.829 2.829l-2.826-2.826-.003-.003-4.243-4.243-2.828-2.828a2 2 0 1 1 2.828-2.828l4.951-4.95c1.044-1.044 2.518-1.373 3.849-1.021l1.101-1.101a3.99 3.99 0 0 1 4.857-.602C28.099 6.274 30 3.596 30 0h4z" fill="#292f33"/></g></svg>