<svg xmlns="http://www.w3.org/2000/svg" viewBox="0 0 45 45"><defs><clipPath id="a"><path d="M0 36h36V0H0v36z"/></clipPath></defs><g clip-path="url(#a)" transform="matrix(1.25 0 0 -1.25 0 45)"><path d="M4 0a4 4 0 0 0-4 4v28a4 4 0 0 0 4 4h28a4 4 0 0 0 4-4V4a4 4 0 0 0-4-4H4z" fill="#3b88c3"/><path d="M26 5.8l6 7.2h-4v8c0 5.523-4.477 10-10 10a9.949 9.949 0 0 1-3.977-.827l2.75-3.3A6 6 0 0 0 24 21v-8h-4l6-7.2zM21.977 5.826l-2.75 3.301A6 6 0 0 0 12 15v8h4l-6 7.2L4 23h4v-8C8 9.477 12.479 5 18 5c1.415 0 2.759.297 3.978.826" fill="#fff"/></g></svg>