<svg xmlns="http://www.w3.org/2000/svg" viewBox="0 0 45 45"><defs><clipPath id="a"><path d="M0 36h36V0H0v36z"/></clipPath></defs><g clip-path="url(#a)" transform="matrix(1.25 0 0 -1.25 0 45)"><path d="M36 4a4 4 0 0 0-4-4H4a4 4 0 0 0-4 4v28a4 4 0 0 0 4 4h28a4 4 0 0 0 4-4V4z" fill="#3b88c3"/><path d="M22.242 13.758l2.83-2.83c-3.906-3.904-10.238-3.903-14.144.002a9.974 9.974 0 0 0-2.854 8.225l-4.037-.367C3.822 14.947 5.165 11.035 8.1 8.1c5.467-5.467 14.332-5.468 19.8 0l2.827-2.828.85 9.334-9.335-.85zM27.9 27.9c-5.469 5.467-14.332 5.467-19.8 0l-2.828 2.828-.849-9.334 9.334.849-2.829 2.828c3.906 3.906 10.237 3.906 14.142 0a9.97 9.97 0 0 0 2.855-8.225l4.036.366c.216 3.84-1.127 7.753-4.062 10.688" fill="#fff"/></g></svg>