<svg xmlns="http://www.w3.org/2000/svg" viewBox="0 0 45 45"><defs><clipPath id="a"><path d="M0 36h36V0H0v36z"/></clipPath></defs><g clip-path="url(#a)" transform="matrix(1.25 0 0 -1.25 0 45)"><path d="M2 26s-2 0-2-2V12c0-2 2-2 2-2h6l8-8s1-1 2-1h1s1 0 1 1v32s0 1-1 1h-1c-1 0-2-1-2-1l-8-8H2z" fill="#8899a6"/><path d="M8 10l8-8s1-1 2-1h1s1 0 1 1v32s0 1-1 1h-1c-1 0-2-1-2-1l-8-8V10z" fill="#ccd6dd"/><path d="M29 3.981a.945.945 0 0 0-.614 1.666 16.126 16.126 0 0 1 5.668 12.29c0 4.74-2.067 9.22-5.669 12.29a.946.946 0 1 0 1.228 1.44 18.012 18.012 0 0 0 6.333-13.73 18.012 18.012 0 0 0-6.332-13.729.937.937 0 0 0-.614-.227" fill="#8899a6"/><path d="M26.27 7.041a.928.928 0 0 0-.592 1.645A12.038 12.038 0 0 1 30.072 18c0 3.573-1.572 6.943-4.311 9.245a.929.929 0 0 0 1.196 1.422A13.904 13.904 0 0 0 31.929 18c0-4.172-1.847-8.089-5.07-10.746a.918.918 0 0 0-.59-.213" fill="#8899a6"/><path d="M23.709 10.041a1 1 0 0 0-.636 1.773A7.977 7.977 0 0 1 26 18a7.968 7.968 0 0 1-2.988 6.236 1 1 0 1 0 1.254 1.558A9.96 9.96 0 0 0 28 18a9.972 9.972 0 0 0-3.657-7.731.99.99 0 0 0-.634-.228" fill="#8899a6"/></g></svg>