<svg xmlns="http://www.w3.org/2000/svg" viewBox="0 0 45 45"><defs><clipPath id="a"><path d="M0 36h36V0H0v36z"/></clipPath></defs><g clip-path="url(#a)" transform="matrix(1.25 0 0 -1.25 0 45)"><path d="M36 4a4 4 0 0 0-4-4H4a4 4 0 0 0-4 4v28a4 4 0 0 0 4 4h28a4 4 0 0 0 4-4V4z" fill="#3b88c3"/><path d="M12.953 20.283c.549 1.394 1.234 2.86 2.175 4.142C13.95 25.935 12.35 27 10 27H7v-4h3c1.307 0 2.119-.896 2.953-2.717M19.48 14.86c-.479-1.315-1.059-2.778-1.852-4.133C18.718 9.681 20.118 9 22 9h3v4h-3c-1.083 0-1.823.62-2.52 1.86" fill="#fff"/><path d="M10 9H7v4h3c1.884 0 2.739 1.816 4.117 5.673C15.441 22.383 17.09 27 22 27h3v-4h-3c-1.885 0-2.739-1.817-4.117-5.673C16.559 13.617 14.91 9 10 9" fill="#fff"/><path d="M30.2 25L23 31V19l7.2 6zM30.2 11L23 17V5l7.2 6z" fill="#fff"/></g></svg>