<svg xmlns="http://www.w3.org/2000/svg" viewBox="0 0 45 45"><defs><clipPath id="a"><path d="M0 36h36V0H0v36z"/></clipPath></defs><g clip-path="url(#a)" transform="matrix(1.25 0 0 -1.25 0 45)"><path d="M36 4a4 4 0 0 0-4-4H4a4 4 0 0 0-4 4v28a4 4 0 0 0 4 4h28a4 4 0 0 0 4-4V4z" fill="#3b88c3"/><path d="M30.174 21.977l-3.301-2.75A6 6 0 0 0 21 12h-1.058A9.18 9.18 0 0 0 20 11c0-1.054-.19-2.06-.523-3H21c5.523 0 10 4.477 10 10a9.965 9.965 0 0 1-.826 3.977M30.2 26L23 32v-4h-8C9.477 28 5 23.523 5 18c0-.099.012-.194.014-.292a8.958 8.958 0 0 0 4.273 2.125A6.003 6.003 0 0 0 15 24h8v-4l7.2 6zM17 11a6 6 0 1 1-12 0 6 6 0 0 1 12 0" fill="#fff"/><path d="M10.201 12.884h-.708c-.576 0-.815.42-.815.828 0 .419.3.827.815.827h1.703c.516 0 .804-.371.804-.851V7.936c0-.6-.384-.936-.9-.936-.515 0-.899.336-.899.936v4.948z" fill="#3b88c3"/></g></svg>