<svg xmlns="http://www.w3.org/2000/svg" viewBox="0 0 45 45"><defs><clipPath id="a"><path d="M0 36h36V0H0v36z"/></clipPath></defs><g clip-path="url(#a)" transform="matrix(1.25 0 0 -1.25 0 45)"><path d="M13 33C7.477 33 3 28.521 3 23V13h4v10a6 6 0 0 0 6 6 6 6 0 0 0 6-6V13h4v10c0 5.522-4.477 10-10 10" fill="#aab8c2"/><path d="M26 4a4 4 0 0 0-4-4H4a4 4 0 0 0-4 4v12a4 4 0 0 0 4 4h18a4 4 0 0 0 4-4V4z" fill="#ffac33"/><path d="M32 14l-16 3.999L5 11h12.184A2.99 2.99 0 0 0 20 13a3 3 0 0 0 0-6 2.99 2.99 0 0 0-2.816 2H5l11-7 16 4-1 4 1 4z" fill="#66757f"/><path d="M36 18h-3c-.55 0-1.201-.402-1.447-.894l-3.106-6.211c-.246-.492-.246-1.297 0-1.79l3.106-6.21C31.799 2.403 32.45 2 33 2h3V18z" fill="#292f33"/></g></svg>