<svg xmlns="http://www.w3.org/2000/svg" viewBox="0 0 45 45"><defs><clipPath id="a"><path d="M0 36h36V0H0v36z"/></clipPath></defs><g clip-path="url(#a)" transform="matrix(1.25 0 0 -1.25 0 45)"><path d="M34 33H12.475v1.872c0 1.046-.741 1.434-1.645.865L.69 29.348c-.905-.57-.922-1.527-.038-2.128l10.216-6.93c.883-.602 1.607-.236 1.607.81V23H34a2 2 0 0 1 2 2v6a2 2 0 0 1-2 2M.088 13.085c0 1.03.515 1.791 1.606 1.791h5.11c.988 0 1.461-.7 1.461-1.421 0-.7-.494-1.421-1.462-1.421H3.178V9.026h3.378c1.01 0 1.503-.699 1.503-1.421 0-.699-.515-1.419-1.503-1.419H3.178V3.055h3.81c.99 0 1.463-.701 1.463-1.421 0-.701-.495-1.422-1.463-1.422H1.674C.768.212.088.829.088 1.756v11.329zM9.507 13.394c0 1.029.659 1.606 1.544 1.606.392 0 1.03-.31 1.298-.68l6.529-8.711h.04v7.785c0 1.029.66 1.606 1.546 1.606s1.545-.577 1.545-1.606v-11.7c0-1.03-.66-1.606-1.545-1.606-.391 0-1.01.309-1.297.68l-6.53 8.609h-.041V1.695c0-1.031-.66-1.607-1.545-1.607-.885 0-1.544.576-1.544 1.607v11.699zM26.836 3.055h2.08c2.656 0 3.872 1.957 3.872 4.429 0 2.636-1.235 4.55-4.078 4.55h-1.874v-8.98zm-3.09 10.235c0 .949.659 1.586 1.586 1.586h3.419c4.612 0 7.249-2.965 7.249-7.537C36 3.013 33.199.212 28.957.212h-3.584c-.68 0-1.627.37-1.627 1.544V13.29z" fill="#67757f"/></g></svg>