<svg xmlns="http://www.w3.org/2000/svg" viewBox="0 0 45 45"><defs><clipPath id="a"><path d="M0 36h36V0H0v36z"/></clipPath></defs><g clip-path="url(#a)" transform="matrix(1.25 0 0 -1.25 0 45)"><path d="M25.71 25.133L18.78 35.348c-.601.885-1.558.867-2.127-.037l-6.39-10.141c-.57-.904-.18-1.644.865-1.644H13V20a2 2 0 0 1 2-2h6a2 2 0 0 1 2 2v3.526h1.899c1.046 0 1.414.722.812 1.607M3.651 12.425H1.438c-.975 0-1.38.712-1.38 1.4 0 .71.507 1.4 1.38 1.4h7.47c.873 0 1.381-.69 1.381-1.4 0-.688-.406-1.4-1.382-1.4H6.695V2.235c0-1.015-.649-1.583-1.522-1.583s-1.522.568-1.522 1.584v10.189zM21.194 8c0 2.456-1.279 4.67-3.816 4.67-2.538 0-3.817-2.214-3.817-4.67 0-2.476 1.24-4.668 3.817-4.668 2.578 0 3.816 2.192 3.816 4.668M10.395 8c0 4.222 2.841 7.471 6.983 7.471 4.08 0 6.982-3.351 6.982-7.471 0-4.201-2.82-7.471-6.982-7.471-4.12 0-6.983 3.27-6.983 7.471M28.673 8.244h2.07c1.279 0 2.09.934 2.09 2.151 0 1.22-.811 2.153-2.09 2.153h-2.07V8.244zm-3.046 5.4c0 .954.569 1.581 1.585 1.581h3.59c2.986 0 5.198-1.947 5.198-4.85 0-2.963-2.293-4.81-5.074-4.81h-2.253v-3.33c0-1.015-.65-1.584-1.521-1.584-.875 0-1.525.57-1.525 1.584v11.408z" fill="#67757f"/></g></svg>