<svg xmlns="http://www.w3.org/2000/svg" viewBox="0 0 45 45"><defs><clipPath id="a"><path d="M0 36h36V0H0v36z"/></clipPath></defs><g clip-path="url(#a)" transform="matrix(1.25 0 0 -1.25 0 45)"><path d="M36 4a4 4 0 0 0-4-4H4a4 4 0 0 0-4 4v28a4 4 0 0 0 4 4h28a4 4 0 0 0 4-4V4z" fill="#3b88c3"/><path d="M7.213 25.025H5.255C3.663 25.025 3 26.187 3 27.314c0 1.16.83 2.288 2.255 2.288h4.71c1.426 0 2.223-1.028 2.223-2.354V8.373c0-1.658-1.06-2.586-2.488-2.586-1.425 0-2.487.928-2.487 2.586v16.652zM27.586 17.794c0 2.52-.232 7.696-3.616 7.696-3.383 0-3.615-5.175-3.615-7.696 0-2.355.232-7.695 3.615-7.695 3.384 0 3.616 5.34 3.616 7.695m-12.406 0C15.18 23.2 17.27 30 23.97 30c6.7 0 8.79-6.8 8.79-12.206S30.67 5.587 23.97 5.587c-6.7 0-8.79 6.8-8.79 12.207" fill="#f5f8fa"/></g></svg>