<svg xmlns="http://www.w3.org/2000/svg" viewBox="0 0 45 45"><defs><clipPath id="a"><path d="M0 36h36V0H0v36z"/></clipPath></defs><g clip-path="url(#a)" transform="matrix(1.25 0 0 -1.25 0 45)"><path d="M13 33c-5.523 0-10-4.477-10-9.999V13h4v10.001a6 6 0 0 0 12 0V13h4v10.001C23 28.523 18.523 33 13 33" fill="#aab8c2"/><path d="M26 4a4 4 0 0 0-4-4H4a4 4 0 0 0-4 4v12a4 4 0 0 0 4 4h18a4 4 0 0 0 4-4V4z" fill="#ffac33"/><path d="M26 34a2 2 0 1 0 0-4 2 2 0 0 0 0 4m9-7a9 9 0 0 1-9 9 9 9 0 0 1-9-9c0-3.918 2.507-7.24 6-8.478V2.5a2.5 2.5 0 0 1 4.95-.49c.018 0 .032-.01.05-.01a1 1 0 0 1 1 1v1a1 1 0 0 1-1 1v1a1 1 0 0 1 1 1v2a1 1 0 0 1-1 1v2.278c.596.347 1 .985 1 1.723v4.522c3.493 1.238 6 4.56 6 8.478" fill="#c1694f"/></g></svg>