<svg xmlns="http://www.w3.org/2000/svg" viewBox="0 0 45 45"><defs><clipPath id="a"><path d="M0 36h36V0H0v36z"/></clipPath></defs><g clip-path="url(#a)" transform="matrix(1.25 0 0 -1.25 0 45)"><path d="M35 10a4 4 0 0 0-4-4H5a4 4 0 0 0-4 4v19.687C1 31.896 6.791 36 9 36h20.625C32.719 36 35 33.687 35 30.625V10z" fill="#aab8c2"/><path d="M33 6a4 4 0 0 0-4-4H7a4 4 0 0 0-4 4v24c0 4.119-.021 4 5 4h21a4 4 0 0 0 4-4V6z" fill="#f5f8fa"/><path d="M31 5a3 3 0 0 0-3-3H4a3 3 0 0 0-3 3v24a3 3 0 0 0 3 3h24a3 3 0 0 0 3-3V5z" fill="#fff"/><path d="M31 4a4 4 0 0 0-4-4H6a4 4 0 0 0-4 4v22a4 4 0 0 0 4 4h21a4 4 0 0 0 4-4V4z" fill="#aab8c2"/><path d="M29 4a4 4 0 0 0-4-4H6a4 4 0 0 0-4 4v20a4 4 0 0 0 4 4h19.335C27.544 28 29 26.544 29 24.335V4z" fill="#e1e8ed"/><path d="M6 30c-1.687 0-1.731 1.922-1 2.75.832.941 2.125 1.25 4.438 1.25H11v2H8.281C4.313 36 1 33.5 1 30.625V4a4 4 0 0 1 4-4h2v30H6z" fill="#aab8c2"/><path d="M17 32V9l4 6 4-6v23h-8z" fill="#dd2e44"/><path d="M17 32V9l4 6 4-6v23h-8z" fill="none" stroke="#dd2e44" stroke-width="2" stroke-linecap="round" stroke-linejoin="round" stroke-miterlimit="10"/><path d="M27 32H15v2h12v-2z" fill="#f5f8fa"/></g></svg>