<svg xmlns="http://www.w3.org/2000/svg" viewBox="0 0 45 45"><defs><clipPath id="a"><path d="M0 36h36V0H0v36z"/></clipPath></defs><g clip-path="url(#a)" transform="matrix(1.25 0 0 -1.25 0 45)"><path d="M35.31 29.348l-10.14 6.39c-.905.568-1.645.18-1.645-.866V33H2a2 2 0 0 1-2-2v-6a2 2 0 0 1 2-2h21.526v-1.898c0-1.047.722-1.413 1.607-.812l10.215 6.932c.885.6.867 1.557-.037 2.127M6.303 8.737c0-.537-.357-1.018-.92-1.018-.564 0-1.003.413-1.827.413-.59 0-1.126-.317-1.126-.893 0-1.414 4.587-.509 4.587-4.052C7.017 1.223 5.397 0 3.501 0 2.443 0 .163.248.163 1.54c0 .534.357.974.92.974.646 0 1.415-.536 2.308-.536.907 0 1.401.51 1.401 1.182 0 1.62-4.588.644-4.588 3.832 0 1.923 1.58 3.118 3.407 3.118.77 0 2.692-.288 2.692-1.373M14.823 5.056c0 1.66-.866 3.159-2.582 3.159-1.717 0-2.582-1.498-2.582-3.16 0-1.675.837-3.158 2.582-3.158 1.744 0 2.582 1.483 2.582 3.159m-7.307 0c0 2.855 1.922 5.055 4.725 5.055 2.76 0 4.725-2.268 4.725-5.055 0-2.844-1.91-5.056-4.725-5.056-2.789 0-4.725 2.212-4.725 5.056M24.744 5.056c0 1.66-.864 3.159-2.58 3.159-1.719 0-2.583-1.498-2.583-3.16 0-1.675.838-3.158 2.582-3.158 1.743 0 2.581 1.483 2.581 3.159m-7.306 0c0 2.855 1.923 5.055 4.725 5.055 2.76 0 4.725-2.268 4.725-5.055 0-2.844-1.91-5.056-4.725-5.056-2.789 0-4.725 2.212-4.725 5.056M27.662 8.956c0 .688.44 1.072 1.03 1.072.261 0 .687-.206.866-.454l4.353-5.809h.028v5.191c0 .688.44 1.072 1.032 1.072.59 0 1.03-.384 1.03-1.072V1.154c0-.687-.44-1.072-1.03-1.072-.263 0-.675.206-.867.454L29.75 6.277h-.027V1.154c0-.687-.44-1.072-1.03-1.072-.59 0-1.03.385-1.03 1.072v7.802z" fill="#67757f"/></g></svg>