<svg xmlns="http://www.w3.org/2000/svg" viewBox="0 0 45 45"><defs><clipPath id="a"><path d="M0 36h36V0H0v36z"/></clipPath></defs><g clip-path="url(#a)" transform="matrix(1.25 0 0 -1.25 0 45)"><path d="M35.31 29.348l-10.14 6.39c-.905.568-1.645.18-1.645-.866V33h-11.05v1.873c0 1.046-.74 1.434-1.644.865L.689 29.348c-.904-.57-.922-1.527-.037-2.127l10.215-6.932c.884-.602 1.607-.234 1.607.812V23h11.051v-1.898c0-1.047.722-1.413 1.607-.812l10.215 6.932c.885.6.867 1.557-.037 2.127M11.788 8.014c0 2.635-1.372 5.01-4.094 5.01-2.72 0-4.094-2.375-4.094-5.01 0-2.656 1.33-5.008 4.094-5.008 2.765 0 4.094 2.352 4.094 5.008m-11.584 0c0 4.529 3.048 8.014 7.49 8.014 4.377 0 7.491-3.594 7.491-8.014C15.185 3.508 12.158 0 7.695 0 3.274 0 .204 3.508.204 8.014M16.413 14.198c0 1.09.696 1.7 1.632 1.7.415 0 1.09-.328 1.373-.72l6.902-9.21h.045v8.23c0 1.09.694 1.7 1.633 1.7.936 0 1.633-.61 1.633-1.7V1.83c0-1.088-.697-1.697-1.633-1.697-.415 0-1.067.326-1.372.716l-6.903 9.102h-.044v-8.12c0-1.089-.698-1.698-1.634-1.698-.936 0-1.632.61-1.632 1.697v12.368zM32.557 14.547c0 .914.673 1.48 1.567 1.48.87 0 1.568-.587 1.568-1.48V6.163c0-.893-.697-1.48-1.568-1.48-.894 0-1.567.565-1.567 1.48v8.384zm-.131-12.848c0 .936.762 1.7 1.698 1.7.936 0 1.699-.764 1.699-1.7 0-.935-.763-1.7-1.7-1.7-.935 0-1.697.765-1.697 1.7" fill="#67757f"/></g></svg>