<svg xmlns="http://www.w3.org/2000/svg" viewBox="0 0 45 45"><defs><clipPath id="a"><path d="M0 36h36V0H0v36z"/></clipPath></defs><g clip-path="url(#a)" transform="matrix(1.25 0 0 -1.25 0 45)"><path d="M30.883 27.39a2.45 2.45 0 0 0-3.464 3.465 2.45 2.45 0 0 0 3.464-3.464m1.732 5.195c-4.304 4.305-11.283 4.305-15.587 0-3.391-3.391-4.098-8.44-2.144-12.535l-3.916-3.915a2.439 2.439 0 0 1-.625-2.36l-1.974-1.971a1.219 1.219 0 0 1-1.731 0l-1.732-1.732a1.225 1.225 0 0 1 0-1.732l-.866-.864a1.224 1.224 0 0 1-1.731 0l-.866-.867a1.225 1.225 0 0 1 0-1.732c.015-.015.036-.02.05-.033A3.06 3.06 0 0 1 6.205.982L20.08 14.856C24.176 12.9 29.223 13.609 32.615 17c4.302 4.303 4.302 11.282 0 15.585" fill="#c1694f"/></g></svg>