<svg xmlns="http://www.w3.org/2000/svg" viewBox="0 0 45 45"><defs><clipPath id="a"><path d="M0 36h36V0H0v36z"/></clipPath></defs><g clip-path="url(#a)" transform="matrix(1.25 0 0 -1.25 0 45)"><path d="M15 27l6 6s6 6 12 0 0-12 0-12l-8-8s-6-6-12 0c-1.125 1.125-1.822 2.62-1.822 2.62l3.353 3.348S14.396 17.604 16 16c0 0 3-3 6 0l8 8s3 3 0 6-6 0-6 0l-3.729-3.729s-1.854 1.521-5.646.354L15 27z" fill="#8899a6"/><path d="M20.845 9l-6-6s-6-6-12 0 0 12 0 12l8 8s6 6 12 0c1.125-1.125 1.822-2.62 1.822-2.62l-3.353-3.349s.135 1.365-1.47 2.969c0 0-3 3-6 0l-8-8s-3-3 0-6 6 0 6 0l3.73 3.73s1.854-1.521 5.646-.355L20.845 9z" fill="#8899a6"/></g></svg>