<svg xmlns="http://www.w3.org/2000/svg" viewBox="0 0 45 45"><defs><clipPath id="a"><path d="M0 36h36V0H0v36z"/></clipPath></defs><g clip-path="url(#a)" transform="matrix(1.25 0 0 -1.25 0 45)"><path d="M28 23c0-11 5-10 5-15 0 0 0-2-2-2H5C3 6 3 8 3 8c0 5 5 4 5 15 0 5.522 4.477 10 10 10s10-4.478 10-10" fill="#ffac33"/><path d="M21 33a3 3 0 1 1-6 0 3 3 0 0 1 6 0M18 0a4 4 0 0 1 4 4h-8a4 4 0 0 1 4-4" fill="#ffac33"/><path d="M31.003 2.997L3.997 30.003a1.41 1.41 0 0 0 0 1.994l.006.006a1.41 1.41 0 0 0 1.994 0L33.003 4.997a1.41 1.41 0 0 0 0-1.994l-.006-.006a1.41 1.41 0 0 0-1.994 0" fill="#dd2e44"/></g></svg>