<svg xmlns="http://www.w3.org/2000/svg" viewBox="0 0 45 45"><defs><clipPath id="a"><path d="M0 36h36V0H0v36z"/></clipPath></defs><g clip-path="url(#a)" transform="matrix(1.25 0 0 -1.25 0 45)"><path d="M34.999 18.001c0-9.389-7.611-17-17-17s-17 7.611-17 17 7.611 17 17 17 17-7.611 17-17"/><path d="M9.521 23.755H7.85c-1.358 0-1.924.991-1.924 1.953 0 .99.707 1.951 1.924 1.951h4.019c1.216 0 1.896-.876 1.896-2.007V9.548c0-1.414-.906-2.207-2.122-2.207-1.217 0-2.122.793-2.122 2.207v14.207zM21.78 22.114c0-1.273.735-2.151 2.036-2.151 1.302 0 2.067.878 2.067 2.15 0 1.218-.737 2.152-2.067 2.152s-2.037-.934-2.037-2.151m-.538-8.206c0-1.443.85-2.832 2.575-2.832 1.612 0 2.576 1.389 2.576 2.832 0 1.784-1.02 2.83-2.576 2.83-1.64 0-2.575-1.246-2.575-2.83m-4.414-.283c0 2.264 1.245 3.934 3.027 4.895-1.33.963-2.15 2.265-2.15 4.047 0 3.31 2.745 5.433 6.112 5.433 3.283 0 6.14-2.093 6.14-5.433 0-1.584-.79-3.17-2.178-4.047 1.924-.961 3.027-2.715 3.027-4.895 0-3.933-3.197-6.451-6.989-6.451-3.905 0-6.989 2.658-6.989 6.45" fill="#f5f8fa"/><path d="M2 18c0 3.968 1.453 7.591 3.844 10.387L28.388 5.844A15.926 15.926 0 0 0 18 2C9.164 2 2 9.163 2 18m32 0c0-3.969-1.453-7.592-3.845-10.389L7.612 30.155A15.927 15.927 0 0 0 18 34c8.837 0 16-7.164 16-16M18 36C8.059 36 0 27.94 0 18 0 8.059 8.059 0 18 0s18 8.059 18 18c0 9.94-8.059 18-18 18" fill="#dd2e44"/></g></svg>