<svg xmlns="http://www.w3.org/2000/svg" viewBox="0 0 45 45"><defs><clipPath id="a"><path d="M0 36h36V0H0v36z"/></clipPath></defs><g clip-path="url(#a)" transform="matrix(1.25 0 0 -1.25 0 45)"><path d="M33 19.938c0-8.318-6.744-15.063-15.063-15.063-8.318 0-15.062 6.744-15.062 15.063C2.875 28.255 9.619 35 17.937 35 26.256 35 33 28.256 33 19.938" fill="#8ccaf7"/><path d="M30 3a2 2 0 0 0-2-2H8a2 2 0 0 0-2 2v4a2 2 0 0 0 2 2h20a2 2 0 0 0 2-2V3z" fill="#bf6952"/><path d="M27 22a4 4 0 1 0-8 0 4 4 0 0 0 8 0M18 16a3 3 0 1 0-6 0 3 3 0 0 0 6 0M18 29a2 2 0 1 0-3.999-.001A2 2 0 0 0 18 29" fill="#5dadec"/></g></svg>