<svg xmlns="http://www.w3.org/2000/svg" viewBox="0 0 45 45"><defs><clipPath id="a"><path d="M0 36h36V0H0v36z"/></clipPath></defs><g clip-path="url(#a)" transform="matrix(1.25 0 0 -1.25 0 45)"><path d="M36 4a4 4 0 0 0-4-4H4a4 4 0 0 0-4 4v28a4 4 0 0 0 4 4h28a4 4 0 0 0 4-4V4z" fill="#3b88c3"/><path d="M8.213 24.281h3.61l-1.767 5.51h-.038l-1.805-5.51zm-.209 6.896c.323.874 1.064 1.577 2.033 1.577 1.007 0 1.71-.665 2.032-1.577l3.724-10.334a2.22 2.22 0 0 0 .152-.704c0-.74-.608-1.253-1.31-1.253-.798 0-1.198.417-1.388.988l-.57 1.785h-5.28l-.57-1.766c-.19-.59-.59-1.007-1.368-1.007-.76 0-1.406.57-1.406 1.33 0 .303.095.531.133.627l3.818 10.334zM11.054 16.754c1.387 0 4.085-.456 4.085-2.127 0-.685-.476-1.273-1.178-1.273-.78 0-1.311.665-2.907.665-2.355 0-3.571-1.995-3.571-4.313 0-2.261 1.235-4.198 3.57-4.198 1.597 0 2.243.798 3.022.798.855 0 1.253-.856 1.253-1.292 0-1.824-2.868-2.241-4.274-2.241-3.856 0-6.535 3.058-6.535 6.99 0 3.952 2.66 6.99 6.535 6.99M23.252 21.508h2.241c1.027 0 1.786.589 1.786 1.652 0 .893-.684 1.5-2.013 1.5h-2.014v-3.152zm0 5.66h1.48c.932 0 1.54.552 1.54 1.502 0 .893-.704 1.349-1.54 1.349h-1.48v-2.85zm-2.85 3.933c0 .912.627 1.425 1.5 1.425h3.648c1.975 0 3.571-1.33 3.571-3.343 0-1.33-.551-2.223-1.766-2.793v-.038c1.615-.228 2.887-1.576 2.887-3.23 0-2.678-1.785-4.122-4.407-4.122h-3.913c-.874 0-1.52.55-1.52 1.444V31.1zM22.748 5.622h1.918c2.451 0 3.572 1.805 3.572 4.084 0 2.432-1.14 4.198-3.761 4.198h-1.729V5.622zm-2.85 9.44c0 .875.608 1.463 1.463 1.463h3.154c4.254 0 6.686-2.735 6.686-6.952C31.201 5.584 28.618 3 24.705 3h-3.307c-.627 0-1.5.342-1.5 1.425v10.637z" fill="#fff"/></g></svg>