<svg xmlns="http://www.w3.org/2000/svg" viewBox="0 0 45 45"><defs><clipPath id="a"><path d="M0 36h36V0H0v36z"/></clipPath></defs><g clip-path="url(#a)" transform="matrix(1.25 0 0 -1.25 0 45)"><path d="M36 4a4 4 0 0 0-4-4H4a4 4 0 0 0-4 4v28a4 4 0 0 0 4 4h28a4 4 0 0 0 4-4V4z" fill="#3b88c3"/><path d="M7.977 14.28c1.425 0 2.11 1.443 2.11 2.754s-.666 2.792-2.11 2.792c-1.5 0-2.166-1.48-2.166-2.792 0-1.31.684-2.755 2.166-2.755m4.844-.607c0-.704 0-1.786-1.31-1.786-.799 0-1.12.436-1.31 1.16-.704-.837-1.559-1.275-2.604-1.275-2.565 0-4.52 2.186-4.52 5.263 0 3.001 2.012 5.3 4.52 5.3 1.007 0 1.995-.399 2.603-1.254.076.665.646 1.14 1.311 1.14 1.31 0 1.31-1.083 1.31-1.786v-6.762zM19.263 14.28c1.425 0 2.128 1.481 2.128 2.754 0 1.292-.703 2.792-2.128 2.792-1.463 0-2.146-1.367-2.146-2.697s.645-2.85 2.146-2.85M14.38 25.11c0 .911.57 1.52 1.367 1.52.798 0 1.369-.609 1.369-1.52v-3.725c.72.627 1.652.95 2.602.95 2.944 0 4.407-2.754 4.407-5.414 0-2.584-1.747-5.149-4.503-5.149-.93 0-1.994.418-2.506 1.254-.171-.722-.608-1.139-1.37-1.139-.796 0-1.366.608-1.366 1.52v11.702zM32.087 19.295c-.684 0-1.292.532-2.165.532-1.56 0-2.3-1.387-2.3-2.793 0-1.348.818-2.755 2.3-2.755.684 0 1.709.57 2.032.57.647 0 1.178-.55 1.178-1.197 0-1.405-2.356-1.88-3.344-1.88-2.944 0-4.901 2.413-4.901 5.262 0 2.774 2.014 5.3 4.9 5.3 1.084 0 3.345-.398 3.345-1.728 0-.57-.4-1.311-1.045-1.311" fill="#fff"/></g></svg>