<svg xmlns="http://www.w3.org/2000/svg" viewBox="0 0 45 45"><defs><clipPath id="a"><path d="M0 36h36V0H0v36z"/></clipPath></defs><g clip-path="url(#a)" transform="matrix(1.25 0 0 -1.25 0 45)"><path d="M20 16a3 3 0 1 0-6 0 3 3 0 0 0 6 0" fill="#9aaab4"/><path d="M19.235 18.941a1.003 1.003 0 0 0-1.353-.412L5.528 25.117c-.485.26-.67.867-.41 1.353l2.822 5.295c.26.485.868.67 1.353.411l12.353-6.588c.485-.258.671-.867.412-1.353l-2.823-5.294zM31.177 13.707a1.004 1.004 0 0 0-1.354-.412l-9.705 5.176a1.003 1.003 0 0 0-.412 1.353l1.882 3.529c.259.485.868.67 1.354.412l9.705-5.176c.485-.259.67-.868.412-1.354l-1.882-3.528z" fill="#da2f47"/><path d="M21 18l-1.765.941 2.824 5.294 1.764-.94L21 18z" fill="#bb1a34"/><path d="M32.47 11.883l-3.528 1.882 2.823 5.295 3.529-1.883-2.823-5.294z" fill="#9d0522"/><path d="M8.294 28.176l1.882 3.53-.88.47-.002.001-4.412 2.352a1.002 1.002 0 0 1-1.353-.412L.706 28.822a1.003 1.003 0 0 1 .411-1.353l3.53-1.88 1.765-.943.47.882 1.412 2.648zM23 11a2 2 0 0 0-2-2h-8a2 2 0 0 0 0 4h8a2 2 0 0 0 2-2" fill="#292f33"/><path d="M9.467 0l3.344 7.152a2 2 0 1 1-3.623 1.694L5.051 0h4.416zM24.532 0h4.416l-4.137 8.846a2 2 0 0 1-3.623-1.694L24.532 0zM19 0v8a2 2 0 1 1-4 0V0h4z" fill="#9aaab4"/></g></svg>