<svg xmlns="http://www.w3.org/2000/svg" viewBox="0 0 45 45"><defs><clipPath id="a"><path d="M0 36h36V0H0v36z"/></clipPath></defs><g clip-path="url(#a)" transform="matrix(1.25 0 0 -1.25 0 45)"><path d="M14.976 25.929a2 2 0 0 0 0-2.828l-2.828-2.828a2 2 0 0 0-2.83-.001L.835 28.758a2 2 0 0 0 0 2.828l2.829 2.828a1.999 1.999 0 0 0 2.828 0l8.485-8.485z" fill="#292f33"/><path d="M21.512 3.886C28.582-.357 35 1 35 1s1 0 .654 1c0 0-2.154 5.5-17.654 21-1 1-2.243.882-3.024.1L8.586 17a2 2 0 0 1 0-2.828L21.512 3.886z" fill="#ccd6dd"/></g></svg>