<svg xmlns="http://www.w3.org/2000/svg" viewBox="0 0 45 45"><defs><clipPath id="a"><path d="M0 36h36V0H0v36z"/></clipPath><clipPath id="b"><path d="M23 23L13 13c-1-1 0-2 0-2l3-3c1-1 2 0 2 0l10 10c1 1 0 2 0 2l-3 3c-.333.334-.666.445-.963.445C23.445 23.445 23 23 23 23"/></clipPath><clipPath id="c"><path d="M0 36h36V0H0v36z"/></clipPath><clipPath id="d"><path d="M11 35L1 25c-1-1 0-2 0-2l3-3c1-1 2 0 2 0l10 10c1 1 0 2 0 2l-3 3c-.334.333-.667.445-.963.445C11.444 35.444 11 35 11 35"/></clipPath></defs><g clip-path="url(#a)" transform="matrix(1.25 0 0 -1.25 0 45)"><path d="M35.353 5.354L10 30.707 5.292 26 30.646.645c.061-.06.613-.59 1.391-.59.474 0 .93.203 1.316.59l2 2c.544.544.993 1.714 0 2.707" fill="#8899a6"/><path d="M30 1a1 1 0 0 0-.948 1.316l2 6a.996.996 0 0 0 1.264.632.998.998 0 0 0 .632-1.264l-2-6A.999.999 0 0 0 30 1M27 4a1 1 0 0 0-.948 1.316l2 6a.995.995 0 0 0 1.264.632.998.998 0 0 0 .632-1.264l-2-6A.999.999 0 0 0 27 4M24 7a1 1 0 0 0-.948 1.316l2 6a.996.996 0 0 0 1.264.632.998.998 0 0 0 .632-1.264l-2-6A.999.999 0 0 0 24 7M21 10a1 1 0 0 0-.948 1.316l2 6a1 1 0 0 0 1.896-.632l-2-6A.999.999 0 0 0 21 10M16 15a1 1 0 0 0-.949 1.316l2 6a1 1 0 1 0 1.898-.632l-2-6A1.001 1.001 0 0 0 16 15M13 18a1 1 0 0 0-.949 1.317l2 6a1 1 0 1 0 1.898-.633l-2-6A1.001 1.001 0 0 0 13 18M10 21a1 1 0 0 0-.949 1.317l2 6a1 1 0 1 0 1.898-.633l-2-6A1.001 1.001 0 0 0 10 21" fill="#66757f"/><path d="M13 11s-1 1 0 2l10 10s1 1 2 0l3-3s1-1 0-2L18 8s-1-1-2 0l-3 3z" fill="#ccd6dd"/></g><g clip-path="url(#b)" transform="matrix(1.25 0 0 -1.25 0 45)"><path d="M14 16l7.5-7.5L18 5l-7.292 7.292L14 16z" fill="#8899a6"/><path d="M20 22l7-7 3.5 3.5-6.479 6.48L20 22z" fill="#e1e8ed"/></g><g clip-path="url(#c)" transform="matrix(1.25 0 0 -1.25 0 45)"><path d="M1 23s-1 1 0 2l10 10s1 1 2 0l3-3s1-1 0-2L6 20s-1-1-2 0l-3 3z" fill="#ccd6dd"/></g><g clip-path="url(#d)" transform="matrix(1.25 0 0 -1.25 0 45)"><path d="M2 28l7.5-7.5L6 17l-7.292 7.292L2 28z" fill="#8899a6"/><path d="M8 34l7-7 3.5 3.5-6.479 6.479L8 34z" fill="#e1e8ed"/></g></svg>