<svg xmlns="http://www.w3.org/2000/svg" viewBox="0 0 45 45"><defs><clipPath id="a"><path d="M0 36h36V0H0v36z"/></clipPath><clipPath id="b"><path d="M17.583 26.833c-2.957-.231-5.666 2.542-4.666 7.042-3.238-2.386-3.333-6.402-2.334-9 1.042-2.709-.041-4.959-2.583-5.208-2.839-.28-4.416 3.042-2.962 8.333A16.93 16.93 0 0 1 1 17C1 7.611 8.611 0 18 0s17 7.611 17 17c0 2.063-.367 4.039-1.04 5.868-.46-5.388-3.333-8.158-6.335-6.868-2.813 1.208-.917 5.917-.777 8.164.236 3.809-.012 8.169-6.931 11.795 2.875-5.5.333-8.918-2.334-9.126"/></clipPath></defs><g clip-path="url(#a)" transform="matrix(1.25 0 0 -1.25 0 45)"><path d="M35 17c0 2.063-.367 4.039-1.04 5.868-.46-5.388-3.333-8.157-6.335-6.868-2.813 1.208-.917 5.917-.777 8.164.236 3.809-.012 8.169-6.931 11.794 2.875-5.5.333-8.916-2.334-9.125-2.957-.23-5.666 2.542-4.666 7.042-3.238-2.386-3.333-6.402-2.334-9 1.042-2.708-.041-4.958-2.583-5.208-2.839-.28-4.417 3.041-2.962 8.333A16.936 16.936 0 0 1 1 17C1 7.611 8.611 0 18 0s17 7.611 17 17" fill="#f4900c"/></g><g clip-path="url(#b)" transform="matrix(1.25 0 0 -1.25 0 45)"><path d="M30 6c0 2.186-.584 4.236-1.605 6.001.147-3.084-2.562-4.293-4.02-3.709-2.105.843-1.541 2.291-2.083 5.291-.542 3-2.625 5.084-5.709 6 2.25-6.333-1.247-8.667-3.08-9.084-1.872-.426-3.753.001-3.968 4.007A11.967 11.967 0 0 1 6 6C6-.627 11.373-6 18-6S30-.627 30 6" fill="#ffcc4d"/></g></svg>