<svg xmlns="http://www.w3.org/2000/svg" viewBox="0 0 45 45"><defs><clipPath id="a"><path d="M0 36h36V0H0v36z"/></clipPath></defs><g clip-path="url(#a)" transform="matrix(1.25 0 0 -1.25 0 45)"><path d="M27.989 16.023a7.963 7.963 0 0 1-1.806-.213L15.81 26.182a8.02 8.02 0 0 1 .212 1.806A8.012 8.012 0 0 1 8.012 36c-.902 0-2.102-.916-1.103-1.915l2.997-2.997s.998-1.997-1-3.995c-1.997-1.998-3.995-.999-3.995-.999l-2.996 2.997c-1 1-1.915-.196-1.915-1.103a8.012 8.012 0 0 1 8.012-8.012c.622 0 1.225.078 1.806.213L20.19 9.817a7.963 7.963 0 0 1-.213-1.806 8.011 8.011 0 0 1 8.012-8.01c.9 0 2.1.915 1.102 1.913l-2.996 2.997s-1 1.998.999 3.995c1.997 1.998 3.995 1 3.995 1l2.996-2.997C35.084 5.91 36 7.105 36 8.011a8.012 8.012 0 0 1-8.011 8.012" fill="#8899a6"/></g></svg>