<svg xmlns="http://www.w3.org/2000/svg" viewBox="0 0 45 45"><defs><clipPath id="a"><path d="M0 36h36V0H0v36z"/></clipPath></defs><g clip-path="url(#a)" transform="matrix(1.25 0 0 -1.25 0 45)"><path d="M36 4a4 4 0 0 0-4-4H4a4 4 0 0 0-4 4v28a4 4 0 0 0 4 4h28a4 4 0 0 0 4-4V4z" fill="#3b88c3"/><path d="M9.372 14.588c-.494 0-1.14-.38-1.14-.95s.266-.911 1.007-1.633c.57.285 1.387.798 1.387 1.48 0 .857-.76 1.103-1.254 1.103M8.137 9.44c-.855-.551-1.634-1.215-1.634-2.298 0-1.198.817-1.863 1.976-1.863 1.026 0 1.691.418 2.413 1.103L8.137 9.44zm4.693-1.197l.74.855c.494.57.836.874 1.444.874.551 0 1.045-.475 1.045-1.196 0-.513-.437-1.122-1.045-1.805l-.474-.514 1.291-1.462c.266-.305.418-.514.418-.95 0-.646-.608-1.272-1.33-1.272-.437 0-.722.132-1.006.436l-1.31 1.368c-1.236-1.083-2.49-1.804-4.18-1.804-2.547 0-4.655 1.443-4.655 4.102 0 1.88 1.311 3.268 2.87 4.123-.743.74-1.255 1.5-1.255 2.565 0 2.166 2.032 3.19 3.99 3.19 1.71 0 3.875-.968 3.875-2.981 0-1.52-1.197-2.698-2.413-3.325l1.995-2.204zM30.33 5.831c0 .607-.36 1.14-.987 1.14s-.988-.533-.988-1.14c0-.608.361-1.12.988-1.12s.987.512.987 1.12m-3.913 0c0 1.652 1.235 3.077 2.926 3.077 1.69 0 2.925-1.425 2.925-3.077 0-1.653-1.235-3.059-2.925-3.059-1.69 0-2.926 1.406-2.926 3.06M28.26 16.26c.247.474.437.608.874.608.59 0 1.12-.476 1.12-1.063 0-.153 0-.286-.152-.57L23.72 3.284c-.284-.399-.399-.627-.854-.627-.494 0-1.084.475-1.084 1.045 0 .285.114.551.191.703L28.26 16.26zm-4.616-2.583c0 .607-.36 1.14-.988 1.14-.627 0-.988-.533-.988-1.14 0-.609.361-1.12.988-1.12s.988.511.988 1.12m-3.914 0c0 1.652 1.235 3.077 2.926 3.077 1.69 0 2.925-1.425 2.925-3.077 0-1.654-1.235-3.059-2.925-3.059-1.69 0-2.926 1.405-2.926 3.06M17 30H3v3h14v-3zM17 27H3v-3h5v-5h4v5h5v3zM32 31l-5 2v-8.203c-.538.126-1.19.203-2 .203-2 0-4-2-4-4 0-1 1-2 3-2 3 0 5 2 5 4v6.2l3-1.2v3z" fill="#fff"/></g></svg>