<svg xmlns="http://www.w3.org/2000/svg" viewBox="0 0 45 45"><defs><clipPath id="a"><path d="M0 36h36V0H0v36z"/></clipPath></defs><g clip-path="url(#a)" transform="matrix(1.25 0 0 -1.25 0 45)"><path d="M36 4a4 4 0 0 0-4-4H4a4 4 0 0 0-4 4v28a4 4 0 0 0 4 4h28a4 4 0 0 0 4-4V4z" fill="#3b88c3"/><path d="M10.828 21.28c1.425 0 2.11 1.444 2.11 2.754s-.666 2.793-2.11 2.793c-1.5 0-2.165-1.482-2.165-2.793 0-1.31.683-2.754 2.165-2.754m4.844-.608c0-.703 0-1.786-1.31-1.786-.799 0-1.12.437-1.31 1.159-.704-.836-1.559-1.273-2.604-1.273-2.565 0-4.52 2.185-4.52 5.262 0 3.002 2.012 5.3 4.52 5.3 1.007 0 1.995-.398 2.603-1.253.076.665.646 1.14 1.31 1.14 1.311 0 1.311-1.083 1.311-1.786v-6.763zM14.182 10.295c-.684 0-1.292.532-2.166.532-1.558 0-2.298-1.387-2.298-2.793 0-1.348.817-2.755 2.298-2.755.684 0 1.71.57 2.033.57.646 0 1.178-.55 1.178-1.197 0-1.405-2.356-1.88-3.344-1.88-2.945 0-4.901 2.413-4.901 5.262 0 2.774 2.014 5.3 4.9 5.3 1.084 0 3.345-.398 3.345-1.728 0-.57-.4-1.311-1.045-1.311M25.208 21.28c1.425 0 2.128 1.48 2.128 2.754 0 1.292-.703 2.793-2.128 2.793-1.463 0-2.146-1.368-2.146-2.697 0-1.33.645-2.85 2.146-2.85m-4.882 10.828c0 .912.57 1.52 1.367 1.52.798 0 1.369-.608 1.369-1.52v-3.723c.721.627 1.652.95 2.602.95 2.944 0 4.407-2.755 4.407-5.414 0-2.584-1.747-5.15-4.503-5.15-.929 0-1.994.419-2.506 1.255-.171-.722-.609-1.14-1.369-1.14-.797 0-1.367.608-1.367 1.52v11.702zM24.79 10.827c-1.425 0-2.128-1.5-2.128-2.793 0-1.272.703-2.755 2.128-2.755 1.501 0 2.147 1.521 2.147 2.85 0 1.33-.684 2.698-2.147 2.698m4.882-6.42c0-.913-.57-1.52-1.367-1.52-.76 0-1.198.417-1.368 1.138-.513-.835-1.578-1.253-2.507-1.253-2.755 0-4.503 2.565-4.503 5.148 0 2.66 1.463 5.414 4.407 5.414a3.96 3.96 0 0 0 2.603-.949v3.722c0 .913.57 1.521 1.368 1.521.797 0 1.367-.608 1.367-1.52V4.405z" fill="#fff"/></g></svg>