<svg xmlns="http://www.w3.org/2000/svg" viewBox="0 0 45 45"><defs><clipPath id="a"><path d="M0 36h36V0H0v36z"/></clipPath></defs><g clip-path="url(#a)" transform="matrix(1.25 0 0 -1.25 0 45)"><path d="M23 19l1 1s1 1 2 0l2-2s1-1 0-2l-1-1-4 4z" fill="#66757f"/><path d="M34.879 8.121a3.01 3.01 0 0 0 0-4.242L32.12 1.121a3.01 3.01 0 0 0-4.242 0L9.12 19.88a3.01 3.01 0 0 0 0 4.242l2.758 2.758a3.01 3.01 0 0 0 4.242 0L34.879 8.121z" fill="#8899a6"/><path d="M20.879 25.121a3.01 3.01 0 0 0 0-4.242l-5.758-5.758a3.01 3.01 0 0 0-4.242 0l-4.88 4.88s-1 1 0 2l8 8c1 1 2 0 2 0l4.88-4.88z" fill="#66757f"/><path d="M7 19l10 10 2-2L9 17l-2 2z" fill="#8899a6"/><path d="M11.001 30a1 1 0 0 0-.896.553l-2 4a1.001 1.001 0 0 0 1.79.894l1.999-4A1 1 0 0 0 11.001 30M4.999 24c-.15 0-.303.034-.446.105l-4 2a1.001 1.001 0 0 0 .894 1.79l4-2A1 1 0 0 0 4.999 24M8 27a.997.997 0 0 0-.707.293l-4 4a.999.999 0 1 0 1.414 1.414l4-4A.999.999 0 0 0 8 27" fill="#ffcc4d"/></g></svg>