<svg xmlns="http://www.w3.org/2000/svg" viewBox="0 0 45 45"><defs><clipPath id="a"><path d="M0 36h36V0H0v36z"/></clipPath></defs><g clip-path="url(#a)" transform="matrix(1.25 0 0 -1.25 0 45)"><path d="M7 13.734h-.01L7 13.73v.004zM29.063 13.73a.126.126 0 0 1 .01.003.165.165 0 0 0-.01.001v-.004z" fill="#ffcc4d"/><path d="M35.905 16.387c-1.774-1.072-3.839-1.978-6.833-2.653.017-.002.082-.01.046-.02-.268-.068-.41-.135-.687-.197-1.046-.204-2.587-.296-2.08 1.095l2.131 2.906L29 17l4.5 4.5L29 26l-4.5-4.5 2.55-2.551-2.22-3.03-.002.003c-1.672-2-4.78-1.328-4.78 1.078H20v6l5.5 5.5L18 36l-7.5-7.5L16 23v-6.19c-.164-2.246-3.14-2.832-4.766-.888l-.002-.002-2.247 3.065L11.5 21.5 7 26l-4.5-4.5L7 17l.553.554 2.158-2.942c.507-1.391-1.035-1.3-2.08-1.095-.275.062-.419.129-.687.197-.036.01.028.018.045.02-2.994.675-5.058 1.58-6.832 2.653-.008-.151-.095-.301-.095-.455 0-3.482 6.245-10.923 14.623-12.586L18 .016l3.345 3.33C29.725 5.009 36 12.45 36 15.932c0 .154-.087.304-.095.455" fill="#ffcc4d"/></g></svg>