<svg xmlns="http://www.w3.org/2000/svg" viewBox="0 0 45 45"><defs><clipPath id="a"><path d="M0 36h36V0H0v36z"/></clipPath></defs><g clip-path="url(#a)" transform="matrix(1.25 0 0 -1.25 0 45)"><path d="M17 0a1.99 1.99 0 0 0-1.414.586l-11 11A2 2 0 0 0 4 13v21a2 2 0 0 0 3.414 1.414L17 25.829l9.586 9.585A1.998 1.998 0 0 0 30 34V13a2 2 0 0 0-.586-1.414l-11-11A1.99 1.99 0 0 0 17 0" fill="#66757f"/><path d="M17 23l11 11V13L17 2v21z" fill="#47ded4"/><path d="M6 34l11-11V2L6 13v21z" fill="#ffff87"/></g></svg>