<svg xmlns="http://www.w3.org/2000/svg" viewBox="0 0 45 45"><defs><clipPath id="a"><path d="M0 36h36V0H0v36z"/></clipPath><clipPath id="b"><path d="M5 36a4 4 0 0 1-4-4V4a4 4 0 0 1 4-4h30v32a4 4 0 0 1-4 4H5z"/></clipPath></defs><g clip-path="url(#a)" transform="matrix(1.25 0 0 -1.25 0 45)"><path d="M24 36H5a4 4 0 0 1-4-4V0h23v36z" fill="#292f33"/></g><g clip-path="url(#b)" transform="matrix(1.25 0 0 -1.25 0 45)"><path d="M22 0h14v36H22V0z" fill="#141414"/><path d="M22 23H0v4h22v-4z" fill="#ffd983"/><path d="M36 23H22v4h14v-4z" fill="#ffac33"/><path d="M14 0H6v8a2 2 0 0 0 2 2h4a2 2 0 0 0 2-2V0z" fill="#ffd983"/></g></svg>