<svg xmlns="http://www.w3.org/2000/svg" viewBox="0 0 45 45"><defs><clipPath id="a"><path d="M0 36h36V0H0v36z"/></clipPath></defs><g clip-path="url(#a)" transform="matrix(1.25 0 0 -1.25 0 45)"><path d="M.794 19.888c1 0 5.875-1.344 6.5-2.313l-1.281.125s-3.907 1.25-4.907 1.25-.312.938-.312.938" fill="#5c913b"/><path d="M11 34c1-1 3-7 3-10s-2-6 2-8 5.001 1 5.001 5S20 29 19 31s-2 0-2 0-1 4-2 4-1-2-1-2-2 2-3 2 0-1 0-1" fill="#99aab5"/><path d="M10 21c3 0 4-4 6-4s1 3 3 3 10 5 10 11 3 3 3 1c1 0 2-1.586 2-3 0-1 0-2-1-3 1 0 2-2 1-3 1-3-1-6-3-7 0-1-2-3-4-2 0 0-1-3-3-2 0 0 3.051-1.684 4-2 3-1 7-1 7-1s0-1-2-2c0 0 1-1 0-2s-2-1-2-1 1-2-2-1-6 4-6 4-5-1-9 1-6 6-6 8-3 1-4 1 2 2 3 2c0 0 0 2 3 2" fill="#ccd6dd"/><path d="M6.95 17.981s5.437-2.625 7.937-6.656c1.901-3.065 2.782-8.657 2.782-8.657s.043-.564-.906 2.282c-1 3-2.217 6.288-4.313 8.187-3.344 3.032-4.75 3.5-6.062 4.25-.332.19.218.688.562.594" fill="#5c913b"/><path d="M16.198 7.46s2.038-.103 3.107-2.139c1.068-2.036-.053-4.914-.053-4.914s-2.75 1.268-3.462 2.948c-.712 1.679.408 4.105.408 4.105M14.065 12.238s1.274-1.436 3.558-1.705c2.284-.269 4.121 1.38 4.121 1.38s-2.144 1.97-3.969 2.032c-1.823.064-3.71-1.707-3.71-1.707M10.018 15.386s-2.015-.33-2.85-2.472.425-4.01.425-4.01 2.533.848 3.054 2.597c.522 1.747-.629 3.885-.629 3.885" fill="#5c913b"/></g></svg>