<svg xmlns="http://www.w3.org/2000/svg" viewBox="0 0 45 45"><defs><clipPath id="a"><path d="M0 36h36V0H0v36z"/></clipPath></defs><g clip-path="url(#a)" transform="matrix(1.25 0 0 -1.25 0 45)"><path d="M36 4a4 4 0 0 0-4-4H4a4 4 0 0 0-4 4v28a4 4 0 0 0 4 4h28a4 4 0 0 0 4-4V4z" fill="#9266cc"/><path d="M23.69 29.406l-2.597 2.405c-.026-.024-2.421-2.466-2.421-2.466l2.553-2.384s1.914 1.847 2.465 2.445m-7.48.198c-.047-.075.313-6.076 5.448-6.076 3.68 0 6.533 2.018 6.707 2.192.108.107-1.71 2.832-1.803 2.84-.116.01-2.69-2.42-4.9-2.42-3.54 0-5.327 3.247-5.451 3.464" fill="#fff"/><path d="M7.292 23.64l1.88-3.062s2.466 1.79 4.842 1.79c1.98 0 2.222-1.097 2.222-1.664 0-.568-.52-2.767-5.546-1.914.092-.61.457-2.68 1.615-4.05.883.092 4.448.55 4.448-2.801 0-3.046-3.108-3.351-3.657-3.351-.548 0-4.631-.396-7.952 7.86-.152-.608-.244-2.985.945-5.97 1.188-2.986 3.473-6.085 7.099-6.085 3.625 0 7.952 2.607 5.21 9.607h1.98c1.097 0 2.102.356 3.108 2.946.83 2.142 1.95 3.225 2.925 3.225.67 0 2.559-.078 2.559-4.405 0-3.88-1.828-5.623-3.737-5.65-1.764-.026-3.597 1.47-4.124 2.948 0 0-.304-5.91 4.043-6.16 5.819-.337 5.89 6.005 5.89 7.164 0 2.838-.792 8.747-5.15 8.747-3.777 0-4.691-2.193-5.605-3.807-.914-1.615-1.737-3.808-4.997-2.072 1.554.854 2.986 2.408 2.986 4.358 0 1.95-.701 4.63-4.48 4.905-3.777.274-6.504-2.56-6.504-2.56" fill="#fff"/></g></svg>