<svg xmlns="http://www.w3.org/2000/svg" viewBox="0 0 45 45"><defs><clipPath id="a"><path d="M0 36h36V0H0v36z"/></clipPath></defs><g clip-path="url(#a)" transform="matrix(1.25 0 0 -1.25 0 45)"><path d="M36 4a4 4 0 0 0-4-4H4a4 4 0 0 0-4 4v28a4 4 0 0 0 4 4h28a4 4 0 0 0 4-4V4z" fill="#9266cc"/><path d="M18 11c-7.732 0-14 6.268-14 14H2C2 16.163 9.163 9 18 9s16 7.163 16 16h-2c0-7.732-6.268-14-14-14" fill="#fff"/><path d="M18 16a9 9 0 0 0-9 9H7c0-6.075 4.925-11 11-11s11 4.925 11 11h-2a9 9 0 0 0-9-9" fill="#fff"/><path d="M18 21a4 4 0 0 0-4 4h-2a6 6 0 0 1 12 0h-2a4 4 0 0 0-4-4" fill="#fff"/><path d="M19 4h-2v21h2V4zM19 32h-2v-5h2v5zM14 32h-2v-5h2v5zM9 32H7v-5h2v5zM4 32H2v-5h2v5zM24 32h-2v-5h2v5zM29 32h-2v-5h2v5zM34 32h-2v-5h2v5zM27 3a1 1 0 0 0-1-1H10a1 1 0 1 0 0 2h16a1 1 0 0 0 1-1" fill="#fff"/><path d="M24 4a2 2 0 0 0-2-2h-8a2 2 0 0 0 0 4h8a2 2 0 0 0 2-2" fill="#fff"/></g></svg>