<svg xmlns="http://www.w3.org/2000/svg" viewBox="0 0 45 45"><defs><clipPath id="a"><path d="M0 36h36V0H0v36z"/></clipPath></defs><path d="M12.5 11.25V45h20V11.25l-10-10-10 10z" fill="#a7a9ac"/><g clip-path="url(#a)" transform="matrix(1.25 0 0 -1.25 0 45)"><path d="M10 27l8 8 8-8" fill="none" stroke="#292f33" stroke-width="2" stroke-linecap="round" stroke-linejoin="round"/><path d="M11 0H4a2 2 0 0 0-2 2v14a2 2 0 0 0 2 2h5a2 2 0 0 0 2-2V0z" fill="#d1d3d4"/><path d="M12 16.215a1.993 1.993 0 0 1-.515 1.914L7.95 21.664a2 2 0 0 1-2.828 0l-3.536-3.535a1.993 1.993 0 0 1-.514-1.914H12z" fill="#67757f"/><path d="M11 15H2v1h9v-1zM25 0h7a2 2 0 0 1 2 2v14a2 2 0 0 1-2 2h-5a2 2 0 0 1-2-2V0z" fill="#d1d3d4"/><path d="M34.935 16.215a1.99 1.99 0 0 1-.515 1.914l-3.536 3.535a2 2 0 0 1-2.828 0l-3.535-3.535a1.988 1.988 0 0 1-.514-1.914h10.928z" fill="#67757f"/><path d="M25 15h9v1h-9v-1z" fill="#d1d3d4"/><path d="M12 16.215a1 1 0 0 0-1-1H2a1 1 0 1 0 0 2h9a1 1 0 0 0 1-1M35 16.215a1 1 0 0 0-1-1h-9a1 1 0 1 0 0 2h9a1 1 0 0 0 1-1" fill="#292f33"/><path d="M17.8 16c-.694 0-1.33.388-1.704 1.038l-.672 1.173h-1.58c-.714 0-1.34.346-1.676.926-.346.596-.327 1.343.05 1.999l.765 1.335-.765 1.336c-.377.657-.396 1.404-.05 2 .336.579.963.924 1.675.924h1.581l.671 1.172c.375.652 1.012 1.039 1.704 1.039.67 0 1.295-.368 1.674-.984l.757-1.227h1.856c.725 0 1.355-.353 1.684-.944.337-.603.3-1.354-.1-2.006l-.81-1.31.808-1.309c.401-.651.44-1.401.101-2.007-.329-.591-.958-.944-1.683-.944h-1.855l-.76-1.231c-.377-.613-1.003-.98-1.672-.98" fill="#67757f"/><path d="M20.288 20.207l.811 1.314.811-1.315-1.622.001zm-2.486-2.13l-.65 1.133h1.35l-.7-1.133zm-3.814 2.131l.722 1.26.722-1.26h-1.444zm0 4.528l1.445-.001-.723-1.261-.723 1.262zm3.814 2.13l.7-1.134h-1.35l.65 1.134zm2.712-4.395l-1.397-2.263h-2.536l-1.297 2.264 1.297 2.263 2.536-.001 1.397-2.263zm1.396 2.262l-.81-1.313-.81 1.314 1.62-.001zm-.225-2.262l1.132 1.835c.212.344.241.707.08.995-.153.274-.448.43-.81.43h-2.414l-1.052 1.705c-.198.322-.498.507-.822.507-.336 0-.64-.196-.836-.536l-.959-1.675h-2.16c-.358 0-.654-.156-.81-.427-.167-.286-.148-.652.051-1l1.051-1.833-1.05-1.834c-.2-.347-.219-.712-.053-1 .157-.271.453-.427.811-.427h2.16l.96-1.674c.195-.341.5-.537.835-.537.324 0 .624.185.822.506l1.053 1.705h2.412c.363 0 .658.158.81.43.162.29.133.652-.079.996l-1.132 1.834z" fill="#ffcc4d"/><path d="M13.987 24.735l3.814-6.658 4.11 6.655-7.924.003zM17.8 17c-.336 0-.64.195-.836.536l-3.878 6.768c-.2.348-.219.714-.052 1 .157.271.452.427.81.427h8.243c.363 0 .658-.157.81-.43.161-.289.133-.652-.079-.996l-4.196-6.799c-.198-.322-.499-.506-.822-.506" fill="#ffcc4d"/><path d="M13.988 20.209l7.922-.002-4.108 6.658-3.814-6.656zm8.098-.998h-8.243c-.358 0-.653.155-.81.427-.167.288-.148.652.052 1l3.878 6.768c.196.341.5.536.836.536.323 0 .624-.185.822-.507l4.196-6.798c.212-.344.24-.706.08-.995-.153-.274-.448-.431-.81-.431" fill="#ffcc4d"/><path d="M21 2h-6v6.469h6V2z" fill="#67757f"/><path d="M21 8.5C21 7.119 19.657 6 18 6s-3 1.119-3 2.5 1.343 2.5 3 2.5 3-1.119 3-2.5" fill="#67757f"/><path d="M26 0H10v2h16V0z" fill="#d1d3d4"/><path d="M8 7.215c0-.828-.671 1-1.5 1S5 6.387 5 7.215v4.5a1.5 1.5 0 1 0 3 0v-4.5zM31 7.215c0-.828-.672 1-1.5 1s-1.5-1.828-1.5-1v4.5a1.5 1.5 0 0 0 3 0v-4.5z" fill="#67757f"/></g></svg>