<svg xmlns="http://www.w3.org/2000/svg" viewBox="0 0 45 45"><defs><clipPath id="a"><path d="M0 36h36V0H0v36z"/></clipPath></defs><g clip-path="url(#a)" transform="matrix(1.25 0 0 -1.25 0 45)"><path d="M23 31.674c0-4.368-9.837-6.652-9.837-13.206 0-2.184 1.085-4.468 2.177-4.468h15.291c1.093 0 2.192 2.284 2.192 4.468 0 6.554-9.823 8.838-9.823 13.206" fill="#f4900c"/><path d="M35 2.185C35 .978 34.711 0 32.815 0H13.156C11.26 0 11 .978 11 2.185v10.922c0 1.206.26 1.893 2.156 1.893h19.659C34.711 15 35 14.313 35 13.107V2.185z" fill="#ffd983"/><path d="M23 2a2 2 0 0 0-2-2H3a2 2 0 0 0-2 2v1a2 2 0 0 0 2 2h18a2 2 0 0 0 2-2V2z" fill="#ffd983"/><path d="M26 7c0 3-1.895 5-3 5-1.104 0-3-2-3-5V0h6v7zM18 4.667C18 6.667 16.736 8 16 8s-2-1.333-2-3.333V0h4v4.667zM32 4.667C32 6.667 30.736 8 30 8s-2-1.333-2-3.333V0h4v4.667z" fill="#662113"/><path d="M9 2a2 2 0 0 0-2-2H5a2 2 0 0 0-2 2v26a2 2 0 0 0 2 2h2a2 2 0 0 0 2-2V2z" fill="#ffd983"/><path d="M5.995 35.674c0-1.837-2.832-2.918-2.832-5.675 0-.919.312-1.999.627-1.999h4.402c.314 0 .631 1.08.631 2 0 2.756-2.828 3.837-2.828 5.674" fill="#f4900c"/><path d="M10 24a1 1 0 0 0-1-1H3a1 1 0 0 0 0 2h6a1 1 0 0 0 1-1M10 28a1 1 0 0 0-1-1H3a1 1 0 0 0 0 2h6a1 1 0 0 0 1-1" fill="#ffac33"/></g></svg>