<svg xmlns="http://www.w3.org/2000/svg" viewBox="0 0 45 45"><defs><clipPath id="a"><path d="M0 36h36V0H0v36z"/></clipPath></defs><g clip-path="url(#a)" transform="matrix(1.25 0 0 -1.25 0 45)"><path d="M0 18C0 8.06 8.059 0 18 0s18 8.06 18 18c0 9.941-8.059 18-18 18S0 27.941 0 18" fill="#99aab5"/><path d="M4 18c0-7.731 6.268-14 14-14s14 6.269 14 14c0 7.732-6.268 14-14 14S4 25.732 4 18" fill="#e1e8ed"/><path d="M17 18a1 1 0 1 1 2 0v11a1 1 0 1 1-2 0V18z" fill="#66757f"/><path d="M13 9.339a1.002 1.002 0 0 1 1.367.366l4.5 7.795a.999.999 0 0 1-.367 1.365.998.998 0 0 1-1.365-.365l-4.5-7.795A1 1 0 0 1 13 9.339" fill="#66757f"/></g></svg>