<svg xmlns="http://www.w3.org/2000/svg" viewBox="0 0 45 45"><defs><clipPath id="a"><path d="M0 36h36V0H0v36z"/></clipPath></defs><g clip-path="url(#a)" transform="matrix(1.25 0 0 -1.25 0 45)"><path d="M0 18C0 8.06 8.059 0 18 0s18 8.06 18 18c0 9.941-8.059 18-18 18S0 27.941 0 18" fill="#99aab5"/><path d="M32 18c0-7.732-6.268-14-14-14S4 10.268 4 18s6.268 14 14 14 14-6.268 14-14" fill="#e1e8ed"/><path d="M18 17a1 1 0 0 0-1 1v12a1 1 0 0 0 2 0V18a1 1 0 0 0-1-1" fill="#67757f"/><path d="M18.001 17a1 1 0 0 0-.896.553l-4 8a1 1 0 0 0 1.789.894l4-8A1 1 0 0 0 18.001 17" fill="#67757f"/></g></svg>