<svg xmlns="http://www.w3.org/2000/svg" viewBox="0 0 45 45"><defs><clipPath id="a"><path d="M0 36h36V0H0v36z"/></clipPath></defs><g clip-path="url(#a)" transform="matrix(1.25 0 0 -1.25 0 45)"><path d="M36 18c0-9.94-8.059-18-18-18S0 8.06 0 18c0 9.941 8.059 18 18 18s18-8.059 18-18" fill="#99aab5"/><path d="M32 18c0-7.731-6.268-14-14-14S4 10.269 4 18c0 7.732 6.268 14 14 14s14-6.268 14-14" fill="#e1e8ed"/><path d="M19 18a1 1 0 1 0-2 0v11a1 1 0 0 0 2 0V18z" fill="#66757f"/><path d="M28 18a1 1 0 0 0-1-1h-9a1 1 0 0 0 0 2h9a1 1 0 0 0 1-1" fill="#66757f"/></g></svg>