<svg xmlns="http://www.w3.org/2000/svg" viewBox="0 0 45 45"><defs><clipPath id="a"><path d="M0 36h36V0H0v36z"/></clipPath></defs><g clip-path="url(#a)" transform="matrix(1.25 0 0 -1.25 0 45)"><path d="M20 14.5a1.5 1.5 0 0 0-3 0v3a1.5 1.5 0 1 0 3 0v-3z" fill="#67757f"/><path d="M27.138 2.183C27.183.978 26.206 0 25 0H12.183A2.184 2.184 0 0 0 10 2.183V15c0 1.205.116 2.183 2.183 2.183C14.25 17.183 15 13 25 15c1.09 0 2.183-.977 2.138-2.182V2.183z" fill="#e1e8ed"/><path d="M18.686 17.462c-2.595 0-6.962 1.934-6.962 5.898 0 3.989 4.35 5.415 7.005 11.402.751 1.693 1 1.107 1.86.076 2.06-2.464 5.058-7.483 5.058-11.574 0-4.642-4.64-5.802-6.96-5.802" fill="#fcab40"/><path d="M18.686 18.553c-4.184 0-3.482 5.802 0 9.283 2.321-1.16 5.802-9.283 0-9.283" fill="#fdcb58"/><path d="M11 7a1 1 0 1 0-2 0v7a1 1 0 1 0 2 0V7zM15 4a1 1 0 1 0-2 0v7a1 1 0 1 0 2 0V4zM15 15a1 1 0 1 0-2 0v1a1 1 0 1 0 2 0v-1z" fill="#ccd6dd"/></g></svg>