<svg xmlns="http://www.w3.org/2000/svg" viewBox="0 0 45 45"><defs><clipPath id="a"><path d="M0 36h36V0H0v36z"/></clipPath></defs><g clip-path="url(#a)" transform="matrix(1.25 0 0 -1.25 0 45)"><path d="M2 7L1 1h8s1 2 3 2h6v4H2zM34 7l1-6h-8s-1 2-3 2h-6v4h16zM6 16c0-1 0-8-4-8l8-1-4 9zM30 16c0-1 0-8 4-8l-8-1 4 9z" fill="#662113"/><path d="M30 16c0-6.628-5.373-12-12-12S6 9.372 6 16c0 6.627 5.373 12 12 12s12-5.373 12-12" fill="#662113"/><path d="M10 1a1 1 0 0 0-1-1H1a1 1 0 1 0 0 2h8a1 1 0 0 0 1-1M36 1a1 1 0 0 0-1-1h-8a1 1 0 1 0 0 2h8a1 1 0 0 0 1-1M35 7a1 1 0 0 0-1-1H2a1 1 0 1 0 0 2h32a1 1 0 0 0 1-1" fill="#a0041e"/><path d="M27 16a9 9 0 1 0-18 0 9 9 0 0 0 18 0" fill="#ffac33"/><path d="M26 16a8 8 0 1 0-16 0 8 8 0 0 0 16 0" fill="#f5f8fa"/><path d="M18 16s-.119-1-1.5-1-3.5 1-3.5 1 2.119 1 3.5 1c1.381 0 1.5-1 1.5-1" fill="#c1694f"/><path d="M19 19.5c0-1.933-.448-3.5-1-3.5s-1 1.567-1 3.5 1 3.5 1 3.5 1-1.567 1-3.5" fill="#c1694f"/><path d="M18.586 16a.586.586 0 1 0-1.172 0 .586.586 0 0 0 1.172 0" fill="#662113"/></g></svg>