<svg xmlns="http://www.w3.org/2000/svg" viewBox="0 0 45 45"><defs><clipPath id="a"><path d="M0 36h36V0H0v36z"/></clipPath></defs><g clip-path="url(#a)" transform="matrix(1.25 0 0 -1.25 0 45)"><path d="M18 24.999c-9.389 0-17-3.358-17-7.5 0-4.142 7.611-7.5 17-7.5s17 3.358 17 7.5c0 4.142-7.611 7.5-17 7.5" fill="#292f33"/><path d="M33.87 16.716c.08.255.13.516.13.783 0 1.418-1.16 2.676-3 3.7V18.42c1.083-.51 2.05-1.08 2.87-1.704M5 21.198c-1.84-1.023-3-2.28-3-3.699 0-.267.05-.528.129-.783C2.95 17.34 3.917 17.91 5 18.42v2.778z" fill="#7d8b93"/><path d="M18 23.999c-4.766 0-9.87-1.06-13-2.801V18.42c3.398 1.598 7.967 2.579 13 2.579s9.602-.981 13-2.579v2.778c-3.13 1.741-8.234 2.801-13 2.801" fill="#ccd6dd"/></g></svg>