<svg xmlns="http://www.w3.org/2000/svg" viewBox="0 0 45 45"><defs><clipPath id="a"><path d="M0 36h36V0H0v36z"/></clipPath></defs><g clip-path="url(#a)" transform="matrix(1.25 0 0 -1.25 0 45)"><path d="M8 34c-.042-5.625 3-11 7-14M16 18c-2 0-9 1-12 8M16 16c-1 0-9 1-12-8M16 16C11 13 8 5 8 1M28 34c.042-5.625-3-11-7-14M20 18c2 0 9 1 12 8M20 16c1 0 9 1 12-8M20 16c5-3 8-11 8-15" fill="none" stroke="#292f33" stroke-width="2" stroke-linecap="round" stroke-linejoin="round" stroke-miterlimit="10"/><path d="M24 10.792C24 7.041 21.312 4 18 4c-3.314 0-6 3.041-6 6.792s2.686 6.792 6 6.792c3.312 0 6-3.041 6-6.792" fill="#292f33"/><path d="M22 19c0-3.314-1.79-6-4-6-2.208 0-4 2.686-4 6s1.792 6 4 6c2.21 0 4-2.686 4-6" fill="#292f33"/><path d="M15 26c0-1 0-2 1-3M21 26c0-1 0-2-1-3" fill="none" stroke="#292f33" stroke-width="2" stroke-linecap="round" stroke-linejoin="round" stroke-miterlimit="10"/></g></svg>