<svg xmlns="http://www.w3.org/2000/svg" viewBox="0 0 45 45"><defs><clipPath id="a"><path d="M0 36h36V0H0v36z"/></clipPath></defs><path d="M25 32.5h-5V11.25h5V32.5z" fill="#99aab5"/><g clip-path="url(#a)" transform="matrix(1.25 0 0 -1.25 0 45)"><path d="M10 11.5A1.5 1.5 0 0 0 8.5 10h-3a1.5 1.5 0 0 0 0 3h3a1.5 1.5 0 0 0 1.5-1.5" fill="#da2f47"/><path d="M34 3a2 2 0 0 0-2-2H4a2 2 0 0 0-2 2v6a2 2 0 0 0 2 2h28a2 2 0 0 0 2-2V3z" fill="#292f33"/><path d="M10 1.5A1.5 1.5 0 0 0 8.5 0h-3a1.5 1.5 0 1 0 0 3h3A1.5 1.5 0 0 0 10 1.5M32 1.5A1.5 1.5 0 0 0 30.5 0h-3a1.5 1.5 0 0 0 0 3h3A1.5 1.5 0 0 0 32 1.5" fill="#292f33"/><path d="M23 29a5 5 0 1 0-10 0 5 5 0 0 0 10 0" fill="#da2f47"/><path d="M25 10a2 2 0 0 0-2-2H13a2 2 0 0 0-2 2v1c0 1.105 3.896 6 5 6h4c1.105 0 5-4.895 5-6v-1z" fill="#292f33"/><path d="M33 8a1 1 0 0 0-1-1H4a1 1 0 1 0 0 2h28a1 1 0 0 0 1-1" fill="#66757f"/></g></svg>