<svg xmlns="http://www.w3.org/2000/svg" viewBox="0 0 45 45"><defs><clipPath id="a"><path d="M0 36h36V0H0v36z"/></clipPath></defs><g clip-path="url(#a)" transform="matrix(1.25 0 0 -1.25 0 45)"><path d="M14 14a1 1 0 1 0-2 0v8a1 1 0 0 0 2 0v-8zM24 14a1 1 0 1 0-2 0v8a1 1 0 1 0 2 0v-8z" fill="#ffdc5d"/><path d="M18.36 35.5a3.936 3.936 0 0 1-2.287-.731 2.512 2.512 0 0 1-2.386-2.503c0-1.109.005-2.504 1.465-3.025A3.952 3.952 0 1 1 18.36 35.5" fill="#ffac33"/><path d="M19 17h-5l1-11h3v7-7h3l1 11h-3z" fill="#66757f"/><path d="M18 13c-.552 0-1-7-1-7 0-.553.448 0 1 0 .553 0 1-.553 1 0 0 0-.447 7-1 7" fill="#546170"/><path d="M22 25h-8a2 2 0 0 1-2-2v-8h2v-1h2l2 1 2-1h2v1h2v8a2 2 0 0 1-2 2" fill="#292f33"/><path d="M18 18l-2 7h4l-2-7z" fill="#e1e8ed"/><path d="M17 21l1-3 1 3-1 2.417L17 21z" fill="#55acee"/><path d="M16.563 27.594v-2.74L18 24.417l1.438.437v2.74h-2.875z" fill="#ffdc5d"/><path d="M21.594 33.344h-7.187V29.03A3.592 3.592 0 0 1 18 25.438a3.592 3.592 0 0 1 3.594 3.593v4.313z" fill="#ffdc5d"/><path d="M16.475 33.431h-2.287v-3.05c1.78 0 2.173 1.84 2.26 2.66.03-.82.621-2.66 5.363-2.66v3.05h-5.336z" fill="#ffac33"/><path d="M19.438 26.875H16.561s0-.719 1.438-.719c1.437 0 1.437.719 1.437.719" fill="#c1694f"/><path d="M16.563 29.39a.359.359 0 1 0-.718 0 .359.359 0 0 0 .717 0M20.156 29.39a.358.358 0 0 0-.359-.358.358.358 0 1 0 0 .718c.2 0 .36-.16.36-.36" fill="#662113"/><path d="M17.281 28.313H18.718s0-.72-.718-.72c-.719 0-.719.72-.719.72" fill="#c1694f"/><path d="M16.64 6.52c1.105 0 1.346-.158 1.359-.52.052-1.375-1.786-3.48-3.14-2.98-.86.318-.422 1.902.14 2.98.23.442.962.52 1.64.52" fill="#292f33"/><path d="M19.36 6.52c-1.105 0-1.346-.158-1.359-.52-.05-1.375 1.787-3.48 3.14-2.98.861.318.422 1.902-.14 2.98-.23.442-.96.52-1.64.52" fill="#292f33"/><path d="M16 25l-1-3 1.25-.344-.687-1.125L18 18l-2 7zM20 25l1-3-1.25-.344.687-1.125L18 18l2 7z" fill="#66757f"/><path d="M17 24l1-1 1 1-1 .417L17 24z" fill="#55acee"/><path d="M16.563 25.438L18 24.416l-.937-.996L16 25.002l.561.436zM19.438 25.438L18 24.416l.936-.996L20 25.002l-.561.436z" fill="#f5f8fa"/><path d="M24 1c0-.553-2.686-1-6-1s-6 .447-6 1c0 .553 2.686 1 6 1s6-.447 6-1" fill="#99aab5"/></g></svg>