<svg xmlns="http://www.w3.org/2000/svg" viewBox="0 0 45 45"><defs><clipPath id="a"><path d="M0 36h36V0H0v36z"/></clipPath></defs><g clip-path="url(#a)" transform="matrix(1.25 0 0 -1.25 0 45)"><path d="M1.24 20.982c.24-.239 1.437-.958 1.677-1.675.24-.717.72-5.307 2.158-6.505 1.484-1.232 7.077-.773 8.15-.24 2.396 1.195 2.69 5.055 3.114 6.745.24.957 1.677.957 1.677.957s1.44 0 1.678-.956c.424-1.69.72-5.562 3.115-6.755 1.073-.535 6.666-.994 8.152.238 1.435 1.197 1.915 5.8 2.155 6.517.238.717 1.437 1.435 1.677 1.674.241.24.241 1.196 0 1.436-.479.478-6.134.904-12.223.24-1.215-.134-1.677-.48-4.554-.48-2.875 0-3.339.346-4.553.478-6.087.666-11.744.24-12.223-.238-.239-.24-.239-1.197 0-1.436" fill="#292f33" fill-rule="evenodd"/></g></svg>