<svg xmlns="http://www.w3.org/2000/svg" viewBox="0 0 45 45"><defs><clipPath id="a"><path d="M0 36h36V0H0v36z"/></clipPath></defs><g clip-path="url(#a)" transform="matrix(1.25 0 0 -1.25 0 45)"><path d="M17.165 32.004c.113.113.24.264.35.384v-3.302a8.879 8.879 0 0 0-3.053-2.159 8.713 8.713 0 0 0-4.041-.66l-.978.978-1.23 1.23a12.12 12.12 0 0 1 8.952 3.53m1.657-.015a12.119 12.119 0 0 1 8.95-3.53l-1.228-1.23-.977-.977a8.714 8.714 0 0 0-7.081 2.804v3.304c.113-.123.219-.254.336-.37M31.99 18.821c.118-.118.249-.223.37-.336h-3.302a8.711 8.711 0 0 0-2.805 7.08l.978.977 1.229 1.23a12.118 12.118 0 0 1 3.53-8.95M28.474 8.213l-1.23 1.23-.976.976a8.687 8.687 0 0 0 .66 4.041 8.879 8.879 0 0 0 2.159 3.054h3.302c-.121-.11-.271-.238-.384-.35a12.115 12.115 0 0 1-3.531-8.95m-9.637-4.218c-.113-.113-.24-.264-.351-.385v3.302a8.895 8.895 0 0 0 3.054 2.16 8.7 8.7 0 0 0 4.04.66l2.207-2.207a12.118 12.118 0 0 1-8.95-3.53m-1.658.014a12.118 12.118 0 0 1-8.95 3.53l1.229 1.23.977.977a8.713 8.713 0 0 0 7.08-2.805V3.64c-.113.122-.218.253-.336.371M4.012 17.18c-.118.117-.25.223-.372.336h3.304a8.7 8.7 0 0 0 2.804-7.08l-.977-.978-1.23-1.229a12.122 12.122 0 0 1-3.53 8.951m9.004 5.12a8.187 8.187 0 0 0-.443-1.834 8.539 8.539 0 0 0-1.085-1.979H8.269a10.061 10.061 0 0 1 1.7 2.677 9.708 9.708 0 0 1 .752 3.43l2.294-2.294zm4.5 5.433v-3.218a8.539 8.539 0 0 0-1.98-1.085 8.187 8.187 0 0 0-1.833-.443l-.62.62-1.674 1.674a9.704 9.704 0 0 1 3.43.751c.979.413 1.9 1.02 2.677 1.701m5.39-4.14l-.62-.62a8.18 8.18 0 0 0-1.834.442 8.18 8.18 0 0 0-1.965 1.061V27.7a9.727 9.727 0 0 1 2.663-1.682 9.692 9.692 0 0 1 3.43-.75l-1.673-1.675zm1.57-5.106a8.158 8.158 0 0 0-1.06 1.965 8.229 8.229 0 0 0-.443 1.834l.62.62 1.675 1.674a9.692 9.692 0 0 1 .75-3.43c.417-.99.99-1.88 1.682-2.663h-3.224zm-.868-5.405l-.62.62c.078.62.219 1.235.442 1.834.26.701.658 1.388 1.085 1.98h3.219a10.036 10.036 0 0 1-1.701-2.677 9.692 9.692 0 0 1-.751-3.43l-1.674 1.673zm-5.121-4.813V11.488a8.583 8.583 0 0 0 1.98 1.084 8.172 8.172 0 0 0 1.834.442l2.294-2.294a9.692 9.692 0 0 1-3.431-.75 10.052 10.052 0 0 1-2.677-1.702m-5.39 4.141l.62.62a8.161 8.161 0 0 0 1.834-.443 8.158 8.158 0 0 0 1.965-1.06V8.302a9.695 9.695 0 0 1-2.662 1.681 9.715 9.715 0 0 1-3.431.752l1.674 1.674zm-.51 3.141c.224-.6.365-1.215.443-1.834l-.62-.62-1.674-1.675a9.687 9.687 0 0 1-.751 3.431c-.417.99-.99 1.88-1.681 2.663h3.223a8.18 8.18 0 0 0 1.06-1.965m2.828 4.35c-.001-.077.008-.154 0-.23a2.448 2.448 0 0 0-.297-.929c-.051-.09-.117-.172-.178-.255h-2.28a9.65 9.65 0 0 1 .824 1.641c.163.437.28.883.373 1.331l1.558-1.558zm2.1 3.442V21.06c-.082-.06-.162-.125-.252-.176a2.54 2.54 0 0 0-.336-.163 2.42 2.42 0 0 0-.59-.13c-.08-.01-.16 0-.238 0l-1.555 1.554c.448.093.894.21 1.33.373a9.65 9.65 0 0 1 1.642.824m2.38-2.76c-.076 0-.152-.009-.227 0-.331.035-.65.135-.94.298-.085.048-.162.111-.242.17v2.255a9.247 9.247 0 0 1 1.627-.802 9.318 9.318 0 0 1 1.33-.373l-1.548-1.549zm1.162-2.096c-.054.074-.114.144-.16.223-.167.291-.27.615-.307.95-.01.081 0 .162 0 .243l1.54 1.541c.094-.448.212-.893.374-1.33a9.21 9.21 0 0 1 .8-1.627h-2.247zm-.448-2.407c0 .08-.01.16 0 .238.022.2.059.398.13.59.046.121.106.232.167.342.054.095.12.18.186.266h2.25a9.7 9.7 0 0 1-.824-1.642 9.305 9.305 0 0 1-.373-1.33l-1.536 1.536zm-2.123-3.42v2.247c.09.068.178.138.276.193.286.16.6.26.926.295.077.01.155 0 .232 0l1.538-1.538a9.305 9.305 0 0 1-1.33-.373 9.627 9.627 0 0 1-1.642-.825m-2.37 2.771c.073 0 .146.008.22 0 .199-.022.397-.059.59-.13.135-.05.26-.116.382-.187.074-.043.138-.099.207-.15v-2.266a9.21 9.21 0 0 1-1.627.801c-.437.163-.882.28-1.33.373l1.558 1.56zm-1.164 2.086c.057-.079.119-.154.166-.238.16-.286.26-.6.296-.928.009-.082 0-.165 0-.248l-1.543-1.544a9.318 9.318 0 0 1-.373 1.331 9.247 9.247 0 0 1-.802 1.627h2.256zm4.673 2.101c.055-.589.259-1.15.597-1.636a3.409 3.409 0 0 1-.393-.735 3.43 3.43 0 0 1-.187-.882 3.392 3.392 0 0 1-.876-.186 3.41 3.41 0 0 1-.728-.389 3.446 3.446 0 0 1-.774.421 3.397 3.397 0 0 1-.88.186 3.42 3.42 0 0 1-.581 1.617c.156.228.294.47.393.735.106.286.159.581.186.877.298.027.594.08.882.186.265.1.506.237.734.392a3.426 3.426 0 0 1 1.627-.586M7.527 27.787l2.207-2.207a8.713 8.713 0 0 0-.66-4.04 8.888 8.888 0 0 0-2.16-3.054H3.614c.12.11.27.237.384.35a12.12 12.12 0 0 1 3.53 8.951M6.667 5.98l.479.48c3.97.533 7.97-1.17 10.369-4.363v-.61a.486.486 0 0 1 .97 0v.636a11.113 11.113 0 0 0 10.356 4.351l.479-.479a.472.472 0 0 1 .205-.115l.029-.006a.479.479 0 0 1 .453.121.476.476 0 0 1 .12.453l-.004.03a.479.479 0 0 1-.116.204l-.48.48a11.115 11.115 0 0 0 4.352 10.354h.636a.486.486 0 1 1 0 .971h-.61c-3.193 2.398-4.896 6.4-4.363 10.37l.48.478a.487.487 0 0 1 0 .687.48.48 0 0 1-.231.121.48.48 0 0 1-.456-.12l-.48-.48c-3.97-.534-7.97 1.17-10.37 4.362v.611a.485.485 0 1 1-.97 0v-.637a11.116 11.116 0 0 0-10.354-4.35l-.48.48a.469.469 0 0 1-.204.114l-.03.006a.48.48 0 0 1-.453-.12.48.48 0 0 1-.121-.454l.006-.03a.48.48 0 0 1 .115-.204l.48-.479a11.115 11.115 0 0 0-4.351-10.355h-.637a.486.486 0 1 1 0-.97h.61c3.193-2.4 4.897-6.4 4.363-10.37l-.48-.48a.476.476 0 0 1-.12-.456.469.469 0 0 1 .12-.23.487.487 0 0 1 .688 0" fill="#66757f"/></g></svg>