<svg xmlns="http://www.w3.org/2000/svg" viewBox="0 0 45 45"><defs><clipPath id="a"><path d="M0 36h36V0H0v36z"/></clipPath></defs><g clip-path="url(#a)" transform="matrix(1.25 0 0 -1.25 0 45)"><path d="M33 0v1a6 6 0 0 1-6 6H9a6 6 0 0 1-6-6V0h30z" fill="#66757f"/><path d="M12 8.518C13.672 6.944 15.746 6 18 6s4.327.945 6 2.518V10H12V8.518z" fill="#ef9645"/><path d="M26.75 15.565c1.187-.208 2.619-.13 2.416-.917-.479-1.854-2.603-1.167-2.978-1.187-.375-.021.562 2.104.562 2.104" fill="#66757f"/><path d="M27.063 15.355c1.875-.25 2.54-.416 1.166-.958-.772-.305-2.243-4.803-3.331-4.118-1.088.684 2.165 5.076 2.165 5.076" fill="#292f33"/><path d="M9.255 15.565c-1.187-.208-2.619-.13-2.416-.917.48-1.854 2.603-1.167 2.978-1.187.376-.021-.562 2.104-.562 2.104" fill="#66757f"/><path d="M8.943 15.355c-1.875-.25-2.541-.416-1.166-.958.772-.305 2.243-4.803 3.33-4.118 1.089.684-2.164 5.076-2.164 5.076" fill="#292f33"/><path d="M8.055 24.969c-1.953 0-2.305-3.164-.664-3.594 0 0-1.367-3.32 1.953-3.32-.547 1.68-1.562 4.414-.781 6.406M27.943 24.969c1.953 0 2.305-3.164.664-3.594 0 0 1.367-3.32-1.953-3.32.547 1.68 1.562 4.414.781 6.406" fill="#963b22"/><path d="M28 20.5C28 13.597 23.523 8 18 8S8 13.597 8 20.5 12.477 33 18 33s10-5.597 10-12.5" fill="#d5ab88"/><path d="M14 19a1 1 0 0 0-1 1v1a1 1 0 0 0 2 0v-1a1 1 0 0 0-1-1M22 19a1 1 0 0 0-1 1v1a1 1 0 1 0 2 0v-1a1 1 0 0 0-1-1" fill="#662113"/><path d="M19 15.5a.5.5 0 0 0-.5-.5h-1a.5.5 0 0 0 0 1h1a.5.5 0 0 0 .5-.5" fill="#c1694f"/><path d="M7.657 21.212c.148-.147.888-.591 1.036-1.034.148-.443.444-2.954 1.333-3.693.916-.762 4.37-.478 5.03-.15 1.482.739 1.663 2.799 1.925 3.843.148.59 1.036.59 1.036.59s.889 0 1.036-.59c.262-1.044.444-3.104 1.924-3.841.662-.33 4.116-.614 5.034.148.887.739 1.183 3.25 1.33 3.693.148.444.889.887 1.036 1.034.149.148.149.739 0 .887-.296.295-3.788.558-7.548.147-.75-.081-1.035-.295-2.812-.295-1.776 0-2.062.214-2.812.295-3.76.41-7.252.148-7.548-.147-.147-.148-.147-.74 0-.887" fill="#292f33" fill-rule="evenodd"/><path d="M7.858 27.605s1.359 8.901 5.932 8.372c3.512-.405 4.889-.824 7.833-.096 1.947.481 4.065-1.136 5.342-4.38.815-2.067 1.224-4.04 1.224-4.04s3.938.385 4.165-1.732c.227-2.117-4.354-4.716-15.89-4.716-6.464 0-13.134 2.357-13.451 4.33-.317 1.973 4.845 2.262 4.845 2.262" fill="#66757f"/><path d="M8.04 28.85s-.272-1.104-.409-1.87c-.136-.769.227-1.297 2.717-1.825 3.301-.7 10.724-.692 15.123.384 1.766.432 2.898.72 2.762 1.583-.168 1.068-.197 1.066-.543 2.207 0 0-1.483-.502-3.44-.959-2.672-.624-10.008-.912-13.54-.144-1.882.41-2.67.624-2.67.624M7.99 14.898c-.355-.146 2.92-1.378 7.48-1.458 4.77-.084 6.233-.39 5.144-1.46-1.145-1.124-.852-2.893-.77-3.417.081-.525 2.046-1.917 2.208-2.562.161-.644-1.23-5.96-1.23-5.96l-8.728.251C9.528 9.138 9.211 8.795 7.99 13.899c-.24 1.008 0 1 0 1" fill="#292f33"/><path d="M6.99 14.856c-.355-.145 2.92-1.378 7.48-1.458 4.77-.084 6.233-.39 5.144-1.459-1.145-1.125-.664-2.894-.583-3.418.081-.524 1.86-1.916 2.021-2.56.161-.645-1.23-5.96-1.23-5.96l-8.728.251c-2.566 8.843-2.883 8.5-4.105 13.604-.24 1.008 0 1 0 1" fill="#66757f"/><path d="M28.052 14.898c.354-.146-2.921-1.378-7.48-1.458-4.77-.084-6.234-.39-5.145-1.46 1.146-1.124 2.977-2.891 2.895-3.415-.081-.525-4.171-1.918-4.333-2.563-.161-.644 1.23-5.962 1.23-5.962l8.728.252c2.566 8.845 2.883 8.502 4.105 13.606.24 1.008 0 1 0 1" fill="#292f33"/><path d="M28.958 14.898c.354-.146-2.921-1.378-7.48-1.458-4.77-.084-6.234-.39-5.145-1.46 1.146-1.124 2.977-2.891 2.895-3.415-.081-.525-4.171-1.918-4.333-2.563C14.734 5.357 16.124.04 16.124.04l8.657-.009c2.566 8.844 2.955 8.763 4.177 13.867.241 1.008 0 1 0 1" fill="#66757f"/></g></svg>