<svg xmlns="http://www.w3.org/2000/svg" viewBox="0 0 45 45"><defs><clipPath id="a"><path d="M0 36h36V0H0v36z"/></clipPath></defs><g clip-path="url(#a)" transform="matrix(1.25 0 0 -1.25 0 45)"><path d="M18.564 30.366c.201.33.45.619.717.885.051-.374.03-.757-.072-1.132l-1.068-3.893-.136.563a4.702 4.702 0 0 0 .56 3.577m16.197-24.08l-5.62 23.202a6.733 6.733 0 0 1-8.124 4.955 6.809 6.809 0 0 1-.983-.326 4.789 4.789 0 0 1-2.27 1.396 4.825 4.825 0 0 1-5.923-3.374L6.794 13.72a2.885 2.885 0 0 1 .278-2.21 2.884 2.884 0 0 1 1.76-1.364 2.889 2.889 0 0 1 2.21.277 2.892 2.892 0 0 1 1.364 1.759l3.03 11.05a1 1 0 1 1-1.93.529l-3.028-11.05a.914.914 0 0 0-1.119-.637.9.9 0 0 0-.549.426.902.902 0 0 0-.087.69l5.048 18.42a2.825 2.825 0 0 0 3.464 1.973 2.785 2.785 0 0 0 1.033-.536 6.763 6.763 0 0 1-1.412-1.641 6.68 6.68 0 0 1-.794-5.088l.987-4.077L12.9 7.098a4.698 4.698 0 0 0-2.22-2.86 4.691 4.691 0 0 0-3.592-.451A4.69 4.69 0 0 0 4.23 6.006a4.7 4.7 0 0 0-.452 3.59l4.291 15.657a1.001 1.001 0 0 1-1.929.529L1.85 10.126a6.682 6.682 0 0 1 .642-5.11A6.683 6.683 0 0 1 6.56 1.859a6.683 6.683 0 0 1 5.11.643 6.683 6.683 0 0 1 3.16 4.068l3.194 11.656 1.861-7.683a1 1 0 1 1 1.944.47L19.115 22.21l2.023 7.382a4.78 4.78 0 0 1-.066 2.764c.14.048.271.11.416.145a4.732 4.732 0 0 0 5.71-3.483l5.621-23.2a2.825 2.825 0 0 0-2.076-3.405 2.81 2.81 0 0 0-2.133.333 2.807 2.807 0 0 0-1.272 1.744l-4.497 18.56a.9.9 0 0 0 .108.688.91.91 0 0 0 1.661-.259L27.31 12.34a1 1 0 1 1 1.944.47l-2.7 11.138a2.912 2.912 0 0 1-5.312.83 2.889 2.889 0 0 1-.343-2.202l4.497-18.56a4.784 4.784 0 0 1 2.174-2.98A4.798 4.798 0 0 1 31.213.47a4.824 4.824 0 0 1 3.55 5.818" fill="#99aab5"/><path d="M18.142 26.226l.973-4.017.324 1.194-.945 4.1-.352-1.277zM16.697 20.965l.969-4.031.358 1.291-.974 4.016-.353-1.276zM21.073 32.355s.304.126.538.173c0 0-.25 1.015-1.023 1.797l-.552-.208s.732-.762 1.037-1.762M18.884 30.817s.266.328.397.434c0 0-.09 1.086-1.012 1.797l-.416-.387c.844-.555 1.031-1.844 1.031-1.844" fill="#66757f"/></g></svg>