<svg xmlns="http://www.w3.org/2000/svg" viewBox="0 0 45 45"><defs><clipPath id="a"><path d="M0 36h36V0H0v36z"/></clipPath></defs><g clip-path="url(#a)" transform="matrix(1.25 0 0 -1.25 0 45)"><path d="M3.968 2.554C2.21.796.47-.312.078.079c-.39.39.719 2.132 2.476 3.889C4.31 5.726 6.052 6.834 6.443 6.443c.39-.391-.718-2.131-2.475-3.89" fill="#c1694f"/><path d="M6.443 6.442L4.32 8.564s-1.082-1.392-2.284-3.63C1.137 3.258.786 2.2.786 2.2l.707-.707L2.2.786s1.059.351 2.735 1.251c2.237 1.201 3.629 2.284 3.629 2.284L6.443 6.442z" fill="#ffcc4d"/><path d="M34.02 34.02c-3.536 3.535-18.164-10.298-18.872-11.005-.706-.706-1.302-1.348-.927-1.723L12.1 19.17c-2.123-2.122-8.487-9.9-7.78-10.606l2.122-2.122 2.12-2.121c.708-.707 8.487 5.657 10.607 7.778 1 .999 1.676 1.676 2.122 2.12.375-.375 1.016.223 1.723.93.708.707 14.54 15.334 11.005 18.87" fill="#292f33"/><path d="M23.016 15.15c.085.083.362.374.774.816l-7.823 7.822a42.296 42.296 0 0 1-.818-.773c-.707-.707-1.303-1.348-.928-1.724l3.535-3.535 3.536-3.536c.376-.376 1.017.222 1.724.93" fill="#ffcc4d"/><path d="M31.212 33.998c-.927.928-2.164 1.9-3.932 1.016-1.767-.885-7.313-4.442-9.877-7.006-1.322-1.321-1.247-2.1-.752-2.164.82-.106 1.37-.088 2.123.663.75.75.882 2.033.882 2.033s3.05 2.342 5.458 3.778c2.41 1.437 3.269 1.682 4.11.84.843-.842 1.988.84 1.988.84" fill="#ffac33"/><path d="M28.87 33.513l4.643-4.643c.352.709.63 1.384.818 2.01l-3.45 3.45a12.906 12.906 0 0 1-2.01-.817" fill="#ffac33"/></g></svg>