<svg xmlns="http://www.w3.org/2000/svg" viewBox="0 0 45 45"><defs><clipPath id="a"><path d="M0 36h36V0H0v36z"/></clipPath></defs><g clip-path="url(#a)" transform="matrix(1.25 0 0 -1.25 0 45)"><path d="M14.57 8.327c2.814 1.692 6.635 3.807 9.899 7.071 7.03 7.03 12.729 16.971 11.314 18.385-1.414 1.414-11.355-4.285-18.384-11.314-3.265-3.264-5.38-7.085-7.072-9.899l4.243-4.243z" fill="#3b88c3"/><path d="M.428 1.256s7.07-1.414 12.02 3.536C14.57 6.912 14.57 9.74 14.57 9.74l-2.83 2.829s-3.534-.708-4.948-2.122C5.378 9.034 4.274 6.216 3.904 4.85 3.227 2.348.428 1.256.428 1.256" fill="#c1694f"/><path d="M17.882 10.672l-5.168 5.168c-.391.39-.958.326-1.27-.145l-1.123-1.705c-.311-.47-.271-1.142.087-1.501l4.122-4.123c.359-.358 1.03-.397 1.502-.087l1.705 1.124c.47.31.536.878.145 1.269" fill="#ccd6dd"/><path d="M11.229 3.74c-1.191-.769-1.826-.128-1.609.61.221.75-.12 1.647-1.237 1.413-1.117-.233-1.857.354-1.503 1.768.348 1.393-1.086 1.863-1.755.435-.582-1.16-1.017-2.36-1.221-3.116C3.227 2.347.428 1.256.428 1.256S6.416.071 11.229 3.74" fill="#a0041e"/></g></svg>