<svg xmlns="http://www.w3.org/2000/svg" viewBox="0 0 45 45"><defs><clipPath id="a"><path d="M0 36h36V0H0v36z"/></clipPath></defs><g clip-path="url(#a)" transform="matrix(1.25 0 0 -1.25 0 45)"><path d="M35.702 28.523l-7.18 7.18a1.015 1.015 0 0 1-1.436 0L3.395 12.01a1.016 1.016 0 0 1 0-1.437C4.115 9.854.255 2.615 0 2.078L2.068 0c.536.255 7.786 4.115 8.506 3.395a1.013 1.013 0 0 1 1.436 0l23.692 23.692a1.015 1.015 0 0 1 0 1.436" fill="#dd2e44"/><path d="M12.759 4.14l-8.62 8.62 22.268 22.268 8.62-8.62L12.759 4.14z" fill="#ea596e"/><path d="M32.154 23.534l-8.62 8.62 1.436 1.437 8.621-8.62-1.437-1.437zM14.196 5.576l-8.62 8.62 1.437 1.437 8.619-8.62-1.436-1.437z" fill="#292f33"/><path d="M26.886 26.647c-1.52 1.521-5.982-.476-9.967-4.459-3.983-3.984-5.98-8.447-4.46-9.967 1.52-1.521 5.984.475 9.968 4.459 3.984 3.984 5.98 8.447 4.459 9.967" fill="#be1931"/></g></svg>