<svg xmlns="http://www.w3.org/2000/svg" viewBox="0 0 45 45"><defs><clipPath id="a"><path d="M0 36h36V0H0v36z"/></clipPath></defs><g clip-path="url(#a)" transform="matrix(1.25 0 0 -1.25 0 45)"><path d="M4.167 3.27A1.98 1.98 0 0 1 5.154 3a2 2 0 1 1-2 2c0-.361.104-.695.271-.987L.278.867 1.154 8l9 7 5-5-7-9L1.021.125 4.167 3.27z" fill="#99aab5"/><path d="M22.51 30.692a2.946 2.946 0 0 1 0-4.167l4.168-4.167a2.946 2.946 0 0 1 4.167 0l4.168 4.167a2.948 2.948 0 0 1 0 4.167l-4.168 4.167a2.946 2.946 0 0 1-4.167 0l-4.167-4.167z" fill="#66757f"/><path d="M9.51 17.691l17.203 17.203 8.334-8.335L17.845 9.357a2.949 2.949 0 0 0-4.168 0L9.51 13.525a2.947 2.947 0 0 0 0 4.166" fill="#292f33"/><path d="M19.594 27.775l8.334-8.334-2.125-2.126-8.334 8.336 2.125 2.124z" fill="#66757f"/></g></svg>