<svg xmlns="http://www.w3.org/2000/svg" viewBox="0 0 45 45"><defs><clipPath id="a"><path d="M0 36h36V0H0v36z"/></clipPath></defs><g clip-path="url(#a)" transform="matrix(1.25 0 0 -1.25 0 45)"><path d="M14.849 18.451a1.896 1.896 0 0 0-1.36-2.322l-.247-.065c-1.026-.27-2.08.33-2.353 1.341l-3.714 13.66c-.471 1.641-.147 3.183 1.279 3.6l.449.102c1.025.271 1.625-.423 1.899-1.434l4.047-14.882zM21.788 17.549c-.192-1.075-1.233-1.794-2.325-1.604l-.087.015a1.98 1.98 0 0 0-1.627 2.29l2.685 15.01c.193 1.076.713 1.814 1.805 1.625l.24-.073c2.77-.657 1.622-4.337 1.994-2.254l-2.685-15.01z" fill="#583529"/><path d="M11.136 16.962a1.814 1.814 0 0 0-1.281-2.221l-.363-.096a1.812 1.812 0 0 0-2.22 1.28L4.07 27.88a1.814 1.814 0 0 0 1.282 2.22l.36.097a1.813 1.813 0 0 0 2.222-1.281l3.202-11.953zM15.69 19.282c.27-1-.325-2.028-1.325-2.296l-.242-.065c-1-.268-2.029.326-2.296 1.326L7.88 32.977a1.875 1.875 0 0 0 1.326 2.296l.242.065c1 .268 2.028-.326 2.297-1.326l3.946-14.73zM20.684 18.078a1.875 1.875 0 0 0-2.172-1.52l-.246.043a1.874 1.874 0 0 0-1.521 2.171l2.648 15.018a1.875 1.875 0 0 0 2.172 1.521l.246-.043a1.875 1.875 0 0 0 1.52-2.172l-2.647-15.018zM25.586 17.087a1.75 1.75 0 0 0-2.027-1.42l-.493.087a1.75 1.75 0 0 0-1.42 2.027l2.519 14.28a1.75 1.75 0 0 0 2.026 1.42l.494-.087a1.75 1.75 0 0 0 1.419-2.028l-2.518-14.28zM28.927 8.64a1.89 1.89 0 0 0-2.581-.69l-.192.11a1.888 1.888 0 0 0-.691 2.58l5.609 9.719a1.891 1.891 0 0 0 2.582.692l.192-.111a1.889 1.889 0 0 0 .69-2.581l-5.61-9.718z" fill="#7c533e"/><path d="M6.183 19.993C6.583 18.5 6 14.807 6 12 6 9.192 8.125 0 18 0s10.5 8.234 12 10.666c1.5 2.432-.833 6.375-2 4.375s-2.933-1.163-2.333 2.375c.6 3.54-3.12 5.465-3.635 2.544-.438-2.477-1.438-1.753-.855.913.583 2.667-3.514 3.42-4.177-.207-.487-2.666-1.452-.892-1.851.638-.4 1.53-4.484 1.663-3.951-.709.76-3.387-.005-4.067-1.114.071-.703 2.624-3.901-.673-3.901-.673" fill="#7c533e"/><path d="M26.459 13.985c.023.002.046.008.069.011-.388.068-.713.44-.873 1.106-1.917-.248-4.586-.713-6.655-2.736-2.556-2.499-2.992-5.2-2.971-7.007.016-1.457.812-2.146 1.045.012.301 2.795 2.348 8.04 9.385 8.614" fill="#583529"/></g></svg>