<svg xmlns="http://www.w3.org/2000/svg" viewBox="0 0 45 45"><defs><clipPath id="a"><path d="M0 36h36V0H0v36z"/></clipPath></defs><g clip-path="url(#a)" transform="matrix(1.25 0 0 -1.25 0 45)"><path d="M30.01 15.817s.094 2.362-1.791 3.068c-1.667.625-2.308-.622-2.308-.622s.058 1.914-1.942 2.622c-1.885.668-2.984-.773-2.984-.773s-.073 1.686-2.058 2.232c-1.671.46-2.916-1.167-2.916-1.167V22c0 .96-.542 2.575-2.543 2.576-2 .002-2.457-1.659-2.457-2.576v-1.615c0-1.323-.948-.198-1.636-.823-1.57-1.427-2.27-6.43-1.187-10.5 1.312-4.937 4.062-9.1 9.694-9.1 8.132 0 12.124 5.297 12.129 11.923v3.932z" fill="#d5ab88"/><path d="M21 17.5a2.5 2.5 0 1 0-5 0v16a2.5 2.5 0 1 0 5 0v-16zM12.25 20l-2.313-.003c-1.625 0-2.14-.466-2.812-3.122-.437-1.729-.984-2.547-.984-4.391C6.141 9.578 10.735.137 17.5.094L12.25 20z" fill="#d5ab88"/><path d="M10 10.48c0-.253.204-.48.456-.48h.088c.252 0 .456.204.456.456V20h-.969L10 10.48z" fill="#aa8052"/></g></svg>