<svg xmlns="http://www.w3.org/2000/svg" viewBox="0 0 45 45"><defs><clipPath id="a"><path d="M0 36h36V0H0v36z"/></clipPath></defs><g clip-path="url(#a)" transform="matrix(1.25 0 0 -1.25 0 45)"><path d="M36 14a4 4 0 0 0-4-4H4a4 4 0 0 0-4 4v18a4 4 0 0 0 4 4h28a4 4 0 0 0 4-4V14z" fill="#ccd6dd"/><path d="M32 14H4v18h28V14z" fill="#5dadec"/><path d="M23 4H13v6h10V4z" fill="#ccd6dd"/><path d="M23 8H13v2h10V8z" fill="#9aaab4"/><path d="M36 3a3 3 0 0 1-3 3H3a3 3 0 1 1 0-6h30a3 3 0 0 1 3 3" fill="#e1e8ed"/><path d="M5 2H3v2h2V2zM9 2H7v2h2V2zM13 2h-2v2h2V2zM17 2h-2v2h2V2zM21 2h-2v2h2V2zM25 2h-2v2h2V2zM29 2h-2v2h2V2zM33 2h-2v2h2V2z" fill="#f5f8fa"/></g></svg>