<svg xmlns="http://www.w3.org/2000/svg" viewBox="0 0 45 45"><defs><clipPath id="a"><path d="M0 36h36V0H0v36z"/></clipPath><clipPath id="b"><path d="M6 24a4 4 0 0 1-4-4v-9c0-1 1-3 3-3h26c2 0 3 2 3 3v9a4 4 0 0 1-4 4H6z"/></clipPath><clipPath id="c"><path d="M0 36h36V0H0v36z"/></clipPath></defs><g clip-path="url(#a)" transform="matrix(1.25 0 0 -1.25 0 45)"><path d="M30 23c0-1.104-.827-2-1.846-2H7.846C6.826 21 6 21.896 6 23v8c0 1.105.826 2 1.846 2h20.308C29.173 33 30 32.105 30 31v-8zM30 5a2 2 0 0 0-2-2H8a2 2 0 0 0-2 2v6a2 2 0 0 0 2 2h20a2 2 0 0 0 2-2V5z" fill="#67757f"/><path d="M27 20a2 2 0 0 0-2-2H11a2 2 0 0 0-2 2v14a2 2 0 0 0 2 2h14a2 2 0 0 0 2-2V20z" fill="#e1e8ed"/><path d="M34 11c0-1-1-3-3-3H5c-2 0-3 2-3 3v9a4 4 0 0 0 4 4h24a4 4 0 0 0 4-4v-9z" fill="#5dadec"/></g><g clip-path="url(#b)" transform="matrix(1.25 0 0 -1.25 0 45)"><path d="M30 11c0 1.105-.977 2-2.182 2H8.182C6.977 13 6 12.105 6 11V7c0-1.104.977-2 2.182-2h19.636C29.023 5 30 5.896 30 7v4z" fill="#292f33"/><path d="M30 21a2 2 0 0 0-2-2H8a2 2 0 0 0-2 2v5a2 2 0 0 0 2 2h20a2 2 0 0 0 2-2v-5z" fill="#4289c1"/></g><g clip-path="url(#c)" transform="matrix(1.25 0 0 -1.25 0 45)"><path d="M27 2a2 2 0 0 0-2-2H11a2 2 0 0 0-2 2v7a2 2 0 0 0 2 2h14a2 2 0 0 0 2-2V2z" fill="#e1e8ed"/><path d="M25 7a1 1 0 0 0-1-1H12a1 1 0 1 0 0 2h12a1 1 0 0 0 1-1" fill="#9aaab4"/><path d="M32 16.5a1.5 1.5 0 1 0-3.001.001A1.5 1.5 0 0 0 32 16.5" fill="#f5f8fa"/><path d="M25 4a1 1 0 0 0-1-1H12a1 1 0 1 0 0 2h12a1 1 0 0 0 1-1M27 9H9v2h18V9z" fill="#9aaab4"/></g></svg>