<svg xmlns="http://www.w3.org/2000/svg" viewBox="0 0 45 45"><defs><clipPath id="a"><path d="M0 36h36V0H0v36z"/></clipPath></defs><g clip-path="url(#a)" transform="matrix(1.25 0 0 -1.25 0 45)"><path d="M33 19c0-9.389-2.188-19-15-19S3 9.611 3 19s5.611 14 15 14c9.465 0 15-4.701 15-14" fill="#66757f"/><path d="M32 22.031c0-7.922-1.937-16.03-14-16.03C5.938 6 4 14.108 4 22.03c0 7.921 5.237 10.97 14 10.97s14-3.049 14-10.97" fill="#99aab5"/><path d="M29 23.5c0-5.246-4.925-8.5-11-8.5S7 18.254 7 23.5c0 5.247 4.925 9.5 11 9.5s11-4.253 11-9.5" fill="#ccd6dd"/><path d="M28 26c0-5.523-4.477-8-10-8S8 20.477 8 26s4.477 10 10 10 10-4.477 10-10" fill="#744eaa"/><path d="M17 13V8.25c0-1-9.672 1-9.672 6 0 1.375.301 1.973 2.316.984C14.134 13.031 17 13.548 17 13M19 13V8.25c0-1 9.672 1 9.672 6 0 1.375-.301 1.973-2.316.984C21.865 13.031 19 13.548 19 13" fill="#292f33"/></g></svg>