<svg xmlns="http://www.w3.org/2000/svg" viewBox="0 0 45 45"><defs><clipPath id="a"><path d="M0 36h36V0H0v36z"/></clipPath><clipPath id="b"><path d="M3 32a2 2 0 0 1-2-2V6a2 2 0 0 1 2-2h30a2 2 0 0 1 2 2v24a2 2 0 0 1-2 2H3z"/></clipPath><clipPath id="c"><path d="M0 36h36V0H0v36z"/></clipPath><clipPath id="d"><path d="M6 28a1 1 0 0 1-1-1V9a1 1 0 0 1 1-1h24a1 1 0 0 1 1 1v18a1 1 0 0 1-1 1H6z"/></clipPath><clipPath id="e"><path d="M0 36h36V0H0v36z"/></clipPath></defs><g clip-path="url(#a)" transform="matrix(1.25 0 0 -1.25 0 45)"><path d="M35 6a2 2 0 0 0-2-2H3a2 2 0 0 0-2 2v24a2 2 0 0 0 2 2h30a2 2 0 0 0 2-2V6z" fill="#d79e84"/></g><g clip-path="url(#b)" transform="matrix(1.25 0 0 -1.25 0 45)"><path d="M0 3.917L37 33l-38-.208L0 3.917z" fill="#bf6952"/></g><g clip-path="url(#c)" transform="matrix(1.25 0 0 -1.25 0 45)"><path d="M31 9a1 1 0 0 0-1-1H6a1 1 0 0 0-1 1v18a1 1 0 0 0 1 1h24a1 1 0 0 0 1-1V9z" fill="#8ccaf7"/></g><g clip-path="url(#d)" transform="matrix(1.25 0 0 -1.25 0 45)"><path d="M23 7H3v8h20V7z" fill="#5dadec"/><path d="M14 11c1 0 1 3 3 3s2 3 3 3h12V7S10 5 10 6s2 5 4 5" fill="#67757f"/><path d="M19 8c1 2 2 4 5 4s3.105 1.553 4 2c2 1 3 0 4 0s6-6-1-7-11-2-12-1 0 2 0 2" fill="#292f33"/></g><g clip-path="url(#e)" transform="matrix(1.25 0 0 -1.25 0 45)"><path d="M10.375 21.875a1.875 1.875 0 1 0-3.75-.001 1.875 1.875 0 0 0 3.75.002M17.219 21.875a1.875 1.875 0 1 0-3.75-.001 1.875 1.875 0 0 0 3.75.002" fill="#fff"/><path d="M15.156 24.125a1.874 1.874 0 1 0-3.749 0 1.874 1.874 0 0 0 3.75 0" fill="#fff"/><path d="M12.906 23.375a1.875 1.875 0 1 0-3.75-.001 1.875 1.875 0 0 0 3.75.002" fill="#fff"/><path d="M29 17h-8v5h8v-5z" fill="#e75a70"/><path d="M21 21l4 4 4-4" fill="#e75a70" stroke="#292f33" stroke-width="2" stroke-linecap="round" stroke-linejoin="round" stroke-miterlimit="10"/><path d="M25 17h-2v3h2v-3z" fill="#bb1a34"/><path d="M15 23H7.625l1-3h6.75L15 23z" fill="#fff"/></g></svg>