<svg xmlns="http://www.w3.org/2000/svg" viewBox="0 0 45 45"><defs><clipPath id="a"><path d="M0 36h36V0H0v36z"/></clipPath></defs><g clip-path="url(#a)" transform="matrix(1.25 0 0 -1.25 0 45)"><path d="M31 21a2 2 0 0 0-2-2H7a2 2 0 0 0-2 2v8a2 2 0 0 0 2 2h22a2 2 0 0 0 2-2v-8z" fill="#fdcb58"/><path d="M33 17a2 2 0 0 0-2-2H5a2 2 0 0 0-2 2v8a2 2 0 0 0 2 2h26a2 2 0 0 0 2-2v-8z" fill="#fdd888"/><path d="M35 3a2 2 0 0 0-2-2H3a2 2 0 0 0-2 2v18a2 2 0 0 0 2 2h30a2 2 0 0 0 2-2V3z" fill="#fee7b8"/><path d="M23 33h-5a2 2 0 0 1-2-2v-1h2a2 2 0 0 0 2-2h3a2 2 0 0 1 2 2v1a2 2 0 0 1-2 2" fill="#78b159"/><path d="M17 29h-5a2 2 0 0 1-2-2v-1h2a2 2 0 0 0 2-2h3a2 2 0 0 1 2 2v1a2 2 0 0 1-2 2" fill="#f18f26"/><path d="M13 22a2 2 0 0 0-2-2H6a2 2 0 0 0-2 2v1a2 2 0 0 0 2 2h5a2 2 0 0 0 2-2v-1z" fill="#9268ca"/></g></svg>