<svg xmlns="http://www.w3.org/2000/svg" viewBox="0 0 45 45"><defs><clipPath id="a"><path d="M0 36h36V0H0v36z"/></clipPath></defs><g clip-path="url(#a)" transform="matrix(1.25 0 0 -1.25 0 45)"><path d="M30 2a2 2 0 0 0-2-2H8a2 2 0 0 0-2 2v32a2 2 0 0 0 2 2h20a2 2 0 0 0 2-2V2z" fill="#292f33"/><path d="M28 20a1 1 0 0 0-1-1H9a1 1 0 0 0-1 1v13a1 1 0 0 0 1 1h18a1 1 0 0 0 1-1V20zM28 3a1 1 0 0 0-1-1H9a1 1 0 0 0-1 1v13a1 1 0 0 0 1 1h18a1 1 0 0 0 1-1V3z" fill="#66757f"/><path d="M22 28a1 1 0 0 0-1-1h-6a1 1 0 0 0-1 1v3a1 1 0 0 0 1 1h6a1 1 0 0 0 1-1v-3zM22 11a1 1 0 0 0-1-1h-6a1 1 0 0 0-1 1v3a1 1 0 0 0 1 1h6a1 1 0 0 0 1-1v-3z" fill="#292f33"/><path d="M21 28h-6v3h6v-3zM21 11h-6v3h6v-3zM24 22.97a.97.97 0 0 0-.97-.97H12.97a.97.97 0 0 0-.97.97v.06c0 .535.434.97.97.97h10.06a.97.97 0 0 0 .97-.97v-.06zM24 5.97a.971.971 0 0 0-.97-.97H12.97a.97.97 0 0 0-.97.97v.06c0 .536.434.97.97.97h10.06a.97.97 0 0 0 .97-.97v-.06z" fill="#e1e8ed"/></g></svg>