<svg xmlns="http://www.w3.org/2000/svg" viewBox="0 0 45 45"><defs><clipPath id="a"><path d="M0 36h36V0H0v36z"/></clipPath></defs><g clip-path="url(#a)" transform="matrix(1.25 0 0 -1.25 0 45)"><path d="M35 16c0-2.209-1.791-2-4-2H5c-2.209 0-4-.209-4 2l2 12c.125 1.917 1.791 4 4 4h22c2.209 0 3.791-2.208 4-4l2-12z" fill="#67757f"/><path d="M28 23a2 2 0 0 0-2-2H10a2 2 0 0 0-2 2v8a2 2 0 0 0 2 2h16a2 2 0 0 0 2-2v-8z" fill="#ccd6dd"/><path d="M30 19a2 2 0 0 0-2-2H8a2 2 0 0 0-2 2v8a2 2 0 0 0 2 2h20a2 2 0 0 0 2-2v-8z" fill="#e1e8ed"/><path d="M32 15a2 2 0 0 0-2-2H6a2 2 0 0 0-2 2v8a2 2 0 0 0 2 2h24a2 2 0 0 0 2-2v-8z" fill="#f5f8fa"/><path d="M35 5a4 4 0 0 0-4-4H5a4 4 0 0 0-4 4v11a4 4 0 0 0 4 4h26a4 4 0 0 0 4-4V5z" fill="#9aaab4"/><path d="M22 35h-5a2 2 0 0 1-2-2v-1h4a2 2 0 0 0 2-2h1a2 2 0 0 1 2 2v1a2 2 0 0 1-2 2" fill="#fcab40"/><path d="M18 31h-5a2 2 0 0 1-2-2v-1h4a2 2 0 0 0 2-2h1a2 2 0 0 1 2 2v1a2 2 0 0 1-2 2" fill="#5dadec"/><path d="M16 24a2 2 0 0 0-2-2H9a2 2 0 0 0-2 2v1a2 2 0 0 0 2 2h5a2 2 0 0 0 2-2v-1z" fill="#e75a70"/><path d="M25 8a2 2 0 0 0-2-2H12.999a2 2 0 0 0-2 2v5a2 2 0 0 0 2 2H23a2 2 0 0 0 2-2V8z" fill="#67757f"/><path d="M23 9a1 1 0 0 0-1-1h-8.001a1 1 0 0 0-1 1v3a1 1 0 0 0 1 1H22a1 1 0 0 0 1-1V9z" fill="#e1e8ed"/></g></svg>