<svg xmlns="http://www.w3.org/2000/svg" viewBox="0 0 45 45"><defs><clipPath id="a"><path d="M0 36h36V0H0v36z"/></clipPath><clipPath id="b"><path d="M22.596 33.305L1.382 12.092 11.99 1.485l21.213 21.214c1.952 1.952 1.162 5.909-1.769 8.838-1.841 1.842-4.091 2.839-5.992 2.839-1.122 0-2.122-.347-2.846-1.071"/></clipPath><clipPath id="c"><path d="M0 36h36V0H0v36z"/></clipPath></defs><g clip-path="url(#a)" transform="matrix(1.25 0 0 -1.25 0 45)"><path d="M33.203 22.7L11.99 1.484 1.383 12.092l21.214 21.213c1.952 1.953 5.91 1.161 8.838-1.768 2.93-2.929 3.72-6.886 1.768-8.838" fill="#e1e8ed"/></g><g clip-path="url(#b)" transform="matrix(1.25 0 0 -1.25 0 45)"><path d="M1.383 12.092L26.132 36.84l5.556-5.556-24.75-24.75-5.555 5.557z" fill="#99aab5"/></g><g clip-path="url(#c)" transform="matrix(1.25 0 0 -1.25 0 45)"><path d="M10.222 10.324c-2.928 2.93-6.886 3.721-8.84 1.768-1.952-1.954-1.16-5.91 1.769-8.838C6.08.324 10.037-.466 11.99 1.485c1.953 1.953 1.16 5.91-1.768 8.84" fill="#66757f"/><path d="M31.68 31.276c2.722-2.898 3.419-6.682 1.523-8.577L11.99 1.485c1.953 1.953 1.16 5.91-1.768 8.84l-3.89 3.888 21.214 21.213 4.142-4.14-.008-.01z" fill="#ccd6dd"/><path d="M33.094 32.69c2.722-2.898 3.42-6.682 1.523-8.577L13.404 2.9c1.953 1.952 1.162 5.91-1.768 8.838L9.16 14.213l21.213 21.213 2.728-2.727-.008-.009z" fill="#e1e8ed"/><path d="M2.21 10.997c-1.402-1.4-.838-4.37 1.281-6.759C5.407 2.08 8.44.23 10.678 2.115c.761.633 1.163 1.608 1.146 2.735-.028 1.974-1.298 4.193-3.313 5.79a.754.754 0 0 1-1.054-.12.75.75 0 0 1 .122-1.054c1.646-1.305 2.724-3.126 2.745-4.638.007-.474-.094-1.13-.612-1.566-1.513-1.274-3.917.64-5.099 1.97C2.938 7.12 2.561 9.226 3.271 9.936c.183.184.411.232.695.148.877-.262 2-1.662 2.534-4.205a.75.75 0 1 1 1.467.307c-.589 2.81-1.958 4.853-3.572 5.335-.814.243-1.609.051-2.185-.524M28.432 31.714a.75.75 0 0 1 .058-1.114c.03-.025 3.099-2.54 3.256-5.817a.752.752 0 0 1 1.5.074c-.191 3.96-3.668 6.794-3.817 6.912a.746.746 0 0 1-.997-.055M26.31 29.593a.75.75 0 0 1 .059-1.114c.03-.025 3.099-2.54 3.256-5.817a.75.75 0 0 1 1.499.074c-.191 3.959-3.668 6.793-3.816 6.912a.747.747 0 0 1-.998-.055M17.824 21.107a.75.75 0 0 1 .059-1.114c.031-.025 3.1-2.539 3.256-5.817a.751.751 0 0 1 1.5.074c-.192 3.96-3.669 6.793-3.817 6.912a.747.747 0 0 1-.998-.055M12.875 16.158c-.019-.02-.038-.039-.055-.06a.75.75 0 0 1 .113-1.055c.032-.025 3.1-2.539 3.257-5.817a.75.75 0 1 1 1.499.075c-.191 3.96-3.668 6.793-3.816 6.912a.748.748 0 0 1-.998-.055" fill="#99aab5"/><path d="M24.775 16.46c1.296 1.349 3.49 3.384 3.756 3.662.613.642-1.54 5.472-3.302 6.854-.386.302-.859.057-1.062-.151a356.867 356.867 0 0 0-3.677-3.708c-.232-.23-.365-.651-.039-.952 1.067-.984 2.986-3.424 3.528-5.663.064-.26.527-.322.796-.041" fill="#5dadec"/></g></svg>