<svg xmlns="http://www.w3.org/2000/svg" viewBox="0 0 45 45"><defs><clipPath id="a"><path d="M0 36h36V0H0v36z"/></clipPath></defs><g clip-path="url(#a)" transform="matrix(1.25 0 0 -1.25 0 45)"><path d="M16 3a3 3 0 1 0-6 0 3 3 0 0 0 6 0M35 3a3 3 0 1 0-6 0 3 3 0 0 0 6 0" fill="#67757f"/><path d="M32 2H13v2h19V2z" fill="#67757f"/><path d="M20 20.498c0 1.38 1.119 1.5 2.5 1.5s2.5-.12 2.5-1.5V2.5a2.5 2.5 0 0 0-5 0v17.998z" fill="#9aaab4"/><path d="M27 20.998a2 2 0 0 0-2-2h-5a2 2 0 0 0-2 2c0 1.104.896 1 2 1h5c1.105 0 2 .104 2-1" fill="#67757f"/><path d="M28 9a2 2 0 0 0-2-2h-7a2 2 0 0 0-2 2v5a2 2 0 0 0 2 2h7a2 2 0 0 0 2-2V9zM28 31a2 2 0 0 0-2-2h-7a2 2 0 0 0-2 2v1a2 2 0 0 0 2 2h7a2 2 0 0 0 2-2v-1z" fill="#da2f47"/><path d="M13 14a2 2 0 0 0-2 2v13a2 2 0 0 0 2 2h15v1a4 4 0 0 1-4 4H7a4 4 0 0 1-4-4V13a4 4 0 0 1 4-4h14a4 4 0 0 1 4 4v1H13z" fill="#da2f47"/><path d="M9 16a2 2 0 0 0-4 0v13a2 2 0 0 0 4 0V16z" fill="#e75a70"/></g></svg>