<svg xmlns="http://www.w3.org/2000/svg" viewBox="0 0 45 45"><defs><clipPath id="a"><path d="M0 36h36V0H0v36z"/></clipPath></defs><path d="M36.115 33.51l-2.157-5.488 3.187-8.325.513 1.344-1.543 12.469zM29.375 40l2.77-7.238L34.915 40h-5.54zm-5.06-11.978l3.007-7.86 3.009 7.86-3.009 7.658-3.007-7.658zM19.73 40l2.77-7.238L25.27 40h-5.54zm-5.06-11.978l3.007-7.86 3.009 7.86-3.009 7.658-3.007-7.658zM10.086 40l2.769-7.238L15.625 40h-5.539zM7.447 20.764l.408-1.067 3.186 8.325-1.966 5.005-1.628-12.263zm5.23-13.667l3.249 8.49-3.071 7.817-3.252-8.275 3.074-8.032zm9.823.464l3.071 8.025-3.071 7.818-3.072-7.818L22.5 7.561zm9.822-.464l3.074 8.032-3.251 8.275-3.072-7.818 3.25-8.489zM39.375 5l-2.23 5.677L34.915 5H29.73l-2.408 6.129-2.407-6.13h-4.829l-2.409 6.13-2.407-6.13h-5.184l-2.231 5.678L5.625 5H2.667l4.669 35.016h30.329L42.334 5h-2.96z" fill="#9aaab4"/><g clip-path="url(#a)" transform="matrix(1.25 0 0 -1.25 0 45)"><path d="M32 2a2 2 0 0 1-2 2H6a2 2 0 0 1 0-4h24a2 2 0 0 1 2 2M36 34a2 2 0 0 1-2 2H2a2 2 0 0 1 0-4h32a2 2 0 0 1 2 2" fill="#67757f"/></g></svg>