<svg xmlns="http://www.w3.org/2000/svg" viewBox="0 0 45 45"><defs><clipPath id="a"><path d="M0 36h36V0H0v36z"/></clipPath></defs><path d="M34.767 7.989h2.495V5h-2.495v2.989z" fill="#66757f"/><g clip-path="url(#a)" transform="matrix(1.25 0 0 -1.25 0 45)"><path d="M29 32H9a4 4 0 0 1-4-4V4a4 4 0 0 1 4-4h20a4 4 0 0 1 4 4v24a4 4 0 0 1-4 4" fill="#55acee"/><path d="M27 32H7a4 4 0 0 1-4-4V4a4 4 0 0 1 4-4h20a4 4 0 0 1 4 4v24a4 4 0 0 1-4 4" fill="#ccd6dd"/><path d="M28 21a1 1 0 0 0-1-1H7a1 1 0 1 0 0 2h20a1 1 0 0 0 1-1M28 16a1 1 0 0 0-1-1H7a1 1 0 1 0 0 2h20a1 1 0 0 0 1-1M28 11a1 1 0 0 0-1-1H7a1 1 0 1 0 0 2h20a1 1 0 0 0 1-1M20 6a1 1 0 0 0-1-1H7a1 1 0 1 0 0 2h12a1 1 0 0 0 1-1" fill="#99aab5"/><path d="M7.836 27.27c-.702 0-1.271.666-1.271 1.489 0 .823.569 1.49 1.27 1.49.702 0 1.27-.667 1.27-1.49s-.568-1.49-1.27-1.49" fill="#292f33"/><path d="M8.543 28.917c-.055.479-.374.792-.729 1.017-.485.306-1 1.007-1 1.876 0 1.105.671 2.095 1.5 2.095.83 0 1.501-.905 1.501-1.905h1.996c-.021 2-1.576 3.821-3.497 3.821-1.933 0-3.5-1.819-3.5-4.005 0-1.853 1.045-3.371 2.57-3.925.759-.276 1.223.447 1.159 1.026" fill="#66757f"/><path d="M13.836 27.27c-.702 0-1.271.666-1.271 1.489 0 .823.569 1.49 1.27 1.49.702 0 1.27-.667 1.27-1.49s-.568-1.49-1.27-1.49" fill="#292f33"/><path d="M14.543 28.917c-.055.479-.374.792-.729 1.017-.485.306-1 1.007-1 1.876 0 1.105.671 2.095 1.5 2.095.83 0 1.5-.905 1.5-1.905h1.997c-.021 2-1.576 3.821-3.497 3.821-1.933 0-3.5-1.819-3.5-4.005 0-1.853 1.045-3.371 2.57-3.925.759-.276 1.223.447 1.159 1.026" fill="#66757f"/><path d="M19.836 27.27c-.702 0-1.271.666-1.271 1.489 0 .823.569 1.49 1.27 1.49.702 0 1.27-.667 1.27-1.49s-.568-1.49-1.27-1.49" fill="#292f33"/><path d="M20.543 28.917c-.055.479-.374.792-.729 1.017-.485.306-1 1.007-1 1.876 0 1.105.671 2.095 1.5 2.095.83 0 1.5-.905 1.5-1.905h1.997c-.021 2-1.576 3.821-3.497 3.821-1.933 0-3.5-1.819-3.5-4.005 0-1.853 1.045-3.371 2.57-3.925.759-.276 1.223.447 1.159 1.026" fill="#66757f"/><path d="M25.836 27.27c-.702 0-1.271.666-1.271 1.489 0 .823.569 1.49 1.27 1.49.702 0 1.27-.667 1.27-1.49s-.568-1.49-1.27-1.49" fill="#292f33"/><path d="M26.543 28.917c-.055.479-.374.792-.729 1.017-.485.306-1 1.007-1 1.876 0 1.105.671 2.095 1.5 2.095.83 0 1.5-.905 1.5-1.905h1.997c-.021 2-1.576 3.821-3.497 3.821-1.933 0-3.5-1.819-3.5-4.005 0-1.853 1.045-3.371 2.57-3.925.759-.276 1.223.447 1.159 1.026" fill="#66757f"/></g></svg>