<svg xmlns="http://www.w3.org/2000/svg" viewBox="0 0 45 45"><defs><clipPath id="a"><path d="M0 36h36V0H0v36z"/></clipPath><clipPath id="b"><path d="M6 32a4 4 0 0 1-4-4V4a4 4 0 0 1 4-4h24a4 4 0 0 1 4 4v24a4 4 0 0 1-4 4H6z"/></clipPath><clipPath id="c"><path d="M0 36h36V0H0v36z"/></clipPath></defs><path d="M36.017 7.989h2.495V5h-2.495v2.989z" fill="#66757f"/><g clip-path="url(#a)" transform="matrix(1.25 0 0 -1.25 0 45)"><path d="M30 32H6a4 4 0 0 1-4-4V4a4 4 0 0 1 4-4h24a4 4 0 0 1 4 4v24a4 4 0 0 1-4 4" fill="#ccd6dd"/></g><g clip-path="url(#b)" transform="matrix(1.25 0 0 -1.25 0 45)"><path d="M34 23H2v9h32v-9z" fill="#dd2e44"/></g><g clip-path="url(#c)" transform="matrix(1.25 0 0 -1.25 0 45)"><path d="M8.836 27.27c-.702 0-1.271.666-1.271 1.489 0 .823.569 1.49 1.27 1.49.702 0 1.27-.667 1.27-1.49s-.568-1.49-1.27-1.49" fill="#292f33"/><path d="M9.543 28.917c-.055.479-.374.792-.729 1.017-.485.306-1 1.007-1 1.876 0 1.105.671 2.095 1.5 2.095.83 0 1.5-.905 1.5-1.905h1.997c-.021 2-1.576 3.821-3.497 3.821-1.933 0-3.5-1.819-3.5-4.005 0-1.853 1.045-3.371 2.57-3.925.759-.276 1.223.447 1.159 1.026" fill="#66757f"/><path d="M14.836 27.27c-.702 0-1.271.666-1.271 1.489 0 .823.569 1.49 1.27 1.49.702 0 1.27-.667 1.27-1.49s-.568-1.49-1.27-1.49" fill="#292f33"/><path d="M15.543 28.917c-.055.479-.374.792-.729 1.017-.485.306-1 1.007-1 1.876 0 1.105.671 2.095 1.5 2.095.83 0 1.5-.905 1.5-1.905h1.997c-.021 2-1.576 3.821-3.497 3.821-1.933 0-3.5-1.819-3.5-4.005 0-1.853 1.045-3.371 2.57-3.925.759-.276 1.223.447 1.159 1.026" fill="#66757f"/><path d="M20.836 27.27c-.702 0-1.271.666-1.271 1.489 0 .823.569 1.49 1.27 1.49.702 0 1.27-.667 1.27-1.49s-.568-1.49-1.27-1.49" fill="#292f33"/><path d="M21.543 28.917c-.055.479-.374.792-.729 1.017-.485.306-1 1.007-1 1.876 0 1.105.671 2.095 1.5 2.095.83 0 1.5-.905 1.5-1.905h1.997c-.021 2-1.576 3.821-3.497 3.821-1.933 0-3.5-1.819-3.5-4.005 0-1.853 1.045-3.371 2.57-3.925.759-.276 1.223.447 1.159 1.026" fill="#66757f"/><path d="M26.836 27.27c-.702 0-1.271.666-1.271 1.489 0 .823.569 1.49 1.27 1.49.702 0 1.27-.667 1.27-1.49s-.568-1.49-1.27-1.49" fill="#292f33"/><path d="M27.543 28.917c-.055.479-.374.792-.729 1.017-.485.306-1 1.007-1 1.876 0 1.105.671 2.095 1.5 2.095.83 0 1.5-.905 1.5-1.905h1.997c-.021 2-1.576 3.821-3.497 3.821-1.933 0-3.5-1.819-3.5-4.005 0-1.853 1.045-3.371 2.57-3.925.759-.276 1.223.447 1.159 1.026" fill="#66757f"/><path d="M15 17h-4v4h4v-4zM20 17h-4v4h4v-4zM25 17h-4v4h4v-4zM30 17h-4v4h4v-4zM10 12H6v4h4v-4zM15 12h-4v4h4v-4zM20 12h-4v4h4v-4zM25 12h-4v4h4v-4zM30 12h-4v4h4v-4zM10 7H6v4h4V7zM15 7h-4v4h4V7zM20 7h-4v4h4V7zM25 7h-4v4h4V7zM30 7h-4v4h4V7zM10 2H6v4h4V2zM15 2h-4v4h4V2zM20 2h-4v4h4V2z" fill="#fff"/></g></svg>