<svg xmlns="http://www.w3.org/2000/svg" viewBox="0 0 45 45"><defs><clipPath id="a"><path d="M0 36h36V0H0v36z"/></clipPath></defs><g clip-path="url(#a)" transform="matrix(1.25 0 0 -1.25 0 45)"><path d="M7.915 1.132C8.64.407 9.228-.181 10.332.922c1.103 1.103-.666 2.87.438 3.975 1.104 1.103-.552-.552.552.55 1.104 1.105 2.872-.663 3.974.44 1.104 1.103.516 1.692-.21 2.417L12.41 10.98c-.725.724-1.807.819-2.417.209L5.029 6.226c-.61-.61-.516-1.693.209-2.417l2.677-2.677z" fill="#292f33"/><path d="M1.03 2.228a2 2 0 0 1 2.829 0l19.07 19.069c-.101 2.727 4.95 4.95 3.536 6.363-.781.781-4.243-5.657-6.971-4.142L1.03 5.055a2 2 0 0 1 0-2.828" fill="#67757f"/><path d="M23.282 25.893a3.5 3.5 0 1 0-4.95 4.95 3.5 3.5 0 0 0 4.95-4.95m-6.364 6.364a5.5 5.5 0 1 1 7.777-7.778 5.5 5.5 0 0 1-7.777 7.778" fill="#292f33"/><path d="M32.475 28.014a3.5 3.5 0 1 0-4.95 4.952 3.5 3.5 0 0 0 4.95-4.952m-6.363 6.364a5.498 5.498 0 0 1 0-7.778 5.498 5.498 0 0 1 7.777 0 5.498 5.498 0 0 1 0 7.778 5.498 5.498 0 0 1-7.777 0" fill="#292f33"/><path d="M30.354 18.822a3.5 3.5 0 1 0-4.95 4.95 3.5 3.5 0 0 0 4.95-4.95m-6.364 6.364a5.5 5.5 0 0 1 0-7.778 5.498 5.498 0 0 1 7.778 0 5.5 5.5 0 1 1-7.779 7.778" fill="#292f33"/><path d="M19.394 17.762a2 2 0 0 0-2.83-2.83l-2.828 2.83a2 2 0 1 0 2.829 2.828l2.829-2.828z" fill="#67757f"/><path d="M27 27a1 1 0 1 0-2 0 1 1 0 0 0 2 0" fill="#292f33"/></g></svg>