<svg xmlns="http://www.w3.org/2000/svg" viewBox="0 0 45 45"><defs><clipPath id="a"><path d="M0 36h36V0H0v36z"/></clipPath><clipPath id="b"><path d="M11.208 16.2L3.43 8.422c-.781-.781-.654-2.174.282-3.111l.849-.848c.937-.938 2.33-1.065 3.112-.283l7.777 7.777c.782.782.655 2.174-.282 3.113l-.848.848c-.524.524-1.191.794-1.814.794-.491.001-.954-.168-1.298-.512"/></clipPath><clipPath id="c"><path d="M0 36h36V0H0v36z"/></clipPath></defs><g clip-path="url(#a)" transform="matrix(1.25 0 0 -1.25 0 45)"><path d="M12.622 19.029c.708.707 7.072 12.729 22.628 16.97L14.037 14.787c-.707.707-1.415 4.243-1.415 4.243" fill="#ccd6dd"/><path d="M18.28 13.371c.706.707 12.728 7.073 16.97 22.63-1.414-1.416-20.507-20.508-21.214-21.215.707-.708 4.243-1.415 4.243-1.415" fill="#9aaab4"/><path d="M15.45 11.957c.782.781.656 2.174-.282 3.112l-.848.849c-.938.937-2.33 1.063-3.112.282L3.43 8.422c-.781-.781-.654-2.174.283-3.111l.848-.848c.938-.938 2.33-1.065 3.112-.283l7.778 7.777z" fill="#292f33"/></g><g clip-path="url(#b)" transform="matrix(1.25 0 0 -1.25 0 45)"><path d="M19.01 10.74c-.107-.543-.983-.824-1.96-.629L2.93 12.935c-.975.196-1.677.791-1.57 1.334.11.543.988.823 1.962.627l14.122-2.824c.975-.195 1.675-.79 1.567-1.332M22.285 14.014c-.108-.543-.985-.824-1.96-.627L6.202 16.21c-.974.196-1.677.792-1.568 1.333.108.543.986.823 1.961.628l14.121-2.823c.975-.196 1.676-.792 1.568-1.334M18.227 6.818c-.108-.543-.984-.824-1.96-.629L2.145 9.013C1.17 9.21.469 9.804.577 10.347c.108.541.986.823 1.96.627L16.66 8.15c.975-.195 1.676-.79 1.568-1.332M14.662 3.252c-.108-.541-.985-.822-1.96-.627L-1.42 5.449c-.974.196-1.677.791-1.568 1.334.108.541.986.823 1.96.627l14.122-2.824c.975-.195 1.676-.791 1.568-1.334" fill="#67757f"/></g><g clip-path="url(#c)" transform="matrix(1.25 0 0 -1.25 0 45)"><path d="M6.965 2.059a4 4 0 0 0-5.657 5.656c1.562 1.563 4.114 1.598 5.676.035 1.562-1.562 1.543-4.13-.019-5.691M19.693 9.836a1.5 1.5 0 0 0-2.12 0l-8.84 8.839a1.5 1.5 0 1 0 2.121 2.12l8.84-8.838a1.5 1.5 0 0 0 0-2.121" fill="#292f33"/></g></svg>