<svg xmlns="http://www.w3.org/2000/svg" viewBox="0 0 45 45"><path d="M33.833 33.148l-1.084-5.421 4.734 1.052-3.095-4.126 5.734-2.294-5.895-3.537 4.055-3.041h-5.469l3.46-4.614-5.411 1.082 1.615-7.536-5.909 5.373-2.273-5.68-3.608 7.216-3.573-5.954-1.669 5.568-6.23-4.155 2.71 6.508-5.033-1.118 3.071 4.095-5.148 2.287 5.664 3.399-2.144 3.216h4.852L6.328 38.131l11.501-9.41 2.311 5.776 3.672-6.119 3.608 7.216 2.233-5.58 4.18 3.134z" fill="#e1e8ed"/><path d="M27.182 7.415L24.454.594l-3.892 7.783-3.927-6.546-2.08 6.934-8.769-5.846 3.539 8.492-6.216-1.381 4.427 5.905-6.101 2.712L8.27 22.75 5.415 27.03h5.149L1.172 44.37l15.999-13.09 2.689 6.723 3.828-6.38 3.892 7.783 2.767-6.919 5.819 4.365-1.415-7.077 6.516 1.447-4.405-5.875 6.765-2.705-6.605-3.962 5.947-4.46h-7.032l4.04-5.385-7.088 1.417L35.023.287l-7.84 7.128zm-2.886-3.01l2.271 5.681 5.909-5.374-1.614 7.537 5.412-1.083-3.46 4.615h5.467l-4.054 3.041 5.895 3.538-5.735 2.294 3.095 4.126-4.733-1.054 1.084 5.423-4.18-3.135-2.232 5.58-3.609-7.215-3.671 6.118-2.311-5.776-11.503 9.41 6.859-12.662H8.335l2.145-3.218-5.664-3.399 5.148-2.286-3.072-4.095 5.033 1.119L9.213 7.08l6.232 4.154 1.67-5.566 3.572 5.953 3.609-7.217z" fill="#67757f"/></svg>