<svg xmlns="http://www.w3.org/2000/svg" viewBox="0 0 45 45"><defs><clipPath id="a"><path d="M0 36h36V0H0v36z"/></clipPath></defs><g clip-path="url(#a)" transform="matrix(1.25 0 0 -1.25 0 45)"><path d="M35.838 12.84a.997.997 0 0 0-.998-1.002l-5-.013a.998.998 0 0 0-1 .997.998.998 0 0 0 .995 1.004l5 .013a1 1 0 0 0 1.003-.998M34.251 18.33a1 1 0 0 0-.475-1.333l-4.516-2.145a.999.999 0 0 0-1.33.476.998.998 0 0 0 .473 1.333l4.516 2.144a1 1 0 0 0 1.332-.475M34.278 7.343a1 1 0 0 1-.48 1.33l-4.528 2.122a.998.998 0 1 1-.848-1.81l4.526-2.122a.999.999 0 0 1 1.33.48" fill="#ffac33"/><path d="M27.98 21.125c-1.42.419-2.693 1.547-3.136 2.25-.76 1.208.156 1.521-.154 4.889-.284 3.083-4.53 6.399-9.69 6.736-2.345.153-4.785-.326-7.285-1.693-6.42-3.511-8.965-10.932-4.006-18.099 4.47-6.46.276-9.379.276-9.379s.166-1.36 2.914-3.188c2.749-1.828 6.12-.588 6.12-.588s1.113 3.954 4.749 3.59c2.607-.384 6.266.128 7.19 1.024.867.837-.15 1.886.54 4.224-2.365.231-3.664 1.359-3.79 2.948 2.626-.255 3.708.578 4.458 1.495-.02.54-.075 1.686-.126 2.454 2.32.672 3.21 2.962 1.94 3.337" fill="#292f33"/></g></svg>