<svg xmlns="http://www.w3.org/2000/svg" viewBox="0 0 45 45"><defs><clipPath id="a"><path d="M0 36h36V0H0v36z"/></clipPath><clipPath id="b"><path d="M4 36s-4 0-4-4V4c0-4 4-4 4-4h28c4 0 4 4 4 4v28s0 4-4 4H4z"/></clipPath></defs><g clip-path="url(#a)" transform="matrix(1.25 0 0 -1.25 0 45)"><path d="M36 4s0-4-4-4H4S0 0 0 4v28c0 4 4 4 4 4h28c4 0 4-4 4-4V4z" fill="#88c9f9"/></g><g clip-path="url(#b)" transform="matrix(1.25 0 0 -1.25 0 45)"><path d="M3.114 14h1.483C4.32 12.819 4 12 4 12s-.372.747-.886 2M36 26l-7.181-1.796a13.072 13.072 0 0 1-2.323 2.622L32 36h-2l-6.38-7.292c-1.162.56-2.418.949-3.741 1.141L18.999 36h-2l-.878-6.151a12.867 12.867 0 0 1-3.676-1.109L7 36H5l4.56-9.123a13.065 13.065 0 0 1-2.38-2.673L0 26v-2.001l5.819-2.493A12.952 12.952 0 0 1 4.999 17c0-.098-.011-.191-.015-.288l-2.748-.393c-.08.225-.157.444-.236.681-1 2.999-2 4.999-2 4.999L-1-3l33 3s-.465 1.044 0 2c.179.368 1.448.658 1 2-.71 2.129-1.417 6.767-1.77 10H36v2l-4.992.713A7.964 7.964 0 0 0 31 17c0 1.587-.3 3.1-.818 4.506L36 23.999V26z" fill="#157569"/><path d="M7 18s.422 3.316 4 5.999C15 27 17 26 17 25s-3-1-6-3-4-4-4-4M29 18s-.423 3.316-4 5.999C21 27 19 26 19 25s3-1 6-3 4-4 4-4M18 22c-6 0-8-4-8-4s2 2 4 2 2-2 2-2v-2c0-1 2-1 2-1s2 0 2 1v2s0 2 2 2 4-2 4-2-2 4-8 4" fill="#3fc9b9"/><path d="M23 16c-2 0-2 1-2 1s-.083-2.815-1-4h-4c-.918 1.185-1 4-1 4s0-1-2-1-4 1-4 1 0-9 2-10c1.265-.633 4 1 7 1s5.735-1.633 7-1c2 1 2 10 2 10s-2-1-4-1" fill="#3fc9b9"/><path d="M15 11h6s-1 1-3 1-3-1-3-1" fill="#157569"/><path d="M2 13s3-7 6-9 9.583-3 10.292-5C18.292-1 9 4 7 1 5.526-1.211 5 2 5 3s0 4-2 1c-.785-1.177-2 4-1 9" fill="#3fc9b9"/></g></svg>