<svg xmlns="http://www.w3.org/2000/svg" viewBox="0 0 45 45"><defs><clipPath id="a"><path d="M0 36h36V0H0v36z"/></clipPath></defs><g clip-path="url(#a)" transform="matrix(1.25 0 0 -1.25 0 45)"><path d="M12 28.393l-9 2.41c-1.657.445-3-.538-3-2.195v-20c0-1.656 1.343-3.36 3-3.804l9-2.411v26zM24 5.607l9-2.41c1.656-.445 3 .54 3 2.195v20c0 1.657-1.344 3.361-3 3.804l-9 2.411v-26z" fill="#ccd6dd"/><path d="M24 5.608L12 2.392v26l12 3.216v-26z" fill="#e1e8ed"/><path d="M12 26.393l-8 2.144c-1.104.295-2-.36-2-1.464v-18c0-1.104.896-2.24 2-2.536l8-2.144v22zM32 27.465l-8 2.144v-22l8-2.144c1.105-.296 2 .359 2 1.465v18c0 1.103-.895 2.239-2 2.535" fill="#55acee"/><path d="M24 7.608L12 4.392v22l12 3.216v-22z" fill="#88c9f9"/><path d="M12 14.494c-.268-.006-.595-.104-.845-.145-.436-.073-.329-.516-.463-.443a2.844 2.844 0 0 0-.812.658c-.337.395.25.478.418.622.168.145-.317.172-.486.333-.169.16-.47-.104-.739.276-.269.376-.101.79-.133 1.18-.034.39.436.34.739.333.302-.002.537-.143.537-.602 0-.456.37-.708.27-.146-.101.561.1.658.235.89.134.23.37.55.673 1.04.221.358.389.283.606.164V22c-.055.044-.11.09-.165.113-.303.132.097-.753-.138-1.109-.237-.357-.598-.193-.97-.094-.369.1-.713.545-.443 1.007.268.462.782.267 1.051.653.27.385-.956.672-1.394.942-.437.27-.962.41-1.4.145-.437-.264-1.373-.133-1.743-.185-.369-.054-.435.37-.503.693-.066.322-.652.33-1.257.338-.606.01-1.741-.28-1.547-1.759.068-.514.605-.124.707-.036.1.088.605-.2.671-.637.068-.438.034-.887-.099-1.232-.137-.345.336-1.006.604-1.612.269-.606.572-.687.706-.723.135-.036.908-.587.875-.996-.034-.41.706-.992 1.009-1.34.303-.35.494-.662.887-.846.393-.182.852-1.035 1.054-1.165.155-.099.418-.45.576-.58-.208-.242-.612-.748-.612-1.029 0-.383.441-1.103.608-1.3.168-.196.65-.442.751-.85.101-.407-.07-1.646-.373-1.907-.304-.262-.414-1.043-.414-1.043s.107-.293.465-.124c.309.144.777.567 1.094.801v6.37z" fill="#5c913b"/><path d="M24 20.269v6.314c-.04-.003-.068-.011-.11-.014-.209-.011-.483-.135-.78-.32-.024.005-.046.016-.07.02-.895.176-1.312-1.204-2.039-1.151-.73.052-1.7.343-2.332-.514-.631-.858-.776-1.53 0-1.295.777.236 1.312 1.426 1.7 1.089.388-.336.29-.72-.632-1.105-.922-.385-1.917-.816-2.451-.96-.534-.143-.656-.534-.292-.821.364-.288-.219-.472-.825-1.02-.607-.548.146-.512.656-.705.51-.193.898.323 1.117.932.217.609 1.158 1.522 1.55 1.544.392.023.392-.197.319-.602-.013-.072.001-.103.01-.14-.17-.54-.309-1.028-.365-1.305a3.321 3.321 0 0 1-.027-.595c-.086-.003-.183-.021-.248 0-.438.128-1.434.219-1.701-.043-.267-.266-.412-.502-.728-.723-.316-.22-1.603-1.224-1.626-2.084-.025-.86-.049-1.83.46-1.721.51.11 1.749.826 2.137 1.288.387.463.921.523 1.092.156.169-.37.048-.65-.12-1.354-.172-.708.11-.963.381-1.468.274-.504.491-.775.491-1.19 0-.411.389-.722.97.124.188.269.367.606.536.957.409.469.768.923.758 1.096-.016.28-.021.433-.024.624.033.082.064.157.091.219.126.293.241.746.362 1.156l.019.024c.238.337.185.353.58.756.264.269.254.512.214.678.106.174.134.28-.033.235l-.016-.004c-.001 0-.004-.02-.005-.014-.023.15-.206-.003-.501-.147-.285-.008-.567.065-.668.368-.133.396-.602.996-.639 1.336.003.04.005.077.01.124a.16.16 0 0 0 .069.088.29.29 0 0 0 .112.035c.041-.111.076-.28.086-.464.027-.477.395-.196.395-.498s.53-.492.661-.548c.037-.015.094.028.159.098.031-.011.06-.033.093-.037.292-.031.922.984 1.117 1.164.102.095.105.269.033.394l.054.023m-9.142-7.24c-.437.075-.359.024-.628.599-.269.577-.432.743-1.036.657-.606-.087-.584-.136-.751.163-.072.128-.241.082-.443-.032v-6.37c.09.115.17.21.228.267.505.476.996 1.026 1.466 1.646.471.62.301.924.536 1.48.235.559.54.618.943 1.146.405.53.122.368-.315.445m-2.59 5.557c-.1-.015-.187-.011-.268-.01v3.344c.254-.064.512-.317.706-.735.234-.51.605-.067.739-.374.134-.308.875-.758.505-.742-.371.014-.74-.008-.841-.454-.102-.448.168-.795-.102-.83-.269-.032-.369-.141-.739-.2" fill="#77b255"/><path d="M31.407 12.23c-.133.338-.518.713-.675.91-.159.194-.407.313-.618.28-.212-.032-.343.091-.448.361-.107.265-.29.232-.449.244-.158.012-.79-.119-1.162-.23-.368-.114-.537-.253-.778-.458-.382-.32-.17-.105 0-.423.168-.319-.186-1.067-.213-1.543-.027-.477.676-.032.94-.039.263-.012.185.19.396.314.212.125.35.13.58-.172.233-.305.536-.61.536-.883 0-.268.834-.946 1.152-.85.316.097.501.408.791.635.291.224.185.824.264 1.168.08.34-.186.35-.316.686m-2.403 2.578c.261-.402.16-.043.504.016.342.058-.29.56-.502.8-.21.237-.42.3-.606-.05-.209-.399.343-.364.604-.766m3.088-1.432c-.13.217-.42.385-.739.461-.315.077-.29.481-.606.534-.316.054-.544.388-.686.511-.31.267-.106-.208 0-.698.107-.488.501-.246.87-.586.37-.34.397-.016.74-.229.341-.21.474-.52.803-.577.33-.06-.25.369-.382.585m-2.004 5.37c.183-.08.975-.17.553.335-.422.506-.106.299-.052.738.052.44-.264.525-.264.525 0-.332-.21-.638 0-1.027.21-.39-.423-.49-.237-.57m-2.092-2.069c.39-.166.114.482.244.841.132.357.316.37.555.364.236-.002.422.191.581.388.157.2.448.456.422.734-.027.279-.105.482-.212.843-.106.36.316.368.502.71.183.342 0 0 .421.007.421.009.238.059.316.219.08.159.133.327.054.68-.078.353-.37.099-.66.177-.289.077.106.424.131.78.027.355.397.165.662.125.262-.04.341-.485.42-.597.082-.112.896.365 1.11.64.21.275-.187.291-.08.403.105.111-.632.337-.925.47-.289.132-1.028.366-1.318.648-.289.284-1.397.426-1.688.337-.29-.086-.476.143-.606.406-.13.262-.686.297-.844.467-.158.17-.316-.127-.529-.16-.21-.035-.29-.043-.554.21-.263.251.08.37-.288.62-.355.24-.813.184-1.71.593V20.27c.157-.014.308-.037.364-.05.131-.036.448-.575.448-.785 0-.21.16-.829.291-1.196.131-.366.42-.506.686-.818.264-.312.394-.137.394-.137s-.105.544-.105.965c0 .424.316.701.316.701s.5-.557.53-.684c.025-.128.42-.657.448-.876.025-.219.236-.547.624-.71m-.362-.9c-.053-.44.183-.202.606-.706.423-.508-.104-.395-.289-.317-.185.08-.37.131-.579.518-.213.391 0 .695 0 1.027 0 0 .315-.084.262-.523" fill="#5c913b"/></g></svg>