<svg xmlns="http://www.w3.org/2000/svg" viewBox="0 0 45 45"><defs><clipPath id="a"><path d="M0 36h36V0H0v36z"/></clipPath></defs><g clip-path="url(#a)" transform="matrix(1.25 0 0 -1.25 0 45)"><path d="M34.5 11.005c0-2.21-1.79-2-4-2h-25c-2.209 0-4-.21-4 2L3.5 25c.293 1.75 1 2 2 2h25c1 0 1.791-.208 2-2l2-13.995z" fill="#ccd6dd"/><path d="M28.5 19.5A1.5 1.5 0 0 0 27 18H9a1.5 1.5 0 1 0 0 3h18a1.5 1.5 0 0 0 1.5-1.5" fill="#292f33"/><path d="M26.5 19v14a2 2 0 0 1-2 2h-13a2 2 0 0 1-2-2V19h17z" fill="#5dadec"/><path d="M34.5 11a2 2 0 0 1-2 2h-29a2 2 0 0 1-2-2V3a2 2 0 0 1 2-2h29a2 2 0 0 1 2 2v8z" fill="#9aaab4"/><path d="M13.5 13V7a2 2 0 0 1 2-2h5a2 2 0 0 1 2 2v6h-9z" fill="#67757f"/><path d="M22.5 13v1a2 2 0 0 1-2 2h-5a2 2 0 0 1-2-2v-1h9zM19.5 8.5a1.5 1.5 0 0 0-3 0v1a1.5 1.5 0 1 0 3 0v-1z" fill="#9aaab4"/><path d="M18.806 27.003l2.778 2.778a.567.567 0 1 1-.803.803l-2.778-2.778-2.778 2.778a.568.568 0 0 1-.802-.803l2.778-2.778-2.784-2.784a.567.567 0 1 1 .802-.803l2.784 2.784 2.778-2.778a.57.57 0 0 1 .803 0 .567.567 0 0 1 0 .803l-2.778 2.778z" fill="#fff"/></g></svg>