<svg xmlns="http://www.w3.org/2000/svg" viewBox="0 0 45 45"><defs><clipPath id="a"><path d="M0 36h36V0H0v36z"/></clipPath></defs><g clip-path="url(#a)" transform="matrix(1.25 0 0 -1.25 0 45)"><path d="M8 9S6 5 6 3s4-3 12-3 12 1 12 3-2 6-2 6H8zM9 30c-3 0-3-1-4-10-.994-8.945 0-10 4-10 2 0 2 20 0 20M27 30c3 0 3-1 4-10 .994-8.945 0-10-4-10-2 0-2 20 0 20" fill="#66757f"/><path d="M8 33s1 3 10 3 10-3 10-3 1-6 1-14-1-14-1-14-1-2-10-2S8 5 8 5 7 8 7 19s1 14 1 14" fill="#ccd6dd"/><path d="M28 28c0 1-3 4-10 4S8 29 8 28c0-.807 4.548-1.612 6.311-1.894C14.999 23.452 15 18 15 18c.805 3.218.315 7.079.093 8.467.202.591.848 1.533 2.907 1.533 3 0 3-2 3-2h.002c-.234-1.657-.565-5.089.162-8 0 0 .002 5.491.697 8.134C23.727 26.438 28 27.218 28 28" fill="#66757f"/><path d="M14 16c0 1 2 3 4 3s4-2 4-3-1-1-4-1-4 0-4 1M12 12s2 2 6 2 6-2 6-2-2 1-6 1-6-1-6-1M12 10c0 1 2 2 6 2s6-1 6-2-1-1-6-1-6 0-6 1" fill="#66757f"/></g></svg>