<svg xmlns="http://www.w3.org/2000/svg" viewBox="0 0 45 45"><defs><clipPath id="a"><path d="M0 36h36V0H0v36z"/></clipPath><clipPath id="b"><path d="M17 29l-1-10h4l-1 10h-2z"/></clipPath><clipPath id="c"><path d="M0 36h36V0H0v36z"/></clipPath></defs><g clip-path="url(#a)" transform="matrix(1.25 0 0 -1.25 0 45)"><path d="M36 4s0-4-4-4H4S0 0 0 4v28c0 4 4 4 4 4h28c4 0 4-4 4-4V4z" fill="#88c9f9"/><path d="M18 31h-1v-3h2v3h-1z" fill="#fff"/><path d="M19 33s0 1-1 1-1-1-1-1v-2h2v2zM17 29l-1-10h4l-1 10h-2z" fill="#dd2e44"/></g><g clip-path="url(#b)" transform="matrix(1.25 0 0 -1.25 0 45)"><path d="M15 23h6v3h-6v-3z" fill="#fff"/></g><g clip-path="url(#c)" transform="matrix(1.25 0 0 -1.25 0 45)"><path d="M14 16h8v4h-8v-4z" fill="#fff"/><path d="M15 12h6v4h-6v-4z" fill="#dd2e44"/><path d="M15 16S15 5 5 0h3s7 3 9 16h-2zM21 16S21 5 31 0h-3s-7 3-9 16h2zM19 0h-2v13h2V0z" fill="#dd2e44"/><path d="M8 0s5 3 10 3 10-3 10-3v1.884S23 5 18 5 8 1.884 8 1.884V0z" fill="#dd2e44"/></g></svg>