<svg xmlns="http://www.w3.org/2000/svg" viewBox="0 0 45 45"><defs><clipPath id="a"><path d="M0 36h36V0H0v36z"/></clipPath></defs><g clip-path="url(#a)" transform="matrix(1.25 0 0 -1.25 0 45)"><path d="M36 18c0-9.941-8.059-18-18-18C8.06 0 0 8.059 0 18c0 9.94 8.06 18 18 18 9.941 0 18-8.06 18-18" fill="#ffcc4d"/><path d="M27.335 13.371a.501.501 0 0 1-.635.03c-.039-.03-3.922-2.9-8.7-2.9-4.766 0-8.662 2.87-8.7 2.9a.5.5 0 1 1-.729-.657C8.7 12.527 11.788 7.5 18 7.5s9.301 5.028 9.429 5.243a.499.499 0 0 1-.094.628" fill="#664500"/><path d="M18 28.292c-7.017 0-13.202.897-13.202 2.944 0 2.046 6.185 3.452 13.202 3.452s13.202-1.406 13.202-3.452c0-2.047-6.185-2.944-13.202-2.944m0 7.458C8.644 35.75.563 34.215.563 30.706c0-3.508 8.081-5.294 17.437-5.294 9.356 0 17.437 1.786 17.437 5.294 0 3.509-8.081 5.044-17.437 5.044" fill="#5dadec"/><path d="M26 17a.999.999 0 0 0-.948.684C24.849 18.283 24.033 20 23 20c-1.062 0-1.889-1.827-2.052-2.316a.996.996 0 0 0-1.264-.632.998.998 0 0 0-.632 1.264C19.177 18.693 20.355 22 23 22s3.823-3.307 3.948-3.684A.998.998 0 0 0 26 17M16 17c-.419 0-.809.265-.949.684C14.848 18.283 14.034 20 13 20c-1.062 0-1.888-1.827-2.051-2.316a.998.998 0 0 0-1.265-.632.999.999 0 0 0-.633 1.264C9.177 18.693 10.355 22 13 22c2.645 0 3.823-3.307 3.949-3.684A.999.999 0 0 0 16 17" fill="#664500"/><path d="M28.472 32.625c-.66.443-1.346.91-2 1.26A17.91 17.91 0 0 1 18 36c-2.93 0-5.695-.699-8.14-1.941-1.089-.553-1.88-.998-2.17-1.434h20.782z" fill="#ffcc4d"/></g></svg>