<svg xmlns="http://www.w3.org/2000/svg" viewBox="0 0 45 45"><defs><clipPath id="a"><path d="M0 36h36V0H0v36z"/></clipPath></defs><g clip-path="url(#a)" transform="matrix(1.25 0 0 -1.25 0 45)"><path d="M36 18c0-9.941-8.059-18-18-18S0 8.059 0 18s8.059 18 18 18 18-8.059 18-18" fill="#ffcc4d"/><path d="M24.327 12.378a.5.5 0 0 1-.55.069l-4-2C17.904 9.512 13.048 9.5 13 9.5a.5.5 0 0 1-.25-.933h.001l.001-.001a.501.501 0 0 1 .24-.066H20c2.658 0 4.09 2.186 4.474 3.342a.5.5 0 0 1-.147.536M31.001 20a.997.997 0 0 0-.801.4c-2.64 3.521-6.061 3.599-6.206 3.6-.55.006-.994.456-.991 1.005A.997.997 0 0 0 24 26c.184 0 4.537-.05 7.8-4.4a1 1 0 0 0-.799-1.6M4.999 20a1 1 0 0 0-.799 1.6C7.462 25.95 11.816 26 12 26a1 1 0 0 0 .004-2c-.155-.002-3.568-.086-6.204-3.6a1 1 0 0 0-.801-.4M15.897 18.604c.023.052.059.096.073.154a1 1 0 0 1-.727 1.213c-.181.045-4.468 1.08-7.798-1.138a1.001 1.001 0 0 1 1.11-1.665c1.092.73 2.362.995 3.468 1.062-.009-.077-.023-.151-.023-.23a2 2 0 0 1 4 0c0 .212-.042.413-.103.604M27.896 18.605c.023.052.06.095.073.152a.998.998 0 0 1-.727 1.213c-.18.045-4.466 1.08-7.797-1.138a1 1 0 1 1 1.11-1.664c1.092.729 2.362.994 3.469 1.06-.01-.076-.023-.15-.023-.228a2 2 0 0 1 4 0c0 .212-.042.413-.104.605" fill="#664500"/></g></svg>