<svg xmlns="http://www.w3.org/2000/svg" viewBox="0 0 45 45"><defs><clipPath id="a"><path d="M0 36h36V0H0v36z"/></clipPath></defs><g clip-path="url(#a)" transform="matrix(1.25 0 0 -1.25 0 45)"><path d="M36 18c0-9.941-8.059-18-18-18S0 8.059 0 18s8.059 18 18 18 18-8.059 18-18" fill="#ffcc4d"/><path d="M6.999 19a1.001 1.001 0 0 0-.894 1.447C6.158 20.552 7.424 23 11 23c3.578 0 4.842-2.449 4.894-2.553a1 1 0 0 0-1.783-.905C14.067 19.622 13.28 21 11 21c-2.317 0-3.099-1.433-3.105-1.447A1 1 0 0 0 6.999 19M29 19a1.001 1.001 0 0 1 .894 1.447c-.053.105-1.319 2.553-4.895 2.553-3.578 0-4.842-2.449-4.894-2.553a1 1 0 0 1 1.783-.905c.044.08.831 1.458 3.111 1.458 2.317 0 3.099-1.433 3.106-1.447A.998.998 0 0 1 29 19" fill="#664500"/><path d="M33.175 8.691l-3.671 3.79c-.815-1.886-2.86-5.338-7.19-6.796L26 2c1.728-1.728 5-2 7 0s1.904 4.962.175 6.691" fill="#e75a70"/><path d="M29.503 12.48c.324.75.461 1.257.466 1.277a.998.998 0 0 1-.724 1.211 1.002 1.002 0 0 1-1.215-.723C27.956 13.95 26.081 7 18 7s-9.955 6.95-10.03 7.245a1.001 1.001 0 0 1-1.215.723.998.998 0 0 1-.724-1.21C6.05 13.67 8.33 5 18 5c1.649 0 3.069.266 4.314.685 4.33 1.458 6.374 4.91 7.188 6.795" fill="#664500"/></g></svg>