<svg xmlns="http://www.w3.org/2000/svg" viewBox="0 0 45 45"><defs><clipPath id="a"><path d="M0 36h36V0H0v36z"/></clipPath></defs><g clip-path="url(#a)" transform="matrix(1.25 0 0 -1.25 0 45)"><path d="M36 18c0-9.941-8.059-18-18-18C8.06 0 0 8.059 0 18c0 9.94 8.06 18 18 18 9.941 0 18-8.06 18-18" fill="#ffcc4d"/><path d="M14 19.5c0-1.934-1.119-3.5-2.5-3.5S9 17.566 9 19.5c0 1.933 1.119 3.5 2.5 3.5s2.5-1.567 2.5-3.5M28.457 18.203c-.059.135-1.499 3.297-4.457 3.297-2.957 0-4.397-3.162-4.457-3.297a.499.499 0 0 1 .144-.59.504.504 0 0 1 .611-.015c.012.01 1.262.902 3.702.902 2.426 0 3.674-.88 3.702-.9a.498.498 0 0 1 .755.603M5.999 23.542a1 1 0 0 0-.799 1.6c3.262 4.35 7.616 4.4 7.8 4.4a1 1 0 0 0 .004-2c-.155-.002-3.569-.086-6.204-3.6a1 1 0 0 0-.801-.4M29.001 21.416a.997.997 0 0 0-.801.4c-2.592 3.456-6.961 2.627-7.004 2.62a.998.998 0 1 0-.392 1.96c.23.047 5.657 1.072 8.996-3.38a1 1 0 0 0-.799-1.6M23.254 12.423a.514.514 0 0 1-.597-.06c-.01-.007-1.013-.863-4.657-.863-3.641 0-4.645.854-4.646.854a.501.501 0 0 1-.839-.475c.01-.044 1.145-4.38 5.485-4.38s5.474 4.336 5.485 4.38a.497.497 0 0 1-.231.544" fill="#664500"/></g></svg>