<svg xmlns="http://www.w3.org/2000/svg" viewBox="0 0 45 45"><defs><clipPath id="a"><path d="M0 36h36V0H0v36z"/></clipPath></defs><g clip-path="url(#a)" transform="matrix(1.25 0 0 -1.25 0 45)"><path d="M36 18c0-9.941-8.059-18-18-18S0 8.059 0 18s8.059 18 18 18 18-8.059 18-18" fill="#ffcc4d"/><path d="M12 18a5 5 0 1 0-10 0 5 5 0 0 0 10 0M34 18a5 5 0 0 0-5-5 5 5 0 1 0 0 10 5 5 0 0 0 5-5" fill="#ff7892"/><path d="M27.335 14.371a.501.501 0 0 1-.635.03c-.039-.03-3.922-2.9-8.7-2.9-4.766 0-8.662 2.87-8.7 2.9a.5.5 0 1 1-.729-.657C8.7 13.527 11.788 8.5 18 8.5s9.301 5.028 9.429 5.243a.499.499 0 0 1-.094.628M7.999 21a1.001 1.001 0 0 0-.894 1.447C7.158 22.552 8.424 25 12 25c3.577 0 4.842-2.449 4.894-2.553a1 1 0 0 0-1.783-.905C15.068 21.621 14.281 23 12 23c-2.317 0-3.099-1.433-3.105-1.447A1 1 0 0 0 7.999 21M28.001 21a.999.999 0 0 0-.896.553C27.08 21.599 26.299 23 24 23s-3.08-1.401-3.112-1.46c-.26-.481-.86-.67-1.345-.42a.993.993 0 0 0-.438 1.327C19.157 22.551 20.423 25 24 25c3.577 0 4.843-2.449 4.894-2.553A1 1 0 0 0 28.001 21" fill="#664500"/></g></svg>