<svg xmlns="http://www.w3.org/2000/svg" viewBox="0 0 45 45"><defs><clipPath id="a"><path d="M0 36h36V0H0v36z"/></clipPath></defs><g clip-path="url(#a)" transform="matrix(1.25 0 0 -1.25 0 45)"><path d="M36 18c0-9.941-8.059-18-18-18C8.06 0 0 8.059 0 18c0 9.94 8.06 18 18 18 9.941 0 18-8.06 18-18" fill="#ffcc4d"/><path d="M14 23.5c0-2.486-1.119-5.5-2.5-5.5S9 21.014 9 23.5c0 2.485 1.119 5.5 2.5 5.5s2.5-3.015 2.5-5.5M27 23.5c0-2.486-1.119-5.5-2.5-5.5S22 21.014 22 23.5c0 2.485 1.119 5.5 2.5 5.5s2.5-3.015 2.5-5.5M18 14c-3.623 0-6.027.422-9 1-.679.131-2 0-2-2 0-4 4.595-9 11-9 6.404 0 11 5 11 9 0 2-1.321 2.132-2 2-2.973-.578-5.377-1-9-1" fill="#664500"/><path d="M9 13s3-1 9-1 9 1 9 1-2-4-9-4-9 4-9 4" fill="#fff"/></g></svg>