<svg xmlns="http://www.w3.org/2000/svg" viewBox="0 0 45 45"><defs><clipPath id="a"><path d="M0 36h36V0H0v36z"/></clipPath></defs><g clip-path="url(#a)" transform="matrix(1.25 0 0 -1.25 0 45)"><path d="M36 18c0-9.941-8.059-18-18-18S0 8.059 0 18s8.059 18 18 18 18-8.059 18-18" fill="#ffcc4d"/><path d="M28.313 20.388a.503.503 0 0 1-.61.014c-.012-.01-1.261-.902-3.702-.902s-3.691.892-3.701.9a.5.5 0 0 1-.757-.603c.06-.135 1.5-3.297 4.458-3.297s4.397 3.162 4.457 3.297a.5.5 0 0 1-.145.591M15.702 20.402c-.012-.01-1.26-.902-3.702-.902-2.44 0-3.69.893-3.7.9a.5.5 0 0 1-.757-.603c.06-.135 1.5-3.297 4.457-3.297 2.958 0 4.397 3.162 4.457 3.297a.501.501 0 0 1-.755.605M29.001 23a.997.997 0 0 0-.801.4c-2.592 3.456-6.961 2.628-7.004 2.62a.998.998 0 1 0-.392 1.96c.23.048 5.657 1.072 8.996-3.38a1 1 0 0 0-.799-1.6M6.999 23a1 1 0 0 0-.799 1.6c3.34 4.454 8.766 3.426 8.996 3.38a1 1 0 0 0-.389-1.961c-.187.034-4.437.807-7.007-2.619a1 1 0 0 0-.801-.4M23.254 12.423a.514.514 0 0 1-.597-.06c-.01-.007-1.013-.863-4.657-.863-3.641 0-4.645.854-4.646.854a.501.501 0 0 1-.839-.475c.01-.044 1.145-4.38 5.485-4.38s5.474 4.336 5.485 4.38a.497.497 0 0 1-.231.544" fill="#664500"/></g></svg>