<svg xmlns="http://www.w3.org/2000/svg" viewBox="0 0 45 45"><defs><clipPath id="a"><path d="M0 36h36V0H0v36z"/></clipPath></defs><g clip-path="url(#a)" transform="matrix(1.25 0 0 -1.25 0 45)"><path d="M36 18c0-9.941-8.059-18-18-18C8.06 0 0 8.059 0 18c0 9.94 8.06 18 18 18 9.941 0 18-8.06 18-18" fill="#ffcc4d"/><path d="M28.457 18.203c-.059.135-1.499 3.297-4.457 3.297-2.957 0-4.397-3.162-4.457-3.297a.499.499 0 0 1 .144-.59.504.504 0 0 1 .611-.015c.012.01 1.262.902 3.702.902 2.426 0 3.674-.88 3.702-.9a.498.498 0 0 1 .755.603M16.457 18.203c-.06.135-1.499 3.297-4.457 3.297-2.957 0-4.397-3.162-4.457-3.297a.499.499 0 0 1 .754-.605c.013.01 1.262.902 3.703.902 2.426 0 3.674-.88 3.702-.9a.498.498 0 0 1 .755.603M31 20c-.396 0-.772.238-.929.629-1.778 4.445-6.222 5.38-6.267 5.39a.999.999 0 1 0 .392 1.96c.226-.043 5.556-1.167 7.733-6.607A1 1 0 0 0 31 20M5 20a1 1 0 0 0-.928 1.372c2.176 5.44 7.507 6.564 7.732 6.608a1 1 0 0 0 .396-1.96c-.185-.038-4.507-.98-6.271-5.391a1.003 1.003 0 0 0-.93-.63M18 14c-3.623 0-6.027.422-9 1-.679.131-2 0-2-2 0-4 4.595-9 11-9 6.404 0 11 5 11 9 0 2-1.321 2.132-2 2-2.973-.578-5.377-1-9-1" fill="#664500"/><path d="M9 13s3-1 9-1 9 1 9 1-2-4-9-4-9 4-9 4" fill="#fff"/><path d="M10.847 7.77A5 5 0 0 0 4.77 4.157a4.998 4.998 0 0 0-3.615 6.075c.68 2.678 6.337 8.709 7.307 8.463.968-.246 3.064-8.246 2.385-10.923M25.133 7.77a5 5 0 0 1 6.077-3.614 4.998 4.998 0 0 1 3.616 6.075c-.68 2.678-6.338 8.709-7.307 8.463-.97-.246-3.065-8.246-2.386-10.923" fill="#5dadec"/></g></svg>