<svg xmlns="http://www.w3.org/2000/svg" viewBox="0 0 45 45"><defs><clipPath id="a"><path d="M0 36h36V0H0v36z"/></clipPath></defs><g clip-path="url(#a)" transform="matrix(1.25 0 0 -1.25 0 45)"><path d="M36 18c0-9.941-8.059-18-18-18S0 8.059 0 18s8.059 18 18 18 18-8.059 18-18" fill="#ffcc4d"/><path d="M18 14.151c-2.966 0-4.935.346-7.369.82-.557.106-1.638 0-1.638-1.638 0-3.276 3.763-7.37 9.007-7.37s9.007 4.094 9.007 7.37c0 1.637-1.082 1.745-1.638 1.637-2.433-.473-4.402-.819-7.369-.819" fill="#664500"/><path d="M16.65 32.72a4.67 4.67 0 0 1-5.956 2.85 4.667 4.667 0 0 1-2.928-3.106 4.664 4.664 0 0 1-4.224.581 4.67 4.67 0 0 1-2.85-5.956 4.69 4.69 0 0 1 .472-.958c1.95-3.582 7.588-6.1 11.002-6.13 2.636 2.166 5.446 7.663 4.717 11.676a4.712 4.712 0 0 1-.233 1.042M19.35 32.72a4.67 4.67 0 0 0 5.956 2.85 4.669 4.669 0 0 0 2.929-3.106 4.664 4.664 0 0 0 4.224.581 4.671 4.671 0 0 0 2.85-5.956 4.694 4.694 0 0 0-.473-.958c-1.951-3.582-7.588-6.1-11.002-6.13-2.636 2.166-5.445 7.663-4.716 11.676.038.348.113.698.232 1.042" fill="#e75a70"/></g></svg>