<svg xmlns="http://www.w3.org/2000/svg" viewBox="0 0 45 45"><defs><clipPath id="a"><path d="M0 36h36V0H0v36z"/></clipPath></defs><g clip-path="url(#a)" transform="matrix(1.25 0 0 -1.25 0 45)"><path d="M36 18c0-9.941-8.059-18-18-18C8.06 0 0 8.059 0 18c0 9.94 8.06 18 18 18 9.941 0 18-8.06 18-18" fill="#ffcc4d"/><path d="M16 18c-.419 0-.809.265-.949.684C14.848 19.283 14.034 21 13 21c-1.062 0-1.888-1.827-2.051-2.316a.998.998 0 0 0-1.265-.632.999.999 0 0 0-.633 1.264C9.177 19.693 10.355 23 13 23c2.645 0 3.823-3.307 3.949-3.684A.999.999 0 0 0 16 18M26 18a.999.999 0 0 0-.948.684C24.849 19.283 24.033 21 23 21c-1.062 0-1.889-1.827-2.052-2.316a.996.996 0 0 0-1.264-.632.998.998 0 0 0-.632 1.264C19.177 19.693 20.355 23 23 23s3.823-3.307 3.948-3.684A.998.998 0 0 0 26 18" fill="#664500"/><path d="M9 14a2 2 0 0 1 0-4h1v4H9zM12 10h5v4h-5v-4zM19 10h5v4h-5v-4zM27 14h-1v-4h1a2 2 0 0 1 0 4" fill="#fff"/><path d="M27 10h-1v4h1a2 2 0 0 0 0-4m-8 4h5v-4h-5v4zm-7 0h5v-4h-5v4zm-3-4a2 2 0 0 0 0 4h1v-4H9zm18 6H9a4 4 0 1 1 0-8h18a4 4 0 1 1 0 8" fill="#664500"/></g></svg>