<svg xmlns="http://www.w3.org/2000/svg" viewBox="0 0 45 45"><defs><clipPath id="a"><path d="M0 36h36V0H0v36z"/></clipPath></defs><g clip-path="url(#a)" transform="matrix(1.25 0 0 -1.25 0 45)"><path d="M36 18c0-9.941-8.059-18-18-18C8.06 0 0 8.059 0 18c0 9.94 8.06 18 18 18 9.941 0 18-8.06 18-18" fill="#ffcc4d"/><path d="M17.313 18.388a.501.501 0 0 1-.61.014c-.013-.01-1.261-.902-3.702-.902s-3.69.892-3.701.9a.5.5 0 0 1-.758-.603c.061-.135 1.5-3.297 4.458-3.297s4.397 3.162 4.457 3.297a.5.5 0 0 1-.144.591M27.313 18.388a.5.5 0 0 1-.61.014c-.012-.01-1.261-.902-3.702-.902s-3.691.892-3.701.9a.5.5 0 0 1-.758-.603c.06-.135 1.5-3.297 4.458-3.297 2.959 0 4.398 3.162 4.458 3.297a.5.5 0 0 1-.145.591M22 8h-8a1 1 0 1 0 0 2h8a1 1 0 1 0 0-2M6 22a1 1 0 0 0-.004 2c.155.002 3.568.086 6.204 3.6a1.001 1.001 0 0 0 1.6-1.2C10.538 22.05 6.184 22 6 22M30 22c-.184 0-4.537.05-7.8 4.4a1 1 0 1 0 1.6 1.2c2.64-3.521 6.061-3.599 6.206-3.6.55-.006.994-.456.991-1.005A.997.997 0 0 0 30 22" fill="#664500"/></g></svg>