<svg xmlns="http://www.w3.org/2000/svg" viewBox="0 0 45 45"><defs><clipPath id="a"><path d="M0 36h36V0H0v36z"/></clipPath></defs><g clip-path="url(#a)" transform="matrix(1.25 0 0 -1.25 0 45)"><path d="M36 18c0-9.941-8.059-18-18-18C8.06 0 0 8.059 0 18c0 9.94 8.06 18 18 18 9.941 0 18-8.06 18-18" fill="#ffcc4d"/><path d="M14 21.5c0-1.934-1.119-3.5-2.5-3.5S9 19.566 9 21.5c0 1.933 1.119 3.5 2.5 3.5s2.5-1.567 2.5-3.5M27 21.5c0-1.934-1.119-3.5-2.5-3.5S22 19.566 22 21.5c0 1.933 1.119 3.5 2.5 3.5s2.5-1.567 2.5-3.5M7 14.738c0-3.964 4.596-9 11-9s11 5 11 9c0 0-10.333-2.756-22 0" fill="#664500"/><path d="M12 12.997v-6.96c0-3 2-6 6-6s6 3 6 6v6.92c-6.291-1.293-12 .04-12 .04" fill="#e75a70"/></g></svg>