<svg xmlns="http://www.w3.org/2000/svg" viewBox="0 0 45 45"><defs><clipPath id="a"><path d="M0 36h36V0H0v36z"/></clipPath></defs><g clip-path="url(#a)" transform="matrix(1.25 0 0 -1.25 0 45)"><path d="M36 18c0-9.941-8.059-18-18-18C8.06 0 0 8.059 0 18c0 9.94 8.06 18 18 18 9.941 0 18-8.06 18-18" fill="#ffcc4d"/><path d="M14 19.5c0-1.934-1.119-3.5-2.5-3.5S9 17.566 9 19.5c0 1.933 1.119 3.5 2.5 3.5s2.5-1.567 2.5-3.5M27 19.5c0-1.934-1.119-3.5-2.5-3.5S22 17.566 22 19.5c0 1.933 1.119 3.5 2.5 3.5s2.5-1.567 2.5-3.5M12 8c2 5 13 5 13 3 0-1-8 1-13-3" fill="#664500"/></g></svg>