<svg xmlns="http://www.w3.org/2000/svg" viewBox="0 0 45 45"><defs><clipPath id="a"><path d="M0 36h36V0H0v36z"/></clipPath></defs><g clip-path="url(#a)" transform="matrix(1.25 0 0 -1.25 0 45)"><path d="M36 18c0-9.941-8.059-18-18-18C8.06 0 0 8.059 0 18c0 9.94 8.06 18 18 18 9.941 0 18-8.06 18-18" fill="#ffcc4d"/><path d="M6 23a1 1 0 0 0-.004 2c.155.002 3.568.086 6.204 3.6a1.001 1.001 0 0 0 1.6-1.2C10.538 23.05 6.184 23 6 23M30 23c-.184 0-4.537.05-7.8 4.4a1 1 0 1 0 1.6 1.2c2.64-3.521 6.061-3.599 6.206-3.6.55-.006.994-.456.991-1.005A.997.997 0 0 0 30 23M30.6 15.8c-.114.086-1.931 1.426-4.646 2.344.027.115.046.233.046.356 0 .369-.138.703-.36.964 1.804.52 3.335.536 3.362.536A1 1 0 0 1 29 22c-.22 0-5.451-.037-8.707-3.293a.998.998 0 0 1-.216-1.09A.998.998 0 0 1 21 17c4.59 0 8.364-2.772 8.402-2.801a1.001 1.001 0 0 1 1.399.203A1 1 0 0 1 30.6 15.8M15.707 18.707C12.452 21.962 7.221 22 7 22a1 1 0 0 1-.001-2c.026 0 1.558-.016 3.36-.536A1.492 1.492 0 0 1 10 18.5c0-.123.019-.241.047-.356-2.716-.918-4.533-2.258-4.647-2.344a1 1 0 0 1 1.2-1.6c.037.027 3.787 2.8 8.4 2.8a1 1 0 0 1 .707 1.707M18 6a1 1 0 0 0-.781.375l-3.194 3.992L11.8 7.4a.998.998 0 0 0-1.507-.107l-1 1a.999.999 0 1 0 1.414 1.414l.185-.184L13.2 12.6a1 1 0 0 0 1.581.025L18 8.601l3.219 4.024A1 1 0 0 0 22.8 12.6l2.308-3.077.185.184a.999.999 0 1 0 1.414-1.414l-1-1a.974.974 0 0 0-.778-.29.998.998 0 0 0-.729.397l-2.225 2.967-3.194-3.992A1 1 0 0 0 18 6" fill="#664500"/></g></svg>