<svg xmlns="http://www.w3.org/2000/svg" viewBox="0 0 45 45"><defs><clipPath id="a"><path d="M0 36h36V0H0v36z"/></clipPath></defs><g clip-path="url(#a)" transform="matrix(1.25 0 0 -1.25 0 45)"><path d="M36 18c0-9.941-8.059-18-18-18S0 8.059 0 18s8.059 18 18 18 18-8.059 18-18" fill="#ffcc4d"/><path d="M23.485 7.121c-.012.044-1.146 4.38-5.485 4.38-4.34 0-5.475-4.336-5.485-4.38a.495.495 0 0 1 .231-.544.51.51 0 0 1 .596.06c.01.007 1.014.863 4.658.863 3.59 0 4.617-.83 4.656-.863a.5.5 0 0 1 .83.484M25.78 20.36c-.34.092-.692.14-1.043.14-2.345 0-4.053-2.06-4.125-2.148a.503.503 0 0 1-.017-.609.505.505 0 0 1 .586-.174c.005.002.573.215 1.565.215.714 0 1.468-.108 2.244-.32 2.342-.637 3.313-1.818 3.334-1.843a.5.5 0 0 1 .888.383c-.023.147-.578 3.577-3.432 4.355M11.226 20.488c-.317 0-.636-.04-.947-.116-2.87-.707-3.513-4.121-3.539-4.266a.5.5 0 0 1 .877-.408c.01.012 1.01 1.178 3.38 1.76a8.711 8.711 0 0 0 2.072.266c1.104 0 1.732-.253 1.735-.254a.513.513 0 0 1 .207-.04.5.5 0 0 1 .306.902c-.367.435-1.953 2.156-4.09 2.156" fill="#664500"/></g></svg>