<svg xmlns="http://www.w3.org/2000/svg" viewBox="0 0 45 45"><defs><clipPath id="a"><path d="M0 36h36V0H0v36z"/></clipPath></defs><g clip-path="url(#a)" transform="matrix(1.25 0 0 -1.25 0 45)"><path d="M36 18c0-9.941-8.059-18-18-18S0 8.059 0 18s8.059 18 18 18 18-8.059 18-18" fill="#ffcc4d"/><path d="M12 15a5 5 0 1 0-10 0 5 5 0 0 0 10 0M34 15a5 5 0 0 0-5-5 5 5 0 0 0-5 5 5 5 0 0 0 5 5 5 5 0 0 0 5-5" fill="#ff7892"/><path d="M28.416 18.277c-.061.091-1.515 2.223-4.416 2.223-2.9 0-4.355-2.132-4.416-2.223a.499.499 0 0 1 .714-.679c.012.01 1.262.902 3.702.902 2.426 0 3.674-.882 3.702-.902a.5.5 0 0 1 .714.68M12 20.5c-2.9 0-4.355-2.132-4.416-2.223a.499.499 0 0 1 .713-.679c.013.009 1.262.902 3.703.902 2.426 0 3.674-.881 3.702-.901a.5.5 0 0 1 .714.678c-.061.091-1.515 2.223-4.416 2.223M21.871 9c1.335.412 2.63 1.156 2.63 2.5 0 2.619-4.913 2.968-5.474 2.999-.277.036-.51-.194-.526-.468a.501.501 0 0 1 .464-.53C19 13.499 22.5 13.202 22.5 11.5S19 9.501 18.965 9.499c-.01-.001-.017-.006-.027-.007a.433.433 0 0 1-.309-.159l-.015-.021a.554.554 0 0 1-.073-.125c-.01-.027-.016-.056-.022-.085-.004-.024-.016-.046-.018-.071 0-.01.004-.02.004-.031s-.005-.021-.004-.031c.002-.026.013-.046.018-.071.006-.029.011-.058.023-.086.013-.033.032-.06.051-.088.016-.024.03-.047.05-.068a.464.464 0 0 1 .081-.062.48.48 0 0 1 .071-.046.37.37 0 0 1 .1-.027c.024-.006.044-.018.07-.02C19 8.499 22.5 8.202 22.5 6.5S19 4.501 18.965 4.499a.501.501 0 0 1 .062-.998c.561.031 5.473.38 5.473 2.999 0 1.344-1.294 2.088-2.629 2.5M31.001 20a.997.997 0 0 0-.801.4c-2.64 3.521-6.061 3.599-6.206 3.6-.55.006-.994.456-.991 1.005A.997.997 0 0 0 24 26c.184 0 4.537-.05 7.8-4.4a1 1 0 0 0-.799-1.6M4.999 20a1 1 0 0 0-.799 1.6C7.462 25.95 11.816 26 12 26a1 1 0 0 0 .004-2c-.155-.002-3.568-.086-6.204-3.6a1 1 0 0 0-.801-.4" fill="#664500"/></g></svg>