<svg xmlns="http://www.w3.org/2000/svg" viewBox="0 0 45 45"><defs><clipPath id="a"><path d="M0 36h36V0H0v36z"/></clipPath></defs><g clip-path="url(#a)" transform="matrix(1.25 0 0 -1.25 0 45)"><path d="M36 18c0-9.941-8.059-18-18-18C8.06 0 0 8.059 0 18c0 9.94 8.06 18 18 18 9.941 0 18-8.06 18-18" fill="#ffcc4d"/><path d="M14 20.5c0-1.934-1.119-3.5-2.5-3.5S9 18.566 9 20.5c0 1.933 1.119 3.5 2.5 3.5s2.5-1.567 2.5-3.5M28.457 18.203c-.059.135-1.499 3.297-4.457 3.297-2.957 0-4.397-3.162-4.457-3.297a.499.499 0 0 1 .144-.59.504.504 0 0 1 .611-.015c.012.01 1.262.902 3.702.902 2.426 0 3.674-.88 3.702-.9a.498.498 0 0 1 .755.603M5.999 25a1 1 0 0 0-.799 1.6C8.462 30.95 12.816 31 13 31a1 1 0 0 0 .004-2c-.155-.002-3.569-.086-6.204-3.6a1 1 0 0 0-.801-.4M29.001 22a.997.997 0 0 0-.801.4c-2.592 3.456-6.961 2.628-7.004 2.62a1 1 0 0 0-.392 1.96c.23.048 5.657 1.072 8.996-3.38a1 1 0 0 0-.799-1.6M20.871 8c1.335.412 2.63 1.156 2.63 2.5 0 2.619-4.913 2.968-5.473 2.999a.501.501 0 0 1-.063-.998C18 12.499 21.5 12.202 21.5 10.5S18 8.501 17.965 8.499c-.014-.001-.025-.009-.037-.011a.427.427 0 0 1-.147-.04c-.007-.003-.012-.008-.018-.011a.452.452 0 0 1-.125-.097c-.014-.015-.024-.031-.036-.048-.022-.032-.044-.063-.059-.102a.469.469 0 0 1-.024-.091c-.005-.024-.017-.044-.018-.068 0-.01.004-.02.004-.031s-.005-.021-.004-.031c.001-.025.013-.045.018-.069.006-.031.011-.06.023-.089.013-.031.031-.057.05-.084.016-.025.031-.05.052-.072.022-.023.05-.041.077-.06.025-.017.046-.034.074-.047a.39.39 0 0 1 .1-.027c.024-.006.045-.018.07-.02C18 7.499 21.5 7.202 21.5 5.5S18 3.501 17.965 3.499a.501.501 0 0 1 .063-.998c.56.031 5.472.38 5.472 2.999 0 1.344-1.294 2.088-2.629 2.5" fill="#664500"/><path d="M35.404 8.778a3.054 3.054 0 1 1-4.198 4.026 3.053 3.053 0 0 1-5.988.172c-.774-2.555.64-6.34 2.193-7.948 2.223-.234 6.077.98 7.615 3.161.145.18.273.374.378.59" fill="#e75a70"/></g></svg>