<svg xmlns="http://www.w3.org/2000/svg" viewBox="0 0 45 45"><defs><clipPath id="a"><path d="M0 36h36V0H0v36z"/></clipPath></defs><g clip-path="url(#a)" transform="matrix(1.25 0 0 -1.25 0 45)"><path d="M36 18c0-9.941-8.059-18-18-18S0 8.059 0 18s8.059 18 18 18 18-8.059 18-18" fill="#ffcc4d"/><path d="M23.485 7.121c-.012.044-1.146 4.38-5.485 4.38-4.34 0-5.475-4.336-5.485-4.38a.495.495 0 0 1 .231-.544.51.51 0 0 1 .596.06c.01.007 1.014.863 4.658.863 3.59 0 4.617-.83 4.656-.863a.5.5 0 0 1 .83.484M29 24c-5.554 0-7.802 4.367-7.895 4.553a1 1 0 0 0 1.788.898C22.967 29.306 24.713 26 29 26a1 1 0 1 0 0-2M7 24a1 1 0 0 0 0 2c5.083 0 5.996 3.12 6.033 3.253.145.528.692.848 1.219.709a.995.995 0 0 0 .718-1.205C14.921 28.563 13.704 24 7 24M14.5 19.5c0-1.934-1.119-3.5-2.5-3.5s-2.5 1.566-2.5 3.5c0 1.933 1.119 3.5 2.5 3.5s2.5-1.567 2.5-3.5M26.5 19.5c0-1.934-1.119-3.5-2.5-3.5s-2.5 1.566-2.5 3.5c0 1.933 1.119 3.5 2.5 3.5s2.5-1.567 2.5-3.5" fill="#664500"/></g></svg>