<svg xmlns="http://www.w3.org/2000/svg" viewBox="0 0 45 45"><defs><clipPath id="a"><path d="M0 36h36V0H0v36z"/></clipPath></defs><g clip-path="url(#a)" transform="matrix(1.25 0 0 -1.25 0 45)"><path d="M36 18c0-9.941-8.059-18-18-18C8.06 0 0 8.059 0 18c0 9.94 8.06 18 18 18 9.941 0 18-8.06 18-18" fill="#ffcc4d"/><path d="M15 20.5c0-1.934-1.119-3.5-2.5-3.5S10 18.566 10 20.5c0 1.933 1.119 3.5 2.5 3.5s2.5-1.567 2.5-3.5M26 20.5c0-1.934-1.119-3.5-2.5-3.5S21 18.566 21 20.5c0 1.933 1.119 3.5 2.5 3.5s2.5-1.567 2.5-3.5M20.871 8c1.335.412 2.63 1.156 2.63 2.5 0 2.619-4.913 2.968-5.473 2.999a.493.493 0 0 1-.527-.468.501.501 0 0 1 .464-.53C18 12.499 21.5 12.202 21.5 10.5S18 8.501 17.965 8.499c-.013-.001-.024-.008-.036-.01a.412.412 0 0 1-.149-.041l-.015-.009a.473.473 0 0 1-.127-.099c-.014-.015-.023-.031-.035-.047a.456.456 0 0 1-.06-.103.469.469 0 0 1-.024-.091c-.005-.024-.017-.044-.018-.068 0-.01.004-.02.004-.031s-.005-.021-.004-.031c.001-.025.013-.045.018-.069.006-.031.011-.06.023-.089.013-.031.031-.057.05-.084.016-.025.031-.05.052-.072.022-.023.05-.041.077-.06.025-.017.046-.034.074-.047a.39.39 0 0 1 .1-.027c.024-.006.045-.018.07-.02C18 7.499 21.5 7.202 21.5 5.5S18 3.501 17.965 3.499a.501.501 0 0 1 .063-.998c.56.031 5.472.38 5.472 2.999 0 1.344-1.294 2.088-2.629 2.5" fill="#664500"/></g></svg>