<svg xmlns="http://www.w3.org/2000/svg" viewBox="0 0 45 45"><defs><clipPath id="a"><path d="M0 36h36V0H0v36z"/></clipPath></defs><g clip-path="url(#a)" transform="matrix(1.25 0 0 -1.25 0 45)"><path d="M36 18c0-9.941-8.059-18-18-18S0 8.059 0 18s8.059 18 18 18 18-8.059 18-18" fill="#ffcc4d"/><path d="M29 26c-5.554 0-7.802 4.367-7.895 4.553a1 1 0 0 0 1.788.898C22.967 31.306 24.713 28 29 28a1 1 0 1 0 0-2M7 26a1 1 0 0 0 0 2c5.083 0 5.996 3.12 6.033 3.253.145.528.692.848 1.219.709a.995.995 0 0 0 .718-1.205C14.921 30.563 13.704 26 7 26M6.001 13a1 1 0 0 0-.601 1.8c.143.107 2.951 2.182 6.856 2.932C9.781 18.973 7.034 19 6.999 19A1 1 0 0 0 7 21c.221 0 5.452-.038 8.707-3.293A1 1 0 0 0 15 16c-4.613 0-8.363-2.773-8.4-2.8a.996.996 0 0 0-.599-.2M29.999 13.001a.998.998 0 0 0-.598.198C29.363 13.227 25.59 16 21 16a.999.999 0 0 0-.707 1.707C23.549 20.962 28.779 21 29 21a1 1 0 0 0 .002-2c-.036 0-2.783-.027-5.258-1.268 3.905-.75 6.713-2.825 6.856-2.932a1 1 0 0 0-.601-1.799M25.454 5.209c-.118.257-2.939 6.291-7.21 6.291-4.249 0-7.546-6.007-7.684-6.262a.5.5 0 0 1 .751-.629c.032.025 3.163 2.48 6.933 2.48 3.743 0 6.388-2.43 6.414-2.454a.501.501 0 0 1 .796.574" fill="#664500"/></g></svg>