<svg xmlns="http://www.w3.org/2000/svg" viewBox="0 0 45 45"><defs><clipPath id="a"><path d="M0 36h36V0H0v36z"/></clipPath></defs><g clip-path="url(#a)" transform="matrix(1.25 0 0 -1.25 0 45)"><path d="M36 18c0-9.941-8.059-18-18-18C8.06 0 0 8.059 0 18c0 9.94 8.06 18 18 18 9.941 0 18-8.06 18-18" fill="#ffcc4d"/><path d="M25.485 6.121c-.045.18-1.168 4.38-7.485 4.38-6.318 0-7.44-4.2-7.485-4.38a.499.499 0 0 1 .836-.477c.02.02 1.954 1.856 6.65 1.856 4.693 0 6.63-1.837 6.647-1.856a.505.505 0 0 1 .598-.08.5.5 0 0 1 .24.557M15.707 18.707C12.452 21.962 7.221 22 7 22a1 1 0 0 1-.001-2c.029 0 1.925-.022 3.983-.737-.593-.64-.982-1.634-.982-2.763 0-1.934 1.119-3.5 2.5-3.5s2.5 1.566 2.5 3.5c0 .174-.019.34-.037.507.013 0 .025-.007.037-.007a.999.999 0 0 1 .707 1.707M29 22c-.221 0-5.451-.038-8.707-3.293A.999.999 0 0 1 21 17c.013 0 .024.007.036.007-.016-.167-.036-.333-.036-.507 0-1.934 1.119-3.5 2.5-3.5s2.5 1.566 2.5 3.5c0 1.129-.389 2.123-.982 2.763 2.058.715 3.954.737 3.984.737A1 1 0 0 1 29 22" fill="#664500"/></g></svg>