<svg xmlns="http://www.w3.org/2000/svg" viewBox="0 0 45 45"><defs><clipPath id="a"><path d="M0 36h36V0H0v36z"/></clipPath></defs><g clip-path="url(#a)" transform="matrix(1.25 0 0 -1.25 0 45)"><path d="M36 18c0-9.941-8.059-18-18-18S0 8.059 0 18s8.059 18 18 18 18-8.059 18-18" fill="#ffcc4d"/><path d="M23.485 7.121c-.012.044-1.146 4.38-5.485 4.38-4.34 0-5.475-4.336-5.485-4.38a.495.495 0 0 1 .231-.544.51.51 0 0 1 .596.06c.01.007 1.014.863 4.658.863 3.59 0 4.617-.83 4.656-.863a.5.5 0 0 1 .83.484M15.703 18.402c-.013-.01-1.262-.902-3.703-.902-2.442 0-3.69.893-3.7.9a.5.5 0 0 1-.716-.677C7.644 17.632 9.099 15.5 12 15.5c2.9 0 4.356 2.132 4.416 2.223a.499.499 0 1 1-.713.679M28.345 18.36a.5.5 0 0 1-.643.042c-.011-.01-1.261-.902-3.702-.902s-3.69.892-3.7.9a.5.5 0 0 1-.716-.678c.06-.09 1.515-2.222 4.416-2.222 2.9 0 4.356 2.131 4.416 2.222a.499.499 0 0 1-.071.638M31.001 20a.997.997 0 0 0-.801.4c-2.64 3.521-6.061 3.599-6.206 3.6-.55.006-.994.456-.991 1.005A.997.997 0 0 0 24 26c.184 0 4.537-.05 7.8-4.4a1 1 0 0 0-.799-1.6M4.999 20a1 1 0 0 0-.799 1.6C7.462 25.95 11.816 26 12 26a1 1 0 0 0 .004-2c-.155-.002-3.568-.086-6.204-3.6a1 1 0 0 0-.801-.4" fill="#664500"/><path d="M23 13c6.211 0 13-4 13-9 0-4-3-4-3-4-8 0-1 9-10 13" fill="#5dadec"/></g></svg>