<svg xmlns="http://www.w3.org/2000/svg" viewBox="0 0 45 45"><defs><clipPath id="a"><path d="M0 36h36V0H0v36z"/></clipPath></defs><g clip-path="url(#a)" transform="matrix(1.25 0 0 -1.25 0 45)"><path d="M36 18c0-9.941-8.059-18-18-18C8.06 0 0 8.059 0 18c0 9.94 8.06 18 18 18 9.941 0 18-8.06 18-18" fill="#ffcc4d"/><path d="M18 25c8.749 0 16.033-4.509 17.656-10.484.222 1.128.344 2.292.344 3.484 0 9.94-8.059 18-18 18-9.94 0-18-8.06-18-18 0-1.192.123-2.356.344-3.484C1.967 20.491 9.252 25 18 25" fill="#bdddf4"/><path d="M14 19.5c0-1.934-1.119-3.5-2.5-3.5S9 17.566 9 19.5c0 1.933 1.119 3.5 2.5 3.5s2.5-1.567 2.5-3.5M27 19.5c0-1.934-1.119-3.5-2.5-3.5S22 17.566 22 19.5c0 1.933 1.119 3.5 2.5 3.5s2.5-1.567 2.5-3.5M5.999 24a1 1 0 0 0-.799 1.6C8.462 29.95 12.816 30 13 30a1 1 0 0 0 .004-2c-.155-.002-3.569-.086-6.204-3.6a1 1 0 0 0-.801-.4M30.001 24a.997.997 0 0 0-.801.4c-2.64 3.521-6.061 3.599-6.206 3.6-.55.006-.994.456-.991 1.005A.997.997 0 0 0 23 30c.184 0 4.537-.05 7.8-4.4a1 1 0 0 0-.799-1.6M23.485 8.121c-.012.044-1.146 4.38-5.485 4.38-4.34 0-5.474-4.336-5.485-4.38a.496.496 0 0 1 .232-.544.51.51 0 0 1 .596.06c.01.007 1.014.863 4.657.863 3.59 0 4.617-.83 4.656-.863a.5.5 0 0 1 .83.484" fill="#664500"/></g></svg>