<svg xmlns="http://www.w3.org/2000/svg" viewBox="0 0 45 45"><defs><clipPath id="a"><path d="M0 36h36V0H0v36z"/></clipPath></defs><g clip-path="url(#a)" transform="matrix(1.25 0 0 -1.25 0 45)"><path d="M36 18c0-9.941-8.059-18-18-18C8.06 0 0 8.059 0 18c0 9.94 8.06 18 18 18 9.941 0 18-8.06 18-18" fill="#ffcc4d"/><path d="M16.664 25.457a.501.501 0 0 1-.592-.148c-.01-.012-.979-1.202-3.335-1.844a8.543 8.543 0 0 0-2.244-.319c-.993 0-1.559.212-1.562.213a.5.5 0 0 1-.57-.781c.07-.088 1.778-2.148 4.123-2.148.351 0 .702.048 1.043.14 2.854.779 3.41 4.209 3.432 4.354a.501.501 0 0 1-.295.533M27.639 23.302a.502.502 0 0 1-.59.16c-.006-.004-.633-.257-1.737-.257-.661 0-1.36.09-2.073.266-2.37.582-3.37 1.748-3.377 1.758a.5.5 0 0 1-.88-.405c.027-.145.669-3.56 3.54-4.267.31-.076.629-.115.946-.115 2.397 0 4.099 2.16 4.17 2.252a.498.498 0 0 1 0 .608M9.998 26a1 1 0 0 0-.244 1.969c.036.01 3.593.962 5.352 4.478a1 1 0 1 0 1.789-.894c-2.181-4.362-6.471-5.478-6.652-5.523a.976.976 0 0 0-.245-.03M26 26c-.08 0-.161.01-.242.03-.182.045-4.472 1.161-6.653 5.523a1 1 0 0 0 1.79.894c1.757-3.517 5.315-4.468 5.351-4.478A1.001 1.001 0 0 0 26 26M18 7.035c-3.623 0-6.027-.422-9-1-.679-.13-2 0-2 2 0 4 4.595 9 11 9 6.404 0 11-5 11-9 0-2-1.321-2.132-2-2-2.973.578-5.377 1-9 1" fill="#664500"/><path d="M10 11s3 1 8 1 8-1 8-1-2 4-8 4-8-4-8-4" fill="#fff"/></g></svg>