<svg xmlns="http://www.w3.org/2000/svg" viewBox="0 0 45 45"><defs><clipPath id="a"><path d="M0 36h36V0H0v36z"/></clipPath></defs><g clip-path="url(#a)" transform="matrix(1.25 0 0 -1.25 0 45)"><path d="M36 18c0-9.941-8.059-18-18-18S0 8.059 0 18s8.059 18 18 18 18-8.059 18-18" fill="#ffcc4d"/><path d="M22 9c0-2.763-1.791-3-4-3-2.21 0-4 .237-4 3 0 2.761 1.79 6 4 6 2.209 0 4-3.239 4-6M30 21a.987.987 0 0 0-.371.072c-5.229 2.09-7.372 5.24-7.461 5.374a1 1 0 0 0 1.662 1.112c.019-.028 1.93-2.786 6.541-4.63A1 1 0 0 0 30 21M6 21a1.001 1.001 0 0 0-.372 1.929c4.612 1.844 6.523 4.602 6.542 4.63a1 1 0 1 0 1.662-1.113c-.089-.134-2.233-3.283-7.46-5.374A.99.99 0 0 0 6 21" fill="#664500"/><path d="M8 1l4 .046v18.953H8V1zm16 19h4V1l-4 .046V20z" fill="#5dadec"/><path d="M14.999 18c-.15 0-.303.034-.446.105-3.512 1.757-7.071.019-7.106 0a1 1 0 1 0-.894 1.79c.182.089 4.498 2.196 8.894 0A1 1 0 0 0 14.999 18M28.999 18c-.15 0-.303.034-.446.105-3.513 1.756-7.071.019-7.106 0a1 1 0 1 0-.894 1.79c.181.089 4.501 2.196 8.894 0A1 1 0 0 0 28.999 18" fill="#664500"/><path d="M36 2c0-1.104-8.059-2-18-2S0 .896 0 2s8.059 2 18 2 18-.896 18-2" fill="#5dadec"/><path d="M21 9c0-1.657-1.343-2-3-2s-3 .343-3 2 1.343 2 3 2 3-.343 3-2" fill="#e75a70"/></g></svg>