<svg xmlns="http://www.w3.org/2000/svg" viewBox="0 0 45 45"><defs><clipPath id="a"><path d="M0 36h36V0H0v36z"/></clipPath></defs><g clip-path="url(#a)" transform="matrix(1.25 0 0 -1.25 0 45)"><path d="M36 18c0-9.941-8.059-18-18-18S0 8.059 0 18s8.059 18 18 18 18-8.059 18-18" fill="#ffcc4d"/><path d="M22 11c0-2.763-1.792-5-4-5-2.21 0-4 2.237-4 5 0 2.761 1.79 5 4 5 2.208 0 4-2.239 4-5M14.5 22.5c0-1.934-1.119-3.5-2.5-3.5s-2.5 1.566-2.5 3.5c0 1.933 1.119 3.5 2.5 3.5s2.5-1.567 2.5-3.5M26.5 22.5c0-1.934-1.119-3.5-2.5-3.5s-2.5 1.566-2.5 3.5c0 1.933 1.119 3.5 2.5 3.5s2.5-1.567 2.5-3.5" fill="#664500"/></g></svg>