<svg xmlns="http://www.w3.org/2000/svg" viewBox="0 0 45 45"><defs><clipPath id="a"><path d="M0 36h36V0H0v36z"/></clipPath></defs><g clip-path="url(#a)" transform="matrix(1.25 0 0 -1.25 0 45)"><path d="M36 18c0-9.941-8.059-18-18-18S0 8.059 0 18s8.059 18 18 18 18-8.059 18-18" fill="#ffcc4d"/><path d="M18 14.5c-9.333 0-10.485-8.354-10.496-8.438a.5.5 0 0 1 .654-.537C8.217 5.545 14.126 7.5 18 7.5c5.595 0 9.745-1.933 9.786-1.952a.5.5 0 0 1 .71.514C28.485 6.146 27.333 14.5 18 14.5M29 26c-5.554 0-7.802 4.367-7.895 4.553a1 1 0 0 0 1.788.898C22.967 31.306 24.713 28 29 28a1 1 0 1 0 0-2M7 26a1 1 0 0 0 0 2c5.083 0 5.996 3.12 6.033 3.253.145.528.692.848 1.219.709a.995.995 0 0 0 .718-1.205C14.921 30.563 13.704 26 7 26" fill="#664500"/><path d="M18 13c4 0 6-2 6-2H12s2 2 6 2" fill="#ccd6dd"/><path d="M6.001 17a1 1 0 0 0-.601 1.8c.143.107 2.951 2.182 6.856 2.932C9.781 22.973 7.034 23 6.999 23A1 1 0 0 0 7 25c.221 0 5.452-.038 8.707-3.293A1 1 0 0 0 15 20c-4.613 0-8.363-2.772-8.4-2.8a.996.996 0 0 0-.599-.2M29.999 17.001a.998.998 0 0 0-.598.198C29.363 17.228 25.59 20 21 20a1 1 0 0 0-.707 1.707C23.549 24.962 28.779 25 29 25a1 1 0 0 0 .002-2c-.036 0-2.783-.027-5.258-1.268 3.905-.75 6.713-2.825 6.856-2.932a1 1 0 0 0-.601-1.799" fill="#664500"/></g></svg>