<svg xmlns="http://www.w3.org/2000/svg" viewBox="0 0 45 45"><defs><clipPath id="a"><path d="M0 36h36V0H0v36z"/></clipPath></defs><g clip-path="url(#a)" transform="matrix(1.25 0 0 -1.25 0 45)"><path d="M36 18c0-9.941-8.059-18-18-18C8.06 0 0 8.059 0 18c0 9.94 8.06 18 18 18 9.941 0 18-8.06 18-18" fill="#ffcc4d"/><path d="M23 9c0-3.314-2.238-6-5-6s-5 2.686-5 6c0 3.313 2.238 6 5 6s5-2.687 5-6M5.999 25a1 1 0 0 0-.799 1.6C8.462 30.95 12.816 31 13 31a1 1 0 0 0 .004-2c-.155-.002-3.569-.086-6.204-3.6a1 1 0 0 0-.801-.4M30.001 25a.997.997 0 0 0-.801.4c-2.64 3.521-6.061 3.599-6.206 3.6-.55.006-.994.456-.991 1.005A.997.997 0 0 0 23 31c.184 0 4.537-.05 7.8-4.4a1 1 0 0 0-.799-1.6M13.914 20.5l1.793 1.793a.999.999 0 1 1-1.414 1.414L12.5 21.914l-1.793 1.793a.999.999 0 1 1-1.414-1.414l1.793-1.793-1.793-1.793a.999.999 0 1 1 1.414-1.414l1.793 1.793 1.793-1.793a.997.997 0 0 1 1.414 0 .999.999 0 0 1 0 1.414L13.914 20.5zM24.914 20.5l1.793 1.793a.999.999 0 1 1-1.414 1.414L23.5 21.914l-1.793 1.793a.999.999 0 1 1-1.414-1.414l1.793-1.793-1.793-1.793a.999.999 0 1 1 1.414-1.414l1.793 1.793 1.793-1.793a.997.997 0 0 1 1.414 0 .999.999 0 0 1 0 1.414L24.914 20.5z" fill="#664500"/></g></svg>