<svg xmlns="http://www.w3.org/2000/svg" viewBox="0 0 45 45"><defs><clipPath id="a"><path d="M0 36h36V0H0v36z"/></clipPath></defs><g clip-path="url(#a)" transform="matrix(1.25 0 0 -1.25 0 45)"><path d="M36 18c0-9.941-8.059-18-18-18C8.06 0 0 8.059 0 18c0 9.94 8.06 18 18 18 9.941 0 18-8.06 18-18" fill="#ffcc4d"/><path d="M34 13a5 5 0 0 0-5-5 5 5 0 0 0-5 5 5 5 0 0 0 5 5 5 5 0 0 0 5-5M12 13a5 5 0 0 0-5-5 5 5 0 0 0-5 5 5 5 0 0 0 5 5 5 5 0 0 0 5-5" fill="#ff7892"/><path d="M30 19.5a5.5 5.5 0 1 0-11.001.001A5.5 5.5 0 0 0 30 19.5M17 19.5a5.5 5.5 0 1 0-11.001.001A5.5 5.5 0 0 0 17 19.5" fill="#f5f8fa"/><path d="M14 19.5a2.5 2.5 0 1 0-5 0 2.5 2.5 0 0 0 5 0M27 19.5a2.5 2.5 0 1 0-5 0 2.5 2.5 0 0 0 5 0M22 6h-8a1 1 0 1 0 0 2h8a1 1 0 1 0 0-2M30.001 25a.997.997 0 0 0-.801.4c-2.64 3.521-6.061 3.599-6.206 3.6-.55.006-.994.456-.991 1.005A.997.997 0 0 0 23 31c.184 0 4.537-.05 7.8-4.4a1 1 0 0 0-.799-1.6M5.999 25a1 1 0 0 0-.799 1.6C8.462 30.95 12.816 31 13 31a1 1 0 0 0 .004-2c-.155-.002-3.569-.086-6.204-3.6a1 1 0 0 0-.801-.4" fill="#664500"/></g></svg>