<svg xmlns="http://www.w3.org/2000/svg" viewBox="0 0 45 45"><defs><clipPath id="a"><path d="M0 36h36V0H0v36z"/></clipPath></defs><g clip-path="url(#a)" transform="matrix(1.25 0 0 -1.25 0 45)"><path d="M36 18c0-9.941-8.059-18-18-18C8.06 0 0 8.059 0 18c0 9.94 8.06 18 18 18 9.941 0 18-8.06 18-18" fill="#ffcc4d"/><path d="M21 10a3 3 0 1 0-6 0 3 3 0 0 0 6 0M17.313 19.388a.501.501 0 0 1-.61.014c-.013-.01-1.261-.902-3.702-.902s-3.69.892-3.701.9a.5.5 0 0 1-.758-.603c.061-.135 1.5-3.297 4.458-3.297s4.397 3.162 4.457 3.297a.5.5 0 0 1-.144.591M27.313 19.388a.5.5 0 0 1-.61.014c-.012-.01-1.261-.902-3.702-.902s-3.691.892-3.701.9a.5.5 0 0 1-.758-.603c.06-.135 1.5-3.297 4.458-3.297 2.959 0 4.398 3.162 4.458 3.297a.5.5 0 0 1-.145.591" fill="#664500"/><path d="M15.998 30.87h-2.002c-.433 0-.78.275-.78.755s.348.755.78.755h3.921c.156 0 .563-.07.563-.539 0-.228-.047-.336-.179-.516l-2.722-3.814h2.279c.432 0 .779-.276.779-.756 0-.479-.347-.755-.78-.755H13.84c-.384 0-.708.192-.708.588 0 .192.096.371.156.468l2.71 3.813zM23.502 33.687h-2.34c-.504 0-.91.322-.91.882 0 .561.406.883.91.883h4.58c.184 0 .66-.084.66-.63 0-.266-.056-.392-.211-.603l-3.179-4.454h2.662c.504 0 .91-.322.91-.883 0-.56-.406-.882-.91-.882h-4.693c-.449 0-.827.224-.827.687 0 .224.112.434.182.545l3.166 4.455zM31.502 30.31h-3.008c-.648 0-1.17.414-1.17 1.134s.522 1.135 1.17 1.135h5.889c.234 0 .846-.108.846-.81 0-.342-.073-.505-.27-.775l-4.088-5.726h3.422c.647 0 1.17-.414 1.17-1.134S34.94 23 34.293 23H28.26c-.576 0-1.062.288-1.062.882 0 .288.144.558.234.702l4.07 5.726z" fill="#2a6797"/></g></svg>