<svg xmlns="http://www.w3.org/2000/svg" viewBox="0 0 45 45"><defs><clipPath id="a"><path d="M0 36h36V0H0v36z"/></clipPath></defs><g clip-path="url(#a)" transform="matrix(1.25 0 0 -1.25 0 45)"><path d="M36 16C36 6 25 0 18 0S0 6.059 0 16c0 9.941 4 20 18 20s18-10 18-20M35 35c1-1 0-11 0-11l-8 10s7 2 8 1" fill="#ffcc4d"/><path d="M1 35c-1-1 0-11 0-11l8 10s-7 2-8 1" fill="#ffcc4d"/><path d="M18 16.5c3 0 3-.5 3-1.5s-1.5-3-3-3-3 2-3 3-.001 1.5 3 1.5" fill="#67757f"/><path d="M26 15.5a.503.503 0 0 0-.475.342.502.502 0 0 0 .317.633l9 2.999a.5.5 0 1 0 .316-.948l-9-3.001A.511.511 0 0 0 26 15.5M24.999 13.5a.5.5 0 0 0-.097.99l10 2a.499.499 0 1 0 .196-.98l-10-2a.475.475 0 0 0-.099-.01M10 15.5a.516.516 0 0 0-.158.025l-9 3.001a.499.499 0 1 0 .316.948l9-2.999A.501.501 0 0 0 10 15.5M11 13.5a.489.489 0 0 0-.098.01l-10 2a.5.5 0 1 0 .197.98l10-2A.5.5 0 0 0 11 13.5" fill="#9aaab4"/><path d="M28.416 18.277c-.061.091-1.515 2.223-4.416 2.223-2.9 0-4.355-2.132-4.416-2.223a.499.499 0 0 1 .714-.679c.012.01 1.262.902 3.702.902 2.426 0 3.674-.882 3.702-.902a.5.5 0 0 1 .714.68M12 20.5c-2.9 0-4.355-2.132-4.416-2.223a.499.499 0 0 1 .713-.679c.013.009 1.262.902 3.703.902 2.426 0 3.674-.881 3.702-.901a.5.5 0 0 1 .714.678c-.061.091-1.515 2.223-4.416 2.223M21.871 6c1.335.412 2.63 1.156 2.63 2.5 0 2.619-4.913 2.968-5.474 2.999-.277.035-.51-.194-.526-.468a.501.501 0 0 1 .464-.53C19 10.499 22.5 10.202 22.5 8.5S19 6.501 18.965 6.499c-.01-.001-.018-.006-.028-.008a.43.43 0 0 1-.307-.157c-.006-.007-.01-.016-.017-.022a.645.645 0 0 1-.072-.125c-.01-.027-.016-.056-.022-.085-.004-.024-.016-.046-.018-.071 0-.01.004-.02.004-.031s-.005-.021-.004-.031c.002-.026.013-.046.018-.071.006-.029.011-.058.023-.086.013-.033.032-.06.051-.088.016-.024.03-.047.05-.068a.464.464 0 0 1 .081-.062.48.48 0 0 1 .071-.046.37.37 0 0 1 .1-.027c.024-.006.044-.018.07-.02C19 5.499 22.5 5.202 22.5 3.5S19 1.501 18.965 1.499a.501.501 0 0 1 .062-.998C19.588.532 24.5.881 24.5 3.5c0 1.344-1.294 2.088-2.629 2.5M31.001 20a.997.997 0 0 0-.801.4c-2.64 3.521-6.061 3.599-6.206 3.6-.55.006-.994.456-.991 1.005A.997.997 0 0 0 24 26c.184 0 4.537-.05 7.8-4.4a1 1 0 0 0-.799-1.6M4.999 20a1 1 0 0 0-.799 1.6C7.462 25.95 11.816 26 12 26a1 1 0 0 0 .004-2c-.155-.002-3.568-.086-6.204-3.6a1 1 0 0 0-.801-.4" fill="#292f33"/></g></svg>