<svg xmlns="http://www.w3.org/2000/svg" viewBox="0 0 45 45"><defs><clipPath id="a"><path d="M0 36h36V0H0v36z"/></clipPath></defs><g clip-path="url(#a)" transform="matrix(1.25 0 0 -1.25 0 45)"><path d="M36 16C36 6 25 0 18 0S0 6.059 0 16c0 9.941 4 20 18 20s18-10 18-20M35 35c1-1 0-11 0-11l-8 10s7 2 8 1" fill="#ffcc4d"/><path d="M1 35c-1-1 0-11 0-11l8 10s-7 2-8 1" fill="#ffcc4d"/><path d="M31.404 12.295a.498.498 0 0 1-.542.186c-.069-.02-7-1.981-12.863-1.981-5.858 0-12.793 1.96-12.862 1.98a.502.502 0 0 1-.532-.788C4.897 11.318 11.826 2.5 18 2.5c7.185 0 13.166 8.846 13.417 9.223a.501.501 0 0 1-.012.572M14 21.5c0-1.933-.895-3.5-2-3.5-1.104 0-2 1.567-2 3.5s.896 3.5 2 3.5c1.105 0 2-1.567 2-3.5M26 21.5c0-1.933-.895-3.5-2-3.5-1.104 0-2 1.567-2 3.5s.896 3.5 2 3.5c1.105 0 2-1.567 2-3.5" fill="#292f33"/><path d="M8 11s5-2 10-2 10 2 10 2 0-3-1-3-2 1-2 1-4-2-7-2-7 2-7 2-1-1-2-1-1 3-1 3" fill="#f5f8fa"/><path d="M18 16.5c3 0 3-.5 3-1.5s-1.5-3-3-3-3 2-3 3-.001 1.5 3 1.5" fill="#67757f"/><path d="M26 15.5a.503.503 0 0 0-.475.342.502.502 0 0 0 .317.633l9 2.999a.5.5 0 1 0 .316-.948l-9-3.001A.511.511 0 0 0 26 15.5M24.999 13.5a.5.5 0 0 0-.097.99l10 2a.499.499 0 1 0 .196-.98l-10-2a.475.475 0 0 0-.099-.01M10 15.5a.516.516 0 0 0-.158.025l-9 3.001a.499.499 0 1 0 .316.948l9-2.999A.501.501 0 0 0 10 15.5M11 13.5a.489.489 0 0 0-.098.01l-10 2a.5.5 0 1 0 .197.98l10-2A.5.5 0 0 0 11 13.5" fill="#9aaab4"/></g></svg>