<svg xmlns="http://www.w3.org/2000/svg" viewBox="0 0 45 45"><defs><clipPath id="a"><path d="M0 36h36V0H0v36z"/></clipPath></defs><g clip-path="url(#a)" transform="matrix(1.25 0 0 -1.25 0 45)"><path d="M34.964 24.045L35 24s1 10 0 11c-.91.91-6.771-.66-7.822-.951-2.426 1.234-5.443 1.95-9.178 1.95-3.73 0-6.742-.718-9.165-1.953-1.02.283-6.922 1.867-7.835.954-1-1 0-11 0-11l.047.059C.307 21.506 0 18.749 0 15.999 0 6.06 11 0 18 0s18 6 18 16c0 2.753-.306 5.503-1.036 8.046" fill="#ffcc4d"/><path d="M31.404 12.295a.498.498 0 0 1-.542.186c-.069-.02-7-1.981-12.863-1.981-5.858 0-12.793 1.96-12.862 1.98a.502.502 0 0 1-.532-.788C4.897 11.318 11.826 2.5 18 2.5c7.185 0 13.166 8.846 13.417 9.223a.501.501 0 0 1-.012.572" fill="#292f33"/><path d="M8 11s5-2 10-2 10 2 10 2 0-3-1-3-2 1-2 1-4-2-7-2-7 2-7 2-1-1-2-1-1 3-1 3" fill="#f5f8fa"/><path d="M18 16.5c3 0 3-.5 3-1.5s-1.5-3-3-3-3 2-3 3-.001 1.5 3 1.5" fill="#67757f"/><path d="M26 15.5a.503.503 0 0 0-.475.342.502.502 0 0 0 .317.633l9 2.999a.5.5 0 1 0 .316-.948l-9-3.001A.511.511 0 0 0 26 15.5M24.999 13.5a.5.5 0 0 0-.097.99l10 2a.499.499 0 1 0 .196-.98l-10-2a.475.475 0 0 0-.099-.01M10 15.5a.516.516 0 0 0-.158.025l-9 3.001a.499.499 0 1 0 .316.948l9-2.999A.501.501 0 0 0 10 15.5M11 13.5a.489.489 0 0 0-.098.01l-10 2a.5.5 0 1 0 .197.98l10-2A.5.5 0 0 0 11 13.5" fill="#9aaab4"/><path d="M28.416 18.277c-.061.091-1.515 2.223-4.416 2.223-2.9 0-4.355-2.132-4.416-2.223a.499.499 0 0 1 .714-.679c.012.01 1.262.902 3.702.902 2.426 0 3.674-.882 3.702-.902a.5.5 0 0 1 .714.68M16.416 18.277c-.061.091-1.515 2.223-4.416 2.223-2.9 0-4.355-2.132-4.416-2.223a.5.5 0 0 1 .713-.679c.013.01 1.262.902 3.703.902 2.426 0 3.674-.882 3.702-.902a.5.5 0 0 1 .714.68M31.001 20a.997.997 0 0 0-.801.4c-2.64 3.521-6.061 3.599-6.206 3.6-.55.006-.994.456-.991 1.005A.997.997 0 0 0 24 26c.184 0 4.537-.05 7.8-4.4a1 1 0 0 0-.799-1.6M4.999 20a1 1 0 0 0-.799 1.6C7.462 25.95 11.816 26 12 26a1 1 0 0 0 .004-2c-.155-.002-3.568-.086-6.204-3.6a1 1 0 0 0-.801-.4" fill="#292f33"/></g></svg>