<svg xmlns="http://www.w3.org/2000/svg" viewBox="0 0 45 45"><defs><clipPath id="a"><path d="M0 36h36V0H0v36z"/></clipPath></defs><g clip-path="url(#a)" transform="matrix(1.25 0 0 -1.25 0 45)"><path d="M18 36C8.06 36 0 27.94 0 18 0 11.949 2.996 6.608 7.574 3.345 7.678 9.783 5.337 17 1.404 17c-.464 0-.84-.066-1.153-.183.303.757.96 1.182 2.189 1.182 4.27 0 6.666-8.506 6.093-15.287A17.885 17.885 0 0 1 18 0c3.479 0 6.716 1.004 9.47 2.713C26.893 9.52 29.288 18 33.561 18c1.233 0 1.891-.426 2.192-1.183-.314.117-.691.183-1.157.183-3.938 0-6.279-7.199-6.17-13.655C33.005 6.608 36 11.949 36 18c0 9.94-8.059 18-18 18" fill="#ffcc4d"/><path d="M18 36C8.06 36 0 27.94 0 18c0-1.192.123-2.356.344-3.484.234.863.6 1.691 1.058 2.484-.463 0-.838-.066-1.151-.183.264.66.823 1.048 1.769 1.142C5.012 22.138 11.037 25 18 25c6.964 0 12.988-2.861 15.98-7.04.951-.094 1.51-.482 1.773-1.143-.313.117-.689.183-1.154.183.458-.793.823-1.621 1.057-2.484.222 1.128.344 2.292.344 3.484 0 9.94-8.059 18-18 18" fill="#bdddf4"/><path d="M7.347 24.09c-.946-3.176.107-6.293 2.353-6.962 2.246-.67 4.834 1.362 5.78 4.538.945 3.175-.108 6.293-2.352 6.962-2.246.669-4.834-1.363-5.78-4.538M28.652 24.09c.946-3.176-.107-6.293-2.352-6.962-2.247-.67-4.834 1.362-5.78 4.538-.946 3.175.107 6.293 2.351 6.962 2.246.669 4.834-1.363 5.781-4.538" fill="#f5f8fa"/><path d="M18 18c-2.757 0-5-2.243-5-5V7c0-2.757 2.243-5 5-5s5 2.243 5 5v6c0 2.757-2.243 5-5 5" fill="#664500"/><path d="M1.404 17c-.464 0-.84-.066-1.153-.183.072.179.167.336.281.477C-1.33 15.002 2.848 7.46.818 0H7.28c1.188 6.96-1.236 17-5.875 17M35.753 16.817c-.313.116-.69.183-1.157.183-4.641 0-7.066-10.002-5.873-17h6.46c-1.906 7.045 1.656 14.088.57 16.817" fill="#fcab40"/></g></svg>