<svg xmlns="http://www.w3.org/2000/svg" viewBox="0 0 45 45"><defs><clipPath id="a"><path d="M0 36h36V0H0v36z"/></clipPath></defs><g clip-path="url(#a)" transform="matrix(1.25 0 0 -1.25 0 45)"><path d="M36 16C36 6 25 0 18 0S0 6.059 0 16c0 9.941 4 20 18 20s18-10 18-20M35 35c1-1 0-11 0-11l-8 10s7 2 8 1" fill="#ffcc4d"/><path d="M1 35c-1-1 0-11 0-11l8 10s-7 2-8 1" fill="#ffcc4d"/><path d="M25.362 5.364C24.88 6.13 21.947 10.5 18 10.5c-4.234 0-7.3-5.029-7.428-5.243a.5.5 0 0 1 .706-.673c.03.02 2.918 1.916 6.722 1.916 3.792 0 6.695-1.898 6.723-1.916.086-.058.215-.096.282-.084a.511.511 0 0 1 .515.5.496.496 0 0 1-.157.364M14 21.5c0-1.933-.895-3.5-2-3.5-1.104 0-2 1.567-2 3.5s.896 3.5 2 3.5c1.105 0 2-1.567 2-3.5M26 21.5c0-1.933-.895-3.5-2-3.5-1.104 0-2 1.567-2 3.5s.896 3.5 2 3.5c1.105 0 2-1.567 2-3.5" fill="#292f33"/><path d="M18 16.5c3 0 3-.5 3-1.5s-1.5-3-3-3-3 2-3 3-.001 1.5 3 1.5" fill="#67757f"/><path d="M26 15.5a.503.503 0 0 0-.475.342.502.502 0 0 0 .317.633l9 2.999a.5.5 0 1 0 .316-.948l-9-3.001A.511.511 0 0 0 26 15.5M24.999 13.5a.5.5 0 0 0-.097.99l10 2a.499.499 0 1 0 .196-.98l-10-2a.475.475 0 0 0-.099-.01M10 15.5a.516.516 0 0 0-.158.025l-9 3.001a.499.499 0 1 0 .316.948l9-2.999A.501.501 0 0 0 10 15.5M11 13.5a.489.489 0 0 0-.098.01l-10 2a.5.5 0 1 0 .197.98l10-2A.5.5 0 0 0 11 13.5" fill="#9aaab4"/><path d="M31.001 22a.997.997 0 0 0-.801.4c-2.64 3.521-6.061 3.599-6.206 3.6-.55.006-.994.456-.991 1.005A.997.997 0 0 0 24 28c.184 0 4.537-.05 7.8-4.4a1 1 0 0 0-.799-1.6M4.999 22a1 1 0 0 0-.799 1.6C7.462 27.95 11.816 28 12 28a1 1 0 0 0 .004-2c-.155-.002-3.568-.086-6.204-3.6a1 1 0 0 0-.801-.4" fill="#292f33"/><path d="M15 5A5 5 0 1 0 5 5c0 2.762 4 13 5 13s5-10.238 5-13" fill="#5dadec"/></g></svg>