<svg xmlns="http://www.w3.org/2000/svg" viewBox="0 0 45 45"><defs><clipPath id="a"><path d="M0 36h36V0H0v36z"/></clipPath></defs><g clip-path="url(#a)" transform="matrix(1.25 0 0 -1.25 0 45)"><path d="M36 18c0-9.941-8.059-18-18-18C8.06 0 0 8.059 0 18c0 9.94 8.06 18 18 18 9.941 0 18-8.06 18-18" fill="#ffcc4d"/><path d="M7.001 21a1 1 0 0 0-.556 1.832C6.578 22.92 9.746 25 14 25a1 1 0 0 0 0-2c-3.655 0-6.418-1.814-6.445-1.832A.996.996 0 0 0 7.001 21M28.999 21a.996.996 0 0 0-.552.167C28.419 21.185 25.628 23 22 23a1 1 0 1 0 0 2c4.254 0 7.422-2.08 7.555-2.168A1 1 0 0 0 28.999 21" fill="#664500"/><path d="M27 13.91L36 18c0 .66-.041 1.31-.109 1.95L27 15.91V17a2 2 0 0 1-2 2H11a2 2 0 0 1-2-2v-1.09L.11 19.95C.041 19.31 0 18.66 0 18l9-4.09V9.362L1.547 10.72c.341-.77.741-1.507 1.182-2.215L9 7.364V6a2 2 0 0 1 2-2h14a2 2 0 0 1 2 2v1.363l6.271 1.141c.442.708.841 1.445 1.182 2.215L27 9.363v4.546z" fill="#f5f8fa"/></g></svg>