<svg xmlns="http://www.w3.org/2000/svg" viewBox="0 0 45 45"><defs><clipPath id="a"><path d="M0 36h36V0H0v36z"/></clipPath></defs><g clip-path="url(#a)" transform="matrix(1.25 0 0 -1.25 0 45)"><path d="M0 18c0 9.941 8.059 18 18 18s18-8.059 18-18S27.941 0 18 0 0 8.059 0 18" fill="#ffcc4d"/><path d="M8.665 23.129a.501.501 0 0 1 .635-.03c.039.03 3.922 2.9 8.7 2.9 4.766 0 8.662-2.87 8.7-2.9a.5.5 0 1 1 .729.657C27.3 23.973 24.212 29 18 29s-9.301-5.028-9.429-5.243a.499.499 0 0 1 .094-.628M14 14.5c0-1.934-1.119-3.5-2.5-3.5S9 12.566 9 14.5c0 1.933 1.119 3.5 2.5 3.5s2.5-1.567 2.5-3.5M27 14.5c0-1.934-1.119-3.5-2.5-3.5S22 12.566 22 14.5c0 1.933 1.119 3.5 2.5 3.5s2.5-1.567 2.5-3.5" fill="#664500"/></g></svg>