<svg xmlns="http://www.w3.org/2000/svg" viewBox="0 0 45 45"><defs><clipPath id="a"><path d="M0 36h36V0H0v36z"/></clipPath><clipPath id="b"><path d="M4 15l9-7-4-8h18s4 9 0 9L4 21v-6z"/></clipPath><clipPath id="c"><path d="M0 36h36V0H0v36z"/></clipPath></defs><g clip-path="url(#a)" transform="matrix(1.25 0 0 -1.25 0 45)"><path d="M19 36c-1.721 0-3.343-.406-4.794-1.111A6.944 6.944 0 0 1 13 35a7 7 0 0 1-7-7V16h.018C6.201 9.533 11.489 4.344 18 4.344c6.511 0 11.799 5.189 11.982 11.656H30v9c0 6.075-4.925 11-11 11" fill="#60352a"/><path d="M27 9H9a4 4 0 0 1-4-4V0h26v5a4 4 0 0 1-4 4" fill="#9268ca"/><path d="M14 31s-.003-5.308-5-5.936V19a9 9 0 0 1 9-9 9 9 0 0 1 9 9v5.019C15.89 24.395 14 31 14 31" fill="#af7e57"/><path d="M19 14a1 1 0 1 0-2 0 1 1 0 1 0 2 0" fill="#df1f32"/><path d="M27 0L11.999 9 10 8l14-8h3z" fill="#7450a8"/><path d="M2.655 21.984l-.075.363V23c-.074 0-.144-.03-.217-.045a1.272 1.272 0 0 1-1.34.586 1.285 1.285 0 0 1-.997-1.517L.58 19.35V17a2 2 0 0 1 2-2h2v5s-.856 1.895-1.925 1.984" fill="#9b6a49"/><path d="M1.58 28a1 1 0 0 1-1-1l1-6v-5a1 1 0 0 1 1-1h2v2L4 21l-1.42 6s-.447 1-1 1" fill="#af7e57"/><path d="M27 9c4 0 0-9 0-9L4 15v6L27 9z" fill="#9268ca"/></g><g clip-path="url(#b)" transform="matrix(1.25 0 0 -1.25 0 45)"><path d="M22 12l-4 3-8-4 2.999-2L22 12zm6-2L12 0H9l17 11 2-1z" fill="#7450a8"/></g><g clip-path="url(#c)" transform="matrix(1.25 0 0 -1.25 0 45)"><path d="M34.977 23.541a1.276 1.276 0 0 1-1.341-.586c-.071.016-.142.045-.216.045v-.653l-.075-.363C32.275 21.895 31.42 20 31.42 20v-5h2a2 2 0 0 1 2 2v2.35l.554 2.674a1.285 1.285 0 0 1-.997 1.517" fill="#9b6a49"/><path d="M34.42 28a1 1 0 0 0 1-1l-1-6v-5a1 1 0 0 0-1-1h-2v2l.58 4 1.42 6s.447 1 1 1" fill="#af7e57"/><path d="M9 9V0l23 15v6L9 9z" fill="#9268ca"/><path d="M19 16.5h-2a.5.5 0 0 0 0 1h2a.5.5 0 0 0 0-1" fill="#915a34"/><path d="M14 20a1 1 0 0 0-1 1v1a1 1 0 0 0 2 0v-1a1 1 0 0 0-1-1M22 20a1 1 0 0 0-1 1v1a1 1 0 1 0 2 0v-1a1 1 0 0 0-1-1" fill="#60352a"/></g></svg>