<svg xmlns="http://www.w3.org/2000/svg" viewBox="0 0 45 45"><defs><clipPath id="a"><path d="M0 36h36V0H0v36z"/></clipPath></defs><g clip-path="url(#a)" transform="matrix(1.25 0 0 -1.25 0 45)"><path d="M36 29c0 4.939-6.772 4.457-9.169 4.132C24.398 34.921 21.444 36 18 36c-3.438 0-6.388-1.081-8.818-2.869C6.797 33.456 0 33.948 0 29c0-2.891 1.563-4.732 2.433-5.533A26.05 26.05 0 0 1 1 15C1 9.52 4.041 6.134 7.941 4.196L6.356 0H14l.738 2.215A25.5 25.5 0 0 1 18 2c.737 0 1.509.035 2.298.106L21 0h8l-1.648 3.847C31.586 5.708 35 9.158 35 15c0 2.835-.483 5.751-1.426 8.473C34.445 24.278 36 26.117 36 29" fill="#bf6952"/><path d="M30 22a7 7 0 0 1-7 7 6.98 6.98 0 0 1-5-2.105A6.977 6.977 0 0 1 13 29a7 7 0 0 1-.696-13.965C10.88 13.71 10 11.915 10 10c0-3.866 3.581-7 8-7 4.419 0 8 3.134 8 7 0 1.915-.88 3.709-2.304 5.035A7 7 0 0 1 30 22" fill="#d79e84"/><path d="M15 20c0-1.657-.895-3-2-3-1.104 0-2 1.343-2 3s.896 3 2 3c1.105 0 2-1.343 2-3M25 20c0-1.657-.895-3-2-3-1.104 0-2 1.343-2 3s.896 3 2 3c1.105 0 2-1.343 2-3" fill="#292f33"/><path d="M13 2.5c-4.114 0-6.267 6.3-6.267 9.677 0 .623.076 1.129.225 1.505.283.712.774.818 1.042.818 1.926 0 3.268-1.835 3.823-2.765.994.677 3.392 2.113 5.844 2.113 1.455 0 2.695-.502 3.687-1.494 1.442-1.443 2.018-2.893 1.71-4.311-.583-2.692-4.194-4.235-4.806-4.48C17.905 3.289 16.58 2.5 13 2.5" fill="#d79e84"/><path d="M8 15c-.317 0-1.1-.11-1.506-1.134-.173-.434-.261-1.003-.261-1.689C6.233 8.625 8.558 2 13 2c3.501 0 4.98.748 5.501 1.122.871.35 4.43 1.942 5.052 4.816.345 1.594-.276 3.199-1.846 4.769-1.089 1.089-2.448 1.641-4.04 1.641-2.275 0-4.49-1.16-5.696-1.919C11.249 13.486 9.885 15 8 15m0-1c2.236 0 3.656-3 3.656-3s3.008 2.348 6.011 2.348c1.172 0 2.342-.357 3.333-1.348 5-5-3-8-3-8s-1-1-5-1C8 3 6 14 8 14" fill="#bf6952"/><path d="M22 2.5c-3.663 0-4.965.825-5.281 1.082-.536.278-4.314 2.342-4.809 5.397-.245 1.506.339 2.978 1.736 4.375.881.879 1.992 1.326 3.303 1.326 2.728 0 5.613-1.943 6.81-2.849.407.991 1.374 2.669 3.241 2.669.268 0 .759-.106 1.042-.818.148-.376.225-.882.225-1.505C28.267 8.8 26.114 2.5 22 2.5" fill="#d79e84"/><path d="M16.949 15.18c-1.448 0-2.678-.495-3.656-1.473-1.517-1.516-2.148-3.134-1.877-4.807.522-3.217 4.33-5.368 5.032-5.74C16.92 2.8 18.377 2 22 2c4.443 0 6.767 6.625 6.767 10.177 0 .687-.088 1.255-.261 1.689C28.1 14.89 27.318 15 27 15c-1.701 0-2.817-1.206-3.445-2.403-1.437 1.015-4.071 2.583-6.606 2.583m0-1c3.337 0 7.05-3.18 7.05-3.18s.765 3 3 3c2 0 0-11-5-11-4 0-5 1-5 1s-8 4-3 9c.857.856 1.884 1.18 2.95 1.18" fill="#bf6952"/><path d="M18 6.5a.5.5 0 0 0-.277.084l-5.755 3.837a.499.499 0 0 0-.138.693.498.498 0 0 0 .693.139l5.755-3.837A.5.5 0 0 0 18 6.5M20 9.5a.494.494 0 0 0-.277.084l-5.462 3.641a.499.499 0 0 0-.138.693c.152.23.462.293.693.139l5.461-3.641A.5.5 0 0 0 20 9.5" fill="#bf6952"/></g></svg>