<svg xmlns="http://www.w3.org/2000/svg" viewBox="0 0 45 45"><defs><clipPath id="a"><path d="M0 36h36V0H0v36z"/></clipPath></defs><g clip-path="url(#a)" transform="matrix(1.25 0 0 -1.25 0 45)"><path d="M34.964 24.045L35 24s1 10 0 11c-.91.91-6.771-.66-7.822-.951-2.426 1.234-5.443 1.95-9.178 1.95-3.73 0-6.742-.718-9.165-1.953-1.02.283-6.922 1.867-7.835.954-1-1 0-11 0-11l.047.059C.307 21.506 0 18.749 0 15.999c0-5.505 3.376-9.817 7.577-12.571C7.657 9.845 5.32 17 1.404 17c-.464 0-.84-.066-1.152-.183.302.757.96 1.183 2.189 1.183 4.245 0 6.638-8.411 6.102-15.174C11.688.99 15.17 0 18 0c2.83 0 6.315.982 9.46 2.812C26.916 9.602 29.31 18 33.56 18c1.234 0 1.892-.426 2.193-1.183-.313.117-.69.183-1.157.183-3.924 0-6.264-7.151-6.171-13.592C32.624 6.153 36 10.462 36 16c0 2.752-.306 5.502-1.036 8.045" fill="#ffcc4d"/><path d="M18 15a4 4 0 0 1-4-4V5a4 4 0 0 1 8 0v6a4 4 0 0 1-4 4" fill="#292f33"/><path d="M18 21c3 0 3-.5 3-1.5s-1.5-3-3-3-3 2-3 3-.001 1.5 3 1.5" fill="#67757f"/><path d="M29.924 15.494l-5.021-1.004a.498.498 0 0 1 .096-.99c.033 0 .067.003.099.01l4.197.84c.196.41.406.792.629 1.144M33.56 18l.016-.001 1.582.527a.5.5 0 0 1-.317.948l-9-2.999a.502.502 0 0 1 .317-.95l5.43 1.811c.603.423 1.261.664 1.972.664M11.098 14.49L6.07 15.496c.223-.354.433-.736.63-1.146l4.202-.84a.5.5 0 0 1 .196.98M10.158 16.475l-9 3a.5.5 0 1 1-.316-.95l1.583-.527.015.002c.708 0 1.363-.24 1.963-.661l5.44-1.813a.501.501 0 0 1 .316.949" fill="#9aaab4"/><path d="M7.347 25.334c-.946-3.176.107-6.293 2.352-6.962 2.246-.67 4.834 1.362 5.78 4.538.947 3.175-.106 6.293-2.35 6.962-2.246.67-4.835-1.363-5.782-4.538M28.652 25.334c.946-3.176-.107-6.293-2.352-6.962-2.247-.67-4.834 1.362-5.78 4.538-.946 3.175.107 6.293 2.351 6.962 2.246.67 4.834-1.363 5.781-4.538" fill="#f5f8fa"/><path d="M35.753 16.817c-.313.116-.69.183-1.157.183-4.641 0-7.066-10.002-5.873-17h6.46c-1.906 7.045 1.656 14.088.57 16.817M1.404 17c-.464 0-.84-.066-1.153-.183.072.179.167.336.281.477C-1.33 15.002 2.848 7.46.818 0H7.28c1.188 6.96-1.236 17-5.875 17" fill="#fcab40"/></g></svg>