<svg xmlns="http://www.w3.org/2000/svg" viewBox="0 0 45 45"><defs><clipPath id="a"><path d="M0 36h36V0H0v36z"/></clipPath></defs><g clip-path="url(#a)" transform="matrix(1.25 0 0 -1.25 0 45)"><path d="M36 18c0-9.941-8.059-18-18-18C8.06 0 0 8.059 0 18c0 9.94 8.06 18 18 18 9.941 0 18-8.06 18-18" fill="#ffcc4d"/><path d="M30 22.5a5.5 5.5 0 1 0-11.001.001A5.5 5.5 0 0 0 30 22.5M17 22.5a5.5 5.5 0 1 0-11.001.001A5.5 5.5 0 0 0 17 22.5" fill="#f5f8fa"/><path d="M14 25.5a2.5 2.5 0 1 0-5 0 2.5 2.5 0 0 0 5 0M27 25.5a2.5 2.5 0 1 0-5 0 2.5 2.5 0 0 0 5 0M28.627 10.089a1.25 1.25 0 0 0-1.021-.46c-5.499.219-8.274-3.04-8.389-3.178a1.255 1.255 0 0 0-1.759-.166 1.246 1.246 0 0 0-.179 1.75c.147.179 3.633 4.362 10.427 4.09a1.244 1.244 0 0 0 1.199-1.297 1.24 1.24 0 0 0-.278-.74" fill="#664500"/></g></svg>