<svg xmlns="http://www.w3.org/2000/svg" viewBox="0 0 45 45"><defs><clipPath id="a"><path d="M0 36h36V0H0v36z"/></clipPath></defs><g clip-path="url(#a)" transform="matrix(1.25 0 0 -1.25 0 45)"><path d="M19 36c-1.721 0-3.343-.406-4.794-1.111A6.944 6.944 0 0 1 13 35a7 7 0 0 1-7-7V16h.018C6.201 9.533 11.489 4.344 18 4.344c6.511 0 11.799 5.189 11.982 11.656H30v9c0 6.075-4.925 11-11 11" fill="#60352a"/><path d="M27 9H9a4 4 0 0 1-4-4V0h26v5a4 4 0 0 1-4 4" fill="#9268ca"/><path d="M27 0h-1v4h1V0zM10 0H9v4h1V0z" fill="#7450a8"/><path d="M15 12V8a3 3 0 1 1 6 0v4h-6z" fill="#af7e57"/><path d="M14 31s-.003-5.308-5-5.936V19a9 9 0 0 1 9-9 9 9 0 0 1 9 9v5.019C15.89 24.395 14 31 14 31" fill="#af7e57"/><path d="M22 15h-8s1-2 4-2 4 2 4 2" fill="#df1f32"/><path d="M5 0l4 9-3 10 3 12H4s-4-8-4-12S5 0 5 0M31 0l-4 9 3 10-3 12h5s4-8 4-12-5-19-5-19" fill="#9268ca"/><path d="M12.541 34.977a1.285 1.285 0 0 1-1.517.997L8.35 35.42H6a2 2 0 0 1-2-2V31h5s1.899 1.257 1.985 2.345l.362.075H12c0 .074-.029.144-.045.217.444.275.698.798.586 1.34" fill="#9b6a49"/><path d="M17 34.42a1 1 0 0 1-1 1l-6-1H5a1 1 0 0 1-1-1V31h5l2 1 5 1.42s1 .447 1 1" fill="#af7e57"/><path d="M30 35.42h-2.35l-2.674.554a1.286 1.286 0 0 1-1.517-.997 1.274 1.274 0 0 1 .586-1.341c-.017-.072-.045-.142-.045-.216h.653l.363-.075C25.105 32.275 27 31.42 27 31.42h5v2a2 2 0 0 1-2 2" fill="#9b6a49"/><path d="M19 34.42a1 1 0 0 0 1 1l6-1h5a1 1 0 0 0 1-1V31h-5l-2 1-5 1.42s-1 .447-1 1" fill="#af7e57"/><path d="M19 16.5h-2a.5.5 0 0 0 0 1h2a.5.5 0 0 0 0-1" fill="#845636"/><path d="M14 20a1 1 0 0 0-1 1v1a1 1 0 0 0 2 0v-1a1 1 0 0 0-1-1M22 20a1 1 0 0 0-1 1v1a1 1 0 1 0 2 0v-1a1 1 0 0 0-1-1" fill="#60352a"/></g></svg>