<svg xmlns="http://www.w3.org/2000/svg" viewBox="0 0 45 45"><defs><clipPath id="a"><path d="M0 36h36V0H0v36z"/></clipPath></defs><g clip-path="url(#a)" transform="matrix(1.25 0 0 -1.25 0 45)"><path d="M36 29c0 4.939-6.772 4.457-9.169 4.132C24.398 34.921 21.444 36 18 36c-3.438 0-6.388-1.081-8.818-2.869C6.797 33.456 0 33.948 0 29c0-2.891 1.563-4.732 2.433-5.533A26.05 26.05 0 0 1 1 15C1 5.059 11 2 18 2s17 3 17 13c0 2.835-.483 5.751-1.426 8.473C34.445 24.278 36 26.117 36 29" fill="#bf6952"/><path d="M23 29a6.98 6.98 0 0 1-5-2.105A6.977 6.977 0 0 1 13 29a7 7 0 1 1 0-14c1.96 0 3.73.808 5 2.105A6.98 6.98 0 0 1 23 15a7 7 0 1 1 0 14" fill="#d79e84"/><path d="M26 9a8 8 0 0 0-8-8 8 8 0 0 0-8 8 8 8 0 0 0 8 8 8 8 0 0 0 8-8" fill="#d79e84"/><path d="M11.356 13.82L7.643 0H0l5.356 17.82 6-4z" fill="#bf6952"/><path d="M14.46 26c-2.503 0-5.055-1.61-6.418-2.63-.658 1.066-1.865 2.45-3.686 2.45-.317 0-1.1-.11-1.506-1.134-.173-.435-.26-1.003-.26-1.69 0-3.55 2.324-10.176 6.766-10.176 3.623 0 5.081.801 5.552 1.16.702.371 4.51 2.522 5.032 5.738.271 1.674-.36 3.292-1.877 4.808-.977.978-2.189 1.473-3.603 1.473" fill="#bf6952"/><path d="M14.46 25c1.034 0 2.041-.324 2.896-1.18 5-5-3-9-3-9s-1-1-5-1c-5 0-7 11-5 11 2.236 0 3.356-3 3.356-3S11.222 25 14.46 25" fill="#d79e84"/><path d="M11 20.32a.5.5 0 0 0-.277.916l6 4a.498.498 0 0 0 .693-.14.498.498 0 0 0-.138-.692l-6-4A.5.5 0 0 0 11 20.32M13 17.32a.5.5 0 0 0-.277.916l6 4a.5.5 0 0 0 .555-.833l-6-3.999A.5.5 0 0 0 13 17.32M25 13.82L28 0h8l-5 17.82-6-4z" fill="#bf6952"/><path d="M21.95 26c-1.45 0-2.68-.495-3.657-1.473-1.518-1.516-2.149-3.134-1.877-4.808.521-3.216 4.33-5.367 5.031-5.738.473-.36 1.93-1.16 5.553-1.16 4.442 0 6.766 6.625 6.766 10.176 0 .687-.088 1.255-.26 1.69C33.1 25.71 32.317 25.82 32 25.82c-1.7 0-2.818-1.206-3.446-2.403C27.117 24.432 24.484 26 21.95 26" fill="#bf6952"/><path d="M21.95 25c3.336 0 7.05-3.18 7.05-3.18s.763 3 3 3c2 0 0-11-5-11-4 0-5 1-5 1s-8 4-3 9c.855.856 1.883 1.18 2.95 1.18" fill="#d79e84"/><path d="M24 17.5a.494.494 0 0 0-.277.084l-6 3.999a.5.5 0 0 0 .554.832l6-3.999A.5.5 0 0 0 24 17.5M26 20.5a.494.494 0 0 0-.277.084l-6 4a.5.5 0 1 0 .554.832l6-4A.5.5 0 0 0 26 20.5" fill="#bf6952"/><path d="M23.426 7.263A.503.503 0 0 1 23 7.5H13a.5.5 0 0 1-.447-.723C12.64 6.602 14.729 2.5 18 2.5c3.272 0 5.36 4.102 5.447 4.277a.498.498 0 0 1-.021.486M19 10.5a.5.5 0 0 0-.5.5v2a.5.5 0 0 0 1 0v-2a.5.5 0 0 0-.5-.5M17 10.5a.5.5 0 0 0-.5.5v2a.5.5 0 0 0 1 0v-2a.5.5 0 0 0-.5-.5" fill="#642116"/></g></svg>