<svg xmlns="http://www.w3.org/2000/svg" viewBox="0 0 45 45"><defs><clipPath id="a"><path d="M0 36h36V0H0v36z"/></clipPath></defs><g clip-path="url(#a)" transform="matrix(1.25 0 0 -1.25 0 45)"><path d="M30 14c-3 0-7-8-7-10 0-3 2-4 2-4h11v10s-4 4-6 4M6 14c3 0 7-8 7-10 0-3-2-4-2-4H0v10s4 4 6 4" fill="#2a6797"/><path d="M25 25a2 2 0 1 1-4 0v7.277c.596.347 1 .985 1 1.723a2 2 0 1 1-4 0 2 2 0 1 1-4 0c0-.738.405-1.376 1-1.723V25a2 2 0 1 1-4 0l-1-11.526V9h5V8h6v1h5v4.474L25 25z" fill="#e2c196"/><path d="M24 20l-1 12a2 2 0 1 1-4 0V12c0-6 6-9 6-9s6 4 6 9l-7 8zM15 34a2 2 0 0 1-2-2l-1-12-7-8c0-5 6-9 6-9s6 3 6 9v20a2 2 0 0 1-2 2" fill="#f3d2a2"/></g></svg>