<svg xmlns="http://www.w3.org/2000/svg" viewBox="0 0 45 45"><defs><clipPath id="a"><path d="M0 0h36v36H0V0z"/></clipPath></defs><g clip-path="url(#a)" transform="matrix(1.25 0 0 -1.25 0 45)"><path d="M36 29c0 4.939-6.772 4.457-9.169 4.132C24.398 34.921 21.444 36 18 36c-3.438 0-6.388-1.081-8.818-2.869C6.797 33.456 0 33.948 0 29c0-2.891 1.563-4.732 2.433-5.533A26.05 26.05 0 0 1 1 15C1 5.059 11 2 18 2s17 3 17 13c0 2.835-.483 5.751-1.426 8.473C34.445 24.278 36 26.117 36 29" fill="#bf6952"/><path d="M30 22a7 7 0 0 1-7 7 6.98 6.98 0 0 1-5-2.105A6.977 6.977 0 0 1 13 29a7 7 0 0 1-7-7c0-3.777 2.993-6.846 6.735-6.986A7.977 7.977 0 0 1 10 9a8 8 0 0 1 8-8 8 8 0 0 1 8 8c0 2.4-1.061 4.547-2.734 6.014A6.993 6.993 0 0 1 30 22" fill="#d79e84"/><path d="M23.426 7.263A.503.503 0 0 1 23 7.5H13a.5.5 0 0 1-.447-.723C12.64 6.602 14.729 2.5 18 2.5c3.272 0 5.36 4.102 5.447 4.277a.498.498 0 0 1-.021.486M19 10.5a.5.5 0 0 0-.5.5v2a.5.5 0 0 0 1 0v-2a.5.5 0 0 0-.5-.5M17 10.5a.5.5 0 0 0-.5.5v2a.5.5 0 0 0 1 0v-2a.5.5 0 0 0-.5-.5" fill="#642116"/><path d="M15 20c0-1.657-.895-3-2-3-1.104 0-2 1.343-2 3s.896 3 2 3c1.105 0 2-1.343 2-3M25 20c0-1.657-.895-3-2-3-1.104 0-2 1.343-2 3s.896 3 2 3c1.105 0 2-1.343 2-3" fill="#292f33"/><path d="M30 20L28 0h8l-1 20h-5z" fill="#bf6952"/><path d="M32 35c-.905 0-1.718-.368-2.348-1.064-2.278-2.518-1.743-9.038-1.652-9.989.004-.295.04-1.732.405-3.19C29.182 17.652 30.788 17 32 17c3.123 0 3.978 1.912 4 2.959.021.322.187 2.878.071 5.778-.172 4.308-.846 7.038-2.064 8.346-.559.6-1.253.917-2.007.917" fill="#bf6952"/><path d="M32 34c4 0 3-14 3-14s0-2-3-2-3 6-3 6-1 10 3 10" fill="#d79e84"/><path d="M32.999 28.5a.5.5 0 0 0-.489.404c-.206 1.047-.829 2.596-1.51 2.596h-2a.5.5 0 0 0 0 1h2c1.774 0 2.423-3.056 2.491-3.404a.5.5 0 0 0-.492-.596M6 20L8 0H0l1 20h5z" fill="#bf6952"/><path d="M4 35c-.754 0-1.448-.317-2.007-.917C.775 32.775.101 30.045-.071 25.737c-.116-2.9.05-5.456.071-5.778C.022 18.912.877 17 4 17c1.212 0 2.818.652 3.595 3.757.365 1.458.401 2.895.405 3.19.091.951.626 7.471-1.652 9.989C5.718 34.632 4.905 35 4 35" fill="#bf6952"/><path d="M4 34c4 0 3-10 3-10s0-6-3-6-3 2-3 2-1 14 3 14" fill="#d79e84"/><path d="M3 28.5a.5.5 0 0 0-.491.596c.069.348.717 3.404 2.492 3.404h2a.5.5 0 0 0 0-1H5c-.75 0-1.351-1.783-1.51-2.596A.5.5 0 0 0 3 28.5" fill="#bf6952"/></g></svg>