<svg xmlns="http://www.w3.org/2000/svg" viewBox="0 0 45 45"><defs><clipPath id="a"><path d="M0 36h36V0H0v36z"/></clipPath></defs><g clip-path="url(#a)" transform="matrix(1.25 0 0 -1.25 0 45)"><path d="M19 32c-1.656 0-3.221-.376-4.629-1.032C9.695 30.644 6 26.758 6 22c0-3.218 1.694-6.032 4.233-7.624C12.241 11.723 15.415 10 19 10c6.075 0 11 4.925 11 11s-4.925 11-11 11" fill="#ffe51e"/><path d="M27 14H9s-9 0-9-7c0-3.156 4-7 4-7h28s4 3.844 4 7c0 7-9 7-9 7" fill="#4289c1"/><path d="M21 8a3 3 0 1 0-6 0 3 3 0 0 0 6 0" fill="#c68f6a"/><path d="M14 25s-.003-5.308-5-5.936V15a9 9 0 0 1 9-9 9 9 0 0 1 9 9v3.019C15.89 18.395 14 25 14 25M17 2l-5 1-2 1H7L6 0h11c1 0 1 1 1 1 0 .553-1 1-1 1M26 4l-2-1-5-1s-1-.447-1-1c0 0 0-1 1-1h11l-1 4h-3z" fill="#f3d2a2"/><path d="M22 14a1 1 0 0 0-1 1v1a1 1 0 1 0 2 0v-1a1 1 0 0 0-1-1M14 14a1 1 0 0 0-1 1v1a1 1 0 1 0 2 0v-1a1 1 0 0 0-1-1M19 9.5h-2a.5.5 0 0 0 0 1h2a.5.5 0 0 0 0-1" fill="#662113"/><path d="M5.499 28a.996.996 0 0 0-.6.2l-4 3a1 1 0 0 0 1.2 1.6l4-3a1 1 0 0 0-.6-1.8M8.5 31a1 1 0 0 0-.832.445l-2 3a1 1 0 0 0 1.664 1.11l2-3A1 1 0 0 0 8.5 31M30.5 28a1 1 0 0 0-.601 1.8l4 3a1 1 0 1 0 1.2-1.6l-4-3a.994.994 0 0 0-.598-.2M27.499 31a1 1 0 0 0-.831 1.555l2 3a1 1 0 1 0 1.664-1.11l-2-3a.998.998 0 0 0-.833-.445" fill="#5dadec"/></g></svg>