<svg xmlns="http://www.w3.org/2000/svg" viewBox="0 0 45 45"><defs><clipPath id="a"><path d="M0 36h36V0H0v36z"/></clipPath></defs><g clip-path="url(#a)" transform="matrix(1.25 0 0 -1.25 0 45)"><path d="M19 36c-1.721 0-3.343-.406-4.794-1.111A6.944 6.944 0 0 1 13 35a7 7 0 0 1-7-7V16h.018C6.201 9.533 11.489 4.344 18 4.344c6.511 0 11.799 5.189 11.982 11.656H30v9c0 6.075-4.925 11-11 11" fill="#ffe51e"/><path d="M27 9H9a4 4 0 0 1-4-4V0h26v5a4 4 0 0 1-4 4" fill="#9268ca"/><path d="M15 14V8a3 3 0 1 1 6 0v6h-6z" fill="#f3d2a2"/><path d="M9 31V19a9 9 0 0 1 9-9 9 9 0 0 1 9 9v12H9z" fill="#f3d2a2"/><path d="M27.999 31L26 32H8v-7c6 0 6 6 6 6s2-7 14-7v7h-.001z" fill="#ffe51e"/><path d="M10 0H9v4h1V0zM27 0h-1v4h1V0z" fill="#7450a8"/><path d="M19 13a1 1 0 1 0-1.998-.002A1 1 0 0 0 19 13" fill="#df1f32"/><path d="M14 20a1 1 0 0 0-1 1v1a1 1 0 0 0 2 0v-1a1 1 0 0 0-1-1M22 20a1 1 0 0 0-1 1v1a1 1 0 1 0 2 0v-1a1 1 0 0 0-1-1" fill="#662113"/><path d="M19 16.5h-2a.5.5 0 0 0 0 1h2a.5.5 0 0 0 0-1" fill="#c1694f"/></g></svg>