<svg xmlns="http://www.w3.org/2000/svg" viewBox="0 0 45 45"><defs><clipPath id="a"><path d="M0 36h36V0H0v36z"/></clipPath></defs><path d="M3.75 45h10V32.5h-10V45zM31.25 45h10V32.5h-10V45z" fill="#f3d2a2"/><g clip-path="url(#a)" transform="matrix(1.25 0 0 -1.25 0 45)"><path d="M33 7.28s-3-2-8-1v5h8v-4zM3 7.28s3-2 8-1v5H3v-4z" fill="#e2c196"/><path d="M12 10H4v8h8v-8zM32 10h-8v8h8v-8z" fill="#d2a077"/><path d="M.373 24.165S.376 25.39 1.6 25.387c1.226-.004 1.222-1.23 1.222-1.23l-.018-5.683c.194.09.399.17.612.24l.025 7.89s.005 1.225 1.227 1.22c1.225-.002 1.222-1.228 1.222-1.228l-.022-7.42c.199.017.404.032.61.04l.028 8.603s.003 1.225 1.228 1.22c1.225-.004 1.22-1.228 1.22-1.228l-.028-8.601c.21-.011.41-.033.614-.051l.025 8.038s.005 1.225 1.227 1.22c1.225-.003 1.219-1.227 1.219-1.227l-.024-8.501-.003-.681v-.611c-3.674.009-6.133-3.042-6.144-6.104 0-.612.612-.616.612-.616.01 3.678 2.467 6.115 6.142 6.105l1.8 4.188s.395 1.158 1.556.762c1.158-.392.765-1.553.765-1.553l-.893-3.104c-.354-1.235-.684-2.477-.86-3.745A7.353 7.353 0 0 0 7.665 7C3.609 7.017.329 10.315.342 14.37c0 .214.014.419.034.61l-.032.005.029 9.18zM35.617 24.165s-.003 1.225-1.227 1.222c-1.226-.004-1.222-1.23-1.222-1.23l.018-5.683c-.194.09-.399.17-.612.24l-.025 7.89s-.004 1.225-1.227 1.22c-1.225-.002-1.222-1.228-1.222-1.228l.022-7.42c-.198.017-.403.032-.61.04l-.028 8.603s-.004 1.225-1.228 1.22c-1.225-.004-1.22-1.228-1.22-1.228l.028-8.601c-.21-.011-.412-.033-.614-.051l-.025 8.038s-.005 1.225-1.228 1.22c-1.224-.003-1.219-1.227-1.219-1.227l.025-8.501.003-.681v-.611c3.674.009 6.132-3.042 6.144-6.104 0-.612-.612-.616-.612-.616-.01 3.678-2.468 6.115-6.142 6.105l-1.8 4.188s-.395 1.158-1.556.762c-1.157-.392-.765-1.553-.765-1.553l.893-3.104c.353-1.235.684-2.477.86-3.745A7.353 7.353 0 0 1 28.325 7c4.055.017 7.336 3.315 7.322 7.37a5.887 5.887 0 0 1-.034.61l.032.005-.029 9.18z" fill="#f3d2a2"/><path d="M23.541 29.541a1 1 0 0 0-.79 1.611l2.979 3.855a1 1 0 0 0 1.582-1.222l-2.979-3.855a.996.996 0 0 0-.792-.389M12.521 29.541a.999.999 0 0 0-.792.39L8.75 33.785a1 1 0 0 0 1.583 1.223l2.979-3.856a1.001 1.001 0 0 0-.791-1.61M18 30a1 1 0 0 0-1 1v4a1 1 0 0 0 2 0v-4a1 1 0 0 0-1-1" fill="#ffac33"/></g></svg>