<svg xmlns="http://www.w3.org/2000/svg" viewBox="0 0 45 45"><defs><clipPath id="a"><path d="M0 36h36V0H0v36z"/></clipPath></defs><path d="M16.25 23.75L2.5 45h40L28.75 23.75h-12.5z" fill="#a7a9ac"/><path d="M18.75 23.75L6.25 45h32.5l-12.5-21.25h-7.5z" fill="#58595b"/><path d="M21.25 23.75L10 45h25L23.75 23.75h-2.5z" fill="#808285"/><g clip-path="url(#a)" transform="matrix(1.25 0 0 -1.25 0 45)"><path d="M28 1a1 1 0 0 0-1-1H9a1 1 0 1 0 0 2h18a1 1 0 0 0 1-1M26 5a1 1 0 0 0-1-1H11a1 1 0 1 0 0 2h14a1 1 0 0 0 1-1M24 9a1 1 0 0 0-1-1H13a1 1 0 1 0 0 2h10a1 1 0 0 0 1-1" fill="#a7a9ac"/><path d="M9.881 12.18c1.125-1.226 2.617-2.18 4.12-2.18h8c1.5 0 2.993.955 4.118 2.18l-2.549 3.938C22.211 16.02 20.422 16 18 16c-2.466 0-4.274-.023-5.642.008L9.881 12.18z" fill="#58595b"/><path d="M19 34a1 1 0 0 0-2 0v1a1 1 0 0 0 2 0v-1z" fill="#414042"/><path d="M22 32a2 2 0 0 0-2-2h-4a2 2 0 0 0 0 4h4a2 2 0 0 0 2-2" fill="#6d6e71"/><path d="M28 18c0-2.209-3.791-5-6-5h-8c-2.209 0-6 2.791-6 5v11a4 4 0 0 0 4 4h12a4 4 0 0 0 4-4V18z" fill="#d1d3d4"/><path d="M25 20a4 4 0 0 0-4-4h-6a4 4 0 0 0-4 4v5a4 4 0 0 0 4 4h6a4 4 0 0 0 4-4v-5z" fill="#808285"/><path d="M15 21h6a4 4 0 0 1 4 4v2H11v-2a4 4 0 0 1 4-4" fill="#55acee"/><path d="M18 16c-7.001 0-8.754 1.801-10 3.242V18c0-2.209 2.999-6 6-6h8c3 0 6 3.791 6 6v1.891C26.754 18.161 25 16 18 16" fill="#5c913b"/><path d="M15 18.5a1.5 1.5 0 1 0-3.001.001A1.5 1.5 0 0 0 15 18.5M24 18.5a1.5 1.5 0 1 0-3.001.001A1.5 1.5 0 0 0 24 18.5" fill="#ffd983"/><path d="M25 27v2a2 2 0 0 1-2 2H13a2 2 0 0 1-2-2v-2h14z" fill="#292f33"/><path d="M21 29a1 1 0 0 0-1-1h-4a1 1 0 0 0 0 2h4a1 1 0 0 0 1-1" fill="#6d6e71"/></g></svg>