<svg xmlns="http://www.w3.org/2000/svg" viewBox="0 0 45 45"><defs><clipPath id="a"><path d="M0 36h36V0H0v36z"/></clipPath></defs><path d="M0 45h45v-2.5H0V45z" fill="#939598"/><g clip-path="url(#a)" transform="matrix(1.25 0 0 -1.25 0 45)"><path d="M5 3.936l31 .066V30H17c-6 0-7-3-7-3S5 14.003 5 12.003V3.936z" fill="#d1d3d4"/><path d="M14 6a1 1 0 0 0-1-1H5a1 1 0 0 0-1 1v2a1 1 0 0 0 1 1h8a1 1 0 0 0 1-1V6z" fill="#d1d3d4"/><path d="M36 1H4.527c-.531 0-1.136.671-1.353 1.5l-.782 3C2.175 6.329 3 7 4 7h32V1z" fill="#f4900c"/><path d="M36 26H22.007c-1.987 0-3.907-1.791-4.286-4l-1.033-6c-.38-2.209 1.103-4 3.312-4h16v14z" fill="#414042"/><path d="M36 24H23.095c-2.095 0-2.791-1.279-3.062-2.857l-.737-4.286C19.024 15.279 19.422 14 21 14h15v10z" fill="#3b88c3"/><path d="M17 30c-6 0-7-3-7-3S5.008 14.021 5 12.006c2.448.036 4.116.344 5 2.995 1 3 2 7 3 9C14 26 15 27 18 27c2.493 0 3.592 1.386 3.896 3H17z" fill="#414042"/><path d="M9 18c.944 2.832 3.663 7.442.6 7.95-.841-2.222-2.807-7.49-3.877-10.95H6s2 0 3 3" fill="#55acee"/><path d="M9 10a1 1 0 0 0-1-1H6a1 1 0 1 0 0 2h2a1 1 0 0 0 1-1" fill="#dd2e44"/></g></svg>