<svg xmlns="http://www.w3.org/2000/svg" viewBox="0 0 45 45"><defs><clipPath id="a"><path d="M0 36h36V0H0v36z"/></clipPath></defs><path d="M17.5 45H20V8.75h-2.5V45z" fill="#6d6e71"/><path d="M22.5 26.25h-3.75v-2.5h3.75v2.5zM22.5 18.75h-3.75v-2.5h3.75v2.5z" fill="#6d6e71"/><g clip-path="url(#a)" transform="matrix(1.25 0 0 -1.25 0 45)"><path d="M29 12a1 1 0 0 0-1-1h-9a1 1 0 0 0-1 1v14a1 1 0 0 0 1 1h9a1 1 0 0 0 1-1V12z" fill="#bcbec0"/><path d="M29 23v3a1 1 0 0 1-1 1h-9a1 1 0 0 1-1-1v-3h11z" fill="#be1931"/><path d="M21 2H9L8 1V0h14v1l-1 1zM19 4h-8l-1-1V2h10v1l-1 1z" fill="#6d6e71"/><path d="M11 32a4 4 0 1 0 8 0 4 4 0 0 0-8 0" fill="#be1931"/><path d="M23 20h-3v3h3v-3z" fill="#808285"/><path d="M23 16h-3v3h3v-3zM23 12h-3v3h3v-3z" fill="#f4900c"/><path d="M27 20h-3v3h3v-3zM27 16h-3v3h3v-3z" fill="#808285"/><path d="M27 12h-3v3h3v-3z" fill="#f4900c"/><path d="M17 30h-4v4h4v-4zM27 24h-7v2h7v-2z" fill="#dd2e44"/></g></svg>