<svg xmlns="http://www.w3.org/2000/svg" viewBox="0 0 45 45"><defs><clipPath id="a"><path d="M0 36h36V0H0v36z"/></clipPath></defs><path d="M0 45h45v-2.5H0V45z" fill="#939598"/><path d="M43.75 40H7.5v-6.25h36.25V40z" fill="#231f20"/><g clip-path="url(#a)" transform="matrix(1.25 0 0 -1.25 0 45)"><path d="M3.999 4a3 3 0 1 0 6 0 3 3 0 0 0-6 0M9.999 4a3 3 0 1 0 6 0 3 3 0 0 0-6 0" fill="#58595b"/><path d="M5.499 4a1.5 1.5 0 1 0 3 0 1.5 1.5 0 0 0-3 0M11.499 4c0 .83.671 1.5 1.5 1.5s1.5-.67 1.5-1.5-.671-1.5-1.5-1.5-1.5.67-1.5 1.5" fill="#a0041e"/><path d="M5 3H1c-1 0-1.5.5 0 2l4 4c1 1 2 2.001 2 0V5c0-2-.001-2-2-2" fill="#dd2e44"/><path d="M8 16c0-3.314-1.343-6-3-6s-3 2.686-3 6 1.343 6.001 3 6.001S8 19.314 8 16" fill="#231f20"/><path d="M11 21H7l-2 8h8l-2-8z" fill="#6d6e71"/><path d="M26 11a2 2 0 0 0-2-2H6a2 2 0 0 0-2 2v10a2 2 0 0 0 2 2h18a2 2 0 0 0 2-2V11z" fill="#414042"/><path d="M13 10a1 1 0 1 0-2 0v13a1 1 0 0 0 2 0V10zM19 10a1 1 0 1 0-2 0v13a1 1 0 1 0 2 0V10z" fill="#c1694f"/><path d="M36 10a1 1 0 0 0-1-1H7a1 1 0 1 0 0 2h28a1 1 0 0 0 1-1" fill="#808285"/><path d="M25.999 5a4 4 0 1 0 8 0 4 4 0 0 0-8 0" fill="#58595b"/><path d="M17.999 5a4 4 0 1 0 8 0 4 4 0 0 0-8 0" fill="#58595b"/><path d="M27.999 5a2 2 0 1 0 3.999.001A2 2 0 0 0 27.999 5M19.999 5a2 2 0 1 0 3.999.001A2 2 0 0 0 19.999 5" fill="#a0041e"/><path d="M12 33H6a1 1 0 0 1-1-1v-3h8v3a1 1 0 0 1-1 1" fill="#414042"/><path d="M35 29H23V11h12v18z" fill="#be1931"/><path d="M36 30a1 1 0 0 0-1-1H23a1 1 0 1 0 0 2h12a1 1 0 0 0 1-1" fill="#a0041e"/><path d="M33 13h-8v5h8v-5z" fill="#ea596e"/><path d="M30 4h-8c-.127 0-.253.024-.371.071L16.807 6H10a1 1 0 1 0 0 2h6.999c.128 0 .254-.024.372-.071L22.192 6H30a1 1 0 1 0 0-2" fill="#f4900c"/><path d="M33 26a1 1 0 0 1-1 1h-6a1 1 0 0 1-1-1v-5a1 1 0 0 1 1-1h6a1 1 0 0 1 1 1v5z" fill="#55acee"/></g></svg>