<svg xmlns="http://www.w3.org/2000/svg" viewBox="0 0 45 45"><defs><clipPath id="a"><path d="M0 36h36V0H0v36z"/></clipPath></defs><g clip-path="url(#a)" transform="matrix(1.25 0 0 -1.25 0 45)"><path d="M36 18c0-9.941-8.059-18-18-18S0 8.059 0 18s8.059 18 18 18 18-8.059 18-18" fill="#292f33"/><path d="M8.896 2.491c.7-.412 1.42-.79 2.177-1.106L17.65 16H16.23L8.895 2.491zM19.77 16h-1.42l6.576-14.615c.756.316 1.478.694 2.178 1.106L19.77 16z" fill="#808285"/><path d="M13.999 10h-2V8h2v2zM24 10h-2V8h2v2z" fill="#58595b"/><path d="M26 11a2 2 0 0 0-2-2H12a2 2 0 0 0-2 2v2a2 2 0 0 0 2 2h12a2 2 0 0 0 2-2v-2z" fill="#a7a9ac"/><path d="M24.363 30H11.636A3.636 3.636 0 0 1 8 26.364V13a2 2 0 0 1 2-2h16a2 2 0 0 1 2 2v13.364A3.636 3.636 0 0 1 24.363 30" fill="#d1d3d4"/><path d="M8 17v-4a2 2 0 0 1 2-2h16a2 2 0 0 1 2 2v8H8v-4z" fill="#dd2e44"/><path d="M26 19a2 2 0 0 0-2-2H12a2 2 0 0 0-2 2v7a2 2 0 0 0 2 2h12a2 2 0 0 0 2-2v-7z" fill="#58595b"/><path d="M24 20a1 1 0 0 0-1-1H13a1 1 0 0 0-1 1v5a1 1 0 0 0 1 1h10a1 1 0 0 0 1-1v-5z" fill="#55acee"/><path d="M14 13h-4v2h4v-2zM26 13h-4v2h4v-2z" fill="#ffd983"/><path d="M20 27a1 1 0 0 0-1-1h-2a1 1 0 0 0 0 2h2a1 1 0 0 0 1-1" fill="#808285"/></g></svg>