<svg xmlns="http://www.w3.org/2000/svg" viewBox="0 0 45 45"><defs><clipPath id="a"><path d="M0 36h36V0H0v36z"/></clipPath></defs><path d="M0 45h45v-2.5H0V45z" fill="#939598"/><g clip-path="url(#a)" transform="matrix(1.25 0 0 -1.25 0 45)"><path d="M10 4a3 3 0 1 1-6 0 3 3 0 0 1 6 0" fill="#58595b"/><path d="M9 4a2 2 0 1 1-4 0 2 2 0 0 1 4 0" fill="#292f33"/><path d="M32 4a3 3 0 1 1-6 0 3 3 0 0 1 6 0" fill="#58595b"/><path d="M31 4a2 2 0 1 1-4 0 2 2 0 0 1 4 0" fill="#292f33"/><path d="M34 34H2a1 1 0 0 0 0 2h32a1 1 0 1 0 0-2" fill="#e6e7e8"/><path d="M17.5 27.915l-3.003 3.003L17.5 33.32l3.003-2.403-3.003-3.003zm5.499 3.14a1.006 1.006 0 0 1-.373.727l-3.683 2.945a.98.98 0 0 1-.162.898.987.987 0 0 1-1.281.22.987.987 0 0 1-1.281-.22.98.98 0 0 1-.162-.898l-3.681-2.945a.998.998 0 0 1-.083-1.488l3.835-3.835A.987.987 0 0 1 17 25c.176 0 .344.063.5.155A.991.991 0 0 1 18 25a.987.987 0 0 1 .872 1.458l3.836 3.835a.998.998 0 0 1 .29.762" fill="#66757f"/><path d="M30 26a2 2 0 0 0-2-2H8a2 2 0 0 0 0 4h20a2 2 0 0 0 2-2" fill="#bcbec0"/><path d="M36 14a4 4 0 0 0-4-4H4a4 4 0 0 0-4 4v8a4 4 0 0 0 4 4h28a4 4 0 0 0 4-4v-8zM36 8H0V4h36v4z" fill="#e6e7e8"/><path d="M36 22H0V8h36v14z" fill="#be1931"/><path d="M36 22H0V12h6V6h7v6h10V6h7v6h6v10z" fill="#dd2e44"/><path d="M2 20H0V10h2a2 2 0 0 1 2 2v6a2 2 0 0 1-2 2M36 20h-2a2 2 0 0 1-2-2v-6a2 2 0 0 1 2-2h2v10zM21 14a1 1 0 0 0-1-1h-3.999A1 1 0 0 0 15 14v4a1 1 0 0 0 1.001 1H20a1 1 0 0 0 1-1v-4zM12 13a1 1 0 0 0-1-1H8a1 1 0 0 0-1 1v5a1 1 0 0 0 1 1h3a1 1 0 0 0 1-1v-5zM29 13a1 1 0 0 0-1-1h-3a1 1 0 0 0-1 1v5a1 1 0 0 0 1 1h3a1 1 0 0 0 1-1v-5z" fill="#55acee"/><path d="M36 6H0v2h36V6z" fill="#a0041e"/></g></svg>