<svg xmlns="http://www.w3.org/2000/svg" viewBox="0 0 45 45"><defs><clipPath id="a"><path d="M0 36h36V0H0v36z"/></clipPath></defs><g clip-path="url(#a)" transform="matrix(1.25 0 0 -1.25 0 45)"><path d="M11 2a2 2 0 0 0-2-2H7a2 2 0 0 0-2 2v7a2 2 0 0 0 2 2h2a2 2 0 0 0 2-2V2zM31 2a2 2 0 0 0-2-2h-2a2 2 0 0 0-2 2v7a2 2 0 0 0 2 2h2a2 2 0 0 0 2-2V2z" fill="#292f33"/><path d="M3 19a1 1 0 0 0-1-1H1a1 1 0 0 0-1 1v7a1 1 0 0 0 1 1h1a1 1 0 0 0 1-1v-7zM36 19a1 1 0 0 0-1-1h-1a1 1 0 0 0-1 1v7a1 1 0 0 0 1 1h1a1 1 0 0 0 1-1v-7z" fill="#99aab5"/><path d="M35 25a1 1 0 0 0-1-1H2a1 1 0 0 0 0 2h32a1 1 0 0 0 1-1M35 21a1 1 0 0 0-1-1H2a1 1 0 1 0 0 2h32a1 1 0 0 0 1-1" fill="#99aab5"/><path d="M24 34a2 2 0 0 0-2-2h-8a2 2 0 0 0 0 4h8a2 2 0 0 0 2-2" fill="#ccd6dd"/><path d="M28 34H8a4 4 0 0 1-4-4V4h28v26a4 4 0 0 1-4 4" fill="#ccd6dd"/><path d="M32 4H4v16h28V4z" fill="#ffcc4d"/><path d="M33 4a1 1 0 0 0-1-1H4a1 1 0 0 0-1 1v1a1 1 0 0 0 1 1h28a1 1 0 0 0 1-1V4zM32 19a3 3 0 0 0-3-3H7a3 3 0 0 0-3 3v7a3 3 0 0 0 3 3h22a3 3 0 0 0 3-3v-7z" fill="#66757f"/><path d="M30 20a2 2 0 0 0-2-2H8a2 2 0 0 0-2 2v5a2 2 0 0 0 2 2h20a2 2 0 0 0 2-2v-5z" fill="#88c9f9"/><path d="M32 6H4v5h28V6z" fill="#ffac33"/><path d="M12 8H6v3h6V8zM30 8h-6v3h6V8z" fill="#fff"/><path d="M6 8H4v3h2V8zM32 8h-2v3h2V8z" fill="#dd2e44"/><path d="M22 8h-8v3h8V8z" fill="#66757f"/><path d="M22 32.5a1.5 1.5 0 0 0-1.5-1.5h-5a1.5 1.5 0 1 0 0 3h5a1.5 1.5 0 0 0 1.5-1.5" fill="#292f33"/></g></svg>