<svg xmlns="http://www.w3.org/2000/svg" viewBox="0 0 45 45"><defs><clipPath id="a"><path d="M0 36h36V0H0v36z"/></clipPath></defs><path d="M16.25 23.75L2.5 45h40L28.75 23.75h-12.5z" fill="#a7a9ac"/><path d="M18.75 23.75L6.25 45h32.5l-12.5-21.25h-7.5z" fill="#58595b"/><path d="M21.25 23.75L10 45h25L23.75 23.75h-2.5z" fill="#808285"/><g clip-path="url(#a)" transform="matrix(1.25 0 0 -1.25 0 45)"><path d="M28 1a1 1 0 0 0-1-1H9a1 1 0 1 0 0 2h18a1 1 0 0 0 1-1M26 5a1 1 0 0 0-1-1H11a1 1 0 1 0 0 2h14a1 1 0 0 0 1-1" fill="#a7a9ac"/><path d="M27.076 10.7L23 17H13l-4.076-6.3C10.812 8.183 13.722 6.001 18 6.001c4.277 0 7.187 2.182 9.076 4.7" fill="#58595b"/><path d="M18 36c-9 0-12-3-12-9v-7.999C6 17.001 9 8 18 8s12 9.001 12 11.001V27c0 6-3 9-12 9" fill="#a7a9ac"/><path d="M8 25c0 9 4.477 10 10 10s10-1 10-10c0-6-4.477-10.998-10-10.998S8 19 8 25" fill="#e6e7e8"/><path d="M18 14.001c1.642 0 3.186.45 4.553 1.227C21.77 16.271 20.03 17 18 17s-3.769-.729-4.552-1.772c1.366-.777 2.911-1.227 4.552-1.227" fill="#ffac33"/><path d="M19 31.003v-4.965c3.488.232 6 1.62 6 2.463v1.666c0 .792-3.692.838-6 .836M17 31.003c-2.308.002-6-.044-6-.836V28.5c0-.843 2.512-2.231 6-2.463v4.965z" fill="#55acee"/><path d="M6 26s0-3 4-9c0 0-4 2-4 6v3zM30 26s0-3-4-9c0 0 4 2 4 6v3z" fill="#269"/></g></svg>