<svg xmlns="http://www.w3.org/2000/svg" viewBox="0 0 45 45"><defs><clipPath id="a"><path d="M0 36h36V0H0v36z"/></clipPath></defs><g clip-path="url(#a)" transform="matrix(1.25 0 0 -1.25 0 45)"><path d="M0 15V8a3 3 0 0 1 3-3h30a3 3 0 0 1 3 3v7H0z" fill="#808285"/><path d="M36 14v9c0 1.657-3.343 3-5 3H11c-8 0-11-2.343-11-4v-8h36z" fill="#ccd6dd"/><path d="M36 11H0v3h36v-3z" fill="#939598"/><path d="M7 11a5.998 5.998 0 0 1-5.95-5.263A2.974 2.974 0 0 1 3 5h10a6 6 0 0 1-6 6M34.95 5.737A5.998 5.998 0 0 1 23 5h10c.75 0 1.425.284 1.95.737" fill="#bcbec0"/><path d="M11 5a4 4 0 1 0-8 0 4 4 0 0 0 8 0"/><path d="M9 5a2 2 0 1 0-4 0 2 2 0 0 0 4 0" fill="#99aab5"/><path d="M33 5a4 4 0 1 0-8 0 4 4 0 0 0 8 0"/><path d="M31 5a2 2 0 1 0-3.999-.001A2 2 0 0 0 31 5" fill="#99aab5"/><path d="M1 9H0v2h1V9zM36 11h-1v2h1v-2z" fill="#f4900c"/><path d="M36 13H1v10h35V13z" fill="#58595b"/><path d="M2 23H.342C.11 22.656 0 22.315 0 22V11h2a2 2 0 0 1 2 2v8a2 2 0 0 1-2 2" fill="#292f33"/><path d="M31 16a1 1 0 0 0-1-1H7a1 1 0 0 0-1 1v4a1 1 0 0 0 1 1h23a1 1 0 0 0 1-1v-4z" fill="#55acee"/><path d="M36 17h-1v-2h1v2z" fill="#ffac33"/><path d="M1 21H0v-8h1a1 1 0 0 1 1 1v6a1 1 0 0 1-1 1" fill="#55acee"/></g></svg>