<svg xmlns="http://www.w3.org/2000/svg" viewBox="0 0 45 45"><defs><clipPath id="a"><path d="M0 36h36V0H0v36z"/></clipPath></defs><g clip-path="url(#a)" transform="matrix(1.25 0 0 -1.25 0 45)"><path d="M1 19l8 7 16-1 1-16-7-8s.002 5.999-6 12c-6 6.001-12 6-12 6" fill="#a0041e"/><path d="M.973 1S.937 8.98 3.958 12C6.978 15.021 15 14.814 15 14.814S14.999 7 11.999 4 .973 1 .973 1" fill="#ffac33"/><path d="M4.999 9a4 4 0 1 0 8 0 4 4 0 0 0-8 0" fill="#ffcc4d"/><path d="M35.999 36s-10 0-22-10c-6-5-6-14-4-16s11-2 16 4c10 12 10 22 10 22" fill="#55acee"/><path d="M26.999 31a3.996 3.996 0 0 1-3.641-2.36c.502.227 1.055.36 1.641.36a4 4 0 0 0 4-4c0-.586-.133-1.139-.359-1.64A3.995 3.995 0 0 1 26.999 31"/><path d="M8 8s0 4 1 5 13.001 10.999 14 10c.999-.999-9.001-13-10.001-14S8 8 8 8" fill="#a0041e"/></g></svg>