<svg xmlns="http://www.w3.org/2000/svg" viewBox="0 0 45 45"><defs><clipPath id="a"><path d="M0 36h36V0H0v36z"/></clipPath></defs><g clip-path="url(#a)" transform="matrix(1.25 0 0 -1.25 0 45)"><path d="M0 14V8a3 3 0 0 1 3-3h30a3 3 0 0 1 3 3v6H0z" fill="#77b255"/><path d="M15 24a1 1 0 0 0-.768 1.64c5.186 6.224 12.326 7.307 12.626 7.35A.97.97 0 0 0 27 33h3a1 1 0 1 0 0-2h-2.919c-.689-.118-6.878-1.318-11.312-6.64A1 1 0 0 0 15 24" fill="#6d6e71"/><path d="M25 23H11v4h14v-4z" fill="#a7a9ac"/><path d="M36 14v8a3 3 0 0 1-3 3H3a3 3 0 0 1-3-3v-8h36z" fill="#e6e7e8"/><path d="M36 12H0v2h36v-2zM7 11a5.998 5.998 0 0 1-5.95-5.263A2.974 2.974 0 0 1 3 5h10a6 6 0 0 1-6 6M34.95 5.737A5.998 5.998 0 0 1 23 5h10c.75 0 1.425.284 1.95.737" fill="#5c913b"/><path d="M11 5a4 4 0 1 0-8 0 4 4 0 0 0 8 0"/><path d="M9 5a2 2 0 1 0-4 0 2 2 0 0 0 4 0" fill="#99aab5"/><path d="M33 5a4 4 0 1 0-8 0 4 4 0 0 0 8 0"/><path d="M31 5a2 2 0 1 0-3.999-.001A2 2 0 0 0 31 5" fill="#99aab5"/><path d="M27 17a1 1 0 0 0-1-1h-3a1 1 0 0 0-1 1v3a1 1 0 0 0 1 1h3a1 1 0 0 0 1-1v-3zM34 17a1 1 0 0 0-1-1h-3a1 1 0 0 0-1 1v3a1 1 0 0 0 1 1h3a1 1 0 0 0 1-1v-3zM13 17a1 1 0 0 0-1-1H9a1 1 0 0 0-1 1v3a1 1 0 0 0 1 1h3a1 1 0 0 0 1-1v-3zM20 17a1 1 0 0 0-1-1h-3a1 1 0 0 0-1 1v3a1 1 0 0 0 1 1h3a1 1 0 0 0 1-1v-3zM5 21H0v-7h5a1 1 0 0 1 1 1v5a1 1 0 0 1-1 1" fill="#55acee"/><path d="M1 9H0v2h1V9z" fill="#ffe8b6"/><path d="M36 9h-1v2h1V9z" fill="#ea596e"/><path d="M36 14h-1v-2h1v2z" fill="#f4abba"/></g></svg>