<svg xmlns="http://www.w3.org/2000/svg" viewBox="0 0 45 45"><defs><clipPath id="a"><path d="M0 36h36V0H0v36z"/></clipPath></defs><path d="M0 45h45v-2.5H0V45z" fill="#939598"/><g clip-path="url(#a)" transform="matrix(1.25 0 0 -1.25 0 45)"><path d="M3 1h33v27S7 27 0 12.001c-2.115-4.531 6-6 6-6L3 1z" fill="#bcbec0"/><path d="M23 18L8 11H-.31C-.894 7.25 6 6 6 6L3 1h33v19.712L23 18z" fill="#3b88c3"/><path d="M14 1l2 3h20V1H14z" fill="#231f20"/><path d="M36 21.858c-4.347-.358-13.388-1.62-19.581-6.044-5.604-4.002-11.877-3.899-16.033-3.829l-.39.006c-.347-.748-.411-1.41-.283-1.998.214-.003.411-.004.64-.008.553-.009 1.155-.019 1.799-.019 4.185 0 10.108.42 15.429 4.221C22.812 17.922 31.034 19.428 36 19.86v2z" fill="#e6e7e8"/><path d="M12 20l3.878 4.93C20.727 26.867 29 27.98 36 27.98v-2c-7 0-18-1.98-24-5.98" fill="#a7a9ac"/><path d="M3.095 16.535c1.672.392 3.617.723 5.44 1.65C18 23 19.008 25.983 19 26c-7 0-12-4-15.905-9.465" fill="#58595b"/><path d="M6 6.001L5.999 6H36v2H1.113C2.988 6.548 6 6.001 6 6.001" fill="#269"/><path d="M3.55 13.855a7.828 7.828 0 0 1 1.59.06c1.642.221 2.913.845 2.84 1.393-.075.541-1.436.803-3.053.594-.649-.63-1.12-1.325-1.378-2.047" fill="#ffe8b6"/></g></svg>