<svg xmlns="http://www.w3.org/2000/svg" viewBox="0 0 45 45"><defs><clipPath id="a"><path d="M0 36h36V0H0v36z"/></clipPath></defs><path d="M12.03 23.75L0 45h35L22.97 23.75H12.03z" fill="#a7a9ac"/><path d="M14.219 23.75L3.28 45h28.437L20.78 23.75H14.22z" fill="#58595b"/><path d="M16.406 23.75L6.562 45h21.876l-9.843-21.25h-2.19z" fill="#808285"/><g clip-path="url(#a)" transform="matrix(1.25 0 0 -1.25 0 45)"><path d="M24 1a1 1 0 0 0-1-1H5a1 1 0 1 0 0 2h18a1 1 0 0 0 1-1M22 5a1 1 0 0 0-1-1H7a1 1 0 1 0 0 2h14a1 1 0 0 0 1-1M20 9a1 1 0 0 0-1-1H9a1 1 0 1 0 0 2h10a1 1 0 0 0 1-1" fill="#a7a9ac"/><path d="M6.896 12.18C7.88 10.954 9.186 10 10.5 10h7c1.314 0 2.62.955 3.605 2.18l-2.231 3.938C17.685 16.02 16.119 16 14 16c-2.157 0-3.74-.023-4.937.008L6.896 12.18z" fill="#58595b"/><path d="M15 33a1 1 0 0 0-2 0v1a1 1 0 0 0 2 0v-1z" fill="#414042"/><path d="M18 31a2 2 0 0 0-2-2h-4a2 2 0 0 0 0 4h4a2 2 0 0 0 2-2" fill="#6d6e71"/><path d="M23 18c0-2.209-3.412-5-5.4-5h-7.2C8.412 13 5 15.791 5 18v10c0 2.209 1.612 4 3.6 4h10.8c1.988 0 3.6-1.791 3.6-4V18z" fill="#d1d3d4"/><path d="M21 20a4 4 0 0 0-4-4h-6a4 4 0 0 0-4 4v5c0 2.209 1.791 3 4 3h6c2.209 0 4-.791 4-3v-5z" fill="#808285"/><path d="M11 21h6a4 4 0 0 1 4 4v1H7v-1a4 4 0 0 1 4-4" fill="#55acee"/><path d="M14 16c-6.3 0-7.878 1.801-9 3.242V18c0-2.209 2.7-6 5.4-6h7.2c2.7 0 5.4 3.791 5.4 6v1.891C21.879 18.161 20.3 16 14 16" fill="#5c913b"/><path d="M11 18.5a1.5 1.5 0 1 0-3.001.001A1.5 1.5 0 0 0 11 18.5M20 18.5a1.5 1.5 0 1 0-3.001.001A1.5 1.5 0 0 0 20 18.5" fill="#ffd983"/><path d="M21 26v2a2 2 0 0 1-2 2H9a2 2 0 0 1-2-2v-2h14z" fill="#292f33"/><path d="M17 28a1 1 0 0 0-1-1h-4a1 1 0 0 0 0 2h4a1 1 0 0 0 1-1" fill="#6d6e71"/><path d="M23 13.06L32 0h4v5h-4l-9 10v-1.94z" fill="#58595b"/><path d="M36 5v10H23l9-10h4z" fill="#a7a9ac"/><path d="M33 12c0-1 0-1-1-1s-1 0-1 1v11a1 1 0 1 0 2 0V12z" fill="#6d6e71"/><path d="M33 19c0-.999 0-1-1-1s-1 .001-1 1v7a1 1 0 1 0 2 0v-7z" fill="#939598"/><path d="M36 25a2 2 0 0 0-2-2h-4a2 2 0 0 0-2 2v2a2 2 0 0 0 2 2h4a2 2 0 0 0 2-2v-2z" fill="#58595b"/><path d="M34 26a1 1 0 0 0-1-1h-2a1 1 0 1 0 0 2h2a1 1 0 0 0 1-1" fill="#939598"/></g></svg>