<svg xmlns="http://www.w3.org/2000/svg" viewBox="0 0 45 45"><defs><clipPath id="a"><path d="M0 36h36V0H0v36z"/></clipPath></defs><path d="M0 45h45v-2.5H0V45z" fill="#939598"/><g clip-path="url(#a)" transform="matrix(1.25 0 0 -1.25 0 45)"><path d="M3 1h33v29H21c-4 0-5-2-5-2l-4-5.999s-12-5-12-10c0-4 6-6 6-6L3 1z" fill="#d1d3d4"/><path d="M14 1l2 3h20V1H14z" fill="#231f20"/><path d="M0 12.001c0-4 6-6 6-6v12.874C3 17 0 14.501 0 12.001M6 6v.001V6z" fill="#3b88c3"/><path d="M6 6L3 1h33v5H6z" fill="#269"/><path d="M20 6l4 6h12V6H20z" fill="#3b88c3"/><path d="M26 28H15.999L12 22.001 11.999 22h10.843c.476 0 1.108.448 1.412 1l2.197 4c.303.552.102 1-.451 1" fill="#55acee"/><path d="M25.902 26l.55 1c.302.552.1 1-.452 1H16l-1.334-2h11.236z" fill="#3b88c3"/></g></svg>