<svg xmlns="http://www.w3.org/2000/svg" viewBox="0 0 45 45"><defs><clipPath id="a"><path d="M0 36h36V0H0v36z"/></clipPath></defs><path d="M22.825 38.75h-2.5V32.5h2.5v6.25zM10.325 32.5h2.5v6.25h-2.5V32.5z" fill="#66757f"/><g clip-path="url(#a)" transform="matrix(1.25 0 0 -1.25 0 45)"><path d="M12.259 33c0-.551-2.686-1-6-1s-6 .449-6 1c0 .553 2.686 1 6 1s6-.447 6-1M26.259 33c0-.551-2.686-1-6-1s-6 .449-6 1c0 .553 2.686 1 6 1s6-.447 6-1" fill="#99aab5"/><path d="M14.26 27h-2v6h2v-6z" fill="#99aab5"/><path d="M15.259 33c0-.551-.896-1-2-1-1.105 0-2 .449-2 1 0 .553.895 1 2 1 1.104 0 2-.447 2-1" fill="#66757f"/><path d="M34.259 26c0 3 0 7-1 7s-3-4-4-6 5-1 5-1" fill="#ffcc4d"/><path d="M34.259 26c0 2.21-8 3-19 3h-2C6.632 29 .509 23.55.509 17.75c0-5.799 3.75-9.75 12.75-9.75s12 4.701 12 10.5c0 .88-.138 1.731-.371 2.55 4.37.95 9.37 2.943 9.37 4.95" fill="#ffcc4d"/><path d="M4.259 23c-2.091-2.918-3.068-7.589 1.213-7.784 4.787-.216 6.787-.216 7.85 2.372 1.365 3.32.937 7.412-.276 8.195-2.32 1.497-6.695.135-8.787-2.783M21.1 23.465C23.259 20 23.17 17.304 19.259 16c-3-1-4 2-3.841 5.535.112 2.484.206 4.196 1.84 4.466 1.448.239 2.528-.427 3.842-2.536" fill="#3b88c3"/><path d="M31.44 28.886c.903-1.273 1.27-2.564.82-2.884-.45-.32-1.547.454-2.45 1.726-.903 1.273-1.271 2.564-.82 2.884.45.32 1.548-.453 2.45-1.726" fill="#99aab5"/><path d="M34.72 24.265c.909-1.28 1.28-2.575.83-2.895-.45-.32-1.553.458-2.46 1.737-.91 1.28-1.28 2.576-.83 2.896.45.32 1.553-.46 2.46-1.738" fill="#99aab5"/><path d="M33.076 26.581a1 1 0 1 0-1.632-1.158 1 1 0 0 0 1.632 1.158" fill="#66757f"/><path d="M25.26 4a2 2 0 0 0-2-2h-20a2 2 0 0 0 0 4h20a2 2 0 0 0 2-2" fill="#99aab5"/></g></svg>