<svg xmlns="http://www.w3.org/2000/svg" viewBox="0 0 45 45"><defs><clipPath id="a"><path d="M0 36h36V0H0v36z"/></clipPath></defs><path d="M0 45h45v-2.5H0V45z" fill="#939598"/><g clip-path="url(#a)" transform="matrix(1.25 0 0 -1.25 0 45)"><path d="M10 4a3 3 0 1 1-6 0 3 3 0 0 1 6 0" fill="#58595b"/><path d="M9 4a2 2 0 1 1-4 0 2 2 0 0 1 4 0" fill="#292f33"/><path d="M32 4a3 3 0 1 1-6 0 3 3 0 0 1 6 0" fill="#58595b"/><path d="M31 4a2 2 0 1 1-4 0 2 2 0 0 1 4 0" fill="#292f33"/><path d="M34 34H2a1 1 0 0 0 0 2h32a1 1 0 1 0 0-2" fill="#e6e7e8"/><path d="M18 25a.997.997 0 0 0-.707.293l-5 5a.998.998 0 0 0 .083 1.488l5 4a1 1 0 0 0 1.249-1.562l-4.128-3.302 4.21-4.21A1 1 0 0 0 18 25" fill="#66757f"/><path d="M17 25a.999.999 0 0 0-.707 1.707l4.21 4.21-4.127 3.302a.999.999 0 1 0 1.248 1.563l5.002-4a.998.998 0 0 0 .082-1.488l-5.001-5a.997.997 0 0 0-.708-.293" fill="#66757f"/><path d="M30 26a2 2 0 0 0-2-2H8a2 2 0 0 0 0 4h20a2 2 0 0 0 2-2" fill="#bcbec0"/><path d="M36 14a4 4 0 0 0-4-4H4a4 4 0 0 0-4 4v8a4 4 0 0 0 4 4h28a4 4 0 0 0 4-4v-8zM36 8H0V4h36v4z" fill="#e6e7e8"/><path d="M36 22H0V8h36v14z" fill="#5c913b"/><path d="M36 12H0v10h36V12z" fill="#5c913b"/><path d="M13 6H6v14h7V6zM30 6h-7v14h7V6z" fill="#3e721d"/><path d="M2 20H0V10h2a2 2 0 0 1 2 2v6a2 2 0 0 1-2 2M36 20h-2a2 2 0 0 1-2-2v-6a2 2 0 0 1 2-2h2v10zM21 14a1 1 0 0 0-1-1h-3.999A1 1 0 0 0 15 14v4a1 1 0 0 0 1.001 1H20a1 1 0 0 0 1-1v-4zM12 13a1 1 0 0 0-1-1H8a1 1 0 0 0-1 1v5a1 1 0 0 0 1 1h3a1 1 0 0 0 1-1v-5zM29 13a1 1 0 0 0-1-1h-3a1 1 0 0 0-1 1v5a1 1 0 0 0 1 1h3a1 1 0 0 0 1-1v-5z" fill="#88c9f9"/><path d="M36 6H0v2h36V6z" fill="#3e721d"/></g></svg>