<svg xmlns="http://www.w3.org/2000/svg" viewBox="0 0 45 45"><defs><clipPath id="a"><path d="M0 36h36V0H0v36z"/></clipPath></defs><path d="M0 35h45v-5H0v5z" fill="#6d6e71"/><path d="M0 32.5h45v-5.001H0V32.5zM7.5 45h5V35h-5v10zM20 45h5V35h-5v10zM32.5 45h5V35h-5v10z" fill="#939598"/><path d="M12.5 37.5h-5v-3.75h5v3.75zM25 37.5h-5v-3.75h5v3.75zM37.5 37.5h-5v-3.75h5v3.75z" fill="#6d6e71"/><g clip-path="url(#a)" transform="matrix(1.25 0 0 -1.25 0 45)"><path d="M36 36h-6a2 2 0 0 1-2-2v-2a2 2 0 0 1 2-2h6v6z" fill="#bcbec0"/><path d="M36 16v-5H18c-3.001 0-7.001 5-7.001 5H36z" fill="#d1d3d4"/><path d="M11 16s.75-.937 1.843-2H36v2H11z" fill="#bcbec0"/><path d="M36 16H10c-3 0-7 3.001-7 6.001C3 27.001 18.999 34 21 34h15V16z" fill="#e6e7e8"/><path d="M3.741 24C3.281 23.314 3 22.64 3 22.001c0-1.656 1.221-3.309 2.816-4.46C21.231 22 36 22.001 36 22.001V24H3.741z" fill="#5c913b"/><path d="M21 32h-5.553c-3.327-1.524-7.344-3.738-9.899-6H21a2 2 0 0 1 2 2v2a2 2 0 0 1-2 2M26 27a1 1 0 1 0-2 0v4a1 1 0 1 0 2 0v-4zM34 27a1 1 0 0 0-1-1h-4a1 1 0 0 0-1 1v4a1 1 0 0 0 1 1h4a1 1 0 0 0 1-1v-4z" fill="#55acee"/></g></svg>