<svg xmlns="http://www.w3.org/2000/svg" viewBox="0 0 45 45"><defs><clipPath id="a"><path d="M0 36h36V0H0v36z"/></clipPath></defs><g clip-path="url(#a)" transform="matrix(1.25 0 0 -1.25 0 45)"><path d="M34 3a2 2 0 0 0-2-2h-3a2 2 0 0 0-2 2v8a2 2 0 0 0 2 2h3a2 2 0 0 0 2-2V3zM9 3a2 2 0 0 0-2-2H4a2 2 0 0 0-2 2v8a2 2 0 0 0 2 2h3a2 2 0 0 0 2-2V3z" fill="#292f33"/><path d="M9 31c4 1 14 1 18 0 3.881-.97 5-11 5-11s2 0 2-4V8s-.119-3.03-4-4c-4-1-7-1-12-1S10 3 6 4c-3.88.97-4 4-4 4v8s0 4 2 4c0 0 1.12 10.03 5 11" fill="#3b88c3"/><path d="M18 21c3.905 0 8.623-.2 12-.561L29 26c-1 3-7 3-11 3S8 29 7 26l-1-5.561C9.377 20.8 14.095 21 18 21" fill="#bbddf5"/><path d="M5 20.5A1.5 1.5 0 0 0 3.5 19h-2a1.5 1.5 0 1 0 0 3h2A1.5 1.5 0 0 0 5 20.5M31 20.5a1.5 1.5 0 0 1 1.5-1.5h2a1.5 1.5 0 1 1 0 3h-2a1.5 1.5 0 0 1-1.5-1.5" fill="#3b88c3"/><path d="M11 13a3 3 0 0 0-3-3H7a3 3 0 1 0 0 6h1a3 3 0 0 0 3-3M32 13a3 3 0 0 0-3-3h-1a3 3 0 0 0 0 6h1a3 3 0 0 0 3-3" fill="#ffcc4d"/><path d="M12.001 14a1 1 0 0 0-.833.445c-1.742 2.614-6.319 3.565-6.365 3.575a1 1 0 0 0 .393 1.96c.221-.043 5.431-1.119 7.636-4.425A1.001 1.001 0 0 0 12.001 14M23.999 14a1 1 0 0 0-.831 1.555c2.204 3.306 7.415 4.382 7.636 4.425a1 1 0 0 0 .393-1.96c-.046-.01-4.623-.961-6.365-3.575a.998.998 0 0 0-.833-.445" fill="#269"/><path d="M18 7c-5.663 0-12.639.225-13.707 1.293A.999.999 0 0 0 5.56 9.829C5.792 9.73 7.845 9 18 9s12.208.73 12.44.829a.999.999 0 0 0 1.267-1.536C30.639 7.225 23.663 7 18 7" fill="#55acee"/><path d="M25 6.5C25 5 21.866 4 18 4s-7 1-7 2.5c0 .828 3.134.5 7 .5s7 .328 7-.5" fill="#269"/></g></svg>