<svg xmlns="http://www.w3.org/2000/svg" viewBox="0 0 45 45"><defs><clipPath id="a"><path d="M0 36h36V0H0v36z"/></clipPath></defs><g clip-path="url(#a)" transform="matrix(1.25 0 0 -1.25 0 45)"><path d="M31 11H11v1a4 4 0 0 1-4 4H4a4 4 0 0 1-4-4V9a4 4 0 0 1 4-4h28a4 4 0 0 1 4 4v2h-5z" fill="#99aab5"/><path d="M10 24H7.146C4 24 3 22 3 22l-3-5.959V11h13v10a3 3 0 0 1-3 3" fill="#ffcc4d"/><path d="M9 16H2l2 4s1 2 3 2h2v-6z" fill="#55acee"/><path d="M10 5a4 4 0 1 0-8 0 4 4 0 0 0 8 0" fill="#292f33"/><path d="M8 5a2 2 0 1 0-4 0 2 2 0 0 0 4 0" fill="#ccd6dd"/><path d="M34 5a4 4 0 1 0-8 0 4 4 0 0 0 8 0" fill="#292f33"/><path d="M32 5a2 2 0 1 0-3.999-.001A2 2 0 0 0 32 5" fill="#ccd6dd"/><path d="M24 5a4 4 0 1 0-8 0 4 4 0 0 0 8 0" fill="#292f33"/><path d="M22 5a2 2 0 1 0-3.999-.001A2 2 0 0 0 22 5" fill="#ccd6dd"/><path d="M32 28H19a4 4 0 0 1-4-4V11h21v13a4 4 0 0 1-4 4" fill="#77b255"/></g></svg>