<svg xmlns="http://www.w3.org/2000/svg" viewBox="0 0 45 45"><defs><clipPath id="a"><path d="M0 36h36V0H0v36z"/></clipPath></defs><g clip-path="url(#a)" transform="matrix(1.25 0 0 -1.25 0 45)"><path d="M35 28H13a1 1 0 0 1 0-2h2v-2h2v2h2v-2h2v2h2v-2h2v2h2v-2h2v2h2v-2h2v2h2a1 1 0 1 1 0 2M36 23a1 1 0 0 0-1-1H13a1 1 0 0 0 0 2h22a1 1 0 0 0 1-1" fill="#ccd6dd"/><path d="M32 22H14s.041 2-2.979 2H5.146C0 24 0 16.041 0 16.041V9a4 4 0 0 1 4-4h28a4 4 0 0 1 4 4v9a4 4 0 0 1-4 4" fill="#dd2e44"/><path d="M34 14H2v-3h32v3z" fill="#f5f8fa"/><path d="M11 5a4 4 0 1 0-8 0 4 4 0 0 0 8 0" fill="#292f33"/><path d="M9 5a2 2 0 1 0-4 0 2 2 0 0 0 4 0" fill="#8899a6"/><path d="M32 5a4 4 0 1 0-8 0 4 4 0 0 0 8 0" fill="#292f33"/><path d="M30 5a2 2 0 1 0-3.999-.001A2 2 0 0 0 30 5" fill="#8899a6"/><path d="M7 16H2s0 6 3 6h2v-6zM12 16H9v6h1c1 0 2-1 2-2v-4z" fill="#55acee"/><path d="M8 25a1 1 0 0 0-1-1H5a1 1 0 0 0 0 2h2a1 1 0 0 0 1-1" fill="#ffac33"/><path d="M10 25a1 1 0 0 0-1-1H7a1 1 0 0 0 0 2h2a1 1 0 0 0 1-1" fill="#3b88c3"/></g></svg>