<svg xmlns="http://www.w3.org/2000/svg" viewBox="0 0 45 45"><defs><clipPath id="a"><path d="M0 36h36V0H0v36z"/></clipPath></defs><g clip-path="url(#a)" transform="matrix(1.25 0 0 -1.25 0 45)"><path d="M32 14s-2 8-5 8H16c-3 0-7-7-7-7s-8-1-8-5V8c0-.09.021-.175.026-.263A1.992 1.992 0 0 1 0 6a2 2 0 0 1 2-2h30a4 4 0 0 1 4 4v2a4 4 0 0 1-4 4" fill="#e1e8ed"/><path d="M1 10V8c0-.09.021-.175.026-.263A1.992 1.992 0 0 1 0 6a2 2 0 0 1 2-2h30a4 4 0 0 1 4 4v2c0 .348-.059.679-.142 1H1.201A2.803 2.803 0 0 1 1 10" fill="#292f33"/><path d="M15.91 4c.055.326.09.658.09 1A6 6 0 0 1 4 5c0-.342.035-.674.09-1h11.82zM32.91 4c.055.326.09.658.09 1a6 6 0 0 1-12 0c0-.342.035-.674.09-1h11.82z" fill="#66757f"/><path d="M14 5a4 4 0 1 0-8 0 4 4 0 0 0 8 0" fill="#292f33"/><path d="M12 5a2 2 0 1 0-3.999-.001A2 2 0 0 0 12 5" fill="#e1e8ed"/><path d="M31 5a4 4 0 1 0-8 0 4 4 0 0 0 8 0" fill="#292f33"/><path d="M29 5a2 2 0 1 0-3.999-.001A2 2 0 0 0 29 5" fill="#e1e8ed"/><path d="M21 23a1 1 0 0 0-1-1h-3a1 1 0 0 0 0 2h3a1 1 0 0 0 1-1" fill="#dd2e44"/><path d="M22 23a1 1 0 0 0-1-1h-2a1 1 0 0 0 0 2h2a1 1 0 0 0 1-1M23 15h7s-2 5-3 5h-4v-5zM21 20h-5c-2 0-5-5-5-5h10v5z" fill="#55acee"/></g></svg>