<svg xmlns="http://www.w3.org/2000/svg" viewBox="0 0 45 45"><defs><clipPath id="a"><path d="M0 36h36V0H0v36z"/></clipPath></defs><path d="M17.5 25h-3.75V13.75h3.75V25z" fill="#ccd6dd"/><g clip-path="url(#a)" transform="matrix(1.25 0 0 -1.25 0 45)"><path d="M24 9.843C24 7.168 22.355 5 20.325 5H4.709C2.68 5 1.221 6.565 1.452 8.494l.624 5.242c.231 1.929 1.992 3.807 3.928 4.199l14.629 3.21C22.496 21.587 24 19.78 24 17.108V9.843z" fill="#77b255"/><path d="M16.535 11.833C16.24 9.717 17.79 8 20 8h9c2.209 0 4 1.717 4 3.833v15.333C33 29.284 31.547 31 29.755 31h-7.303c-1.791 0-3.484-1.716-3.78-3.834l-2.137-15.333z" fill="#292f33"/><path d="M18.245 11c-.135-1.104.65-2 1.755-2h9a2 2 0 0 1 2 2v14c0 1.104-.743 2-1.66 2h-7.473c-.917 0-1.77-.896-1.906-2l-1.716-14z" fill="#bbddf5"/><path d="M33 15H15V5h18v10z" fill="#77b255"/><path d="M33 13H2l1 2h30v-2z" fill="#ffcc4d"/><path d="M12 5a4 4 0 1 0-8 0 4 4 0 0 0 8 0" fill="#292f33"/><path d="M10 5a2 2 0 1 0-4 0 2 2 0 0 0 4 0" fill="#ffcc4d"/><path d="M33 20v-4L23 7l-7 1 3 10 3 2h11z" fill="#77b255"/><path d="M18.222 9.889a8.888 8.888 0 0 0 8.89 8.889A8.888 8.888 0 0 0 36 9.888 8.888 8.888 0 0 0 27.111 1a8.888 8.888 0 0 0-8.889 8.889" fill="#292f33"/><path d="M32.667 9.889a5.556 5.556 0 1 0-11.112 0 5.556 5.556 0 0 0 11.112 0" fill="#ffcc4d"/><path d="M30.444 9.889a3.333 3.333 0 1 0-6.667 0 3.333 3.333 0 1 0 6.667 0" fill="#ffe8b6"/><path d="M32.588 29c-.552 1.187-1.607 2-2.833 2h-7.303c-1.226 0-2.394-.813-3.112-2h13.248z" fill="#77b255"/><path d="M29.333 9.889a2.222 2.222 0 1 0-4.444 0 2.222 2.222 0 0 0 4.444 0M9 5a1 1 0 1 0-2 0 1 1 0 0 0 2 0" fill="#f4900c"/><path d="M14 21h-3v2h3v-2z" fill="#66757f"/><path d="M16 7.25a1.002 1.002 0 0 0-.96 1.284l2 6.75C17.42 17.204 19.187 21 23 21h10a1 1 0 1 0 0-2H23c-3.144 0-4.012-4.154-4.02-4.196l-2.022-6.838a1 1 0 0 0-.957-.716" fill="#5c913b"/><path d="M2.002 7a1 1 0 0 0-.994 1.124l1 8a1 1 0 0 0 1.985-.248l-1-8A1 1 0 0 0 2.002 7" fill="#3e721d"/></g></svg>