<svg xmlns="http://www.w3.org/2000/svg" viewBox="0 0 45 45"><defs><clipPath id="a"><path d="M0 36h36V0H0v36z"/></clipPath></defs><g clip-path="url(#a)" transform="matrix(1.25 0 0 -1.25 0 45)"><path d="M21.377 20.551c.089-.816-.83-1.495-2.053-1.515-1.222-.02-2.094.635-1.947 1.464l.356 2c.148.828.939 1.5 1.767 1.5s1.572-.662 1.661-1.478l.216-1.97z" fill="#ccd6dd"/><path d="M32.246 15h-.135l-.444 3c-.327 2.209-1.864 4-3.433 4H16.162c-1.569 0-3.574-1.791-4.478-4l-1.228-3H6.911c-2.073 0-4.105-1.791-4.539-4l-.587-3c-.002-.008 0-.015-.002-.021A1.995 1.995 0 0 1 2 4h30a4 4 0 0 1 4 4v3c0 2.209-1.68 4-3.754 4" fill="#ffcc4d"/><path d="M14 5a4 4 0 1 0-8 0 4 4 0 0 0 8 0" fill="#292f33"/><path d="M12 5a2 2 0 1 0-3.999-.001A2 2 0 0 0 12 5" fill="#ccd6dd"/><path d="M31 5a4 4 0 1 0-8 0 4 4 0 0 0 8 0" fill="#292f33"/><path d="M29 5a2 2 0 1 0-3.999-.001A2 2 0 0 0 29 5" fill="#ccd6dd"/><path d="M2.373 11l-.196-1H36v1c0 .348-.054.679-.132 1H2.702a4.764 4.764 0 0 1-.33-1" fill="#f4900c"/><path d="M24 15h5.92c-.014.416-.064.908-.156 1.5-.395 2.5-.552 3.5-3.437 3.5H24v-5zM22 20h-5c-1.594 0-3.236-1.567-3.847-3.5a47.154 47.154 0 0 1-.472-1.5H22v5z" fill="#55acee"/></g></svg>