<svg xmlns="http://www.w3.org/2000/svg" viewBox="0 0 45 45"><defs><clipPath id="a"><path d="M0 36h36V0H0v36z"/></clipPath></defs><g clip-path="url(#a)" transform="matrix(1.25 0 0 -1.25 0 45)"><path d="M34 3a2 2 0 0 0-2-2h-3a2 2 0 0 0-2 2v8a2 2 0 0 0 2 2h3a2 2 0 0 0 2-2V3zM9 3a2 2 0 0 0-2-2H4a2 2 0 0 0-2 2v8a2 2 0 0 0 2 2h3a2 2 0 0 0 2-2V3zM5 20.5A1.5 1.5 0 0 0 3.5 19h-2a1.5 1.5 0 1 0 0 3h2A1.5 1.5 0 0 0 5 20.5M31 20.5a1.5 1.5 0 0 1 1.5-1.5h2a1.5 1.5 0 1 1 0 3h-2a1.5 1.5 0 0 1-1.5-1.5" fill="#66757f"/><path d="M9 31c4 1 14 1 18 0 3.881-.97 5-11 5-11s2 0 2-4V8s0-3-3-4c-3.911-1.304-8-1-13-1S8.912 2.696 5 4C2 5 2 8 2 8v8s0 4 2 4c0 0 1.12 10.03 5 11" fill="#ccd6dd"/><path d="M18 15c-5.718 0-11.136.101-16 .279V8s0-3 3-4c3.912-1.304 8-1 13-1s9.089-.304 13 1c3 1 3 4 3 4v7.279A441.924 441.924 0 0 0 18 15" fill="#292f33"/><path d="M18 21c3.905 0 8.623-.2 12-.561L29 26c-1 3-7 3-11 3S8 29 7 26l-1-5.561C9.377 20.8 14.095 21 18 21" fill="#55acee"/><path d="M12 12a2 2 0 0 0-2-2H6a2 2 0 0 0 0 4h4a2 2 0 0 0 2-2M24 12a2 2 0 0 1 2-2h4a2 2 0 0 1 0 4h-4a2 2 0 0 1-2-2" fill="#ccd6dd"/><path d="M29 7.5A1.5 1.5 0 0 0 27.5 6h-19a1.5 1.5 0 1 0 0 3h19A1.5 1.5 0 0 0 29 7.5" fill="#66757f"/><path d="M11.999 15c-.15 0-.303.034-.446.105l-6 3a1.001 1.001 0 0 0 .894 1.79l6-3A1 1 0 0 0 11.999 15M24.001 15a1 1 0 0 0-.448 1.895l6 3a1 1 0 0 0 .894-1.79l-6-3a1.003 1.003 0 0 0-.446-.105" fill="#99aab5"/><path d="M18 32.5a1.5 1.5 0 0 0-1.5-1.5h-7a1.5 1.5 0 1 0 0 3h7a1.5 1.5 0 0 0 1.5-1.5" fill="#dd2e44"/><path d="M28 32.5a1.5 1.5 0 0 0-1.5-1.5h-7a1.5 1.5 0 1 0 0 3h7a1.5 1.5 0 0 0 1.5-1.5" fill="#55acee"/><path d="M20 31h-4v3h4v-3z" fill="#f5f8fa"/></g></svg>