<svg xmlns="http://www.w3.org/2000/svg" viewBox="0 0 45 45"><defs><clipPath id="a"><path d="M0 36h36V0H0v36z"/></clipPath></defs><g clip-path="url(#a)" transform="matrix(1.25 0 0 -1.25 0 45)"><path d="M35 26c0 1-1 4-4 4H9.401C6 30 0 17.999 0 15V9a4 4 0 0 1 4-4h28a4 4 0 0 1 4 4v9.999C36 20.027 35 26 35 26" fill="#ccd6dd"/><path d="M36 10H0v3h36v-3z" fill="#66757f"/><path d="M9 11a5.997 5.997 0 0 1-5.992-5.861C3.327 5.058 3.656 5 4 5h11a6 6 0 0 1-6 6M32.993 5.14A5.996 5.996 0 0 1 21 5h11c.345 0 .674.058.993.14" fill="#e1e8ed"/><path d="M5.686 10h6.628c-.95.631-2.088 1-3.314 1a5.96 5.96 0 0 1-3.315-1M23.686 10h6.63c-.95.632-2.09 1-3.316 1a5.969 5.969 0 0 1-3.313-1" fill="#99aab5"/><path d="M13 5a4 4 0 1 0-8 0 4 4 0 0 0 8 0" fill="#292f33"/><path d="M11 5a2 2 0 1 0-3.999-.001A2 2 0 0 0 11 5" fill="#99aab5"/><path d="M31 5a4 4 0 1 0-8 0 4 4 0 0 0 8 0" fill="#292f33"/><path d="M29 5a2 2 0 1 0-3.999-.001A2 2 0 0 0 29 5" fill="#99aab5"/><path d="M5 23h6v-7H2l3 7zM21 16h-8v7h8v-7zM23 23v-7h13v2.999c0 .526-.262 2.348-.518 4.001H23z" fill="#55acee"/><path d="M33 25H7a1 1 0 0 0 0 2h26a1 1 0 1 0 0-2" fill="#99aab5"/></g></svg>