<svg xmlns="http://www.w3.org/2000/svg" viewBox="0 0 45 45"><defs><clipPath id="a"><path d="M0 36h36V0H0v36z"/></clipPath></defs><g clip-path="url(#a)" transform="matrix(1.25 0 0 -1.25 0 45)"><path d="M13 4h20s3 0 3 4c0 2 0 6-1 7s-8 7-11 7h-6c-3 0-10-7-10-7l-4-1s-3-1-3-3V8s-1-.338-1-1.957C0 4 2 4 2 4h11z" fill="#dd2e44"/><path d="M20 20h-2c-2 0-8-6-8-6s4.997.263 10 .519V20zM30 17c-1 1-5 3-7 3h-1v-5.379c4.011.204 7.582.379 8 .379 1 0 1 1 0 2" fill="#bbddf5"/><path d="M14 5a4 4 0 1 0-8 0 4 4 0 0 0 8 0" fill="#292f33"/><path d="M12 5a2 2 0 1 0-3.999-.001A2 2 0 0 0 12 5" fill="#ccd6dd"/><path d="M31 5a4 4 0 1 0-8 0 4 4 0 0 0 8 0" fill="#292f33"/><path d="M29 5a2 2 0 1 0-3.999-.001A2 2 0 0 0 29 5" fill="#ccd6dd"/></g></svg>