<svg xmlns="http://www.w3.org/2000/svg" viewBox="0 0 45 45"><defs><clipPath id="a"><path d="M0 36h36V0H0v36z"/></clipPath></defs><g clip-path="url(#a)" transform="matrix(1.25 0 0 -1.25 0 45)"><path d="M35 24c0 1-1 4-4 4H9.401c-1.377 0-3.289-1.791-4.302-4L2 19c-1.453-.599-2-2.331-2-4V9a4 4 0 0 1 4-4h28a4 4 0 0 1 4 4v7.999C36 18.027 35 24 35 24" fill="#ccd6dd"/><path d="M9 11a5.997 5.997 0 0 1-5.992-5.861C3.327 5.058 3.656 5 4 5h11a6 6 0 0 1-6 6M32.993 5.14A5.996 5.996 0 0 1 21 5h11c.345 0 .674.058.993.14" fill="#e1e8ed"/><path d="M13 5a4 4 0 1 0-8 0 4 4 0 0 0 8 0" fill="#292f33"/><path d="M11 5a2 2 0 1 0-3.999-.001A2 2 0 0 0 11 5" fill="#99aab5"/><path d="M31 5a4 4 0 1 0-8 0 4 4 0 0 0 8 0" fill="#292f33"/><path d="M29 5a2 2 0 1 0-3.999-.001A2 2 0 0 0 29 5" fill="#99aab5"/><path d="M36 12H0v3h36v-3zM31 23h-3v3h-2v-3h-3v-2h3v-3h2v3h3v2z" fill="#dd2e44"/><path d="M8 26h5v-7H4l4 7z" fill="#55acee"/><path d="M15 29.5a1.5 1.5 0 0 0-1.5-1.5h-2a1.5 1.5 0 1 0 0 3h2a1.5 1.5 0 0 0 1.5-1.5" fill="#dd2e44"/><path d="M18 29.5a1.5 1.5 0 0 0-1.5-1.5h-2a1.5 1.5 0 1 0 0 3h2a1.5 1.5 0 0 0 1.5-1.5" fill="#55acee"/></g></svg>