<svg xmlns="http://www.w3.org/2000/svg" viewBox="0 0 45 45"><defs><clipPath id="a"><path d="M0 36h36V0H0v36z"/></clipPath></defs><g clip-path="url(#a)" transform="matrix(1.25 0 0 -1.25 0 45)"><path d="M34 3a2 2 0 0 0-2-2h-3a2 2 0 0 0-2 2v8a2 2 0 0 0 2 2h3a2 2 0 0 0 2-2V3zM9 3a2 2 0 0 0-2-2H4a2 2 0 0 0-2 2v8a2 2 0 0 0 2 2h3a2 2 0 0 0 2-2V3z" fill="#292f33"/><path d="M9 31c4 1 14 1 18 0 3.881-.97 5-11 5-11s2 0 2-4V8s.123-4-4-4H6C1.877 4 2 8 2 8v8s0 4 2 4c0 0 1.12 10.03 5 11" fill="#ffcc4d"/><path d="M18 21c3.905 0 8.623-.2 12-.561L29 26c-1 3-7 3-11 3S8 29 7 26l-1-5.561C9.377 20.8 14.095 21 18 21" fill="#55acee"/><path d="M5 20.5A1.5 1.5 0 0 0 3.5 19h-2a1.5 1.5 0 1 0 0 3h2A1.5 1.5 0 0 0 5 20.5M31 20.5a1.5 1.5 0 0 1 1.5-1.5h2a1.5 1.5 0 1 1 0 3h-2a1.5 1.5 0 0 1-1.5-1.5M11 13a3 3 0 0 0-3-3H7a3 3 0 1 0 0 6h1a3 3 0 0 0 3-3M32 13a3 3 0 0 0-3-3h-1a3 3 0 0 0 0 6h1a3 3 0 0 0 3-3" fill="#ffcc4d"/><path d="M25 14H11c-2.456 0-4.486 3.336-4.868 4.004a1 1 0 0 0 1.736.994C8.562 17.789 10.037 16 11 16h14c.983 0 2.46 1.655 3.148 2.773a1 1 0 1 0 1.704-1.047C29.617 17.344 27.487 14 25 14" fill="#ffac33"/><path d="M6 8H2v4h4V8zM34 8h-4v4h4V8z" fill="#f4900c"/><path d="M10 10a2 2 0 0 0-2-2H6a2 2 0 0 0 0 4h2a2 2 0 0 0 2-2M32 10a2 2 0 0 1-2 2h-2a2 2 0 0 1 0-4h2a2 2 0 0 1 2 2" fill="#fff"/><path d="M25 10a2 2 0 0 0-2-2H13a2 2 0 0 0 0 4h10a2 2 0 0 0 2-2" fill="#66757f"/><path d="M22 34h-8a3 3 0 0 1-3-3h14a3 3 0 0 1-3 3" fill="#ffe8b6"/><path d="M22 31h-8v2h8v-2z" fill="#ccd6dd"/><path d="M20 31h-4v1h4v-1z" fill="#99aab5"/></g></svg>