<svg xmlns="http://www.w3.org/2000/svg" viewBox="0 0 45 45"><defs><clipPath id="a"><path d="M0 36h36V0H0v36z"/></clipPath></defs><g clip-path="url(#a)" transform="matrix(1.25 0 0 -1.25 0 45)"><path d="M0 1h36v25s-6.001 10-9.001 10c-3 0-10-9-12-11s-4.5-.5-5.999 1c-1.5 1.5-3 3-4 3s-5-7-5-7V1z" fill="#d1d3d4"/><path d="M36 0H0v2h36V0z" fill="#939598"/><path d="M14 4a3 3 0 1 1-6 0 3 3 0 0 1 6 0" fill="#58595b"/><path d="M13 4a2 2 0 1 1-4 .001A2 2 0 0 1 13 4" fill="#292f33"/><path d="M22 4a3 3 0 1 1-6.001-.001A3 3 0 0 1 22 4" fill="#58595b"/><path d="M21 4a2 2 0 1 1-4 0 2 2 0 0 1 4 0" fill="#292f33"/><path d="M36 22H7a4 4 0 0 1-4-4V8a4 4 0 0 1 4-4h29v18z" fill="#ffe8b6"/><path d="M36 22H7c-1.477 0-2.752-.81-3.445-2H36v2z" fill="#77b255"/><path d="M36 8H3a4 4 0 0 1 4-4h29v4z" fill="#5c913b"/><path d="M36 10H3V8h33v2z" fill="#ffac33"/><path d="M9 12H3v5h6v-5zM15 14a1 1 0 0 0-1-1h-2a1 1 0 0 0-1 1v2a1 1 0 0 0 1 1h2a1 1 0 0 0 1-1v-2zM20 14a1 1 0 0 0-1-1h-2a1 1 0 0 0-1 1v2a1 1 0 0 0 1 1h2a1 1 0 0 0 1-1v-2zM27 14a1 1 0 0 0-1-1h-2a1 1 0 0 0-1 1v2a1 1 0 0 0 1 1h2a1 1 0 0 0 1-1v-2zM34 14a1 1 0 0 0-1-1h-2a1 1 0 0 0-1 1v2a1 1 0 0 0 1 1h2a1 1 0 0 0 1-1v-2z" fill="#55acee"/><path d="M22.5 18a.5.5 0 0 1-.5-.5v-10c0-.275.225-.5.5-.5h5c.275 0 .5.225.5.5v10a.5.5 0 0 1-.5.5h-5zm5-12h-5c-.827 0-1.5.673-1.5 1.5v10c0 .827.673 1.5 1.5 1.5h5c.827 0 1.5-.673 1.5-1.5v-10c0-.827-.673-1.5-1.5-1.5" fill="#66757f"/></g></svg>