<svg xmlns="http://www.w3.org/2000/svg" viewBox="0 0 45 45"><defs><clipPath id="a"><path d="M0 36h36V0H0v36z"/></clipPath></defs><g clip-path="url(#a)" transform="matrix(1.25 0 0 -1.25 0 45)"><path d="M36 9a4 4 0 0 0-4-4H4a4 4 0 0 0-4 4v3a4 4 0 0 0 4 4h28a4 4 0 0 0 4-4V9z" fill="#dd2e44"/><path d="M19 23l-.979 1H7.146C4 24 3 22 3 22l-3-5.959V11h19v12z" fill="#ffcc4d"/><path d="M9 16H2l2 4s1 2 3 2h2v-6z" fill="#55acee"/><path d="M13 5a4 4 0 1 0-8 0 4 4 0 0 0 8 0" fill="#292f33"/><path d="M11 5a2 2 0 1 0-3.999-.001A2 2 0 0 0 11 5" fill="#ccd6dd"/><path d="M31 5a4 4 0 1 0-8 0 4 4 0 0 0 8 0" fill="#292f33"/><path d="M27 7a2 2 0 1 1 0-4 2 2 0 0 1 0 4M32 28H17a4 4 0 0 1-4-4V11h23v13a4 4 0 0 1-4 4" fill="#ccd6dd"/></g></svg>