<svg xmlns="http://www.w3.org/2000/svg" viewBox="0 0 45 45"><defs><clipPath id="a"><path d="M0 36h36V0H0v36z"/></clipPath></defs><g clip-path="url(#a)" transform="matrix(1.25 0 0 -1.25 0 45)"><path d="M30 20a2 2 0 0 0-2-2H18a2 2 0 0 0-2 2v2a2 2 0 0 0 2 2h10a2 2 0 0 0 2-2v-2z" fill="#58595b"/><path d="M4 22a4 4 0 0 1-4-4V8a8 8 0 0 1 8-8h28v22H4z" fill="#f4900c"/><path d="M.587 5H36v2H.069a7.962 7.962 0 0 1 .518-2" fill="#ffd983"/><path d="M36 28H0v6h36v-6z" fill="#808285"/><path d="M36 30H0v2h36v-2z" fill="#414042"/><path d="M28 36H18a3 3 0 1 1 0-6h3v-4l-2-2h8l-2 2v4h3a3 3 0 1 1 0 6" fill="#a7a9ac"/><path d="M14 7h22v15H14V7z" fill="#3b88c3"/><path d="M12 11a2 2 0 0 0-2-2H6a2 2 0 0 0-2 2v6a2 2 0 0 0 2 2h4a2 2 0 0 0 2-2v-6z" fill="#58595b"/><path d="M24 13a2 2 0 0 0-2-2h-4a2 2 0 0 0-2 2v4a2 2 0 0 0 2 2h4a2 2 0 0 0 2-2v-4zM34 13a2 2 0 0 0-2-2h-4a2 2 0 0 0-2 2v4a2 2 0 0 0 2 2h4a2 2 0 0 0 2-2v-4z" fill="#414042"/><path d="M0 19V9a2 2 0 0 1 2 2v6a2 2 0 0 1-2 2" fill="#58595b"/></g></svg>