<svg xmlns="http://www.w3.org/2000/svg" viewBox="0 0 45 45"><defs><clipPath id="a"><path d="M0 36h36V0H0v36z"/></clipPath></defs><g clip-path="url(#a)" transform="matrix(1.25 0 0 -1.25 0 45)"><path d="M27 4a4 4 0 0 0-4-4H13a4 4 0 0 0-4 4v28a4 4 0 0 0 4 4h10a4 4 0 0 0 4-4V4z" fill="#292f33"/><path d="M17.998 11A4 4 0 1 0 18 3a4 4 0 0 0-.002 8" fill="#77b255"/><path d="M17.998 22A4 4 0 1 0 18 14a4 4 0 0 0-.002 8" fill="#ffcc4d"/><path d="M17.998 33A4 4 0 1 0 18 25a4 4 0 0 0-.002 8" fill="#dd2e44"/></g></svg>