<svg xmlns="http://www.w3.org/2000/svg" viewBox="0 0 45 45"><defs><clipPath id="a"><path d="M0 36h36V0H0v36z"/></clipPath></defs><path d="M23.75 15V6.25h-2.5V15H17.5v3.75h10V15h-3.75z" fill="#58595b"/><g clip-path="url(#a)" transform="matrix(1.25 0 0 -1.25 0 45)"><path d="M33.213 25.023L3.27 33.046a1.001 1.001 0 0 0 .517 1.933l29.944-8.023a1 1 0 0 0-.518-1.933" fill="#6d6e71"/><path d="M23.348 31.639l-1.933.518.259.964-5.795 1.553-.26-.965-1.931.518a2 2 0 0 1-1.035-3.864l9.66-2.588a2 2 0 1 1 1.035 3.864" fill="#a7a9ac"/><path d="M13.877 31.07a2.001 2.001 0 1 0-3.865 1.037 2.001 2.001 0 0 0 3.865-1.038M25.469 27.964a2 2 0 1 0-3.863 1.035 2 2 0 0 0 3.863-1.035" fill="#808285"/><path d="M6 4a4 4 0 0 1 4-4h16a4 4 0 0 1 4 4v5H6V4zM26 22H10c-1.477 0-2.752-.809-3.445-2h22.89c-.693 1.191-1.968 2-3.445 2" fill="#dd2e44"/><path d="M6 9h24v9H6V9z" fill="#88c9f9"/><path d="M6.555 20A3.955 3.955 0 0 1 6 18h24c0 .732-.211 1.41-.555 2H6.555z" fill="#55acee"/><path d="M14 9h-2v11h2V9zM23 9h-2v11h2V9z" fill="#231f20"/></g></svg>