<svg xmlns="http://www.w3.org/2000/svg" viewBox="0 0 45 45"><defs><clipPath id="a"><path d="M0 36h36V0H0v36z"/></clipPath></defs><path d="M23.75 15V6.25h-2.5V15H15v6.25h15V15h-6.25z" fill="#58595b"/><g clip-path="url(#a)" transform="matrix(1.25 0 0 -1.25 0 45)"><path d="M34 8v10a4 4 0 0 1-4 4H6a4 4 0 0 1-4-4V8h32z" fill="#ffd983"/><path d="M2 14V8a8 8 0 0 1 8-8h16a8 8 0 0 1 8 8v6H2z" fill="#269"/><path d="M8 9H2v9h6V9zM17 9h-7v9h7V9zM26 9h-7v9h7V9zM34 9h-6v9h6V9z" fill="#88c9f9"/><path d="M33.213 25.023L3.27 33.046a1.001 1.001 0 0 0 .517 1.933l29.944-8.023a1 1 0 0 0-.518-1.933" fill="#6d6e71"/><path d="M23.348 31.639l-1.933.518.259.964-5.795 1.553-.26-.965-1.931.518a2 2 0 0 1-1.035-3.864l9.66-2.588a2 2 0 1 1 1.035 3.864" fill="#a7a9ac"/><path d="M13.877 31.07a2.001 2.001 0 1 0-3.865 1.037 2.001 2.001 0 0 0 3.865-1.038M25.469 27.964a2 2 0 1 0-3.863 1.035 2 2 0 0 0 3.863-1.035" fill="#808285"/><path d="M8 16H2v2h6v-2zM17 16h-7v2h7v-2zM26 16h-7v2h7v-2zM34 16h-6v2h6v-2z" fill="#55acee"/></g></svg>