<svg xmlns="http://www.w3.org/2000/svg" viewBox="0 0 45 45"><defs><clipPath id="a"><path d="M0 36h36V0H0v36z"/></clipPath></defs><g clip-path="url(#a)" transform="matrix(1.25 0 0 -1.25 0 45)"><path d="M6 11c-2.2 0-4.362-2.17-4 0l2.342 16.054C4.704 29.225 6.8 31 9 31h18c2.2 0 4.296-1.775 4.657-3.946L34 11c.361-2.17-1.8 0-4 0H6z" fill="#dd2e44"/><path d="M6.321 26.766C6.517 27.936 7.771 29 9.001 29h9V8H6c-.616 0-2.473-3.854-3-4l3.32 22.766z" fill="#ea596e"/><path d="M2 3S0 3 0 5c0 1 1 6 1 6h34s1-5 1-6c0-2-2-2-2-2" fill="#99aab5"/></g></svg>