<svg xmlns="http://www.w3.org/2000/svg" viewBox="0 0 45 45"><defs><clipPath id="a"><path d="M0 36h36V0H0v36z"/></clipPath></defs><g clip-path="url(#a)" transform="matrix(1.25 0 0 -1.25 0 45)"><path d="M34 4h-3v28a4 4 0 0 1-4 4H9a4 4 0 0 1-4-4V4H2a2 2 0 0 1 0-4h32a2 2 0 1 1 0 4" fill="#bcbec0"/><path d="M29 3a3 3 0 0 0-3-3H10a3 3 0 0 0-3 3v28a3 3 0 0 0 3 3h16a3 3 0 0 0 3-3V3z" fill="#be1931"/><path d="M14 16.5a2.5 2.5 0 1 0-5 0 2.5 2.5 0 0 0 5 0" fill="#f4900c"/><path d="M13 16.5a1.5 1.5 0 1 0-3 0 1.5 1.5 0 0 0 3 0" fill="#ffd983"/><path d="M26 20h-4a1 1 0 1 0 0 2h3v7a1 1 0 1 0 2 0v-8a1 1 0 0 0-1-1" fill="#ea596e"/><path d="M20 22a1 1 0 0 0-1 1v8a1 1 0 0 0 1 1h4a1 1 0 1 0 0-2h-3v-7a1 1 0 0 0-1-1" fill="#a0041e"/><path d="M16 20h-4a1 1 0 0 0 0 2h3v7a1 1 0 0 0 2 0v-8a1 1 0 0 0-1-1" fill="#ea596e"/><path d="M10 22a1 1 0 0 0-1 1v8a1 1 0 0 0 1 1h4a1 1 0 0 0 0-2h-3v-7a1 1 0 0 0-1-1" fill="#a0041e"/><path d="M26 2h-4a1 1 0 1 0 0 2h3v6a1 1 0 1 0 2 0V3a1 1 0 0 0-1-1" fill="#ea596e"/><path d="M20 4a1 1 0 0 0-1 1v7a1 1 0 0 0 1 1h4a1 1 0 1 0 0-2h-3V5a1 1 0 0 0-1-1" fill="#a0041e"/><path d="M16 2h-4a1 1 0 1 0 0 2h3v6a1 1 0 1 0 2 0V3a1 1 0 0 0-1-1" fill="#ea596e"/><path d="M10 4a1 1 0 0 0-1 1v7a1 1 0 0 0 1 1h4a1 1 0 1 0 0-2h-3V5a1 1 0 0 0-1-1" fill="#a0041e"/></g></svg>