<svg xmlns="http://www.w3.org/2000/svg" viewBox="0 0 45 45"><defs><clipPath id="a"><path d="M0 36h36V0H0v36z"/></clipPath><clipPath id="b"><path d="M8 33H4a4 4 0 0 1-4-4v-8a4 4 0 0 1 4-4h28a4 4 0 0 1 4 4v8a4 4 0 0 1-4 4H8z"/></clipPath><clipPath id="c"><path d="M0 36h36V0H0v36z"/></clipPath></defs><g clip-path="url(#a)" transform="matrix(1.25 0 0 -1.25 0 45)"><path d="M36 21a4 4 0 0 0-4-4H4a4 4 0 0 0-4 4v8a4 4 0 0 0 4 4h28a4 4 0 0 0 4-4v-8z" fill="#ffcc4d"/></g><g clip-path="url(#b)" transform="matrix(1.25 0 0 -1.25 0 45)"><path d="M2 34l-18-18h5L7 34H2zM13 34L-5 16h5l18 18h-5zM24 34L6 16h5l18 18h-5zM35 34L17 16h5l18 18h-5zM46 34L28 16h5l18 18h-5z" fill="#292f33"/></g><g clip-path="url(#c)" fill="#99aab5" transform="matrix(1.25 0 0 -1.25 0 45)"><path d="M9 3H4v14h5V3zM32 3h-5v14h5V3z"/></g></svg>