<svg xmlns="http://www.w3.org/2000/svg" viewBox="0 0 45 45"><defs><clipPath id="a"><path d="M0 36h36V0H0v36z"/></clipPath><clipPath id="b"><path d="M2 15s-2 0-2-2V8c0-2 2-2 2-2h29s2 0 2 2v5c0 2-2 2-2 2H2z"/></clipPath><clipPath id="c"><path d="M0 36h36V0H0v36z"/></clipPath></defs><g clip-path="url(#a)" transform="matrix(1.25 0 0 -1.25 0 45)"><path d="M33 8c0-2-2-2-2-2H2S0 6 0 8v5c0 2 2 2 2 2h29s2 0 2-2V8z" fill="#d99e82"/></g><g clip-path="url(#b)" transform="matrix(1.25 0 0 -1.25 0 45)"><path d="M25 0H12v20h13V0z" fill="#e1e8ed"/><path d="M35 2H25v16h10V2z" fill="#66757f"/></g><g clip-path="url(#c)" transform="matrix(1.25 0 0 -1.25 0 45)"><path d="M27.79 16a1 1 0 0 0-.988.855c-.03.2-.655 4.925 4.474 8.002 2.498 1.499 3.064 4.246 2.533 6.164-.249.896-1.136 2.979-4.018 2.979-3.142 0-3.963-1.77-4.15-2.562-.283-1.198 0-2.141.625-2.594.648-.471 1.422-.332 1.931-.017.389.24.594.646.594 1.173a1 1 0 1 0 2 0c0-1.221-.563-2.269-1.542-2.874-1.106-.683-2.819-.538-3.919.077-1.351.756-2.061 2.623-1.589 4.619.617 2.616 2.879 4.178 6.05 4.178 2.908 0 5.186-1.703 5.945-4.445.889-3.208-.522-6.667-3.43-8.412-4-2.4-3.531-5.963-3.526-5.998A1 1 0 0 0 27.79 16" fill="#ccd6dd"/></g></svg>