<svg xmlns="http://www.w3.org/2000/svg" viewBox="0 0 45 45"><defs><clipPath id="a"><path d="M0 36h36V0H0v36z"/></clipPath></defs><g clip-path="url(#a)" transform="matrix(1.25 0 0 -1.25 0 45)"><path d="M34.999 18.001c0-9.389-7.611-17-17-17S1 8.612 1 18.001 8.61 35 17.999 35s17-7.61 17-16.999"/><path d="M23 28.5c0-1.933-1.344-3.5-3-3.5s-3 1.567-3 3.5 1.344 3.5 3 3.5 3-1.567 3-3.5M26 23s0 2-2 2h-7c-1 0-2-1-2-1l-2-2H9s-1 0-1-1 1-1 1-1h5l2 1.171V5s0-1 1-1h1s1 0 1 1v8s0 1 1 1 1-1 1-1V5s0-1 1-1h1s1 0 1 1v9s2 0 2 2v7zM9.242 16.533c0-.847-.726-1.533-1.621-1.533S6 15.686 6 16.533c0 .847.726 1.533 1.62 1.533.896 0 1.622-.686 1.622-1.533" fill="#fff"/><path d="M13.242 13.533c0-.847-.726-1.533-1.621-1.533S10 12.686 10 13.533c0 .847.726 1.533 1.62 1.533.896 0 1.622-.686 1.622-1.533M11.242 9.533C11.242 8.686 10.516 8 9.62 8S8 8.686 8 9.533c0 .847.726 1.533 1.62 1.533.896 0 1.622-.686 1.622-1.533" fill="#fff"/><path d="M2 18c0 3.968 1.453 7.592 3.845 10.388L28.388 5.844A15.928 15.928 0 0 0 18 2C9.164 2 2 9.164 2 18m32 0c0-3.968-1.453-7.591-3.845-10.388L7.612 30.155A15.927 15.927 0 0 0 18 34c8.837 0 16-7.164 16-16M18 36C8.059 36 0 27.94 0 18 0 8.059 8.059 0 18 0S36 8.06 36 18c0 9.94-8.059 18-18 18" fill="#dd2e44"/></g></svg>