<svg xmlns="http://www.w3.org/2000/svg" viewBox="0 0 45 45"><defs><clipPath id="a"><path d="M0 36h36V0H0v36z"/></clipPath></defs><g clip-path="url(#a)" transform="matrix(1.25 0 0 -1.25 0 45)"><path d="M15.356 20.125l3.083-1.158-1.156-3.084s-4.549 1.004-5.258 2.114c-.709 1.11.601 2.73.601 2.73l2.73-.602z"/><path d="M19.967 28.875c.91-.2 0-1.613.278-2.525.19-.632-1.111-.71-1.111-.71s-.911.201-.756-1.265c.155-1.463-1.866-1.973-2.02-.507-.154 1.464 1.045 2.254.385 3.394-1.578 2.731 3.224 1.613 3.224 1.613" fill="#ffdc5d"/><path d="M20.634 23.184c0 .199-.541.428-.707.687-.708 1.112-1.03 1.667-1.94 1.867-1.286.283-2.911-.308-4.221-1.927-.83-1.024-.947-2.175-2.26-3.794 0 0 4.2-.447 4.755-.093.556.354.758 1.265.959 2.175.2.91.686 1.264 1.04.709.344-.538 2.374-1.2 3.449-1.426l-1.075 1.802z" fill="#77b255"/><path d="M18.988 22.184l1.245 1.41c.943-.928 2.453-1.492 2.96-1.166.555.353 1.915-.904.805-1.614-1.11-.71-2.23.282-3.138.482-.59.13-1.33.496-1.872.888" fill="#ffdc5d"/><path d="M19.967 28.45c.808-.668.57.862 0 1.335-.806.667-2.418.668-3.224 0-.806-.667-.806-2.003 0-2.67.57-.472.806-1.335.806 0s.807 0 .807.667c0 .668 1.61.668 1.61.668" fill="#ffac33"/><path d="M2 19h32s0-2-1-7c-.86-4.302-21.001-1-24.601 0C5.316 12.856 2 19 2 19" fill="#c1694f"/><path d="M35 18a1 1 0 0 0-1-1H2a1 1 0 1 0 0 2h32a1 1 0 0 0 1-1" fill="#f4900c"/><path d="M36 12H0V0h36v12z" fill="#55acee"/><path d="M12 9a.999.999 0 0 0-.707 1.707l11 11a.999.999 0 1 0 1.415-1.414l-11.001-11A.997.997 0 0 0 12 9" fill="#ffac33"/><path d="M11 7a2 2 0 0 0-1.414 3.414l3 3a2 2 0 1 0 2.827-2.828l-3-3A1.99 1.99 0 0 0 11 7" fill="#ffcc4d"/></g></svg>