<svg xmlns="http://www.w3.org/2000/svg" viewBox="0 0 45 45"><defs><clipPath id="a"><path d="M0 36h36V0H0v36z"/></clipPath></defs><g clip-path="url(#a)" transform="matrix(1.25 0 0 -1.25 0 45)"><path d="M35 18c0 9.389-7.611 17-17 17S1 27.389 1 18 8.611 1 18 1s17 7.611 17 17"/><path d="M23.703 19h-.017c-.407 0-.733.261-.733.668 0 .219.082 2.149 2.93 4.047 1.473.984 1.783 2.61 1.446 3.721-.315 1.042-1.164 1.63-2.328 1.63-1.77 0-2.26-.957-2.394-1.524-.169-.714.046-1.179.268-1.369.325-.279.8-.218 1.075-.049.196.122.301.331.301.606a.75.75 0 1 0 1.5 0c0-.799-.369-1.485-1.013-1.883-.72-.446-1.832-.4-2.557.005-.886.494-1.337 1.743-1.034 3.03.396 1.675 1.836 2.675 3.854 2.675 1.844 0 3.251-1.011 3.764-2.704.601-1.986-.243-4.216-2.05-5.422-2.174-1.449-2.26-2.723-2.262-2.779-.018-.401-.35-.652-.75-.652M22 17H6s-2 0-2-2v-1c0-2 2-2 2-2h16v5zM27 17h-3v-5h3s2 0 2 2v1c0 2-2 2-2 2" fill="#fff"/><path d="M2 18c0 3.968 1.453 7.591 3.844 10.387L28.388 5.844A15.926 15.926 0 0 0 18 2C9.164 2 2 9.163 2 18m32 0c0-3.969-1.453-7.592-3.845-10.389L7.612 30.155A15.927 15.927 0 0 0 18 34c8.837 0 16-7.164 16-16M18 36C8.059 36 0 27.94 0 18 0 8.059 8.059 0 18 0s18 8.059 18 18c0 9.94-8.059 18-18 18" fill="#dd2e44"/></g></svg>