<svg xmlns="http://www.w3.org/2000/svg" viewBox="0 0 45 45"><defs><clipPath id="a"><path d="M0 36h36V0H0v36z"/></clipPath></defs><path d="M20 6.25h5V0h-5v6.25z" fill="#292f33"/><path d="M25 7.5h-5v-5h5v5z" fill="#d1d3d4"/><path d="M25 7.5h-2.5v-5H25v5z" fill="#a7a9ac"/><g clip-path="url(#a)" transform="matrix(1.25 0 0 -1.25 0 45)"><path d="M18 17H5S6.355 9 9.875 3C13.394-3 18 3 18 3s4.606-6 8.125 0C29.645 9 31 17 31 17H18z" fill="#66757f"/><path d="M18 17H5S6.355 9 9.875 3C13.394-3 18 3 18 3v14z" fill="#99aab5"/><path d="M36 6H0V0h36v6z" fill="#55acee"/><path d="M30 27h-2.45l-.242 4H8.692l-.241-4H6v-6h2.088l-.242-4h20.308l-.242 4H30v6z" fill="#e6e7e8"/><path d="M10 21h16v-4H10v4z" fill="#d1d3d4"/><path d="M8 25h20v-2H8v2z" fill="#6d6e71"/><path d="M10 29h16v-2H10v2z" fill="#bcbec0"/><path d="M5.913 13h24.174c.202.747.368 1.427.5 2H5.413c.132-.573.3-1.253.5-2" fill="#be1931"/><path d="M18 13h12.087c.201.747.368 1.427.5 2H18v-2z" fill="#a0041e"/><path d="M24 17H12v2h12v-2z" fill="#bcbec0"/><path d="M18 34h-2v2h2v-2z" fill="#58595b"/></g></svg>