<svg xmlns="http://www.w3.org/2000/svg" viewBox="0 0 45 45"><defs><clipPath id="a"><path d="M0 36h36V0H0v36z"/></clipPath></defs><path d="M41.25 33.75h-2.5l1.25-10h2.5l-1.25 10z" fill="#5c913b"/><g clip-path="url(#a)" transform="matrix(1.25 0 0 -1.25 0 45)"><path d="M1 22c9.055-.053 11-1 17-2 2.959-.493 7-1 11-1 2 0 4-1 4-4 0-2 .534-3.186-5.433-3.814C23.59 10.766 13 13 9 15 3 18 0 22.006 1 22" fill="#dd2e44"/><path d="M36 12H0V0h36v12z" fill="#55acee"/><path d="M5 23c4 0 11 0 18-1s10-1 10-3v-3c0-1.414-6.869-.447-10 0-7 1-14 3-18 4-4.047 1.01-7 3 0 3" fill="#ffcc4d"/><path d="M30.592 11.678c2.122.539 2.403 1.307 2.418 2.36-1.263-.618-3.7-.32-5.886-.046-7.96.996-16.481 2.936-24.721 5.609 1.043-1.04 2.584-2.29 4.568-3.484 6.706-1.901 13.484-3.306 19.905-4.11 1.258-.156 2.53-.31 3.716-.33" fill="#a0041e"/><path d="M12 12c3 2 7 5 6 3s-1.001-3 1-2c2 1 5 2 4 0s2-1 3 0 4 0 3-1-9-2-12-2-5 2-5 2" fill="#55acee"/><path d="M34 20h-1a2 2 0 0 1-2-2h1a1 1 0 0 0 1-1v-1h1c1.105 0 2-.104 2 1 0 1.105-.895 3-2 3" fill="#5c913b"/><path d="M30 20c.97-.243 0-2-1-3s-10 1-10 1l2 3s5 0 9-1" fill="#c1694f"/><path d="M29 17c.328.328.645.737.899 1.148-1.474.763-3.629 1.385-6.079 1.664a22.208 22.208 0 0 1-3.527.127L19 17.999S28 16 29 17" fill="#a0041e"/><path d="M21 21v1l-4-1.001-2-2 4-1L21 21z" fill="#55acee"/><path d="M23 22c-.553 0-1-1.343-1-3 0-.612.062-1.181.167-1.655a10.975 10.975 0 0 1 1.592-.278C23.907 17.59 24 18.26 24 19 24 20.657 23.553 22 23 22" fill="#292f33"/></g></svg>