<svg xmlns="http://www.w3.org/2000/svg" viewBox="0 0 45 45"><defs><clipPath id="a"><path d="M0 36h36V0H0v36z"/></clipPath></defs><g clip-path="url(#a)" transform="matrix(1.25 0 0 -1.25 0 45)"><path d="M0 32c0 4 4 4 4 4h28s4 0 4-4V4s0-4-4-4H4S0 0 0 4v28z" fill="#269"/><path d="M33 27H22v6s0 1-1 1-1-1-1-1v-6c-8 0-8-7-8-7v-2c0-1 1-1 1-1h3s1 0 1 1v2c0 2 2 2 2 2h14c1 0 1 1 1 1v3s0 1-1 1" fill="#fff"/><path d="M18.5 33h-3a1.5 1.5 0 1 1 0-3h3a1.5 1.5 0 1 1 0 3M23.5 30h3a1.5 1.5 0 1 1 0 3h-3a1.5 1.5 0 1 1 0-3M20 16c-1 0-1-1-1-1v-5h-9v5s0 1-1 1-1-1-1-1V4s0-2 2-2h9c2 0 2 2 2 2v11s0 1-1 1" fill="#fff"/></g></svg>