<svg xmlns="http://www.w3.org/2000/svg" viewBox="0 0 45 45"><defs><clipPath id="a"><path d="M0 36h36V0H0v36z"/></clipPath></defs><g clip-path="url(#a)" transform="matrix(1.25 0 0 -1.25 0 45)"><path d="M31.543 18.47a2 2 0 0 1-.01 2.817L17.977 34.844c-.782.78-2.048.78-2.829 0l-3-3a2 2 0 0 1 0-2.829L25.704 15.46a2 2 0 0 1 2.829 0l.182.181c1.936-1.949 3.223-3.834 3.223-6.64V2.293a2 2 0 1 1 4 0V9c0 4.43-2.21 7.273-4.395 9.47" fill="#66757f"/><path d="M32.103 15.03a2.003 2.003 0 0 0-2.829 0L11.718 32.585a2 2 0 1 0 2.828 2.828l17.557-17.556c.78-.78.78-2.048 0-2.829" fill="#99aab5"/><path d="M17.414 20.414a.999.999 0 0 0 0-1.414L1.707 3.293A.999.999 0 1 0 .293 4.707L16 20.414a.999.999 0 0 0 1.414 0M14.414 23.414a.999.999 0 0 0 0-1.414L1.707 9.293a.999.999 0 1 0-1.414 1.414L13 23.414a.999.999 0 0 0 1.414 0M11.414 26.414a.999.999 0 0 0 0-1.414L2 15.586A1 1 0 1 0 .585 17L10 26.414a.999.999 0 0 0 1.414 0M20.414 17.414a.999.999 0 0 0 0-1.414L7.707 3.293a.999.999 0 1 0-1.414 1.414L19 17.414a.999.999 0 0 0 1.414 0M23.414 14.414a.999.999 0 0 0 0-1.414L14 3.586A1 1 0 1 0 12.585 5L22 14.414a.999.999 0 0 0 1.414 0" fill="#55acee"/></g></svg>