<svg xmlns="http://www.w3.org/2000/svg" viewBox="0 0 45 45"><defs><clipPath id="a"><path d="M0 36h36V0H0v36z"/></clipPath></defs><g clip-path="url(#a)" transform="matrix(1.25 0 0 -1.25 0 45)"><path d="M34.999 18.001c0-9.389-7.611-17-17-17-9.39 0-17 7.611-17 17 0 9.39 7.61 17 17 17 9.389 0 17-7.61 17-17"/><path d="M20 27.5c0-1.38-.895-2.5-2-2.5s-2.001 1.12-2.001 2.5S16.895 30 18 30s2-1.12 2-2.5M25.918 7.76L21 16.13v5.372c.371-.326.755-.68 1.127-1.044l.925-2.774a.999.999 0 1 1 1.896.633l-1 3a1 1 0 0 1-.241.39C22.205 23.21 20.169 25 18.999 25h-2c-1.209 0-2.643-1.702-3.682-3.223l-3.764-1.882a1 1 0 0 1 .894-1.79l4 2a.996.996 0 0 1 .384.34c.203.303.422.606.644.893l1.1-3.852-3.819-2.183A1.503 1.503 0 0 1 12 14V7a1.5 1.5 0 1 1 3 0v6.13l3.207 1.833 5.125-8.723a1.499 1.499 0 1 1 2.586 1.52" fill="#fff"/><path d="M2 18c0 3.968 1.453 7.592 3.845 10.388L28.388 5.844A15.928 15.928 0 0 0 18 2C9.164 2 2 9.164 2 18m32 0c0-3.968-1.453-7.591-3.845-10.388L7.612 30.155A15.927 15.927 0 0 0 18 34c8.837 0 16-7.164 16-16M18 36C8.059 36 0 27.94 0 18 0 8.059 8.059 0 18 0S36 8.06 36 18c0 9.94-8.059 18-18 18" fill="#dd2e44"/></g></svg>