<svg xmlns="http://www.w3.org/2000/svg" viewBox="0 0 45 45"><defs><clipPath id="a"><path d="M0 36h36V0H0v36z"/></clipPath></defs><g clip-path="url(#a)" transform="matrix(1.25 0 0 -1.25 0 45)"><path d="M36 4a4 4 0 0 0-4-4H4a4 4 0 0 0-4 4v28a4 4 0 0 0 4 4h28a4 4 0 0 0 4-4V4z" fill="#3b88c3"/><path d="M17.838 17.789c-.657 1.534-2.699 5.82-5.525 7.509.422.603.687 1.363.687 2.203 0 1.933-1.344 3.5-3 3.5-1.658 0-3-1.567-3-3.5 0-.84.263-1.6.686-2.203-2.827-1.69-4.868-5.976-5.525-7.51a2 2 0 0 1 3.676-1.577c.053.122.108.242.163.364V4.5a1.5 1.5 0 1 1 3 0V12a1 1 0 1 0 2 0V4.5a1.5 1.5 0 0 1 3 0v12.073c.054-.121.11-.24.162-.362a2.001 2.001 0 0 1 3.676 1.578M30.996 15.875a1.497 1.497 0 0 1 2.115-.162 1.5 1.5 0 0 1 .162 2.115l-5.73 6.685c.87.613 1.457 1.716 1.457 2.987 0 1.934-1.344 3.5-3 3.5-1.657 0-3-1.566-3-3.5 0-1.35.662-2.507 1.621-3.091l-5.739-6.408A1.5 1.5 0 0 1 21.117 16L23 18v-2l-4-6h3V4.5a1.5 1.5 0 1 1 3 0V10h2V4.5a1.5 1.5 0 0 1 3 0V10h3l-4 6v2l1.996-2.125z" fill="#fff"/></g></svg>