<svg xmlns="http://www.w3.org/2000/svg" viewBox="0 0 45 45"><defs><clipPath id="a"><path d="M0 36h36V0H0v36z"/></clipPath></defs><g clip-path="url(#a)" transform="matrix(1.25 0 0 -1.25 0 45)"><path d="M34.999 18.001c0-9.389-7.611-17-17-17S1 8.612 1 18.001 8.61 35 17.999 35s17-7.61 17-16.999"/><path d="M27 9a5.001 5.001 0 0 0-4.899 4h4.9c.116 0 .23.028.343.069.034.013.064.028.096.043.032.017.066.025.097.044.03.02.048.051.075.073a.948.948 0 0 1 .368.669c.003.036.02.066.02.102 0 .027-.014.051-.016.078a.849.849 0 0 1-.04.198.992.992 0 0 1-.071.186c-.013.024-.015.052-.029.075l-2.623 4.122A4.96 4.96 0 0 0 27 19a5 5 0 0 0 5-5 5 5 0 0 0-5-5M9 9a5 5 0 1 0 0 10c.203 0 .396-.036.592-.06l-1.541-4.624A.998.998 0 0 1 9 13a1 1 0 0 1 .948.684l1.543 4.628C12.984 17.447 14 15.85 14 14a5 5 0 0 0-5-5m3.721 13h5.074l-2.111-5.913a7.018 7.018 0 0 1-3.546 4.164L12.721 22zm7.358-7h-2.66l2.5 7h.805l1.715-2.697A6.983 6.983 0 0 1 20.079 15m3.451 2.589L25.178 15h-3.077a4.982 4.982 0 0 0 1.429 2.589M27 21a6.962 6.962 0 0 1-2.873-.622l-3.066 4.818.03.085 2.203-.275a.707.707 0 0 1 .761.479l.709 2.127a.714.714 0 0 1-.241.788.713.713 0 0 1-.825.026c-1.922-1.281-5.948-1.299-5.989-1.299a.71.71 0 0 1-.087-1.413l1.436-.179L18.509 24h-6.176L8.6 26.8c-.443.332 2.223-4.167 2.223-4.167l-.583-1.749A7.034 7.034 0 0 1 9 21 7 7 0 1 1 9 7c3.53 0 6.442 2.615 6.922 6.014.026-.002.052-.014.078-.014h4.079c.487-3.391 3.397-6 6.921-6a7 7 0 0 1 7 7 7 7 0 0 1-7 7" fill="#fff"/><path d="M9 27h5a1 1 0 0 1 0 2H9a1 1 0 0 1 0-2" fill="#fff"/><path d="M2 18c0 3.968 1.453 7.592 3.845 10.388L28.388 5.844A15.928 15.928 0 0 0 18 2C9.164 2 2 9.164 2 18m32 0c0-3.968-1.453-7.591-3.845-10.388L7.612 30.155A15.927 15.927 0 0 0 18 34c8.837 0 16-7.164 16-16M18 36C8.059 36 0 27.94 0 18 0 8.059 8.059 0 18 0S36 8.06 36 18c0 9.94-8.059 18-18 18" fill="#dd2e44"/></g></svg>