<svg xmlns="http://www.w3.org/2000/svg" viewBox="0 0 45 45"><defs><clipPath id="a"><path d="M0 36h36V0H0v36z"/></clipPath></defs><g clip-path="url(#a)" transform="matrix(1.25 0 0 -1.25 0 45)"><path d="M36 4a4 4 0 0 0-4-4H4a4 4 0 0 0-4 4v28a4 4 0 0 0 4 4h28a4 4 0 0 0 4-4V4z" fill="#ea596e"/><path d="M26.795 20.273l-7.041 4.4C20.506 25.308 21 26.334 21 27.5c0 1.932-1.344 3.5-3 3.5-1.657 0-3-1.568-3-3.5 0-1.167.493-2.193 1.245-2.829l-7.04-4.4a1.5 1.5 0 1 1 1.589-2.543l4.355 2.722L10.999 11h3V4.5a1.5 1.5 0 1 1 3 0V11h2V4.5a1.5 1.5 0 0 1 3 0V11h3l-4.15 9.45 4.356-2.721a1.502 1.502 0 0 1 2.068.477 1.502 1.502 0 0 1-.478 2.066" fill="#fff"/></g></svg>