<svg xmlns="http://www.w3.org/2000/svg" viewBox="0 0 45 45"><defs><clipPath id="a"><path d="M0 36h36V0H0v36z"/></clipPath></defs><g clip-path="url(#a)" transform="matrix(1.25 0 0 -1.25 0 45)"><path d="M20.768 1.39a3.916 3.916 0 0 0-5.536 0L1.39 15.233a3.912 3.912 0 0 0-.001 5.535L15.232 34.61a3.912 3.912 0 0 0 5.536 0L34.61 20.768a3.915 3.915 0 0 0 0-5.535L20.768 1.39z" fill="#ffcc4d"/><path d="M19.49 3.093a2.109 2.109 0 0 0-2.98 0L3.094 16.51a2.105 2.105 0 0 0 0 2.98L16.51 32.906a2.105 2.105 0 0 0 2.98 0L32.907 19.49a2.109 2.109 0 0 0 0-2.98L19.49 3.093z"/><path d="M18.745 5.33a1.05 1.05 0 0 0-1.49 0L5.33 17.255a1.054 1.054 0 0 0 0 1.49l11.926 11.926a1.054 1.054 0 0 0 1.49 0L30.67 18.745a1.052 1.052 0 0 0 0-1.49L18.745 5.33z" fill="#ffcc4d"/><path d="M26.707 18.707l-3.618 3.62c.548.355.911.971.911 1.673a2 2 0 0 1-4 0c0-.703.363-1.318.911-1.674l-3.218-3.219-2.216.555c.322.355.523.821.523 1.338a2 2 0 0 1-4 0c0-.669.332-1.259.837-1.622L9.399 16.8A.999.999 0 1 1 10.6 15.2l1.735 1.301-1.395-4.185a1 1 0 1 1 1.897-.633l1.077 3.231 1.142-3.247a1 1 0 1 1 1.887.664l-1.891 5.375 2.705-.677a.997.997 0 0 1 .95.263l1.857 1.858-1.541-6.933a1.001 1.001 0 0 1 1.954-.434L22 16.392l1.023-4.607a1.003 1.003 0 0 1 1.194-.76c.539.12.879.653.76 1.192l-1.541 6.934 1.857-1.857a.999.999 0 1 1 1.414 1.415"/></g></svg>