<svg xmlns="http://www.w3.org/2000/svg" viewBox="0 0 45 45"><defs><clipPath id="a"><path d="M0 36h36V0H0v36z"/></clipPath></defs><g clip-path="url(#a)" transform="matrix(1.25 0 0 -1.25 0 45)"><path d="M15.316 32.74c-1.207-.268 1.054-1.53.684-2.74-.252-.838.225 0 1 0 0 0 .627-1.283.423-3.226-.207-1.94 2.472-2.616 2.677-.673.204 1.941-1.385 2.988-.511 4.5 2.092 3.62-4.273 2.138-4.273 2.138" fill="#af7e57"/><path d="M24 15a1 1 0 0 0-1 1c0 4.52-4.661 9.247-4.708 9.294a1 1 0 0 0 1.415 1.414C19.923 26.491 25 21.353 25 16a1 1 0 0 0-1-1" fill="#9b6a49"/><path d="M16 1a2 2 0 0 0-2 2v7c0 .348.091.69.264.992l4 7a1.999 1.999 0 1 0 3.472-1.984L18 9.469V3a2 2 0 0 0-2-2" fill="#2a6797"/><path d="M25.001 4c-.587 0-1.168.257-1.562.751l-4 5a1.985 1.985 0 0 0-.4.856l-1 5a2 2 0 1 0 3.922.786l.905-4.524 3.696-4.62A2 2 0 0 0 25.001 4" fill="#4289c1"/><path d="M14.998.092L18.579 0c-.34 3.01-1.645 2.043-3.738 2.096-2.094.053-3.816-.904-3.841-1.905l2.999-.076c.305-.006.627-.014.999-.023M26.123 2.862l2.503 2.564c-2.437 1.797-2.618.183-4.078-1.317C23.084 2.611 22.614.7 23.329 0l2.096 2.147.698.715" fill="#292f33"/><path d="M23 17s0-1-2-1h-4c-2 6-.359 12 2 12 3 0 3-4 4-9" fill="#a0041e"/><path d="M18 24.003c-.001-.045-.066-4.552-3.6-7.203l.01-.014A.98.98 0 0 1 14 16a1 1 0 0 1 1-1c.225 0 .423.088.59.214l.01-.014c4.35 3.263 4.4 8.576 4.4 8.8l-2 .003zM22 32a4 4 0 1 0-8 0 4 4 0 0 0 8 0" fill="#af7e57"/><path d="M13 32s0 4 5 4c4 0 4-4 4-4s0 2-3 2c-2.001 0-2-3-6-2" fill="#60352a"/></g></svg>