<svg xmlns="http://www.w3.org/2000/svg" viewBox="0 0 45 45"><defs><clipPath id="a"><path d="M0 36h36V0H0v36z"/></clipPath></defs><g clip-path="url(#a)" transform="matrix(1.25 0 0 -1.25 0 45)"><path d="M36 4a4 4 0 0 0-4-4H4a4 4 0 0 0-4 4v28a4 4 0 0 0 4 4h28a4 4 0 0 0 4-4V4z" fill="#269"/><path d="M1.695 22.598c-.066.286-.088.44-.088.748 0 .704.594 1.452 1.562 1.452 1.056 0 1.562-.616 1.76-1.584l1.87-9.352h.044L9.704 23.5c.242.792.902 1.298 1.716 1.298s1.474-.506 1.716-1.298l2.861-9.638h.044l1.87 9.352c.198.968.704 1.584 1.76 1.584.968 0 1.562-.748 1.562-1.452 0-.308-.02-.462-.088-.748l-2.794-12.014c-.22-.924-.946-1.716-2.178-1.716a2.242 2.242 0 0 0-2.178 1.606l-2.553 8.493h-.044l-2.553-8.493a2.242 2.242 0 0 0-2.177-1.606c-1.233 0-1.959.792-2.179 1.716L1.695 22.598zM29.349 24.93c1.607 0 4.73-.528 4.73-2.464 0-.792-.548-1.475-1.363-1.475-.902 0-1.517.77-3.367.77-2.73 0-4.136-2.31-4.136-4.994 0-2.619 1.43-4.863 4.136-4.863 1.85 0 2.598.924 3.5.924.99 0 1.45-.989 1.45-1.496 0-2.113-3.321-2.596-4.95-2.596-4.466 0-7.568 3.542-7.568 8.097 0 4.576 3.08 8.097 7.568 8.097" fill="#fff"/></g></svg>