<svg xmlns="http://www.w3.org/2000/svg" viewBox="0 0 45 45"><defs><clipPath id="a"><path d="M0 36h36V0H0v36z"/></clipPath></defs><g clip-path="url(#a)" transform="matrix(1.25 0 0 -1.25 0 45)"><path d="M34.999 18.001c0-9.389-7.611-17-17-17S1 8.612 1 18.001 8.61 35 17.999 35s17-7.61 17-16.999"/><path d="M17 17c-1 0-1-1-1-1v-4h-6v4s-.021 1-1.021 1c-1 0-.979-1-.979-1V8s0-2 2-2h6c2 0 2 2 2 2v8s0 1-1 1M28 26h-9v5s0 1-1 1-1-1-1-1v-5c-6 0-6-6-6-6v-1c0-1 1-1 1-1h2s1 0 1 1v1c0 2 2 2 2 2h11c1 0 1 1 1 1v2s0 1-1 1" fill="#fff"/><path d="M16 31h-2a1 1 0 0 1 0-2h2a1 1 0 0 1 0 2M20 29h2a1 1 0 1 1 0 2h-2a1 1 0 1 1 0-2" fill="#fff"/><path d="M2 18c0 3.968 1.453 7.592 3.845 10.388L28.388 5.844A15.928 15.928 0 0 0 18 2C9.164 2 2 9.164 2 18m32 0c0-3.968-1.453-7.591-3.845-10.388L7.612 30.155A15.927 15.927 0 0 0 18 34c8.837 0 16-7.164 16-16M18 36C8.059 36 0 27.94 0 18 0 8.059 8.059 0 18 0S36 8.06 36 18c0 9.94-8.059 18-18 18" fill="#dd2e44"/></g></svg>