<svg xmlns="http://www.w3.org/2000/svg" viewBox="0 0 45 45"><defs><clipPath id="a"><path d="M0 36h36V0H0v36z"/></clipPath></defs><g clip-path="url(#a)" transform="matrix(1.25 0 0 -1.25 0 45)"><path d="M19 20s-3-1.999-3-3c0-1 4-4 5-5s3-1 2 1-4 7-4 7" fill="#cc9b7a"/><path d="M20.634 12.98s1.173-.79 1.962.384c.789 1.174 1.365-1.77 1.365-1.77s-2.56-2.54-4.521-2.925c-1.963-.384-1.174.79-.385 1.962l1.579 2.348" fill="#a0041e"/><path d="M7 2a5 5 0 1 0 0 10A5 5 0 0 0 7 2m0 12A7 7 0 1 1 7 0a7 7 0 0 1 0 14M29 2a5 5 0 1 0 0 10 5 5 0 0 0 0-10m0 12a7 7 0 1 1 .001-14.001A7 7 0 0 1 29 14" fill="#292f33"/><path d="M22 16c0 .553-.484 1-1.083 1H10.083C9.485 17 9 16.553 9 16c0-.553.485-1 1.083-1h10.834c.599 0 1.083.447 1.083 1M30 7a1 1 0 0 1-1 1H18a1 1 0 1 1 0-2h11a1 1 0 0 1 1 1" fill="#744eaa"/><path d="M21.224 19L17.059 7.336A.998.998 0 0 1 17.999 6a1 1 0 0 1 .943.664L23.348 19h-2.124z" fill="#744eaa"/><path d="M29.001 6c-.33 0-.654.164-.845.463l-7 10.999a1 1 0 1 0 1.688 1.075l7-11A1 1 0 0 0 29.001 6M19 10.266l-8.387 6.524a.999.999 0 1 1-1.227-1.58l9-7a.993.993 0 0 1 .613-.21H19v2.266z" fill="#744eaa"/><path d="M7 6a1 1 0 0 0-.95 1.316l2.773 8.317L5.4 18.201A1 1 0 1 0 6.6 19.8l4.577-3.433-3.228-9.683A1.001 1.001 0 0 0 6.999 6" fill="#744eaa"/><path d="M26.383 17a.665.665 0 0 0-.09.006l-5.671.708a.71.71 0 0 0 .087 1.413c.04 0 4.068.018 5.989 1.299.25.168.583.157.825-.026a.712.712 0 0 0 .24-.788l-.708-2.127a.707.707 0 0 0-.672-.485M11 18H6a1 1 0 0 0 0 2h5a1 1 0 0 0 0-2" fill="#292f33"/><path d="M21.999 23L18 20l3-3 .999 6z" fill="#a0041e"/><path d="M19.999 19s-2-3-2-4 1-4 1-7 2-3 2-2 1.581 5.418 0 7c-1 1 2 4 2 4l-3 2z" fill="#d5ab88"/><path d="M21.999 23l-3-4 4-3s5 5 5 7-3 3-3 3l-3-3z" fill="#dd2e44"/><path d="M10 31c-1-1 0-2 0-3s2 0 2 0 .999 1 1.999-1c1-1.999 4.001-1 3 1-1 2-4 1-4 3S10 31 10 31" fill="#d5ab88"/><path d="M15 33c0-1 0-4-1-4s-1 1-2 2 3 2 3 2" fill="#963b22"/><path d="M13 24c0-2-3-5-4-5s-2 0-2-1 0-1 2-1 4 2 5 3 2 3 2 4 1 1 2 0 2-2 3-2 6 4 6 4c-3 1-4.104 2.368-6 3-3 1-5.587.414-7-1-1-1-1-2-1-4" fill="#292f33"/><path d="M15.67 22.666l-2.744.784C12.48 21.494 9.912 19.001 9 19.001c-1 0-2 0-2-1s0-1 2-1 4 2 5 3c.649.649 1.294 1.719 1.67 2.665" fill="#d5ab88"/><path d="M19 7s1-1 2 0 1-2 1-2-3-2-5-2-1 1 0 2l2 2z" fill="#dd2e44"/><path d="M11 34c2 1 6 0 4-2-1-1-7-2-7-2 0 1 1 3 3 4" fill="#744eaa"/></g></svg>