<svg xmlns="http://www.w3.org/2000/svg" viewBox="0 0 45 45"><defs><clipPath id="a"><path d="M0 36h36V0H0v36z"/></clipPath></defs><g clip-path="url(#a)" transform="matrix(1.25 0 0 -1.25 0 45)"><path d="M7 12c1.957 0 3.633-1.135 4.455-2.773l3.478 1.74C13.489 13.942 10.447 16 6.917 16a8.855 8.855 0 0 1-3.65-.787l1.669-3.67A4.968 4.968 0 0 0 7 12M29 12a4.973 4.973 0 0 0 3.688-1.648l2.897 2.634A8.881 8.881 0 0 1 28.916 16c-3.576 0-6.652-2.111-8.073-5.15l3.648-1.722C25.293 10.82 27.003 12 29 12" fill="#ea596e"/><path d="M7 2a5 5 0 1 0 0 10A5 5 0 0 0 7 2m0 12A7 7 0 1 1 7 0a7 7 0 0 1 0 14M29 2a5 5 0 1 0 0 10 5 5 0 0 0 0-10m0 12a7 7 0 1 1 .001-14.001A7 7 0 0 1 29 14" fill="#292f33"/><path d="M29.984 7.078a.98.98 0 0 1-.04.198c-.02.066-.04.126-.07.186-.014.024-.016.052-.03.075l-7 11a1 1 0 0 1-1.38.306.983.983 0 0 1-.447-.843H12a1 1 0 1 1 0-2h10c.027 0 .05.014.077.016L27.177 8H18a1 1 0 1 1 0-2h11.001c.116 0 .23.028.342.07.034.012.065.027.097.042.031.017.065.025.097.044.03.02.048.051.075.072a.948.948 0 0 1 .252.297.93.93 0 0 1 .115.373c.004.035.021.066.021.102 0 .027-.014.051-.016.078" fill="#dd2e44"/><path d="M21.581 20l-2.9-8.117-5.928 6.775a1 1 0 1 1-1.505-1.317l6.664-7.615-.854-2.39a1 1 0 0 1 1.884-.672L23.705 20h-2.124z" fill="#dd2e44"/><path d="M7 6a1 1 0 0 0-.894 1.447l3.062 6.107c.019.027 1.833 2.795 1.833 5.445 0 3.242-2.293 4.044-2.316 4.052a1 1 0 1 0 .632 1.897c.15-.05 3.684-1.281 3.684-5.949 0-3.067-1.836-6.041-2.131-6.497L7.896 6.553A1 1 0 0 0 7 6" fill="#dd2e44"/><path d="M14.612 22.337a.927.927 0 0 0-.165.014l-6 1a1 1 0 1 0 .33 1.972l6-1a1 1 0 0 0-.165-1.986M26.383 19a.665.665 0 0 0-.09.006l-5.671.708a.71.71 0 0 0 .087 1.413c.04 0 4.068.018 5.989 1.299.25.168.583.157.825-.026a.712.712 0 0 0 .24-.788l-.708-2.127a.707.707 0 0 0-.672-.485" fill="#292f33"/><path d="M20 7a2 2 0 1 0-4 0 2 2 0 0 0 4 0" fill="#66757f"/></g></svg>