<svg xmlns="http://www.w3.org/2000/svg" viewBox="0 0 45 45"><defs><clipPath id="a"><path d="M0 36h36V0H0v36z"/></clipPath></defs><g clip-path="url(#a)" transform="matrix(1.25 0 0 -1.25 0 45)"><path d="M26 18v-2H13.293c-.867 0-1.835-.895-2.161-2L7.59 2C7.264.895 7.896 0 9 0h18a2 2 0 0 1 2 2v10a3.99 3.99 0 0 0 3 3.858V18h-6z" fill="#aab8c2"/><path d="M22 14.125C22 10.605 17.523 7 12 7S2 10.605 2 14.125C2 16 2.833 16 12 16c9.166 0 10 0 10-1.875M25 17c0-.553-.514-1-1.15-1H3.15C2.515 16 2 16.447 2 17c0 .553.515 1 1.15 1h20.7c.636 0 1.15-.447 1.15-1" fill="#e1e8ed"/><path d="M18 20H6a2 2 0 0 1-2-2h16a2 2 0 0 1-2 2M20 36V18c1.105 0 2 1.007 2 2.25v13.5c0 1.243-.895 2.25-2 2.25" fill="#99aab5"/><path d="M34 32a2 2 0 0 1-2 2h-8a2 2 0 0 1-2-2V18a2 2 0 0 1 2-2h8a2 2 0 0 1 2 2v14z" fill="#e1e8ed"/><path d="M22 20a2 2 0 1 0-4 0 2 2 0 0 0 4 0M34 30H22v2h12v-2z" fill="#ccd6dd"/><path d="M25 15a1 1 0 0 0-1-1H3a1 1 0 1 0 0 2h21a1 1 0 0 0 1-1" fill="#aab8c2"/></g></svg>