<svg xmlns="http://www.w3.org/2000/svg" viewBox="0 0 45 45"><defs><clipPath id="a"><path d="M0 36h36V0H0v36z"/></clipPath></defs><path d="M26.25 37.5h-7.5v-5h7.5v5z" fill="#f4900c"/><g clip-path="url(#a)" transform="matrix(1.25 0 0 -1.25 0 45)"><path d="M30 18c0-7 3-4 3-7 0 0 0-2-2-2H5c-2 0-2 2-2 2 0 3 3 0 3 7 0 5.523 6.477 8 12 8s12-2.477 12-8" fill="#ffac33"/><path d="M21 26a3 3 0 1 1-6 0 3 3 0 0 1 6 0" fill="#ffac33"/><path d="M35 3a2 2 0 0 0-2-2H3a2 2 0 0 0 0 4h30a2 2 0 0 0 2-2" fill="#c1694f"/><path d="M33 5a2 2 0 0 0-2-2H5a2 2 0 0 0 0 4h26a2 2 0 0 0 2-2" fill="#c1694f"/></g></svg>