<svg xmlns="http://www.w3.org/2000/svg" viewBox="0 0 45 45"><defs><clipPath id="a"><path d="M0 36h36V0H0v36z"/></clipPath></defs><g clip-path="url(#a)" transform="matrix(1.25 0 0 -1.25 0 45)"><path d="M36 4a4 4 0 0 0-4-4H4a4 4 0 0 0-4 4v28a4 4 0 0 0 4 4h28a4 4 0 0 0 4-4V4z" fill="#269"/><path d="M31 25a6 6 0 0 0-12 0h12zM31 31H19a1 1 0 0 1-1-1c0-.182.049-.569.134-1.007-.045.002-.088.007-.134.007-1.104 0-2-.448-2-1s.896-1 2-1c.37 0 .684.003.971.008.009-.002.019-.008.029-.008h12c.553 0 1 2.448 1 3a1 1 0 0 1-1 1M15 10c-5.013 0-7.558 3.731-7.664 3.891a2 2 0 1 0 3.328 2.218C10.713 16.04 12.173 14 15 14c2.85 0 4.322 2.088 4.336 2.109a2 2 0 0 0 3.328-2.218C22.559 13.731 20.013 10 15 10" fill="#f5f8fa"/><path d="M28 17h-7a2 2 0 0 1-2-2V8l9 9zM30.82 15.82L19 4a2 2 0 0 1 2-2h8a2 2 0 0 1 2 2v11c0 .293-.067.57-.18.82M12 32.96l-6-1.43a1.311 1.311 0 0 1-.426-.224L11 30.04c.552-.157 1-.733 1-1.285V22.96c.552.157 1 .732 1 1.285v8c0 .553-.448.872-1 .715" fill="#f5f8fa"/><path d="M10 19.245c0-.553-.448-.872-1-.715l-5 1.43c-.552.157-1 .732-1 1.285v8c0 .553.448.872 1 .715l5-1.43c.552-.157 1-.733 1-1.285v-8z" fill="#f5f8fa"/></g></svg>