<svg xmlns="http://www.w3.org/2000/svg" viewBox="0 0 45 45"><defs><clipPath id="a"><path d="M0 36h36V0H0v36z"/></clipPath></defs><g clip-path="url(#a)" transform="matrix(1.25 0 0 -1.25 0 45)"><path d="M36 4a4 4 0 0 0-4-4H4a4 4 0 0 0-4 4v28a4 4 0 0 0 4 4h28a4 4 0 0 0 4-4V4z" fill="#269"/><path d="M32.828 27a6 6 0 0 0-12 0h12zM32.828 33h-12a1 1 0 0 1-1-1c0-.182.05-.569.134-1.007-.045.002-.088.007-.134.007-1.104 0-2-.448-2-1s.896-1 2-1c.37 0 .684.003.971.008.01-.002.02-.008.03-.008h12c.552 0 1 2.448 1 3a1 1 0 0 1-1 1M32.648 17.82L20.828 6a2 2 0 0 1 2-2h8a2 2 0 0 1 2 2v11c0 .293-.067.57-.18.82M29.828 19h-7c-.057 0-.11-.012-.166-.017-1.318.071-2.796-.118-3.248-.569l-5.828-6a2 2 0 0 1 2.83-2.829l4.412 4.544V10l9 9z" fill="#f5f8fa"/><path d="M15 8H6v9a2 2 0 0 1-4 0V8a2 2 0 0 1 2-2 2 2 0 0 1 2-2h9a2 2 0 0 1 0 4" fill="#f5f8fa"/></g></svg>