<svg xmlns="http://www.w3.org/2000/svg" viewBox="0 0 45 45"><defs><clipPath id="a"><path d="M0 36h36V0H0v36z"/></clipPath></defs><g clip-path="url(#a)" transform="matrix(1.25 0 0 -1.25 0 45)"><path d="M11 19c1-3 .209-5-2-5s-5.012 2.024-6 4c-1 2 .904 4.301 3 5 3 1 4.368-2.102 5-4" fill="#f3d2a2"/><path d="M9 23c0 1-3 2-6-1s1.021-5 1.021-5S8 14 7 17 9 22 9 23" fill="#ffe51e"/><path d="M30 20c0-.552.896-1 2-1 1.105 0 2 .448 2 1s-.895 1-2 1c-1.104 0-2-.448-2-1" fill="#99aab5"/><path d="M33 15a1 1 0 0 0-1 1v16c0 1.582-1.962 2-3 2s-3-.418-3-2a1 1 0 1 0-2 0c0 2.626 2.516 4 5 4s5-1.374 5-4V16a1 1 0 0 0-1-1" fill="#ccd6dd"/><path d="M28 30c0-1.104-1.343-1-3-1s-3-.104-3 1c0 1.105 1.343 2 3 2s3-.895 3-2" fill="#99aab5"/><path d="M29 29a1 1 0 0 0-1-1h-6a1 1 0 1 0 0 2h6a1 1 0 0 0 1-1" fill="#ccd6dd"/><path d="M14 2a2 2 0 1 0-4 0 2 2 0 0 0 4 0M30 2a2 2 0 1 0-4 0 2 2 0 0 0 4 0" fill="#99aab5"/><path d="M30 2H12C7 2 2 8 1 16c-.248 1.984.812 1 3.021 1C4.021 17 17 15 30 15c2 0 5 1.209 5-1 0 0-1-12-5-12" fill="#ccd6dd"/><path d="M36 15a1 1 0 0 0-1-1L1 16a1 1 0 1 0 0 2l34-2a1 1 0 0 0 1-1" fill="#99aab5"/></g></svg>