<svg xmlns="http://www.w3.org/2000/svg" viewBox="0 0 45 45"><defs><clipPath id="a"><path d="M0 36h36V0H0v36z"/></clipPath></defs><g clip-path="url(#a)" transform="matrix(1.25 0 0 -1.25 0 45)"><path d="M11 36a8 8 0 0 1-8-8v-8h2v8a6 6 0 0 0 12 0v-8h2v8a8 8 0 0 1-8 8" fill="#f4900c"/><path d="M1 28l2-2 2 2 2-2 2 2 2-2 2 2 2-2 2 2 2-2 2 2V5H1v23z" fill="#dd2e44"/><path d="M25 31a7.999 7.999 0 0 1-7.999-8v-8H19v8a6 6 0 0 0 12 0v-8h2v8a8 8 0 0 1-8 8" fill="#ffcc4d"/><path d="M15 23l2.001-2L19 23l2-2 2 2 2-2 2 2 2-2 2 2 2-2 2 2V0H15.001L15 23z" fill="#744eaa"/></g></svg>