<svg xmlns="http://www.w3.org/2000/svg" viewBox="0 0 45 45"><defs><clipPath id="a"><path d="M0 36h36V0H0v36z"/></clipPath></defs><g clip-path="url(#a)" transform="matrix(1.25 0 0 -1.25 0 45)"><path d="M31 6.5a1.5 1.5 0 0 0-3 0v24a1.5 1.5 0 1 0 3 0v-24z" fill="#ccd6dd"/><path d="M34.882 4c.037.164.062.33.062.5 0 1.933-2.462 3.5-5.5 3.5-3.037 0-5.5-1.567-5.5-3.5 0-.17.026-.336.063-.5h10.875z" fill="#ccd6dd"/><path d="M35.944 27c.334-1.125-.896-2-2-2h-9c-1.105 0-2.29 1-2 2l2 7c.25 1.083.895 2 2 2h5c1.104 0 1.75-1.125 2-2l2-7z" fill="#fcab40"/><path d="M29.006 6.9c0-1.216-1.017-2.2-2.271-2.2H6.295c-1.253 0-2.27.984-2.27 2.2v9.9c0 1.214 1.017 2.2 2.27 2.2h20.44c1.254 0 2.27-.986 2.27-2.2V6.9z" fill="#5d9040"/><path d="M27.5 4.7a2.2 2.2 0 0 0-2.2-2.2H6.6a2.2 2.2 0 0 0-2.2 2.2v1.1A2.2 2.2 0 0 0 6.6 8h18.7a2.2 2.2 0 0 0 2.2-2.2V4.7z" fill="#3f7123"/><path d="M29 16.875c0-3.383-5.589-6.125-12.484-6.125S4.031 13.492 4.031 16.875c0 3.382 5.59 6.125 12.485 6.125S29 20.257 29 16.875" fill="#5d9040"/><path d="M6.6 12.4A3.3 3.3 0 1 0 0 12.4a3.3 3.3 0 0 0 6.601 0" fill="#78b159"/><path d="M6.6 2.5a2.2 2.2 0 0 0-4.4 0v9.899a2.2 2.2 0 1 0 4.4 0V2.5zM26.4 12.4a3.3 3.3 0 1 1 6.6 0 3.3 3.3 0 0 1-6.6 0" fill="#78b159"/><path d="M26.4 2.5a2.2 2.2 0 1 1 4.4 0v9.899a2.2 2.2 0 0 1-4.399 0V2.5zM16.5 8a2.2 2.2 0 0 0-2.2-2.2H8.8a2.2 2.2 0 0 0 0 4.4h5.5A2.2 2.2 0 0 0 16.5 8" fill="#78b159"/><path d="M26.4 8a2.2 2.2 0 0 0-2.2-2.2h-5.5a2.2 2.2 0 1 0 0 4.4h5.5A2.2 2.2 0 0 0 26.4 8" fill="#78b159"/><path d="M27 5H6v3h21V5z" fill="#78b159"/></g></svg>