<svg xmlns="http://www.w3.org/2000/svg" viewBox="0 0 45 45"><defs><clipPath id="a"><path d="M0 36h36V0H0v36z"/></clipPath></defs><g clip-path="url(#a)" transform="matrix(1.25 0 0 -1.25 0 45)"><path d="M36 4a4 4 0 0 0-4-4H4a4 4 0 0 0-4 4v28a4 4 0 0 0 4 4h28a4 4 0 0 0 4-4V4z" fill="#269"/><path d="M29 28h-2V10h2a2 2 0 0 1 2 2v14a2 2 0 0 1-2 2M7 28a2 2 0 0 1-2-2V12a2 2 0 0 1 2-2h2v18H7zM15 30a1 1 0 0 0 1 1h4a1 1 0 0 0 1-1v-2h-6v2zm8-2v3a2 2 0 0 1-2 2h-6a2 2 0 0 1-2-2v-3h-2V10h14v18h-2zM33 8H3a1 1 0 1 1 0-2h1a2 2 0 0 1 4 0h2a2 2 0 0 1 4 0h2a2 2 0 0 1 4 0h2a2 2 0 0 1 4 0h2a2 2 0 0 1 4 0h1a1 1 0 1 1 0 2" fill="#f5f8fa"/></g></svg>