<svg xmlns="http://www.w3.org/2000/svg" viewBox="0 0 45 45"><defs><clipPath id="a"><path d="M0 36h36V0H0v36z"/></clipPath></defs><g clip-path="url(#a)" transform="matrix(1.25 0 0 -1.25 0 45)"><path d="M36 4a4 4 0 0 0-4-4H4a4 4 0 0 0-4 4v28a4 4 0 0 0 4 4h28a4 4 0 0 0 4-4V4z" fill="#269"/><path d="M26 19h-1V6h1a2 2 0 0 1 2 2v9a2 2 0 0 1-2 2M10 19a2 2 0 0 1-2-2V8a2 2 0 0 1 2-2h1v13h-1zM16 20a1 1 0 0 0 1 1h2a1 1 0 0 0 1-1v-1h-4v1zm6-1v2a2 2 0 0 1-2 2h-4a2 2 0 0 1-2-2v-2h-1V6h10v13h-1z" fill="#f5f8fa"/><path d="M32 5a1 1 0 0 0-1-1H5a1 1 0 0 0-1 1v18a1 1 0 0 0 1 1h26a1 1 0 0 0 1-1V5zm0 21H4a2 2 0 0 1-2-2V4a2 2 0 0 1 2-2h28a2 2 0 0 1 2 2v20a2 2 0 0 1-2 2M13.5 29a1.5 1.5 0 1 0-.001 2.999A1.5 1.5 0 0 0 13.5 29M24 32h-6.35a3.49 3.49 0 0 1-3.15 2 3.5 3.5 0 1 1 0-7 3.49 3.49 0 0 1 3.45 3h1.719c.247-.926.747-2 1.331-2s1.084 1.074 1.331 2H23c0-1.104.448-2 1-2s1 1 1 3c0 1.105-.448 1-1 1" fill="#f5f8fa"/></g></svg>