<svg xmlns="http://www.w3.org/2000/svg" viewBox="0 0 45 45"><defs><clipPath id="a"><path d="M0 36h36V0H0v36z"/></clipPath><clipPath id="b"><path d="M13 13h21v2.223c0 1.924-1.075 1.555-3 1.555L17 19c-3.208 0-4-6-4-6"/></clipPath></defs><g clip-path="url(#a)" transform="matrix(1.25 0 0 -1.25 0 45)"><path d="M17 19h-2c-1.1 0-2-.9-2-2v-4c0-1.1.9-2 2-2h1c1.1 0 2 .9 2 2v4c0 1.1.1 2-1 2" fill="#aa8dd8"/><path d="M1 8h34V3H1v5z" fill="#c1694f"/><path d="M0 1a1 1 0 1 1 2 0v22a1 1 0 1 1-2 0V1z" fill="#c1694f"/><path d="M32 13H4a2 2 0 0 1-2-2V7h32v4a2 2 0 0 1-2 2" fill="#269"/><path d="M34 13H4a2 2 0 0 1-2-2V7h32v4c0 1.105 1.105 2 0 2" fill="#55acee"/><path d="M13 13H4a2 2 0 0 1-2-2V7h10l1 6z" fill="#bdddf4"/><path d="M2.114 15.72c-.283-1.212 1.897-2.517 4.871-2.915 2.974-.4 5.614.262 5.898 1.475.284 1.212-1.897 2.518-4.87 2.917-2.975.398-5.616-.263-5.899-1.476" fill="#5c913b"/><path d="M34 13H13s.792 6 4 6l14-1.222c1.925 0 3-.853 3-2.778v-2z" fill="#55acee"/><path d="M36 1a1 1 0 1 0-2 0v14a1 1 0 1 0 2 0V1z" fill="#c1694f"/><path d="M10.976 19.62c2.105-1.09 3.195-3.166 2.434-4.638-.761-1.47-3.085-1.782-5.19-.693-2.106 1.09-3.196 3.165-2.435 4.637.762 1.472 3.086 1.782 5.19.693" fill="#ffdc5d"/><path d="M7.875 13.624s-3.812 1.972-2.09 5.303c1.379 2.665 5.19.693 5.19.693s-1.905.986-2.94-1.013c-.688-1.333 2.17-2.811-.16-4.983" fill="#ffac33"/></g><g clip-path="url(#b)" transform="matrix(1.25 0 0 -1.25 0 45)"><path d="M34 13H13c-.275 0-.5.225-.5.5s.225.5.5.5h21c.275 0 .5-.225.5-.5s-.225-.5-.5-.5" fill="#269"/><path d="M34 14H13c-.275 0-.5.225-.5.5s.225.5.5.5h21c.275 0 .5-.225.5-.5s-.225-.5-.5-.5" fill="#3b88c3"/></g></svg>