<svg xmlns="http://www.w3.org/2000/svg" viewBox="0 0 45 45"><defs><clipPath id="a"><path d="M0 36h36V0H0v36z"/></clipPath></defs><path d="M1.25 35h42.5v6.25H1.25V35z" fill="#c1694f"/><g clip-path="url(#a)" transform="matrix(1.25 0 0 -1.25 0 45)"><path d="M36 1a1 1 0 1 0-2 0v14a1 1 0 1 0 2 0V1zM0 1a1 1 0 1 1 2 0v22a1 1 0 1 1-2 0V1z" fill="#c1694f"/><path d="M32 13H4a2 2 0 0 1-2-2V7h32v4a2 2 0 0 1-2 2" fill="#269"/><path d="M32 13H4a2 2 0 0 1-2-2V7h32v4a2 2 0 0 1-2 2" fill="#55acee"/><path d="M2.126 16.063c-.261-1.073 1.485-2.42 3.9-3.006 2.415-.588 4.584-.193 4.846.88.261 1.074-1.485 2.42-3.9 3.008-2.415.586-4.585.192-4.846-.882" fill="#5c913b"/></g></svg>