<svg xmlns="http://www.w3.org/2000/svg" viewBox="0 0 45 45"><defs><clipPath id="a"><path d="M0 36h36V0H0v36z"/></clipPath></defs><g clip-path="url(#a)" transform="matrix(1.25 0 0 -1.25 0 45)"><path d="M36 4a4 4 0 0 0-4-4H4a4 4 0 0 0-4 4v28a4 4 0 0 0 4 4h28a4 4 0 0 0 4-4V4z" fill="#9266cc"/><path d="M21.52 25.296c.52-1.843-.268-3.68-1.764-4.103-1.493-.423-3.128.73-3.65 2.573-.522 1.843.268 3.68 1.762 4.103 1.496.423 3.13-.73 3.652-2.573M10.916 21.375C11.958 20.25 13 19 14 18s6.625 2.667 7.625 2.667S25 19 26 15c.528-2.107.793-4.458.543-5C25.69 8.472 23.003 6.335 22 6h5c1 0 2-1 2-2s-1-2-2-2H15.71c-2.5 0-2.178 2.665-.71 4 2.292 2.083 3.625 3.25 4.625 4.25 0 1-.875 5.042-1.875 5.042C17.75 15.292 15 14 14 14c-2 0-3.924 4.04-5 6-.708 1.292 1.094 2.264 1.917 1.375M18.51 33.519a1.346 1.346 0 0 0-.503-1.834l-11.69-6.649a1.345 1.345 0 1 0-1.33 2.338l11.69 6.649c1.264.699 1.466.142 1.834-.504" fill="#fff"/><path d="M17.035 33.519a1.346 1.346 0 0 1 .504-1.834l11.69-6.649a1.345 1.345 0 1 1 1.33 2.338l-11.69 6.649c-1.601.699-1.466.142-1.834-.504" fill="#fff"/></g></svg>