<svg xmlns="http://www.w3.org/2000/svg" viewBox="0 0 45 45"><defs><clipPath id="a"><path d="M0 36h36V0H0v36z"/></clipPath></defs><g clip-path="url(#a)" transform="matrix(1.25 0 0 -1.25 0 45)"><path d="M34.247 29.676l-2.742-2.743s-1.829-.914-3.657.915c-1.83 1.828-.915 3.657-.915 3.657l2.743 2.743c.915.914-.184 1.752-1.009 1.752a7.333 7.333 0 0 1-7.334-7.333c0-.57.072-1.121.194-1.654l-6.199-6.2 5.485-5.484 6.2 6.199a7.332 7.332 0 0 1 1.654-.194A7.333 7.333 0 0 1 36 28.667c0 .83-.839 1.924-1.753 1.009M5.763 4.162a1.482 1.482 0 1 0 0 2.964 1.482 1.482 0 0 0 0-2.964m9.457 16.474L3.032 8.448a3.83 3.83 0 1 1 5.417-5.417L20.636 15.22l-5.416 5.417z" fill="#8899a6"/><path d="M30.83 2.72c1.166-1.165 3.022-1.22 4.121-.12 1.1 1.1 1.045 2.955-.12 4.12L11.564 29.988c-1.166 1.166-3.02 1.22-4.12.12s-1.046-2.954.12-4.12L30.83 2.72z" fill="#f4900c"/><path d="M21.444 35.107s-6 3-11-2l-7-7s-1 1-2 0l-1-1s-1-1 0-2l4-4s1-1 2 0l1 1s1 1 0 2l-.078.078c.77.743 1.923 1.5 3.078.922l4 4s-1 3 1 5 3 2 5 2 1 1 1 1" fill="#66757f"/></g></svg>