<svg xmlns="http://www.w3.org/2000/svg" viewBox="0 0 45 45"><defs><clipPath id="a"><path d="M0 36h36V0H0v36z"/></clipPath></defs><g clip-path="url(#a)" transform="matrix(1.25 0 0 -1.25 0 45)"><path d="M36 4s0-4-4-4H4S0 0 0 4v28c0 4 4 4 4 4h28c4 0 4-4 4-4V4z" fill="#88c9f9"/><path d="M0 4c0-4 4-4 4-4h28c4 0 4 4 4 4v13H0V4z" fill="#77b255"/><path d="M22.375 17h-8.75L2.263.384A5.079 5.079 0 0 1 4 0h28c.71 0 1.289.13 1.77.338L22.375 17z" fill="#c1694f"/><path d="M3.563 20.875c2.132 0 3.553-2.252 4.62-2.252 1.067 0 1.208.502 2.63.502 1.421 0 1.858-2.125 3.414-2.125H0l.006 2.001s1.336 1.874 3.558 1.874M32.438 19.688c-2.134 0-3.555-1.064-4.622-1.064-1.066 0-1.269.127-2.69.127-1.423 0-1.798-1.752-3.354-1.752H36l-.006 2.002s-1.334.686-3.557.686" fill="#5c913b"/><path d="M29.314 31.322c-.274 0-.54-.042-.787-.12a2.163 2.163 0 0 1-2.04 1.45 2.162 2.162 0 0 1-2.096-1.636c-.25.189-.56.306-.898.306-.827 0-1.497-.67-1.497-1.497 0-.201.04-.391.114-.566a1.66 1.66 0 0 1-.446.067 1.663 1.663 0 1 1 0-3.326h7.65a2.662 2.662 0 0 1 0 5.322" fill="#f5f8fa"/><path d="M4 0h28L21.375 17h-6.75L4 0z" fill="#ccd6dd"/><path d="M6.625 0h22.75l-8.75 17h-5.25L6.625 0z" fill="#58595b"/><path d="M9.25 0h17.5l-6.875 17h-3.75L9.25 0z" fill="#808285"/><path d="M28 1a1 1 0 0 0-1-1H9a1 1 0 1 0 0 2h18a1 1 0 0 0 1-1M26 5a1 1 0 0 0-1-1H11a1 1 0 1 0 0 2h14a1 1 0 0 0 1-1M24 9a1 1 0 0 0-1-1H13a1 1 0 1 0 0 2h10a1 1 0 0 0 1-1M22 12.3c0-.387-.224-.7-.5-.7h-7c-.276 0-.5.313-.5.7 0 .387.224.7.5.7h7c.276 0 .5-.313.5-.7M21 14.666a.4.4 0 0 0-.4-.399h-5.2c-.221 0-.4.178-.4.399v.201a.4.4 0 0 0 .4.4h5.2a.4.4 0 0 0 .4-.4v-.201zM20 16.768c0-.085-.18-.412-.4-.412h-3.2c-.221 0-.4.327-.4.412v.078c0 .085.179.154.4.154h3.2c.22 0 .4-.07.4-.154v-.078z" fill="#a7a9ac"/></g></svg>