<svg xmlns="http://www.w3.org/2000/svg" viewBox="0 0 45 45"><defs><clipPath id="a"><path d="M0 36h36V0H0v36z"/></clipPath></defs><g clip-path="url(#a)" transform="matrix(1.25 0 0 -1.25 0 45)"><path d="M36 4s0-4-4-4H4S0 0 0 4v28c0 4 4 4 4 4h28c4 0 4-4 4-4V4z" fill="#88c9f9"/><path d="M0 4c0-4 4-4 4-4h28c4 0 4 4 4 4v13H0V4z" fill="#77b255"/><path d="M22.375 17h-8.75L2.263.384A5.079 5.079 0 0 1 4 0h28c.71 0 1.289.13 1.77.338L22.375 17z" fill="#d99e82"/><path d="M31.314 33.322c-.274 0-.54-.042-.787-.12a2.163 2.163 0 0 1-2.04 1.45 2.162 2.162 0 0 1-2.096-1.636c-.25.189-.56.306-.898.306-.827 0-1.497-.67-1.497-1.497 0-.201.04-.391.114-.566a1.66 1.66 0 0 1-.446.067 1.663 1.663 0 1 1 0-3.326h7.65a2.662 2.662 0 0 1 0 5.322" fill="#f5f8fa"/><path d="M4 0h28L21.375 17h-6.75L4 0z" fill="#58595b"/><path d="M6.625 0h22.75l-8.75 17h-5.25L6.625 0z" fill="#808285"/><path d="M24 0h-1l-4 17h.469L24 0zM17 17L13 0h-1l4.469 16.938" fill="#ccd6dd"/><path d="M25 2H11v1h14V2zM25 5H11v1h14V5zM23.937 7.687h-12v1h12v-1zM23 10H13v1h10v-1zM22 12h-8v1h8v-1zM21 14h-6v.687h6V14zM21 15.438h-6v.687h6v-.687z" fill="#808285"/><path d="M8 14.5a.5.5 0 0 0-1 0v11a.5.5 0 0 0 1 0v-11zM29 14.404a.404.404 0 0 0-.404-.404h-.192a.404.404 0 0 0-.404.404v11.191c0 .224.181.405.404.405h.192a.404.404 0 0 0 .404-.405v-11.19z" fill="#66757f"/><path d="M29 25.5a.5.5 0 0 0-.5-.5h-21a.5.5 0 0 0 0 1h21a.5.5 0 0 0 .5-.5M29 20.384a.384.384 0 0 0-.384-.384H7.384a.384.384 0 0 0-.384.384v.232c0 .212.172.384.384.384h21.232a.384.384 0 0 0 .384-.384v-.232z" fill="#66757f"/><path d="M27 21a1 1 0 0 0-1-1H10a1 1 0 0 0-1 1v4a1 1 0 0 0 1 1h16a1 1 0 0 0 1-1v-4z" fill="#5c913b"/><path d="M15 23h-2v2h2v-2z" fill="#a6d488"/><path d="M16 21h-4v1h4v-1z" fill="#77b255"/><path d="M23 23h-2v2h2v-2z" fill="#a6d488"/><path d="M24 21h-4v1h4v-1z" fill="#77b255"/></g></svg>