<svg xmlns="http://www.w3.org/2000/svg" viewBox="0 0 45 45"><defs><clipPath id="a"><path d="M0 36h36V0H0v36z"/></clipPath></defs><path d="M36.25 42.5H8.75V31.25h27.5V42.5zM36.25 28.75H8.75V17.5h27.5v11.25zM36.25 16.25H8.75V3.75h27.5v12.5z" fill="#3b88c3"/><g clip-path="url(#a)" transform="matrix(1.25 0 0 -1.25 0 45)"><path d="M30 32.822a.822.822 0 0 0-.822-.822H6.822a.822.822 0 0 0-.822.822v.355c0 .455.368.823.822.823h22.356a.822.822 0 0 0 .822-.823v-.355zM30 21.822a.822.822 0 0 0-.822-.822H6.822a.822.822 0 0 0-.822.822v.355c0 .455.368.823.822.823h22.356a.822.822 0 0 0 .822-.823v-.355zM30 11.822a.822.822 0 0 0-.822-.822H6.822a.822.822 0 0 0-.822.822v.355c0 .455.368.823.822.823h22.356a.822.822 0 0 0 .822-.823v-.355zM30 .822A.822.822 0 0 0 29.178 0H6.822A.822.822 0 0 0 6 .822v.355c0 .455.368.823.822.823h22.356A.822.822 0 0 0 30 1.177V.822z" fill="#269"/><path d="M26 34.872a.873.873 0 0 0-.872-.872h-2.256a.873.873 0 0 0-.872.872v.256c0 .481.391.872.872.872h2.256a.873.873 0 0 0 .872-.872v-.256z" fill="#99aab5"/></g></svg>