<svg xmlns="http://www.w3.org/2000/svg" viewBox="0 0 45 45"><defs><clipPath id="a"><path d="M0 36h36V0H0v36z"/></clipPath></defs><g clip-path="url(#a)" transform="matrix(1.25 0 0 -1.25 0 45)"><path d="M35 17a1 1 0 0 0-1-1h-3a1 1 0 0 0-1 1v2a1 1 0 0 0 1 1h3a1 1 0 0 0 1-1v-2z" fill="#66757f"/><path d="M32 11h2v7h-2v-7z" fill="#66757f"/><path d="M6 16.781s5 4.22 10 4.22h.029L16 16s0-1-4-1-6 1.78-6 1.78" fill="#e1e8ed"/><path d="M7.248 16.9C10.798 19.59 14 19.956 15 19.956V16c0-3.162-7.752.9-7.752.9" fill="#3b88c3"/><path d="M33 11.036s.5 4.013-1 5.731L1 17.914s2-3.439 6-5.732c4-2.292 26-1.146 26-1.146" fill="#ccd6dd"/><path d="M7 12.183c4-2.292 26-1.146 26-1.146s.288 2.334-.24 4.206L2.078 16.412c.977-1.206 2.614-2.906 4.922-4.23" fill="#f4900c"/><path d="M36 12H0V0h36v12z" fill="#55acee"/></g></svg>