<svg xmlns="http://www.w3.org/2000/svg" viewBox="0 0 45 45"><defs><clipPath id="a"><path d="M0 36h36V0H0v36z"/></clipPath></defs><g clip-path="url(#a)" transform="matrix(1.25 0 0 -1.25 0 45)"><path d="M25.82 25.27a.465.465 0 0 0-.638.158l-3.134 5.2a.462.462 0 0 0 .157.637l.061.038c.22.132.505.062.637-.158l3.136-5.201a.464.464 0 0 0-.158-.636l-.062-.038z" fill="#66757f"/><path d="M25.27 25.82a.464.464 0 0 1 .158-.637l5.2-3.135a.463.463 0 0 1 .637.157l.037.062a.462.462 0 0 1-.158.637l-5.2 3.135a.464.464 0 0 1-.637-.158l-.037-.062z" fill="#66757f"/><path d="M13.049 3.856l-3.536 4.95-.707.707-4.95 3.535a.999.999 0 0 1-1.413 0L.32 10.928a1 1 0 0 1 0-1.415L9.513.321a1 1 0 0 1 1.415 0l2.12 2.121a.999.999 0 0 1 0 1.414" fill="#be1931"/><path d="M23.204 18.253C16.21 11.26 3.535 2.696 3.116 3.116c-.42.42 8.144 13.093 15.138 20.087 6.993 6.993 8.821 6.606 10.188 5.238 1.366-1.366 1.755-3.194-5.238-10.188" fill="#ccd6dd"/><path d="M32.076 31.368c-.977-.976-1.927-1.609-2.122-1.414-.195.195.438 1.145 1.414 2.122.976.976 1.927 1.61 2.122 1.414.195-.196-.438-1.145-1.414-2.122" fill="#be1931"/><path d="M23.944 18.995a2 2 0 0 0-2.828 0l-2.122 2.12a2 2 0 0 0 0 2.83l7.778 7.778c.781.78 3.222 1.955 4.003 1.173l2.121-2.121c.781-.781-.392-3.221-1.174-4.002l-7.778-7.778z" fill="#ccd6dd"/><path d="M28.526 32.797l4.271-4.27c.365.882.53 1.816.1 2.248l-2.122 2.121c-.43.43-1.366.265-2.249-.099" fill="#269"/><path d="M32.592 32.267c-.196-.196-1.145.437-2.121 1.414-.977.976-1.61 1.926-1.414 2.121.195.195 1.144-.438 2.12-1.414.978-.976 1.61-1.926 1.415-2.12" fill="#be1931"/><path d="M35.823 29.035c-.195-.195-1.145.438-2.12 1.414-.978.977-1.61 1.926-1.415 2.122.195.195 1.144-.438 2.121-1.415.977-.976 1.61-1.926 1.414-2.121" fill="#be1931"/><path d="M24.517 25.892l1.375-1.375c.578-.578 1.114-1.088 1.285-1.746l.06.061a2.421 2.421 0 0 1 0 3.422l-.982.982a2.42 2.42 0 0 1-3.422 0l-.06-.06c.657-.17 1.167-.707 1.744-1.284" fill="#66757f"/><path d="M21.831 29.61a.873.873 0 0 0-1.233 0l-.18.18a.872.872 0 0 0 0 1.234l1.595 1.595a.87.87 0 0 0 1.233 0l.18-.18a.873.873 0 0 0 .001-1.234l-1.596-1.595zM30.99 20.384a.824.824 0 0 0-1.166 0l-.248.248a.824.824 0 0 0 0 1.166l1.662 1.663a.826.826 0 0 0 1.166 0l.248-.25a.824.824 0 0 0 0-1.165l-1.662-1.662z" fill="#292f33"/><path d="M3.865 8.798l-.716.716-1.423 1.423a.99.99 0 0 1-1.397 0l-.017-.017a.99.99 0 0 1 0-1.397L1.735 8.1l.715-.716.7-.698.698.698.017.017.698.699-.698.698zM10.928 1.735l-1.44 1.44-.682.681-.707.707L6.685 3.15l.707-.707.68-.68 1.44-1.44a1 1 0 1 1 1.416 1.413" fill="#ea596e"/><path d="M7.12 6.525C5.071 4.478 3.28 2.952 3.115 3.116c-.164.163 1.362 1.956 3.41 4.003 2.047 2.048 3.84 3.574 4.003 3.41.164-.164-1.363-1.956-3.41-4.004M35.132 12.827l-22.33 22.328a2 2 0 0 1-2.828 0l-2.535-2.95 8.226-10.64 5.9-5.899 10.617-8.204L35.132 10a2 2 0 0 1 0 2.828" fill="#be1931"/><path d="M16.525 25.51l-7.981 7.981-1.105-1.286 6.88-8.9 2.206 2.205zM33.468 8.567l-8.457 8.458-2.27-2.269 9.44-7.294 1.287 1.105z" fill="#ea596e"/></g></svg>