<svg xmlns="http://www.w3.org/2000/svg" viewBox="0 0 45 45"><defs><clipPath id="a"><path d="M0 36h36V0H0v36z"/></clipPath><clipPath id="b"><path d="M3.422 28.111c-.395-1.89 6.234-4.874 8.126-5.268l17.102-3.565c1.891-.394 6.58-.281 6.975 1.611.395 1.893-3.655 4.847-5.547 5.242l-19.09 3.978c-.431.09-1.036.141-1.718.141-2.316 0-5.524-.578-5.848-2.139"/></clipPath><clipPath id="c"><path d="M0 36h36V0H0v36z"/></clipPath></defs><path d="M0 45h45V28.75H0V45z" fill="#5d9040"/><path d="M0 38.75h45v-7.499H0v7.499z" fill="#ccd6dd"/><g clip-path="url(#a)" transform="matrix(1.25 0 0 -1.25 0 45)"><path d="M10 8a1 1 0 0 0-1-1H3a1 1 0 1 0 0 2h6a1 1 0 0 0 1-1M22 8a1 1 0 0 0-1-1h-6a1 1 0 1 0 0 2h6a1 1 0 0 0 1-1M34 8a1 1 0 0 0-1-1h-6a1 1 0 1 0 0 2h6a1 1 0 0 0 1-1" fill="#f5f8fa"/><path d="M18.839 18.77a1.5 1.5 0 1 0-2.938.612 1.5 1.5 0 0 0 2.938-.613M28.936 18.199a1.502 1.502 0 0 0-2.938.612 1.5 1.5 0 0 0 2.938-.612" fill="#67757f"/><path d="M28.16 19.382a.5.5 0 0 0-.979.204l.41 1.958c.054.27.32.444.59.387a.498.498 0 0 0 .387-.591l-.408-1.958z" fill="#67757f"/><path d="M17.086 25.025c.502-1.42 7.703-2.376 6.104-.246-4.6 7.034-9.982 9.361-9.042 7.143 1.06-2.497 1.71-4.293 2.938-6.897" fill="#5dadec"/><path d="M35.625 20.889c-.395-1.892-5.084-2.005-6.976-1.61l-17.101 3.564c-1.892.395-8.521 3.377-8.127 5.269.421 2.02 5.675 2.393 7.567 1.998l19.09-3.98c1.892-.393 5.942-3.348 5.547-5.241" fill="#ccd6dd"/></g><g clip-path="url(#b)" transform="matrix(1.25 0 0 -1.25 0 45)"><path d="M31.217 24.473c.582.154 1.462.046 1.965.468.503.422 1.937-.802 1.4-1.233-.536-.43-1.865-.92-3.158-.842-1.292.077-.883 1.43-.207 1.607" fill="#67757f"/></g><g clip-path="url(#c)" transform="matrix(1.25 0 0 -1.25 0 45)"><path d="M3.502 28.5l1.395 6.69c.512 2.458 2.974-2.14 4.101-4.94-2.005-.116-3.964-.324-5.496-1.75" fill="#5dadec"/><path d="M28.977 23.296a1 1 0 1 0-1.96.407 1 1 0 0 0 1.96-.407M26.04 23.908a1 1 0 1 0-1.959.408 1 1 0 0 0 1.958-.408M23.102 24.52a1 1 0 1 0-1.958.408 1 1 0 0 0 1.958-.408M20.166 25.133a1 1 0 1 0-1.959.409 1 1 0 0 0 1.959-.41M17.229 25.745a1 1 0 1 0-1.959.408 1 1 0 0 0 1.959-.408M14.292 26.357a1 1 0 1 0-1.958.409 1 1 0 0 0 1.958-.41" fill="#9aaab4"/><path d="M4.186 27.953c1.105.339 4.232-.372 1.787-1.905-3.549-2.325-5.757-1.8-4.875-.963.995.942 1.995 1.914 3.088 2.868M15.667 23.612c1.026 1.095 8.016-.905 5.7-2.21-7.031-4.605-12.895-4.589-11.147-2.93 1.97 1.865 3.283 3.252 5.447 5.14" fill="#5dadec"/></g></svg>