<svg xmlns="http://www.w3.org/2000/svg" viewBox="0 0 45 45"><defs><clipPath id="a"><path d="M0 36h36V0H0v36z"/></clipPath><clipPath id="b"><path d="M4.76 31.556C1.961 16.169 6.412 6.27 18 2.116c11.587 4.154 16.039 14.053 13.24 29.44C24.958 33.961 18.071 34 18 34c-.072 0-6.937-.029-13.24-2.444"/></clipPath></defs><g clip-path="url(#a)" transform="matrix(1.25 0 0 -1.25 0 45)"><path d="M33 33c-7 3-15 3-15 3s-8 0-15-3C0 18 3 5 18 0c15 5 18 18 15 33" fill="#ccd6dd"/><path d="M18 2.116C6.412 6.27 1.961 16.17 4.76 31.556 11.063 33.97 17.928 34 18 34c.071 0 6.958-.04 13.24-2.445C34.039 16.17 29.588 6.27 18 2.116" fill="#55acee"/></g><g clip-path="url(#b)" transform="matrix(1.25 0 0 -1.25 0 45)"><path d="M33 2H18v32h15V2z" fill="#269"/></g></svg>