<svg xmlns="http://www.w3.org/2000/svg" viewBox="0 0 45 45"><defs><clipPath id="a"><path d="M0 36h36V0H0v36z"/></clipPath><clipPath id="b"><path d="M27.773 30.958l-19.058-4.13c-1.889-.409-6.537-2.886-6.1-4.903.409-1.888 7.678-1.917 9.567-1.508l17.073 3.699c1.889.41 6.127 2.42 5.717 4.309-.35 1.617-3.99 2.621-6.216 2.621-.375 0-.71-.029-.983-.088"/></clipPath><clipPath id="c"><path d="M0 36h36V0H0v36z"/></clipPath></defs><path d="M0 45h45V28.75H0V45z" fill="#5d9040"/><path d="M0 38.75h45v-7.499H0v7.499z" fill="#ccd6dd"/><g clip-path="url(#a)" transform="matrix(1.25 0 0 -1.25 0 45)"><path d="M10 8a1 1 0 0 0-1-1H3a1 1 0 1 0 0 2h6a1 1 0 0 0 1-1M22 8a1 1 0 0 0-1-1h-6a1 1 0 1 0 0 2h6a1 1 0 0 0 1-1M34 8a1 1 0 0 0-1-1h-6a1 1 0 1 0 0 2h6a1 1 0 0 0 1-1" fill="#f5f8fa"/><path d="M20.5 19.661a1.5 1.5 0 1 0-2.933-.635 1.5 1.5 0 0 0 2.933.635M29.955 23.247a1.5 1.5 0 1 0-2.932-.636 1.5 1.5 0 0 0 2.932.636" fill="#67757f"/><path d="M28.766 24.012a.501.501 0 0 0-.977-.212l-.423 1.955a.5.5 0 1 0 .977.212l.423-1.955z" fill="#67757f"/><path d="M16.354 24.663c1.037-1.093 8.003.963 5.677 2.258-7.063 4.555-12.927 4.492-11.166 2.848 1.985-1.85 3.309-3.227 5.489-5.106" fill="#5dadec"/><path d="M34.972 28.425c.41-1.888-3.829-3.9-5.717-4.308l-17.073-3.7c-1.889-.41-9.158-.38-9.567 1.508-.438 2.017 4.21 4.494 6.1 4.903l19.058 4.13c1.888.409 6.79-.643 7.2-2.533" fill="#ccd6dd"/></g><g clip-path="url(#b)" transform="matrix(1.25 0 0 -1.25 0 45)"><path d="M29.487 29.907c.47.377 1.317.637 1.605 1.227.287.59 2.096.055 1.781-.556-.315-.613-1.33-1.601-2.543-2.055-1.212-.455-1.388.946-.843 1.384" fill="#67757f"/></g><g clip-path="url(#c)" transform="matrix(1.25 0 0 -1.25 0 45)"><path d="M2.53 22.313c-.176.818-1.27 5.86-1.446 6.678-.533 2.455 3.587-.745 5.756-2.845-1.785-.921-3.49-1.907-4.31-3.833" fill="#5dadec"/><path d="M27.92 27.92a1 1 0 1 0-1.957-.422 1 1 0 0 0 1.957.422M24.987 27.284a1 1 0 1 0-1.954-.424 1 1 0 0 0 1.954.424M22.055 26.65a1 1 0 1 0-1.954-.424 1 1 0 0 0 1.954.423M19.124 26.014a1 1 0 1 0-1.955-.423 1 1 0 0 0 1.955.423M16.191 25.378a1 1 0 1 0-1.955-.422 1 1 0 0 0 1.955.423M13.26 24.744a1 1 0 1 0-1.955-.424 1 1 0 0 0 1.955.424" fill="#9aaab4"/><path d="M3.378 22.09c.872.76 4.017 1.383 2.407-1.012-2.296-3.567-4.527-3.986-4.062-2.863.526 1.265 1.045 2.56 1.655 3.876M15.632 22.795c.492 1.418 7.691 2.434 6.106.3-4.55-7.068-9.914-9.438-8.99-7.212 1.04 2.506 1.675 4.307 2.884 6.912" fill="#5dadec"/></g></svg>