<svg xmlns="http://www.w3.org/2000/svg" viewBox="0 0 45 45"><defs><clipPath id="a"><path d="M0 36h36V0H0v36z"/></clipPath></defs><path d="M38.75 15h-5L35 8.75h3.75V15z" fill="#dd2e44"/><path d="M41.25 15h-10l1.109-3.75h8.153L41.25 15z" fill="#ccd6dd"/><path d="M10.428 11.25L10 12.5h1.25l-.562 1.25H9.214L8.75 15H10l-2.5 7.5h35.664l.567-1.21-.482-3.79h1.23l-.228-1.25h-1.25l-.5-2.5h-20l-1.25-2.5H10.427z" fill="#ccd6dd"/><path d="M18.75 12.5h-5L15 8.75h3.75v3.75z" fill="#ccd6dd"/><path d="M11.25 12.5l-.563 1.25h7.177L17.5 12.5h-6.25zM10.937 15l-.41 1.25H44.22L44 15H10.937zM10.117 17.5l-.43 1.25h33.711l-.148-1.25H10.117zM9.313 20l-.407 1.25H43.75L43.594 20H9.313z" fill="#269"/><g clip-path="url(#a)" transform="matrix(1.25 0 0 -1.25 0 45)"><path d="M33 12.036S35 15 35 19H1c1-2 4-3 5-5.818 2.272-6.4 27-1.146 27-1.146" fill="#269"/><path d="M4.936 15h29.418c.358 1.114.646 2.481.646 4H1c.75-1.5 2.625-2.438 3.937-4" fill="#ccd6dd"/><path d="M36 12H0V0h36v12z" fill="#55acee"/><path d="M16 18v-.229a.77.77 0 0 1 .771-.771h1.458a.77.77 0 0 1 .771.771V18h-3z" fill="#ffac33"/><path d="M19 18v-.229c0-.426.346-.771.771-.771h1.458c.425 0 .771.345.771.771V18h-3zM22 18v-.229c0-.426.346-.771.771-.771h1.458c.425 0 .771.345.771.771V18h-3zM26 18v-.229c0-.426.346-.771.771-.771h1.458c.425 0 .771.345.771.771V18h-3zM29 18v-.229c0-.426.346-.771.771-.771h1.458c.425 0 .771.345.771.771V18h-3z" fill="#ffac33"/></g></svg>