<svg xmlns="http://www.w3.org/2000/svg" viewBox="0 0 45 45"><defs><clipPath id="a"><path d="M0 36h36V0H0v36z"/></clipPath></defs><path d="M13.295 27.438l-2.652-2.653L23.9 11.527l2.652 2.652-13.258 13.259z" fill="#99aab5"/><g clip-path="url(#a)" transform="matrix(1.25 0 0 -1.25 0 45)"><path d="M8.515 6.272a2 2 0 0 0-2.828 0l-4.95 4.95a2 2 0 0 0 0 2.827L5.687 19a2 2 0 0 0 2.828 0l4.95-4.95a2 2 0 0 0 0-2.828l-4.95-4.949zM24.777 22.535a1.998 1.998 0 0 0-2.827 0L17 27.485a2 2 0 0 0 0 2.828l4.95 4.95a1.999 1.999 0 0 0 2.828 0l4.95-4.95c.781-.78.781-2.047 0-2.827l-4.95-4.95z" fill="#55acee"/><path d="M12.404 25.717L10.99 29.96c-.448 1.341-1.415 1.414-2.122.707L6.04 27.84c-.707-.707-.635-1.675.707-2.122l4.243-1.414 1.414 1.414z" fill="#99aab5"/><path d="M17.708 14.05a2.002 2.002 0 0 0-2.829 0l-7.071 7.07a2 2 0 0 0 0 2.83l4.242 4.242a2.002 2.002 0 0 0 2.829 0l7.071-7.071c.78-.78.78-2.047-.001-2.83l-4.241-4.24z" fill="#ccd6dd"/><path d="M21.016 14.945c-1.952-1.953-4.802-2.27-6.364-.708-1.562 1.563.876 2.29 2.829 4.243 1.953 1.953 2.68 4.39 4.243 2.83 1.562-1.563 1.245-4.412-.708-6.365" fill="#ccd6dd"/><path d="M27.96 15.818c-2.12 2.122-5.118 1.951-7.071 0-1.952-1.954-2.121-4.95 0-7.07l7.071 7.07zM25.132 12.99l2.12-3.536-3.534 2.121 1.414 1.414z" fill="#99aab5"/><path d="M27.814 8.894a.999.999 0 1 0-1.415 1.414.999.999 0 1 0 1.415-1.414" fill="#99aab5"/><path d="M4.272 17.585L5.686 19l7.778-7.779-1.414-1.414-7.778 7.778zM26.192 23.95l-1.414-1.414L17 30.314l1.414 1.414 7.778-7.778zM.737 14.05l1.414 1.415 7.778-7.778-1.415-1.414L.737 14.05zM29.727 27.486l-1.414-1.415-7.778 7.778 1.415 1.414 7.777-7.777z" fill="#88c9f9"/><path d="M8.307 28.399a1 1 0 1 0-1.414 1.416A1 1 0 0 0 8.307 28.4" fill="#99aab5"/><path d="M23.682 5.57a1 1 0 0 0 1.051 1c.015-.002 2.156-.064 3.8 1.58 1.636 1.637 1.578 3.772 1.58 3.8A.998.998 0 0 0 31.06 13a1.001 1.001 0 0 0 1.049-.95c.012-.123.123-3.029-2.163-5.315-2.288-2.287-5.192-2.17-5.314-2.164a1.001 1.001 0 0 0-.951.998" fill="#ffac33"/><path d="M24.238 2.01a.997.997 0 0 0 1.33.943c.107-.033 2.877-.891 5.964 2.197 3.127 3.126 2.414 6.126 2.382 6.252a1.002 1.002 0 0 0 .716 1.216.995.995 0 0 0 1.216-.702c.046-.17 1.078-4.205-2.9-8.18C28.932-.28 25.07 1.01 24.908 1.068a.998.998 0 0 0-.67.943" fill="#ffac33"/></g></svg>