<svg xmlns="http://www.w3.org/2000/svg" viewBox="0 0 45 45"><defs><clipPath id="a"><path d="M0 36h36V0H0v36z"/></clipPath><clipPath id="b"><path d="M9.5 13a2.5 2.5 0 1 1 0-5h17a2.5 2.5 0 1 1 0 5h-17z"/></clipPath><clipPath id="c"><path d="M0 36h36V0H0v36z"/></clipPath></defs><g clip-path="url(#a)" transform="matrix(1.25 0 0 -1.25 0 45)"><path d="M36 21.5c0-1.933-1.119-3.5-2.5-3.5S31 19.567 31 21.5s1.119 3.5 2.5 3.5 2.5-1.567 2.5-3.5M5 21.5C5 19.567 3.881 18 2.5 18S0 19.567 0 21.5 1.119 25 2.5 25 5 23.433 5 21.5" fill="#f4900c"/><path d="M34 17a1 1 0 0 0-1-1h-3a1 1 0 0 0-1 1v9a1 1 0 0 0 1 1h3a1 1 0 0 0 1-1v-9zM7 17a1 1 0 0 0-1-1H3a1 1 0 0 0-1 1v9a1 1 0 0 0 1 1h3a1 1 0 0 0 1-1v-9z" fill="#ffac33"/><path d="M28 31c0-2.761-4.477-4-10-4S8 28.239 8 31s4.477 5 10 5 10-2.239 10-5" fill="#ffcc4d"/><path d="M25 31.916C25 30.306 21.865 29 18 29c-3.866 0-7 1.306-7 2.917 0 1.611 3.134 2.917 7 2.917 3.865 0 7-1.305 7-2.916" fill="#f4900c"/><path d="M30 30.5c0-1.381-1.119-1.5-2.5-1.5h-19c-1.381 0-2.5.119-2.5 1.5A2.5 2.5 0 0 0 8.5 33h19a2.5 2.5 0 0 0 2.5-2.5" fill="#269"/><path d="M32 6a2 2 0 0 0-2-2H6a2 2 0 0 0-2 2v22a2 2 0 0 0 2 2h24a2 2 0 0 0 2-2V6z" fill="#55acee"/><path d="M35 3c0-1.105.105-2-1-2H2C.896 1 1 1.895 1 3v1a2 2 0 0 0 2 2h30a2 2 0 0 0 2-2V3z" fill="#3b88c3"/><path d="M18.707 2.636a.999.999 0 0 0-1.414 0l-5.657 5.657a1 1 0 0 0 0 1.414l5.657 4.658a1 1 0 0 0 1.414 0l5.656-4.658a.998.998 0 0 0 0-1.414l-5.656-5.657z" fill="#55acee"/><path d="M16 21.5a4.5 4.5 0 1 0-9 0 4.5 4.5 0 0 0 9 0M29 21.5a4.5 4.5 0 1 0-9 0 4.5 4.5 0 0 0 9 0" fill="#fff"/><path d="M26 19a1 1 0 0 0-1-1h-1a1 1 0 0 0-1 1v5a1 1 0 0 0 1 1h1a1 1 0 0 0 1-1v-5zM13 19a1 1 0 0 0-1-1h-1a1 1 0 0 0-1 1v5a1 1 0 0 0 1 1h1a1 1 0 0 0 1-1v-5z" fill="#dd2e44"/><path d="M29 10.5A2.5 2.5 0 0 0 26.5 8h-17a2.5 2.5 0 1 0 0 5h17a2.5 2.5 0 0 0 2.5-2.5" fill="#f5f8fa"/><path d="M19 8h-2v5h2V8zM14 8h-2v5h2V8zM24 8h-2v5h2V8z" fill="#ccd6dd"/></g><g clip-path="url(#b)" fill="#ccd6dd" transform="matrix(1.25 0 0 -1.25 0 45)"><path d="M9 8H7v5h2V8zM29 8h-2v5h2V8z"/></g></svg>