<svg xmlns="http://www.w3.org/2000/svg" viewBox="0 0 45 45"><defs><clipPath id="a"><path d="M0 36h36V0H0v36z"/></clipPath></defs><g clip-path="url(#a)" transform="matrix(1.25 0 0 -1.25 0 45)"><path d="M34 20c0-8.834-7.166-16-16-16C9.164 4 2 11.166 2 20c0 8.836 7.164 16 16 16 8.834 0 16-7.164 16-16" fill="#ffcc4d"/><path d="M25.861 19.871a.372.372 0 0 1-.535.03C25.293 19.87 22.023 17 18 17c-4.013 0-7.294 2.87-7.327 2.9a.374.374 0 0 1-.535-.03.572.572 0 0 1-.079-.628C10.17 19.028 12.77 14 18 14c5.23 0 7.833 5.028 7.94 5.243a.572.572 0 0 1-.079.628" fill="#664500"/><path d="M13.393 12.846l-1.54 2.219s-.541.867-1.41.325c-.866-.541-.324-1.41-.324-1.41l1.758-3.38s.144-.767-.918.092c-.463.374-.197.163-.197.163l-.44.36-5.491 4.509s-.71.748-1.36-.042c-.647-.791.223-1.341.223-1.341l5.194-4.266c-.121-.12-.483-.534-.6-.663l-5.557 4.56s-.71.749-1.36-.041c-.648-.791.224-1.341.224-1.341L7.15 8.028c-.102-.14-.363-.476-.46-.615L1.9 11.347s-.71.748-1.358-.042c-.65-.791.223-1.342.223-1.342L5.857 5.78c-.064-.178-.363-.647-.41-.821L1.775 7.97s-.71.752-1.357-.041c-.65-.791.223-1.341.223-1.341L6.57 1.72l.395-.326a6.139 6.139 0 0 1 8.4 8.918c-.73.783-1.361 1.654-1.973 2.533M35.583 7.93c-.648.793-1.357.04-1.357.04L30.554 4.96c-.047.174-.346.643-.41.82l5.093 4.184s.873.55.223 1.342c-.648.79-1.358.042-1.358.042L29.31 7.413c-.096.139-.357.475-.459.615l5.554 4.562s.873.55.223 1.34c-.649.79-1.358.042-1.358.042l-5.557-4.56c-.117.129-.48.543-.6.664l5.194 4.265s.87.55.222 1.34c-.65.79-1.359.043-1.359.043l-5.491-4.508-.44-.361s.99.84-.197-.163c-1.188-1.004-.918-.091-.918-.091l1.758 3.38s.543.868-.324 1.409c-.87.542-1.412-.325-1.412-.325l-1.538-2.22c-.613-.878-1.244-1.75-1.973-2.532a6.138 6.138 0 0 1 8.4-8.918l.396.326 5.929 4.868s.872.55.223 1.34" fill="#f4900c"/><path d="M27.677 25.017c-.051.122-1.285 2.983-3.82 2.983s-3.77-2.86-3.82-2.983a.468.468 0 0 1 .123-.536.416.416 0 0 1 .524-.012c.01.01 1.08.816 3.173.816 2.079 0 3.149-.796 3.174-.815a.41.41 0 0 1 .52.01.466.466 0 0 1 .126.537M16.677 25.017c-.052.122-1.285 2.983-3.82 2.983s-3.77-2.86-3.82-2.983a.47.47 0 0 1 .123-.536.414.414 0 0 1 .523-.012c.01.01 1.08.816 3.174.816 2.079 0 3.149-.796 3.173-.815a.414.414 0 0 1 .523.01.47.47 0 0 1 .124.537" fill="#664500"/><path d="M11.182 10.523s-2.593-3.314.484-7.46c.212-.285.75-.146.521.187-.25.365-2.75 3.896-.4 7.057 0 0-.38.047-.605.216M24.765 10.424s2.594-3.314-.484-7.46c-.212-.285-.75-.146-.522.188.25.364 2.75 3.895.4 7.056 0 0 .382.047.606.216" fill="#b55005"/></g></svg>