<svg xmlns="http://www.w3.org/2000/svg" viewBox="0 0 45 45"><defs><clipPath id="a"><path d="M0 36h36V0H0v36z"/></clipPath></defs><g clip-path="url(#a)" transform="matrix(1.25 0 0 -1.25 0 45)"><path d="M36 18c0-9.941-8.059-18-18-18S0 8.059 0 18s8.059 18 18 18 18-8.059 18-18" fill="#ffcc4d"/><path d="M1.24 24.982c.24-.239 1.437-.958 1.677-1.675.24-.717.72-4.784 2.158-5.98 1.484-1.234 7.077-.775 8.15-.24 2.396 1.194 2.69 4.53 3.114 6.22.24.957 1.677.957 1.677.957s1.44 0 1.678-.956c.424-1.69.72-5.027 3.115-6.22 1.073-.536 6.666-.995 8.152.238 1.435 1.197 1.915 5.264 2.155 5.982.238.717 1.437 1.435 1.677 1.674.241.24.241 1.196 0 1.436-.479.478-6.134.904-12.223.24-1.215-.134-1.677-.48-4.554-.48-2.875 0-3.339.346-4.553.478-6.087.666-11.744.24-12.223-.238-.239-.24-.239-1.197 0-1.436" fill="#292f33" fill-rule="evenodd"/><path d="M27.335 12.371a.501.501 0 0 1-.635.03c-.039-.03-3.922-2.9-8.7-2.9-4.766 0-8.662 2.87-8.7 2.9a.5.5 0 1 1-.729-.657C8.7 11.527 11.788 6.5 18 6.5s9.301 5.028 9.429 5.243a.499.499 0 0 1-.094.628" fill="#664500"/><path d="M14.266 21c-.147-1.657-1.543-3-3.12-3H8.296C6 18 5.254 19.343 5.022 21l-.14 1c-.232 1.657.118 3 2.966 3h3.386c2.766 0 3.267-1.343 3.12-3l-.088-1zM21.934 21c.146-1.657 1.543-3 3.119-3h2.852c2.295 0 3.04 1.343 3.273 3l.14 1c.232 1.657-.118 3-2.966 3h-3.386c-2.766 0-3.266-1.343-3.12-3l.088-1z" fill="#ffcc4d"/><path d="M10.5 24C9.119 24 8 22.433 8 20.5c0-.981.29-1.865.754-2.5h2.393c.458 0 .897.124 1.299.327.341.598.554 1.347.554 2.173 0 1.933-1.119 3.5-2.5 3.5M27.246 18c.464.635.754 1.519.754 2.5 0 1.933-1.119 3.5-2.5 3.5-1.38 0-2.5-1.567-2.5-3.5 0-.751.173-1.444.461-2.014A2.936 2.936 0 0 1 25.053 18h2.193z" fill="#664500"/><path d="M36 18c0-9.941-8.059-18-18-18S0 8.059 0 18s8.059 18 18 18 18-8.059 18-18" fill="#ffcc4d"/><path d="M27.335 12.371a.501.501 0 0 1-.635.03c-.039-.03-3.922-2.9-8.7-2.9-4.766 0-8.662 2.87-8.7 2.9a.5.5 0 1 1-.729-.657C8.7 11.527 11.788 6.5 18 6.5s9.301 5.028 9.429 5.243a.499.499 0 0 1-.094.628" fill="#664500"/><path d="M27.335 12.371a.501.501 0 0 1-.635.03c-.039-.03-3.922-2.9-8.7-2.9-4.766 0-8.662 2.87-8.7 2.9a.5.5 0 1 1-.729-.657C8.7 11.527 11.788 6.5 18 6.5s9.301 5.028 9.429 5.243a.499.499 0 0 1-.094.628" fill="#664500"/><path d="M18 9.409c-.148 0-.29.011-.437.016V4.909h.874v4.517c-.146-.005-.289-.017-.437-.017" fill="#65471b"/><path d="M22 10c.016.004-1.45-.378-2.446-.486a13.95 13.95 0 0 0-1.117-.088V4.909H20c1.1 0 2 .9 2 2V10zM14 10c-.016.004 1.45-.378 2.446-.486a13.95 13.95 0 0 1 1.117-.088V4.909H16c-1.1 0-2 .9-2 2V10z" fill="#fff"/><path d="M27.335 12.371a.501.501 0 0 1-.635.03c-.029-.023-2.259-1.669-5.411-2.47-.443-.113-1.864-.43-3.286-.43-1.424 0-2.849.317-3.292.43-3.152.801-5.381 2.447-5.411 2.47a.501.501 0 0 1-.728-.658c.096-.162 1.884-3.067 5.428-4.48V9.09c-.016.004 1.45-.378 2.446-.486a13.95 13.95 0 0 1 1.117-.088c.146-.006.289-.017.437-.017.148 0 .291.011.438.016v.001c.379.013.75.046 1.116.088.996.108 2.462.49 2.446.486V7.262c3.544 1.414 5.332 4.32 5.429 4.481a.499.499 0 0 1-.094.628M26.624 21.976c0-1.714-.938-3.104-2.096-3.104-1.157 0-2.095 1.39-2.095 3.104 0 1.714.938 3.104 2.095 3.104 1.158 0 2.096-1.39 2.096-3.104" fill="#65471b"/><path d="M30.892 22.976c-.12-.954-.435-3.515-1.265-4.134-.664-.495-2.362-.842-3.587-.842h-.001c-1.106 0-2.163.282-2.974.743-1.323.753-1.52 2.862-1.597 3.967-.043.608-.176 1.85.829 2.468 1.135.698 3.462.746 4.155.746 1.513 0 2.992-.277 4.052-.638.668-.228.464-1.703.388-2.31m-16.277-.253c-.078-1.105-.274-3.227-1.597-3.98-.812-.461-1.868-.743-2.975-.743h-.001c-1.225 0-2.923.347-3.587.842-.83.619-1.145 3.167-1.265 4.12-.076.607-.28 2.09.388 2.319 1.06.36 2.539.643 4.052.643.693 0 3.02-.043 4.155-.741 1.005-.618.872-1.852.83-2.46m20.194 3.65c-.171.167-1.267-.274-2.376.29-2.288 1.167-8.07 2.293-11.834-.374-.403-.286-2.087-.334-2.558-.313-.47-.021-2.155.027-2.558.313-3.763 2.667-9.546 1.54-11.833.375-1.11-.565-2.206-.124-2.376-.291-.248-.24-.247-1.196 0-1.435.246-.24 1.477-.515 1.722-1.233.247-.718.249-4.958 2.214-6.423 1.838-1.372 6.128-1.785 8.847-.24 2.373 1.35 2.289 4.19 2.724 5.882.155.604.592.908 1.26.908.669 0 1.105-.304 1.26-.908.435-1.691.352-4.531 2.724-5.881 2.719-1.546 7.009-1.133 8.848.239 1.965 1.465 1.967 5.705 2.213 6.423.245.718 1.476.994 1.722 1.233.248.239.248 1.196 0 1.435" fill="#292f33"/><path d="M9.457 21.976c0-1.714.938-3.104 2.096-3.104 1.157 0 2.095 1.39 2.095 3.104 0 1.714-.938 3.104-2.095 3.104-1.158 0-2.096-1.39-2.096-3.104" fill="#65471b"/></g></svg>