<svg xmlns="http://www.w3.org/2000/svg" viewBox="0 0 45 45"><defs><clipPath id="a"><path d="M0 36h36V0H0v36z"/></clipPath></defs><g clip-path="url(#a)" transform="matrix(1.25 0 0 -1.25 0 45)"><path d="M2 20C2 11.163 9.164 4 18 4c8.837 0 16 7.163 16 16 0 8.836-7.163 16-16 16-8.836 0-16-7.164-16-16" fill="#ffcc4d"/><path d="M15.406 25.5c0-1.381-.896-2.5-2-2.5s-2 1.119-2 2.5c0 1.38.896 2.5 2 2.5s2-1.12 2-2.5M26 24.5c0-1.381-.895-2.5-2-2.5-1.104 0-2 1.119-2 2.5 0 1.38.896 2.5 2 2.5 1.105 0 2-1.12 2-2.5M9.67 29.667a.917.917 0 0 0-.39.398.8.8 0 0 0 .393 1.113c4.266 1.83 7.699.043 7.843-.034.433-.231.608-.748.39-1.154-.215-.405-.74-.546-1.172-.318-.123.064-2.832 1.432-6.278-.047a.915.915 0 0 0-.785.042M14.743 16.428a.919.919 0 0 0-.276.486.799.799 0 0 0 .665.974c4.592.678 7.452-1.93 7.573-2.04.36-.334.395-.877.082-1.215-.312-.336-.855-.338-1.214-.006-.104.092-2.372 2.108-6.082 1.56a.907.907 0 0 0-.748.24" fill="#664500"/><path d="M20.43 25.917a.924.924 0 0 0-.361.424.8.8 0 0 0 .467 1.084c4.38 1.536 7.685-.48 7.824-.567.415-.26.554-.787.31-1.178-.241-.39-.775-.495-1.19-.238-.12.073-2.728 1.621-6.267.38a.916.916 0 0 0-.782.095" fill="#664500"/><path d="M17.276.868s1.265.411 1.43 1.352c.172.971-.625 1.167-.625 1.167s1.041.208 1.172 1.376c.123 1.1-.862 1.363-.862 1.363s.97.4 1.016 1.54c.038.958-.995 1.427-.995 1.427s5.038 1.22 5.555 1.34c.516.121 1.321.616 1.07 1.695-.249 1.08-1.204 1.118-1.698 1.003-.494-.116-6.744-1.567-8.9-2.069-.23-.053-1.308-.302-1.439-.334-.54-.127-.785.111-.405.512.51.536.833 1.13.947 2.113.12 1.036-.232 2.314-.433 2.81-.374.92-1.005 1.648-1.734 1.898-1.138.39-1.946-.32-1.542-1.56.604-1.856.21-3.376-.833-4.294-2.449-2.157-3.589-3.695-2.83-6.973.827-3.575 4.377-5.876 7.952-5.048l3.154.682" fill="#f4900c"/></g></svg>