<svg xmlns="http://www.w3.org/2000/svg" viewBox="0 0 45 45"><defs><clipPath id="a"><path d="M0 36h36V0H0v36z"/></clipPath></defs><g clip-path="url(#a)" transform="matrix(1.25 0 0 -1.25 0 45)"><path d="M23.82 22.82C23.933 22.57 20 22 20 22c0 .811-.486 1.506-1.18 1.82C18.933 23.57 15 23 15 23v9c0 .811-.486 1.506-1.18 1.82C13.933 33.57 10 20 10 20c-.922 0-1.724-2-1.724-2v-.015l.212-8.988L18 3.5l8 7.5v10h-1c0 .811-.486 1.506-1.18 1.82" fill="#ef9645"/><path d="M20 19.222c.609-.55 1-1.336 1-2.222 0-.753-.287-1.432-.745-1.96A1.994 1.994 0 0 1 22 14a2 2 0 0 1 2 2v6c0 .293-.067.57-.18.82A1.996 1.996 0 0 1 20 22v-2.778z" fill="#ffdc5d"/><path d="M29 30a2 2 0 0 1-4 0V16c0-.658-.217-1.262-.578-1.753-.028-.037-.061-.068-.089-.102a3.206 3.206 0 0 0-.332-.366l-.1-.082a3.057 3.057 0 0 0-.578-.377 2.981 2.981 0 0 0-.435-.172c-.068-.02-.131-.045-.2-.061A2.953 2.953 0 0 0 22 13c-.236 0-.461.036-.681.089-.076.017-.148.042-.222.066a2.984 2.984 0 0 0-.396.161c-.082.04-.163.077-.24.124a3.077 3.077 0 0 0-.99.959l.003.003C19.273 14.287 19 14 18 14h-2.537c1.808-1.365 3.037-3.99 3.037-7a.5.5 0 0 0-1 0c0 3.859-2.187 7-4.875 7H12.5a.5.5 0 0 0 0 1H18a2 2 0 0 1 0 4h-8c-.968 0-1.481-.596-1.725-1.015a2.266 2.266 0 0 1-.188-.4L7 14c-.103-.335-.479-1.871-.411-2.191C6.589 7 11.285 2 17 2c6.537 0 11.844 5.231 11.986 11.734-.007-.006.014.167.014.266v16z" fill="#ffdc5d"/><path d="M15 20h3a2.97 2.97 0 0 0 1-.184V23c0 .293-.067.569-.18.82A1.996 1.996 0 0 1 15 23v-3zM14 20v13c0 .293-.067.569-.18.82A1.996 1.996 0 0 1 10 33V20h4z" fill="#ffdc5d"/></g></svg>