<svg xmlns="http://www.w3.org/2000/svg" viewBox="0 0 45 45"><defs><clipPath id="a"><path d="M0 36h36V0H0v36z"/></clipPath><clipPath id="b"><path d="M13.657 7.344c.705.439 2.113 1.057 4.465 1.073 3.59.023 4.969-1.437 4.969-1.437L36 16.522V20.5L34 23S16.999 9.903 13.657 7.344m-.566-.429c-.016-.015.187.14.566.429-.387-.24-.562-.426-.566-.429"/></clipPath></defs><g clip-path="url(#a)" transform="matrix(1.25 0 0 -1.25 0 45)"><path d="M36 18c0-9.941-8.059-18-18-18C8.06 0 0 8.059 0 18c0 9.94 8.06 18 18 18 9.941 0 18-8.06 18-18" fill="#ffcc4d"/><path d="M15 19.5c0-1.934-1.119-3.5-2.5-3.5S10 17.566 10 19.5c0 1.933 1.119 3.5 2.5 3.5s2.5-1.567 2.5-3.5M26 19.5c0-1.934-1.119-3.5-2.5-3.5S21 17.566 21 19.5c0 1.933 1.119 3.5 2.5 3.5s2.5-1.567 2.5-3.5M23.485 6.621c-.012.044-1.146 2.88-5.485 2.88-4.34 0-5.475-2.836-5.485-2.88a.495.495 0 0 1 .231-.544.51.51 0 0 1 .596.06C13.352 6.144 14.356 7 18 7c3.59 0 4.617-.83 4.656-.863a.5.5 0 0 1 .83.484M29 24c-5.554 0-7.802 4.367-7.895 4.553a1 1 0 0 0 1.788.898C22.967 29.306 24.713 26 29 26a1 1 0 1 0 0-2M7 24.006a1 1 0 0 0 0 2c5.083 0 5.996 3.12 6.033 3.253.145.528.69.847 1.219.709a.995.995 0 0 0 .718-1.205c-.049-.194-1.266-4.757-7.97-4.757" fill="#664500"/></g><g clip-path="url(#b)" transform="matrix(1.25 0 0 -1.25 0 45)"><path d="M12.13 5.904l19.803 14.854a2.5 2.5 0 0 0 3-3.997L19.257 5l-7.125.905z" fill="#ccd6dd"/><path d="M16.144 4.102a1.35 1.35 0 0 0-1.62 2.159l12.738 9.555c.596.447.935-.101 1.383-.698.447-.596.832-1.014.236-1.461L16.144 4.102z" fill="#da2f47"/><path d="M18.599 10.772l1.235-1.598.74.595-1.196 1.587-.78-.584zM20.822 12.433l1.235-1.598.74.595-1.196 1.587-.779-.584zM23.006 14.052l1.235-1.598.74.595-1.197 1.587-.779-.584zM25.187 15.712l1.235-1.598.74.595-1.196 1.587-.779-.584zM27.425 17.353l1.235-1.598.74.595-1.196 1.587-.78-.584zM29.565 18.97l1.235-1.597.74.595-1.196 1.587-.779-.584z" fill="#67757f"/></g></svg>