<svg xmlns="http://www.w3.org/2000/svg" viewBox="0 0 45 45"><defs><clipPath id="a"><path d="M0 36h36V0H0v36z"/></clipPath></defs><g clip-path="url(#a)" transform="matrix(1.25 0 0 -1.25 0 45)"><path d="M36 18c0-9.941-8.059-18-18-18C8.06 0 0 8.059 0 18c0 9.94 8.06 18 18 18 9.941 0 18-8.06 18-18" fill="#ffcc4d"/><path d="M7 14.737c0-3.964 4.596-9 11-9s11 5 11 9c0 0-10.333-2.756-22 0" fill="#664500"/><path d="M12 12.997v-6.96c0-3 2-6 6-6s6 3 6 6v6.92c-6.291-1.293-12 .04-12 .04" fill="#5d9040"/><path d="M12.284 23.67c-.756.292-1.47.568-1.47.968 0 .659.884.693 1.061.693.625 0 .935-.235 1.21-.442.21-.158.428-.323.73-.323.565 0 .822.397.822.766 0 .736-.902 1.256-1.859 1.473v.395a.94.94 0 0 1-.939.939.941.941 0 0 1-.939-.94v-.425c-1.144-.333-1.845-1.174-1.845-2.235 0-1.311 1.293-1.85 2.433-2.323.817-.34 1.59-.661 1.59-1.162 0-.366-.46-.761-1.203-.761-.75 0-1.18.299-1.56.564-.262.183-.51.356-.805.356-.43 0-.767-.362-.767-.824 0-.68.931-1.356 2.157-1.594v-.47a.94.94 0 0 1 1.88 0l-.006.497c1.296.316 2.062 1.222 2.062 2.459 0 1.404-1.415 1.95-2.552 2.389M26.694 21.264c0 1.404-1.415 1.95-2.552 2.389-.756.292-1.469.567-1.469.967 0 .66.883.693 1.06.693.625 0 .936-.234 1.21-.441.211-.16.428-.323.73-.323.565 0 .823.397.823.765 0 .737-.903 1.257-1.859 1.474v.394a.94.94 0 0 1-1.88 0v-.426c-1.143-.332-1.844-1.174-1.844-2.235 0-1.311 1.293-1.848 2.433-2.323.818-.34 1.59-.66 1.59-1.161 0-.366-.46-.762-1.203-.762-.75 0-1.18.3-1.559.565-.262.183-.51.356-.805.356-.43 0-.768-.362-.768-.825 0-.68.931-1.355 2.156-1.593v-.471a.94.94 0 1 1 1.88 0l-.003.498c1.294.316 2.06 1.223 2.06 2.459" fill="#664500"/><path d="M20.97 4.93c0 1.369-1.38 1.902-2.487 2.33-.738.284-1.434.554-1.434.943 0 .643.862.675 1.034.675.61 0 .912-.228 1.18-.43.205-.155.418-.315.713-.315.55 0 .8.388.8.747 0 .717-.878 1.224-1.811 1.437v.384a.918.918 0 0 1-.916.916.918.918 0 0 1-.916-.916v-.415c-1.115-.325-1.8-1.145-1.8-2.18 0-1.278 1.262-1.802 2.374-2.264.797-.331 1.549-.643 1.549-1.132 0-.357-.448-.743-1.173-.743-.731 0-1.15.292-1.52.55-.255.179-.496.348-.784.348-.42 0-.748-.354-.748-.804 0-.663.907-1.322 2.102-1.554v-.46a.916.916 0 0 1 1.832 0l-.003.488c1.262.307 2.008 1.19 2.008 2.396" fill="#fff"/></g></svg>