<svg xmlns="http://www.w3.org/2000/svg" viewBox="0 0 45 45"><defs><clipPath id="a"><path d="M0 36h36V0H0v36z"/></clipPath><clipPath id="b"><path d="M18 36C8.059 36 0 27.941 0 18S8.059 0 18 0s18 8.059 18 18-8.059 18-18 18z"/></clipPath></defs><g clip-path="url(#a)" transform="matrix(1.25 0 0 -1.25 0 45)"><path d="M36 18c0-9.941-8.059-18-18-18C8.06 0 0 8.059 0 18c0 9.94 8.06 18 18 18 9.941 0 18-8.06 18-18" fill="#ffcc4d"/><path d="M28.957 18.203c-.059.135-1.499 3.297-4.457 3.297-2.957 0-4.397-3.162-4.457-3.297a.5.5 0 0 1 .755-.605c.012.01 1.262.902 3.702.902 2.426 0 3.674-.88 3.702-.9a.498.498 0 0 1 .755.603M15.957 18.203c-.06.135-1.499 3.297-4.457 3.297-2.957 0-4.397-3.162-4.457-3.297a.5.5 0 0 1 .754-.605c.013.01 1.262.902 3.703.902 2.426 0 3.674-.88 3.702-.9a.498.498 0 0 1 .755.603M13 8s1 4 5 4 5-4 5-4-1 1-5 1-5-1-5-1" fill="#664500"/></g><g clip-path="url(#b)" transform="matrix(1.25 0 0 -1.25 0 45)"><path d="M43.43 20.242l-45.834 8.342.379 2.083 45.835-8.342-.38-2.083z" fill="#e6e7e8"/><path d="M43.81 22.325l-45.835 8.342.189 1.042 45.835-8.342-.19-1.042z" fill="#bcbec0"/><path d="M43.999 23.367L-1.836 31.71l.379 2.083 45.836-8.342-.38-2.083z" fill="#e6e7e8"/><path d="M44.379 25.45l-45.836 8.343.19 1.04 45.834-8.341-.188-1.041z" fill="#d1d3d4"/><path d="M44.567 26.492l-45.834 8.342.378 2.083 45.836-8.342-.38-2.083z" fill="#e6e7e8"/><path d="M-6.888 23.325l45.835 8.342-.19 1.042-45.834-8.342.19-1.042z" fill="#bcbec0"/><path d="M-7.077 24.367l45.835 8.342-.38 2.083-45.835-8.342.38-2.083z" fill="#e6e7e8"/><path d="M-7.457 26.45l45.836 8.343-.189 1.04-45.835-8.34.188-1.042z" fill="#d1d3d4"/><path d="M-7.646 27.492l45.836 8.342-.38 2.083-45.836-8.342.38-2.083z" fill="#e6e7e8"/></g></svg>