<svg xmlns="http://www.w3.org/2000/svg" viewBox="0 0 45 45"><defs><clipPath id="a"><path d="M0 36h36V0H0v36z"/></clipPath></defs><g clip-path="url(#a)" transform="matrix(1.25 0 0 -1.25 0 45)"><path d="M22.88 2.903a.977.977 0 0 1-.418.391C20.865 5 22 7.001 22 7.001c0 .552 1 2 0 2l-1-1c-1-1-1-4-1-4h-2a1 1 0 1 1 0-2h1.108l-.222-.12a1 1 0 0 1 .95-1.76l2.64 1.427a.999.999 0 0 1 .404 1.355M15.88 2.903a.969.969 0 0 1-.417.391C13.866 5 15 7.001 15 7.001c0 .552 1 2 0 2l-1-1c-1-1-1-4-1-4h-2a1 1 0 1 1 0-2h1.108l-.222-.12a1 1 0 0 1 .95-1.76l2.64 1.427a.999.999 0 0 1 .404 1.355" fill="#ffac33"/><path d="M5.134 29c2-5-3-5-2-7s5 2 3 7-1 0-1 0" fill="#be1931"/><path d="M7 30c0-1.104 1.933-2 0-2s-7 1-7 2 1.067 3 3 3 4-1.896 4-3" fill="#ffac33"/><path d="M6 15c0 6 3.209 13 1 13-4 0-4 1.791-4 4a4 4 0 0 0 4 4c7 0 6-9 4-13-1.674-3.348-2.022-8-5-8" fill="#c1694f"/><path d="M36 19c0-7.959-5-11.3-10-11.249C23.966 5.955 21.073 5 18 5 11.373 5 6 9.836 6 15.8c0 5.965 5.373 10.8 12 10.8 3 2.7 7 6.5 10 7.4 6-3.6 8-7.8 8-15M7 33a1 1 0 1 0-2 0 1 1 0 0 0 2 0" fill="#292f33"/><path d="M17.984 26.6a13.037 13.037 0 0 1-4.586-.83c3.914.23 6.352.043 9.603-1.551-.923 1.516-3.392 2.38-5.017 2.38M35.926 21.165c-.086 1.278-.254 2.456-.52 3.545-6.25-1.273-3.404-3.545.52-3.545M33.941 28.388c-.676 1.154-1.54 2.205-2.623 3.186-7.162-3.574-3.006-4.73 2.623-3.186M35.153 13.915c-3.402 1.085-4.247-.821-2.216-3.415-2.5 2.344-4.03 1.063-3.344-2-1.468 2.188-2.968.208-3.593-.749 3.76-.038 7.52 1.844 9.153 6.164M31.315 31.576c-.937.85-2.029 1.652-3.315 2.424-7-3.688-2-4.406 3.315-2.424M35.153 13.916C35.691 15.34 36 17.027 36 19c0 .755-.028 1.471-.075 2.163-4.61-.382-3.8-2.882.006-3.351-3.556-.062-4.18-2.25-.778-3.896M33.943 28.385c-6.427-2.385-3.693-4.291 1.462-3.673a13.555 13.555 0 0 1-1.462 3.673" fill="#66757f"/></g></svg>