<svg xmlns="http://www.w3.org/2000/svg" viewBox="0 0 45 45"><defs><clipPath id="a"><path d="M0 36h36V0H0v36z"/></clipPath></defs><g clip-path="url(#a)" transform="matrix(1.25 0 0 -1.25 0 45)"><path d="M32.325 25.041s2.315-.024 3.511-1.177c-.336 4.971-2.104 8.25-5.945 10.13-3.14 1.12-6.066-1.452-6.066-1.452s.862 1.99 2.19 2.745C23.79 35.766 21.146 36 18 36c-3.136 0-5.785-.226-8.007-.7 1.342-.745 2.215-2.758 2.215-2.758S9.194 35.197 6 33.945C2.221 32.053.481 28.779.16 23.827c1.182 1.19 3.55 1.216 3.55 1.216S-.106 22.734.282 19.387c.387-2.947 1.394-5.967 2.878-8.722C3.04 13.85 5.917 16 5.917 16s-2.492-5.96-.58-8.738C7.27 4.72 9.648 2.622 12.31 1.346c-.954 1.645-.135 3.044-.103 2.945.042-.125.46-3.112 2.138-3.743C15.524.193 16.746 0 18 0c1.292 0 2.55.207 3.761.583 1.614.692 2.023 3.585 2.064 3.708.032.098.843-1.287-.09-2.92 2.706 1.308 5.118 3.463 7.065 6.073C32.498 10.29 30.116 16 30.116 16s2.85-2.13 2.757-5.288c1.556 2.907 2.585 6.105 2.911 9.2-.035 3.062-3.459 5.13-3.459 5.13" fill="#662113"/><path d="M13.86 26.505c.595-2.392.16-4.422-2.233-5.017-2.392-.596-6.363-.087-6.958 2.304-.596 2.392.47 5.39 1.811 5.724 1.341.334 6.784-.62 7.38-3.011M22.963 8.073a4.964 4.964 0 1 0-9.927.001 4.964 4.964 0 0 0 9.927 0" fill="#ffcc4d"/><path d="M21.309 8.073a3.309 3.309 0 1 0-6.618 0 3.309 3.309 0 0 0 6.618 0" fill="#dd2e44"/><path d="M11.052 27.003a2.976 2.976 0 0 0-.946-4.1c-1.393-.87-2.608-.797-3.478.597-.871 1.393-.186 4.13.324 4.45.51.318 3.229.447 4.1-.947" fill="#e6aaaa"/><path d="M22.14 26.505c-.595-2.392-.158-4.422 2.233-5.017 2.392-.596 6.363-.087 6.959 2.304.595 2.392-.47 5.39-1.811 5.724-1.342.334-6.785-.62-7.38-3.011" fill="#ffcc4d"/><path d="M24.948 27.003a2.976 2.976 0 0 1 .945-4.1c1.395-.87 2.61-.797 3.48.597.87 1.393.184 4.13-.325 4.45-.51.318-3.229.447-4.1-.947" fill="#e6aaaa"/><path d="M18 28.875h-.003C5.167 28.874 7.125 23.917 8.5 17.333 9.875 10.75 10.384 9 10.384 9H25.612s.51 1.75 1.885 8.333c1.375 6.584 3.332 11.541-9.497 11.542" fill="#ffcc4d"/><path d="M12 20s0 1.5 1.5 1.5S15 20 15 20v-1.5s0-1.5-1.5-1.5-1.5 1.5-1.5 1.5V20zM21 20s0 1.5 1.5 1.5S24 20 24 20v-1.5s0-1.5-1.5-1.5-1.5 1.5-1.5 1.5V20z" fill="#272b2b"/><path d="M20.168 14.48c-1.598 0-1.385-.849-2.169-2.114-.782 1.266-.57 2.114-2.168 2.114-6.865 0-6.837-.376-6.865-2.829-.058-4.986 2.802-6.131 5.257-6.06 1.597.049 2.994.88 3.777 2.132.783-1.251 2.179-2.083 3.776-2.131 2.455-.072 5.316 1.073 5.257 6.06-.028 2.452 0 2.827-6.865 2.827" fill="#ffe8b6"/><path d="M14.582 14.589c-1.14-.232 2.278-4.431 3.418-4.431 1.14 0 4.558 4.199 3.418 4.43-1.139.233-5.698.233-6.837 0" fill="#272b2b"/><path d="M12 11.5a.5.5 0 1 0-1 0 .5.5 0 0 0 1 0M11 9.5a.5.5 0 1 0-1 0 .5.5 0 0 0 1 0M13 8.5a.5.5 0 1 0-1 0 .5.5 0 0 0 1 0M24 11.5a.5.5 0 1 1 1 0 .5.5 0 0 1-1 0M25 9.5a.5.5 0 1 1 1 0 .5.5 0 0 1-1 0M23 8.5a.5.5 0 1 1 1 0 .5.5 0 0 1-1 0" fill="#d99e82"/></g></svg>