<svg xmlns="http://www.w3.org/2000/svg" viewBox="0 0 45 45"><defs><clipPath id="a"><path d="M0 36h36V0H0v36z"/></clipPath></defs><g clip-path="url(#a)" transform="matrix(1.25 0 0 -1.25 0 45)"><path d="M18.72 9.597c-.467-2.46 1.725-5.18 1.725-5.18s-.424 3.21.806 4.843c.847 1.126.247 2.372-.45 2.466-.702.094-1.818-.744-2.08-2.13" fill="#583529"/><path d="M15.626 9.52c-2.522-1.884-4.935-.761-6.144 1.08C8.274 12.443 7 11.39 8.2 9.396c1.199-1.993 4.824-4.956 9.17-1.586 3.3 2.556-.958 2.298-1.745 1.71" fill="#583529"/><path d="M9.64 9.894C8.07 7.664 3.92 8.2 2.315 11.906c-1.55 3.582-.344 6.84.463 7.849.33.41-.513-4.813 2.236-6.252 1.206-.63-2.444 3.4-.694 7.134.525 1.119-.05-3.787 3.262-5.195 1.446-.615 4.357-2.282 2.056-5.548M12.313 14.167c.594.753 1.641 1.554 8.5 1.554 5.125 0 6.58 2.417 8.287 3.019 5.837 2.061 3.756-11.752-5.973-11.752-9.73 0-11.612 6.169-10.814 7.179" fill="#7c533e"/><path d="M23.172 15.919c6.388 1.07 8.032 8.666 5.91 12.58-1.99 3.675-6.98 5.399-11.152 1.96.159-1.03.505-5.625-3.341-6.183 1.226 2.513-2.538 4.374-1.394 7.632 1.147 3.259 4.257 2.477 4.523 1.632 3.157 2.543 7.24 2.793 8.832 1.21 4.747-.042 7.714-3.234 7.712-5.581 2.738-2.731 1.372-9.475.226-10.22.512-4.033-.661-7.755-5.112-9.043-.768-.222-11.916 5.055-6.204 6.013" fill="#7c533e"/><path d="M18.013 10.454c-1.06-1.73-2.948-2.413-4.773-2.2-2.481.286-2.49-1.588.117-1.992 1.497-.233 3.867-.012 5.635 1.424 2.248 1.83-.37 3.77-.98 2.768" fill="#af7e57"/><path d="M13.97 7.877c.798-2.984-2.683-6.209-7.073-4.911C2.653 4.221.695 7.636.404 9.072.287 9.655 4.22 5.129 7.47 6.476c1.423.589-4.736.344-6.713 4.58-.594 1.269 3.259-2.795 6.89-.938 1.587.811 5.15 2.133 6.323-2.241" fill="#af7e57"/><path d="M17.066 13.275a1.275 1.275 0 1 0-2.55.001 1.275 1.275 0 0 0 2.55 0" fill="#292f33"/><path d="M30.741 10.427c1.428-2.058.53-5.433.53-5.433s-.917 3.104-2.705 4.096c-1.23.685-1.19 2.067-.59 2.437.602.37 1.962.058 2.765-1.1M27.895 8.848c1.113-2.243-.265-5.452-.265-5.452S27.172 6.6 25.549 7.84c-1.12.856-.878 2.218-.23 2.496.648.279 1.95-.226 2.576-1.49M24.612 7.763c.468-2.46-1.725-5.18-1.725-5.18s.424 3.21-.805 4.843c-.848 1.126-.247 2.372.451 2.466.7.094 1.817-.744 2.08-2.13" fill="#af7e57"/><path d="M29.5 21.675c-.229.013-1.15-1.68-1.082-2.023.226-1.132 4.853-1.277 6.07-.702.908.428 1.383 2.55 1.261 3.529-2.024-1-5.739-.832-6.249-.804M33.067 31.962c-.208-1.04-2.927-2.868-4.142-3.14-.187-.041.386-1.494.706-1.684.32-.19 4.456 1.019 4.63 2.03.098.566-.23 2.238-1.194 2.794M26.55 34.75c-.001.226-.785 1.018-2.098.93.423-1.477-.405-2.899-.814-3.413-.136-.171 1.449-.508 1.686-.429.428.142 1.229 1.766 1.226 2.912" fill="#583529"/><path d="M17.896 33.541c-.541 1.098-2.416 1.438-3.791.063s-1.647-3.167-.792-4.959c.854-1.79 1.854-2.937 1.062-4.5 2.042.271 3.279 2.2 3.625 3.167.625 1.75.75 4.5-.104 6.23" fill="#292f33"/></g></svg>