<svg xmlns="http://www.w3.org/2000/svg" viewBox="0 0 45 45"><defs><clipPath id="a"><path d="M0 36h36V0H0v36z"/></clipPath></defs><g clip-path="url(#a)" transform="matrix(1.25 0 0 -1.25 0 45)"><path d="M6.96 15.363c.068-.639-.543-1.228-1.368-1.315-.823-.089-1.547.357-1.615.995-.068.638.544 1.226 1.368 1.314.823.09 1.547-.356 1.615-.994M9.047 12.646c.125-.819-1.756-2.545-2.576-2.67a1.499 1.499 0 0 0-1.708 1.257c-.125.818.579 1.14 1.398 1.264.82.125 2.76.966 2.886.148M10.83 10.542c.173-.81-1.628-3.927-2.438-4.1-.81-.173-1.645-.145-1.817.665-.173.81.305 1.688 1.115 1.862.811.173 2.967 2.383 3.14 1.573M14.683 9.684c.165-.811-1.338-4.354-2.15-4.52-.812-.164-1.439-.45-1.604.362-.165.81.261 1.974 1.006 2.58.643.522 2.583 2.39 2.748 1.578" fill="#a0041e"/><path d="M3.925 17.13c.607-.714 1.18-1.23.464-1.834-.715-.606-1.747-.162-2.353.554-.605.715-2.239 3.42-1.524 4.025.716.606 2.808-2.03 3.413-2.744M4.255 12.251c.892-.295 1.857-.801 1.563-1.691-.294-.891-1.328-.992-2.22-.699-.888.295-3.771 1.692-3.477 2.581.295.891 3.244.103 4.134-.191M5.47 7.719c.904.253 1.906.283 2.158-.62.252-.902-.283-1.534-1.186-1.786-.903-.251-4.343-.727-4.594.177-.252.904 2.718 1.979 3.621 2.229M9.817 4.531c.084.937.644 1.67 1.577 1.585.934-.085 1.258-1.025 1.173-1.96-.084-.934.147-3.563-1.715-4.016-.912-.22-1.12 3.46-1.035 4.391M29.04 15.363c-.068-.639.543-1.228 1.367-1.315.824-.089 1.547.357 1.615.995.069.638-.544 1.226-1.367 1.314-.824.09-1.547-.356-1.615-.994M26.953 12.646c-.125-.819 1.757-2.545 2.575-2.67a1.5 1.5 0 0 1 1.71 1.257c.124.818-.58 1.14-1.399 1.264-.82.125-2.76.966-2.886.148M25.17 10.542c-.173-.81 1.628-3.927 2.438-4.1.81-.173 1.645-.145 1.817.665.174.81-.305 1.688-1.115 1.862-.811.173-2.967 2.383-3.14 1.573M21.317 9.684c-.166-.811 1.338-4.354 2.15-4.52.812-.164 1.438-.45 1.604.362.164.81-.262 1.974-1.007 2.58-.643.522-2.583 2.39-2.747 1.578" fill="#a0041e"/><path d="M32.075 17.13c-.607-.714-1.18-1.23-.465-1.834.716-.606 1.747-.162 2.354.554.605.715 2.24 3.42 1.523 4.025-.715.606-2.807-2.03-3.412-2.744M31.745 12.251c-.892-.295-1.857-.801-1.562-1.691.292-.891 1.328-.992 2.218-.699.89.295 3.772 1.692 3.478 2.581-.294.891-3.244.103-4.134-.191M30.53 7.719c-.904.253-1.906.283-2.158-.62-.252-.902.282-1.534 1.185-1.786.903-.251 4.343-.727 4.594.177.252.904-2.718 1.979-3.62 2.229M26.183 4.531c-.084.937-.645 1.67-1.577 1.585-.935-.085-1.258-1.025-1.173-1.96.084-.934-.147-3.563 1.715-4.016.912-.22 1.12 3.46 1.035 4.391M3.148 22.122a1.696 1.696 0 1 0 3.1 1.384c.381-.855 2.651-5.612 1.796-5.993-.857-.383-4.514 3.754-4.896 4.61" fill="#a0041e"/><path d="M3.994 23.966c1.22-2.956 8.34 3.34 8.803 6.28.462 2.94-.308 4.202-.694 4.5-.385.3.144-1.434-1.187-3.305-1.053-1.481-7.765-5.433-6.922-7.475M32.852 22.122a1.698 1.698 0 0 1-3.101 1.384c-.381-.855-2.65-5.612-1.794-5.993.856-.383 4.513 3.754 4.895 4.61" fill="#a0041e"/><path d="M32.007 23.966c-1.222-2.956-8.341 3.34-8.804 6.28-.461 2.94.309 4.202.695 4.5.385.3-.144-1.434 1.186-3.305 1.054-1.481 7.766-5.433 6.923-7.475" fill="#a0041e"/><path d="M6 14c0 2 2 10 12 10s12-8 12-10c-5-3-5.373-7-12-7s-6 4-12 7M4.323 23.777c-3.152-.543-.357 8.141 1.883 10.1 2.24 1.957 4.657 1.916 5.115 1.75.459-.168-1.174-2.596-1.75-4.179-.293-.803-3.072-7.296-5.248-7.67M31.677 23.777c3.152-.543.358 8.141-1.882 10.1-2.24 1.957-4.656 1.916-5.115 1.75-.46-.168 1.174-2.596 1.75-4.179.293-.803 3.07-7.296 5.247-7.67" fill="#be1931"/><path d="M17.032 23.864c.335-1.34-.045-1.588-.85-1.79-.803-.2-1.725-.277-2.06 1.062-.335 1.34.045 2.589.848 2.79.805.2 1.727-.722 2.062-2.062M21.878 23.136c-.335-1.34-1.258-1.262-2.061-1.06-.804.2-1.184.448-.85 1.788.336 1.34 1.259 2.262 2.062 2.061.804-.2 1.184-1.45.849-2.789" fill="#a0041e"/><path d="M16 26.5a1.5 1.5 0 1 0-2.999-.001A1.5 1.5 0 0 0 16 26.5M23 26.5a1.5 1.5 0 1 0-3 0 1.5 1.5 0 0 0 3 0" fill="#292f33"/><path d="M9.053 14.47c-.14-.234-3.053-.73-2.303.732.75 1.463 2.443-.497 2.303-.731" fill="#dd2e44"/><path d="M9.89 15.876c-.217-.225-3.187-.391-1.921 1.404 1.266 1.793 2.234-1.082 1.922-1.404" fill="#dd2e44"/><path d="M11.657 17.34c-.378-.231-3.471.5-1.407 1.932 1.872 1.297 1.907-1.626 1.407-1.932" fill="#dd2e44"/><path d="M14.102 18.573c-1.008-.299-3.378 1.302-.88 2.141 2.497.84 1.888-1.842.88-2.14M26.856 14.47c.141-.234 3.053-.73 2.303.732-.75 1.463-2.444-.497-2.303-.731" fill="#dd2e44"/><path d="M26.019 15.876c.218-.225 3.188-.391 1.922 1.404-1.266 1.793-2.234-1.082-1.922-1.404" fill="#dd2e44"/><path d="M24.253 17.34c.378-.231 3.47.5 1.406 1.932-1.872 1.297-1.906-1.626-1.406-1.932" fill="#dd2e44"/><path d="M21.808 18.573c1.008-.299 3.378 1.302.88 2.141-2.497.84-1.89-1.842-.88-2.14" fill="#dd2e44"/><path d="M26.849 19.75c0-.414-2.188 2.25-8.85 2.25-6.66 0-8.847-2.664-8.847-2.25 0 .414 2.755 3.75 8.848 3.75 6.094 0 8.849-3.336 8.849-3.75" fill="#a0041e"/><path d="M10.793 11.567c0 .414 1.783-2.25 7.208-2.25 5.424 0 7.207 2.664 7.207 2.25 0-.414-2.244-3.75-7.207-3.75-4.963 0-7.207 3.336-7.207 3.75" fill="#dd2e44"/></g></svg>