<svg xmlns="http://www.w3.org/2000/svg" viewBox="0 0 45 45"><defs><clipPath id="a"><path d="M0 36h36V0H0v36z"/></clipPath></defs><g clip-path="url(#a)" transform="matrix(1.25 0 0 -1.25 0 45)"><path d="M36 16.145c-2.482 9.931-10.994 17.945-19.969 13.022 0 0-4.521 1.497-5.174 1.95-.634.44-1.634.903-.912-.437.423-.782.875-1.673 2.404-3.317C8 23.041 9.279 17.737 7.743 14.25c-1.304-2.96-2.577-4.733-1.309-6.975 1.317-2.33 4.729-3.462 7.017-1.06 1.244 1.307.471 1.937 3.132 4.202 2.724.543 4.395 1.791 4.395 4.375 0 0 .795.382 1.826-6.008.456-2.819-.158-5.632-.039-8.784H36v16.146z" fill="#9266cc"/><path d="M36 25.044c-.749 1.038-1.281 3.019-4.094 4.894.531-1.313.848-3.71.595-5.32-.15 3.924-3.188 6.582-4.376 7.195-2.202 1.136-4.372.978-6.799.772.111-.168.404-.814.32-1.547-.479.875-1.604 1.42-2.332 1.272-3.5-.713-5.974-2.232-5.091-3.856 8.936 3.476 14.643-2.161 17.736-8.704.769-1.625 2.611-7.132 4.041-10.292v15.586z" fill="#55acee"/><path d="M16.898 29.269c-2.12-.564-5.26-2.509-6.537-4.573 0 0-2.59-.655-3.631 1.845 2.562-.827 4.826 2.34 6.737 3.511 4.029 2.468 3.315.186 3.315.186l.116-.969z" fill="#55acee"/><path d="M13.848 27.878l-.005.007C13.127 28.594.949 36.51.219 35.78c-.73-.73 10.224-9.523 10.93-10.061.004-.002.008-.003.01-.006.739.806 1.69 1.55 2.689 2.164" fill="#f4900c"/><path d="M13.79 32.338c.572-.788 3.235-.794 4.595-3.82 1.36-3.027-1.944-2.63-3.14-1.231-1.334 1.56-1.93 2.863-2.165 3.992-.124.597-.45 2.65.71 1.059" fill="#9266cc"/><path d="M14.209 31.038c.956-.573 2.164-1.515 2.517-2.596.351-1.08-.707-.89-1.349.042-.641.934-.939 1.975-1.285 2.263-.346.29.117.291.117.291" fill="#744eaa"/><path d="M16.186 21.604a.946.946 0 1 0-1.861-.338.946.946 0 0 0 1.86.338" fill="#292f33"/><path d="M8.63 9.123c.119-.658-.181-1.263-.67-1.352-.49-.088-.984.373-1.103 1.031-.12.659.18 1.264.67 1.353.49.089.984-.372 1.103-1.032" fill="#744eaa"/></g></svg>