<svg xmlns="http://www.w3.org/2000/svg" viewBox="0 0 45 45"><defs><clipPath id="a"><path d="M0 36h36V0H0v36z"/></clipPath></defs><path d="M14.74 7.578l-.013 4.154 6.684-1.733-3.67-2.498-3.002.077z" fill="#ffac33"/><g clip-path="url(#a)" transform="matrix(1.25 0 0 -1.25 0 45)"><path d="M33.25 12.518c0 1.138.761 2.07 1.75 2.238v11.659c-4 .962-34-7.191-34-7.191v-3.536a3.373 3.373 0 0 0 2.75-3.313A3.373 3.373 0 0 0 1 9.063V1.347L35 7.83v2.45c-.989.168-1.75 1.1-1.75 2.238" fill="#ffac33"/><path d="M15.585 33.758l-3.843-3.843c.736-.172 1.258-.591 1.258-1.081 0-.645-.896-1.167-2-1.167-.474 0-.903.1-1.246.26L1 19.173c13.167 2.91 22.042 5.285 34.1 7.225-4.862 6.483-16.274 7.36-19.515 7.36" fill="#ffd983"/><path d="M20 30.834c0-.645-.895-1.167-2-1.167-1.104 0-2 .521-2 1.166 0 .645.896 1.168 2 1.168 1.105 0 2-.523 2-1.167M15.072 24.438c0-.979-1.36-1.771-3.036-1.771S9 23.459 9 24.438c0 .977 1.36 1.77 3.036 1.77 1.677 0 3.036-.793 3.036-1.77M29 27.648c0-1.094-1.52-1.981-3.396-1.981-1.875 0-3.396.887-3.396 1.98 0 1.095 1.521 1.982 3.396 1.982 1.876 0 3.396-.887 3.396-1.981" fill="#ffac33"/><path d="M33.625 20.38c0-1.332-.979-2.41-2.188-2.41-1.207 0-2.187 1.078-2.187 2.41 0 1.331.98 2.411 2.187 2.411 1.209 0 2.188-1.08 2.188-2.41M11.375 15.518c0-1.255-.923-2.272-2.063-2.272-1.139 0-2.062 1.017-2.062 2.272 0 1.256.923 2.273 2.062 2.273 1.14 0 2.063-1.017 2.063-2.273M28.531 10.538c-.503-.602-1.355-.72-1.903-.262-.547.457-.582 1.318-.077 1.92.504.604 1.356.721 1.903.264.548-.458.582-1.318.077-1.922M18.847 17.916c-.677-.811-1.825-.97-2.563-.352-.735.615-.783 1.772-.103 2.582.68.814 1.826.972 2.562.356.737-.616.784-1.772.104-2.586M19.72 7.901c-1.2-1.604-3.354-2.02-4.808-.933-1.455 1.088-1.663 3.273-.463 4.875 1.2 1.606 3.354 2.023 4.808.935 1.455-1.088 1.663-3.272.463-4.877" fill="#f4900c"/></g></svg>