<svg xmlns="http://www.w3.org/2000/svg" viewBox="0 0 45 45"><defs><clipPath id="a"><path d="M0 36h36V0H0v36z"/></clipPath></defs><g clip-path="url(#a)" transform="matrix(1.25 0 0 -1.25 0 45)"><path d="M5.207 23.326H2.373c-1.248 0-1.768.91-1.768 1.794 0 .91.65 1.794 1.768 1.794h9.568c1.12 0 1.769-.884 1.769-1.794 0-.884-.52-1.794-1.768-1.794H9.108V10.273c0-1.299-.832-2.027-1.95-2.027-1.118 0-1.95.728-1.95 2.027v13.053zM16.466 25.068c.156.936 1.17 2.002 2.548 2.002 1.3 0 2.314-.936 2.6-1.872l3.068-10.296h.053l3.068 10.296c.285.936 1.3 1.872 2.599 1.872 1.379 0 2.393-1.066 2.549-2.002l2.418-14.507c.026-.157.026-.313.026-.444 0-1.142-.832-1.871-1.871-1.871-1.327 0-1.848.598-2.03 1.82L29.96 20.649h-.053l-3.12-10.894c-.18-.623-.675-1.508-2.08-1.508-1.403 0-1.897.885-2.08 1.508l-3.12 10.894h-.051l-1.535-10.581c-.182-1.223-.702-1.821-2.028-1.821-1.04 0-1.872.729-1.872 1.87 0 .132 0 .288.026.445l2.418 14.507z" fill="#292f33"/></g></svg>