<svg xmlns="http://www.w3.org/2000/svg" viewBox="0 0 45 45"><defs><clipPath id="a"><path d="M0 36h36V0H0v36z"/></clipPath></defs><g clip-path="url(#a)" transform="matrix(1.25 0 0 -1.25 0 45)"><path d="M36 4a4 4 0 0 0-4-4H4a4 4 0 0 0-4 4v28a4 4 0 0 0 4 4h28a4 4 0 0 0 4-4V4z" fill="#3b88c3"/><path d="M16.296 16.27h2.946l.496 3.535h-2.946l-.496-3.535zm-2.51 3.535h-2.668c-1.023 0-1.488.744-1.488 1.488 0 .745.465 1.49 1.488 1.49h3.101l.682 4.99c.155 1.117.62 1.49 1.55 1.49.744 0 1.426-.497 1.426-1.242 0-.465 0-.248-.06-.744l-.622-4.495h2.977l.682 4.991c.155 1.117.62 1.49 1.55 1.49.744 0 1.427-.497 1.427-1.242 0-.465 0-.248-.062-.744l-.62-4.495h2.666c1.023 0 1.487-.744 1.487-1.489 0-.744-.464-1.488-1.487-1.488h-3.1l-.497-3.535h2.666c1.024 0 1.49-.744 1.49-1.488s-.466-1.489-1.49-1.489h-3.099l-.683-4.99c-.155-1.118-.62-1.489-1.55-1.489-.744 0-1.426.496-1.426 1.24 0 .465 0 .248.062.744l.62 4.495h-2.977l-.682-4.99c-.155-1.118-.62-1.489-1.55-1.489-.744 0-1.427.496-1.427 1.24 0 .465 0 .248.062.744l.621 4.495h-2.667c-1.023 0-1.488.745-1.488 1.49 0 .743.465 1.487 1.488 1.487h3.101l.496 3.535z" fill="#fff"/></g></svg>