<svg xmlns="http://www.w3.org/2000/svg" viewBox="0 0 45 45"><defs><clipPath id="a"><path d="M0 36h36V0H0v36z"/></clipPath></defs><g clip-path="url(#a)" transform="matrix(1.25 0 0 -1.25 0 45)"><path d="M25 4a4 4 0 0 0-4-4h-6a4 4 0 0 0-4 4v28a4 4 0 0 0 4 4h6a4 4 0 0 0 4-4V4z" fill="#292f33"/><path d="M32 18a2 2 0 0 1-2 2h-1a2 2 0 0 1 0-4h1a2 2 0 0 1 2 2" fill="#99aab5"/><path d="M6 18c0 6.627 5.373 12 12 12s12-5.373 12-12S24.627 6 18 6 6 11.373 6 18" fill="#ccd6dd"/><path d="M10 18c0 4.419 3.582 8 8 8a8 8 0 0 0 8-8 8 8 0 1 0-16 0" fill="#f5f8fa"/><path d="M23 14a.997.997 0 0 0-.514.143l-5 2.999a1 1 0 0 0-.486.857V25a1 1 0 0 0 2 0v-6.434l4.516-2.709A1 1 0 0 0 23 14" fill="#66757f"/></g></svg>