<svg xmlns="http://www.w3.org/2000/svg" viewBox="0 0 45 45"><defs><clipPath id="a"><path d="M0 36h36V0H0v36z"/></clipPath></defs><g clip-path="url(#a)" transform="matrix(1.25 0 0 -1.25 0 45)"><path d="M21 18v.001c0 2 3.246 3.368 5 5.999 2 3 2 10 2 10H8s0-7 2-9.999c1.753-2.632 4.999-4 4.999-6V18c0-2.001-3.246-3.369-4.999-6C8 9 8 2 8 2h20s0 7-2 10c-1.754 2.631-5 3.999-5 6" fill="#ffe8b6"/><path d="M20.999 12c-.999 0-2.057 1-2.057 2 .057 1.713.058 2.846.058 4.001 0 3.219 3.034 4.561 4.9 6.999H12.1c1.865-2.438 4.9-3.78 4.9-6.999 0-1.155 0-2.289.058-4.001 0-1-1.059-2-2.059-2-2 0-3.594-1.784-4-3C10 6 10 2 10 2h16s0 4-1 7c-.405 1.216-2.001 3-4.001 3" fill="#ffac33"/><path d="M30 2a2 2 0 0 0-2-2H8a2 2 0 0 0 0 4h20a2 2 0 0 0 2-2M30 34a2 2 0 0 0-2-2H8a2 2 0 0 0 0 4h20a2 2 0 0 0 2-2" fill="#3b88c3"/></g></svg>