<svg xmlns="http://www.w3.org/2000/svg" viewBox="0 0 45 45"><defs><clipPath id="a"><path d="M0 36h36V0H0v36z"/></clipPath></defs><g clip-path="url(#a)" transform="matrix(1.25 0 0 -1.25 0 45)"><path d="M36 8a2 2 0 0 0-2-2H2a2 2 0 0 0-2 2v16a2 2 0 0 0 2 2h32a2 2 0 0 0 2-2V8z" fill="#99aab5"/><path d="M5.5 17a1 1 0 0 0-1-1h-1a1 1 0 0 0-1 1v1a1 1 0 0 0 1 1h1a1 1 0 0 0 1-1v-1zM9.5 17a1 1 0 0 0-1-1h-1a1 1 0 0 0-1 1v1a1 1 0 0 0 1 1h1a1 1 0 0 0 1-1v-1zM13.5 17a1 1 0 0 0-1-1h-1a1 1 0 0 0-1 1v1a1 1 0 0 0 1 1h1a1 1 0 0 0 1-1v-1zM17.5 17a1 1 0 0 0-1-1h-1a1 1 0 0 0-1 1v1a1 1 0 0 0 1 1h1a1 1 0 0 0 1-1v-1zM21.5 17a1 1 0 0 0-1-1h-1a1 1 0 0 0-1 1v1a1 1 0 0 0 1 1h1a1 1 0 0 0 1-1v-1zM25.5 17a1 1 0 0 0-1-1h-1a1 1 0 0 0-1 1v1a1 1 0 0 0 1 1h1a1 1 0 0 0 1-1v-1zM29.5 17a1 1 0 0 0-1-1h-1a1 1 0 0 0-1 1v1a1 1 0 0 0 1 1h1a1 1 0 0 0 1-1v-1zM33.5 17a1 1 0 0 0-1-1h-1a1 1 0 0 0-1 1v1a1 1 0 0 0 1 1h1a1 1 0 0 0 1-1v-1zM7.5 13a1 1 0 0 0-1-1h-1a1 1 0 0 0-1 1v1a1 1 0 0 0 1 1h1a1 1 0 0 0 1-1v-1zM11.5 13a1 1 0 0 0-1-1h-1a1 1 0 0 0-1 1v1a1 1 0 0 0 1 1h1a1 1 0 0 0 1-1v-1zM15.5 13a1 1 0 0 0-1-1h-1a1 1 0 0 0-1 1v1a1 1 0 0 0 1 1h1a1 1 0 0 0 1-1v-1zM19.5 13a1 1 0 0 0-1-1h-1a1 1 0 0 0-1 1v1a1 1 0 0 0 1 1h1a1 1 0 0 0 1-1v-1zM23.5 13a1 1 0 0 0-1-1h-1a1 1 0 0 0-1 1v1a1 1 0 0 0 1 1h1a1 1 0 0 0 1-1v-1zM27.5 13a1 1 0 0 0-1-1h-1a1 1 0 0 0-1 1v1a1 1 0 0 0 1 1h1a1 1 0 0 0 1-1v-1zM31.5 13a1 1 0 0 0-1-1h-1a1 1 0 0 0-1 1v1a1 1 0 0 0 1 1h1a1 1 0 0 0 1-1v-1zM10 9a1 1 0 0 0-1-1H7a1 1 0 0 0-1 1v1a1 1 0 0 0 1 1h2a1 1 0 0 0 1-1V9zM30 9a1 1 0 0 0-1-1h-2a1 1 0 0 0-1 1v1a1 1 0 0 0 1 1h2a1 1 0 0 0 1-1V9zM25 9a1 1 0 0 0-1-1H12a1 1 0 0 0-1 1v1a1 1 0 0 0 1 1h12a1 1 0 0 0 1-1V9zM5.5 22.916a1 1 0 0 0-1-1h-1a1 1 0 0 0 0 2h1a1 1 0 0 0 1-1M9.5 22.916a1 1 0 0 0-1-1h-1a1 1 0 0 0 0 2h1a1 1 0 0 0 1-1M13.5 22.916a1 1 0 0 0-1-1h-1a1 1 0 0 0 0 2h1a1 1 0 0 0 1-1M17.5 22.916a1 1 0 0 0-1-1h-1a1 1 0 0 0 0 2h1a1 1 0 0 0 1-1M21.5 22.916a1 1 0 0 0-1-1h-1a1 1 0 1 0 0 2h1a1 1 0 0 0 1-1M25.5 22.916a1 1 0 0 0-1-1h-1a1 1 0 1 0 0 2h1a1 1 0 0 0 1-1M29.5 22.916a1 1 0 0 0-1-1h-1a1 1 0 1 0 0 2h1a1 1 0 0 0 1-1M33.5 22.916a1 1 0 0 0-1-1h-1a1 1 0 1 0 0 2h1a1 1 0 0 0 1-1" fill="#292f33"/></g></svg>