<svg xmlns="http://www.w3.org/2000/svg" viewBox="0 0 45 45"><defs><clipPath id="a"><path d="M0 36h36V0H0v36z"/></clipPath></defs><g clip-path="url(#a)" transform="matrix(1.25 0 0 -1.25 0 45)"><path d="M20 29.959a2.012 2.012 0 0 0-2-2.014c-1.097 0-2 .902-2 2.014v4.028c0 1.111.903 2.013 2 2.013s2-.901 2-2.013v-4.029z" fill="#ffcc4d"/><path d="M9.18 0c-.224 0-.452.052-.666.159a1.52 1.52 0 0 0-.666 2.027l8.94 18.128a1.49 1.49 0 0 0 1.333.834c.565 0 1.08-.323 1.332-.834l8.942-18.128a1.52 1.52 0 0 0-.666-2.027 1.482 1.482 0 0 0-2 .676L18.122 16.26 10.514.835A1.489 1.489 0 0 0 9.18 0" fill="#ffac33"/><path d="M18.121 15.608a.985.985 0 0 0-.702.295l-13.907 14.1a1.017 1.017 0 0 0 0 1.423.983.983 0 0 0 1.404 0L18.121 18.04l13.203 13.386a.985.985 0 0 0 1.405 0 1.017 1.017 0 0 0 0-1.424L18.824 15.903a.988.988 0 0 0-.703-.295" fill="#58595b"/><path d="M34.015 16.615C34.015 7.717 26.9.505 18.12.505c-8.777 0-15.893 7.212-15.893 16.11 0 8.9 7.116 16.113 15.893 16.113 8.779 0 15.894-7.213 15.894-16.113" fill="#dd2e44"/><path d="M30.041 16.615c0-6.674-5.335-12.084-11.92-12.084-6.583 0-11.919 5.41-11.919 12.084 0 6.675 5.336 12.085 11.919 12.085 6.585 0 11.92-5.41 11.92-12.085" fill="#e6e7e8"/><path d="M30.04 34.743a5.899 5.899 0 0 1-4.214-1.77l8.429-8.544A6.066 6.066 0 0 1 36 28.7c0 3.336-2.669 6.042-5.96 6.042M5.96 34.743a5.9 5.9 0 0 0 4.214-1.77l-8.429-8.544A6.07 6.07 0 0 0 0 28.7c0 3.336 2.668 6.042 5.96 6.042" fill="#ffcc4d"/><path d="M23 16h-5a1 1 0 0 0-1 1v9a1 1 0 0 0 2 0v-8h4a1 1 0 1 0 0-2" fill="#414042"/></g></svg>