<svg xmlns="http://www.w3.org/2000/svg" viewBox="0 0 45 45"><defs><clipPath id="a"><path d="M0 36h36V0H0v36z"/></clipPath></defs><path d="M20 10h5V6.25h-5V10z" fill="#292f33"/><g clip-path="url(#a)" transform="matrix(1.25 0 0 -1.25 0 45)"><path d="M22 35h-8c-1.1 0-2-.9-2-2s.9-2 2-2h8c1.1 0 2 .9 2 2s-.9 2-2 2M28.184 24.493l-1.504 1.318a2.005 2.005 0 0 0-.187 2.822 2.006 2.006 0 0 0 2.822.187l1.505-1.318a2.007 2.007 0 0 0 .186-2.823 2.006 2.006 0 0 0-2.822-.186" fill="#8899a6"/><path d="M18 26c-6.065 0-11-4.935-11-11S11.935 4 18 4s11 4.935 11 11-4.935 11-11 11" fill="#f5f8fa"/><path d="M18 4C11.935 4 7 8.935 7 15s4.935 11 11 11 11-4.935 11-11S24.065 4 18 4m0 25c-7.732 0-14-6.268-14-14S10.268 1 18 1s14 6.268 14 14-6.268 14-14 14" fill="#66757f"/><path d="M27 14H17a1 1 0 1 0 0 2h10a1 1 0 1 0 0-2M19 24a1 1 0 1 0-2 0 1 1 0 0 0 2 0M19 6a1 1 0 1 0-2 0 1 1 0 0 0 2 0M12.707 21.707a.999.999 0 1 0-1.414-1.414.999.999 0 1 0 1.414 1.414M24.707 9.707a.999.999 0 1 0-1.414-1.414.999.999 0 1 0 1.414 1.414M9 16a1 1 0 1 0 0-2 1 1 0 0 0 0 2M23.293 21.707a.999.999 0 1 0 1.414-1.414.999.999 0 1 0-1.414 1.414" fill="#292f33"/><path d="M12 8a.999.999 0 0 0-.707 1.707l7 7a.999.999 0 1 0 1.414-1.414l-7-7A.997.997 0 0 0 12 8" fill="#dd2e44"/></g></svg>