<svg xmlns="http://www.w3.org/2000/svg" viewBox="0 0 45 45"><defs><clipPath id="a"><path d="M0 36h36V0H0v36z"/></clipPath></defs><g clip-path="url(#a)" transform="matrix(1.25 0 0 -1.25 0 45)"><path d="M18 36C8.611 36 1 28.389 1 19h.029V2c0-1.1.9-2 2-2H33c1.1 0 2 .9 2 2v17c0 9.389-7.611 17-17 17" fill="#aab8c2"/><path d="M18 5C10.28 5 4 11.28 4 19s6.28 14 14 14 14-6.28 14-14S25.72 5 18 5" fill="#fff"/><path d="M18 34C9.729 34 3 27.271 3 19S9.729 4 18 4s15 6.729 15 15-6.729 15-15 15m0-2c7.18 0 13-5.82 13-13S25.18 6 18 6 5 11.82 5 19s5.82 13 13 13" fill="#66757f"/><path d="M19 30a1 1 0 0 1-2 0v-1a1 1 0 0 1 2 0v1zM19 9a1 1 0 0 1-2 0V8a1 1 0 0 1 2 0v1zM8 20H7a1 1 0 0 1 0-2h1a1 1 0 0 1 0 2M29 20h-1a1 1 0 0 1 0-2h1a1 1 0 0 1 0 2M26.707 11.707l-.707.707A.999.999 0 1 1 24.586 11l.707-.707a.999.999 0 1 1 1.414 1.414M10 12.414l-.707-.707a.999.999 0 1 1 1.414-1.414l.707.707A.999.999 0 1 1 10 12.414M9.293 26.293l.707-.707A.999.999 0 1 1 11.414 27l-.707.707a.999.999 0 1 1-1.414-1.414M26 25.586l.707.707a.999.999 0 1 1-1.414 1.414L24.586 27A.999.999 0 1 1 26 25.586" fill="#292f33"/><path d="M8.915 22.161a.998.998 0 0 0 1.324 1.288l8.154-3.51a1 1 0 1 0-.79-1.837l-8.154 3.51a1 1 0 0 0-.534.549" fill="#dd2e44"/></g></svg>