<svg xmlns="http://www.w3.org/2000/svg" viewBox="0 0 45 45"><defs><clipPath id="a"><path d="M0 36h36V0H0v36z"/></clipPath></defs><g clip-path="url(#a)" transform="matrix(1.25 0 0 -1.25 0 45)"><path d="M21 18v.001c0 2 3.246 3.368 5 5.999 2 3 2 10 2 10H8s0-7 2-9.999c1.753-2.632 4.999-4 4.999-6V18c0-2.001-3.246-3.369-4.999-6C8 9 8 2 8 2h20s0 7-2 10c-1.754 2.631-5 3.999-5 6" fill="#ffe8b6"/><path d="M18 34h-8s0-4 .999-7C12.303 23.089 17 22.001 17 18.001 17 14 17 5 18 5s1 9 1 13.001c0 4 4.697 5.088 6 8.999 1 3 1 7 1 7h-8z" fill="#ffac33"/><path d="M30 2a2 2 0 0 0-2-2H8a2 2 0 0 0 0 4h20a2 2 0 0 0 2-2M30 34a2 2 0 0 0-2-2H8a2 2 0 0 0 0 4h20a2 2 0 0 0 2-2" fill="#3b88c3"/></g></svg>