<svg xmlns="http://www.w3.org/2000/svg" viewBox="0 0 45 45"><defs><clipPath id="a"><path d="M0 36h36V0H0v36z"/></clipPath></defs><g clip-path="url(#a)" transform="matrix(1.25 0 0 -1.25 0 45)"><path d="M16 34s0 2 2 2 2-2 2-2v-2s0-2-2-2-2 2-2 2v2zM34 20s2 0 2-2-2-2-2-2h-2s-2 0-2 2 2 2 2 2h2zM4 20s2 0 2-2-2-2-2-2H2s-2 0-2 2 2 2 2 2h2zM9.121 28.706s1.414-1.414 0-2.828-2.828 0-2.828 0l-1.415 1.414s-1.414 1.414 0 2.83c1.415 1.414 2.83 0 2.83 0l1.413-1.415zM30.121 7.707s1.414-1.414 0-2.828-2.828 0-2.828 0L25.88 6.293s-1.414 1.414 0 2.828 2.828 0 2.828 0l1.414-1.414zM29.708 25.879s-1.414-1.414-2.828 0 0 2.828 0 2.828l1.414 1.414s1.414 1.414 2.828 0 0-2.828 0-2.828l-1.414-1.414zM8.708 4.879s-1.414-1.414-2.828 0 0 2.828 0 2.828L7.294 9.12s1.414 1.414 2.828 0 0-2.828 0-2.828L8.708 4.879zM16 4s0 2 2 2 2-2 2-2V2s0-2-2-2-2 2-2 2v2zM28 18c0 5.523-4.477 10-10 10S8 23.523 8 18 12.477 8 18 8s10 4.477 10 10" fill="#ffac33"/></g></svg>