<svg xmlns="http://www.w3.org/2000/svg" viewBox="0 0 45 45"><defs><clipPath id="a"><path d="M0 36h36V0H0v36z"/></clipPath></defs><g clip-path="url(#a)" transform="matrix(1.25 0 0 -1.25 0 45)"><path d="M27 28a6.98 6.98 0 0 1-2.015-.298c.005.1.015.197.015.298a5.998 5.998 0 1 1-11.785 1.573A5.974 5.974 0 0 1 11 30a6 6 0 1 1 0-12 5.998 5.998 0 0 1 5.785 4.428A5.975 5.975 0 0 1 19 22c.375 0 .74.039 1.096.105A6.942 6.942 0 0 1 20 21c0-3.865 3.135-7 7-7s7 3.135 7 7a7 7 0 0 1-7 7" fill="#ccd6dd"/><path d="M31 14a4.98 4.98 0 0 1-1.339-.204c.216.526.339 1.1.339 1.704a4.5 4.5 0 0 1-4.5 4.5 4.459 4.459 0 0 1-2.701-.921A6.497 6.497 0 0 1 16.5 24a6.497 6.497 0 0 1-6.131-4.357A8 8 0 1 1 8 4h23a5 5 0 0 1 5 5 5 5 0 0 1-5 5" fill="#e1e8ed"/></g></svg>