<svg xmlns="http://www.w3.org/2000/svg" viewBox="0 0 45 45"><defs><clipPath id="a"><path d="M0 36h36V0H0v36z"/></clipPath><clipPath id="b"><path d="M16.626 22.349c-.266 1.059.971 4.281 1.324 5.164C10.579 24.159 3.683 13.251 5.9 14.141c5.399 2.165 8.883-1.07 9.807-3.751.225-.651.587-.588.833.117C18.565 16.325 23.112 26.945 27.836 31c-2.649-1.28-10.107-6.797-11.21-8.651"/></clipPath><clipPath id="c"><path d="M0 36h36V0H0v36z"/></clipPath></defs><g clip-path="url(#a)" transform="matrix(1.25 0 0 -1.25 0 45)"><path d="M3.604 2.67c1.104-1.412 5.518-4.282 10.683-.53 3.245 2.36 4.241 7.52 7.15 14.434 1.986 4.723 6.444 13.595 12.668 17.61 1.94.972.22 1.722-.442 1.767-1.15.077-5.87.75-17.522-6.665C4.488 21.87-1.645 9.39 3.605 2.67" fill="#5dadec"/><path d="M5.9 14.14c-2.217-.89 4.679 10.019 12.05 13.374-.353-.883-1.59-4.105-1.324-5.164 1.103 1.853 8.562 7.37 11.21 8.65-4.724-4.054-9.271-14.674-11.296-20.493-.245-.705-.608-.767-.833-.117-.925 2.68-4.41 5.917-9.807 3.75" fill="#8ccaf7"/></g><g clip-path="url(#b)" transform="matrix(1.25 0 0 -1.25 0 45)"><path d="M5.238 13.875c.97 2.206 7.15 8.254 9.004 9.136-1.06-5.119-.044-5.208 4.017-1.5-2.604-4.458-2.074-10.638-2.251-12.316-.177-1.675-11.08 1.502-11.476 3.224-.398 1.722.706 1.456.706 1.456" fill="#bdddf4"/></g><g clip-path="url(#c)" transform="matrix(1.25 0 0 -1.25 0 45)"><path d="M14.021 7.04a5.297 5.297 0 1 0-10.593.001 5.297 5.297 0 0 0 10.593-.001" fill="#f5f8fa"/></g></svg>