<svg xmlns="http://www.w3.org/2000/svg" viewBox="0 0 45 45"><defs><clipPath id="a"><path d="M0 36h36V0H0v36z"/></clipPath></defs><g clip-path="url(#a)" transform="matrix(1.25 0 0 -1.25 0 45)"><path d="M36 24.5c0 3.038-3 7.5-18 7.5S0 27.538 0 24.5c0-.045.019-.076.022-.119A10.07 10.07 0 0 1 0 23.75C0 21.126 2.239 20 5 20s5 1.126 5 3.75c0 .218-.021.412-.051.597 2.425.351 5.153.653 8.051.653 2.898 0 5.626-.302 8.051-.653A3.66 3.66 0 0 1 26 23.75c0-2.624 2.238-3.75 5-3.75s5 1.126 5 3.75c0 .225-.009.429-.024.621.004.046.024.08.024.129" fill="#be1931"/><path d="M34.934 13c-.482 1.031-2.31 4.189-3.968 7.007C29.409 22.654 27 25 25 25v2a2 2 0 0 1-4 0v-2h-6v2a2 2 0 0 1-4 0v-2c-2 0-4.41-2.351-5.97-5-1.657-2.815-3.482-5.97-3.963-7C.487 11.761 0 11 0 9s1.79-5 4-5h28c2.209 0 4 3 4 5s-.448 2.676-1.066 4" fill="#dd2e44"/><path d="M20.046 21.182c0-.452-.916-.818-2.046-.818s-2.045.366-2.045.818c0 .452.915.818 2.045.818s2.046-.366 2.046-.818M15.136 21.182c0-.452-.915-.818-2.045-.818s-2.046.366-2.046.818c0 .452.916.818 2.046.818s2.045-.366 2.045-.818M24.954 21.182c0-.452-.915-.818-2.045-.818s-2.046.366-2.046.818c0 .452.916.818 2.046.818s2.045-.366 2.045-.818M20.454 18.318c0-.679-1.099-1.228-2.454-1.228-1.356 0-2.455.55-2.455 1.228 0 .677 1.1 1.227 2.455 1.227s2.454-.55 2.454-1.227M26.182 18.318c0-.679-1.1-1.228-2.454-1.228-1.355 0-2.455.55-2.455 1.228 0 .677 1.1 1.227 2.455 1.227 1.354 0 2.454-.55 2.454-1.227M14.727 18.318c0-.679-1.099-1.228-2.454-1.228-1.356 0-2.455.55-2.455 1.228 0 .677 1.1 1.227 2.455 1.227s2.454-.55 2.454-1.227M21.273 14.637C21.273 13.732 19.806 13 18 13c-1.807 0-3.272.732-3.272 1.637 0 .903 1.465 1.636 3.272 1.636 1.807 0 3.273-.733 3.273-1.636M28.637 14.637c0-.905-1.467-1.637-3.273-1.637-1.807 0-3.273.732-3.273 1.637 0 .903 1.466 1.636 3.273 1.636 1.806 0 3.273-.733 3.273-1.636M13.91 14.637c0-.905-1.467-1.637-3.274-1.637s-3.272.732-3.272 1.637c0 .903 1.465 1.636 3.272 1.636 1.807 0 3.273-.733 3.273-1.636" fill="#fff"/></g></svg>