<svg xmlns="http://www.w3.org/2000/svg" viewBox="0 0 45 45"><defs><clipPath id="a"><path d="M0 36h36V0H0v36z"/></clipPath></defs><g clip-path="url(#a)" transform="matrix(1.25 0 0 -1.25 0 45)"><path d="M27 7.5a1.5 1.5 0 0 1-3 0V7s0-3-3-3-3 3-3 3v25.5a1.5 1.5 0 1 1-3 0V7s0-6 6-6 6 6 6 6v.5z" fill="#66757f"/><path d="M16.5 32C7.388 32 0 26.18 0 19c0 0 0-2 1-2s3 2 3 2h25s2-2 3-2 1 2 1 2c0 7.18-7.388 13-16.5 13" fill="#744eaa"/><path d="M16.5 32C9.597 32 4 26.18 4 19c0 0 0-2 2-2s5 2 5 2h11s3-2 5-2 2 2 2 2c0 7.18-5.597 13-12.5 13" fill="#9266cc"/><path d="M16.5 32c-3.59 0-5.5-5.82-5.5-13 0 0 3-2 5-2h1c2 0 5 2 5 2 0 7.18-1.91 13-5.5 13" fill="#744eaa"/><path d="M5.617 31.528L2.938 35.91.456 31.557a2.946 2.946 0 0 1-.022-3.114c.864-1.412 2.724-1.865 4.155-1.014a2.964 2.964 0 0 1 1.028 4.1M13.617 28.528l-2.679 4.382-2.482-4.353a2.946 2.946 0 0 1-.022-3.114c.864-1.412 2.723-1.865 4.155-1.014a2.964 2.964 0 0 1 1.028 4.1M25.564 31.528l-2.679 4.382-2.482-4.353a2.946 2.946 0 0 1-.021-3.114c.864-1.412 2.724-1.865 4.155-1.014a2.964 2.964 0 0 1 1.028 4.1M35.565 25.618L32.885 30l-2.481-4.353a2.946 2.946 0 0 1-.022-3.114c.864-1.412 2.724-1.865 4.155-1.014a2.964 2.964 0 0 1 1.028 4.1" fill="#5dadec"/></g></svg>