<svg xmlns="http://www.w3.org/2000/svg" viewBox="0 0 45 45"><defs><clipPath id="a"><path d="M0 36h36V0H0v36z"/></clipPath></defs><g clip-path="url(#a)" transform="matrix(1.25 0 0 -1.25 0 45)"><path d="M36 10c0-5.523-8.059-10-18-10S0 4.477 0 10s8.059 10 18 10 18-4.477 18-10" fill="#99aab5"/><path d="M36 12c0-5.523-8.059-10-18-10S0 6.477 0 12s8.059 10 18 10 18-4.477 18-10" fill="#ccd6dd"/><path d="M18 5C3.042 5 1 20 1 24h34c0-2-1.958-19-17-19" fill="#f5f8fa"/><path d="M31.882 29.048c-1.357.938-3.103 1.694-5.121 2.25 1.875.576 4.55.31 5.12-2.25m2.504-2.692c2.442 10.122-9.781 7.706-12.204 5.798-1.34.15-2.736.234-4.181.234-9.39 0-17-3.228-17-8.444C1 18.728 8.61 14.5 18 14.5c9.389 0 17 4.228 17 9.444 0 .862-.225 1.664-.615 2.412" fill="#ccd6dd"/><path d="M33 23c0-3.866-6.716-7-15-7-8.284 0-15 3.134-15 7s6.716 7 15 7c8.284 0 15-3.134 15-7" fill="#8a4b38"/><path d="M20 19a.997.997 0 0 0-.707.293c-2.337 2.337-2.376 4.885-.125 8.262.739 1.109.9 2.245.478 3.377-.461 1.235-1.438 1.996-1.731 2.076-.553 0-.958.444-.958.996 0 .553.491.996 1.043.996.997 0 2.395-1.153 3.183-2.625 1.034-1.933.91-4.039-.351-5.93-1.961-2.942-1.531-4.332-.125-5.738A.999.999 0 0 0 20 19M14 21a.997.997 0 0 0-.707.293c-2.337 2.337-2.376 4.885-.125 8.262.727 1.091.893 2.082.494 2.947-.444.961-1.431 1.469-1.684 1.499a.99.99 0 0 0-.989.999c0 .553.459 1 1.011 1 .997 0 2.585-.974 3.36-2.423.481-.899 1.053-2.761-.528-5.132-1.961-2.942-1.531-4.332-.125-5.738A.999.999 0 0 0 14 21" fill="#d99e82"/></g></svg>