<svg xmlns="http://www.w3.org/2000/svg" viewBox="0 0 45 45"><defs><clipPath id="a"><path d="M0 36h36V0H0v36z"/></clipPath></defs><g clip-path="url(#a)" transform="matrix(1.25 0 0 -1.25 0 45)"><path d="M32.34 16.792c.198 1.475 2.67 2.208 2.67 4.542 0 2.333-5.76 6.416-14.01-1.334 3.812 5.313 6.541 14.509 2.202 14.509-1.47 0-2.579-1.342-4.327-1.342C16.5 33.167 16.208 36 14 36c-2.584 0-5-6.25 1-15-1.5 1.625-11.084 6.625-13.003 1.269-.628-1.753 1.732-2.78 1.544-4.52-.178-1.653-2.597-2.036-2.597-4.371 0-3.293 8.047-4.834 16.044 1.613-.245-4.523.556-10.515 3.856-14.158 1.344-1.484 2.408-.551 2.823-.187.416.366 1.604 1.414.185 2.823-3.834 3.807-5.225 8.174-5.619 11.38 2.043-2.214 12.356-8.741 15.517-2.766.882 1.667-1.642 2.976-1.41 4.709" fill="#77b255"/></g></svg>