<svg xmlns="http://www.w3.org/2000/svg" viewBox="0 0 45 45"><defs><clipPath id="a"><path d="M0 36h36V0H0v36z"/></clipPath></defs><g clip-path="url(#a)" transform="matrix(1.25 0 0 -1.25 0 45)"><path d="M27.663 17.61h-.326c-.498 0-.958-.159-1.337-.425v1.96a2.465 2.465 0 0 1-2.465 2.464h-.07A2.465 2.465 0 0 1 21 19.144v-.035a2.5 2.5 0 1 1-5 0V14.8a5.396 5.396 0 0 1-.86-.319l-.536 5.206-2.958-.187.895-10-.502.525C12.026 9.87 12 9.717 12 9.558V8.441a5.441 5.441 0 0 1 5.441-5.44h.117a5.437 5.437 0 0 1 5.422 5.047A2.5 2.5 0 0 1 23.465 8h.07c1.044 0 1.932.651 2.291 1.567A2.316 2.316 0 0 1 27.337 9h.326C28.954 9 30 11.61 30 11.734v3.538a2.337 2.337 0 0 1-2.337 2.337" fill="#aa8052"/><path d="M25 14.288A3.288 3.288 0 0 0 21.712 11h-9.424A3.288 3.288 0 0 0 9 14.288v.424A3.288 3.288 0 0 0 12.288 18h9.424A3.288 3.288 0 0 0 25 14.712v-.424z" fill="#aa8052"/><path d="M19 16h-6v2h6v-2z" fill="#aa8052"/><path d="M14.578 30.35s-.188 1.99-2.18 1.803c-1.99-.188-1.802-2.179-1.802-2.179L11.77 18H15.783l-1.205 12.35zM30 13.917A1.916 1.916 0 0 0 28.084 12h-.168A1.916 1.916 0 0 0 26 13.917v4.166c0 1.059.857 1.917 1.916 1.917h.168A1.916 1.916 0 0 0 30 18.083v-4.166zM23 22a2 2 0 0 1-2-2v-2.778c.609-.549 1-1.336 1-2.222 0-.753-.287-1.433-.745-1.959A1.994 1.994 0 0 1 23 12a2 2 0 0 1 2 2v6a2 2 0 0 1-2 2" fill="#d5ab88"/><path d="M28.063 11h-.125a2.93 2.93 0 0 0-2.45 1.322 3.039 3.039 0 0 0-.431-.497c-.05-.046-.102-.085-.155-.128a3.057 3.057 0 0 0-.579-.377 2.993 2.993 0 0 0-.436-.172c-.067-.02-.13-.046-.2-.061A2.945 2.945 0 0 0 23 11c-.237 0-.46.036-.68.089-.077.017-.15.042-.224.066a3.026 3.026 0 0 0-.395.161c-.082.04-.163.077-.24.124-.164.1-.318.213-.46.341a3.04 3.04 0 0 0-.53.618l.003.003C20.273 12.287 20 12 19 12h-2.537c1.809-1.365 3.037-3.99 3.037-7a.5.5 0 1 0-1 0c0 3.859-2.186 7-4.875 7H13.5a.5.5 0 0 0 0 1H19a2 2 0 1 1 0 4h-8c-.5 0-1.531-.266-1.913-1.415L8 12c-.103-.335-.48-1.871-.411-2.191C7.59 5 12.286 0 18 0c6.538 0 11.844 5.231 11.987 11.734-.455-.547-1.185-.734-1.924-.734M20 18v2a2 2 0 1 1-4 0v-2h4z" fill="#d5ab88"/></g></svg>