<svg xmlns="http://www.w3.org/2000/svg" viewBox="0 0 45 45"><defs><clipPath id="a"><path d="M0 36h36V0H0v36z"/></clipPath></defs><g clip-path="url(#a)" transform="matrix(1.25 0 0 -1.25 0 45)"><path d="M27.865 19.248c0 6.242-4.41 9.988-9.927 9.988-5.516 0-9.836-3.746-9.836-9.988 0-3.48-.102-6.485 3.898-7.89V8.636c0-1.033.966-1.871 2-1.871 1.035 0 2 .838 2 1.872v1.97-1.971c0-1.033.965-1.871 2-1.871 1.035 0 2 .838 2 1.872v1.97-1.97c0-1.035.966-1.873 2-1.873s2 .838 2 1.872v2.723c4 1.404 3.865 4.41 3.865 7.89" fill="#ccd6dd"/><path d="M16.75 20.497c0-1.724 0-3.12-3.121-3.12s-3.121 1.396-3.121 3.12a3.12 3.12 0 1 0 6.242 0M25.488 20.497c0-1.724 0-3.12-3.12-3.12s-3.12 1.396-3.12 3.12a3.12 3.12 0 1 0 6.24 0M19.186 14.84c-.157.383-.626.663-1.189.663-.56 0-1.03-.28-1.187-.662a.933.933 0 0 1 .252-1.834c.408 0 .752.263.88.628.018 0 .036-.004.055-.004.02 0 .038.004.057.004a.934.934 0 1 1 1.133 1.206" fill="#292f33"/><path d="M11 9c0 .367.074.713.195 1.038-.985.447-1.83 1.082-2.503 1.97a302.501 302.501 0 0 0-3.127-2.695A3.471 3.471 0 0 1 3.5 10 3.499 3.499 0 0 1 0 6.5a3.488 3.488 0 0 1 3.045-3.454A3.489 3.489 0 0 1 6.5 0 3.5 3.5 0 0 1 10 3.5c0 .775-.26 1.485-.687 2.065.6.706 1.246 1.46 1.931 2.25A2.983 2.983 0 0 0 11 9M27.872 24.482c.884.77 1.729 1.495 2.515 2.162A3.474 3.474 0 0 1 32.4 26a3.5 3.5 0 0 1 3.5 3.5 3.491 3.491 0 0 1-2.946 3.444A3.49 3.49 0 0 1 29.5 36a3.5 3.5 0 0 1-3.5-3.5c0-.775.26-1.485.687-2.065-.594-.7-1.233-1.445-1.911-2.227 1.3-.87 2.36-2.095 3.096-3.726M3.5 26c.775 0 1.485.26 2.065.687.798-.679 1.661-1.419 2.563-2.205.735 1.631 1.796 2.855 3.097 3.726-.679.782-1.317 1.528-1.912 2.227.427.58.687 1.29.687 2.065A3.5 3.5 0 0 1 6.5 36a3.489 3.489 0 0 1-3.454-3.046A3.49 3.49 0 0 1 0 29.5 3.5 3.5 0 0 1 3.5 26M32.4 10a3.475 3.475 0 0 1-2.014-.645c-.952.809-1.99 1.701-3.079 2.654-.672-.889-1.519-1.524-2.503-1.971.12-.325.196-.671.196-1.038a3 3 0 0 0-.245-1.185c.685-.79 1.331-1.544 1.931-2.25A3.475 3.475 0 0 1 26 3.5C26 1.566 27.566 0 29.5 0a3.487 3.487 0 0 1 3.455 3.056A3.49 3.49 0 0 1 35.9 6.5c0 1.934-1.566 3.5-3.5 3.5" fill="#aab8c2"/></g></svg>