<svg xmlns="http://www.w3.org/2000/svg" viewBox="0 0 45 45"><defs><clipPath id="a"><path d="M0 36h36V0H0v36z"/></clipPath></defs><g clip-path="url(#a)" transform="matrix(1.25 0 0 -1.25 0 45)"><path d="M18 35C8.611 35 1 27.389 1 18S8.611 1 18 1s17 7.611 17 17-7.611 17-17 17" fill="#f4900c"/><path d="M15.272 14.402l-3.85-6.427c.278-.183.561-.36.854-.52A11.932 11.932 0 0 1 18 6c2.077 0 4.033.532 5.738 1.464.293.161.577.336.854.52l-3.854 6.426A4.495 4.495 0 0 0 18 13.468a4.491 4.491 0 0 0-2.728.934M16.119 22.112l-3.854 6.425c-.293-.16-.576-.336-.854-.519A11.99 11.99 0 0 1 6.026 18.5C6.019 18.333 6 18.17 6 18c0-.169.019-.333.026-.5h7.493c-.02.166-.051.33-.051.5a4.525 4.525 0 0 0 2.65 4.112M22.532 18c0-.171-.032-.334-.05-.5h7.493c.007.167.025.331.025.5 0 .169-.018.333-.025.5a11.99 11.99 0 0 1-5.382 9.516c-.278.183-.561.359-.854.519l-3.85-6.427A4.523 4.523 0 0 0 22.532 18M20 18a2 2 0 1 0-3.999-.001A2 2 0 0 0 20 18" fill="#fff"/></g></svg>