<svg xmlns="http://www.w3.org/2000/svg" viewBox="0 0 45 45"><defs><clipPath id="a"><path d="M0 36h36V0H0v36z"/></clipPath></defs><g clip-path="url(#a)" transform="matrix(1.25 0 0 -1.25 0 45)"><path d="M35 18c0-9.389-7.611-17-17-17S1 8.611 1 18s7.611 17 17 17 17-7.611 17-17" fill="#f4900c"/><path d="M12.866 17.905c-.398.153-.81.246-1.246.246-.087 0-.18-.013-.27-.02-.083-.005-.172-.03-.258-.04a6.878 6.878 0 0 1 3.716-6.005c.05.079.105.154.149.237.114.21.21.432.286.666.025.076.059.146.079.224.049.185.076.369.098.552a5.098 5.098 0 0 0-2.554 4.14M14.243 23.96a3.86 3.86 0 0 1 .955-1.47 5.087 5.087 0 0 0 2.765.823c.996 0 1.918-.298 2.706-.792.116.115.238.22.346.352.28.346.489.714.632 1.109a6.825 6.825 0 0 1-7.404-.021M20.45 13.735c.066-.586.25-1.132.583-1.645.008-.012.018-.02.026-.032a6.875 6.875 0 0 1 3.774 6.046c-.163.02-.327.036-.49.036-.444 0-.875-.085-1.283-.229a5.1 5.1 0 0 0-2.61-4.176" fill="#fff"/><path d="M24.415 8.966a5.217 5.217 0 0 0-4.637 7.61l-.609.353a1.503 1.503 0 0 0-1.161-.554c-.474 0-.892.223-1.169.564l-.636-.369a5.218 5.218 0 0 0-8.581-5.803 22.13 22.13 0 0 1-.192-.12c1.078-1.36 2.442-2.27 4.122-2.664a8.09 8.09 0 0 1 1.341-.19c.136-.008.273-.023.406-.024.04 0 .078.005.118.005a7.044 7.044 0 0 1 1.202.118c1.164.213 2.264.71 3.3 1.49a.23.23 0 0 0 .068.027c.006.001.006.004.012.004.039 0 .071-.026.078-.03.114-.089.232-.165.349-.247.135-.094.272-.186.41-.27.147-.09.295-.179.445-.258.255-.135.515-.25.779-.354.121-.047.244-.087.367-.127.299-.098.601-.183.911-.24.064-.012.13-.016.194-.026.316-.049.639-.076.968-.082.062 0 .124-.006.187-.006.277.002.558.015.843.048 2.06.235 3.728 1.201 5.027 2.818l-.188.143a5.206 5.206 0 0 0-3.954-1.816M11.563 19.401a5.214 5.214 0 0 0 4.362-2.355l.027-.035.008-.009c.178.103.364.215.554.318.05.027.063.058.064.096a1.51 1.51 0 0 0-.083.472 1.51 1.51 0 0 0 1.241 1.485v.712a5.217 5.217 0 0 0-.735 10.333v.246c-1.116-.072-3.487-1.215-4.553-2.442-1.488-1.713-2.074-3.71-1.779-5.96.015-.112-.003-.165-.118-.21a7.395 7.395 0 0 1-4.36-8.979c.068-.235.157-.464.24-.7l.205.093a5.217 5.217 0 0 0 4.927 6.935M30.005 16.34c-.491 2.725-2.026 4.63-4.576 5.713-.1.043-.127.09-.111.193.123.795.107 1.59-.033 2.382a7.345 7.345 0 0 1-1.712 3.538l-.01.011a7.426 7.426 0 0 1-.617.625l-.095.084a7.44 7.44 0 0 1-.642.503c-.053.037-.108.071-.163.107a7.436 7.436 0 0 1-.668.397c-.072.037-1.278.621-2.393.77v-.245a5.219 5.219 0 0 0-.736-10.334v-.707a1.51 1.51 0 0 0 1.272-1.489c0-.183-.037-.356-.097-.518.008-.01.004-.023.023-.033.194-.106.385-.22.58-.333a5.218 5.218 0 0 0 9.32-4.522c.066-.035.196-.105.204-.106l.056.136c.472 1.24.633 2.52.398 3.827" fill="#fff"/></g></svg>