<svg xmlns="http://www.w3.org/2000/svg" viewBox="0 0 45 45"><defs><clipPath id="a"><path d="M0 36h36V0H0v36z"/></clipPath></defs><g clip-path="url(#a)" transform="matrix(1.25 0 0 -1.25 0 45)"><path d="M36 4a4 4 0 0 0-4-4H4a4 4 0 0 0-4 4v28a4 4 0 0 0 4 4h28a4 4 0 0 0 4-4V4z" fill="#9266cc"/><path d="M23 30h-3v2a1 1 0 0 1-1 1h-2a1 1 0 0 1-1-1v-2h-3a1 1 0 0 1-1-1v-2a1 1 0 0 1 1-1h3V4a1 1 0 0 1 1-1h2a1 1 0 0 1 1 1v22h3a1 1 0 0 1 1 1v2a1 1 0 0 1-1 1" fill="#fff"/><path d="M29 23H7a1 1 0 0 1-1-1v-2a1 1 0 0 1 1-1h22a1 1 0 0 1 1 1v2a1 1 0 0 1-1 1M24.324 11.076l-11.429 3.657a.999.999 0 0 1-1.257-.647l-.61-1.905a1 1 0 0 1 .648-1.257l11.43-3.658a1 1 0 0 1 1.256.648l.61 1.905a1 1 0 0 1-.648 1.257" fill="#fff"/></g></svg>