<svg xmlns="http://www.w3.org/2000/svg" viewBox="0 0 45 45"><defs><clipPath id="a"><path d="M0 36h36V0H0v36z"/></clipPath></defs><g clip-path="url(#a)" transform="matrix(1.25 0 0 -1.25 0 45)"><path d="M36 4a4 4 0 0 0-4-4H4a4 4 0 0 0-4 4v28a4 4 0 0 0 4 4h28a4 4 0 0 0 4-4V4z" fill="#9266cc"/><path d="M32.664 17.296l-3.96 1.595L29 23.15l-2.742-3.272-3.96 1.594 2.266-3.617-2.741-3.272 4.14 1.034L28.229 12l.295 4.258 4.14 1.037z" fill="#fff"/><path d="M32.664 17.296l-3.96 1.595L29 23.15l-2.742-3.272-3.96 1.594 2.266-3.617-2.741-3.272 4.14 1.034L28.229 12l.295 4.258 4.14 1.037z" fill="none" stroke="#fff" stroke-linecap="round" stroke-linejoin="round" stroke-miterlimit="10"/><path d="M27.093 7.79A10.97 10.97 0 0 0 23 6.993c-6.065 0-11 4.926-11 10.992 0 6.065 4.935 10.983 11 10.983 1.402 0 2.779-.301 4.092-.828.122-.05.385-.136.393-.14.64-.28 1.859 1.032.47 2.016A14.854 14.854 0 0 1 19 33c-8.271 0-15-6.73-15-15C4 9.729 10.729 3 19 3c3.295 0 6.432 1.062 9.07 3.07.399.304.51.854.265 1.289a1.001 1.001 0 0 1-1.242.432" fill="#fff"/></g></svg>