<svg xmlns="http://www.w3.org/2000/svg" viewBox="0 0 45 45"><defs><clipPath id="a"><path d="M0 36h36V0H0v36z"/></clipPath></defs><g clip-path="url(#a)" transform="matrix(1.25 0 0 -1.25 0 45)"><path d="M36 4a4 4 0 0 0-4-4H4a4 4 0 0 0-4 4v28a4 4 0 0 0 4 4h28a4 4 0 0 0 4-4V4z" fill="#9266cc"/><path d="M16.453 28.983v-9.89L8.69 11.97A11.038 11.038 0 0 0 6.896 18c0 5.597 4.166 10.226 9.557 10.983m3-13.961l5.848-5.366a11.05 11.05 0 0 0-5.848-2.653v8.019zm-3-8.005a11.053 11.053 0 0 0-5.802 2.682l5.802 5.323V7.017zM29.103 18a11.03 11.03 0 0 0-1.827-6.085l-7.823 7.179v9.903c5.436-.715 9.65-5.368 9.65-10.997M18 32c-7.72 0-14-6.28-14-14S10.28 4 18 4s14 6.28 14 14-6.28 14-14 14" fill="#fff"/></g></svg>