<svg xmlns="http://www.w3.org/2000/svg" viewBox="0 0 45 45"><defs><clipPath id="a"><path d="M0 36h36V0H0v36z"/></clipPath></defs><g clip-path="url(#a)" transform="matrix(1.25 0 0 -1.25 0 45)"><path d="M36 4a4 4 0 0 0-4-4H4a4 4 0 0 0-4 4v28a4 4 0 0 0 4 4h28a4 4 0 0 0 4-4V4z" fill="#9266cc"/><path d="M17.78 5.984A6.009 6.009 0 1 0 18 18a6.012 6.012 0 0 1 6.119 5.897c.045 2.559-1.524 4.749-3.758 5.658l.15.17c5.517-1.174 9.613-6.096 9.506-11.944-.121-6.637-5.596-11.917-12.235-11.796m1.184 25.982c-7.714.533-14.4-5.29-14.931-13.002C3.5 11.25 9.322 4.565 17.036 4.034c7.714-.533 14.398 5.289 14.93 13.002.534 7.713-5.288 14.398-13.001 14.93" fill="#fff"/><path d="M20.5 12a2.5 2.5 0 1 0-5 0 2.5 2.5 0 0 0 5 0" fill="#fff"/><path d="M20.5 24a2.5 2.5 0 1 0-5 0 2.5 2.5 0 0 0 5 0" fill="#9266cc"/></g></svg>