<svg xmlns="http://www.w3.org/2000/svg" viewBox="0 0 45 45"><defs><clipPath id="a"><path d="M0 36h36V0H0v36z"/></clipPath></defs><g clip-path="url(#a)" transform="matrix(1.25 0 0 -1.25 0 45)"><path d="M36 4a4 4 0 0 0-4-4H4a4 4 0 0 0-4 4v28a4 4 0 0 0 4 4h28a4 4 0 0 0 4-4V4z" fill="#9266cc"/><path d="M26.447 10.966l-4.32 4.32c.35.51.601 1.092.742 1.714h6.08a10.947 10.947 0 0 0-2.502-6.034M19 7.05v6.15c.612.125 1.178.37 1.687.697l4.346-4.346A10.95 10.95 0 0 0 19 7.05m-2 0a10.95 10.95 0 0 0-6.034 2.5l4.345 4.347a4.958 4.958 0 0 1 1.69-.697V7.05zm-7.448 3.915A10.947 10.947 0 0 0 7.05 17h6.08a4.99 4.99 0 0 1 .741-1.714l-4.319-4.32zm0 14.068l4.245-4.246A4.94 4.94 0 0 1 13.091 19h-6.04a10.947 10.947 0 0 0 2.501 6.034M17 28.949v-5.95a4.976 4.976 0 0 1-1.815-.771l-4.219 4.22a10.95 10.95 0 0 0 6.034 2.5M21 18.1c0-1.654-1.346-3-3-3-1.655 0-3 1.346-3 3s1.345 3 3 3c1.654 0 3-1.346 3-3m-2 10.849a10.95 10.95 0 0 0 6.033-2.501l-4.22-4.22a4.967 4.967 0 0 1-1.813.77v5.95zm7.447-3.915A10.947 10.947 0 0 0 28.95 19h-6.04a4.96 4.96 0 0 1-.707 1.788l4.245 4.246zM32 19h-1.05a12.926 12.926 0 0 1-3.089 7.447l1.16 1.159a.999.999 0 1 1-1.415 1.414l-1.159-1.16A12.931 12.931 0 0 1 19 30.95v1.05a1 1 0 0 1-2 0v-1.05a12.932 12.932 0 0 1-7.448-3.088l-1.066 1.066a.999.999 0 1 1-1.414-1.414l1.066-1.066A12.926 12.926 0 0 1 5.05 19H4a1 1 0 1 1 0-2h1.05a12.929 12.929 0 0 1 3.088-7.447L6.98 8.393A.999.999 0 1 1 8.393 6.98l1.16 1.159A12.932 12.932 0 0 1 17 5.05V4a1 1 0 1 1 2 0v1.05a12.931 12.931 0 0 1 7.446 3.088l1.066-1.065a.995.995 0 0 1 .707-.293.999.999 0 0 1 .707 1.707L27.86 9.553A12.923 12.923 0 0 1 30.95 17H32a1 1 0 0 1 0 2" fill="#fff"/></g></svg>