<svg xmlns="http://www.w3.org/2000/svg" viewBox="0 0 45 45"><defs><clipPath id="a"><path d="M0 36h36V0H0v36z"/></clipPath></defs><g clip-path="url(#a)" transform="matrix(1.25 0 0 -1.25 0 45)"><path d="M36 18c0-9.941-8.059-18-18-18C8.06 0 0 8.059 0 18c0 9.94 8.06 18 18 18 9.941 0 18-8.06 18-18" fill="#ffcc4d"/><path d="M14 21.5c0-1.934-1.119-3.5-2.5-3.5S9 19.566 9 21.5c0 1.933 1.119 3.5 2.5 3.5s2.5-1.567 2.5-3.5M27 21.5c0-1.934-1.119-3.5-2.5-3.5S22 19.566 22 21.5c0 1.933 1.119 3.5 2.5 3.5s2.5-1.567 2.5-3.5M8.665 8.129a.501.501 0 0 1 .635-.03c.039.03 3.922 2.9 8.7 2.9 4.766 0 8.662-2.87 8.7-2.9a.5.5 0 1 1 .729.657C27.3 8.973 24.212 14 18 14S8.699 8.972 8.571 8.757a.499.499 0 0 1 .094-.628" fill="#664500"/></g></svg>