<svg xmlns="http://www.w3.org/2000/svg" viewBox="0 0 45 45"><defs><clipPath id="a"><path d="M0 36h36V0H0v36z"/></clipPath></defs><g clip-path="url(#a)" transform="matrix(1.25 0 0 -1.25 0 45)"><path d="M36 18c0-9.941-8.059-18-18-18C8.06 0 0 8.059 0 18c0 9.94 8.06 18 18 18 9.941 0 18-8.06 18-18" fill="#ffcc4d"/><path d="M34 14a5 5 0 0 0-5-5 5 5 0 0 0-5 5 5 5 0 0 0 5 5 5 5 0 0 0 5-5M12 14a5 5 0 0 0-5-5 5 5 0 0 0-5 5 5 5 0 0 0 5 5 5 5 0 0 0 5-5" fill="#ff7892"/><path d="M21 25s5 1 8-2M15 25s-5 1-8-2M20 19s4 1 6-1M16 19s-4 1-6-1" fill="none" stroke="#664500" stroke-width="2" stroke-linecap="round" stroke-linejoin="round"/><path d="M13 11s1-4 5-4 5 4 5 4-1-1-5-1-5 1-5 1" fill="#664500"/><path d="M13 11s1-4 5-4 5 4 5 4-1-1-5-1-5 1-5 1z" fill="none" stroke="#664500" stroke-linecap="round" stroke-linejoin="round"/></g></svg>