<svg xmlns="http://www.w3.org/2000/svg" viewBox="0 0 45 45"><defs><clipPath id="a"><path d="M0 36h36V0H0v36z"/></clipPath></defs><g clip-path="url(#a)" transform="matrix(1.25 0 0 -1.25 0 45)"><path d="M36 4a4 4 0 0 0-4-4H4a4 4 0 0 0-4 4v28a4 4 0 0 0 4 4h28a4 4 0 0 0 4-4V4z" fill="#9266cc"/><path d="M30.069 28.29c-.863 1.396-2.322 2.187-4.033 2.187-3.595 0-5.682-3.404-6.455-10.358C19.438 18.834 18.543 11.553 18 8c0 0-1.596 10.834-1.738 12.12-.774 6.953-2.861 10.357-6.456 10.357-1.711 0-3.17-.79-4.033-2.188-.918-1.485-1.026-3.478-.282-4.966a1.504 1.504 0 0 1 2.69 1.346c-.24.481-.527 2.956 1.66 2.956 2.197 0 3.197-5.019 3.688-7.79.492-2.773 2.47-13.83 2.47-13.835.23-.938.858-2 2-2 1.145 0 1.835 1.021 1.986 2 .006.04 1.652 10.023 2.328 13.834.49 2.772 1.492 7.791 3.688 7.791 2.187 0 1.9-2.475 1.66-2.956a1.504 1.504 0 1 1 2.69-1.346c.744 1.488.636 3.481-.282 4.966" fill="#fff"/></g></svg>