<svg xmlns="http://www.w3.org/2000/svg" viewBox="0 0 45 45"><defs><clipPath id="a"><path d="M0 36h36V0H0v36z"/></clipPath></defs><g clip-path="url(#a)" transform="matrix(1.25 0 0 -1.25 0 45)"><path d="M36 4a4 4 0 0 0-4-4H4a4 4 0 0 0-4 4v28a4 4 0 0 0 4 4h28a4 4 0 0 0 4-4V4z" fill="#9266cc"/><path d="M18 20.5a5.506 5.506 0 0 1-5.5-5.5c0-3.032 2.467-5.5 5.5-5.5 3.032 0 5.5 2.468 5.5 5.5 0 3.033-2.468 5.5-5.5 5.5m0-14c-4.687 0-8.5 3.814-8.5 8.5 0 4.687 3.813 8.5 8.5 8.5 4.687 0 8.5-3.813 8.5-8.5 0-4.686-3.813-8.5-8.5-8.5" fill="#fff"/><path d="M18 20.5c-5.109 0-7.58 2.79-8.131 3.507C9.388 24.457 8.053 25.5 7 25.5c-1.297 0-1.94-.563-1.967-.587-.603-.543-1.547-.519-2.106.07a1.483 1.483 0 0 0 .012 2.078C3.086 27.208 4.452 28.5 7 28.5s4.811-2.189 5.061-2.439c.069-.07.132-.147.187-.229.057-.081 1.69-2.332 5.752-2.332 4.083 0 5.736 2.309 5.752 2.332.055.082.117.159.187.229.25.25 2.513 2.439 5.061 2.439s3.913-1.292 4.061-1.439a1.502 1.502 0 0 0 0-2.122 1.502 1.502 0 0 0-2.122 0c-.001 0-.644.561-1.939.561-1.052 0-2.384-1.04-2.869-1.494-.552-.717-3.024-3.506-8.131-3.506" fill="#fff"/></g></svg>