<svg xmlns="http://www.w3.org/2000/svg" viewBox="0 0 45 45"><defs><clipPath id="a"><path d="M0 36h36V0H0v36z"/></clipPath></defs><g clip-path="url(#a)" transform="matrix(1.25 0 0 -1.25 0 45)"><path d="M36 4a4 4 0 0 0-4-4H4a4 4 0 0 0-4 4v28a4 4 0 0 0 4 4h28a4 4 0 0 0 4-4V4z" fill="#9266cc"/><path d="M28.999 5.5a1.49 1.49 0 0 0-.475.077c-.019.006-2.974.923-10.525.923S7.494 5.583 7.464 5.574a1.501 1.501 0 0 0-1.886.962 1.495 1.495 0 0 0 .947 1.887C6.657 8.467 9.849 9.5 17.999 9.5c8.149 0 11.343-1.033 11.475-1.077a1.5 1.5 0 0 0-.475-2.923" fill="#fff"/><path d="M15 8h-3v20h3V8zM24 8h-3v20h3V8z" fill="#fff"/><path d="M17.999 26.5c-8.15 0-11.342 1.033-11.474 1.077a1.5 1.5 0 0 0 .94 2.85c.046-.016 3.006-.927 10.534-.927 7.551 0 10.506.917 10.534.926a1.506 1.506 0 0 0 1.888-.962 1.496 1.496 0 0 0-.947-1.887c-.132-.044-3.326-1.077-11.475-1.077" fill="#fff"/></g></svg>