<svg xmlns="http://www.w3.org/2000/svg" viewBox="0 0 45 45"><defs><clipPath id="a"><path d="M0 36h36V0H0v36z"/></clipPath></defs><g clip-path="url(#a)" transform="matrix(1.25 0 0 -1.25 0 45)"><path d="M36 4a4 4 0 0 0-4-4H4a4 4 0 0 0-4 4v28a4 4 0 0 0 4 4h28a4 4 0 0 0 4-4V4z" fill="#9266cc"/><path d="M9.835 26.731c-.924-.654-1.557-1.598-1.557-2.73 0-1.233 1.215-2.722 2.723-2.722 1.627 0 2.72 1.407 2.72 2.721 0 1.056-.27 1.812-.8 2.246-.968.795-2.592.6-2.608.597-.142-.029-.312-.047-.478-.112M11 18.721c-2.813 0-5.281 2.467-5.281 5.28 0 3.877 3.779 6.278 7.28 6.278 13.634 0 17.007-6.433 17.145-6.707a1.279 1.279 0 0 0-2.282-1.157c-.06.108-2.674 4.676-12.747 5.247.773-.913 1.164-2.14 1.164-3.662 0-2.539-2.02-5.279-5.28-5.279M24.999 14.72c-1.628 0-2.721-1.406-2.721-2.72 0-1.055.269-1.811.799-2.247.97-.794 2.673-.6 2.689-.596.141.029.234.062.399.112.923.653 1.556 1.597 1.556 2.73 0 1.234-1.214 2.722-2.722 2.722m-2-9c-13.634 0-17.007 6.434-17.144 6.707a1.28 1.28 0 0 0 2.282 1.157c.059-.108 2.674-4.676 12.746-5.247-.773.913-1.163 2.14-1.163 3.662 0 2.539 2.018 5.28 5.279 5.28 2.813 0 5.28-2.467 5.28-5.28 0-3.88-3.779-6.28-7.28-6.28" fill="#fff"/><path d="M14.002 24.01a3.04 3.04 0 1 1-6.08.002 3.04 3.04 0 0 1 6.08-.002M28.002 12.01a3.04 3.04 0 1 1-6.08.001 3.04 3.04 0 0 1 6.08-.001" fill="#9266cc"/></g></svg>