<svg xmlns="http://www.w3.org/2000/svg" viewBox="0 0 45 45"><defs><clipPath id="a"><path d="M0 36h36V0H0v36z"/></clipPath></defs><g clip-path="url(#a)" transform="matrix(1.25 0 0 -1.25 0 45)"><path d="M36 4a4 4 0 0 0-4-4H4a4 4 0 0 0-4 4v28a4 4 0 0 0 4 4h28a4 4 0 0 0 4-4V4z" fill="#9266cc"/><path d="M11.999 18.5c-1.93 0-3.5-1.57-3.5-3.5s1.57-3.5 3.5-3.5 3.5 1.57 3.5 3.5-1.57 3.5-3.5 3.5m0-10a6.508 6.508 0 0 0-6.5 6.5c0 3.584 2.916 6.5 6.5 6.5s6.5-2.916 6.5-6.5-2.916-6.5-6.5-6.5" fill="#fff"/><path d="M25.553 6.232c-.654 0-1.337.114-2.028.345-1.655.551-2.784 1.78-3.18 3.46-.64 2.71.737 6.167 3.594 9.024 1.91 1.911 2.75 4.625 1.993 6.451C25.25 27.155 23.418 27.5 22 27.5c-2.173 0-4.5-1.407-4.5-3.5 0-1.822.388-2.813.799-3.863.618-1.58 1.257-3.216.124-6.612a1.5 1.5 0 0 0-2.846.95c.789 2.365.465 3.195-.072 4.57C15.057 20.19 14.5 21.613 14.5 24c0 4.014 3.893 6.5 7.5 6.5 4.448 0 6.11-2.406 6.703-3.839 1.22-2.947.134-6.944-2.643-9.722-2.382-2.382-3.12-4.837-2.795-6.213.157-.667.54-1.08 1.209-1.304.91-.304 1.7-.244 2.285.178.456.33.74.865.74 1.4a1.5 1.5 0 0 0 3 0 4.749 4.749 0 0 0-1.986-3.834c-.86-.62-1.873-.934-2.96-.934" fill="#fff"/></g></svg>