<svg xmlns="http://www.w3.org/2000/svg" viewBox="0 0 45 45"><defs><clipPath id="a"><path d="M0 36h36V0H0v36z"/></clipPath></defs><g clip-path="url(#a)" transform="matrix(1.25 0 0 -1.25 0 45)"><path d="M36 4a4 4 0 0 0-4-4H4a4 4 0 0 0-4 4v28a4 4 0 0 0 4 4h28a4 4 0 0 0 4-4V4z" fill="#9266cc"/><path d="M25.877 13.49c-.377-1.217-1.374-2.326-2.587-3.277-.463 1.466-.657 2.944-.28 4.164.729 2.354 1.986 3.61 2.882 4.24.386-1.03.714-2.775-.015-5.128m2.865-.887c1.696 5.48-.952 8.824-1.065 8.964l-.631.776-.959-.284c-.102-.03-1.56-.49-3.087-1.979V25c0 3.98-1.776 4.94-3.268 5.291-1.465.344-2.971-.292-4.024-1.269a3.504 3.504 0 0 1-1.976 1.27c-1.459.343-2.959-.287-4.011-1.259C8.705 30.381 7.393 30.5 7 30.5a1.5 1.5 0 1 1 0-3c.135 0 .832-.492 1-2.5V13a1.5 1.5 0 1 1 3 0v13.086a1.5 1.5 0 1 0 3 0V13a1.5 1.5 0 1 1 3 0v13.086a1.5 1.5 0 1 0 3 0V14.67c-.427-1.99-.011-4.162.704-6.127-1.385-.75-2.712-1.29-3.511-1.557a1.501 1.501 0 0 1 .946-2.848A27.05 27.05 0 0 1 21.927 5.8a26.816 26.816 0 0 1 2.188-3.51 1.497 1.497 0 0 1 2.102-.286c.659.501.787 1.442.285 2.101-.51.671-1.301 1.863-2.021 3.266 1.873 1.34 3.598 3.087 4.261 5.231" fill="#fff"/></g></svg>