<svg xmlns="http://www.w3.org/2000/svg" viewBox="0 0 45 45"><defs><clipPath id="a"><path d="M0 36h36V0H0v36z"/></clipPath></defs><g clip-path="url(#a)" transform="matrix(1.25 0 0 -1.25 0 45)"><path d="M36 4a4 4 0 0 0-4-4H4a4 4 0 0 0-4 4v28a4 4 0 0 0 4 4h28a4 4 0 0 0 4-4V4z" fill="#9266cc"/><path d="M29 6H7a1.5 1.5 0 1 0 0 3h22a1.5 1.5 0 0 0 0-3M29 11h-8a1.5 1.5 0 0 0-.965 2.648c1.242 1.045 4.464 4.346 4.464 7.04 0 4.186-3.305 6.687-6.5 6.687s-6.5-2.477-6.5-6.624c0-2.7 3.23-6.047 4.474-7.109A1.502 1.502 0 0 0 15 11H7a1.5 1.5 0 1 0 0 3h4.465c-1.451 1.774-2.966 4.23-2.966 6.751 0 6.024 4.83 9.624 9.5 9.624 4.568 0 9.5-3.703 9.5-9.687 0-2.507-1.496-4.932-2.94-6.688H29a1.5 1.5 0 0 0 0-3" fill="#fff"/></g></svg>