<svg xmlns="http://www.w3.org/2000/svg" viewBox="0 0 45 45"><defs><clipPath id="a"><path d="M0 36h36V0H0v36z"/></clipPath></defs><g clip-path="url(#a)" transform="matrix(1.25 0 0 -1.25 0 45)"><path d="M36 4a4 4 0 0 0-4-4H4a4 4 0 0 0-4 4v28a4 4 0 0 0 4 4h28a4 4 0 0 0 4-4V4z" fill="#9266cc"/><path d="M31.5 8L26 12V4l5.5 4z" fill="#fff"/><path d="M27 9.5c-3.842 0-4 .933-4 4.5v11c0 3.979-1.776 4.939-3.268 5.291-1.465.345-2.971-.291-4.024-1.269a3.499 3.499 0 0 1-1.976 1.269c-1.459.345-2.959-.286-4.011-1.257C8.705 30.381 7.393 30.5 7 30.5a1.5 1.5 0 1 1 0-3c.155 0 1-.646 1-3.5V13a1.5 1.5 0 1 1 3 0l.006 13.086a1.501 1.501 0 1 0 3.004 0L14 13a1.5 1.5 0 1 1 3 0l.006 13.086a1.501 1.501 0 1 0 3.004 0L20 14c0-3.952.535-7.5 7-7.5a1.5 1.5 0 0 1 0 3" fill="#fff"/></g></svg>