<svg xmlns="http://www.w3.org/2000/svg" viewBox="0 0 45 45"><defs><clipPath id="a"><path d="M0 36h36V0H0v36z"/></clipPath></defs><g clip-path="url(#a)" transform="matrix(1.25 0 0 -1.25 0 45)"><path d="M36 4a4 4 0 0 0-4-4H4a4 4 0 0 0-4 4v28a4 4 0 0 0 4 4h28a4 4 0 0 0 4-4V4z" fill="#9266cc"/><path d="M28.5 30H17a1.5 1.5 0 1 1 0-3h7.879L13 15.121l-3.939 3.94a1.502 1.502 0 0 1-2.122 0 1.502 1.502 0 0 1 0-2.122L10.879 13l-4.94-4.939A1.502 1.502 0 0 1 7 5.5c.384 0 .768.146 1.061.439L13 10.879l3.939-3.94A1.495 1.495 0 0 1 18 6.5a1.502 1.502 0 0 1 1.061 2.561L15.121 13 27 24.879V17a1.5 1.5 0 0 1 3 0v11.5a1.5 1.5 0 0 1-1.5 1.5" fill="#fff"/></g></svg>