<svg xmlns="http://www.w3.org/2000/svg" viewBox="0 0 45 45"><defs><clipPath id="a"><path d="M0 36h36V0H0v36z"/></clipPath></defs><g clip-path="url(#a)" transform="matrix(1.25 0 0 -1.25 0 45)"><path d="M36 4a4 4 0 0 0-4-4H4a4 4 0 0 0-4 4v28a4 4 0 0 0 4 4h28a4 4 0 0 0 4-4V4z" fill="#9266cc"/><path d="M25.967 10.105c-1.153-.117-2.563.202-3.208 1.361.487 1.263 1.64 2.002 3.241 2.002 1.005 0 2.5-.399 2.5-1.5 0-1.058-1.274-1.738-2.533-1.863M26 16.468c-1.616 0-3.027-.476-4.117-1.316-.447 2.177-1.12 5.415-1.916 9.131-1.078 5.031-3.708 6.095-5.179 6.282-1.724.221-3.45-.536-4.787-1.982-1.038 1.746-2.57 1.885-3 1.885a1.5 1.5 0 1 1 0-3c.154 0 1-.645 1-3.5v-11a1.5 1.5 0 1 1 3 0v10.83c0 1.327.545 3.791 2.951 3.791 1.47 0 2.585-1.616 3.081-3.935a1032.14 1032.14 0 0 0 2.497-11.98c.657-3.643-2.108-4.237-3.53-4.206-.828.018-1.5-.672-1.5-1.5a1.5 1.5 0 0 1 1.5-1.5c2.573 0 5.171 1.2 6.122 3.511 1.252-.735 2.76-.998 4.141-.859 3.083.305 5.237 2.3 5.237 4.848 0 2.608-2.313 4.5-5.5 4.5" fill="#fff"/></g></svg>