<svg xmlns="http://www.w3.org/2000/svg" viewBox="0 0 45 45"><defs><clipPath id="a"><path d="M0 36h36V0H0v36z"/></clipPath></defs><g clip-path="url(#a)" transform="matrix(1.25 0 0 -1.25 0 45)"><path d="M36 4a4 4 0 0 0-4-4H4a4 4 0 0 0-4 4v28a4 4 0 0 0 4 4h28a4 4 0 0 0 4-4V4z" fill="#9266cc"/><path d="M21.5 19.5A1.502 1.502 0 0 0 20 21v3.694l-5.512-4.823A1.502 1.502 0 0 0 12 21v3.548l-4.977-4.645a1.5 1.5 0 1 0-2.046 2.194l7.5 7A1.5 1.5 0 0 0 15 28v-3.694l5.513 4.823A1.5 1.5 0 0 0 23 28v-3.694l5.513 4.823A1.5 1.5 0 0 0 31 28v-7a1.5 1.5 0 1 0-3 0v3.694l-5.513-4.823a1.496 1.496 0 0 0-.987-.371M21.5 6.5A1.502 1.502 0 0 0 20 8v3.694l-5.512-4.823A1.5 1.5 0 1 0 12 8v3.548L7.023 6.903a1.5 1.5 0 0 0-2.046 2.194l7.5 7A1.5 1.5 0 1 0 15 15v-3.694l5.513 4.823A1.5 1.5 0 0 0 23 15v-3.694l5.513 4.823A1.5 1.5 0 0 0 31 15V8a1.5 1.5 0 0 0-3 0v3.694l-5.513-4.823A1.496 1.496 0 0 0 21.5 6.5" fill="#fff"/></g></svg>