<svg xmlns="http://www.w3.org/2000/svg" viewBox="0 0 45 45"><defs><clipPath id="a"><path d="M0 36h36V0H0v36z"/></clipPath></defs><g clip-path="url(#a)" transform="matrix(1.25 0 0 -1.25 0 45)"><path d="M36 4a4 4 0 0 0-4-4H4a4 4 0 0 0-4 4v28a4 4 0 0 0 4 4h28a4 4 0 0 0 4-4V4z" fill="#9266cc"/><path d="M30.5 17.5A1.5 1.5 0 0 1 29 19h-3.472c.291 6.296 3.25 8.705 3.371 8.8a1.5 1.5 0 1 1-1.8 2.4c-.18-.135-4.243-3.296-4.568-11.2h-9.064c-.326 7.904-4.388 11.065-4.569 11.2a1.49 1.49 0 0 1-2.083-.292 1.507 1.507 0 0 1 .271-2.098c.132-.104 3.093-2.514 3.384-8.81H7a1.5 1.5 0 1 1 0-3h3.398c-.536-5.524-3.162-7.691-3.31-7.809A1.5 1.5 0 0 1 8.898 5.8c.173.129 3.9 3.028 4.509 10.2h9.185c.607-7.172 4.335-10.071 4.507-10.2.268-.201.582-.298.891-.298a1.503 1.503 0 0 1 .922 2.688c-.125.099-2.773 2.26-3.311 7.81H29a1.5 1.5 0 0 1 1.5 1.5" fill="#fff"/></g></svg>