<svg xmlns="http://www.w3.org/2000/svg" viewBox="0 0 45 45"><defs><clipPath id="a"><path d="M0 36h36V0H0v36z"/></clipPath></defs><g clip-path="url(#a)" transform="matrix(1.25 0 0 -1.25 0 45)"><path d="M25.5 8a7.5 7.5 0 0 1 7.5 7.5 7.5 7.5 0 0 1-7.5 7.5 7.45 7.45 0 0 1-3.73-1h-.209a6.973 6.973 0 0 1 3.422 6 6.983 6.983 0 1 1-13.967 0 6.972 6.972 0 0 1 3.423-6h-.208c-1.1.633-2.371 1-3.731 1a7.5 7.5 0 0 1 0-15c2.155 0 4.091.914 5.46 2.368C15.549 6.247 11.205 3 7 3h.5a1.5 1.5 0 1 1 0-3h21a1.5 1.5 0 0 1 0 3h.5c-4.205 0-8.549 3.248-8.959 7.369A7.47 7.47 0 0 1 25.5 8" fill="#292f33"/></g></svg>