<svg xmlns="http://www.w3.org/2000/svg" viewBox="0 0 45 45"><defs><clipPath id="a"><path d="M0 36h36V0H0v36z"/></clipPath></defs><g clip-path="url(#a)" transform="matrix(1.25 0 0 -1.25 0 45)"><path d="M31.538 14.428C32.466 13.388 33 12.228 33 11c0-4.418-6.715-8-15-8C9.716 3 3 6.582 3 11c0 1.229.535 2.388 1.462 3.428C2.3 12.918 1 11.04 1 9c0-4.97 7.611-9 17-9 9.39 0 17 4.03 17 9 0 2.04-1.299 3.918-3.462 5.428" fill="#dd2e44"/><path d="M9.001 8.5a1.501 1.501 0 0 0-.672 2.842c.12.062 3.171 1.692 3.171 5.658 0 2.127-1.164 3.634-2.396 5.229C7.824 23.886 6.5 25.6 6.5 28c0 4.569 2.34 6.961 2.439 7.061a1.5 1.5 0 1 0 2.132-2.111C10.986 32.86 9.5 31.238 9.5 28c0-1.376.917-2.563 1.978-3.937C12.825 22.32 14.5 20.151 14.5 17c0-5.859-4.632-8.243-4.829-8.342a1.5 1.5 0 0 0-.67-.158" fill="#dd2e44"/><path d="M16.001 8.5a1.501 1.501 0 0 0-.672 2.842c.12.062 3.171 1.692 3.171 5.658 0 2.127-1.164 3.634-2.396 5.229C14.824 23.886 13.5 25.6 13.5 28c0 4.569 2.34 6.961 2.439 7.061a1.501 1.501 0 0 0 2.132-2.111c-.085-.09-1.571-1.712-1.571-4.95 0-1.376.917-2.563 1.978-3.937C19.824 22.32 21.5 20.151 21.5 17c0-5.859-4.632-8.243-4.829-8.342a1.5 1.5 0 0 0-.67-.158" fill="#dd2e44"/><path d="M23.001 8.5a1.501 1.501 0 0 0-.672 2.842c.12.062 3.171 1.692 3.171 5.658 0 2.127-1.164 3.634-2.395 5.229C21.824 23.886 20.5 25.6 20.5 28c0 4.569 2.34 6.961 2.439 7.061a1.501 1.501 0 0 0 2.132-2.111c-.085-.09-1.571-1.712-1.571-4.95 0-1.376.917-2.563 1.978-3.937C26.824 22.32 28.5 20.151 28.5 17c0-5.859-4.632-8.243-4.829-8.342a1.504 1.504 0 0 0-.67-.158" fill="#dd2e44"/></g></svg>