<svg xmlns="http://www.w3.org/2000/svg" viewBox="0 0 45 45"><defs><clipPath id="a"><path d="M0 36h36V0H0v36z"/></clipPath></defs><g clip-path="url(#a)" transform="matrix(1.25 0 0 -1.25 0 45)"><path d="M30.001 7a.998.998 0 0 0-.869.504l-4.236 6.976c-.274.479-.166 1.079.313 1.353l4.958 3c.156.09.496.167.664.167a.994.994 0 0 0 .856-.521l3.108-5.122.164-2.232c.274-.479-.958-1.184-1.438-1.458l-3.025-2.535A.988.988 0 0 0 30.001 7" fill="#3e721d"/><path d="M23 4a1 1 0 0 0-1 1v6a1 1 0 0 0 1 1h10c1.85 0 1.55 1.781 1.55 1.781s.327-.561.375-.651c.327-.614.544-1.552.034-2.505L31.87 4.503C31.725 4.214 31.379 4 31 4h-8z" fill="#77b255"/><path d="M22 1a1 1 0 0 0-.707.293l-6 6a.999.999 0 0 0 0 1.414l6 6A1 1 0 0 0 23 14V2a.999.999 0 0 0-1-1" fill="#77b255"/><path d="M20.593 32.7a1 1 0 0 0-.054-1.003l-4.292-6.94c-.303-.463-.886-.64-1.348-.336l-4.925 3.054c-.15.099-.373.367-.45.517a.992.992 0 0 0 .076.999l3.152 5.094 1.914 1.159c.303.464 1.49-.315 1.953-.618l3.63-1.545a.988.988 0 0 0 .344-.38" fill="#3e721d"/><path d="M26.444 27.825a1 1 0 0 0-.437-1.346l-5.346-2.724a1 1 0 0 0-1.344.437l-4.54 8.91c-.84 1.649-2.292.573-2.292.573s.352.546.41.629c.4.57 1.136 1.189 2.216 1.167l6.857.029c.325 0 .671-.21.844-.547l3.632-7.128z" fill="#77b255"/><path d="M29.571 28.295a1 1 0 0 0 .06-.762l-2.622-8.07a.999.999 0 0 0-1.259-.643l-8.07 2.622a1 1 0 0 0-.146 1.842l10.692 5.448a.998.998 0 0 0 1.345-.437" fill="#77b255"/><path d="M3.376 11.458c.18.297.51.49.882.479l8.16-.004c.553-.017 1.009-.42.995-.972l-.014-5.795a1.761 1.761 0 0 0-.203-.654.993.993 0 0 0-.89-.461l-5.991.008-1.993 1.018c-.551.017-.512 1.435-.498 1.986l-.593 3.904a.982.982 0 0 0 .145.491" fill="#3e721d"/><path d="M4.451 18.998a1 1 0 0 0 1.374.335l5.126-3.119a.999.999 0 0 0 .334-1.374L6.088 6.297c-.96-1.58.717-2.25.717-2.25s-.65.013-.752.019c-.696.039-1.609.341-2.159 1.271L.27 11.158c-.172.276-.174.682.023 1.006l4.158 6.834z" fill="#77b255"/><path d="M2.407 21.41c.136.225.355.389.618.455l8.245 2.006a.999.999 0 0 0 1.208-.735l2.007-8.244a.998.998 0 0 0-.38-1.045 1.001 1.001 0 0 0-1.11-.046L2.741 20.037a1.005 1.005 0 0 0-.335 1.374" fill="#77b255"/></g></svg>