<svg xmlns="http://www.w3.org/2000/svg" viewBox="0 0 45 45"><defs><clipPath id="a"><path d="M0 36h36V0H0v36z"/></clipPath></defs><g clip-path="url(#a)" transform="matrix(1.25 0 0 -1.25 0 45)"><path d="M36 4a4 4 0 0 0-4-4H4a4 4 0 0 0-4 4v28a4 4 0 0 0 4 4h28a4 4 0 0 0 4-4V4z" fill="#269"/><path d="M30 29a3 3 0 1 0-6 0 3 3 0 0 0 6 0M13.06 22.94l2.367 2.366 3.86-1.157-2.636-2.847a10.018 10.018 0 0 0 4.392-3.38l5.016 5.018a1.498 1.498 0 0 1-.629 2.497l-9.999 3a1.495 1.495 0 0 1-1.492-.376l-3-3a1.5 1.5 0 1 1 2.121-2.121M29.125 17.991a1.496 1.496 0 0 1-1.262.503l-6.786-.617a9.966 9.966 0 0 0 1.464-2.879l3.548.322-1.554-6.995a1.499 1.499 0 1 1 2.928-.65l2 9c.104.467-.022.956-.338 1.316M13 6a6 6 0 1 0 0 12 6 6 0 0 0 0-12m0 14a8 8 0 0 1-8-8A8 8 0 1 1 13 20" fill="#fff"/></g></svg>