<svg xmlns="http://www.w3.org/2000/svg" viewBox="0 0 45 45"><defs><clipPath id="a"><path d="M0 36h36V0H0v36z"/></clipPath></defs><g clip-path="url(#a)" transform="matrix(1.25 0 0 -1.25 0 45)"><path d="M6.814 2.72c-1.166-1.165-3.02-1.22-4.12-.12s-1.046 2.955.12 4.12L26.08 29.988c1.167 1.166 3.021 1.22 4.121.12 1.1-1.1 1.046-2.954-.12-4.12L6.814 2.72z" fill="#d67909"/><path d="M32.585 28.343a2 2 0 0 1 0 2.829l-1.414 1.414a2 2 0 0 1-2.828-2.829l1.414-1.414a2.001 2.001 0 0 1 2.828 0" fill="#d67909"/><path d="M32.585 28.343a2 2 0 0 1 0 2.829l-1.414 1.414a2 2 0 0 1-2.828-2.829l1.414-1.414a2.001 2.001 0 0 1 2.828 0" fill="#d67909"/><path d="M35.79 22.576c-.253 1.765-.376 4.354-3.205 7.182l-.707.707-4.949 4.95a2 2 0 0 1-2.829 0l-3.536-3.536a2 2 0 0 1 0-2.828l6.365-6.365 2.121-2.121 1.414-1.414c1.027-1.027 3.314-3.315 4.717-1.911.774.774.962 2.86.608 5.336" fill="#66757f"/><path d="M29.186 2.72c1.166-1.165 3.02-1.22 4.12-.12s1.046 2.955-.12 4.12L9.92 29.988c-1.167 1.166-3.02 1.22-4.12.12s-1.047-2.954.12-4.12L29.186 2.72z" fill="#f4900c"/><path d="M3.415 28.343a2 2 0 0 0 0 2.829l1.414 1.414a2 2 0 0 0 2.828-2.829l-1.414-1.414a2.001 2.001 0 0 0-2.828 0" fill="#f4900c"/><path d="M4.122 20.564c.78-.78 2.047-.78 2.828 0l8.485 8.485a1.999 1.999 0 0 1 0 2.83L11.9 35.413a2 2 0 0 1-2.828 0L.586 26.928a2 2 0 0 1 0-2.828l3.536-3.536z" fill="#66757f"/></g></svg>