<svg xmlns="http://www.w3.org/2000/svg" viewBox="0 0 45 45"><defs><clipPath id="a"><path d="M0 36h36V0H0v36z"/></clipPath></defs><g clip-path="url(#a)" transform="matrix(1.25 0 0 -1.25 0 45)"><path d="M15 30a3 3 0 1 0 6 0 3 3 0 0 0-6 0m20-19l-4.5 6.428L26 11h2.575A11.002 11.002 0 0 0 20 3.19V19h3a2 2 0 0 1 0 4h-3v1.349A5.996 5.996 0 0 1 18 36a5.996 5.996 0 1 1-2-11.651V23h-3a2 2 0 0 1 0-4h3V3.19A11 11 0 0 0 7.425 11H10l-4.5 6.428L1 11h3.33C5.705 4.711 11.299 0 18 0s12.295 4.711 13.67 11H35z" fill="#269"/></g></svg>