<svg xmlns="http://www.w3.org/2000/svg" viewBox="0 0 45 45"><defs><clipPath id="a"><path d="M0 36h36V0H0v36z"/></clipPath><clipPath id="b"><path d="M30 35L6.999 12 12 7l23 23v5h-5z"/></clipPath><clipPath id="c"><path d="M0 36h36V0H0v36z"/></clipPath></defs><path d="M30 36.25L36.25 30 7.5 1.25H1.25V7.5L30 36.25z" fill="#ccd6dd"/><path d="M1.25 1.25V7.5L30 36.25l3.125-3.125L1.25 1.25z" fill="#9aaab4"/><g clip-path="url(#a)" transform="matrix(1.25 0 0 -1.25 0 45)"><path d="M32.143 1.972c.78-.781 1.836-.992 2.357-.472.52.52.31 1.576-.471 2.358l-5.186 6.128c-.78.78-1.837.992-2.356.47l-.944-.941c-.52-.522-.31-1.576.472-2.357l6.128-5.186z" fill="#642116"/><path d="M22.479 5.743a1.5 1.5 0 0 1 2.12 0l5.658 5.656a1.501 1.501 0 0 1-2.122 2.122l-5.657-5.657a1.501 1.501 0 0 1 0-2.12" fill="#bf6952"/><path d="M31.318.44a1.5 1.5 0 0 1 2.121 0l2.121 2.12a1.5 1.5 0 0 1-2.12 2.123L31.317 2.56a1.5 1.5 0 0 1 0-2.12" fill="#fcab40"/><path d="M12 7l-5 5 23 23h5v-5L12 7z" fill="#ccd6dd"/></g><g clip-path="url(#b)" transform="matrix(1.25 0 0 -1.25 0 45)"><path d="M7.157 7.157l3.535-3.536 28.991 28.992-3.535 3.535-28.99-28.99z" fill="#9aaab4"/></g><g clip-path="url(#c)" transform="matrix(1.25 0 0 -1.25 0 45)"><path d="M3.857 1.972C3.077 1.19 2.021.98 1.5 1.5c-.52.52-.31 1.576.471 2.358l5.186 6.128c.781.78 1.836.992 2.357.47l.942-.941c.521-.522.31-1.576-.47-2.357L3.856 1.972z" fill="#642116"/><path d="M13.521 5.743a1.5 1.5 0 0 0-2.121 0L5.743 11.4a1.5 1.5 0 0 0 2.121 2.122l5.657-5.657a1.501 1.501 0 0 0 0-2.12" fill="#bf6952"/><path d="M4.682.44a1.5 1.5 0 0 0-2.12 0L.438 2.56a1.501 1.501 0 0 0 2.122 2.123L4.682 2.56a1.501 1.501 0 0 0 0-2.12" fill="#fcab40"/></g></svg>