<svg xmlns="http://www.w3.org/2000/svg" viewBox="0 0 45 45"><defs><clipPath id="a"><path d="M0 36h36V0H0v36z"/></clipPath></defs><g clip-path="url(#a)" transform="matrix(1.25 0 0 -1.25 0 45)"><path d="M3.923 13.077a1 1 0 1 0-1.846.77l4.616 12.537a1 1 0 1 0 1.846-.769L3.923 13.077z" fill="#66757f"/><path d="M13.923 13.846a1 1 0 0 0-1.846-.77L7.46 25.617a1 1 0 0 0 1.846.769l4.616-12.54zM23.924 13.077a1.001 1.001 0 0 0-1.847.77l4.617 12.537a.998.998 0 1 0 1.845-.769l-4.615-12.538z" fill="#66757f"/><path d="M33.923 13.846a1 1 0 1 0-1.847-.77l-4.615 12.54a.999.999 0 1 0 1.846.769l4.616-12.54z" fill="#66757f"/><path d="M14.857 14H1.143A1.143 1.143 0 0 1 0 12.857c0-2.524 3.582-4.571 8-4.571 4.419 0 8 2.047 8 4.571 0 .632-.512 1.143-1.143 1.143M24 2H12a1 1 0 0 0-1 1c0 2.209 3.134 4 7 4s7-1.791 7-4a1 1 0 0 0-1-1M34.857 14H21.142A1.141 1.141 0 0 1 20 12.857c0-2.524 3.581-4.571 8-4.571 4.418 0 8 2.047 8 4.571 0 .632-.51 1.143-1.143 1.143" fill="#ffac33"/><path d="M19 33a1 1 0 1 1-2 0V6a1 1 0 1 1 2 0v27z" fill="#ffac33"/><path d="M20 32a2 2 0 1 0-4 0 2 2 0 0 0 4 0M10 26a2 2 0 1 0-4 0 2 2 0 0 0 4 0M30 26a2 2 0 1 0-4 0 2 2 0 0 0 4 0" fill="#ffac33"/><path d="M28 26c0-1.104 0 0-10 0S8 24.896 8 26c0 1.105 3 4 10 4s10-2.895 10-4" fill="#ffac33"/></g></svg>