<svg xmlns="http://www.w3.org/2000/svg" viewBox="0 0 45 45"><defs><clipPath id="a"><path d="M0 36h36V0H0v36z"/></clipPath></defs><g clip-path="url(#a)" transform="matrix(1.25 0 0 -1.25 0 45)"><path d="M29 19.5C29 12.044 22.956 6 15.5 6S2 12.044 2 19.5 8.044 33 15.5 33 29 26.956 29 19.5" fill="#e1e8ed"/><path d="M4 19c.226-6.164 5.281-11.096 11.5-11.096S26.774 12.836 27 19H4z" fill="#8ccaf7"/><path d="M30 12a2 2 0 0 0-2-2H3a2 2 0 0 0 0 4h25a2 2 0 0 0 2-2" fill="#67757f"/><path d="M16 2a1 1 0 1 0-2 0v8a1 1 0 1 0 2 0V2zM2.942 1.664a.999.999 0 1 0-1.883.673l2.997 8.39a.999.999 0 1 0 1.883-.672l-2.997-8.39zM28.059 1.664a1 1 0 0 1 1.883.673l-3.04 8.473a1 1 0 1 1-1.882-.672l3.039-8.474z" fill="#67757f"/><path d="M19 32.5s12.995-4.556 14.375-5C37 26.333 35.5 22.417 33 23.042 28.054 24.278 19 27 18 27s1 5.5 1 5.5" fill="#e1e8ed"/><path d="M29 13a1 1 0 0 0-1-1H3a1 1 0 1 0 0 2h25a1 1 0 0 0 1-1" fill="#9aaab4"/></g></svg>