<svg xmlns="http://www.w3.org/2000/svg" viewBox="0 0 45 45"><defs><clipPath id="a"><path d="M0 36h36V0H0v36z"/></clipPath></defs><g clip-path="url(#a)" transform="matrix(1.25 0 0 -1.25 0 45)"><path d="M18 10a8 8 0 0 0-8 8 8 8 0 0 0 8 8 8 8 0 1 0 0-16m16 11h-3.362a12.889 12.889 0 0 1-1.582 3.814l2.379 2.378a2 2 0 0 1 0 2.829l-1.414 1.414a2 2 0 0 1-2.829 0l-2.378-2.379A12.9 12.9 0 0 1 21 30.638V34a2 2 0 0 1-2 2h-2a2 2 0 0 1-2-2v-3.362a12.9 12.9 0 0 1-3.814-1.582l-2.378 2.379a2 2 0 0 1-2.829 0l-1.414-1.414a2.002 2.002 0 0 1-.001-2.829l2.38-2.378A12.91 12.91 0 0 1 5.362 21H2a2 2 0 0 1-2-2v-2a2 2 0 0 1 2-2h3.362c.324-1.368.863-2.65 1.582-3.813l-2.38-2.379a2.002 2.002 0 0 1 .001-2.829l1.414-1.415a2.003 2.003 0 0 1 2.829 0l2.378 2.38A12.9 12.9 0 0 1 15 5.362V2a2 2 0 0 1 2-2h2a2 2 0 0 1 2 2v3.362c1.368.324 2.65.863 3.813 1.582l2.379-2.38a2 2 0 0 1 2.829 0l1.414 1.415a2 2 0 0 1 0 2.829l-2.379 2.378A12.889 12.889 0 0 1 30.638 15H34a2 2 0 0 1 2 2v2a2 2 0 0 1-2 2" fill="#66757f"/></g></svg>