<svg xmlns="http://www.w3.org/2000/svg" viewBox="0 0 45 45"><defs><clipPath id="a"><path d="M0 36h36V0H0v36z"/></clipPath></defs><g clip-path="url(#a)" transform="matrix(1.25 0 0 -1.25 0 45)"><path d="M36 4a4 4 0 0 0-4-4H4a4 4 0 0 0-4 4v28a4 4 0 0 0 4 4h28a4 4 0 0 0 4-4V4z" fill="#9266cc"/><path d="M28.536 12c-.156-.275-.729-.439-1.53-.439-1.195 0-2.758.338-4.504.94.123.879.217 1.79.28 2.72.807.534 1.58 1.088 2.306 1.652 2.724-2.348 3.795-4.265 3.448-4.873M18 5.875c-.706 0-1.855 1.908-2.546 5.494.83.33 1.683.713 2.546 1.133a37.62 37.62 0 0 1 2.546-1.133c-.69-3.586-1.84-5.494-2.546-5.494m-9.006 5.686c-.802 0-1.374.164-1.53.438-.347.609.723 2.526 3.448 4.874a37.517 37.517 0 0 1 2.307-1.652c.061-.93.156-1.841.28-2.72-1.747-.602-3.31-.94-4.505-.94M7.464 24c.156.275.728.439 1.53.439 1.194 0 2.758-.338 4.504-.94a37.269 37.269 0 0 1-.279-2.72 37.517 37.517 0 0 1-2.307-1.652C8.187 21.475 7.117 23.392 7.464 24M18 30.125c.706 0 1.855-1.908 2.546-5.494A37.62 37.62 0 0 1 18 23.498a37.62 37.62 0 0 1-2.546 1.133c.691 3.586 1.84 5.494 2.546 5.494m4.866-11.517a35.7 35.7 0 0 0 .826-.608 35.7 35.7 0 0 0-.826-.608c.003.203.01.405.01.608 0 .203-.007.405-.01.608m-2.912 3.876c.293.13.586.263.873.382.04-.306.077-.615.11-.939-.176.103-.349.209-.525.309-.152.087-.305.164-.458.248m-4.89-.557c.032.324.07.633.11.939.286-.119.58-.252.871-.382-.152-.084-.305-.161-.457-.248-.177-.1-.35-.206-.525-.309m-1.929-4.535c-.288.205-.56.407-.826.608.265.201.538.403.826.608-.003-.203-.009-.405-.009-.608 0-.203.006-.405.01-.608m2.91-3.876c-.292-.13-.585-.263-.872-.382a36.99 36.99 0 0 0-.11.939c.175-.103.348-.209.525-.309.152-.087.305-.164.457-.248m4.891.557c-.032-.324-.07-.633-.109-.939-.287.119-.58.252-.873.382.153.084.306.161.458.248.176.1.35.206.524.309m-1.389 1.212A42.87 42.87 0 0 0 18 14.447a42.87 42.87 0 0 0-1.547.838c-.54.308-1.047.616-1.537.923a42.75 42.75 0 0 0-.04 1.792c0 .623.016 1.215.04 1.792.49.307.996.615 1.537.923a42.87 42.87 0 0 0 1.547.838 42.87 42.87 0 0 0 1.547-.838 41.276 41.276 0 0 0 1.536-.923A41.07 41.07 0 0 0 21.125 18c0-.623-.017-1.215-.042-1.792a41.276 41.276 0 0 0-1.536-.923m7.46 9.154c.8 0 1.373-.164 1.53-.438.346-.609-.725-2.526-3.449-4.874a37.517 37.517 0 0 1-2.307 1.652c-.062.93-.156 1.841-.279 2.72 1.746.602 3.31.94 4.504.94M26.463 18c2.888 2.529 4.59 5.118 3.594 6.867-.5.877-1.527 1.322-3.05 1.322-1.3 0-2.962-.345-4.797-.954-.763 3.821-2.178 6.64-4.21 6.64s-3.447-2.819-4.21-6.64c-1.835.609-3.498.954-4.796.954-1.524 0-2.552-.445-3.052-1.323-.995-1.748.706-4.337 3.594-6.866-2.888-2.529-4.589-5.118-3.594-6.867.5-.877 1.528-1.322 3.052-1.322 1.298 0 2.961.345 4.795.954.764-3.821 2.18-6.64 4.211-6.64 2.032 0 3.447 2.819 4.21 6.64 1.835-.609 3.497-.954 4.796-.954 1.524 0 2.551.445 3.051 1.323.995 1.748-.706 4.337-3.594 6.866" fill="#fff"/><path d="M18 19.414a1.414 1.414 0 1 1 0-2.828 1.414 1.414 0 0 1 0 2.828" fill="#fff"/></g></svg>