<svg xmlns="http://www.w3.org/2000/svg" viewBox="0 0 45 45"><defs><clipPath id="a"><path d="M0 36h36V0H0v36z"/></clipPath></defs><g clip-path="url(#a)" transform="matrix(1.25 0 0 -1.25 0 45)"><path d="M10.582 18c2.075-1.244 2.74-3.559 2.416-6h4.837c.104.649.165 1.316.165 2 0 6.075-5.001 11.731-10.27 11.731-8.478 0-9.866-9.043-4.567-11.731-1.059 5 4.122 5.975 7.419 4M25.457 18c-2.075-1.244-2.74-3.559-2.416-6h-4.837a12.74 12.74 0 0 0-.165 2c0 6.075 5.001 11.731 10.27 11.731 8.478 0 9.866-9.043 4.567-11.731 1.06 5-4.122 5.975-7.419 4M29.791 9.352A3.49 3.49 0 0 0 26.5 7a3.489 3.489 0 0 0-3.449 3h-2.615A4.938 4.938 0 0 1 20 8a5 5 0 0 1 5-5 5 5 0 0 1 5 5c0 .471-.086.92-.209 1.352M12.95 10A3.49 3.49 0 0 0 9.5 7a3.487 3.487 0 0 0-3.29 2.352A4.91 4.91 0 0 1 6 8a5 5 0 1 1 10 0c0 .715-.165 1.386-.436 2H12.95z" fill="#744eaa"/><path d="M13 25.773C13 32.049 18 36 18 36s5-3.951 5-10.227S20.762 11 18 11s-5 8.497-5 14.773" fill="#aa8dd8"/><path d="M14 6c0 3.314 2.344 6 4 6 1.656 0 4-2.686 4-6s-4-6-4-6-4 2.686-4 6" fill="#aa8dd8"/><path d="M25 11.5A3.5 3.5 0 0 0 21.5 8h-7a3.5 3.5 0 1 0 0 7h7a3.5 3.5 0 0 0 3.5-3.5" fill="#9266cc"/></g></svg>