<svg xmlns="http://www.w3.org/2000/svg" viewBox="0 0 45 45"><defs><clipPath id="a"><path d="M0 36h36V0H0v36z"/></clipPath></defs><g clip-path="url(#a)" transform="matrix(1.25 0 0 -1.25 0 45)"><path d="M2.653 1C.811 1 0 2.338.847 3.973l15.61 30.055c.847 1.635 2.237 1.635 3.086 0l15.61-30.055C36.002 2.338 35.188 1 33.345 1H2.653z" fill="#ffcc4d"/><path d="M15.769 25.34c0 1.302.961 2.108 2.232 2.108 1.241 0 2.233-.836 2.233-2.108V13.402c0-1.271-.992-2.108-2.233-2.108-1.271 0-2.232.807-2.232 2.108V25.34zm-.186-18.293a2.421 2.421 0 0 0 2.418 2.418 2.422 2.422 0 0 0 2.419-2.418 2.422 2.422 0 0 0-2.419-2.42 2.421 2.421 0 0 0-2.418 2.42" fill="#231f20"/></g></svg>