<svg xmlns="http://www.w3.org/2000/svg" viewBox="0 0 45 45"><path d="M22.427 11.911L1.249 37.061 9.191 45l27.793-17.207 5.294-11.911-6.616-6.619-13.235 2.647z" fill="#c1694f"/><path d="M1.25 37.06L9.19 45V35L1.25 27.5v9.56z" fill="#662113"/><path d="M42.5 6.25v9.633l-5.515 11.91V18.75L35 10l7.5-3.75z" fill="#a04e3c"/><path d="M35.661 0L22.426 2.647 1.25 27.5l7.941 8.235L36.984 18.53 42.5 6.25 35.661 0z" fill="#d99e82"/><path d="M15 36.25l3.75-2.5M28.75 27.5L32.5 25" fill="none" stroke="#ffac33" stroke-width="2.5" stroke-linecap="round" stroke-linejoin="round" stroke-miterlimit="10"/><path d="M26.25 6.25l-18.75 20L11.25 30l22.5-16.25 2.5-6.25-2.5-2.5-7.5 1.25z" fill="none" stroke="#c1694f" stroke-width="2.5" stroke-linecap="round" stroke-linejoin="round" stroke-miterlimit="10"/></svg>