<svg xmlns="http://www.w3.org/2000/svg" viewBox="0 0 45 45"><defs><clipPath id="a"><path d="M0 36h36V0H0v36z"/></clipPath></defs><g clip-path="url(#a)" transform="matrix(1.25 0 0 -1.25 0 45)"><path d="M23 2c0-.553-2.686-1.466-6-1.466S11 1.447 11 2c0 .553 2.686 1 6 1s6-.447 6-1" fill="#d99e82"/><path d="M24 28.922s-1 1.04 0 2.04S25 34 25 34H9.031s0-2.039 1-3.039 0-2.019 0-2.019-5-1.97-5-9.97c0-8.002 5.977-16.996 5.977-16.996L17 2h6s6 8.961 6 16.961c0 8-5 9.961-5 9.961" fill="#c1694f"/><path d="M25 34c0-.552-3.582-1-8-1s-8 .448-8 1 3.582 1.75 8 1.75 8-1.198 8-1.75M17 2.775c-3.331 0-6.143.565-7.25 1.304.725-1.294 1.246-2.084 1.256-2.1.063-.555 2.72-1.445 5.994-1.445 3.314 0 6 .913 6 1.466 0 0 .52.781 1.244 2.064-1.12-.73-3.933-1.289-7.244-1.289" fill="#d99e82"/><path d="M24.163 31.276c-.799-.46-3.698-1.008-7.163-1.008-3.465 0-6.365.548-7.163 1.008-.142-.082-.226-.167-.226-.255 0-.583 3.308-1.262 7.39-1.262 4.08 0 7.388.679 7.388 1.262 0 .088-.083.173-.226.255" fill="#662113"/><path d="M10.387 29.533c2.595-.71 5.403-.814 6.613-.814 1.215 0 4.037.097 6.639.815-.137.389-.154.912.36 1.428l.009.009a11.74 11.74 0 0 1-.117-.033c-2.48-.682-7.01-.97-7.01-.97s-4.352.288-6.831.97h-.001c.497-.513.477-1.026.338-1.405" fill="#662113"/><path d="M17 17.388c4.808 0 9.216.776 11.962 2.55-.072 1.319-.282 2.456-.583 3.433-.438-.09-.862-.348-1.345-.508-3-1-8.034-1.25-10.034-1.25s-7.052.293-10.052 1.293c-.48.16-.843.373-1.3.464-.323-1.054-.539-2.295-.592-3.747 2.798-1.631 7.533-2.235 11.944-2.235" fill="#d99e82"/></g></svg>