<svg xmlns="http://www.w3.org/2000/svg" viewBox="0 0 45 45"><defs><clipPath id="a"><path d="M0 36h36V0H0v36z"/></clipPath><clipPath id="b"><path d="M18 36C8.059 36 0 27.941 0 18S8.059 0 18 0s18 8.059 18 18-8.059 18-18 18z"/></clipPath></defs><g clip-path="url(#a)" transform="matrix(1.25 0 0 -1.25 0 45)"><path d="M36 18c0-9.941-8.059-18-18-18S0 8.059 0 18s8.059 18 18 18 18-8.059 18-18" fill="#f5f8fa"/><path d="M18 25a1 1 0 0 0-1 1v7a1 1 0 0 0 2 0v-7a1 1 0 0 0-1-1M11.417 20.5a.99.99 0 0 0-.302.047l-8.041 2.54a1.001 1.001 0 0 0 .602 1.909l8.042-2.542a.999.999 0 0 0-.301-1.955M25.042 20.791a1.001 1.001 0 0 0-.278 1.961l6.75 1.958a.999.999 0 1 0 .556-1.92l-6.75-1.959a.989.989 0 0 0-.278-.04M27.043 5.833a1 1 0 0 0-.803.403l-5.459 7.333a1 1 0 1 0 1.604 1.194l5.459-7.333a1 1 0 0 0-.801-1.597M8.749 5.916a1 1 0 0 0-.82 1.57l5.125 7.375a.999.999 0 1 0 1.642-1.14L9.571 6.346a.996.996 0 0 0-.822-.43" fill="#ccd6dd"/></g><g clip-path="url(#b)" transform="matrix(1.25 0 0 -1.25 0 45)"><path d="M3.5 8.938c-.44 0-.845.292-.966.737L.349 17.739a1 1 0 1 0 1.93.524L4.464 10.2A1.001 1.001 0 0 0 3.5 8.938M22 2h-9a1 1 0 1 0 0 2h9a1 1 0 1 0 0-2M32.126 8.875a1 1 0 0 0-.972 1.239l2.125 8.625a1 1 0 0 0 1.942-.478l-2.125-8.625a1.001 1.001 0 0 0-.97-.761M30.311 28.313a.998.998 0 0 0-.5.134l-7.563 4.375a1 1 0 0 0 1.002 1.731l7.563-4.374a1 1 0 0 0-.502-1.866M5.501 28.313a.999.999 0 0 0-.584 1.812l6.188 4.438a1 1 0 0 0 1.166-1.626L6.083 28.5a1 1 0 0 0-.582-.187" fill="#ccd6dd"/><path d="M25.493 22.484l-7.208 5.083a1.002 1.002 0 0 1-1.162-.006l-7.167-5.167a1 1 0 0 1-.375-1.091l2.5-8.582a1 1 0 0 1 .96-.721h8.96a1 1 0 0 1 .947.68l2.917 8.668a1 1 0 0 1-.372 1.136M6.774 30.632A.999.999 0 0 1 6 31H3c-.217 0-.427-.07-.6-.2l-4-3A.998.998 0 0 1-2 27v-7.584c0-.292.128-.57.35-.76l2.291-1.958a1.003 1.003 0 0 1 1.522.27l3.375 6c.05.09.087.188.108.29L6.98 29.8c.06.294-.016.6-.206.832M23.735 37.148a.76.76 0 0 1-.81.598l-10.293-1.042c-.293-.03-.52-.174-.614-.453-.08-.174-.858-1.6-1.384-2.557a.75.75 0 0 1 .536-1.102l6.375-1.04a.706.706 0 0 1 .243 0l6.084 1a.748.748 0 0 1 .613.888l-.75 3.708zM37.697 19.359l-4.083 10.333a.75.75 0 0 1-.65.475l-3.334.209a.76.76 0 0 1-.61-.25.741.741 0 0 1-.175-.63l1.167-6.197a.666.666 0 0 1 .093-.224c1.492-2.504 3.153-5.301 3.381-5.781.024-.084.063-.08.114-.151.141-.196.372-.143.613-.143h.006c.25 0 .375-.155 3.181 1.619.305.193.43.405.297.74M14.35 3.168l-4.5 5a.746.746 0 0 1-.212.163c-5.885 3.069-5.994 3.105-6.066 3.13a.79.79 0 0 1-.24.039c-.678 0-.75-.092-1.646-3.956a.722.722 0 0 1-.02-.154l-.083-4.125a.749.749 0 0 1 .374-.663l7.333-4.25a.746.746 0 0 1 .874.087l4.125 3.667c.15.132.24.319.251.518a.754.754 0 0 1-.19.544M33.994 7.556l-1.209 3.209a.747.747 0 0 1-1.003.422L25.7 8.52a.738.738 0 0 1-.274-.205l-4.25-5.083a.75.75 0 0 1 .1-1.062c4.791-3.92 4.892-3.92 5.225-3.92.28 0 .384 0 6.484 3.867a.748.748 0 0 1 .34.518l.71 4.54a.756.756 0 0 1-.04.38" fill="#292f33"/></g></svg>