<svg xmlns="http://www.w3.org/2000/svg" viewBox="0 0 45 45"><defs><clipPath id="a"><path d="M0 36h36V0H0v36z"/></clipPath><clipPath id="b"><path d="M18 36C8.059 36 0 27.941 0 18S8.059 0 18 0s18 8.059 18 18-8.059 18-18 18z"/></clipPath><clipPath id="c"><path d="M0 36h36V0H0v36z"/></clipPath></defs><g clip-path="url(#a)" transform="matrix(1.25 0 0 -1.25 0 45)"><path d="M18 0C8.059 0 0 8.059 0 18s8.059 18 18 18 18-8.059 18-18S27.94 0 18 0" fill="#e1e8ed"/></g><g clip-path="url(#b)" transform="matrix(1.25 0 0 -1.25 0 45)"><path d="M34 6c4.318 0 7 4.598 7 12s-2.682 12-7 12-7-4.598-7-12 2.682-12 7-12m0 26c4.352 0 9-3.678 9-14S38.352 4 34 4s-9 3.678-9 14 4.648 14 9 14M2 6c4.317 0 7 4.598 7 12S6.317 30 2 30s-7-4.598-7-12c0-7.401 2.683-12 7-12m0 26c4.351 0 9-3.678 9-14S6.351 4 2 4s-9 3.678-9 14 4.649 14 9 14" fill="#b3bec4"/></g><g clip-path="url(#c)" transform="matrix(1.25 0 0 -1.25 0 45)"><path d="M5.092 25.836c-.237 0-.457.02-.651.056a1.001 1.001 0 0 0 .368 1.966c.43-.077 2.69-.006 3.148 2.276a1 1 0 1 0 1.96-.393c-.581-2.912-3.138-3.905-4.825-3.905M6.792 21.875c-.53 0-.952.323-.978.859-.026.551.4.911.95.937 0 0 2.565.035 3.87 2.294a.994.994 0 0 0 1.367.352c.478-.276.64-.895.365-1.373-1.852-3.206-5.558-3.069-5.574-3.069M9 16.718c-.735 0-1.415.135-1.929.378a1 1 0 0 0 .857 1.808c.83-.393 2.925-.24 3.73 1.012a1 1 0 0 0 1.684-1.081c-.966-1.5-2.777-2.117-4.343-2.117M10.161 11.193c-1.554 0-2.995.7-3.926 1.475a1 1 0 0 0 1.28 1.538c.194-.163 1.952-1.566 3.782-.786a1 1 0 0 0 .781-1.84 4.866 4.866 0 0 0-1.917-.387M9.75 6h-.027c-2.505 0-4.68 1.57-5.535 3.108-.268.483-.093 1.044.389 1.313.483.269 1.092.07 1.36-.412.483-.871 1.995-2.134 3.84-2.185.554-.015.989-.388.973-.939-.016-.543-.46-.885-1-.885M27.189 5.813a1 1 0 0 0-.982 1.196c.665 3.322 3.894 4.15 5.478 3.848a1 1 0 0 0 .798-1.166.994.994 0 0 0-1.167-.799c-.425.08-2.691.008-3.148-2.275a.998.998 0 0 0-.98-.804M24.624 10.313a.999.999 0 0 0-.865 1.5c1.852 3.206 3.984 3.304 5.394 3.369l.112.004a1.002 1.002 0 0 0 1.046-.95 1 1 0 0 0-.951-1.048l-.115-.005c-1.204-.056-2.449-.112-3.754-2.37a.998.998 0 0 0-.867-.5M23.624 16.375a.999.999 0 0 0-.84 1.54c1.415 2.204 4.656 2.502 6.269 1.739a.999.999 0 0 0 .475-1.332.998.998 0 0 0-1.331-.476c-.829.394-2.926.239-3.731-1.012a.999.999 0 0 0-.842-.459M29.249 22.313a.997.997 0 0 0-.64.232c-.194.161-1.952 1.557-3.781.784a1 1 0 1 0-.781 1.841c2.219.942 4.535.001 5.844-1.09a1.001 1.001 0 0 0-.642-1.767M31.064 26.25a1 1 0 0 0-.875.514c-.484.872-1.996 2.123-3.841 2.174-.553.015-.987.506-.973 1.059.016.542.46 1.003 1 1.003h.028c2.505 0 4.679-1.694 5.534-3.232a1.017 1.017 0 0 0-.39-1.376 1.006 1.006 0 0 0-.483-.142" fill="#dd2e44"/></g></svg>