<svg xmlns="http://www.w3.org/2000/svg" viewBox="0 0 45 45"><defs><clipPath id="a"><path d="M0 36h36V0H0v36z"/></clipPath></defs><g clip-path="url(#a)" transform="matrix(1.25 0 0 -1.25 0 45)"><path d="M8 10c0 5.523 4.477 10 10 10s10-4.477 10-10S23.523 0 18 0 8 4.477 8 10" fill="#e1e8ed"/><path d="M12 25a6 6 0 1 0 12 0 6 6 0 0 0-12 0" fill="#e1e8ed"/><path d="M23 30a2 2 0 0 0-2-2h-6a2 2 0 0 0-2 2v4a2 2 0 0 0 2 2h6a2 2 0 0 0 2-2v-4z" fill="#414042"/><path d="M25 29a1 1 0 0 0-1-1H12a1 1 0 0 0 0 2h12a1 1 0 0 0 1-1" fill="#231f20"/><path d="M22.5 21h-9a1.495 1.495 0 1 1-.5-2.908V11a1 1 0 0 1 1-1h1a1 1 0 0 1 1 1v7h6.5a1.5 1.5 0 1 1 0 3" fill="#dd2e44"/><path d="M19 12a1 1 0 1 0-1.998-.002A1 1 0 0 0 19 12M19 7a1 1 0 1 0-1.998-.002A1 1 0 0 0 19 7" fill="#414042"/><path d="M19 24a1 1 0 1 0-1.998-.002A1 1 0 0 0 19 24" fill="#f4900c"/><path d="M16 26a1 1 0 1 0-2 0 1 1 0 0 0 2 0M22 26a1 1 0 1 0-2 0 1 1 0 1 0 2 0" fill="#414042"/><path d="M10.394 15.919l-3.452 1.479-.547 2.866a1.001 1.001 0 0 1-1.965-.375l.294-1.54-1.33.57a1 1 0 1 1-.788-1.838l.743-.318-1.056-1.056a.999.999 0 1 1 1.414-1.414l1.621 1.62 4.278-1.832a.996.996 0 0 1 1.313.526 1 1 0 0 1-.525 1.312M33.316 18.949l-1.465.488.856.856a1 1 0 0 1-1.414 1.414l-.75-.752-.574 2.288a.999.999 0 1 1-1.939-.486l.862-3.45-3.599-3.6a.999.999 0 1 1 1.414-1.414l3.563 3.563 2.413-.804a1 1 0 0 1 .633 1.897" fill="#ffac33"/></g></svg>