<svg xmlns="http://www.w3.org/2000/svg" viewBox="0 0 45 45"><defs><clipPath id="a"><path d="M0 36h36V0H0v36z"/></clipPath></defs><g clip-path="url(#a)" transform="matrix(1.25 0 0 -1.25 0 45)"><path d="M14 34s0 2 2 2 2-2 2-2v-2s0-2-2-2-2 2-2 2v2zM30 22s2 0 2-2-2-2-2-2h-2s-2 0-2 2 2 2 2 2h2zM4 22s2 0 2-2-2-2-2-2H2s-2 0-2 2 2 2 2 2h2zM7.872 29.956s1.414-1.414 0-2.828-2.828 0-2.828 0l-1.415 1.414s-1.414 1.414 0 2.83c1.415 1.414 2.829 0 2.829 0l1.414-1.415zM26.957 27.129s-1.414-1.414-2.828 0 0 2.828 0 2.828l1.414 1.414s1.414 1.414 2.828 0 0-2.828 0-2.828l-1.414-1.414zM25 20a9 9 0 0 1-9 9 9 9 0 1 1 9-9" fill="#ffac33"/><path d="M28 16c-.825 0-1.62-.125-2.369-.357A6.498 6.498 0 0 1 19.5 20c-3.044 0-5.592-2.096-6.299-4.921A4.459 4.459 0 0 1 10.5 16 4.5 4.5 0 0 1 6 11.5c0-.604.123-1.178.339-1.704A4.98 4.98 0 0 1 5 10a5 5 0 0 1-5-5 5 5 0 0 1 5-5h23a8 8 0 1 1 0 16" fill="#e1e8ed"/></g></svg>