<svg xmlns="http://www.w3.org/2000/svg" viewBox="0 0 45 45"><defs><clipPath id="a"><path d="M0 36h36V0H0v36z"/></clipPath></defs><g clip-path="url(#a)" transform="matrix(1.25 0 0 -1.25 0 45)"><path d="M13.916 0a.417.417 0 0 0-.371.607L17 7h-5.078c-.174 0-.437.031-.562.297-.114.243-.057.474.047.703L15 17c.079.067 6.903-.393 7-.393a.417.417 0 0 0 .37-.607l-3.818-6h5.032a.418.418 0 0 0 .272-.732L14.189.102A.413.413 0 0 0 13.917 0" fill="#f4900c"/><path d="M28 32c-.825 0-1.62-.125-2.369-.357A6.498 6.498 0 0 1 19.5 36c-3.044 0-5.592-2.096-6.299-4.921A4.459 4.459 0 0 1 10.5 32 4.5 4.5 0 0 1 6 27.5c0-.604.123-1.178.339-1.704A4.98 4.98 0 0 1 5 26a5 5 0 0 1-5-5 5 5 0 0 1 5-5h23a8 8 0 1 1 0 16" fill="#e1e8ed"/><path d="M10.999 11.04l-.113 3.42-2.87-1.708a1.965 1.965 0 0 1-1.036-1.799A2.033 2.033 0 0 1 9.056 9c1.11.023 1.98.936 1.943 2.04M8.999 3.04l-.113 3.42-2.87-1.708A1.965 1.965 0 0 1 4.98 2.953 2.033 2.033 0 0 1 7.056 1c1.11.023 1.98.936 1.943 2.04M4.02 8.58L3.907 12l-2.87-1.708A1.965 1.965 0 0 1 .001 8.493 2.033 2.033 0 0 1 2.077 6.54c1.11.023 1.98.936 1.943 2.04M29.02 11.04l-.113 3.42-2.87-1.708a1.964 1.964 0 0 1-1.035-1.799A2.033 2.033 0 0 1 27.078 9a1.974 1.974 0 0 1 1.942 2.04M27.02 2.04l-.113 3.42-2.87-1.708a1.964 1.964 0 0 1-1.035-1.799A2.033 2.033 0 0 1 25.078 0a1.974 1.974 0 0 1 1.942 2.04M33.02 6.04l-.114 3.42-2.868-1.708a1.964 1.964 0 0 1-1.036-1.799A2.033 2.033 0 0 1 31.078 4a1.974 1.974 0 0 1 1.942 2.04" fill="#5dadec"/></g></svg>