<svg xmlns="http://www.w3.org/2000/svg" viewBox="0 0 45 45"><defs><clipPath id="a"><path d="M0 36h36V0H0v36z"/></clipPath></defs><g clip-path="url(#a)" transform="matrix(1.25 0 0 -1.25 0 45)"><path d="M36 4a4 4 0 0 0-4-4H4a4 4 0 0 0-4 4v28a4 4 0 0 0 4 4h28a4 4 0 0 0 4-4V4z" fill="#9266cc"/><path d="M18 5.5c-5.526 0-8 4.27-8 8.5v15a1.5 1.5 0 1 0 3 0V14c0-1.29.36-5.5 5-5.5s5 4.21 5 5.5v15a1.5 1.5 0 1 0 3 0V14c0-4.23-2.474-8.5-8-8.5" fill="#fff"/><path d="M4 14.5a1.502 1.502 0 0 0-1.061 2.561c.525.524.987 1.018 1.415 1.475C6.428 20.751 8.066 22.5 12 22.5c2.43 0 4.649-1.387 6.795-2.728C20.664 18.604 22.431 17.5 24 17.5c2.633 0 3.518.945 5.457 3.015.447.479.933.996 1.482 1.546a1.502 1.502 0 0 0 2.122 0 1.502 1.502 0 0 0 0-2.122c-.525-.524-.987-1.018-1.415-1.475C29.572 16.249 27.934 14.5 24 14.5c-2.431 0-4.649 1.387-6.795 2.728C15.335 18.396 13.57 19.5 12 19.5c-2.633 0-3.518-.945-5.457-3.015-.448-.478-.932-.996-1.482-1.546A1.495 1.495 0 0 0 4 14.5" fill="#fff"/></g></svg>