<svg xmlns="http://www.w3.org/2000/svg" viewBox="0 0 45 45"><defs><clipPath id="a"><path d="M0 36h36V0H0v36z"/></clipPath></defs><g clip-path="url(#a)" transform="matrix(1.25 0 0 -1.25 0 45)"><path d="M29.186 2.72c1.166-1.165 3.02-1.22 4.12-.12s1.046 2.955-.12 4.12L9.92 29.988c-1.167 1.166-3.02 1.22-4.12.12s-1.047-2.954.12-4.12L29.186 2.72z" fill="#f4900c"/><path d="M3.415 28.343a2 2 0 0 0 0 2.829l1.414 1.414a2 2 0 0 0 2.828-2.829l-1.414-1.414a2.001 2.001 0 0 0-2.828 0" fill="#f4900c"/><path d="M23 35c-1.857.743-11.001 3-18-4-7-7-4.743-16.143-4-18 2-5 1.671 1.064 2 3 1.015 5.971 3.822 9.178 5.822 11.178S14.051 31.971 20 33c1.921.332 8 0 3 2" fill="#66757f"/></g></svg>