<svg xmlns="http://www.w3.org/2000/svg" viewBox="0 0 45 45"><defs><clipPath id="a"><path d="M0 36h36V0H0v36z"/></clipPath></defs><g clip-path="url(#a)" transform="matrix(1.25 0 0 -1.25 0 45)"><path d="M18 5C11.896 5 7 9.858 7 14H5C5 8.754 10.268 3 18 3s13 5.754 13 11h-2c0-4.142-4.895-9-11-9" fill="#d99e82"/><path d="M22 3.917A1.917 1.917 0 0 0 20.083 2h-4.166A1.917 1.917 0 0 0 14 3.917v.166C14 5.142 14.858 6 15.917 6h4.166A1.917 1.917 0 0 0 22 4.083v-.166z" fill="#c1694f"/><path d="M7 14H5v5h2v-5zM29 19h2v-5h-2v5z" fill="#d99e82"/><path d="M2 19c0 2.762 6.611 5 16 5s16-2.238 16-5c0-2.76-6.611-6-16-6S2 16.24 2 19" fill="#ea596e"/><path d="M3 20c0 7 6.198 14 15 14s15-7 15-14c0-1-6.198-4-15-4S3 19 3 20" fill="#dd2e44"/><path d="M25 17a1 1 0 0 0-1 1.001c0 7.728-1.93 13.625-1.949 13.684a1 1 0 0 0 1.897.632c.08-.24 1.876-5.711 2.04-13.223 1.139.161 3.165.601 5.565 1.801a1 1 0 0 0 .894-1.789C28.284 17.024 25.132 17 25 17M11 17c-.132 0-3.284.024-7.447 2.106a1 1 0 0 0 .894 1.789c2.399-1.2 4.425-1.64 5.565-1.801.164 7.512 1.959 12.983 2.039 13.223a1 1 0 0 0 1.898-.632C13.929 31.626 12 25.729 12 18.001A1 1 0 0 0 11 17" fill="#a0041e"/><path d="M21 24h-2v2a1 1 0 0 1-2 0v-2h-2a1 1 0 0 1 0-2h2v-2a1 1 0 0 1 2 0v2h2a1 1 0 1 1 0 2" fill="#fff"/></g></svg>