<svg xmlns="http://www.w3.org/2000/svg" viewBox="0 0 45 45"><defs><clipPath id="a"><path d="M0 36h36V0H0v36z"/></clipPath><clipPath id="b"><path d="M3 29v-4a6 6 0 1 1 12 0v4a6 6 0 1 1-12 0m3-4v4a3 3 0 0 0 6 0v-4a3 3 0 1 0-6 0"/></clipPath><clipPath id="c"><path d="M0 36h36V0H0v36z"/></clipPath><clipPath id="d"><path d="M3 11V7a6 6 0 1 1 12 0v4a6 6 0 1 1-12 0m3-4v4a3 3 0 0 0 6 0V7a3 3 0 1 0-6 0"/></clipPath><clipPath id="e"><path d="M0 36h36V0H0v36z"/></clipPath><clipPath id="f"><path d="M3 29v-4a6 6 0 1 1 12 0v4a6 6 0 1 1-12 0m3-4v4a3 3 0 0 0 6 0v-4a3 3 0 1 0-6 0"/></clipPath><clipPath id="g"><path d="M0 36h36V0H0v36z"/></clipPath><clipPath id="h"><path d="M7 6V0h4v6a2 2 0 0 1-4 0"/></clipPath><clipPath id="i"><path d="M0 36h36V0H0v36z"/></clipPath><clipPath id="j"><path d="M7 36v-6a2 2 0 0 1 4 0v6H7z"/></clipPath><clipPath id="k"><path d="M0 36h36V0H0v36z"/></clipPath><clipPath id="l"><path d="M21 20v-4a6 6 0 1 1 12 0v4a6 6 0 1 1-12 0m3-4v4a3 3 0 0 0 6 0v-4a3 3 0 1 0-6 0"/></clipPath><clipPath id="m"><path d="M0 36h36V0H0v36z"/></clipPath><clipPath id="n"><path d="M30 36v-2a3 3 0 1 0-6 0v2h-3v-2a6 6 0 1 1 12 0v2h-3z"/></clipPath><clipPath id="o"><path d="M0 36h36V0H0v36z"/></clipPath><clipPath id="p"><path d="M21 2V0h3v2a3 3 0 1 0 6 0V0h3v2a6 6 0 1 1-12 0"/></clipPath><clipPath id="q"><path d="M0 36h36V0H0v36z"/></clipPath><clipPath id="r"><path d="M25 15V3a2 2 0 0 1 4 0v12a2 2 0 0 1-4 0"/></clipPath><clipPath id="s"><path d="M0 36h36V0H0v36z"/></clipPath><clipPath id="t"><path d="M7.125 24V12a2 2 0 0 1 4 0v12a2 2 0 0 1-4 0"/></clipPath><clipPath id="u"><path d="M0 36h36V0H0v36z"/></clipPath><clipPath id="v"><path d="M25 33V21a2 2 0 0 1 4 0v12a2 2 0 0 1-4 0"/></clipPath></defs><g clip-path="url(#a)" transform="matrix(1.25 0 0 -1.25 0 45)"><path d="M12 25a3 3 0 0 0-6 0v4a3 3 0 0 0 6 0v-4zM9 35a6 6 0 0 1-6-6v-4a6 6 0 0 1 12 0v4a6 6 0 0 1-6 6" fill="#c6d5db"/></g><g clip-path="url(#b)" transform="matrix(1.25 0 0 -1.25 0 45)"><path d="M9 18H1v17h8V18z" fill="#e1e8ed"/><path d="M13 24.5a3.5 3.5 0 1 0-7 0v5a3.5 3.5 0 1 0 7 0v-5z" fill="#e1e8ed"/><path d="M11 24.5c0-1.933-1.344-3.5-3-3.5s-3 1.567-3 3.5v5C5 31.433 6.344 33 8 33s3-1.567 3-3.5v-5z" fill="#c6d5db"/><path d="M12 29H9v5h3v-5z" fill="#c6d5db"/><path d="M12 29H9v5h3v-5z" fill="#c6d5db"/></g><g clip-path="url(#c)" transform="matrix(1.25 0 0 -1.25 0 45)"><path d="M12 7a3 3 0 0 0-6 0v4a3.001 3.001 0 0 0 6 0V7zM9 17a6 6 0 0 1-6-6V7a6 6 0 0 1 12 0v4a6 6 0 0 1-6 6" fill="#c6d5db"/></g><g clip-path="url(#d)" transform="matrix(1.25 0 0 -1.25 0 45)"><path d="M9 0H1v17h8V0z" fill="#e1e8ed"/><path d="M13 6.5a3.5 3.5 0 1 0-7 0v5a3.5 3.5 0 1 0 7 0v-5z" fill="#e1e8ed"/><path d="M11 6.5C11 4.567 9.656 3 8 3S5 4.567 5 6.5v5C5 13.434 6.344 15 8 15s3-1.566 3-3.5v-5z" fill="#c6d5db"/><path d="M12 11H9v5h3v-5z" fill="#c6d5db"/><path d="M12 11H9v5h3v-5z" fill="#c6d5db"/></g><g clip-path="url(#e)" transform="matrix(1.25 0 0 -1.25 0 45)"><path d="M12 25a3 3 0 0 0-6 0v4a3 3 0 0 0 6 0v-4zM9 35a6 6 0 0 1-6-6v-4a6 6 0 0 1 12 0v4a6 6 0 0 1-6 6" fill="#c6d5db"/></g><g clip-path="url(#f)" transform="matrix(1.25 0 0 -1.25 0 45)"><path d="M9 18H1v17h8V18z" fill="#e1e8ed"/><path d="M13 24.5a3.5 3.5 0 1 0-7 0v5a3.5 3.5 0 1 0 7 0v-5z" fill="#e1e8ed"/><path d="M11 24.5c0-1.933-1.344-3.5-3-3.5s-3 1.567-3 3.5v5C5 31.433 6.344 33 8 33s3-1.567 3-3.5v-5z" fill="#c6d5db"/><path d="M12 29H9v5h3v-5z" fill="#c6d5db"/><path d="M12 29H9v5h3v-5z" fill="#c6d5db"/></g><g clip-path="url(#g)" transform="matrix(1.25 0 0 -1.25 0 45)"><path d="M7 0v6a2 2 0 0 0 4 0V0H7z" fill="#c6d5db"/></g><g clip-path="url(#h)" transform="matrix(1.25 0 0 -1.25 0 45)"><path d="M5.875 10H9V-9H5.875v19z" fill="#edf1f4"/></g><g clip-path="url(#i)" transform="matrix(1.25 0 0 -1.25 0 45)"><path d="M7 36v-6a2 2 0 0 1 4 0v6H7z" fill="#c6d5db"/></g><g clip-path="url(#j)" transform="matrix(1.25 0 0 -1.25 0 45)"><path d="M5.875 26H9v19H5.875V26z" fill="#edf1f4"/></g><g clip-path="url(#k)" transform="matrix(1.25 0 0 -1.25 0 45)"><path d="M30 16a3 3 0 0 0-6 0v4a3 3 0 0 0 6 0v-4zm-3 10a6 6 0 0 1-6-6v-4a6 6 0 0 1 12 0v4a6 6 0 0 1-6 6" fill="#c6d5db"/></g><g clip-path="url(#l)" transform="matrix(1.25 0 0 -1.25 0 45)"><path d="M27 9h-8v17h8V9z" fill="#e1e8ed"/><path d="M31 15.5a3.5 3.5 0 1 0-7 0v5a3.5 3.5 0 1 0 7 0v-5z" fill="#e1e8ed"/><path d="M29 15.5c0-1.933-1.344-3.5-3-3.5s-3 1.567-3 3.5v5c0 1.933 1.344 3.5 3 3.5s3-1.567 3-3.5v-5z" fill="#c6d5db"/><path d="M30 20h-3v5h3v-5z" fill="#c6d5db"/><path d="M30 20h-3v5h3v-5z" fill="#c6d5db"/></g><g clip-path="url(#m)" transform="matrix(1.25 0 0 -1.25 0 45)"><path d="M30 36v-2a3 3 0 0 0-6 0v2h-3v-2a6 6 0 0 1 12 0v2h-3z" fill="#c6d5db"/></g><g clip-path="url(#n)" transform="matrix(1.25 0 0 -1.25 0 45)"><path d="M27 27h-7.042v10H27V27z" fill="#e1e8ed"/><path d="M29 33.5c0-1.933-1.344-3.5-3-3.5s-3 1.567-3 3.5v5c0 1.933 1.344 3.5 3 3.5s3-1.567 3-3.5v-5z" fill="#c6d5db"/><path d="M27.5 42c-.171 0-.335-.027-.5-.05v-11.9c.165-.024.329-.05.5-.05a3.5 3.5 0 0 1 3.5 3.5v5a3.5 3.5 0 0 1-3.5 3.5" fill="#e1e8ed"/></g><g clip-path="url(#o)" transform="matrix(1.25 0 0 -1.25 0 45)"><path d="M30 0v2a3 3 0 0 1-6 0V0h-3v2a6 6 0 0 0 12 0V0h-3z" fill="#c6d5db"/></g><g clip-path="url(#p)" transform="matrix(1.25 0 0 -1.25 0 45)"><path d="M27 9h-7.042V-1H27V9z" fill="#e1e8ed"/><path d="M29 2.5C29 4.433 27.656 6 26 6s-3-1.567-3-3.5v-5C23-4.434 24.344-6 26-6s3 1.566 3 3.5v5z" fill="#c6d5db"/><path d="M27.5-6c-.171 0-.335.027-.5.051V5.949c.165.025.329.051.5.051A3.5 3.5 0 0 0 31 2.5v-5A3.5 3.5 0 0 0 27.5-6" fill="#e1e8ed"/></g><g clip-path="url(#q)" transform="matrix(1.25 0 0 -1.25 0 45)"><path d="M29 3a2 2 0 0 0-4 0v12a2 2 0 0 0 4 0V3z" fill="#c6d5db"/></g><g clip-path="url(#r)" transform="matrix(1.25 0 0 -1.25 0 45)"><path d="M23.875 0H27v19h-3.125V0z" fill="#edf1f4"/></g><g clip-path="url(#s)" transform="matrix(1.25 0 0 -1.25 0 45)"><path d="M11.125 12a2 2 0 0 0-4 0v12a2 2 0 0 0 4 0V12z" fill="#c6d5db"/></g><g clip-path="url(#t)" transform="matrix(1.25 0 0 -1.25 0 45)"><path d="M6 9h3.125v19H6V9z" fill="#edf1f4"/></g><g clip-path="url(#u)" transform="matrix(1.25 0 0 -1.25 0 45)"><path d="M29 21a2 2 0 0 0-4 0v12a2 2 0 0 0 4 0V21z" fill="#c6d5db"/></g><g clip-path="url(#v)" transform="matrix(1.25 0 0 -1.25 0 45)"><path d="M23.875 18H27v19h-3.125V18z" fill="#edf1f4"/></g></svg>