<svg xmlns="http://www.w3.org/2000/svg" viewBox="0 0 45 45"><defs><clipPath id="a"><path d="M0 36h36V0H0v36z"/></clipPath></defs><g clip-path="url(#a)" transform="matrix(1.25 0 0 -1.25 0 45)"><path d="M9 27a2 2 0 0 1-4 0V3a2 2 0 0 1 4 0v24zM31 27a2 2 0 1 1-4 0V3a2 2 0 0 1 4 0v24z" fill="#dd2e44"/><path d="M36 20a2 2 0 0 0-2-2H2a2 2 0 0 0 0 4h32a2 2 0 0 0 2-2M35 29c0-1.104-.781-1.719-2-2 0 0-3-1-15-1S3 27 3 27c-1.266.266-2 .896-2 2a2 2 0 0 0 2 2h30a2 2 0 0 0 2-2" fill="#dd2e44"/><path d="M35.906 32c0-1.104-.659-1.797-1.908-2 0 0-4-1-15.999-1-11.998 0-15.997 1-15.997 1C.83 30.188.11 30.886.11 31.99c0 1.105-.21 3.01.893 3.01 0 0 4-2 16.997-2 13 0 16.998 2 16.998 2 1.104 0 .91-1.895.91-3" fill="#292f33"/><path d="M20 21a2 2 0 0 0-4 0v6a2 2 0 0 0 4 0v-6z" fill="#dd2e44"/><path d="M11 2a2 2 0 0 0-2-2H5a2 2 0 0 0 0 4h4a2 2 0 0 0 2-2M33 2a2 2 0 0 0-2-2h-4a2 2 0 0 0 0 4h4a2 2 0 0 0 2-2" fill="#292f33"/></g></svg>