<svg xmlns="http://www.w3.org/2000/svg" viewBox="0 0 45 45"><defs><clipPath id="a"><path d="M0 36h36V0H0v36z"/></clipPath></defs><g clip-path="url(#a)" transform="matrix(1.25 0 0 -1.25 0 45)"><path d="M20 34h-1v1a1 1 0 1 1-2 0v-1h-1a1 1 0 1 1 0-2h1v-6a1 1 0 1 1 2 0v6h1a1 1 0 1 1 0 2" fill="#bcbec0"/><path d="M18 27l-5.143-4H13v-9h10v9h.143L18 27z" fill="#ffd983"/><path d="M19.999 21A2 2 0 1 1 16 21v-7h4v7h-.001z" fill="#662113"/><path d="M17.999 18L4 10V1a1 1 0 0 1 1-1h26a1 1 0 0 1 1 1v9l-14.001 8z" fill="#ffd983"/><path d="M31.998 9a.988.988 0 0 0-.495.132l-13.504 7.717L4.495 9.132a1 1 0 1 0-.992 1.736l14 8a.998.998 0 0 0 .992 0l14-8A.998.998 0 0 0 31.998 9M22.999 22a1 1 0 0 0-.624.22l-4.376 3.5-4.374-3.5a1 1 0 0 0-1.25 1.562l4.999 4a1 1 0 0 0 1.249 0l5.002-4A1 1 0 0 0 22.999 22" fill="#dd2e44"/><path d="M12.999 5A2 2 0 1 1 9 5V0h4v5h-.001zM19.999 7A2 2 0 1 1 16 7V0h4v7h-.001zM26.999 5A2 2 0 1 1 23 5V0h4v5h-.001z" fill="#662113"/></g></svg>