<svg xmlns="http://www.w3.org/2000/svg" viewBox="0 0 45 45"><defs><clipPath id="a"><path d="M0 36h36V0H0v36z"/></clipPath></defs><g clip-path="url(#a)" transform="matrix(1.25 0 0 -1.25 0 45)"><path d="M34 5H2a2 2 0 0 1-2-2V0h36v3a2 2 0 0 1-2 2" fill="#ffac33"/><path d="M16.996 3.5a1.501 1.501 0 0 0-2.932.637l5.94 30.363a1.499 1.499 0 1 0 2.931-.637L16.996 3.5z" fill="#66757f"/><path d="M21.363 33.693c-8.905 1.933-17.359-2.188-18.882-9.205 0 0-.424-1.954.553-2.166.977-.212 3.356 1.318 3.356 1.318l24.431-5.303s1.53-2.38 2.508-2.591c.977-.212 1.401 1.742 1.401 1.742 1.524 7.017-4.462 14.272-13.367 16.205" fill="#dd2e44"/><path d="M21.363 33.693C14.617 35.157 7.913 30.656 6.39 23.64c0 0-.424-1.954 1.531-2.38 1.954-.423 5.31.895 5.31.895l10.75-2.333s2.507-2.59 4.462-3.015c1.954-.424 2.378 1.53 2.378 1.53 1.523 7.017-2.712 13.892-9.458 15.356" fill="#e1e8ed"/><path d="M21.363 33.693c-3.508.76-6.609-4.521-8.132-11.538 0 0 2.508-2.59 4.462-3.015l.977-.212c1.955-.424 5.31.894 5.31.894 1.524 7.017.892 13.109-2.617 13.87" fill="#dd2e44"/></g></svg>