<svg xmlns="http://www.w3.org/2000/svg" viewBox="0 0 45 45"><defs><clipPath id="a"><path d="M4 36a4 4 0 0 1-4-4V4a4 4 0 0 1 4-4h28a4 4 0 0 1 4 4v28a4 4 0 0 1-4 4H4z"/></clipPath><clipPath id="b"><path d="M0 36h36V0H0v36z"/></clipPath><clipPath id="c"><path d="M7 12c0-2.209 4.925-4 11-4s11 1.791 11 4-4.925 4-11 4-11-1.791-11-4"/></clipPath><clipPath id="d"><path d="M0 36h36V0H0v36z"/></clipPath></defs><g clip-path="url(#a)" transform="matrix(1.25 0 0 -1.25 0 45)"><path d="M36-2H-2v38h38V-2z" fill="#269"/><path d="M38 14H-1V-3h39v17z" fill="#5c913b"/></g><g clip-path="url(#b)" transform="matrix(1.25 0 0 -1.25 0 45)"><path d="M31 7c0-2.762-5.82-5-13-5S5 4.238 5 7s5.82 5 13 5 13-2.238 13-5" fill="#99aab5"/><path d="M31 12H5V7h26v5z" fill="#99aab5"/><path d="M31 12c0-2.762-5.82-5-13-5S5 9.238 5 12s5.82 5 13 5 13-2.238 13-5" fill="#fff"/><path d="M29 12c0-2.209-4.925-4-11-4S7 9.791 7 12s4.925 4 11 4 11-1.791 11-4" fill="#ccd6dd"/></g><g clip-path="url(#c)" transform="matrix(1.25 0 0 -1.25 0 45)"><path d="M29 10c0-2.209-4.925-4-11-4S7 7.791 7 10s4.925 4 11 4 11-1.791 11-4" fill="#3b88c3"/></g><g clip-path="url(#d)" transform="matrix(1.25 0 0 -1.25 0 45)"><path d="M21 10c0-.553-1.343-1-3-1s-3 .447-3 1c0 .553 1.343 1 3 1s3-.447 3-1" fill="#99aab5"/><path d="M21 12h-6v-2h6v2z" fill="#99aab5"/><path d="M21 12c0-.553-1.343-1-3-1s-3 .447-3 1c0 .553 1.343 1 3 1s3-.447 3-1" fill="#ccd6dd"/><path d="M22.5 30.5c-1.623 0-2.799-.501-3.638-1.228C18.431 31.366 16.889 34 13 34c-4.746 0-6-3.925-6-6v-2a1 1 0 0 1 2 0v2c0 .163.045 4 4 4 3.853 0 3.997-3.595 4-4v-2.176c-.647.415-1.472.676-2.5.676-3.302 0-4.5-2.691-4.5-4.5v-1a1 1 0 0 1 2 0v.994c.005.418.152 2.506 2.5 2.506s2.495-2.088 2.5-2.5v-9a1 1 0 1 1 2 0v7c0 .334.097 2 2 2 1.826 0 1.992-1.537 2-2v-1a1 1 0 1 1 2 0v1c0 1.608-1.065 4-4 4-.807 0-1.459-.191-2-.486V25c0 .358.099 3.5 3.5 3.5 3.367 0 3.496-3.146 3.5-3.5v-2a1 1 0 1 1 2 0v2c0 1.902-1.149 5.5-5.5 5.5" fill="#55acee"/></g></svg>