<svg xmlns="http://www.w3.org/2000/svg" viewBox="0 0 45 45"><defs><clipPath id="a"><path d="M0 36h36V0H0v36z"/></clipPath><clipPath id="b"><path d="M.193 4C.193 2 2 0 4 0h28c2 0 3.731 2 3.731 4 0 4.356-4.634 11-17.731 11C4.508 15 .193 8.541.193 4"/></clipPath><clipPath id="c"><path d="M0 36h36V0H0v36z"/></clipPath></defs><g clip-path="url(#a)" transform="matrix(1.25 0 0 -1.25 0 45)"><path d="M4 0h28c2 0 3.73 2 3.73 4 0 4.355-4.633 11-17.73 11C4.508 15 .193 8.541.193 4 .193 2 2 0 4 0" fill="#77b255"/></g><g clip-path="url(#b)" transform="matrix(1.25 0 0 -1.25 0 45)"><path d="M11.291 6.5c1.125 3.75 9.751 7.666 14.333 7.625 5-.045 2.625-.792 1.625-.792s-11.79-2.625-14-7.5c-1 0-1.958.667-1.958.667" fill="#5c913b"/></g><g clip-path="url(#c)" transform="matrix(1.25 0 0 -1.25 0 45)"><path d="M19 5.5C19 4.119 16.09 3 12.5 3S6 4.119 6 5.5 8.91 8 12.5 8 19 6.881 19 5.5" fill="#292f33"/><path d="M10 32V6c0-.553.448-.844 1-.844s1 .291 1 .844v26h-2z" fill="#ffac33"/><path d="M10 33c0 2.2 1.695 3.395 3.767 2.655l9.466-3.381c2.072-.74 2.072-1.951 0-2.691l-9.466-3.381c-2.072-.74-3.767.455-3.767 2.655V33z" fill="#dd2e44"/></g></svg>