<svg xmlns="http://www.w3.org/2000/svg" viewBox="0 0 45 45"><defs><clipPath id="a"><path d="M0 36h36V0H0v36z"/></clipPath></defs><g clip-path="url(#a)" transform="matrix(1.25 0 0 -1.25 0 45)"><path d="M20 24.5c0-.829-.224-1.5-.5-1.5s-.5.671-.5 1.5.224 1.5.5 1.5.5-.671.5-1.5M26 24.5c0-.829-.224-1.5-.5-1.5s-.5.671-.5 1.5.224 1.5.5 1.5.5-.671.5-1.5" fill="#ea596e"/><path d="M22 24.5c0-.829-.224-1.5-.5-1.5s-.5.671-.5 1.5.224 1.5.5 1.5.5-.671.5-1.5M19 24.5c0-.829-.224-1.5-.5-1.5s-.5.671-.5 1.5.224 1.5.5 1.5.5-.671.5-1.5" fill="#a6d388"/><path d="M23 24.5c0-.829-.224-1.5-.5-1.5s-.5.671-.5 1.5.224 1.5.5 1.5.5-.671.5-1.5M27 24.5c0-.829-.224-1.5-.5-1.5s-.5.671-.5 1.5.224 1.5.5 1.5.5-.671.5-1.5M31 19.5c0-.829-.224-1.5-.5-1.5s-.5.671-.5 1.5.224 1.5.5 1.5.5-.671.5-1.5M4 19.5c0-.829-.224-1.5-.5-1.5s-.5.671-.5 1.5.224 1.5.5 1.5.5-.671.5-1.5" fill="#55acee"/><path d="M33 19.5c0-.829-.224-1.5-.5-1.5s-.5.671-.5 1.5.224 1.5.5 1.5.5-.671.5-1.5M7 19.5c0-.829-.224-1.5-.5-1.5s-.5.671-.5 1.5.224 1.5.5 1.5.5-.671.5-1.5" fill="#a6d388"/><path d="M34 19.5c0-.829-.224-1.5-.5-1.5s-.5.671-.5 1.5.224 1.5.5 1.5.5-.671.5-1.5M6 19.5c0-.829-.224-1.5-.5-1.5s-.5.671-.5 1.5.224 1.5.5 1.5.5-.671.5-1.5M24 23.5c0-.829-.224-1.5-.5-1.5s-.5.671-.5 1.5.224 1.5.5 1.5.5-.671.5-1.5" fill="#f4900c"/><path d="M29 19.5v2a.5.5 0 0 0 .5.5h1.9l-.4 2H7l-.4-2h.9a.5.5 0 0 0 .5-.5v-2a.5.5 0 0 0-.5-.5h21c-.276 0 .5.224.5.5" fill="#ccd6dd"/><path d="M14 19.5a.5.5 0 0 0-.5-.5h-4a.5.5 0 0 0-.5.5v2a.5.5 0 0 0 .5.5h4a.5.5 0 0 0 .5-.5v-2zM21 19.5a.5.5 0 0 0-.5-.5h-4a.5.5 0 0 0-.5.5v2a.5.5 0 0 0 .5.5h4a.5.5 0 0 0 .5-.5v-2zM28 19.5a.5.5 0 0 0-.5-.5h-4a.5.5 0 0 0-.5.5v2a.5.5 0 0 0 .5.5h4a.5.5 0 0 0 .5-.5v-2z" fill="#66757f"/><path d="M33.402 11.292S35 16 35 20H1c1-2 2.8-5.557 4.24-6.878 5.004-4.592 28.162-1.83 28.162-1.83" fill="#ccd6dd"/><path d="M3.762 15c.504-.771 1.01-1.448 1.478-1.878 5.004-4.592 28.162-1.83 28.162-1.83s.538 1.593.99 3.708H3.762z" fill="#dd2e44"/><path d="M8 16.5a.5.5 0 0 0-.5-.5h-1a.5.5 0 0 0-.5.5v1a.5.5 0 0 0 .5.5h1a.5.5 0 0 0 .5-.5v-1zM12 16.5a.5.5 0 0 0-.5-.5h-1a.5.5 0 0 0-.5.5v1a.5.5 0 0 0 .5.5h1a.5.5 0 0 0 .5-.5v-1zM16 16.5a.5.5 0 0 0-.5-.5h-1a.5.5 0 0 0-.5.5v1a.5.5 0 0 0 .5.5h1a.5.5 0 0 0 .5-.5v-1zM20 16.5a.5.5 0 0 0-.5-.5h-1a.5.5 0 0 0-.5.5v1a.5.5 0 0 0 .5.5h1a.5.5 0 0 0 .5-.5v-1zM24 16.5a.5.5 0 0 0-.5-.5h-1a.5.5 0 0 0-.5.5v1a.5.5 0 0 0 .5.5h1a.5.5 0 0 0 .5-.5v-1zM28 16.5a.5.5 0 0 0-.5-.5h-1a.5.5 0 0 0-.5.5v1a.5.5 0 0 0 .5.5h1a.5.5 0 0 0 .5-.5v-1zM32 16.5a.5.5 0 0 0-.5-.5h-1a.5.5 0 0 0-.5.5v1a.5.5 0 0 0 .5.5h1a.5.5 0 0 0 .5-.5v-1z" fill="#66757f"/><path d="M15 23l-8.4-1 .9 6.208H15V23z" fill="#ccd6dd"/><path d="M14 28.5a.5.5 0 0 0-1 0v4a.5.5 0 0 0 1 0v-4zM12 26.5a.5.5 0 0 0-1 0v4a.5.5 0 0 0 1 0v-4z" fill="#ccd6dd"/><path d="M15.5 28.25c0-.138-.224-.25-.5-.25H7.5c-.276 0-.5.112-.5.25v.5c0 .138.224.25.5.25H15c.276 0 .5-.112.5-.25v-.5z" fill="#269"/><path d="M13.5 27H7.35l-.3-2h6.45a.5.5 0 0 1 .5.5v1a.5.5 0 0 1-.5.5" fill="#66757f"/><path d="M12 24h-1v4h1v-4z" fill="#ccd6dd"/><path d="M36 12H0V0h36v12z" fill="#55acee"/></g></svg>