<svg xmlns="http://www.w3.org/2000/svg" viewBox="0 0 45 45"><defs><clipPath id="a"><path d="M0 36h36V0H0v36z"/></clipPath></defs><g clip-path="url(#a)" transform="matrix(1.25 0 0 -1.25 0 45)"><path d="M20 10a1 1 0 1 0-2 0v25a1 1 0 0 0 2 0V10z" fill="#a7a9ac"/><path d="M3 12h31V4H12c-6 0-9 8-9 8" fill="#d1d3d4"/><path d="M36 6H0V0h36v6z" fill="#55acee"/><path d="M5 14s2 5 5 9 8 8 8 8-1-11-1-16v-1s-3 1-6 1-6-1-6-1" fill="#ffac33"/><path d="M20 34s6-6 9-11c2.771-4.618 4-9 4-9s-3 1-6 1-6-1-6-1v1c0 9-1 19-1 19" fill="#f4900c"/><path d="M2 12a1 1 0 1 1 0-2h33v2H2z" fill="#e6e7e8"/></g></svg>