<svg xmlns="http://www.w3.org/2000/svg" viewBox="0 0 45 45"><defs><clipPath id="a"><path d="M0 36h36V0H0v36z"/></clipPath></defs><g clip-path="url(#a)" transform="matrix(1.25 0 0 -1.25 0 45)"><path d="M36 22.938V4s0-4-4-4H4C0 0 0 4 0 4v4.937s17 10 36 14" fill="#e1e8ed"/><path d="M14.751 11.54c.167-.177.14-.473-.062-.662-.201-.189-.499-.2-.666-.023l-6.647 7.052c-.167.177-.139.474.062.664.202.189.499.199.666.022l6.647-7.053z" fill="#66757f"/><path d="M26.813 18.191c.435-.516.086-1.3-.777-1.756L6.57 6.216c-1.812-.876-4.896.04-5.27.79-.417.832 1.192 1.111 2.056 1.564L23.68 19.24c.864.452 1.914.401 2.349-.114l.785-.935zM31.825 13.656c.435-.516.086-1.3-.777-1.756L11.583 1.681c-1.812-.876-4.896.04-5.27.79-.417.832 1.192 1.111 2.056 1.564l20.322 10.67c.864.453 1.914.4 2.35-.113l.784-.936z" fill="#ea596e"/><path d="M13.497 10.227c.273.041.543.143.787.311l2.151 1.19c1.08.562.68 1.911.614 2.358l-.62 2.793 2.563 3.3c.627.804.481 3.3-.324 3.926a1.844 1.844 0 0 1-2.589-.325l-3.05-3.922a1.844 1.844 0 0 1-.368-1.406l.633-4.218-1.117-.664a1.845 1.845 0 0 1 1.32-3.342" fill="#553788"/><path d="M19.594 6.219c.264.083 2.75 1.562 2.75 1.562.865.688.323 2.445.168 2.87l-1.438 3.922 1.85 3.746a1.845 1.845 0 1 1-3.31 1.633l-2.2-4.455a1.852 1.852 0 0 1-.077-1.452l1.469-4.005-1.004-.78a1.845 1.845 0 0 1-.037-2.608c.505-.518 1.183-.64 1.829-.433" fill="#553788"/><path d="M9.639 16.604c3.667 1.292 5.389 6.467 5.573 7.052a2 2 0 0 1-3.814 1.204c-.507-1.588-1.801-4.03-3.088-4.483a2 2 0 0 1 1.329-3.773" fill="#ffac33"/><path d="M34.844 14.674a.498.498 0 0 0 .129-.693.496.496 0 0 0-.694-.13l-9.062 6.237a.5.5 0 1 0 .566.824l9.06-6.238z" fill="#66757f"/><path d="M27.002 18.479a2 2 0 0 1 1.335 1.921c-.058 3.346-1.616 5.92-4.392 7.249-1.964.941-3.863.937-4.073.934a2 2 0 1 1 .057-4c1.019.001 4.342-.301 4.409-4.251a2 2 0 0 1 2.664-1.853" fill="#ffac33"/><path d="M15.132 19.069a3.5 3.5 0 0 1 6.602 2.326l-1.33 3.773a3.499 3.499 0 1 1-6.602-2.327l1.33-3.772z" fill="#553788"/><path d="M11.418 23.591a2.002 2.002 0 0 1 2.55-1.222l6.603 2.327a2 2 0 1 1-1.33 3.773l-6.601-2.327a2 2 0 0 1-1.222-2.55" fill="#ffac33"/><path d="M17 18c-2.614.366-3.175 1.493-3.244 1.689l-1.15 3.261c-.83 2.358 1.724 3.258 3.414 3.854 1.69.595 3.61.073 5.075-.863 2.822-1.804 2.346-6.303 2.346-6.303.005-.343-.075-.859-.17-.992-.061-.084-2.188-1.218-6.271-.646" fill="#ffac33"/><path d="M29.996 32.063l-1.119 2.652a.5.5 0 0 1-.487.286c-.129-.005-3.21-.173-7.169-3.111-3.748-2.78-4.635-2.82-6.578-2.907l-2.997-.133a.526.526 0 0 1-.347-.148c-.506-.498-.614-1.17-.29-1.799.41-.795 1.622-1.612 3.795-1.516 1.437.064 3.482 1.197 5.85 2.507 2.91 1.61 6.208 3.437 8.894 3.556a.516.516 0 0 1 .396.204.41.41 0 0 1 .052.409" fill="#553788"/><path d="M16.405 31.71a4 4 0 0 0-7.545-2.659c-.734 2.084.692 3.425 2.775 4.16 2.084.733 4.036.582 4.77-1.5" fill="#ffdc5d"/><path d="M10.361 29.581c1.886.665 3.441 2.272 3.773 1.33.332-.944.997-2.83 2.883-2.165 1.886.664.503 7.6-5.156 5.605-5.659-1.995-4.33-5.767-1.5-4.77" fill="#f4900c"/><path d="M11.47 29.441a1.5 1.5 0 1 0-2.829-.996 1.5 1.5 0 0 0 2.83.996" fill="#bdddf4"/><path d="M9.724 29.886A1 1 0 0 1 10.389 28a1 1 0 0 1-.665 1.886m.997-2.83a2.001 2.001 0 1 0 1.222 2.552 2.004 2.004 0 0 0-1.222-2.552" fill="#67757f"/><path d="M14.3 30.439a1.5 1.5 0 1 0-2.83-.997 1.5 1.5 0 0 0 2.83.997" fill="#bdddf4"/><path d="M12.553 30.883a1 1 0 0 1 .665-1.886 1 1 0 0 1-.665 1.886m.997-2.83a2.001 2.001 0 0 0-1.33 3.773 2.001 2.001 0 0 0 1.33-3.773" fill="#67757f"/></g></svg>