<svg xmlns="http://www.w3.org/2000/svg" viewBox="0 0 45 45"><defs><clipPath id="a"><path d="M0 36h36V0H0v36z"/></clipPath></defs><g clip-path="url(#a)" transform="matrix(1.25 0 0 -1.25 0 45)"><path d="M26 3c2-2-11-2-9 0 3 0 3 3 3 3h3s0-3 3-3M12 3c2-2-11-2-9 0 3 0 3 3 3 3h3s0-3 3-3" fill="#99aab5"/><path d="M30 0H2C.896 0-.104 3 1 3h28c3 0 3 3 4 4 5-3 2-7-3-7" fill="#99aab5"/><path d="M1 8c0 9 2 14 2 21 0 2.279 13 2 13 0s-1.5-10 5-13c6.268-2.893 15-2 15-8H1z" fill="#e6e7e8"/><path d="M36 8C12 8 16.999 9 11 9H1V8a2 2 0 0 1 2-2h8c2.333 0 .398 2.041 3 1 5-2 20-1 20-1a2 2 0 0 1 2 2" fill="#e6e7e8"/><path d="M16.313 15.25a1 1 0 0 0-.72 1.694l1.688 1.75a1 1 0 0 0 1.439-1.388l-1.687-1.75a.997.997 0 0 0-.72-.306M19.999 13a1 1 0 0 0-.894 1.447l1 2a1 1 0 1 0 1.789-.894l-1-2a.998.998 0 0 0-.895-.553M24.001 12a1.001 1.001 0 0 0-.991 1.142l.209 1.458c.079.546.587.923 1.132.848.546-.079.926-.585.848-1.132l-.209-1.458a1 1 0 0 0-.989-.858" fill="#dd2e44"/></g></svg>