<svg xmlns="http://www.w3.org/2000/svg" viewBox="0 0 45 45"><defs><clipPath id="a"><path d="M0 36h36V0H0v36z"/></clipPath><clipPath id="b"><path d="M3 11.679a4 4 0 1 1 8 0 4 4 0 0 1-8 0"/></clipPath></defs><g clip-path="url(#a)" transform="matrix(1.25 0 0 -1.25 0 45)"><path d="M30.852 8.366c-.08 0-.163.01-.243.028l-7.476 1.668a1.08 1.08 0 0 0-.808.805l-1.216 5.066c-.07.283-.024.573.128.82s.39.421.673.487a1.08 1.08 0 0 0 1.307-.801l1.06-4.415 6.82-1.516a1.08 1.08 0 0 0 .676-.484 1.084 1.084 0 0 0-.921-1.658M11.318 31.526c-1.158-.564.52-2.167.44-3.483-.052-.91 1.721-.595 1.721-.595s1.16.564 1.425-1.455c.262-2.017 3.141-2.05 2.877-.03-.266 2.016-2.13 2.69-1.613 4.435 1.24 4.176-4.85 1.128-4.85 1.128" fill="#f3d2a2"/><path d="M27.516 20.686a1.045 1.045 0 0 0-1.043.342c-2.682 3.19-8.798 3.763-8.86 3.769a1.043 1.043 0 0 0 .18 2.076c.287-.024 7.035-.649 10.277-4.503a1.043 1.043 0 0 0-.554-1.684M17.47.7a1.086 1.086 0 0 0-1.135 1.03l-.448 8.575a1.09 1.09 0 0 0 .203.684l5.246 7.271a1.087 1.087 0 0 0 1.513.246 1.085 1.085 0 0 0 .246-1.513l-5.024-6.966.43-8.195a1.089 1.089 0 0 0-.98-1.13L17.47.7z" fill="#f3d2a2"/><path d="M15.28 11.575l5.246 7.271a2.084 2.084 0 0 0 3.38-2.439l-4.82-6.68s-4.082 1.466-3.806 1.848" fill="#2a6797"/><path d="M21.352 10.634L20.136 15.7a2.085 2.085 0 1 0 4.054.973l.915-3.814s-3.57-2.994-3.753-2.225" fill="#4289c1"/><path d="M19.405.014c-.439 3.125-1.773 2.082-3.954 2.078C13.27 2.089 11.502 1.044 11.503 0c.856.003 7.902.014 7.902.014M32.571 8.053l-.167 3.729c-3.103-.574-2.004-1.861-1.905-4.04.096-2.181 1.217-3.902 2.258-3.855l-.139 3.124-.047 1.042" fill="#2a6797"/><path d="M24.717 18.943s.486-2.027-1.54-2.513c-2.027-.486-4.297.04-4.297.04-3.486 5.595-6.243 8.15-2.808 11.025 2.664 2.23 6.416-3.728 8.645-8.552" fill="#a0041e"/><path d="M11.456 30.955c-1.292-.498-1.38.954-.764 1.772.867 1.155 3.366 1.697 4.664 1.06 1.298-.636 1.728-2.431.86-3.587-.613-.817-.652-2.054-1.082-.26-.43 1.794-1.083-.26-1.3.636-.214.898-2.378.379-2.378.379" fill="#b39155"/><path d="M17.259 32.158a4.169 4.169 0 1 0-8.107-1.945 4.169 4.169 0 0 0 8.107 1.945M15.148 24.68c-.033-.046-3.381-4.532-8.152-5.032l.002-.02a1.027 1.027 0 0 1-.932-.92 1.04 1.04 0 0 1 .94-1.133c.072-.006.136.013.204.022l.003-.021c5.678.594 9.456 5.655 9.614 5.87l-1.68 1.234z" fill="#f3d2a2"/><path d="M21.375 31.538c-1.083-.083-2.14-.092-4.208 1.976-1.375 1.375-2.603 2.213-5.334 1.842-2.898-.393-5.018-3.17-3-4.17.881-.436 1.53-.094 2.881-.295 2.121-.315 2.706-2.455 4.619-2.711 3.744-.5 6.125 3.44 5.042 3.358" fill="#ffe51e"/><path d="M11 11.68a4 4 0 1 0-8 0 4 4 0 0 0 8 0" fill="#ffac33"/></g><g clip-path="url(#b)" transform="matrix(1.25 0 0 -1.25 0 45)"><path d="M13.01 10.44c-.78-.781-2.997.169-4.95 2.12-1.952 1.953-2.902 4.17-2.12 4.95.78.781 2.996-.169 4.95-2.122 1.951-1.951 2.901-4.167 2.12-4.948zM8.06 5.49c-.78-.78-2.997.168-4.95 2.121C1.158 9.563.208 11.78.99 12.561c.78.781 2.996-.17 4.95-2.122C7.89 8.487 8.84 6.27 8.06 5.49z" fill="none" stroke="#c1694f" stroke-miterlimit="10"/><path d="M3.11 8.318l7.07 7.071.707-.707-7.07-7.07-.707.706z" fill="#c1694f"/></g></svg>