<svg xmlns="http://www.w3.org/2000/svg" viewBox="0 0 45 45"><defs><clipPath id="a"><path d="M4 36a4 4 0 0 1-4-4V4a4 4 0 0 1 4-4h28a4 4 0 0 1 4 4v28a4 4 0 0 1-4 4H4z"/></clipPath><clipPath id="b"><path d="M0 36h36V0H0v36z"/></clipPath></defs><g clip-path="url(#a)" transform="matrix(1.25 0 0 -1.25 0 45)"><path d="M36-2H-2v38h38V-2z" fill="#00557f"/><path d="M38 14H-1V-3h39v17z" fill="#3e721d"/></g><g clip-path="url(#b)" transform="matrix(1.25 0 0 -1.25 0 45)"><path d="M6.5 29A2.5 2.5 0 0 0 4 31.5c0 1.13.755 2.074 1.784 2.383A2.943 2.943 0 0 1 5 34a3 3 0 1 1 0-6c.959 0 1.803.458 2.353 1.159A2.493 2.493 0 0 0 6.5 29M11 33.5a.5.5 0 1 0-1 0 .5.5 0 0 0 1 0M27 24.5a.5.5 0 1 0-1 0 .5.5 0 0 0 1 0M8 24.5a.5.5 0 1 0-1 0 .5.5 0 0 0 1 0M23 31a1 1 0 1 0-2 0 1 1 0 0 0 2 0M5 19a1 1 0 1 0-2 0 1 1 0 0 0 2 0M13 29a1 1 0 1 0-2 0 1 1 0 0 0 2 0M33 19a1 1 0 1 0-2 0 1 1 0 0 0 2 0M22 23a1 1 0 1 0-2 0 1 1 0 0 0 2 0M27 30.5a.5.5 0 1 0-1 0 .5.5 0 0 0 1 0M17 25.5a.5.5 0 1 0-1 0 .5.5 0 0 0 1 0M13 22.5a.5.5 0 1 0-1 0 .5.5 0 0 0 1 0M32 33a1 1 0 1 0-2 0 1 1 0 0 0 2 0M32 28.5a.5.5 0 1 0-1 0 .5.5 0 0 0 1 0" fill="#fff"/><path d="M17 4a1 1 0 0 0-.942.664l-5 14A.999.999 0 0 0 12 20h12c.4 0 .762-.238.919-.606l6-14A1 1 0 0 0 30 4H17z" fill="#ffac33"/><path d="M6 4a1.001 1.001 0 0 0-.919 1.394l6 14a.999.999 0 0 0 1.838 0l6-14A1 1 0 0 0 18 4H6z" fill="#ffcc4d"/><path d="M12 19L10 4h4l-2 15z" fill="#292f33"/></g></svg>