<svg xmlns="http://www.w3.org/2000/svg" viewBox="0 0 45 45"><defs><clipPath id="a"><path d="M0 36h36V0H0v36z"/></clipPath></defs><g clip-path="url(#a)" transform="matrix(1.25 0 0 -1.25 0 45)"><path d="M29.87 13.052a27.632 27.632 0 0 0-1.105-1.458C27.78 10.354 27 9.373 27 8c0-2.48 1.632-3 3-3 .784 0 1.387.284 1.791.845.64.888.741 2.395.261 3.839-.328.978-1.15 2.202-2.182 3.368M30 3c-2.417 0-5 1.314-5 5 0 2.072 1.118 3.478 2.2 4.838.422.532.85 1.07 1.238 1.666C26.883 15.923 25.172 17 24 17v2c1.621 0 3.602-1.133 5.382-2.67.378.995.618 2.177.618 3.67h2c0-2.168-.448-3.816-1.077-5.15 1.445-1.541 2.591-3.23 3.025-4.533.69-2.067.483-4.228-.535-5.642C32.635 3.595 31.423 3 30 3" fill="#99aab5"/><path d="M21.252 26H9c-2.209 0-3.883-1.791-3.74-4L6.431 4c.143-2.209 1.775-4 3.644-4h10.102c1.869 0 3.501 1.791 3.644 4l1.171 18c.143 2.209-1.531 4-3.74 4" fill="#ffac33"/><path d="M26 3H4a1 1 0 0 1-1-1V0h24v2a1 1 0 0 1-1 1" fill="#aab8c2"/><path d="M31 26a1 1 0 0 0-1 1v3.236l2.105 4.211a1.001 1.001 0 0 0 1.79-.894L32 29.764V27a1 1 0 0 0-1-1" fill="#ffac33"/><path d="M33.5 20h-.777c.172.295.277.634.277 1v4c0 .738-.404 1.376-1 1.723V27a1 1 0 1 1-2 0v-.277c-.596-.347-1-.985-1-1.723v-4c0-.366.105-.705.277-1H28.5a.5.5 0 0 1 0-1h5a.5.5 0 0 1 0 1" fill="#be1931"/><path d="M25 22a1 1 0 0 1 1-1h5a1 1 0 1 1 0 2h-5a1 1 0 0 1-1-1" fill="#99aab5"/><path d="M27 22a4 4 0 0 0-4-4H7a4 4 0 0 0-4 4v10a4 4 0 0 0 4 4h16a4 4 0 0 0 4-4V22z" fill="#e1e8ed"/><path d="M25 22a2 2 0 0 0-2-2H7a2 2 0 0 0-2 2v10a2 2 0 0 0 2 2h16a2 2 0 0 0 2-2V22z" fill="#66757f"/><path d="M22 28h-9v3h9v-3z" fill="#aab8c2"/></g></svg>