<svg xmlns="http://www.w3.org/2000/svg" viewBox="0 0 45 45"><defs><clipPath id="a"><path d="M0 36h36V0H0v36z"/></clipPath></defs><g clip-path="url(#a)" transform="matrix(1.25 0 0 -1.25 0 45)"><path d="M30 12.172a.997.997 0 0 0-1.414 0l-1.414 1.414a.997.997 0 0 0 0 1.414L30 17.828a.999.999 0 0 0 1.414 0l1.414-1.414a.997.997 0 0 0 0-1.414L30 12.172zM15 27.172a.997.997 0 0 0-1.414 0l-1.414 1.414a.997.997 0 0 0 0 1.414L15 32.828a.999.999 0 0 0 1.414 0l1.414-1.414a.997.997 0 0 0 0-1.414L15 27.172z" fill="#66757f"/><path d="M2 14c2 0 11-1 11-1s1-9 1-11-2-2-3-1-4 6-4 6-5 3-6 4-1 3 1 3M4 29.961c3 .04 25-.96 25-.96s.924-22 .962-25C30 1 27.2-.003 26.1 3.998S21 21 21 21 7.043 25.416 3.993 26.102C0 27 1 29.922 4 29.962" fill="#55acee"/><path d="M27 33c2 2 7 3 8 2s0-6-2-8S14 9 14 9 7.5 4.5 6 6s3 8 3 8 16 17 18 19" fill="#ccd6dd"/><path d="M14 14s.5-.5-4-5-5-4-5-4-.5.5 4 5 5 4 5 4M29 32a3 3 0 0 0 3-3h.805c.114.315.195.645.195 1a3 3 0 0 1-3 3c-.355 0-.686-.081-1-.195V32z" fill="#66757f"/></g></svg>