<svg xmlns="http://www.w3.org/2000/svg" viewBox="0 0 45 45"><defs><clipPath id="a"><path d="M0 36h36V0H0v36z"/></clipPath></defs><g clip-path="url(#a)" transform="matrix(1.25 0 0 -1.25 0 45)"><path d="M31.5 26c-.98 0-1.864-.406-2.5-1.056v5.078a3.5 3.5 0 1 1-7 0v1.5c0 2.209-1.567 4-3.5 4s-3.5-1.791-3.5-4v-.5a3.5 3.5 0 1 1-7 0V25.5c0-.621.175-1.196.459-1.702A4.47 4.47 0 0 1 7 20.5a4.5 4.5 0 0 1 4.5-4.5h.58a7.002 7.002 0 0 1-.08-1 7 7 0 0 1 7-7h2a7 7 0 0 1 6.436 4.246A2.482 2.482 0 0 1 28.5 12a2.5 2.5 0 0 1 2.5 2.5v1.551c.165-.025.329-.051.5-.051a3.5 3.5 0 0 1 3.5 3.5v3a3.5 3.5 0 0 1-3.5 3.5" fill="#c68f6a"/><path d="M25 23.5a4.5 4.5 0 0 0-4.5-4.5h-13a4.5 4.5 0 0 0 0 9h13a4.5 4.5 0 0 0 4.5-4.5" fill="#c68f6a"/><path d="M35 19.219c-.891-.906-1.817-1.22-2.876-1.22h-.248c-1.474 0-2.738.832-3.392 2.044C27.807 18.83 26.526 18 25.038 18h-.076A3.911 3.911 0 0 0 22 19.366v.014a3.999 3.999 0 0 0-.48.695c-.04.073-.07.152-.106.227a3.825 3.825 0 0 0-.236.606c-.052.173-.107.344-.134.526a4.172 4.172 0 0 0-.46-.461c-.069-.06-.147-.107-.221-.162-.116-.086-.229-.176-.355-.25A3.904 3.904 0 0 0 18 20h-3.165c2.708-1.366 4.002-4.204 4.002-8.663a.5.5 0 1 0-1 0c0 6.049-2.336 8.63-7.811 8.63a.5.5 0 0 0-.165.033H9.5a.5.5 0 0 0 0 1H18a3 3 0 0 1 0 6H7c-1.312 0-3.25-.093-4.021-2.264L1.32 19.264c-.156-.512-.73-2.857-.627-3.346C.693 8.578 9.394.947 19.697.947 29.674.947 35 9.064 35 18.99v.229z" fill="#f3d2a2"/><path d="M35 21.864A2.864 2.864 0 0 0 32.136 19h-.272A2.864 2.864 0 0 0 29 21.864v6.272A2.864 2.864 0 0 0 31.864 31h.272A2.864 2.864 0 0 0 35 28.136v-6.272zM28 22a3 3 0 1 0-6 0v9a3 3 0 1 0 6 0v-9zM18 28a3.974 3.974 0 0 0 3-1.38V33a3 3 0 1 1-6 0v-5h3zM14 28v4.007A2.993 2.993 0 0 1 11.007 35h-.014A2.993 2.993 0 0 1 8 32.007V28h6z" fill="#f3d2a2"/></g></svg>