<svg xmlns="http://www.w3.org/2000/svg" viewBox="0 0 45 45"><defs><clipPath id="a"><path d="M0 36h36V0H0v36z"/></clipPath></defs><g clip-path="url(#a)" transform="matrix(1.25 0 0 -1.25 0 45)"><path d="M26 31.035a2.465 2.465 0 0 1-2.465 2.465h-.07A2.465 2.465 0 0 1 21 31.035v2.16a2.305 2.305 0 0 1-2.305 2.305h-.39A2.305 2.305 0 0 1 16 33.195V32a2.5 2.5 0 1 1-5 0v-9.347c0 1.02-.827 1.847-1.846 1.847h-.308A1.847 1.847 0 0 1 7 22.653v-9.806C7 11.827 7.827 11 8.846 11H9v-1h2.15a7.503 7.503 0 0 1 7.35-6c4.143 0 7.5 3.357 7.5 7.5v6c0 .217-.015.431-.032.643.013.106.032.211.032.322v12.57z" fill="#ef9645"/><path d="M30 28s0 2-2 2-2-2-2-2v-9.286a9.915 9.915 0 0 1-1 .398V32s0 2-2 2-2-2-2-2V19.878a28.55 28.55 0 0 1-1 .069V34s0 2-2 2-2-2-2-2V19.948c-.342-.017-.669-.052-1-.081V33s0 2-2 2-2-2-2-2V17c6 0 10-5 10-10 0-1-1-1-1-1 0 6-4 10-10 10v7s0 2-2 2-2-2-2-2V12C6 5.373 11.373 0 18 0s12 5.373 12 12v16z" fill="#ffdc5d"/></g></svg>