<svg xmlns="http://www.w3.org/2000/svg" viewBox="0 0 45 45"><defs><clipPath id="a"><path d="M0 36h36V0H0v36z"/></clipPath></defs><g clip-path="url(#a)" transform="matrix(1.25 0 0 -1.25 0 45)"><path d="M28 16a2 2 0 0 1-2-2v5.043a2.337 2.337 0 0 1-2.337 2.337h-.326A2.337 2.337 0 0 1 21 19.043v-1.776c-.026.015-.056.025-.082.039a2.939 2.939 0 0 1-1.291.634l.217 1.123-9.188-.25.563-3.313.823-.053c-.019-.136-.042-.273-.042-.416v-.062c0-.413.085-.807.238-1.164a5.778 5.778 0 0 1-.238-1.63v-2.35A5.825 5.825 0 0 1 17.826 4h.348a5.824 5.824 0 0 1 5.683 4.559A2.349 2.349 0 0 1 25.369 8h.262c1.183 0 2.156.87 2.332 2.004.013 0 .024-.004.037-.004a2 2 0 0 1 2 2v2a2 2 0 0 1-2 2" fill="#c68f6a"/><path d="M21.413 33.053c-1.956.416-2.372-1.54-2.372-1.54l-3.097-11.569a26.6 26.6 0 0 1-1.305-.107L12.58 30.35s-.189 1.991-2.18 1.804c-1.992-.188-1.804-2.179-1.804-2.179l2.342-12.662L19 18c.208 0 .411-.022.607-.062l3.346 12.743s.416 1.957-1.54 2.372" fill="#f3d2a2"/><path d="M22 14.42c0-1.89-1.53-3.42-3.419-3.42h-6.162A3.42 3.42 0 0 0 9 14.42v.16A3.42 3.42 0 0 0 12.419 18h6.162A3.419 3.419 0 0 0 22 14.58v-.16z" fill="#c68f6a"/><path d="M30 13.917A1.916 1.916 0 0 0 28.084 12h-.168A1.916 1.916 0 0 0 26 13.917v4.166c0 1.059.857 1.917 1.916 1.917h.168A1.916 1.916 0 0 0 30 18.083v-4.166zM23 22a2 2 0 0 1-2-2v-2.778c.609-.549 1-1.336 1-2.222 0-.753-.287-1.433-.745-1.959A1.994 1.994 0 0 1 23 12a2 2 0 0 1 2 2v6a2 2 0 0 1-2 2" fill="#f3d2a2"/><path d="M28.063 11h-.125a2.93 2.93 0 0 0-2.45 1.322 3.039 3.039 0 0 0-.431-.497c-.05-.046-.102-.085-.155-.128a3.057 3.057 0 0 0-.579-.377 2.993 2.993 0 0 0-.436-.172c-.067-.02-.13-.046-.2-.061A2.945 2.945 0 0 0 23 11c-.237 0-.46.036-.68.089-.077.017-.15.042-.224.066a3.026 3.026 0 0 0-.395.161c-.082.04-.163.077-.24.124-.164.1-.318.213-.46.341a3.04 3.04 0 0 0-.53.618l.003.003C20.273 12.287 20 12 19 12h-2.537c1.809-1.365 3.037-3.99 3.037-7a.5.5 0 1 0-1 0c0 3.859-2.186 7-4.875 7H13.5a.5.5 0 0 0 0 1H19a2 2 0 1 1 0 4h-8c-.032 0-.062-.008-.094-.01a1.973 1.973 0 0 1-.765-.191 2.38 2.38 0 0 1-.326-.196 1.973 1.973 0 0 1-.282-.254 1.9 1.9 0 0 1-.234-.31 2.17 2.17 0 0 1-.173-.361c-.011-.032-.028-.06-.04-.093L8.002 12c-.103-.335-.48-1.871-.411-2.191C7.59 5 12.286 0 18 0c6.538 0 11.844 5.231 11.987 11.734A2.917 2.917 0 0 0 28.063 11" fill="#f3d2a2"/></g></svg>