<svg xmlns="http://www.w3.org/2000/svg" viewBox="0 0 45 45"><defs><clipPath id="a"><path d="M0 36h36V0H0v36z"/></clipPath></defs><g clip-path="url(#a)" transform="matrix(1.25 0 0 -1.25 0 45)"><path d="M6.203 14.36c-.078-.923.321-1.199.946-1.637.618-.432 4.383 2.867 5.615 3.37 1.231.501 12.787 2.948 12.286 5.182-.5 2.235-3.994 2.565-6.683 2.11-2.69-.457-7.838-2.823-9.343-4.1-1.504-1.278-2.82-4.926-2.82-4.926M14.825 12.862s-3.557-1.155-3.557-4.155.866-4.693 1.277-5.513c.41-.82 1.687-1.616 3.455-.85 2.052.888-.49 6.003 6 3.656 2.973-1.075 6.058-2.529 9.058-1.529 2.846.95 3.942 4.53 3.942 6.53 0 4.092-3 3-4 2s-9-3-10-3-6.175 2.861-6.175 2.861" fill="#e0aa94"/><path d="M19.313 7.813s-.12 1.316-1.375 1.469c-1.031.124-2.656-.22-3.5-1.907-.845-1.688-2.345-1.407-2.282-2.813.062-1.406.5-2.5 1.406-2.78C14.47 1.5 15.75 2 15.908 3.5c.155 1.5.342 2.875 1.311 3.468.97.595 2.095.845 2.095.845" fill="#eec2ad"/><path d="M18 10s-1 1-3 1-6.664-2.133-5.25-6.375c1-3 3.844-1.594 4.25 1.375.407 2.973 4 4 4 4" fill="#e0aa94"/><path d="M17 10s-1 1-3 1-4.885-1.53-5-6c-.094-3.656 4.031-2 4 1-.031 3 4 4 4 4" fill="#eec2ad"/><path d="M5 9c0-3.297.457-5.286 2.428-4.947 3.269.562 2.029 4.614 4.889 5.754 2.078.827 5.102.629 8.02-1.103C22.26 7.563 21 12 19 13c-2 1-8 0-9 0S5 9 5 9" fill="#e0aa94"/><path d="M4.842 8.826C3.252 6.161 4.218 3.406 7 4c2.691.574 1.342 4.07 4 6 1.49 1.082 4.698 1.445 6.698.445S20 12 18 13c-2 1-8.54.025-9.538-.037-1.91-.119-3.62-4.137-3.62-4.137" fill="#eec2ad"/><path d="M9.418 6.886a1.87 1.87 0 0 0-2.638-.18l-.195.17a1.868 1.868 0 0 0-.18 2.639l22.52 25.817a1.87 1.87 0 0 0 2.64.18l.194-.171c.78-.68.86-1.86.181-2.638L9.419 6.886z" fill="#3b88c3"/><path d="M10.49 8.114C8.13 5.41 2.177.105 1.423.762c-.754.658 3.693 7.276 6.052 9.981 2.36 2.706 1.661.542 2.494-.185.832-.726 2.88.26.521-2.444" fill="#3b88c3"/><path d="M6.672 10.974c0-1 2.421-1.915 3.421-.915s3.341 2.227 6.42.94C23.714 7.992 21 12 18 13s-8 0-9 0-2.328-2.025-2.328-2.025" fill="#e0aa94"/><path d="M6.195 13.957c-.358 1.113 2.188 7.279 3.34 8.234 1.453 1.202 7.07 3.063 9.07 3.063S35 18 35 13s-2-5.625-4.875-6.406c-2.3-.625-7.115-.242-9.22 1.718C19.064 10.031 17.782 11.219 16 12c-3.302 1.448-5.503-.424-6.503-1.424-2-2-5.768.159-2.626 3.58C9.12 16.605 11.103 17.368 13 18c6 2 10 2 8 4-.707.707-1.092-.346-2.076-.525-1.98-.36-3.556-.601-6.166-1.472-.901-.3-5.171-3.023-6.563-6.046" fill="#f7dece"/><path d="M13.196 19.725c1.064.388 5.702 1.232 8.115 2.068 1.949.677 3.659-.636-.04-2.028-3.571-1.343-7.28-1.233-9.984-2.307-1.023-.406-1.91.875 1.909 2.267" fill="#e0aa94"/><path d="M22.487 27.977s-5.928-6.795-8.446-9.661c2.254.927 4.27.75 6.198 1.885 1.927 1.133 2.806 2.342 5.73 5.694 1.085 1.245-3.482 2.082-3.482 2.082" fill="#3b88c3"/></g></svg>