<svg xmlns="http://www.w3.org/2000/svg" viewBox="0 0 45 45"><defs><clipPath id="a"><path d="M0 36h36V0H0v36z"/></clipPath></defs><g clip-path="url(#a)" transform="matrix(1.25 0 0 -1.25 0 45)"><path d="M35.222 2.402c-.647 2.101-1.705 6.06-2.325 7.566-.501 1.216-.97 2.438-1.544 3.014-.575.575-1.553.53-2.143-.057 0 0-2.468-1.675-3.353-2.784-1.11-.882-2.785-3.357-2.785-3.357-.59-.59-.635-1.568-.06-2.143.576-.575 1.798-1.043 3.015-1.544 1.506-.62 5.465-1.675 7.566-2.325.359-.11 1.739 1.271 1.629 1.63" fill="#d99e82"/><path d="M13.643 30.692a2.946 2.946 0 0 0 0-4.167l-4.167-4.167a2.946 2.946 0 0 0-4.167 0l-4.167 4.167a2.946 2.946 0 0 0 0 4.167l4.167 4.167a2.946 2.946 0 0 0 4.167 0l4.167-4.167z" fill="#ea596e"/><path d="M31.352 12.982l-4.17-4.17-4.163-4.165L7.392 20.273l8.334 8.335 15.626-15.626z" fill="#ffcc4d"/><path d="M32.078 1.237S34.788-.252 35.52.48c.733.733-.764 3.435-.764 3.435s-2.568-.048-2.677-2.678" fill="#292f33"/><path d="M10.518 33.817l-8.334-8.334 5.208-5.209 8.335 8.334-5.21 5.21z" fill="#ccd6dd"/><path d="M12.601 31.734L4.266 23.4l-1.04 1.042 8.333 8.334 1.042-1.042zM14.684 29.65L6.35 21.315l-1.042 1.042 8.334 8.335 1.042-1.042z" fill="#99aab5"/></g></svg>