<svg xmlns="http://www.w3.org/2000/svg" viewBox="0 0 45 45"><defs><clipPath id="a"><path d="M0 36h36V0H0v36z"/></clipPath></defs><g clip-path="url(#a)" transform="matrix(1.25 0 0 -1.25 0 45)"><path d="M31.986 3.27A1.98 1.98 0 0 0 31 3a2 2 0 1 0 2 2c0-.361-.104-.695-.27-.987L35.874.867 35 8l-9 7-5-5 7-9 7.133-.876-3.146 3.146z" fill="#99aab5"/><path d="M13.643 30.692a2.946 2.946 0 0 0 0-4.167l-4.167-4.167a2.946 2.946 0 0 0-4.167 0l-4.167 4.167a2.946 2.946 0 0 0 0 4.167l4.167 4.167a2.946 2.946 0 0 0 4.167 0l4.167-4.167z" fill="#66757f"/><path d="M26.643 17.691L9.44 34.894 1.107 26.56 18.309 9.357a2.949 2.949 0 0 1 4.168 0l4.166 4.168a2.947 2.947 0 0 1 0 4.166" fill="#292f33"/><path d="M16.56 27.775l-8.335-8.334 2.125-2.126 8.333 8.336-2.124 2.124z" fill="#66757f"/></g></svg>