<svg xmlns="http://www.w3.org/2000/svg" viewBox="0 0 45 45"><defs><clipPath id="a"><path d="M0 36h36V0H0v36z"/></clipPath></defs><g clip-path="url(#a)" transform="matrix(1.25 0 0 -1.25 0 45)"><path d="M36 4a4 4 0 0 0-4-4H4a4 4 0 0 0-4 4v28a4 4 0 0 0 4 4h28a4 4 0 0 0 4-4V4z" fill="#9266cc"/><path d="M23.723 12L26 15.984 28.276 12h-4.553zM18 6.016L15.723 10h4.554L18 6.016zM7.723 12L10 15.985 12.277 12H7.723zm0 12h4.554L10 20.015 7.723 24zM18 29.984L20.277 26h-4.554L18 29.984zM24.848 18l-3.429-6H14.58l-3.428 6 3.428 6h6.84l3.428-6zm3.428 6L26 20.016 23.723 24h4.553zm-1.124-6l3.716 6.504A1 1 0 0 1 30 26h-7.42l-3.712 6.496c-.355.623-1.38.623-1.736 0L13.42 26H6a1 1 0 0 1-.868-1.496L8.848 18l-3.716-6.504A1 1 0 0 1 6 10h7.42l3.712-6.496a.997.997 0 0 1 1.736 0L22.58 10H30a1 1 0 0 1 .868 1.496L27.152 18z" fill="#fff"/></g></svg>