<svg xmlns="http://www.w3.org/2000/svg" viewBox="0 0 45 45"><defs><clipPath id="a"><path d="M0 36h36V0H0v36z"/></clipPath></defs><g clip-path="url(#a)" transform="matrix(1.25 0 0 -1.25 0 45)"><path d="M34.347 19.107l-8.9 3.294-3.322 10.89a1 1 0 0 1-1.912 0l-3.322-10.89-8.9-3.294a1 1 0 0 1 0-1.876l8.896-3.292L20.21 2.716a1 1 0 0 1 1.918 0l3.324 11.223 8.896 3.292a1 1 0 0 1-.001 1.876" fill="#aa8ed6"/><path d="M14.347 8.106l-2.313.856-.9 3.3a1 1 0 0 1-1.93 0l-.9-3.3-2.313-.856a1 1 0 0 1 0-1.875l2.301-.853.907-3.622a1 1 0 0 1 1.94 0l.907 3.622 2.301.853a1 1 0 0 1 0 1.875" fill="#fcab40"/><path d="M10.01 29.769l-2.366.876-.875 2.364a1 1 0 0 1-1.876 0l-.876-2.364-2.364-.876a1 1 0 0 1 0-1.876l2.364-.875.876-2.365a.999.999 0 0 1 1.876 0l.875 2.365 2.365.875a1 1 0 0 1 0 1.876" fill="#5dadec"/></g></svg>