<svg xmlns="http://www.w3.org/2000/svg" viewBox="0 0 45 45"><defs><clipPath id="a"><path d="M0 36h36V0H0v36z"/></clipPath></defs><g clip-path="url(#a)" transform="matrix(1.25 0 0 -1.25 0 45)"><path d="M36 4a4 4 0 0 0-4-4H4a4 4 0 0 0-4 4v28a4 4 0 0 0 4 4h28a4 4 0 0 0 4-4V4z" fill="#77b255"/><path d="M31.999 20h-9.171l6.9 6.899a2 2 0 1 1-2.829 2.828L20 22.828V32a2 2 0 0 1-4 0v-9.171l-6.899 6.899A2 2 0 0 1 6.272 26.9l6.9-6.9H4a2 2 0 1 1-.001-4h9.174L6.272 9.1A2 2 0 0 1 9.1 6.271l6.9 6.901V4a2 2 0 1 1 4 0v9.172l6.899-6.899a2 2 0 1 1 2.829 2.828L22.828 16h9.171a2 2 0 1 1 0 4" fill="#fff"/></g></svg>