<svg xmlns="http://www.w3.org/2000/svg" viewBox="0 0 45 45"><defs><clipPath id="a"><path d="M0 36h36V0H0v36z"/></clipPath></defs><g clip-path="url(#a)" transform="matrix(1.25 0 0 -1.25 0 45)"><path d="M13.574 24.765c1.335-.971 2.63-.43 2.882 1.2l1.088 7.07c.25 1.63.66 1.63.912 0l1.088-7.07c.25-1.63 1.548-2.171 2.882-1.2l6.149 4.47c1.334.97 1.63.674.66-.661l-4.47-6.147c-.971-1.335-.431-2.632 1.2-2.883l7.07-1.088c1.63-.251 1.63-.661 0-.912l-7.07-1.088c-1.631-.251-2.171-1.547-1.2-2.881l4.47-6.15c.97-1.333.674-1.631-.66-.66l-6.15 4.47c-1.333.97-2.63.43-2.881-1.2l-1.088-7.07c-.251-1.631-.661-1.631-.912 0l-1.088 7.07c-.251 1.63-1.547 2.17-2.882 1.2l-6.147-4.47c-1.335-.971-1.581-.713-.547.573l5.085 6.324c1.034 1.287.542 2.523-1.092 2.749l-8.057 1.112c-1.634.226-1.638.62-.008.876l7.228 1.136c1.63.256 2.17 1.557 1.2 2.892l-4.471 6.147c-.971 1.335-.673 1.632.662.662l6.147-4.471z" fill="#292f33"/></g></svg>