<svg xmlns="http://www.w3.org/2000/svg" viewBox="0 0 45 45"><defs><clipPath id="a"><path d="M0 36h36V0H0v36z"/></clipPath></defs><g clip-path="url(#a)" transform="matrix(1.25 0 0 -1.25 0 45)"><path d="M19 8.414v19.171l4.828 4.83s.707.706 0 1.414c-.707.707-1.414 0-1.414 0L19 30.414V35s0 1-1 1-1-1-1-1v-4.586l-3.414 3.415s-.707.707-1.414 0c-.707-.708 0-1.415 0-1.415L17 27.585V8.415l-4.828-4.829s-.707-.707 0-1.414 1.414 0 1.414 0L17 5.586V1s0-1 1-1 1 1 1 1v4.586l3.414-3.414s.707-.707 1.414 0 0 1.414 0 1.414L19 8.414z" fill="#88c9f9"/><path d="M34.622 15.134c-.259.966-1.225.707-1.225.707l-6.594-1.767L10.2 23.66l-1.767 6.595s-.259.966-1.225.707c-.967-.26-.707-1.224-.707-1.224l1.25-4.664-3.972 2.293s-.866.5-1.366-.366c-.5-.866.366-1.366.366-1.366l3.971-2.293-4.663-1.25s-.967-.258-.707-1.224 1.224-.707 1.224-.707L9.2 21.928l16.604-9.586 1.766-6.596s.26-.966 1.225-.707c.966.26.707 1.225.707 1.225l-1.25 4.664 3.972-2.293s.867-.5 1.367.365c.5.867-.367 1.367-.367 1.367l-3.97 2.293 4.662 1.249s.966.259.707 1.225" fill="#88c9f9"/><path d="M33.915 22.093l-4.664 1.249 3.972 2.293s.867.5.367 1.367c-.501.867-1.367.366-1.367.366l-3.971-2.293 1.249 4.663s.259.966-.707 1.225c-.966.259-1.225-.707-1.225-.707l-1.767-6.595-16.604-9.587-6.594 1.768s-.966.259-1.225-.707c-.26-.967.707-1.225.707-1.225l4.663-1.25-3.972-2.292S1.912 9.867 2.412 9c.5-.865 1.365-.365 1.365-.365l3.973 2.293-1.251-4.663s-.259-.967.707-1.225c.967-.26 1.226.706 1.226.706l1.767 6.597 16.604 9.585 6.594-1.768s.966-.26 1.225.707c.258.967-.707 1.225-.707 1.225" fill="#88c9f9"/></g></svg>