<svg xmlns="http://www.w3.org/2000/svg" viewBox="0 0 45 45"><defs><clipPath id="a"><path d="M0 36h36V0H0v36z"/></clipPath></defs><g clip-path="url(#a)" transform="matrix(1.25 0 0 -1.25 0 45)"><path d="M36 4a4 4 0 0 0-4-4H4a4 4 0 0 0-4 4v28a4 4 0 0 0 4 4h28a4 4 0 0 0 4-4V4z" fill="#77b255"/><path d="M15 18a3 3 0 1 0 6 0 3 3 0 0 0-6 0M20 32a2 2 0 0 1-4 0v-8a2 2 0 0 1 4 0v8zM20 12a2 2 0 1 1-4 0V4a2 2 0 0 1 4 0v8zM4 20a2 2 0 0 1 0-4h8a2 2 0 0 1 0 4H4zM24 20a2 2 0 0 1 0-4h8a2 2 0 0 1 0 4h-8zM15.171 22.243a.999.999 0 1 0-1.414-1.414l-7.485 7.485a.999.999 0 1 0 1.414 1.414l7.485-7.485zM29.727 7.686a.998.998 0 0 0 0-1.414.998.998 0 0 0-1.414 0l-7.485 7.486a.999.999 0 1 0 1.415 1.414l7.485-7.486zM13.757 15.172a.999.999 0 1 0 1.414-1.414L7.686 6.272a1 1 0 1 0-1.414 1.415l7.485 7.485zM28.314 29.727a.998.998 0 0 0 1.414 0 .998.998 0 0 0 0-1.414l-7.485-7.485a.999.999 0 1 0-1.414 1.415l7.485 7.485z" fill="#fff"/></g></svg>