<svg xmlns="http://www.w3.org/2000/svg" viewBox="0 0 45 45"><defs><clipPath id="a"><path d="M0 36h36V0H0v36z"/></clipPath></defs><g clip-path="url(#a)" transform="matrix(1.25 0 0 -1.25 0 45)"><path d="M21.533 17.998l12.234 12.234a2.498 2.498 0 0 1 0 3.535 2.498 2.498 0 0 1-3.535 0L17.998 21.533 5.763 33.767a2.5 2.5 0 0 1-3.535-3.535l12.235-12.234L2.201 5.736A2.498 2.498 0 0 1 3.97 1.468c.64 0 1.28.244 1.767.733l12.262 12.262L30.232 2.229a2.495 2.495 0 0 1 3.535 0 2.498 2.498 0 0 1 0 3.535L21.533 17.998z" fill="#dd2e44"/></g></svg>