<svg xmlns="http://www.w3.org/2000/svg" viewBox="0 0 45 45"><defs><clipPath id="a"><path d="M0 36h36V0H0v36z"/></clipPath></defs><g clip-path="url(#a)" transform="matrix(1.25 0 0 -1.25 0 45)"><path d="M36 4a4 4 0 0 0-4-4H4a4 4 0 0 0-4 4v28a4 4 0 0 0 4 4h28a4 4 0 0 0 4-4V4z" fill="#77b255"/><path d="M21.53 17.994l8.237 8.238a2.498 2.498 0 0 1 0 3.535 2.498 2.498 0 0 1-3.535 0l-8.238-8.238-8.238 8.238a2.5 2.5 0 1 1-3.536-3.535l8.24-8.238L6.2 9.736A2.5 2.5 0 1 1 9.736 6.2l8.258 8.259 8.238-8.238A2.493 2.493 0 0 1 28 5.489a2.498 2.498 0 0 1 1.767 4.267l-8.238 8.238z" fill="#fff"/></g></svg>