<svg xmlns="http://www.w3.org/2000/svg" viewBox="0 0 45 45"><defs><clipPath id="a"><path d="M0 36h36V0H0v36z"/></clipPath></defs><g clip-path="url(#a)" transform="matrix(1.25 0 0 -1.25 0 45)"><path d="M17 9a3 3 0 0 0-3 3v4a3 3 0 0 0 3 3c.603.006 6 .999 6 4.999 0 2-2 4.001-5 4.001-2.441 0-4-2.001-4-3.001a3 3 0 0 0-6 0C8 29.878 12.58 34 18 34c8 0 11-5.982 11-11.001 0-4.144-2.277-7.313-6.413-8.92-.9-.35-1.79-.587-2.587-.747V12a3 3 0 0 0-3-3M20 4a3 3 0 1 0-6 0 3 3 0 0 0 6 0" fill="#ccd6dd"/></g></svg>