<svg xmlns="http://www.w3.org/2000/svg" viewBox="0 0 45 45"><defs><clipPath id="a"><path d="M0 36h36V0H0v36z"/></clipPath></defs><g clip-path="url(#a)" transform="matrix(1.25 0 0 -1.25 0 45)"><path d="M18.013 25.33c-4.03-2.586-7.513-6.346-7.513-10.643 0-6.055 4.6-8.312 7.5-8.312 2.9 0 7.5 2.273 7.5 8.375 0 4.27-3.467 8.005-7.487 10.58M18 3.374c-5.09 0-10.5 3.965-10.5 11.312 0 4.877 3.366 9.178 7.59 12.273C12.394 28.261 9.758 29 8 29c-2.708 0-5.5-.914-5.527-.923a1.5 1.5 0 0 0-.947 2.846C1.658 30.967 4.794 32 8 32c2.695 0 6.45-1.158 10.01-3.162C21.567 30.842 25.31 32 28 32c3.207 0 6.222-1.559 6.344-1.625.78-.422 1.312-.699 1.125-1.266-.182-.55-.891-.328-1.75-.234-.03.003-2.156.391-5.687.391-1.752 0-4.411-1.004-7.1-2.304 4.215-3.083 7.568-7.36 7.568-12.212 0-7.389-5.41-11.375-10.5-11.375" fill="#292f33"/></g></svg>