<svg xmlns="http://www.w3.org/2000/svg" viewBox="0 0 45 45"><defs><clipPath id="a"><path d="M0 36h36V0H0v36z"/></clipPath></defs><g clip-path="url(#a)" transform="matrix(1.25 0 0 -1.25 0 45)"><path d="M36 8a4 4 0 0 0-4-4H4a4 4 0 0 0-4 4v20a4 4 0 0 0 4 4h28a4 4 0 0 0 4-4V8z" fill="#269"/><path d="M28.818 15.429c0-3.274-2.604-4.495-4.244-4.495-1.804 0-3.745 1.422-3.745 4.545 0 2.154 1.73 4.196 3.841 5.68 2.334-1.354 4.148-3.367 4.148-5.73m-13.642.05c0-3.123-1.94-4.545-3.745-4.545-1.64 0-4.244 1.22-4.244 4.495 0 2.363 1.814 4.376 4.148 5.73 2.112-1.484 3.841-3.526 3.841-5.68m19.305 9.338c-.129.07-1.335.683-3.85.683-1.627 0-3.926-.74-6.063-2.01-2.06.978-4.313 1.51-6.238 1.51h-.655c-1.925 0-4.178-.532-6.238-1.51C9.3 24.76 7.002 25.5 5.375 25.5c-2.516 0-3.722-.612-3.85-.683a.993.993 0 0 1-.405-1.337 1.008 1.008 0 0 1 1.341-.43c.01.006.922.45 2.914.45 1.067 0 2.54-.437 4.02-1.18-2.422-1.66-4.208-4.02-4.208-6.891 0-4.48 3.651-6.495 6.244-6.495 2.855 0 5.745 2.248 5.745 6.545 0 2.595-1.636 4.908-3.79 6.656 1.46.557 2.973.865 4.29.865h.654c1.316 0 2.83-.308 4.29-.865-2.156-1.748-3.79-4.061-3.79-6.656 0-4.297 2.888-6.545 5.744-6.545 2.593 0 6.244 2.015 6.244 6.495 0 2.87-1.785 5.232-4.207 6.89 1.48.744 2.952 1.18 4.02 1.18 1.991 0 2.904-.443 2.914-.448a1.006 1.006 0 0 1 1.34.429.993.993 0 0 1-.404 1.337" fill="#fff"/></g></svg>