<svg xmlns="http://www.w3.org/2000/svg" viewBox="0 0 45 45"><defs><clipPath id="a"><path d="M0 36h36V0H0v36z"/></clipPath></defs><g clip-path="url(#a)" transform="matrix(1.25 0 0 -1.25 0 45)"><path d="M36 4a4 4 0 0 0-4-4H4a4 4 0 0 0-4 4v28a4 4 0 0 0 4 4h28a4 4 0 0 0 4-4V4z" fill="#3b88c3"/><path d="M20.589 5.8l6 7.2h-3.59v7.61c0 5.524-4.681 10.002-10.204 10.002-1.414 0-2.861-.298-4.081-.828l2.699-3.3c.395.083.987.128 1.407.128 3.315 0 6.18-2.686 6.18-6.001V13h-4.411l6-7.2z" fill="#fff"/></g></svg>