<svg xmlns="http://www.w3.org/2000/svg" viewBox="0 0 45 45"><defs><clipPath id="a"><path d="M0 36h36V0H0v36z"/></clipPath></defs><g clip-path="url(#a)" transform="matrix(1.25 0 0 -1.25 0 45)"><path d="M32 36H4a4 4 0 0 1-4-4V4a4 4 0 0 1 4-4h28a4 4 0 0 1 4 4v28a4 4 0 0 1-4 4" fill="#3b88c3"/><path d="M19 29h-2a1 1 0 0 1-1-1V8a1 1 0 0 1 1-1h2a1 1 0 0 1 1 1v20a1 1 0 0 1-1 1" fill="#fff"/><path d="M26.617 24.91l1.105-1.667a1 1 0 0 0-.28-1.386L10.768 10.809a1 1 0 0 0-1.386.282l-1.105 1.667a1 1 0 0 0 .281 1.386L25.231 25.19a1 1 0 0 0 1.386-.281" fill="#fff"/><path d="M9.383 24.91l-1.105-1.667a1 1 0 0 1 .28-1.386l16.673-11.048a1 1 0 0 1 1.386.282l1.105 1.667a1 1 0 0 1-.281 1.386L10.769 25.19a1 1 0 0 1-1.386-.281" fill="#fff"/></g></svg>