<svg xmlns="http://www.w3.org/2000/svg" viewBox="0 0 45 45"><defs><clipPath id="a"><path d="M0 36h36V0H0v36z"/></clipPath></defs><g clip-path="url(#a)" transform="matrix(1.25 0 0 -1.25 0 45)"><path d="M27.287 1.373c-.404 0-.806.124-1.152.371L18 7.578 9.866 1.744a1.97 1.97 0 0 0-2.312.008 1.971 1.971 0 0 0-.721 2.194l3.034 9.792-8.062 5.68a1.982 1.982 0 0 0-.708 2.204 1.98 1.98 0 0 0 1.866 1.363l9.984.015 3.179 9.55a1.975 1.975 0 1 0 3.75 0L23 23l10.037-.015a1.977 1.977 0 0 0 1.159-3.567l-8.062-5.68 3.034-9.792a1.97 1.97 0 0 0-.72-2.194 1.96 1.96 0 0 0-1.161-.379" fill="#ffac33"/></g></svg>