<svg xmlns="http://www.w3.org/2000/svg" viewBox="0 0 45 45"><defs><clipPath id="a"><path d="M0 36h36V0H0v36z"/></clipPath></defs><g clip-path="url(#a)" transform="matrix(1.25 0 0 -1.25 0 45)"><path d="M27 13c-2.589 0-4.005 2.549-5.374 5.014C20.537 19.974 19.411 22 18 22c-1.412 0-2.537-2.026-3.626-3.986C13.004 15.549 11.588 13 9 13c-2.65 0-3.853 2.706-4.914 5.094C3.038 20.454 2.256 22 1 22a1 1 0 0 0 0 2c2.65 0 3.853-2.706 4.914-5.094C6.962 16.547 7.744 15 9 15c1.412 0 2.537 2.026 3.626 3.986C13.996 21.451 15.412 24 18 24c2.589 0 4.005-2.549 5.374-5.014C24.463 17.026 25.589 15 27 15c1.256 0 2.037 1.547 3.086 3.906C31.148 21.294 32.351 24 35 24a1 1 0 1 0 0-2c-1.256 0-2.037-1.546-3.086-3.906C30.853 15.706 29.649 13 27 13" fill="#292f33"/></g></svg>