<svg xmlns="http://www.w3.org/2000/svg" viewBox="0 0 45 45"><defs><clipPath id="a"><path d="M0 36h36V0H0v36z"/></clipPath></defs><g clip-path="url(#a)" transform="matrix(1.25 0 0 -1.25 0 45)"><path d="M35.361 6.821c-8.584 24.68-11.81 24.68-13.36 24.68-3.126 0-4.539-3.18-5.786-5.986-.1-.225-.217-.485-.339-.754-.487-.939-1.266-.939-1.752 0-.123.27-.24.53-.34.754C12.537 28.32 11.124 31.5 8 31.5c-2.304 0-5.467-2.084-7.452-12.01a2.501 2.501 0 0 1 4.903-.98A594.235 594.235 0 0 0 7.2 24.171c.43 1.001 1.177 1.03 1.672.077.124-.273.243-.537.344-.764.183-.412.371-.832.566-1.248l.003-.007c.195-.416.4-.828.615-1.226l.003-.004c1.043-1.917 2.394-3.5 4.598-3.5 2.66 0 4.08 2.306 5.212 4.723l.011.025c.194.413.38.828.561 1.237l.307.685c.447.88 1.188.803 1.655-.182 0 0 3.902-8.748 5.594-12.52.8-2.094 1.583-4.23 2.298-6.29a2.504 2.504 0 0 1 3.183-1.54 2.501 2.501 0 0 1 1.54 3.183" fill="#ffcc4d"/></g></svg>