<svg xmlns="http://www.w3.org/2000/svg" viewBox="0 0 45 45"><defs><clipPath id="a"><path d="M0 36h36V0H0v36z"/></clipPath></defs><g clip-path="url(#a)" transform="matrix(1.25 0 0 -1.25 0 45)"><path d="M36 4a4 4 0 0 0-4-4H4a4 4 0 0 0-4 4v28a4 4 0 0 0 4 4h28a4 4 0 0 0 4-4V4z" fill="#3b88c3"/><path d="M16.462 24.825h-1.83c-1.487 0-2.108 1.085-2.108 2.139 0 1.086.775 2.14 2.109 2.14h4.402c1.334 0 2.078-.961 2.078-2.201V9.26c0-1.551-.992-2.418-2.326-2.418-1.333 0-2.325.867-2.325 2.418v15.565z" fill="#fff"/></g></svg>