<svg xmlns="http://www.w3.org/2000/svg" viewBox="0 0 45 45"><defs><clipPath id="a"><path d="M0 36h36V0H0v36z"/></clipPath></defs><g clip-path="url(#a)" transform="matrix(1.25 0 0 -1.25 0 45)"><path d="M36 18c0-9.94-8.059-18-18-18S0 8.06 0 18c0 9.941 8.059 18 18 18s18-8.059 18-18" fill="#dd2e44"/><path d="M26.39 20.498c.515 0 .812.189.812.783v5.399c0 .62-.297.755-.811.755h-7.503c-.54 0-.81-.135-.81-.755v-5.4c0-.593.27-.782.81-.782h7.503zm-5.235-1.862c-.108-6.29-1.971-10.177-6.316-12.606-.216-.135-.432-.216-.621-.216-.324 0-.648.162-.864.513a1.05 1.05 0 0 0-.19.62c0 .325.163.594.487.81 3.86 2.159 5.426 5.129 5.533 10.879h-.81c-1.62 0-2.321.62-2.321 2.132v6.424c0 1.539.702 2.187 2.322 2.187h8.53c1.593 0 2.32-.648 2.32-2.187v-6.424c0-1.512-.727-2.132-2.32-2.132H25.42v-9.8c0-.62.215-.727 1.512-.727 1.133 0 1.51.188 1.7.782.162.648.27 1.917.297 2.996 0 .486.35.783.863.783h.08c.595-.027.919-.297.919-.81v-.054c-.027-1.646-.215-3.212-.647-4.211a1.936 1.936 0 0 0-.783-.891c-.513-.296-1.377-.485-2.537-.485h-.46c-2.455.026-2.942.594-2.942 1.97v10.447h-2.267zM9.629 13.264c0 1.242.054 2.43.162 3.59-.945-.972-1.97-1.943-3.077-2.807a1.076 1.076 0 0 0-.621-.217c-.324 0-.648.163-.864.487a1.026 1.026 0 0 0 .243 1.43c2.699 1.863 5.965 5.318 7.26 7.909a.654.654 0 0 1 .109.35c0 .19-.162.298-.486.298H6.498c-.486 0-.756.378-.756.918s.27.944.756.944h3.104v3.833c0 .486.432.756 1.026.756.62 0 1.053-.27 1.053-.756v-3.833h1.754c1.053 0 1.727-.593 1.727-1.511 0-.351-.107-.756-.296-1.188-.675-1.323-1.728-2.861-2.807-4.183 1.295-1.323 2.483-2.241 3.427-2.862.35-.216.513-.486.513-.81 0-.215-.081-.405-.215-.62a.903.903 0 0 0-1.323-.244c-.972.729-1.943 1.674-2.97 2.78.109-1.35.163-2.428.163-3.724V6.408c0-.486-.406-.756-1.026-.756-.594 0-1 .297-1 .756v6.856z" fill="#fff"/></g></svg>