<svg xmlns="http://www.w3.org/2000/svg" viewBox="0 0 45 45"><defs><clipPath id="a"><path d="M0 36h36V0H0v36z"/></clipPath></defs><g clip-path="url(#a)" transform="matrix(1.25 0 0 -1.25 0 45)"><path d="M36 4a4 4 0 0 0-4-4H4a4 4 0 0 0-4 4v28a4 4 0 0 0 4 4h28a4 4 0 0 0 4-4V4z" fill="#3b88c3"/><path d="M18.242 24.611h-.061l-4.187-8.65h4.248v8.65zM10.77 11.868c-1.52 0-2.171 1.022-2.171 1.83 0 .681.248 1.054.435 1.363l6.945 12.59c.682 1.24 1.55 1.797 3.162 1.797 1.799 0 3.566-1.148 3.566-3.969v-9.518h.528c1.209 0 2.17-.807 2.17-2.047 0-1.24-.961-2.046-2.17-2.046h-.528V9.232c0-1.643-.651-2.418-2.232-2.418-1.582 0-2.233.775-2.233 2.418v2.636H10.77z" fill="#fff"/></g></svg>