<svg xmlns="http://www.w3.org/2000/svg" viewBox="0 0 45 45"><defs><clipPath id="a"><path d="M0 36h36V0H0v36z"/></clipPath></defs><g clip-path="url(#a)" transform="matrix(1.25 0 0 -1.25 0 45)"><path d="M36 4a4 4 0 0 0-4-4H4a4 4 0 0 0-4 4v28a4 4 0 0 0 4 4h28a4 4 0 0 0 4-4V4z" fill="#3b88c3"/><path d="M15.056 14.317c0-1.736 1.085-3.225 2.945-3.225 1.768 0 2.946 1.427 2.946 3.225 0 1.644-.992 3.225-2.946 3.225-1.767 0-2.945-1.396-2.945-3.225m-4.837 0c0 4.682 4.744 11.255 7.875 14.17.25.248.621.496.993.744.341.217.682.217.93.217.868 0 2.202-1.148 2.202-2.264 0-.433-.28-.805-.652-1.27-1.24-1.52-3.255-3.504-4.279-4.962l.062-.062c.56.248 1.271.372 1.955.372 3.72 0 6.48-3.286 6.48-6.945 0-4.03-3.195-7.689-7.784-7.689-4.774 0-7.782 3.565-7.782 7.69" fill="#fff"/></g></svg>