<svg xmlns="http://www.w3.org/2000/svg" viewBox="0 0 45 45"><defs><clipPath id="a"><path d="M0 36h36V0H0v36z"/></clipPath></defs><g clip-path="url(#a)" transform="matrix(1.25 0 0 -1.25 0 45)"><path d="M36 4a4 4 0 0 0-4-4H4a4 4 0 0 0-4 4v28a4 4 0 0 0 4 4h28a4 4 0 0 0 4-4V4z" fill="#3b88c3"/><path d="M20.357 24.797H12.42c-1.674 0-2.294 1.085-2.294 2.14 0 1.085.59 2.14 2.294 2.14h11.224c1.582 0 2.233-1.427 2.233-2.234 0-.62-.34-1.27-.713-2.046L17.474 9.17c-.868-1.737-1.209-2.356-2.604-2.356-1.706 0-2.574 1.302-2.574 2.201 0 .372.093.651.31 1.085l7.751 14.697z" fill="#fff"/></g></svg>