<svg xmlns="http://www.w3.org/2000/svg" viewBox="0 0 45 45"><defs><clipPath id="a"><path d="M0 36h36V0H0v36z"/></clipPath></defs><g clip-path="url(#a)" transform="matrix(1.25 0 0 -1.25 0 45)"><path d="M36 4a4 4 0 0 0-4-4H4a4 4 0 0 0-4 4v28a4 4 0 0 0 4 4h28a4 4 0 0 0 4-4V4z" fill="#3b88c3"/><path d="M15.769 22.999c0-1.396.807-2.356 2.232-2.356 1.427 0 2.265.96 2.265 2.356 0 1.333-.807 2.356-2.265 2.356-1.457 0-2.232-1.023-2.232-2.356m-.589-8.991c0-1.582.93-3.102 2.821-3.102 1.769 0 2.822 1.52 2.822 3.102 0 1.953-1.116 3.1-2.822 3.1-1.797 0-2.821-1.364-2.821-3.1m-4.837-.311c0 2.481 1.365 4.31 3.318 5.364-1.457 1.054-2.357 2.481-2.357 4.434 0 3.628 3.008 5.953 6.697 5.953 3.597 0 6.73-2.294 6.73-5.953 0-1.736-.87-3.473-2.389-4.434 2.109-1.054 3.318-2.976 3.318-5.364 0-4.309-3.504-7.069-7.659-7.069-4.278 0-7.658 2.915-7.658 7.069" fill="#fff"/></g></svg>