<svg xmlns="http://www.w3.org/2000/svg" viewBox="0 0 45 45"><defs><clipPath id="a"><path d="M0 36h36V0H0v36z"/></clipPath></defs><g clip-path="url(#a)" transform="matrix(1.25 0 0 -1.25 0 45)"><path d="M36 4a4 4 0 0 0-4-4H4a4 4 0 0 0-4 4v28a4 4 0 0 0 4 4h28a4 4 0 0 0 4-4V4z" fill="#3b88c3"/><path d="M20.947 21.759c0 1.736-1.086 3.225-2.946 3.225-1.767 0-2.945-1.427-2.945-3.225 0-1.644.992-3.225 2.945-3.225 1.768 0 2.946 1.396 2.946 3.225m4.837 0c0-4.682-4.743-11.255-7.876-14.17-.248-.248-.62-.496-.992-.744-.34-.217-.682-.217-.93-.217-.868 0-2.202 1.148-2.202 2.264 0 .433.28.805.652 1.27 1.24 1.52 3.256 3.504 4.28 4.96l-.063.064c-.559-.248-1.272-.372-1.954-.372-3.72 0-6.48 3.286-6.48 6.945 0 4.03 3.193 7.689 7.782 7.689 4.776 0 7.783-3.565 7.783-7.69" fill="#fff"/></g></svg>