<svg xmlns="http://www.w3.org/2000/svg" viewBox="0 0 45 45"><defs><clipPath id="a"><path d="M0 36h36V0H0v36z"/></clipPath></defs><g clip-path="url(#a)" transform="matrix(1.25 0 0 -1.25 0 45)"><path d="M18 2C9.164 2 2 9.163 2 17.999 2 26.836 9.164 34 18 34c8.837 0 16-7.164 16-16.001C34 9.163 26.837 2 18 2m0 34C8.059 36 0 27.94 0 17.999 0 8.059 8.059 0 18 0s18 8.059 18 17.999C36 27.94 27.941 36 18 36" fill="#292f33"/><path d="M18.723 29.448c2.263 0 6.666-.744 6.666-3.473 0-1.116-.776-2.077-1.922-2.077-1.272 0-2.139 1.085-4.744 1.085-3.845 0-5.829-3.256-5.829-7.038 0-3.689 2.015-6.852 5.83-6.852 2.604 0 3.657 1.301 4.928 1.301 1.397 0 2.047-1.394 2.047-2.107 0-2.977-4.682-3.659-6.976-3.659-6.294 0-10.666 4.992-10.666 11.41 0 6.45 4.341 11.41 10.666 11.41" fill="#292f33"/></g></svg>