<svg xmlns="http://www.w3.org/2000/svg" viewBox="0 0 45 45"><defs><clipPath id="a"><path d="M0 36h36V0H0v36z"/></clipPath></defs><g clip-path="url(#a)" transform="matrix(1.25 0 0 -1.25 0 45)"><path d="M18 2C9.164 2 2 9.163 2 17.999 2 26.836 9.164 34 18 34c8.837 0 16-7.164 16-16.001C34 9.163 26.837 2 18 2m0 34C8.059 36 0 27.94 0 17.999 0 8.059 8.059 0 18 0s18 8.059 18 17.999C36 27.94 27.941 36 18 36" fill="#292f33"/><path d="M15.428 19.31h3.193c1.705 0 2.885 1.023 2.885 2.759 0 1.767-1.18 2.729-2.885 2.729h-3.193V19.31zm-4.65 7.348c0 1.488.836 2.419 2.386 2.419h5.457c4.775 0 7.721-2.14 7.721-7.008 0-3.41-2.574-5.364-5.737-5.86l5.272-5.643c.433-.465.62-.93.62-1.364 0-1.21-.962-2.387-2.325-2.387-.559 0-1.303.217-1.799.806l-6.884 8.34h-.06V9.233c0-1.551-.993-2.418-2.327-2.418-1.333 0-2.325.867-2.325 2.418v17.425z" fill="#292f33"/></g></svg>