<svg xmlns="http://www.w3.org/2000/svg" viewBox="0 0 45 45"><defs><clipPath id="a"><path d="M0 36h36V0H0v36z"/></clipPath></defs><g clip-path="url(#a)" transform="matrix(1.25 0 0 -1.25 0 45)"><path d="M18.04 22.05L0 10V2a2 2 0 0 1 2-2h32a2 2 0 0 1 2 2v7.99L18.04 22.05z" fill="#99aab5"/><path d="M36 3H0V2h36v1zM36 6H0V5h36v1zM36 9H0V8h36v1zM1.497 11h32.998l-1.489 1H2.994l-1.497-1z" fill="#66757f"/><path d="M18 36c-7.18 0-13-1.343-13-3V0h26v33c0 1.657-5.82 3-13 3" fill="#e1e8ed"/><path d="M18 23c7.18 0 13-1.344 13-3v2c0 1.657-5.82 3-13 3S5 23.657 5 22v-2c0 1.656 5.82 3 13 3M18 11c7.18 0 13-1.344 13-3v2c0 1.656-5.82 3-13 3S5 11.656 5 10V8c0 1.656 5.82 3 13 3M18 5c7.18 0 13-1.344 13-3v2c0 1.656-5.82 3-13 3S5 5.656 5 4V2c0 1.656 5.82 3 13 3M18 29c7.18 0 13-1.344 13-3v2c0 1.657-5.82 3-13 3S5 29.657 5 28v-2c0 1.656 5.82 3 13 3" fill="#ccd6dd"/><path d="M14 35.853V0h2V35.96a51.326 51.326 0 0 1-2-.107M8 34.916V0h2v35.361a22.466 22.466 0 0 1-2-.445M20 35.96V0h2v35.854a51.22 51.22 0 0 1-2 .107M26 35.361V.001h2v34.915c-.594.165-1.269.313-2 .445" fill="#ccd6dd"/><path d="M18 17c7.18 0 13-1.344 13-3v2c0 1.657-5.82 3-13 3S5 17.657 5 16v-2c0 1.656 5.82 3 13 3" fill="#292f33"/><path d="M11.13 30.418h-.708c-.576 0-.815.42-.815.828 0 .419.299.827.815.827h1.703c.516 0 .804-.373.804-.852v-6.825c0-.6-.384-.935-.9-.935-.515 0-.9.336-.9.936v6.02zM18.495 28.27c0 .912-.084 2.783-1.307 2.783-1.223 0-1.307-1.871-1.307-2.783 0-.852.084-2.782 1.307-2.782 1.223 0 1.307 1.93 1.307 2.782m-4.485 0c0 1.955.755 4.414 3.178 4.414s3.178-2.46 3.178-4.414c0-1.955-.755-4.414-3.178-4.414s-3.178 2.458-3.178 4.413M25.216 29.242c0 .671-.42 1.247-1.14 1.247-.682 0-1.138-.552-1.138-1.247 0-.636.383-1.248 1.139-1.248.684 0 1.139.54 1.139 1.248m1.87 0c0-1.81-1.834-4.353-3.045-5.48a2.663 2.663 0 0 0-.384-.289c-.131-.084-.263-.084-.36-.084-.335 0-.852.444-.852.875 0 .168.109.313.252.492.48.588 1.26 1.356 1.656 1.92l-.024.023a1.93 1.93 0 0 0-.756-.144c-1.44 0-2.506 1.271-2.506 2.687a2.973 2.973 0 0 0 3.01 2.974c1.847 0 3.01-1.379 3.01-2.974" fill="#be1931"/></g></svg>