<?xml version="1.0" encoding="utf-8"?>
<!-- Generator: Adobe Illustrator 15.0.0, SVG Export Plug-In . SVG Version: 6.00 Build 0)  -->
<!DOCTYPE svg PUBLIC "-//W3C//DTD SVG 1.1//EN" "http://www.w3.org/Graphics/SVG/1.1/DTD/svg11.dtd">
<svg version="1.1" id="Ebene_1" xmlns="http://www.w3.org/2000/svg" xmlns:xlink="http://www.w3.org/1999/xlink" x="0px" y="0px"
	 width="600px" height="80px" viewBox="0 0 600 80" enable-background="new 0 0 600 80" xml:space="preserve">
<g>
	<g id="g10" transform="matrix(1.25,0,0,-1.25,0,47.5)">
		<g id="g12">
			<g>
				<g>
					<defs>
						<rect id="SVGID_1_" x="-8.018" y="-34.703" width="82.319" height="82.32"/>
					</defs>
					<clipPath id="SVGID_2_">
						<use xlink:href="#SVGID_1_"  overflow="visible"/>
					</clipPath>
					<g id="g14" clip-path="url(#SVGID_2_)">
						<g id="g20" transform="translate(29.1045,16.917)">
							<path id="path22" fill="#8899A6" d="M18.047-13.347c-0.864,0-1.702-0.109-2.509-0.295L1.144,0.753
								C1.33,1.559,1.439,2.397,1.439,3.261c0,6.142-4.98,11.12-11.12,11.12c-1.252,0-2.917-1.271-1.531-2.657l4.159-4.159
								c0,0,1.387-2.773-1.386-5.546c-2.773-2.773-5.546-1.386-5.546-1.386l-4.159,4.16c-1.386,1.387-2.657-0.272-2.657-1.531
								c0-6.141,4.979-11.121,11.121-11.121c0.863,0,1.7,0.109,2.507,0.294L7.221-21.961c-0.186-0.808-0.294-1.644-0.294-2.508
								c0-6.141,4.979-11.122,11.12-11.122c1.25,0,2.916,1.272,1.53,2.659l-4.159,4.159c0,0-1.387,2.773,1.387,5.545
								c2.772,2.773,5.546,1.387,5.546,1.387l4.159-4.16c1.386-1.387,2.659,0.272,2.659,1.53
								C29.168-18.328,24.189-13.347,18.047-13.347"/>
						</g>
					</g>
				</g>
			</g>
		</g>
	</g>
</g>
<rect x="93" y="15.745" fill="none" width="508" height="60"/>
<g enable-background="new    ">
	<path fill="#795DA3" d="M123.088,42.054h-17.52v12.041h20.479v6.65h-28.74V18.089h28.652v6.709h-20.391V35.55h17.52V42.054z"/>
	<path fill="#795DA3" d="M138.205,29.046l0.234,3.838c0.605-1.367,1.44-2.446,2.505-3.237c1.064-0.791,2.358-1.187,3.882-1.187
		c2.559,0,4.229,1.123,5.01,3.369c0.625-1.055,1.421-1.88,2.388-2.476s2.134-0.894,3.501-0.894c0.957,0,1.85,0.176,2.681,0.527
		c0.83,0.352,1.553,0.913,2.168,1.685s1.094,1.768,1.436,2.988c0.341,1.221,0.513,2.71,0.513,4.468v22.617h-7.412V38.099
		c0-0.605-0.063-1.104-0.19-1.494c-0.127-0.391-0.298-0.698-0.513-0.923c-0.215-0.225-0.464-0.381-0.747-0.469
		c-0.283-0.088-0.571-0.132-0.864-0.132c-0.567,0-1.045,0.132-1.436,0.396c-0.391,0.264-0.693,0.62-0.908,1.069v24.199h-7.178
		V38.069c0-0.605-0.059-1.104-0.176-1.494s-0.278-0.693-0.483-0.908s-0.444-0.366-0.718-0.454c-0.274-0.088-0.567-0.132-0.879-0.132
		c-0.625,0-1.128,0.176-1.509,0.527s-0.679,0.82-0.894,1.406v23.73h-7.412V29.046H138.205z"/>
	<path fill="#795DA3" d="M168.029,44.603c0-2.305,0.332-4.438,0.996-6.401c0.664-1.963,1.636-3.667,2.915-5.112
		c1.279-1.445,2.842-2.578,4.688-3.398s3.959-1.23,6.343-1.23c2.383,0,4.501,0.41,6.357,1.23c1.855,0.82,3.423,1.953,4.702,3.398
		c1.279,1.445,2.251,3.149,2.915,5.112c0.664,1.963,0.996,4.097,0.996,6.401v0.615c0,2.324-0.333,4.468-0.996,6.431
		c-0.664,1.963-1.631,3.667-2.9,5.112c-1.27,1.445-2.832,2.573-4.688,3.384c-1.856,0.811-3.965,1.216-6.328,1.216
		c-2.383,0-4.507-0.405-6.372-1.216c-1.865-0.811-3.438-1.938-4.717-3.384c-1.279-1.445-2.251-3.149-2.915-5.112
		c-0.664-1.963-0.996-4.106-0.996-6.431V44.603z M176.174,45.218c0,1.328,0.127,2.573,0.381,3.735
		c0.253,1.162,0.654,2.178,1.201,3.047c0.546,0.869,1.255,1.558,2.124,2.065c0.869,0.508,1.919,0.762,3.149,0.762
		c1.191,0,2.216-0.254,3.076-0.762c0.859-0.508,1.557-1.196,2.095-2.065c0.537-0.869,0.933-1.885,1.187-3.047
		c0.253-1.162,0.381-2.407,0.381-3.735v-0.615c0-1.289-0.127-2.51-0.381-3.662c-0.254-1.152-0.649-2.168-1.187-3.047
		c-0.538-0.879-1.235-1.572-2.095-2.08c-0.86-0.508-1.904-0.762-3.135-0.762c-1.211,0-2.246,0.254-3.105,0.762
		c-0.86,0.508-1.563,1.201-2.109,2.08c-0.547,0.879-0.948,1.895-1.201,3.047c-0.254,1.152-0.381,2.373-0.381,3.662V45.218z"/>
	<path fill="#795DA3" d="M210.011,29.046h16.23v32.432c0,2.109-0.303,3.921-0.908,5.435c-0.605,1.514-1.484,2.764-2.637,3.75
		c-1.153,0.986-2.559,1.714-4.219,2.183c-1.66,0.469-3.555,0.703-5.684,0.703c-0.879,0-1.768-0.034-2.666-0.103
		c-0.898-0.068-1.758-0.2-2.578-0.396l0.41-6.621c0.234,0.059,0.561,0.112,0.981,0.161c0.42,0.049,0.85,0.088,1.289,0.117
		s0.859,0.049,1.26,0.059c0.4,0.01,0.698,0.015,0.894,0.015c0.781,0,1.519-0.088,2.212-0.264c0.693-0.176,1.289-0.469,1.787-0.879
		s0.894-0.952,1.187-1.626s0.439-1.519,0.439-2.534V35.696h-7.998V29.046z M217.453,20.931c0-0.625,0.112-1.206,0.337-1.743
		c0.224-0.537,0.537-0.996,0.938-1.377c0.4-0.381,0.889-0.679,1.465-0.894c0.576-0.215,1.216-0.322,1.919-0.322
		c1.445,0,2.593,0.405,3.442,1.216s1.274,1.851,1.274,3.12s-0.425,2.31-1.274,3.12s-1.997,1.216-3.442,1.216
		c-0.703,0-1.343-0.107-1.919-0.322c-0.576-0.215-1.065-0.513-1.465-0.894c-0.4-0.381-0.713-0.84-0.938-1.377
		C217.565,22.137,217.453,21.556,217.453,20.931z"/>
	<path fill="#795DA3" d="M243.322,29.046h17.256v25.078h8.584v6.621h-25.84v-6.621h9.023V35.696h-9.023V29.046z M251.76,20.931
		c0-0.625,0.112-1.206,0.337-1.743c0.224-0.537,0.542-0.996,0.952-1.377s0.903-0.679,1.479-0.894
		c0.576-0.215,1.216-0.322,1.919-0.322c1.445,0,2.593,0.405,3.442,1.216s1.274,1.851,1.274,3.12s-0.425,2.31-1.274,3.12
		s-1.997,1.216-3.442,1.216c-0.703,0-1.343-0.107-1.919-0.322c-0.576-0.215-1.069-0.513-1.479-0.894s-0.728-0.84-0.952-1.377
		C251.872,22.137,251.76,21.556,251.76,20.931z"/>
	<path fill="#795DA3" d="M299.015,49.612c0-0.762-0.132-1.475-0.396-2.139s-0.713-1.284-1.348-1.86
		c-0.635-0.576-1.465-1.104-2.49-1.582s-2.3-0.923-3.823-1.333c-1.856-0.508-3.628-1.143-5.317-1.904
		c-1.689-0.762-3.179-1.68-4.468-2.754s-2.319-2.324-3.091-3.75c-0.772-1.426-1.157-3.066-1.157-4.922
		c0-1.797,0.381-3.428,1.143-4.893s1.816-2.715,3.164-3.75s2.939-1.831,4.775-2.388c1.835-0.557,3.828-0.835,5.977-0.835
		c2.227,0,4.263,0.322,6.108,0.967s3.432,1.548,4.761,2.71c1.328,1.162,2.362,2.544,3.105,4.146
		c0.742,1.602,1.113,3.359,1.113,5.273h-8.028c-0.04-0.957-0.21-1.836-0.513-2.637c-0.303-0.801-0.752-1.489-1.348-2.065
		c-0.596-0.576-1.338-1.025-2.227-1.348c-0.889-0.322-1.929-0.483-3.12-0.483c-1.094,0-2.065,0.132-2.915,0.396
		s-1.567,0.635-2.153,1.113s-1.03,1.045-1.333,1.699c-0.303,0.654-0.454,1.362-0.454,2.124c0,0.801,0.2,1.523,0.601,2.168
		c0.4,0.645,0.981,1.226,1.743,1.743s1.685,0.991,2.769,1.421s2.31,0.83,3.677,1.201c1.953,0.566,3.75,1.26,5.391,2.08
		c1.641,0.82,3.051,1.792,4.233,2.915s2.1,2.402,2.754,3.838s0.982,3.032,0.982,4.79c0,1.875-0.377,3.54-1.129,4.995
		s-1.791,2.686-3.119,3.691c-1.329,1.006-2.911,1.768-4.747,2.285c-1.836,0.518-3.838,0.776-6.006,0.776
		c-1.348,0-2.691-0.122-4.028-0.366c-1.338-0.244-2.618-0.62-3.838-1.128c-1.221-0.508-2.358-1.143-3.413-1.904
		s-1.968-1.65-2.739-2.666c-0.772-1.016-1.377-2.168-1.816-3.457s-0.659-2.715-0.659-4.277h8.086
		c0.039,1.289,0.264,2.393,0.674,3.311s0.981,1.67,1.714,2.256s1.611,1.016,2.637,1.289s2.153,0.41,3.384,0.41
		c1.094,0,2.065-0.127,2.915-0.381s1.567-0.605,2.153-1.055s1.035-0.991,1.348-1.626C298.859,51.072,299.015,50.374,299.015,49.612z
		"/>
	<path fill="#795DA3" d="M326.672,47.444l0.938,3.398l8.438-21.797h8.994l-16.084,36.445c-0.352,0.801-0.807,1.67-1.363,2.607
		s-1.255,1.807-2.094,2.607c-0.84,0.801-1.861,1.475-3.062,2.021s-2.621,0.82-4.262,0.82c-0.392,0-0.752-0.015-1.084-0.044
		c-0.333-0.029-0.655-0.068-0.967-0.117c-0.312-0.049-0.621-0.107-0.924-0.176s-0.629-0.151-0.98-0.249l0.996-6.211
		c0.332,0,0.756,0.015,1.273,0.044s0.934,0.044,1.246,0.044c0.645,0,1.215-0.195,1.713-0.586s0.924-0.82,1.275-1.289
		s0.634-0.898,0.85-1.289c0.215-0.391,0.361-0.586,0.439-0.586l1.963-3.691l-13.418-30.352h8.906L326.672,47.444z"/>
	<path fill="#795DA3" d="M356.555,29.046l0.498,4.395c1.132-1.582,2.509-2.808,4.131-3.677c1.621-0.869,3.417-1.304,5.391-1.304
		c1.601,0,3.065,0.234,4.395,0.703c1.328,0.469,2.475,1.216,3.441,2.241s1.719,2.344,2.256,3.955s0.807,3.569,0.807,5.874v19.512
		h-8.145V41.351c0-1.25-0.143-2.28-0.426-3.091s-0.688-1.45-1.215-1.919s-1.162-0.796-1.904-0.981
		c-0.743-0.186-1.582-0.278-2.52-0.278c-1.388,0-2.568,0.278-3.545,0.835c-0.978,0.557-1.769,1.323-2.373,2.3v22.529h-8.174V29.046
		H356.555z"/>
	<path fill="#795DA3" d="M400.119,21.282v7.764h11.836v6.006h-11.836v13.623c0,1.152,0.131,2.114,0.395,2.886
		s0.641,1.387,1.129,1.846s1.078,0.786,1.771,0.981s1.471,0.293,2.33,0.293c0.625,0,1.264-0.029,1.918-0.088s1.279-0.132,1.875-0.22
		s1.152-0.181,1.67-0.278s0.963-0.195,1.334-0.293l0.791,5.596c-0.566,0.332-1.23,0.62-1.992,0.864s-1.572,0.444-2.432,0.601
		s-1.754,0.278-2.682,0.366s-1.84,0.132-2.738,0.132c-1.738,0-3.316-0.229-4.732-0.688s-2.627-1.172-3.633-2.139
		s-1.781-2.197-2.328-3.691s-0.82-3.286-0.82-5.376V35.052h-7.236v-6.006h7.236v-7.764H400.119z"/>
	<path fill="#795DA3" d="M440.989,60.745c-0.195-0.391-0.361-0.84-0.498-1.348s-0.254-1.045-0.352-1.611
		c-0.449,0.488-0.967,0.947-1.553,1.377s-1.236,0.806-1.949,1.128s-1.498,0.576-2.357,0.762s-1.787,0.278-2.783,0.278
		c-1.621,0-3.111-0.234-4.469-0.703s-2.523-1.123-3.5-1.963s-1.738-1.841-2.285-3.003s-0.82-2.427-0.82-3.794
		c0-3.34,1.244-5.923,3.734-7.749s6.207-2.739,11.148-2.739h4.541v-1.875c0-1.523-0.498-2.729-1.494-3.618s-2.432-1.333-4.307-1.333
		c-1.66,0-2.871,0.356-3.633,1.069s-1.143,1.665-1.143,2.856h-8.145c0-1.348,0.297-2.627,0.893-3.838s1.465-2.275,2.607-3.193
		s2.539-1.646,4.189-2.183s3.541-0.806,5.67-0.806c1.914,0,3.695,0.234,5.346,0.703s3.082,1.162,4.293,2.08s2.158,2.075,2.842,3.472
		s1.025,3.013,1.025,4.849v13.594c0,1.699,0.107,3.105,0.322,4.219s0.527,2.07,0.938,2.871v0.498H440.989z M433.225,55.032
		c0.82,0,1.582-0.098,2.285-0.293s1.338-0.449,1.904-0.762s1.055-0.669,1.465-1.069s0.732-0.806,0.967-1.216v-5.449h-4.16
		c-1.27,0-2.354,0.122-3.252,0.366s-1.631,0.586-2.197,1.025s-0.986,0.967-1.26,1.582s-0.41,1.284-0.41,2.007
		c0,1.094,0.385,2.002,1.156,2.725S431.662,55.032,433.225,55.032z"/>
	<path fill="#795DA3" d="M471.692,38.948l6.973-9.902h8.76l-10.635,15.557l11.016,16.143h-8.789l-7.295-10.371l-7.236,10.371h-8.818
		l11.016-16.143l-10.605-15.557h8.76L471.692,38.948z"/>
</g>
<g enable-background="new    ">
	<path fill="#000333" d="M499.171,43.401c0-2.754,0.21-5.347,0.63-7.778s0.991-4.678,1.714-6.738c0.722-2.061,1.567-3.94,2.534-5.64
		s1.987-3.203,3.062-4.512c1.073-1.309,2.183-2.417,3.325-3.325s2.251-1.606,3.325-2.095l1.582,4.453
		c-1.095,0.84-2.188,1.968-3.281,3.384c-1.095,1.416-2.075,3.174-2.944,5.273s-1.578,4.546-2.124,7.339
		c-0.547,2.793-0.82,5.986-0.82,9.58v0.762c0,3.613,0.273,6.816,0.82,9.609c0.546,2.793,1.255,5.239,2.124,7.339
		s1.85,3.862,2.944,5.288c1.094,1.426,2.187,2.559,3.281,3.398l-1.582,4.395c-1.074-0.488-2.183-1.191-3.325-2.109
		s-2.252-2.026-3.325-3.325c-1.074-1.299-2.095-2.798-3.062-4.497s-1.812-3.579-2.534-5.64c-0.723-2.061-1.294-4.302-1.714-6.724
		s-0.63-5.02-0.63-7.793V43.401z"/>
	<path fill="#000333" d="M550.88,44.046c0,2.676-0.216,5.21-0.645,7.603c-0.43,2.393-1.016,4.624-1.758,6.694
		c-0.743,2.07-1.606,3.96-2.593,5.669s-2.036,3.232-3.149,4.57s-2.256,2.476-3.428,3.413s-2.314,1.65-3.428,2.139l-1.553-4.395
		c1.073-0.82,2.157-1.943,3.252-3.369c1.094-1.426,2.08-3.184,2.959-5.273s1.592-4.541,2.139-7.354
		c0.546-2.812,0.82-6.025,0.82-9.639v-0.762c0-3.594-0.283-6.797-0.85-9.609c-0.567-2.812-1.289-5.273-2.168-7.383
		s-1.86-3.877-2.944-5.303s-2.153-2.549-3.208-3.369l1.553-4.365c1.113,0.488,2.256,1.201,3.428,2.139s2.314,2.075,3.428,3.413
		s2.163,2.861,3.149,4.57s1.85,3.599,2.593,5.669c0.742,2.07,1.328,4.302,1.758,6.694c0.429,2.393,0.645,4.927,0.645,7.603V44.046z"
		/>
	<path fill="#000333" d="M584.103,60.101c0,1.113-0.151,2.256-0.454,3.428s-0.718,2.305-1.245,3.398s-1.157,2.129-1.89,3.105
		s-1.52,1.846-2.358,2.607l-4.307-2.227c0.37-0.703,0.718-1.416,1.04-2.139s0.601-1.484,0.835-2.285s0.42-1.65,0.557-2.549
		c0.136-0.898,0.205-1.885,0.205-2.959v-6.855h7.646L584.103,60.101z M574.991,31.829c0-0.762,0.127-1.47,0.381-2.124
		c0.253-0.654,0.625-1.221,1.113-1.699c0.487-0.479,1.084-0.859,1.787-1.143s1.494-0.425,2.373-0.425s1.67,0.142,2.373,0.425
		s1.294,0.664,1.772,1.143s0.85,1.045,1.113,1.699s0.396,1.362,0.396,2.124c0,0.742-0.132,1.436-0.396,2.08
		s-0.635,1.206-1.113,1.685s-1.069,0.854-1.772,1.128s-1.494,0.41-2.373,0.41s-1.67-0.137-2.373-0.41s-1.3-0.649-1.787-1.128
		c-0.488-0.479-0.86-1.04-1.113-1.685C575.118,33.265,574.991,32.571,574.991,31.829z"/>
</g>
</svg>
