<?xml version="1.0" encoding="utf-8"?>
<!-- Generator: Adobe Illustrator 15.0.0, SVG Export Plug-In . SVG Version: 6.00 Build 0)  -->
<!DOCTYPE svg PUBLIC "-//W3C//DTD SVG 1.1//EN" "http://www.w3.org/Graphics/SVG/1.1/DTD/svg11.dtd">
<svg version="1.1" id="Ebene_1" xmlns="http://www.w3.org/2000/svg" xmlns:xlink="http://www.w3.org/1999/xlink" x="0px" y="0px"
	 width="600px" height="80px" viewBox="0 0 600 80" enable-background="new 0 0 600 80" xml:space="preserve">
<g>
	<g id="g10" transform="matrix(1.25,0,0,-1.25,0,47.5)">
		<g id="g12">
			<g>
				<defs>
					<rect id="SVGID_1_" x="0.214" y="-26.471" width="65.856" height="65.856"/>
				</defs>
				<clipPath id="SVGID_2_">
					<use xlink:href="#SVGID_1_"  overflow="visible"/>
				</clipPath>
				<g id="g14" clip-path="url(#SVGID_2_)">
					<g id="g20" transform="translate(29.1045,16.917)">
						<path id="path22" fill="#8899A6" d="M18.047-13.347c-0.864,0-1.701-0.109-2.508-0.295L1.144,0.753
							C1.33,1.559,1.439,2.397,1.439,3.261c0,6.142-4.98,11.12-11.121,11.12c-1.252,0-2.917-1.271-1.531-2.657l4.159-4.159
							c0,0,1.387-2.773-1.386-5.546c-2.773-2.773-5.546-1.386-5.546-1.386l-4.16,4.16c-1.386,1.387-2.657-0.272-2.657-1.531
							c0-6.141,4.979-11.121,11.121-11.121c0.864,0,1.7,0.109,2.507,0.294L7.221-21.961c-0.186-0.808-0.294-1.644-0.294-2.507
							c0-6.142,4.979-11.122,11.12-11.122c1.25,0,2.917,1.272,1.53,2.659l-4.159,4.159c0,0-1.387,2.773,1.387,5.546
							c2.772,2.773,5.546,1.387,5.546,1.387l4.159-4.16c1.386-1.387,2.658,0.272,2.658,1.531
							C29.168-18.328,24.189-13.347,18.047-13.347"/>
					</g>
				</g>
			</g>
		</g>
	</g>
</g>
<rect x="93" y="15.745" fill="none" width="508" height="60"/>
<text transform="matrix(1 0 0 1 93 60.7451)"><tspan x="0" y="0" fill="#795DA3" font-family="'RobotoMono-Bold'" font-size="60">EmojiSyntax</tspan><tspan x="396.064" y="0" fill="#000333" font-family="'RobotoMono-Bold'" font-size="60">();</tspan></text>
</svg>
