<svg xmlns="http://www.w3.org/2000/svg" xmlns:xlink="http://www.w3.org/1999/xlink" width="600" height="80" viewBox="0 0 600 80"><g transform="matrix(1.25 0 0 -1.25 0 47.5)"><defs><path id="a" d="M-8.018-34.703h82.32v82.32H-8.02z"/></defs><clipPath id="b"><use xlink:href="#a" overflow="visible"/></clipPath><g clip-path="url(#b)"><path fill="#8899A6" d="M47.151 3.57c-.862 0-1.7-.11-2.507-.295L30.247 17.67c.186.806.295 1.644.295 2.508 0 6.142-4.98 11.12-11.12 11.12-1.25 0-2.916-1.27-1.53-2.657l4.16-4.158s1.386-2.773-1.387-5.546c-2.773-2.773-5.546-1.386-5.546-1.386l-4.16 4.16c-1.385 1.387-2.656-.272-2.656-1.53 0-6.142 4.98-11.122 11.12-11.122.864 0 1.7.11 2.508.294L36.326-5.044c-.186-.808-.294-1.644-.294-2.508 0-6.14 4.98-11.122 11.12-11.122 1.25 0 2.916 1.272 1.53 2.66l-4.16 4.158S43.137-9.083 45.91-6.31c2.772 2.772 5.546 1.386 5.546 1.386l4.16-4.16c1.385-1.387 2.658.272 2.658 1.53 0 6.143-4.98 11.124-11.122 11.124"/></g></g><path fill="none" d="M93 15.745h508v60H93z"/><g fill="#795DA3"><path d="M123.088 42.054h-17.52v12.04h20.48v6.65h-28.74V18.09h28.65v6.708h-20.39V35.55h17.52v6.504zM138.205 29.046l.234 3.838c.604-1.367 1.44-2.446 2.504-3.237 1.064-.79 2.358-1.187 3.882-1.187 2.56 0 4.23 1.123 5.01 3.37.625-1.056 1.42-1.88 2.388-2.477s2.134-.894 3.5-.894c.958 0 1.85.175 2.682.526.83.352 1.553.913 2.168 1.685s1.094 1.77 1.436 2.99c.34 1.22.513 2.71.513 4.467v22.617h-7.412V38.1c0-.606-.062-1.105-.19-1.495-.126-.39-.297-.698-.512-.923-.215-.225-.464-.38-.747-.47-.282-.087-.57-.13-.863-.13-.567 0-1.045.13-1.436.395-.39.264-.692.62-.907 1.07v24.198h-7.178V38.07c0-.606-.06-1.105-.176-1.495s-.28-.693-.484-.908-.444-.366-.718-.454c-.274-.088-.567-.132-.88-.132-.624 0-1.127.177-1.508.528s-.68.82-.894 1.406v23.73h-7.412V29.046h7zM168.03 44.603c0-2.305.33-4.438.995-6.4.664-1.964 1.636-3.668 2.915-5.113 1.28-1.445 2.842-2.578 4.688-3.398s3.96-1.23 6.343-1.23c2.384 0 4.502.41 6.358 1.23 1.855.82 3.423 1.953 4.702 3.398 1.28 1.445 2.25 3.15 2.915 5.112.664 1.963.996 4.097.996 6.4v.616c0 2.324-.332 4.468-.995 6.43-.664 1.964-1.63 3.668-2.9 5.113-1.27 1.446-2.832 2.574-4.688 3.385-1.856.81-3.965 1.216-6.328 1.216-2.384 0-4.508-.404-6.373-1.215-1.865-.81-3.438-1.938-4.717-3.384-1.28-1.444-2.25-3.148-2.915-5.11-.664-1.964-.996-4.107-.996-6.432v-.615zm8.144.615c0 1.328.127 2.573.38 3.735.254 1.162.655 2.178 1.202 3.047.546.87 1.255 1.558 2.124 2.065.87.508 1.92.762 3.15.762 1.19 0 2.215-.254 3.075-.762.86-.508 1.557-1.196 2.095-2.065.537-.87.933-1.885 1.187-3.047.253-1.162.38-2.407.38-3.735v-.615c0-1.29-.126-2.51-.38-3.662-.254-1.15-.65-2.167-1.187-3.046-.538-.88-1.235-1.572-2.095-2.08-.86-.508-1.904-.762-3.135-.762-1.21 0-2.246.254-3.105.762-.86.508-1.563 1.2-2.11 2.08-.546.88-.947 1.895-1.2 3.047-.254 1.153-.38 2.374-.38 3.663v.615zM210.01 29.046h16.23v32.432c0 2.11-.302 3.92-.907 5.435-.605 1.514-1.484 2.764-2.637 3.75-1.153.986-2.56 1.714-4.22 2.183-1.66.47-3.554.703-5.683.703-.88 0-1.768-.035-2.666-.104-.898-.068-1.758-.2-2.578-.396l.41-6.62c.233.058.56.11.98.16.42.05.85.088 1.29.117s.858.05 1.26.06c.4.01.697.014.893.014.78 0 1.52-.087 2.212-.263.693-.176 1.29-.47 1.787-.88s.894-.95 1.187-1.625.438-1.52.438-2.534V35.696h-7.998v-6.65zm7.443-8.115c0-.624.112-1.205.337-1.742.224-.537.537-.996.938-1.377.4-.38.89-.678 1.465-.893.576-.215 1.216-.322 1.92-.322 1.444 0 2.592.405 3.44 1.216s1.275 1.852 1.275 3.12-.425 2.31-1.274 3.12-1.997 1.217-3.442 1.217c-.703 0-1.343-.107-1.92-.322-.575-.215-1.064-.513-1.464-.894-.4-.38-.713-.84-.938-1.376-.225-.537-.337-1.118-.337-1.743zM243.322 29.046h17.256v25.078h8.584v6.62h-25.84v-6.62h9.023V35.696h-9.023v-6.65zm8.438-8.115c0-.624.112-1.205.337-1.742.224-.537.542-.996.952-1.377s.902-.678 1.478-.893c.576-.215 1.216-.322 1.92-.322 1.444 0 2.592.405 3.44 1.216s1.275 1.852 1.275 3.12-.425 2.31-1.274 3.12-1.998 1.217-3.443 1.217c-.703 0-1.343-.107-1.92-.322-.575-.215-1.068-.513-1.478-.894s-.73-.84-.953-1.376c-.225-.537-.337-1.118-.337-1.743zM299.015 49.612c0-.762-.132-1.475-.396-2.14s-.714-1.283-1.35-1.86c-.634-.575-1.464-1.103-2.49-1.58s-2.3-.924-3.822-1.334c-1.856-.508-3.628-1.143-5.317-1.904-1.688-.762-3.178-1.68-4.467-2.754s-2.32-2.324-3.09-3.75c-.773-1.426-1.158-3.066-1.158-4.922 0-1.797.38-3.428 1.143-4.893s1.816-2.715 3.164-3.75 2.94-1.83 4.775-2.388c1.835-.557 3.828-.835 5.977-.835 2.227 0 4.263.322 6.108.967s3.432 1.547 4.76 2.71c1.33 1.16 2.363 2.543 3.106 4.145.742 1.602 1.113 3.36 1.113 5.273h-8.027c-.04-.957-.21-1.836-.513-2.637-.303-.8-.752-1.488-1.348-2.064-.596-.576-1.338-1.025-2.227-1.348-.89-.322-1.93-.483-3.12-.483-1.094 0-2.065.132-2.915.396s-1.567.636-2.153 1.114-1.03 1.045-1.333 1.7c-.303.653-.454 1.36-.454 2.123 0 .8.2 1.523.6 2.168.4.645.982 1.226 1.744 1.743s1.685.99 2.77 1.42 2.31.83 3.676 1.202c1.953.566 3.75 1.26 5.39 2.08 1.642.82 3.052 1.792 4.234 2.915s2.1 2.402 2.754 3.838.982 3.032.982 4.79c0 1.875-.377 3.54-1.13 4.995s-1.79 2.686-3.118 3.69c-1.33 1.007-2.91 1.77-4.747 2.286-1.836.518-3.838.776-6.006.776-1.35 0-2.692-.122-4.03-.366-1.337-.244-2.617-.62-3.837-1.128-1.22-.508-2.358-1.143-3.413-1.904s-1.968-1.65-2.74-2.666c-.77-1.016-1.376-2.168-1.815-3.457s-.66-2.716-.66-4.278h8.087c.04 1.29.264 2.393.674 3.31s.98 1.67 1.714 2.257 1.61 1.015 2.637 1.288 2.153.41 3.384.41c1.095 0 2.066-.127 2.916-.38s1.567-.606 2.153-1.056 1.034-.99 1.347-1.626c.312-.634.468-1.332.468-2.094zM326.672 47.444l.938 3.398 8.438-21.797h8.994L328.958 65.49c-.352.8-.807 1.67-1.363 2.607s-1.255 1.807-2.094 2.607c-.84.8-1.86 1.475-3.06 2.02s-2.622.82-4.263.82c-.392 0-.752-.014-1.084-.043-.333-.028-.655-.067-.967-.116-.312-.05-.62-.107-.924-.176s-.63-.15-.98-.25l.996-6.21c.332 0 .756.015 1.273.044s.935.044 1.247.044c.645 0 1.215-.195 1.713-.586s.924-.82 1.275-1.29.634-.897.85-1.288c.215-.39.36-.586.44-.586l1.962-3.69-13.418-30.353h8.905l7.207 18.4zM356.555 29.046l.498 4.395c1.132-1.58 2.51-2.807 4.13-3.676 1.622-.87 3.418-1.304 5.392-1.304 1.6 0 3.065.234 4.395.703 1.328.47 2.475 1.216 3.44 2.24s1.72 2.345 2.257 3.956.807 3.568.807 5.873v19.512h-8.145V41.35c0-1.25-.144-2.28-.427-3.09s-.688-1.45-1.215-1.92-1.162-.795-1.904-.98c-.743-.186-1.582-.278-2.52-.278-1.388 0-2.568.278-3.545.835-.98.557-1.77 1.323-2.374 2.3v22.53h-8.174v-31.7h7.383zM400.12 21.282v7.764h11.835v6.006H400.12v13.623c0 1.152.13 2.114.394 2.886s.64 1.388 1.13 1.847 1.077.786 1.77.98 1.47.294 2.33.294c.625 0 1.264-.028 1.918-.087s1.28-.132 1.875-.22 1.152-.18 1.67-.278.963-.195 1.334-.293l.792 5.596c-.566.332-1.23.62-1.992.864s-1.572.444-2.432.6-1.754.28-2.682.367-1.84.13-2.738.13c-1.738 0-3.316-.228-4.732-.687s-2.627-1.172-3.633-2.14-1.78-2.196-2.328-3.69-.82-3.286-.82-5.376V35.052h-7.236v-6.006h7.235v-7.764h8.144zM440.99 60.745c-.196-.39-.362-.84-.5-1.348s-.253-1.045-.35-1.61c-.45.487-.968.946-1.554 1.376s-1.236.806-1.95 1.128-1.497.577-2.356.763-1.787.278-2.783.278c-1.62 0-3.11-.233-4.47-.702s-2.522-1.123-3.5-1.963-1.737-1.84-2.284-3.003-.82-2.427-.82-3.794c0-3.34 1.244-5.923 3.734-7.75s6.207-2.738 11.148-2.738h4.54v-1.875c0-1.523-.497-2.73-1.493-3.618s-2.432-1.333-4.307-1.333c-1.66 0-2.87.356-3.633 1.07s-1.143 1.664-1.143 2.855h-8.146c0-1.35.297-2.628.893-3.84s1.465-2.274 2.607-3.192 2.54-1.646 4.19-2.183 3.54-.806 5.67-.806c1.913 0 3.694.233 5.345.702s3.08 1.162 4.292 2.08 2.158 2.075 2.842 3.472 1.025 3.013 1.025 4.85v13.593c0 1.7.106 3.105.32 4.22s.528 2.07.94 2.87v.498h-8.26zm-7.765-5.713c.82 0 1.582-.098 2.285-.293s1.338-.45 1.904-.763 1.055-.67 1.465-1.07.73-.805.966-1.215v-5.45h-4.16c-1.27 0-2.354.123-3.252.367s-1.63.585-2.197 1.024-.986.967-1.26 1.582-.41 1.284-.41 2.007c0 1.094.385 2.002 1.156 2.725s1.94 1.084 3.502 1.084zM471.692 38.948l6.973-9.902h8.76L476.79 44.603l11.016 16.143h-8.79l-7.294-10.37-7.236 10.37h-8.818l11.016-16.143-10.605-15.557h8.76l6.852 9.902z"/></g><g fill="#000333"><path d="M499.17 43.4c0-2.753.21-5.346.63-7.777s.992-4.678 1.715-6.738c.722-2.06 1.567-3.94 2.534-5.64s1.986-3.203 3.06-4.512c1.074-1.31 2.184-2.417 3.326-3.325s2.25-1.606 3.325-2.095l1.583 4.453c-1.095.84-2.188 1.968-3.28 3.384-1.096 1.416-2.076 3.174-2.945 5.273s-1.578 4.546-2.124 7.34c-.547 2.792-.82 5.985-.82 9.58v.76c0 3.614.273 6.817.82 9.61.546 2.793 1.255 5.24 2.124 7.34s1.85 3.86 2.944 5.287c1.094 1.426 2.187 2.56 3.28 3.398l-1.58 4.395c-1.075-.488-2.184-1.19-3.326-2.11S508.184 70 507.11 68.7c-1.073-1.3-2.094-2.8-3.06-4.498s-1.813-3.58-2.535-5.64c-.723-2.06-1.294-4.302-1.714-6.724s-.63-5.02-.63-7.793V43.4zM550.88 44.046c0 2.676-.216 5.21-.645 7.603-.43 2.392-1.016 4.623-1.758 6.693-.743 2.07-1.606 3.96-2.593 5.67s-2.036 3.23-3.15 4.57-2.255 2.475-3.427 3.412-2.314 1.65-3.428 2.14l-1.554-4.396c1.073-.82 2.157-1.944 3.252-3.37 1.094-1.426 2.08-3.184 2.96-5.273s1.59-4.54 2.138-7.354c.546-2.812.82-6.025.82-9.64v-.76c0-3.595-.283-6.798-.85-9.61-.567-2.812-1.29-5.273-2.168-7.383s-1.86-3.877-2.944-5.303-2.153-2.55-3.208-3.37l1.553-4.364c1.112.488 2.255 1.2 3.427 2.14s2.314 2.074 3.428 3.412 2.163 2.86 3.15 4.57 1.85 3.6 2.592 5.67 1.328 4.3 1.758 6.693c.43 2.393.645 4.927.645 7.603v.646zM584.103 60.1c0 1.114-.15 2.257-.454 3.43s-.72 2.304-1.246 3.397-1.157 2.13-1.89 3.105-1.52 1.846-2.358 2.607l-4.307-2.228c.37-.703.717-1.416 1.04-2.14s.6-1.483.834-2.284.42-1.65.557-2.55c.137-.897.206-1.884.206-2.958v-6.855h7.646l-.03 6.476zm-9.112-28.27c0-.763.128-1.47.382-2.125.253-.654.625-1.22 1.113-1.7.487-.478 1.084-.858 1.787-1.142s1.494-.425 2.373-.425 1.67.142 2.373.425 1.294.664 1.772 1.143.85 1.045 1.113 1.7.396 1.36.396 2.123c0 .74-.133 1.435-.397 2.08s-.635 1.205-1.113 1.684-1.07.854-1.772 1.128-1.494.41-2.373.41-1.67-.137-2.373-.41-1.3-.65-1.787-1.128c-.488-.48-.86-1.04-1.113-1.685-.254-.645-.38-1.34-.38-2.08z"/></g></svg>