<svg xmlns="http://www.w3.org/2000/svg" viewBox="0 0 64 64"><path fill="#d0d0d0" d="M62 52c0 5.523-4.478 10-10 10H12C6.478 62 2 57.523 2 52V12C2 6.477 6.478 2 12 2h40c5.522 0 10 4.477 10 10v40"/><path fill="#fff" d="M57 45.666A8.333 8.333 0 0 1 48.667 54H15.333A8.333 8.333 0 0 1 7 45.666V12.333A8.333 8.333 0 0 1 15.333 4h33.334A8.333 8.333 0 0 1 57 12.333v33.333z"/><path fill="#9aa0a5" d="M49.37 24.921l1.635-5.979h-6.104l1.635-5.979h-6.101l-1.637 5.979h-8.137l1.635-5.979h-6.102l-1.637 5.979h-6.102l-1.635 5.979h6.102l-2.18 7.973h-6.104l-1.633 5.979h6.104l-1.637 5.98h6.104l1.635-5.98h8.139l-1.637 5.98h6.104l1.635-5.98h6.104l1.635-5.979h-6.102l2.18-7.973h6.101m-14.386 7.973h-8.137l2.18-7.973h8.137l-2.18 7.973"/></svg>