<svg xmlns="http://www.w3.org/2000/svg" viewBox="0 0 64 64"><path fill="#d0d0d0" d="M62 52c0 5.523-4.478 10-10 10H12C6.477 62 2 57.523 2 52V12C2 6.477 6.477 2 12 2h40c5.522 0 10 4.477 10 10v40z"/><path fill="#fff" d="M57 45.666A8.333 8.333 0 0 1 48.667 54H15.333A8.333 8.333 0 0 1 7 45.666V12.333A8.333 8.333 0 0 1 15.333 4h33.333A8.333 8.333 0 0 1 57 12.333v33.333z"/><path fill="#9aa0a5" d="M45.47 33.29c.377.161.55.477.523.943-.027.469-.35 1.223-.966 2.264-.618 1.072-1.121 1.725-1.51 1.967-.389.24-.745.24-1.067 0l-8.573-6.216 1.128 10.508c.079.399-.096.708-.524.921-.429.215-1.262.322-2.496.322-1.236 0-2.066-.107-2.496-.322-.43-.213-.604-.521-.523-.921l1.127-10.508-8.533 6.216c-.322.24-.685.24-1.087 0-.402-.242-.913-.895-1.53-1.967-.618-1.041-.933-1.795-.946-2.264-.015-.467.167-.782.543-.943L28.241 29l-9.701-4.251c-.376-.187-.558-.515-.543-.983.013-.467.328-1.223.946-2.265.617-1.044 1.127-1.685 1.53-1.926.402-.24.765-.24 1.087 0l8.533 6.176-1.127-10.467c-.08-.428.094-.749.523-.963s1.26-.322 2.496-.322c1.233 0 2.066.108 2.495.322s.604.535.524.963L33.876 25.75l8.573-6.176c.322-.24.679-.24 1.067 0 .389.242.892.897 1.51 1.966.616 1.016.938 1.758.966 2.225.026.469-.146.796-.523.983l-9.701 4.251 9.702 4.291"/></svg>