<svg xmlns="http://www.w3.org/2000/svg" viewBox="0 0 64 64"><path fill="#d0d0d0" d="M62 52c0 5.523-4.478 10-10 10H12C6.478 62 2 57.523 2 52V12C2 6.477 6.478 2 12 2h40c5.522 0 10 4.477 10 10v40"/><path fill="#fff" d="M57 45.666A8.333 8.333 0 0 1 48.667 54H15.333A8.333 8.333 0 0 1 7 45.666V12.334A8.333 8.333 0 0 1 15.333 4h33.334A8.333 8.333 0 0 1 57 12.334v33.332z"/><path fill="#9aa0a5" d="M32 13c2.983 0 5.315 1.082 6.996 3.25 2 2.564 3 6.818 3 12.762 0 5.928-1.01 10.189-3.02 12.783C37.309 43.932 34.984 45 32.001 45c-2.997 0-5.414-1.172-7.248-3.516-1.834-2.345-2.752-6.523-2.752-12.537 0-5.9 1.01-10.146 3.02-12.74C26.688 14.07 29.013 13 31.996 13m0 4.98c-.715 0-1.352.232-1.912.695s-.994 1.293-1.303 2.49c-.405 1.553-.608 4.168-.608 7.846 0 3.676.182 6.203.546 7.578.363 1.375.822 2.291 1.377 2.746.553.457 1.186.684 1.9.684s1.352-.23 1.912-.693c.561-.465.994-1.295 1.303-2.492.405-1.539.608-4.146.608-7.822 0-3.678-.182-6.203-.546-7.58-.363-1.373-.822-2.293-1.377-2.756a2.873 2.873 0 0 0-1.9-.696"/></svg>