<svg xmlns="http://www.w3.org/2000/svg" viewBox="0 0 64 64"><path fill="#d0d0d0" d="M62 52c0 5.523-4.478 10-10 10H12C6.478 62 2 57.523 2 52V12C2 6.477 6.478 2 12 2h40c5.522 0 10 4.477 10 10v40"/><path fill="#fff" d="M57 45.666A8.333 8.333 0 0 1 48.667 54H15.333A8.333 8.333 0 0 1 7 45.666V12.334A8.333 8.333 0 0 1 15.333 4h33.334A8.333 8.333 0 0 1 57 12.334v33.332z"/><path fill="#9aa0a5" d="M33.662 45v-6.414H20v-5.348L34.481 13h5.374v20.217H44v5.369h-4.145V45h-6.193zm0-11.783V22.326l-7.674 10.891h7.674z"/></svg>