<svg xmlns="http://www.w3.org/2000/svg" viewBox="0 0 64 64"><path fill="#d0d0d0" d="M62 52c0 5.523-4.478 10-10 10H12C6.478 62 2 57.523 2 52V12C2 6.477 6.478 2 12 2h40c5.522 0 10 4.477 10 10v40"/><path fill="#fff" d="M57 45.666A8.333 8.333 0 0 1 48.667 54H15.333A8.333 8.333 0 0 1 7 45.666V12.334A8.333 8.333 0 0 1 15.333 4h33.334A8.333 8.333 0 0 1 57 12.334v33.332z"/><path fill="#9aa0a5" d="M23 18.775V13h20v4.514c-1.651 1.727-3.33 4.205-5.04 7.436a44.858 44.858 0 0 0-3.903 10.303c-.895 3.637-1.335 6.887-1.321 9.748h-5.64c.098-4.484.968-9.06 2.612-13.721 1.644-4.662 3.84-8.83 6.586-12.504H22.996"/></svg>