<svg xmlns="http://www.w3.org/2000/svg" viewBox="0 0 64 64"><g fill="#94989b"><path d="M32 62C15.457 62 2 48.541 2 32S15.457 2 32 2s30 13.459 30 30-13.457 30-30 30m0-55.861C17.738 6.139 6.136 17.74 6.136 32c0 14.262 11.602 25.863 25.863 25.863 14.26 0 25.862-11.602 25.862-25.863C57.861 17.74 46.26 6.139 32 6.139"/><path d="M32.34 50c-9.56 0-17.335-8.08-17.335-18 0-9.924 7.775-18 17.336-18 5.768 0 11.141 2.965 14.374 7.937l-3.379 2.37c-2.475-3.802-6.584-6.072-10.995-6.072-7.311 0-13.258 6.176-13.258 13.766s5.947 13.764 13.258 13.764c4.575 0 8.768-2.399 11.217-6.422l3.447 2.261C43.806 46.861 38.321 50 32.34 50"/></g></svg>