<svg xmlns="http://www.w3.org/2000/svg" viewBox="0 0 64 64"><g fill="#94989b"><path d="M32 62C15.457 62 2 48.543 2 32 2 15.458 15.457 2 32 2c16.541 0 30 13.458 30 30 0 16.543-13.459 30-30 30m0-56C17.664 6 6 17.663 6 32c0 14.338 11.664 26 26 26s26-11.662 26-26C58 17.663 46.336 6 32 6"/><path d="M48 27.301C48 20.519 42.797 15 36.4 15H20v33.207h4V39.6h11.1l4.271 9.4 3.656-1.584-3.734-8.22C44.291 37.828 48 33.022 48 27.301zm-11.6 8.392H24V18.906h12.4c4.189 0 7.6 3.766 7.6 8.395 0 4.627-3.41 8.392-7.6 8.392z"/></g></svg>