<svg xmlns="http://www.w3.org/2000/svg" viewBox="0 0 64 64"><path fill="#ed4c5c" d="M62 52c0 5.523-4.477 10-10 10H12C6.477 62 2 57.523 2 52V12C2 6.477 6.477 2 12 2h40c5.523 0 10 4.477 10 10v40z"/><g fill="#fff"><path d="M28.14 45h3.861l-8.807-26h-4.388l-8.805 26h3.862l3.082-9.1h8.111L28.14 45m-9.873-13l2.734-8.07L23.737 32h-5.47M52 26.535C52 22.391 49.768 19 46 19H36v26l9.169-.017c3.768 0 6.831-3.374 6.831-7.516 0-2.155-.828-4.097-2.15-5.468 1.322-1.37 2.15-3.311 2.15-5.464m-6.831 14.348h-5.624v-6.832h5.624c1.712 0 3.105 1.531 3.105 3.417 0 1.882-1.393 3.415-3.105 3.415m0-10.931h-5.624v-6.835h5.624c1.712 0 3.105 1.535 3.105 3.418s-1.393 3.417-3.105 3.417"/></g></svg>