<svg xmlns="http://www.w3.org/2000/svg" viewBox="0 0 64 64"><path fill="#ed4c5c" d="M62 52c0 5.523-4.477 10-10 10H12C6.477 62 2 57.523 2 52V12C2 6.477 6.477 2 12 2h40c5.523 0 10 4.477 10 10v40z"/><g fill="#fff"><path d="M23 43.09c-2.375 0-4.309-2.048-4.309-4.565v-13.04c0-2.518 1.934-4.565 4.309-4.565s4.309 2.048 4.309 4.565H31a8.873 8.873 0 0 0-.629-3.303 8.47 8.47 0 0 0-1.714-2.693 7.994 7.994 0 0 0-2.541-1.816c-.989-.442-2.036-.667-3.116-.667s-2.129.225-3.114.666a7.995 7.995 0 0 0-2.543 1.816 8.538 8.538 0 0 0-1.714 2.693A8.882 8.882 0 0 0 15 25.485v13.04a8.85 8.85 0 0 0 .629 3.3 8.47 8.47 0 0 0 1.714 2.694 7.952 7.952 0 0 0 2.543 1.817c.985.442 2.034.667 3.114.667s2.127-.225 3.116-.667a7.981 7.981 0 0 0 2.541-1.817 8.452 8.452 0 0 0 1.714-2.694 8.85 8.85 0 0 0 .629-3.3h-3.691c0 2.517-1.934 4.565-4.309 4.565M49 43.09h-8.307V17H37v30h12z"/></g></svg>