<svg xmlns="http://www.w3.org/2000/svg" viewBox="0 0 64 64"><path fill="#ed4c5c" d="M62 52c0 5.523-4.477 10-10 10H12C6.476 62 2 57.523 2 52V12C2 6.477 6.476 2 12 2h40c5.523 0 10 4.477 10 10v40z"/><g fill="#fff"><path d="M22.99 34.616a6.978 6.978 0 0 0-1.484-2.142 7.076 7.076 0 0 0-2.175-1.472 6.66 6.66 0 0 0-2.665-.558c-1.91 0-3.934-1.89-3.934-3.674 0-2.01 1.664-3.646 3.711-3.646 2.046 0 3.928 1.611 3.928 3.622h3.181c0-.914-.182-1.801-.543-2.636a6.738 6.738 0 0 0-1.477-2.152 6.882 6.882 0 0 0-2.19-1.45c-.849-.354-1.969-.508-2.899-.508s-1.833.179-2.682.533a6.832 6.832 0 0 0-3.667 3.601 6.612 6.612 0 0 0-.543 2.637c0 1.685.804 3.41 2.201 4.736 1.383 1.311 3.174 2.063 4.913 2.063 1.938 0 3.705 1.744 3.705 3.658 0 2.01-1.664 3.646-3.711 3.646-2.046 0-3.928-1.658-3.928-3.668H9.552c0 .913.182 1.8.543 2.635a6.727 6.727 0 0 0 1.477 2.152 6.882 6.882 0 0 0 2.19 1.45c.848.356 1.968.557 2.898.557a6.93 6.93 0 0 0 2.682-.533 6.805 6.805 0 0 0 2.19-1.45 6.745 6.745 0 0 0 1.477-2.151 6.612 6.612 0 0 0 .543-2.637 6.41 6.41 0 0 0-.562-2.613M39 24.14a6.775 6.775 0 0 0-1.5-2.156 6.973 6.973 0 0 0-2.226-1.452c-.862-.354-1.779-.535-2.723-.535s-1.861.181-2.726.534a6.986 6.986 0 0 0-2.224 1.452 6.723 6.723 0 0 0-1.5 2.156 6.577 6.577 0 0 0-.551 2.641v10.435c0 .915.186 1.804.551 2.64a6.69 6.69 0 0 0 1.5 2.156 7.006 7.006 0 0 0 2.224 1.453c.864.353 1.781.533 2.726.533s1.861-.18 2.724-.533c.835-.342 1.584-.831 2.226-1.453s1.146-1.347 1.5-2.156a6.562 6.562 0 0 0 .551-2.64V26.78A6.587 6.587 0 0 0 39 24.14m-6.449 16.726c-2.078 0-3.77-1.637-3.77-3.651V26.78c0-2.01 1.691-3.652 3.77-3.652s3.77 1.639 3.77 3.652v10.435c-.001 2.01-1.692 3.651-3.77 3.651M54.993 34.616a7.112 7.112 0 0 0-3.66-3.614 6.678 6.678 0 0 0-2.665-.559c-1.914 0-3.935-1.889-3.935-3.673 0-2.01 1.664-3.646 3.711-3.646 2.046 0 3.927 1.611 3.927 3.622h3.181a6.716 6.716 0 0 0-2.018-4.788 6.91 6.91 0 0 0-2.19-1.45c-.852-.354-1.97-.508-2.9-.508s-1.833.179-2.685.532a6.862 6.862 0 0 0-2.188 1.45 6.712 6.712 0 0 0-2.02 4.789c0 1.684.802 3.41 2.201 4.736 1.384 1.311 3.175 2.063 4.915 2.063 1.938 0 3.703 1.744 3.703 3.658 0 2.01-1.665 3.646-3.712 3.646-2.046 0-3.926-1.658-3.926-3.67H41.55a6.69 6.69 0 0 0 2.02 4.789 6.907 6.907 0 0 0 2.188 1.45c.853.355 1.971.557 2.901.557a6.96 6.96 0 0 0 4.875-1.982 6.738 6.738 0 0 0 1.475-2.152c.36-.836.543-1.723.543-2.637 0-.893-.189-1.772-.559-2.613"/></g></svg>