<svg xmlns="http://www.w3.org/2000/svg" viewBox="0 0 64 64"><path fill="#f2b200" d="M62 52c0 5.523-4.477 10-10 10H12C6.477 62 2 57.523 2 52V12C2 6.477 6.477 2 12 2h40c5.523 0 10 4.477 10 10v40z"/><g fill="#fff"><path d="M44 30.17c-2.377 0-4.311-1.912-4.311-4.262 0-2.348 1.934-4.26 4.311-4.26 2.373 0 4.307 1.912 4.307 4.26h3.691c0-4.363-3.588-7.912-7.998-7.912-4.412 0-8 3.549-8 7.912s3.59 7.914 8 7.914c2.373 0 4.307 1.912 4.307 4.26 0 2.35-1.934 4.262-4.307 4.262-2.377 0-4.311-1.912-4.311-4.262h-3.691c0 4.363 3.59 7.914 8 7.914s7.998-3.551 7.998-7.914-3.588-7.912-7.998-7.912M24.58 46L34 18h-3.98l-6.86 20.38L15.998 18H12l9.848 28z"/></g></svg>