<svg xmlns="http://www.w3.org/2000/svg" viewBox="0 0 64 64"><path fill="#42ade2" d="M62 52c0 5.523-4.477 10-10 10H12C6.477 62 2 57.523 2 52V12C2 6.477 6.477 2 12 2h40c5.523 0 10 4.477 10 10v40z"/><g fill="#fff"><path d="M15 37.715c-1.378 0-2.5-1.026-2.5-2.286v-6.857c0-1.26 1.122-2.285 2.5-2.285s2.5 1.025 2.5 2.285H20C20 26.052 17.758 24 15 24c-2.756 0-5 2.052-5 4.571v6.857C10 37.95 12.245 40 15 40c2.758 0 5-2.05 5-4.571h-2.5c0 1.259-1.122 2.286-2.5 2.286M27 24c-2.756 0-5 2.052-5 4.571v6.857C22 37.95 24.244 40 27 40s5-2.05 5-4.571v-6.857C32 26.052 29.756 24 27 24m0 13.715c-1.377 0-2.5-1.026-2.5-2.286v-6.857c0-1.26 1.123-2.285 2.5-2.285 1.379 0 2.5 1.025 2.5 2.285v6.857c0 1.259-1.121 2.286-2.5 2.286M39 24c-2.758 0-5 2.052-5 4.571v6.857C34 37.949 36.242 40 39 40c2.756 0 5-2.051 5-4.571v-6.857C44 26.052 41.756 24 39 24m0 13.715c-1.377 0-2.5-1.026-2.5-2.286v-6.857c0-1.26 1.123-2.286 2.5-2.286 1.379 0 2.5 1.026 2.5 2.286v6.857c0 1.259-1.121 2.286-2.5 2.286M48.29 24H46v16h8v-2.285h-5.71z"/></g></svg>