<svg xmlns="http://www.w3.org/2000/svg" viewBox="0 0 64 64"><path fill="#42ade2" d="M62 52c0 5.523-4.477 10-10 10H12C6.477 62 2 57.523 2 52V12C2 6.477 6.477 2 12 2h40c5.523 0 10 4.477 10 10v40z"/><g fill="#fff"><path d="M44 42c-5.513 0-10-4.486-10-10s4.487-9.999 10-9.999a9.95 9.95 0 0 1 6.87 2.732l-2.29 2.421A6.64 6.64 0 0 0 44 25.333c-3.676 0-6.666 2.99-6.666 6.667s2.99 6.667 6.666 6.667a6.676 6.676 0 0 0 6.455-4.998H44v-3.335h10V32c0 5.515-4.484 10-10 10M26.667 22v14.31L12.356 22H10v20h3.334V27.688L27.644 42H30V22z"/></g></svg>