<svg xmlns="http://www.w3.org/2000/svg" viewBox="0 0 64 64"><path fill="#c28fef" d="M62 52c0 5.523-4.477 10-10 10H12C6.477 62 2 57.523 2 52V12C2 6.477 6.477 2 12 2h40c5.523 0 10 4.477 10 10v40z"/><g fill="#fff"><path d="M48.21 20.866a9.621 9.621 0 0 0-2.143-3.054 10.032 10.032 0 0 0-3.178-2.059A10.34 10.34 0 0 0 38.997 15h-10v34h10c1.348 0 2.657-.254 3.893-.756a9.991 9.991 0 0 0 3.178-2.059 9.6 9.6 0 0 0 2.143-3.054 9.267 9.267 0 0 0 .786-3.738V24.609a9.281 9.281 0 0 0-.787-3.743m-9.213 23.7h-5.384v-25.13h5.384c2.969 0 5.386 2.322 5.386 5.176v14.783c0 2.851-2.417 5.173-5.386 5.173M19 15h4v34h-4z"/></g></svg>