<svg xmlns="http://www.w3.org/2000/svg" viewBox="0 0 64 64"><g fill="#699635"><path d="M61.536 26.768C59.059 12.695 46.783 2 32 2 17.217 2 4.941 12.695 2.464 26.768L32 12l29.536 14.768zM2.464 37.232C4.941 51.305 17.217 62 32 62c14.783 0 27.059-10.695 29.536-24.768L32 52 2.464 37.232z"/></g><path fill="#ffe62e" d="M32 12L2.464 26.768C2.165 28.468 2 30.215 2 32s.165 3.532.464 5.232L32 52l29.536-14.768c.299-1.7.464-3.447.464-5.232s-.165-3.532-.464-5.232L32 12z"/><g fill="#428bc1"><path d="M25.997 28.435c-3.174 0-6.175.687-8.895 1.871C17.04 30.863 17 31.426 17 32c0 8.284 6.716 15 15 15 5.604 0 10.482-3.079 13.06-7.633C41.364 32.864 34.215 28.435 26 28.435"/><path d="M46.786 34.429c.13-.792.214-1.6.214-2.429 0-8.283-6.716-15-15-15-5.923 0-11.03 3.443-13.468 8.428a26.653 26.653 0 0 1 7.464-1.083c8.504-.001 16.05 3.974 20.79 10.08"/></g><g fill="#fff"><path d="M25.997 24.344c-2.598 0-5.097.394-7.464 1.083a14.884 14.884 0 0 0-1.43 4.878 22.224 22.224 0 0 1 8.895-1.871c8.215 0 15.365 4.429 19.06 10.932a14.857 14.857 0 0 0 1.729-4.938c-4.744-6.109-12.287-10.08-20.79-10.08"/><circle cx="22" cy="32" r="1"/><circle cx="26" cy="38" r="1"/><circle cx="32" cy="38" r="1"/><circle cx="32" cy="42" r="1"/><circle cx="40" cy="38" r="1"/><circle cx="40" cy="42" r="1"/><circle cx="36" cy="40" r="1"/><circle cx="22" cy="36" r="1"/></g></svg>