<svg xmlns="http://www.w3.org/2000/svg" viewBox="0 0 64 64"><g fill="#2a5f9e"><path d="M52.39 10c-5.352-4.962-12.514-8-20.387-8a29.88 29.88 0 0 0-20.389 8H52.39M11.611 54c5.354 4.963 12.514 8 20.389 8 7.873 0 15.03-3.037 20.387-8H11.611"/></g><path fill="#c94747" d="M2 32c0 4.267.896 8.324 2.504 12h54.992A29.862 29.862 0 0 0 62 32c0-4.268-.896-8.324-2.504-12H4.504A29.866 29.866 0 0 0 2 32z"/><g fill="#f9f9f9"><path d="M11.627 54h40.744A30.104 30.104 0 0 0 59.5 44h-55a30.07 30.07 0 0 0 7.127 10M52.37 10H11.626a30.108 30.108 0 0 0-7.127 10h55a30.057 30.057 0 0 0-7.129-10"/></g></svg>