<svg xmlns="http://www.w3.org/2000/svg" viewBox="0 0 64 64"><path fill="#ed4c5c" d="M32 2C18.939 2 7.833 10.35 3.714 22h56.572C56.167 10.35 45.061 2 32 2z"/><path fill="#428bc1" d="M32 62c13.06 0 24.17-8.35 28.29-20H3.72c4.119 11.65 15.225 20 28.29 20"/><path fill="#f9f9f9" d="M3.714 22C2.607 25.129 2 28.492 2 32s.607 6.871 1.714 10h56.572C61.393 38.871 62 35.508 62 32s-.607-6.871-1.714-10H3.714z"/><path fill="#fff" d="M42.883 25.17l2.642-5.989-2.01-3.25-3.334 1.234-2.342-2.676-3.085 1.768-2.75-2.253-2.751 2.253-3.085-1.768-2.341 2.676-3.335-1.235-2.01 3.251 2.638 5.99a26.333 26.333 0 0 1 10.887-2.343c3.874 0 7.559.838 10.882 2.342"/><path fill="#428bc1" d="M34.734 16.528l-.006.003L32 14.297l-2.722 2.23.513 6.18a26.492 26.492 0 0 1 4.43.001l.513-6.18"/><path fill="#ed4c5c" d="M32 50c6.208 0 11.286-5.078 11.286-11.286V25.303H20.714v13.411C20.714 44.922 25.793 50 32 50"/><path fill="#fff" d="M32 49.82c6.089 0 11.07-4.982 11.07-11.07V25.522H20.93V38.75c0 6.09 4.983 11.07 11.07 11.07"/><g fill="#ed4c5c"><path d="M25.605 25.937h-4.26v4.681h4.26v-4.681M25.605 35.3h4.261v-4.68h-4.261v4.68M21.345 38.723c0 .425.026.844.075 1.257h4.185v-4.682h-4.26v3.425M34.13 35.3h-4.261v4.682h4.261V35.3M34.13 44.66h4.261v-4.681H34.13v4.681"/><path d="M38.39 47.22a10.805 10.805 0 0 0 2.433-2.561H38.39v2.561M25.606 44.66h4.26v-4.681h-4.26v4.681M23.17 44.66c.665.982 1.49 1.85 2.437 2.563V44.66H23.17M32.738 49.34a10.55 10.55 0 0 0 1.389-.188v-4.493h-4.261v4.492c.452.093.914.156 1.384.188.496.031.993.029 1.488.001M42.568 39.979c.05-.414.076-.835.076-1.261v-3.42h-4.258v4.681h4.182"/><path d="M34.13 35.3h4.261v-4.68H34.13v4.68M34.13 25.937h-4.261v4.681h4.261v-4.681M42.645 30.618v-4.681h-4.257v4.681h4.257"/></g><path fill="#428bc1" d="M23.896 17.426l-.004.005-3.307-1.224-1.85 2.988.709 1.611 1.796 4.077a26.489 26.489 0 0 1 4.183-1.447l-1.527-6.01"/><path fill="#fff" d="M23.707 20.38c.118.225.186.48.186.75a1.62 1.62 0 0 1-1.616 1.617 1.62 1.62 0 0 1-1.586-1.308 1.624 1.624 0 0 0 3.016-1.059"/><path fill="#ffe62e" d="M22.23 18.14l-.01.03-.11.58.442.39.021.02-.027.01-.558.189-.114.58-.006.027-.02-.018-.446-.388-.559.19-.026.009.005-.026.113-.583-.445-.386-.02-.018.025-.009.555-.192.12-.58v-.027l.02.018.45.388.56-.194z"/><path fill="#2a5f9e" d="M29.28 16.526l-.005.005-3.06-1.753-2.317 2.648 1.526 6.01a26.553 26.553 0 0 1 4.368-.729l-.512-6.181"/><g fill="#ed4c5c"><path d="M25.04 21.944a27.93 27.93 0 0 1 4.621-.771l-.13-1.562a29.579 29.579 0 0 0-4.876.814l.385 1.519M24.277 18.924a31.186 31.186 0 0 1 5.129-.857l-.127-1.533a32.785 32.785 0 0 0-5.38.898l.378 1.492"/></g><g fill="#ffe62e"><path d="M31.995 19.307c-.164-.018-.514.745-.893.192 0 0 .327.436.287.577.026.013-.32-.097-.321-.053-.011 2.066 1.886 2.05 1.878-.004 0-.039-.338.067-.314.056-.039-.129.294-.595.283-.577-.375.548-.659-.148-.92-.191M33.24 16.388c-.164-.018-.514.745-.892.192 0 0 .326.436.286.577.026.013-.32-.097-.32-.053-.012 2.066 1.885 2.05 1.877-.004 0-.039-.339.067-.314.056-.037-.129.296-.595.284-.577-.376.549-.66-.147-.921-.191M30.749 16.388c-.164-.018-.514.745-.892.192 0 0 .326.436.286.577.026.013-.32-.097-.32-.053-.012 2.066 1.885 2.05 1.878-.004-.001-.039-.339.067-.314.056-.038-.129.295-.595.284-.577-.378.549-.662-.147-.922-.191"/></g><path fill="#2a5f9e" d="M40.12 17.429l-.006.002-2.322-2.653-3.053 1.75-.514 6.18c1.492.124 2.953.37 4.367.731l1.528-6.01"/><path fill="#ffe62e" d="M35.34 17.809a.39.39 0 0 1 .313.032c.182.076.174.002.349-.099.237-.139.785-.224 1.438.108.108.055.727.115.727.115s-.501.23-1.01-.027c.178.121.318.287.5.402.074.046.84.198.84.198s-.602.281-.963-.02c-.315-.263-.646-.594-1.113-.451.043.009.328.141.334.129-.063.124-.383.245-.473.128-.045.293.955 1.259 2.229 1.031.537-.208.223.159.102.369-.055.095-.518 2.348-1.561 1.81-.006.04.572-.229.624-.606-.005-.006-.183-.224-.181-.214-.377.009-.7 1.214-1.164.599-.025-.034.603-.28.542-.773-.068.042-.356.037-.447.001-.253.099-.187 1.158-.824.861.021.037.673-.965.299-1.018-.069.173-.265.418-.268.596.173.178-.456.226-.429.01.006-.056.49-.592.355-1.143-.179-.135.018-1.014.119-1.201-.602.014-.242-.198-.134-.555-.118-.08-.206-.13-.204-.282"/><path fill="#428bc1" d="M42.757 24.881l2.509-5.686-1.851-2.987-3.3 1.222-1.527 6.01c1.439.366 2.832.851 4.169 1.442"/><path fill="#fff" d="M39.559 19.622c1.652.422 3.253.979 4.787 1.658l-.967 2.194a28.032 28.032 0 0 0-4.412-1.526l.592-2.326"/><path fill="#ed4c5c" d="M43.533 23.12l.647-1.466a30.12 30.12 0 0 0-4.724-1.635l-.381 1.5c1.547.395 3.045.916 4.48 1.55l-.022.051"/><path fill="#ffe62e" d="M42.02 17.408l.006.026.111.585-.449.391-.02.019.025.009.563.194.114.585.006.026.021-.018.45-.391.563.193.027.009-.006-.027-.113-.584.449-.392.021-.018-.027-.01-.563-.194-.113-.584-.006-.027-.021.018-.449.391-.564-.194-.025-.007"/></svg>