<svg xmlns="http://www.w3.org/2000/svg" viewBox="0 0 64 64" xmlns:xlink="http://www.w3.org/1999/xlink"><path fill="#2a5f9e" d="M2 32c0 9.815 4.714 18.528 12 24h36c7.285-5.473 11.999-14.186 11.999-24S57.285 13.474 50 8H14C6.714 13.473 2 22.185 2 32"/><g fill="#ed4c5c"><path d="M14 8h36c-5.02-3.767-11.247-6-18-6S19.014 4.233 14 8M32 62a29.856 29.856 0 0 0 18-6H14c5.01 3.768 11.246 6 18 6M43.548 32C43.548 42.205 32 50.475 32 50.475S20.453 42.205 20.453 32C20.453 21.795 32 13.524 32 13.524S43.548 21.795 43.548 32z"/></g><path fill="#b4d7ee" d="M42 32c0 8.836-10 16-10 16s-10-7.164-10-16c0-8.837 10-16 10-16s10 7.163 10 16" id="a"/><use xlink:href="#a"/><path fill="#ffe62e" d="M26.629 39.404C28.961 42.783 32 45 32 45s8-5.82 8-13h-.007a33.24 33.24 0 0 1-13.364 7.404z"/><path fill="#428bc1" d="M24 32c0 2.752 1.179 5.301 2.629 7.405A33.23 33.23 0 0 0 39.993 32H24z"/><path fill="#fff" d="M28 30v4h4z"/><path fill="#89664c" d="M34.944 39c-3.787-6.752-3.285-13.708-3.262-14l.831.084c-.006.069-.494 6.938 3.135 13.411l-.704.505"/><path fill="#83bf4f" d="M32 22.22L34.5 20l-.834 3.11L37 24l-3.334.888L34.5 28 32 25.776 29.5 28l.835-3.112L27 24l3.335-.89L29.5 20z"/></svg>