<svg xmlns="http://www.w3.org/2000/svg" viewBox="0 0 64 64"><g fill="#2a5f9e"><path d="M2 32c0 11.511 6.486 21.502 16 26.532V5.467C8.486 10.498 2 20.489 2 32zM62 32c0-11.511-6.486-21.502-16-26.533v53.06c9.514-5.03 16-15.02 16-26.532"/></g><path fill="#ffce31" d="M32 2a29.865 29.865 0 0 0-14 3.467v53.065C22.181 60.743 26.942 62 32 62s9.819-1.257 14-3.468V5.467A29.865 29.865 0 0 0 32 2z"/><g fill="#3e4347"><path d="M43.838 20.16l-1.074-1.075c-.196.221-4.625 5.25-5.058 15.12h-4.227V23.28H30.52v10.925h-4.227c-.433-9.873-4.861-14.901-5.058-15.12l-2.15 2.146c.043.049 4.282 4.955 4.282 14.536v1.56h7.152v10.817h2.959V37.326h7.151v-1.56c0-9.581 4.241-14.487 4.283-14.536l-1.074-1.07"/><path d="M32 15.856l-3.229 9.686h6.459zM21.236 19.09l6.458 6.452h-4.04zM42.76 19.09l-6.46 6.452h4.04z"/></g></svg>