<svg xmlns="http://www.w3.org/2000/svg" viewBox="0 0 64 64"><circle fill="#ed4c5c" cx="32" cy="32" r="30"/><g fill="#ffe62e"><path d="M22 28.371L30.03 34 27 24.844 35 19h-9.91L22 10l-3 9H9l7.999 5.844L13.965 34zM35.27 35.28l-2.27.556 2.24.861L35.23 39l1.439-1.75 2.22.83-1.336-1.9L39 34.411l-2.309.521L35.33 33zM38.71 28.467L37 29.998l2.29-.178.97 2.18.487-2.285L43 29.514l-1.95-1.204.487-2.31-1.758 1.513-1.988-1.224zM39.28 20.729L39.966 23l.732-2.23 2.302.029-1.83-1.449.7-2.21-1.82 1.319L38.2 17l.652 2.309L37 20.65zM35.27 12.723L35.33 15l1.361-1.93 2.309.519-1.435-1.749 1.323-1.919-2.206.843L35.23 9l.01 2.302-2.24.86z"/></g></svg>