<svg xmlns="http://www.w3.org/2000/svg" viewBox="0 0 64 64"><circle fill="#2a5f9e" cx="32" cy="32" r="30"/><g fill="#ffce31"><path d="M32 11.801l.719 2.209h2.321l-1.88 1.359.717 2.205L32 16.211l-1.87 1.363.712-2.205-1.875-1.359h2.323zM32 45.778l.717 2.206h2.323l-1.88 1.366.717 2.2L32 50.19l-1.87 1.36.712-2.2-1.875-1.366h2.323zM40.42 43.03l.72 2.21h2.32l-1.88 1.362.72 2.205-1.88-1.367-1.875 1.367.715-2.205-1.87-1.362h2.314zM46.22 37.23l.718 2.209h2.322l-1.88 1.364.72 2.207-1.88-1.365-1.88 1.365.72-2.207-1.87-1.364h2.314zM48.965 28.789l.717 2.206H52l-1.87 1.363.711 2.205-1.876-1.363-1.875 1.363.715-2.205-1.875-1.363h2.32zM46.22 20.344l.718 2.207h2.322l-1.88 1.363.72 2.206-1.88-1.364-1.88 1.364.72-2.206-1.87-1.363h2.314zM40.42 14.546l.72 2.206h2.32l-1.88 1.358.72 2.21-1.88-1.363-1.875 1.363.715-2.21-1.88-1.358h2.324zM23.58 43.03l-.717 2.21h-2.318l1.876 1.362-.717 2.205 1.876-1.367 1.877 1.367-.717-2.205 1.875-1.362h-2.318zM17.781 37.23l-.721 2.209h-2.314l1.876 1.364-.717 2.207 1.876-1.365 1.875 1.365-.716-2.207 1.876-1.364h-2.318zM15.04 28.789l-.72 2.206H12l1.876 1.363-.716 2.205 1.88-1.363 1.872 1.363-.716-2.205 1.874-1.363h-2.318zM17.781 20.344l-.721 2.207h-2.314l1.876 1.363-.717 2.206 1.876-1.364 1.875 1.364-.716-2.206 1.876-1.363h-2.318zM23.58 14.546l-.716 2.206h-2.319l1.876 1.358-.716 2.21 1.875-1.363 1.877 1.363-.717-2.21 1.875-1.358h-2.318z"/></g></svg>