<svg xmlns="http://www.w3.org/2000/svg" viewBox="0 0 64 64"><path fill="#699635" d="M40.939 3.376H23.06C13.706 6.295 6.312 13.653 3.375 23v18c2.937 9.348 10.331 16.705 19.685 19.625H41c9.347-2.936 16.705-10.33 19.624-19.685V23c-2.936-9.347-10.33-16.705-19.685-19.624z"/><path fill="#ffe62e" d="M23 60.63a29.914 29.914 0 0 0 6 1.226V2.155a29.776 29.776 0 0 0-6 1.226v57.25"/><path fill="#3e4347" d="M29 61.851a30.329 30.329 0 0 0 6 0V2.15c-.987-.097-1.987-.15-3-.15s-2.01.053-3 .15v59.701"/><path fill="#fff" d="M35 61.851a29.845 29.845 0 0 0 6-1.226V3.375a29.845 29.845 0 0 0-6-1.226V61.85"/><path fill="#ffe62e" d="M2.149 29h59.7a29.79 29.79 0 0 0-1.226-6H3.373a29.929 29.929 0 0 0-1.226 6"/><path fill="#3e4347" d="M2 32c0 1.014.052 2.01.149 3h59.7a30.01 30.01 0 0 0 0-6h-59.7A30.668 30.668 0 0 0 2 32"/><path fill="#fff" d="M3.375 41h57.25a29.83 29.83 0 0 0 1.226-6h-59.7a29.83 29.83 0 0 0 1.225 6"/><circle fill="#c94747" cx="32" cy="32" r="15"/><g fill="#699635"><path d="M32 21.572l1.44 1.094-.543-1.779 1.433-1.104-1.775-.006L32 18l-.556 1.777-1.778.006 1.434 1.104-.542 1.779zM26.786 22.969l1.795.231-1.361-1.273.692-1.673-1.544.886L25 19.876l.408 1.817-1.538.895 1.796.236.414 1.815zM22.968 26.787l1.671-.697-1.816-.422-.238-1.797-.894 1.539-1.816-.41 1.265 1.37-.886 1.543 1.672-.693 1.274 1.363zM21.571 32l1.095-1.441-1.78.541-1.104-1.432-.005 1.779L18 32l1.777.557.006 1.783 1.103-1.442 1.78.545zM22.971 37.22l.229-1.801-1.274 1.362-1.672-.691.886 1.543L19.876 39l1.816-.406.896 1.536.236-1.8 1.816-.413zM26.787 41.03l-.707-1.67-.413 1.82-1.797.24 1.539.89L25 44.13l1.369-1.265 1.543.882-.692-1.667 1.363-1.275zM32 42.43l-1.441-1.1.541 1.79-1.433 1.1 1.78.01L32 46l.557-1.77 1.773-.01-1.432-1.1.545-1.79zM37.21 41.03l-1.792-.225 1.363 1.265-.691 1.678 1.542-.885L39 44.13l-.407-1.82 1.537-.9-1.8-.23-.413-1.82zM41.03 37.21l-1.67.706 1.82.414.23 1.8.9-1.538 1.82.408-1.266-1.368.882-1.542-1.676.691-1.265-1.363zM42.43 32l-1.1 1.441 1.78-.543 1.11 1.432v-1.775L46 32l-1.78-.555v-1.779L43.11 31.1l-1.78-.543zM41.03 26.785l-.226 1.797 1.266-1.362 1.677.692-.884-1.543L44.13 25l-1.82.408-.9-1.537-.23 1.796-1.82.413zM37.21 22.969l.705 1.67.415-1.815 1.8-.238-1.538-.894.408-1.817-1.369 1.265-1.541-.886.69 1.673-1.362 1.273z"/></g><path fill="#ffe62e" d="M36 38h-6.473s.939-3.367 6.473 0"/><path fill="#c28fef" d="M31.82 26.16S24.507 34.361 36 37.998L31.82 26.16"/><path fill="#699635" d="M31.82 26.16S36 27.174 36 37.998c0 0-4.18-2.379-4.18-11.838"/><path fill="#ffe62e" d="M29.527 26.385s-1.438.281-1.527 2.198c0 0 1.346-.726 2.65-.726 1.304 0-1.123-1.472-1.123-1.472"/><path fill="#c28fef" d="M29.527 26.385s.878 2.881 4.383 1.637c0-.001-1.551-3.079-4.383-1.637"/></svg>