<svg xmlns="http://www.w3.org/2000/svg" viewBox="0 0 64 64"><path fill="#428bc1" d="M56 14H32v6h27.496A29.892 29.892 0 0 0 56 14"/><g fill="#f9f9f9"><path d="M32 14h24a30.213 30.213 0 0 0-6-6H32v6M59.5 20H32.004v6h29.398a29.64 29.64 0 0 0-1.902-6"/></g><path fill="#428bc1" d="M4.504 44h54.992a29.64 29.64 0 0 0 1.902-6H2.602a29.64 29.64 0 0 0 1.902 6"/><path fill="#f9f9f9" d="M8 50h48a29.92 29.92 0 0 0 3.496-6H4.504A29.92 29.92 0 0 0 8 50z"/><path fill="#428bc1" d="M8 50a30.213 30.213 0 0 0 6 6h36a30.213 30.213 0 0 0 6-6H8z"/><g fill="#f9f9f9"><path d="M14 56c5.01 3.766 11.246 6 18 6s12.986-2.234 18-6H14M20 32V20h12v-6H20V4.503a29.96 29.96 0 0 0-6 3.519V14H8.018a30.053 30.053 0 0 0-3.505 6H14v12H2c0 2.055.207 4.061.602 6h58.797c.394-1.939.601-3.945.601-6H20"/></g><g fill="#428bc1"><path d="M61.4 26H32.002v-6h-12v12h42a30.03 30.03 0 0 0-.602-6M32 2c-4.268 0-8.324.896-12 2.504V14h12V8h18a29.854 29.854 0 0 0-18-6M14 14V8a30.213 30.213 0 0 0-6 6h6M4.504 20A29.859 29.859 0 0 0 2 32h12V20H4.504z"/></g></svg>