<svg xmlns="http://www.w3.org/2000/svg" viewBox="0 0 64 64"><g fill="#2a5f9e"><path d="M62 31.999C62 15.431 48.568 2 32 2S2 15.431 2 31.999c0 4.269.897 8.325 2.503 12.001h54.993A29.863 29.863 0 0 0 62 31.999zM32 62c9.814 0 18.527-4.714 24-12H8c5.473 7.286 14.186 12 24 12"/></g><path fill="#ffce31" d="M4.503 44A29.944 29.944 0 0 0 8 50h48a29.892 29.892 0 0 0 3.496-6H4.503"/><g fill="#fff"><path d="M11.442 15.495l1.238 3.812h4.01l-3.242 2.354 1.239 3.811-3.242-2.352-3.242 2.352 1.238-3.811L6.2 19.307h4.01zM22.822 24.459l1.74 5.354h5.628l-4.553 3.307 1.74 5.358-4.555-3.308-4.555 3.308 1.743-5.358-4.558-3.307h5.628z"/></g></svg>