<svg xmlns="http://www.w3.org/2000/svg" viewBox="0 0 64 64"><path fill="#2a5f9e" d="M10.787 53.21c11.716 11.717 30.711 11.717 42.43 0l-42.43-42.42c-11.716 11.714-11.716 30.71 0 42.42"/><path fill="#ffce31" d="M10.787 10.788l42.43 42.42v-42.42c-11.715-11.716-30.71-11.716-42.43 0"/><path fill="#2a5f9e" d="M53.21 10.788v42.42c11.716-11.715 11.716-30.711 0-42.42"/><g fill="#fff"><path d="M10.907 20.981l2.415 1.834-.913-2.982 2.405-1.848-2.978-.01L10.907 15l-.928 2.975-2.979.01 2.405 1.848-.913 2.982zM17.744 27.819l2.416 1.833-.913-2.982 2.404-1.847-2.977-.01-.93-2.975-.929 2.975-2.977.01 2.404 1.847-.913 2.982zM24.582 34.656l2.415 1.832-.917-2.98 2.408-1.848-2.977-.01-.929-2.976-.93 2.976-2.977.01 2.405 1.848-.91 2.98zM31.419 41.492l2.415 1.838-.913-2.98 2.409-1.854-2.98-.01-.931-2.974-.929 2.974-2.978.01 2.405 1.854L29 43.33zM38.26 48.33l2.411 1.83-.912-2.98 2.401-1.85-2.97-.01-.93-2.97-.93 2.97-2.98.01 2.404 1.85-.913 2.98zM45.09 55.17L47.51 57l-.914-2.98L49 52.17l-2.98-.01-.93-2.97-.93 2.97-2.97.01 2.401 1.85-.913 2.98z"/></g></svg>