<svg xmlns="http://www.w3.org/2000/svg" viewBox="0 0 64 64"><path fill="#ed4c5c" d="M60.29 42H3.72c4.119 11.65 15.225 20 28.29 20s24.17-8.35 28.29-20"/><path fill="#f9f9f9" d="M60.29 42a29.916 29.916 0 0 0 1.714-10c0-16.568-13.432-30-30-30s-30 13.432-30 30c0 3.508.607 6.871 1.714 10h56.57"/><path fill="#ed4c5c" d="M48.52 24.502v-1.074h1.15v-2.495h-1.15v1.375h-1.926v-1.375h-1.39v-8.43h.522V11.36h.896V9.173h-1.591v1.113H43.47V9.173h-2.383v1.113h-1.56V9.173h-1.292v2.188h.501v1.143h.463v8.43h-.239v1.375h-2.166v-1.375h-.679V10.279h.753V8.763h.92V7h-1.457v.972h-1.643V7h-1.874v.972h-1.643V7h-1.874v.972h-1.643V7h-1.457v1.763h.92v1.516h.753v10.654h-.679v1.375h-2.166v-1.375h-.239v-8.43h.463V11.36h.501V9.173h-1.292v1.113h-1.56V9.173h-2.383v1.113h-1.56V9.173h-1.591v2.188h.896v1.143h.522v8.43h-1.39v1.375h-1.926v-1.375h-1.15v2.495h1.15v1.074h.934v13.386l-2.064 1.361v1.441h8.768v.707h17.785v-.707h8.768V39.25l-2.069-1.361V24.502h.932"/><g fill="#3e4347"><path d="M24.279 37.883v-3.529c0-3.828-4.884-3.774-4.884 0v3.529h4.884M23.412 18.619c0-2.119-3.17-2.09-3.17 0v3.689h3.163l.007-3.689M35.457 38.586v-4.863c0-4.757-6.914-4.77-6.914 0v4.863h6.914M44.605 37.883v-3.529c0-3.774-4.885-3.828-4.885 0v3.529h4.885M40.595 22.308h3.163v-3.689c0-2.09-3.17-2.119-3.17 0l.007 3.689M31.657 11.487h.686v3.645h-.686zM29.686 12.205h.694v2.666h-.694zM30.1 17.784v4.524h3.793v-4.524c-.001-2.32-3.793-2.32-3.793 0M33.62 12.205h.694v2.666h-.694z"/></g><path fill="#ffe62e" d="M28.494 40.656h-.664v1.061h.664l2.802 1.625V51.213h-4.128v1.92h1.203v-.963h1.636v.963h1.289v.727h-1.289v.963h-1.636v-.963h-1.203v1.924h4.128V57h1.192V43.341l2.801-1.625h.665v-1.061h-.665l-3.397-1.973-3.398 1.974m5.937.533l-2.539 1.469-2.538-1.469 2.538-1.48 2.539 1.48"/></svg>