<svg xmlns="http://www.w3.org/2000/svg" viewBox="0 0 64 64" xmlns:xlink="http://www.w3.org/1999/xlink"><path fill="#ed4c5c" d="M56 14H8a29.854 29.854 0 0 0-6 18c0 16.568 13.432 30 30 30s30-13.432 30-30a29.863 29.863 0 0 0-6-18"/><path fill="#42ade2" d="M20.5 39h23l7-14h-37z" id="a"/><use xlink:href="#a"/><path fill="#3e4347" d="M50.5 25L56 14C50.527 6.714 41.814 2 32 2S13.473 6.714 8 14l5.5 11h37z"/><path fill="#fff" d="M20.5 39L32 62l11.5-23z"/><path fill="#ffce31" d="M36.17 22.24l5.07-6.392-6.441 5.01 2.231-7.845-4.03 7.09-.939-8.1-1.01 8.09-3.98-7.121 2.17 7.861-6.405-5.062 5.02 6.432-7.857-2.227 7.096 4.03-8.11.943.455.057h25.12l-7.643-.95 7.134-3.97z"/></svg>