<svg xmlns="http://www.w3.org/2000/svg" viewBox="0 0 64 64"><path fill="#83bf4f" d="M32 2C18.939 2 7.833 10.349 3.714 22h56.572C56.167 10.349 45.061 2 32 2z"/><path fill="#ed4c5c" d="M32 62c13.06 0 24.17-8.35 28.29-20H3.72c4.119 11.65 15.225 20 28.29 20"/><path fill="#f9f9f9" d="M3.714 22A29.912 29.912 0 0 0 2 32c0 3.508.607 6.872 1.714 10h56.572A29.916 29.916 0 0 0 62 32c0-3.508-.607-6.871-1.714-10H3.714z"/><g fill="#fff"><path d="M59.37 44.28c-.087.193-.172.389-.263.58h.263v-.58M4.896 44.865c-.092-.191-.176-.387-.263-.58v.58h.263M5.634 18.799h-.575c-.055.11-.109.222-.162.333h.737v-.333"/><path d="M5.634 21v-.334h-1v-.6h1.533V21h2.2v-2.267h-.334v1.933h-.6v-1.933h-.332v1.933H6.5v-1.933h-.333v1H4.625c-.11.244-.221.487-.324.735V21h1.333M5.634 44.865h-.738c.053.113.107.223.162.334h.575v-.334z"/><path d="M4.634 44.27h1.533v.934h2.2v-2.268h-.334v1.934h-.6v-1.934h-.332v1.934H6.5v-1.934h-.333v1H4.474c.052.119.106.236.16.354v-.02"/><path d="M5.634 42.998H4.091c.044.111.087.225.132.334h1.411v-.334M13.634 21h1.333v-.334h-1v-.596H15.5V21h2.201v-2.267h-.334v1.933h-.599v-1.933h-.334v1.933h-.6v-1.933H15.5v1h-1.866zM13.03 21v-1.267h-1.329v.337h1v.596h-1.534v-.933h-2.2v1.337h.334v-1h1.533V21z"/><path d="M9.834 20.666h.467V21h-.467zM8.9 18.799h6.07v.333H8.9zM11.701 44.27h1v.595h-1.534v-.933h-2.2v1.338h.334v-1h1.533v.93h2.196v-1.268h-1.329z"/><path d="M9.834 44.865h.467v.334h-.467zM8.9 42.998h6.07v.334H8.9z"/><path d="M17.367 44.865h-.599v-1.933h-.334v1.933h-.6v-1.933H15.5v1h-1.866V45.2h1.333v-.335h-1v-.595H15.5v.93h2.201v-2.268h-.334zM22.967 21h1.334v-.334h-1v-.596h1.533V21h2.196v-2.267h-.329v1.933H26.1v-1.933h-.332v1.933h-.598v-1.933h-.336v1h-1.867zM22.367 21v-1.267H21.03v.337h1v.596H20.5v-.933h-2.199v1.337h.333v-1h1.536V21z"/><path d="M18.234 18.799h6.07v.333h-6.07zM19.17 20.666h.467V21h-.467zM26.701 44.865H26.1v-1.933h-.332v1.933h-.598v-1.933h-.336v1h-1.867V45.2h1.334v-.335h-1v-.595h1.533v.93h2.196v-2.268h-.329zM19.17 44.865h.467v.334h-.467z"/><path d="M18.234 42.998h6.07v.334h-6.07zM21.03 44.27h1v.595H20.5v-.933h-2.199v1.338h.333v-1h1.536v.93h2.197v-1.268H21.03zM31.701 21v-1.267h-1.334v.337h1v.596h-1.533v-.933h-2.2v1.337h.333v-1H29.5V21zM27.566 18.799h6.07v.333h-6.07z"/><path d="M28.5 20.666h.467V21H28.5zM32.3 21h1.333v-.334h-1v-.596h1.537V21h2.2v-2.267h-.34v1.933h-.596v-1.933H35.1v1.933h-.6v-1.933h-.33v1H32.3zM27.566 42.998h6.07v.334h-6.07zM30.367 44.27h1v.595h-1.533v-.933h-2.2v1.338h.333v-1H29.5v.93h2.201v-1.268h-1.334z"/><path d="M28.5 44.865h.467v.334H28.5zM36.03 44.865h-.596v-1.933H35.1v1.933h-.6v-1.933h-.33v1H32.3V45.2h1.333v-.335h-1v-.595h1.537v.93h2.2v-2.268h-.34zM37.834 20.666h.467V21h-.467zM36.9 18.799h6.07v.333H36.9z"/><path d="M41.633 21h1.334v-.334h-1v-.596H43.5V21h2.201v-2.267h-.331v1.933h-.602v-1.933h-.338v1.933h-.596v-1.933H43.5v1h-1.867zM41.03 21v-1.267h-1.329v.337h1v.596H39.17v-.933h-2.203v1.337h.333v-1h1.534V21zM36.9 42.998h6.07v.334H36.9z"/><path d="M45.37 44.865h-.602v-1.933h-.338v1.933h-.596v-1.933H43.5v1h-1.867V45.2h1.334v-.335h-1v-.595H43.5v.93h2.201v-2.268h-.331zM39.701 44.27h1v.595H39.17v-.933h-2.203v1.338h.333v-1h1.534v.93h2.196v-1.268h-1.329z"/><path d="M37.834 44.865h.467v.334h-.467zM50.37 21v-1.267h-1.34v.337h1v.596H48.5v-.933h-2.2v1.337h.333v-1h1.537V21z"/><path d="M47.17 20.666h.465V21h-.465zM46.23 18.799h6.07v.333h-6.07z"/><path d="M50.967 21H52.3v-.334h-1v-.596h1.534V21h2.196v-2.267h-.329v1.933H54.1v-1.933h-.332v1.933h-.598v-1.933h-.336v1h-1.867zM47.17 44.865h.465v.334h-.465z"/><path d="M49.03 44.27h1v.595H48.5v-.933h-2.2v1.338h.333v-1h1.537v.93h2.2v-1.268h-1.34zM46.23 42.998h6.07v.334h-6.07z"/><path d="M54.701 44.865H54.1v-1.933h-.332v1.933h-.598v-1.933h-.336v1h-1.867V45.2H52.3v-.335h-1v-.595h1.534v.93h2.196v-2.268h-.329zM55.57 19.13h3.538a20.444 20.444 0 0 0-.162-.333H55.57v.333M58.37 20.07h1v.6h-1.533v-.933h-2.201v1.333h.334v-1h1.533v.934h2.201v-.528c-.104-.249-.215-.493-.325-.738h-1.01v.332"/><path d="M56.5 20.666h.467V21H56.5zM56.5 44.865h.467v.334H56.5zM55.57 42.998v.334h4.212c.045-.109.087-.223.131-.334H55.57M58.37 44.27h1v.02c.053-.117.108-.234.159-.354H58.37v.334"/><path d="M57.834 44.865v-.934h-2.201v1.334h.334v-1H57.5v.934h1.441c.055-.111.11-.221.163-.334h-1.27"/></g><g fill="#ed4c5c"><path d="M36.508 33.879a6.834 6.834 0 0 0-2.043-7.297c2.269 3.358 1.446 7.889-1.805 10.254l.225-5.589v-4.409a2.34 2.34 0 0 1-.885-.743 2.318 2.318 0 0 1-.885.743v4.409l.227 5.591c-3.253-2.365-4.075-6.898-1.805-10.256a6.84 6.84 0 0 0-2.045 7.297 6.817 6.817 0 0 0 3.308 3.93c-.929.336-1.912.512-2.911.463a6.795 6.795 0 0 0 3.519.186l.01.238.582.802.584-.803.01-.238a6.79 6.79 0 0 0 3.518-.186c-.998.049-1.981-.127-2.91-.463a6.806 6.806 0 0 0 3.306-3.929"/><path d="M38.732 29.13a5.729 5.729 0 0 0-3.57-2.689 7.496 7.496 0 0 1 1.488 10.5l-.012.018a5.733 5.733 0 0 0 2.094-7.829M28.838 26.442a5.728 5.728 0 0 0-1.474 10.517 7.497 7.497 0 0 1 1.474-10.517M30.492 26.03A1.081 1.081 0 0 0 32 25.767a1.083 1.083 0 0 0 1.891-1.023 1.022 1.022 0 0 1-1.89.323 1.024 1.024 0 0 1-1.89-.323 1.08 1.08 0 0 0 .381 1.286"/></g></svg>