<svg xmlns="http://www.w3.org/2000/svg" viewBox="0 0 64 64"><path fill="#3e4347" d="M8 22h52.285C56.166 10.35 45.061 2 32 2 22.183 2 13.472 6.719 8 14.01V22z"/><path fill="#f9f9f9" d="M60.285 22H8v20h52.285C61.393 38.871 62 35.508 62 32s-.607-6.871-1.715-10z"/><path fill="#75a843" d="M8 42v7.99C13.472 57.281 22.183 62 32 62c13.06 0 24.166-8.35 28.285-20H8z"/><path fill="#c94747" d="M8 14c-3.767 5.02-6 11.246-6 18s2.233 12.986 6 18l24-18L8 14"/><path fill="#fff" d="M11.04 29.691L12 27l.957 2.691 2.579-1.226-1.226 2.585L17 32l-2.69.957 1.225 2.58-2.578-1.227L12 37l-.96-2.69-2.575 1.227 1.225-2.58L7 32l2.69-.95-1.224-2.585z"/></svg>