<svg xmlns="http://www.w3.org/2000/svg" viewBox="0 0 64 64"><g fill="#2a5f9e"><path d="M32 62c9.814 0 18.527-4.713 24-12H8c5.473 7.287 14.186 12 24 12M32 2C15.432 2 2 15.432 2 32h60C62 15.432 48.568 2 32 2z"/></g><path fill="#fff" d="M61.4 38c.394-1.939.602-3.945.602-6h-60c0 2.055.208 4.061.602 6H61.4"/><path fill="#ed4c5c" d="M4.504 44h54.992a29.64 29.64 0 0 0 1.902-6H2.602a29.703 29.703 0 0 0 1.902 6"/><path fill="#fff" d="M4.504 44A29.92 29.92 0 0 0 8 50h48a29.92 29.92 0 0 0 3.496-6H4.504z"/><g fill="#ffce31"><path d="M25 26.06l1.24.94-.472-1.526L27 24.527l-1.525-.004L25 23l-.475 1.523-1.525.004 1.23.947L23.764 27zM25 56.06l1.24.94-.472-1.52L27 54.53l-1.525-.01L25 53l-.475 1.52-1.525.01 1.23.95-.466 1.52zM36 36.06l1.24.94-.472-1.525L38 34.527l-1.525-.004L36 33l-.475 1.523-1.525.004 1.23.948L34.764 37zM18 29.06l1.236.94-.468-1.526L20 27.527l-1.525-.004L18 26l-.475 1.523-1.525.004 1.232.947L16.764 30zM32 29.06l1.24.94-.472-1.526L34 27.527l-1.525-.004L32 26l-.475 1.523-1.525.004 1.23.947L30.764 30zM13 36.06l1.236.94-.468-1.525L15 34.527l-1.525-.004L13 33l-.475 1.523-1.525.004 1.232.948L11.764 37zM36 48.06l1.24.94-.472-1.52L38 46.527l-1.525-.004L36 45l-.475 1.523-1.525.004 1.23.953-.466 1.52zM13 48.06l1.236.94-.468-1.52L15 46.527l-1.525-.004L13 45l-.475 1.523-1.525.004 1.232.953-.468 1.52zM31 54.06l1.24.94-.472-1.52L33 52.53l-1.525-.01L31 51l-.475 1.52-1.525.01 1.23.95-.466 1.52zM18 54.06l1.236.94-.468-1.52L20 52.53l-1.525-.01L18 51l-.475 1.52-1.525.01 1.232.95-.468 1.52z"/></g></svg>