<svg xmlns="http://www.w3.org/2000/svg" viewBox="0 0 64 64"><path fill="#ffce31" d="M62 32c0-13.06-8.35-24.17-20-28.29v56.57c11.65-4.119 20-15.226 20-28.29"/><path fill="#83bf4f" d="M2 32c0 13.061 8.35 24.168 20 28.287V3.714C10.35 7.833 2 18.939 2 32z"/><path fill="#c94747" d="M42 3.714C38.871 2.607 35.508 2 32 2s-6.871.607-10 1.714v56.573C25.129 61.393 28.492 62 32 62s6.871-.607 10-1.713V3.714z"/><path fill="#ffce31" d="M32 36.25L37.25 40l-1.98-6.105 5.23-3.785-6.48-.02L32 24l-2.02 6.09-6.478.02 5.23 3.785L26.748 40z"/></svg>