<svg xmlns="http://www.w3.org/2000/svg" viewBox="0 0 64 64"><g fill="#ed4c5c"><path d="M61.18 25C58.024 11.81 46.17 2 32.01 2c-.335 0-.667.015-1 .025V25h30.17M17.011 6.023C9.993 10.084 4.777 16.902 2.84 25h14.17V6.023zM2.84 39c1.937 8.098 7.153 14.916 14.17 18.977V39H2.84zM31.01 61.975c.333.011.665.025 1 .025 14.157 0 26.02-9.81 29.17-23H31.01v22.975"/></g><path fill="#fff" d="M61.18 25H31.01V2.025a29.833 29.833 0 0 0-14 3.998V25H2.839c-.537 2.247-.83 4.589-.83 7s.292 4.754.83 7h14.17v18.977a29.833 29.833 0 0 0 14 3.998V39h30.17c.537-2.246.829-4.589.829-7s-.291-4.753-.828-7"/></svg>