<svg xmlns="http://www.w3.org/2000/svg" viewBox="0 0 64 64"><path fill="#b4d7ee" d="M60.913 24C57.411 11.316 45.793 2 32 2S6.589 11.316 3.087 24v16C6.589 52.684 18.207 62 32 62c13.796 0 25.41-9.316 28.913-22V24"/><g fill="#fff"><path d="M61.58 27.01a30.22 30.22 0 0 0-.664-3.01H3.09c-.272.984-.493 1.99-.665 3.01h59.16M2.423 36.988a29.55 29.55 0 0 0 .664 3.01h57.826c.271-.984.492-1.99.664-3.01H2.427"/></g><path fill="#3e4347" d="M2 32c0 1.705.149 3.373.423 5h59.15c.274-1.627.423-3.295.423-5s-.149-3.373-.423-5H2.423A30.068 30.068 0 0 0 2 32"/></svg>