<svg xmlns="http://www.w3.org/2000/svg" viewBox="0 0 64 64"><g fill="#ed4c5c"><path d="M11.192 53.6C16.587 58.797 23.917 62 32 62c8.084 0 15.415-3.203 20.809-8.4H11.192zM52.809 10.4C47.414 5.202 40.082 2 32 2s-15.413 3.202-20.807 8.4h41.616z"/></g><g fill="#007168"><path d="M5.377 45.822L32 32 5.377 18.176A29.86 29.86 0 0 0 2 32a29.85 29.85 0 0 0 3.377 13.822zM62 32c0-4.987-1.223-9.686-3.377-13.824L32 32l26.624 13.822A29.849 29.849 0 0 0 62 32z"/></g><g fill="#ffce31"><path d="M58.62 45.822L31.997 32 5.374 45.822a30.065 30.065 0 0 0 5.815 7.777h41.616a30.032 30.032 0 0 0 5.815-7.777M5.377 18.176L32 32l26.624-13.824A30.096 30.096 0 0 0 52.81 10.4H11.193a30.08 30.08 0 0 0-5.816 7.776z"/></g><circle fill="#ed4c5c" cx="32" cy="32" r="9"/><path fill="#ce1126" d="M8.285 34.414c.774.803 1.64 1.475 2.448 1.814.013-.887-.147-1.904-.417-2.92-.685-.64-1.456-1.188-2.213-1.477-.11.813-.028 1.714.182 2.583"/><g fill="#ffce31"><path d="M5.02 26.326c1.306 2.722-3.387 9.215 4.431 10.738-.516-.705-.928-1.654-1.169-2.65-.209-.869-.292-1.771-.182-2.582.757.288 1.528.837 2.213 1.477.797.746 1.475 1.617 1.851 2.369 2.046-7.43-5.248-6.978-7.144-9.352M21.958 4.856l.59 1.816h1.91l-1.544 1.123.589 1.816-1.545-1.122-1.544 1.122L21 7.795l-1.542-1.123h1.911zM22.958 54.1l.59 1.814h1.91l-1.544 1.126.589 1.814-1.545-1.122-1.544 1.122L22 57.04l-1.542-1.126h1.911zM32 23l1.932 6.25h6.258l-5.06 3.87 1.93 6.26L32 35.508l-5.059 3.872 1.932-6.26-5.061-3.87h6.258zM31.958 4.855l.59 1.817h1.911l-1.545 1.123.59 1.816-1.546-1.122-1.544 1.122L31 7.795l-1.542-1.123h1.911zM41.959 4.856l.59 1.816h1.911l-1.546 1.123.59 1.816-1.545-1.122-1.549 1.122.59-1.816-1.541-1.123h1.911z"/></g></svg>