<svg xmlns="http://www.w3.org/2000/svg" viewBox="0 0 64 64"><g fill="#f9f9f9"><path d="M61.15 25C57.996 11.81 46.14 2 31.98 2c-.335 0-.667.015-1 .025V25h30.17M16.977 6.023C9.959 10.084 4.743 16.902 2.806 25h14.17V6.023zM2.806 39c1.937 8.098 7.153 14.916 14.17 18.977V39H2.806zM30.977 61.975c.333.011.665.025 1 .025 14.157 0 26.02-9.81 29.17-23h-30.17v22.975"/></g><path fill="#428bc1" d="M61.15 25H30.98V2.025a29.833 29.833 0 0 0-14 3.998V25H2.81c-.537 2.247-.83 4.589-.83 7s.292 4.754.83 7h14.17v18.977a29.833 29.833 0 0 0 14 3.998V39h30.17c.537-2.246.83-4.589.83-7s-.292-4.753-.83-7"/></svg>