<svg xmlns="http://www.w3.org/2000/svg" viewBox="0 0 64 64"><path fill="#699635" d="M32 2a29.857 29.857 0 0 0-14.643 3.818L17.213 58.1A29.855 29.855 0 0 0 32 62c14.926 0 27.301-10.902 29.609-25.178v-9.645C59.301 12.902 46.926 2 32 2z"/><path fill="#ffe62e" d="M60.06 29.576L17.353 8.039v.357h-3.846c-.348.273-.693.548-1.029.836v45.536c.336.287.682.563 1.029.836h3.701v.426l43.19-21.547c.068-.813 1.593-1.652 1.593-2.483s-1.869-1.61-1.936-2.424"/><path fill="#fff" d="M13.496 8.396l48.5 23.408a30.404 30.404 0 0 0-.387-4.627L17.359 5.818a29.991 29.991 0 0 0-3.861 2.578"/><path fill="#ed4c5c" d="M12.453 12.025H9.635C4.893 17.33 2 24.324 2 32c0 7.676 2.893 14.67 7.635 19.975h2.818L32.428 32 12.453 12.025z"/><path fill="#3e4347" d="M12.482 9.226a30.218 30.218 0 0 0-2.859 2.799L29.598 32 9.623 51.975a30.314 30.314 0 0 0 2.859 2.797L35.256 32 12.482 9.226z"/><path fill="#fff" d="M61.61 36.822c.244-1.508.375-3.053.387-4.627l-48.5 23.409a29.991 29.991 0 0 0 3.861 2.578l44.25-21.36"/></svg>