<svg xmlns="http://www.w3.org/2000/svg" viewBox="0 0 64 64"><g fill="#f9f9f9"><path d="M10.787 26h50.611A29.82 29.82 0 0 0 56 14H10.79v12M10.787 38v12H56a29.82 29.82 0 0 0 5.398-12H10.787z"/></g><g fill="#428bc1"><path d="M61.4 26H10.789v12H61.4c.395-1.939.602-3.945.602-6s-.207-4.061-.602-6M10.787 14H56C50.527 6.714 41.814 2 32 2c-8.289 0-15.783 3.371-21.213 8.806V14zM10.787 50v3.194C16.217 58.629 23.711 62 32 62c9.814 0 18.527-4.714 24-12H10.787z"/></g><path fill="#ed4c5c" d="M10.787 10.787C5.357 16.216 2 23.716 2 32s3.357 15.784 8.787 21.213L32 32 10.787 10.787z"/><path fill="#f9f9f9" d="M9.984 38l4.02-2.81 4.02 2.81-1.519-4.577 3.999-2.923h-4.955L14.004 26l-1.5 4.5h-5l3.998 2.923z"/></svg>