<svg xmlns="http://www.w3.org/2000/svg" viewBox="0 0 64 64"><path fill="#428bc1" d="M12 12h20v20H12z"/><path fill="#fff" d="M18.912 8.14V14H11.6L26 32h6v-7.5z"/><path fill="#ed4c5c" d="M32 2v30H2c0 16.568 13.432 30 30 30s30-13.432 30-30C62 15.432 48.568 2 32 2z"/><path fill="#fff" d="M11 18.913H5.011A29.852 29.852 0 0 0 2 32h12V13.913h-3v5z"/><path fill="#ed4c5c" d="M32.464 27.643L19 11h-6l17.464 21.584h2z"/><path fill="#fff" d="M18.912 5.012V11H11v3h21V2a29.84 29.84 0 0 0-13.088 3.012z"/><path fill="#ed4c5c" d="M33 5H18.912A30.122 30.122 0 0 0 5 18.913V33h6V11h22V5z"/><path fill="#3e4347" d="M47 46.987l-6.244-2.386c-1.33-.518-3.79-1.475-3.79-4.104V21.084h20.07v19.414c0 2.625-2.458 3.584-3.779 4.102l-6.255 2.387"/><path fill="#fff" d="M38.4 22.518v17.98c0 1.525 1.398 2.193 2.866 2.766l5.735 2.189 5.734-2.189c1.468-.574 2.867-1.24 2.867-2.766v-17.98H38.4"/><path fill="#83bf4f" d="M39.832 38.28v1.397c0 1.335 1.166 1.921 2.391 2.421L47 44.015l4.777-1.916c1.225-.502 2.391-1.086 2.391-2.421v-1.397H39.832z"/><g fill="#ed4c5c"><path d="M41.821 40.24c-.421-.17-.263-1.527.091-1.813.27-.217 1.389-.117 1.389-.117l.465-1.107 1.42.73-.977 1.188s-.188.939-.455.998c-.127.027-.264-.357-.395-.344-.234.025-.322.783-.558.762-.254-.025-.178-.893-.432-.928-.207-.029-.353.709-.548.631M51.932 40.36c.421-.17.263-1.527-.09-1.812-.272-.218-1.39-.118-1.39-.118l-.465-1.107-1.421.73.979 1.188s.186.94.453.998c.129.027.264-.357.396-.344.233.025.321.785.556.762.256-.025.18-.893.434-.928.205-.029.353.709.548.631M50.36 32.21s2.368.274 2.919.792c.608.573.938 2.773.314 3.329-.334.299-1.75-.369-1.75-.369l-.025-.74-1.868-1.587.41-1.425M43.09 31.675s-1.682.508-2.086.909c-.644.64-1.359 3.064-.611 3.576.365.25 1.514-.908 1.514-.908l1.708-1.148-.525-2.429"/></g><path fill="#42ade2" d="M43.39 33l-1.835-1.465s-.49-1.572.75-1.816c1.184-.234 4.816-.388 4.816-.388s4.545.14 4.818.309c1.096.686-.027 2.212-.027 2.212l-1.534 1.4 1.143 2.69-8.389-.161L43.39 33"/><path fill="#ffce31" d="M42.814 34.75l.456-3.075 2.359-.816 1.681 2.524-.14 4.053z"/><path fill="#3e4347" d="M45.25 35.771l.384-2.266 3.034-.802 1.712 3.15-2.722 1.991z"/><path fill="#fff" d="M42.06 35.3l.822-.709s1.303.97 1.817 1.104c.349.092 1.147-.256 1.443-.051.231.16.091.971.354 1.064.569.2 1.43-1.219 2.024-1.307.345-.051 1.025.525 1.343.381.438-.199.814-1.738.814-1.738l1.229 1.146-.648 2.301-1.713.396-2.73 2.023-2.487-2.069-1.595-.365-.673-2.176"/><path fill="#ed4c5c" d="M42.3 29.723s-.871-.45-.734-.715c.215-.416 1.417-.42 1.852-.249.166.066.452.556.452.556l1.19-.313.107-.827s-.555-.401-.526-.599c.038-.276.944-.602.944-.602s-.928-.12-.944-.374c-.015-.188.652-.373.652-.373s-.451-.549-.323-.691c.111-.125.636.218.636.218s-.255-.586-.192-.776c.055-.167.539-.453.539-.453s.02-.739.246-.82c.132-.048.84.176.84.176s.464-.458.578-.469c.162-.015.314.504.314.504s.57-.227.633-.212c.148.034.097.905.097.905s.425.16.458.291c.041.159-.316.581-.316.581s.672-.04.75.134c.074.164-.379.612-.379.612s.55.376.516.564c-.033.189-.685.353-.685.353s.633.407.593.618c-.03.155-.576.262-.576.262l.375.735.803.513s1.295-.539 1.742-.481c.156.02.484.169.543.314.081.196-.549.539-.549.539l-.711.777-2.832-.877-3.225.148-2.078.891-.79-.86"/><g fill="#3e4347"><ellipse cx="46.713" cy="25.307" rx=".314" ry=".224"/><ellipse cx="47.835" cy="25.307" rx=".315" ry=".224"/></g><g fill="#ffce31"><path d="M42.3 29.723s.639 1.065 1.084 1.097c.544.04 2.033-.79 2.033-.79s-.027.291.038.35c.546.489 2.454.554 2.935 0 .101-.116-.086-.605-.086-.605s2.174.866 2.922.765c.332-.045.709-.896.709-.896s-.63.35-.99.308c-.775-.089-2.217-.962-2.994-.887-.193.018-.67.397-.67.397l-.836.042s-.599-.323-.816-.307c-.609.042-1.636.892-2.241.972-.392.051-1.088-.446-1.088-.446M52.51 31.54h-.934L50.1 33.27l.91 1.615.699.485-.609 1.83-.92.484-.512-.314-.658.169.27.471-1.2.701-.92.469-.13.633.45.347.416-.425-.11-.425 1.284-.442.599-.788.991.1.69-.5.68-2.168.17-.442-.8-.437-.775-1.363 1.105-1.07.43.263.39-.163zM41.39 31.54h.93l1.483 1.73-.912 1.615-.701.485.604 1.83.919.484.517-.314.662.169-.28.471 1.209.701.914.469.136.633-.451.347-.42-.425.11-.425-1.282-.442-.598-.788-.99.1-.695-.5-.678-2.168-.167-.442.804-.437.766-1.363-1.1-1.07-.432.263-.388-.163z"/></g></svg>