<svg xmlns="http://www.w3.org/2000/svg" viewBox="0 0 64 64"><path fill="#42ade2" d="M59.5 44v-4h1.404a29.952 29.952 0 0 0 1.1-8c0-16.568-13.432-30-30-30s-30 13.432-30 30c0 2.771.384 5.451 1.087 8h1.417v4a30.015 30.015 0 0 0 3.519 6h3.59v3.982c5.351 4.969 12.508 8.02 20.387 8.02 7.874 0 15.03-3.037 20.388-8v-4h3.612a29.92 29.92 0 0 0 3.496-6"/><g fill="#ffe62e"><path d="M4.504 44h54.992a29.87 29.87 0 0 0 1.417-4H3.087a29.73 29.73 0 0 0 1.417 4M8 50a30.255 30.255 0 0 0 3.612 4h40.775a30.255 30.255 0 0 0 3.612-4H8z"/></g><path fill="#fff" d="M22 33.713l-3.73-9.982L8.286 20l9.983-3.73L22 6.287l3.73 9.982L35.714 20l-9.983 3.73L22 33.713z"/><path fill="#c94747" d="M19.823 17.824L22 12l2.18 5.824L30 20l-5.82 2.18L22 28l-2.177-5.82L14 20z"/></svg>