<svg xmlns="http://www.w3.org/2000/svg" viewBox="0 0 64 64"><path fill="#428bc1" d="M32 2C18.939 2 7.833 10.35 3.714 22h56.572C56.167 10.35 45.061 2 32 2z"/><path fill="#83bf4f" d="M32 62c13.06 0 24.17-8.35 28.29-20H3.72c4.119 11.65 15.225 20 28.29 20"/><path fill="#ed4c5c" d="M3.714 22C2.607 25.129 2 28.492 2 32s.607 6.871 1.714 10h56.572C61.393 38.871 62 35.508 62 32s-.607-6.871-1.714-10H3.714z"/><g fill="#fff"><path d="M31.607 40.19c-4.515 0-8.173-3.668-8.173-8.192 0-4.523 3.658-8.192 8.173-8.192 1.075 0 2.099.214 3.039.591a9.46 9.46 0 0 0-5.765-1.958c-5.261 0-9.528 4.28-9.528 9.559 0 5.278 4.268 9.559 9.528 9.559a9.455 9.455 0 0 0 5.765-1.958 8.12 8.12 0 0 1-3.039.591M40.42 33.427l-2.22 1.427 1.383-2.252L37 32.03l2.574-.606L38.15 29.2l2.25 1.384.565-2.584.611 2.573 2.227-1.423-1.383 2.248 2.58.567-2.57.611 1.424 2.228-2.253-1.388L41.03 36z"/></g></svg>