<svg xmlns="http://www.w3.org/2000/svg" viewBox="0 0 64 64"><g fill="#f9f9f9"><path d="M52.12 10c-5.353-4.963-12.514-8-20.388-8s-15.04 3.037-20.388 8H52.12M11.349 54c5.353 4.962 12.514 8 20.388 8s15.04-3.038 20.388-8H11.349M1.736 32c0 4.268.896 8.324 2.504 12h54.992c1.607-3.676 2.504-7.732 2.504-12s-.896-8.324-2.504-12H4.24a29.88 29.88 0 0 0-2.504 12"/></g><g fill="#428bc1"><path d="M11.364 54h40.744a30.121 30.121 0 0 0 7.128-10h-55a30.093 30.093 0 0 0 7.128 10M52.11 10H11.366a30.101 30.101 0 0 0-7.128 10h55a30.059 30.059 0 0 0-7.128-10M40.736 27h-5.999l-3-5-3 5h-5.998l3 5-3 5h5.998l3 5 3-5h5.999l-3-5 3-5m-9-2.071L32.98 27h-2.486l1.242-2.071m-6.362 3.535h2.483l-1.24 2.071-1.243-2.071m0 7.07l1.243-2.071 1.24 2.071h-2.483m6.362 3.535l-1.243-2.07h2.486l-1.243 2.07m2.122-3.535h-4.242l-2.123-3.535 2.123-3.536h4.242l2.121 3.536-2.121 3.535m4.243 0h-2.483l1.24-2.071 1.243 2.071m-1.244-5l-1.24-2.071h2.484l-1.244 2.071"/></g></svg>