<svg xmlns="http://www.w3.org/2000/svg" viewBox="0 0 64 64"><path fill="#ed4c5c" d="M32 62c13.06 0 24.17-8.35 28.29-20H3.72c4.119 11.65 15.224 20 28.29 20"/><path fill="#699635" d="M32 2C18.939 2 7.834 10.35 3.715 22h56.572C56.168 10.35 45.061 2 32 2z"/><path fill="#ffce31" d="M60.29 42a29.936 29.936 0 0 0 1.713-10c0-3.507-.607-6.871-1.713-10H3.72a29.896 29.896 0 0 0-1.715 10c0 3.508.607 6.872 1.715 10h56.57"/><circle fill="#428bc1" cx="32" cy="32" r="14"/><g fill="#ffce31"><path d="M35.791 33.3l6.06-4.318-7.51-.021v-.002l-2.342-6.954-2.342 6.953v.002l-7.51.021 6.06 4.318-2.299 6.967 6.088-4.282h.002l6.088 4.282-2.299-6.966m3.52-3.516l-3.791 2.704-.904-2.716 4.695.012M29.185 32.99l1.074-3.22h3.473l1.074 3.22-2.81 1.99-2.811-1.99m2.811-8.381l1.465 4.35h-2.93l1.465-4.35m-7.311 5.175l4.697-.012-.906 2.716-3.791-2.704m2.793 8.379l1.438-4.36 2.371 1.679-3.809 2.681m9.04 0l-3.809-2.682 2.369-1.679 1.44 4.361"/><path d="M31.584 37.27V42h.834v-4.73L32 36.979zM25.906 32.659L22 33.801l.24.776 4.51-1.317zM29.05 28.14l.278-.806-3.108-3.847-.654.5 3.356 4.153zM35.08 28.14l3.354-4.153-.655-.5-3.107 3.847.273.806zM38.09 32.659l-.84.601 4.512 1.317.238-.776z"/></g></svg>