<svg xmlns="http://www.w3.org/2000/svg" viewBox="0 0 64 64"><g fill="#42ade2"><path d="M10.779 10.781C2.082 19.478-.15 32.186 4.067 42.951L42.951 4.068c-10.765-4.217-23.474-1.987-32.17 6.713M53.21 53.21c8.697-8.695 10.928-21.405 6.711-32.17L21.038 59.923c10.766 4.217 23.474 1.986 32.17-6.713"/></g><path fill="#c94747" d="M53.21 10.781a29.876 29.876 0 0 0-6.429-4.888l-40.89 40.89a29.873 29.873 0 0 0 4.887 6.428 29.879 29.879 0 0 0 6.43 4.889l40.89-40.891a29.903 29.903 0 0 0-4.888-6.428"/><g fill="#ffce31"><path d="M17.209 58.1c.61.346 1.227.674 1.855.973.649.311 1.31.592 1.977.852l38.883-38.883a29.353 29.353 0 0 0-.852-1.977c-.3-.628-.628-1.245-.974-1.855L17.209 58.1M44.928 4.919a29.053 29.053 0 0 0-1.977-.851L4.067 42.951c.261.668.542 1.328.853 1.979.299.627.627 1.244.973 1.854l40.89-40.891a29.813 29.813 0 0 0-1.855-.974M17.996 19.18l3.709 2.816-1.4-4.578 3.691-2.922h-4.574l-1.426-4.5-1.385 4.5h-4.615l3.692 2.922-1.401 4.578z"/></g></svg>