<svg xmlns="http://www.w3.org/2000/svg" viewBox="0 0 64 64"><g fill="#fff"><path d="M3.16 26.591v.983h.579v.983h.58v-.983h.579v-.983h.58v-.984h.58v-.983h.579v-.984h.58v-.983h-.58v-.983h-.578v-.984h-1.74v.984h1.159v.983h-.58v.983h-.579v.983h-.58v-.983h-.544a29.902 29.902 0 0 0-.615 2.513v.438h.58M10.116 11.516l-.298.32h.298v-.32"/><path d="M14.754 7.902h-.58v.983h-.579v.983h-.58v.983h-.579v.983h-.58v-.983h-.58v-.509c-.194.187-.39.373-.579.564v.928h.579v.984h.58v.983h-.58v.983h-.579v.983h-.58v-.983h-.58v-.983h-.58v-.979c-.195.234-.392.467-.58.707v.271h-.205c-.126.165-.252.33-.375.498v.485h-.354c-.077.11-.149.223-.226.334v.649h-.439c-.209.323-.407.652-.604.983h.463v.984h.58v.983h.579v.983h.58v.983H8.955v-.983h.58v-.983h.579v-.983h.58v-.984h.579v-.983h.58v-.983h.58v.983h.579v.983h.58v.984h.579v.983h.58v.983h.58v-1.967h-.58v-.984h.58v-2.95h-.58v.983h-.58v.983h-.579v-.983h-.58v-.983h-.579v-.978h.579v-.984h.58v-.983h.579v.983h.58v.984h.58V9.869h-.58v-.983h.58V7.067c-.193.13-.39.257-.58.391v.444zm-5.797 9.836H8.377V15.77H8.956v1.968zM2.58 35.443v-.984h.58v-.983h.579v-.983h.58V31.509h-.58v-.983H3.16v-.984h-.58v-.983h-.378A30.282 30.282 0 0 0 2 32c0 1.166.073 2.313.203 3.443h.377M14.754 29.541h-.58v.984h-.579v.984h-.575v.983h.575v.984h.579v.983h.58v.984h.58v-6.885h-.58z"/><path d="M9.537 12.14c-.197.223-.386.453-.576.681h.576v-.681M9.818 52.16c.099.107.198.215.298.32v-.32h-.298M8.962 51.18c.19.228.378.458.575.68v-.68h-.575"/><path d="M14.754 55.12v-.983h.58v-2.951h-.58v.983h-.58v.983h-.579v-.983h-.58v-.983h-.579v-.983h.579v-.984h.58v-.983h.579v.983h.58v.984h.58v-2.951h-.58v-.983h.58v-1.968h-.58v.984h-.58v.983h-.579v.983h-.58v.983h-.579v.983h-.58v-.983h-.58v-.983h-.579v-.983h-.58v-.983h-.58v-.984h-.58v-.983H8.377v.983h-.58v.984h-.579v.983h-.58v.983h-.463c.197.331.395.661.604.983h.439v.649c.076.111.148.225.226.334h.354v.486c.123.167.249.333.376.498h.204v.271c.188.24.385.474.58.707v-.978h.58v-.984h.579v-.983h.58v.983h.579v.984h.58v.983h-.58v.983h-.579v.929c.189.191.385.378.579.563v-.509h.58v-.983h.58v.983h.579v.984h.58v.983h.579v.983h.58v.443c.19.135.387.262.58.392v-1.818h-.58zm-5.797-6.886H8.377v-1.967H8.956v1.967zM14.754 37.41h-.58v-.983h-.579v-.984h-.575v.984h-.584v.983h-.581v.98h-.58v.99h-.579v.98h-.58v.98h.58v.99h.579v.98h1.745v-.98h-1.165v-.99h.581v-.98h.584v-.98h.575v.98h.579v.98h.58v.99h.58v-1.97h-.58v-.98h.58v-.99h-.58zM14.754 22.656h-.58v.984h-.579v.983h-.575v-.983h-.584v-.984h-.581v-.983h1.165v-.985h-1.745v.985h-.579v.983h-.58v.984h.58v.983h.579v.983h.58v.985h.581v.983h.584v.984h.575v-.984h.579v-.983h.58v-.985h.58v-.983h-.58v-.983h.58v-1.967h-.58zM3.739 39.38h.58v.984h.579v.983h.58v.983H4.319v.983h1.739v-.983h.579v-.983h.58v-.983h-.58v-.984h-.578v-.983h-.58v-.984h-.58v-.983h-.58v-.983h-.58v.983H3.16v.983h-.58v.438c.169.852.376 1.688.615 2.513h.544v-.984M10.116 26.591h-.579v-.984h-.58v-.983H8.377v.983h-.58v.984h-.579v.983h-.58v.983h-.579v.983h-.58v4.917h.58v.984h.579v.983h.58v.983h.579v.983h.58v.983H8.956v-.983h.58v-.98h.579v-.983h.58v-.983h.579v-.984h.58v-4.917h-.58v-.983h-.579v-.983h-.58v-.986zm-3.478 5.311V32.492h-.579V31.508h.579v.394m4.058.197V31.509h.579V32.493h-.579v-.394m-2.319-5.508H8.956v.983H8.377v-.983m.58 10.819H8.377v-.983H8.956v.983zm1.159-6.885h-.579v.983h-.58V32.492h.58v.983h.579v1.968h-.579v-.984h-.58v-.983H8.377v.983h-.58v.984h-.579v-1.968h.579v-.983h.58V31.508h-.58v-.983h-.579v-1.968h.579v.983h.58v.984H8.956v-.984h.58v-.983h.579v1.968z"/></g><g fill="#c8313e"><path d="M7.218 15.12c-.147.216-.298.43-.439.649h.439v-.649M7.797 14.787v-.485c-.118.161-.238.321-.354.485h.354M8.377 13.804v-.271c-.07.089-.136.182-.205.271h.205M6.06 31.902V32.492h.578V31.509H6.06zM14.754 16.754h.58v.984h-.58zM8.957 12.82v.005l.004-.005z"/><path d="M9.537 13.804v.983h.579v.983h.58v-.983h.579v-.983h.58v-.984h-.58v-.984h-.579v-.928c-.197.198-.389.403-.58.607v.32h-.298c-.093.103-.189.2-.281.304v.681h-.576l-.004.005v.979h.58M14.754 8.886h.58v.983h-.58zM14.754 11.836h-.58v-.983h-.579v.983h-.575v.984h-.584v.984h.584v.983h.575v.984h.579v-.984h.58v-.983h.58v-.984h-.58zM11.855 10.853v.983h.58v-.983h.579v-.984h.58v-.983h.579v-.984h.58v-.444A30.334 30.334 0 0 0 11.612 10h.016c-.12.111-.234.23-.353.344v.509h.58M8.609 15.771h-.232v1.967H8.957v-1.967h-.232zM9.537 29.541h-.58v.984H8.377v-.984h-.58v-.983h-.579v1.967h.579v.984h.58v.983h-.58v.984h-.579v1.967h.579v-.984h.58v-.983H8.957v.983h.58v.984h.579v-1.967h-.579v-.984h-.58V31.509h.58v-.984h.579v-1.967h-.579zM14.754 23.64h.58v.983h-.58z"/><path d="M14.754 18.722h-.58v-.983h-.579v-.984h-.58v-.983h-.579v-.983h-.58v.983h-.58v.983h-.579v.984h-.58v.983h-.58v.983h-.58v.983H8.377v-.983h-.58v-.983h-.579v-.983h-.58v-.984h-.463A29.583 29.583 0 0 0 4.5 20h.004a29.995 29.995 0 0 0-1.309 3.64h.544v.983h.58v-.983h.579v-.983h.58v-.983H4.319v-.984h1.739v.984h.579v.983h.58v.983h-.58v.983h-.578v.983h-.58v.984h-.58v.983h-.58v.983h-.58v-.983H3.16v-.983h-.58v-.438a30.176 30.176 0 0 0-.378 2.405h.378v.983h.58v.984h.579v.983h.58V32.491h-.58v.983H3.16v.983h-.58v.984h-.377c.093.813.22 1.614.377 2.405v-.436h.58v-.983h.579v-.983h.58v.983h.579v.983h.58v.983h.58v.983h.579v.984h.58v.983h-.58v.983h-.578v.983h-1.74v-.983h1.159v-.983h-.58v-.983h-.579v-.984h-.58v.984h-.544A30.042 30.042 0 0 0 4.504 44H4.5a29.597 29.597 0 0 0 1.675 3.246h.463v-.983h.58v-.983h.579v-.984h.58v-.983H8.956v.983h.58v.984h.579v.983h.58v.983h.579v.983h.58v.983h.58v-.983h.579v-.983h.58v-.983h.579v-.983h.58v-.984h.58v-1.967h-.58v-.983h-.58v-.983h-.579v-.984h-.58v.984h-.579v.983h-.58v.983h1.159v.983h-1.739v-.983h-.579v-.983h-.58v-.983h.58v-.984h.579v-.983h.58v-.986h.58v-.983h.579v-.983h.58v.983h.579v.983h.58v.983h.58v-2.95h-.58v-.984h-.58v-.983h-.579v-.983h-.58V31.509h.58v-.983h.579v-.984h.58v-.983h.58v-2.951h-.58v.984h-.58v.983h-.579v.983h-.58v-.983h-.579v-.983h-.58v-.984h-.58v-.983h-.579v-.985h-.58v-.983h.58v-.983h.579v-.984h1.739v.984h-1.159v.983h.58v.983h.579v.983h.58v-.983h.579v-.983h.58v-.983h.58v-1.968h-.58v-.984zm-4.058 8.852v.983h.579v.983h.58v4.917h-.58v.984h-.579v.983h-.58v.983h-.579v.983h-.58v.983H8.377v-.983h-.58v-.98h-.579v-.983h-.58v-.983h-.579v-.984h-.58v-4.917h.58v-.983h.579v-.983h.58v-.983h.579v-.984h.58v-.983H8.956v.983h.58v.984h.579v.983h.581z"/><path d="M8.725 27.574h.232v-.983H8.377v.983h.232zM7.218 48.23h-.44c.142.22.292.434.439.649v-.649zM7.797 49.21h-.354c.115.164.235.324.354.486v-.486M8.377 50.2h-.204c.068.09.135.182.204.271V50.2M14.754 46.26h.58v.983h-.58zM14.754 49.21h-.58v-.98h-.579v.98h-.575v.99h-.584v.98h.584v.98h.575v.99h.579v-.99h.58v-.98h.58v-.98h-.58zM8.962 51.18l-.005-.01v.01z"/><path d="M9.537 51.18v.68c.092.104.188.202.281.304h.298v.32c.191.205.383.409.58.608v-.929h.579v-.983h.58v-.983h-.58v-.984h-.579v-.983h-.58v.983h-.579v.984h-.58v.978l.005.006h.575zM14.754 54.13h.58v.983h-.58zM11.612 54a30.007 30.007 0 0 0 3.142 2.542v-.443h-.58v-.983h-.579v-.983h-.58v-.984h-.579v-.983h-.58v.983h-.58v.509c.118.113.232.232.353.344h-.017zM8.609 46.26h-.232v1.97H8.957v-1.97h-.232zM14.754 39.38h.58v.984h-.58zM11.275 32.1v-.591h-.579v.983h.579zM8.609 36.427h-.232v.983H8.957v-.983h-.232z"/></g><path fill="#83bf4f" d="M15.334 44v12.933A29.823 29.823 0 0 0 32 62c7.874 0 15.03-3.037 20.388-8h-.016A30.101 30.101 0 0 0 59.5 44H15.336"/><path fill="#c94747" d="M59.5 44c1.608-3.676 2.504-7.732 2.504-12s-.896-8.324-2.504-12h.004a30.059 30.059 0 0 0-7.128-10h.016c-5.353-4.963-12.514-8-20.388-8a29.83 29.83 0 0 0-16.666 5.066V44h44.16"/></svg>