<svg xmlns="http://www.w3.org/2000/svg" viewBox="0 0 64 64"><path fill="#2a5f9e" d="M62 32H2a29.85 29.85 0 0 0 4.023 15h51.953A29.841 29.841 0 0 0 62 32z"/><path fill="#ffe62e" d="M32 2C15.432 2 2 15.432 2 32h60C62 15.432 48.568 2 32 2z"/><path fill="#ed4c5c" d="M32 62c11.1 0 20.789-6.03 25.977-15H6.023C11.211 55.965 20.898 62 32 62"/><path fill="#034ea2" d="M25.384 29.59l.826.836.388-.955.073-.585c-.059-1.679-.029-3.326-.029-3.326l.243.216-.927-.948-.547-.548c.001-.003-.01 3.525-.027 5.31"/><path fill="#ed1c24" d="M26.67 28.887l.822-2.491-.849-.835s-.03 1.649.028 3.326"/><path fill="#fd0" d="M25.412 24.272l.547.55c-.994-1.018-2.159-2.21-2.749-2.822-.109-.112-.135 2.432-.123 5.267l2.293 2.32c.017-1.786.028-5.315.028-5.315"/><path fill="#fd0" d="M26.132 39.477c-1.847-1.19-2.15-4.816-2.12-5.31.028-.496.045-6.29.045-6.29l.547.55a820.681 820.681 0 0 1-2.749-2.822c-.19-.195-.054 7.59-.054 11.048 0 1.62.99 7.34 6.795 4.462 0 0 2.9-1.065 3.748-2.342-.197 0-.392-.013-.585-.038a2.997 2.997 0 0 1-.281.135c-3.349 2.307-5.346.61-5.346.611"/><path fill="#034ea2" d="M24.012 34.167c-.028.495.274 4.122 2.12 5.31 0 0 1.997 1.695 5.346-.61-1.013.428-1.84.518-2.38.354-1.619-.49-3.33-2.398-3.603-4.332-.274-1.933-.207-5.73-.207-5.73l.243.217-.927-.948-.547-.55c.001 0-.016 5.793-.045 6.289"/><path fill="#ed1c24" d="M26.382 31.663a27.118 27.118 0 0 1-.03-1.478c-.382-.392.072.087-.816-.821l-.248-.262v.125c-.009.525-.047 3.882.206 5.659.274 1.934 1.938 3.843 3.557 4.333.54.163 1.414.074 2.427-.354.067-.047.137-.095.206-.145-2.927-.425-4.947-3.214-5.302-7.062"/><path fill="#fd0" d="M37.87 39.603c1.848-1.187 2.15-4.816 2.122-5.31-.03-.495-.045-6.288-.045-6.288l-.547.55c.994-1.018 2.159-2.21 2.748-2.822.19-.196.055 7.59.055 11.048 0 1.62-.99 7.34-6.796 4.462 0 0-2.9-1.064-3.747-2.343.197 0 .393-.014.586-.038.088.048.182.093.282.136 3.347 2.304 5.343.609 5.343.609"/><path fill="#034ea2" d="M39.992 34.297c.028.495-.274 4.122-2.121 5.31 0 0-1.996 1.695-5.344-.61 1.012.427 1.838.517 2.38.354 1.618-.49 3.33-2.4 3.602-4.332.274-1.933.206-5.73.206-5.73l-.242.217.926-.948.548-.55s.016 5.793.045 6.289"/><path fill="#ed1c24" d="M37.621 31.794c.016-.175.03-.798.03-1.478.383-.39-.072.088.817-.821l.248-.26.002.124c.008.526.045 3.881-.207 5.659-.274 1.934-1.938 3.844-3.558 4.332-.54.164-1.414.074-2.426-.354-.068-.046-.137-.096-.208-.145 2.928-.425 4.948-3.213 5.302-7.062"/><path fill="#8cddea" d="M26.27 31.03c0 4.072 2.564 7.371 5.728 7.371s5.728-3.3 5.728-7.371-2.564-7.372-5.728-7.372-5.728 3.3-5.728 7.372"/><path fill="#6dd337" d="M26.26 31.3c0 4.07 2.564 7.371 5.729 7.371 3.163 0 5.728-3.301 5.728-7.371H26.26"/><path fill="#557176" d="M26.547 31.537l10.771.157s.052-.751.052-.839c0-.087.186-.218-.142-.25-1.203-.117-.738-.192-1.449-.239-.17-.035-4.781-1.096-5.191-1.148-.411-.053-3.972.484-3.972.484l-.069 1.835"/><path fill="#fff" d="M26.425 29.588l1.734.742s2.194-.406 2.386-.316c.191.09 2.145.375 2.249.375.103 0 2.873-.045 2.873-.045l-.135-.032c-.162-.135-2.422-.725-2.568-.845-.147-.12-1.756-.707-1.918-.856-.162-.151-1.405-.906-1.553-.912-.326-.011-3.059 1.86-3.059 1.86"/><path fill="#b1babf" d="M34.444 23.765s-1.1-.683-2.534-.666c-1.051.013-2.25.616-2.25.616-1.203.721-2.19 1.997-2.806 3.567a10.175 10.175 0 0 0-.688 3.721c0 3.853 2.138 6.936 4.809 7.67 0 0 .397.175.94.175.543 0 1.043-.069 1.043-.069 2.724-.678 4.873-3.83 4.873-7.734.002-5.064-3.907-7.606-3.387-7.28m-1.482 14.512s-.549.1-1.039.1c-.489 0-.957-.126-.957-.126-2.405-.672-4.315-3.593-4.315-7.12 0-1.238.273-2.461.667-3.481.554-1.438 1.495-2.551 2.578-3.21 0 0 1.092-.681 2.038-.692 1.291-.015 2.269.738 2.269.738 1.813 1.15 3.071 3.684 3.071 6.625-.001 3.574-1.86 6.546-4.312 7.166"/><path fill="#034ea2" d="M32.22 32.886c-.002 0-.001 0 0 0l.004-.001-.004.001m-3.658-1.724c.026.04 1.735 2.319 1.735 2.319l-2.628 1.531s.199.636.7 1.271c.5.636 1.658 1.861 2.849 1.985 1.192.123 2.038.079 2.686-.291.647-.371 1.528-.936 2.099-1.88.57-.943.611-1.077.611-1.077s-3.767-.76-3.887-.848c-.121-.089-3.684-2.916-3.787-2.99-.106-.077.773-1.167.773-1.167l-1.151 1.147z"/><path fill="#ed1c24" d="M31.05 39.802h1.89v4.923h-1.89z"/><g fill="#034ea2"><path d="M29.564 40.23h1.89v4.923h-1.89zM32.545 40.23h1.891v4.923h-1.891z"/></g><g fill="#fd0"><path d="M29.24 40.23h1.193v6.181H29.24zM33.57 40.23h1.193v6.181H33.57z"/></g><path fill="#fff" d="M27.487 38.1h9.03v2.385h-9.03z"/><path fill="#594640" d="M37.602 18.5c-1.753 0-3.735 2-5.602 2s-3.849-2-5.601-2c-1.747 0-8.399 2-8.399 2 9.335 0 14 5 14 5s4.664-5 14-5c0 0-6.651-2-8.398-2"/><circle fill="#f9f9f9" cx="32" cy="19.666" r="1.166"/></svg>