<svg xmlns="http://www.w3.org/2000/svg" viewBox="0 0 64 64"><path fill="#2a5f9e" d="M32 2v10H12v20H2c0 16.568 13.432 30 30 30s30-13.432 30-30S48.568 2 32 2z"/><g fill="#fff"><path d="M14 8C6.714 13.473 2 22.186 2 32h12V8z"/><path d="M8 14h24V2C22.186 2 13.473 6.714 8 14z"/><path d="M9.831 11.789L26 32h6v-7.5L17.15 5.938a30.106 30.106 0 0 0-7.319 5.851z"/></g><g fill="#ed4c5c"><path d="M32 5H18.913A30.113 30.113 0 0 0 5 18.912V32h6V11h21V5z"/><path d="M32 27.06L19 11h-6l17 21h2z"/></g><g fill="#fff"><path d="M8 35.715L10.226 33l-.684 3.477 3.458.091-3.077 1.622 2.087 2.83-3.155-1.457L8 43l-.855-3.437-3.154 1.457 2.086-2.83L3 36.568l3.458-.091L5.774 33zM52 20.17L53.781 18l-.551 2.781 2.77.074-2.46 1.295 1.67 2.265-2.526-1.165L52 26l-.68-2.75-2.527 1.165 1.667-2.265L48 20.855l2.766-.074L50.22 18zM52 40.17L53.781 38l-.551 2.781 2.77.074-2.46 1.295 1.67 2.26-2.526-1.16L52 46l-.68-2.75-2.527 1.16 1.667-2.26L48 40.855l2.766-.074L50.22 38zM42 26.17L43.781 24l-.551 2.781 2.77.074-2.462 1.295 1.672 2.265-2.526-1.165L42 32l-.68-2.75-2.527 1.165 1.668-2.265L38 26.855l2.766-.074L40.22 24z"/></g></svg>