<svg xmlns="http://www.w3.org/2000/svg" viewBox="0 0 64 64"><path fill="#c94747" d="M32 2C18.938 2 7.833 10.349 3.713 22h56.572C56.166 10.349 45.061 2 32 2z"/><path fill="#699635" d="M32 62c13.06 0 24.17-8.35 28.28-20H3.71C7.83 53.65 18.935 62 32 62"/><path fill="#ffce31" d="M3.713 22A29.936 29.936 0 0 0 2 32c0 3.508.608 6.872 1.714 10h56.572A29.941 29.941 0 0 0 62 32c0-3.508-.608-6.871-1.715-10H3.713z"/><path fill="#3e4347" d="M32 37.31L38.18 42l-2.333-7.63L42 29.5h-7.623L32 22l-2.309 7.5H22l6.15 4.87L25.818 42z"/></svg>