<svg xmlns="http://www.w3.org/2000/svg" viewBox="0 0 64 64"><path fill="#f2b200" d="M31.839 2c-13.06 0-24.17 8.35-28.29 20h56.57C56 10.35 44.893 2 31.829 2"/><path fill="#83bf4f" d="M31.839 62c13.06 0 24.17-8.35 28.29-20H3.559c4.119 11.65 15.225 20 28.29 20"/><path fill="#fff" d="M3.553 22c-1.106 3.129-1.714 6.492-1.714 10s.607 6.871 1.714 10h56.57c1.106-3.129 1.714-6.492 1.714-10s-.607-6.871-1.714-10H3.553"/><circle fill="#428bc1" cx="31.839" cy="32" r="8"/><circle fill="#fff" cx="31.839" cy="32" r="7"/><g fill="#428bc1"><circle cx="29.16" cy="25.533" r=".5"/><circle cx="27.577" cy="26.447" r=".5"/><circle cx="26.29" cy="27.739" r=".5"/><circle cx="25.372" cy="29.322" r=".5"/><circle cx="24.898" cy="31.09" r=".5"/><circle cx="24.899" cy="32.914" r=".5"/><circle cx="25.372" cy="34.679" r=".5"/><circle cx="26.29" cy="36.26" r=".5"/><circle cx="27.578" cy="37.554" r=".5"/><circle cx="29.16" cy="38.467" r=".5"/><circle cx="30.926" cy="38.94" r=".5"/><path d="M32.26 39.01a.501.501 0 1 1 .993-.133.501.501 0 0 1-.993.133"/><circle cx="34.519" cy="38.467" r=".5"/><circle cx="36.1" cy="37.553" r=".5"/><circle cx="37.39" cy="36.26" r=".5"/><circle cx="38.31" cy="34.677" r=".5"/><circle cx="38.78" cy="32.912" r=".5"/><path d="M38.845 31.58a.497.497 0 0 1-.562-.429.503.503 0 0 1 .431-.562.502.502 0 0 1 .562.432.499.499 0 0 1-.431.559"/><circle cx="38.31" cy="29.32" r=".5"/><circle cx="37.39" cy="27.737" r=".5"/><circle cx="36.1" cy="26.446" r=".5"/><path d="M34.978 25.724a.495.495 0 0 1-.651.271.501.501 0 0 1 .383-.925.5.5 0 0 1 .268.654M33.25 25.13a.496.496 0 0 1-.559.431.502.502 0 0 1 .13-.993.5.5 0 0 1 .429.562M31.418 24.996a.493.493 0 0 1-.427.56.5.5 0 1 1 .427-.56"/><circle cx="31.838" cy="32" r="1.499"/><path d="M31.839 25l-.25 4.323.25 2.677.251-2.69zM30.03 25.24l.874 4.239.935 2.521-.454-2.66zM28.339 25.938l1.941 3.868L31.839 32l-1.127-2.452z"/><path d="M26.89 27.05l2.879 3.23 2.07 1.72-1.729-2.077zM25.777 28.5l3.618 2.378L31.839 32l-2.202-1.56zM25.08 30.19l4.11 1.359 2.649.451-2.529-.94zM24.84 32l4.32.25 2.679-.25-2.689-.25zM25.08 33.811l4.24-.876L31.839 32l-2.659.455zM25.777 35.499l3.869-1.943L31.839 32l-2.451 1.13zM26.89 36.949l3.23-2.879L31.839 32l-2.076 1.724zM28.339 38.06l2.379-3.617L31.839 32l-1.559 2.2zM30.03 38.76l1.359-4.11.45-2.65-.937 2.531z"/><path d="M31.838 38.999l.252-4.321L31.839 32l-.25 2.688zM33.649 38.761l-.875-4.24L31.839 32l.451 2.66zM35.34 38.06l-1.944-3.87L31.839 32l1.127 2.452zM36.788 36.949l-2.878-3.234L31.839 32l1.724 2.08zM37.9 35.5l-3.62-2.38L31.839 32l2.201 1.561zM38.6 33.813l-4.11-1.363-2.651-.45 2.531.938zM38.838 32l-4.321-.252-2.678.252 2.687.25zM38.6 30.19l-4.24.87-2.521.94 2.661-.454zM37.9 28.501l-3.87 1.942L31.839 32l2.451-1.127zM36.788 27.05l-3.233 2.878L31.839 32l2.078-1.72zM35.34 25.939l-2.38 3.616L31.839 32l1.561-2.203zM33.651 25.24l-1.361 4.108L31.839 32l.938-2.532z"/></g></svg>