<svg xmlns="http://www.w3.org/2000/svg" viewBox="0 0 64 64"><g fill="#2a5f9e"><path d="M32 2v30H2c0 16.568 13.432 30 30 30s30-13.432 30-30S48.568 2 32 2z"/><path d="M12 12h21v21H12z"/></g><g fill="#fff"><path d="M18.912 8.139V14H11.6L26 32h6v-7.5z"/><path d="M11 18.912H5.012A29.84 29.84 0 0 0 2 32h12V13.912h-3v5z"/></g><path fill="#ed4c5c" d="M32 27.06L19 11h-6l17 21h2z"/><path fill="#fff" d="M18.912 5.012V11H11v3h21V2a29.846 29.846 0 0 0-13.088 3.012z"/><path fill="#ed4c5c" d="M32 5H18.912A30.116 30.116 0 0 0 5 18.912V32h6V11h21V5z"/><g fill="#d8a322"><path d="M34.541 33.848l-.002.007.002-.007M34.537 33.86l-.037.079.037-.079M34.539 33.854l-.002.006.002-.006"/></g><g fill="#fff"><path d="M51.968 21.09l-.194 1.828 1.686.75-1.805.382-.195 1.835-.92-1.596-1.804.383 1.235-1.37-.921-1.598 1.683.75zM56.43 24.325l-.92 1.597 1.23 1.368-1.803-.381-.927 1.597-.189-1.833-1.801-.385 1.682-.749-.192-1.834 1.233 1.365zM59.19 29.1l-1.497 1.08.567 1.758-1.489-1.084-1.491 1.084.569-1.758-1.489-1.08h1.84l.571-1.754.569 1.754zM59.762 34.584l-1.805.384-.192 1.833-.922-1.601-1.803.388 1.23-1.368-.92-1.6 1.68.751L58.27 32l-.19 1.833zM58.06 39.829l-1.81-.385-.92 1.596-.19-1.83-1.8-.385 1.68-.755-.193-1.83 1.233 1.37 1.685-.751-.921 1.598zM54.37 43.926l-1.494-1.084-1.496 1.084.574-1.756-1.494-1.08h1.85l.566-1.76.574 1.76h1.84l-1.492 1.08zM49.33 46.17l-.92-1.599-1.806.384 1.235-1.371-.923-1.597 1.686.749 1.234-1.366-.193 1.83 1.687.751-1.81.389zM43.816 46.17l-.192-1.84-1.804-.379 1.685-.751-.195-1.83 1.237 1.366 1.683-.749-.92 1.597 1.233 1.369-1.804-.382zM38.779 43.926l.571-1.756-1.493-1.08h1.845l.568-1.76.572 1.76h1.844l-1.496 1.08.574 1.756-1.494-1.084zM35.09 39.827l1.23-1.37-.918-1.598 1.688.751 1.23-1.37-.19 1.83 1.683.754-1.803.386-.194 1.83-.921-1.596zM33.386 34.584l1.684-.751-.192-1.835 1.232 1.373 1.687-.751-.922 1.6 1.235 1.368-1.8-.388-.93 1.601-.19-1.833zM33.963 29.1h1.844l.573-1.754.566 1.754h1.845L37.3 30.18l.568 1.758-1.488-1.084-1.495 1.084.57-1.758zM36.719 24.325l1.681.745 1.239-1.365-.193 1.834 1.684.749-1.8.385-.2 1.833-.92-1.597-1.803.381 1.235-1.368zM41.18 21.09l1.23 1.364 1.69-.75-.92 1.598 1.23 1.37-1.803-.383-.922 1.596-.193-1.835-1.804-.382 1.682-.75zM46.574 19.938l.576 1.752h1.838L47.5 22.775l.57 1.754-1.496-1.084-1.494 1.084.571-1.754-1.491-1.085H46z"/></g></svg>