<svg xmlns="http://www.w3.org/2000/svg" viewBox="0 0 64 64"><defs><linearGradient id="a" gradientUnits="userSpaceOnUse" x1="-1133.29" x2="-1132.29" gradientTransform="matrix(-.5968 -1.5125 1.2072 -.7477 257.78 -2226.21)"><stop stop-color="#d5dfff"/><stop offset="1" stop-color="#fff"/></linearGradient></defs><g fill="#2a5f9e"><path d="M32 1.999v30H2c0 16.568 13.432 30 30 30 16.569 0 30-13.432 30-30 0-16.569-13.432-30-30-30"/><path d="M12 11.999h21v21H12z"/></g><g fill="#fff"><path d="M18.912 8.139v5.86H11.6l14.4 18h6v-7.501z"/><path d="M11 18.911H5.011A29.857 29.857 0 0 0 2 32h12V13.911h-3v5z"/></g><path fill="#ed4c5c" d="M32 27.06L19 11h-6l17 21h2z"/><path fill="#fff" d="M18.912 5.01v5.988H11v3h21v-12a29.885 29.885 0 0 0-13.09 3.01"/><path fill="#ed4c5c" d="M32 4.999H18.91A30.139 30.139 0 0 0 4.998 18.911v13.09h6v-21h21v-6"/><path fill="#6a4c2d" d="M44.564 41.695c-.617.586-1.799 1.174-2.641.598-1.053.24-.496.52-1.461-.168-.734.227-.852.234-1.861-.23-.471.938-1.125 1.109-1.875.463.143-.195.279-.395.414-.596 0 .352-1.627.258-1.727.281.873-2.926 4.553-5.26 6.676-7.322 1.018 1.875 3.684 4.779 2.475 6.974"/><path fill="#fff" d="M48.752 42.04l1.538-.054-.657-.322 5.847-.224-.826-.31-.732-.99-3.622-.318-.304-.542-1.866-.14-1.165.794.787 2.01z"/><path fill="#656263" d="M48.754 31.11c.117-.072.486-.189.441-.73-.045-.539-.514-.604-.775-.586-.262.02-.496.244-.496.244l-.865-.549s.434-2.732.893-2.903c.436-.314.514-.451.514-.523l-.162-.252-2.82-.333-2.668.315s-.207.316-.18.443c.025.125.035.261.512.631.529.407.893 2.741.893 2.741l-.793.324c-.045-.045-.27-.09-.387-.072s-.504.215-.504.729c0 .516.387.813.387.813s2.551-.297 2.93.404c.367-.848 2.791-.551 3.08-.696"/><path fill="#3e4347" d="M51.5 28.27c.211-.574.584-.559 1.174-.57 1.234-.027 1.123.408 1.494 1.389.533 1.404 1.359 2.801 1.457 4.352.104 1.674.064 3.998-.717 5.52-.557 1.084.746 1.377 1.547 1.773l-.607-.227.607.508-.691-.324.408.408-1-.451.439.424-.75-.352c.143.154.289.305.439.451a8.685 8.685 0 0 0-.65-.283l.027.24c-.758-.633-2.01-.658-2.309-1.564-.352-1.049-1.162-2.465-1.109-3.578.108-2.344.839-5.43.243-7.716"/><path fill="#00713d" d="M43.99 39.74l-.242.936.332-.446.03 1 .33-.574.01 1.201.292-.577-.033 1.1.262-.489.219.994.27-.645.444.79.116-.62.625.68v-.68l.675.62.03-.473.66.32-.02-.427.809.259-.499-.519h.468l-.778-.475.44-.026-.774-.539.524-.03-.79-.595.409-.084z"/><path fill="#fff" d="M41.916 31.391l2.162-.039s1.428 0 1.582.465c.27-.619 1.506-.58 1.506-.58.746-.023 1.492-.051 2.238-.076l.039 5.404c-.438 2.096-1.957 3.576-3.629 4.207-1.994-.645-3.256-2.33-3.666-4.246l-.232-5.135"/><path fill="#006b00" d="M42.686 31.371l3.148 8.391 2.846-8.572c-.883.057-2.775-.141-3.01.664-.363-.721-2.355-.43-2.982-.483"/><g fill="#cdad56"><path d="M43.984 17.825l1.842-1.527.244-1.132-.345.262-.112-.525-.09-.091-.163.208-.17-.421-.284.431.504.99-.494.803-.172-.555.182-.546-.324.111.021-.617-.423.334-.14-.061.471 1.254-.321.397-.507-1.317-.121.297-.222-.236.161.697-.251.061.351.388-.321.329.575-.199-.162.442zM42.598 17.825l-1.568-1.389-.149-1.041.239.249.17-.564.202.308.285-.397.182.294-.569.902.419.727.146-.506-.266-.398h.381l.03-.518.29.273.239-.227-.499 1.302.22.25.388-1.03.203.21.189-.21-.136.633.216.055-.13.352.1.301-.487-.183.137.404z"/></g><path fill="#ffc900" d="M48.15 32.623l-.316-.361.373-.477-.607.15-.105-.611-.152.646-.598-.268.424.48-1.154.811.297.084-.402.055.129.225-.303.104.178.125-.783.025-.051-.6.836.041-.408-.801-.26.168-.26-.359-.697.205.424-.48-.596.268-.154-.645-.104.609-.607-.15.479.355-.422.484.545-.23.205.607.074-.363-.006-.021.271.209h.057l.139 2.01-.156.426.119-.098.27.654.088-.568.465-.229.328-.113.193.061.146.557-.455.656-.559.271-.213.273.574-.285.016.295.326-.279.016.232.193-.109-.512 1.318.455-.387-.047.568.199-.412.248-.225.088.215.045-.547.17.135-.203-.699.271.164-.227-.871.771-.424-.033-.4-.217.135.17-.4.09-.613-.021.299v-.508l.26.102-.191-.262.443-.18-.217-.014.49-.494-1.162.871-.133 1.697-.42-1.939.25.303.17-.787.42.096-.193-.266.205.061-.336-.193.449-.084-.378-.323.51-.195.039.595.205-.607.545.23m-3.201 2.188l.105-.656.801-.096-.906.752"/><g fill="#ed4c5c"><path d="M38.773 48.82c.316-.078 2.035.379 2.699 1.09-.141-1.266-.492-2.234-.492-2.234s-1.025-.293-1.164-.152c-.207.216-.826.867-1.043 1.296M38.25 42.975c-.119.02-.24.102-.361.301-.141.342-.24 1.205-.441 1.406s-.383.221-.383.402.021.604.563.762c.543.021 1.406-.863 1.406-.863s.443-.482.623-1c-1.046.361-1.788-.604-1.407-1M53.36 48.617c-.316-.074-2.055.379-2.713 1.086.141-1.26.488-2.223.488-2.223.121-.033 1.01-.291 1.145-.15.205.215.864.863 1.08 1.287M53.844 42.807c.119.02.162.178.26.377.139.34.283.834.482 1.033.199.201.379.496.379.676s-.043.424-.58.582c-.539.02-1.318-.67-1.318-.67s-.439-.48-.619-1c1.036.359 1.708-.565 1.396-.998"/></g><path fill="#ffce31" d="M52.34 45.42c.414-.438.73-.576.73-.576s-.479-.6-.598-1.018c.957.479 2.291-1.08.836-1.199-1.039.107-1.881.906-2.502 1.875-3.063-1.488-6.689-1.377-9.564.068-.6-.973-1.418-1.762-2.447-1.777-1.467.121-.121 1.688.844 1.205-.121.424-.604 1.025-.604 1.025s.285.125.666.508a8.906 8.906 0 0 0-2.051 2.184s1.084.742 1.104 1.086a8.17 8.17 0 0 1 1.869-1.949c.363.723.697 1.709.883 3.053 0 0 .564-1.627.904-1.646.15-.01-.006-1.057-.457-2.232 2.426-1.236 5.477-1.449 8.148-.16-.455 1.107-.633 2.131-.502 2.383.34.02 1.018 1.449 1.018 1.449.184-1.316.508-2.289.861-3a9.531 9.531 0 0 1 1.859 1.803c.564-.742 1.146-.984 1.146-.984a10.254 10.254 0 0 0-2.143-2.096"/><g fill="#1e5aa6"><path d="M48.697 31.19l.424-.01-.758.961.91 1.061-1.789 2.254 1.688 2.033c-.186.455-.4.869-.688 1.244l-.971-1.074 1.76-2.191-1.445-1.639.869-2.639M42.631 31.383l-.455.01.85.918-.898 1.123 1.869 2.033-1.547 2.072c.186.455.451.961.738 1.334l.92-1.162-1.891-2.104 1.385-1.758-.971-2.466"/><path d="M44.734 36.84l-.668.891 2.387 2.76c.42-.213.752-.455 1.111-.748l-1.244-1.436.508-1.486.727.838-2.275 2.902a4.952 4.952 0 0 1-1.182-.729l1.203-1.525-.567-1.467M43.996 35.455l.434.545-.28-.73zM47.11 35.938l.35-.463-.13-.185z"/></g><path fill="#f5f5f5" d="M51.54 29.514c.193-.014 1.439.031 1.439.197a2.267 2.267 0 0 0-1.086 1c.301.455.594.916.875 1.381.078 1.045-1.316 2.02-1.17 3.533.104 1.068.113 2.168.957 2.92 1.125 1 .635-2.094.693-2.371.045-.229 1.096 1 1.072 1.383-.07 1.092-.451.508-.521.775-.303 1.139-.346 1.848-1.254 1.762-1.413-.809-2.784-8.772-1.01-10.582"/><g fill="#fff"><path d="M47.44 27.629s1.125 1.215 1.854 1.203c.131.357-.332.688-.516.846-.371-.117-.707.023-1.566-1.035.055-.674.242-.989.228-1.014M48.965 24.797c.146-.45.438-.807.688-.847-.066-.343.529-1.864 2.262-2.446.105.78-.74 1.548-.74 1.548s2.553-.437 3.068-1.085c-.053.291-.568 2.103-3.293 2.089 1.031.979-.33 1.76-.912 1.521 1.069-.819-.306-1.308-1.073-.78"/></g><g fill="#00f"><path d="M48.766 29.678s1.402.383 1.563-1.627c-.305-.873-.729-2.751-.08-3.293-.596-.41-1.244.013-1.244.013-.039.093-.568.847.146 2.168-1.693-.449-1.01 1.151-1.01 1.151.066-.25.967-.488 1.191.795.092.316-.609.806-.57.793"/><path d="M50.34 28.06s1.482-.793 1.441-2.658c-1.256.026-1.705 1.652-1.705 1.652l.264 1.01"/></g><path fill="#fff" d="M43.701 27.971s-1.098.953-1.719.648c-.463.277-1.01-.211-1.01-.211s.635 2.34 2.91.646c-.038-.513-.157-1.042-.185-1.083"/><path fill="#00f" d="M41.969 28.58c.092-.49.477-.729.781-.266.41.08.818-1.599-.637-1.322.41-2.195-.818-3.02-.818-3.02s-.438 2.433-.238 2.882c.197.451-.291-.832-1.865-1.19-.025 1.838 1.76 2.7 1.76 2.7s.501.463 1.017.211"/><path fill="#fff" d="M41.1 24.89c0-.013-1.045 0-.422 1.058-.465.146-1.496-.529-.781-1.428-2.34-.053-3.293-1.177-3.293-2.209.688.714 2.328.424 2.91.86-.715-.661-.57-1.573-.57-1.573s1.998.595 2.355 2.367c-.119.344-.172.952-.199.925"/><path fill="#923f00" d="M42.936 24.333l-.154.525 5.611.107c-.113-.578-.506-1.235-.74-1.705.063-.442.143-1.057.25-1.631.09-.48-.652-.603-.471-1.102-.059.158.633.037.621.038-.254.021-.365-1.018-.703-1.146-.65-.247-1.01.014-1.625-.018-.828-.043-2.01-.02-1.771-1.164.389.122.871.03 1.018-.41-.102-.075-1.434-.282-1.641-.292-.186-.008-1.609.356-1.719.45.395.515.779.379 1.16.751.176.172.318 1.069.137 1.01h.211a.597.597 0 0 0-.199.331.99.99 0 0 1 .371-.026 2.703 2.703 0 0 1-.303.502l.502.04a2.454 2.454 0 0 0-.174.477c.117-.045.236-.08.359-.106.318.954-.381 2.477-.74 3.371m4.132-1.026c.223-.072.217-.07 0 0m-.152-1.882c.836 0 .4 1.842.084 1.887-.766.11-.658-1.887-.084-1.887m-1.984.595c-.26-1.63 2.01-1.064 1.293.095-.098.159-.584 1.274-.623 1.274-.627.002-.805-.905-.67-1.369m-1.01 1.018c.391-.51-.293-1.747.648-1.984.004.74.008 1.739-.418 2.382a.42.42 0 0 0-.449-.242c.109-.014.182-.066.219-.156"/><path fill="#b4b6b9" d="M42.709 26.423l2.781 1.821 2.506-1.685s.523-.29.479-.497c-.045-.207-.227-.126-.316-.089l-2.623 1.83-2.693-1.705s-.199-.062-.234.063c-.039.127.073.198.1.262"/><g fill="#ff7000"><path d="M52.03 39.824l-1.065.102.335.304 1.317-.02zM51.604 28.396l-1.334.694.337.306 1.323-.021zM51.32 40.38l.588.419 1.692-.26-.48-.319z"/></g><path fill="url(#a)" d="M51.01 31.715c-.154-.078-.834-.17-1.59.324l.031 1.744s1.111-.602 1.652-.463c-.031-.541-.031-1.234-.093-1.605"/><path fill="#8a9396" d="M40.04 30.02c-.291.775.691 2 1.023 2.674.67-.848.961-.943.967.193.002.262.076.723-.023.971-.127.324-.766.143-.539.535.568.984.465 1.586.168 2.641-.115.406-.527 2.502-1.055 2.59.029-.004.064-1.527.021-1.748-.053-.26-.559-1.018-.375-1.314-.213.342-1.025 1.457-1.535 1.133.223.479.01.732-.074 1.162-.057.301-.074.654-.131 1.014-.068.438-.688.771-.578 1.422-2.07-.732-3.539-2.291-2.838-4.576.154-.506.43-.99.869-1.299.547-.387.59-1.033.83-1.67.094-.25.291-.547.258-.822-.068-.551.268-.783.34-1.236.107-.67.166-1.541.16-2.221-.008-1.113.395-1.01 1.264-1.488.271-.148 1.537.084 1.813.314.32.268-.362 1.557-.565 1.725"/><path fill="#fff" d="M42.564 24.723h5.947v1.179h-5.947z"/></svg>