<svg xmlns="http://www.w3.org/2000/svg" viewBox="0 0 64 64"><path fill="#83bf4f" d="M60 42c-5.523 0-10-4.477-10-10H10.79v21.21h-.002c5.43 5.43 12.93 8.788 21.21 8.788 13.07 0 24.18-8.356 28.29-20.02-.098.003-.193.015-.291.015"/><path fill="#3e4347" d="M60 22c.098 0 .193.012.291.015-4.115-11.659-15.225-20.02-28.29-20.02a29.887 29.887 0 0 0-21.21 8.788h.002v21.21h39.21c0-5.523 4.477-10 10-10"/><path fill="#f9f9f9" d="M60.29 22h-49.5v20h49.5c1.107-3.129 1.714-6.492 1.714-10s-.607-6.871-1.714-10"/><g fill="#ed4c5c"><path d="M10.787 10.787C5.357 16.216 2 23.716 2 32s3.357 15.784 8.787 21.213L32 32 10.787 10.787zM44 38.857c-3.042-.646-5.333-3.473-5.333-6.857s2.291-6.211 5.333-6.857A6.108 6.108 0 0 0 42.668 25C38.984 25 36 28.137 36 32s2.984 7 6.668 7c.456 0 .902-.047 1.332-.143"/><path d="M44.999 34.12L47.47 36l-.932-3.053L49 31h-3.052l-.949-3-.919 3H41l2.46 1.947L42.53 36z"/></g></svg>