<svg xmlns="http://www.w3.org/2000/svg" viewBox="0 0 64 64"><g fill="#42ade2"><path d="M32 62c13.06 0 24.17-8.35 28.29-20H3.72c4.119 11.65 15.224 20 28.29 20M32 2C18.939 2 7.834 10.349 3.715 22h56.572C56.168 10.349 45.062 2 32 2z"/></g><path fill="#f9f9f9" d="M60.29 42a29.94 29.94 0 0 0 1.713-10 29.94 29.94 0 0 0-1.713-10H3.72a29.912 29.912 0 0 0-1.715 10c0 3.508.608 6.872 1.715 10h56.57"/><g fill="#42ade2"><path d="M32 33.592L33.854 35l-.704-2.29L35 31.29l-2.286-.01L32 29l-.71 2.28-2.29.01 1.847 1.42L30.15 35zM22 28.592L23.854 30l-.704-2.29L25 26.292l-2.286-.012L22 24l-.713 2.28-2.287.012 1.847 1.418L20.15 30zM42 28.592L43.854 30l-.704-2.29L45 26.292l-2.286-.012L42 24l-.71 2.28-2.29.012 1.847 1.418L40.15 30zM22 38.592L23.854 40l-.704-2.289L25 36.29l-2.286-.01L22 34l-.713 2.28-2.287.01 1.847 1.421L20.15 40zM42 38.592L43.854 40l-.704-2.289L45 36.29l-2.286-.01L42 34l-.71 2.28-2.29.01 1.847 1.421L40.15 40z"/></g></svg>