<svg xmlns="http://www.w3.org/2000/svg" viewBox="0 0 64 64"><path fill="#2a5f9e" d="M16.996 6.01C6.343 12.16.896 23.856 2.186 35.348L49.808 7.853C40.499.993 27.648-.141 16.996 6.01m8.55 11.427l-3.183-.912.908 3.184-2.3-2.379-.805 3.211-.804-3.211-2.303 2.379.909-3.184-3.182.91 2.378-2.303-3.212-.801 3.212-.807-2.379-2.303 3.183.91-.909-3.182 2.302 2.379.804-3.213.805 3.213 2.303-2.379-.91 3.184 3.182-.91-2.378 2.301 3.212.803-3.212.805 2.379 2.305"/><path fill="#83bf4f" d="M14.187 56.14C23.496 63 36.347 64.134 47 57.984c10.652-6.15 16.1-17.849 14.81-29.339L14.187 56.14"/><path fill="#ed4c5c" d="M57.981 16.993a29.848 29.848 0 0 0-4.951-6.38L2.97 39.519a29.878 29.878 0 0 0 3.049 7.479 29.898 29.898 0 0 0 4.951 6.379l50.06-28.905a29.84 29.84 0 0 0-3.049-7.479"/><g fill="#fff"><path d="M61.5 26.511a29.857 29.857 0 0 0-.468-2.039l-50.06 28.904c.499.491 1 .975 1.533 1.426.548.468 1.112.91 1.688 1.334l47.624-27.495a30.36 30.36 0 0 0-.312-2.13M51.5 9.188a29.81 29.81 0 0 0-1.69-1.335L2.188 35.349c.08.711.18 1.422.312 2.131.127.683.292 1.361.468 2.039l50.06-28.906c-.499-.491-1-.973-1.532-1.425"/></g><path fill="#ffce31" d="M23.17 13.526l2.375-2.3-3.182.91.91-3.184-2.302 2.379-.801-3.213-.808 3.213-2.302-2.379.91 3.182-3.183-.91 2.383 2.302-3.216.807 3.216.797-2.382 2.307 3.182-.911-.91 3.184 2.303-2.379.807 3.211.802-3.211 2.299 2.379-.908-3.184 3.183.912-2.376-2.308 3.209-.801z"/></svg>