<svg xmlns="http://www.w3.org/2000/svg" viewBox="0 0 64 64"><path fill="#ffe62e" d="M32 62a29.848 29.848 0 0 0 16-4.628V6.628A29.848 29.848 0 0 0 32 2a29.85 29.85 0 0 0-16 4.628v50.744A29.85 29.85 0 0 0 32 62z"/><path fill="#2a5f9e" d="M16 6.628C7.59 11.943 2 21.316 2 32s5.59 20.057 14 25.372V6.628z"/><g fill="#699635"><path d="M48 57.37c8.41-5.315 14-14.688 14-25.372s-5.59-20.06-14-25.372V57.37M24.772 17.92l-6.02 10.35 6.02 10.353 6.02-10.353zM39.23 17.92L33.2 28.27l6.03 10.353 6.02-10.353zM25.978 41.729L32 52.08l6.02-10.351L32 31.377z"/></g></svg>