<svg xmlns="http://www.w3.org/2000/svg" viewBox="0 0 64 64"><circle fill="#f42f4c" cx="32" cy="32" r="30"/><path fill="#4f682e" d="M23.348 44l3.305-9.93L18 27.937h10.693L32 18l3.309 9.937H46l-8.65 6.134L40.654 44 32 37.863 23.348 44m10.498-7.443l2.684 1.902-1.025-3.078-1.659 1.176m-5.35-1.176l-1.023 3.078 2.684-1.902-1.661-1.176m.705-2.118L32 35.248l2.801-1.985-1.068-3.208H30.27l-1.069 3.208m-4.525-3.208l2.68 1.9.633-1.9h-3.313m11.969 1.9l2.682-1.9h-3.314l.632 1.9m-5.67-4.02h2.053L32 24.849l-1.025 3.086"/></svg>