<svg xmlns="http://www.w3.org/2000/svg" viewBox="0 0 64 64"><g fill="#ed4c5c"><path d="M52.388 10C47.035 5.037 39.874 2 32 2s-15.035 3.037-20.388 8h40.776zM11.612 54c5.353 4.963 12.514 8 20.388 8s15.03-3.037 20.388-8H11.612"/></g><path fill="#2a5f9e" d="M2 32c0 4.268.896 8.324 2.504 12h54.992C61.104 40.324 62 36.268 62 32s-.896-8.324-2.504-12H4.504A29.862 29.862 0 0 0 2 32z"/><g fill="#f9f9f9"><path d="M11.628 54h40.744A30.101 30.101 0 0 0 59.5 44h-55a30.059 30.059 0 0 0 7.128 10M52.37 10H11.626a30.101 30.101 0 0 0-7.128 10h55a30.059 30.059 0 0 0-7.128-10"/></g></svg>