<svg xmlns="http://www.w3.org/2000/svg" viewBox="0 0 64 64"><path fill="#699635" d="M17 58V6C8.036 11.192 2 20.888 2 32c0 11.111 6.036 20.807 15 26z"/><path fill="#ed4c5c" d="M32 2a29.892 29.892 0 0 0-15 4.02v51.954a29.872 29.872 0 0 0 15 4.02c16.568 0 30-13.432 30-30 0-16.569-13.432-30-30-30"/><g fill="#ffe62e"><path d="M17 20c-6.627 0-12 5.373-12 12s5.373 12 12 12 12-5.373 12-12-5.373-12-12-12m0 22.5c-5.798 0-10.5-4.701-10.5-10.5 0-5.798 4.702-10.5 10.5-10.5S27.5 26.201 27.5 32 22.798 42.5 17 42.5"/><path d="M21.1 43.682a.504.504 0 0 1-.707 0L6.67 25.622a.502.502 0 0 1 0-.707l.354-.354a.502.502 0 0 1 .707 0l13.724 18.06a.502.502 0 0 1 0 .707l-.355.354"/><path d="M17.25 19.5c.275 0 .5.225.5.5v24c0 .275-.225.5-.5.5h-.5a.502.502 0 0 1-.5-.5V20c0-.275.226-.5.5-.5h.5"/><path d="M28.948 33.34L17 31.233v1.523l11.688 2.061a.502.502 0 0 0 .579-.406l.087-.492a.501.501 0 0 0-.406-.579M17 31.08l-9.399-6.582a.5.5 0 0 0-.696.123l-.287.41a.501.501 0 0 0 .122.696L17 32.911V31.08"/><path d="M16.581 30l-9.373 9.395a.502.502 0 0 0 0 .707l.354.354a.504.504 0 0 0 .707 0l8.313-8.333V30zM17 25.549L4.476 31.39a.501.501 0 0 0-.242.664l.211.453a.503.503 0 0 0 .665.242L17 27.204v-1.655"/><path d="M28.08 27.18l-11.948-2.107v1.523l11.688 2.061a.501.501 0 0 0 .579-.405l.087-.493a.502.502 0 0 0-.406-.579M16.882 38.875a.5.5 0 0 0-.241.664l.211.453a.503.503 0 0 0 .664.242l9.969-4.648.54-1.907-11.143 5.196M16.907 35.49L5.702 31.413v1.597l11.205 4.08z"/><path d="M9.125 38.754v1.504l14.809.986a11.485 11.485 0 0 0 1.562-1.395L9.125 38.754"/></g><path fill="#fff" d="M12 27v7a5 5 0 0 0 10 0v-7H12"/><path fill="#ed4c5c" d="M17 41c-3.859 0-7-3.141-7-7v-9h14v9c0 3.859-3.14 7-7 7m-3-12v5c0 1.654 1.346 3 3 3s3-1.346 3-3v-5h-6"/><g fill="#0071bc"><path d="M16.14 29.362v1.654c0 .253.207.46.46.46h.806a.461.461 0 0 0 .459-.46v-1.654H16.14M16.14 31.862v1.654c0 .254.207.461.46.461h.806a.461.461 0 0 0 .459-.461v-1.654H16.14M14.13 31.862v1.654c0 .254.207.461.46.461h.806c.253 0 .46-.207.46-.461v-1.654H14.13M18.15 31.862v1.654c0 .254.207.461.46.461h.805c.253 0 .46-.207.46-.461v-1.654H18.15M16.14 34.3v1.654c0 .252.207.461.46.461h.806a.463.463 0 0 0 .459-.461V34.3H16.14"/></g><g fill="#fff"><circle cx="17" cy="32.915" r=".249"/><circle cx="16.594" cy="33.416" r=".249"/><circle cx="17.414" cy="33.416" r=".249"/><circle cx="16.594" cy="32.422" r=".249"/><circle cx="17.414" cy="32.422" r=".249"/><circle cx="16.993" cy="30.408" r=".249"/><circle cx="16.586" cy="30.909" r=".249"/><circle cx="17.406" cy="30.909" r=".249"/><circle cx="16.586" cy="29.915" r=".249"/><circle cx="17.406" cy="29.915" r=".249"/><circle cx="19.01" cy="32.915" r=".249"/><circle cx="18.603" cy="33.416" r=".249"/><circle cx="19.422" cy="33.416" r=".249"/><circle cx="18.603" cy="32.422" r=".249"/><circle cx="19.422" cy="32.422" r=".249"/><circle cx="14.984" cy="32.911" r=".249"/><circle cx="14.578" cy="33.412" r=".249"/><circle cx="15.398" cy="33.412" r=".249"/><circle cx="14.578" cy="32.418" r=".249"/><circle cx="15.398" cy="32.418" r=".249"/><circle cx="16.997" cy="35.36" r=".249"/><circle cx="16.59" cy="35.859" r=".249"/><circle cx="17.41" cy="35.859" r=".249"/><circle cx="16.59" cy="34.865" r=".249"/><circle cx="17.41" cy="34.865" r=".249"/></g><path fill="#ffe62e" d="M16 28h2l-.25-1v-1h.237v-.451h-.25v.225h-.159v-.225h-.25v.225h-.208v-.225h-.253v.225h-.195v-.225h-.25v.225h-.172v-.225H16V26h.25v1z"/><g fill="#3e4347"><path d="M17.295 28h-.1v-.435a.194.194 0 1 0-.389 0V28h-.1v-.435a.294.294 0 1 1 .589 0V28M16.967 26.917h-.589v-.485a.294.294 0 1 1 .589 0v.485m-.489-.099h.39v-.385a.194.194 0 1 0-.389 0v.385zM17.622 26.917h-.589v-.485a.294.294 0 0 1 .589 0v.485m-.489-.099h.39v-.385c0-.107-.087-.195-.194-.195s-.195.087-.195.195v.385z"/></g><path fill="#ffe62e" d="M11 28h2l-.25-1v-1h.237v-.451h-.25v.225h-.159v-.225h-.25v.225h-.208v-.225h-.253v.225h-.195v-.225h-.25v.225h-.172v-.225H11V26h.25v1z"/><g fill="#3e4347"><path d="M12.295 28h-.1v-.435a.194.194 0 1 0-.389 0V28h-.1v-.435a.294.294 0 1 1 .589 0V28M11.967 26.917h-.589v-.485a.294.294 0 1 1 .589 0v.485m-.489-.099h.39v-.385a.194.194 0 1 0-.389 0v.385M12.622 26.917h-.589v-.485a.294.294 0 0 1 .589 0v.485m-.489-.099h.39v-.385c0-.107-.087-.195-.194-.195s-.195.087-.195.195v.385"/></g><path fill="#ffe62e" d="M11.03 33.896h2l-.247-1v-1h.237v-.451h-.249v.225h-.16v-.225h-.25v.225h-.211v-.225h-.25v.225h-.195v-.225h-.25v.225h-.172v-.225h-.253v.451h.253v1z"/><g fill="#3e4347"><path d="M12.328 33.896h-.1v-.435c0-.107-.088-.195-.195-.195s-.194.088-.194.195v.435h-.1v-.435a.295.295 0 1 1 .589 0v.435M12 32.813h-.589v-.485a.294.294 0 1 1 .589 0v.485m-.489-.099h.39v-.385a.194.194 0 1 0-.389 0v.385M12.655 32.813h-.589v-.485a.294.294 0 0 1 .589 0v.485m-.489-.099h.39v-.385c0-.107-.087-.195-.194-.195s-.195.087-.195.195v.385"/></g><path fill="#ffe62e" d="M21 34.02h2l-.25-1v-1h.237v-.45h-.25v.225h-.159v-.225h-.25v.225h-.208v-.225h-.253v.225h-.195v-.225h-.25v.225h-.172v-.225H21v.45h.25v1z"/><g fill="#3e4347"><path d="M22.295 34.02h-.1v-.435c0-.107-.088-.195-.195-.195s-.194.088-.194.195v.435h-.1v-.435a.295.295 0 1 1 .589 0v.435M21.967 32.938h-.589v-.485a.294.294 0 1 1 .589 0v.485m-.489-.099h.39v-.385a.194.194 0 1 0-.389 0v.385zM22.622 32.938h-.589v-.485a.294.294 0 0 1 .589 0v.485m-.489-.099h.39v-.385c0-.107-.087-.195-.194-.195s-.195.087-.195.195v.385z"/></g><path fill="#ffe62e" d="M21 28h2l-.25-1v-1h.237v-.451h-.25v.225h-.159v-.225h-.25v.225h-.208v-.225h-.253v.225h-.195v-.225h-.25v.225h-.172v-.225H21V26h.25v1z"/><g fill="#3e4347"><path d="M22.295 28h-.1v-.435a.194.194 0 1 0-.389 0V28h-.1v-.435a.294.294 0 1 1 .589 0V28M21.967 26.917h-.589v-.485a.294.294 0 1 1 .589 0v.485m-.489-.099h.39v-.385a.194.194 0 1 0-.389 0v.385zM22.622 26.917h-.589v-.485a.294.294 0 0 1 .589 0v.485m-.489-.099h.39v-.385c0-.107-.087-.195-.194-.195s-.195.087-.195.195v.385z"/></g><path fill="#ffe62e" d="M14.214 39.553l1.414-1.413-.884-.531-.704-.707.165-.168-.318-.318-.177.176.159.16-.112.113-.159-.16-.177.178.159.157-.149.15-.16-.16-.171.18.154.16-.134.134-.163-.154-.177.173.159.159-.122.121-.159-.158-.177.175.319.32.089-.09.088-.087.707.707z"/><g fill="#3e4347"><path d="M15.13 38.639l-.071.07-.308-.309a.194.194 0 1 0-.275.275l.308.309-.07.07-.308-.309a.294.294 0 1 1 .417-.416l.307.31M14.13 38.1l-.417.416-.343-.344a.294.294 0 1 1 .416-.416l.344.344m-.417.276l.275-.275-.272-.273a.194.194 0 1 0-.275.275l.272.273M14.596 37.641l-.416.418-.343-.344a.294.294 0 1 1 .416-.416l.343.342m-.416.275l.275-.275-.272-.271a.194.194 0 1 0-.275.275l.272.271"/></g><path fill="#ffe62e" d="M19.771 39.553l-1.415-1.413.884-.531.707-.707-.168-.168.321-.318.174.176-.164.16.119.113.159-.16.176.178-.159.157.149.15.159-.16.177.18-.16.16.139.134.161-.154.17.173-.15.159.12.121.156-.158.177.175-.323.32-.08-.09-.09-.087-.709.707z"/><g fill="#3e4347"><path d="M18.855 38.639l.07.07.308-.309a.194.194 0 1 1 .275.275l-.308.309.07.07.308-.309a.294.294 0 1 0-.416-.416l-.307.31M20.2 37.762a.294.294 0 1 1 .416.416l-.343.344-.416-.416.343-.344m.346.345a.194.194 0 1 0-.275-.275l-.272.273.275.275.272-.273M19.731 37.3a.295.295 0 0 1 .417.416l-.343.344-.417-.418.343-.342m.346.346a.194.194 0 1 0-.275-.275l-.272.271.276.275.271-.271"/></g></svg>