<svg xmlns="http://www.w3.org/2000/svg" viewBox="0 0 64 64"><path fill="#3e4347" d="M32 2C19.32 2 8.502 9.879 4.112 21h55.776C55.498 9.879 44.68 2 32 2z"/><path fill="#699635" d="M32 62c12.68 0 23.498-7.881 27.889-19H4.112C8.502 54.119 19.32 62 32 62z"/><path fill="#ed4c5c" d="M62 32c0-3.139-.489-6.158-1.383-9H3.387a29.938 29.938 0 0 0 0 18h57.23A29.937 29.937 0 0 0 62 32"/><g fill="#fff"><path d="M60.29 22c-.12-.34-.266-.668-.397-1H4.116c-.132.332-.278.66-.398 1-.116.33-.225.664-.33 1h57.23c-.105-.336-.214-.67-.331-1M3.714 42c.12.34.267.666.398 1h55.776c.132-.334.277-.66.397-1 .117-.33.226-.664.331-1H3.386c.105.336.214.67.33 1"/></g><path fill="#2a5f9e" d="M10.787 10.787C5.357 16.215 2 23.715 2 32c0 8.283 3.357 15.783 8.787 21.213L32 32 10.787 10.787z"/><path fill="#ffce31" d="M16.782 31.01l3.194-4.207-5.197 1.586-3.312-4.189v5.193L6.358 31.01l5.109 1.568v5.236l3.312-4.189 5.197 1.585z"/></svg>