<svg xmlns="http://www.w3.org/2000/svg" viewBox="0 0 64 64"><path fill="#ed4c5c" d="M62 32c0-13.06-8.35-24.17-20-28.29v56.57c11.65-4.119 20-15.225 20-28.29"/><path fill="#699635" d="M2 32c0 13.061 8.35 24.167 20 28.286V3.714C10.35 7.833 2 18.939 2 32z"/><path fill="#ffe62e" d="M42 3.714A29.916 29.916 0 0 0 32 2a29.92 29.92 0 0 0-10 1.714v56.572A29.916 29.916 0 0 0 32 62c3.508 0 6.872-.607 10-1.714V3.714z"/><path fill="#699635" d="M32 36.25L37.25 40l-1.98-6.105 5.23-3.785-6.48-.02L32 24l-2.02 6.09-6.478.02 5.23 3.785L26.749 40z"/></svg>