<svg xmlns="http://www.w3.org/2000/svg" viewBox="0 0 64 64"><path fill="#f9f9f9" d="M32 62c16.568 0 30-13.432 30-30H2c0 16.568 13.432 30 30 30z"/><path fill="#ed4c5c" d="M32 2C15.432 2 2 15.431 2 32h60C62 15.431 48.568 2 32 2z"/><g fill="#f9f9f9"><path d="M21.232 17.472L20 16.527l1.525-.005L22 15l.477 1.522 1.523.005-1.23.946.47 1.527-1.24-.94-1.234.94zM29.23 17.472L28 16.527l1.525-.005L30 15l.477 1.522 1.523.005-1.23.946.47 1.527-1.24-.94-1.234.94zM22.23 22.472L21 21.527l1.525-.005L23 20l.477 1.522 1.523.005-1.23.946.47 1.527-1.24-.94-1.234.94zM28.23 22.472L27 21.527l1.525-.005L29 20l.477 1.522 1.523.005-1.23.946.47 1.527-1.24-.94-1.234.94zM25.23 14.472L24 13.527l1.525-.005L26 12l.477 1.522 1.523.005-1.23.946.47 1.527-1.24-.94-1.234.94z"/><path d="M24.412 27.958c-4.768 0-8.633-4.056-8.633-9.06s3.865-9.06 8.633-9.06c.35 0 .691.028 1.031.07a9.03 9.03 0 0 0-3.943-.91c-5.244 0-9.5 4.477-9.5 10s4.256 10 9.5 10a9.042 9.042 0 0 0 4.5-1.201 8.247 8.247 0 0 1-1.588.159"/></g></svg>