<svg xmlns="http://www.w3.org/2000/svg" viewBox="0 0 64 64"><g fill="#fff"><path d="M10.764 26h50.611a29.833 29.833 0 0 0-5.398-12h-45.21v12M10.764 38v12h45.21a29.833 29.833 0 0 0 5.398-12H10.761"/></g><g fill="#ed4c5c"><path d="M61.38 26H10.769v12H61.38c.394-1.939.602-3.945.602-6 0-2.054-.208-4.06-.602-6M10.764 14h45.21c-5.473-7.286-14.186-12-24-12-8.289 0-15.783 3.371-21.21 8.806V14M10.764 50v3.193C16.194 58.629 23.688 62 31.974 62c9.814 0 18.527-4.715 24-12h-45.21"/></g><path fill="#428bc1" d="M10.764 10.791c-5.43 5.429-8.787 12.929-8.787 21.21a29.89 29.89 0 0 0 8.787 21.21l21.21-21.21-21.21-21.21"/><path fill="#fff" d="M9.961 38l4.02-2.81 4.01 2.81-1.514-4.574 3.999-2.923H15.52L13.977 26l-1.501 4.503h-5l3.998 2.923z"/></svg>