<svg xmlns="http://www.w3.org/2000/svg" viewBox="0 0 64 64"><circle fill="#f5f5f5" cx="32" cy="32" r="30"/><path fill="#ed4c5c" d="M23.418 33.716A6.19 6.19 0 0 0 32 32a6.186 6.186 0 0 1 8.58-1.715 6.192 6.192 0 0 1 2.041 8.04c3.35-5.625 1.752-12.945-3.758-16.617-5.686-3.792-13.369-2.255-17.16 3.432-.117.178-.215.363-.322.544a6.191 6.191 0 0 0 2.039 8.04"/><path fill="#003478" d="M42.3 38.865c.119-.178.227-.36.324-.545-.107.182-.205.368-.324.545"/><path fill="#428bc1" d="M40.58 30.28A6.186 6.186 0 0 0 32 31.996a6.188 6.188 0 0 1-10.621-6.324c-3.352 5.625-1.754 12.945 3.756 16.618 5.688 3.792 13.371 2.256 17.16-3.432.119-.178.217-.363.324-.545a6.194 6.194 0 0 0-2.041-8.04"/><g fill="#3e4347"><path d="M7.805 23.307L14.67 13.01l-.691-.461-.69-.459-6.865 10.297.691.46zM9.689 24.563l.69.457 6.863-10.294-.689-.46-.692-.46L8.998 24.1zM18.438 15.522l-6.866 10.297.69.461.691.459 6.865-10.297-.688-.46zM48.533 42.523l.687.461 3.21-4.804-.694-.459-.686-.461-3.206 4.8zM56.19 40.693l-3.198 4.804.69.46.688.463 3.2-4.807-.685-.463zM51.797 44.701L55 39.896l-.69-.458-.691-.461-3.199 4.803.69.46zM48.07 43.22l-.69-.466-3.2 4.804.691.462.692.46 3.201-4.806zM50.648 44.931l-.691-.461-3.201 4.8.694.464.69.456 3.2-4.8zM52.53 46.19l-3.2 4.8.69.46.689.46 3.203-4.8-.692-.464zM7.115 41.15l-.691.463 6.865 10.297.69-.46.691-.46-6.865-10.297zM13.35 44.931l-.69.459 3.201 4.8.692-.456.689-.464-3.202-4.8zM12.262 37.721l-.69.459 6.866 10.3.692-.46.688-.462-6.865-10.298zM8.998 39.896l3.203 4.805.69-.461.691-.46-3.203-4.803-.69.461zM53.22 17.354l.692-.461-3.203-4.803-.689.459-.69.461 3.2 4.803zM48.07 20.786l.694-.46-3.201-4.804-.692.46-.691.46 3.2 4.804zM52.992 18.503l3.198 4.804.695-.46.685-.46-3.2-4.804-.688.457zM54.31 24.563L55 24.1l-6.86-10.294-.69.46-.694.46 6.863 10.294zM51.736 26.28l.694-.461-3.21-4.799-.687.456-.689.46 3.206 4.803z"/></g></svg>