<svg xmlns="http://www.w3.org/2000/svg" viewBox="0 0 64 64"><g fill="#2a5f9e"><path d="M39.77 3.03c-16-4.288-32.455 5.209-36.743 21.21a29.874 29.874 0 0 0-.258 14.5L46.416 5.69a30.022 30.022 0 0 0-6.646-2.666M11.611 54.01a29.846 29.846 0 0 0 12.629 6.975c16 4.289 32.453-5.209 36.742-21.21a30.231 30.231 0 0 0 1.01-6.898l-50.38 21.14"/></g><path fill="#ff8736" d="M58.03 17.08A29.976 29.976 0 0 0 46.419 5.692L2.772 38.742a30.118 30.118 0 0 0 3.275 8.299L58.03 17.083"/><g fill="#fff"><path d="M58.03 17.08L6.047 47.038a30.119 30.119 0 0 0 5.567 6.969l50.38-21.14a29.971 29.971 0 0 0-3.963-15.791M19.64 18.14l6.671-.402-6.671-.401 3.674-1.399-3.882.624 3.187-2.301-3.589 1.608 2.484-3.049-3.05 2.482 1.606-3.588-2.3 3.186.625-3.88-1.4 3.673-.4-6.673-.401 6.673-1.4-3.673.625 3.88-2.299-3.186 1.606 3.588-3.05-2.482 2.483 3.049-3.589-1.608 3.187 2.301-3.882-.624 3.674 1.399-6.67.401 6.67.402-3.674 1.398 3.882-.624-3.187 2.306 3.589-1.612-2.483 3.049 3.05-2.477-1.606 3.582 2.299-3.186-.625 3.881 1.4-3.674.401 6.671.4-6.671 1.4 3.674-.625-3.881 2.3 3.186-1.606-3.582 3.05 2.477-2.484-3.049 3.589 1.612-3.187-2.306 3.882.624z"/></g></svg>