<svg xmlns="http://www.w3.org/2000/svg" viewBox="0 0 64 64"><path fill="#ed4c5c" d="M32 62c13.06 0 24.17-8.35 28.29-20H3.72c4.119 11.65 15.225 20 28.29 20"/><path fill="#f9f9f9" d="M32 2C18.939 2 7.833 10.35 3.714 22h56.573C56.168 10.35 45.062 2 32 2z"/><g fill="#428bc1"><path d="M60.287 42C61.393 38.871 62 35.508 62 32s-.607-6.871-1.713-10H3.714C2.608 25.129 2 28.492 2 32s.608 6.871 1.714 10h56.573z"/><path d="M30.19 24.25l.812-11.158c-6.329-2.793-13.671-2.793-20 0l.812 11.158c.364 5.01 4.02 9.294 9.188 10.747 5.165-1.453 8.823-5.733 9.188-10.747"/></g><path fill="#fff" d="M13.5 25.764c.869 3.646 3.709 6.608 7.5 7.824 3.79-1.216 6.63-4.178 7.5-7.824l-3.75-4.657-1.5 1.863L21 18.779l-2.25 4.191-1.5-1.863-3.75 4.657"/><g fill="#428bc1"><path d="M13.835 26.929c.69 1.114 2.22 1.495 3.415.853a2.654 2.654 0 0 1 2.5 0 2.664 2.664 0 0 0 2.499 0 2.656 2.656 0 0 1 2.501 0c1.196.643 2.724.261 3.415-.853v.672c-.691 1.114-2.219 1.496-3.415.853a2.662 2.662 0 0 0-2.501 0 2.652 2.652 0 0 1-2.499 0 2.66 2.66 0 0 0-2.5 0c-1.195.643-2.725.262-3.415-.853v-.672"/><path d="M13.835 28.27c.69 1.114 2.22 1.496 3.415.853a2.654 2.654 0 0 1 2.5 0 2.658 2.658 0 0 0 2.499 0 2.656 2.656 0 0 1 2.501 0c1.196.643 2.724.261 3.415-.853v.672c-.691 1.114-2.219 1.496-3.415.854a2.656 2.656 0 0 0-2.501 0 2.664 2.664 0 0 1-2.499 0 2.654 2.654 0 0 0-2.5 0c-1.195.643-2.725.26-3.415-.853v-.673"/></g><path fill="#ed4c5c" d="M11.702 12.798l.831 11.409c.339 4.661 3.694 8.658 8.468 10.09 4.774-1.43 8.128-5.427 8.468-10.09l.83-11.409c.232.102.465.202.701.297l-.812 11.158C29.823 29.263 26.168 33.547 21 35c-5.165-1.453-8.824-5.733-9.188-10.747L11 13.095c.236-.095.47-.195.702-.297"/><g fill="#ffe62e"><path d="M17 11.9l.22.736.78-.186-.559.55.559.55-.78-.186-.22.736-.22-.736-.78.186.559-.55-.559-.55.78.186zM25 11.9l.22.736.78-.186-.559.55.559.55-.78-.186-.22.736-.22-.736-.78.186.559-.55-.559-.55.78.186zM21 14.8l.22.736.78-.186-.56.55.56.55-.78-.186L21 17l-.22-.736-.78.186.56-.55-.56-.55.78.186z"/></g></svg>