<svg xmlns="http://www.w3.org/2000/svg" viewBox="0 0 64 64"><path fill="#ed4c5c" d="M47.971 6.609A29.848 29.848 0 0 0 32 2v4.61h15.971z"/><path fill="#fff" d="M32 11.219h21.625a30.17 30.17 0 0 0-5.654-4.61H32v4.61z"/><path fill="#ed4c5c" d="M32 15.829h25.262a30.027 30.027 0 0 0-3.637-4.61H32v4.61z"/><path fill="#fff" d="M32 20.439h27.688a29.718 29.718 0 0 0-2.426-4.61h-25.26v4.61"/><path fill="#ed4c5c" d="M32 25.05h29.18a29.756 29.756 0 0 0-1.494-4.61H31.998v4.61"/><path fill="#fff" d="M32 29.659h29.9a29.777 29.777 0 0 0-.719-4.61h-29.18v4.61"/><path fill="#ed4c5c" d="M61.9 29.659H32V32H2c0 .764.037 1.519.094 2.27h59.813c.054-.751.093-1.506.093-2.27 0-.789-.041-1.568-.1-2.341"/><path fill="#fff" d="M2.801 38.879h58.4c.352-1.496.59-3.037.709-4.609H2.098c.117 1.572.355 3.113.707 4.609"/><path fill="#ed4c5c" d="M4.283 43.488h55.43a29.88 29.88 0 0 0 1.48-4.609h-58.4a29.706 29.706 0 0 0 1.482 4.609"/><path fill="#fff" d="M6.691 48.1h50.617a30.011 30.011 0 0 0 2.408-4.609H4.286A29.923 29.923 0 0 0 6.694 48.1"/><path fill="#ed4c5c" d="M10.305 52.709h43.39a30.104 30.104 0 0 0 3.615-4.611H6.692a30.285 30.285 0 0 0 3.614 4.611"/><path fill="#fff" d="M15.916 57.32h32.17a30.216 30.216 0 0 0 5.609-4.609h-43.39a30.157 30.157 0 0 0 5.611 4.609"/><path fill="#ed4c5c" d="M32 62c5.92 0 11.434-1.723 16.084-4.682H15.916A29.853 29.853 0 0 0 32 62z"/><path fill="#428bc1" d="M16.03 6.609a30.163 30.163 0 0 0-11.717 13.83 29.86 29.86 0 0 0-1.492 4.61 29.897 29.897 0 0 0-.719 4.61c-.06.773-.099 1.552-.099 2.341h30V2A29.855 29.855 0 0 0 16.03 6.609"/><g fill="#fff"><path d="M25 3l.473 1.481H27l-1.236.98.476 1.515-1.24-.9L23.764 7l.476-1.542L23 4.481h1.527zM29 9l.473 1.481H31l-1.236.98.476 1.515L29 12.08l-1.236.92.476-1.542-1.24-.977h1.527zM21 9l.473 1.481H23l-1.236.98.476 1.515L21 12.08l-1.236.92.472-1.542L19 10.481h1.527zM25 15l.473 1.481H27l-1.236.98.476 1.515L25 18.08l-1.236.92.476-1.542-1.24-.977h1.527zM17 15l.473 1.481H19l-1.236.98.472 1.515L17 18.08l-1.236.92.472-1.542L15 16.481h1.527zM9 15l.473 1.481H11l-1.236.98.472 1.515L9 18.08 7.764 19l.472-1.542L7 16.481h1.527zM29 21l.473 1.481H31l-1.236.98.476 1.515L29 24.08l-1.236.92.476-1.542-1.24-.977h1.527zM21 21l.473 1.481H23l-1.236.98.476 1.515L21 24.08l-1.236.92.472-1.542L19 22.481h1.527zM13 21l.473 1.481H15l-1.236.98.472 1.515L13 24.08l-1.236.92.472-1.542L11 22.481h1.527zM25 27l.473 1.482H27l-1.236.979.476 1.515L25 30.08l-1.236.92.476-1.542-1.24-.976h1.527zM17 27l.473 1.482H19l-1.236.979.472 1.515L17 30.08l-1.236.92.472-1.542L15 28.482h1.527zM9 27l.473 1.482H11l-1.236.979.472 1.515L9 30.08 7.764 31l.472-1.542L7 28.482h1.527zM11.764 13L13 12.076l1.236.899-.473-1.514 1.237-.98h-1.527L13 9l-.473 1.482h-1.422l-.047.046 1.178.931L11.764 13M3.764 25L5 24.076l1.236.899-.473-1.514L7 22.481H5.473L5 21l-.473 1.482h-.976c-.039.115-.08.228-.117.343l.803.633L3.764 25"/></g></svg>