<svg xmlns="http://www.w3.org/2000/svg" viewBox="0 0 64 64"><path fill="#42ade2" d="M32 2C19.32 2 8.502 9.88 4.111 21h55.777C55.498 9.88 44.68 2 32 2z"/><path fill="#83bf4f" d="M32 62c12.68 0 23.498-7.88 27.889-19H4.111C8.502 54.12 19.32 62 32 62z"/><path fill="#fff" d="M62 32c0-3.138-.489-6.158-1.383-9H3.387c-.894 2.842-1.383 5.862-1.383 9s.489 6.158 1.383 9h57.23A29.932 29.932 0 0 0 62 32"/><g fill="#c94747"><path d="M59.889 21c.131.334.277.66.397 1 .116.33.225.665.331 1"/><path d="M60.29 22c-.12-.34-.267-.666-.397-1H4.115c-.131.334-.277.66-.397 1-.117.33-.225.665-.331 1h57.23c-.106-.335-.215-.67-.331-1M3.714 42c.12.34.266.666.397 1h55.777c.131-.334.277-.66.397-1 .116-.33.225-.665.331-1H3.386c.106.335.214.67.331 1"/></g><g fill="#fff"><path d="M20.41 17.285A4.28 4.28 0 0 1 16.135 13a4.28 4.28 0 0 1 4.275-4.285c.563 0 1.098.111 1.59.309A4.954 4.954 0 0 0 18.98 8c-2.752 0-4.984 2.238-4.984 5s2.232 5 4.984 5A4.977 4.977 0 0 0 22 16.977a4.264 4.264 0 0 1-1.59.308M24.731 15.203l.349 1.068h1.13l-.915.661.35 1.068-.914-.66-.914.66.353-1.068-.92-.661h1.133zM28.992 15.203l.349 1.068h1.128l-.912.661.348 1.068-.913-.66-.912.66.348-1.068-.914-.661h1.129zM33.25 15.203l.352 1.068h1.128l-.913.661L34.17 18l-.92-.66-.91.66.348-1.068-.913-.661h1.129zM37.514 15.203l.349 1.068h1.129l-.912.661.347 1.068-.913-.66-.913.66.348-1.068-.909-.661h1.12zM41.775 15.203l.345 1.068h1.13l-.91.661.348 1.068-.913-.66-.913.66.348-1.068-.91-.661h1.13zM28.992 11.602l.349 1.068h1.128l-.912.66.348 1.068-.913-.66-.912.66.348-1.068-.914-.66h1.129zM33.25 11.602l.352 1.068h1.128l-.913.66.353 1.068-.92-.66-.91.66.348-1.068-.913-.66h1.129zM37.514 11.602l.349 1.068h1.129l-.912.66.347 1.068-.913-.66-.913.66.348-1.068-.909-.66h1.12zM41.775 11.602l.345 1.068h1.13l-.91.66.348 1.068-.913-.66-.913.66.348-1.068-.91-.66h1.13zM33.25 8l.352 1.07h1.128l-.913.659.353 1.066-.92-.659-.91.659.348-1.066-.913-.659h1.129zM37.514 8l.349 1.07h1.129l-.912.659.347 1.066-.913-.659-.913.659.348-1.066-.909-.659h1.12zM41.775 8l.345 1.07h1.13l-.91.659.348 1.066-.913-.659-.913.659.348-1.066-.91-.659h1.13z"/></g></svg>