<svg xmlns="http://www.w3.org/2000/svg" viewBox="0 0 64 64"><g fill="#2a5f9e"><path d="M32 2C21.745 2 12.695 7.149 7.285 15h49.43C51.305 7.149 42.256 2 32 2zM32 62c10.255 0 19.304-5.149 24.714-13H7.284c5.41 7.851 14.46 13 24.715 13"/></g><path fill="#ed4c5c" d="M59.05 19H4.96c-1.894 3.934-2.956 8.343-2.956 13s1.062 9.07 2.956 13h54.09c1.893-3.934 2.955-8.343 2.955-13s-1.062-9.07-2.955-13"/><g fill="#fff"><path d="M4.956 45a30.02 30.02 0 0 0 2.329 4h49.43a30.134 30.134 0 0 0 2.33-4H4.955M59.05 19a30.134 30.134 0 0 0-2.33-4H7.29a30.02 30.02 0 0 0-2.329 4h54.09"/><circle cx="18" cy="32" r="11"/></g><path fill="#ed4c5c" d="M18 35.911l4.946 3.755-1.876-6.105L26 29.776l-6.1-.018-1.9-6.092-1.9 6.092-6.1.018 4.924 3.785-1.874 6.105z"/></svg>