<svg xmlns="http://www.w3.org/2000/svg" viewBox="0 0 64 64"><path fill="#3e4347" d="M32 2C23.115 2 15.138 5.864 9.645 12h44.708C48.861 5.864 40.883 2 32 2z"/><path fill="#ffe62e" d="M54.35 12H9.641a29.971 29.971 0 0 0-5.932 10h56.57a29.936 29.936 0 0 0-5.931-10"/><path fill="#ed4c5c" d="M60.28 22H3.71a29.94 29.94 0 0 0-1.713 10h60c0-3.508-.607-6.871-1.715-10"/><path fill="#3e4347" d="M62 32H2c0 3.508.607 6.871 1.714 10h56.572A29.916 29.916 0 0 0 62 32z"/><path fill="#ffe62e" d="M60.28 42H3.71a29.955 29.955 0 0 0 5.932 10H54.35a29.922 29.922 0 0 0 5.932-10"/><path fill="#ed4c5c" d="M54.35 52H9.641c5.493 6.136 13.47 10 22.355 10 8.883 0 16.861-3.864 22.354-10"/><circle fill="#fff" cx="32" cy="32" r="10"/><g fill="#3e4347"><circle cx="31" cy="26" r="2"/><path d="M31.5 35l.5 6h.5v-6z"/><path d="M31 40.5v.5h2v-1zM34.928 37.25a3567.171 3567.171 0 0 0-3.195-5.01c-.346-.543-1.213-.04-.865.507l2.715 4.26h-3.582v.5c1.67 0 2.824.5 4.496.5.368 0 .638-.43.431-.754"/><path d="M33.928 32.1c-1.137-.418-3.36-.881-1.928-5.098h-1.824s-4.377 8.727 3.752 8.727c1.797 0 2.578 1.455 2.578 3.273 0 0 2.166-5.156-2.578-6.902M29.5 36.5l.5 2h.5v-2zM31 25l-4 2h4z"/></g><path fill="#ed4c5c" d="M35 32.617v3.326s1.594.65.938 3.057l1.062.531s1.844-4.797-2-6.914"/><g fill="#94989b"><path d="M31.5 32s-.002 2.584 2.541 2.584c0 0 .959-2.584-2.541-2.584"/><ellipse cx="30.359" cy="31.74" rx=".859" ry="1.552"/></g></svg>