<svg xmlns="http://www.w3.org/2000/svg" viewBox="0 0 64 64"><path fill="#3e4347" d="M6.02 47.02a29.886 29.886 0 0 0 7.313 8.482l48.36-27.918a29.927 29.927 0 0 0-3.69-10.575 29.879 29.879 0 0 0-7.313-8.484L2.33 36.443A29.896 29.896 0 0 0 6.022 47.02"/><g fill="#ffe62e"><path d="M19.1 59.1l42.821-24.723a29.895 29.895 0 0 0-.233-6.796l-48.36 27.918a29.723 29.723 0 0 0 5.769 3.601M2.328 36.439l48.36-27.918A29.952 29.952 0 0 0 44.92 4.92L2.097 29.644a29.888 29.888 0 0 0 .233 6.795"/></g><path fill="#699635" d="M44.909 4.925C36.298.829 25.889.895 17.004 6.021 8.12 11.149 2.864 20.131 2.103 29.64L44.909 4.925"/><path fill="#ed4c5c" d="M19.11 59.09c8.612 4.095 19.02 4.03 27.906-1.095 8.884-5.13 14.14-14.11 14.901-23.62L19.11 59.09"/><g fill="#fff"><path d="M21.998 40.13l4.576.574-3.474-3.237 1.767-4.267-3.932 2.254-3.489-3.214 1.038 4.628-3.917 2.282 4.573.604 1.07 4.626zM44.04 27.396l4.579.581-3.469-3.238 1.762-4.265-3.933 2.253-3.488-3.214 1.039 4.627-3.917 2.28 4.577.61 1.07 4.619z"/></g></svg>