<svg xmlns="http://www.w3.org/2000/svg" viewBox="0 0 64 64"><g fill="#fff"><path d="M61.721 28a29.874 29.874 0 0 0-.551-3H2.83a30.16 30.16 0 0 0-.551 3h59.44M2.279 36c.137 1.016.315 2.02.551 3h58.34c.235-.982.414-1.984.551-3H2.281"/><path d="M20 4.488c-1.03.451-2.033.953-3 1.514v51.996a29.33 29.33 0 0 0 3 1.512V4.49M28 2.262v59.48c.986.133 1.984.23 3 .264v-60a30.28 30.28 0 0 0-3 .262"/></g><g fill="#2a5f9e"><path d="M2 32c0 1.357.099 2.689.273 4h59.45c.175-1.311.274-2.643.274-4s-.099-2.691-.273-4H2.274a30.327 30.327 0 0 0-.273 4"/><path d="M20 59.5a29.785 29.785 0 0 0 8 2.23V2.28a29.822 29.822 0 0 0-8 2.23v54.993"/></g><g fill="#ed4c5c"><path d="M17 25V6.023C9.982 10.084 4.766 16.902 2.83 25H17zM17 39.023V58C9.982 53.939 4.766 47.121 2.83 39.023H17zM32 2c-.336 0-.667.014-1 .025V25h30.17C58.016 11.809 46.157 2 32 2zM31 39v22.975c.333.009.664.025 1 .025 14.157 0 26.02-9.811 29.17-23H31"/></g></svg>