<svg xmlns="http://www.w3.org/2000/svg" viewBox="0 0 64 64"><g fill="#fff"><path d="M61.721 28a30.448 30.448 0 0 0-.55-3H2.831a30.21 30.21 0 0 0-.55 3h59.44M2.279 36c.137 1.016.315 2.02.55 3h58.34c.234-.982.412-1.984.55-3H2.279"/><path d="M20 4.489a29.44 29.44 0 0 0-3 1.513v51.997c.966.561 1.97 1.063 3 1.512V4.491M28 2.262v59.47c.987.133 1.985.23 3 .264v-60c-1.015.033-2.01.13-3 .262"/></g><g fill="#428bc1"><path d="M2 32c0 1.358.099 2.69.273 4h59.45a30.18 30.18 0 0 0 .274-4c0-1.357-.099-2.69-.273-4H2.274a30.315 30.315 0 0 0-.273 4"/><path d="M20 59.5a29.796 29.796 0 0 0 8 2.23V2.28a29.832 29.832 0 0 0-8 2.23v54.993"/></g><g fill="#ed4c5c"><path d="M17 25V6.023C9.982 10.083 4.766 16.902 2.83 25H17zM17 39.023V58C9.982 53.939 4.766 47.121 2.83 39.023H17zM32 2c-.335 0-.667.015-1 .025V25h30.171C58.017 11.809 46.157 2 32 2zM31 39v22.975c.333.009.665.025 1 .025 14.157 0 26.02-9.811 29.17-23H31"/></g></svg>