<svg xmlns="http://www.w3.org/2000/svg" viewBox="0 0 64 64"><path fill="#ed4c5c" d="M32 62c13.06 0 24.17-8.35 28.29-20H3.72c4.119 11.65 15.224 20 28.29 20"/><path fill="#ffe62e" d="M32 2C18.938 2 7.833 10.35 3.714 22h56.572C56.167 10.35 45.062 2 32 2z"/><path fill="#699635" d="M60.286 42C61.392 38.871 62 35.508 62 32s-.608-6.871-1.714-10H3.714C2.608 25.129 2 28.492 2 32s.608 6.871 1.714 10h56.572z"/><path fill="#fff" d="M32 41.08L43.744 50 39.3 35.499 51 26.512l-14.481-.043L32 12l-4.521 14.469L13 26.512l11.691 8.987L20.256 50z"/></svg>