<svg xmlns="http://www.w3.org/2000/svg" viewBox="0 0 64 64"><g fill="#83bf4f"><path d="M2 32c0 6.131 1.843 11.83 5 16.58V15.42A29.843 29.843 0 0 0 2 32zM32 2a29.88 29.88 0 0 0-15 4.02v51.953a29.838 29.838 0 0 0 15 4.02c16.568 0 30-13.432 30-30s-13.432-30-30-30"/></g><path fill="#ed4c5c" d="M7 15.42v33.16a30.172 30.172 0 0 0 10 9.396V6.023A30.183 30.183 0 0 0 7 15.42"/><g fill="#fff"><path d="M37.18 8.846c2.484 2.117 4 5.315 3.848 8.827-.264 6.05-5.383 10.74-11.433 10.476a10.924 10.924 0 0 1-3.841-.874 10.917 10.917 0 0 0 7.105 2.615c6.05 0 10.965-4.91 10.965-10.965 0-4.52-2.737-8.402-6.644-10.08M26.721 16.905l.469-1.46h1.54l-1.242-.902.474-1.463-1.242.905-1.242-.905.474 1.463-1.242.902h1.54zM26.25 9.806l.471 1.46.469-1.46h1.54l-1.242-.904.474-1.46-1.242.903-1.242-.903.474 1.46-1.242.904zM31.817 12.695l.473 1.461.476-1.461H34.3l-1.24-.902.473-1.461-1.243.903-1.24-.903.473 1.461-1.243.902zM21.916 17.292l.475-1.46-1.241.902-1.244-.902.475 1.46-1.241.908h1.534l.476 1.455.473-1.455h1.537zM26.721 22.546l.469-1.456h1.54l-1.242-.91.474-1.457-1.242.902-1.242-.902.474 1.457-1.242.91h1.54z"/></g><g fill="#ffe62e"><path d="M7 15.42v5.959l2.979-2.98zM17 21.379V15.42l-2.98 2.979zM7 29.89v5.959l2.979-2.98zM17 35.849V29.89l-2.98 2.979zM7 42.621v5.959l2.979-2.979zM17 48.58v-5.959l-2.98 2.98z"/></g><path fill="#83bf4f" d="M9.75 42.551L7.5 39.2l2.25-3.342h4.5L16.5 39.2l-2.25 3.351z"/><path fill="#ffe62e" d="M9.75 28.847L7.5 25.501l2.25-3.351h4.5l2.25 3.351-2.25 3.346z"/><path fill="#ed4c5c" d="M10.367 27.929l-1.633-2.428 1.633-2.431h3.265l1.633 2.431-1.633 2.428z"/><path fill="#fff" d="M11.346 26.473l-.654-.972.654-.973h1.307l.654.973-.654.972z"/><path fill="#83bf4f" d="M9.25 14.612l-.761-1.131 5.531-5.159L16 11.267l-2.25 3.345z"/><path fill="#ed4c5c" d="M9.867 13.694l-.74-1.099 4-3.757 1.635 2.429-1.635 2.427z"/><path fill="#ffe62e" d="M9.03 48.994l-.771 1.116 5.463 5.23 2.02-2.91-2.206-3.38z"/><g fill="#ed4c5c"><path d="M9.639 49.92l-.753 1.09 3.955 3.808 1.664-2.408-1.601-2.448zM10.367 41.633L8.734 39.2l1.633-2.424h3.265l1.633 2.424-1.633 2.433z"/></g><g fill="#ffe62e"><path d="M11.292 40.18l-.653-.98.653-.97H12.6l.654.97-.654.98zM10.883 11.913l-.398-.592 1.565-1.467.794 1.087-.654.972z"/></g><path fill="#fff" d="M10.439 51.709l-.399.591 1.566 1.469.795-1.088-.654-.972z"/></svg>