<svg xmlns="http://www.w3.org/2000/svg" viewBox="0 0 64 64"><path fill="#ed4c5c" d="M32 2v30H2c0 16.568 13.432 30 30 30s30-13.432 30-30S48.568 2 32 2z"/><path fill="#2a5f9e" d="M32 2C15.432 2 2 15.432 2 32h30V2z"/><g fill="#fff"><path d="M19 13.06l1.236.939-.466-1.523 1.23-.948-1.523-.006L19 10l-.479 1.522-1.521.006 1.23.948-.468 1.523zM19 27.06l1.236.94-.466-1.528 1.23-.946-1.523-.004L19 24l-.479 1.522-1.521.004 1.23.946L17.762 28zM14 18.06l1.238.94-.468-1.526 1.23-.946-1.525-.006L14 15l-.475 1.522-1.525.006 1.23.946L12.764 19zM23.996 18.06l1.234.94-.462-1.526L26 16.528l-1.525-.006L23.996 15l-.471 1.522-1.525.006 1.23.946L22.76 19zM22 22.53l.631.47-.24-.76.629-.475-.78-.004L22 21l-.24.761-.778.004.627.475-.238.76z"/></g></svg>