<svg xmlns="http://www.w3.org/2000/svg" viewBox="0 0 64 64"><path fill="#83bf4f" d="M16.999 6.01C6.347 12.16.899 23.857 2.189 35.349L49.813 7.854C40.505.993 27.653-.142 16.999 6.01"/><path fill="#428bc1" d="M14.192 56.14c9.308 6.859 22.16 7.994 32.813 1.843 10.652-6.149 16.1-17.848 14.81-29.338L14.192 56.14"/><path fill="#3e4347" d="M57.987 16.992a29.916 29.916 0 0 0-4.954-6.381L2.973 39.518a29.84 29.84 0 0 0 3.049 7.479 29.887 29.887 0 0 0 4.953 6.381l50.06-28.906a29.866 29.866 0 0 0-3.048-7.48"/><g fill="#ffce31"><path d="M61.5 26.511a29.884 29.884 0 0 0-.468-2.04l-50.06 28.906c.498.49 1 .973 1.532 1.424.548.469 1.113.91 1.689 1.335l47.622-27.495a29.777 29.777 0 0 0-.311-2.13M51.5 9.188a29.75 29.75 0 0 0-1.688-1.334L2.188 35.349c.08.711.18 1.422.312 2.13.127.683.292 1.361.468 2.039l50.06-28.906c-.499-.491-1-.973-1.532-1.424"/></g></svg>