<svg xmlns="http://www.w3.org/2000/svg" viewBox="0 0 64 64"><path fill="#a0cfeb" d="M32 62c16.568 0 30-13.432 30-30H2c0 16.568 13.432 30 30 30z"/><path fill="#f9f9f9" d="M32 2C15.432 2 2 15.432 2 32h60C62 15.432 48.568 2 32 2z"/><path fill="#699635" d="M22.899 24.584l-2.25-.334.038-.06 1.048-3.456-2.742 2.336-1.169-1.756-.774 2.04 1.411 2.501 2.878.265 1.56-1.536"/><path fill="#83bf4f" d="M21.09 27.467l-2.257.25.022-.061.111-3.606-2.038 2.96-1.59-1.401-.218 2.172 2.02 2.053 2.848-.482 1.102-1.885"/><path fill="#699635" d="M20.1 30.713l-2.117.822.005-.062-.838-3.518-1.192 3.389-1.898-.946.351 2.155 2.487 1.467 2.627-1.202.575-2.105"/><path fill="#83bf4f" d="M19.988 34.1l-1.828 1.343-.01-.063-1.726-3.18-.274 3.577-2.08-.427.903 1.99 2.783.78 2.224-1.83.008-2.19"/><path fill="#699635" d="M20.764 37.408l-1.418 1.762-.029-.05-2.493-2.638.67 3.528-2.121.13 1.391 1.686 2.89.033 1.672-2.341-.562-2.11"/><path fill="#83bf4f" d="M22.375 40.4l-.912 2.069-.041-.049-3.094-1.899 1.568 3.235-2.02.664 1.783 1.277 2.801-.711 1-2.686-1.093-1.9"/><g fill="#699635"><path d="M24.711 42.879l-.342 2.231-.052-.04-3.484-1.04 2.357 2.726-1.773 1.16 2.055.773 2.52-1.409.268-2.85-1.549-1.551M41.1 24.584l2.25-.334-.04-.06-1.04-3.456 2.74 2.336 1.17-1.756.775 2.04-1.416 2.501-2.878.265-1.561-1.536"/></g><path fill="#83bf4f" d="M42.906 27.467l2.264.25-.02-.061-.12-3.606 2.04 2.96 1.592-1.401.221 2.172-2.02 2.053-2.851-.482-1.104-1.885"/><path fill="#699635" d="M43.899 30.713l2.121.822-.01-.062.836-3.518 1.194 3.389 1.9-.946-.351 2.155L47.1 34.02l-2.62-1.202-.581-2.105"/><path fill="#83bf4f" d="M44.01 34.1l1.833 1.343.011-.063 1.722-3.18.274 3.577 2.08-.427-.9 1.99-2.79.78-2.22-1.83-.01-2.19"/><path fill="#699635" d="M43.24 37.408l1.414 1.762.029-.05 2.497-2.638-.67 3.528 2.117.13-1.387 1.686-2.89.033-1.676-2.341.566-2.11"/><path fill="#83bf4f" d="M41.625 40.4l.912 2.069.041-.049 3.094-1.899-1.572 3.235 2.02.664-1.78 1.277-2.803-.711-1.01-2.686 1.093-1.9"/><path fill="#699635" d="M39.29 42.879l.341 2.231.052-.04 3.487-1.04-2.36 2.726 1.773 1.16-2.055.773-2.518-1.409-.272-2.85 1.552-1.551"/><g fill="#f1bf31"><path d="M25.732 16.07l2.183 2.316 8.143-.008 2.21-2.309.233-3.403-5.308-1.622.464-.412-1.658-1.025-1.656 1.025.464.412-4.778 1.189-.297 3.837m11.509-2.802L35.9 15.234l-1.334-.477-1.585-.257.016-2.947 4.244 1.715m-10.482 0l4.221-1.686.039 2.918-1.585.258-1.334.476-1.341-1.966M31.12 7.449l.609-.06-.005.115-.135 1.111h.822l-.131-1.107-.01-.119.608.06.332-.379-.332-.371-.538.094.044-.625L32 5.816l-.384.352.043.625-.539-.094-.332.371.332.379"/></g><path fill="#a0cfeb" d="M31.828 22.48c1.851-.033 9.811-1.367 9.811 9.689 0 10.56-9.639 14.759-9.639 14.759s-9.639-4.068-9.639-15.561c0-10.254 9.467-8.887 9.467-8.887"/><path fill="#83bf4f" d="M34.955 38.994a3.903 3.903 0 0 1 1.905-.494c1.126 0 2.14.475 2.854 1.234-2.812 5.057-7.713 7.193-7.713 7.193s-4.776-2.02-7.604-7.217a3.907 3.907 0 0 1 2.831-1.211c.776 0 1.5.225 2.107.615a3.915 3.915 0 0 1 5.62-.12"/><path fill="#f1bf31" d="M43.534 29.471c-.274-3.949-1.44-6.449-2.949-7.758-1.408-1.219-3.036-1.469-4.227-1.051l-.068-.004-3.58 1.555a.843.843 0 0 0-1.356 0l-3.58-1.555-.123.008c-1.191-.424-2.824-.176-4.236 1.047-1.509 1.309-2.675 3.809-2.949 7.758-.436 6.252 2.24 10.789 5.244 13.533 1.578 1.441 4.107 3.156 6.289 3.99 2.184-.834 4.713-2.549 6.291-3.99 3-2.744 5.68-7.281 5.244-13.533m-20.21 1.025c.2-4.336 1.42-5.697 2.045-6.182.217.652.881 1.059 1.519 1.059.544 0 4.415-2.223 4.415-2.223a.847.847 0 0 0 1.458 0s3.746 2.223 4.351 2.223c.638 0 1.302-.406 1.519-1.059.625.484 1.845 1.846 2.045 6.182.373 8.08-6.675 15.695-8.676 15.695-2 0-9.05-7.617-8.676-15.695"/><g fill="#fff"><path d="M31.882 37.879a3.887 3.887 0 0 1 1.683.23l-.465-1.885v-3.789l.465-.66v-1.34l-.721-.23v.809l-.529-.148v-.826l-.424-.143-.422.164v.826l-.53.189v-.818l-.72.283v1.316l.518.635.012 3.768-.529 2.145a3.873 3.873 0 0 1 1.662-.526M36.649 38.506a3.913 3.913 0 0 1 1.679.279l-.464-1.82v-3.766l.464-.656v-1.324l-.72-.24v.807l-.529-.178v-.828l-.424-.143-.423.133v.826l-.53.156v-.818l-.719.232V32.5l.517.662.013 3.764-.529 2.053a3.861 3.861 0 0 1 1.665-.473M27.12 38.506a3.913 3.913 0 0 1 1.679.279l-.465-1.82v-3.766l.465-.656v-1.324l-.721-.24v.807l-.529-.178v-.828l-.423-.143-.423.133v.826l-.529.156v-.818l-.721.232V32.5l.518.662.012 3.764-.529 2.053a3.866 3.866 0 0 1 1.666-.473M27.05 27.18l.032-.043c.494-.088.709.422.798.814.787-.541.53-1.568-.462-1.588-.146-.004-.3.039-.436.09-.287.109-.584.479-.657.773-.265 1.072.766 1.814.786 2.957.784-.353-.039-2.349-.061-3M32.702 27.21c.787-.541.53-1.568-.461-1.59a1.23 1.23 0 0 0-.436.09c-.289.109-.585.479-.658.775-.265 1.072.766 1.814.787 2.957.783-.354-.04-2.35-.063-3.01l.032-.043c.494-.087.71.424.799.817M36.698 27.18l.033-.043c.492-.088.709.422.799.814.786-.541.529-1.568-.463-1.588a1.188 1.188 0 0 0-.436.09c-.288.109-.584.479-.657.773-.265 1.072.765 1.814.786 2.957.784-.353-.038-2.349-.062-3M45.856 51.898s1.129-.963 1.238-2.229c-.99.744-1.98.852-2.971.852-.988 0-1.622-.598-2.918-.803.073-.447.151-.904.269-1.533.127-.686-.063-1.244-1.062-1.361-2.174-.254-4.279 1-8.125 1.061-3.873-.061-6.527-1.314-8.701-1.061-1 .117-1.188.676-1.061 1.361.116.629.194 1.086.267 1.533-1.296.205-1.929.803-2.917.803-.99 0-1.98-.107-2.97-.852.109 1.266 1.237 2.229 1.237 2.229-1.506.064-2.97-.248-2.97-.248 1.98 2.227 4.428 3.414 7.671 1.752 1.484-.762 3.01.104 4.454.104 1.979 0 1.483-1.602 1.236-2.443a19.16 19.16 0 0 0 3.729.344v-.004a16.554 16.554 0 0 0 3.2-.34c-.247.842-.743 2.443 1.237 2.443 1.439 0 2.969-.865 4.453-.104 3.243 1.662 5.691.475 7.672-1.752.002 0-1.463.313-2.969.248"/></g></svg>