<svg xmlns="http://www.w3.org/2000/svg" viewBox="0 0 64 64"><g fill="#2a5f9e"><path d="M53.42 53H11.38s25.987-29.384 42.36-38.18c0 0-11.847 21.52 2.969 34.19A29.85 29.85 0 0 0 62.002 32c0-16.568-13.432-30-30-30s-30 13.432-30 30c0 9.814 4.714 18.526 12 24h36a30.169 30.169 0 0 0 3.416-3M32 62c4.692 0 9.133-1.079 13.09-3H18.91c3.955 1.921 8.396 3 13.09 3"/></g><g fill="#ffce31"><path d="M53.738 14.82C37.367 23.616 11.378 53 11.378 53h42.04a30.188 30.188 0 0 0 3.291-3.988c-14.815-12.672-2.969-34.19-2.969-34.19M14 56a30.07 30.07 0 0 0 4.913 3h26.18a30.06 30.06 0 0 0 4.912-3h-36"/></g><g fill="#fff"><path d="M18.495 10.275l.545 1.688h1.777l-1.435 1.047.548 1.685-1.435-1.044-1.435 1.044.547-1.685-1.437-1.047h1.776zM27.14 18.14l.486 1.485h1.564l-1.265.92.483 1.485-1.268-.92-1.263.92.483-1.485-1.27-.92h1.569zM8.297 20.502l.545 1.678h1.762l-1.426 1.03.545 1.68-1.426-1.036-1.425 1.036.545-1.68-1.426-1.03h1.762zM18.455 33.3l.645 1.98h2.08l-1.684 1.224.644 1.98-1.685-1.224-1.684 1.224.643-1.98-1.684-1.224h2.082z"/></g></svg>