<svg xmlns="http://www.w3.org/2000/svg" viewBox="0 0 64 64"><g fill="#2a5f9e"><path d="M32 2C16.789 2 4.23 13.324 2.273 28h59.453C59.77 13.324 47.211 2 32 2zM32 62c15.211 0 27.77-11.324 29.727-26H2.273C4.23 50.676 16.789 62 32 62z"/></g><path fill="#ffe62e" d="M61.727 28H2.277c-.174 1.31-.273 2.643-.273 4s.099 2.69.273 4h59.45c.175-1.31.274-2.643.274-4s-.099-2.69-.273-4"/><path fill="#fff" d="M16 41.18L17.193 39l.27 2.467 1.935-1.555-.696 2.388 2.388-.698-1.558 1.935 2.468.27L19.822 45 22 46.19l-2.468.27 1.558 1.94-2.388-.698.696 2.388-1.935-1.558-.27 2.468L16 48.823 14.807 51l-.27-2.468-1.935 1.558.696-2.388-2.383.698 1.554-1.94L10 46.19 12.178 45 10 43.807l2.469-.27-1.554-1.935 2.383.698-.696-2.388 1.935 1.555.27-2.467z"/></svg>