<svg xmlns="http://www.w3.org/2000/svg" viewBox="0 0 64 64"><g fill="#428bc1"><path d="M32 2C18.938 2 7.833 10.35 3.714 22h56.572C56.167 10.35 45.062 2 32 2zM32 62c13.06 0 24.17-8.35 28.29-20H3.72c4.119 11.65 15.224 20 28.29 20"/></g><path fill="#f9f9f9" d="M3.714 22C2.608 25.129 2 28.492 2 32s.608 6.871 1.714 10h56.572C61.392 38.871 62 35.508 62 32s-.608-6.871-1.714-10H3.714z"/><g fill="#428bc1"><path d="M35.546 27.933l-1.19 1.191c.402.511.644 1.152.644 1.853a3.001 3.001 0 0 1-6 0c0-.7.242-1.343.645-1.853l-1.19-1.191a4.606 4.606 0 1 0 7.091 0"/><path d="M34.04 25.392l-.684.685a1.724 1.724 0 1 1-2.708 0l-.684-.685a2.646 2.646 0 1 0 4.076 0"/></g><path fill="#699635" d="M28.359 29.511s-.5-.143-.899-.136l.015-.021c.315-.482.419-1.384.419-1.384s-.778.458-1.096.937c-.166-.348-.468-.704-.468-.704s-.368.413-.313.815c.057.401.567 1 .567 1s.759.22 1.151.106c.393-.111.624-.614.624-.614"/><path fill="#83bf4f" d="M27.638 30.664s-.521-.01-.904.1c.002-.009.007-.016.009-.024.179-.546.044-1.444.044-1.444s-.633.643-.814 1.187c-.251-.293-.637-.56-.637-.56s-.246.494-.088.867c.159.374.809.821.809.821s.789.017 1.14-.192c.349-.211.441-.755.441-.755"/><path fill="#699635" d="M27.24 31.962s-.506.125-.847.329l.002-.024c.03-.574-.334-1.407-.334-1.407s-.444.783-.479 1.355c-.317-.219-.759-.378-.759-.378s-.11.542.141.86c.251.32.995.586.995.586s.768-.187 1.05-.479c.285-.291.231-.842.231-.842"/><path fill="#83bf4f" d="M27.2 33.32s-.455.251-.732.536c-.002-.01-.002-.017-.005-.025-.119-.563-.688-1.272-.688-1.272s-.225.87-.109 1.432c-.362-.13-.832-.17-.832-.17s.035.551.361.796c.325.244 1.113.31 1.113.31s.693-.377.89-.731c.198-.358.002-.876.002-.876"/><path fill="#699635" d="M27.506 34.641s-.375.359-.567.705c-.004-.008-.007-.015-.012-.022-.263-.513-.997-1.053-.997-1.053s.009.898.268 1.412c-.385-.032-.849.049-.849.049s.179.523.557.677c.379.152 1.156.013 1.156.013s.571-.543.669-.937c.097-.395-.225-.844-.225-.844"/><path fill="#83bf4f" d="M28.15 35.837s-.267.443-.364.828c-.006-.007-.009-.013-.017-.02-.388-.428-1.236-.76-1.236-.76s.242.865.626 1.294c-.38.068-.806.267-.806.267s.307.459.712.51c.406.05 1.121-.284 1.121-.284s.409-.671.401-1.077c-.007-.406-.437-.758-.437-.758"/><path fill="#699635" d="M29.08 36.829s-.143.496-.137.892l-.021-.015c-.485-.313-1.394-.416-1.394-.416s.461.773.942 1.089c-.349.164-.709.465-.709.465s.418.364.822.309 1.01-.562 1.01-.562.222-.754.107-1.144c-.111-.389-.618-.618-.618-.618"/><path fill="#83bf4f" d="M30.25 37.545s-.009.517.101.897c-.008-.003-.015-.007-.023-.009-.551-.177-1.455-.044-1.455-.044s.647.629 1.195.811c-.296.248-.565.63-.565.63s.499.245.876.088c.376-.158.826-.803.826-.803s.018-.784-.194-1.131-.761-.439-.761-.439"/><path fill="#699635" d="M35.641 29.511s.5-.143.899-.136l-.015-.021c-.315-.482-.419-1.384-.419-1.384s.778.458 1.096.937c.165-.348.468-.704.468-.704s.368.413.312.815c-.056.401-.566 1-.566 1s-.759.22-1.151.106c-.393-.111-.624-.614-.624-.614"/><path fill="#83bf4f" d="M36.36 30.664s.521-.01.904.1c-.002-.009-.007-.016-.009-.024-.179-.546-.044-1.444-.044-1.444s.633.643.814 1.187c.251-.293.637-.56.637-.56s.246.494.088.867c-.159.374-.809.821-.809.821s-.789.017-1.14-.192c-.349-.211-.441-.755-.441-.755"/><path fill="#699635" d="M36.76 31.962s.505.125.847.329l-.002-.024c-.03-.574.334-1.407.334-1.407s.444.783.479 1.355c.317-.219.759-.378.759-.378s.11.542-.141.86c-.251.32-.995.586-.995.586s-.768-.187-1.051-.479c-.284-.291-.23-.842-.23-.842"/><path fill="#83bf4f" d="M36.805 33.32s.455.251.732.536c.002-.01.002-.017.005-.025.119-.563.688-1.272.688-1.272s.225.87.109 1.432c.362-.13.832-.17.832-.17s-.035.551-.361.796c-.326.244-1.113.31-1.113.31s-.693-.377-.89-.731c-.198-.358-.002-.876-.002-.876"/><path fill="#699635" d="M36.494 34.641s.375.359.567.705c.004-.008.007-.015.012-.022.263-.513.997-1.053.997-1.053s-.01.898-.268 1.412c.385-.032.848.049.848.049s-.178.523-.556.677c-.379.152-1.156.013-1.156.013s-.571-.543-.669-.937c-.098-.395.225-.844.225-.844"/><path fill="#83bf4f" d="M35.851 35.837s.267.443.364.828c.006-.007.009-.013.017-.02.388-.428 1.236-.76 1.236-.76s-.243.865-.626 1.294c.38.068.806.267.806.267s-.307.459-.712.51c-.406.05-1.121-.284-1.121-.284s-.409-.671-.401-1.077c.007-.406.437-.758.437-.758"/><path fill="#699635" d="M34.915 36.829s.144.496.138.892l.021-.015c.485-.313 1.394-.416 1.394-.416s-.461.773-.942 1.089c.349.164.709.465.709.465s-.418.364-.822.309-1.01-.562-1.01-.562-.222-.754-.107-1.144c.111-.389.617-.618.617-.618"/><path fill="#83bf4f" d="M33.755 37.545s.009.517-.101.897c.008-.003.015-.007.023-.009.551-.177 1.455-.044 1.455-.044s-.647.629-1.195.811c.295.248.564.63.564.63s-.498.245-.875.088c-.376-.158-.826-.803-.826-.803s-.018-.784.194-1.131.761-.439.761-.439"/><path fill="#ffce31" d="M38 35.965H26l6-10 6 10m-10.165-1.059h8.33L32 27.963l-4.165 6.943"/><path fill="#3e4347" d="M32.5 30.15l-.5.815-.5-.815v-2.375l.5-.81.5.81v2.375"/><circle fill="#c94747" cx="32" cy="30.965" r="2"/><path fill="#ffc7ce" d="M32 29.465a1.5 1.5 0 0 0-1.5 1.5h3a1.5 1.5 0 0 0-1.5-1.5"/><path fill="#fc0" d="M41.717 32.423c0-5.366-4.351-9.717-9.717-9.717s-9.717 4.351-9.717 9.717c0 3.833 2.226 7.139 5.451 8.72l.684-1.202a8.327 8.327 0 0 1-4.753-7.518c0-4.604 3.731-8.335 8.335-8.335s8.335 3.731 8.335 8.335c0 3.367-2 6.262-4.876 7.577l.492 1.294c3.396-1.515 5.766-4.913 5.766-8.871"/></svg>