<svg xmlns="http://www.w3.org/2000/svg" viewBox="0 0 64 64"><path fill="#3e4347" d="M32 62c13.06 0 24.17-8.35 28.29-20H3.72c4.119 11.65 15.225 20 28.29 20"/><path fill="#ed4c5c" d="M32 2C18.939 2 7.833 10.35 3.714 22h56.572C56.167 10.35 45.061 2 32 2z"/><path fill="#f9f9f9" d="M60.286 42C61.393 38.871 62 35.508 62 32s-.607-6.871-1.714-10H3.714C2.607 25.129 2 28.492 2 32s.607 6.871 1.714 10h56.572z"/><g fill="#75a843"><path d="M21 35.19L25.326 38l-1.634-4.578L28 30.5h-5.336L21 26l-1.614 4.5H14l4.309 2.922L16.674 38zM43 35.19L47.33 38l-1.638-4.578L50 30.5h-5.336L43 26l-1.61 4.5H36l4.31 2.922L38.674 38z"/></g></svg>