<svg xmlns="http://www.w3.org/2000/svg" viewBox="0 0 64 64"><g fill="#75a843"><path d="M32 2a29.86 29.86 0 0 0-16.646 5.041h33.291A29.854 29.854 0 0 0 32 2zM32 62a29.86 29.86 0 0 0 16.646-5.041H15.354A29.86 29.86 0 0 0 32 62z"/></g><path fill="#ed4c5c" d="M7.05 47.04h50.904a29.806 29.806 0 0 0 3.633-10.08H3.417A29.812 29.812 0 0 0 7.05 47.04"/><path fill="#3e4347" d="M3 32c0 1.719.152 3.401.431 5.04h58.14c.278-1.64.43-3.322.43-5.04s-.152-3.401-.431-5.04H3.43A30.017 30.017 0 0 0 2.999 32"/><path fill="#ed4c5c" d="M3.415 27.04h58.17a29.791 29.791 0 0 0-3.633-10.08H7.048a29.806 29.806 0 0 0-3.633 10.08"/><g fill="#ffce31"><path d="M12.304 17.04h45.697a30.112 30.112 0 0 0-9.485-10.08h-33.03a30.103 30.103 0 0 0-3.181 2.434v7.648M12.304 46.959v7.648a30.552 30.552 0 0 0 3.181 2.434h33.03A30.158 30.158 0 0 0 58 46.961H12.303"/></g><path fill="#f9f9f9" d="M12.631 12.204H9.478C4.828 17.487 2 24.41 2 32c0 7.746 2.944 14.801 7.765 20.123h2.539L32.427 32 12.631 12.204z"/><path fill="#3e4347" d="M12.304 9.382a29.848 29.848 0 0 0-2.835 2.822L29.265 32 9.469 51.796c.882 1 1.829 1.944 2.835 2.822L34.922 32 12.304 9.382"/><path fill="#ed4c5c" d="M17.46 33.93l5.379-4.516-6.344-1.066-3.281-6.655-3.284 6.655-6.341 1.066 5.379 4.516-1.399 6.703 5.645-3.223 5.641 3.223z"/><g fill="#ffce31"><path d="M11.341 30.11c.69 1.502.861 1.602 2.586 2.191 1.726.592 6.6 1.154 7.079 1.209-.313-.313-5.803-4.381-6.931-5.193-1.126-.814-1.442-1.182-1.442-1.182s-1.015-1.83-1.367-2.365c-.351-.537-.996-1.295-1.847-1.295s-1.367.5-1.613 1.387c-.138.037-.864.48-.838.938.207-.025 1.527-.395 1.981 1.094.457 1.492.482 3.934.013 5.139-.467 1.207-1.195 2.119-1.195 3.178 0 .148.099.443.345.443.088.47.778 3.808.778 3.808h9.831l1.562-6.04"/><g stroke="#000" stroke-linejoin="round" stroke-linecap="round" stroke-width=".2"><path d="M11.341 30.11c.69 1.502.861 1.602 2.586 2.191 1.726.592 6.6 1.154 7.079 1.209-.313-.313-5.803-4.381-6.931-5.193-1.126-.814-1.442-1.182-1.442-1.182s-1.015-1.83-1.367-2.365c-.351-.537-.996-1.295-1.847-1.295s-1.367.5-1.613 1.387c-.138.037-.864.48-.838.938.207-.025 1.527-.395 1.981 1.094.457 1.492.482 3.934.013 5.139-.467 1.207-1.195 2.119-1.195 3.178 0 .148.099.443.345.443.088.47.778 3.808.778 3.808h9.831l1.562-6.04"/><path d="M8.111 35.654s2.096-.121 2.661-.121c.568 0 5.845.006 8.786.688"/><path d="M8.854 35.613s-.21-.254-.075-.758c.135-.506 1.613-1.813 1.613-3.66M10.119 35.533s-.171-.824 1.715-1.527c.529-.162 2.044-1.012 2.093-1.703M11.634 34.08s4.623.02 8.283.76"/><path d="M12.791 33.531s1.59.055 1.847-.02c.26-.074.719-.266.9-.809M13.732 33.551s.851-.443 1.017-1.016M11.167 39.463s-.363-2.52-.436-3.93l.949.904 1-.875.863.92.999-.848.86.969.988-.84.786.916.986-.713 1.172 1.113M19.13 37.875c-3.521-.506-8.229-.471-8.229-.471M9.266 28.695s2.864-1.367 3.367-1.559"/><path d="M10.81 36.531l.961.879.87-.873.88.908.949-.841.874.919.985-.812.811.939.98-.75 1.03.911"/><circle cx="13.541" cy="34.867" r=".383"/><circle cx="15.15" cy="34.976" r=".382"/><circle cx="9.151" cy="24.659" r=".296"/></g></g></svg>