<svg xmlns="http://www.w3.org/2000/svg" viewBox="0 0 64 64"><path fill="#ed4c5c" d="M56 14H32v6h27.496A29.92 29.92 0 0 0 56 14"/><path fill="#f9f9f9" d="M61.4 38a30.03 30.03 0 0 0 .602-6h-60c0 2.055.208 4.061.601 6H61.4"/><path fill="#ed4c5c" d="M32 2v6h18a29.86 29.86 0 0 0-18-6"/><g fill="#f9f9f9"><path d="M32 14h24a30.16 30.16 0 0 0-6-6H32v6M59.5 20H32.004v6h29.398a29.66 29.66 0 0 0-1.902-6"/></g><g fill="#ed4c5c"><path d="M32 26v6h30c0-2.055-.207-4.062-.602-6H32M4.503 44h54.993a29.64 29.64 0 0 0 1.902-6H2.601a29.767 29.767 0 0 0 1.902 6"/></g><path fill="#f9f9f9" d="M8 50h48a29.92 29.92 0 0 0 3.496-6H4.503A29.971 29.971 0 0 0 8 50"/><path fill="#ed4c5c" d="M8 50a30.24 30.24 0 0 0 6 6h36a30.213 30.213 0 0 0 6-6H8"/><path fill="#f9f9f9" d="M14 56c5.01 3.766 11.247 6 18 6s12.986-2.234 18-6H14"/><path fill="#2a5f9e" d="M32 2C15.432 2 2 15.432 2 32h30V2"/><g fill="#ffe62e"><path d="M19.884 25.604c-3.02 0-5.476-2.508-5.476-5.6 0-3.094 2.452-5.602 5.476-5.602a5.37 5.37 0 0 1 3.116.996c-1.255-1.469-3.099-2.396-5.155-2.396-3.781 0-6.845 3.134-6.845 7 0 3.865 3.064 6.999 6.845 6.999 2.057 0 3.9-.927 5.155-2.396a5.34 5.34 0 0 1-3.116.998M26 18.82l.667-1.82-.167 1.937 1.371-1.339-.969 1.668 1.801-.598-1.573 1.073L29 20l-1.87.266 1.573 1.072-1.801-.597.969 1.668L26.5 21.07l.167 1.93L26 21.19 25.333 23l.167-1.93-1.37 1.339.97-1.668-1.803.597 1.578-1.072L23 20l1.875-.259-1.578-1.073 1.803.598-.97-1.668 1.37 1.339L25.333 17z"/></g></svg>