<svg xmlns="http://www.w3.org/2000/svg" viewBox="0 0 64 64"><path fill="#42ade2" d="M32 2C15.432 2 2 15.432 2 32h60C62 15.432 48.568 2 32 2z"/><path fill="#699635" d="M58 47H6c5.192 8.965 14.889 15 26 15s20.808-6.03 26-15"/><g fill="#ffe62e"><path d="M57.977 47A29.85 29.85 0 0 0 62 32H2a29.85 29.85 0 0 0 4.023 15h51.954zM46.22 19.466l8.666-.508-8.666-.506 8.24-2.731-8.501 1.753 7.251-4.771-7.76 3.895 5.77-6.486-6.484 5.77 3.894-7.758-4.771 7.251 1.754-8.501-2.731 8.236-.502-8.662-.512 8.662-2.728-8.236 1.751 8.501-4.771-7.251 3.89 7.758-6.482-5.77 5.772 6.486-7.76-3.895 7.251 4.771-8.501-1.753 8.239 2.731-8.665.506 8.665.508L30.29 22.2l8.501-1.756-7.251 4.766 7.76-3.89-5.772 6.486 6.482-5.766-3.89 7.754 4.771-7.251-1.751 8.497 2.728-8.235.512 8.665.502-8.665 2.731 8.235-1.754-8.497 4.771 7.251-3.894-7.754 6.484 5.766-5.77-6.486 7.76 3.89-7.251-4.766L54.46 22.2z"/><circle cx="42.38" cy="18.958" r="3.696"/></g><path fill="#42ade2" d="M42.38 23.04a4.082 4.082 0 0 1-4.077-4.079c0-2.248 1.828-4.078 4.077-4.078s4.077 1.83 4.077 4.078a4.082 4.082 0 0 1-4.077 4.079m0-7.392a3.317 3.317 0 0 0-3.314 3.313c0 1.828 1.487 3.315 3.314 3.315s3.314-1.487 3.314-3.315a3.317 3.317 0 0 0-3.314-3.313"/></svg>