<svg xmlns="http://www.w3.org/2000/svg" viewBox="0 0 64 64"><path fill="#2a5f9e" d="M14 8v48l24-24z"/><path fill="#ffce31" d="M56 14C50.527 6.714 41.814 2 32 2a29.865 29.865 0 0 0-18 6l24 24 18-18"/><path fill="#ed4c5c" d="M56 50a29.856 29.856 0 0 0 6-18 29.855 29.855 0 0 0-6-17.999L38.001 32 56 50z"/><path fill="#699635" d="M38 32L14 56c5.01 3.768 11.246 6 18 6 9.814 0 18.527-4.713 24-12L38.001 32"/><path fill="#2a5f9e" d="M6 17.041C3.46 21.445 2 26.55 2 32c0 5.45 1.46 10.555 4 14.959V17.041z"/><path fill="#fff" d="M6 17.04v29.918a30.089 30.089 0 0 0 4 5.43V11.611a30.081 30.081 0 0 0-4 5.429"/><path fill="#ed4c5c" d="M10 11.612v40.776a30.254 30.254 0 0 0 4 3.611V8a30.192 30.192 0 0 0-4 3.612z"/><circle fill="#fff" cx="38" cy="32" r="12"/></svg>