<svg xmlns="http://www.w3.org/2000/svg" viewBox="0 0 64 64"><circle fill="#83bf4f" cx="32" cy="32" r="30"/><g fill="#fff"><path d="M37.45 30.385a7.025 7.025 0 0 0-1.978.919c.099-.59.153-1.214.153-1.861 0-3.562-3.582-7.439-3.582-7.439s-3.583 3.878-3.583 7.439c0 .674.058 1.322.164 1.934a6.936 6.936 0 0 0-2.075-.991C22.683 29.292 18 31.71 18 31.71s3.202 4.999 7.07 6.088c3.273.924 5.764-1.57 6.716-1.932a.818.818 0 0 1 .439.008c.958.381 3.446 2.844 6.708 1.924 3.867-1.089 7.07-6.088 7.07-6.088s-4.683-2.418-8.55-1.325M24.744 48c2.151 1.271 4.623 2 7.256 2s5.104-.729 7.255-2H24.744M20.301 44a15.797 15.797 0 0 0 1.801 2h19.796a15.797 15.797 0 0 0 1.801-2H20.301"/></g><g fill="#ffe62e"><path d="M32 18.13L34.474 20l-.936-3.049L36 15.06l-3.048-.01L32 12l-.95 3.05-3.05.01 2.461 1.891L29.529 20zM24.652 19.343l1.849.233-1.401-1.307.711-1.721-1.591.91-1.405-1.298.415 1.87-1.577.919 1.846.241.432 1.87zM19.34 24.656l1.72-.723-1.87-.43-.245-1.845-.915 1.582-1.87-.421 1.295 1.411-.909 1.584 1.72-.714 1.307 1.403zM44.66 24.655l-.23 1.848 1.302-1.403 1.718.713-.904-1.583 1.296-1.412-1.869.422-.923-1.584-.24 1.845-1.867.432zM39.35 19.342l.72 1.718.43-1.86 1.85-.251-1.584-.919.414-1.87-1.404 1.298-1.586-.91.71 1.721-1.4 1.307z"/></g><path fill="#fff" d="M46.32 40H35.569c-2.399 0-2.559-1.676-2.566-2h-2c0 .203-.072 2-2.566 2H17.686c.306.689.637 1.363 1.016 2h9.735c1.765 0 2.88-.641 3.566-1.436.687.795 1.802 1.436 3.566 1.436h9.735c.38-.637.711-1.311 1.016-2"/></svg>