<svg xmlns="http://www.w3.org/2000/svg" viewBox="0 0 64 64"><path fill="#f9f9f9" d="M2 32a29.848 29.848 0 0 0 4.629 16h50.744A29.864 29.864 0 0 0 62 32a29.854 29.854 0 0 0-4.627-16H6.629A29.838 29.838 0 0 0 2 32z"/><g fill="#ed4c5c"><path d="M57.373 16C52.057 7.59 42.684 2 32 2S11.943 7.59 6.629 16h50.744zM6.629 48C11.943 56.41 21.316 62 32 62s20.057-5.59 25.373-14H6.629z"/></g><g fill-rule="evenodd"><path fill="#83bf4f" d="M23.537 45s6.516-4.291 14.09-.475v-1.582s-6.416-4.166-1.014-4.76c5.404-.593 8.383 2.239 8.383 2.239v-1.357s-9.182-4.879-1.271-3.01v-1.371s-7.123-2.488-2.822-2.488h1.85v-.906s-7.283-1.014-1.152-1.412v-.926s-11.02-5.074-2.789-3.066v-1.01s-3.98-.756-.939-1.207c0 0-1.563-2.117-4.197-2.117-2.637 0-2.207-2.557-2.207-2.557l-3.264 3.523s2.264-.242-1.434 1.736c0 0 3.074.348-3.91 4.445 0 0 2.588-.959 2.588.701s-4.592 3.965-4.592 3.965l.381 1.09s3.215-2.488 2.984-.83c-.23 1.66-5.226 4.301-5.226 4.301l.479.83s4.057-2.414 4.211-1.359c0 0 .584.707-3.422 2.01l.512.779s6.127-3.02 7.658-.83-5.05 4.525-5.05 4.525l.154 1.109"/><g fill="#f9f9f9"><ellipse cx="29.77" cy="26.639" rx=".92" ry=".904"/><ellipse cx="33.413" cy="28.13" rx=".919" ry=".904"/><ellipse cx="26.01" cy="32.928" rx=".919" ry=".906"/><ellipse cx="36.02" cy="33.834" rx=".918" ry=".904"/><ellipse cx="38.927" cy="34.738" rx=".919" ry=".906"/><ellipse cx="27.1" cy="28.842" rx=".919" ry=".906"/><ellipse cx="32.19" cy="32.05" rx=".919" ry=".906"/></g></g></svg>