<svg xmlns="http://www.w3.org/2000/svg" viewBox="0 0 64 64"><path fill="#ed4c5c" d="M62 32a29.85 29.85 0 0 0-3.956-14.898l-43.36 37.27-.691 1.625c.13.098.262.193.393.288l46.609-16.571c.653-2.462 1-5.05 1-7.715"/><path fill="#fcd856" d="M58.04 17.1C53.627 9.403 45.9 3.85 36.805 2.383L13.991 55.996 58.041 17.1"/><path fill="#2872a0" d="M32 2c-8.191 0-15.616 3.285-21.03 8.607C5.435 16.051 2 23.627 2 32c0 9.525 4.441 18.01 11.364 23.51.124.098.248.193.373.29.085.065.171.133.258.198l.691-1.625 22.12-51.988A30.26 30.26 0 0 0 31.997 2"/><path fill="#fff" d="M14.388 56.29l.167.122 40.25-4.92a29.928 29.928 0 0 0 6.19-11.773L14.386 56.29"/><path fill="#699635" d="M32 62c9.129 0 17.305-4.078 22.807-10.512l-40.252 4.92A29.86 29.86 0 0 0 32 62z"/></svg>