<svg xmlns="http://www.w3.org/2000/svg" viewBox="0 0 64 64"><path fill="#ed4c5c" d="M56 14H32v6h27.496A29.92 29.92 0 0 0 56 14"/><path fill="#f9f9f9" d="M61.4 38a30.03 30.03 0 0 0 .602-6h-60c0 2.055.207 4.061.602 6H61.4"/><path fill="#ed4c5c" d="M32 2v6h18a29.847 29.847 0 0 0-18-6"/><g fill="#f9f9f9"><path d="M32 14h24a30.186 30.186 0 0 0-6-6H32v6M59.5 20H32.004v6h29.398a29.64 29.64 0 0 0-1.902-6"/></g><g fill="#ed4c5c"><path d="M32 26v6h30a30.03 30.03 0 0 0-.602-6H32zM4.504 44h54.992a29.64 29.64 0 0 0 1.902-6H2.602a29.64 29.64 0 0 0 1.902 6"/></g><path fill="#f9f9f9" d="M8 50h48a29.92 29.92 0 0 0 3.496-6H4.504A29.92 29.92 0 0 0 8 50z"/><path fill="#ed4c5c" d="M8 50a30.24 30.24 0 0 0 6 6h36a30.186 30.186 0 0 0 6-6H8z"/><path fill="#f9f9f9" d="M14 56c5.01 3.766 11.246 6 18 6s12.986-2.234 18-6H14"/><path fill="#2a5f9e" d="M32 2C15.432 2 2 15.432 2 32h30V2z"/><path fill="#fff" d="M20 22.244L25.563 26l-2.104-6.107L29 16.11l-6.86-.02L20 10l-2.141 6.09-6.859.02 5.537 3.783L14.438 26z"/></svg>