<svg xmlns="http://www.w3.org/2000/svg" viewBox="0 0 64 64"><path fill="#f9f9f9" d="M2 32a29.848 29.848 0 0 0 4.628 16h50.744C60.299 43.368 62 37.885 62 32s-1.701-11.368-4.628-16H6.628A29.848 29.848 0 0 0 2 32z"/><path fill="#c94747" d="M57.372 16C52.057 7.59 42.684 2 32 2S11.943 7.59 6.628 16h50.744z"/><path fill="#699635" d="M6.628 48C11.943 56.41 21.316 62 32 62s20.057-5.59 25.372-14H6.628z"/><g fill="#ffce31"><path d="M38.28 36.409a3.555 3.555 0 0 1-2.07.896c-1.914.165-3.605-1.197-3.777-3.041v-2.649c.02-.609.547-1.088 1.179-1.069.396.012.756.218.955.547.47-1.363-.298-2.838-1.714-3.289-1.416-.453-2.945.286-3.415 1.651a2.5 2.5 0 0 0 0 1.638 1.171 1.171 0 0 1 1.565-.398c.342.192.557.539.568.921v2.649c-.172 1.844-1.863 3.206-3.777 3.041a3.549 3.549 0 0 1-2.07-.896c-.739 1.789-2.843 2.661-4.699 1.948a3.685 3.685 0 0 1-.771-.406c.335 3.215 5.335 2.558 5.708-.567 1.57 2.657 5.02 1.896 6.04-1.356h.01c1.012 3.253 4.466 4.01 6.04 1.356.373 3.125 5.373 3.782 5.708.567a3.685 3.685 0 0 1-.771.406c-1.858.712-3.961-.16-4.701-1.949m-8.229-6.469c.12-.842.809-1.505 1.684-1.621 1.077-.142 2.07.584 2.219 1.621-.771-.151-1.557.188-1.951.844a1.863 1.863 0 0 0-1.952-.844"/><path d="M28.23 39.972c-.001 0-.354-.204-1.089-.112-.105-.457-.522-.852-.82-1.049-.284.303-.486.861-.388 1.265-.525.093-1.016.426-1.016.426 1.221 1.17 2.615.922 3.313-.53M33.688 39.808s-.313-.258-1.055-.282c-.026-.468-.371-.922-.632-1.162-.332.252-.626.772-.597 1.186-.534.009-1.074.261-1.074.261 1.01 1.346 2.425 1.319 3.358-.003M37.682 38.812c-.37.198-.748.665-.789 1.076-.527-.074-1.104.09-1.104.09.765 1.487 2.168 1.683 3.313.523 0 0-.267-.302-.993-.444.053-.465-.211-.967-.427-1.245"/><path d="M22.872 42.42l.487 1.58a31.312 31.312 0 0 1 17.281 0l.487-1.58a33.084 33.084 0 0 0-18.255 0M31.17 22.467l-.516 1.523L32 23.05l1.35.94-.518-1.523 1.348-.944h-1.666L32 20l-.514 1.523h-1.664zM24.757 24.12l-.517 1.526 1.349-.942 1.346.942-.514-1.526 1.346-.94H26.1l-.511-1.525-.519 1.525h-1.659zM20.06 28.645l-.51 1.525 1.346-.94 1.344.94-.512-1.525 1.342-.944h-1.661l-.513-1.521-.515 1.521h-1.663zM19.18 35.404l1.343.946-.513-1.528 1.345-.942h-1.664l-.511-1.526-.516 1.526H17l1.346.942-.514 1.528zM37.579 24.12l-.519 1.526 1.35-.942 1.347.942-.517-1.526 1.349-.94h-1.663l-.516-1.525-.513 1.525H36.23zM42.27 28.645l-.511 1.525 1.341-.94 1.35.94-.513-1.525 1.343-.944h-1.662L43.1 26.18l-.509 1.521h-1.664zM45.654 34.822L47 33.88h-1.66l-.518-1.526-.512 1.526h-1.665l1.345.942-.513 1.528 1.345-.946 1.348.946z"/></g></svg>