<svg xmlns="http://www.w3.org/2000/svg" viewBox="0 0 64 64"><path fill="#ed4c5c" d="M45.58 32.997l16.341 1.072c.047-.684.079-1.373.079-2.069 0-5.393-1.43-10.448-3.921-14.821l-14.268 8.07-2.582-3.236 11.04-12.12A29.894 29.894 0 0 0 36.66 2.366l-2.592 16.203h-4.14L27.336 2.365a29.9 29.9 0 0 0-15.613 7.53l11.05 12.12-2.582 3.236-14.272-8.07a29.857 29.857 0 0 0-3.917 14.815c0 .698.032 1.389.079 2.075l16.342-1.076.922 4.04-15.19 6.121a30.086 30.086 0 0 0 10.807 13.528l9.339-13.438 3.73 1.797-4.682 15.683a29.97 29.97 0 0 0 8.653 1.273c3.01 0 5.917-.448 8.658-1.274l-4.684-15.683 3.73-1.797 9.34 13.437a30.107 30.107 0 0 0 10.805-13.53l-15.19-6.118.921-4.04"/><g fill="#ffce31"><path d="M34.07 18.566l2.592-16.204a30.226 30.226 0 0 0-9.324 0l2.592 16.204h4.14zM43.811 25.25l14.269-8.07a30.09 30.09 0 0 0-5.808-7.289l-11.04 12.12 2.582 3.236M45.58 32.997l-.921 4.04 15.19 6.118a29.823 29.823 0 0 0 2.071-9.08l-16.34-1.072M35.975 45.04l4.684 15.683a29.962 29.962 0 0 0 8.387-4.04l-9.34-13.437-3.731 1.797M24.298 43.25l-9.339 13.438a29.792 29.792 0 0 0 8.388 4.04l4.682-15.683-3.731-1.797M18.421 32.999L2.079 34.075a29.843 29.843 0 0 0 2.073 9.08l15.19-6.121-.921-4.04M22.771 22.02L11.721 9.9a30.144 30.144 0 0 0-5.808 7.292l14.271 8.07 2.583-3.236"/><circle cx="32" cy="32" r="9"/></g></svg>