<svg xmlns="http://www.w3.org/2000/svg" viewBox="0 0 64 64"><path fill="#ed4c5c" d="M32 2a29.878 29.878 0 0 0-19.91 7.567v44.865A29.876 29.876 0 0 0 32 62c16.568 0 30-13.432 30-30S48.568 2 32 2z"/><path fill="#ffce31" d="M12.09 9.567a30.193 30.193 0 0 0-3.649 3.883v37.1a30.33 30.33 0 0 0 3.649 3.883L42 32 12.09 9.567z"/><path fill="#3e4347" d="M8.44 13.439C4.411 18.547 2 24.99 2 32s2.411 13.453 6.44 18.561L27 32 8.44 13.439z"/><path fill="#fff" d="M10.338 33.899L12.716 39l.949-5.336L19 33.28l-4.752-2.94.918-5.34-3.887 3.515-4.764-2.911 2.349 5.11L5 34.26z"/></svg>