<svg xmlns="http://www.w3.org/2000/svg" viewBox="0 0 64 64"><path fill="#699635" d="M60.45 22.494l-8.195-2.196v-.001L11.737 43.689h.002l-2.196 8.195a29.88 29.88 0 0 0 14.688 9.09c16 4.288 32.454-5.209 36.742-21.21a29.831 29.831 0 0 0-.523-17.263"/><path fill="#2a5f9e" d="M39.759 3.02c-16-4.288-32.454 5.209-36.742 21.21a29.846 29.846 0 0 0 .524 17.265l3.682.986 4.513 1.209 40.518-23.393 1.209-4.513.986-3.683a29.83 29.83 0 0 0-14.69-9.08"/><path fill="#ffe62e" d="M3.54 41.493a30.184 30.184 0 0 0 2.467 5.487l.015.024c1 1.738 2.185 3.372 3.52 4.88l50.907-29.391a30.148 30.148 0 0 0-6-10.393L3.54 41.493"/><g fill="#fff"><path d="M18.994 20.52l1.999 1.348-.756-2.193 1.993-1.36-2.466-.008-.77-2.187-.768 2.187-2.466.008 1.991 1.36-.756 2.193zM13.604 14.769l1.999 1.351-.755-2.195 1.99-1.361-2.465-.007-.769-2.189-.769 2.189-2.466.007 1.99 1.361-.754 2.195zM24.385 14.769l1.998 1.351-.754-2.195 1.99-1.361-2.469-.007-.765-2.189-.769 2.189-2.466.007 1.99 1.361-.754 2.195zM13.604 26.27l1.999 1.348-.755-2.194 1.99-1.364h-2.465l-.769-2.192-.769 2.192h-2.466l1.99 1.364-.754 2.194zM24.385 26.27l1.998 1.348-.754-2.194 1.99-1.364H25.15l-.765-2.192-.769 2.192H21.15l1.99 1.364-.754 2.194z"/></g></svg>