<svg xmlns="http://www.w3.org/2000/svg" viewBox="0 0 64 64"><g fill="#fff"><path d="M42.33 3.826a29.81 29.81 0 0 0-4.196-1.197L17.84 12.775h-6.123v-1.046l19.434-9.717a30.34 30.34 0 0 0-3.282.271l-16.15 8.08V9.9c-.342.314-.677.636-1 .965-.5.504-.982 1.024-1.445 1.562v1.419c.53.386.996.853 1.382 1.382h31.68v-2.449H28.798L42.336 6.01V3.829M21.16 22.571H10.654a6.312 6.312 0 0 1-1.382 1.382v13.308h2.449v-9.83l19.66 9.83h10.953l-24.49-12.245h8.214l16.276 8.138v-1.369l-13.538-6.769h13.538v-2.449H21.16z"/></g><g fill="#ed4c5c"><path d="M8.474 13.352l.02.01c.271.143.529.303.774.481v-1.419c-.255.296-.504.599-.748.904l-.046.024M17.84 25.02l24.49 12.25v-4.11l-16.28-8.14zM38.13 2.629a30.074 30.074 0 0 0-6.983-.616L11.713 11.73v1.046h6.123L38.13 2.629M23.895 15.225H10.65a6.224 6.224 0 0 1 1.195 3.674 6.225 6.225 0 0 1-1.195 3.673h31.68V15.225H23.895m5.288 7l-2.159-1.569-2.159 1.569.825-2.539-1.086-.788-1.074-.78h2.67l.824-2.538.824 2.538h2.67l-1.074.78-1.086.788.825 2.539M9.268 23.954v-.001zM6.877 25.02a6.302 6.302 0 0 1-2.566 0 6.233 6.233 0 0 1-1.379-.463A30.123 30.123 0 0 0 2 32.004c0 1.797.158 3.556.461 5.266h6.806V23.962a6.215 6.215 0 0 1-2.39 1.063m.877 9.454l-2.159-1.568-2.159 1.568.825-2.538-2.159-1.569H4.77l.825-2.538.825 2.538h2.669L6.93 31.941l.824 2.538"/></g><g fill="#2872a0"><path d="M28.792 12.775H42.33V6.01zM11.717 9.897v.463l16.15-8.08a29.894 29.894 0 0 0-16.15 7.613M11.717 37.27h19.66l-19.66-9.834zM42.33 31.789V25.02H28.792zM11.537 16.967v.001l.002-.001zM11.537 16.968l-2.657 1.93-1.015.737.155.475 1.249 3.843a6.312 6.312 0 0 0 1.917-2.261 6.223 6.223 0 0 0 .351-4.724M10.65 15.225a6.312 6.312 0 0 0-2.156-1.863 30.088 30.088 0 0 0-1.832 2.572l.336 1.033h4.539a6.144 6.144 0 0 0-.887-1.742M3.418 22.866c-.151.474-.292.953-.419 1.437-.022.083-.045.166-.066.25a6.233 6.233 0 0 0 6.335-.6l-3.673-2.668-2.177 1.581"/></g><g fill="#ffce31"><path d="M44.4 4.676a30.001 30.001 0 0 0-2.072-.85v33.44H2.459A29.806 29.806 0 0 0 7.637 49.51C13.084 57.074 21.966 62 31.998 62c16.569 0 30-13.432 30-30 0-12.146-7.217-22.605-17.598-27.324M9.268 23.953L8.02 20.11l-.154-.475 1.015-.737 2.658-1.932H6.998l-.336-1.033a30.2 30.2 0 0 0-1.538 2.728c-.039.079-.079.157-.117.236a29.547 29.547 0 0 0-.669 1.474 29.576 29.576 0 0 0-.919 2.494l2.176-1.581 3.673 2.669"/><path d="M25.689 19.687l-.825 2.543 2.156-1.574 2.16 1.574-.823-2.543 1.086-.789 1.075-.778h-2.67l-.828-2.54-.82 2.54h-2.671l1.075.778zM3.436 34.47l2.159-1.569 2.159 1.569-.825-2.538 2.161-1.57H6.419l-.824-2.538-.825 2.538H2.101l2.159 1.57z"/></g></svg>