<svg xmlns="http://www.w3.org/2000/svg" viewBox="0 0 64 64"><path fill="#2872a0" d="M12 12h20v20H12z"/><path fill="#5b97b1" d="M32 2v30H2c0 16.568 13.432 30 30 30s30-13.432 30-30S48.568 2 32 2z"/><path fill="#fff" d="M32 2a29.84 29.84 0 0 0-13.088 3.012V11H11v7.912H5.011A29.856 29.856 0 0 0 2 32h12V17l12 15h6v-7.5L23.6 14H32V2z"/><path fill="#ed4c5c" d="M32 5H18.912A30.116 30.116 0 0 0 5 18.912V32h6V11h2l17 21h2v-4.941L19 11h13V5z"/><g fill="#ffe62e"><path d="M28.916 50.15l-.666-2.05-.664 2.05h-2.153l1.737 1.27-.661 2.04 1.741-1.26 1.742 1.26-.665-2.05 1.743-1.26zM37.768 48.559l.665-2.047-1.742 1.265-1.741-1.265.665 2.047-1.741 1.265h2.156l.661 2.047.669-2.047h2.149zM38.433 39.3l-1.742 1.262L34.95 39.3l.665 2.04-1.741 1.268h2.156l.661 2.047.669-2.047h2.149l-1.741-1.268zM45.22 46.734l.666-2.046-1.736 1.265-1.75-1.265.67 2.046L41.33 48h2.149l.671 2.05.66-2.05h2.152zM43.479 32.3l.671 2.05.66-2.05h2.152l-1.742-1.26.666-2.052-1.736 1.262-1.75-1.262.67 2.052-1.74 1.26zM49.685 41.22l-.665-2.04-.67 2.04H46.2l1.743 1.267-.663 2.047 1.74-1.264 1.741 1.264-.661-2.047 1.737-1.267zM49.743 30.16l.667 2.04.66-2.04h2.16l-1.75-1.265.67-2.047-1.74 1.262-1.743-1.262.663 2.047-1.739 1.265zM55.979 37.17l-.669-2.05-.662 2.05H52.49l1.75 1.266-.67 2.046 1.74-1.262 1.74 1.262-.66-2.047 1.74-1.265zM54.24 24.59l-.67 2.047 1.74-1.266 1.74 1.266-.66-2.047 1.74-1.266h-2.151l-.669-2.047-.662 2.047H52.49z"/></g></svg>