<svg xmlns="http://www.w3.org/2000/svg" viewBox="0 0 64 64"><path fill="#f9f9f9" d="M17 58V6C8.036 11.192 2 20.889 2 32s6.036 20.808 15 26z"/><path fill="#699635" d="M32 2a29.882 29.882 0 0 0-15 4.02v51.953a29.841 29.841 0 0 0 15 4.02c16.568 0 30-13.432 30-30s-13.432-30-30-30"/><g fill="#fff"><path d="M38 38.13c-6.074 0-11-4.82-11-10.767 0-2.851 1.14-5.435 2.987-7.36C25.837 22.128 23 26.376 23 31.278c0 7.03 5.82 12.725 13 12.725s13-5.696 13-12.725c0-.691-.071-1.363-.18-2.024-.915 5.04-5.405 8.876-10.82 8.876"/><path d="M40 19.876L42.472 18l-.934 3.05L44 22.943l-3.05.011L40 26l-.95-3.046-3.05-.011 2.462-1.893-.934-3.05z"/></g></svg>