<svg xmlns="http://www.w3.org/2000/svg" viewBox="0 0 64 64"><path fill="#f2b200" d="M62 52c0 5.523-4.477 10-10 10H12C6.476 62 2 57.523 2 52V12C2 6.477 6.476 2 12 2h40c5.523 0 10 4.477 10 10v40z"/><path fill="#fff" d="M47 42.517c0 2.598-.625 3.823-2.318 4.546-1.768.758-4.344.829-8.135.829-.258-1.263-1.143-3.319-1.842-4.51 2.576.145 5.67.108 6.479.108.883 0 1.18-.289 1.18-1.046v-5.231H26.607c-.957 4.04-2.797 7.974-6.221 10.787-.662-.902-2.429-2.49-3.387-3.103 5.559-4.654 6.075-11.545 6.075-17.03V15.998H47v26.517m-4.637-9.454v-4.4H27.602a63.813 63.813 0 0 1-.258 4.4h15.02M27.603 20.183v4.402h14.762v-4.402H27.603"/></svg>