<svg xmlns="http://www.w3.org/2000/svg" viewBox="0 0 64 64"><path fill="#f2b200" d="M62 52c0 5.523-4.477 10-10 10H12C6.477 62 2 57.523 2 52V12C2 6.477 6.477 2 12 2h40c5.523 0 10 4.477 10 10v40z"/><path fill="#fff" d="M48 20.06v8.167h-4.34v-4.295H20.076v4.295H16V20.06h4.566c-.68-1.226-1.623-2.607-2.49-3.757l3.886-1.688c1.244 1.458 2.717 3.49 3.359 4.908l-1.209.536h5.813c-.529-1.38-1.547-3.259-2.453-4.715l3.924-1.342c1.096 1.496 2.342 3.682 2.867 5.061l-2.641.997h6.189c1.207-1.647 2.641-3.986 3.357-5.788L46 15.805c-1.094 1.457-2.227 2.99-3.283 4.255H48M33.773 35.2a26.81 26.81 0 0 1-.98 2.338h12.49v12.461H40.83v-1.265H23.133v1.265h-4.264V37.538h9.473c.188-.766.414-1.57.564-2.338h-6.867v-9.391h19.697v9.392h-7.963m7.06 6.248H23.136v3.336h17.697v-3.336m-14.641-9.584h11.207v-2.684H26.192v2.684"/></svg>