<svg xmlns="http://www.w3.org/2000/svg" viewBox="0 0 64 64"><path fill="#f2b200" d="M62 52c0 5.523-4.477 10-10 10H12C6.477 62 2 57.523 2 52V12C2 6.478 6.477 2 12 2h40c5.523 0 10 4.477 10 10v40z"/><path fill="#fff" d="M28.996 22.963a31.501 31.501 0 0 1-1.57 3.042h18.18v19.02c0 2.271-.432 3.504-2.041 4.197-1.531.732-3.769.77-6.948.77-.197-1.27-.824-3.195-1.414-4.428 2 .117 4.28.117 4.947.117.667-.039.903-.232.903-.771v-2.309H26.881v7.354h-4.634v-16.75c-1.57 1.695-3.259 3.234-5.183 4.504-.667-1-2.158-2.656-3.062-3.504 4.162-2.732 7.42-6.775 9.774-11.242h-8.597v-4.312h10.56a37.52 37.52 0 0 0 1.533-4.659l4.827 1.078c-.393 1.193-.785 2.387-1.255 3.581h19.16v4.312h-21m12.05 7.05H26.882v2.465h14.172v-2.465m0 8.779v-2.504H26.882v2.504h14.172"/></svg>