<svg xmlns="http://www.w3.org/2000/svg" viewBox="0 0 64 64"><path fill="#ed4c5c" d="M62 52c0 5.523-4.477 10-10 10H12C6.477 62 2 57.523 2 52V12C2 6.477 6.477 2 12 2h40c5.523 0 10 4.477 10 10v40z"/><g fill="#fff"><path d="M32 12s-9.97 8.641-22.22 14.6l3.197 6.09s7.914-2.589 19.03-11.527c11.11 8.938 19.02 11.527 19.02 11.527l3.197-6.09C41.973 20.641 32.004 12 32.004 12"/><path d="M20.85 29.505h22.299v5.14H20.85zM16.02 36.805V52h31.965V36.805H16.02m25.541 9.757h-19.12v-4.319h19.12v4.319"/></g></svg>