<svg xmlns="http://www.w3.org/2000/svg" viewBox="0 0 64 64"><path fill="#ed4c5c" d="M62 52c0 5.523-4.477 10-10 10H12C6.477 62 2 57.523 2 52V12C2 6.478 6.477 2 12 2h40c5.523 0 10 4.477 10 10v40z"/><path fill="#fff" d="M19.605 32c-1.58-1.373-4.957-3.133-7.606-4.205l2.693-3.861c2.606.814 6.03 2.401 7.734 3.775L19.605 32m-6.493 16.523c1.921-3.305 4.657-8.711 6.836-13.733l4.02 3.047c-1.923 4.593-4.145 9.527-6.367 13.691l-4.486-3.01m3.93-36.22c2.522 1.16 5.728 3.049 7.351 4.551l-3.162 4.03c-1.454-1.501-4.613-3.646-7.181-4.892l2.992-3.692m22.78 15.237v2.575h11.239v17.04c0 2.232-.43 3.39-1.882 4.078-1.454.686-3.505.729-6.41.729-.085-1.243-.599-3.047-1.154-4.248 1.582.086 3.418.086 3.974.086.558-.043.727-.215.727-.688V34.529h-7.05v6.826h2.094v-5.066h2.949V46.46h-2.949v-1.416h-7.734v2.49h-3.03V36.289h3.03v5.066h1.923v-6.826h-6.71v17.468h-4.485V30.109h10.597v-2.575H23.073v-4.462h6.794v-3.177h-5.471v-4.42h5.471v-3.478h4.744v3.477h5.725v-3.477h4.916v3.477h5.556v4.42h-5.556v3.177h6.751v4.462H39.826zM34.61 23.07h5.725v-3.177H34.61v3.177"/></svg>