<svg xmlns="http://www.w3.org/2000/svg" viewBox="0 0 64 64"><path fill="#e84d88" d="M62 52c0 5.523-4.477 10-10 10H12C6.477 62 2 57.523 2 52V12C2 6.477 6.477 2 12 2h40c5.523 0 10 4.477 10 10v40z"/><path fill="#fff" d="M27.12 17.223h8v6.68h-1.982v2.951h-6.099v1.632h5.564v3.066h-5.564v1.672H34.7v3.534H15.109v-3.534h7.775v-1.672h-5.64v-3.066h5.641v-1.632h-6.02v-2.951h-1.868v-6.68h7.776V14h4.346v3.223m-9.986 20.855h15.97v11.533h-4.308v-1.32H21.21V50h-4.077V38.078m13.798-17.36H19v2.874h3.888v-2.097h4.154v2.097h3.889v-2.874M21.21 41.533v3.301h7.585v-3.301H21.21m19.821-1.94h-4.308V17.882h4.308v21.711m7.966-25.13v29.941c0 2.563-.458 3.847-1.982 4.584-1.486.776-3.85.931-6.976.931-.189-1.319-.839-3.455-1.485-4.776 2.21.116 4.384.077 5.146.077.647 0 .914-.232.914-.854V14.463h4.383"/></svg>