<svg xmlns="http://www.w3.org/2000/svg" viewBox="0 0 64 64"><g fill="#ed4c5c"><path d="M32 2C15.432 2 2 15.431 2 32c0 16.566 13.432 30 30 30s30-13.434 30-30C62 15.43 48.568 2 32 2m0 54C18.745 56 8 45.254 8 32 8 18.745 18.745 8 32 8s24 10.746 24 24-10.745 24-24 24"/><path d="M23.24 22.814c-1.907 3.312-5.219 6.576-8.23 8.785.653 1.203 1.756 3.914 2.01 4.969a40.892 40.892 0 0 0 3.164-2.861v15.06h4.417v-20.18a33.168 33.168 0 0 0 2.762-4.164l-4.12-1.608M26.755 16.839l-4.167-1.706c-1.506 2.359-4.467 5.221-7.02 6.928.599.954 1.605 2.911 1.956 3.915 3.162-2.207 6.828-5.873 9.235-9.137M44.32 35.765v-1.758h3.764v-3.814H27.305v3.814h12.298v1.758H26.4v3.914h4.619l-2.459 1.607c1.505 1.506 3.26 3.563 4.064 4.971l3.364-2.41c-.704-1.205-2.21-2.813-3.565-4.168h7.179v4.52c0 .451-.15.602-.651.602-.504 0-1.959 0-3.465-.051.552 1.154 1.205 2.861 1.355 4.117 2.561 0 4.367-.051 5.722-.703 1.406-.652 1.757-1.809 1.757-3.865V39.68h4.668v-3.914H44.32M47.34 16.187H28.767v12.55H47.34v-12.55m-4.968 9.488h-8.885v-1.756h8.885v1.756m0-4.67h-8.885V19.3h8.885v1.705"/></g></svg>