<svg xmlns="http://www.w3.org/2000/svg" viewBox="0 0 64 64"><path fill="#42ade2" d="M58.919 2.589a4.442 4.442 0 0 0-1.123-.263C56.845 2.111 55.597 2 54.001 2c-15.322 0-27.53 8.78-33.377 22.541C13.008 42.467 13.441 57.731 2 57.731c0 2.356 1.919 4.266 4.289 4.266 2.37 0 4.292-1.91 4.292-4.266 0 2.355 1.922 4.266 4.292 4.266 2.369 0 4.291-1.91 4.291-4.266 0 2.355 1.922 4.266 4.291 4.266s4.291-1.91 4.291-4.266c0 2.355 1.922 4.266 4.291 4.266 2.37 0 4.291-1.91 4.291-4.266 0 2.355 1.922 4.266 4.29 4.266 2.37 0 4.292-1.91 4.292-4.266-.001 2.356 1.921 4.266 4.29 4.266 2.37 0 4.291-1.91 4.291-4.266 0 2.355 1.922 4.266 4.29 4.266 2.37 0 4.219-1.958 4.219-4.313 0 0-28.792-4.479-19.743-23.818 1.188-2.404 2.877-3.589 3.914-4.122a4.664 4.664 0 0 0 2.092 1.587c2.43.916 5.115-.383 5.998-2.902a5.003 5.003 0 0 0-.221-3.841 4.756 4.756 0 0 0 2.549-2.793 5.001 5.001 0 0 0 .029-3.23 4.757 4.757 0 0 0 2.674-2.846 4.999 4.999 0 0 0-.32-4.03 4.751 4.751 0 0 0 2.744-2.876c.885-2.522-.367-5.307-2.797-6.223"/><path fill="#fff" d="M50.39 23.07c-.137.563.926 2.335.432 3.743-.672 1.913-3.967 2.427-2.123 3.122 1.846.697 3.885-.289 4.557-2.204a3.783 3.783 0 0 0-.912-3.954c1.379-.078 2.648-.99 3.15-2.421a3.78 3.78 0 0 0-.914-3.955c1.381-.077 2.648-.99 3.152-2.421a3.785 3.785 0 0 0-.996-4.03c1.422-.034 2.744-.953 3.26-2.422.67-1.913-.281-4.03-2.125-4.725-1.846-.697.361 1.893-.311 3.807-.514 1.466-2.568 2.109-2.67 2.645-.254.477.922 2.338.406 3.805-.494 1.408-2.406 2.059-2.648 2.58-.004.009-.01.017-.012.026-.004.009-.006.019-.008.028-.139.561.924 2.334.43 3.742s-2.406 2.057-2.648 2.579c-.004.01-.01.017-.012.026-.004.011-.004.02-.008.028"/><g fill="#428bc1"><path d="M54.946 4.452c-1.4-.124-2.84-.014-4.232.14A34.05 34.05 0 0 0 40.37 7.43c-4.03 1.818-7.674 4.559-10.656 7.902-4.03 4.514-6.77 10.08-8.565 15.903-.559 1.812 2.183 2.582 2.735.782 1.838-5.963 4.74-11.524 9.03-15.881 1.752-1.779 3.365-3.049 5.48-4.355a30.473 30.473 0 0 1 3.522-1.862c.371-.168-.266.114.107-.047.109-.048.223-.095.334-.141.469-.197.945-.379 1.424-.553a32.239 32.239 0 0 1 5.912-1.511c.113-.018.711-.103.215-.035a33.333 33.333 0 0 1 1.691-.184c1.104-.092 2.238-.152 3.344-.055.771.067 1.418-.721 1.418-1.471 0-.852-.646-1.402-1.418-1.47"/><path d="M52.46 11.609c-1.844-.252-3.801-.004-5.615.32-4.291.767-8.275 2.815-11.613 5.688-4.156 3.575-7.01 8.479-9.02 13.617-.291.744.311 1.614.99 1.809.811.232 1.455-.284 1.744-1.026 1.227-3.14 2.842-6.178 4.92-8.797 1.689-2.13 3.563-3.866 5.705-5.27a23.018 23.018 0 0 1 2.941-1.624c.033-.015.418-.186.121-.057.113-.05.229-.097.342-.145a23.1 23.1 0 0 1 2.1-.752 22.748 22.748 0 0 1 3.078-.7c.09-.015.18-.027.268-.041-.432.063-.119.018-.027.006.35-.044.701-.078 1.055-.106.99-.077 2.02-.116 3.01.02.77.105 1.418-.749 1.418-1.472-.001-.88-.651-1.364-1.419-1.47"/><path d="M49.983 17.579c-2.426-.065-4.988.597-7.213 1.541-5.256 2.231-8.986 6.598-10.891 12.11-.26.756.289 1.608.992 1.809.787.226 1.482-.273 1.744-1.026.898-2.604 2.27-4.927 4.162-6.829.838-.845 1.475-1.341 2.443-1.974a17.183 17.183 0 0 1 2.049-1.139c.117-.057.236-.11.355-.164-.283.128.102-.04.133-.053a18.656 18.656 0 0 1 3.523-1.062c.18-.035.361-.067.541-.099.117-.021.711-.105.203-.036.645-.088 1.305-.158 1.957-.141 1.832.048 1.829-2.893.002-2.942"/><path d="M47.714 24.16c-4.371-.045-8.453 3.043-10.301 7.02-.336.722-.197 1.584.508 2.01.627.381 1.605.194 1.941-.528.598-1.285 1.357-2.396 2.387-3.345.387-.359.764-.619 1.266-.928a9.655 9.655 0 0 1 1.028-.545c-.258.12.141-.059.158-.065.746-.304 1.527-.51 2.318-.634.189-.03-.346.039.07-.005a6.339 6.339 0 0 1 .625-.039c1.83.019 1.828-2.922 0-2.941"/></g></svg>