<svg xmlns="http://www.w3.org/2000/svg" viewBox="0 0 64 64"><path fill="#d0d0d0" d="M48.644 15.56L37.295 26.91l-1.829-1.83 11.349-11.349z"/><path fill="#f2b200" d="M36.736 26.26c-4.757-4.756-3.914-9.196-2.326-12.491L2.739 59.989l47.05-32.01c-3.292 1.566-8.471 2.865-13.05-1.715"/><path fill="#ffce31" d="M21.567 11.1c-2.949-2.948-4.271-6.741-3.739-9.829L2.738 59.996l32.15-46.913c-3.13 3.13-9.09 2.242-13.319-1.983"/><path fill="#ff8736" d="M61.6 45.04c-3.088.53-6.882-.792-9.829-3.74-4.225-4.225-5.113-10.188-1.983-13.319l-47.05 32.01 58.86-14.954"/><g fill="#3e4347"><path d="M46.816 13.733l.101.101 1.729 1.729.346.346 6.262-6.262c1.025-1.025 2.979-.735 4.364.65 1.384 1.385 1.675 3.339.649 4.365l-.019.017c-.513.514-.367 1.491.325 2.183.693.692 1.67.838 2.183.324.001-.002.002-.003.005-.004l.013-.014c2.052-2.051 1.47-5.958-1.3-8.728-2.769-2.77-6.677-3.351-8.729-1.3l-6.261 6.262.332.331M.462 62.27c.506.505 1.219.611 1.594.236l3.132-3.131a3.307 3.307 0 0 0-.731-1.098 3.333 3.333 0 0 0-1.1-.732L.225 60.676c-.374.375-.269 1.088.237 1.594M44.42 21.3c-.103.01-.269-.107-.417-.258l-.384-.382 1.151-1.153c-.189.957.111 1.75-.35 1.793"/></g></svg>