<svg xmlns="http://www.w3.org/2000/svg" viewBox="0 0 64 64"><path fill="#f66" d="M62 6.503V2C35.034 2 13.172 23.776 13.172 50.638h4.521C17.692 26.264 37.532 6.503 62 6.503z"/><path fill="#fffb80" d="M17.692 50.638h4.521c0-21.884 17.814-39.631 39.786-39.631V6.503c-24.467 0-44.31 19.761-44.31 44.13"/><path fill="#a3e66f" d="M62 15.51v-4.503c-21.972 0-39.786 17.747-39.786 39.631h4.521c0-19.4 15.79-35.13 35.27-35.13"/><path fill="#66c2ff" d="M26.735 50.638h4.521c0-16.911 13.766-30.624 30.743-30.624V15.51c-19.474 0-35.26 15.728-35.26 35.13"/><path fill="#9180ff" d="M62 24.518v-4.504c-16.978 0-30.743 13.713-30.743 30.624h4.521c-.001-14.426 11.742-26.12 26.22-26.12"/><path fill="#fff" d="M10.137 60.65c-.724 0-1.44-.116-2.129-.344a6.73 6.73 0 0 1-4.651-6.398c0-1.946.848-3.796 2.326-5.078a6.695 6.695 0 0 1 1.24-.856H6.9l.45-1.56c1.123-3.894 4.75-6.613 8.819-6.613.405 0 .821.032 1.311.103.375.054.742.13 1.102.226l.18-.323a9.334 9.334 0 0 1 8.146-4.775c5.135 0 9.312 4.154 9.312 9.261 0 .25-.017.492-.036.736l-.015.182c.396.15.782.332 1.155.547a7.992 7.992 0 0 1 4.02 6.912c0 3.74-2.56 6.938-6.225 7.774a8.032 8.032 0 0 1-1.801.209h-23.19z"/><path fill="#75d6ff" d="M26.907 36.38c4.394 0 7.955 3.544 7.955 7.912 0 .213-.015.42-.032.627a8.342 8.342 0 0 0-4.821 2 6.655 6.655 0 0 1 4.619-.754 6.68 6.68 0 0 1 2.02.757c1.999 1.146 3.347 3.286 3.347 5.745 0 3.149-2.209 5.784-5.17 6.461-.482.11-.982.174-1.498.174h-23.19a5.454 5.454 0 0 1-1.7-.274c-2.162-.711-3.723-2.733-3.723-5.119 0-1.623.722-3.074 1.861-4.062a5.467 5.467 0 0 1 3.562-1.335c1.749 0 3.299.826 4.292 2.105h.048a7.433 7.433 0 0 0-5.823-3.833 7.818 7.818 0 0 1 7.514-5.635c.382 0 .752.036 1.118.089a7.835 7.835 0 0 1 2.063.588 7.797 7.797 0 0 1 4.555 5.984v-.046c0-3.052-1.573-5.738-3.957-7.305a7.967 7.967 0 0 1 6.96-4.08m0-2.696c-3.658 0-7.05 1.869-9 4.92-.075-.011-.151-.022-.227-.035a10.692 10.692 0 0 0-1.507-.114c-4.671 0-8.834 3.12-10.123 7.589l-.307 1.063a8.077 8.077 0 0 0-.952.712 8.064 8.064 0 0 0-2.787 6.091 8.078 8.078 0 0 0 5.585 7.679 8.092 8.092 0 0 0 2.552.411h23.19c.7 0 1.41-.081 2.112-.244 4.278-.977 7.271-4.715 7.271-9.09 0-3.321-1.804-6.418-4.706-8.08a9.64 9.64 0 0 0-.425-.229v-.066c.001-5.851-4.784-10.609-10.667-10.609z"/></svg>