<svg xmlns="http://www.w3.org/2000/svg" viewBox="0 0 64 64"><path fill="#42ade2" d="M0 0h64v64H0z"/><path fill="#3e4347" d="M48 45.738h16V64H44V49.738c0-2.201 1.8-4 4-4"/><g fill="#d0d0d0"><path d="M60.8 49h.4c.439 0 .8.436.8.967v14.03h-2v-14.03c0-.531.36-.967.8-.967M55.8 49h.4c.439 0 .8.436.8.967v14.03h-2v-14.03c0-.531.36-.967.8-.967"/></g><g fill="#3e4347"><path d="M51.31 42.994h11.02v2.864H51.31zM0 43.11h13.14v-5.222l-13.14 3z"/></g><path fill="#ffdd7d" d="M57.716 1.623s.523 6.943-3.33 11.08c-3.857 4.136-10.636 3.895-10.636 3.895 4.183 3.604 10.698 3.174 14.554-.96 3.86-4.136 3.593-10.408-.588-14.01"/><path fill="#6adbc6" d="M10.556 14.334L8.89 11l-1.668 3.334L3.89 16l3.332 1.666L8.89 21l1.666-3.334L13.89 16z"/><path fill="#fff" d="M11.39 16.003l-2.5 2.5-2.501-2.5 2.5-2.5z"/><path fill="#6adbc6" d="M34.25 8.666l-1.667-3.334-1.668 3.334-3.332 1.666 3.332 1.666 1.668 3.334 1.667-3.334 3.333-1.666z"/><path fill="#fff" d="M35.084 10.332l-2.5 2.5-2.5-2.5 2.5-2.5z"/><path fill="#6adbc6" d="M56.666 25.751L55 22.417l-1.67 3.334L50 27.417l3.33 1.663L55 32.417l1.666-3.337L60 27.417z"/><path fill="#fff" d="M57.505 27.416l-2.5 2.5-2.501-2.5 2.5-2.5z"/><path fill="#3e4347" d="M0 43h13v21H0z"/><g fill="#ed4c5c"><path d="M9.5 51c0 .549-.45 1-1 1h-3c-.55 0-1-.451-1-1v-2c0-.551.45-1 1-1h3c.55 0 1 .449 1 1v2M9.5 59c0 .549-.45 1-1 1h-3c-.55 0-1-.451-1-1v-2c0-.551.45-1 1-1h3c.55 0 1 .449 1 1v2"/></g><path fill="#121314" d="M23 19L13 30.32V64h20V30.32z"/><g fill="#ffdd7d"><path d="M30 43c0 .549-.45 1-1 1H17c-.55 0-1-.451-1-1v-2c0-.551.45-1 1-1h12c.55 0 1 .449 1 1v2M30 59c0 .549-.45 1-1 1H17c-.55 0-1-.451-1-1v-2c0-.551.45-1 1-1h12c.55 0 1 .449 1 1v2M30 35c0 .549-.45 1-1 1H17c-.55 0-1-.451-1-1v-2c0-.551.45-1 1-1h12c.55 0 1 .449 1 1v2"/></g><path fill="#121314" d="M50 38v-4l-6-2V21h-2v11l-6 2v4h-3v26h20V38z"/><g fill="#6adbc6"><path d="M41.5 45c0 .549-.45 1-1 1h-3c-.55 0-1-.451-1-1v-2c0-.551.45-1 1-1h3c.55 0 1 .449 1 1v2M49.5 53c0 .549-.45 1-1 1h-3c-.55 0-1-.451-1-1v-2c0-.551.45-1 1-1h3c.55 0 1 .449 1 1v2M41.5 61c0 .549-.45 1-1 1h-3c-.55 0-1-.451-1-1v-2c0-.551.45-1 1-1h3c.55 0 1 .449 1 1v2M49.5 61c0 .549-.45 1-1 1h-3c-.55 0-1-.451-1-1v-2c0-.551.45-1 1-1h3c.55 0 1 .449 1 1v2"/></g><path fill="#ffdd7d" d="M30 51c0 .549-.45 1-1 1H17c-.55 0-1-.451-1-1v-2c0-.551.45-1 1-1h12c.55 0 1 .449 1 1v2"/></svg>