<svg xmlns="http://www.w3.org/2000/svg" viewBox="0 0 64 64"><path fill="#fbbf67" d="M0 0h64v64H0z"/><path opacity=".7" fill="#f15744" d="M0 0h64v64H0z"/><path fill="#62727a" d="M48 45.738h16V64H44V49.738c0-2.201 1.8-4 4-4"/><g fill="#d0d0d0"><path d="M60.8 49h.4c.439 0 .8.436.8.967v14.03h-2v-14.03c0-.531.36-.967.8-.967M55.8 49h.4c.439 0 .8.436.8.967v14.03h-2v-14.03c0-.531.36-.967.8-.967"/></g><g fill="#62727a"><path d="M51.31 42.994h11.02v2.864H51.31zM0 43.11h13.14v-5.222l-13.14 3z"/><path d="M0 43h13v21H0z"/></g><g fill="#ed4c5c"><path d="M9.5 51c0 .549-.45 1-1 1h-3c-.55 0-1-.451-1-1v-2c0-.551.45-1 1-1h3c.55 0 1 .449 1 1v2M9.5 59c0 .549-.45 1-1 1h-3c-.55 0-1-.451-1-1v-2c0-.551.45-1 1-1h3c.55 0 1 .449 1 1v2"/></g><path fill="#3e4347" d="M50 38v-4l-6-2V21h-2v11l-6 2v4h-3v-7.68L23 19 13 30.32V64h40V38z"/><g fill="#6adbc6"><path d="M41.5 45c0 .549-.45 1-1 1h-3c-.55 0-1-.451-1-1v-2c0-.551.45-1 1-1h3c.55 0 1 .449 1 1v2M49.5 53c0 .549-.45 1-1 1h-3c-.55 0-1-.451-1-1v-2c0-.551.45-1 1-1h3c.55 0 1 .449 1 1v2M41.5 61c0 .549-.45 1-1 1h-3c-.55 0-1-.451-1-1v-2c0-.551.45-1 1-1h3c.55 0 1 .449 1 1v2M49.5 61c0 .549-.45 1-1 1h-3c-.55 0-1-.451-1-1v-2c0-.551.45-1 1-1h3c.55 0 1 .449 1 1v2"/></g><g fill="#ffdd7d"><path d="M30 43c0 .549-.45 1-1 1H17c-.55 0-1-.451-1-1v-2c0-.551.45-1 1-1h12c.55 0 1 .449 1 1v2M30 59c0 .549-.45 1-1 1H17c-.55 0-1-.451-1-1v-2c0-.551.45-1 1-1h12c.55 0 1 .449 1 1v2M30 35c0 .549-.45 1-1 1H17c-.55 0-1-.451-1-1v-2c0-.551.45-1 1-1h12c.55 0 1 .449 1 1v2M30 51c0 .549-.45 1-1 1H17c-.55 0-1-.451-1-1v-2c0-.551.45-1 1-1h12c.55 0 1 .449 1 1v2"/></g></svg>