<svg xmlns="http://www.w3.org/2000/svg" viewBox="0 0 64 64"><path fill="#3f3261" d="M0 0h64v46H0z"/><path fill="#42ade2" d="M0 46h64v10.02H0z"/><path fill="#296d8f" d="M0 34h64v1.016H0z"/><path fill="#3283ab" d="M0 37h64v2H0z"/><path fill="#3b9ac9" d="M0 40.982h64v3.02H0z"/><path fill="#3e4347" d="M0 55s5.775-3.779 8-4c2.836-.281 8.164 3.281 11 3 2.225-.221 5.789-3.668 8-4 1.504-.227 4.514 1.319 6 1 1.763-.378 4.197-3.974 6-4 2.358-.035 5.643 4.939 8 5 2.573.066 6.472-4.516 9-5 1.98-.379 8 1.036 8 1.036V64H0v-9"/><g fill="#fff"><path d="M6.997 23.5l1.5-1.5 1.5 1.5-1.5 1.5zM12 18.5l1.5-1.5 1.5 1.5-1.5 1.5zM18 21.504l1.5-1.5 1.5 1.5-1.5 1.5zM20 13.511l1.5-1.5 1.5 1.5-1.5 1.5zM23.999 18.5l1.5-1.5 1.5 1.5-1.5 1.5zM27.999 12.5l1.5-1.5 1.5 1.5-1.5 1.5zM29.999 20.502l1.5-1.5 1.5 1.5-1.5 1.5zM35 12.5l1.5-1.5 1.499 1.5-1.5 1.5zM41 9.5L42.5 8l1.499 1.5-1.5 1.5zM42 14.503l1.5-1.5 1.5 1.5-1.5 1.5zM48 14.5l1.5-1.499 1.5 1.5-1.5 1.5zM49 7.5L50.5 6 52 7.5 50.5 9zM57 3.499l1.5-1.5 1.499 1.5-1.5 1.5z"/></g><g fill="#d9d9ff"><path d="M36.5 17.5l1-1 1 1-1 1zM45.583 11.31l1-1 1 1-1 1zM60.246 7.75l1-1 1 1-1 1zM25.746 26.75l1-1 1 1-1 1zM2.748 23.748l1-1 1 1-1 1zM4 15.505l1-1 1 1-1 1zM18.746 5.75l1-1 1 1-1 1zM48.25 21.251l1-1 1 1-1 1z"/></g><g fill="#efe8ff"><path d="M45.25 6.25l1-1 1 1-1 1zM54.295 7.815l1-1 1 1-1 1zM55.296 12.244l1-1 1 1-1 1zM36.748 8.006l1-1 1 1-1 1zM30.997 15.505l1-1 1 1-1 1zM17.747 17.11l1-1 1 1-1 1zM13.747 27.252l1-1 1 1-1 1zM7.5 18.108l1-1 1 1-1 1zM3.25 28.25l1-1 1 1-1 1zM6.746 6.75l1-1 1 1-1 1zM44.998 29l1-1 1 1-1 1zM58.5 22.797l1-1 1 1-1 1zM30.5 2.504l1-1 1 1-1 1z"/></g><g fill="#ffb8f0"><path d="M54.295 16.502l.5-.5.5.5-.5.5zM18.752 25.502l.5-.5.5.5-.5.5zM14.25 8.75l.5-.5.5.5-.5.5zM2.25 2l.499-.5.5.5-.5.5zM50.252 1.998l.5-.5.5.5-.5.5zM31.499 25.247l.5-.5.5.5-.5.5zM3.752 19.503l.5-.5.5.5-.5.5zM43.707 19.25l.5-.5.5.5-.5.5z"/></g><g fill="#d9adff"><path d="M54.792 27.754l.5-.5.5.5-.5.5zM60.502 17.102l.5-.5.5.5-.5.5zM35.004 28.5l.5-.5.5.5-.5.5zM33.002 10.338l.5-.5.5.5-.5.5zM25.002 13.996l.5-.5.5.5-.5.5zM26.257 22.503l.5-.5.5.5-.5.5zM13.5 22.75l.5-.5.5.5-.5.5zM10.567 14.504l.5-.5.5.5-.5.5zM2.25 9.84l.5-.5.5.5-.5.5zM14.5 2l.499-.5.5.5-.5.5zM9.499 30.166l.5-.5.5.5-.5.5zM52.002 10.993l.5-.5.5.5-.5.5zM53.624 5.25l.5-.5.5.5-.5.5z"/></g><g fill="#906eed"><path d="M39.252 23.796l.5-.5.5.5-.5.5zM61.749 28.249l.5-.5.5.5-.5.5zM28.707 17.833l.5-.5.5.5-.5.5zM15.75 12.498l.5-.5.5.5-.5.5zM26.5 6.5L27 6l.5.5-.5.5zM40.998 1.497l.5-.5.5.5-.5.5zM22.249 30l.5-.5.5.5-.5.5zM.794 26.25l.5-.5.5.5-.5.5zM55.002 20.252l.5-.5.5.5-.5.5zM59.502 11.248l.5-.5.5.5-.5.5zM61.75 2.668l.5-.5.499.5-.5.5zM39.252 14.167l.5-.5.5.5-.5.5z"/></g></svg>