<svg xmlns="http://www.w3.org/2000/svg" viewBox="0 0 64 64"><path fill="#42ade2" d="M0 0h64v64H0z"/><path fill="#428bc1" d="M0 52h64v12H0z"/><path fill="#3e4347" d="M64 28.891v-2c-4.842-.541-9.09-3.02-12-6.635V10.004h-6v10.264c-3.303 4.095-8.342 6.736-14 6.736-5.66 0-10.699-2.641-14-6.736V10.004h-6v10.252c-2.908 3.611-7.158 6.094-12 6.635v2a19.841 19.841 0 0 0 5-1.174V34H0v6h9l1.199 6H12v6h6v-6h1.801L21 40h22l1.199 6H46v6h6v-6h1.801L55 40h9v-6h-5v-6.283a19.8 19.8 0 0 0 5 1.174m-18-5.645V28a5.996 5.996 0 0 1-5 5.91v-7.07a20.081 20.081 0 0 0 5-3.598M23 26.84v7.07A5.997 5.997 0 0 1 18 28v-4.754a20.008 20.008 0 0 0 5 3.598m-11-3.592V28a5.996 5.996 0 0 1-5 5.91v-7.07a20.11 20.11 0 0 0 5-3.588M25 34v-6.275a19.86 19.86 0 0 0 6 1.244v5.03h-6m8 0v-5.03a19.86 19.86 0 0 0 6-1.244V34h-6m24-.09A5.997 5.997 0 0 1 52 28v-4.748a20.11 20.11 0 0 0 5 3.588v7.07"/><circle fill="#fff" cx="32" cy="12" r="8"/><g fill="#d0d0d0"><circle cx="35" cy="9" r="2"/><circle cx="29" cy="15" r="2"/><circle cx="29" cy="9" r="1"/><circle cx="35" cy="15" r="1"/></g><g fill="#fff"><path d="M40 53c0 .551-.451 1-1 1H25c-.551 0-1-.449-1-1 0-.549.449-1 1-1h14c.549 0 1 .451 1 1M38 57c0 .551-.451 1-1 1H27c-.551 0-1-.449-1-1 0-.549.449-1 1-1h10c.549 0 1 .451 1 1M36 61c0-.549-.451-1-1-1h-6c-.551 0-1 .451-1 1 0 .551.449 1 1 1h6c.549 0 1-.449 1-1M2.666 4.998l1-.999 1.001 1.002-1 1zM6.09 14.635l1-.999 1.001 1.003-1 .999zM19.482 4.53l1.001-1 1 1.003-1 .999zM38.997 19.615l1-1 1.001 1.003-1 .999zM57.157 4.533l1-1 1.001 1.003-1 .999zM59.575 44.425l1-.999 1 1.003-1 .998zM35.992 47.997l1-1 1 1.003-1 .999zM26.999 44.429l1-1L29 44.433l-1 .999zM5.09 47.614l1-1 1.001 1.003-1 .999zM53.658 12.999l1.001-1 1 1.003-1 .999zM59.156 17.614l1.001-.999 1 1.002-1 1z"/></g></svg>