<svg xmlns="http://www.w3.org/2000/svg" viewBox="0 0 64 64"><path fill="#ffe8a6" d="M49 32c0-16.568-7.611-30-17-30C15.432 2 2 15.432 2 32s13.432 30 30 30c9.389 0 17-13.432 17-30"/><path fill="#3e4347" d="M32 2c9.389 0 17 13.432 17 30s-7.611 30-17 30c16.568 0 30-13.432 30-30S48.568 2 32 2z"/><g fill="#f4dc9f"><path d="M48.87 28.348c-3.328.54-5.871 3.42-5.871 6.901a6.996 6.996 0 0 0 5.04 6.715c.622-3.118.964-6.47.964-9.964 0-1.237-.048-2.455-.13-3.652M24.16 41.05c-.133 0-.262.014-.393.02a5.953 5.953 0 0 0 .355-2.02 6 6 0 0 0-12 0 5.998 5.998 0 0 0 4.666 5.845 8.953 8.953 0 0 0-1.629 5.154 9 9 0 1 0 9.001-9M23.999 21.248a4 4 0 0 0 4-4c0-.645-.168-1.245-.438-1.785a4.92 4.92 0 0 0 1.598.285 5 5 0 0 0 0-9.998c-2.764 0-5 2.238-5 5 0 .961.285 1.851.756 2.613a3.992 3.992 0 0 0-.914-.115 4 4 0 0 0 0 8"/><circle cx="36.999" cy="18.248" r="4"/><circle cx="12.12" cy="25.923" r="4"/><circle cx="38.999" cy="9.248" r="2"/><circle cx="8.12" cy="39.05" r="2"/><circle cx="24.999" cy="29.923" r="3"/><circle cx="14.999" cy="15.748" r="2"/><path d="M41.999 52.623c0 .93.33 1.773.862 2.453 1.263-1.853 2.37-4.02 3.284-6.438-.049-.002-.096-.015-.145-.015a4 4 0 0 0-4 4"/></g><g fill="#464d51"><path d="M56.999 35.25a7 7 0 0 0-7-7 6.88 6.88 0 0 0-1.129.1c.082 1.197.13 2.415.13 3.652 0 3.494-.342 6.846-.964 9.964.623.182 1.28.284 1.963.284a7 7 0 0 0 7-6.999"/><circle cx="51.999" cy="50.05" r="2"/><path d="M46 56.623a3.998 3.998 0 0 0 3.998-4 3.991 3.991 0 0 0-3.854-3.985c-.914 2.417-2.02 4.586-3.284 6.438A3.98 3.98 0 0 0 46 56.623"/></g></svg>