<svg xmlns="http://www.w3.org/2000/svg" viewBox="0 0 64 64"><path fill="#3e4347" d="M49 32c0-16.568-7.611-30-17-30C15.432 2 2 15.432 2 32s13.432 30 30 30c9.389 0 17-13.432 17-30"/><path fill="#ffe8a6" d="M32 2c9.389 0 17 13.432 17 30s-7.611 30-17 30c16.568 0 30-13.432 30-30S48.568 2 32 2z"/><g fill="#464d51"><path d="M48.869 28.348a6.994 6.994 0 0 0-5.87 6.901 6.996 6.996 0 0 0 5.04 6.715A50.99 50.99 0 0 0 49.004 32c0-1.237-.048-2.455-.131-3.652M24.16 41.05c-.133 0-.261.014-.393.02a5.954 5.954 0 0 0 .356-2.02 6 6 0 0 0-11.999 0 5.998 5.998 0 0 0 4.665 5.845 8.952 8.952 0 0 0-1.628 5.154 9 9 0 1 0 8.999-9M23.999 21.248a3.999 3.999 0 0 0 3.999-4 3.96 3.96 0 0 0-.438-1.785 4.92 4.92 0 0 0 1.598.285 5 5 0 0 0 0-9.998c-2.764 0-5 2.238-5 5 0 .961.284 1.851.756 2.613a4 4 0 0 0-.914-.115 4 4 0 0 0 0 8"/><circle cx="36.999" cy="18.248" r="4"/><circle cx="12.12" cy="25.923" r="4"/><circle cx="38.998" cy="9.248" r="2"/><circle cx="8.12" cy="39.05" r="2"/><circle cx="24.998" cy="29.923" r="3"/><circle cx="14.998" cy="15.748" r="2"/><path d="M41.999 52.623c0 .93.33 1.773.862 2.453 1.262-1.853 2.369-4.02 3.284-6.438-.05-.002-.096-.015-.146-.015a4 4 0 0 0-4 4"/></g><g fill="#f4dc9f"><path d="M56.999 35.25a7 7 0 0 0-7-7c-.385 0-.76.039-1.129.1.083 1.197.131 2.415.131 3.652a50.99 50.99 0 0 1-.965 9.964 6.988 6.988 0 0 0 1.963.284 7 7 0 0 0 7-6.999"/><circle cx="51.999" cy="50.05" r="2"/><path d="M46 56.623a3.999 3.999 0 0 0 3.999-4 3.992 3.992 0 0 0-3.854-3.985c-.915 2.417-2.02 4.586-3.284 6.438A3.978 3.978 0 0 0 46 56.623"/></g></svg>