<svg xmlns="http://www.w3.org/2000/svg" viewBox="0 0 64 64"><path fill="#ffe8a6" d="M34 32c0-16.568-.895-30-2-30C15.432 2 2 15.432 2 32s13.431 30 30 30c1.105 0 2-13.432 2-30"/><path fill="#3e4347" d="M32 2c1.105 0 2 13.432 2 30s-.895 30-2 30c16.568 0 30-13.432 30-30S48.568 2 32 2z"/><g fill="#f4dc9f"><path d="M24.16 41.05c-.132 0-.261.014-.392.02.226-.632.355-1.31.355-2.02a6 6 0 0 0-12 0 5.998 5.998 0 0 0 4.665 5.846 8.96 8.96 0 0 0-1.628 5.154c0 4.969 4.03 9 8.999 9s9-4.03 9-9c.001-4.971-4.03-9-9-9M24 21.248a4 4 0 0 0 3.999-4 3.96 3.96 0 0 0-.438-1.785 4.92 4.92 0 0 0 1.598.285c1.91 0 3.552-1.085 4.394-2.659a145.974 145.974 0 0 0-.37-5.285c-.911-1.241-2.368-2.056-4.02-2.056-2.764 0-5 2.238-5 5 0 .961.285 1.851.756 2.613a3.992 3.992 0 0 0-.914-.115 4 4 0 0 0 0 8M33.854 20.691c-.045-1.643-.1-3.21-.162-4.691A3.982 3.982 0 0 0 33 18.248a3.95 3.95 0 0 0 .854 2.443"/><circle cx="12.12" cy="25.922" r="4"/><circle cx="8.121" cy="39.05" r="2"/><circle cx="24.999" cy="29.922" r="3"/><circle cx="14.999" cy="15.748" r="2"/></g><g fill="#464d51"><circle cx="49.999" cy="35.25" r="7"/><path d="M37 14.248A4 4 0 0 0 33.691 16c.063 1.481.117 3.049.162 4.691a3.979 3.979 0 0 0 3.146 1.557 4 4 0 0 0 3.999-4c0-2.209-1.789-4-3.998-4"/><circle cx="38.999" cy="9.248" r="2"/><circle cx="52" cy="50.05" r="2"/><circle cx="46" cy="52.623" r="4"/><path d="M33.18 7.804c.138 1.519.263 3.296.37 5.285a4.935 4.935 0 0 0 .607-2.339 4.96 4.96 0 0 0-.977-2.946"/></g></svg>