<svg xmlns="http://www.w3.org/2000/svg" viewBox="0 0 64 64"><path fill="#ffe8a6" d="M32.001 2c-1.104 0-2 13.432-2 30s.896 30 2 30C48.568 62 62 48.568 62 32S48.568 2 32.001 2z"/><path fill="#3e4347" d="M30 32c0-16.568.896-30 2-30C15.432 2 2 15.432 2 32s13.432 30 30 30c-1.105 0-2-13.432-2-30"/><g fill="#f4dc9f"><circle cx="50" cy="35.25" r="7"/><path d="M30.15 43.34c.14 5.105.369 9.508.66 12.751a8.96 8.96 0 0 0 2.349-6.05c0-2.667-1.166-5.05-3.01-6.703"/><circle cx="37" cy="18.248" r="4"/><circle cx="39" cy="9.248" r="2"/><circle cx="52" cy="50.05" r="2"/><circle cx="46" cy="52.623" r="4"/><path d="M34.16 10.75a4.995 4.995 0 0 0-3.168-4.645c-.268 2.353-.496 5.608-.666 9.491 2.196-.527 3.834-2.492 3.834-4.846"/></g><g fill="#464d51"><path d="M24.16 41.05c-.133 0-.262.015-.393.02a5.949 5.949 0 0 0 .355-2.02 6 6 0 0 0-12 0 5.996 5.996 0 0 0 4.666 5.844 8.953 8.953 0 0 0-1.629 5.154 9 9 0 0 0 9 9c2.639 0 5-1.143 6.651-2.952-.291-3.243-.521-7.646-.66-12.751a8.95 8.95 0 0 0-5.99-2.297M24 21.248c2.209 0 4-1.789 4-4 0-.645-.168-1.245-.438-1.784a4.958 4.958 0 0 0 1.599.284 4.98 4.98 0 0 0 1.166-.151c.17-3.883.398-7.139.666-9.491a4.969 4.969 0 0 0-1.832-.357c-2.764 0-5 2.238-5 5 0 .961.285 1.851.756 2.612a4.048 4.048 0 0 0-.914-.114 4 4 0 0 0-.001 7.999"/><circle cx="12.12" cy="25.924" r="4"/><circle cx="8.121" cy="39.05" r="2"/><circle cx="25" cy="29.924" r="3"/><circle cx="15" cy="15.748" r="2"/></g></svg>