<svg xmlns="http://www.w3.org/2000/svg" viewBox="0 0 64 64"><g fill="#ffe62e"><path d="M20.519 59.717l7.03-7.2a20.87 20.87 0 0 1-6.904-2.87l-.123 10.07M43.482 4.284l-7.03 7.199a20.872 20.872 0 0 1 6.904 2.871l.123-10.07M4.283 43.479l10.07-.122a20.85 20.85 0 0 1-2.869-6.903l-7.201 7.02M59.717 20.52l-10.07.123a20.88 20.88 0 0 1 2.871 6.904l7.199-7.03M4.284 20.519l7.2 7.03a20.87 20.87 0 0 1 2.87-6.904l-10.07-.123M59.717 43.48l-7.201-7.03a20.835 20.835 0 0 1-2.869 6.904l10.07.122M20.52 4.283l.122 10.07a20.858 20.858 0 0 1 6.904-2.87l-7.03-7.2M43.48 59.716l-.121-10.07a20.888 20.888 0 0 1-6.904 2.87l7.02 7.199"/></g><g fill="#ffce31"><path d="M14.751 43.962l-3.965 9.251 9.252-3.965a21.145 21.145 0 0 1-5.287-5.286M49.25 20.04l3.965-9.252-9.252 3.965a21.149 21.149 0 0 1 5.287 5.287M11.351 28.26L2 32l9.352 3.74c-.22-1.215-.352-2.461-.352-3.739s.132-2.524.351-3.741M52.648 35.741L62 32l-9.352-3.741C52.867 29.476 53 30.722 53 32c0 1.279-.133 2.525-.352 3.741M20.04 14.751l-9.252-3.965 3.965 9.252a21.116 21.116 0 0 1 5.287-5.287M43.963 49.25l9.25 3.965-3.965-9.251a21.087 21.087 0 0 1-5.285 5.286M35.742 11.352L32 2l-3.741 9.352A21.065 21.065 0 0 1 32 11c1.279 0 2.525.133 3.742.352M28.26 52.648L32.001 62l3.742-9.352a21.077 21.077 0 0 1-3.742.352c-1.279 0-2.524-.133-3.741-.352"/><circle cx="32" cy="32" r="19"/></g><g fill="#664e27"><path d="M22.21 37.839a17.314 17.314 0 0 0 4.875 1.949c1.627.391 3.268.557 4.913.561 1.647-.007 3.288-.174 4.911-.564a17.496 17.496 0 0 0 4.879-1.945c-.707 1.812-2.277 3.235-4.03 4.147-1.77.919-3.775 1.361-5.76 1.359-1.986-.002-3.99-.444-5.757-1.364-1.752-.911-3.323-2.334-4.03-4.143"/><circle cx="24.717" cy="28.575" r="2.85"/><circle cx="39.28" cy="28.575" r="2.85"/></g></svg>