<svg xmlns="http://www.w3.org/2000/svg" viewBox="0 0 64 64"><path fill="#42ade2" d="M32 2C15.458 2 2 15.459 2 32c0 16.543 13.458 30 30 30s30-13.457 30-30C62 15.459 48.542 2 32 2m20.05 46.2a30.085 30.085 0 0 0-3.793-2.923 29.965 29.965 0 0 0 3.01-10.859h6.409A25.67 25.67 0 0 1 52.048 48.2M6.326 34.418h6.297a30.09 30.09 0 0 0 3.039 10.914 30.23 30.23 0 0 0-3.708 2.868 25.67 25.67 0 0 1-5.628-13.782m5.627-18.625a29.632 29.632 0 0 0 3.709 2.867 30.02 30.02 0 0 0-3.084 11.547H6.274a25.67 25.67 0 0 1 5.679-14.414m17.943-6.238v9.648a25.478 25.478 0 0 1-8.368-2.125 25.84 25.84 0 0 1 8.368-7.523m0 13.869v6.783h-13.1a25.59 25.59 0 0 1 2.558-9.488 29.666 29.666 0 0 0 10.541 2.705m0 10.994v6.15a29.656 29.656 0 0 0-10.574 2.723 25.705 25.705 0 0 1-2.473-8.873h13.05m0 10.373v9.668a25.511 25.511 0 0 1-8.413-7.523 25.433 25.433 0 0 1 8.413-2.145m4.21 9.58v-9.58c2.894.23 5.681.938 8.277 2.084a25.875 25.875 0 0 1-8.277 7.496m0-13.803v-6.15h12.934a25.606 25.606 0 0 1-2.488 8.812 29.692 29.692 0 0 0-10.446-2.662m0-10.361v-6.783a29.66 29.66 0 0 0 10.45-2.662 25.6 25.6 0 0 1 2.536 9.445H34.108m0-11V9.623a25.859 25.859 0 0 1 8.282 7.496 25.45 25.45 0 0 1-8.282 2.088m10.427-6.241a30.06 30.06 0 0 0-6.918-6.138 25.734 25.734 0 0 1 11.524 5.92 25.453 25.453 0 0 1-3.02 2.333 28.688 28.688 0 0 0-1.59-2.115m-25.18.001a29.536 29.536 0 0 0-1.556 2.063 25.63 25.63 0 0 1-2.938-2.281 25.719 25.719 0 0 1 11.355-5.883 29.98 29.98 0 0 0-6.861 6.101m-1.554 36c.408.594.838 1.174 1.29 1.738a30.033 30.033 0 0 0 7.13 6.428 25.73 25.73 0 0 1-11.359-5.884 25.6 25.6 0 0 1 2.939-2.282m26.772 2.01a29.483 29.483 0 0 0 1.551-2.064 26.205 26.205 0 0 1 3.02 2.333 25.75 25.75 0 0 1-11.524 5.92 30.036 30.036 0 0 0 6.958-6.189m6.738-20.773a29.976 29.976 0 0 0-3.057-11.492 29.983 29.983 0 0 0 3.793-2.922 25.667 25.667 0 0 1 5.68 14.414h-6.416"/></svg>