<svg xmlns="http://www.w3.org/2000/svg" viewBox="0 0 64 64"><g fill="#ffce31"><path d="M10.777 23.918L7.208 32.04l8.327-3.48a18.768 18.768 0 0 1-4.758-4.642M29.22 15.205l3.568-8.124-8.325 3.481a18.8 18.8 0 0 1 4.757 4.643M10.417 16.276L2 19.56l8.417 3.284a18.024 18.024 0 0 1-.316-3.282 17.988 17.988 0 0 1 .316-3.286M29.583 22.846L38 19.562l-8.417-3.285c.197 1.068.316 2.162.316 3.285s-.119 2.216-.316 3.284M15.535 10.562l-8.327-3.48 3.568 8.123a18.808 18.808 0 0 1 4.759-4.643M24.466 29.438l8.326 3.481-3.568-8.123a18.8 18.8 0 0 1-4.758 4.642M23.367 10.211L20.001 2l-3.367 8.211A19.534 19.534 0 0 1 20 9.902c1.151 0 2.272.118 3.367.309M16.634 29.789L20.001 38l3.366-8.211a19.546 19.546 0 0 1-3.367.309c-1.15 0-2.272-.118-3.366-.309"/></g><path fill="#fff" d="M23.995 33.471a7.92 7.92 0 0 1-2.484-.401 7.853 7.853 0 0 1-5.428-7.467c0-2.27.99-4.428 2.715-5.925.445-.388.93-.723 1.445-1l-.025-.001.525-1.819c1.309-4.545 5.543-7.717 10.291-7.717.473 0 .959.037 1.529.119.436.062.865.151 1.285.263l.21-.377a10.894 10.894 0 0 1 9.507-5.572c5.991 0 10.865 4.848 10.865 10.807 0 .291-.019.575-.041.859l-.018.212c.462.175.912.387 1.348.639 2.896 1.66 4.696 4.751 4.696 8.06 0 4.366-2.987 8.096-7.263 9.07a9.383 9.383 0 0 1-2.102.244H23.99"/><path fill="#b6c1d1" d="M43.565 5.147c5.126 0 9.281 4.134 9.281 9.232 0 .248-.017.489-.035.732a9.72 9.72 0 0 0-5.629 2.336 7.776 7.776 0 0 1 5.392-.881c.842.167 1.633.47 2.352.884 2.333 1.338 3.906 3.835 3.906 6.703 0 3.675-2.578 6.75-6.03 7.538a7.634 7.634 0 0 1-1.747.205H24.003a6.263 6.263 0 0 1-1.984-.322c-2.521-.827-4.344-3.188-4.344-5.973 0-1.894.843-3.587 2.171-4.739a6.305 6.305 0 0 1 2.073-1.2 6.36 6.36 0 0 1 2.084-.357c2.041 0 3.851.966 5.01 2.457l.057-.001a8.678 8.678 0 0 0-6.797-4.473 9.127 9.127 0 0 1 8.77-6.576c.445 0 .879.043 1.305.104a9.157 9.157 0 0 1 2.407.686 9.092 9.092 0 0 1 5.314 6.984l.002-.054c0-3.563-1.837-6.696-4.618-8.524a9.285 9.285 0 0 1 8.12-4.761m0-3.147c-4.27 0-8.23 2.183-10.508 5.742-.088-.014-.177-.026-.266-.041a12.317 12.317 0 0 0-1.758-.134c-5.451 0-10.309 3.641-11.813 8.854l-.358 1.242a9.363 9.363 0 0 0-1.11.832 9.408 9.408 0 0 0-3.253 7.106c0 4.08 2.62 7.682 6.518 8.962a9.473 9.473 0 0 0 2.978.479h27.05c.817 0 1.646-.095 2.466-.285 4.993-1.14 8.483-5.501 8.483-10.604 0-3.875-2.104-7.488-5.489-9.43a10.772 10.772 0 0 0-.496-.267v-.078C56.017 7.555 50.432 2 43.568 2z"/><g fill="#42ade2"><path d="M28.765 46.03c-.572 1.569-.086 3.189 1.086 3.616s2.586-.502 3.156-2.071c.674-1.85.719-4.382.262-7.316-2.202 1.924-3.832 3.922-4.504 5.771M41.862 47.575c.672-1.85.719-4.382.262-7.316-2.203 1.924-3.832 3.922-4.506 5.771-.57 1.569-.086 3.189 1.086 3.616s2.586-.501 3.158-2.071M50.978 40.26c-2.202 1.924-3.832 3.922-4.505 5.771-.571 1.569-.086 3.189 1.086 3.616s2.586-.502 3.157-2.071c.673-1.849.719-4.382.262-7.316M19.91 46.03c-.571 1.569-.086 3.189 1.086 3.616s2.586-.502 3.157-2.071c.673-1.85.719-4.382.262-7.316-2.202 1.924-3.832 3.922-4.505 5.771M21.814 58.28c-.571 1.569-.086 3.189 1.086 3.616s2.586-.502 3.157-2.071c.673-1.85.719-4.382.262-7.316-2.202 1.924-3.832 3.922-4.505 5.771M34.912 59.825c.673-1.85.719-4.382.262-7.316-2.202 1.924-3.832 3.922-4.505 5.771-.571 1.569-.086 3.189 1.086 3.616s2.586-.501 3.157-2.071M44.03 52.51c-2.203 1.924-3.832 3.922-4.506 5.771-.57 1.569-.086 3.189 1.086 3.616s2.586-.502 3.158-2.071c.672-1.849.719-4.382.262-7.316M12.96 58.28c-.571 1.569-.086 3.189 1.086 3.616s2.586-.502 3.157-2.071c.673-1.85.719-4.382.262-7.316-2.202 1.924-3.832 3.922-4.505 5.771"/></g></svg>