<svg xmlns="http://www.w3.org/2000/svg" viewBox="0 0 64 64"><path fill="#c8d2da" d="M21.979 55.293L.04 40.464V64c2.278-6.271 21.939-8.707 21.939-8.707z"/><path fill="#e4eef7" d="M17.346 54.33C8.191 49.437 6.518 38.931 6.518 38.931s-1.419-5.62 6.01-15.609c4.088-5.498 16.444-9.635 18.1-5.48 3.451 8.643.035 11.53 1.468 13.64 1.761 2.593 2.969 3.482 3.975 4.01.731.383 1.171.952 1.116 2.037-.08 1.547-2.938 1.793-3.03 2.238-.227 1.116.663 1.628 2.02 2.524 1.354.895-1.111 1.795-.635 4.652.479 2.854.734 3.936.734 3.936-1.114.816-3.525.776-3.254 2.514.626 4.064-4.716 6.803-15.681.941"/><path fill="#91999f" d="M33.705 45.46c.642-.408 1.255-.84 1.724-1.322.438-.479.78-1.047.409-2.098.433.117.865.57 1.035 1.184.155.625.042 1.313-.189 1.847-.22.518-.512.94-.839 1.307.35.371.671.867.81 1.418.171.577.159 1.146.09 1.649-.096.51-.229.978-.465 1.423-.376-.925-.622-1.819-1-2.309a2.783 2.783 0 0 0-.64-.589 9.987 9.987 0 0 0-.885-.542l-1.652-.938 1.604-1.03"/><path fill="#adb5bc" d="M30.22 33.23c-4.254 2.942-7.726-.235-7.726-.235 3.7.892 7.726.235 7.726.235"/><path fill="#c8d2da" d="M29.504 42.22c.502.505.881 1.152 1.18 1.849.305.695.501 1.463.602 2.259.076.799.052 1.635-.166 2.41-.205.777-.593 1.479-1.112 1.951.206-.749.353-1.439.405-2.135a10.86 10.86 0 0 0-.046-2.079c-.15-1.392-.508-2.76-.863-4.255"/><g fill="#91999f"><path d="M26.508 24.878c-3.267 0-6.582 2.951-6.582 2.951 7.098-3.246 12.08 0 12.08 0-.637-.807-2.947-2.956-5.503-2.951M14.223 26.35s-6.525 20.704 0 37.65H9.418s-7.02-18.763.789-38.17l4.02.518"/></g><path fill="#adb5bc" d="M10.262 26.26s-6.525 20.796 0 37.742H5.457s-7.02-18.854.789-38.26l4.02.516"/><path fill="#91999f" d="M6.41 26.35S-.115 47.054 6.41 64H.04V40.464L6.41 26.35z"/><path fill="#c8d2da" d="M18.1 8.584s3.634-1.037 5.343-.119c11.585 6.223 6.04 7.258 1.949 5.663-2.931-1.144-7.292-5.544-7.292-5.544"/><path fill="#adb5bc" d="M26.47 13.455s3.763-1.253 5.343-.12c7.617 5.467 1.246 16.1 1.246 16.1s1.465-10.385-2.623-11.98c-2.93-1.145-3.966-4-3.966-4"/><g fill="#c8d2da"><path d="M.04 8.702c12.288-5.861 19.623.713 19.623.713L.04 30.733V8.703"/><path d="M19.516 21.308c7.323-6.609 10.92-3.854 10.92-3.854C19.663-.566-.472 24.504.04 40.464c0 0 12.909-13.228 19.476-19.16"/><path d="M15.927 31.04c8.495-8.727 12.209-16.657 12.209-16.657C19.106 25.834 3.225 32.34.026 60.346c0 0 8-21.2 15.897-29.31"/></g><path fill="#adb5bc" d="M12.153 17.434c7.708-7.414 13.721-4.907 13.721-4.907C17.242 1.741 2.602 7.87.04 26.587v13.881s5.731-16.891 12.11-23.03"/><path fill="none" stroke="#fff" stroke-miterlimit="10" d="M.04 16.184s16.16 7.735 31.772 5.236"/><g fill="#fff"><ellipse cx="2.602" cy="17.271" rx="1.945" ry="1.995"/><ellipse cx="7.676" cy="19.267" rx="1.158" ry="1.188"/><ellipse cx="12.95" cy="20.909" rx=".983" ry="1.01"/><ellipse cx="17.77" cy="21.308" rx="1.746" ry="1.792"/><ellipse cx="24.422" cy="22.313" rx=".979" ry="1"/><ellipse cx="29.504" cy="21.917" rx="1.368" ry="1.402"/></g><g fill="#42ade2"><path d="M36.516 45.8c4-.938 7.846-2.295 10.598-4.888 1.398-1.243 2.311-2.883 2.495-4.689.202-1.779-.313-3.652-1.507-4.954-1.139-1.307-3.056-1.757-4.637-1.016-1.609.713-2.635 2.48-2.394 4.303.114.895.502 1.751 1.165 2.401.598.586 1.563.888 2.442.652.874-.223 1.694-.892 1.995-1.808.313-.906.185-2.01-.462-2.818.737.717 1.07 1.86.822 2.921-.237 1.069-1.084 1.987-2.157 2.36-1.087.383-2.355.156-3.292-.617-.87-.713-1.45-1.789-1.667-2.906a5.443 5.443 0 0 1 .434-3.388c.118-.256.299-.54.471-.782l.236-.302c.142-.158.204-.231.319-.344.41-.411.888-.766 1.413-1.039a5.481 5.481 0 0 1 3.486-.537c1.188.208 2.297.849 3.104 1.695 1.633 1.689 2.379 4.092 2.142 6.373a8.916 8.916 0 0 1-.978 3.276c-.534 1.019-1.266 1.917-2.072 2.667-1.633 1.508-3.635 2.518-5.695 3.06-2.059.544-4.197.72-6.261.38M50.606 43.07c2.833-1.287 5.59-2.507 7.764-4.297.525-.454 1.022-.94 1.425-1.457a4.83 4.83 0 0 0 .787-1.711c.291-1.238.107-2.596-.617-3.623a4.617 4.617 0 0 0-.268-.342 3.01 3.01 0 0 0-.354-.34 2.564 2.564 0 0 0-.729-.431 2.586 2.586 0 0 0-1.709-.079c-.563.17-1.097.54-1.468 1.045a2.862 2.862 0 0 0-.532 1.733c.011.635.253 1.282.653 1.761a1.792 1.792 0 0 0 1.672.65c.626-.1 1.268-.55 1.518-1.195.264-.645.212-1.473-.26-2.09.565.522.833 1.396.626 2.206-.202.827-.864 1.514-1.726 1.763-.855.261-1.871-.016-2.518-.643-.659-.628-1.048-1.469-1.157-2.357a4.014 4.014 0 0 1 .579-2.631 4.35 4.35 0 0 1 2.104-1.71 4.146 4.146 0 0 1 2.791-.054c.461.152.861.375 1.264.682.229.172.359.305.493.433.207.211.316.349.466.538 1.108 1.447 1.463 3.385 1.057 5.118a6.727 6.727 0 0 1-1.092 2.442 8.524 8.524 0 0 1-1.774 1.816c-1.31 1.03-2.804 1.713-4.323 2.165-1.524.443-3.094.695-4.672.608M36.516 46.781c2.143-.509 4.349-.685 6.562-.669 2.211.046 4.452.301 6.633 1.01 1.082.364 2.173.801 3.163 1.472.234.15.517.363.718.52a8.358 8.358 0 0 1 1.85 2.062c1.33 2.057 1.708 4.701.944 7.04a8.157 8.157 0 0 1-.748 1.658 6.259 6.259 0 0 1-1.204 1.461 5.609 5.609 0 0 1-3.452 1.433c-1.268.07-2.554-.354-3.523-1.081-1.057-.787-1.681-1.938-1.908-3.138a5.367 5.367 0 0 1 .529-3.522c.558-1.074 1.68-1.914 2.902-2 1.226-.111 2.423.493 3.02 1.522.592 1.01.53 2.289-.044 3.211a3.026 3.026 0 0 0-.287-2.997c-.573-.807-1.682-1.206-2.603-1.025-1.982.339-2.83 2.759-2.33 4.552.23.918.808 1.743 1.52 2.228.796.533 1.71.766 2.611.677.898-.09 1.747-.504 2.403-1.125a4.62 4.62 0 0 0 .828-1.065 6.43 6.43 0 0 0 .55-1.318c.531-1.824.188-3.867-.845-5.453-1.01-1.615-2.796-2.556-4.724-3.268-1.936-.686-4.01-1.12-6.123-1.438-2.111-.333-4.259-.543-6.444-.739"/><path d="M47.778 45.41c2.778-.629 5.611-.812 8.473-.64 1.437.095 2.869.302 4.349.829.37.137.738.322 1.11.561l.139.096.104.075.051.042.204.164c.148.135.357.322.487.479a5.261 5.261 0 0 1 1.181 2.258c.368 1.665-.065 3.54-1.484 4.723a3.446 3.446 0 0 1-2.565.716 3.39 3.39 0 0 1-1.265-.433c-.104-.066-.166-.097-.301-.194-.076-.063-.12-.089-.223-.184a2.726 2.726 0 0 1-.466-.526 3.265 3.265 0 0 1-.495-2.467c.084-.412.242-.81.48-1.149a2.28 2.28 0 0 1 1-.811c.803-.35 1.771-.096 2.268.543.514.635.478 1.53.077 2.104.264-.658.056-1.41-.402-1.799-.466-.39-1.141-.419-1.591-.127a1.394 1.394 0 0 0-.524.586 2.236 2.236 0 0 0-.219.811 2.037 2.037 0 0 0 .488 1.494c.08.095.184.187.249.235.024.026.133.091.194.134l.15.073c.233.107.479.166.725.174.492.021.965-.18 1.331-.501.73-.658 1-1.921.71-2.943a3.317 3.317 0 0 0-.768-1.404c-.096-.109-.153-.152-.261-.254l-.206-.161-.052-.04c.057.043-.007-.003-.004 0l-.078-.051a5.274 5.274 0 0 0-.767-.363c-1.142-.457-2.497-.679-3.829-.915-2.694-.435-5.465-.692-8.27-1.135"/></g></svg>