<svg xmlns="http://www.w3.org/2000/svg" viewBox="0 0 64 64"><g fill="#ffce31"><path d="M16.629 38.53L10.68 52.066l13.877-5.801a31.248 31.248 0 0 1-7.928-7.735M47.37 24.01l5.947-13.539-13.875 5.802a31.256 31.256 0 0 1 7.928 7.737M16.03 25.793L2 31.266l14.03 5.475c-.328-1.779-.527-3.601-.527-5.471 0-1.874.199-3.696.527-5.477M47.973 36.743l14.03-5.473-14.03-5.477c.328 1.781.527 3.604.527 5.477 0 1.871-.199 3.693-.527 5.473M24.559 16.27l-13.877-5.801 5.947 13.537a31.26 31.26 0 0 1 7.93-7.736M39.443 47.729l13.877 5.802-5.947-13.537a31.239 31.239 0 0 1-7.93 7.735M37.611 15.685L32.002 2l-5.611 13.685c1.822-.319 3.691-.515 5.609-.515 1.92 0 3.789.195 5.611.515M26.391 48.31l5.611 13.685 5.609-13.685c-1.822.32-3.691.515-5.611.515-1.918 0-3.787-.195-5.609-.515"/></g><path fill="#fff" d="M29.997 45.765a6.493 6.493 0 0 1-2.093-.347c-2.733-.922-4.57-3.517-4.57-6.456 0-1.963.833-3.829 2.285-5.123a6.519 6.519 0 0 1 1.218-.864l-.021-.002.442-1.573c1.103-3.929 4.667-6.672 8.666-6.672.398 0 .807.032 1.287.103a9.09 9.09 0 0 1 1.083.228l.177-.325c1.616-2.973 4.683-4.819 8.01-4.819 5.05 0 9.149 4.191 9.149 9.345 0 .252-.017.496-.035.743l-.016.183c.39.151.77.335 1.136.552 2.439 1.436 3.955 4.109 3.955 6.975 0 3.774-2.515 7-6.116 7.844a7.657 7.657 0 0 1-1.77.211H30.001z"/><path fill="#75d6ff" d="M46.48 21.274c4.316 0 7.815 3.575 7.815 7.983 0 .215-.014.423-.03.633a8.077 8.077 0 0 0-4.739 2.02 6.416 6.416 0 0 1 4.54-.761c.71.144 1.375.406 1.981.764a6.708 6.708 0 0 1 3.289 5.797c0 3.177-2.171 5.836-5.081 6.518a6.378 6.378 0 0 1-1.472.177H29.999c-.584 0-1.145-.1-1.671-.277-2.124-.717-3.658-2.758-3.658-5.165 0-1.638.71-3.102 1.829-4.099A5.277 5.277 0 0 1 30 33.517c1.718 0 3.242.835 4.217 2.124h.048c-1.132-2.127-3.247-3.627-5.723-3.867.921-3.279 3.877-5.687 7.385-5.687.374 0 .738.037 1.099.091a7.491 7.491 0 0 1 2.027.593c2.364 1.077 4.092 3.335 4.475 6.04l.002-.046a8.87 8.87 0 0 0-3.89-7.371c1.334-2.454 3.895-4.118 6.84-4.118m0-2.721c-3.597 0-6.932 1.888-8.85 4.966l-.223-.035a10.22 10.22 0 0 0-1.48-.116c-4.591 0-8.682 3.147-9.948 7.656l-.302 1.073c-.327.215-.64.455-.936.719a8.233 8.233 0 0 0-2.738 6.146c0 3.528 2.206 6.642 5.488 7.748a7.774 7.774 0 0 0 2.508.415h22.784c.687 0 1.385-.083 2.075-.247 4.205-.985 7.145-4.756 7.145-9.168 0-3.352-1.771-6.476-4.623-8.153a9.566 9.566 0 0 0-.418-.232l.001-.066c0-5.904-4.703-10.706-10.483-10.706z"/></svg>