<svg xmlns="http://www.w3.org/2000/svg" viewBox="0 0 64 64"><path fill="#97a3a2" d="M14.641 3.698c-3.204.09-11.807.38-10.212 7.961 1.595 7.581-.829 6.747 0 9.246.829 2.498 2.212 5.521 2.461 8.474.25 2.954 4.875 6.679 4.875 6.679s-4.737.967-.75 5.78c3.987 4.813 3.25 6.546 6.25 7.316 0 0 2.023 7.285 4.375 7.19 0 0 4.25 7.377 10.375 2.405 0 0-2.881-1.854.439-3.817 0 0-.254-4.123-1.814-6.747 0 0 7.579-9.236 7.875-12 0 0 5.146.397 7.376-3.211 0 0 10.874 2.056 12.875-3.082 0 0 4.999-11.3-15.13-21.316.001.001-12.876-5.331-28.999-4.878"/><g fill="#c8d9d8"><path d="M6.498 20.607c.008.021.02.038.028.059-.021-.068-.146-.401-.028-.059M26.946 59.07l.027.002c.171.005.094.002-.027-.002M40.633 34.32c.351-.042-.012-.181 0 0"/><path d="M61.04 22.407c.045.142.097.282.151.42-.832-1.909-2.146-3.556-3.677-4.919.456.293 4.362 2.359 4.373 2.408-.464-2.061-4.938-4.613-6.508-5.793-2.721-2.043-5.574-3.901-8.559-5.506-5.622-3.03-11.685-5.04-17.936-6.117-6.163-1.066-13.236-1.416-19.332.25-2.239.612-4.643 1.688-5.886 3.82-.744 1.277-.898 2.819-.629 4.264.127.663.334 1.298.624 1.904A6.352 6.352 0 0 0 2.395 15.3c-.938 2.726-.06 5.801 1.219 8.246 1.455 2.783.749 6.03 2.448 9.04a15.207 15.207 0 0 0 2.348 3.143c.766.787-.484 2.066-.564 3.177-.205 2.818 1.931 4.958 4.115 6.266 1.312.787 1.15.804 1.665 2.216.212.584 1.682 1.962 1.577 2.409-.732 2.824.19 5.641 2.699 7.135.877.523 2.288.537 2.604 1.623.383 1.312 1.42 2.245 2.61 2.778 1.298.581 2.787.754 4.189.62.706-.065 1.498-.15 2.5-.453 2.198-.664 3.393-1.95 4.343-4.04a9.902 9.902 0 0 0-1.726-.492c4.01-2.061 4.665-7.383-.569-7.892.55-.466.979-1.036 1.33-1.672.604-1.1 1.22-1.573 2.02-2.514 1.175-1.382 1.247-2.555 2.665-3.693 1.493-1.197 1.575-2.699 3.507-2.979 1.938-.283 3.953-.845 5.466-2.191.318-.281.787-1.156 1.194-1.272 1.1-.313 2.623-.023 3.778-.134 2.087-.198 4.196-.618 6.08-1.602 3.534-1.846 4.762-5.773 3.559-9.55-.075-.152-.37-1.085-.411-1.065m-54.12-.939c-.74-1.451-1.559-3.417-.973-5.05 1.263 1.353 2.705 2.514 4.191 3.596-1.144.304-2.254.739-3.218 1.456m4.332 11.526c-.229-.201-.148-.13.005.004l-.005-.004m-2.262-3.122c1.495 1.167 3.118 2.15 4.791 3.02-1.075.443-1.499.883-2.355.239-.995-.925-1.808-2.042-2.436-3.257m7.01 17.86c.108-.204-.269-.265-.115-.096a2.844 2.844 0 0 1-.88-.987c.145.263 1.14.325 1.415.399-.14.228-.279.458-.42.684m.817-4.847l-.015-.004c-1.48-.494-3.01-1.093-4.178-2.189-.579-.544-1.555-2.734-.01-1.834 3.198 1.865 6.708 3.166 10.294 3.975-2.363.68-3.643.866-6.091.052m8.453 5.3c-.269.041-.47.065-.641.084a27.79 27.79 0 0 1-4.286.234c1.13-1.073 3.437-.315 4.927-.318m-3.597 5.487l-.002.004-.002.002c-.921 1.121-2.841-1.093-2.767-2.077.091-1.224.888-.585 1.79-.489 1.349.144 2.708.189 4.062.123-1.136.648-2.239 1.408-3.081 2.437m6.843 5.115c.048-.068.079-.114 0 0-.368.527-1.335.293-1.853.271.095.004.19.006.286.011-.88-.034-1.784-.19-2.573-.615a23.221 23.221 0 0 0 4.864-.417 4.116 4.116 0 0 0-.724.75m-1.706-4.528c1.131-.542 3.701-.815 4.37-1.174-1.309.822-2.873 1.038-4.37 1.174m-2.425-15.305c-2.967-.62-5.871-1.607-8.584-2.998 3.1-1.618 5.34.008 8.553.814 1.567.394 3.149.727 4.741.999 1.277.218 3.363.004 4.127 1.341-2.886.777-5.949.45-8.837-.156m11.04-4.518c-.352-.018-.703-.044-1.054-.068.313.021.63.04.944.062-2.632-.178-5.248-.584-7.828-1.147.631-.005 5.261.805 5.57.041.883-2.179-10.569-2.554-11.385-2.472-4.411.447-9.734-3.153-12.665-6.381 2.653-2.443 5.734-1.375 8.361.145-.389.142-3.342 1.226-3.059 1.91.153.371 2.097-.24 2.333-.289 1.455-.301 2.568-.57 3.905.141a86.368 86.368 0 0 0 6.416 3.078 79.885 79.885 0 0 0 6.202 2.356c1.836.613 3.815.397 3.872 2.691a48.36 48.36 0 0 1-1.612-.067m5.214-.114c-.019-.181-.034-.36-.052-.541.493.102.986.202 1.48.303a12.81 12.81 0 0 1-1.428.238m1.168-4.412a1.999 1.999 0 0 0-.097-.018c-1.399-.285-2.487-.299-3.437-1.429-.713-.846-1.586-1.539-2.506-2.127-2.092-1.336-4.369-2.461-6.634-3.45-4.981-2.176-10.713-2.19-15.224-5.164 6.08.748 12.04 1.7 17.827 3.832 4.396 1.62 11.01 4.01 12.906 8.907-.95-.143-1.894-.345-2.835-.551m16.534-2.627c-.315 1.467-1.732 2.245-2.998 2.694.956-2.893-.859-5.776-3.02-7.483-.839-.662-2.124-1.614-3.262-1.485-1.499.171 1.062 3.463 1.35 3.923 1.46 2.349 1.838 4.39-1.076 5.599-1.18.491-.935-.458-1.296-1.373-.594-1.504-1.563-2.798-2.687-3.927-4.142-4.159-10.269-6.098-15.767-7.452-3.809-.938-7.717-1.408-11.63-1.539a67.707 67.707 0 0 0-4.683 0c-1.852.067-2.669-.837-3.968-2.076 6.122-1.503 13.186.159 19.223 1.436 3.073.65 6.123 1.401 9.166 2.183 1.69.436 3.38.881 5.067 1.326.864.228 2.428.985 3.332.687.326-.107-2.329-1.604-2.398-1.638-1.823-.888-3.718-1.63-5.611-2.344a103.211 103.211 0 0 0-10.838-3.412c-3.747-.956-7.553-1.813-11.41-2.118-2.048-.162-4.131-.176-6.171.107-1.164.161-2.922 1.389-2.921-.479.004-5.337 15.12-4.238 18.1-4.03 7.729.532 15.312 2.64 22.3 6.07-4.79-1.878-9.836-3.082-14.952-3.451-2.47-.177-4.96-.183-7.434-.096-1.588.054-6.221-.363-7.44.875-.041.042 2.999.496 3.272.514 2.476.159 4.953.292 7.423.524 4.253.399 8.469 1.169 12.559 2.447 3.961 1.238 7.916 2.882 11.419 5.176 2.753 1.806 7.444 5.38 6.349 9.349M21.67 53.672c.202-.247.494-.604 0 0M61.45 23.472c1.231 3.865.032.068 0 0M6.917 21.468c.986-.734-.136-.265 0 0"/><path d="M24.625 48.27c.214-.028.428-.052.641-.084-1.177.003-1.51.177-.641.084M40.633 34.32c.48-.058-.013-.18 0 0M18.229 34.937c-.794.309.032-.012 0 0M35.38 34.434l.041.002a4.9 4.9 0 0 0-.108-.008c.022.002.044.005.067.006"/></g><g fill="#fff"><path d="M43.33 18.628a11.991 11.991 0 0 0-.965-.69 48.488 48.488 0 0 0-1.526-.86c-.593-.313-1.341-.629-2.116-.979-.401-.169-.857-.328-1.313-.5-.462-.166-.918-.352-1.447-.504-2.039-.67-4.48-1.244-7.04-1.765l-1.927-.351a42.512 42.512 0 0 0-1.868-.311c-1.223-.18-2.4-.354-3.528-.503a297.837 297.837 0 0 0-3.21-.397c-1.01-.116-1.963-.196-2.827-.276a52.235 52.235 0 0 0-4.109-.227c-.97-.013-1.502.03-1.511.132-.009.101.505.251 1.428.435.923.19 2.255.382 3.889.672l2.672.438c.96.167 1.985.338 3.068.514l3.376.569c.595.092 1.174.198 1.752.312l1.776.331c2.371.483 4.578.959 6.443 1.492.49.118.91.269 1.349.4.429.137.866.259 1.262.393.767.28 1.529.525 2.182.774.645.254 1.243.48 1.785.677.524.205.972.388 1.365.528.786.282 1.318.419 1.51.367.185-.048.017-.283-.466-.671M32.08 29.2c-2.83-1.102-6.641-2.64-10.601-4.735-7.812-4.302-13.678-8.617-14.394-8.095-.315.224.797 1.544 2.956 3.466 2.191 1.897 5.486 4.392 9.687 6.674 4.243 2.249 8.555 3.666 11.705 4.376.39.107.769.175 1.133.225.362.054.701.105 1.021.15.639.087 1.187.148 1.641.181.903.065 1.411.018 1.448-.153.079-.358-1.741-1.076-4.596-2.089M33.06 36.434c-.628-.242-1.552-.491-2.661-.82-.557-.154-1.166-.32-1.816-.498a84.443 84.443 0 0 0-2.051-.58c-1.436-.439-3.01-.921-4.666-1.425-3.33-1.03-6.275-1.993-8.31-2.744-2.061-.731-3.135-1.317-3.599-1.193-.205.064-.2.351.145.793.332.453 1.027 1.01 1.996 1.61 1.943 1.198 4.997 2.477 8.499 3.559.897.275 1.697.518 2.579.741.865.221 1.695.447 2.5.611.812.159 1.583.301 2.305.424.723.117 1.399.186 2.01.256a19.84 19.84 0 0 0 2.92.135c.692-.028 1.078-.117 1.1-.272.018-.157-.327-.361-.955-.597M28.936 41.28c-1.774-.458-4.182-1.027-6.8-1.672-2.587-.684-4.886-1.313-6.543-1.82l-.621-.165c-.184-.06-.358-.114-.523-.166a10.08 10.08 0 0 0-.922-.242c-.552-.117-.964-.142-1.163-.041-.195.101-.153.317.117.641.135.162.33.349.576.562.125.104.262.216.415.333.159.106.339.211.529.321 1.491.934 3.986 1.918 6.897 2.683 2.93.723 5.699 1.092 7.698 1.162 2.01.065 3.225-.119 3.234-.426.013-.33-1.13-.718-2.894-1.17M28.67 46.48c1.361-.315 1.803-.784 1.428-.981-.388-.219-1.144-.265-2.124-.351-.989-.072-2.386-.171-4.04-.251-3.296-.175-6.324-.16-6.682.36-.352.496 2.248 1.347 6.182 1.562 1.959.094 3.894-.016 5.231-.339M27.5 54.954a9.744 9.744 0 0 0-1.835.344c-.448.143-.759.327-.728.514.027.189.425.347 1.124.447.723.114 1.604.095 2.544.012 1.813-.216 2.819-.739 2.395-1.08-.434-.351-1.984-.416-3.5-.237M25.654 52.639c-.417.221-.691.458-.631.636.061.181.479.268 1.185.239.73-.016 1.593-.192 2.507-.441 1.749-.537 2.651-1.231 2.174-1.491-.485-.267-2.023-.054-3.484.394a9.712 9.712 0 0 0-1.751.663M27.714 49.99c1.749-.536 2.651-1.231 2.174-1.491-.486-.267-2.023-.054-3.484.394-.736.196-1.336.467-1.75.664-.417.221-.691.457-.631.636.061.181.479.268 1.185.239.73-.014 1.592-.191 2.506-.442"/></g></svg>