<svg xmlns="http://www.w3.org/2000/svg" viewBox="0 0 64 64"><path fill="#979797" d="M2 29.632c15.773-12.639 23.327.452 32.799.452 7.548 0 16.788-13.14 27.2-2.356-11.949-5.748-16.323 6.476-28.662 6.476-9.588-.001-13.191-11.333-31.34-4.572"/><path fill="#d0d0d0" d="M62 39.706c-9.204-7.579-15.13-1.421-22.725 1.77-4.81 2.02-9.797 1.481-14.771-3.787 3.568 1.288 11.45 5.629 19.253-1.983-6.725 2.984-15.12.874-21.874-2.496C14.447 29.503 8.253 28.876 2 35.705c3.943-2.965 9.627-2.266 13.999-1.101-2.848.106-8.894.772-13.999 8.665C17.441 30.478 23 48 35.08 48c11.705 0 10.664-13.13 26.918-8.294"/><path fill="#979797" d="M2 25.269c1.883-5.427 15.233-13.172 25.779.091C13.041 18.565 2 25.269 2 25.269z"/><path fill="#d0d0d0" d="M42.13 19.833c6.188-6.839 16.08-3.106 19.865.281-3.059-.354-12.473-2.357-16.525 1.955-6.397 6.807-13.891 5.826-16.252 3.35 0 0 7.611.27 12.912-5.586"/><path fill="#979797" d="M45.38 35.38c7.963-13.262 16.616-2.121 16.616-2.121-9.442-3.28-16.616 2.121-16.616 2.121"/></svg>