<svg xmlns="http://www.w3.org/2000/svg" viewBox="0 0 64 64"><path fill="#d3976e" d="M16.381 61.923c-6.146 0-11.979-.027-14.256-30.822-3.098-41.982 52.1-26.738 52.1-2.469.001 13.224-37.847 33.29-37.847 33.29"/><path opacity=".5" fill="#fff" d="M3.602 31.1c-1.326-17.975 8.04-25.43 19.19-26.21-.012-.021-.01-.043-.016-.063-11.766.208-22.03 7.512-20.647 26.27 2.107 28.521 7.342 30.806 12.902 30.806-5.142-.885-9.503-4.797-11.425-30.806"/><path fill="#594640" d="M19.342 25.513L4.389 32.072l-2.234 4.947 2.656 1.592-1.92 4.252 1.453.871-2.053 4.549 3.256 1.951-1.937 4.288 4.113 2.467-.727 1.611 4.477 2.684.893-1.973 2.229 2.537 3.619-.928 11.678-22.48-10.55-12.927"/><path fill="#89664c" d="M23 39l3-4-22.296-2.915-1.621 3.591 3.25 1.953.986-2.184 1.676 1.01-1.283 2.84-2.272-1.36-1.621 3.592 3.25 1.949 1.346-2.979 2.166 1.299-.145.32 2 1.199-.551.627-3.051-1.83-1.291 2.862-2.703-1.621-1.625 3.594 3.252 1.949 1.291-2.862 2.707 1.621.842-1.867.668.758-1.047 2.316-1.572-.939-1.275 2.82-1.924-1.15-1.621 3.592 3.252 1.951 1.275-2.824 1.922 1.152.33-.732 1.031 1.172-.516 1.139-2.285-1.371-1.625 3.594 3.252 1.947 1.41-3.117 2.354 3.357 2.219-2.52 1.797 2.043 2.555-2.904-2.555-2.906-2.219 2.523-.701-.797.461-1.02 2.303-2.721 1.236 1.402 2.555-2.904-2.555-2.906-2.428 2.76-1.236-1.404-1.977 2.248 1.33-2.947-1.156-.693.676-.77.563.338 1.697 1.928 2.555-2.904-2.555-2.906-.191.219-.934-.559 1.176-1.338 1.701 1.936-.229.258 2.311 2.625-.527.6 2.557 2.904 2.555-2.904-1.922-7.13"/><g fill="#d3976e"><path d="M9.627 38.07l-2.265-1.358-1.131 2.498 2.266 1.363zM13.963 36.829l.707-1.559-1.416-.851-.707 1.562zM10.577 42.24l-.707 1.564 1.416.847.707-1.561zM11.131 45.681l-.705 1.559 1.414.85.707-1.56zM13.155 41.493l1.416.847.707-1.562-1.416-.849zM4.542 44.702l-1.413-.848-.709 1.566 1.418.85zM4.678 50.714l-.705 1.566 1.414.85.705-1.567zM7.356 56.36l1.416.84.707-1.56-1.419-.85zM7.315 46.27l.705-1.566-1.414-.85-.707 1.566zM7.579 47.41l-1.131 2.505 2.265 1.355 1.131-2.501zM10.78 52.976l1.416.847.707-1.563-1.416-.85zM12.11 56.69l1.414.85.705-1.564-1.414-.846zM18.213 35.15L17.1 33.89l-1.111 1.26 1.111 1.267zM19.342 39.11l-1.779-2.02-1.781 2.02 1.781 2.02zM19.807 40.917l-1.113 1.263 1.113 1.27 1.111-1.27zM20.395 45.41l1.113 1.259 1.112-1.259-1.112-1.27zM16.45 47.1l1.113 1.26 1.111-1.26-1.111-1.265zM16.764 53.36l1.113 1.264 1.112-1.264-1.112-1.27zM14.909 57.2l1.111 1.27 1.11-1.27-1.11-1.262z"/></g><path fill="#ffec40" d="M45.705 8.806L36.24 2.527 34.913 2l.377 3.9L24 3.58l-1.197.345L11 11.995l-4.708 12.03-3.292.97v2l7-2-3.308 3.2.982 4.417 18.04 1.226z"/><g fill="#83bf4f"><path d="M22.507 4.587c-2.22-.439-4.03 1.972-6.134 2.735-2.25.814 1.793 3.82 2.97 3.808-.273.005-.482.009.005 0 .803-.015.37-.007.016-.001 3.403-.079 9.836-5.219 3.143-6.542M11.536 17.14c.781-2.251.495-5.086-2.617-3.115-2.637 1.667.238 4.331-2.967 5.828-3.063 1.43-.97 5.38 1.708 4.223 2.296-.993 3.122-4.699 3.848-6.847-.145.417-.383 1.103.028-.089"/><path d="M11.536 17.14l-.029.088c.078-.228.129-.377.029-.088M24.664 31.32c.255.254.53.527-.007-.008-.435-.432-.241-.238-.014-.012-3.677-3.619-9.07 4.984-7.862 6.572 4.716 6.201 10.124-4.279 7.883-6.552"/></g><g fill="#ed4c5c"><path d="M13.329 25.513l-2.627 6.137 6.597 2.38 3.657-6.685z"/><path d="M9.704 24.26l3.416 2.738 5.681-4.03-3.701-2.962zM20.887 19.501l4.656 3.519 5.926-3.593-3.103-4.209zM15.885 11.453l.371 4.834 6.508-3.01-.262-3.397-3.02-1.675zM29.418 3.189l-1.676 5.065L35 9l-.379-4.934zM37 3l.38 5 6.68-.734.839-3.043z"/></g><g fill="#83bf4f"><path d="M35.15 11.71c2.752.694-1.01-.255 0 0M36 12c-.9-.731-2.717 2.182-3.675 2.835-1.198.816-10.671 3.145-2.527 5.219 2.614.665 8.175-6.451 6.202-8.05M40.32 9.742c-.834-.492.757.449 0 0"/><path d="M43.27 5.725c-1.728 2.341-1.438-2.603-3.854-.415-1.465 1.327-.687 3.495.901 4.432 1.449.86 6.279.353 6.565-1.877.211-1.612-2.394-3.791-3.612-2.14M7 26c-1.414 0-4.282 3.689-4.283 3.691-2.638 2.767 2.766 2.839 2.871 3.303a40.19 40.19 0 0 1-2.486 1.707c-.02 1.974 4.229-.205 3.881-.002-2.385 4.059 7.473-.682 8.07-1.053C18.501 31.531 12.996 26 6.993 26M18.04 21.855c-1.416-.016.8.01 0 0"/><path d="M20.367 16.321C17 10 16.577 16.313 16 17c-.353.42-5 0-2.927 2.539.866 1.061 3.647 2.696 4.963 2.316C21 21 21.073 17.646 20.367 16.321"/></g><g fill="#ffffd4"><path d="M20.696 23.953L9.792 25.396l-2.831 2.143 1.276.927 10.721-3.446 2.789-.267zM28.986 12.711l-4.683-.412L14 15.721 15.6 17l8.49-2.717 4.98-.439zM23.14 21.236l-1.14.1 2.09 5.096 3.07.568.836-1.79-1.816-.7zM21.502 27.726l2.241 6.181-1.683 1.113-1.78-5.474zM38.565 7.289l-2.041-.584L34.913 2l-1.353.119 1.62 5.466 2.733 1.073zM29.614 5.261l-6.811-1.336-.683 1.028 7.16 1.98z"/></g><path fill="#fbbf67" d="M16.381 61.923s4.184 0 6.637-16.221c2.48-16.4 13.485-38.529 30.625-38.529 5.943 0 9.979 3.943 7.722 25.17-.4 3.738-39.763 29.58-44.984 29.58"/><path fill="#fddfb3" d="M53.663 6.154c-21.651 0-28.387 24.609-30.645 39.55-2.453 16.219-9.105 16.17-9.105 16.17s4.178.527 5.416-.541c1.771-1.527 3.861-5.365 5.166-13.98 2.26-14.933 10.35-39.662 29.736-39.662 5.455 0 7.345 7.922 7.345 7.922s-.972-9.455-7.913-9.455"/><g fill="#d3976e"><path d="M39.17 40.835l1-1.07 1 1.072-1 1.07zM40.48 26.783l1-1.071.999 1.071-1 1.072zM56.11 26.783l1-1.071 1 1.071-1 1.072zM54.23 15.771l1-1.07 1 1.07-1 1.072z"/></g><g fill="#fddfb3"><path d="M48.34 33.36l-1 1.071 1 1.07 1-1.07-1-1.071M50.654 20.757l-.998 1.073.998 1.07 1-1.07-1-1.073M42.968 17.03l-.999 1.07.999 1.07 1-1.07-1-1.07M33.536 32.802l-1 1.072 1 1.068 1-1.068-1-1.072M31.23 46.39l-1 1.07 1 1.072 1-1.072-1-1.07"/></g></svg>