<svg xmlns="http://www.w3.org/2000/svg" viewBox="0 0 64 64"><g fill="#ffce31"><path d="M11.751 28.354l-3.966 9.02 9.252-3.867a20.902 20.902 0 0 1-5.286-5.157M32.25 18.672l3.964-9.03-9.25 3.868a20.873 20.873 0 0 1 5.286 5.158M11.351 19.862L2 23.511l9.352 3.649c-.22-1.185-.352-2.4-.352-3.647 0-1.248.132-2.463.351-3.651M32.648 27.16l9.351-3.649-9.351-3.65c.219 1.187.352 2.402.352 3.65s-.133 2.463-.352 3.649M17.04 13.513L7.788 9.646l3.965 9.02a20.894 20.894 0 0 1 5.287-5.158M26.961 34.486l9.251 3.868-3.964-9.02a20.873 20.873 0 0 1-5.287 5.157M25.741 13.12L22 3.997l-3.741 9.123a21.63 21.63 0 0 1 3.74-.343c1.28 0 2.526.13 3.742.343M18.259 34.877L22 44l3.74-9.123a21.611 21.611 0 0 1-3.74.343c-1.279 0-2.525-.13-3.741-.343"/></g><path fill="#fff" d="M17.195 58.11a9.17 9.17 0 0 1-2.93-.48c-3.826-1.279-6.398-4.88-6.398-8.958a9.48 9.48 0 0 1 4.904-8.309l-.03-.002.619-2.184c1.544-5.451 6.534-9.258 12.133-9.258.558 0 1.13.046 1.803.144.515.074 1.021.181 1.516.315l.247-.452c2.263-4.124 6.556-6.687 11.208-6.687 7.06 0 12.81 5.816 12.81 12.967 0 .349-.022.688-.049 1.03l-.021.254c.545.21 1.076.466 1.59.767 3.415 1.992 5.537 5.701 5.537 9.677 0 5.238-3.521 9.714-8.563 10.885-.823.193-1.658.292-2.478.292H17.195"/><path fill="#75d6ff" d="M40.27 24.13c6.04 0 10.942 4.961 10.942 11.08 0 .298-.02.587-.043.878a11.36 11.36 0 0 0-6.635 2.802 9.047 9.047 0 0 1 6.357-1.054 9 9 0 0 1 2.774 1.06 9.293 9.293 0 0 1 4.604 8.04c0 4.408-3.04 8.098-7.114 9.05a9.018 9.018 0 0 1-2.06.245H17.198a7.312 7.312 0 0 1-2.339-.386c-2.974-.994-5.122-3.826-5.122-7.166 0-2.273.994-4.305 2.561-5.688a7.382 7.382 0 0 1 2.444-1.44 7.38 7.38 0 0 1 2.457-.428c2.405 0 4.539 1.157 5.904 2.947h.066c-1.584-2.951-4.545-5.03-8.01-5.366 1.29-4.551 5.428-7.89 10.339-7.89.524 0 1.034.051 1.538.125.997.145 1.949.422 2.838.822a10.885 10.885 0 0 1 6.265 8.38l.002-.064c0-4.274-2.166-8.03-5.445-10.228 1.868-3.405 5.454-5.714 9.576-5.714m0-3.776c-5.03 0-9.703 2.618-12.388 6.89l-.312-.048c-.77-.11-1.426-.162-2.073-.162-6.427 0-12.154 4.368-13.927 10.624l-.423 1.49a11.375 11.375 0 0 0-5.143 9.526c0 4.896 3.088 9.215 7.684 10.751 1.13.382 2.314.575 3.51.575h31.897c.962 0 1.939-.114 2.906-.342 5.885-1.367 10-6.601 10-12.723 0-4.649-2.48-8.984-6.473-11.313-.193-.112-.388-.22-.585-.321l.001-.093c0-8.189-6.584-14.854-14.676-14.854z"/></svg>