<svg xmlns="http://www.w3.org/2000/svg" viewBox="0 0 64 64"><path fill="#d9a559" d="M51.28 4.362c5.819 5.82.033 21.04-12.922 33.994-12.955 12.957-28.17 18.741-33.993 12.922-8.621-8.621 8.176-12.83 21.13-25.785C38.451 12.538 42.655-4.259 51.28 4.363"/><path fill="#fbbf67" d="M27.17 27.17C39.598 14.74 43.98-1.207 51.926 5.12a6.977 6.977 0 0 0-.646-.762c-8.62-8.621-12.829 8.176-25.786 21.13C12.54 38.443-4.257 42.648 4.364 51.273c.236.238.494.447.762.646-6.331-7.946 9.616-12.327 22.04-24.753"/><path fill="#c94747" d="M54.623 5.194c5.792 5.795-2.046 20.336-15.85 34.14-13.804 13.805-28.345 21.643-34.14 15.85-6.715-6.717 10.424-11.957 24.23-25.762C42.667 15.617 47.913-1.52 54.626 5.192"/><path fill="#fbbf67" d="M59.791 12.876c5.744 5.746-.104 20.902-13.06 33.857s-28.11 18.803-33.858 13.06c-5.744-5.744 9.02-11.988 21.974-24.943 12.955-12.955 19.2-27.717 24.943-21.973"/><g opacity=".5" fill="#3e4347"><path opacity=".5" d="M54.49 12.534c.685-.449 1.345-.754 1.984-.875.284-2.672-.277-4.893-1.849-6.465-1.342-1.34-2.622-1.719-3.925-1.375 3.602 2.149 4.488 5.258 3.79 8.715M13.234 53.54c-8.285 2.873-9.681-3.064-9.682-3.07-.756 1.578-.528 3.104 1.081 4.713 1.672 1.67 4.073 2.201 6.973 1.789.042-1.084.629-2.217 1.628-3.432"/></g><path fill="#d9a559" d="M43.661 43.661c-18.81 18.809-30.22 15.951-31.21 15.658.127.156.263.316.42.473 5.745 5.744 20.904-.104 33.859-13.06C58.981 34.482 64.87 20.269 60.618 13.9c1.42 5.366-1.681 14.481-16.96 29.76"/><g fill="#3e4347"><path opacity=".5" d="M14.358 44.903c2.228.521 3.9 1.389 3.735 1.936-.165.551-2.107.57-4.334.051-2.229-.521-3.9-1.389-3.735-1.936.165-.551 2.106-.57 4.334-.051M20.223 40.714c2.227.521 3.899 1.389 3.733 1.938-.165.549-2.105.57-4.332.049-2.229-.52-3.901-1.389-3.735-1.936.164-.549 2.106-.571 4.334-.051M26.924 35.688c2.228.52 3.9 1.389 3.735 1.936-.164.549-2.107.57-4.334.051-2.229-.521-3.899-1.389-3.735-1.938.165-.549 2.107-.568 4.334-.049M32.789 29.823c2.229.521 3.901 1.389 3.737 1.936-.166.551-2.106.57-4.334.051-2.229-.521-3.9-1.389-3.735-1.938s2.104-.568 4.332-.049M39.492 23.12c2.228.52 3.899 1.387 3.735 1.936-.165.549-2.106.57-4.334.051-2.229-.521-3.899-1.389-3.736-1.938.166-.549 2.108-.57 4.335-.049M45.36 15.581c2.228.52 3.9 1.389 3.735 1.936-.165.549-2.105.57-4.334.051-2.228-.521-3.901-1.389-3.735-1.938.166-.547 2.106-.568 4.334-.049"/></g><path fill="#ffce31" d="M10.545 52.12c.795-4.41 4.895-2.689 6.818-5.654.952-1.469 1.541-3.152 2.329-4.717.729-1.445 3.588-.914 5.094-1.439 3.656-1.268 2.095-8.328 6.58-7.885 2.097.205 4.784-.75 5.12-3.24.171-1.275.166-2.352.025-3.645-.398-3.617 4.259-2.975 5.997-3.943 2.387-1.33 3.359-2.77 2.613-5.514-.766-2.809 3.4.184 7.081-3.5 1.776-1.775.548-4.928-.45-6.06-1.52-1.727-2.669.236-2.517 2.516.105 1.574-3.02.92-4.253.904-.778-.008-1.899.207-2.475.801-1.823 1.877.373 3.973-.832 6.244-1.457 2.746-5.193.865-7.639 4.395-2.375 3.428-.503 7.695-3.797 7.371-2.404-.236-3.994 2.232-5.05 3.979-1.146 1.885-1.622 4.787-4.576 4.465-.998-.107-1.71.313-2.486.846-3.248 2.238-1.778 5.801-6.151 6.973-3.471.93-4.243 2.711-4.871 6.203-.404 2.241 3.038 3.171 3.444.903"/></svg>