<svg xmlns="http://www.w3.org/2000/svg" viewBox="0 0 64 64"><g fill="#42ade2"><path d="M23.916 44.848c-.571 1.569-.086 3.189 1.086 3.616s2.586-.502 3.157-2.071c.673-1.85.719-4.382.262-7.316-2.202 1.923-3.832 3.921-4.505 5.771M37.01 46.39c.673-1.85.719-4.382.262-7.316-2.202 1.924-3.832 3.922-4.505 5.771-.571 1.569-.086 3.189 1.086 3.616s2.585-.502 3.157-2.071M46.13 39.08c-2.203 1.924-3.832 3.922-4.506 5.771-.57 1.569-.086 3.189 1.086 3.616s2.586-.502 3.158-2.071c.672-1.849.719-4.381.262-7.316M15.06 44.848c-.571 1.569-.086 3.189 1.086 3.616s2.585-.502 3.158-2.071c.672-1.85.719-4.382.262-7.316-2.203 1.923-3.833 3.921-4.506 5.771M16.966 57.1c-.571 1.569-.086 3.189 1.086 3.616 1.171.427 2.585-.502 3.158-2.071.672-1.85.719-4.382.262-7.316-2.203 1.923-3.833 3.921-4.506 5.771M30.06 58.643c.674-1.85.719-4.382.262-7.316-2.201 1.924-3.832 3.922-4.504 5.771-.572 1.569-.086 3.189 1.086 3.616s2.586-.502 3.156-2.071M39.18 51.33c-2.202 1.924-3.832 3.922-4.505 5.771-.571 1.569-.086 3.189 1.086 3.616s2.586-.502 3.157-2.071c.673-1.849.719-4.381.262-7.316M8.112 57.1c-.571 1.569-.086 3.189 1.086 3.616s2.586-.502 3.157-2.071c.673-1.85.719-4.382.262-7.316-2.202 1.923-3.832 3.921-4.505 5.771"/></g><path fill="#fff" d="M19.322 33.659a7.638 7.638 0 0 1-2.406-.389 7.605 7.605 0 0 1-5.256-7.23 7.6 7.6 0 0 1 2.628-5.738c.431-.375.9-.699 1.401-.968l-.025-.001.508-1.763c1.269-4.4 5.368-7.473 9.966-7.473.458 0 .929.036 1.481.115.422.06.838.146 1.244.255l.203-.365a10.55 10.55 0 0 1 9.207-5.396c5.802 0 10.521 4.694 10.521 10.466 0 .281-.018.557-.04.832l-.017.205c.447.169.883.375 1.305.618 2.806 1.608 4.549 4.602 4.549 7.811 0 4.228-2.893 7.84-7.03 8.785a9.09 9.09 0 0 1-2.035.236h-26.2"/><path fill="#b6c1d1" d="M38.27 6.23c4.964 0 8.988 4 8.988 8.941 0 .24-.017.474-.035.709a9.404 9.404 0 0 0-5.45 2.262 7.52 7.52 0 0 1 5.222-.852 7.5 7.5 0 0 1 2.277.855c2.26 1.296 3.783 3.714 3.783 6.492 0 3.559-2.497 6.536-5.844 7.3a7.431 7.431 0 0 1-1.691.198H19.317c-.672 0-1.316-.11-1.921-.312-2.442-.802-4.207-3.088-4.207-5.784 0-1.834.816-3.474 2.103-4.59a6.082 6.082 0 0 1 2.01-1.162 6.16 6.16 0 0 1 2.02-.347 6.13 6.13 0 0 1 4.851 2.38l.055-.001a8.398 8.398 0 0 0-6.581-4.331 8.837 8.837 0 0 1 8.492-6.369c.431 0 .851.042 1.264.102a8.842 8.842 0 0 1 2.331.664 8.803 8.803 0 0 1 5.146 6.764l.002-.053c0-3.449-1.779-6.484-4.473-8.255a8.996 8.996 0 0 1 7.865-4.611m0-3.047a12.089 12.089 0 0 0-10.177 5.561l-.257-.039a11.95 11.95 0 0 0-1.702-.13c-5.279 0-9.984 3.525-11.44 8.575l-.347 1.202c-.376.24-.736.51-1.076.806a9.114 9.114 0 0 0-3.149 6.883c0 3.951 2.537 7.438 6.312 8.679a9.15 9.15 0 0 0 2.883.464h26.2c.791 0 1.594-.092 2.388-.275 4.835-1.104 8.216-5.327 8.216-10.27 0-3.753-2.037-7.252-5.316-9.132a10.1 10.1 0 0 0-.48-.259v-.075c-.001-6.611-5.409-11.99-12.06-11.99z"/></svg>