<svg xmlns="http://www.w3.org/2000/svg" viewBox="0 0 64 64"><path fill="#8cc63e" d="M59.26 48.43c.94.979.939 2.566 0 3.547l-4.197 4.375c-.939.98-2.463.98-3.402 0l1.343-6.186 6.256-1.736"/><path fill="#64892f" d="M56.636 52.32c5.403-4.49 9.392-11.455-1.703-22.62-8.372-8.426-.95-13.811-.95-13.811s-25.06-.036 2.653 36.431"/><path fill="#c9ac1c" d="M11.301 7.308c-5.062 4.917 1.097 19.636 21.827 39.77 11.325 11 16.85 9.162 21.825 4.156 4.975-5.01 6.804-10.566-4.13-21.964C30.813 8.412 16.188 2.21 11.301 7.308"/><g fill="#ffe62e"><path d="M13.643 6.442c-1.751-1.366-5.26 1.796-2.607 4.03 1.612 1.358 5.279-1.94 2.607-4.03"/><path d="M16.984 9.708c-1.854-1.47-5.374 1.681-2.561 4.074 1.71 1.455 5.39-1.831 2.561-4.074"/><path d="M20.383 13.03c-1.676-1.292-5.176 1.879-2.639 3.994 1.542 1.287 5.199-2.02 2.639-3.994"/><path d="M23.746 16.318c-1.676-1.292-5.176 1.879-2.64 3.995 1.542 1.287 5.201-2.02 2.64-3.995"/><path d="M27.11 19.605c-1.677-1.292-5.177 1.879-2.64 3.995 1.543 1.286 5.201-2.02 2.64-3.995"/><path d="M30.516 22.937c-1.676-1.292-5.176 1.879-2.639 3.995 1.542 1.286 5.199-2.02 2.639-3.995"/><path d="M33.779 26.501c-1.676-1.292-5.176 1.879-2.639 3.995 1.543 1.286 5.2-2.02 2.639-3.995"/><path d="M37.07 29.71c-1.676-1.292-5.176 1.879-2.64 3.995 1.544 1.285 5.201-2.02 2.64-3.995"/><path d="M40.17 32.831c-1.676-1.292-5.176 1.878-2.64 3.994 1.542 1.286 5.2-2.02 2.64-3.994"/><path d="M43.545 36.09c-1.676-1.291-5.176 1.879-2.639 3.994 1.541 1.287 5.199-2.02 2.639-3.994"/><path d="M46.664 39.574c-1.677-1.291-5.177 1.879-2.641 3.994 1.543 1.287 5.201-2.02 2.641-3.994"/><path d="M50.26 42.842c-1.676-1.293-5.176 1.879-2.64 3.994 1.542 1.287 5.2-2.02 2.64-3.994"/><path d="M53.51 46.22c-1.677-1.291-5.177 1.879-2.641 3.994 1.543 1.287 5.2-2.02 2.641-3.994"/><path d="M56.28 49c-1.053-.664-4.479 2.58-2.92 3.713.948.687 4.527-2.699 2.92-3.713M59.53 44.684c.505.869-.824 3.158-1.699 3.645-2.39 1.329.67-5.421 1.699-3.645M32.645 17.533c-1.676-1.292-5.176 1.879-2.64 3.994 1.542 1.286 5.2-2.02 2.64-3.994M37.94 15.821c-1.654-1.314-4.788 1.488-2.275 3.628 1.527 1.302 4.802-1.621 2.275-3.628"/><path d="M41.484 19.253c-1.654-1.314-4.788 1.488-2.275 3.627 1.527 1.302 4.803-1.621 2.275-3.627"/><path d="M45.42 22.516c-1.874-1.488-5.423 1.686-2.577 4.108 1.73 1.474 5.439-1.836 2.577-4.108"/><path d="M49.29 26.409c-1.874-1.488-5.424 1.686-2.577 4.109 1.729 1.474 5.438-1.836 2.577-4.109"/><path d="M52.918 30.368c-1.873-1.488-5.422 1.686-2.576 4.109 1.729 1.472 5.438-1.837 2.576-4.109"/><path d="M56.48 34.861c-1.36-1.964-4.539-.449-2.487 2.676 1.246 1.902 4.567.322 2.487-2.676M36.13 21.04c-1.677-1.292-5.177 1.879-2.641 3.994 1.543 1.286 5.2-2.02 2.641-3.994"/><path d="M39.621 24.554c-1.676-1.292-5.176 1.879-2.639 3.995 1.542 1.285 5.2-2.02 2.639-3.995"/><path d="M43.14 28.09c-1.676-1.292-5.176 1.879-2.64 3.994 1.542 1.286 5.2-2.02 2.64-3.994"/><path d="M46.627 31.603c-1.677-1.292-5.177 1.878-2.641 3.993 1.543 1.287 5.201-2.02 2.641-3.993M50.19 35.19c-1.677-1.293-5.176 1.879-2.64 3.994 1.544 1.286 5.201-2.02 2.64-3.994"/><path d="M53.612 38.633c-1.677-1.293-5.177 1.877-2.64 3.994 1.544 1.285 5.201-2.02 2.64-3.994"/><path d="M57.15 42.19c-1.677-1.291-5.177 1.879-2.641 3.996 1.544 1.286 5.201-2.02 2.641-3.996M29.32 14.186c-1.676-1.292-5.176 1.879-2.64 3.995 1.543 1.286 5.201-2.02 2.64-3.995M34.95 15.486c1.138-1.698-2.097-4.903-3.973-2.324-1.141 1.567 2.235 4.918 3.973 2.324"/><path d="M25.783 11.04c-1.677-1.292-5.177 1.879-2.64 3.994 1.543 1.287 5.201-2.02 2.64-3.994"/><path d="M22.3 8.441c-1.521-1.172-4.696 1.704-2.395 3.624 1.4 1.167 4.717-1.834 2.395-3.624"/><path d="M18.637 6.911c-1.241-1.028-3.232.708-1.339 2.37 1.151 1.01 3.233-.8 1.339-2.37"/><path d="M14.416 5.506c-.608.808.958 2.553 1.957 1.331.607-.744-1.027-2.566-1.957-1.331M16.494 5.286c-.178.362 1.521 1.78 1.971.496.273-.782-1.708-1.034-1.971-.496M18.881 6.02c-.211.432 1.815 2.124 2.352.591.325-.932-2.038-1.233-2.352-.591M21.68 6.802c-.309.368 1.255 2.5 2.142 1.143.537-.826-1.683-1.69-2.142-1.143M58.59 42.48c.863-.086 1.498-4.838-1.354-4.195-1.732.393.075 4.326 1.354 4.195M27.68 9.841c-.799.66.83 4.827 3.303 2.37 1.502-1.495-2.118-3.348-3.303-2.37M24.348 7.974c-.645.532.67 3.896 2.667 1.914 1.214-1.208-1.71-2.705-2.667-1.914M21.541 28.706c-1.285-1.687 1.867-5.209 3.969-2.656 1.279 1.552-2.01 5.232-3.969 2.656M19.84 34.03c-1.306-1.665 1.479-4.818 3.605-2.289 1.293 1.537-1.611 4.832-3.605 2.289"/><path d="M25.03 32.21c-1.284-1.687 1.867-5.209 3.97-2.656 1.278 1.552-2.01 5.233-3.97 2.656"/><path d="M28.518 35.727c-1.283-1.688 1.867-5.208 3.97-2.656 1.278 1.552-2.01 5.232-3.97 2.656M18.215 25.359c-1.284-1.687 1.867-5.209 3.969-2.656 1.279 1.552-2.01 5.233-3.969 2.656M19.507 31.03c-1.688 1.145-4.873-2.111-2.31-3.999 1.559-1.148 4.888 2.249 2.31 3.999"/><path d="M15.09 21.801c-1.283-1.687 1.867-5.208 3.971-2.656 1.277 1.552-2.01 5.232-3.971 2.656"/><path d="M12.506 18.297c-1.165-1.53 1.693-4.726 3.602-2.41 1.16 1.408-1.823 4.747-3.602 2.41"/><path d="M10.986 14.609c-1.021-1.248.703-3.252 2.354-1.346 1.01 1.158-.794 3.253-2.354 1.346"/><path d="M9.589 10.363c.803-.612 2.537.964 1.323 1.969-.739.612-2.55-1.033-1.323-1.969M9.371 12.454c.36-.178 1.77 1.532.493 1.983-.777.275-1.028-1.718-.493-1.983M10.1 14.856c.43-.213 2.11 1.827.588 2.366-.927.328-1.226-2.049-.588-2.366M10.877 17.673c.366-.311 2.485 1.262 1.135 2.154-.82.542-1.678-1.693-1.135-2.154M13.898 23.71c.654-.803 4.795.835 2.354 3.324-1.485 1.512-3.326-2.132-2.354-3.324M12.04 20.357c.529-.649 3.873.674 1.902 2.683-1.201 1.222-2.687-1.72-1.902-2.683"/></g><path fill="#8cc63e" d="M2 30.549s22.259 8.168 30.48 20.902c5.367 8.313 16.137 11.387 22.628.73C35.5 25.706 2 30.549 2 30.549z"/></svg>