<svg xmlns="http://www.w3.org/2000/svg" viewBox="0 0 64 64"><g fill="#83bf4f"><path d="M48.531 38.42c-8.01 0-10.145-6.625-10.145-6.625s2.139-8.259 10.145-8.259c5.517 0 14.469 7.441 14.469 7.441s-8.952 7.443-14.469 7.443M18.027 6.665c6.253 6.351 2.551 13.592 2.551 13.592s-7.746 4.385-14-1.966C2.269 13.915 1 1 1 1s12.718 1.289 17.027 5.665z"/></g><g fill="#75a843"><path d="M63 30.976c-4.974-1.04-10.09-1.581-15.08-1.024-4.946.535-9.854 2.298-13.231 5.7-1.673 1.677-2.945 3.735-3.528 5.925a9.815 9.815 0 0 0-.298 1.641c-.055.567-.043 1.019-.002 1.703l.189 3.815L31.804 64h-5l.755-15.265.189-3.815c.027-.588.054-1.411.186-2.104a12.79 12.79 0 0 1 .539-2.077c.938-2.679 2.635-4.963 4.685-6.738 2.058-1.781 4.474-3.044 6.979-3.862 2.511-.823 5.115-1.21 7.699-1.31 5.182-.191 10.274.745 15.16 2.147"/><path d="M1 1c5.25 3.174 9.967 7.219 14.203 11.693 4.224 4.494 8.02 9.418 11.148 14.805 1.541 2.711 2.972 5.501 3.863 8.655.216.794.389 1.618.458 2.512l.107 2.361.206 4.595L31.809 64h-5l.823-18.38.206-4.595.051-1.149c.014-.366.042-.809.039-1.085a10.746 10.746 0 0 0-.255-2.02c-.613-2.796-1.826-5.595-3.163-8.278-2.729-5.378-6.178-10.44-10.09-15.1C10.494 8.744 6.058 4.471.998 1.004"/></g></svg>