<svg xmlns="http://www.w3.org/2000/svg" viewBox="0 0 64 64"><g fill="#83bf4f"><path d="M15.182 31.385c0 1.66-1.358 3.01-3.03 3.01H10.03A3.02 3.02 0 0 1 7 31.385V18.054c0-5.872 8.182-5.872 8.182 0v13.331"/><path d="M23.418 26.27a3.02 3.02 0 0 1 3.03 3.01v2.105a3.022 3.022 0 0 1-3.03 3.01H10.029a3.02 3.02 0 0 1-3.03-3.01V29.28c0-1.66 1.356-3.01 3.03-3.01h13.389z"/></g><g fill="#699635"><path d="M26.911 28.503v-1.177h-11.03c-.249 0-1.749-.055-1.749-1.764v-7.03c0-4.253-3.046-4.879-3.046-4.879s1.879.76 1.879 4.879v7.742c0 2.23 1.8 2.23 2.212 2.23h11.729"/><path d="M13.423 29.744c-.249 0-1.75-.199-1.75-2.818v-8.395c0-3.337-.583-4.879-.583-4.879s-.584 1.542-.584 4.879v9.106c0 3.284 1.799 3.284 2.212 3.284h14.273v-1.177H13.423"/><path d="M9.211 29.368V18.53c0-4.121 1.88-4.879 1.88-4.879s-3.046.626-3.046 4.879v11.522c0 3.285 2.844 3.285 3.256 3.285h15.692v-1.176h-15.01c-.24.001-2.769-.294-2.769-2.793"/></g><g fill="#83bf4f"><path d="M46.43 47.18c0 2.146 1.756 3.886 3.914 3.886h2.742c2.162 0 3.914-1.74 3.914-3.886V29.959c0-7.584-10.57-7.584-10.57 0V47.18"/><path d="M35.791 40.58c-2.162 0-3.916 1.74-3.916 3.885v2.719c.002 2.146 1.753 3.886 3.916 3.886h17.295c2.162 0 3.914-1.74 3.914-3.886v-2.719c0-2.145-1.752-3.885-3.914-3.885H35.791"/></g><g fill="#699635"><path d="M31.28 43.46v-1.52h14.241c.322 0 2.26-.071 2.26-2.279v-9.08c0-5.494 3.936-6.302 3.936-6.302s-2.43.982-2.43 6.303v10c0 2.881-2.322 2.881-2.855 2.881h-15.15"/><path d="M48.701 45.06c.322 0 2.26-.258 2.26-3.641V30.575c0-4.312.754-6.303.754-6.303s.752 1.992.752 6.302v11.764c0 4.243-2.322 4.243-2.855 4.243h-18.44V45.06h17.529"/><path d="M54.14 44.578v-14c0-5.324-2.428-6.302-2.428-6.302s3.934.808 3.934 6.302v14.886c0 4.243-3.674 4.243-4.205 4.243H31.169v-1.52h19.392c.311.001 3.579-.38 3.579-3.609"/></g><path fill="#83bf4f" d="M39.51 64H22.791V9.999C22.791-2 39.51-2 39.51 9.999V64z"/><g fill="#699635"><path d="M37.373 64V10.971C37.373 2.279 31.15 1 31.15 1s3.84 1.554 3.84 9.972V64h2.383z"/><path d="M32.342 64V10.972C32.342 4.153 31.15 1 31.15 1s-1.192 3.152-1.192 9.971V64h2.384z"/><path d="M27.309 64V10.971C27.309 2.549 31.15 1 31.15 1s-6.224 1.279-6.224 9.971V64h2.383z"/></g></svg>