<svg xmlns="http://www.w3.org/2000/svg" viewBox="0 0 64 64"><path fill="#46a03c" d="M25.43 2c1.12 2.277 2.032 4.655 2.857 7.06a82.447 82.447 0 0 1 2.112 7.338 84.595 84.595 0 0 1 2.206 15.16 80.047 80.047 0 0 1-.652 15.391 77.332 77.332 0 0 1-3.678 15.05l-3.237-1.247c3.844-9.144 5.808-19.11 5.833-29.15a83.366 83.366 0 0 0-1.32-15.02c-.446-2.484-1-4.951-1.679-7.389-.683-2.435-1.454-4.852-2.442-7.188"/><g fill="#4ebd3b"><path d="M35.476 42.01c-4.947 2.152-4.562 7.349-4.562 7.349s3.689 4.398 8.639 2.247c3.411-1.482 7.746-8.459 7.746-8.459s-8.412-2.62-11.823-1.137M32.726 24.673c-3.718 2.964-.563 6.505-.563 6.505s5.666 2.227 9.385-.737c2.564-2.043 2.313-8.242 2.313-8.242s-8.571.431-11.135 2.474M30.834 11.855c-2.782 2.24-.418 4.92-.418 4.92s4.242 1.687 7.03-.553c1.919-1.544 1.728-6.232 1.728-6.232s-6.416.322-8.335 1.865M29.28 33.26c4.703 2.217 2.137 6.15 2.137 6.15s-5.581 3.096-10.285.88c-3.243-1.528-4.43-7.521-4.43-7.521s9.336-1.037 12.578.491M30.603 18.263c2.861 2.863-.071 5.166-.071 5.166s-4.923.905-7.785-1.958c-1.973-1.974-1.245-6.778-1.245-6.778s7.128 1.597 9.101 3.57M30.18 6.573c.938 2.594-1.696 3.416-1.696 3.416s-3.478-.588-4.416-3.183C23.421 5.017 25.427 2 25.427 2s4.106 2.785 4.753 4.573"/></g><g fill="#46a03c"><path d="M31.416 39.41c-.47-.486-1.082-.795-1.669-1.117a27.9 27.9 0 0 0-1.806-.904 92.964 92.964 0 0 0-3.704-1.617c-1.243-.521-2.501-1.01-3.756-1.512l-1.891-.734-1.89-.756c1.329.287 2.635.66 3.93 1.071a47.73 47.73 0 0 1 3.828 1.397c1.253.527 2.493 1.092 3.685 1.756.594.334 1.182.68 1.75 1.059.28.195.556.398.819.615.262.219.531.444.704.742M30.531 23.428c-.295-.463-.468-.982-.734-1.447a10.914 10.914 0 0 0-.832-1.354 13.585 13.585 0 0 0-2.16-2.311c-1.605-1.393-3.447-2.502-5.304-3.624 2.051.708 4.01 1.755 5.683 3.188.827.723 1.582 1.55 2.155 2.5.289.472.528.974.717 1.489.185.518.301 1.048.475 1.559M32.16 31.18c.262-.575.584-1.12.924-1.656.354-.526.739-1.032 1.147-1.52.816-.975 1.764-1.839 2.775-2.61a18.174 18.174 0 0 1 3.27-1.956 22.363 22.363 0 0 1 1.759-.719c.603-.195 1.204-.386 1.822-.518-1.157.503-2.292 1.027-3.38 1.633a27.424 27.424 0 0 0-3.122 2.02 24.701 24.701 0 0 0-2.797 2.447 24.366 24.366 0 0 0-2.398 2.877M30.416 16.775c.283-.928.75-1.8 1.322-2.593a10.636 10.636 0 0 1 2.027-2.126 9.943 9.943 0 0 1 2.554-1.461 8.974 8.974 0 0 1 2.85-.605c-1.858.534-3.576 1.347-5.05 2.521a14.687 14.687 0 0 0-2.033 1.95c-.611.719-1.189 1.48-1.675 2.314M28.486 9.989c-.412-1.413-.688-2.822-1.154-4.167C26.883 4.471 26.279 3.196 25.43 2c.588.441 1.097 1 1.495 1.628.407.625.714 1.309.955 2.01.23.705.397 1.427.493 2.157.105.728.126 1.462.113 2.195M30.914 49.35c.454-.594.995-1.124 1.56-1.623a15.638 15.638 0 0 1 1.84-1.319c1.288-.796 2.691-1.383 4.122-1.856a27.684 27.684 0 0 1 4.39-1.024c.742-.11 1.486-.203 2.231-.274.748-.054 1.494-.109 2.242-.114-.736.135-1.474.248-2.204.395-.733.129-1.464.27-2.188.431-1.45.321-2.89.675-4.293 1.138a25.892 25.892 0 0 0-4.081 1.691 16.692 16.692 0 0 0-3.619 2.555"/></g></svg>