<svg xmlns="http://www.w3.org/2000/svg" viewBox="0 0 64 64"><g fill="#83bf4f"><ellipse cx="17.824" cy="38.31" rx="15.824" ry="15.191"/><ellipse cx="17.824" cy="21.425" rx="14.983" ry="14.383"/><ellipse cx="34.19" cy="16.897" rx="15.52" ry="14.898"/><ellipse cx="48.969" cy="28.533" rx="13.03" ry="12.509"/><ellipse cx="39.508" cy="40.24" rx="13.03" ry="12.51"/></g><g fill="#947151"><path d="M28.928 64.04c.293-4.03-.276-8.242-.925-12.63-.649-4.377-1.362-8.91-1.425-13.519-.083-4.601.549-9.255 2.066-13.553 1.507-4.305 3.809-8.223 6.547-11.717-2.259 3.823-3.979 7.941-4.862 12.187-.892 4.25-.896 8.578-.262 12.81.62 4.245 1.84 8.398 3.067 12.682 1.212 4.265 2.485 8.796 2.793 13.661l-6.999.079"/><path d="M28.359 36.18c2.028.191 4.198.133 6.29-.104 2.104-.244 4.192-.691 6.194-1.406 1.999-.713 3.914-1.699 5.609-3.01a17.272 17.272 0 0 0 4.275-4.792 17.521 17.521 0 0 1-3.955 5.176c-1.634 1.473-3.538 2.649-5.558 3.549-2.02.902-4.16 1.537-6.336 1.961-2.19.415-4.369.654-6.67.616l.151-1.994M27.835 34.811c-1.482-.877-2.775-1.854-4.03-2.933a26.355 26.355 0 0 1-3.421-3.546c-2.038-2.556-3.516-5.654-3.699-8.882.523 3.192 2.263 5.993 4.451 8.223a24.931 24.931 0 0 0 3.592 3.02c1.274.887 2.654 1.708 4.01 2.33l-.899 1.785M29.413 46.21c-1.749-.08-3.342-.384-4.95-.821a21.893 21.893 0 0 1-4.583-1.833c-2.897-1.551-5.35-3.903-6.859-6.736 1.801 2.663 4.406 4.655 7.291 5.835a20.742 20.742 0 0 0 4.48 1.271c1.515.254 3.114.373 4.566.285l.055 1.999"/></g><g fill="#75a843"><path d="M9.808 41.901c0 2.196-1.786 3.976-1.786 3.976s-1.786-1.779-1.786-3.976c0-2.194 1.786-3.974 1.786-3.974s1.786 1.78 1.786 3.974M56.11 33.26c0 2.195-1.785 3.975-1.785 3.975s-1.785-1.779-1.785-3.975 1.785-3.976 1.785-3.976 1.785 1.78 1.785 3.976M14.807 46.971c0 2.196-1.786 3.977-1.786 3.977s-1.785-1.78-1.785-3.977c0-2.195 1.785-3.975 1.785-3.975s1.786 1.779 1.786 3.975M9.808 20.923c0 2.196-1.786 3.976-1.786 3.976s-1.786-1.78-1.786-3.976c0-2.195 1.786-3.975 1.786-3.975s1.786 1.78 1.786 3.975M14.807 15.11c0 2.196-1.786 3.976-1.786 3.976s-1.785-1.78-1.785-3.976c0-2.195 1.785-3.975 1.785-3.975s1.786 1.78 1.786 3.975M40.549 18.02c0 2.196-1.786 3.976-1.786 3.976s-1.786-1.78-1.786-3.976c0-2.195 1.786-3.975 1.786-3.975s1.786 1.779 1.786 3.975M45.46 12.621c0 2.196-1.785 3.975-1.785 3.975s-1.783-1.779-1.783-3.975c0-2.195 1.783-3.975 1.783-3.975s1.785 1.779 1.785 3.975M22.24 35.809c0 2.195-1.785 3.975-1.785 3.975s-1.783-1.779-1.783-3.975 1.783-3.975 1.783-3.975 1.785 1.779 1.785 3.975M16.591 30.658c0 2.196-1.785 3.976-1.785 3.976s-1.783-1.779-1.783-3.976c0-2.195 1.783-3.975 1.783-3.975s1.785 1.78 1.785 3.975M26.05 20.923c0 2.196-1.785 3.975-1.785 3.975s-1.783-1.779-1.783-3.975c0-2.195 1.783-3.975 1.783-3.975s1.785 1.78 1.785 3.975M29.967 14.04c0 2.196-1.785 3.975-1.785 3.975s-1.783-1.779-1.783-3.975c0-2.195 1.783-3.975 1.783-3.975s1.785 1.78 1.785 3.975M35.433 30.658c0 2.196-1.785 3.976-1.785 3.976s-1.783-1.779-1.783-3.976c0-2.195 1.783-3.975 1.783-3.975s1.785 1.78 1.785 3.975M49.02 39.783c0 2.196-1.785 3.976-1.785 3.976s-1.783-1.779-1.783-3.976c0-2.195 1.783-3.975 1.783-3.975s1.785 1.78 1.785 3.975M45.46 23.12c0 2.196-1.785 3.976-1.785 3.976s-1.783-1.779-1.783-3.976c0-2.195 1.783-3.975 1.783-3.975s1.785 1.78 1.785 3.975M39.509 42.995c0 2.196-1.786 3.976-1.786 3.976s-1.785-1.779-1.785-3.976c0-2.194 1.785-3.974 1.785-3.974s1.786 1.78 1.786 3.974M44.21 47.48c0 2.196-1.785 3.976-1.785 3.976s-1.785-1.779-1.785-3.976c0-2.194 1.785-3.975 1.785-3.975s1.785 1.78 1.785 3.975"/></g></svg>