<svg xmlns="http://www.w3.org/2000/svg" viewBox="0 0 64 64"><g fill="#83bf4f"><path d="M45.643 35.02c-9.465-3.094-15.15 15.67-15.15 15.67s3.148 6.191 12.988 7.744c17.646 2.787 18.523-20.907 18.523-20.907s-8.736-.016-16.357-2.507"/><path d="M18.359 35.02c9.467-3.094 15.15 15.67 15.15 15.67s-3.15 6.191-12.986 7.744C2.875 61.221 1.996 37.527 1.996 37.527s8.736-.016 16.359-2.507"/></g><g fill="#ffc7ce"><circle cx="32" cy="18.876" r="13.539"/><circle cx="23.414" cy="41.739" r="13.539"/><circle cx="40.589" cy="41.739" r="13.54"/><circle cx="19.408" cy="27.07" r="13.539"/><circle cx="44.595" cy="27.07" r="13.54"/></g><g fill="#ff506e"><circle cx="32" cy="21.381" r="10.571"/><circle cx="25.296" cy="39.23" r="10.571"/><circle cx="38.706" cy="39.23" r="10.571"/><path d="M32.74 27.778c0 5.839-4.732 10.572-10.572 10.572-5.836 0-10.572-4.732-10.572-10.572 0-5.84 4.736-10.572 10.572-10.572 5.84 0 10.572 4.732 10.572 10.572"/><circle cx="41.835" cy="27.778" r="10.571"/></g><g fill="#ffc7ce"><path d="M30.795 27.325a15.524 15.524 0 0 0-1.07-.298c-2.592-.599-3.936-3.02-5.811-5.186-1.455-1.691-1.479-4.986-.525-7.254.361-.86-.008-1.577 1.01-1.997 2.453-1.014 3.76-3.081 6.525-3.841a8.086 8.086 0 0 1 1.604-.249c-1.57-.109-3.17.062-4.559.661-2.633 1.135-3.641 3.364-5.93 4.707a3.845 3.845 0 0 0-.768.607 3.604 3.604 0 0 0-.949 1.65c-.631 2.379.842 5.499 2.52 6.973 2.152 1.891 3.822 4.095 6.475 4.331.912.08 1.814.27 2.719.44.002-.042.012-.089.014-.132a42.003 42.003 0 0 0-.947-.315c-.105-.033-.205-.066-.308-.097"/><path d="M32.357 27.842c.688-3.682 5.396-8.885 7.809-9.862 1.746-.705 3.578-.588 5.4-.075.996.279 1.992.672 2.965 1.121 2.764 1.273 4.389 4.16 5.311 6.918.465 1.387.822 3.01.893 4.661.234-2.649-.623-5.454-1.684-7.588-1.297-2.605-3.307-5.239-6.219-6.117-1.029-.309-2.066-.561-3.094-.701-1.875-.253-3.705-.117-5.34.823-2.25 1.302-6.191 7.107-6.363 10.848-.021.445 0 .865.096 1.239.105.417.221.755.34 1.052a8.863 8.863 0 0 1-.189-1.079c-.044-.385-.007-.804.075-1.24"/><path d="M50.35 40.532a10.557 10.557 0 0 1-.234-1.669c-.166-2.54.332-3.063-1.27-4.97-1.959-2.32-5.01-2.836-8.605-4.293-3.1-1.258-4.402.879-7.16.659a2.163 2.163 0 0 0-.561.029c-.031.006-.063.019-.092.025.023-.003.051-.01.076-.01.189-.008.379.007.561.048 2.699.601 4.285-1.333 7.18.339 3.363 1.943 6.588 2.895 8.207 5.467 1.324 2.107.479 2.539.291 5.077-.039.558-.049 1.119.002 1.685.281 2.99-3.482 7.449-6.123 9.242.912-.285 1.758-.675 2.469-1.227 2.401-1.857 6-7.279 5.259-10.402"/><path d="M34.527 37.36c-1.137-2.633.328-5.285-2.141-6.265-.092-.037-.197-.065-.301-.095.059.027.123.054.176.084 2.311 1.313.49 3.736 1.25 6.5.76 2.762.605 6.127-.707 8.436-.941 1.656-2.717 2.865-4.664 3.7-.764.328-1.553.605-2.334.82-1.586.436-3.455.677-5.01.373l.057.067c1.635 2.092 5.207 1.412 7.84.277a18.36 18.36 0 0 0 2.195-1.136c1.814-1.097 3.402-2.54 4.107-4.31.982-2.467.669-5.822-.466-8.451M31.445 30.747c-3.168.533-4.141 3.184-6.578 3.886-2.529.728-6.115 1.905-8.514 1.207-1.078-.313-1.869-1.092-2.533-2.078-.813-1.208-1.439-2.735-2.145-4.191-1.676-3.455.381-6.225.938-9.32-.75.473-1.254 1.035-1.191 1.927.244 3.475-1.977 6.774.369 10.271.9 1.344 1.73 2.77 2.705 3.854.793.885 1.682 1.545 2.797 1.707 2.473.359 5.861-1.305 8.262-2.374 2.316-1.034 2.916-3.794 5.98-4.761.111-.035.219-.074.342-.104.297-.077.512-.195.68-.342a1.587 1.587 0 0 1-.758.262c-.123.013-.236.037-.354.056"/></g><path fill="#83bf4f" d="M31.11 32.356l-7.07-9.334 2.578-1.697 7.08 9.334c1.372 1.81-1.339 3.328-2.58 1.697"/><path fill="#fabf49" d="M26.02 20.381h2.809l.885.885 1.346-1.348-1.346-1.347-.885.885H26.02l-.551-.558 2.214-2.215h1.251v-1.906H27.03v1.253l-2.217 2.213-.563-.558V14.88l.89-.884-1.347-1.349-1.349 1.349.885.884v2.805l-.557.558-2.214-2.213v-1.253H18.65v1.906h1.252l2.218 2.214-.561.559h-2.805l-.885-.885-1.348 1.347 1.348 1.348.885-.885h2.807l.559.557-2.218 2.212h-1.251v1.91h1.907v-1.253l2.215-2.214.556.557v2.806l-.885.884 1.349 1.35 1.347-1.35-.89-.884V22.15l.562-.558 2.218 2.215v1.253h1.904v-1.91h-1.251l-2.215-2.213z"/><path fill="#ffd582" d="M27.315 22.16l2.775-.376 1 .756 1.15-1.52-1.514-1.152-.757.998-2.779.381-.626-.477 1.893-2.495 1.238-.175-.261-1.884-1.887.261.17 1.239-1.891 2.494-.626-.475-.386-2.779.756-.997-1.52-1.151-1.151 1.518.997.754.383 2.78-.475.629-2.495-1.891-.169-1.24-1.892.26.262 1.888 1.238-.171 2.492 1.895-.473.626-2.779.384-.998-.757L17.84 23l1.519 1.15.751-.99 2.786-.386.626.476-1.893 2.495-1.237.17.259 1.887 1.888-.259-.171-1.239 1.892-2.496.628.476.382 2.776-.756 1 1.516 1.15 1.15-1.516-.99-.756-.384-2.778.474-.63 2.497 1.892.17 1.239 1.889-.258-.26-1.889-1.239.17-2.495-1.892z"/><path fill="#fc6" d="M28.768 24.742l2.793.278.793.963 1.474-1.209-1.21-1.473-.968.789-2.79-.27-.5-.61 2.422-1.99 1.248.126.18-1.896-1.89-.187-.13 1.245-2.418 1.987-.502-.61.277-2.795.966-.79-1.209-1.473-1.474 1.213.795.96-.274 2.793-.609.501-1.986-2.419.121-1.246-1.898-.187-.185 1.898 1.246.122 1.98 2.419-.604.502-2.792-.273-.795-.97-1.472 1.21 1.21 1.475.966-.795 2.795.275.499.608-2.423 1.987-1.244-.122-.185 1.896 1.895.188.123-1.246 2.422-1.987.497.611-.273 2.79-.968.793 1.21 1.477 1.473-1.21-.794-.97.277-2.792.606-.499 1.989 2.421-.122 1.245 1.9.187.182-1.898-1.242-.122-1.99-2.422z"/></svg>