<svg xmlns="http://www.w3.org/2000/svg" viewBox="0 0 64 64"><path fill="#ef4d3c" d="M61.96 31.649C62.842 46.975 48.851 60 32.093 60S.44 46.182 2.132 30.932C4.513 9.443 20.423 8.006 32.093 8.006c7.097 0 28.153-6.161 29.867 23.643z"/><path fill="#8cc63e" d="M10.979 27.02c6.183-9.639 16.822-6.802 19.621-10.356 0 6.869 4.993 3.536 7.517 6.63 3.245 3.978 4.434 11.11 8.167 12.51-3.676-7.896 2.344-7.589-6.117-18.18 4.459 2.769 6.769-.033 12.854 2.461-5.207-8.51-13.537-6.05-13.537-6.05s5.239-4.785 9.6-2.29c-4.621-6.802-17.863 1.846-17.863 1.846s-5.532-9.468-17.344.444c6.865-2.802 14.545 0 14.545 0s-12.528-3.109-17.443 12.99"/><g fill="#64892f"><path d="M10.979 27.02s7.256-13.467 19.85-12.271c-11.06-5.161-19.85 5.674-19.85 12.271"/><path d="M13.876 14.03s9.208-6.903 17.344 0c-2.442-8.476-14.709-4.511-17.344 0M33.2 14.85c12.17 5.639 8.07 11.963 13.08 20.953-3.34-7.43 4.979-20.953-13.08-20.953"/><path d="M28.421 14.03s2.802-4.161 3.807-9.39c.132-.687 3.07-.627 2.973.069-.955 6.729 1.681 10.449 1.681 10.449s-2.115.718-4.718.718c-2.54 0-3.743-1.846-3.743-1.846"/></g><ellipse fill="#8cc63e" cx="33.714" cy="4.639" rx="1.486" ry=".637"/></svg>