<svg xmlns="http://www.w3.org/2000/svg" viewBox="0 0 64 64"><path fill="#f55" d="M2.098 50.285c16.181 15.627 43.56 15.627 59.806-.063L31.967 2 2.098 50.285z"/><path fill="#ceff80" d="M5.958 44.05l-1.125 1.551C16.682 56 41.724 60.103 59.163 45.527l-1.119-1.526c-15.174 11.478-36.955 11.478-52.08.049"/><path fill="#8cc63e" d="M4.852 45.579L2 50.196c16.199 15.748 43.734 15.748 60-.064l-2.842-4.608c-15.494 12.457-38.857 12.46-54.31.055"/><g fill="#3e4347" fill-rule="evenodd"><path d="M16.01 38.545c-.016-1.293 2.352-4.605 2.352-4.605s2.455 3.425 2.471 4.72c.018 1.296-1.049 2.319-2.381 2.288-1.333-.032-2.426-1.109-2.442-2.403M28.422 43.12c-.016-1.293 2.352-4.605 2.352-4.605s2.455 3.425 2.471 4.72c.018 1.296-1.049 2.32-2.381 2.288-1.335-.032-2.426-1.109-2.442-2.403M36.514 31.536c-.016-1.293 2.354-4.605 2.354-4.605s2.455 3.425 2.471 4.72c.018 1.296-1.049 2.32-2.381 2.288-1.335-.032-2.429-1.109-2.444-2.403M44.727 42.471c-.016-1.293 2.352-4.605 2.352-4.605s2.455 3.424 2.471 4.719c.018 1.296-1.049 2.32-2.381 2.289-1.335-.032-2.427-1.109-2.442-2.403M27.17 20.878c-.016-1.293 2.352-4.605 2.352-4.605s2.455 3.425 2.471 4.72c.018 1.295-1.049 2.319-2.381 2.288-1.335-.032-2.426-1.109-2.442-2.403"/></g><g fill="#64892f"><path d="M28.23 54.722v7.122c2.51.205 5.04.204 7.547-.009v-7.121c-2.51.212-5.04.216-7.547.008M10.552 49.41L8.37 55.242a41.875 41.875 0 0 0 6.729 3.479l2.338-6.244a42.328 42.328 0 0 1-6.885-3.067M53.44 49.37a42.561 42.561 0 0 1-6.881 3.074l2.334 6.234a42.111 42.111 0 0 0 6.727-3.488l-2.18-5.82"/></g></svg>