<svg xmlns="http://www.w3.org/2000/svg" viewBox="0 0 64 64"><path fill="#628c2c" d="M30.19 11.5l.187-1.214c.034.018 3.63 2.104 7.816.709l.245.78c-4.519 1.506-8.099-.193-8.248-.275"/><g fill-rule="evenodd"><ellipse fill="#f29a2e" cx="27.881" cy="38.11" rx="25.881" ry="23.887"/><path fill="#7fb539" d="M21.957 18.891c.172-1.196 4.674-.553 4.674-.553s-.194-2.979.566-3.167c.85-.21 2.131 2.849 2.131 2.849s3.646-1.44 4.091-.485c.384.825-2.531 2.569-2.531 2.569s3.814 3.056 3.049 4.071c-.82 1.088-4.921-2.169-4.921-2.169s-2.563 4.396-3.715 3.769c-1.095-.597.896-5.01.896-5.01s-4.406-.7-4.24-1.873"/></g><g fill="#ffc44a"><path d="M18.618 29.1l-.775.794.775.795.775-.795-.775-.794M12.6 28.639l-.774.797.774.794.775-.794-.775-.797M7.757 28.639l-.775.796.775.795.774-.795-.774-.796M21.953 32.438l-.773.792.773.8.774-.8-.774-.792M18.618 36.521l-.775.799.775.79.775-.79-.775-.799M13.375 36.521l-.775.799.775.79.775-.79-.775-.799M7.382 36.961l-.775.795.775.797.774-.797-.774-.795M15.996 32.631l-.775.797.775.792.774-.792-.774-.797M10.752 32.631l-.774.797.774.792.775-.792-.775-.797M5.51 32.631l-.775.796.775.793.774-.793-.774-.796M21.406 25.564l-.775.796.775.8.774-.8-.774-.796M15.623 25.564l-.775.795.775.801.774-.801-.774-.795M9.978 24.768l-.774.796.774.796.774-.796-.774-.796M19.2 22.494l-.77.796.77.8.779-.8-.779-.796M17 19.49l-.77.796.77.794.779-.794L17 19.49M13.375 21.697l-.775.797.775.796.775-.796-.775-.797M15.996 40.515l-.775.795.775.8.774-.8-.774-.795M10.46 40.514l-.774.796.774.8.775-.8-.775-.796"/></g><path fill-rule="evenodd" fill="#8cc63e" d="M47.41 6.184C53.891 11.589 62 10.085 62 10.085s-13.14 16.486-23.98 9.747c-10.182-6.333 0-21.479 9.39-13.648"/><path fill="#628c2c" d="M30.498 2.842l-1.875.917c2.938 9.327-.676 14.513-1.549 15.359-1.225 1.188 1.609 2.332 2.884.612.265-.356 3.992-5.93.54-16.888"/><ellipse fill="#8cc63e" cx="29.573" cy="3.345" rx=".999" ry="1.344"/><path fill="#7fb539" d="M33.84 11.784c1-.707 2.106-1.269 3.271-1.687a12.036 12.036 0 0 1 3.66-.604c2.508-.028 4.896.743 7.217 1.333 2.319.631 4.665 1.045 7.04.923 2.371-.114 4.711-.773 6.975-1.664-1.049.632-2.166 1.142-3.318 1.574a17.477 17.477 0 0 1-3.598.832c-2.469.309-4.973-.107-7.327-.728-2.358-.627-4.645-1.387-7-1.529-2.358-.158-4.723.481-6.914 1.55"/></svg>