<svg xmlns="http://www.w3.org/2000/svg" viewBox="0 0 64 64"><path fill="#f5f0ae" d="M61.3 29.22C57.756 14.656 41.764 5.436 25.581 8.627 9.401 11.817-.843 26.21 2.702 40.767c3.544 14.565 19.536 23.784 35.717 20.594C54.601 58.17 64.845 43.777 61.3 29.221"/><g fill="#d0d18b"><path d="M29.32 8.34c-.177-.065-.343-.116-.518-.179a33.279 33.279 0 0 0-3.218.47 33.323 33.323 0 0 0-3.139.784c-.13.122-.256.23-.387.356a82.09 82.09 0 0 1 4.247 1.819 71.702 71.702 0 0 1 3.02-3.25M23.372 16.754l4.858 2.755 3.132-4.33-4.785-2.458zM25.343 25.802l5.22 3.298 3.211-4.96-5.185-3.157zM27.717 35.863L33.05 39.3l3.24-5.13-5.326-3.428zM38.665 44.24l-5.219-3.299-3.216 4.955 5.19 3.154zM40.632 53.27l-4.854-2.75-3.132 4.326 4.782 2.454zM34.689 61.67c.171.063.33.111.499.172 1.073-.105 2.15-.258 3.229-.471s2.13-.48 3.153-.789c.126-.117.246-.221.373-.342a83.45 83.45 0 0 1-4.242-1.813 73.17 73.17 0 0 1-3.01 3.243M33.646 14.11l2.803-3.672-4.706-2.041-2.916 3.293zM30.979 19.746l5.191 3.14 2.97-4.532-5.1-2.941zM41.822 27.825l-5.231-3.374-3.165 4.948 5.305 3.427zM44.26 37.859l-5.13-3.379-3.225 5.112 5.175 3.299zM46.22 47.47l-4.8-3-3.25 4.8 4.789 2.78zM43.2 53.38l-3.252 4.01 4.172 1.88 3.33-3.614zM38.902 8.723a33.11 33.11 0 0 0-4.247-.617c1.156.459 2.331.955 3.533 1.52.247-.314.478-.605.714-.903M35.922 14.419l5.064 2.916 2.58-3.938-4.928-2.667zM38.558 23.284l5.174 3.362 2.748-4.616-5.04-3.263zM44.16 28.25l-3.03 4.97 5.06 3.378 2.9-4.948zM51.18 41.37l-4.634-3.16-3.136 5 4.71 3.02zM52.54 50.3l-4.17-2.605-3.24 4.555 4.17 2.32zM46.927 58.42a30.428 30.428 0 0 0 3.532-2.137l-1.054-.543a55.678 55.678 0 0 1-2.478 2.68M46.36 11.309a32.511 32.511 0 0 0-5.218-2.02c-.147.2-.289.388-.441.593a75.18 75.18 0 0 1 4.869 2.655l.79-1.231M46.07 13.807l-2.45 3.908 4.926 3.255 2.253-4.03zM53.587 25.843L49 22.459l-2.61 4.561 4.79 3.392zM51.564 31.987l-2.776 4.886 4.492 3.157 2.59-4.8zM57.47 44.37l-3.92-2.817-2.962 4.807 4.04 2.626zM51.566 54.56c.229.127.44.242.663.363a28.235 28.235 0 0 0 3.806-3.791c-.418-.266-.836-.529-1.276-.811a65.065 65.065 0 0 1-3.193 4.239M52.644 15.415a30.03 30.03 0 0 0-4.514-3.173l-.467.766a74.777 74.777 0 0 1 4.604 3.128c.131-.248.251-.48.377-.721M55.06 24.852l1.829-4-4.14-3.36-2.112 3.98zM59.31 29.631l-3.84-3.296-2.25 4.5 4.13 3.235zM55.22 40.31l3.762 2.82 2.208-4.612-3.524-2.942zM56.44 49.11c.266.178.511.342.768.512a26.163 26.163 0 0 0 2.63-4.578l-.666-.504a64.75 64.75 0 0 1-2.732 4.57M60.933 27.883a25.357 25.357 0 0 0-2.518-5.668 88.848 88.848 0 0 1-1.299 3.118 72 72 0 0 1 3.57 3.287c.09-.254.163-.49.247-.737M61.59 30.606c-.189-.19-.365-.379-.563-.574a64.116 64.116 0 0 1-1.719 4.331c.942.809 1.803 1.584 2.621 2.336.139-2 .04-4.04-.339-6.093M20.79 16.587l3.26-4-4.179-1.887-3.328 3.617zM17.773 22.505l4.798 2.997 3.256-4.802-4.797-2.78zM19.73 32.11l5.128 3.38 3.232-5.108-5.174-3.302zM30.568 40.574L25.26 37.15l-3.09 5 5.232 3.37zM33.01 50.23l-5.187-3.14-2.968 4.527 5.095 2.943zM30.347 55.865l-2.803 3.665 4.706 2.04 2.92-3.29zM17 11.616a29.968 29.968 0 0 0-3.444 2.087c.341.176.673.344 1.027.529A54.346 54.346 0 0 1 17 11.616M11.451 19.674l4.169 2.601 3.248-4.549-4.176-2.324zM12.812 28.603l4.635 3.158 3.141-5-4.718-3.02zM19.836 41.725l3.02-4.973-5.06-3.377-2.899 4.945zM25.437 46.688l-5.176-3.368-2.746 4.623 5.04 3.267zM28.07 55.55l-5.06-2.913-2.582 3.933 4.927 2.67zM25.07 61.27c1.423.305 2.878.516 4.354.629a61 61 0 0 1-3.622-1.555c-.251.323-.489.62-.732.926M12.427 15.411c-.221-.123-.423-.232-.64-.352a28.385 28.385 0 0 0-3.811 3.79l1.259.8a65.489 65.489 0 0 1 3.192-4.238M6.523 25.606l3.918 2.812 2.964-4.808-4.04-2.624zM12.429 37.986l2.777-4.886-4.49-3.157-2.592 4.797zM17.603 42.955l-4.792-3.394-2.405 4.569 4.584 3.38zM17.926 56.17l2.447-3.91L15.447 49l-2.253 4.04zM17.622 58.684a32.467 32.467 0 0 0 5.214 2.02c.154-.205.301-.4.457-.611a75.686 75.686 0 0 1-4.869-2.656c-.278.43-.539.838-.802 1.251M7.551 20.861l-.75-.499a26.303 26.303 0 0 0-2.634 4.577l.652.493a64.998 64.998 0 0 1 2.732-4.571M8.775 29.662L5.01 26.845l-2.201 4.609 3.518 2.942zM4.68 40.34l3.843 3.297 2.252-4.497-4.133-3.242zM8.937 45.12l-1.833 4 4.141 3.36 2.112-3.98zM11.341 54.57a29.956 29.956 0 0 0 4.513 3.178l.477-.783a74.933 74.933 0 0 1-4.604-3.129c-.134.252-.256.49-.386.734M2.068 33.28a24.139 24.139 0 0 0 .334 6.088c.189.193.363.377.561.572a62.904 62.904 0 0 1 1.719-4.332c-.94-.808-1.798-1.58-2.614-2.328M3.06 42.09a25.437 25.437 0 0 0 2.516 5.674c.395-.996.819-2.029 1.303-3.127a73.525 73.525 0 0 1-3.571-3.285c-.091.253-.163.49-.248.738"/></g><g fill-rule="evenodd"><path fill="#8cc63e" d="M35.647 11.847l-11.335.016c.625-.705 2.672-1.72 6.156-1.72 3.157 0 5.095.733 5.179 1.704"/><path fill="#64892f" d="M35.647 11.847c.088.971-2.471 2.52-5.713 2.814-3.241.296-5.938-.773-6.02-1.745-.086-.971 1.387-2.977 6.07-1.508 3.107.974 5.583-.532 5.667.439"/></g><path fill="#64892f" d="M29.26 12.52c-.607-3.518-1.146-4.489-1.891-5.833a29.55 29.55 0 0 1-.805-1.525l1.924-.96c.271.56.518 1.01.748 1.421.818 1.476 1.464 2.639 2.133 6.524l-2.109.373"/><g fill="#8cc63e"><path d="M26.563 5.465l2.208.171c.818 1.476-.182 2.998.487 6.883.001.001-1.95-5.71-2.695-7.05"/><path d="M31.955 6.411c-2.501.228-4.966-.329-7.685-.943-3-.678-6.802-1.297-10.607-1.297-1.544 0-1.618-2.171-.075-2.171 4.912 0 8.02.643 11.149 1.348 3.746.847 6.769 1.554 9.918.231l.72 1.985a11.239 11.239 0 0 1-3.42.847"/></g><ellipse transform="rotate(-19.78 34.923 4.608)" fill="#ceff80" cx="34.927" cy="4.607" rx=".665" ry="1.066"/></svg>