<svg xmlns="http://www.w3.org/2000/svg" viewBox="0 0 64 64"><path fill="#ffc800" d="M24.45 42.517c-1.975.346-3.95.688-5.926 1.034a122.303 122.303 0 0 1 0-42.07l5.922 1.054a116.384 116.384 0 0 0 .004 39.979"/><path fill="#ffd41f" d="M29.951 42.532c1.975-.311 3.95-.622 5.925-.938-3.975-11.638-5.973-24.21-5.652-37.16a131.773 131.773 0 0 0-6.089 2.343c.011 12.43 2.039 24.498 5.816 35.759"/><g fill="#ffe62e"><path d="M16.382 39.547l5.904-1.03c-3.829-11.234-5.751-23.371-5.438-35.872a114.687 114.687 0 0 0-6.222 3.1c.139 11.756 2.141 23.16 5.756 33.802M39.92 42.03l5.651-.986c.982-11.596 4.076-22.415 8.75-31.976a328.902 328.902 0 0 0-6.602-.189c-4.384 10.08-7.135 21.287-7.799 33.15"/><path d="M13.252 40.4l5.03-.879c-4.93-7.228-8.703-15.89-10.676-25.601a78.23 78.23 0 0 0-5.598 4.145C4.632 26.51 8.522 34.028 13.248 40.4M45.41 38.474c1.855-.324 3.71-.647 5.564-.972 2.178-9.921 6.04-18.813 11.02-26.344a109.36 109.36 0 0 1-5.096-3.215c-5.473 8.765-9.535 19.09-11.484 30.531M38.42 42.517c-1.976.346-3.95.688-5.925 1.034a116.71 116.71 0 0 1 0-40.13c1.974.353 3.947.703 5.922 1.055a110.722 110.722 0 0 0 .003 38.04"/></g><path fill="#ffc800" d="M48.649 39.517c-1.976.346-3.95.688-5.926 1.034-2.07-11.865-2.07-24 0-35.866 1.87.943 3.752 1.854 5.645 2.73a98.325 98.325 0 0 0 .281 32.1"/><path fill="#ffe62e" d="M25.783 41.469l-5.908-1.127a83.38 83.38 0 0 0 0-31.27 88.168 88.168 0 0 1 6.667 3.511 89.455 89.455 0 0 1-.759 28.889"/><g fill="#ffc800"><path d="M18.15 40.53l-5.748-1.098C11.188 27.6 7.594 16.755 2.352 7.476a353.62 353.62 0 0 1 6.91-.497c4.926 9.973 8.095 21.348 8.89 33.551M39.35 39.35c-1.463-.278-2.927-.559-4.39-.838 7.423-7.128 13.693-16.741 17.546-28.331a81.156 81.156 0 0 1 5.196 4.1c-4.646 10.236-11.07 18.694-18.352 25.07"/></g><g fill="#ffd41f"><path d="M40.581 38.1c-1.971.344-3.939.688-5.909 1.03-.448-10.229.929-20.229 3.892-29.553a89.301 89.301 0 0 0 4.893 4.192A79.31 79.31 0 0 0 40.581 38.1M21.815 35.638c-1.941.338-3.885.678-5.826 1.018-3.598-6.618-6.11-14.23-7.109-22.502 2.087.663 4.182 1.299 6.281 1.907 1.07 7.215 3.41 13.833 6.654 19.577"/></g><path fill="#ffc800" d="M29.897 44.02a90.46 90.46 0 0 1-5.76-1.604 71.945 71.945 0 0 1 1.145-22.21 73.261 73.261 0 0 0 4.412 3.918 66.816 66.816 0 0 0 .203 19.894"/><path fill="#ffd41f" d="M53.57 40.04c-1.735.304-3.473.605-5.209.909 1.719-8.844 5.074-16.758 9.494-23.393a63.067 63.067 0 0 0 3.979 3.878c-3.609 5.328-6.49 11.597-8.264 18.606"/><g fill="#ffe62e"><path d="M40.23 41.633a829.538 829.538 0 0 1-5.928-.889c3.487-7.198 5.676-15.39 6.119-24.14a68.06 68.06 0 0 1 6.135 4.103c-1.017 7.534-3.212 14.591-6.326 20.931M50.701 37.531c-1.38-.162-2.757-.331-4.134-.509 2.66-5.727 4.283-12.199 4.539-19.08a52.355 52.355 0 0 1 4.256 3.194c-.699 5.876-2.317 11.401-4.661 16.394"/></g><path fill="#ef4d3c" d="M46.591 27.916c0 5.351-6.557 9.688-14.641 9.688-8.08 0-14.639-4.338-14.639-9.688H4.201l4.529 30.1c8.672 6 37.762 6 46.43 0l4.527-30.1h-13.1"/><g fill="#ab2d1f"><path d="M33.09 55.715l-.606.349a.38.38 0 0 0-.34-.228h-.381a.381.381 0 0 0-.339.228l-.606-.349-1.457-.834v3.336l1.457-.834.606-.349a.375.375 0 0 0 .339.229h.381a.381.381 0 0 0 .34-.229l.606.349 1.455.834v-3.336l-1.455.834M29.687 50.997c.244.382.584.659.979.852.395.188.84.284 1.287.284a3 3 0 0 0 1.287-.286c.395-.189.734-.468.978-.85.054.445-.177.934-.606 1.277-.424.35-1.041.554-1.657.552-.617.002-1.233-.203-1.658-.554-.433-.341-.663-.83-.61-1.275"/><path d="M38.4 46.54v-.122c0-.094-.01-.112-.063-.139a2.088 2.088 0 0 0-.504-.189 6.4 6.4 0 0 0-11.762 0 2.73 2.73 0 0 0-.229.068 1.868 1.868 0 0 0-.274.121c-.053.026-.063.045-.063.139v.122c0 .229-.026.141.136.234.055.031.104.07.147.119a6.41 6.41 0 0 0-.232 1.72 6.396 6.396 0 1 0 12.792 0c0-.597-.08-1.173-.232-1.722a.705.705 0 0 1 .148-.117c.165-.093.136-.005.136-.234m-6.446-3.568a5.64 5.64 0 0 1 4.973 2.977 13.001 13.001 0 0 0-2.093-.012c-.792.067-1.453.246-1.993.522-.508.254-1.267.254-1.772 0-.541-.276-1.203-.455-1.994-.522a12.76 12.76 0 0 0-2.092.012 5.632 5.632 0 0 1 4.971-2.977m0 11.283a5.644 5.644 0 0 1-5.644-5.642l.002-.128c.199.755.646 1.242 1.313 1.494.716.27 1.519.26 2.229-.024a2.089 2.089 0 0 0 1-.801c.477-.699.332-1.138.578-1.738.215-.522.816-.522 1.031 0 .244.603.104 1.039.578 1.738.271.399.614.646 1 .801a3.096 3.096 0 0 0 2.23.024c.668-.252 1.113-.739 1.313-1.494l.002.128a5.64 5.64 0 0 1-5.64 5.642"/></g></svg>