<svg xmlns="http://www.w3.org/2000/svg" viewBox="0 0 64 64"><path fill="#e7a74f" d="M61.999 44.46c0 12-10.864 17.543-29.814 17.543-18.951 0-29.816-5.539-29.816-17.543 0-17.545 59.63-17.545 59.63 0"/><path fill="#ba8443" d="M61.84 36.21c0 12.01-10.807 17.545-29.654 17.545-18.849 0-29.656-5.539-29.656-17.545 0-17.544 59.31-17.544 59.31 0"/><path fill="#826046" d="M2.369 36.52c0-4.964 5.897-11.94 29.816-11.94s29.814 6.976 29.814 11.94c0 9.07-8.38 15.705-29.814 15.705-21.435 0-29.816-6.633-29.816-15.705"/><path fill="#68472c" d="M3.03 31.29c0-4.965 5.766-11.94 29.16-11.94 23.393 0 29.16 6.976 29.16 11.94 0 9.07-8.195 15.706-29.16 15.706S3.03 40.361 3.03 31.29"/><path fill="#ef4d3c" d="M3.153 24.841c1.448-3.02 5.106-3.195 17.15 1.946 12.04 5.141 14.322 7.847 12.875 10.871-2.647 5.531-9.679 9.6-20.471 4.992S.504 30.372 3.153 24.841"/><path fill="#d33b23" d="M4.173 21.391c1.448-3.02 5.106-3.196 17.15 1.946 12.04 5.141 14.322 7.847 12.874 10.871-2.648 5.53-9.678 9.601-20.471 4.992C2.934 34.593 1.524 26.921 4.173 21.391"/><path fill="#ef4d3c" d="M29.25 34.523c-.793-3.233 2-5.466 14.879-8.284 12.876-2.818 16.428-1.975 17.221 1.259 1.452 5.912-1.519 13.175-13.06 15.701-11.538 2.526-17.59-2.763-19.04-8.676"/><path fill="#d33b23" d="M28 31.26c-.794-3.233 2-5.467 14.88-8.284 12.873-2.818 16.426-1.975 17.22 1.259 1.451 5.912-1.519 13.175-13.06 15.701C35.502 42.46 29.449 37.172 28 31.26"/><path fill="#ffe62e" d="M9.678 30.924l20.07 19.19 19.512-19.19z"/><path fill="#8cc63e" d="M60.729 25.869s.856 3.393-.019 4.37c-.779.871-3.343-.073-4.4.703-.952.698-.716 3.389-1.867 3.997-1.056.556-3.208-1.116-4.412-.646-1.12.438-1.512 3.118-2.745 3.475-1.164.335-2.959-1.708-4.21-1.452-1.193.243-2.02 2.827-3.277 2.992-1.213.158-2.691-2.121-3.957-2.041-1.224.078-2.393 2.529-3.657 2.529-1.263 0-2.432-2.451-3.656-2.529-1.265-.08-2.745 2.2-3.957 2.041-1.261-.165-2.084-2.749-3.277-2.992-1.251-.256-3.049 1.787-4.213 1.451-1.233-.355-1.626-3.036-2.746-3.475-1.204-.471-3.356 1.201-4.412.645-1.153-.608-.916-3.3-1.868-3.998-1.06-.776-3.622.167-4.402-.704-.874-.977-.015-4.368-.015-4.368l57.09.002"/><path fill="#e7a74f" d="M61.999 23.445c0 6.481-13.349 9.723-29.814 9.723-16.466 0-29.816-3.242-29.816-9.723C2.369 11.602 15.718 2 32.185 2c16.465 0 29.814 9.602 29.814 21.445"/><g fill="#ffc17a"><path d="M16.261 14.449l-1.514 1.5-1.514-1.5 1.514-1.5 1.514 1.5M23.725 11.984l-1.515 1.5-1.513-1.5 1.513-1.5 1.515 1.5M27.96 18.833l-1.514 1.5-1.513-1.5 1.513-1.5 1.514 1.5M33.19 13.449l-1 1-1.01-1 1.01-1 1 1M51.949 17.333l-1.01 1-1.01-1 1.01-1 1.01 1M58.08 18.333l-1.01 1-1.01-1 1.01-1 1.01 1M46.42 10.984l-1.01 1-1.01-1 1.01-1 1.01 1M15.893 9.734l-1.01 1-1.01-1 1.01-1 1.01 1M10.508 14.449l-1.01 1-1.01-1 1.01-1 1.01 1M16.766 21.05l-1.01 1-1.01-1 1.01-1 1.01 1M28.465 5.734l-1.01 1-1.01-1 1.01-1 1.01 1M37.989 4.734l-1.01 1-1.01-1 1.01-1 1.01 1M22.21 6.734l-1.01 1-1.01-1 1.01-1 1.01 1M50.874 9.109l-1.01 1-1.01-1 1.01-1 1.01 1M40.01 21.673l-1.516 1.497-1.514-1.497 1.514-1.503 1.516 1.503M37.637 13.984l-1.517 1.5-1.511-1.5 1.511-1.5 1.517 1.5M43.22 8.234l-1.519 1.5-1.511-1.5 1.511-1.5 1.519 1.5M47.576 14.652L46.06 16.15l-1.511-1.498 1.511-1.5 1.516 1.5M53.968 12.484l-1.518 1.5-1.51-1.5 1.51-1.5 1.518 1.5M49.09 21.268l-1.513 1.5-1.517-1.5 1.517-1.5 1.513 1.5M12.526 18.673L11.01 20.17l-1.511-1.497 1.511-1.503 1.516 1.503"/></g></svg>