<svg xmlns="http://www.w3.org/2000/svg" viewBox="0 0 64 64"><path fill="#94989b" d="M57.977 49.2c0 7.07-11.627 12.797-25.977 12.797-14.351 0-25.974-5.729-25.974-12.797 0-7.06 11.623-12.795 25.974-12.795 14.35 0 25.977 5.731 25.977 12.795"/><path fill="#c7d7d7" d="M62 43.987c0 8.649-13.43 15.658-30 15.658-16.567.001-29.999-7.01-29.999-15.658 0-8.645 13.432-15.655 29.999-15.655 16.571.001 30 7.01 30 15.655"/><path fill="#94989b" d="M56.701 42.65c0 5.758-11.06 10.428-24.701 10.428-13.639 0-24.699-4.67-24.699-10.428 0-5.752 11.06-10.421 24.699-10.421 13.645 0 24.701 4.669 24.701 10.421"/><path fill="#d3976e" d="M50.21 50.55c-2.811.508-3.262 3.717-11.424 2.92-3.787-.369-5.966.82-10.716 1.184S-1.779 50.199 8.362 38.71c10.143-11.488 48.39-6.244 48.813 1.219.42 7.463-4.733 10.218-6.965 10.621"/><path fill="#839391" d="M8.431 19.388c-.895.569.234.658.234.658s10.181-3.482 10.657-2.533c.477.951-10.335 3.967-10.11 5.214.209 1.163 10.965-3.407 11.221-2.375.252 1.033-9.813 4.835-9.813 4.835s-.808.786.248.655c12.957-1.611 17.05-5.543 17.05-5.543s.895-.734.572-1.611c-.029-.078 28.414-10.23 32.23-11.605 1.855-.667-.059-5.691-1.912-5.02-3.82 1.375-32.21 11.682-32.23 11.603-.322-.875-1.482-.869-1.482-.869s-5.693-.41-16.667 6.595"/><g fill="#ffe299"><path d="M57.58 39.762c-.334-2.107-2.672-3.959-7.117-5.638-2.621-2.118-6.346-2.702-8.559-2.85a25.26 25.26 0 0 0-6.205.357c-.922.104-1.949-.852-2.701-.631-4.257-1.199-8.188 1-11 1-3 0-15 2-14.853 8.204-.542.738-3.147 2.796.897 4.348-1.033 1.074-1.173 2.153-1.097 2.878.172 1.623 1.506 3.056 3.966 4.256 3.74 1.828 6.904 2.423 9.36 2.38C23.998 54 25.758 57.84 33.998 57l-1-2c-.059.022-3 0-6-1.976.063-.021 17.797-1.233 20.01-1.477C51.999 51 55.642 46.924 55.999 45c.264-1.419 1.766-4.082 1.582-5.238m-31.26-5.938c.289.048-5.93 2.626-9.321 4.176l.583-2.58.053-.026c2.48-.752 5.378-1.326 8.685-1.57m17.398 15.849s-1.184-1.251-1.1-1.462a43.33 43.33 0 0 0 3.748-.656c-.527.903-1.49 1.653-2.648 2.118m-.164.066c-.063.023-.127.044-.191.066.062-.021.126-.042.191-.066m-18.537-5.418c.395.086 8.74 2.01 11.757 2.453C35 48 29 49 25.018 44.321M15.998 51s-2.137-2.9-2-4c.671.559 3.053 1.307 4 1.482.073.187 1.586 2.941 1.996 3.518-2 0-4-1-4-1m1.136-7.234a7.59 7.59 0 0 0 .197 2.202c-1.773-.402-3.299-1.112-4.333-1.968 1.023-.298 2.413-.403 4.136-.234M38.994 33c6 2 9.756 4.846 10 5-.168.371.152 1.571 0 2-.805-.4-7-5-11-6 .713-.133 1-1 1-1m9 11c.486-.407 3-3 3-3h2c.557 0-2.684 3.596-3 4-.303-.14-1.697-.895-2-1m-.883 4.229c.174-.309.301-.625.395-.945.496-.126.98-.259 1.451-.398.266.471.588.929.961 1.367-.809.391-1.754.786-2.861 1.176-.475.167-.957.324-1.441.473.626-.478 1.142-1.045 1.495-1.673m-35.25-8.05a5.203 5.203 0 0 0-.616 1.066 7.455 7.455 0 0 1-1.818-.541 4.92 4.92 0 0 1-.889-.513c.776-.759 1.896-1.586 3.323-2.39v2.378m-.829 6.826c.092-.431.389-.841.881-1.185-.252 1.368.234 2.924 1.332 4.306-.083-.027-.159-.062-.24-.091-1.551-1.047-2.145-2.228-1.973-3.03m7.95-3.193c.941.192 5.913 3 6.946 3.286-.949.041-4.932-.097-6.932-1.097a4.187 4.187 0 0 1-.014-2.189m21.315 4.631c-.051.377.02.742.219 1.026.43.616-.756.832-2.35.01-.523-.271-.748-.583-.828-.894a40.266 40.266 0 0 0 2.959-.142m11.543-1.276a10.846 10.846 0 0 1-.801-.981c.316-.119.621-.242.916-.367.459.119.803.274 1.039.439a8.256 8.256 0 0 1-1.154.909m-30.359 3.078c-.695-.271-1.043-.979-1.389-1.525 6.904-.719 15.06 1.844 15.904 2.281.102.052-10 1-14.515-.756m33.628-7.489c.887-2.755-3.045-5.666-3.113-5.755 1 0 5 2 3.113 5.755"/><path d="M13 35V20.307c0-.41-.56-.743-1.25-.743s-1.25.333-1.25.743V36l2.5-1M15.973 42V15.222c0-.41-.56-.743-1.25-.743s-1.25.333-1.25.743V42h2.5M18.942 26.895c.69 0 1.25-.333 1.25-.743V13.403c0-.41-.56-.743-1.25-.743s-1.25.333-1.25.743v12.749c0 .411.559.743 1.25.743"/></g><path fill="#ec6430" d="M15.16 41.09c1.048 1.953 2.451.843 3.152 3.01.699 2.161 2.439-.16 3.902 1.149s5.506.642 7.162.935c1.656.294 1.895-.927 3.88-.255 1.985.673 1.741-1.928 6.384-.166 1.478.561 1.119-1.73 3.594-1.09 2.473.641.689-1.852 3.795-1.653 3.107.197-2.395-6.266-5.064-5.487-2.673.776-5.968-4.532-9.968-4.532-8.246 0-18.19 5.574-16.837 8.094"/><g fill="#8cc63e"><path d="M21.5 36.5l-.75 1.5.75 1.5.75-1.5zM24.5 34l-.5 1 .5 1 .5-1zM27.5 37l-.5 1 .5 1 .5-1zM28.5 32.5l-.75 1.5.75 1.5.75-1.5zM31.5 35.5l-.75 1.5.75 1.5.75-1.5zM34.5 33l-.5 1 .5 1 .5-1zM37.5 37l-.5 1 .5 1 .5-1zM40.5 36.5l-.75 1.5.75 1.5.75-1.5zM44.5 39l-.5 1 .5 1 .5-1zM34.5 39l-.5 1 .5 1 .5-1zM30.5 41l-.5 1 .5 1 .5-1zM24.5 39l-.5 1 .5 1 .5-1zM18.5 38l-.5 1 .5 1 .5-1z"/></g></svg>