<svg xmlns="http://www.w3.org/2000/svg" viewBox="0 0 64 64"><path fill="#ddd" d="M28.362 35.635c-4.511-4.512-10.495 7.04-15.06 7.599-2.093.257-6.226-2.2-9.556 1.129a5.96 5.96 0 0 0 5.993 9.902 5.955 5.955 0 0 0 1.469 5.991 5.963 5.963 0 0 0 8.43.001c3.33-3.332.874-7.466 1.128-9.559.562-4.563 12.11-10.551 7.597-15.06"/><path opacity=".15" d="M22.924 46.94l1-1.106 1.94-6.664-7.655.864-1.24 1.12 2.877.717c-1.838 2.268-3.048 4.252-3.048 4.252s3.274.08 5.571-.352l.553 1.169"/><g fill="#fff"><path opacity=".4" d="M11.534 58.746c-.575-2.98.598-5.876 2.778-7.58-.062.01-.121.004-.182.016-2.511.485-4.141 2.989-3.639 5.589a4.91 4.91 0 0 0 1.113 2.268c-.021-.099-.051-.193-.07-.293M3.846 49.816c-.415-2.152.432-4.242 2.01-5.473-.044.007-.087.004-.131.012-1.813.35-2.989 2.158-2.627 4.03.123.633.415 1.186.804 1.637-.017-.07-.039-.138-.052-.211"/></g><path fill="#a8693f" d="M54.46 35.437c20.58-20.58-5.319-46.48-25.899-25.9-8.229 8.229-6.696 18.17-8.313 25.971-.575 2.765-3.038 4.829-3.038 4.829s1.708.646 3.646 1c-1.615 1.994-2.682 3.737-2.682 3.737s2.403.224 4.854-.313c.314 1.175.636 2.025.636 2.025s2.063-2.465 4.827-3.039c7.797-1.621 17.74-.086 25.969-8.313"/><g fill="#c28d69"><path d="M41.43 19.559l-1.05-1.05 1.051-1.05 1.049 1.05zM44.693 13.635l1.05-1.05 1.048 1.05-1.05 1.05zM37.349 24.13L36.3 23.08l1.05-1.05 1.049 1.05zM32.476 29.003l-1.05-1.05 1.05-1.049 1.049 1.049zM34.1 10.785l-1.05-1.05 1.05-1.049 1.05 1.05zM29.798 15.528l-1.049-1.049 1.049-1.049 1.048 1.05zM26.542 21.314l-1.05-1.049 1.049-1.049 1.05 1.049zM38.312 5.958l1.05-1.05 1.05 1.049-1.05 1.05zM35.509 17.367l-1.05-1.05 1.049-1.05 1.05 1.05zM41.419 12.569l-1.484-1.485 1.485-1.483 1.483 1.484zM26.201 27.72l-1.049-1.049 1.05-1.05 1.05 1.05zM31.64 23.762l-1.483-1.485 1.484-1.483 1.484 1.484zM45.34 6.487l1.051-1.05 1.049 1.05-1.051 1.05z"/></g></svg>