<svg xmlns="http://www.w3.org/2000/svg" viewBox="0 0 64 64"><path fill="#8e6244" d="M34.37 9.09c0-2.301-3.408-2.735-3.408-.487 0 2.635-1.361 3.594-1.361 5.01 0 1.767 4.02 2.084 4.02.204-.001-1.863.752-1.602.752-4.727"/><path fill="#a87451" d="M33.09 8.8c2.766 0-2.296-3.595-2.296-.279 0 2.635-1.89 3.872-1.068 5.59 1.787-2.244.454-5.311 3.364-5.311"/><path fill="#ff9463" d="M4.45 32.674c-.002-16.204 13.203-26.1 27.24-18.526C45.971 6.944 61.99 16.47 62 32.673c0 14.55-7.967 22.693-17.972 26.416-3.616 1.346-10.378 2.978-14.246 2.909-2.818-.051-2.749-1.469-5.444-2.27C13.453 56.497 4.45 48.141 4.45 32.678"/><path fill="#8cc63e" d="M32.433 8.34a.374.374 0 0 1-.309-.184c-1.995-2.979-3.935-2.295-3.935-2.295l-.205-1.017s2.44-.838 4.759 2.627c.148.22.129.552-.043.741a.358.358 0 0 1-.267.128"/><g fill-rule="evenodd"><path fill="#7fb539" d="M24.294 2.056C14.318 1.104 4.046 12.597 4.046 12.597s6.98-2.646 13.05-1.371c6.144 1.29 11.451-6.01 11.451-6.01s-1.43-2.892-4.248-3.162"/><path fill="#8cc63e" d="M14.998 10.015C9.804 17.014 2 21.033 2 21.033s14.858 1.539 23.912-8.849c2.556-2.935 2.63-7.128 2.63-7.128s-8.279-2.132-13.544 4.959z"/></g><path fill="#7fb539" d="M28.542 5.056c-1.046.198-2.164.541-3.316 1a23.192 23.192 0 0 0-3.511 1.857c-2.345 1.494-4.451 3.373-6.522 5.107-2.067 1.758-4.189 3.407-6.424 4.766-2.23 1.361-4.516 2.393-6.769 3.245 1.078-.268 2.201-.65 3.343-1.095a32.213 32.213 0 0 0 3.49-1.689c2.352-1.309 4.621-3.055 6.721-4.827 2.103-1.78 4.116-3.591 6.293-5.092a25.137 25.137 0 0 1 6.695-3.274"/><path fill="#d97448" d="M40.48 33.873c.423 3.576.253 7.13-.701 10.508-.988 3.367-2.833 6.521-5.847 9.205a16.17 16.17 0 0 0 8.916-8.209c1.718-3.533 2.172-7.488 1.707-11.41-.485-3.926-1.879-7.88-4.269-11.54-2.341-3.618-5.777-7.125-10.292-9.112 3.491 2.973 5.726 6.386 7.404 9.872 1.623 3.507 2.65 7.107 3.082 10.686"/></svg>