<svg xmlns="http://www.w3.org/2000/svg" viewBox="0 0 64 64"><g fill-rule="evenodd"><path fill="#d33b23" d="M61.04 39.21c3.747 10.468-4.113 18.43-12.85 19.867-8.734 1.438-18.36-3.579-18.79-14.661-.567-14.688 10.08-12.955 13.93-13.588 6.292-1.036 12.927-4.978 17.71 8.382"/><path fill="none" stroke="#83bf4f" stroke-width="2" stroke-miterlimit="10" d="M45.08 33.988c-2.091-2.36-10.558-9.956-7.661-25.04"/><path fill="#ef4d3c" d="M38.542 42.16C40.717 54.547 30.402 62 20.362 62S.532 54.623 2.182 42.16c2.19-16.52 13.759-12.625 18.18-12.625 7.231 0 15.404-3.186 18.18 12.625"/><path fill="none" stroke="#9fc427" stroke-width="2" stroke-miterlimit="10" d="M20.362 33.05c0-4.091 5.953-25.487 34.11-30.05"/></g><path fill="#ce0f00" d="M13.252 31.576c2.254.337 4.364.67 6.507.902 1.068.12 2.134.203 3.212.27 1.08.057 2.163.066 3.314.086-.994.586-2.12.918-3.255 1.083a13.136 13.136 0 0 1-3.436.052 14.45 14.45 0 0 1-3.333-.77c-1.069-.384-2.118-.883-3.01-1.623"/><path fill="#a51000" d="M38.453 34.794l5.64-1.309c.916-.223 1.82-.469 2.734-.725l2.795-.872c-.622.818-1.449 1.455-2.338 1.949a11.09 11.09 0 0 1-2.835 1.104 12.2 12.2 0 0 1-3.01.353c-1.01-.006-2.031-.12-2.99-.5"/><path fill-rule="evenodd" fill="#64892f" d="M46.32 7.097c-3.82 8.894 9.326 21.2 9.326 21.2s-1.321-9.304 2.224-17.618c2.199-5.162-3.397-8.677-3.397-8.677s-6.236.636-8.153 5.097"/></svg>