<svg xmlns="http://www.w3.org/2000/svg" viewBox="0 0 64 64"><g fill="#ddd"><path d="M26.514 42.63l-5.66-5.168s-6.32 6.437-8.08 6.652c-1.994.244-5.934-2.098-9.107 1.077a5.675 5.675 0 0 0 0 8.03 5.683 5.683 0 0 0 5.712 1.403 5.679 5.679 0 0 0 1.401 5.71 5.678 5.678 0 0 0 8.03.001c3.174-3.176.832-7.115 1.075-9.109-.126-2.188 6.628-8.598 6.628-8.598M42.63 26.513l-5.168-5.66s6.437-6.32 6.652-8.08c.244-1.994-2.097-5.934 1.076-9.106a5.673 5.673 0 0 1 8.03 0 5.68 5.68 0 0 1 1.403 5.711 5.676 5.676 0 0 1 5.71 9.431c-3.175 3.173-7.114.832-9.108 1.075-2.188-.127-8.598 6.627-8.598 6.627"/></g><path fill="#a86332" d="M31.874 10.63c-3.152.764-20.48 18.09-21.242 21.242-1.186 4.886 16.612 22.681 21.496 21.495 3.146-.762 20.476-18.09 21.241-21.241 1.184-4.882-16.612-22.681-21.495-21.496"/><g fill="#e6b858"><path d="M14.614 31.925l-1 1 1 1 1-1-1-1M17.948 33.3l-1 1 1 1 1-1-1-1M36.614 19.808l1-1 1 1.001-1 1z"/></g><path fill="#e6d0a3" d="M34.363 16.667l-1.5-1.5 1.5-1.5 1.5 1.5z"/><path fill="#e6b858" d="M33.076 20.044l-1-1 1.001-1 1 1z"/><g fill="#e6d0a3"><path d="M31.869 14.674l-1-1 1-1 1 1zM23.019 24.52l-1 1-1-1.001 1-1z"/></g><g fill="#e6b858"><path d="M25.518 27.158l1.5 1.5-1.5 1.5-1.5-1.5zM28.016 29.158l1 1-1 1-1-1z"/></g><g fill="#804c26"><path d="M44.2 38.811l-1 1 1 1 1-1-1-1M40.945 40.06l-1.5 1.501 1.5 1.499 1.505-1.499-1.505-1.501M39.21 36.09l-1 1 1 1 1-1-1-1M30.782 47.37l-1.502 1.503 1.502 1.497 1.498-1.497-1.498-1.503M28.548 42.901l-.999 1 1 1 1-1-1-1M27.855 46.45l-1 1 1 1 1-1-1-1M47.518 29.21l-1 1 1 1 1-1-1-1M50.637 29.943l-1 .999 1 1 1-1-1-1M42.945 35.561l-1 1 1 1 1-1-1-1"/></g><g fill="#e6b858"><path d="M49.803 37.481L22.92 17.792l1.551-1.551 26.19 20.382zM37.38 49.727l-23.01-23.01.774-.87 23.819 22.617z"/></g><g fill="#804c26"><path d="M38.825 48.877l-24.04-22.951.771-.866 25.908 20.756zM49.22 38.07L20.735 19.356l2.335-2.336 27.17 20.44z"/></g><g fill="#fff"><path opacity=".4" d="M11.649 59.833c-.576-2.981.598-5.876 2.777-7.58-.061.009-.121.004-.182.016-2.51.485-4.141 2.989-3.639 5.589a4.935 4.935 0 0 0 1.113 2.268c-.02-.099-.051-.193-.069-.293M3.959 50.903c-.414-2.152.432-4.243 2.01-5.473-.043.007-.086.003-.131.011-1.813.351-2.988 2.158-2.627 4.03.123.634.416 1.186.805 1.637-.017-.07-.039-.138-.053-.21M59.84 11.411c-2.98-.575-5.877.598-7.58 2.778.009-.062.004-.121.016-.182.484-2.511 2.988-4.141 5.588-3.639a4.901 4.901 0 0 1 2.268 1.113c-.099-.022-.193-.052-.292-.07M50.91 3.722c-2.152-.415-4.242.432-5.473 2.01.006-.044.003-.087.012-.131.35-1.813 2.157-2.989 4.03-2.627a3.538 3.538 0 0 1 1.638.804c-.07-.017-.139-.038-.211-.052"/></g></svg>