<svg xmlns="http://www.w3.org/2000/svg" viewBox="0 0 64 64"><path fill="#f6da77" d="M62.252 47.064c-.083-24.328-20.735-44.981-45.163-45.06L2.255 62l59.997-14.936z"/><path fill="#860d16" d="M54.5 48.994l2.053-.354C55.579 29.6 41.964 9.711 15.513 7.722l-.341 2.028c20.35 2.538 36.782 18.967 39.32 39.24"/><path fill="#c98e52" d="M56.52 48.641l5.732-1.432c.001-24.439-20.77-45.21-45.31-45.21l-1.433 5.72c23.439 2.219 38.782 17.559 41.01 40.921"/><g fill="#83bf4f"><path d="M13.462 41.652a6.168 6.168 0 0 1-4.389-1.811 1.23 1.23 0 0 1-.001-1.74c.465-.467 1.279-.469 1.743 0 1.41 1.408 3.882 1.408 5.296 0a3.71 3.71 0 0 0 1.092-2.641c0-1-.388-1.939-1.093-2.643a1.232 1.232 0 0 1-.001-1.74c.463-.467 1.28-.465 1.745 0a6.16 6.16 0 0 1 1.816 4.381 6.159 6.159 0 0 1-1.815 4.381 6.17 6.17 0 0 1-4.393 1.813M38.569 21.899c.036.164.034.33-.004.493a1.087 1.087 0 0 1-.496.694 1.114 1.114 0 0 1-.843.142 3.047 3.047 0 0 0-2.317.385 3.036 3.036 0 0 0-1.363 1.904c-.375 1.602.707 3.305 2.294 3.674.579.137.968.76.837 1.334a1.12 1.12 0 0 1-1.341.838 5.333 5.333 0 0 1-3.979-4.02 5.192 5.192 0 0 1 .014-2.333 5.24 5.24 0 0 1 2.36-3.292 5.252 5.252 0 0 1 4-.668c.414.1.746.431.836.845M43.918 50.881a1.05 1.05 0 0 1-1.109-.512 1.05 1.05 0 0 1-.104-.801 2.86 2.86 0 0 0-.287-2.195 2.86 2.86 0 0 0-1.76-1.354c-1.502-.408-3.154.553-3.557 2.037a1.085 1.085 0 0 1-1.295.746 1.058 1.058 0 0 1-.747-1.293A5.051 5.051 0 0 1 39 43.89a4.957 4.957 0 0 1 2.21.092 4.986 4.986 0 0 1 3.042 2.338 4.971 4.971 0 0 1 .494 3.799c-.105.391-.431.69-.828.762"/></g><g fill="#b21725"><path d="M37.12 36.2c1.391 4.094-.847 8.531-4.993 9.906-4.159 1.375-8.654-.828-10.05-4.93-1.396-4.092.843-8.531 4.995-9.908 4.156-1.373 8.648.835 10.05 4.932M49.562 36.959c.832 2.461-.509 5.127-3 5.955-2.502.824-5.204-.5-6.04-2.961-.834-2.463.511-5.129 3.01-5.957 2.49-.82 5.195.504 6.03 2.963M29.02 19.01c1.138 3.348-.694 6.979-4.085 8.104-3.4 1.127-7.08-.676-8.223-4.03-1.135-3.347.697-6.979 4.088-8.101 3.398-1.123 7.07.682 8.22 4.03M34.36 54.01l-9.69 2.414c-.865-2.551.895-5.699 3.531-6.367 3.196-.809 5.29 1.404 6.159 3.953M19.596 47.03c1.169 3.447-.715 7.182-4.207 8.342-3.508 1.16-7.292-.695-8.465-4.154-1.17-3.445.713-7.18 4.204-8.342 3.498-1.152 7.285.707 8.468 4.154"/></g><path fill="#e0a763" d="M15.515 7.722c5.298.089 10.634 1.081 15.642 3.05a39.772 39.772 0 0 1 13.514 8.751 39.558 39.558 0 0 1 8.805 13.479c1.984 5 2.986 10.34 3.075 15.639-.919-5.217-2.329-10.303-4.511-15.02-2.184-4.71-5.111-9.05-8.779-12.677-3.639-3.654-7.994-6.566-12.711-8.736-4.729-2.17-9.817-3.568-15.03-4.482"/><g fill="#ffab41"><path d="M16.834 13.453l2-2 2 2-2 2zM29.752 19.018l2-2 2 2-2 2zM12.95 26.435l1.999-2 2 2-2 2zM19.757 32.084l2-2 2 2-2 2zM37.503 32.364l2-2 2 2-2 2zM49.052 46.515l2-2 2 2-2 2zM19.668 44.633l2-2 2 2-2 2zM21.01 51.884l2-2 2 2-2 2zM4.36 58.198l2-2 2 2-2 2zM13.926 17.333l1.5-1.5 1.5 1.5-1.5 1.5zM26.599 27.889l1.5-1.5 1.5 1.5-1.5 1.5zM40.061 27.94l1.5-1.5 1.5 1.5-1.5 1.5zM13.453 36.187l1.5-1.5 1.5 1.5-1.5 1.5zM7.405 42.08l1.5-1.5 1.5 1.5-1.5 1.5zM5.077 54.51l1.5-1.5 1.5 1.5-1.5 1.5zM17.903 55.258l1.5-1.5 1.5 1.5-1.5 1.5zM30.75 48.332l1.5-1.5 1.5 1.5-1.5 1.5zM37.094 50.9l1.5-1.499 1.5 1.5-1.5 1.5zM45.386 45.146l1.5-1.5 1.5 1.5-1.5 1.5z"/></g></svg>