<svg xmlns="http://www.w3.org/2000/svg" viewBox="0 0 64 64"><path fill="#dda85f" d="M36.912 22.734l2.536-18.588C37.024 3.494 34.628 2 31.999 2c-2.633 0-5.03 1.502-7.461 2.15-2.514.672-5.342.592-7.54 1.863-2.232 1.293-3.568 3.793-5.379 5.604-1.813 1.813-4.313 3.148-5.604 5.379-1.273 2.201-1.191 5.03-1.863 7.541C3.504 26.965 2 29.367 2 31.999c0 2.633 1.504 5.03 2.152 7.463.672 2.512.59 5.34 1.863 7.539 1.291 2.232 3.791 3.568 5.604 5.379 1.811 1.811 3.146 4.313 5.379 5.604 2.198 1.274 5.03 1.192 7.54 1.864 2.428.65 4.828 2.152 7.461 2.152 2.635 0 5.04-1.502 7.465-2.152 2.512-.672 5.34-.59 7.538-1.864 2.232-1.291 3.568-3.793 5.379-5.604 1.813-1.811 4.313-3.146 5.604-5.379 1.273-2.199 1.191-5.03 1.863-7.539.648-2.43 2.152-4.83 2.152-7.463 0-2.632-2.104-8.08-2.104-8.08l-22.984-1.184"/><path fill="#f2cb7d" d="M59.42 22.404c-.963.257-2.384.24-3.884-.368-2.065-.838-3.416-2.46-3.786-4.515-.983.277-3.387-.01-5.02-1.037-2.388-1.496-2.862-5.666-2.862-5.666-2.705-.783-4.739-3.964-4.414-6.672-2.222-.599-5.04-.479-7.449-.479-2.413 0-4.614 1.377-6.839 1.971-2.305.616-4.896.543-6.913 1.708-2.046 1.186-3.27 3.478-4.93 5.137-1.661 1.661-3.953 2.886-5.137 4.931-1.167 2.02-1.092 4.608-1.708 6.913-.594 2.225-1.973 4.427-1.973 6.839 0 2.413 1.379 4.614 1.973 6.841.616 2.303.541 4.895 1.708 6.911 1.184 2.046 3.476 3.271 5.137 4.931 1.66 1.659 2.884 3.953 4.93 5.137 2.02 1.167 4.608 1.092 6.913 1.708 2.225.596 4.426 1.973 6.839 1.973 2.415 0 4.615-1.377 6.843-1.973 2.303-.616 4.895-.541 6.91-1.708 2.046-1.184 3.271-3.478 4.931-5.137 1.661-1.66 3.953-2.885 5.137-4.931 1.167-2.02 1.092-4.608 1.708-6.911.594-2.227 2.96-3.977 3.321-6.362.624-4.125-1.325-8.581-1.43-9.241"/><g fill="#dda85f"><path d="M50.11 10.828l-1.379 1.375-1.371-1.375 1.371-1.375 1.379 1.375M55.849 17.756l-.699.697-.7-.697.7-.696.699.696M50.805 13.219l-.695.697-.7-.697.7-.699.695.699M44.556 7.135l-.698.697-.698-.697.698-.699.698.699M57.24 20.336l-.69.694-.701-.694.701-.699.69.699M57.763 17.756l-.703.697-.69-.697.69-.696.703.696"/></g><path fill="#6d4934" d="M11.808 20.621c-.967 1.662.501 4.844 2.455 5.654 2.927 1.216 4.638 1.396 6.397-1.661.62-1.077 1.413-3.979 1.115-4.662-.436-1-2.106-2.972-3.198-2.977-3.124-.013-6.06 2.425-6.769 3.646"/><path fill="#a37f6a" d="M12.29 20.618c-.716 1.231 1.129 4.798 3.46 4.542 3.259-.358 3.02-7.243 1.557-7.243-2.315 0-4.491 1.797-5.02 2.701"/><path fill="#6d4934" d="M45.24 39.09c1.439-.381 2.376-2.927 1.752-4.44-.938-2.268-1.775-3.304-4.413-2.594-.929.251-2.952 1.405-3.162 1.942-.312.787-.474 2.78.121 3.381 1.703 1.718 4.646 1.99 5.702 1.711"/><path fill="#a37f6a" d="M43.763 36.705c1.066-.281 2.765-3.661.971-3.948-3.134-.501-5.528.953-5.196 2.681.337 1.76 3.441 1.475 4.225 1.267"/><path fill="#6d4934" d="M24.902 44.519c-.33-1.249-2.539-2.062-3.852-1.52-1.967.813-2.866 1.54-2.25 3.828.218.806 1.219 2.561 1.685 2.743.683.271 2.412.411 2.933-.105 1.49-1.478 1.727-4.03 1.484-4.946"/><path fill="#a37f6a" d="M23.16 43.591c-.244-.925-4.419.446-3.976 1.959.779 2.659.8 3.145 1.641 2.954 1.517-.342 2.516-4.233 2.335-4.913"/><path fill="#6d4934" d="M51.09 25.519c-1.249.33-2.062 2.539-1.52 3.852.813 1.967 2.699 2.3 4.794 1.191 1.771-.938 1.892-4.146 1.375-4.666-1.477-1.491-3.732-.62-4.649-.377"/><path fill="#a37f6a" d="M50.619 26.583c-.646.704-1.096 3.506.417 3.063 2.659-.779 4.583-3.542 3.375-3.917-1.484-.461-3.111.113-3.792.854"/><path fill="#6d4934" d="M22.72 16.079l2.005-2.004 2.004 2.004-2.004 2.003z"/><g fill="#dda85f"><path d="M14.666 33.507l2.003-2.004 2.004 2.003-2.002 2.004zM34.698 44.822l2.004-2.004 2.004 2.004-2.004 2.004zM31.996 39.264l2.7-2.7 2.7 2.7-2.7 2.7zM24.724 9.834l2.7-2.7 2.7 2.7-2.7 2.7z"/></g><g fill="#6d4934"><path d="M41.157 46.325l2.004-2.004 2.004 2.004-2.004 2.004zM49.091 35.262l2.004-2.004 2.004 2.004-2.004 2.004zM41.846 24.616l1-1 1 1-1 1zM13.668 38.264l1-1 1 1-1 1z"/></g></svg>