<svg xmlns="http://www.w3.org/2000/svg" viewBox="0 0 64 64"><path fill="#996254" d="M55.46 21.787L18.38 47.179c-6.922-22.03-8.691-27.862-13.62-36.03-.6-.995-2.756-3.702-2.756-3.702s2.681-3.371 13.661-3.371c19.346 0 39.795 17.711 39.795 17.711"/><g fill="#73493f"><path d="M17.271 7.643c-4.216 3.735-6.866 9.223-7.713 13.05 0 0-.695-1.303-1.054-2.46 1.733-4.836 8.819-10.636 8.767-10.595M24.21 11.245s-8.688 10.07-11.421 18.407c0 0-.705-1.689-1.101-3.239 2.764-7 12.522-15.168 12.522-15.168M14.781 4.089s1.282-.216 2.45.025c-2.674 1.154-5.03 2.602-7.225 4.738-.039.041 2.137-3.497 4.775-4.763M34.989 8.853s2.01.815 2.898 1.387c-5.956.289-14.955 9.643-14.955 9.643s5.323-8.214 12.06-11.03"/></g><path fill="#fd9d33" d="M46.15 57.22c14.168-6.824 20.81-21 11.62-32.924-7.92-10.255-21.778-6.883-30.701 2.378-7.311 7.597-11.06 16.12-7.512 24.331 3.922 9.08 15.539 11.546 26.593 6.215"/></svg>