<svg xmlns="http://www.w3.org/2000/svg" viewBox="0 0 64 64"><path fill="#ffc861" d="M20.222 45.26l2.287 12.768h.012c.072 2.779 3.925 3.974 10.912 3.974 6.984 0 10.84-1.195 10.91-3.975h.014l2.283-12.768H20.222z"/><path fill="#b17f4a" d="M20.284 45.602s3.102 2.689 13.148 2.689c10.05 0 13.146-2.689 13.146-2.689H20.284"/><path fill="#ffc861" d="M16.433 34.99l1 8.08h.016c.094 2.777 6.795 3.975 15.984 3.975 9.188 0 15.889-1.197 15.982-3.975h.018l1-8.08h-34"/><path fill="#b17f4a" d="M16.884 38.645c.002.002 3.832 3.816 16.549 3.816 12.713 0 16.51-3.518 16.51-3.518l-33.06-.298"/><path fill="#ffe0b5" d="M52.966 32.917c0 8.197-8.656 8.201-19.334 8.201-10.68 0-19.336-.004-19.336-8.201 0-5.725 8.656-10.365 19.336-10.365 10.678-.001 19.334 4.64 19.334 10.365"/><path fill="#8f6453" d="M50.11 29.06c-6.04-4.113-12.602.842-19.4-.691-1.658-.375-3.02-.971-4.139-1.676l-2.309-7.389s4.627-5.617-2.316-6.04c-6.945-.426-11.705 14.254-6.377 21.972 3.605 5.225 9.936 2.063 13.279 2.127 3.65.068 6.303 2.152 14.59.195 6.104-1.443 7.613-1.9 8.287-.264.001.001 2.381-5.512-1.615-8.233"/><path fill="#ffe0b5" d="M28.353 34.727s-10.926 5.168-16.348-2.667c-5.424-7.838 1.102-20.723 8.377-20.299 7.275.426 2.426 6.04 2.426 6.04l5.545 16.923"/><path fill="#8f6453" d="M49.835 28.897c.662-.332 3.201-6.451.422-10.465-2.775-4.01-6.412-4.887-9.646-7.08-1.758-1.189-4.824-4.457-.592-7.336 0 0-8.998-5.713-15.934 2.076-4.33 4.861-4.938 9.535-3.438 15.199 1.777 6.721 17.943 10.1 17.943 10.1l11.245-2.5"/><path fill="#ffe0b5" d="M40.02 4.02c-2.045.037-4.04.189-5.857.732-1.824.496-3.443 1.381-4.691 2.551-2.525 2.334-3.475 5.859-2.967 9.166.486 3.326 2.418 6.424 5.396 8.416 2.971 2.053 6.875 2.912 10.939 3.176-1.955.596-4.04.834-6.16.746-2.109-.131-4.273-.617-6.236-1.615a13.892 13.892 0 0 1-5.01-4.225 13.676 13.676 0 0 1-2.471-6.01c-.316-2.156-.113-4.395.676-6.463.787-2.063 2.186-3.949 4.04-5.248 1.836-1.322 4.055-1.986 6.191-2.141a15.334 15.334 0 0 1 6.159.919"/><path fill="#8f6453" d="M20.319 12.795c-2.264 1.629-3.549 3.771-4.322 6.01-.758 2.24-.969 4.621-.541 6.801.432 2.18 1.527 4.115 3.408 5.482 1.869 1.398 4.424 2.16 7.182 2.73-2.666.842-5.789.904-8.641-.424a9.663 9.663 0 0 1-3.625-2.953c-.943-1.26-1.547-2.721-1.842-4.201-.578-2.973.035-6.01 1.5-8.537.744-1.26 1.709-2.404 2.891-3.285 1.188-.865 2.565-1.505 3.99-1.627"/><g fill="#ffe0b5"><path d="M40.02 4.02C37.434 5.143 35.717 6.778 35 8.686c-.76 1.895-.762 4.04-.305 6.123.467 2.094 1.387 4.143 2.715 6.04 1.318 1.918 3.059 3.645 5.201 5.389-2.822-.068-5.627-1.25-7.834-3.148-2.211-1.898-3.834-4.512-4.463-7.4-.635-2.854-.27-6.137 1.648-8.686.947-1.258 2.281-2.244 3.729-2.748a7.69 7.69 0 0 1 4.332-.235"/><path d="M40.02 4.02c-.783 1.053-1.555 2.084-1.859 3.127-.322 1.043-.115 1.842.422 2.646.539.809 1.375 1.604 2.275 2.383.908.783 1.885 1.568 2.867 2.385 1.953 1.641 3.961 3.449 5.473 5.75.744 1.146 1.352 2.428 1.617 3.785.254 1.354.193 2.754-.326 3.965-.506-2.572-1.863-4.449-3.531-6.119-1.668-1.674-3.633-3.156-5.592-4.805-.977-.83-1.969-1.686-2.906-2.672-.926-.988-1.859-2.09-2.43-3.553-.275-.727-.434-1.566-.324-2.389.1-.826.453-1.576.91-2.164.947-1.163 2.138-1.868 3.404-2.339"/></g><path fill="#8f6453" d="M51.728 37.3s6.178-5.685-1.84-9.738c-6.725-3.396-13.201.844-20.324-.689-8.182-1.764-9.535-8.436-9.535-8.436-2.291 5.602-.176 12.148 5.057 14.917 5.234 2.768 12.352 3.359 17.814 1.951 6.347-1.636 8.121.358 8.828 1.995"/><path fill="#ffe0b5" d="M20.03 18.432c.564 1.516 1.408 2.838 2.357 4.049.949 1.205 2.02 2.283 3.195 3.174 2.348 1.801 5.119 2.783 8.05 2.977.732.057 1.477.063 2.225.025.375-.012.752-.037 1.129-.072l1.189-.129c1.727-.174 3.463-.232 5.217-.059 1.744.172 3.516.551 5.123 1.342 1.586.783 3.03 2.039 3.555 3.611-1.211-1.144-2.656-1.751-4.158-2.031-1.498-.293-3.041-.32-4.59-.229a40.561 40.561 0 0 0-4.645.58l-.598.107-.658.104a21.09 21.09 0 0 1-1.334.152c-.898.064-1.807.072-2.721.014-1.82-.133-3.652-.561-5.328-1.324a14.049 14.049 0 0 1-4.389-3.121 14.058 14.058 0 0 1-2.797-4.316c-.598-1.559-1.045-3.219-.823-4.854"/><g fill="#e3a93d"><path d="M21.62 47.622l.036.233c.969.221 1.942.415 2.922.581.056.482.112.967.17 1.451a52.595 52.595 0 0 1-2.866-.57l.036.234c1.249.284 2.508.523 3.774.715l-.2-1.911a52.49 52.49 0 0 1-3.872-.733M26.513 48.5l.022.231c.983.129 1.97.229 2.96.305l.075 1.438a52.362 52.362 0 0 1-2.903-.299l.021.231a51.59 51.59 0 0 0 3.822.357l-.076-1.897a52.07 52.07 0 0 1-3.921-.366M31.463 48.914l.007.229a51.82 51.82 0 0 0 2.977.027l-.021 1.438c-.973.019-1.945.01-2.919-.026l.007.229c1.278.048 2.56.048 3.838 0 .018-.632.033-1.265.051-1.896a53.364 53.364 0 0 1-3.94-.001M36.432 48.866l-.01.23c.99-.057 1.979-.141 2.966-.251l-.115 1.443c-.967.107-1.937.19-2.907.245l-.01.229a51.54 51.54 0 0 0 3.822-.357c.058-.636.115-1.271.175-1.907a52.172 52.172 0 0 1-3.921.368M41.37 48.35l-.024.231a54.196 54.196 0 0 0 2.931-.528l-.209 1.459c-.953.199-1.911.372-2.874.517l-.023.232a51.937 51.937 0 0 0 3.774-.715l.298-1.93a52.198 52.198 0 0 1-3.873.734M21.982 49.972l.036.234c.939.214 1.883.401 2.833.563l.169 1.45a49.701 49.701 0 0 1-2.776-.552c.013.077.024.154.036.232 1.211.275 2.431.508 3.656.692l-.2-1.91a50.723 50.723 0 0 1-3.754-.709M26.726 50.822c.008.076.015.154.021.231.954.125 1.91.224 2.869.295l.076 1.438a50.078 50.078 0 0 1-2.813-.288l.021.229c1.229.161 2.465.276 3.701.347-.024-.633-.05-1.265-.075-1.897a51.486 51.486 0 0 1-3.8-.355M31.524 51.23c.002.076.003.153.006.229.961.035 1.923.045 2.884.026l-.02 1.437a50.28 50.28 0 0 1-2.827-.025l.007.229c1.238.046 2.479.046 3.717 0l.05-1.896a52.805 52.805 0 0 1-3.817 0M36.34 51.18c-.004.076-.006.154-.009.229.96-.054 1.918-.134 2.873-.242l-.114 1.443c-.936.105-1.875.185-2.816.237l-.009.229a50.49 50.49 0 0 0 3.701-.347l.175-1.906a51.57 51.57 0 0 1-3.801.357M41.13 50.683a9.533 9.533 0 0 0-.024.231 50.715 50.715 0 0 0 2.84-.511l-.207 1.458c-.925.192-1.853.36-2.785.501l-.023.23a50.61 50.61 0 0 0 3.656-.692l.298-1.929a51.19 51.19 0 0 1-3.755.712M22.346 52.32c.013.078.023.154.036.23a46.75 46.75 0 0 0 2.741.545c.058.485.113.97.17 1.454a47.571 47.571 0 0 1-2.686-.534l.036.232c1.171.269 2.351.491 3.537.67l-.199-1.908a48.786 48.786 0 0 1-3.635-.689M26.939 53.15l.021.228c.923.122 1.849.217 2.777.285l.076 1.442c-.91-.067-1.816-.16-2.722-.279.008.076.015.153.021.229 1.189.156 2.384.268 3.581.335l-.075-1.896a48.824 48.824 0 0 1-3.679-.344M31.585 53.54l.006.227c.93.034 1.861.043 2.792.025l-.019 1.438c-.913.017-1.824.009-2.736-.024l.006.229c1.199.043 2.398.043 3.598 0l.049-1.896a50.055 50.055 0 0 1-3.696.001M36.25 53.49l-.009.227c.93-.053 1.857-.132 2.783-.235l-.115 1.445a46.8 46.8 0 0 1-2.726.23l-.009.229a48.194 48.194 0 0 0 3.58-.335c.06-.636.117-1.27.175-1.905-1.221.16-2.448.275-3.679.344M40.884 53.01l-.023.229c.921-.14 1.838-.304 2.75-.496l-.209 1.462c-.893.187-1.791.349-2.692.484a8.885 8.885 0 0 0-.024.229 47.276 47.276 0 0 0 3.537-.67l.298-1.928a50.094 50.094 0 0 1-3.637.69M22.709 54.672l.036.232a47.95 47.95 0 0 0 2.651.527l.17 1.451c-.87-.147-1.735-.32-2.596-.517l.036.235c1.131.259 2.271.475 3.418.647l-.2-1.911a46.776 46.776 0 0 1-3.515-.664M27.15 55.47l.021.23c.893.117 1.789.209 2.687.275l.074 1.439a45.538 45.538 0 0 1-2.629-.271l.021.233c1.148.15 2.304.259 3.46.324l-.075-1.899a46.731 46.731 0 0 1-3.559-.331M31.646 55.845l.006.228c.899.035 1.8.042 2.7.025l-.019 1.437c-.882.018-1.764.009-2.645-.023l.006.231c1.158.043 2.318.043 3.477 0l.049-1.897a48.957 48.957 0 0 1-3.574-.001M36.15 55.801l-.009.229c.898-.05 1.796-.125 2.69-.227l-.113 1.442c-.876.1-1.755.173-2.635.224l-.009.231a47.167 47.167 0 0 0 3.46-.324l.175-1.908a47.63 47.63 0 0 1-3.559.333M40.641 55.34c-.008.076-.017.153-.024.23a47.738 47.738 0 0 0 2.659-.479l-.207 1.458c-.863.182-1.731.337-2.604.469a9.193 9.193 0 0 0-.024.233 46.754 46.754 0 0 0 3.418-.647l.298-1.93a47.942 47.942 0 0 1-3.516.666M23.07 57.02c.013.077.025.156.036.234.85.194 1.704.364 2.563.51.056.482.112.966.17 1.45a46.47 46.47 0 0 1-2.507-.498l.036.232c1.093.25 2.193.458 3.3.625l-.2-1.91a46.638 46.638 0 0 1-3.398-.643M27.364 57.79l.021.231a47.05 47.05 0 0 0 2.596.267l.075 1.439a44.067 44.067 0 0 1-2.538-.262l.021.231c1.108.145 2.223.25 3.34.313-.025-.633-.052-1.266-.076-1.898a45.58 45.58 0 0 1-3.439-.321M31.706 58.15l.006.229a45.36 45.36 0 0 0 2.608.023l-.019 1.437c-.852.017-1.702.009-2.552-.022l.005.229c1.118.041 2.237.041 3.355 0l.049-1.896a47.303 47.303 0 0 1-3.452 0M36.06 58.11l-.009.231c.868-.05 1.735-.123 2.6-.22l-.115 1.442c-.845.096-1.693.168-2.542.215a17.53 17.53 0 0 1-.01.229 45.597 45.597 0 0 0 3.34-.313l.175-1.907c-1.144.152-2.29.26-3.439.323M40.4 57.664l-.023.231c.859-.13 1.717-.283 2.568-.462l-.208 1.458c-.833.175-1.672.324-2.513.451l-.024.231a44.697 44.697 0 0 0 3.3-.625l.298-1.929a45.6 45.6 0 0 1-3.398.645"/></g></svg>