<svg xmlns="http://www.w3.org/2000/svg" viewBox="0 0 64 64"><path fill="#b37b47" d="M14.609 3.685h8.559v8.423h-8.559z"/><path fill="#a16745" d="M14.609 3.685L12.896 2v11.791l1.713-1.681z"/><path fill="#633f2c" d="M23.17 12.11l1.709 1.681V2L23.17 3.685z"/><path fill="#8c5b3e" d="M23.17 3.685L24.879 2H12.896l1.713 1.685z"/><path fill="#523420" d="M23.17 12.11h-8.561l-1.713 1.681h11.983z"/><path fill="#b37b47" d="M26.59 3.685h8.559v8.423H26.59z"/><path fill="#a16745" d="M26.59 12.11V3.685L24.879 2v11.791z"/><path fill="#633f2c" d="M36.861 13.791V6.482a4.39 4.39 0 0 1-1.316-1.667 4.41 4.41 0 0 1-.328-1.197l-.068.066v8.423l1.712 1.684"/><path fill="#8c5b3e" d="M35.15 3.685l.068-.066A4.484 4.484 0 0 1 35.273 2H24.881l1.711 1.685h8.558"/><path fill="#523420" d="M35.15 12.11h-8.56l-1.711 1.681h11.982z"/><path fill="#b37b47" d="M39.34 10.818a4.48 4.48 0 0 1-.119-3.386 4.554 4.554 0 0 1-.648-.115v4.79h1.65a4.436 4.436 0 0 1-.883-1.289"/><path fill="#a16745" d="M38.572 7.317a4.501 4.501 0 0 1-1.711-.835v7.309l1.711-1.684v-4.79"/><path fill="#523420" d="M36.861 13.791h7.324c-.025-.128-.057-.256-.072-.384a4.513 4.513 0 0 1-3.891-1.3h-1.65l-1.711 1.684"/><path fill="#b37b47" d="M14.609 15.477h8.559v8.422h-8.559z"/><path fill="#a16745" d="M14.609 15.477l-1.713-1.686v11.793l1.713-1.686z"/><path fill="#633f2c" d="M23.17 15.477v8.421l1.709 1.686V13.791z"/><path fill="#8c5b3e" d="M23.17 15.477l1.709-1.686H12.896l1.713 1.686z"/><path fill="#523420" d="M23.17 23.898h-8.561l-1.713 1.686h11.983z"/><path fill="#b37b47" d="M26.59 15.477h8.559v8.422H26.59z"/><path fill="#a16745" d="M26.59 15.477l-1.711-1.686v11.793l1.711-1.686z"/><path fill="#633f2c" d="M35.15 15.477v8.421l1.711 1.686V13.791z"/><path fill="#8c5b3e" d="M35.15 15.477l1.711-1.686H24.879l1.711 1.686z"/><path fill="#523420" d="M26.59 23.898l-1.711 1.686h11.982l-1.711-1.686z"/><path fill="#b37b47" d="M44.922 15.477h-6.35v8.422h8.557v-6.821a4.493 4.493 0 0 1-2.207-1.601"/><path fill="#a16745" d="M36.861 13.791v11.793l1.711-1.686v-8.421z"/><path fill="#633f2c" d="M47.13 17.08v6.821l1.713 1.686v-8.283a4.46 4.46 0 0 1-1.713-.224"/><path fill="#8c5b3e" d="M38.572 15.477h6.35a4.474 4.474 0 0 1-.473-.81 4.037 4.037 0 0 1-.264-.876h-7.324l1.711 1.686"/><path fill="#523420" d="M38.572 23.898l-1.711 1.686h11.981l-1.712-1.686z"/><path fill="#b37b47" d="M14.609 27.27h8.559v8.424h-8.559z"/><path fill="#a16745" d="M14.609 27.27l-1.713-1.686V37.38l1.713-1.689z"/><path fill="#633f2c" d="M23.17 27.27v8.421l1.709 1.689V25.584z"/><g fill="#8c5b3e"><path d="M23.17 27.27l1.709-1.686H12.896l1.713 1.686zM23.17 35.691h-8.561l-1.713 1.689h11.983z"/></g><path fill="#b37b47" d="M26.59 27.27h8.559v8.424H26.59z"/><path fill="#a16745" d="M26.59 27.27l-1.711-1.686V37.38l1.711-1.689z"/><path fill="#633f2c" d="M35.15 35.691l1.711 1.689V25.584L35.15 27.27z"/><g fill="#8c5b3e"><path d="M26.59 27.27h8.56l1.711-1.686H24.879zM26.59 35.691l-1.711 1.689h11.982l-1.711-1.689z"/></g><path fill="#b37b47" d="M38.572 27.27h8.557v8.424h-8.557z"/><path fill="#a16745" d="M38.572 35.691V27.27l-1.711-1.686V37.38z"/><path fill="#633f2c" d="M47.13 35.691l1.712 1.689V25.584L47.13 27.27z"/><g fill="#8c5b3e"><path d="M38.572 27.27h8.558l1.712-1.686H36.861zM38.572 35.691l-1.711 1.689h11.981l-1.712-1.689z"/></g><path fill-rule="evenodd" fill="#ff4a4a" d="M12.896 36.768v24.19l.571 1.041H48.27l.572-1.041v-24.19z"/><path fill="#a33737" d="M41.37 41.987c-.339-3.567-28.469-5.22-28.469-5.22s11.926.94 16.223 7.803c6.886 11 15.805 11.667 15.805 11.667-2.042-5.354-2.899-7.3-3.559-14.25"/><path fill="#fff" d="M51.06 37.644c-.037-.39-.099-.747-.168-1.094l.007-.003-.009-.008c-.565-2.817-2.041-4.205-2.041-4.205s-1.089-.19-2.938-.373l-.025-.023-.031.018a70.246 70.246 0 0 0-8.972-.279l-.012-.004.002.005a65.77 65.77 0 0 0-5.188.371l-.09-.021-.045.037c-.371.042-.74.08-1.115.13-1.137.15-2.822.518-4.703.981l.002-.025-.023.016-.039.025c-1.545.382-3.217.828-4.83 1.273-1.369.378-2.689.755-3.852 1.092-2.385.69-4.088 1.21-4.088 1.21s2.59.081 5.934.704c2.01.375 4.279.945 6.432 1.812a20.746 20.746 0 0 1 2.934 1.442l-.004.012.082.034c1.176.716 2.234 1.557 3.086 2.549.67.781 1.33 1.497 1.982 2.166v.006l.004-.002a38.51 38.51 0 0 0 3.52 3.213v.058l.012-.002.048-.008c1.993 1.589 3.816 2.675 5.374 3.419 3.293 1.572 5.395 1.609 5.395 1.609a6.266 6.266 0 0 1-.37-3.02c.149-1.28.643-2.522 1.231-3.802l.021-.045.016-.002-.012-.007c.889-1.926 1.957-3.949 2.355-6.337.151-.918.215-1.882.117-2.924"/><path fill="#9ba8a7" d="M43.594 43.85l-.024.054 1.9 3.466.01.03 3.062-.481-.022-.052z"/><g fill="#bac9c9"><path d="M48.542 46.919l.036-.006.004-.009-.062-.037zM43.514 43.8l.056.104.024-.054z"/></g><path fill="#c8d6d6" d="M42.751 33.716l-.731 7.354 3.515-1.79 5.354-2.73-.001-.006z"/><path fill="#bac9c9" d="M50.938 40.567c.153-.917.218-1.882.119-2.924-.037-.39-.099-.747-.168-1.094l-5.354 2.729 5.403 1.289"/><path fill="#9ba8a7" d="M48.52 46.867l.06.037c.889-1.926 1.957-3.949 2.355-6.337l-5.402-1.289 2.987 7.589"/><g fill="#bac9c9"><path d="M39.12 35.778l2.9 5.292.731-7.354zM45.47 47.4h.01l-.01-.03zM32.598 39.967l.004.001v-.006zM29.03 38.569v-.006.002zM42.12 47.931l.03-.005-.03-.034z"/></g><path fill="#9ba8a7" d="M45.11 51.04l2.21-.29-1.84-3.35h-.01z"/><path fill="#dce3e3" d="M31.58 32.06l-2.547 6.504 3.223-1.17-.66-5.336a.07.07 0 0 0-.016.002"/><path fill="#effcfc" d="M43.594 43.85l1.941-4.57-3.515 1.79 1.494 2.73z"/><g fill="#bac9c9"><path d="M43.513 43.8h.001l-1.494-2.73-5.151 2.624 6.701.21-.056-.104zM50.888 36.544l-.001-.005-4.979-4.578-.057-.006-3.101 1.761 8.138 2.828"/></g><g fill="#c8d6d6"><path d="M48.52 46.867l-2.985-7.587-1.941 4.57zM48.846 32.33s-1.089-.19-2.938-.373l4.979 4.578c-.566-2.817-2.041-4.205-2.041-4.205M39.03 35.826l.09-.048-1.24-2.26-5.278 6.444v.006l9.418 1.102-2.9-5.292z"/></g><path fill="#dce3e3" d="M42.12 47.892l.032.034 3.316-.522.003-.029-1.901-3.47-6.661 4.831.019.014 5.194-.818-.002-.04"/><path fill="#9ba8a7" d="M29.03 38.569l-.83 2.151-.002.003c.025.016.053.03.078.046l4.693 1.937-3.939-4.137"/><path fill="#bac9c9" d="M32.598 39.967l.004-.005-.346-2.568-3.223 1.17-.004.006 3.939 4.137-4.693-1.937c1.176.716 2.234 1.557 3.086 2.549.67.781 1.33 1.497 1.982 2.166l-.742-5.517h-.003"/><path fill="#9ba8a7" d="M33.35 45.49a38.51 38.51 0 0 0 3.52 3.213v-5.01l-3.52 1.794"/><path fill="#dce3e3" d="M36.869 43.694l5.151-2.624-9.418-1.102.738 5.512.01.01 3.518-1.796"/><path fill="#bac9c9" d="M25.26 39.28h.01-.01"/><path fill="#9ba8a7" d="M26.656 36.05l-.932-2.825-.26 3.411.031.009-.031-.009-.201 2.646.004.004c1.02.411 2.01.888 2.93 1.441l.002-.003-1.543-4.674"/><path fill="#c8d6d6" d="M36.928 48.749c1.993 1.589 3.816 2.675 5.374 3.419l-.18-4.237-5.194.818"/><path fill="#dce3e3" d="M45.48 47.4l1.836 3.35.005.01c.149-1.28.643-2.522 1.231-3.802l-.016-.039-3.056.481"/><path fill="#c8d6d6" d="M43.57 43.904l-6.701-.21v5.01l.041.034 6.661-4.831"/><path fill="#bac9c9" d="M45.11 51.04l.362-3.64-3.316.522 5.544 5.852a6.266 6.266 0 0 1-.37-3.02l-.005-.01-2.215.294"/><path fill="#9ba8a7" d="M48.542 46.919l.016.039.021-.045-.037.006"/><path fill="#effcfc" d="M42.12 47.931l.18 4.237c3.293 1.572 5.395 1.609 5.395 1.609l-5.544-5.852-.031.006"/><path fill="#bac9c9" d="M21.906 35.626l-1.068-1.162-2.01 3.01c2.01.375 4.279.945 6.432 1.812v-.003l-3.358-3.653"/><path fill="#c8d6d6" d="M28.2 40.721l.83-2.151-.002-.004.006-.002 2.547-6.504a.371.371 0 0 0-.033.004l-4.891 3.982 1.543 4.675"/><path fill="#dce3e3" d="M26.656 36.05l4.891-3.982c-.371.042-.74.08-1.115.13-1.137.15-2.822.518-4.703.981l-.004.046.931 2.825"/><path fill="#c8d6d6" d="M25.26 39.28l.205-2.648-3.559-1.01z"/><path fill="#bac9c9" d="M32.26 37.39l.346 2.568 5.278-6.444-6.198-1.47a2.516 2.516 0 0 0-.086.01l.66 5.336"/><path fill="#effcfc" d="M39.12 35.778l3.631-2.062-5.871-2.04-.01.001 1.01 1.841z"/><path fill="#c8d6d6" d="M36.87 31.677a65.77 65.77 0 0 0-5.188.371l6.198 1.47-1.01-1.841"/><path fill="#effcfc" d="M20.838 34.464c-1.369.378-2.689.755-3.852 1.092l1.846 1.914 2.01-3.01"/><path fill="#c8d6d6" d="M16.986 35.556c-2.385.69-4.088 1.21-4.088 1.21s2.59.081 5.934.704l-1.846-1.914"/><path fill="#dce3e3" d="M45.852 31.955a70.246 70.246 0 0 0-8.972-.279l5.871 2.04 3.101-1.761"/><path fill="#effcfc" d="M25.465 36.632l.26-3.411-.012-.041-.045.011-3.762 2.436 3.559 1"/><path fill="#bac9c9" d="M25.725 33.22l.004-.046-.016.005.012.041"/><path fill="#dce3e3" d="M25.668 33.19c-1.545.382-3.217.828-4.83 1.273l1.068 1.162 3.762-2.435"/></svg>