<svg xmlns="http://www.w3.org/2000/svg" viewBox="0 0 64 64"><path fill="#f29a2e" d="M52.28 49.806a1.75 1.75 0 1 0-2.475 2.476l7.316 7.316a1.75 1.75 0 1 0 2.475-2.475l-7.316-7.317"/><path fill="#dae3ea" d="M60.74 38.578c1.566 1.566 1.689 3.983.273 5.398l-17.04 17.04c-1.416 1.416-3.832 1.293-5.398-.273l-7.67-7.67c-1.567-1.566-1.69-3.984-.274-5.398l17.04-17.04c1.415-1.415 3.832-1.292 5.399.274l7.669 7.669"/><path fill="#f29a2e" d="M38.955 36.48a1.75 1.75 0 1 0-2.476 2.475l3.874 3.873a1.75 1.75 0 1 0 2.475-2.475l-3.873-3.873"/><ellipse transform="rotate(-45.001 31.16 31.162)" fill="#8e725e" cx="31.16" cy="31.16" rx="14.381" ry="12.638"/><path fill="#f29a2e" d="M21.972 19.497a1.75 1.75 0 0 0-2.475 2.475l3.873 3.874a1.75 1.75 0 1 0 2.475-2.475l-3.873-3.874"/><path fill="#62727a" d="M29.942 7.02c4.937 4.936-1.21 10.477-6.826 16.09-5.616 5.616-11.157 11.763-16.09 6.827-2.64-2.64-5.103-21.38-1.781-24.702s22.06-.858 24.701 1.782"/><path fill="#f29a2e" d="M4.987 2.513a1.75 1.75 0 1 0-2.475 2.475l3.873 3.874a1.75 1.75 0 1 0 2.476-2.475L4.987 2.513"/></svg>