<svg xmlns="http://www.w3.org/2000/svg" viewBox="0 0 64 64"><ellipse fill="#c1c9cb" cx="31.999" cy="57.775" rx="14.445" ry="4.225"/><path fill="#acafb5" d="M37.16 55.656c3.515 3.345-13.848 3.345-10.333 0 5.399-5.14 5.167-31.409 5.167-31.409s-.102 26.396 5.166 31.409"/><g fill="#839391"><path fill-rule="evenodd" d="M23.18 18.11S13.09 6.656 12.17 5.491c-.956-1.206-3.106-3.288-5.753-3.288-5.955 0-5.834 3.974 0 4.243 3.793.177 13.721 13.991 13.721 13.991l3.043-2.327"/><path d="M59.56 27.15l.002.541-.002-.541"/></g><path fill="#dfe9eb" d="M61.999 25.835c0 15.595-13.432 23.865-30 23.865-16.57 0-30-8.27-30-23.865 0-10.588 13.432-14.476 30-14.476s30 3.889 30 14.476"/><ellipse fill="#ff78b5" cx="31.999" cy="16.25" rx="14.979" ry="14.249"/><ellipse fill="#bedd4b" cx="44.37" cy="26.388" rx="14.979" ry="14.25"/><ellipse fill="#9b5c54" cx="19.629" cy="26.388" rx="14.979" ry="14.25"/><path fill="#dfe9eb" d="M58.999 18.388v5.219c0 7.188-12.09 10.362-27 10.362s-27-3.173-27-10.362v-5.219c-1.92 1.989-3 4.448-3 7.447 0 15.595 13.43 23.865 30 23.865 16.568 0 30-8.27 30-23.865 0-2.999-1.078-5.458-3-7.447"/><g fill="#fff"><path d="M60.827 27.909c.102 1.074-.432 2.149-1.131 2.975-.703.843-1.568 1.525-2.465 2.132-1.817 1.19-3.805 2.063-5.832 2.769-4.064 1.412-8.313 2.143-12.566 2.517-4.262.328-8.549.265-12.779-.256-4.229-.509-8.412-1.44-12.379-2.933 4.179.687 8.34 1.166 12.512 1.378 4.168.195 8.341.172 12.484-.182 4.143-.325 8.267-.95 12.269-2.01 1.989-.554 3.968-1.194 5.799-2.125.92-.455 1.794-1 2.561-1.672.75-.67 1.408-1.526 1.527-2.593"/><g fill-rule="evenodd"><path opacity=".3" d="M24.875 21.754l1.5-1.5 1.5 1.501-1.5 1.5zM23.418 17.727l1-1 1 1.001-1 1zM28.304 19.978l1-1 1 1.002-1 1zM26.879 25.6l1-.999 1 1.002-1 .999zM20.314 23.753l1-1 1 1.002-1 .999zM27.873 18.23l.5-.498.5.501-.5.499zM20.585 15.353l.5-.499.5.501-.5.499zM20.085 16.728l.5-.498.5.5-.5.5zM28.801 23.259l.5-.5.5.502-.5.499zM21.812 25.255l.5-.499.5.502-.5.498zM26.376 27.908l.5-.5.5.502-.5.499zM48.9 22.307l1.5-1.499 1.5 1.501-1.5 1.5zM47.446 18.273l1-1 1 1.002-1 .999zM41.758 15.606l1-1 1 1.001-1 1zM44.98 28.408l1-1 1 1.001-1 1zM52.328 20.523l1-1 1 1.002-1 1zM45.463 21.51l1-1 1 1-1 1zM51.903 18.773l.5-.498.5.5-.5.5zM47.943 15.108l.5-.499.5.501-.5.499zM52.824 23.805l.5-.499.5.502-.5.498zM46.977 26.396l.5-.5.5.502-.5.499zM42.751 18.385l.5-.5.5.502-.5.499zM48.4 28.672l.5-.499.5.502-.5.498zM33.808 6.261l1-.999 1 1.001-1 1zM34.959 9.252l1-1 1 1.001-1 1zM32.808 12.625l1-1 1 1.002-1 1zM36.406 5.625l.5-.499.5.502-.5.498zM38.91 7.722l.5-.498.5.5-.5.5zM33.304 8.218l.5-.498.5.5-.5.5zM32.304 10.753l.5-.499.5.501-.5.499zM28.802 5.266l.5-.498.5.5-.5.5zM31.804 4.268l.5-.499.5.501-.5.5z"/></g></g></svg>