<svg xmlns="http://www.w3.org/2000/svg" viewBox="0 0 64 64"><path fill="#f29a2e" d="M50.914 48.568a1.659 1.659 0 0 0-2.344 2.346l10.6 10.6a1.656 1.656 0 0 0 2.344 0 1.656 1.656 0 0 0 0-2.344l-10.6-10.602"/><ellipse transform="rotate(-45.001 46.997 46.998)" fill="#8cc63e" cx="46.999" cy="46.998" rx="13.621" ry="11.971"/><path fill="#f29a2e" d="M38.29 35.947a1.658 1.658 0 0 0-2.344 2.344l3.67 3.67a1.66 1.66 0 0 0 2.344 0 1.66 1.66 0 0 0 0-2.344l-3.67-3.67"/><ellipse transform="rotate(-45.001 30.91 30.912)" fill="#dae3ea" cx="30.911" cy="30.911" rx="13.622" ry="11.971"/><path fill="#f29a2e" d="M22.21 19.86a1.658 1.658 0 0 0-2.345 2.344l3.668 3.669a1.66 1.66 0 0 0 2.346 0 1.66 1.66 0 0 0 0-2.344L22.21 19.86"/><ellipse transform="rotate(-45.001 14.824 14.824)" fill="#ff99ad" cx="14.823" cy="14.823" rx="13.621" ry="11.972"/><path fill="#f29a2e" d="M6.118 3.773a1.658 1.658 0 0 0-2.345 2.344l3.67 3.669a1.658 1.658 0 0 0 2.344-2.344L6.118 3.773"/></svg>