<svg xmlns="http://www.w3.org/2000/svg" viewBox="0 0 64 64"><path fill="#42ade2" d="M33.34 12.18c-.944-1.31.08-1.895 1.336-1.661-1.195-1.468-.458-2.486 1.424-2.086.588.124-.23 1.117-.758 1.081 1.583 1.185.715 2.436-.961 2.141 1.481 2.034-1.063 1.534-2.176 1.618-.291 1.522 1.447 3.259.867 3.259-1.295 0-3.358-4.804.268-4.352"/><path fill="#ff8736" d="M9.412 19.75c-1.01.454-3.89-4.052-.358-4.091-2.027-1.844-1.767-2.732.955-2.787-3.118-3.124 1.809-4.255 2.328-2.583.154.502-1.509-.44-2.051.457-.625 1.037 3.837 3.654-.768 3.5 1.693 1.724 1.796 2.527-.905 2.817.352.49 1.439 2.398.799 2.687"/><path fill="#c28fef" d="M19.2 21.311c-1.209 1.574-3.052 2.453-4.448 3.829-1.453 1.433-2.321 5.374-2.321 5.374s.52-4.11 1.908-5.692c1.257-1.431 3.056-2.474 4.03-4.139 1.74-2.976.187-6.96-2.035-9.235.467-.416 1.086-.941 1.46-1.303 2.089 2.683 3.948 7.862 1.407 11.166"/><path fill="#ff8736" d="M40.34 49.36c-4.843 1.984-12.374 1.352-12.374 1.352s8.464 1.134 12.708-.549c6.625-2.628 15.513 2.814 15.513 2.814l1.74-1.194c-4.072-2.531-12.281-4.597-17.587-2.423"/><path fill="#42ade2" d="M53.669 40.04c-2 .64-3.7 1.915-5.554 2.858-1.727.882-3.657 1.549-5.623 1.275-2.14-.298-5.488-3.082-5.488-3.082s3.556 2.451 5.694 2.501c2.185.048 4.153-1.092 5.883-2.309 3.233-2.274 6.945-4.639 11.1-3.73l-.588 2.196s-2.093-.774-5.427.291"/><g fill="#ed4c5c"><path d="M26.612 6.922l1.5-1.5 1.5 1.5-1.5 1.5zM49.528 57.095l1.5-1.5 1.5 1.5-1.499 1.5z"/></g><path fill="#c28fef" d="M55.445 29.375l1.5-1.5 1.5 1.5-1.5 1.5z"/><path fill="#42ade2" d="M34.013 55.154l1.5-1.5 1.499 1.5-1.5 1.5z"/><path fill="#d3976e" d="M61.787 8.194l-1.395-2.402a1.602 1.602 0 0 0-2.176-.58l-.691.396a1.58 1.58 0 0 0-.782 1.572l-1.491.857a1.582 1.582 0 0 0-.582 2.164l.396.69a1.605 1.605 0 0 0 2.178.582l1.479-.852a1.602 1.602 0 0 0 1.79.139l.691-.397a1.587 1.587 0 0 0 .583-2.169"/><path fill="#89664c" d="M61.787 8.194s.07.971-.813 1.477c-.255.148-.483.283-.704.371-.179.07-.845.188-1.52-.982-.796-1.373-1.486-1.867-1.486-1.867s1.691 2.232.448 3.109c-.924.634-2.145 1.454-3.043-.1l.396.69a1.605 1.605 0 0 0 2.178.582l1.479-.852a1.602 1.602 0 0 0 1.79.139l.691-.397a1.588 1.588 0 0 0 .584-2.17"/><path fill="#b2c1c0" d="M42.549 11.847s1.725 1.264 2.298 4.611c.448 2.63 3.02 1.667 4.178 2.815l-3.866 1.539-3.664-.355-1.392.713s1.245-1.611 1.392-2.256c.53-2.356.659-6.674 1.054-7.07"/><path fill="#3e4347" d="M42.549 11.847s1.725 1.264 2.298 4.611c.448 2.63 3.02 1.667 4.178 2.815l-3.866 1.539-3.664-.355-1.392.713s1.245-1.611 1.392-2.256c.53-2.356.659-6.674 1.054-7.07"/><path fill="#46732f" d="M35.456 32.446c3.414-6.664 5.4-8.219 7.278-10.09l1.887-1.869c.336-.332 1.026-.396 1.61-.975.585-.582 1.452-2.568 2.076-3.183 0 0 .347.166.668-.15.316-.316-.169-1.115-1.444-2.381-1.275-1.268-2.08-1.748-2.398-1.432-.32.314-.15.66-.15.66-.621.619-2.623 1.479-3.209 2.063-.582.58-.646 1.264-.977 1.6l-1.886 1.872c-1.89 1.863-3.454 3.836-10.165 7.227-7.37 3.723-9.155 3.746-12.747 7.326L2.579 46.438c-.783.777-.76 1.904 0 2.663l9.395 9.327c.766.756 1.9.779 2.683 0l13.42-13.322c3.604-3.569 3.628-5.342 7.379-12.656"/><path fill="#ffe791" d="M23.998 46.38a7.492 7.492 0 0 0-1.961-7.275c-1.985-1.971-4.796-2.615-7.328-1.945l-1.394-1.385-9.395 9.326L16 57.091l9.394-9.326L24 46.38"/><g fill="#3e4347"><path d="M14.14 39.549c2.338-.822 4.604-.377 6.217 1.223 1.611 1.6 2.059 3.85 1.23 6.17l-.102.281 2.224 2.206.673-.664-1.807-1.792c.822-2.576.266-5.066-1.548-6.867-1.815-1.801-4.321-2.354-6.919-1.539l-1.806-1.793-.67.666 2.226 2.211.282-.102M17.675 55.43L5.598 43.44l-.672.66L17 56.09z"/></g><g fill="#ffe791"><path d="M35.456 32.446c3.414-6.664 6.741-9.551 8.618-11.426l-2.268-.67-1.704.82 1.034-1.361-.365-3.066c-1.737 1.68-5.314 5.65-12.02 9.04-.643.324-1.229.613-1.792.887l7.608 7.552c.275-.559.566-1.139.894-1.777"/><path d="M32.1 34.443l2.684-5.323-2.684-2.67-5.366 2.67 1.536 2.537.14 1.121 1.132.14 2.558 1.525"/></g><path opacity=".5" fill="#3e4347" d="M40.1 21.17s2.079-2.281.716-4.507l-1.601 1.589c.399.746.809 1.967.367 3.432 0 0 2-.645 3.39.428l.925-.918c-.686-.41-2.515-1.299-3.797-.024"/><g fill="#ffe791"><path d="M42.19 18.534c.402-.746.531-2.136.057-3.384 0 0 .699-.084.796-.57.099-.484-.489-1.789-.489-2.732 0 0-.838.707-1.552.707-.711 0 .603 1.346.728 1.998 0 0-.963-.152-1.857-.152-.896 0 2.078 4.938.235 6.771-.001-.002 1.505-1.562 2.082-2.638"/><path d="M40.1 21.17s1.354-1.398 3.554-1.398c0 0 .24 1.018.631.629.393-.391-.193-1.332 1.342-1.332 1.538 0 2.18.662 3.396.205 0 0 .108 1.496-1.084 1.756-1.192.258-2.151-.189-2.151.408 0 .832-.635 1.877-1.891.629-1.263-1.25-2.617-1.516-3.797-.897"/></g><g fill="#e8e8e8"><path d="M51.33 15.04c-1.186.363-2.476-.432-2.871-1.775-.394-1.344.251-2.726 1.441-3.091 1.188-.359 2.476.433 2.872 1.776.396 1.344-.251 2.726-1.442 3.09"/><path d="M48.598 13.435c-1.387.422-2.773-.133-3.096-1.24-.327-1.107.53-2.347 1.915-2.771 1.385-.422 2.772.133 3.101 1.241.326 1.108-.538 2.348-1.92 2.77M53.43 18.524c-1.187.361-2.518-.576-2.965-2.095-.447-1.52.154-3.045 1.346-3.406 1.19-.365 2.52.574 2.966 2.094.448 1.519-.156 3.044-1.347 3.407"/><path d="M50.2 17.417c-1.602.488-3.289-.445-3.773-2.085-.484-1.641.426-3.365 2.023-3.854 1.602-.49 3.293.445 3.776 2.086.482 1.641-.426 3.364-2.026 3.853"/><path d="M52.53 20.838c-.934.283-2.01-.594-2.414-1.959-.404-1.363.025-2.698.953-2.983.935-.283 2.01.592 2.415 1.958.402 1.365-.026 2.699-.954 2.984"/><path d="M49.859 20.262c-.876.266-1.808-.266-2.079-1.191-.272-.926.216-1.891 1.096-2.158.874-.267 1.804.268 2.079 1.191.272.926-.219 1.891-1.096 2.158"/><path d="M51.2 22.417c-.777.236-1.625-.301-1.893-1.205-.265-.902.15-1.824.93-2.063s1.627.301 1.892 1.203c.266.902-.15 1.828-.929 2.065"/></g><g fill="#3e4347"><path opacity=".33" d="M54.58 14.652c.004.195.006.359.005.408 0 1.283-.597 2.382-1.461 2.931.059.188.095.387.095.596 0 .932-.609 1.686-1.374 1.734-.185.604-.616 1.029-1.124 1.029-.672 0-1.501-.443-1.41-.139.268.904 1.115 1.441 1.893 1.205.623-.191 1.01-.82 1-1.527.109-.006.219-.018.329-.051.793-.244 1.215-1.256 1.072-2.395 1.066-.459 1.591-1.89 1.169-3.327-.05-.169-.127-.314-.197-.464M51.42 12.906c-.402 0-.77.141-1.076.371.088-.012.178-.029.27-.029 1.193 0 2.157 1.021 2.158 2.277-.001.26-.05.502-.123.734.372-.354.608-.857.609-1.426 0-1.062-.823-1.927-1.838-1.927M48.642 12.298c.456-.389 1.071-.471 1.646-.283-.004-.004-.004-.004-.002-.006-.582-.703-1.582-.818-2.236-.26-.655.557-.717 1.58-.137 2.283.077.094.164.178.255.248-.238-.724-.08-1.511.474-1.982"/><path d="M30.771 31.686l-1.252-1.242.878-.871.147.146-.714.711.382.381.671-.666.146.146-.67.668.426.42.744-.738.146.146-.904.899M31.893 30.573l-1.251-1.244.241-.24 1.174.594c.108.057.188.1.243.127a13.746 13.746 0 0 1-.137-.262l-.579-1.154.216-.214 1.25 1.242-.153.152-1.049-1.039.695 1.391-.146.143-1.415-.709 1.064 1.059-.153.154M32.653 28.608c-.208-.207-.316-.422-.327-.646a.763.763 0 0 1 .244-.59.798.798 0 0 1 .386-.219.765.765 0 0 1 .436.025c.146.051.281.139.406.264.127.125.215.262.266.412.05.146.057.293.017.434a.815.815 0 0 1-.217.369.765.765 0 0 1-.392.219.77.77 0 0 1-.438-.025 1.093 1.093 0 0 1-.381-.243m.168-.162c.15.15.307.23.473.236a.551.551 0 0 0 .427-.164.537.537 0 0 0 .167-.426c-.01-.166-.096-.326-.258-.488a.906.906 0 0 0-.314-.215.558.558 0 0 0-.603.123.566.566 0 0 0-.172.412c-.003.16.091.336.28.522M34.19 27.584l.125-.164c.1.09.182.139.25.143a.233.233 0 0 0 .18-.074.267.267 0 0 0 .076-.133.21.21 0 0 0-.018-.137.66.66 0 0 0-.141-.172l-.861-.855.16-.16.854.846a.866.866 0 0 1 .205.279c.033.08.039.162.016.246a.536.536 0 0 1-.143.23.447.447 0 0 1-.338.15c-.12-.007-.242-.074-.365-.199M35.505 26.987l-1.252-1.244.16-.16 1.251 1.244-.159.16M35.29 25.989c-.208-.207-.318-.422-.326-.645a.762.762 0 0 1 .242-.592.806.806 0 0 1 .387-.219.765.765 0 0 1 .436.025c.146.051.281.139.407.264s.215.264.266.412c.05.148.056.293.017.434a.85.85 0 0 1-.217.371.783.783 0 0 1-.83.19 1.024 1.024 0 0 1-.382-.24m.166-.16c.152.148.311.227.477.234.164.01.307-.045.426-.164s.177-.264.166-.428c-.01-.164-.096-.326-.257-.486a.94.94 0 0 0-.316-.215.54.54 0 0 0-.323-.029.53.53 0 0 0-.277.152.563.563 0 0 0-.174.41c-.003.164.091.336.278.526M37.27 25.24l-1.252-1.244.165-.164 1.618.344-.98-.977.154-.152 1.251 1.242-.165.166-1.619-.346.981.977-.153.154M38.493 24.02l-1.251-1.242.878-.871.147.148-.716.709.383.381.67-.666.146.146-.67.666.426.422.744-.74.147.146-.904.901"/><path fill-rule="evenodd" d="M13.725 48.4l-.434-.117a.243.243 0 0 0-.05-.258l-.174-.172a.239.239 0 0 0-.256-.051l-.117-.432-.282-1.039-.756.756-.756.756 1.037.281.434.117a.24.24 0 0 0 .051.258l.172.171a.241.241 0 0 0 .257.051l.119.434.279 1.037.757-.756.755-.756-1.036-.28"/><path d="M14.322 44.717c-.063.283-.035.564.058.828.091.266.251.51.454.713s.447.361.713.453c.264.094.544.121.828.059-.18.227-.504.342-.854.305a1.69 1.69 0 0 1-1-.502c-.281-.279-.467-.65-.501-1-.038-.35.078-.675.304-.854"/><path fill-rule="evenodd" d="M20.288 46.645l.056-.055c.042-.043.046-.057.035-.092a1.717 1.717 0 0 0-.07-.18 1.844 1.844 0 0 0-.073-.135 4.1 4.1 0 0 0-5.329-5.328 1.37 1.37 0 0 0-.315-.142c-.033-.012-.047-.008-.09.035l-.055.055c-.104.104-.076.051-.046.168a.372.372 0 0 1 .013.121 4.098 4.098 0 0 0-.885 6.471A4.104 4.104 0 0 0 20 46.676c.042 0 .082.004.121.014.117.031.063.058.167-.045m-1.304-4.538a3.613 3.613 0 0 1 .906 3.602 8.387 8.387 0 0 0-.943-.955c-.391-.326-.771-.545-1.142-.664a1.388 1.388 0 0 1-.804-.805c-.119-.371-.338-.75-.665-1.141a8.452 8.452 0 0 0-.954-.943 3.613 3.613 0 0 1 3.602.906m-5.112 5.114a3.613 3.613 0 0 1 .058-5.17c-.251.43-.271.854-.082 1.27.203.447.571.807 1.021 1 .248.107.514.15.817.092.533-.102.667-.363 1.05-.525.336-.139.607.133.467.467-.16.385-.424.518-.525 1.051-.057.305-.014.57.093.816.193.451.554.82 1 1.023.417.188.84.17 1.271-.084-.019.02-.038.041-.058.059a3.617 3.617 0 0 1-5.112.001"/></g><path fill="#e8e8e8" d="M49.795 25.12c-1.039.438-2.134-.396-2.448-1.859-.314-1.465.276-3 1.313-3.439 1.04-.438 2.136.398 2.448 1.861s-.276 3-1.313 3.437"/><path opacity=".33" fill="#3e4347" d="M51.11 21.686c-.166-.781-.561-1.375-1.047-1.701.24.322.432.725.533 1.201.313 1.463-.275 3-1.313 3.438-.483.203-.977.123-1.4-.16.495.662 1.215.955 1.915.66 1.037-.434 1.625-1.975 1.312-3.438"/><path fill="#e8e8e8" d="M47.627 28.68c-1.038.436-2.133-.396-2.447-1.859-.314-1.467.276-3 1.313-3.439 1.039-.438 2.135.396 2.448 1.861.312 1.463-.277 3-1.314 3.437"/><path opacity=".33" fill="#3e4347" d="M48.94 25.25c-.167-.781-.561-1.375-1.047-1.701.239.322.431.723.533 1.201.313 1.463-.276 3-1.313 3.438-.483.203-.977.121-1.4-.162.495.664 1.215.957 1.914.662 1.037-.434 1.626-1.975 1.313-3.438"/><path fill="#e8e8e8" d="M47.09 33.1c-1.038.436-2.133-.396-2.447-1.859-.314-1.467.276-3 1.313-3.439 1.039-.438 2.135.396 2.448 1.861.312 1.463-.277 3-1.314 3.437"/><path opacity=".33" fill="#3e4347" d="M48.4 29.661c-.167-.781-.561-1.375-1.047-1.701.239.322.431.723.533 1.201.313 1.463-.276 3-1.313 3.438-.483.203-.977.121-1.4-.162.495.664 1.215.957 1.914.662 1.037-.434 1.626-1.975 1.313-3.438"/><path fill="#e8e8e8" d="M50.752 31.467c-.744.313-1.527-.283-1.753-1.33-.225-1.049.198-2.15.94-2.461.744-.314 1.527.283 1.752 1.332.224 1.047-.197 2.149-.939 2.459"/><path opacity=".33" fill="#3e4347" d="M51.691 29.01c-.119-.559-.4-.984-.75-1.217.172.23.309.518.383.859.223 1.047-.199 2.15-.941 2.461-.346.145-.697.086-1-.115.355.475.869.684 1.371.473.742-.31 1.163-1.412.939-2.461"/><path fill="#e8e8e8" d="M46.869 38.15c-.638.268-1.31-.244-1.504-1.143-.192-.9.171-1.846.807-2.111.639-.27 1.312.242 1.504 1.143.191.898-.17 1.843-.807 2.111"/><path opacity=".33" fill="#3e4347" d="M47.676 36.03c-.103-.48-.344-.844-.644-1.045.147.199.265.445.328.738.191.898-.17 1.844-.808 2.111-.296.125-.599.074-.859-.1.305.408.746.588 1.176.406.637-.264.998-1.211.807-2.11"/><g fill="#e8e8e8"><path d="M47.4 26.19c-1.038.436-2.133-.396-2.447-1.861s.276-3 1.313-3.438c1.039-.439 2.135.396 2.448 1.861.311 1.463-.277 3-1.314 3.438"/><path d="M48.45 21.717c-1.038.438-2.133-.396-2.447-1.859-.314-1.465.276-3 1.313-3.438 1.039-.438 2.135.397 2.449 1.86.312 1.463-.278 3-1.315 3.437"/></g><path opacity=".33" fill="#3e4347" d="M50.07 17.547a1.682 1.682 0 0 1-1.198-.512c.145.703.737 1.23 1.442 1.23.82 0 1.484-.705 1.484-1.571a1.67 1.67 0 0 0-.074-.467c-.203.76-.865 1.318-1.654 1.32"/></svg>