<svg xmlns="http://www.w3.org/2000/svg" viewBox="0 0 64 64" xmlns:xlink="http://www.w3.org/1999/xlink"><path fill="#3e4347" d="M62 55.628c0 .757-.615 1.372-1.375 1.372H3.377C2.617 57 2 56.385 2 55.628V8.373C2 7.616 2.617 7 3.377 7h57.248C61.385 7 62 7.616 62 8.373v47.255z" id="a"/><use xlink:href="#a"/><g fill="#ff5760"><path d="M36.13 36.809a2.757 2.757 0 0 0-2.752-2.747H8.882a2.758 2.758 0 0 0-2.752 2.747v13.323a2.76 2.76 0 0 0 2.752 2.749h24.496a2.759 2.759 0 0 0 2.752-2.749V36.809M23.745 13.869a2.76 2.76 0 0 0-2.754-2.748H8.881a2.758 2.758 0 0 0-2.752 2.748v13.323a2.758 2.758 0 0 0 2.752 2.747h12.11a2.76 2.76 0 0 0 2.754-2.747V13.869M30.625 11.12a2.758 2.758 0 0 0-2.754 2.748v13.323a2.758 2.758 0 0 0 2.754 2.747h24.494a2.757 2.757 0 0 0 2.752-2.747V13.868a2.757 2.757 0 0 0-2.752-2.748H30.625"/></g><path fill="#fff" d="M33.514 41.41a2.062 2.062 0 0 0-2.063-2.062 2.06 2.06 0 1 0 0-4.12 2.06 2.06 0 0 0-2.064 2.06c0-1.138-.924-2.06-2.065-2.06a2.062 2.062 0 0 0-2.063 2.06c0-1.138-.926-2.06-2.063-2.06a2.062 2.062 0 0 0-2.065 2.06 2.066 2.066 0 0 0-4.131.001 2.06 2.06 0 0 0-2.063-2.06 2.062 2.062 0 0 0-2.063 2.06c0-1.138-.926-2.06-2.064-2.06a2.061 2.061 0 1 0 0 4.12 2.062 2.062 0 1 0 0 4.122 2.062 2.062 0 1 0 0 4.122 2.063 2.063 0 0 0-2.064 2.062c0 1.137.924 2.06 2.064 2.06a2.063 2.063 0 0 0 2.064-2.06c0 1.137.924 2.06 2.063 2.06A2.06 2.06 0 0 0 17 49.655c0 1.137.925 2.06 2.065 2.06s2.063-.923 2.063-2.06a2.063 2.063 0 0 0 4.128 0c0 1.137.925 2.06 2.063 2.06a2.062 2.062 0 0 0 2.065-2.06c0 1.137.923 2.06 2.064 2.06a2.06 2.06 0 1 0 0-4.122 2.06 2.06 0 1 0 0-4.122 2.063 2.063 0 0 0 2.066-2.061"/><circle fill="#ff5760" cx="21.13" cy="43.47" r="2.064"/><ellipse fill="#3e4347" cx="14.937" cy="20.531" rx="7.981" ry="7.966"/><ellipse fill="#c94747" cx="14.938" cy="20.531" rx="6.386" ry="6.374"/><path fill-rule="evenodd" fill="#dae3ea" d="M57.11 19.75c-.001-.411-.573-.566-.69-.93.063-.364.482-.512.646-.825.207-.399-.378-.697-.569-.956-.314-.424.284-.91.043-1.328-.209-.357-.799-.192-1.076-.469-.278-.277-.109-.867-.471-1.078-.356-.207-.79.23-1.167.128-.386-.103-.642-.896-1.114-.652-.341.178-.517.704-.958.656-.315-.034-.867-.394-1.103-.02-.203.323-.093.87-.499 1.049-.39.171-1.079.11-.943.729.096.432.303.757-.063 1.116-.282.278-.668.563-.317.959.191.215.697.482.454.814-.253.343-.873.638-.456 1.109.212.239.728.521.456.891-.192.26-.771.557-.566.954.125.243.729.55.647.862-.102.387-.894.644-.646 1.115.179.341.707.515.661.958-.031.316-.387.871-.014 1.104.325.204.873.094 1.052.501.172.392.111 1.081.731.948.435-.092.76-.3 1.12.069.279.286.564.673.963.318.332-.299.5-.637 1-.499.547.15.885.244 1.034-.411.117-.509.267-.659.776-.776.498-.112.624-.333.474-.82-.154-.501-.099-.704.282-1.06.481-.451.255-.713-.151-1.106-.721-.701.93-.975.309-1.675-.155-.177-.61-.446-.535-.731.099-.379.691-.524.69-.944"/><g fill="#839391"><path d="M50.31 16.728c.187-.368.018-.99.429-1.222.336-.192.885.17 1.129.067.363-.208.565-.749 1.051-.726.437.021.681.66.955.721.386.044.843-.272 1.201-.035.383.221.222.867.396 1.21-.284-.267-.259-.715-.56-.954-.203-.135-.803.328-1.141.222-.356-.092-.579-.668-.91-.668-.136 0-.556.579-.84.655-.421.086-.775-.243-1.18-.206-.241.151-.28.703-.53.936M50.31 20.728c.187-.368.018-.991.429-1.224.336-.189.873.154 1.129.069.362-.208.565-.75 1.051-.727.437.022.682.663.955.722.386.044.844-.272 1.201-.034.384.222.221.866.396 1.208-.284-.266-.259-.714-.56-.954-.203-.135-.803.33-1.141.222-.355-.091-.58-.667-.91-.667-.136 0-.556.58-.84.657-.422.084-.775-.244-1.18-.209-.241.151-.28.704-.53.937M50.31 18.729c.187-.368.018-.992.429-1.224.336-.19.885.17 1.129.067.363-.206.565-.748 1.051-.725.437.021.681.662.955.721.386.044.843-.272 1.201-.035.383.221.222.866.396 1.209-.284-.266-.259-.714-.56-.954-.203-.135-.803.33-1.141.222-.356-.091-.579-.667-.91-.667-.136 0-.556.581-.84.656-.422.085-.775-.245-1.18-.207-.241.15-.28.702-.53.937"/></g><g fill="#fc97b2"><path d="M55.31 24.396l-.012.039.012-.039M55.26 24.536c-.007.023-.006.019 0 0"/><path d="M51.567 24.719c-.912-1.061-.35-3.107 1.257-2.913 1.303.157 1.73 2.374.275 2.216-.562-.061-.976-.907-.334-1.19.609-.287.747.415.672.777.787-.581-.426-1.554-1.123-.99-.653.525-.425 1.512.258 1.88 1.945 1.05 2.96-2.465.771-3-1.967-.481-3.172 2.119-2.105 3.592 1.084 1.497 3.53 1.056 4.068-.692-.585.308-.885.971-1.713 1.096a2.262 2.262 0 0 1-2.026-.775"/><path d="M55.27 24.503l-.01.033c.003-.009.007-.017.01-.033M55.28 24.471l-.011.032.011-.032"/></g><g fill="#83bf4f"><path d="M45.38 17.97a22.118 22.118 0 0 0-12.95 0c-1.741.591-3.039-2.371-.943-3.079 4.834-1.48 10-1.48 14.836 0 2.096.708.798 3.67-.943 3.079"/><path d="M45.38 22.572a22.118 22.118 0 0 0-12.95 0c-1.741.591-3.039-2.371-.943-3.079 4.834-1.48 10-1.48 14.836 0 2.096.708.798 3.67-.943 3.079"/><path d="M45.38 27.17a22.118 22.118 0 0 0-12.95 0c-1.741.591-3.039-2.371-.943-3.079 4.834-1.48 10-1.48 14.836 0 2.096.708.798 3.67-.943 3.079"/></g><path fill="#ff5760" d="M43.01 34.06a2.757 2.757 0 0 0-2.752 2.747V50.13a2.759 2.759 0 0 0 2.752 2.749h12.11a2.759 2.759 0 0 0 2.752-2.749V36.807a2.757 2.757 0 0 0-2.752-2.747H43.01"/><path fill="#fbbf67" d="M54.844 37.12c0-1.063-1.257-1.801-1.926-1.922-.477-.088-1.635.096-1.918.258-.283-.162-1.447-.486-1.936-.488-.521 0-1.781.326-2.064.488-.283-.162-1.344-.338-1.789-.258-.669.121-1.926.859-1.926 1.922a1.924 1.924 0 0 0 0 3.846c0 1.063 1.256 1.803 1.926 1.924.444.082 1.506-.096 1.789-.26.283.164 1.544.34 2.064.338.488 0 1.652-.174 1.936-.338.283.164 1.441.348 1.918.26.67-.123 1.926-.861 1.926-1.924 1.064 0 1.928-.859 1.928-1.922s-.864-1.924-1.928-1.924"/><g fill="#89664c"><path d="M51.564 36.547h1v5h-1zM45.564 36.547h1v5h-1zM48.564 36.547h1v5h-1z"/></g><path fill="#fbbf67" d="M54.844 46.12c0-1.063-1.257-1.801-1.926-1.922-.477-.088-1.635.096-1.918.258-.283-.162-1.447-.486-1.936-.488-.521 0-1.781.326-2.064.488-.283-.162-1.344-.338-1.789-.258-.669.121-1.926.859-1.926 1.922a1.924 1.924 0 0 0 0 3.846c0 1.063 1.256 1.803 1.926 1.924.444.082 1.506-.096 1.789-.26.283.164 1.544.34 2.064.338.488 0 1.652-.174 1.936-.338.283.164 1.441.348 1.918.26.67-.123 1.926-.861 1.926-1.924 1.064 0 1.928-.859 1.928-1.922s-.864-1.924-1.928-1.924"/><g fill="#89664c"><path d="M51.564 45.547h1v5h-1zM45.564 45.547h1v5h-1zM48.564 45.547h1v5h-1z"/></g></svg>