<svg xmlns="http://www.w3.org/2000/svg" viewBox="0 0 64 64"><path fill="#3e4347" d="M60.26 3.957l-.214-.215a5.922 5.922 0 0 0-8.389 0l-10.05 10.09c-10.01-6.223-23.317-4.986-32 3.729-10.135 10.17-10.133 26.652 0 36.816 10.135 10.168 26.565 10.17 36.702 0 8.621-8.647 9.903-21.859 3.862-31.872l10.1-10.13a5.963 5.963 0 0 0 0-8.414m-4.654 8.184a3.726 3.726 0 0 1-3.719-3.73c0-2.059 1.666-3.729 3.719-3.729s3.719 1.67 3.719 3.729a3.726 3.726 0 0 1-3.719 3.73"/><path fill="#fff" d="M12.208 30.05c-4.095 9.108-1.162 19.326 6.552 22.823 7.709 3.493 17.281-1.058 21.377-10.165 4.092-9.109 1.158-19.329-6.553-22.823-7.712-3.495-17.281 1.053-21.376 10.165"/><circle fill="#f29a2e" cx="22.95" cy="35.965" r="8"/></svg>