<svg xmlns="http://www.w3.org/2000/svg" viewBox="0 0 64 64"><path fill="#ffe62e" d="M12.907 8.358c-.656-.106-1.548-1.75-3.898-4.102C6.188 1.438 4.22 1.595 2.907 2.909c-1.312 1.311-1.47 3.28 1.35 6.1 2.351 2.351 3.995 3.242 4.101 3.898.587 3.678-1.812 7.08-.35 8.539L21.445 8.008c-1.462-1.461-4.862.938-8.538.35"/><path fill="#b4d7ee" d="M60.986 39.57a3.461 3.461 0 0 1-.001 4.896l-16.52 16.52a3.46 3.46 0 0 1-4.895 0L12.807 34.223a3.46 3.46 0 0 1 0-4.895l16.521-16.521a3.463 3.463 0 0 1 4.896 0L60.986 39.57"/><path fill="#fff" d="M56.53 40.14a2.652 2.652 0 0 1 0 3.748L43.882 56.534a2.649 2.649 0 0 1-3.747 0l-18.311-18.31 32.792.002 1.914 1.914"/><g fill="#2090bc"><path d="M16.441 32.837l6.343-6.343 1.713 1.714-6.343 6.342zM20.94 37.339l6.343-6.343 1.714 1.713-6.343 6.343zM25.441 41.838l6.342-6.344 1.714 1.713-6.342 6.344zM29.94 46.337l6.344-6.342 1.713 1.713-6.344 6.342zM34.45 50.837l6.341-6.342 1.714 1.713-6.342 6.343zM38.947 55.338l6.342-6.342 1.714 1.714-6.343 6.342zM6.699 25.356c-1.533-1.533-.423-2.906 1.11-4.439l13.11-13.11c1.532-1.533 2.906-2.642 4.438-1.109l3.374 3.375c1.532 1.532.426 2.906-1.108 4.438l-13.11 13.11c-1.533 1.534-2.908 2.642-4.44 1.11l-3.375-3.375"/></g><g fill="#095972"><path d="M6.726 23.449l.764-.765 5.234 5.227-.764.765zM22.924 7.252l.762-.761 5.23 5.23-.761.762zM20.225 9.948l.763-.764 5.23 5.23-.763.764zM17.527 12.646l.764-.763 5.227 5.234-.763.763zM14.826 15.346l.762-.761 5.23 5.23-.761.762zM12.13 18.044l.763-.762 5.227 5.234-.763.762zM9.425 20.745l.764-.763 5.231 5.23-.764.765z"/></g></svg>