<svg xmlns="http://www.w3.org/2000/svg" viewBox="0 0 64 64"><circle fill="#dae3ea" cx="31" cy="32" r="22"/><path fill="#acb8bf" d="M31 17.08c8.647 0 15.675 6.633 15.969 14.92.007-.18.031-.358.031-.54C47 22.92 39.836 16 31 16c-8.838 0-16 6.921-16 15.46 0 .181.021.359.026.54.299-8.287 7.326-14.92 15.974-14.92"/><path fill="#fff" d="M31 46.92c-8.648 0-15.675-6.633-15.974-14.92-.005.18-.026.357-.026.54C15 41.08 22.162 48 31 48c8.836 0 16-6.921 16-15.46 0-.182-.024-.359-.031-.54-.294 8.287-7.322 14.92-15.969 14.92"/><g fill="#acb8bf"><path d="M60.52 7.42c-.239-.94-.714-.01-.714-.01s-.167 9.74-1.247 9.845c-1.08.106-.248-10.02-1.525-10.216-1.188-.189-.509 10.377-1.592 10.27-1.077-.114-1.26-9.849-1.26-9.849s-.48-.929-.717.005c-2.928 11.509-.558 16.215-.558 16.215s.4.989 1.35.995c.088-.005.021 27.335.027 31.01-.002 1.787 5.499 1.732 5.495-.047-.004-3.676-.11-31.01-.024-31.01.953 0 1.352-.989 1.352-.989s2.361-4.703-.587-16.219M2.62 7C3.858 6.997 8.993 10.7 9 24.462c.005 4.401-2.395 4.4-2.391 7.154l.019 24.606s-2.634 1.807-4.592-.084L2 7.39c.001.001-.005-.391.62-.39"/></g></svg>