<svg xmlns="http://www.w3.org/2000/svg" viewBox="0 0 64 64"><path fill="#c7d7d7" d="M45.5 49.23v-4.802c4.376 0 7.714-2.943 8.558-6.325.864-3.461 1.649-8.735 1.098-12.222-.565-3.566-9.655-1.093-9.655-1.093v-4.805s12.793-2.876 13.689 2.608c.664 4.07.197 11.705-.775 15.505-1.39 5.428-6.439 11.134-12.915 11.134"/><g fill="#fff"><path d="M45.5 24.484s3.98-2.01 9.638-1.297c-5.458-2.547-9.638-.585-9.638-.585v1.882M45.5 45.41s3.781.133 7.594-2.717c-2.541 4.772-7.594 4.633-7.594 4.633V45.41"/></g><path fill="#c7d7d7" d="M45.867 9.034H12.369v48.771c0 5.426 33.499 5.426 33.499 0V9.034z"/><path fill="#fff" d="M14.726 12.06H43.51V26.6H14.726z"/><path fill="#ff9617" d="M43.51 26.605H14.726v27.432c0 4.403 28.784 4.403 28.784 0V26.605z"/><g fill="#d8d2b8"><path d="M43.51 8.838c0 2.533-3.087 4.59-6.9 4.59s-6.901-2.057-6.901-4.59c0-2.542 3.088-4.598 6.901-4.598 3.813 0 6.9 2.056 6.9 4.598"/><path d="M48.5 10.837c0 2.13-2.026 3.855-4.526 3.855-2.497 0-4.521-1.726-4.521-3.855 0-2.136 2.024-3.862 4.521-3.862 2.5 0 4.526 1.726 4.526 3.862M15.654 23.4c0 2.084-1.882 3.778-4.207 3.778-2.328 0-4.213-1.694-4.213-3.778 0-2.094 1.885-3.787 4.213-3.787 2.325-.003 4.207 1.694 4.207 3.787"/><path d="M17.757 28.498c0 2.084-1.882 3.779-4.207 3.779-2.328 0-4.213-1.695-4.213-3.779 0-2.094 1.885-3.787 4.213-3.787 2.325-.001 4.207 1.693 4.207 3.787M26.04 11.186c0 4.112-3.715 7.45-8.299 7.45-4.581 0-8.301-3.338-8.301-7.45 0-4.126 3.72-7.461 8.301-7.461 4.585-.002 8.299 3.335 8.299 7.461"/><path d="M18.388 16.71c0 3.585-3.104 6.489-6.945 6.489-3.836 0-6.943-2.904-6.943-6.489 0-3.593 3.107-6.497 6.943-6.497 3.842-.002 6.945 2.904 6.945 6.497M34.59 7.596c0 3.01-2.819 5.46-6.293 5.46-3.473 0-6.291-2.447-6.291-5.46 0-3.03 2.818-5.471 6.291-5.471 3.474-.003 6.293 2.444 6.293 5.471"/></g><g fill="#fff"><path d="M43.19 9.545c0 2.485-2.9 4.5-6.474 4.5-3.576 0-6.477-2.02-6.477-4.5 0-2.492 2.901-4.505 6.477-4.505 3.573 0 6.474 2.01 6.474 4.505"/><path d="M47.579 11c0 1.88-1.976 3.404-4.413 3.404-2.439 0-4.415-1.524-4.415-3.404 0-1.884 1.976-3.41 4.415-3.41 2.438 0 4.413 1.526 4.413 3.41M16.812 23.2c0 1.978-1.842 3.583-4.108 3.583-2.269 0-4.108-1.605-4.108-3.583 0-1.985 1.84-3.59 4.108-3.59 2.266-.001 4.108 1.605 4.108 3.59M36.452 12.614c0 1.978-1.841 3.585-4.111 3.585-2.266 0-4.107-1.607-4.107-3.585 0-1.984 1.842-3.59 4.107-3.59 2.27-.001 4.111 1.606 4.111 3.59M26.661 11.92c0 3.899-3.622 7.06-8.096 7.06-4.469 0-8.098-3.165-8.098-7.06 0-3.914 3.629-7.07 8.098-7.07 4.474-.005 8.096 3.159 8.096 7.07"/><path d="M19.2 16.918c0 3.265-3.037 5.914-6.779 5.914-3.741 0-6.777-2.649-6.777-5.914 0-3.275 3.036-5.92 6.777-5.92 3.742-.001 6.779 2.645 6.779 5.92M34.59 8.516c0 2.855-2.655 5.176-5.935 5.176-3.275 0-5.936-2.32-5.936-5.176 0-2.868 2.66-5.186 5.936-5.186 3.28-.002 5.935 2.317 5.935 5.186M18.565 28.496c0 1.979-1.839 3.584-4.109 3.584-2.267 0-4.105-1.604-4.105-3.584 0-1.984 1.839-3.588 4.105-3.588 2.27-.001 4.109 1.604 4.109 3.588"/><path d="M23.751 24.911c0 1.905-1.772 3.451-3.955 3.451-2.186 0-3.955-1.546-3.955-3.451 0-1.91 1.77-3.457 3.955-3.457 2.183-.002 3.955 1.547 3.955 3.457"/></g><g fill="#d8d2b8"><path d="M26.04 21.729a3.132 3.132 0 0 0-1.248-.98c-.22-.089-.527-.195-.746-.218a4.637 4.637 0 0 0-.743-.04l-.356.002-.142-.382a2.843 2.843 0 0 0-.862-1.233 3.638 3.638 0 0 0-.637-.408 2.733 2.733 0 0 0-.393-.162 4.081 4.081 0 0 0-.375-.1c-1.045-.23-2.229.037-3.041.726l-.459.389-.368-.344a1.928 1.928 0 0 0-.274-.22c-.168-.094-.205-.115-.348-.173a2.14 2.14 0 0 0-.807-.164 2.567 2.567 0 0 0-1.698.592c.222-.577.85-1.046 1.603-1.22a3.207 3.207 0 0 1 1.185-.016 3.029 3.029 0 0 1 1.116.461l-.827.047c.929-1.122 2.701-1.657 4.272-1.291.196.045.378.101.58.176.215.081.382.157.512.228.375.199.672.409.934.683.537.525.852 1.193.932 1.863l-.5-.379c.345.043.668.11.995.244.169.068.33.139.438.213.115.063.289.173.391.266.48.391.8.913.866 1.44M29.554 6.211a3.875 3.875 0 0 0-1.689.097c-.145.046-.219.078-.365.138-.15.05-.25.116-.342.172a3.89 3.89 0 0 0-.549.436l-.244.223-.414-.171c-.523-.215-1.081-.342-1.631-.319a4.4 4.4 0 0 0-.779.103c-.367.093-.5.161-.763.29-.923.471-1.521 1.391-1.495 2.372l.016.567-.55-.011c-.128-.002-.262 0-.37.018a2.264 2.264 0 0 0-.387.094 1.881 1.881 0 0 0-.692.381 1.833 1.833 0 0 0-.661 1.461c-.336-.526-.301-1.249.079-1.839.202-.289.479-.548.815-.742.148-.098.409-.192.535-.236.211-.068.408-.103.611-.131l-.533.556c-.324-1.358.481-2.866 1.899-3.571a4.804 4.804 0 0 1 1.091-.382c.44-.09.809-.13 1.218-.097a4.366 4.366 0 0 1 2.178.705l-.658.054c.277-.188.56-.346.904-.452.177-.061.341-.108.481-.123.134-.03.348-.058.495-.057.66-.021 1.314.143 1.8.464"/></g><g fill="#fcb334"><ellipse cx="33.791" cy="34.389" rx="5.363" ry="5.139"/><ellipse cx="26.04" cy="42.891" rx="4.02" ry="3.854"/><ellipse cx="33.969" cy="46.44" rx="2.684" ry="2.569"/><ellipse cx="28" cy="51.863" rx="1.879" ry="1.799"/></g></svg>