<svg xmlns="http://www.w3.org/2000/svg" viewBox="0 0 64 64"><path fill="#e6eff4" d="M32.16 23.585c6.01 9.841 17.618 1.514 23.631 11.354 2.043-6.737 4.162-13.453 6.207-20.19-6.01-9.841-17.621-1.512-23.633-11.353-2.045 6.738-4.162 13.454-6.205 20.19"/><path fill="#ff2449" d="M51.44 21.262c-.848 2.79-3.486 4.113-5.891 2.956-2.408-1.155-3.672-4.355-2.824-7.147.846-2.792 3.484-4.116 5.891-2.956 2.406 1.155 3.669 4.357 2.824 7.147"/><path fill="#3e4347" d="M39.38 3.344a1.04 1.04 0 0 0-1.986-.61l-18.15 59.27h2.173L39.378 3.348"/><path fill="#e6eff4" d="M31.838 23.585c-6.01 9.841-17.618 1.514-23.631 11.354C6.164 28.201 4.045 21.486 2 14.749c6.01-9.841 17.62-1.512 23.632-11.353 2.045 6.739 4.162 13.454 6.206 20.19"/><path fill="#ff2449" d="M12.563 21.262c.848 2.79 3.485 4.113 5.891 2.956 2.406-1.155 3.671-4.355 2.823-7.147-.847-2.792-3.483-4.116-5.891-2.956-2.406 1.155-3.67 4.357-2.823 7.147"/><path fill="#4c5256" d="M26.602 2.733a1.04 1.04 0 0 0-1.987.61L42.576 62h2.172L26.598 2.73"/></svg>