<svg xmlns="http://www.w3.org/2000/svg" viewBox="0 0 64 64"><g fill="#c94747"><path d="M15.347 13.1S16.064 33.31 2 46.004h13v16s13.553-19.215 13.553-48.915l-13.206.011M48.654 13.1S47.935 33.31 62 46.004H49v16S35.447 42.789 35.447 13.089l13.207.011"/></g><path fill="#ff5760" d="M30.662 13.97c0 5.081-5.659 10.02-12.577 10.981l-5.537.768c-6.917.959-11.576-1.293-10.353-5 1.224-3.709 1.224-9.782 0-13.492-1.223-3.71 3.436-5.962 10.353-5l5.537.768c6.917.958 12.577 5.9 12.577 10.981"/><path fill="#c94747" d="M3.887 21.265c-.543.52.082 1.072.271 1.317.568.742 2.268 1.536 5.333 1.536.88 0 1.817-.068 2.785-.202l5.537-.768c3.875-.538 7.358-2.517 9.306-4.983-.001 0-16.803-3.049-23.23 3.1"/><path fill="#ff5760" d="M33.34 13.97c0 5.081 5.658 10.02 12.576 10.981l5.537.768c6.916.959 11.574-1.293 10.352-5-1.223-3.709-1.223-9.782 0-13.492 1.223-3.71-3.436-5.962-10.352-5l-5.537.768c-6.918.958-12.576 5.9-12.576 10.981"/><g fill="#c94747"><path d="M60.11 21.265c.545.52-.082 1.072-.27 1.317-.568.742-2.268 1.536-5.332 1.536-.881 0-1.818-.068-2.785-.202l-5.537-.768c-3.875-.538-7.357-2.517-9.307-4.983.001 0 16.804-3.049 23.23 3.1M31.22 12.534s-1.658 1.446-5.754-2.02c-4.662-3.947-11.547 1.292-2.42 3.61 4.875 1.237 8.174-1.589 8.174-1.589M32.784 12.534s1.658 1.446 5.753-2.02c4.662-3.947 11.547 1.292 2.42 3.61-4.875 1.237-8.173-1.589-8.173-1.589"/><path d="M32 20.915c-3.738 0-4.661 2.764-4.661-6.842 0-9.608.923-6.843 4.661-6.843 3.738 0 4.662-2.766 4.662 6.843 0 9.606-.924 6.842-4.662 6.842"/></g><path fill="#ff5760" d="M32 21.09c-3.03 0-3.777 2.835-3.777-7.02 0-9.858.748-7.02 3.777-7.02 3.03 0 3.777-2.837 3.777 7.02 0 9.856-.748 7.02-3.777 7.02"/></svg>