<svg xmlns="http://www.w3.org/2000/svg" viewBox="0 0 64 64"><g fill="#699635"><path d="M16.626 18.474s-4.579-2.834-14.626 0c0 0 10.426 1.241 15.73 4.591l-1.104-4.591"/><path d="M19.678 23.06s-4.578-2.835-14.625 0c0 0 8.647.135 14.713 4.589.918.674-.088-4.589-.088-4.589M23.04 33.999S26.551 20.5 34.182 14.02c7.631-6.479 9.92-11.474 9.92-11.474s-5.01 27.943-20.373 35.23l-.689-3.779"/></g><path fill="#594640" d="M34.98 33.538c-3.724-1.715-4.812-4.65-4.856-4.775l1.188-.479-.594.238.594-.242c.009.025.967 2.545 4.173 4.02l-.505 1.238"/><path fill="#75a843" d="M24.572 59.15L14.14 9.204l4.97-1.164 10.43 49.941z"/><path fill="#83bf4f" d="M31.67 61.46L22.258 3.68l5.01-.92 9.414 57.78z"/><g fill="#699635"><path d="M15.42 15.1l4.961-1.199c.799-.193.459-1.494-.34-1.302l-4.959 1.199c-.799.193-.46 1.494.338 1.302M18.245 28.26l4.961-1.199c.799-.193.459-1.495-.338-1.302l-4.961 1.199c-.8.192-.461 1.495.338 1.302M21.07 41.42l4.961-1.199c.799-.193.46-1.494-.338-1.301-1.653.398-3.308.799-4.961 1.199-.799.193-.461 1.494.338 1.301M23.893 54.59c1.654-.4 3.307-.801 4.961-1.199.799-.193.46-1.494-.338-1.301-1.654.398-3.308.799-4.961 1.197-.8.194-.461 1.496.338 1.303"/></g><g fill="#75a843"><path d="M23.625 11.826l5-.958c.808-.154.465-1.455-.337-1.302l-5.01.958c-.807.155-.463 1.455.339 1.302M25.881 25.11c1.669-.318 3.338-.639 5.01-.958.807-.154.465-1.455-.338-1.301-1.668.318-3.337.639-5 .958-.807.155-.463 1.455.337 1.301M28.14 38.4c1.67-.318 3.338-.639 5-.959.807-.154.465-1.453-.337-1.301l-5.01.959c-.806.154-.463 1.455.338 1.301M30.397 51.681l5.01-.959c.807-.154.465-1.455-.338-1.301-1.668.318-3.337.639-5 .957-.807.154-.463 1.455.338 1.303"/></g><path fill="#ed4c5c" d="M32.22 39.03s4.372 8.818 14.165 13.162c9.793 4.346 11.955 8.26 11.955 8.26l3.658-13.482s-2.799-4.471-14.217-9.734c-3.578-1.65-6.643-5.811-9.791-10.768L32.22 39.03"/><path fill="#ffce31" d="M32.459 39.872l-1.139-.592 6.102-13.17 1.141.601z"/></svg>