<svg xmlns="http://www.w3.org/2000/svg" viewBox="0 0 64 64"><path fill="#d3976e" d="M36.447 62h-8.894l1.917-20.78h5.06z"/><path fill="#699635" d="M62 48.718c-19.07 0-30-31.754-30-31.754S21.066 48.718 2 48.718c0 0 9.251 6.45 18.738-1.655 0 0-2.383 5.625-5.607 12.07 0 0 7.322.86 12.318-11.181.97 3.458 2.414 7.419 4.551 11.194 2.137-3.775 3.581-7.736 4.551-11.194 4.996 12.04 12.318 11.181 12.318 11.181a237.251 237.251 0 0 1-5.607-12.07C52.749 55.168 62 48.718 62 48.718"/><path fill="#75a843" d="M52 33.402c-12.711 0-20-21.17-20-21.17s-7.29 21.17-20 21.17c0 0 6.168 4.301 12.493-1.102 0 0-1.59 3.749-3.739 8.05 0 0 4.881.574 8.213-7.453.645 2.304 1.609 4.945 3.03 7.462 1.424-2.518 2.389-5.158 3.03-7.462 3.331 8.03 8.213 7.453 8.213 7.453a158.894 158.894 0 0 1-3.739-8.05c6.325 5.403 12.493 1.102 12.493 1.102"/><path fill="#83bf4f" d="M45.33 23.24c-8.475 0-13.334-14.11-13.334-14.11s-4.859 14.11-13.334 14.11c0 0 4.113 2.866 8.329-.735 0 0-1.06 2.5-2.493 5.366 0 0 3.255.383 5.475-4.969.431 1.536 1.074 3.296 2.023 4.975.949-1.68 1.592-3.439 2.02-4.976 2.221 5.352 5.476 4.969 5.476 4.969a104.884 104.884 0 0 1-2.493-5.366c4.216 3.602 8.329.736 8.329.736"/><path fill="#ffce31" d="M32 2l1.965 3.981 4.395.639-3.18 3.098.749 4.372L32 12.03l-3.93 2.06.752-4.372-3.179-3.098 4.397-.639z"/><circle fill="#ed4c5c" cx="32" cy="21.358" r="3.283"/><circle fill="#f2b200" cx="32" cy="40.57" r="3.283"/><circle fill="#9450e0" cx="38.696" cy="30.881" r="3.283"/><circle fill="#6aced8" cx="25.888" cy="30.881" r="3.283"/><circle fill="#83bf4f" cx="20.2" cy="47.05" r="3.283"/><circle fill="#ff717f" cx="41.18" cy="47.21" r="3.282"/></svg>