<svg xmlns="http://www.w3.org/2000/svg" viewBox="0 0 64 64"><path fill="#f7b600" d="M2 61l8.552-2.99L4.085 55z"/><path fill="#ffdd7d" d="M26.943 36.398L14.785 24.18l-1.959 5.641z"/><path fill="#f7b600" d="M12.826 29.821L10.64 36.12l26.809 12.485 1.213-.425-11.719-11.782z"/><path fill="#ffdd7d" d="M8.455 42.41l20.03 9.33 8.967-3.135L10.643 36.12z"/><path fill="#f7b600" d="M6.27 48.703l13.248 6.172 8.964-3.135-20.03-9.33z"/><path fill="#ffdd7d" d="M6.27 48.703l-2.185 6.293 6.467 3.01 8.966-3.135z"/><path fill="#493816" d="M31.889 31.2c6.746 6.638 10.229 13.974 7.779 16.386-2.451 2.41-9.91-1.016-16.656-7.654-6.746-6.637-10.227-13.974-7.776-16.385 2.45-2.412 9.907 1.014 16.653 7.653"/><path fill="#42ade2" d="M23.496 14.48c-1.631-2.264.139-3.275 2.309-2.87-2.063-2.538-.791-4.297 2.461-3.607 1.016.216-.398 1.933-1.309 1.869 2.734 2.048 1.234 4.21-1.661 3.701 2.56 3.515-1.839 2.649-3.762 2.796C21.031 19 24.036 22 23.034 22c-2.239 0-5.804-8.301.462-7.52"/><path fill="#ff8736" d="M44.545 19.334c-1.479.666-5.707-5.944-.525-6-2.975-2.705-2.592-4.01 1.4-4.089-4.574-4.584 2.654-6.244 3.416-3.789.227.735-2.213-.648-3.01.67-.918 1.521 5.629 5.361-1.127 5.134 2.484 2.529 2.635 3.709-1.328 4.134.518.716 2.111 3.518 1.172 3.941"/><path fill="#ed4c5c" d="M46.23 34.936l1.52-1.291s1.436 2.074 2.445 2.861c.775-3.56.568-5.724 4.719-3.254-2.346-6.197 1.52-3.856 5.174-2.177-.211-1.572.033-1.406 1.615-1.851 1.404 5.268-2.369 3.743-5.447 2.01 1.762 4.753-.082 4.535-3.932 2.91-.066 2.02-.725 4.299-1.934 4.494-1.375.223-4.16-3.704-4.16-3.704"/><path fill="#c28fef" d="M35.01 20.05c-1.846 2.403-4.66 3.745-6.793 5.847-2.219 2.188-3.545 8.208-3.545 8.208s.793-6.278 2.914-8.694c1.92-2.185 4.666-3.777 6.152-6.319 2.658-4.546.285-10.63-3.107-14.1.713-.635 1.658-1.438 2.23-1.989 3.192 4.095 6.03 12 2.149 17.05"/><path fill="#ff8736" d="M38.09 25.18c-2.645 1.901-4.463 4.66-6.305 7.289-1.627 2.321-6.709 5.169-6.709 5.169s4.83-3.256 6.264-5.699c1.766-3.01 3.572-6.106 6.375-8.28 5.604-4.347 13.682-3.859 20.02-1.572l-1.107 2.812s-13.198-3.556-18.538.281"/><g fill="#42ade2"><path d="M49.25 24.718c-1.682 2.229-2.547 4.921-3.836 7.37-1.199 2.283-2.783 4.49-5.129 5.701-2.553 1.32-8.328.869-8.328.869s5.744-.068 8.106-1.658c2.41-1.625 3.674-4.373 4.617-7.02 1.766-4.955 3.98-10.373 9.193-12.578l1.049 2.836s-2.869.764-5.672 4.482M3.22 14.266l2.829-2.828 2.829 2.828-2.828 2.828z"/></g><path fill="#ff8736" d="M7.17 23.2L10 20.37l2.828 2.829-2.828 2.828z"/><path fill="#ed4c5c" d="M14.39 9.83l2.829-2.828 2.828 2.828-2.828 2.829z"/><path fill="#c28fef" d="M45.181 43.658l2.829-2.828 2.828 2.828-2.828 2.828z"/><path fill="#ed4c5c" d="M38.878 53.361l2.828-2.828 2.829 2.828-2.829 2.829z"/><path fill="#ff8736" d="M51.281 55.6l2.829-2.83 2.828 2.83-2.828 2.828z"/><g fill="#42ade2"><path d="M54.113 42.708l2.829-2.828 2.828 2.828-2.828 2.829zM49.39 12.83L52.22 10l2.828 2.829-2.829 2.828z"/></g><path fill="#ed4c5c" d="M19.049 29.832l2.828-2.828 2.828 2.828-2.828 2.829z"/></svg>