<svg xmlns="http://www.w3.org/2000/svg" viewBox="0 0 64 64"><path fill="#3e4347" d="M62 27.932l-5.836-5.835-6.465 6.465a.735.735 0 0 1-1.04 0L35.437 15.34a.736.736 0 0 1 0-1.04l6.466-6.465L36.068 2 1.998 36.07l5.833 5.835 6.264-6.263a.737.737 0 0 1 1.041 0l13.222 13.222a.739.739 0 0 1 0 1.041l-6.262 6.263 5.834 5.835L62 27.933m-7.729-.078a.668.668 0 0 1 0-.946l1.971-1.972a.672.672 0 0 1 .948 0l1.971 1.972c.26.26.26.684 0 .946l-1.971 1.971a.67.67 0 0 1-.948 0l-1.971-1.971m-20.19-20.19a.672.672 0 0 1 0-.947l1.972-1.97a.666.666 0 0 1 .945 0l1.972 1.97a.669.669 0 0 1 0 .947l-1.972 1.972a.67.67 0 0 1-.945 0l-1.972-1.972M9.636 36.052a.67.67 0 0 1 0 .947L7.665 38.97a.67.67 0 0 1-.947 0l-1.971-1.971a.67.67 0 0 1 0-.947l1.971-1.971a.669.669 0 0 1 .947 0l1.971 1.971m31.918 8.459a.668.668 0 0 1 0 .946l-1.971 1.972a.67.67 0 0 1-.946 0l-1.973-1.972a.671.671 0 0 1 0-.946l1.973-1.971a.668.668 0 0 1 .946 0l1.971 1.971m5.874-5.875a.668.668 0 0 1 0 .946l-1.971 1.972a.67.67 0 0 1-.946 0l-1.971-1.972a.668.668 0 0 1 0-.946l1.971-1.971a.668.668 0 0 1 .946 0l1.971 1.971m-19.221-25.1a.671.671 0 0 1 0-.946l1.972-1.972a.668.668 0 0 1 .945 0l1.97 1.972a.668.668 0 0 1 0 .946l-1.97 1.971a.666.666 0 0 1-.945 0l-1.972-1.971m20.19 20.19a.667.667 0 0 1 0-.947l1.972-1.971a.67.67 0 0 1 .946 0l1.971 1.971a.669.669 0 0 1 0 .947l-1.972 1.971a.668.668 0 0 1-.946 0l-1.971-1.971m-26.04-14.333a.669.669 0 0 1 0-.947l1.97-1.97a.669.669 0 0 1 .947 0l1.97 1.97a.669.669 0 0 1 0 .947l-1.97 1.97a.669.669 0 0 1-.947 0l-1.97-1.97m-5.875 5.874a.668.668 0 0 1 0-.946l1.97-1.971a.671.671 0 0 1 .949 0l1.97 1.971c.26.261.26.684 0 .946l-1.97 1.971a.671.671 0 0 1-.949 0l-1.97-1.971m1.779 7.251a.738.738 0 0 1 0-1.042l13.22-13.221a.736.736 0 0 1 1.042 0l13.222 13.221a.738.738 0 0 1 0 1.042l-13.222 13.22a.736.736 0 0 1-1.042 0l-13.22-13.22m-7.636-1.396a.671.671 0 0 1 0-.946l1.972-1.971a.67.67 0 0 1 .947 0l1.971 1.971a.668.668 0 0 1 0 .946l-1.971 1.971a.669.669 0 0 1-.947 0l-1.972-1.971m20.19 20.19a.665.665 0 0 1 0-.944l1.972-1.972a.667.667 0 0 1 .944 0l1.972 1.972a.667.667 0 0 1 0 .944l-1.972 1.972a.665.665 0 0 1-.944 0l-1.972-1.972m-5.874 5.875a.668.668 0 0 1 0-.946l1.97-1.972a.67.67 0 0 1 .947 0l1.972 1.972c.26.262.26.685 0 .946l-1.972 1.971a.669.669 0 0 1-.947 0l-1.97-1.971"/></svg>