<svg xmlns="http://www.w3.org/2000/svg" viewBox="0 0 64 64"><path fill="#6adbc6" d="M29.2 19.287C25.816 8.826 16.028 9.499 16.028 9.499S6.243 8.826 2.86 19.287C-.524 29.753 7.207 39.511 7.207 39.511c.056.632 4.154 1.143 9.201 1.143 5.05 0 9.143-.511 9.198-1.143h.016c-.001 0 6.962-9.758 3.578-20.224"/><g fill="#ed4c5c"><path d="M15.577 2h.967v7.49h-.967z"/><ellipse cx="16.06" cy="6.607" rx="1.485" ry="1.457"/></g><g fill="#6adbc6"><path d="M14.576 8.06h2.971v1.632h-2.971zM14.653 40.599h2.87v3.589h-2.87z"/></g><path fill="#ffc7ce" d="M15.604 10.324h.967v33.863h-.967z"/><path fill="#fff" d="M16.318 39.711c-2.229 0-4.323-.11-5.903-.31-.783-.098-1.4-.215-1.837-.343-.278-.084-.925-.276-.925-.768 0-.49.647-.687.925-.765.437-.13 1.054-.244 1.837-.347 1.58-.195 3.673-.306 5.903-.306 2.227 0 4.324.11 5.903.306.783.103 1.4.217 1.836.347.278.078.926.274.926.765s-.647.684-.926.768c-.436.128-1.053.245-1.836.343-1.578.2-3.676.31-5.903.31m-7.657-1.42c.311.108.946.263 2.215.407 1.502.165 3.434.256 5.442.256s3.94-.091 5.44-.256c1.271-.145 1.906-.299 2.218-.407-.312-.105-.946-.262-2.218-.406-1.5-.164-3.432-.258-5.44-.258s-3.94.094-5.442.258c-1.27.144-1.904.301-2.215.406"/><g fill="#ed4c5c"><path d="M26.634 49.53c-8.804 1.084-11.03-5.347-11.03-5.347h.967s2.24 5.654 10.414 4.438l-.352.909"/><path d="M29 43.12l.545.23-5.1 12.109-.545-.23z"/></g><path fill="#e6eff4" d="M24.424 55.45s7.03 6.03 18.806 3.926c11.778-2.101 16.516 2.62 16.516 2.62L62 48.149s-4.352-5.04-20.11-1.58c-9.635 2.113-12.337-3.214-12.337-3.214l-5.134 12.09"/><g fill="#f46767"><path d="M36.18 53.36c.451.825-.115 2.01-1.268 2.639-1.153.63-2.453.471-2.906-.357-.452-.826.115-2.01 1.268-2.639 1.152-.63 2.452-.474 2.906.357"/><ellipse transform="rotate(-28.694 49.844 49.175)" cx="49.848" cy="49.17" rx="3.455" ry="2.506"/></g><g fill="#83bf4f"><ellipse transform="rotate(-28.682 39.515 50.503)" cx="39.514" cy="50.5" rx="1.816" ry="1.295"/><ellipse transform="rotate(-28.67 44.52 55.54)" cx="44.513" cy="55.54" rx="2.48" ry="1.847"/><ellipse transform="rotate(-28.682 54.971 54.518)" cx="54.975" cy="54.52" rx="1.905" ry="1.771"/></g></svg>