<svg xmlns="http://www.w3.org/2000/svg" viewBox="0 0 64 64"><path fill="#c94747" d="M32.1 2h-.016S19.447 2 17.373 6.904c-.817 1.93-.117 7.615.126 9.384 1.702-3.2 7.454-5.554 14.29-5.554 7.208 0 13.213 2.619 14.53 6.086h.271V7.099C46.59 4.723 40.311 2 32.1 2"/><path fill="#ff5760" d="M34.12 2.055s17.883-.923 17.883 16.664c0 17.586-31.23 43.19-31.23 43.19L15.876 50.77c0 .001 54.16-44.41 18.239-48.711"/><path fill="#ff717f" d="M29.755 2.107S12 1.228 12 18.815s31.23 43.19 31.23 43.19l4.897-11.139S-6.153 6.406 29.76 2.112"/></svg>