<svg xmlns="http://www.w3.org/2000/svg" viewBox="0 0 64 64"><path fill="#ffc200" d="M33.943 31.767a1.942 1.942 0 1 1-3.886 0h-.869c0 1.554 1.258 2.813 2.813 2.813s2.813-1.259 2.813-2.813h-.871"/><g fill="#e68a00"><path d="M33 37.28h-2v-3.959c0-1.552 2-1.552 2 0v3.959"/><ellipse cx="32" cy="48.5" rx="13.5" ry="13.5"/></g><ellipse fill="#ffc200" cx="32" cy="48.5" rx="12.5" ry="12.5"/><g fill="#e68a00"><path d="M30.26 46.24l-1.744-2.391-7.789 1.129 5.642 1.826zM33.74 46.24l1.744-2.391L32 36.809v5.914zM34.818 49.54l2.821.91 5.631-5.472-5.635 1.826zM32 51.578v2.962l6.969 3.65-3.487-4.79zM29.18 49.54l-2.815.91-1.335 7.74 3.49-4.79z"/></g><g fill="#ffe394"><path d="M32 42.727v-5.914l-3.484 7.04 1.744 2.391zM37.635 46.804l5.635-1.826-7.786-1.129-1.744 2.391zM34.818 49.54l.664 3.86 3.487 4.79-1.33-7.74zM28.52 53.4l-3.49 4.79L32 54.54v-2.962zM26.369 46.804l-5.642-1.826 5.638 5.472 2.815-.91z"/></g><g fill="#f3f7fa"><path d="M22 28.24l2.27 3.744H27V2h-5zM37 2v29.984h2.732L42 28.24V2z"/></g><g fill="#42ade2"><path d="M17 19.992l5 8.248V2h-5zM27 2h10v29.984H27zM42 2v26.24l4.995-8.248H47V2z"/></g><path fill="#d3976e" d="M23 30.06h18v1H23z"/><path fill="#89664c" d="M23 31.06h18v1H23z"/></svg>