<svg xmlns="http://www.w3.org/2000/svg" viewBox="0 0 64 64"><path fill="#ed4c5c" d="M29.5 4.813l-.31-.75v-.938L29.5 2h-4.31l.313.75v.938l-.313 1.125.313.75V6.5l-.313 1.125.313.75v.938l-.313 1.125.313.75v.942l-.313 1.12.313.75v.938l-.313 1.122.313.753v.937l-.313 1.125.313.75v.938l-.313 1.125.313.749v.938L25.19 24.5l.313.75v.94l-.313 1.123.313.747V29l-.313 1.13.313.745v.938l-.313 1.125.313.75v.937l-.313 1.125.313.75v.938l-.313 1.125.313.747v.94l-.313 1.13.313.75v.93l-.313 1.13.313.748v.937L25.19 47l.313.75v.938l-.313 1.125.313.75v.937l-.313 1.124.313.746v.94l-.313 1.13.313.75v.93l-.313 1.13.313.749v.938l-.313 1.123.313.94h3.687l.31-.94-.31-.75v-.93l.31-1.13-.31-.75v-.94l.31-1.12-.31-.752v-.938l.31-1.126-.31-.748v-.938l.31-1.125-.31-.753v-.93L29.5 47l-.31-.75v-.94l.31-1.12-.31-.75v-.94l.31-1.12-.31-.755v-.937l.31-1.125-.31-.75v-.938l.31-1.125-.31-.75v-.94l.31-1.122-.31-.748v-.94l.31-1.12-.31-.755v-.937l.31-1.125-.31-.75v-.938l.31-1.125-.31-.75v-.937l.31-1.125-.31-.75V20l.31-1.125-.31-.745v-.942l.31-1.128-.31-.747v-.938l.31-1.125-.31-.75v-.937l.31-1.125-.31-.75V8.75l.31-1.125-.31-.75v-.937z"/><path fill="#181f27" d="M44.609 28.21c.303-2.38 1.366-6.452 5.056-9.287 4.651-3.574 9.318-3.237 9.736-7.48 0 0 6.427 7.678-.936 13.335-5.313 4.082-8.743 1.463-10.776 3.271-.918-.136-1.946-.107-3.08.161"/><path fill="#4e697c" d="M52.37 23.714c-1.348.181-3.133.613-4.488 1.475 1.099-1.347 2.81-2.423 4.072-3.074 2.584-1.453 5.656-2.496 7.125-5.313-1.591 2.665-4.669 3.715-7.333 4.933-1.324.681-3.01 1.616-4.229 2.854.875-2.062 2.473-3.824 4.409-4.931 1.655-.945 3.352-1.847 4.938-2.903 1.28-.853 2.383-1.873 2.716-3.428-.403 1.523-1.513 2.479-2.82 3.277-1.702 1.039-3.53 1.845-5.268 2.819-2.882 1.543-5.076 4.521-5.482 7.803a3.817 3.817 0 0 0-.08.691c0 .009-.004.019-.006.028h.004c0 .01-.004.02-.004.029h.002l-.002.025.45-.025.42.027-.002-.002c.32-2.63 3.911-3.496 6.02-3.922 2.536-.538 5.02-1.787 6.561-3.94-1.692 2.143-4.366 3.224-7.01 3.577"/><path fill="#d4daf4" d="M40.32 39.26s4.07 5.993 9.571 5.993c5.502 0 5.456.205 6.405 4.852.95 4.646 3.579 8.07 3.579 8.07l2.124-4.482s-2.343-1.204-2.613-6.984c-.271-5.782-2.325-4.929-4.974-5.993-2.653-1.063-4.74-5.328-4.74-5.328s3.859-10.05-7.04-11.767c-10.901-1.713-11.864 7.626-22.06-1.798-10.2-9.423-15.889-5.097-15.889-5.097l1.76 1.278s-1.53 8.498-3.487 9.97c-2.347 1.763.146 3.933 2.039 4.01.161.007 1.934-2.611 2.377-2.435 1.187.47-.372 2.461-.063 2.609.837.399 1.557-1.013 1.557-2.272 0 0 2.817-1.681 3.86-4.93 0 0-1.082 7.788 3.617 11.814 0 0-.696 2.218-1.798 2.747-7.782 3.735-7.143 3.813-7.143 9.739 0 5.925-1.557 8.151-1.557 8.151s.841.797 4.075.797c0 0 1.31-4.254.977-9.219-.333-4.966 4.437-5.074 6.779-5.074 3.751 0 5.716-2.863 5.716-2.863s4.814 4.614 16.931-1.789"/><g fill="#7e93a4"><path d="M40.32 39.26s4.07 5.993 9.571 5.993c1.894 0 3.129.025 3.976.245.069.425.118.917.145 1.49.214 4.626 2.091 5.588 2.091 5.588l-1.699 3.589s-2.103-2.741-2.86-6.457c-.762-3.718-.725-3.884-5.127-3.884-3.729 0-6.638-4.511-7.436-5.888.435-.207.881-.435 1.339-.676M12.69 44.9c1.52-.954 3.646-.989 4.982-.989 3.751 0 5.716-2.863 5.716-2.863s.469.448 1.481.871c-.615.998-2.04 2.835-4.228 2.835-1.875 0-5.691.086-5.424 4.056.265 3.973-.782 7.374-.782 7.374-2.586 0-3.261-.635-3.261-.635s1.248-1.78 1.248-6.521c0-2.024-.098-3.209.268-4.128"/></g><g fill="#3e4347"><path d="M8.559 21.952c0-.414-.509-.751-1.131-.751s-1.124.337-1.124.751c0 .413.501.75 1.124.75s1.131-.337 1.131-.75M3.091 30.02c.22.353.593.531.837.392.242-.137.258-.535.04-.89-.218-.354-.589-.531-.833-.392-.244.137-.261.537-.044.89"/></g><g fill="#181f27"><path d="M14.895 54.16a18.463 18.463 0 0 1-.459 2.02c-2.586 0-3.261-.635-3.261-.635s.369-.523.704-1.758c1.381.443 2.425.438 3.02.373M54.865 51.03c.581 1.231 1.238 1.574 1.238 1.574l-1.699 3.583s-.808-1.053-1.605-2.742c1.051-.65 1.717-1.716 2.066-2.415M10.491 55.677c-.276 1.555-.574 2.527-.574 2.527-3.234 0-4.075-.797-4.075-.797s.459-.653.875-2.199c1.73.557 3.036.553 3.774.469M60.45 51.727c.728 1.544 1.548 1.966 1.548 1.966l-2.123 4.481s-1.012-1.318-2.01-3.43c1.31-.81 2.145-2.147 2.582-3.02"/></g><g fill="#6c3c78"><path d="M12.229 26.21l.851-.28-1.95-5.377-.846.281z"/><path d="M10.694 21.884l.894.068.602-7.345-.896-.068z"/><path d="M6.997 29.686l.83.324 3.852-9.05-.83-.325z"/><path d="M11.514 21.358l.092-.855-5.812-.575-.093.855z"/></g><ellipse fill="#a35cff" cx="11.03" cy="21.311" rx="1.381" ry="1.323"/><path fill="#181f27" d="M5.583 17.383c-1.441.081-2.307 2.501-.615 3.342s5.499-1.181 5.826-1.943c.326-.762-1.958.732-4.354-.778l-.857-.621"/><path fill="#a35cff" d="M14.627 36.06h35.975v-2.89H13.649z"/><path fill="#6c3c78" d="M13.878 33.835l12.08-4.324-1.055-2.708-12.08 4.327z"/><path fill="#a35cff" d="M26.294 48.18c.15.501.606 1.199 1.968 1.635.791.255 1.822.394 2.895.394 2.078 0 4.516-.509 5.133-1.93.257-.604.077-1.282-.544-2.02-.362-.437-.9-.923-1.601-1.45a24.45 24.45 0 0 0-1.961-1.317v-3.303h-1.749v3.309c-.445.274-1.175.743-1.898 1.293-.685.519-1.22 1-1.589 1.439-.61.715-.824 1.349-.654 1.948m1.698-.416c.035-.115.271-.659 1.8-1.793a24.341 24.341 0 0 1 1.525-1.028c.374.232.943.591 1.512 1 1.456 1.053 1.757 1.595 1.818 1.743-.103.13-.39.343-1.014.527-.684.209-1.563.322-2.475.322-.892 0-1.725-.107-2.346-.308-.511-.165-.76-.358-.82-.466"/><path fill="#6c3c78" d="M37.23 22.702v13.07c0 3.133-2.649 5.676-5.921 5.676-3.278 0-5.929-2.543-5.929-5.676V24.353c4.615 1.842 7.606-.191 11.85-1.65"/><path fill="#a35cff" d="M28.94 35.771V25.084c1.653.007 3.162-.445 4.739-1.038v11.725c0 1.25-1.063 2.269-2.366 2.269-1.313-.001-2.373-1.019-2.373-2.269"/><path fill="#181f27" d="M7.46 15.735c.063-1.694 1.529-4.04 8.01-4.296 6.298-.249.322 1.996-.286 3.111 0 0 4.12-.822 8.238 1.639 2.472 1.476-1.85 1.172-1.876 2.736 0 0 3.71.765 4.159 3.047.198 1-1.396-.363-1.886.955 0 0 5.835 1.106 2.753 5.277-2.508 3.395-4.997 2.488-5.567 2.208-.57-.278.724-2.84.561-3.677-.163-.835-.571-1.114-1.346.36-.229.436-1.611-1.772-.591-5.203 0 0-1.147.887-2.172-1.324 0 0-1.958-.132-2.217-2.432 0 0-1.177-.015-2.6-1.348.001.002-5.211-.286-5.183-1.053"/></svg>