<svg xmlns="http://www.w3.org/2000/svg" viewBox="0 0 64 64" xmlns:xlink="http://www.w3.org/1999/xlink"><defs><path id="a" d="M8 26h48v2H8z" fill="#d0d0d0"/></defs><path fill="#d0d0d0" d="M32 2C18.193 2 7 13.193 7 27s11.193 25 25 25 25-11.193 25-25S45.807 2 32 2m0 47c-12.15 0-22-9.85-22-22S19.85 5 32 5s22 9.85 22 22-9.85 22-22 22"/><use xlink:href="#a"/><path fill="#d0d0d0" d="M31 3h2v48h-2z"/><use transform="rotate(45.001 32 27)" xlink:href="#a"/><use transform="rotate(134.999 32 27)" xlink:href="#a"/><circle fill="#3e4347" cx="31.979" cy="27.02" r="8.218"/><circle fill="#94989b" cx="31.979" cy="27.02" r="5.506"/><path fill="#ed4c5c" d="M34.896 2.779h-2.118C32.778 2.352 32.43 2 32 2s-.778.352-.778.779h-2.118a2.65 2.65 0 0 0-2.648 2.645v5.791a2.647 2.647 0 0 0 2.648 2.643h5.793a2.648 2.648 0 0 0 2.648-2.643V5.424a2.652 2.652 0 0 0-2.649-2.645m1.091 5.539h-7.975V5.424c0-.6.489-1.088 1.091-1.088h5.793a1.09 1.09 0 0 1 1.091 1.088v2.894"/><path fill="#3e4347" d="M26.455 9.875h11.09v1.557h-11.09z"/><path fill="#ed4c5c" d="M34.896 50.92h-2.118a.777.777 0 0 0-1.556 0h-2.118a2.648 2.648 0 0 0-2.648 2.645v5.789A2.65 2.65 0 0 0 29.104 62h5.793a2.651 2.651 0 0 0 2.648-2.646v-5.789a2.65 2.65 0 0 0-2.649-2.645m1.091 5.541h-7.975v-2.896c0-.6.489-1.088 1.091-1.088h5.793a1.09 1.09 0 0 1 1.091 1.088v2.896"/><path fill="#3e4347" d="M26.455 58.02h11.09v1.555h-11.09z"/><path fill="#f2b200" d="M10.441 26.85H8.323a.78.78 0 0 0-1.556 0H4.648A2.65 2.65 0 0 0 2 29.496v5.791a2.648 2.648 0 0 0 2.648 2.643h5.793a2.65 2.65 0 0 0 2.648-2.643v-5.791a2.65 2.65 0 0 0-2.648-2.646m1.091 5.541H3.558v-2.895a1.09 1.09 0 0 1 1.091-1.088h5.793a1.09 1.09 0 0 1 1.091 1.088v2.895"/><path fill="#3e4347" d="M2 33.947h11.09v1.555H2z"/><path fill="#42ade2" d="M59.35 26.85h-2.118a.78.78 0 0 0-1.556 0h-2.118a2.65 2.65 0 0 0-2.648 2.646v5.791a2.648 2.648 0 0 0 2.648 2.643h5.793a2.648 2.648 0 0 0 2.648-2.643v-5.791a2.65 2.65 0 0 0-2.649-2.646m1.09 5.541h-7.975v-2.895a1.09 1.09 0 0 1 1.091-1.088h5.793a1.09 1.09 0 0 1 1.091 1.088v2.895"/><path fill="#3e4347" d="M50.91 33.947H62v1.555H50.91z"/><path fill="#42ade2" d="M17.864 9.83h-2.119a.777.777 0 0 0-1.556 0H12.07a2.649 2.649 0 0 0-2.648 2.645v5.791a2.648 2.648 0 0 0 2.649 2.643h5.792a2.648 2.648 0 0 0 2.648-2.643v-5.791a2.649 2.649 0 0 0-2.647-2.645m1.09 5.539h-7.975v-2.895c0-.6.49-1.088 1.092-1.088h5.792a1.09 1.09 0 0 1 1.091 1.088v2.895"/><path fill="#3e4347" d="M9.422 16.926h11.09v1.557H9.422z"/><path fill="#f2b200" d="M51.929 43.869l-2.117.002a.775.775 0 0 0-.778-.777.776.776 0 0 0-.779.777l-2.117-.002a2.648 2.648 0 0 0-2.648 2.646v5.789a2.65 2.65 0 0 0 2.648 2.645h5.792a2.65 2.65 0 0 0 2.649-2.645v-5.789c0-1.46-1.19-2.646-2.65-2.646m1.092 5.541h-7.977v-2.895c0-.602.49-1.09 1.092-1.09h5.792c.603 0 1.092.488 1.092 1.09l.001 2.895"/><path fill="#3e4347" d="M43.488 50.967h11.09v1.555h-11.09z"/><path fill="#83bf4f" d="M17.604 44.13h-2.118a.779.779 0 1 0-1.556 0h-2.117a2.649 2.649 0 0 0-2.649 2.645v5.791a2.648 2.648 0 0 0 2.649 2.643h5.792a2.648 2.648 0 0 0 2.648-2.643v-5.791a2.65 2.65 0 0 0-2.649-2.645m1.09 5.541l-7.974-.002v-2.895c0-.6.49-1.088 1.092-1.088h5.792a1.09 1.09 0 0 1 1.091 1.088v2.897z"/><path fill="#3e4347" d="M9.163 51.23h11.09v1.557H9.163z"/><path fill="#83bf4f" d="M52.19 9.57h-2.118a.777.777 0 1 0-1.556 0h-2.118a2.65 2.65 0 0 0-2.649 2.646v5.789a2.65 2.65 0 0 0 2.65 2.645h5.792a2.65 2.65 0 0 0 2.649-2.645v-5.791a2.65 2.65 0 0 0-2.65-2.644m1.092 5.539l-7.976.002v-2.895c0-.602.489-1.09 1.091-1.09h5.793c.602 0 1.092.488 1.092 1.09v2.893"/><path fill="#3e4347" d="M43.746 16.666h11.09v1.557h-11.09z"/><g fill="#ed4c5c"><circle cx="31.979" cy="27.02" r="2.753"/><path d="M32.98 26.35l-1.087.618-.895-.509L10.65 64h2.594L32.02 29.22 50.797 64h2.593z"/></g></svg>