<svg xmlns="http://www.w3.org/2000/svg" viewBox="0 0 64 64"><ellipse fill="#fff" cx="26.649" cy="31.976" rx="21.603" ry="26.412"/><ellipse fill="#ed4c5c" cx="28.994" cy="31.977" rx="2.709" ry="3.912"/><path fill="#428bc1" d="M41.43 36.795c.12-.487.229-.981.313-1.485.036-.214.055-.435.084-.65.044-.326.095-.649.123-.981a20.304 20.304 0 0 0 0-3.4c-.028-.339-.081-.667-.126-.999-.027-.211-.045-.425-.08-.633a20.261 20.261 0 0 0-.32-1.52c-.003-.01-.004-.021-.008-.03-1.768-7.02-7.238-12.157-13.707-12.157-7.893 0-14.314 7.643-14.314 17.04 0 9.393 6.421 17.04 14.314 17.04 6.467 0 11.938-5.133 13.707-12.152.005-.023.007-.046.014-.067m-12.842 4.983c-4.421 0-8.02-4.397-8.02-9.801 0-5.405 3.596-9.804 8.02-9.804.955 0 1.868.216 2.719.593 2.914 1.621 4.942 5.136 4.942 9.211 0 4.08-2.035 7.599-4.958 9.215a6.678 6.678 0 0 1-2.703.586"/><path fill="#3e4347" d="M51.623 31.976c0-.508-.012-1.014-.032-1.516-.654-15.84-11.52-28.484-24.78-28.484C13.129 1.976 2 15.434 2 31.976s11.129 30 24.811 30c13.261 0 24.13-12.645 24.78-28.485.02-.502.032-1.01.032-1.515m-24 22.722c-10.249 0-18.587-10.193-18.587-22.723 0-12.531 8.338-22.725 18.587-22.725 4.124 0 7.937 1.652 11.02 4.442 4.488 4.256 7.381 10.865 7.381 18.282 0 7.415-2.893 14.02-7.381 18.28-3.086 2.792-6.899 4.444-11.02 4.444"/><path fill="#fff" d="M33.1 29.29h18.13v5.25H33.11z"/><path fill="#f2b200" d="M45.511 35.976L62 44.583l-2.261-11.719H43.13z"/><g fill="#c94747"><path d="M51.576 39.14l-2.106-1.1-3.07-5.561h2.11zM57.908 42.45l-2.111-1.11-3.069-8.861h2.11z"/></g><path fill="#f2b200" d="M45.511 27.851L62 19.243l-2.261 11.719H43.13z"/><g fill="#c94747"><path d="M51.576 24.685l-2.106 1.101-3.07 5.561h2.11zM57.908 21.38l-2.111 1.101-3.069 8.866h2.11z"/></g><path fill="#754e27" d="M60.17 30.579c-2.313.002-27.1 0-30.338.002-.187-.002-.373 0-.559-.002-.917.002-.918 2.668 0 2.664 2.313.004 27.1.002 30.338.004.186-.004.372 0 .559-.004.916.004.916-2.66 0-2.664"/><path fill="#b28769" d="M59.55 31.19H29.893c-.879 0-.88 1.438 0 1.437l29.12.001.536-.001c.88.001.88-1.435 0-1.437"/></svg>