<svg xmlns="http://www.w3.org/2000/svg" viewBox="0 0 64 64"><path fill="#ed4c5c" d="M56.16 37.966H7.84l-5.837 26.03h60z"/><path fill="#f2f2f2" d="M10.174 64h13.42l1.746-26.03H13.671z"/><path fill="#c94747" d="M2 37.966c0 2.303 2.613 4.17 5.836 4.17 3.223 0 5.834-1.867 5.834-4.17H2z"/><path fill="#d0d0d0" d="M13.671 37.966c0 2.303 2.614 4.17 5.837 4.17 3.222 0 5.832-1.867 5.832-4.17H13.671"/><path fill="#f2f2f2" d="M53.826 64H40.41l-1.75-26.03h11.67z"/><path fill="#c94747" d="M62 37.966c0 2.303-2.613 4.17-5.836 4.17s-5.834-1.867-5.834-4.17H62z"/><path fill="#d0d0d0" d="M50.33 37.966c0 2.303-2.613 4.17-5.836 4.17s-5.834-1.867-5.834-4.17h11.67"/><path fill="#ed4c5c" d="M32 12C30.768 22.445 17.81 37.966 2 37.966h60c-15.809 0-28.768-15.521-30-25.966"/><g fill="#fff"><path d="M13.671 37.966h11.648S32 30.1 32 12c0 0-6.681 25.966-18.329 25.966M32 12c0 18.1 6.682 25.966 6.682 25.966H50.33C38.682 37.966 32 12 32 12z"/></g><path fill="#c94747" d="M32 37.966h-6.66c0 2.303 3.438 4.17 6.66 4.17 3.223 0 6.66-1.867 6.66-4.17H32z"/><path fill="#3e4347" d="M31.988 42.09L21.35 64h21.301z"/><g fill="#c94747"><path d="M21.371 64s-2.448 0-4.12-4.938c0 0 4.127-.548 14.727-16.929C31.979 42.136 26.742 64 21.371 64M42.629 64s2.448 0 4.121-4.938c0 0-4.128-.548-14.729-16.929 0 .003 5.237 21.867 10.608 21.867"/></g><path fill="#94989b" d="M31.22 4.948h1.594v9.714H31.22z"/><path fill="#d0d0d0" d="M31.619 4.948h.797v9.714h-.797z"/><ellipse fill="#ed4c5c" cx="32" cy="5.365" rx="1.536" ry="1.365"/><path fill="#c94747" d="M32 5.863c-.678 0-1.25-.389-1.455-.933a1.26 1.26 0 0 0-.08.435c0 .754.687 1.365 1.535 1.365.848 0 1.536-.611 1.536-1.365 0-.149-.03-.296-.081-.435-.203.545-.776.933-1.455.933"/><ellipse fill="#ffc7ce" cx="32.407" cy="4.931" rx=".407" ry=".363"/><path fill="#ed4c5c" d="M32.814 7.081v4.077c2.887-3.125 5.77 1.088 8.65-2.037-2.88 1.767-5.763-3.806-8.65-2.04"/></svg>