<svg xmlns="http://www.w3.org/2000/svg" viewBox="0 0 64 64"><path fill="#686b6d" d="M16.13 31.19l-10.903-.7V17.02z"/><g fill="#333"><path d="M4.897 11.691l5.978 9.773 5.452-.596-6.437-10.1zM3.203 22.303l2.653-.293-3.371-5.726zM15.319 9.774l6.958 10.446 6.521-.715-7.553-10.821zM27.736 7.489l8.234 11.233 7.929-.868-9.01-11.68zM59.26 16.18l-.525-4.402-7.172-8.674-8.777 1.616 9.928 12.172z"/></g><g fill="#fff"><path d="M21.245 8.684l7.553 10.821 7.172-.783-8.234-11.233zM9.89 10.772l6.437 10.1 5.95-.648-6.958-10.446zM42.786 4.72l-7.9 1.454 9.01 11.68 8.815-.962zM2 12.225l.485 4.059 3.371 5.726 5.02-.546-5.978-9.773zM58.31 8.189L57.57 2l-6.01 1.104 7.172 8.674z"/></g><path fill="#ebf2f2" d="M58.735 11.778l2.845 4.144-1.64-13.736L57.57 2z"/><path fill="#686b6d" d="M59.26 16.18l-.525-4.402 2.845 4.144z"/><path fill="#333" d="M2.958 22.75v8.979l56.697 3.651V22.75z"/><g fill="#fff"><path d="M22.774 33.01l6.567.42 7.101-10.68H29.23zM11.288 32.27l5.492.351 5.889-9.871h-5.984zM36.569 33.895l7.991.515 8.72-11.66h-8.86zM6.154 22.75l-3.196 6.189v2.79l3.277.211 4.965-9.19zM59.655 26.734l-6.215 8.248 6.215.398z"/></g><path fill="#ebf2f2" d="M59.655 26.734L62 22.75v12.24l-2.345.39z"/><path fill="#686b6d" d="M59.655 22.75v3.984L62 22.75z"/><path fill="#333" d="M2.958 31.729v17.96L59.655 62V35.38z"/><g fill="#fff"><path d="M59.655 36.86L2.958 32.728l.003-1.185L59.655 35.2zM59.655 53.13L2.958 43.703v-.998l56.697 8.943zM59.655 45.733l-56.697-7.02v-.998l56.697 6.544z"/><path d="M13.778 44.957l-.984-.159V39.39l.984.12z"/></g><path fill="#181919" d="M13.353 32.432l-10.904-.703V18.265z"/><g fill="#fff"><path d="M4.582 22.22c0 .562-.385 1.018-.856 1.022-.467.003-.843-.442-.843-.995 0-.555.375-1.01.843-1.022.471-.012.856.433.856.995M4.582 29.913c0 .562-.385.993-.856.966-.467-.025-.843-.495-.843-1.048 0-.554.375-.986.843-.968.471.019.856.489.856 1.05M10.154 30.18c0 .588-.421 1.04-.937 1.012-.512-.029-.923-.521-.923-1.101s.411-1.031.923-1.01c.516.02.937.513.937 1.1"/></g><path fill="#686b6d" d="M62 60.52L59.655 62V36.86L62 36.47z"/><g fill="#ebf2f2"><path d="M62 34.99l-2.345.39v1.48L62 36.47zM62 43.688l-2.345.612v1.433L62 45.13zM62 50.667l-2.345 1.022v1.441L62 52.1z"/></g></svg>