<svg xmlns="http://www.w3.org/2000/svg" viewBox="0 0 64 64"><g fill="#870014"><path d="M39.5 31.9h3.75V62H39.5zM28.25 62H24.5V41.469l3.75-.955zM9.5 51.04h3.75v10.961H9.5zM54.5 31.9h3.75V62H54.5z"/></g><path fill="#ed4c5c" d="M37.868 31.872c-.394.133-.787.276-1.181.418a73.969 73.969 0 0 0-3.058 1.133 91.644 91.644 0 0 0-14.646 7.464c-.289.184-.569.377-.861.564a105.94 105.94 0 0 0-2.903 1.932C10.51 46.672 6.139 50.307 2 54.115v7.828c13.479-12.938 32.33-27.439 60-28.49v-5.765c-8.913.293-16.883 1.79-24.13 4.184"/><g fill="#94989b"><path d="M36.688 32.29c-1.021.364-2.044.725-3.058 1.133 1-.398 2.024-.775 3.058-1.133M18.12 41.45c.292-.188.572-.381.861-.564-.03.02-.066.035-.097.059-.262.161-.501.339-.764.505"/></g><path fill="#ffdd67" d="M15.803 27.373l3.02-1.575 1.174 2.352-3.02 1.576z"/><path fill="#384044" d="M14.06 29.807l2.347-1.224c.242.485 1.117.524 1.952.09.831-.436 1.313-1.18 1.072-1.664l2.346-1.224 3.504 7.861-7.04 3.666-4.184-7.505"/><path fill="#ffbc00" d="M8.423 21.905c.515 1.032 1.697 3.046 1.697 3.046l10.282-5.33s-.781-2.25-1.297-3.281c-2.25-4.501-12.933 1.066-10.682 5.565"/><path fill="#ffdd67" d="M11.604 19.86c4.277-2.228 4.95-4.104 6.764-.5 0 0 1.036-1.738 1.972.137.359.715.364 1.452-.581 2.023 1.073 2.146.933 3.294-2.198 5.554-2.509 1.811-5.665 1.466-6.953-1.109-2.519-5.03-1.393-4.858.996-6.105"/><g fill="#594640"><path d="M12.644 26.1c.422.839 1.872.971 3.226.266 1.354-.706 2.1-1.981 1.68-2.821 0 0-1.266.753-2.415 1.352-1.148.596-2.491 1.203-2.491 1.203M15.438 21.515a.925.925 0 0 0 1.256.395.967.967 0 0 0 .43-1.273.923.923 0 0 0-1.259-.389c-.462.241-.658.808-.427 1.267M10.576 24.05a.921.921 0 0 0 1.259.39c.463-.24.658-.812.429-1.27a.921.921 0 0 0-1.259-.389.958.958 0 0 0-.429 1.269"/></g><path fill="#384044" d="M7.642 25.451l7.344 4.179c1.154.657.355 2.228-.803 1.57L6.84 27.021l.802-1.57"/><path fill="#ffdd67" d="M7.642 25.451c-1.394-.794-1.651-.484-1.87-.051-.225.434-.323.828 1.068 1.621l.802-1.57"/><path d="M31.385 32.815l-.413-1.122 8.06-3.067.416 1.125zM16.979 43.29c.502.994.113 2.217-.859 2.729a1.968 1.968 0 0 1-2.674-.883c-.504-.994-.114-2.217.862-2.725a1.961 1.961 0 0 1 2.671.879M30.873 35.99a2.053 2.053 0 0 1-.861 2.732 1.967 1.967 0 0 1-2.672-.887 2.041 2.041 0 0 1 .863-2.725 1.967 1.967 0 0 1 2.67.88M25.1 27.451s-1.375.717-.675 3.17l.701 2.452 2.208-1.152-2.234-4.47"/><path fill="#83bf4f" d="M26.917 25.17l-2.374 1.237 2.046 4.086c.393.788.093 1.752-.683 2.152l-8.771 4.579a1.55 1.55 0 0 1-2.105-.693l-2.049-4.086-3.465 1.811a1.294 1.294 0 0 0-.545 1.721l.417 9.619a1.24 1.24 0 0 0 1.687.557l20.891-10.907a1.296 1.296 0 0 0 .544-1.726l-3.905-7.794a1.248 1.248 0 0 0-1.688-.556"/><path d="M36.36 30.24c-.209-.649-.896-1-1.536-.79a1.245 1.245 0 0 0-.777 1.562c.212.655.898 1.01 1.537.797a1.25 1.25 0 0 0 .776-1.569"/><path fill="#384044" d="M22.09 17.922l-.993 8.524c-.158 1.339 1.56 1.601 1.715.258l.991-8.521-1.713-.261"/><g fill="#ffdd67"><path d="M22.09 17.922c.187-1.616.583-1.647 1.055-1.576.476.069.851.22.658 1.837l-1.713-.261M47.08 16.376l3.36-.564.417 2.61-3.357.562z"/></g><path fill="#89664c" d="M44.698 18.16l2.6-.438c.087.535.908.847 1.834.69.923-.155 1.606-.717 1.519-1.254l2.599-.435.998 8.573-7.797 1.309-1.753-8.445"/><path fill="#ffbc00" d="M41.679 8.879c.186 1.143.71 3.429.71 3.429l11.384-1.891s-.073-2.383-.258-3.528c-.807-4.985-12.639-2.994-11.836 1.99"/><path fill="#ffdd67" d="M45.32 7.916c4.739-.796 5.938-2.374 6.593 1.623 0 0 1.504-1.337 1.838.74.128.793-.086 1.496-1.154 1.75.381 2.376-.097 3.425-3.751 4.607-2.929.946-5.832-.362-6.291-3.214-.902-5.578.117-5.06 2.765-5.506"/><g fill="#594640"><path d="M44.45 14.187c.15.928 1.492 1.506 2.991 1.254 1.498-.252 2.589-1.236 2.439-2.168 0 0-1.431.325-2.701.539-1.271.213-2.729.375-2.729.375M48.48 10.683a.933.933 0 0 0 1.083.764.95.95 0 0 0 .785-1.077.932.932 0 0 0-1.084-.762.945.945 0 0 0-.784 1.075M43.09 11.588a.932.932 0 0 0 1.083.763.946.946 0 0 0 .784-1.076.932.932 0 0 0-1.082-.764.947.947 0 0 0-.785 1.077"/></g><path fill="#89664c" d="M39.879 12.01l5.753 6.259c.904.984-.323 2.233-1.23 1.246l-5.752-6.259 1.229-1.246"/><path fill="#ffdd67" d="M39.879 12.01c-1.09-1.186-1.427-.975-1.767-.629-.343.344-.554.688.538 1.875l1.229-1.246"/><path d="M43.46 31.902c.183 1.104-.552 2.148-1.632 2.336-1.082.182-2.105-.569-2.281-1.672-.186-1.104.551-2.15 1.631-2.329a1.988 1.988 0 0 1 2.282 1.665M58.873 29.26c.184 1.104-.553 2.146-1.633 2.335-1.08.179-2.104-.567-2.281-1.674-.184-1.102.552-2.147 1.633-2.326a1.981 1.981 0 0 1 2.281 1.665M55.957 19.306s-1.523.254-1.586 2.809l-.064 2.555 2.446-.412-.796-4.952"/><path fill="#c28fef" d="M58.33 17.729l-2.631.442.734 4.526c.14.875-.435 1.696-1.293 1.84l-9.72 1.643c-.851.145-1.657-.447-1.799-1.316l-.734-4.528-3.841.652a1.276 1.276 0 0 0-1.033 1.469l.416 8.81a1.26 1.26 0 0 0 1.442 1.055l20.269-3.427c.686-.114 1.145-.779 1.032-1.476l-1.402-8.638a1.256 1.256 0 0 0-1.44-1.052"/><path fill="#89664c" d="M55.886 9.324l-3.482 7.812c-.548 1.227 1.01 2.01 1.559.776l3.479-7.809-1.556-.779"/><path fill="#ffdd67" d="M55.886 9.324c.66-1.48 1.048-1.393 1.477-1.176.431.214.741.473.078 1.955l-1.555-.779"/></svg>