<svg xmlns="http://www.w3.org/2000/svg" viewBox="0 0 64 64"><path fill="#6adbc6" d="M49.44 4.709A30.194 30.194 0 0 1 48.992 0h-3.938c.075.513.113 1.034.113 1.564 0 6.544-5.895 11.848-13.169 11.848-7.269 0-13.165-5.304-13.165-11.848 0-.53.037-1.052.112-1.564h-3.938a30.315 30.315 0 0 1-.448 4.709c-1.684 9.699-4.117 17.578-10.661 19.494 0 0 2.823 4.54 2.823 12.324C6.724 49.965 3.901 64 3.901 64h56.2S56.57 49.97 56.57 36.116c0-7.374 3.531-11.913 3.531-11.913-6.543-1.915-8.981-9.795-10.663-19.494"/><path fill="#428bc1" d="M31.997 13.413c7.274 0 13.169-5.304 13.169-11.848 0-.53-.038-1.052-.113-1.564-3.627 1.646-6.973 3.704-13.06 3.704-6.161 0-9.425-2.02-13.05-3.704a10.794 10.794 0 0 0-.112 1.564c0 6.543 5.895 11.848 13.164 11.848"/><path fill="#ffce31" d="M5.378 54.788C4.542 60.779 3.899 64 3.899 64h8.314l42.944-43.1c-2.152-2.561-3.55-6.275-4.596-10.637L5.381 54.792"/></svg>