<svg xmlns="http://www.w3.org/2000/svg" viewBox="0 0 64 64"><g fill="#c5d4d8"><path d="M40.682 47.774a236.103 236.103 0 0 0-6.438 12.95c4.4 1.505 8.756 2.598 13.02 3.276a87.135 87.135 0 0 1 2.392-11.357 84.576 84.576 0 0 1 3.737-10.529 249.517 249.517 0 0 1-6.133-5.64 184.674 184.674 0 0 0-6.583 11.3M62.744 15.94a148.899 148.899 0 0 0-8.152 9.913 158.706 158.706 0 0 0-7.136 10.319 255.251 255.251 0 0 0 6.073 5.641 83.448 83.448 0 0 1 4.858-9.444 83.415 83.415 0 0 1 5.612-8.234c-.411-2.797-.843-5.549-1.255-8.195"/></g><g fill="#eae7e4"><path d="M0 18.24c16.202 33.567 34.24 42.484 34.24 42.484a235.036 235.036 0 0 1 6.438-12.95 185.525 185.525 0 0 1 6.583-11.301c-8.434-7.998-17.82-17.755-27.455-27.27-3.808 1.754-7.616 3.512-11.44 5.258-2.78 1.27-5.568 2.533-8.37 3.783M40.01 0c-2.796 1.242-5.58 2.499-8.355 3.762a2621.993 2621.993 0 0 0-11.432 5.246c9.551 9.474 18.878 19.17 27.23 27.16 2.279-3.589 4.65-7.02 7.136-10.319a148.899 148.899 0 0 1 8.152-9.913L40.006-.005"/></g><g fill="#333"><path d="M40.594 47.937c.059-.107.116-.217.175-.325-10.995-9.453-21.286-21.939-32.2-33.17l-.296.136c10.937 11.283 21.243 23.858 32.32 33.36"/><path d="M49.708 52.48c-.031.109-.064.221-.094.331-2.958-1.368-5.967-3-9.02-4.873.059-.107.116-.217.175-.325 3.03 1.862 6.01 3.496 8.94 4.867M54.693 25.717c-.068.09-.135.182-.204.271-6.531-7.05-14.691-14.357-22.952-22.12l.296-.136c8.235 7.718 16.367 14.956 22.86 21.986M58.31 32.503l.158-.267a247.426 247.426 0 0 0-3.773-6.52c-.068.09-.135.182-.204.271a277.623 277.623 0 0 1 3.819 6.516M53.53 41.813l-.132.3c-10.21-9.03-22.309-21.822-34.773-34.08l.426-.186C31.4 20.049 43.43 32.763 53.53 41.814"/></g><path d="M47.15 22.963a270.884 270.884 0 0 1 4.07-4.359c-7.088-4.371-15.674-10.1-25.607-15.995l1.224 3.353c6.94 6.078 14.384 11.57 20.313 17M38.679 31.807c1.342-1.471-14.13-17.944-24.07-23.836l1.589 2.891c6.942 6.077 15.852 15.929 22.477 20.945"/><path fill="#55646d" d="M51.814 17.988a263.956 263.956 0 0 0-4.66 4.975c-1.636-1.854-3.307-7.295-3.307-7.295l5.471-4.635s1.125 5.182 2.496 6.955"/><path fill="#333" d="M43.848 15.668l5.471-4.635L31.633.158s-4.01 1.631-6.02 2.451c5.798 4.819 18.231 13.06 18.231 13.06"/><path fill="#55646d" d="M29.341 43.05c1.516-1.91 5.369-5.621 5.369-5.621-2.452-2.195-6.365-8.06-6.365-8.06l-8.258 7.89c0-.001 5.235 4.859 9.254 5.796"/><path fill="#333" d="M28.345 29.363l-8.258 7.89S7.633 22.963 3.431 12.893l6.03-3.289L28.35 29.363"/><path fill="#55646d" d="M43.12 27.468c-1.489 1.696-4.444 4.339-4.444 4.339s-4.712-3.621-6.957-5.818c1.774-1.592 7.347-6.158 7.347-6.158s2.172 5.69 4.054 7.637"/><path fill="#333" d="M31.722 25.988c1.774-1.592 7.347-6.158 7.347-6.158L20.614 4.67l-6 3.305s11.408 12.04 17.11 18.02"/></svg>