<svg xmlns="http://www.w3.org/2000/svg" viewBox="0 0 64 64"><path fill="#333" d="M64 53.839c0 2.564-1.727 4.642-3.856 4.642H3.856C1.727 58.48 0 56.403 0 53.839V13.548c0-2.564 1.727-4.642 3.856-4.642h56.287c2.13 0 3.856 2.077 3.856 4.642v40.291z"/><path fill="#b2b2b2" d="M3.938 54.953h17.02c-1.767-13.817-1.767-28.702 0-42.52H3.938a68.794 68.794 0 0 0 0 42.52"/><path fill="#d0d0d0" d="M2.862 51.3h17.67a172.306 172.306 0 0 1 0-35.22H2.862a68.797 68.797 0 0 0 0 35.22"/><path fill="#fff" d="M1.983 47.566h18.203a173.186 173.186 0 0 1 0-27.745H1.983a68.805 68.805 0 0 0 0 27.745"/><path fill="#4187b7" d="M19.556 17.05H3.496a70.832 70.832 0 0 1 1.284-4.615h15.34a142.881 142.881 0 0 0-.561 4.615"/><path fill="#fbbf67" d="M19.746 54.953c-.367-2.846-4.04-5.199-8.321-5.198-4.272-.001-7.205 2.353-6.278 5.198h14.599"/><path fill="#b2b2b2" d="M23.491 54.953h17.02c1.361-13.817 1.361-28.702 0-42.52h-17.02c-1.361 13.818-1.361 28.703 0 42.52"/><path fill="#d0d0d0" d="M23.16 51.3h17.67a223.37 223.37 0 0 0 0-35.22H23.16a223.61 223.61 0 0 0 0 35.22"/><path fill="#fff" d="M22.898 47.563h18.203c.571-9.15.571-18.591 0-27.741H22.898c-.57 9.151-.57 18.591 0 27.741"/><path fill="#4187b7" d="M40.03 17.05H23.97c.106-1.549.226-3.088.362-4.615h15.34c.136 1.526.256 3.066.361 4.615"/><path fill="#fbbf67" d="M39.3 54.953c.279-2.846-3.02-5.199-7.301-5.198-4.274-.001-7.579 2.353-7.3 5.198H39.3"/><path fill="#b2b2b2" d="M43.05 54.953h17.02a68.809 68.809 0 0 0 0-42.52H43.05c1.767 13.818 1.767 28.703 0 42.52"/><path fill="#d0d0d0" d="M43.47 51.3h17.67a68.797 68.797 0 0 0 0-35.22H43.47a172.306 172.306 0 0 1 0 35.22"/><path fill="#fff" d="M43.814 47.563h18.203a68.803 68.803 0 0 0-.001-27.741H43.814c.742 9.151.742 18.591 0 27.741"/><path fill="#4187b7" d="M60.51 17.05H44.45a149.108 149.108 0 0 0-.561-4.615h15.34a70.657 70.657 0 0 1 1.284 4.615"/><path fill="#fbbf67" d="M58.854 54.953c.926-2.846-2.01-5.199-6.279-5.198-4.276-.001-7.953 2.353-8.32 5.198h14.599"/><path fill="#3390ff" d="M49.51 40.752a.497.497 0 0 1-.494-.574c.027-.186.681-4.257 4.24-7.256a8.735 8.735 0 0 0-1.282-.102c-1.737 0-2.797.604-3.148 1.794a.5.5 0 0 1-.479.358h-1.443a.5.5 0 0 1-.5-.5v-5.726a.5.5 0 0 1 .5-.5h1.443a.5.5 0 0 1 .498.451c.888-.407 2.463-.988 4.211-.988.767 0 1.497.114 2.171.339 1.269.423 1.834.82 2.173 1.058.075.053.169.119.2.131l.526-.348a.502.502 0 0 1 .276-.083h2.501a.5.5 0 0 1 .339.868c-.042.039-4.155 3.916-4.155 10.579a.5.5 0 0 1-.5.5h-7.08z"/><path fill="#161616" d="M53.06 28.21a6.32 6.32 0 0 1 2.01.313c1.927.643 2.119 1.208 2.491 1.208.175 0 .39-.125.843-.425h2.501s-4.316 3.965-4.316 10.947h-7.08s.704-4.666 4.917-7.598c0 0-1.145-.333-2.453-.333-1.455 0-3.113.413-3.628 2.152h-1.443v-5.726h1.443v.766c-.001-.001 2.183-1.304 4.708-1.304m7.847 1.096h.005m-7.852-2.096c-1.576 0-3.02.449-3.986.847a.998.998 0 0 0-.723-.309h-1.443a1 1 0 0 0-1 1v5.726a1 1 0 0 0 1 1h1.443a1 1 0 0 0 .959-.717c.104-.354.425-1.436 2.669-1.436l.115.001c-2.965 3.01-3.541 6.604-3.568 6.781a1.003 1.003 0 0 0 .989 1.15h7.08a1 1 0 0 0 1-1c0-6.24 3.68-9.91 3.975-10.193a.998.998 0 0 0-.653-1.754h-2.506a1 1 0 0 0-.553.167c-.049.033-.152.101-.251.163-.355-.247-.984-.651-2.214-1.062a7.377 7.377 0 0 0-2.329-.364z"/><path fill="#fff" d="M27.605 40.752a.497.497 0 0 1-.495-.574c.028-.186.681-4.257 4.241-7.256a8.76 8.76 0 0 0-1.283-.102c-1.737 0-2.796.604-3.148 1.794a.5.5 0 0 1-.479.358h-1.443a.5.5 0 0 1-.5-.5v-5.726a.5.5 0 0 1 .5-.5h1.443a.5.5 0 0 1 .498.451c.888-.407 2.463-.988 4.211-.988.767 0 1.497.114 2.171.339 1.269.423 1.834.82 2.173 1.058.075.053.169.119.2.131l.526-.348a.502.502 0 0 1 .276-.083h2.501a.5.5 0 0 1 .339.868c-.042.039-4.155 3.916-4.155 10.579a.5.5 0 0 1-.5.5h-7.08z"/><path fill="#161616" d="M31.15 28.21c.659 0 1.341.089 2.01.313 1.927.643 2.119 1.208 2.491 1.208.175 0 .39-.125.843-.425h2.501s-4.316 3.965-4.316 10.947h-7.08s.704-4.666 4.917-7.598c0 0-1.144-.333-2.453-.333-1.455 0-3.113.413-3.628 2.152h-1.443v-5.726h1.443v.766c-.001-.001 2.184-1.304 4.708-1.304m7.848 1.096h.005m-7.853-2.096c-1.576 0-3.02.449-3.985.847a1 1 0 0 0-.723-.309h-1.443a1 1 0 0 0-1 1v5.726a1 1 0 0 0 1 1h1.443a1 1 0 0 0 .959-.717c.105-.354.425-1.436 2.669-1.436l.115.001c-2.964 3.01-3.541 6.604-3.567 6.781a1.003 1.003 0 0 0 .989 1.15h7.08a1 1 0 0 0 1-1c0-6.24 3.68-9.91 3.975-10.193a.998.998 0 0 0-.653-1.754h-2.506a1 1 0 0 0-.553.167c-.049.033-.152.101-.251.163-.355-.247-.984-.651-2.214-1.062a7.39 7.39 0 0 0-2.331-.364z"/><path fill="#ed4c5c" d="M5.699 40.752a.497.497 0 0 1-.495-.574c.028-.186.681-4.257 4.241-7.256a8.76 8.76 0 0 0-1.283-.102c-1.737 0-2.796.604-3.148 1.794a.5.5 0 0 1-.479.358H3.092a.5.5 0 0 1-.5-.5v-5.726a.5.5 0 0 1 .5-.5h1.443a.5.5 0 0 1 .498.451c.888-.407 2.463-.988 4.211-.988.767 0 1.497.114 2.171.339 1.269.423 1.834.82 2.172 1.058.075.053.169.119.201.131l.526-.348a.502.502 0 0 1 .276-.083h2.501c.206 0 .391.126.465.318a.503.503 0 0 1-.126.55c-.042.039-4.155 3.916-4.155 10.579a.5.5 0 0 1-.5.5h-7.08z"/><path fill="#161616" d="M9.244 28.21c.659 0 1.341.089 2.01.313 1.927.643 2.119 1.208 2.491 1.208.175 0 .39-.125.843-.425h2.501s-4.316 3.965-4.316 10.947h-7.08s.704-4.666 4.917-7.598c0 0-1.144-.333-2.453-.333-1.455 0-3.113.413-3.628 2.152H3.086v-5.726h1.443v.766c0-.001 2.185-1.304 4.709-1.304m7.848 1.096h.005M9.238 27.21c-1.576 0-3.02.449-3.985.847a1 1 0 0 0-.723-.309H3.086a1 1 0 0 0-1 1v5.726a1 1 0 0 0 1 1h1.443a1 1 0 0 0 .959-.717c.105-.354.425-1.436 2.669-1.436l.115.001c-2.964 3.01-3.541 6.604-3.567 6.781a1.003 1.003 0 0 0 .989 1.15h7.08a1 1 0 0 0 1-1c0-6.24 3.68-9.91 3.975-10.193a.998.998 0 0 0-.654-1.754h-2.506a.995.995 0 0 0-.552.167c-.049.033-.152.101-.251.163-.355-.247-.984-.651-2.214-1.062a7.383 7.383 0 0 0-2.33-.364z"/></svg>