<svg xmlns="http://www.w3.org/2000/svg" viewBox="0 0 64 64"><g fill="#f2b200"><path d="M14.08 45.563l1.827-1.786-10.11-9.879-1.828 1.784zM18.949 40.803l1.827-1.783-10.11-9.88-1.83 1.782zM13.707 26.16l10.112 9.89 1.826-1.79-10.11-9.879zM32.728 58.43L18.871 44.889l-3.649 3.571L29.08 62zM37.595 53.672L23.74 40.13l-3.65 3.567L33.947 57.24zM42.464 48.918L28.608 35.38l-3.651 3.559L38.814 52.48z"/></g><g fill="#ffce31"><path d="M18.871 44.889L10.11 36.32l-3.658 3.567 8.77 8.573zM15.01 31.598l-3.653 3.562 8.733 8.537 3.65-3.567zM19.838 26.803l-3.648 3.57 8.767 8.566 3.651-3.559zM7.771 34.04l-3.65 3.567L2 35.533l3.65-3.568zM12.642 29.28l-3.654 3.57-2.121-2.075 3.653-3.565zM17.511 24.527l-3.654 3.563-2.121-2.07 3.651-3.573z"/><path d="M39.32 47.984l-11.199 10.95c-3.786 3.699-9.943 3.699-13.729 0a9.348 9.348 0 0 1 .001-13.418l11.201-10.949c3.784-3.699 9.942-3.699 13.727 0a9.345 9.345 0 0 1-.001 13.417m-21.776.61a5.06 5.06 0 0 0-.001 7.26c2.046 2 5.38 2 7.427-.002l11.202-10.949a5.054 5.054 0 0 0-.003-7.256c-2.047-2-5.376-2-7.423 0L17.544 48.594"/><path d="M26.317 32.664L8.401 50.174c-1.744 1.705-1.65 3.176-1.65 3.176l2.663 2.602s1.502.09 3.245-1.613l17.916-17.512c10.182-9.953 30.675-3.439 30.675-3.439L29.807 3.02s6.693 19.691-3.49 29.644"/></g><g fill="#f2b200"><path d="M9.165 54.06s1.782.309 3.527-1.396c2.601-2.539 10.42-9.746 18.16-17.309 10.184-9.953 30.335-3.496 30.335-3.496s-16.224-12.784-30.738 1.404L9.17 54.06M3.518 54.951l4.257 4.158c1.715-1.691 1.624-3.145 1.624-3.145l-2.66-2.605c-.001 0-1.491-.086-3.221 1.592"/><path d="M30.15 2.338c-1.913 1.871 3.589 10.279 12.289 18.781 8.698 8.506 17.302 13.883 19.213 12.02 1.915-1.869-4.318-9.566-13.02-18.07C39.934 6.566 32.063.473 30.15 2.34"/></g><path fill="#333" d="M43.02 20.549c7.83 7.65 15.464 12.598 17.05 11.05 1.592-1.555-4.197-8.305-12.03-15.957C40.214 7.989 33.305 2.331 31.718 3.884c-1.593 1.555 3.469 9.02 11.299 16.67"/></svg>