<svg xmlns="http://www.w3.org/2000/svg" viewBox="0 0 64 64"><circle fill="#ed4c5c" cx="52.27" cy="52.44" r="9.564"/><g fill="#e8e8e8"><path d="M45.996 45.191l13.527 13.527-.966.966L45.03 46.157zM53.725 49.055l1.932 1.93-.966.967-1.932-1.931zM56.627 51.952l1.932 1.931-.966.967-1.932-1.931zM50.825 46.156l1.934 1.933-.967.967-1.934-1.934zM49.858 52.92l1.932 1.933-.965.965-1.933-1.934zM52.762 55.814l1.932 1.932-.964.964-1.932-1.932zM55.655 58.715l-.966.967 1.48 1.48a9.313 9.313 0 0 0 1.259-.674l-1.773-1.773M43.548 48.541l1.48 1.48.967-.965-1.773-1.773c-.26.403-.481.826-.674 1.258M46.961 50.023l1.932 1.932-.966.966-1.932-1.932zM48.893 46.16l.966-.965-1.479-1.48a8.981 8.981 0 0 0-1.259.674l1.772 1.771M61 56.33l-1.479-1.48-.967.967 1.772 1.771c.26-.404.482-.826.674-1.258"/></g><path fill="#dbb471" d="M38.4 15.283L2.28 51.403c-.95.949.59 4.03 3.439 6.881 2.85 2.85 5.93 4.389 6.88 3.438l36.12-36.12-10.32-10.321"/><path fill="#e8e8e8" d="M47.858 19.582l14.14-14.14a4.787 4.787 0 0 0-1.242-2.197 4.817 4.817 0 0 0-2.196-1.244l-14.14 14.14a3.648 3.648 0 0 1-5.16 0l8.601 8.6a3.649 3.649 0 0 1-.001-5.161"/><path opacity=".5" fill="#fff" d="M12.978 51.779c-.714.713-1.438 2.285-1.364 3.291.108 1.465 1.342 6.295 1.342 6.295l35.762-35.762-4.781-4.783-30.959 30.959"/><g fill="#3e4347"><path opacity=".15" d="M12.222 51.02c-.713.713-2.286 1.438-3.292 1.363-1.464-.107-6.293-1.342-6.293-1.342l35.761-35.762 4.783 4.781-30.959 30.96"/><path d="M47.858 24.742a3.627 3.627 0 0 1-1.031-2.977 32.97 32.97 0 0 1-2.875-1.717 32.574 32.574 0 0 1-1.717-2.875 3.63 3.63 0 0 1-2.978-1.031s.796 2.365 2.976 5.625c3.26 2.18 5.625 2.975 5.625 2.975M60.28 7.16l1.719-1.719a4.787 4.787 0 0 0-1.242-2.197A4.817 4.817 0 0 0 58.561 2L56.84 3.721a4.792 4.792 0 0 1 2.197 1.244A4.811 4.811 0 0 1 60.28 7.16"/></g><g fill="#b2c1c0"><path d="M49.42 18.02l-4.172-2.709-.829.83c-.344.344-.74.602-1.163.779l4.428 2.875c.061-.07.108-.148.176-.215l1.56-1.56M59.966 7.475l-4.17-2.709-1.756 1.757 4.17 2.709zM56.45 10.99l-4.17-2.709-1.76 1.759 4.172 2.706zM52.933 14.506l-4.171-2.707-1.752 1.756 4.16 2.709z"/></g></svg>