<svg xmlns="http://www.w3.org/2000/svg" viewBox="0 0 64 64"><path fill="#231f20" d="M22.522 16.16v6.91h18.946v-6.91c.001-8.935-18.946-8.935-18.946 0"/><g fill="#b47d56"><path d="M39.841 20.365c-.418-8.132-2.604-3.739-7.846-3.739-5.237 0-7.426-4.393-7.84 3.739 0 0-2.277-1.571-2.277 1.525 0 1.183.436 2.152 1.904 2.254.546 4.192 2.974 5.472 6.598 5.726v.856c0 .519-.35.938-.818 1.074h-4.846l-.004 11.05s2.515 1.408 7.288 1.408c4.767 0 7.284-1.408 7.284-1.408l.002-11.05h-4.854a1.12 1.12 0 0 1-.82-1.074v-.857c3.626-.254 6.06-1.533 6.599-5.726 1.471-.102 1.904-1.071 1.904-2.254-.001-3.096-2.274-1.525-2.274-1.525M49.23 9.403c-1.656-.486-2.326.599-2.652 1.482a.935.935 0 0 0-.744.666l-.197.677a.938.938 0 0 0 .63 1.167l.081.023-2.694 10.928 2.892.65 2.674-10.879c.598-.068.779-.683 1.275-2.381.526-1.809-.989-2.253-1.265-2.333M17.729 13.396a.937.937 0 0 0 .63-1.167l-.197-.677a.935.935 0 0 0-.744-.666c-.325-.884-.994-1.969-2.65-1.482-.275.08-1.791.523-1.264 2.334.494 1.698.678 2.313 1.274 2.381l2.673 10.879 2.892-.65L17.65 13.42l.079-.024"/></g><g fill="#47352d"><path d="M28.2 25.07c0 1.391 1.697 2.557 3.794 2.557 2.095 0 3.794-1.166 3.794-2.557 0 0-2.02.124-3.794.124S28.2 25.07 28.2 25.07"/><ellipse cx="35.654" cy="20.729" rx="1.264" ry="1.28"/><ellipse cx="28.338" cy="20.729" rx="1.265" ry="1.28"/></g><path fill="#935e3e" d="M31.15 23.15c0 .471.375.851.842.851.468 0 .843-.38.843-.851H31.15"/><path fill="#94989b" d="M5.484 15.376v-1.789s8.771-4.491 26.507-4.491c17.739 0 26.516 4.491 26.516 4.491v1.789s-8.776-4.492-26.516-4.492c-17.736 0-26.507 4.492-26.507 4.492"/><path fill="#b47d56" d="M46.868 11.4a.5.5 0 0 0-.344-.615.5.5 0 0 0-.604.367l-.304 1.16.948.247.304-1.159"/><path fill="#935e3e" d="M46.583 11.149c.076.14.13.242.133.395.008.144-.031.281-.067.421-.063.229-.122.456-.183.686-.048.175.223.246.269.07l.188-.703a1.58 1.58 0 0 0 .072-.496c-.008-.188-.083-.352-.171-.514-.084-.158-.326-.016-.241.141"/><path fill="#b47d56" d="M17.13 11.4a.5.5 0 0 1 .345-.615.5.5 0 0 1 .604.367l.304 1.16-.948.247-.305-1.159"/><path fill="#935e3e" d="M17.416 11.149c-.077.14-.13.242-.134.395-.008.144.031.281.067.421.063.229.123.456.184.686.048.175-.224.246-.27.07a182.72 182.72 0 0 1-.188-.703 1.58 1.58 0 0 1-.071-.496c.007-.188.082-.352.17-.514.085-.158.326-.016.242.141"/><path fill="#428bc1" d="M24.712 42.42v1.557-1.557"/><g fill="#3e4347"><path d="M56.888 21.975l-3.718-1.369L58.28 6.4 62 7.768z"/><path d="M52.794 23.561l-5.146-1.896L54.728 2l5.146 1.894zM7.114 21.975l3.719-1.369L5.719 6.4 2 7.768z"/><path d="M11.206 23.561l5.148-1.896L9.274 2 4.128 3.894z"/></g><path fill="#47b892" d="M46.548 24.997l-2.756-1.24-5.627 8.04h-2.932c-.362 1.465-1.672 2.553-3.233 2.553s-2.875-1.088-3.235-2.553h-2.932l-5.627-8.04-2.756 1.24 7.266 10.348-.004 8.632s2.515 1.408 7.288 1.408c4.767 0 7.284-1.408 7.284-1.408l.002-8.635 7.262-10.345"/><g fill="#d3976e"><path d="M20.2 59.29c-1.375 0-2.49 1.209-2.49 2.701v.012h7V59.29h-4.515M43.802 59.29c1.377 0 2.49 1.209 2.49 2.701v.012h-7.01V59.29h4.516"/></g><path fill="#f2b200" d="M24.712 41.898v1.67-1.67"/><path fill="#3e4347" d="M41.651 48.28l-2.391-1.796h.025l-.002-2.921s-2.518 1.51-7.284 1.51c-4.773 0-7.288-1.51-7.288-1.51v2.921h.026l-2.39 1.796c-1.531 1.161-2.143 2.248-2.143 3.532v7.47h4.506v-5.918l3.818-3.01h.025a2.657 2.657 0 0 1 1.751-.668h3.386c.865 0 1.891.78 1.891.78l3.703 2.896v5.918h4.506v-7.47c.002-1.283-.609-2.37-2.139-3.531"/></svg>