<svg xmlns="http://www.w3.org/2000/svg" viewBox="0 0 64 64"><path fill="#42ade2" d="M43.617 2.945c-3.625.818-14.01 2.424-10.469 6.551a31.713 31.713 0 0 1 7.672 20.74c0 13.807-8.77 25.551-21.01 29.93A31.384 31.384 0 0 0 30.4 62c17.455 0 31.604-14.221 31.604-31.764S47.033 2.176 43.617 2.946"/><g fill="#428bc1"><path d="M47.03 3.563c4.04 5.334 5.982 11.371 5.982 18.592 0 13.734-8.674 25.432-20.816 29.863-3.398 3.619-7.623 6.447-12.383 8.148A31.384 31.384 0 0 0 30.403 62c17.455 0 31.604-14.221 31.604-31.764 0-11.601-6.149-21.859-14.977-26.673"/><path d="M53.53 8.857S46.452.406 36.925 6.386c-7.297 4.578-1.537 11.57 2.02 8.752 1.318-1.045-2.717-1.186-2.803-1.898-.168-1.424 2.197-.082 2.693-.688.584-.713-1.705-1.225-1.115-1.896.615-.701 1.977.529 2.416-.121.49-.723-.609-1.588.148-2.156.57-.43 1.547.545 2.732.08 1.514-.59-.076-2.746 2.461-2.57 4.604.32 8.06 2.968 8.06 2.968"/></g><path fill="#42ade2" d="M51.17 6.355S43.178-.823 34.971 5.71c-7.607 6.06-1.719 13.375 2.256 10.117 1.473-1.207-3.039-1.369-3.133-2.195-.189-1.645 2.455-.094 3.01-.793.652-.824-1.906-1.416-1.248-2.191.689-.813 2.209.609 2.703-.141.547-.834-.682-1.834.164-2.492.639-.496 1.729.627 3.055.094 1.693-.682.105-1.93 2.752-2.973 3.115-1.226 6.64 1.219 6.64 1.219"/><path fill="#bbecff" d="M52.29 7.33s-7.91-9.768-18.563-2.857c-8.16 5.293-1.721 13.375 2.254 10.117 1.475-1.209-3.037-1.371-3.133-2.195-.188-1.646 2.457-.094 3.01-.793.652-.824-1.904-1.418-1.246-2.193.688-.811 2.209.611 2.701-.141.549-.832-.682-1.832.166-2.49.637-.498 1.729.627 3.055.094 1.691-.682-.086-3.176 2.75-2.973 5.147.369 9.01 3.431 9.01 3.431"/><path fill="#f15744" d="M45.47 55.682c-14.725 10.893-28.14 4.789-29.621 2.953-2.68-3.311 13.145-2.137 20.436-9.623 9.58-9.832 10.262-12.873 15.15-13.357 4.277-.426 5.066 11.868-5.961 20.03"/><g fill="#ffe1bd"><path d="M35.988 22.04l.506-.551a.986.986 0 0 1 1.018-.283c.727-.688 1.871-1.404 3.215-.158.221.207 1.449 1.348.098 2.824-1.994 2.172-1.994 2.172-3.664.623l-1.125-1.043c-.401-.371-.423-1-.048-1.412"/><path d="M31.496 30.09l4.824-6.834 2.42 1.984-4.808 6.83z"/><path d="M23.73 31.826l8.172-2.238 2.03 2.482-8.588 2.403zM37.543 21.832a.534.534 0 0 0-.037-.75.53.53 0 0 0-.746.064l-.834.963.781.686.836-.963"/></g><path fill="#e6b796" d="M37.39 21.459c.008.168.01.291-.059.438-.061.141-.164.254-.264.369l-.496.568c-.129.145.096.34.223.195l.51-.582c.117-.135.229-.275.299-.439.084-.184.09-.375.082-.57-.006-.192-.301-.17-.295.021"/><g fill="#ffe1bd"><path d="M7.469 28.22l-.373-.648a.988.988 0 0 0-.934-.498c-.559-.83-1.523-1.779-3.104-.855-.262.152-1.707.998-.705 2.736 1.479 2.555 1.479 2.555 3.441 1.406l1.324-.773a1 1 0 0 0 .351-1.368"/><path d="M11.32 37.686l-4.433-8.348-2.795 1.414L8.516 39.1z"/><path d="M17.256 32.469l-7.373 2.957L8.516 39.1l10.291-3.91zM5.996 27.682a.536.536 0 0 1 .197-.725.531.531 0 0 1 .717.227l.605 1.121-.912.496-.607-1.119"/></g><path fill="#e6b796" d="M6.227 27.35c-.043.164-.072.281-.037.439.029.15.104.285.178.418.121.221.242.441.361.662.094.17-.166.313-.26.143-.123-.227-.248-.453-.371-.678a1.702 1.702 0 0 1-.199-.494c-.041-.199-.006-.385.045-.576.044-.184.329-.1.283.086"/><g fill="#ffe1bd"><path d="M27.514 38.3s-.045 2.898-2.541 5.406c-2.5 2.516-6.07 2.248-6.07 2.248s-4.135-12.258-1.65-13.484c1.953-.965 10.02-.738 9.641 0-1.492 2.929.616 5.83.616 5.83M41.967 46.03c1.031-1.037 2.771-.965 3.887.158l.01.01-5.246 5.27-2.031-2.041 3.38-3.397"/><path d="M37.18 51.758c1.031-1.037 2.771-.965 3.889.158l.008.008-5.246 5.271-2.031-2.041 3.38-3.396M32.12 39.36l-3.137.447.02-.02-1.484-1.49s-1.459 2.324-5.03 5.91l3.455 3.473c.648-.652 3.268-2.109 3.268-2.109l2.287-.281 2.654-.324 4.432 4.453 3.375-3.389-5.594-5.621c-.962-.967-2.235-1.326-4.249-1.049"/></g><path fill="#3e4347" d="M32.12 39.36l-3.137.447.02-.02-1.484-1.49s-1.459 2.324-5.03 5.91l3.455 3.473c.648-.652 3.268-2.109 3.268-2.109l2.287-.281c-.001 0-1.349-3.438.618-5.93"/><path fill="#ffe1bd" d="M27.361 45.06l-3.135.447 2.514 5.482 2.656-.324 4.432 4.453 3.375-3.391-5.594-5.619c-.961-.967-2.234-1.325-4.248-1.048"/><path fill="#3e4347" d="M27.361 45.06l.158-6.764s-1.621 2.453-8.611 7.654c0 0 .656 5.305 5.547 5.32.576.002 2.285-.281 2.285-.281s-1.345-3.436.621-5.929"/><path fill="#ffe1bd" d="M23.822 31.26v-1.211H20.4v1.211c0 .67-.533 1.209-1.191 1.209h5.805a1.2 1.2 0 0 1-1.192-1.209"/><path fill="#594640" d="M12.08 15.764v7.354h20.06v-7.354c0-9.51-20.06-9.51-20.06 0"/><path fill="#ffe1bd" d="M11.398 21.855c0-3.293 2.412-1.621 2.412-1.621.439-8.654 2.754-3.979 8.299-3.979 5.551 0 7.865-4.676 8.309 3.979 0 0 2.406-1.672 2.406 1.621 0 1.262-.459 2.293-2.02 2.4-.656 5.096-3.922 6.146-8.699 6.146-4.773 0-8.04-1.051-8.693-6.146-1.555-.107-2.02-1.138-2.02-2.4"/><g fill="#574137"><path d="M18.1 25.24c0 1.48 1.797 2.723 4.02 2.723s4.02-1.242 4.02-2.723c0 0-2.137.131-4.02.131-1.88 0-4.02-.131-4.02-.131M26.04 21.17c0 .75.602 1.363 1.338 1.363.738 0 1.34-.613 1.34-1.363 0-.754-.602-1.359-1.34-1.359-.736 0-1.338.605-1.338 1.359M18.295 21.17c0 .75.598 1.363 1.338 1.363.738 0 1.34-.613 1.34-1.363 0-.754-.602-1.359-1.34-1.359-.74 0-1.338.605-1.338 1.359"/></g><path fill="#e6b796" d="M22.615 22.738c0 .502.398.906.893.906s.892-.404.892-.906h-1.785"/></svg>