<svg xmlns="http://www.w3.org/2000/svg" viewBox="0 0 64 64"><path fill="#ed4c5c" d="M52.42 2.281c-2.742-.378-6.753-.435-11.336.211l-38.59 38.59c-.646 4.581-.589 8.592-.21 11.334l9.301 9.303c2.743.379 6.753.436 11.336-.211l38.59-38.589c.646-4.582.589-8.592.211-11.334L52.42 2.281"/><g fill="#e8e8e8"><path d="M22.917 61.51c8.215-1.157 18.266-4.576 26.14-12.449 7.873-7.875 11.292-17.926 12.449-26.14.244-1.733-3 1.871-3.587 3.515-2.263 6.33-6.06 13.307-12.12 19.369-6.06 6.06-13.04 9.857-19.371 12.12-1.644.587-5.249 3.831-3.514 3.587M41.08 2.493c-8.214 1.159-18.266 4.574-26.14 12.448-7.875 7.876-11.292 17.928-12.449 26.14-.245 1.734 3-1.869 3.587-3.514 2.262-6.329 6.06-13.306 12.12-19.369 6.06-6.06 13.04-9.855 19.371-12.12 1.645-.587 5.248-3.832 3.515-3.588"/></g><path fill="#3e4347" d="M59.09 4.908c-1.648-1.646-3.973-2.622-6.676-2.627-1.48-.204-8.51 1.662-10.07 2.333-7.42 1.909-16.511 5.947-24.15 13.585-7.636 7.638-11.676 16.726-13.584 24.14-.667 1.542-2.539 8.589-2.333 10.07.002 2.703.976 5.02 2.626 6.675l.001.001c1.649 1.648 3.973 2.621 6.674 2.625 1.483.203 8.522-1.662 10.07-2.332 7.421-1.908 16.512-5.947 24.15-13.584 7.641-7.64 11.679-16.73 13.586-24.15.67-1.558 2.536-8.588 2.332-10.07-.004-2.704-.977-5.03-2.625-6.673l-.002-.002"/><path fill="#ed4c5c" d="M54.833 15.725c.198-4.01-2.545-6.75-6.559-6.557-5.646-.497-18.733 1.236-28.3 10.805-9.568 9.569-11.303 22.655-10.805 28.3-.199 4.01 2.545 6.755 6.559 6.558 5.646.498 18.735-1.236 28.3-10.804 9.57-9.57 11.305-22.656 10.805-28.3"/><path fill="#e8e8e8" d="M53.09 17.643c-.052-3.871-2.866-6.679-6.735-6.735-5.488-.82-18.04.069-26.708 8.741-8.675 8.673-9.562 21.22-8.741 26.707.049 3.869 2.867 6.685 6.735 6.735 5.49.821 18.04-.067 26.709-8.741s9.561-21.22 8.74-26.707"/><g fill="#3e4347"><path d="M21.805 50.52c.012-.012.006-.04-.012-.058l-4.152-4.153-.351.316a41.485 41.485 0 0 1-.754-.767l.771-.77 1.361-1.361.578-.578c.536.489 1.084 1 1.616 1.511-.143.195-.312.436-.477.656l-.766-.58c-.092-.067-.168-.097-.268-.033-.099.064-.304.198-.666.561l-.059.059 1.67 1.67c.172-.19.336-.354.491-.526.034-.034.008-.131-.093-.243l-.291-.361c.178-.196.379-.38.558-.54.276.288.594.605.912.924.313.324.631.643.86.872-.16.178-.335.389-.522.576l-.376-.331c-.145-.12-.227-.145-.279-.093-.173.154-.345.311-.514.48l1.563 1.563c.168.168.234.153.497-.109.234-.234.354-.406.409-.514.03-.086.017-.158-.058-.279l-.537-.877c.243-.154.503-.291.731-.412.442.582.893 1.174 1.339 1.771-.298.297-1.113 1.094-1.924 1.906-.27.268-.552.568-.791.809-.248-.248-.508-.519-.745-.758l.279-.331M20.734 43.26a53.98 53.98 0 0 1-.782-.806c.408-.41 1.016-1.018 1.459-1.461.883.531 2.987 1.854 4.434 2.775l.047-.047c-.904-1.465-1.99-3.204-2.758-4.451l1.355-1.354c.247.248.533.545.783.808l-.26.313c-.012.012 0 .035.027.062 1.254 1.254 2.779 2.768 4.11 4.087l.347-.295c.23.23.505.504.737.748l-.701.701-.853.852c-.238-.238-.513-.512-.736-.748l.307-.358c.012-.012 0-.036-.018-.052-.934-.924-1.92-1.898-2.992-2.946l-.047.048a87.166 87.166 0 0 1 2.537 4.334 8.836 8.836 0 0 1-.49.526 87.3 87.3 0 0 1-4.444-2.694l-.053.055 3.075 3.143.438-.367c.229.23.504.504.736.748l-.752.754-.597.596c-.238-.238-.513-.513-.736-.748l.271-.324c.009-.026.006-.041-.013-.059-1.258-1.269-2.844-2.881-4.084-4.131l-.347.291M30.612 41.982c-.897-.197-1.771-.72-2.707-1.656-1.167-1.166-1.709-2.479-1.672-3.4.018-.705.248-1.201.697-1.65.373-.373.854-.57 1.442-.578.874-.024 2.094.611 3.127 1.645.857.857 1.578 1.975 1.742 2.943.149.874-.064 1.582-.637 2.154-.514.513-1.272.689-1.992.542m1.517-2.277c-.207-.605-.776-1.326-1.519-2.067-.716-.716-1.45-1.253-1.997-1.52-.455-.233-.816-.208-1.032.008-.239.239-.271.535-.166.907.157.497.657 1.253 1.495 2.092.901.901 1.557 1.394 2.147 1.563.449.135.742.054.929-.133.182-.181.286-.392.143-.85M32.404 31.516c-.017.018 0 .035.019.053.911.91 1.879 1.867 2.78 2.803.652.675 1.135 1.287 1.289 2.02.164.702.036 1.378-.564 1.979-.328.328-.572.502-.859.647a248.104 248.104 0 0 1-1.866-1.526c.104-.246.238-.521.384-.772l1.105.731c.051.038.1.041.15.045a.625.625 0 0 0 .415-.169.54.54 0 0 0 .118-.595c-.137-.358-.525-.747-.923-1.145-.963-.963-2.039-2.025-3.069-3.045l-.646.592c-.238-.238-.504-.504-.728-.738l1.145-1.145.806-.807c.23.23.504.504.728.74l-.284.337M33.12 30.764c-.24-.238-.514-.514-.752-.751.245-.245.622-.604.891-.874.292-.291.616-.633.855-.872.238.238.513.513.745.757l-.335.389c-.013.012.005.029.031.056l4.117 4.151.418-.364c.248.247.512.513.754.766-.238.239-.593.575-.891.872-.263.264-.586.605-.85.868-.247-.248-.512-.513-.754-.766l.313-.365c.012-.012 0-.035-.018-.054L33.5 30.434l-.38.33M40.19 32.404c-.897-.197-1.771-.721-2.707-1.656-1.167-1.167-1.708-2.479-1.673-3.398.019-.708.248-1.203.697-1.652.374-.373.854-.571 1.443-.577.874-.025 2.094.61 3.127 1.643.857.857 1.576 1.975 1.74 2.942.15.875-.064 1.584-.637 2.156-.512.513-1.27.689-1.99.542m1.518-2.278c-.208-.604-.776-1.325-1.52-2.067-.715-.715-1.45-1.252-1.997-1.518-.455-.233-.815-.208-1.031.007-.24.239-.271.535-.166.907.157.496.656 1.252 1.494 2.092.902.901 1.558 1.393 2.148 1.563.449.135.741.053.929-.133.181-.182.286-.393.143-.851M44.06 28.25c.009-.027.006-.043-.012-.061l-4.158-4.145-.356.321c-.247-.248-.512-.512-.745-.757l1.121-1.121c1.407.519 3.834 1.485 5.511 2.158l.029-.029c-1.021-1.01-2.056-2.044-3.083-3.048l-.439.402c-.237-.238-.521-.521-.744-.757l.759-.759c.204-.204.441-.458.616-.634.238.238.504.503.74.763l-.23.284c-.012.012-.01.026.025.061l4.804 4.862c-.028.206-.246.583-.538.875a68.46 68.46 0 0 1-5.207-1.773l-.041.042c.896.906 1.744 1.754 2.611 2.635l.459-.404c.24.238.507.518.749.771-.245.245-.563.545-.845.826-.187.187-.375.394-.539.558a45.327 45.327 0 0 1-.754-.766l.267-.304M48.33 24.01c.01-.012.005-.042-.013-.06l-4.152-4.152-.351.316a44.852 44.852 0 0 1-.754-.766l.771-.771 1.36-1.36.578-.578c.536.489 1.084 1 1.616 1.511-.144.195-.312.435-.478.655l-.766-.579c-.09-.068-.167-.098-.267-.033s-.304.198-.667.56l-.058.059 1.669 1.67c.174-.19.336-.354.492-.526.034-.036.008-.131-.094-.244l-.291-.362c.178-.196.38-.379.559-.54.276.288.594.605.912.924.313.324.63.643.859.872-.16.179-.334.389-.521.576l-.377-.33c-.145-.121-.227-.146-.278-.093-.173.155-.345.31-.515.479l1.563 1.564c.168.168.235.153.499-.11.232-.233.353-.406.408-.513.031-.086.017-.159-.058-.279l-.538-.876c.244-.154.504-.291.732-.414.442.583.893 1.174 1.338 1.771-.297.298-1.111 1.095-1.923 1.907-.27.268-.552.569-.792.809-.247-.247-.506-.518-.745-.757l.282-.33"/><path fill-rule="evenodd" d="M29.12 27.789l-.152.559a.313.313 0 0 0-.332.066l-.223.223a.308.308 0 0 0-.064.332l-.561.152-1.341.363.977.977.978.977.363-1.34.152-.561a.314.314 0 0 0 .332-.064l.223-.223a.312.312 0 0 0 .065-.333l.56-.152 1.341-.363-.978-.978-.977-.976-.363 1.341"/><path d="M24.363 27.02a1.93 1.93 0 0 0 1.069-.074 2.47 2.47 0 0 0 .924-.588 2.48 2.48 0 0 0 .585-.92c.119-.342.156-.705.075-1.071.293.231.443.651.394 1.104-.044.452-.285.935-.647 1.293-.361.363-.844.604-1.295.648-.454.049-.875-.1-1.105-.392"/><path fill-rule="evenodd" d="M26.854 19.303l-.07-.071c-.056-.055-.072-.061-.117-.046a1.771 1.771 0 0 0-.406.186 5.298 5.298 0 0 0-5.715 1.174 5.297 5.297 0 0 0-1.176 5.714 1.901 1.901 0 0 0-.185.407c-.015.045-.009.061.046.116l.071.072c.134.134.063.099.216.06a.538.538 0 0 1 .156-.018 5.301 5.301 0 1 0 7.222-7.222.57.57 0 0 1 .017-.156c.041-.152.076-.082-.059-.216m-5.865 1.684a4.674 4.674 0 0 1 4.656-1.169c-.486.404-.971.906-1.234 1.22-.422.504-.706.995-.86 1.475-.148.445-.593.89-1.038 1.039-.479.153-.971.438-1.475.86a10.8 10.8 0 0 0-1.22 1.233 4.672 4.672 0 0 1 1.171-4.658m6.61 6.611a4.675 4.675 0 0 1-6.611.002l-.073-.076c.558.326 1.104.352 1.643.107a2.573 2.573 0 0 0 1.293-1.322c.137-.318.193-.663.119-1.057-.131-.689-.471-.861-.679-1.357-.182-.433.171-.785.603-.603.498.208.669.547 1.358.678.393.075.737.019 1.057-.119a2.568 2.568 0 0 0 1.321-1.293c.244-.538.219-1.085-.107-1.643.025.024.053.048.077.073a4.675 4.675 0 0 1-.001 6.61"/></g></svg>