<svg xmlns="http://www.w3.org/2000/svg" viewBox="0 0 64 64"><g fill="#f2b200"><path d="M12.687 31.713c-.54 0-1.062-.12-1.548-.365-1.309-.66-2.868-2.458-2.868-7.284 0-10.09-5.324-15.849-5.379-15.906L2 7.213 6.736 2l.81 1.222c.102.148 2.578 3.738 6.533 2.683l.549 2.579c-3.896 1.041-6.711-1.139-8.07-2.57L5.351 7.243c1.679 2.223 5.286 8.02 5.286 16.821 0 2.62.537 4.394 1.473 4.866.71.357 1.765-.031 2.754-1.013 2.59-2.573 4.493-8.986 4.512-9.05l2.248.827c-.084.291-2.119 7.158-5.19 10.207-1.197 1.188-2.518 1.812-3.747 1.812M51.31 31.712a3.41 3.41 0 0 0 1.549-.365c1.309-.659 2.867-2.458 2.867-7.284 0-10.09 5.324-15.849 5.379-15.905l.892-.947L57.261 2l-.811 1.221c-.102.148-2.578 3.739-6.533 2.682l-.549 2.579c3.896 1.041 6.711-1.138 8.07-2.57l1.207 1.328c-1.678 2.223-5.285 8.02-5.285 16.821 0 2.621-.537 4.395-1.473 4.866-.711.359-1.766-.03-2.754-1.012-2.59-2.572-4.494-8.985-4.514-9.05l-2.248.826c.086.291 2.121 7.158 5.191 10.207 1.197 1.189 2.519 1.813 3.748 1.813M28.95 24.931h6.099v24.478H28.95z"/></g><path fill="#ffce31" d="M30.2 24.931h3.599v24.478H30.2z"/><path fill="#f2b200" d="M11.825 2c1.72 15.382 10.1 27.718 20.18 27.718S50.46 17.382 52.175 2h-40.35"/><path fill="#ffce31" d="M15.716 2C17.105 17.561 23.868 30.04 32 30.04S46.894 17.559 48.283 2H15.716"/><path fill="#f2b200" d="M47.648 54h-31.3s7.01-9.03 15.65-9.03c8.642 0 15.647 9.03 15.647 9.03"/><path fill="#ffce31" d="M43.873 54H20.125S25.441 44.817 32 44.817 43.873 54 43.873 54"/><path fill="#bc845e" d="M11.816 56h40.37v6h-40.37z"/><path fill="#916140" d="M16.351 54h31.3v2h-31.3z"/><path fill="#f2b200" d="M22 57.5h20v3H22z"/><path fill="#ce9c7a" d="M11.816 56h2v6h-2z"/><path fill="#916140" d="M50.18 56h2v6h-2z"/><path fill="#ffce31" d="M23 57.5h18v3H23z"/></svg>