<svg xmlns="http://www.w3.org/2000/svg" viewBox="0 0 64 64" xmlns:xlink="http://www.w3.org/1999/xlink"><g fill="#3b946f"><path d="M35.29 31.874a1.907 1.907 0 0 1 1.616-2.188l9.323-3.061.612 3.8-9.324 3.059a1.955 1.955 0 0 1-2.227-1.61"/><path d="M46.32 30.355a1.9 1.9 0 0 1-1.355-2.343l2.919-9.209 3.766.991-2.915 9.209c-.275 1.025-1.372 1.629-2.415 1.352"/></g><path fill="#eba352" d="M49.727 19.8l-1.881-.315a1.225 1.225 0 0 1-1.017-1.397l.146-.895c.08-.475.427-.838.865-.965.283-1.179.978-2.665 3.227-2.288.369.062 2.426.404 2.031 2.798-.58 3.527-.58 3.527-3.371 3.062"/><path fill="#999" d="M12.66 2.095l-.56 1.593 31.55 10.725.55-1.594z"/><path fill="#3e4347" d="M56.21 16.288c.611.206.935.865.724 1.467l-.174.502a1.176 1.176 0 0 1-1.489.716L41.377 14.25a1.152 1.152 0 0 1-.726-1.468l.176-.502a1.173 1.173 0 0 1 1.488-.716l13.895 4.724"/><path fill="#d0d0d0" d="M10.625 2.627c-1.259 1.221-4.074 4.978-3.563 6.01.511 1.038 8.127 3.089 7.749-2.855-.133-2.112-1-3.299-1.921-3.61-.449-.153-1.321-.459-2.265.452" id="a"/><use xlink:href="#a"/><path fill="#ffdd67" d="M34.627 25.04l-1.998.957 3.491 7.5 5.15-2.457z"/><path fill="#eba352" d="M34.571 24.873c1.566 3.367 3.069 4.735 5.462 3.594l1.232 2.576c-2.829 1.349-5.646-1.669-7.476-5.601l.782-.569"/><path fill="#ffdd67" d="M27.461 14.158l12.916-1.777c2.414 1.78 2.121 3.473 2.647 4.487.235.45 1.55.852 2.246 1.059 1.549.461.089 2.127-.663 2.308.046 1.238.881 1.186-.866 1.835-.963.356-2.61.088-2.61.088 5.272.651 4.715 2.218 2.83 2.571 1.017 2.184-.321 2.822-3.258 4.221-2.394 1.143-5.347-.139-6.913-3.507l-3.47.963-2.859-12.248"/><path fill="#ffbc00" d="M30.29 9.04c-8.299 3.958-6.07 11.611-2.611 16.01 1.838 2.343 3.994 3.363 5.937 3.316l.564-.916-.391-2.01s-1.801.391-3.152-1.256c-.62-.753-.531-2.795.685-3.461.848-.464 2.406-.407 2.767-.333-1.015-2.18-2.5-4.227-1.337-5.575.961-1.108 7.245-1.206 7.625-2.438 1.028-3.296-5.088-5.718-10.09-3.335"/><g fill="#594640"><path d="M32.756 22.641a.934.934 0 0 1 .47-.152 3.761 3.761 0 0 0-.466-.332c-.206-.128-.433-.231-.669-.369a1.837 1.837 0 0 1 1.538.432c.435.392.613.991.547 1.522-.156-.229-.266-.458-.403-.654a3.875 3.875 0 0 0-.278-.345c-.06.033-.12.062-.174.095-.112.071-.217.123-.312.191-.102.062-.189.14-.302.215-.107.077-.207.174-.357.27-.052-.333.122-.678.406-.873M40.13 17.792c.326.698.988 1.072 1.481.837.492-.234.63-.991.306-1.689-.324-.697-.989-1.072-1.481-.837-.492.235-.629.992-.306 1.689M41.13 22.16s2.229 1.305 2.691 1.416c.985.238 1.054-.261.476-.58-.596-.329-3.167-.836-3.167-.836"/></g><path fill="#47b892" d="M42.952 30.661h-8.328c-1.17 0-1.334 1.695-1.208 3.305l.564 9.937 11.222-.005-2.25-13.237"/><g fill="#d3976e"><path d="M44.06 62h7.122c0-1.419-1.135-2.577-2.556-2.643v-.005h-5.512c-.093.963-.146 1.554-.146 1.569 0 .598.488 1.079 1.092 1.079M33.93 59.35l-5.492-.027c-.266.968-.427 1.554-.427 1.569 0 .597.488 1.078 1.092 1.078h7.122c0-1.332-.998-2.433-2.295-2.62"/></g><path fill="#3e4347" d="M33.97 43.719l-5.532 15.634h5.499s2.679-6.256 4.596-10.127c.187-.374.508-.683.953-.683.546 0 .836.459 1 .966 1.924 5.838 2.631 9.844 2.631 9.844h5.512l-3.457-15.634H33.969"/><g fill="#47b892"><path d="M38.476 32.793a1.911 1.911 0 0 1 1.62-2.188l9.321-3.061 1.32 3.662-10.03 3.197a1.957 1.957 0 0 1-2.23-1.61"/><path d="M49.5 31.27a1.9 1.9 0 0 1-1.355-2.343l2.918-9.209 3.768.991-2.916 9.209c-.275 1.026-1.373 1.629-2.415 1.352"/></g><path fill="#ffdd67" d="M52.915 20.719l-1.882-.315c-.67-.113-1.128-.738-1.017-1.398l.146-.894c.079-.475.426-.839.864-.965.281-1.179.976-2.665 3.226-2.288.369.062 2.427.404 2.032 2.797-.578 3.529-.578 3.529-3.369 3.063"/></svg>