<svg xmlns="http://www.w3.org/2000/svg" viewBox="0 0 64 64"><path fill="#333" d="M18.686 13.02c-3.7.543-7.12 1.836-9.987 4.628-1-2.709-2.01-5.419-3.01-8.128 2.867-2.792 6.289-4.084 9.987-4.628 1 2.709 2.01 5.419 3.01 8.128"/><path fill="#fff" d="M30.337 12.886c-3.977-.207-7.953-.413-11.651.129-1-2.709-2.01-5.419-3.01-8.128 3.7-.542 7.676-.336 11.652-.129 1 2.709 2 5.418 3.01 8.128"/><path fill="#333" d="M41.989 12.756c-3.699.543-7.676.337-11.652.13-1-2.709-2.01-5.418-3.01-8.128 3.977.207 7.951.414 11.651-.13 1 2.709 2.01 5.419 3.01 8.128"/><g fill="#fff"><path d="M51.976 8.128c-2.867 2.792-6.288 4.085-9.986 4.627-1-2.709-2.01-5.418-3.01-8.128C42.679 4.085 46.1 2.792 48.967 0c1 2.709 2.01 5.419 3.01 8.128M21.694 21.14c-3.7.543-7.12 1.836-9.988 4.627-1-2.709-2-5.419-3.01-8.128 2.867-2.792 6.287-4.084 9.987-4.628 1 2.71 2 5.42 3.01 8.129"/></g><path fill="#333" d="M33.35 21.01c-3.978-.207-7.954-.414-11.651.13-1-2.709-2.01-5.419-3.01-8.129 3.698-.542 7.675-.336 11.651-.129 1 2.709 2.01 5.419 3.01 8.128"/><path fill="#fff" d="M44.997 20.884c-3.699.543-7.675.337-11.651.13-1-2.709-2.01-5.419-3.01-8.128 3.977.207 7.953.414 11.652-.13 1 2.71 2.01 5.419 3.01 8.128"/><g fill="#333"><path d="M54.983 16.257c-2.866 2.792-6.287 4.085-9.986 4.627-1-2.709-2.01-5.418-3.01-8.128 3.698-.542 7.119-1.835 9.986-4.627 1 2.708 2.01 5.418 3.01 8.128M24.702 29.27c-3.7.543-7.121 1.836-9.987 4.627-1-2.709-2.01-5.418-3.01-8.128 2.868-2.792 6.288-4.084 9.988-4.627 1 2.709 2 5.419 3.01 8.128"/></g><path fill="#fff" d="M36.35 29.14c-3.978-.206-7.953-.413-11.652.13-1-2.709-2.01-5.419-3.01-8.128 3.697-.543 7.674-.336 11.651-.13 1 2.709 2.01 5.418 3.01 8.128"/><path fill="#333" d="M48.01 29.01c-3.699.543-7.675.336-11.65.13-1-2.709-2.01-5.419-3.01-8.128 3.977.207 7.952.414 11.651-.13 1 2.709 2.01 5.419 3.01 8.128"/><g fill="#fff"><path d="M57.992 24.386c-2.866 2.792-6.288 4.084-9.987 4.627-1-2.709-2.01-5.419-3.01-8.128 3.699-.542 7.12-1.835 9.986-4.627 1 2.708 2.01 5.418 3.01 8.128M27.71 37.4c-3.699.542-7.12 1.835-9.986 4.627-1-2.709-2.01-5.418-3.01-8.129 2.866-2.791 6.287-4.084 9.987-4.627 1 2.709 2.01 5.419 3.01 8.129"/></g><path fill="#333" d="M39.36 37.27c-3.977-.206-7.952-.413-11.651.131-1-2.71-2.01-5.42-3.01-8.129 3.699-.543 7.675-.336 11.652-.13 1 2.71 2 5.419 3.01 8.128"/><path fill="#fff" d="M51.01 37.14c-3.698.543-7.674.336-11.651.129-1-2.709-2.01-5.418-3.01-8.128 3.976.206 7.951.413 11.65-.13 1 2.71 2.01 5.42 3.01 8.129"/><g fill="#333"><path d="M61 32.514c-2.866 2.792-6.288 4.085-9.987 4.628-1-2.709-2.01-5.419-3.01-8.129 3.699-.543 7.121-1.835 9.987-4.627 1 2.709 2.01 5.418 3.01 8.128M25.875 64h-1.894L3 7.304l1.653-.592z"/></g></svg>