<svg xmlns="http://www.w3.org/2000/svg" viewBox="0 0 64 64"><path fill="#428bc1" d="M47.821 2L35.16 20.986h6.333L54.15 2z"/><path fill="#e8e8e8" d="M41.493 2L28.836 20.986h6.324L47.821 2z"/><path fill="#ed4c5c" d="M35.16 2L22.507 20.986h6.329L41.493 2z"/><path fill="#ffc200" d="M20.397 16.767c-.58 0-1.055.474-1.055 1.055v9.493c0 .581.475 1.055 1.055 1.055h23.2a1.06 1.06 0 0 0 1.055-1.055v-9.493a1.06 1.06 0 0 0-1.055-1.055h-23.2m22.15 7.383a1.06 1.06 0 0 1-1.055 1.055H22.506c-.58 0-1.055-.475-1.055-1.055v-4.219c0-.581.475-1.055 1.055-1.055h18.986a1.06 1.06 0 0 1 1.055 1.055v4.219"/><path fill="#ed4c5c" d="M22.507 20.986h6.329L16.179 2H9.851z"/><path fill="#e8e8e8" d="M28.836 20.986h6.324L22.507 2h-6.328z"/><path opacity=".5" fill="#3e4347" d="M33.05 5.165l-3.159 4.746 7.379 11.08h4.223l1.055-1.582z"/><path fill="#428bc1" d="M35.16 20.986h6.333L28.836 2h-6.329z"/><circle fill="#ffc200" cx="32" cy="42.28" r="19.716"/><path fill="#e68a00" d="M32.27 24.36c-10.05 0-18.2 8.16-18.2 18.229 0 3 .738 5.829 2.02 8.326a20.23 20.23 0 0 1-1.012-6.298c0-10.677 8.249-19.403 18.705-20.18-.502-.041-1-.077-1.517-.077"/><path fill="#ffe394" d="M45.98 31c5.135 8.968 2.451 20.569-6.404 26.521a20.65 20.65 0 0 1-5.784 2.687 18.377 18.377 0 0 0 8.02-2.99c8.354-5.613 10.62-16.816 5.063-25.02a17.219 17.219 0 0 0-.899-1.193"/><path fill="#f2b200" d="M32 34.31v-6.382l-3.245 9.989 1.495 1.794z"/><path fill="#e68a00" d="M33.754 39.711l1.486-1.794L32 27.928v6.382z"/><path fill="#c47500" d="M34.838 43.05l2.412 1.04 8.499-6.173-6.319 1.794z"/><path fill="#ffe394" d="M39.43 39.711l6.319-1.794H35.24l-1.486 1.794z"/><path fill="#ffd252" d="M30.25 39.711l-1.495-1.794H18.251l6.32 1.794z"/><path fill="#ffdb75" d="M24.571 39.711l-6.32-1.794 8.498 6.173 2.411-1.04z"/><path fill="#e68a00" d="M34.838 43.05l1.753 5.39 3.907 5.64-3.248-9.99z"/><g fill="#f2b200"><path d="M32 45.11v2.796l8.498 6.174-3.907-5.64zM29.16 43.05l-2.411 1.04-3.248 9.99 3.906-5.64z"/></g><path fill="#e68a00" d="M27.407 48.44l-3.906 5.64L32 47.906V45.11z"/><path fill="#ffce31" d="M33.754 39.711L32 34.31l-1.75 5.401h-5.679l4.589 3.339-1.753 5.39L32 45.11l4.591 3.33-1.753-5.39 4.592-3.339z"/></svg>