<svg xmlns="http://www.w3.org/2000/svg" viewBox="0 0 64 64"><g fill="#231f20"><path d="M29.09 23.595c-.938.085-1.641.901-1.566 1.818l.523 6.301 3.398-.316-.526-6.3c-.069-.919-.889-1.591-1.829-1.503"/><path d="M31.29 30.978c-.443-.804-1.46-1.07-2.289-.619l-5.844 3.151 1.598 2.915 5.846-3.148c.829-.452 1.134-1.495.689-2.299"/><path d="M24.377 34.827l-.643-1.495c-.229-.533-.86-.776-1.406-.542l-.742.316a1.08 1.08 0 0 0-.662.927c-.961.489-2.105 1.392-1.336 3.18.125.294.828 1.931 2.814 1.082 2.928-1.247 2.928-1.247 1.975-3.468"/></g><path fill="#e6e6e6" d="M56.97 35.2L40.82 45.447l.877 1.23 16.9-8.131a3.908 3.908 0 0 0-1.623-3.346"/><path fill="#3e4347" d="M40.06 44.655l4.81-2.344s2.354 1.979.726 3.281c-2.344 1.875-2.344 3.174-2.344 3.174h-3.191v-4.111"/><circle fill="#fff" cx="11.375" cy="52.624" r="7.5"/><g fill="#3e4347"><path d="M10.906 45.593l-.468 7.03.541 7.03h.865l.469-7.03-.469-7.03z"/><path d="M11.375 43.25A9.374 9.374 0 0 0 2 52.625 9.373 9.373 0 0 0 11.375 62a9.374 9.374 0 0 0 9.375-9.375 9.375 9.375 0 0 0-9.375-9.375m0 15.938a6.562 6.562 0 0 1-6.563-6.563 6.563 6.563 0 1 1 13.126 0 6.563 6.563 0 0 1-6.563 6.563"/><path d="M18.407 52.16l-7.03-.473-7.03.543v.86l7.03.47 7.03-.47z"/><path d="M17.698 55.733l-5.855-3.92-6.36-3.046-.433.753 5.855 3.92 6.324 3.11z"/><path d="M8.265 58.948l3.921-5.858 3.046-6.357-.748-.433-3.922 5.86-3.109 6.32z"/><path d="M5.52 56.55l6.324-3.11 5.817-3.99-.431-.747-6.325 3.11-5.855 3.921z"/><path d="M7.453 46.77l3.11 6.32 3.984 5.821.749-.431-3.11-6.32-3.921-5.86z"/></g><path fill="#e6e6e6" d="M11.375 47.937a4.688 4.688 0 1 0 0 9.376 4.688 4.688 0 1 0 0-9.376m0 7.5c-1.554 0-2.813-1.258-2.813-2.813s1.259-2.813 2.813-2.813a2.812 2.812 0 1 1 0 5.626"/><circle fill="#fff" cx="52.625" cy="52.624" r="6.563"/><path fill="#94989b" d="M35.75 42.08v6.32l16.44 6.92 1.794-5.05z"/><path fill="#3e4347" d="M52.625 43.25a9.373 9.373 0 0 0-9.375 9.375A9.373 9.373 0 0 0 52.625 62 9.373 9.373 0 0 0 62 52.625a9.374 9.374 0 0 0-9.375-9.375m0 15.938a6.561 6.561 0 0 1-6.563-6.563 6.564 6.564 0 1 1 6.563 6.563"/><path fill="#94989b" d="M13.895 35.69v6.563H28.43s.429-1.752 0-2.02c-7.267-4.543-14.535-4.543-14.535-4.543"/><path fill="#3e4347" d="M28.429 40.31l23.259-5.557v3.577L32.15 47.937z"/><path fill="#94989b" d="M48.662 34.694s-.981-.621-3.068-.094c-2.088.527-9.375 1.91-9.375 1.91l1.348 1.863 10.371-2.449.724-1.23"/><path fill="#ed4c5c" d="M28.889 40.44c-.553.07-1.01-.369-1.01-.842v-1.496c0-.473.462-.885.981-1.069 1.532-.546 4.374-1.751 5.88-2.188.529-.154 1.209.126 1.487.537l1.844 2.23c.278.41.119.563-.505.766.001-.001-6.464 1.782-8.676 2.062"/><g fill="#94989b"><path d="M11.375 52.624v.686l8.305-11.88-.013-1.931H17.16l-6.409 13.13z"/><circle cx="11.375" cy="52.624" r="1.875"/></g><path fill="#c94747" d="M19.414 46.17a10.29 10.29 0 0 0-8.04-3.861 10.27 10.27 0 0 0-6.547 2.346l14.586 1.515"/><g fill="#3e4347"><path d="M52.16 45.593l-.472 7.03.542 7.03h.86l.47-7.03-.47-7.03z"/><path d="M59.656 52.16l-7.03-.473-7.03.543v.86l7.03.47 7.03-.47z"/><path d="M58.947 55.733l-5.857-3.92-6.358-3.046-.432.753 5.86 3.92 6.32 3.11z"/><path d="M49.51 58.948l3.93-5.858 3.04-6.357-.747-.433-3.921 5.86-3.11 6.32z"/><path d="M46.769 56.55l6.321-3.11 5.82-3.99-.43-.747-6.32 3.11-5.86 3.921z"/><path d="M48.702 46.77l3.11 6.32 3.986 5.821.752-.431-3.11-6.32-3.92-5.86z"/></g><path fill="#e6e6e6" d="M52.625 47.937a4.687 4.687 0 0 0-4.688 4.688 4.686 4.686 0 0 0 4.688 4.688 4.686 4.686 0 0 0 4.688-4.688 4.687 4.687 0 0 0-4.688-4.688m0 7.5a2.812 2.812 0 1 1-.001-5.625 2.812 2.812 0 0 1 .001 5.625"/><path fill="#ed4c5c" d="M52.53 31.935c-6.465 1.896-3.066 4.123-7.659 6.447-1.677.85-1.618 2.393-1.618 2.393s5.247-.324 11.784-3.896c3.216-1.758 3.216-5.566 3.216-5.566-2.143-.001-3.738.04-5.723.622"/><circle fill="#ccc" cx="35.75" cy="46.884" r="3.75"/><circle fill="#94989b" cx="35.75" cy="46.882" r="1.875"/><path fill="#ed4c5c" d="M41.797 47.716a6.953 6.953 0 0 0-1.828-.248c-1.916 0-1.316 2.344-4.04 2.344-1.451 0-3.619-1.805-3.155-3.17.852-2.512 3.526-3.449-1.239-5.268-5.949-2.268-14.822-3.281-16.407-3.281-1.699 0-.392-1.945 0-2.402 3.393-3.955 7.812-3.34 7.812-3.34l-1.413-1.289a12.334 12.334 0 0 0-10.15 5.305c-.875 1.256-2.289 3.141-1.543 3.648 2.02 1.375 8.11 5.42 8.11 5.42.035.023 2.368 1.576 2.81 2.385.857 1.578.955 8 .955 8 0 .711.491 1.389 1.377 1.311l18.365-2.547c-.034-.355-.016-.719-.055-1.082-.192-1.837-.02-4.346.404-5.788"/><path fill="#c94747" d="M21.963 42.39c-.44-.331-.801-.232-.801.221 0 .452.358 1.096.796 1.433l4.144 3.166c.439.336 1.249.609 1.8.609h.278c.551 0 .643-.271.201-.602l-6.418-4.827"/><circle fill="#94989b" cx="52.625" cy="52.624" r="1.875"/><circle fill="#3e4347" cx="18.875" cy="36.38" r="1.875"/><circle fill="#94989b" cx="18.875" cy="36.38" r=".938"/><path fill="#c94747" d="M11.375 38.972h2.52s.85-.029.85.352-1.685 1.641-1.685 1.641-3.439-1.759-1.685-1.993"/><path fill="#e6e6e6" d="M14.744 39.32c0-.381-.85-.352-.85-.352H12.81s-.908.996.249 1.992c.001.001 1.685-1.259 1.685-1.64"/><g fill="#3e4347"><path d="M26.766 50.978c-.467.273-.93.89-1.03 1.369l-.19.908c-.1.479.008 1.045.24 1.258.233.211.547 0 .695-.471l.859-2.705c.151-.471-.108-.633-.574-.359M38.883 49.944c-.465.274-.931.891-1.029 1.369l-.192.907c-.099.479.009 1.046.241 1.259.232.211.546.001.696-.471l.858-2.704c.15-.471-.109-.633-.574-.36"/></g><path fill="#666c70" d="M30.08 47.991c-1.897-.477-3.802.635-4.251 2.482l8.161 2.051c.949.237 1.9-.317 2.125-1.244l.408-1.67-6.443-1.619"/><path fill="#3e4347" d="M48 28.404l-12.13 5.321-10.192-9.06s4.63-4.708 6.081-4.749C39.799 19.686 48 28.402 48 28.402"/><path fill="#231f20" d="M48 28.404l-12.404 5.03-1.387.78-3.487 13.935 5.797 1.457 3.402-11.218s5.551-2.353 7.08-3.626c1.267-1.058 2.938-3.525 1-6.362"/><g fill="#3e4347"><path d="M27.18 22.922c-.937.085-1.64.9-1.566 1.818l.524 6.301 3.398-.316-.526-6.3c-.069-.919-.89-1.591-1.83-1.503"/><path d="M29.377 30.31c-.443-.805-1.461-1.071-2.289-.619l-5.844 3.15 1.598 2.916 5.846-3.149c.83-.451 1.134-1.495.689-2.298"/></g><path fill="#666c70" d="M22.468 34.16l-.642-1.496a1.068 1.068 0 0 0-1.406-.541l-.743.315a1.082 1.082 0 0 0-.661.927c-.961.49-2.106 1.392-1.336 3.18.125.295.827 1.931 2.814 1.082 2.926-1.247 2.926-1.247 1.974-3.467"/><path fill="#ed4c5c" d="M37.34 13.476c0 6.338-1.77 6.121-11.476 11.477-3.239 1.786-7.672 1.761-9.833-5.629-.688-2.352-1.644-3.208-1.644-5.848C14.387 7.138 19.524 2 25.864 2 32.202 2 37.34 7.138 37.34 13.476"/><path fill="#3e4347" d="M28.46 13.184c.679 1.862-7.538 6.563-12.547 8.386-1.244.453-3.699-6.292-2.455-6.745 5.01-1.823 14.326-3.504 15-1.641"/><circle fill="#94989b" cx="28.25" cy="12.891" r="1.994"/></svg>