<svg xmlns="http://www.w3.org/2000/svg" viewBox="0 0 64 64"><path fill="#b47d56" d="M14.393 7.459v3.824a2.48 2.48 0 0 1-2.457 2.482l-1.84.015a2.447 2.447 0 0 1-2.221-1.38c-2.455-.156-5.666-1.026-5.662-5.599 0-.753-.004-4.935 4.92-4.965 7.256-.049 7.256-.049 7.26 5.623"/><path fill="#935e3e" d="M7.91 11.438c.113-2.94 3.527-2.456 5.588-2.518.16-.005.16-.255 0-.25-2.236.066-5.715-.4-5.838 2.768-.006.161.244.161.25 0"/><g fill="#b47d56"><path d="M36.29 10.263a3.114 3.114 0 0 1 2.373-3.755 3.209 3.209 0 0 1 3.803 2.404l6.42 27.719a3.12 3.12 0 0 1-2.375 3.756 3.209 3.209 0 0 1-3.803-2.405L36.29 10.263"/><path d="M13.08 10.607a3.113 3.113 0 0 1-2.855-3.404 3.208 3.208 0 0 1 3.447-2.891L39.6 6.413a3.114 3.114 0 0 1 2.854 3.405 3.21 3.21 0 0 1-3.447 2.89L13.08 10.607M63 45.05L46.101 60.509c-6.81-15.758-10.744-17.334-10.744-17.334l5.676-14.07S45.375 27.018 63 45.047"/></g><path fill="#935e3e" d="M26.572 46.621c9.291 8.486 21.842-10.388 12.625-23.786L26.572 46.621"/><circle fill="#b47d56" cx="26.11" cy="30.09" r="14.956"/><path fill="#f15744" d="M25.17 29.15c4.072-4.072 8.629-6.889 12.762-8.205a15.24 15.24 0 0 0-1.242-1.428c-5.84-5.841-15.309-5.841-21.15 0-5.842 5.84-5.842 15.311 0 21.15.453.453.934.857 1.428 1.24 1.315-4.132 4.134-8.688 8.202-12.759"/><g fill="#413735"><path d="M27.971 33.981c-.664-1.485-3.01-1.874-5.246-.872-2.227 1-3.494 3.02-2.832 4.502.664 1.486 3.01 1.879 5.238.877 2.232-1 3.508-3.02 2.84-4.507M30.01 31.945c-1.486-.664-1.875-3.01-.873-5.248 1-2.224 3.02-3.494 4.502-2.83 1.486.664 1.879 3.01.877 5.237-1 2.234-3.02 3.509-4.506 2.841"/><path d="M27.23 34.435l3.231-3.235-.805-.655-3.084 3.085z"/></g><path fill="#935e3e" d="M29.508 35.24a1.242 1.242 0 0 0 1.762-.001 1.245 1.245 0 0 0 0-1.763l-1.762 1.764"/><path fill="#47352d" d="M36.23 36.07c.789.789-.375 1.475-1.516 2.615s-1.824 2.307-2.617 1.516c-.789-.793-.506-2.357.635-3.498 1.14-1.141 2.705-1.425 3.498-.633"/><path fill="#935e3e" d="M47.18 35.15c0-.589.094-1.151.26-1.671-1.055.512-1.801 1.756-1.801 3.211 0 1.912 1.285 3.463 2.869 3.463.547 0 1.059-.189 1.494-.51-1.629-.552-2.822-2.351-2.822-4.493"/><path fill="#42ade2" d="M59.43 43.57a4.52 4.52 0 0 1-2.996-1.145c-.957-.838-1.574-2.053-1.574-3.426 0 2.525-2.047 4.57-4.572 4.57s-4.57-2.045-4.57-4.57c0 2.525-2.047 4.57-4.572 4.57s-4.572-2.045-4.572-4.57c0 2.525-2.045 4.57-4.57 4.57s-4.572-2.045-4.572-4.57c0 2.525-2.045 4.57-4.57 4.57s-4.572-2.045-4.572-4.57a4.57 4.57 0 0 1-4.57 4.57 4.57 4.57 0 0 1-4.572-4.57 4.537 4.537 0 0 1-1.572 3.426 4.545 4.545 0 0 1-3 1.145A4.57 4.57 0 0 1 .006 39v25h64V39a4.576 4.576 0 0 1-4.576 4.57"/><g fill="#428bc1"><path d="M23.22 57.5c-1.646.199-3.469.096-5.04-.426-2.041-.623-3.855-1.736-5.984-2.123-2.863-.5-5.994-.053-8.672 1.055 3.496-.199 6.844-.539 10.199.697 2.984 1.098 6.375 2.258 9.492.797M35.639 49.563c-1.496.178-3.67.254-5.03-.428-2.045-.613-3.857-1.744-5.988-2.123-2.838-.49-6.02-.076-8.668 1.057 3.484-.227 6.855-.537 10.197.697 2.97 1.095 6.388 2.263 9.492.797M48.06 57.5c-1.492.184-3.672.254-5.03-.426-2.045-.615-3.857-1.744-5.988-2.123-2.859-.502-5.996-.053-8.67 1.055 3.494-.201 6.846-.541 10.199.697 2.976 1.098 6.38 2.262 9.49.797M60.48 49.563c-1.496.178-3.67.254-5.03-.428-2.045-.611-3.855-1.74-5.986-2.123-2.844-.49-6.02-.074-8.672 1.057 3.484-.227 6.857-.535 10.199.697 2.98 1.095 6.376 2.257 9.492.797"/></g></svg>