<svg xmlns="http://www.w3.org/2000/svg" viewBox="0 0 64 64"><path fill="#d6eef0" d="M0 0h64v64H0z"/><g fill="#b2c1c0"><path d="M0 15l4-4 6.5-4L22 16l16 21H0z"/><path opacity=".5" d="M38 37L22 16 10.5 7 9 14l4 4-1 6 4 4-2 9z"/></g><path fill="#fff" d="M10.5 7L4 11l-2 2h3l-1.5 4.09L8 15.05 9 20l4-2 3.875 2v-3.5L22 16z"/><path opacity=".5" fill="#b2c1c0" d="M38 37L22 16 10.5 7l-.5 5 3 6-1 6 4 4-2 9z"/><g fill="#83bf4f"><path d="M.019 32c.064 0-.065 0 0 0M50.193 34.498l.006.029C46.962 33.117 43.613 32.023 40 32c-3.61-.025-6.771 1.65-9.607 2.391C14 38.667 0 32 0 32v32h64V36.254c-4.388.563-9.222-.02-13.807-1.756z"/></g><g fill="#699635"><circle cx="5" cy="45" r="4"/><circle cx="6" cy="40" r="3"/><circle cx="12.167" cy="43" r="6"/></g><path fill="#89664c" d="M55.818 33.818h2.727V42h-2.727z"/><path fill="#699635" d="M59.36 22.874c-1.2-2.256-3.162-2.256-4.363 0l-4.173 7.844c-1.201 2.255.013 4.101 2.696 4.101 0 0 2.711-1 3.658-1s3.658 1 3.658 1c2.684 0 3.897-1.846 2.696-4.101l-4.172-7.844"/><path fill="#75a843" d="M58.926 18.444c-.958-1.804-2.525-1.804-3.488 0l-3.34 6.276c-.959 1.804.01 3.28 2.157 3.28 0 0 2.195-1 2.927-1s2.925 1 2.925 1c2.149 0 3.12-1.476 2.159-3.279l-3.34-6.277"/><path fill="#83bf4f" d="M58.49 14.02c-.718-1.354-1.894-1.354-2.613 0l-2.506 4.707c-.721 1.353.008 2.459 1.619 2.459 0 0 1.645-1 2.193-1s2.192 1 2.192 1c1.612 0 2.341-1.107 1.62-2.459L58.49 14.02"/><g fill="#fff"><path d="M34 7a2 2 0 0 1-2 2H22a2 2 0 0 1 0-4h10a2 2 0 0 1 2 2"/><path d="M38 9a2 2 0 0 1-2 2h-4a2 2 0 0 1 0-4h4a2 2 0 0 1 2 2M42 17a2 2 0 0 1-2 2h-4a2 2 0 0 1 0-4h4a2 2 0 0 1 2 2M52 12a2 2 0 0 1-2 2h-4a2 2 0 0 1 0-4h4a2 2 0 0 1 2 2"/></g><path fill="#ffdd7d" d="M30.834 36.01h18l7.342 13.38-2.49 6.249-15.41 2.521z"/><path fill="#dbb471" d="M24.398 55.03l-1.258-5.71 7.694-13.31 8.71 16.636-1.264 6.514z"/><path fill="#89664c" d="M30.834 36.01l-3.862 19.806 6.088 1.794z"/><g fill="#ffdd7d"><path d="M30.834 36.01s1.374 12.142 3.661 16.638l-1.439 4.961-2.222-21.599"/><path d="M26.972 55.816l-1.363-3.903s4.455-11.611 5.226-15.904l-3.863 19.807"/></g><circle fill="#699635" cx="19" cy="45" r="4"/><path fill="#dbb471" d="M38.544 51.646L56.18 49.39l-1.49 7.249-16.41 2.521z"/></svg>