<svg xmlns="http://www.w3.org/2000/svg" viewBox="0 0 64 64"><path fill="#b4d7ee" d="M0 0h64v64H0z"/><path fill="#f9f3d9" d="M64 27s-11.877-2.999-16-2.999S37.167 27 32 27c-4.271 0-11.727-3.999-15.999-3.999-4.751 0-16 .999-16 .999v24.997h64V27"/><path fill="#ffdd7d" d="M0 34.657S16.001 29 32 29c8.016 0 32 7.543 32 7.543V64H0V34.657z"/><path fill="#dbb471" d="M0 47.822S6.877 45 11 45s16.888 6.859 21 6.588c4.261-.279 19.729-3.65 23.999-3.764 4.189-.109 8 .943 8 .943V64h-64V47.822"/><g fill="#699635"><path d="M21.23 35.518a1.92 1.92 0 0 0 1.914 1.923 1.922 1.922 0 0 0 1.923-1.923v-7.676a1.918 1.918 0 1 0-3.837 0v7.676"/><path d="M15.466 33.6a1.922 1.922 0 0 0 0 3.841h7.673a1.923 1.923 0 0 0 1.923-1.923c0-1.061-.86-1.918-1.923-1.918h-7.673"/></g><path fill="#83bf4f" d="M15.848 17a2.877 2.877 0 0 0-2.877 2.88v32.24c0 2.88 1.288 2.88 2.877 2.88s2.876 0 2.876-2.88V19.88A2.876 2.876 0 0 0 15.848 17"/><g fill="#699635"><path d="M10.09 42.05a1.438 1.438 0 1 1-2.877 0v-5.756a1.44 1.44 0 0 1 2.877 0v5.756"/><path d="M14.405 40.607a1.438 1.438 0 1 1 0 2.877H8.652a1.44 1.44 0 1 1 0-2.877h5.753"/></g><path fill="#f9f3d9" d="M3 52.5c0 1.104 1.343 1 3 1s3 .104 3-1-1.343-1.998-3-1.998-3 .895-3 1.998"/><path fill="#ffdd7d" d="M16.303 60.08c0 1.104 1.343 1 3 1s3 .104 3-1-1.343-1.998-3-1.998-3 .894-3 1.998"/><g fill="#89664c"><path d="M26 56.5c0 1.104 1.343 1 3 1s3 .104 3-1-1.343-1.998-3-1.998-3 .895-3 1.998M57.27 52.28c-2.708.754-5.443.303-8.153.455-.22-.601-.438-1.199-.656-1.801-.268-.733-1.401-.415-1.131.33l.576 1.582c-.431.058-.86.139-1.289.251a71.96 71.96 0 0 0-4.268 1.277c1.341-1.294 2.744-2.529 4.287-3.494.867-.545 1.988-.808 3.189-.926a.579.579 0 0 0 .137-.018 19.994 19.994 0 0 1 1.889-.061l1.451 2.073c.443.635 1.463.02 1.014-.622l-.988-1.412c.986.045 1.93.108 2.729.13.758.02.755-1.213 0-1.232-1.49-.04-3.284-.192-5.04-.144l.989-1.438c.444-.646-.573-1.261-1.013-.623-.496.725-.995 1.446-1.492 2.171-1.113.126-2.172.368-3.07.835-1.769.922-3.363 2.333-4.852 3.797 1.013-1.975 2.217-3.929 3.933-4.982 3.281-2.01 6.658-3.106 10.394-2.416.738.136 1.055-1.052.311-1.189-3.738-.69-6.508.259-9.835 1.812l.704-1.317c.371-.695-.641-1.317-1.012-.622l-1.605 3c-1.663 1.223-2.827 3.07-3.832 4.99.256-2.066.71-4.185 1.879-5.627 1.58-1.95 3.395-3.188 5.414-3.93l2.217 1.483c.639.429 1.227-.639.59-1.066a491.12 491.12 0 0 1-1.301-.87 17.085 17.085 0 0 1 3.596-.448c.756-.015.757-1.248 0-1.233-1.641.033-3.36 0-4.938.521-2.256.745-4.236 2.495-5.936 4.16-2.432 2.385-2.65 6.436-2.973 9.769-.258.088-.518.176-.776.266-.715.244-.41 1.436.312 1.188.412-.14.824-.273 1.237-.413 2.735 2.15 4.601 2.71 8.095 2.449 3.613-.27 5.736-.855 8.423-3.417.562-.533-.27-1.404-.829-.871-1.048.998-2.01 1.642-3.02 2.087l-1.141-1.858c-.409-.666-1.424-.049-1.013.622.337.55.675 1.102 1.014 1.651-1.01.29-2.113.444-3.435.553-.612.05-1.249.117-1.885.138.355-.661.71-1.32 1.064-1.982.375-.693-.64-1.314-1.012-.623l-1.373 2.555c-.572-.07-1.128-.213-1.646-.491-.657-.351-1.281-.798-1.886-1.265 1.863-.621 3.729-1.224 5.616-1.747 3.487-.966 7.108.17 10.654-.819.731-.204.421-1.395-.311-1.189"/></g><path fill="#ffce31" d="M46 10.998a6 6 0 1 0 11.996 0 6 6 0 0 0-11.996 0"/><g fill="#fff"><path d="M47.814 2.904c-2.531 1.357-4.165 3.581-4.549 6.619-.055.432.566.621.622.182.36-2.875 1.854-4.918 4.249-6.205.375-.197.046-.792-.322-.596M59.89 13.246c-.864 3.183-2.621 5.546-5.643 6.518-.397.127-.226.793.169.664 3.239-1.039 5.166-3.582 6.094-6.996.115-.43-.505-.611-.62-.186M44.16 12.998c.504 2.893 1.727 4.882 4.059 6.442.355.237.674-.36.326-.596-2.197-1.468-3.291-3.318-3.764-6.03-.078-.438-.697-.253-.621.183M58.6 6.146c-1.038-1.693-3.02-3.822-5.084-3.635-.411.038-.412.727 0 .689 1.818-.165 3.608 1.793 4.531 3.296.224.371.781.024.553-.35"/></g><g fill="#d6eef0"><path d="M50.827 21.312c-2.427-.037-4.457-.771-6.289-2.5-.312-.292-.769.195-.458.488 1.963 1.847 4.149 2.663 6.747 2.7.416.006.415-.684 0-.688M60.41 16.717c-.646 1.52-1.712 3.523-3.232 4.174-.38.16-.213.83.174.665 1.697-.726 2.885-2.781 3.613-4.491.168-.402-.385-.753-.555-.348M43.19 3.998c-2.339 2.255-1.914 7-.7 9.774.176.401.729.052.553-.349-1.09-2.495-1.5-6.912.604-8.938.307-.296-.148-.782-.457-.487M58.18 2.58c1.849 1.789 2.644 3.858 2.677 6.515.006.444.648.444.645 0-.037-2.83-.896-5.097-2.865-7-.31-.297-.765.188-.457.487"/></g></svg>