<svg xmlns="http://www.w3.org/2000/svg" viewBox="0 0 64 64"><path fill="#83bf4f" d="M36.39 54.661a2.104 2.104 0 0 0-2.103-2.104c-.239 0-.465.047-.679.122a1.574 1.574 0 0 0-1.425-.91c-.37 0-.706.132-.976.347a1.578 1.578 0 0 0-1.535-1.925c-.776 0-1.418.563-1.55 1.3a1.052 1.052 0 0 0-.672-.249c-.58 0-1.051.471-1.051 1.053v6.309h8.413a1.577 1.577 0 0 0 1.135-2.668c.275-.354.443-.793.443-1.275"/><g fill="#699635"><path d="M36.39 57.03a1.57 1.57 0 0 0-.441-1.092c.273-.354.441-.793.441-1.274a2.104 2.104 0 0 0-2.103-2.104c-.239 0-.465.047-.679.122a1.585 1.585 0 0 0-.783-.772 1.574 1.574 0 0 0-.937 1.439c0 .153.029.3.069.441a1.04 1.04 0 0 0-.465-.114c-.58 0-1.051.473-1.051 1.053 0 .397.226.742.552.92a1.82 1.82 0 0 0-.388 1.117c0 1.01.808 1.819 1.809 1.838v.002h2.399a1.577 1.577 0 0 0 1.578-1.576M30.2 57.26c0 .582-.471-.229-1.052-.229s-1.052.811-1.052.229a1.052 1.052 0 0 1 2.104 0M27.87 55.45c0 .291-.235 0-.526 0-.29 0-.525.291-.525 0a.526.526 0 0 1 1.051 0"/></g><g fill="#83bf4f"><path d="M28.769 53.872c0 .291-.234-.088-.526-.088-.291 0-.525.379-.525.088s.234-.525.525-.525c.291 0 .526.234.526.525M33.16 56.5c0 .394-.318-.192-.712-.192s-.712.586-.712.192a.711.711 0 1 1 1.424 0M35.2 54.53c0 .584-.474-.336-1.058-.336-.583 0-1.057.92-1.057.336a1.057 1.057 0 0 1 2.115 0M35.23 57.03c0 .29-.234 0-.526 0-.291 0-.525.29-.525 0 0-.291.234-.525.525-.525.292 0 .526.234.526.525M30.529 52.821c0 .394-.319-.192-.713-.192-.393 0-.712.586-.712.192a.713.713 0 1 1 1.425 0M2 58.3h60v3.705H2z"/></g><path fill="#d0d0d0" d="M53.35 12.03h2.436v4.581H53.35z"/><path fill="#94989b" d="M55.785 12.03h1.624v4.581h-1.624z"/><path fill="#d0d0d0" d="M52.54 10.427h4.061v1.605H52.54z"/><path fill="#94989b" d="M56.6 10.427h1.625v1.605H56.6z"/><g fill="#f9f3d9"><path d="M34.785 39.771h26.25v18.524h-26.25zM37.598 18.89h20.625v17.17H37.598z"/></g><path fill="#ed4c5c" d="M61.973 39.771h-28.12l3.75-3.711h20.622z"/><path fill="#89664c" d="M39.473 46.25h6.563v12.04h-6.563z"/><path fill="#dbb471" d="M38.535 44.4h8.438v1.854h-8.438z"/><ellipse fill="#f9f3d9" cx="44.629" cy="52.27" rx=".632" ry=".626"/><path fill="#ed4c5c" d="M47.91 9.5l-14.09 9.39H62z"/><path fill="#d6eef0" d="M50.5 45.34h7.699v7.709H50.5z"/><path fill="#89664c" d="M49.54 44.38v9.632h9.624V44.38H49.54m8.66.961v3.371h-3.368v-3.371H58.2m-4.332 0v3.371h-3.367v-3.371h3.367m-3.367 7.709v-3.373h3.367v3.373h-3.367m4.331 0v-3.373H58.2v3.373h-3.368"/><path fill="#d6eef0" d="M44.06 23.522h7.698v7.708H44.06z"/><path fill="#89664c" d="M43.1 22.561v9.632h9.624v-9.632H43.1m8.66.961v3.371h-3.368v-3.371h3.368m-4.331 0v3.371h-3.367v-3.371h3.367m-3.367 7.708v-3.372h3.367v3.372h-3.367m4.33 0v-3.372h3.368v3.372h-3.368"/><path fill="#d0d0d0" d="M21.53 12.03h2.435v4.581H21.53z"/><path fill="#94989b" d="M23.965 12.03h1.625v4.581h-1.625z"/><path fill="#d0d0d0" d="M20.717 10.427h4.061v1.605h-4.061z"/><path fill="#94989b" d="M24.777 10.427h1.625v1.605h-1.625z"/><g fill="#f9f3d9"><path d="M2.965 39.771h26.25v18.524H2.965zM5.777 18.89h20.625v17.17H5.777z"/></g><path fill="#89664c" d="M7.652 46.25h6.563v12.04H7.652z"/><path fill="#dbb471" d="M6.715 44.4h8.438v1.854H6.715z"/><ellipse fill="#f9f3d9" cx="12.809" cy="52.27" rx=".632" ry=".626"/><path fill="#ed4c5c" d="M16.09 9.5L2 18.89h28.18z"/><path fill="#d6eef0" d="M12.239 23.522h7.698v7.708h-7.698z"/><path fill="#89664c" d="M11.278 22.561v9.632h9.624v-9.632h-9.624m8.66.961v3.371H16.57v-3.371h3.368m-4.332 0v3.371h-3.367v-3.371h3.367m-3.367 7.708v-3.372h3.367v3.372h-3.367m4.33 0v-3.372h3.368v3.372h-3.368"/><path fill="#d6eef0" d="M18.678 45.34h7.698v7.709h-7.698z"/><path fill="#89664c" d="M17.716 44.38v9.632h9.624V44.38h-9.624m8.66.961v3.371h-3.368v-3.371h3.368m-4.331 0v3.371h-3.367v-3.371h3.367m-3.367 7.709v-3.373h3.367v3.373h-3.367m4.33 0v-3.373h3.368v3.373h-3.368"/><path fill="#ed4c5c" d="M30.15 39.771H2.03l3.75-3.711h20.625z"/></svg>