<svg xmlns="http://www.w3.org/2000/svg" viewBox="0 0 64 64"><g fill="#94989b"><path d="M0 60h64v4H0zM44 15v45h17l-4-23 4-22z"/></g><path fill="#d0d0d0" d="M50 16L26 4 6 24l3 8-4 28h44l-4-13z"/><path fill="#c94747" d="M63.05 14.434L38 0H26l24 17.998L62 18c.695 0 1.375-.315 1.746-.956a1.915 1.915 0 0 0-.701-2.61"/><path fill="#ed4c5c" d="M51.05 14.435L26 0 .96 26.435a1.914 1.914 0 0 0-.7 2.611 1.92 1.92 0 0 0 2.614.699L26.004 4l23.13 13.745a1.921 1.921 0 0 0 2.615-.699 1.915 1.915 0 0 0-.7-2.611"/><g fill="#3e4347"><path d="M49 44l3.43 16H57z"/><path d="M55 39l-4 13.08L53.08 55zM13.715 40H24l-2 11 2 9H13.715L12 47zM55.664 32H51l1.34-8H57zM24 32h-8l-2-8h8zM30 32h8l2-8h-8z"/></g><path fill="#dbb471" d="M42 36l-4-4 2-8 4 4z"/><g fill="#3e4347"><path d="M40.15 3v2.099H38l6.46 3.941h3.233L52 11l-3.23-4H45zM41 54h-9.82L29 47l2.18-7H41l-1.182 5.833z"/></g><g fill="#dbb471"><path d="M11.175 56L10 53.34 24.826 50 26 52.656zM25.489 49L10 46.09l.512-3.09L26 45.908z"/></g></svg>