<svg xmlns="http://www.w3.org/2000/svg" viewBox="0 0 64 64"><g fill="#acb8bf"><path d="M2 60.13h60v1.875H2zM5.5 56.38h53v1.875h-53z"/></g><g fill="#dae3ea"><path d="M3.75 58.25h56.5v1.875H3.75zM7.25 54.5h49.5v1.875H7.25z"/></g><path fill="#94989b" d="M4.813 27.769h54.38v1.877H4.813z"/><path fill="#dae3ea" d="M2 29.646h60v1.877H2z"/><path fill="#94989b" d="M31.989 4.84L2 21.235l2.512 3.754L31.989 6.691 59.49 24.989 62 21.235z"/><g fill="#dae3ea"><path d="M31.989 2L2 21.235v2.815L31.989 4.814 62 24.05v-2.815z"/><path d="M31.989 6.691L2 25.928v1.876h60v-1.876z"/></g><path fill="#acb8bf" d="M31.989 9.482L7.082 25.928h49.837z"/><g fill="#94989b"><path d="M32.754 22.644l-.402.231a.25.25 0 0 0-.225-.151h-.252a.25.25 0 0 0-.225.151l-.402-.231-.966-.553v2.21l.966-.553.402-.231c.04.09.125.152.225.152h.252a.252.252 0 0 0 .225-.152l.402.231.964.553v-2.21l-.964.553M30.5 19.518c.162.253.387.437.648.564.262.125.557.188.853.188.296-.002.593-.063.853-.189.262-.126.488-.311.649-.563.035.295-.117.619-.402.847-.281.231-.69.366-1.098.365-.409.001-.817-.135-1.099-.366-.286-.227-.439-.551-.404-.846"/><path d="M36.27 16.564v-.081c0-.063-.006-.074-.041-.092a1.396 1.396 0 0 0-.334-.126 4.24 4.24 0 1 0-7.793 0 1.62 1.62 0 0 0-.334.126c-.035.018-.043.029-.043.092v.081c0 .151-.018.093.09.155a.391.391 0 0 1 .098.079c-.1.362-.153.744-.153 1.14a4.238 4.238 0 1 0 8.323-1.142.455.455 0 0 1 .099-.077c.108-.062.088-.003.088-.155M31.998 14.2c1.426 0 2.667.798 3.295 1.972a8.72 8.72 0 0 0-1.387-.008c-.524.045-.963.163-1.321.347a1.43 1.43 0 0 1-1.174 0c-.359-.184-.798-.302-1.322-.347a8.59 8.59 0 0 0-1.386.008 3.737 3.737 0 0 1 3.295-1.972m0 7.477a3.74 3.74 0 0 1-3.739-3.738l.001-.085c.133.5.428.823.871.99a2.05 2.05 0 0 0 1.477-.017c.26-.103.486-.266.666-.53.315-.464.22-.754.383-1.152.143-.346.541-.346.684 0 .162.399.068.688.383 1.152.18.265.408.428.666.53.472.188 1 .194 1.478.017.443-.167.738-.49.87-.99l.001.085a3.742 3.742 0 0 1-3.741 3.738"/></g><path fill="#dae3ea" d="M8.5 33.2h6v19.554h-6z"/><g fill="#94989b"><path d="M7.75 52.75h7.5v1.75h-7.5zM7.75 31.499h7.5v1.697h-7.5z"/></g><g fill="#c8d0d6"><path d="M9.1 33.979h.708v18.04H9.1zM13.193 33.979h.708v18.04h-.708zM11.829 33.979h.707v18.04h-.707zM10.464 33.979h.707v18.04h-.707z"/></g><path fill="#dae3ea" d="M22.17 33.2h6v19.615h-6z"/><g fill="#94989b"><path d="M21.417 52.812h7.5V54.5h-7.5zM21.417 31.499h7.5v1.697h-7.5z"/></g><g fill="#c8d0d6"><path d="M22.766 33.979h.707v18.04h-.707zM26.86 33.979h.707v18.04h-.707zM25.495 33.979h.708v18.04h-.708zM24.13 33.979h.708v18.04h-.708z"/></g><path fill="#dae3ea" d="M35.834 33.2h6v19.615h-6z"/><g fill="#94989b"><path d="M35.08 52.812h7.5V54.5h-7.5zM35.08 31.499h7.5v1.697h-7.5z"/></g><g fill="#c8d0d6"><path d="M36.434 33.979h.707v18.04h-.707zM40.527 33.979h.707v18.04h-.707zM39.16 33.979h.708v18.04h-.708zM37.798 33.979h.708v18.04h-.708z"/></g><path fill="#dae3ea" d="M49.5 33.2h6v19.554h-6z"/><g fill="#94989b"><path d="M48.751 52.75h7.5v1.75h-7.5zM48.751 31.499h7.5v1.697h-7.5z"/></g><g fill="#c8d0d6"><path d="M50.1 33.979h.708v18.04H50.1zM54.19 33.979h.708v18.04h-.708zM52.829 33.979h.707v18.04h-.707zM51.47 33.979h.707v18.04h-.707z"/></g></svg>