<svg xmlns="http://www.w3.org/2000/svg" viewBox="0 0 64 64"><path fill="#ff8736" d="M49.542 37.09c-6.881 0-12.458 5.574-12.458 12.459 0 6.877 5.577 12.455 12.458 12.455S62 56.426 62 49.549c0-6.885-5.577-12.459-12.458-12.459"/><g fill="#3e4347"><path d="M55.29 5.252l-5 11.26 3.342-12.5 2.178-2.01h-2.755L18.557 41.768c-1.525 1.824-4.29 2.02-6.168.439s-2.164-4.34-.638-6.166c1.522-1.816 1.236-4.578-.645-6.156-1.88-1.58-4.642-1.383-6.165.434-4.571 5.457-3.709 13.75 1.921 18.486 5.536 4.66 13.642 4.156 18.255-1.049l34.21-42.43-1.505-2.15-2.531 2.08M59.32 2l1.24 1.779-.728.909L62 2z"/></g><path opacity=".5" fill="#c7e755" d="M59.32 5.322l.512-.634-.512.634"/><path fill="#3e4347" d="M59.32 2h-.08l-1.423 1.172 1.503 2.15.512-.634.728-.909z"/><g fill="#c7e755"><path opacity=".5" d="M59.32 2h-.08l-1.423 1.172 1.503 2.15.512-.634.728-.909z"/><path d="M57.768 2h-1.964l-2.178 2.01-3.346 12.502 5.01-11.26 2.527-2.08-.517-.746z"/><path d="M57.3 2.426l.517.746L59.24 2h-1.472zM46.02 12.1L20.96 42.03l.526.855 25.06-29.93zM47.07 13.811L22.02 43.74l.519.858 25.06-29.932zM23.07 45.45l.52.86 25.06-29.929-.517-.858z"/><path opacity=".5" d="M54.45 5l2.384 3.406 1.246-1.539-2.206-3.154zM52.865 9.381l1.485 2.113 1.24-1.543-1.933-2.763zM51.28 13.756l.577.824 1.243-1.54-1.03-1.474z"/><path d="M11.128 43.688l-5.359.472 5.83 4.9z"/></g></svg>