<svg xmlns="http://www.w3.org/2000/svg" viewBox="0 0 64 64"><circle fill="#e8e8e8" cx="32" cy="32" r="30"/><path fill="#b2c1c0" d="M28.404 17.959c-.105-3.066.305-5.941.911-8.438 14.468.322 25.21 7.094 30.533 11.324a29.735 29.735 0 0 0-1.734-3.605c-6.04-4.178-15.804-9.186-28.29-9.582a36.126 36.126 0 0 1 2.23-5.656L32 2c-.692 0-1.376.033-2.057.078-2.407 5.23-6.772 18.01.976 29.967a25.167 25.167 0 0 1-7.723 9.04c-10.1-18.332-5.623-32.406-4.068-36.18-.865.41-1.707.863-2.524 1.354-1.929 5.854-4.302 19.07 5.04 35.887-2.603 1.623-5.297 2.707-7.761 3.43-6.952-12.684-6.464-25.362-5.465-32.1a30.084 30.084 0 0 0-2.254 3.291c-.598 7.318-.054 18.283 5.851 29.3a36.07 36.07 0 0 1-6.01.896c.352.607.716 1.207 1.106 1.787 5.73-.527 18.994-3.133 25.477-15.83a25.109 25.109 0 0 1 11.685 2.172c-10.815 17.898-25.23 21.07-29.29 21.611a30.574 30.574 0 0 0 2.428 1.512c6.03-1.258 18.67-5.814 28.56-22.303 2.706 1.443 4.991 3.234 6.849 5.01-7.511 12.365-18.74 18.279-25.07 20.779a30.21 30.21 0 0 0 3.993.301c6.636-3.143 15.853-9.09 22.438-19.707a36.083 36.083 0 0 1 3.781 4.758c.352-.605.688-1.223.996-1.855-3.322-4.695-12.214-14.879-26.445-14.15a25.097 25.097 0 0 1-3.963-11.205c20.895.416 30.844 11.301 33.36 14.555.061-.79.102-1.587.102-2.392 0-.156-.01-.313-.012-.469-4.109-4.599-14.373-13.252-33.584-13.572"/></svg>