<svg xmlns="http://www.w3.org/2000/svg" viewBox="0 0 64 64"><path fill="#d6eef0" d="M0 0h64v64H0z"/><circle fill="#ffe62e" cx="52" cy="12" r="7"/><g fill="#fff"><path d="M22 7a2 2 0 0 1-2 2H10a2 2 0 0 1 0-4h10a2 2 0 0 1 2 2"/><path d="M26 9a2 2 0 0 1-2 2h-4a2 2 0 0 1 0-4h4a2 2 0 0 1 2 2M40 12a2 2 0 0 1-2 2h-4a2 2 0 0 1 0-4h4a2 2 0 0 1 2 2M19 19a2 2 0 0 1-2 2h-4a2 2 0 0 1 0-4h4a2 2 0 0 1 2 2"/></g><path fill="#6adbc6" d="M0 32h64v32H0z"/><path fill="#ffdd7d" d="M64 40s-78.43-.867-46.25 23.996H64V40"/><path fill="#94989b" d="M39.12 53.18a1.017 1.017 0 0 1-1.184.803.999.999 0 0 1-.792-1.181l4.698-23.795a1.016 1.016 0 0 1 1.186-.802 1 1 0 0 1 .791 1.18L39.12 53.18"/><path fill="#f27a52" d="M41.644 35.2c3.717.711 3.248 3.649 6.158 4.205 2.912.558 3.588-2.342 7.313-1.628l.753.144c.522 1.385 1.341.996 1.817-.866l.151-.776c1.699-8.593-10.345-12.935-10.345-12.935-1.74-.945-4.783-1.528-6.758-1.292 0 0-12.819-.411-14.519 8.181l-.152.778c-.266 1.902.344 2.564 1.357 1.472l.759.144c3.715.711 3.246 3.648 6.157 4.206 2.912.555 3.592-2.342 7.309-1.633"/><path fill="#f9f3d9" d="M46.39 25.08l-.262-.122c-.351-.198-.818-.377-1.328-.531.509 2.882 1.287 7.607 1.801 12.236.322.389.559.563.98.643.572.107.885-.059 1.704-.56 1.136-.696 2.694-1.649 5.261-1.157l.342.064c1.314-6.842-8.403-10.537-8.498-10.573"/><path fill="#c94747" d="M40.965 24.02l-.275.018c-.098-.001-10.126-.054-11.5 6.717l.336.064c2.46.47 3.491 1.912 4.245 2.966.541.76.757 1.028 1.311 1.134.549.105.852-.064 1.644-.568.063-.04.133-.082.196-.125 2.118-3.936 4.438-7.801 5.898-10.173-.694-.089-1.353-.109-1.855-.033"/></svg>