<svg xmlns="http://www.w3.org/2000/svg" viewBox="0 0 64 64"><path fill="#d6eef0" d="M0 0h64v64H0z"/><circle fill="#ffe62e" cx="52" cy="12" r="7"/><g fill="#fff"><path d="M22 7a2 2 0 0 1-2 2H10a2 2 0 0 1 0-4h10a2 2 0 0 1 2 2"/><path d="M26 9a2 2 0 0 1-2 2h-4a2 2 0 0 1 0-4h4a2 2 0 0 1 2 2M40 12a2 2 0 0 1-2 2h-4a2 2 0 0 1 0-4h4a2 2 0 0 1 2 2M19 19a2 2 0 0 1-2 2h-4a2 2 0 0 1 0-4h4a2 2 0 0 1 2 2"/></g><path fill="#42ade2" d="M0 32h64v32H0z"/><path fill="#428bc1" d="M55 51.238C53.782 57.482 45.809 58 32 58c-13.808 0-21.782-.518-23-6.762C7.688 44.512 18.192 40 32 40c13.809 0 24.312 4.513 23 11.238z"/><path fill="#ffdd7d" d="M53 50.31c-1.433 5.134-9.403 4.693-21 4.693-11.598 0-19.567.441-21-4.693-1.636-5.862 9.402-12.307 21-12.307 11.597 0 22.636 6.445 21 12.307"/><path fill="#83bf4f" d="M42 47.06c0 2.01-3.19.285-5 1.031-1.81.747-2.237 2.063-5 2.063-2.729 0-3.195-1.331-5-2.063-1.847-.749-5 .902-5-1.031 0-2.278 4.479-6.906 10-6.906 5.525-.001 10 4.627 10 6.906"/><path fill="#75a843" d="M38 45c0 1.104-2.133 1-6 1-3.866 0-6 .104-6-1s2.134-3 6-3c3.867 0 6 1.896 6 3"/><path fill="#dbb471" d="M30.5 44.21s-2-10.277 6.248-19.408l1.752.893s-5 3.191-5 18.516c0-.001-1.5 1.288-3-.001"/><path fill="#699635" d="M41.13 23.505a5.365 5.365 0 0 0-2.674.688c.3-.844.39-1.789.214-2.754-.502-2.769-2.99-4.637-5.559-4.17a4.326 4.326 0 0 0-.908.266c2.118.131 4.072 2.161 4.573 4.934.302 1.65.103 3.299-.576 4.492 1.057-.877 2.568-1.422 4.245-1.414 2.819.014 5.156 1.585 5.653 3.65.065-.303.103-.617.104-.94.013-2.611-2.256-4.739-5.072-4.752"/><path fill="#83bf4f" d="M33.35 22.21c.247.088.485.193.709.313a5.99 5.99 0 0 0-.187-.159c-2.611-2.197-6-2.576-8.07-1.054.175-.334.386-.653.639-.953 2.031-2.427 5.794-2.614 8.401-.421 1.947 1.636 2.7 4.133 2.119 6.304 2.024-.935 4.597-.619 6.531 1.01 2.611 2.192 3.076 5.938 1.047 8.363a5.397 5.397 0 0 1-.828.795c1.136-2.311.176-5.589-2.438-7.785a9.133 9.133 0 0 0-.189-.155 5.6 5.6 0 0 1 .434.646c1.35 2.37.667 5.311-1.531 6.566-.27.155-.551.277-.84.368 1.495-1.419 1.831-4.239.324-6.52-1.396-2.12-3.669-1.642-3.669-1.642s-.001-2.619-2.501-3.704c-2.74-1.189-5.216-.149-6.353 1.568.039-.3.112-.598.217-.892.853-2.383 3.624-3.569 6.19-2.647"/><g fill="#89664c"><path d="M29.979 40s-.215 2 2.02 2c1.575 0 1.974-2 1.974-2h-3.995M30.554 36s-.524 1.678 1.683 1.98c1.558.214 2.264-1.439 2.264-1.439L30.554 36M31.555 32s-.525 1.678 1.683 1.98c1.558.214 2.263-1.439 2.263-1.439L31.555 32M33.2 28s-.935 1.323 1.188 1.916c1.5.418 2.606-.857 2.606-.857L33.2 28"/></g></svg>