<svg xmlns="http://www.w3.org/2000/svg" viewBox="0 0 64 64"><path fill="#44618b" d="M62 40c0 5.523-4.477 10-10 10H12C6.477 50 2 45.523 2 40V10C2 4.477 6.477 0 12 0h40c5.523 0 10 4.477 10 10v30z"/><path fill="#cad5dd" d="M49.679 26.27a2.662 2.662 0 0 1-2.665 2.662H9.229a2.662 2.662 0 0 1-2.663-2.662V8.17a2.662 2.662 0 0 1 2.663-2.662h37.785a2.662 2.662 0 0 1 2.665 2.662v18.1"/><path fill="#fff" d="M49.679 28.05a2.662 2.662 0 0 1-2.665 2.662H9.229a2.662 2.662 0 0 1-2.663-2.662V9.95a2.662 2.662 0 0 1 2.663-2.664h37.785a2.663 2.663 0 0 1 2.665 2.664v18.1"/><g fill="#333"><path d="M20.391 26.22h1.954l-4.04-14.447H16.27L12.23 26.22h1.955l1.311-4.691h3.582l1.313 4.691m-4.39-6.496l1.286-4.604 1.286 4.604h-2.572M20.898 11.771v1.807h4.112V26.22h1.89V13.578h4.11v-1.807zM34.26 26.22V16.07l2.719 10.15h2.514l2.717-10.15v10.15h1.8V11.771h-2.519L38.24 23.934l-3.259-12.163h-2.524V26.22z"/></g><g fill="#2b4666"><path d="M55.25 34.436a2 2 0 0 1 2-2H62v7h-4.75a2 2 0 0 1-2-2v-3M55.25 24a2 2 0 0 1 2-2H62v7h-4.75a2 2 0 0 1-2-2v-3M55.25 13.564a2 2 0 0 1 2-2H62v7h-4.75a2 2 0 0 1-2-2v-3"/></g><g fill="#42ade2"><path d="M55.25 33.436a2 2 0 0 1 2-2H62v7h-4.75a2 2 0 0 1-2-2v-3M55.25 22.998a2 2 0 0 1 2-2H62v7h-4.75a2 2 0 0 1-2-2v-3M55.25 12.563a2 2 0 0 1 2-2H62v7h-4.75a2 2 0 0 1-2-2v-3"/></g><path fill="#333" d="M40.993 37.24a2.491 2.491 0 0 1-2.492 2.492H8.988a2.491 2.491 0 0 1-2.492-2.492v-.934a2.491 2.491 0 0 1 2.492-2.492h29.513a2.491 2.491 0 0 1 2.492 2.492v.934"/><path fill="#83bf4f" d="M38.578 36l6.912 28.07H2L8.911 36z"/><path fill="#699635" d="M37.01 36l5.696 25.889H4.782L10.482 36z"/><path fill="#83bf4f" d="M35.96 36l4.964 24.48H6.564L11.528 36z"/><path fill="#699635" d="M22.24 40.664l-.267 11.484c-.029 1.268-1.279 2.326-2.79 2.326-1.512 0-2.64-1.059-2.521-2.326l1.064-11.484c.083-.885 1.133-1.584 2.349-1.584l.115-2c-2.747 0-5.19 1.555-5.473 3.584l-.56 4.03h-3.195l-.471 2.539h3.313l-.685 4.914c-.418 3.02 2.194 5.646 5.87 5.646 3.675 0 6.593-2.625 6.522-5.646l-.266-11.484c-.021-.885.948-1.584 2.164-1.584s2.267.699 2.349 1.584l1.064 11.484h.001c.117 1.268-1.01 2.326-2.522 2.326l.192 3.32c3.676 0 6.288-2.625 5.869-5.646l-.684-4.914h3.313l-.47-2.539h-3.192l-.56-4.03c-.282-2.029-2.726-3.584-5.473-3.584s-5.01 1.555-5.056 3.584"/></svg>