<svg xmlns="http://www.w3.org/2000/svg" viewBox="0 0 64 64"><path fill="#b2c1c0" d="M33 11.834c0 .549-.45 1-1 1s-1-.451-1-1V1c0-.55.45-1 1-1s1 .45 1 1v10.834"/><path fill="#e5dec1" d="M4 28h56v32H4z"/><path fill="#d33b23" d="M60.52 19.789C60.018 18.805 58.686 18 57.561 18H6.441c-1.125 0-2.457.805-2.96 1.789L.198 26.211C-.306 27.195.202 28 1.327 28h61.35c1.125 0 1.633-.805 1.13-1.789l-3.284-6.422"/><g fill="#d6eef0"><path d="M15 45c0 .55-.45 1-1 1H8c-.55 0-1-.45-1-1v-4c0-.55.45-1 1-1h6c.55 0 1 .45 1 1v4M15 35c0 .55-.45 1-1 1H8c-.55 0-1-.45-1-1v-4c0-.55.45-1 1-1h6c.55 0 1 .45 1 1v4"/></g><g fill="#dbb471"><path d="M14 36.5H8c-.827 0-1.5-.673-1.5-1.5v-4c0-.827.673-1.5 1.5-1.5h6c.827 0 1.5.673 1.5 1.5v4c0 .827-.673 1.5-1.5 1.5m-6-6c-.275 0-.5.225-.5.5v4c0 .275.225.5.5.5h6c.275 0 .5-.225.5-.5v-4c0-.275-.225-.5-.5-.5H8"/><path d="M10.5 30h1v6h-1zM14 47H8c-.827 0-1.5-.673-1.5-1.5v-4c0-.827.673-1.5 1.5-1.5h6c.827 0 1.5.673 1.5 1.5v4c0 .827-.673 1.5-1.5 1.5m-6-6c-.275 0-.5.225-.5.5v4c0 .275.225.5.5.5h6c.275 0 .5-.225.5-.5v-4c0-.275-.225-.5-.5-.5H8"/><path d="M10.5 40.5h1v6h-1z"/></g><path fill="#d6eef0" d="M15 55c0 .55-.45 1-1 1H8c-.55 0-1-.45-1-1v-4c0-.55.45-1 1-1h6c.55 0 1 .45 1 1v4"/><g fill="#dbb471"><path d="M14 57H8c-.827 0-1.5-.673-1.5-1.5v-4c0-.827.673-1.5 1.5-1.5h6c.827 0 1.5.673 1.5 1.5v4c0 .827-.673 1.5-1.5 1.5m-6-6c-.275 0-.5.225-.5.5v4c0 .275.225.5.5.5h6c.275 0 .5-.225.5-.5v-4c0-.275-.225-.5-.5-.5H8"/><path d="M10.5 50.5h1v6h-1z"/></g><g fill="#d6eef0"><path d="M57 45c0 .55-.45 1-1 1h-6c-.55 0-1-.45-1-1v-4c0-.55.45-1 1-1h6c.55 0 1 .45 1 1v4M57 35c0 .55-.45 1-1 1h-6c-.55 0-1-.45-1-1v-4c0-.55.45-1 1-1h6c.55 0 1 .45 1 1v4"/></g><g fill="#dbb471"><path d="M56 36.5h-6c-.827 0-1.5-.673-1.5-1.5v-4c0-.827.673-1.5 1.5-1.5h6c.827 0 1.5.673 1.5 1.5v4c0 .827-.673 1.5-1.5 1.5m-6-6c-.275 0-.5.225-.5.5v4c0 .275.225.5.5.5h6c.275 0 .5-.225.5-.5v-4c0-.275-.225-.5-.5-.5h-6"/><path d="M52.5 30h1v6h-1zM56 47h-6c-.827 0-1.5-.673-1.5-1.5v-4c0-.827.673-1.5 1.5-1.5h6c.827 0 1.5.673 1.5 1.5v4c0 .827-.673 1.5-1.5 1.5m-6-6c-.275 0-.5.225-.5.5v4c0 .275.225.5.5.5h6c.275 0 .5-.225.5-.5v-4c0-.275-.225-.5-.5-.5h-6"/><path d="M52.5 40.5h1v6h-1z"/></g><path fill="#d6eef0" d="M57 55c0 .55-.45 1-1 1h-6c-.55 0-1-.45-1-1v-4c0-.55.45-1 1-1h6c.55 0 1 .45 1 1v4"/><g fill="#dbb471"><path d="M56 57h-6c-.827 0-1.5-.673-1.5-1.5v-4c0-.827.673-1.5 1.5-1.5h6c.827 0 1.5.673 1.5 1.5v4c0 .827-.673 1.5-1.5 1.5m-6-6c-.275 0-.5.225-.5.5v4c0 .275.225.5.5.5h6c.275 0 .5-.225.5-.5v-4c0-.275-.225-.5-.5-.5h-6"/><path d="M52.5 50.5h1v6h-1z"/></g><path fill="#f15744" d="M32.777 11.629c-.428-.346-1.127-.346-1.555 0L11.777 27.371c-.427.346-.327.629.223.629h40c.55 0 .65-.283.223-.629L32.777 11.629"/><path fill="#f9f3d9" d="M48.23 27.364L32.772 14.636c-.424-.35-1.119-.35-1.543 0L15.772 27.364c-.423.35-.321.636.229.636h2v32h28V28h2c.55 0 .652-.286.229-.636"/><path fill="#e5dec1" d="M24 45h16v15H24z"/><path fill="#42ade2" d="M26 45h12v15H26z"/><g fill="#89664c"><path d="M20.2 38.03c.266.121.674.241 1.094.241.454 0 .693-.166.693-.419 0-.241-.207-.38-.731-.546-.726-.225-1.198-.581-1.198-1.144 0-.661.621-1.167 1.651-1.167.493 0 .854.092 1.114.195l-.221.707a2.278 2.278 0 0 0-.912-.184c-.429 0-.636.172-.636.373 0 .247.247.356.81.546.771.253 1.134.609 1.134 1.155 0 .649-.563 1.201-1.762 1.201-.499 0-.991-.115-1.237-.235l.201-.723M26.873 38.827c-.182.081-.59.167-1.121.167-1.51 0-2.287-.833-2.287-1.937 0-1.322 1.063-2.058 2.385-2.058.512 0 .9.092 1.074.173l-.201.695a2.353 2.353 0 0 0-.828-.144c-.783 0-1.393.419-1.393 1.281 0 .775.518 1.265 1.398 1.265.299 0 .629-.058.822-.127l.151.685M28.512 35.06v1.488h1.626V35.06h.984v3.873h-.984v-1.621h-1.626v1.621h-.991V35.06h.991M35.979 36.96c0 1.27-.867 2.04-2.144 2.04-1.295 0-2.053-.868-2.053-1.972 0-1.16.836-2.028 2.124-2.028 1.342 0 2.073.891 2.073 1.96m-3.153.052c0 .758.401 1.293 1.063 1.293.666 0 1.049-.563 1.049-1.316 0-.695-.376-1.293-1.057-1.293-.666-.001-1.055.563-1.055 1.316M40.625 36.96c0 1.27-.867 2.04-2.145 2.04-1.295 0-2.053-.868-2.053-1.972 0-1.16.836-2.028 2.125-2.028 1.341 0 2.073.891 2.073 1.96m-3.154.052c0 .758.401 1.293 1.063 1.293.667 0 1.049-.563 1.049-1.316 0-.695-.375-1.293-1.056-1.293-.668-.001-1.056.563-1.056 1.316M41.27 35.06h.99v3.138h1.737v.735H41.27V35.06"/></g><circle fill="#dbb471" cx="32" cy="26" r="7"/><circle fill="#fff" cx="32" cy="26" r="5"/><path fill="#e5dec1" d="M31.5 45h1v15h-1z"/><path fill="#b2c1c0" d="M32 22c-.55 0-1 .45-1 1v4c0 .55.45 1 1 1s1-.45 1-1v-4c0-.55-.45-1-1-1"/><path fill="#f15744" d="M32 26h-2c-.55 0-1 .45-1 1s.45 1 1 1h2c.55 0 1-.45 1-1s-.45-1-1-1"/><path fill="#b4d7ee" d="M33 2v7.366c4 3.192 8-6.876 12-3.683C41 .036 37 7.646 33 2z"/><path fill="#f15744" d="M32.947 40.29a1.692 1.692 0 0 0-1.895 0c-2.179 1.552-9.05 5.704-9.05 5.704v2.01h20v-2.01s-6.873-4.152-9.05-5.704"/><path fill="#666" d="M63 60H1c-.55 0-1 .45-1 1v2c0 .55.45 1 1 1h62c.55 0 1-.45 1-1v-2c0-.55-.45-1-1-1"/><path fill="#e8e8e8" d="M20 62h24v2H20z"/><path fill="#d0d0d0" d="M22 60h20v2H22z"/><g fill="#666"><path d="M29.06 53.5h1.438v.726H29.06zM33.5 53.5h1.438v.726H33.5z"/></g></svg>