<svg xmlns="http://www.w3.org/2000/svg" viewBox="0 0 64 64"><path fill="#3e4347" d="M25.672 3.147h28.524v50.39H25.672z"/><path fill="#dae3ea" d="M14.688 0h33.574v4.197H14.688z"/><path fill="#3e4347" d="M1.902 3.147h9.508v50.39H1.902z"/><path fill="#b2c1c0" d="M25.672 53.54h33.28v10.459h-33.28z"/><g fill="#b4d7ee"><path d="M30.426 53.54h4.754v10.459h-4.754zM39.935 53.54h4.754v10.459h-4.754zM49.44 53.54h4.754v10.459H49.44zM49.44 43.08h9.509v4.754H49.44zM49.44 32.623h9.509v4.754H49.44zM49.44 22.16h9.509v4.754H49.44zM49.44 11.705h9.509v4.754H49.44zM39.935 43.08h4.754v4.754h-4.754zM39.935 32.623h4.754v4.754h-4.754zM39.935 22.16h4.754v4.754h-4.754zM39.935 11.705h4.754v4.754h-4.754zM30.426 43.08h4.754v4.754h-4.754zM30.426 32.623h4.754v4.754h-4.754zM30.426 22.16h4.754v4.754h-4.754zM30.426 11.705h4.754v4.754h-4.754z"/></g><g fill="#3e4347"><path d="M25.672 47.836h35.18v5.705h-35.18zM25.672 37.38h35.18v5.705h-35.18zM25.672 26.918h35.18v5.705h-35.18zM25.672 16.459h35.18v5.705h-35.18zM25.672 3.147h35.18v8.558h-35.18z"/></g><g fill="#b4d7ee"><path d="M11.41 5.05h14.263v48.49H11.41zM1.902 53.54h23.771v10.459H1.902z"/></g><path fill="#dae3ea" d="M0 50.688h25.672v2.853H0z"/><g fill="#d6eef0"><path d="M11.41 38.804h14.263v2.852H11.41zM11.41 28.344h14.263v2.853H11.41zM11.41 17.885h14.263v2.853H11.41zM11.41 7.426h14.263v2.853H11.41z"/></g><path fill="#f5f5f5" d="M11.41 4.098h14.263v.951H11.41z"/><g fill="#3e4347"><path opacity=".5" d="M11.41 4.098h.951v46.59h-.951z"/><g opacity=".5"><path d="M49.44 11.705v4.754h.95v-3.803h8.561v-.951zM39.935 12.656v3.803h.95v-3.803h3.803v-.951h-4.753zM30.426 12.656v3.803h.951v-3.803h3.803v-.951h-4.754z"/></g><g opacity=".5"><path d="M49.44 22.16v4.758h.95V23.11h8.561v-.95zM39.935 23.11v3.808h.95V23.11h3.803v-.95h-4.753zM30.426 23.11v3.808h.951V23.11h3.803v-.95h-4.754z"/></g><g opacity=".5"><path d="M49.44 32.623v4.757h.95v-3.806h8.561v-.951zM39.935 33.574v3.806h.95v-3.806h3.803v-.951h-4.753zM30.426 33.574v3.806h.951v-3.806h3.803v-.951h-4.754z"/></g><g opacity=".5"><path d="M49.44 43.08v4.756h.95V44.03h8.561v-.95zM39.935 44.03v3.806h.95V44.03h3.803v-.95h-4.753zM30.426 44.03v3.806h.951V44.03h3.803v-.95h-4.754z"/></g></g><path fill="#b2c1c0" d="M1.902 53.54h1.901v10.459H1.902z"/><g fill="#f5f5f5"><path d="M11.636 54.49h.951v9.508h-.951z"/><path d="M11.636 54.49h8.559v.95h-8.559zM11.636 63.05h8.559v.951h-8.559z"/><path d="M15.439 54.49h.951v9.508h-.951zM19.244 54.49h.951v9.508h-.951z"/></g><path opacity=".5" fill="#3e4347" d="M1.902 53.54v.95h1.901V64h.951v-9.51h25.672V64h.951v-9.51h8.558V64h.95v-9.51h8.555V64h.95v-9.51h8.561v-.95z"/><path fill="#83bf4f" d="M26.23 61.901h37.771v1.05H26.23z"/><path fill="#dae3ea" d="M25.18 62.951H64V64H25.18z"/><path fill="#83bf4f" d="M62.903 59.52c.216-.365.35-.786.35-1.246a2.432 2.432 0 0 0-2.423-2.438c-.051 0-.104.016-.154.021v-.302c0-.688-.558-1.248-1.241-1.248-.302 0-.576.115-.789.294a1.871 1.871 0 0 0-1.83-1.538 1.865 1.865 0 0 0-1.811 2.284 1.828 1.828 0 0 0-1.155-.412c-.743 0-1.376.44-1.678 1.074a2.528 2.528 0 0 0-.8-.142 2.484 2.484 0 0 0-1.96 4c-.32.342-.519.793-.519 1.299 0 1.027.83 1.868 1.861 1.868h9.795c.364.284.804.487 1.307.487 1.184 0 2.146-.97 2.146-2.163-.002-.792-.457-1.464-1.099-1.838"/><g fill="#699635"><path d="M48.892 61.17c0-.506.198-.957.519-1.299a2.484 2.484 0 0 1 1.96-4c.28 0 .548.058.8.142.191-.404.517-.728.924-.911.648.29 1.106.943 1.106 1.703 0 .183-.034.357-.084.525.167-.082.351-.135.553-.135.682 0 1.239.56 1.239 1.249 0 .472-.269.879-.654 1.085a2.174 2.174 0 0 1-1.676 3.506v.003h-2.826a1.865 1.865 0 0 1-1.861-1.868"/><path d="M53.01 61.44c0 .691.558-.268 1.243-.268.69 0 1.235.959 1.235.268 0-.684-.545-1.246-1.235-1.246a1.247 1.247 0 0 0-1.243 1.246M56.651 59.26c0 .346.273 0 .616 0 .351 0 .624.346.624 0a.618.618 0 0 0-.624-.619.617.617 0 0 0-.616.619M61.23 61.6c0 .352.281 0 .626 0 .339 0 .616.352.616 0a.621.621 0 0 0-.616-.622.626.626 0 0 0-.626.622"/></g><g fill="#83bf4f"><path d="M58.56 57.58c0 .345.272-.108.617-.108.339 0 .624.453.624.108a.626.626 0 0 0-.624-.628.617.617 0 0 0-.617.628M60.664 59.38c0 .346.273-.102.622-.102.343 0 .615.447.615.102a.618.618 0 1 0-1.237 0M52.708 60.55c0 .465.373-.228.842-.228.462 0 .833.692.833.228a.84.84 0 0 0-.833-.848.843.843 0 0 0-.842.848M50.3 58.21c0 .697.559-.396 1.245-.396.693 0 1.248 1.093 1.248.396 0-.69-.555-1.251-1.248-1.251-.687 0-1.245.561-1.245 1.251M50.26 61.17c0 .345.274 0 .617 0 .349 0 .622.345.622 0a.618.618 0 0 0-.622-.625.618.618 0 0 0-.617.625M55.81 56.19c0 .464.373-.234.836-.234.47 0 .841.698.841.234a.838.838 0 1 0-1.677 0"/></g><path fill="#699635" d="M58.13 61.743c0 .464.373-.235.836-.235.47 0 .842.699.842.235a.838.838 0 1 0-1.678 0"/></svg>