<svg xmlns="http://www.w3.org/2000/svg" viewBox="0 0 64 64"><path fill="#b2c1c0" d="M63 60H1c-.55 0-1 .45-1 1v2c0 .55.45 1 1 1h62c.55 0 1-.45 1-1v-2c0-.55-.45-1-1-1"/><path fill="#e8e8e8" d="M51 28H13c-3.3 0-6 2.7-6 6v26h50V34c0-3.3-2.7-6-6-6"/><path fill="#ffe62e" d="M33 0H13C9.7 0 7 2.7 7 6v18h32V6c0-3.3-2.7-6-6-6"/><g fill="#b2c1c0"><path d="M29 24h4v4h-4zM13 24h4v4h-4z"/></g><path fill="#ff717f" d="M51 30H13c-2.2 0-4 1.8-4 4v8h46v-8c0-2.2-1.8-4-4-4"/><path fill="#ffe62e" d="M9 34h46v4H9z"/><path fill="#ff717f" d="M33 0H13C9.7 0 7 2.7 7 6v18h32V6c0-3.3-2.7-6-6-6m4 22H9V6c0-2.205 1.794-4 4-4h20c2.205 0 4 1.795 4 4v16"/><path fill="#62727a" d="M24 42h16v18H24z"/><path fill="#d6eef0" d="M26 44h12v16H26z"/><g fill="#62727a"><path d="M31 44h2v16h-2zM9 45h15v2H9zM40 45h15v2H40z"/></g><g fill="#d6eef0"><path d="M9 47h15v10H9zM40 47h15v10H40z"/></g><g fill="#62727a"><path d="M9 55h15v2H9zM40 55h15v2H40z"/><path d="M9 45h2v12H9zM53 45h2v12h-2z"/></g><g fill="#ff717f"><path d="M30.666 4v6.4h-3.332V4H24v9.6h6.666V20H34V4zM18.666 13.601c.852 0 1.706-.313 2.357-.938A3.128 3.128 0 0 0 22 10.399V7.201a3.13 3.13 0 0 0-.977-2.264A3.394 3.394 0 0 0 18.668 4H12v3.201h6.668v3.198h-3.336a3.4 3.4 0 0 0-2.359.938A3.11 3.11 0 0 0 12 13.602V20h10v-3.201h-6.668v-3.198h3.334"/></g><path fill="#e8e8e8" d="M40 64H24l2-4h12z"/></svg>