<svg xmlns="http://www.w3.org/2000/svg" viewBox="0 0 64 64"><path fill="#c94747" d="M39.02 38l14.769 4.08H42.54L27.03 38z"/><path fill="#f9f3d9" d="M5.05 22h21.982v38H5.05z"/><path fill="#dbb471" d="M27.03 22h11.989v16H27.03z"/><path fill="#ed4c5c" d="M21.04 8L1.052 22H27.03z"/><path fill="#d0d0d0" d="M29.03 10h2.997v8H29.03z"/><path fill="#94989b" d="M32.02 10h1.998v9H32.02z"/><path fill="#c94747" d="M21.04 8l21.98 14H27.03z"/><path fill="#d0d0d0" d="M28.03 8h4.996v2H28.03z"/><path fill="#94989b" d="M33.02 8h1.999v2H33.02z"/><path fill="#d6eef0" d="M12.841 27.8h6.395v6.4h-6.395z"/><path fill="#89664c" d="M12.04 27v8h7.992v-8H12.04m7.192.8v2.8h-2.798v-2.8h2.798m-3.597 0v2.8h-2.797v-2.8h2.797m-2.797 6.4v-2.8h2.797v2.8h-2.797m3.597 0v-2.8h2.798v2.8h-2.798"/><path fill="#d6eef0" d="M30.625 27.4h4.797v7.199h-4.797z"/><g fill="#89664c"><path d="M30.23 27v8h5.596v-8H30.23m.8.8h1.597v2.8H31.03v-2.8m0 6.4v-2.8h1.597v2.8H31.03m3.997 0h-1.6v-2.8h1.6v2.8m0-3.6h-1.6v-2.8h1.6v2.8M13.695 49.06h6.245v10.938h-6.245z"/><path d="M19.16 47.5h1.562v1.563H19.16z"/></g><path fill="#594640" d="M12.135 49.06h1.561v10.938h-1.561z"/><path fill="#dbb471" d="M11.355 47.5h7.806v1.563h-7.806z"/><circle fill="#f9f3d9" cx="18.575" cy="53.75" r=".586"/><path fill="#83bf4f" d="M.052 60h51.957v4H.052z"/><path fill="#dbb471" d="M39.881 42.08H49.2v17.917h-9.319z"/><path fill="#f9f3d9" d="M27.03 42.08h12.851v17.917H27.03z"/><path fill="#ed4c5c" d="M27.03 38H5.05L0 42.08h42.54z"/><path fill="#d6eef0" d="M28.26 47.841h6.395v6.4H28.26z"/><path fill="#89664c" d="M27.459 47.04v8h7.992v-8h-7.992m7.193.799v2.801h-2.799v-2.801h2.799m-3.597 0v2.801h-2.797v-2.801h2.797m-2.797 6.4V51.44h2.797v2.799h-2.797m3.596 0V51.44h2.799v2.799h-2.799"/><path fill="#d6eef0" d="M42.14 47.44h4.797v7.199H42.14z"/><path fill="#89664c" d="M41.742 47.04v8h5.596v-8h-5.596m.801.799h1.598v2.801h-1.598v-2.801m0 6.4V51.44h1.598v2.799h-1.598m3.998 0h-1.6V51.44h1.6v2.799m0-3.599h-1.6v-2.801h1.6v2.801"/><path fill="#699635" d="M51.9 60h11.99v4H51.9z"/><path fill="#d3976e" d="M52.24 34h3.997v26H52.24z"/><path fill="#89664c" d="M56.24 34h-1.487c.014.172.029.339.029.543 0 2.28-.76 2.28-.76 4.561 0 2.275.76 2.275.76 4.55 0 2.276-.76 2.276-.76 4.551 0 2.273.76 2.273.76 4.55 0 2.271-.76 2.271-.76 4.544 0 1.427.207 1.952.421 2.702h1.797v-26"/><path fill="#83bf4f" d="M53.17 2.89c-1.903 2.728-4.237-2.17-7.247 2.043s-1.449 7.853-.522 10.603c1.844 5.465-1.851 7.235.572 11.812 2.423 4.575-1.058 6.78 3.505 9.33s2.311-2.933 6.99.317c4.681 3.25 5.336-2.247 4.825-4.186-.976-3.707 1.716-4.611 2.456-7.697 1.315-5.488-3.06-8.482-1.707-13.721 1.354-5.239-3.111-16.752-8.872-8.501"/><path fill="#699635" d="M62.04 11.391C63.058 7.462 60.797.002 57.175 0c.002.002 2.438 3.16-.999 7.15-3.439 3.99 2.938 5.986 0 9.729-2.939 3.742 2.71 7.348.527 10.228-2.74 3.616-7 3.083-4.466 9.978.012.029.024.052.034.08 1.032-.629 1.075-2.336 4.194-.17 4.681 3.25 5.336-2.248 4.825-4.186-.976-3.707 1.716-4.611 2.456-7.697 1.316-5.489-3.059-8.483-1.706-13.721"/><g fill="#83bf4f"><path d="M57.827 11.161c-.747 0 .365-.606.365-1.354s-1.112-1.354-.365-1.354a1.354 1.354 0 1 1 0 2.708M59.56 23.26c-1.111 0 .633-.9.633-2.01s-1.744-2.01-.633-2.01a2.01 2.01 0 0 1 0 4.02M57.811 33.5c-.83 0 0-.671 0-1.5s-.83-1.5 0-1.5a1.5 1.5 0 0 1 0 3M49.34 12.1c.826 0-.25.671-.25 1.5s1.076 1.5.25 1.5a1.5 1.5 0 0 1 0-3M52.56 6.421c1.119 0-.546.909-.546 2.031s1.665 2.031.546 2.031a2.031 2.031 0 1 1 0-4.062"/></g><g fill="#699635"><path d="M51.663 21.637c1.657 0-.653 1.344-.653 3s2.311 3 .653 3a3 3 0 0 1 0-6M52.598 16.13c.827 0 0 .671 0 1.5s.827 1.5 0 1.5a1.5 1.5 0 1 1 0-3"/></g><path fill="#83bf4f" d="M58.14 57.01h.39v2.989h-.39z"/><path fill="#c94747" d="M57.17 53.891v2.34c0 .431.35.78.781.78h.778V55.45c.001-1.137-1.559-1.559-1.559-1.559"/><path fill="#ed4c5c" d="M59.51 53.891v2.34a.78.78 0 0 1-.78.78h-.778V55.45c-.001-1.137 1.558-1.559 1.558-1.559"/><path fill="#83bf4f" d="M62.53 54.67h.389V60h-.389z"/><path fill="#c94747" d="M61.55 51.55v2.341c0 .431.35.779.78.779h.779v-1.56c0-1.137-1.559-1.56-1.559-1.56"/><path fill="#ed4c5c" d="M63.891 51.55v2.341a.779.779 0 0 1-.779.779h-.779v-1.56c-.001-1.137 1.558-1.56 1.558-1.56"/><path fill="#f2b200" d="M58.74 50.25v2.34c0 .432.347.78.777.78h.779v-1.56c.001-1.137-1.556-1.56-1.556-1.56"/><path fill="#ffce31" d="M61.08 50.25v2.34a.78.78 0 0 1-.78.78h-.779v-1.56c0-1.137 1.559-1.56 1.559-1.56"/><path fill="#83bf4f" d="M59.714 53.37h.389V60h-.389z"/><path fill="#f2b200" d="M55.46 51.42v2.34c0 .432.351.78.78.78h.778v-1.56c.001-1.137-1.558-1.56-1.558-1.56"/><path fill="#ffce31" d="M57.798 51.42v2.34c0 .432-.348.78-.78.78h-.778v-1.56c-.001-1.137 1.558-1.56 1.558-1.56"/><g fill="#83bf4f"><path d="M56.44 54.54h.389V60h-.389zM49.01 57.01h.389v2.989h-.389z"/></g><path fill="#c94747" d="M48.03 53.891v2.34c0 .431.35.78.781.78h.778V55.45c.001-1.137-1.559-1.559-1.559-1.559"/><path fill="#ed4c5c" d="M50.37 53.891v2.34a.78.78 0 0 1-.779.78h-.778V55.45c0-1.137 1.557-1.559 1.557-1.559"/><path fill="#83bf4f" d="M53.39 54.67h.389V60h-.389z"/><path fill="#c94747" d="M52.42 51.55v2.341c0 .431.35.779.781.779h.777v-1.56c.001-1.137-1.558-1.56-1.558-1.56"/><path fill="#ed4c5c" d="M54.756 51.55v2.341a.78.78 0 0 1-.781.779h-.777v-1.56c-.001-1.137 1.558-1.56 1.558-1.56"/><path fill="#f2b200" d="M49.604 50.25v2.34c0 .432.35.78.779.78h.779v-1.56c0-1.137-1.558-1.56-1.558-1.56"/><path fill="#ffce31" d="M51.942 50.25v2.34a.78.78 0 0 1-.78.78h-.779v-1.56c0-1.137 1.559-1.56 1.559-1.56"/><path fill="#83bf4f" d="M50.578 53.37h.389V60h-.389z"/><path fill="#c94747" d="M46.33 51.42v2.34c0 .432.347.78.778.78h.779v-1.56c.001-1.137-1.557-1.56-1.557-1.56"/><path fill="#ed4c5c" d="M48.662 51.42v2.34c0 .432-.349.78-.779.78h-.779v-1.56c0-1.137 1.558-1.56 1.558-1.56"/><path fill="#83bf4f" d="M47.3 54.54h.39V60h-.39z"/></svg>