<svg xmlns="http://www.w3.org/2000/svg" viewBox="0 0 64 64"><path fill="#62727a" d="M63 60H1c-.551 0-1 .45-1 1v2c0 .55.449 1 1 1h62c.549 0 1-.45 1-1v-2c0-.55-.451-1-1-1"/><path fill="#ed4c5c" d="M40 64H24l4-4h8z"/><g fill="#e8e8e8"><path d="M51 36H13c-2.201 0-4 1.8-4 4v20h46V40c0-2.2-1.801-4-4-4M40 22H24c-2.201 0-4 1.8-4 4v10h24V26c0-2.2-1.801-4-4-4"/></g><g fill="#62727a"><path d="M19 44h26v6H19zM21.119 37.579v1.86h1.836v-1.86h1.111v4.842h-1.111v-2.026h-1.836v2.026H20v-4.842h1.119zM30.29 39.95c0 1.587-.98 2.55-2.422 2.55-1.463 0-2.318-1.085-2.318-2.465 0-1.45.943-2.535 2.398-2.535 1.514 0 2.342 1.113 2.342 2.45m-3.562.064c0 .949.453 1.617 1.199 1.617.754 0 1.186-.704 1.186-1.645 0-.87-.422-1.617-1.193-1.617-.755 0-1.192.704-1.192 1.645M32.494 38.498H31.17v-.919h3.789v.919h-1.348v3.923h-1.117v-3.923M39.22 40.37h-1.813v1.149h2.023v.898h-3.146v-4.842h3.045v.898h-1.922v1.01h1.813v.892M40.92 37.579h1.119v3.923H44v.919h-3.08v-4.842z"/></g><g fill="#ffdd7d"><path d="M34 46.528l-1.525-.006L32 45l-.475 1.522-1.525.006 1.23.942-.466 1.53L32 48.06l1.24.94-.472-1.53zM29 46.528l-1.525-.006L27 45l-.475 1.522-1.525.006 1.23.942-.466 1.53L27 48.06l1.24.94-.472-1.53zM39 46.528l-1.525-.006L37 45l-.475 1.522-1.525.006 1.23.942-.466 1.53L37 48.06l1.24.94-.472-1.53zM44 46.528l-1.525-.006L42 45l-.475 1.522-1.525.006 1.23.942-.466 1.53L42 48.06l1.24.94-.472-1.53zM24 46.528l-1.525-.006L22 45l-.475 1.522-1.525.006 1.232.942-.468 1.53L22 48.06l1.24.94-.472-1.53z"/></g><g fill="#b2c1c0"><path d="M21 50h4v10h-4zM39 50h4v10h-4z"/></g><path fill="#42ade2" d="M28 50h8v10h-8z"/><path fill="#e8e8e8" d="M31 50h2v10h-2z"/><g fill="#428bc1"><path d="M28 50h3v2h-3zM33 50h3v2h-3z"/></g><g fill="#b2c1c0"><path d="M31 50h2v2h-2zM33 1c0-.55-.451-1-1-1-.551 0-1 .45-1 1v9c0 .55.449 1 1 1 .549 0 1-.45 1-1V1"/></g><path fill="#e8e8e8" d="M36.29 12.293l-1.586-1.586c-.389-.389-1.158-.707-1.707-.707h-2c-.551 0-1.318.318-1.707.707l-1.586 1.586c-.389.389-.707 1.157-.707 1.707v8h10v-8c0-.55-.318-1.318-.707-1.707"/><g fill="#42ade2"><path d="M16 39h-4c-.551 0-1 .45-1 1v2c0 .55.449 1 1 1h4c.549 0 1-.45 1-1v-2c0-.55-.451-1-1-1M34 24h-4c-.551 0-1 .45-1 1v8c0 .55.449 1 1 1h4c.549 0 1-.45 1-1v-8c0-.55-.451-1-1-1M52 39h-4c-.551 0-1 .45-1 1v2c0 .55.449 1 1 1h4c.549 0 1-.45 1-1v-2c0-.55-.451-1-1-1M16 46h-4c-.551 0-1 .45-1 1v2c0 .55.449 1 1 1h4c.549 0 1-.45 1-1v-2c0-.55-.451-1-1-1M52 46h-4c-.551 0-1 .45-1 1v2c0 .55.449 1 1 1h4c.549 0 1-.45 1-1v-2c0-.55-.451-1-1-1M16 53h-4c-.551 0-1 .45-1 1v2c0 .55.449 1 1 1h4c.549 0 1-.45 1-1v-2c0-.55-.451-1-1-1M52 53h-4c-.551 0-1 .45-1 1v2c0 .55.449 1 1 1h4c.549 0 1-.45 1-1v-2c0-.55-.451-1-1-1M31 15c0-.55-.451-1-1-1-.551 0-1 .45-1 1v4c0 .55.449 1 1 1 .549 0 1-.45 1-1v-4M35 15c0-.55-.451-1-1-1-.551 0-1 .45-1 1v4c0 .55.449 1 1 1 .549 0 1-.45 1-1v-4M23 24c-.551 0-1 .45-1 1v2c0 .55.449 1 1 1h3c.549 0 1-.45 1-1v-2c0-.55-.451-1-1-1h-3M23 30c-.551 0-1 .45-1 1v2c0 .55.449 1 1 1h3c.549 0 1-.45 1-1v-2c0-.55-.451-1-1-1h-3M38 24c-.551 0-1 .45-1 1v2c0 .55.449 1 1 1h3c.549 0 1-.45 1-1v-2c0-.55-.451-1-1-1h-3M38 30c-.551 0-1 .45-1 1v2c0 .55.449 1 1 1h3c.549 0 1-.45 1-1v-2c0-.55-.451-1-1-1h-3"/></g><path fill="#ed4c5c" d="M33 1.442v5.115c2.666 1.533 3.332-1.534 6 0V1.442c-2.668-1.533-3.334 1.535-6 0"/><path fill="#dbb471" d="M9.959 39.545H8.754S7.385 46.896 8.512 60h3.131s-1.684-8.407-1.684-20.455"/><g fill="#83bf4f"><path d="M9.959 38.33S5.617 29.842 0 36.632c0 0 4.34-1.909 9.316 4.02l.643-2.323"/><path d="M8.156 38.696l2.164 1.233c5.313-6.01 9.68-2.126 9.68-2.126-5.234-6.937-11.844.893-11.844.893"/><path d="M9.205 38.69s-7.08.215-5.971 8.984c0 0 .135-6.228 7.219-6.931L9.205 38.69"/><path d="M9.152 38.3v2.506c7.809 1.698 6.602 7.438 6.602 7.438 3.418-8-6.602-9.944-6.602-9.944"/></g><g fill="#89664c"><path d="M8.17 57.16s1.455 2.184 3.371 0H8.17M7.91 53.768s1.457 2.184 3.373 0H7.91zM7.707 50.37s1.248 2.184 2.889 0H7.707M7.707 46.976s1.248 2.184 2.889 0H7.707M7.867 43.58s1.041 2.183 2.408 0H7.867"/></g><path fill="#dbb471" d="M54.04 39.545h1.205s1.367 7.351.24 20.455h-3.131s1.686-8.407 1.686-20.455"/><g fill="#83bf4f"><path d="M54.04 38.33s4.34-8.488 9.959-1.698c0 0-4.34-1.909-9.318 4.02l-.641-2.323"/><path d="M55.844 38.696l-2.166 1.233C48.365 33.919 44 37.804 44 37.804c5.234-6.938 11.844.892 11.844.892"/><path d="M54.795 38.69s7.078.215 5.971 8.984c0 0-.135-6.228-7.221-6.931l1.25-2.053"/><path d="M54.848 38.3v2.506c-7.809 1.698-6.604 7.438-6.604 7.438-3.416-8 6.604-9.944 6.604-9.944"/></g><g fill="#89664c"><path d="M55.828 57.16s-1.455 2.184-3.371 0h3.371M56.09 53.768s-1.455 2.184-3.371 0h3.371M56.29 50.37s-1.248 2.184-2.889 0h2.889M56.29 46.976s-1.248 2.184-2.889 0h2.889M56.13 43.58s-1.039 2.183-2.408 0h2.408"/></g></svg>