<svg xmlns="http://www.w3.org/2000/svg" viewBox="0 0 64 64"><path fill="#e8e8e8" d="M40 18H14c-2.2 0-4 1.8-4 4v38h34V22c0-2.2-1.8-4-4-4"/><g fill="#62727a"><path d="M60 36H26c-1.1 0-2 .899-2 2v22h38V38c0-1.101-.9-2-2-2M7 36c-.55 0-1.25.374-1.555.832l-2.891 4.336C2.25 41.626 2 42.45 2 43v17h8V36H7z"/></g><path fill="#b4d7ee" d="M12 53h10v7H12z"/><path fill="#62727a" d="M63 60H1c-.55 0-1 .451-1 1v2c0 .551.45 1 1 1h62c.55 0 1-.449 1-1v-2c0-.549-.45-1-1-1"/><g fill="#b4d7ee"><path d="M14 34.5c0 .274-.225.5-.5.5h-1a.502.502 0 0 1-.5-.5v-5c0-.274.225-.5.5-.5h1c.275 0 .5.226.5.5v5M18 34.5c0 .274-.225.5-.5.5h-1a.502.502 0 0 1-.5-.5v-5c0-.274.225-.5.5-.5h1c.275 0 .5.226.5.5v5M22 34.5c0 .274-.225.5-.5.5h-1a.502.502 0 0 1-.5-.5v-5c0-.274.225-.5.5-.5h1c.275 0 .5.226.5.5v5M26 34.5c0 .274-.225.5-.5.5h-1a.502.502 0 0 1-.5-.5v-5c0-.274.225-.5.5-.5h1c.275 0 .5.226.5.5v5M30 34.5c0 .274-.225.5-.5.5h-1a.502.502 0 0 1-.5-.5v-5c0-.274.225-.5.5-.5h1c.275 0 .5.226.5.5v5M14 42.5c0 .274-.225.5-.5.5h-1a.502.502 0 0 1-.5-.5v-5c0-.274.225-.5.5-.5h1c.275 0 .5.226.5.5v5M18 42.5c0 .274-.225.5-.5.5h-1a.502.502 0 0 1-.5-.5v-5c0-.274.225-.5.5-.5h1c.275 0 .5.226.5.5v5M22 42.5c0 .274-.225.5-.5.5h-1a.502.502 0 0 1-.5-.5v-5c0-.274.225-.5.5-.5h1c.275 0 .5.226.5.5v5M14 50.5c0 .274-.225.5-.5.5h-1a.502.502 0 0 1-.5-.5v-5c0-.274.225-.5.5-.5h1c.275 0 .5.226.5.5v5M18 50.5c0 .274-.225.5-.5.5h-1a.502.502 0 0 1-.5-.5v-5c0-.274.225-.5.5-.5h1c.275 0 .5.226.5.5v5M22 50.5c0 .274-.225.5-.5.5h-1a.502.502 0 0 1-.5-.5v-5c0-.274.225-.5.5-.5h1c.275 0 .5.226.5.5v5M32 44h30v16H32zM7 46.5c0 .274-.225.5-.5.5h-1a.502.502 0 0 1-.5-.5v-5c0-.274.225-.5.5-.5h1c.275 0 .5.226.5.5v5M7 55.5c0 .275-.225.5-.5.5h-1a.501.501 0 0 1-.5-.5v-5c0-.274.225-.5.5-.5h1c.275 0 .5.226.5.5v5"/></g><g fill="#fff"><path d="M21 53h-9v7h1v-6h3.5v6h1v-6H21v6h1v-7z"/><path d="M17.5 56h-1c-.275 0-.5.227-.5.5v1c0 .275.225.5.5.5h1c.275 0 .5-.225.5-.5v-1c0-.273-.225-.5-.5-.5"/></g><path fill="#b2c1c0" d="M13 60h8v2h-8z"/><path fill="#e8e8e8" d="M13 62h8v2h-8z"/><path fill="#fff" d="M33 44h29v-2H31c-.55 0-1 .45-1 1v17h2v-3c0-.549.45-1 1-1h29v-2H33c-.55 0-1-.449-1-1v-2c0-.55.45-1 1-1h29v-2H33c-.55 0-1-.45-1-1v-2c0-.55.45-1 1-1"/><g fill="#b4d7ee"><path d="M14 26.5c0 .274-.225.5-.5.5h-1a.502.502 0 0 1-.5-.5v-5c0-.274.225-.5.5-.5h1c.275 0 .5.226.5.5v5M18 26.5c0 .274-.225.5-.5.5h-1a.502.502 0 0 1-.5-.5v-5c0-.274.225-.5.5-.5h1c.275 0 .5.226.5.5v5M22 26.5c0 .274-.225.5-.5.5h-1a.502.502 0 0 1-.5-.5v-5c0-.274.225-.5.5-.5h1c.275 0 .5.226.5.5v5M26 26.5c0 .274-.225.5-.5.5h-1a.502.502 0 0 1-.5-.5v-5c0-.274.225-.5.5-.5h1c.275 0 .5.226.5.5v5M30 26.5c0 .274-.225.5-.5.5h-1a.502.502 0 0 1-.5-.5v-5c0-.274.225-.5.5-.5h1c.275 0 .5.226.5.5v5M34 34.5c0 .274-.225.5-.5.5h-1a.502.502 0 0 1-.5-.5v-5c0-.274.225-.5.5-.5h1c.275 0 .5.226.5.5v5M34 26.5c0 .274-.225.5-.5.5h-1a.502.502 0 0 1-.5-.5v-5c0-.274.225-.5.5-.5h1c.275 0 .5.226.5.5v5M38 34.5c0 .274-.225.5-.5.5h-1a.502.502 0 0 1-.5-.5v-5c0-.274.225-.5.5-.5h1c.275 0 .5.226.5.5v5M38 26.5c0 .274-.225.5-.5.5h-1a.502.502 0 0 1-.5-.5v-5c0-.274.225-.5.5-.5h1c.275 0 .5.226.5.5v5M42 34.5c0 .274-.225.5-.5.5h-1a.502.502 0 0 1-.5-.5v-5c0-.274.225-.5.5-.5h1c.275 0 .5.226.5.5v5M42 26.5c0 .274-.225.5-.5.5h-1a.502.502 0 0 1-.5-.5v-5c0-.274.225-.5.5-.5h1c.275 0 .5.226.5.5v5"/></g><path fill="#b2c1c0" d="M19 8h16v10H19z"/><circle fill="#e8e8e8" cx="27" cy="8" r="8"/><path fill="#f15744" d="M32 6h-3V3c0-.55-.45-1-1-1h-2c-.55 0-1 .45-1 1v3h-3c-.55 0-1 .45-1 1v2c0 .55.45 1 1 1h3v3c0 .55.45 1 1 1h2c.55 0 1-.45 1-1v-3h3c.55 0 1-.45 1-1V7c0-.55-.45-1-1-1"/></svg>