<svg xmlns="http://www.w3.org/2000/svg" viewBox="0 0 64 64"><path fill="#b2c1c0" d="M56 48H8L0 64h64z"/><g fill="#f9f3d9"><path d="M8 40h48v8H8zM13 24h38v8H13zM18 8h28v8H18z"/></g><g fill="#d33b23"><path d="M18 16c0 2.209-4.698 4-8 4-3 0-5-1-5-1 0 2.209 2.91 5 6.5 5H32v-8H18zM13 32c0 2.209-4.698 4-8 4-3 0-5-1-5-1 0 2.209 2.91 5 6.5 5H32v-8H13zM51 32c0 2.209 4.697 4 8 4 3 0 5-1 5-1 0 2.209-2.91 5-6.5 5H32v-8h19zM46 16c0 2.209 4.697 4 8 4 3 0 5-1 5-1 0 2.209-2.91 5-6.5 5H32v-8h14zM41 0c0 2.209 4.697 4 8 4 3 0 5-1 5-1 0 2.209-2.91 5-6.5 5H32V0h9zM23 0c0 2.209-4.698 4-8 4-3 0-5-1-5-1 0 2.209 2.91 5 6.5 5H32V0h-9z"/></g><g fill="#3e4347"><path d="M24 26h1v4h-1zM27 26h1v4h-1zM36 26h1v4h-1zM30 26h1v4h-1zM33 26h1v4h-1zM25.5 42h1v4h-1zM19.5 42h1v4h-1zM22.5 42h1v4h-1zM28.5 42h1v4h-1zM26 10h2v4h-2zM36 10h2v4h-2zM31 10h2v4h-2z"/></g><g fill="#fed0ac"><path d="M8 40h8v8H8zM48 40h8v8h-8zM13 24h8v8h-8zM43 24h8v8h-8z"/></g><g fill="#3e4347"><path d="M51 42h2v4h-2zM11 42h2v4h-2z"/></g><path fill="#f15744" d="M32 16l-11 8h22z"/><g fill="#d3976e"><path d="M18 8h28v2H18zM20.975 24h22.05v2h-22.05z"/></g><g fill="#3e4347"><path d="M46 26h2v4h-2zM16 26h2v4h-2z"/></g><path fill="#d3976e" d="M16 40h32v2H16z"/><g fill="#89664c"><path d="M8 40h8v2H8zM48 40h8v2h-8zM13 24h8v2h-8zM43 24h8v2h-8z"/></g><path fill="#fed0ac" d="M40.11 24L32 18.1 23.887 24z"/><g fill="#3e4347"><path d="M26.5 24h11L32 20zM37.5 42h1v4h-1zM31.5 42h1v4h-1zM34.5 42h1v4h-1zM40.5 42h1v4h-1zM43.5 42h1v4h-1z"/></g><path fill="#f15744" d="M41 36c-2.656-1.68-3.184-4-9-4-5.809 0-6.561 2.406-9 4-6.119 4-12.183 3.984-13 4h44c-.818-.016-6.684 0-13-4"/><path fill="#fed0ac" d="M39.11 37c-1.934-1.26-2.879-3-7.111-3-4.225 0-5.336 1.805-7.111 3-4.449 3-8.295 2.988-8.889 3h32c-.594-.012-4.297 0-8.889-3"/><g fill="#3e4347"><path d="M37.26 38c-1.209-.84-2.65-2-5.302-2-2.65 0-4.189 1.203-5.301 2-2.787 2-4.309 1.992-4.68 2h20.05c-.373-.008-1.892 0-4.771-2M39 26h1v4h-1z"/></g><path fill="#f15744" d="M37.729 5C36.037 3.74 35.701 2 32 2c-3.697 0-4.176 1.805-5.729 3-3.892 3-7.75 2.988-8.271 3h28c-.521-.012-4.254 0-8.271-3"/><path fill="#fed0ac" d="M36.523 5.75C35.295 4.805 34.693 3.5 32 3.5c-2.689 0-3.396 1.354-4.525 2.25C24.643 8 22.196 7.991 21.817 8h20.365c-.379-.009-2.735 0-5.659-2.25"/><path fill="#3e4347" d="M35.34 6.5c-.525-.43-1.086-1.113-1.984-1.266-.447-.076-1.358.141-1.36 1.262-.004-1.181-1-1.336-1.418-1.26-.918.17-1.5.854-1.984 1.264C26.819 8 25.852 7.994 25.616 8h12.761c-.236-.006-1.205 0-3.037-1.5"/><g fill="#62727a"><path opacity=".5" d="M28.5 51.5h-7l-2-3.5h7zM17.5 55.5h-6.714l-1-3H16.5zM27.5 60.08h-4l-3-4.08h10zM46.959 56H41.04l-2-4.084h9.919zM8.118 64h8.902l2.1-3.92h-8.898zM43 64h-8.09l-1.912-3.92h8.09zM54 60.08h8.04L60 56h-8z"/></g><g fill="#e8e8e8"><path opacity=".5" d="M57.14 64h-7.88l1.578-4h8.422zM16 60H5.5L8 56h6.03zM36 60h-8.5l2.5-4h8.02zM43 52h-8.5l2.5-4h8.02z"/><path d="M53.23 59.5h-6.857l-1.607-3h6.857l1.607 3m-32.464-3l1.607 3h-6l-1.607-3h6m1 0h7.465l-1.607 3h-4.25l-1.608-3m8.465 0h7l-1.607 3h-7l1.607-3m7.999 0h5.535l1.607 3h-8.75l1.608-3m16.553-4l1.715 3h-9l1.715-3h5.57m-6.57 0l-1.715 3h-5l-1.715-3h8.43m-9.43 0l1.715 3h-6l-1.714-3h5.999m-6.999 0l1.714 3h-10l1.715-3h6.571m-7.571 0l-1.715 3h-4l-1.715-3h7.43m-14.429 0h6l1.715 3h-6l-1.715-3m-1.554 4h5.535l1.607 3h-8.75l1.608-3m54.02 4l-.5-1h-7.518l-1.607-3h7.625l-.5-1H57.5l-1.715-3h2.465l-.5-1H53.5l-2-3.5h-1l2 3.5h-9l2-3.5h-1l-2 3.5h-7l2-3.5h-1l-2 3.5h-5l-2-3.5h-1l2 3.5h-7l-2-3.5h-1l2 3.5h-9l2-3.5h-1l-2 3.5H6.25l-.5 1h3.036l1.714 3H4.25l-.5 1h3.482l-1.607 3H2.25l-.5 1h7.625L7.5 64h1l1.875-3.5h8L16.5 64h1l1.875-3.5h5.25L26.5 64h1l-1.875-3.5h7L34.5 64h1l-1.875-3.5h7L42.5 64h1l-1.875-3.5h8.75L48.5 64h1l1.875-3.5h7L56.5 64h1l1.875-3.5h2.875"/></g></svg>