<svg xmlns="http://www.w3.org/2000/svg" viewBox="0 0 64 64"><path fill="#4d4d4d" d="M9.5 31.499h45v24.876h-45z"/><g fill="#acb8bf"><path d="M2 60.13h60v1.875H2zM9.5 56.38h45v1.875h-45zM17 52.625h30V54.5H17z"/></g><path fill="#89664c" d="M41 36.9h7v12h-7z"/><path fill="#b4d7ee" d="M42 37.9h5v10h-5z"/><g fill="#89664c"><path d="M44 37.4h1v11h-1zM16 36.9h7v12h-7z"/></g><path fill="#b4d7ee" d="M17 37.9h5v10h-5z"/><path fill="#89664c" d="M19 37.4h1v11h-1z"/><g fill="#dae3ea"><path d="M5.75 58.25h52.5v1.875H5.75zM13.25 54.5h37.5v1.875h-37.5z"/></g><path fill="#94989b" d="M4.813 27.769h54.38v1.877H4.823z"/><path fill="#dae3ea" d="M2 29.646h60v1.877H2z"/><path fill="#94989b" d="M31.989 4.84L2 21.235l2.512 3.754L31.989 6.691 59.49 24.989 62 21.235z"/><g fill="#dae3ea"><path d="M31.989 2L2 21.235v2.815L31.989 4.814 62 24.05v-2.815z"/><path d="M31.989 6.691L2 25.928v1.876h60v-1.876z"/></g><path fill="#acb8bf" d="M31.989 9.482L7.082 25.928h49.836z"/><path fill="#fff" d="M32 17.401c-.985 0-1.787-.704-1.787-1.571s.802-1.572 1.787-1.572 1.787.705 1.787 1.572h1.787c0-1.461-1.144-2.679-2.681-3.03v-.897h-1.787v.897c-1.537.353-2.681 1.57-2.681 3.03 0 1.732 1.604 3.142 3.574 3.142.985 0 1.787.705 1.787 1.571 0 .867-.802 1.572-1.787 1.572s-1.787-.705-1.787-1.572h-1.787c0 1.461 1.144 2.679 2.681 3.03v.897h1.787v-.897c1.537-.353 2.681-1.57 2.681-3.03 0-1.732-1.603-3.142-3.574-3.142"/><path fill="#dae3ea" d="M6.5 33.473h6v22.742h-6z"/><g fill="#94989b"><path d="M5.75 56.22h7.5v2.035h-7.5zM5.75 31.499h7.5v1.974h-7.5z"/></g><g fill="#c8d0d6"><path d="M7.099 34.384h.708v20.98h-.708zM11.192 34.384h.708v20.98h-.708zM9.828 34.384h.707v20.98h-.707zM8.464 34.384h.707v20.98h-.707z"/></g><path fill="#dae3ea" d="M51.5 33.473h6v22.742h-6z"/><g fill="#94989b"><path d="M50.75 56.22h7.5v2.035h-7.5zM50.75 31.499h7.5v1.974h-7.5z"/></g><g fill="#c8d0d6"><path d="M52.1 34.384h.708v20.98H52.1zM56.19 34.384h.708v20.98h-.708zM54.828 34.384h.707v20.98h-.707zM53.46 34.384h.707v20.98h-.707z"/></g><path fill="#89664c" d="M26.63 42.26v9.808h10.74V42.26c0-7.214-10.74-7.103-10.74 0"/><path fill="#594640" d="M27.416 42.678v9.393h9.168v-9.393c0-6.711-9.168-6.609-9.168 0"/><path fill="#a37d64" d="M27.563 42.754v9.316h8.873v-9.316c.001-6.617-8.873-6.516-8.873 0"/><path fill="#94989b" d="M26.07 52.07h11.852v.555H26.07z"/><g fill="#594640"><path d="M32.586 42.537h3.082c-.12-2.233-1.535-3.447-3.082-3.659v3.659M31.555 42.537v-3.652c-1.545.229-2.96 1.453-3.082 3.652h3.082"/></g><g fill="#89664c"><path d="M32.502 42.476h3.081c-.12-2.233-1.536-3.447-3.081-3.659v3.659M31.469 42.476v-3.654c-1.544.229-2.959 1.454-3.08 3.654h3.08"/></g><g fill="#594640"><path d="M32.586 43.543h3.092v3.047h-3.092zM28.465 43.543h3.091v3.047h-3.091z"/></g><g fill="#89664c"><path d="M32.502 43.481h3.091v3.047h-3.091zM28.38 43.481h3.09v3.047h-3.09z"/></g><g fill="#594640"><path d="M32.586 47.902h3.092v3.047h-3.092zM28.465 47.902h3.091v3.047h-3.091z"/></g><g fill="#89664c"><path d="M32.502 47.841h3.091v3.048h-3.091zM28.38 47.841h3.09v3.048h-3.09z"/></g><path fill="#dae3ea" d="M34.862 44.825h1.296v2.591h-1.296z"/><path fill="#acb8bf" d="M34.955 44.917h1.111v2.407h-1.111z"/><path fill="#3e4347" d="M35.697 47.11l-.077-.494a.186.186 0 0 0-.11-.335.186.186 0 1 0-.111.335l-.077.494h.375"/><circle fill="#94989b" cx="35.51" cy="45.595" r=".532"/><circle fill="#dae3ea" cx="35.51" cy="45.501" r=".532"/></svg>