<svg xmlns="http://www.w3.org/2000/svg" viewBox="0 0 64 64"><path fill="#b2c1c0" d="M63 60H1c-.55 0-1 .45-1 1v2c0 .55.45 1 1 1h62c.55 0 1-.45 1-1v-2c0-.55-.45-1-1-1"/><path fill="#428bc1" d="M64 17c0 .55-.45 1-1 1H1c-.55 0-1-.45-1-1V3c0-.55.45-1 1-1h62c.55 0 1 .45 1 1v14"/><path fill="#62727a" d="M2 18h60v42H2z"/><g fill="#fff"><path d="M2 20h60v10H2zM2 32h60v10H2z"/></g><path fill="#d0d0d0" d="M2 0h60v2H2z"/><path fill="#ffe62e" d="M22.824 6.05c0 2.765-1.609 5.15-3.944 6.297.629-.867 1-1.927 1-3.077 0-2.91-2.369-5.268-5.295-5.268A5.28 5.28 0 0 0 9.31 8.894a6.974 6.974 0 0 1-.605-2.844H3.997c0 5.496 4.478 9.952 10 9.952s10-4.456 10-9.952h-1.176m-8.236-.293a3.523 3.523 0 0 1 3.53 3.513 3.523 3.523 0 0 1-3.53 3.513 3.523 3.523 0 0 1-3.529-3.513c0-1.939 1.584-3.513 3.529-3.513"/><g fill="#b4d7ee"><path d="M4.5 22h4v6h-4zM10.5 22h4v6h-4zM19.5 22h4v6h-4zM25.5 22h4v6h-4zM34.5 22h4v6h-4zM40.5 22h4v6h-4zM49.5 22h4v6h-4zM55.5 22h4v6h-4zM4.5 34h4v6h-4zM10.5 34h4v6h-4zM19.5 34h4v6h-4zM25.5 34h4v6h-4zM34.5 34h4v6h-4zM40.5 34h4v6h-4zM49.5 34h4v6h-4zM55.5 34h4v6h-4z"/></g><path fill="#ffe62e" d="M21 44v16h2V48h18v12h2V44z"/><g fill="#b4d7ee"><path d="M27 48h4v12h-4zM33 48h4v12h-4z"/></g><g fill="#fff"><path d="M31 48h2v12h-2zM37 48h2v12h-2zM25 48h2v12h-2z"/><path d="M26 53h12v2H26zM43 48h16v10H43zM5 48h16v10H5z"/></g><g fill="#b4d7ee"><path d="M43 50h14v6H43zM7 50h14v6H7z"/></g><g fill="#fff"><path d="M13 49h2v8h-2zM49 49h2v8h-2z"/></g><g fill="#ffe62e"><path d="M28 5.287c.63-.114 1.514-.201 2.76-.201 1.261 0 2.158.259 2.762.776.576.488.965 1.293.965 2.241s-.295 1.753-.831 2.299c-.696.704-1.729 1.021-2.935 1.021a4.88 4.88 0 0 1-.697-.044v3.463H28V5.287m2.023 4.397c.174.043.389.058.684.058 1.086 0 1.756-.59 1.756-1.58 0-.891-.576-1.423-1.596-1.423-.415 0-.695.043-.844.087v2.858M44.42 9.899c0 3.175-1.795 5.101-4.436 5.101-2.68 0-4.248-2.17-4.248-4.929 0-2.902 1.73-5.071 4.396-5.071 2.774 0 4.288 2.227 4.288 4.899m-6.526.129c0 1.896.83 3.232 2.197 3.232 1.381 0 2.171-1.407 2.171-3.29 0-1.738-.776-3.232-2.185-3.232-1.38 0-2.183 1.408-2.183 3.29M46.2 12.585c.551.303 1.395.604 2.266.604.938 0 1.434-.417 1.434-1.049 0-.604-.429-.948-1.515-1.365-1.501-.56-2.479-1.451-2.479-2.858C45.906 6.265 47.192 5 49.323 5c1.018 0 1.769.229 2.305.488l-.455 1.768a4.06 4.06 0 0 0-1.89-.46c-.886 0-1.313.431-1.313.934 0 .617.51.891 1.675 1.365 1.596.632 2.346 1.523 2.346 2.888 0 1.624-1.167 3-3.646 3-1.031 0-2.051-.287-2.56-.59l.415-1.811M55.484 6.997h-2.427v-1.84H60v1.84h-2.466v7.845h-2.05V6.997z"/></g></svg>