<svg xmlns="http://www.w3.org/2000/svg" viewBox="0 0 64 64"><path fill="#d0d0d0" d="M0 60h64v4H0z"/><path fill="#62727a" d="M2 32h60v28H2z"/><path fill="#d6eef0" d="M6 42h14v18H6z"/><path fill="#3e4347" d="M2 27h60v6H2z"/><path fill="#83bf4f" d="M0 27a4 4 0 0 0 8 0H0"/><path fill="#d33b23" d="M8 27a4 4 0 0 0 8 0H8"/><path fill="#83bf4f" d="M16 27a4 4 0 0 0 8 0h-8"/><path fill="#c7e755" d="M16 18h8v9h-8z"/><path fill="#d33b23" d="M24 27a4 4 0 0 0 8 0h-8"/><path fill="#f15744" d="M24 18h8v9h-8z"/><path fill="#c7e755" d="M0 18h8v9H0z"/><path fill="#f15744" d="M8 18h8v9H8z"/><path fill="#c7e755" d="M48 18h8v9h-8z"/><path fill="#f15744" d="M56 18h8v9h-8z"/><path fill="#83bf4f" d="M32 27a4 4 0 0 0 8 0h-8"/><path fill="#c7e755" d="M32 18h8v9h-8z"/><path fill="#d33b23" d="M40 27a4 4 0 0 0 8 0h-8"/><path fill="#f15744" d="M40 18h8v9h-8z"/><path fill="#83bf4f" d="M48 27a4 4 0 0 0 8 0h-8"/><path fill="#d33b23" d="M56 27a4 4 0 0 0 8 0h-8"/><path fill="#fff" d="M13 33a9 9 0 0 0-9 9h18a9 9 0 0 0-9-9"/><path fill="#62727a" d="M6.291 40h13.418c-.863-2.889-3.544-5-6.709-5s-5.846 2.111-6.709 5"/><g fill="#fff"><path d="M6 42h2v18H6zM18 42h2v18h-2z"/></g><path fill="#b4d7ee" d="M8 42h10v2H8z"/><path fill="#fff" d="M27 33h30v20H27z"/><path fill="#3e4347" d="M59 56c0 .55-.451 1-1 1H26c-.55 0-1-.45-1-1v-2c0-.55.45-1 1-1h32c.549 0 1 .45 1 1v2"/><path fill="#d6eef0" d="M29 35h26v16H29z"/><path fill="#b4d7ee" d="M29 35h26v2H29z"/><path fill="#62727a" d="M16 47c-.55 0-1 .591-1 1.313v1.973c0 .723.359 1.669.801 2.103l.398.394c.442.434.801.197.801-.527v-3.942c0-.723-.45-1.314-1-1.314"/><path fill="#3e4347" d="M64 18H0V2C0 .9.9 0 2 0h60c1.1 0 2 .9 2 2v16"/><path fill="#e8e8e8" d="M3 2c-.55 0-1 .45-1 1v12c0 .55.45 1 1 1h58c.549 0 1-.45 1-1V3c0-.55-.451-1-1-1H3"/><g fill="#3e4347"><path d="M17.505 5.135c-2.333-1.012-4.932-1.521-7.427-.803-2.387.687-2.71 3.61-.71 4.921 1.874 1.228 4.329.218 6.254 1.178.762.38.228 1.102-.319 1.317-.58.228-1.229.248-1.843.252-1.271.009-2.865-.194-3.955-.877-1.097-.687-2.1 1.044-1.01 1.727 1.919 1.202 4.855 1.413 7.04.918 2.185-.496 3.396-3.109 1.546-4.748-1.618-1.434-4.141-.793-6.077-1.254-.56-.133-1.411-.577-.806-1.276.483-.558 1.777-.47 2.424-.487 1.282-.033 2.928.447 3.877.858 1.171.508 2.19-1.215 1.01-1.726M50 13V5l-1 1c.781 0 6.133-.201 4.875 1.395C53.066 8.421 50.172 8 49 8c-1.289 0-1.289 2 0 2 2.188 0 6.699.448 6.971-2.667C56.305 3.516 51.523 4 49 4c-.545 0-1 .455-1 1v8c0 1.29 2 1.29 2 0M22 5v8c0 1.29 2 1.29 2 0V5c0-1.29-2-1.29-2 0M30 5v8c0 1.29 2 1.29 2 0V5c0-1.29-2-1.29-2 0"/><path d="M23 10h8c1.29 0 1.29-2 0-2h-8c-1.29 0-1.29 2 0 2"/></g><circle fill="none" stroke="#3e4347" stroke-width="2" stroke-miterlimit="10" cx="40" cy="9" r="4"/><g fill="#3e4347"><circle cx="5" cy="9" r="1"/><circle cx="59" cy="9" r="1"/></g></svg>