<svg xmlns="http://www.w3.org/2000/svg" viewBox="0 0 64 64"><g fill="#d0d0d0"><path d="M0 58h64v6H0z"/><path d="M10 58h14v2H10z"/></g><path fill="#3e4347" d="M10 58h14v2H10z"/><path fill="#ffc7ce" d="M7 20h50v38H7z"/><path fill="#e84d88" d="M12 42h10v16H12z"/><g fill="#d6eef0"><path d="M12 26h10v10H12zM42 26h10v10H42zM27 26h10v10H27zM42 42h10v10H42zM27 42h10v10H27z"/></g><path fill="#d0d0d0" d="M13 16h38v4H13z"/><circle fill="#ffdd7d" cx="20" cy="51" r="1"/><g fill="#9450e0"><path d="M11 36h12v2H11zM26 36h12v2H26zM41 36h12v2H41zM26 52h12v2H26zM41 52h12v2H41z"/></g><g fill="#e84d88"><path d="M12 26v6h1c1.656 0 3-1.344 3-3v-3h-4M22 26v6h-1c-1.656 0-3-1.344-3-3v-3h4M13 32h-1v4h4v-1c0-1.656-1.344-3-3-3M21 32c-1.656 0-3 1.344-3 3v1h4v-4h-1M27 26v6h1c1.656 0 3-1.344 3-3v-3h-4M37 26v6h-1c-1.656 0-3-1.344-3-3v-3h4M28 32h-1v4h4v-1c0-1.656-1.344-3-3-3M36 32c-1.656 0-3 1.344-3 3v1h4v-4h-1M42 26v6h1c1.656 0 3-1.344 3-3v-3h-4M52 26v6h-1c-1.656 0-3-1.344-3-3v-3h4M43 32h-1v4h4v-1c0-1.656-1.344-3-3-3M51 32c-1.656 0-3 1.344-3 3v1h4v-4h-1M27 42v6h1c1.656 0 3-1.344 3-3v-3h-4M37 42v6h-1c-1.656 0-3-1.344-3-3v-3h4M28 48h-1v4h4v-1c0-1.656-1.344-3-3-3M36 48c-1.656 0-3 1.344-3 3v1h4v-4h-1M42 42v6h1c1.656 0 3-1.344 3-3v-3h-4M52 42v6h-1c-1.656 0-3-1.344-3-3v-3h4M43 48h-1v4h4v-1c0-1.656-1.344-3-3-3M51 48c-1.656 0-3 1.344-3 3v1h4v-4h-1M36.264 0C34.377 0 32.762.938 32 2.285 31.238.938 29.623 0 27.736 0 25.121 0 23 1.791 23 4c0 4 9 12 9 12s9-8 9-12c0-2.209-2.121-4-4.736-4z"/></g><path fill="#94989b" d="M10 60h14v2H10z"/></svg>