<svg xmlns="http://www.w3.org/2000/svg" viewBox="0 0 64 64"><path fill="#b95a1e" d="M25 53h13.999l2.999-3H22z"/><g fill="#3e4347"><path d="M22.569 24.938l-5.104 4.768v-8.64s2.112-1.134 2.112.773c.001 2.161 2.992 3.099 2.992 3.099"/><path d="M19.889 11.07c2.287 0 3.688-2.202 3.688-4.13 0-3.138-2.313-4.945-5.27-4.945-2.283 0-5.621 2.284-4.628 6.873 1.133 5.235 2.243 14.83 2.243 14.83l1.906-.269c-.238-8.642-.754-12.973-.754-12.973s1.137.614 2.815.614"/></g><path fill="#dbb471" d="M19.08 7.373c-.058-.192-.148-.393-.29-.501-.137-.111-.289-.025-.419.107-.285.274-.373.623-.244.921.263.625 1.097.748 1.689.429.582-.241.714-.964.635-1.689-.058-.755-.385-1.287-.998-1.642-.576-.361-1.336-.456-1.894-.19a3.02 3.02 0 0 0-1.485 1.49c-.291.663-.359 1.452-.201 2.208.143.752.497 1.525 1.203 1.957-.82-.24-1.348-1.046-1.654-1.83-.288-.812-.339-1.74-.041-2.605.285-.872.971-1.599 1.769-2.024.927-.466 1.982-.299 2.792.177.406.251.77.58 1.025 1.019.262.461.351.908.381 1.365.023.454-.005.922-.184 1.389-.09.229-.214.464-.408.654a1.776 1.776 0 0 1-.652.406c-.439.166-.957.223-1.428.056-.467-.16-.874-.54-.992-1.036-.136-.503.17-1.029.528-1.248a.829.829 0 0 1 .326-.144.39.39 0 0 1 .351.128c.146.186.175.399.191.603"/><g fill="#3e4347"><path d="M41.43 24.938l5.103 4.768v-8.64s-2.112-1.134-2.112.773C44.42 24 41.43 24.938 41.43 24.938"/><path d="M44.11 11.07c-2.287 0-3.686-2.202-3.686-4.13 0-3.138 2.313-4.945 5.27-4.945 2.282 0 5.621 2.284 4.628 6.873-1.133 5.235-2.244 14.83-2.244 14.83l-1.906-.269c.238-8.642.755-12.973.755-12.973s-1.139.614-2.817.614"/></g><path fill="#dbb471" d="M44.918 7.373c.017-.204.045-.417.192-.605a.39.39 0 0 1 .351-.128c.128.021.233.08.326.144.359.219.664.744.529 1.247-.119.497-.525.876-.992 1.037-.471.167-.989.111-1.428-.055a1.764 1.764 0 0 1-.652-.407 1.808 1.808 0 0 1-.408-.654c-.179-.466-.208-.934-.185-1.388.03-.456.118-.905.382-1.365.254-.439.618-.768 1.024-1.02.81-.476 1.864-.643 2.792-.177.798.425 1.484 1.152 1.769 2.024.298.865.247 1.793-.041 2.604-.306.785-.833 1.591-1.653 1.831.705-.432 1.061-1.205 1.203-1.957.158-.757.089-1.545-.202-2.209a3.022 3.022 0 0 0-1.485-1.489c-.558-.266-1.318-.171-1.893.191-.613.354-.941.886-.999 1.642-.079.725.053 1.447.636 1.689.593.318 1.427.194 1.688-.431.129-.297.042-.646-.244-.921-.131-.131-.282-.216-.419-.105-.141.109-.232.31-.291.502"/><path fill="#3e4347" d="M18.657 11h26.685v2H18.657z"/><path fill="#dbb471" d="M43.1 16H20.9l-.953-3h24.1z"/><g fill="#3e4347"><path d="M41.744 18h-19.49l-.837-2h21.16zM22.291 60h19.417v2H22.291z"/></g><path fill="#dbb471" d="M23.922 57h16.16l.69 3h-17.54z"/><g fill="#b95a1e"><path d="M41.31 18H22.687s.736 2.448.736 3.235-.736 3.059-.736 3.059H41.31s-.736-2.271-.736-3.059S41.31 18 41.31 18"/><path d="M47.1 33.21c0 4.386-1.697 10.416-4.105 14.789l-21.99.023c-2.415-4.377-4.117-10.418-4.117-14.813 0-9.42 6.764-11.229 15.11-11.229 8.343 0 15.11 1.81 15.11 11.23"/></g><g fill="#3e4347"><path d="M22.04 12.315h1.17v3.735h-1.17zM24.385 12.315h1.172v3.735h-1.172zM26.728 12.315H27.9v3.735h-1.172zM29.07 12.315h1.172v3.735H29.07zM31.415 12.315h1.17v3.735h-1.17zM33.756 12.315h1.172v3.735h-1.172zM36.1 12.315h1.172v3.735H36.1zM38.441 12.315h1.172v3.735h-1.172zM40.785 12.315h1.17v3.735h-1.17zM24.885 57h1.095v3.689h-1.095zM27.07 57h1.094v3.689H27.07zM29.26 57h1.096v3.689H29.26zM31.454 57h1.092v3.689h-1.092zM33.641 57h1.096v3.689h-1.096zM35.83 57h1.095v3.689H35.83zM38.02 57h1.094v3.689H38.02zM18.548 26l-1.099 3.03h29.1L45.45 26zM22 50h19.999l1-2H21zM29.854 22.956l-1.713-1.713 1.714-1.712 1.712 1.713zM34.137 22.954l-1.712-1.712 1.714-1.712 1.71 1.713zM25.568 22.948l-1.712-1.712 1.712-1.713 1.713 1.713zM36.714 21.23l1.713-1.714 1.713 1.712-1.713 1.714zM19.686 36.034l-1.049-1.046 1.046-1.049 1.05 1.047zM19.69 42.652l-1.05-1.048 1.047-1.047 1.05 1.048zM25.845 42.658l-1.048-1.048 1.048-1.048 1.048 1.048zM25.847 36.04L24.8 34.995l1.046-1.048 1.048 1.047zM20.67 38.295l2.094-2.095 2.097 2.095-2.095 2.096zM31.991 42.655l-1.047-1.047 1.049-1.048 1.047 1.048zM31.998 36.038l-1.047-1.047 1.048-1.048 1.047 1.047zM26.826 38.297l2.096-2.096 2.095 2.096-2.095 2.096zM38.154 42.651l-1.047-1.048 1.047-1.048 1.048 1.048zM38.161 36.037l-1.047-1.046 1.046-1.048 1.048 1.047zM32.98 38.3l2.095-2.096 2.097 2.096-2.095 2.095zM44.312 42.65l-1.05-1.049 1.048-1.047 1.049 1.048zM44.308 36.04l-1.049-1.046 1.046-1.048 1.05 1.046zM39.14 38.294l2.096-2.096 2.096 2.096-2.096 2.096zM38.999 53H25s.442 1.333.448 1.846c.008.675-.563 2.154-.563 2.154h14.228s-.571-1.479-.563-2.154c.008-.513.449-1.846.449-1.846"/></g><g fill="#dbb471"><path d="M16.949 32.02c-.022.326-.043.654-.047 1h30.19a16.773 16.773 0 0 0-.047-1h-30.1M19.573 45.02h24.852c.138-.331.272-.661.402-1H19.171c.13.337.264.669.402 1"/></g></svg>