<svg xmlns="http://www.w3.org/2000/svg" viewBox="0 0 64 64"><g fill="#d3976e"><path d="M14.279 20.447c-12.532 12.531-5.161 27.973-2.9 33.05.391.873.613 1.67.729 2.4-.929-.076-2.142.348-3.225 1.23-1.645 1.336-.879 3.367-.026 4.219.638.639 1.154.945 2.742.285 2.252-.939 7.541-4.32 4.943-10.05-7.512-16.561 2.973-26.82 2.973-26.82l-4.771-4.771-.465.459M57.13 8.879c-.882 1.088-1.308 2.303-1.229 3.227a9.509 9.509 0 0 1-2.402-.727c-5.074-2.264-20.517-9.631-33.05 2.898l-.459.465 4.771 4.773s10.26-10.486 26.821-2.973c5.729 2.596 9.109-2.693 10.05-4.943.66-1.588.354-2.105-.283-2.744-.853-.853-2.885-1.621-4.222.024"/></g><path fill="#fed0ac" d="M19.99 14.74l4.772 4.772-5.246 5.246-4.772-4.771z"/><g fill="#89664c"><path d="M22.878 21.398l-4.768-4.787.796-.791 4.776 4.774zM16.602 18.12l4.788 4.765-.793.795-4.774-4.778zM11.683 59.29c.82-.82.787-2.631.425-3.395-.351-.031-.753.037-1.163.148 1.307-.188.231 3.574-.308 2.807-.558-.789-.607-.229-.595-.078.045.428.448 1.711 1.641.518M59.29 11.682c-.82.82-2.631.789-3.395.424-.029-.352.035-.748.148-1.162-.188 1.307 3.573.232 2.808-.309-.791-.555-.229-.607-.08-.592.432.043 1.711.445.519 1.639"/></g><path fill="#b2c1c0" d="M10.248 8.748l-.28-3.281L2 2l3.467 7.967 3.281.281z"/><path fill="#d3976e" d="M49.573 48.09L10.233 8.75l-1.5 1.502 39.34 39.33c.207.209.711.039 1.125-.373.413-.414.581-.92.375-1.125"/><path fill="#ed4c5c" d="M51.47 42.494c-.253-.252-2.242.361-2.242.361s1.558-.766 1.49-1.115c-.061-.307-.574-.852-.884-.885-.674-.064-3 .75-3 .75s2.313-.828 2.246-1.502c-.029-.291-.824-.826-.824-.826-2.517 1.232-5.998 1.504-5.998 1.504l6.428 6.426s5.949-1.551 5.01-2.488c-.754-.754-1.27-1.268-2.226-2.225"/><path fill="#ffce31" d="M48.01 46.531c2.107-.633 4.244-1.379 5.399-2.1l-.755-.756c-1.063.561-3.311 1.352-5.5 1.998l.856.858"/><path opacity=".5" fill="#3e4347" d="M45.47 40.24h-.002c-1.729.42-3.211.537-3.211.537l6.428 6.426s1.538-.402 2.929-.92c-7.53-1.937-6.144-6.04-6.144-6.04"/><path fill="#ed4c5c" d="M42.476 51.49c-.254-.254.361-2.242.361-2.242s-.766 1.555-1.115 1.488c-.309-.059-.854-.574-.885-.885-.067-.674.747-3 .747-3s-.827 2.313-1.501 2.248c-.289-.029-.823-.826-.823-.826 1.231-2.516 1.499-5.998 1.499-5.998l6.426 6.426s-1.549 5.951-2.486 5.01l-2.223-2.225"/><path fill="#ffce31" d="M46.509 48.03c-.629 2.107-1.38 4.242-2.098 5.398-.213-.215-.471-.473-.755-.756.559-1.064 1.353-3.311 1.999-5.5l.854.858"/><path opacity=".5" fill="#3e4347" d="M40.22 45.49v-.002c.42-1.727.535-3.209.535-3.209l6.426 6.426s-.4 1.539-.92 2.93c-1.936-7.528-6.04-6.145-6.04-6.145"/><path fill="#b2c1c0" d="M12.226 61.3l35.659-11.9-.835-.832L15.214 59.19z"/><path opacity=".5" fill="#3e4347" d="M46.882 49.74l1-.34-.835-.832-1.01.334z"/><path fill="#b2c1c0" d="M61.3 12.221l-2.11 2.988L48.556 47.08l.844.838z"/><g fill="#3e4347"><path opacity=".5" d="M48.894 46.07l-.338 1.01.844.838.329-1zM8.748 10.248l1.5-1.5-.087-1.018-4.047.571L2 2l3.467 7.967z"/></g><path fill="#e8e8e8" d="M7.335 8.08l1.612.863-.867-1.609 1.375-.881-2.039.129-3.72-2.885 2.889 3.719-.129 2.037z"/></svg>