<svg xmlns="http://www.w3.org/2000/svg" viewBox="0 0 64 64"><g fill="#3e4347"><path d="M26.5 43v20s.646 1 1 1 1-1 1-1V43h-2M31.5 43h-1v20s.646 1 1 1 1-1 1-1V43h-1M34.5 43v20s.646 1 1 1 1-1 1-1V43h-2"/><path d="M23 51h17v2H23zM23 47h17v2H23zM23 55h17v2H23zM23 59h17v2H23zM12.5 11c0 .55-.45 1-1 1s-1-.45-1-1V1c0-.55.45-1 1-1s1 .45 1 1v10M32.5 11c0 .55-.45 1-1 1s-1-.45-1-1V1c0-.55.45-1 1-1s1 .45 1 1v10M52.5 11c0 .55-.45 1-1 1s-1-.45-1-1V1c0-.55.45-1 1-1s1 .45 1 1v10"/></g><g fill="#b2c1c0"><path d="M22 22h18v16H22zM6 18h10v20H6zM46 18h10v20H46z"/></g><g fill="#42ade2"><path d="M31.5 10l-12 12h24zM11.5 10l-8 8h16zM51.5 10l-8 8h16z"/></g><g fill="#3e4347"><circle cx="31.5" cy="29" r="3"/><path d="M28.5 29h6v9h-6z"/></g><path fill="#dae3ea" d="M57.5 32h-4c-.55 0-1 .45-1 1v4c0 .55-.45 1-1 1h-4c-.55 0-1-.45-1-1v-4c0-.55-.45-1-1-1h-4c-.55 0-1 .45-1 1v4c0 .55-.45 1-1 1h-4c-.55 0-1-.45-1-1v-4c0-.55-.45-1-1-1h-4c-.55 0-1 .45-1 1v4c0 .55-.45 1-1 1h-4c-.55 0-1-.45-1-1v-4c0-.55-.45-1-1-1h-4c-.55 0-1 .45-1 1v4c0 .55-.45 1-1 1h-4c-.55 0-1-.45-1-1v-4c0-.55-.45-1-1-1h-4c-.55 0-1 .45-1 1v4c0 .55.318 1.318.707 1.707l.586.586c.389.389.707 1.157.707 1.707v22c0 .55.45 1 1 1h16V52a8 8 0 0 1 16 0v12h16c.55 0 1-.45 1-1V41c0-.55.318-1.318.707-1.707l.586-.586c.389-.389.707-1.157.707-1.707v-4c0-.55-.45-1-1-1"/><g fill="#3e4347"><path d="M9.5 22h4v6h-4z"/><circle cx="11.5" cy="22" r="2"/><path d="M49.5 22h4v6h-4z"/><circle cx="51.5" cy="22" r="2"/></g><path fill="#b2c1c0" d="M10 44H6c-.55 0-1 .45-1 1v2c0 .55.45 1 1 1h4c.55 0 1-.45 1-1v-2c0-.55-.45-1-1-1"/><g fill="#42ade2"><path d="M20.5 6.557c-2.667-1.533-5.333 1.535-8 0V1.444c2.667 1.533 5.333-1.535 8 0-.667.469-1.333 1.225-2 2.125a17.837 17.837 0 0 1 2 2.988M40.5 6.557c-2.666-1.533-5.334 1.535-8 0V1.444c2.666 1.533 5.334-1.535 8 0-.666.469-1.334 1.225-2 2.125a17.837 17.837 0 0 1 2 2.988M60.5 6.557c-2.666-1.533-5.334 1.535-8 0V1.444c2.666 1.533 5.334-1.535 8 0-.666.469-1.334 1.225-2 2.125a17.837 17.837 0 0 1 2 2.988"/></g><g fill="#b2c1c0"><path d="M13 50H9c-.55 0-1 .45-1 1v2c0 .55.45 1 1 1h4c.55 0 1-.45 1-1v-2c0-.55-.45-1-1-1M21.792 60h-4c-.55 0-1 .45-1 1v2c0 .55.45 1 1 1h4c.55 0 1-.45 1-1v-2c0-.55-.45-1-1-1M19.688 55h-4c-.55 0-1 .45-1 1v2c0 .55.45 1 1 1h4c.55 0 1-.45 1-1v-2c0-.55-.451-1-1-1M21.792 47h-4c-.55 0-1 .45-1 1v2c0 .55.45 1 1 1h4c.55 0 1-.45 1-1v-2c0-.55-.45-1-1-1M19 39.93h-4c-.55 0-1 .45-1 1v2c0 .55.45 1 1 1h4c.55 0 1-.45 1-1v-2c0-.55-.45-1-1-1M10 56H6c-.55 0-1 .45-1 1v2c0 .55.45 1 1 1h4c.55 0 1-.45 1-1v-2c0-.55-.45-1-1-1M57 50h-4c-.55 0-1 .45-1 1v2c0 .55.45 1 1 1h4c.55 0 1-.45 1-1v-2c0-.55-.45-1-1-1M54 56h-4c-.55 0-1 .45-1 1v2c0 .55.45 1 1 1h4c.55 0 1-.45 1-1v-2c0-.55-.45-1-1-1M49.5 44.695h-4c-.55 0-1 .45-1 1v2c0 .55.45 1 1 1h4c.55 0 1-.45 1-1v-2c0-.549-.45-1-1-1M45.5 51.5h-4c-.55 0-1 .45-1 1v2c0 .55.45 1 1 1h4c.55 0 1-.45 1-1v-2c0-.55-.45-1-1-1M47.38 60h-4c-.55 0-1 .45-1 1v2c0 .55.45 1 1 1h4c.55 0 1-.45 1-1v-2c0-.55-.45-1-1-1M56.5 39.18h-4c-.55 0-1 .45-1 1v2c0 .55.45 1 1 1h4c.55 0 1-.45 1-1v-2c0-.55-.45-1-1-1M41 40.18h-4c-.55 0-1 .45-1 1v2c0 .55.45 1 1 1h4c.55 0 1-.45 1-1v-2c0-.55-.45-1-1-1"/></g><g fill="#e8e8e8"><path d="M13.5 27.875h-4c-.55 0-1 .45-1 1v.25c0 .55.45 1 1 1h4c.55 0 1-.45 1-1v-.25c0-.55-.45-1-1-1M53.5 27.875h-4c-.55 0-1 .45-1 1v.25c0 .55.45 1 1 1h4c.55 0 1-.45 1-1v-.25c0-.55-.45-1-1-1"/></g></svg>