<svg xmlns="http://www.w3.org/2000/svg" viewBox="0 0 64 64"><path fill="#f2b200" d="M29.12 12.908H19.003l-6.098 6.098v10.118L43.761 64l20.235-20.235L29.12 12.908m-6.433 9.783a2.369 2.369 0 1 1-3.35-3.35 2.369 2.369 0 0 1 3.35 3.35"/><path fill="#94989b" d="M21.933 20.775c-.27-1.301-.908-2.582-1.573-3.718-1.658-2.833-4.122-5.13-6.941-6.786C9.643 8.053 5.274 7.056.947 6.701.432 6.658 0 7.164 0 7.648c0 .548.434.906.947.948 4.746.39 9.487 1.676 13.364 4.528 1.148.845 2.384 2.063 3.337 3.282.173.221-.118-.159.048.063a15.153 15.153 0 0 1 .42.587 15.796 15.796 0 0 1 1.48 2.682c.026.062.053.124.078.187-.127-.305-.014-.033.012.036.09.228.171.459.245.692.063.199.124.401.167.605.249 1.2 2.08.709 1.835-.483"/><path fill="#3e4347" d="M15.266 16.648l-.135-.109a10.773 10.773 0 0 1-1.303-1.313c-.881-1.031-1.662-2.34-2.314-3.629C9.849 8.306 8.898 4.615 8.596.948 8.553.433 8.196 0 7.648 0c-.485 0-.991.432-.948.948.332 4.02 1.36 7.972 3.165 11.584a20.34 20.34 0 0 0 2.623 4.03c.426.508.903 1 1.429 1.432l1.349-1.349"/></svg>