<svg xmlns="http://www.w3.org/2000/svg" viewBox="0 0 64 64"><g fill="#89664c"><path d="M11.02 8.521s2.237-2.135 5.433-2l-.634 1.437s2.509-.685 5.696.537l-1.43.97s3.43.888 4.398 2.164l-1.875.156s3.01 1.191 4.104 3.01l-1.416.284s3.03 1.878 3.469 4.135l-1.738-.236s1.738 2.51 1.895 4.623l-.969-.501.207 1.428-17.14-16M60.824 29.25c2.611-4.049-7.908-6.105-12.07-.439v1.329s8.584-2.488 6.623 2.414C53.193 38.009 62 42.574 62 42.574s-4.844-7.642-1.176-13.325"/><path d="M9.232 9.169S8.507 7.669 8.889 5c0 0 2 1.368 3.381 4.509l-3.038-.34"/></g><path fill="#574137" d="M12.688 56.1l.563-4.391s-.852.02-1.788-.232a26.253 26.253 0 0 0-.898 3.914c1.173.629 2.123.709 2.123.709"/><path fill="#89664c" d="M27.19 45.02c-.696.525-1.52 1.188-2.109 1.777l-3.463-1.018s3.154-4.854 10.709-8.05c0 0-8.498-3.145-11.35.984 0 0-3.808 5.684-5.094 7.04-1.29 1.355.062 2.566.71 2.768.649.199 9.672.961 9.672.961s1.234-1.049 2.782-1.652c-.658-1.427-1.373-2.314-1.857-2.802"/><path fill="#574137" d="M28.546 44.04s-.604.41-1.354.977c.483.488 1.198 1.375 1.857 2.803.741-.289 1.551-.477 2.331-.4-.001-.001-1.164-2.542-2.834-3.38"/><path fill="#89664c" d="M38.29 33.36l-.783 5.832s7.891 1.336 11.201.092c0 0 2.936 7.191 8.359 11.732.406-.732.898-1.9 1.24-3.633-2.125-1.35-5.414-4.402-6.939-10.842 0 .001-6.414.776-13.08-3.181"/><path fill="#574137" d="M57.06 51.02a17.617 17.617 0 0 0 2.32 1.666s.813-2.023.869-4.336c0 0-.805-.232-1.949-.963-.341 1.732-.833 2.9-1.24 3.633"/><g fill="#b7805c"><path d="M44.824 24.959c-8.03.961-15.724 2.974-17.15-1.399C21.864 5.698 11.016 8.52 11.016 8.52 9.123 6.237 7.154 5.851 7.154 5.851c-.158 2.265.716 4.178.716 4.178-.563 2.879-5.352 12.07-5.827 13.318-.479 1.251 2.883 3.431 2.883 3.431.698-.133.865-1.258 2.438-1.222.397.009-.713 1.412-.29 1.555.783.265 1.744-2.034 3.363-2.92 6.088-3.335 4.064-5.528 4.064-5.528 2.496 1.743 1.077 5.53-.002 7.51-2.544 4.663.118 11.522.118 11.522-2.46 1.91-7.911 2.986-7.911 2.986-1.861 9.848 1.466 13.42 3.853 14.705.251-1.682.642-3.1.898-3.914-.925-.246-1.93-.754-2.291-1.789-.731-2.094.667-6.805.667-6.805 6.472.777 10.546-1.24 15.188-2.391 4.646-1.148 9.139-.346 13.576.438 17.1 3.01 14.87-16.999 6.223-15.966"/><path d="M37.666 40.21c4.439 10.04 14.01 4.543 14.01 4.543-2.189 6.139-.58 10.342.795 12.516 1.189-.607 1.934-1.971 2.287-2.787-3.072-3.471-.879-8.09-.285-9.904.652-1.994-.299-3.277-.299-3.277-2.676-.617-4.248 1.225-7.422-2.875-3.17-4.099-9.09 1.784-9.09 1.784"/></g><g fill="#574137"><path d="M53.863 59c1.531-.068 1.975-3.518 1.975-3.518a7.404 7.404 0 0 1-1.078-1c-.354.816-1.098 2.18-2.287 2.787.73 1.149 1.39 1.731 1.39 1.731M34.13 35.09s.316 2.244-1.201 5.199c0 0 1.166-.047 2.22.109 0 0 .855-.977 1.225-5.084l-2.244-.224"/></g><path fill="#8cc63e" d="M28.16 24.522s2.354 2.563.926 4.775c-1.96 3.038 4.086 8.551 10.984 5.461 4.939-2.21.176-7.653 2.371-9.681 0 0-8.277 1.842-14.281-.555"/><g fill="#333"><path d="M5.421 22.348l-.498-.548c5.685-5.269 6.959-7.507 6.975-7.53l.642.366c-.052.092-1.346 2.364-7.119 7.712"/><path d="M13.191 15.325a22.683 22.683 0 0 0-2.751-3.273c-1.01-.987-2.1-1.589-2.566-2.023a8.58 8.58 0 0 1-.21.799c.446.423 1.424.94 2.266 1.76 1.407 1.374 3.214 3.94 4.841 7.532.166-.114.5-.582.562-.625-.685-1.493-1.256-2.897-2.142-4.17M6.765 25.608c.19-.095.683 0 .683 0-1.156-3.168-3.056-5.278-3.774-5.69l-.315.652c.235.141.466.304.912.75.636.639 1.812 2.391 2.494 4.288"/></g><path fill="#574137" d="M7.26 15.875s.982.421 1.658-.409c.678-.831.274-2.878.274-2.878s-1.331 1.06-1.932 3.287"/><path fill="#89664c" d="M2.897 22.971s1.346-.176.866 1.396c-.482 1.568-.936-.851-.866-1.396"/></svg>