<svg xmlns="http://www.w3.org/2000/svg" viewBox="0 0 64 64"><g fill="#89664c"><path d="M34.949 45.664a1.448 1.448 0 0 1-1-1.438 1.458 1.458 0 0 1 1.521-1.389c4.571.191 5.111.355 7.615 1.311.974.372 2.311.883 4.462 1.587 4.651 1.52 8.989.23 10.709-1.755.925-1.068 1.073-2.24.441-3.485-.498-.979-1.173-1.596-1.965-1.814-.652-.182-1.395-.1-2.039.225-.612.306-1.145.876-.962 1.235a1.444 1.444 0 0 1-.646 1.948 1.464 1.464 0 0 1-1.96-.642c-.926-1.818.044-4.02 2.251-5.129 1.289-.648 2.8-.803 4.144-.429 1.104.304 2.684 1.138 3.783 3.299 1.164 2.291.859 4.727-.835 6.683-2.792 3.225-8.611 4.325-13.834 2.618-2.222-.725-3.596-1.252-4.599-1.635-2.181-.832-2.463-.939-6.688-1.117a1.567 1.567 0 0 1-.396-.073M26.351 45.668c-2.716 0-15.819-4.204-21.56-13.558-2.612-4.255-4.721-11.305.066-20.726a2.901 2.901 0 0 1 5.172 2.628c-2.793 5.496-2.991 10.25-.605 14.534 4.204 7.548 15.1 11.162 17 11.322 1.603 0 2.862 1.299 2.862 2.899.002 1.604-1.335 2.901-2.937 2.901"/></g><path fill="#e0ac7e" d="M11.835 8.34s-.144-3.39-2.02-4.862c-.928-.727-3.411-.714-4.574.665-1.284 1.52-1.815 7.501-.473 9.498 1.938 2.882 5.354 3.215 9.403-3.324 2.031-3.275-1.595-.967-2.334-1.977"/><path fill="#89664c" d="M31.1 45.668a2.9 2.9 0 0 1-.056-5.799c1.959-.185 12.793-3.801 16.984-11.323 2.385-4.283 2.187-9.04-.606-14.532a2.9 2.9 0 0 1 5.171-2.628c4.788 9.42 2.68 16.469.068 20.724C46.92 41.464 33.816 45.668 31.1 45.668"/><path fill="#e0ac7e" d="M45.613 8.34s.142-3.39 2.02-4.862c.926-.727 3.41-.714 4.573.665 1.285 1.52 1.814 7.501.472 9.498-1.937 2.882-5.354 3.215-9.402-3.324-2.031-3.275 1.597-.967 2.335-1.977"/><g fill="#89664c"><path d="M22.456 57.49c-.608 0-1.223-.19-1.746-.586-7.664-5.792-11.376-9.578-9.05-12.991 3.327-4.878 17.484 1.893 17.618 1.975a2.899 2.899 0 0 1 .956 3.988 2.905 2.905 0 0 1-3.97.968c-.918-.506-3.983-1.58-6.667-2.283 1.081.955 2.566 2.174 4.606 3.716a2.9 2.9 0 0 1-1.751 5.213"/><path d="M34.991 57.49a2.9 2.9 0 0 1-1.751-5.214c2.04-1.541 3.525-2.761 4.605-3.717-2.691.706-5.767 1.784-6.675 2.288a2.888 2.888 0 0 1-3.976-.963 2.914 2.914 0 0 1 .97-3.997c.134-.082 14.292-6.851 17.619-1.975 2.33 3.413-1.381 7.199-9.05 12.991a2.877 2.877 0 0 1-1.747.587"/><ellipse cx="28.724" cy="44.4" rx="7.454" ry="7.402"/></g><g fill="#e0ac7e"><ellipse cx="28.724" cy="43.919" rx="6.812" ry="6.767"/><path d="M25.607 54.06c-.883-1.424-3.783-1.238-6.479.413-2.694 1.65-4.162 4.143-3.278 5.566.884 1.422 3.785 1.236 6.478-.414 2.697-1.65 4.165-4.144 3.279-5.565"/><path d="M25.741 54.06c-.657-1.539-3.745-1.711-6.896-.383-3.151 1.326-5.174 3.653-4.517 5.191.657 1.539 3.744 1.711 6.896.381 3.151-1.326 5.174-3.651 4.517-5.189M31.84 54.06c.882-1.424 3.785-1.238 6.477.413 2.696 1.65 4.164 4.143 3.28 5.566-.884 1.422-3.785 1.236-6.479-.414-2.696-1.65-4.163-4.144-3.278-5.565"/><path d="M31.707 54.06c.657-1.539 3.746-1.711 6.895-.383 3.152 1.326 5.175 3.653 4.517 5.191-.658 1.539-3.744 1.711-6.895.381-3.153-1.326-5.175-3.651-4.517-5.189"/></g><ellipse fill="#89664c" cx="42.14" cy="24.61" rx="5.088" ry="5.076"/><ellipse fill="#ffc5d3" cx="42.14" cy="24.61" rx="3.313" ry="3.306"/><ellipse fill="#89664c" cx="15.313" cy="24.61" rx="5.087" ry="5.076"/><ellipse fill="#ffc5d3" cx="15.312" cy="24.61" rx="3.313" ry="3.306"/><g fill="#89664c"><path d="M35.739 10.928c.706-.373 1.162-.56 1.162-.56-1.996-.702-3.728-1.112-5.226-1.299.789-.593 1.315-.819 1.315-.819-12.59-1.775-18.584 5.522-18.584 11.999l28.637.001c-.431-4.509-2.949-7.595-7.304-9.322"/><path d="M43.11 21.28c0-5.986-6.439-10.838-14.383-10.838-7.943 0-14.384 4.852-14.384 10.838 0 1.4.365 2.735 1.01 3.964-.643 1.229-1.01 2.563-1.01 3.965 0 5.985 6.44 10.837 14.384 10.837S43.11 35.194 43.11 29.209c0-1.401-.364-2.735-1.01-3.965.643-1.228 1.01-2.563 1.01-3.964"/></g><path fill="#e0ac7e" d="M41.07 21.673c0-10.442-12.346-3.79-12.346-3.79s-12.346-6.652-12.346 3.79c0 2.922 1.799 5.526 4.607 7.227-.819 1.021-1.299 2.214-1.299 3.494 0 3.75 4.046 6.789 9.04 6.789 4.991 0 9.04-3.039 9.04-6.789 0-1.28-.479-2.473-1.299-3.494 2.81-1.701 4.609-4.305 4.609-7.227"/><g fill="#3b302a"><ellipse cx="30.05" cy="28.17" rx=".617" ry="1.269"/><ellipse cx="27.401" cy="28.17" rx=".617" ry="1.269"/></g><path fill="#fff" d="M31.706 22.922s.218-2.342 2.03-3.093c2.044-.847 3.438 1.224 3.816 2.407.558 1.745-.143 3.656-.351 4.097-.138.29-1.647 1.662-5.05.363 0 0-.849-1.942-.445-3.774"/><ellipse fill="#3b302a" cx="34.08" cy="23.856" rx="1.85" ry="2.538"/><path fill="#fff" d="M25.745 22.922s-.218-2.342-2.03-3.093c-2.043-.847-3.438 1.223-3.816 2.407-.559 1.745.143 3.656.351 4.097.137.29 1.647 1.662 5.05.363-.002 0 .845-1.942.443-3.774"/><g fill="#3b302a"><ellipse cx="23.372" cy="23.856" rx="1.85" ry="2.538"/><path d="M33.734 31.24c-.437.889-.96 1.747-1.668 2.472-.693.729-1.571 1.34-2.603 1.612a4.097 4.097 0 0 1-3.055-.429c-.906-.504-1.595-1.271-2.119-2.109.787.585 1.59 1.103 2.423 1.43.834.322 1.703.403 2.528.181.833-.201 1.613-.68 2.348-1.245.731-.573 1.422-1.245 2.146-1.912"/></g><g fill="#bf936c"><path d="M32.731 30.19a2.08 2.08 0 0 1 .917-.296c.328-.036.686.03 1.01.222.316.198.563.541.621.898.072.353.034.693-.1 1-.122-.312-.211-.602-.348-.833-.139-.23-.291-.402-.494-.521-.401-.266-.977-.312-1.604-.472M22.943 33.795a1.855 1.855 0 0 1-.279-.825c-.038-.3.018-.627.184-.925.173-.292.475-.519.784-.566.308-.06.602-.018.861.119-.265.126-.506.215-.695.342-.188.129-.324.26-.42.436-.218.342-.269.851-.435 1.419"/></g></svg>