<svg xmlns="http://www.w3.org/2000/svg" viewBox="0 0 64 64"><path fill="#6b3838" d="M6.598 50.38C11.908 53.579 21.3 55.704 32 55.704s20.09-2.125 25.402-5.324H6.598"/><g fill="#3e4347"><path d="M8.112 48.48a8.314 8.314 0 0 0-.902.889 14.478 14.478 0 0 0-1.728 2.473c-.714 1.271-1.257 2.68-1.628 4.127-.421 1.648-.612 3.379-.613 5.094-.002.508.37.932.813.932.444 0 .814-.424.814-.932 0-.809.044-1.613.137-2.412l-.028.252c.164-1.41.483-2.797.965-4.105l-.083.223a15.41 15.41 0 0 1 1.642-3.234 11.696 11.696 0 0 1 1.275-1.538c.084-.084.171-.168.261-.246a5.562 5.562 0 0 0-.102.091c.179-.146.313-.309.374-.557a1.06 1.06 0 0 0-.083-.719.83.83 0 0 0-.485-.43c-.195-.06-.458-.044-.629.092M11.437 49.42a7.076 7.076 0 0 0-.931.969c-.668.82-1.246 1.75-1.715 2.734a16.983 16.983 0 0 0-1.419 4.59 20.877 20.877 0 0 0-.271 3.352c0 .512.37.936.814.936.443 0 .813-.424.813-.936a20.743 20.743 0 0 1 .107-2.09c.157-1.328.457-2.635.912-3.873l-.082.225c.393-1.063.896-2.07 1.511-2.984-.042.064-.084.125-.126.191a9.6 9.6 0 0 1 1.232-1.518c.043-.041.085-.084.129-.121l-.164.145c.004-.004.008-.006.012-.012.055-.047.109-.096.165-.145a.945.945 0 0 0 .208-.41 1.06 1.06 0 0 0-.082-.721.856.856 0 0 0-.485-.428c-.191-.058-.461-.049-.628.096M14.382 50.31c-.289.27-.54.607-.774.938a13.513 13.513 0 0 0-1.631 3.072 17.84 17.84 0 0 0-.727 2.422 21.07 21.07 0 0 0-.449 4.327c0 .512.371.936.814.936s.813-.424.813-.936a20.557 20.557 0 0 1 .105-2.1c.154-1.314.446-2.605.896-3.828a12.998 12.998 0 0 1 1.318-2.562l-.127.191c.271-.4.563-.801.903-1.129.004-.006.006-.01.01-.012.158-.148.238-.434.238-.658 0-.246-.086-.486-.238-.66s-.361-.275-.576-.275c-.232-.002-.401.11-.575.274M55.06 50.1a.516.516 0 0 1 .063.055c-.055-.049-.109-.1-.165-.146a8.94 8.94 0 0 1 1.071 1.158c.206.264.405.535.594.816-.043-.066-.087-.129-.129-.191a15.315 15.315 0 0 1 1.642 3.234l-.083-.223c.481 1.309.801 2.695.965 4.104l-.027-.252c.092.803.136 1.605.136 2.412 0 .51.37.932.815.932.442 0 .814-.422.813-.932-.001-1.908-.239-3.84-.767-5.652-.402-1.387-.961-2.723-1.684-3.926-.488-.82-1.043-1.6-1.672-2.281a7.166 7.166 0 0 0-.749-.721c-.171-.139-.434-.154-.628-.092a.832.832 0 0 0-.485.43c-.11.213-.141.477-.083.717.06.249.195.411.373.558M51.709 51.03a.027.027 0 0 1 .012.01c-.056-.051-.11-.098-.165-.146.336.297.637.656.917 1.02.155.201.304.406.446.619l-.127-.188a14.19 14.19 0 0 1 1.429 2.757c.455 1.238.754 2.543.912 3.873l-.029-.248c.092.777.134 1.555.135 2.34.001.51.37.932.813.932s.814-.422.814-.932c-.002-1.902-.246-3.828-.796-5.627-.403-1.322-.953-2.592-1.669-3.727-.434-.688-.911-1.35-1.465-1.918a6.798 6.798 0 0 0-.405-.377c-.166-.143-.438-.154-.628-.094a.847.847 0 0 0-.486.426c-.109.217-.14.479-.082.721.026.074.055.15.082.223.072.141.17.25.292.336M48.47 51.576c.289.271.541.607.775.939.047.064.094.133.139.199l-.128-.189a13.085 13.085 0 0 1 1.4 2.781c-.025-.072-.054-.148-.081-.223.448 1.225.74 2.516.895 3.83l-.028-.248c.09.777.132 1.564.133 2.352.001.51.37.932.813.932s.814-.422.814-.932c-.002-1.914-.243-3.85-.797-5.658-.385-1.252-.902-2.459-1.584-3.531-.346-.541-.717-1.084-1.157-1.527a.467.467 0 0 0-.043-.045c-.174-.162-.343-.273-.575-.273-.215 0-.424.1-.576.273a1.015 1.015 0 0 0-.238.66c0 .225.08.512.238.66"/></g><path fill="#ed4c5c" d="M52.44 34.846c0-2.631.906-5.02 2.381-6.781a32.572 32.572 0 0 0-4.762-5.141c-1.123 1.059-2.562 1.695-4.131 1.695-3.595 0-6.51-3.34-6.51-7.463v-.098A26.438 26.438 0 0 0 32.002 16c-2.693 0-5.303.406-7.786 1.168.313 1.215.48 2.5.48 3.826 0 7.465-5.279 13.516-11.789 13.516-2.375 0-4.586-.805-6.436-2.189a36.303 36.303 0 0 0-2.25 5.061c1.213 1.07 1.995 2.75 1.995 4.639 0 2.848-1.775 5.221-4.129 5.742a41.23 41.23 0 0 0-.085 2.622h60c0-1.967-.145-3.895-.421-5.77a7.365 7.365 0 0 1-.596.025c-4.719.001-8.545-4.382-8.545-9.794"/><g fill="#3e4347"><path d="M24.694 20.994c0-1.326-.168-2.611-.48-3.826-7.463 2.293-13.778 7.803-17.744 15.15 1.85 1.385 4.061 2.189 6.436 2.189 6.509.001 11.788-6.05 11.788-13.515M45.927 24.619c1.569 0 3.01-.637 4.131-1.695-3.126-2.705-6.73-4.725-10.641-5.865v.098c0 4.122 2.915 7.462 6.51 7.462M52.44 34.846c0 5.412 3.825 9.795 8.545 9.795.2 0 .398-.01.596-.025-.922-6.254-3.316-11.932-6.76-16.551-1.474 1.757-2.381 4.15-2.381 6.781M6.215 42.02c0-1.889-.782-3.568-1.995-4.639a38.464 38.464 0 0 0-2.134 10.381c2.353-.522 4.129-2.895 4.129-5.742M32.813 16L32 34.885 31.19 16zM32 35.19c-9.643 0-17.46 6.971-17.46 15.833 0 7.558 4.937 9.758 17.521 9.758 12.533 0 17.398-2.188 17.398-9.758C49.46 42.16 41.643 35.19 32 35.19"/></g><path fill="#fff" d="M28.31 54.09c.181.843.691 1.49 1.377 1.863.685.373 1.499.532 2.313.524.813.006 1.627-.152 2.312-.525a2.744 2.744 0 0 0 1.377-1.862c.219.832-.175 1.831-.962 2.405-.771.599-1.774.829-2.727.837-.953-.009-1.955-.24-2.727-.839-.787-.574-1.18-1.571-.963-2.403"/><g fill="#fcfcfa"><path d="M16.215 50.717c-.943.741-.426 2.766 1.15 4.521 1.578 1.758 3.618 2.586 4.558 1.848.941-.735.425-2.763-1.153-4.521-1.575-1.758-3.616-2.586-4.555-1.848M47.789 50.719c-.94-.739-2.982.09-4.559 1.845-1.578 1.759-2.095 3.786-1.154 4.521.943.738 2.983-.088 4.559-1.848 1.576-1.755 2.094-3.779 1.154-4.518M30.19 47.35c0 2.735-2.294 4.957-5.124 4.957-2.829 0-5.122-2.222-5.122-4.957 0-2.742 2.293-4.962 5.122-4.962 2.83 0 5.124 2.219 5.124 4.962"/></g><path fill="#3e4347" d="M28.583 47.35c0 1.881-1.577 3.405-3.521 3.405-1.943 0-3.521-1.524-3.521-3.405 0-1.885 1.578-3.411 3.521-3.411 1.944 0 3.521 1.526 3.521 3.411"/><path fill="#fcfcfa" d="M44.06 47.35c0 2.735-2.294 4.957-5.124 4.957s-5.122-2.222-5.122-4.957c0-2.742 2.292-4.962 5.122-4.962s5.124 2.219 5.124 4.962"/><path fill="#3e4347" d="M42.46 47.35c0 1.881-1.577 3.405-3.523 3.405-1.944 0-3.521-1.524-3.521-3.405 0-1.885 1.577-3.411 3.521-3.411 1.946 0 3.523 1.526 3.523 3.411"/></svg>