<svg xmlns="http://www.w3.org/2000/svg" viewBox="0 0 64 64"><g fill="#3e4347"><path d="M52.38 57.63c-1.506-1.499-.924-3.385.12-4.422 1.042-1.041 2.934-1.618 4.439-.117 1.508 1.499 2.057 4.512 1.016 5.55-1.043 1.039-4.066.491-5.575-1.01M55.889 43.4c-1.506-1.499-.923-3.385.121-4.422 1.041-1.039 2.932-1.617 4.438-.119 1.508 1.501 2.059 4.515 1.016 5.554-1.044 1.038-4.066.49-5.575-1.013"/></g><path fill="#5b7f32" d="M12.939 57.635C8.338 57.635 2 56.548 2 51.728c0-5.294 5.213-10.275 10.939-10.275v16.182z"/><path fill="#94d82a" d="M23.877 47.862c0 8.953-6.337 9.772-10.938 9.772S3.76 55.528 3.76 51.728c0-4.471 4.584-10.275 9.179-10.275 4.597-.001 10.938 1.94 10.938 6.409"/><path fill="#5b7f32" d="M21.2 57.635c-15.875 0-16-19.15.346-19.15l-.346 19.15"/><path fill="#94d82a" d="M31.15 46.07c0 10.595-5.559 11.563-9.953 11.563-14.394 0-14.04-19.15.346-19.15 4.391 0 9.607 2.298 9.607 7.585"/><path fill="#5b7f32" d="M30.785 57.635c-17.06 0-16.354-20.05 0-20.05v20.05"/><path fill="#94d82a" d="M42.36 45.528c0 11.09-6.517 12.11-11.571 12.11-14.05 0-14.05-20.05 0-20.05 5.05.001 11.571 2.404 11.571 7.941"/><path fill="#5b7f32" d="M44.674 57.635c-21.392 0-19.409-23.05-1.455-23.05l1.455 23.05"/><path fill="#94d82a" d="M57.703 45.17c0 11.09-7.07 12.469-13.03 12.469-17.956 0-17.954-23.41 0-23.41 5.954 0 13.03 5.404 13.03 10.941"/><path fill="#5b7f32" d="M57.41 43.3s-3.579 4.443-9.06 5.102c-5.565.667-19.996-3.235-11.04-15.701L57.41 43.3"/><path fill="#94d82a" d="M59.713 38.23c0 5.732-6.552 8.223-12.07 8.223-5.519 0-12.07-2.49-12.07-8.223 0-5.736 6.555-12.538 12.07-12.538 5.515.001 12.07 6.803 12.07 12.538"/><g fill="#3e4347"><path d="M31.861 54.802c2.089-2.083 4.235-1.755 5.278-.717 1.044 1.038 1.369 3.175-.721 5.258-2.091 2.082-5.81 3.321-6.853 2.284-1.042-1.039.205-4.742 2.296-6.825M33.993 33.617c2.092 2.081 1.765 4.22.721 5.256-1.043 1.04-3.187 1.366-5.278-.716s-3.336-5.789-2.295-6.825c1.043-1.04 4.761.201 6.852 2.285M20.781 55.29c1.754-1.75 3.559-1.475 4.434-.601.875.871 1.152 2.664-.605 4.415-1.756 1.75-4.881 2.791-5.756 1.919-.877-.872.169-3.982 1.927-5.733M11.964 55.6c1.496-1.492 3.037-1.259 3.784-.513.749.743.982 2.274-.516 3.77-1.5 1.492-4.167 2.382-4.913 1.638-.747-.745.145-3.4 1.645-4.895"/></g><g fill="#5b7f32"><path d="M28.354 40.04l-.973.97.973.966.968-.966zM25.443 46.13l-.97.96.97.97.969-.97zM15.589 41.01l-.969.966.969.966.97-.966zM8.15 45.16l-.971.97.971.97.97-.97zM6.5 47.43l-.971.97.971.96.969-.96zM34.601 44.521l-.969.969.969.96.97-.96zM37.1 47.611l-.97.966.97.966.97-.966zM54.974 47.09l-.974.97.974.97.971-.97zM54.26 39.06l-.97.96.97.969.97-.969zM40.28 36.26l-.97.97.97.96.96-.96zM24.473 40.488l-1.94 1.932 1.94 1.93 1.939-1.93zM56.2 34.33l-1.94 1.93 1.94 1.93 1.94-1.93zM14.62 43.748l-1.94 1.933 1.94 1.93 1.94-1.93z"/></g><g fill="#3e4347"><path d="M40.47 10.277l-.879-.064c.135-1.862-1.349-4.304-3.766-4.96l.227-.87c2.617.715 4.598 3.359 4.418 5.894"/><path d="M37.591 3.371a2.227 2.227 0 0 1-.223 3.119 2.167 2.167 0 0 1-3.083-.226 2.23 2.23 0 0 1 .224-3.119 2.165 2.165 0 0 1 3.082.226M49.25 9.779l-.109-.89c1.833-.234 3.905-2.181 4.075-4.709l.876.062c-.182 2.736-2.353 5.219-4.842 5.537"/><path d="M55.38 5.569a2.168 2.168 0 0 1-3.066.39 2.237 2.237 0 0 1-.381-3.106A2.168 2.168 0 0 1 55 2.468a2.226 2.226 0 0 1 .38 3.101"/></g><path fill="#5b7f32" d="M55.658 29.721c-2.372 7.504-16.353 7.867-18.349 2.976l18.349-2.976"/><path fill="#94d82a" d="M59.22 22.414c.467 10.359-20.705 17.541-26.892 5.215-4.729-9.425 2.654-19.269 10.485-20.17 12.762-1.467 16.18 9.917 16.407 14.956"/><g fill="#3e4347"><path d="M51.25 18.311c0 1.661-.897 3-1.999 3-1.104 0-2-1.342-2-3s.897-3 2-3c1.101 0 1.999 1.343 1.999 3"/><ellipse cx="37.41" cy="18.311" rx="2" ry="3"/><path d="M43.33 29.29c-2.351 0-4.492-.85-4.492-1.784 0-.103.032-.19.099-.264a.477.477 0 0 1 .353-.143c.165 0 .325.068.59.18.586.247 1.677.707 3.451.707 1.771 0 2.861-.46 3.446-.707.265-.111.428-.18.592-.18.223 0 .449.141.449.406-.001.936-2.14 1.785-4.488 1.785"/></g><g opacity=".7" fill="#ea83a3"><ellipse cx="53.654" cy="23.805" rx="3.225" ry="2.49"/><ellipse cx="34.447" cy="23.675" rx="2.645" ry="1.776"/></g></svg>