<svg xmlns="http://www.w3.org/2000/svg" viewBox="0 0 64 64"><g fill="#42ade2"><path d="M33.652 45.512c-.367-.809-.876-1.52-1.416-2.182a11.81 11.81 0 0 0-1.787-1.758c-.641-.504-1.328-.91-2.02-1.158-.694-.25-1.386-.328-2.02-.234-.709.107-1.368-.414-1.468-1.166s.393-1.447 1.104-1.553c.115-.018.23-.018.34-.004l.096.012c1.055.145 2.02.57 2.824 1.137.807.564 1.471 1.258 2.038 1.996.564.74 1.033 1.531 1.425 2.352.385.821.72 1.673.884 2.558M54.998 38.31c-.115-.824.04-1.672.205-2.484.18-.822.421-1.627.717-2.42.3-.791.647-1.57 1.09-2.328.455-.754.969-1.51 1.822-2.154l.086-.066c.563-.426 1.347-.285 1.752.313.403.598.275 1.424-.289 1.852a1.216 1.216 0 0 1-.352.186c-.488.162-1.065.598-1.578 1.1-.52.512-1 1.105-1.453 1.734a16.944 16.944 0 0 0-1.218 2.01c-.344.708-.69 1.44-.782 2.255M52.671 45.13c-.362-.824-.188-1.838.13-2.699.331-.877.841-1.674 1.443-2.387a10.735 10.735 0 0 1 4.639-3.145l.063-.021c.782-.273 1.627.18 1.885 1.01.258.828-.169 1.719-.952 1.992a1.39 1.39 0 0 1-.441.078 8.217 8.217 0 0 0-4.239 1.273c-.654.42-1.269.943-1.756 1.586-.472.641-.884 1.428-.772 2.317"/></g><path fill="#36a7c1" d="M54.803 21.52c-.808 4.461-5.734 1.061-8.635-1.924-2.9-2.982-4.991-5.67-1.871-8.879 3.121-3.209 12.182-3.762 15.08-.777 2.9 2.982-3.522 5.748-4.576 11.58"/><path fill="#38bfd6" d="M54.13 21.412C52.778 12.781 42.384 2 29.132 2S2.328 14.945 12.112 24.9c0 0-11.865.615-7.127 3.096 11.364 5.951 17.512-1.846 17.621-1.855 4.01-6.814 11.993-7.02 17.415.463 5.421 7.482 5.671 18.12-2.962 22.453-4.659 2.34-5.424.889-4.938-1.047-1.421 1.105-2.895 2.078-4.068 2.895-1.934-2.701-5.753-7.486-8.559-7.486-3.908 0 1.506 9.291 1.506 9.291S15.587 62 19.495 62c2.921 0 6.942-5.188 8.788-7.811 8.942 1.586 30.16-5.179 25.843-32.777"/><path fill="#c5ccd6" d="M37.07 49.06c8.633-4.336 8.383-14.971 2.962-22.453-5.422-7.484-13.402-7.277-17.415-.463.009-.002-.026.055-.103.178-1.366 2.174-3.358 2.465-5.244 3.264 0 0-.028.953-1.306 1.658-1.917 1.061-3.164 1.865-1.959 3.518 4.446 6.096 12.926-6.04 20.354.568 5.66 5.03 1.944 9.436-2.227 12.684-.486 1.934.279 3.385 4.938 1.046"/><path fill="#36a7c1" d="M37.876 25.19c1.866-4.201-2.485-5.521-5.553-5.521-3.067 0-5.552.426-5.552 5.521 0 5.094 4.504 12.928 7.571 12.928 3.067-.001 1.094-7.438 3.534-12.928"/><path fill="#18637a" d="M22.613 26.14c.146 4.334-4.137 9.02-6.92 8.305-.838-.215-1.056-.787-.97-1.324.132-.818 1.291-1.342 2.056-1.973.708-.584.969-1.76.969-1.76 1.655-.641 4.865-3.248 4.865-3.248"/><path fill="#ff717f" d="M22.07 29.346c-1.221 2.555-1.923 3.322-2.973 2.879-1.043-.441-.683-3.051.379-3.785 0 0 .855-.605 3.141-2.299 0 0 .121 1.808-.547 3.205"/><circle fill="#fff" cx="20.392" cy="19.664" r="4.5"/><circle fill="#3e4347" cx="20.393" cy="19.664" r="3"/><path fill="#38bfd6" d="M20.546 26.14s-.154-10.77 8.151-8.436l-8.151 8.436"/><path fill="#42ade2" d="M62 44c0 2.525-1.919 4.57-4.286 4.57-2.368 0-4.285-2.045-4.285-4.57 0 2.525-1.919 4.57-4.286 4.57-2.368 0-4.285-2.045-4.285-4.57 0 2.525-1.919 4.57-4.286 4.57-2.368 0-4.286-2.045-4.286-4.57 0 2.525-1.918 4.57-4.285 4.57-2.368 0-4.287-2.045-4.287-4.57 0 2.525-1.917 4.57-4.285 4.57-2.367 0-4.286-2.045-4.286-4.57 0 2.525-1.918 4.57-4.285 4.57s-4.285-2.045-4.285-4.57c0 2.525-1.919 4.57-4.287 4.57C3.919 48.57 2 46.525 2 44v18h60V44"/><g fill="#428bc1"><path d="M23.766 59.37c-6.819.886-11.443-4.585-18.459-1.494 5.404-.33 13.593 3.919 18.459 1.494M35.407 53.42c-6.801.871-11.482-4.683-18.458-1.494 5.423-.375 13.584 3.949 18.458 1.494M47.05 59.37c-6.815.891-11.446-4.597-18.459-1.494 5.384-.327 13.623 3.931 18.459 1.494M58.693 53.42c-6.806.867-11.477-4.665-18.461-1.494 5.44-.377 13.569 3.942 18.461 1.494"/></g></svg>