<svg xmlns="http://www.w3.org/2000/svg" viewBox="0 0 64 64"><g fill="#f6c799"><path d="M21.415 7.933C17.801 5.991 15.458 2 15.458 2c-.998 10.514 2.809 13.07 4.962 13.12 2.888.065 5.166-4.94.995-7.184M42.487 7.933C46.1 5.991 48.442 2 48.442 2c1 10.514-2.808 13.07-4.96 13.12-2.889.065-5.167-4.94-.995-7.184"/></g><path fill="#6f6f6d" d="M61.976 9.298c-5.653-.188-10.295.716-13.07 2.681-1.747 2.972-2.638 8.08-2.505 14.416 5.651.186 10.744-.134 13.07-2.683 2.292-2.51 2.639-8.08 2.507-14.414"/><path fill="#f4a19a" d="M60.52 13.07c-3.956-.132-7.207.5-9.152 1.877-1.225 2.08-1.851 5.66-1.757 10.09 3.958.13 7.523-.094 9.153-1.877 1.605-1.758 1.849-5.659 1.756-10.09"/><path fill="#6f6f6d" d="M2.024 9.298c5.653-.188 10.294.716 13.07 2.681 1.747 2.972 2.64 8.08 2.507 14.416-5.653.186-10.744-.135-13.07-2.684-2.292-2.509-2.641-8.08-2.509-14.413"/><path fill="#f4a19a" d="M3.487 13.07c3.956-.132 7.207.5 9.152 1.877 1.223 2.08 1.848 5.66 1.754 10.09-3.957.13-7.521-.093-9.152-1.877-1.607-1.758-1.85-5.659-1.754-10.09"/><path fill="#dae5ef" d="M52.993 38.3C52.993 52.43 32 60.285 32 60.286c.001 0-20.991-7.856-20.991-21.986 0-20.75 8.159-31.59 20.991-31.59 12.835-.001 20.993 7.651 20.993 31.59"/><g fill="#6f6f6d"><path d="M45.37 11.34c-7.05 7.566-11.918 17.312-4.818 26.25 4.666 5.874 8.362 5.864 11.802 4.909.407-1.331.645-2.729.645-4.197-.001-13.952-2.129-22.345-7.629-26.961M23.455 37.589c6.944-8.744 2.437-18.26-4.36-25.753-5.959 5.02-8.09 13.996-8.09 26.465 0 1.469.238 2.866.644 4.197 3.439.955 7.136.965 11.802-4.909"/></g><path fill="#fff" d="M39.42 31.22s2.377 3.987 6.816 2.721c4.44-1.267 4.628-5.987 4.628-5.987s-2.378-3.984-6.818-2.719c-4.44 1.268-4.626 5.985-4.626 5.985"/><g fill="#3e4347"><ellipse cx="45.14" cy="29.584" rx="3.321" ry="3.875"/><path d="M39.42 31.22s3.773-5.901 9.739-3.533c3.701 1.469 5.077-.912 5.077-.912-2.02.319-2.854-.503-5.077-1.573-4.107-1.976-9.739-.954-9.739 6.02"/></g><path fill="#fff" d="M24.58 31.22s-2.377 3.987-6.816 2.721c-4.44-1.267-4.628-5.987-4.628-5.987s2.379-3.984 6.818-2.719c4.439 1.268 4.626 5.985 4.626 5.985"/><g fill="#3e4347"><ellipse cx="18.858" cy="29.584" rx="3.321" ry="3.875"/><path d="M24.58 31.22s-3.773-5.901-9.739-3.533c-3.701 1.469-5.077-.912-5.077-.912 2.02.319 2.854-.503 5.077-1.573 4.107-1.976 9.739-.954 9.739 6.02"/></g><path fill="#f4a19a" d="M14.792 48.23c0-8.137 4.04-4.02 17.209-4.02 13.172 0 17.206-4.119 17.206 4.02C49.207 59.775 41.11 62 32.001 62s-17.209-2.225-17.209-13.77"/><g fill="#bc6464"><path d="M26.377 50.08c-1.178-3.371-3.418-5.254-5-4.209-1.583 1.044-1.914 4.623-.735 7.993 1.179 3.372 3.423 5.255 5.01 4.21s1.914-4.624.732-7.994M42.628 45.873c-1.586-1.045-3.827.838-5 4.209-1.18 3.37-.851 6.952.732 7.994 1.586 1.045 3.824-.838 5.01-4.208 1.18-3.372.849-6.951-.734-7.995"/></g></svg>