<svg xmlns="http://www.w3.org/2000/svg" viewBox="0 0 64 64"><path fill="#e0ac7e" d="M56.34 26.14c4.181-2.971 6.474-16.405 5.396-17.593-1.081-1.193-13.489.914-16.308 5.63-2.166 3.628 7.523 14.374 10.912 11.963"/><path fill="#c1875d" d="M54.682 23.757c2.592-1.842 3.347-10.91 3.347-10.91s-8.363.57-10.11 3.492c-1.343 2.25 4.662 8.912 6.763 7.418"/><path fill="#e0ac7e" d="M7.661 26.14C3.48 23.169 1.188 9.734 2.265 8.547c1.081-1.193 13.49.914 16.307 5.63 2.168 3.628-7.521 14.374-10.911 11.963"/><path fill="#c1875d" d="M9.317 23.757c-2.59-1.842-3.345-10.91-3.345-10.91s8.362.57 10.11 3.492c1.344 2.25-4.661 8.912-6.764 7.418"/><g fill="#e0ac7e"><path d="M50.567 35.34C45.201 41.261 47.725 57.828 32 57.828c-22.519 0-13.2-16.567-18.567-22.488C1.284 21.933 21.795 12.584 32 12.584s30.717 9.349 18.567 22.756z"/><path d="M32.736 29.558s-4.229-15.225-11.319-18.865c0 0 2.881-2.193 5.244-.658 0 0-.073-2.691-2.263-4.891 0 0 4.322-.811 6.879 4 0 0-.069-4.678-1.05-7.148 0 0 7.535 3.418 10.143 12.644 0-.001-7.206 2.272-7.634 14.914"/></g><g fill="#3e4347"><ellipse cx="12.866" cy="29" rx="3.951" ry="4.36"/><ellipse cx="51.13" cy="28.845" rx="3.952" ry="4.359"/></g><path fill="#89664c" d="M33 53.64c0 2.161-3.135 3.909-7 3.909s-6.999-1.75-6.999-3.909c0-2.162 3.134-3.911 6.999-3.911 3.867 0 7 1.749 7 3.911"/><path fill="#ffe2b3" d="M39.435 52.741c0 3.217-5.231 7.837-11.435 9.09-6.583 1.335-11.436-5.878-11.436-9.09s.246.421 6.562.421 16.309-3.638 16.309-.421"/><path fill="#ff717f" d="M29.378 46.996s-5.582 2.719-6.123 9.788c-.519 6.794-9.823 7.082-9.31.081.515-6.999 6.528-9.876 8.03-9.833 1.508.048 7.06-.014 7.398-.036"/><path fill="#e2596c" d="M24.627 47.913c-.804.657-1.641 1.22-2.421 1.834-.783.611-1.524 1.269-2.16 2.02a9.09 9.09 0 0 0-1.526 2.53c-.372.924-.575 1.918-.653 2.924-.005-1.01.115-2.027.417-3.01a9.476 9.476 0 0 1 1.367-2.753c1.188-1.702 2.894-2.959 4.316-4.301l.66.751"/><path fill="#89664c" d="M42.959 47.12c0 8.809-7.083 13.571-12.375 9.109-2.067-1.741-4.315-2.735-6.332-3.733-3.468-1.717-6.939-2.151-6.939-7.72l25.646 2.344"/><path fill="#ffe2b3" d="M44.584 48.8c0 8.808-7.667 11.454-14.333 5.971-6.05-4.981-13.12-2.09-13.12-10.897 0-2.748 4.668-10.11 4.668-10.11 0-9.12 2.855-15.16 10.202-15.16s10.197 6.04 10.197 15.16c0-.001 2.387 12.28 2.387 15.03"/><g fill="#89664c"><path d="M24.653 34.901c3.532.66 5.685 1.01 7.347 4.742M39.35 34.901c-3.534.66-5.682 1.01-7.347 4.742"/><path d="M28.439 54.1c1.424-1.989 2.285-4.392 2.831-6.859.534-2.476.781-5.04.73-7.603a33.4 33.4 0 0 1 .01 7.728 24.23 24.23 0 0 1-.762 3.848c-.365 1.264-.866 2.523-1.538 3.684l-1.271-.798"/></g></svg>