<svg xmlns="http://www.w3.org/2000/svg" viewBox="0 0 64 64"><g fill="#e08828"><path d="M39.606 51.33h2.355v9.155h-2.355z"/><path d="M41.46 60.57c0-.515 1.669-1.548 3.729-1.548 2.062 0 3.733 1.033 3.733 1.548 0 .517-1.672.422-3.733.422-2.06 0-3.729.095-3.729-.422"/><path d="M37.05 60.57c0-.515 1.671-1.548 3.732-1.548s3.732 1.033 3.732 1.548c0 .517-1.672.422-3.732.422-2.061 0-3.732.095-3.732-.422"/><path d="M32.643 60.57c0-.515 1.672-1.548 3.732-1.548s3.732 1.033 3.732 1.548c0 .517-1.672.422-3.732.422s-3.732.095-3.732-.422M22.04 51.33h2.355v9.155H22.04z"/><path d="M22.541 60.57c0-.515-1.67-1.548-3.73-1.548-2.061 0-3.733 1.033-3.733 1.548 0 .517 1.672.422 3.733.422 2.06 0 3.73.095 3.73-.422"/><path d="M26.951 60.57c0-.515-1.672-1.548-3.732-1.548-2.062 0-3.732 1.033-3.732 1.548 0 .517 1.671.422 3.732.422 2.06 0 3.732.095 3.732-.422"/><path d="M31.358 60.57c0-.515-1.672-1.548-3.733-1.548s-3.73 1.033-3.73 1.548c0 .517 1.67.422 3.73.422 2.062 0 3.733.095 3.733-.422"/></g><g fill="#ffbf3e"><path d="M15.478 39.34s-16-6.537-12.785-8.104c8.861-4.319 12.785 8.104 12.785 8.104"/><path d="M15.478 39.34S1.882 27.82 5.109 26.25c8.184-3.988 10.369 13.09 10.369 13.09"/><path d="M15.478 39.34s-17.634-.595-12.56-3.068c11.392-5.553 12.56 3.068 12.56 3.068M48.52 39.34s16-6.537 12.785-8.104C52.442 26.917 48.52 39.34 48.52 39.34"/><path d="M48.52 39.34s13.596-11.52 10.369-13.09C50.705 22.262 48.52 39.34 48.52 39.34"/><path d="M48.52 39.34s17.635-.595 12.56-3.068c-11.392-5.553-12.56 3.068-12.56 3.068"/></g><g fill="#ffd93b"><path d="M33.982 24.731c2.41 4.229-10.898 4.431-11.736-5.918C21.409 8.465 27.956 3 27.956 3s-.422 10.423 6.03 21.731"/><path d="M32.69 21.653c-1.782 4.552-9.987-6.343-2.565-13.295s15.568-4.837 15.568-4.837-8.24 5.954-13 18.13"/><path d="M26.24 31.41c1.781 4.552 9.986-6.343 2.565-13.295s-15.568-4.837-15.568-4.837 8.24 5.954 13 18.13"/><path d="M50.76 39.866c0 11.245-8.4 12.985-18.761 12.985-10.362 0-18.757-1.74-18.757-12.985 0-23.03 9.174-27.738 18.757-27.738 9.58 0 18.761 4.705 18.761 27.738"/></g><path fill="#e08828" d="M28.22 36.977h7.563c0 2.321-1.891 3.887-3.782 3.887s-3.781-1.566-3.781-3.887"/><path fill="#f29a2e" d="M35.781 36.977s-2.431 1.089-3.782 1.089-3.78-1.089-3.78-1.089c0-2.89 1.693-5.229 3.78-5.229 2.089-.001 3.782 2.339 3.782 5.229"/><g fill="#bc9342"><path d="M44.74 26.356c-.361-.742-.795-1.459-1.379-2.063-.574-.609-1.299-1.119-2.15-1.347a3.358 3.358 0 0 0-2.525.36c-.748.419-1.316 1.061-1.75 1.757.652-.486 1.313-.919 2-1.192.689-.27 1.408-.337 2.09-.151.688.168 1.332.568 1.939 1.039.603.478 1.174 1.04 1.773 1.597M19.26 26.356c.362-.742.795-1.459 1.381-2.063.572-.609 1.298-1.119 2.148-1.347a3.357 3.357 0 0 1 2.525.36c.748.419 1.316 1.061 1.751 1.757-.651-.486-1.313-.919-2-1.192-.689-.27-1.408-.337-2.088-.151-.688.168-1.333.568-1.941 1.039-.602.478-1.174 1.04-1.773 1.597"/></g><g fill="#3e4347"><path d="M20.865 32.18c0-1.358 1.028-2.811 2.298-2.811 1.267 0 2.296 1.452 2.296 2.811s-1.029 1.953-2.296 1.953c-1.269 0-2.298-.595-2.298-1.953M38.541 32.18c0-1.358 1.027-2.811 2.297-2.811 1.267 0 2.297 1.452 2.297 2.811s-1.03 1.953-2.297 1.953c-1.27 0-2.297-.595-2.297-1.953"/></g><path fill="#ffea92" d="M44.07 51.14c.048-.28.075-.564.075-.852 0-4.325-5.437-7.831-12.144-7.831-6.705 0-12.142 3.506-12.142 7.831 0 .288.027.572.075.852 3.261 1.363 7.469 1.708 12.07 1.708s8.808-.345 12.07-1.708"/></svg>