<svg xmlns="http://www.w3.org/2000/svg" viewBox="0 0 64 64"><ellipse fill="#89664c" cx="53.748" cy="32.969" rx="8.251" ry="8.231"/><ellipse fill="#ffc5d3" cx="53.748" cy="32.969" rx="5.372" ry="5.36"/><ellipse fill="#89664c" cx="10.25" cy="32.969" rx="8.25" ry="8.231"/><ellipse fill="#ffc5d3" cx="10.25" cy="32.969" rx="5.372" ry="5.36"/><g fill="#89664c"><path d="M43.38 10.781c1.145-.604 1.886-.908 1.886-.908-3.237-1.138-6.05-1.803-8.477-2.105 1.279-.962 2.133-1.329 2.133-1.329-20.417-2.878-30.14 8.956-30.14 19.457l46.44.002c-.697-7.312-4.781-12.316-11.843-15.12"/><path d="M55.32 27.568c0-9.707-10.443-17.574-23.325-17.574S8.671 17.861 8.671 27.568c0 2.271.592 4.436 1.633 6.428-1.041 1.994-1.633 4.157-1.633 6.43C8.671 50.132 19.113 58 31.995 58S55.32 50.132 55.32 40.426c0-2.272-.592-4.436-1.633-6.43 1.041-1.992 1.633-4.156 1.633-6.428"/></g><path fill="#e0ac7e" d="M52.02 28.2c0-16.934-20.02-6.146-20.02-6.146S11.98 11.266 11.98 28.2c0 4.738 2.917 8.962 7.473 11.719-1.329 1.657-2.106 3.591-2.106 5.666 0 6.082 6.561 11.01 14.654 11.01s14.654-4.928 14.654-11.01c0-2.075-.778-4.01-2.106-5.666 4.555-2.757 7.473-6.981 7.473-11.719"/><g fill="#3b302a"><path d="M35.15 38.746c0 1.138-.447 2.057-1 2.057s-1-.919-1-2.057c0-1.133.447-2.059 1-2.059s1 .926 1 2.059M30.854 38.746c0 1.138-.447 2.057-1 2.057s-1-.919-1-2.057c0-1.133.447-2.059 1-2.059s1 .926 1 2.059"/></g><path fill="#fff" d="M36.833 30.23s.354-3.798 3.292-5.02c3.314-1.374 5.575 1.983 6.188 3.903.906 2.83-.23 5.929-.567 6.644-.224.47-2.672 2.694-8.191.589 0 .001-1.375-3.15-.722-6.12"/><ellipse fill="#3b302a" cx="40.683" cy="31.746" rx="3" ry="4.115"/><path fill="#fff" d="M27.17 30.23s-.354-3.798-3.292-5.02c-3.313-1.374-5.575 1.982-6.188 3.903-.906 2.83.23 5.929.568 6.644.222.47 2.671 2.694 8.191.589 0 .001 1.374-3.15.721-6.12"/><g fill="#3b302a"><ellipse cx="23.32" cy="31.746" rx="3" ry="4.115"/><path d="M40.13 43.723c-.709 1.441-1.559 2.834-2.708 4.01-1.124 1.181-2.548 2.173-4.219 2.614-1.671.436-3.514.152-4.955-.695-1.469-.816-2.585-2.061-3.436-3.42 1.276.947 2.577 1.788 3.929 2.318 1.354.521 2.762.654 4.101.293 1.351-.326 2.615-1.103 3.807-2.02 1.184-.927 2.305-2.02 3.481-3.099"/></g><g fill="#bf936c"><path d="M38.496 42.01a3.4 3.4 0 0 1 1.487-.479 2.646 2.646 0 0 1 1.634.358c.514.321.912.878 1.01 1.457a2.683 2.683 0 0 1-.16 1.625c-.199-.505-.343-.975-.565-1.351-.225-.373-.472-.652-.8-.846-.651-.43-1.584-.506-2.603-.764M22.624 47.863a3.017 3.017 0 0 1-.454-1.339 2.454 2.454 0 0 1 .299-1.499c.28-.475.77-.842 1.272-.919a2.1 2.1 0 0 1 1.396.192c-.43.205-.821.35-1.129.555-.304.209-.524.422-.681.706-.351.557-.433 1.381-.703 2.304"/></g></svg>