<svg xmlns="http://www.w3.org/2000/svg" viewBox="0 0 64 64"><path fill="#f29a2e" d="M12.591 7.342c-5.03-.821-9.797 2.228-10.44 6.843-1.883 13.544 14.412 10.5 14.412 10.5.737-4.602 1.055-16.521-3.972-17.343"/><path fill="#af5a31" d="M10.776 12.281c-2.682-.439-5.227 1.189-5.568 3.651-1.01 7.225 7.688 5.603 7.688 5.603.394-2.456.564-8.816-2.12-9.254"/><path fill="#f29a2e" d="M51.41 7.342c5.03-.822 9.795 2.228 10.438 6.843 1.883 13.544-14.41 10.5-14.41 10.5-.737-4.602-1.055-16.521 3.972-17.343"/><path fill="#af5a31" d="M53.23 12.281c2.682-.439 5.225 1.189 5.568 3.651 1 7.225-7.689 5.603-7.689 5.603-.393-2.456-.563-8.816 2.121-9.254"/><g fill="#f29a2e"><path d="M5.584 42.24c0 8.587 11.828 14.763 26.418 14.763 14.588 0 26.414-6.176 26.414-14.763 0-11.285.758-19.767-6.209-24.777-4.723-3.396-16.916-6.419-20.2-6.419-3.293 0-15.486 3.02-20.21 6.419C4.83 22.473 5.59 30.955 5.59 42.24"/><path d="M30.824 7c.338 1.206-.654 2.17-.654 2.17-1.66-1.458-4.969-1.964-4.969-1.964 1.273.992.936 2.521.936 2.521-2.293-.575-4.211-.466-4.211-.466 4.709 2.331 3.668 9.349 3.668 9.349 5.586-3.881 12.5-5.745 12.5-5.745C36.506 9.289 30.824 7 30.824 7"/></g><path fill="#fff" d="M38.704 32.902s.438-4.599 4.063-6.073c4.089-1.662 6.88 2.402 7.637 4.725 1.118 3.429-.285 7.178-.701 8.04-.275.57-3.296 3.262-10.11.713-.001 0-1.696-3.813-.891-7.408"/><path fill="#db8823" d="M38.704 32.902a8.776 8.776 0 0 1 1.545-4.616 6.135 6.135 0 0 1 1.789-1.645 5.393 5.393 0 0 1 1.073-.501 5.326 5.326 0 0 1 1.176-.271c1.622-.215 3.26.563 4.433 1.721 1.172 1.183 2.074 2.658 2.516 4.41.395 1.738.293 3.527-.079 5.184-.198.83-.453 1.629-.794 2.414l-.142.301-.056.102-.088.125a2.133 2.133 0 0 1-.136.16c-.172.181-.343.32-.52.445a5.639 5.639 0 0 1-1.086.577c-1.487.597-3.043.618-4.517.397a15.311 15.311 0 0 1-4.226-1.396c1.427.349 2.853.654 4.279.659 1.416.042 2.842-.157 4.071-.755.306-.149.595-.332.849-.535.123-.104.246-.211.333-.314l.05-.063c-.002 0-.003.006-.002.007l.015-.028.103-.244c.267-.689.476-1.438.62-2.187.3-1.493.363-3.046.019-4.462-.317-1.394-1.108-2.723-2.063-3.737-.96-1.028-2.204-1.651-3.512-1.61a4.55 4.55 0 0 0-.969.141c-.34.092-.657.201-.966.349a5.278 5.278 0 0 0-1.686 1.253c-1.01 1.062-1.665 2.55-2.029 4.119"/><ellipse fill="#4c5359" cx="43.683" cy="34.572" rx="3" ry="4"/><path fill="#fff" d="M25.295 32.902s-.437-4.599-4.062-6.073c-4.089-1.662-6.879 2.401-7.637 4.725-1.118 3.429.286 7.178.702 8.04.274.57 3.295 3.262 10.11.713.001 0 1.696-3.813.89-7.408"/><path fill="#db8823" d="M25.295 32.902c-.364-1.569-1.021-3.06-2.03-4.12a5.285 5.285 0 0 0-1.685-1.253 5.701 5.701 0 0 0-.967-.349 4.541 4.541 0 0 0-.97-.141c-1.307-.041-2.552.582-3.511 1.61-.955 1.015-1.745 2.344-2.063 3.737-.345 1.414-.282 2.969.019 4.462.146.748.354 1.497.62 2.187l.103.244a7.47 7.47 0 0 0 .013.021l.049.063c.089.104.209.211.334.314.254.203.543.386.849.535 1.229.598 2.655.797 4.07.755 1.428-.005 2.854-.311 4.28-.659a15.251 15.251 0 0 1-4.227 1.396c-1.473.221-3.03.199-4.516-.397a5.69 5.69 0 0 1-1.089-.577 3.606 3.606 0 0 1-.516-.445 1.91 1.91 0 0 1-.138-.16L13.833 40l-.056-.102-.142-.301a14.078 14.078 0 0 1-.792-2.416c-.374-1.654-.477-3.443-.081-5.184.442-1.75 1.345-3.226 2.516-4.408 1.174-1.157 2.811-1.936 4.433-1.721.401.051.782.127 1.177.271.357.126.73.287 1.072.501a6.12 6.12 0 0 1 1.789 1.645 8.772 8.772 0 0 1 1.546 4.617"/><ellipse fill="#4c5359" cx="20.32" cy="34.572" rx="3" ry="4"/><path fill="#fff" d="M41.927 40.02c-5.212-4.452-5.061-15.482-8.02-19.359-1.332-1.751-2.484-1.751-3.816 0-2.957 3.877-2.807 14.908-8.02 19.359-4.181 3.57-11.672-2.74-12.906.191-1.123 2.668 1.362 15.401 22.836 15.401 21.47 0 23.954-12.735 22.83-15.401-1.235-2.932-8.727 3.379-12.906-.191"/><path fill="#4c5359" d="M38.455 47.99c-.732.448-1.58.63-2.398.591-.826-.061-1.607-.322-2.236-.822-.627-.482-1.09-1.172-1.225-1.932l-.592-3.367-.6 3.367c-.137.759-.596 1.449-1.227 1.93-.613.501-1.436.762-2.215.822-.863.039-1.672-.141-2.416-.589a3.826 3.826 0 0 1-1.664-2.04c.045.963.568 1.898 1.318 2.545.744.645 1.764 1.024 2.723 1.066 1.041.059 2.047-.236 2.922-.831a4.324 4.324 0 0 0 1.154-1.216c.311.481.703.898 1.156 1.214.861.595 1.906.89 2.9.833a4.554 4.554 0 0 0 2.742-1.068c.75-.646 1.273-1.58 1.318-2.543a3.803 3.803 0 0 1-1.66 2.04"/><path fill="#f15a61" d="M37.609 40.514c-1.125-.849-4.58-.912-5.607-.912-1.032 0-4.484.063-5.612.912-.799.601-.18 2.095 1.95 3.386 1.346.813 2.63 1.069 3.662 1.069 1.027 0 2.313-.257 3.656-1.069 2.132-1.292 2.751-2.786 1.951-3.386"/></svg>