<svg xmlns="http://www.w3.org/2000/svg" viewBox="0 0 64 64"><path fill="#fc97b2" d="M20.594 14.79c-2.381-4.463-18.218-3.129-18.218-3.129S.509 27.721 5.099 30.215C8.633 32.129 22.523 18.41 20.594 14.79"/><path fill="#ffd7e4" d="M17.618 17.241c-1.476-2.768-11.292-1.939-11.292-1.939s-1.157 9.959 1.688 11.501c2.19 1.187 10.801-7.318 9.604-9.562"/><path fill="#fc97b2" d="M58.67 30.1c4.482-2.369 3.143-18.14 3.143-18.14s-16.14-1.859-18.637 2.711c-1.923 3.516 11.858 17.346 15.494 15.425"/><path fill="#ffd7e4" d="M56.21 27.14c2.779-1.47 1.948-11.244 1.948-11.244s-10-1.151-11.553 1.682c-1.191 2.178 7.35 10.753 9.605 9.562"/><path fill="#fc97b2" d="M58.801 39.37c0 17.397-11.999 20.635-26.8 20.635s-26.8-3.238-26.8-20.635c0-17.397 16.467-29.88 26.8-29.88s26.8 12.483 26.8 29.88"/><path fill="#ffd7e4" d="M46.05 49.756c0 8.08-6.287 7.15-14.04 7.15s-14.04.932-14.04-7.15 6.287-12.137 14.04-12.137 14.04 4.055 14.04 12.137"/><g fill="#bf7b90"><ellipse cx="25.735" cy="48.04" rx="3.439" ry="6.26"/><ellipse cx="38.27" cy="48.04" rx="3.438" ry="6.26"/><path d="M32 22.616s-2.976-10.04-9.67-11.92c0 0 3-1.745 5.211-.899 0 0 .138-1.832-1.846-3.146 0 0 4.316-.927 6.457 2.144 0 0 .296-3.189-.477-4.794 0 0 7.148 1.688 8.996 7.769.001-.001-7.267 2.17-8.671 10.846"/></g><g fill="#493b30"><ellipse cx="15.628" cy="34.552" rx="3.089" ry="5.6"/><ellipse cx="48.37" cy="34.406" rx="3.09" ry="5.6"/></g></svg>