<svg xmlns="http://www.w3.org/2000/svg" viewBox="0 0 64 64"><path fill="#231f20" d="M62 32S51.879 52 32 52C12.123 52 2 32 2 32s10.123-20 30-20c19.879 0 30 20 30 20"/><path fill="#fff" d="M57 32s-8.434 16.665-25 16.665C15.436 48.665 7 32 7 32s8.436-16.668 25-16.668C48.566 15.332 57 32 57 32z"/><path fill="#42ade2" d="M45.4 32c0 7.463-6.05 13.501-13.5 13.501-7.457 0-13.5-6.04-13.5-13.501 0-7.454 6.04-13.5 13.5-13.5 7.454 0 13.5 6.05 13.5 13.5"/><path fill="#231f20" d="M39.4 31.995c0 4.148-3.359 7.509-7.496 7.509a7.505 7.505 0 0 1-7.504-7.509c0-4.142 3.359-7.491 7.504-7.491a7.493 7.493 0 0 1 7.496 7.491"/></svg>