<svg xmlns="http://www.w3.org/2000/svg" viewBox="0 0 64 64"><path fill="#ed4c5c" d="M32 22.519c-6.312 0-30 10.183-30 10.183C7.631 39.587 5.646 49.5 32 49.5c23.688 0 23.18-8.456 30-16.799 0 0-23.688-10.182-30-10.182"/><path fill="#60452b" d="M32 20.627L5.857 31.174C12.654 39.485 20.352 36.29 32 36.29c11.609 0 19.213 3.148 26.143-5.116L32 20.627z"/><path fill="#fff" d="M58.47 30.959c0-1.719-11.191-9.924-26.466-9.924S5.538 29.24 5.538 30.959H58.47"/><path fill="#ed4c5c" d="M44.38 14.871c-2.529-.767-6.226-.398-11.11 1.602-.418.154-.845.319-1.271.5a28.97 28.97 0 0 0-1.271-.5c-4.884-2-8.58-2.368-11.11-1.602-7.421 2.204-17.621 17.83-17.621 17.83 6.272.751 14.51-8.531 30-8.531s23.728 9.282 30 8.531c0 0-10.2-15.626-17.619-17.83"/></svg>