<svg xmlns="http://www.w3.org/2000/svg" viewBox="0 0 64 64"><g fill="#ffdd67"><ellipse cx="16.852" cy="48.648" rx="9.852" ry="9.537"/><ellipse cx="47.15" cy="48.648" rx="9.852" ry="9.537"/></g><g fill="#ffc95c"><path d="M47.15 49.4c-3.81 0-6.896 2.096-6.896 4.689a3.4 3.4 0 0 0 .518 1.77c1.722 1.431 3.933 2.324 6.379 2.324 2.447 0 4.657-.894 6.38-2.324a3.407 3.407 0 0 0 .517-1.77c-.001-2.593-3.09-4.689-6.898-4.689M16.851 49.4c3.81 0 6.898 2.096 6.898 4.689a3.4 3.4 0 0 1-.518 1.77c-1.722 1.431-3.933 2.324-6.381 2.324-2.447 0-4.655-.894-6.379-2.324a3.406 3.406 0 0 1-.516-1.77c.001-2.593 3.088-4.689 6.896-4.689"/><path d="M31.998 53.32c-3.056 0-6.973-.909-12.354-1.972l1.092 6.06c2.861 2.831 6.847 4.589 11.262 4.589 4.416 0 8.401-1.758 11.263-4.589l1.094-6.06c-5.382 1.063-9.301 1.972-12.357 1.972"/></g><g fill="#ad6c3f"><path d="M17.583 53.16c3.651 1.146 4.743 5.617 4.743 5.617s-2.535-1.903-5.436-2.51c-6.739-1.416-3.814-4.523.693-3.107M46.42 53.16c-3.651 1.146-4.742 5.617-4.742 5.617s2.534-1.903 5.436-2.51c6.741-1.416 3.813-4.523-.694-3.107"/></g><path fill="#ffdd67" d="M43.05 21.19C43.05 5.03 38.107 2 32 2c-6.104 0-11.05 3.02-11.05 19.19 0 4.725-3.728 18.381-3.728 23.99 0 8.308 6.614 8.617 14.778 8.617 8.167 0 14.78-.31 14.78-8.617-.001-5.613-3.728-19.266-3.728-23.99"/></svg>