<svg xmlns="http://www.w3.org/2000/svg" viewBox="0 0 64 64"><g fill="#dde8e3"><path d="M2 31.428C2 40.23 5.738 53 17.001 53 28.262 53 32 40.23 32 31.428c0-27.237-30-27.237-30 0zM32 31.428C32 40.23 35.738 53 47.002 53 58.264 53 62 40.23 62 31.428c0-27.237-30-27.237-30 0z"/></g><g fill="#fff"><path d="M2.798 32.09c0 7.561 2.381 19.346 11.968 19.346 9.586 0 11.966-11.785 11.966-19.346.001-26.03-23.934-26.03-23.934 0M32.799 32.09c0 7.561 2.38 19.346 11.968 19.346 9.586 0 11.967-11.785 11.967-19.346 0-26.03-23.935-26.03-23.935 0"/></g><g fill="#493b30"><path d="M2.798 32.25c0 6.211 4.352 10.965 9.726 10.965 5.372 0 9.724-4.754 9.724-10.965 0-15.276-19.45-15.276-19.45 0M32.799 32.25c0 6.211 4.353 10.965 9.726 10.965 5.371 0 9.723-4.754 9.723-10.965 0-15.276-19.449-15.276-19.449 0"/></g></svg>