<svg xmlns="http://www.w3.org/2000/svg" viewBox="0 0 64 64"><path fill="#e5e5e5" d="M0 46h64v8H0z"/><path fill="#3e4347" d="M0 49.5h64v1H0z"/><path fill="#9f9e9c" d="M0 53h64v1H0z"/><g fill="#e5e5e5"><path d="M64 46H52v-6c6.627 0 12 2.686 12 6M1 47h5v6H1z"/></g><path fill="#9f9e9c" d="M5 46h1v8H5z"/><g fill="#3e4347"><path d="M0 46h64v1H0zM52 46v-6s-15.16-6.334-19.21-9.912c-6.791-6-8.459-17.333-8.375-19 .063-1.258-4.02-.18-5 .609-.441.355-.729 1.574-.75 2.141-.156 4.204 4.375 16.25 4.375 16.25L51.999 46"/></g><path fill="#4f5559" d="M46.979 39.27c-5.188-2.336-9.281-2.855-13.563-5.188-9.334-5.082-13.1-16.755-13.875-17.12-2.736-1.307-7.709 2.292-11.957 2.042C3.503 18.765 0 15.755 0 15.755s1.874 6.176 2.422 10.543c.234 1.868.328 5.874-1.422 9.708C-.042 38.287 0 46 0 46h52s-.521-4.697-5.02-6.725"/><g fill="none" stroke-miterlimit="10"><g stroke="#f5f5f5"><circle cx="17.926" cy="20.923" r="1.602"/><circle cx="20.669" cy="26.05" r="1.602"/><circle cx="24.398" cy="30.877" r="1.602"/><circle cx="28.793" cy="34.727" r="1.602"/><circle cx="33.601" cy="37.93" r="1.602"/><circle cx="38.99" cy="40" r="1.602"/><circle cx="44.41" cy="41.13" r="1.602"/></g><g stroke="#ccc"><g stroke-width="2"><path d="M17.926 20.923s8.132-2.334 8.364-5.168M20.669 25.959s7.249-3.87 6.9-6.691M24.398 30.877s5.579-4.459 4.813-7.193M28.793 34.836s4.113-4.947 2.891-7.51M33.602 38.16s3.194-4.991 1.731-7.424M38.99 40.06s2.229-4.798.557-7.09M44.41 41.16s.95-3.766-.759-6.03"/></g><g stroke-width=".5"><path d="M1 17.651s.167.078.451.206"/><path stroke-dasharray="0.9946 0.9946" d="M2.358 18.258c1.562.676 4.077 1.692 5.37 1.831 2.836.304 7.743-2.615 10.563-2.188 1.237.188 8.338 14.266 13.375 16.542 5.438 2.457 13.465 4.336 16.813 6.689 1.097.771 2.364 2.811 3.04 3.99"/><path d="M51.765 45.562c.149.272.235.438.235.438s-.175-.027-.49-.079"/><path stroke-dasharray="0.9927 0.9927" d="M50.53 45.761c-3.719-.618-13.466-2.315-16.932-3.673-3.688-1.442-9.482-5.433-12.06-8.438-2.482-2.892-7.12-11.79-8.579-14.639"/><path d="M12.735 18.567l-.225-.443"/></g></g></g></svg>