<svg xmlns="http://www.w3.org/2000/svg" viewBox="0 0 64 64"><path fill="#ff99b6" d="M1.699 24.09L.604 11.311s8.652-3.563 11.733-4.082C17.176 6.415 26.357 5.188 32 5.188s14.824 1.227 19.663 2.041c3.081.519 11.733 4.082 11.733 4.082L62.3 24.09l-12.06.933c-.205 13.653 1.875 30.522 2.577 36.1 0 0-8.912.358-20.807.47h-.009c-.004 0-.009.002-.011 0-11.893-.111-20.807-.47-20.807-.47.702-5.572 2.782-22.444 2.577-36.1L1.7 24.09"/><g fill="#ff78a5"><path d="M31.99 12.357h1.17v49.24h-1.17z"/><path d="M26.25 5.597h11.496v6.958H26.25z"/></g><path fill="#ff99b6" d="M21.799 0h20.402v6.552H21.799z"/><g fill="#ffd2df"><path d="M42.2 0l3.87 6.171-7.362 11.553L32 12.579zM21.799 0L17.93 6.171l7.362 11.553L32 12.579z"/></g><ellipse fill="#ff78a5" cx="28.934" cy="20.398" rx="2.606" ry="2.64"/><ellipse fill="#fff3f7" cx="28.934" cy="20.09" rx="2.502" ry="2.331"/><ellipse fill="#ff78a5" cx="28.934" cy="28.902" rx="2.606" ry="2.64"/><ellipse fill="#fff3f7" cx="28.934" cy="28.594" rx="2.502" ry="2.331"/><ellipse fill="#ff78a5" cx="28.934" cy="37.41" rx="2.606" ry="2.64"/><ellipse fill="#fff3f7" cx="28.934" cy="37.1" rx="2.502" ry="2.331"/><ellipse fill="#ff78a5" cx="28.934" cy="45.912" rx="2.606" ry="2.64"/><ellipse fill="#fff3f7" cx="28.934" cy="45.604" rx="2.502" ry="2.33"/><ellipse fill="#ff78a5" cx="28.934" cy="54.42" rx="2.606" ry="2.641"/><ellipse fill="#fff3f7" cx="28.934" cy="54.11" rx="2.502" ry="2.331"/><g fill="#ffd2df"><path d="M63.999 11.1l-3.329-1.08-1.19 14.541 3.56-.301zM-.001 11.1l3.331-1.08 1.185 14.541-3.558-.301zM31.99 59.05c.002.004.007 0 .011 0h.009c10.729-.163 19.213-1.649 20.564-2.543.066 1.918.147 3.543.242 4.783 0 0-8.912 2.526-20.807 2.708H32c-.004 0-.009.003-.011 0-11.893-.182-20.807-2.708-20.807-2.708.095-1.238.176-2.865.242-4.783 1.351.892 9.838 2.38 20.566 2.543"/></g><path fill="#ff99b6" d="M31.99 59.07h1.17v4.929h-1.17z"/></svg>