<svg xmlns="http://www.w3.org/2000/svg" viewBox="0 0 64 64"><path fill="#d0d0d0" d="M64 59.675C64 62.063 61.795 64 59.076 64H4.924C2.205 64 0 62.063 0 59.675V9.081c0-2.389 2.205-4.324 4.924-4.324h54.152C61.795 4.757 64 6.692 64 9.081v50.594z"/><g fill="#94989b"><path d="M48.902 9.514H15.1L18.378 0h27.24z"/><path d="M18.376 2.883L15.1 9.514 27.07 27.24V15.06zM45.616 2.883l3.286 6.631L36.92 27.24V15.06z"/></g><g fill="#fff"><path d="M18.378 0L15.1 9.514 27.08 24.36V12.18zM45.62 0l3.282 9.514L36.923 24.36V12.18z"/></g><path fill="#42ade2" d="M37.744 24.36H26.26l-3.284 32.432L32.056 64l8.97-7.208z"/><path fill="#428bc1" d="M38.07 27.626l-.33-3.266H26.253l-.338 3.327c2.438 1.746 9.557 1.596 12.155-.061"/><path fill="#42ade2" d="M38.563 24.36c-2.179 2.154-11.231 2.353-13.13 0-2.02-2.502 1.64-12.181 1.64-12.181s3.694 1.443 4.924 1.443 4.923-1.442 4.923-1.442 3.959 9.888 1.64 12.18"/></svg>