<svg xmlns="http://www.w3.org/2000/svg" viewBox="0 0 64 64"><path fill="#b54152" d="M21.91 2.225h18.5l-8.35 9.439z"/><path fill="#d39762" d="M41.2 3.305H22.05V0h19.545z"/><path fill="#ed4c5c" d="M11.02 4.62l10.139-2.944 10.755 7.845 10.757-7.845L52.809 4.62s.822 13.491 9.865 25.51c0 0-2.191 8.094-10 14.473 0 0-5.217-15.311-6.168-28.7 0 0-.547 5.887-3.834 12.756-2.437 5.093 8.881 18.362 8.09 32.936 0 0-9.05 2.404-18.842 2.404-9.796 0-18.841-2.404-18.841-2.404-.796-14.584 10.527-27.832 8.09-32.936-3.288-6.869-3.835-12.756-3.835-12.756-.949 13.389-6.167 28.7-6.167 28.7-6.04-7.124-10-14.473-10-14.473 9.04-12.02 9.866-25.51 9.866-25.51"/><path fill="#eaac6e" d="M29.586 11.438l2.474-2.126L22.05 0l-2.468 2.125z"/><g fill="#ffc78a"><path d="M22.423 22.319c-1.078-.205-2.252-.43-3.477-.669.303-.539.643-1.092 1.021-1.66 1.854-2.771 4.691-5.966 8.43-9.491C34.694 4.561 41.315.202 41.595 0l2.151 1.95c-.066.048-6.723 4.869-12.865 10.66-3.565 3.363-6.248 6.376-7.974 8.955-.172.256-.334.507-.484.754"/><path d="M44.04 36.674c-3.924-.656-8.921-.914-13.238-.914-3.466 0-7.648.15-10.874.58.942-2.799 2.136-4.766 1.034-7.06a45.364 45.364 0 0 1-2.898-7.876c4.406.568 9.05.872 13.853.872 4.803 0 9.447-.304 13.854-.872a45.487 45.487 0 0 1-2.897 7.876c-1.15 2.393.139 4.417 1.166 7.398"/></g><path fill="#eaac6e" d="M42.907 29.861l-23.609-2.91-.844-4.318 26.352 3.248z"/><path fill="#ffc78a" d="M21.07 36.27h4.065v27.732H21.07z"/><path fill="#eaac6e" d="M43.636 34.868l-24.24 2.01 1.321-4.263 21.924-1.861z"/><g fill="#ffc78a"><path d="M12.13 41.539l-1.09 4.115L0 31.433l2.14-2.664zM51.801 41.865l1.162 4.057 11.04-14.221-2.123-2.661zM41.02 23.614h1.768v27.732H41.02zM38.638 26.949h1.768v27.732h-1.768z"/></g><g fill="#eaac6e"><path d="M39.521 24.683h1.768v27.732h-1.768z"/><path d="M43.17 24.19c0 1.688-2.144 3.059-2.144 3.059s-2.143-1.37-2.143-3.059c0-1.69.959-.723 2.143-.723s2.144-.967 2.144.723"/></g><path fill="#d39762" d="M40.25 24.363c1.155 1.237.522 3.561.522 3.561s-2.507.318-3.662-.918c-1.156-1.238.209-1.121 1.076-1.851.868-.73.909-2.03 2.064-.792"/><path fill="#ffc78a" d="M43.849 27.02c-1.027.995-3.123.626-3.123.626s-.429-1.982.6-2.977c1.029-.995 1 .101 1.702.75.697.649 1.85.605.821 1.601"/></svg>