<svg xmlns="http://www.w3.org/2000/svg" viewBox="0 0 64 64"><path fill="#ffbc00" d="M17.485 2C7.465 2 2 8.332 2 16.67v18.508h30.969V16.67c0-12.396-8.382-12.164-8.382-12.164S23.955 2 17.485 2"/><path fill="#ffdd67" d="M6.441 23.644s-2.229-.57-2.229-3.869c0-2.613 1.682-3.063 1.682-3.063 6.02 0 15.839-7.828 15.839-7.828s3.71 6.912 7.29 7.828c0 0 1.734.318 1.734 3.063 0 3.299-2.313 3.869-2.313 3.869-.031 4.979-6.831 10.984-10.959 10.984-4.13 0-11.04-6.01-11.04-10.984"/><path fill="#eba352" d="M20.251 25.917c0 1.086-2.25 1.398-2.766 1.398s-2.766-.385-2.766-1.469c.001.001 5.532-.472 5.532.071"/><path fill="#f5f5f5" d="M13.718 21.581c.65 0 .566-1.68.566-1.68-1.996-4.457-6.441-1.637-6.441-1.637-1.727.771.774 3.209 1.175 3.316 1.882.511 4.7.001 4.7.001"/><circle fill="#664e27" cx="11.12" cy="19.542" r="2.125"/><g fill="#231f20"><path d="M11.864 19.542a.749.749 0 1 1-.748-.75c.412 0 .748.334.748.75"/><path d="M14.841 20.544c-.544-.662-1.082-1.301-1.707-1.787-.623-.48-1.324-.789-2.08-.836-.758-.072-1.551.088-2.373.244-.411.08-.836.158-1.279.184-.431.02-.946-.033-1.253-.361.405.158.802.074 1.188-.041.389-.111.773-.271 1.176-.406.797-.281 1.675-.516 2.609-.445.461.047.924.164 1.346.369.415.211.791.486 1.1.814.622.654 1.031 1.443 1.273 2.265"/></g><path fill="#f5f5f5" d="M21.251 21.581c-.65 0-.566-1.68-.566-1.68 1.996-4.457 6.441-1.637 6.441-1.637 1.729.771-.774 3.209-1.176 3.316-1.882.511-4.699.001-4.699.001"/><circle fill="#664e27" cx="23.854" cy="19.542" r="2.125"/><g fill="#231f20"><path d="M24.604 19.542a.749.749 0 1 1-.751-.75c.416 0 .751.334.751.75"/><path d="M20.13 20.544c.242-.822.65-1.611 1.273-2.266a3.977 3.977 0 0 1 1.102-.814c.42-.205.883-.324 1.344-.369.934-.07 1.813.164 2.609.445.402.135.787.295 1.176.406.387.115.783.199 1.188.041-.306.328-.821.381-1.252.361a9.481 9.481 0 0 1-1.28-.184c-.821-.156-1.614-.316-2.37-.244-.758.047-1.459.355-2.082.836-.628.487-1.164 1.126-1.708 1.788"/></g><path fill="#f09985" d="M19.447 28.577c-.401-.1-.987-.053-1.76.207-.069.02-.136.043-.202.064-.068-.021-.137-.045-.204-.064-.772-.26-1.358-.307-1.76-.207-1.198.291-3.02.148-3.02.148 1.321 1.32 1.949 3.121 4.979 3.121 3.03 0 3.655-1.801 4.977-3.121 0 .001-1.816.143-3.01-.148"/><path fill="#d47f6c" d="M19.447 28.577c-.401-.1-.987-.053-1.76.207-.069.02-.136.043-.202.064-.068-.021-.137-.045-.204-.064-.772-.26-1.358-.307-1.76-.207-1.178.285-3.02.148-3.02.148 1.992.359 2.242 1.377 4.979 1.377 2.734 0 2.982-1.018 4.977-1.377.006.001-1.84.137-3.01-.148"/><path fill="#ffbc00" d="M31.896 17.321l1.508 2.756h26.23l1.142-2.943c0-10.553-2.453-15.02-14.13-15.13-11.797-.109-14.745 4.574-14.745 15.318"/><path fill="#ffdd67" d="M59.681 17.14c-.092.609-.217 1.182-.389 1.506-.311.58-.939.91-.939.91s.17-1.178.109-2.824c-.658-9.729-1.227-7.05-11.945-7.05-10.715 0-11.285-2.67-11.945 7.04-.061 1.656.107 2.84.107 2.84s-.631-.33-.939-.91c-.172-.324-.297-.896-.387-1.506-1.014-.266-2.319-.043-2.319 2.877 0 1.816.665 3.307 2.911 3.469.954 7.365 3.803 8.563 9.525 11.178 1.506.688 4.588.688 6.094 0 5.723-2.615 8.569-3.813 9.525-11.178C61.335 23.329 62 21.839 62 20.023c0-2.92-1.306-3.143-2.319-2.877"/><path fill="#574137" d="M52.29 27.735c0 1.887-2.527 3.473-5.647 3.473-3.119 0-5.646-1.586-5.646-3.473 0 0 3 .168 5.648.168 2.642 0 5.645-.168 5.645-.168"/><path fill="#fff" d="M51.811 28c0 .953-2.313 1.707-5.169 1.707s-5.17-.754-5.17-1.707c0 0 2.442.189 5.17.189 2.726 0 5.169-.189 5.169-.189"/><path fill="#eba352" d="M49.47 25.17c0 1.1-2.296 1.416-2.825 1.416-.527 0-2.822-.389-2.822-1.486-.001 0 5.647-.475 5.647.07"/><path fill="#f5f5f5" d="M36.08 17.522c-.18.836-.393 2.941 3.58 2.867 4.115-.078 3.952.277 4.152-1.113.174-1.217-1.268-2.568-3.404-3.053-2.133-.486-4.074.098-4.328 1.299"/><ellipse fill="#664e27" cx="40.32" cy="18.14" rx="2.171" ry="2.15"/><path fill="#231f20" d="M41.07 18.14a.745.745 0 0 1-.749.742.744.744 0 1 1 0-1.486c.412 0 .749.332.749.744"/><path fill="#664e27" d="M36 18.337c-.578-3.734 7.795-3.535 7.795.441-1.21-3.164-6.982-3.273-7.795-.441"/><path fill="#f5f5f5" d="M56.95 17.522c.178.836.391 2.941-3.582 2.867-4.115-.078-3.952.277-4.152-1.113-.174-1.217 1.268-2.568 3.404-3.053 2.135-.486 4.074.098 4.33 1.299"/><ellipse fill="#664e27" cx="52.713" cy="18.14" rx="2.171" ry="2.15"/><ellipse fill="#231f20" cx="52.713" cy="18.14" rx=".75" ry=".742"/><path fill="#664e27" d="M57.03 18.337c.578-3.734-7.795-3.535-7.795.441 1.21-3.164 6.982-3.273 7.795-.441"/><g fill="#ffbc00"><path d="M25.579 58.11c-.615 6.691-6.854 2.939-7.463 1.867-2.02-3.543 1.238-10.02 3.453-10.02 2.214.001 4.42 3.686 4.01 8.151M38.423 58.11c.615 6.691 6.852 2.939 7.461 1.867 2.02-3.543-1.238-10.02-3.451-10.02-2.216.001-4.422 3.686-4.01 8.151"/><path d="M31.85 32.968c8.329 0 13.463 5.098 13.463 11.432v4.252c0 5-3.627 5-3.625 5h-20.2c.002.002-3.107 0-3.107-5V44.4c0-6.335 5.407-11.432 13.465-11.432"/></g><path fill="#c28fef" d="M31.85 35.1c-7.239 0-12.1 3.703-12.1 8.303v1.375c0-4.602 4.859-8.305 12.1-8.305 7.485 0 12.1 3.703 12.1 8.305v-1.375c-.001-4.6-4.612-8.303-12.1-8.303"/><path fill="#ffdd67" d="M44.27 52.44s1.616.391 1.616-1.926c0-1.834-2.107-1.713-2.107-1.713v-2.516h-19.24c-.921-1.979.113-4.02.113-4.02-1.858 1.707-1.565 4.02-1.565 4.02h-3.133v2.516s-2.135-.211-2.135 1.713c0 2.316 1.695 1.926 1.695 1.926 0 3.459 3.626 7.248 12.588 7.248 8.491 0 12.168-3.097 12.168-7.248"/><g fill="#ff717f"><path opacity=".5" d="M43.736 53.972c-.172-1.242-1.588-1.99-3.162-1.672-1.576.318-2.716 1.584-2.544 2.826.17 1.24 1.586 1.99 3.162 1.67 1.575-.318 2.714-1.584 2.544-2.824M23.426 52.3c-1.574-.318-2.99.43-3.16 1.672-.172 1.24.968 2.506 2.542 2.824 1.576.32 2.992-.43 3.162-1.67.172-1.242-.968-2.508-2.544-2.826"/></g><path fill="#574137" d="M28.461 54.94a.444.444 0 0 0-.103.297c-.002.818 1.624 1.822 3.629 1.822 2 0 3.629-.998 3.629-1.816a.55.55 0 0 0-.086-.303s-1.569.707-3.543.707c-1.97 0-3.526-.707-3.526-.707"/><g fill="#fff"><ellipse cx="37.881" cy="49.853" rx="3.3" ry="3.336"/><ellipse cx="26.09" cy="49.853" rx="3.3" ry="3.336"/></g><circle fill="#664e27" cx="37.881" cy="49.853" r="2.298"/><circle fill="#231f20" cx="37.88" cy="49.853" r=".75"/><circle fill="#664e27" cx="26.09" cy="49.853" r="2.299"/><circle fill="#231f20" cx="26.09" cy="49.851" r=".75"/></svg>