<svg xmlns="http://www.w3.org/2000/svg" viewBox="0 0 64 64"><path fill="#231f20" d="M32 1.998c17.601 0 28.444 9.869 28.444 22.13v8.229c0 9.682-7.66 9.684-7.656 9.682H10.123c.002.002-6.564 0-6.564-9.682v-8.229C3.558 11.867 14.98 1.998 32 1.998"/><path fill="#b47d56" d="M57.761 34.517l-1.062-11.679c0-7.464-11.711-1.503-24.697-1.503-12.986 0-24.697-5.961-24.697 1.503L6.244 34.517c-5.655 0-5.655 9.186 0 9.186 0 11.399 15.331 18.296 25.759 18.296 10.427 0 25.758-6.896 25.758-18.296 5.655-.001 5.655-9.186 0-9.186"/><g opacity=".5" fill="#ff717f"><path d="M56.26 46.08c-.354-2.566-3.279-4.113-6.535-3.453-3.258.658-5.611 3.273-5.258 5.838.354 2.566 3.279 4.113 6.535 3.453s5.609-3.273 5.258-5.838M14.282 42.623c-3.256-.66-6.182.887-6.533 3.453-.354 2.564 2 5.18 5.256 5.838 3.256.66 6.18-.887 6.533-3.453.353-2.565-2-5.18-5.256-5.838"/></g><path fill="#574137" d="M24.713 48.08a.905.905 0 0 0-.211.611c-.002 1.691 3.357 3.766 7.5 3.766 4.142 0 7.5-2.061 7.5-3.752 0-.229-.064-.467-.178-.625 0 0-3.242 1.459-7.322 1.459-4.072 0-7.289-1.459-7.289-1.459"/><circle fill="#fff" cx="44.686" cy="35.563" r="7.5"/><ellipse fill="#664e27" cx="44.687" cy="35.563" rx="5.224" ry="5.166"/><ellipse fill="#231f20" cx="44.684" cy="35.563" rx="1.75" ry="1.731"/><circle fill="#fff" cx="19.319" cy="35.563" r="7.5"/><ellipse fill="#664e27" cx="19.318" cy="35.563" rx="5.223" ry="5.166"/><ellipse fill="#231f20" cx="19.318" cy="35.563" rx="1.75" ry="1.73"/></svg>