<svg xmlns="http://www.w3.org/2000/svg" viewBox="0 0 64 64"><path fill="#ed4c5c" d="M6.078 28.1l2 30.665 2.163-.788s-1.417-20.463 3.791-22.271L6.078 28.1"/><path fill="#3e4347" d="M49.4 47.66s-4.324-1.386-14.06 1.385c-9.737 2.77-13.522-4.431-24.338-29.913C5.952 7.241 3.462.8 8.84.022c0 0-.119-.014-.328-.021-2.513.203-4.01 2.522-4.365 3.163-2.521 4.531-6.459 9.667-2.377 18.343 0 0 3.726 14.283 3.726 36.683l2.587.577s-1.066-24.74 1.858-25.636c0 0 2.575 2.716 9.716 16.745 6.453 12.678 12.709 14.13 18.928 14.13h22.986c1.215-.264 2.434-1.108 2.434-4.431 0-3.325-7.572-9.14-14.604-11.91"/><path fill="#94989b" d="M10.998 19.13C21.814 44.612 25.6 51.812 35.336 49.043c6.074-1.729 10.04-1.839 12.17-1.679C34.24 40.098 32.66 36.47 24.789 19.685 16.541 2.097 13.439.02 8.835.02c-5.378.778-2.886 7.219 2.163 19.11"/><path fill="#d0d0d0" d="M10.998 19.13C21.814 44.612 25.6 51.812 35.336 49.043c.279-.08.553-.154.822-.228-12.167-8.419-18.18-27.361-21.756-33.467-2-3.418-4.605-4.448-6.803-4.581.883 2.396 2.049 5.185 3.399 8.363"/></svg>