<svg xmlns="http://www.w3.org/2000/svg" viewBox="0 0 64 64"><path fill="#ffbc00" d="M31.999 2c17.602 0 28.444 9.869 28.444 22.13v8.23c0 9.68-7.661 9.682-7.656 9.68H10.121c.002.002-6.564 0-6.564-9.68v-8.23C3.557 11.869 14.979 2 31.999 2"/><path fill="#ffdd67" d="M57.759 34.518L56.696 22.84c0-7.464-11.71-1.503-24.696-1.503S7.303 15.375 7.303 22.84L6.241 34.518c-5.655 0-5.655 9.186 0 9.186C6.241 55.103 21.573 62 32 62s25.759-6.897 25.759-18.297c5.654 0 5.654-9.185 0-9.185"/><g opacity=".5" fill="#ff717f"><path d="M56.25 46.08c-.354-2.566-3.279-4.113-6.535-3.453-3.258.658-5.611 3.273-5.258 5.838.354 2.566 3.279 4.113 6.535 3.453s5.609-3.273 5.258-5.838M14.28 42.625c-3.256-.66-6.182.887-6.533 3.453-.354 2.564 2 5.18 5.256 5.838 3.256.66 6.179-.887 6.533-3.453.353-2.565-2-5.18-5.256-5.838"/></g><path fill="#574137" d="M24.711 48.08a.905.905 0 0 0-.211.611c-.002 1.691 3.357 3.766 7.5 3.766s7.5-2.061 7.5-3.752c0-.229-.064-.467-.178-.625 0 0-3.242 1.459-7.322 1.459-4.072 0-7.289-1.459-7.289-1.459"/><circle fill="#fff" cx="44.685" cy="35.564" r="7.5"/><ellipse fill="#664e27" cx="44.684" cy="35.564" rx="5.224" ry="5.165"/><ellipse fill="#231f20" cx="44.682" cy="35.564" rx="1.75" ry="1.73"/><circle fill="#fff" cx="19.316" cy="35.564" r="7.5"/><ellipse fill="#664e27" cx="19.316" cy="35.564" rx="5.224" ry="5.165"/><ellipse fill="#231f20" cx="19.315" cy="35.564" rx="1.75" ry="1.73"/></svg>