<svg xmlns="http://www.w3.org/2000/svg" viewBox="0 0 64 64"><path fill="#f0cd4f" d="M36.15 58.26l19.17-10.313s.749 7.03 2.731 14.05H43.579c0-2.89-7.432-3.742-7.432-3.742"/><path fill="#ffbc00" d="M62 42.13c0-10.377-4.593-11.549-4.593-11.549-3.96-5.268-17.581-3.349-21.17.428-.995 1.045-.492 3.417.914 3.132l7.09 13.31 6.916 2.083s3.248-1.396 5.187 5.05c0-.001 5.658-1.336 5.658-12.457"/><g fill="#ffdd67"><path d="M43.845 58.56c4.621-1.023 6.461.338 7.759-11.231h-6.229s1.457-4.614.877-6.867c3.438-2.793 1.051-6.03-.971-7.27-3.242-1.988-7.791-.954-8.448 1.717-1.216 4.94-1.265 3.948-.487 5.256.81 1.359-2.92 4.327-2.832 6.077.047.943 1.406 1.321 1.46 1.594.137.678-.399.988-1.214 1.534-.813.545.67 1.093.384 2.83-.288 1.736-.442 2.395-.442 2.395.671.497 1.563.471 1.401 1.529-.38 2.473-.146 4.402 8.742 2.436"/><path d="M37.503 42.972c.148-.467.089-.833.021-1.243-.078-.408-.171-.847-.194-1.348-.014-.487.082-1.087.409-1.503a1.536 1.536 0 0 1 1.16-.625c-.284.36-.53.684-.657 1.021-.123.334-.151.673-.134 1.077.003.402.063.853.021 1.346-.022.478-.22 1.076-.626 1.275M54.938 47.21c-.596 2.686-2.572 4.427-4.414 3.892-1.841-.535-2.852-3.144-2.256-5.829.596-2.682 2.57-4.425 4.413-3.888 1.841.533 2.853 3.141 2.257 5.825"/></g><path fill="#594640" d="M52.12 42.963a2.41 2.41 0 0 0-1.467.56 2.915 2.915 0 0 0-.898 1.469 3.7 3.7 0 0 0-.105 1.393c-.195-.07-.406-.075-.571.053.245.191.338.399.435.604.086.208.162.412.203.619.054.206.074.407.076.622-.002.218-.047.461-.159.783.296-.006.585-.228.736-.56.164-.329.174-.729.1-1.08-.091-.346-.26-.661-.517-.869a.938.938 0 0 0-.162-.109c.371-.919.73-1.72 1.32-2.196.31-.272.688-.452 1.1-.596.413-.138.865-.221 1.342-.359a2.796 2.796 0 0 0-1.433-.334"/><path fill="#ffdd67" d="M35.25 51.3c-.388-.249-.756-.512-1.038-.805-.264-.291-.471-.638-.246-1.276-.26.072-.519.346-.623.721-.094.38-.024.797.115 1.122.131.315.307.573.503.794a2.04 2.04 0 0 0-.485.864 2.342 2.342 0 0 0-.054 1c.057.311.138.596.278.866.225-.563.375-1.107.603-1.404a1.69 1.69 0 0 1 .386-.359c.151-.109.336-.218.531-.329l.994-.57-.964-.627"/><path fill="#594640" d="M42.16 41.35c-.519.198-.825.564-1.227.89a7.03 7.03 0 0 1-1.287.939c-.478.261-1.047.463-1.646.404a1.795 1.795 0 0 1-1.458-.948c1.11.16 1.746-.218 2.608-.679.422-.225.867-.48 1.377-.658.482-.171 1.14-.329 1.633.052"/><path fill="#f0cd4f" d="M27.851 58.26L8.681 47.947s-.75 7.03-2.732 14.05h14.473c0-2.89 7.432-3.742 7.432-3.742"/><path fill="#ffbc00" d="M2 42.13c0-10.377 4.592-11.549 4.592-11.549 3.96-5.268 17.582-3.349 21.17.428.995 1.045.492 3.417-.914 3.132l-7.09 13.31-6.917 2.083s-3.248-1.396-5.186 5.05c.001-.001-5.657-1.336-5.657-12.457"/><g fill="#ffdd67"><path d="M20.16 58.56c-4.621-1.023-6.46.338-7.759-11.231h6.229s-1.458-4.614-.877-6.867c-3.438-2.793-1.05-6.03.97-7.27 3.243-1.988 7.792-.954 8.449 1.717 1.216 4.94 1.265 3.948.487 5.256-.81 1.359 2.92 4.327 2.832 6.077-.047.943-1.406 1.321-1.46 1.594-.137.678.399.988 1.214 1.534.813.545-.67 1.093-.384 2.83.288 1.736.442 2.395.442 2.395-.671.497-1.563.471-1.401 1.529.38 2.473.146 4.402-8.742 2.436"/><path d="M26.497 42.972c-.148-.467-.089-.833-.021-1.243.078-.408.171-.847.194-1.348.014-.487-.082-1.087-.409-1.503a1.536 1.536 0 0 0-1.16-.625c.284.36.53.684.657 1.021.123.334.151.673.134 1.077-.003.402-.063.853-.021 1.346.022.478.22 1.076.626 1.275M9.06 47.21c.596 2.686 2.572 4.427 4.415 3.892 1.84-.535 2.851-3.144 2.256-5.829-.597-2.682-2.571-4.425-4.414-3.888-1.842.533-2.853 3.141-2.257 5.825"/></g><path fill="#594640" d="M11.879 42.963a2.41 2.41 0 0 1 1.467.56c.433.372.754.905.899 1.469a3.7 3.7 0 0 1 .105 1.393c.195-.07.406-.075.571.053-.246.191-.338.399-.435.604a3.416 3.416 0 0 0-.203.619 2.54 2.54 0 0 0-.076.622c.003.218.047.461.16.783-.296-.006-.584-.228-.736-.56-.164-.329-.174-.729-.1-1.08.091-.346.26-.661.516-.869a.946.946 0 0 1 .163-.109c-.372-.919-.73-1.72-1.321-2.196-.309-.272-.688-.452-1.099-.596-.414-.138-.865-.221-1.343-.359a2.795 2.795 0 0 1 1.432-.334"/><path fill="#ffdd67" d="M28.75 51.3c.388-.249.756-.512 1.038-.805.264-.291.471-.638.246-1.276.26.072.519.346.623.721.094.38.024.797-.115 1.122a2.815 2.815 0 0 1-.503.794c.208.227.403.529.485.864.104.352.097.697.054 1a3.028 3.028 0 0 1-.278.866c-.225-.563-.375-1.107-.603-1.404a1.69 1.69 0 0 0-.386-.359 6.048 6.048 0 0 0-.531-.329l-.994-.57.964-.627"/><path fill="#594640" d="M21.843 41.35c.519.198.825.564 1.227.89a7.03 7.03 0 0 0 1.287.939c.478.261 1.047.463 1.646.404a1.795 1.795 0 0 0 1.458-.948c-1.11.16-1.746-.218-2.608-.679-.422-.225-.867-.48-1.377-.658-.482-.171-1.14-.329-1.633.052"/><path fill="#e84d88" d="M50.666 8.383c-4.105-10.628-17.437-5.862-18.667-.552-1.695-5.657-14.698-9.876-18.665.558-4.417 11.62 17.12 22.05 18.665 23.763 1.541-1.36 23.08-12.336 18.667-23.769"/></svg>