<svg xmlns="http://www.w3.org/2000/svg" viewBox="0 0 64 64"><path fill="#ffbc00" d="M17.484 2C7.468 2 2 8.33 2 16.668v18.51h30.968v-18.51c0-12.395-8.382-12.164-8.382-12.164S23.955 2 17.484 2z"/><path fill="#ffdd67" d="M6.441 23.643s-2.229-.57-2.229-3.871c0-2.611 1.681-3.061 1.681-3.061 6.02 0 15.839-7.83 15.839-7.83s3.711 6.912 7.291 7.83c0 0 1.733.318 1.733 3.061 0 3.301-2.313 3.871-2.313 3.871-.031 4.979-6.831 10.984-10.959 10.984-4.13 0-11.04-6.01-11.04-10.984"/><path fill="#eba352" d="M20.25 25.916c0 1.086-2.249 1.398-2.766 1.398-.516 0-2.765-.385-2.765-1.469.001.001 5.531-.472 5.531.071"/><path fill="#f5f5f5" d="M13.718 21.58c.651 0 .565-1.68.565-1.68-1.996-4.459-6.44-1.637-6.44-1.637-1.727.771.773 3.209 1.174 3.316 1.882.511 4.701.001 4.701.001"/><circle fill="#664e27" cx="11.11" cy="19.539" r="2.125"/><g fill="#231f20"><circle cx="11.11" cy="19.539" r=".75"/><path d="M14.841 20.543c-.545-.662-1.082-1.303-1.706-1.787-.625-.482-1.326-.789-2.082-.836-.758-.074-1.55.088-2.372.244-.412.08-.836.158-1.279.184-.431.018-.947-.033-1.254-.363.405.16.803.076 1.189-.039.388-.111.773-.271 1.176-.406.795-.283 1.676-.516 2.608-.445a3.93 3.93 0 0 1 1.346.369c.415.211.792.486 1.101.814.623.654 1.031 1.443 1.273 2.265"/></g><path fill="#f5f5f5" d="M21.25 21.58c-.65 0-.565-1.68-.565-1.68 1.996-4.459 6.44-1.637 6.44-1.637 1.729.771-.773 3.209-1.175 3.316-1.882.511-4.7.001-4.7.001"/><circle fill="#664e27" cx="23.854" cy="19.539" r="2.125"/><g fill="#231f20"><circle cx="23.854" cy="19.539" r=".75"/><path d="M20.13 20.543c.241-.822.649-1.611 1.273-2.266a3.962 3.962 0 0 1 1.102-.814c.42-.207.884-.324 1.344-.369.933-.07 1.813.162 2.608.445.403.135.788.295 1.176.406.387.115.784.199 1.188.039-.306.33-.822.381-1.253.363a9.466 9.466 0 0 1-1.279-.184c-.822-.156-1.614-.318-2.37-.244-.757.047-1.458.354-2.082.836-.626.485-1.163 1.126-1.707 1.788"/></g><path fill="#f09985" d="M19.447 28.576c-.401-.1-.987-.053-1.761.207-.068.02-.136.043-.202.064-.067-.021-.135-.045-.204-.064-.772-.26-1.358-.307-1.76-.207-1.198.291-3.02.148-3.02.148 1.321 1.32 1.949 3.121 4.979 3.121 3.03 0 3.656-1.801 4.978-3.121 0 .001-1.816.143-3.01-.148"/><path fill="#d47f6c" d="M19.447 28.576c-.401-.1-.987-.053-1.761.207-.068.02-.136.043-.202.064-.067-.021-.135-.045-.204-.064-.772-.26-1.358-.307-1.76-.207-1.176.285-3.02.148-3.02.148 1.993.359 2.242 1.377 4.979 1.377 2.735 0 2.984-1.018 4.978-1.377.005.001-1.839.137-3.01-.148"/><path fill="#ffbc00" d="M31.896 17.32l1.508 2.756h26.23l1.142-2.945c0-10.551-2.454-15.02-14.13-15.13-11.797-.109-14.745 4.574-14.745 15.318"/><path fill="#ffdd67" d="M59.682 17.14c-.093.607-.218 1.182-.39 1.506-.31.58-.939.91-.939.91s.17-1.178.109-2.826c-.658-9.729-1.226-7.05-11.945-7.05-10.715 0-11.285-2.668-11.945 7.04-.062 1.656.107 2.84.107 2.84s-.631-.33-.938-.91c-.173-.324-.297-.898-.388-1.506-1.014-.266-2.32-.043-2.32 2.877 0 1.816.666 3.307 2.911 3.469.955 7.365 3.804 8.563 9.526 11.178 1.507.688 4.588.688 6.094 0 5.723-2.615 8.57-3.813 9.526-11.178 2.245-.162 2.91-1.652 2.91-3.469 0-2.92-1.306-3.143-2.318-2.877"/><path fill="#574137" d="M52.29 27.734c0 1.887-2.527 3.473-5.648 3.473-3.118 0-5.646-1.586-5.646-3.473 0 0 3 .168 5.647.168 2.643 0 5.647-.168 5.647-.168"/><path fill="#fff" d="M51.811 28c0 .953-2.313 1.707-5.169 1.707-2.855 0-5.17-.754-5.17-1.707 0 0 2.442.189 5.17.189S51.811 28 51.811 28"/><path fill="#eba352" d="M49.47 25.17c0 1.1-2.297 1.416-2.826 1.416-.527 0-2.821-.389-2.821-1.486-.001 0 5.647-.475 5.647.07"/><path fill="#f5f5f5" d="M36.08 17.52c-.179.838-.393 2.943 3.58 2.869 4.115-.078 3.953.277 4.153-1.113.174-1.217-1.27-2.568-3.404-3.053-2.135-.487-4.075.095-4.329 1.297"/><ellipse fill="#664e27" cx="40.32" cy="18.14" rx="2.171" ry="2.15"/><ellipse fill="#231f20" cx="40.32" cy="18.14" rx=".75" ry=".742"/><path fill="#664e27" d="M36 18.334c-.578-3.732 7.795-3.533 7.795.441-1.21-3.162-6.982-3.271-7.795-.441"/><path fill="#f5f5f5" d="M56.949 17.52c.179.838.393 2.943-3.58 2.869-4.116-.078-3.952.277-4.153-1.113-.174-1.217 1.269-2.568 3.404-3.053 2.135-.487 4.075.095 4.329 1.297"/><ellipse fill="#664e27" cx="52.714" cy="18.14" rx="2.171" ry="2.15"/><ellipse fill="#231f20" cx="52.713" cy="18.14" rx=".75" ry=".742"/><path fill="#664e27" d="M57.03 18.334c.579-3.732-7.794-3.533-7.794.441 1.209-3.162 6.981-3.271 7.794-.441"/><path fill="#ffbc00" d="M17.483 32.967c8.518 0 13.764 4.775 13.764 10.707v3.984c0 4.684-3.707 4.684-3.705 4.684H6.897c.001 0-3.177 0-3.177-4.684v-3.984c.001-5.932 5.528-10.707 13.763-10.707"/><path fill="#ffdd67" d="M29.948 48.701l-.514-5.65c0-3.611-5.667-.727-11.951-.727-6.283 0-11.95-2.885-11.95.727l-.513 5.65c-2.737 0-2.737 4.445 0 4.445C5.02 58.662 12.438 62 17.483 62c5.05 0 12.465-3.338 12.465-8.854 2.737 0 2.737-4.445 0-4.445"/><g opacity=".5" fill="#ff717f"><path d="M29.22 54.3c-.171-1.242-1.587-1.99-3.162-1.67-1.576.318-2.715 1.584-2.544 2.824.171 1.242 1.587 1.99 3.162 1.672 1.575-.32 2.714-1.584 2.544-2.826M8.909 52.625c-1.575-.32-2.991.428-3.161 1.67-.171 1.242.968 2.506 2.543 2.826 1.575.318 2.99-.43 3.161-1.672.172-1.24-.968-2.506-2.543-2.824"/></g><path fill="#574137" d="M13.957 55.27a.439.439 0 0 0-.103.295c-.001.818 1.625 1.822 3.629 1.822 2 0 3.63-.996 3.63-1.814a.533.533 0 0 0-.087-.303s-1.568.705-3.543.705c-1.969 0-3.526-.705-3.526-.705"/><circle fill="#fff" cx="23.621" cy="49.21" r="3.629"/><ellipse fill="#664e27" cx="23.622" cy="49.21" rx="2.528" ry="2.498"/><ellipse fill="#231f20" cx="23.62" cy="49.21" rx=".851" ry=".84"/><circle fill="#fff" cx="11.347" cy="49.21" r="3.629"/><ellipse fill="#664e27" cx="11.347" cy="49.21" rx="2.527" ry="2.498"/><ellipse fill="#231f20" cx="11.346" cy="49.21" rx=".85" ry=".84"/><path fill="#ffbc00" d="M46.517 32.967c8.517 0 13.763 4.775 13.763 10.707v3.984c0 4.684-3.707 4.684-3.705 4.684H35.93c.001 0-3.177 0-3.177-4.684v-3.984c0-5.932 5.527-10.707 13.764-10.707"/><path fill="#ffdd67" d="M58.98 48.701l-.514-5.65c0-3.611-5.667-.727-11.95-.727-6.284 0-11.951-2.885-11.951.727l-.513 5.65c-2.737 0-2.737 4.445 0 4.445 0 5.516 7.418 8.854 12.464 8.854 5.05 0 12.464-3.338 12.464-8.854 2.737 0 2.737-4.445 0-4.445"/><g opacity=".5" fill="#ff717f"><path d="M58.25 54.3c-.171-1.242-1.587-1.99-3.162-1.67-1.576.318-2.716 1.584-2.544 2.824.171 1.242 1.586 1.99 3.162 1.672 1.575-.32 2.714-1.584 2.544-2.826M37.941 52.625c-1.575-.32-2.991.428-3.161 1.67-.171 1.242.968 2.506 2.543 2.826 1.576.318 2.99-.43 3.161-1.672.171-1.24-.967-2.506-2.543-2.824"/></g><path fill="#574137" d="M42.989 55.27a.439.439 0 0 0-.103.295c-.001.818 1.625 1.822 3.63 1.822 2 0 3.629-.996 3.629-1.814a.54.54 0 0 0-.086-.303s-1.569.705-3.543.705c-1.97 0-3.527-.705-3.527-.705"/><circle fill="#fff" cx="52.653" cy="49.21" r="3.629"/><ellipse fill="#664e27" cx="52.654" cy="49.21" rx="2.528" ry="2.498"/><ellipse fill="#231f20" cx="52.652" cy="49.21" rx=".85" ry=".84"/><circle fill="#fff" cx="40.38" cy="49.21" r="3.629"/><ellipse fill="#664e27" cx="40.38" cy="49.21" rx="2.527" ry="2.498"/><ellipse fill="#231f20" cx="40.38" cy="49.21" rx=".85" ry=".838"/></svg>