<svg xmlns="http://www.w3.org/2000/svg" viewBox="0 0 64 64"><path fill="#ffbc00" d="M32 32.969c8.517 0 13.762 4.773 13.762 10.707v3.982c0 4.684-3.706 4.686-3.704 4.684H21.413c.001.002-3.176 0-3.176-4.684v-3.982c0-5.934 5.527-10.707 13.763-10.707"/><path fill="#ffdd67" d="M44.46 48.703l-.515-5.65c0-3.613-5.666-.729-11.949-.729-6.284 0-11.951-2.885-11.951.729l-.513 5.65c-2.737 0-2.737 4.443 0 4.443 0 5.516 7.417 8.854 12.464 8.854 5.05 0 12.464-3.338 12.464-8.854 2.735 0 2.735-4.443 0-4.443"/><g opacity=".5" fill="#ff717f"><path d="M43.735 54.3c-.171-1.242-1.587-1.99-3.162-1.672-1.577.318-2.716 1.584-2.544 2.826.171 1.24 1.586 1.99 3.162 1.67 1.576-.318 2.714-1.584 2.544-2.824M23.425 52.625c-1.575-.318-2.991.43-3.161 1.672-.171 1.24.968 2.506 2.543 2.824 1.576.32 2.99-.43 3.162-1.67.17-1.242-.969-2.508-2.544-2.826"/></g><path fill="#574137" d="M28.473 55.27a.44.44 0 0 0-.102.297c-.002.818 1.624 1.822 3.629 1.822 2 0 3.629-.998 3.629-1.816a.54.54 0 0 0-.086-.303s-1.569.707-3.543.707c-1.971 0-3.527-.707-3.527-.707"/><circle fill="#fff" cx="38.14" cy="49.21" r="3.629"/><ellipse fill="#664e27" cx="38.14" cy="49.21" rx="2.527" ry="2.498"/><ellipse fill="#231f20" cx="38.14" cy="49.21" rx=".851" ry=".842"/><circle fill="#fff" cx="25.862" cy="49.21" r="3.629"/><ellipse fill="#664e27" cx="25.862" cy="49.21" rx="2.527" ry="2.498"/><ellipse fill="#231f20" cx="25.862" cy="49.21" rx=".85" ry=".84"/><path fill="#ffbc00" d="M2.861 17.32l1.508 2.756h26.23l1.141-2.943c0-10.553-2.453-15.02-14.13-15.13C5.814 1.894 2.865 6.577 2.865 17.321"/><path fill="#ffdd67" d="M30.648 17.14c-.093.609-.218 1.182-.39 1.506-.31.582-.939.912-.939.912s.17-1.178.109-2.826c-.657-9.729-1.227-7.05-11.945-7.05-10.715 0-11.286-2.67-11.946 7.04-.06 1.654.108 2.84.108 2.84s-.631-.33-.939-.912c-.172-.324-.297-.896-.387-1.506C3.306 16.878 2 17.101 2 20.021c0 1.818.666 3.309 2.911 3.469.955 7.365 3.803 8.564 9.526 11.178 1.506.689 4.587.689 6.094 0 5.724-2.613 8.569-3.813 9.526-11.178 2.245-.16 2.91-1.65 2.91-3.469 0-2.92-1.306-3.143-2.319-2.877"/><path fill="#574137" d="M23.254 27.734c0 1.889-2.527 3.475-5.647 3.475-3.119 0-5.646-1.586-5.646-3.475 0 0 3 .168 5.647.168 2.642 0 5.646-.168 5.646-.168"/><path fill="#fff" d="M22.777 28c0 .953-2.313 1.707-5.169 1.707s-5.17-.754-5.17-1.707c0 0 2.442.191 5.169.191 2.729 0 5.17-.191 5.17-.191"/><path fill="#eba352" d="M20.432 25.17c0 1.1-2.296 1.416-2.825 1.416-.527 0-2.822-.389-2.822-1.484-.001 0 5.647-.477 5.647.068"/><path fill="#f5f5f5" d="M7.05 17.521c-.18.838-.393 2.941 3.58 2.867 4.115-.078 3.952.277 4.152-1.113.174-1.215-1.268-2.566-3.404-3.053-2.134-.486-4.075.098-4.328 1.299"/><ellipse fill="#664e27" cx="11.285" cy="18.14" rx="2.171" ry="2.15"/><path fill="#231f20" d="M12.04 18.14a.747.747 0 0 1-.75.744.745.745 0 1 1 0-1.488c.413 0 .75.332.75.744"/><path fill="#664e27" d="M6.971 18.336c-.579-3.732 7.795-3.535 7.795.441-1.21-3.164-6.983-3.273-7.795-.441"/><path fill="#f5f5f5" d="M27.917 17.521c.178.838.392 2.941-3.582 2.867-4.114-.078-3.952.277-4.152-1.113-.174-1.215 1.269-2.566 3.403-3.053 2.137-.486 4.076.098 4.331 1.299"/><ellipse fill="#664e27" cx="23.681" cy="18.14" rx="2.171" ry="2.15"/><ellipse fill="#231f20" cx="23.68" cy="18.14" rx=".75" ry=".744"/><path fill="#664e27" d="M27.994 18.336c.578-3.732-7.795-3.535-7.795.441 1.21-3.164 6.983-3.273 7.795-.441"/><path fill="#ffbc00" d="M31.894 17.32l1.509 2.756h26.23l1.143-2.943c0-10.553-2.454-15.02-14.13-15.13C34.848 1.894 31.9 6.577 31.9 17.321"/><path fill="#ffdd67" d="M59.68 17.14c-.092.609-.217 1.182-.389 1.506-.311.582-.939.912-.939.912s.17-1.178.109-2.826c-.658-9.729-1.227-7.05-11.945-7.05-10.715 0-11.286-2.67-11.945 7.04-.061 1.654.107 2.84.107 2.84s-.631-.33-.939-.912c-.172-.324-.297-.896-.387-1.506-1.014-.266-2.32-.043-2.32 2.877 0 1.818.666 3.309 2.911 3.469.954 7.365 3.804 8.564 9.526 11.178 1.506.689 4.588.689 6.094 0 5.723-2.613 8.57-3.813 9.526-11.178C61.334 23.33 62 21.84 62 20.021c0-2.92-1.307-3.143-2.32-2.877"/><path fill="#574137" d="M52.29 27.734c0 1.889-2.526 3.475-5.647 3.475-3.119 0-5.646-1.586-5.646-3.475 0 0 3 .168 5.648.168 2.642 0 5.645-.168 5.645-.168"/><path fill="#fff" d="M51.811 28c0 .953-2.314 1.707-5.17 1.707s-5.17-.754-5.17-1.707c0 0 2.442.191 5.17.191 2.726 0 5.17-.191 5.17-.191"/><path fill="#eba352" d="M49.47 25.17c0 1.1-2.297 1.416-2.826 1.416-.527 0-2.822-.389-2.822-1.484-.001 0 5.648-.477 5.648.068"/><path fill="#f5f5f5" d="M36.08 17.521c-.18.838-.393 2.941 3.58 2.867 4.115-.078 3.952.277 4.152-1.113.174-1.215-1.268-2.566-3.404-3.053-2.134-.486-4.074.098-4.328 1.299"/><ellipse fill="#664e27" cx="40.32" cy="18.14" rx="2.171" ry="2.15"/><path fill="#231f20" d="M41.07 18.14a.747.747 0 0 1-.749.744c-.417 0-.751-.332-.751-.744s.334-.744.751-.744c.412 0 .749.332.749.744"/><path fill="#664e27" d="M36 18.336c-.579-3.732 7.795-3.535 7.795.441-1.21-3.164-6.983-3.273-7.795-.441"/><path fill="#f5f5f5" d="M56.949 17.521c.178.838.391 2.941-3.582 2.867-4.115-.078-3.952.277-4.152-1.113-.174-1.215 1.268-2.566 3.404-3.053 2.136-.486 4.074.098 4.33 1.299"/><ellipse fill="#664e27" cx="52.712" cy="18.14" rx="2.171" ry="2.15"/><path fill="#231f20" d="M53.46 18.14a.746.746 0 0 1-.752.744.743.743 0 1 1 0-1.488c.415 0 .752.332.752.744"/><path fill="#664e27" d="M57.03 18.336c.579-3.732-7.794-3.535-7.794.441 1.209-3.164 6.982-3.273 7.794-.441"/></svg>