<svg xmlns="http://www.w3.org/2000/svg" viewBox="0 0 64 64"><path fill="#ffbc00" d="M17.484 2C7.468 2 2 8.33 2 16.668V35.18h30.968V16.668c0-12.395-8.383-12.162-8.383-12.162S23.953 2 17.484 2z"/><path fill="#ffdd67" d="M6.442 23.643s-2.23-.57-2.23-3.871c0-2.611 1.68-3.061 1.68-3.061 6.03 0 15.841-7.83 15.841-7.83s3.709 6.912 7.289 7.83c0 0 1.734.318 1.734 3.061 0 3.301-2.313 3.871-2.313 3.871-.031 4.979-6.83 10.984-10.959 10.984-4.13 0-11.04-6.01-11.04-10.984"/><path fill="#eba352" d="M20.249 25.916c0 1.086-2.249 1.398-2.765 1.398s-2.764-.385-2.764-1.469c0 .001 5.529-.472 5.529.071"/><path fill="#f5f5f5" d="M13.717 21.58c.652 0 .565-1.68.565-1.68-1.996-4.459-6.44-1.637-6.44-1.637-1.728.771.773 3.209 1.174 3.316 1.883.511 4.701.001 4.701.001"/><circle fill="#664e27" cx="11.11" cy="19.539" r="2.125"/><g fill="#231f20"><path d="M11.864 19.539a.747.747 0 0 1-.75.748.748.748 0 1 1 0-1.496c.414 0 .75.334.75.748"/><path d="M14.84 20.543c-.544-.662-1.082-1.301-1.705-1.787-.626-.48-1.327-.789-2.083-.836-.757-.074-1.55.088-2.372.244a9.58 9.58 0 0 1-1.279.184c-.43.018-.947-.033-1.254-.363.404.16.803.076 1.189-.039.388-.111.775-.271 1.176-.406.796-.283 1.676-.516 2.608-.445.46.045.924.162 1.345.369.416.211.792.486 1.102.814.624.654 1.032 1.443 1.273 2.265"/></g><path fill="#f5f5f5" d="M21.249 21.58c-.65 0-.564-1.68-.564-1.68 1.995-4.459 6.44-1.637 6.44-1.637 1.729.771-.774 3.209-1.176 3.316-1.881.511-4.7.001-4.7.001"/><circle fill="#664e27" cx="23.853" cy="19.539" r="2.126"/><g fill="#231f20"><circle cx="23.853" cy="19.539" r=".75"/><path d="M20.13 20.543c.241-.822.648-1.611 1.272-2.266a3.962 3.962 0 0 1 1.102-.814c.42-.207.885-.324 1.345-.369.933-.07 1.812.162 2.607.445.403.135.788.295 1.177.406.387.115.783.199 1.189.039-.308.33-.824.381-1.254.363a9.443 9.443 0 0 1-1.279-.184c-.823-.156-1.615-.318-2.371-.244-.756.047-1.457.355-2.081.836-.626.487-1.163 1.126-1.707 1.788"/></g><path fill="#f09985" d="M19.447 28.576c-.401-.1-.988-.053-1.761.207-.068.02-.135.043-.202.064-.068-.021-.134-.045-.203-.064-.773-.26-1.36-.307-1.761-.207-1.198.291-3.01.148-3.01.148 1.32 1.32 1.948 3.121 4.978 3.121s3.657-1.801 4.977-3.121c0 .001-1.816.143-3.01-.148"/><path fill="#d47f6c" d="M19.447 28.576c-.401-.1-.988-.053-1.761.207-.068.02-.135.043-.202.064-.068-.021-.134-.045-.203-.064-.773-.26-1.36-.307-1.761-.207-1.176.285-3.02.148-3.01.148 1.993.359 2.241 1.377 4.978 1.377 2.736 0 2.985-1.018 4.977-1.377.006.001-1.838.137-3.01-.148"/><path fill="#ffbc00" d="M46.516 2C36.5 2 31.032 8.33 31.032 16.668V35.18H62V16.668c0-12.395-8.383-12.162-8.383-12.162S52.986 2 46.516 2z"/><path fill="#ffdd67" d="M35.475 23.643s-2.23-.57-2.23-3.871c0-2.611 1.68-3.061 1.68-3.061 6.02 0 15.841-7.83 15.841-7.83s3.709 6.912 7.289 7.83c0 0 1.734.318 1.734 3.061 0 3.301-2.313 3.871-2.313 3.871-.03 4.979-6.829 10.984-10.959 10.984s-11.04-6.01-11.04-10.984"/><path fill="#eba352" d="M49.28 25.916c0 1.086-2.249 1.398-2.766 1.398-.516 0-2.764-.385-2.764-1.469.001.001 5.53-.472 5.53.071"/><path fill="#f5f5f5" d="M42.749 21.58c.652 0 .565-1.68.565-1.68-1.996-4.459-6.439-1.637-6.439-1.637-1.729.771.772 3.209 1.174 3.316 1.883.511 4.7.001 4.7.001"/><circle fill="#664e27" cx="40.15" cy="19.539" r="2.125"/><g fill="#231f20"><path d="M40.896 19.539a.747.747 0 0 1-.75.748.748.748 0 1 1 0-1.496c.415 0 .75.334.75.748"/><path d="M43.872 20.543c-.544-.662-1.081-1.301-1.705-1.787-.626-.48-1.327-.789-2.083-.836-.757-.074-1.55.088-2.372.244-.411.08-.835.158-1.278.184-.43.018-.947-.033-1.254-.363.404.16.803.076 1.188-.039.388-.111.774-.271 1.177-.406.795-.283 1.676-.516 2.607-.445.461.045.925.162 1.346.369.416.211.793.486 1.102.814.624.654 1.031 1.443 1.272 2.265"/></g><path fill="#f5f5f5" d="M50.28 21.58c-.65 0-.564-1.68-.564-1.68 1.995-4.459 6.44-1.637 6.44-1.637 1.728.771-.774 3.209-1.175 3.316-1.882.511-4.701.001-4.701.001"/><circle fill="#664e27" cx="52.885" cy="19.539" r="2.125"/><g fill="#231f20"><circle cx="52.885" cy="19.539" r=".75"/><path d="M49.16 20.543c.241-.822.648-1.611 1.272-2.266a3.962 3.962 0 0 1 1.102-.814c.42-.207.885-.324 1.344-.369.934-.07 1.813.162 2.608.445.403.135.788.295 1.176.406.388.115.784.199 1.189.039-.307.33-.822.381-1.254.363a9.49 9.49 0 0 1-1.279-.184c-.822-.156-1.614-.318-2.37-.244-.756.047-1.457.355-2.081.836-.626.487-1.163 1.126-1.707 1.788"/></g><path fill="#f09985" d="M48.48 28.576c-.401-.1-.988-.053-1.761.207-.068.02-.136.043-.203.064-.067-.021-.134-.045-.203-.064-.772-.26-1.359-.307-1.76-.207-1.199.291-3.01.148-3.01.148 1.32 1.32 1.947 3.121 4.977 3.121 3.03 0 3.657-1.801 4.978-3.121 0 .001-1.816.143-3.01-.148"/><path fill="#d47f6c" d="M48.48 28.576c-.401-.1-.988-.053-1.761.207-.068.02-.136.043-.203.064-.067-.021-.134-.045-.203-.064-.772-.26-1.359-.307-1.76-.207-1.176.285-3.02.148-3.01.148 1.992.359 2.24 1.377 4.977 1.377s2.985-1.018 4.978-1.377c.005.001-1.838.137-3.01-.148"/><g fill="#ffbc00"><path d="M40.09 58.12c-.615 6.689-6.852 2.938-7.461 1.867-2.02-3.543 1.238-10.02 3.453-10.02 2.212.001 4.418 3.688 4.01 8.153M52.938 58.12c.614 6.689 6.852 2.938 7.461 1.867 2.02-3.543-1.238-10.02-3.452-10.02-2.215.001-4.421 3.688-4.01 8.153"/><path d="M46.37 32.967c8.329 0 13.463 5.098 13.463 11.432v4.252c0 5-3.627 5-3.625 5h-20.19c.002 0-3.107 0-3.107-5v-4.252c-.001-6.335 5.405-11.432 13.463-11.432"/></g><path fill="#c28fef" d="M46.37 35.1c-7.239 0-12.1 3.703-12.1 8.303v1.375c0-4.602 4.858-8.305 12.1-8.305 7.484 0 12.1 3.703 12.1 8.305v-1.375c0-4.6-4.612-8.303-12.1-8.303"/><path fill="#ffdd67" d="M58.781 52.44s1.616.393 1.616-1.924c0-1.834-2.107-1.713-2.107-1.713v-2.518H39.051c-.92-1.977.113-4.02.113-4.02-1.856 1.707-1.563 4.02-1.563 4.02h-3.134v2.518s-2.135-.211-2.135 1.713c0 2.316 1.696 1.924 1.696 1.924 0 3.459 3.625 7.25 12.586 7.25 8.49 0 12.167-3.097 12.167-7.25"/><g fill="#ff717f"><path opacity=".5" d="M58.25 53.971c-.172-1.242-1.588-1.99-3.162-1.67-1.576.318-2.716 1.584-2.544 2.824.17 1.242 1.586 1.99 3.162 1.672 1.574-.32 2.714-1.584 2.544-2.826M37.942 52.3c-1.574-.32-2.99.428-3.16 1.67-.172 1.242.968 2.508 2.542 2.826s2.99-.43 3.16-1.672c.172-1.24-.966-2.506-2.542-2.824"/></g><path fill="#574137" d="M42.977 54.941a.439.439 0 0 0-.103.295c-.002.818 1.624 1.822 3.629 1.822 2 0 3.629-.996 3.629-1.814a.54.54 0 0 0-.087-.303s-1.568.705-3.542.705c-1.972 0-3.526-.705-3.526-.705"/><g fill="#fff"><ellipse cx="52.4" cy="49.852" rx="3.3" ry="3.338"/><ellipse cx="40.607" cy="49.852" rx="3.299" ry="3.338"/></g><circle fill="#664e27" cx="52.4" cy="49.852" r="2.298"/><circle fill="#231f20" cx="52.4" cy="49.852" r=".75"/><circle fill="#664e27" cx="40.605" cy="49.852" r="2.299"/><circle fill="#231f20" cx="40.605" cy="49.852" r=".75"/><path fill="#ffbc00" d="M17.483 32.967c8.517 0 13.763 4.775 13.763 10.709v3.982c0 4.684-3.707 4.684-3.705 4.684H6.896c.001 0-3.177 0-3.177-4.684v-3.982c.001-5.934 5.528-10.709 13.764-10.709"/><path fill="#ffdd67" d="M29.947 48.701l-.514-5.65c0-3.611-5.667-.727-11.951-.727s-11.95-2.885-11.95.727l-.513 5.65c-2.737 0-2.737 4.445 0 4.445C5.02 58.662 12.438 62 17.483 62s12.464-3.338 12.464-8.854c2.737 0 2.737-4.445 0-4.445"/><g opacity=".5" fill="#ff717f"><path d="M29.22 54.3c-.171-1.242-1.587-1.99-3.162-1.67-1.576.318-2.715 1.584-2.545 2.824.172 1.242 1.588 1.99 3.163 1.672 1.575-.32 2.714-1.584 2.544-2.826M8.908 52.625c-1.575-.32-2.991.428-3.161 1.67-.171 1.242.968 2.506 2.543 2.826 1.576.318 2.99-.43 3.162-1.672.171-1.24-.968-2.506-2.544-2.824"/></g><path fill="#574137" d="M13.956 55.27a.438.438 0 0 0-.102.295c-.001.818 1.625 1.822 3.629 1.822s3.628-.996 3.628-1.814a.54.54 0 0 0-.086-.303s-1.568.705-3.542.705c-1.97 0-3.527-.705-3.527-.705"/><circle fill="#fff" cx="23.62" cy="49.21" r="3.629"/><ellipse fill="#664e27" cx="23.621" cy="49.21" rx="2.528" ry="2.498"/><ellipse fill="#231f20" cx="23.619" cy="49.21" rx=".85" ry=".84"/><circle fill="#fff" cx="11.346" cy="49.21" r="3.629"/><ellipse fill="#664e27" cx="11.346" cy="49.21" rx="2.527" ry="2.498"/><ellipse fill="#231f20" cx="11.345" cy="49.21" rx=".85" ry=".84"/></svg>