<svg xmlns="http://www.w3.org/2000/svg" viewBox="0 0 64 64"><path fill="#f0cd4f" d="M23.369 57.28L8.677 47.943s1.984 7.03 0 14.05H20.42c0-2.89 2.949-4.718 2.949-4.718"/><path fill="#ffbc00" d="M2 42.13c0-10.377 4.593-11.548 4.593-11.548 3.96-5.269 17.405-3.111 21.17.427 7.714 7.239 2.205 14.749.799 14.463L12.392 48.4s-1.657 10.587 4.091 13.596H1.994V42.13"/><path fill="#ffdd67" d="M20.16 58.56c-4.623-1.022-6.461.338-7.76-11.231h3.506s2.468.641 4.935-8.287c1.119-4.04 5.625-7.07 6.623-4.543 2.076 5.258-.228 6.842.325 8.298 1 2.647 3.149 1.924 3.063 3.676-.048.941-1.767 1.092-1.821 1.363-.137.679.399.989 1.213 1.534.815.545-.669 1.093-.383 2.83.29 1.737.443 2.395.443 2.395-.672.497-1.563.472-1.401 1.529.377 2.474.143 4.403-8.743 2.436"/><path fill="#eba352" d="M26.497 42.973c-.148-.466-.089-.834-.021-1.244.079-.408.171-.847.194-1.348.015-.487-.081-1.087-.409-1.502a1.539 1.539 0 0 0-1.16-.626c.284.36.531.684.658 1.021.122.334.15.673.133 1.078-.002.401-.063.852-.02 1.346.023.477.219 1.076.625 1.275"/><path fill="#ffdd67" d="M9.06 47.21c.596 2.686 2.572 4.426 4.414 3.891 1.841-.533 2.852-3.143 2.257-5.828-.597-2.682-2.571-4.426-4.414-3.889-1.842.534-2.853 3.141-2.257 5.826"/><path fill="#594640" d="M11.881 42.963a2.426 2.426 0 0 1 1.467.56c.432.372.753.905.898 1.47a3.7 3.7 0 0 1 .105 1.393c.195-.07.406-.076.571.052-.246.191-.338.4-.436.604-.085.208-.16.412-.203.621a2.62 2.62 0 0 0-.076.621c.003.218.049.462.159.782-.294-.006-.583-.227-.736-.56-.162-.329-.174-.729-.099-1.078.091-.347.26-.663.518-.871a.893.893 0 0 1 .161-.109c-.371-.918-.729-1.72-1.32-2.196-.31-.272-.687-.452-1.099-.596-.415-.138-.865-.221-1.343-.358a2.817 2.817 0 0 1 1.433-.335"/><path fill="#c94747" d="M28.751 51.3c.387-.249.755-.511 1.038-.805.264-.291.469-.637.246-1.275.26.071.519.347.622.72.094.38.024.799-.114 1.123a2.854 2.854 0 0 1-.504.794c.21.227.402.528.485.863.104.352.097.697.056 1-.059.31-.139.596-.279.865-.227-.563-.375-1.106-.604-1.404a1.728 1.728 0 0 0-.385-.359 6.496 6.496 0 0 0-.532-.328l-.994-.571.965-.627"/><path fill="#594640" d="M21.844 41.35c.52.198.824.565 1.227.891.383.341.801.673 1.286.938.479.262 1.048.464 1.646.405a1.798 1.798 0 0 0 1.459-.948c-1.109.161-1.746-.219-2.607-.68-.423-.225-.867-.479-1.377-.657-.484-.171-1.143-.33-1.634.051"/><path fill="#e84d88" d="M13.334 8.383C17.439-2.246 30.77 2.523 32 7.831c1.695-5.657 14.698-9.874 18.665.558C55.082 20.01 33.545 30.439 32 32.151 30.459 30.792 8.92 19.816 13.334 8.383"/><path fill="#f0cd4f" d="M40.629 57.28l14.693-9.337s-1.984 7.03 0 14.05H43.579c0-2.89-2.95-4.718-2.95-4.718"/><path fill="#ffbc00" d="M62 42.13c0-10.377-4.594-11.548-4.594-11.548-3.961-5.269-17.405-3.111-21.17.427-7.715 7.239-2.206 14.749-.8 14.463l16.17 2.928s1.657 10.587-4.09 13.596h14.489V42.13"/><path fill="#ffdd67" d="M43.842 58.56c4.623-1.022 6.461.338 7.76-11.231h-3.506s-2.468.641-4.936-8.287c-1.118-4.04-5.625-7.07-6.623-4.543-2.076 5.258.229 6.842-.324 8.298-1.01 2.647-3.149 1.924-3.063 3.676.049.941 1.768 1.092 1.822 1.363.135.679-.4.989-1.215 1.534s.67 1.093.383 2.83c-.289 1.737-.441 2.395-.441 2.395.67.497 1.563.472 1.4 1.529-.378 2.474-.144 4.403 8.743 2.436"/><path fill="#eba352" d="M37.502 42.973c.148-.466.089-.834.02-1.244-.078-.408-.17-.847-.193-1.348-.015-.487.081-1.087.409-1.502a1.54 1.54 0 0 1 1.161-.626c-.285.36-.532.684-.658 1.021-.123.334-.151.673-.133 1.078.002.401.061.852.019 1.346-.022.477-.219 1.076-.625 1.275"/><path fill="#ffdd67" d="M54.938 47.21c-.596 2.686-2.572 4.426-4.414 3.891-1.842-.533-2.852-3.143-2.257-5.828.597-2.682 2.571-4.426 4.413-3.889 1.842.534 2.853 3.141 2.258 5.826"/><path fill="#594640" d="M52.12 42.963a2.424 2.424 0 0 0-1.467.56 2.912 2.912 0 0 0-.897 1.47 3.68 3.68 0 0 0-.105 1.393c-.195-.07-.406-.076-.572.052.246.191.338.4.437.604.085.208.16.412.203.621.052.205.073.405.076.621-.003.218-.049.462-.159.782.295-.006.583-.227.736-.56.162-.329.174-.729.099-1.078-.091-.347-.261-.663-.518-.871a.93.93 0 0 0-.161-.109c.371-.918.729-1.72 1.32-2.196.31-.272.687-.452 1.099-.596.415-.138.865-.221 1.343-.358a2.823 2.823 0 0 0-1.434-.335"/><path fill="#c94747" d="M35.25 51.3c-.387-.249-.756-.511-1.037-.805-.264-.291-.471-.637-.246-1.275-.261.071-.52.347-.623.72-.094.38-.025.799.114 1.123.132.315.308.572.503.794a2.035 2.035 0 0 0-.484.863 2.343 2.343 0 0 0-.055 1c.057.31.138.596.279.865.226-.563.374-1.106.604-1.404.12-.145.226-.253.384-.359a6.33 6.33 0 0 1 .532-.328l.994-.571-.965-.627"/><path fill="#594640" d="M42.16 41.35c-.519.198-.825.565-1.227.891a7.005 7.005 0 0 1-1.286.938c-.479.262-1.048.464-1.646.405a1.801 1.801 0 0 1-1.46-.948c1.11.161 1.746-.219 2.607-.68.424-.225.869-.479 1.379-.657.483-.171 1.142-.33 1.633.051"/></svg>