<svg xmlns="http://www.w3.org/2000/svg" viewBox="0 0 64 64"><path fill="#d6a57c" d="M58.59 37.701c-4.127-1.551-2.684-6.717-2.684-6.717H8.096s1.445 5.166-2.684 6.717c0 0-3.41.605-3.41 4.533 0 4.73 3.508 4.965 3.508 4.965 0 7.203 7.428 14.799 26.492 14.799 19.06 0 26.492-7.596 26.492-14.799 0 0 3.506-.234 3.506-4.965 0-3.927-3.41-4.533-3.41-4.533"/><path fill="#664e27" d="M24.796 51.691a.9.9 0 0 0-.211.609c-.002 1.686 3.357 3.754 7.5 3.754s7.5-2.053 7.5-3.74a1.11 1.11 0 0 0-.178-.623s-3.242 1.453-7.322 1.453c-4.072.001-7.289-1.453-7.289-1.453"/><path fill="#ff9430" d="M59 30.984H5C5 16.645 11.755 5.501 32 5.501c20.246 0 27 11.145 27 25.483"/><g fill="#db802b"><path d="M24.46 30.984h-4V7.06l4-1.17zM43.542 30.984h-4V5.894l4 1.17z"/><path d="M62 33.19H2c0-5.115 13.432-9.264 30-9.264s30 4.148 30 9.264"/></g><path fill="#ff9430" d="M41.542 27.668h-19.08V6.548c0-6.068 19.08-6.068 19.08 0v21.12"/><g fill="#594640"><path d="M5 33.19h3.445v8.217H5zM55.56 33.19h3.443v8.217H55.56z"/></g><path fill="#f5f5f5" d="M12.634 38.683c-.324 1.517-.709 5.321 6.475 5.188 7.443-.142 7.147.5 7.509-2.01.315-2.199-2.294-4.644-6.155-5.521s-7.368.176-7.829 2.347"/><ellipse fill="#664e27" cx="20.292" cy="39.802" rx="3.925" ry="3.889"/><ellipse fill="#231f20" cx="20.292" cy="39.802" rx="1.25" ry="1.238"/><path fill="#664e27" d="M12.492 40.16c-1.046-6.75 14.1-6.391 14.1.798-2.189-5.72-12.626-5.917-14.1-.798"/><path fill="#f5f5f5" d="M51.37 38.683c.324 1.517.709 5.321-6.475 5.188-7.443-.142-7.147.5-7.509-2.01-.315-2.199 2.294-4.644 6.155-5.521s7.368.176 7.829 2.347"/><ellipse fill="#664e27" cx="43.708" cy="39.802" rx="3.925" ry="3.889"/><path fill="#231f20" d="M44.957 39.802c0 .685-.562 1.238-1.249 1.238a1.244 1.244 0 0 1-1.251-1.238c0-.686.56-1.237 1.251-1.237a1.242 1.242 0 0 1 1.249 1.237"/><path fill="#664e27" d="M51.51 40.16c1.046-6.75-14.1-6.391-14.1.798 2.189-5.72 12.626-5.917 14.1-.798"/></svg>