<svg xmlns="http://www.w3.org/2000/svg" viewBox="0 0 64 64"><path fill="#ffdd67" d="M62 31.762a5.017 5.017 0 0 0-4.278-4.972C56.53 10.55 45.474 2 31.999 2 18.528 2 7.47 10.55 6.278 26.79A5.016 5.016 0 0 0 2 31.762a5.008 5.008 0 0 0 4.574 5c1.652 12.444 8.627 15.68 25.425 15.68 16.799 0 23.773-3.235 25.427-15.68a5.009 5.009 0 0 0 4.574-5z"/><path fill="#ffbc00" d="M35.81 13.18c1.066 0 2.104-.066 3.119-.168-2.402-1.762-4.27-4.063-5.365-6.691 2.75 1.012 5.998 1.6 9.484 1.6 1.066 0 2.105-.064 3.121-.17a16.557 16.557 0 0 1-3.771-3.834C39.22 2.648 35.71 2 32.017 2c-4.949 0-9.57 1.156-13.498 3.42 2.082 4.469 9.02 7.76 17.291 7.76"/><g fill="#ff717f"><path opacity=".5" d="M55.22 37.05c-.338-2.473-3.137-3.963-6.254-3.328-3.117.633-5.369 3.156-5.03 5.633.34 2.473 3.139 3.967 6.258 3.33 3.117-.637 5.367-3.159 5.03-5.635M15.04 33.723c-3.113-.635-5.916.855-6.254 3.328-.336 2.477 1.916 4.998 5.03 5.635s5.915-.857 6.253-3.33c.34-2.477-1.916-4.997-5.03-5.633"/></g><circle fill="#fff" cx="19.337" cy="27.756" r="7"/><path fill="#664e27" d="M24.587 27.754a5.25 5.25 0 1 1-10.497 0 5.25 5.25 0 0 1 10.497 0"/><path fill="#231f20" d="M21.09 27.755c0 .966-.786 1.746-1.749 1.746a1.75 1.75 0 1 1 1.749-1.746"/><path fill="#fff" d="M51.663 27.758c0 3.865-3.135 6.996-7 6.996a6.998 6.998 0 1 1 0-13.996c3.865 0 7 3.137 7 7"/><path fill="#664e27" d="M49.913 27.754a5.25 5.25 0 1 1-10.501-.001 5.25 5.25 0 0 1 10.501.001"/><path fill="#231f20" d="M46.41 27.755c0 .966-.783 1.747-1.75 1.747-.966 0-1.75-.781-1.75-1.747a1.75 1.75 0 0 1 3.5 0"/><path fill="#d48c6b" d="M35.501 34.19c0 1.322-2.848 1.701-3.5 1.701-.654 0-3.5-.467-3.5-1.787 0 0 7-.571 7 .086"/><path fill="#61c2ff" d="M46.999 42.504c0 9.379-6.715 13.721-15 13.721-8.283 0-15-4.342-15-13.721 0-9.375 6.756-5.793 15.04-5.793 8.285 0 14.961-3.582 14.961 5.793"/><ellipse fill="#6235a8" cx="31.999" cy="46.13" rx="6" ry="5.66"/><path fill="#fbbf67" d="M31.999 45.563c-5.965 0-10.799-.713-10.799 5.389 0 6.103 4.834 11.05 10.799 11.05S42.8 57.057 42.8 50.952c0-6.101-4.836-5.388-10.801-5.388m0 12.703c-4.24 0-8.158-2.975-8.158-7.314s3.918-3.283 8.158-3.283c4.242 0 8.16-1.057 8.16 3.283s-3.918 7.314-8.16 7.314"/><path fill="#42ade2" d="M35.667 47.45c0 .625-.447 1.131-1 1.131h-5.334c-.553 0-1-.506-1-1.131v-2.643c0-.627.447-1.133 1-1.133h5.334c.553 0 1 .506 1 1.133v2.643"/></svg>