<svg xmlns="http://www.w3.org/2000/svg" viewBox="0 0 64 64"><path fill="#cedbd5" d="M50 10.779c-7.05-5.533-28.955-5.533-36 0-10.412 8.179-12 51.22-12 51.22h59.998S60.408 18.959 50 10.779"/><path fill="#ffbc00" d="M54.31 38.984a5.642 5.642 0 0 0 .465-2.248 5.59 5.59 0 0 0-1.482-3.819c1.393-.977 2.311-2.645 2.311-4.539 0-1.988-1.016-3.723-2.529-4.676a5.62 5.62 0 0 0 .904-3.074c0-.176-.002-.352-.006-.527l-1.38-3.67.284-2.688C50.576 7.164 44.417 2 32.003 2 19.601 2 13.44 7.153 11.135 13.724l.275 2.708-1.379 3.703a27.12 27.12 0 0 0-.005.494c0 1.141.336 2.199.904 3.074-1.514.953-2.529 2.688-2.529 4.676 0 1.895.92 3.563 2.313 4.539a5.592 5.592 0 0 0-1.484 3.819c0 .803.168 1.563.464 2.248-2.048.729-2.69 2.764-2.69 5.164 0 10.123 10.959 5.67 10.959 5.67h28.08s10.959 4.453 10.959-5.67c-.001-2.401-.646-4.436-2.694-5.165"/><g fill="#f2f1f0"><path d="M54.26 62c0-14.73-1.438-15.533-22.259-15.533-20.815 0-22.257.803-22.257 15.533H54.26M32 6.63c-7.84 0-15.07 2.652-20.871 7.105-.709 2.023-1.049 4.182-1.096 6.365 5.551-5.814 13.344-9.443 21.967-9.443s16.413 3.629 21.964 9.443c-.047-2.184-.387-4.342-1.094-6.365C47.071 9.283 39.84 6.63 32 6.63"/></g><path fill="#ffdd67" d="M15.897 35.17s-3.251-.832-3.251-5.645c0-3.811 2.45-4.465 2.45-4.465 8.786 0 23.1-9.482 23.1-9.482s5.411 8.146 10.634 9.482c0 0 2.525.467 2.525 4.465 0 4.813-3.373 5.645-3.373 5.645-.045 7.26-9.96 16.02-15.98 16.02-6.02-.001-16.1-8.758-16.1-16.02"/><path fill="#eba352" d="M36.03 38.486c0 1.582-3.28 2.041-4.03 2.041s-4.03-.561-4.03-2.145c0 .001 8.07-.685 8.07.104"/><path fill="#f5f5f5" d="M26.509 32.16c.947 0 .821-2.449.821-2.449-2.908-6.502-9.389-2.389-9.389-2.389-2.52 1.127 1.129 4.684 1.714 4.838 2.744.744 6.854 0 6.854 0"/><circle fill="#664e27" cx="22.712" cy="29.19" r="3.1"/><g fill="#231f20"><circle cx="22.714" cy="29.19" r="1"/><path d="M28.15 30.65c-.846-.938-1.652-1.842-2.563-2.521-.915-.675-1.901-1.081-2.973-1.159-1.072-.094-2.211.116-3.416.32-.603.107-1.229.208-1.884.229-.634.009-1.409-.089-1.84-.599.608.205 1.167.057 1.723-.128.557-.179 1.112-.425 1.697-.633 1.154-.433 2.453-.798 3.845-.684 1.39.095 2.744.796 3.631 1.788.908.982 1.481 2.16 1.78 3.387"/></g><path fill="#f5f5f5" d="M37.492 32.16c-.946 0-.821-2.449-.821-2.449 2.909-6.502 9.391-2.389 9.391-2.389 2.518 1.127-1.131 4.684-1.715 4.838-2.743.744-6.855 0-6.855 0"/><circle fill="#664e27" cx="41.29" cy="29.19" r="3.1"/><g fill="#231f20"><circle cx="41.29" cy="29.19" r="1"/><path d="M35.856 30.65c.3-1.227.871-2.405 1.781-3.386.887-.992 2.24-1.693 3.631-1.788 1.391-.114 2.689.251 3.845.684.585.208 1.14.454 1.697.633.555.185 1.114.333 1.722.128-.43.51-1.205.607-1.84.599-.655-.021-1.281-.122-1.883-.229-1.205-.205-2.345-.414-3.416-.32-1.071.079-2.058.484-2.974 1.159-.909.678-1.716 1.581-2.563 2.52"/></g><path fill="#f085a9" d="M34.863 42.37c-.585-.145-1.439-.076-2.568.303a9.921 9.921 0 0 0-.294.094 14.124 14.124 0 0 0-.294-.094c-1.129-.379-1.984-.447-2.569-.303-1.746.424-4.393.217-4.393.217 1.924 1.922 2.839 4.549 7.256 4.549s5.332-2.627 7.256-4.549c0 0-2.647.207-4.394-.217"/><path fill="#d46c8f" d="M34.863 42.37c-.585-.145-1.439-.076-2.568.303a9.921 9.921 0 0 0-.294.094 14.124 14.124 0 0 0-.294-.094c-1.129-.379-1.984-.447-2.569-.303-1.714.416-4.404.215-4.393.217 2.903.521 3.266 2.01 7.256 2.01s4.353-1.484 7.256-2.01c.011-.002-2.679.199-4.394-.217"/><path fill="#428bc1" d="M39.854 62H23.25l-2.18-2.98h20.09z"/><path fill="#224863" d="M41.16 59.02c0 .439-4.498.795-10.05.795-5.546 0-10.05-.355-10.05-.795s4.499-.797 10.05-.797c5.551.001 10.05.358 10.05.797"/><path fill="#871212" d="M25.631 54.28l-1.987-2.2-1.584 2.45z"/><path fill="#991d1d" d="M22.953 54.895l2.077-2.922 2.327 1.447z"/><path fill="#ad2727" d="M22.11 53l-.301 1.73 4.602.25z"/><path fill="#cc3636" d="M25.397 54.969c2.901 1.363 2.597 3.186 1.123 3.908-1.473.721-3.78.09-4.175-1.771-.398-1.873-1.686-2.992-1.686-2.992s2.522-.186 4.738.855"/><path fill="#e24b4b" d="M23.664 55.6c-1.04 3.066 1.489 3.939 2.963 3.219 1.473-.723 1.991-2.686 1.158-4.385-.834-1.701-1.554-2.543-1.554-2.543s-1.826 1.526-2.567 3.709"/><path fill="#75a843" d="M26.319 58.08c2.263-1.146 1.702.232.229.953-3.623 1.777-5.01-1.465-5.01-1.465s2.777 1.53 4.784.512"/><path fill="#83bf4f" d="M26.319 58.08c-.489.549-1.907 1.682-.328 1.262 3.121-.828 2.524-5.057 2.524-5.057s-.742 2.164-2.196 3.795"/><path fill="#871212" d="M35.892 52.822l4.218 2.528-.09-3.412z"/><path fill="#991d1d" d="M39.769 57.27l-2.783-4.02h4.709z"/><path fill="#ad2727" d="M40.738 55.756L38.12 51.18l-2.175 1.84z"/><path fill="#cc3636" d="M38.602 55.52l-4.472-.26 1.99-4.631z"/><path fill="#e24b4b" d="M36.83 54.39c-3.5 1.164-2.554 4.064-.884 4.904 1.669.84 3.81-.041 4.779-1.969.971-1.926 2.082-2.846 2.082-2.846s-3.485-.921-5.977-.089"/><path fill="#83bf4f" d="M36.407 58.5c-.835-.066-2.84-.576-1.372.57 2.902 2.262 6.329-1.189 6.329-1.189s-2.475.814-4.957.619"/><path fill="#871212" d="M27.614 52.82l6.184-.28-2.994-2.716z"/><path fill="#991d1d" d="M34.981 51.766l-5.983 1.664 3.659-3.3z"/><path fill="#ad2727" d="M33.02 53.12l-4.534-2.57-.615 3.333z"/><path fill="#cc3636" d="M32.19 54.19v5.496c-2.168.48-4.771-1.084-4.697-3.66.074-2.59-1.262-4.473-1.262-4.473s3.373.558 5.959 2.637"/><path fill="#e24b4b" d="M29.707 54.47c-2.346 3.699.703 5.658 2.871 5.178s3.476-2.898 2.921-5.4c-.554-2.502-.223-4.186-.223-4.186s-3.898 1.771-5.569 4.408"/><path fill="#75a843" d="M32.41 58.58c3.341-.787 2.164.848-.004 1.328-5.332 1.182-6.128-3.525-6.128-3.525s3.167 2.896 6.132 2.197"/><path fill="#83bf4f" d="M32.41 58.58c-.819.566-3.045 1.604-.834 1.557 4.371-.098 4.933-5.85 4.933-5.85s-1.667 2.611-4.099 4.293"/></svg>