<svg xmlns="http://www.w3.org/2000/svg" viewBox="0 0 64 64"><path fill="#d35454" d="M0 38.771l11.577 5.29s2.26 4.597 6.309 7.711c4.425 3.403 9.874 4.49 9.874 4.49l-1.066 5.625S25.318 59 21.381 59C17.717 59 15 64 15 64s-1.433-7.345-4.02-9.527c-2.634-2.224-10.982-.948-10.982-.948-.002.002 2.725-5.477 2.725-9.428 0-3.455-2.725-5.326-2.725-5.326"/><g fill="#ad4040"><path d="M0 38.771c2.094.521 4.13 1.171 6.144 1.867 1.01.346 2.01.697 3 1.082.994.378 1.994.741 2.976 1.144l.349.144.285.473a31.515 31.515 0 0 0 2.866 3.994c1.063 1.265 2.203 2.397 3.491 3.399 1.259.974 2.689 1.851 4.164 2.633.738.397 1.503.753 2.279 1.092.765.354 1.575.679 2.345.948l.752.264-.178.588c-.556 1.837-1.104 3.676-1.784 5.489.032-1.937.194-3.848.349-5.761l.574.852c-1.843-.201-3.583-.63-5.31-1.25a20.662 20.662 0 0 1-4.936-2.524c-1.535-1.061-2.892-2.412-4.045-3.845-1.157-1.463-2.125-2.967-2.93-4.717l.634.615c-.947-.479-1.877-.996-2.813-1.501a78.702 78.702 0 0 1-2.785-1.563c-1.843-1.068-3.666-2.181-5.431-3.423"/><path d="M0 53.52l10.628-10.621 1.898 2.321zM15 64l2.906-11.77 2.801 1.08z"/></g><path fill="#d35454" d="M64 38.771l-11.577 5.29s-2.261 4.597-6.31 7.711c-4.425 3.403-9.874 4.49-9.874 4.49l1.067 5.625S38.682 59 42.619 59c3.663 0 6.38 5 6.38 5s1.434-7.345 4.02-9.527c2.635-2.224 10.983-.948 10.983-.948-.001-.002-2.725-5.477-2.725-9.428 0-3.455 2.725-5.326 2.725-5.326"/><g fill="#ad4040"><path d="M64 38.771c-1.765 1.242-3.588 2.355-5.434 3.422a77.779 77.779 0 0 1-2.784 1.563c-.936.505-1.865 1.022-2.813 1.501l.634-.615c-.805 1.75-1.773 3.254-2.93 4.717-1.153 1.433-2.511 2.784-4.046 3.845a20.644 20.644 0 0 1-4.936 2.524c-1.727.62-3.467 1.049-5.311 1.25l.574-.852c.155 1.913.318 3.824.351 5.761-.68-1.813-1.229-3.652-1.784-5.489l-.179-.588.753-.264c.771-.27 1.58-.595 2.346-.947.775-.34 1.541-.695 2.279-1.093 1.475-.782 2.904-1.659 4.164-2.633 1.288-1 2.427-2.135 3.49-3.399a31.486 31.486 0 0 0 2.866-3.994l.285-.473.349-.144c.982-.402 1.982-.766 2.976-1.144a76.676 76.676 0 0 1 3.01-1.082c2.02-.696 4.051-1.345 6.145-1.866"/><path d="M64 53.52l-12.53-8.3 1.9-2.321zM49 64l-5.71-10.69 2.8-1.08z"/></g><circle fill="#f46767" cx="32" cy="29" r="27"/><path fill="#493b30" d="M46.18 37.41c0 6.01-4.709 13.02-14.182 13.02-9.477 0-14.184-7.01-14.184-13.02H46.18"/><path fill="#302822" d="M34.02 39.879c-.632-.018-1.608.553-1.248 2.055.176.758 1.299 1.678 1.299 2.904 0 2.486-4.129 2.486-4.129 0 0-1.227 1.123-2.146 1.301-2.904.357-1.502-.618-2.072-1.25-2.055-1.719.045-4.537 1.822-4.537 4.836 0 3.385 2.934 6.129 6.551 6.129s6.551-2.744 6.551-6.129c-.002-3.01-2.821-4.791-4.538-4.836"/><path fill="#ff717f" d="M38.796 49.13C37 48.077 34.742 47.417 32 47.417s-5 .66-6.796 1.713C27 50.183 29.258 50.847 32 50.847s5-.664 6.796-1.717"/><g fill="#fff"><path d="M32 37.822l2.26 4.133 2.261-4.133zM36.521 37.822l2.261 4.133 2.258-4.133z"/><path d="M41.04 37.822l2.26 4.133 2.263-4.133zM22.959 37.822l2.261 4.133 2.26-4.133zM18.439 37.822l2.26 4.133 2.26-4.133zM27.48 37.822l2.26 4.133L32 37.822z"/></g><path fill="#493b30" d="M32 51.18c-9.698 0-14.931-7.094-14.931-13.77v-.748h29.86v.748C46.93 44.086 41.696 51.18 32 51.18M18.586 38.16c.376 5.725 5.05 11.533 13.414 11.533 8.363 0 13.04-5.809 13.412-11.533H18.586"/><path fill="#fff" d="M50.992 22.04a8.063 8.063 0 0 1-3.901 10.718c-4.04 1.881-8.836.135-10.715-3.9C34.958 25.817 49.575 19 50.992 22.04"/><g fill="#493b30"><path d="M48.623 23.15a5.456 5.456 0 0 1-2.634 7.248 5.46 5.46 0 0 1-7.249-2.639c-.807-1.734 9.08-6.341 9.883-4.609"/><path d="M52.49 22.351c-1.748.17-3.312.43-4.822.834a25.77 25.77 0 0 0-4.328 1.561 25.6 25.6 0 0 0-3.977 2.29c-1.276.896-2.476 1.925-3.722 3.171.19-1.766 1.059-3.423 2.221-4.79 1.167-1.366 2.667-2.471 4.3-3.22A12.79 12.79 0 0 1 47.395 21c1.79-.007 3.612.381 5.095 1.351"/></g><path fill="#fff" d="M13.01 22.04a8.063 8.063 0 0 0 3.902 10.718c4.03 1.881 8.833.135 10.714-3.9C29.044 25.817 14.425 19 13.01 22.04"/><g fill="#493b30"><path d="M15.376 23.15a5.454 5.454 0 0 0 2.634 7.248 5.46 5.46 0 0 0 7.249-2.639c.805-1.734-9.07-6.341-9.883-4.609"/><path d="M11.508 22.351c1.483-.969 3.306-1.358 5.096-1.351 1.797.016 3.594.439 5.232 1.197a12.641 12.641 0 0 1 4.302 3.22c1.16 1.368 2.027 3.02 2.217 4.79-1.245-1.246-2.442-2.275-3.72-3.171a25.56 25.56 0 0 0-3.979-2.292 25.77 25.77 0 0 0-4.324-1.559c-1.513-.404-3.073-.664-4.824-.834"/></g><g fill="#ffdd67"><path d="M55.734 0s-1.943 5.979-6.391 9.82c-5.132 4.433-.183 9.968 3.887 8.798 3.03-.872 7.545-5.567 2.504-18.618M14.654 9.819C10.207 5.979 8.268 0 8.268 0c-5.04 13.05-.529 17.745 2.504 18.618 4.065 1.169 9.02-4.365 3.882-8.799"/></g></svg>