<svg xmlns="http://www.w3.org/2000/svg" viewBox="0 0 64 64"><ellipse fill="#627a82" cx="31.992" cy="11.561" rx="15" ry="9.561"/><ellipse fill="#c28fef" cx="31.992" cy="15.57" rx="15" ry="9.561"/><path fill="#fed0ac" d="M57.25 28.893c-15.611-15.596-35.07-15.666-50.654 0l.096 17.311C6.692 53.74 14.1 62 32.409 62c17.341 0 24.857-6.752 24.857-15.797l-.016-17.31"/><path fill="#454749" d="M39.22 51.744a.905.905 0 0 1 .211.611c.002 1.691-3.357 3.766-7.5 3.766s-7.5-2.061-7.5-3.752c0-.229.064-.467.178-.625 0 0 3.242 1.459 7.322 1.459 4.072 0 7.289-1.459 7.289-1.459"/><path fill="#748a93" d="M31.993 9.111c-29.451 0-35.76 23.74-25.23 32.04 0 0 5.205-8.783 16.13-12.998 28.428-10.974 20.522-19.04 9.105-19.04"/><path fill="#8b9fa5" d="M31.993 9.111c-11.418 0-19.326 8.06 9.105 19.04 10.924 4.215 16.15 12.998 16.15 12.998 10.527-8.296 4.201-32.04-25.25-32.04"/><g fill="#454749"><path d="M42.824 54.38c-.577.003-1.125-.151-1.64-.368a5.762 5.762 0 0 1-1.433-.881c-.85-.727-1.552-1.762-1.594-2.919.776.828 1.458 1.505 2.239 2.157.769.662 1.583 1.258 2.428 2.01M21.04 54.38c.845-.753 1.659-1.349 2.427-2.01.781-.652 1.463-1.329 2.239-2.157-.042 1.157-.744 2.192-1.594 2.919a5.792 5.792 0 0 1-1.433.881c-.514.216-1.061.371-1.639.368M17.724 40.985l-.334-2.982c.779-.086 1.863-.297 3.121-.539 5.881-1.138 15.726-3.039 26.365.611l-.973 2.838c-9.881-3.391-19.236-1.584-24.824-.504-1.318.255-2.458.475-3.355.576"/><ellipse cx="19.682" cy="39.584" rx="8.975" ry="9"/></g><ellipse fill="#b4d7ee" cx="19.682" cy="39.584" rx="5.984" ry="6"/><ellipse fill="#454749" cx="44.27" cy="39.584" rx="8.976" ry="9"/><ellipse fill="#b4d7ee" cx="44.27" cy="39.584" rx="5.984" ry="6"/></svg>