<svg xmlns="http://www.w3.org/2000/svg" viewBox="0 0 64 64"><path fill="#cedbd5" d="M50 10.777c-7.05-5.533-28.955-5.533-36 0-10.412 8.18-12 51.22-12 51.22h59.997S60.407 18.957 50 10.777"/><path fill="#dbb471" d="M54.31 38.982a5.642 5.642 0 0 0 .465-2.248 5.586 5.586 0 0 0-1.482-3.818c1.393-.977 2.311-2.645 2.311-4.539 0-1.988-1.016-3.723-2.529-4.676a5.62 5.62 0 0 0 .904-3.074c0-.176-.002-.352-.006-.527l-1.38-3.67.284-2.688c-2.3-6.58-8.46-11.744-20.873-11.744-12.403 0-18.563 5.154-20.868 11.725l.275 2.708-1.379 3.703a20.34 20.34 0 0 0-.005.494c0 1.141.336 2.199.904 3.074-1.514.952-2.53 2.687-2.53 4.675 0 1.895.92 3.563 2.313 4.539a5.588 5.588 0 0 0-1.484 3.818c0 .803.168 1.563.464 2.248-2.048.729-2.69 2.764-2.69 5.164 0 10.123 10.959 5.67 10.959 5.67h28.08s10.959 4.453 10.959-5.67c-.001-2.4-.646-4.435-2.694-5.164"/><g fill="#f2f1f0"><path d="M54.26 61.998c0-14.73-1.438-15.533-22.259-15.533-20.815 0-22.257.803-22.257 15.533H54.26M32 6.629c-7.84 0-15.07 2.652-20.871 7.105-.709 2.023-1.049 4.182-1.096 6.365 5.551-5.814 13.344-9.443 21.967-9.443s16.413 3.629 21.964 9.443c-.047-2.184-.387-4.342-1.094-6.365C47.071 9.281 39.84 6.629 32 6.629"/></g><path fill="#fed0ac" d="M15.898 35.17s-3.251-.832-3.251-5.645c0-3.811 2.45-4.465 2.45-4.465 8.786 0 23.1-9.482 23.1-9.482s5.411 8.146 10.634 9.482c0 0 2.525.467 2.525 4.465 0 4.813-3.373 5.645-3.373 5.645-.045 7.26-9.96 16.02-15.98 16.02s-16.1-8.758-16.1-16.02"/><path fill="#e0a372" d="M36.03 38.484c0 1.582-3.28 2.041-4.03 2.041s-4.03-.561-4.03-2.145c0 .001 8.07-.685 8.07.104"/><path fill="#f5f5f5" d="M26.51 32.16c.947 0 .821-2.449.821-2.449-2.908-6.502-9.389-2.389-9.389-2.389-2.52 1.127 1.129 4.684 1.714 4.838 2.744.744 6.854 0 6.854 0"/><circle fill="#664e27" cx="22.713" cy="29.19" r="3.1"/><g fill="#231f20"><path d="M23.715 29.19a1 1 0 1 1-2 0 1 1 0 0 1 2 0"/><path d="M28.15 30.648c-.847-.938-1.653-1.842-2.563-2.521-.916-.674-1.902-1.08-2.973-1.159-1.072-.094-2.211.116-3.416.32-.603.107-1.229.208-1.884.229-.634.009-1.409-.089-1.84-.599.608.205 1.167.057 1.722-.128.558-.179 1.113-.425 1.697-.633 1.155-.433 2.454-.798 3.846-.684 1.39.095 2.744.796 3.631 1.789.909.982 1.481 2.16 1.78 3.386"/></g><path fill="#f5f5f5" d="M37.493 32.16c-.946 0-.821-2.449-.821-2.449 2.909-6.502 9.391-2.389 9.391-2.389 2.518 1.127-1.131 4.684-1.715 4.838-2.744.744-6.855 0-6.855 0"/><circle fill="#664e27" cx="41.29" cy="29.19" r="3.1"/><g fill="#231f20"><circle cx="41.29" cy="29.19" r="1"/><path d="M35.857 30.648c.3-1.227.871-2.405 1.78-3.385.887-.992 2.241-1.694 3.631-1.789 1.392-.114 2.69.251 3.846.684.584.208 1.14.454 1.697.633.555.185 1.113.333 1.722.128-.431.51-1.206.607-1.84.599-.655-.021-1.281-.122-1.884-.229-1.205-.205-2.344-.414-3.416-.32-1.07.079-2.057.484-2.973 1.159-.909.679-1.716 1.582-2.563 2.52"/></g><path fill="#e07297" d="M34.864 42.37c-.585-.145-1.439-.076-2.568.303a9.921 9.921 0 0 0-.294.094 14.124 14.124 0 0 0-.294-.094c-1.129-.379-1.984-.447-2.569-.303-1.746.424-4.393.217-4.393.217 1.924 1.922 2.839 4.549 7.256 4.549s5.332-2.627 7.256-4.549c0 0-2.647.207-4.394-.217"/><path fill="#b85d7b" d="M34.864 42.37c-.585-.145-1.439-.076-2.568.303a9.921 9.921 0 0 0-.294.094 14.124 14.124 0 0 0-.294-.094c-1.129-.379-1.984-.447-2.569-.303-1.714.416-4.404.215-4.393.217 2.903.521 3.266 2.01 7.256 2.01s4.353-1.484 7.256-2.01c.011-.002-2.679.199-4.394-.217"/><path fill="#428bc1" d="M39.854 61.998H23.25l-2.18-2.978h20.1z"/><path fill="#224863" d="M41.17 59.02c0 .44-4.498.796-10.05.796-5.546 0-10.05-.355-10.05-.796 0-.439 4.499-.796 10.05-.796 5.551.001 10.05.357 10.05.796"/><path fill="#871212" d="M25.632 54.28l-1.987-2.2-1.585 2.45z"/><path fill="#991d1d" d="M22.954 54.894l2.076-2.922 2.328 1.448z"/><path fill="#ad2727" d="M22.11 53l-.3 1.729 4.602.25z"/><path fill="#cc3636" d="M25.397 54.968c2.902 1.362 2.598 3.185 1.124 3.907-1.473.722-3.78.091-4.175-1.771-.398-1.873-1.686-2.993-1.686-2.993s2.521-.184 4.737.857"/><path fill="#e24b4b" d="M23.665 55.6c-1.04 3.066 1.489 3.939 2.963 3.219 1.473-.723 1.99-2.686 1.158-4.385-.834-1.701-1.555-2.544-1.555-2.544s-1.825 1.527-2.566 3.71"/><path fill="#75a843" d="M26.32 58.08c2.263-1.146 1.702.231.228.953-3.623 1.776-5.01-1.465-5.01-1.465s2.777 1.53 4.784.512"/><path fill="#83bf4f" d="M26.32 58.08c-.489.549-1.907 1.682-.328 1.262 3.121-.828 2.524-5.057 2.524-5.057s-.742 2.164-2.196 3.795"/><path fill="#871212" d="M35.892 52.82l4.218 2.53-.09-3.412z"/><path fill="#991d1d" d="M39.77 57.27l-2.783-4.02h4.709z"/><path fill="#ad2727" d="M40.739 55.755L38.12 51.18l-2.174 1.84z"/><path fill="#cc3636" d="M38.603 55.52l-4.473-.26 1.99-4.631z"/><path fill="#e24b4b" d="M36.831 54.38c-3.5 1.165-2.554 4.064-.884 4.905 1.669.84 3.81-.041 4.779-1.969.97-1.926 2.082-2.847 2.082-2.847s-3.485-.92-5.977-.089"/><path fill="#83bf4f" d="M36.408 58.5c-.835-.066-2.841-.575-1.372.57 2.902 2.263 6.329-1.188 6.329-1.188s-2.475.814-4.957.618"/><path fill="#871212" d="M27.615 52.819l6.184-.279-2.994-2.717z"/><path fill="#991d1d" d="M34.982 51.764l-5.983 1.666 3.658-3.3z"/><path fill="#ad2727" d="M33.02 53.12l-4.533-2.57-.615 3.332z"/><path fill="#cc3636" d="M32.19 54.19v5.497c-2.168.48-4.771-1.085-4.697-3.66.074-2.59-1.263-4.474-1.263-4.474s3.374.559 5.96 2.637"/><path fill="#e24b4b" d="M29.708 54.47c-2.346 3.7.703 5.658 2.871 5.178s3.475-2.897 2.921-5.399c-.554-2.503-.223-4.185-.223-4.185s-3.899 1.769-5.569 4.406"/><path fill="#75a843" d="M32.411 58.58c3.341-.788 2.164.848-.004 1.327-5.332 1.183-6.128-3.524-6.128-3.524s3.167 2.896 6.132 2.197"/><path fill="#83bf4f" d="M32.411 58.58c-.819.566-3.045 1.604-.834 1.556 4.371-.097 4.932-5.849 4.932-5.849s-1.666 2.611-4.098 4.293"/></svg>