<svg xmlns="http://www.w3.org/2000/svg" viewBox="0 0 64 64"><path fill="#ffe1bd" d="M58.59 37.701c-4.127-1.551-2.684-6.717-2.684-6.717H8.096s1.445 5.166-2.684 6.717c0 0-3.41.605-3.41 4.533 0 4.73 3.508 4.965 3.508 4.965 0 7.203 7.428 14.799 26.492 14.799 19.06 0 26.492-7.596 26.492-14.799 0 0 3.506-.234 3.506-4.965 0-3.927-3.41-4.533-3.41-4.533"/><path fill="#664e27" d="M24.796 51.691a.9.9 0 0 0-.211.609c-.002 1.686 3.357 3.754 7.5 3.754s7.5-2.053 7.5-3.74a1.11 1.11 0 0 0-.178-.623s-3.242 1.453-7.322 1.453c-4.072.001-7.289-1.453-7.289-1.453"/><path fill="#ff9430" d="M59 30.984H5C5 16.645 11.756 5.501 32 5.501c20.246 0 27 11.145 27 25.483"/><g fill="#db802b"><path d="M24.46 30.984h-4V7.06l4-1.17zM43.542 30.984h-4V5.894l3.999 1.17z"/><path d="M62 33.19H2c0-5.115 13.432-9.264 30-9.264s30 4.148 30 9.264"/></g><path fill="#ff9430" d="M41.542 27.668h-19.08V6.548c0-6.068 19.08-6.068 19.08 0v21.12"/><g fill="#231f20"><path d="M5 33.19h3.445v8.217H5zM55.56 33.19h3.443v8.217H55.56z"/></g><path fill="#f5f5f5" d="M12.634 38.683c-.323 1.517-.709 5.321 6.475 5.188 7.443-.142 7.148.5 7.51-2.01.314-2.199-2.295-4.644-6.156-5.521s-7.368.176-7.829 2.347"/><ellipse fill="#664e27" cx="20.293" cy="39.802" rx="3.925" ry="3.889"/><ellipse fill="#231f20" cx="20.292" cy="39.802" rx="1.25" ry="1.238"/><path fill="#664e27" d="M12.493 40.16c-1.047-6.75 14.1-6.391 14.1.798-2.19-5.72-12.627-5.917-14.1-.798"/><path fill="#f5f5f5" d="M51.37 38.683c.323 1.517.708 5.321-6.475 5.188-7.443-.142-7.147.5-7.509-2.01-.316-2.199 2.293-4.644 6.154-5.521s7.369.176 7.83 2.347"/><ellipse fill="#664e27" cx="43.708" cy="39.802" rx="3.926" ry="3.889"/><path fill="#231f20" d="M44.958 39.802c0 .685-.563 1.238-1.25 1.238-.691 0-1.25-.554-1.25-1.238 0-.686.559-1.237 1.25-1.237a1.243 1.243 0 0 1 1.25 1.237"/><path fill="#664e27" d="M51.51 40.16c1.045-6.75-14.1-6.391-14.1.798 2.188-5.72 12.625-5.917 14.1-.798"/></svg>