<svg xmlns="http://www.w3.org/2000/svg" viewBox="0 0 64 64"><path fill="#b47d56" d="M62 31.76a5.017 5.017 0 0 0-4.277-4.972C56.53 10.548 45.473 1.998 32 1.998s-24.529 8.55-25.723 24.79A5.016 5.016 0 0 0 2 31.76c0 2.64 2.02 4.778 4.574 5C8.226 49.204 15.201 52.44 32 52.44c16.798 0 23.773-3.235 25.426-15.68a5.01 5.01 0 0 0 4.574-5"/><path fill="#231f20" d="M35.469 13.178c1.066 0 2.104-.066 3.119-.168-2.402-1.762-4.27-4.063-5.365-6.691 2.75 1.012 5.998 1.6 9.484 1.6a29.98 29.98 0 0 0 3.12-.17 16.597 16.597 0 0 1-3.771-3.834c-3.178-1.268-6.688-1.916-10.381-1.916-4.949 0-9.57 1.156-13.498 3.42 2.083 4.468 9.02 7.759 17.292 7.759"/><g fill="#ff717f"><path opacity=".5" d="M55.22 37.05c-.338-2.473-3.137-3.963-6.254-3.328-3.117.633-5.368 3.156-5.03 5.633.34 2.473 3.138 3.967 6.257 3.33 3.117-.637 5.367-3.159 5.03-5.635M15.04 33.721c-3.113-.635-5.916.855-6.254 3.328-.336 2.477 1.916 4.998 5.03 5.635s5.916-.857 6.254-3.33c.34-2.477-1.916-4.997-5.03-5.633"/></g><path fill="#fff" d="M26.34 27.754a7 7 0 1 1-13.998-.002 7 7 0 0 1 13.998.002"/><path fill="#664e27" d="M24.59 27.752a5.25 5.25 0 1 1-10.499-.001 5.25 5.25 0 0 1 10.499.001"/><path fill="#231f20" d="M21.09 27.753c0 .966-.785 1.746-1.748 1.746a1.75 1.75 0 1 1 1.748-1.746"/><path fill="#fff" d="M51.665 27.756a6.998 6.998 0 0 1-6.999 6.996 6.998 6.998 0 1 1 0-13.996 7.002 7.002 0 0 1 6.999 7"/><path fill="#664e27" d="M49.915 27.752a5.25 5.25 0 1 1-10.5 0 5.25 5.25 0 0 1 10.5 0"/><path fill="#231f20" d="M46.41 27.753c0 .967-.782 1.748-1.749 1.748s-1.751-.781-1.751-1.748a1.75 1.75 0 1 1 3.5 0"/><path fill="#935e3e" d="M35.504 34.18c0 1.322-2.848 1.701-3.5 1.701-.654 0-3.5-.467-3.5-1.787 0 0 7-.571 7 .086"/><path fill="#61c2ff" d="M47 42.502c0 9.379-6.714 13.721-14.999 13.721-8.283 0-15-4.342-15-13.721 0-9.375 6.756-5.793 15.04-5.793 8.285 0 14.96-3.582 14.96 5.793"/><ellipse fill="#6235a8" cx="32" cy="46.13" rx="6" ry="5.66"/><path fill="#fbbf67" d="M32 45.561c-5.965 0-10.799-.713-10.799 5.389C21.201 57.054 26.035 62 32 62s10.801-4.945 10.801-11.05c0-6.102-4.836-5.389-10.801-5.389m0 12.703c-4.24 0-8.158-2.975-8.158-7.314S27.76 47.667 32 47.667c4.242 0 8.16-1.057 8.16 3.283s-3.918 7.314-8.16 7.314"/><path fill="#42ade2" d="M35.67 47.45c0 .625-.447 1.131-1 1.131h-5.334c-.553 0-1-.506-1-1.131v-2.643c0-.627.447-1.133 1-1.133h5.334c.553 0 1 .506 1 1.133v2.643"/></svg>