<svg xmlns="http://www.w3.org/2000/svg" viewBox="0 0 64 64"><path fill="#ffdd67" d="M6.704 28.893h50.945l-.096 17.311c0 7.537-7.45 15.795-25.866 15.795-17.441 0-24.999-6.75-24.999-15.795l.016-17.311"/><path fill="#fff" d="M59.31 29.553H5.09c0-11.199 12.136-20.279 27.11-20.279 14.971-.001 27.11 9.08 27.11 20.279"/><path fill="#467591" d="M57.51 47.26c3.311-16.375.984-37.19-25.396-45.26 0 0-19.439 11.393 9.158 26.895C52.259 34.85 57.51 47.26 57.51 47.26"/><path fill="#3a81ad" d="M21.676 9.357c.045-4.617 4.813-7.359 10.443-7.359 28.14 0 35.27 32.49 26.13 40.623-1.875-16.789-12.923-31.955-36.573-33.26"/><path fill="#428bc1" d="M6.726 47.26C.009 25.03 23.092 2.606 51.946 9.275c9.04 2.09-1.102 10.141-28.979 19.619C11.126 32.924 6.729 47.26 6.729 47.26"/><path fill="#57a1ce" d="M51.943 9.273c.277-5.244-14.201-7.275-19.83-7.275-28.14 0-35.794 31.51-26.13 41.32 3.836-28.13 22.314-32.74 45.964-34.05"/><path fill="#664e27" d="M24.916 51.744a.896.896 0 0 0-.211.609c-.002 1.693 3.357 3.768 7.5 3.768s7.5-2.061 7.5-3.752c0-.229-.064-.469-.178-.625 0 0-3.242 1.459-7.322 1.459-4.072 0-7.289-1.459-7.289-1.459"/><path fill="#f5f5f5" d="M12.636 39.09c-.324 1.517-.709 5.321 6.475 5.188 7.443-.142 7.147.5 7.509-2.01.315-2.199-2.294-4.644-6.155-5.521s-7.368.176-7.829 2.347"/><ellipse fill="#664e27" cx="20.294" cy="40.21" rx="3.925" ry="3.889"/><ellipse fill="#231f20" cx="20.294" cy="40.21" rx="1.25" ry="1.238"/><path fill="#664e27" d="M12.494 40.564c-1.046-6.75 14.1-6.391 14.1.798-2.189-5.719-12.626-5.917-14.1-.798"/><path fill="#f5f5f5" d="M51.37 39.09c.324 1.517.709 5.321-6.475 5.188-7.443-.142-7.147.5-7.509-2.01-.315-2.199 2.294-4.644 6.155-5.521s7.368.176 7.829 2.347"/><ellipse fill="#664e27" cx="43.709" cy="40.21" rx="3.925" ry="3.889"/><path fill="#231f20" d="M44.959 40.21c0 .685-.562 1.238-1.249 1.238a1.244 1.244 0 0 1-1.251-1.238c0-.686.56-1.237 1.251-1.237.687 0 1.249.551 1.249 1.237"/><path fill="#664e27" d="M51.51 40.564c1.046-6.75-14.1-6.391-14.1.798 2.189-5.719 12.626-5.917 14.1-.798"/></svg>