<svg xmlns="http://www.w3.org/2000/svg" viewBox="0 0 64 64"><path fill="#d8e0e0" d="M19.281 18.943h25.438v38.05H19.281z"/><path fill="#428bc1" d="M20.914 23.906v-5.898c7.391-1.809 22.17-4.738 22.17-4.738-7.391 1.809-14.781 8.827-22.17 10.636"/><path fill="#fff" d="M20.914 29.531v-5.898c7.391-1.809 14.781-8.827 22.17-10.635v5.897c-7.391 1.809-14.781 8.827-22.17 10.636"/><path fill="#ed4c5c" d="M20.914 35.16v-5.898c7.391-1.809 14.781-8.827 22.17-10.635v5.897c-7.391 1.809-14.781 8.827-22.17 10.636"/><path fill="#fff" d="M20.914 40.781v-5.898c7.391-1.809 14.781-8.827 22.17-10.635v5.897c-7.391 1.808-14.781 8.827-22.17 10.636"/><path fill="#428bc1" d="M20.914 46.33v-5.897c7.391-1.81 14.781-8.827 22.17-10.636v5.898c-7.391 1.808-14.781 8.826-22.17 10.635"/><path fill="#fff" d="M20.914 51.952v-5.897c7.391-1.81 14.781-8.827 22.17-10.635v5.897c-7.391 1.808-14.781 8.826-22.17 10.635"/><path fill="#ed4c5c" d="M20.914 57.58v-5.897c7.391-1.81 14.781-8.827 22.17-10.635v5.897c-7.391 1.808-14.781 8.826-22.17 10.635"/><path fill="#fff" d="M24.08 61.3c0-1.966-3.17-2.026-3.17-3.992 7.391-1.81 14.781-8.827 22.17-10.635v5.897c-7.391 1.808-11.611 6.92-19 8.73"/><path fill="#428bc1" d="M29.76 58.859c4.442-2.588 8.884-5.557 13.326-6.644v5.897c-7.391 1.811-16.274 2.466-13.326.747"/><path fill="#b0b8b8" d="M45 13.825H19c0-15.767 26-15.767 26 0"/><g fill="#c1c9c9"><path d="M47 17.609c0 1.017-.896 1.841-2 1.841H19c-1.104 0-2-.825-2-1.841v-1.943c0-1.017.896-1.841 2-1.841h26c1.104 0 2 .824 2 1.841v1.943M47 60.16c0 1.016-.896 1.841-2 1.841H19c-1.104 0-2-.825-2-1.841v-1.943c0-1.016.896-1.841 2-1.841h26c1.104 0 2 .825 2 1.841v1.943"/></g></svg>