<svg xmlns="http://www.w3.org/2000/svg" viewBox="0 0 64 64"><path fill="#231f20" d="M60.31 24.744c-.934.333-3.564 1.234-5.891 1.457-.85.057-1.693.022-2.484-.142-.73-.212-1.285-.614-1.5-1.315l-.188.69c-1.447-.83-2.486-2.403-2.654-5.148C46.31-.699 36.051 5.576 36.051 5.576s-.887-3.578-9.996-3.578c-14.1 0-21.797 9.04-21.797 20.946v30.333s51.06 8.721 57.74-29.27c0 .001-.656.332-1.688.738"/><path fill="#a9b5ae" d="M50.44 24.744c.498 1.615 2.734 1.694 4.988 1.323-1.047-2.622-2.76-5.846-4.24-9.424-.615-1.484-1.826-2.227-3.428-1.115 0 0-1.451-.743-3.422-6.738-.016-.047-.305-.757-.461-1.017-1.441-2.385-4.645-3.087-7.148-1.567-2.502 1.518-3.367 4.683-1.924 7.07 1.438 2.385 4.641 3.086 7.145 1.568a5.566 5.566 0 0 0 1.703-1.62c.57.385 1.385 3.588 1.385 3.588l5.213 8.626.189-.693m-9.75-11.987c-1.295.785-2.951.423-3.695-.81-.748-1.235-.301-2.872.996-3.657 1.295-.785 2.953-.422 3.695.812.749 1.232.299 2.872-.996 3.655"/><path fill="#b386e2" d="M35.639 49.36v-6.969h-19.16v6.969c-12.05.378-14.477 2.351-14.477 12.637h48.12c0-10.285-2.437-12.259-14.478-12.637"/><path fill="#b47d56" d="M10.479 33.589s-3.137-.814-3.137-5.526c0-3.732 2.365-4.372 2.365-4.372 8.48 0 22.296-11.18 22.296-11.18s5.225 9.87 10.264 11.18c0 0 2.439.457 2.439 4.372 0 4.712-3.258 5.526-3.258 5.526-.041 7.107-9.615 15.683-15.424 15.683-5.813-.001-15.545-8.576-15.545-15.683"/><path fill="#935e3e" d="M29.915 36.833c0 1.549-3.164 1.998-3.89 1.998-.728 0-3.894-.549-3.894-2.098 0 0 7.784-.672 7.784.1"/><path fill="#f5f5f5" d="M20.723 30.644c.916 0 .794-2.399.794-2.399-2.81-6.366-9.06-2.336-9.06-2.336-2.433 1.101 1.091 4.582 1.653 4.735 2.65.727 6.617 0 6.617 0"/><ellipse fill="#664e27" cx="17.06" cy="27.729" rx="2.991" ry="3.035"/><g fill="#231f20"><ellipse cx="17.06" cy="27.729" rx="1" ry="1.015"/><path d="M22.301 29.16c-.766-.947-1.521-1.858-2.399-2.552-.879-.69-1.866-1.127-2.932-1.193-1.064-.104-2.182.125-3.34.347-.579.114-1.176.228-1.8.263-.603.025-1.332-.046-1.764-.517.569.229 1.131.107 1.674-.059.547-.159 1.088-.387 1.655-.579 1.12-.404 2.358-.736 3.671-.636.65.064 1.302.231 1.894.525a5.684 5.684 0 0 1 1.551 1.166c.877.931 1.452 2.059 1.79 3.235"/></g><path fill="#f5f5f5" d="M31.32 30.644c-.916 0-.794-2.399-.794-2.399 2.809-6.366 9.07-2.336 9.07-2.336 2.434 1.101-1.09 4.582-1.656 4.735-2.649.727-6.617 0-6.617 0"/><ellipse fill="#664e27" cx="34.99" cy="27.729" rx="2.992" ry="3.035"/><g fill="#231f20"><ellipse cx="34.99" cy="27.729" rx="1" ry="1.014"/><path d="M29.747 29.16c.34-1.176.911-2.304 1.792-3.234.435-.47.964-.86 1.549-1.166a5.487 5.487 0 0 1 1.893-.525c1.313-.101 2.551.231 3.67.635.57.193 1.111.421 1.658.58.543.166 1.104.287 1.674.059-.432.471-1.16.542-1.766.517-.623-.035-1.223-.148-1.801-.263-1.154-.222-2.273-.451-3.338-.347-1.064.067-2.051.503-2.929 1.193-.881.694-1.637 1.605-2.402 2.551"/></g><path fill="#935e3e" d="M28.788 40.633c-.564-.143-1.391-.074-2.479.294-.095.031-.19.062-.283.094a16.012 16.012 0 0 0-.286-.094c-1.09-.368-1.912-.437-2.479-.294-1.687.416-4.241.213-4.241.213 1.858 1.882 2.741 4.455 7.01 4.455s5.147-2.573 7-4.455c-.001 0-2.558.203-4.242-.213"/><path fill="#734c31" d="M28.788 40.633c-.564-.143-1.391-.074-2.479.294-.095.031-.19.062-.283.094a16.012 16.012 0 0 0-.286-.094c-1.09-.368-1.912-.437-2.479-.294-1.656.408-4.249.212-4.241.213 2.804.511 3.153 1.963 7.01 1.963 3.851 0 4.202-1.452 7-1.963.009-.001-2.588.195-4.242-.213"/><path fill="#cedbd5" d="M61.818 8.669c.754-2.763-.898-5.497-3.689-6.109s-5.664 1.129-6.418 3.889c-.08.302-.172 1.077-.174 1.126-.316 6.387-1.508 7.583-1.508 7.583-1.818-.524-2.783.589-2.979 2.213-1.068 8.743-3.729 16.216.959 16.286l4.959-18.18s-.059-3.331.381-3.891a5.03 5.03 0 0 0 2.051.977c2.795.611 5.666-1.13 6.418-3.889m-2.437-.536c-.391 1.427-1.877 2.328-3.32 2.01a2.518 2.518 0 0 1-1.908-3.159c.389-1.428 1.875-2.328 3.32-2.01a2.523 2.523 0 0 1 1.908 3.161"/><path fill="#231f20" d="M50.635 18.58a1.293 1.293 0 0 0-.979-1.618 1.461 1.461 0 0 0-1.703 1.031 1.291 1.291 0 0 0 .979 1.619c.738.164 1.5-.299 1.703-1.032"/></svg>