<svg xmlns="http://www.w3.org/2000/svg" viewBox="0 0 64 64"><g fill="#ed4c5c"><path d="M59.705 25.491c0 9.793-7.07 9.793-7.07 0 0-5.814 3.535-10.529 3.535-10.529s3.535 4.714 3.535 10.529M54.48 43.2c0 7.458-7.07 7.457-7.07 0 0-4.427 3.535-8.02 3.535-8.02s3.535 3.591 3.535 8.02"/></g><path fill="#d0d0d0" d="M21.13 55.45L9.475 43.663 35.38 17.468 47.03 29.26z"/><path fill="#ed4c5c" d="M30.2 43.663L44.44 29.26l-9.06-9.17-14.25 14.405z"/><path fill="#333" d="M27.605 46.28l2.595-2.617-9.07-9.168-2.59 2.615z"/><path fill="#bcc0c1" d="M43.793 25.982l2.587-2.619-5.18-5.243-2.587 2.623z"/><g fill="#42ade2"><path d="M14.654 62l1.296-1.31L4.295 48.902 3 50.21z"/><path d="M12.714 57.41l5.178-5.23-5.178-5.243-5.183 5.243z"/></g><path fill="#bcc0c1" d="M43.12 20.08l.33.339.331.335.669.67L59.736 5.959l.634-1.98.315-.99L61 2z"/></svg>