<svg xmlns="http://www.w3.org/2000/svg" viewBox="0 0 64 64"><path fill="#b47d56" d="M52.39 43.891c-3.164-1.201-2.059-6.799-2.059-6.799H13.675s1.107 5.598-2.059 6.799c0 0-2.613-.333-2.613 2.704 0 3.66 2.689 3.04 2.689 3.04 0 5.572 5.693 11.448 20.312 11.448 14.616 0 20.312-5.876 20.312-11.448 0 0 2.688.62 2.688-3.04-.001-3.037-2.614-2.704-2.614-2.704"/><path fill="#454749" d="M50.46 38.633v10.901c0 5.05-5.16 10.37-18.399 10.37-13.241 0-18.401-5.322-18.401-10.37V38.633h-1.91v11.919c0 5.571 5.695 11.446 20.312 11.446s20.312-5.875 20.312-11.446V38.633H50.46"/><g fill="#fff"><ellipse cx="41.452" cy="45.956" rx="5.29" ry="5.314"/><ellipse cx="22.551" cy="45.956" rx="5.291" ry="5.314"/></g><path fill="#574137" d="M26.477 53.911a.697.697 0 0 0-.162.471c-.002 1.305 2.574 2.903 5.75 2.903s5.75-1.588 5.75-2.894a.852.852 0 0 0-.137-.48s-2.484 1.124-5.613 1.124c-3.124 0-5.588-1.124-5.588-1.124"/><circle fill="#664e27" cx="41.452" cy="45.957" r="3.75"/><path fill="#231f20" d="M42.701 45.957c0 .688-.56 1.25-1.25 1.25s-1.25-.562-1.25-1.25c0-.693.56-1.25 1.25-1.25s1.25.557 1.25 1.25"/><circle fill="#664e27" cx="22.55" cy="45.957" r="3.75"/><circle fill="#231f20" cx="22.551" cy="45.957" r="1.25"/><path fill="#454749" d="M61.37 35.504a109.773 109.773 0 0 1-4.516-1.831c1.662-.021 3.412-.364 5.15-1.307a115.349 115.349 0 0 1-4.318-1.747 10.652 10.652 0 0 0 3.682-1.187 126.66 126.66 0 0 1-3.678-1.487 10.81 10.81 0 0 0 3.971-1.484c-1.452-.461-2.8-.907-4.13-1.381a11.244 11.244 0 0 0 3.839-2.591c-1.77-.089-3.397-.184-5.03-.346 1.538-.726 3.034-1.791 4.294-3.409-1.854.124-5.586-.538-5.586-.538s3.236-2.393 4.404-4.464c-1.758.406-3.377.766-5.02 1.06 1.055-1.28 1.955-2.813 2.467-4.726-1.65.91-5.49 2.862-5.49 2.862s2.193-3.771 2.479-6.171c-1.502 1.168-5.157 3.819-5.157 3.819s1.147-4.03.858-6.428c-1.18 1.533-3.887 4.833-3.887 4.833s-.133-3.827-.979-5.822c-.707 1.833-2.975 7.165-3.416 8.169.072-.628-.271-6.096-1.398-8.193-.539 1.897-3.945 7.453-3.945 7.453s-1.433-6.161-1.647-8.131a12.173 12.173 0 0 0-2 3.751 148.259 148.259 0 0 1-.501-4.21c-1.376 1.742-2.097 3.66-2.473 5.541-.541-1.64-1.022-3.295-1.533-5.094-1.127 2.099-1.44 7.982-1.319 8.806-.258-.766-1.851-5.761-2.391-7.657-1.127 2.098-1.469 7.564-1.398 8.193-.44-1-2.709-6.336-3.416-8.168-.846 1.994-1.066 3.968-.979 5.82-.153-.181-2.707-3.3-3.887-4.831-.287 2.398.139 4.541.854 6.418.002.003.004.006.004.009-.277-.193-3.654-2.649-5.156-3.818.166 2.707 1.721 5.805 1.721 5.805s-3.082-1.586-4.732-2.496c.512 1.913 1.412 3.445 2.467 4.726-1.641-.294-3.262-.655-5.02-1.061 1.036 2.953 4.092 5.255 4.092 5.255s-3.42-.128-5.273-.253c1.26 1.62 2.758 2.685 4.295 3.41-1.631.161-3.26.257-5.03.346a11.229 11.229 0 0 0 3.84 2.591c-1.331.474-2.679.92-4.131 1.381a10.767 10.767 0 0 0 3.971 1.484 126.66 126.66 0 0 1-3.678 1.487 10.682 10.682 0 0 0 3.681 1.187 115.31 115.31 0 0 1-4.317 1.746c1.74.944 3.49 1.286 5.152 1.307a105.79 105.79 0 0 1-4.518 1.832 10.642 10.642 0 0 0 3.707 1.203c-1.253 1.1-2.541 2.146-3.945 3.269 3.151.427 7.07-.912 7.07-.912s-2.246 2.757-3.502 4.216c5.922-.122 27.03-11.588 27.03-11.588s17.656 11.06 25.04 11.129c-1.256-1.458-3.5-4.215-3.5-4.215s4.834 1.328 7.07.912c-1.404-1.123-2.691-2.17-3.945-3.27a10.669 10.669 0 0 0 3.705-1.204"/><path fill="#57595b" d="M59.46 33.827a110.941 110.941 0 0 1-4.068-2.378 10.695 10.695 0 0 0 3.797-1.261c-1.754-.649-6.158-2.468-6.158-2.468s5.03-.693 6.924-2.027c-1.809-.454-3.465-.884-5.115-1.393-.132-.039 3.153-1.427 4.748-2.97-1.852-.154-4.631-1-4.631-1s3.52-1.88 4.951-3.754c-1.852.141-3.555.259-5.27.297-.152.005 2.209-2.666 3.064-4.707-1.754.651-3.369 1.24-5.02 1.757-.063.02 2.313-3.181 2.912-5.509-1.641.929-3.152 1.773-4.707 2.553-.228.116.399-2.8.426-4.689-1.477 2.137-4.749 4.229-4.717 4.089.434-1.974.549-4.16-.086-6.484-1.257 3.77-4.424 6.599-4.424 6.599s.166-4.198-.674-6.445c-.785 1.798-1.514 3.443-2.314 5.066-.038.079-.281-3.593-1.142-5.58-.623 1.653-1.21 3.18-1.843 4.681-.146-1.493-.528-3.03-1.3-4.552a171.495 171.495 0 0 1-1.147 3.589 143.537 143.537 0 0 1-1.593-4.087c-.951 2.195-1.148 4.376-.996 6.397.012.145-1.305-3.557-1.889-5.439-.771 1.521-1.153 3.058-1.3 4.551-.633-1.502-1.22-3.03-1.843-4.681-.86 1.987-1.104 5.658-1.143 5.58-.802-1.622-1.53-3.269-2.315-5.066-.752 3.74-2.336 4.649-2.336 4.649s-1.83-1.493-2.76-4.803c-.635 2.324-.557 6.383-.844 6.124-1.324-1.167-2.588-2.39-3.959-3.729.026 1.891.653 4.805.426 4.688-1.554-.777-3.066-1.623-4.707-2.551.599 2.326 2.975 5.527 2.912 5.508-1.646-.516-3.262-1.104-5.02-1.757.855 2.043 3.219 4.714 3.066 4.709-1.717-.04-3.42-.157-5.271-.298 1.432 1.873 5.739 4.191 5.576 4.212-1.703.234-3.404.39-5.256.545 1.595 1.542 4.88 2.93 4.748 2.969-1.65.51-3.307.938-5.115 1.393 2.279 2.257 5.72 2.547 5.72 2.547s-3.199 1.297-4.953 1.947a10.707 10.707 0 0 0 3.798 1.261 115.752 115.752 0 0 1-4.069 2.378c1.638.6 3.223.729 4.711.594l-.084.054c-1.48.934-2.982 1.793-4.627 2.716 1.259.46 2.485.64 3.662.639-.986.985-1.998 1.957-3.096 2.982 2.258.231 8.139-1.933 8.139-1.933-.926 1.545-1.904 3.035-2.982 4.649 2.246-.331 4.072-1.334 5.582-2.561 1.156-.951 2.918-2.862 2.918-2.862s-.502 3.614-.84 5.566c2.238-1.299 5.938-5.921 5.938-5.921s-.127 3.816-.262 5.883c1.955-1.517 3.18-3.337 3.99-5.185.383.603.768 1.203 1.142 1.811.959 1.521 1.838 3.081 2.781 4.791.895-2.543.586-6.904.586-6.904l6.694.292s.621 3.064.906 4.74c1.299-1.675 2.221-5.103 2.23-5.087.959 1.523 1.838 3.082 2.781 4.793.656-1.865.769-5.212.769-5.212s1.64 1.991 2.667 2.836c1.51 1.227 3.336 2.229 5.582 2.56-1.078-1.613-2.982-4.648-2.982-4.648s5.881 2.165 8.139 1.934a127.765 127.765 0 0 1-3.096-2.982c1.178 0 2.403-.178 3.662-.64-1.645-.923-3.146-1.781-4.625-2.716l-.084-.053c1.487.136 3.071.005 4.708-.595"/><path fill="#454749" d="M50.712 26.531c.146-.006.291.001.439-.01 1.895-.154 3.885-.702 5.766-2.046a123.358 123.358 0 0 1-4.119-1.078c1.413-.724 2.78-1.745 3.941-3.247-1.854.13-3.555.237-5.273.268-.332.009-.666.012-.998.017 1.514-1.188 2.912-2.76 3.84-4.939-1.758.64-3.377 1.221-5.02 1.727-.289.092-.58.177-.869.266.063-.063.128-.116.189-.18 1.344-1.435 2.521-3.229 3.131-5.558-1.645.92-3.162 1.755-4.721 2.525-.322.163-.649.32-.974.479.259-.378.507-.769.737-1.179.965-1.743 1.682-3.797 1.727-6.216-1.377 1.33-2.648 2.547-3.977 3.707-.563.501-1.133.992-1.703 1.487.096-.318.195-.634.271-.964.443-1.97.568-4.158-.053-6.485-.951 1.702-1.836 3.26-2.787 4.786l-.185.296a12.714 12.714 0 0 0-.771-4.544 143.464 143.464 0 0 1-1.896 4.127c-.008-1.625-.277-3.328-1.01-5.05-.703 1.836-1.357 3.516-2.082 5.178-.298.696-.607 1.388-.915 2.082l-.021-.159c-.234-1.814-.396-3.626-.563-5.603-1.39 1.671-2.155 3.527-2.581 5.362-.18-.407-.361-.814-.536-1.224-.727-1.661-1.381-3.343-2.084-5.177-.733 1.718-1 3.42-1.01 5.05a136.917 136.917 0 0 1-1.897-4.128 12.78 12.78 0 0 0-.771 4.544c-.061-.099-.125-.197-.186-.296-.951-1.526-1.836-3.084-2.787-4.785-.621 2.326-.496 4.515-.053 6.484.077.33.177.646.271.964-.57-.495-1.141-.986-1.703-1.487-1.328-1.161-2.6-2.377-3.977-3.707.045 2.419.762 4.472 1.727 6.216.23.41.479.8.736 1.178-.324-.159-.65-.316-.973-.479-1.559-.77-3.076-1.605-4.721-2.524.611 2.328 1.787 4.123 3.131 5.556.063.065.131.12.193.184-.291-.089-.583-.175-.873-.267-1.648-.507-3.268-1.088-5.03-1.728.928 2.179 2.326 3.75 3.84 4.938-.332-.005-.666-.008-.998-.017-1.719-.028-3.42-.137-5.273-.267 1.16 1.501 2.527 2.523 3.94 3.246-1.328.376-2.673.724-4.118 1.078 1.881 1.345 3.871 1.893 5.766 2.047.149.011.295.004.441.01-1.587.472-3.187.878-4.924 1.304 1.768 1.263 3.631 1.817 5.422 2.01-.236.173-.473.35-.711.521-1.414 1.038-2.863 2-4.441 3.043 1.91.55 3.716.494 5.369.136-.199.233-.396.471-.598.702-1.152 1.357-2.354 2.652-3.666 4.052 2.045.067 3.838-.47 5.407-1.269-.056.361-.106.725-.167 1.085-.277 1.815-.641 3.606-1.049 5.554 2.291-1.306 3.809-3.03 4.875-4.823.313-.533.574-1.074.811-1.62.176.453.354.905.521 1.361.654 1.702 1.223 3.431 1.832 5.317 1.062-1.936 2.383-5.826 2.865-8.363.229.392.425.789.534 1.2.543 1.956.992 3.919 1.469 6.05 1.551-2.104 2.199-4.387 2.4-6.585.027-.322.024-.639.032-.958.736 1.344 1.486 2.67 2.208 4.01 1.094 1.963 2.082 3.965 3.141 6.146a14.476 14.476 0 0 0 1.356-5.093c.264 1.343.662 2.727 1.101 4.097 1.29-2.179 2.487-4.173 3.786-6.12.564-.868 1.145-1.725 1.723-2.587.447.955.969 1.888 1.611 2.771 1.176 1.593 2.709 3.052 4.805 3.969-.664-1.849-1.264-3.554-1.795-5.295-.215-.678-.42-1.36-.625-2.042.558.435 1.139.847 1.77 1.205 1.684.943 3.641 1.604 5.904 1.53-1.313-1.399-2.514-2.694-3.666-4.052-.201-.231-.398-.469-.598-.702 1.653.358 3.459.414 5.369-.136-1.578-1.039-3.03-2-4.441-3.043-.238-.171-.475-.348-.711-.521 1.791-.191 3.654-.746 5.422-2.01-1.732-.425-3.33-.83-4.917-1.303"/></svg>