<svg xmlns="http://www.w3.org/2000/svg" viewBox="0 0 64 64"><path fill="#f0cd4f" d="M36.15 58.26l19.17-10.312s.751 7.03 2.731 14.06H43.578c0-2.893-7.43-3.744-7.43-3.744"/><path fill="#ffbc00" d="M62 42.13c0-10.379-4.593-11.549-4.593-11.549-3.96-5.267-17.581-3.349-21.17.426-.995 1.047-.492 3.419.914 3.133l7.09 13.309 6.915 2.086s3.251-1.397 5.188 5.05c0-.001 5.658-1.336 5.658-12.457"/><g fill="#ffdd67"><path d="M43.844 58.56c4.621-1.023 6.461.339 7.76-11.231h-6.229s1.457-4.614.877-6.865c3.438-2.795 1.049-6.03-.971-7.271-3.241-1.99-7.791-.955-8.448 1.717-1.216 4.94-1.265 3.946-.487 5.257.81 1.358-2.92 4.323-2.832 6.076.047.943 1.407 1.321 1.46 1.593.137.677-.399.989-1.214 1.535-.813.544.67 1.093.384 2.829-.289 1.737-.442 2.396-.442 2.396.671.495 1.563.471 1.401 1.528-.38 2.474-.146 4.404 8.741 2.436"/><path d="M37.503 42.972c.148-.466.089-.835.021-1.245-.078-.406-.17-.847-.194-1.346-.014-.488.082-1.087.409-1.503a1.539 1.539 0 0 1 1.16-.626c-.284.362-.531.685-.657 1.021-.123.336-.151.673-.134 1.078.003.402.063.852.021 1.346-.022.477-.219 1.076-.626 1.275M54.939 47.21c-.597 2.687-2.572 4.425-4.417 3.892-1.84-.535-2.851-3.143-2.256-5.829.598-2.683 2.571-4.425 4.415-3.888 1.842.532 2.853 3.14 2.258 5.825"/></g><path fill="#594640" d="M52.12 42.963a2.41 2.41 0 0 0-1.468.559 2.912 2.912 0 0 0-.899 1.469 3.725 3.725 0 0 0-.104 1.394c-.195-.071-.406-.076-.571.051.245.193.337.4.435.603.086.208.16.414.203.622.053.206.074.405.076.622a2.434 2.434 0 0 1-.159.781c.295-.004.584-.227.736-.559.163-.331.174-.729.099-1.079-.092-.345-.26-.661-.516-.871a1.13 1.13 0 0 0-.163-.109c.371-.919.73-1.719 1.321-2.194.31-.274.688-.451 1.099-.596.414-.141.866-.221 1.345-.358a2.795 2.795 0 0 0-1.434-.335"/><path fill="#ffdd67" d="M35.25 51.3c-.387-.252-.756-.513-1.038-.807-.264-.29-.471-.638-.246-1.276-.26.073-.519.348-.623.722-.093.38-.024.799.115 1.123.131.315.307.572.503.795a2.03 2.03 0 0 0-.486.863 2.355 2.355 0 0 0-.053 1c.057.309.138.594.278.866.226-.563.374-1.108.603-1.406.121-.145.227-.252.386-.356a6.28 6.28 0 0 1 .531-.332l.994-.571-.964-.624"/><path fill="#594640" d="M42.16 41.35c-.519.199-.825.563-1.228.89-.382.341-.801.675-1.286.94-.478.262-1.047.464-1.646.405a1.803 1.803 0 0 1-1.459-.95c1.109.162 1.746-.216 2.608-.678.421-.228.867-.481 1.377-.657.483-.173 1.141-.331 1.634.05"/><path fill="#f0cd4f" d="M23.37 57.28L8.678 47.942s1.984 7.03 0 14.06H20.42c0-2.893 2.95-4.718 2.95-4.718"/><path fill="#ffbc00" d="M2 42.13c0-10.379 4.593-11.549 4.593-11.549 3.96-5.267 17.405-3.111 21.17.426 7.714 7.24 2.206 14.749.799 14.463l-16.17 2.93s-1.657 10.584 4.091 13.596H1.995V42.13"/><path fill="#ffdd67" d="M20.16 58.56c-4.623-1.023-6.461.339-7.76-11.231h3.506s2.468.642 4.936-8.287c1.119-4.04 5.625-7.07 6.623-4.542 2.076 5.258-.228 6.842.325 8.297 1 2.646 3.149 1.925 3.063 3.675-.048.943-1.767 1.093-1.822 1.364-.136.677.4.989 1.214 1.535.815.544-.669 1.093-.383 2.829.29 1.737.442 2.396.442 2.396-.671.495-1.563.471-1.401 1.528.377 2.474.143 4.404-8.743 2.436"/><path fill="#eba352" d="M26.498 42.972c-.148-.466-.089-.835-.02-1.245.079-.406.17-.847.194-1.346.015-.488-.082-1.087-.41-1.503a1.54 1.54 0 0 0-1.161-.626c.285.362.532.685.658 1.021.123.336.151.673.133 1.078-.002.402-.062.852-.02 1.346.023.477.219 1.076.626 1.275"/><path fill="#ffdd67" d="M9.06 47.21c.596 2.687 2.572 4.425 4.414 3.892 1.841-.535 2.852-3.143 2.257-5.829-.597-2.683-2.571-4.425-4.414-3.888-1.843.532-2.854 3.14-2.257 5.825"/><path fill="#594640" d="M11.881 42.963a2.412 2.412 0 0 1 1.467.559c.432.373.753.903.898 1.469.126.461.157.934.105 1.394.195-.071.406-.076.571.051-.246.193-.338.4-.436.603a3.58 3.58 0 0 0-.203.622 2.628 2.628 0 0 0-.076.622c.003.218.049.461.16.781-.295-.004-.583-.227-.736-.559-.162-.331-.174-.729-.099-1.079.09-.345.26-.661.517-.871.047-.042.105-.076.161-.109-.371-.919-.729-1.719-1.32-2.194-.31-.274-.687-.451-1.099-.596-.415-.141-.865-.221-1.343-.358a2.792 2.792 0 0 1 1.433-.335"/><path fill="#c94747" d="M28.752 51.3c.386-.252.755-.513 1.037-.807.264-.29.47-.638.246-1.276.26.073.519.348.623.722.093.38.025.799-.114 1.123a2.896 2.896 0 0 1-.503.795c.209.224.402.528.485.863.104.351.097.695.055 1a3.07 3.07 0 0 1-.279.866c-.226-.563-.375-1.108-.604-1.406a1.665 1.665 0 0 0-.384-.356 6.473 6.473 0 0 0-.532-.332l-.995-.571.965-.624"/><path fill="#594640" d="M21.844 41.35c.519.199.825.563 1.227.89.383.341.801.675 1.287.94.479.262 1.047.464 1.645.405a1.803 1.803 0 0 0 1.459-.95c-1.11.162-1.746-.216-2.607-.678-.423-.228-.868-.481-1.378-.657-.482-.173-1.141-.331-1.633.05"/><path fill="#e84d88" d="M13.334 8.381c4.105-10.627 17.437-5.859 18.667-.552 1.695-5.655 14.698-9.874 18.665.56 4.418 11.621-17.12 22.05-18.665 23.763-1.541-1.36-23.08-12.338-18.667-23.771"/></svg>