<svg xmlns="http://www.w3.org/2000/svg" viewBox="0 0 64 64"><path fill="#d0d0d0" d="M32 61.942c-11.58 0-20.999-9.536-20.999-21.259S20.42 19.424 32 19.424s20.999 9.537 20.999 21.26S43.58 61.942 32 61.942m0-38.19c-9.221 0-16.724 7.594-16.724 16.93 0 9.334 7.503 16.93 16.724 16.93s16.724-7.596 16.724-16.93c0-9.336-7.503-16.93-16.724-16.93"/><path fill="#fff" d="M25.531 58.962c-1.85-.622-3.596-1.56-5.203-2.695a20.812 20.812 0 0 1-4.226-4.132c-2.418-3.151-3.801-7.093-3.95-11.08-.1-3.99 1.041-8.01 3.27-11.301a20.671 20.671 0 0 1 3.981-4.369c1.542-1.225 3.233-2.257 5.05-2.979-3.436 1.83-6.382 4.506-8.382 7.764-2.01 3.244-3.085 7.06-2.918 10.854.065 3.802 1.378 7.536 3.57 10.659 2.189 3.136 5.28 5.641 8.811 7.28"/><path fill="#a5a5a5" d="M39.572 22.405c1.813.723 3.505 1.755 5.05 2.98a20.685 20.685 0 0 1 3.981 4.367c2.23 3.287 3.367 7.316 3.271 11.295-.147 4-1.532 7.933-3.949 11.09a20.838 20.838 0 0 1-4.226 4.132c-1.608 1.136-3.354 2.072-5.204 2.694 3.53-1.641 6.621-4.145 8.809-7.28 2.195-3.119 3.504-6.862 3.572-10.653.17-3.811-.911-7.612-2.916-10.86-2-3.258-4.947-5.934-8.384-7.763"/><path fill="#d0d0d0" d="M25.531 15.04L32 21.589l6.469-6.549z"/><path fill="#a5a5a5" d="M34.15 15.04l-1.445 4.384 1.325.098 4.43-4.482z"/><path fill="#b6fff1" d="M28.757 1.942l-1.084 6.549H19.06l3.237-6.549z"/><g fill="#6adbc6"><path d="M27.673 8.491l2.159 6.549h-4.319L19.06 8.491zM28.757 1.942l-1.084 6.549h8.637l-1.07-6.549z"/></g><g fill="#42ade2"><path d="M35.24 1.942l1.07 6.549h8.628l-3.235-6.549zM27.673 8.491l2.159 6.549h4.318l2.16-6.549z"/></g><path fill="#428bc1" d="M36.31 8.491l-2.16 6.549h4.319l6.469-6.549z"/></svg>