<svg xmlns="http://www.w3.org/2000/svg" viewBox="0 0 64 64"><path fill="#ffbc00" d="M32 5.75c-13.706 0-21.19 8.474-21.19 19.636v28.529h42.38v-28.53c0-16.591-11.471-16.281-11.471-16.281s-.863-3.354-9.718-3.354"/><path fill="#b386e2" d="M41.622 49.861v-6.694H22.375v6.694C10.275 50.225 7.834 52.118 7.834 62h48.33c0-9.881-2.449-11.775-14.545-12.139"/><path fill="#ffdd67" d="M16.889 34.723s-3.049-.764-3.049-5.182c0-3.499 2.3-4.098 2.3-4.098 8.243 0 21.675-10.481 21.675-10.481s5.076 9.253 9.974 10.481c0 0 2.373.428 2.373 4.098 0 4.418-3.166 5.182-3.166 5.182-.04 6.663-9.347 14.701-14.996 14.701-5.65 0-15.11-8.04-15.11-14.701"/><path fill="#eba352" d="M35.784 37.764c0 1.452-3.078 1.873-3.784 1.873s-3.784-.514-3.784-1.966c.001 0 7.568-.632 7.568.093"/><path fill="#f09985" d="M34.689 41.33c-.552-.134-1.354-.069-2.412.276a5.606 5.606 0 0 0-.277.088 6.8 6.8 0 0 0-.276-.088c-1.061-.346-1.861-.41-2.411-.276-1.641.391-4.125.2-4.125.2 1.809 1.765 2.668 4.176 6.812 4.176 4.145 0 5-2.411 6.81-4.176.001 0-2.484.191-4.121-.2"/><path fill="#d47f6c" d="M34.689 41.33c-.552-.134-1.354-.069-2.412.276a5.606 5.606 0 0 0-.277.088 6.8 6.8 0 0 0-.276-.088c-1.061-.346-1.861-.41-2.411-.276-1.61.383-4.131.198-4.125.2 2.727.478 3.066 1.84 6.812 1.84 3.745 0 4.086-1.362 6.81-1.84.01-.002-2.514.183-4.121-.2"/><g fill="#664e27"><path d="M28.24 29.91c-.034 1.991-1.754 3.555-3.875 3.555-2.122 0-3.842-1.564-3.876-3.555a6.205 6.205 0 0 0 3.876 1.333 6.206 6.206 0 0 0 3.875-1.333M43.51 29.91c-.035 1.991-1.758 3.555-3.876 3.555-2.122 0-3.842-1.564-3.876-3.555a6.209 6.209 0 0 0 3.876 1.333c1.478 0 2.83-.503 3.876-1.333"/></g><path fill="#ffdd67" d="M18.493 19.06a15.32 15.32 0 0 1-1.236-5.435c-.023-.487-.209-.886-.523-1.177l-.01-.017-4.218-5.973c-1.18-1.973-7.769-2.096-8.04 1.892l-.362 10.641c-.231 3.402 3.52 6.542 4.07 6.123l-.475 5.713c-.074 1.071.452 2.031 1.672 2.093h.021c1.219.065 2.269-.754 2.343-1.827l.979-14.156.861.766s.733 3.07 3.01 3.384c1.578.216 2.248-1.225 1.906-2.027"/><path fill="#eba352" d="M9 20.705c.076-1.071-.891-1.561-.967-.49l-.256 3.704c-1.242-1.144-2.978-3.473-2.817-5.768l.733-10.629c.057-.808.371-1.443.848-1.934-1.125.49-1.98 1.377-2.077 2.76l-.736 10.629c-.298 3.722 3.221 6.415 3.913 6.907l-.347 4.999c-.061.932.636 1.75 1.624 1.986-.434-.381-.695-.917-.653-1.498L9 20.705"/><path fill="#428bc1" d="M3.701 8.458s7.811.328 9.642-2.065L12.78 2H3l.701 6.458z"/><path fill="#eba352" d="M14.487 18.543l-.092-.397s-1.228-1.465-1.564-2.924l-.119 1.714c.344.528.641.881.641.881l.094.399c.206.82.827 2.468 2.964 2.842-1.31-.633-1.754-1.847-1.924-2.515"/><path fill="#ffdd67" d="M45.508 19.06a15.32 15.32 0 0 0 1.236-5.435c.022-.487.209-.886.523-1.177.004-.005.005-.012.009-.017l4.218-5.973c1.181-1.973 7.77-2.096 8.04 1.892l.36 10.641c.231 3.402-3.519 6.542-4.068 6.123l.474 5.713c.074 1.071-.451 2.031-1.671 2.093h-.021c-1.22.065-2.27-.754-2.343-1.827l-.979-14.156-.861.766s-.732 3.07-3.01 3.384c-1.578.216-2.248-1.225-1.906-2.027"/><path fill="#eba352" d="M55 20.705c-.075-1.071.892-1.561.967-.49l.257 3.704c1.241-1.144 2.978-3.473 2.817-5.768l-.732-10.629c-.057-.808-.372-1.443-.848-1.934 1.125.49 1.98 1.377 2.076 2.76l.736 10.628c.298 3.722-3.222 6.415-3.914 6.907l.348 4.999c.061.932-.636 1.75-1.623 1.986.434-.381.694-.917.652-1.498L55 20.705"/><path fill="#428bc1" d="M60.3 8.458s-7.811.328-9.642-2.065L51.221 2H61l-.7 6.458z"/><path fill="#eba352" d="M49.51 18.543l.093-.397s1.228-1.465 1.563-2.924l.119 1.714c-.344.528-.641.881-.641.881l-.094.399c-.206.82-.827 2.468-2.965 2.842 1.311-.633 1.755-1.847 1.925-2.515"/></svg>