<svg xmlns="http://www.w3.org/2000/svg" viewBox="0 0 64 64"><g fill="#ed4c5c"><path d="M20.818 6.358l20.05 20.15-11.147 11.147L2.228 10.157z"/><path d="M10.611 5.755c-5.224.9-9.06 2.741-8.569 4.111.492 1.37 5.125 1.751 10.351.851 5.224-.9 9.06-2.741 8.57-4.111-.493-1.37-5.126-1.752-10.352-.851"/></g><path fill="#ff8080" d="M10.814 5.766c-4.891.844-8.483 2.567-8.02 3.85.459 1.283 4.798 1.641 9.691.797 4.891-.843 8.483-2.567 8.02-3.85-.461-1.282-4.799-1.64-9.692-.797"/><path fill="#e8e8e8" d="M33.626 43.2L16.799 26.376 29.64 13.534 46.466 30.36z"/><path fill="#555b61" d="M48.588 58.735l-4.189-4.188 13.41-13.414L62 45.321z"/><path fill="#b2c1c0" d="M31.95 42.093l-3.895-3.892 13.41-13.417 3.894 3.892z"/><path fill="#3e4347" d="M46.493 58.086L29.225 40.818 44.09 25.955l17.267 17.267z"/></svg>