<svg xmlns="http://www.w3.org/2000/svg" viewBox="0 0 64 64"><path fill="#e84d88" d="M63 62H1c-.551 0-1 .45-1 1s.449 1 1 1h62c.549 0 1-.45 1-1s-.451-1-1-1"/><path fill="#fc97b2" d="M60 62H4V44l28-12 28 12z"/><g fill="#ed4c5c"><path d="M21.371 34.14l-20.2 8.251a1.87 1.87 0 0 0-1.027 2.45c.398.952 1.518 1.408 2.482 1.014l20.2-8.251a1.87 1.87 0 0 0 1.029-2.45c-.4-.953-1.517-1.41-2.484-1.014M42.627 34.14l20.2 8.251a1.87 1.87 0 0 1 1.029 2.45c-.4.952-1.518 1.408-2.484 1.014l-20.2-8.251a1.87 1.87 0 0 1-1.027-2.45c.398-.953 1.517-1.41 2.482-1.014"/></g><path fill="#ffc7ce" d="M44 62H20V26l12-5 12 5z"/><path fill="#ffce31" d="M38.667 5h-5V0h-3.334v5h-5v3.333h5V20h3.334V8.333h5z"/><path fill="#ffc7ce" d="M20 63h24v1H20z"/><path fill="#fc97b2" d="M20 62h24v1H20z"/><path fill="#ed4c5c" d="M47.828 25.42L32 19l-15.828 6.42c-.965.391-1.428 1.486-1.027 2.432.398.946 1.518 1.399 2.482 1.01L32 23.031l14.371 5.83c.967.392 2.086-.062 2.484-1.01.401-.945-.062-2.04-1.027-2.431"/><g fill="#fff"><path d="M30.676 29.822a.948.948 0 0 0-1.168-.796s-.137.032-.701.265c-.564.234-.682.309-.682.309a.95.95 0 0 0-.264 1.389l3.119 4.21c.34.461.551.374.467-.193l-.771-5.184M25.992 32.862a.885.885 0 0 0-1.338.296l-.564 1.365a.883.883 0 0 0 .736 1.153l5.18.771c.566.085.654-.125.191-.467l-4.205-3.118M24.822 38.32a.947.947 0 0 0-.795 1.168s.031.137.264.701c.234.563.309.682.309.682a.95.95 0 0 0 1.389.264l4.209-3.119c.463-.341.375-.552-.193-.467l-5.183.771M27.863 43.01a.884.884 0 0 0 .295 1.337l1.365.565a.881.881 0 0 0 1.152-.736l.771-5.18c.084-.566-.125-.654-.467-.193l-3.116 4.207M33.32 44.18a.948.948 0 0 0 1.168.795s.137-.031.701-.264c.563-.234.682-.309.682-.309a.95.95 0 0 0 .264-1.389l-3.119-4.211c-.342-.461-.553-.373-.467.194l.771 5.184M38.01 41.14a.882.882 0 0 0 1.336-.295l.566-1.365a.883.883 0 0 0-.736-1.153l-5.18-.771c-.566-.085-.654.125-.193.467l4.207 3.117M39.18 35.676a.948.948 0 0 0 .795-1.169s-.031-.136-.264-.7c-.234-.563-.309-.682-.309-.682a.949.949 0 0 0-1.389-.264l-4.211 3.119c-.461.341-.373.552.193.467l5.185-.771M36.14 30.992a.884.884 0 0 0-.295-1.337l-1.365-.565c-.551-.163-1.068.168-1.154.736l-.77 5.179c-.086.567.125.655.467.193l3.117-4.206"/></g><path fill="#fc97b2" d="M32 47a6 6 0 0 0-6 6v9h12v-9a6 6 0 0 0-6-6"/><path fill="#d6eef0" d="M28 56h8v-3c0-2.205-1.795-4-4-4-2.207 0-4 1.795-4 4v3"/><g fill="#e84d88"><path d="M11.172 49.51a.593.593 0 0 0-.73-.497s-.084.02-.438.165a3.957 3.957 0 0 0-.426.192.59.59 0 0 0-.164.868l1.949 2.632c.213.288.344.234.291-.122l-.482-3.238M8.244 51.41a.551.551 0 0 0-.836.186l-.354.852c-.1.345.107.668.461.721l3.236.482c.357.054.41-.078.123-.292l-2.63-1.949M7.514 54.827a.595.595 0 0 0-.498.731s.02.084.166.436c.146.354.193.428.193.428a.59.59 0 0 0 .867.164l2.633-1.949c.287-.213.232-.345-.123-.292l-3.238.482M9.414 57.756a.55.55 0 0 0 .186.835l.852.353a.55.55 0 0 0 .721-.459l.482-3.237c.053-.356-.078-.41-.291-.122l-1.95 2.63M12.828 58.48a.592.592 0 0 0 .73.497s.084-.02.436-.165c.354-.146.428-.192.428-.192a.59.59 0 0 0 .164-.868l-1.949-2.632c-.213-.288-.346-.233-.293.122l.484 3.238M15.756 56.59a.55.55 0 0 0 .834-.186l.354-.852a.551.551 0 0 0-.459-.722l-3.236-.482c-.357-.053-.41.079-.123.292l2.63 1.95M16.484 53.17a.592.592 0 0 0 .498-.73s-.02-.085-.166-.437a3.882 3.882 0 0 0-.191-.427.59.59 0 0 0-.867-.164l-2.633 1.948c-.287.214-.234.346.123.293l3.236-.483M14.586 50.24a.55.55 0 0 0-.186-.835l-.852-.354a.551.551 0 0 0-.721.46l-.482 3.236c-.055.356.078.41.291.122l1.95-2.629M51.17 49.51a.593.593 0 0 0-.73-.497s-.084.02-.438.165a3.957 3.957 0 0 0-.426.192.59.59 0 0 0-.164.868l1.949 2.632c.213.288.344.234.291-.122l-.482-3.238M48.24 51.41a.551.551 0 0 0-.836.186l-.354.852c-.1.345.107.668.461.721l3.236.482c.357.054.41-.078.123-.292l-2.63-1.949M47.51 54.827a.595.595 0 0 0-.498.731s.02.084.166.436c.146.354.193.428.193.428a.59.59 0 0 0 .867.164l2.633-1.949c.287-.213.232-.345-.123-.292l-3.238.482M49.41 57.756a.55.55 0 0 0 .186.835l.852.353a.55.55 0 0 0 .721-.459l.482-3.237c.053-.356-.078-.41-.291-.122l-1.95 2.63M52.828 58.48a.592.592 0 0 0 .73.497s.084-.02.436-.165c.354-.146.428-.192.428-.192a.59.59 0 0 0 .164-.868l-1.949-2.632c-.213-.288-.346-.233-.293.122l.484 3.238M55.756 56.59a.55.55 0 0 0 .834-.186l.354-.852a.551.551 0 0 0-.459-.722l-3.236-.482c-.357-.053-.41.079-.123.292l2.63 1.95M56.48 53.17a.592.592 0 0 0 .498-.73s-.02-.085-.166-.437a3.882 3.882 0 0 0-.191-.427.59.59 0 0 0-.867-.164l-2.633 1.948c-.287.214-.234.346.123.293l3.236-.483M54.59 50.24a.55.55 0 0 0-.186-.835l-.852-.354a.551.551 0 0 0-.721.46l-.482 3.236c-.055.356.078.41.291.122l1.95-2.629"/></g><g fill="#fc97b2"><path d="M31 48h2v14h-2z"/><path d="M26 55h12v7H26z"/></g><g fill="#e84d88"><path d="M28 57.33h3v3h-3zM33 57.33h3v3h-3z"/></g><g fill="#fc97b2"><path d="M59.262 11c-1.885 0-3.5 1.055-4.262 2.57-.762-1.515-2.377-2.57-4.264-2.57C48.121 11 46 13.016 46 15.5 46 20 55.449 29 55.449 29S64 20 64 15.5c0-2.484-2.121-4.5-4.738-4.5zM13.262 11c-1.885 0-3.5 1.055-4.262 2.57C8.238 12.055 6.623 11 4.736 11 2.121 11 0 13.016 0 15.5 0 20 9.449 29 9.449 29S18 20 18 15.5c0-2.484-2.121-4.5-4.738-4.5z"/></g></svg>