<svg xmlns="http://www.w3.org/2000/svg" viewBox="0 0 64 64"><path fill="#ff4085" d="M61.07 18.16C54.674 1.242 33.92 8.832 32 17.281c-2.642-9-22.89-15.72-29.07.891C-3.951 36.674 29.6 53.282 32 56c2.397-2.162 35.952-19.639 29.07-37.84"/><g fill="#fff"><path d="M53.831 13.275L51.19 8l-2.635 5.275-5.275 2.637 5.275 2.636 2.635 5.276 2.641-5.276 5.269-2.636zM16.252 26.753l-3.562-7.128-3.566 7.128L2 30.31l7.124 3.567 3.566 7.133 3.562-7.133 7.127-3.567zM48.725 42.44l-2.873-5.752-2.877 5.752-5.745 2.87 5.745 2.87 2.877 5.752 2.873-5.752 5.745-2.87zM18.879 20.653l3-3 3 3-3 3zM23.378 41.56l2.5-2.5 2.5 2.5-2.5 2.501zM39.278 27.314l3-3 3 3-3 3z"/></g></svg>