<svg xmlns="http://www.w3.org/2000/svg" viewBox="0 0 64 64"><path fill="#f46767" d="M56.715 22.444c-5.437-14.383-23.08-7.93-24.716-.748-2.245-7.654-19.46-13.363-24.713.758-5.85 15.729 22.672 29.846 24.713 32.16 2.038-1.838 30.564-16.695 24.716-32.17"/><g fill="#ff8a8a"><path d="M47.41 9.08c.471-.027.943-.018 1.415.02.471.031.939.094 1.407.174.937.17 1.86.432 2.757.787a13.852 13.852 0 0 1 4.862 3.238 13.546 13.546 0 0 1 3.08 5.04 14.1 14.1 0 0 1 .748 4.312c.005.482-.013.967-.068 1.445l-.488-1.338a35.531 35.531 0 0 0-.504-1.301 25.76 25.76 0 0 0-1.147-2.459c-.844-1.572-1.858-2.998-3.064-4.244-1.203-1.248-2.59-2.311-4.106-3.23a29.455 29.455 0 0 0-2.367-1.283c-.408-.205-.824-.393-1.244-.584l-1.281-.578M52.49 6.797c.35-.051.7-.066 1.053-.063.35.002.7.031 1.052.076.698.09 1.391.262 2.066.504a9.75 9.75 0 0 1 3.649 2.365 9.52 9.52 0 0 1 2.254 3.795 9.73 9.73 0 0 1 .411 2.143c.022.359.032.719.012 1.08a6.61 6.61 0 0 1-.124 1.07c-.154-.328-.291-.65-.431-.963-.141-.318-.278-.627-.423-.932a22.449 22.449 0 0 0-.907-1.742 15.405 15.405 0 0 0-2.233-2.992c-.855-.887-1.83-1.656-2.898-2.359a24.117 24.117 0 0 0-1.678-1c-.29-.164-.584-.324-.886-.484-.301-.16-.606-.32-.917-.496M16.586 9.08a10.61 10.61 0 0 0-1.415.018c-.471.031-.939.096-1.407.176-.937.168-1.86.432-2.757.787a13.845 13.845 0 0 0-4.862 3.237 13.546 13.546 0 0 0-3.08 5.04 14.1 14.1 0 0 0-.748 4.312c-.005.483.013.968.069 1.446l.487-1.34c.162-.439.329-.877.504-1.299.349-.854.726-1.676 1.147-2.459.844-1.574 1.858-3 3.064-4.244 1.203-1.248 2.59-2.311 4.106-3.232.76-.459 1.551-.883 2.367-1.281.408-.205.824-.393 1.244-.584l1.281-.578M11.508 6.795c-.35-.049-.7-.066-1.053-.061-.35.002-.7.029-1.052.076a9.873 9.873 0 0 0-2.066.504A9.748 9.748 0 0 0 3.688 9.68a9.52 9.52 0 0 0-2.254 3.795 9.713 9.713 0 0 0-.411 2.141c-.023.361-.032.72-.012 1.082.014.355.051.713.124 1.07.154-.328.291-.65.431-.963.141-.318.278-.627.423-.932.286-.607.584-1.188.907-1.744a15.33 15.33 0 0 1 2.233-2.99c.855-.887 1.83-1.656 2.898-2.359a24.117 24.117 0 0 1 1.678-1c.29-.164.585-.324.886-.484s.607-.323.917-.499M6.961 40.583c2.159 1.861 4.24 3.805 6.363 5.705 2.07 1.957 4.183 3.867 6.219 5.863l-.145.156c-1.554-.414-2.867-1.09-4.096-1.859-1.243-.752-2.364-1.637-3.417-2.596-1.048-.965-2.02-2.01-2.877-3.184-.869-1.158-1.652-2.412-2.192-3.93l.145-.155M2.663 43.583c2.514 2.188 4.95 4.459 7.428 6.686 2.427 2.281 4.894 4.52 7.284 6.842l-.145.156c-1.731-.578-3.222-1.418-4.628-2.35-1.42-.914-2.719-1.963-3.95-3.084-1.225-1.129-2.377-2.336-3.409-3.674-1.047-1.322-2.01-2.738-2.725-4.42l.145-.156M57.04 40.583c-2.158 1.861-4.239 3.805-6.362 5.705-2.07 1.957-4.184 3.867-6.219 5.863l.145.156c1.554-.414 2.867-1.09 4.095-1.859 1.244-.752 2.365-1.637 3.418-2.596 1.047-.965 2.02-2.01 2.877-3.184.869-1.158 1.652-2.412 2.191-3.93l-.145-.155M61.34 43.583c-2.514 2.188-4.95 4.459-7.428 6.686-2.427 2.281-4.894 4.52-7.284 6.842l.144.156c1.732-.578 3.223-1.418 4.629-2.35 1.42-.914 2.719-1.963 3.95-3.084 1.225-1.129 2.377-2.336 3.409-3.674 1.047-1.322 2.01-2.738 2.725-4.42l-.145-.156"/></g></svg>