<svg xmlns="http://www.w3.org/2000/svg" viewBox="0 0 64 64"><g fill="#f46767"><path d="M61.07 18.16C54.675 1.242 33.92 8.832 32 17.281c-2.64-9-22.89-15.72-29.07.891C-3.951 36.674 29.6 53.282 32 56c2.397-2.162 35.952-19.639 29.07-37.84M32 50.783C30 48.64 2.041 35.57 7.77 21.006c5.148-13.07 22.02-7.787 24.23-.701 1.599-6.65 18.898-12.623 24.23.693C61.962 35.324 34 49.078 32 50.783"/><path d="M49.23 24.799c-3.79-10.03-16.09-5.527-17.228-.521-1.563-5.334-13.563-9.314-17.225.527C10.699 35.772 30.58 45.61 32.002 47.221c1.422-1.282 21.305-11.637 17.228-22.422"/></g></svg>