<svg xmlns="http://www.w3.org/2000/svg" viewBox="0 0 64 64"><path fill="#9970c4" d="M60.22 27.687c2.371 2.373 2.371 6.256 0 8.628L36.313 60.221c-2.373 2.373-6.255 2.373-8.628 0L3.779 36.314c-2.373-2.372-2.373-6.255 0-8.628L27.685 3.779c2.373-2.371 6.255-2.371 8.628 0L60.22 27.687"/><path fill="#ace1ef" d="M57.4 28.12c2.135 2.136 2.135 5.632 0 7.767L35.885 57.401c-2.135 2.137-5.63 2.137-7.766 0L6.604 35.887c-2.137-2.135-2.137-5.631 0-7.767L28.119 6.605c2.136-2.135 5.631-2.135 7.766 0L57.4 28.12"/><g fill="#42ade2"><path d="M50.963 23H48.46L41 15.54v-2.5L45.04 9h2.499L55 16.462v2.5zM18.962 55H16.46L9 47.54v-2.5L13.04 41h2.5L23 48.46v2.502zM50.963 41H48.46L41 48.46v2.504l4.04 4.04h2.499L55 47.546v-2.502zM18.962 9H16.46L9 16.464v2.5l4.04 4.04h2.5L23 15.546v-2.502zM34.25 32L43 21l-11.001 8.746L21 21l8.744 11L21 43l10.999-8.74L42.998 43z"/></g><path fill="#fff" d="M39.525 30.851a1.631 1.631 0 0 1 0 2.301l-6.375 6.375a1.631 1.631 0 0 1-2.301 0l-6.375-6.375a1.631 1.631 0 0 1 0-2.301l6.375-6.375a1.631 1.631 0 0 1 2.301 0l6.375 6.375"/></svg>