<svg xmlns="http://www.w3.org/2000/svg" viewBox="0 0 64 64"><path fill="#89664c" d="M32.206 36.887C15.146 36.887 2 29.789 2 45.728 2 58.456 18.892 62 31.789 62 46.773 62 62 58.456 62 45.728c0-15.939-12.161-8.841-29.794-8.841z"/><path fill="#9b7861" d="M31.729 20.879c-9.553 0-24.502 1.116-24.502 12.621 0 16.826 49.545 16.826 49.545 0 0-11.505-14.888-12.621-25.04-12.621"/><path fill="#a88673" d="M49.01 16.7c-4.658-10.34-26.367.306-22.638-12.226.562-1.888.539-2.713-.896-2.414-7.812 1.621-13.437 9.666-11.457 16.319 6.376 21.433 41.28 12.273 34.991-1.679"/><path fill="#fff" d="M28.847 34.32a7.204 7.204 0 1 1-14.408.002 7.204 7.204 0 0 1 14.408-.002"/><circle cx="23.633" cy="34.32" r="3.604"/><path fill="#fff" d="M49.562 34.32a7.206 7.206 0 0 1-7.204 7.205 7.204 7.204 0 1 1 7.204-7.205"/><circle cx="40.37" cy="34.32" r="3.603"/><path d="M38 50.632a6 6 0 1 1-11.999.001A6 6 0 0 1 38 50.632"/></svg>