<svg xmlns="http://www.w3.org/2000/svg" viewBox="0 0 64 64"><path fill="#ed4c5c" d="M57.631 32.18c3.4-2.802 4.303-5.776 4.369-8.02a.948.948 0 0 0-.354-.76.984.984 0 0 0-.829-.192c-1.399.309-2.846-.419-3.475-1.741a3.329 3.329 0 0 1 .839-3.967c.218-.186.342-.459.335-.744s-.145-.551-.374-.726c-1.104-.838-2.375-1.382-3.772-1.642.227-2.273-.279-4.064-.961-5.379a.961.961 0 0 0-.693-.502.996.996 0 0 0-.83.237c-1.047.946-2.674 1.061-3.833.248-1.21-.849-1.683-2.426-1.151-3.835a.913.913 0 0 0-.081-.808.97.97 0 0 0-.701-.444 8.945 8.945 0 0 0-1.086-.068c-1.399 0-3.182.355-5.138 1.56-1.032-1.641-2.288-2.658-3.446-3.279a.98.98 0 0 0-.858-.034.96.96 0 0 0-.548.651c-.351 1.464-1.6 2.486-3.044 2.486-1.445 0-2.695-1.023-3.042-2.489a.947.947 0 0 0-.547-.651.98.98 0 0 0-.86.033c-1.158.622-2.415 1.638-3.447 3.28-1.956-1.203-3.736-1.558-5.135-1.558a8.9 8.9 0 0 0-1.084.068.97.97 0 0 0-.703.444.918.918 0 0 0-.082.809c.532 1.408.059 2.985-1.151 3.834-1.159.815-2.786.697-3.834-.248a.991.991 0 0 0-.828-.237.96.96 0 0 0-.695.502c-.682 1.315-1.187 3.105-.96 5.378-1.399.26-2.667.804-3.771 1.643a.943.943 0 0 0-.042 1.47 3.321 3.321 0 0 1 .84 3.965c-.629 1.324-2.089 2.053-3.475 1.743a.992.992 0 0 0-.83.192.949.949 0 0 0-.354.761c.066 2.238.969 5.212 4.369 8.01-3.4 2.77-4.302 5.708-4.369 7.922a.931.931 0 0 0 .354.749c.23.185.537.255.83.19 1.399-.306 2.845.416 3.474 1.721a3.265 3.265 0 0 1-.838 3.921.932.932 0 0 0-.335.734.926.926 0 0 0 .374.718c1.117.837 2.407 1.363 3.823 1.614-.338 2.505.188 4.459.91 5.871a.97.97 0 0 0 .694.509.986.986 0 0 0 .829-.24c1.047-.957 2.674-1.073 3.833-.251 1.21.859 1.683 2.454 1.152 3.88a.933.933 0 0 0 .081.819c.154.247.41.411.701.448a8.57 8.57 0 0 0 1.086.067c1.473 0 3.366-.388 5.442-1.765.97 1.362 2.095 2.241 3.141 2.798a.999.999 0 0 0 .859.033.945.945 0 0 0 .547-.644c.349-1.448 1.598-2.459 3.042-2.459 1.444 0 2.695 1.013 3.042 2.461a.94.94 0 0 0 .548.643.994.994 0 0 0 .86-.032c1.047-.557 2.172-1.436 3.142-2.798 2.076 1.375 3.969 1.763 5.44 1.763.361 0 .729-.021 1.084-.067a.97.97 0 0 0 .703-.448.94.94 0 0 0 .082-.819c-.532-1.424-.059-3.02 1.15-3.88 1.159-.823 2.786-.705 3.834.251a.985.985 0 0 0 .829.24.963.963 0 0 0 .694-.509c.724-1.412 1.249-3.366.91-5.869 1.417-.253 2.706-.779 3.821-1.616a.938.938 0 0 0 .375-.716.933.933 0 0 0-.334-.736 3.26 3.26 0 0 1-.84-3.919c.628-1.307 2.088-2.028 3.475-1.723a.995.995 0 0 0 .829-.19.931.931 0 0 0 .354-.749c-.064-2.214-.966-5.153-4.366-7.921M44.789 5.713a5.101 5.101 0 0 0 2.125 4.794 5.046 5.046 0 0 0 5.198.36c.345 1.03.433 2.152.309 3.34-2.341-.001-4.969.689-7.784 2.095-1 .498-1.998 1.157-2.991 1.972.287-1.287.431-2.508.431-3.655 0-3.219-.52-5.661-1.306-7.528 1.318-.85 2.667-1.328 4.02-1.378m-32.902 5.154c1.618.828 3.681.708 5.199-.36a5.108 5.108 0 0 0 2.127-4.794c1.351.05 2.696.527 4.02 1.376-.787 1.868-1.308 4.311-1.308 7.53 0 1.146.146 2.368.432 3.655-.993-.815-1.992-1.474-2.99-1.972-2.813-1.406-5.441-2.097-7.782-2.095-.125-1.188-.038-2.31.307-3.34m-1.82 37.04a7.093 7.093 0 0 1-2.146-.708 5.11 5.11 0 0 0 .494-5.241 5.035 5.035 0 0 0-4.37-2.872c.378-2.108 1.72-4.045 3.928-5.744.757.5 1.598.992 2.549 1.467 2.177 1.087 4.931 1.699 8.194 1.827-2.557 1.674-4.509 3.491-5.812 5.425-1.466 2.171-2.349 4.116-2.837 5.846m26.402 11.715a5.056 5.056 0 0 0-4.469-2.695 5.048 5.048 0 0 0-4.467 2.694 7.342 7.342 0 0 1-1.601-1.72c1.165-1.021 2.366-2.371 3.568-4.153 1.053-1.562 1.889-3.499 2.5-5.795.611 2.294 1.444 4.233 2.497 5.797 1.202 1.784 2.404 3.133 3.571 4.155a7.4 7.4 0 0 1-1.599 1.717m15.644-5.9c-1.618-.837-3.681-.716-5.198.364a5.193 5.193 0 0 0-2.128 4.851c-3-.111-5.995-2.261-8.677-6.234-1.631-2.423-2.69-5.922-3.148-10.402a.962.962 0 0 0-.962-.855.962.962 0 0 0-.962.854c-.459 4.482-1.519 7.983-3.15 10.402-2.68 3.976-5.675 6.125-8.677 6.236a5.19 5.19 0 0 0-2.125-4.851 4.977 4.977 0 0 0-2.891-.926c-.812 0-1.598.193-2.306.562-.978-2.953-.079-6.595 2.63-10.614 1.611-2.396 4.395-4.625 8.265-6.629a.94.94 0 0 0 .479-1.095.986.986 0 0 0-.992-.692c-4.534.273-8.239-.262-10.875-1.576-4.289-2.14-6.809-4.871-7.352-7.948 1.881-.075 3.545-1.176 4.37-2.909a5.218 5.218 0 0 0-.494-5.301c2.662-1.437 6.324-1.083 10.569 1.034 1.702.85 3.439 2.268 5.166 4.212a.976.976 0 0 0 1.226.191.946.946 0 0 0 .408-1.152c-.951-2.445-1.434-4.675-1.434-6.626 0-4.867 1.269-8.372 3.676-10.23.868 1.65 2.563 2.725 4.469 2.725 1.909 0 3.602-1.073 4.467-2.724 2.409 1.855 3.676 5.36 3.676 10.228 0 1.953-.482 4.183-1.434 6.627a.943.943 0 0 0 .405 1.153.986.986 0 0 0 1.23-.191c1.725-1.945 3.462-3.363 5.166-4.214 4.24-2.116 7.905-2.47 10.568-1.034a5.216 5.216 0 0 0-.493 5.302c.822 1.733 2.485 2.833 4.369 2.908-.545 3.078-3.063 5.808-7.354 7.948-2.638 1.314-6.343 1.85-10.872 1.576a.985.985 0 0 0-.993.692.942.942 0 0 0 .479 1.095c3.872 2 6.654 4.232 8.269 6.629 2.707 4.02 3.606 7.661 2.63 10.614m3.473-11.762a5.104 5.104 0 0 0 .493 5.239 7.075 7.075 0 0 1-2.146.708c-.488-1.73-1.372-3.675-2.837-5.847-1.305-1.934-3.252-3.751-5.812-5.425 3.263-.128 6.02-.74 8.194-1.827a24.17 24.17 0 0 0 2.55-1.467c2.208 1.697 3.55 3.636 3.926 5.744a5.039 5.039 0 0 0-4.368 2.875"/></svg>