<svg xmlns="http://www.w3.org/2000/svg" viewBox="0 0 64 64"><g fill="#c94747"><path d="M25.08 1.676c.627 6.313 5.464 12.434 12.518 14.954 7.078 2.622 14.774.993 19.303-3.515a1.362 1.362 0 0 0 .196-1.737 1.562 1.562 0 0 0-1.682-.661c-4.724 1.176-10.386 1.855-15.644-.063-5.262-1.909-9.162-6.069-12.03-10.01a1.56 1.56 0 0 0-.28-.293l-.019-.016c-.634-.5-1.551-.446-2.069.15a1.372 1.372 0 0 0-.296 1.187M38.916 62.32c-.627-6.313-5.464-12.434-12.518-14.954-7.078-2.622-14.774-.993-19.304 3.515a1.363 1.363 0 0 0-.195 1.737 1.562 1.562 0 0 0 1.682.661c4.724-1.176 10.386-1.855 15.644.063 5.262 1.909 9.162 6.069 12.03 10.01.081.112.177.209.28.293l.019.016c.634.5 1.551.446 2.069-.15.286-.333.383-.768.296-1.187M62.32 25.08c-6.313.627-12.434 5.464-14.955 12.518-2.621 7.078-.992 14.774 3.516 19.304a1.363 1.363 0 0 0 1.737.195 1.562 1.562 0 0 0 .661-1.682c-1.176-4.724-1.855-10.386.063-15.644 1.909-5.262 6.068-9.162 10.01-12.03a1.56 1.56 0 0 0 .293-.28l.016-.019c.5-.634.446-1.551-.15-2.069a1.373 1.373 0 0 0-1.187-.296M1.676 38.915c6.313-.627 12.434-5.463 14.954-12.517 2.622-7.078.993-14.774-3.515-19.304a1.363 1.363 0 0 0-1.737-.195 1.562 1.562 0 0 0-.661 1.682c1.176 4.724 1.855 10.386-.063 15.644-1.909 5.262-6.069 9.162-10.01 12.03a1.56 1.56 0 0 0-.293.28l-.016.019c-.5.634-.446 1.551.15 2.069.333.287.768.383 1.187.295"/></g></svg>