<svg xmlns="http://www.w3.org/2000/svg" viewBox="0 0 64 64"><g fill="#d0d0d0"><path d="M17.838 48.926c-3.481-1.129-7.03.33-7.934 3.26-.901 2.932 1.191 6.225 4.674 7.355s7.03-.33 7.936-3.262c.899-2.929-1.194-6.222-4.676-7.353M4.992 58.48c-1.185.932-1.313 2.807-.283 4.189 1.027 1.383 2.821 1.75 4.01.818 1.185-.93 1.313-2.807.285-4.189s-2.822-1.748-4.01-.818M64 22.03a8.79 8.79 0 0 0-3.418-6.994c.016-.204.025-.409.025-.617 0-4.509-3.555-8.163-7.939-8.163-.277 0-.55.015-.818.043-1.666-2.909-4.743-4.862-8.266-4.862-2.08 0-4 .681-5.574 1.837-1.985-2.025-4.717-3.276-7.735-3.276-4.914 0-9.07 3.318-10.477 7.896a9.973 9.973 0 0 0-5.803-1.859c-5.638 0-10.207 4.698-10.207 10.494 0 1.711.398 3.325 1.104 4.751C1.933 23.437 0 26.989 0 31.004c0 6.578 5.186 11.91 11.584 11.91a11.3 11.3 0 0 0 6.37-1.961c.987 5.04 5.317 8.838 10.513 8.838 3.865 0 7.252-2.102 9.14-5.254a7.075 7.075 0 0 0 5.073 2.152c3.762 0 6.848-2.969 7.166-6.752a8.068 8.068 0 0 0 2.822.506c4.592 0 8.314-3.826 8.314-8.546 0-.99-.166-1.941-.467-2.824A8.781 8.781 0 0 0 64 22.033"/></g></svg>