<svg xmlns="http://www.w3.org/2000/svg" viewBox="0 0 64 64"><path fill="#d3976e" d="M13.805 22.549c-4.364-4.432-5.766-8.101-4.163-10.905 3.149-5.517 18.02-5.485 30.411-2.653l-.429 1.826c-11.626-2.655-25.763-2.743-28.328 1.748-1.418 2.483 1.321 6.088 3.869 8.676l-1.36 1.308"/><g fill="#ffce31"><path d="M41.25 11.293c-.981.966-1.961 1.935-2.94 2.901-.862.852.475 2.172 1.336 1.32l2.939-2.902c.865-.852-.475-2.171-1.335-1.319M46.762 8.487l2.91-2.874c.862-.852-.475-2.171-1.337-1.319l-2.911 2.873c-.864.853.473 2.172 1.338 1.32M45.4 12.612l2.94 2.901c.862.853 2.199-.468 1.337-1.319-.981-.967-1.958-1.935-2.94-2.901-.86-.852-2.2.467-1.337 1.319M38.31 5.613l2.91 2.874c.865.852 2.203-.467 1.34-1.319-.971-.958-1.941-1.917-2.914-2.874-.862-.853-2.199.468-1.336 1.319"/></g><g fill="#ed4c5c"><path d="M43.04 14.02v2.889c0 1.203 1.893 1.203 1.893 0V14.02c0-1.204-1.893-1.204-1.893 0M43.04 2.903v2.848c0 1.204 1.893 1.204 1.893 0V2.903c0-1.204-1.893-1.204-1.893 0M48.17 10.837h2.905c1.22 0 1.22-1.867 0-1.867H48.17c-1.219.001-1.219 1.867 0 1.867"/></g><path fill="#3e4347" d="M10.663 24.16l6.01-5.929 3.777 3.731a22.257 22.257 0 0 1 12.383-3.731c12.247 0 22.17 9.797 22.17 21.884 0 12.09-9.922 21.886-22.17 21.886-12.243 0-22.17-9.8-22.17-21.886a21.61 21.61 0 0 1 3.779-12.225l-3.779-3.73"/></svg>