<svg xmlns="http://www.w3.org/2000/svg" viewBox="0 0 64 64"><circle fill="#d0d0d0" cx="32" cy="32" r="30"/><g fill="#fff"><circle cx="32" cy="32" r="6.637"/><path d="M32.24 42.613l9.19 13.635a26.176 26.176 0 0 0 14.817-14.816L42.613 32.24c-.127 5.665-4.709 10.246-10.373 10.373M31.761 21.387L22.569 7.752A26.174 26.174 0 0 0 7.753 22.57l13.635 9.189c.126-5.663 4.708-10.245 10.373-10.372"/></g><path fill="#94989b" d="M32 44.96c-7.146 0-12.96-5.813-12.96-12.96 0-7.145 5.813-12.959 12.96-12.959 7.146 0 12.959 5.814 12.959 12.959 0 7.146-5.814 12.96-12.959 12.96m0-23.265c-5.683 0-10.305 4.623-10.305 10.305S26.317 42.305 32 42.305c5.682 0 10.305-4.623 10.305-10.305S37.682 21.695 32 21.695"/></svg>