<svg xmlns="http://www.w3.org/2000/svg" viewBox="0 0 64 64"><path fill="#9450e0" d="M0 46.5h64v9H0z"/><path fill="#c28fef" d="M0 8.499h64v38H0z"/><path fill="#94989b" d="M24 46.5h16v9H24z"/><path fill="#9450e0" d="M4 12.499h56v30H4z"/><path fill="#c28fef" d="M7 15.499h50v24H7z"/><circle fill="#9450e0" cx="45" cy="27.499" r="8"/><path fill="#d0d0d0" d="M24 8.499h16v38H24z"/><path fill="#fff" d="M16 30.354c0-.321-.032-.645-.12-.998h2.898v-2.347h-4.066c-.054-.074-.094-.143-.149-.221a25.96 25.96 0 0 0-.41-.547c-.578-.752-.933-1.244-.933-1.858 0-1.495 1.246-2.713 2.78-2.713 1.532 0 2.778 1.218 2.778 2.713H21c0-2.693-2.244-4.884-5-4.884-2.758 0-5 2.19-5 4.884 0 1.079.473 1.923.976 2.626H11v2.347h2.538c.235.518.239.8.239.998 0 1.793-1.785 2.945-2.777 2.977v2.17h10v-2.172h-6.03a4.834 4.834 0 0 0 1.028-2.975"/></svg>