<svg xmlns="http://www.w3.org/2000/svg" viewBox="0 0 64 64"><path fill="#3e4347" d="M63.999 57.6a6.399 6.399 0 0 1-6.4 6.399h-51.2a6.4 6.4 0 0 1-6.4-6.399V6.4c0-3.534 2.867-6.4 6.4-6.4h51.2a6.4 6.4 0 0 1 6.4 6.4v51.2z"/><circle fill="#42ade2" cx="31.999" cy="31.998" r="32"/><path fill="#fff" d="M31.999 40.37c-4.616 0-8.373-3.757-8.373-8.374s3.757-8.373 8.373-8.373c4.619 0 8.375 3.756 8.375 8.373s-3.756 8.374-8.375 8.374"/><path fill="#3e4347" d="M38.4 23.998a6.401 6.401 0 0 0-6.4 6.4v3.2a6.4 6.4 0 0 0 6.4 6.399H64v-16H38.4"/></svg>