<svg xmlns="http://www.w3.org/2000/svg" viewBox="0 0 64 64"><path fill="#3e4347" d="M61.29 9.292l-6.586-6.586C54.315 2.318 53.547 2 52.997 2h-44v4h-4V2h-2c-.55 0-1 .45-1 1v58c0 .549.45 1 1 1h58c.55 0 1-.451 1-1V11c0-.55-.318-1.319-.707-1.708"/><path fill="#fff" d="M12 62V34c0-1.099.9-2 2-2h36c1.1 0 2 .9 2 2v28H12"/><path fill="#e8e8e8" d="M18 2v20c0 1.1.9 2 2 2h30c1.1 0 2-.9 2-2V2H18"/><path fill="#3e4347" d="M36 6h10v16H36z"/><path fill="#fff" d="M59 56c0-.551-.45-1-1-1h-2c-.55 0-1 .449-1 1v2c0 .549.45 1 1 1h2c.55 0 1-.451 1-1v-2"/><g fill="#f15744"><path d="M12 54h40v8H12zM17 35.999h30v2H17zM17 42h30v2H17zM17 48h30v2H17z"/></g></svg>