<svg xmlns="http://www.w3.org/2000/svg" viewBox="0 0 64 64"><path fill="#83bf4f" d="M25 14H7a3 3 0 0 1 0-6h18a3 3 0 0 1 3 3h4a7 7 0 0 0-7-7h-7V0h-4v4H7a7 7 0 1 0 0 14h18a3 3 0 0 1 0 6v-.001H7V24a3 3 0 0 1-3-3H0a7 7 0 0 0 7 7h7v4h4v-4h7a7 7 0 1 0 0-14"/><g fill="#94989b"><path d="M42.722 22.11l-5.187 5.18 16.264.71-.709-16.264-5.184 5.187L34 8.201zM19 37l.707 16.26 4.95-4.95 14.14 8.489-8.489-14.14 4.95-4.95z"/></g><path fill="#83bf4f" d="M54.961 44l9.04-9.22-2.73-2.78-8.27 8.44L44.726 32l-2.725 2.78 9.04 9.22H46.95v4h4.051v4H46.95v4h4.051v8h4v-8h4.05v-4h-4.05v-4h4.05v-4h-4.05z"/></svg>