<svg xmlns="http://www.w3.org/2000/svg" viewBox="0 0 64 64"><path fill="#89664c" d="M0 46.5h64v9H0z"/><path fill="#d3976e" d="M0 8.5h64v38H0z"/><path fill="#94989b" d="M24 46.5h16v9H24z"/><path fill="#89664c" d="M4 12.5h56v30H4z"/><path fill="#d3976e" d="M7 15.5h50v24H7z"/><circle fill="#89664c" cx="45" cy="27.499" r="8"/><path fill="#d0d0d0" d="M24 8.5h16v38H24z"/><path fill="#fff" d="M22 21.21l-1.213-1.71L16 24.08l-4.787-4.58L10 21.21l4.498 4.306h-2.313v2.219h2.865v2.219h-2.865v2.216h2.865v3.328h1.904V32.17h2.86v-2.216h-2.86v-2.219h2.86v-2.219h-2.312z"/></svg>