<svg xmlns="http://www.w3.org/2000/svg" viewBox="0 0 64 64"><circle fill="#75a843" cx="32" cy="32" r="30"/><g fill="#fff"><path d="M34.12 18.813L43 10h-6.104l-4.924 4.887L27.08 10H21l8.817 8.809v.01h-4.516v4.291h4.516v4.3h-4.516v4.295h4.516V36h4.303v-4.295h4.6V27.41h-4.6v-4.3h4.6v-4.291h-4.6zM50.05 32.793l-4.256-2.895-6.777 11.863-4.976-2.756-4.082 7.673-4.478-3.21-6.482 8.762A26.34 26.34 0 0 0 23.27 54l3.236-4.373 5.07 3.637 4.358-8.198 4.855 2.689 6.556-11.475 3.976 2.706 5.678-8.506a22.874 22.874 0 0 0-1.08-6.48l-5.869 8.793"/></g></svg>