<svg xmlns="http://www.w3.org/2000/svg" viewBox="0 0 64 64"><path fill="#5f6262" d="M62 55.59c0 3.627-8.991 3.432-8.991 3.432l-25.13-6.31c-1.755-.371-3.156-2.304-3.156-4.322V27.005l37.28 2.103V55.59"/><path fill="#343434" d="M60.19 13.397c-.012-.009-1.423-.223-1.435-.232l-6.956 3.431-1.033 44.12c5.751-4.947 11.233-5.04 11.233-5.04v-38.39a5.098 5.098 0 0 0-1.809-3.899"/><path fill="#5f6262" d="M52.24 56.673c0 3.624-2.564 5.938-5.67 5.186L7.3 52.319c-2.313-.562-4.158-3.482-4.158-6.532v-32.33l49.14 3.19-.042 40.03"/><path fill="#343434" d="M52.887 32.582c0 3.625-3.038 6.258-6.144 5.745l-39.27-6.504c-2.313-.383-4.157-3.162-4.157-6.213L4.6 12.377l48.51 3.915-.215 16.29"/><path fill="#5f6262" d="M4.597 11.48C.867 14.014.908 29.364 6.343 29.364l39.27 6.138c3.104.485 5.67-2.052 5.67-5.675 0 0-1.158-11.704 1-13.18l1.844-.801-49.53-4.366"/><path fill="#65562d" d="M30.973 26.587L20.392 25.17l-1.917 7.412 1.917 5.498 10.581 1.903z"/><path fill="#f8ecc5" d="M20.392 25.17l-1.917 7.412L29.05 34.24l1.923-7.653z"/><path fill="#bfae6e" d="M20.392 38.08l10.581 1.903-1.923-5.743-10.575-1.658z"/><path fill="#919193" d="M56.708 12.193L20.764 9.046 7.172 10.635l-.644.075a5.276 5.276 0 0 0-1.931.77l47.689 5.166 4.966-2.157c4.142-2.028 4.608 1.617 4.608 1.617-.501-3.199-3.402-3.75-5.152-3.913"/><path fill="#bfae6e" d="M18.729 10.202c0-4.294 3.435-4.534 4.22-4.751.74-.206 1.203-.867 1.033-1.477-.169-.613-.88-.732-1.648-.732-2.269 0-6.251.999-6.251 6.96 0 .662 2.646.662 2.646 0"/><path fill="#65562d" d="M18.239 9.908A4.743 4.743 0 0 1 18.3 8.11a3.681 3.681 0 0 1 .846-1.64 3.802 3.802 0 0 1 1.545-1.01c.577-.208 1.177-.277 1.769-.309-.557.223-1.122.379-1.628.641-.505.26-.972.576-1.338.989-.765.816-1.073 1.952-1.255 3.123"/><path fill="#5f6262" d="M43.726 6.877a3.088 3.088 0 0 1-3.331 2.817L21.946 8.158A3.081 3.081 0 0 1 19.13 4.83a3.083 3.083 0 0 1 3.33-2.819l18.446 1.536a3.087 3.087 0 0 1 2.82 3.33"/><path fill="#343434" d="M43.726 6.877c-.088 1.053-1.536 1.794-3.234 1.65L22.043 6.991c-1.694-.138-3-1.109-2.913-2.161.087-1.054 1.534-1.794 3.233-1.651L40.81 4.716c1.697.139 3 1.108 2.916 2.161"/><path fill="#bfae6e" d="M43.986 13.07c0-2.612-1.855-4.204-2.979-4.664-1.674-.687-.324-3.722 1.35-2.941 1.993.93 4.696 3.723 4.696 7.604.001.881-3.067.881-3.067.001"/><path fill="#65562d" d="M44.39 13.11c-.181-1.17-.545-2.255-1.168-3.203A7.997 7.997 0 0 0 40.808 7.5c.581.138 1.115.446 1.59.815.479.369.886.83 1.218 1.338.656 1.021.963 2.283.774 3.457"/></svg>