<svg xmlns="http://www.w3.org/2000/svg" viewBox="0 0 64 64"><path fill="#699635" d="M0 46.5h64v9H0z"/><path fill="#83bf4f" d="M0 8.499h64v38H0z"/><path fill="#94989b" d="M24 46.5h16v9H24z"/><path fill="#699635" d="M4 12.499h56v30H4z"/><path fill="#83bf4f" d="M7 15.499h50v24H7z"/><circle fill="#699635" cx="45" cy="27.5" r="8"/><path fill="#d0d0d0" d="M24 8.499h16v38H24z"/><path fill="#fff" d="M16 26.5c-1.103 0-2-.897-2-2s.897-2 2-2 2 .896 2 2h2c0-1.858-1.279-3.41-3-3.857V19.5h-2v1.143c-1.721.447-3 1.999-3 3.857 0 2.206 1.794 4 4 4 1.103 0 2 .896 2 2s-.897 2-2 2-2-.896-2-2h-2c0 1.858 1.279 3.41 3 3.857V35.5h2v-1.143c1.721-.447 3-1.999 3-3.857 0-2.205-1.794-4-4-4"/></svg>