<svg xmlns="http://www.w3.org/2000/svg" viewBox="0 0 64 64"><path fill="#962c2c" d="M49.25.172L26.959 8.724s-.801-1.97-1.543-3.149c-1.731-2.75-4.691-1.905-4.691-1.905l-17 6.103S1.377 10.859.419 13.738c-.945 2.838 0 6.298 0 6.298L10.241 64l39.01-37.551s1.305-16.757 2.086-24.524C51.612-.81 49.251.172 49.251.172"/><path fill="#ff8736" d="M10.242 64l42.693-33.35S63.57 9.212 63.932 7.679c.435-1.833-1.386-1.222-1.386-1.222L39.753 17.109s-1.354 6.03-4.094 7.606c-2.989 1.725-17 9.342-17 9.342s-1.997 1.311-3.148 3.421c-1.102 2.02-5.268 26.525-5.268 26.525"/></svg>