<svg xmlns="http://www.w3.org/2000/svg" viewBox="0 0 64 64"><path fill="#f8db7d" d="M8.344.91a3.132 3.132 0 0 1 4.414 0l50.33 50.33a3.131 3.131 0 0 1 0 4.415l-7.433 7.433a3.13 3.13 0 0 1-4.414 0L.911 12.758a3.133 3.133 0 0 1 0-4.415L8.344.912"/><g fill="#ebc463"><path d="M38.33 40.729C22.2 24.599 9.797 10.861 10.619 10.039c.234-.234 1.52.608 3.607 2.301a337.885 337.885 0 0 1-8.35-8.96L3.072 6.185c4.463 4.02 10.01 9.292 15.898 15.184 13.613 13.613 23.934 25.361 23.05 26.24-.88.88-12.629-9.441-26.24-23.05C9.902 18.682 4.64 13.154.63 8.696c-.907 1.219-.819 2.958.286 4.063l25.978 25.979c1.464-1.051 10.186 5.646 19.672 15.13 3.348 3.35 6.35 6.604 8.786 9.477.105-.081.215-.157.312-.253l2.912-2.913c-5.458-4.964-12.579-11.784-20.245-19.45M8.344.911l-.23.229c4.234 3.782 9.601 8.875 15.327 14.601C36.059 28.358 45.621 39.25 44.803 40.07c-.211.209-1.086-.268-2.48-1.299 7.25 7.274 13.689 14.01 18.432 19.223l2.336-2.336c.064-.064.113-.14.169-.208a349.453 349.453 0 0 1-5.398-5.29c-7.723-7.723-13.659-14.307-13.259-14.707.4-.398 6.984 5.537 14.707 13.26a374.27 374.27 0 0 1 4.688 4.775 3.11 3.11 0 0 0-.907-2.245L12.761.913a3.13 3.13 0 0 0-4.414 0"/></g><g fill="#89664c"><path d="M6.353 11.094L4.747 9.49l8.29-8.3 1.607 1.604zM13.709 10.156l-1.604-1.604 4.147-4.148 1.605 1.605zM16.917 13.363l-1.604-1.604 4.148-4.148 1.604 1.604zM20.129 16.578l-1.605-1.607 4.148-4.146 1.605 1.607zM19.193 23.936l-1.605-1.606 8.297-8.29 1.605 1.606zM26.552 22.999l-1.606-1.604 4.145-4.152 1.607 1.604zM29.761 26.21l-1.604-1.606 4.148-4.145 1.604 1.606zM32.974 29.42l-1.605-1.606 4.148-4.146 1.605 1.606zM32.04 36.777l-1.607-1.606 8.29-8.3 1.607 1.606zM39.394 35.85l-1.604-1.605 4.149-4.147 1.604 1.605zM42.61 39.056l-1.605-1.605 4.146-4.148 1.606 1.605zM45.821 42.265l-1.605-1.605 4.149-4.146 1.604 1.605zM44.88 49.628l-1.604-1.605 8.299-8.29 1.603 1.606zM52.235 48.692l-1.607-1.603 4.144-4.154 1.607 1.603zM55.443 51.898l-1.604-1.606 4.149-4.144 1.604 1.606zM58.663 55.112l-1.605-1.604 4.147-4.147 1.605 1.604z"/><circle cx="10.404" cy="13.235" r="2.601"/></g><circle fill="#fff" cx="10.772" cy="13.603" r="2.4"/><circle fill="#89664c" cx="21.989" cy="24.821" r="2.601"/><circle fill="#fff" cx="22.357" cy="25.19" r="2.4"/><circle fill="#89664c" cx="49.28" cy="52.11" r="2.601"/><circle fill="#fff" cx="49.65" cy="52.48" r="2.4"/></svg>