<svg xmlns="http://www.w3.org/2000/svg" viewBox="0 0 64 64"><path fill="#d9e3e8" d="M0 8.83c16.295 11.774 10.721 33.872 19.901 49 2.67-1.769 5.344-3.538 8.01-5.308a24.992 24.992 0 0 0 6.816 7.389l23.695-18.288c-3.816-2.759-5.994-6.292-7.408-10.186C47.15 20.819 48.951 7.526 38.537-.001L-.002 8.829"/><g fill="#7d8b91"><path d="M11.03 14.14c.504.736.965 1.492 1.391 2.264l27.406-8.457a22.13 22.13 0 0 0-1.1-1.792L11.03 14.14M15.264 23.24l26.813-9.887a36.143 36.143 0 0 0-.68-1.991 220426.5 220426.5 0 0 1-26.992 9.361c.312.828.597 1.667.859 2.517M17.06 30.581l26.408-11.408a94.214 94.214 0 0 0-.443-2.102L16.498 27.925c.2.878.384 1.765.562 2.656"/></g><path fill="#d9e3e8" d="M16.77 50.99c1.443 4.233 3.497 8.179 6.747 11.559 1.795 1.885 5.379 1.888 7.441.273 2.072-1.619 1.992-4.145.338-5.887-3.039-3.16-4.959-6.852-6.309-10.811-2.738 1.624-5.479 3.245-8.217 4.866"/><path opacity=".5" fill="#333" d="M18.942 48.984c.125 5.375 1.324 10.185 4.574 13.564 1.795 1.885 5.379 1.888 7.441.273 2.072-1.619 1.992-4.145.338-5.887-3.039-3.16 20.261-24.07 18.914-28.02-2.74 1.624-21.433 12.99-31.27 20.07"/><path fill="#b0bdc6" d="M24.22 43.66c1.316 4.682 3.24 9.08 6.615 12.786 1.834 2.044 2.191 4.754.121 6.376 10.412-8.04 20.824-16.07 31.24-24.11 2.068-1.619 2.301-3.927.996-5.382-2.406-2.643-3.775-5.777-4.715-9.113-15.939 9.05-27.28 15.482-34.25 19.441"/></svg>