<svg xmlns="http://www.w3.org/2000/svg" viewBox="0 0 64 64"><path fill="#94989b" d="M59.62 23.813a1.99 1.99 0 0 0-2.789 0c-.539.54-31.919 31.921-32.938 32.938-.145.145-.287.289-.434.433-3.829 3.831-10.06 3.831-13.892 0-3.829-3.83-3.829-10.06 0-13.892L47.186 5.675a5.927 5.927 0 0 1 8.375 0 5.93 5.93 0 0 1 .201 8.165l-.027-.027-32.877 32.895v-.002a1.986 1.986 0 0 1-2.814 0 1.987 1.987 0 0 1-.059-2.752l28.451-28.535a1.986 1.986 0 0 0 0-2.79c-.758-.758-1.975-.705-2.732.057-.633.635-28.06 28.03-28.388 28.358a6.337 6.337 0 0 0-1.552 2.533c-.369 1.107-.348 2.446.037 3.545a6.17 6.17 0 0 0 2.564 3.229c2.265 1.434 5.371 1.027 7.261-.832l32.693-32.71.031.031c3.849-3.847 3.849-10.11 0-13.956-3.848-3.847-10.11-3.847-13.954.001L6.778 40.503c-5.366 5.368-5.366 14.1 0 19.471 5.369 5.369 14.11 5.369 19.471 0 .543-.54 33.23-33.23 33.371-33.372a1.989 1.989 0 0 0 0-2.789"/></svg>