<svg xmlns="http://www.w3.org/2000/svg" viewBox="0 0 64 64"><path fill="#962c2c" d="M54.36.171L29.757 8.723s-.884-1.97-1.702-3.149c-1.912-2.75-5.179-1.905-5.179-1.905L4.11 9.772S1.518 10.858.461 13.737c-1.042 2.838 0 6.298 0 6.298L11.304 64l43.06-37.551s1.44-16.757 2.303-24.524C56.97-.811 54.363.171 54.363.171"/><path fill="#9aabaf" d="M53.619 24.855L57.52.171 3.369 20.501 11.25 63.48z"/><path fill="#b3c0c4" d="M54.939 27.81L58.846.911 4.689 22.06l6.561 41.42z"/><path fill="#c5cfd3" d="M55.913 28.587L60.3 1.415 5.787 23.598 11.25 63.48z"/><path fill="#d9e3e8" d="M57.11 29.714l4.17-27.29L6.86 25.358l4.393 38.12z"/><path fill="#ff8736" d="M11.306 64l47.12-33.35 5.526-24.839s.274-.804-.521-1.75c-.556-.661-1.528-.389-1.528-.389l-25.16 10.652s-1.494 6.03-4.519 7.606c-3.3 1.725-18.766 9.343-18.766 9.343s-2.204 1.31-3.475 3.419c-1.216 2.02-1.39 4.51-1.39 4.51l2.711 24.801"/></svg>