<svg xmlns="http://www.w3.org/2000/svg" viewBox="0 0 64 64"><path fill="#d0d0d0" d="M24.502 35.532C17.828 42.875 2.865 60.858.629 63.097l-.076.072c-.9.9-.625 1.18.275.279 1.975-1.969 20.25-17.188 27.648-23.941l-3.974-3.975"/><path fill="#c94747" d="M46.897 5.814L58.33 17.248 35.883 39.695 24.45 28.261z"/><g fill="#ed4c5c"><path d="M43.551 54.59c.875-7.83-2.549-17.09-9.799-24.335S17.24 19.573 9.416 20.444l34.14 34.15M64 22.878c-5.25.583-11.449-1.716-16.311-6.573C42.838 11.447 40.539 5.246 41.113 0L64 22.878z"/></g></svg>