<svg xmlns="http://www.w3.org/2000/svg" viewBox="0 0 64 64"><path fill="#fff" d="M0 0h64v64H0z"/><path fill="#52c18e" d="M58.666 5.334H53.1l-15.76 20.16-9.651-11.19L0 54.454v9.54h6.381l22.252-32.27 9.117 10.571 20.916-26.766z"/><path fill="#d0d5d8" d="M64 0H0v50.705L2.969 46.4h-.836V33.067h10.03l1.471-2.134h-11.5V17.601h13.334v10.672l2.133-3.094v-7.578h5.226l1.471-2.133h-6.697V2.134h13.333V14.8l2.417 2.8h7.456l1.667-2.133h-9.406V2.134h13.333v8.31l2.134-2.73v-5.58h13.333v13.333h-1.067v.801l-1.04 1.333h2.106v13.333H49.34l-2.939 3.761V46.4H33.067v-6.266l-2.134-2.473V46.4h-9.824l-1.471 2.133h11.295v13.334H17.601V51.486l-2.133 3.094v7.287h-5.02L8.977 64h55.03V0M15.474 15.467H2.14V2.134h13.334v13.333m30.932 46.4H33.073V48.533h13.333v13.334m15.467 0H48.54V48.533h13.333v13.334m0-15.467H48.54V33.067h13.333V46.4"/></svg>