<svg xmlns="http://www.w3.org/2000/svg" viewBox="0 0 64 64"><path fill="#fff" d="M0 0h64v64H0z"/><path fill="#ed4c5c" d="M58.666 58.667H53.1L37.34 38.504l-9.651 11.191L0 9.537V0h6.381l22.252 32.27 9.117-10.566L58.666 48.47z"/><path fill="#d0d5d8" d="M64 0H8.973l1.471 2.133h5.023V9.42l2.133 3.094V2.134h13.334v13.333H19.637l1.471 2.133h9.826v8.738l2.133-2.473v-6.266H46.4v11.706l2.938 3.76h12.529V46.4H59.76l1.041 1.332v.801h1.066v13.334H48.533v-5.579l-2.133-2.73v8.31H33.066V48.533h9.406L40.807 46.4H33.35l-2.416 2.801v12.666H17.6V48.533h6.697L22.826 46.4H17.6v-7.578l-2.133-3.094V46.4H2.133V33.066h11.5l-1.471-2.133H2.133V17.601h.836L0 13.295V64h64V0zM15.467 61.867H2.133V48.533h13.334v13.334zm30.933-46.4H33.066V2.134H46.4v13.333zm15.467 0H48.533V2.134h13.334v13.333zm0 15.467H48.533V17.601h13.334v13.333z"/></svg>