<svg xmlns="http://www.w3.org/2000/svg" viewBox="0 0 64 64"><path fill="#d3976e" d="M35.695 62.21c-1.364 2.084-4.447 2.382-6.84.696l-27.03-19.03c-1.849-1.302-2.376-3.79-1.206-5.577l23.777-36.32C25.567.191 28.188-.52 30.285.403l30.648 13.5c2.715 1.195 3.85 3.872 2.485 5.956l-27.725 42.35"/><path fill="#fff" d="M31.394 59.752L3.535 40.705 28.04 3.274l31.05 14.177z"/><path fill="#94989b" d="M49.03 14.791c-.391.597-1.312.797-2.055.449l-11.72-5.503c-.674-.316-.917-1.027-.547-1.592l1.838-2.809c.37-.564 1.219-.777 1.9-.475l11.873 5.271c.751.333 1.047 1.089.656 1.687l-1.945 2.972"/><path fill="#333" d="M46.788 11.143l-7.55-3.427 1.864-2.847c.374-.571 1.243-.789 1.946-.483l5.02 2.179c.734.319 1.02 1.057.636 1.646l-1.92 2.932"/><g fill="#83bf4f"><path d="M47.34 26.576l-15.675-8.04.823-1.257L48.22 25.24zM26.723 17.713c-.173.097-.363.03-.424-.147l-.964-2.84c-.06-.173.057-.351.256-.392l.366-.077c.202-.042.415.067.476.241l.509 1.486c.062.177.252.242.424.144l2.905-1.636a.456.456 0 0 1 .55.1l.233.279a.294.294 0 0 1-.085.459l-4.246 2.383"/></g><g fill="#b0bdc6"><path d="M42.22 34.407l-15.371-8.515.823-1.257L43.09 33.07zM23.906 26.19l-4.536-2.55 2.617-4 4.588 2.47zM37.09 42.24l-15.06-8.99.827-1.26 15.11 8.91zM19.13 33.483l-4.442-2.692 2.618-3.999 4.496 2.613zM31.962 50.07l-14.743-9.467.821-1.253 14.798 9.381zM14.357 40.776l-4.347-2.834 2.615-3.998 4.405 2.754z"/></g></svg>