<svg xmlns="http://www.w3.org/2000/svg" viewBox="0 0 64 64"><circle fill="#c28fef" cx="32" cy="32" r="30"/><circle fill="#fff" cx="32" cy="32" r="6.637"/><g fill="#ffc7ce"><path d="M32.24 42.613l9.191 13.635a26.174 26.174 0 0 0 14.816-14.816L42.613 32.24c-.127 5.666-4.708 10.246-10.373 10.373M31.761 21.386L22.57 7.752A26.147 26.147 0 0 0 7.753 22.57l13.635 9.189c.127-5.664 4.709-10.246 10.373-10.373"/></g><path fill="#9450e0" d="M32 44.961c-7.146 0-12.959-5.814-12.959-12.961 0-7.145 5.813-12.959 12.959-12.959S44.96 24.855 44.96 32c0 7.146-5.814 12.961-12.96 12.961m0-23.265c-5.682 0-10.305 4.622-10.305 10.304S26.318 42.305 32 42.305c5.683 0 10.305-4.623 10.305-10.305 0-5.682-4.622-10.304-10.305-10.304"/></svg>