<svg xmlns="http://www.w3.org/2000/svg" viewBox="0 0 64 64"><path fill="#d9e3e8" d="M0 0c17.302 17.05 6.697 46.953 24 64 12.729-8.352 27.27-16.648 40-25-7.652-7.539-8.296-18.363-10-28-7.939-3.03-16.6-6.951-29-11H0"/><g fill="#7d8b91"><path d="M13.04 9.02c.418.813.8 1.641 1.146 2.48l16.229-2.962a28.51 28.51 0 0 0-.995-2.157L13.04 9.02M16.39 18.801l15.941-3.916a43.27 43.27 0 0 0-.556-2.313l-16.02 3.568c.237.88.449 1.766.64 2.661M17.587 26.46l31.571-9.834a76.775 76.775 0 0 0-.259-2.04l-31.663 9.113c.129.917.243 1.837.351 2.761"/></g><path opacity=".5" fill="#333" d="M25 0c4.854 4.784 2.92 17.885 4 24 7.05-1.857 17.954-11.144 25-13-7.939-3.03-16.6-6.951-29-11"/><path fill="#7d8b91" d="M22.11 51.32c.354.838.743 1.664 1.17 2.475 5.02-2.83 10.03-5.66 15.04-8.49a28.246 28.246 0 0 1-1.017-2.15L22.109 51.32"/><path fill="#d9e3e8" d="M25 0c4.854 4.784 6.6 10.571 7.68 16.686C39.73 14.829 46.954 12.856 54 11 46.061 7.97 37.4 4.049 25 0"/></svg>