<svg xmlns="http://www.w3.org/2000/svg" viewBox="0 0 64 64"><path fill="#962c2c" d="M54.976 35.15l7.527 7.438-33.29 15.79s-4.406 2.02-6.482-1.203c-8.214-12.731 32.25-22.02 32.25-22.02"/><path fill="#d9e3e8" d="M28.371 49.13s-6.373 2.238-5.205 6.468c1.215 4.393 6.281 1.722 6.281 1.722L61.07 42.591s-1.776-4.664 1.434-7.838L28.374 49.13"/><path fill="#ed4c5c" d="M33.732 5l30.27 29.523-35.789 14.01L5.237 12.659z"/><path fill="#fff" d="M34.616 11.742l5.827 6.175-21.75 7.755-5.136-7.867z"/><g fill="#94989b"><path d="M61.05 38.02l-21.177 8.605L60.65 37.1zM60.724 40.558L38.22 49.855l22.1-10.213zM60.932 42.04L32.21 54.45l28.31-13.32z"/></g><path fill="#c94747" d="M22.73 57.17c-3.492-7.318 5.482-8.645 5.482-8.645L5.234 12.651S0 12.508 0 17.921c0 2.233 1.019 3.897 1.019 3.897l21.711 35.35"/></svg>