<svg xmlns="http://www.w3.org/2000/svg" viewBox="0 0 64 64"><path fill="#3e4347" d="M41.977 1.537L28 62l28.743-7.837c3.296-.924 5.23-4.3 4.321-7.539L49.589 5.728c-.908-3.239-4.318-5.116-7.612-4.191z"/><path fill="#e9f3fa" d="M39.604.901L28 62.001l28.506-9.118c3.254-1.059 5.05-4.51 4.01-7.709l-13.13-40.4C46.345 1.575 42.863-.161 39.608.897"/><path fill="#c28fef" d="M37.559.381l-27.66 10.07 18.694 51.36 27.66-10.07c3.216-1.171 4.89-4.683 3.74-7.845L45.466 3.982C44.314.821 40.774-.793 37.559.377"/><g opacity=".5" fill="#9450e0"><path d="M17.04 12.691l-.88 1.933-1.915-.917.875-1.933 1.92.917M22.615 10.66l-.876 1.932-1.914-.917.877-1.932 1.913.917M28.2 8.629l-.881 1.932-1.913-.916.874-1.933 1.92.917M33.776 6.598L32.9 8.53l-1.914-.917.877-1.932 1.913.917M39.36 4.566l-.88 1.933-1.913-.917.876-1.933 1.917.917M20.862 14.525l-.876 1.932-1.916-.916.879-1.933 1.913.917M26.443 12.494l-.877 1.932-1.914-.917.877-1.932 1.914.917M32.02 10.462l-.87 1.933-1.92-.917.88-1.933 1.91.917M37.604 8.431l-.876 1.933-1.915-.917.877-1.932 1.914.916M43.19 6.4l-.88 1.933-1.91-.917.87-1.933 1.92.917M19.11 18.39l-.877 1.932-1.914-.917.877-1.932 1.914.917M24.689 16.358l-.876 1.933-1.914-.917.877-1.933 1.913.917M30.27 14.328l-.877 1.932-1.913-.917.876-1.932 1.914.917M35.851 12.296l-.876 1.933-1.915-.917.878-1.933 1.913.917M41.43 10.265l-.875 1.933-1.913-.917.876-1.933 1.912.917M22.936 20.224l-.876 1.936-1.91-.921.87-1.932 1.916.917M28.516 18.19l-.876 1.94-1.914-.92.877-1.935 1.913.915M34.1 16.16l-.88 1.93-1.91-.91.87-1.936 1.92.916M39.678 14.13l-.876 1.93-1.914-.91.877-1.937 1.913.917M45.26 12.1l-.88 1.93-1.911-.91.871-1.938 1.92.918M21.18 24.09l-.873 1.93-1.914-.92.877-1.93 1.91.92M43.506 15.964l-.877 1.932-1.914-.917.877-1.929 1.914.914M25.01 25.922l-.88 1.932-1.91-.916L23.1 25l1.91.922M47.33 17.798l-.87 1.932-1.917-.917.877-1.932 1.91.917M23.257 29.787l-.876 1.932-1.914-.916.877-1.933 1.913.917M28.837 27.756l-.876 1.932-1.911-.917.874-1.932 1.913.917M34.419 25.725l-.877 1.932-1.915-.916.877-1.933 1.915.917M39.999 23.694l-.879 1.932-1.91-.917.88-1.932 1.909.917M45.58 21.663l-.877 1.932-1.914-.917.877-1.932 1.914.917M27.08 31.621l-.87 1.933-1.916-.917.876-1.933 1.91.917M32.665 29.59l-.876 1.932-1.914-.917.876-1.932 1.914.917M38.25 27.559l-.88 1.932-1.914-.917.874-1.932 1.92.917M43.826 25.527l-.876 1.933-1.91-.917.873-1.932 1.913.916M49.41 23.497l-.88 1.932-1.913-.917.873-1.932 1.92.917M25.332 35.486l-.876 1.932-1.914-.916.876-1.933 1.914.917M30.912 33.455l-.872 1.933-1.92-.917.879-1.933 1.913.917M36.492 31.424l-.876 1.936-1.914-.921.877-1.932 1.913.917M42.07 29.393l-.87 1.927-1.92-.912.88-1.932 1.91.917M47.653 27.361l-.876 1.929-1.914-.913.877-1.933 1.913.917M29.16 37.32l-.88 1.93-1.911-.91.881-1.937 1.91.917M34.739 35.29l-.876 1.93-1.914-.92.877-1.93 1.913.92M40.32 33.26l-.877 1.93-1.914-.92.881-1.93 1.91.92M45.9 31.23l-.88 1.93-1.91-.92.877-1.93 1.913.92M51.48 29.2l-.876 1.93-1.914-.92.877-1.93 1.913.92M27.406 41.19l-.876 1.93-1.914-.92.877-1.93 1.913.92M32.986 39.15l-.876 1.94-1.91-.92.87-1.93 1.916.91M38.566 37.12l-.876 1.93-1.914-.91.877-1.93 1.913.91M44.15 35.09l-.88 1.93-1.91-.91.87-1.94 1.92.92M49.728 33.06l-.876 1.933-1.914-.913.876-1.94 1.914.92M31.23 43.02l-.873 1.931-1.914-.921.877-1.93 1.91.92M36.813 40.987l-.875 1.933L34.02 42l.88-1.93 1.913.917M42.4 38.956l-.882 1.934-1.914-.918.876-1.932 1.92.916M47.975 36.925l-.875 1.932-1.91-.917.87-1.93 1.915.915M53.56 34.895l-.881 1.932-1.914-.917.877-1.932 1.918.917M29.48 46.884l-.877 1.931-1.913-.916.877-1.932 1.913.917M35.06 44.853l-.87 1.932-1.92-.917.88-1.932 1.91.917M40.641 42.821l-.876 1.933-1.914-.917.877-1.932 1.913.916M46.22 40.79l-.88 1.933-1.91-.917.88-1.933 1.91.917M51.802 38.759l-.876 1.932-1.916-.917.879-1.932 1.913.917M33.31 48.718l-.879 1.931-1.914-.916.877-1.932 1.916.917M38.888 46.687l-.878 1.931-1.91-.916.875-1.932 1.913.917M44.47 44.655l-.878 1.933-1.914-.917.877-1.933 1.915.917M50.05 42.624l-.88 1.933-1.91-.917.87-1.932 1.92.916M55.629 40.593l-.876 1.933-1.914-.918.877-1.932 1.913.917M31.554 52.583l-.877 1.937-1.913-.921.876-1.934 1.914.918M37.13 50.552l-.87 1.928-1.92-.913.88-1.933 1.91.918M42.715 48.52l-.876 1.93-1.914-.91.877-1.936 1.913.916M48.3 46.49l-.88 1.93-1.914-.91.874-1.938 1.92.918M53.876 44.46L53 46.39l-1.91-.92.873-1.929 1.913.919M35.38 54.42l-.874 1.93-1.915-.92.878-1.93 1.911.92M40.962 52.39l-.872 1.93-1.92-.92.88-1.93 1.912.92M46.543 50.35l-.877 1.94-1.914-.92.877-1.93 1.914.91M52.12 48.32l-.87 1.94-1.92-.92.88-1.93 1.91.91M57.703 46.29l-.876 1.93-1.914-.91.877-1.93 1.913.91"/></g><path fill="#3e4347" d="M5.533 12.04c-3.217 1.171-3.297 3.02-2.146 6.184L18.955 61c1.151 3.162 2.056 3.574 5.272 2.404l4.366-1.59-18.694-51.36-4.366 1.59"/><path fill="#fff" d="M22.741 20.296l17.134-6.238 2.433 6.684-17.133 6.238z"/><path fill="#3e4347" d="M39.922 17.763c-1.573 1.128-3.673 1.339-5.174 2.595-1.129.944-.994 3.656-2.199.925-.172.222-.368.42-.589.597-.181-.767.023-1.57-.124-2.35-1.902.847-2.726 3.104-3.444 4.893.048-1.677.858-3.604-.012-5.193-1.78 1.013-2.884 3.167-3.203 5.133.491-1.772 1.426-3.811 3.107-4.812.759 1.653-.078 3.687.007 5.42.608-1.809 1.54-4.258 3.399-5.146.112.835-.127 1.596.124 2.429.262-.141.491-.327.687-.56 1.232 2.668 1.38-.248 2.401-1.157 1.443-1.285 3.584-1.56 5.02-2.774"/></svg>