<svg xmlns="http://www.w3.org/2000/svg" viewBox="0 0 64 64"><path fill="#d9e3e8" d="M64 62a2 2 0 0 1-2 2H2a2 2 0 0 1-2-2V16a2 2 0 0 1 2-2h60a2 2 0 0 1 2 2v46"/><path fill="#ed4c5c" d="M61 59a2 2 0 0 1-2 2H5a2 2 0 0 1-2-2V19a2 2 0 0 1 2-2h54a2 2 0 0 1 2 2v40"/><g fill="#fff"><path d="M7.157 29.941V18.925h2.288v4.2h4.282v-4.2h2.286v11.017h-2.286v-4.918H9.444v4.918H7.157zM26.371 20.875h-5.829v2.34h5.351v1.913h-5.351v2.832h6.099v1.981h-8.347v-11.02h8.08v1.95M28.435 18.925h2.302v9.04h5.502v1.981h-7.804v-11.02M37.785 18.925h2.301v9.04h5.5v1.981h-7.801v-11.02M55.615 28.962c-.83.856-2.035 1.285-3.609 1.285-1.573 0-2.777-.429-3.608-1.285-1.116-1.052-1.676-2.566-1.676-4.544 0-2.02.56-3.533 1.676-4.544.831-.857 2.035-1.286 3.608-1.286 1.574 0 2.779.428 3.609 1.286 1.112 1.01 1.668 2.526 1.668 4.544 0 1.978-.555 3.492-1.668 4.544m-1.437-1.675c.535-.672.804-1.629.804-2.869 0-1.236-.269-2.191-.804-2.867s-1.26-1.013-2.172-1.013c-.91 0-1.639.336-2.182 1.01s-.814 1.629-.814 2.87c0 1.24.271 2.197.814 2.869.543.673 1.271 1.01 2.182 1.01.912.001 1.637-.336 2.172-1.01"/></g><path fill="#8b979e" d="M37 14.03c0 1.086-.848 1.967-1.893 1.967h-6.216c-1.045 0-1.892-.88-1.892-1.967V2.885c0-1.086.847-1.967 1.892-1.967h6.216c1.045 0 1.893.88 1.893 1.967V14.03"/><path fill="#b0bdc6" d="M37 13.11c0 1.086-.848 1.967-1.893 1.967h-6.216c-1.045 0-1.892-.881-1.892-1.967V1.965C27 .879 27.847-.001 28.892-.001h6.216c1.045 0 1.893.88 1.893 1.967V13.11z"/><path fill="#fff" d="M58 56a2 2 0 0 1-2 2H8a2 2 0 0 1-2-2V34a2 2 0 0 1 2-2h48a2 2 0 0 1 2 2v22"/><g fill="#ed4c5c"><path d="M15.11 33.971h1.428v4.746h-.925v-3.21l.003-.388.003-.385-.899 3.982h-.964l-.893-3.982.003.385.003.388v3.21h-.924v-4.746h1.443l.864 3.732.858-3.732M17.516 39.39l.116.006c.09.004.176.001.258-.01a.453.453 0 0 0 .206-.074c.054-.036.104-.112.149-.229.046-.115.066-.186.06-.212l-1.29-3.665h1.021l.767 2.59.723-2.59h.977L19.3 38.659c-.232.664-.416 1.077-.552 1.237-.135.159-.407.239-.813.239h-.197a12.355 12.355 0 0 1-.222-.012v-.733M25.707 35.408c.229.19.345.506.345.945v2.363h-.94v-2.135a.982.982 0 0 0-.074-.425c-.089-.181-.26-.271-.511-.271-.31 0-.521.133-.636.396-.061.139-.09.318-.09.534v1.899h-.918v-3.503h.889v.513a1.53 1.53 0 0 1 .334-.391c.188-.141.426-.213.715-.213.361.003.656.099.886.288M28.3 36.582a1.42 1.42 0 0 0 .367-.08c.131-.056.197-.143.197-.261 0-.144-.051-.243-.152-.298-.1-.055-.249-.082-.445-.082-.219 0-.375.054-.467.161a.669.669 0 0 0-.13.321h-.886c.02-.307.105-.559.259-.756.243-.31.661-.465 1.255-.465.385 0 .729.076 1.028.229.3.152.45.44.45.862v1.611c0 .111.001.246.006.404.006.121.024.203.055.246a.314.314 0 0 0 .135.105v.135h-.998a1.186 1.186 0 0 1-.083-.411 1.89 1.89 0 0 1-.441.351c-.198.113-.423.17-.673.17-.32 0-.584-.09-.792-.271-.209-.182-.313-.438-.313-.771 0-.432.168-.744.504-.938.184-.104.453-.18.811-.225l.313-.037m.56.429a1.056 1.056 0 0 1-.178.089c-.06.022-.142.043-.246.063l-.209.039a1.363 1.363 0 0 0-.422.125.42.42 0 0 0-.217.39c0 .157.045.271.133.34s.195.104.322.104a.97.97 0 0 0 .555-.174c.168-.115.256-.328.262-.635v-.341M34.951 35.22a1.025 1.025 0 0 1 .609.765c.021.119.032.291.032.52l-.007 2.211h-.94v-2.234a.731.731 0 0 0-.064-.328c-.081-.162-.231-.244-.45-.244-.254 0-.429.104-.525.314a1 1 0 0 0-.074.403v2.089h-.924v-2.089c0-.208-.021-.36-.064-.454-.076-.17-.229-.255-.453-.255-.263 0-.438.085-.529.255-.049.096-.074.24-.074.432v2.111h-.93v-3.503h.892v.513c.114-.184.221-.313.321-.391.18-.137.41-.205.693-.205.268 0 .484.059.65.176.133.11.233.251.303.422.119-.205.27-.356.447-.453.189-.097.398-.145.631-.145.153 0 .306.029.456.09M38.723 35.28c.244.109.447.282.607.52.144.208.236.449.279.725.025.162.035.393.029.697h-2.556c.015.352.137.598.367.74.14.088.309.132.507.132a.782.782 0 0 0 .51-.161.818.818 0 0 0 .188-.241h.938c-.025.208-.139.419-.341.634-.313.342-.755.512-1.319.512-.468 0-.88-.144-1.237-.432-.356-.287-.535-.756-.535-1.404 0-.608.161-1.074.483-1.398s.74-.488 1.256-.488c.304-.002.58.054.824.164m-1.373.792a.964.964 0 0 0-.244.544h1.582c-.018-.244-.1-.43-.246-.555a.797.797 0 0 0-.543-.189c-.237 0-.419.067-.549.2M42.879 34.789h-.93v-.847h.93v.847m-.93.418h.93v3.51h-.93v-3.51M44.48 37.598c.021.162.063.278.127.348.115.121.326.183.635.183a.953.953 0 0 0 .432-.081c.106-.053.16-.133.16-.24 0-.104-.043-.182-.129-.235s-.406-.146-.96-.276c-.399-.1-.681-.223-.844-.371-.163-.146-.244-.356-.244-.631 0-.324.128-.604.382-.836.256-.232.613-.35 1.076-.35.439 0 .797.088 1.073.263s.436.478.477.907h-.918a.542.542 0 0 0-.101-.281c-.102-.124-.273-.186-.516-.186-.201 0-.344.031-.43.092-.084.063-.127.136-.127.22 0 .105.045.182.137.229.09.05.408.134.957.255.366.086.641.215.822.39s.271.396.271.659c0 .348-.13.633-.389.852-.26.221-.66.33-1.203.33-.553 0-.961-.116-1.225-.349a1.134 1.134 0 0 1-.395-.89h.932zM47.42 37.755h.977v.962h-.977v-.962M49.25 37.755h.976v.962h-.976v-.962M51.08 37.755h.976v.962h-.976v-.962"/></g></svg>