<svg xmlns="http://www.w3.org/2000/svg" viewBox="0 0 64 64"><path fill="#547725" d="M54.976 35.15l7.527 7.439-33.29 15.79s-4.406 2.02-6.482-1.204c-8.214-12.73 32.25-22.02 32.25-22.02"/><path fill="#d9e3e8" d="M28.37 49.13s-6.373 2.238-5.205 6.467c1.215 4.393 6.281 1.722 6.281 1.722l31.623-14.728s-1.776-4.664 1.434-7.838L28.373 49.13"/><path fill="#83bf4f" d="M33.732 5l30.267 29.524L28.21 48.53 5.234 12.655z"/><path fill="#fff" d="M34.616 11.742l5.827 6.175-21.75 7.755-5.136-7.867z"/><g fill="#94989b"><path d="M61.05 38.02l-21.177 8.606L60.65 37.1zM60.724 40.559L38.22 49.856l22.1-10.213zM60.932 42.05L32.2 54.45l28.32-13.32z"/></g><path fill="#699635" d="M22.729 57.17c-3.492-7.317 5.482-8.644 5.482-8.644L5.234 12.651S0 12.508 0 17.921c0 2.233 1.019 3.897 1.019 3.897l21.71 35.35"/></svg>