<svg xmlns="http://www.w3.org/2000/svg" viewBox="0 0 64 64"><path fill="#3e4347" d="M44.21 1.537l-14.63 60.64 29.396-8.01c3.295-.924 5.229-4.3 4.32-7.539L51.821 5.732c-.908-3.239-4.316-5.116-7.611-4.191"/><path fill="#e9f3fa" d="M41.837.901l-12.258 61.27 29.16-9.293c3.254-1.059 5.05-4.51 4.01-7.709l-13.13-40.4C48.579 1.57 45.097-.166 41.843.892"/><path fill="#d3976e" d="M39.791.381l-27.66 10.07-4.366 1.59c-3.216 1.17-3.296 3.02-2.146 6.183L21.188 61c1.15 3.162 2.056 3.574 5.271 2.404l4.367-1.59 27.659-10.07c3.216-1.172 4.89-4.684 3.739-7.846L47.698 3.986C46.547.825 43.007-.789 39.791.381"/><g fill="#3e4347"><circle cx="8.621" cy="14.936" r="1.609"/><circle cx="10.843" cy="21.04" r="1.609"/><circle cx="13.04" cy="27.08" r="1.609"/><circle cx="15.237" cy="33.12" r="1.609"/><path d="M10.362 31.23c-.26-.713-.227-1.59-1.031-1.349-1.125.339-2.412.58-3.236-.28-.301-.314-.859-.283-1.026.156-.239.626.434 1.341.928 1.614 1.307.721 3.048.329 4.365-.141m-4.076-1.335c.037.073 0-.002 0 0M8.166 25.19a228.06 228.06 0 0 1-.32-.88c-.212-.581-.054-.669-.711-.47-1.125.34-2.412.58-3.235-.279-.301-.314-.859-.284-1.026.156-.239.626.434 1.342.928 1.615 1.304.72 3.048.327 4.364-.142m-4.077-1.335c.033.047.01.016 0 0M5.969 19.16l-.32-.88c-.211-.581-.054-.669-.71-.47-1.126.341-2.411.578-3.235-.28-.301-.313-.859-.283-1.027.156-.24.626.435 1.342.928 1.615 1.304.722 3.047.327 4.364-.141m-4.076-1.336c.038.072 0-.003 0 0M12.56 37.27a310.99 310.99 0 0 1-.32-.88c-.212-.581-.054-.67-.711-.471-1.125.341-2.412.579-3.235-.278-.301-.314-.859-.283-1.026.156-.239.626.434 1.342.928 1.614 1.304.721 3.048.328 4.364-.141m-4.078-1.336c.039.077 0-.007 0 0"/></g><g fill="#94989b"><path d="M12.511 27.27c-.538-1.36-5.941.84-6.341 2.363.028-.091.031-.079.009.037a.138.138 0 0 0-.006-.094c.399 1.21-1.369 1.263-1.298-.283.081-1.749 2.168-2.812 3.571-3.333 1.306-.484 3.066-.858 4.365-.141 1.855 1.025.231 2.774-.3 1.451M10.314 21.237c-.543-1.358-5.949.836-6.341 2.363.027-.091.03-.079.009.038a.138.138 0 0 0-.006-.094c.398 1.211-1.369 1.263-1.298-.283.08-1.749 2.169-2.811 3.572-3.331 1.305-.485 3.066-.858 4.365-.142 1.856 1.023.229 2.771-.301 1.449M8.118 15.201c-.544-1.361-5.942.84-6.342 2.363.028-.091.031-.079.009.037a.123.123 0 0 0-.005-.094c.398 1.212-1.369 1.263-1.299-.283.08-1.749 2.169-2.811 3.571-3.332 1.306-.485 3.067-.858 4.366-.142 1.855 1.025.23 2.774-.3 1.451M14.708 33.31c-.548-1.358-5.945.837-6.341 2.363.027-.092.03-.079.009.037a.139.139 0 0 0-.006-.094c.398 1.211-1.369 1.264-1.298-.282.08-1.749 2.17-2.812 3.572-3.333 1.304-.485 3.067-.857 4.365-.142 1.854 1.023.228 2.774-.301 1.451"/></g><g fill="#d0d0d0"><path d="M8.804 26.944c-.831.311-1.627.721-2.311 1.326-.306.271-.936.861-.738 1.461.097.294-.262.426-.358.13-.242-.736.221-1.343.599-1.755.72-.783 1.696-1.263 2.644-1.613.229-.086.394.367.164.451M6.606 20.909c-.83.309-1.627.72-2.31 1.326-.306.271-.936.86-.738 1.461.097.294-.262.426-.359.13-.241-.737.222-1.343.599-1.756.72-.782 1.697-1.262 2.644-1.614.231-.084.396.368.164.453M4.41 14.875c-.831.308-1.627.719-2.311 1.324-.305.271-.935.861-.738 1.461.097.294-.262.426-.358.131-.242-.738.221-1.343.599-1.755.72-.783 1.697-1.262 2.644-1.614.23-.086.395.367.164.453M11 32.98c-.831.309-1.627.72-2.31 1.326-.307.271-.936.86-.739 1.461.097.294-.261.426-.358.131-.241-.736.221-1.344.599-1.755.72-.784 1.697-1.263 2.644-1.615.229-.086.394.367.164.452"/></g><g fill="#3e4347"><circle cx="17.464" cy="39.23" r="1.609"/><circle cx="19.688" cy="45.34" r="1.609"/><circle cx="21.884" cy="51.38" r="1.609"/><circle cx="24.08" cy="57.41" r="1.609"/><path d="M19.21 55.53c-.26-.713-.227-1.592-1.03-1.349-1.125.339-2.413.578-3.235-.28-.301-.313-.859-.284-1.027.155-.24.627.434 1.342.928 1.614 1.305.723 3.047.329 4.364-.14m-4.076-1.335c.028.049.011.018 0 0M17.01 49.49l-.32-.88c-.211-.581-.054-.668-.711-.47-1.123.34-2.413.58-3.236-.279-.301-.314-.859-.283-1.026.156-.239.626.434 1.342.928 1.614 1.305.721 3.049.329 4.365-.141m-4.076-1.335c.032.048.008.014 0 0M14.813 43.46c-.26-.713-.228-1.593-1.031-1.35-1.127.341-2.41.578-3.235-.28-.301-.313-.859-.282-1.027.156-.24.626.435 1.343.928 1.615 1.305.722 3.05.327 4.365-.141m-4.077-1.335c.027.047.012.018 0 0M21.403 61.56a310.99 310.99 0 0 1-.32-.88c-.212-.581-.054-.669-.711-.471-1.124.34-2.412.58-3.235-.279-.301-.313-.859-.282-1.026.156-.239.627.435 1.343.928 1.615 1.305.722 3.048.329 4.364-.141m-4.077-1.335c.042.067.003 0 0 0"/></g><g fill="#94989b"><path d="M21.355 51.57c-.547-1.363-5.942.844-6.342 2.364.028-.092.031-.079.01.037a.155.155 0 0 0-.006-.095c.398 1.213-1.369 1.263-1.299-.283.08-1.747 2.169-2.812 3.571-3.331 1.306-.484 3.066-.858 4.366-.142 1.855 1.026.23 2.773-.3 1.45M19.16 45.536c-.533-1.355-5.949.835-6.341 2.363.027-.092.03-.08.009.037a.139.139 0 0 0-.005-.094c.397 1.212-1.369 1.261-1.299-.283.079-1.75 2.169-2.81 3.571-3.332 1.305-.484 3.066-.858 4.365-.142 1.856 1.024.23 2.772-.3 1.451M16.962 39.5c-.543-1.354-5.948.832-6.341 2.363.027-.091.03-.078.009.037a.136.136 0 0 0-.006-.093c.398 1.212-1.369 1.262-1.299-.283.08-1.749 2.169-2.812 3.571-3.332 1.305-.485 3.067-.858 4.366-.142 1.855 1.024.23 2.773-.3 1.45M23.552 57.61c-.543-1.365-5.94.846-6.341 2.363.027-.092.03-.079.009.037a.139.139 0 0 0-.006-.094c.398 1.211-1.369 1.263-1.298-.283.08-1.749 2.17-2.81 3.572-3.332 1.305-.484 3.067-.857 4.365-.141 1.855 1.025.228 2.772-.301 1.45"/></g><g fill="#d0d0d0"><path d="M17.647 51.24c-.831.311-1.627.72-2.311 1.326-.306.271-.936.86-.738 1.46.097.295-.262.427-.358.131-.242-.737.221-1.343.599-1.755.72-.783 1.697-1.263 2.644-1.613.23-.086.395.366.164.451M15.45 45.21c-.83.309-1.627.72-2.31 1.326-.306.27-.936.859-.738 1.461.097.294-.262.426-.358.131-.242-.738.221-1.344.599-1.756.719-.783 1.696-1.264 2.644-1.615.23-.084.395.368.163.453M13.254 39.17c-.831.308-1.627.72-2.311 1.323-.305.272-.935.861-.737 1.463.097.293-.262.426-.359.13-.242-.737.221-1.343.599-1.755.72-.783 1.697-1.263 2.645-1.613.229-.086.393.365.163.452M19.844 57.28c-.831.31-1.627.721-2.31 1.326-.306.271-.936.86-.738 1.461.097.293-.262.426-.359.13-.241-.736.222-1.343.6-1.755.719-.783 1.696-1.263 2.644-1.613.229-.087.393.366.163.451"/></g><path fill="#fff" d="M20.849 21.796l17.134-6.238 2.434 6.684-17.135 6.238z"/><path fill="#3e4347" d="M38.03 19.265c-1.573 1.128-3.673 1.339-5.174 2.595-1.129.944-.994 3.656-2.199.925a3.502 3.502 0 0 1-.589.597c-.181-.767.023-1.569-.124-2.35-1.901.848-2.726 3.104-3.443 4.893.048-1.677.858-3.604-.012-5.192-1.78 1.013-2.885 3.166-3.203 5.133.491-1.771 1.426-3.811 3.107-4.812.759 1.653-.078 3.687.007 5.42.607-1.809 1.539-4.258 3.398-5.146.112.835-.127 1.596.124 2.43.262-.141.491-.327.688-.561 1.232 2.669 1.38-.247 2.401-1.157 1.442-1.287 3.584-1.561 5.02-2.775"/></svg>