<svg xmlns="http://www.w3.org/2000/svg" viewBox="0 0 64 64"><path fill="#3e4347" d="M41.977 1.537l-28.34 7.951-4.474 1.256c-3.295.925-3.516 2.766-2.606 6l12.298 43.828c.91 3.24 1.781 3.719 5.076 2.794l4.475-1.255 28.339-7.952c3.296-.925 5.229-4.301 4.321-7.54L49.589 5.724c-.909-3.239-4.318-5.116-7.612-4.191"/><path fill="#d0d0d0" d="M39.604.9l-27.991 9.103-4.419 1.437c-3.255 1.059-3.4 2.906-2.36 6.105l14.07 43.29c1.04 3.199 1.931 3.643 5.185 2.584l4.42-1.436 27.992-9.102c3.254-1.059 5.05-4.51 4.01-7.71l-13.13-40.39C46.34 1.582 42.858-.154 39.603.903"/><path fill="#42ade2" d="M37.559.381l-27.66 10.07 18.694 51.36 27.659-10.07c3.216-1.17 4.89-4.682 3.739-7.844L45.466 3.984C44.314.823 40.774-.791 37.559.379"/><path fill="#3e4347" d="M5.532 12.04c-3.216 1.17-3.296 3.02-2.146 6.183l15.569 42.776c1.151 3.162 2.056 3.574 5.271 2.403l4.367-1.589-18.694-51.36-4.367 1.591"/><path fill="#fff" d="M22.74 20.296l17.134-6.238 2.434 6.684-17.135 6.238z"/><path fill="#3e4347" d="M25.31 24.398a10.96 10.96 0 0 1 .905-2.477c.129-.262 1.921-2.721 2.226-1.927.526 1.375-.208 3.26-.233 4.71-.002.15.197.159.246.033.458-1.192.962-2.318 1.647-3.396.293-.864.824-1.155 1.591-.873.129 2.195-.22-.45.068 1.647.01.075.124.12.184.075 1.037-.787.597.906 1.45.702.768-.184 1.319-1.246 1.058-1.96.029.08.106.111.184.075 1.844-.881 3.762-1.888 5.385-3.146.127-.099-.052-.274-.178-.177-.267.207-5.204 3.034-5.2 3.046-.039-.106-.214-.131-.24 0-.184.892-1.223 1.923-1.759.694-.032-.073-.146-.08-.196-.025-.443-.503-.626-1.08-.551-1.731-.005-.095-.102-.155-.188-.108-1.569.86-2.351 2.399-3.05 3.99-.438.995-.217.637-.021-.855.157-1.197.261-2.209-.174-3.348-.027-.071-.111-.123-.184-.075-1.762 1.175-2.73 3.03-3.207 5.058-.041.159.2.225.237.068"/></svg>