<svg xmlns="http://www.w3.org/2000/svg" viewBox="0 0 64 64"><path fill="#93a2aa" d="M50.55 34.43c-3.236-8.548-11.89-15.515-8.854-25.892-11.705 1.034-23.408 2.067-35.11 3.102C.916 31.026 25.088 41.7 19.419 61.09c10.555-5.459 21.552-10.361 32.11-15.82 1.113-3.804.211-7.707-.975-10.84"/><path fill="#933434" d="M6.591 37.832l9.377-5.46c2.113 1.896 3.955 3.966 5.112 6.478-3.277 1.628-6.556 3.258-9.834 4.885a20.265 20.265 0 0 0-.023-4.228c-1.467-.638-3.03-1.185-4.632-1.675"/><path fill="#b0bdc6" d="M58.999 33.36c-3.72-9.825-13.667-17.832-10.178-29.758L8.471 7.167C1.953 29.446 29.735 41.72 23.219 64.001c12.13-6.275 24.771-11.908 36.901-18.18 1.279-4.371.244-8.857-1.12-12.457"/><path fill="#ed4c5c" d="M0 23.02c4.141-1.231 8.282-2.462 12.425-3.692 1.99 2.829 3.614 5.782 4.319 9.05L3.931 31.266a24.038 24.038 0 0 0 1.07-4.956c-1.556-1.169-3.248-2.26-5-3.295"/><path fill="#d9e3e8" d="M10.349 5.03c-5.571 21.346 22.703 31.815 17.13 53.16 11.856-6.435 24.25-12.284 36.1-18.72 1.095-4.188-.13-8.39-1.644-11.74-4.13-9.141-14.406-16.307-11.422-27.733a400228.85 400228.85 0 0 1-40.17 5.03"/><g fill="#7d8b91"><path d="M14.806 12.445c.106.785.255 1.556.443 2.314l30.27-5.956a17.259 17.259 0 0 1-.352-1.831c-10.119 1.825-20.242 3.65-30.363 5.473M17.641 20.876l29.771-7.236a24.959 24.959 0 0 1-.807-1.685l-29.986 6.791a33.21 33.21 0 0 0 1.022 2.13M21.17 26.626c9.658-2.808 19.318-5.615 28.978-8.422a65.347 65.347 0 0 1-1.064-1.602l-29.26 8c.435.679.885 1.353 1.345 2.024M32.03 45.672c.181.762.321 1.536.42 2.324l13.311-6.442a18.872 18.872 0 0 0-.377-2.081L32.03 45.672"/></g></svg>