<svg xmlns="http://www.w3.org/2000/svg" viewBox="0 0 64 64"><path fill="#ffce31" d="M.687 61.83C-.507 63.024-.102 64 1.586 64h59.34a3.079 3.079 0 0 0 3.07-3.069V1.581c0-1.688-.979-2.093-2.171-.899L.685 61.822m49.15-15.07a3.078 3.078 0 0 1-3.069 3.069h-10.96c-1.688 0-2.092-.977-.899-2.17l12.756-12.756c1.194-1.192 2.172-.789 2.172.899v10.958"/><g fill="#89664c"><path d="M2.373 61.33h1.01v2.666h-1.01zM5.347 61.33h1v2.666h-1zM8.323 61.33h1v2.666h-1zM11.296 58.988h1.01v5.01h-1.01zM14.438 61.33h1.01v2.666h-1.01zM17.413 61.33h1.01v2.666h-1.01zM20.388 61.33h1.01v2.666h-1.01zM23.363 58.988h1v5.01h-1zM26.504 61.33h1v2.666h-1zM29.479 61.33h1.01v2.666h-1.01zM32.453 61.33h1.01v2.666h-1.01zM35.43 58.988h1.01v5.01h-1.01zM38.57 61.33h1.01v2.666h-1.01zM41.545 61.33h1.01v2.666h-1.01zM44.521 61.33h1.01v2.666h-1.01zM47.5 58.988h1v5.01h-1zM50.637 61.33h1.01v2.666h-1.01zM53.611 61.33h1.01v2.666h-1.01zM56.59 61.33h1.01v2.666h-1.01zM59.56 58.988h1.01v5.01h-1.01z"/></g></svg>