<svg xmlns="http://www.w3.org/2000/svg" viewBox="0 0 64 64"><path fill="#256382" d="M54.875 39.67l7.253 7.589-32.07 16.11s-4.246 2.056-6.247-1.229c-7.913-12.985 31.07-22.466 31.07-22.466"/><path fill="#d9e3e8" d="M29.24 53.93s-6.142 2.282-5.02 6.597c1.169 4.48 6.05 1.756 6.05 1.756l30.467-15.02s-1.713-4.759 1.381-7.997L29.234 53.933"/><path fill="#42ade2" d="M34.409 8.914l29.16 30.12-34.48 14.29-22.14-36.598z"/><g fill="#94989b"><path d="M60.742 42.587L40.33 51.38l20-9.703zM60.43 45.17l-21.697 9.503L60.01 44.27zM60.63 46.689L32.938 59.36 60.2 45.787z"/></g><path fill="#428bc1" d="M23.809 62.14c-3.362-7.464 5.282-8.817 5.282-8.817L6.951 16.725s-5.04-.146-5.04 5.375c0 2.278.979 3.976.979 3.976l20.918 36.06"/><path fill="#547725" d="M8.694 32.18l-7.253 7.589 32.07 16.11s4.246 2.055 6.247-1.228c7.913-12.986-31.07-22.468-31.07-22.468"/><path fill="#d9e3e8" d="M34.33 46.44s6.142 2.283 5.01 6.598c-1.168 4.481-6.05 1.756-6.05 1.756L2.823 39.774s1.712-4.758-1.381-7.997l32.884 14.667"/><path fill="#83bf4f" d="M29.16 1.424L0 31.542l34.479 14.287L56.61 9.232z"/><g fill="#94989b"><path d="M3.243 34.19l19.997 9.698L2.827 35.1zM3.56 36.776L24.836 47.18 3.14 37.685zM3.369 38.3l27.262 13.568L2.938 39.2z"/></g><path fill="#699635" d="M39.761 54.648c3.362-7.467-5.282-8.819-5.282-8.819l22.13-36.597s5.04-.145 5.04 5.375c0 2.279-.98 3.976-.98 3.976l-20.916 36.07"/><path fill="#962c2c" d="M56.664 25.951l6.119 6.403-27.06 13.59s-3.583 1.734-5.271-1.036c-6.675-10.957 26.21-18.957 26.21-18.957"/><path fill="#d9e3e8" d="M35.04 37.983s-5.183 1.925-4.231 5.566c.985 3.78 5.105 1.481 5.105 1.481L61.62 32.353s-1.445-4.02 1.164-6.747L35.04 37.983"/><path fill="#ed4c5c" d="M39.4 0L64 25.413 34.909 37.468 16.231 6.589z"/><path fill="#fff" d="M40.12 5.804l4.732 5.316-17.682 6.674-4.174-6.774z"/><g fill="#94989b"><path d="M61.65 28.483l-17.26 7.346 16.84-8.255zM61.38 30.666l-18.33 7.943 17.914-8.85zM61.55 31.944L38.16 42.563 61.12 31.04z"/></g><path fill="#c94747" d="M30.452 44.908c-2.837-6.299 4.457-7.44 4.457-7.44L16.231 6.589s-4.255-.123-4.255 4.536c0 1.922.827 3.354.827 3.354l17.649 30.429"/></svg>