<svg xmlns="http://www.w3.org/2000/svg" viewBox="0 0 64 64"><path fill="#256382" d="M54.975 35.15l7.529 7.439-33.29 15.79s-4.407 2.02-6.483-1.204c-8.214-12.73 32.25-22.02 32.25-22.02"/><path fill="#d9e3e8" d="M28.371 49.13s-6.374 2.238-5.205 6.467c1.214 4.393 6.28 1.722 6.28 1.722L61.07 42.591s-1.777-4.664 1.434-7.838L28.374 49.13"/><path fill="#42ade2" d="M33.732 5L64 34.524 28.21 48.53 5.234 12.655z"/><path fill="#fff" d="M34.617 11.742l5.826 6.175-21.75 7.755-5.136-7.867z"/><g fill="#94989b"><path d="M61.05 38.02l-21.177 8.606L60.65 37.1zM60.724 40.559L38.22 49.856l22.1-10.213zM60.932 42.05L32.21 54.45l28.31-13.32z"/></g><path fill="#428bc1" d="M22.729 57.17c-3.491-7.317 5.482-8.644 5.482-8.644L5.234 12.651S0 12.508 0 17.921c0 2.233 1.019 3.897 1.019 3.897l21.71 35.35"/></svg>