<svg xmlns="http://www.w3.org/2000/svg" viewBox="0 0 64 64"><path fill="#b0bdc6" d="M38.09 57.56a6.387 6.387 0 0 1-1.824 1.276l-7.895 3.681a6.364 6.364 0 0 1-4.903.216 6.383 6.383 0 0 1-3.621-3.318l-3.681-7.894a6.435 6.435 0 0 1 1.277-7.248 6.386 6.386 0 0 1 1.826-1.277l7.895-3.681a6.421 6.421 0 0 1 8.524 3.102l3.681 7.895a6.437 6.437 0 0 1-1.279 7.248M20.356 47.186a2.304 2.304 0 0 0-.456 2.593l3.681 7.895c.259.556.719.978 1.296 1.187a2.286 2.286 0 0 0 1.754-.076l7.894-3.682c1.129-.526 1.628-1.937 1.109-3.05l-3.681-7.894a2.3 2.3 0 0 0-3.05-1.111l-7.894 3.684a2.265 2.265 0 0 0-.653.454"/><g fill="#898a90"><path d="M36.18 56.33c-.432.431-.932.78-1.486 1.041l-6.432 2.998a5.194 5.194 0 0 1-3.996.175 5.193 5.193 0 0 1-2.949-2.702l-2.999-6.432a5.243 5.243 0 0 1 1.041-5.905c.431-.431.931-.78 1.489-1.04l6.43-2.999a5.233 5.233 0 0 1 6.945 2.527l2.999 6.433a5.245 5.245 0 0 1-1.042 5.904m-14.448-8.452a1.877 1.877 0 0 0-.373 2.113l3 6.431c.21.453.585.797 1.055.967a1.85 1.85 0 0 0 1.43-.063l6.43-2.999c.92-.429 1.327-1.577.904-2.483l-2.998-6.432a1.871 1.871 0 0 0-2.484-.904l-6.432 2.998a1.9 1.9 0 0 0-.532.372M1.465 53.802s-3.95 2.535 1.125 7.609c5.073 5.076 7.609 1.123 7.609 1.123l-8.734-8.732"/></g><path fill="#b0bdc6" d="M2.893 55.23s-4.203 2.281-.306 6.177c3.895 3.898 6.178-.308 6.178-.307l-5.872-5.87"/><path fill="#ed4c5c" d="M26.794 3.348L1.473 53.628c-1.795 2.768 6.134 10.707 8.901 8.901l50.24-25.296L26.797 3.35"/><path fill="#898a90" d="M62.869 35.22l-1.363 1.364c-3.479 3.479-13.928-1.336-23.341-10.748-9.415-9.414-14.227-19.862-10.749-23.34l1.363-1.363 34.09 34.09"/><path fill="#dfe9ef" d="M61.63 33.976l-3.729 3.729s-7.801.063-19.731-11.869C26.224 13.889 26.302 6.102 26.302 6.102l3.727-3.728L61.63 33.976"/><path fill="#b0bdc6" d="M52.12 11.879c9.412 9.412 14.225 19.862 10.748 23.34-3.479 3.479-13.928-1.335-23.34-10.747C30.112 15.058 25.3 4.61 28.778 1.132c3.479-3.479 13.928 1.333 23.342 10.747"/><path fill="#898a90" d="M39.512 24.455c6.672 6.671 13.861 11.03 18.723 11.764-.76-4.861-5.107-12.02-11.754-18.667-6.672-6.672-13.862-11.03-18.725-11.763.761 4.86 5.109 12.02 11.756 18.666"/><g fill="#fff"><path d="M5.549 55.675c-.508-.493-.905-.779-1.208-.838-.166-.031-.29.006-.371.113-.154.201-.091.604.204 1.188.293.578.838 1.312 1.691 2.161.859.854 1.57 1.364 2.085 1.588.521.224.879.262 1.058.124.177-.137.163-.381-.042-.74-.206-.363-.554-.783-1.031-1.271l-.549.497a36.97 36.97 0 0 1-1.219-1.19l.941-.969a36.214 36.214 0 0 0 4.333 3.785l-.393.271c-.373-.25-.74-.504-1.101-.766.281.392.461.675.533.856.131.318.084.546-.133.692-.35.238-1 .164-1.913-.248-.909-.405-1.936-1.111-3.03-2.2-1.104-1.102-1.834-2.153-2.271-3.104-.44-.966-.511-1.668-.249-2.058.237-.347.623-.356 1.188-.03.575.329 1.208.882 1.918 1.624-.145.172-.294.343-.444.515M13.645 57.39c.497.75.506 1.261.028 1.578-.463.308-1.172.287-2.087-.085-1.129-.434-2.431-1.279-3.819-2.668-1.412-1.421-2.25-2.73-2.657-3.83-.37-.916-.389-1.628-.082-2.092.317-.479.827-.469 1.574.029.929.553 2.12 1.727 3.719 3.336 1.571 1.572 2.739 2.774 3.324 3.732m-1.842-.828c-.407-.595-1.121-1.349-2.078-2.308-.952-.957-1.703-1.672-2.297-2.082-.588-.408-.966-.489-1.161-.232-.189.252-.126.727.208 1.398.333.664.917 1.464 1.808 2.36.893.894 1.69 1.481 2.353 1.815.67.335 1.144.399 1.395.209.257-.194.177-.572-.228-1.16M9.798 43.724c.496.73 1.016 1.442 1.559 2.137-.318.42-.635.84-.953 1.258a39.368 39.368 0 0 0 8.501 7.993l-.905.595a38.929 38.929 0 0 1-8.233-7.75c-.287.377-.577.754-.865 1.131a37.884 37.884 0 0 1-1.403-1.873c.769-1.157 1.535-2.32 2.299-3.491M14.466 41.706c-.658.887-1.317 1.77-1.978 2.65a40.014 40.014 0 0 0 2.151 2.552l1.978-2.188a41.38 41.38 0 0 0 2.072 2.117l-2.142 2.02a40.227 40.227 0 0 0 3.058 2.641c.923-.693 1.849-1.386 2.777-2.076a41.985 41.985 0 0 0 2.538 1.802 482.896 482.896 0 0 0-4.04 2.597 40.12 40.12 0 0 1-10.684-10.709c.839-1.291 1.675-2.59 2.508-3.898a42.87 42.87 0 0 0 1.761 2.492M14.557 36.28l1.01-1.611c4.197 4.972 9.761 9.184 16.384 12.17-.572.35-1.144.701-1.713 1.053a48.322 48.322 0 0 1-3.842-2.037c-.755.566-1.509 1.133-2.26 1.7a41.504 41.504 0 0 0 2.682 2.472c-.451.283-.9.568-1.35.853-4.401-3.828-8.155-8.774-10.907-14.6m7.437 8.957c.479-.427.959-.852 1.439-1.278a44.496 44.496 0 0 1-5.861-4.863 45.184 45.184 0 0 0 4.422 6.141M21.404 25.04a592.961 592.961 0 0 0 1.87-3.181A48.692 48.692 0 0 0 42.13 40.753c-.701.408-1.4.818-2.097 1.229A47.903 47.903 0 0 1 26.77 30.83a43.363 43.363 0 0 1-1.298-1.658 55.424 55.424 0 0 1-1.218-1.703c3.571 6.364 8.338 11.68 13.88 15.635-.642.381-1.281.763-1.919 1.145-6.104-2.935-11.348-6.971-15.463-11.758.248.35.607.843 1.093 1.465.486.623.877 1.096 1.159 1.432a45.703 45.703 0 0 0 11.555 9.861c-.544.328-1.087.657-1.627.986a45.09 45.09 0 0 1-15.15-15.178c.523-.858 1.045-1.721 1.567-2.586 3.516 4.833 8.101 9.05 13.53 12.353-4.688-4.252-8.626-9.598-11.479-15.784M24.942 19.15a484.24 484.24 0 0 0 1.542-2.682 50.865 50.865 0 0 0 4.126 6.535 51.035 51.035 0 0 0 9.302 10.504l-1.076.828a50.222 50.222 0 0 1-9.947-9.04 49.587 49.587 0 0 1-3.947-6.143m15.23 16.973c.756-.533 1.514-1.063 2.273-1.595a51.015 51.015 0 0 0 5.109 3.103c-.86.489-1.716.979-2.569 1.471a49.93 49.93 0 0 1-4.813-2.979"/></g></svg>