<svg xmlns="http://www.w3.org/2000/svg" viewBox="0 0 64 64"><path fill="#89664c" d="M31.999 64l-32-19.211V19.18l32 19.21z"/><path fill="#fed0ac" d="M31.999 38.39V64l32-19.211V19.18z"/><path fill="#d3976e" d="M-.001 19.18l32 19.21 32-19.18-32-19.211z"/><path fill="#89664c" d="M50.947 27.03L18.962 7.813l-5.967 3.576L44.98 30.607z"/><path fill="#d0d0d0" d="M39.32 6.754l-7.07-4.342-5.97 3.576 7.07 4.341z"/><path fill="#d3976e" d="M50.832 27.1l-5.672 3.398v9.213l5.672-3.401z"/><g fill="#fff"><path d="M62.46 22.1l-5.672 3.398v9.212l5.672-3.4zM41.614 43.47l-7.733 4.63v12.569l7.733-4.639z"/></g><path fill="#d3976e" d="M45.16 56.1l5.672-3.407V43.47l-5.672 3.399z"/></svg>