<svg xmlns="http://www.w3.org/2000/svg" viewBox="0 0 64 64"><path fill="#b0bdc6" d="M37.984 64l-8.804-1.217V13.848h8.804z"/><path fill="#7d8b91" d="M44.33 13.848h-6.346v50.15l6.346-6.082z"/><path fill="#333" d="M46.77 0C38.6 0 11.136 9.471 11.136 9.471l24.557 40.4L64 32.842V17.03C64 6.282 57.589 0 46.77 0z"/><path fill="#697277" d="M17.232 8.517C6.356 8.517 0 16.013 0 26.761v17.03l35.693 6.082V29.196c0-10.748-7.586-20.677-18.461-20.677"/><path fill="#ed4c5c" d="M37.23 6.418v29.19l2.735-1.347-.009-18.678 11.274-4.271V1.609z"/><g fill="#333"><path d="M9.728 22.753l2.563.347-.094 10.668-1.66-.223.063-7.218c.002-.207.007-.497.014-.871.008-.373.012-.661.014-.863l-1.694 8.735-1.731-.234-1.524-9.169c-.002.203-.003.491-.002.865 0 .375 0 .666-.002.873l-.065 7.218-1.66-.225.094-10.669 2.592.349 1.479 8.6 1.613-8.183M16.376 23.649l2.02.272 2.922 11.08-1.932-.262-.543-2.269-3.14-.422-.597 2.115-1.863-.252 3.137-10.258m-.175 6.623l2.183.295-1.039-4.344-1.144 4.049M24.02 35.36l-1.77-.24.094-10.668 1.77.238-.094 10.67M25.783 24.918l1.781.24-.076 8.75 4.256.574-.017 1.918-6.04-.813.093-10.669"/></g><path fill="#52595e" d="M19.572 16.435l-4.509 2.08.306-2.979 3.215-1.483c1.207-.557 2.195 1.825.988 2.382"/><path fill="#333" d="M18.448 16.11c.267 2.55-1.493 3.872-3.02 4.03-.898.095-1.634-6.592-1.634-6.592s.85-.457 1.574-.533c1.524-.159 2.877 1.191 3.076 3.094"/><ellipse transform="rotate(-5.957 15.08 16.693)" fill="#52595e" cx="15.07" cy="16.691" rx="2.772" ry="3.465"/><ellipse transform="rotate(-5.957 15.085 16.697)" fill="#697277" cx="15.07" cy="16.691" rx="2.107" ry="2.634"/></svg>