<svg xmlns="http://www.w3.org/2000/svg" viewBox="0 0 64 64"><path fill="#3e4347" d="M6.444 30.89h13.333V62H6.444z"/><g fill="#62727a"><path d="M61.16 41.978c-.233-1.214-1.47-2.199-2.677-2.199H16.618c-1.207 0-2.443.985-2.677 2.199a47.98 47.98 0 0 0 0 17.822c.233 1.215 1.47 2.201 2.677 2.201h41.865c1.207 0 2.443-.986 2.677-2.201a47.98 47.98 0 0 0 0-17.822M56.666 21.949c-.121-1.194-1.222-2.17-2.443-2.17H18.667c-1.223 0-2.322.977-2.444 2.17L14.86 35.334H58l-1.336-13.385"/></g><g fill="#3e4347"><path d="M58 35.33H13.78l-.445 4.448h45.12zM33.569 53.11H17.098c-.973 0-1.765-.832-1.765-1.853V43.85c0-1.021.792-1.852 1.765-1.852H33.57c.972 0 1.764.83 1.764 1.852v7.407c-.001 1.021-.793 1.853-1.765 1.853m-16.471-9.877c-.324 0-.588.277-.588.617v7.407c0 .341.264.617.588.617H33.57c.324 0 .588-.276.588-.617V43.85c0-.34-.264-.617-.588-.617H17.098"/></g><path fill="#c7e755" d="M27.556 46.44c0 .611-.5 1.111-1.111 1.111h-7.777c-.611 0-1.111-.5-1.111-1.111v-1.11c0-.61.5-1.111 1.111-1.111h7.777c.611 0 1.111.501 1.111 1.111v1.11"/><g fill="#3e4347"><path d="M33.11 47c0 .305-.25.555-.556.555h-3.333a.557.557 0 0 1-.556-.555v-1.111c0-.306.249-.556.556-.556h3.333c.306 0 .556.25.556.556V47M55.22 43.667c0 .306-.25.556-.556.556h-3.333a.557.557 0 0 1-.556-.556v-1.111c0-.305.249-.555.556-.555h3.333c.306 0 .556.25.556.555v1.111M22 50.33c0 .306-.25.556-.556.556h-3.333a.557.557 0 0 1-.556-.556v-1.111c0-.306.249-.556.556-.556h3.333c.306 0 .556.25.556.556v1.111M33.11 50.33c0 .306-.25.556-.556.556h-3.333a.557.557 0 0 1-.556-.556v-1.111c0-.306.249-.556.556-.556h3.333c.306 0 .556.25.556.556v1.111M27.556 50.33c0 .306-.25.556-.556.556h-3.333a.557.557 0 0 1-.556-.556v-1.111c0-.306.249-.556.556-.556H27c.306 0 .556.25.556.556v1.111"/></g><g fill="#b2c1c0"><circle cx="32" cy="57.56" r="2.223"/><path d="M59.667 53.11a2.22 2.22 0 1 0-4.386-.491c-.22.48-.586.49-1.17.49a3.332 3.332 0 1 0 3.333 3.332c0-.58.009-.939.48-1.166.149-.032.293-.082.431-.145l.012-.003h-.002a2.22 2.22 0 0 0 1.302-2.02"/></g><circle fill="#258399" cx="54.11" cy="56.44" r="2.223"/><g fill="#3e4347"><circle cx="57.45" cy="53.11" r="1.111"/><circle cx="53" cy="47.556" r="1.111"/><path d="M56 39.778l-1.556-15.566C54.322 22.996 53.222 22 52 22H20.889c-1.222 0-2.322.995-2.443 2.211l-1.557 15.566H56z"/></g><path fill="#f5f5f5" d="M19.777 2h33.33v33.33h-33.33z"/><path fill="#a4b3b2" d="M27.516 39.778l.628-6.193c.091-.886.933-1.635 1.838-1.635h12.926c.905 0 1.747.749 1.838 1.635l.629 6.193h1.07l-.64-6.301c-.146-1.427-1.445-2.588-2.897-2.588H29.981c-1.451 0-2.751 1.161-2.896 2.588l-.641 6.301h1.072"/><path fill="#62727a" d="M8.712 28.968a8.72 8.72 0 0 0-4.535 0c-1.254.341-2.227 1.998-2.175 3.282.3 8.326.325 16.651.078 24.979-.097 2.528 1.838 4.745 4.364 4.772 2.526-.027 4.461-2.244 4.364-4.772a378.95 378.95 0 0 1 .078-24.979c.052-1.284-.921-2.941-2.174-3.282"/><g fill="#a4b3b2"><path d="M22 6.445h28.889v2.222H22zM22 10.889h28.889v2.223H22zM22 15.334h28.889v2.222H22zM22 22h28.889v2.222H22zM22 26.445h14.444v2.222H22z"/></g><g fill="#3e4347"><circle cx="17.556" cy="57.56" r="1.111"/><circle cx="22" cy="57.56" r="1.111"/><circle cx="26.444" cy="57.56" r="1.111"/><circle cx="38.524" cy="56.618" r="1.111"/><circle cx="42.969" cy="56.618" r="1.111"/><circle cx="47.41" cy="56.618" r="1.111"/><circle cx="38.524" cy="52.52" r="1.111"/><circle cx="42.969" cy="52.52" r="1.111"/><circle cx="47.41" cy="52.52" r="1.111"/><circle cx="38.524" cy="48.43" r="1.111"/><circle cx="42.969" cy="48.43" r="1.111"/><circle cx="47.41" cy="48.43" r="1.111"/><circle cx="38.524" cy="44.34" r="1.111"/><circle cx="42.969" cy="44.34" r="1.111"/><circle cx="47.41" cy="44.34" r="1.111"/></g></svg>