<svg xmlns="http://www.w3.org/2000/svg" viewBox="0 0 64 64"><path fill="#94989b" d="M28.412 51.568h-8.853L17.521 64h12.926z"/><path fill="#d0d0d0" d="M22.4 51.568l-7.538-8.75-3.353 21.18h12.929z"/><g fill="#42ade2"><path d="M38.744 8.695c2.786 2.312 5.704 4.968 8.627 7.89s5.578 5.841 7.89 8.627c-.31-3.132-2.417-7.125-5.905-10.612-3.488-3.487-7.48-5.595-10.612-5.905M63.955 26.602c-.5-5.04-3.895-11.474-9.511-17.09C48.829 3.896 42.394.502 37.354 0c4.487 3.724 9.187 8 13.895 12.706 4.708 4.709 8.983 9.409 12.706 13.896"/></g><path fill="#d0d0d0" d="M63.23 59.18c-9.537 9.539-30.357 4.184-46.5-11.959C.59 31.081-4.768 10.256 4.77.721l58.46 58.46"/><ellipse transform="rotate(45.001 33.84 30.106)" fill="#94989b" cx="33.847" cy="30.11" rx="41.34" ry="9.224"/><path fill="#d0d0d0" d="M32.938 33.467c-.644.688-1.75.699-2.448 0-.701-.7-.69-1.806-.001-2.449l13.264-11.952 1.137 1.137-11.952 13.264"/><circle fill="#333" cx="43.09" cy="20.871" r="3.861"/></svg>