<svg xmlns="http://www.w3.org/2000/svg" viewBox="0 0 64 64"><g fill="#b0bdc6"><path d="M12.286 53.604L27.69 32.826 17.201 13.834c-.576.946-1.023 2.213-1.19 3.569l-4.03 32.715c-.167 1.347-.037 2.579.303 3.486M63.1 5.177l-22.15 27.08 15.594 26.35c.953-1.067 1.672-2.648 1.898-4.482L63.93 9.576c.228-1.846-.116-3.399-.825-4.396"/></g><path fill="#cad5dd" d="M32.537 42.11l-4.847-9.286-15.404 20.779c.315.832.807 1.396 1.425 1.473l39.849 4.903c1.064.133 2.117-.404 2.984-1.376L40.95 32.253l-8.413 9.857"/><path fill="#dfe9ef" d="M60.45 4.052l-41.465 8.199c-.636.128-1.265.727-1.785 1.583l10.49 18.991 4.847 9.286 8.413-9.857L63.1 5.174c-.636-.89-1.559-1.339-2.655-1.125"/><g fill="#79d3f7"><path d="M9.187 44.951a1.344 1.344 0 0 1 1.326 1.523l-.711 6.098a1.466 1.466 0 0 1-1.659 1.285l-6.367-.877a1.5 1.5 0 0 1-1.277-1.69l.708-5.02c.115-.817.884-1.471 1.708-1.452l6.272.137M11.258 29.699c.822-.07 1.412.543 1.312 1.362l-.836 6.794c-.101.819-.858 1.489-1.683 1.489H1.5c-.825 0-1.396-.667-1.27-1.482l.906-5.845c.126-.815.902-1.539 1.725-1.609l8.397-.709M13.426 13.436c.812-.148 1.393.401 1.292 1.22l-.844 6.857c-.101.819-.854 1.562-1.674 1.651L1.607 24.321c-.82.089-1.38-.503-1.245-1.317l.986-5.938c.135-.813.91-1.6 1.722-1.748l10.356-1.882"/></g></svg>