<svg xmlns="http://www.w3.org/2000/svg" viewBox="0 0 64 64"><g fill="#b0bdc6"><path d="M.603 48.697L19.12 29.405 4.863 8.938c-.683.894-1.186 2.126-1.329 3.482L.041 45.129c-.143 1.345.085 2.61.562 3.568M62.692 5.457L35.918 30.356l21.1 28.517c1.155-.971 1.989-2.492 2.186-4.325l4.755-44.538c.196-1.847-.316-3.461-1.266-4.553"/></g><path fill="#cad5dd" d="M25.732 39.38l-6.613-9.976L.603 48.696c.44.883 1.093 1.51 1.88 1.659l50.813 9.569c1.357.257 2.669-.168 3.722-1.053l-21.1-28.516-10.186 9.02"/><path fill="#dfe9ef" d="M59.27 4.01L7.06 7.541c-.802.056-1.57.59-2.189 1.398l14.256 20.467 6.613 9.976 10.186-9.02L62.699 5.463c-.851-.977-2.045-1.539-3.426-1.448"/><path fill="#428bc1" d="M35.18 23.613l.614-5.125-17.543-.092-2.872 23.874 17.06 4.07.618-5.12-12.774-2.493.671-5.577 12.854 1.827.616-5.126-12.918-1.279.671-5.572z"/></svg>