<svg xmlns="http://www.w3.org/2000/svg" viewBox="0 0 64 64"><path fill="#c94747" d="M56.66.016V0H9.727v.015C9.683.014 9.643 0 9.599 0c-4.712 0-9.6 6.954-9.6 26v37.997h4.267v-5.996h38.4v5.996h4.268l3.072-1.449V56.56l6.655-3.119v3.947h4.267L64 55.939V19.998C64 9.055 61.293.177 56.661.013"/><path fill="#ed4c5c" d="M9.727 0h46.934v32H9.727z"/><path fill="#881a0e" d="M56.66 50.753h4.267v6.638H56.66z"/><g fill="#ed4c5c"><path d="M17.07 20L0 26C0 6.95 4.888 0 9.6 0s7.466 8.955 7.466 20"/><path d="M17.07 50L0 58V26l17.07-6z"/></g><g fill="#c94747"><path d="M63.999 50l-17.07 8V26l17.07-6z"/><path d="M50.01 62.55L46.933 64v-6l3.077-1.45zM63.999 55.941l-3.072 1.449v-6l3.072-1.45z"/></g><path fill="#ed4c5c" d="M-.001 26v38h4.267v-6h38.4v6h4.268V26z"/><path fill="#c94747" d="M42.665 32.911c0-2.2-1.919-4-4.266-4H8.532c-2.347 0-4.267 1.8-4.267 4v18.18c0 2.2 1.92 4 4.267 4h29.867c2.347 0 4.266-1.8 4.266-4v-18.18"/><path fill="#ed4c5c" d="M41.45 34.2c0-2.2-1.92-4-4.267-4H9.75c-2.347 0-4.267 1.8-4.267 4v15.615c0 2.2 1.92 4 4.267 4h27.434c2.347 0 4.267-1.8 4.267-4V34.2z"/><g fill="#fff"><path d="M14.599 37.684h2.77v8.638h-1.793v-5.843c0-.168.002-.402.006-.705.004-.303.006-.537.006-.701l-1.746 7.249h-1.871l-1.733-7.249c0 .164.002.398.006.701.004.303.006.537.006.705v5.843H8.456v-8.638h2.801l1.677 6.791 1.665-6.791M21.784 37.684h2.178l3.26 8.638h-2.088l-.607-1.776h-3.393l-.625 1.776h-2.01l3.288-8.638m-.127 5.373h2.359l-1.164-3.398-1.195 3.398M30.15 46.32h-1.912v-8.638h1.912v8.638M31.95 37.684h1.925v7.085h4.601v1.553H31.95v-8.638"/></g><path fill="#881a0e" d="M43.665 19.11H18.361L5.903 22.491h37.762z"/><path fill="#af2b2b" d="M12.911 3.511h39.538v15.6H12.911z"/><path fill="#ed4c5c" d="M59.732 20l-17.07 6c0-19.05 4.889-26 9.601-26s7.466 8.955 7.466 20"/><g fill="#c94747"><path d="M18.361 19.11L5.903 22.49c0-13.904 3.567-18.98 7.01-18.98 3.44 0 5.45 7.536 5.45 15.6M63.999 20l-17.07 6c0-19.05 4.886-26 9.599-26s7.467 8.955 7.467 20"/></g></svg>