<svg xmlns="http://www.w3.org/2000/svg" viewBox="0 0 64 64"><g fill="#b0bdc6"><path d="M.603 52.56L19.12 33.032 4.863 12.313c-.683.905-1.186 2.152-1.329 3.525L.041 48.948c-.143 1.362.085 2.643.562 3.612M62.692 8.787l-26.774 25.2 21.1 28.867c1.155-.983 1.989-2.522 2.186-4.378l4.755-45.09c.196-1.87-.316-3.503-1.266-4.609"/></g><path fill="#cad5dd" d="M25.732 43.13l-6.613-10.1L.603 52.559c.44.895 1.093 1.529 1.88 1.68l50.813 9.688c1.357.26 2.669-.17 3.722-1.065l-21.1-28.869-10.186 9.136"/><path fill="#dfe9ef" d="M59.27 7.322L7.06 10.896c-.802.056-1.57.598-2.189 1.416L19.127 33.03l6.613 10.1 10.186-9.136 26.773-25.21c-.851-.989-2.045-1.557-3.426-1.465"/><path fill="#ed4c5c" d="M27.12 32.573L15.391 15.07l4.888-.06.359-14.306L35.728 0l-.382 15.312 8.354.166z"/></svg>