<svg xmlns="http://www.w3.org/2000/svg" viewBox="0 0 64 64"><path fill="#b0bdc6" d="M37.984 64l-8.804-1.217V13.848h8.804z"/><path fill="#7d8b91" d="M44.33 13.848h-6.346v50.15l6.346-6.082z"/><path fill="#697277" d="M17.232 8.517c-1.918 0-3.688.245-5.315.688C4.32 11.274 0 17.909 0 26.761v17.03l35.692 6.082V29.196c0-10.748-7.585-20.677-18.46-20.677"/><path fill="#94989b" d="M35.692 49.871L0 43.789 35.692 27.45z"/><g fill="#b0bdc6"><path d="M43.963 34.609l-11.324-8.396 5.607-11.893c.434.404.803 1 .998 1.693l4.695 16.692c.194.686.187 1.363.024 1.904M7.883 17.605l16.11 10.582-8.454 16.68c-.686-.402-1.253-1.121-1.517-2.057L7.628 20.083c-.265-.943-.141-1.827.256-2.478"/></g><path fill="#cad5dd" d="M30.08 31.981l2.558-5.768 11.324 8.396c-.152.496-.436.881-.831 1.027l-25.566 9.449c-.683.254-1.402.148-2.027-.219l8.454-16.68 6.088 3.795"/><path fill="#dfe9ef" d="M9.537 16.55l27.45-2.764c.421-.042.867.168 1.26.534L32.64 26.213l-2.558 5.768-6.089-3.794-16.11-10.582c.357-.583.928-.98 1.654-1.055"/><path fill="#333" d="M46.77 0c-7.357 0-30.345 7.675-34.853 9.205a20.153 20.153 0 0 1 5.315-.688c10.875 0 18.46 9.929 18.46 20.677v20.677L64 32.842V17.03C64 6.282 57.588 0 46.77 0z"/><path fill="#ed4c5c" d="M37.23 6.418v29.19l2.734-1.347-.009-18.678 11.275-4.271V1.609z"/></svg>