<svg xmlns="http://www.w3.org/2000/svg" viewBox="0 0 64 64"><path fill="#89664c" d="M24.894 39.03v12.33L0 64V47.47z"/><path fill="#b77e58" d="M24.894 39.03h39.11v12.331h-39.11z"/><path fill="#f2bc97" d="M24.894 51.36L0 64h53.47L64 51.36z"/><path fill="#d3976e" d="M35.412 47.47s-.333 6.953-1.735 8.263c-2.738 2.555-11.149 2.555-13.887 0-1.403-1.31-1.736-8.263-1.736-8.263H.004v16.527h53.47V47.47h-18.05"/><path fill="#89664c" d="M64 51.36L53.47 64V47.47L64 39.03z"/><path fill="#881a0e" d="M37.934 0l2.413 5.528s-9.118 5.268-10.958 17.512c-1.693 11.27 2.55 19.05 2.55 19.05l1.25.779s-1.429-8.896 3.534-16.833c2.993-4.786 7.06-7.856 8.529-8.795l2.05 4.739 1.503 1.503L60 4.037l-1.503-1.503L37.934.002"/><path fill="#ed4c5c" d="M33.19 42.867s-.124-6.981 4.02-15.374c3.401-6.89 9.06-9.679 9.06-9.679l2.536 5.667L60.001 4.035 39.438 1.502l2.412 5.529s-9.117 5.267-10.957 17.512c-1.694 11.27 2.296 18.324 2.296 18.324"/></svg>