<svg xmlns="http://www.w3.org/2000/svg" viewBox="0 0 64 64"><path fill="#89664c" d="M24.894 39.03v12.33L0 64V47.47z"/><path fill="#b77e58" d="M24.894 39.03h39.11v12.331h-39.11z"/><path fill="#f2bc97" d="M24.894 51.36L0 64h53.47L64 51.36z"/><path fill="#d3976e" d="M35.412 47.47s-.333 6.953-1.735 8.263c-2.738 2.555-11.149 2.555-13.887 0-1.403-1.31-1.736-8.263-1.736-8.263H.004v16.527h53.47V47.47h-18.05"/><path fill="#89664c" d="M64 51.36L53.47 64V47.47L64 39.03z"/><path fill="#5b7f38" d="M48.479 34l-5.615-2.203s2.723-10.172-4.635-20.131C31.457 2.5 22.957 0 22.957 0l-1.436.333s7.301 5.28 9.404 14.401c1.268 5.501.561 10.551.188 12.25l-4.801-1.901h-2.125l5.834 21.667h2.125L48.479 34z"/><path fill="#83bf4f" d="M21.521.333s5.02 4.849 8.03 13.714c2.467 7.276.438 13.25.438 13.25l-5.801-2.214 5.834 21.667L46.355 34l-5.615-2.203s2.723-10.172-4.635-20.13C29.333 2.501 21.522.334 21.522.334"/></svg>