<svg xmlns="http://www.w3.org/2000/svg" viewBox="0 0 64 64"><circle fill="#f2b200" cx="32" cy="32" r="30"/><g fill="#fff"><path d="M32 37c-2.757 0-5-2.243-5-5s2.243-5 5-5 5 2.243 5 5-2.243 5-5 5m0-8.571c-1.97 0-3.571 1.603-3.571 3.571S30.03 35.571 32 35.571s3.571-1.603 3.571-3.571S33.97 28.429 32 28.429M39.455 37v-4.285H46V31.29h-6.545v-2.861H46V27h-8v10zM48.45 37v-4.285H55V31.29h-6.55v-2.861H55V27h-8v10z"/><path d="M42.4 39.75v6.75H21.6v-32h20.8v9.75H45V14.5c0-2.762-2.328-5-5.2-5H24.2c-2.87 0-5.2 2.238-5.2 5v35c0 2.762 2.33 5 5.2 5h15.6c2.872 0 5.2-2.238 5.2-5v-9.75h-2.6M32 51.983c-.861 0-1.561-.672-1.561-1.5s.699-1.5 1.561-1.5c.863 0 1.561.672 1.561 1.5s-.698 1.5-1.561 1.5"/></g></svg>