<svg xmlns="http://www.w3.org/2000/svg" viewBox="0 0 64 64"><g fill="#212528"><path d="M22.922 26.04a1.896 1.896 0 0 1-1.896 1.896h-8.412a1.897 1.897 0 0 1-1.896-1.896v-2.364c0-1.046.85-1.895 1.896-1.895h8.412c1.047 0 1.896.849 1.896 1.895v2.364M56.975 25.881c0 .559-.453 1.012-1.012 1.012h-4.494a1.012 1.012 0 0 1-1.012-1.012v-1.263c0-.559.453-1.012 1.012-1.012h4.494c.559 0 1.012.453 1.012 1.012v1.263M59.873 55.887a4.738 4.738 0 0 1-4.738 4.738H8.865a4.738 4.738 0 0 1-4.738-4.738v-1.421h55.747v1.421z"/></g><path fill="#51575b" d="M4.126 29.591a4.738 4.738 0 0 1 4.738-4.738h46.27a4.738 4.738 0 0 1 4.738 4.738v1.421H4.126v-1.421"/><path fill="#3e4347" d="M4.126 30.775h55.747v24.636H4.126z"/><path fill="#51575b" d="M51.736 28.796H23.793l2.803-15.286c.236-.854 1.398-2.237 2.094-2.548 4.26-1.905 13.89-1.905 18.15 0 .695.311 1.857 1.694 2.094 2.548l2.802 15.286"/><path fill="#3e4347" d="M50.38 37.838H25.15l2.53-12.745c.214-.711 1.263-1.864 1.892-2.124 3.845-1.588 12.541-1.588 16.384 0 .629.26 1.678 1.413 1.893 2.124l2.529 12.745"/><path fill="#788287" d="M56.928 44.838c0 10.588-8.582 19.16-19.16 19.16-10.584 0-19.17-8.574-19.17-19.16 0-10.582 8.581-19.16 19.17-19.16 10.578 0 19.16 8.582 19.16 19.16"/><path fill="#212528" d="M54.799 44.835c0 9.411-7.629 17.03-17.03 17.03-9.408 0-17.04-7.623-17.04-17.03 0-9.406 7.629-17.03 17.04-17.03 9.402 0 17.03 7.628 17.03 17.03"/><circle fill="#3e4347" cx="37.767" cy="44.835" r="13.84"/><circle fill="#212528" cx="37.767" cy="44.836" r="7.452"/><g fill="#f5f5f5"><path opacity=".5" d="M47.947 38.93a4.287 4.287 0 1 1-8.574 0 4.287 4.287 0 0 1 8.574 0"/><circle opacity=".5" cx="35.1" cy="47.5" r="2.662"/><circle opacity=".5" cx="30.32" cy="52.29" r="1.648"/></g><path fill="#636c72" d="M17.192 51.54a1.894 1.894 0 0 1-1.895 1.895h-8.05a1.895 1.895 0 0 1-1.895-1.895V34.642c0-1.047.849-1.896 1.895-1.896h8.05c1.047 0 1.895.849 1.895 1.896V51.54z"/><circle fill="#212528" cx="12.931" cy="28.25" r="2.764"/><path fill="#fff" d="M46.04 17.423c0 .962-.779 1.742-1.742 1.742h-13.06c-.963 0-1.742-.78-1.742-1.742v-1.792c0-.962.779-1.742 1.742-1.742h13.06c.963 0 1.742.78 1.742 1.742v1.792"/><g fill="#ffce31"><path d="M42.523 15.16L54.52 7.266l-2.2-2.831zM56.53 18.869v-3.414L44.2 17.827zM45.13 0h-4.132l-2.199 14.453zM33.631 15.16L23.37 4.435l-2.3 2.831zM33.883 0h-4.186l6.869 14.453zM18.71 15.455v3.414l12.855-1.042z"/></g></svg>