<svg xmlns="http://www.w3.org/2000/svg" viewBox="0 0 64 64"><circle fill="#ed4c5c" cx="32" cy="32" r="30"/><circle fill="#333" cx="32" cy="32" r="24"/><path fill="#fff" d="M37.767 14.996H26.234c-2.123 0-3.844 1.691-3.844 3.778v26.449c0 2.088 1.721 3.779 3.844 3.779h11.532c2.124 0 3.845-1.691 3.845-3.779V18.774c0-2.086-1.72-3.778-3.844-3.778m-7.647 1.379h3.761c.266 0 .48.212.48.473s-.215.472-.48.472H30.12c-.266 0-.481-.211-.481-.472s.215-.473.481-.473M32 47.102a1.144 1.144 0 0 1-1.152-1.135c0-.625.516-1.133 1.152-1.133.639 0 1.154.508 1.154 1.133 0 .626-.515 1.135-1.154 1.135m7.689-4.145H24.313v-24.18H39.69v24.18"/><path fill="#ed4c5c" d="M50.515 54.753L9.24 13.479l4.242-4.241L54.757 50.51z"/></svg>