<svg xmlns="http://www.w3.org/2000/svg" viewBox="0 0 64 64"><path fill="#5c6d6d" d="M50 4.129C50 2.064 47.867 0 45.732 0H18.267C16.134 0 14 2.064 14.001 4.129L14 59.871C14 61.936 16.134 64 18.267 64h27.466C47.867 64 50 61.936 50 59.871V4.129z"/><path fill="#212528" d="M49 59c0 2-2 4-4 4H19c-2 0-4-2-4-4l.001-54C15 3 17 1 19 1h26c2 0 4 2 4 4v54z"/><g fill="#94989b"><circle cx="43.5" cy="4.499" r="1"/><path d="M35 4.533c0 .277-.133.501-.299.501h-5.402c-.164 0-.299-.223-.299-.501 0-.275.135-.499.299-.499h5.402c.166 0 .299.224.299.499"/></g><path fill="#3e4347" d="M17 8h30v48H17z"/><path fill="#94989b" d="M35.75 60.25A.75.75 0 0 1 35 61h-6a.75.75 0 0 1-.75-.75v-1.5A.75.75 0 0 1 29 58h6a.75.75 0 0 1 .75.75v1.5"/><path fill="#42ade2" d="M24 14.667c0 .46-.373.833-.834.833h-3.333a.833.833 0 0 1-.833-.833v-3.333c0-.461.373-.834.833-.834h3.333c.461 0 .834.373.834.834v3.333"/><path fill="#c7e755" d="M31 14.667c0 .46-.373.833-.834.833h-3.333a.833.833 0 0 1-.833-.833v-3.333c0-.461.373-.834.833-.834h3.333c.461 0 .834.373.834.834v3.333"/><path fill="#f2b200" d="M38 14.667c0 .46-.373.833-.834.833h-3.333a.833.833 0 0 1-.833-.833v-3.333c0-.461.373-.834.833-.834h3.333c.461 0 .834.373.834.834v3.333"/><path fill="#42ade2" d="M45 14.667c0 .46-.373.833-.834.833h-3.333a.833.833 0 0 1-.833-.833v-3.333c0-.461.373-.834.833-.834h3.333c.461 0 .834.373.834.834v3.333"/><path fill="#c7e755" d="M24 53.17c0 .46-.373.833-.834.833h-3.333A.833.833 0 0 1 19 53.17v-3.333c0-.461.373-.834.833-.834h3.333c.461 0 .834.373.834.834v3.333"/><path fill="#ff435e" d="M31 53.17c0 .46-.373.833-.834.833h-3.333A.833.833 0 0 1 26 53.17v-3.333c0-.461.373-.834.833-.834h3.333c.461 0 .834.373.834.834v3.333"/><path fill="#42ade2" d="M38 53.17c0 .46-.373.833-.834.833h-3.333A.833.833 0 0 1 33 53.17v-3.333c0-.461.373-.834.833-.834h3.333c.461 0 .834.373.834.834v3.333"/><path fill="#c28fef" d="M45 53.17c0 .46-.373.833-.834.833h-3.333A.833.833 0 0 1 40 53.17v-3.333c0-.461.373-.834.833-.834h3.333c.461 0 .834.373.834.834v3.333"/><path fill="#c7e755" d="M24 33.917c0 .46-.373.833-.834.833h-3.333a.833.833 0 0 1-.833-.833v-3.333c0-.461.373-.834.833-.834h3.333c.461 0 .834.373.834.834v3.333"/><path fill="#c28fef" d="M31 33.917c0 .46-.373.833-.834.833h-3.333a.833.833 0 0 1-.833-.833v-3.333c0-.461.373-.834.833-.834h3.333c.461 0 .834.373.834.834v3.333"/><path fill="#42ade2" d="M38 33.917c0 .46-.373.833-.834.833h-3.333a.833.833 0 0 1-.833-.833v-3.333c0-.461.373-.834.833-.834h3.333c.461 0 .834.373.834.834v3.333"/><path fill="#ff435e" d="M24 27.5a.833.833 0 0 1-.834.834h-3.333A.833.833 0 0 1 19 27.5v-3.333c0-.46.373-.833.833-.833h3.333c.461 0 .834.373.834.833V27.5"/><path fill="#f2b200" d="M31 27.5a.833.833 0 0 1-.834.834h-3.333A.833.833 0 0 1 26 27.5v-3.333c0-.46.373-.833.833-.833h3.333c.461 0 .834.373.834.833V27.5"/><path fill="#c7e755" d="M38 27.5a.833.833 0 0 1-.834.834h-3.333A.833.833 0 0 1 33 27.5v-3.333c0-.46.373-.833.833-.833h3.333c.461 0 .834.373.834.833V27.5"/><path fill="#f2b200" d="M45 27.5a.833.833 0 0 1-.834.834h-3.333A.833.833 0 0 1 40 27.5v-3.333c0-.46.373-.833.833-.833h3.333c.461 0 .834.373.834.833V27.5"/><path fill="#c28fef" d="M24 21.08a.833.833 0 0 1-.834.834h-3.333A.833.833 0 0 1 19 21.08v-3.333c0-.46.373-.833.833-.833h3.333c.461 0 .834.373.834.833v3.333"/><path fill="#42ade2" d="M31 21.08a.833.833 0 0 1-.834.834h-3.333A.833.833 0 0 1 26 21.08v-3.333c0-.46.373-.833.833-.833h3.333c.461 0 .834.373.834.833v3.333"/><path fill="#ff435e" d="M38 21.08a.833.833 0 0 1-.834.834h-3.333A.833.833 0 0 1 33 21.08v-3.333c0-.46.373-.833.833-.833h3.333c.461 0 .834.373.834.833v3.333"/><path fill="#c28fef" d="M45 21.08a.833.833 0 0 1-.834.834h-3.333A.833.833 0 0 1 40 21.08v-3.333c0-.46.373-.833.833-.833h3.333c.461 0 .834.373.834.833v3.333"/></svg>