<svg xmlns="http://www.w3.org/2000/svg" viewBox="0 0 64 64"><path fill="#3e4347" d="M2 13.999v9c0 .55.45 1 1 1h58c.55 0 1-.45 1-1v-9H2"/><path fill="#62727a" d="M60 23.999v-6H4v6H2v24.01c0 1.094.9 1.99 2 1.99h56c1.1 0 2-.896 2-1.99v-24.01h-2"/><path fill="#b2c1c0" d="M53 23.999H11c-2.21 0-4 4.03-4 9 0 4.971 1.79 9 4 9h42c2.21 0 4-4.03 4-9 0-4.971-1.79-9-4-9"/><path fill="#e8e8e8" d="M52.959 25.999H11c-.521.177-2 2.605-2 7s1.479 6.819 2.041 7h41.932c.572-.217 2.027-2.643 2.027-7 0-4.395-1.479-6.819-2.041-7"/><g fill="#3e4347"><circle cx="42" cy="32.999" r="7"/><path d="M30.485 39.999a10.955 10.955 0 0 0 2.515-7c0-2.659-.943-5.098-2.515-7H13.514a10.955 10.955 0 0 0-2.515 7c0 2.66.943 5.098 2.515 7h16.971"/></g><circle fill="#fff" cx="42" cy="32.999" r="5"/><g fill="#b2c1c0"><path d="M44.656 36.601l-.499-.865a3.503 3.503 0 0 0 1.292-2.236h1a4.498 4.498 0 0 1-1.793 3.101M44.656 29.397a4.5 4.5 0 0 1 1.793 3.102h-1a3.5 3.5 0 0 0-1.292-2.236l.499-.866"/></g><circle fill="#fff" cx="22" cy="32.999" r="5"/><g fill="#b2c1c0"><path d="M19.343 36.601l.499-.865A3.503 3.503 0 0 1 18.55 33.5h-1a4.505 4.505 0 0 0 1.793 3.101M19.343 29.397a4.5 4.5 0 0 0-1.793 3.102h1a3.5 3.5 0 0 1 1.292-2.236l-.499-.866M22 23.999h20v18H22z"/></g><path fill="#42ade2" d="M38 25.999H26c-1.1 0-2 .9-2 2v2h16v-2c0-1.1-.9-2-2-2"/><path fill="#fff" d="M24 29.999v8c0 1.1.9 2 2 2h12c1.1 0 2-.9 2-2v-8H24"/><g fill="#b2c1c0"><path d="M26 31.999h12v2H26zM26 35.999h12v2H26z"/></g><g fill="#62727a"><path d="M22 30.999a2 2 0 0 0 0 4v-4M42 30.999a2 2 0 0 1 0 4v-4"/></g><g fill="#b2c1c0"><path d="M22 28.499c-.643 0-1.245.146-1.796.39l.499.864A3.47 3.47 0 0 1 22 29.499v-1M22 36.499a3.47 3.47 0 0 1-1.297-.254l-.499.863a4.413 4.413 0 0 0 1.796.391v-1M42 28.499v1c.46 0 .896.093 1.297.254l.499-.864a4.412 4.412 0 0 0-1.796-.39M43.3 36.24a3.47 3.47 0 0 1-1.297.254v1c.643 0 1.245-.146 1.796-.391l-.499-.863"/></g><path fill="#3e4347" d="M49.984 25.999l-1.964 7.879.69 1.121 2.31-9z"/></svg>