<svg xmlns="http://www.w3.org/2000/svg" viewBox="0 0 64 64"><path fill="#7a8084" d="M31.08 54.02L15.712 10.252s36.69-8.865 36.69 9.988v28.13c0 .803-1 1.814-1.814 1.814L31.08 54.022"/><path fill="#94989b" d="M6.579 54.02c-.814 0-1.814-1.012-1.814-1.814v-28.13c0-18.854 28.13-18.854 28.13 0v28.13c0 .803-1 1.814-1.814 1.814h-24.5"/><path fill="#ed4c5c" d="M26.15 44.37a1.814 1.814 0 1 0 0 3.627 1.814 1.814 0 0 0 0-3.627"/><path fill="#7a8084" d="M11.09 55.833a.884.884 0 0 1-.882-.885v-1.859c0-.488.396-.886.882-.886h15.476c.486 0 .883.397.883.886v1.859a.885.885 0 0 1-.883.885H11.09"/><path fill="#3e4347" d="M31.421 24.871c0 7.808-5.934 15.327-16.616 15.327-7.805 0-8.958-17.771-8.958-25.579 0 0 4.359-3.88 11.444-3.88 7.802 0 14.13 6.328 14.13 14.13"/><circle fill="#788287" cx="14.13" cy="26.07" r="14.13"/><path fill="#212528" d="M26.693 26.06c0 6.941-5.625 12.562-12.56 12.562-6.938 0-12.563-5.621-12.563-12.562 0-6.936 5.625-12.561 12.563-12.561 6.935 0 12.56 5.625 12.56 12.561"/><circle fill="#3e4347" cx="14.13" cy="26.06" r="10.206"/><circle fill="#212528" cx="14.13" cy="26.07" r="5.496"/><g fill="#f5f5f5"><path opacity=".5" d="M21.64 21.709a3.162 3.162 0 1 1-6.324 0 3.162 3.162 0 0 1 6.324 0"/><circle opacity=".5" cx="12.169" cy="28.03" r="1.963"/><circle opacity=".5" cx="8.637" cy="31.562" r="1.215"/></g><g fill="#3e4347"><path d="M51.23 20.351c0 1.458-.803 2.861-1.921 3.171-1.29.358-2.493-.842-2.493-2.734s1.203-3.33 2.493-3.228c1.119.089 1.921 1.334 1.921 2.791M45.3 23.06c0 .613-.729 1.281-1.701 1.508-1.063.248-1.999-.117-1.999-.837s.937-1.425 1.999-1.562c.971-.125 1.701.278 1.701.891M45.17 19.919c0 .613-.729 1.281-1.701 1.508-1.063.249-2-.116-2-.836s.937-1.425 2-1.562c.972-.125 1.701.278 1.701.89M36.763 28.04l14.727-4.124v9.769z"/></g><g fill="#94989b"><path d="M37.671 52.54c-.492 0-.893-.383-.893-.855V27.99c0-.473.4-.856.893-.856h21.17c6.88 0 6.88 25.407 0 25.407h-21.17z"/><path d="M34.06 31.667c0-.454.365-.822.814-.822h1.092c.451 0 .816.368.816.822v16.417a.819.819 0 0 1-.816.823h-1.092a.819.819 0 0 1-.814-.823V31.667"/></g><path fill="#42ade2" d="M38.593 28.946h20.87v21.777h-20.87z"/></svg>