<svg xmlns="http://www.w3.org/2000/svg" viewBox="0 0 64 64"><circle fill="#f2b200" cx="32" cy="32" r="30"/><g fill="#fff"><path d="M38.442 13H25.558c-2.373 0-4.297 1.89-4.297 4.222v29.555c0 2.332 1.924 4.223 4.297 4.223h12.885c2.374 0 4.297-1.891 4.297-4.223V17.222C42.739 14.89 40.816 13 38.442 13m-8.544 1.541h4.203c.296 0 .537.237.537.528a.533.533 0 0 1-.537.528h-4.203a.533.533 0 0 1-.537-.528c0-.291.241-.528.537-.528M32 48.871a1.278 1.278 0 0 1-1.289-1.267c0-.698.577-1.266 1.289-1.266.713 0 1.29.567 1.29 1.266 0 .7-.577 1.267-1.29 1.267m8.591-4.63h-17.18v-27.02h17.18v27.02M10.838 21.312c1.518 3.457 1.897 7.104 1.967 10.694-.047 3.582-.449 7.234-1.967 10.682-.298-3.549-.135-7.139-.111-10.691-.024-3.554-.161-7.136.111-10.685M14.647 15.969c1.84 5.246 2.343 10.659 2.431 16.04-.089 5.373-.585 10.783-2.431 16.02.014-5.244.326-10.488.351-15.734.025-5.443-.319-10.883-.351-16.328M53.16 42.688c-1.518-3.457-1.897-7.104-1.967-10.691.047-3.584.449-7.236 1.967-10.683.298 3.548.135 7.138.111 10.693.024 3.55.161 7.132-.111 10.681M49.35 48.03c-1.84-5.246-2.343-10.66-2.431-16.04.089-5.375.585-10.785 2.431-16.03-.014 5.245-.326 10.489-.351 15.734-.025 5.445.319 10.885.351 16.328"/></g></svg>