<svg xmlns="http://www.w3.org/2000/svg" viewBox="0 0 64 64"><path fill="#5c6d6d" d="M64 4.129C64 2.064 61.867 0 59.734 0H32.267C30.134 0 28 2.064 28.001 4.129L28 59.871C28 61.936 30.134 64 32.267 64h27.467C61.867 64 64 61.936 64 59.871V4.129z"/><path fill="#212528" d="M63 59c-.002 2-2 4-4 4H33c-2 0-4-2-4-4l.002-54C29 3 31 1 33 1h26c2 0 4 2 4 4l.002 54"/><g fill="#94989b"><circle cx="57.5" cy="4.499" r="1"/><path d="M49 4.533c0 .277-.133.501-.299.501h-5.402c-.164 0-.299-.223-.299-.501 0-.275.135-.499.299-.499h5.402c.166 0 .299.224.299.499"/></g><path fill="#3e4347" d="M31 8h30v48H31z"/><path fill="#94989b" d="M49.75 60.25A.75.75 0 0 1 49 61h-6a.75.75 0 0 1-.75-.75v-1.5A.75.75 0 0 1 43 58h6a.75.75 0 0 1 .75.75v1.5"/><path fill="#42ade2" d="M38 14.667c0 .46-.373.833-.834.833h-3.332a.833.833 0 0 1-.834-.833v-3.333c0-.461.374-.834.834-.834h3.332c.461 0 .834.373.834.834v3.333"/><path fill="#c7e755" d="M45 14.667c0 .46-.373.833-.834.833h-3.332a.833.833 0 0 1-.834-.833v-3.333c0-.461.373-.834.834-.834h3.332c.461 0 .834.373.834.834v3.333"/><path fill="#f2b200" d="M52 14.667c0 .46-.373.833-.834.833h-3.332a.833.833 0 0 1-.834-.833v-3.333c0-.461.373-.834.834-.834h3.332c.461 0 .834.373.834.834v3.333"/><path fill="#42ade2" d="M59 14.667c0 .46-.373.833-.834.833h-3.332a.833.833 0 0 1-.834-.833v-3.333c0-.461.373-.834.834-.834h3.332c.461 0 .834.373.834.834v3.333"/><path fill="#c7e755" d="M38 53.17c0 .46-.373.833-.834.833h-3.332A.833.833 0 0 1 33 53.17v-3.333c0-.461.373-.834.834-.834h3.332c.461 0 .834.373.834.834v3.333"/><path fill="#ff435e" d="M45 53.17c0 .46-.373.833-.834.833h-3.332A.833.833 0 0 1 40 53.17v-3.333c0-.461.373-.834.834-.834h3.332c.461 0 .834.373.834.834v3.333"/><path fill="#42ade2" d="M52 53.17c0 .46-.373.833-.834.833h-3.332A.833.833 0 0 1 47 53.17v-3.333c0-.461.373-.834.834-.834h3.332c.461 0 .834.373.834.834v3.333"/><path fill="#c28fef" d="M59 53.17c0 .46-.373.833-.834.833h-3.332A.833.833 0 0 1 54 53.17v-3.333c0-.461.373-.834.834-.834h3.332c.461 0 .834.373.834.834v3.333"/><path fill="#c7e755" d="M38 33.917c0 .46-.373.833-.834.833h-3.332a.833.833 0 0 1-.834-.833v-3.333c0-.461.374-.834.834-.834h3.332c.461 0 .834.373.834.834v3.333"/><path fill="#c28fef" d="M45 33.917c0 .46-.373.833-.834.833h-3.332a.833.833 0 0 1-.834-.833v-3.333c0-.461.373-.834.834-.834h3.332c.461 0 .834.373.834.834v3.333"/><path fill="#42ade2" d="M52 33.917c0 .46-.373.833-.834.833h-3.332a.833.833 0 0 1-.834-.833v-3.333c0-.461.373-.834.834-.834h3.332c.461 0 .834.373.834.834v3.333"/><path fill="#ff435e" d="M38 27.5a.833.833 0 0 1-.834.834h-3.332A.833.833 0 0 1 33 27.5v-3.333c0-.46.374-.833.834-.833h3.332c.461 0 .834.373.834.833V27.5"/><path fill="#f2b200" d="M45 27.5a.833.833 0 0 1-.834.834h-3.332A.833.833 0 0 1 40 27.5v-3.333c0-.46.373-.833.834-.833h3.332c.461 0 .834.373.834.833V27.5"/><path fill="#c7e755" d="M52 27.5a.833.833 0 0 1-.834.834h-3.332A.833.833 0 0 1 47 27.5v-3.333c0-.46.373-.833.834-.833h3.332c.461 0 .834.373.834.833V27.5"/><path fill="#f2b200" d="M59 27.5a.833.833 0 0 1-.834.834h-3.332A.833.833 0 0 1 54 27.5v-3.333c0-.46.373-.833.834-.833h3.332c.461 0 .834.373.834.833V27.5"/><path fill="#c28fef" d="M38 21.08a.833.833 0 0 1-.834.834h-3.332A.833.833 0 0 1 33 21.08v-3.333c0-.46.374-.833.834-.833h3.332c.461 0 .834.373.834.833v3.333"/><path fill="#42ade2" d="M45 21.08a.833.833 0 0 1-.834.834h-3.332A.833.833 0 0 1 40 21.08v-3.333c0-.46.373-.833.834-.833h3.332c.461 0 .834.373.834.833v3.333"/><path fill="#ff435e" d="M52 21.08a.833.833 0 0 1-.834.834h-3.332A.833.833 0 0 1 47 21.08v-3.333c0-.46.373-.833.834-.833h3.332c.461 0 .834.373.834.833v3.333"/><path fill="#c28fef" d="M59 21.08a.833.833 0 0 1-.834.834h-3.332A.833.833 0 0 1 54 21.08v-3.333c0-.46.373-.833.834-.833h3.332c.461 0 .834.373.834.833v3.333"/><path fill="#f2b200" d="M36 32L16.93 12.93v9.01H.001v20.12H16.93v9.01z"/></svg>