<svg xmlns="http://www.w3.org/2000/svg" viewBox="0 0 64 64"><g fill="#3e4347"><path d="M17 61.999H5.75c0-2.589 2.519-4.688 5.625-4.688S17 59.41 17 61.999zM58.25 61.999H47c0-2.589 2.519-4.688 5.625-4.688s5.625 2.099 5.625 4.688zM18.63 3.736l.663-.662L35.196 18.99l-.663.662z"/><circle cx="18.957" cy="3.406" r="1.406"/><path d="M29.465 19.648l-.662-.662 15.91-15.91.662.662z"/><circle cx="45.04" cy="3.406" r="1.406"/><ellipse cx="32" cy="15.13" rx="7.969" ry="4.688"/></g><path fill="#c28fef" d="M59.1 57.14c-5.166 6.564-47.45 6.387-53.674 0-4.573-4.693-4.572-32.47 0-37.16 6.221-6.386 48.51-6.564 53.674 0 3.86 4.904 3.863 32.25 0 37.16"/><g fill="#3e4347"><path d="M49.52 52.683c-3.876 4.99-35.589 4.856-40.26 0-3.431-3.566-3.43-24.675 0-28.24 4.666-4.853 36.38-4.989 40.26 0 2.895 3.727 2.897 24.514 0 28.24"/><circle cx="56.38" cy="29.19" r="2.813"/><circle cx="56.38" cy="37.624" r="2.813"/></g></svg>