<svg xmlns="http://www.w3.org/2000/svg" viewBox="0 0 64 64" xmlns:xlink="http://www.w3.org/1999/xlink"><path fill="#42ade2" d="M44.648 32c0 5.04-3.207 9.346-7.688 10.982l2.916 2.915c5.1-2.548 8.611-7.818 8.611-13.897 0-6.099-3.533-11.383-8.66-13.922l-2.922 2.92c4.511 1.623 7.743 5.94 7.743 11"/><path fill="#8b979e" d="M11.128 44.999H3.783C1.694 44.999 0 43.416 0 41.462V22.537C0 20.583 1.694 19 3.783 19h7.346v25.999z" id="a"/><use xlink:href="#a"/><path fill="#b0bdc6" d="M29.836 2.247C31.143.941 11.128 19 11.128 19v26S21.4 52.855 29.836 61.753V2.247z"/><g fill="#333"><path d="M33 25.454v13.09c3.863 0 6.996-2.932 6.996-6.545 0-3.617-3.133-6.547-6.996-6.547M33 62.52c0 .817-.709 1.481-1.584 1.481-.874 0-1.583-.664-1.583-1.481V1.48c-.001-.818.708-1.481 1.582-1.481.875 0 1.584.663 1.584 1.481v61.04"/></g><path fill="#8b979e" d="M11.128 40.18H3.783C1.694 40.18 0 39.183 0 37.953V26.039c0-1.23 1.693-2.227 3.782-2.227h7.346V40.18"/><path fill="#b0bdc6" d="M11.128 40.18H3.783C1.694 40.18 0 39.183 0 37.953V26.039c0-1.23 1.693-2.227 3.782-2.227h7.346V40.18"/><path fill="#dfe9ef" d="M29.836 13.269L11.128 23.816V40.19l18.708 10.54z"/><path fill="#8b979e" d="M29.836 13.269h3.167V50.73h-3.167z"/><path fill="#333" d="M3.783 19h7.346v25.999H3.783z"/></svg>