<svg xmlns="http://www.w3.org/2000/svg" viewBox="0 0 64 64"><g fill="#94989b"><path d="M40 63.02l-6.809-9.283c-.273.014-.549.021-.828.021-5.978 0-10.841-3.828-10.841-8.535v-20.73h8.517L15.019 4.004-.001 24.492h8.514v20.73c0 5.02 2.482 9.73 6.986 13.279 4.506 3.55 10.493 5.503 16.863 5.503 2.637 0 5.208-.334 7.637-.984M31.671 10.235c5.97 0 10.829 3.823 10.829 8.524v20.775h-8.506l15 20.466 15-20.465h-8.506V18.76c0-5.01-2.479-9.721-6.978-13.264C44.009 1.952 38.027 0 31.665 0c-2.65 0-5.232.341-7.671.993l6.796 9.266c.29-.016.581-.024.875-.024"/></g></svg>