<svg xmlns="http://www.w3.org/2000/svg" viewBox="0 0 64 64"><path fill="#b0bdc6" d="M39.465 43.52l4.05-4.05 3.106 3.107-4.05 4.05z"/><path fill="#dfe9ef" d="M40.437 42.544l2.108-2.11 3.106 3.105-2.108 2.11z"/><path fill="#b0bdc6" d="M39.462 43.517l4.05-4.05 1.286 1.287-4.05 4.05z"/><circle fill="#dfe9ef" cx="24.703" cy="24.703" r="24.703"/><circle fill="#b0bdc6" cx="24.703" cy="24.703" r="22.23"/><circle fill="#fff" cx="24.703" cy="24.703" r="20.586"/><path fill="#dfe9ef" d="M36.34 29.631c-6.952 6.951-18.219 6.951-25.17.002a17.656 17.656 0 0 1-4.04-6.271c-.473 5.09 1.235 10.343 5.132 14.239 6.949 6.947 18.217 6.947 25.17 0 5.11-5.111 6.449-12.553 4.04-18.897a17.722 17.722 0 0 1-5.132 10.927"/><path fill="#333" d="M40.362 47.758l7.404-7.404L62.442 55.03l-7.404 7.404z"/><path fill="#575b5e" d="M42.035 46.086l4.048-4.05 14.682 14.673-4.049 4.05z"/><path fill="#b0bdc6" d="M63.894 54.33c1.219 1.219-8.339 10.777-9.559 9.559l-.749-.75c-1.218-1.219 8.341-10.777 9.558-9.558l.75.749"/><path fill="#dfe9ef" d="M62.3 55.923c1.22 1.22-5.158 7.599-6.378 6.378l-.749-.748c-1.22-1.219 5.159-7.597 6.378-6.379l.749.749"/></svg>