<svg xmlns="http://www.w3.org/2000/svg" viewBox="0 0 64 64"><g fill="#ffce31"><path d="M32 47.41c-2.079 0-4.098-.408-6-1.212a15.348 15.348 0 0 1-4.899-3.304 15.351 15.351 0 0 1-3.303-4.899c-.805-1.901-1.213-3.92-1.213-6s.408-4.1 1.213-6a15.361 15.361 0 0 1 3.303-4.9A15.354 15.354 0 0 1 26 17.793a15.328 15.328 0 0 1 6-1.212 15.356 15.356 0 0 1 10.897 4.514 15.405 15.405 0 0 1 3.305 4.9c.805 1.901 1.211 3.921 1.211 6s-.406 4.099-1.211 6a15.373 15.373 0 0 1-3.305 4.899A15.39 15.39 0 0 1 38 46.198a15.324 15.324 0 0 1-6 1.212m0-26.427c-6.071 0-11.01 4.939-11.01 11.01s4.939 11.01 11.01 11.01 11.01-4.94 11.01-11.01c0-6.072-4.94-11.01-11.01-11.01M29.798 51.775h4.404V64h-4.404zM29.798 0h4.404v12.224h-4.404zM47.548 44.427l8.643 8.688-3.122 3.107-8.644-8.688zM10.93 7.816l8.643 8.643-3.113 3.113-8.643-8.643zM16.466 44.427l3.112 3.114-8.647 8.639-3.111-3.114zM53.06 7.73l3.128 3.097-8.644 8.73-3.129-3.097zM51.774 29.797H64v4.404H51.774zM0 29.797h12.226v4.404H0z"/></g></svg>