<svg xmlns="http://www.w3.org/2000/svg" viewBox="0 0 64 64"><circle fill="#42ade2" cx="32" cy="32" r="30"/><g fill="#fff"><path d="M49.45 29l-5.265 3.065c.009.122.015.246.015.372 0 2.688-2.17 4.878-4.838 4.878H27.614v-3.832l-11.609 6.758L27.614 47v-3.832h11.748c2.843 0 5.515-1.117 7.526-3.143a10.706 10.706 0 0 0 3.116-7.588A10.774 10.774 0 0 0 49.45 29M19.802 31.548c0-2.687 2.166-4.873 4.831-4.873h11.771v3.828l11.598-6.751L36.403 17v3.828h-11.77a10.514 10.514 0 0 0-7.518 3.14 10.686 10.686 0 0 0-3.114 7.58c0 1.192.191 2.354.563 3.452l5.252-3.059a5.123 5.123 0 0 1-.014-.393"/></g></svg>