<svg xmlns="http://www.w3.org/2000/svg" viewBox="0 0 64 64"><g fill="#3e4347"><path d="M42 7c0 1.1-.9 2-2 2H24c-1.1 0-2-.9-2-2V4c0-1.1.9-2 2-2h16c1.1 0 2 .9 2 2v3"/><path d="M48 6H16c-2.201 0-4 1.8-4 4v48c0 2.201 1.799 4 4 4h32c2.199 0 4-1.799 4-4V10c0-2.2-1.801-4-4-4m1 48c0 .543-.459 1-1 1H16c-.543 0-1-.457-1-1V14c0-.542.457-1 1-1h32c.541 0 1 .458 1 1v40"/></g><g fill="#a8d600"><path d="M46 23c0 1.1-.9 2-2 2H20c-1.1 0-2-.9-2-2v-4c0-1.1.9-2 2-2h24c1.1 0 2 .9 2 2v4M46 36c0 1.1-.9 2-2 2H20c-1.1 0-2-.9-2-2v-4c0-1.1.9-2 2-2h24c1.1 0 2 .9 2 2v4M46 49c0 1.1-.9 2-2 2H20c-1.1 0-2-.9-2-2v-4c0-1.1.9-2 2-2h24c1.1 0 2 .9 2 2v4"/></g></svg>