<svg xmlns="http://www.w3.org/2000/svg" viewBox="0 0 64 64" xmlns:xlink="http://www.w3.org/1999/xlink"><g fill="#42ade2"><path d="M51.43 7.386l-2.643 2.642C55.748 14.859 60.316 22.906 60.316 32c0 9.08-4.551 17.11-11.488 21.943l2.643 2.642c7.59-5.535 12.531-14.494 12.531-24.586 0-10.11-4.959-19.08-12.572-24.613"/><path d="M52.48 31.999c0 6.926-3.748 12.989-9.318 16.277l2.678 2.68c6.209-4.03 10.326-11.02 10.326-18.957 0-7.954-4.135-14.96-10.367-18.982l-2.682 2.681c5.596 3.282 9.363 9.36 9.363 16.301"/><path d="M44.807 31.999c0 4.84-3.078 8.973-7.381 10.545l2.799 2.798c4.896-2.447 8.27-7.507 8.27-13.343 0-5.853-3.393-10.928-8.314-13.365l-2.805 2.806c4.327 1.557 7.431 5.702 7.431 10.559"/></g><path fill="#8b979e" d="M11.128 44.999H3.783C1.694 44.999 0 43.416 0 41.462V22.537C0 20.583 1.694 19 3.783 19h7.346v25.999z" id="a"/><use xlink:href="#a"/><path fill="#b0bdc6" d="M29.836 2.247C31.142.941 11.128 19 11.128 19v26s10.271 7.855 18.708 16.753V2.247z"/><g fill="#333"><path d="M33 25.454v13.09c3.863 0 6.996-2.932 6.996-6.545 0-3.617-3.133-6.547-6.996-6.547M33 62.52c0 .817-.709 1.481-1.584 1.481-.874 0-1.583-.664-1.583-1.481V1.48c-.001-.818.708-1.481 1.582-1.481.875 0 1.584.663 1.584 1.481v61.04"/></g><path fill="#8b979e" d="M11.128 40.18H3.783C1.694 40.18 0 39.183 0 37.953V26.039c0-1.23 1.693-2.227 3.782-2.227h7.346V40.18"/><path fill="#b0bdc6" d="M11.128 40.18H3.783C1.694 40.18 0 39.183 0 37.953V26.039c0-1.23 1.693-2.227 3.782-2.227h7.346V40.18"/><path fill="#dfe9ef" d="M29.836 13.269L11.128 23.816V40.19l18.708 10.54z"/><path fill="#8b979e" d="M29.836 13.269h3.167V50.73h-3.167z"/><path fill="#333" d="M3.783 19h7.346v25.999H3.783z"/></svg>