<svg xmlns="http://www.w3.org/2000/svg" viewBox="0 0 64 64"><g fill="#ffce31"><path d="M32 46.887a14.845 14.845 0 0 1-10.527-4.36 14.868 14.868 0 0 1-3.189-4.731 14.806 14.806 0 0 1-1.17-5.795c0-2.01.394-3.959 1.17-5.795a14.884 14.884 0 0 1 3.189-4.732 14.865 14.865 0 0 1 4.73-3.189A14.806 14.806 0 0 1 32 17.114c2.01 0 3.957.394 5.793 1.171a14.814 14.814 0 0 1 4.731 3.189 14.837 14.837 0 0 1 4.361 10.527c0 2.01-.395 3.959-1.171 5.795a14.822 14.822 0 0 1-3.19 4.731 14.794 14.794 0 0 1-4.731 3.188A14.783 14.783 0 0 1 32 46.887m0-25.521c-5.863 0-10.633 4.77-10.633 10.634 0 5.863 4.77 10.633 10.633 10.633 5.861 0 10.632-4.77 10.632-10.633 0-5.864-4.771-10.634-10.632-10.634M29.874 51.1h4.254v5.902h-4.254zM29.874 7h4.254v5.902h-4.254zM47.01 44l4.175 4.193-3.015 3.001-4.175-4.193zM15.834 12.783l4.174 4.216-3.023 2.992-4.173-4.216zM16.993 44l3.008 3.007-4.194 4.195-3.008-3.008zM48.164 12.78l3.022 2.993-4.174 4.216-3.023-2.992zM51.1 29.873h5.903v4.253H51.1zM7 29.873h5.902v4.253H7z"/></g></svg>