<svg xmlns="http://www.w3.org/2000/svg" viewBox="0 0 64 64"><g fill="#d0d0d0"><path d="M11.727 13.14c0 .633-.529 1.146-1.181 1.146H8.972c-.651 0-1.18-.513-1.18-1.146V1.143c0-.632.528-1.145 1.18-1.145h1.574c.651 0 1.181.513 1.181 1.145V13.14M21.84 13.14c0 .633-.528 1.146-1.182 1.146h-1.572c-.653 0-1.182-.513-1.182-1.146V1.143c0-.632.529-1.145 1.182-1.145h1.572c.653 0 1.182.513 1.182 1.145V13.14"/></g><g fill="#3e4347"><path d="M.001 13.563v4.464c0 .633.528 1.145 1.179 1.145h1.713v4.808c0 4.16 2.265 7.806 5.666 9.843v4.236c0 .632.528 1.145 1.18 1.145h10.153c.653 0 1.182-.513 1.182-1.145v-4.236c3.399-2.037 5.666-5.684 5.666-9.843v-4.808h1.713c.65 0 1.18-.512 1.18-1.145v-4.464c0-.529-.37-.975-.872-1.105H.873a1.15 1.15 0 0 0-.872 1.105"/><path d="M60.07 25.811v38.19h3.935v-38.19c0-1.801-.365-3.551-1.083-5.197a13.313 13.313 0 0 0-2.95-4.244 13.753 13.753 0 0 0-4.378-2.86 14.055 14.055 0 0 0-5.36-1.051c-1.859 0-3.664.354-5.361 1.051a13.732 13.732 0 0 0-4.377 2.86 13.262 13.262 0 0 0-2.952 4.244 12.927 12.927 0 0 0-1.083 5.197v24.838c0 5.258-4.411 9.537-9.837 9.537-5.424 0-9.837-4.279-9.837-9.537V39.203h-3.935v11.445c0 1.802.365 3.55 1.083 5.197a13.286 13.286 0 0 0 2.95 4.244 13.78 13.78 0 0 0 4.377 2.861c1.7.696 3.505 1.049 5.361 1.049 1.858 0 3.664-.353 5.361-1.049a13.769 13.769 0 0 0 4.377-2.861 13.267 13.267 0 0 0 2.952-4.244 12.93 12.93 0 0 0 1.083-5.197V25.811c0-5.258 4.411-9.537 9.837-9.537 5.423-.001 9.837 4.279 9.837 9.537"/></g></svg>