<svg xmlns="http://www.w3.org/2000/svg" viewBox="0 0 64 64"><circle fill="#42ade2" cx="31.999" cy="32" r="30"/><g fill="#fff"><path d="M48.999 39.569L42.62 46v-3.929h-5.608c-1.563 0-4.49-.997-5.697-4.739l-1.572-4.449-1.611-4.564c-.336-1.055-.848-1.24-1.035-1.273h-12.1v-5.05H27.185c1.564 0 4.49.997 5.699 4.74l1.572 4.448 1.611 4.564c.334 1.053.846 1.24 1.035 1.273h5.516v-3.888l6.379 6.432"/><path d="M28.372 35l-.24.68c-.336 1.055-.848 1.24-1.035 1.273h-12.1v5.04H27.185c.92 0 2.309-.351 3.545-1.396a9.767 9.767 0 0 1-1.32-2.658l-1.04-2.944M35.804 28.999l.266-.752c.334-1.053.846-1.24 1.035-1.273h5.516v3.888L49 24.431 42.62 18v3.929h-5.608c-.934 0-2.352.361-3.602 1.446a9.747 9.747 0 0 1 1.377 2.751l1.017 2.873"/></g></svg>