<svg xmlns="http://www.w3.org/2000/svg" viewBox="0 0 64 64"><path fill="#dae1e5" d="M61.19 18.709L45.419 2.819a2.78 2.78 0 0 0-3.943 0l-15.771 15.89a2.832 2.832 0 0 0 0 3.972l3.963 3.992-2.484-2.502a4.233 4.233 0 0 1 .001 5.958L5.497 51.979l-3.494 8.397 1.613 1.625 6.317-.588 24.15-24.331a4.157 4.157 0 0 1 5.913.001l-.772-.779 2.251 2.268a2.779 2.779 0 0 0 3.943 0l15.771-15.89a2.832 2.832 0 0 0 .001-3.973m-7.886 1.986l-1.971 1.986a1.392 1.392 0 0 1-1.972 0l-7.886-7.945a1.416 1.416 0 0 1 0-1.986l1.971-1.986a1.393 1.393 0 0 1 1.973 0l7.885 7.945c.543.546.543 1.44 0 1.986"/><g fill="#c2c8cc"><path d="M15.829 57.46l1.488-1.502.005-1.992-7.391 7.444 4.434-.493 1.458-1.467zM26.18 47.03l1.487-1.5.006-1.992-8.872 8.942h1.972l1.479-1.495h1.968l1.97-1.986zM30.666 31.583c.521-.523.232-.68-.039-.953s-.426-.564-.945-.041L7.922 52.513c-.52.523-.231.68.04.953.271.273.427.563.946.039l21.758-21.922M33.624 34.562c.521-.523.231-.68-.04-.951-.271-.273-.426-.566-.945-.041l-21.76 21.922c-.52.523-.23.68.039.953.271.273.428.564.947.041l21.759-21.924"/></g></svg>