<svg xmlns="http://www.w3.org/2000/svg" viewBox="0 0 64 64"><path fill="#d0d0d0" d="M62 52c0 5.523-4.478 10-10 10H12C6.478 62 2 57.523 2 52V12C2 6.477 6.478 2 12 2h40c5.522 0 10 4.477 10 10v40"/><path fill="#fff" d="M57 45.666A8.333 8.333 0 0 1 48.667 54H15.333A8.333 8.333 0 0 1 7 45.666V12.334A8.333 8.333 0 0 1 15.333 4h33.334A8.333 8.333 0 0 1 57 12.334v33.332z"/><g fill="#9aa0a5"><path d="M26 45h-6.107V21.98c-2.232 2.088-4.863 3.631-7.893 4.631v-5.543c1.594-.521 3.326-1.512 5.195-2.967 1.871-1.457 3.152-3.156 3.85-5.098H26v32M41 13c3.281 0 5.848 1.084 7.695 3.25C50.898 18.814 52 23.066 52 29.012c0 5.928-1.109 10.188-3.328 12.779C46.84 43.93 44.281 45 41 45c-3.297 0-5.955-1.174-7.973-3.516-2.02-2.345-3.03-6.525-3.03-12.537 0-5.9 1.109-10.148 3.328-12.74C35.159 14.068 37.716 13 40.997 13m0 4.979c-.785 0-1.486.232-2.104.695-.615.465-1.094 1.295-1.432 2.492-.447 1.551-.67 4.168-.67 7.846 0 3.676.199 6.201.6 7.576s.906 2.291 1.514 2.746c.609.455 1.307.684 2.092.684s1.486-.23 2.104-.691c.615-.465 1.094-1.295 1.432-2.494.447-1.539.672-4.145.672-7.82 0-3.678-.201-6.203-.602-7.58-.4-1.375-.904-2.293-1.514-2.758a3.363 3.363 0 0 0-2.092-.696"/></g></svg>