<svg xmlns="http://www.w3.org/2000/svg" viewBox="0 0 64 64"><g fill="#94989b"><path d="M64 16L48 0v10H6a6 6 0 0 0 0 12h42v10l16-16zM8 64c-3.308 0-6-2.848-6-6.347h3c0 1.633 1.346 2.964 3 2.964s3-1.331 3-2.964-1.346-2.962-3-2.962c-3.308 0-6-2.845-6-6.346C2 44.848 4.692 42 8 42s6 2.848 6 6.346h-3c0-1.633-1.346-2.963-3-2.963s-3 1.33-3 2.963 1.346 2.963 3 2.963c3.308 0 6 2.846 6 6.345S11.308 64 8 64zM24 64c-3.308 0-6-2.848-6-6.347v-9.308C18 44.848 20.692 42 24 42s6 2.848 6 6.346v9.308C30 61.152 27.308 64 24 64m0-18.617c-1.654 0-3 1.33-3 2.963v9.308c0 1.633 1.346 2.964 3 2.964s3-1.331 3-2.964v-9.308c0-1.633-1.346-2.963-3-2.963M40 64c-3.308 0-6-2.848-6-6.347v-9.308C34 44.848 36.692 42 40 42s6 2.848 6 6.346v9.308C46 61.152 43.308 64 40 64m0-18.617c-1.654 0-3 1.33-3 2.963v9.308c0 1.633 1.346 2.964 3 2.964s3-1.331 3-2.964v-9.308c0-1.633-1.346-2.963-3-2.963M53 49.704L58.848 64H62V42h-3v14.3L53.15 42H50v22h3z"/></g></svg>