<svg xmlns="http://www.w3.org/2000/svg" viewBox="0 0 64 64"><path fill="#d19500" d="M44.45 21.507a1.362 1.362 0 0 1 .277-2.139c6.759-3.934 8.242-7.219 9.551-10.117 1.127-2.495 2.191-4.85 6.166-6.485a1.36 1.36 0 0 1 1.036 2.516c-2.975 1.225-3.669 2.762-4.722 5.089-1.403 3.109-3.15 6.977-10.662 11.349a1.36 1.36 0 0 1-1.646-.213"/><path fill="#ffbf1f" d="M43.726 20.515a1.364 1.364 0 0 1 .135-2.046c6.293-4.792 7.306-8.158 8.2-11.127.772-2.569 1.503-4.996 5.301-7.162a1.36 1.36 0 1 1 1.348 2.364c-2.854 1.627-3.326 3.201-4.04 5.582-.964 3.199-2.161 7.18-9.155 12.508a1.361 1.361 0 0 1-1.786-.119"/><path fill="#ed4c5c" d="M21.416 64l-.013-19.729-19.73-.013 34.24-34.24a4.649 4.649 0 0 1 6.573 0l13.168 13.168a4.648 4.648 0 0 1 0 6.573l-34.24 34.25"/><circle fill="#fff" cx="42.699" cy="22.973" r="4.934"/><g fill="#f2b200"><path d="M49.5 12.94c-1.353-.604-2.344-1-3.583-.588-1.893.634-3.452 2.43-4.635 5.336a1.362 1.362 0 0 0 2.521 1.025c1.083-2.664 2.217-3.526 2.979-3.782.355-.119.447.152.855.228A16.89 16.89 0 0 0 49.5 12.94M53.32 19.755c.379-1.127.127-2.11-.336-3.332 0 0-.777.803-2.144 1.937a2.106 2.106 0 0 1-.101.53c-.254.761-1.117 1.895-3.781 2.978a1.36 1.36 0 1 0 1.026 2.521c2.907-1.182 4.704-2.741 5.336-4.634"/></g></svg>