<svg xmlns="http://www.w3.org/2000/svg" viewBox="0 0 64 64"><g fill="#94989b"><path d="M36.15 41.525c1.19 1.191 1.305 3.03.247 4.087L18.735 63.276c-1.055 1.055-2.896.943-4.087-.248L.974 49.354c-1.192-1.192-1.303-3.03-.248-4.087L18.39 27.604c1.057-1.057 2.896-.945 4.087.247 1.19 1.19 1.305 3.03.248 4.087L8.901 45.763c-1.055 1.055-.945 2.895.247 4.087l5 5c1.192 1.192 3.03 1.302 4.087.247l13.824-13.823c1.056-1.058 2.895-.945 4.087.247M63.03 14.646c1.19 1.19 1.303 3.03.247 4.087L45.614 36.396c-1.056 1.056-2.896.943-4.087-.247-1.192-1.192-1.305-3.03-.248-4.088l13.823-13.825c1.057-1.057.945-2.895-.247-4.087l-5-5c-1.192-1.191-3.03-1.304-4.088-.247L31.944 22.726c-1.055 1.055-2.896.942-4.087-.248-1.192-1.191-1.303-3.03-.247-4.087L45.273.728c1.056-1.056 2.895-.945 4.087.247l13.673 13.674"/><path d="M44.48 19.521c1.192 1.192 1.303 3.03.246 4.085l-21.12 21.12c-1.055 1.055-2.893.946-4.085-.246-1.193-1.192-1.303-3.03-.247-4.087l21.12-21.12c1.057-1.058 2.895-.946 4.087.247"/></g></svg>