<svg xmlns="http://www.w3.org/2000/svg" viewBox="0 0 64 64"><circle fill="#ed4c5c" cx="32" cy="32" r="30"/><circle fill="#333" cx="32" cy="32" r="24"/><g fill="#fff"><path d="M42.01 31.968c-1.75-3.138-1.477-5.893-1.477-7.99 0-4.354-2.51-7.103-6.105-8.196 0-1.449-.824-2.595-2.427-2.595-1.604 0-2.429 1.146-2.429 2.595-3.596 1.093-6.104 3.841-6.104 8.196 0 2.098.272 4.853-1.476 7.99-1.242 2.229-3.93 2.669-3.93 9.09h27.875c.001-6.426-2.686-6.866-3.927-9.1M32.774 42.938a4.383 4.383 0 0 1-8.766 0h8.766"/></g><path fill="#ed4c5c" d="M50.515 54.754L9.242 13.48l4.242-4.242 41.273 41.274z"/></svg>