<svg xmlns="http://www.w3.org/2000/svg" viewBox="0 0 64 64"><path fill="#ffce31" d="M2 28.262v31.432C2 62.072 3.919 64 6.285 64h51.43C60.081 64 62 62.072 62 59.693V28.262H2z"/><path fill="#ff8736" d="M62 23.956c0-2.378-1.919-4.306-4.285-4.306H6.285C3.919 19.65 2 21.578 2 23.956v4.306h60v-4.306z"/><g fill="#3e4347"><ellipse cx="12.367" cy="23.528" rx="5.92" ry="2.503"/><ellipse cx="51.633" cy="23.528" rx="5.92" ry="2.503"/></g><path fill="#dfe9ef" d="M32 0C19.09 0 8.581 10.555 8.581 23.528c0 .784 1.58 1.419 3.786 1.419v-1.419C13.12 12.556 21.637 3.875 32 3.875c10.365 0 18.88 8.681 19.634 19.653v1.419c2.204 0 3.784-.636 3.784-1.419C55.418 10.555 44.911 0 31.999 0"/><path fill="#b0bdc6" d="M51.634 23.528C50.88 12.556 42.365 3.875 32 3.875c-10.363 0-18.88 8.681-19.634 19.653v1.419c2.205 0 4.18-.636 4.18-1.419 0-7.102 5.908-15.525 15.453-15.525 9.547 0 15.455 8.423 15.455 15.525 0 .784 1.973 1.419 4.18 1.419v-1.419"/><path fill="#3e4347" d="M36.609 56.4l-1.913-12.262a4.58 4.58 0 0 0 1.866-3.693c0-2.532-2.044-4.584-4.563-4.584s-4.562 2.052-4.562 4.584c0 1.518.736 2.859 1.866 3.693L27.391 56.4h9.218"/><path fill="#42ade2" d="M43.24 27.335v8.199l2.34 2.204v3.753l-2.34 2.204v4.971l2.34 2.204v3.751l-2.34 2.205v3.423L47.93 64l4.689-3.751V27.335c5.465-1.933 9.379-7.141 9.379-13.266 0-7.77-6.298-14.07-14.07-14.07-7.77 0-14.07 6.299-14.07 14.07-.001 6.125 3.915 11.333 9.378 13.266m9.333-17.909a4.644 4.644 0 1 1-9.288 0 4.644 4.644 0 0 1 9.288 0"/></svg>