<svg xmlns="http://www.w3.org/2000/svg" viewBox="0 0 64 64"><g fill="#94989b"><path d="M32 0L16 16h10v10a6 6 0 0 0 12 0V16h10L32 0zM32 64c-3.308 0-6-2.848-6-6.347v-9.308C26 44.848 28.692 42 32 42s6 2.848 6 6.346v9.308C38 61.152 35.308 64 32 64m0-18.617c-1.654 0-3 1.33-3 2.963v9.308c0 1.633 1.346 2.964 3 2.964s3-1.331 3-2.964v-9.308c0-1.633-1.346-2.963-3-2.963M22 42H10v3h4.5v19h3V45H22zM48 42h-6v22h3v-9.309h3c3.308 0 6-2.848 6-6.347S51.308 42 48 42m0 9.309h-3v-5.926h3c1.654 0 3 1.329 3 2.962s-1.346 2.964-3 2.964"/></g></svg>