<svg xmlns="http://www.w3.org/2000/svg" viewBox="0 0 64 64"><ellipse fill="#ab8165" cx="32" cy="53.809" rx="26" ry="8.191"/><path fill="#725944" d="M57.818 52.853c-.002 3.488-11.56 6.314-25.818 6.314-14.258 0-25.816-2.826-25.818-6.314a2.751 2.751 0 0 0-.182.956C6 58.333 17.641 62 32 62c14.36 0 26-3.667 26-8.191 0-.324-.065-.641-.182-.956"/><ellipse fill="#ab8165" cx="32" cy="49.34" rx="21.937" ry="6.913"/><path fill="#725944" d="M53.785 48.531c-.002 2.944-9.755 5.327-21.785 5.327s-21.783-2.384-21.785-5.327a2.307 2.307 0 0 0-.152.806c0 3.818 9.822 6.913 21.937 6.913s21.936-3.095 21.936-6.913a2.283 2.283 0 0 0-.151-.806"/><ellipse fill="#ab8165" cx="32" cy="44.866" rx="17.875" ry="5.632"/><path fill="#725944" d="M49.75 44.21c0 2.398-7.947 4.341-17.75 4.341s-17.75-1.942-17.75-4.341a1.89 1.89 0 0 0-.125.657c0 3.11 8 5.632 17.875 5.632 9.872 0 17.875-2.521 17.875-5.632a1.89 1.89 0 0 0-.125-.657"/><ellipse fill="#9d6bd1" cx="32" cy="24.23" rx="22.958" ry="22.24"/><g fill="#fff"><path d="M22.829 2.12c0 6.375-3.417 12.08-8.236 12.08 4.819 0 8.236 5.705 8.236 12.08 0-6.375 3.418-12.08 8.237-12.08-4.818 0-8.237-5.704-8.237-12.08M18.02 24.03c0 3.455-1.853 6.545-4.462 6.545 2.609 0 4.462 3.089 4.462 6.543 0-3.454 1.852-6.543 4.462-6.543-2.611 0-4.462-3.091-4.462-6.545M29.776 19.223c0 2.996-1.605 5.675-3.87 5.675 2.265 0 3.87 2.68 3.87 5.675 0-2.995 1.605-5.675 3.87-5.675-2.264 0-3.87-2.68-3.87-5.675"/></g></svg>