<svg xmlns="http://www.w3.org/2000/svg" viewBox="0 0 64 64"><g fill="#94989b"><path d="M24.646 54.32a8275.439 8275.439 0 0 0-4.795-4.789c-6.094-6.088-2.166-10.355-2.166-10.355l-4.583-4.578s-7.605 8.783 1.068 17.445l6.378 6.37 4.098-4.093M33.664 43.984h7.198c4.828-10.917-1.59-24.591-1.729-24.867l-5.767 2.916c.03.055 4.723 13.667.298 21.951"/></g><g fill="#333"><path d="M44.583 46.974l-.007-.021c-1.478-4.68-5.865-8.08-11.06-8.113-5.189.037-9.58 3.434-11.06 8.113l-.006.021-5.228 15.03h32.584l-5.228-15.03M19.18 27.06L43.753 6.177l6.337 7.353-24.579 20.877z"/></g><g fill="#94989b"><path d="M24.347 33.06l-4.01-4.657-1.914 2.475 3.17 3.676zM51.38 10.09l-4.01-4.653-2.456 2.088 4.01 4.656z"/></g><path fill="#333" d="M52.54 11.441l-6.33-7.354L48.669 2 55 9.352z"/><g fill="#d0d0d0"><path d="M43.34 25.806c-1.187 3.352-4.885 5.102-8.261 3.911-3.378-1.192-5.153-4.874-3.968-8.225 1.185-3.349 4.881-5.103 8.26-3.91 3.376 1.19 5.152 4.876 3.969 8.224"/><ellipse cx="33.52" cy="50.42" rx="6.484" ry="6.434"/></g><g fill="#333"><path d="M36.15 26.687c1.688.594 3.54-.284 4.133-1.959.594-1.675-.298-3.516-1.985-4.112-1.688-.595-3.538.279-4.132 1.955-.591 1.674.297 3.518 1.984 4.116"/><ellipse cx="33.521" cy="50.42" rx="3.244" ry="3.218"/><path d="M10.138 30.546L21.656 42.05l-1.137 1.14L9 31.684z"/></g><path fill="#29abe2" d="M11.274 29.409l11.518 11.503-1.138 1.14-11.518-11.504z"/></svg>