<svg xmlns="http://www.w3.org/2000/svg" viewBox="0 0 64 64"><path fill="#d6dfe3" d="M30.556 24.272s24 21.852 31.444 37.726c0 0-20.09.633-43.28-22.467 0 0 7.645-8.097 6.145-9.59l5.692-5.669"/><path fill="#aebabf" d="M20.927 37.04c-1.205 1.423-2.208 2.487-2.208 2.487 23.19 23.1 43.28 22.467 43.28 22.467-.469-1-1.01-2.026-1.596-3.067-6.677-.891-22.19-4.815-39.477-21.887"/><path fill="#333" d="M30.81 23.514L9.211 2 2.249 8.934s-.493.47-.092.87c.896.894 1.546.545 2.354.724 1.107.246 2.362 1.494 2.362 1.494l17.989 17.92 5.945-5.922a.353.353 0 0 0 .003-.506"/><path fill="#d0d0d0" d="M9.104 8.07a.88.88 0 0 1-1.241-.001.87.87 0 0 1 0-1.235.88.88 0 0 1 1.241-.001.873.873 0 0 1 0 1.237"/></svg>