<svg xmlns="http://www.w3.org/2000/svg" viewBox="0 0 64 64"><circle fill="#42ade2" cx="32" cy="32" r="30"/><g fill="#fff"><path d="M14 14h16v4H14zM14 22v4h6v4h4v-4h6v-4zM49.52 18.986c-.322-.488-.736-.882-1.195-1.231-.131-.1-.197-.146-.33-.239l-.267-.213a8.688 8.688 0 0 1-.482-.438c-.597-.595-.972-1.214-1.146-1.746a2.799 2.799 0 0 1-.15-1.118h-3.234l-2.067 10.808a7.365 7.365 0 0 0-2-.27c-2.568 0-4.648 1.223-4.648 2.731 0 1.507 2.08 2.73 4.648 2.73 2.425 0 4.414-1.091 4.627-2.484l1.916-10.02c.262.213.541.415.838.6.23.142.469.275.713.401l.371.181c.08.041.235.118.311.163.38.209.754.475 1.025.773.274.3.453.644.502 1.02.053.376-.023.779-.179 1.159-.315.767-.885 1.426-1.4 1.948a13.27 13.27 0 0 1-1.375 1.188c-.356.268-.573.406-.573.406s.238-.109.639-.328c.398-.22.964-.55 1.591-1.013.62-.468 1.331-1.06 1.86-1.905.259-.423.46-.925.483-1.48.029-.555-.154-1.137-.476-1.621M27.659 46.529l1.321-1.123-1.955-2.212-1.401 1.255-2.704-2.762c1.654-.606 2.82-2.031 2.82-3.688 0-2.205-2.066-4-4.604-4s-4.604 1.795-4.604 4c0 .902.35 1.732.934 2.404-1.494.974-2.466 2.52-2.466 4.265C15 47.607 17.752 50 21.137 50c1.623 0 3.17-.566 4.306-1.535L26.928 50h.012L29 47.902l-1.341-1.373M19.599 38c0-.735.688-1.333 1.535-1.333s1.536.598 1.536 1.333c0 .736-.689 1.334-1.536 1.334s-1.535-.598-1.535-1.334m1.535 9.334c-1.692 0-3.068-1.195-3.068-2.666 0-.971.602-1.819 1.494-2.285l3.891 4.02c-.579.578-1.423.926-2.317.926M50 34h-4L34 50h4zM38 42c-2.206 0-4-1.794-4-4s1.794-4 4-4 4 1.794 4 4-1.794 4-4 4m0-6c-1.103 0-2 .897-2 2s.897 2 2 2 2-.897 2-2-.897-2-2-2"/><path d="M46 50c-2.206 0-4-1.793-4-4 0-2.206 1.794-4 4-4s4 1.794 4 4c0 2.207-1.794 4-4 4m0-6c-1.103 0-2 .898-2 2 0 1.104.897 2 2 2s2-.896 2-2c0-1.102-.897-2-2-2"/></g></svg>