<svg xmlns="http://www.w3.org/2000/svg" viewBox="0 0 64 64"><g fill="#333"><path d="M16.764 62h1.818l.938-2.219h-1.917zM44.488 59.781L45.42 62h1.81l-.83-2.219z"/></g><g fill="#cad5dd"><path d="M35.602 30.18l-7.156.062-10.843 29.541h1.917l11.426-27.878a4.364 4.364 0 0 0 2.17-.015l11.373 27.893H46.4L35.602 30.18"/><path d="M33.553 24.287h-3.03l.693 35.494h1.646z"/></g><g fill="#333"><path d="M31.22 59.781L31.26 62h1.565l.041-2.219z"/><ellipse cx="31.999" cy="27.625" rx="5.143" ry="5.137"/></g><circle fill="#fff" cx="31.999" cy="27.625" r="3.789"/><g fill="#333"><path d="M26.15 5.47a.598.598 0 0 0-.801.424l-1.278 5.148a.653.653 0 0 0 .5.799l10.09 2.15a.71.71 0 0 0 .827-.516l.877-3.533a.776.776 0 0 0-.473-.892l-9.737-3.58M26 18.71a.768.768 0 0 0-1.029.546l-1.644 6.621a.84.84 0 0 0 .643 1.028l12.97 2.766a.91.91 0 0 0 1.063-.664l1.128-4.544a.997.997 0 0 0-.607-1.146L26 18.71"/></g><path fill="#dfe9ef" d="M43.09 16.335l-2.78 11.201 18.624 4.474 2.366-9.507z"/><path fill="#333" d="M57.5 16.942a.958.958 0 0 0-1.137.702l-1.098 4.475a.989.989 0 0 1-1.141.726l-3.166-.632a1.09 1.09 0 0 0-1.215.706l-.48 1.444a.83.83 0 0 0 .62 1.092l6.571 1.458a.948.948 0 0 0 1.125-.71l1.803-7.874a.936.936 0 0 0-.706-1.12l-1.176-.267"/><path fill="#dfe9ef" d="M11.07 2.887l-4.724 19.02 33.582 7.16 3.542-14.268z"/><g fill="#333"><path d="M43.47 14.802l-2.164-.795c1.218.352 1.371 3.99.393 7.929-.979 3.94-2.799 7.01-4.02 6.655l2.244.479c1.218.351 2.996-2.557 3.975-6.497.978-3.941.785-7.419-.432-7.771M11.07 2.887l-2.937-.848c-1.623-.469-3.996 3.408-5.301 8.66-1.305 5.254-1.047 9.892.576 10.361l2.938.85c1.623.468 3.996-3.409 5.301-8.662 1.303-5.252 1.046-9.891-.577-10.361"/></g><path fill="#29abe2" d="M8.711 12.384c1.093-4.401 1.085-8.361.101-9.808-1.551.558-3.479 4.069-4.609 8.616-1.094 4.402-1.086 8.361-.103 9.809 1.552-.559 3.481-4.07 4.611-8.617"/><g fill="#333"><path d="M61.3 22.503l-1.703-.577c.811.234 1.057 2.672.404 5.298-.652 2.627-1.996 4.605-2.807 4.37l1.744.42c.811.234 1.998-1.705 2.65-4.33.653-2.627.524-4.947-.288-5.181"/><circle cx="46.791" cy="20.483" r=".86"/></g></svg>