<svg xmlns="http://www.w3.org/2000/svg" viewBox="0 0 64 64"><path fill="#3e4347" d="M24.373 39.627C16.817 32.07 7.651 28.964 3.76 32.597c5.217-5.04 12.546-6.609 19.08-4.705L48.736 1.997a19.473 19.473 0 0 1 8.327 4.94 19.477 19.477 0 0 1 4.94 8.327L36.108 41.157c1.906 6.532.339 13.86-4.704 19.08 3.634-3.891.529-13.06-7.03-20.612"/><path fill="#676e72" d="M24.373 39.626c-5.658-5.66-13.284-7.226-17.14-3.559 5.196-5.064 11.801-7.354 17.272-6.509L50.4 3.664c2.554.396 4.861 1.475 6.661 3.275s2.878 4.107 3.273 6.661L34.44 39.494c.846 5.473-1.443 12.08-6.507 17.274 3.665-3.86 2.101-11.484-3.558-17.14"/><path fill="#fef500" d="M10.548 53.45c-7.61-7.608-10.71-16.853-6.952-20.697.053-.054.11-.104.165-.156 3.891-3.635 13.06-.53 20.612 7.03 7.557 7.556 10.662 16.721 7.03 20.612-.053.054-.103.109-.156.164-3.843 3.757-13.09.66-20.696-6.95"/><path fill="#fff7ab" d="M17.13 46.875c-3.662-3.662-5.154-8.111-3.345-9.962l.079-.075c1.872-1.749 6.282-.254 9.921 3.384 3.634 3.636 5.13 8.05 3.382 9.918-.027.027-.051.054-.077.079-1.85 1.808-6.3.317-9.96-3.344"/><path fill="#fff" d="M17.909 46.09c-1.714-1.715-2.413-3.799-1.567-4.665l.037-.035c.877-.819 2.942-.12 4.647 1.584 1.703 1.702 2.402 3.767 1.583 4.646-.013.012-.023.024-.035.037-.867.845-2.949.148-4.665-1.567"/><path fill="#3e4347" d="M36.708 14.02l-6.025 6.024-1.796-1.797 6.025-6.024z"/><path fill="#676e72" d="M35.82 14.912l-3.377 3.376-1.798-1.797 3.376-3.377z"/></svg>