<svg xmlns="http://www.w3.org/2000/svg" viewBox="0 0 64 64"><g fill="#b6c0c6"><path d="M58.737 63.999H64v-3.36zM63.54 54.19L18.41 9.09l-9.34 9.339 44.44 44.41-1.37-1.371z"/></g><g fill="#7a8891"><path d="M64 54.638l-.45-.448h-.01l.46.463zM53.51 62.841L54.671 64z"/><path d="M58.737 63.999L64 60.64v-5.987l-.46-.463-11.4 7.28 1.37 1.371L54.671 64zM55.3 45.968L43.901 53.25l4.109 4.11 11.41-7.28zM47.07 37.746L35.658 45.03l4.118 4.11 11.404-7.282zM30.614 21.278L19.2 28.558l4.122 4.114 11.406-7.282zM38.836 29.51l-11.405 7.285 4.115 4.114 11.409-7.282zM22.384 13.04l-11.406 7.284 4.112 4.114 11.415-7.278z"/></g><path fill="#4f585b" d="M7.05 17.863L0 24.913l10.974 10.965 7.05-7.04z"/><path fill="#8b979e" d="M17.88 7.04L7.05 17.863l10.97 10.968L28.851 18.01z"/><path fill="#cedae0" d="M24.925 0l-7.05 7.04 10.971 10.97 7.05-7.05z"/><path fill="#4f585b" d="M28.329 39.13l-7.05 7.05 10.979 10.97 7.04-7.05z"/><path fill="#8b979e" d="M39.16 28.313L28.329 39.13 39.3 50.1l10.83-10.82z"/><path fill="#cedae0" d="M46.21 21.269l-7.05 7.04 10.97 10.967 7.05-7.04z"/></svg>