<svg xmlns="http://www.w3.org/2000/svg" viewBox="0 0 64 64"><circle fill="#42ade2" cx="32" cy="32" r="30"/><g fill="#fff"><path d="M22.054 17.909H22l-3.33 1.271-.67-2.457L22.619 15H26v14h-3.946V17.909zM35.5 29v-1.947l1.824-1.61c3.08-2.69 4.578-4.237 4.619-5.847 0-1.123-.693-2.01-2.32-2.01-1.215 0-2.277.593-3.02 1.146l-.93-2.31c1.063-.785 2.711-1.42 4.619-1.42 3.189 0 4.947 1.82 4.947 4.32 0 2.31-1.715 4.152-3.754 5.932l-1.301 1.057v.043h5.314v2.649h-10M19.675 45.667c.587.29 1.941.832 3.291.832 1.72 0 2.593-.79 2.593-1.812 0-1.334-1.396-1.938-2.856-1.938h-1.35v-2.271h1.287c1.109-.02 2.524-.415 2.524-1.562 0-.813-.696-1.415-2.09-1.415-1.155 0-2.375.478-2.963.812l-.675-2.293c.851-.52 2.549-1.02 4.378-1.02 3.03 0 4.707 1.521 4.707 3.373 0 1.439-.851 2.564-2.595 3.148v.04c1.703.293 3.074 1.522 3.074 3.293C29 47.249 26.8 49 23.206 49c-1.832 0-3.377-.459-4.206-.959l.675-2.374M40.775 49v-3.338H34V43.53L39.788 35h4.38v8.205H46v2.457h-1.832V49h-3.393m0-5.795v-3.098c0-.843.047-1.703.117-2.608H40.8c-.493.905-.895 1.724-1.411 2.608l-2.048 3.057v.041h3.434"/></g></svg>