<svg xmlns="http://www.w3.org/2000/svg" viewBox="0 0 64 64"><path fill="#ffb031" d="M57.04 24.593C54.02 17.379 44.756 8.687 44.756 8.687s2.994 7.435.826 17.266l3.51-3.038s3.342 1.434 3.717 4.958c.466 4.355-2.03 10.567-2.03 10.567s-5.506-1.737-13.92-1.616l-3.01-19.584 7.155 4.69L31.994 2l-9.01 19.93 7.157-4.69-3.01 19.584c-8.416-.121-13.922 1.616-13.922 1.616s-2.494-6.212-2.028-10.567c.375-3.524 3.715-4.958 3.715-4.958l3.511 3.038c-2.168-9.832.826-17.266.826-17.266s-9.27 8.692-12.285 15.906C3.851 32 1.993 40.818 1.993 40.818l6.399 5.914s5.649-1.664 9.963-1.997c4.129-.319 8.93-.399 8.93-.399l-.618 8.712L31.993 62l5.326-8.952-.62-8.712s4.801.08 8.93.399c4.314.333 9.963 1.997 9.963 1.997l6.401-5.914S60.135 32 57.036 24.593"/></svg>