<svg xmlns="http://www.w3.org/2000/svg" viewBox="0 0 64 64"><path fill="#e8e8e8" d="M0 33h12v31H0z"/><path fill="#c94747" d="M2 39h8v17H2z"/><g fill="#3e4347"><path d="M4.5 47a1 1 0 0 0-1 1v8h2v-8a1 1 0 0 0-1-1M7.5 47a1 1 0 0 0-1 1v8h2v-8a1 1 0 0 0-1-1"/></g><path fill="#e8e8e8" d="M6 44a4 4 0 0 0-4 4h1.5a2.5 2.5 0 0 1 5 0H10a4 4 0 0 0-4-4"/><path fill="#3e4347" d="M5 58h2v4H5z"/><path fill="#e8e8e8" d="M2 38v3a1 1 0 1 1 2 0 1 1 0 1 1 2 0 1 1 0 1 1 2 0 1 1 0 1 1 2 0v-3H2"/><g fill="#c94747"><path d="M3 35a1 1 0 0 0-1 1v2h2v-2a1 1 0 0 0-1-1M6 35a1 1 0 0 0-1 1v2h2v-2a1 1 0 0 0-1-1M9 35a1 1 0 0 0-1 1v2h2v-2a1 1 0 0 0-1-1M0 22h12v11H0z"/></g><path fill="#ed4c5c" d="M0 22h4v11H0z"/><path fill="#fff" d="M2 23.19a2 2 0 0 0-2 2h4a2 2 0 0 0-2-2"/><path fill="#e8e8e8" d="M6 23.19a2 2 0 0 0-2 2h4a2 2 0 0 0-2-2"/><g fill="#3e4347"><path d="M2 24a1 1 0 0 0-1 1v5h2v-5a1 1 0 0 0-1-1M6 24a1 1 0 0 0-1 1v5h2v-5a1 1 0 0 0-1-1"/><path opacity=".5" d="M8 22h4v11H8z"/></g><path fill="#b2c1c0" d="M10 23.19a2 2 0 0 0-2 2h4a2 2 0 0 0-2-2"/><path fill="#3e4347" d="M10 24a1 1 0 0 0-1 1v5h2v-5a1 1 0 0 0-1-1"/><g fill="#fff"><path d="M0 24.19h1v1H0zM3 24.19h1v1H3z"/></g><g fill="#e8e8e8"><path d="M4 24.19h1v1H4zM7 24.19h1v1H7z"/></g><g fill="#b2c1c0"><path d="M8 24.19h1v1H8zM11 24.19h1v1h-1z"/></g><g fill="#fff"><path d="M0 27h1v1H0zM3 27h1v1H3z"/></g><g fill="#e8e8e8"><path d="M4 27h1v1H4zM7 27h1v1H7z"/></g><g fill="#b2c1c0"><path d="M8 27h1v1H8zM11 27h1v1h-1z"/></g><path fill="#fff" d="M0 30h4v1H0z"/><path fill="#e8e8e8" d="M4 30h4v1H4z"/><path fill="#b2c1c0" d="M8 30h4v1H8z"/><path fill="#fff" d="M0 21h4v1H0z"/><path fill="#e8e8e8" d="M4 21h4v1H4z"/><path fill="#b2c1c0" d="M8 21h4v1H8z"/><g fill="#c94747"><path d="M11 19H1l-1 2h12zM11 19H1l-.867-3h11.734z"/></g><path opacity=".5" fill="#3e4347" d="M1 19l-.867-3h11.734L11 19z"/><path fill="#c94747" d="M9 10C6.666 7.666 6 6 6 6s-.666 1.666-3 4c-1.231 1.231-3 2.761-3 5 0 2.762 2.687 4 6 4s6-1.238 6-4c0-2.239-1.769-3.769-3-5"/><path opacity=".5" fill="#3e4347" d="M6 16c-2.665 0-4.922-.803-5.704-2.554A4.264 4.264 0 0 0 0 15c0 2.762 2.687 4 6 4s6-1.238 6-4c0-.561-.111-1.076-.296-1.554C10.922 15.197 8.665 16 6 16z"/><g fill="#e8e8e8"><path d="M3.884 12.361c.387-1.506.96-2.769 1.616-3.861-1.148 1.086-2.258 2.45-2.766 4.426-.634 2.467.067 4.336 1.506 5.574-.805-1.482-1.027-3.527-.356-6.139M8.116 12.361A14.355 14.355 0 0 0 6.5 8.5c1.148 1.086 2.258 2.45 2.766 4.426.634 2.467-.067 4.336-1.506 5.574.805-1.482 1.027-3.527.356-6.139"/></g><g fill="#b2c1c0"><path d="M6.666 1L7 .5h-.666L6 0l-.334.5H5l.334.5L5 1.5h.666L6 2l.334-.5H7z"/><path d="M5.963 1.5C5.77 5.564 4.858 7.861 4.858 7.861 5.5 8 5.713 8 6 8s.5 0 1.142-.139c0 0-.911-2.297-1.104-6.361h-.075z"/><circle cx="6" cy="6" r="1"/><circle cx="6" cy="4" r=".5"/></g><g fill="#e8e8e8"><ellipse cx="6" cy="5.75" rx=".75" ry=".5"/><ellipse cx="6" cy="3.75" rx=".25" ry=".125"/><path d="M52 33h12v31H52z"/></g><path fill="#c94747" d="M54 39h8v17h-8z"/><g fill="#3e4347"><path d="M56.5 47a1 1 0 0 0-1 1v8h2v-8a1 1 0 0 0-1-1M59.5 47a1 1 0 0 0-1 1v8h2v-8a1 1 0 0 0-1-1"/></g><path fill="#e8e8e8" d="M58 44a4 4 0 0 0-4 4h1.5a2.5 2.5 0 0 1 5 0H62a4 4 0 0 0-4-4"/><path fill="#3e4347" d="M57 58h2v4h-2z"/><path fill="#e8e8e8" d="M54 38v3a1 1 0 1 1 2 0 1 1 0 1 1 2 0 1 1 0 1 1 2 0 1 1 0 1 1 2 0v-3h-8"/><g fill="#c94747"><path d="M55 35a1 1 0 0 0-1 1v2h2v-2a1 1 0 0 0-1-1M58 35a1 1 0 0 0-1 1v2h2v-2a1 1 0 0 0-1-1M61 35a1 1 0 0 0-1 1v2h2v-2a1 1 0 0 0-1-1M52 22h12v11H52z"/></g><path fill="#ed4c5c" d="M52 22h4v11h-4z"/><path fill="#fff" d="M54 23.19a2 2 0 0 0-2 2h4a2 2 0 0 0-2-2"/><path fill="#e8e8e8" d="M58 23.19a2 2 0 0 0-2 2h4a2 2 0 0 0-2-2"/><g fill="#3e4347"><path d="M54 24a1 1 0 0 0-1 1v5h2v-5a1 1 0 0 0-1-1M58 24a1 1 0 0 0-1 1v5h2v-5a1 1 0 0 0-1-1"/><path opacity=".5" d="M60 22h4v11h-4z"/></g><path fill="#b2c1c0" d="M62 23.19a2 2 0 0 0-2 2h4a2 2 0 0 0-2-2"/><path fill="#3e4347" d="M62 24a1 1 0 0 0-1 1v5h2v-5a1 1 0 0 0-1-1"/><g fill="#fff"><path d="M52 24.19h1v1h-1zM55 24.19h1v1h-1z"/></g><g fill="#e8e8e8"><path d="M56 24.19h1v1h-1zM59 24.19h1v1h-1z"/></g><g fill="#b2c1c0"><path d="M60 24.19h1v1h-1zM63 24.19h1v1h-1z"/></g><g fill="#fff"><path d="M52 27h1v1h-1zM55 27h1v1h-1z"/></g><g fill="#e8e8e8"><path d="M56 27h1v1h-1zM59 27h1v1h-1z"/></g><g fill="#b2c1c0"><path d="M60 27h1v1h-1zM63 27h1v1h-1z"/></g><path fill="#fff" d="M52 30h4v1h-4z"/><path fill="#e8e8e8" d="M56 30h4v1h-4z"/><path fill="#b2c1c0" d="M60 30h4v1h-4z"/><path fill="#fff" d="M52 21h4v1h-4z"/><path fill="#e8e8e8" d="M56 21h4v1h-4z"/><path fill="#b2c1c0" d="M60 21h4v1h-4z"/><g fill="#c94747"><path d="M63 19H53l-1 2h12zM63 19H53l-.87-3h11.737z"/></g><path opacity=".5" fill="#3e4347" d="M53 19l-.87-3h11.737L63 19z"/><path fill="#c94747" d="M61 10c-2.334-2.334-3-4-3-4s-.666 1.666-3 4c-1.231 1.231-3 2.761-3 5 0 2.762 2.687 4 6 4s6-1.238 6-4c0-2.239-1.769-3.769-3-5"/><path opacity=".5" fill="#3e4347" d="M58 16c-2.665 0-4.922-.803-5.704-2.554A4.264 4.264 0 0 0 52 15c0 2.762 2.687 4 6 4s6-1.238 6-4c0-.561-.111-1.076-.296-1.554C62.922 15.197 60.665 16 58 16"/><g fill="#e8e8e8"><path d="M55.884 12.361c.388-1.506.96-2.77 1.616-3.861-1.148 1.086-2.258 2.45-2.766 4.426-.635 2.467.066 4.336 1.506 5.574-.805-1.482-1.027-3.527-.356-6.139M60.12 12.361A14.373 14.373 0 0 0 58.504 8.5c1.148 1.086 2.258 2.45 2.766 4.426.635 2.467-.066 4.336-1.506 5.574.805-1.482 1.027-3.527.356-6.139"/></g><g fill="#b2c1c0"><path d="M58.666 1L59 .5h-.67L58 0l-.334.5H57l.33.5-.33.5h.666L58 2l.33-.5H59z"/><path d="M57.963 1.5c-.193 4.064-1.104 6.361-1.104 6.361C57.5 8 57.713 8 58 8s.5 0 1.142-.139c0 0-.911-2.297-1.104-6.361h-.075"/><circle cx="58" cy="6" r="1"/><circle cx="58" cy="4" r=".5"/></g><g fill="#e8e8e8"><ellipse cx="58" cy="5.75" rx=".75" ry=".5"/><ellipse cx="58" cy="3.75" rx=".25" ry=".125"/></g><path fill="#b2c1c0" d="M32 10a4 4 0 0 0-4 4v6h8v-6a4 4 0 0 0-4-4"/><path fill="#e8e8e8" d="M30 19h4v-5c0-1.103-.897-2-2-2-1.104 0-2 .897-2 2v5"/><path fill="#b2c1c0" d="M32 15L12 25v39h40V25z"/><path fill="#c94747" d="M14 64h36V26.236l-18-9-18 9V64z"/><g fill="#89664c"><path d="M22 43.5a5 5 0 0 0-5 5V64h10V48.5a5 5 0 0 0-5-5M32 43.5a5 5 0 0 0-5 5V64h10V48.5a5 5 0 0 0-5-5M42 43.5a5 5 0 0 0-5 5V64h10V48.5a5 5 0 0 0-5-5"/></g><path fill="#e8e8e8" d="M42 42a5.99 5.99 0 0 0-5 2.687C35.926 43.068 34.088 42 32 42s-3.926 1.068-5 2.687A5.99 5.99 0 0 0 22 42a6 6 0 0 0-6 6v16h2V48a4 4 0 0 1 8 0v16h2V48a4 4 0 0 1 8 0v16h2V48a4 4 0 0 1 8 0v16h2V48a6 6 0 0 0-6-6"/><g fill="#594640"><path d="M18 48h8v2h-8zM28 48h8v2h-8zM38 48h8v2h-8z"/><path d="M21 48h2v16h-2zM31 48h2v16h-2zM41 48h2v16h-2z"/></g><path fill="#3e4347" d="M28 26.06h8v7.342h-8z"/><g fill="#e8e8e8"><path d="M41 34.841H23L32 20l9 14.841m-14.74-1.83h11.482L32 23.548l-5.74 9.463"/><path d="M32 40l-9-14.84h18L32 40zm-5.74-13.011L32 36.452l5.742-9.463H26.26z"/></g></svg>