<svg xmlns="http://www.w3.org/2000/svg" viewBox="0 0 64 64"><g fill="#3e4347"><path d="M14.499 62L2 49.5V2l12.499 12.5zM14.499 14.5h47.5V62h-47.5z"/><path d="M62 14.5H14.499L2 2h47.5z"/></g><path fill="#e8e8e8" d="M15.536 12h40.43l-7.5-7.5H8.036l7.5 7.5"/><path fill="#b2c1c0" d="M10.535 7l5 5h36.684l-5-5z"/><path fill="#dbb471" d="M14.499 29.5h47.5v5h-47.5z"/><path opacity=".33" fill="#b2c1c0" d="M14.499 62L2 49.5V2l12.499 12.5z"/><path fill="#fbbf67" d="M14.499 34.5L2 22v-5l12.499 12.5z"/><g fill="#dbb471"><path d="M39.5 37h13.75v5H39.5zM59.5 37h2.501v5H59.5zM14.499 37H17v5h-2.501zM37.729 38.589c-.603-.603-.28-1.081-.28-1.081L36.374 37l-1.074.508s.322.479-.28 1.081c-.287.288-.521.633-.521 1.067 0 .42.307.701.48 1.05.325.648.658 1.294 1.395 1.294.738 0 1.071-.646 1.396-1.294.174-.349.479-.63.479-1.05 0-.434-.232-.779-.52-1.067M21.479 38.589c-.602-.603-.28-1.081-.28-1.081L20.124 37l-1.073.508s.322.479-.282 1.081c-.286.288-.52.633-.52 1.067 0 .42.306.701.48 1.05.324.648.659 1.294 1.395 1.294.738 0 1.073-.646 1.396-1.294.176-.349.479-.63.479-1.05 0-.434-.232-.779-.52-1.067M57.73 38.589c-.604-.603-.282-1.081-.282-1.081L56.375 37l-1.074.508s.322.479-.28 1.081c-.288.288-.521.633-.521 1.067 0 .42.304.701.479 1.05.323.648.659 1.294 1.396 1.294.736 0 1.071-.646 1.396-1.294.174-.349.479-.63.479-1.05 0-.434-.234-.779-.52-1.067"/></g><path fill="#fbbf67" d="M13.25 35.75v5L14.499 42v-5z"/><g fill="#e8e8e8"><path d="M33.25 44.5h28.751v10H33.25zM14.499 44.5h8.751v10h-8.751z"/></g><g fill="#fbbf67"><path d="M12.452 36.517c-.202-.793-.094-1.161-.094-1.161L12 34.5l-.359.147s.108.579-.093.978c-.095.188-.172.452-.172.882 0 .415.103.793.159 1.195.108.747.218 1.494.465 1.736.248.245.357-.286.465-.817.057-.289.159-.465.159-.88 0-.428-.077-.845-.172-1.224M7.451 31.517c-.199-.794-.093-1.161-.093-1.161l-.359-.856-.359.148s.108.579-.091.976c-.095.189-.174.453-.174.882 0 .416.103.794.16 1.196.11.747.22 1.494.465 1.737.247.244.357-.287.465-.818.059-.289.161-.465.161-.88a5.098 5.098 0 0 0-.175-1.224M8.25 30.75v5l2.499 2.5v-5zM3.249 25.75v5l2.501 2.5v-5z"/></g><path fill="#e8e8e8" d="M2 42l12.499 12.5v-10L2 32z"/><g fill="#3e4347"><path opacity=".2" d="M33.25 44.5h28.751v10H33.25zM14.499 44.5h8.751v10h-8.751z"/></g><path fill="#dbb471" d="M14.499 54.5h47.5v7.499h-47.5z"/><path opacity=".5" fill="#3e4347" d="M14.499 54.5h47.5v7.499h-47.5z"/><path fill="#dbb471" d="M14.499 62L2 49.5V42l12.499 12.5z"/><path opacity=".25" fill="#3e4347" d="M14.499 62L2 49.5V42l12.499 12.5z"/><path fill="#ffce31" d="M23.25 42h9.999v17.5H23.25z"/><g fill="#f2b200"><path d="M23.25 58.25h9.999v1.25H23.25z"/><path d="M32 37h1.249v22.5H32z"/></g><path fill="#dbb471" d="M23.25 37v17.5h4.286l.714-5 .714 5h4.286V37z"/><g fill="#fff"><path opacity=".33" d="M30.75 47h-5l-1.249-1.25 1.249-1.25h5L32 45.75z"/><circle opacity=".33" cx="30.75" cy="50.75" r="1.251"/><circle opacity=".33" cx="25.75" cy="50.75" r="1.25"/><path opacity=".33" d="M25.792 41.01c-.24-.242-.112-.434-.112-.434l-.43-.203-.431.203s.13.191-.111.434c-.114.113-.207.253-.207.426 0 .168.121.281.19.42.13.26.264.518.559.518.294 0 .43-.258.558-.518.07-.139.192-.252.192-.42 0-.173-.093-.313-.208-.426M27.792 41.01c-.242-.242-.113-.434-.113-.434l-.429-.203-.43.203s.128.191-.112.434c-.115.113-.208.253-.208.426 0 .168.121.281.19.42.132.26.264.518.56.518.293 0 .429-.258.557-.518.07-.139.192-.252.192-.42.001-.173-.093-.313-.207-.426M29.792 41.01c-.242-.242-.113-.434-.113-.434l-.429-.203-.43.203s.13.191-.112.434c-.113.113-.208.253-.208.426 0 .168.123.281.192.42.13.26.264.518.558.518.295 0 .429-.258.559-.518.07-.139.192-.252.192-.42 0-.173-.095-.313-.209-.426M31.792 41.01c-.242-.242-.111-.434-.111-.434l-.431-.203-.428.203s.128.191-.114.434c-.113.113-.208.253-.208.426 0 .168.123.281.192.42.13.26.264.518.558.518.295 0 .429-.258.559-.518.07-.139.192-.252.192-.42-.001-.173-.096-.313-.209-.426"/></g><g fill="#dbb471"><path d="M14.499 59.28l-1.717-1.72v-2.055l1.717 1.718v-.443l-3.592-3.594v-2.278l-.313-.313v2.277l-2.188-2.187v-2.278l-.311-.313v2.278l-3.439-3.438v-2.278l-.311-.313v2.278L2 44.28v.444l.78.78v2.057L2 46.779v.445l2.344 2.344v2.277l.311.313v-2.277l2.188 2.187v2.278l.313.313v-2.277l4.061 4.063v2.277l.313.313v-2.278l2.968 2.97v-.447zm-8.906-8.906l-2.5-2.5v-2.056l2.5 2.499v2.057m3.75 3.75l-3.437-3.438V48.63l3.437 3.437v2.057m3.125 3.125l-2.813-2.813V52.38l2.813 2.813v2.056M62 57.16v-.313h-5.469v-2.343h-.313v2.343h-4.765v-2.343h-.313v2.343h-4.609v-2.343h-.313v2.343h-4.063v-2.343h-.312v2.343H36.53v-2.343h-.312v2.343h-2.97v.313h4.845v2.188H20.282V57.16h2.968v-.313h-4.843v-2.343h-.313v2.343h-3.595v.313h5.47v2.188h-5.47v.312h1.095v2.344h.311V59.66h5.938v2.344h.313V59.66h4.937v2.344h.311V59.66h3.69v2.344h.313V59.66h2.937v2.344h.312V59.66h5.469v2.344h.313V59.66h4.999v2.344h.313V59.66h5.392v2.344h.313V59.66h4.765v2.344h.313V59.66H62v-.312h-3.594V57.16H62m-18.281 2.189h-5.313v-2.188h5.313v2.188m3.75 0H44.03v-2.188h3.438v2.188m5.626 0H47.78v-2.188h5.313v2.188m5 0h-4.688v-2.188h4.688v2.188"/></g></svg>