<svg xmlns="http://www.w3.org/2000/svg" viewBox="0 0 64 64"><g fill="#ffb700"><path d="M7.143 21c0 .55-.449 1-1 1H3c-.55 0-1-.45-1-1s.45-1 1-1h3.143c.55 0 1 .45 1 1M6.143 25c0 .55-.449 1-1 1H4c-.55 0-1-.45-1-1s.45-1 1-1h1.143c.55 0 1 .45 1 1M13 25c0 .55-.45 1-1 1h-1.143c-.551 0-1-.45-1-1s.449-1 1-1H12c.55 0 1 .45 1 1M19.857 25c0 .55-.45 1-1 1h-1.143c-.551 0-1-.45-1-1s.449-1 1-1h1.143c.55 0 1 .45 1 1M14 21c0 .55-.45 1-1 1H9.857c-.551 0-1-.45-1-1s.449-1 1-1H13c.55 0 1 .45 1 1M20.857 21c0 .55-.451 1-1 1h-3.143c-.551 0-1-.45-1-1s.449-1 1-1h3.143c.549 0 1 .45 1 1M27.715 21c0 .55-.451 1-1 1h-3.144c-.55 0-1-.45-1-1s.45-1 1-1h3.144c.549 0 1 .45 1 1M34.571 19c0 .55-.45 1-1 1h-3.143c-.55 0-1-.45-1-1s.45-1 1-1h3.143c.55 0 1 .45 1 1M41.43 21c0 .55-.45 1-1 1h-3.144c-.549 0-1-.45-1-1s.451-1 1-1h3.144c.55 0 1 .45 1 1M48.28 21c0 .55-.449 1-1 1h-3.143c-.549 0-1-.45-1-1s.451-1 1-1h3.143c.551 0 1 .45 1 1M55.14 21c0 .55-.449 1-1 1h-3.143c-.55 0-1-.45-1-1s.45-1 1-1h3.143c.55 0 1 .45 1 1M62 21c0 .55-.45 1-1 1h-3.143c-.551 0-1-.45-1-1s.449-1 1-1H61c.55 0 1 .45 1 1"/><path d="M2.6 21c-.014.164-.028.328-.028.5 0 1.934.896 3.5 2 3.5s2-1.566 2-3.5c0-.172-.015-.336-.028-.5H2.6M9.457 21c-.014.164-.029.328-.029.5 0 1.934.896 3.5 2 3.5 1.105 0 2-1.566 2-3.5 0-.172-.015-.336-.028-.5H9.457M16.314 21c-.014.164-.029.328-.029.5 0 1.934.896 3.5 2 3.5 1.105 0 2-1.566 2-3.5 0-.172-.015-.336-.028-.5h-3.943M23.17 21c-.014.164-.029.328-.029.5 0 1.934.896 3.5 2 3.5s2-1.566 2-3.5c0-.172-.016-.336-.029-.5H23.17M36.887 21c-.014.164-.029.328-.029.5 0 1.934.896 3.5 2 3.5s2-1.566 2-3.5c0-.172-.016-.336-.029-.5h-3.942M43.743 21c-.014.164-.028.328-.028.5 0 1.934.895 3.5 2 3.5 1.104 0 2-1.566 2-3.5 0-.172-.016-.336-.029-.5h-3.943M50.6 21c-.014.164-.028.328-.028.5 0 1.934.896 3.5 2 3.5s2-1.566 2-3.5c0-.172-.015-.336-.028-.5H50.6M57.46 21c-.014.164-.029.328-.029.5 0 1.934.896 3.5 2 3.5 1.105 0 2-1.566 2-3.5 0-.172-.015-.336-.028-.5H57.46M30.03 19c-.013.164-.029.328-.029.5 0 1.934.896 3.5 2 3.5s2-1.566 2-3.5c0-.172-.016-.336-.029-.5H30.03"/><path d="M26.715 25c0 .55-.451 1-1 1h-1.144c-.55 0-1-.45-1-1s.45-1 1-1h1.144c.549 0 1 .45 1 1M40.43 25c0 .55-.451 1-1 1h-1.144c-.55 0-1-.45-1-1s.45-1 1-1h1.144c.549 0 1 .45 1 1M47.29 25c0 .55-.45 1-1 1h-1.144c-.549 0-1-.45-1-1s.451-1 1-1h1.144c.55 0 1 .45 1 1M54.14 25c0 .55-.449 1-1 1h-1.143c-.55 0-1-.45-1-1s.45-1 1-1h1.143c.55 0 1 .45 1 1M61 25c0 .55-.45 1-1 1h-1.143c-.551 0-1-.45-1-1s.449-1 1-1H60c.55 0 1 .45 1 1"/><path d="M32 51.982c-15.676 0-28.429-12.754-28.429-28.429h2c0 14.573 11.856 26.429 26.429 26.429s26.428-11.855 26.428-26.429h2c0 15.676-12.752 28.429-28.428 28.429"/><path d="M32 45.05c-11.855 0-21.5-9.646-21.5-21.5h2c0 10.753 8.748 19.5 19.5 19.5s19.5-8.747 19.5-19.5h2c0 11.854-9.645 21.5-21.5 21.5"/><path d="M32 38.554c-8.271 0-15-6.729-15-15h2c0 7.169 5.832 13 13 13s13-5.831 13-13h2c0 8.27-6.729 15-15 15"/><path d="M32 31.554c-4.411 0-8-3.589-8-8h2c0 3.309 2.691 6 6 6s6-2.691 6-6h2c0 4.411-3.589 8-8 8"/><path d="M31 21h2v35h-2z"/><path d="M36 56.47c0 .848-1.791 1.535-4 1.535s-4-.687-4-1.535c0-.848 1.791-2.465 4-2.465s4 1.617 4 2.465"/><path d="M40 59.45c0 1.905-3.582 2.549-8 2.549s-8-.644-8-2.549c0-1.906 3.582-3.451 8-3.451s8 1.545 8 3.451"/></g><path fill="#e8e8e8" d="M5.143 12H4c-.551 0-1 .45-1 1v7h3.143v-7c0-.55-.451-1-1-1"/><path fill="#b2c1c0" d="M4.554 9l-.483 3h1z"/><path fill="#ff8736" d="M4.93 4S3.242 5.82 3.606 8.74c.18 1.455 1.948 1.888 1.948.008 0-2.02-1.316-2.046-.624-4.748"/><path fill="#e8e8e8" d="M12 12h-1.143c-.551 0-1 .45-1 1v7H13v-7c0-.55-.45-1-1-1"/><path fill="#b2c1c0" d="M11.411 9l-.482 3h1z"/><path fill="#ff8736" d="M11.787 4s-1.688 1.82-1.324 4.74c.18 1.455 1.948 1.888 1.948.008 0-2.02-1.315-2.046-.624-4.748"/><path fill="#e8e8e8" d="M18.857 12h-1.144c-.55 0-1 .45-1 1v7h3.144v-7c0-.55-.451-1-1-1"/><path fill="#b2c1c0" d="M18.268 9l-.483 3h1z"/><path fill="#ff8736" d="M18.644 4s-1.688 1.82-1.324 4.74c.181 1.455 1.948 1.888 1.948.008 0-2.02-1.316-2.046-.624-4.748"/><path fill="#e8e8e8" d="M25.714 12H24.57c-.549 0-1 .45-1 1v7h3.144v-7c0-.55-.45-1-1-1"/><path fill="#b2c1c0" d="M25.13 9l-.487 3h1z"/><path fill="#ff8736" d="M25.5 4s-1.688 1.82-1.324 4.74c.182 1.455 1.949 1.888 1.949.008 0-2.02-1.316-2.046-.625-4.748"/><path fill="#e8e8e8" d="M32.571 10h-1.144c-.549 0-1 .45-1 1v7h3.144v-7c0-.55-.45-1-1-1"/><path fill="#b2c1c0" d="M31.982 7l-.482 3h1z"/><path fill="#ff8736" d="M32.357 2s-1.688 1.82-1.324 4.74c.182 1.455 1.949 1.888 1.949.008 0-2.02-1.316-2.046-.625-4.748"/><path fill="#e8e8e8" d="M39.43 12h-1.144c-.55 0-1 .45-1 1v7h3.144v-7c0-.55-.451-1-1-1"/><path fill="#b2c1c0" d="M38.84 9l-.48 3h1z"/><path fill="#ff8736" d="M39.22 4s-1.688 1.82-1.324 4.74c.181 1.455 1.948 1.888 1.948.008 0-2.02-1.316-2.046-.624-4.748"/><path fill="#e8e8e8" d="M46.28 12h-1.143c-.55 0-1 .45-1 1v7h3.143v-7c0-.55-.449-1-1-1"/><path fill="#b2c1c0" d="M45.697 9l-.477 3h1z"/><path fill="#ff8736" d="M46.07 4s-1.688 1.82-1.324 4.74c.181 1.455 1.949 1.888 1.949.008 0-2.02-1.316-2.046-.625-4.748"/><path fill="#e8e8e8" d="M60 12h-1.144c-.55 0-1 .45-1 1v7H61v-7c0-.55-.451-1-1-1"/><path fill="#b2c1c0" d="M59.41 9l-.482 3h1z"/><path fill="#ff8736" d="M59.786 4s-1.688 1.82-1.324 4.74c.181 1.455 1.948 1.888 1.948.008 0-2.02-1.315-2.046-.624-4.748"/><path fill="#e8e8e8" d="M53.14 12h-1.143c-.55 0-1 .45-1 1v7h3.143v-7c0-.55-.45-1-1-1"/><path fill="#b2c1c0" d="M52.55 9l-.48 3h1z"/><path fill="#ff8736" d="M52.93 4s-1.688 1.82-1.324 4.74c.181 1.455 1.949 1.888 1.949.008 0-2.02-1.317-2.046-.625-4.748"/><g fill="#c28200"><path d="M36.17 57.725c.197.188-1.49 1.651-4.175 1.651s-4.372-1.464-4.175-1.651c.144-.247 1.866.67 4.175.651 2.309.019 4.03-.898 4.175-.651"/><ellipse cx="4.571" cy="22.25" rx="1.5" ry=".25"/><ellipse cx="11.429" cy="22.25" rx="1.5" ry=".25"/><ellipse cx="18.286" cy="22.25" rx="1.5" ry=".25"/><ellipse cx="25.14" cy="22.25" rx="1.5" ry=".25"/><ellipse cx="38.857" cy="22.13" rx="1.5" ry=".25"/><ellipse cx="32" cy="20" rx="1.5" ry=".25"/><ellipse cx="45.76" cy="22.13" rx="1.5" ry=".25"/><ellipse cx="52.57" cy="22.13" rx="1.5" ry=".25"/><ellipse cx="59.43" cy="22.13" rx="1.5" ry=".25"/></g></svg>