<svg xmlns="http://www.w3.org/2000/svg" viewBox="0 0 64 64"><g fill="#ed4c5c"><path d="M32 2C15.431 2 2 15.432 2 32c0 16.567 13.431 30 30 30 16.567 0 30-13.433 30-30C62 15.432 48.567 2 32 2zm0 55.781C17.762 57.781 6.219 46.238 6.219 32S17.762 6.219 32 6.219 57.781 17.762 57.781 32 46.238 57.781 32 57.781z"/><path d="M52.2 26.654a6.933 6.933 0 0 0-2.414-1.637c-.93-.379-1.985-.595-3.142-.643-1.137-.046-2.4.073-3.755.354-1.296.266-2.713.688-4.212 1.256a4.72 4.72 0 0 0-.616-.505 4.477 4.477 0 0 0-2.178-.782c-1.75-.15-3.704.668-5.808 2.437-.145.121-.285.244-.419.365a7.35 7.35 0 0 0 .072-1.264c-.035-1.373-.458-2.651-1.224-3.696-.799-1.093-1.932-1.875-3.272-2.261-1.664-.476-3.291-.413-4.837.188-1.181.458-2.289 1.226-3.292 2.281-1.578 1.661-2.378 3.48-2.465 3.682l3.666 1.562-.002.006c.006-.013.618-1.406 1.752-2.571 1.896-1.947 3.542-1.474 4.083-1.32.996.288 1.585 1.102 1.613 2.234.028 1.045-.435 2.19-1.3 3.226-1.129 1.35-2.902 2.468-5.126 3.234l1.295 3.766c1.496-.514 2.849-1.166 4.02-1.936a13.052 13.052 0 0 0 2.838-2.479c.133.024.278.055.428.094.963.249 1.708.69 2.215 1.313.957 1.174 1.137 3.085.535 5.678-.924 3.978-3.864 6.784-7.149 6.828-1.831.023-3.64-.818-5.23-2.436-2-2.036-3.624-5.282-4.692-9.388l-3.854 1c.64 2.455 1.461 4.663 2.441 6.557.941 1.816 2.039 3.373 3.267 4.62 1.193 1.214 2.506 2.141 3.906 2.756 1.318.576 2.693.869 4.084.869h.133a10.045 10.045 0 0 0 3.737-.781 11.163 11.163 0 0 0 3.226-2.071 12.898 12.898 0 0 0 2.478-3.111 14.62 14.62 0 0 0 1.534-3.944c.461-1.982.564-3.775.312-5.33-.237-1.457-.789-2.724-1.638-3.764a6.803 6.803 0 0 0-.704-.747c.06-.051.118-.101.178-.15 1.385-1.155 2.386-1.521 2.861-1.479.105.009.355.031.701.637.557.978.491 2.01.319 3.913-.103 1.136-.221 2.425-.138 3.9.097 1.73.451 3.386 1.083 5.063.548 1.452 1.313 2.593 2.275 3.395a5.561 5.561 0 0 0 3.423 1.308c.063.002.124.004.185.004.9 0 1.83-.207 2.76-.609.882-.385 1.753-.943 2.586-1.661a14.274 14.274 0 0 0 2.208-2.415 16.816 16.816 0 0 0 1.748-3.01c.99-2.205 1.533-4.459 1.564-6.513.036-2.478-.676-4.56-2.061-6.02m-1.924 5.956c-.022 1.495-.454 3.251-1.215 4.941-1.532 3.409-4.117 5.397-5.729 5.349a1.597 1.597 0 0 1-1-.385c-.418-.354-.8-.954-1.097-1.745-1.097-2.898-.898-5.083-.706-7.194.12-1.319.242-2.667-.014-4.03 2.366-.857 4.373-1.258 5.969-1.194 1.267.051 2.218.401 2.824 1.04.83.873.983 2.23.968 3.215"/><path d="M29.11 20.449c1.099 1.439 2.521 2.412 4.112 2.813a7.13 7.13 0 0 0 1.743.213c.925 0 1.886-.171 2.871-.512 1.721-.597 3.553-1.734 5.447-3.38l-2.615-3c-1.497 1.304-2.88 2.184-4.113 2.614-.874.308-1.659.38-2.334.214-1.759-.427-2.571-2.423-2.581-2.443l.007.016-3.727 1.407c.041.103.406 1.037 1.19 2.063"/><path d="M35.887 11.272l2.88 3.027-2.888 2.745-2.878-3.026z"/></g></svg>