<svg xmlns="http://www.w3.org/2000/svg" viewBox="0 0 64 64"><g fill="#b2c1c0"><path d="M49 19h8v45h-8z"/><path d="M57 31h-8l-2-2h12z"/></g><path fill="#3e4347" d="M55 23.285c0-.594-.373-1.18-.887-1.485C53.361 21.353 53 21 53 21s-.363.353-1.115.8c-.513.305-.885.891-.885 1.485 0 .432.191.822.5 1.123V27h3v-2.592c.307-.301.5-.691.5-1.123"/><path fill="#e8e8e8" d="M47 27h12v2H47z"/><g fill="#d3976e"><path d="M53.2 1.6a.798.798 0 1 1-.1-1.59c-.033-.003-.066-.01-.099-.01a1 1 0 1 0 1 1c0-.034-.008-.066-.011-.101a.797.797 0 0 1-.79.701"/><path d="M52.5 1.75h1V7h-1z"/></g><path fill="#e8e8e8" d="M53 5l-4 14h8z"/><circle fill="#d3976e" cx="53" cy="3.25" r="1"/><g fill="#b2c1c0"><path d="M7 19h8v45H7z"/><path d="M15 31H7l-2-2h12z"/></g><path fill="#3e4347" d="M13 23.285c0-.594-.373-1.18-.887-1.485C11.361 21.353 11 21 11 21s-.363.353-1.115.8c-.513.305-.885.891-.885 1.485 0 .432.191.822.5 1.123V27h3v-2.592c.306-.301.5-.691.5-1.123"/><path fill="#e8e8e8" d="M5 27h12v2H5z"/><g fill="#d3976e"><path d="M11.199 1.6a.798.798 0 1 1-.1-1.59C11.066.007 11.033 0 11 0a1 1 0 1 0 1 1c0-.034-.008-.066-.011-.101a.797.797 0 0 1-.79.701"/><path d="M10.5 1.75h1V7h-1z"/></g><path fill="#e8e8e8" d="M11 5L7 19h8z"/><g fill="#d3976e"><circle cx="11" cy="3.25" r="1"/><path d="M31.5 13h1v9h-1z"/></g><g fill="#fbbf67"><path d="M41.469 26.6C35.078 23.47 32 21 32 21s-3.078 2.47-9.471 5.6C18.169 28.734 15 32.836 15 36.999c0 6.629 7.609 12 17 12 9.39 0 17-5.372 17-12 0-4.163-3.171-8.265-7.531-10.399"/><circle cx="32" cy="18" r="2"/></g><g fill="#d3976e"><path d="M33 12a4 4 0 0 1-4-4c0-2.038 1.529-3.701 3.5-3.949C32.333 4.033 32.17 4 32 4c-2.762 0-5 2.238-5 5s2.238 5 5 5a5 5 0 0 0 5-5c0-.171-.034-.333-.051-.5C36.701 10.471 35.037 12 33 12M32 19a1.995 1.995 0 0 1-1.93-1.5c-.041.161-.07.326-.07.5a2 2 0 0 0 4 0c0-.174-.029-.339-.071-.5-.224.861-1 1.5-1.929 1.5"/><path d="M31.5 19.5h1v1h-1zM32 40c-7.668 0-14.14-1.583-16.264-6.507-.471 1.135-.736 2.318-.736 3.506 0 6.629 7.609 12 17 12 9.39 0 17-5.372 17-12 0-1.188-.267-2.371-.737-3.506C46.143 38.417 39.667 40 32 40"/></g><path fill="#e8e8e8" d="M48 42H16c-.551 0-1 .45-1 1v20c0 .55.449 1 1 1h32c.549 0 1-.45 1-1V43c0-.55-.451-1-1-1"/><path fill="#b2c1c0" d="M24.5 54h-7v-3.922a3.481 3.481 0 0 1-.5-1.793c0-1.272.73-2.53 1.861-3.204a5.06 5.06 0 0 0 .764-.534l1.394-1.278 1.376 1.299c.001-.001.252.223.741.514 1.133.674 1.864 1.932 1.864 3.203 0 .634-.174 1.248-.5 1.793V54"/><path fill="#3e4347" d="M36 56.57c0-1.189-.744-2.361-1.771-2.971C32.722 52.707 32 52 32 52s-.725.707-2.23 1.6c-1.026.609-1.77 1.781-1.77 2.97 0 .861.383 1.646.998 2.244V64h6v-5.186c.615-.597 1-1.382 1-2.244"/><path fill="#b2c1c0" d="M26.998 64h2v-5.186c-.616-.597-.998-1.382-.998-2.244 0-1.189.744-2.361 1.77-2.971C31.275 52.707 32 52 32 52s.723.707 2.23 1.6c1.026.609 1.77 1.781 1.77 2.97 0 .861-.385 1.646-1 2.244V64h2v-4.444c.65-.882 1-1.915 1-2.985 0-1.857-1.08-3.698-2.751-4.691-1.237-.733-1.852-1.31-1.853-1.31l-1.388-1.336-1.397 1.326c-.006.006-.619.584-1.863 1.32-1.67.992-2.748 2.833-2.748 4.69 0 1.07.35 2.104.998 2.985V64"/><path fill="#3e4347" d="M23 48.28c0-.594-.373-1.18-.887-1.485-.752-.447-1.113-.8-1.113-.8s-.363.353-1.115.8c-.513.305-.885.891-.885 1.485 0 .432.191.822.5 1.123v2.592h3v-2.592c.306-.301.5-.691.5-1.123"/><path fill="#b2c1c0" d="M46.5 54h-7v-3.922a3.481 3.481 0 0 1-.5-1.793c0-1.272.73-2.53 1.861-3.204a5.06 5.06 0 0 0 .764-.534l1.394-1.278 1.376 1.299c.001-.001.252.223.741.514C46.27 45.756 47 47.014 47 48.285c0 .634-.174 1.248-.5 1.793V54"/><path fill="#3e4347" d="M45 48.28c0-.594-.373-1.18-.887-1.485-.752-.447-1.113-.8-1.113-.8s-.363.353-1.115.8c-.513.305-.885.891-.885 1.485 0 .432.191.822.5 1.123v2.592h3v-2.592c.307-.301.5-.691.5-1.123"/></svg>