<svg xmlns="http://www.w3.org/2000/svg" viewBox="0 0 64 64"><path fill="#594640" d="M60 40c-4.988 0-9-8-9-12.999 0-9.996-9.022-18-19-18s-19 8.004-19 18C13 32 8.988 40 4 40H0v13h64V40h-4z"/><circle fill="#fed0ac" cx="32" cy="28" r="15"/><g fill="#333"><circle cx="32" cy="28" r="2"/><path d="M40.11 30c.735 0 2.893-2 2.893-2s-2.158-1.999-2.893-1.999c-.599 0-1.103.595-1.271 1.413h-7.836v1.176h7.836c.169.816.673 1.41 1.271 1.41"/><path d="M32 13.695l-1 14h2z"/></g><g fill="#d3976e"><path d="M3 53h8v2H3zM53 53h8v2h-8z"/></g></svg>