<svg xmlns="http://www.w3.org/2000/svg" viewBox="0 0 64 64"><path fill="#94989b" d="M12.299 43.786l7.912 7.912-6.1 10.06s-6.359-.695-12.531 2.244l9.977-9.976c.461.022.93-.139 1.28-.486a1.683 1.683 0 0 0 0-2.377 1.683 1.683 0 0 0-2.375.002 1.668 1.668 0 0 0-.485 1.28L0 62.423c2.939-6.174 2.245-12.532 2.245-12.532l10.05-6.102"/><path fill="#3e4347" d="M61.54 2.458a8.394 8.394 0 0 1 0 11.867L56.865 19s-1.827 4.996-10.926 14.09c-9.101 9.101-14.09 10.927-14.09 10.927L22.19 53.68 10.32 41.809l9.661-9.659s1.828-4.992 10.928-14.09c9.1-9.1 14.09-10.93 14.09-10.93l4.672-4.672a8.398 8.398 0 0 1 11.87.001"/><g fill="#94989b"><path d="M58.45 17.417l-1.582 1.582L45 7.13l1.582-1.581zM31.857 44.01l-1.582 1.584-11.88-11.857 1.583-1.585z"/></g></svg>