<svg xmlns="http://www.w3.org/2000/svg" viewBox="0 0 64 64"><g fill="#42ade2"><path d="M51.799 51.802a7.07 7.07 0 0 1-4.295-4.295 6.983 6.983 0 0 1-.4-2.34v-.695l.002-37.4a4.242 4.242 0 0 1 4.238-4.24 4.244 4.244 0 0 1 4.238 4.03h-.027l.008 33.31c0 .788-.639 1.426-1.426 1.424a1.423 1.423 0 0 1-1.424-1.363s-.039-28.395-.041-28.858c0-.771-.641-1.411-1.412-1.413-.77 0-1.359.645-1.357 1.413.002.642-.016 28.401-.016 28.736 0 .735.17 1.413.5 2.069a4.068 4.068 0 0 0 1.813 1.775 4.43 4.43 0 0 0 2.934.338c1.875-.423 3.242-2.202 3.256-4.1l-.01-33.12.033-.001c0-3.896-3.17-7.07-7.07-7.07s-7.07 3.172-7.07 7.07V45.17c.002.662.068 1.311.191 1.938a9.897 9.897 0 0 0 7.697 7.725c.023-.228.035-.457.037-.69a7.098 7.098 0 0 0-.405-2.339"/><path d="M61.17 11.369c0 .546 0 32.33-.002 33.36.002.146.002.292.002.438 0 3.646-2.789 6.652-6.346 7a9.805 9.805 0 0 1 .16 2.825c5.04-.434 9.01-4.675 9.01-9.824 0-.547-.002-33.651 0-33.799a1.43 1.43 0 0 0-1.414-1.413 1.428 1.428 0 0 0-1.412 1.414"/></g><g fill="#ed4c5c"><path d="M44.28 44.28H11.37c-.77 0-1.412.642-1.412 1.412 0 .771.643 1.414 1.414 1.412l33.1.001a10.221 10.221 0 0 1-.191-1.938v-.887z"/><path d="M54.828 52.17a9.89 9.89 0 0 0-7.725-7.695v.695c-.002.82.143 1.606.4 2.34a7.066 7.066 0 0 1 4.295 4.295c.26.731.4 1.52.404 2.338a7.045 7.045 0 0 1-7.037 7.036l-38.1-.002a4.242 4.242 0 0 1-4.24-4.241 4.247 4.247 0 0 1 4.03-4.236l-.002.029 33.31-.01h-.002a1.425 1.425 0 0 1 .063 2.848l-28.859.043c-.771 0-1.414.64-1.412 1.411-.002.77.641 1.359 1.412 1.356l28.734.016c.734 0 1.412-.17 2.07-.497a4.1 4.1 0 0 0 1.777-1.814 4.433 4.433 0 0 0 .336-2.934c-.422-1.873-2.199-3.24-4.1-3.256l-33.12.01.002-.033c-3.895-.002-7.07 3.17-7.07 7.07s3.172 7.07 7.07 7.07h38.1c5.15.001 9.391-3.97 9.822-9.01a9.802 9.802 0 0 0-.16-2.824"/></g></svg>