<svg xmlns="http://www.w3.org/2000/svg" viewBox="0 0 64 64"><path fill="#71ad3e" d="M18.314 51.746l-6.06-6.06c-.938-.939-2.246-.805-2.904.301L2.401 57.631c-.66 1.106-.49 2.72.38 3.587.868.868 2.483 1.04 3.586.379l11.646-6.945c1.103-.661 1.238-1.967.3-2.907"/><path fill="#83bf4f" d="M21.595 55.22c-1.174 1.173-3.106 1.141-4.319-.072l-8.417-8.416c-1.213-1.214-1.245-3.147-.073-4.32L48.333 2.864c1.173-1.173 3.106-1.141 4.319.072l8.416 8.417c1.213 1.212 1.245 3.146.073 4.319L21.595 55.22"/><path fill="#3e4347" d="M45.14 6.053l12.805 12.805-33.16 33.16L11.98 39.212z"/><g fill="#52c18e"><path d="M41.918 9.273L54.73 22.086l-3.274 3.274-12.813-12.812zM18.477 32.718l12.806 12.805-3.274 3.274-12.806-12.805zM34.964 29.04c-4.304 4.304-10.662 4.928-14.198 1.391l15.589-15.589c3.536 3.536 2.915 9.893-1.391 14.198"/></g></svg>