<svg xmlns="http://www.w3.org/2000/svg" viewBox="0 0 64 64"><g fill="#93a2aa"><path d="M36.595 15.1c-1.741 2.571-6.112 5.292-10.02 7.343.194.193.58.772.835.835 1.086-.478 2.191-.907 3.267-1.407 2.244-1.042 4.428-2.257 6.356-3.817 3.95-3.197 5.541-12.781 8.36-12.969 1.755-.127 3.453 2.362 4.59 3.501.579-.581 1.161-1.162 1.742-1.743.09-.088-1.287-1.371-1.432-1.515-1.729-1.73-3.722-3.524-6.373-2.453-3.61 1.463-5.331 9.272-7.328 12.225m9.333-10c.018.003.023.003 0 0m-1.359.207c-.028.012-.022.009 0 0M2.278 60.854c-.297.352-.369.813-.156 1.027.21.207.672.137 1.021-.163l2.335-1.752-1.443-1.445-1.757 2.333"/></g><g fill="#42ade2"><path d="M28.29 26.26l9.453 9.454 23.367-25.03L53.3 2.87z"/><path d="M17.215 54.593L9.4 46.779l19.706-19.705 7.813 7.813z"/></g><g fill="#c7d3d8"><path d="M3.219 57.703l3.077 3.078 10.919-6.184-7.81-7.811zM31.21 23.37l9.436 9.438-2.903 2.906-9.453-9.454z"/></g><path fill="#42ade2" d="M53.831 3.401l6.767 6.767a4.784 4.784 0 1 0-6.767-6.767"/><path fill="#c7d3d8" d="M60.302 12.05l-8.356-8.357 1.41-1.41 8.356 8.357z"/></svg>