<svg xmlns="http://www.w3.org/2000/svg" viewBox="0 0 64 64"><path fill="#5b636b" d="M46 58.25A3.741 3.741 0 0 1 42.267 62H21.733A3.742 3.742 0 0 1 18 58.25V5.75A3.742 3.742 0 0 1 21.733 2h20.533A3.742 3.742 0 0 1 46 5.75v52.5z"/><path fill="#181e2e" d="M20.8 6.489v20.625h22.4V6.489H20.8m21.467 19.687H21.733v-5.625h20.533v5.625m.001-6.562H21.733v-5.625h20.533v5.625m.001-6.563H21.733V7.426h20.533v5.625"/><path fill="#3e4347" d="M38.533 10.239h2.8v1.875h-2.8z"/><circle fill="#ff435e" cx="36.667" cy="11.176" r=".938"/><path fill="#181e2e" d="M21.733 32.27h15.866v3.75H21.733z"/><path fill="#94989b" d="M21.733 41.18h20.533v18.75H21.733z"/><path fill="#181e2e" d="M22.667 42.12h18.667v16.875H22.667z"/><g fill="#94989b"><path d="M18 28.99h28v.938H18zM18 38.37h28v.938H18z"/></g><g fill="#42ade2"><path fill-rule="evenodd" d="M32.805 54.47l-.43.247a.27.27 0 0 0-.241-.163h-.27a.265.265 0 0 0-.239.163l-.432-.247-1.03-.595v2.375l1.03-.594.432-.249a.26.26 0 0 0 .239.163h.27a.266.266 0 0 0 .241-.163l.43.249 1.032.594v-2.375l-1.032.595"/><path d="M30.395 51.11c.173.272.414.471.692.605.279.136.595.203.914.203.317-.002.632-.067.912-.203a1.67 1.67 0 0 0 .693-.605c.035.318-.126.664-.431.91-.301.248-.738.395-1.174.394-.438 0-.875-.146-1.176-.394-.302-.246-.467-.591-.43-.91"/><path fill-rule="evenodd" d="M36.567 47.936v-.086c0-.067-.008-.08-.042-.099a1.277 1.277 0 0 0-.197-.086 1.48 1.48 0 0 0-.162-.05 4.53 4.53 0 0 0-4.165-2.758 4.53 4.53 0 0 0-4.167 2.758 1.67 1.67 0 0 0-.359.136c-.035.019-.042.031-.042.099v.086c0 .163-.022.099.095.167a.417.417 0 0 1 .104.084c-.107.39-.164.8-.164 1.225 0 2.515 2.029 4.554 4.534 4.554 2.503 0 4.531-2.039 4.531-4.554a4.54 4.54 0 0 0-.165-1.225.462.462 0 0 1 .105-.084c.114-.069.094-.004.094-.167m-4.566-2.54c1.523 0 2.85.856 3.523 2.116a9.082 9.082 0 0 0-1.483-.007c-.562.049-1.03.176-1.413.373-.359.18-.897.18-1.256 0-.383-.197-.851-.324-1.413-.373a9.095 9.095 0 0 0-1.484.007 3.998 3.998 0 0 1 3.526-2.116m0 8.03c-2.209 0-4-1.798-4-4.02l.002-.089c.14.536.456.882.93 1.062a2.189 2.189 0 0 0 1.581-.017c.275-.111.518-.285.71-.571.337-.498.237-.808.41-1.235.153-.374.578-.374.729 0 .175.428.075.737.412 1.235.191.286.433.46.71.571a2.194 2.194 0 0 0 1.581.017c.474-.18.789-.527.93-1.063l.002.091c.001 2.217-1.789 4.02-3.997 4.02"/></g></svg>