<svg xmlns="http://www.w3.org/2000/svg" viewBox="0 0 64 64"><path fill="#e8e8e8" d="M52 16H12C8.319 16 2 21.088 2 26.805c0 5.716 2.24 27.2 2.24 27.2h55.52S62 32.526 62 26.805C62 21.088 55.681 16 52 16"/><g fill="#b2c1c0"><path d="M7 54v4c0 1.1.9 2 2 2h46c1.1 0 2-.9 2-2v-4H7"/><path d="M48.666 16h-33.33c-3.067 0-8.333 5.088-8.333 10.805 0 5.716 1.867 27.2 1.867 27.2h46.27s1.867-21.479 1.867-27.2c0-5.717-5.266-10.805-8.334-10.805"/></g><path fill="#62727a" d="M52 50c0 2.199-.45 4-1 4H13c-.55 0-1-1.801-1-4s.45-3 1-3h38c.55 0 1 .801 1 3"/><path fill="#e8e8e8" d="M51.865 58.05C48.121 53.208 46.872 50 46.872 50H17.128s-1.249 3.205-4.993 8.05c-3.744 4.842 2.621 3.874 6.865 3.874h26c4.244 0 10.609.968 6.865-3.874"/><g fill="#b2c1c0"><path d="M19.898 52.32c-.951 2.449-2.419 4.771-3.83 7.01-.313.498.525.946.837.449 1.454-2.309 2.948-4.699 3.927-7.225.211-.54-.727-.772-.934-.236M25.715 52.32c-.389 2.412-1.17 4.793-1.938 7.119-.183.55.754.783.935.236.769-2.326 1.55-4.707 1.939-7.119.09-.56-.844-.802-.936-.236M37.35 52.56c.39 2.412 1.171 4.793 1.939 7.119.181.547 1.117.313.935-.236-.769-2.326-1.55-4.707-1.938-7.119-.093-.567-1.027-.325-.936.236M43.17 52.56c.979 2.525 2.474 4.916 3.927 7.225.313.497 1.15.049.838-.449-1.41-2.24-2.879-4.563-3.83-7.01-.207-.537-1.145-.305-.935.236M31.516 52.44v7.117c0 .574.969.574.969 0V52.44c-.001-.574-.969-.574-.969 0"/></g><path fill="#62727a" d="M16.875 18c-2.072 1.14-2.375 3.761-2.375 4.5 0 .962 0 1.5 5.836 1.5h23.328c5.836 0 5.836-.537 5.836-1.5 0-.74-.303-3.361-2.375-4.5h-30.25"/><path fill="#b2c1c0" d="M45 2H19c-1.1 0-2 .9-2 2v16h30V4c0-1.1-.9-2-2-2"/><path fill="#e8e8e8" d="M44 4H20c-.55 0-1 .45-1 1v15h26V5c0-.55-.45-1-1-1"/><path fill="#b2c1c0" d="M32 8a7.98 7.98 0 0 1-6.454-3.287 7 7 0 0 0 12.908 0A7.98 7.98 0 0 1 32 8"/><path fill="#fff" d="M21 9h22v11H21z"/><path fill="#e8e8e8" d="M53 27c0 .553 0 1-21 1s-21-.447-21-1 0-1 21-1 21 .447 21 1"/><circle fill="#f15744" cx="50" cy="34" r="1"/><circle fill="#c7e755" cx="50" cy="38" r="1"/><path fill="#fff" d="M41.915 50h-19.83s-.589 4.771-3.085 8h26c-2.496-3.229-3.085-8-3.085-8"/><path fill="#c7e755" d="M21 38c0 .55-.45 1-1 1h-7c-.55 0-1-.45-1-1v-4c0-.55.45-1 1-1h7c.55 0 1 .45 1 1v4"/><g fill="#62727a"><path d="M13 41.501h2a.99.99 0 0 0 .846-.5.969.969 0 0 1 .154.5c0 .55-.45 1-1 1h-2c-.55 0-1-.45-1-1 0-.186.065-.351.154-.5a.99.99 0 0 0 .846.5M18 41.501h2a.99.99 0 0 0 .846-.5.969.969 0 0 1 .154.5c0 .55-.45 1-1 1h-2c-.55 0-1-.45-1-1 0-.186.065-.351.154-.5a.99.99 0 0 0 .846.5"/></g></svg>