<svg xmlns="http://www.w3.org/2000/svg" viewBox="0 0 64 64"><path fill="#94989b" d="M19.05 58.735h-2.417c0-3.163-2.881-8.185-5.113-11.791-3.396-5.49-9.533-13.274-9.533-23.9 0-6.257 1.96-11.2 6.843-13.224 3.853-1.596 8.092.073 10.798 2.779l-1.71 1.708c-2.01-2.01-5.215-3.476-8.164-2.255-3.949 1.636-5.35 5.745-5.35 10.991 0 9.938 5.768 17.13 9.171 22.627 2.426 3.921 5.475 9.216 5.475 13.06"/><g fill="#bcc2cc"><path d="M13.168 14.458c-.758-.759-.944-1.801-.417-2.331L15.377 9.5c.529-.527 1.572-.341 2.33.417l-4.539 4.541M19.08 42.755c-13.07-13.07-10.777-22.83-3.342-30.27 7.435-7.435 17.193-9.729 30.27 3.343 16.454 16.454 18.387 30.44 10.951 37.875-7.435 7.435-21.42 5.502-37.874-10.952"/></g><g fill="#d8dfeb"><path d="M28.12 24.866c-5.07 5.07-9.106 10.585-11.569 16.571a51.593 51.593 0 0 0 2.27 2.415c16.524 16.525 30.851 18.19 38.662 10.377 7.811-7.811 6.146-22.14-10.378-38.662a51.593 51.593 0 0 0-2.415-2.27c-5.986 2.463-11.501 6.499-16.57 11.569M43.977 12.562C34.604 4.096 27.001 3.667 20.767 7.2l11.844 11.845c3.547-2.83 7.324-5.071 11.363-6.483M11.123 16.846L22.967 28.69a56.563 56.563 0 0 1 8.974-8.973L20.097 7.872c-1.792 1.017-3.471 2.356-5.04 3.931-1.574 1.572-2.915 3.251-3.93 5.04M15.813 40.728c1.413-4.04 3.654-7.817 6.481-11.364L10.45 17.519c-3.532 6.231-3.104 13.836 5.363 23.21"/></g></svg>