<svg xmlns="http://www.w3.org/2000/svg" viewBox="0 0 64 64"><path fill="#333" d="M0 0v64l32-32z"/><path fill="#697277" d="M64 0H0l32 32z"/><path fill="#333" d="M0 64h64L32 32z"/><g fill="#52595e"><path d="M32 32l32 32V0zM4 4v56l28-28z"/></g><path fill="#333" d="M60 4H4l28 28z"/><path fill="#697277" d="M4 60h56L32 32z"/><path fill="#333" d="M32 32l28 28V4z"/><path fill="#d0d0d0" d="M56 54.293c0 .942-.764 1.707-1.705 1.707H9.707A1.709 1.709 0 0 1 8 54.293V9.707C8 8.764 8.766 8 9.707 8h44.588C55.236 8 56 8.764 56 9.707v44.586z"/><path fill="#42ade2" d="M56 54.293c0 .942-.764 1.707-1.705 1.707H9.707A1.709 1.709 0 0 1 8 54.293V9.707C8 8.764 8.766 8 9.707 8h44.588C55.236 8 56 8.764 56 9.707v44.586z"/><path fill="#fed0ac" d="M8.193 35.669H56V56H8.193z"/><circle fill="#ffce31" cx="46.765" cy="18.517" r="5.03"/><path fill="#89664c" d="M17.848 39.925L32.1 43.991V27.347z"/><path fill="#d3976e" d="M46.35 39.925L32.1 43.991V27.347z"/><path fill="#fff" d="M6 6v52h52V6H6m48.5 48.5h-45v-45h45v45"/></svg>