<svg xmlns="http://www.w3.org/2000/svg" viewBox="0 0 64 64"><path fill="#b9b9bf" d="M63.15 5.647L34.52 0 11.633 7.508l7.394 13.409L63.864 6.208c-.148-.275-.407-.5-.714-.561"/><path fill="#898a90" d="M63.865 6.208L19.027 20.917l15.345 27.83 6.729 12.204 22.05-7.443s.849-.215.849-.682V6.666a.958.958 0 0 0-.135-.455"/><path fill="#9fa1a6" d="M41.527 60.3c0 .467-.383.773-.85.681l-28.629-5.647c-.467-.092-.85-.549-.85-1.016V8.158c0-.466.383-.773.85-.681l28.629 5.648c.467.092.85.549.85 1.015V60.3"/><g fill="#3e4347"><path d="M14.232 34.23c0-.467.381-.773.849-.681L37.644 38c.469.093.85.548.85 1.015v17.448c0 .467-.381.772-.85.681l-22.563-4.451c-.468-.092-.849-.549-.849-1.016V34.23M38.494 34.929c0 .445-.381.734-.85.643L15.081 31.12c-.468-.093-.849-.533-.849-.979s.381-.734.849-.643l22.563 4.451c.469.093.85.532.85.98"/></g><path fill="#d0d0d0" d="M14.232 11.847c0-.467.381-.773.849-.681l22.563 4.451c.469.092.85.549.85 1.016v17.448c0 .465-.381.771-.85.68L15.081 30.31c-.468-.092-.849-.549-.849-1.016V11.847"/><path fill="#3e4347" d="M23.331 26.341v.811c0 .445.382.884.849.977l4.367.861c.466.093.85-.196.85-.643v-.811l-6.07-1.195"/><path fill="#94989b" d="M29.396 27.499c0 .467-.384.773-.85.682l-4.367-.862c-.467-.092-.849-.549-.849-1.016v-3.09c0-.467.382-.773.849-.681l4.367.862c.466.092.85.548.85 1.015v3.09"/><path fill="#d0d0d0" d="M28.831 25.276c0 .233-.19.386-.425.34l-.773-.152a.545.545 0 0 1-.426-.508v-.772c0-.233.191-.386.426-.34l.773.153a.544.544 0 0 1 .425.508v.771"/><path fill="#42ade2" d="M11.865 33.13l22.942 2.458-.667 21.572-21.307-4.77z"/><path fill="#ffce31" d="M16.1 31.34l18.04 14.241-8.753 6.809-18.04-4.02z"/><path fill="#83bf4f" d="M6.961 33.823L28.76 41.15l-2.47 11.24H4.486z"/><path fill="#ed4c5c" d="M2.658 41.32l22.996-.419 4.767 16.259-23.07 2.03z"/><path fill="#898a90" d="M38.494 56.47l-14.503 6.52v-6.05l14.503-6.524z"/><path fill="#3e4347" d="M24.26 63.34c0 .446-.382.735-.85.643L.846 59.533c-.466-.094-.848-.534-.848-.979s.382-.734.849-.643l22.564 4.451c.467.092.849.532.849.978"/><path fill="#d0d0d0" d="M0 40.26c0-.467.381-.772.849-.681l22.564 4.451c.468.093.85.549.85 1.016v17.447c0 .467-.382.773-.85.681L.848 58.723C.381 58.631 0 58.175 0 57.708V40.26"/><path fill="#3e4347" d="M15.16 55.948l-6.07-1.195v.848h.002c.021.433.394.85.848.939l4.367.861c.453.09.826-.181.848-.604v-.849z"/><path fill="#94989b" d="M15.16 55.911c0 .466-.383.773-.849.681l-4.367-.862c-.468-.092-.85-.549-.85-1.015v-3.091c0-.467.382-.771.85-.68l4.367.861c.466.092.849.549.849 1.016v3.09"/><path fill="#d0d0d0" d="M14.598 53.83c0 .233-.189.387-.424.341l-.774-.152a.546.546 0 0 1-.426-.508v-.772c0-.233.191-.386.426-.341l.773.153a.543.543 0 0 1 .424.508v.771z"/></svg>