<svg xmlns="http://www.w3.org/2000/svg" viewBox="0 0 64 64"><path fill="#534741" d="M64 57.33L27.979 64 6.534 50.649l36.022-6.609z"/><path fill="#3e4347" d="M42.556 44.04l-36.02 6.676V37.497l36.02-6.676z"/><path fill="#d0d0d0" d="M64 57.39L42.556 44.04V30.821L64 47.38z"/><path fill="#ed4c5c" d="M45.989 43.39l-36.02 6.68V36.849l18.01-3.336v1.883l18.01-3.236z"/><path fill="#ff8736" d="M51.35 46.46l-36.02 6.68V39.917l18.01-3.337v2.284l18.01-3.449z"/><path fill="#83bf4f" d="M56.712 49.87l-36.02 6.68V43.33l18.01-3.341v2.02l18.01-3.187z"/><path fill="#ffce31" d="M62.07 53.27l-36.02 6.68V46.731l18.01-3.341v2.64l18.01-3.8z"/><path fill="#d0d0d0" d="M27.979 64L6.534 50.649V37.431L27.979 54.05z"/><g fill="#3e4347"><path d="M64 57.33L27.98 64v-9.95L64 47.38zM36.02 26.83L0 33.439V6.609L36.02 0z"/></g><path fill="#94989b" d="M36.02 26.83L0 33.439l6.534 4.058 36.022-6.676z"/><g fill="#d0d0d0"><path d="M0 6.609l3.267 1.996 3.267 28.826L0 33.439zM36.02 0l3.27 1.996 3.266 28.825-6.536-3.991z"/></g><path fill="#94989b" d="M36.02 0L0 6.609l3.267 1.996L39.29 1.996z"/></svg>