<svg xmlns="http://www.w3.org/2000/svg" viewBox="0 0 64 64"><ellipse transform="rotate(-134.999 8.64 8.64)" fill="#94989b" cx="8.639" cy="8.639" rx="3.287" ry="11.764"/><g fill="#d0d0d0"><path d="M38.421 25.579C32.864 20.022 18.546 2.291 17.08.469c.966 1.473-1.687 6.06-6.117 10.491-4.43 4.43-9.02 7.083-10.491 6.117 1.818 1.466 19.55 15.784 25.11 21.342 5.556 5.556 19.875 23.288 21.34 25.11a.894.894 0 0 0 .123.15c1.283 1.283 6.05-1.399 10.643-5.994 4.594-4.594 7.277-9.358 5.994-10.643a.87.87 0 0 0-.15-.122c-1.819-1.466-19.551-15.784-25.11-21.341"/><path d="M11.306 3.037c.757-.338 1.332-.404 1.605-.131.723.724-.931 3.55-3.694 6.313s-5.589 4.417-6.313 3.694c-.101-.101-.154-.246-.166-.424-.513 1.089-.631 1.916-.248 2.299.964.964 4.732-1.241 8.417-4.925 3.684-3.683 5.889-7.452 4.925-8.416-.614-.618-2.374.06-4.526 1.59"/><path d="M7.131 9.305c-.395-.393.41-1.838 1.796-3.225 1.266-1.266 2.579-2.045 3.098-1.872-.001-.132-.036-.237-.108-.309-.461-.461-2.262.593-4.02 2.353-1.76 1.762-2.814 3.563-2.354 4.02.333.333 1.369-.126 2.583-1.073-.464.222-.824.272-.992.103"/></g><g fill="#94989b"><path d="M25.15 34.11l1.793-1.996-17.487-15.7A34.877 34.877 0 0 1 7.206 18L25.15 34.11M18.371 7.159a38.105 38.105 0 0 1-1.647 2.183l15.605 17.382.024.027 3.61 3.609 22.693 22.08 1.744-2.049-22.546-21.932-3.552-3.552L18.371 7.162M12.21 14.11l16.42 16.418 1.896-1.896-16.387-16.388a44.793 44.793 0 0 1-1.929 1.866"/></g><path fill="#3e4347" d="M41.21 27.1s.689 1.842-5.789 8.319c-6.478 6.478-8.318 5.788-8.318 5.788l-6.8-6.799s1.702.826 8.319-5.789c6.615-6.617 5.789-8.319 5.789-8.319l6.799 6.8"/><path fill="#94989b" d="M48.47 61.18c.473-.172 1.243-.531 2.309-1.229 1.595-1.045 3.326-2.484 5.01-4.163L37.355 37.353a109.118 109.118 0 0 1-4.899 4.607c5.929 6.782 13.696 16.347 16.02 19.22"/></svg>