<svg xmlns="http://www.w3.org/2000/svg" viewBox="0 0 64 64"><path fill="#d0d0d0" d="M39.671 58.51h21.46v2.197h-21.46z"/><path fill="#3e4347" d="M47.48 45.647h5.844v4.78H47.48z"/><g fill="#94989b"><path d="M17.997 7.709h17.232l6.331 6.893c.147.162.296.322.443.483.707.769 1.621 1.183 2.621 1.183h11.619c1.931 0 3.541-1.753 3.541-3.854 0-2.102-1.61-3.855-3.541-3.855H46.024l-6.333-6.893c-.147-.162-.296-.322-.443-.482C38.552.422 37.645 0 36.653 0H17.996c-1.931 0-3.541 1.753-3.541 3.855.001 2.101 1.611 3.854 3.542 3.854M56.24 37.938H45.698c-1.019 0-1.989-.076-2.932.525-.604.386-1.102 1.022-1.594 1.557l-4.567 4.975-1.38 1.502H17.993c-1.931 0-3.541 1.753-3.541 3.855 0 2.102 1.61 3.855 3.541 3.855h17.974c1.187 0 2.276-.094 3.229-1.131 2.274-2.477 4.55-4.953 6.825-7.429h10.215c1.931 0 3.541-1.755 3.541-3.855 0-2.102-1.61-3.854-3.541-3.854"/></g><path fill="#d0d0d0" d="M44.559 16.268h11.686v21.666H44.559z"/><g fill="#3e4347"><path d="M56.24 19.88l-11.681 3.613v-3.612l11.681-3.613zM56.24 27.1l-11.681 3.617V27.11l11.681-3.618zM56.24 34.32l-11.681 3.618V34.33l11.681-3.617z"/></g><path fill="#94989b" d="M56.24 62.46c0 .852-.634 1.543-1.417 1.543H45.97c-.783 0-1.416-.691-1.416-1.543v-5.706c0-.852.633-1.542 1.416-1.542h8.853c.783 0 1.417.69 1.417 1.542v5.706"/><g fill="#d0d0d0"><path d="M47.48 55.21h2.923v8.791H47.48zM51.862 55.21h1.461v8.791h-1.461z"/></g><ellipse fill="#94989b" cx="39.67" cy="59.6" rx="2.869" ry="3.123"/><ellipse fill="#d0d0d0" cx="40.557" cy="58.51" rx=".886" ry=".964"/><ellipse fill="#94989b" cx="61.13" cy="59.6" rx="2.868" ry="3.123"/><ellipse fill="#d0d0d0" cx="62.19" cy="58.51" rx=".885" ry=".964"/><path fill="#94989b" d="M47.48 50.43h5.844v4.781H47.48z"/><path fill="#428bc1" d="M34.563 20.604v-13s-19.634-2.309-26.686 0C5.796 8.286 2 11.915 2 14.106s3.796 5.817 5.878 6.498c7.05 2.308 26.685 0 26.685 0"/><path fill="#ddeaf2" d="M34.563 19.261V8.947s-18.15-1.832-24.675 0c-1.925.541-5.435 3.42-5.435 5.159 0 1.738 3.51 4.615 5.435 5.155 6.522 1.832 24.675 0 24.675 0"/><path fill="#ed4c5c" d="M37.538 33.691v-13.18s-24.607-2.216-31.66.093C3.796 21.286 0 24.914 0 27.105s3.796 5.817 5.878 6.498c7.05 2.309 31.66.088 31.66.088"/><path fill="#ddeaf2" d="M37.538 32.09v-9.976s-23.05-1.678-29.661.07c-1.95.516-5.507 3.263-5.507 4.921s3.557 4.402 5.507 4.918c6.607 1.748 29.661.067 29.661.067"/><path fill="#ffce31" d="M35.23 46.5V33.765s-17.299-2.466-24.352-.157c-2.081.681-5.877 4.31-5.877 6.501s3.796 5.817 5.878 6.498c7.05 2.309 24.351-.107 24.351-.107"/><path fill="#ddeaf2" d="M35.23 45.04v-9.833s-15.847-1.902-22.308-.12c-1.907.526-5.385 3.327-5.385 5.02 0 1.691 3.478 4.49 5.385 5.02 6.462 1.782 22.308-.084 22.308-.084"/><g fill="#94989b"><path d="M34.551 12.09l-19.264-1h19.289zM34.588 16.09l-14.05.178 14-1.178zM37.538 24.928l-9.987-.5 9.987-.5zM37.582 28.26l-20.628 1.334 20.54-2.334zM35.16 39.673l-11.706-2.079L35.3 38.683zM35.26 42.26l-18.89.75 18.83-1.75z"/></g></svg>