<svg xmlns="http://www.w3.org/2000/svg" viewBox="0 0 64 64"><path fill="#ed4c5c" d="M63.31 17.14c1.334-1.746.676-2.981-1.465-2.744L50.64 15.644c-2.141.238-3.93-1.389-3.98-3.614l-.225-10.1c-.049-2.225-1.127-2.575-2.396-.778l-8.05 11.413c-1.268 1.798-3.306 1.771-4.529-.06l-5.393-8.07c-1.223-1.83-2.504-1.53-2.846.667l-1.23 7.93c-.342 2.197-2.209 3.21-4.15 2.251L3.438 8.161C1.497 7.202.829 7.97 1.954 9.867l7.384 12.466c1.123 1.898.504 4.335-1.375 5.416l-6.664 3.827c-1.883 1.081-1.691 2.304.422 2.72l10.646 2.093c2.111.416 4.199 2.691 3.453 4.782C13.503 47.668.504 64.003.504 64.003s19.676-10.06 24.938-15.15c1.576-1.525 3.604-2.253 5.318-.914l7.167 5.585c1.719 1.338 3.059.613 2.977-1.611l-.252-6.952c-.08-2.224 1.477-3.342 3.461-2.483l15.461 6.685c1.984.858 2.6.069 1.365-1.755l-7.488-11.08c-1.234-1.824-1.152-4.745.18-6.492l9.682-12.689"/></svg>