<svg xmlns="http://www.w3.org/2000/svg" viewBox="0 0 64 64"><path fill="#94989b" d="M36.811 30.423s14.588 8.555 27.19 33.578L33.618 33.618l3.194-3.195"/><path fill="#d0d0d0" d="M30.422 36.813S38.977 51.4 64 64.003L33.617 33.62l-3.195 3.195"/><path fill="#3e4347" d="M3.621 13.703a2.666 2.666 0 0 1 0-3.769L9.935 3.62a2.663 2.663 0 0 1 3.768-.001l22.602 25.12a2.664 2.664 0 0 1 .001 3.768l-3.803 3.801a2.664 2.664 0 0 1-3.768.001L3.625 13.707"/><g fill="#d3976e"><path d="M5.757 13.11l7.35-7.35a2.668 2.668 0 0 0 .003-3.771l-.195-.192c-.806-.807-2-.988-2.984-.543a6.202 6.202 0 0 0-8.117.562 6.196 6.196 0 0 0-.56 8.117 2.667 2.667 0 0 0 .54 2.986l.195.192a2.664 2.664 0 0 0 3.768-.001M44.24 8.7c-2.842-1.294-5.829-.421-7.622 2.232-2.01 2.98-1.278 5.742-.039 7.202 1.319 1.554 3.349 2.073 5.05 1.291a1.748 1.748 0 0 0 .859-2.321 1.749 1.749 0 0 0-2.32-.86c-.252.115-.64-.042-.923-.375-.605-.714-.504-1.828.272-2.979 1.121-1.66 2.529-1.341 3.271-1 1.554.708 2.801 2.646 2.177 4.98-1.078 4.04-5.154 9.676-11.789 16.317-6.642 6.635-12.283 10.71-16.317 11.789-2.334.624-4.271-.624-4.979-2.177-.337-.74-.656-2.149 1-3.27 1.151-.777 2.265-.879 2.979-.273.333.283.49.672.375.923a1.75 1.75 0 0 0 3.18 1.461c.782-1.703.263-3.733-1.291-5.05-1.459-1.238-4.221-1.972-7.201.039-2.653 1.793-3.526 4.781-2.232 7.622 1.317 2.894 4.855 5.233 9.07 4.108 4.692-1.254 10.711-5.526 17.888-12.695 7.17-7.178 11.441-13.196 12.695-17.889 1.126-4.214-1.214-7.752-4.108-9.07"/></g></svg>