<svg xmlns="http://www.w3.org/2000/svg" viewBox="0 0 64 64"><path fill="#dae3ea" d="M38.667 47.48H25.333L24 44h16z"/><path fill="#ed4c5c" d="M38.667 48.17H25.333C23.624 54.44 21.177 58.987 16 64.003h7.742s2.739-9.5 8.258-9.5 8.258 9.5 8.258 9.5H48c-5.177-5.02-7.624-9.563-9.333-15.833"/><g fill="#dae3ea"><path d="M18 25.653c0 .913-.74 1.653-1.653 1.653H1.653a1.652 1.652 0 1 1 0-3.306h14.693c.914 0 1.654.74 1.654 1.653"/><path d="M24.51 22.347c0 .913-.74 1.653-1.653 1.653H8.163a1.653 1.653 0 1 1 0-3.306h14.693a1.652 1.652 0 0 1 1.654 1.653M64 40.667c0 .913-.74 1.653-1.653 1.653H47.653a1.653 1.653 0 1 1 0-3.306h14.693c.914 0 1.654.74 1.654 1.653M60.17 37.36c0 .913-.74 1.653-1.653 1.653H43.823a1.653 1.653 0 1 1 0-3.306h14.693c.914 0 1.654.74 1.654 1.653"/></g><path fill="#ed4c5c" d="M37.518 43.32h-11.04l1.568-5.638h7.899z"/><path fill="#dae3ea" d="M35.854 36.999H28.15l.774-7h5.968z"/><path fill="#ed4c5c" d="M34.983 29.999H29.02l.809-6.789h4.341z"/><g fill="#dae3ea"><path d="M28.403 19.643h7.193v2.883h-7.193zM28.403 14.989h7.193v1.77h-7.193z"/></g><path fill="#ed4c5c" d="M28.403 13.608h7.193v1.381h-7.193z"/><path fill="#c94747" d="M30.683 8.214h2.635v5.394h-2.635z"/><path fill="#dae3ea" d="M30.683 1.461h2.635v6.753h-2.635z"/><path fill="#ed4c5c" d="M30.683 0h2.635v1.461h-2.635z"/><g fill="#c5d0d8"><path d="M29.979 16.759h4.04v2.884h-4.04zM28.27 29.999h7.461v.683H28.27z"/></g><g fill="#b2c1c0"><path d="M30.683 7.532h2.635v.683h-2.635zM28.403 21.843h7.193v.683h-7.193zM28.27 30.682h7.461v.683H28.27zM28.05 32.787h7.898v.683H28.05zM27.676 34.894h8.648v.683h-8.648z"/></g><g fill="#c5d0d8"><path d="M28.05 32.1h7.898v.683H28.05zM27.676 34.21h8.648v.683h-8.648zM27.359 36.32h9.281v.683h-9.281z"/></g><g fill="#c94747"><path d="M25.333 47.48h13.334v.683H25.333zM29.829 22.525h4.342v.683h-4.342zM29.573 43.505h-1.281v-3.346a.641.641 0 0 1 1.282 0v3.346M31.618 43.505h-1.281v-3.346a.641.641 0 0 1 1.282 0v3.346zM33.663 43.505h-1.281v-3.346a.641.641 0 0 1 1.282 0v3.346M35.708 43.505h-1.281v-3.346a.641.641 0 0 1 1.282 0v3.346M31.568 29.999h-1.281v-3.346a.641.641 0 0 1 1.282 0v3.346zM33.713 29.999h-1.281v-3.346a.641.641 0 0 1 1.282 0v3.346"/></g><path fill="#b2c1c0" d="M24 43.32h16v.683H24z"/></svg>