<svg xmlns="http://www.w3.org/2000/svg" viewBox="0 0 64 64"><g fill="#428bc1"><path d="M26.05 23.529h15.962v13.868H26.05z"/><path d="M23.264 27.04s-6.903.244-5.456 11.218l4.02 12.915 7.561-16.747-6.125-7.386"/></g><g fill="#42ade2"><path d="M12.707 18.601l7.137 15.362s3.063-.692 3.063-5.171l-6.886-12.08-3.314 1.89M40.38 34.645c-2.459-2.229-10.251-2.229-12.711 0C20.356 41.271 20.174 62 20.174 62h27.7s-.183-20.729-7.494-27.355"/></g><path fill="#428bc1" d="M42.02 20.19l-.92-.669.49-6.594-3.41 5.354-2.01-.652-2.14-7.693-2.137 7.693-2.01.652-3.412-5.354.493 6.594-.921.669-6.97-1.218 7.398 5.496h15.122l7.395-5.496z"/><path fill="#42ade2" d="M41.24 24.04c0 5.686-5.264 8.426-7.213 8.426-1.95 0-7.214-2.74-7.214-8.426 0 0 14.427-4.384 14.427 0"/><path fill="#428bc1" d="M44.1 54.939l-8.08-8 10.904-10.798 8.08 8z"/><g fill="#42ade2"><path d="M52.952 49.34a.994.994 0 0 1-1.395 0l-2.047-2.029a.97.97 0 0 1 0-1.382l.034-.035a.993.993 0 0 1 1.394 0l2.049 2.029a.97.97 0 0 1 0 1.382l-.035.035"/><path d="M51.888 50.909c-.387.381-1.058.334-1.502-.105l-2.359-2.337c-.443-.439-.491-1.105-.105-1.487l.034-.034c.386-.381 1.058-.334 1.501.105l2.36 2.337c.443.439.488 1.105.104 1.487l-.033.034"/><path d="M50.559 52.22c-.385.382-1.057.335-1.5-.104L46.7 49.778c-.444-.439-.491-1.104-.105-1.486l.034-.034c.387-.382 1.057-.334 1.5.105l2.36 2.337c.443.439.49 1.105.105 1.486l-.035.034"/><path d="M48.972 52.803a.852.852 0 0 1-1.199 0l-1.764-1.746a.836.836 0 0 1 0-1.189l.03-.029a.855.855 0 0 1 1.2 0l1.763 1.747a.833.833 0 0 1 0 1.188l-.03.029"/></g><g fill="#428bc1"><path d="M38.609 38.25s-7.189 10.674-3.613 23.747h-5.508s-1.725-14.858 9.121-23.747"/><path d="M38.03 50.42s-3.507 5.206-1.763 11.583h-2.686c.001 0-.841-7.247 4.449-11.583M32.09 35.569S24.09 47.45 28.07 62h-6.128s-1.92-16.537 10.152-26.431"/></g><path fill="#42ade2" d="M23.788 27.668l2.929 3.532s1.579 5.638-2.929 10.162c0-.001 2.086-7.206 0-13.694"/><g fill="#428bc1"><path d="M35.866 28.576c0 .24-.823.609-1.837.609-1.016 0-1.837-.37-1.837-.609 0-.154 3.674-.154 3.674 0M35.17 30.438c0 .164-.526.417-1.175.417s-1.176-.253-1.176-.417c0-.106 2.351-.106 2.351 0M39.468 25.13c0 .555-.794 1.406-1.771 1.406-.979 0-1.771-.852-1.771-1.406-.001-.355 3.542-.355 3.542 0M32.13 25.13c0 .555-.794 1.406-1.771 1.406-.979 0-1.772-.852-1.772-1.406 0-.355 3.543-.355 3.543 0"/></g><path fill="#ff9d27" d="M11.661 11.754s-2.127-1.373-1.859-3.998c.309-3.01 2.672-4.051 2.672-4.051s-.63 2.518 0 2.878c.419.241 1.765.01 1.93-2.324.053-.738-.943-2.259-.943-2.259s2.263.772 3.122 2.748c.636 1.465.014 4.02.014 4.02s1.116-.297 1.614-1.742c0 0 .58 3.256-1.965 4.727h-4.585"/><path fill="#428bc1" d="M15.952 22.01c0 1.035-.824 1.875-1.84 1.875h-.467c-1.016 0-1.84-.84-1.84-1.875l.022-8.146h4.147l-.022 8.146"/><g fill="#42ade2"><path d="M9.742 15.9c0 .54.442.977.986.977h2.897a.98.98 0 0 0 .985-.977v-.049a.98.98 0 0 0-.985-.977h-2.897a.982.982 0 0 0-.986.977v.049"/><path d="M9.373 17.76c0 .54.508.978 1.136.978h3.337c.627 0 1.136-.438 1.136-.978v-.047c0-.54-.508-.978-1.136-.978h-3.337c-.627 0-1.136.438-1.136.978v.047"/><path d="M9.371 19.62c.001.54.51.978 1.137.978h3.337c.626 0 1.136-.438 1.136-.978v-.047c0-.541-.508-.978-1.136-.978h-3.337c-.627 0-1.136.438-1.136.978l-.001.047"/><path d="M10.08 21.14c0 .465.38.841.849.841h2.493a.845.845 0 0 0 .849-.841v-.042c0-.463-.38-.84-.849-.84h-2.493a.845.845 0 0 0-.849.84v.042"/><ellipse cx="15.975" cy="16.04" rx="1.172" ry="1.159"/><path d="M18.204 12.01v.932h-.92v-.932h-.92v.932h-.92v-.932h-.92v.932h-.92v-.932h-.92v.932h-.92v-.932h-.92v.932h-.92v-.932H9v2.398h10.13V12.01z"/></g></svg>