<svg xmlns="http://www.w3.org/2000/svg" viewBox="0 0 64 64"><circle fill="#ffdd67" cx="32" cy="32" r="30"/><path fill="#664e27" d="M17.316 40.949c2.475 1.455 4.865 2.338 7.314 2.924 2.438.586 4.898.836 7.371.84 2.469-.01 4.928-.26 7.367-.844 2.447-.588 4.838-1.469 7.314-2.92-1.061 2.717-3.416 4.854-6.04 6.221-2.652 1.379-5.662 2.043-8.641 2.041-2.979-.004-5.986-.668-8.639-2.047-2.621-1.369-4.976-3.502-6.04-6.215"/><g fill="#917524"><path d="M53.2 20.727a14.228 14.228 0 0 0-11.691-3.133c-.58.113-1.09-2.02-.387-2.156a16.417 16.417 0 0 1 13.492 3.615c.541.468-.969 2.06-1.414 1.674M22.488 17.443c-4.168-.748-8.455.4-11.693 3.133-.443.389-1.953-1.205-1.412-1.674a16.422 16.422 0 0 1 13.492-3.615c.703.135.191 2.27-.387 2.156"/></g><g fill="#664e27"><path d="M36.41 27.351c3.264 6.197 12.653 6.197 15.917 0 .195-.378-.319-.921-.95-1.352-4.135 3.27-9.88 3.271-14.02 0-.631.432-1.145.974-.952 1.352M11.673 27.351c3.264 6.197 12.653 6.197 15.917.001.195-.379-.32-.922-.951-1.353a11.229 11.229 0 0 1-14.01.001c-.631.431-1.146.973-.952 1.351"/></g></svg>