<svg xmlns="http://www.w3.org/2000/svg" viewBox="0 0 64 64"><circle fill="#ffdd67" cx="32" cy="31.999" r="30"/><path fill="#664e27" d="M48 37.499c0 6.461-5.314 14-15.998 14-10.689 0-16-7.539-16-14H48"/><path fill="#fff" d="M16.92 37.499h30.16v5.6H16.92z"/><path fill="#664e27" d="M32 52.5c-11.04 0-17-7.729-17-15v-1h33.998v1c0 7.272-5.957 15-16.998 15m-14.955-14c.523 5.99 5.727 12 14.955 12 9.227 0 14.432-6.01 14.955-12h-29.91"/><g fill="#f46767"><path d="M61.848 13.22c-.463-2.655-2.031-4.89-4.463-5.553-2.654-.728-5.082.315-7.438 2.703-1.32-3.63-3.338-6.326-6.52-7.708-3.259-1.424-6.427-.466-8.425 2.061-2.076 2.628-2.902 6.677-.68 11.974C36.404 21.656 45.734 31.707 46.004 32c.363-.226 10.754-6.72 13.299-9.909 2.49-3.12 3.01-6.227 2.545-8.871M29 4.723c-1.996-2.526-5.166-3.484-8.426-2.062-3.184 1.382-5.201 4.078-6.523 7.708-2.355-2.387-4.783-3.43-7.438-2.703-2.43.663-4 2.898-4.463 5.553-.459 2.644.057 5.751 2.545 8.872C7.242 25.28 17.635 31.774 17.998 32c.268-.291 9.6-10.344 11.682-15.303C31.902 11.4 31.076 7.351 29 4.723"/></g></svg>