<svg xmlns="http://www.w3.org/2000/svg" viewBox="0 0 64 64"><circle fill="#ffdd67" cx="32" cy="32" r="30"/><path fill="#664e27" d="M23.326 45.617c2.229.678 4.283.92 6.328.914 2.035-.002 4.02-.273 5.975-.74 1.945-.479 3.838-1.145 5.652-2.07 1.816-.932 3.535-2.08 5.213-3.697-.318 2.346-1.771 4.48-3.584 6.06-1.828 1.594-4.076 2.691-6.426 3.258-2.352.563-4.848.613-7.203.029-2.334-.579-4.597-1.813-5.955-3.753"/><g fill="#917524"><path d="M53.2 20.65a14.228 14.228 0 0 0-11.691-3.133c-.58.113-1.09-2.02-.387-2.156a16.417 16.417 0 0 1 13.492 3.615c.541.469-.969 2.061-1.414 1.674M22.487 17.367c-4.168-.748-8.455.4-11.691 3.133-.443.389-1.955-1.205-1.412-1.674a16.418 16.418 0 0 1 13.492-3.615c.703.135.191 2.269-.389 2.156"/></g><g fill="#664e27"><path d="M52.971 27.1c-2.979-3.457-12.451-2.24-15.26 2.482-.204.352.334.854.99 1.253 1.901-1.332 4.127-2.076 6.391-2.235.01 2.496 1.981 4.519 4.418 4.519 3.525-.001 5.207-3.992 3.461-6.02M25.637 27.1c-2.979-3.456-12.45-2.241-15.26 2.483-.204.351.334.853.991 1.252 1.901-1.331 4.126-2.076 6.391-2.235.009 2.495 1.981 4.519 4.417 4.519 3.525-.001 5.208-3.992 3.461-6.02"/></g></svg>