<svg xmlns="http://www.w3.org/2000/svg" viewBox="0 0 64 64"><circle fill="#ffdd67" cx="32" cy="32" r="30"/><path fill="#664e27" d="M48 37.499c0 6.46-5.314 13.999-16 13.999-10.689 0-16-7.539-16-13.999h32"/><path fill="#fff" d="M16.918 37.499h30.17v5.599h-30.17z"/><path fill="#664e27" d="M32 52.5c-11.04 0-17-7.729-17-14.999v-1h34v1C49 44.772 43.043 52.5 32 52.5M17.045 38.501C17.568 44.49 22.771 50.5 32 50.5s14.434-6.01 14.957-11.999H17.045"/><path fill="#65b1ef" d="M62 18.534c.002 9.378-12.744 9.38-12.744 0 0-6.849 6.373-13.533 6.373-13.533S62 11.688 62 18.534z"/><g fill="#664e27"><path d="M27.59 25.648c-3.264-6.197-12.653-6.197-15.917 0-.195.378.32.921.95 1.353 4.135-3.271 9.88-3.271 14.01-.001.631-.431 1.145-.974.952-1.352M52.33 25.648c-3.264-6.197-12.653-6.197-15.917-.001-.195.379.32.922.951 1.353a11.229 11.229 0 0 1 14.01-.001c.631-.431 1.146-.973.952-1.351"/></g></svg>