<svg xmlns="http://www.w3.org/2000/svg" viewBox="0 0 64 64"><path fill="#ffdd67" d="M62 32c0 16.57-13.43 30-30 30C15.442 62 2 48.57 2 32S15.442 2 32 2c16.57 0 30 13.43 30 30z"/><path fill="#664e27" d="M17.317 39.949c2.475 1.457 4.865 2.34 7.314 2.926 2.439.586 4.9.834 7.371.84 2.468-.012 4.927-.26 7.367-.846 2.447-.588 4.838-1.467 7.316-2.92-1.061 2.717-3.418 4.855-6.05 6.223-2.652 1.379-5.66 2.043-8.64 2.041-2.977-.006-5.984-.668-8.637-2.047-2.624-1.369-4.98-3.504-6.05-6.217"/><path fill="#65b1ef" d="M60.42 7.619c-.33-2.777-5.316-4.684-12.734-5.354-3.582-.324-7.732-.357-12.195-.063a29.862 29.862 0 0 1 13.434 5.02c1.799.227 3.398.541 4.686.924.15.045.291.088.426.133-.564.385-1.268.82-2.119 1.281a23.83 23.83 0 0 1-.668.352c-.758.334-1.625.682-2.613 1.039-4.684 1.68-10.715 3.02-16.986 3.758a96.63 96.63 0 0 1-4.629.439c-8.125.318-14.27-.41-17.92-1.055a49.062 49.062 0 0 1-1.025-.191 30.11 30.11 0 0 1 12.19-9.52C9.207 6.886 1.59 10.921 2.02 14.546c.16 1.342 1.406 2.48 3.486 3.375 2.229.957 5.414 1.633 9.248 1.98 4.958.447 11 .342 17.461-.424 9.695-1.15 18.13-3.527 23.19-6.25 3.358-1.804 5.237-3.759 5.02-5.609"/><path fill="#aefbff" d="M55.945 6.746c-1.482 1.639-3.41 2.809-5.34 3.875a37.8 37.8 0 0 1-6.139 2.527c-4.225 1.354-8.619 2.09-13.02 2.477-4.398.371-8.822.418-13.223.078-4.391-.342-8.789-1.035-12.956-2.449a60.59 60.59 0 0 0 6.497.871c2.171.199 4.345.316 6.521.377 4.35.115 8.703-.012 13.04-.357 4.326-.352 8.628-.992 12.822-2.086 2.092-.559 4.158-1.223 6.154-2.072 2-.841 3.951-1.848 5.644-3.241"/><g fill="#664e27"><path d="M27.7 26.789c-4.756-5.142-13.826-2.711-15.375 4.119-.091.416.546.807 1.268 1.061a11.236 11.236 0 0 1 13.537-3.628c.497-.579.855-1.237.57-1.552M51.674 30.908c-1.549-6.83-10.617-9.261-15.373-4.121-.287.316.07.975.568 1.553a11.234 11.234 0 0 1 13.535 3.627c.723-.253 1.36-.643 1.27-1.059"/></g></svg>