<svg xmlns="http://www.w3.org/2000/svg" viewBox="0 0 64 64"><circle fill="#ffdd67" cx="32" cy="32" r="30"/><path fill="#664e27" d="M51 33.32c0 8.05-6.311 17.445-19 17.445-12.695 0-19-9.395-19-17.445h38"/><path fill="#4c3526" d="M34.1 38.805c-.66-.016-1.676.574-1.303 2.143.186.791 1.355 1.746 1.355 3.02 0 2.594-4.305 2.594-4.305 0 0-1.277 1.17-2.232 1.357-3.02.371-1.568-.645-2.158-1.305-2.143-1.791.045-4.729 1.9-4.729 5.04 0 3.527 3.059 6.389 6.828 6.389s6.828-2.861 6.828-6.389c.002-3.139-2.937-4.994-4.726-5.04"/><path fill="#ff717f" d="M41.1 49.02c-2.406-1.408-5.43-2.297-9.104-2.297s-6.697.889-9.105 2.297c2.408 1.41 5.432 2.301 9.105 2.301s6.697-.891 9.104-2.301"/><path fill="#fff" d="M13 33h38v5H13z"/><g fill="#664e27"><path d="M32 51.764c-12.992 0-20-9.504-20-18.445v-1h40v1c0 8.941-7.01 18.445-20 18.445M14.031 34.318c.504 7.664 6.766 15.446 17.969 15.446s17.463-7.781 17.967-15.445H14.031zM48.24 22.14c-1.447-.465-3-.657-4.561-.529-.324.026-.646.077-.971.133.111-.06.219-.128.33-.186a33.725 33.725 0 0 1 3.738-1.633c1.314-.499 2.699-.925 4.201-1.506-1.467-.668-3.064-.893-4.664-.807-1.6.092-3.203.527-4.654 1.282a11.224 11.224 0 0 0-3.729 3.103c-.967 1.285-1.701 2.785-1.797 4.412 1.467-.496 2.74-.929 4.02-1.219a26.518 26.518 0 0 1 3.783-.592 46.75 46.75 0 0 1 3.922-.141c1.355-.004 2.74.025 4.279-.004-1.078-1.126-2.453-1.835-3.893-2.313M22.34 18.893a11.566 11.566 0 0 0-4.652-1.282c-1.6-.086-3.199.139-4.664.807 1.5.581 2.887 1.01 4.199 1.506a33.195 33.195 0 0 1 3.738 1.633c.111.058.219.126.33.186a10.294 10.294 0 0 0-.971-.133 11.794 11.794 0 0 0-4.561.529c-1.439.479-2.814 1.188-3.893 2.314 1.537.029 2.922 0 4.279.004 1.35 0 2.648.033 3.922.141 1.271.112 2.516.293 3.781.592 1.275.29 2.549.723 4.02 1.219-.096-1.627-.83-3.127-1.799-4.412a11.188 11.188 0 0 0-3.727-3.104"/></g></svg>