<svg xmlns="http://www.w3.org/2000/svg" viewBox="0 0 64 64"><circle fill="#ffdd67" cx="32" cy="32" r="30"/><g fill="#917524"><path d="M53.2 26.2a14.228 14.228 0 0 0-11.691-3.133c-.58.113-1.09-2.02-.387-2.156a16.417 16.417 0 0 1 13.492 3.615c.541.469-.969 2.061-1.414 1.674M22.488 22.916c-4.168-.748-8.455.4-11.691 3.133-.443.389-1.955-1.205-1.412-1.674a16.418 16.418 0 0 1 13.492-3.615c.703.135.191 2.269-.389 2.156"/></g><g fill="#664e27"><path d="M38.35 50H25.66c-.873 0-.873-3 0-3h12.689c.874 0 .874 3 .001 3M36.41 34.05c3.264 6.197 12.653 6.197 15.917 0 .195-.378-.319-.921-.95-1.352-4.135 3.27-9.88 3.271-14.02 0-.631.432-1.145.974-.952 1.352M11.673 34.05c3.264 6.197 12.653 6.197 15.917.001.195-.379-.32-.922-.951-1.353a11.229 11.229 0 0 1-14.01.001c-.631.431-1.146.973-.952 1.351"/></g></svg>