<svg xmlns="http://www.w3.org/2000/svg" viewBox="0 0 64 64"><path fill="#ffdd67" d="M61.999 32c0 16.572-13.426 30-29.998 30-16.573 0-30-13.428-30-30s13.428-30 30-30 29.998 13.428 29.998 30"/><path fill="#664e27" d="M42.683 48c-1.801-1.061-3.541-1.701-5.322-2.127-1.775-.428-3.566-.609-5.361-.613-1.799.008-3.588.189-5.361.615-1.781.428-3.52 1.068-5.322 2.125.771-1.979 2.484-3.533 4.396-4.527 1.932-1 4.119-1.486 6.287-1.484 2.166.004 4.353.486 6.283 1.488 1.909.996 3.624 2.548 4.4 4.523"/><g fill="#917524"><path d="M53.2 18.534a14.228 14.228 0 0 0-11.691-3.133c-.58.113-1.09-2.02-.387-2.156a16.417 16.417 0 0 1 13.492 3.615c.541.469-.969 2.061-1.414 1.674M22.488 15.251c-4.168-.748-8.455.4-11.691 3.133-.443.389-1.955-1.205-1.412-1.674a16.418 16.418 0 0 1 13.492-3.615c.703.134.191 2.269-.389 2.156"/></g><g fill="#664e27"><path d="M52.97 27.1c-2.979-3.457-12.451-2.24-15.26 2.482-.203.352.335.854.991 1.253 1.901-1.332 4.126-2.076 6.391-2.235.009 2.496 1.981 4.519 4.417 4.519 3.525-.001 5.208-3.992 3.461-6.02M25.636 27.1c-2.978-3.456-12.45-2.241-15.259 2.483-.204.351.334.853.991 1.252 1.901-1.331 4.126-2.076 6.391-2.235.009 2.495 1.981 4.519 4.417 4.519 3.526-.001 5.208-3.992 3.46-6.02"/></g></svg>