<svg xmlns="http://www.w3.org/2000/svg" viewBox="0 0 64 64"><circle fill="#ffdd67" cx="32" cy="32" r="30"/><g fill="#664e27"><path d="M48.24 27.14c-1.447-.465-3-.658-4.561-.529-.324.025-.646.076-.971.133.111-.061.219-.129.33-.186a33.539 33.539 0 0 1 3.738-1.633c1.314-.5 2.699-.926 4.201-1.506-1.467-.668-3.064-.893-4.664-.807-1.6.092-3.203.527-4.654 1.281a11.227 11.227 0 0 0-3.729 3.104c-.967 1.285-1.701 2.785-1.797 4.412 1.467-.496 2.74-.93 4.02-1.219 1.268-.299 2.51-.48 3.783-.592a46.75 46.75 0 0 1 3.922-.141c1.355-.004 2.74.025 4.279-.004-1.078-1.126-2.453-1.835-3.893-2.313M22.34 23.893a11.581 11.581 0 0 0-4.652-1.281c-1.6-.086-3.199.139-4.664.807 1.5.58 2.887 1.01 4.199 1.506a33.014 33.014 0 0 1 3.738 1.633c.111.057.219.125.33.186a10.294 10.294 0 0 0-.971-.133 11.774 11.774 0 0 0-4.561.529c-1.439.479-2.814 1.188-3.893 2.314 1.537.029 2.922 0 4.279.004 1.35 0 2.648.033 3.922.141 1.271.111 2.516.293 3.781.592 1.275.289 2.549.723 4.02 1.219-.096-1.627-.83-3.127-1.799-4.412a11.191 11.191 0 0 0-3.727-3.105M48 37.5c0 6.461-5.314 14-16 14-10.689 0-16-7.539-16-14h32"/><path d="M32 52.5c-11.04 0-17-7.729-17-15v-1h34v1c0 7.271-5.957 15-17 15m-14.955-14c.523 5.99 5.727 12 14.955 12s14.434-6.01 14.957-12H17.045"/></g><path fill="#ff717f" d="M32 40H22v5.92C22 56.623 26.477 62 31.998 62c5.523 0 10-5.377 10-16.08v-5.918h-10"/><path fill="#e2596c" d="M33.5 40L32 56.854 30.5 40z"/><path opacity=".33" d="M22 40h20v3.385H22z"/></svg>