<svg xmlns="http://www.w3.org/2000/svg" viewBox="0 0 64 64"><circle fill="#ffdd67" cx="32" cy="32" r="30"/><g fill="#664e27"><path d="M35 25.471S42.914 27.2 49 30c0 0-4.67-9.912-14-4.529"/><path d="M35 25.471s7.914-4.67 14-7.471c0 0-3.457 9.791-14 7.471"/></g><path fill="#fff" d="M30.25 24.592a9 9 0 1 1-18 0 9 9 0 0 1 18 0"/><g fill="#664e27"><circle cx="21.25" cy="24.592" r="4.5"/><path d="M48 37.5c0 6.461-5.314 14-16 14-10.689 0-16-7.539-16-14h32"/><path d="M32 52.5c-11.04 0-17-7.729-17-15v-1h34v1c0 7.271-5.957 15-17 15m-14.956-14c.523 5.99 5.727 12 14.956 12s14.434-6.01 14.957-12H17.044"/></g><path fill="#ff717f" d="M32 40h-9.998v5.92c0 10.703 4.475 16.08 9.996 16.08 5.523 0 10-5.377 10-16.08v-5.918h-10"/><path fill="#e2596c" d="M33.5 40L32 56.854 30.5 40z"/><path opacity=".33" d="M22 40h20v3.385H22z"/></svg>