<svg xmlns="http://www.w3.org/2000/svg" viewBox="0 0 64 64"><circle fill="#ffdd67" cx="32" cy="32" r="30"/><g fill="#664e27"><path d="M48 37.5c0 6.461-5.314 14-16 14-10.689 0-16-7.539-16-14h32"/><path d="M32 52.5c-11.04 0-17-7.729-17-15v-1h34v1c0 7.271-5.957 15-17 15m-14.955-14c.523 5.99 5.727 12 14.955 12s14.434-6.01 14.957-12H17.045"/></g><path fill="#ff717f" d="M32 40H22v5.92C22 56.623 26.477 62 31.998 62c5.523-.002 10-5.379 10-16.08v-5.916h-10"/><path fill="#e2596c" d="M33.5 40L32 56.854 30.5 40z"/><path opacity=".33" d="M22 40h20v3.385H22z"/><g fill="#664e27"><circle cx="20.502" cy="24" r="4.5"/><circle cx="43.502" cy="24" r="4.5"/></g></svg>