<svg xmlns="http://www.w3.org/2000/svg" viewBox="0 0 64 64"><path fill="#ffdd67" d="M62 32c0 16.572-13.434 30-30 30C15.432 62 2 48.572 2 32 2 15.427 15.432 2 32 2c16.566 0 30 13.427 30 30"/><g fill="#664e27"><circle cx="43.5" cy="35" r="4.5"/><circle cx="20.5" cy="35" r="4.5"/></g><g fill="#917524"><path d="M25.578 19.906a14.232 14.232 0 0 1-11.693 3.133c-.578-.113-1.088 2.02-.385 2.156a16.42 16.42 0 0 0 13.492-3.615c.541-.469-.971-2.06-1.414-1.674M50.11 22.887c-4.168.748-8.455-.4-11.691-3.133-.443-.389-1.955 1.205-1.412 1.674a16.418 16.418 0 0 0 13.492 3.615c.703-.135.191-2.27-.389-2.156"/></g><path fill="#664e27" d="M38.34 50H25.65c-.873 0-.873-3 0-3h12.689c.874 0 .874 3 .001 3"/><path fill="#65b1ef" d="M62 18.534c.002 9.378-12.744 9.38-12.744 0 0-6.85 6.373-13.533 6.373-13.533S62 11.687 62 18.534z"/></svg>