<svg xmlns="http://www.w3.org/2000/svg" viewBox="0 0 64 64"><circle fill="#ffdd67" cx="32" cy="32" r="29.999"/><g fill="#664e27"><path d="M37.803 39.4C36.611 38.353 32 41.286 32 44.501s4.611 6.148 5.803 5.101c.968-.851-1.803-1.887-1.803-5.101s2.771-4.25 1.803-5.101"/><path d="M37.832 40.25c-.029-.247-.11-.462-.23-.571-.123-.104-.247-.139-.419-.163-.325-.064-.744-.056-1.161-.071-.844-.022-1.75-.068-2.66-.249-.908-.177-1.834-.487-2.67-1-.824-.517-1.576-1.252-1.895-2.192.918.343 1.703.57 2.512.747.802.182 1.606.32 2.441.487.833.169 1.693.345 2.592.676.447.173.912.384 1.354.774.206.203.419.502.43.826.02.319-.132.566-.294.739M37.832 48.75c.162.173.313.42.294.739-.011.324-.224.623-.43.826-.442.391-.907.602-1.354.774-.898.331-1.759.507-2.592.676-.835.167-1.64.306-2.441.487-.809.178-1.594.405-2.512.748.318-.94 1.07-1.676 1.895-2.192.836-.516 1.762-.826 2.67-1 .91-.181 1.816-.227 2.66-.249.417-.016.836-.007 1.161-.071.172-.024.296-.06.419-.163.12-.11.201-.325.23-.572M35 29.8s7.914 1.603 14 4.2c0 0-4.67-9.189-14-4.2"/><path d="M35 29.8s7.914-4.328 14-6.925c0 0-3.457 9.08-14 6.925"/><circle cx="22.252" cy="28.592" r="4.5"/></g><g fill="#f46767"><path d="M50.854 57.998l.007.001-.006-.004-.005.005zM61.37 42.568c-.908-1.805-2.732-2.988-4.986-2.834-2.332.161-4.117 1.413-5.586 3.47-1.484-2.043-3.281-3.284-5.613-3.423-2.254-.138-4.068 1.063-4.963 2.876-.902 1.836-.943 4.239.91 6.968 1.822 2.685 9.482 8.193 9.727 8.37.244-.18 7.859-5.755 9.66-8.449 1.832-2.741 1.771-5.148.851-6.978"/></g><g fill="#917524"><path d="M51.2 21.708a14.228 14.228 0 0 0-11.691-3.133c-.58.113-1.09-2.02-.387-2.156a16.417 16.417 0 0 1 13.492 3.615c.541.468-.969 2.06-1.414 1.674M24.488 13.708c-4.168-.748-8.455.4-11.691 3.133-.443.389-1.955-1.205-1.412-1.674a16.418 16.418 0 0 1 13.492-3.615c.703.135.191 2.27-.389 2.156"/></g></svg>