<svg xmlns="http://www.w3.org/2000/svg" viewBox="0 0 64 64"><circle fill="#ffdd67" cx="32" cy="32" r="30"/><g fill="#664e27"><path d="M47.951 27.19c0 2.185-1.85 3.958-4.133 3.958-2.285 0-4.135-1.772-4.137-3.958.001-1.388 8.27-1.388 8.27 0"/><path d="M49.09 24.84a16.33 16.33 0 0 0-5.273-.899c-1.75-.011-3.53.271-5.28.869-1.735.609-3.494 1.529-4.885 2.926 1.938-.222 3.633-.416 5.294-.523a67.82 67.82 0 0 1 4.862-.156c1.61.003 3.215.061 4.873.178 1.669.107 3.366.296 5.305.502-1.405-1.379-3.165-2.286-4.896-2.897M24.318 27.19c0 2.185-1.85 3.958-4.133 3.958-2.285 0-4.135-1.772-4.137-3.958.001-1.388 8.27-1.388 8.27 0"/><path d="M25.455 24.84a16.34 16.34 0 0 0-5.273-.899 15.98 15.98 0 0 0-5.28.869c-1.734.609-3.494 1.529-4.885 2.926 1.94-.223 3.633-.416 5.294-.523a67.819 67.819 0 0 1 4.864-.156c1.607.003 3.214.06 4.873.178 1.667.107 3.366.296 5.303.502-1.402-1.38-3.163-2.286-4.896-2.897M40.35 45.46H23.66c-.873 0-.873-3 0-3h16.689c.874 0 .874 3 .001 3"/></g></svg>