<svg xmlns="http://www.w3.org/2000/svg" viewBox="0 0 64 64"><circle fill="#ffdd67" cx="32" cy="31.969" r="30"/><g fill="#664e27"><path d="M48.24 31.11c-1.447-.465-3-.658-4.559-.529a9.977 9.977 0 0 0-.971.133c.109-.061.217-.129.33-.186a33.425 33.425 0 0 1 3.736-1.633c1.314-.5 2.699-.926 4.201-1.506-1.467-.668-3.064-.893-4.664-.807-1.6.092-3.203.527-4.654 1.281a11.2 11.2 0 0 0-3.727 3.104c-.969 1.285-1.703 2.785-1.799 4.412 1.467-.496 2.74-.93 4.02-1.219 1.268-.299 2.51-.48 3.783-.592a46.75 46.75 0 0 1 3.922-.141c1.355-.004 2.74.025 4.279-.004-1.078-1.125-2.453-1.834-3.893-2.313M22.339 27.861a11.581 11.581 0 0 0-4.652-1.281c-1.6-.086-3.197.139-4.664.807 1.502.58 2.887 1.01 4.201 1.506a33.14 33.14 0 0 1 3.736 1.633c.111.057.219.125.33.186a10.294 10.294 0 0 0-.971-.133 11.779 11.779 0 0 0-4.561.529c-1.438.479-2.814 1.188-3.893 2.314 1.537.029 2.922 0 4.279.004 1.35 0 2.648.033 3.922.141 1.271.111 2.516.293 3.781.592 1.275.289 2.549.723 4.02 1.219-.096-1.627-.83-3.127-1.799-4.412a11.183 11.183 0 0 0-3.727-3.105"/></g><g fill="#917524"><path d="M22.577 17.16a14.232 14.232 0 0 1-11.693 3.133c-.578-.113-1.088 2.02-.385 2.156a16.42 16.42 0 0 0 13.492-3.615c.541-.469-.971-2.061-1.414-1.674M53.11 20.14c-4.168.748-8.455-.4-11.691-3.133-.443-.389-1.955 1.205-1.412 1.674a16.418 16.418 0 0 0 13.492 3.615c.703-.135.191-2.27-.389-2.156"/></g><path fill="#664e27" d="M44.915 41.38l-6.406 4.353-6.512-5.703-6.492 5.697-6.415-4.357L13 48.643l6.09-3.393 6.427 6.364 6.503-5.059 6.486 5.04 6.408-6.358L51 48.64z"/></svg>