<svg xmlns="http://www.w3.org/2000/svg" viewBox="0 0 64 64"><circle fill="#ffdd67" cx="32" cy="32" r="29.999"/><g fill="#664e27"><circle cx="20.5" cy="25.592" r="4.5"/><circle cx="43.5" cy="25.592" r="4.5"/></g><g fill="#917524"><path d="M50.2 16.661a14.232 14.232 0 0 0-11.693-3.133c-.578.113-1.088-2.02-.385-2.156a16.42 16.42 0 0 1 13.492 3.615c.541.469-.971 2.061-1.414 1.674M25.488 13.378c-4.168-.748-8.452.4-11.69 3.133-.443.389-1.953-1.205-1.412-1.674a16.415 16.415 0 0 1 13.489-3.615c.703.134.191 2.269-.387 2.156"/></g><g fill="#664e27"><path d="M41.803 39.4C40.611 38.353 36 41.286 36 44.501s4.611 6.148 5.803 5.101c.968-.851-1.803-1.887-1.803-5.101s2.771-4.25 1.803-5.101"/><path d="M41.832 40.25c-.029-.247-.11-.462-.23-.571-.123-.104-.247-.139-.419-.163-.325-.064-.744-.056-1.161-.071-.844-.022-1.75-.068-2.66-.249-.908-.177-1.834-.487-2.67-1-.824-.517-1.576-1.252-1.895-2.192.918.343 1.703.57 2.512.747.802.182 1.606.32 2.441.487.833.169 1.693.345 2.592.676.447.173.912.384 1.354.774.206.203.419.502.43.826.02.319-.132.566-.294.739M41.832 48.75c.162.173.313.42.294.739-.011.324-.224.623-.43.826-.442.391-.907.602-1.354.774-.898.331-1.759.507-2.592.676-.835.167-1.64.306-2.441.487-.809.178-1.594.405-2.512.748.318-.94 1.07-1.676 1.895-2.192.836-.516 1.762-.826 2.67-1 .91-.181 1.816-.227 2.66-.249.417-.016.836-.007 1.161-.071.172-.024.296-.06.419-.163.12-.11.201-.325.23-.572"/></g></svg>