<svg xmlns="http://www.w3.org/2000/svg" viewBox="0 0 64 64"><circle fill="#f46767" cx="32" cy="32" r="30"/><path fill="#493b30" d="M42.684 48.839c-1.8-1.059-3.54-1.701-5.322-2.127-1.774-.426-3.565-.609-5.361-.611-1.798.008-3.587.189-5.36.615-1.782.428-3.521 1.066-5.323 2.123.771-1.977 2.485-3.531 4.396-4.525 1.932-1 4.119-1.486 6.287-1.486 2.167.004 4.354.486 6.284 1.49 1.909.994 3.624 2.546 4.399 4.521"/><path fill="#fff" d="M52.29 24.597c2.01 4.313.146 9.439-4.168 11.449-4.313 2.01-9.439.145-11.449-4.166-1.514-3.248 14.1-10.531 15.617-7.283"/><g fill="#493b30"><path d="M49.762 25.776a5.828 5.828 0 0 1-2.816 7.742 5.827 5.827 0 0 1-7.742-2.818c-.864-1.851 9.694-6.775 10.558-4.924"/><path d="M53.895 24.925c-1.87.182-3.539.459-5.153.891a27.51 27.51 0 0 0-4.622 1.668 27.152 27.152 0 0 0-4.25 2.447c-1.364.957-2.645 2.057-3.975 3.387.203-1.885 1.128-3.656 2.37-5.115 1.248-1.461 2.851-2.641 4.595-3.441a13.654 13.654 0 0 1 5.591-1.279c1.911-.009 3.858.407 5.444 1.442"/></g><path fill="#fff" d="M11.709 24.597c-2.01 4.313-.146 9.439 4.168 11.449 4.311 2.01 9.438.145 11.447-4.166 1.516-3.248-14.1-10.531-15.615-7.283"/><g fill="#493b30"><path d="M14.238 25.776A5.825 5.825 0 1 0 24.796 30.7c.862-1.851-9.694-6.775-10.558-4.924"/><path d="M10.11 24.925c1.586-1.035 3.531-1.451 5.444-1.443 1.921.018 3.841.469 5.591 1.279 1.744.801 3.346 1.98 4.595 3.441 1.241 1.461 2.167 3.23 2.37 5.115-1.33-1.33-2.61-2.43-3.975-3.387a27.37 27.37 0 0 0-4.25-2.449 27.617 27.617 0 0 0-4.622-1.666c-1.613-.431-3.282-.709-5.153-.89"/></g></svg>