<svg xmlns="http://www.w3.org/2000/svg" viewBox="0 0 64 64"><circle fill="#ffdd67" cx="31.999" cy="32" r="30"/><g fill="#664e27"><circle cx="20.501" cy="26.967" r="4.5"/><circle cx="43.501" cy="26.967" r="4.5"/></g><g fill="#917524"><path d="M50.2 17.05a14.232 14.232 0 0 0-11.693-3.133c-.578.113-1.088-2.02-.385-2.156a16.42 16.42 0 0 1 13.492 3.615c.541.469-.97 2.061-1.414 1.674M25.487 13.764c-4.168-.748-8.455.4-11.693 3.133-.443.389-1.953-1.205-1.412-1.674a16.422 16.422 0 0 1 13.492-3.615c.703.134.191 2.269-.387 2.156"/></g><circle fill="#664e27" cx="31.999" cy="47.23" r="3.75"/></svg>