<svg xmlns="http://www.w3.org/2000/svg" viewBox="0 0 64 64"><circle fill="#ffdd67" cx="32" cy="32" r="30"/><path fill="#fff" d="M16 47.5c0-6.461 5.314-14 16-14 10.689 0 16 7.539 16 14H16"/><g fill="#664e27"><path d="M15.916 47.699l2-8h28.16l2 8z"/><path d="M32 32.498c11.04 0 17 7.729 17 15v1H15v-1c0-7.271 5.957-15 17-15m14.955 14c-.523-5.99-5.727-12-14.955-12s-14.434 6.01-14.957 12h29.912"/></g><g fill="#917524"><path d="M38.422 12.238a14.232 14.232 0 0 0 11.693 3.133c.578-.113 1.088 2.02.385 2.156a16.42 16.42 0 0 1-13.492-3.615c-.541-.469.971-2.06 1.414-1.674M13.887 15.221c4.168.748 8.455-.4 11.691-3.133.443-.389 1.955 1.205 1.412 1.674a16.418 16.418 0 0 1-13.492 3.615c-.703-.135-.191-2.27.389-2.156"/></g><g fill="#664e27"><path d="M37.11 20.449c1.549 6.831 10.617 9.261 15.374 4.12.286-.315-.07-.973-.567-1.552a11.238 11.238 0 0 1-13.538-3.627c-.721.254-1.358.644-1.269 1.059M11.518 24.569c4.756 5.142 13.826 2.711 15.375-4.119.091-.416-.547-.808-1.269-1.061a11.236 11.236 0 0 1-13.536 3.629c-.498.58-.856 1.236-.57 1.551"/></g></svg>