<svg xmlns="http://www.w3.org/2000/svg" viewBox="0 0 64 64"><path fill="#ffdd67" d="M62 31.978c0 16.572-13.438 30-30 30-16.572 0-30-13.428-30-30C1.999 15.416 15.427 1.98 31.999 1.98c16.563 0 30 13.426 30 29.998"/><path fill="#664e27" d="M44.4 38.546c-2.09-1.229-4.107-1.975-6.174-2.469-2.061-.494-4.139-.705-6.225-.709-2.084.008-4.16.219-6.219.713-2.066.496-4.086 1.24-6.176 2.465.895-2.295 2.885-4.098 5.102-5.252 2.24-1.164 4.781-1.725 7.295-1.723 2.516.002 5.05.563 7.293 1.727 2.216 1.156 4.204 2.957 5.104 5.248"/><g fill="#917524"><path d="M48.41 12.894a14.243 14.243 0 0 0-10.484 6.05c-.328.488-2.199-.66-1.797-1.252a16.421 16.421 0 0 1 12.1-6.984c.713-.051.769 2.142.183 2.183M26.07 18.947a14.214 14.214 0 0 0-10.482-6.05c-.59-.039-.531-2.234.184-2.184a16.442 16.442 0 0 1 12.1 6.984c.401.595-1.472 1.741-1.8 1.253"/></g><g fill="#d8d8d8"><path d="M61.712 47.37c-1-2.469-4.285-3.814-7.34-3.01-1.557.408-2.758 1.299-3.424 2.406-7.844-1.488-14.998-15.351-14.998-15.351s.184 11.316 5.861 17.943a7.07 7.07 0 0 0-3.852-.07c-3.059.801-4.729 3.455-3.732 5.922s4.279 3.814 7.338 3.01c.219-.057.428-.125.631-.203 1.615 3.105 5.936 4.744 9.977 3.682 4.256-1.119 6.584-4.809 5.197-8.244-.008-.012-.014-.018-.016-.031a7.33 7.33 0 0 0 .623-.131c3.063-.804 4.731-3.456 3.735-5.923M2.286 47.37c1-2.469 4.287-3.814 7.342-3.01 1.559.408 2.758 1.299 3.424 2.406 7.842-1.488 14.996-15.352 14.996-15.352s-.184 11.316-5.859 17.943a7.077 7.077 0 0 1 3.854-.07c3.057.801 4.729 3.455 3.73 5.922-1 2.467-4.281 3.814-7.338 3.01a6.037 6.037 0 0 1-.631-.203c-1.615 3.105-5.938 4.744-9.979 3.682-4.256-1.119-6.582-4.809-5.193-8.244.004-.012.012-.018.016-.031a7.421 7.421 0 0 1-.627-.131c-3.06-.803-4.728-3.455-3.735-5.922"/></g><g fill="#fff"><path d="M59.34 44.856c-.92-2.639-3.943-4.078-6.754-3.219-1.434.438-2.539 1.389-3.152 2.572-7.217-1.59-13.801-16.416-13.801-16.416s.168 12.1 5.393 19.19a5.661 5.661 0 0 0-3.547-.072c-2.813.855-4.35 3.695-3.432 6.332.918 2.639 3.939 4.08 6.752 3.217a4.96 4.96 0 0 0 .58-.215c1.486 3.32 5.463 5.072 9.184 3.938 3.916-1.197 6.06-5.145 4.781-8.818-.006-.014-.012-.02-.014-.033.193-.037.383-.084.574-.139 2.817-.859 4.352-3.695 3.436-6.334M4.653 44.856c.92-2.639 3.943-4.078 6.756-3.219 1.434.438 2.537 1.389 3.15 2.572 7.219-1.59 13.803-16.416 13.803-16.416s-.17 12.1-5.395 19.19a5.661 5.661 0 0 1 3.547-.072c2.813.855 4.352 3.695 3.434 6.332-.918 2.639-3.939 4.08-6.754 3.217a4.96 4.96 0 0 1-.58-.215c-1.486 3.32-5.463 5.072-9.184 3.938-3.916-1.197-6.06-5.145-4.779-8.818.004-.014.012-.02.014-.033a6.351 6.351 0 0 1-.576-.139c-2.817-.859-4.352-3.695-3.436-6.334"/></g><g fill="#664e27"><path d="M36.412 21.33c3.264 6.197 12.652 6.197 15.916 0 .195-.378-.32-.921-.949-1.352a11.243 11.243 0 0 1-14.02 0c-.631.432-1.146.974-.951 1.352M11.673 21.33c3.264 6.197 12.652 6.197 15.916.001.195-.379-.318-.922-.949-1.353-4.135 3.271-9.881 3.271-14.02.001-.63.431-1.144.973-.951 1.351"/></g></svg>