<svg xmlns="http://www.w3.org/2000/svg" viewBox="0 0 64 64"><circle fill="#ffdd67" cx="31.999" cy="32" r="30"/><g fill="#ff717f"><circle opacity=".8" cx="50.5" cy="29.14" r="8.31"/><circle opacity=".8" cx="13.499" cy="29.14" r="8.31"/></g><g fill="#664e27"><path d="M46.33 42c-1.93-2.558-4.182-4.331-6.631-5.538A17.37 17.37 0 0 0 32 34.671a17.483 17.483 0 0 0-7.701 1.794c-2.447 1.208-4.697 2.981-6.629 5.535.227-3.02 2.106-6.196 4.773-8.363 2.67-2.197 6.119-3.43 9.557-3.416a15.152 15.152 0 0 1 9.55 3.42c2.66 2.166 4.547 5.343 4.78 8.359M48.24 19.14c-1.447-.465-3-.658-4.559-.529a9.977 9.977 0 0 0-.971.133c.109-.061.217-.129.33-.186a33.425 33.425 0 0 1 3.736-1.633c1.314-.5 2.699-.926 4.201-1.506-1.467-.668-3.064-.893-4.664-.807-1.6.092-3.203.527-4.654 1.281a11.2 11.2 0 0 0-3.727 3.104c-.969 1.285-1.703 2.785-1.799 4.412 1.467-.496 2.74-.93 4.02-1.219 1.268-.299 2.51-.48 3.783-.592a46.75 46.75 0 0 1 3.922-.141c1.355-.004 2.74.025 4.279-.004-1.078-1.126-2.453-1.835-3.893-2.313M22.339 15.893a11.581 11.581 0 0 0-4.652-1.281c-1.6-.086-3.197.139-4.664.807 1.502.58 2.887 1.01 4.201 1.506a33.14 33.14 0 0 1 3.736 1.633c.111.057.219.125.33.186a10.294 10.294 0 0 0-.971-.133 11.779 11.779 0 0 0-4.561.529c-1.438.479-2.814 1.188-3.893 2.314 1.537.029 2.922 0 4.279.004 1.35 0 2.648.033 3.922.141 1.271.111 2.516.293 3.781.592 1.275.289 2.549.723 4.02 1.219-.096-1.627-.83-3.127-1.799-4.412a11.191 11.191 0 0 0-3.727-3.105"/></g></svg>