<svg xmlns="http://www.w3.org/2000/svg" viewBox="0 0 64 64"><circle fill="#ffdd67" cx="32" cy="32" r="30"/><path fill="#664e27" d="M42.684 49.84a18.954 18.954 0 0 0-5.322-2.127c-1.775-.426-3.566-.609-5.361-.611-1.799.008-3.588.189-5.361.615-1.781.428-3.52 1.066-5.322 2.123.771-1.977 2.484-3.531 4.396-4.525 1.932-1 4.119-1.486 6.287-1.486 2.166.004 4.354.486 6.283 1.49 1.909.994 3.624 2.546 4.4 4.521"/><path fill="#fff" d="M52.75 30a9 9 0 1 1-18 0 9 9 0 0 1 18 0"/><circle fill="#664e27" cx="43.75" cy="30" r="6"/><g fill="#fff"><ellipse cx="45.3" cy="34.469" rx="2.812" ry="3.25"/><ellipse cx="41.529" cy="30" rx="1.645" ry="1.902"/><path d="M29.25 30a9 9 0 1 1-18 0 9 9 0 0 1 18 0"/></g><circle fill="#664e27" cx="20.25" cy="30" r="6"/><g fill="#fff"><ellipse cx="21.801" cy="34.469" rx="2.811" ry="3.25"/><ellipse cx="18.03" cy="30" rx="1.644" ry="1.902"/></g><path fill="#65b1ef" d="M46.35 35c-5.02 6.857-7.895 13.166-7.895 18.352 0 4.406 3.535 7.977 7.898 7.977 4.359 0 7.896-3.57 7.896-7.977C54.25 48.166 51.285 41.75 46.35 35"/><g fill="#917524"><path d="M53.2 19.652a14.228 14.228 0 0 0-11.691-3.133c-.58.113-1.09-2.02-.387-2.156a16.417 16.417 0 0 1 13.492 3.615c.541.469-.969 2.061-1.414 1.674M22.486 16.369c-4.168-.748-8.455.4-11.691 3.133-.443.389-1.955-1.205-1.412-1.674a16.418 16.418 0 0 1 13.492-3.615c.703.135.191 2.269-.389 2.156"/></g></svg>