<svg xmlns="http://www.w3.org/2000/svg" viewBox="0 0 64 64"><circle fill="#ffdd67" cx="31.999" cy="32" r="30"/><g fill="#664e27"><circle cx="20.499" cy="24.5" r="4.5"/><circle cx="43.499" cy="24.5" r="4.5"/></g><path fill="#fff" d="M43.795 49.861H20.203c-10.939 0-10.939-16 0-16h23.592c10.939 0 10.939 16 0 16"/><g fill="#98a0a6"><path d="M31.5 35.26h1v13.209h-1zM37.719 35.26h1v13.209h-1zM25.279 35.26h1v13.209h-1zM19.06 35.26h1v13.209h-1zM43.939 35.26h1v13.209h-1z"/><path d="M13.249 41.36h37.5v1h-37.5z"/></g><path fill="#664e27" d="M43.795 35.861c4.286 0 6.205 3.01 6.205 6s-1.919 6-6.205 6H20.203c-4.286 0-6.205-3.01-6.205-6s1.919-6 6.205-6h23.592m0-2H20.203c-10.939 0-10.939 16 0 16h23.592c10.939 0 10.939-16 0-16z"/></svg>