<svg xmlns="http://www.w3.org/2000/svg" viewBox="0 0 64 64"><circle fill="#ffdd67" cx="32" cy="32" r="30"/><path fill="#fff" d="M16 49.5c0-6.461 5.314-14 16-14 10.689 0 16 7.539 16 14H16"/><path fill="#664e27" d="M15.916 50L18 42h28l2.08 8z"/><path fill="#fff" d="M15.917 48.699l1-3h30.16l1 3z"/><path fill="#664e27" d="M32 34.498c11.04 0 17 7.729 17 15v1H15v-1c0-7.271 5.959-15 17-15m14.957 14c-.523-5.99-5.729-12-14.957-12s-14.432 6.01-14.955 12h29.912"/><g fill="#ba9436"><circle cx="46.09" cy="23.786" r="9"/><circle cx="17.906" cy="23.786" r="9"/></g><circle fill="#fff" cx="45.5" cy="21.785" r="9"/><circle fill="#664e27" cx="45.5" cy="21.785" r="4.5"/><circle fill="#fff" cx="18.5" cy="21.785" r="9"/><circle fill="#664e27" cx="18.5" cy="21.785" r="4.5"/></svg>