<svg xmlns="http://www.w3.org/2000/svg" viewBox="0 0 64 64"><circle fill="#ffdd67" cx="32" cy="32" r="30"/><g fill="#917524"><path d="M38.422 10.238a14.232 14.232 0 0 0 11.693 3.133c.578-.113 1.088 2.02.385 2.156a16.42 16.42 0 0 1-13.492-3.615c-.541-.469.971-2.06 1.414-1.674M13.887 13.221c4.168.748 8.455-.4 11.691-3.133.443-.389 1.955 1.205 1.412 1.674a16.418 16.418 0 0 1-13.492 3.615c-.703-.135-.191-2.27.389-2.156"/></g><path fill="#fff" d="M16 49.5c0-6.461 5.314-14 16-14 10.689 0 16 7.539 16 14H16"/><g fill="#664e27"><path d="M15.916 49.699l2-8h28.16l2 8z"/><path d="M32 34.498c11.04 0 17 7.729 17 15v1H15v-1c0-7.271 5.957-15 17-15m14.957 14c-.523-5.99-5.729-12-14.957-12s-14.434 6.01-14.957 12h29.914"/><circle cx="20.5" cy="26" r="4.5"/><circle cx="43.5" cy="26" r="4.5"/></g></svg>