<svg xmlns="http://www.w3.org/2000/svg" viewBox="0 0 64 64"><circle fill="#ffdd67" cx="32" cy="32" r="30"/><path fill="#664e27" d="M42.684 48.84a18.954 18.954 0 0 0-5.322-2.127c-1.775-.426-3.566-.609-5.361-.611-1.799.008-3.588.189-5.361.615-1.781.428-3.52 1.066-5.322 2.123.771-1.977 2.484-3.531 4.396-4.525 1.932-1 4.119-1.486 6.287-1.486 2.166.004 4.354.486 6.283 1.49 1.909.994 3.624 2.546 4.4 4.521"/><path fill="#fff" d="M52.29 24.598c2.01 4.313.146 9.439-4.168 11.449-4.313 2.01-9.439.145-11.449-4.166-1.514-3.248 14.1-10.531 15.617-7.283"/><g fill="#664e27"><path d="M49.762 25.777a5.828 5.828 0 0 1-2.816 7.742 5.827 5.827 0 0 1-7.742-2.818c-.864-1.851 9.694-6.775 10.558-4.924"/><path d="M53.895 24.926c-1.871.182-3.539.459-5.154.891a27.468 27.468 0 0 0-4.621 1.668 27.106 27.106 0 0 0-4.25 2.447c-1.365.957-2.645 2.057-3.975 3.387.203-1.885 1.127-3.656 2.369-5.115 1.248-1.461 2.852-2.641 4.596-3.441a13.653 13.653 0 0 1 5.59-1.279c1.911-.009 3.859.407 5.445 1.442"/></g><path fill="#fff" d="M11.709 24.598c-2.01 4.313-.146 9.439 4.168 11.449 4.311 2.01 9.438.145 11.447-4.166 1.516-3.248-14.1-10.531-15.615-7.283"/><g fill="#664e27"><path d="M14.238 25.777a5.825 5.825 0 1 0 10.558 4.924c.862-1.851-9.694-6.775-10.558-4.924"/><path d="M10.11 24.926c1.586-1.035 3.531-1.451 5.443-1.443 1.922.018 3.842.469 5.592 1.279 1.744.801 3.346 1.98 4.594 3.441 1.242 1.461 2.168 3.23 2.371 5.115-1.33-1.33-2.611-2.43-3.975-3.387a27.462 27.462 0 0 0-4.25-2.449 27.628 27.628 0 0 0-4.623-1.666c-1.612-.431-3.282-.709-5.152-.89"/></g></svg>