<svg xmlns="http://www.w3.org/2000/svg" viewBox="0 0 64 64"><circle fill="#ffdd67" cx="32" cy="32" r="30"/><g fill="#664e27"><circle cx="20.502" cy="25" r="4.5"/><circle cx="43.502" cy="25" r="4.5"/></g><path fill="#fff" d="M19.05 49.73c0-5.23 4.301-11.334 12.953-11.334 8.654 0 12.953 6.104 12.953 11.334H19.05"/><g fill="#664e27"><path d="M18.979 49.895l1.617-6.475H43.4l1.62 6.475z"/><path d="M32 37.588c8.939 0 13.763 6.258 13.763 12.143v.811H18.236v-.812c0-5.884 4.825-12.142 13.764-12.142M44.11 48.92c-.424-4.85-4.639-9.715-12.11-9.715-7.473 0-11.686 4.865-12.11 9.715h24.22"/></g></svg>