<svg xmlns="http://www.w3.org/2000/svg" viewBox="0 0 64 64"><g fill="#65b1ef"><ellipse cx="17.472" cy="59.895" rx="12.472" ry="1.5"/><ellipse cx="43.952" cy="60.2" rx="18.05" ry="1.803"/></g><circle fill="#ffdd67" cx="32" cy="32" r="30"/><g fill="#65b1ef"><path d="M44.48 60.47h6.834c8.201-11.689-1.543-20.606.898-32.13h-6.834c-3.149 11.187 7.304 20.441-.898 32.13M19.518 60.47h-6.834c-8.201-11.689 1.545-20.606-.896-32.13h6.834c3.148 11.187-7.306 20.441.896 32.13"/></g><path fill="#fff" d="M19.05 50.73c0-5.23 4.301-11.334 12.953-11.334 8.654 0 12.953 6.104 12.953 11.334H19.05"/><g fill="#664e27"><path d="M18.979 50.895l1.617-6.475H43.4l1.62 6.475z"/><path d="M32 38.588c8.939 0 13.764 6.258 13.764 12.143v.811H18.236v-.812c0-5.884 4.825-12.142 13.764-12.142M44.11 49.92c-.424-4.85-4.639-9.715-12.11-9.715-7.473 0-11.686 4.865-12.11 9.715h24.22"/></g><g fill="#917524"><path d="M37.3 11.533a14.22 14.22 0 0 0 10.482 6.05c.59.041.529 2.234-.186 2.182a16.43 16.43 0 0 1-12.1-6.984c-.401-.593 1.47-1.739 1.8-1.251M16.211 17.434a14.249 14.249 0 0 0 10.484-6.05c.328-.49 2.199.658 1.797 1.252a16.427 16.427 0 0 1-12.1 6.984c-.712.051-.771-2.144-.183-2.183"/></g><g fill="#664e27"><path d="M37.11 24.362c1.549 6.831 10.617 9.261 15.374 4.12.286-.315-.07-.973-.567-1.552a11.238 11.238 0 0 1-13.538-3.627c-.721.254-1.358.644-1.269 1.059M11.518 28.482c4.756 5.142 13.826 2.711 15.375-4.119.091-.416-.547-.808-1.269-1.061a11.236 11.236 0 0 1-13.536 3.629c-.498.58-.856 1.236-.57 1.551"/></g></svg>