<svg xmlns="http://www.w3.org/2000/svg" viewBox="0 0 64 64"><circle fill="#ffdd67" cx="32" cy="32" r="30"/><g fill="#ff717f"><circle cx="52.811" cy="37.14" r="8"/><circle cx="11.189" cy="37.14" r="8"/></g><g fill="#917524"><path d="M54.645 20.627a14.232 14.232 0 0 0-10.973-5.115c-.588.01-.721-2.18-.004-2.191a16.426 16.426 0 0 1 12.66 5.904c.451.554-1.314 1.859-1.683 1.402M20.326 15.361a14.24 14.24 0 0 0-10.973 5.115c-.369.461-2.133-.848-1.682-1.402a16.426 16.426 0 0 1 12.66-5.904c.718.012.583 2.203-.005 2.191"/></g><circle fill="#664e27" cx="32" cy="49.47" r="4.5"/><path fill="#fff" d="M29.5 29.14a9 9 0 1 1-18 0 9 9 0 0 1 18 0"/><circle fill="#664e27" cx="20.5" cy="29.14" r="4.5"/><path fill="#fff" d="M52.5 29.14a9 9 0 1 1-18 0 9 9 0 0 1 18 0"/><circle fill="#664e27" cx="43.5" cy="29.14" r="4.5"/></svg>