<svg xmlns="http://www.w3.org/2000/svg" viewBox="0 0 64 64"><circle fill="#ffdd67" cx="32" cy="32" r="30"/><circle fill="#664e27" cx="31.999" cy="47.28" r="8.721"/><g fill="#fff"><path d="M25.896 43.754a7.049 7.049 0 0 1 12.208-.003l-12.208.003"/><circle cx="20.248" cy="29.14" r="9"/></g><circle fill="#664e27" cx="20.249" cy="29.14" r="4.5"/><circle fill="#fff" cx="43.75" cy="29.14" r="9"/><circle fill="#664e27" cx="43.75" cy="29.14" r="4.5"/><g fill="#917524"><path d="M50.2 15.777a14.232 14.232 0 0 0-11.693-3.133c-.578.113-1.088-2.02-.385-2.156a16.42 16.42 0 0 1 13.492 3.615c.541.469-.971 2.061-1.414 1.674M25.488 12.494c-4.168-.748-8.455.4-11.693 3.133-.443.389-1.953-1.205-1.412-1.674a16.422 16.422 0 0 1 13.492-3.615c.703.135.191 2.269-.387 2.156"/></g></svg>