<svg xmlns="http://www.w3.org/2000/svg" viewBox="0 0 64 64"><path fill="#dadee0" d="M60.861 2c1.797 13.431 1.51 24.233-1.166 31.132L34.888 14.677C39.815 9.584 49.818 3.459 60.861 2z"/><path fill="#f7a4a4" d="M57.738 32.18L47.483 18.927s1.938-7.285 11.616-12.438C62 18.145 57.738 32.18 57.738 32.18"/><path fill="#f78d8d" d="M53.835 29.16l-6.352-8.209s2.574-5.02 8.568-8.216c-3.497 7.563-2.216 16.425-2.216 16.425"/><path fill="#dadee0" d="M3.139 2c-1.797 13.431-1.51 24.233 1.166 31.132l24.808-18.455C24.185 9.584 14.182 3.459 3.139 2z"/><path fill="#f7a4a4" d="M6.262 32.177l10.255-13.253S14.579 11.639 4.901 6.486C2 18.142 6.262 32.177 6.262 32.177z"/><path fill="#f78d8d" d="M10.165 29.16l6.352-8.209s-2.574-5.02-8.568-8.216c3.497 7.563 2.216 16.425 2.216 16.425"/><path fill="#dadee0" d="M58.2 50.754c.845-.881 1.415-1.633 1.661-2.162 1.63-2.643 2.144-5.342 2.144-5.342l-2 .424s2.318-2.463 1.691-7.793l-1.945 2.102s1.945-5.41.254-10.4l-2.152 1.588s.654-2.031.053-3.422l-.932.729s1.689-4.665.154-6.625c-.855 2.827-1.871 2.784-1.871 2.784s1.242-2.116.273-3c-.986 1.594-1.807.558-1.768.079.055-.637-.193-1.534 2.703-1.957-2.314-1.414-5.05-.43-5.05-.43s.098-1.489 2.123-1.43c-1.871-1.593-4.48-.648-4.48-.648l.006.017c-4.111-3.11-9.646-4.902-17.05-4.902-7.408 0-12.942 1.792-17.05 4.902l.006-.017s-2.609-.944-4.48.648c2.027-.06 2.125 1.43 2.125 1.43s-2.742-.984-5.057.43c2.898.423 2.65 1.32 2.703 1.957.039.479-.779 1.515-1.768-.079-.967.887.275 3 .275 3s-1.016.043-1.871-2.784c-1.537 1.96.154 6.625.154 6.625l-.932-.729c-.602 1.391.053 3.422.053 3.422l-2.154-1.588c-1.691 4.99.254 10.4.254 10.4l-1.945-2.102c-.625 5.33 1.691 7.793 1.691 7.793l-2-.424s.513 2.694 2.141 5.339c.249.534.833 1.304 1.698 2.202.023.024.044.049.067.072v-.004C9.99 55.042 20.137 62 32.014 62c11.882 0 22.03-6.96 26.09-11.142v.005l.099-.109"/><g fill="#94989b"><path d="M37.686 10.763c-1.762-.258-3.65-.401-5.686-.401s-3.926.144-5.689.401c.736 3.856 2.75 6.583 5.688 11.585 2.98-5.079 4.964-7.756 5.687-11.585M46.813 13.785c-1.908-1.092-4.072-1.944-6.523-2.523.59 2.29 1.857 3.921 3.627 6.935 1.237-2.111 2.216-2.663 2.896-4.412M23.709 11.263c-2.451.579-4.615 1.431-6.521 2.522.686 1.765 1.666 2.323 2.891 4.411 1.794-3.057 3.048-4.664 3.63-6.933"/></g><path fill="#4c5359" d="M36.04 38.767c-.811-.945-3.299-1.018-4.04-1.018-.742 0-3.232.072-4.04 1.018-.576.674-.131 2.344 1.406 3.785.969.91 1.895 1.197 2.637 1.197.744 0 1.67-.287 2.639-1.197 1.535-1.442 1.982-3.112 1.404-3.785"/><path fill="#fff" d="M24.299 30.84s-.484-3.569-4.509-5.03c-4.539-1.651-7.636 1.386-8.477 3.694-1.24 3.407.316 7.133.778 7.992.306.566 3.659 3.241 11.22.709.001 0 1.882-3.789.988-7.361"/><path fill="#b2b6b8" d="M24.299 30.84s-5.917-4.811-6.273-4.824c-1.451-.041-2.832-.422-3.896.6-1.061 1.01-1.938 2.329-2.29 3.713-.383 1.406-.313 2.951.021 4.435.16.743.392 1.487.688 2.173l.113.243c-.032-.054.014.022.017.026.002 0 0-.005-.002-.006l.055.063c.098.103.231.209.37.312.282.203.602.384.94.532 1.365.595 2.949.792 4.519.751 1.585-.006 3.168-.31 4.751-.655a18.4 18.4 0 0 1-4.691 1.388c-1.634.219-3.361.197-5.01-.396a6.508 6.508 0 0 1-1.207-.574 3.804 3.804 0 0 1-.575-.441 2.202 2.202 0 0 1-.151-.159l-.097-.124-.063-.102-.156-.299a13.07 13.07 0 0 1-.879-2.4c-.415-1.645-.529-3.423-.09-5.15.491-1.739 1.491-3.206 2.792-4.381 1.304-1.15 3.121-.924 4.921-.71.445.048 6.195 5.985 6.195 5.985"/><path fill="#fff" d="M39.698 30.84s.484-3.568 4.509-5.03c4.539-1.651 7.636 1.387 8.477 3.694 1.24 3.407-.316 7.133-.778 7.992-.306.566-3.659 3.241-11.22.709 0 0-1.882-3.789-.988-7.361"/><path fill="#b2b6b8" d="M39.698 30.84s5.75-5.937 6.197-5.987c1.8-.214 3.616-.44 4.92.71 1.301 1.175 2.301 2.642 2.792 4.382.438 1.728.325 3.505-.089 5.15a13.096 13.096 0 0 1-.881 2.399l-.155.299-.063.102-.097.124a2.75 2.75 0 0 1-.151.159c-.191.18-.38.317-.576.441a6.47 6.47 0 0 1-1.206.574c-1.65.593-3.378.614-5.01.396a18.38 18.38 0 0 1-4.69-1.388c1.583.346 3.166.649 4.751.655 1.569.041 3.152-.156 4.519-.751.339-.148.658-.329.94-.532.139-.103.272-.209.37-.312l.055-.063c-.002.001-.004.006-.002.007a.3.3 0 0 1 .017-.027l.113-.243c.297-.686.528-1.43.688-2.173.334-1.483.404-3.03.021-4.435-.353-1.384-1.229-2.705-2.29-3.713-1.064-1.021-2.445-.641-3.896-.6-.357.015-6.274 4.826-6.274 4.826"/><g fill="#4c5359"><ellipse cx="44" cy="32.5" rx="4" ry="4.5"/><ellipse cx="20" cy="32.5" rx="4" ry="4.5"/><path d="M55.893 24.525c-1.871.182-3.539.459-5.154.891a27.468 27.468 0 0 0-4.621 1.668 27.106 27.106 0 0 0-4.25 2.447c-1.365.957-2.645 2.057-3.975 3.387.203-1.885 1.127-3.656 2.369-5.115 1.248-1.461 2.852-2.641 4.596-3.441a13.653 13.653 0 0 1 5.59-1.279c1.911-.009 3.859.407 5.445 1.442M8.104 24.525c1.586-1.035 3.531-1.451 5.443-1.443 1.922.018 3.842.469 5.592 1.279 1.744.801 3.346 1.98 4.594 3.441 1.242 1.461 2.168 3.23 2.371 5.115-1.33-1.33-2.611-2.43-3.975-3.387a27.462 27.462 0 0 0-4.25-2.449 27.628 27.628 0 0 0-4.623-1.666c-1.613-.431-3.283-.708-5.152-.89M42.684 53.36a18.954 18.954 0 0 0-5.322-2.127c-1.775-.426-3.566-.609-5.361-.611-1.799.008-3.588.189-5.361.615-1.781.428-3.52 1.066-5.322 2.123.771-1.977 2.484-3.531 4.396-4.525 1.932-1 4.119-1.486 6.287-1.486 2.166.004 4.354.486 6.283 1.49 1.909.994 3.624 2.547 4.4 4.521"/></g></svg>