<svg xmlns="http://www.w3.org/2000/svg" viewBox="0 0 64 64"><circle fill="#ffdd67" cx="32" cy="32" r="30"/><ellipse fill="#664e27" cx="32" cy="47.17" rx="7.64" ry="9.666"/><path fill="#fff" d="M26.654 43.26c1.068-2.336 3.063-3.906 5.348-3.906s4.279 1.57 5.346 3.902l-10.694.004"/><g fill="#664e27"><path d="M28.611 19.846L16.459 32c-.77.768-3.555-2.02-2.785-2.785l12.154-12.152c.768-.77 3.553 2.01 2.783 2.783"/><path d="M25.826 32L13.672 19.846c-.768-.768 2.02-3.553 2.785-2.783l12.154 12.152c.768.769-2.02 3.553-2.785 2.785M50.33 19.846L38.176 32c-.77.768-3.553-2.02-2.783-2.785l12.152-12.152c.769-.77 3.553 2.01 2.785 2.783"/><path d="M47.545 32L35.393 19.846c-.77-.768 2.01-3.553 2.783-2.783l12.152 12.152c.77.769-2.02 3.553-2.783 2.785"/></g></svg>