<svg xmlns="http://www.w3.org/2000/svg" viewBox="0 0 64 64"><circle fill="#ffdd67" cx="32" cy="32" r="30"/><g fill="#fff"><path d="M18.199 47.43l-8.957 4.102a30.405 30.405 0 0 0 2.648 2.725l7.58-3.564-1.271-3.263M17.12 35.12L2.01 31.663c0 .113-.008.224-.008.337 0 1.114.064 2.211.184 3.293l14.156 3.238.781-3.411M54.758 51.53l-8.957-4.102-1.271 3.262 7.582 3.564a30.513 30.513 0 0 0 2.646-2.724M47.66 38.533l14.156-3.238c.12-1.082.184-2.18.184-3.294 0-.113-.006-.225-.008-.338l-15.11 3.458.781 3.412"/></g><path opacity=".1" d="M49.863 39.873c0 10.563-7.998 19.13-17.863 19.13s-17.861-8.564-17.861-19.13c0-10.573 10.377-8.54 17.861-8.54 7.486 0 17.863-2.033 17.863 8.54"/><path fill="#fff" d="M49.5 39.07c0 9.967-7.836 18.05-17.502 18.05s-17.502-8.08-17.502-18.05c0-9.975 10.168-8.06 17.502-8.06S49.5 29.092 49.5 39.07"/><g fill="#664e27"><path d="M27.7 22.912c-4.757-5.142-13.826-2.711-15.375 4.119-.091.416.547.807 1.268 1.061a11.236 11.236 0 0 1 13.537-3.628c.498-.58.854-1.238.57-1.552M51.675 27.03c-1.549-6.83-10.618-9.261-15.374-4.121-.287.316.07.975.568 1.553a11.235 11.235 0 0 1 13.536 3.627c.722-.254 1.36-.643 1.27-1.059"/></g></svg>