<svg xmlns="http://www.w3.org/2000/svg" viewBox="0 0 64 64"><path fill="#ffdd67" d="M62 32c0 16.567-10.766 30-30 30C15.431 62 2 48.566 2 32 2 15.431 15.431 2 32 2c16.568 0 30 13.431 30 30"/><g fill="#467591"><path d="M26.824 21.283c-.213-.404-.686-.557-1.059-.348l-2 1.162.668-4.975a.91.91 0 0 0-.098-.539l-.637-1.207a.841.841 0 0 0-.471-.406.698.698 0 0 0-.588.061l-4.941 2.865a.774.774 0 0 0-.359.488.927.927 0 0 0 .08.637l.672 1.27c.215.406.686.559 1.057.348l1.867-1.082-.66 4.881a.92.92 0 0 0 .098.541l.67 1.268c.182.342.547.508.881.42a.709.709 0 0 0 .176-.074l5.04-2.914a.79.79 0 0 0 .359-.49.887.887 0 0 0-.078-.635l-.67-1.271M40.5 8.07a.802.802 0 0 0-.488-.371l-7.87-1.979c-.416-.105-.824.168-.91.611l-.379 1.947a.869.869 0 0 0 .109.619c.113.189.289.32.49.371l3.614.91-5.471 4.732a.803.803 0 0 0-.26.453l-.379 1.947a.889.889 0 0 0 .113.623.797.797 0 0 0 .488.367l8.02 2.02a.727.727 0 0 0 .58-.101.783.783 0 0 0 .33-.512l.377-1.943c.086-.441-.184-.887-.6-.992l-3.832-.963 5.563-4.82a.787.787 0 0 0 .258-.455l.361-1.842a.87.87 0 0 0-.11-.62M54.977 22.416a.761.761 0 0 0 .428-.389l1.154-2.461a.758.758 0 0 0-.365-1.01L50.36 15.8l10.125-5.03a.747.747 0 0 0 .348-.354l1.096-2.338a.76.76 0 0 0-.363-1.01l-10.582-5a.76.76 0 0 0-1.01.361l-1.16 2.468a.758.758 0 0 0 .363 1.01l5.543 2.619-9.971 4.945a.752.752 0 0 0-.346.354l-1.156 2.457a.762.762 0 0 0 .366 1.007l10.781 5.094a.756.756 0 0 0 .579.032"/></g><g fill="#664e27"><path d="M49.969 45.17c.789 1.223 1.057 3.629-.643 4.725-1.383.889-3.65.65-5.416 1.787-1.787 1.154-2.533 3.309-3.928 4.207-1.918 1.238-3.723-.162-4.506-1.371-1.41-2.189.689-6.05 4.691-8.637 4-2.58 8.392-2.899 9.802-.711M38.787 33.986c5.577 4.237 14.09.269 14.424-6.727.018-.426-.678-.7-1.431-.824a11.237 11.237 0 0 1-12.702 5.924c-.39.658-.627 1.367-.291 1.627M16.366 44.44c5.577 4.238 14.09.27 14.427-6.726.016-.426-.68-.701-1.434-.824a11.236 11.236 0 0 1-12.701 5.924c-.39.658-.627 1.366-.292 1.626"/></g></svg>