<svg xmlns="http://www.w3.org/2000/svg" viewBox="0 0 64 64"><ellipse fill="#89664c" cx="53.748" cy="28.969" rx="8.251" ry="8.231"/><ellipse fill="#ffc5d3" cx="53.748" cy="28.969" rx="5.372" ry="5.36"/><ellipse fill="#89664c" cx="10.249" cy="28.969" rx="8.25" ry="8.231"/><ellipse fill="#ffc5d3" cx="10.249" cy="28.969" rx="5.372" ry="5.36"/><g fill="#89664c"><path d="M43.38 6.781c1.145-.604 1.885-.908 1.885-.908-3.237-1.138-6.05-1.803-8.476-2.105 1.278-.962 2.132-1.329 2.132-1.329-20.417-2.878-30.14 8.956-30.14 19.457l46.44.002c-.698-7.312-4.781-12.316-11.843-15.12"/><path d="M55.32 23.568c0-9.707-10.442-17.574-23.324-17.574S8.671 13.861 8.671 23.568c0 2.271.592 4.436 1.633 6.428-1.041 1.994-1.633 4.157-1.633 6.43C8.671 46.132 19.114 54 31.996 54S55.32 46.132 55.32 36.426c0-2.272-.591-4.436-1.633-6.43 1.042-1.992 1.633-4.156 1.633-6.428"/></g><path fill="#e0ac7e" d="M52.02 24.2C52.02 7.266 32 18.054 32 18.054S11.98 7.266 11.98 24.2c0 4.738 2.917 8.962 7.473 11.719-1.328 1.657-2.106 3.591-2.106 5.666 0 6.082 6.562 11.01 14.654 11.01 8.095 0 14.655-4.928 14.655-11.01 0-2.075-.778-4.01-2.107-5.666 4.555-2.757 7.473-6.981 7.473-11.719"/><g fill="#3b302a"><path d="M35.15 34.746c0 1.138-.447 2.057-1 2.057s-1-.919-1-2.057c0-1.133.447-2.059 1-2.059s1 .926 1 2.059M30.854 34.746c0 1.138-.447 2.057-1 2.057-.552 0-.999-.919-.999-2.057 0-1.133.447-2.059.999-2.059.553.001 1 .926 1 2.059"/></g><path fill="#fff" d="M36.832 26.23s.354-3.798 3.293-5.02c3.314-1.374 5.574 1.983 6.188 3.903.905 2.83-.231 5.929-.568 6.644-.223.47-2.672 2.694-8.19.589 0 .001-1.376-3.15-.723-6.12"/><ellipse fill="#3b302a" cx="40.683" cy="27.746" rx="3" ry="4.115"/><path fill="#fff" d="M27.17 26.23s-.354-3.798-3.291-5.02c-3.314-1.374-5.576 1.982-6.189 3.903-.905 2.83.23 5.929.568 6.644.223.47 2.672 2.694 8.191.589 0 .001 1.374-3.15.721-6.12"/><ellipse fill="#3b302a" cx="23.319" cy="27.746" rx="3" ry="4.115"/><path fill="#89664c" d="M14.896 48L6.57 61.998h12.95c.827-6.998 4-7.594 4-7.594L14.895 48"/><path fill="#ffd6bb" d="M20.224 39.34s4.88-4.49 9.493-3.945c2.278.27-7.082 7.58-7.082 7.58s9.712-8.23 11.722-5.646c1.824 2.346-8.926 9.818-8.926 9.818s9.957-8.05 9.65-4.555c-.339 3.865-7.878 12.863-12.483 13.779-6.641 1.322-11.79-2.908-8.314-17.506 1.739-7.312 3.529.856 5.94.475"/><path fill="#89664c" d="M48.34 46.2l10.617 15.797H44.985c-.035-3.65-2.18-6.59-2.18-6.59L48.34 46.2"/><path fill="#ddb199" d="M38.23 39.682s-6.222-2.291-10.279-.029c-2 1.119 9.436 4.309 9.436 4.309s-12.12-3.908-12.989-.754c-.792 2.865 11.994 5.678 11.994 5.678s-12.275-3.652-10.657-.533c1.785 3.443 12.185 8.891 16.791 7.982 6.644-1.31-1.921-17.218-4.296-16.653"/><path fill="#ffd6bb" d="M39.556 39.682s-6.222-2.291-10.279-.029c-2 1.119 9.436 4.309 9.436 4.309s-12.12-3.908-12.989-.754c-.792 2.865 11.994 5.678 11.994 5.678s-12.275-3.652-10.657-.533c1.785 3.443 12.185 8.891 16.791 7.982 6.645-1.309 9.793-7.182 1.018-19.354-4.398-6.098-2.939 2.136-5.314 2.701"/></svg>