<svg xmlns="http://www.w3.org/2000/svg" viewBox="0 0 64 64"><g fill="#89664c"><path d="M43.45 13.872c1.152-.616 1.898-.925 1.898-.925-3.259-1.16-6.087-1.837-8.534-2.146 1.288-.98 2.147-1.354 2.147-1.354-20.555-2.934-30.34 9.126-30.34 19.831l46.754.001c-.703-7.452-4.815-12.552-11.925-15.407"/><path d="M55.48 30.982c0-9.893-10.513-17.912-23.483-17.912S8.515 21.09 8.515 30.982c0 2.314.596 4.521 1.644 6.551-1.048 2.032-1.644 4.237-1.644 6.554 0 9.893 10.513 17.912 23.482 17.912s23.483-8.02 23.483-17.912c0-2.316-.596-4.521-1.645-6.554 1.05-2.03 1.645-4.236 1.645-6.551"/></g><path fill="#e0ac7e" d="M52.16 31.631c0-17.259-20.16-6.264-20.16-6.264s-20.16-10.995-20.16 6.264c0 4.828 2.937 9.133 7.523 11.944-1.339 1.689-2.121 3.661-2.121 5.775 0 6.199 6.605 11.221 14.754 11.221S46.75 55.551 46.75 49.35c0-2.114-.784-4.086-2.121-5.775 4.587-2.81 7.524-7.116 7.524-11.944"/><g fill="#3b302a"><path d="M35.17 42.38c0 1.159-.45 2.096-1.01 2.096s-1.01-.937-1.01-2.096c0-1.154.45-2.099 1.01-2.099s1.01.945 1.01 2.099M30.847 42.38c0 1.159-.45 2.096-1.01 2.096s-1.01-.937-1.01-2.096c0-1.154.45-2.099 1.01-2.099s1.01.945 1.01 2.099M40.18 47.45c-.713 1.47-1.568 2.89-2.727 4.087-1.131 1.202-2.564 2.214-4.246 2.664-1.684.444-3.538.155-4.989-.709-1.479-.831-2.603-2.099-3.459-3.484 1.285.966 2.595 1.821 3.956 2.362 1.362.531 2.779.666 4.128.299 1.359-.333 2.633-1.124 3.833-2.059 1.191-.946 2.32-2.056 3.504-3.16"/></g><g fill="#bf936c"><path d="M38.541 45.704a3.386 3.386 0 0 1 1.497-.486 2.64 2.64 0 0 1 1.646.364c.517.327.918.897 1.014 1.486a2.775 2.775 0 0 1-.161 1.656c-.201-.516-.346-.994-.569-1.377-.227-.381-.476-.665-.806-.862-.655-.44-1.596-.515-2.621-.781M22.562 51.668a3.097 3.097 0 0 1-.457-1.366 2.522 2.522 0 0 1 .301-1.527c.282-.483.774-.857 1.281-.936.501-.1.98-.027 1.406.194-.434.209-.828.357-1.137.566-.307.213-.528.429-.686.72-.355.567-.437 1.408-.708 2.349"/></g><g fill="#735540"><path d="M16.372 39.747a.502.502 0 0 1-.389-.187l-.062-.079a.51.51 0 0 1-.04-.586l.057-.094.152-.217a5.89 5.89 0 0 1 .736-.814c.34-.314.732-.605 1.166-.869a8.368 8.368 0 0 1 2.781-1.025 12.56 12.56 0 0 1 2.851-.186 10.35 10.35 0 0 0-2.11-1.415 11.958 11.958 0 0 0-2.676-.948 12.307 12.307 0 0 0-1.406-.234 13.095 13.095 0 0 0-1.434-.094.505.505 0 0 1-.495-.5l-.002-.115a.507.507 0 0 1 .301-.474l.413-.159c.146-.05.285-.092.425-.128.276-.071.555-.122.837-.163a8.311 8.311 0 0 1 1.697-.047 8.971 8.971 0 0 1 3.279.914 9.201 9.201 0 0 1 2.713 2.057 8.68 8.68 0 0 1 1.013 1.371 7.438 7.438 0 0 1 .563 1.162l.071.206.044.126.025.1a.508.508 0 0 1-.222.572c-.145.088-.3.155-.477.115-.413-.1-.826-.184-1.241-.245a12.567 12.567 0 0 0-1.266-.128 11.208 11.208 0 0 0-2.502.146c-.785.133-1.582.366-2.369.695-.371.151-.741.33-1.107.531-.364.192-.715.401-1.054.629a.471.471 0 0 1-.272.083M47.577 39.726a.422.422 0 0 1-.221-.061 11.465 11.465 0 0 0-1.048-.627 11.396 11.396 0 0 0-1.11-.532 10.886 10.886 0 0 0-2.367-.695 11.244 11.244 0 0 0-2.506-.147c-.396.017-.811.06-1.266.127-.412.063-.822.145-1.229.243-.181.045-.352-.027-.494-.115a.515.515 0 0 1-.219-.569l.027-.1c.002-.01.036-.111.039-.118l.069-.201c.06-.152.113-.285.171-.416a8.03 8.03 0 0 1 .397-.758c.28-.475.62-.935 1.013-1.372a9.235 9.235 0 0 1 2.714-2.057 8.959 8.959 0 0 1 3.276-.913 8.428 8.428 0 0 1 1.697.046 6.283 6.283 0 0 1 1.254.287l.422.163c.183.08.301.263.301.465v.116a.505.505 0 0 1-.496.508c-.48.005-.961.038-1.426.093a12.1 12.1 0 0 0-4.088 1.183c-.844.414-1.568.949-2.11 1.415.837-.048 1.895.008 2.853.186a8.366 8.366 0 0 1 2.775 1.023c.439.267.832.559 1.166.869.178.165.346.336.504.52.078.09.154.188.229.286l.104.149.061.091c.117.186.148.498.011.666a.675.675 0 0 1-.503.245"/></g><path fill="#89664c" d="M51.135 43.656L49.26 62H62c-4.044-12-2.851-17.291-2.851-17.291l-8.014-1.053z"/><path fill="#ebbca2" d="M59.44 28.889c-1.703-4.469-4.779-8.22-6.083-6.305-1.212 1.779.091 2.02-.398 3.958-1.03 4.067 1.298 8.212.526 10.129-4.659 11.585 1.338 12.575 3.624 11.626 4.623-1.93 4.332-14.15 2.331-19.408"/><path fill="#89664c" d="M12.865 43.656L14.74 62H2c4.044-12 2.851-17.291 2.851-17.291l8.014-1.053z"/><path fill="#ebbca2" d="M4.564 28.889c1.703-4.469 4.779-8.22 6.083-6.305 1.212 1.779-.091 2.02.398 3.958 1.03 4.067-1.298 8.212-.526 10.129 4.659 11.585-1.338 12.575-3.624 11.626-4.625-1.93-4.333-14.15-2.331-19.408"/></svg>