<svg xmlns="http://www.w3.org/2000/svg" viewBox="0 0 64 64"><circle fill="#ffdd67" cx="31.999" cy="32" r="30"/><path fill="#664e27" d="M38.34 50H25.65c-.873 0-.873-3 0-3h12.689c.874 0 .874 3 .001 3"/><path fill="#fff" d="M51.16 22.301c-.74 2.452-3.164 4.253-6.05 4.253-3.471 0-6.283-2.608-6.283-5.825 0-.539.084-1.059.232-1.554a8.99 8.99 0 0 0-4.566 7.826 9 9 0 0 0 18 0 8.94 8.94 0 0 0-1.336-4.7"/><path fill="#664e27" d="M45.12 26.554c2.883 0 5.307-1.801 6.05-4.253-1.582-2.576-4.418-4.3-7.664-4.3a8.962 8.962 0 0 0-4.434 1.174 5.411 5.411 0 0 0-.232 1.554c0 3.216 2.812 5.825 6.283 5.825"/><path fill="#fff" d="M28.16 22.3c-.741 2.452-3.165 4.253-6.05 4.253-3.471 0-6.284-2.608-6.284-5.825 0-.539.085-1.059.233-1.554A8.99 8.99 0 0 0 11.493 27a9 9 0 0 0 18 0 8.94 8.94 0 0 0-1.336-4.7"/><path fill="#664e27" d="M22.12 26.553c2.882 0 5.306-1.801 6.05-4.253-1.583-2.576-4.419-4.3-7.664-4.3a8.96 8.96 0 0 0-4.434 1.174 5.412 5.412 0 0 0-.233 1.554c0 3.216 2.814 5.825 6.284 5.825"/></svg>