<svg xmlns="http://www.w3.org/2000/svg" viewBox="0 0 64 64"><path fill="#dbb471" d="M32 1.998c-14.487 0-22.397 9.03-22.397 20.924v37.08h44.793v-37.08c0-17.68-12.12-17.35-12.12-17.35s-.912-3.574-10.271-3.574"/><path fill="#b386e2" d="M41.957 49.05v-7.141H22.048v7.141c-12.519.387-15.04 2.407-15.04 12.947h49.999c0-10.539-2.531-12.56-15.05-12.947"/><path fill="#fed0ac" d="M15.814 32.891s-3.26-.834-3.26-5.662c0-3.822 2.459-4.479 2.459-4.479 8.811 0 23.17-11.453 23.17-11.453s5.428 10.111 10.664 11.453c0 0 2.537.469 2.537 4.479 0 4.828-3.385 5.662-3.385 5.662-.043 7.283-9.99 16.07-16.03 16.07-6.04 0-16.15-8.785-16.15-16.07"/><path fill="#664e27" d="M26 42.963c-.111-.072-.172-.166-.172-.279-.002-.773 2.746-1.721 6.134-1.721 3.388 0 6.132.941 6.132 1.713a.373.373 0 0 1-.145.287s-2.65-.666-5.988-.666c-3.33 0-5.961.666-5.961.666"/><g fill="#fff"><path d="M45.45 28.4a4.914 4.914 0 0 1-4.938 4.939 4.915 4.915 0 0 1-4.939-4.939c0-2.673 9.877-2.673 9.877 0M18.558 28.06a4.915 4.915 0 0 0 4.938 4.938 4.912 4.912 0 0 0 4.939-4.938c0-2.676-9.877-2.676-9.877 0"/></g><circle fill="#664e27" cx="23.497" cy="29.889" r="3.108"/><circle fill="#231f20" cx="23.498" cy="29.889" r="1"/><circle fill="#664e27" cx="40.51" cy="30.23" r="3.109"/><g fill="#231f20"><circle cx="40.51" cy="30.23" r="1"/><path d="M17.18 28.17c-.117-.078-.182-.176-.182-.295-.002-.818 2.906-1.822 6.492-1.822 3.588 0 6.494.998 6.494 1.814a.398.398 0 0 1-.154.303s-2.805-.705-6.34-.705c-3.525 0-6.31.705-6.31.705M34.2 28.17c-.117-.078-.182-.176-.182-.295-.002-.818 2.906-1.822 6.492-1.822 3.588 0 6.494.998 6.494 1.814a.398.398 0 0 1-.154.303s-2.805-.705-6.34-.705c-3.525 0-6.31.705-6.31.705"/></g><path fill="#e0a372" d="M36.05 37.39c0 1.588-3.287 2.047-4.04 2.047s-4.04-.563-4.04-2.148c-.001-.001 8.09-.69 8.09.101"/></svg>