<svg xmlns="http://www.w3.org/2000/svg" viewBox="0 0 64 64"><path fill="#428bc1" d="M45.29 36.749c-8.241-4.362-13.292-.465-13.292-.465s-5.05-3.897-13.29.465C11.356 40.637 1.79 49.518 2.484 53.465c0 0 21.937 6.907 29.514 6.907 7.578 0 29.517-6.907 29.517-6.907.695-3.947-8.873-12.828-16.225-16.716"/><path fill="#ffe1bd" d="M33.28 58.911c7.787-5.285 10.918-5.233 11.05-5.285.688 1.238 1.674 4.843 1.99 6.591l-.016.002c-.66 1.69-11.607 2.611-13.532.768-.395-.379-.522-1.377.505-2.076"/><path fill="#428bc1" d="M54.961 46.67c2.873-.614 8.885 2.818 6.486 8.04-2.1 4.578-14.811 5.481-15.12 5.504-.316-1.748-1.303-5.353-1.99-6.591 2.146-.822 8.242-6.444 10.625-6.956"/><path fill="#ffe1bd" d="M30.717 58.911c-7.787-5.285-10.918-5.233-11.05-5.285-.688 1.238-1.674 4.843-1.99 6.591l.016.002c.659 1.69 11.606 2.611 13.531.768.395-.379.522-1.377-.505-2.076"/><path fill="#428bc1" d="M9.04 46.67c-2.872-.614-8.884 2.818-6.486 8.04 2.101 4.578 14.811 5.481 15.12 5.504.316-1.748 1.302-5.353 1.99-6.591-2.148-.822-8.244-6.444-10.627-6.956"/><g fill="#2e6c93"><path d="M43.03 53.3s2.483 4.25 3.305 6.92c.069-3.373-.446-5.186-.817-6.107 1.73-1.953 8.513-6.902 9.452-7.439-4.284 1.313-11.94 6.626-11.94 6.626M20.97 53.3s-2.483 4.25-3.305 6.92c-.069-3.373.446-5.186.817-6.107-1.73-1.953-8.513-6.902-9.452-7.439 4.285 1.313 11.94 6.626 11.94 6.626"/></g><path fill="#594640" d="M31.999 14c11.815 0 19.09 6.63 19.09 14.869v8.157c0 6.506-5.143 6.507-5.139 6.506H17.308c.002.001-4.407 0-4.407-6.506v-8.157C12.9 20.63 20.569 14 31.991 14"/><path fill="#ffe1bd" d="M49.29 38.495s-.625-3.518-.715-4.703c-.322-4.283-5.195 2.491-16.578 2.491-11.384 0-16.256-6.774-16.579-2.491-.089 1.186-.713 4.703-.713 4.703-3.796 0-3.796 5.288 0 5.288 0 6.558 10.292 9.522 17.292 9.522S49.29 50.34 49.29 43.783c3.795 0 3.795-5.288 0-5.288"/><g fill="#664e27"><path d="M44.07 42.979a.377.377 0 0 0-.391-.008c-2.113 1.232-5.491 1.232-7.6 0a.377.377 0 0 0-.391.008.415.415 0 0 0-.188.358c.041 1.73 1.965 3.088 4.379 3.088 2.412 0 4.336-1.357 4.377-3.088a.41.41 0 0 0-.186-.358M27.92 42.971c-2.113 1.232-5.49 1.232-7.6 0a.375.375 0 0 0-.39.008.41.41 0 0 0-.188.358c.039 1.73 1.961 3.088 4.377 3.088 2.418 0 4.34-1.357 4.379-3.088a.406.406 0 0 0-.188-.358.37.37 0 0 0-.39-.008M29.03 50.03c.025.963 1.344 1.724 2.969 1.724 1.623 0 2.943-.761 2.969-1.724-.799.403-1.836.646-2.969.646s-2.169-.242-2.969-.646"/></g><g fill="#42ade2"><path d="M35.973 2l3.566 10.472 4.941-8.828zM53.21 8.242l-4.72 8.928 9.88-1.277zM28.374 2l-3.567 10.472-5.29-8.828zM10.791 8.242l4.715 8.928-9.873-1.277z"/></g></svg>