<svg xmlns="http://www.w3.org/2000/svg" viewBox="0 0 64 64"><path fill="#dbb471" d="M32 1.985c-14.488 0-22.398 9.03-22.398 20.924v37.08h44.795v-37.08c0-17.679-12.12-17.35-12.12-17.35s-.913-3.574-10.272-3.574"/><path fill="#fed0ac" d="M15.812 32.879s-3.262-.834-3.262-5.662c0-3.823 2.459-4.479 2.459-4.479 8.811 0 23.17-11.454 23.17-11.454s5.428 10.112 10.664 11.454c0 0 2.537.468 2.537 4.479 0 4.828-3.385 5.662-3.385 5.662-.045 7.282-9.992 16.07-16.03 16.07-6.04 0-16.15-8.785-16.15-16.07"/><path fill="#e0a372" d="M36.01 36.2c0 1.587-3.289 2.047-4.04 2.047-.756 0-4.047-.563-4.047-2.149 0 0 8.09-.69 8.09.102"/><path fill="#f5f5f5" d="M26.456 29.861c.951 0 .824-2.458.824-2.458-2.92-6.522-9.42-2.394-9.42-2.394-2.527 1.128 1.133 4.694 1.719 4.852 2.754.746 6.877 0 6.877 0"/><circle fill="#664e27" cx="22.648" cy="26.876" r="3.108"/><g fill="#231f20"><circle cx="22.647" cy="26.876" r="1"/><path d="M28.1 28.345c-.795-.971-1.582-1.904-2.496-2.614-.912-.707-1.938-1.154-3.045-1.223-1.107-.107-2.268.128-3.471.355-.602.117-1.223.232-1.871.269-.627.026-1.385-.047-1.832-.529.592.234 1.174.11 1.738-.06.568-.163 1.131-.396 1.721-.594 1.164-.414 2.451-.754 3.814-.651a5.766 5.766 0 0 1 1.969.538c.607.313 1.16.714 1.611 1.195.912.953 1.508 2.109 1.862 3.314"/></g><path fill="#f5f5f5" d="M37.474 29.861c-.953 0-.826-2.458-.826-2.458 2.92-6.522 9.422-2.394 9.422-2.394 2.527 1.128-1.133 4.694-1.721 4.852-2.75.746-6.875 0-6.875 0"/><circle fill="#664e27" cx="41.28" cy="26.876" r="3.109"/><g fill="#231f20"><circle cx="41.28" cy="26.876" r="1"/><path d="M35.833 28.345c.354-1.205.947-2.36 1.861-3.313.451-.481 1-.882 1.609-1.195a5.779 5.779 0 0 1 1.969-.538c1.363-.103 2.65.237 3.814.65.59.198 1.154.432 1.723.595.563.17 1.146.294 1.738.06-.449.482-1.205.556-1.834.529-.648-.036-1.27-.151-1.873-.269-1.199-.228-2.361-.463-3.467-.355-1.105.069-2.133.516-3.045 1.223-.913.709-1.7 1.643-2.495 2.613"/></g><path fill="#b386e2" d="M52.4 61.971c0-15-1.389-15.17-20.4-15.17-19.02 0-20.395.17-20.395 15.17H52.4"/><g fill="#deb696"><path d="M4.222 20.19c.821.649 13.871 11.208 13.871 11.208l-3.201 6.136c-4.307-2.57-6.224-7.232-12.492-14.383-1.16-1.323.437-4.054 1.822-2.961M59.778 20.19c-.822.649-13.871 11.208-13.871 11.208l3.201 6.136c4.307-2.57 6.224-7.232 12.492-14.383 1.161-1.323-.437-4.054-1.822-2.961"/></g><path fill="#c99ff7" d="M42.808 44.37c4.414-3.543 7.43-6.209 7.43-6.209l-3.484-7.886c-2.979 2.749-8.628 5.666-14.752 8.687-6.125-3.02-11.774-5.938-14.752-8.687l-3.484 7.886s3.02 2.666 7.429 6.208c-10.298 5.427-18.16 11.07-12.09 16.589 3.719 3.386 13.696-2.049 22.893-8.457 9.197 6.408 19.17 11.843 22.895 8.457 6.07-5.523-1.793-11.161-12.09-16.588"/><g fill="#b386e2"><path d="M23.12 58.12l19.688-13.75L28.36 57.971zM21.19 44.37L32 38.965l-11.78 4.621z"/></g></svg>