<svg xmlns="http://www.w3.org/2000/svg" viewBox="0 0 64 64"><path fill="#ffbc00" d="M32 2C17.512 2 9.602 11.029 9.602 22.924V60h44.795V22.924c0-17.68-12.125-17.35-12.125-17.35S41.359 2 32 2z"/><path fill="#b386e2" d="M41.955 49.054v-7.142h-19.91v7.142C9.525 49.439 7 51.46 7 62h50c0-10.538-2.532-12.56-15.045-12.946z"/><path fill="#ffdd67" d="M15.811 32.893s-3.26-.834-3.26-5.662c0-3.822 2.459-4.479 2.459-4.479 8.811 0 23.17-11.453 23.17-11.453s5.428 10.111 10.664 11.453c0 0 2.537.469 2.537 4.479 0 4.828-3.385 5.662-3.385 5.662-.043 7.283-9.99 16.07-16.03 16.07-6.04 0-16.15-8.785-16.15-16.07"/><path fill="#664e27" d="M26 42.965c-.111-.072-.172-.166-.172-.279-.002-.773 2.746-1.721 6.135-1.721s6.133.941 6.133 1.713a.373.373 0 0 1-.145.287s-2.65-.666-5.988-.666c-3.332 0-5.963.666-5.963.666"/><g fill="#fff"><path d="M45.45 28.402a4.914 4.914 0 0 1-4.938 4.939 4.915 4.915 0 0 1-4.939-4.939c0-2.673 9.877-2.673 9.877 0M18.555 28.06a4.915 4.915 0 0 0 4.938 4.938 4.912 4.912 0 0 0 4.939-4.938c0-2.676-9.877-2.676-9.877 0"/></g><circle fill="#664e27" cx="23.493" cy="29.891" r="3.108"/><circle fill="#231f20" cx="23.494" cy="29.891" r="1"/><circle fill="#664e27" cx="40.508" cy="30.23" r="3.109"/><g fill="#231f20"><circle cx="40.507" cy="30.23" r="1"/><path d="M17.18 28.17c-.118-.078-.182-.176-.182-.295-.002-.818 2.906-1.822 6.492-1.822 3.588 0 6.494.998 6.494 1.814a.398.398 0 0 1-.154.303s-2.805-.705-6.34-.705c-3.525 0-6.31.705-6.31.705M34.2 28.17c-.117-.078-.182-.176-.182-.295-.002-.818 2.906-1.822 6.492-1.822 3.588 0 6.494.998 6.494 1.814a.398.398 0 0 1-.154.303s-2.805-.705-6.34-.705c-3.525 0-6.31.705-6.31.705"/></g><path fill="#eba352" d="M36.04 37.4c0 1.588-3.287 2.047-4.04 2.047s-4.045-.563-4.045-2.148c0-.001 8.09-.69 8.09.101"/></svg>