<svg xmlns="http://www.w3.org/2000/svg" viewBox="0 0 64 64"><g fill="#4aa9ff"><path d="M27.03 2l5 10 5-10zM44.854 3l-.674 11.16L53.51 8zM10.542 8l9.33 6.16L19.2 3z"/></g><path fill="#e6b796" d="M20.365 62H8.604V49.12l13.823 3.166C19.088 55.756 20.365 62 20.365 62z"/><g fill="#ffe1bd"><path d="M19.251 62H6.096s.189-6.401-2.022-11.86l16.46 2.367C18.708 57.401 19.251 62 19.251 62zM18.03 44.43h5V22.17c0-1.489-1.119-2.731-2.495-2.731h-.014c-1.378 0-2.495 1.242-2.495 2.777v22.21"/><path d="M12.12 44.43h5.909V20.3c0-1.822-1.32-3.301-2.952-3.301S12.12 18.478 12.12 20.3v24.13"/><path d="M6.97 44.43h5.152V21.716c0-1.586-1.153-2.871-2.571-2.871h-.01c-1.42 0-2.571 1.285-2.571 2.871V44.43M4.621 22.248c-1.323 0-2.349 1.195-2.349 2.667V44.43H6.97V24.915c0-1.472-1.025-2.667-2.349-2.667"/></g><g fill="#e6b796"><path d="M20.541 19.438h-.014c-.15 0-.296.02-.438.048 1.167.231 2.057 1.356 2.057 2.684v22.26h.891V22.17c-.001-1.489-1.12-2.732-2.496-2.732M15.08 17c-.152 0-.3.025-.446.052 1.419.24 2.51 1.597 2.51 3.249v16.13l.889 1v-17.13C18.032 18.479 16.711 17 15.08 17M9.551 18.845h-.01c-.15 0-.297.021-.44.05 1.21.235 2.132 1.404 2.132 2.821V36.43l.89 1V21.716c0-1.586-1.154-2.871-2.572-2.871M4.621 22.248c-.154 0-.301.02-.444.051 1.101.233 1.903 1.314 1.903 2.616V36.43l.891 1V24.915c-.001-1.472-1.026-2.667-2.35-2.667"/></g><path fill="#ffe1bd" d="M31.419 34.25c-1.499-1.739-4.522-.901-6.62 3.463-1.463 3.049-1.861 2.437-2.654 2.603v-2.732S2.224 36.328 2.224 39.333c0 0-.93 7.367 1 11.998 2.878 6.901 17.662 8.72 22.325-3.02.928-2.332 2.154-4.778 3.188-7.288 1.248-3.02 4.324-4.86 2.68-6.769"/><g fill="#e6b796"><path d="M30.417 33.542c3.213 2.396-2.698 6.979-5.494 14.1-4 10.195-15.686 10.165-20.59 5.484 4.456 5.322 16.997 6.308 21.22-4.826 2.741-7.229 9.503-12.68 4.865-14.76"/><path d="M23.04 40.19c-3.932-1.372-12.05 1.321-10.986 9.08 0-7.266 6.475-8.955 10.1-8.955.433 0 .89-.125.89-.125M43.636 62h11.761V49.12l-13.823 3.166C44.912 55.756 43.636 62 43.636 62z"/></g><g fill="#ffe1bd"><path d="M44.749 62h13.155s-.189-6.401 2.02-11.86l-16.46 2.367C45.29 57.401 44.747 62 44.747 62M45.969 44.43h-5V22.17c0-1.489 1.119-2.731 2.495-2.731h.014c1.378 0 2.495 1.242 2.495 2.777v22.21"/><path d="M51.878 44.43h-5.909V20.3c0-1.822 1.32-3.301 2.952-3.301s2.957 1.479 2.957 3.301v24.13M57.03 44.43h-5.152V21.716c0-1.586 1.153-2.871 2.571-2.871h.01c1.42 0 2.571 1.285 2.571 2.871V44.43M59.38 22.248c1.323 0 2.349 1.195 2.349 2.667V44.43H57.03V24.915c0-1.472 1.026-2.667 2.35-2.667"/></g><g fill="#e6b796"><path d="M43.46 19.438h.014c.15 0 .296.02.438.048-1.167.231-2.057 1.356-2.057 2.684v22.26h-.891V22.17c.001-1.489 1.12-2.732 2.496-2.732M48.921 17c.152 0 .3.025.446.052-1.419.24-2.51 1.597-2.51 3.249v16.13l-.889 1v-17.13C45.969 18.479 47.289 17 48.921 17M54.45 18.845h.01c.15 0 .297.021.44.05-1.21.235-2.132 1.404-2.132 2.821V36.43l-.89 1V21.716c.001-1.586 1.154-2.871 2.572-2.871M59.38 22.248c.153 0 .301.02.444.051-1.101.233-1.903 1.314-1.903 2.616V36.43l-.891 1V24.915c0-1.472 1.026-2.667 2.35-2.667"/></g><path fill="#ffe1bd" d="M32.582 34.25c1.499-1.739 4.522-.901 6.62 3.463 1.463 3.049 1.861 2.437 2.654 2.603v-2.732s19.921-1.256 19.921 1.749c0 0 .93 7.367-1 11.998-2.878 6.901-17.661 8.72-22.324-3.02-.928-2.332-2.154-4.778-3.188-7.288-1.248-3.02-4.324-4.86-2.68-6.769"/><g fill="#e6b796"><path d="M33.583 33.542c-3.213 2.396 2.698 6.979 5.494 14.1 4 10.195 15.687 10.165 20.591 5.484-4.456 5.322-16.997 6.308-21.22-4.826-2.742-7.229-9.503-12.68-4.866-14.76"/><path d="M40.965 40.19c3.932-1.372 12.05 1.321 10.986 9.08 0-7.266-6.475-8.955-10.1-8.955-.433 0-.89-.125-.89-.125"/></g></svg>