<svg xmlns="http://www.w3.org/2000/svg" viewBox="0 0 64 64"><path fill="#83bf4f" d="M26 26h4v38h-4z"/><path fill="#42ade2" d="M31 30h19v6H31z"/><path fill="#fc97b2" d="M31 36h19v6H31z"/><path fill="#42ade2" d="M14 30h11v6H14z"/><path fill="#fc97b2" d="M14 36h11v6H14z"/><path fill="#42ade2" d="M31 42h19v6H31z"/><g fill="#699635"><path d="M26 48h4v2h-4zM25 35h6v2h-6zM25 41h6v2h-6z"/></g><path fill="#42ade2" d="M28 0c-7.732 0-14 6.268-14 14 0 3.866 1.567 7.366 4.101 9.9l9.899 1 9.901-1v.001a13.953 13.953 0 0 0 4.1-9.9c-.001-7.733-6.269-14-14-14"/><path fill="#ff717f" d="M37.9 23.9l-2.828-2.828c-3.901 3.898-10.245 3.898-14.14 0L18.104 23.9a13.92 13.92 0 0 0 7.899 3.942v2.16h4v-2.16a13.922 13.922 0 0 0 7.9-3.942"/><path fill="#fff" d="M34 15c0 1.1-.9 2-2 2h-8c-1.1 0-2-.9-2-2V7c0-1.1.9-2 2-2h8c1.1 0 2 .9 2 2v8"/><g fill="#42ade2"><path d="M32 10c0 .55-.449 1-1 1h-6c-.549 0-1-.45-1-1V8c0-.55.451-1 1-1h6c.551 0 1 .45 1 1v2"/><circle cx="25" cy="14" r="1"/><circle cx="31" cy="14" r="1"/></g><g fill="#fff"><path d="M31 16v3c0 .55.451 1 1 1 .551 0 1-.45 1-1v-3h-2M23 16v3c0 .55.451 1 1 1 .551 0 1-.45 1-1v-3h-2"/></g><g fill="#699635"><path d="M25 42h6v6h-6zM25 36h6v6h-6zM25 30h6v6h-6z"/></g><g fill="#83bf4f"><path d="M27 30h2v5h-2zM27 37h2v4h-2zM27 43h2v5h-2z"/></g><g fill="#fff"><path d="M15.941 31.562h1.625v2.964h-1.625zM19.515 31.562h3.313v2.964h-3.313zM15.941 37.501h3.313V40.5h-3.313zM21.17 37.502h1.656V40.5H21.17zM42.57 31.531h6.158v1H42.57zM35.2 31.531h6.158v1H35.2zM38.633 33.525h10.1v1h-10.1zM37.414 43.504h11.314v1H37.414zM45.03 45.498h3.701v1H45.03zM33.25 45.498h10.598v1H33.25zM41.498 37.503h7.23v1h-7.23zM32.927 37.503h7.231v1h-7.231zM44.961 39.498h3.768v1h-3.768zM40.12 39.498h3.77v1h-3.77zM35.463 39.498h3.77v1h-3.77z"/></g></svg>