<svg xmlns="http://www.w3.org/2000/svg" viewBox="0 0 64 64"><path fill="#3e4347" d="M2.01 62h17.448L37.28 50.766H8.12L1.996 53.24z"/><path fill="#e8e8e8" d="M23.378 51.46c.133-.071.268-.141.4-.215l-.4.215"/><path fill="#c7e755" d="M3.145 33.944c-2.104 9.747-.558 19.517 11.487 19.517 2.517 0 5.674-.395 8.669-1.957 4.778-2.582 7.647-7.963 8.705-15.521.093-.658.188-1.341.29-2.038H3.146"/><path fill="#3e4347" d="M32.3 33.944c1.221-8.529 3.049-19.694 6.287-24.82H16.59c-2.442 2.503-5.09 5.874-7.813 10.421-2.226 3.717-4.474 9.05-5.628 14.399h29.15"/><path fill="#dae3ea" d="M31.661 2c-1.32 0-8.725.625-15.07 7.124h21.997c1.428-2.262 3.131-3.354 5.178-2.514C42.301 5.433 39.769 2 31.666 2"/><path fill="#c5d0d8" d="M44.604 7.04l.006.004c-7.283-4.685-10.482 14.09-12.314 26.896l25.539-5.95V16.98s-6.319-4.676-13.231-9.94"/><g fill="#83bf4f"><path d="M32.3 33.944c-.102.697-.197 1.38-.29 2.038-1.06 7.564-3.931 12.949-8.718 15.527L57.839 31.97v-3.977L32.3 33.944M19.448 41.34c0 .686.184 1.32.484 1.874h6.01a3.93 3.93 0 0 0 .483-1.874c0-.685-.185-1.32-.483-1.871h-6.01a3.902 3.902 0 0 0-.484 1.871M3.745 41.34c0 .686.184 1.32.485 1.874h6.01a3.909 3.909 0 0 0 .485-1.874c0-.685-.184-1.32-.484-1.871h-6.01a3.902 3.902 0 0 0-.484 1.871"/></g><g fill="#d6eef0"><path d="M6.361 41.34c0 .686.185 1.32.485 1.874h4.266a3.92 3.92 0 0 0 .484-1.874c0-.685-.184-1.32-.482-1.871H6.846a3.902 3.902 0 0 0-.485 1.871M22.07 41.34c0 .686.184 1.32.484 1.874h4.266a3.908 3.908 0 0 0 .484-1.874c0-.685-.184-1.32-.482-1.871h-4.267a3.891 3.891 0 0 0-.485 1.871"/></g><g fill="#3e4347"><path d="M54.58 17.513l-5.711-3.586c-.829-.521-1.507-.103-1.507.928v15.578l8.723-2.032v-8.07c0-1.03-.677-2.3-1.505-2.82M43.19 10.348c-1.986-1.265-4.445 5.88-5.156 8.241-1.448 4.813-2.708 12.868-2.708 12.868-.161 1.016.479 1.67 1.416 1.451l7.178-1.672c.938-.219 1.704-1.24 1.704-2.271v-17.07c-.001 0-1.554-.985-2.434-1.545"/></g><path fill="#94989b" d="M19.458 53.11H62V32h-4.165z"/><path fill="#ffe62e" d="M28.792 53.11h-3.111L58.871 32h1.037z"/><path fill="#666" d="M19.458 53.111H62V62H19.458z"/></svg>