<svg xmlns="http://www.w3.org/2000/svg" viewBox="0 0 64 64"><path fill="#83bf4f" d="M4.813 22.625h54.38V43.25H4.823z"/><path fill="#ffce31" d="M4.813 43.25h54.38V47H4.823z"/><g fill="#3e4347"><path d="M55.44 18.875H8.565a3.761 3.761 0 0 0-3.75 3.75h54.38a3.762 3.762 0 0 0-3.75-3.75"/><path d="M25.438 15.13h13.13v3.75h-13.13zM2 2h60v1.875H2zM23.563 39.793h-9.375v-11.25c0-3.28 9.375-3.28 9.375 0v11.25"/></g><path fill="#b4d7ee" d="M21.688 30.07c0-2.344-5.625-2.344-5.625 0v7.5h5.625v-7.5"/><path fill="#3e4347" d="M12.313 41.668h-7.5V25.146s7.5.194 7.5 4.335v12.187"/><path fill="#b4d7ee" d="M10.438 31c0-3.672-5.625-3.633-5.625-3.633v12.07h5.625V31"/><path fill="#3e4347" d="M34.813 39.793h-9.375v-11.25c0-3.28 9.375-3.28 9.375 0v11.25"/><path fill="#b4d7ee" d="M32.938 30.07c0-2.344-5.625-2.344-5.625 0v7.5h5.625v-7.5"/><path fill="#3e4347" d="M46.06 39.793h-9.375v-11.25c0-3.28 9.375-3.28 9.375 0v11.25"/><path fill="#b4d7ee" d="M44.19 30.07c0-2.344-5.625-2.344-5.625 0v7.5h5.625v-7.5"/><path fill="#3e4347" d="M57.31 39.793h-9.375v-11.25c0-3.28 9.375-3.28 9.375 0v11.25"/><path fill="#b4d7ee" d="M55.44 30.07c0-2.344-5.625-2.344-5.625 0v7.5h5.625v-7.5"/><g fill="#3e4347"><path d="M5.81 15.516h3.203v5.625H5.81zM13.524 17.469h9.102v3.672h-9.102zM43.855 17.04h9.102v3.671h-9.102z"/></g><path fill="#94989b" d="M2 56.38h60v5.625H2z"/><path fill="#e6e6e6" d="M2 57.31h60v.938H2z"/><g fill="#3e4347"><path d="M35.324 7.15l.733.451-5.369 8.733-.732-.45zM40.809 8.41l1.431.881-5.373 8.73-1.432-.881z"/><path d="M31.751 3.467l.678-.53 7.238 9.268-.678.53zM35.306 3.335L36.72 2.23l5.52 7.056-1.415 1.106z"/></g><path fill="#699635" d="M4.813 47S2.92 47 2.92 49.813V53.564h56.268V47H4.813z"/><path fill="#3e4347" d="M2.919 51.961h56.27v1.602H2.919z"/><path fill="#63686b" d="M18.875 49.813H9.5L6.688 53.56h15z"/><circle fill="#3e4347" cx="10.906" cy="53.56" r="2.813"/><circle fill="#94989b" cx="10.906" cy="53.56" r=".938"/><circle fill="#3e4347" cx="17.469" cy="53.56" r="2.813"/><circle fill="#94989b" cx="17.469" cy="53.56" r=".938"/><path fill="#63686b" d="M54.5 49.813h-9.37l-2.82 3.747h15z"/><g fill="#3e4347"><circle cx="46.531" cy="53.56" r="2.813"/><circle cx="53.09" cy="53.56" r="2.813"/></g><g fill="#94989b"><circle cx="46.531" cy="53.56" r=".938"/><circle cx="53.09" cy="53.56" r=".938"/></g></svg>