<svg xmlns="http://www.w3.org/2000/svg" viewBox="0 0 64 64"><path fill="#94989b" d="M2 56.21h60v5.787H2z"/><path fill="#3e4347" d="M49.53 51.51c0 3.391 2.518 6.141 5.625 6.141 3.106 0 5.625-2.75 5.625-6.141H49.53"/><path fill="#94989b" d="M57.03 51.51c0 1.129-.843 2.047-1.875 2.047-1.035 0-1.875-.918-1.875-2.047h-1.875c0 2.256 1.681 4.094 3.75 4.094 2.066 0 3.75-1.838 3.75-4.094H57.03"/><path fill="#3e4347" d="M37.495 51.51c0 3.391 2.518 6.141 5.625 6.141s5.625-2.75 5.625-6.141h-11.25"/><path fill="#94989b" d="M44.995 51.51c0 1.129-.843 2.047-1.875 2.047-1.034 0-1.875-.918-1.875-2.047H39.37c0 2.256 1.681 4.094 3.75 4.094 2.067 0 3.75-1.838 3.75-4.094h-1.875"/><path fill="#3e4347" d="M25.464 51.51c0 3.391 2.518 6.141 5.625 6.141s5.625-2.75 5.625-6.141h-11.25"/><path fill="#94989b" d="M32.964 51.51c0 1.129-.842 2.047-1.875 2.047-1.034 0-1.875-.918-1.875-2.047h-1.875c0 2.256 1.681 4.094 3.75 4.094 2.067 0 3.75-1.838 3.75-4.094h-1.875"/><path fill="#52575b" d="M26.897 52.18h35.1v-5.233l-32.97-.887z"/><path fill="#42ade2" d="M8.575 50.713l-2.78 9.506h14.238c7.211 0 14.05-11.797 14.05-11.797L8.571 50.713"/><path fill="#c5d0d8" d="M32.899 12.329l-7.656 11.504S7.488 30.726 5.262 39.943c-1.396 5.777 3.681 9.498 8.225 11.797 7.85.166 20.601-3.318 20.601-3.318H62V13.915s-19.218-2.866-29.1-1.586"/><path fill="#dfecf4" d="M5.261 39.943c2.227-9.217 43.34-23.23 51.36-22.796 0 0-5.484-2.263-13.641-3.783l-18.503 6.321c-.258.526-.409.866-.409.866S4.435 30.837 2.231 39.242c-.279 1.066-.341 3.633 0 4.645 1.015 3 5.064 6.365 7.079 7.189 1.056.434 2.506.629 4.174.664-4.544-2.299-9.621-6.02-8.225-11.797"/><path fill="#3e4347" d="M42.982 13.364c-.022-.002-.047-.008-.069-.013l-6.01-.833a48.201 48.201 0 0 0-5.154-.182c-.665.091-1.217.208-1.604.362-2.488.987-4.77 5.163-5.668 6.986l18.515-1.557-.012-4.763"/><path fill="#42ade2" d="M62 41.99H32.877c0-11.774 16.631-11.774 16.631-11.774H62V41.99z"/><path fill="#aab5bc" d="M20.886 40.18c0 .82-.403 1.484-.896 1.484h-9.336c-.494 0-.895-.664-.895-1.484s.401-1.484.895-1.484h9.336c.492-.001.896.663.896 1.484"/><path fill="#3e4347" d="M20.853 51.66c-1.344.184-2.397 1.715-2.397 3.596 0 1.883 1.053 3.412 2.397 3.598V51.66"/><g fill="#fff"><path d="M20.853 53.1c-.806.109-1.438 1.027-1.438 2.156 0 1.131.633 2.049 1.438 2.16V53.1M20.05 38.984c-.448.063-.799.57-.799 1.199 0 .627.352 1.137.799 1.199v-2.398"/></g><path fill="#3e4347" d="M14.382 52.764c-1.054.146-1.878 1.344-1.878 2.82 0 1.475.825 2.676 1.878 2.82v-5.64"/><path fill="#fff" d="M14.382 53.891c-.631.088-1.127.807-1.127 1.693 0 .885.496 1.604 1.127 1.691v-3.384"/><path fill="#3e4347" d="M9.758 53.24c-.752.105-1.34.961-1.34 2.01 0 1.053.588 1.908 1.34 2.01v-4.03"/><path fill="#fff" d="M9.758 54.05c-.451.061-.804.574-.804 1.205 0 .633.354 1.146.804 1.209V54.05"/><path fill="#3e4347" d="M43.735 13.508v4.532l12.296-1.211s-6.686-2.5-12.296-3.321"/><path fill="#fff" d="M5.073 41c-.125-1.362.556-2.687 1.357-3.768.817-1.102 1.815-2.043 2.847-2.924 2.094-1.733 4.384-3.188 6.735-4.505 4.707-2.638 9.669-4.733 14.693-6.615 5.04-1.835 10.168-3.433 15.383-4.692a99.832 99.832 0 0 1 7.886-1.605c2.648-.371 5.348-.782 8.03-.481-2.668.145-5.253.809-7.829 1.444-2.576.646-5.129 1.39-7.674 2.149-5.08 1.551-10.127 3.214-15.1 5.062-4.981 1.823-9.904 3.812-14.661 6.115-2.365 1.173-4.705 2.41-6.865 3.905-1.083.74-2.116 1.557-3.02 2.501-.874.941-1.685 2.059-1.78 3.414"/></svg>