<svg xmlns="http://www.w3.org/2000/svg" viewBox="0 0 64 64"><ellipse fill="#94989b" cx="11.03" cy="57.25" rx="4.655" ry="4.754"/><path fill="#3e4347" d="M11.03 60.42c-1.712 0-3.104-1.421-3.104-3.17 0-1.748 1.392-3.168 3.104-3.168 1.712 0 3.104 1.42 3.104 3.168 0 1.749-1.391 3.17-3.104 3.17m0-4.754c-.855 0-1.552.711-1.552 1.584 0 .874.697 1.586 1.552 1.586.855 0 1.552-.712 1.552-1.586 0-.873-.696-1.584-1.552-1.584"/><ellipse fill="#94989b" cx="21.37" cy="57.25" rx="4.655" ry="4.754"/><path fill="#3e4347" d="M21.37 60.42c-1.713 0-3.104-1.421-3.104-3.17 0-1.748 1.391-3.168 3.104-3.168s3.104 1.42 3.104 3.168c0 1.749-1.391 3.17-3.104 3.17m0-4.754c-.854 0-1.553.711-1.553 1.584 0 .874.698 1.586 1.553 1.586s1.552-.712 1.552-1.586c0-.873-.696-1.584-1.552-1.584"/><ellipse fill="#94989b" cx="42.629" cy="57.25" rx="4.655" ry="4.754"/><path fill="#3e4347" d="M42.63 60.42c-1.713 0-3.104-1.421-3.104-3.17 0-1.748 1.391-3.168 3.104-3.168s3.104 1.42 3.104 3.168c-.001 1.749-1.391 3.17-3.104 3.17m0-4.754c-.855 0-1.553.711-1.553 1.584 0 .874.697 1.586 1.553 1.586s1.552-.712 1.552-1.586c0-.873-.697-1.584-1.552-1.584"/><ellipse fill="#94989b" cx="52.975" cy="57.25" rx="4.655" ry="4.754"/><path fill="#3e4347" d="M52.975 60.42c-1.712 0-3.104-1.421-3.104-3.17 0-1.748 1.392-3.168 3.104-3.168s3.104 1.42 3.104 3.168c-.001 1.749-1.392 3.17-3.104 3.17m0-4.754c-.854 0-1.552.711-1.552 1.584 0 .874.697 1.586 1.552 1.586.855 0 1.552-.712 1.552-1.586-.001-.873-.697-1.584-1.552-1.584"/><path fill="#f2b200" d="M54.29 20H9.702c-2.985 0-5.405 2.471-5.405 5.518v31.729h55.4V25.518c0-3.047-2.42-5.518-5.404-5.518"/><path fill="#699635" d="M54.29 20H9.702c-2.985 0-5.405 2.471-5.405 5.518v2.759h55.4v-2.759c0-3.047-2.42-5.518-5.404-5.518"/><path fill="#ffe62e" d="M4.301 28.28h55.4v15.174h-55.4z"/><g fill="#3e4347"><path d="M3.668 54.49h.633v2.759h-.633zM2 53.11h1.668v5.52H2zM59.698 54.49h.634v2.759h-.634z"/><path d="M60.33 53.11h1.668v5.52H60.33z"/></g><path fill="#89664c" d="M26.04 52.05h11.924l2.703-2.76h19.03v-2.755h-20.15l-2.703 2.755h-9.685l-2.708-2.755H4.301v2.755h19.03z"/><g fill="#3e4347"><path d="M56.59 39.637c0 .582-.463 1.057-1.034 1.057h-6.04a1.047 1.047 0 0 1-1.034-1.057v-7.545c0-.582.463-1.056 1.034-1.056h6.04c.571 0 1.034.474 1.034 1.056v7.545M46.32 39.637c0 .582-.463 1.057-1.034 1.057h-6.04a1.047 1.047 0 0 1-1.034-1.057v-7.545c0-.582.463-1.056 1.034-1.056h6.04c.571 0 1.034.474 1.034 1.056v7.545M36.05 39.637c0 .582-.463 1.057-1.035 1.057h-6.04a1.047 1.047 0 0 1-1.035-1.057v-7.545c0-.582.463-1.056 1.035-1.056h6.04c.572 0 1.035.474 1.035 1.056v7.545M25.782 39.637c0 .582-.463 1.057-1.034 1.057h-6.04a1.047 1.047 0 0 1-1.034-1.057v-7.545c0-.582.463-1.056 1.034-1.056h6.04c.571 0 1.034.474 1.034 1.056v7.545M15.511 39.637c0 .582-.463 1.057-1.035 1.057h-6.04a1.048 1.048 0 0 1-1.035-1.057v-7.545c0-.582.463-1.056 1.035-1.056h6.04c.571 0 1.035.474 1.035 1.056v7.545M4.301 53.11h55.4v4.139h-55.4z"/></g><g fill="#b4d7ee"><path d="M14.358 38.487a.917.917 0 0 1-.907.926H9.465a.917.917 0 0 1-.907-.926v-5.246c0-.511.406-.925.907-.925h3.985c.501 0 .907.415.907.925v5.246zM24.63 38.487a.917.917 0 0 1-.908.926h-3.984a.917.917 0 0 1-.908-.926v-5.246c0-.511.406-.925.908-.925h3.984c.502 0 .908.415.908.925v5.246M34.899 38.487a.916.916 0 0 1-.906.926h-3.986a.917.917 0 0 1-.906-.926v-5.246c0-.511.406-.925.906-.925h3.986c.501 0 .906.415.906.925v5.246M45.17 38.487a.917.917 0 0 1-.907.926h-3.985a.916.916 0 0 1-.906-.926v-5.246c0-.511.405-.925.906-.925h3.985c.501 0 .907.415.907.925v5.246M55.44 38.487a.917.917 0 0 1-.908.926h-3.984a.917.917 0 0 1-.907-.926v-5.246c0-.511.406-.925.907-.925h3.984c.502 0 .908.415.908.925v5.246"/></g></svg>