<svg xmlns="http://www.w3.org/2000/svg" viewBox="0 0 64 64"><g fill="#3e4347"><path d="M43.893 7.372h-2.625c0-1.595-1.373-2.893-3.063-2.893H25.794c-1.688 0-3.063 1.298-3.063 2.893h-2.625C20.107 4.41 22.658 2 25.794 2h12.411c3.137 0 5.688 2.41 5.688 5.372"/><path d="M28.523 10.465l-1.443.495-2.89-7.507 1.44-.495zM35.477 10.465l1.439.495 2.893-7.507-1.439-.495z"/></g><path fill="#94989b" d="M17.428 50.21L9.388 62h4.358l7.761-11.79z"/><path fill="#e6e6e6" d="M17.428 50.21h-4.077L4 62h5.385z"/><path fill="#94989b" d="M46.572 50.21h-4.076L50.26 62h4.355z"/><path fill="#e6e6e6" d="M46.572 50.21L54.615 62H60l-9.352-11.79z"/><path fill="#666" d="M43.24 51.34H20.76L13.74 62h36.517z"/><path fill="#c7e755" d="M53.25 47.977c0 14.558-42.508 14.558-42.508 0V23.058c0-18.599 42.508-18.599 42.508 0v24.919"/><path fill="#dae3ea" d="M53.25 39.68H10.743V23.058c0-18.599 42.508-18.599 42.508 0V39.68"/><g fill="#83bf4f"><path d="M50.762 48.29c0 1.14-1.08 2.063-2.412 2.063h-5.803c-1.334 0-2.412-.924-2.412-2.063 0-1.139 1.078-2.062 2.412-2.062h5.803c1.332 0 2.412.923 2.412 2.062M13.238 48.29c0-1.139 1.081-2.062 2.412-2.062h5.805c1.332 0 2.41.923 2.41 2.062 0 1.14-1.078 2.063-2.41 2.063H15.65c-1.331 0-2.412-.923-2.412-2.063"/></g><g fill="#d6eef0"><path d="M16.933 48.29c0-1.139 1.081-2.062 2.411-2.062h2.111c1.332 0 2.41.923 2.41 2.062 0 1.14-1.078 2.063-2.41 2.063h-2.111c-1.33 0-2.411-.923-2.411-2.063M40.13 48.29c0-1.139 1.082-2.062 2.412-2.062h2.109c1.332 0 2.412.923 2.412 2.062 0 1.14-1.08 2.063-2.412 2.063h-2.109c-1.33 0-2.412-.923-2.412-2.063"/></g><path fill="#3e4347" d="M50.723 39.713c0 1.559-37.445 1.559-37.445 0V21.076c0-1.559 37.445-1.559 37.445 0v18.637"/></svg>