<svg xmlns="http://www.w3.org/2000/svg" viewBox="0 0 64 64"><path fill="#94989b" d="M16.388 48.875l-8.617 13.13h4.669l8.315-13.12z"/><path fill="#e6e6e6" d="M16.388 48.875H12.02L2 62.005h5.771z"/><path fill="#94989b" d="M47.613 48.875H43.25l8.312 13.13h4.668z"/><path fill="#e6e6e6" d="M47.613 48.875L56.23 62H62L51.981 48.875z"/><path fill="#3e4347" d="M44.04 50.14H19.96L12.442 62h39.12z"/><path fill="#ba573f" d="M52.37 32.245H11.633L11.63 8.423C11.63 7.799 21.814 5 32 5s20.37 2.799 20.37 3.423v23.822z"/><path fill="#c5cdd3" d="M54.772 48.48c0 3.682-45.545 3.682-45.545 0v-6.107h45.545v6.107"/><path fill="#dae3ea" d="M47.994 52.668c0 4.533-31.988 4.533-31.988 0V45.15h31.988v7.518"/><path fill="#f14e3a" d="M54.772 42.37H9.23l-.002-29.991c0-.785 11.386-4.31 22.772-4.31 11.387-.001 22.772 3.525 22.772 4.31V42.37"/><g fill="#3e4347"><path d="M11.633 13.658v9.476c.15.792 19.391-2.354 19.24-3.147V10.51c-.149-.792-19.392 2.356-19.24 3.148M33.13 10.51v9.475c-.149.793 19.09 3.94 19.241 3.148v-9.476c.152-.791-19.09-3.939-19.241-3.147"/></g><path fill="#fdf516" d="M37.874 42.37H26.126V23.085c0-2.539 11.748-2.539 11.748 0V42.37"/><ellipse fill="#d5a943" cx="32" cy="27.29" rx="4.898" ry="4.772"/><ellipse fill="#3e4347" cx="31.999" cy="27.29" rx="3.352" ry="3.264"/><ellipse fill="#f14e3a" cx="21.866" cy="5.109" rx="3.191" ry="3.109"/><ellipse fill="#3e4347" cx="21.866" cy="5.109" rx="2.183" ry="2.126"/><ellipse fill="#f14e3a" cx="42.13" cy="5.109" rx="3.191" ry="3.109"/><ellipse fill="#3e4347" cx="42.13" cy="5.109" rx="2.183" ry="2.126"/><ellipse fill="#f5f5f5" cx="12.439" cy="26.401" rx="1.575" ry="1.535"/><ellipse fill="#3e4347" cx="12.439" cy="26.401" rx=".804" ry=".783"/><ellipse fill="#f5f5f5" cx="51.56" cy="26.401" rx="1.575" ry="1.535"/><ellipse fill="#3e4347" cx="51.56" cy="26.401" rx=".804" ry=".783"/><g fill="#fdf516"><path d="M42.32 33.561c-5.05-1.053-15.599-1.053-20.646 0-.666.137-1.928.84-1.928 1.879v3.756c0 1.037 1.262 1.74 1.928 1.877 5.05 1.053 15.599 1.053 20.646 0 .666-.137 1.928-.84 1.928-1.877V35.44c0-1.04-1.262-1.743-1.928-1.879m-.193 5c0 .689-1.044 1.156-1.595 1.248-4.174.695-12.896.695-17.07 0-.551-.092-1.595-.559-1.595-1.248v-2.488c0-.689 1.044-1.156 1.595-1.248 4.174-.695 12.896-.695 17.07 0 .551.092 1.595.559 1.595 1.248v2.488"/><path d="M9.211 36.27h45.578v2.09H9.211z"/></g><path fill="#f5f5f5" d="M35.34 36.27c0 1.801-1.497 3.26-3.343 3.26s-3.343-1.459-3.343-3.26c0-1.797 1.497-3.256 3.343-3.256s3.343 1.46 3.343 3.256"/><ellipse fill="#3e4347" cx="31.999" cy="36.27" rx="2.287" ry="2.229"/><path fill="#f5f5f5" d="M33.07 36.27c0 .576-.48 1.045-1.071 1.045s-1.071-.469-1.071-1.045c0-.574.48-1.043 1.071-1.043s1.071.469 1.071 1.043"/><path fill="#94989b" d="M24.768 42.37h14.465v6.508H24.768z"/><g fill="#3e4347"><path d="M27.786 46.881h2.144v4.68h-2.144zM34.07 46.881h2.144v4.68H34.07z"/></g><g fill="#94989b"><path d="M24.458 52.967l-7.438-1.278.367-2.039 7.44 1.278zM46.982 51.689l-7.441 1.278-.371-2.039 7.443-1.278zM8.161 42.37h47.678v2.783H8.161z"/></g><path fill="#dae3ea" d="M26.13 40.947h11.746v4.203H26.13z"/><path fill="#f14e3a" d="M26.13 52.967h11.746v4.332H26.13z"/><path fill="#ba573f" d="M55.848 33.898c-.113.623-.724 1.041-1.365.932l-9.273-1.594a1.153 1.153 0 0 1-.957-1.331l.385-2.123c.112-.625.725-1.042 1.366-.932l9.273 1.592c.641.111 1.068.706.955 1.331l-.384 2.125"/><path fill="#3e4347" d="M55.1 33.486c-.082.461-.6.758-1.152.664l-8.01-1.376c-.554-.095-.936-.547-.852-1.01l.284-1.571c.083-.461.601-.76 1.153-.664l8.01 1.376c.554.095.935.546.852 1.01l-.285 1.571"/><path fill="#ba573f" d="M19.748 31.905a1.152 1.152 0 0 1-.957 1.331L9.519 34.83c-.64.109-1.253-.309-1.366-.932l-.384-2.125a1.152 1.152 0 0 1 .956-1.331l9.273-1.592c.642-.11 1.253.306 1.365.932l.385 2.123"/><path fill="#3e4347" d="M18.905 31.764c.085.461-.296.914-.85 1.01l-8.01 1.376c-.553.094-1.071-.203-1.154-.664l-.284-1.571c-.083-.462.299-.913.851-1.01l8.01-1.376c.555-.096 1.071.203 1.154.664l.283 1.569"/></svg>