<svg xmlns="http://www.w3.org/2000/svg" viewBox="0 0 64 64"><g fill="#3e4347"><path d="M11 56.974v3.02c0 1.106.901 2.01 2 2.01h4c1.1-.001 2-.905 2-2.01v-3.02h-8M45 56.974v3.02c0 1.106.9 2.01 1.999 2.01h4c1.099 0 2-.904 2-2.01v-3.02h-8"/></g><path fill="#c5d0d8" d="M56 53.958c0 1.665-1.343 3.02-2.999 3.02h-42a3.01 3.01 0 0 1-3-3.02V7.708c0-1.666 1.343-3.02 3-3.02h42c1.657 0 3 1.35 3 3.02v46.25"/><path fill="#428bc1" d="M56 53.958c0 1.665-1.343 3.02-2.999 3.02h-42a3.01 3.01 0 0 1-3-3.02v-6.03h48v6.03"/><g fill="#3e4347"><path d="M54.688 35.497c0 1.666-1.344 3.02-3 3.02h-39.37c-1.657 0-3-1.35-3-3.02V17.764c0-1.665 1.343-3.02 3-3.02h39.37c1.657 0 3 1.351 3 3.02v17.733M10.553 49.47h8.896v5.962h-8.896z"/></g><path fill="#f15744" d="M11.974 50.959h5.931v2.981h-5.931z"/><path fill="#3e4347" d="M44.552 49.47h8.897v5.962h-8.897z"/><path fill="#f15744" d="M45.973 50.959h5.933v2.981h-5.933z"/><path fill="#3e4347" d="M47.95 11.502c0 .985-.794 1.782-1.772 1.782H17.824a1.776 1.776 0 0 1-1.772-1.782V7.94c0-.985.793-1.782 1.772-1.782h28.354c.979 0 1.772.797 1.772 1.782v3.562"/><path fill="#b2c1c0" d="M16.05 4.694c0-1.489.793-2.694 1.773-2.694h28.354c.979 0 1.772 1.205 1.772 2.694H16.05"/><path fill="#3e4347" d="M22 43.39h19.999v11.05H22z"/><g fill="#62727a"><path d="M22.909 44.4h18.18v1h-18.18zM12.538 34.27h18.18v1.01h-18.18z"/><path d="M27.717 38.513l-7.186-3.744.549-.314 7.574 4.058zM33.32 34.27H51.5v1.01H33.32z"/><path d="M48.5 38.513l-7.19-3.744.554-.314 7.576 4.058zM22.909 46.41h18.18v1.01h-18.18zM22.909 48.42h18.18v1.01h-18.18zM22.909 50.43h18.18v1.01h-18.18zM22.909 52.44h18.18v1h-18.18z"/></g><g fill="#fff"><ellipse cx="52.22" cy="43.46" rx="2.899" ry="2.915"/><ellipse cx="45.954" cy="43.46" rx="2.9" ry="2.915"/><ellipse cx="18.05" cy="43.46" rx="2.899" ry="2.915"/><ellipse cx="11.78" cy="43.46" rx="2.9" ry="2.915"/></g><g fill="#62727a"><path d="M8 24.802c0 .556-.447 1-1 1H5a1 1 0 0 1-1-1v-8.04c0-.556.447-1 1-1h2c.553 0 1 .45 1 1v8.04"/><path d="M5.839 16.716l-.708-.706 5.739-5.773v1.422zM56 24.802c0 .556.448 1 1 1h2a1 1 0 0 0 .999-1v-8.04c0-.556-.446-1-.999-1h-2c-.552 0-1 .45-1 1v8.04"/><path d="M58.16 16.716l.709-.706-5.739-5.773v1.422z"/></g><g fill="#c7e755"><path d="M20.458 7.986v1.268l-.398.401-.133-.133V7.787l.531.199m-.531 3.669V9.921l.133-.133.397.4v1.268l-.53.199m2.521.468h-2.19a.427.427 0 0 1-.331-.334l.53-.2h1.791l.2.534m-.2-4.269h-1.784l-.53-.2a.428.428 0 0 1 .332-.334h2.183l-.201.534m-.065 1.601l.265.266-.265.268h-1.726l-.266-.268.266-.266h1.726M23.642 7.986v1.268l-.397.401-.133-.133V7.787l.53.199m0 2.202v1.401l-.199.534a.427.427 0 0 1-.332-.334V9.921l.133-.133.398.4m1.592-2.334h-1.585l-.531-.2a.427.427 0 0 1 .331-.334h1.983l-.198.534m-.464 1.667l-.266.266-.265-.266V7.986h.53v1.535zm.597-.267v-1.4l.198-.534a.426.426 0 0 1 .332.334v1.868l-.132.133-.398-.401m.398.534l.132.133v1.868a.426.426 0 0 1-.332.334l-.198-.534v-1.401l.398-.4M26.693 9.655l-.133-.133V7.986l.332-.333.199.2v1.4l-.398.402m.398.533v1.401l-.199.2-.332-.333V9.921l.133-.133.398.4m1.593-2.334h-1.458l-.266-.266.266-.268h1.458l.266.268-.266.266m.265 4l-.266.267h-1.458l-.266-.267.266-.267h1.458l.266.267m-.133-2.601v-1.4l.199-.2.332.333v1.535l-.133.133-.398-.401m.398.534l.133.133v1.535l-.332.333-.199-.2v-1.401l.398-.4M30.01 11.655V9.921l.133-.133.397.4v1.268l-.53.199m2.321.468h-1.989a.427.427 0 0 1-.332-.334l.53-.2h1.593l.198.534m-.065-2.869v-1.4l.199-.534a.427.427 0 0 1 .331.334v1.868l-.133.133-.397-.401m.397.534l.133.133v1.868a.427.427 0 0 1-.331.334l-.199-.534v-1.401l.397-.4M33.459 9.254v-1.4l.2-.534a.428.428 0 0 1 .331.334v1.868l-.132.133-.399-.401m.399.467l.132.134v1.867a.426.426 0 0 1-.331.334l-.2-.534v-1.4l.399-.401M34.787 9.655l-.132-.133V7.986l.331-.333.198.2v1.4l-.397.402m.398.533v1.401l-.198.2-.331-.333V9.921l.132-.133.397.4m1.592-2.334h-1.459l-.266-.266.266-.268h1.459l.266.268-.266.266m.266 4l-.266.267h-1.459l-.266-.267.266-.267h1.459l.266.267m-.134-2.601v-1.4l.199-.2.332.333v1.535l-.132.133-.399-.401m.4.534l.132.133v1.535l-.332.333-.199-.2v-1.401l.399-.4M38.24 9.721l-.134-.133V7.721a.428.428 0 0 1 .334-.334l.197.534v1.401l-.397.399m.398.467v1.401l-.197.534a.43.43 0 0 1-.334-.334V9.921l.134-.133.397.4m1.593-.867h-.465l-.994-1v-.4h.397l1.062 1.067v.333m.131 0V7.92l.2-.534a.424.424 0 0 1 .331.334v1.867l-.132.133-.399-.399m.4.467l.132.133v1.868a.426.426 0 0 1-.331.334l-.2-.534v-1.401l.399-.4M42.08 7.986v1.268l-.397.401-.134-.133V7.787l.531.199m-.531 3.669V9.921l.134-.133.397.4v1.268l-.531.199m2.521.468h-2.19a.426.426 0 0 1-.331-.334l.531-.2h1.79l.2.534m-.2-4.269h-1.783l-.531-.2a.427.427 0 0 1 .332-.334h2.183l-.201.534m-.065 1.601l.266.266-.266.268H42.08l-.266-.268.266-.266h1.725"/></g></svg>