<svg xmlns="http://www.w3.org/2000/svg" viewBox="0 0 64 64"><g fill="#dae3ea"><circle cx="24.359" cy="12.13" r="3.875"/><circle cx="28.67" cy="10.25" r="4.844"/><circle cx="20" cy="14.247" r="1.937"/><circle cx="35.557" cy="10.349" r="5.812"/><circle cx="42.767" cy="8.783" r="6.781"/></g><g fill="#b2c1c0"><path d="M46.48 9.98c-.18.612-.561 1.139-1.01 1.611a4.84 4.84 0 0 1-1.679 1.08c-1.293.507-2.795.383-4.02-.118l1.015-.177a5.88 5.88 0 0 1-1.659.947 5.528 5.528 0 0 1-1.833.371c-1.262.033-2.516-.476-3.249-1.378 1.146.19 2.137.153 3.03-.146a6.94 6.94 0 0 0 1.284-.551 7.708 7.708 0 0 0 1.117-.746l.459-.385.558.207c.956.356 1.903.532 2.896.427a5.942 5.942 0 0 0 1.522-.369c.526-.184 1.032-.451 1.571-.773M33.471 10.932c-.176 1.042-1.115 1.925-2.238 2.231-1.134.312-2.314.09-3.283-.332l1.26-.41a3.681 3.681 0 0 1-1.087 1.112 3.31 3.31 0 0 1-1.419.537c-1.025.129-1.982-.291-2.527-.99.45-.046.843-.073 1.197-.168a3.06 3.06 0 0 0 .906-.355c.257-.152.482-.323.688-.528a3.99 3.99 0 0 0 .52-.621l.463-.754.797.344c.764.329 1.504.573 2.262.614.755.044 1.588-.133 2.461-.68"/></g><path fill="#83bf4f" d="M37.625 15.13H62v3.906H37.625z"/><path fill="#699635" d="M58.25 19.03v12.814H41.38V19.03H39.5v26.798h20.63V19.03z"/><g fill="#3e4347"><path d="M58.25 31.844V19.031H41.375v12.813H58.25m-7.5-11.25h5.625v9.375H50.75v-9.375m-7.5 0h5.625v9.375H43.25v-9.375M13.25 53.738h10.889v4.379H13.25z"/><path d="M13.25 49.813h41.666v4.557H13.25z"/></g><g fill="#75a843"><path d="M12.313 30.13h27.19v19.687h-27.19z"/><path d="M14.188 39.5c0 6.731-2.098 10.313-4.688 10.313-2.589 0-4.688-10.313-4.688-10.313s2.099-9.375 4.688-9.375c2.589 0 4.688 2.645 4.688 9.375"/></g><path fill="#83bf4f" d="M9.755 32.469c-.909 1.219-2.25 2.695-3.053 7.03h5.625c0-5.628-1.652-6.335-2.572-7.03"/><path fill="#699635" d="M9.5 28.25h6.563v22.478H9.5z"/><path fill="#ed4c5c" d="M6.688 49.813L2 61.06h11.25V49.813z"/><g fill="#fff"><path d="M9.409 51.688c.216 0 .341.419.28.931l-.68 5.64c-.061.512-.487.93-.944.93-.458 0-.736-.408-.617-.91l1.352-5.68c.121-.501.394-.911.609-.911M6.887 52.56c.183-.479.41-.872.505-.872.093 0 .073.41-.046.91l-1.353 5.68c-.12.502-.538.91-.932.91-.393 0-.564-.392-.381-.869l2.207-5.759M11.882 58.25c0 .516-.348.938-.774.938-.425 0-.723-.418-.662-.93l.679-5.64c.061-.512.258-.931.436-.931s.322.422.322.938v5.625"/></g><path fill="#83bf4f" d="M11.375 30.13h2.813v9.375h-2.813z"/><path fill="#3e4347" d="M16.06 15.13l1.878 3.745V30.13h9.375V18.875l1.877-3.745z"/><path fill="#94989b" d="M24.5 17l-.937 1.875V30.13h1.875V18.875L26.375 17z"/><path fill="#83bf4f" d="M16.063 39.5H39.5V32H16.063v7.5z"/><g fill="#3e4347"><path d="M54.22 44.19h-8.818v-.803c0-.991-.61-1.826-1.334-1.826h-.82v-5.05h.82c.724 0 1.334-.835 1.334-1.826v-.804h8.818v.804c0 .991.611 1.826 1.332 1.826h.82v5.05h-.82c-.721 0-1.332.835-1.332 1.826v.803m-7.261-1.608h5.702c.25-1.2 1.049-2.156 2.07-2.496v-2.105c-1.021-.338-1.82-1.295-2.07-2.495h-5.702c-.249 1.2-1.05 2.157-2.071 2.495v2.105c1.021.34 1.822 1.296 2.071 2.496M52.1 46.737a7.632 7.632 0 1 0 0 15.264 7.632 7.632 0 0 0 0-15.264m0 13.738a6.105 6.105 0 1 1 0-12.21 6.105 6.105 0 0 1 0 12.21"/></g><circle fill="#699635" cx="52.1" cy="54.37" r="1.527"/><g fill="#ed4c5c"><path d="M51.34 49.41h1.527v9.92H51.34z"/><path d="M56.02 51.226l.763 1.322-8.594 4.956-.762-1.322z"/><path d="M56.781 56.189l-.763 1.321-8.593-4.96.763-1.321z"/><path d="M52.1 48.26a6.105 6.105 0 1 0 0 12.21 6.105 6.105 0 0 0 0-12.21m0 10.683a4.578 4.578 0 1 1 0-9.158 4.58 4.58 0 0 1 0 9.158"/></g><path fill="#3e4347" d="M36.84 46.737a7.632 7.632 0 1 0 0 15.264 7.632 7.632 0 0 0 0-15.264m0 13.738a6.106 6.106 0 1 1 .002-12.212 6.106 6.106 0 0 1-.002 12.212"/><circle fill="#699635" cx="36.84" cy="54.37" r="1.526"/><g fill="#ed4c5c"><path d="M36.08 49.41h1.527v9.92H36.08z"/><path d="M40.757 51.23l.762 1.322-8.593 4.956-.762-1.322z"/><path d="M41.51 56.19l-.763 1.322-8.594-4.96.763-1.321z"/><path d="M36.84 48.26a6.105 6.105 0 1 0 0 12.21 6.105 6.105 0 0 0 0-12.21m0 10.683a4.58 4.58 0 1 1 0-9.158 4.58 4.58 0 0 1 0 9.158"/></g><path fill="#3e4347" d="M19.629 50.729a5.635 5.635 0 1 0 0 11.272 5.638 5.638 0 0 0 5.637-5.637 5.638 5.638 0 0 0-5.637-5.635m0 10.144a4.509 4.509 0 1 1 0-9.016 4.509 4.509 0 0 1 0 9.016"/><circle fill="#699635" cx="19.629" cy="56.36" r="1.127"/><g fill="#ed4c5c"><path d="M19.07 52.701h1.128v7.326H19.07z"/><path d="M22.523 54.044l.564.976-6.344 3.664-.563-.976z"/><path d="M23.09 57.717l-.564.976-6.345-3.664.564-.976z"/><path d="M19.629 51.856a4.51 4.51 0 1 0 .001 9.02 4.51 4.51 0 0 0-.001-9.02m0 7.89a3.382 3.382 0 1 1 0-6.764 3.382 3.382 0 0 1 0 6.764"/></g><path fill="#699635" d="M33.875 28.25c-1.036 0-1.875.84-1.875 1.875h3.75c0-1.035-.84-1.875-1.875-1.875"/><g fill="#83bf4f"><path d="M24.17 50.729H5.885V47.83h22.04c0-.001 0 2.899-3.75 2.899"/><path d="M62 49.813H26.902s0-3.984 6.563-3.984H62v3.984z"/></g><path fill="#dbb471" d="M31.512 52.801c0 .518-.42.938-.938.938h-8.887a.938.938 0 0 1-.938-.938V50.75c0-.518.42-.938.938-.938h8.887c.518 0 .938.42.938.938v2.051"/><g fill="#ffdd7d"><path d="M55.672 54.957c0 .518-.42.938-.938.938H31.063a.938.938 0 0 1-.938-.938v-.281c0-.518.42-.938.938-.938h23.672c.518 0 .938.42.938.938v.281z"/><path d="M31.699 55.43a.936.936 0 0 1-1.279.344l-2.639-1.523a.938.938 0 0 1-.343-1.281l.141-.243a.937.937 0 0 1 1.28-.343l2.639 1.523a.937.937 0 0 1 .342 1.28l-.141.243"/></g></svg>