<svg xmlns="http://www.w3.org/2000/svg" viewBox="0 0 64 64"><circle fill="#3e4347" cx="32" cy="32" r="30"/><path fill="#94989b" d="M20.17 46.34l-6.531 9.371a30.12 30.12 0 0 0 2.539 1.77l7.303-11.141H20.17"/><path fill="#e6e6e6" d="M20.17 46.34h-3.311l-5.594 7.323a30.613 30.613 0 0 0 2.373 2.048l6.532-9.371"/><path fill="#94989b" d="M43.832 46.34h-3.309l7.303 11.141a30.416 30.416 0 0 0 2.537-1.77l-6.531-9.371"/><path fill="#e6e6e6" d="M43.832 46.34l6.531 9.371a30.092 30.092 0 0 0 2.373-2.048l-5.594-7.323h-3.31"/><path fill="#c7e755" d="M49.26 44.23a3.19 3.19 0 0 1-3.195 3.182h-28.13a3.19 3.19 0 0 1-3.197-3.182V20.681c0-12.576 34.518-12.576 34.518 0V44.23"/><g fill="#3e4347"><path d="M47.23 40.532a1.953 1.953 0 0 1-1.957 1.948h-4.715a1.952 1.952 0 0 1-1.957-1.948c0-1.077.875-1.949 1.957-1.949h4.715c1.08 0 1.957.872 1.957 1.949M16.764 40.532c0-1.077.879-1.949 1.959-1.949h4.713c1.082 0 1.959.872 1.959 1.949a1.953 1.953 0 0 1-1.959 1.948h-4.713a1.955 1.955 0 0 1-1.959-1.948M47.2 30.422a2.668 2.668 0 0 1-2.668 2.668h-25.07a2.667 2.667 0 0 1-2.668-2.668V21.81a2.667 2.667 0 0 1 2.668-2.668h25.07A2.669 2.669 0 0 1 47.2 21.81v8.612"/></g><g fill="#fff"><circle cx="21.08" cy="40.532" r="1.671"/><circle cx="42.92" cy="40.532" r="1.672"/></g></svg>