<svg xmlns="http://www.w3.org/2000/svg" viewBox="0 0 64 64"><path fill="#94989b" d="M2 56.46h60v5.539H2z"/><path fill="#62696d" d="M2 56.46h60v1.848H2z"/><path fill="#dfecf4" d="M25.346 14C14.488 14 2 37.428 2 50.605c0 3.188 2.536 5.777 5.693 5.855H62V14H25.346z"/><g fill="#3e4347"><path d="M15.13 19.856c-6.843 7.397-12.5 20.247-13.07 29.28h10.173s13.182 0 13.182-7.32V19.852H15.132M41.55 19.856c-7.324 0-7.324 1.464-7.324 15.374v13.91H62V19.86H41.55"/></g><path fill="#3baacf" d="M2.051 49.141c-.031.498-.051.99-.051 1.464 0 3.188 2.536 5.777 5.693 5.855H62v-7.32H2.051z"/><path fill="#fdf516" d="M11.521 56.461s7.343-7.32 21.98-7.32H62v7.32H11.521z"/><g fill="#62696d"><path d="M47.41 34.498c-.809 0-1.255.684-1.465 1.465l-1.281 10.25h-4.666c-1.377 0-1.377.873-1.377 1.951v.977h10.255V34.498H47.41M60.53 34.498c-.809 0-1.255.684-1.465 1.465l-1.281 10.25h-4.666c-1.377 0-1.377.873-1.377 1.951v.977h10.255V34.498H60.53"/></g><ellipse fill="#fff" cx="6.395" cy="52.802" rx=".732" ry="2.196"/><path fill="#3baacf" d="M25.426 56.46s11.335-7.32 24.626-7.32c0 0 11.948 0 11.948-11.08v18.396H25.426"/></svg>