<svg xmlns="http://www.w3.org/2000/svg" viewBox="0 0 64 64"><path fill="#699635" d="M13 37.999h36v15H13z"/><path fill="#258399" d="M36.563 35.999H49V22.828c-5.533 0-2.447 4.826-4.525 7.805-2.745 3.923-7.912.426-7.912 5.366"/><path fill="#3e4347" d="M57 37.999H26l3-23h25l3 23m-28-2h25l-2-19H31l-2 19"/><g fill="#699635"><path d="M56 15c0 .73-.268 1-1 1H28c-.731 0-1-.27-1-1v-2c0-.73.269-1 1-1h27c.732 0 1 .27 1 1v2M28 31c0-.689-.31-1-1-1 0 0-18.547 1.199-20.979 2.483-3 1.583-4.615 9.911-2.75 12.517C3.833 45.785 6 46 7 46l18-2c1 0 3-2 3-3V31"/></g><g fill="#83bf4f"><path d="M37.675 44.999c2.138-4.611 6.428-7.768 11.384-7.768 4.86 0 9.09 3.035 11.263 7.504L64 42.999c-2.683-6.238-8.356-10-14.941-10-6.681 0-12.425 3.617-15.06 10l3.675 2M10 45.999c3 0 7 4 7 7h3c0-6-4-10-10-10v3"/></g><path fill="#3e4347" d="M4.267 34.37L13 33.562l-1.604 6.75c-4.667.875-8.513 3.932-8.513 3.932S.805 41.011 4.267 34.37"/><path fill="#fff" d="M4.839 35.05L9 34.665l-5.218 3.098s.145-1.555 1.057-2.713"/><path fill="#83bf4f" d="M0 44.25h8.479v3.131H0z"/><circle fill="#3e4347" cx="9" cy="53.999" r="9"/><path fill="#ffd45c" d="M14 53.999a5 5 0 1 1-10 0 5 5 0 0 1 10 0"/><g fill="#83bf4f"><path d="M0 27.17h2v15H0zM2 39.25v2a3 3 0 0 1 3 3h2a5 5 0 0 0-5-5"/></g><g fill="#3e4347"><path d="M35.1 27.23a1.833 1.833 0 1 1-3.666 0v-6.75a1.833 1.833 0 1 1 3.666 0v6.75"/><path d="M32.27 16.399h1v3.333h-1z"/><circle cx="49" cy="49.999" r="13"/></g><path fill="#ffd45c" d="M56 50a7 7 0 1 1-14-.003A7 7 0 0 1 56 50"/><g fill="#3e4347"><path d="M16.931 37.999c0 4.234-1.749 4.234-1.749 4.234v-4.234c0-4.232 1.749-4.232 1.749-4.232v4.232M20.419 37.999c0 4.234-1.748 4.234-1.748 4.234v-4.234c0-4.232 1.748-4.232 1.748-4.232v4.232M23.908 37.999c0 4.234-1.749 4.234-1.749 4.234v-4.234c0-4.232 1.749-4.232 1.749-4.232v4.232"/></g><path fill="#d89500" d="M54.32 49.999c0-2.935-2.384-5.316-5.317-5.316s-5.317 2.382-5.317 5.316c0 2.936 2.384 5.318 5.317 5.318s5.317-2.382 5.317-5.318"/><g fill="#ffd45c"><circle cx="49" cy="44.683" r="1.329"/><circle cx="44.39" cy="47.34" r="1.329"/><path d="M43.729 51.51a1.331 1.331 0 0 1 1.817.485 1.33 1.33 0 1 1-1.817-.485"/><circle cx="49" cy="55.32" r="1.329"/><circle cx="53.606" cy="52.658" r="1.329"/><circle cx="53.606" cy="47.34" r="1.329"/></g><circle fill="#3e4347" cx="49" cy="49.999" r="2.659"/><circle fill="#d89500" cx="9" cy="53.999" r="3.795"/><g fill="#ffd45c"><circle cx="9" cy="50.2" r=".948"/><circle cx="5.713" cy="52.1" r=".949"/><circle cx="5.713" cy="55.897" r=".949"/><circle cx="9" cy="57.795" r=".948"/><circle cx="12.287" cy="55.897" r=".949"/><circle cx="12.287" cy="52.1" r=".949"/></g><circle fill="#3e4347" cx="9" cy="53.999" r="1.898"/><path fill="#ffd45c" d="M28 33.15l-.021-2.425s-11.22.091-20.861 2.027c-1.012.203-1.916 1.538-1.916 1.538C13.535 33.354 28 33.15 28 33.15"/></svg>