<svg xmlns="http://www.w3.org/2000/svg" viewBox="0 0 64 64"><path fill="#62696d" d="M21.424 58.51h20.977v1.582H21.424z"/><g fill="#42ade2"><path d="M36.568 8.323L39.682 2l-.805 7.03zM45.17 11.32l4.452-3.337-2.63 4.951zM27.769 8.323L24.656 2l.803 7.03zM19.16 11.32l-4.445-3.337 2.629 4.951z"/></g><path fill="#62696d" d="M16.694 19.19h30.611v2.387H16.694z"/><path fill="#f15744" d="M13.633 16.404h12.244v3.579H13.633z"/><path fill="#badede" d="M25.877 16.404h12.244v3.579H25.877z"/><path fill="#42ade2" d="M38.12 16.404h12.246v3.579H38.12z"/><g fill="#62696d"><path d="M12.161 35.22s-6.216.571-7.958-.895c-1.157-.975-2.01-3.525-.93-4.58 1.298-1.264 5.656-.456 6.899.629 1.3 1.134 1.989 4.846 1.989 4.846M51.838 35.22s6.218.571 7.959-.895c1.157-.975 2.01-3.525.929-4.58-1.3-1.264-5.654-.456-6.897.629-1.303 1.134-1.991 4.846-1.991 4.846"/></g><path fill="#3e4347" d="M60.16 56.69c0 .657-.547 1.191-1.225 1.191H5.059c-.678 0-1.225-.534-1.225-1.191 0 0-1.302-14.614 0-15.51 10.683-7.346 8.877-19.606 11.02-19.606 0 0 6.734-.597 17.14-.597 10.408 0 17.14.597 17.14.597 2.448 0 .063 11.446 11.02 19.606 1.299.971-.002 15.51-.002 15.51"/><path fill="#62696d" d="M45.07 46.606c0-.734-.509-1.329-1.135-1.329H20.071c-.628 0-1.135.595-1.135 1.329v6.144h26.14v-6.144"/><path fill="#fff" d="M16.819 48.722c0 .659-.547 1.193-1.225 1.193l-8.76-.925c-.678 0-1.225-.534-1.225-1.191v-3.58c0-.659.547-1.192 1.225-1.192l8.76.923c.678 0 1.225.535 1.225 1.192v3.58"/><path fill="#ffce31" d="M8.652 49.18l-1.818-.193c-.678 0-1.225-.534-1.225-1.191v-3.58c0-.659.547-1.192 1.225-1.192l1.818.19v5.966"/><path fill="#fff" d="M47.18 48.723c0 .658.547 1.192 1.225 1.192l8.76-.923c.678 0 1.225-.534 1.225-1.193v-3.578c0-.659-.547-1.194-1.225-1.194l-8.76.925c-.678 0-1.225.535-1.225 1.192v3.579"/><path fill="#ffce31" d="M55.35 49.18l1.816-.19c.678 0 1.225-.534 1.225-1.193v-3.578c0-.659-.547-1.194-1.225-1.194l-1.816.19v5.965"/><g fill="#62696d"><path d="M11.67 34.39s5.103 2.869 7.458 7.182l-3.465 1.204c0-.001-.421-2.981-3.993-8.386M52.33 34.39s-5.103 2.869-7.458 7.182l3.465 1.204c0-.001.421-2.981 3.993-8.386"/></g><g fill="#3e4347"><path d="M16.903 60.63c0 .758-.547 1.371-1.225 1.371H7.107c-.678 0-1.225-.613-1.225-1.371v-2.747h11.02v2.747M58.12 60.63c0 .758-.548 1.371-1.225 1.371h-8.571c-.676 0-1.225-.613-1.225-1.371v-2.747h11.02v2.747"/></g><path fill="#c5d0d8" d="M62 57.34c0 .452-.548.82-1.225.82 0 0-12.206.806-28.775.806S3.223 58.16 3.223 58.16c-.676 0-1.223-.368-1.223-.82v-4.922c0-.452.547-.82 1.223-.82 0 0 12.208.808 28.777.808s28.775-.808 28.775-.808c.677 0 1.225.368 1.225.82v4.922"/><g fill="#f15744"><ellipse cx="11.392" cy="55.28" rx="1.875" ry="1.921"/><ellipse cx="52.606" cy="55.28" rx="1.875" ry="1.921"/></g><path fill="#b4d7ee" d="M49.754 33.377s-8.417-.421-17.754-.421c-9.336 0-17.756.421-17.756.421l2.45-9.543s6.581-.422 15.306-.422c8.723 0 15.306.422 15.306.422l2.448 9.543"/><path fill="#ffce31" d="M24.5 53.36h15v5.625h-15z"/><g fill="#3e4347"><path d="M22.16 59.22c0 1.036-.84 1.875-1.875 1.875h-.234a1.874 1.874 0 0 1-1.875-1.875v-8.789c0-1.035.839-1.875 1.875-1.875h.234c1.035 0 1.875.84 1.875 1.875v8.789M45.828 59.22a1.876 1.876 0 0 1-1.875 1.875h-.234a1.874 1.874 0 0 1-1.875-1.875v-8.789c0-1.035.839-1.875 1.875-1.875h.234c1.034 0 1.875.84 1.875 1.875v8.789"/></g><circle fill="#62696d" cx="43.836" cy="54.11" r="3.281"/><circle fill="#fff" cx="43.836" cy="54.11" r="2.344"/><circle fill="#62696d" cx="20.16" cy="54.11" r="3.281"/><circle fill="#fff" cx="20.16" cy="54.04" r="2.344"/><g fill="#3e4347"><path d="M23.21 46.65h17.578v.732H23.21zM23.21 48.648h17.578v.73H23.21zM23.21 50.644h17.578v.732H23.21z"/></g><g fill="#c5d0d8"><circle cx="13.307" cy="46.65" r="2.605"/><circle cx="50.691" cy="46.65" r="2.605"/></g><g fill="#62696d"><path d="M17.997 35.33c2.317-.353 4.651-.56 6.986-.713 2.335-.165 4.677-.215 7.02-.227 2.341.011 4.682.061 7.02.225l3.5.277c1.164.14 2.328.253 3.486.438-1.173.041-2.34.025-3.509.053l-3.501.002-6.993.005-6.993-.007c-2.333-.007-4.665.007-7.01-.053M19.969 43.27c1.981-.436 3.987-.692 5.994-.866 2.01-.183 4.02-.246 6.04-.262 2.02.014 4.03.077 6.04.26 2.01.173 4.01.431 5.994.868-2.02.186-4.03.255-6.03.302-2 .057-4 .057-6 .07-1.999-.016-3.997-.016-6-.073-2-.048-4.01-.116-6.03-.299"/></g></svg>