<svg xmlns="http://www.w3.org/2000/svg" viewBox="0 0 64 64"><path fill="#b3bdc4" d="M29.19 12.781h9.375v4.688H29.19z"/><path fill="#e1e8ed" d="M4.591 34.421c-.489.577-.716 3.204-.716 3.204v15h54.871S62 43.273 62 22.625c0-7.342-4.574-7.5-20.625-7.5s-20 1.513-23.438 4.688c-3.162 2.923-9.596 10.194-13.346 14.608"/><path fill="#3e4347" d="M19.514 20.75L7.795 32.937h19.517V17.634c-3.579 0-6.386 1.705-7.798 3.116"/><path fill="#b3bdc4" d="M62 54.5a1.88 1.88 0 0 1-1.875 1.875H3.875A1.88 1.88 0 0 1 2 54.5a1.88 1.88 0 0 1 1.875-1.875h56.25A1.88 1.88 0 0 1 62 54.5"/><path fill="#f15744" d="M33.875 6.688c-1.555 0-2.598 1.274-2.813 2.813-.119.845-.938 3.281-.938 3.281h7.5s-.82-2.436-.938-3.281c-.214-1.539-1.258-2.813-2.811-2.813"/><path fill="#ffc7ce" d="M32 9.5c0 1.036.839 1.875 1.875 1.875v-3.75A1.874 1.874 0 0 0 32 9.5"/><g fill="#f15744"><path d="M40.04 2l-2.88 4.688 4.684-3.282zM27.708 2l2.886 4.688-4.688-3.282zM38.563 8.563l4.687-1.875.94 1.875zM29.19 8.563L24.5 6.688l-.937 1.875z"/></g><path fill="#62727a" d="M6.375 46.688V39.5A1.88 1.88 0 0 0 4.5 37.625h-.625V48.563H4.5a1.88 1.88 0 0 0 1.875-1.875"/><g fill="#f15744"><path d="M61.44 36.607H32.937l-3.77 3.83H6.374v3.75h24.688l3.691-3.672h26.296c.14-1.206.272-2.507.391-3.908M52.625 25.906a.941.941 0 0 0-.938-.938h-3.281a.94.94 0 0 1-.938-.938v-3.28a.941.941 0 0 0-.938-.938h-.938a.94.94 0 0 0-.938.938v3.281a.941.941 0 0 1-.938.938h-3.281a.94.94 0 0 0-.938.938v.938a.94.94 0 0 0 .938.937h3.281c.515 0 .938.423.938.938V32a.94.94 0 0 0 .938.938h.938a.94.94 0 0 0 .938-.938v-3.281a.94.94 0 0 1 .938-.938h3.281a.94.94 0 0 0 .938-.937v-.938"/></g><path fill="#3e4347" d="M56.38 54.5a7.5 7.5 0 1 0-7.501 7.502A7.505 7.505 0 0 0 56.38 54.5"/><path fill="#dae3ea" d="M48.874 50.21a4.287 4.287 0 0 1 0 8.572 4.287 4.287 0 0 1 0-8.572"/><g fill="#3e4347"><circle cx="48.874" cy="50.21" r="1.071"/><circle cx="45.16" cy="52.36" r="1.071"/><circle cx="45.16" cy="56.643" r="1.07"/><circle cx="48.874" cy="58.785" r="1.072"/><circle cx="52.588" cy="56.642" r="1.071"/><path d="M53.12 53.28a1.07 1.07 0 1 1-1.071-1.854c.513-.297 1.168-.123 1.463.391s.116 1.168-.392 1.463"/></g><circle fill="#62727a" cx="48.874" cy="54.5" r="2.143"/><path fill="#3e4347" d="M22.625 54.5c0-4.143-3.361-7.5-7.5-7.5a7.502 7.502 0 0 0 0 15.002c4.139 0 7.5-3.361 7.5-7.502"/><path fill="#dae3ea" d="M19.41 54.5a4.287 4.287 0 1 0-4.285 4.287A4.288 4.288 0 0 0 19.41 54.5"/><g fill="#3e4347"><circle cx="15.13" cy="50.21" r="1.072"/><circle cx="11.413" cy="52.36" r="1.071"/><path d="M10.875 55.715a1.076 1.076 0 0 1 1.468.393 1.07 1.07 0 0 1-.395 1.463 1.071 1.071 0 1 1-1.073-1.856"/><circle cx="15.13" cy="58.786" r="1.071"/><circle cx="18.839" cy="56.643" r="1.072"/><circle cx="18.839" cy="52.35" r="1.07"/></g><circle fill="#62727a" cx="15.13" cy="54.5" r="2.143"/></svg>