<svg xmlns="http://www.w3.org/2000/svg" viewBox="0 0 64 64"><path fill="#428bc1" d="M55.44 33.11s-5.346-13.71-7.228-14.841c-2.9-1.744-12.324-2.268-16.213-2.268-3.886 0-13.313.524-16.214 2.268C13.905 19.4 8.557 33.11 8.557 33.11H55.44"/><g fill="#3e4347"><path d="M5.75 50.26v9.787c0 1.076.844 1.957 1.875 1.957h3.75c1.031 0 1.875-.881 1.875-1.957V50.26h-7.5M50.75 50.26v9.787c0 1.076.844 1.957 1.875 1.957h3.75c1.031 0 1.875-.881 1.875-1.957V50.26h-7.5"/></g><path fill="#428bc1" d="M60.48 50.46c-.521.963-1.898 1.75-3.065 1.75H6.588c-1.165 0-2.543-.787-3.065-1.75l-.223-.414c-.522-.963-.471-2.191.112-2.729.582-.539 2.01-.98 3.177-.98h50.826c1.167 0 2.595.441 3.179.98.58.537.632 1.766.11 2.729l-.224.414"/><path fill="#42ade2" d="M56.16 48.3c.493.537.09.979-.895.979H8.727c-.985 0-1.388-.441-.896-.979.493-.539 1.701-.979 2.686-.979h42.959c.985 0 2.194.44 2.684.979"/><path fill="#428bc1" d="M59.54 34.3c-2.17-1.068-5.02-2.281-5.02-2.281H9.48S6.629 33.231 4.46 34.3c-1.534.756-2.459 1.349-2.459 2.847l1.103 7.15c.296 1.662 2.501 3.02 4.901 3.02h47.992c2.4 0 4.606-1.361 4.903-3.02l1.101-7.15c0-1.498-.923-2.091-2.459-2.847"/><path fill="#3e4347" d="M51.581 30.36s-3.151-9.429-4.859-10.418C44.089 18.416 35.53 17.958 32 17.958c-3.528 0-12.09.458-14.722 1.984-1.707.989-4.859 10.418-4.859 10.418-.379.715.291 1.3 1.492 1.3h36.18c1.201 0 1.873-.585 1.492-1.3"/><path fill="#42ade2" d="M42.11 31.489c-1.906-1.787-4.129-1.787-5.202-1.787h-9.814c-1.073 0-3.53 0-5.202 1.787-.406.436-2.078 2.128-2.078 2.128h24.375s-1.645-1.721-2.079-2.128"/><path fill="#3e4347" d="M40.555 32.766c-.643-.566-.938-1.106-3.609-1.106H26.117c-1.851 0-2.029.54-2.671 1.106-.24.212-.82.851-.82.851h18.75c-.001 0-.579-.639-.821-.851"/><path fill="#42ade2" d="M7.625 52.21s.216 1.643.386 2.164c.335 1.025 1.729 1.75 2.789 1.75h42.4c1.06 0 2.453-.725 2.788-1.75.171-.521.387-2.164.387-2.164H7.625"/><path fill="#3e4347" d="M44.19 56.986c-5.184 1.467-19.19 1.467-24.375 0-.445-.127-.938-.859-.938-.859h26.25s-.49.732-.937.859"/><path fill="#42ade2" d="M58.986 41.523c-.405 2.111-2.425 3.838-4.486 3.838h-45c-2.062 0-4.082-1.727-4.486-3.838l-.402-2.109c-.405-2.111.952-3.84 3.01-3.84h48.75c2.062 0 3.419 1.729 3.01 3.84l-.404 2.109"/><path fill="#3e4347" d="M25.882 42.23c-.862.646-2.448 1.174-3.525 1.174H8.646a1.964 1.964 0 0 1-1.959-1.957V39.49c0-1.078.881-1.957 1.959-1.957h13.711c1.077 0 2.663.527 3.525 1.174l.784.586c.862.646.862 1.703 0 2.35l-.784.587"/><g fill="#f9f3d9"><ellipse cx="11.375" cy="40.469" rx="2.813" ry="2.936"/><ellipse cx="19.813" cy="40.469" rx="2.813" ry="2.936"/></g><path fill="#3e4347" d="M38.12 42.23c.863.646 2.448 1.174 3.527 1.174h13.711a1.963 1.963 0 0 0 1.957-1.957V39.49a1.962 1.962 0 0 0-1.957-1.957h-13.71c-1.079 0-2.664.527-3.527 1.174l-.783.586c-.86.646-.86 1.703 0 2.35l.782.587"/><g fill="#f9f3d9"><ellipse cx="52.625" cy="40.469" rx="2.813" ry="2.936"/><ellipse cx="44.19" cy="40.469" rx="2.813" ry="2.936"/></g><g fill="#428bc1"><path d="M9.478 31.682c.115.525-.24.957-.789.957H5.545c-.549 0-1.095-.432-1.21-.957l-.438-2c-.115-.526.24-.957.791-.957H7.83c.551 0 1.095.43 1.21.957l.438 2M54.52 31.682c-.115.525.24.957.791.957h3.143c.549 0 1.095-.432 1.21-.957l.438-2c.115-.526-.24-.957-.79-.957h-3.143c-.549 0-1.095.43-1.21.957l-.439 2"/></g><g fill="#b4d7ee"><path d="M38.563 35.574h-13.13l1.875-1.957h9.375zM25.438 52.21h13.13v3.914h-13.13z"/></g><g fill="#428bc1"><path d="M30.828 33.617h1.875v1.957h-1.875zM30.828 52.21h1.875v3.914h-1.875z"/></g></svg>