<svg xmlns="http://www.w3.org/2000/svg" viewBox="0 0 64 64"><path fill="#dae3ea" d="M62 51.637c0 .639.082 3.354-3.567 3.354H5.498c-.643 0-3.378-.463-3.477-3.176V37.129c0-8.135 3.584-20.13 15.1-20.13h40.11c4.771 0 4.771 3.218 4.771 8.435v26.2"/><path fill="#c5d0d8" d="M62 49.762c0 2.514 0 5.229-3.567 5.229H5.518c-.641 0-3.376-.463-3.477-3.176L2 48.674h60v1.088"/><g fill="#3e4347"><path d="M7.863 35.994h4.541c3.451-3.983 8.157-3.982 8.157-3.982V19.647c-7.05 0-12.698 3.711-12.698 16.347M2.02 38.453h2.946s-.337-13.78 5.167-17.749H7.814S1.6 25.53 2.02 38.453M23.413 19.646h35.11v12.366h-35.11zM6.375 51.832c0 1.1-.732 1.994-1.637 1.994-.707 0-.683 0-.683-1.994s-.024-1.994.683-1.994c.904 0 1.637.891 1.637 1.994"/></g><path fill="#fff" d="M5.866 51.832c0 .742-.495 1.348-1.106 1.348-.478 0-.461 0-.461-1.348s-.017-1.348.461-1.348c.611 0 1.106.604 1.106 1.348"/><path fill="#f15744" d="M62 45.26l-2.316-2.81v-2.862L62 39.584z"/><path fill="#ffd45c" d="M59.684 36.725L62 33.91v5.676h-2.316z"/><path fill="#3e4347" d="M10.577 45.543h-5.75v-3.02l5.75-.918z"/><path fill="#fff" d="M9.132 45.09H5.04v-2.149l4.092-.651z"/><path fill="#62727a" d="M62 46.555H35.25c-4.307 0-5.625 2.119-5.625 2.119H62v-2.119z"/><path fill="#c5d0d8" d="M60.21 54.719c0-5.176-4.198-9.375-9.375-9.375-5.176 0-9.375 4.199-9.375 9.375 0 2.5 18.75 2.5 18.75 0"/><path fill="#3e4347" d="M57.913 54.92a7.083 7.083 0 0 0-7.079-7.08 7.08 7.08 0 0 0 0 14.16 7.083 7.083 0 0 0 7.079-7.08"/><circle fill="#dae3ea" cx="50.834" cy="54.92" r="4.045"/><g fill="#3e4347"><circle cx="50.834" cy="50.877" r="1.012"/><circle cx="47.33" cy="52.899" r="1.01"/><circle cx="47.33" cy="56.944" r="1.01"/><circle cx="50.834" cy="58.967" r="1.012"/><circle cx="54.34" cy="56.943" r="1.012"/><path d="M54.844 53.773c-.484.279-1.104.113-1.382-.369a1.012 1.012 0 0 1 1.752-1.01c.278.483.11 1.102-.37 1.379"/></g><circle fill="#62727a" cx="50.834" cy="54.92" r="2.02"/><path fill="#c5d0d8" d="M28.27 54.719c0-5.176-4.201-9.375-9.375-9.375-5.178 0-9.375 4.199-9.375 9.375 0 2.5 18.75 2.5 18.75 0"/><path fill="#3e4347" d="M25.976 54.92a7.08 7.08 0 1 0-14.16 0 7.078 7.078 0 0 0 7.08 7.08 7.084 7.084 0 0 0 7.08-7.08"/><path fill="#dae3ea" d="M22.942 54.92a4.048 4.048 0 0 0-4.04-4.045 4.047 4.047 0 0 0-4.045 4.045 4.043 4.043 0 0 0 8.085 0"/><g fill="#3e4347"><circle cx="18.899" cy="50.877" r="1.012"/><circle cx="15.396" cy="52.899" r="1.01"/><path d="M14.889 56.07a1.01 1.01 0 1 1 0 0"/><circle cx="18.899" cy="58.967" r="1.012"/><circle cx="22.403" cy="56.943" r="1.012"/><circle cx="22.403" cy="52.899" r="1.01"/></g><g fill="#62727a"><circle cx="18.899" cy="54.92" r="2.02"/><path d="M39.23 36.27h15v.938h-15zM25.23 37.59a.469.469 0 0 1-.938 0v-2.813a.469.469 0 0 1 .938 0v2.813M17.493 36.463a.47.47 0 0 1 0-.938h2.813a.47.47 0 0 1 .469.469c0 .262-.21.469-.469.469h-2.813M2.02 41.625h1.869v5.604H2.02z"/></g></svg>