<svg xmlns="http://www.w3.org/2000/svg" viewBox="0 0 64 64"><g fill="#f14e3a"><path d="M18.936 23H7.926a2 2 0 0 0 0 4h11.01v-4M61.936 33l-6-6h-26c-1.1 0-2 .9-2 2v22h34V33"/><path d="M19.936 23h-8.174c-1.111 0-1.656.89-1.826 1.977l-2.901 11.02-1.553 1.105c-.949.577-1.947 1.784-2.115 2.871l-1.408 9.05C1.791 50.11 2.563 51 3.674 51h18.262V25c0-1.1-.901-2-2-2"/></g><g fill="#3e4347"><path d="M11.283 33.01l.742-5.02c.08-.545-.32-.99-.891-.99H9.146l-2.111 9M19.936 32c-.006.566-.438 1.312-.896 1.467l-4.385 1.495c-.457.155-.773-.177-.709-.739l.727-6.199c.063-.564.503-1.024.977-1.024h3.441c.471 0 .85.434.844 1v4"/></g><g fill="#e1e8ed"><path d="M15.781 49a8.036 8.036 0 0 1 3.076 3h3.078v-3h-6.154M0 51v4c0 1.1.887 2 1.969 2h2.037a8.02 8.02 0 0 1 3.995-8h-6.03c-1.082 0-1.969.9-1.969 2"/><path d="M20.936 52c-1.516-3.53-4.973-6-9-6s-7.482 2.47-9 6h18"/></g><circle fill="#3e4347" cx="11.936" cy="56" r="8"/><circle fill="#b2c1c0" cx="11.936" cy="56" r="5"/><g fill="#3e4347"><path d="M11.936 51.722c-.75 0-1.17.523-.934 1.164l.502 1.355c.238.641.627.641.865 0l.5-1.355c.238-.641-.181-1.164-.933-1.164M7.867 54.678c-.232.715.137 1.275.818 1.248l1.443-.059c.684-.027.803-.397.268-.822l-1.135-.896c-.534-.422-1.161-.185-1.394.529M9.42 59.46c.609.44 1.256.264 1.441-.394l.391-1.391c.184-.658-.131-.887-.699-.509l-1.203.804c-.569.378-.536 1.049.07 1.49M14.451 59.46c.607-.443.639-1.113.07-1.492l-1.201-.801c-.568-.379-.883-.15-.701.508l.393 1.391c.183.658.832.833 1.439.394M16.01 54.679c-.234-.715-.861-.952-1.396-.529l-1.133.896c-.537.423-.416.793.266.822l1.445.057c.681.029 1.048-.533.818-1.246"/><circle cx="37.936" cy="56" r="8"/></g><circle fill="#b2c1c0" cx="37.936" cy="56" r="5"/><g fill="#3e4347"><path d="M37.936 51.722c-.75 0-1.17.523-.934 1.164l.502 1.355c.238.641.627.641.865 0l.5-1.355c.238-.641-.181-1.164-.933-1.164M33.867 54.678c-.232.715.137 1.275.818 1.248l1.443-.059c.684-.027.803-.397.268-.822l-1.135-.896c-.534-.422-1.161-.185-1.394.529M35.42 59.46c.609.44 1.256.264 1.441-.394l.391-1.391c.184-.658-.131-.887-.699-.509l-1.203.803c-.569.379-.536 1.05.07 1.491M40.451 59.46c.607-.443.639-1.113.07-1.492l-1.201-.801c-.568-.379-.883-.15-.701.508l.393 1.391c.183.658.832.833 1.439.394M42.01 54.679c-.234-.715-.861-.952-1.396-.529l-1.133.896c-.537.423-.416.793.266.822l1.445.057c.681.029 1.048-.533.818-1.246"/><circle cx="54.936" cy="56" r="8"/></g><circle fill="#b2c1c0" cx="54.936" cy="56" r="5"/><g fill="#3e4347"><path d="M54.936 51.722c-.75 0-1.17.523-.934 1.164l.502 1.355c.238.641.627.641.865 0l.5-1.355c.238-.641-.181-1.164-.933-1.164M50.867 54.678c-.232.715.137 1.275.818 1.248l1.443-.059c.684-.027.803-.397.268-.822l-1.135-.896c-.534-.422-1.161-.185-1.394.529M52.42 59.46c.609.44 1.256.264 1.441-.394l.391-1.391c.184-.658-.131-.887-.699-.509l-1.203.803c-.569.379-.536 1.05.07 1.491M57.45 59.46c.607-.443.639-1.113.07-1.492l-1.201-.801c-.568-.379-.883-.15-.701.508l.393 1.391c.183.658.832.833 1.439.394M59.01 54.679c-.234-.715-.861-.952-1.396-.529l-1.133.896c-.537.423-.416.793.266.822l1.445.057c.681.029 1.048-.533.818-1.246"/></g><path fill="#b3bdc4" d="M26.936 35h-4c-.549 0-1 .45-1 1v16h6V36c0-.55-.45-1-1-1"/><g fill="#e1e8ed"><path d="M62 49h-.057c-1.781-1.85-4.262-3-7.01-3h-17c-2.746 0-5.225 1.15-7.01 3h-2.994v3h3.078a7.989 7.989 0 1 1 13.844 0h3.156a7.994 7.994 0 0 1 6.922-4 7.998 7.998 0 0 1 7.961 8.776c.651-.331 1.104-1 1.104-1.776v-4c0-1.1-.9-2-2-2M18.936 19h-2c0-.55-.449-1-1-1h-3a4 4 0 0 0-4 4v1h11l-1-4"/></g><path fill="#42ade2" d="M14.936 19h-2a3 3 0 0 0-3 3v1h6v-3c0-.55-.45-1-1-1"/><g fill="#b8331e"><path d="M53.936 43h-16c-1.654 0-3-1.346-3-3v-6c0-1.654 1.346-3 3-3h16c1.654 0 3 1.346 3 3v6c0 1.654-1.346 3-3 3m-16-10c-.551 0-1 .448-1 1v6c0 .552.449 1 1 1h16a1 1 0 0 0 1-1v-6a1 1 0 0 0-1-1h-16"/><path d="M36.936 35h18v1h-18zM36.936 38h18v1h-18z"/></g><path fill="#b2c1c0" d="M54.19 21.337l-2.93-11.139-2.21-.592 2.936 11.139z"/><g fill="#3e4347"><path d="M13.205 3.828c-.143.531-.693.85-1.225.707a1.003 1.003 0 0 1-.707-1.225l.518-1.932c.143-.531.693-.85 1.225-.708.531.143.85.694.707 1.226l-.518 1.932"/><path d="M15.844 5.57l-4.571-2.258.518-1.933 5.088.328z"/></g><path fill="#e1e8ed" d="M20.741 2.741l28.977 7.764-1.035 3.864-28.977-7.764z"/><path fill="#b3bdc4" d="M53.14 9.351L28.573 2.769l-2.207-.592-.811.818h.004l-4.055 4.09-1.035 3.864-7.59-2.034-.518 1.933 25.11 6.729 1.414 2.449 12.557 3.364.52-1.932 1.932.518 2.041-1.932.029-5.796-2.827-4.898m-30.463 2.19l1.035-3.863L26.4 4.962l2.145 8.151-5.871-1.573m5.732-6.745l6.889 1.845-5.059 5.104-1.83-6.949m2.61 8.98l5.988-6.04 2.166 8.228-8.154-2.186m10.359 2.764l-2.344-8.897 8.82 2.363-6.476 6.534"/><path fill="#b2c1c0" d="M20.295.551L18.363.033a1.004 1.004 0 0 0-1.225.707l-2.33 8.693 3.863 1.036 2.33-8.693a1.001 1.001 0 0 0-.706-1.225"/><g fill="#3e4347"><circle cx="18.294" cy="4.156" r="1"/><path d="M48.936 16l-7 7h-3v4h17V16z"/></g><circle fill="#e1e8ed" cx="51.05" cy="21" r="2"/><path fill="#f14e3a" d="M26.436 47c0-.55-.449-1-1-1h-1c-.549 0-1 .45-1 1v1c0 .55.451 1 1 1h1c.551 0 1-.45 1-1v-1"/></svg>