<svg xmlns="http://www.w3.org/2000/svg" viewBox="0 0 64 64"><path fill="#aab5bc" d="M2 34.22h60v5.625H2z"/><path fill="#c5d0d8" d="M2 39.842h60v5.625H2z"/><path fill="#dfecf4" d="M2 43.12h60v.938H2z"/><g fill="#3e4347"><path d="M2 34.22h60v.938H2zM4.813 36.527h3.75v1.875h-3.75zM12.313 36.527h3.75v1.875h-3.75zM19.813 36.527h3.75v1.875h-3.75zM27.313 36.527h3.75v1.875h-3.75z"/></g><path fill="#c5d0d8" d="M9.5 45.47h7.501v16.533H9.5z"/><path fill="#dfecf4" d="M10.848 45.47h4.688v16.533h-4.688z"/><path fill="#c5d0d8" d="M47 45.47h7.5v16.533H47z"/><path fill="#dfecf4" d="M48.35 45.47h4.688v16.533H48.35z"/><path fill="#c5d0d8" d="M28.25 45.47h7.501v16.533H28.25z"/><path fill="#dfecf4" d="M29.598 45.47h4.688v16.533h-4.688z"/><path fill="#c5d0d8" d="M7.741 24.092c0 3.793 9.881 13.501 22.864 13.501H62V24.092H7.741"/><path fill="#3e4347" d="M7.741 24.09c0 .802.465 1.875 1.284 3.058H62V24.09H7.74"/><path fill="#428bc1" d="M45.534 39.898c-8.639 0-12.67-3.621-16.227-6.816-2.777-2.496-5.402-4.854-9.524-4.854H9.846c.856 1.021 1.947 2.089 3.253 3.127h6.684c2.925 0 4.915 1.788 7.435 4.053 3.777 3.393 8.479 7.617 18.316 7.617H62v-3.127H45.534"/><path fill="#3e4347" d="M46.37 37.26c-8.638 0-12.67-3.621-16.226-6.816-2.779-2.496-5.402-4.853-9.524-4.853H8.903v1.39c.372.558.827 1.14 1.364 1.736H20.62c2.923 0 4.913 1.789 7.435 4.053 3.777 3.395 8.479 7.617 18.315 7.617h15.631V37.26H46.37"/><path fill="#dfecf4" d="M37.132 2h-2.424C26.846 2 7.741 16.729 7.741 24.092H62V2H37.132z"/><g fill="#3e4347"><path d="M34.33 6.817c0-3-1.326-3-5.914-3 0 0-13.553 5.912-19.862 17.273 0 0 13.734-3.956 21.567-3.956 2.273 0 4.209-6.999 4.209-10.317M62 3.817V19.09h-3.105c-4.817 0-17.63-15.273-12.06-15.273h15.167M42.45 15.416a2.72 2.72 0 0 1-5.438 0v-8.88a2.72 2.72 0 0 1 5.438 0v8.88"/></g></svg>