<svg xmlns="http://www.w3.org/2000/svg" viewBox="0 0 64 64"><ellipse fill="#3e4347" cx="1" cy="43" rx="1" ry="4"/><path fill="#c94747" d="M16.09 37.5h14.492v12.584H16.09z"/><g fill="#3e4347"><path d="M26 62.1c0 1.047-.9 1.904-2 1.904h-4c-1.1 0-2-.857-2-1.904V45.908c0-1.047.9-1.904 2-1.904h4c1.1 0 2 .857 2 1.904V62.1"/><ellipse cx="57" cy="52" rx="4" ry="9"/><ellipse cx="53" cy="52" rx="4" ry="9"/><path d="M52.5 52h5v9h-5zM1 39h3v8H1z"/><ellipse cx="7" cy="44" rx="1" ry="5"/><ellipse cx="4" cy="44" rx="1" ry="5"/><path d="M4 39h3v10H4z"/></g><g fill="#b2c1c0"><ellipse cx="4" cy="44" rx=".5" ry="3"/><ellipse cx="1" cy="43" rx=".5" ry="2"/><path d="M38 0c-.232 0-.451.047-.658.12A2.95 2.95 0 0 0 37 1.5c0 .357.068.695.184 1.013.42-.045.816.092.816.487v11h2V2a2 2 0 0 0-2-2"/></g><path fill="#f15744" d="M60.733 38.721L57.977 37.2s-.625-5.326-1.627-6.467-8.518-2.409-10.02-5.707c-1.504-3.297-2.131-5.706-2.131-5.706s1.754 0 1.129-1.268c-.627-1.269-3.258-3.678-6.389-4.312 0 0-1.492-2.155-3.939-2.79-2.447-.634-22.951-3.556-23.99-.761-2.152 5.79-2.254 11.286-3.131 27.772 0 0-1.879.506-1.879 1.9v6.342l10.09 4.891c.326-5.203 1.504-9.06 2.908-9.06 1.65 0 2.99 5.322 2.998 11.902 1.563.561 4.629 1.256 9.928 1.02 8.518-.381 32.06-3.172 32.06-3.172s.377-9.383-3.256-13.06"/><path fill="#3e4347" d="M21.935 18c-.514-.03-.934.407-.934.972v5.136c0 .564.42 1.042.934 1.062l22.434.829c.514.02.766-.389.563-.907l-1.943-4.92c-.205-.519-.793-.968-1.307-.998L21.935 18"/><path fill="#b2c1c0" d="M56.993 43.975a.938.938 0 0 1-.891 1.055l-16.688.969a1.072 1.072 0 0 1-1.117-.939L37.006 33a.888.888 0 0 1 .903-.999h16.65c.555 0 1.064.448 1.129.997l1.305 10.978"/><path fill="#3e4347" d="M13.501 27.965c0 .568.449 1.034 1 1.034h3c.549 0 1-.466 1-1.034v-8.268c0-.568-.412-.847-.916-.619l-3.168 1.437c-.504.228-.916.88-.916 1.448v6"/><path fill="#fed0ac" d="M52.16 30.703c1.111-.003 1.115-.076.008-.163l-16.17-1.273a30.477 30.477 0 0 1-3.971-.635l-6.182-1.505c-1.078-.262-1.135-.105-.129.349l5.43 2.448c1.01.454 2.059 1.673 2.34 2.709l3.145 11.604c.281 1.035.389 1.016.242-.047l-1.609-11.511c-.146-1.061.641-1.932 1.752-1.935l15.15-.041"/><g fill="#b2c1c0"><path d="M11 34.24a3.019 3.019 0 0 1-4 0V13.751a3.019 3.019 0 0 1 4 0V34.24"/><path d="M8 0c-.232 0-.451.046-.658.12A2.95 2.95 0 0 0 7 1.5c0 .357.068.695.184 1.013C7.603 2.467 8 2.604 8 3v11h2V2a2 2 0 0 0-2-2"/></g><g fill="#3e4347"><path d="M39.31 34.912c.072.537.611.971 1.197.961l4.264-.072c.586-.01 1.01-.459.934-.996-.072-.539-.613-.971-1.199-.961l-4.264.072c-.587.01-1.01.457-.932.996M39.839 38.826c.074.537.613.969 1.199.959l4.264-.07c.586-.01 1.01-.459.934-.996-.074-.539-.615-.971-1.201-.961l-4.262.072c-.588.008-1.01.457-.934.996M40.37 42.738c.072.539.615.971 1.199.961l4.266-.072c.584-.01 1-.457.932-.996-.072-.537-.611-.969-1.199-.959l-4.264.07c-.584.01-1.01.459-.934.996M48.769 33.771c-.586.01-1.01.459-.932.996.072.539.611.971 1.197.961l4.264-.072c.586-.008 1.01-.457.934-.996-.072-.537-.613-.969-1.199-.961l-4.264.072M48.37 38.682c.072.539.613.971 1.199.961l4.264-.072c.586-.01 1.01-.457.934-.996-.074-.537-.615-.971-1.199-.961l-4.266.072c-.586.009-1 .459-.932.996M48.897 42.596c.072.537.611.971 1.197.961l4.266-.072c.586-.01 1-.459.932-.996-.072-.539-.613-.971-1.197-.961l-4.266.072c-.586.009-1.01.457-.932.996"/></g><path fill="#f15744" d="M34 26.828L32.61 27 32 17.17l1.392-.17z"/><g fill="#fff"><path d="M38 51.57c0 .564-.449 1.053-.998 1.084l-6 .344c-.549.031-.998-.406-.998-.971v-1.6c0-.564.449-1.053.998-1.084l6-.343c.549-.029.998.406.998.971v1.599M62 49.34c0 .578-.447 1.105-.994 1.172l-4.01.477c-.547.066-.994-.359-.994-.938v-1.396c0-.582.447-1.109.994-1.176l4.01-.477c.547-.064.994.359.994.938v1.4"/></g><path fill-rule="evenodd" fill="#62727a" d="M16.418 55L6 47v-3.442l10.418 6z"/><path fill="#b2c1c0" d="M17 49c-.551 0-1 .449-1 1v8c0 .549.449 1 1 1h1V49h-1"/><g fill-rule="evenodd"><path fill="#3e4347" d="M14.14 33.699l-.639-.489v-2.47h.639z"/><g fill="#fed0ac"><path d="M17 36.666s8.854-4.664 12.542 5.213c3.688 9.875-4.814-5.402-12.542-5.213M16.09 12.04s4.107-2.163 5.819 2.419c1.711 4.582-2.234-2.507-5.819-2.419M57.978 37.2s5.253 0 5.896 10.857c0 .001-2.802-8.584-5.896-10.857"/></g></g></svg>