<svg xmlns="http://www.w3.org/2000/svg" viewBox="0 0 64 64"><path fill="#42ade2" d="M34.782 20.642h-2.644a3.521 3.521 0 0 1 0-7.042h2.644v7.04"/><path fill="#f15744" d="M38.886 13.601h2.644a3.522 3.522 0 0 1 0 7.042h-2.644v-7.04"/><path fill="#cbd1d6" d="M39.07 20.642v-7.406a2.236 2.236 0 1 0-4.472 0v7.406H31.92v2.231h9.828v-2.231H39.07"/><path fill="#3e4347" d="M58.18 37.591l-5.268-1.603c-1.055-.322-2.108-1.396-2.344-2.391l-2.186-9.245c-.236-.995-1.336-1.883-2.449-1.883H27.726c-1.115 0-2.434.974-2.93 1.883l-5.273 9.399c-.497.908-1.767 1.914-2.821 2.236l-8.303 2.525c-1.055.323-2.23 1.789-2.48 2.779l.559 1.954-1.58 1.812-1.022 9.765h56.25V40.353c-.002-1.017-.892-2.44-1.946-2.762"/><g fill="#b4d7ee"><path d="M35.75 33.659c0 .575.408 1.046.908 1.046h7.724c.498 0 .826-.46.725-1.023l-1.32-7.362c-.097-.564-.586-1.026-1.084-1.026h-6.04c-.5 0-.908.471-.908 1.046v7.319zM33.875 26.339c0-.575-.419-1.046-.929-1.046h-5.103c-.511 0-1.124.416-1.364.922l-3.753 7.576c-.246.502-.032.914.478.914h9.742c.51 0 .929-.471.929-1.046v-7.32"/></g><path fill="#fff" d="M4.897 45.06h2.834c.451 0 .955-.424 1.119-.941l.598-1.883c.164-.518-.072-.941-.523-.941h-3.01L4.893 45.06"/><path fill="#f15744" d="M60.13 41.29h-2.31c-.367 0-.777.424-.911.941l-.487 1.883c-.134.518.059.941.427.941h3.281V41.29"/><g fill="#b2c1c0"><path d="M55.965 54.22a1.21 1.21 0 0 0 1.207 1.207h3.619c.663 0 1.209-.544 1.209-1.207v-2.413c0-.664-.546-1.207-1.209-1.207h-3.619a1.21 1.21 0 0 0-1.207 1.207v2.413M2 54.22c0 .663.544 1.207 1.207 1.207h3.621c.661 0 1.205-.544 1.205-1.207v-2.413A1.21 1.21 0 0 0 6.828 50.6H3.207C2.544 50.6 2 51.143 2 51.807v2.413"/><circle cx="52.16" cy="40.629" r="1.208"/></g><path fill="#e8e8e8" d="M44.604 38.16c0 4.729-6.607 7.098-6.607 13.791H26.002c0-6.693-6.607-8.946-6.607-13.791h25.21"/><path fill="#dbb471" d="M31.999 40.564l1.121 3.434h3.603l-2.918 2.122 1.116 3.433-2.922-2.123-2.919 2.123 1.11-3.433-2.91-2.122h3.603z"/><ellipse fill="#62727a" cx="17.06" cy="53.53" rx="8.438" ry="8.471"/><ellipse fill="#e8e8e8" cx="17.06" cy="53.53" rx="4.821" ry="4.84"/><g fill="#3e4347"><path d="M18.202 51.15c-.205.646-.719 1.175-1.14 1.175s-.935-.528-1.14-1.175l-.021-.072c-.205-.645.318-1.174 1.161-1.174s1.366.529 1.161 1.174l-.021.072M15.575 51.35c.453.501.654 1.21.442 1.576-.21.367-.921.549-1.58.404l-.075-.018c-.659-.146-.853-.863-.431-1.597.421-.732 1.137-.923 1.591-.422l.053.057M14.438 53.731c.659-.145 1.37.037 1.58.403.212.367.011 1.076-.44 1.576l-.055.057c-.454.502-1.17.309-1.591-.424-.422-.732-.229-1.449.431-1.596l.075-.016M15.923 55.913c.207-.646.719-1.173 1.14-1.173s.935.527 1.14 1.173l.021.073c.205.646-.318 1.173-1.161 1.173s-1.366-.526-1.161-1.173l.021-.073M18.55 55.711c-.453-.501-.654-1.211-.442-1.576.21-.367.921-.549 1.58-.404l.075.018c.659.146.853.863.431 1.596-.421.732-1.137.924-1.591.423l-.053-.057M19.688 53.33c-.659.145-1.37-.037-1.58-.403-.212-.366-.014-1.075.44-1.576l.055-.056c.454-.501 1.17-.31 1.591.423.422.733.229 1.45-.431 1.596l-.075.016"/></g><g fill="#e8e8e8"><path d="M19.694 56.895l-1.045.605-4.218-7.34 1.045-.601z"/><path d="M12.844 52.924h8.438v1.211h-8.438z"/><path d="M18.649 49.559l1.045.601-4.218 7.34-1.045-.605z"/></g><ellipse fill="#62727a" cx="46.938" cy="53.53" rx="8.438" ry="8.471"/><ellipse fill="#e8e8e8" cx="46.938" cy="53.53" rx="4.821" ry="4.84"/><g fill="#3e4347"><path d="M48.08 51.15c-.205.646-.719 1.175-1.14 1.175s-.935-.528-1.14-1.175l-.021-.072c-.205-.645.318-1.174 1.161-1.174s1.366.529 1.161 1.174l-.021.072M45.45 51.35c.453.501.654 1.21.442 1.576-.21.367-.921.549-1.58.404l-.075-.018c-.659-.146-.853-.863-.431-1.597.421-.732 1.137-.923 1.591-.422l.053.057M44.31 53.731c.659-.145 1.37.037 1.58.403.212.367.011 1.076-.44 1.576l-.055.057c-.454.502-1.17.309-1.591-.424-.422-.732-.229-1.449.431-1.596l.075-.016M45.798 55.913c.207-.646.719-1.173 1.14-1.173s.935.527 1.14 1.173l.021.073c.205.646-.318 1.173-1.161 1.173s-1.366-.526-1.161-1.173l.021-.073M48.42 55.711c-.453-.501-.654-1.211-.442-1.576.21-.367.921-.549 1.58-.404l.075.018c.659.146.853.863.431 1.596-.421.732-1.137.924-1.591.423l-.053-.057M49.563 53.33c-.659.145-1.37-.037-1.58-.403-.212-.366-.014-1.075.44-1.576l.055-.056c.454-.501 1.17-.31 1.591.423.422.733.229 1.45-.431 1.596l-.075.016"/></g><g fill="#e8e8e8"><path d="M49.569 56.895l-1.049.605-4.21-7.34 1.04-.601z"/><path d="M42.719 52.924h8.438v1.211h-8.438z"/><path d="M48.52 49.559l1.049.601-4.219 7.34-1.04-.605z"/></g></svg>