<svg xmlns="http://www.w3.org/2000/svg" viewBox="0 0 64 64"><path fill="#63686b" d="M2 15.84l11.827-5.296L22.721 2l3.319 6.68 4.95 3.068 2.885 4.092 2.934-2.948 2.931-1.445 1.59 3.972 2.305 1.384L47 12.41l1.684-.421 2.646-4.634 5.09 5.537 1.73 4.512L62 21.556V58.25H2z"/><g fill="#c5d0d8"><path d="M22.721 2l.097 3.791-1.778 1.564-.91 3.13L23.06 8.8l2.07-.602.91.482zM27.11 9.341l-.302 2.287-2.26 3.37-3.508 9.08 2.306-.237 1.202 3.13 1.732-2.708 1.634 1.443.913 6.382 2.692-2.47.338-4.182 1.538 4.182.675 4.273 1.633-8.455-1.828-9.598-2.885-4.092zM39.74 11.447l-.34 4.935-2.64 4.03-.58 6.856 3.56-5.352 1.155 3.52 3.125 6.228v-5.115l-.62-6.137.235-3.611-2.305-1.384zM51.33 7.355l1.391 4.092-1.153.963-.238 5.6-3.13 1.441v5.987l-1.44 5.385 2.98.843 1.875 2.584 2.02-.357 3.995 6.679-.58-4.212 2.35 1.443.485-4.814L62 36.963V21.556l-3.85-4.152-1.73-4.512zM10.365 30.04l1.587-8.122 7.02-5.295-1.682-.603 1.01-4.93-2.836 5.533-2.885 1.507 1.443-4.03-1.395.898.336-3.551-2.596 4.814-1.01 6.559-3.102-8.884-4.254 1.904v21.963z"/></g><path fill="#3e4347" d="M2 58.25h60v1.875H2z"/><path fill="#89664c" d="M2 60.13h60v1.875H2z"/><g fill="#dbb471"><path d="M39.5 60.13h3.75v1.875H39.5zM32 60.13h3.75v1.875H32zM54.5 60.13h3.75v1.875H54.5zM47 60.13h3.75v1.875H47zM9.5 60.13h3.75v1.875H9.5zM2 60.125h3.75V62H2zM24.5 60.13h3.75v1.875H24.5zM17 60.13h3.75v1.875H17z"/></g><circle fill="#94989b" cx="27.1" cy="55.12" r="4.399"/><path fill="#3e4347" d="M27.1 58.05a2.935 2.935 0 0 1-2.933-2.933c0-1.617 1.314-2.933 2.933-2.933s2.933 1.315 2.933 2.933A2.935 2.935 0 0 1 27.1 58.05m0-4.399c-.808 0-1.467.658-1.467 1.466a1.467 1.467 0 0 0 2.933 0c0-.808-.658-1.466-1.466-1.466"/><circle fill="#94989b" cx="36.877" cy="55.12" r="4.399"/><path fill="#3e4347" d="M36.877 58.05a2.935 2.935 0 0 1-2.934-2.933 2.936 2.936 0 0 1 2.934-2.933 2.937 2.937 0 0 1 2.934 2.933 2.937 2.937 0 0 1-2.934 2.933m0-4.399a1.47 1.47 0 0 0-1.467 1.466 1.468 1.468 0 0 0 2.934 0c0-.808-.658-1.466-1.467-1.466"/><circle fill="#94989b" cx="56.965" cy="55.12" r="4.398"/><path fill="#3e4347" d="M56.965 58.05a2.935 2.935 0 0 1-2.934-2.933 2.936 2.936 0 0 1 2.934-2.933 2.935 2.935 0 0 1 2.932 2.933 2.936 2.936 0 0 1-2.932 2.933m0-4.399c-.809 0-1.467.658-1.467 1.466 0 .809.658 1.466 1.467 1.466.807 0 1.465-.657 1.465-1.466 0-.808-.659-1.466-1.465-1.466"/><path fill="#f2b200" d="M62 20.651H25.855a5.107 5.107 0 0 0-5.107 5.106v29.364H62v-34.47z"/><path fill="#699635" d="M62 20.651H25.855a5.107 5.107 0 0 0-5.107 5.106v2.554H62v-7.66z"/><path fill="#ffe62e" d="M20.748 28.312h41.25v14.04h-41.25z"/><g fill="#3e4347"><path d="M20.15 52.57h.598v2.554h-.598z"/><path d="M18.574 51.29h1.576v5.105h-1.576z"/></g><path fill="#89664c" d="M41.28 50.31h11.27l2.56-2.55H62v-2.55h-7.95l-2.55 2.55h-9.16l-2.551-2.55h-19.04v2.55h17.984z"/><g fill="#3e4347"><path d="M60.45 38.824a.979.979 0 0 1-.977.978h-5.707a.978.978 0 0 1-.977-.978v-6.982c0-.539.438-.978.977-.978h5.707c.539 0 .977.438.977.978v6.982M50.75 38.824a.979.979 0 0 1-.979.978h-5.703a.977.977 0 0 1-.977-.978v-6.982c0-.539.436-.978.977-.978h5.703c.541 0 .979.438.979.978v6.982M41.05 38.824a.979.979 0 0 1-.977.978h-5.705a.98.98 0 0 1-.979-.978v-6.982a.98.98 0 0 1 .979-.978h5.705c.539 0 .977.438.977.978v6.982M31.34 38.824a.98.98 0 0 1-.979.978h-5.705a.978.978 0 0 1-.977-.978v-6.982c0-.539.438-.978.977-.978h5.705a.98.98 0 0 1 .979.978v6.982M20.748 51.29h41.25v3.83h-41.25z"/></g><g fill="#b4d7ee"><path d="M30.26 37.769a.86.86 0 0 1-.859.86h-3.78a.86.86 0 0 1-.86-.86v-4.872a.86.86 0 0 1 .86-.859h3.78c.475 0 .859.385.859.859v4.872M39.967 37.769a.86.86 0 0 1-.861.86h-3.779a.86.86 0 0 1-.859-.86v-4.872c0-.475.385-.859.859-.859h3.779a.86.86 0 0 1 .861.859v4.872M49.67 37.769a.86.86 0 0 1-.859.86h-3.779a.86.86 0 0 1-.861-.86v-4.872a.86.86 0 0 1 .861-.859h3.779c.475 0 .859.385.859.859v4.872M59.38 37.769a.86.86 0 0 1-.859.86h-3.779a.86.86 0 0 1-.861-.86v-4.872a.86.86 0 0 1 .861-.859h3.779c.475 0 .859.385.859.859v4.872"/></g></svg>