<svg xmlns="http://www.w3.org/2000/svg" viewBox="0 0 64 64"><g fill="#94989b"><path d="M30 11.525h4v12.05h-4z"/><path d="M39.568 13L23.861 9.937l.572-2.956 3.436.671 3.03-2.478 3.926.767 2.127 3.482 3.191.627z"/></g><path fill="#3e4347" d="M62 19.05L2 7.01V5l60 12.05z"/><path fill="#ed4c5c" d="M54.959 48.961H9.042V31.499c0-5.544 4.477-10.04 10-10.04h25.917c5.523 0 10 4.495 10 10.04v17.462"/><path fill="#3e4347" d="M50.98 44.854H13.02V33.43c0-4.583 3.701-8.299 8.267-8.299h21.426c4.566 0 8.268 3.715 8.268 8.299v11.424"/><path fill="#dae3ea" d="M54.959 48.961c0 5.544-4.477 10.04-10 10.04H19.042c-5.523 0-10-4.495-10-10.04h45.917"/><g fill="#ed4c5c"><path d="M24.806 46.862h-2.688c0-11.837 4-24.03 4-24.03h2.688c0 .001-4 12.226-4 24.03M39.2 46.862h2.688c0-11.837-4-24.03-4-24.03H35.2c0 .001 4 12.226 4 24.03M54.12 52.977a9.995 9.995 0 0 0 .637-2.01H9.241c.142.699.359 1.37.637 2.01h44.24"/></g></svg>