<svg xmlns="http://www.w3.org/2000/svg" viewBox="0 0 64 64"><circle fill="#ed4c5c" cx="32" cy="32" r="30"/><circle fill="#333" cx="32" cy="32" r="24"/><g fill="#fff"><path d="M32.603 20.38h2.595c.956 0 1.73-.618 1.73-1.379v-3.44c0-.761-.774-1.378-1.73-1.378h-2.595c-.956 0-1.73.617-1.73 1.378v3.44c-.001.761.773 1.379 1.73 1.379M39.486 21.929H27.962c-.816 0-1.478.52-1.478 1.162V28.9l-3.688 2.977v1.339l5.75-2.929.745-6.03V49.82h2.956l1.477-11.619 1.479 11.619h2.953V24.257l1.33 11.62h1.479V23.095c0-.642-.662-1.162-1.479-1.162M19.926 34.23h2.815v3.754h-2.815z"/><path d="M23.786 38.863h2.815v3.754h-2.815zM19.16 43.15h2.815v3.755H19.16z"/></g><path fill="#ed4c5c" d="M50.515 54.753L9.24 13.479l4.242-4.241L54.757 50.51z"/></svg>