<svg xmlns="http://www.w3.org/2000/svg" viewBox="0 0 64 64"><path fill="#e0ac68" d="M48.07 29.577c-.404 1.378-2.902 1.378-3.098 1.321-.197-.058-2.299-1.406-1.895-2.785.402-1.38.406-1.63 2.967-.879 2.565.751 2.431.963 2.026 2.343"/><path fill="#3b946f" d="M23.356 28.858a1.602 1.602 0 0 0-.242-.019c-.891 0-1.613.707-1.613 1.578 0 .658.412 1.223.998 1.459l17.697 5.549.91-2.915-17.75-5.652"/><path fill="#cea284" d="M42.28 33.861l.695.229a.968.968 0 0 1 .662.793c.906.37 2.01 1.101 1.426 2.789-.098.281-.629 1.826-2.496 1.211-2.744-.906-2.744-.906-2.02-3.01l.486-1.413a.99.99 0 0 1 1.248-.604"/><path fill="#e0ac68" d="M42.33 42.26l4.489-13.42H44.33l-4.45 13.24z"/><path fill="#7a5136" d="M49.35 44.21l11.67-2.91L3 37.426z"/><path fill="#ffe1bd" d="M24.343 26.415v-1.306h-3.834v1.306c0 .721-.598 1.304-1.334 1.304h6.502c-.737 0-1.334-.583-1.334-1.304"/><path fill="#594640" d="M11.19 9.694v7.935h22.471V9.694c0-10.258-22.471-10.258-22.471 0"/><path fill="#ffe1bd" d="M10.427 16.27c0-3.554 2.701-1.75 2.701-1.75.49-9.336 3.084-4.294 9.297-4.294 6.219 0 8.811-5.04 9.307 4.294 0 0 2.695-1.804 2.695 1.75 0 1.359-.514 2.472-2.258 2.589-.734 5.497-4.393 6.631-9.744 6.631-5.35 0-9-1.134-9.74-6.631-1.743-.118-2.258-1.23-2.258-2.589"/><g fill="#574137"><path d="M17.927 19.923c0 1.597 2.01 2.936 4.5 2.936 2.484 0 4.5-1.339 4.5-2.936 0 0-2.393.141-4.5.141s-4.5-.141-4.5-.141M25.27 14.938c0 .809.672 1.47 1.498 1.47.828 0 1.502-.661 1.502-1.47 0-.813-.674-1.467-1.502-1.467-.827 0-1.498.654-1.498 1.467"/><ellipse cx="18.09" cy="14.938" rx="1.5" ry="1.47"/></g><path fill="#e6b796" d="M21.427 17.709c0 .543.447.979 1 .979s1-.436 1-.979h-2"/><path fill="#47b892" d="M27.17 27.414h-9.387c-1.477 0-2.674 1.172-2.674 2.617 0 .208.025.411.072.605l2.543 13.576h12.02l-2.572-16.798"/><path fill="#d3976e" d="M59.24 55.24L61 43.441l-11.725 1.02-46.27-7.04c-.363 8.404 11.678 17.816 11.678 17.816h44.562"/><path fill="#af7146" d="M61 43.44l.012-2.141-11.736 1.883-46.28-5.76c-.035.835.047 1.649.201 2.444l46.08 5.731 11.725-2.157"/><path fill="#d3976e" d="M49.28 43.19v2.41L61 43.44l.02-2.14z"/><path fill="#ffe1bd" d="M61 54.26H49.29l-.01-8.66L61 43.44z"/><path fill="#42ade2" d="M59.43 50.856a4.585 4.585 0 0 1-2.996-1.12c-.957-.82-1.574-2.01-1.574-3.354 0 2.473-2.047 4.474-4.572 4.474s-4.57-2-4.57-4.474c0 2.473-2.047 4.474-4.572 4.474s-4.572-2-4.572-4.474c0 2.473-2.045 4.474-4.57 4.474s-4.572-2-4.572-4.474c0 2.473-2.045 4.474-4.57 4.474s-4.572-2-4.572-4.474c0 2.473-2.047 4.474-4.57 4.474-2.525 0-4.572-2-4.572-4.474 0 1.344-.615 2.533-1.572 3.354a4.6 4.6 0 0 1-3 1.12c-2.523 0-4.57-2-4.57-4.474V64h64V46.383c-.004 2.472-2.051 4.473-4.576 4.473"/><g fill="#428bc1"><path d="M23.22 61.42c-1.646.195-3.469.094-5.04-.417-2.041-.608-3.855-1.7-5.984-2.078-2.863-.489-5.994-.051-8.672 1.032 3.496-.194 6.844-.525 10.199.683 2.984 1.075 6.375 2.211 9.492.78M35.638 55.606c-1.496.175-3.67.249-5.03-.419-2.045-.6-3.857-1.707-5.988-2.078-2.838-.479-6.02-.074-8.668 1.035 3.484-.221 6.855-.523 10.197.682 2.97 1.073 6.388 2.217 9.492.78M48.06 61.42c-1.492.18-3.672.248-5.03-.417-2.045-.602-3.857-1.707-5.988-2.078-2.859-.491-5.996-.05-8.67 1.032 3.494-.195 6.846-.528 10.199.683 2.976 1.075 6.38 2.214 9.49.78M60.48 55.606c-1.496.175-3.67.249-5.03-.419-2.045-.597-3.855-1.703-5.986-2.078-2.844-.479-6.02-.07-8.672 1.035 3.484-.223 6.857-.522 10.199.682 2.982 1.074 6.376 2.21 9.492.78"/></g><path fill="#3b946f" d="M18.339 28.858a1.602 1.602 0 0 0-.242-.019c-.891 0-1.613.707-1.613 1.578 0 .658.412 1.223.996 1.459l17.699 5.549.91-2.915-17.75-5.652"/><path fill="#fbbf67" d="M31.09 60.09h-2.487L39.15 28.84h2.494z"/><path fill="#ffe1bd" d="M37.26 33.861l.697.229a.968.968 0 0 1 .662.793c.906.37 2.01 1.101 1.426 2.789-.098.281-.629 1.826-2.496 1.211-2.744-.906-2.744-.906-2.02-3.01l.486-1.413a.988.988 0 0 1 1.246-.604"/><g fill="#fbbf67"><path d="M30.894 56.736c-2.355-.969-6.1 1.094-7.1 4.705h9.371c.975-2.267-.695-4.055-2.271-4.705M43.09 29.551c-.461 1.568-3.301 1.568-3.523 1.503-.225-.065-2.615-1.6-2.156-3.168s.463-1.854 3.377-.999 2.761 1.094 2.302 2.664"/></g></svg>