<svg xmlns="http://www.w3.org/2000/svg" viewBox="0 0 64 64"><path fill="#c94747" d="M20.454 23.25l-4.833 1.645v1.646l4.833-1.351z"/><path fill="#3e4347" d="M20.454 25.19l-4.833 1.351v1.937l4.833-1.358z"/><path fill="#42ade2" d="M0 53h64v11H0z"/><g fill="#dae3ea"><circle cx="26.22" cy="13.562" r="3.875"/><circle cx="22.345" cy="10.897" r="4.844"/><circle cx="30.09" cy="16.468" r="1.938"/><circle cx="15.563" cy="9.687" r="5.813"/><circle cx="8.783" cy="6.781" r="6.781"/></g><path fill="#94989b" d="M33.865 17.229a9.66 9.66 0 0 0-3.771-.762c-1.534 0-3.555.366-4.844 1l-.969 7.717h13.563l-3.979-7.957"/><path fill="#62727a" d="M17.501 27.12l-4.844 2.212v5.572h2.906V46.5h25.19V33.904z"/><path fill="#b2c1c0" d="M17.501 27.12v5.817h2.906v12.592h25.19V32.937h2.905V27.12z"/><g fill="#62727a"><path d="M20.407 48.539L8.782 50.37v-9.684l11.625-5.813zM26.22 35.389a.484.484 0 0 1-.484.484H22.83a.484.484 0 0 1-.484-.484v-.969c0-.267.218-.484.484-.484h2.906c.267 0 .484.218.484.484v.969M32.03 35.389a.484.484 0 0 1-.484.484H28.64a.484.484 0 0 1-.484-.484v-.969c0-.267.218-.484.484-.484h2.906c.267 0 .484.218.484.484v.969M37.844 35.389a.484.484 0 0 1-.484.484h-2.906a.484.484 0 0 1-.484-.484v-.969c0-.267.218-.484.484-.484h2.906c.267 0 .484.218.484.484v.969M43.656 35.389a.484.484 0 0 1-.484.484h-2.906a.484.484 0 0 1-.484-.484v-.969c0-.267.217-.484.484-.484h2.906c.267 0 .484.218.484.484v.969"/></g><g fill="#fff"><path d="M12.173 42.663c0-.267-.197-.393-.438-.28l-1.544.721a.832.832 0 0 0-.439.689v1.293c0 .267.205.408.454.314l1.514-.564a.752.752 0 0 0 .454-.653v-1.52M15.563 41.08c0-.268-.197-.393-.438-.279l-1.544.72a.833.833 0 0 0-.439.689v1.608c0 .267.205.408.454.314l1.514-.565a.75.75 0 0 0 .454-.653V41.08M16.972 39.94a.834.834 0 0 0-.439.69v1.924c0 .267.204.408.454.314l1.998-.746a.75.75 0 0 0 .454-.654v-2.195c0-.267-.197-.393-.438-.279l-2.029.946"/></g><g fill="#b2c1c0"><path d="M4.907 7.252c.468.417.915.777 1.396 1.058.461.298.951.499 1.424.651.955.291 1.919.298 2.925.13l.587-.098.377.465c.233.288.609.657.955.945.362.293.741.569 1.157.785.821.464 1.786.688 2.948.719-.892.747-2.22 1.01-3.452.735a5.544 5.544 0 0 1-1.729-.712 5.888 5.888 0 0 1-1.45-1.245l.964.366c-1.3.258-2.799.095-3.973-.648a4.826 4.826 0 0 1-1.442-1.379c-.353-.547-.626-1.137-.687-1.772M17.501 10.655c.754.703 1.538 1.036 2.289 1.135.753.104 1.525.004 2.337-.173l.848-.187.313.828a3.865 3.865 0 0 0 .966 1.357c.225.192.493.384.824.521.329.161.709.262 1.143.393-.669.582-1.687.813-2.67.492a3.32 3.32 0 0 1-1.291-.797 3.706 3.706 0 0 1-.856-1.298l1.159.642c-1.03.23-2.232.224-3.286-.297-1.046-.514-1.801-1.559-1.776-2.616"/></g><path fill="#f15744" d="M57.964 58.51s-32.815 6.945-48.35 1.232c-2.139-.787-4.591-2.158-7.606-5.239V49.84s10.956-1.429 24.396-8.629c16.5-8.843 30.992-9.327 35.729-7.265-.002 0-4.164 6.687-4.164 24.564"/><path fill="#d33b23" d="M58.09 53.22c.101-4.057 1.361-5.752 3.03-8.449 5.82-9.395 1-10.821 1-10.821-3.8 6.276-4.03 19.27-4.03 19.27"/><path fill="#fff" d="M61.1 35.988c-6-1.682-19.723-.449-34.933 7.704-13.174 7.06-24.06 7.599-24.17 7.603v.969c.11-.005 11.242-.548 24.624-7.718 14.753-7.905 28.369-9.195 34.12-7.65.114-.309.233-.613.357-.908"/><path fill="#b2c1c0" d="M61.09 36.01c-.123.292-.24.591-.352.896.903.363 2.382 1.188 2.832 2.792.172-.561.285-1.067.351-1.527-.785-1.168-2.01-1.828-2.831-2.161"/><path fill="#62727a" d="M20.454 25.19h25.09v1.938h-25.09z"/><path fill="#ff9d27" d="M20.454 23.25h25.09v1.938h-25.09z"/><path fill="#c5d0d8" d="M17.501 27.12H48.5v5.813H17.501z"/><g fill="#94989b"><path d="M19.501 28.567h1.438v2.927h-1.438zM23.15 28.567h1.438v2.927H23.15zM26.791 28.567h1.438v2.927h-1.438zM30.437 28.567h1.438v2.927h-1.438zM34.08 28.567h1.438v2.927H34.08zM37.727 28.567h1.438v2.927h-1.438zM41.37 28.567h1.438v2.927H41.37zM45.02 28.567h1.438v2.927H45.02z"/></g></svg>