<svg xmlns="http://www.w3.org/2000/svg" viewBox="0 0 64 64"><path fill="#94989b" d="M30.716 6.688h3.751v15h-3.751z"/><g fill="#3e4347"><path d="M62 17L2 5.75V3.875L62 15.13zM42.31 9.501L21.687 5.75V3.875L42.31 7.626z"/><circle cx="21.792" cy="4.813" r="2.812"/></g><circle fill="#94989b" cx="21.792" cy="4.813" r=".938"/><circle fill="#3e4347" cx="42.21" cy="8.563" r="2.813"/><circle fill="#94989b" cx="42.21" cy="8.563" r=".938"/><path fill="#d0d0d0" d="M30.716 14.188h3.751v7.5h-3.751z"/><path fill="#dae3ea" d="M62 51.742C62 57.408 57.409 62 51.744 62H12.258C6.592 62 2 57.408 2 51.742V30.824c0-5.666 4.592-10.258 10.258-10.258h39.486C57.409 20.565 62 25.158 62 30.824v20.918z"/><path fill="#3e4347" d="M57.92 47.547H6.08V32.795a8.48 8.48 0 0 1 8.48-8.479h34.88a8.478 8.478 0 0 1 8.479 8.479v14.752z"/><path fill="#ed4c5c" d="M62 51.742C62 57.408 57.409 62 51.744 62H12.258C6.592 62 2 57.408 2 51.742h60z"/><g fill="#dae3ea"><path d="M61.14 55.846a10.16 10.16 0 0 0 .652-2.052H2.202c.146.714.369 1.4.654 2.052h58.28M43.94 21.526h4.079v26.98H43.94zM29.96 21.526h4.08v26.98h-4.08zM15.98 21.526h4.079v26.98H15.98z"/></g></svg>