<svg xmlns="http://www.w3.org/2000/svg" viewBox="0 0 64 64"><path fill="#89664c" d="M2.999 29v31.998h58V29c0-38.969-58-38.37-58 0"/><path fill="#594640" d="M7.244 31.24v29.763h49.51V31.24c0-36.25-49.51-35.688-49.51 0"/><path fill="#a37d64" d="M8.04 31.653V61h47.927V31.653c0-35.739-47.927-35.19-47.927 0"/><path fill="#94989b" d="M-.001 61h64v3h-64z"/><g fill="#594640"><path d="M35.24 30.483h16.641c-.648-12.07-8.293-18.62-16.641-19.765v19.765M29.67 30.483V10.75c-8.342 1.239-15.981 7.855-16.638 19.733H29.67zM35.24 36.06h16.689v19.948H35.24zM12.98 36.06h16.689v19.948H12.98z"/></g><g fill="#89664c"><path d="M34.785 30.15h16.641c-.647-12.06-8.293-18.62-16.641-19.765V30.15M29.21 30.15V10.417c-8.342 1.239-15.982 7.855-16.639 19.733H29.21M34.785 35.723h16.69V55.67h-16.69zM12.522 35.723h16.69V55.67h-16.69z"/></g><path fill="#ffce31" d="M47.46 28.861h7v14h-7z"/><path fill="#f2b200" d="M47.957 29.361h6v13h-6z"/><path fill="#3e4347" d="M51.967 41.2l-.418-2.672a1 1 0 1 0-1.182 0l-.418 2.672h2.02"/><circle fill="#b78300" cx="50.958" cy="33.02" r="2.873"/><path fill="#ffd664" d="M53.83 32.511a2.873 2.873 0 1 1-2.87-2.875 2.872 2.872 0 0 1 2.87 2.875"/></svg>