<svg xmlns="http://www.w3.org/2000/svg" viewBox="0 0 64 64"><path fill="#e8e8e8" d="M36.05 21.07L50.899 2H61.16L49.658 21.07z"/><path fill="#b2c1c0" d="M48.31 5.329s3.038 1.845 6.427 1.672c3.412-.173 6.426-5 6.426-5l-5.494 9.108L48.31 5.33"/><path fill="#e8e8e8" d="M57.792 37.335L23.236 9.803C39.5-11.71 74.059 15.822 57.792 37.335z"/><path fill="#b2c1c0" d="M27.725 5.336c-3.109 0-7.555 3.554-7.555 3.554l38.24 30.521s3.472-4.224 2.613-8.793c-.361-1.922-1.594-4.547-3.264-7.08-1.68-2.539-3.797-4.97-6.184-7.182a48.57 48.57 0 0 0-7.794-5.871c-2.743-1.661-5.571-2.986-8.313-3.879-2.729-.887-5.365-1.344-7.743-1.274"/><path fill="#62727a" d="M26.461 6.734c-2.529.074-5.276.768-6.951 2.86-1.792 2.237-1.72 5.334-.977 7.979 1.632 5.804 6 10.739 10.42 14.532 4.773 4.101 10.433 7.466 16.489 9.08 4.626 1.229 12.212 1.836 14.245-3.939 1.319-3.747-.439-7.999-2.34-11.188-2.145-3.6-5.01-6.733-8.156-9.432-3.279-2.813-6.932-5.203-10.83-7-3.705-1.707-7.8-3.01-11.9-2.888"/><path fill="#b2c1c0" d="M27.922 8.807c-2.506.07-5.258.855-6.627 3.198-1.406 2.404-.863 5.446.11 7.901 2.228 5.628 6.889 10.241 11.662 13.658 4.953 3.545 11.225 6.712 17.416 6.417 2.487-.119 5.166-.998 6.438-3.373 1.346-2.512.681-5.615-.373-8.102-2.33-5.506-6.903-10.01-11.643-13.374-4.86-3.446-10.936-6.494-16.983-6.325"/><g fill="#3e4347"><path d="M44.847 33.481c-1.208-.018-.926 1.188-.394 1.861.635.803 1.712 1.537 2.75 1.56 1.209.027.951-1.167.414-1.849-.637-.812-1.723-1.556-2.77-1.572M36.36 23.532c-1.371.005-.992 1.413-.405 2.156.712.902 1.927 1.748 3.096 1.752 1.379.008 1.017-1.396.424-2.15-.713-.909-1.938-1.763-3.115-1.758M29.52 11.122c-1.535.034-1.037 1.67-.398 2.479.788 1 2.137 1.957 3.438 1.938 1.543-.022 1.069-1.646.423-2.469-.79-1.01-2.153-1.978-3.463-1.948M25.607 18.933c-1.233.017-.8 1.325-.294 1.959.637.797 1.715 1.568 2.758 1.563 1.232-.006.813-1.313.307-1.951-.636-.8-1.725-1.583-2.771-1.571M33.23 29.487c-.921-.004-.627.949-.245 1.429.481.602 1.284 1.165 2.065 1.173 1.026.012.561-1.088.148-1.549-.481-.538-1.232-1.049-1.968-1.053M41.1 17.288c-1.679.021-1.263 1.742-.533 2.677.867 1.112 2.357 2.142 3.793 2.134 1.68-.007 1.281-1.724.553-2.665-.868-1.119-2.373-2.163-3.813-2.146M49.885 27.895c-1.512-.007-1.198 1.495-.524 2.356.79 1.012 2.136 1.921 3.435 1.938 1.508.02 1.219-1.475.545-2.342-.791-1.018-2.15-1.947-3.456-1.952"/></g><g fill="#8ad8ff"><path d="M30.03 11.535L2.04 28.81v1l28.664-17.6zM26.442 19.13L2.04 39.685v1l24.882-20.846zM27.17 19.929L2.04 44.33v1l25.655-24.845zM28.01 20.851L2.04 48.081v1.01l26.455-27.743zM31.27 12.553L2.04 32.363v1.034l29.898-20.07z"/><path d="M32.31 13.626L2.04 35.982v1.258l30.88-22.822zM41.18 17.902L2.04 51.182v1.39l39.954-34.02zM36.485 23.616L2.04 56.06v1.4l35.14-33.13zM42.638 18.933L7.839 62h1.288L43.41 19.563z"/><path d="M37.32 24.363L1.961 62h1.288L38.1 24.993zM38.697 25.73L13 62h1.29l25.184-35.64zM43.973 19.929l-26.2 42.07h1.141l25.867-41.41zM49.932 28.312L30.14 62h1.07l19.577-33.2zM44.73 33.748l-22.895 28.25h1.068l22.683-27.77z"/><path d="M45.813 34.436L26.08 62h1.07l19.519-27.077zM46.994 35.19L34.11 62h1.07l12.67-26.32zM51.34 29.27L37.38 62h1.01l13.84-32.29zM52.52 30.17L40.888 62h1l11.579-31.33z"/></g></svg>