<svg xmlns="http://www.w3.org/2000/svg" viewBox="0 0 64 64"><path fill="#ffdd67" d="M33.1 19.424h2.403v8.836H29.33z"/><path fill="#eba352" d="M33.08 19.232c0 3.968-.851 5.979-3.72 5.979l-.033 3.05c3.391 0 4.78-4.206 4.78-8.837l-1.027-.192"/><path fill="#ffdd67" d="M35.17 5.63L21.68 9.854c-1.559 2.828-.496 4.325-.551 5.545-.025.542-1.133 1.534-1.721 2.053-1.31 1.158.885 2.093 1.705 1.923.519 1.216-.323 1.548 1.688 1.37 1.108-.098 2.604-1.115 2.604-1.115-4.88 3.053-3.618 4.308-1.606 3.781 0 2.573 1.606 2.573 5.127 2.573 2.869 0 5.184-2.592 5.184-6.56l3.847-.667-2.787-13.13"/><path fill="#ffbc00" d="M30.06 2c9.955 0 11.255 8.409 9.875 14.239-.736 3.104-2.387 5.08-4.316 5.928l-.973-.625-.534-2.118s1.946-.453 2.522-2.663c.262-1.01-.756-2.939-2.254-3.02-1.043-.059-2.548.714-2.867.951 0-2.568.524-5.227-1.234-5.99-1.447-.628-7.662 2.167-8.598 1.154-2.515-2.709 2.383-7.855 8.379-7.855"/><g fill="#664e27"><path d="M33.845 16.246a1.012 1.012 0 0 0-.529.07c.084-.182.188-.357.306-.535.146-.219.319-.422.488-.664a1.998 1.998 0 0 0-1.312 1.122c-.249.578-.149 1.237.159 1.72.046-.293.05-.564.095-.816.031-.16.068-.313.115-.461.075.004.146.004.215.012.143.016.269.018.393.041.127.012.251.047.395.068.141.025.284.072.475.096-.103-.342-.431-.596-.8-.653"/><ellipse cx="23.325" cy="14.958" rx="1.071" ry="1.489"/><path d="M25.405 19.63s-1.593 2.282-1.997 2.602c-.859.683-1.153.234-.731-.34.433-.591 2.728-2.262 2.728-2.262"/></g><g fill="#d3976e"><path d="M23.714 59.13c-1.636.001-3.114 1.288-3.117 2.873l7.04-.008c.814 0 1.66-.645 1.662-1.438v-1.433l-5.582.006M39.509 57.25c-1.242 1.038-1.508 2.954-.452 4.159l5.338-4.467c.62-.518.834-1.545.306-2.147l-.957-1.089-4.235 3.544"/></g><path fill="#3b946f" d="M33.18 28.451l3.628 11.02 3.222-.187-4.189-12.882z"/><path fill="#ffdd67" d="M38.36 38.638l-1.521.303a.986.986 0 0 0-.783 1.158l.146.717a.99.99 0 0 0 .729.76c.265.942.875 2.126 2.69 1.762.301-.061 1.963-.391 1.57-2.314-.579-2.836-.579-2.836-2.831-2.386"/><path fill="#eba352" d="M37.36 41.651c1.293-.318.832-1.664.666-2.592-.028-.158-.27-.092-.242.065.14.776.606 2.02-.491 2.286-.156.038-.091.28.067.241"/><path fill="#47b892" d="M36.849 41.06H26.738s-.099-8.981.904-12.518c.936-3.293 8.199-2.144 8.199-2.144l1.01 14.662"/><path fill="#3e4347" d="M36.81 48.42l.041-7.36H26.738l-2.478 8.22-.546 9.95 5.586-.11.91-8.67.83-1.846.28 2.876 8.613 5.75 3.81-3.52z"/><path fill="#3b946f" d="M33.938 29.828c.171-.927-.467-1.813-1.423-1.976-.956-.167-1.871.454-2.039 1.38l-.96 5.43-4.907 3.41 2.054 2.786 5.53-3.844c.299-.208.506-.495.618-.813h.002l.004-.024c.051-.152.077-.311.083-.473l1.038-5.876"/><path fill="#ffdd67" d="M26.414 39.4l-.871-1.45a1.131 1.131 0 0 0-1.518-.395l-.713.402a1.062 1.062 0 0 0-.543 1.016c-.913.603-1.957 1.645-.915 3.376.172.287 1.122 1.872 3.034.79 2.815-1.592 2.815-1.592 1.526-3.739"/></svg>