<svg xmlns="http://www.w3.org/2000/svg" viewBox="0 0 64 64"><circle fill="#ed4c5c" cx="32" cy="32" r="30"/><circle fill="#333" cx="32" cy="32" r="24"/><path fill="#fff" d="M51.998 32.823a7.386 7.386 0 0 0-1.595-2.364 7.396 7.396 0 0 0-5.258-2.18 7.388 7.388 0 0 0-3.68.973l-2.533-3.467.873-2.21c.845-.471 1.906-1.141 2.221-1.699.549-.971-1.363-.421-5.533-.421 0 0-2.242-.222-1.219.802.646.646 1.828 1.235 2.611 1.582l-.426 1.078H26.585a2.25 2.25 0 0 0 .023-.186c.123-1.176-.385-2.159-1.143-3.307-.063-.095-.121-.179-.172-.259a.42.42 0 0 1 .361-.64h3.354l1.055-1.689H24.75l-.037.004c-.516.046-1.217.343-1.486 1.021-.154.389-.143.823.036 1.291.159.417.451.865.894 1.366 1.322 1.504.708 2.691.059 3.948-.061.116-.121.236-.182.353-.186.374-.793 1.286-1.564 2.398a7.39 7.39 0 0 0-3.617-.938 7.396 7.396 0 0 0-5.259 2.18 7.435 7.435 0 0 0-1.593 2.364c-.389.918-.584 1.894-.584 2.897s.195 1.978.584 2.896c.375.886.91 1.682 1.593 2.365a7.406 7.406 0 0 0 5.259 2.18 7.398 7.398 0 0 0 5.258-2.18 7.395 7.395 0 0 0 1.593-2.365c.389-.919.584-1.893.584-2.896s-.195-1.979-.584-2.897a7.38 7.38 0 0 0-1.862-2.62c.264-.379.51-.742.73-1.073l7.04 7.159c-.098.244-.15.51-.15.788 0 1.103.844 2.01 1.919 2.103l.37 2.289h-.666v.844h2.321v-.844h-.802l-.385-2.383a2.116 2.116 0 0 0 1.369-1.395l2.32-.272a7.406 7.406 0 0 0 1.984 3.563 7.385 7.385 0 0 0 2.362 1.594 7.38 7.38 0 0 0 2.895.586c1 0 1.979-.197 2.896-.586a7.353 7.353 0 0 0 2.362-1.594 7.401 7.401 0 0 0 2.18-5.261 7.41 7.41 0 0 0-.584-2.898m-27.395 2.898a5.759 5.759 0 0 1-5.75 5.753 5.758 5.758 0 0 1-5.749-5.753 5.757 5.757 0 0 1 5.749-5.753c.953 0 1.85.233 2.643.645a388.02 388.02 0 0 1-3.319 4.603c-.002.003-.004.004-.004.006a.843.843 0 0 0 1.361 1c.297-.405 1.86-2.541 3.33-4.618a5.735 5.735 0 0 1 1.739 4.117m.942-8.146l.169-.333c.104-.199.213-.41.32-.636h10.76l-3.259 8.251-.485-3.02h.664v-.844h-2.32v.844h.801l.508 3.152-7.203-7.331c.017-.03.031-.059.045-.087m9.844 8.439a2.089 2.089 0 0 0-.327-.426l3.139-7.944 1.904 2.606a7.424 7.424 0 0 0-1.811 2.573 7.387 7.387 0 0 0-.584 2.897v.021l-2.321.273m5.72-4.387l2.501 3.422-4.209.494a5.745 5.745 0 0 1 1.708-3.916m4.04 9.847a5.758 5.758 0 0 1-5.549-4.254l7.084-.829-4.209-5.762a5.71 5.71 0 0 1 2.674-.661 5.756 5.756 0 0 1 5.749 5.753 5.758 5.758 0 0 1-5.749 5.753"/><path fill="#ed4c5c" d="M50.515 54.754L9.242 13.48l4.242-4.242 41.273 41.274z"/></svg>