<svg xmlns="http://www.w3.org/2000/svg" viewBox="0 0 64 64"><circle fill="#ed4c5c" cx="32" cy="32" r="30"/><circle fill="#333" cx="32" cy="32" r="24"/><g fill="#fff"><path d="M41.969 47.21l-3.881-9.293c-.281-.762-.543-3.213-.543-3.213a4.205 4.205 0 0 0-.137-.766l-2.289-8.8 2.967 1.515v2.787c0 .881.699 1.592 1.564 1.592.863 0 1.564-.711 1.564-1.592v-4.756l-8.361-4.262-.008-.003a4.072 4.072 0 0 0-4.838 1.017L28 21.428l-4.02 4.099h-5.02c-.863 0-1.563.712-1.563 1.594 0 .883.7 1.594 1.563 1.594h6.318l2.271-2.313 1.45 6.734-4.148 4.229v10.5c0 .883.701 1.596 1.564 1.596.865 0 1.564-.713 1.564-1.596v-9.18l3.311-3.371a1.535 1.535 0 0 1 1.092-.455c.635 0 1.183.387 1.426.941l5.289 12.658c.23.59.793 1 1.45 1 .864 0 1.565-.713 1.565-1.596a1.628 1.628 0 0 0-.139-.654"/><circle cx="29.749" cy="15.694" r="2.931"/></g><path fill="#ed4c5c" d="M50.515 54.754L9.242 13.48l4.242-4.242 41.273 41.274z"/></svg>