<svg xmlns="http://www.w3.org/2000/svg" viewBox="0 0 64 64"><path fill="#ffce31" d="M34.121.893a2.966 2.966 0 0 0-4.242 0L2.121 29.201C.955 30.391 0 32.741 0 34.425V60.94C0 62.622 1.35 64 3 64h58c1.65 0 3-1.378 3-3.06V34.425c0-1.684-.955-4.034-2.121-5.224L34.121.893z"/><path fill="none" stroke="#000" stroke-width="3" stroke-linecap="round" stroke-linejoin="round" stroke-miterlimit="10" d="M33.799 7.162a2.534 2.534 0 0 0-3.596 0L6.684 30.892c-.988.996-1.799 2.967-1.799 4.378V57.5c0 1.41 1.145 2.564 2.543 2.564h49.15c1.396 0 2.541-1.154 2.541-2.564V35.27c0-1.411-.809-3.382-1.797-4.378L33.803 7.162z"/><g fill-rule="evenodd"><path d="M41.519 23.58a4.777 4.777 0 1 1-9.556 0 4.779 4.779 0 1 1 9.556 0M29.01 27.46a3.88 3.88 0 1 1-7.759.001 3.88 3.88 0 0 1 7.759-.001"/></g><g stroke="#000" stroke-linejoin="round" stroke-linecap="round" stroke-miterlimit="10"><g stroke-width="2"><path d="M23.09 39.23l-3.1 6.18 9.563-.09-2.513-6.09 1.07-6.377h-5.95zM34.895 30.727l.602 10.333h5.513l.747-11.95z"/><g fill="none"><path d="M21.95 32.853l-2.267 4.068-4.03 2.983M34.795 31.06l-2.755 5.689-1.506.692M41.757 29.11l3.061 4.21-2.478 4.9"/><path d="M28.393 33.26l2.322 3.651-1.313 3.871"/></g></g><g fill="none"><g stroke-width="3"><path d="M37.416 38.71l-3.576 7.117.549 8.805M40.33 38.03l-.447 7.884 4.951 7.98"/></g><g stroke-width="2"><path d="M22.582 43.829l-2.02 4.191-.301 6.3M26.16 44.31l.363 3.03 3.677 6.554"/></g></g></g><path d="M27.45 39.579l4.984 1.411-.774 2.735-4.984-1.411zM41.087 37.44l5.935 2.357-1.538 3.87-5.934-2.36z"/></svg>