<svg xmlns="http://www.w3.org/2000/svg" viewBox="0 0 64 64"><path fill="#9e958f" d="M58.25 35.837c0 8.02-6.497 14.513-14.513 14.513V35.837H58.25"/><path fill="#e2d8c7" d="M59.27 3.328h-9.775c-.842 0-1.525.749-1.525 1.305v29.938c0 .557.684 1.604 1.525 1.604h9.775c.843 0 1.525-1.047 1.525-1.604V4.633c0-.556-.683-1.305-1.525-1.305"/><g fill="#c6bbb3"><path d="M60.31.001H48.451c-1.022 0-1.85.908-1.85 1.583v1.922c0 .674.827 1.945 1.85 1.945H60.31c1.022 0 1.849-1.271 1.849-1.945V1.583C62.158.909 61.332.001 60.31.001M43.957 51.985c0-2.492.648-4.836 1.787-6.879h-35.27a14.08 14.08 0 0 1 1.787 6.879c0 4.686-2.29 7.903-5.831 10.523h43.35c-3.541-2.619-5.83-5.837-5.83-10.523"/></g><g fill="#e2d8c7"><path d="M50.99 62.51c0 .826-.683 1.494-1.525 1.494H6.758c-.842 0-1.525-.668-1.525-1.494s.683-1.495 1.525-1.495h42.707c.843 0 1.525.669 1.525 1.495M28.11 53.808c12.635 0 22.878-8.05 22.878-17.972H5.231c0 9.927 10.243 17.972 22.879 17.972"/></g><path fill="#c6bbb3" d="M48.685 35.09c0 1.014-.683 1.834-1.526 1.834H3.368c-.842 0-1.525-.82-1.525-1.834 0-1.014.683-1.834 1.525-1.834h43.791c.843 0 1.526.82 1.526 1.834"/><path fill="#42ade2" d="M48.685 31.421c0 1.014-.683 1.835-1.526 1.835H3.368c-.842 0-1.525-.822-1.525-1.835 0-1.014.683-1.834 1.525-1.834h43.791c.843 0 1.526.821 1.526 1.834"/><g fill="#636a6b"><circle cx="47.967" cy="33.537" r="2.965"/><path d="M57.951 7.351a3.571 3.571 0 0 1-7.142 0h7.142"/></g></svg>