<svg xmlns="http://www.w3.org/2000/svg" viewBox="0 0 64 64"><path fill="#aec470" d="M64 64v-7.5S36.5 49.107 0 13.92V64h64z"/><path fill="#95a55b" d="M64 64v-3.5S36.666 67.25 0 36.92V64h64z"/><path fill="#b47d56" d="M38.05 16.287l2.07.014-.01 7.588-5.309-.035z"/><path fill="#f9c19b" d="M38.03 16.13c-.004 3.406-.738 5.127-3.205 5.109l-.029 2.619c2.914.018 4.111-3.584 4.115-7.561l-.881-.167"/><path fill="#b47d56" d="M39.842 4.459L28.238 8.008c-1.34 2.418-.43 3.709-.477 4.758-.023.465-.977 1.311-1.48 1.752-1.129.986.758 1.801 1.463 1.66.445 1.045-.279 1.328 1.451 1.186.951-.078 2.236-.941 2.236-.941-4.197 2.592-3.111 3.676-1.383 3.234-.002 2.211 1.379 2.219 4.404 2.24 2.469.016 4.459-2.197 4.463-5.604l3.309-.551-2.382-11.283"/><path fill="#231f20" d="M35.447 1.314c8.559.057 9.672 7.281 8.479 12.279-.635 2.66-2.057 4.346-3.717 5.063l-.834-.541-.459-1.822s1.676-.377 2.17-2.27c.229-.867-.645-2.527-1.932-2.607-.9-.055-2.191.6-2.467.799.002-2.205.455-4.482-1.057-5.148-1.244-.547-6.588 1.816-7.393.941-2.159-2.338 2.058-6.729 7.21-6.694"/><g fill="#47352d"><path d="M38.693 13.564a.898.898 0 0 0-.457.057c.074-.154.162-.305.264-.457.125-.186.275-.359.42-.566-.48.125-.914.471-1.129.957a1.6 1.6 0 0 0 .135 1.475c.041-.25.047-.482.084-.697.027-.139.061-.27.1-.396.064.004.125.006.184.012.123.016.23.018.338.037.109.012.215.041.338.063s.246.063.408.084c-.089-.299-.368-.518-.685-.569M30.57 12.404c0 .705-.412 1.275-.922 1.271-.508-.002-.918-.578-.918-1.283s.414-1.275.922-1.271.92.578.918 1.283M31.432 16.422s-1.369 1.949-1.717 2.223c-.74.58-.992.193-.629-.297.373-.506 2.346-1.926 2.346-1.926"/></g><g fill="#3e4347"><path d="M38.732 18.564l-1.372.139-2.13-9.03 1.375-.139z"/><path d="M38.41 18.82l-1.19-.66 4.389-5 1.192.66z"/><path d="M37.256 17.138l1.81.307-.846 4.996-1.81-.307z"/></g><path fill="#f15744" d="M45.06 14.943c-.738 1.693-5.729-2.961-9.104-4.436-3.705-1.615-9.998-2.268-9.398-3.643 2.18-4.992 8.09-7.232 13.199-5 5.11 2.234 7.485 8.089 5.303 13.08"/><g fill="#3b946f"><path d="M35.25 22.713c-.688-.4-1.572-.186-1.977.479l-2.756 4.576 2.488 1.447 2.756-4.574c.407-.664.177-1.528-.511-1.928"/><path d="M33.1 28.846c.094-.766-.473-1.447-1.264-1.545l-5.57-.703-.344 2.781 5.566.705c.795.098 1.52-.469 1.612-1.238"/></g><path fill="#935e3e" d="M26.455 28.1l.299-1.338a.897.897 0 0 0-.697-1.061l-.668-.148a.914.914 0 0 0-.91.313c-.904-.137-2.135-.08-2.49 1.523-.059.264-.387 1.729 1.395 2.121 2.626.578 2.626.578 3.071-1.41"/><path fill="#d3976e" d="M30.547 45.05c-1.43-.398-2.904.4-3.293 1.783l6.15 1.715c.715.197 1.451-.201 1.646-.895l.352-1.252-4.855-1.351"/><g fill="#3e4347"><path d="M35.402 46.4l-4.884-1.36 2.396-8.552 4.887 1.364z"/><path d="M37.25 39.805l-4.336-3.317 6.748-4.178 5.197 3.05z"/></g><g fill="#333"><path d="M12.652 50.887a10.939 10.939 0 0 1-3.67-2.223 10.83 10.83 0 0 1-2.453-3.309A10.495 10.495 0 0 1 5.506 41.4c-.086-1.42.121-2.822.609-4.166a10.328 10.328 0 0 1 2.211-3.584c.941-1 2.063-1.797 3.326-2.371a10.938 10.938 0 0 1 8.25-.303c1.371.5 2.605 1.248 3.67 2.225a10.742 10.742 0 0 1 2.453 3.309c.6 1.252.945 2.584 1.025 3.955a10.316 10.316 0 0 1-.611 4.166 10.323 10.323 0 0 1-2.209 3.584c-.943.998-2.063 1.797-3.328 2.371s-2.613.896-4.01.957a10.94 10.94 0 0 1-4.24-.656m6.619-18.19c-4.633-1.688-9.746.635-11.398 5.172-1.652 4.541.773 9.605 5.406 11.291s9.746-.635 11.398-5.174-.773-9.603-5.406-11.289M44.1 62.33a10.934 10.934 0 0 1-3.67-2.221 10.854 10.854 0 0 1-2.453-3.309 10.495 10.495 0 0 1-.414-8.121 10.28 10.28 0 0 1 2.211-3.584c.941-1 2.063-1.797 3.328-2.371a10.8 10.8 0 0 1 4-.959 10.92 10.92 0 0 1 4.24.656c1.373.5 2.607 1.248 3.67 2.223 1.029.943 1.854 2.055 2.453 3.309s.945 2.586 1.025 3.957c.084 1.42-.121 2.82-.611 4.164a10.305 10.305 0 0 1-2.209 3.584c-.943 1-2.063 1.799-3.328 2.373s-2.613.895-4.01.957a10.925 10.925 0 0 1-4.24-.658m6.619-18.19c-4.633-1.686-9.746.635-11.398 5.174s.773 9.604 5.406 11.289c4.633 1.688 9.746-.633 11.398-5.172s-.773-9.603-5.406-11.291"/></g><path fill="#ed4c5c" d="M44.826 37.37l3.471-3.836-1.027-.904-3.361 3.715-19.277-7.02-1.158-2.641-1.256.52 1.395 3.182 2.936 1.07-.848 2.455 7.738 16.04 10.15-11.217 3.457 13.697 1.361-.113-3.581-14.953m-11.05 10.166l-7.02-14.572.986-1.07 15.189 5.529-9.152 10.113"/><ellipse transform="scale(-1) rotate(19.991 297.172 -270.774)" fill="#333" cx="47.726" cy="52.38" rx="2.163" ry="2.119"/><g fill="#94989b"><path d="M27.137 46.33l3.48 1.268-.395 1.085-3.48-1.268zM36.789 51.42l3.482 1.267-.395 1.085-3.482-1.267z"/></g><path fill="#b3b3b3" d="M30.336 47.811l-.196.529 3.264 1.71.192-.53z"/><ellipse transform="rotate(19.993 33.33 50.253)" fill="#333" cx="33.33" cy="50.25" rx="3.036" ry="2.975"/><g fill="#b3b3b3"><ellipse transform="rotate(19.948 33.332 50.264)" cx="33.33" cy="50.25" rx=".758" ry=".743"/><path d="M33.23 50.52l3.264 1.71.192-.531-3.26-1.711z"/></g><path fill="#d3976e" d="M37.27 49.928c-1.48-.057-2.719 1.063-2.764 2.502l6.369.25c.738.027 1.357-.531 1.379-1.254l.043-1.301-5.03-.197"/><g fill="#3e4347"><path d="M42.3 50.13l-4.523-.183.413-10.867 5.06.19z"/><path d="M43.08 41.28l-4.89-2.2 6.669-6.04 3.461 3.616z"/></g><path fill="#47b892" d="M50.988 32.07l-11.326.242-5.334-9.82s3.293-2.029 4.502-1.83c8.58 1.422 12.158 11.408 12.158 11.408"/><path fill="#3e4347" d="M48.32 36.656l-8.986-2.729.324-1.615 11.262-.582c.715 2.809-2.6 4.926-2.6 4.926"/><g fill="#47b892"><path d="M35.502 22.461c-.734-.301-1.578.035-1.881.75l-2.066 4.922 2.668 1.088 2.063-4.922c.306-.715-.046-1.537-.784-1.838"/><path d="M34.26 28.842c-.018-.773-.674-1.369-1.471-1.355l-5.604.078.059 2.807 5.604-.076a1.437 1.437 0 0 0 1.412-1.454"/></g><path fill="#b47d56" d="M27.59 29.03l.104-1.369a.903.903 0 0 0-.842-.953l-.68-.055a.914.914 0 0 0-.857.436c-.91-.008-2.119.221-2.24 1.859-.021.27-.133 1.768 1.684 1.908 2.679.208 2.679.208 2.831-1.826"/><path fill="#ed4c5c" d="M16.449 41.715l-.943-1.102 11.734-9.902.95 1.105z"/><ellipse transform="scale(-1) rotate(19.955 232.658 -92.512)" fill="#333" cx="16.276" cy="40.932" rx="1.082" ry="1.061"/></svg>