<svg xmlns="http://www.w3.org/2000/svg" viewBox="0 0 64 64"><g fill="#62727a"><path d="M27.5 50.999c0-2.98 2.285-5.5 4.99-5.5.189 0 .381.012.563.037l19.01 1.988c2.023.264 3.436 1.693 3.436 3.475 0 1.783-1.412 3.211-3.447 3.477l-18.987 1.986a4.498 4.498 0 0 1-.575.037c-2.707 0-4.992-2.518-4.992-5.5m1 0c0 2.4 1.865 4.506 3.99 4.506.146 0 .295-.008.457-.029l18.988-1.986c1.276-.166 2.564-1 2.564-2.49s-1.288-2.322-2.553-2.488l-19.01-1.988a3.343 3.343 0 0 0-.444-.029c-2.124-.002-3.989 2.104-3.989 4.504"/><path d="M40 50.999c0-6.617 5.383-12 12-12s12 5.383 12 12-5.383 12-12 12-12-5.383-12-12m2 0c0 5.514 4.486 10 10 10s10-4.486 10-10-4.486-10-10-10-10 4.486-10 10M0 50.999c0-6.617 5.383-12 12-12s12 5.383 12 12-5.383 12-12 12-12-5.383-12-12m2 0c0 5.514 4.486 10 10 10s10-4.486 10-10-4.486-10-10-10-10 4.486-10 10"/></g><g fill="#42ade2"><path d="M42 50.999c0-5.514 4.486-10 10-10s10 4.486 10 10-4.486 10-10 10-10-4.486-10-10m2 0c0 4.412 3.589 8 8 8s8-3.588 8-8c0-4.41-3.589-8-8-8s-8 3.59-8 8M2 50.999c0-5.514 4.486-10 10-10s10 4.486 10 10-4.486 10-10 10-10-4.486-10-10m2 0c0 4.412 3.589 8 8 8s8-3.588 8-8c0-4.41-3.589-8-8-8s-8 3.59-8 8"/></g><g fill="#ff9d27"><path d="M61.28 41.712c-8.336-7.966-21.945-2.311-22.278 9.309-.037 1.305-2.036 1.307-1.999 0 .385-13.396 16.08-19.925 25.691-10.74.94.898-.476 2.325-1.414 1.431M2.723 41.712c8.336-7.966 21.945-2.311 22.278 9.309.037 1.305 2.036 1.307 1.999 0-.385-13.397-16.08-19.926-25.691-10.741-.94.899.476 2.326 1.414 1.432"/></g><path fill="#42ade2" d="M50.996 50.04c-.74-5.83-4.22-10.68-9.482-13.201-1.161-.557-.148-2.288 1.01-1.735 5.946 2.849 9.643 8.419 10.469 14.937.162 1.282-1.835 1.265-1.995-.001"/><path fill="#b2c1c0" d="M15.495 22.14c2.214-1.538 5.22-1.965 7.838-2.01 1.29-.023 1.288 1.977 0 2-1.864.033-3.938.284-5.691 1.103l2.065 2.065c.234.234.379.647.258.973l-1.5 4c-.449 1.196-2.383.679-1.93-.531l1.306-3.479-2.548-2.548c-.482-.483-.32-1.207.202-1.571"/><g fill="#42ade2"><path d="M42.952 33.319l-6 18-1.897-.633 6-18z"/><path d="M12.64 51.769c4.757-3.959 3.472-11.211 3.132-12.762l2.439-7.919c3.035.418 14.13 2.592 19.582 12.398l1.748-.971c-6.852-12.333-21.357-13.47-21.973-13.513l-.791-.054-3.08 9.999.069.273c.019.074 1.848 7.471-2.406 11.01l1.28 1.537"/></g><g fill="#62727a"><path d="M28 20.13h-4.5v2H28c.275 0 .5-.225.5-.5v-1a.5.5 0 0 0-.5-.5"/><circle cx="12" cy="50.999" r="1"/></g><path fill="#42ade2" d="M16.498 31.13c2.836 1.421 4.988 4.01 6.813 6.802 2.881 4.412 5.099 11.188 11.27 11.906l17.451.025c1.292 0 1.292 1.986 0 1.986-5.736 0-12.03-.012-17.303-.012-10.141 0-10.96-14.307-18.23-18.585V31.13"/><circle fill="#62727a" cx="52" cy="50.999" r="2"/><path fill="#b2c1c0" d="M44.952 27.316l-2 6-1.897-.632 2-6z"/><g fill="#62727a"><path d="M40.637 26.08c3.799 0 3.793-2.082 7.096-2.082.789 0 1.974 1 2.229 1.804.254.798-.774 2.436-1.289 3.093-.666.852-1.668 1.431-2.592.899-1.314-.756-2.572-1.682-6.068-.035-.789.371-2.065-.576-2.01-2.901.017-.707.999-.778 2.634-.778M35.99 51.769h2.551c.549 0 1 .449 1 1s-.451 1-1 1H35.99c-.549 0-1-.449-1-1s.451-1 1-1"/></g><circle fill="#b2c1c0" cx="33" cy="50.999" r="4"/><path fill="#e8e8e8" d="M32.734 51.964l-5-2c-1.182-.473-.667-2.408.531-1.928 1.666.666 3.333 1.332 5 2 1.182.473.667 2.406-.531 1.928"/><g fill="#62727a"><path d="M26.791 47.96h2.549c.551 0 1 .449 1 1s-.449 1-1 1h-2.549c-.551 0-1-.449-1-1s.449-1 1-1M24.5 22.531c0 .275-.225.5-.5.5a.501.501 0 0 1-.5-.5v-3c0-.275.225-.5.5-.5s.5.225.5.5v3"/></g></svg>