<svg xmlns="http://www.w3.org/2000/svg" viewBox="0 0 64 64"><circle fill="#ed4c5c" cx="32" cy="32" r="30"/><circle fill="#333" cx="32" cy="32" r="24"/><g fill="#fff"><path d="M35.28 26.05v-.779h-5.782v.779c0 .43-.348.777-.779.777h-3.773a3.187 3.187 0 0 0-3.192 3.182v3.802h4.335v-1.332c0-.735.599-1.331 1.337-1.331h.486c.181 0 .389.177.471.326l.002.001a4.594 4.594 0 0 0 4.01 2.336c1.727 0 3.23-.95 4.02-2.354.087-.146.285-.31.462-.31h3.671v-4.32h-4.481a.78.78 0 0 1-.781-.777M26.577 19.304c.126 0 1.113-.016 1.229-.045.48-.034.996-.077 3.372-.09.102.132.221.251.352.355v1.668h-.777a.768.768 0 0 0-.778.759.77.77 0 0 0 .778.759h4.203a.769.769 0 0 0 .777-.759.769.769 0 0 0-.777-.759h-.776v-1.668c.131-.104.248-.223.351-.355 2.375.013 2.89.056 3.37.09.118.03 1.104.045 1.231.045.777 0 1.407-.615 1.407-1.374 0-.76-.63-1.375-1.407-1.375-.127 0-1.113.016-1.231.047-.48.034-.995.076-3.37.089a2.115 2.115 0 0 0-1.675-.814c-.686 0-1.292.32-1.677.814-2.376-.013-2.892-.055-3.372-.089-.116-.031-1.104-.047-1.229-.047-.777 0-1.409.614-1.409 1.375-.001.759.631 1.374 1.408 1.374M42.25 25.27h1.708v6.832H42.25zM21.18 46.621h6.263l1.14-10.248h-8.54l1.137 10.248m6.278-6.57h-6.291l-.33-2.971h6.951l-.33 2.971"/></g><path fill="#ed4c5c" d="M50.515 54.754L9.242 13.48l4.242-4.242 41.273 41.274z"/></svg>