<svg xmlns="http://www.w3.org/2000/svg" viewBox="0 0 64 64"><path fill="#d6a57c" d="M33.1 19.416h2.387v8.844h-6.143z"/><path fill="#b58360" d="M33.08 19.225c0 3.971-.848 5.982-3.702 5.982l-.033 3.052c3.376 0 4.757-4.208 4.757-8.843l-1.022-.191"/><path fill="#d6a57c" d="M35.16 5.613L21.733 9.84c-1.551 2.83-.494 4.328-.549 5.549-.025.543-1.127 1.535-1.713 2.055-1.303 1.158.881 2.094 1.697 1.924.516 1.217-.322 1.549 1.68 1.371 1.104-.098 2.592-1.115 2.592-1.115-4.857 3.055-3.6 4.311-1.598 3.783 0 2.574 1.598 2.574 5.102 2.574 2.856 0 5.159-2.594 5.159-6.564l3.828-.668-2.771-13.14"/><path fill="#594640" d="M30.07 1.98c9.907 0 11.202 8.414 9.827 14.248-.732 3.105-2.375 5.083-4.295 5.932l-.969-.625-.531-2.119s1.938-.453 2.51-2.664c.264-1.012-.752-2.941-2.24-3.02-1.041-.059-2.537.715-2.855.951 0-2.57.521-5.23-1.228-5.994-1.441-.629-7.627 2.168-8.557 1.154-2.503-2.709 2.372-7.86 8.338-7.86"/><g fill="#664e27"><path d="M33.839 16.236a1.013 1.013 0 0 0-.529.07 4.13 4.13 0 0 1 .305-.535c.145-.219.318-.422.486-.664a2 2 0 0 0-1.307 1.123c-.246.578-.148 1.238.158 1.721.049-.293.053-.564.096-.816.031-.16.07-.313.115-.461.074.004.146.004.213.012.143.016.268.018.393.041.125.012.248.047.391.068.141.025.283.072.473.096-.103-.344-.427-.598-.794-.655"/><ellipse cx="23.368" cy="14.947" rx="1.065" ry="1.49"/><path d="M25.438 19.623s-1.584 2.283-1.986 2.604c-.855.684-1.148.234-.729-.34.431-.592 2.715-2.264 2.715-2.264"/></g><g fill="#d3976e"><path d="M23.756 59.15c-1.629.001-3.1 1.289-3.104 2.875l7-.008c.811 0 1.652-.645 1.654-1.439v-1.434l-5.554.006M39.474 57.27c-1.234 1.039-1.5 2.956-.449 4.162l5.314-4.471c.615-.518.828-1.545.303-2.148l-.951-1.09-4.217 3.547"/></g><path fill="#3b946f" d="M33.17 28.449l3.616 11.02 3.211-.183-4.174-12.894z"/><path fill="#d6a57c" d="M38.33 38.643l-1.514.304a.984.984 0 0 0-.779 1.159l.145.717a.99.99 0 0 0 .727.76c.264.943.871 2.128 2.678 1.764.301-.061 1.955-.391 1.563-2.316-.578-2.838-.578-2.838-2.82-2.388"/><path fill="#b58360" d="M37.34 41.658c1.287-.318.829-1.665.664-2.594-.028-.158-.27-.091-.241.066.138.776.604 2.02-.489 2.287-.157.039-.09.28.066.241"/><path fill="#47b892" d="M36.827 41.07h-10.06s-.098-8.987.9-12.526c.932-3.296 8.159-2.146 8.159-2.146l1 14.672"/><path fill="#3e4347" d="M36.788 48.43l.043-7.36h-10.07l-2.469 8.22-.539 9.96 5.554-.11.91-8.67.83-1.854.28 2.874 8.567 5.76 3.793-3.525z"/><path fill="#3b946f" d="M33.933 29.826c.17-.927-.467-1.813-1.42-1.977-.951-.167-1.86.455-2.028 1.381l-.955 5.435-4.883 3.412 2.043 2.788 5.503-3.846a1.66 1.66 0 0 0 .615-.814h.002l.005-.024c.052-.152.076-.312.083-.473l1.035-5.882"/><path fill="#d6a57c" d="M26.441 39.4l-.867-1.451a1.122 1.122 0 0 0-1.51-.395l-.709.402a1.064 1.064 0 0 0-.541 1.016c-.908.604-1.947 1.646-.91 3.379.17.287 1.117 1.873 3.02.79 2.801-1.592 2.801-1.592 1.517-3.741"/></svg>