<svg xmlns="http://www.w3.org/2000/svg" viewBox="0 0 64 64"><path fill="#666" d="M10.419 34.19H9.218V11.589c0-1.647.792-4.763 3.792-4.763v1.291c-2.561 0-2.591 3.33-2.591 3.472V34.19"/><path fill="#94989b" d="M21.644 6.988c-.499-.474-2.459-1.229-2.459-1.229L17.604.61c-.187-.717-1.942-.816-3.922-.224-1.979.595-3.434 1.658-3.248 2.372l1.655 5.305s-1.301 2.272-1.444 3.119c-.265 1.561.615 6.302.615 6.302l13.958-4.186c0 .001-2.26-5.062-3.574-6.31"/><path fill="#3e4347" d="M12.09 8.06c.25-.635.747-1.151 1.296-1.555.555-.406 1.188-.689 1.834-.911.65-.2 1.328-.351 2.02-.359.679-.005 1.4.109 1.95.521-.595-.328-1.288-.364-1.942-.328a7.84 7.84 0 0 0-1.946.404 7.362 7.362 0 0 0-1.803.832c-.549.363-1.074.806-1.405 1.396"/><path fill="#ffe62e" d="M25.22 13.299c.361 1.397-2.469 3.465-6.323 4.62-3.855 1.157-7.273.961-7.635-.435-.361-1.395 2.47-3.464 6.324-4.619 3.854-1.157 7.271-.961 7.634.434"/><path fill="#fff" d="M22.938 12.14c-1.405-.116-3.305.113-5.331.722-2.136.641-3.956 1.563-5.094 2.493 1.404.118 3.304-.113 5.33-.721 2.137-.642 3.957-1.562 5.095-2.494"/><path fill="#42ade2" d="M59.33 40.687a2 2 0 0 1-2 2H6.67a2 2 0 0 1-2-2v-13.04a2 2 0 0 1 2-2h50.66a2 2 0 0 1 2 2v13.04"/><g fill="#428bc1"><path opacity=".5" d="M59.33 40.687a2 2 0 0 1-2 2H6.67a2 2 0 0 1-2-2v-13.04a2 2 0 0 1 2-2h50.66a2 2 0 0 1 2 2v13.04"/><path d="M45 42.687H4.67V27.296s8.04 9.23 40.33 15.391"/></g><path fill="#42ade2" d="M62.28 30.466c0-1.751-1.321-3.17-2.95-3.17-1.629 0-2.949 1.419-2.949 3.17v12.419c0 1.752 1.32 3.171 2.949 3.171 1.629 0 2.95-1.419 2.95-3.171V30.466"/><path fill="#428bc1" d="M56.38 30.466v12.419c0 1.752 1.32 3.171 2.949 3.171 1.629 0 2.95-1.419 2.95-3.171 0 0-4.425 1.321-5.899-12.419"/><path fill="#3e4347" d="M6.104 59.772h3.933V64H6.104z"/><g fill="#428bc1"><path d="M45 59.772H3.974C1.779 59.772 0 57.86 0 55.501s1.779-4.271 3.974-4.271H45v8.542zM45 51.23H3.97c-2.195 0-3.974-1.912-3.974-4.27 0-2.36 1.779-4.272 3.974-4.272H45v8.542"/></g><path fill="#3e4347" d="M53.964 59.772h3.932V64h-3.932z"/><g fill="#428bc1"><path d="M19 51.23h41.03c2.194 0 3.974 1.912 3.974 4.271s-1.779 4.271-3.974 4.271H19V51.23M19 42.687h41.03c2.194 0 3.974 1.912 3.974 4.271 0 2.36-1.779 4.272-3.974 4.272H19v-8.543"/></g><path fill="#42ade2" d="M7.62 30.466c0-1.751-1.321-3.17-2.95-3.17-1.629 0-2.949 1.419-2.949 3.17v12.419c0 1.752 1.32 3.171 2.949 3.171 1.629 0 2.95-1.419 2.95-3.171V30.466"/><path fill="#428bc1" d="M1.721 30.466v12.419c0 1.752 1.32 3.171 2.949 3.171 1.629 0 2.95-1.419 2.95-3.171 0 0-4.425 1.321-5.899-12.419"/><g fill="#42ade2"><path d="M.313 48.623A4.526 4.526 0 0 1 0 46.959c0-2.36 1.779-4.272 3.974-4.272h41.03S5.844 43.6.317 48.623M.313 57.17A4.528 4.528 0 0 1 0 55.505c0-2.359 1.779-4.271 3.974-4.271h41.03c0-.001-39.16.913-44.687 5.936M63.69 45.29c.202.512.313 1.074.313 1.664 0 2.36-1.779 4.272-3.974 4.272h-41.03s39.16-.913 44.687-5.936M63.69 53.836c.202.512.313 1.074.313 1.665 0 2.359-1.779 4.271-3.974 4.271h-41.03s39.16-.913 44.687-5.936"/></g><path fill="#c7e755" d="M60.37 26.21s-2.941 2.549-3.399 3.765c-1.039 2.755-.342 8.94 0 11.891.057.49.45 1.915.45 1.915s-3.405-.924-4.567-1.057c-2.261-.259-6.83.22-9.09 0-1.024-.1-4.046-.793-4.046-.793s2.601-1.185 3.124-1.981c1.621-2.474 1.862-8.876 2.129-11.89.037-.411 0-1.652 0-1.652s2.209.71 2.971.793c2.248.246 6.784-.151 9.03-.396.856-.094 3.399-.595 3.399-.595"/><path fill="#9db730" d="M47.45 36.36c.402-1.024.967-1.969 1.619-2.832a6.417 6.417 0 0 0-.16-.639 3.483 3.483 0 0 0-.387-.845c-.33-.523-.856-.921-1.444-1.192.628.102 1.277.343 1.806.836.264.241.492.532.683.842.046.073.087.155.131.233a13.367 13.367 0 0 1 2.601-2.263c1.043-.687 2.163-1.246 3.353-1.531-2.042 1.38-3.907 2.913-5.462 4.762a17.742 17.742 0 0 0-2.053 2.999c-.586 1.079-1.051 2.239-1.457 3.469 0-1.305.279-2.621.77-3.839"/></svg>