<svg xmlns="http://www.w3.org/2000/svg" viewBox="0 0 64 64"><circle fill="#0071bc" cx="32" cy="32" r="30"/><g fill="#fff"><path d="M34.26 22.973c0 4.764 9.555 4.764 9.555 0v-4.751H34.26l-3.801 2.851h3.801v1.9M43.816 17.272v-3.801H33.31l.95 3.801zM24.639 25.61L14.32 23.424v9.836l10.319 2.184zM24.639 19.05L14.32 21.239l10.319 2.185z"/><path d="M30.893 43.08L45.28 28.674H30.881L24.23 40.646l-1.9-3.416h-5.702l4.751 8.547h5.701l3.813-6.86zM32.57 43.805h15.11v-15.13zM30.893 45.48h16.791v5.04H30.893z"/></g></svg>