<svg xmlns="http://www.w3.org/2000/svg" viewBox="0 0 64 64"><circle fill="#0071bc" cx="32" cy="32" r="30"/><g fill="#fff"><path d="M48.621 52h-33.24c-1.862 0-3.378-1.496-3.378-3.334V25.334c0-1.838 1.516-3.334 3.378-3.334h33.24C50.484 22 52 23.496 52 25.334v23.332C52 50.504 50.484 52 48.621 52m-33.24-28c-.76 0-1.378.599-1.378 1.334v23.332c0 .735.618 1.334 1.378 1.334h33.24c.76 0 1.379-.599 1.379-1.334V25.334c0-.735-.619-1.334-1.379-1.334h-33.24"/><path d="M47 32h-3v16h3a1 1 0 0 0 1-1V33a1 1 0 0 0-1-1M38 32v-4c0-1.104-.898-2-2-2h-8a2 2 0 0 0-2 2v4h-4v16h20V32h-4m-2 0h-8v-4h8v4M17 32a1 1 0 0 0-1 1v14a1 1 0 0 0 1 1h3V32h-3"/><circle cx="24" cy="16" r="4"/><path d="M42 14H24v4h6l2-2 2 2h2l2-2 2 2h2l2-2z"/></g><circle fill="#0071bc" cx="23" cy="16" r="2"/></svg>