<svg xmlns="http://www.w3.org/2000/svg" viewBox="0 0 64 64"><path fill="#3e4347" d="M53.645 51.49c-1.444-.771-3.293-4.747-3.293-4.747H13.647s-1.848 3.977-3.292 4.747C8.475 52.49 5 53.5 5 57.196v4.801h54v-4.801c0-3.697-3.475-4.701-5.355-5.706"/><path fill="#62696d" d="M55.4 57.933c0 1.123-.805 2.033-1.8 2.033H10.4c-.994 0-1.8-.91-1.8-2.033 0-1.124.806-2.034 1.8-2.034h43.2c.996-.001 1.8.91 1.8 2.034"/><path fill="#b2c1c0" d="M57 49.797v-3.051c0-14.04-11.193-22.374-25-22.374S7 32.705 7 46.746v3.051h50"/><path fill="#dae3ea" d="M53.21 49.797v-2.882c0-13.575-9.494-21.531-21.21-21.531-11.711 0-21.21 7.956-21.21 21.531v2.882H53.2"/><g fill="#94989b"><path d="M26.768 10.136h10.465v4.068H26.768zM30.14 14.204h3.715v6.102H30.14z"/></g><path fill="#3e4347" d="M30.14 14.204h3.715v3.051H30.14z"/><path fill="#b2c1c0" d="M26 19.796h12v6.101H26z"/><path fill="#dae3ea" d="M28 19.796h8v6.668h-8z"/><g fill="#42ade2"><path d="M51.13 2l-8.95 14.792L56.729 6.437zM12.865 2l8.953 14.792L7.274 6.437zM48 22.848l11.55-6.06 2.45 6.06zM16 22.848L4.455 16.792 2 22.848z"/></g></svg>