<svg xmlns="http://www.w3.org/2000/svg" viewBox="0 0 64 64"><circle fill="#0071bc" cx="32" cy="32" r="30"/><g fill="#fff"><path d="M52 41a2 2 0 0 1-2 2H14a2 2 0 0 1-2-2V21a2 2 0 0 1 2-2h36a2 2 0 0 1 2 2v20"/><circle cx="14.5" cy="48" r="2"/><circle cx="21.5" cy="48" r="2"/><circle cx="28.5" cy="48" r="2"/><circle cx="35.5" cy="48" r="2"/><circle cx="42.5" cy="48" r="2"/><circle cx="49.5" cy="48" r="2"/><path d="M41 19h-2v-3.903c0-.569-.447-1.032-1-1.032H26c-.551 0-1 .463-1 1.032V19h-2v-3.903C23 13.389 24.345 12 26 12h12c1.654 0 3 1.389 3 3.097V19"/></g><g fill="#0071bc"><path d="M17.5 19h2v24h-2zM44.5 19h2v24h-2z"/></g></svg>