<svg xmlns="http://www.w3.org/2000/svg" viewBox="0 0 64 64"><path fill="#3e4347" d="M30.495 9.06s-2.576 1.106-5.488-1.669c-1.723-1.643-4.565-2.951-5.844-3.387h-1.1s-3.795 0-7.766 3.387c-2.365 2.02-4.593 2.165-5.04 1.669h-1.1c-1.37 3.121-4.16 2.75-4.16 2.75v30.393h34.21l-2.62-33.14h-1.099"/><path fill="#62696d" d="M31.594 9.06s-2.576 1.106-5.488-1.669c-3.551-3.387-6.943-3.387-6.943-3.387s-3.795 0-7.766 3.387C8.141 10.166 5.26 9.06 5.26 9.06c-1.371 3.122-4.16 2.75-4.16 2.75v30.393h34.21V11.81s-2.495.371-3.72-2.75"/><path fill="#3e4347" d="M1.1 35.51l21.391 11.447v9.06L1.1 42.197z"/><g fill="#62696d"><path d="M22.491 56.02L64 49.04v-8.03l-41.509 5.947zM21.502 55.39l.401 4.2.588.41v-3.98z"/></g><g fill="#3e4347"><path d="M22.491 60l1.42-.41.679-3.918-2.099.348zM63.56 52.977V49.11l-2.689.454.9 3.706zM.438 42.2v3.16h1.494l.979-3.16z"/></g><path fill="#94989b" d="M1.1 35.51l21.391 11.447L64 41.01 35.02 30.976z"/><path fill="#dae3ea" d="M2.262 29.681L23.24 38.02v7.617L2.262 35.3z"/><path fill="#ffdd7d" d="M23.24 45.637l38.655-5.186v-6.738L23.24 38.02z"/><path fill="#fff" d="M2.262 29.681L23.24 38.02l38.655-4.307-26.585-6.751z"/><g fill="#b2c1c0"><path d="M4.061 25.623s1.174 3.197 5.03 4.725c0 0 5.719-1.654 13.311-1.6 0 0-2.982-2.744-3.814-4.959-.001 0-6.626-2.385-14.53 1.834M21.446 24.23s.797 3.197 3.416 4.725c0 0 3.879-1.654 9.03-1.602 0 0-2.023-2.744-2.587-4.955-.001 0-4.495-2.387-9.858 1.832"/></g><g fill="#dae3ea"><path d="M7.512 23.17s2.568 3.531 3.77 8.25c0 0 5.717-2.303 13.309-2.23 0 0-2.98-3.828-3.813-6.91 0 0-5.557-1.078-13.266.89M22.614 22.18s2.297 3.158 3.369 7.377c0 0 5.113-2.061 11.898-1.992 0 0-2.664-3.424-3.408-6.18 0 0-4.969-.965-11.859.795"/></g><g fill="#a53838"><path d="M11.795 39.994s-.576-4.166-.27-5.449c.209-.877 1.162-2.247 1.707-2.676 1.408-1.113 6.271-1.521 6.271-1.521s17.71-2.498 23.544-2.27c.873.033 3.332 1.604 3.332 1.604l-27.57 3.461-2.979 5.34-.311 3.352-3.724-1.841"/><path d="M17.389 35.693l-1.556 2.789-.311 3.35 7.718 3.805V38.02z"/></g><path fill="#ed4c5c" d="M23.24 38.02v7.617l38.655-5.186v-6.738z"/><path fill="#c94747" d="M17.389 35.693l5.851 2.327 38.655-4.307-15.755-4-27.329 3.43z"/><path fill="#ed4c5c" d="M54.38 31.804s-.652-1.227-.953-1.457c-.354-.273-1.566-.365-1.566-.365s-.414-.926-.637-1.023c-.471-.211-1.908.723-1.908.723s-.793-1.08-1.127-1.084c-7.307-.037-22.609 1.75-29.71 3.895-.77.232-1.953 2.069-2.426 3.02-.984 1.973-2.314 6.637-2.617 9.07-.289 2.32 1.113 8.941 1.113 8.941s1.156-4.461 2.266-5.82c.514-.631.984 2.688.984 2.688s.863-4.168 1.217-4.617c.396-.506 1.033 2.529 1.033 2.529s.629-6.609 1.072-8.18c.301-1.068 1.389-3.02 2.123-3.344 7.01-3.063 21.675-5.569 28.929-5.354.453.013 2.207.382 2.207.382"/></svg>