<svg xmlns="http://www.w3.org/2000/svg" viewBox="0 0 64 64"><g fill="#467591"><path d="M59.53 29.647a2.243 2.243 0 0 0-2.234 2.234v1.766a2.243 2.243 0 0 1-2.233 2.234H8.943a2.243 2.243 0 0 1-2.234-2.234v-22a2.243 2.243 0 0 0-2.234-2.234H2.238a2.237 2.237 0 0 0-2.234 2.234v40.709a2.243 2.243 0 0 0 2.234 2.234h2.236a2.243 2.243 0 0 0 2.234-2.234V50.59c0-1.23 1-2.236 2.234-2.236h46.12a2.243 2.243 0 0 1 2.233 2.236v1.766a2.243 2.243 0 0 0 2.234 2.234h2.236a2.243 2.243 0 0 0 2.234-2.234V31.883a2.243 2.243 0 0 0-2.234-2.234h-2.234z"/><circle cx="13.856" cy="28.507" r="5.096"/><path d="M54.978 33.603h-34.15v-5.096s8.798-15.1 34.15 5.096"/></g></svg>