<svg xmlns="http://www.w3.org/2000/svg" viewBox="0 0 64 64"><path fill="#ffce31" d="M32 10.05l16.639 15.356L53 21.382 32 2 11 21.382l4.361 4.024z"/><g fill="#42ade2"><path d="M22.524 35.624l4.934 7.817c.701 1.454 2.879 1.12 4.02 0l3.619-3.504 5.568 8.599c-3.354 3.313-5.285 5.152-8.638 8.456-1.804 1.788-.426 5.01 2.01 5.01h16.959V59.07l-9.873-2.934c2.266-2.238 4.536-4.477 6.81-6.717 1.208-1.189.949-2.926 0-4.146l-9.142-11.72c-.984-1.267-2.996-1.01-4.02 0a2599.452 2599.452 0 0 0-5.301 5.229l-5.528-4.625-1.421 1.469"/><path d="M35.537 29.633c.575-.514.637-1.42.138-2.02l-3.333-3.956a1.358 1.358 0 0 0-1.955-.145l-3.836 3.444c-.576.512-.635 1.422-.136 2.02l3.333 3.954a1.353 1.353 0 0 0 1.955.139l3.834-3.44"/></g></svg>