<svg xmlns="http://www.w3.org/2000/svg" viewBox="0 0 64 64"><path fill="#94989b" d="M20.902 50.885l29.984-29.984A10.603 10.603 0 0 0 63.7 8.088l-8.655 8.656-6.144-1.647-1.647-6.147L55.909.298a10.592 10.592 0 0 0-10.01 2.806c-2.715 2.712-3.648 6.531-2.807 10.01L13.108 43.1a10.595 10.595 0 0 0-10.01 2.805c-4.142 4.139-4.141 10.852 0 14.992 4.14 4.141 10.852 4.141 14.991 0a10.601 10.601 0 0 0 2.806-10.01m-8.654 8.658l-6.146-1.646-1.646-6.147 4.499-4.496 6.144 1.645 1.646 6.146-4.497 4.498"/><path fill="#3e4347" d="M28.791 21.93l-5.581 5.755-5.549-5.724 5.579-5.754z"/><g fill="#94989b"><path d="M16.716 5.067L6.861 15.231a.974.974 0 0 0 0 1.346l3.665 3.781.043.045 3.665 3.781a.905.905 0 0 0 1.306 0l9.854-10.165a.975.975 0 0 0 0-1.347L18.02 5.067a.903.903 0 0 0-1.304 0M.27 22.03a.974.974 0 0 0 0 1.346l7.375 7.607a.904.904 0 0 0 1.305 0s2.033-2.122 2.077-2.178L2.38 19.887C2.326 19.932.27 22.03.27 22.03"/></g><g fill="#3e4347"><path d="M10.526 20.358l-3.665-3.781s1.206 2.111-1.958 2.491c-1.273.153-2.071.441-2.523.819l8.646 8.918c.366-.467.646-1.289.793-2.603.371-3.265 2.415-2.02 2.415-2.02l-3.665-3.781-.043-.044M39.572 4.288c-10.06-10.295-21.16 1.183-21.16 1.183l6.542 6.746s6.29-8.465 14.242-6.124c.925.272 1.747.74 1.981.501.317-.326-.894-1.579-1.604-2.306"/></g><path fill="#f2b200" d="M25.999 24.807l-3.608 3.724s1.864 2.999 5.063 6.297c3.529 3.641 8.194 5.684 12.853 10.488 7.01 7.227 12.835 14.986 14.948 17.898.798 1.1.925.996 1.899-.01l3.038-3.133-34.19-35.26"/><path fill="#ffce31" d="M25.999 24.807l3.61-3.723s2.908 1.923 6.106 5.221c3.531 3.641 5.511 8.453 10.169 13.257 7.01 7.227 14.529 13.238 17.354 15.418 1.064.822.965.951-.011 1.959l-3.037 3.133L26 24.802"/></svg>