<svg xmlns="http://www.w3.org/2000/svg" viewBox="0 0 64 64"><path fill="#ffce31" d="M43.35 25.14l14.456-1.752-13.961 5.09"/><path fill="#b2c1c0" d="M44.39 24.505s-5.203-.227-9.289 3.21V32s5.16 0 9.289-3.213c.457-.354 1.033-.958 1.033-2.141 0-1.182-.461-2.141-1.033-2.141"/><path fill="#42ade2" d="M9.291 25.13l8.257 16.25 13.03-4.22-17.16-13.285z"/><path fill="#428bc1" d="M13.419 17.625v6.25L9.291 25.13l2.064-6.255z"/><ellipse fill="#3e4347" cx="35.1" cy="30.13" rx="1.032" ry="2.5"/><path fill="#dae3ea" d="M50.581 17.625l-5.656 9.789s-23.3 6.491-31.509 9.321c-8.21 2.832-5.402 5.668-11.356 11.42-6.755 6.529 2.738 6.905 33.947-5.64 2.797-1.122 4.215-5.723 8.678-8.643 4.803-3.142 8.992-4.373 8.992-4.373l3.098-14.375-6.194 2.501"/><g fill="#42ade2"><path d="M51.612 10.125l-4.132 1.25 3.101 6.563 9.172 2.192 4.246-2.902-7.225-2.098zM21.323 46.48l38.547 7.395 4.129-2.896L37.16 39.501z"/></g><path fill="#428bc1" d="M63.999 43.874v7.105l-4.129 2.896 2.125-8.685z"/><path fill="#3e4347" d="M8.161 39.664c-1.207 1.237-1.731 2.625-2.762 4.338A5.192 5.192 0 0 0 9.29 45.75c2.851 0 5.161-2.238 5.161-5h-3.097a5.219 5.219 0 0 1-3.193-1.086"/><path fill="#dae3ea" d="M10.373 49.3l-.956.2c-.599-6.489 1.113-9.861 1.184-9.999l.75.968-.373-.488.377.481c-.014.032-1.516 3.047-.982 8.838"/><g fill="#3e4347"><ellipse cx="21.677" cy="40.75" rx="1.032" ry="1.875"/><ellipse cx="25.807" cy="39.501" rx="1.032" ry="1.874"/><ellipse cx="29.936" cy="38.25" rx="1.032" ry="1.874"/></g><path fill="#ffce31" d="M51.612 30.04l12.387-3.333L52.1 33.374"/><path fill="#b2c1c0" d="M51.612 29.505s-5.203-.264-9.291 3.748v4.997s5.162 0 9.291-3.747c.455-.415 1.033-1.121 1.033-2.5.001-1.38-.462-2.498-1.033-2.498"/><ellipse fill="#3e4347" cx="42.32" cy="35.75" rx="1.032" ry="2.5"/></svg>