<svg xmlns="http://www.w3.org/2000/svg" viewBox="0 0 64 64"><path fill="#c7e755" d="M0 22.17s1.88-5.412 4.645-7.06c6.417-3.834 3.813 10.27 13.479 5.02 3.783-2.055 4.708 4.616 6.886 5.123 4.745 1.104 17.321.551 17.321.551s2.357-3.896 4.67-4.314c4.25-.767 3.498-6.04 6.893-7.572 2.338-1.056 4.25 1.304 7.313.077 1.329-.533 2.792-3.988 2.792-3.988v18.384L0 29.883v-7.709"/><path fill="#666" d="M36.999 24.739H27L0 54.19V64h63.999v-9.81z"/><g fill="#594640"><path d="M26.336 27.717h11.327v.317H26.336zM27.397 26.387h9.205v.253h-9.205zM28.309 25.25h7.382v.253h-7.382zM23.22 31.618h17.564v.498H23.22zM25.01 29.379h13.979v.497H25.01z"/></g><g fill="#dbb471"><path d="M36.603 26.387l-.513-.634h-8.175l-.518.634zM37.663 27.717l-.653-.823H27l-.659.823zM35.69 25.25l-.41-.511h-6.564l-.407.511zM40.782 31.618l-1-1.243H24.22l-1 1.243zM38.989 29.379l-.799-.994H25.807l-.797.994z"/></g><g fill="#594640"><path d="M15.312 41.511h33.377v.934H15.312zM18.437 37.592h27.13v.746h-27.13zM21.12 34.23h21.752v.748H21.12zM0 60.702h63.999v1.833H0zM6.124 53.01h51.752v1.465H6.124zM11.405 46.41h41.19v1.467h-41.19z"/></g><g fill="#dbb471"><path d="M45.563 37.592l-1.533-1.867H19.96l-1.528 1.867zM48.688 41.511l-1.945-2.431H17.257l-1.945 2.431zM42.876 34.23l-1.199-1.492H22.323L21.12 34.23zM57.876 53.01l-2.945-3.67H9.07l-2.946 3.67zM60.2 55.938H3.8l-3.804 4.764h63.999zM52.595 46.41l-2.345-2.933H13.751l-2.346 2.933z"/></g><path fill="#666" d="M11.03 64l19.12-39.26h-.151L11.03 61.07z"/><path fill="#3e4347" d="M7.03 61.07h4.03v2.932H7.03z"/><path fill="#e6e6e6" d="M29.604 24.739L7 61.069h4.03l18.969-36.33z"/><path fill="#666" d="M52.968 64l-19.12-39.26h.148l18.969 36.33z"/><path fill="#e6e6e6" d="M34.396 24.739l22.603 36.33h-4.03L34 24.739z"/><path fill="#3e4347" d="M52.937 61.07h4.03v2.932h-4.03z"/><g fill="#83bf4f"><path d="M27 24.739s-4.747-1.776-6.73-.782c-3.188 1.599-2.788-3.506-5.411-4.635-2.787-1.2-6.089 3.255-8.827 2.948-3.41-.382-6.03-6.237-6.03-6.237v38.15l27-29.447M36.999 24.739s3.883-.641 4.957-1.855c.953-1.076 2.834-4.171 4.906-4.332 2.564-.198 5.416 2.838 6.949 2.876 1.592.038 1.094-4.545 5.145-5.395 3.166-.665 5.04 3.476 5.04 3.476v34.677l-27-29.447"/></g></svg>