<svg xmlns="http://www.w3.org/2000/svg" viewBox="0 0 64 64"><path fill="#699635" d="M0 20.383s1.881-3.737 4.645-5.545c6.418-4.199 4.813 9.06 14.48 3.307 3.783-2.25 4.707 2.864 6.885 3.419 4.746 1.209 12.322.604 12.322.604s11.25-2.357 14.813-5.228c3.034-2.444 5 .21 8.06-1.132 1.329-.586 2.792.012 2.792.012v15.751h-64V20.383"/><g fill="#83bf4f"><path d="M27 21.01s-6.797.349-12.141-3.742c-3.652-2.795-5.527 5.418-8.828 5.418-3.429.001-6.03-4.639-6.03-4.639v35.21l27-32.24M37 21.01s2.471.527 9.395-2.636c3.225-1.473 4.128 5.687 5.938 5.735 1.592.041 4.25-3.75 6.625-3.873 3.23-.165 5.04 1.617 5.04 1.617v31.401l-27-32.24"/></g><path fill="#ffdd7d" d="M38.15 21.01H25.854L0 46.13V64h64V46.13z"/><path fill="#666" d="M37 21.01H27L0 52.16V64h64V52.16z"/><g fill="#fff"><path d="M64 58.04v-3.69L36.598 21.01h-.418zM0 58.04v-3.69l27.402-33.34h.422zM33.807 64H30.2l.412-11.87h2.777zM33.15 45.28h-2.296l.356-10.02h1.585zM32.709 32.835H31.29l.154-4.342h1.113zM32.514 27.27h-1.027l.085-2.422h.856zM32.402 24.11h-.803l.053-1.542h.698zM32.33 22.07h-.66l.037-1.06h.583z"/></g></svg>