<svg xmlns="http://www.w3.org/2000/svg" viewBox="0 0 64 64"><path fill="#42ade2" d="M2 49.565h60V62H2z"/><g fill="#3e4347"><path d="M50.28 42.514h1.107v4.848H50.28zM59.2 42.514h1.108v4.848H59.2zM54.742 42.514h1.107v4.848h-1.107z"/></g><path fill="#dae3ea" d="M44.667 27.693H28.04l-5.543 9.697 27.783 8.476z"/><path fill="#3e4347" d="M43.915 42.3h17.04v1.211h-17.04z"/><path fill="#c5d0d8" d="M42.673 27.693H36.02L38.24 18h2.216z"/><path fill="#dae3ea" d="M25.683 32.54H2l6.259 9.204L10.04 40.3l-3.629-5.337h4.387v4.847h2.222v-4.847h3.852v4.847h2.218v-4.847h6.593z"/><path fill="#3e4347" d="M47.19 45.866c-.532 0-.831.519-.661 1.15l.033.125c.17.633.745 1.148 1.278 1.148h13.19c.535 0 .971-.544.971-1.212 0-.664-.436-1.212-.971-1.212H47.19z"/><path fill="#f15744" d="M58.52 54.35H27.48c-12.541 0-22.17-16.961-22.17-16.961h17.18c22.17 0 27.561 10.903 33.673 10.903h4.572l-2.218 6.06"/><path fill="#c94747" d="M14.616 48.695h7.866c11.359 0 18.311 2.861 23.21 5.652h7.603c-5.33-2.415-12.08-10.196-30.814-10.196H10.153c1.281 1.506 2.782 3.088 4.461 4.544"/><g fill="#3e4347"><path d="M28.825 29.51l-4.074 7.269H41.38l-2.22-7.269zM32.696 41.02c-.608 0-1.108.546-1.108 1.211v2.422c0 .667.5 1.211 1.108 1.211h2.217c.61 0 1.109-.544 1.109-1.211v-2.422c0-.665-.499-1.211-1.109-1.211h-2.217M26.05 41.02c-.61 0-1.108.546-1.108 1.211v2.422c0 .667.498 1.211 1.108 1.211h2.217c.61 0 1.108-.544 1.108-1.211v-2.422c0-.665-.498-1.211-1.108-1.211H26.05"/></g><path fill="#dae3ea" d="M44.891 22.847c0-.665-.498-1.212-1.107-1.212h-8.87c-.609 0-1.107.547-1.107 1.212 0 .667.498 1.211 1.107 1.211h8.87c.609 0 1.107-.544 1.107-1.211"/></svg>