<svg xmlns="http://www.w3.org/2000/svg" viewBox="0 0 64 64" xmlns:xlink="http://www.w3.org/1999/xlink"><path fill="#d0d0d0" d="M24.415 24.388a8.206 8.206 0 0 0 0-11.604L12.811 24.388a8.206 8.206 0 0 0 11.604 0"/><path fill="#94989b" d="M27.04 27.01c-4.309 4.309-4.309 4.309-6.04 2.576-1.732-1.731-1.732-1.731 2.578-6.04 4.307-4.308 4.307-4.308 6.04-2.576 1.732 1.733 1.732 1.733-2.576 6.04"/><path fill="#7f8285" d="M37.21 37.18c-4.309 4.309-4.309 4.309-6.04 2.576-.357-.357-6.569-6.57-6.928-6.927-1.73-1.732-1.73-1.732 2.576-6.04 4.308-4.308 4.308-4.308 6.04-2.576l6.925 6.927c1.733 1.733 1.733 1.733-2.574 6.04"/><path fill="#646669" d="M39.591 39.563c-3.23 3.23-3.23 3.23-4.53 1.932-1.298-1.3-1.298-1.3 1.934-4.529 3.229-3.23 3.229-3.23 4.528-1.933 1.299 1.299 1.299 1.299-1.932 4.53"/><path fill="#94989b" d="M22.17 15.03l-7.115-1.348a1.149 1.149 0 1 0-1.369 1.247l1.366 7.218.813-.812-.181.035-1.24-6.548a1.115 1.115 0 0 0 .432-.395l6.522 1.235-.031.17.803-.802"/><g fill="#3e4347"><path d="M26.669 38.241l-.914-.914 1.494-1.493.913.914zM35.865 27.227l1.494-1.494.914.913-1.494 1.495z"/></g><path fill="#428bc1" d="M31.07 42.644a.472.472 0 0 1 .015.665l-18.561 18.56a.47.47 0 0 1-.665-.014l-9.712-9.714a.468.468 0 0 1-.015-.663l18.561-18.561a.47.47 0 0 1 .663.014l9.714 9.713" id="a"/><use xlink:href="#a"/><path fill="#428bc1" d="M61.855 11.858a.471.471 0 0 1 .015.664L43.31 31.083a.468.468 0 0 1-.663-.014l-9.714-9.714a.47.47 0 0 1-.015-.663L51.479 2.13a.468.468 0 0 1 .663.015l9.713 9.713"/><g fill="#42ade2"><path d="M3.321 51.803L4 52.48h16.396l5.084-5.08H7.728zM29.21 42.31H12.817l-2.544 2.541H28.02l1.871-1.868zM34.11 21.02l.676.673H51.18l5.09-5.085H38.516zM60 11.52H43.604l-2.544 2.54h17.751l1.868-1.864z"/></g></svg>