<svg xmlns="http://www.w3.org/2000/svg" viewBox="0 0 64 64"><circle fill="#ffdd67" cx="31.999" cy="32" r="30"/><path fill="#fff" d="M28.499 28a8 8 0 1 1-16 0 8 8 0 0 1 16 0"/><circle fill="#664e27" cx="22.499" cy="30" r="4"/><path fill="#fff" d="M51.5 28a8 8 0 1 1-16 0 8 8 0 0 1 16 0"/><circle fill="#664e27" cx="41.499" cy="30" r="4"/><path fill="#94989b" d="M25.7 47.33a.3.3 0 0 0 .299-.3v-4.4a.3.3 0 0 0-.299-.3h-2.4a.3.3 0 0 0-.301.3v4.4a.3.3 0 0 0 .301.3h2.4"/><path fill="#6a6c6e" d="M25.842 46.802v-3.57a.125.125 0 0 0-.25 0v3.57a.119.119 0 0 1-.118.118h-1.948c-.069 0-.125.057-.125.125s.056.125.125.125h1.948a.368.368 0 0 0 .368-.368"/><path fill="#94989b" d="M22.7 49.829a.3.3 0 0 0 .299-.3v-4.4a.3.3 0 0 0-.299-.3h-2.4a.3.3 0 0 0-.301.3v4.4a.3.3 0 0 0 .301.3h2.4"/><path fill="#6a6c6e" d="M22.842 49.3v-3.57a.125.125 0 0 0-.25 0v3.57a.119.119 0 0 1-.118.118h-1.948c-.069 0-.125.057-.125.125s.056.125.125.125h1.948a.368.368 0 0 0 .368-.368"/><path fill="#94989b" d="M19.7 47.33a.3.3 0 0 0 .299-.3v-4.4a.3.3 0 0 0-.299-.3h-2.4a.3.3 0 0 0-.301.3v4.4a.3.3 0 0 0 .301.3h2.4"/><path fill="#6a6c6e" d="M19.842 46.802v-3.57a.125.125 0 0 0-.25 0v3.57a.119.119 0 0 1-.118.118h-1.948c-.069 0-.125.057-.125.125s.056.125.125.125h1.948a.368.368 0 0 0 .368-.368"/><path fill="#94989b" d="M16.7 49.829a.3.3 0 0 0 .299-.3v-4.4a.3.3 0 0 0-.299-.3h-2.401a.3.3 0 0 0-.3.3v4.4a.3.3 0 0 0 .3.3H16.7"/><path fill="#6a6c6e" d="M16.842 49.3v-3.57a.125.125 0 0 0-.25 0v3.57a.119.119 0 0 1-.118.118h-1.948c-.069 0-.125.057-.125.125s.056.125.125.125h1.948a.368.368 0 0 0 .368-.368"/><path fill="#94989b" d="M37.7 47.33a.3.3 0 0 0 .299-.3v-4.4a.3.3 0 0 0-.299-.3h-2.4a.3.3 0 0 0-.301.3v4.4a.3.3 0 0 0 .301.3h2.4"/><path fill="#6a6c6e" d="M37.842 46.802v-3.57a.125.125 0 0 0-.25 0v3.57a.119.119 0 0 1-.118.118h-1.948c-.069 0-.125.057-.125.125s.056.125.125.125h1.948a.368.368 0 0 0 .368-.368"/><path fill="#94989b" d="M34.7 49.829a.3.3 0 0 0 .299-.3v-4.4a.3.3 0 0 0-.299-.3h-2.4a.3.3 0 0 0-.301.3v4.4a.3.3 0 0 0 .301.3h2.4"/><path fill="#6a6c6e" d="M34.842 49.3v-3.57a.125.125 0 0 0-.25 0v3.57a.119.119 0 0 1-.118.118h-1.948c-.069 0-.125.057-.125.125s.056.125.125.125h1.948a.368.368 0 0 0 .368-.368"/><path fill="#94989b" d="M31.7 47.33a.3.3 0 0 0 .299-.3v-4.4a.3.3 0 0 0-.299-.3h-2.4a.3.3 0 0 0-.301.3v4.4a.3.3 0 0 0 .301.3h2.4"/><path fill="#6a6c6e" d="M31.842 46.802v-3.57a.125.125 0 0 0-.25 0v3.57a.119.119 0 0 1-.118.118h-1.948c-.069 0-.125.057-.125.125s.056.125.125.125h1.948a.368.368 0 0 0 .368-.368"/><path fill="#94989b" d="M28.7 49.829a.3.3 0 0 0 .299-.3v-4.4a.3.3 0 0 0-.299-.3h-2.4a.3.3 0 0 0-.301.3v4.4a.3.3 0 0 0 .301.3h2.4"/><path fill="#6a6c6e" d="M28.842 49.3v-3.57a.125.125 0 0 0-.25 0v3.57a.119.119 0 0 1-.118.118h-1.948c-.069 0-.125.057-.125.125s.056.125.125.125h1.948a.368.368 0 0 0 .368-.368"/><path fill="#94989b" d="M49.7 47.33a.3.3 0 0 0 .299-.3v-4.4a.3.3 0 0 0-.299-.3h-2.4a.3.3 0 0 0-.301.3v4.4a.3.3 0 0 0 .301.3h2.4"/><path fill="#6a6c6e" d="M49.842 46.802v-3.57a.125.125 0 0 0-.25 0v3.57a.119.119 0 0 1-.118.118h-1.948c-.069 0-.125.057-.125.125s.056.125.125.125h1.948a.368.368 0 0 0 .368-.368"/><path fill="#94989b" d="M46.7 49.829a.3.3 0 0 0 .299-.3v-4.4a.3.3 0 0 0-.299-.3h-2.4a.3.3 0 0 0-.301.3v4.4a.3.3 0 0 0 .301.3h2.4"/><path fill="#6a6c6e" d="M46.842 49.3v-3.57a.125.125 0 0 0-.25 0v3.57a.119.119 0 0 1-.118.118h-1.948c-.069 0-.125.057-.125.125s.056.125.125.125h1.948a.368.368 0 0 0 .368-.368"/><path fill="#94989b" d="M43.7 47.33a.3.3 0 0 0 .299-.3v-4.4a.3.3 0 0 0-.299-.3h-2.4a.3.3 0 0 0-.301.3v4.4a.3.3 0 0 0 .301.3h2.4"/><path fill="#6a6c6e" d="M43.842 46.802v-3.57a.125.125 0 0 0-.25 0v3.57a.119.119 0 0 1-.118.118h-1.948c-.069 0-.125.057-.125.125s.056.125.125.125h1.948a.368.368 0 0 0 .368-.368"/><path fill="#94989b" d="M40.7 49.829a.3.3 0 0 0 .299-.3v-4.4a.3.3 0 0 0-.299-.3h-2.4a.3.3 0 0 0-.301.3v4.4a.3.3 0 0 0 .301.3h2.4"/><path fill="#6a6c6e" d="M40.842 49.3v-3.57a.125.125 0 0 0-.25 0v3.57a.119.119 0 0 1-.118.118h-1.948c-.069 0-.125.057-.125.125s.056.125.125.125h1.948a.368.368 0 0 0 .368-.368"/><path fill="#aaafb3" d="M53.22 44.31a.503.503 0 0 0-.332-.377s-4.419-.523-6.949 2.01c-2.529 2.53-2.01 6.949-2.01 6.949a.504.504 0 0 0 .378.332l3.2.465c.164.024.393.14.509.256l3.118 3.119a.302.302 0 0 0 .424 0l5.498-5.498a.3.3 0 0 0 0-.424l-3.12-3.119a1.077 1.077 0 0 1-.255-.51l-.465-3.199"/><path fill="#6a6c6e" d="M56.663 51.625l-5.241 5.241a.125.125 0 1 1-.177-.177l5.24-5.24a.161.161 0 0 0 0-.228l-2.973-2.972a1.139 1.139 0 0 1-.279-.557l-.443-3.049a.359.359 0 0 0-.227-.258c-.002.001-.873-.098-2.027.017a.126.126 0 0 1-.137-.112.128.128 0 0 1 .112-.137 10.609 10.609 0 0 1 2.1-.012.607.607 0 0 1 .426.466l.444 3.049a.88.88 0 0 0 .208.415l2.972 2.973c.16.161.161.422.002.581"/><g fill="#67686b"><path d="M56.08 53.797a.364.364 0 0 0-.001-.514l-7.211-7.211a.364.364 0 0 0-.515-.001l-2.061 2.061a.363.363 0 0 0 0 .515l7.211 7.211a.364.364 0 0 0 .516 0l2.061-2.061"/><path d="M56.48 52.15l-2.411-2.412a.565.565 0 0 0-.799-.001l-3.197 3.197a.566.566 0 0 0 0 .8l2.412 2.411 3.995-3.995"/></g><path fill="#aaafb3" d="M53.43 50.32l-3.111 3.111a.3.3 0 0 0 0 .424l8.06 8.06a.3.3 0 0 0 .424 0l3.112-3.111a.302.302 0 0 0 0-.424l-8.06-8.06a.3.3 0 0 0-.424 0m7.41 8.02a.327.327 0 0 1 0 .461l-2.043 2.042a.324.324 0 0 1-.46 0l-2.233-2.233a.325.325 0 0 1 0-.46l2.042-2.042a.325.325 0 0 1 .46 0l2.234 2.232m-6.616-4.113c-.694.695-2.064.453-3.059-.541l2.517-2.518c.994.995 1.236 2.364.542 3.059"/><path fill="#6a6c6e" d="M61.64 58.33l-7.475-7.475a.125.125 0 1 0-.177.177l7.475 7.474a.12.12 0 0 1 0 .168l-2.792 2.791c-.049.049-.049.129 0 .178s.128.049.177 0l2.792-2.793a.369.369 0 0 0 0-.52"/><path fill="#aaafb3" d="M54.49 52.791a.3.3 0 0 0 0-.424l-5.939-5.94a.3.3 0 0 0-.424 0l-1.698 1.697a.302.302 0 0 0 0 .424l5.94 5.94a.3.3 0 0 0 .424 0l1.697-1.697"/><path fill="#6a6c6e" d="M54.22 52.32l-5.353-5.353c-.049-.049-.129-.049-.178 0s-.049.127 0 .176l5.354 5.354a.118.118 0 0 1 0 .167l-1.377 1.378a.124.124 0 0 0 0 .176.124.124 0 0 0 .176 0l1.378-1.377a.37.37 0 0 0 0-.521"/></svg>