<svg xmlns="http://www.w3.org/2000/svg" viewBox="0 0 64 64"><path fill="#00b9f1" d="M57.6 13.651c-.656-.974-1.637-1.658-2.674-2.167-3.377-1.659-11.639-1.31-12.334-5.653-.914-5.695-5.855.061-6.771.061C34.762 5.892 34.248 2 32.098 2c-2.152 0-2.664 3.892-3.723 3.892-.916 0-5.859-5.756-6.771-.061-.695 4.344-8.959 3.995-12.334 5.653-1.037.51-2.02 1.194-2.674 2.167-.521.773.625 1.614 1.207.887 1.586-1.984 4.832-2.37 7.145-2.827 1.941-.384 4.049-.612 5.881-1.393 2.596-1 2.48-4.931 3.268-4.931.588 0 2.697 3.02 4.549 3.02 1.58 0 2.58-3.698 3.453-3.698.877 0 1.871 3.698 3.451 3.698 1.854 0 3.963-3.02 4.551-3.02.785 0 .672 3.931 3.268 4.931 1.832.781 3.939 1.01 5.881 1.393 2.313.457 5.559.842 7.145 2.827.58.728 1.726-.113 1.205-.887"/><path fill="#89967a" d="M53 57a5 5 0 0 1-5 5H16a5 5 0 0 1-5-5V36h42v21z"/><path fill="#b6c4a7" d="M32 12c-15.463 0-21 8.536-21 24v21h42V36c0-15.464-5.535-24-21-24"/><g fill="#89967a"><path d="M11 54.98c-1.104 0-2-1.168-2-2.609v-6.783c0-1.439.896-2.607 2-2.607V54.98M53 42.98c1.105 0 2 1.168 2 2.607v6.783c0 1.441-.895 2.609-2 2.609V42.98"/></g><g fill="#3e4347"><path d="M7 19.979H5v30h4v-2H7zM57 19.979v28h-2v2h4v-30z"/></g><circle fill="#00b9f1" cx="58" cy="19.979" r="4"/><circle fill="#ff5263" cx="6" cy="19.979" r="4"/><path fill="#efffd9" d="M21.5 39.5a8.001 8.001 0 1 1 .002-15.998A8.001 8.001 0 0 1 21.5 39.5"/><circle fill="#545b61" cx="21.5" cy="31.5" r="6"/><circle fill="#ff5263" cx="21.5" cy="31.5" r="2.285"/><path fill="#efffd9" d="M42.5 39.5a8.001 8.001 0 1 1 .002-15.998A8.001 8.001 0 0 1 42.5 39.5"/><path fill="#545b61" d="M42.5 37.5a6 6 0 1 1 0-12 6 6 0 0 1 0 12"/><circle fill="#ff5263" cx="42.5" cy="31.5" r="2.286"/><path fill="#efffd9" d="M19.769 54.09c-7.358 0-7.358-13 0-13h24.463c7.358 0 7.358 13 0 13H19.769"/><path fill="#89967a" d="M20.488 52.588c-5.984 0-5.984-10 0-10h23.02c5.984 0 5.984 10 0 10h-23.02"/><g opacity=".7" fill="#3e4347"><path d="M21.19 50.662c0 1.234-2 1.234-2 0v-6.148c0-1.234 2-1.234 2 0v6.148M25.916 50.662c0 1.234-2 1.234-2 0v-6.148c0-1.234 2-1.234 2 0v6.148M30.639 50.662c0 1.234-2 1.234-2 0v-6.148c0-1.234 2-1.234 2 0v6.148M35.36 50.662c0 1.234-2 1.234-2 0v-6.148c0-1.234 2-1.234 2 0v6.148M40.08 50.662c0 1.234-2 1.234-2 0v-6.148c0-1.234 2-1.234 2 0v6.148M44.807 50.662c0 1.234-2 1.234-2 0v-6.148c0-1.234 2-1.234 2 0v6.148"/></g><circle fill="#f5f5f5" cx="32" cy="36.98" r="2"/><path fill="#545b61" d="M30.315 35.837l.54-.541 2.83 2.828-.542.541z"/></svg>