<svg xmlns="http://www.w3.org/2000/svg" viewBox="0 0 64 64"><circle fill="#ffdd67" cx="32" cy="32" r="30"/><path fill="#e5e5e5" d="M3.494 35.486l18.665 15.717 4.91-4.912-15.717-18.665c-4.793-4.793-12.652 3.066-7.858 7.86"/><path fill="#fff" d="M4.965 33.813l18.18 16.406 2.947-2.945-16.406-18.18c-2.778-2.779-7.493 1.936-4.716 4.714"/><path fill="#ed4c5c" d="M6.47 33.746L23.319 49.42l1.966-1.97L9.614 30.603z"/><ellipse transform="rotate(-44.992 8.046 32.177)" fill="#a5203c" cx="8.04" cy="32.17" rx="2.223" ry=".744"/><g fill="#51575b"><path d="M14.76 39.875L12.631 42l-.681-.61 2.13-2.13zM16.617 41.701l-2.043 2.043-.679-.614 2.041-2.04zM18.46 43.541l-1.959 1.961-.68-.617 1.96-1.961zM20.315 45.37l-1.769 1.77-.676-.622 1.769-1.768zM22.17 47.2l-1.632 1.632-.676-.622 1.637-1.636z"/></g><g fill="#664e27"><path d="M43.584 47.633c-2.229-.678-4.283-.92-6.328-.914-2.035.002-4.02.273-5.975.74-1.945.479-3.838 1.145-5.652 2.07-1.816.932-3.535 2.08-5.213 3.697.318-2.346 1.771-4.48 3.584-6.06 1.828-1.594 4.076-2.691 6.426-3.258 2.352-.563 4.848-.613 7.203-.029 2.334.579 4.598 1.813 5.955 3.753"/><circle cx="43.497" cy="30.31" r="4.5"/><circle cx="20.497" cy="30.31" r="4.5"/></g><g fill="#917524"><path d="M25.577 15.213a14.232 14.232 0 0 1-11.693 3.133c-.578-.113-1.088 2.02-.385 2.156a16.423 16.423 0 0 0 13.492-3.615c.541-.469-.97-2.061-1.414-1.674M50.11 18.19c-4.168.748-8.455-.4-11.691-3.133-.443-.389-1.955 1.205-1.412 1.674a16.418 16.418 0 0 0 13.492 3.615c.703-.134.191-2.269-.389-2.156"/></g></svg>