<svg xmlns="http://www.w3.org/2000/svg" viewBox="0 0 64 64"><circle fill="#ffdd67" cx="31.906" cy="32.09" r="29.906"/><g fill="#664e27"><path d="M42.59 49.84a18.954 18.954 0 0 0-5.322-2.127c-1.775-.426-3.566-.609-5.361-.611-1.799.008-3.588.189-5.361.615-1.781.428-3.52 1.066-5.322 2.123.771-1.977 2.484-3.531 4.396-4.525 1.932-1 4.119-1.486 6.287-1.486 2.166.004 4.354.486 6.283 1.49 1.91.994 3.624 2.546 4.4 4.521"/><circle cx="43.656" cy="30" r="4.5"/><circle cx="20.16" cy="30" r="4.5"/></g><path fill="#cccfd4" d="M32 2a29.85 29.85 0 0 0-16.361 4.859c17.616 9.12 33.116 23.082 41.685 41.217A29.846 29.846 0 0 0 62 32C62 15.432 48.568 2 32 2z"/><path fill="#fff" d="M32.919 3.569a27.191 27.191 0 0 0-14.905 4.427c16.684 7.687 31.572 19.31 39.38 35.832 3.083-5.844 2.858-12.928 2.858-12.928 0-15.09-12.236-27.331-27.331-27.331"/><path fill="#cccfd4" d="M15.826 6.75a92.774 92.774 0 0 1 41.879 9.779 29.846 29.846 0 0 1 4.26 16.866 92.713 92.713 0 0 0-57.45-13.409A30.115 30.115 0 0 1 15.83 6.75"/><path fill="#fff" d="M16.966 8.136c13.587-.06 27.634 3.976 39.777 9.623 3.345 6.539 3.477 11.863 3.477 11.863-16.391-8.722-35.33-13.1-52.858-11.445 0 0 4.239-7.777 9.604-10.04"/></svg>