<svg xmlns="http://www.w3.org/2000/svg" viewBox="0 0 64 64"><circle fill="#ffdd67" cx="32" cy="29" r="27"/><path fill="#ff717f" d="M46.568 12.665a7.199 7.199 0 0 1 8.339 5.842 7.197 7.197 0 0 1-5.837 8.34 7.2 7.2 0 1 1-2.502-14.182" opacity=".8"/><circle fill="#ff717f" cx="14.478" cy="25.636" r="7.2" opacity=".8"/><path fill="#664e27" d="M18.906 29.377c2.422.904 4.678 1.314 6.941 1.451 2.254.135 4.475-.027 6.664-.408 2.187-.396 4.326-1 6.396-1.901 2.075-.902 4.06-2.056 6.03-3.731-.517 2.577-2.27 4.836-4.383 6.461-2.136 1.639-4.7 2.693-7.343 3.16-2.636.459-5.404.348-7.972-.467-2.536-.801-4.958-2.327-6.329-4.565"/><path fill="#fff" d="M27.314 47.541l-1.355-.002c2.496.004 2.489-4.279.025-4.281h-11.09s5.366-.258 4.65-2.877c-.492-1.797-3.551-1.525-5.926-1.025-2.824.598-3.634.973-5.195 1.719C.116 45.049 2.669 55.539 6.898 58.75c2.941 2.232 5.168 2.27 8.203 2.27h8.494c2.924.004 3.387-4.01.465-4.02l2.265.006c2.53.002 2.524-4.406-.007-4.41h1c3.638.008 3.633-5.05-.006-5.06"/><g fill="#a5b3b2"><path d="M23.603 62h-8.502c-2.967 0-5.529 0-8.77-2.459-2.838-2.154-4.677-6.865-4.277-10.953.367-3.754 2.485-6.738 5.967-8.402 1.688-.809 2.555-1.189 5.406-1.789 1.238-.264 2.33-.397 3.246-.397 2.654 0 3.525 1.15 3.789 2.115.212.771.093 1.51-.343 2.131l-.021.029h5.885c1.842.004 2.803 1.574 2.803 3.123a3.695 3.695 0 0 1-.251 1.334c1.624.484 2.466 1.924 2.464 3.35 0 1.32-.73 2.654-2.138 3.219.208.467.313.988.312 1.51 0 1.42-.791 2.854-2.309 3.129.082.275.123.559.123.84 0 1.583-1.267 3.22-3.384 3.22m-6.93-22.03c-.787 0-1.75.119-2.862.354-2.753.582-3.5.936-4.986 1.648-3.646 1.742-4.661 4.67-4.871 6.818-.37 3.793 1.494 7.645 3.511 9.174 2.736 2.078 4.791 2.078 7.637 2.078h8.502c1.075 0 1.476-.773 1.477-1.26 0-.51-.362-.795-1.02-.797h-.002c-.527 0-.954-.441-.953-.982.002-.541.429-.98.955-.98h.002l2.265.006c.911 0 .938-1.09.938-1.215s-.025-1.229-.949-1.23c-.526 0-.953-.439-.952-.982 0-.543.428-.982.954-.982h1c1.309 0 1.771-.826 1.771-1.533.001-.717-.465-1.553-1.778-1.557l-1.355-.002.003-1.965c.872 0 .917-.967.918-1.16 0-.119-.025-1.156-.895-1.158h-11.09a.965.965 0 0 1-.954-.957c-.014-.533.39-.979.907-1 1.211-.063 3.232-.479 3.724-1.18.077-.109.116-.229.054-.451-.162-.595-1.292-.683-1.952-.683"/><path d="M25.958 48.52h-8.682c-.525 0-.954-.439-.954-.982 0-.541.429-.982.954-.982h8.682c.526 0 .954.441.954.982a.967.967 0 0 1-.954.982M26.318 53.58h-9.04c-.525 0-.954-.439-.954-.982 0-.541.429-.982.954-.982h9.04c.527 0 .955.441.955.982a.969.969 0 0 1-.955.982M24.06 57.98h-6.783c-.525 0-.954-.439-.954-.98s.429-.982.954-.982h6.783c.526 0 .953.441.953.982s-.427.98-.953.98"/></g><path fill="#fff" d="M36.679 52.596h1c-2.533.004-2.539 4.412-.006 4.41L39.936 57c-2.924.006-2.461 4.02.463 4.02h8.494c3.037 0 5.264-.037 8.203-2.27 4.229-3.211 6.783-13.701-1.523-17.676-1.562-.746-2.373-1.121-5.196-1.719-2.373-.5-5.434-.771-5.926 1.025-.716 2.619 4.653 2.877 4.653 2.877h-11.09c-2.465.002-2.473 4.285.025 4.281l-1.357.002c-3.639.009-3.643 5.064-.006 5.056"/><g fill="#a5b3b2"><path d="M40.4 62c-2.119 0-3.385-1.637-3.387-3.221 0-.281.043-.566.125-.84-1.52-.277-2.311-1.711-2.313-3.129 0-.521.105-1.045.316-1.512-1.41-.564-2.139-1.896-2.14-3.219 0-1.424.839-2.863 2.464-3.348a3.696 3.696 0 0 1-.252-1.334c0-1.549.963-3.119 2.803-3.123h5.887c-.006-.01-.015-.02-.021-.029-.437-.621-.556-1.359-.344-2.131.265-.964 1.137-2.114 3.791-2.114.916 0 2.01.133 3.247.396 2.85.6 3.718.98 5.404 1.789 3.483 1.664 5.6 4.648 5.968 8.402.4 4.088-1.438 8.799-4.276 10.953C54.432 62 51.87 62 48.9 62h-8.5m-.459-4.02c-.656.002-1.018.287-1.018.797.002.486.4 1.26 1.477 1.26v.982l.004-.982H48.9c2.847 0 4.901 0 7.637-2.078 2.02-1.529 3.882-5.381 3.512-9.174-.208-2.148-1.224-5.076-4.871-6.818-1.486-.713-2.233-1.066-4.986-1.648-1.11-.234-2.073-.354-2.862-.354-.659 0-1.788.088-1.952.682-.061.223-.022.342.055.451.491.701 2.513 1.117 3.724 1.18a.964.964 0 0 1 .906 1 .962.962 0 0 1-.95.957h-11.09c-.871.002-.895 1.039-.895 1.158 0 .193.045 1.16.916 1.16h.004c.527 0 .953.439.953.982a.97.97 0 0 1-.902.982h-.002-.004-.004-.004-.01-.004-.002-.002-.006-.014l-1.355.002c-1.314.004-1.779.84-1.779 1.555.002.709.463 1.535 1.764 1.535h1.012c.525 0 .953.439.955.982a.969.969 0 0 1-.955.982c-.922.002-.949 1.104-.949 1.23 0 .125.027 1.215.938 1.215l2.268-.006h.002c.526 0 .953.439.955.98 0 .541-.427.982-.953.982h-.006z"/><path d="M46.724 48.52h-8.682a.969.969 0 0 1-.955-.982c0-.541.428-.982.955-.982h8.682c.525 0 .952.441.952.982 0 .543-.427.982-.952.982M46.724 53.58h-9.04a.969.969 0 0 1-.955-.982c0-.541.428-.982.955-.982h9.04c.525 0 .952.441.952.982 0 .543-.427.982-.952.982M46.724 57.98H39.94c-.529 0-.955-.439-.955-.98s.426-.982.955-.982h6.783c.525 0 .952.441.952.982s-.426.98-.951.98"/></g><g fill="#664e27"><path d="M25.613 14.895c-3.751-4.839-11.834-3.414-13.701 2.416-.111.355.415.744 1.022 1.02a9.819 9.819 0 0 1 12.06-2.127c.477-.469.839-1.014.614-1.309M46.909 11.14c-3.751-4.84-11.833-3.414-13.703 2.415-.11.356.415.746 1.022 1.021a9.83 9.83 0 0 1 12.07-2.128c.477-.468.839-1.012.615-1.308"/></g></svg>