<svg xmlns="http://www.w3.org/2000/svg" viewBox="0 0 64 64"><path fill="#e8e8e8" d="M23.13 62h-4.667a.938.938 0 0 1-.934-.938v-1.875a.94.94 0 0 1 .934-.938h4.667a.94.94 0 0 1 .934.938v1.875a.939.939 0 0 1-.934.938"/><path fill="#62727a" d="M23.13 61.53c.257 0 .467-.21.467-.469v-1.875a.469.469 0 0 0-.467-.469h-4.667a.47.47 0 0 0-.467.469v1.875c0 .259.209.469.467.469h4.667"/><g fill="#e8e8e8"><path d="M23.13 58.25h-4.667a.938.938 0 0 1-.934-.938v-1.875a.94.94 0 0 1 .934-.938h4.667a.94.94 0 0 1 .934.938v1.875a.939.939 0 0 1-.934.938"/><path d="M23.13 54.5h-4.667a.938.938 0 0 1-.934-.938v-1.875a.94.94 0 0 1 .934-.938h4.667a.94.94 0 0 1 .934.938v1.875a.939.939 0 0 1-.934.938"/><path d="M23.13 50.75h-4.667a.938.938 0 0 1-.934-.938v-1.875a.94.94 0 0 1 .934-.938h4.667a.94.94 0 0 1 .934.938v1.875a.939.939 0 0 1-.934.938M42.733 62h-4.667a.938.938 0 0 1-.933-.938v-1.875c0-.515.42-.938.933-.938h4.667a.94.94 0 0 1 .934.938v1.875c0 .517-.42.938-.934.938"/><path d="M42.733 58.25h-4.667a.938.938 0 0 1-.933-.938v-1.875c0-.515.42-.938.933-.938h4.667a.94.94 0 0 1 .934.938v1.875c0 .517-.42.938-.934.938"/><path d="M42.733 54.5h-4.667a.938.938 0 0 1-.933-.938v-1.875c0-.515.42-.938.933-.938h4.667a.94.94 0 0 1 .934.938v1.875c0 .517-.42.938-.934.938"/><path d="M42.733 50.75h-4.667a.938.938 0 0 1-.933-.938v-1.875c0-.515.42-.938.933-.938h4.667a.94.94 0 0 1 .934.938v1.875c0 .517-.42.938-.934.938M37.13 57.31a.94.94 0 0 0-.934-.938H24.997a.939.939 0 0 0-.933.938v3.75c0 .517.42.938.933.938h11.199a.939.939 0 0 0 .934-.938v-3.75"/></g><path fill="#62727a" d="M36.2 61.53c.257 0 .467-.21.467-.469v-3.75a.47.47 0 0 0-.467-.469H25.001a.469.469 0 0 0-.467.469v3.75c0 .259.208.469.467.469H36.2"/><path fill="#e8e8e8" d="M37.13 51.688a.94.94 0 0 0-.934-.938H24.997a.939.939 0 0 0-.933.938v3.75c0 .517.42.938.933.938h11.199a.939.939 0 0 0 .934-.938v-3.75"/><path fill="#fff" d="M18 60.13v-.938c0-.258.209-.469.467-.469h4.667a.47.47 0 0 1 .467.469v.938H18"/><path fill="#62727a" d="M23.13 57.781c.257 0 .467-.21.467-.469v-1.875a.469.469 0 0 0-.467-.469h-4.667a.47.47 0 0 0-.467.469v1.875c0 .259.209.469.467.469h4.667"/><path fill="#fff" d="M18 56.38v-.938c0-.258.209-.469.467-.469h4.667a.47.47 0 0 1 .467.469v.938H18"/><path fill="#62727a" d="M23.13 54.03c.257 0 .467-.21.467-.469v-1.875a.469.469 0 0 0-.467-.469h-4.667a.47.47 0 0 0-.467.469v1.875c0 .259.209.469.467.469h4.667"/><path fill="#fff" d="M18 52.625v-.938c0-.258.209-.469.467-.469h4.667a.47.47 0 0 1 .467.469v.938H18"/><path fill="#62727a" d="M23.13 50.28c.257 0 .467-.21.467-.469v-1.875a.469.469 0 0 0-.467-.469h-4.667a.47.47 0 0 0-.467.469v1.875c0 .259.209.469.467.469h4.667"/><path fill="#fff" d="M18 48.875v-.938c0-.258.209-.469.467-.469h4.667a.47.47 0 0 1 .467.469v.938H18"/><path fill="#62727a" d="M42.733 61.53c.257 0 .467-.21.467-.469v-1.875a.47.47 0 0 0-.467-.469h-4.667a.47.47 0 0 0-.467.469v1.875c0 .259.21.469.467.469h4.667"/><path fill="#fff" d="M37.6 60.13v-.938a.47.47 0 0 1 .467-.469h4.667a.47.47 0 0 1 .467.469v.938H37.6"/><path fill="#62727a" d="M42.733 57.781c.257 0 .467-.21.467-.469v-1.875a.47.47 0 0 0-.467-.469h-4.667a.47.47 0 0 0-.467.469v1.875c0 .259.21.469.467.469h4.667"/><path fill="#fff" d="M37.6 56.38v-.938a.47.47 0 0 1 .467-.469h4.667a.47.47 0 0 1 .467.469v.938H37.6"/><path fill="#62727a" d="M42.733 54.03c.257 0 .467-.21.467-.469v-1.875a.47.47 0 0 0-.467-.469h-4.667a.47.47 0 0 0-.467.469v1.875c0 .259.21.469.467.469h4.667"/><path fill="#fff" d="M37.6 52.625v-.938a.47.47 0 0 1 .467-.469h4.667a.47.47 0 0 1 .467.469v.938H37.6"/><path fill="#62727a" d="M42.733 50.28c.257 0 .467-.21.467-.469v-1.875a.47.47 0 0 0-.467-.469h-4.667a.47.47 0 0 0-.467.469v1.875c0 .259.21.469.467.469h4.667"/><g fill="#fff"><path d="M37.6 48.875v-.938a.47.47 0 0 1 .467-.469h4.667a.47.47 0 0 1 .467.469v.938H37.6M24.534 59.11v-1.797c0-.258.208-.469.467-.469H36.2a.47.47 0 0 1 .467.469v1.797H24.534"/></g><path fill="#62727a" d="M36.2 55.906c.257 0 .467-.21.467-.469v-3.75a.47.47 0 0 0-.467-.469H25.001a.469.469 0 0 0-.467.469v3.75c0 .259.208.469.467.469H36.2"/><path fill="#fff" d="M24.534 53.48v-1.797c0-.258.208-.469.467-.469H36.2a.47.47 0 0 1 .467.469v1.797H24.534"/><path fill="#e8e8e8" d="M23.13 2h-4.667a.938.938 0 0 0-.934.938v1.875c0 .516.42.938.934.938h4.667a.94.94 0 0 0 .934-.938V2.938A.94.94 0 0 0 23.13 2"/><path fill="#fff" d="M18.467 2.469a.468.468 0 0 0-.467.469v1.875c0 .259.209.469.467.469h4.667a.468.468 0 0 0 .467-.469V2.938a.469.469 0 0 0-.467-.469h-4.667"/><g fill="#e8e8e8"><path d="M23.13 5.75h-4.667a.938.938 0 0 0-.934.938v1.875c0 .516.42.938.934.938h4.667a.94.94 0 0 0 .934-.938V6.688a.94.94 0 0 0-.934-.938"/><path d="M23.13 9.5h-4.667a.938.938 0 0 0-.934.938v1.875c0 .516.42.938.934.938h4.667a.94.94 0 0 0 .934-.938v-1.875a.94.94 0 0 0-.934-.938"/><path d="M23.13 13.25h-4.667a.938.938 0 0 0-.934.938v1.875c0 .516.42.938.934.938h4.667a.94.94 0 0 0 .934-.938v-1.875a.94.94 0 0 0-.934-.938M42.733 2h-4.667a.938.938 0 0 0-.933.938v1.875c0 .516.42.938.933.938h4.667a.938.938 0 0 0 .934-.938V2.938A.938.938 0 0 0 42.733 2"/><path d="M42.733 5.75h-4.667a.938.938 0 0 0-.933.938v1.875c0 .516.42.938.933.938h4.667a.938.938 0 0 0 .934-.938V6.688a.938.938 0 0 0-.934-.938"/><path d="M42.733 9.5h-4.667a.938.938 0 0 0-.933.938v1.875c0 .516.42.938.933.938h4.667a.938.938 0 0 0 .934-.938v-1.875a.938.938 0 0 0-.934-.938"/><path d="M42.733 13.25h-4.667a.938.938 0 0 0-.933.938v1.875c0 .516.42.938.933.938h4.667a.938.938 0 0 0 .934-.938v-1.875a.938.938 0 0 0-.934-.938M37.13 6.688a.94.94 0 0 1-.934.938H24.997a.938.938 0 0 1-.933-.938v-3.75c0-.516.42-.938.933-.938h11.199a.94.94 0 0 1 .934.938v3.75"/></g><path fill="#fff" d="M25 2.469a.468.468 0 0 0-.467.469v3.75c0 .259.208.469.467.469h11.199a.468.468 0 0 0 .467-.469v-3.75a.47.47 0 0 0-.467-.469H25"/><path fill="#e8e8e8" d="M37.13 12.313a.94.94 0 0 1-.934.938H24.997a.938.938 0 0 1-.933-.938v-3.75c0-.516.42-.938.933-.938h11.199a.94.94 0 0 1 .934.938v3.75"/><path fill="#62727a" d="M18 3.875v.938c0 .259.209.469.467.469h4.667a.468.468 0 0 0 .467-.469v-.938H18"/><path fill="#fff" d="M18.467 6.219a.468.468 0 0 0-.467.469v1.875c0 .259.209.469.467.469h4.667a.468.468 0 0 0 .467-.469V6.688a.469.469 0 0 0-.467-.469h-4.667"/><path fill="#62727a" d="M18 7.625v.938c0 .259.209.469.467.469h4.667a.468.468 0 0 0 .467-.469v-.938H18"/><path fill="#fff" d="M18.467 9.969a.469.469 0 0 0-.467.469v1.875c0 .259.209.469.467.469h4.667a.468.468 0 0 0 .467-.469v-1.875a.469.469 0 0 0-.467-.469h-4.667"/><path fill="#62727a" d="M18 11.375v.938c0 .259.209.469.467.469h4.667a.468.468 0 0 0 .467-.469v-.938H18"/><path fill="#fff" d="M18.467 13.719a.469.469 0 0 0-.467.469v1.875c0 .259.209.469.467.469h4.667a.468.468 0 0 0 .467-.469v-1.875a.469.469 0 0 0-.467-.469h-4.667"/><path fill="#62727a" d="M18 15.13v.938c0 .259.209.469.467.469h4.667a.468.468 0 0 0 .467-.469v-.938H18"/><path fill="#fff" d="M38.07 2.469a.469.469 0 0 0-.467.469v1.875c0 .259.21.469.467.469h4.667a.468.468 0 0 0 .467-.469V2.938a.47.47 0 0 0-.467-.469H38.07"/><path fill="#62727a" d="M37.6 3.875v.938c0 .259.21.469.467.469h4.667a.468.468 0 0 0 .467-.469v-.938H37.6"/><path fill="#fff" d="M38.07 6.219a.469.469 0 0 0-.467.469v1.875c0 .259.21.469.467.469h4.667a.468.468 0 0 0 .467-.469V6.688a.47.47 0 0 0-.467-.469H38.07"/><path fill="#62727a" d="M37.6 7.625v.938c0 .259.21.469.467.469h4.667a.468.468 0 0 0 .467-.469v-.938H37.6"/><path fill="#fff" d="M38.07 9.969a.469.469 0 0 0-.467.469v1.875c0 .259.21.469.467.469h4.667a.468.468 0 0 0 .467-.469v-1.875a.47.47 0 0 0-.467-.469H38.07"/><path fill="#62727a" d="M37.6 11.375v.938c0 .259.21.469.467.469h4.667a.468.468 0 0 0 .467-.469v-.938H37.6"/><path fill="#fff" d="M38.07 13.719a.469.469 0 0 0-.467.469v1.875c0 .259.21.469.467.469h4.667a.468.468 0 0 0 .467-.469v-1.875a.47.47 0 0 0-.467-.469H38.07"/><g fill="#62727a"><path d="M37.6 15.13v.938c0 .259.21.469.467.469h4.667a.468.468 0 0 0 .467-.469v-.938H37.6M24.534 4.891v1.796c0 .259.208.469.467.469H36.2a.468.468 0 0 0 .467-.469V4.891H24.534"/></g><path fill="#fff" d="M25 8.094a.468.468 0 0 0-.467.469v3.75c0 .259.208.469.467.469h11.199a.468.468 0 0 0 .467-.469v-3.75a.47.47 0 0 0-.467-.469H25"/><path fill="#62727a" d="M24.534 10.516v1.796c0 .259.208.469.467.469H36.2a.468.468 0 0 0 .467-.469v-1.796H24.534"/><path fill="#e8e8e8" d="M52.07 28.25h-2.8v7.5h2.8a.938.938 0 0 0 .934-.938v-5.625a.938.938 0 0 0-.934-.937"/><ellipse fill="#62727a" cx="30.6" cy="32" rx="19.6" ry="19.688"/><ellipse fill="#3e4347" cx="30.6" cy="32" rx="16.8" ry="16.875"/><g fill="#62727a"><path d="M49.27 29.656h3.733v.938H49.27zM49.27 31.531h3.733v.938H49.27zM49.27 33.406h3.733v.938H49.27z"/></g><g fill="#e8e8e8"><ellipse cx="30.6" cy="32" rx="1.867" ry="1.875"/><path d="M31.484 24.401c-.13-.499-.417-1.261-.417-1.776v-2.813c0-.516-.21-2.813-.467-2.813s-.467 2.297-.467 2.813v2.813c0 .516-.287 1.277-.417 1.776-.183.704-.049 1.036-.049 2.911v2.813c0 .516.42.938.934.938a.938.938 0 0 0 .933-.938v-2.813c-.001-1.874.133-2.207-.05-2.911"/><path d="M29.325 32.34l.935-1.621 8.08 4.688-.932 1.623z"/></g><circle fill="#62727a" cx="30.6" cy="32" r=".933"/><g fill="#fff"><circle cx="30.6" cy="15.13" r=".933"/><circle cx="22.2" cy="17.386" r=".934"/><circle cx="16.05" cy="23.563" r=".937"/><circle cx="13.8" cy="32" r=".938"/><path d="M15.585 39.626a.93.93 0 0 1 1.273.343.94.94 0 0 1-.34 1.281.93.93 0 0 1-1.274-.342.938.938 0 0 1 .341-1.282M21.394 46.15a.93.93 0 0 1 1.273-.344c.447.26.6.833.343 1.281a.929.929 0 0 1-1.274.343.933.933 0 0 1-.342-1.28M29.668 48.875a.934.934 0 1 1 1.867.001.935.935 0 0 1-.933.936.93.93 0 0 1-.934-.937"/><circle cx="39" cy="46.614" r=".934"/><circle cx="45.15" cy="40.44" r=".936"/><circle cx="47.4" cy="31.999" r=".938"/><path d="M45.616 24.374a.93.93 0 0 1-1.274-.342.941.941 0 0 1 .342-1.282.937.937 0 0 1 .932 1.624M39.809 17.854a.93.93 0 0 1-1.275.343.94.94 0 0 1-.341-1.281.932.932 0 0 1 1.274-.343c.448.26.601.832.342 1.281"/></g></svg>