<svg xmlns="http://www.w3.org/2000/svg" viewBox="0 0 64 64"><path fill="#94989b" d="M52.895 30.641c.017-.299.325-7.366-3.922-11.835-2.202-2.315-5.223-3.491-8.978-3.492-4.928 0-8.428-2.388-10.402-7.1C28.098 4.644 28.081 0 28.081 0h-.986s.146 16.301 12.9 16.301c3.475 0 6.254 1.072 8.262 3.185 3.958 4.164 3.657 11.04 3.651 11.1l.987.052"/><path fill="#d0d0d0" d="M64 53c0 1.656-1.344 3-3 3H3c-1.656 0-3-1.344-3-3V32c0-1.656 1.344-3 3-3h58c1.656 0 3 1.344 3 3v21z"/><g fill="#94989b"><path d="M6.5 38.801a1 1 0 0 1-1 1h-2a1 1 0 0 1-1-1h4M11.5 38.801a1 1 0 0 1-1 1h-2a1 1 0 0 1-1-1h4M16.5 38.801a1 1 0 0 1-1 1h-2a1 1 0 0 1-1-1h4M21.5 38.801a1 1 0 0 1-1 1h-2a1 1 0 0 1-1-1h4M26.5 38.801a1 1 0 0 1-1 1h-2a1 1 0 0 1-1-1h4M31.5 38.801a1 1 0 0 1-1 1h-2a1 1 0 0 1-1-1h4M36.5 38.801a1 1 0 0 1-1 1h-2a1 1 0 0 1-1-1h4M41.5 38.801a1 1 0 0 1-1 1h-2a1 1 0 0 1-1-1h4M46.5 38.801a1 1 0 0 1-1 1h-2a1 1 0 0 1-1-1h4M51.5 38.801a1 1 0 0 1-1 1h-2a1 1 0 0 1-1-1h4M61.5 38.801a1 1 0 0 1-1 1h-7a1 1 0 0 1-1-1h9M11.5 48.801a1 1 0 0 1-1 1h-7a1 1 0 0 1-1-1h9M16.5 48.801a1 1 0 0 1-1 1h-2a1 1 0 0 1-1-1h4M21.5 48.801a1 1 0 0 1-1 1h-2a1 1 0 0 1-1-1h4M26.5 48.801a1 1 0 0 1-1 1h-2a1 1 0 0 1-1-1h4M31.5 48.801a1 1 0 0 1-1 1h-2a1 1 0 0 1-1-1h4M36.5 48.801a1 1 0 0 1-1 1h-2a1 1 0 0 1-1-1h4M41.5 48.801a1 1 0 0 1-1 1h-2a1 1 0 0 1-1-1h4M46.5 48.801a1 1 0 0 1-1 1h-2a1 1 0 0 1-1-1h4M51.5 48.801a1 1 0 0 1-1 1h-2a1 1 0 0 1-1-1h4M61.5 48.801a1 1 0 0 1-1 1h-7a1 1 0 0 1-1-1h9M9 43.801a1 1 0 0 1-1 1H3.5a1 1 0 0 1-1-1H9M14 43.801a1 1 0 0 1-1 1h-2a1 1 0 0 1-1-1h4M19 43.801a1 1 0 0 1-1 1h-2a1 1 0 0 1-1-1h4M24 43.801a1 1 0 0 1-1 1h-2a1 1 0 0 1-1-1h4M29 43.801a1 1 0 0 1-1 1h-2a1 1 0 0 1-1-1h4M34 43.801a1 1 0 0 1-1 1h-2a1 1 0 0 1-1-1h4M39 43.801a1 1 0 0 1-1 1h-2a1 1 0 0 1-1-1h4M44 43.801a1 1 0 0 1-1 1h-2a1 1 0 0 1-1-1h4M49 43.801a1 1 0 0 1-1 1h-2a1 1 0 0 1-1-1h4M54 43.801a1 1 0 0 1-1 1h-2a1 1 0 0 1-1-1h4M61.5 43.801a1 1 0 0 1-1 1H56a1 1 0 0 1-1-1h6.5M9 53.801a1 1 0 0 1-1 1H3.5a1 1 0 0 1-1-1H9M14 53.801a1 1 0 0 1-1 1h-2a1 1 0 0 1-1-1h4M19 53.801a1 1 0 0 1-1 1h-2a1 1 0 0 1-1-1h4M44 53.801a1 1 0 0 1-1 1H21a1 1 0 0 1-1-1h24M49 53.801a1 1 0 0 1-1 1h-2a1 1 0 0 1-1-1h4M57.9 51.34c0 .553-.426 1-.95 1h-1.9c-.524 0-.95-.447-.95-1h3.8M57.9 53.756c0 .553-.426 1-.951 1H55.05c-.524 0-.95-.447-.95-1h3.8M53.588 53.756c0 .553-.426 1-.95 1h-1.9c-.524 0-.95-.447-.95-1h3.8M62.15 53.756c0 .553-.426 1-.95 1h-1.9c-.524 0-.95-.447-.95-1h3.8M6.5 33.801a1 1 0 0 1-1 1h-2a1 1 0 0 1-1-1h4M11.5 33.801a1 1 0 0 1-1 1h-2a1 1 0 0 1-1-1h4M16.5 33.801a1 1 0 0 1-1 1h-2a1 1 0 0 1-1-1h4M21.5 33.801a1 1 0 0 1-1 1h-2a1 1 0 0 1-1-1h4M26.5 33.801a1 1 0 0 1-1 1h-2a1 1 0 0 1-1-1h4M31.5 33.801a1 1 0 0 1-1 1h-2a1 1 0 0 1-1-1h4M36.5 33.801a1 1 0 0 1-1 1h-2a1 1 0 0 1-1-1h4M41.5 33.801a1 1 0 0 1-1 1h-2a1 1 0 0 1-1-1h4M46.5 33.801a1 1 0 0 1-1 1h-2a1 1 0 0 1-1-1h4M51.5 33.801a1 1 0 0 1-1 1h-2a1 1 0 0 1-1-1h4M56.5 33.801a1 1 0 0 1-1 1h-2a1 1 0 0 1-1-1h4M61.5 33.801a1 1 0 0 1-1 1h-2a1 1 0 0 1-1-1h4"/></g><g fill="#fff"><path d="M6.5 38.539a1 1 0 0 1-1 1h-2a1 1 0 0 1-1-1v-2a1 1 0 0 1 1-1h2a1 1 0 0 1 1 1v2M11.5 38.539a1 1 0 0 1-1 1h-2a1 1 0 0 1-1-1v-2a1 1 0 0 1 1-1h2a1 1 0 0 1 1 1v2M16.5 38.539a1 1 0 0 1-1 1h-2a1 1 0 0 1-1-1v-2a1 1 0 0 1 1-1h2a1 1 0 0 1 1 1v2M21.5 38.539a1 1 0 0 1-1 1h-2a1 1 0 0 1-1-1v-2a1 1 0 0 1 1-1h2a1 1 0 0 1 1 1v2M26.5 38.539a1 1 0 0 1-1 1h-2a1 1 0 0 1-1-1v-2a1 1 0 0 1 1-1h2a1 1 0 0 1 1 1v2M31.5 38.539a1 1 0 0 1-1 1h-2a1 1 0 0 1-1-1v-2a1 1 0 0 1 1-1h2a1 1 0 0 1 1 1v2M36.5 38.539a1 1 0 0 1-1 1h-2a1 1 0 0 1-1-1v-2a1 1 0 0 1 1-1h2a1 1 0 0 1 1 1v2M41.5 38.539a1 1 0 0 1-1 1h-2a1 1 0 0 1-1-1v-2a1 1 0 0 1 1-1h2a1 1 0 0 1 1 1v2M46.5 38.539a1 1 0 0 1-1 1h-2a1 1 0 0 1-1-1v-2a1 1 0 0 1 1-1h2a1 1 0 0 1 1 1v2M51.5 38.539a1 1 0 0 1-1 1h-2a1 1 0 0 1-1-1v-2a1 1 0 0 1 1-1h2a1 1 0 0 1 1 1v2M61.5 38.539a1 1 0 0 1-1 1h-7a1 1 0 0 1-1-1v-2a1 1 0 0 1 1-1h7a1 1 0 0 1 1 1v2M11.5 48.539a1 1 0 0 1-1 1h-7a1 1 0 0 1-1-1v-2a1 1 0 0 1 1-1h7a1 1 0 0 1 1 1v2M16.5 48.539a1 1 0 0 1-1 1h-2a1 1 0 0 1-1-1v-2a1 1 0 0 1 1-1h2a1 1 0 0 1 1 1v2M21.5 48.539a1 1 0 0 1-1 1h-2a1 1 0 0 1-1-1v-2a1 1 0 0 1 1-1h2a1 1 0 0 1 1 1v2M26.5 48.539a1 1 0 0 1-1 1h-2a1 1 0 0 1-1-1v-2a1 1 0 0 1 1-1h2a1 1 0 0 1 1 1v2M31.5 48.539a1 1 0 0 1-1 1h-2a1 1 0 0 1-1-1v-2a1 1 0 0 1 1-1h2a1 1 0 0 1 1 1v2M36.5 48.539a1 1 0 0 1-1 1h-2a1 1 0 0 1-1-1v-2a1 1 0 0 1 1-1h2a1 1 0 0 1 1 1v2M41.5 48.539a1 1 0 0 1-1 1h-2a1 1 0 0 1-1-1v-2a1 1 0 0 1 1-1h2a1 1 0 0 1 1 1v2M46.5 48.539a1 1 0 0 1-1 1h-2a1 1 0 0 1-1-1v-2a1 1 0 0 1 1-1h2a1 1 0 0 1 1 1v2M51.5 48.539a1 1 0 0 1-1 1h-2a1 1 0 0 1-1-1v-2a1 1 0 0 1 1-1h2a1 1 0 0 1 1 1v2M61.5 48.539a1 1 0 0 1-1 1h-7a1 1 0 0 1-1-1v-2a1 1 0 0 1 1-1h7a1 1 0 0 1 1 1v2M9 43.539a1 1 0 0 1-1 1H3.5a1 1 0 0 1-1-1v-2a1 1 0 0 1 1-1H8a1 1 0 0 1 1 1v2M14 43.539a1 1 0 0 1-1 1h-2a1 1 0 0 1-1-1v-2a1 1 0 0 1 1-1h2a1 1 0 0 1 1 1v2M19 43.539a1 1 0 0 1-1 1h-2a1 1 0 0 1-1-1v-2a1 1 0 0 1 1-1h2a1 1 0 0 1 1 1v2M24 43.539a1 1 0 0 1-1 1h-2a1 1 0 0 1-1-1v-2a1 1 0 0 1 1-1h2a1 1 0 0 1 1 1v2M29 43.539a1 1 0 0 1-1 1h-2a1 1 0 0 1-1-1v-2a1 1 0 0 1 1-1h2a1 1 0 0 1 1 1v2M34 43.539a1 1 0 0 1-1 1h-2a1 1 0 0 1-1-1v-2a1 1 0 0 1 1-1h2a1 1 0 0 1 1 1v2M39 43.539a1 1 0 0 1-1 1h-2a1 1 0 0 1-1-1v-2a1 1 0 0 1 1-1h2a1 1 0 0 1 1 1v2M44 43.539a1 1 0 0 1-1 1h-2a1 1 0 0 1-1-1v-2a1 1 0 0 1 1-1h2a1 1 0 0 1 1 1v2M49 43.539a1 1 0 0 1-1 1h-2a1 1 0 0 1-1-1v-2a1 1 0 0 1 1-1h2a1 1 0 0 1 1 1v2M54 43.539a1 1 0 0 1-1 1h-2a1 1 0 0 1-1-1v-2a1 1 0 0 1 1-1h2a1 1 0 0 1 1 1v2M61.5 43.539a1 1 0 0 1-1 1H56a1 1 0 0 1-1-1v-2a1 1 0 0 1 1-1h4.5a1 1 0 0 1 1 1v2M9 53.54a1 1 0 0 1-1 1H3.5a1 1 0 0 1-1-1v-2a1 1 0 0 1 1-1H8a1 1 0 0 1 1 1v2M14 53.54a1 1 0 0 1-1 1h-2a1 1 0 0 1-1-1v-2a1 1 0 0 1 1-1h2a1 1 0 0 1 1 1v2M19 53.54a1 1 0 0 1-1 1h-2a1 1 0 0 1-1-1v-2a1 1 0 0 1 1-1h2a1 1 0 0 1 1 1v2M44 53.54a1 1 0 0 1-1 1H21a1 1 0 0 1-1-1v-2a1 1 0 0 1 1-1h22a1 1 0 0 1 1 1v2M49 53.54a1 1 0 0 1-1 1h-2a1 1 0 0 1-1-1v-2a1 1 0 0 1 1-1h2a1 1 0 0 1 1 1v2M56.924 52.08h-1.848c-1.436 0-1.436-2.205 0-2.205h1.848c1.434 0 1.434 2.205 0 2.205M56.924 54.49h-1.848c-1.436 0-1.436-2.205 0-2.205h1.848c1.434 0 1.434 2.205 0 2.205"/><path d="M52.611 54.49h-1.848c-1.436 0-1.436-2.205 0-2.205h1.848c1.435 0 1.435 2.205 0 2.205M61.17 54.49h-1.848c-1.435 0-1.435-2.205 0-2.205h1.848c1.435 0 1.435 2.205 0 2.205M5.5 34.539h-2c-1.552 0-1.552-2.266 0-2.266h2c1.553 0 1.553 2.266 0 2.266"/><path d="M10.5 34.539h-2c-1.552 0-1.552-2.266 0-2.266h2c1.553 0 1.553 2.266 0 2.266"/><path d="M15.5 34.539h-2c-1.552 0-1.552-2.266 0-2.266h2c1.553 0 1.553 2.266 0 2.266"/><path d="M20.5 34.539h-2c-1.552 0-1.552-2.266 0-2.266h2c1.553 0 1.553 2.266 0 2.266"/><path d="M25.5 34.539h-2c-1.553 0-1.553-2.266 0-2.266h2c1.553 0 1.553 2.266 0 2.266"/><path d="M30.5 34.539h-2c-1.553 0-1.553-2.266 0-2.266h2c1.553 0 1.553 2.266 0 2.266"/><path d="M35.5 34.539h-2c-1.553 0-1.553-2.266 0-2.266h2c1.553 0 1.553 2.266 0 2.266"/><path d="M40.5 34.539h-2c-1.553 0-1.553-2.266 0-2.266h2c1.553 0 1.553 2.266 0 2.266"/><path d="M45.5 34.539h-2c-1.553 0-1.553-2.266 0-2.266h2c1.553 0 1.553 2.266 0 2.266"/><path d="M50.5 34.539h-2c-1.553 0-1.553-2.266 0-2.266h2c1.553 0 1.553 2.266 0 2.266"/><path d="M55.5 34.539h-2c-1.553 0-1.553-2.266 0-2.266h2c1.553 0 1.553 2.266 0 2.266"/><path d="M60.5 34.539h-2c-1.553 0-1.553-2.266 0-2.266h2c1.553 0 1.553 2.266 0 2.266"/></g></svg>