<svg xmlns="http://www.w3.org/2000/svg" viewBox="0 0 64 64"><g fill="#3e4347"><path d="M12 52c0 2.2-1.8 3.999-4 3.999H4c-2.2 0-4-1.799-4-3.999V12c0-2.2 1.8-3.999 4-3.999h4c2.2 0 4 1.799 4 3.999v40M60.96 8.972c1.671-1.691 3.039-1.119 3.039 1.274v43.506c0 2.394-1.368 2.966-3.039 1.274l-19.708-19.95c-1.671-1.692-1.671-4.46 0-6.152L60.96 8.972"/><path d="M36.96 8.972c1.671-1.692 3.039-1.118 3.039 1.275v43.505c0 2.394-1.368 2.967-3.039 1.275L17.253 35.076c-1.671-1.692-1.671-4.46 0-6.152L36.96 8.972"/></g></svg>