<svg xmlns="http://www.w3.org/2000/svg" viewBox="0 0 64 64"><ellipse fill="#428bc1" cx="32.08" cy="36.02" rx="27" ry="26.985"/><ellipse fill="#fff" cx="32.08" cy="36.02" rx="21" ry="20.988"/><g fill="#428bc1"><path d="M9.539 49.38L7.082 63.997h2c1.25 0 1.711-1.459 2.524-3.277 1.035-2.314 3.686-8.455 3.686-8.455L9.539 49.38M54.626 49.38l2.455 14.617h-2c-1.25 0-1.709-1.459-2.523-3.277-1.037-2.314-3.686-8.455-3.686-8.455l5.754-2.885M11.94 8.753l6.289 6.327-3.316 3.341-6.29-6.331zM52.22 8.753l-6.285 6.327 3.315 3.341 6.29-6.331z"/></g><path fill="#94989b" d="M3.791 23.02L22.724 3.97a13.305 13.305 0 0 0-9.489-3.971C5.84-.001-.154 6.029-.154 13.473a13.47 13.47 0 0 0 3.945 9.55"/><path fill="#d0d0d0" d="M11.396 1.84C5.01.83.658 5.222 1.673 11.646c.51 3.223 2.272 6.347 4.711 8.785L20.131 6.563c-2.428-2.448-5.533-4.217-8.735-4.723"/><path fill="#94989b" d="M41.13 4.02l19.05 18.933a13.303 13.303 0 0 0 3.97-9.488c0-7.396-6.03-13.39-13.473-13.389a13.458 13.458 0 0 0-9.551 3.944"/><path fill="#d0d0d0" d="M62.31 11.624C63.32 5.238 58.928.886 52.503 1.9c-3.224.51-6.347 2.273-8.786 4.711l13.869 13.747c2.449-2.427 4.219-5.533 4.724-8.734"/><path fill="#ed4c5c" d="M19.772 47.527L30.842 36.4l1.243 1.246-11.06 11.135z"/><g fill="#428bc1"><circle cx="32.08" cy="36.02" r="4"/><path d="M30.08 21.02h4v15.991h-4zM34.08 34.02h8v3.997h-8z"/></g></svg>