<svg xmlns="http://www.w3.org/2000/svg" viewBox="0 0 64 64"><path fill="#d0d0d0" d="M32 0a6 6 0 1 0 0 12 6 6 0 0 0 0-12m0 10.285a4.286 4.286 0 1 1 0-8.572 4.286 4.286 0 0 1 0 8.572"/><path fill="#4e5c66" d="M30.513 8.604h2.975v6.543h-2.975z"/><path fill="#647a87" d="M34.514 11.644h-5.03V5.946c.002-1.528 5.03-1.528 5.03 0v5.697"/><path fill="#4e5c66" d="M10.715 20.686l2.97-2.972 2.972 2.97-2.97 2.972z"/><path fill="#647a87" d="M15.581 17.563l-5.02 5.02-3.1-3.101a1.577 1.577 0 0 1 0-2.23l2.789-2.79a1.58 1.58 0 0 1 2.231 0l3.099 3.1"/><path fill="#4e5c66" d="M50.31 17.713l2.971 2.97-2.97 2.97-2.97-2.97z"/><g fill="#647a87"><path d="M53.44 22.581l-5.02-5.02 3.101-3.101a1.577 1.577 0 0 1 2.23 0l2.79 2.789a1.58 1.58 0 0 1 0 2.231l-3.1 3.1"/><circle cx="32" cy="39" r="25"/></g><circle fill="#d2d3d5" cx="32" cy="39" r="21.667"/><circle fill="#fff" cx="32" cy="39" r="20"/><path fill="#ed4c5c" d="M52 39c0 5.488-2.211 10.46-5.79 14.073L32 39V19c11.045 0 20 8.955 20 20z"/><g fill="#3e4347"><path d="M43.482 50.37L33.29 38.3l-1.99 1.99zM31.3 20.667h1.408v5.642H31.3zM31.3 51.692h1.408v5.642H31.3zM13.667 38.3h5.641v1.409h-5.641zM44.692 38.3h5.641v1.409h-5.641zM22.22 23.479l1.222-.705 1.41 2.443-1.221.705zM15.772 30.44l.706-1.223 2.443 1.411-.706 1.222zM16.47 48.78l-.706-1.22 2.443-1.413.705 1.22zM23.443 55.225l-1.22-.705 1.41-2.442 1.221.705zM41.784 54.533l-1.221.705-1.412-2.443 1.221-.706zM48.221 47.557l-.705 1.22-2.442-1.412.705-1.22zM47.525 29.219l.705 1.22-2.443 1.412-.705-1.221zM40.557 22.773l1.22.705-1.411 2.442-1.22-.705z"/><circle cx="32" cy="39" r="2.821"/></g></svg>