<svg xmlns="http://www.w3.org/2000/svg" viewBox="0 0 64 64"><g fill="#ffe62e"><path d="M19.753 61.56l7.496-7.68a22.274 22.274 0 0 1-7.365-3.062l-.131 10.742M44.25 2.437l-7.496 7.679a22.24 22.24 0 0 1 7.364 3.063l.132-10.742M2.436 44.24l10.742-.131a22.25 22.25 0 0 1-3.062-7.363l-7.68 7.494M61.56 19.754l-10.741.131a22.305 22.305 0 0 1 3.063 7.365l7.678-7.496M2.436 19.753l7.68 7.496a22.253 22.253 0 0 1 3.062-7.365l-10.742-.131M61.56 44.25l-7.68-7.495a22.247 22.247 0 0 1-3.062 7.364l10.742.131M19.754 2.436l.13 10.742a22.261 22.261 0 0 1 7.365-3.062l-7.495-7.68M44.25 61.56l-.131-10.74a22.298 22.298 0 0 1-7.364 3.062l7.495 7.678"/></g><g fill="#ffce31"><path d="M13.601 44.76l-4.229 9.867 9.869-4.229a22.534 22.534 0 0 1-5.64-5.638M50.4 19.242l4.229-9.869-9.868 4.229a22.538 22.538 0 0 1 5.639 5.64M9.975 28.01L0 32l9.975 3.989a22.491 22.491 0 0 1-.375-3.988c0-1.364.142-2.693.375-3.991M54.02 35.99L63.996 32l-9.976-3.991c.232 1.298.375 2.627.375 3.991 0 1.364-.142 2.693-.375 3.99M19.241 13.601L9.373 9.372l4.229 9.869a22.521 22.521 0 0 1 5.639-5.64M44.76 50.4l9.867 4.229-4.229-9.867A22.477 22.477 0 0 1 44.76 50.4M35.99 9.975L32 0l-3.991 9.975a22.523 22.523 0 0 1 3.99-.375c1.364 0 2.693.142 3.991.375M28.01 54.02l3.991 9.975 3.99-9.975a22.534 22.534 0 0 1-3.991.375 22.43 22.43 0 0 1-3.99-.375"/><circle cx="32" cy="32" r="20.266"/></g></svg>