<svg xmlns="http://www.w3.org/2000/svg" viewBox="0 0 64 64"><path fill="#fff" d="M13.995 51a9.927 9.927 0 0 1-3.139-.51A9.978 9.978 0 0 1 4 41c0-2.885 1.25-5.63 3.429-7.531A9.859 9.859 0 0 1 9.255 32.2l-.033-.003.664-2.314c1.655-5.773 7-9.806 13-9.806.597 0 1.21.048 1.931.151.552.08 1.094.191 1.624.334l.265-.478A13.739 13.739 0 0 1 38.716 13c7.567 0 13.725 6.162 13.725 13.736 0 .371-.023.732-.054 1.094l-.021.265a11.875 11.875 0 0 1 7.636 11.065c0 5.548-3.772 10.289-9.174 11.53-.884.206-1.778.31-2.655.31h-34.18"/><path fill="#75d6ff" d="M38.714 15c6.476 0 11.725 5.255 11.725 11.736 0 .315-.021.622-.047.93a12.23 12.23 0 0 0-7.107 2.969 9.762 9.762 0 0 1 6.811-1.118 9.686 9.686 0 0 1 2.971 1.122C56.013 32.339 58 35.513 58 39.16c0 4.67-3.257 8.578-7.622 9.581a9.737 9.737 0 0 1-2.207.259H13.999a8.001 8.001 0 0 1-7.995-8 7.954 7.954 0 0 1 2.744-6.02 7.933 7.933 0 0 1 2.618-1.525 7.965 7.965 0 0 1 2.633-.453 7.972 7.972 0 0 1 6.325 3.122h.071a10.955 10.955 0 0 0-8.583-5.685c1.382-4.82 5.814-8.357 11.08-8.357.561 0 1.108.054 1.648.131a11.47 11.47 0 0 1 3.041.872 11.55 11.55 0 0 1 6.713 8.877l.002-.068c0-4.527-2.32-8.512-5.835-10.834 2-3.609 5.844-6.05 10.26-6.05m0-4a15.74 15.74 0 0 0-13.273 7.3 15.335 15.335 0 0 0-2.555-.224c-6.886 0-13.02 4.628-14.922 11.255l-.452 1.577c-.491.317-.96.67-1.404 1.06a11.988 11.988 0 0 0-4.108 9.03c0 5.187 3.309 9.764 8.233 11.391 1.212.403 2.48.609 3.761.609h34.17c1.03 0 2.077-.122 3.113-.362 6.307-1.45 10.718-6.992 10.718-13.478a13.878 13.878 0 0 0-7.562-12.327v-.097c0-8.677-7.05-15.736-15.724-15.736z"/></svg>