<svg xmlns="http://www.w3.org/2000/svg" viewBox="0 0 64 64"><path fill="#3e4347" d="M32 2a.937.937 0 0 0-.938.938v4.688h1.875V2.937A.936.936 0 0 0 32 2"/><path fill="#b8c2c4" d="M31.06 24.5h1.875v24.375H31.06z"/><path fill="#ffbe5c" d="M32 6.687v24.375a9.655 9.655 0 0 1 7.68-3.763 9.649 9.649 0 0 1 7.679 3.763C45.896 17.335 39.723 6.687 32 6.687"/><path fill="#ed77a8" d="M32 6.687v24.375a9.654 9.654 0 0 0-7.68-3.763 9.649 9.649 0 0 0-7.679 3.763C18.104 17.335 24.277 6.687 32 6.687"/><path fill="#c7e86f" d="M32 6.687c7.723 0 13.896 10.648 15.359 24.375a9.654 9.654 0 0 1 7.68-3.763 9.673 9.673 0 0 1 6.962 2.929c-3.02-13.463-15.301-23.541-30-23.541"/><path fill="#60d4e0" d="M32 6.687c-7.723 0-13.896 10.648-15.358 24.375a9.654 9.654 0 0 0-7.68-3.763A9.673 9.673 0 0 0 2 30.228C5.02 16.765 17.299 6.687 32 6.687"/><path fill="#3e4347" d="M30.13 48.874v5.625c0 2.067-1.683 3.75-3.75 3.75s-3.75-1.683-3.75-3.75a1.875 1.875 0 0 0-3.75 0c0 4.135 3.364 7.5 7.5 7.5s7.5-3.365 7.5-7.5v-5.625h-3.75"/></svg>