<svg xmlns="http://www.w3.org/2000/svg" viewBox="0 0 64 64"><g fill="#62bbc7"><path d="M25.453 8.314L4.851 48.434v10.72h10.715z"/><path d="M55.686 38.547L4.851 48.43v10.72h10.715z"/></g><g fill="#6dd1de"><path d="M39.74 8.314L4.851 48.434v10.72h10.715z"/><path d="M55.686 24.26l-40.12 34.89H4.851V48.43z"/></g><path fill="#7df0ff" d="M62 2L4.85 48.43v10.72h10.715z"/><path fill="#c2f8ff" d="M33.426 30.574L4.851 48.43v10.72h10.715z"/><circle fill="#7df0ff" cx="9.578" cy="54.42" r="7.577"/><circle fill="#5995c1" cx="9.577" cy="54.42" r="6.695"/><circle fill="#4b7ea3" cx="9.405" cy="49.943" r="1.477"/><circle fill="#5995c1" cx="9.326" cy="49.591" r="1.223"/><circle fill="#4b7ea3" cx="14.15" cy="52.705" r=".972"/><circle fill="#5995c1" cx="14.1" cy="52.47" r=".805"/><circle fill="#4b7ea3" cx="11.736" cy="58.846" r="1.454"/><circle fill="#5995c1" cx="11.658" cy="58.5" r="1.202"/><circle fill="#4b7ea3" cx="4.68" cy="52.903" r=".971"/><circle fill="#5995c1" cx="4.627" cy="52.672" r=".805"/><circle fill="#4b7ea3" cx="7.858" cy="56.25" r="2.461"/><circle fill="#5995c1" cx="7.726" cy="55.661" r="2.036"/><g fill="#c2f8ff"><path d="M10.838 32.6l2.022-2.023 2.023 2.023-2.023 2.022zM29.38 24.263l2.022-2.023 2.023 2.021-2.022 2.023zM27.954 12.924l2.021-2.023 2.023 2.022-2.022 2.023zM50.287 20.122l2.022-2.022 2.023 2.023-2.022 2.022zM44.119 36.947l2.022-2.023 2.023 2.024-2.022 2.022zM20.158 29.958l1-1 1 1-1 1zM18.138 24.26l1-1 1 1-1 1zM34.89 38.548l1-1 1 1-1 1zM30.998 47.372l1-1 1 1-1 1zM40.336 43.303l1-1 1 1-1 1zM46.15 24.883l1.001-1 1 1-1 1zM53.33 29.954l1-1 1 1-1 1zM42.333 11.003l1-1 1 1-1 1zM45.147 3.626l1-1 1 1-1 1zM33.888 8.319l1-1 1 1-1 1z"/></g></svg>