<svg xmlns="http://www.w3.org/2000/svg" viewBox="0 0 64 64"><g fill="#fed0ac"><path d="M44.837 34.508s-31.883-2.46-31.388 2.135c0 0-1.65 11.217 2.283 17.969 5.851 10.05 28.645 11.74 34.32-7.02 1.129-3.73.25-13.73-5.214-13.08"/><path d="M38.674 39.11c0 2.303 1.896 4.172 4.236 4.172h.037c2.34 0 4.238-1.869 4.238-4.172V6.174c.001-2.302-1.898-4.171-4.238-4.171h-.037c-2.34 0-4.236 1.869-4.236 4.172V39.11"/></g><path fill="#e0a372" d="M41 42.34h.043a4.217 4.217 0 0 0 4.219-4.205V5.199a4.14 4.14 0 0 0-1.445-3.137c1.92.395 3.365 2.072 3.365 4.084v32.936c0 2.305-1.885 4.201-4.225 4.201h-.039a4.24 4.24 0 0 1-2.787-1.033c.277.059.57.09.869.09"/><g fill="#fed0ac"><path d="M13.449 30.05c0-2.357 1.889-4.266 4.219-4.266h.07c2.33 0 4.217 1.908 4.217 4.266v6.594c0 2.355-1.887 4.266-4.217 4.266h-.07c-2.33 0-4.219-1.91-4.219-4.266V30.05"/><path d="M21.857 26.22c0-2.354 1.889-4.264 4.221-4.264h.066c2.332 0 4.223 1.91 4.223 4.264v6.594c0 2.356-1.891 4.268-4.223 4.268h-.066c-2.332 0-4.221-1.912-4.221-4.268V26.22M30.367 25.748c0-2.354 1.887-4.264 4.219-4.264h.07c2.328 0 4.219 1.91 4.219 4.264v6.594c0 2.356-1.891 4.268-4.219 4.268h-.07c-2.332 0-4.219-1.912-4.219-4.268v-6.594"/></g><g fill="#e0a372"><path d="M16.471 39.33h.057c2.328 0 4.158-1.883 4.158-4.238v-6.598c0-.637-.141-1.24-.387-1.781a4.27 4.27 0 0 1 1.656 3.391v6.598c0 2.355-1.824 4.211-4.156 4.211h-.051a4.213 4.213 0 0 1-3.836-2.473c.713.548 1.596.89 2.559.89M24.859 35.502h.053c2.332 0 4.182-1.852 4.182-4.209v-6.598c0-.635-.137-1.238-.385-1.781a4.271 4.271 0 0 1 1.658 3.391v6.598a4.141 4.141 0 0 1-4.18 4.184h-.055a4.213 4.213 0 0 1-3.834-2.473c.71.548 1.598.888 2.561.888M33.35 35.02h.051a4.175 4.175 0 0 0 4.199-4.209v-6.598a4.37 4.37 0 0 0-.383-1.781 4.27 4.27 0 0 1 1.656 3.391v6.598c0 2.356-1.867 4.184-4.195 4.184h-.055a4.215 4.215 0 0 1-3.836-2.473c.713.549 1.6.888 2.563.888M41.01 40.822c-4.804-2.338-15.659 1.652-13.538 11.674 0-10.414 9.39-12.168 13.538-11.674"/><path d="M39.18 30.51c-3.451-2.056-4.14 1.186-10.01 1.359-2.569.075-3.713 5.396.177 7.324 5.416 2.682 5.841-1.113 7.157.365 1.403 1.572 2.726 1.881 3.909 3.703.86 1.322 7.576-.717 8.285-3.432 1.365-5.21-4.045-6.06-9.521-9.319"/></g><path fill="#fed0ac" d="M39.623 31.418c-3.586-2.139-4.302 1.233-10.409 1.415-2.674.077-3.862 5.613.189 7.619 5.632 2.789 6.071-1.16 7.442.381 1.463 1.635 2.836 1.955 4.064 3.852.895 1.377-1.486 6.578-1.486 6.578s6.904 4.867 8.313 2.094c2.617-5.15 1.874-9.211 1.793-12.242-.19-6.986-4.205-6.302-9.906-9.697"/><g fill="#e0a372"><path d="M46.558 34.879c3.833 1.76 3.649 11.699.794 16.488-7.107 11.908-22.664 11.713-30.04 5.336 6.84 7.316 23.408 8.04 31.13-4.305 3.093-4.941 4.059-16.266-1.88-17.519"/><path d="M40.13 44.82c.276.424.241 1.217.06 2.109.41-1.357.684-2.77.278-3.395-1.23-1.896-1.929-2.287-3.385-3.924-1.376-1.539-1.814 2.41-7.448-.377-2.081-1.033-2.772-2.996-2.594-4.673-.789 1.815-.396 4.642 2.259 5.958 5.632 2.787 6.072-1.162 7.444.379 1.461 1.636 2.158 2.027 3.386 3.923"/></g></svg>