<svg xmlns="http://www.w3.org/2000/svg" viewBox="0 0 64 64"><circle fill="#3e4347" cx="32" cy="32" r="30"/><circle fill="#ffe62e" cx="32" cy="32" r="27"/><g fill="#3e4347"><circle cx="32" cy="32" r="5"/><path d="M8 28.759l17.12 2.221a6.922 6.922 0 0 1 2.668-4.619L17.303 12.644c-5 3.828-8.46 9.561-9.303 16.12M32 38.816a6.89 6.89 0 0 1-2.669-.533l-6.639 15.939A24.145 24.145 0 0 0 32 56.078c3.299 0 6.441-.662 9.308-1.856l-6.639-15.939a6.89 6.89 0 0 1-2.669.533M38.88 30.98L56 28.759c-.843-6.555-4.303-12.287-9.304-16.12L36.212 26.357a6.92 6.92 0 0 1 2.668 4.619"/></g></svg>