<svg xmlns="http://www.w3.org/2000/svg" viewBox="0 0 64 64"><path fill="#66b0dd" d="M9.664 12h8.465c3.215-2.235 6.979-3.736 11.059-4.207V12h5.625V7.793c4.08.471 7.842 1.972 11.057 4.207h8.466C48.839 5.867 40.863 2 32 2 23.136 2 15.16 5.867 9.664 12z"/><g fill="#c7e755"><path d="M54.2 22h6.079a30.029 30.029 0 0 0-5.943-10H45.87a24.473 24.473 0 0 1 8.33 10M18.13 12H9.665a29.995 29.995 0 0 0-5.943 10h6.079a24.49 24.49 0 0 1 8.329-10M29.19 12h5.625v10H29.19z"/></g><g fill="#ffe75a"><path d="M29.19 30.598L27.785 32h8.435l-1.407-1.402V22H29.19zM56.38 32h5.625c0-3.506-.61-6.87-1.721-10h-6.079a24.183 24.183 0 0 1 2.175 10M3.721 22A29.833 29.833 0 0 0 2 32h5.625c0-3.566.792-6.944 2.175-10H3.721z"/></g><g fill="#eda454"><path d="M56.38 32c0 3.564-.774 6.947-2.156 10h6.06a29.876 29.876 0 0 0 1.719-9.999h-5.625M17.784 42h7.954l3.452-3.448V42h5.623v-3.448L38.26 42h7.96l-10-10h-8.435zM9.78 42a24.18 24.18 0 0 1-2.155-9.999H2c0 3.506.609 6.871 1.72 10h6.06"/></g><g fill="#ed5181"><path d="M29.19 42h5.625v10H29.19zM46.22 42h-7.955l8.993 8.993c-.436.351-.883.687-1.343 1.01h8.426a30.029 30.029 0 0 0 5.943-10h-6.06a24.337 24.337 0 0 1-3.02 4.987l-4.986-4.987M25.738 42h-7.954l-4.987 4.987A24.65 24.65 0 0 1 9.777 42h-6.06a30.026 30.026 0 0 0 5.942 10h8.425c-.46-.32-.907-.656-1.343-1.01l8.994-8.993"/></g><path fill="#a374b8" d="M54.34 52h-8.426a24.249 24.249 0 0 1-11.1 4.209V52h-5.625v4.209A24.228 24.228 0 0 1 18.089 52H9.665c5.497 6.133 13.473 10 22.338 10 8.864 0 16.84-3.867 22.337-10"/></svg>