<svg xmlns="http://www.w3.org/2000/svg" viewBox="0 0 64 64"><g fill="#f7c94b"><circle cx="15.11" cy="51.23" r="1.655"/><circle cx="12.768" cy="48.892" r="1.655"/><circle cx="48.892" cy="12.768" r="1.655"/><circle cx="51.23" cy="15.11" r="1.655"/><circle cx="6.457" cy="33.655" r="1.656"/><circle cx="6.457" cy="30.344" r="1.655"/><circle cx="3.655" cy="32" r="1.656"/></g><path fill="#8896df" d="M3.313 32l2.197 1.31L7.707 32 5.51 30.687z"/><g fill="#f7c94b"><circle cx="57.54" cy="30.345" r="1.656"/><circle cx="57.54" cy="33.656" r="1.655"/><circle cx="60.34" cy="32" r="1.656"/></g><path fill="#8896df" d="M60.687 32l-2.197-1.313L56.29 32l2.2 1.31z"/><g fill="#f7c94b"><circle cx="12.768" cy="15.11" r="1.655"/><circle cx="15.11" cy="12.768" r="1.655"/><circle cx="51.23" cy="48.893" r="1.655"/><circle cx="48.892" cy="51.23" r="1.655"/><circle cx="30.345" cy="6.457" r="1.655"/><circle cx="33.655" cy="6.457" r="1.655"/><circle cx="32" cy="3.656" r="1.656"/></g><path fill="#8896df" d="M31.999 3.313L30.685 5.51l1.314 2.198L33.31 5.51z"/><g fill="#f7c94b"><circle cx="33.655" cy="57.54" r="1.655"/><circle cx="30.345" cy="57.54" r="1.655"/><circle cx="32" cy="60.35" r="1.656"/></g><path fill="#8896df" d="M32 60.688l1.31-2.198-1.31-2.2-1.315 2.2z"/><path fill="#f7c94b" d="M32 6.757c-13.941 0-25.24 11.301-25.24 25.24 0 13.94 11.303 25.24 25.24 25.24 13.943 0 25.24-11.304 25.24-25.25C57.239 18.046 45.938 6.747 32 6.747m0 49.776c-13.548 0-24.533-10.984-24.533-24.533S18.452 7.457 32 7.457c13.55 0 24.534 10.983 24.534 24.533S45.55 56.523 32 56.523"/><path fill="#fbefb4" d="M32 7.467C18.452 7.467 7.467 18.45 7.467 32S18.452 56.533 32 56.533c13.549 0 24.534-10.984 24.534-24.534S45.55 7.467 32 7.467m0 45.701c-11.69 0-21.17-9.479-21.17-21.17 0-11.69 9.477-21.17 21.17-21.17 11.691 0 21.17 9.477 21.17 21.17 0 11.689-9.477 21.17-21.17 21.17"/><path fill="#f7c94b" d="M32 10.833c-11.69 0-21.17 9.477-21.17 21.17 0 11.69 9.477 21.17 21.17 21.17 11.691 0 21.17-9.479 21.17-21.17 0-11.691-9.477-21.17-21.17-21.17m0 41.618c-11.294 0-20.451-9.156-20.451-20.452 0-11.296 9.157-20.452 20.451-20.452 11.296 0 20.453 9.156 20.453 20.452C52.452 43.295 43.296 52.451 32 52.451"/><g fill="#ed4c5c"><circle cx="48.1" cy="15.902" r="1.191"/><circle cx="15.902" cy="48.1" r="1.19"/><circle cx="54.766" cy="32" r="1.191"/><circle cx="9.234" cy="32" r="1.191"/><circle cx="48.1" cy="48.1" r="1.191"/><circle cx="15.902" cy="15.902" r="1.19"/><circle cx="32" cy="54.766" r="1.191"/><circle cx="32" cy="9.234" r="1.191"/></g><path fill="#f7c94b" d="M33.3 17.216c-.047-4.446 1.207-5.748 1.207-5.748l-2.509-.286-2.508.286s1.253 1.302 1.207 5.748h-.604s.615 1.817.604 2.508c-.011.629-.604 2.508-.604 2.508h3.811s-.594-1.878-.604-2.508c-.01-.69.604-2.508.604-2.508H33.3"/><path fill="#79cb92" d="M32 16.01l-1.044 1.701L32 19.413l1.04-1.702z"/><path fill="#f7c94b" d="M30.699 46.785c.046 4.445-1.207 5.748-1.207 5.748l2.508.285 2.509-.285s-1.254-1.303-1.207-5.748h.604s-.613-1.818-.604-2.508c.01-.631.604-2.509.604-2.509h-3.811s.594 1.878.604 2.509c.011.689-.604 2.508-.604 2.508h.604"/><path fill="#79cb92" d="M32 47.992l1.04-1.702L32 44.588l-1.044 1.702z"/><path fill="#f7c94b" d="M46.786 33.3c4.443-.048 5.746 1.207 5.746 1.207l.285-2.51-.285-2.508s-1.303 1.254-5.746 1.207v-.604s-1.819.614-2.508.604c-.632-.01-2.51-.604-2.51-.604v3.811s1.878-.594 2.51-.603c.688-.01 2.508.603 2.508.603V33.3"/><path fill="#79cb92" d="M47.991 32l-1.701-1.043L44.587 32l1.703 1.04z"/><path fill="#f7c94b" d="M17.215 30.699c-4.444.047-5.747-1.207-5.747-1.207L11.183 32l.286 2.51s1.302-1.255 5.747-1.207v.603s1.819-.612 2.508-.603c.631.009 2.51.603 2.51.603V30.096s-1.879.594-2.51.604c-.689.011-2.508-.604-2.508-.604v.603z"/><path fill="#79cb92" d="M16.01 32l1.701 1.04L19.414 32l-1.703-1.043z"/><path fill="#f7c94b" d="M43.37 22.465c3.111-3.176 4.918-3.21 4.918-3.21l-1.572-1.975-1.975-1.572s-.034 1.807-3.211 4.917l-.427-.427s-.851 1.719-1.347 2.2c-.453.439-2.2 1.347-2.2 1.347l1.347 1.347 1.348 1.347s.908-1.748 1.347-2.2c.481-.496 2.2-1.347 2.2-1.347l-.428-.427"/><path fill="#8896df" d="M43.31 20.692l-1.94.468-.47 1.94 1.941-.467z"/><path fill="#f7c94b" d="M20.625 41.533c-3.109 3.176-4.918 3.211-4.918 3.211l1.572 1.977 1.977 1.572s.034-1.808 3.21-4.918l.426.427s.853-1.721 1.347-2.2c.453-.438 2.201-1.347 2.201-1.347l-1.347-1.347-1.347-1.349s-.91 1.749-1.349 2.201c-.479.495-2.2 1.347-2.2 1.347l.428.426"/><path fill="#8896df" d="M20.692 43.31l1.943-.468.465-1.942-1.94.47z"/><path fill="#f7c94b" d="M41.534 43.38c3.177 3.108 3.209 4.917 3.209 4.917l1.977-1.572 1.572-1.977s-1.807-.035-4.918-3.209l.429-.428s-1.722-.852-2.201-1.347c-.438-.452-1.347-2.201-1.347-2.201l-1.348 1.347-1.347 1.348s1.747.908 2.2 1.348c.496.479 1.347 2.2 1.347 2.2l.427-.426"/><path fill="#8896df" d="M43.31 43.31l-.467-1.94-1.943-.471.47 1.943z"/><path fill="#f7c94b" d="M22.465 20.625c-3.175-3.111-3.209-4.917-3.209-4.917l-1.977 1.572-1.572 1.977s1.809.033 4.918 3.209l-.428.427s1.721.853 2.2 1.347c.44.453 1.349 2.2 1.349 2.2l1.347-1.347 1.347-1.347s-1.747-.908-2.201-1.347c-.494-.479-1.347-2.2-1.347-2.2l-.427.426"/><path fill="#8896df" d="M20.694 20.692l.466 1.941 1.94.467-.465-1.94z"/><circle fill="#f7c94b" cx="32" cy="32" r="10.61"/><circle fill="#fbefb4" cx="32" cy="32" r="9.769"/><circle fill="#f7c94b" cx="32" cy="32" r="6.927"/><g fill="#8896df"><path d="M27.29 40.16l1.093-.609-.019-1.251-1.094.608zM35.638 25.701l1.091-.611-.019-1.248-1.092.607z"/></g><g fill="#ed4c5c"><path d="M23.842 36.712l1.248.018.611-1.091-1.251-.02zM38.3 28.364l1.25.018.61-1.092-1.252-.02z"/></g><g fill="#8896df"><path d="M22.579 32l1.073.643L24.725 32l-1.073-.641zM39.27 32l1.08.642L41.42 32l-1.07-.643z"/></g><g fill="#ed4c5c"><path d="M23.84 27.29l.609 1.093 1.251-.018-.61-1.095zM38.3 35.639l.608 1.091 1.252-.018-.609-1.095z"/></g><g fill="#8896df"><path d="M27.29 23.842l-.02 1.248 1.092.612.019-1.252zM35.636 38.3l-.018 1.251 1.092.609.019-1.252z"/></g><g fill="#ed4c5c"><path d="M31.999 22.579l-.641 1.074.641 1.074.642-1.074zM31.999 39.27l-.641 1.08.641 1.07.642-1.07z"/></g><path fill="#8896df" d="M31.493 31.673a3.16 3.16 0 0 1-.404-.163c-.07-.033-.139-.066-.206-.105s-.13-.082-.193-.125a3.104 3.104 0 0 1-.944-4.118c.245-.424.576-.766.957-1.021a6.001 6.001 0 0 0-3.256 9.764 2.986 2.986 0 0 0 3.51-.291 3.438 3.438 0 0 1-.168-1.059c0-.899.348-1.715.911-2.33.02-.021.038-.044.059-.064a3.55 3.55 0 0 1 .401-.354 3.07 3.07 0 0 1-.667-.134"/><path fill="#79cb92" d="M34.464 31.12a25.308 25.308 0 0 1-.061-.003 3.11 3.11 0 0 1-2.244.691 3.373 3.373 0 0 0-.401.354c-.021.021-.039.043-.059.064a3.436 3.436 0 0 0-.743 3.389 2.985 2.985 0 0 1-3.51.291 5.981 5.981 0 0 0 5.832 1.958 6.01 6.01 0 0 0 4.363-3.813 3.442 3.442 0 0 0-3.177-2.931"/><path fill="#ed4c5c" d="M34.78 26.683A5.964 5.964 0 0 0 32 26c-.445 0-.879.05-1.297.142a3.098 3.098 0 0 0-.957 1.021 3.104 3.104 0 0 0 .944 4.118c.063.043.126.086.193.125s.136.072.206.105c.133.064.268.119.404.163a3.145 3.145 0 0 0 1.112.142 3.104 3.104 0 0 0 1.798-.7c.02.001.041.001.061.003a3.443 3.443 0 0 1 3.177 2.931A6.011 6.011 0 0 0 38 32a5.997 5.997 0 0 0-3.22-5.317"/></svg>