<svg xmlns="http://www.w3.org/2000/svg" viewBox="0 0 64 64"><circle fill="#ff8736" cx="32" cy="32" r="30"/><path fill="#fff" stroke="#fff" stroke-miterlimit="10" d="M49.956 46.01a66.09 66.09 0 0 0-12.452-2.231V20.216a66.25 66.25 0 0 0 12.452-2.23c1.831-.515 1.052-3.443-.784-2.928-11.211 3.15-23.12 3.143-34.34.033-1.837-.51-2.615 2.419-.783 2.927a67.052 67.052 0 0 0 12.322 2.192v23.573a67.176 67.176 0 0 0-12.322 2.192c-1.832.509-1.054 3.438.783 2.928 11.221-3.11 23.13-3.119 34.34.033 1.836.516 2.614-2.412.784-2.926zm-20.643-2.411v-23.2a66.91 66.91 0 0 0 5.243.004v23.19a66.426 66.426 0 0 0-5.243.005z"/></svg>