<svg xmlns="http://www.w3.org/2000/svg" viewBox="0 0 64 64"><g fill="#ed4c5c"><path d="M51.38 33.33c3.331 2.31 5.335 5.22 5.335 8.392 0 7.48-11.07 13.544-24.716 13.544S7.284 49.206 7.284 41.722c0-3.172 2-6.082 5.334-8.39C6.13 36.314 1.999 40.761 1.999 45.734c0 8.983 13.431 16.264 30 16.264s30-7.281 30-16.264c0-4.973-4.131-9.42-10.619-12.404"/><path d="M20.317 2s-1.813 6.07-1.813 13.333c0 5.953 4.582 8.929 4.582 13.899 0 9.851-6.34 16.25-6.34 16.25s2.321-5.09 2.321-13.75c0-3.01-4.285-9.732-4.285-14.02 0-9.403 5.535-15.713 5.535-15.713M33.384 2s-1.816 6.07-1.816 13.333c0 5.953 4.585 8.929 4.585 13.899 0 9.851-6.34 16.25-6.34 16.25s2.321-5.09 2.321-13.75c0-3.01-4.285-9.732-4.285-14.02 0-9.403 5.535-15.713 5.535-15.713M46.45 2s-1.816 6.07-1.816 13.333c0 5.953 4.585 8.929 4.585 13.899 0 9.851-6.34 16.25-6.34 16.25s2.321-5.09 2.321-13.75c0-3.01-4.285-9.732-4.285-14.02 0-9.403 5.535-15.713 5.535-15.713"/></g></svg>