<svg xmlns="http://www.w3.org/2000/svg" viewBox="0 0 64 64"><path fill="#68963b" d="M16.187 58.1H30.35V41.653H10.27s-.683 5.748-.729 7.674C9.329 57.989 16.19 58.1 16.19 58.1"/><path fill="#83bf4f" d="M19.504 34.754l6.501 3.754-8.567-15.188L0 23.496l6.504 3.752-5.22 9.04c-.528.916-1.086 2.398-.313 3.738l8.861 15.346c1.588 2.75 4.352 2.734 6.354 2.734 0 0-9.09-1.867-3.278-11.93l6.596-11.421"/><path fill="#68963b" d="M62.47 32.678l-7.083-12.266-14.242 8.223 10.04 17.393s5.319-2.281 7.01-3.203c7.607-4.149 4.274-10.147 4.274-10.147"/><path fill="#83bf4f" d="M40.592 41.479v-7.504l-8.869 15.01 8.871 15.01v-7.508h10.435c1.059 0 2.622-.26 3.395-1.598l8.859-15.346c1.588-2.752.192-5.137-.809-6.871 0 0 2.926 8.803-8.691 8.803l-13.19-.001"/><path fill="#68963b" d="M18.02 4.137l-7.083 12.266 14.243 8.223L35.22 7.232s-4.637-3.465-6.279-4.467c-7.398-4.513-10.925 1.372-10.925 1.372"/><path fill="#83bf4f" d="M36.585 18.686l-6.5 3.754 17.438.172 8.566-15.189-6.501 3.756-5.217-9.04c-.53-.917-1.537-2.142-3.081-2.142H23.569c-3.177 0-4.545 2.402-5.545 4.137 0 0 6.159-6.936 11.97 3.125l6.591 11.424"/></svg>