<svg xmlns="http://www.w3.org/2000/svg" viewBox="0 0 64 64"><circle fill="#428bc1" cx="32" cy="32" r="30"/><g fill="#fff"><path d="M48.657 42.998l-2.477 2.656-5.94-9.181h-7.249v-4.119h7.983V28.24h-7.983V20H29v20.591h9.11L45.48 52 51 46.4z"/><circle cx="31" cy="13" r="4"/><path d="M29.375 48.882c-4.549 0-8.248-3.695-8.248-8.235a8.235 8.235 0 0 1 4.123-7.129V29C20.45 30.699 17 35.277 17 40.646 17 47.459 22.552 53 29.375 53c3.885 0 7.355-1.8 9.625-4.604l-2.459-3.682a8.253 8.253 0 0 1-7.166 4.168"/></g></svg>