<svg xmlns="http://www.w3.org/2000/svg" viewBox="0 0 64 64"><g fill="#d0d0d0"><path d="M23.563 36.671H2.938l10.313-26.25 10.312 26.25M5.591 34.842h15.316L13.25 15.347 5.591 34.842M61.06 36.671H40.435l10.313-26.25 10.312 26.25m-17.972-1.829h15.316l-7.657-19.495-7.659 19.495"/></g><path fill="#b8c2c4" d="M50.29 10.238s-2.155-.834-3.365-1.331c-4.296-1.762-9.635-3.953-14.929-3.953-5.294 0-10.633 2.191-14.929 3.953-1.21.497-3.365 1.331-3.365 1.331l-3.3 2.545s2.659 1.683 4.04 1.182c1.063-.382 2.229-.86 3.463-1.367 4.11-1.686 9.225-3.786 14.09-3.786 4.867 0 9.982 2.1 14.09 3.787 1.232.507 2.398.985 3.463 1.367 1.38.501 4.04-1.182 4.04-1.182l-3.299-2.546"/><g fill="#428bc1"><path d="M2 34.796c0 6.213 5.037 11.25 11.25 11.25s11.25-5.037 11.25-11.25H2zM39.5 34.796c0 6.213 5.037 11.25 11.25 11.25S62 41.009 62 34.796H39.5z"/></g><path fill="#b8c2c4" d="M30.13 12.296h3.75v41.25h-3.75z"/><path fill="#d0d0d0" d="M28.975 18.639h6.05v34.907h-6.05z"/><path fill="#545b60" d="M27.725 36.671h8.55v19.682h-8.55z"/><circle fill="#dbb471" cx="13.25" cy="13.233" r="3.75"/><g fill="#545b60"><circle cx="50.75" cy="13.233" r="3.75"/><circle cx="13.25" cy="13.233" r="3.75"/></g><g fill="#fff"><circle cx="13.25" cy="13.233" r="1.875"/><circle cx="50.75" cy="13.233" r="1.875"/></g><g fill="#d0d0d0"><circle cx="32" cy="7.608" r="5.625"/><path d="M32 45.11c-8.285 0-15 4.197-15 9.375h30c0-5.177-6.717-9.375-15-9.375"/></g><path fill="#545b60" d="M15.13 54.48h33.75v3.75H15.13z"/><path fill="#6b767c" d="M11.375 58.23h41.25v3.75h-41.25z"/></svg>