<svg xmlns="http://www.w3.org/2000/svg" viewBox="0 0 64 64"><circle fill="#b3e0ff" cx="32" cy="28.25" r="19.688"/><path fill="#bd80ff" d="M15.13 28.25c0 9.318 7.556 16.875 16.875 16.875 9.318 0 16.875-7.557 16.875-16.875H15.13"/><g fill="#94989b"><path d="M16.06 33.875h-3.747L2 62.005h1.875zM47.938 33.875h3.75L62 62.005h-1.87zM32.938 62H31.06l-.93-28.12h3.745z"/></g><g fill="#b3e0ff"><path d="M51.688 3.172s-39.37-2.344-39.37 25.08h19.687s-4.727-18.05 19.688-18.05v-7.03"/><path d="M53.56 10.203c0 .646-.42 1.172-.938 1.172-.519 0-.938-.525-.938-1.172v-7.03c.001-.647.419-1.172.938-1.172.518 0 .938.525.938 1.172v7.03"/></g><path fill="#c5ccd6" d="M9.5 35.75a1.88 1.88 0 0 0 1.875 1.875h41.25A1.88 1.88 0 0 0 54.5 35.75a1.88 1.88 0 0 0-1.875-1.875h-41.25A1.88 1.88 0 0 0 9.5 35.75"/></svg>