<svg xmlns="http://www.w3.org/2000/svg" viewBox="0 0 64 64"><path fill="#ffd85c" d="M45.39 55.06c-.02.073-26.764.073-26.784 0-.9 1.028-1.178 1.973-.969 2.331.478.816 1.153 1.489 1.959 2.041 3.445 2.369 9.293 2.569 12.402 2.569s8.957-.2 12.402-2.569c.806-.552 1.481-1.225 1.959-2.041.208-.359-.069-1.303-.969-2.331"/><path fill="#cf4d4d" d="M42.38 52.9H21.62c-1.393.637-2.361 1.418-3.01 2.158.02.073.291 1.077 1.762 2.138 1.721 1.241 5.086 2.563 11.63 2.563 6.544 0 9.91-1.321 11.63-2.563 1.471-1.061 1.742-2.064 1.762-2.138-.651-.74-1.62-1.521-3.01-2.158"/><path fill="#ffd85c" d="M23.1 54.1c1.396.736 4.02 1.537 8.896 1.537 4.421 0 6.996-.661 8.48-1.332 1.537-.697 1.9-1.405 1.9-1.405v-.919h-20.76v.918s.3.577 1.484 1.201"/><path fill="#cf4d4d" d="M51.815 23.07c-.495-4.351-7.02-5.939-7.02-5.939H19.198s-6.521 1.589-7.02 5.939c-1.743 15.318 9.436 28.907 9.436 28.907s.479.365 1.483.809h.001c1.574.694 4.451 1.584 8.896 1.584 4.074 0 6.834-.748 8.48-1.407 1.297-.52 1.9-.985 1.9-.985s11.178-13.59 9.435-28.908"/><path fill="#ffd85c" d="M19.2 16.16v.977s.444.235 1.665.51c1.748.393 5.1.87 11.134.87 6.03 0 9.386-.478 11.134-.87 1.221-.274 1.665-.51 1.665-.51v-.977H19.2"/><path fill="#cf4d4d" d="M41.21 13.411v-3.37c0-.74.338-1.641 1.925-2.305H20.867c1.587.664 1.925 1.564 1.925 2.305v3.37c0 1.462-3.59 2.748-3.59 2.748s.444.244 1.665.529c1.748.409 5.1.907 11.134.907 6.03 0 9.386-.498 11.134-.907 1.221-.285 1.665-.529 1.665-.529s-3.59-1.286-3.59-2.748"/><g fill="#ffd85c"><path d="M20.866 4.521v3.215s.512.086 1.462.197c1.776.211 5.111.511 9.672.511 4.561 0 7.896-.3 9.672-.511.95-.111 1.462-.197 1.462-.197V4.521H20.866M37 2.101c-2.214-.135-5-.096-5-.096s-2.786-.039-5 .096a19.81 19.81 0 0 0-1.659.158v.532H38.66v-.532A19.88 19.88 0 0 0 37 2.101"/></g><path fill="#cf4d4d" d="M38.659 2.792H25.34c-2.784.309-4.475 1.729-4.475 1.729s.496.1 1.462.226c1.722.225 4.957.539 9.673.539s7.951-.313 9.672-.539c.966-.126 1.462-.226 1.462-.226S41.443 3.1 38.659 2.792"/><g fill="#ffd85c"><path d="M33.516 48.845c-1.01.028-2.02.028-3.03 0l-.193-24.07a60.86 60.86 0 0 0 3.418 0l-.193 24.07"/><path d="M23.862 33.848l-.129-3.218c5.483.781 11.05.781 16.534 0l-.129 3.218a57.777 57.777 0 0 1-16.276 0"/></g></svg>