<svg xmlns="http://www.w3.org/2000/svg" viewBox="0 0 64 64"><circle fill="#d0d0d0" cx="31.91" cy="45" r="17"/><path fill="#fff" d="M31.91 30c-8.272 0-15 6.73-15 15 0 8.271 6.728 15 15 15s15-6.729 15-15c0-8.27-6.727-15-15-15"/><circle fill="#d0d0d0" cx="31.91" cy="25.531" r="13"/><path fill="#fff" d="M31.91 14.531c-6.07 0-11 4.936-11 11 0 6.07 4.936 11 11 11s10.999-4.935 10.999-11c0-6.06-4.933-11-10.999-11"/><circle fill="#ff8736" cx="31.91" cy="26.439" r="2.5"/><g fill="#3e4347"><circle cx="26.494" cy="21.814" r="2"/><circle cx="37.32" cy="21.814" r="2"/></g><g fill="#94989b"><ellipse transform="rotate(25.001 36.156 14.53)" cx="36.15" cy="14.528" rx="10.07" ry="2.551"/><ellipse transform="rotate(25.001 40.3 5.634)" cx="40.3" cy="5.635" rx="7.557" ry="1.914"/></g><path fill="#3e4347" d="M39.491 7.369c-3.549-1.654-6.147-3.698-6.088-4.736l-2.263 9.232c-.335.719 1.693 2.373 4.53 3.696s5.408 1.813 5.743 1.095l5.617-7.668c-.755.713-3.991.035-7.539-1.619"/><g fill="#89664c"><path d="M62 33.369l-5.806-1.689c1.012-1.072 2.02-2.143 3.034-3.215.345-.364.362-.938 0-1.299-.346-.346-.954-.365-1.298 0l-4.12 4.365.011-8.438-1.837-.003-.013 10.389-5.059 5.36c-.342.363-.362.937 0 1.3.347.346.956.363 1.3 0a10699.532 10699.532 0 0 1 6.565-6.957l6.71 1.949.513-1.762M12.03 33.479l-.012-10.389-1.837.003.011 8.438-4.12-4.365c-.344-.365-.952-.346-1.298 0-.362.361-.345.935 0 1.299 1.012 1.072 2.02 2.143 3.034 3.215l-5.806 1.689.513 1.762 6.71-1.949c.395.416.787.834 1.182 1.253l5.383 5.704c.344.363.953.346 1.3 0a.934.934 0 0 0 0-1.3c-1.689-1.786-3.373-3.573-5.06-5.36"/></g><g fill="#3e4347"><path d="M30.25 46.31l-1.05-3.23 2.752-1.99 2.748 1.99-1.05 3.23zM30.25 56.11l-1.05-3.233 2.752-1.996 2.748 1.996-1.05 3.233zM31.91 33.951c-3.076 0-6.04-1.309-8.145-3.592a1 1 0 1 1 1.473-1.353 9.096 9.096 0 0 0 6.672 2.945 9.096 9.096 0 0 0 6.671-2.945 1 1 0 0 1 1.473 1.353 11.099 11.099 0 0 1-8.144 3.592"/></g></svg>