<svg xmlns="http://www.w3.org/2000/svg" viewBox="0 0 64 64"><g fill="#ffce31"><path d="M14.655 44.44l4.802-4.92a14.252 14.252 0 0 1-4.717-1.961l-.085 6.881M30.346 6.562l-4.801 4.919a14.254 14.254 0 0 1 4.717 1.962l.084-6.881M3.561 33.34l6.882-.084a14.221 14.221 0 0 1-1.962-4.717l-4.92 4.801M41.44 17.655l-6.881.084a14.258 14.258 0 0 1 1.961 4.718l4.92-4.802M3.561 17.654l4.921 4.802a14.254 14.254 0 0 1 1.961-4.718l-6.882-.084M41.44 33.34l-4.92-4.801a14.284 14.284 0 0 1-1.961 4.718l6.881.083M14.656 6.561l.084 6.881a14.24 14.24 0 0 1 4.717-1.961l-4.801-4.92M30.346 44.44l-.084-6.881a14.27 14.27 0 0 1-4.717 1.961l4.801 4.92M10.715 33.674l-2.711 6.321 6.322-2.709a14.396 14.396 0 0 1-3.611-3.612M34.29 17.327l2.709-6.322-6.32 2.709a14.4 14.4 0 0 1 3.611 3.613M8.391 22.943L2 25.499l6.391 2.557a14.54 14.54 0 0 1-.24-2.556c-.001-.873.091-1.725.24-2.557M36.609 28.06L43 25.503l-6.391-2.557c.15.832.24 1.684.24 2.557a14.18 14.18 0 0 1-.24 2.557M14.327 13.713l-6.321-2.709 2.709 6.322a14.404 14.404 0 0 1 3.612-3.613M30.674 37.29l6.322 2.709-2.709-6.321a14.404 14.404 0 0 1-3.613 3.612M25.06 11.391L22.503 5l-2.555 6.391c.83-.149 1.682-.24 2.555-.24.875-.001 1.727.09 2.557.24M19.945 39.609L22.5 46l2.557-6.391c-.83.149-1.682.24-2.557.24a14.25 14.25 0 0 1-2.555-.24"/><circle cx="22.501" cy="25.5" r="12.983"/></g><path fill="#fff" d="M17.195 57.1a9.097 9.097 0 0 1-2.93-.485c-3.826-1.29-6.398-4.923-6.398-9.04a9.607 9.607 0 0 1 3.199-7.173 9.258 9.258 0 0 1 1.705-1.21l-.03-.002.619-2.203c1.545-5.5 6.534-9.341 12.133-9.341.558 0 1.13.046 1.803.145.515.075 1.021.183 1.516.318l.247-.456c2.263-4.161 6.557-6.746 11.208-6.746 7.06 0 12.81 5.868 12.81 13.08 0 .353-.022.695-.049 1.04l-.021.256c.545.212 1.076.47 1.59.773 3.415 2.01 5.537 5.752 5.537 9.764 0 5.284-3.521 9.8-8.563 10.981-.823.195-1.658.295-2.478.295H17.195"/><path fill="#75d6ff" d="M40.27 22.81c6.04 0 10.942 5 10.942 11.177 0 .301-.02.593-.043.886a11.317 11.317 0 0 0-6.635 2.827 8.986 8.986 0 0 1 6.357-1.064 8.968 8.968 0 0 1 2.774 1.069 9.394 9.394 0 0 1 4.604 8.115c0 4.447-3.04 8.17-7.114 9.125a8.909 8.909 0 0 1-2.06.247H17.197a7.258 7.258 0 0 1-2.339-.389c-2.974-1-5.122-3.86-5.122-7.23 0-2.293.994-4.343 2.561-5.738a7.382 7.382 0 0 1 2.444-1.453 7.332 7.332 0 0 1 2.457-.432c2.405 0 4.539 1.168 5.904 2.974h.066c-1.584-2.978-4.545-5.077-8.01-5.414 1.289-4.591 5.427-7.96 10.338-7.96.524 0 1.034.052 1.538.126.997.146 1.949.426 2.838.83 3.311 1.509 5.729 4.669 6.266 8.454l.002-.064c0-4.313-2.166-8.106-5.445-10.319 1.868-3.436 5.454-5.766 9.576-5.766m0-3.81c-5.03 0-9.703 2.642-12.389 6.951l-.312-.049a14.255 14.255 0 0 0-2.073-.163c-6.427 0-12.154 4.407-13.927 10.719l-.423 1.503c-.458.301-.896.638-1.31 1.01a11.528 11.528 0 0 0-3.833 8.604c0 4.939 3.088 9.298 7.685 10.848 1.13.385 2.313.58 3.51.58h31.897c.962 0 1.939-.115 2.906-.345 5.885-1.38 10-6.659 10-12.836 0-4.691-2.48-9.06-6.473-11.415a12.896 12.896 0 0 0-.585-.324l.001-.094c0-8.262-6.584-14.986-14.676-14.986z"/></svg>