<svg xmlns="http://www.w3.org/2000/svg" viewBox="0 0 64 64"><g fill="#42ade2"><path d="M10.752 42.903c-.535 1.486-.081 3.02 1.018 3.422 1.099.404 2.425-.475 2.96-1.959.631-1.75.675-4.146.246-6.924-2.064 1.823-3.593 3.711-4.224 5.461M13.204 57.41c.631-1.75.674-4.146.245-6.921-2.064 1.819-3.593 3.711-4.224 5.461-.536 1.484-.08 3.02 1.019 3.421 1.098.405 2.424-.474 2.96-1.961M51.45 37.442c-2.065 1.821-3.594 3.711-4.225 5.461-.536 1.485-.08 3.02 1.018 3.422 1.1.404 2.426-.475 2.961-1.959.631-1.75.675-4.146.246-6.924M38.24 55.944c-.536 1.484-.082 3.02 1.018 3.422s2.425-.475 2.961-1.961c.631-1.75.674-4.146.245-6.922-2.065 1.82-3.593 3.711-4.224 5.461M46.862 55.944c-.536 1.484-.082 3.02 1.018 3.422s2.425-.475 2.961-1.961c.631-1.75.674-4.146.245-6.922-2.065 1.82-3.593 3.711-4.224 5.461M18.573 55.944c-.535 1.485-.08 3.02 1.019 3.422s2.425-.475 2.961-1.959c.631-1.752.673-4.148.245-6.924-2.065 1.82-3.594 3.711-4.225 5.461"/></g><path fill="#ffce31" d="M24.527 31.937l-4.93 16.11H32.14l-4.254 13.95L44.4 41.755H32.526l2.912-9.821z"/><path fill="#fff" d="M18.2 32.477a7.633 7.633 0 0 1-2.406-.389 7.604 7.604 0 0 1-5.257-7.23c0-2.198.958-4.288 2.629-5.738a7.628 7.628 0 0 1 1.4-.968l-.024-.001.508-1.763c1.269-4.4 5.367-7.473 9.967-7.473.457 0 .928.036 1.48.115.423.06.839.146 1.245.255l.203-.365a10.547 10.547 0 0 1 9.206-5.396c5.803 0 10.522 4.694 10.522 10.466 0 .281-.019.557-.04.832l-.018.205c.448.169.885.375 1.306.618 2.806 1.608 4.549 4.602 4.549 7.811 0 4.228-2.893 7.84-7.03 8.785a9.077 9.077 0 0 1-2.035.236h-26.2"/><path fill="#b6c1d1" d="M37.15 5.05c4.965 0 8.989 4 8.989 8.941 0 .24-.017.474-.036.709a9.401 9.401 0 0 0-5.449 2.262 7.52 7.52 0 0 1 5.221-.852 7.512 7.512 0 0 1 2.279.855c2.258 1.296 3.782 3.714 3.782 6.492 0 3.559-2.497 6.536-5.844 7.3a7.427 7.427 0 0 1-1.692.198H18.199c-.672 0-1.316-.11-1.921-.312-2.442-.802-4.207-3.088-4.207-5.784 0-1.834.816-3.474 2.103-4.59a6.082 6.082 0 0 1 2.01-1.162 6.16 6.16 0 0 1 2.02-.347c1.976 0 3.729.936 4.85 2.38l.055-.001a8.395 8.395 0 0 0-6.58-4.331 8.836 8.836 0 0 1 8.492-6.369c.431 0 .85.042 1.264.102a8.842 8.842 0 0 1 2.331.664 8.803 8.803 0 0 1 5.146 6.764l.002-.053c0-3.449-1.779-6.484-4.474-8.255a8.995 8.995 0 0 1 7.864-4.611m0-3.048c-4.135 0-7.97 2.113-10.176 5.561l-.257-.039a11.961 11.961 0 0 0-1.702-.13c-5.279 0-9.984 3.525-11.44 8.575l-.347 1.202c-.377.24-.736.51-1.076.806a9.114 9.114 0 0 0-3.149 6.882c0 3.951 2.537 7.438 6.313 8.679.927.308 1.9.464 2.882.464h26.2c.791 0 1.594-.092 2.388-.275 4.834-1.105 8.216-5.328 8.216-10.27 0-3.753-2.037-7.252-5.317-9.132a9.603 9.603 0 0 0-.479-.259v-.075c-.001-6.61-5.409-11.989-12.06-11.989z"/></svg>