<svg xmlns="http://www.w3.org/2000/svg" viewBox="0 0 64 64"><circle fill="#c28fef" cx="32" cy="32" r="30"/><g fill="#fff"><path d="M32 54c-9.374 0-17-7.625-17-17V14h6v23c0 6.06 4.935 11 11 11s11-4.935 11-11V14h6v23c0 9.375-7.626 17-17 17"/><path d="M56 22c-2.643 4.134-6.084 5.956-8.371 7.249-3.492 1.963-7.873-.194-11.742-2.105-1.168-.572-2.271-1.117-3.309-1.521C21.719 21.39 13.488 25.076 8 30.515V38c3.612-4.834 12.137-10.252 22.55-6.195.803.313 1.796.802 2.848 1.32 3.979 1.965 9.228 4.553 14.503 3.02a11.775 11.775 0 0 0 2.537-1.071c2.04-1.151 4.01-2.097 5.563-4.546v-8.533z"/></g></svg>