<svg xmlns="http://www.w3.org/2000/svg" viewBox="0 0 64 64"><g fill-rule="evenodd"><path fill="#89664c" d="M55.18 61.49c2.308 2.328 8.629-4.01 6.319-6.341l-36.17-36.16-6.331 6.33 36.18 36.17"/><path fill="#ad8366" d="M56.04 60.64c1.646 1.654 6.302-3.02 4.653-4.682l-36.16-36.15-4.669 4.667 36.18 36.17"/><path fill="#89664c" d="M8.31 14.636c-2.329-2.308 4.01-8.626 6.343-6.317l6.184 6.182-6.331 6.329-6.196-6.194"/><path fill="#ad8366" d="M9.166 13.777c-1.655-1.647 3.03-6.302 4.684-4.653l6.183 6.18-4.669 4.668-6.198-6.195"/></g><path fill="#94989b" d="M20.888 20.883C32.085 9.693 45.229 3.527 54.764 4.074c-9.03-5.314-25.16-.177-38.01 12.668-12.853 12.846-17.993 28.981-12.676 38-.545-9.533 5.621-22.676 16.813-33.864"/><path fill="#a6aeb2" d="M21.876 21.87C33.073 10.681 45.813 4.11 54.764 4.074 46.569-.41 31.067 5.363 18.218 18.204 5.365 31.05-.412 46.55 4.078 54.742c.039-8.95 6.609-21.688 17.801-32.877"/><path fill="#5c6368" d="M27.723 14.973c.88.876.878 2.312 0 3.185l-9.563 9.561a2.26 2.26 0 0 1-3.184.001l-4.784-4.78a2.265 2.265 0 0 1 0-3.187l9.562-9.559a2.259 2.259 0 0 1 3.188 0l4.781 4.779"/><path fill="#474d51" d="M26.337 15.867c.789.786.842 2.02.121 2.736l-7.853 7.851c-.72.718-1.95.662-2.735-.121l-4.292-4.289c-.784-.787-.839-2.02-.121-2.738l7.852-7.848c.722-.721 1.953-.667 2.738.121l4.29 4.288"/></svg>