<svg xmlns="http://www.w3.org/2000/svg" viewBox="0 0 64 64"><path fill="#94989b" d="M32 64C16.561 64 4 51.439 4 36v-4h4v4c0 13.234 10.768 24 24 24 13.234 0 24-10.766 24-24v-4h4v4c0 15.439-12.561 28-28 28"/><path fill="#ed4c5c" d="M32 4C16.537 4 4 16.537 4 32h56C60 16.537 47.465 4 32 4z"/><g fill="#c94747"><path d="M50.05 28h6.955c-1.205-9.633-8.461-17.494-18-20 5.758 3.307 10.05 10.865 11.05 20M25 8C15.463 10.506 8.205 18.367 7 28h6.955c.994-9.135 5.289-16.693 11.04-20"/></g><g fill="#594640"><path d="M14.727 28C15.668 19.006 19.641 11.525 25 8c-7.309 3.596-12.695 11.05-14 20h3.727M49.27 28c-.941-8.994-4.912-16.475-10.273-20 7.311 3.596 12.695 11.05 14 20H49.27"/></g><g fill="#ed4c5c"><path d="M58 26H6l-6 6h64z"/><circle cx="32" cy="5" r="5"/></g><g fill="#fff"><path d="M30 9h4v16h-4z"/><path d="M24 15h16v4H24z"/></g><g fill="#3e4347"><path d="M4 32h4v4H4zM56 32h4v4h-4z"/></g></svg>