<svg xmlns="http://www.w3.org/2000/svg" viewBox="0 0 64 64"><path fill="#b71c3a" d="M29 9h6v12h-6z"/><path fill="#ed4c5c" d="M9 9h8v44H9z"/><g fill="#ff6473"><path d="M10 14h5v4h-5zM10.03 22h5v28h-5z"/></g><path fill="#b71c3a" d="M6.906 9h12v4h-12z"/><path fill="#d82b45" d="M7.531 8h10v4h-10z"/><path fill="#b71c3a" d="M21 16s-2.831 2.01-8 2.01S5 16 5 16l.245 4.091S7.476 21.548 11.734 22h2.533c4.258-.452 6.489-1.909 6.489-1.909L21 16z"/><path fill="#474d51" d="M8 51h10v3H8z"/><path fill="#5c6368" d="M9.03 52h7v2h-7z"/><path fill="#474d51" d="M7 54h12v10H7z"/><path fill="#5c6368" d="M8 55h9v9H8z"/><path fill="#ed4c5c" d="M47 9h8v44h-8z"/><g fill="#ff6473"><path d="M48 14h5v4h-5zM48.03 22h5v28h-5z"/></g><path fill="#b71c3a" d="M44.906 9h12v4h-12z"/><path fill="#d82b45" d="M45.531 8h10v4h-10z"/><path fill="#b71c3a" d="M59 16s-2.831 2.01-8 2.01S43 16 43 16l.244 4.091s2.231 1.457 6.489 1.909h2.533c4.258-.452 6.489-1.909 6.489-1.909L59 16z"/><path fill="#474d51" d="M46 51h10v3H46z"/><path fill="#5c6368" d="M47.03 52h7v2h-7z"/><path fill="#474d51" d="M45 54h12v10H45z"/><path fill="#5c6368" d="M46 55h9v9h-9z"/><g fill="#d82b45"><path d="M4 20h56v4H4zM32 7C12.669 7 2 5 2 5l.789 4s10.08 2 29.21 2c19.13 0 29.21-2 29.21-2l.789-4s-10.669 2-30 2"/></g><path fill="#474d51" d="M32 2.667C11.38 2.667 0 0 0 0l.841 5.333S11.589 8 32 8c20.41 0 31.159-2.667 31.159-2.667L64 0S52.62 2.667 32 2.667z"/></svg>