<svg xmlns="http://www.w3.org/2000/svg" viewBox="0 0 64 64"><path fill="#f4d4a5" d="M54.04 49.756c-8.06-.043-16.724 2.23-22.5 2.906-8.549 1-10.188-2.406-18.5-1.406C8.19 51.839 0 56 0 56v8h64V51s-4.945-1.218-9.956-1.244"/><g fill="#ffebd2"><path d="M4.044 58.558l1-1 1 1-1 1zM6.728 60.557l1-1 1 1-1 1zM7.228 57.554l.5-.5.5.5-.5.5zM10.478 59.555l.5-.5.5.5-.5.5zM4.037 61.555l.5-.5.5.5-.5.5zM1.415 59.555l.5-.5.5.5-.5.5zM9.73 55.561l1-1 1 1-1 1zM40.978 57.052l.5-.5.5.5-.5.5zM45.919 59.06l.5-.5.5.5-.5.5zM47.354 57.06l.5-.5.5.5-.5.5zM49.668 58.058l.5-.5.5.5-.5.5zM51.648 55.556l.5-.5.5.5-.5.5zM62.228 56.866l.5-.5.5.5-.5.5zM59.44 58.557l.5-.5.5.5-.5.5zM59.725 56.551l.5-.5.5.5-.5.5zM43.856 57.556l1-1 1 1-1 1zM60.227 55.057l1-1 1 1-1 1zM52.15 59.06l1-1 1 1-1 1z"/></g><path fill="#a38982" d="M59.12 54.693c-.046.558-1.337.54-2.776.345-.844 1.185-1.832 1.688-2.393 1.667-.32-.011-.572-1.192-.531-2.309-1.498-.447-2.565-.986-2.52-1.416.265-2.474 8.321.484 8.22 1.713"/><path fill="#f27a52" d="M54.14 47.677c.35-.103 1.266.823 2.235 2.146 1.552-.39 2.776-.586 2.85-.329.118.415-.28 1.536-1.2 2.854.761 1.312 1.293 2.327 1.043 2.546-.44.38-1.436.074-2.896-.281-1.039 1.087-1.711 1.882-2.287 1.798-.329-.047-.428-1.19-.496-2.704-1.484-.613-2.426-1.342-2.55-1.756-.077-.254 1.06-.751 2.577-1.259.102-1.64.372-2.913.724-3.02"/><path fill="#a38982" d="M15.197 58l-1.734-1 8.431-5.114 1.992.455z"/><path fill="#3e4347" d="M46.35 4.156a1 1 0 0 0-1.367.366l-2.502 4.333 1.733 1 2.502-4.333a1 1 0 0 0-.366-1.367"/><path fill="#94989b" d="M15.197 58l-1.734-1 20.02-32.542 1.731 1z"/><path fill="#ffbe5c" d="M43.854 8.489l-13.01 22.534a10.299 10.299 0 0 1 9.108.621 10.304 10.304 0 0 1 5.091 7.577c5.974-13.47 5.95-26.61-1.188-30.732"/><path fill="#ed77a8" d="M43.854 8.489l-13.01 22.534a10.3 10.3 0 0 0-5.091-7.577 10.302 10.302 0 0 0-9.108-.62c8.679-11.909 20.07-18.458 27.21-14.337"/><path fill="#c7e86f" d="M43.854 8.489c7.139 4.122 7.162 17.262 1.188 30.732a10.302 10.302 0 0 1 9.108.62 10.325 10.325 0 0 1 4.872 6.423c4.394-14.06-1.579-29.929-15.168-37.775"/><path fill="#60d4e0" d="M43.854 8.489c-7.139-4.121-18.531 2.428-27.21 14.337a10.302 10.302 0 0 0-5.091-7.578 10.335 10.335 0 0 0-7.999-1.01C13.531 3.404 30.263.642 43.854 8.487"/></svg>