<svg xmlns="http://www.w3.org/2000/svg" viewBox="0 0 64 64"><path fill="#3dd0e0" d="M0 50h64v14H0z"/><g fill="#b4e7ed"><path d="M4.279 54.35c1.658-.281 3.125.771 4.818.031 1.879-.777 3.217.319 5.01.623-1.659.284-3.126-.771-4.819-.031-1.881.771-3.215-.32-5.01-.623M49.889 57.831c1.66-.281 3.127.771 4.82.03 1.877-.776 3.217.32 5.01.623-1.659.285-3.127-.77-4.82-.03-1.88.772-3.214-.319-5.01-.623M14.584 58.29c1.615-.295 2.913.396 4.476.565 1.802.195 3.235-.318 4.934-.838 3.106-.948 5.372.911 8.296 1.449-1.616.301-2.914-.395-4.477-.563-1.801-.193-3.235.313-4.933.833-3.109.953-5.37-.912-8.296-1.446M37.96 54.21c2.443-.29 4.458 1.248 6.943.172 2.65-1.103 4.577.461 7.136.762-2.443.294-4.459-1.242-6.943-.17-2.655 1.097-4.575-.464-7.136-.764"/></g><path fill="#428bc1" d="M61.895 52H5.245L0 42h64z"/><path fill="#b9c1c6" d="M61 32H13.11L7 42h54z"/><g fill="#3e4347"><path d="M52.978 34h6v6h-6zM44.977 34h6v6h-6zM36.976 34h6v6h-6zM28.975 34h6v6h-6zM20.974 34h6v6h-6zM18.973 40h-7l3-6h4z"/></g><g fill="#dce1e5"><path d="M10 26h54v6H10zM12 12h38v4H12z"/></g><path fill="#b9c1c6" d="M14 16h34v10H14z"/><g fill="#778389"><path d="M2 38h1v4H2zM5 38h1v4H5zM8 38h1v4H8zM11 38h1v4h-1zM14 38h1v4h-1zM17 38h1v4h-1z"/></g><path fill="#8f989e" d="M0 37h18v1H0z"/><g fill="#778389"><path d="M61 21.999h1v4h-1zM58 21.999h1v4h-1zM55 21.999h1v4h-1zM52 21.999h1v4h-1zM49 21.999h1v4h-1zM46 21.999h1v4h-1z"/></g><path fill="#8f989e" d="M45.998 21h18v1h-18z"/><g fill="#778389"><path d="M52.998 38h1v4h-1zM55.998 38h1v4h-1zM58.998 38h1v4h-1zM61.998 38h1v4h-1z"/></g><path fill="#8f989e" d="M52.998 37h11v1h-11z"/><g fill="#3e4347"><path d="M16 18h6v6h-6zM24 18h6v6h-6zM32 18h6v6h-6zM40 18h6v6h-6z"/></g><g fill="#8f989e"><path d="M40 4h2v8h-2zM44 6h2v6h-2z"/></g></svg>