<svg xmlns="http://www.w3.org/2000/svg" viewBox="0 0 64 64"><path fill="#1778bd" d="M0 0h64v57H0z"/><path fill="#75a843" d="M0 57h64v7H0z"/><circle fill="#42ade2" cx="52.24" cy="11.763" r="10.761"/><circle fill="#6adbc6" cx="52.24" cy="11.763" r="8.891"/><circle fill="#dae3ea" cx="52.24" cy="11.763" r="6.739"/><g fill="#fff"><circle cx="52.24" cy="11.763" r="4.728"/><path d="M60.926 54.44c-5.953-25.499-27.687-28.982-28.928-29.16-1.237.179-22.978 3.683-28.926 29.16l-1-.316c6.283-26.911 29.643-30.03 29.876-30.06l.054-.005.054.005c.235.029 23.595 3.146 29.878 30.06l-1 .316"/></g><path fill="#fbb287" d="M59.546 46.629C50.718 21.855 31.998 19 31.998 19s-18.72 2.855-27.546 27.629h55.094z"/><path fill="#e17c5b" d="M58.28 46.629c-8.424-16.08-26.29-17.932-26.29-17.932S14.131 30.55 5.71 46.629h52.57"/><path fill="#5f606c" d="M57.31 46.629H6.678c-1.066 3.262-1.985 6.885-2.677 10.949h55.986c-.691-4.064-1.61-7.687-2.677-10.949"/><path fill="#b6acaa" d="M57.315 46.629C49.2 31.097 31.998 29.308 31.998 29.308S14.796 31.097 6.683 46.629h50.632z"/><g fill="#333"><path d="M60.972 53.44l-.872 6.244 2.62-5.821zM1.278 53.863l2.614 5.821-.872-6.244z"/></g><path fill="#fbb287" d="M44.44 52.42c-.321 2.041-24.559 2.041-24.88 0-.791-4.982 2.387-14.992 4.062-19.795.847-2.422 15.911-2.422 16.758 0 1.677 4.803 4.851 14.812 4.06 19.795"/><path fill="#5f606c" d="M43.41 51.596c-.298 1.875-22.534 1.875-22.832 0-.727-4.57 2.192-13.756 3.729-18.16.776-2.221 14.601-2.221 15.375 0 1.538 4.408 4.455 13.593 3.728 18.16"/><g fill="#333"><path d="M20.583 51.596c.298 1.875 22.534 1.875 22.832 0 .214-1.338.107-3.074-.177-4.967H20.762c-.284 1.892-.39 3.629-.179 4.967"/><path d="M31.509 31.765h.929v15.348h-.929z"/></g><g fill="#fff"><path d="M4.683 4.025l1-1 1 1-1 1zM16.001 8.338l1-1 1 1-1 1zM26.748 2.874l1-1 1 1-1 1zM36.276 6.334l1-1 1 1-1 1zM26.543 13.151l.5-.5.5.5-.5.5zM9.73 15.15l.5-.499.5.5-.5.5zM2.98 22.25l1-1 1 1-1 1zM17.667 21.25l1-1 1 1-1 1zM37.677 17.115l1-1 1 1-1 1zM53.234 27.696l.5-.5.5.5-.5.5zM60.55 22.524l1-1 1 1-1 1zM59.552 36.896l1-1 1 1-1 1zM2.452 39.252l1-1 1 1-1 1zM9.725 28.414l.5-.5.5.5-.5.5z"/></g></svg>