<svg xmlns="http://www.w3.org/2000/svg" viewBox="0 0 64 64"><circle fill="#e8e8e8" cx="26.778" cy="9" r="9"/><path fill="#b2c1c0" d="M41.778 25h-30c-.55 0-1 .45-1 1v3h32v-3c0-.55-.45-1-1-1"/><path fill="#d33b23" d="M12.778 29h28v31h-28z"/><g fill="#62727a"><path d="M41.778 60h-30c-.55 0-1 .45-1 1v1h32v-1c0-.55-.45-1-1-1M42.778 62h-32c-.55 0-1 .45-1 1v1h34v-1c0-.55-.45-1-1-1"/></g><g fill="#fff"><path d="M30.778 30.5h-8c-1.1 0-2 .9-2 2v6c0 1.1.9 2 2 2h8c1.1 0 2-.9 2-2v-6c0-1.1-.9-2-2-2M30.778 44h-8c-.55 0-1 .45-1 1v2c0 .55.45 1 1 1h8c.55 0 1-.45 1-1v-2c0-.55-.45-1-1-1"/></g><path fill="#e8e8e8" d="M24.778 17h4v4h-4z"/><g fill="#d33b23"><path d="M40.778 25c-3.561-2.467-8.514-4-14-4s-10.439 1.533-14 4h28M26.778 15.5c-3.584 0-6.5-2.916-6.5-6.5s2.916-6.5 6.5-6.5 6.5 2.916 6.5 6.5-2.916 6.5-6.5 6.5m0-12c-3.03 0-5.5 2.468-5.5 5.5s2.468 5.5 5.5 5.5 5.5-2.468 5.5-5.5-2.467-5.5-5.5-5.5"/></g><g fill="#fff"><path d="M30.378 59h-7.199c-.772 0-1.4-.598-1.4-1.333v-7.334c0-.735.628-1.333 1.4-1.333h7.199c.772 0 1.4.598 1.4 1.333v7.334c0 .735-.628 1.333-1.4 1.333m-7.199-9c-.217 0-.4.152-.4.333v7.334c0 .181.184.333.4.333h7.199c.217 0 .4-.152.4-.333v-7.334c0-.181-.184-.333-.4-.333h-7.199M31.778 42c0 .55-.45 1-1 1h-8c-.55 0-1-.45-1-1v-4c0-.55.45-1 1-1h8c.55 0 1 .45 1 1v4"/></g><g fill="#62727a"><path d="M24.778 41.5c0 .275-.225.5-.5.5h-1a.501.501 0 0 1-.5-.5v-3c0-.275.225-.5.5-.5h1c.275 0 .5.225.5.5v3M27.778 41.5c0 .275-.225.5-.5.5h-1a.501.501 0 0 1-.5-.5v-3c0-.275.225-.5.5-.5h1c.275 0 .5.225.5.5v3M30.778 41.5c0 .275-.225.5-.5.5h-1a.501.501 0 0 1-.5-.5v-3c0-.275.225-.5.5-.5h1c.275 0 .5.225.5.5v3"/></g><g fill="#3e4347"><path d="M45.38 53.47h-2.947a2.949 2.949 0 0 0-2.946-2.946h-2.948v-2.947h2.947a5.9 5.9 0 0 1 5.894 5.893"/><path d="M48.33 59.37a5.902 5.902 0 0 1-5.895-5.895h2.947a2.949 2.949 0 0 0 2.947 2.947 2.949 2.949 0 0 0 2.946-2.947v-22.1h2.947v22.1a5.898 5.898 0 0 1-5.892 5.894"/></g><path fill="#d0d0d0" d="M54.22 31.369h-2.947v-.052a5.166 5.166 0 0 1-4.42-5.105v-.788l4.42-2.947a2.95 2.95 0 0 0-2.946-2.896v-2.947a5.901 5.901 0 0 1 5.894 5.895v8.84m-4.304-4.447c.217.64.721 1.147 1.355 1.374v-2.278l-1.355.904"/></svg>