<svg xmlns="http://www.w3.org/2000/svg" viewBox="0 0 64 64"><g fill="#acb8bf"><path d="M15.326 4.618L17.28 6.57l-8.145 8.145-1.953-1.952zM29.588 6.63l1.952 1.952-8.147 8.144-1.952-1.952zM51.242 56.813L49.29 54.86l8.149-8.144 1.952 1.953zM49.224 42.559l-1.952-1.953 8.148-8.143 1.952 1.952z"/></g><path fill="#42ade2" d="M56.41 60.696l-4.675-42.09-6.337-6.338-42.09-4.676c-2.01-.224-1.623 4.831.716 5.921l31.695 14.773L50.49 59.981c1.092 2.343 6.148 2.727 5.924.713"/><path fill="#dae3ea" d="M61.31 8.106c2.173-4.308-1.105-7.591-5.417-5.416-5.529 2.793-13.644 9.09-21.795 17.236-12.803 12.805-21.04 25.521-18.292 28.27 2.744 2.744 15.465-5.485 28.27-18.29 8.152-8.149 14.445-16.264 17.237-21.795"/><path fill="#42ade2" d="M22.398 60.24l-1.641-14.77-2.225-2.225-14.771-1.642c-.707-.079-.571 1.694.249 2.077l11.124 5.186 5.184 11.123c.384.824 2.159.958 2.08.251"/><path fill="#acb8bf" d="M20.16 46.16c-4.455 4.456-8.613 7.575-9.248 6.943-.641-.639 2.484-4.801 6.935-9.257 4.456-4.458 8.622-7.576 9.258-6.943.628.636-2.488 4.8-6.945 9.257"/><path fill="#3e4347" d="M59.768 9.656c.577-1.716.346-3.48-.799-4.625-1.146-1.146-2.91-1.376-4.625-.8l-3.438 2.136c1.726-.596 4.153.271 5.306 1.422 1.151 1.152 2.02 3.58 1.421 5.303l2.135-3.436"/><path fill="#dae3ea" d="M59.353 3.984l.652.651-5.676 5.68-.651-.65z"/></svg>