<svg xmlns="http://www.w3.org/2000/svg" viewBox="0 0 64 64"><g fill="#b0bdc6"><path d="M.602 48.697l18.517-19.292L4.863 8.938c-.683.894-1.186 2.126-1.329 3.482L.041 45.129c-.143 1.345.084 2.61.561 3.568M62.692 5.457L35.918 30.356l21.1 28.518c1.155-.971 1.989-2.492 2.186-4.326l4.755-44.538c.196-1.847-.316-3.461-1.266-4.553"/></g><path fill="#cad5dd" d="M25.732 39.38l-6.613-9.977L.602 48.695c.44.883 1.093 1.51 1.88 1.659l50.813 9.569c1.357.257 2.669-.167 3.722-1.052l-21.1-28.517-10.186 9.03"/><path fill="#dfe9ef" d="M59.27 4.01L7.06 7.541c-.802.055-1.57.59-2.189 1.398l14.256 20.467 6.613 9.977 10.186-9.03L62.7 5.454c-.851-.977-2.045-1.539-3.426-1.448"/></svg>