<svg xmlns="http://www.w3.org/2000/svg" viewBox="0 0 64 64"><path fill="#ffce31" d="M7.916 41.137l31.909-31.9 14.953 14.958-31.909 31.9z"/><path fill="#ed4c5c" d="M61.3 4.607l-1.901-1.903a9.23 9.23 0 0 0-13.05 0l-6.52 6.526 14.95 14.951 6.522-6.523c3.606-3.603 3.603-9.445.001-13.05"/><path fill="#93a2aa" d="M35.747 13.304l4.08-4.08 14.948 14.948-4.08 4.08z"/><path fill="#c7d3d8" d="M37.345 14.904l4.081-4.081L53.18 22.576l-4.08 4.08z"/><path fill="#fed0ac" d="M7.913 41.13L1.437 58.09l4.458 4.48 16.971-6.48z"/><path fill="#333" d="M.297 61.05c-.895 2.355.299 3.546 2.651 2.646l8.229-3.141-7.729-7.733L.297 61.05"/><path fill="#ffdf85" d="M35.747 13.31l4.985 4.986-27.831 27.831-4.985-4.985z"/><path fill="#ff8736" d="M45.712 23.273l4.985 4.985-27.831 27.831-4.986-4.985z"/></svg>