<svg xmlns="http://www.w3.org/2000/svg" viewBox="0 0 64 64"><path fill="#94989b" d="M43.786 51.7l7.912-7.913 10.06 6.101s-.695 6.359 2.244 12.53l-9.976-9.977a1.697 1.697 0 0 0-.486-1.279 1.683 1.683 0 0 0-2.377 0 1.683 1.683 0 0 0 .002 2.375c.351.351.819.51 1.28.485L62.423 64c-6.174-2.939-12.532-2.245-12.532-2.245l-6.102-10.05"/><path fill="#3e4347" d="M2.457 2.457c3.278-3.276 8.592-3.276 11.867 0l4.675 4.674s4.996 1.828 14.09 10.926c9.101 9.101 10.927 14.09 10.927 14.09l9.663 9.659-11.871 11.871-9.66-9.661s-4.992-1.828-14.09-10.928c-9.1-9.1-10.93-14.09-10.93-14.09l-4.672-4.671a8.4 8.4 0 0 1 .001-11.871"/><g fill="#94989b"><path d="M17.415 5.55l1.582 1.58L7.132 19 5.55 17.417zM44.012 32.147l1.585 1.58L33.745 45.61 32.16 44.03z"/></g></svg>