<svg xmlns="http://www.w3.org/2000/svg" viewBox="0 0 64 64"><path fill="#3e4347" d="M57 22.776s-1.88-1.567-4.599-2.438c-.754-2.49-2.626-4.253-4.816-4.253-.94 0-1.823.326-2.584.896.872.651 1.58 1.622 2.035 2.788H35.301V9.078c1.279.414 2.347 1.061 3.061 1.854.626-.693.983-1.497.983-2.355 0-1.995-1.936-3.7-4.668-4.387C33.72 1.713 31.999 0 31.999 0s-1.72 1.712-2.678 4.189c-2.732.687-4.667 2.392-4.667 4.387 0 .858.356 1.662.983 2.355.714-.793 1.781-1.44 3.061-1.854v10.691H16.963c.454-1.167 1.164-2.137 2.034-2.788-.76-.57-1.642-.896-2.584-.896-2.19 0-4.062 1.763-4.816 4.253C8.879 21.209 7 22.776 7 22.776s1.879 1.568 4.597 2.44c.755 2.489 2.626 4.252 4.816 4.252.942 0 1.824-.326 2.584-.896-.87-.651-1.58-1.622-2.034-2.79h11.735v29.14c-1.279-.414-2.347-1.061-3.061-1.854-.627.693-.983 1.496-.983 2.354 0 1.996 1.935 3.701 4.667 4.387.958 2.479 2.678 4.191 2.678 4.191s1.721-1.712 2.678-4.189c2.732-.686 4.668-2.391 4.668-4.387 0-.857-.357-1.66-.983-2.354-.714.793-1.781 1.439-3.061 1.854v-29.14h11.735c-.455 1.167-1.163 2.138-2.035 2.79.761.569 1.644.896 2.584.896 2.19 0 4.063-1.764 4.816-4.252C55.12 24.344 57 22.776 57 22.776"/></svg>