<svg xmlns="http://www.w3.org/2000/svg" viewBox="0 0 64 64"><path fill="#42ade2" d="M50.182 32L59 17.447H41.361L32 2l-9.361 15.447H5L13.819 32 5 46.552h17.639L32 62l9.361-15.448H59L50.182 32zm2.434-11.02L48.06 28.5l-4.558-7.52h9.114zM45.938 32L39.26 43.02H24.739L18.063 32l6.677-11.02h14.52L45.938 32zM32 9.001l5.119 8.446H26.881L32 9.001zM11.383 20.98h9.115L15.94 28.5l-4.557-7.52zm0 22.04l4.557-7.519 4.558 7.519h-9.115zM32 54.999l-5.119-8.447h10.238L32 54.999zm16.06-19.498l4.557 7.519h-9.114l4.557-7.519z"/></svg>