<svg xmlns="http://www.w3.org/2000/svg" viewBox="0 0 64 64"><g fill="#c28fef"><path d="M28.671 25.599A9.171 9.171 0 0 1 32 24.985c1.193 0 2.319.222 3.329.615.512-6.581 1.312-17.15 1.469-21.696C36.874 1.747 34.649 0 31.999 0c-2.648 0-4.873 1.746-4.797 3.903.161 4.544.957 15.12 1.469 21.696M24.979 32a9.126 9.126 0 0 1 .621-3.328c-6.58-.519-17.15-1.313-21.698-1.471C1.747 27.127 0 29.35 0 32c-.001 2.65 1.747 4.873 3.902 4.799 4.548-.161 15.12-.958 21.699-1.471A9.072 9.072 0 0 1 24.979 32M10.231 7.407l-2.826 2.825 16.856 16.854a18.317 18.317 0 0 1 2.825-2.825L10.231 7.407M39.742 36.912a18.363 18.363 0 0 1-2.83 2.827l16.856 16.855 2.825-2.825-16.851-16.857M60.1 27.2c-4.543.158-15.12.952-21.697 1.471a9.071 9.071 0 0 1 .619 3.328c0 1.191-.223 2.32-.619 3.328 6.582.513 17.15 1.31 21.697 1.471 2.156.074 3.903-2.149 3.903-4.799.001-2.65-1.747-4.873-3.903-4.799M35.33 38.4c-1.01.396-2.135.618-3.327.618s-2.32-.222-3.328-.618c-.513 6.581-1.309 17.15-1.47 21.696C27.129 62.25 29.354 64 32.004 64c2.648 0 4.873-1.75 4.797-3.903-.157-4.547-.957-15.12-1.471-21.697M39.741 27.09l16.854-16.856-2.826-2.826-16.856 16.854a18.49 18.49 0 0 1 2.828 2.828M24.26 36.912L7.404 53.768l2.826 2.826 16.856-16.855c-1.035-.828-2-1.796-2.826-2.827"/><circle cx="31.999" cy="32" r="4.8"/></g></svg>