<svg xmlns="http://www.w3.org/2000/svg" viewBox="0 0 64 64"><path fill="#94989b" d="M58.04 21.69a57.722 57.722 0 0 1 5.958-.334v-5.21c-6.476.036-11.188.977-13.836 1.689C44.35 15.955 38.272 15 32.042 15c-6.363 0-12.557.989-18.471 2.942-2.931-.662-8.01-1.605-13.568-1.721v5.084c2.093.052 4.125.23 5.982.467C2.422 24.567.131 28.896.131 33.747.131 42.157 7.009 49 15.458 49c8.456 0 15.334-6.843 15.334-15.254 0-5.417-2.857-10.18-7.149-12.888a54.416 54.416 0 0 1 8.399-.648c2.854 0 5.669.222 8.438.657-4.283 2.706-7.134 7.468-7.134 12.879 0 8.411 6.875 15.254 15.33 15.254 8.449 0 15.327-6.843 15.327-15.254 0-4.9-2.336-9.264-5.958-12.06m-32.366 12.06c0 5.607-4.583 10.169-10.221 10.169-5.631 0-10.217-4.562-10.217-10.169 0-5.606 4.586-10.166 10.217-10.166 5.638 0 10.221 4.56 10.221 10.166m22.997 10.169c-5.637 0-10.221-4.562-10.221-10.169 0-5.606 4.584-10.166 10.221-10.166 5.631 0 10.217 4.56 10.217 10.166 0 5.608-4.586 10.169-10.217 10.169"/></svg>