<svg xmlns="http://www.w3.org/2000/svg" viewBox="0 0 64 64"><path fill="#94989b" d="M48 42c-5.967 0-10.821-4.669-10.821-10.404 0-2.747-2.321-4.98-5.179-4.98s-5.179 2.233-5.179 4.98C26.821 37.331 21.967 42 16 42S5.179 37.331 5.179 31.596a4.906 4.906 0 0 0-1.724-3.709A5.268 5.268 0 0 0 0 26.615V22c2.463 0 4.828.871 6.661 2.449 2.106 1.819 3.319 4.423 3.319 7.146 0 3.191 2.699 5.787 6.02 5.787s6.02-2.596 6.02-5.787C22.02 26.305 26.498 22 32 22s9.98 4.305 9.98 9.596c0 3.191 2.699 5.787 6.02 5.787s6.02-2.596 6.02-5.787c0-2.724 1.213-5.327 3.32-7.146A10.194 10.194 0 0 1 64 22v4.615a5.263 5.263 0 0 0-3.453 1.271 4.904 4.904 0 0 0-1.725 3.709C58.822 37.331 53.967 42 48 42"/></svg>