<svg xmlns="http://www.w3.org/2000/svg" viewBox="0 0 64 64"><circle fill="#ed4c5c" cx="32" cy="32" r="30"/><g fill="#fff"><path d="M27.36 39.19a54.898 54.898 0 0 0-3.18-3.865v14.172h-4.822V37.204a35.834 35.834 0 0 1-4.112 3.223c-.383-1.344-1.534-3.76-2.246-4.617 3.782-2.148 7.454-5.799 9.812-9.932H14.59v-4.564h4.823v-6.817h4.877v6.816h1.261l.876-.16 2.687 1.718a35.453 35.453 0 0 1-3.892 7.569c1.81 1.449 4.493 3.918 5.316 4.725l-3.178 4.02"/><path d="M47.32 39.2c-.102 4.65-.255 5.371-.868 5.371h-1.225c-.561 0-.612-.111-.612-1.439V31.337H48.7V15.001H31.136v16.336h2.962c-.357 6.811-1.38 11.131-6.485 13.787.972.887 2.248 2.713 2.758 3.877 6.28-3.377 7.709-9.137 8.17-17.664h1.787v11.85c0 4.098.765 5.371 4.135 5.371h2.502c2.653 0 3.676-1.551 4.03-7.697-1.124-.278-2.859-.942-3.678-1.661m-3.266-12.459h-8.477v-7.145h8.477v7.145"/></g></svg>