<svg xmlns="http://www.w3.org/2000/svg" width="128" height="128" viewBox="0 0 128 128"><path fill="#FCC21B" d="M127.88 100.37c0 15.13-12.38 27.52-27.52 27.52H27.64C12.5 127.89.12 115.51.12 100.37V27.63C.12 12.5 12.5.11 27.64.11h72.73c15.13 0 27.52 12.38 27.52 27.52v72.74z"/><path fill="#FCC21B" d="M4.16 4.16a13.737 13.737 0 0 0-4.04 9.72v100.26c0 3.78 1.55 7.22 4.04 9.72L64 64 4.16 4.16z"/><path fill="#FCC21B" d="M123.84 4.16c-2.5-2.49-5.94-4.04-9.72-4.04H13.88c-3.78 0-7.22 1.55-9.72 4.04L64 64l59.84-59.84z"/><path fill="#F79329" d="M64 64l59.84 59.85c2.49-2.49 4.04-5.94 4.04-9.72V13.87c0-3.78-1.55-7.22-4.04-9.72L64 64z"/><path fill="#F79329" d="M4.16 123.85c2.49 2.49 5.94 4.04 9.72 4.04h100.25c3.78 0 7.22-1.55 9.72-4.04L64 64 4.16 123.85z"/><path fill="none" d="M127.88 100.37c0 15.13-12.38 27.52-27.52 27.52H27.64C12.5 127.89.12 115.51.12 100.37V27.63C.12 12.5 12.5.11 27.64.11h72.73c15.13 0 27.52 12.38 27.52 27.52v72.74z"/><path fill="#FCC21B" d="M112.02 98.94c0 7.2-5.89 13.08-13.08 13.08H29.06c-7.2 0-13.08-5.89-13.08-13.08V29.06c0-7.2 5.89-13.08 13.08-13.08h69.87c7.2 0 13.08 5.89 13.08 13.08v69.88z"/><g><path fill="#FFF" d="M100.25 43l-9.94-.02 1.87-12.91c.04-.31-.05-.62-.25-.86-.2-.23-.49-.37-.8-.37l-15.26-.03c-.53-.01-.98.39-1.07.91l-1.89 13.21-12.2-.03 1.86-12.91c.05-.3-.04-.61-.25-.85-.21-.23-.5-.37-.8-.37l-15.26-.03c-.53 0-.99.39-1.05.92L43.3 42.87 33 42.85c-.6 0-1.08.48-1.08 1.07l-.03 12.27c0 .59.48 1.07 1.07 1.07l8.28.02-1.96 13.56-11.46-.04c-.59 0-1.07.48-1.07 1.07l-.01 12.27c-.01.59.46 1.07 1.05 1.07l9.38.02-2.14 14.82c-.04.31.04.62.26.85.19.23.48.37.8.37l15.26.04c.54 0 .99-.39 1.07-.92l2.17-15.12 12.2.03-2.13 14.82c-.04.31.04.61.25.85.2.24.5.37.8.37l15.26.04c.54 0 .99-.39 1.07-.93l2.17-15.11 10.87.02c.59 0 1.07-.48 1.07-1.06l.03-12.27c0-.59-.48-1.08-1.07-1.08l-8.82-.02 1.94-13.56 11.97.03c.6 0 1.09-.48 1.08-1.07l.02-12.27c.02-.58-.46-1.07-1.05-1.06zM70.82 57.33l-1.95 13.55-12.2-.03 1.94-13.55 12.21.03z"/></g></svg>