<svg xmlns="http://www.w3.org/2000/svg" width="128" height="128" viewBox="0 0 128 128"><path fill="#FCC21B" d="M127.88 100.37c0 15.13-12.38 27.52-27.52 27.52H27.63C12.5 127.89.11 115.51.11 100.37V27.63C.12 12.5 12.5.11 27.63.11h72.73c15.13 0 27.52 12.38 27.52 27.52v72.74z"/><path fill="#FCC21B" d="M4.16 4.16a13.72 13.72 0 0 0-4.04 9.72v100.25c0 3.78 1.55 7.22 4.04 9.72L63.99 64 4.16 4.16z"/><path fill="#FCC21B" d="M123.84 4.16a13.72 13.72 0 0 0-9.72-4.04H13.88c-3.78 0-7.22 1.55-9.72 4.04L63.99 64l59.85-59.84z"/><path fill="#F79329" d="M63.99 64l59.85 59.85c2.49-2.5 4.04-5.94 4.04-9.72V13.88c0-3.79-1.55-7.23-4.04-9.72L63.99 64z"/><path fill="#F79329" d="M4.16 123.85a13.72 13.72 0 0 0 9.72 4.04h100.25c3.78 0 7.22-1.55 9.72-4.04L63.99 64 4.16 123.85z"/><path fill="none" d="M127.88 100.37c0 15.13-12.38 27.52-27.52 27.52H27.63C12.5 127.89.11 115.51.11 100.37V27.63C.12 12.5 12.5.11 27.63.11h72.73c15.13 0 27.52 12.38 27.52 27.52v72.74z"/><path fill="#FCC21B" d="M112.02 98.94c0 7.2-5.89 13.08-13.08 13.08H29.06c-7.2 0-13.08-5.89-13.08-13.08V29.06c0-7.2 5.89-13.08 13.08-13.08h69.88c7.2 0 13.08 5.89 13.08 13.08v69.88z"/><path fill="#FFF" d="M63.19 25.22c-19.92 0-32.79 15.47-32.79 39.42 0 23.95 12.87 39.43 32.79 39.43S95.98 88.6 95.98 64.64c0-23.94-12.87-39.42-32.79-39.42zm0 60.21c-9.53 0-12.91-11.2-12.91-20.79 0-9.58 3.38-20.78 12.91-20.78s12.92 11.2 12.92 20.78c0 9.59-3.39 20.79-12.92 20.79z"/></svg>