<svg xmlns="http://www.w3.org/2000/svg" width="128" height="128" viewBox="0 0 128 128"><path fill="#FCC21B" d="M127.88 100.37c0 15.13-12.38 27.52-27.52 27.52H27.63C12.5 127.89.11 115.51.11 100.37V27.63C.12 12.5 12.5.11 27.63.11h72.73c15.13 0 27.52 12.38 27.52 27.52v72.74z"/><path fill="#FCC21B" d="M4.16 4.16a13.72 13.72 0 0 0-4.04 9.72v100.26c0 3.78 1.55 7.22 4.04 9.72L64 64 4.16 4.16z"/><path fill="#FCC21B" d="M123.84 4.16a13.72 13.72 0 0 0-9.72-4.04H13.88c-3.78 0-7.22 1.55-9.72 4.04L64 64l59.84-59.84z"/><path fill="#F79329" d="M64 64l59.84 59.85c2.49-2.5 4.04-5.94 4.04-9.72V13.87c0-3.78-1.55-7.22-4.04-9.72L64 64z"/><path fill="#F79329" d="M4.16 123.85c2.5 2.49 5.93 4.04 9.72 4.04h100.25c3.78 0 7.22-1.55 9.72-4.04L64 64 4.16 123.85z"/><path fill="none" d="M127.88 100.37c0 15.13-12.38 27.52-27.52 27.52H27.63C12.5 127.89.11 115.51.11 100.37V27.63C.12 12.5 12.5.11 27.63.11h72.73c15.13 0 27.52 12.38 27.52 27.52v72.74z"/><path fill="#FCC21B" d="M112.02 98.94c0 7.2-5.89 13.08-13.08 13.08H29.05c-7.2 0-13.08-5.89-13.08-13.08V29.06c0-7.2 5.89-13.08 13.08-13.08h69.88c7.2 0 13.08 5.89 13.08 13.08v69.88z"/><path fill="#FFF" d="M47.33 49.47l7.51-2.15v41.21h-5.79c-.62 0-1.11.5-1.11 1.11v14.09c0 .62.49 1.11 1.11 1.11h29.93c.61 0 1.1-.49 1.1-1.11V89.64c0-.61-.49-1.11-1.1-1.11h-5.79V28.19c0-.34-.16-.66-.42-.86-.26-.21-.6-.3-.93-.22l-25.05 5.38c-.5.11-.87.56-.87 1.08V48.4c0 .35.16.68.44.89.28.21.64.27.97.18z"/></svg>