<svg xmlns="http://www.w3.org/2000/svg" width="128" height="128" viewBox="0 0 128 128"><path fill="#FCC21B" d="M127.88 100.37c0 15.13-12.38 27.52-27.52 27.52H27.63C12.5 127.89.11 115.51.11 100.37V27.63C.11 12.5 12.49.11 27.63.11h72.73c15.13 0 27.52 12.38 27.52 27.52v72.74z"/><path fill="#FCC21B" d="M4.16 4.16a13.72 13.72 0 0 0-4.04 9.72v100.26c0 3.79 1.55 7.22 4.04 9.72L64 64 4.16 4.16z"/><path fill="#FCC21B" d="M123.84 4.16a13.72 13.72 0 0 0-9.72-4.04H13.88c-3.78 0-7.22 1.55-9.72 4.04L64 64l59.84-59.84z"/><path fill="#F79329" d="M64 64l59.84 59.85a13.72 13.72 0 0 0 4.04-9.72V13.87c0-3.78-1.55-7.22-4.04-9.72L64 64z"/><path fill="#F79329" d="M4.16 123.85c2.5 2.49 5.93 4.04 9.72 4.04h100.25c3.78 0 7.22-1.55 9.72-4.04L64 64 4.16 123.85z"/><path fill="none" d="M127.88 100.37c0 15.13-12.38 27.52-27.52 27.52H27.63C12.5 127.89.11 115.51.11 100.37V27.63C.11 12.5 12.49.11 27.63.11h72.73c15.13 0 27.52 12.38 27.52 27.52v72.74z"/><path fill="#FCC21B" d="M112.02 98.94c0 7.2-5.89 13.08-13.08 13.08H29.05c-7.2 0-13.08-5.89-13.08-13.08V29.06c0-7.2 5.89-13.08 13.08-13.08h69.88c7.2 0 13.08 5.89 13.08 13.08v69.88z"/><g><path fill="#FFF" d="M88.96 82.84H61.82c4.27-2.62 11.75-7.79 20.24-16.28 7.95-7.95 10.62-22.42 1.1-31.95-5.51-5.5-11.77-8.29-18.63-8.29-15.14 0-27.77 13.39-28.31 13.96-.34.37-.39.91-.13 1.34l6.83 11.14c.18.29.47.47.8.52.33.04.66-.05.91-.29.08-.07 8.32-7.71 15.54-7.71 2.91 0 5.18 1.22 6.95 3.74 1.45 2.05 1.87 4.32 1.3 6.9-2.76 12.33-27.09 26.29-27.34 26.42-.34.2-.56.57-.56.97V97.9c0 .62.5 1.12 1.12 1.12h47.32c.61 0 1.1-.5 1.1-1.12V83.95c0-.62-.49-1.11-1.1-1.11z"/></g></svg>