<svg xmlns="http://www.w3.org/2000/svg" width="128" height="128" viewBox="0 0 128 128"><path fill="#FCC21B" d="M127.88 100.37c0 15.13-12.38 27.52-27.52 27.52H27.63C12.5 127.89.11 115.51.11 100.37V27.63C.11 12.5 12.49.11 27.63.11h72.73c15.13 0 27.52 12.38 27.52 27.52v72.74z"/><path fill="#FCC21B" d="M4.16 4.16a13.72 13.72 0 0 0-4.04 9.72v100.26c0 3.78 1.55 7.22 4.04 9.72L63.99 64 4.16 4.16z"/><path fill="#FCC21B" d="M123.84 4.16c-2.49-2.49-5.93-4.05-9.72-4.05H13.88c-3.78 0-7.22 1.55-9.72 4.05L63.99 64l59.85-59.84z"/><path fill="#F79329" d="M63.99 64l59.85 59.84a13.72 13.72 0 0 0 4.04-9.72V13.88c0-3.78-1.55-7.22-4.04-9.72L63.99 64zM4.16 123.85a13.72 13.72 0 0 0 9.72 4.04h100.25c3.78 0 7.22-1.54 9.72-4.04L63.99 64 4.16 123.85z"/><path fill="none" d="M127.88 100.37c0 15.13-12.38 27.52-27.52 27.52H27.63C12.5 127.89.11 115.51.11 100.37V27.63C.11 12.5 12.49.11 27.63.11h72.73c15.13 0 27.52 12.38 27.52 27.52v72.74z"/><path fill="#FCC21B" d="M112.02 98.95c0 7.2-5.89 13.08-13.08 13.08H29.06c-7.2 0-13.08-5.89-13.08-13.08V29.06c0-7.2 5.89-13.08 13.08-13.08h69.88c7.2 0 13.08 5.89 13.08 13.08v69.89z"/><path fill="#FFF" d="M63.41 101.7h.4c4.58-.07 13.25-1.07 19.86-7.02 5.51-4.96 8.06-11.73 7.01-18.59-.98-6.39-5-11.83-11.13-15.18 5.89-4.43 9.42-9.96 10.04-15.71.6-5.58-1.58-11.14-6.3-16.09-4.75-4.98-11.16-7.6-18.52-7.6-11.33 0-21.76 6-24.93 10.32a1.1 1.1 0 0 0-.02 1.25l7.04 10.19c.17.25.43.41.74.46.29.04.6-.04.83-.23.08-.07 7.73-6.33 14.26-6.33 2.98 0 5.19 1.3 6.74 4 1.29 2.25 1.54 4.3.75 6.25-2.15 5.32-11.24 8-11.33 8.02-.46.13-.78.55-.78 1.03v8.97c0 .49.33.93.82 1.04.09.02 8.73 2.17 10.71 7.12.77 1.94.38 4.14-1.17 6.55-1.64 2.54-4.12 3.83-7.38 3.83-6.3 0-14.04-4.79-17.43-7.81-.24-.2-.53-.31-.84-.27-.31.04-.58.2-.76.46l-7.04 10.19c-.27.4-.25.94.07 1.31.48.54 12.01 13.84 28.36 13.84z"/></svg>