<svg xmlns="http://www.w3.org/2000/svg" width="128" height="128" viewBox="0 0 128 128"><path fill="#FCC21B" d="M127.88 100.37c0 15.13-12.38 27.52-27.52 27.52H27.63C12.5 127.89.11 115.51.11 100.37V27.63C.12 12.5 12.5.11 27.63.11h72.73c15.13 0 27.52 12.38 27.52 27.52v72.74z"/><path fill="#FCC21B" d="M4.16 4.15a13.72 13.72 0 0 0-4.04 9.72v100.26c0 3.78 1.55 7.22 4.04 9.72L63.99 64 4.16 4.15z"/><path fill="#FCC21B" d="M123.84 4.15a13.72 13.72 0 0 0-9.72-4.04H13.88c-3.78 0-7.22 1.55-9.72 4.04L63.99 64l59.85-59.85z"/><path fill="#F79329" d="M63.99 64l59.85 59.84a13.72 13.72 0 0 0 4.04-9.72V13.87c0-3.78-1.55-7.22-4.04-9.72L63.99 64z"/><path fill="#F79329" d="M4.16 123.84a13.72 13.72 0 0 0 9.72 4.04h100.25c3.78 0 7.22-1.55 9.72-4.04L63.99 64 4.16 123.84z"/><path fill="none" d="M127.88 100.37c0 15.13-12.38 27.52-27.52 27.52H27.63C12.5 127.89.11 115.51.11 100.37V27.63C.12 12.5 12.5.11 27.63.11h72.73c15.13 0 27.52 12.38 27.52 27.52v72.74z"/><path fill="#FCC21B" d="M112.02 98.94c0 7.2-5.89 13.08-13.08 13.08H29.06c-7.2 0-13.08-5.89-13.08-13.08V29.06c0-7.2 5.89-13.08 13.08-13.08h69.88c7.2 0 13.08 5.89 13.08 13.08v69.88z"/><path fill="#FFF" d="M94.33 76.22H81.49V29.2c0-.18-.05-.33-.12-.47 0-.01 0-.03-.01-.04-.01-.02-.04-.04-.05-.06-.08-.11-.17-.21-.28-.29-.04-.03-.07-.06-.11-.08-.15-.08-.32-.13-.5-.13H64.05c-.17 0-.32.05-.47.12-.04.02-.08.05-.12.08-.1.07-.18.14-.26.24-.02.02-.05.03-.06.06l-31.18 48.1c-.01.02-.01.05-.02.07-.07.13-.12.27-.14.42 0 .02-.01.05-.01.08v13.18c0 .6.48 1.08 1.07 1.08h30.09v13.17c0 .6.49 1.08 1.09 1.08h16.37c.6 0 1.08-.48 1.08-1.08V91.55h12.83c.59 0 1.08-.48 1.08-1.08V77.31c.01-.6-.48-1.09-1.07-1.09zM62.96 58.11v18.11H51.23l11.73-18.11z"/></svg>