<svg xmlns="http://www.w3.org/2000/svg" width="128" height="128" viewBox="0 0 128 128"><path fill="#FCC21B" d="M127.88 100.37c0 15.13-12.38 27.52-27.52 27.52H27.63C12.5 127.89.11 115.51.11 100.37V27.63C.11 12.5 12.49.11 27.63.11h72.73c15.13 0 27.52 12.38 27.52 27.52v72.74z"/><path fill="#FCC21B" d="M4.16 4.16a13.72 13.72 0 0 0-4.04 9.72v100.26c0 3.78 1.55 7.22 4.04 9.72L63.99 64 4.16 4.16z"/><path fill="#FCC21B" d="M123.84 4.16a13.72 13.72 0 0 0-9.72-4.04H13.88c-3.78 0-7.22 1.55-9.72 4.04L63.99 64l59.85-59.84z"/><path fill="#F79329" d="M63.99 64l59.85 59.84a13.72 13.72 0 0 0 4.04-9.72V13.87c0-3.78-1.55-7.22-4.04-9.72L63.99 64z"/><path fill="#F79329" d="M4.16 123.84a13.72 13.72 0 0 0 9.72 4.04h100.25c3.78 0 7.22-1.55 9.72-4.04L63.99 64 4.16 123.84z"/><path fill="none" d="M127.88 100.37c0 15.13-12.38 27.52-27.52 27.52H27.63C12.5 127.89.11 115.51.11 100.37V27.63C.11 12.5 12.49.11 27.63.11h72.73c15.13 0 27.52 12.38 27.52 27.52v72.74z"/><path fill="#FCC21B" d="M112.02 98.94c0 7.2-5.89 13.08-13.08 13.08H29.06c-7.2 0-13.08-5.89-13.08-13.08V29.06c0-7.2 5.89-13.08 13.08-13.08h69.88c7.2 0 13.08 5.89 13.08 13.08v69.88z"/><path fill="#FFF" d="M59.07 85.24c-6.7 0-13.93-2.32-17.61-4.62-.27-.17-.61-.2-.92-.1-.3.11-.54.36-.63.66l-4.14 12.89c-.15.46.03.95.43 1.21.51.32 12.54 7.87 25.64 7.87 2.73 0 5.34-.34 7.75-1 4.31-1.19 12.26-4.27 17.05-11.52 3.3-4.99 4.41-11.05 3.14-17.05-1.4-6.61-5.54-12.4-11.67-16.33-4.74-2.8-10.91-4.39-18.38-4.76l1.04-12.08h26.15c.59 0 1.08-.49 1.08-1.08V25.9c0-.6-.49-1.08-1.08-1.08h-42.7c-.15 0-.29.03-.41.09-.04.02-.07.05-.12.07-.08.04-.16.09-.22.15-.04.04-.07.08-.1.13-.05.06-.11.12-.13.19-.02.06-.04.12-.05.18-.02.06-.05.11-.06.18l-3.85 43.11c-.02.35.11.69.37.92a1.11 1.11 0 0 0 .96.23l.26-.07c1.27-.17 6.14-.8 11.6-.8 8.45 0 14.22 1.46 16.72 4.23 1.13 1.25 1.59 2.77 1.39 4.63-.61 5.94-6.59 7.18-11.51 7.18z"/></svg>