<svg xmlns="http://www.w3.org/2000/svg" width="128" height="128" viewBox="0 0 128 128"><path fill="#FCC21B" d="M127.88 100.37c0 15.13-12.38 27.52-27.52 27.52H27.63C12.5 127.89.11 115.51.11 100.37V27.63C.11 12.5 12.49.11 27.63.11h72.73c15.13 0 27.52 12.38 27.52 27.52v72.74z"/><path fill="#FCC21B" d="M4.16 4.16a13.72 13.72 0 0 0-4.04 9.72v100.26c0 3.78 1.55 7.22 4.04 9.72L63.99 64 4.16 4.16z"/><path fill="#FCC21B" d="M123.84 4.16a13.72 13.72 0 0 0-9.72-4.04H13.88c-3.78 0-7.22 1.55-9.72 4.04L63.99 64l59.85-59.84z"/><path fill="#F79329" d="M63.99 64l59.85 59.84a13.72 13.72 0 0 0 4.04-9.72V13.87c0-3.78-1.55-7.22-4.04-9.72L63.99 64z"/><path fill="#F79329" d="M4.16 123.84a13.72 13.72 0 0 0 9.72 4.04h100.25c3.78 0 7.22-1.55 9.72-4.04L63.99 64 4.16 123.84z"/><path fill="none" d="M127.88 100.37c0 15.13-12.38 27.52-27.52 27.52H27.63C12.5 127.89.11 115.51.11 100.37V27.63C.11 12.5 12.49.11 27.63.11h72.73c15.13 0 27.52 12.38 27.52 27.52v72.74z"/><path fill="#FCC21B" d="M112.02 98.94c0 7.2-5.89 13.08-13.08 13.08H29.06c-7.2 0-13.08-5.89-13.08-13.08V29.06c0-7.2 5.89-13.08 13.08-13.08h69.88c7.2 0 13.08 5.89 13.08 13.08v69.88z"/><path fill="#FFF" d="M32.64 81.74c.04.34.1.67.15 1.01.05.33.09.65.15.99l.06.29c.07.36.15.73.23 1.08.1.43.22.85.34 1.27 3.36 11.41 14.55 19.12 29.1 19.12h.03c17.46-.01 30.14-11.12 30.14-26.43S80.15 52.64 62.68 52.64c-2.22 0-4.37.18-6.42.53 6.71-11.7 17.03-18.38 17.13-18.45.28-.17.45-.45.48-.75.03-.31-.08-.62-.29-.84L63.5 22.81c-.32-.32-.81-.4-1.21-.2-.55.28-13.55 7.02-22.22 22.24-4.38 7.69-9.8 19.79-7.43 36.89zm30.03-13.88c6.86 0 11.85 4.71 11.85 11.2s-4.99 11.2-11.85 11.2c-6.87 0-11.85-4.71-11.85-11.2s4.98-11.2 11.85-11.2z"/></svg>