<svg xmlns="http://www.w3.org/2000/svg" width="128" height="128" viewBox="0 0 128 128"><path fill="#FCC21B" d="M127.88 100.37c0 15.13-12.38 27.52-27.52 27.52H27.63C12.5 127.89.11 115.51.11 100.37V27.63C.11 12.5 12.49.11 27.63.11h72.73c15.13 0 27.52 12.38 27.52 27.52v72.74z"/><path fill="#FCC21B" d="M4.16 4.15a13.72 13.72 0 0 0-4.04 9.72v100.26c0 3.78 1.55 7.22 4.04 9.72L63.99 64 4.16 4.15z"/><path fill="#FCC21B" d="M123.84 4.15a13.72 13.72 0 0 0-9.72-4.04H13.88c-3.78 0-7.22 1.54-9.72 4.04L63.99 64l59.85-59.85z"/><path fill="#F79329" d="M63.99 64l59.85 59.84a13.72 13.72 0 0 0 4.04-9.72V13.87c0-3.78-1.55-7.22-4.04-9.72L63.99 64z"/><path fill="#F79329" d="M4.16 123.84c2.49 2.49 5.93 4.05 9.72 4.05h100.25c3.78 0 7.22-1.55 9.72-4.05L63.99 64 4.16 123.84z"/><path fill="none" d="M127.88 100.37c0 15.13-12.38 27.52-27.52 27.52H27.63C12.5 127.89.11 115.51.11 100.37V27.63C.11 12.5 12.49.11 27.63.11h72.73c15.13 0 27.52 12.38 27.52 27.52v72.74z"/><path fill="#FCC21B" d="M112.02 98.94c0 7.2-5.89 13.08-13.08 13.08H29.06c-7.2 0-13.08-5.89-13.08-13.08V29.05c0-7.2 5.89-13.08 13.08-13.08h69.88c7.2 0 13.08 5.89 13.08 13.08v69.89z"/><path fill="#FFF" d="M92.9 27.87H33.54c-.57 0-1.04.46-1.04 1.04v12.94c0 .57.47 1.04 1.04 1.04h34.07l-22.84 59.94c-.12.32-.08.68.11.96.19.28.51.45.86.45H64.6c.43 0 .82-.26.98-.67l28.3-74.3c.12-.32.08-.68-.11-.96-.21-.27-.53-.44-.87-.44z"/></svg>