<svg xmlns="http://www.w3.org/2000/svg" width="128" height="128" viewBox="0 0 128 128"><path fill="#FCC21B" d="M127.88 100.37c0 15.13-12.38 27.52-27.52 27.52H27.63C12.5 127.89.11 115.51.11 100.37V27.63C.11 12.5 12.49.11 27.63.11h72.73c15.13 0 27.52 12.38 27.52 27.52v72.74z"/><path fill="#FCC21B" d="M4.16 4.16a13.72 13.72 0 0 0-4.04 9.72v100.26c0 3.78 1.55 7.22 4.04 9.72L63.99 64 4.16 4.16z"/><path fill="#FCC21B" d="M123.84 4.16a13.72 13.72 0 0 0-9.72-4.04H13.88c-3.78 0-7.22 1.55-9.72 4.04L63.99 64l59.85-59.84z"/><path fill="#F79329" d="M63.99 64l59.85 59.85c2.49-2.49 4.04-5.94 4.04-9.72V13.87c0-3.78-1.55-7.22-4.04-9.72L63.99 64z"/><path fill="#F79329" d="M4.16 123.85a13.72 13.72 0 0 0 9.72 4.04h100.25c3.78 0 7.22-1.55 9.72-4.04L63.99 64 4.16 123.85z"/><path fill="none" d="M127.88 100.37c0 15.13-12.38 27.52-27.52 27.52H27.63C12.5 127.89.11 115.51.11 100.37V27.63C.11 12.5 12.49.11 27.63.11h72.73c15.13 0 27.52 12.38 27.52 27.52v72.74z"/><path fill="#FCC21B" d="M112.02 98.94c0 7.2-5.89 13.08-13.08 13.08H29.06c-7.2 0-13.08-5.89-13.08-13.08V29.06c0-7.2 5.89-13.08 13.08-13.08h69.88c7.2 0 13.08 5.89 13.08 13.08v69.88z"/><g fill="#FFF"><path d="M63.99 75.11c17.58 0 29.13-11.37 29.13-25.4s-11.55-25.4-29.13-25.4c-17.56 0-29.12 11.37-29.12 25.4s11.56 25.4 29.12 25.4zm0-37.63c7.77 0 12.89 5.48 12.89 12.23 0 6.76-5.12 12.23-12.89 12.23-7.77 0-12.89-5.48-12.89-12.23s5.13-12.23 12.89-12.23z"/><path d="M83.43 42.06L66.99 24.92s25.07 5.09 26.04 24.14c.91 17.68-5.68 29.24-11.48 37.1-10.35 14-24.21 19.1-24.21 19.1l-8.78-11.42s11.92-5.73 20.28-17.55c4.51-6.38 7.44-14.09 8.13-24.61l6.46-9.62z"/></g></svg>