<svg xmlns="http://www.w3.org/2000/svg" width="128" height="128" viewBox="0 0 128 128"><path fill="#006CA2" d="M121 .11H6.99C3.21.11.12 3.21.12 6.99V121c0 3.79 3.09 6.88 6.87 6.88H121c3.78 0 6.88-3.09 6.88-6.88V6.99c0-3.78-3.1-6.88-6.88-6.88z"/><path fill="#FFF" d="M63.97 13.82C34.03 13.82 12.3 34.92 12.3 64s21.73 50.19 51.67 50.19S115.63 93.08 115.63 64 93.91 13.82 63.97 13.82zm0 74.53c-14.79 0-25.12-10.01-25.12-24.35s10.33-24.35 25.12-24.35c14.79 0 25.12 10.01 25.12 24.35S78.76 88.35 63.97 88.35z"/></svg>