<svg xmlns="http://www.w3.org/2000/svg" width="128" height="128" viewBox="0 0 128 128"><path fill="#40C0E7" d="M97.26 67.41c-8.7-8.22-23.49-15.06-33.27-19.59-1.65-.77-3.15-1.46-4.43-2.07-3.69-1.77-8.74-6.69-6.57-12.35 1.46-3.82 5.18-5.75 11.06-5.75 1.88 0 3.95.21 6.16.62 7.66 1.44 13.48 4.3 16.78 5.92a1.68 1.68 0 0 0 2.28-.83l7.54-17.02c.33-.75.08-1.63-.61-2.08-5.32-3.53-18.59-8.77-33.34-8.77-2.13 0-4.25.11-6.32.32-11.75 1.21-23.52 4.34-30.06 18.99-4.07 9.12-4.06 19.38.01 26.79 4.35 8.09 11.48 11.7 20.5 16.27l1.16.59c6.52 3.25 14.32 6.87 19.45 9.25 7.58 3.66 10.4 10.16 8.66 14.08-2.81 6.32-9.02 7.71-19.77 4.66-9.48-2.57-18.23-9.84-20.68-12-.37-.32-.85-.47-1.34-.41-.49.07-.91.34-1.18.75L21.6 102.7c-.44.68-.34 1.57.24 2.13 6.06 5.85 11 9.24 19.56 13.46 5.75 2.84 14.18 4.53 22.55 4.53 8.75 0 30.09-2.02 39.45-20.74 5.97-11.96 3.74-24.57-6.14-34.67z"/></svg>