<svg xmlns="http://www.w3.org/2000/svg" xmlns:xlink="http://www.w3.org/1999/xlink" width="128" height="128" viewBox="0 0 128 128"><defs><path id="a" d="M127.99 115.9c0 6.65-5.44 12.1-12.1 12.1H12.1C5.45 128 0 122.56 0 115.9V12.1C0 5.44 5.44 0 12.1 0h103.8c6.65 0 12.1 5.44 12.1 12.1v103.8z"/></defs><use xlink:href="#a" overflow="visible" fill="#006CA2"/><clipPath id="b"><use xlink:href="#a" overflow="visible"/></clipPath><g clip-path="url(#b)"><g fill="#FFF"><path d="M28.04 104.89h15.65v29.24H28.04zM85.54 104.89h15.66v29.24H85.54z"/></g><g fill="#FFF"><path d="M28.04 104.89h15.65v13.89H28.04zM85.54 104.89h15.66v13.89H85.54z"/></g><path fill="#FFF" d="M-4.59 98.59h145.37v12.6H-4.59z"/><path fill="#FFF" d="M-4.59 98.59h145.37v4.94H-4.59z"/><defs><path id="c" d="M-3.29 79.85C37.1 72.1 64.62 34.77 64.62 34.77h.01s27.52 37.33 67.91 45.08v26.16H-4.59l1.3-26.16z"/></defs><clipPath id="d"><use xlink:href="#c" overflow="visible"/></clipPath><g clip-path="url(#d)" fill="#FFF"><path d="M60.44 5.5h8.35v99.3h-8.35zM44.63 5.5h5.07v99.3h-5.07zM27.52 5.5h5.07v99.3h-5.07zM10.39 5.5h5.08v99.3h-5.08z"/><g><path d="M80.03 5.5h5.07v99.3h-5.07zM97.15 5.5h5.08v99.3h-5.08zM114.27 5.5h5.08v99.3h-5.08z"/></g></g><path fill="#FFF" d="M132.53 82.08c-.14 0-.28-.01-.42-.04-35.4-6.8-60.7-35.27-67.5-43.66-6.85 8.38-32.41 36.93-67.48 43.66a2.23 2.23 0 1 1-.84-4.38c39.07-7.5 66.26-43.85 66.53-44.21.84-1.14 2.75-1.13 3.59 0 1.12 1.5 27.87 36.79 66.54 44.21 1.21.23 2 1.4 1.77 2.61a2.225 2.225 0 0 1-2.19 1.81z"/><g fill="#FCC21B"><path d="M105.92 12.32c0 2.14-1.73 3.88-3.88 3.88-2.14 0-3.88-1.73-3.88-3.88 0-2.14 1.74-3.88 3.88-3.88a3.87 3.87 0 0 1 3.88 3.88zM49.31 10.98c0 2.14-1.73 3.88-3.88 3.88-2.14 0-3.88-1.73-3.88-3.88 0-2.14 1.73-3.88 3.88-3.88s3.88 1.74 3.88 3.88zM23.79 34.56c0 2.13-1.73 3.88-3.88 3.88a3.89 3.89 0 0 1-3.88-3.88c0-2.14 1.74-3.88 3.88-3.88 2.14.01 3.88 1.74 3.88 3.88zM17.3 54.79c0 1.82-1.48 3.31-3.31 3.31-1.82 0-3.31-1.48-3.31-3.31s1.48-3.31 3.31-3.31 3.31 1.47 3.31 3.31z"/><circle cx="18.3" cy="14.86" r="2.41"/><path d="M44.78 33.12c0 1.33-1.08 2.41-2.41 2.41s-2.41-1.08-2.41-2.41a2.42 2.42 0 0 1 2.41-2.42c1.34 0 2.41 1.08 2.41 2.42zM85.94 15.54c0 1.33-1.08 2.41-2.41 2.41s-2.41-1.08-2.41-2.41 1.07-2.42 2.41-2.42a2.42 2.42 0 0 1 2.41 2.42zM93.77 34.77c0 1.33-1.08 2.41-2.42 2.41-1.33 0-2.41-1.08-2.41-2.41s1.08-2.41 2.41-2.41c1.34.01 2.42 1.08 2.42 2.41zM118.5 29.87c0 1.33-1.08 2.41-2.41 2.41s-2.41-1.08-2.41-2.41 1.08-2.42 2.41-2.42 2.41 1.08 2.41 2.42zM115.57 49.08c0 1.32-1.07 2.41-2.41 2.41-1.33 0-2.41-1.08-2.41-2.41a2.42 2.42 0 0 1 2.41-2.42c1.33 0 2.41 1.08 2.41 2.42z"/></g></g></svg>