<svg xmlns="http://www.w3.org/2000/svg" xmlns:xlink="http://www.w3.org/1999/xlink" width="128" height="128" viewBox="0 0 128 128"><defs><path id="a" d="M127.99 115.9c0 6.65-5.44 12.1-12.1 12.1H12.1C5.45 128 0 122.56 0 115.9V12.1C0 5.44 5.44 0 12.1 0h103.8c6.65 0 12.1 5.44 12.1 12.1v103.8z"/></defs><linearGradient id="b" gradientUnits="userSpaceOnUse" x1="63.995" y1=".638" x2="63.995" y2="127.582"><stop offset="0" stop-color="#ed6c30"/><stop offset=".534" stop-color="#f79329"/><stop offset="1" stop-color="#fcc21b"/></linearGradient><use xlink:href="#a" overflow="visible" fill="url(#b)"/><clipPath id="c"><use xlink:href="#a" overflow="visible"/></clipPath><g clip-path="url(#c)"><defs><path id="d" d="M94.67 43.45c0 16.94-13.73 30.67-30.67 30.67S33.33 60.39 33.33 43.45 47.06 12.78 64 12.78c16.93 0 30.67 13.73 30.67 30.67z"/></defs><use xlink:href="#d" overflow="visible" fill="#FCC21B"/></g><g clip-path="url(#c)"><path fill="#2F2F2F" d="M8.58 109.28h111.49v19.87H8.58z"/><path fill="#2F2F2F" d="M51.99 89.69c0-4.99-4.08-9.07-9.07-9.07h-25.3c-4.99 0-9.07 4.08-9.07 9.07v30.39c0 4.99 4.08 9.07 9.07 9.07h25.3c4.99 0 9.07-4.08 9.07-9.07V89.69z"/><path fill="#2F2F2F" d="M43.75 94.87h42.14v34.28H43.75z"/><path fill="#2F2F2F" d="M120.02 64.62c0-4.99-4.08-9.07-9.07-9.07H86.96c-4.99 0-9.07 4.08-9.07 9.07v55.46c0 4.99 4.08 9.07 9.07 9.07h23.99c4.99 0 9.07-4.08 9.07-9.07V64.62z"/><path fill="#FCC21B" d="M93.82 72.95c0 1.37-1.12 2.5-2.49 2.5h-2.92c-1.37 0-2.49-1.12-2.49-2.5v-4.63c0-1.37 1.12-2.49 2.49-2.49h2.92c1.37 0 2.49 1.12 2.49 2.49v4.63zM113.31 73.86c0 .46-1.12 1.58-2.49 1.58h-2.92c-1.37 0-2.5-1.12-2.5-2.5v-4.63c0-1.37 1.12-2.49 2.5-2.49h2.92c1.37 0 2.49 1.12 2.49 1.58v6.46z"/><path fill="#F79329" d="M113.31 89.18c0 .46-1.12 1.58-2.49 1.58h-2.92c-1.37 0-2.5-1.12-2.5-2.49v-4.63c0-1.37 1.12-2.5 2.5-2.5h2.92c1.37 0 2.49 1.12 2.49 1.58v6.46z"/><path fill="#FCC21B" d="M102.64 103.04c0 .46-1.12 1.58-2.49 1.58h-2.92c-1.37 0-2.5-1.12-2.5-2.49V97.5c0-1.37 1.12-2.5 2.5-2.5h2.92c1.37 0 2.49 1.13 2.49 1.58v6.46zM23.4 102.22c0 1.37-1.12 2.5-2.5 2.5h-2.91a2.5 2.5 0 0 1-2.5-2.5v-4.63c0-1.37 1.12-2.49 2.5-2.49h2.91c1.37 0 2.5 1.12 2.5 2.49v4.63z"/><path fill="#F79329" d="M34.51 102.22c0 1.37-1.12 2.5-2.5 2.5H29.1a2.5 2.5 0 0 1-2.5-2.5v-4.63c0-1.37 1.12-2.49 2.5-2.49h2.91c1.37 0 2.5 1.12 2.5 2.49v4.63z"/><path fill="#FCC21B" d="M45.62 102.22c0 1.37-1.12 2.5-2.5 2.5h-2.91a2.5 2.5 0 0 1-2.5-2.5v-4.63c0-1.37 1.12-2.49 2.5-2.49h2.91c1.37 0 2.5 1.12 2.5 2.49v4.63z"/><g><path fill="#F79329" d="M23.4 116.4c0 1.37-1.12 2.5-2.5 2.5h-2.91a2.5 2.5 0 0 1-2.5-2.5v-4.63c0-1.37 1.12-2.49 2.5-2.49h2.91c1.37 0 2.5 1.13 2.5 2.49v4.63z"/></g><g><path fill="#FCC21B" d="M34.51 116.4c0 1.37-1.12 2.5-2.5 2.5H29.1a2.5 2.5 0 0 1-2.5-2.5v-4.63c0-1.37 1.12-2.49 2.5-2.49h2.91c1.37 0 2.5 1.13 2.5 2.49v4.63z"/></g><g><path fill="#F79329" d="M56.73 116.4c0 1.37-1.12 2.5-2.5 2.5h-2.91a2.5 2.5 0 0 1-2.5-2.5v-4.63c0-1.37 1.12-2.49 2.5-2.49h2.91c1.37 0 2.5 1.13 2.5 2.49v4.63z"/></g></g></svg>