<svg xmlns="http://www.w3.org/2000/svg" width="128" height="128" viewBox="0 0 128 128"><g fill="#F3BC2D"><circle cx="36.61" cy="124.56" r="1.52"/><path d="M54.88 102.65c-1.4 0-2.53 1.13-2.53 2.53s1.12 2.53 2.53 2.53c1.39 0 2.53-1.13 2.53-2.53s-1.14-2.53-2.53-2.53zM58.88 44.78c1.4 0 2.53-1.13 2.53-2.52s-1.13-2.53-2.53-2.53c-1.39 0-2.53 1.13-2.53 2.53s1.14 2.52 2.53 2.52zM61.41 11.92c1.39 0 2.53-1.13 2.53-2.53s-1.13-2.53-2.53-2.53-2.53 1.13-2.53 2.53c0 1.39 1.13 2.53 2.53 2.53zM119 24.26c1.4 0 2.53-1.13 2.53-2.53S120.4 19.2 119 19.2c-1.39 0-2.52 1.13-2.52 2.53s1.13 2.53 2.52 2.53zM94.52 68.41c-1.4 0-2.53 1.13-2.53 2.53s1.13 2.53 2.53 2.53c1.39 0 2.53-1.13 2.53-2.53s-1.14-2.53-2.53-2.53zM14.42 72.6a2.524 2.524 0 1 0 0-5.05c-1.39 0-2.53 1.13-2.53 2.53a2.53 2.53 0 0 0 2.53 2.52zM33.97 75.99c1.39 0 2.53-1.13 2.53-2.52s-1.13-2.53-2.53-2.53-2.53 1.13-2.53 2.53 1.13 2.52 2.53 2.52zM86.19 80.53c0-1.4-1.13-2.53-2.53-2.53s-2.53 1.13-2.53 2.53 1.12 2.52 2.53 2.52c1.39.01 2.53-1.12 2.53-2.52zM45.92 118.35c-1.39 0-2.53 1.13-2.53 2.53s1.13 2.53 2.53 2.53 2.52-1.13 2.52-2.53-1.12-2.53-2.52-2.53zM86.19 98.37c-1.39 0-2.53 1.13-2.53 2.53s1.13 2.52 2.53 2.52 2.52-1.13 2.52-2.52-1.12-2.53-2.52-2.53zM94.52 80.73a1.52 1.52 0 1 0-.001 3.039 1.52 1.52 0 0 0 .001-3.039zM56.99 51.49a1.526 1.526 0 0 0 3.05 0c0-.84-.68-1.52-1.52-1.52-.85 0-1.53.69-1.53 1.52zM66.74 46.3a1.52 1.52 0 1 0 .001-3.041 1.52 1.52 0 0 0-.001 3.041zM121.53 51.49a1.52 1.52 0 1 0 1.52 1.52c0-.83-.69-1.52-1.52-1.52zM79.61 108.95c-.84 0-1.52.68-1.52 1.52s.67 1.52 1.52 1.52c.84 0 1.53-.68 1.53-1.52s-.69-1.52-1.53-1.52zM44.85 57.79c.84 0 1.52-.68 1.52-1.52s-.67-1.52-1.52-1.52-1.52.68-1.52 1.52.68 1.52 1.52 1.52zM59.89 18.1a1.52 1.52 0 1 0 3.039.001 1.52 1.52 0 0 0-3.039-.001zM121.53 14.53a1.52 1.52 0 1 0 .001-3.041 1.52 1.52 0 0 0-.001 3.041zM63.97 107.43a1.52 1.52 0 1 0 0 3.04c.84 0 1.53-.68 1.53-1.52-.01-.84-.69-1.52-1.53-1.52zM6.26 101.13c-.84 0-1.52.68-1.52 1.52s.67 1.52 1.52 1.52c.84 0 1.53-.68 1.53-1.52-.01-.84-.69-1.52-1.53-1.52zM6.26 72.6c0-.84-.68-1.52-1.52-1.52s-1.53.68-1.53 1.52.68 1.52 1.53 1.52c.83.01 1.52-.67 1.52-1.52zM31.43 82.26c.84 0 1.53-.68 1.53-1.52s-.68-1.52-1.53-1.52c-.83 0-1.52.68-1.52 1.52.01.83.69 1.52 1.52 1.52zM26.64 71.6a1.52 1.52 0 1 0 .001-3.041 1.52 1.52 0 0 0-.001 3.041zM61.61 73.9l-3.17.84c-.57.15-1.21.76-1.4 1.34l-.98 3.24c-.09.32-.26.49-.45.49-.15 0-.32-.12-.47-.35l-1.83-2.84c-.3-.49-1.03-.89-1.62-.89h-.08l-3.36.1h-.05c-.57 0-.74-.37-.38-.84l2.11-2.66c.39-.48.54-1.35.32-1.9l-1.11-3.09c-.16-.45-.01-.74.34-.74l.33.07 3.15 1.13c.18.07.41.1.63.1.47 0 .98-.14 1.31-.4l2.59-1.95.44-.18c.26 0 .42.23.4.62l-.11 3.25c-.03.61.35 1.4.85 1.75l2.72 1.95c.5.38.41.82-.18.96zM78.81 68.45l-.66 2.16c-.07.22-.17.33-.3.33l-.32-.23-1.22-1.89c-.21-.33-.69-.6-1.08-.6h-.05l-2.24.07h-.02c-.39 0-.51-.24-.26-.56l1.41-1.77c.26-.32.35-.9.21-1.27l-.74-2.06c-.11-.3 0-.5.23-.5l.22.05 2.1.75.41.07c.32 0 .65-.1.88-.27l1.73-1.3.29-.12c.17 0 .28.15.27.42l-.08 2.17c-.02.41.23.94.57 1.17l1.82 1.3c.33.23.28.53-.12.63l-2.11.56c-.39.09-.81.5-.94.89zM124.6 36.91l-1.63 1.45c-.3.26-.49.82-.42 1.22l.38 2.23c.06.29-.04.45-.22.45l-.28-.09-1.94-1.14c-.18-.11-.43-.16-.67-.16-.22 0-.44.05-.62.15l-1.97 1.08-.27.08c-.19 0-.29-.16-.23-.45l.45-2.22c.08-.4-.09-.96-.39-1.23l-1.58-1.5c-.3-.27-.21-.55.19-.6l2.22-.28c.41-.05.88-.39 1.07-.76l.95-1.94.32-.27.31.28.92 1.97c.17.37.63.73 1.04.78l2.2.34c.39.05.48.34.17.61zM91.34 44.47l-3.16.84c-.58.14-1.22.76-1.4 1.34l-.99 3.25c-.09.33-.26.49-.44.49-.16 0-.32-.11-.47-.35l-1.83-2.84c-.3-.49-1.03-.89-1.62-.89h-.07l-3.37.11h-.04c-.58 0-.75-.37-.38-.84l2.1-2.66c.39-.48.53-1.35.32-1.91l-1.11-3.08c-.16-.45-.01-.74.34-.74l.33.07 3.16 1.13c.18.07.4.1.62.1.48 0 .98-.15 1.33-.4l2.58-1.95.44-.17c.26 0 .42.23.4.62l-.11 3.25c-.03.61.35 1.4.86 1.76l2.71 1.94c.48.34.4.78-.2.93zM111.79 55.82l-3.16.84c-.58.15-1.22.76-1.4 1.34l-.98 3.24c-.1.33-.27.49-.45.49-.16 0-.32-.12-.47-.35l-1.83-2.84c-.31-.49-1.03-.89-1.63-.89h-.07l-3.37.1h-.03c-.58 0-.76-.36-.38-.84l2.11-2.66c.38-.48.52-1.35.31-1.9l-1.11-3.09c-.16-.45-.01-.74.34-.74l.33.08 3.15 1.13c.18.07.4.1.63.1.47 0 .98-.14 1.32-.4l2.59-1.95.44-.18c.25 0 .42.23.4.62l-.12 3.25c-.03.61.36 1.4.86 1.75l2.72 1.95c.48.36.4.8-.2.95zM75.14 19.01l2.11-2.66c.38-.48.53-1.35.31-1.91l-1.11-3.08c-.16-.45 0-.74.35-.74l.33.07 3.15 1.13c.18.07.4.1.62.1.48 0 .98-.14 1.32-.4l2.59-1.95.44-.18c.25 0 .42.22.39.62l-.11 3.25c-.03.61.36 1.4.86 1.75l2.72 1.94c.49.35.41.79-.19.94l-3.16.84c-.57.14-1.22.76-1.4 1.34l-.98 3.25c-.1.33-.27.49-.45.49-.16 0-.33-.12-.48-.35l-1.83-2.84c-.31-.49-1.03-.89-1.63-.89h-.07l-3.37.11h-.04c-.57.01-.73-.36-.37-.83zM13.98 90.08h-.08l-3.36.11h-.04c-.58 0-.74-.37-.38-.84l2.11-2.66c.39-.48.53-1.35.31-1.91l-1.1-3.08c-.17-.45-.01-.74.34-.74l.33.07 3.15 1.13c.18.07.4.1.62.1.47 0 .98-.15 1.32-.4l2.59-1.95.44-.18c.25 0 .42.22.4.62l-.12 3.25c-.03.61.36 1.4.86 1.75l2.72 1.94c.49.35.41.79-.18.94l-3.17.84c-.58.14-1.22.76-1.4 1.34l-.98 3.25c-.1.33-.26.49-.45.49-.15 0-.32-.11-.47-.35l-1.83-2.84c-.31-.48-1.04-.88-1.63-.88zM30.92 113.69l-3.16.84c-.58.15-1.22.76-1.4 1.34l-.98 3.24c-.1.33-.27.49-.45.49-.15 0-.32-.12-.47-.35l-1.83-2.84c-.31-.49-1.03-.89-1.62-.89h-.08l-3.36.1h-.05c-.58 0-.74-.37-.38-.84l2.11-2.66c.38-.48.53-1.35.31-1.9l-1.1-3.09c-.17-.45-.01-.74.34-.74l.32.07 3.15 1.13c.18.07.4.1.63.1.47 0 .98-.14 1.32-.4l2.59-1.95.44-.18c.25 0 .42.23.4.62l-.12 3.25c-.03.61.36 1.4.86 1.75l2.72 1.94c.5.38.42.82-.19.97zM43.09 94.47c-.43.11-.93.58-1.08 1.03l-.76 2.49c-.07.25-.2.38-.34.38l-.37-.27-1.4-2.18c-.24-.38-.8-.68-1.26-.68h-.05l-2.59.08h-.03c-.44 0-.57-.28-.28-.65l1.62-2.05c.3-.36.41-1.03.24-1.47l-.85-2.37c-.12-.35-.01-.57.26-.57l.26.05 2.42.87.48.08c.37 0 .75-.11 1.01-.3l1.99-1.5.34-.14c.2 0 .33.17.31.48l-.08 2.5c-.02.47.27 1.08.66 1.35l2.09 1.5c.38.27.31.6-.15.72l-2.44.65zM73.76 89.6l-2.42.65c-.44.11-.93.58-1.08 1.03l-.76 2.49c-.08.25-.21.38-.35.38l-.37-.27-1.4-2.18c-.24-.38-.8-.68-1.26-.68h-.05l-2.58.08h-.04c-.44 0-.57-.28-.28-.65l1.62-2.05c.3-.36.41-1.03.24-1.47l-.85-2.37c-.13-.34-.01-.56.26-.56l.25.05 2.42.87.48.08c.37 0 .76-.11 1.02-.3l1.99-1.5.34-.14c.19 0 .32.18.3.48l-.08 2.5c-.02.47.28 1.08.66 1.35l2.09 1.5c.38.27.32.6-.15.71zM99.64 29.65l1.62-2.05c.29-.36.41-1.03.23-1.47l-.85-2.37c-.12-.35 0-.57.27-.57l.25.05 2.42.87.48.07c.37 0 .76-.11 1.02-.3l1.99-1.5.34-.14c.19 0 .32.17.31.48l-.09 2.5c-.02.47.28 1.08.66 1.35l2.09 1.5c.38.27.32.6-.14.72l-2.43.65c-.44.11-.93.58-1.08 1.03l-.76 2.49c-.08.25-.2.38-.34.38l-.37-.27-1.41-2.18c-.23-.38-.8-.68-1.25-.68h-.06l-2.58.08h-.04c-.43 0-.57-.28-.28-.64zM101.76 9.31l1.63-2.05c.3-.36.41-1.03.24-1.47l-.85-2.37c-.13-.35-.01-.57.26-.57l.25.05 2.43.87.48.08c.36 0 .75-.11 1.01-.3l1.99-1.5.34-.14c.2 0 .32.18.31.48l-.08 2.5c-.03.47.27 1.08.66 1.35l2.08 1.5c.38.27.32.6-.14.72l-2.43.65c-.44.11-.93.58-1.08 1.03l-.76 2.49c-.08.25-.2.38-.34.38l-.37-.27-1.41-2.18c-.23-.38-.79-.68-1.25-.68h-.05l-2.59.08h-.03c-.45 0-.58-.28-.3-.65z"/></g><path fill="#F3BC2D" d="M6.26 121.52c-.84 0-1.52.68-1.52 1.52s.67 1.52 1.52 1.52c.84 0 1.53-.68 1.53-1.52-.01-.84-.69-1.52-1.53-1.52z"/></svg>