<svg xmlns="http://www.w3.org/2000/svg" width="128" height="128" viewBox="0 0 128 128"><path fill="#FFF" d="M80.41 89.73c-11.64 5.87-28.33 6.11-38.77-2.88-11.29-9.7-15.29-25.39-6.95-38.69 1.04-1.66 2.08-3.36 3.23-4.93 3.16-4.29 7.81-7.59 12.76-9.08.33-.1.67-.19 1-.27 1.51-.38 3.04-.69 4.57-1.08 4.15-1.06 8.48-.61 12.67-.13 4.85.56 10.89 3.51 14.82 6.52 15.82 12.13 14.53 41.55-3.33 50.54z"/><g fill="#FCC21B"><path d="M126.16 64.26c-5.35-7-8.2-5.03-15.39-5.4-1.35-.07-12.17.67-12.35-1.1-.2-1.89 10.42-4.87 11.85-5.44 4.39-1.74 8.01-3.19 9.86-7.21.44-.96 1.02-3.44.13-6.36-1.04-3.42-7.98-6.09-10.93-5.6-2.05.34-4.59.64-7.01 1.61-1.44.58-7.87 4.1-9.43 3.63-1.85-.56 4.77-5.6 5.46-6.36 1.29-1.42 2.87-2.45 3.84-4.1 1.22-2.08 2.69-4.8 2.67-7.25-.01-1.44-1.52-5.47-3.18-6.36-7.07-3.81-11.57 1.4-16.79 8.02-.53.66-5.99 7.55-6.76 7.75-.43.12 4.83-9.83 4.98-10.17 2.04-4.71 1.14-8.9-.25-13.23-.29-.9-1.94-2.1-3.31-2.54-.78-.26-3.5-1.13-4.45-1.02-5.98.67-8.01 3.44-11.71 9.92-.85 1.5-2.72 11.52-3.39 13.05-.94 2.11-1.95-8.11-2.12-9.39-.19-1.49-.66-3.18-1.09-4.3-.52-1.32-1.04-2.73-1.77-3.78-.83-1.19-1.8-2.33-2.94-3.21-1.9-1.46-5.09-2.41-7.9-1.64-.92.25-1.23.34-1.92.77-3.66 2.27-4.59 7.83-4.43 11.43.26 5.47 6.03 13.81 6.18 15.96-1.6-.69-9.1-12.02-11.9-13.67-4.02-2.37-6.36-3.31-11.19-1.78-.54.17-2.54 2.04-3.05 2.26-.74.33-.26.63-.61 1.05-1.06 1.29-1.27 4.2-1.05 5.47.39 2.28 1.28 4.12 2.29 6.23.28.58 1.34 2.02 1.66 2.57.7 1.19 1.72 2.24 2.56 3.33.22.28 10.11 6.7 9.61 6.84-.72.21-9.43-3.52-10.13-3.6-.74-.08-11.72-7.23-17.32-1-1.12 1.24-2.54 2.8-2.79 5.22-.12 1.31-.3 4.22.25 5.21 1.69 3.02 3.04 4.64 5.85 6.61 1.34.94 6.31 2.34 7.76 3.06.56.27 8.6.18 8.08 1.1-.18.33-7.79 1.09-8.21 1.19-3.18.76-4.79.95-7 2.16-2.3 1.26-11.32 3.18-6.89 15.02.97 2.58 3 3.68 5.37 4.19 2.25.48 5.52-.13 8.27-.89 1.74-.48 11.28-4.96 13.07-4.46 1.8.5-5.42 4.17-6.07 4.71-1.2 1-6.24 5.53-7 6.87-1.53 2.69-2.05 3.51-2.93 6.47-.81 2.69-1.03 4.29-.78 7.11.12 1.3.49 2.86 1.82 3.43 1.37.58 3.76.48 5 .48 3.6 0 5.78-1.43 8.96-3.07 1.35-.69 2.64-1.19 3.85-2.33.74-.7 6.53-10.86 7.6-10.45-.03-.01-5.01 14.66-5.09 15.09-.53 2.91-.63 5.9.22 8.74.49 1.64 1.33 3.21 2.49 4.48.82.91 2.65 1.54 4.02 1.57 6.14.15 9.7-4.81 11.86-12.06.13-.43 2.71-8.7 3.11-8.91 1.21-.63 1.32 10.01 1.4 10.71.23 1.97.98 4.87 1.99 6.6 1.28 2.22 2.73 3.98 4.71 5.6 1.59 1.3 4.37 1.53 6.48 1.77.65.08 2.31-.31 2.93-.5 1.05-.32 3.17-2.47 3.64-3.4 2.23-4.46 1.07-7.93.11-12.71-.12-.59-2.92-10.68-2.5-11.15.76-.83 4.76 9.27 5.07 9.87 1.06 1.99 3.47 5.14 5.13 6.7 2.16 2.04 5.06 2.97 7.64 3.44 1.91.35 5.76-.12 7.25-1.4 1.46-1.25 2.19-3.14 2.54-5.6.37-2.54.07-4.02-.64-6.49-.23-.81-.8-2.11-1-2.45-1.17-2.13-9.7-12.33-9.39-12.36 1.2-.13 10.73 7.39 11.82 7.91 2.11 1.02 4.49 1.54 6.78 2.01 1.99.41 3.81.11 5.83.06.37-.01 2.18-.98 3.89-2.79 1.15-1.21 1.3-3.46 1.3-4.25 0-3.09-.62-4.47-3.04-7.53-.95-1.2-2.46-2.17-4.12-3.12-.99-.57-13.68-3.58-14.16-4.58-.47-.98 11.98 1 12.72.93 1.94-.17 4.18.21 5.99-.17 2.74-.58 5.39-1.4 6.95-2.75 3.08-2.67 2.58-8.38 1.14-10.27zM80.41 89.73c-11.64 5.87-28.33 6.11-38.77-2.88-11.29-9.7-15.29-25.39-6.95-38.69 1.04-1.66 2.08-3.36 3.23-4.93 3.16-4.29 7.81-7.59 12.76-9.08.33-.1.67-.19 1-.27 1.51-.38 3.04-.69 4.57-1.08 4.15-1.06 8.48-.61 12.67-.13 4.85.56 10.89 3.51 14.82 6.52 15.82 12.13 14.53 41.55-3.33 50.54z"/><path d="M63.52 44.4c-3.61-.17-9.27.76-12.29 3.13-5.51 4.33-8.36 12.04-7 18.98.46 2.35 1.41 4.62 2.9 6.64 6.64 8.98 21.53 8.84 29.34 1.6 11.34-10.5 1.14-29.69-12.95-30.35z"/></g></svg>