<svg xmlns="http://www.w3.org/2000/svg" width="128" height="128" viewBox="0 0 128 128"><path fill="#40C0E7" d="M39.19 107.91c-.06.18-.09.36-.12.56-.37 2.54-.78 6.04.37 8.43 3.75 7.78 16.47 9.75 23.82 10.26 8.78.61 30.04-1.63 30.43-13.74.08-2.42.77-6.41-1.68-7.8-1.76-1-4.16-1.29-6.14-1.57-5.58-.78-11.28-.79-16.94-.97-8.07-.26-16.39-.22-24.34 1.19-2.36.41-4.74 1.27-5.4 3.64z"/><path fill="#006CA2" d="M61.95 108.11c2.28 0 4.56.05 6.8.12l3.19.09c4.61.12 8.96.24 13.22.83l.32.04c1 .14 2.28.32 3.19.59.03.66-.04 1.57-.07 2.14-.03.47-.06.92-.08 1.32-.2 6.09-13.23 8.84-22.43 8.84-.91 0-1.74-.03-2.49-.08-10.35-.72-17.65-3.47-19.53-7.35-.24-.5-.43-1.77.01-4.97.26-.09.69-.22 1.39-.34 4.78-.84 10.01-1.23 16.48-1.23m0-5.15c-5.82 0-11.69.31-17.36 1.31-2.37.41-4.74 1.28-5.4 3.64-.06.18-.09.36-.12.56-.37 2.54-.78 6.04.37 8.43 3.75 7.78 16.47 9.75 23.82 10.26.85.06 1.81.09 2.85.09 9.83 0 27.23-2.89 27.59-13.83.08-2.42.77-6.41-1.68-7.8-1.76-1-4.16-1.29-6.14-1.57-5.58-.78-11.28-.79-16.94-.97-2.33-.07-4.65-.12-6.99-.12z"/><path fill="#40C0E7" d="M118.67 46.28c-.44-.29-.89-.56-1.37-.83-15.69-8.78-35.2-10.83-53.3-10.6-18.1-.23-37.62 1.82-53.29 10.61-.48.26-.94.54-1.38.83C2.49 50.75.55 57.27.53 65.44.5 77.42 9.71 90.62 18.39 97.74c2.46 2.02 5.03 3.95 7.7 5.67 11.79 7.62 23.34 10.23 37.33 10.79.19 0 .38-.01.58 0 .2-.01.39 0 .58 0 13.99-.56 25.54-3.17 37.33-10.79 2.67-1.72 5.23-3.66 7.68-5.67 8.7-7.12 17.91-20.32 17.88-32.3-.01-8.18-1.97-14.7-8.8-19.16z"/><path fill="#006CA2" d="M66.61 39.99c20.44 0 36.2 3.26 48.22 9.99.34.2.69.4 1.03.62 4.56 2.98 6.44 7.28 6.45 14.84.03 9.97-8.02 21.78-15.98 28.3-2.62 2.15-4.99 3.89-7.23 5.33-10.04 6.49-20.12 9.38-34.66 9.97H63.85l-.24.01c-14.63-.59-24.7-3.48-34.74-9.97-2.27-1.46-4.63-3.2-7.23-5.33-7.96-6.52-16-18.34-15.97-28.3.02-7.56 1.89-11.86 6.5-14.87.3-.2.62-.4 1.04-.62 11.97-6.71 27.73-9.97 48.16-9.97.85 0 1.7.01 2.68.02.85-.01 1.71-.02 2.56-.02m0-5.16c-.87 0-1.74.01-2.61.02-.87-.01-1.75-.02-2.62-.02-17.34 0-35.74 2.26-50.68 10.62-.48.26-.94.54-1.38.83C2.48 50.74.54 57.26.52 65.43.5 77.42 9.71 90.62 18.39 97.74c2.46 2.02 5.03 3.95 7.7 5.67 11.79 7.62 23.34 10.23 37.33 10.79H64.57c13.99-.56 25.54-3.17 37.33-10.79 2.67-1.72 5.23-3.66 7.68-5.67 8.7-7.12 17.91-20.32 17.88-32.3-.01-8.17-1.97-14.7-8.8-19.15-.44-.29-.89-.56-1.37-.83-14.92-8.37-33.33-10.63-50.68-10.63z"/><path fill="#FFF" d="M13.31 54.7l.21-.33c.48-.76.38-1.47.38-2.36 0-1.74.3-3.55 1.19-5.08.74-1.27 2.12-2.11 2.63-3.51.49-1.35.44-2.77.48-4.17.03-1.79.62-3.35 1.67-4.83.88-1.27 2.1-2.24 3.55-2.88.49-.22 1.29-.22 1.72-.61 1.44-1.3 1.46-3.04 1.98-4.73.49-1.61 1.61-3.41 3.08-4.33.7-.44 1.49-.65 2.22-1.01 1.53-.72 3.31-1 4.65-2.1 2.32-1.92 2.97-5.14 5.92-6.47 4.08-1.82 8.89-.15 12.47-2.95 2.21-1.72 4.8-2.12 7.58-2.13 1.32-.01 2.64.37 3.83.83C73 10.43 79.62 7 84.41 12.91c.72.87 1.45 1.68 2.52 2.15 1.55.68 3.45.44 5.08 1.14 4.29 1.85 4.8 5.52 7.69 8.42 1.18 1.17 3.19 1.23 4.49 2.49 1.71 1.65 2.54 3.83 2.94 6.11.3 1.82.04 4.34 1.7 5.64.98.77 1.63 1.44 2.32 2.47.65.96.95 1.56 1.13 2.71.16 1.05-.09 2.56.22 3.58.16.51.78.87 1.14 1.23.57.57 1.02 1.24 1.46 1.89 1.35 1.97.83 4.22 1.21 6.4.33 1.9-.13 3.99-.79 5.78-1.26 3.36-3.77 6.1-6.68 8.22-6.56 4.79-14.95 7.06-22.88 8.62-3.61.7-7.24 1.24-10.89 1.67-19.35 2.27-38.62-1.44-55.47-11.08-2.84-1.64-5.49-4.32-7-7.18-.75-1.45-1.37-3.05-1.08-4.7.26-1.49 1.01-2.55 1.79-3.77z"/><path fill="#78A3AD" d="M63.08 7.2c1.31 0 2.61.38 3.79.83C73 10.43 79.62 7 84.41 12.91c.72.87 1.45 1.68 2.52 2.15 1.55.68 3.45.44 5.08 1.14 4.29 1.85 4.8 5.52 7.69 8.42 1.18 1.17 3.19 1.23 4.49 2.49 1.71 1.65 2.54 3.83 2.94 6.11.3 1.82.04 4.34 1.7 5.64.98.77 1.63 1.44 2.32 2.47.65.96.95 1.56 1.13 2.71.16 1.05-.09 2.56.22 3.58.16.51.78.87 1.14 1.23.57.57 1.02 1.24 1.46 1.89 1.35 1.97.83 4.22 1.21 6.4.33 1.9-.13 3.99-.79 5.78-1.26 3.36-3.77 6.1-6.68 8.22-6.56 4.79-14.95 7.06-22.88 8.62-3.61.7-7.24 1.24-10.89 1.67-3.65.43-7.31.64-10.94.64-15.59 0-30.85-3.92-44.52-11.73-2.84-1.64-5.49-4.32-7-7.18-.75-1.45-1.37-3.05-1.08-4.7.25-1.49 1-2.55 1.79-3.77l.21-.33c.48-.76.38-1.47.38-2.36 0-1.74.3-3.55 1.19-5.08.74-1.27 2.12-2.11 2.63-3.51.49-1.35.44-2.77.48-4.17.03-1.79.62-3.35 1.67-4.83.88-1.27 2.1-2.24 3.55-2.88.49-.22 1.29-.22 1.72-.61 1.44-1.3 1.46-3.04 1.98-4.73.49-1.61 1.61-3.41 3.08-4.33.7-.44 1.49-.65 2.22-1.01 1.53-.72 3.31-1 4.65-2.1 2.32-1.92 2.97-5.14 5.92-6.47 4.08-1.82 8.89-.15 12.47-2.95 2.21-1.72 4.8-2.12 7.58-2.13h.03m0-6.45H63c-3.02.01-7.51.39-11.5 3.49-.47.36-2 .47-3.33.56-2.22.15-4.98.33-7.82 1.6-3.44 1.54-5.19 4.2-6.36 5.96-.34.52-.82 1.24-1.04 1.43 0 0-.58.19-.99.33-.78.28-1.57.56-2.31.91-.18.09-.33.14-.48.2-.62.25-1.49.59-2.42 1.18-2.63 1.65-4.79 4.6-5.81 7.9-.15.49-.27.97-.39 1.45-2.41 1.11-4.49 2.83-5.98 4.97-1.82 2.62-2.77 5.44-2.83 8.4l-.01.59c0 .38-.02.86-.04 1.2-.04.05-.1.1-.14.15-.57.61-1.35 1.45-2.04 2.62-1.37 2.37-2.06 5.12-2.07 8.21-.85 1.32-1.88 3.09-2.3 5.53-.62 3.65.68 6.74 1.73 8.73 2.1 3.97 5.56 7.53 9.52 9.8 14.38 8.23 30.88 12.58 47.71 12.58 3.87 0 7.81-.23 11.69-.68 4.07-.48 7.8-1.05 11.38-1.75 7.71-1.52 17.56-3.99 25.45-9.74 4.32-3.17 7.32-6.92 8.89-11.17 1.23-3.29 1.6-6.35 1.12-9.14-.07-.44-.07-.87-.09-1.3-.08-1.91-.19-4.79-2.16-7.65-.39-.59-.93-1.37-1.63-2.17 0-.57-.02-1.21-.13-1.89-.37-2.3-1.12-3.79-2.14-5.31-.8-1.21-1.66-2.2-2.75-3.16-.02-.18-.04-.37-.05-.53-.06-.66-.12-1.31-.22-1.9-.7-4.01-2.32-7.25-4.83-9.67-1.56-1.53-3.3-2.21-4.44-2.66-.09-.04-.18-.07-.27-.1-.44-.53-.86-1.2-1.33-1.94-1.49-2.34-3.52-5.54-8.07-7.5-1.64-.71-3.18-.91-4.3-1.05-.2-.02-.38-.04-.58-.07l-.26-.32c-4.79-5.94-11.05-6.1-15.21-6.21-1.97-.05-3.66-.1-4.96-.61-2.26-.87-4.2-1.27-6.13-1.27z"/><path fill="#78A3AD" d="M84.41 28.04c-.15.09-.31.22-.48.39-.99.99-1.12 2.78-2.02 3.89-.99 1.2-3.16 1.42-3.48 3.11-.29 1.51 1.68 2.91 3.03 3.06 1.6.18 3.71-1.01 4.87-2.02 1.41-1.24 2.41-3.41 1.77-5.25-.49-1.43-1.98-4.19-3.69-3.18zM81.8 49.14c-.6 1.21-.75 3.03-1.76 3.67-.9.59-1.82.99-2.49 1.88-.46.62-.55.9-.55 1.66-.01 1.03.22 1.06.97 1.72 1.63 1.39 4.09 1.03 5.79-.04 2.66-1.66 4.58-9.66-.14-10.03-.94-.08-1.46.43-1.82 1.14zM61.87 67.71c-.61 1.21-.75 3.03-1.76 3.67-.89.58-1.82.99-2.49 1.88-.47.62-.56.9-.56 1.66 0 1.03.23 1.06.98 1.71 1.63 1.4 4.09 1.03 5.79-.03 2.66-1.67 4.57-9.67-.13-10.04-.96-.06-1.47.44-1.83 1.15zM102.28 52.08c.62-.92.97-2.02.99-3.1.02-1.46.21-4.01-1-5.12-.78-.71-2.6-.42-3.12.51-.31.55-.23 1.54-.47 2.16-.63 1.62-4.14 3.81-3.33 5.69.44 1.04 1.99 1.8 3.02 1.92 1.6.21 3.01-.72 3.91-2.06zM101.44 70.5c.62-.92.98-2.03 1-3.1.02-1.46.21-4.01-1-5.12-.77-.71-2.6-.42-3.13.51-.31.55-.23 1.53-.48 2.16-.61 1.62-4.13 3.8-3.32 5.7.44 1.03 1.98 1.79 3.02 1.92 1.62.19 3.02-.74 3.91-2.07zM83.64 80.75c.16-.25.28-.53.38-.8.75-2.12.54-6.17-2.11-6.92-1.5-.43-2.78 1.28-3.2 2.48-.34.96-.53 1.31-1.17 2.21-.72 1.02-1.29 1.91-2.33 2.61-.57.39-2.14 1.08-1.86 2 .15.51 1.7 1.08 2.16 1.23 2.7.86 6.62-.25 8.13-2.81z"/></svg>