<svg xmlns="http://www.w3.org/2000/svg" width="128" height="128" viewBox="0 0 128 128"><path fill="#FFF" d="M43.556 40.875c-1.394 1.741-3.85 3.756-6.213 3.756-.796 0-1.582-.23-2.314-.776-1.866-1.394-4.058-3.309-5.571-5.067-.593-.686-1.104-1.408-1.628-2.116-.781-1.058-1.587-2.086-2.726-2.902-1.744-1.249-3.717-1.494-5.728-1.494-1.303 0-2.621.103-3.901.103-2.743 0-5.314-.473-7.195-3.443-2.415-3.813.096-9.636 4.452-10.432 3.769-.691 5.836-2.368 7.692-5.816 1.315-2.444 3.889-4.481 6.583-4.481.911 0 1.834.23 2.728.759 4.019 2.377 2.946 7.408 3.186 11.309.162 2.562 1.168 3.463 2.711 5.378.588.729 1.21 1.396 1.832 2.069 1.137 1.236 2.314 2.422 3.615 3.534 3.148 2.691 5.619 5.703 2.477 9.619zM116.539 110.219c-3.14.813-4.775 2.355-6.127 5.373-1.004 2.246-3.201 4.202-5.601 4.202a4.537 4.537 0 0 1-2.02-.485c-3.534-1.758-2.939-6.066-3.382-9.34-.181-1.312-.615-2.082-1.229-2.831 3.626-2.268 6.852-5.018 9.418-8.184.451.063.906.108 1.366.108 1.825 0 3.698-.417 5.471-.417 1.917 0 3.715.485 5.209 2.503 2.273 3.063.514 8.128-3.105 9.071z"/><path fill="#724941" d="M124.679 97.411c-2.473-3.34-5.921-5.035-10.244-5.035-.992 0-1.905.088-2.762.181 6.183-12.367 6.254-27.585-5.064-37.175-4.007-3.395-9.854-5.187-13.197-9.225-3.458-4.173-4.249-10.714-7.91-15.147-3.412-4.126-7.944-7.004-12.97-8.772-9.389-3.309-20.718-2.615-29.676 2.102-.82-.833-1.599-1.7-2.341-2.621l-.573-.701c-.274-.333-.607-.734-.744-.94l-.02-.199c-.037-.575-.029-1.3-.024-2.064.024-3.678.071-10.521-6.225-14.245a11.66 11.66 0 0 0-5.921-1.634c-4.81 0-9.561 3.054-12.105 7.783-1.109 2.06-1.714 2.327-3.299 2.618-4.078.744-7.575 3.614-9.353 7.677-1.802 4.114-1.528 8.704.732 12.274 4.026 6.36 10.398 6.36 12.492 6.36.72 0 1.447-.027 2.18-.057a41.187 41.187 0 0 1 1.722-.046c1.459 0 1.883.184 2.077.321.46.328.987 1.048 1.599 1.883.274.377.58.784.906 1.203-3.233 5.167-5.339 10.932-5.613 17-.573 12.708 5.527 25.596 17.73 30.438 7.104 2.818 11.005 2.128 13.663 10.133 1.1 3.318 2.951 6.504 5.804 8.647 10.122 7.602 24.83 7.349 36.952 2.01l.242.257.475.502c.066.542.096 1.043.13 1.553.218 3.294.622 9.426 6.659 12.428a10.751 10.751 0 0 0 4.812 1.142c4.656 0 9.206-3.179 11.324-7.91.686-1.533.933-1.597 1.979-1.866 3.708-.965 6.727-3.835 8.082-7.675 1.368-3.883.802-8.07-1.519-11.2zM43.556 40.875c-1.394 1.741-3.85 3.756-6.213 3.756-.796 0-1.582-.23-2.314-.776-1.866-1.394-4.058-3.309-5.571-5.067-.593-.686-1.104-1.408-1.628-2.116-.781-1.058-1.587-2.086-2.726-2.902-1.744-1.249-3.717-1.494-5.728-1.494-1.303 0-2.621.103-3.901.103-2.743 0-5.314-.473-7.195-3.443-2.415-3.813.096-9.636 4.452-10.432 3.769-.691 5.836-2.368 7.692-5.816 1.315-2.444 3.889-4.481 6.583-4.481.911 0 1.834.23 2.728.759 4.019 2.377 2.946 7.408 3.186 11.309.162 2.562 1.168 3.463 2.711 5.378.588.729 1.21 1.396 1.832 2.069 1.137 1.236 2.314 2.422 3.615 3.534 3.148 2.691 5.619 5.703 2.477 9.619zm72.983 69.344c-3.14.813-4.775 2.355-6.127 5.373-1.004 2.246-3.201 4.202-5.601 4.202a4.537 4.537 0 0 1-2.02-.485c-3.534-1.758-2.939-6.066-3.382-9.34-.181-1.312-.615-2.082-1.229-2.831 3.626-2.268 6.852-5.018 9.418-8.184.451.063.906.108 1.366.108 1.825 0 3.698-.417 5.471-.417 1.917 0 3.715.485 5.209 2.503 2.273 3.063.514 8.128-3.105 9.071z"/></svg>