<svg xmlns="http://www.w3.org/2000/svg" xmlns:xlink="http://www.w3.org/1999/xlink" width="128" height="128" viewBox="0 0 128 128"><path fill="#BDCF46" d="M123.84 111.25c-2.96-5.86-7.38-11.05-12.72-14.74a34.08 34.08 0 0 0-5.5-3.08c-8.5 8.64-39.52 10.49-39.52 10.49s2.02 5.85 2.67 7.16c.77 1.55 1.61 2.9 2.39 3.88 4.68 5.79 12.75 8.86 19.76 10.67 10.47 2.69 21.91 2.43 32.57 1.08.83-.11 1.68-.06 2.53-.16 4.36-.54-1.32-13.61-2.18-15.3zM22.35 98.42c-1.29-.95-2.48-2-3.62-3.1-.63.38-1.25.77-1.86 1.19-5.35 3.69-9.76 8.88-12.72 14.74-.85 1.69-6.54 14.76-2.17 15.29.84.1 1.69.05 2.53.16 10.66 1.35 22.08 1.61 32.56-1.08 7-1.8 15.08-4.88 19.76-10.67 1.06-1.31 2.15-3.32 3.14-5.54.67-1.5 1.56-5.87 1.56-5.87s-29.19 2.26-39.18-5.12z"/><path fill="#855C52" d="M57.76 105.4s3.14-.38 5.44-.02c7.08 1.1 14.51 1.21 18.57.25L52.32 41.48 31.4 48.23l-3.95 30.63 17.32 26.47s5.16.47 12.99.07z"/><g><defs><path id="a" d="M114.7 55.96c-4.32-15.44-16.37-27.41-29.68-36.26-4.3-2.87-8.81-5.43-13.55-7.52-4-1.77-8.15-3.21-12.49-4.22-2.69-.63-5.9 2.01-8.07 3.24-3.58 2.04-7.17 4.09-10.75 6.19C19.84 29.3.84 53.3 8.37 78.14c2.45 8.08 7.17 15.25 13.98 20.28 6.76 5 14.79 6.53 22.97 6.94 1.59-.01 3.82-.06 4.57-1.25 1.16-1.83-.73-3.24-1.51-4.68-.2-.36-.55-.86-.82-1.38-.09-.14-.2-.27-.3-.41-7.06-10.9-9.27-24.38-6.58-37.04.18-.84 1.58-6.17 3.64-4.91.04.03.09.06.13.1.59.54.31 1.93.31 2.61 0 12 1.31 25.04 8.39 35.16 1.93 2.75 4.54 5.46 7.28 7.39.68.46 1.36.91 2.08 1.3 5.8 3.21 12.09 4.03 18.59 3.5.51-.09 1.02-.16 1.53-.27.38-.1.76-.18 1.15-.26 15.67-3.59 29.44-14.75 31.6-31.67.69-5.38.79-12.33-.68-17.59z"/></defs><use xlink:href="#a" overflow="visible" fill="#D7598B"/><clipPath id="b"><use xlink:href="#a" overflow="visible"/></clipPath><path clip-path="url(#b)" fill="#855C52" d="M44.34 92.41s2.26 5.51-3.24 7.31c-6.76 2.22-18.76-.27-24.21-6.27l1.3 7.86s13.54 11.79 22.5 12.01c8.96.22 14.64-3.5 14.64-3.5l2.19-9.39-13.18-8.02z"/><path clip-path="url(#b)" fill="#855C52" d="M50.18 88.48s3.31 6.23 13.25 8.52c11.5 2.65 23.05-1.45 30.62-6.32 15.19-9.76 22.71-37.77 8.1-56.54 0 0 17.41 4.23 21.12 16.9 3.72 12.67-2.59 53.26-33.21 57.68-38.93 5.64-39.88-20.24-39.88-20.24z"/></g><path fill="#FFF" d="M42.2 24.91c-2.87.99-6.94 4.23-8.9 5.89-4.14 3.51-7.85 7.88-9.72 13.05-1.35 3.76.71 5.29 1.35 5.54 3.97 1.51 7.66-3.02 9.85-5.68 2.01-2.43 3.73-5.04 5.46-7.66 1.04-1.57 2.12-3.13 3.04-4.79.75-1.39 2.08-3.63 1.6-5.27-.37-1.25-1.56-1.47-2.68-1.08z"/></svg>