<svg xmlns="http://www.w3.org/2000/svg" width="128" height="128" viewBox="0 0 128 128"><path fill="#FFF" d="M118.85 67.82c-1.57 4.58-4.26 8.76-7.52 12.72-.01-1.21-.12-2.28-.51-3.52-1.58-5.16-4.03-9.76-6.92-14.08-3.79-5.64-8.33-10.77-12.71-15.92-.72-.85-1.75-1.42-2.52-2.25-.77-.82-1.55-1.69-2.65-2.04-2.26-.71-4.66.78-6.58 1.86-2.3 1.3-4.45 2.89-6.71 4.29-4.34 2.66-8.57 5.54-12.73 8.5-3.63 2.57-7.21 5.24-10.84 7.82-2.37 1.68-6.07 3.19-6.86 6.35-.89 3.59 6.87 11.83 8.81 14.52 4.11 5.68 20.78 22.35 13.6 30.76-1.51.58-3.03 1.12-4.59 1.58-6.26 1.82-12.22 2.74-17.71 2.74-7.13 0-13.43-1.57-18.73-4.68-5.09-2.98-8.98-7.11-11.24-11.95-3.2-6.83-4.75-15.04-4.62-24.36.09-6.5.72-13.21 1.32-19.72.28-3.05.57-6.09.8-9.14.56-7.3 2.08-14.97 4.26-21.62 1.61-4.89 4.74-10.32 8.17-14.19 4.3-4.85 9.68-7.6 16.46-8.41 1.24-.16 2.59-.23 4.02-.23 5.45 0 12.23 1.11 19.61 3.21 11.63 3.32 24.1 9.23 37.05 17.57 10.85 6.98 18.05 16.74 20.29 27.48.76 3.7.38 8.8-.95 12.71z"/><path fill="#2F2F2F" d="M126.31 53.76c-2.82-13.57-11.81-24.4-23.2-31.73C91.26 14.41 77.85 7.54 64.29 3.67 57.79 1.82 50.01.2 42.85.2c-1.64 0-3.25.08-4.81.27-7.69.92-14.83 4.06-20.64 10.6-4.02 4.52-7.63 10.77-9.52 16.53-2.41 7.34-3.98 15.49-4.57 23.19-.75 9.74-2 19.5-2.14 29.27-.13 9.29 1.28 18.82 5.25 27.29 2.95 6.3 7.93 11.38 13.9 14.87 6.83 4 14.42 5.6 22.1 5.6 6.61 0 13.27-1.18 19.57-3.01 14.12-4.11 26.15-13.05 36.93-22.76 10.03-9.03 21.74-18.91 26.24-32.07 1.64-4.86 2.2-11.15 1.15-16.22zm-7.46 14.06c-1.57 4.58-4.26 8.76-7.52 12.72-.01-1.21-.12-2.28-.51-3.52-1.58-5.16-4.03-9.76-6.92-14.08-3.79-5.64-8.33-10.77-12.71-15.92-.72-.85-1.75-1.42-2.52-2.25-.77-.82-1.55-1.69-2.65-2.04-2.26-.71-4.66.78-6.58 1.86-2.3 1.3-4.45 2.89-6.71 4.29-4.34 2.66-8.57 5.54-12.73 8.5-3.63 2.57-7.21 5.24-10.84 7.82-2.37 1.68-6.07 3.19-6.86 6.35-.89 3.59 6.87 11.83 8.81 14.52 4.11 5.68 20.78 22.35 13.6 30.76-1.51.58-3.03 1.12-4.59 1.58-6.26 1.82-12.22 2.74-17.71 2.74-7.13 0-13.43-1.57-18.73-4.68-5.09-2.98-8.98-7.11-11.24-11.95-3.2-6.83-4.75-15.04-4.62-24.36.09-6.5.72-13.21 1.32-19.72.28-3.05.57-6.09.8-9.14.56-7.3 2.08-14.97 4.26-21.62 1.61-4.89 4.74-10.32 8.17-14.19 4.3-4.85 9.68-7.6 16.46-8.41 1.24-.16 2.59-.23 4.02-.23 5.45 0 12.23 1.11 19.61 3.21 11.63 3.32 24.1 9.23 37.05 17.57 10.85 6.98 18.05 16.74 20.29 27.48.76 3.7.38 8.8-.95 12.71z"/></svg>