<svg xmlns="http://www.w3.org/2000/svg" xmlns:xlink="http://www.w3.org/1999/xlink" width="128" height="128" viewBox="0 0 128 128"><defs><linearGradient id="a"><stop offset="0" stop-color="#fcdb8f"/><stop offset=".616" stop-color="#fcdb8f"/><stop offset="1" stop-color="#d49229"/></linearGradient><radialGradient xlink:href="#a" id="b" gradientUnits="userSpaceOnUse" gradientTransform="matrix(1.11717 -.8642 .76971 .99502 -37.27 -73.64)" cx="42.631" cy="198.113" fx="42.631" fy="198.113" r="62.101"/></defs><path d="M188.09 10.59c-12.87-2.27-20.67 5.35-21.77 17.72-.24 2.68-2.38 5.04-4.01 7.15-5.47 7.11-11.08 14.55-16.82 21.49-4.98 6.01-9.25 12.53-13.63 18.97-9.12 13.46-12.72 23.88-7.64 39.87 1.11 3.52 3.65 9.27 8.22 9.05 4.57-.21 5.29-6.02 6.12-9.33.42-1.7.92-3.72 2.32-4.94.75-.65 1.38-.44 2.22-.67.85-.23.92-.4 1.59-.89 1.87-1.37 2.38-.71 3.82.7 2.07 2.03 5.5 1.87 8.12 1.35 1.53-.3 2.03-.63 2.94-1.77.98-1.24 2.48-2.05 3.35-3.37.9-1.36.93-1.84 2.59-2.39 3.54-1.17 4.51 1.29 7.04 3.02 2.48 1.7 5.85 2.36 8.78 1.68 1.42-.33 1.83-.72 2.53-1.88.83-1.39 1.91-2.33 2.91-3.59 1.1-1.4 1.98-2.25 3.49-3.2 1.37-.86 2.6-1.24 4.15-1.73 2.84-.9 5.58-2.15 8.4-3.09 3.67-1.23 7.34-2.46 11.01-3.7 7.22-2.46 14.42-4.97 21.56-7.62 4.08-1.51 8.65-2.71 9.71-7.47.36-1.61.63-3.24.8-4.88 1.87-17.84-8.7-33.67-22.34-44.31-6.9-5.38-14.68-9.7-22.9-12.74-3.15-1.15-7.73-2.57-12.56-3.43z" fill="url(#b)" transform="translate(-120)"/><path d="M123.14 72.86c.58-1.97.62-3.51.58-5.55-.04-1.71.37-3.47.2-5.16-.12-1.22-.55-2.45-1.5-3.26-4.18-3.56-11.9-4.63-15.82-.05-1.15 1.34-1.43 3.68-1.75 5.33-.41 2.11-.7 4.42-1.75 6.29-.92 1.63-3.17 2.75-4.83 3.46-2.11.91-4.35.89-6.49 1.5-13.09 3.73-22.43 19.02-23.81 20.03-5.79 4.27 31.44-7.87 38.36-9.96 1.83-.55 3.47-1.53 5.18-2.32 1.62-.75 3.14-1.45 4.6-2.44 1.15-.77 2.56-1.47 3.53-2.53.34-.38.57-.95.97-1.27.49-.39 1.35-.59 1.78-1.05.76-.79.44-1.97.75-3.02z" fill="#fff"/><path d="M41.05 41.3c-.15-2.42.95-5.09 3.92-7.79 2.14-1.94 4.53-2.9 7.42-2.98 6.59-.18 13.16 2.28 12.58 10.21-.23 3.3-3.88 6.46-6.56 7.95-3.26 1.81-7.15 2.32-10.75 1.27-1.62-.48-3.82-1.5-4.93-2.8-1.17-1.36-1.56-4.12-1.68-5.86zM75.86 58.63c.25-2.4 1.77-4.86 5.14-7.03 2.43-1.56 4.94-2.12 7.8-1.72 6.54.9 12.61 4.41 10.74 12.13-.78 3.21-4.89 5.73-7.78 6.75-3.52 1.26-7.44 1.11-10.81-.52-1.52-.73-3.52-2.11-4.41-3.57-.93-1.52-.87-4.3-.68-6.04zM16.75 69.45c.25-2.4 1.77-4.86 5.14-7.03 2.43-1.56 4.94-2.12 7.81-1.72 6.54.9 12.61 4.41 10.73 12.13-.78 3.21-4.89 5.73-7.78 6.76-3.52 1.26-7.44 1.11-10.81-.52-1.52-.73-3.52-2.11-4.41-3.57-.93-1.53-.87-4.31-.68-6.05z" fill="#ed6c30"/><path d="M63.73 14.54c1.09 0 2.25.11 3.45.33 5.14.91 9.64 2.43 11.87 3.25a81.252 81.252 0 0 1 21.92 12.2c6.93 5.41 22.82 20.15 20.72 40.26-.15 1.43-.4 2.89-.72 4.35-.25 1.13-1.5 1.76-5.12 3.05-.39.15-.79.29-1.19.44-10.88 4.03-21.79 7.74-34.81 12.07-.67.23-1.35.44-2.04.65-5.24 1.64-11.77 3.67-15.23 10.38-.66 1.29-1.29 1.71-2.05 1.96a4.7 4.7 0 0 1-1.57.25c-1.33 0-2.71-.46-3.79-1.27-2.47-1.82-5.2-2.78-7.89-2.78-3.52 0-6.66 1.62-8.85 4.56l-.14.18c-.38.51-.85 1.13-.99 1.26-.01.01-.18.13-.8.34-1.16.42-2.08.62-2.92.62-.31 0-.61-.03-.92-.08-.55-.09-1.19-.35-1.93-.64-1.33-.53-2.98-1.19-4.98-1.19-2.23 0-5.43.84-8.06 4.85-1.75 2.67-2.06 4.48-2.3 6.76-.03.26-.05.54-.09.85-.05.44-.29.99-.77 1.83-.55.94-1.51 1.55-2.46 1.55-.3 0-.6-.06-.89-.17-.26-.1-1.58-.81-2.95-5.14-4.64-14.62-1.24-23.55 7.11-35.87l1.63-2.41c3.96-5.86 7.7-11.4 12-16.6 4.95-5.97 9.81-12.3 14.5-18.44l2.89-3.76c.21-.27.42-.54.63-.82 1.81-2.29 4.29-5.42 4.65-9.54.45-4.95 2.6-13.28 12.09-13.28m0-5.8c-10.53 0-16.87 7.4-17.86 18.58-.25 2.75-2.44 5.16-4.11 7.33-5.61 7.3-11.36 14.92-17.26 22.03-5.1 6.17-9.48 12.85-13.96 19.46C1.18 89.93-2.5 100.61 2.7 117.01c1.05 3.31 2.86 7.42 6.38 8.78.99.39 2 .57 2.99.57 3.05 0 5.9-1.72 7.48-4.44.73-1.28 1.33-2.55 1.5-4.04.28-2.31.18-3.14 1.48-5.13 1.11-1.68 2.13-2.24 3.22-2.24 1.69 0 3.51 1.34 5.94 1.75.64.11 1.26.16 1.88.16 1.67 0 3.26-.37 4.88-.96 2.52-.91 3.09-1.73 4.6-3.76 1.17-1.58 2.66-2.25 4.21-2.25 1.5 0 3.06.62 4.45 1.66 2.06 1.51 4.65 2.39 7.24 2.39 1.16 0 2.33-.18 3.43-.55 2.49-.84 4.16-2.51 5.34-4.8 2.72-5.27 8.75-6.46 13.95-8.19 11.73-3.9 23.4-7.85 35-12.14 4.18-1.55 8.86-2.79 9.95-7.65.37-1.66.65-3.32.82-5.01 1.91-18.29-8.93-34.53-22.91-45.44-7.07-5.52-15.05-9.93-23.48-13.06-3.21-1.2-7.91-2.65-12.87-3.53-1.55-.25-3.04-.39-4.45-.39z" fill="#855c52"/><path d="M12.99 103.16c-.79 0-1.55-.4-1.98-1.12-.66-1.1-.31-2.52.79-3.18 2.98-1.8 6.54-2.68 9.99-3.53 1.48-.37 2.93-.72 4.27-1.15 5.82-1.86 11.62-3.78 17.42-5.7 5.5-1.82 10.99-3.64 16.51-5.4l2.61-.83c6.76-2.16 13.75-4.38 20.27-6.9 2.14-.83 4.31-1.23 6.41-1.62.93-.17 1.86-.34 2.78-.55l.29-.07c1.83-.42 7.42-1.68 8.72-3.1.58-.63.63-1.25.63-2.84.01-.83.01-1.77.19-2.79 1.04-5.91 5.92-10.1 12.46-10.65 3.17-.28 6 .65 8.19 2.66 2.8 2.57 4.41 6.81 4.41 11.62 0 1.28-1.04 2.32-2.32 2.32-1.28 0-2.32-1.04-2.32-2.32 0-3.47-1.1-6.54-2.92-8.2-1.24-1.14-2.76-1.62-4.66-1.46-3.48.3-7.48 2.25-8.29 6.83-.11.63-.11 1.3-.12 2.01 0 1.76-.01 3.95-1.86 5.96-2.1 2.29-6.83 3.52-11.1 4.49l-.29.06c-.99.23-1.97.41-2.97.59-1.97.37-3.84.71-5.58 1.38-6.66 2.58-13.72 4.83-20.54 7l-2.6.82c-5.5 1.76-10.98 3.58-16.46 5.39-5.82 1.93-11.64 3.85-17.48 5.71-1.43.45-2.99.84-4.57 1.23-3.1.77-6.32 1.57-8.71 3.01-.35.23-.76.33-1.17.33z" fill="#855c52"/><path d="M103.39 73.02c-1.06 0-2.02-.73-2.26-1.81-2.6-11.62-8.98-22-17.97-29.24-5.54-4.46-12.19-7.16-20.33-8.27-.54-.07-1.2-.18-1.92-.29-3.16-.51-9.74-1.56-11.66.04-.98.82-2.44.69-3.26-.29-.82-.98-.7-2.45.29-3.26 3.26-2.73 9.13-2.06 15.37-1.08.68.11 1.3.21 1.81.28 9 1.21 16.4 4.24 22.62 9.25 9.8 7.89 16.75 19.2 19.58 31.84.29 1.25-.5 2.49-1.75 2.77-.18.04-.36.06-.52.06z" fill="#855c52"/><path d="M52.39 81.54c-.42 0-.82-.02-1.23-.05-3.94-.38-7-3.88-7.13-8.16-.07-2.51 1.08-4.84 3.16-6.38.52-.39 1.38-.96 2.34-1.32-.19-.45-.36-.96-.5-1.52-.38-1.54-.26-3.04.36-4.35 1.03-2.19 3.25-3.68 6.25-4.24.63-.11 1.32-.17 2.03-.17 1.32 0 4.61.24 6.6 2.45.68.75 1.12 1.64 1.31 2.63 3.27-.77 6.91.72 8.63 3.59 2.07 3.46 1.76 8.68-2.01 10.95-1.68 1.01-3.5 1.47-5.75 1.47-.37 0-.62.02-.89.04-1.02.04-2.02.04-2.81-.14a3.86 3.86 0 0 1-.83-.3c-.02.04-.04.07-.06.11-.91 1.45-2.09 3.06-4.44 3.97-.2.08-.39.19-.57.3-.45.25-.91.5-1.41.66-.91.31-1.93.46-3.05.46zm-1.18-11.63c-.04.03-.64.32-1.25.77-.86.63-1.31 1.53-1.29 2.53.04 1.68 1.16 3.49 2.93 3.67.84.07 1.73.03 2.36-.18.22-.07.41-.2.61-.31.38-.22.76-.42 1.17-.58.86-.33 1.38-.83 2.2-2.14.03-.06.06-.14.1-.23.22-.5.59-1.35 1.47-1.93.6-.4 1.24-.61 1.92-.61 1.05 0 1.82.51 2.27.8.08.05.16.12.25.15.03 0 .24.02.5.02.28 0 .58-.02.87-.04.35-.02.7-.04 1.02-.04 1.51 0 2.52-.24 3.47-.81 1.29-.78 1.29-3.14.43-4.58-.8-1.34-2.68-1.92-4.14-1.29l-.08.08c-.57.4-1.56 1.05-2.73.9a2.75 2.75 0 0 1-1.85-1.1c-.77-1.05-.56-2.25-.44-2.97l.03-.25c.06-.58-.12-.79-.21-.88-.49-.54-1.76-.91-3.16-.91-.43 0-.84.04-1.19.1-1.45.26-2.53.88-2.89 1.65-.2.42-.14.92-.05 1.27.18.75.35.98.36.99.4.24 1.15.74 1.56 1.78.58 1.45.23 2.46-.17 3.05-.32.47-1.07 1.25-2.56 1.25-.37 0-.81-.05-1.21-.12-.11-.01-.21-.03-.3-.04z" fill="#757f3f"/><path fill="#fff" d="M55.01 34.61l-1.45 1.74-1.45 2.32 3.48.29 1.16-2.61zM51.05 40.92l-2.26-.17-2.73.17 1.78 2.99 2.79-.56zM60.34 42.91l-2.32-.34-2.79-.01 2.03 3.34 2.82-.42zM36.25 65.12l-1.45 1.74-1.45 2.31 3.48.29 1.16-2.6zM26.79 69.92l-2.26-.17-2.73.16 1.78 3 2.8-.57zM32.1 75.12l-2.32-.33-2.78-.01 2.02 3.33 2.83-.42zM84.61 52.42l.04 2.27.42 2.7 2.82-2.06-.82-2.73zM85.74 59.79l-1.82 1.35-1.96 1.9 3.31 1.11 1.75-2.26zM94.07 55.22l-1.98 1.26-2.11 1.82 3.71 1.2 1.86-2.17zM49.05 48.43l-.79-.94 1.45-.94.94.87-.51.79zM92.64 64.73l-.8-.94 1.45-.95.94.88-.5.79zM59.27 41.04l1.81.07.07-1.44-1.45-.15zM37.1 72.12l1.81.07.07-1.45-1.45-.14zM60.64 34.16s-1.3 1.23-1.09 1.3c.21.07 2.03.29 2.03.29l.72-1.16-1.66-.43zM30.89 70.54s-1.3 1.23-1.09 1.3c.22.07 2.03.29 2.03.29l.72-1.16-1.66-.43zM84.52 65.62s-1.3 1.23-1.09 1.3c.22.07 2.03.29 2.03.29l.72-1.16-1.66-.43zM49.63 34.45s-1.67 1.74-1.23 1.74c.43 0 1.67-.22 1.67-.22l.72-1.16-1.16-.36zM21.78 73.86s-1.67 1.74-1.23 1.74c.44 0 1.67-.22 1.67-.22l.72-1.16-1.16-.36zM29.7 62.83s-3.02 3.15-2.23 3.15 3.02-.39 3.02-.39l1.31-2.1-2.1-.66zM42.9 43.07l-.65 1.16 1.01 1.09s.65-.8.65-1.09c0-.29-.29-1.16-.29-1.16h-.72zM79.66 56.52l-.65 1.16 1.01 1.09s.65-.8.65-1.09c0-.29-.29-1.16-.29-1.16h-.72z"/></svg>