<svg xmlns="http://www.w3.org/2000/svg" width="128" height="128" viewBox="0 0 128 128"><path fill="#78A3AD" d="M96.33 67.28c2.02-4.49 5.55-8.76 8.14-11.44 3.74-3.89 8.15-8.71 13.73-9.74 2.23-.41 4.63.28 6.37 1.71 1.53 1.26 3.55 4.4 2.32 6.41-1.2 1.95-4 3.05-5.96 4.03-2.54 1.26-5.16 2.37-7.44 4.08-3.27 2.46-6.02 5.53-8.8 8.5-1.62 1.74-2.97 3.69-4.31 5.64-.7 1.02-2.39 4.68-3.87 2.71-2.6-3.48-2.03-7.79-.18-11.9z"/><path fill="#78A3AD" d="M96.33 67.28c2.02-4.49 5.55-8.76 8.14-11.44 3.74-3.89 8.15-8.71 13.73-9.74 2.23-.41 4.63.28 6.37 1.71 1.53 1.26 3.55 4.4 2.32 6.41-1.2 1.95-4 3.05-5.96 4.03-2.54 1.26-5.16 2.37-7.44 4.08-3.27 2.46-6.02 5.53-8.8 8.5-1.62 1.74-2.97 3.69-4.31 5.64-.7 1.02-2.39 4.68-3.87 2.71-2.6-3.48-2.03-7.79-.18-11.9z"/><path fill="#FFF" d="M21.13 49.69c3.38-5.95 5.84-12.33 8.54-18.6 3.67-8.51 6.54-17.69 14.81-23.04 4.84-3.13 10.5-3.84 16.18-2.98 18.6 2.8 23.01 17.46 24.76 33.49.66 5.99 1.25 12.29 3.87 17.81 3.34 7.03 8.08 17.69 1.15 23.84-11.03 9.78-30.86 10.71-45.41 8.62-5.12-.73-10.45-1.89-15.29-3.7-7.93-2.95-14.18-8.81-14.94-17.43-.58-6.62 3.19-12.47 6.33-18.01z"/><path fill="#ED6C30" d="M90.31 51.67c-.14-.74-.44-1.54-.48-2-.11-1.03-.51-2.05-.76-3.06-.55-2.21-.78-4.25-1.04-6.5-.79-6.56-1.23-13.01-3.78-19.11-.86-2.08-1.94-3.97-3.32-5.73-.81-1.04-1.51-2.09-2.5-2.96-.73-.64-1.49-1.13-2.26-1.69-4.6-3.36-8.19-5.67-14.07-6.22-7.93-.73-15.73.71-21.81 5.85-1.1.93-2.42 1.47-3.33 2.61-5.96 7.5-10.94 17.27-14.19 26.28-.38 1.04-.44 2.06-.48 3.15-.03.64-.33 1.85.48 2.17 1.69.66 3.14-1.68 4.82-.03 2.29 2.26.85 5.6 5.3 5.74 3.36.11 5.07-3.41 7.8-4.67 2.24-1.04 4.12-.3 5.07 1.96 1.2 2.84 1.49 6.73 4.17 8.6 2.49 1.75 6.49 2.18 9.04.25 1.38-1.05 2.15-3.51 4.1-3.71 2.69-.26 4.28 3.41 4.77 5.51.92 3.86 4.5 6.82 8.68 5.78 1.82-.45 3.83-1.87 4.43-3.6.5-1.45.37-2.98.78-4.43.76-2.7 3.02-2.27 5.33-2.41.62-.04 2.68.04 3.08-.37.3-.29.28-.83.17-1.41z"/><path fill="#40C0E7" d="M15.18 77.8c-1.86-1.12-3.89-1.78-5.17-.12-.86 1.11-.79 4.34-.83 5.66-.11 3.95 2.02 8.2 4.97 10.71 5.07 4.3 10.39 8.4 16.43 11.25 2.1 1 4.62 1.52 6.25 3.24 2.61 2.74-.79 4.43-.02 7.33 1.02 3.85 5.35 5.63 8.82 6.61 4.79 1.35 9.53 1.79 14.52 1.81 3.88.01 12.38-.63 12.08-6.06-.12-2.2-2.28-5.06-1.9-7.11.34-1.82 3.32-2.28 4.74-2.91 2.32-1 4.68-1.98 6.9-3.14 4.87-2.56 9.21-6.45 12.15-11 1.11-1.72 2.04-3.37 2.58-5.37.56-2.05 1.57-4.01 1.62-6.13.03-1.33.5-3.61-.75-4.3-.91-.5-1.75-.03-2.6.47-1.46.86-2.92 1.82-4.39 2.7-2.72 1.62-5.45 3.26-8.32 4.6-2.25 1.05-5.13 2.6-7.55 3.07-2.28.44-4.65.14-6.99.45-3.04.4-6.01.68-9.1.68-2.82 0-5.61-.5-8.42-.53-1.73-.01-3.25.74-4.95.84-5.04.27-10.91-1.42-15.32-3.76-3.78-2.01-7.56-4.05-11.13-6.41-.8-.54-2.16-1.7-3.62-2.58z"/><path fill="#78A3AD" d="M99.03 69.57c-.75-4.07-2.56-8.39-3.61-11.65-2.62-8.17-4.04-12.84-5.59-21.29-1.44-7.87-2.65-15.76-6.86-22.73C76.72 3.5 61.25-2.22 49.72 1.39c-3.35 1.05-6.5 2.68-9.26 4.87C37 9.01 34.6 12.52 31.98 16c-7.21 9.57-9.79 21.15-15.9 31.23-3.65 6.02-6.91 13.59-7.01 20.86-7.18 10.48.35 26.35 8.55 33.84 4.71 4.31 10.7 6.78 16.81 8.42-1.59 1.42-2.59 3.25-2.33 5.38 1.06 8.75 9.83 10.57 17.37 11.5 8.96 1.11 19.96.76 26.52-6.38 3.03-3.31 2.24-7.03-.04-9.88 5.69-1.83 10.97-4.86 15.13-9.04 7.86-7.92 15.99-21.64 7.95-32.36zm-76.13-20c3.2-5.65 5.52-11.68 8.08-17.61 3.48-8.06 6.19-16.76 14.03-21.82 4.59-2.96 9.94-3.63 15.32-2.83 17.61 2.65 21.78 16.55 23.44 31.72.62 5.68 1.19 11.65 3.67 16.87 3.16 6.65 7.65 16.75 1.09 22.58-10.44 9.26-29.22 10.13-43 8.16-4.85-.7-9.9-1.79-14.49-3.51-7.51-2.8-13.43-8.34-14.14-16.51-.55-6.27 3.02-11.81 6-17.05zm45.18 63.73c.03.02.06.03.09.05 2.99 1.33 2.25 3.75.06 5.34-3.59 2.61-8.16 2.4-12.38 2.36-4.58-.05-9.86-.33-13.82-2.88-3.2-2.06-1.4-4.73 1.72-5.76.44-.14 1.57.3 2.05.38.78.13 1.57.26 2.35.38 1.42.21 2.73.32 4.17.36 3.15.1 6.3.31 9.46.25 1.19-.03 2.39-.06 3.58-.2.79-.1 1.92-.57 2.72-.28zm15.08-13.42c-11.31 8.49-28.01 7.59-41.2 5.21-4.21-.76-8.71-1.81-12.65-3.5-6.74-2.9-12.48-8.93-15.53-15.55-.39-.85-2.32-4.07-.67-4.5 1.12-.29 2.33 1.8 2.95 2.46 1.14 1.2 2.49 2.27 3.87 3.17 12.55 8.22 37.72 9.39 54.38 6.64 3.49-.57 6.87-1.83 10.03-3.39 1.75-.87 3.44-1.85 5.06-2.96.8-.55 1.58-1.13 2.34-1.74.64-.53 1.23-1.3 1.9-1.75.2-.13.38-.21.63-.21.53 0 .44.07.56.5.78 2.84-2.18 5.91-3.8 7.87-2.36 2.88-4.89 5.52-7.87 7.75z"/></svg>