<svg xmlns="http://www.w3.org/2000/svg" width="128" height="128" viewBox="0 0 128 128"><path fill="#FFF" d="M10.58 44.99c-1.76 5.18-2.04 10.95-.74 16.26 2.45 9.96 8.48 10.27 17.21 12.33 20.85 4.9 38.11-4.71 55.01-15.74 4.28-2.8 8.53-6.04 11.85-9.97 5.24-6.21 4.94-16.76 2.51-24.09-.96-2.88-4.05-6.52-7.19-7.2-2.08-.45-4.91-.16-7-.06-4.53.22-9.11 1.08-13.53 2.06-11.08 2.43-22.2 4.89-32.96 8.54-6.4 2.17-14.32 4.28-19.46 8.86-2.58 2.31-4.49 5.47-5.7 9.01z"/><path fill="#78A3AD" d="M38.22 77.95c-3.94 0-7.94-.47-11.87-1.4-.85-.2-1.67-.38-2.46-.55-7.38-1.64-14.35-3.19-17.01-14.02-1.44-5.83-1.15-12.21.81-17.98 1.43-4.19 3.69-7.75 6.56-10.3 4.91-4.38 11.75-6.6 17.8-8.58.93-.3 1.84-.6 2.72-.9 11.1-3.76 22.88-6.35 33.28-8.63 4.14-.91 9.05-1.87 14.03-2.12l1.07-.06c2.32-.14 4.97-.2 6.73.18 4.32.94 8.19 5.43 9.45 9.23 2.77 8.36 2.89 19.95-3.08 27.02-3.06 3.62-7.04 6.98-12.51 10.56-13.62 8.88-28.33 17.55-45.52 17.55zM86.41 19.4c-.98 0-1.97.07-2.88.12l-1.14.06c-4.53.23-9.13 1.14-13.03 1.99-10.74 2.36-21.85 4.8-32.63 8.46-.9.3-1.84.6-2.78.92-5.47 1.78-11.67 3.8-15.62 7.33-2.08 1.85-3.75 4.52-4.84 7.71-1.59 4.66-1.82 9.83-.66 14.54 1.75 7.14 5.09 7.89 12.4 9.51.82.18 1.66.37 2.53.57 3.48.82 7 1.23 10.47 1.23 15.51 0 29.33-8.18 42.17-16.55 4.96-3.25 8.52-6.23 11.19-9.39 4.42-5.23 4.1-14.62 1.94-21.15-.74-2.23-3.18-4.8-4.94-5.18-.55-.12-1.28-.17-2.18-.17z"/><path fill="#FCC21B" d="M2.5 33.26C.92 36.88.21 41.28 1.81 45.02c1.81 4.22 5.97 4.63 9.93 5.52 8.94 2.02 20.76 6.13 29.91 4.05 5.52-1.25 10.9-4.92 15.8-7.63 11.71-6.5 23.27-13.34 35.41-19.05 2.87-1.35 10.65-3.23 10.62-7.28-.01-1.44 0-2.88 0-4.32 0-2.96-.51-6.79-3.31-8.45-1.62-.96-3.64-1.53-5.43-2.1-2.85-.91-5.74-1.91-8.62-2.69C77.73.77 68.71-.34 60.09 1.19 44.07 4.05 29.86 11 16.71 20.4c-3.79 2.7-7.73 5.29-11.03 8.6-1.6 1.6-2.58 2.89-3.18 4.26z"/><path fill="#2F2F2F" d="M29.67 17.03c6.95.84 13.21 1.89 21.58 4.22 8.83 2.46 12 5.43 13.1 14.45 1.12 9.2 2.89 20.55-1.15 29.35-1.05 2.27-2.55 4.55-4.15 6.34 1.21.32 3-.84 4.14-1.24 3.7-1.29 7.48-2.63 10.71-4.9 7.07-4.97 8.18-11.64 8.26-19.76.08-7.57-.62-17.75-3.06-24.39-2.06-5.62-7.62-7.67-12.94-9.32-3.82-1.18-12.25-3.47-19.1-4.14-4.73-.47-8.79.37-9.74.69-2.42.81-7.06 3.41-10.7 5.58-2.64 1.58-4.85 3.01-4.85 3.01s3.66-.4 7.9.11z"/><g><path fill="#FFF" d="M36.51 94.57c-1.76 5.17-2.04 10.95-.74 16.26 2.45 9.96 8.48 10.27 17.2 12.33 20.85 4.9 38.12-4.71 55.01-15.74 4.28-2.79 8.53-6.04 11.86-9.97 5.25-6.21 4.94-16.76 2.51-24.08-.95-2.89-4.05-6.52-7.19-7.21-2.08-.45-4.9-.16-7-.06-4.54.23-9.11 1.08-13.53 2.05-11.09 2.44-22.2 4.9-32.96 8.54-6.4 2.16-14.32 4.27-19.46 8.87-2.58 2.3-4.49 5.47-5.7 9.01z"/><path fill="#78A3AD" d="M64.16 127.53c-3.95 0-7.94-.47-11.87-1.39-.85-.2-1.67-.38-2.46-.56-7.38-1.64-14.35-3.19-17.02-14.01-1.43-5.83-1.15-12.22.81-17.97 1.43-4.2 3.7-7.76 6.56-10.31 4.91-4.37 11.76-6.61 17.8-8.58.93-.3 1.84-.6 2.72-.89 11.11-3.76 22.89-6.36 33.28-8.63 4.14-.91 9.05-1.87 14.04-2.13l1.07-.06c2.32-.14 4.97-.2 6.73.18 4.31.94 8.19 5.43 9.45 9.23 2.76 8.36 2.89 19.96-3.08 27.02-3.06 3.63-7.04 6.98-12.52 10.56-13.61 8.87-28.33 17.54-45.51 17.54zm48.18-58.56c-.97 0-1.97.07-2.88.12l-1.14.07c-4.54.22-9.13 1.13-13.02 1.98-10.74 2.36-21.85 4.8-32.64 8.45-.9.31-1.83.61-2.78.92-5.47 1.79-11.67 3.81-15.63 7.33-2.07 1.85-3.75 4.52-4.84 7.71-1.59 4.66-1.83 9.82-.66 14.54 1.76 7.14 5.09 7.88 12.41 9.5.82.18 1.66.37 2.53.58 3.47.82 7 1.23 10.47 1.23 15.51 0 29.33-8.17 42.16-16.55 4.97-3.24 8.53-6.22 11.19-9.38 4.42-5.22 4.11-14.63 1.95-21.16-.74-2.23-3.18-4.79-4.94-5.17-.54-.11-1.28-.17-2.18-.17z"/><path fill="#ED6C30" d="M28.35 86.34c-1.61 4.77.26 9.8 5.75 9.48 6.32-.36 13.12-.17 19.34 1.13 4.17.87 8.23 2.32 12.39 3.16 2.28.46 5.13.94 7.51.42 1.97-.43 3.71-1.92 5.49-2.82 7.38-3.74 14.27-8.16 21.74-11.72 4.64-2.21 9.21-4.55 13.8-6.85 3.76-1.88 9.84-3.4 11.67-7.74 4.18-9.83-9.32-17.4-16.97-19.26-8.51-2.07-18.84-2.78-27.38-.68-6.28 1.54-12.52 3.39-18.51 5.89-5.85 2.45-10.61 5.89-15.86 9.24-5.46 3.49-11.2 7.96-15.34 12.99-1.47 1.8-2.76 4.19-3.63 6.76z"/></g></svg>