<svg xmlns="http://www.w3.org/2000/svg" xmlns:xlink="http://www.w3.org/1999/xlink" width="128" height="128" viewBox="0 0 128 128"><defs><path id="a" d="M99.5 47.27c-1.13 1.27-3.12 1.4-4.4.29l-13.34-11.5a3.033 3.033 0 0 1-.27-4.33l27.17-30.37c1.14-1.27 3.12-1.4 4.41-.29l13.33 11.5a3.042 3.042 0 0 1 .28 4.33L99.5 47.27z"/></defs><use xlink:href="#a" overflow="visible" fill="#FCC21B"/><clipPath id="b"><use xlink:href="#a" overflow="visible"/></clipPath><path clip-path="url(#b)" fill="#F79329" d="M123.62 23.39l-7.32 1.27-1.45-8.32 15.83-2.75-.84-5.18-15.89 2.75-3.09-17.8-5.18.85 3.1 17.85-8.56 1.49-1.8-10.29-5.18.85 1.8 10.34-10.6 1.84.85 5.18 10.65-1.85 1.44 8.32-19.16 3.33.85 5.19 19.21-3.34 2.84 16.38 5.19-.85-2.85-16.44 8.56-1.48 1.54 8.88 5.19-.85-1.56-8.93 7.26-1.26-.83-5.18zm-21.06 3.66l-1.45-8.32 8.57-1.49 1.45 8.32-8.57 1.49z"/><g><path fill="#40C0E7" d="M11.4 66.38s14.09 10.56 32.48 11.35c18.39.78 40.3 1.56 49.31-2.74 9-4.31 16.83-12.52 16.83-12.52l2.74 4.3s1.17 8.22-3.13 15.26c-4.31 7.04-26.22 19.56-32.09 21.13l4.3 13.31-14.08 7.43-19.18-.39-9-7.83 5.87-13.7S25.5 99.64 19.63 91.03C13.76 82.42 9.45 71.86 9.45 71.86l1.95-5.48z"/><path fill="#FFF" d="M18.69 58.08c2.33-10.33 10.35-19.12 18.85-24.86 12.83-8.66 34.25-7.79 46.21 0 8.59 5.59 16.51 14.52 18.85 24.86 1.85 8.16-1.03 12.74-8.98 14.55-3.96.9-7.98 1.46-12 1.88-7.7.81-15.46 1.1-23.19 1.1v-.04c-6.26-.1-12.52-.41-18.74-1.07-4.03-.42-8.06-.98-12-1.88-7.97-1.8-10.85-6.38-9-14.54z"/><path fill="#78A3AD" d="M115.26 62.11c-1.04-3.01-3.13-4.73-6.05-5.79-2.3-.83-2.74-3.63-3.69-5.6-1.17-2.42-2.55-4.75-4.06-6.99-2.46-3.66-5.24-7.27-8.54-10.23-.11-.1-.22-.19-.33-.29-15.7-14.38-42.78-17.81-63.91 0-.12.1-.22.19-.33.29-3.29 2.96-6.07 6.58-8.54 10.23-1.5 2.23-2.89 4.56-4.05 6.99-.95 1.97-1.4 4.77-3.69 5.6-2.92 1.06-5.01 2.77-6.05 5.79-1.08 3.1-.92 6.56-.42 9.75.98 6.17 3.34 13.06 7.38 17.93 3.27 3.94 7.35 7.15 11.82 9.63 2.3 1.29 4.7 2.38 7.16 3.32 1.25.47 2.51.91 3.79 1.3.81.26 2.84.42 3.19 1.25.37.91-1.28 2.49-1.67 3.3-.59 1.25-.95 2.61-1.02 3.99-.17 3.12 1.17 6.06 3.37 8.24 5.87 5.8 15.57 7.31 23.47 6.78 6.5-.44 13.77-2.04 18.57-6.78 2.2-2.17 3.54-5.11 3.38-8.24-.07-1.38-.43-2.74-1.03-3.99-.39-.81-2.04-2.39-1.67-3.3.34-.83 2.38-.99 3.19-1.25 1.28-.39 2.54-.83 3.79-1.3 2.46-.94 4.86-2.04 7.16-3.32 4.46-2.48 8.54-5.69 11.81-9.63 4.04-4.87 6.4-11.76 7.38-17.93.51-3.2.67-6.65-.41-9.75zm-94.75-4.32c2.23-9.88 9.91-18.3 18.04-23.78 12.27-8.29 32.75-7.45 44.19 0 8.21 5.34 15.8 13.89 18.04 23.78 1.77 7.8-.99 12.18-8.6 13.91-3.78.87-7.63 1.4-11.48 1.81-7.36.77-14.79 1.05-22.19 1.05v-.04c-5.99-.1-11.98-.39-17.92-1.02-3.85-.41-7.71-.95-11.48-1.81-7.61-1.72-10.37-6.1-8.6-13.9zm55.6 58.3c-7.17 3.9-15.71 4.52-23.61 2.87-2.58-.54-5.04-1.62-7.34-2.87-2.93-1.6-2.52-4.18-.62-6.36 2.97-3.43 7.31-2.47 11.31-2.27.89.04 1.78.06 2.66.1 2.31.04 4.62.02 6.92-.1 4-.2 8.34-1.16 11.31 2.27 1.89 2.18 2.31 4.76-.63 6.36zm31.84-40.53c-.34 1.14-.78 2.24-1.3 3.3-1.1 2.23-2.55 4.28-4.19 6.13-3.45 3.88-7.8 6.99-12.52 9.14-7.11 3.25-14.83 5.03-22.6 5.71-7.54.64-15.17.26-22.57-1.32-2.15-.45-4.28-1.01-6.37-1.67-2.4-.76-4.76-1.66-7.05-2.71-4.72-2.16-9.07-5.26-12.52-9.14-1.65-1.85-3.1-3.9-4.2-6.13-.52-1.06-.96-2.16-1.31-3.3-.3-1.02-1.65-3.2-.03-3.59.88-.2 1.39.4 2.03.88.95.71 2.01 1.31 3.09 1.8 12.84 5.76 26.35 7.3 40.08 7.13v-.11c15.2.56 30.18-.67 44.35-7.02 1.09-.49 2.14-1.09 3.09-1.8.64-.48 1.16-1.08 2.03-.88 1.65.38.29 2.56-.01 3.58z"/></g></svg>