<svg xmlns="http://www.w3.org/2000/svg" width="128" height="128" viewBox="0 0 128 128"><path fill="#78A3AD" d="M123.33 80.24c1.09-1.11 2.08-2.33 2.84-3.71 1.5-2.75 1.88-6.13.35-8.94-1.25-2.29-3.58-3.84-4.73-6.16-1.25-2.53.06-5.56 1.22-7.86 1.42-2.83 2.73-4.85 2.02-8.11-.87-4.07-3.87-9.82-7.08-12.57-2.56-2.21-5.94-2.64-8.22-5.37-2.93-3.49-4.35-9.04-7.38-12.77-1.68-2.77-4.98-4.91-11.16-4.91h-.62c-1.04 0-2.03.1-3 .19-.71.07-1.39.13-1.96.14-.18-.32-.36-.68-.54-1.03-1.42-2.8-4.4-8.63-11.64-8.63-.97 0-1.99.11-3.02.34-1.82.41-3.16 1.1-4.24 1.72-.75.43-1.59.98-2.49 1.57-1.14.75-3.15 2.07-4.25 2.42l-.21-.13c-3.84-2.4-8.31-4.94-12.85-4.94-2.04 0-3.9.5-5.53 1.48-4.72 2.85-5.72 7.57-6.31 10.39-.06.28-.13.61-.2.91-.54 0-1.1-.03-1.67-.05-.89-.04-1.8-.08-2.69-.08-9.49 0-12.32 5.53-13.15 8.82-.33 1.31-.46 2.51-.57 3.49l-.08.67c-.17 1.42-.18 2.82-.19 4.05-.01.99-.02 2.57-.2 3.3-.5.22-1.3.51-1.88.7-8.52 3.03-11.87 7.97-9.93 14.71.59 2.05 1.53 3.68 2.29 5 .22.4.45.78.66 1.19.13.26.26.53.37.8.29.68.91 2.21 1.07 2.88-.1.23-.36.69-.95 1.5-.4.55-.92 1.16-1.46 1.79-1.44 1.7-3.22 3.8-4.4 6.62-.89 2.13-1.18 4.12-.99 5.98-.41 4.21 2.56 7.94 5.37 10.74 1.77 1.77 3.67 3.28 5.7 4.69-.36 2.12-.38 4.08-.38 5.83v.23l-.02.55a13.4 13.4 0 0 0 .21 3.16c.05 2.94 1.39 5.87 3.28 8.09 4.17 4.92 10.99 5.94 17.08 5.92 1.99-.01 4.03.23 5.6 1.52.11.12.26.23.38.35 1.41 1.4 2 3.41 3.24 4.94 2.52 3.09 6.24 5.75 10.37 5.82 2.56.04 4.94-.86 7.12-2.13 1.73-1.02 3.98-3.85 6.07-3.71 2.15.15 5.18 2.93 7.13 3.82 2 .9 4.21 1.74 6.84 1.74.75 0 1.49-.08 2.21-.22 4.33-.86 6.24-3.9 7.05-5.2l.28-.43c3.37-4.4 5.56-3.36 10.69-3.36 3.43 0 6.27-.91 8.43-2.72 2.62-2.18 4.01-5.2 4.42-8.53.39-3.12.65-3.74 3.63-4.9 3.12-1.22 5.98-2.78 7.54-5.91 2.2-4.39-.03-8.4-.96-12.74-.17-.78.1-1.4.54-1.95.27-.33.62-.66.95-1z"/><path fill="#FFF" d="M114.36 65.75c-1.12 2.04-3.17 3.28-4.52 5.12-.67.89-1.6 1.65-1.68 2.81-.08 1.06.37 2.16.72 3.14.65 1.92 1.17 3.85 1.93 5.74 2 4.99-5.06 5.42-8.12 6.63-6.74 2.65-1.07 9.52-5.62 13.31-1 .83-2.4 1.08-3.93 1.08-2.43 0-5.16-.65-7.04-.7h-.65c-1.83 0-3.36.26-4.8 1.72-1.5 1.51-2.51 3.43-3.8 5.12-.98 1.29-1.3 2.63-3.1 2.99-.28.05-.55.08-.84.08-1.36 0-2.76-.58-3.93-1.11-1.83-.83-3.49-1.95-5.28-2.85-2.05-1.04-3.73-2.09-5.59-2.09-.87 0-1.78.23-2.79.8-2.74 1.54-6.07 5.54-9.35 5.54h-.01c-6.73 0-5.1-11.77-12.44-11.77h-7.25c-1.09 0-2.42.15-3.7.15-1.14 0-2.26-.12-3.16-.58-1.54-.79-1.12-2.05-1.12-3.72 0-1.79-.02-3.53.34-5.26 1.31-6.43.31-9.3-5.38-11.99-3.3-1.55-7.03-3.14-5.21-7.51.56-1.32 1.39-2.48 2.28-3.58.92-1.13 1.92-2.22 2.78-3.4.09-.12.15-.23.24-.35 2.98-4.22 2.45-6.08.47-10.88-.19-.45-.4-.9-.62-1.33-.78-1.52-1.77-2.96-2.32-4.58-.04-.12-.1-.23-.13-.35-1.64-5.68 6.8-5.48 9.83-8.18.41-.36.75-.77 1.04-1.21 1.86-2.81 1.23-6.8 1.52-10.07l.03-.5c.14-1.11.2-2.19.48-3.27.76-2.99 3.41-3.51 6.32-3.51 1.54 0 3.14.14 4.59.14 1.06 0 2.04-.08 2.83-.35 5.51-1.87 2.6-9.27 7.09-11.98.55-.33 1.19-.46 1.89-.46.93 0 1.98.26 3.04.66 2.65.98 5.41 2.82 6.91 3.72.89.55 1.83.77 2.79.77 1.27 0 2.58-.41 3.87-1 2.46-1.12 4.85-2.94 6.73-4.02.76-.44 1.42-.75 2.25-.94a6.86 6.86 0 0 1 1.49-.18c1 0 1.78.29 2.45.74 2.13 1.46 2.93 4.79 4.72 7.12 1.11 1.45 2.89 1.82 4.76 1.82 1.81 0 3.72-.34 5.21-.34h.61c3.21 0 5.59.15 5.7 3.99.08 2.93-.56 8.32.9 10.9 1.17 2.08 4.49 2.49 6.55 3.1 1.89.56 3.78 1.08 5.6 1.82 1.19.48 2.27.56 2.63 1.98 1.04 4.19-3.12 7.56-4.85 10.92-.99 1.93-1.29 3.95-.42 5.99 1.41 3.28 9.53 5.63 7.06 10.16z"/><path fill="#D7598B" d="M87.04 46.05c-7.15-4.47-14.26-6.35-22.53-4.46-7.41 1.7-14.07 5.57-16.56 13.23-1.87 5.76-3.03 15.01 3.16 18.89 2.73 1.71 6.42 2.64 9.63 2.63 3.73-.01 6.51-.79 9.64-2.76 1.91-1.21 4.16-3.65 4.46-5.92.26-2.01-.58-3.74-1.94-5.11-1.4-1.41-2.87-1.95-4.87-1.65-2.38.35-2.67 3.1-5.17 3.48-1.88.27-4.35-.81-5.17-2.6-2.03-4.41 3.09-8.16 6.52-9.62 2.9-1.25 5.43-1.33 8.51-.89 9.87 1.39 13.31 12.03 9.48 20.59-2.85 6.37-8.69 11.5-15.45 13.4-9.91 2.79-22.13-.13-27.07-9.85-1.08-2.14-1.98-5.09-2.19-7.46-.51-5.81-.18-11.56 2.59-16.72 5.21-9.72 15.88-17.48 27.01-18.55 4.52-.44 9.02-.01 13.49.66 2.77.41 5.73 1.45 8.54.94.96-2-.86-3.97-2.96-5.4-1.36-.92-2.83-1.63-3.75-1.97-3.29-1.22-6.91-1.5-10.38-1.66-7.04-.35-14.96 1.03-21.46 3.72-5.37 2.22-10.15 5.7-14.04 10.02-6.87 7.65-11.08 17.57-10.75 27.92.18 5.55 1.56 12.14 4.31 17.01 1.32 2.33 3.28 4.31 5.3 6.05 3.7 3.19 8.3 5.35 13 6.6 5.63 1.51 13.63.97 19.31-.13 18.24-3.53 33.16-24.98 24.82-43.1-1.28-2.75-2.9-5.68-5.48-7.29z"/></svg>