<svg xmlns="http://www.w3.org/2000/svg" width="128" height="128" viewBox="0 0 128 128"><path fill="#F79329" d="M37.97 84.99s.21 3.35.35 6.19c.08 1.63.29 4.27.46 6.15.08.94.18 2.61.73 3.08.33.29.81.51 1.51.5 1.83-.03 3.75-.02 4.23 2.4.48 2.42 3.13 21.96 3.13 21.96s.15 2.38 2.87 2.5c2.73.11 12.13.06 12.13.06s9.4.05 12.13-.06c2.72-.12 2.87-2.5 2.87-2.5s2.66-19.54 3.13-21.96c.48-2.42 2.4-2.44 4.24-2.4.69.01 1.18-.21 1.51-.5.54-.46.65-2.14.73-3.08.16-1.88.38-4.52.46-6.15.13-2.84.35-6.19.35-6.19H37.97z"/><path fill="#FFF" d="M65.9 89.29c-2.41 0-4.84-.04-7.26-.09l-2.7-.04c-4.67-.07-10.04-.33-14.66-2.45-4.26-1.95-9.38-4.84-11.21-9.88-1.72-4.76-.3-9.87 1.2-13.31.65-1.49.07-2.94-.43-4.22-.14-.34-.27-.67-.38-1-.55-1.72-.81-3.42-.75-5.04.13-3.66 1.79-7.65 4.11-9.93.14-.13.31-.27.49-.41.64-.51 1.53-1.21 1.49-2.22-.03-.79-.35-1.47-.66-2.13-.17-.35-.33-.69-.44-1.05-.36-1.23-.48-2.52-.36-3.83.69-7.43 8.24-13.6 15.16-15.27.69-.17 1.39-.33 2.1-.49 2.95-.67 6.01-1.36 8.77-2.78C65 12.78 67.48 8.36 66.7 3.87l-.07-.38c-.31-1.7-.39-2.17 1.27-2.53.58-.12 1.2-.19 1.84-.19 1 0 2.1.16 3.27.47C79.48 3 84.06 11.81 84.88 17.49c.41 2.86.15 5.25-.83 7.53l-.27.63.66.18c5.58 1.57 9.34 8.33 7.9 14.18-.36 1.45-1.01 2.88-1.95 4.24l.99.69-.47.25c.37.17 3.27 2.55 3.63 2.91 2.21 2.15 3.58 5.13 3.76 8.15.1 1.7-.39 3.23-.92 4.85-.18.57-.37 1.14-.53 1.72-.03.12-.08.24-.13.37-.15.39-.34.89-.26 1.39.07.42.34.77.57 1.07.12.15.24.3.29.42.47 1.01 1.01 2.49 1.17 3.52.66 4.21-.17 7.86-2.46 10.84-4.83 6.28-14.73 7.94-18.77 8.35-3.31.36-6.93.51-11.36.51z"/><path fill="#78A3AD" d="M90.88 44.61c.93-1.36 1.65-2.84 2.04-4.44 1.52-6.17-2.34-13.22-8.32-14.91.97-2.26 1.32-4.74.88-7.85-.89-6.19-5.75-14.97-12.3-16.75-1.75-.47-3.62-.68-5.4-.29-2.39.53-1.99 1.7-1.66 3.61.8 4.62-2.03 8.6-6.01 10.64-3.34 1.71-7.12 2.34-10.74 3.21-7.15 1.73-14.89 8.06-15.61 15.8-.12 1.36 0 2.74.38 4.06.3 1.01 1.04 1.95 1.08 3.03.04.95-1.22 1.6-1.8 2.17-2.61 2.56-4.16 6.75-4.29 10.34-.07 1.79.23 3.55.78 5.25.49 1.51 1.53 3.17.83 4.8-1.84 4.25-2.83 9.29-1.21 13.75 1.84 5.08 6.84 8.08 11.52 10.22 4.62 2.12 9.88 2.42 14.9 2.5 7.16.12 14.25.37 21.39-.37 10.8-1.12 23.88-6.35 21.76-19.89-.17-1.11-.74-2.64-1.21-3.68-.2-.43-.74-.87-.81-1.33-.07-.48.25-1.06.38-1.5.64-2.29 1.61-4.36 1.47-6.77-.19-3.22-1.64-6.3-3.94-8.55-.33-.28-3.95-3.29-4.11-3.05zM78.56 71.03c.64.23 1.43.31 1.77.32 1.97.07 3.8.03 5.69-.55 1.16-.35 2.11-.89 3.19-1.43.69-.35 1.67-1.1 2.51-.84 3.3 1.05-.84 7.1-1.87 8.22-4.12 4.48-10.42 6.19-16.23 7.02-2.37.34-4.76.54-7.16.68-5.23.31-10.24-.12-15.4-.89-4.21-.62-8.49-1.95-11.64-4.94-3.47-3.29-4.74-8.9-1.8-13.1 2.24-3.19-.28-4.33-1.4-7.32-1.18-3.15-.59-6.6.92-9.53 1.55-2.99 4.68-4.69 6.15-7.65.38-.77.27-1.32-.3-1.87-4-3.87-2.16-9.65 1.77-12.62 3.65-2.75 8.48-4.01 12.83-5.14 2.43-.64 4.88-1.29 7.19-2.32 3.25-1.45 5.67-4.76 6.52-8.14.34-1.37 0-2.77.09-4.12 3.18-1.16 5.65 3 6.93 5.21 1.86 3.2 2.2 6.96 1.15 10.49-.54 1.8-1.4 3.44-2.46 4.98-.67.98-3.35 3.04-3.21 4.34.16 1.46 1.82 1.13 2.85 1.09 1.52-.06 2.88-.75 4.19-1.47.68-.38 1.3-1.01 2.01-1.3 1.42-.6 3.3 2.02 3.73 3.09 3.91 9.67-6.82 12.97-13.42 15.48-.74.28-1.89.96-2.06 1.81-.3 1.49 1.44 1.78 2.52 1.89 5.25.51 8.41-1.99 13.04-3.57 1.47-.5 3.6 1.73 4.44 2.85 4.68 6.33-2.71 13.03-8.11 15.49-1.03.47-4.88 1.52-5.31 2.63-.24.62.25.98.88 1.21z"/></svg>