<svg xmlns="http://www.w3.org/2000/svg" xmlns:xlink="http://www.w3.org/1999/xlink" width="128" height="128" viewBox="0 0 128 128"><path fill="#FFF" d="M63.27 56.33c-.64-.71-1.26-1.32-2.08-1.75-.57-.3-1.57-.47-1.98-.96-2.92-.4-5.82-.8-8.73-1.21-4.89-.67-9.79-1.35-14.69-2.03-2.38-.33-4.9-.45-7.22-1.09-2.09-.59-4.58-2.31-6.78-1.14-.14.07-.27.17-.39.27-2.45 2.11-4.32 1.21-7.21 1.82-1.65.34-3.24.99-4.67 1.97C3.94 56 2.88 64.55 2 70.85 1.29 75.84.11 82.2 2.4 86.8c1.06 2.13 3.05 3.67 5.06 4.59 1.54.7 3.6.66 4.77 2.11 1.54 1.88.36 4.05.58 6.33.74 7.42 10.26 9.42 15.59 10.7 5.67 1.36 11.75 2.15 17.59 1.53 7.63-.81 10.99-5.58 12.83-13.49 1.94-8.31 3.04-17.21 4.3-25.65.69-4.71 3.67-12.67.15-16.59zM16.21 77.5c-.38 2.1-1.6 3.33-2.63 2.38-.87-.79-.91-2.74-.79-4.41.21-3.27.94-7.54 2.02-10.52.63-1.75 2.41-2.64 3.03-1.01 1.02 2.68-1.25 11.45-1.63 13.56z"/><path fill="#78A3AD" d="M23.66 51.92c.42.09 1.15.38 1.66.59.67.27 1.37.55 2.13.76 1.96.55 3.89.76 5.75.97.68.08 1.36.15 2.02.24 4.89.68 9.79 1.35 14.68 2.03l4.71.65 3.04.42c.54.29 1.05.48 1.44.61.08.03.16.05.22.08.21.12.48.37.88.82 1.33 1.48.23 6.47-.43 9.45-.29 1.33-.57 2.59-.74 3.77-.24 1.57-.47 3.15-.7 4.75-.99 6.87-2 13.97-3.54 20.57-1.88 8.01-4.8 9.85-9.24 10.32-1.2.12-2.46.19-3.74.19-3.74 0-7.93-.55-12.44-1.63l-.61-.14c-5.77-1.38-11.45-3.05-11.83-6.94-.03-.35.03-.87.1-1.43.19-1.69.53-4.52-1.58-7.09-1.62-2.02-3.82-2.59-5.25-2.97-.39-.1-.82-.21-1.01-.3-1.44-.67-2.56-1.64-3.07-2.68-1.53-3.07-.8-8.16-.2-12.26l.18-1.28.07-.48c.74-5.33 1.76-12.64 5.69-15.31a8.63 8.63 0 0 1 3.19-1.34c.62-.13 1.22-.16 1.92-.19 1.75-.07 4.11-.18 6.7-2.18m-9.34 32.42c2.96 0 5.29-2.4 5.97-6.12.06-.36.18-.93.34-1.64 1.51-6.99 2.12-11.31 1.07-14.11-.82-2.18-2.71-3.54-4.91-3.54-2.52 0-4.88 1.85-5.88 4.6-1.35 3.73-2.06 8.61-2.26 11.66-.15 2.54-.06 5.71 2.13 7.73 1.01.92 2.26 1.42 3.54 1.42m9.12-36.59c-.56 0-1.12.12-1.65.4-.14.07-.27.17-.39.27-2.45 2.11-4.32 1.21-7.21 1.82-1.65.34-3.24.99-4.67 1.97C3.94 56 2.88 64.55 2 70.85 1.29 75.84.11 82.2 2.4 86.8c1.06 2.13 3.05 3.67 5.06 4.59 1.54.7 3.6.66 4.77 2.11 1.54 1.88.36 4.05.58 6.33.74 7.42 10.26 9.42 15.59 10.7 4.32 1.03 8.9 1.74 13.41 1.74 1.4 0 2.8-.07 4.18-.21 7.63-.81 10.99-5.58 12.83-13.49 1.94-8.31 3.04-17.21 4.3-25.65.7-4.71 3.68-12.67.15-16.59-.64-.71-1.26-1.32-2.08-1.75-.57-.3-1.57-.47-1.98-.96-2.92-.4-5.82-.8-8.73-1.21-4.89-.67-9.79-1.35-14.69-2.03-2.38-.33-4.9-.45-7.22-1.09-1.59-.45-3.39-1.54-5.13-1.54zM14.32 80.2c-.24 0-.5-.1-.74-.33-.87-.79-.91-2.74-.79-4.41.21-3.27.94-7.54 2.02-10.52.4-1.11 1.26-1.87 1.99-1.87.43 0 .82.26 1.05.86 1.02 2.69-1.25 11.46-1.62 13.56-.31 1.61-1.09 2.71-1.91 2.71z"/><defs><path id="a" d="M55.85 68.4c0-.39.02-.91-.72-1.02-.66-.1-1.29.11-1.92.17-3.86.37-8.07.1-12.05-.53a53.54 53.54 0 0 1-5.92-1.27c-1.74-.48-3.45-1.02-5.08-1.67-.58-.23-1.19-.4-1.77-.61-1.9-.69-1.95 1.27-2.05 2.06v.02c-.17.73-.25 1.51-.32 2.02-.2 1.57-2.6 16.4-3.23 21.14-.42 3.13-1.13 6.15 1.09 8.58 1.48 1.62 3.94 2.5 5.89 3.21 1.91.7 3.91 1.07 5.91 1.38 2.37.37 4.71.64 7.12.55 1.38-.06 2.93.03 4.24-.64 2.62-1.34 4.24-4.96 4.83-7.87.45-2.2 1.61-9.78 2.31-14.25.11-.72.24-1.49.36-2.24.02-.22.06-.42.09-.57.26-1.62.56-3.26.79-4.89.23-1.2.44-2.38.43-3.57z"/></defs><use xlink:href="#a" overflow="visible" fill="#FCC21B"/><path fill="#FFF" d="M32.07 30.69c-.7.42-1.36.95-2.13 1.08-1.32.23-2.55-.56-3.94-.17-3.9 1.08-6.16 4.22-5.45 8.58.23 1.46-.34 2.04-.88 3.36-1.46 3.61.1 8.7 3.69 9.72 2.14.61 4.43-.23 6.52.37 1.76.5 2.4 2.53 3.87 3.48 1.4.9 3.05 1.34 4.66 1.53 2.16.26 5.27-1.19 6.97.87 2.62 3.19-.24 8.46 3.02 11.48 1.34 1.24 3.4 1.32 4.98.54 3.02-1.52 3-5.63 4.25-8.49.33-.76.73-1.44 1.43-1.83.7-.39 1.37-.15 2.1-.34.99-.26 1.95-.68 2.77-1.37.97-.8.65-2.63 2.06-2.72.44-.03 1.03-.21 1.4-.44 2-1.23 2.88-4.21 1.91-6.46-.35-.82-.67-1.09-.63-2.03.04-.86.32-1.56.18-2.47-.36-2.23-1.86-3.83-3.67-4.7-.34-.16-.7-.31-1.06-.44-.59-.23-1.1-.33-1.49-.91-.2-.3-.32-.71-.45-1.05-.34-.94-.88-1.73-1.5-2.47-1.83-2.19-4.58-3.05-7.27-3.06-.72 0-1.4.17-2.12.34-1.79.43-2.25-.93-3.48-1.96-1.53-1.27-3.54-1.61-5.43-1.6-1.11.01-2.03.61-3.08.92-1.21.36-1.79-.13-2.89-.4-.99-.24-2.12-.12-3.11.09-.42.1-.82.31-1.23.55z"/><path fill="#78A3AD" d="M51.22 74.1c-1.61 0-3.11-.57-4.22-1.6-2.37-2.2-2.39-5.15-2.41-7.52-.02-1.73-.02-3.22-.8-4.16-.11-.14-.3-.37-1.2-.37-.53 0-1.07.07-1.6.13-.99.12-1.96.21-2.81.1-2.18-.26-4.04-.88-5.54-1.85-.9-.58-1.52-1.35-2.05-2.02-.47-.59-.87-1.1-1.26-1.2-.62-.18-1.58-.16-2.55-.1-1.45.08-2.85.06-3.98-.27-2-.57-3.67-2.05-4.69-4.16-1.25-2.58-1.39-5.77-.35-8.33.15-.36.3-.68.44-.97.35-.72.39-.83.32-1.28-.86-5.22 1.87-9.5 6.94-10.9 1.03-.29 2.2-.15 3.07.02.3.06.59.12.9.12.37-.05.79-.32 1.12-.53l.44-.28c.48-.29 1.12-.64 1.89-.8 1.54-.33 2.87-.36 4.02-.08.38.09.71.2 1.02.3.42.15.63.17.8.12.29-.08.56-.2.84-.31.75-.3 1.68-.68 2.82-.69 2.87 0 5.11.7 6.77 2.07.4.33.74.7 1.05 1.04.19.2.44.48.56.54.88-.25 1.72-.45 2.67-.45 3.66 0 6.81 1.35 8.85 3.79.88 1.04 1.47 2.02 1.86 3.08 0 .01.07.21.07.22.05.14.09.29.16.41-.02-.06.08-.04.2.01l.3.1c.38.14.8.32 1.2.5 2.64 1.29 4.4 3.56 4.83 6.25.14.9.03 1.63-.07 2.22-.03.21-.07.43-.08.67.03.25.09.33.14.44.1.19.22.41.33.68 1.38 3.21.16 7.26-2.73 9.04-.5.31-1.17.55-1.81.67 0 .03-.02.06-.03.09-.21.61-.55 1.53-1.39 2.22-.97.82-2.17 1.42-3.56 1.78-.53.14-1.01.15-1.35.16h-.11c-.08 0-.15 0-.23.02-.08.06-.26.33-.47.82-.32.73-.56 1.61-.8 2.54-.66 2.45-1.47 5.5-4.42 6.98-.96.49-2.03.74-3.1.74zm-8.63-17.79c1.92 0 3.36.61 4.4 1.88 1.7 2.08 1.72 4.57 1.74 6.76.02 2.19.08 3.58 1.08 4.52.46.43 1.08.49 1.41.49.42 0 .86-.1 1.25-.29 1.18-.59 1.65-2.04 2.26-4.34.28-1.04.57-2.11 1.01-3.12.39-.92 1.03-2.08 2.3-2.8.87-.48 1.67-.5 2.21-.51.14 0 .32-.01.39-.02.81-.21 1.45-.53 1.96-.96 0 0 .07-.26.14-.43.28-.79.94-2.63 3.13-2.77.11-.01.36-.08.45-.14 1.11-.69 1.64-2.57 1.08-3.88-.07-.17-.15-.31-.21-.43-.28-.57-.65-1.27-.58-2.51.01-.4.07-.77.12-1.14.07-.42.1-.67.07-.91-.3-1.83-1.71-2.77-2.53-3.17-.27-.12-.57-.25-.86-.36l-.24-.09c-.61-.22-1.54-.55-2.25-1.6-.32-.47-.5-.98-.62-1.35-.27-.75-.62-1.32-1.19-1.99-1.69-2.02-4.29-2.32-5.69-2.32-.45 0-.96.12-1.55.27-.47.11-.84.16-1.2.16-1.8 0-2.83-1.12-3.52-1.86-.19-.21-.4-.45-.65-.66-.9-.74-2.24-1.12-3.99-1.12-.45 0-.89.18-1.4.39-.4.16-.8.32-1.21.44-1.31.4-2.53.11-3.33-.17-.19-.07-.4-.14-.64-.19-.53-.13-1.29-.09-2.2.1-.18.04-.49.23-.59.29l-.37.23c-.65.42-1.46.94-2.5 1.12-.91.16-1.82.01-2.53-.12-.4-.08-.88-.19-1.21-.1-3.03.84-4.47 3.12-3.95 6.25.28 1.75-.25 2.86-.68 3.75-.1.22-.22.46-.33.73-.6 1.47-.5 3.42.23 4.96.3.6.96 1.67 2.11 2 .64.18 1.64.17 2.63.11 1.44-.08 2.8-.06 3.9.25 1.66.47 2.6 1.65 3.36 2.6.38.47.73.91 1.07 1.13.95.62 2.24 1.03 3.79 1.22.56.07 1.18-.03 1.83-.11.71-.11 1.42-.19 2.1-.19z"/><g><path fill="#FFF" d="M64.89 82.51c1.24 8.45 2.35 17.34 4.28 25.66 1.85 7.91 5.21 12.68 12.83 13.49 5.84.62 11.92-.17 17.59-1.53 5.33-1.28 14.85-3.28 15.59-10.7.23-2.28-.96-4.45.58-6.33 1.17-1.45 3.23-1.41 4.77-2.11 2.01-.92 3.99-2.45 5.06-4.59 2.3-4.61 1.11-10.97.41-15.96-.88-6.29-1.94-14.84-7.52-18.64-1.43-.97-3.02-1.62-4.66-1.97-2.9-.61-4.77.29-7.23-1.82-.11-.11-.24-.19-.37-.27-2.21-1.18-4.69.55-6.79 1.13-2.32.65-4.85.77-7.22 1.1-4.9.68-9.79 1.35-14.69 2.03-2.91.41-5.81.8-8.73 1.21-.41.49-1.41.66-1.98.96-.82.43-1.45 1.04-2.08 1.75-3.52 3.92-.53 11.88.16 16.59zm45.28-8.99c.62-1.63 2.4-.75 3.03 1.01 1.08 2.98 1.81 7.25 2.02 10.52.1 1.67.06 3.62-.8 4.41-1.04.95-2.26-.27-2.64-2.38-.37-2.1-2.64-10.87-1.61-13.56z"/><path fill="#78A3AD" d="M104.34 61.51c2.57 2 4.95 2.11 6.71 2.19.7.03 1.3.06 1.92.19 1.16.24 2.23.7 3.19 1.34 3.93 2.66 4.95 9.97 5.68 15.3l.07.48.18 1.27c.6 4.09 1.33 9.19-.19 12.26-.52 1.04-1.64 2.01-3.08 2.67-.2.09-.63.21-1.02.31-1.44.38-3.61.95-5.24 2.96-2.11 2.59-1.78 5.42-1.58 7.11.07.56.13 1.09.1 1.43-.39 3.89-6.06 5.56-11.84 6.94l-.6.14c-4.5 1.08-8.68 1.63-12.43 1.63-1.29 0-2.55-.06-3.75-.19-4.44-.47-7.37-2.31-9.24-10.31-1.53-6.6-2.56-13.71-3.54-20.58-.23-1.59-.46-3.18-.69-4.74-.17-1.18-.45-2.43-.75-3.77-.66-2.98-1.76-7.97-.43-9.45.4-.44.67-.69.88-.82.07-.03.14-.05.22-.08.39-.14.9-.32 1.45-.61 2.59-.36 5.16-.71 7.74-1.07l7.08-.98 7.6-1.05c.66-.09 1.32-.16 1.98-.23 1.88-.21 3.82-.42 5.81-.97.76-.21 1.46-.49 2.12-.76.49-.23 1.22-.52 1.65-.61m9.33 32.42c1.29 0 2.55-.5 3.56-1.42 2.18-2.01 2.28-5.18 2.12-7.72-.2-3.05-.91-7.93-2.26-11.66-1-2.75-3.37-4.6-5.89-4.6-2.2 0-4.09 1.36-4.91 3.53-1.06 2.8-.44 7.12 1.07 14.12.15.71.28 1.28.34 1.65.68 3.7 3.02 6.1 5.97 6.1m-9.11-36.59c-1.74 0-3.54 1.09-5.12 1.54-2.32.65-4.85.77-7.22 1.1-4.9.68-9.79 1.35-14.69 2.03-2.91.41-5.81.8-8.73 1.21-.41.49-1.41.66-1.98.96-.82.43-1.45 1.04-2.08 1.75-3.52 3.93-.53 11.88.16 16.59 1.24 8.45 2.35 17.34 4.28 25.66 1.85 7.91 5.21 12.68 12.83 13.49 1.39.15 2.79.21 4.19.21 4.51 0 9.08-.7 13.4-1.74 5.33-1.28 14.85-3.28 15.59-10.7.23-2.28-.96-4.45.58-6.33 1.17-1.45 3.23-1.41 4.77-2.11 2.01-.92 3.99-2.45 5.06-4.59 2.3-4.61 1.11-10.97.41-15.96-.88-6.29-1.94-14.84-7.52-18.64-1.43-.97-3.02-1.62-4.66-1.97-2.9-.61-4.77.29-7.23-1.82-.11-.11-.24-.19-.37-.27-.55-.3-1.12-.41-1.67-.41zm9.11 32.45c-.82 0-1.59-1.09-1.88-2.7-.37-2.11-2.64-10.87-1.62-13.56.23-.6.61-.86 1.03-.86.74 0 1.59.76 2 1.87 1.08 2.98 1.81 7.25 2.02 10.52.1 1.67.06 3.62-.8 4.41-.24.22-.5.32-.75.32z"/><defs><path id="b" d="M72.14 77.99c.01-.39-.02-.92.72-1.02.66-.09 1.29.11 1.92.17 3.86.37 8.07.1 12.05-.53 2.02-.32 4.02-.74 5.93-1.27 1.74-.48 3.45-1.02 5.08-1.67.58-.23 1.19-.4 1.77-.61 1.9-.7 1.95 1.27 2.04 2.06v.02c.17.73.25 1.51.32 2.01.2 1.57 2.6 16.4 3.22 21.14.42 3.13 1.13 6.15-1.09 8.58-1.48 1.62-3.94 2.51-5.89 3.21-1.91.7-3.92 1.07-5.91 1.38-2.37.38-4.7.64-7.11.55-1.39-.05-2.94.03-4.25-.64-2.63-1.34-4.24-4.96-4.83-7.87-.44-2.2-1.61-9.79-2.31-14.25-.11-.72-.23-1.49-.35-2.24-.04-.22-.07-.42-.09-.58-.27-1.62-.57-3.26-.79-4.89-.22-1.18-.43-2.35-.43-3.55z"/></defs><use xlink:href="#b" overflow="visible" fill="#FCC21B"/><g><path fill="#FFF" d="M95.92 40.28c.7.42 1.37.95 2.14 1.08 1.31.23 2.55-.56 3.93-.17 3.9 1.07 6.16 4.21 5.45 8.57-.24 1.46.34 2.04.88 3.36 1.46 3.61-.11 8.7-3.69 9.72-2.14.61-4.43-.22-6.52.37-1.76.5-2.39 2.53-3.87 3.48-1.39.9-3.05 1.34-4.66 1.53-2.16.26-5.27-1.19-6.96.87-2.62 3.18.23 8.45-3.02 11.48-1.34 1.24-3.4 1.32-4.98.53-3.02-1.52-2.99-5.63-4.25-8.49-.33-.76-.73-1.44-1.43-1.83-.7-.39-1.37-.15-2.1-.34-.99-.26-1.94-.69-2.77-1.38-.97-.8-.65-2.63-2.06-2.72-.44-.03-1.03-.21-1.4-.43-2.01-1.24-2.87-4.22-1.91-6.46.36-.82.67-1.09.63-2.03-.04-.86-.32-1.56-.18-2.46.36-2.23 1.86-3.83 3.68-4.7.34-.17.7-.31 1.05-.44.59-.22 1.09-.33 1.49-.91.2-.3.32-.71.44-1.05.35-.95.89-1.74 1.51-2.47 1.83-2.18 4.58-3.05 7.26-3.05.72 0 1.39.17 2.11.34 1.8.43 2.26-.93 3.48-1.95 1.53-1.27 3.54-1.61 5.44-1.6 1.11.01 2.03.61 3.08.92 1.21.36 1.79-.13 2.89-.4 1-.24 2.12-.12 3.11.09.43.09.83.29 1.23.54z"/><path fill="#78A3AD" d="M76.78 83.69c-1.07 0-2.15-.25-3.1-.73-2.95-1.48-3.76-4.53-4.42-6.98-.25-.93-.49-1.81-.8-2.53-.21-.49-.39-.77-.55-.86-.03.01-.15.02-.27.02-.35-.01-.83-.02-1.36-.16-1.39-.37-2.59-.97-3.57-1.79-.82-.68-1.15-1.6-1.36-2.21-.02-.03-.02-.06-.03-.09-.65-.12-1.31-.36-1.81-.67-2.89-1.78-4.11-5.83-2.73-9.04.11-.27.22-.48.32-.68.06-.11.11-.19.15-.3-.01-.38-.05-.6-.08-.82-.1-.59-.21-1.32-.07-2.21.44-2.69 2.19-4.97 4.81-6.24.41-.19.81-.36 1.23-.52l.29-.1c.11-.04.22-.07.32-.12-.05-.01-.01-.16.04-.3 0-.01.07-.19.07-.2.39-1.08.98-2.06 1.87-3.11 2.05-2.44 5.18-3.78 8.84-3.79.93 0 1.75.2 2.48.37l.27.05c.02-.04.28-.31.47-.52.32-.34.66-.7 1.06-1.03 1.65-1.38 3.88-2.07 6.62-2.07 1.28.01 2.21.39 2.96.69.27.11.55.23.84.31.16.05.38.02.81-.12.31-.11.64-.21 1.02-.3 1.12-.28 2.5-.25 4.03.08.76.16 1.4.51 1.87.79l.45.29c.35.23.76.49.97.53.47-.01.75-.06 1.05-.11.87-.17 2.04-.31 3.07-.02 5.07 1.39 7.79 5.67 6.94 10.9-.07.44-.03.55.32 1.28.14.29.28.6.44.96 1.04 2.57.91 5.76-.35 8.34-1.03 2.11-2.7 3.58-4.7 4.15-1.12.32-2.52.35-3.99.27-.96-.05-1.92-.07-2.53.1-.39.11-.8.62-1.26 1.2-.54.67-1.15 1.44-2.06 2.03-1.49.97-3.36 1.58-5.54 1.85-.85.11-1.8.01-2.79-.1-.55-.06-1.09-.13-1.61-.13-.91 0-1.09.23-1.21.37-.77.94-.78 2.43-.8 4.16-.02 2.37-.04 5.32-2.4 7.53-1.11 1.01-2.62 1.58-4.22 1.58zM74.57 44.4c-1.39 0-3.99.3-5.68 2.32-.58.68-.93 1.25-1.14 1.85-.18.52-.35 1.03-.68 1.5-.71 1.07-1.65 1.4-2.26 1.62l-.21.08c-.29.11-.59.23-.89.37-.81.39-2.23 1.33-2.52 3.17-.04.23 0 .48.06.9.06.37.12.74.14 1.14.06 1.24-.31 1.95-.6 2.51-.06.13-.14.26-.2.43-.57 1.3-.03 3.19 1.1 3.88.08.04.33.12.45.13 2.18.14 2.84 1.98 3.12 2.77.07.17.15.43.2.5.44.36 1.09.67 1.9.89.06.02.24.02.39.02.52.01 1.32.03 2.18.5 1.3.73 1.92 1.89 2.33 2.82.44 1 .73 2.07 1 3.11.62 2.31 1.08 3.75 2.27 4.35.38.19.83.29 1.25.29.32 0 .93-.06 1.39-.49 1.01-.94 1.08-2.33 1.09-4.52.02-2.19.04-4.68 1.74-6.76 1.05-1.26 2.48-1.88 4.41-1.88.69 0 1.39.08 2.1.16.64.08 1.27.17 1.82.1 1.55-.19 2.83-.59 3.79-1.22.34-.21.7-.66 1.07-1.13.76-.95 1.71-2.13 3.37-2.6 1.09-.31 2.45-.33 3.88-.25.99.05 1.99.07 2.63-.11 1.15-.33 1.81-1.39 2.1-1.99.75-1.54.84-3.48.24-4.97-.11-.27-.23-.51-.34-.72-.42-.89-.95-1.99-.67-3.74.52-3.14-.93-5.41-3.95-6.25-.33-.09-.8.02-1.21.1-.49.09-1.04.19-1.66.19-.3 0-.58-.02-.88-.07-1.03-.18-1.84-.7-2.49-1.12l-.37-.23c-.09-.06-.4-.24-.59-.28-.91-.2-1.66-.23-2.19-.11-.25.06-.45.13-.65.2-.79.27-2 .56-3.32.17-.42-.12-.82-.28-1.21-.44-.51-.21-.95-.39-1.29-.39h-.01c-1.86 0-3.2.38-4.09 1.12-.25.21-.46.45-.66.66-.68.74-1.71 1.85-3.51 1.85-.36 0-.74-.05-1.12-.14-.7-.18-1.2-.29-1.63-.29z"/></g></g><g fill="#ED6C30"><path d="M93.85 17.67L83.22 29.8l15.55-4.26z"/><path d="M83.22 31.48c-.57 0-1.12-.29-1.43-.79-.4-.63-.34-1.44.15-2l10.63-12.13c.35-.4.87-.61 1.4-.57.53.04 1.01.33 1.29.78l4.93 7.88c.28.45.34 1.01.14 1.5-.19.5-.61.87-1.12 1.01l-15.55 4.26c-.14.04-.3.06-.44.06zm10.4-11l-5.45 6.22 7.97-2.18-2.52-4.04z"/></g><g fill="#ED6C30"><path d="M57.63 11.57l6.33 14.83-13.46-8.87z"/><path d="M63.96 28.08c-.32 0-.64-.09-.92-.28l-13.47-8.87c-.44-.29-.72-.78-.76-1.31-.03-.53.19-1.04.6-1.39l7.12-5.96c.41-.34.95-.47 1.47-.34.52.13.95.49 1.15.97l6.21 14.52c.2.27.32.61.32.97 0 .93-.76 1.68-1.69 1.68.01.01-.01.01-.03.01zM53.32 17.36l6.9 4.55-3.25-7.6-3.65 3.05z"/></g><g fill="#ED6C30"><path d="M71.4 7.81l2.71 15.91 6.5-14.76z"/><path d="M74.11 25.4c-.06 0-.14 0-.21-.01-.73-.09-1.32-.65-1.45-1.39L69.73 8.1c-.09-.53.08-1.06.45-1.44.37-.39.9-.58 1.43-.51l9.21 1.15c.53.06.99.38 1.26.84.26.46.29 1.02.07 1.51l-6.5 14.76c-.27.6-.88.99-1.54.99zm-.67-15.63l1.39 8.15 3.34-7.57-4.73-.58z"/></g></svg>