<svg xmlns="http://www.w3.org/2000/svg" xmlns:xlink="http://www.w3.org/1999/xlink" width="128" height="128" viewBox="0 0 128 128"><path fill="#FFF" d="M105.85 38.77c-1.21-.9-2.39-1.65-3.84-2.09-1-.31-2.67-.33-3.47-.96l-14.51.24c-8.14.13-16.27.27-24.41.41-3.96.06-8.08.47-12.03.05-3.56-.38-8.02-2.35-11.32-.1-.2.13-.38.3-.55.48-3.46 3.68-6.71 2.79-11.28 4.36-2.58.88-5.01 2.22-7.09 3.98-8.12 6.88-7.66 19.72-7.48 29.2.14 7.51-.17 17.16 4.74 23.41 2.29 2.9 5.9 4.71 9.41 5.59 2.68.68 6.02.15 8.31 2.01 2.97 2.43 1.6 5.89 2.55 9.2 3.08 10.75 19.1 11.5 28.09 12.16 9.57.69 19.66.45 29.01-1.82 12.2-2.96 16.44-10.76 17.42-22.85 1.03-12.69.57-26.05.44-38.79-.08-7.09 2.75-19.5-3.99-24.48zM33.93 81c-.09 3.19-2.05 5.37-4.31 4.28-1.87-.9-2.53-3.75-2.82-6.24-.57-4.85-.43-11.34.75-16.04.69-2.76 3.83-4.6 5.49-2.39 2.73 3.63.99 17.18.89 20.39z"/><path fill="#78A3AD" d="M40.09 41.1c.9 0 2.16.26 3.38.52 1.12.24 2.29.48 3.51.61 1.39.15 2.88.22 4.58.22 1.64 0 3.26-.07 4.82-.13 1.12-.04 2.24-.09 3.34-.11l12.2-.2 12.21-.2c4.39-.07 8.77-.14 13.16-.22.94.33 1.83.48 2.53.6.2.03.39.06.48.08.56.17 1.14.51 2.08 1.21 2.69 1.99 2.21 8.99 1.87 14.1-.14 2.04-.27 3.96-.25 5.74.02 2.3.06 4.62.09 6.95.16 10.41.32 21.18-.5 31.31-.88 10.92-4.28 15.54-12.98 17.65-5.45 1.32-11.69 2-18.53 2-2.76 0-5.68-.11-8.68-.33l-1.01-.07c-7.5-.53-20.06-1.43-21.9-7.88-.14-.48-.17-1.26-.21-2.09-.11-2.54-.29-6.79-4.27-10.02-2.88-2.35-6.18-2.66-8.58-2.88-.78-.07-1.51-.14-1.98-.26-2.75-.7-5.02-1.99-6.25-3.54-3.28-4.19-3.39-11.53-3.47-18l-.03-1.92-.01-.75c-.16-8.46-.36-18.98 5.43-23.89 1.49-1.26 3.24-2.24 5.21-2.91 1.08-.38 2.16-.57 3.28-.78 2.91-.53 6.51-1.19 10.04-4.77.09-.03.24-.04.44-.04m-9.31 50.3c4.95 0 8.81-4.4 8.99-10.22.02-.53.08-1.37.16-2.41.86-10.98.76-17.69-2.24-21.67-1.58-2.1-3.96-3.31-6.52-3.31-4.25 0-8.16 3.28-9.29 7.79-1.5 6.02-1.41 13.54-.88 18.13.24 2.07.96 8.36 6.09 10.83 1.19.57 2.43.86 3.69.86m9.31-56.13c-1.36 0-2.66.27-3.82 1.06-.2.13-.38.3-.55.48-3.46 3.68-6.71 2.79-11.28 4.36-2.58.88-5.01 2.22-7.09 3.98-8.12 6.88-7.66 19.72-7.48 29.2.14 7.51-.17 17.16 4.74 23.41 2.29 2.9 5.9 4.71 9.41 5.59 2.68.68 6.02.15 8.31 2.01 2.97 2.43 1.6 5.89 2.55 9.2 3.08 10.75 19.1 11.5 28.09 12.16 3 .21 6.05.34 9.11.34 6.72 0 13.48-.6 19.9-2.16 12.2-2.96 16.44-10.76 17.42-22.85 1.03-12.69.57-26.05.44-38.79-.07-7.1 2.76-19.51-3.98-24.48-1.21-.9-2.39-1.65-3.84-2.09-1-.31-2.67-.33-3.47-.96l-14.51.24c-8.14.13-16.27.27-24.41.41-2.64.04-5.37.24-8.06.24-1.33 0-2.66-.05-3.96-.19-2.32-.25-5.01-1.16-7.52-1.16zm-9.31 50.29a2.7 2.7 0 0 1-1.16-.28c-1.87-.9-2.53-3.75-2.82-6.24-.57-4.85-.43-11.34.75-16.04.47-1.91 2.12-3.37 3.63-3.37.68 0 1.34.29 1.86.98 2.73 3.64.99 17.19.9 20.4-.09 2.61-1.43 4.55-3.16 4.55z"/><defs><path id="a" d="M98.76 56.24c-.12-.62-.22-1.46-1.54-1.44-1.2.02-2.25.5-3.32.75-6.7 1.55-14.17 2.18-21.34 2.17-3.64 0-7.27-.18-10.77-.54-3.19-.33-6.33-.77-9.39-1.39-1.07-.22-2.19-.34-3.28-.53-3.53-.63-3.08 2.51-3.02 3.78v.04c-.1 1.2-.02 2.47 0 3.28.08 2.56-.05 26.76.16 34.47.14 5.08-.28 10.07 4.29 13.38 3.05 2.21 7.62 3 11.25 3.64 3.55.63 7.17.72 10.77.72 4.27 0 8.44-.15 12.66-.91 2.43-.43 5.17-.69 7.29-2.08 4.24-2.79 6.08-8.96 6.31-13.74.17-3.61.13-15.98.12-23.26.01-1.18.01-2.43.01-3.66v-.94c.03-2.65.11-5.32.04-7.98.07-1.91.1-3.85-.24-5.76z"/></defs><use xlink:href="#a" overflow="visible" fill="#FCC21B"/><g><path fill="#FFF" d="M48.57 8.21c-1.03.79-1.99 1.71-3.22 2.09-2.07.64-4.28-.23-6.44.65-6.09 2.5-8.95 7.65-6.68 13.9.76 2.1-.03 3.09-.57 5.15-1.46 5.66 2.39 12.79 8.49 13.47 3.64.41 7.16-1.36 10.71-.97 3 .33 4.54 3.18 7.19 4.24 2.5 1 5.31 1.26 7.97 1.18 3.59-.12 8.28-2.97 11.56-.33 5.08 4.09 1.77 12.52 7.84 16.22 2.49 1.52 5.87 1.16 8.23-.37 4.53-2.93 3.44-8.98 4.75-13.48.34-1.2.81-2.29 1.85-3.03 1.04-.74 2.19-.54 3.34-.99 1.54-.61 2.99-1.45 4.16-2.66 1.36-1.41.38-4.03 2.66-4.49.7-.14 1.62-.55 2.16-.96 2.95-2.28 3.6-6.88 1.47-9.96-.79-1.13-1.38-1.45-1.55-2.85-.16-1.27.12-2.37-.35-3.67-1.15-3.2-4-5.21-7.17-6.08-.59-.16-1.21-.3-1.82-.41-1.02-.19-1.87-.23-2.65-1-.41-.39-.72-.97-1-1.45-.81-1.31-1.88-2.35-3.07-3.29-3.53-2.79-8.23-3.44-12.6-2.82-1.18.16-2.23.58-3.35 1-2.82 1.05-3.92-.86-6.17-2.08-2.81-1.51-6.17-1.55-9.25-1.09-1.81.27-3.14 1.36-4.77 2.06-1.88.81-2.94.22-4.82.09-1.68-.14-3.47.3-5.05.84-.67.24-1.28.64-1.85 1.09z"/><path fill="#78A3AD" d="M89.07 67.7c-1.88 0-3.66-.48-5.17-1.4-4.31-2.64-5.1-6.96-5.73-10.44-.46-2.54-.87-4.75-2.41-6-.29-.23-.71-.47-1.6-.47-1.05 0-2.38.34-3.66.66-1.42.36-2.88.73-4.36.78-3.39.1-6.58-.35-9.16-1.39-1.53-.61-2.7-1.58-3.72-2.43-1.14-.94-1.88-1.53-2.7-1.62-1.38-.14-2.82.14-4.4.45-1.97.37-4.09.77-6.31.52-3.48-.39-6.59-2.34-8.76-5.49-2.38-3.46-3.21-7.81-2.22-11.62.15-.57.31-1.06.46-1.51.38-1.14.42-1.29.19-1.91-2.72-7.5.55-14.41 8.32-17.59 1.39-.57 2.72-.64 3.72-.64.32 0 .64.01.96.02.81.03 1.58.02 2-.11.46-.14 1.04-.61 1.66-1.1l.63-.51c.72-.54 1.58-1.14 2.69-1.53 2.33-.81 4.32-1.15 6.2-1.01.61.04 1.15.13 1.65.21.37.06.69.12 1.04.12.18 0 .4-.02.77-.18.47-.2.91-.44 1.33-.67 1.16-.63 2.45-1.33 4.16-1.59 4.41-.66 8.11-.18 11.06 1.41.76.42 1.38.86 1.93 1.25.55.4 1.08.78 1.32.78.07 0 .23-.02.51-.12l.24-.09c1.11-.44 2.29-.88 3.71-1.08 5.66-.8 11.01.42 14.81 3.42 1.67 1.32 2.87 2.61 3.75 4.06l.18.31c.12.19.23.42.37.58.07.02.42.09.68.13l.47.08c.68.13 1.39.28 2.06.46 4.44 1.22 7.77 4.1 9.14 7.9.48 1.31.47 2.43.47 3.33 0 .32-.02.65.03.98.07.25.23.46.35.61.22.27.45.57.71.93 3.01 4.35 2.06 10.73-2.08 13.93-.76.58-1.81 1.09-2.82 1.38-.01.07-.02.15-.04.23-.19.95-.49 2.37-1.64 3.56-1.34 1.39-3.08 2.51-5.17 3.34-.77.31-1.45.42-2 .51-.24.04-.66.11-.73.15-.2.15-.45.43-.75 1.47-.33 1.12-.48 2.46-.65 3.89-.43 3.76-.99 8.44-5.31 11.23-1.81 1.18-4 1.82-6.18 1.82zM74.15 43.56c2.04 0 3.81.59 5.26 1.76 3.25 2.61 3.92 6.27 4.5 9.5.59 3.24 1.05 5.29 3.04 6.5 1.34.82 3.6.66 5.13-.33 1.92-1.24 2.27-3.47 2.69-7.01.19-1.6.38-3.24.84-4.83.42-1.46 1.14-3.3 2.98-4.6 1.17-.83 2.31-1.01 3.15-1.15.33-.05.62-.1.79-.17 1.33-.53 2.36-1.18 3.14-1.98-.02-.02.06-.42.12-.68.24-1.2.82-3.99 4.06-4.64.28-.06.78-.29.94-.41 1.71-1.32 2.12-4.18.86-6-.16-.24-.32-.42-.46-.6-.58-.72-1.38-1.71-1.6-3.56-.07-.59-.07-1.16-.07-1.71.01-.65 0-1-.12-1.32-1.02-2.83-3.98-3.92-5.2-4.26a21.5 21.5 0 0 0-1.59-.36l-.37-.07c-1.04-.17-2.46-.42-3.79-1.71-.61-.59-1.02-1.28-1.31-1.79l-.14-.22c-.52-.85-1.25-1.63-2.38-2.52-2.52-1.99-5.63-2.41-7.8-2.41-.85 0-1.72.06-2.6.19-.78.11-1.57.4-2.49.75l-.24.09c-.89.33-1.72.49-2.56.49-2.12 0-3.57-1.04-4.73-1.88-.39-.29-.81-.59-1.3-.85-1.81-.98-4.3-1.24-7.41-.78-.69.1-1.37.48-2.23.94-.59.32-1.19.64-1.82.91-1.74.75-3.64.69-5.03.46-.36-.06-.73-.12-1.16-.15-1.04-.07-2.32.17-3.87.71-.33.11-.73.41-1.05.65l-.53.42c-.92.74-2.06 1.66-3.59 2.14-1.55.48-2.78.4-3.88.37-.27-.01-.53-.02-.8-.02-.72 0-1.15.06-1.51.21-2.84 1.16-7.28 4.04-5.04 10.2.93 2.55.33 4.32-.13 5.74-.12.34-.24.72-.35 1.15-.57 2.16-.03 4.78 1.38 6.84.69 1 2.21 2.73 4.59 2.99 1.44.16 2.93-.13 4.56-.45 1.93-.37 4-.76 6.15-.52 2.61.29 4.37 1.75 5.79 2.93.8.66 1.48 1.22 2.17 1.5 1.83.73 4.22 1.05 6.8.97.84-.03 1.95-.31 3.11-.61 1.55-.38 3.32-.82 5.1-.82z"/></g></svg>