<svg xmlns="http://www.w3.org/2000/svg" xmlns:xlink="http://www.w3.org/1999/xlink" width="128" height="128" viewBox="0 0 128 128"><path fill="#FFF" d="M11.757 26.96s2.166 7.298 16.888 19.618c5.421 4.55 11.008 8.921 16.372 13.545 2.792 2.402 5.775 4.795 8.265 7.516 1.063 1.164 3.964 3.658 4.55 6.764 1.579 8.365 1.133 21.167 1.566 24.308.04 10.093-8.116 11.804-11.717 13.422-2.446 1.103-8.422 3.667-8.067 7.048.424 4.117 7.59 5.85 10.706 6.559 7.201 1.645 14.652 1.233 21.954.656 3.098-.249 6.265-.726 9.275-1.505 2.17-.564 7.446-1.898 8.168-4.489 1.322-4.76-8.203-7.49-11.147-8.759-4.025-1.732-8.523-4.104-8.527-9.109-.004-3.833-.91-18.463 1.208-28.701.831-4.029 4.331-7.376 6.239-9.118 6.957-6.344 14.442-12.093 21.656-18.139 14.718-12.32 17.089-19.618 17.089-19.618H11.757z"/><path fill="#66949E" d="M28.645 46.578c5.421 4.55 11.008 8.921 16.372 13.545 2.792 2.402 5.775 4.795 8.265 7.516 1.063 1.164 3.964 3.658 4.55 6.764 1.579 8.365 1.133 21.167 1.566 24.308.04 10.093-8.116 11.804-11.717 13.422-2.446 1.103-8.422 3.667-8.067 7.048.424 4.117 7.59 5.85 10.706 6.559 3.806.866 7.683 1.164 11.567 1.164 3.466 0 6.939-.236 10.387-.508 3.098-.249 6.265-.726 9.275-1.505 2.17-.564 7.446-1.898 8.168-4.489 1.322-4.76-8.203-7.49-11.147-8.759-4.025-1.732-8.523-4.104-8.527-9.109-.004-3.833-.91-18.463 1.208-28.701.831-4.029 4.331-7.376 6.239-9.118 6.957-6.344 14.442-12.093 21.656-18.139 14.718-12.32 17.089-19.618 17.089-19.618H11.757c0 .002 2.165 7.3 16.888 19.62zm47.277 71.244c.485.21 1.146.459 1.899.744.14.052.306.118.481.188a49.3 49.3 0 0 1-6.562.94c-3.186.254-6.581.49-9.854.49-3.841 0-7.131-.323-10.08-.997a53.232 53.232 0 0 1-2.187-.552c.175-.083.363-.166.56-.253l.253-.114c.367-.166.792-.329 1.251-.508 3.167-1.233 9.428-3.68 12.556-10.128 2.416 6.209 8.909 8.996 11.683 10.19z"/><defs><path id="a" d="M103.148 33.68c-2.1 2.223-4.817 4.821-8.312 7.749-2.384 1.991-4.791 3.951-7.197 5.911a607.559 607.559 0 0 0-7.902 6.514 6.417 6.417 0 0 0-.735.63c-.065.065-.135.118-.188.179-.25.21-.495.429-.744.644-.109.083-.214.179-.333.258-1.986 1.352-3.753 2.976-5.823 4.218-6.291 3.75-13.725 2.231-19.32-2.03-.534-.46-1.072-.919-1.61-1.37-.053-.048-.109-.096-.162-.145-.008-.009-.022-.017-.03-.026-.464-.394-.928-.788-1.387-1.181-3.233-2.783-6.558-5.496-9.77-8.112-2.231-1.82-4.467-3.64-6.681-5.491-3.5-2.936-6.208-5.53-8.282-7.749h78.476z"/></defs><use xlink:href="#a" overflow="visible" fill="#FFF"/><g><path fill="#66949E" d="M64.004 10.134c-28.968 0-52.449 5.486-52.449 15.304 0 9.835 23.481 15.312 52.449 15.312 28.963 0 52.44-5.478 52.44-15.312 0-9.818-23.477-15.304-52.44-15.304z"/></g><g><defs><path id="b" d="M64.004 16.854c31.011 0 43.952 6.081 45.636 8.588-1.675 2.506-14.608 8.588-45.636 8.588-31.033 0-43.966-6.082-45.641-8.588 1.685-2.507 14.622-8.588 45.641-8.588"/></defs><use xlink:href="#b" overflow="visible" fill="#37B4E2"/><clipPath id="c"><use xlink:href="#b" overflow="visible"/></clipPath><path clip-path="url(#c)" fill="#FFF" d="M40.186 31.716c6.125-2.061 16.275-2.765 22.689-2.787 14.307-.04 19.955 1.334 26.968 4.007 2.262.867 2.397 2.555-.801 3.798-4.432 1.715-9.997 1.522-14.683 1.732-10.255.451-21.376 1.277-31.413-1.282-1.571-.398-7.998-1.151-5.872-3.619.719-.83 1.835-1.416 3.112-1.849z"/></g><g><path fill="#FBB817" d="M114.913 2.223c-1.081-1.072-2.446-1.445-3.054-.835L65.58 47.84l3.898 3.885L115.762 5.27c.608-.609.227-1.975-.849-3.047z"/></g><g><defs><path id="d" d="M73.923 51.417c0 4.419-3.793 8.006-8.479 8.006-4.677 0-8.47-3.587-8.47-8.006 0-4.428 3.793-8.011 8.47-8.011 4.685 0 8.479 3.583 8.479 8.011z"/></defs><use xlink:href="#d" overflow="visible" fill="#626E30"/></g><g><path fill="#66949E" d="M109.641 25.442c-1.675 2.506-14.608 8.588-45.636 8.588-31.033 0-43.966-6.082-45.641-8.588v-.002l-6.808-.002c0 9.835 23.481 15.312 52.449 15.312 28.963 0 52.44-5.478 52.44-15.312h-6.812l.008.004z"/></g></svg>