<svg xmlns="http://www.w3.org/2000/svg" xmlns:xlink="http://www.w3.org/1999/xlink" width="128" height="128" viewBox="0 0 128 128"><path fill="#2F2F2F" d="M122.44 21.546a8.873 8.873 0 0 0-2.615-1.453c-.749-.258-1.837-.585-2.55-.066-.937.671-.315 1.768.442 2.153 1.089.548 2.153 1.236 2.284 2.591.27 2.946-2.112 5.778-5.059 5.762-1.317-.008-2.652.167-3.846-.307-2.706-1.064-7.257-1.318-7.748 2.141-1.682 11.701 17.586 14.921 22.62 3.548 2.026-4.568.843-10.313-2.983-13.895a10.437 10.437 0 0 0-.545-.474z"/><path fill="#FCCBA8" d="M81.69 79.247c-.716-.675-3.557-1.006-4.539-.634-1.33.504-2.701 3.335-3.241 4.498-.786 1.71-1.449 3.945-1.666 5.832-.188 1.616-.766 3.794.09 5.332.974 1.735 2.808 2.161 4.748 1.67 2.688-.688 3.965-2.48 5.656-4.489 1.289-1.535 1.956-2.804 2.095-4.85.131-1.94.405-4.821-1.048-6.311"/><path fill="#FFF" d="M66.041 99.472c-.901 2.063-2.125 3.941-3.847 5.341-1.301 1.052-2.734 1.928-4.24 2.656-5.304 2.554-11.32 3.409-17.127 3.867-5.463.43-10.948.368-16.415.725-13.875.909-17.767-17.369-16.391-27.912.421-3.257 1.153-6.54 2.443-9.572 1.326-3.078 2.832-5.889 4.453-8.635.749 1.068 1.706 1.977 2.696 2.5 1.224.647 3.099 1.146 5.018 1.281-.085.258-.196.487-.27.75-2.059 7.562 10.812 6.826 14.537 6.957 3.855.131 6.393 5.463 9.879 6.925 4.236 1.772 8.365 2.881 12.745 1.146 3.126-1.236 5.075-3.696 6.036-6.863.446-1.494.708-3.033.974-4.563.209-1.121.017-3.663 1.125-4.363 1.367-.872 4.428 3.553 5.141 4.375.54.626 1.121 1.379 1.465 2.132.373.819.004 1.842-.38 2.595-.45.892-.945 1.646-1.67 2.386-2.828 2.902-3.483 6.913-4.125 10.751-.406 2.446-1 5.107-2.047 7.521z"/><path fill="#FCCBA8" d="M23.715 48.864l-8.726 13.62s5.935 4.191 7.333 4.191c1.392 0 2.792 1.048 2.792 1.048s-1.744 4.895 6.286 6.638c8.034 1.743 10.829 2.447 10.829 2.447s5.586 6.634 10.821 6.286c5.242-.352 8.733-4.895 8.733-4.895l3.495-15.012S47.116 48.167 36.99 47.472c-10.128-.704-13.275 1.392-13.275 1.392z"/><g fill="#2F2F2F"><path d="M76.979 63.675c-.16-.119-.311-.242-.458-.364-1.06-.827-2.37-1.449-3.323-2.382-2.255-2.218-5.058-3.81-7.559-5.774-1.478-1.163-2.959-2.382-4.514-3.45-2.095-1.453-4.641-2.12-6.843-3.364-1.645-.925-3.29-1.813-5.001-2.615-2.165-1.011-4.273-1.592-6.605-2.095-1.228-.266-2.333-.61-3.507-1.019-.979-.344-2.108-.237-3.123-.213-1.485.041-2.95.328-4.42.417-.872.057-1.727-.131-2.595-.09-1.318.057-4.391 1.097-4.723-1.015-.106-.663.082-1.481.167-2.136a9.93 9.93 0 0 1 .496-2.055c.372-1.105.802-2.169 1.473-3.102.974-1.326-.647-1.506-1.637-1.105-1.28.516-2.562 1.596-3.516 2.578a13.907 13.907 0 0 0-3.797 8.255c-.197 2.034.794 4.039.556 6.02-.307 2.431-1.858 3.503-3.171 5.378-2.087 2.958-4.207 5.893-6.176 8.93-3.7 5.729-6.982 12.041-7.51 18.957-.888 11.852 2.3 29.482 14.709 34.487 5.423 2.186 14.979.361 20.688.119 7.297-.311 15.347-1.662 22.239-4.015 5.599-1.912 9.933-6.348 13.289-11.066.77-1.088 1.154-2.407 2.488-2.942 1.862-.757 4.002-.553 5.901-1.486 1.953-.962 3.646-2.452 4.927-4.203.614-.827 1.199-1.744 1.543-2.726.319-.95.43-2.194.982-3.037.507-.786 1.621-.835 2.456-.835 6.491 0 9.499-9.749 6.053-14.414-.196-.27-.573-.753-.867-.917-1.183-.663-1.126 1.506-1.331 2.178-.282.904-.961 2.059-2.075 1.94-.95-.106-1.895-1.007-2.586-1.584-.376-.315-.782-.708-1.048-1.134-.507-.81-1.125-1.453-1.776-2.186-.901-.998-1.703-1.993-2.75-2.84-1.236-1.003-2.652-1.875-3.986-2.75-1.081-.712-2.062-1.539-3.07-2.345zM24.161 51.491c2.693-2.542 8.578-1.981 11.848-1.232 7.01 1.608 13.583 5.75 19.935 9.032a35.284 35.284 0 0 1 3.9 2.353c.63.43 1.248.872 1.837 1.338 2.337 1.85-.057 6.495-.61 8.742-1.887 7.698-4.113 9.339-9.949 8.128-5.222-1.085-5.038-4.735-8.627-6.81-2.066-1.191-4.501-1.437-6.842-1.449-2.091-.017-4.584.54-6.561-.328-1.338-.589-1.236-2.193-.938-3.405.352-1.433 1.584-2.64 2.632-3.589 1.85-1.649 4.33-2.329 5.807-4.392.544-.761.262-1.641-.675-1.841-.921-.197-2.19.184-3.07.425-2.091.573-4.097 1.621-5.688 3.094-.749.688-1.461 1.826-2.447 2.19-.986.372-2.308.037-3.307-.131-4.027-.667-2.336-4.293-.884-6.527.741-1.122 1.281-2.349 1.993-3.471.533-.846 1.012-1.525 1.646-2.127zm41.88 47.981c-.901 2.063-2.125 3.941-3.847 5.341-1.301 1.052-2.734 1.928-4.24 2.656-5.304 2.554-11.32 3.409-17.127 3.867-5.463.43-10.948.368-16.415.725-13.875.909-17.767-17.369-16.391-27.912.421-3.257 1.153-6.54 2.443-9.572 1.326-3.078 2.832-5.889 4.453-8.635.749 1.068 1.706 1.977 2.696 2.5 1.224.647 3.099 1.146 5.018 1.281-.085.258-.196.487-.27.75-2.059 7.562 10.812 6.826 14.537 6.957 3.855.131 6.393 5.463 9.879 6.925 4.236 1.772 8.365 2.881 12.745 1.146 3.126-1.236 5.075-3.696 6.036-6.863.446-1.494.708-3.033.974-4.563.209-1.121.017-3.663 1.125-4.363 1.367-.872 4.428 3.553 5.141 4.375.54.626 1.121 1.379 1.465 2.132.373.819.004 1.842-.38 2.595-.45.892-.945 1.646-1.67 2.386-2.828 2.902-3.483 6.913-4.125 10.751-.406 2.446-1 5.107-2.047 7.521zM82.1 87.686c-.496 1.514-1.281 2.873-2.488 4.072-.97.97-2.938 2.349-4.351 2.263-2.554-.155-1.67-4.072-1.047-5.623.458-1.154.679-2.341 1.301-3.438.622-1.105 1.629-2.652 2.856-3.106 1.048-.389 2.799.7 3.552 1.383.671.601.823 1.326.692 2.189a15.11 15.11 0 0 1-.515 2.26z"/><path d="M39.103 89.276c1.576-.563 3.958-2.018 2.857-3.557-.577-.814-2.902-.317-3.839-.458-2.812-.426-4.334-2.333-5.848-4.531-1.126-1.629-1.646-3.927-3.999-4.04-2.967-.145-5.517 2.672-8.181.446-.712-.594-1.072-1.969-2.276-1.433-1.735.774-.892 3.368-.291 4.655.987 2.102 2.84 2.875 5.055 2.94 1.203.037 2.656-.554 3.81-.102 1.445.561 1.878 2.456 3.024 3.407 1.093.915 2.095 1.708 3.454 2.232 1.662.638 3.634.929 5.402.665.222-.03.509-.108.832-.224z"/><circle cx="50.169" cy="67.669" r="4.277"/><path d="M32.088 58.068a3.838 3.838 0 0 1-3.834 3.839 3.84 3.84 0 0 1 0-7.678 3.838 3.838 0 0 1 3.834 3.839z"/></g><defs><path id="a" d="M39.615 36.791c-1.997-.147-3.167-.319-4.878-1.289-1.461-.831-3.344.127-4.76-.794 1.302.855 10.346-6.561 11.549-7.419 15.54-11.116 34.406-19.407 53.785-14.435 6.143 1.576 12.748 4.375 18.044 7.883 1.858 1.224 5.254 3.802 2.807 6.118-1.129 1.072-2.095 1.792-2.963 3.155-.95 1.494-1.653 3.139-2.693 4.576-.929 1.272-1.281.577-2.284.045-6.118-3.25-8.93 6.581-10.031 10.485-1.916 6.777-3.474 14.188-4.125 21.215-.221 2.46.118 5.116-.299 7.563-1.261.294-3.102-2.341-3.88-3.106-1.056-1.044-1.711-2.411-2.836-3.397-1.24-1.089-2.738-1.821-3.995-2.885-3.863-3.278-7.08-7.244-11.336-10.063-4.236-2.812-8.738-5.275-13.096-7.895-3.667-2.194-7.318-4.387-10.973-6.581-1.351-.811-2.374-1.907-3.896-2.357-1.301-.385-2.631-.676-3.978-.802-.056-.005-.105-.009-.162-.017z"/></defs><use xlink:href="#a" overflow="visible" fill="#E75625"/><path fill="#FFF" d="M84.232 78.494c-2.718-1.923-4.555-5.361-6.639-8.05-7.743-9.99-18.973-16.071-30.117-21.539-2.173-1.064-4.408-2.014-6.708-2.771-2.545-.839-5.177-1.473-7.854-1.698-1.248-.106-2.525-.139-3.777-.008-2.586.274-5.918 1.719-5.906-2.222.013-3.393 1.973-7.183 4.875-8.926 5.517-3.323 14.394-.95 20.193.385 8.312 1.915 16.014 6.654 23.176 11.152 7.416 4.657 13.841 11.062 18.903 18.167 2.038 2.865 4.06 6.204 4.403 9.777.246 2.553-.642 5.951-2.914 7.387-2.675 1.693-5.409-.083-7.635-1.654zM119.563 35.579c-2.672 2.255-6.618 2.545-9.908.712-1.494-.827-3.016-1.961-3.712-3.569-.684-1.587-.814-5.124.114-6.629.733-1.204 1.531-2.39 2.697-3.225 2.979-2.128 7.317-1.977 10.448-.221 3.838 2.161 4.219 6.904 2.345 10.465a8.103 8.103 0 0 1-1.984 2.467z"/></svg>