<svg xmlns="http://www.w3.org/2000/svg" width="128" height="128" viewBox="0 0 128 128"><path fill="#2F2F2F" d="M126.67 49.79c-.42-.63-1.15-1-1.91-.98h-.13c-.53 0-2.55-.04-4.92-.53-2.38-.49-5.07-1.45-6.99-3.07-2.44-2.04-4.02-3.89-5.89-5.8-1.86-1.9-4.02-3.79-7.32-5.51-3.32-1.72-7.11-2.52-10.19-2.94-3.09-.42-5.47-.44-5.89-.44h-.07c-.86.01-1.64.5-2 1.27L65.23 65.45 64 67.77l-1.23-2.32L46.64 31.8a2.232 2.232 0 0 0-2-1.27h-.07c-.42 0-2.79.02-5.88.44-3.08.42-6.87 1.22-10.2 2.94-3.3 1.72-5.46 3.61-7.32 5.51-1.87 1.9-3.43 3.75-5.89 5.79-1.92 1.63-4.61 2.58-6.99 3.07-2.38.49-4.39.54-4.92.53h-.13c-.76-.02-1.49.35-1.92.98-.42.62-.5 1.44-.22 2.14l14.34 34.04a2.25 2.25 0 0 0 2.03 1.38h.23c.8 0 3.6-.04 6.89-.63 3.29-.6 7.1-1.68 10-4.19 2.78-2.44 4.43-4.92 6.03-6.89 1.61-2 3.1-3.53 5.84-4.8 2-.93 4.48-1.49 6.79-1.81 2.32-.32 4.45-.38 5.82-.38h.23l1.99 4.23-18.94 35.84a3.392 3.392 0 0 0 3.03 4.9c1.24 0 2.44-.69 3.03-1.88L64 78.62l15.58 33.12a3.373 3.373 0 0 0 3.03 1.88c.5 0 1.03-.12 1.5-.36a3.377 3.377 0 0 0 1.52-4.54L66.69 72.88l2-4.23h.23c1.37 0 3.51.07 5.82.38 2.31.31 4.79.88 6.79 1.81 2.76 1.27 4.23 2.8 5.84 4.8 1.6 1.98 3.25 4.45 6.03 6.89 2.9 2.5 6.71 3.58 10 4.19 3.29.59 6.08.63 6.89.63h.23c.88-.02 1.68-.56 2.03-1.38l14.33-34.04c.3-.7.22-1.51-.21-2.14z"/><path fill="#FFF" d="M55.97 63.75c-.26.25-.58.4-.91.5-.12.04-.33.07-.54.11-.6.06-1.22.13-1.86.22-2.59.36-5.45.98-8.06 2.18-3.54 1.61-5.73 3.87-7.47 6.07-1.77 2.21-3.19 4.31-5.48 6.33-1.78 1.59-4.95 2.64-7.84 3.15-.33.06-.64.11-.96.16h-.13c-1.63 0-3.43-.28-4.44-1.71-.13-.18-.39-.4-.35-.65h-.08L7.95 56.6c-.15-.77-.74-1.48-.55-2.36.19-.9 1-1.38 1.85-1.56l.08-.02c.18-.05.81-.08 1.04-.27 2.54-.64 5.37-1.71 7.8-3.73 2.74-2.29 4.5-4.36 6.21-6.09 1.72-1.74 3.36-3.19 6.19-4.68 2.55-1.34 5.93-2.11 8.72-2.48.28-.04.56-.07.84-.1l1.26-.05c.45.02.92.07 1.33.27.65.32 1.07.91 1.45 1.51l12 25.03.01.03.13.53c.08.49.05.74-.34 1.12zM120.04 56.6l-9.89 23.49h-.08c.04.25-.22.47-.34.65-1.01 1.43-2.82 1.71-4.45 1.71h-.13c-.32-.05-.63-.1-.96-.16-2.88-.5-6.06-1.55-7.83-3.15-2.3-2.01-3.72-4.12-5.49-6.33-1.75-2.2-3.94-4.46-7.47-6.07-2.61-1.19-5.47-1.82-8.06-2.18-.64-.09-1.27-.16-1.87-.22-.2-.04-.42-.07-.54-.11-.32-.11-.65-.26-.91-.5-.38-.38-.42-.63-.33-1.12l.13-.53.01-.03 12-25.03c.38-.6.8-1.19 1.45-1.51.41-.2.88-.25 1.33-.27l1.27.05c.27.03.55.07.84.1 2.79.37 6.17 1.14 8.71 2.48 2.84 1.49 4.48 2.94 6.2 4.68 1.71 1.73 3.47 3.79 6.21 6.09 2.43 2.02 5.27 3.09 7.8 3.73.23.19.86.22 1.04.27l.08.02c.84.18 1.65.66 1.85 1.56.18.9-.41 1.6-.57 2.38z"/><path fill="#EC2214" d="M26.44 49.79c-3.22 2.1-5.5 6.48-5.19 10.57.12 1.6.77 3.44 1.81 4.63 4.3 4.97 12 2.54 14.99-2.44 2.38-3.95 2.63-9.23-1.03-12.45-2.8-2.46-7.53-2.29-10.58-.31zM101.55 49.79c-3.04-1.98-7.78-2.15-10.57.31-3.66 3.22-3.41 8.5-1.04 12.45 2.98 4.97 10.69 7.41 15 2.44 1.03-1.19 1.69-3.03 1.8-4.63.31-4.09-1.96-8.47-5.19-10.57z"/></svg>