<svg xmlns="http://www.w3.org/2000/svg" xmlns:xlink="http://www.w3.org/1999/xlink" width="128" height="128" viewBox="0 0 128 128"><path fill="#FCC21B" d="M121.54 62.9c-.03 26.02-.01 29.53-.01 33.04.01 6.58-2.89 12.13-7.58 16.79-9.53 9.46-22.93 13.52-36.25 14.54-4.47.34-8.99.45-13.47.45s-9-.11-13.47-.45c-13.32-1.02-26.72-5.08-36.25-14.54-4.69-4.66-7.58-10.2-7.58-16.79 0-3.51.01-7.03-.01-33.04h114.62z"/><path fill="#78A3AD" d="M121.6 50.87c-9.08-11.94-23.82-20.97-38.03-23.1-4.21-.63-8.46-.91-12.69-1.14-9.58-.52-19.56-.12-29.07 1.34-10.42 1.6-21.72 6.37-29.92 13.8-2.55 2.31-4.36 5.38-5.8 8.51-3.3 7.21-4.75 15.46-4.75 23.39 0 5.26.86 10.47 5.44 13.39 1.3.83 2.87.77 4.31.46 2.21-.49 3.76-1.58 5.96-.37 3.26 1.78 3.93 5.6 5.73 8.57 3.24 5.33 10.46 7.71 16.16 5.45 5.79-2.29 9.75 3.62 14.5 5.8 5.66 2.59 12.46 1.78 17.87-.98 1.48-.76 2.55-1.86 3.84-2.92 2.46-2.04 5.31-3.26 8.48-3.36 4.2-.13 8.4 1.75 12.56.47 3.43-1.04 5.87-4.16 7.68-7.16 1.54-2.55 2.8-5.83 6.13-6.17 3.35-.33 6.13 2.93 9.59 1.83 6.13-1.95 7.03-10.13 7.1-15.64.09-6.79-.88-14.65-4.14-20.68-.3-.52-.6-1.02-.95-1.49z"/><defs><path id="a" d="M113.43 80.19c-3.21-1.21-6.64-.7-9.37 1.42-3.08 2.4-3.99 6.27-6.29 9.35-2.96 3.95-6.56 2.57-10.75 2.58-3.56 0-7.23.18-10.63 1.39-3.69 1.32-5.54 4.13-8.67 6.22-4.4 2.94-11.66 1.79-15.26-2.02-1.48-1.56-3.35-3.21-5.17-4.29-4.24-2.51-8.23-.43-12.64-.33-2.28.04-4.3-.25-6.01-1.86-1.45-1.37-2.31-3.05-3.31-4.78-1.51-2.62-2.72-5.63-5.06-7.59-3.31-2.76-8.87 1.39-11.25-1.65-.97-1.24-1.11-3.11-1.18-4.64-.38-8.33.77-17.65 5.52-24.59 5.13-7.51 13.85-11.07 21.97-12.93 13.62-3.12 27.78-4.65 41.65-3.15 4.86.52 9.75 1.42 14.43 3.03 4.62 1.59 9.09 3.86 13.13 6.89 2.96 2.22 5.69 4.84 8.04 7.87 4.27 5.53 5.87 12.14 6.17 18.79.13 2.95.48 6.96-1.19 9.57-1.13 1.74-2.62 1.29-4.13.72z"/></defs><use xlink:href="#a" overflow="visible" fill="#FFF"/><path fill="#40C0E7" d="M74.93 42.29c-.09.58-.08 1.2-.08 1.76-.01 1.98-.05 3.96-.1 5.94-.09 3.96-.2 7.91-.2 11.87 0 2.56-1.1 7.94 1.93 9.13 2.93 1.16 6.59.55 6.58-3.63-.01-1.19 0-2.38 0-3.56 0-4.98-.01-9.95 0-14.94 0-1.45-.16-2.87-.15-4.32.01-1.21.05-2.79-.83-3.67-.69-.69-1.71-.84-2.6-.85-1.05-.03-2.49-.18-3.44.37-.71.4-.99 1.12-1.11 1.9z"/><path fill="#ED6C30" d="M74.81 45.81c-1.48-.9-2.67-2.23-3.4-4.03-.51-1.26-.86-2.9-.79-4.27.17-3.29 1.98-6.33 4.32-8.55 1.38-1.32 3.06-2.98 5.02-3.34 4.16-.76 7.07 6.05 7.93 9.12 1.56 5.56-1.63 11.39-7.6 11.95-1.56.15-4.11-.06-5.48-.88z"/><path fill="#FCC21B" d="M76.99 44.63c-.62-.43-1.11-1.08-1.42-1.95-.21-.61-.36-1.41-.33-2.07.07-1.59.83-3.06 1.8-4.14.58-.64 1.28-1.45 2.1-1.62 1.74-.37 2.96 2.93 3.31 4.42.65 2.7-.68 5.52-3.18 5.79-.64.06-1.71-.04-2.28-.43z"/><g><path fill="#40C0E7" d="M97.38 24.96c-.09.58-.08 1.21-.08 1.76-.01 1.99-.05 3.96-.1 5.94-.09 3.96-.2 7.91-.2 11.87 0 2.56-1.1 7.94 1.93 9.13 2.92 1.16 6.6.55 6.58-3.63-.01-1.18 0-2.37 0-3.56 0-4.98-.01-9.94 0-14.94 0-1.45-.16-2.88-.15-4.32.01-1.22.06-2.79-.83-3.67-.69-.69-1.71-.83-2.6-.85-1.05-.03-2.49-.18-3.43.37-.72.4-1.01 1.12-1.12 1.9z"/><path fill="#ED6C30" d="M97.26 28.48c-1.47-.9-2.67-2.23-3.4-4.03-.51-1.26-.85-2.9-.79-4.27.17-3.28 1.99-6.33 4.32-8.55 1.38-1.31 3.06-2.98 5.02-3.33 4.16-.76 7.08 6.05 7.94 9.12 1.56 5.56-1.64 11.39-7.61 11.95-1.56.14-4.12-.07-5.48-.89z"/><path fill="#FCC21B" d="M99.4 27.33c-.62-.4-1.12-1.01-1.43-1.83-.21-.57-.36-1.31-.33-1.93.06-1.5.83-2.87 1.81-3.88.58-.6 1.29-1.36 2.11-1.51 1.75-.35 2.96 2.74 3.33 4.13.65 2.53-.69 5.17-3.19 5.43-.65.06-1.72-.04-2.3-.41z"/></g><g><path fill="#40C0E7" d="M57.97 17c-.09.58-.08 1.21-.08 1.76-.01 1.99-.05 3.96-.1 5.94-.09 3.96-.2 7.91-.2 11.87 0 2.56-1.1 7.94 1.93 9.13 2.93 1.16 6.6.55 6.58-3.63-.01-1.18 0-2.37 0-3.56 0-4.98-.01-9.94 0-14.94 0-1.45-.16-2.88-.15-4.32.01-1.22.05-2.79-.83-3.67-.69-.69-1.71-.83-2.6-.85-1.05-.03-2.49-.18-3.44.37-.71.4-1 1.12-1.11 1.9z"/><path fill="#ED6C30" d="M57.85 20.52c-1.48-.9-2.67-2.23-3.4-4.03-.51-1.26-.86-2.9-.79-4.27.17-3.28 1.98-6.33 4.32-8.55C59.36 2.36 61.04.69 63 .34c4.16-.76 7.07 6.05 7.94 9.12 1.56 5.56-1.63 11.39-7.61 11.95-1.56.15-4.12-.06-5.48-.89z"/><path fill="#FCC21B" d="M60.09 19.37c-.65-.44-1.17-1.12-1.49-2.02-.23-.63-.38-1.46-.34-2.14.07-1.65.87-3.17 1.89-4.28.6-.66 1.34-1.49 2.19-1.67 1.82-.37 3.1 3.03 3.48 4.57.69 2.79-.72 5.71-3.33 5.99-.68.07-1.8-.04-2.4-.45z"/></g><g><path fill="#40C0E7" d="M40.17 40.2c-.09.58-.08 1.2-.08 1.76-.01 1.98-.05 3.96-.1 5.94-.09 3.96-.2 7.91-.2 11.87 0 2.56-1.1 7.94 1.93 9.13 2.92 1.16 6.59.55 6.58-3.63-.01-1.19 0-2.38 0-3.56 0-4.98-.01-9.95 0-14.94 0-1.45-.16-2.87-.15-4.32.01-1.21.05-2.79-.83-3.67-.69-.69-1.7-.84-2.6-.85-1.05-.03-2.49-.18-3.43.37-.72.39-1.01 1.11-1.12 1.9z"/><path fill="#ED6C30" d="M40.04 43.71c-1.48-.9-2.67-2.23-3.4-4.03-.51-1.26-.86-2.9-.79-4.27.17-3.29 1.98-6.33 4.32-8.55 1.38-1.32 3.07-2.98 5.02-3.34 4.16-.76 7.07 6.05 7.94 9.12 1.56 5.56-1.63 11.39-7.6 11.95-1.56.16-4.12-.05-5.49-.88z"/><path fill="#FCC21B" d="M42.2 42.56c-.66-.45-1.19-1.14-1.51-2.06-.23-.65-.39-1.48-.35-2.18.08-1.69.89-3.24 1.92-4.38.62-.68 1.37-1.53 2.24-1.71 1.86-.39 3.16 3.1 3.54 4.67.69 2.85-.73 5.83-3.4 6.12-.69.07-1.83-.04-2.44-.46z"/></g><g><path fill="#40C0E7" d="M20.89 22.27c-.09.59-.08 1.21-.08 1.76-.01 1.98-.05 3.96-.1 5.94-.09 3.95-.2 7.91-.2 11.87 0 2.56-1.1 7.93 1.93 9.13 2.93 1.15 6.6.55 6.58-3.63-.01-1.19 0-2.37 0-3.56 0-4.98-.01-9.95 0-14.94 0-1.45-.16-2.87-.15-4.33.01-1.21.05-2.79-.83-3.67-.69-.69-1.71-.84-2.6-.86-1.05-.02-2.49-.18-3.44.37-.71.41-1 1.14-1.11 1.92z"/><path fill="#ED6C30" d="M20.76 25.78c-1.48-.9-2.67-2.23-3.4-4.02-.51-1.26-.86-2.9-.79-4.27.17-3.29 1.98-6.33 4.32-8.55 1.38-1.32 3.06-2.99 5.02-3.34 4.16-.76 7.07 6.05 7.94 9.12 1.56 5.56-1.63 11.39-7.6 11.95-1.56.14-4.12-.07-5.49-.89z"/><path fill="#FCC21B" d="M23.03 24.59c-.62-.47-1.12-1.17-1.43-2.11-.21-.66-.36-1.52-.33-2.23.07-1.72.83-3.32 1.81-4.48.58-.69 1.29-1.56 2.11-1.75 1.75-.4 2.97 3.17 3.33 4.77.65 2.92-.69 5.96-3.2 6.26-.64.08-1.71-.03-2.29-.46z"/></g><path fill="#78A3AD" d="M112.32 62.89h-.04c-.78-.05-1.95.72-2.4 1.03-1.08.73-2.18 1.43-3.3 2.09a77.66 77.66 0 0 1-6.96 3.61c-4.58 2.07-9.69 3.63-14.64 4.67-17.93 3.76-39.47 2.1-55.63-6.49-2.25-1.2-4.42-2.55-6.45-4.06-.37-.27-.72-.56-1.07-.84-1.03-.81-2.04-1.65-2.98-2.57a5.95 5.95 0 0 0-.56-.48c-.42-.32-.93-.59-1.4-.41-.22.08-.35.24-.43.41-.17.32-.19.73-.17 1.07.05.66.34 1.32.75 1.98 1.5 2.41 4.93 4.67 6.82 5.96 6.66 4.58 14.43 7.54 22.42 9.39 12.02 2.78 24.7 2.89 36.84.74 5.99-1.05 11.76-2.94 17.29-5.29a49.19 49.19 0 0 0 6.64-3.46c1.59-.99 5.66-3.56 6-5.87.05-.36.01-.71-.13-1.04-.13-.28-.34-.4-.6-.44z"/></svg>