<svg xmlns="http://www.w3.org/2000/svg" xmlns:xlink="http://www.w3.org/1999/xlink" width="128" height="128" viewBox="0 0 128 128"><path fill="#CC4079" d="M122.027 87.076c-1.814-1.983-4.389-3.878-5.843-6.131-2.067-3.203-2.504-7.145-4.697-10.29-1.014-1.459-2.363-2.582-3.879-3.403-.225-.46-.471-.971-.706-1.478-.109-.233-.258-.39-.402-.554-2.709 2.094-6.25 3.375-10.288 3.375-4.003 0-7.517-1.261-10.219-3.32-.127.153-.264.288-.361.499-.202.435-.411.869-.61 1.281-1.654.829-3.106 2.035-4.192 3.6-2.19 3.145-2.635 7.086-4.704 10.29-1.46 2.253-4.024 4.148-5.838 6.131-3.208 3.499-6.172 8.01-4.204 12.889 1.393 3.457 4.817 4.938 8.305 4.77a11.23 11.23 0 0 0 3.132-.591c2.06-.709 3.986-1.781 5.712-3.084.863-.65 1.75-1.364 2.458-2.174 1.064-1.207 1.758-2.802 2.739-4.102.375-.494 1.125-1.342 1.861-1.148.646.165.755 1.194.937 1.701.421 1.139 1.694 1.903 2.827 2.072.741.114 1.425.181 2.102.203a17.358 17.358 0 0 0 2.102-.203c1.131-.169 2.397-.933 2.819-2.072.184-.507.295-1.537.937-1.701.751-.194 1.494.654 1.874 1.148.971 1.3 1.671 2.895 2.735 4.102.713.81 1.586 1.523 2.447 2.174 1.73 1.304 3.661 2.375 5.712 3.084 1.333.456 2.732.633 4.096.578 3.14-.126 6.077-1.616 7.343-4.756 1.976-4.88-.987-9.391-4.195-12.89z"/><path fill="#37B4E2" d="M57.709 87.144c-1.812-1.983-4.379-3.878-5.838-6.132-2.069-3.203-2.507-7.145-4.696-10.289-.917-1.316-2.129-2.325-3.464-3.125-.129-.316-.669-1.659-1.178-3-2.783 2.333-6.554 3.749-10.861 3.749-4.222 0-7.921-1.373-10.689-3.627a155.56 155.56 0 0 1-1.182 3.011c-1.235.751-2.378 1.673-3.296 2.992-2.177 3.144-2.623 7.086-4.688 10.289-1.456 2.253-4.03 4.148-5.845 6.132-3.208 3.499-6.166 8.01-4.195 12.889 1.393 3.457 4.811 4.938 8.301 4.769a11.346 11.346 0 0 0 3.133-.591c2.054-.709 3.984-1.781 5.708-3.085.861-.65 1.747-1.363 2.454-2.173 1.065-1.207 1.764-2.803 2.745-4.103.369-.494 1.123-1.342 1.863-1.148.644.165.753 1.194.937 1.701.425 1.139 1.688 1.903 2.828 2.072.734.114 1.422.182 2.096.203a17.27 17.27 0 0 0 2.1-.203c1.131-.169 2.399-.933 2.828-2.072.188-.507.297-1.537.937-1.701.745-.194 1.49.654 1.859 1.148.985 1.3 1.684 2.896 2.743 4.103.717.81 1.595 1.523 2.454 2.173 1.73 1.304 3.654 2.375 5.716 3.085 1.321.456 2.726.633 4.085.578 3.146-.126 6.086-1.617 7.352-4.756 1.965-4.879-.993-9.39-4.207-12.889z"/><path fill="#FFF" d="M40.872 92.141c2.083 3.617 5.402 7.288 9.755 8.077 1.207.22 2.988.203 4.02-.578 1.129-.861 1.063-2.912.667-4.106-.369-1.11-2.178-2.401-3.21-2.883-1.525-.709-3.028-1.418-4.42-2.414-2.089-1.507-3.347-3.756-5.474-5.195-1.203-.815-2.418-1.081-2.8.983-.39 2.094.43 4.335 1.462 6.116z"/><path fill="#005792" d="M50.545 104.143c-2.062-.709-3.986-1.781-5.716-3.084-.859-.65-1.737-1.364-2.454-2.174-1.059-1.207-1.758-2.802-2.743-4.102-.369-.494-1.114-1.342-1.859-1.148-.639.165-.749 1.194-.937 1.701-.428 1.139-1.696 1.903-2.827 2.072-.743.114-1.424.181-2.1.203a17.042 17.042 0 0 1-2.095-.203c-1.139-.169-2.403-.933-2.828-2.072-.184-.507-.293-1.537-.937-1.701-.741-.194-1.495.654-1.864 1.148-.981 1.3-1.68 2.895-2.745 4.102-.707.81-1.593 1.523-2.454 2.174-1.724 1.304-3.655 2.375-5.708 3.084-1.015.351-2.085.54-3.134.591.255.734.713 1.43 1.435 2.059.15.135.349.228.534.337 1.148.684 2.779.954 4.051 1.165 9.034 1.523 18.527 1.351 27.662.772 3.284-.207 7.103-.519 9.513-2.718.304-.274.591-.574.853-.92.168-.232.316-.468.438-.709a11.17 11.17 0 0 1-4.085-.577z"/><path fill="#FFF" d="M24.411 86.026c-.381-2.064-1.603-1.798-2.8-.983-2.127 1.439-3.385 3.688-5.478 5.195-1.384.996-2.888 1.705-4.417 2.414-1.029.481-2.844 1.772-3.213 2.883-.39 1.194-.462 3.245.667 4.106 1.03.781 2.811.798 4.024.578 4.349-.789 7.675-4.46 9.751-8.077 1.03-1.782 1.856-4.023 1.466-6.116z"/><defs><path id="a" d="M6.553 122.695c0 .979.81 1.777 1.778 1.777h46.417c.979 0 1.781-.797 1.781-1.777v-8.373c0-.979-.802-1.776-1.781-1.776H8.332c-.968 0-1.778.797-1.778 1.776v8.373z"/></defs><clipPath id="b"><use xlink:href="#a" overflow="visible"/></clipPath><g clip-path="url(#b)"><path fill="#CC4079" d="M6.365 111.938h8.373v13.205H6.365z"/><path fill="#E75625" d="M14.738 111.938h8.371v13.205h-8.371z"/><path fill="#626E30" d="M23.109 111.938h8.358v13.205h-8.358z"/><g><path fill="#CC4079" d="M31.467 111.938h8.373v13.205h-8.373z"/><path fill="#E75625" d="M39.84 111.938h8.367v13.205H39.84z"/><path fill="#626E30" d="M48.207 111.938h8.373v13.205h-8.373z"/></g></g><defs><path id="c" d="M45.303 54.26c0 7.064-6.069 11.859-13.566 11.859-7.48 0-13.553-4.794-13.553-11.859s6.073-13.733 13.553-13.733c7.497 0 13.566 6.668 13.566 13.733z"/></defs><use xlink:href="#c" overflow="visible" fill="#FFF"/><path fill="#2F2F2F" d="M23.092 55.361a2.417 2.417 0 0 1 1.066-2.051c.81-.561 2.238-.582 3.125-.156 1.18.569 1.553 2.076 1.026 3.199-.68 1.464-2.579 1.882-3.976 1.14-.804-.427-1.228-1.241-1.241-2.132zM40.397 55.361a2.416 2.416 0 0 0-1.07-2.051c-.802-.561-2.237-.582-3.119-.156-1.186.569-1.557 2.076-1.025 3.199.678 1.464 2.574 1.882 3.974 1.14.803-.427 1.224-1.241 1.24-2.132z"/><path fill="#2F2F2F" d="M44.729 41.751c-2.127-2.811-5.409-4.401-8.626-5.229-1.181-.304-3.224-.304-4.366.599-1.129-.903-3.163-.903-4.355-.599-4.497 1.152-9.228 4.524-10.396 9.454a12.974 12.974 0 0 0-.264 4.482c.104.895.144 2.347.981 2.866.109.063.506.122.506.122s1.063-1.426 2.604-2.351c3.25-1.958 5.394-3.274 6.47-4.093 1.809-1.367 2.8-2.583 3.697-3.836 1.021-1.418 1.891.536 2.6 1.325 2.893 3.224 5.081 3.549 8.576 6.229.253.19 3.121 2.735 3.121 2.735s.306-.004.507-.13c.846-.519 1.023-2.254 1.133-3.148.176-1.496-.221-5.831-2.188-8.426z"/><path fill="#2F2F2F" d="M36.858 31.994C38.92 23.528 39.14 11.387 38.72 7.9c-.257-2.11-2.583-2.709-4.347-2.938-2.349-.299-4.906-.43-7.158.389-.989.355-2.215 1.422-2.357 2.549-.42 3.482-.2 15.59 1.868 24.055-3.269.443-6.525 1.785-6.696 5.567-.034.797.163 1.452.534 1.988.591.865 1.61 1.414 2.828 1.734 2.195.586 4.548.827 6.812.485.557-.084 1.038-.253 1.534-.464.5.211.988.38 1.547.464 2.262.342 4.608.101 6.82-.485 1.196-.321 2.229-.869 2.817-1.734.365-.536.568-1.19.534-1.988-.17-3.705-3.202-5.047-6.598-5.528z"/><path fill="#FBB817" d="M34.886 92.841c-.125.971-1.053 1.764-2.074 1.764h-2.144c-1.013 0-1.95-.793-2.079-1.764l-2.471-18.404c-.126-.966.591-1.76 1.604-1.76h8.043c1.011 0 1.73.793 1.604 1.76l-2.483 18.404z"/><g><path fill="#FFF" d="M105.111 92.141c2.093 3.617 5.412 7.288 9.764 8.077 1.205.22 2.99.203 4.021-.578 1.129-.861 1.053-2.912.663-4.106-.367-1.11-2.173-2.401-3.211-2.883-1.53-.709-3.03-1.418-4.415-2.414-2.093-1.507-3.351-3.756-5.478-5.195-1.199-.815-2.414-1.081-2.802.983-.389 2.094.436 4.335 1.458 6.116z"/><path fill="#724941" d="M114.784 104.143c-2.051-.709-3.982-1.781-5.712-3.084-.861-.65-1.734-1.364-2.447-2.174-1.064-1.207-1.764-2.802-2.735-4.102-.38-.494-1.123-1.342-1.874-1.148-.642.165-.753 1.194-.937 1.701-.422 1.139-1.688 1.903-2.819 2.072-.745.114-1.428.181-2.102.203a17.207 17.207 0 0 1-2.102-.203c-1.133-.169-2.406-.933-2.827-2.072-.182-.507-.292-1.537-.937-1.701-.736-.194-1.486.654-1.861 1.148-.981 1.3-1.675 2.895-2.739 4.102-.708.81-1.595 1.523-2.458 2.174-1.726 1.304-3.652 2.375-5.712 3.084-1.004.351-2.077.54-3.132.591.26.734.713 1.43 1.435 2.059.152.135.353.228.54.337 1.146.684 2.777.954 4.043 1.165 9.035 1.523 18.527 1.351 27.667.772 3.279-.207 7.099-.519 9.504-2.718.302-.274.589-.574.853-.92.17-.232.32-.468.447-.709a11.247 11.247 0 0 1-4.095-.577z"/><path fill="#FFF" d="M88.662 86.026c-.388-2.064-1.604-1.798-2.802-.983-2.127 1.439-3.384 3.688-5.484 5.195-1.388.996-2.886 1.705-4.408 2.414-1.038.481-2.845 1.772-3.216 2.883-.391 1.194-.466 3.245.667 4.106 1.027.781 2.811.798 4.018.578 4.347-.789 7.67-4.46 9.757-8.077 1.03-1.782 1.857-4.023 1.468-6.116z"/><g><defs><path id="d" d="M109.992 77.501c.43-.296.614-.966.414-1.494 0 0-2.203-5.828-13.522-6.162-10.99-.325-14.748 5.676-14.748 5.676-.287.469-.171 1.088.253 1.38L95.87 86.05c.435.292 1.131.292 1.565 0l12.557-8.549z"/></defs><use xlink:href="#d" overflow="visible" fill="#FBB817"/></g><g><defs><path id="e" d="M71.325 122.695c0 .979.793 1.777 1.773 1.777h46.414c.977 0 1.781-.797 1.781-1.777v-8.373c0-.979-.804-1.776-1.781-1.776H73.098c-.979 0-1.773.797-1.773 1.776v8.373z"/></defs><clipPath id="f"><use xlink:href="#e" overflow="visible"/></clipPath><g clip-path="url(#f)"><path fill="#CC4079" d="M71.137 111.938h8.367v13.205h-8.367z"/><path fill="#E75625" d="M79.504 111.938h8.369v13.205h-8.369z"/><path fill="#626E30" d="M87.873 111.938h8.369v13.205h-8.369z"/><g><path fill="#CC4079" d="M96.242 111.938h8.365v13.205h-8.365z"/><path fill="#E75625" d="M104.606 111.938h8.364v13.205h-8.364z"/><path fill="#626E30" d="M112.971 111.938h8.373v13.205h-8.373z"/></g></g></g><g><defs><path id="g" d="M82.796 54.703c0 6.989 6.001 11.732 13.417 11.732 7.402 0 13.405-4.744 13.405-11.732 0-6.989-6.003-13.585-13.405-13.585-7.416 0-13.417 6.596-13.417 13.585z"/></defs><use xlink:href="#g" overflow="visible" fill="#FFF"/><path fill="#2F2F2F" d="M123.53 48.794c0-12.408-14.408-18.527-14.408-18.527l-.044.051c-3.146-2.135-7.738-3.49-12.865-3.49-5.136 0-9.728 1.355-12.872 3.49l-.049-.051s-14.408 6.119-14.408 18.527c0 10.293 13.471 13.184 13.741 13.239 3.573 1.342 8.346 2.169 13.604 2.169 5.296 0 10.089-.836 13.669-2.191 1.317-.303 13.632-3.379 13.632-13.217z"/><defs><path id="h" d="M82.796 54.703c0 6.989 6.001 11.732 13.417 11.732 7.402 0 13.405-4.744 13.405-11.732 0-6.989-6.003-13.585-13.405-13.585-7.416 0-13.417 6.596-13.417 13.585z"/></defs><use xlink:href="#h" overflow="visible" fill="#FFF"/><defs><path id="i" d="M103.737 35.758c-1.665-.435-3.566-.528-4.701-.663-2.769-.329-5.453-.502-8.247-.207-1.181.126-2.388.182-3.539.553-1.374.452-2.017 1.194-2.217 2.642-.312 2.372 1.046 4.376 3.028 5.55 2 1.182 5.193 1.924 8.322 1.924 1.638 0 9.861-.312 10.595-6.419.243-1.945-1.344-2.886-3.241-3.38z"/></defs><use xlink:href="#i" overflow="visible" fill="#2F2F2F"/><path fill="#2F2F2F" d="M104.86 55.526a2.415 2.415 0 0 0-1.064-2.051c-.81-.565-2.237-.586-3.123-.156-1.181.569-1.555 2.072-1.032 3.195.684 1.464 2.585 1.882 3.976 1.144.803-.427 1.234-1.241 1.243-2.132zM87.555 55.526a2.414 2.414 0 0 1 1.063-2.051c.81-.565 2.236-.586 3.125-.156 1.18.569 1.553 2.072 1.03 3.195-.684 1.464-2.574 1.882-3.976 1.144-.802-.427-1.228-1.241-1.242-2.132z"/><g><defs><path id="j" d="M104.564 24.478c-.208-.447-.332-.895-.304-1.342.078-1.147 1.688-1.587 2.499-2.131 2.589-1.764 5.258-4.588 6.166-7.647.713-2.397-1.026-5.423-3.769-4.828-2.025.439-3.224 2.241-3.992 4.026-.414.988-.73 2.013-1.03 3.043-.314 1.085-.837 2.106-1.283 3.144-.31.713-.667 1.701-1.396 2.084-.665.346-1.406.169-1.87-.4-.578-.713-.372-1.541-.253-2.368.101-.671.253-1.334.397-1.996.183-.849.278-1.709.443-2.566.468-2.486.832-5.87-.604-8.116-.793-1.245-1.966-1.84-3.438-1.853-3.847-.029-4.21 4.208-4.083 7.103.1 2.093.445 4.178.929 6.212.2.844.498 1.717.354 2.591-.228 1.333-1.621 1.789-2.695.966-.58-.447-.969-1.114-1.29-1.769-.689-1.435-1.186-2.983-1.681-4.499a19.256 19.256 0 0 0-.65-1.735c-.757-1.73-1.958-3.443-3.914-3.87-2.751-.595-4.492 2.431-3.773 4.828.901 3.06 3.574 5.883 6.174 7.647.747.51 1.954.831 2.359 1.726.515 1.126-.532 2.52-1.097 3.418-.802 1.249-1.53 2.579-1.73 4.072-.312 2.368 1.046 4.376 3.028 5.546 2 1.186 5.193 1.924 8.322 1.924 1.638 0 9.861-.312 10.595-6.415.16-1.312-.17-2.621-.66-3.832-.361-.912-1.275-1.93-1.754-2.963z"/></defs><use xlink:href="#j" overflow="visible" fill="#FBB817"/></g></g></g></svg>