<svg xmlns="http://www.w3.org/2000/svg" xmlns:xlink="http://www.w3.org/1999/xlink" width="128" height="128" viewBox="0 0 128 128"><path fill="#757F3F" d="M77.67 5.04c7.67 6.7 8.45 18.34 1.75 26-6.69 7.66-18.34 8.45-26 1.75-7.67-6.7-8.45-18.34-1.76-26 6.7-7.67 18.35-8.45 26.01-1.75z"/><defs><path id="a" d="M83.83 18.94c.02 10.21-8.24 18.49-18.45 18.51-10.2.02-18.49-8.24-18.51-18.44C46.85 8.81 55.11.51 65.32.5 75.52.48 83.8 8.74 83.83 18.94z"/></defs><defs><path id="b" d="M84.78 24.55c-3.09-9.7 2.27-20.07 11.96-23.15 9.7-3.09 20.07 2.27 23.16 11.96 3.1 9.7-2.27 20.07-11.97 23.15-9.69 3.1-20.06-2.26-23.15-11.96z"/></defs><use xlink:href="#b" overflow="visible" fill="#ED6C30"/><defs><path id="c" d="M120.92 18.94c.01 10.21-8.25 18.49-18.45 18.51-10.21.02-18.49-8.24-18.52-18.44C83.93 8.81 92.19.51 102.4.5c10.21-.02 18.49 8.24 18.52 18.44z"/></defs><use xlink:href="#c" overflow="visible" fill="#ED6C30"/><g><path fill="#006CA2" d="M47.12 18.91c0 10.18-8.25 18.43-18.44 18.43-10.17 0-18.43-8.25-18.43-18.43S18.51.48 28.68.48c10.19 0 18.44 8.26 18.44 18.43z"/><path fill="#006CA2" d="M47.2 18.93c.02 10.21-8.24 18.49-18.44 18.51-10.21.02-18.5-8.23-18.52-18.44C10.22 8.79 18.48.5 28.68.48 38.89.46 47.18 8.72 47.2 18.93z"/><path fill="#FCC21B" d="M56.19 18.79c8.58 7.5 9.47 20.53 1.96 29.11-7.49 8.58-20.53 9.46-29.11 1.96-8.58-7.5-9.46-20.53-1.96-29.11 7.5-8.58 20.52-9.46 29.11-1.96z"/><defs><path id="d" d="M63.08 34.36c.03 11.42-9.22 20.7-20.66 20.72-11.41.02-20.7-9.23-20.72-20.65-.02-11.42 9.23-20.7 20.65-20.73 11.43-.01 20.7 9.23 20.73 20.66z"/></defs><clipPath id="e"><use xlink:href="#d" overflow="visible"/></clipPath><path clip-path="url(#e)" fill="#FFF" d="M44.28 8.38c1.98 1.73-2.48 10.1-9.99 18.68-7.49 8.58-15.17 14.13-17.17 12.39-1.98-1.74 2.48-10.1 9.98-18.68C34.6 12.2 42.29 6.65 44.28 8.38z"/><g><defs><path id="f" d="M70.99 19.28c8.33-7.68 21.31-7.16 28.99 1.17 7.69 8.33 7.16 21.31-1.18 28.99-8.33 7.69-21.31 7.15-28.99-1.18-7.68-8.32-7.15-21.3 1.18-28.98z"/></defs><use xlink:href="#f" overflow="visible" fill="#F79329"/><g><defs><path id="g" d="M93.64 53.09c-10.29 4.82-22.53.39-27.35-9.9-4.82-10.29-.39-22.53 9.89-27.35 10.3-4.82 22.55-.39 27.36 9.89 4.83 10.29.39 22.53-9.9 27.36z"/></defs><use xlink:href="#g" overflow="visible" fill="#855C52"/><clipPath id="h"><use xlink:href="#g" overflow="visible"/></clipPath><path clip-path="url(#h)" fill="#FFF" d="M106.13 42.68c1.69-1.55-3.18-9.57-10.86-17.89C87.6 16.46 80 10.97 78.32 12.52l7.17-6.61c1.69-1.55 9.27 3.94 16.96 12.27 7.68 8.33 12.53 16.34 10.85 17.9l-7.17 6.6zM59.43 29.94c1.93-1.77 9.72 3.53 17.4 11.86 7.68 8.33 12.34 16.53 10.41 18.3-1.93 1.78-9.73-3.53-17.4-11.86-7.68-8.33-12.34-16.52-10.41-18.3z"/></g></g><g><path fill="none" d="M63.11 34.2c.02 11.3-9.12 20.47-20.42 20.49-11.29.02-20.46-9.12-20.49-20.42-.02-11.3 9.12-20.47 20.42-20.49 11.29-.02 20.46 9.12 20.49 20.42z"/></g><g><path fill="#2F2F2F" d="M86.91 52.71C86.94 65.56 76.54 76 63.69 76.03c-12.85.02-23.29-10.38-23.31-23.23-.03-12.85 10.37-23.29 23.22-23.31 12.85-.03 23.3 10.37 23.31 23.22z"/></g><g><path fill="#FCC21B" d="M66.69 94.75c-4.39-1.91-8.78-3.82-13.16-5.73-4.22-1.83-8.43-3.67-12.65-5.5-3.84-1.67-7.67-3.33-11.51-5-3.25-1.41-6.49-2.82-9.72-4.23-2.44-1.06-4.88-2.12-7.3-3.18-1.11-.48-2.15-.99-3.22-1.49-.79-.37-1.84-.79-2.72-.55-.82.22-1.24 1.07-1.17 1.86.03.37.18.68.39.95.8.98 2.08 1.45 3.16 2.02 1.32.7 2.67 1.34 4.01 2.02 2.77 1.4 5.56 2.81 8.34 4.21 3.51 1.77 7.01 3.54 10.52 5.32 4.03 2.03 8.04 4.05 12.05 6.08 4.3 2.17 8.6 4.34 12.91 6.51 4.36 2.21 14.96 7.57 19.34 9.78.76.39 1.31.66 2.08 1.04.14-.01.49.07.55-.07.11-.25-.14-.53-.12-.77-.8-2.35.82-5.1 2.92-6.08.15-.12.35-.19.32-.44-.01-.11-.08-.19-.16-.26-2.75-1.19-12.1-5.3-14.86-6.49z"/><path fill="#855C52" d="M120.01 118.04c-2.62-1.51-5.53-2.51-8.3-3.72-2.95-1.28-5.89-2.56-8.83-3.84-3.62-1.58-7.25-3.15-10.88-4.73-3.88-1.69-7.76-3.38-11.64-5.06-.64-.14-1-.19-1.63-.03-.39.1-.69.21-1.03.43-.64.42-1.17 1.08-1.46 1.78-.38.94-.61 1.99-.42 2.98.25 1.33.75 2.28 2.2 3.01 1.45.73 2.89 1.46 4.33 2.18 3.84 1.94 7.67 3.88 11.51 5.81 3.24 1.63 6.48 3.27 9.72 4.9 2.42 1.22 4.84 2.44 7.26 3.67 2.46 1.24 5.11 2.57 7.95 1.91 1.98-.46 3.53-2.07 3.89-4.07.41-2.3-.69-4.09-2.67-5.22z"/></g></g><g><path fill="#FFF" d="M67.42 38.04c1.52 3.49.12 8.6-4.84 11.22-7.52 4.05-15.07-.45-13.4-7.95 1.12-5.02 6.24-7.94 10.56-7.91 3.4.06 6.48 1.9 7.68 4.64z"/></g><path fill="#2F2F2F" d="M60.19 38.77c.2-.8.04-1.58-.54-2.17-1.14-1.15-3.32-.94-5.3.47-2.02 1.44-2.87 3.43-1.95 4.81.46.7 1.24 1.04 2.17 1.06-.51 1.18-.5 2.47.18 3.5 1.37 2.09 4.49 2.13 7.24-.05 2.66-2.12 3.22-4.95 1.53-6.61-.86-.86-2.05-1.16-3.33-1.01zm-3.4 1.48c-.82.56-1.7.55-2.13-.01-.42-.58-.14-1.4.67-1.97.8-.58 1.71-.63 2.17-.09.46.52.25 1.32-.5 1.92-.04.04-.08.05-.12.09-.02.01-.05.04-.09.06zm1.42 1.53c.97-.72 2.1-.76 2.74-.03.66.72.42 1.85-.6 2.63-1.03.8-2.23.77-2.84-.02-.58-.78-.27-1.87.7-2.58z"/></svg>