<svg xmlns="http://www.w3.org/2000/svg" xmlns:xlink="http://www.w3.org/1999/xlink" width="128" height="128" viewBox="0 0 128 128"><defs><path id="a" d="M2.96 92.72c-.67 0-1.32-.29-1.77-.84-.79-.97-.64-2.4.34-3.19L107.82 2.77a2.27 2.27 0 0 1 3.19.34c.79.97.64 2.4-.34 3.19L4.37 92.21c-.42.34-.92.51-1.41.51z"/></defs><use xlink:href="#a" overflow="visible" fill="#78A3AD"/><clipPath id="b"><use xlink:href="#a" overflow="visible"/></clipPath><g clip-path="url(#b)"><path fill="#ED6C30" d="M25.88 74.41c-.71 0-1.41-.31-1.88-.9-.84-1.04-.67-2.56.36-3.4l89.08-71.86c1.03-.84 2.56-.67 3.4.36.84 1.04.67 2.56-.37 3.4L27.39 73.87c-.45.37-.98.54-1.51.54z"/></g><g><defs><path id="c" d="M22.38 90.84c-3.17 2.56-9.25.27-13.6-5.1-4.34-5.37-5.3-11.8-2.14-14.35 3.16-2.56 9.25-.27 13.59 5.1 4.35 5.36 5.3 11.79 2.15 14.35z"/></defs><use xlink:href="#c" overflow="visible" fill="#78A3AD"/></g><path fill="#2F2F2F" d="M95.1 3.58c-2.31.31-4.6.75-6.75 1.76-1.37.64-2.46 1.76-3.32 2.99-1.28 1.81-1.99 4.75-1.18 6.88.06.13.11.27.18.4.72 1.34 2.26 2.27 3.77 2.36 1.63.1 5.01-1.57 4.63-3.61-1.46-.12-3.36.66-4.18-1.05-.86-1.79.9-3.32 2.19-4.23 3.44-2.43 7.84-1.46 11.65-2.63 1.22-.38 6.27-2.66 4.26-4.49-.97-.88-3.46.44-4.55.67-2.19.46-4.46.64-6.7.95z"/><path fill="#2F2F2F" d="M87.06 15.62c-.02.03-.03.07-.05.11-1.88 4.23 1.18 7.01 5.09 7.67 2.22.38 3.28-1.34 4.52-2.82 1.44-1.72 3.26-2.91 5.03-4.27 2.31-1.77 4.48-3.75 6.91-5.36.74-.49 1.46-1.05 2.25-1.41 2.6-1.18 3.73-3.94 1.94-6.45-.74-1.06-1.98-1.89-3.19-2.32-1.58-.57-3.3-.25-4.53.9-1.78 1.65-3.09 3.63-5.03 5.17-2.93 2.33-6.38 5.12-9.9 6.51-1.41.56-2.36.85-3.04 2.27z"/><g><defs><path id="d" d="M39.37 127.51c-.48 0-.97-.15-1.38-.47a2.282 2.282 0 0 1-.41-3.18l83.33-108.34c.77-.99 2.18-1.18 3.18-.41.99.76 1.18 2.19.42 3.18L41.17 126.62c-.45.58-1.11.89-1.8.89z"/></defs><use xlink:href="#d" overflow="visible" fill="#78A3AD"/><clipPath id="e"><use xlink:href="#d" overflow="visible"/></clipPath><path clip-path="url(#e)" fill="#ED6C30" d="M57.33 104.3c-.5 0-1.02-.16-1.45-.5a2.372 2.372 0 0 1-.42-3.33l68.57-89c.8-1.04 2.3-1.24 3.33-.43 1.04.8 1.23 2.29.44 3.33l-68.58 89a2.4 2.4 0 0 1-1.89.93z"/><g><defs><path id="f" d="M58.35 121.09c-2.48 3.22-8.92 2.42-14.41-1.8-5.47-4.21-7.91-10.23-5.43-13.46 2.47-3.23 8.92-2.42 14.4 1.79 5.49 4.21 7.92 10.24 5.44 13.47z"/></defs><use xlink:href="#f" overflow="visible" fill="#78A3AD"/></g><path fill="#2F2F2F" d="M108.73 19.28c-2.18.84-4.29 1.8-6.15 3.29-1.18.94-1.99 2.29-2.54 3.68-.82 2.06-.83 5.08.46 6.96.08.12.18.24.27.35 1.01 1.13 2.73 1.68 4.21 1.42 1.62-.29 4.51-2.7 3.67-4.59-1.45.22-3.11 1.42-4.31-.05-1.26-1.54.1-3.43 1.14-4.62 2.79-3.16 7.29-3.25 10.72-5.27 1.1-.65 5.48-4.05 3.09-5.36-1.14-.63-3.25 1.23-4.26 1.71-2.03.95-4.2 1.66-6.3 2.48z"/><path fill="#2F2F2F" d="M103.72 32.87c-.01.04-.01.08-.02.11-.85 4.56 2.77 6.54 6.73 6.27 2.24-.15 2.88-2.07 3.73-3.8 1-2.01 2.49-3.59 3.9-5.32 1.84-2.27 3.48-4.69 5.48-6.83.6-.65 1.16-1.36 1.85-1.9 2.25-1.75 2.7-4.7.39-6.72-.98-.85-2.38-1.37-3.65-1.51-1.67-.19-3.27.53-4.2 1.93-1.34 2.02-2.15 4.25-3.69 6.2-2.31 2.95-5.02 6.47-8.11 8.64-1.22.87-2.08 1.38-2.41 2.93z"/></g></svg>