<svg xmlns="http://www.w3.org/2000/svg" xmlns:xlink="http://www.w3.org/1999/xlink" width="128" height="128" viewBox="0 0 128 128"><path fill="#FFF" d="M89.19 51.38c-1.81 1.95-4.03 3.44-5.67 5.35-1.71 2-3.86 3.15-5.59 4.91-2.32 2.33-6.84 4.8-7.78 8.2-.52 1.91-.08 4.48-.09 6.46-.01 3.08.37 6.17.88 9.2 1.2 7.01 1.29 14.37 3.39 21.2 1.21 3.93 1.41 9.67 4.9 12.6 3.06 2.56 8.04 2.21 11.37.42 5.8-3.13 9.96-7.45 14.54-12.16 2.69-2.76 5.59-5.15 8.21-7.96 1.2-1.29 2.37-2.6 3.51-3.94 1.02-1.19 1.7-2.22 2.6-3.43.81-1.08 2-1.55 2.76-2.7.7-1.06 1.24-2.42 1.62-3.6 1.07-3.31 1.04-6.88 1.41-10.3.44-4.09.33-8.28.34-12.45.02-6.09-.91-11.63-2.79-17.42-1.3-4.02-3.56-7.9-7.69-9.49-3.88-1.49-8.02-.26-11.19 2.21-4.52 3.51-9.14 7.31-13.21 11.34-.52.5-1.02 1.02-1.52 1.56z"/><defs><path id="a" d="M63.93 122.23c2.21.23 4.44.14 6.65.23 1.24.05 2.61.31 3.77-.28 3.72-1.88 2.11-7.72 1.28-10.79-1.38-5.11-1.43-10.75-3.05-15.72-1.37-4.22-1.44-8.68-1.94-13.05-.36-3.11-.43-6.83-2.31-9.48-1.74-2.48-5.62-3.55-8.32-4.63-3.15-1.26-6.65-1.87-9.94-2.6-4.84-1.07-9.56-2.66-14.43-3.55-1.7-.31-3.07.02-4.73.04-1.9.02-3.74-.82-5.54-1.32-5.43-1.5-16.84-7.24-19.39 1.17-2.6 8.58 1.82 17.39 5.05 25.11 2.22 5.31 2.74 10.99 5.12 16.16 1.79 3.88 4.43 6.83 8.49 8.63 7.64 3.37 16.06 5.45 24.31 7 5.09.94 9.88 2.55 14.98 3.08z"/></defs><use xlink:href="#a" overflow="visible" fill="#FFF"/><path fill="#FFF" d="M42.52 8.06c-4.04 1.7-7.98 4.05-11.91 7.22-1.86 1.5-4.06 2.48-6.04 3.83C15.29 25.48 6.54 36.06 6.2 47.97c-.27 10.01 15.16 12.4 22.32 13.67 11.47 2.02 25.76 6.46 37.19 4.84 8.04-1.14 13.65-6.41 20-10.97 9.1-6.54 18.25-14.29 24.5-23.71 1.89-2.85 2.78-7.37 1.08-10.51-1.81-3.34-4.01-5.33-7.02-7.52-4.35-3.17-9.52-4.86-14.65-6.14-1.76-.44-3.41-.82-5.13-1.18-4.2-.87-8.23-1.38-12.56-1.75-10.98-.94-20.45-.4-29.41 3.36z"/><path fill="#2F2F2F" d="M127.12 55.14c-.33-10.75-1.33-21.92-7.21-31.44-4.98-8.06-12.72-12.53-21.34-15.67-4.74-1.74-9.7-3.19-14.65-4.23-10.56-2.21-23.5-4.77-34.07-1.95-9.88 2.63-18.78 9.4-26.63 15.82C13.42 25.69 2.47 35.75.86 49.14-1.29 67.13 2.09 72.26 8.02 88.8c2.72 7.59 7.31 21.53 15.02 25.07 8 3.67 24.72 8.54 33.35 10 9.34 1.58 20.73 4.81 28.96 2.96 9.4-2.11 17.92-11.17 24.82-17.69 6.31-5.96 12.29-10.53 15.03-17.79 3.99-10.54 2.26-25.07 1.92-36.21zM17.71 31.54c8.67-8.76 20.5-19.88 33.99-23.38 8.47-2.2 17.49-1.76 25.93-.07 8.65 1.73 21.58 4.86 27.92 11.48 4.42 4.61 2.97 11.76-1.75 15.76-9.39 7.97-27.91 25.26-35.58 27.4-2.66.75-6.53.78-8.96.69-5.05-.17-28.37-5.73-41-10.42-4.21-1.56-7.35-3.06-7.95-7.01-.62-4.13 3.37-10.37 7.4-14.45zm53.87 88.01c-1.84 2.59-10.25-.36-16.52-1.28-6.05-.9-20.61-4.67-26.11-6.8-10.49-4.06-11.91-13.22-14.87-22.87-1.34-4.36-2.56-10.72-4.05-14.62-2.83-7.42-4.34-12.58.65-14.5 1.81-.7 5.94.16 11.03 1.28 7.51 1.67 31.08 7.87 37.62 10.26 3.1 1.13 5.09 4.06 6.24 7.14 2.21 5.9 2.96 12.69 3.93 18.89.58 3.66 1.49 7.27 1.79 10.97.24 2.82 1.69 9.56.29 11.53zm49-30.75c-2.64 5.47-7.54 9.8-11.77 14.13-5.84 5.97-14.67 14.65-23.05 16.32-4.24.84-6.25-5.69-7.44-9.46-.35-1.08-2.14-11.37-2.6-14.11-1.09-6.38-2.55-13.01-1.84-19.52.49-4.47 1.41-8.16 4.22-11.4 3.03-3.47 6.85-6.4 10.39-9.11 5.39-4.15 10.55-8.61 15.95-12.74 3.72-2.85 9-7.84 13.6-3.63 3.67 3.35 3.44 11.71 3.63 16.26.17 4.02.68 7.94.74 11.96.09 6.94 1.25 14.92-1.83 21.3z"/><path fill="#ED6C30" d="M45.51 36.23c-1.48-4.52 1.14-9.96 5.65-12.7 6.72-4.08 19-4.52 23.96 2.81.35.52.66 1.05.93 1.61 2.57 5.46-1.51 10.51-6.1 12.9-5.6 2.9-13.51 3.63-19.29.75-2.17-1.07-4.38-3.01-5.15-5.37"/><path fill="#2F2F2F" d="M21.11 79.15c-2.35-1.15-4.46-3.66-4.75-6.28-.15-1.4.44-3.05 1.61-3.91 1.52-1.13 3.55-1.04 5.29-.53 2.84.83 5.33 2.91 6.11 5.77 1.48 5.34-4.31 6.9-8.26 4.95M52.3 86.2c-2.33-1.14-4.46-3.65-4.74-6.27-.15-1.4.44-3.05 1.59-3.92 1.52-1.12 3.57-1.04 5.31-.53 2.84.83 5.32 2.9 6.11 5.76 1.48 5.36-4.3 6.92-8.27 4.96M89.2 79.08c1.45-1.96 2.13-4.96 1.24-7.26-.47-1.23-1.68-2.35-3-2.57-1.75-.28-3.41.68-4.64 1.84-2.01 1.91-3.18 4.7-2.61 7.42 1.07 5.08 6.54 3.9 9.01.57M112.77 57.28c1.44-1.96 2.13-4.96 1.25-7.27-.48-1.23-1.68-2.35-3.01-2.57-1.75-.28-3.41.67-4.64 1.83-2.02 1.91-3.2 4.71-2.62 7.43 1.07 5.09 6.55 3.91 9.02.58M116.8 84.83c1.21-1.68 1.79-4.25 1.06-6.21-.39-1.05-1.39-2.01-2.51-2.19-1.46-.24-2.84.58-3.88 1.58-1.67 1.63-2.66 4.03-2.19 6.35.89 4.34 5.46 3.32 7.52.47M95.66 104.68c1.28-1.78 1.91-4.49 1.12-6.58-.41-1.11-1.47-2.13-2.64-2.32-1.55-.25-3.02.62-4.11 1.67-1.78 1.74-2.83 4.26-2.33 6.72.93 4.6 5.77 3.52 7.96.51M36.64 94.88c-2.18-1.29-4.06-3.69-4.3-5.99-.13-1.21.38-2.63 1.39-3.36 1.36-.98 3.26-.89 4.94-.43 2.91.81 5.62 2.9 6.55 5.79 1.8 5.62-4.62 6.35-8.58 3.99M28.02 106.21c-1.84-1.1-3.44-3.13-3.65-5.08-.12-1.02.31-2.23 1.18-2.85 1.16-.83 2.77-.75 4.19-.35 2.46.68 4.77 2.45 5.55 4.9 1.52 4.75-3.91 5.36-7.27 3.38M56 112.54c-1.95-1.15-3.63-3.29-3.85-5.35-.12-1.08.34-2.35 1.23-3 1.22-.88 2.92-.8 4.42-.38 2.6.73 5.03 2.6 5.85 5.18 1.62 5.01-4.11 5.66-7.65 3.55"/><path fill="#FFF" d="M73.56 114.89c-.29-.88-.58-1.75-.88-2.62"/></svg>