<svg xmlns="http://www.w3.org/2000/svg" width="128" height="128" viewBox="0 0 128 128"><path fill="#2F2F2F" d="M125.52 67.52c-1.12.19-1.93.33-3.11.4-2.39.12-4.07-.06-6.03-1.36-2.27-1.5-4.58-3.16-7.03-4.37-4.44-2.21-9.9-2.67-14.36-.29-2.37 1.26-4.45 3.43-5.76 5.66-.93 1.57-1.96 3.34-.37 4.83 3.79 3.57 8.96.22 13.41 1.67 4.77 1.55 7.43 5.58 13.06 5.35 3.96-.16 7.39-2.26 9.61-5.32.41-.55.77-1.14 1.1-1.73.63-1.14 2.58-5.36-.52-4.84z"/><path fill="#855C52" d="M97.26 82.05c-1.46-4.59-.15-10.34-3.39-14.07-1.33-1.54-3.14-3.44-5.23-3.73-2.25-.31-4.81-.99-7.14-.88-5.79.29-10.9 2.73-16.74 1.98-2.18-.28-4.37-.17-6.33-1.24-1.3-.72-2.27-1.79-3.52-2.58-3.46-2.2-6.65-4.27-9.38-7.4-2.74-3.14-4.06-7.35-6.57-10.63-.68-.9-1.33-1.69-2.13-2.52-.7-.74-1.16-1.64-1.77-2.45-1.29-1.7-2.86-3.21-4.26-4.84-.72-.83-1.65-1.16-2.51-1.78-.8-.57-1.38-.63-2.35-.75-1.27-.16-2.36-.48-3.67-.49-1.3-.01-2.56.47-3.86.53-.97.05-1.86.4-2.66.97-1.58 1.14-2.56 2.93-3.67 4.5-2.51 3.54-3.85 6.14-6.54 9.53-1.42 1.79-4.3 4.27-4.71 6.69-.47 2.79 2.88 6.04 5.28 6.78 3.67 1.11 9.65-3.05 12.41-5 1.01-.71 2.23-.86 3.33-1.36.64-.29.89-.49 1.57-.01 3.12 2.19 4.16 6.4 4.44 9.98.34 4.37-.92 7.42-2.26 11.45-1.39 4.18-1.49 9.16-.95 13.48.39 3.12 2.08 4.93-1.36 6.93-2.23 1.29-4.5 2.66-5.27 5.29-.66 2.25-.42 4.67-.35 6.98.12 4.65.26 9.17 2.57 13.2.45.79 1.01 1.23 1.76 1.93 1.85 1.75 3.25 3.33 5.95 2.75 1.76-.37 1.47-1.71 1.58-3.11.12-1.64.43-2.66-.25-4.3-.73-1.75-3.05-1.32-3.64-3.3-.74-2.51-.76-5.61-.27-8.16 1.04-5.38 7.06-4.47 11.34-4.53 3.71-.04 7.43.07 11.13-.32 4.62-.5 9.19-1.42 13.68-2.58 4.23-1.1 8.35-2.65 12.67-3.41 1.45-.25 3.52-.65 4.97-.56 1.76.12 3.17 1.93 4.44 2.97 8.37 6.87 29.71 10.39 24.94-.91-1.11-2.62-4.3-3.88-6.24-5.78-2.39-2.37-4.05-6.12-5.04-9.25z"/><path fill="#2F2F2F" d="M24.02 32.84c.12-.64.3-1.3.32-1.95.02-.46-.25-1.01-.11-1.46.73-.13 1.59.04 2.3.19.87.19 1.56.32 2.47.32.78 0 1.41-.15 1.61.71.09.4-.13.69.17 1.03.23.26.75.32 1.08.39.55.13 1.12.19 1.64.4.21.09.39.06.61.08.27.03.69.18.94.32.6.33.35.88.61 1.38.12.24.39.3.62.43.34.19.64.37 1 .51.67.25 1.38.58 1.99.95.57.35.57 1.09.97 1.57.38.45.96.73 1.48 1.02.47.26 1.01.6 1.1 1.17.03.28-.1.57-.08.82.03.22.31.43.5.53 1 .52 2.8 1.12 2.78 2.54-.01.77.55 1.04 1.16 1.42.3.19.58.36.89.56.26.18.65.25.85.51.17.21.27.45.45.66.41.49.59 1.01.62 1.66.03 1.04.16 1.09.89 1.77 1.2 1.12 1.92 1.88 1.95 3.56.03 1.35 1.51 2.01 2.01 3.19.36.88.13 1.88.33 2.79.14.62.35 1.19.02 1.79-.66 1.22-2.76 1.3-3.96 1.3-.75 0-1.55.07-2.28-.04-1.59-.23-2.23-1.08-2.74-2.47-.57-1.57-.89-3.23-1.52-4.78-2.01-4.95-5.72-9.07-9.78-12.44-1.35-1.12-2.58-2.3-3.99-3.38-1.03-.79-2.2-1.38-3.17-2.27-.44-.41-.88-.97-1.46-1.19-.6-.23-1.07-.3-1.68-.64-1.14-.63-1.12-1.11-.72-2.38.04-.14.1-.35.13-.57z"/><path fill="#855C52" d="M24.93 28.68c.01-.12.02-.24.02-.36.02-1.34-.73-2.45-2.15-2.71-1.67-.3-2.01 1.35-2.59 2.57-.46.96-.78 1.49-1.8 1.91-1.79.75-2.98 2.24-3.98 3.86-1.01 1.65-2.15 3.14-2.9 4.94 3.55-.58 7.55.34 10.9 1.54 1.34.48 3.01 2.21 4.48 2.05 2.9-.33 1.56-4.27.47-5.67-.87-1.13-3.61-2.76-3.5-4.34.07-1.3.89-2.54 1.05-3.79z"/><path fill="#FCC21B" d="M80.22 61.81c-3-2.18-8.11-.22-11.75-.22-2.56 0-4.98-.07-7.47-.43-1.62-.24-3.48-1.77-5.17-1.31-2.04.56-1.46 4.25-1.59 5.92-.18 2.27-.35 4.47-.35 6.77 0 3.36.42 7.37 3.91 8.6 4.81 1.7 10.78 1.36 15.76.96 3.39-.27 8.65-.76 10.2-4.32 1.52-3.47-.44-10.54-1.91-13.86-.42-.96-.98-1.63-1.63-2.11z"/><path fill="#855C52" d="M106.88 105.62c1.12.57 2.18 1.33 2.96 2.14 1.12 1.15 2.06 2.46 3.05 3.71 1.68 2.13 3.17 4.5 5.5 5.98 1.72 1.08 6.45 2.53 7.53-.1.53-1.3-.57-3.9-1.14-5.2-.74-1.7-2.36-3.91-4.33-4.19-.99-.15-1.31.05-2.17-.62-.54-.41-1.17-.92-1.62-1.42-1.46-1.56-2.3-3.91-3.4-5.73-1.72-2.81-4.43-8.29-8.04-9.1-3.05-.68-7.19.85-8.38 3.89-.73 1.89.42 3.08 1.52 4.5.98 1.27 1.43 3 2.48 4.19.91 1.01 2.2.74 3.41.98.85.19 1.76.52 2.63.97z"/><path fill="#F79329" d="M47.91 53l-1.76-2.67c-5.69 3.76-24.12 4.93-31.64 5.1-.2-.42-.42-.82-.65-1.21 1.23-.8 2.48-1.59 3.72-2.39.68-.44 1.36-.88 2.05-1.31.28-.19 1.1-.91 1.47-.8.58.17-.4 3.6-.31 4.11.5.09 1.02-.04 1.52-.06.23-.01.43-.04.67-.06 1.35-.16 1.1-3.71 1.19-4.65.15-1.48.27-2.95.38-4.43.1-1.45.2-2.9.28-4.35.01-.12.64-.5.74-.57.53-.43 1.01-.94 1.57-1.35.37-.28 1.06-.54 1.15-1.05.06-.3-.24-.66-.41-.88-.35-.45-.87-.98-1.44-1.13-.46-.12-.85.33-1.19.59-.62.49-1.25.98-1.88 1.46-.02.02-2.28-2.61-2.43-2.78l-2.33-2.66c-.67-.77-1.17-1.84-2.31-1.08-.36.24-.67.55-.95.87-.11.11-.23.27-.31.4-.15.24-.29.54-.04.76.27.24.58.44.82.71.33.36.64.73.96 1.1.66.75 1.31 1.5 1.96 2.25.1.1.18.21.28.31.87.99 1.73 1.98 2.6 2.97-.1 1.6-.22 3.57-.38 5.46l-9.23 5.93c-.38-.45-.77-.89-1.17-1.32-.6-.64-1.25-1.25-1.92-1.83-.83-.72-2.59-2.3-3.82-2.08-.6.11-.96.74-1.34 1.16-.3.34-.67.66-.58 1.15.1.28 1.41.65 1.69.78.85.42 1.58 1.07 2.29 1.7 1.25 1.11 2.4 2.35 3.35 3.73.32.46.61.94.88 1.43.24.44.53.85.66 1.33.08.27 0 .75.2.96.16.16.57.08.79.08 1.03 0 2.08-.08 3.11-.12l2.3-.09c2.06-.1 4.11-.23 6.17-.39 2.44-.19 4.88-.44 7.32-.75 2.45-.32 4.9-.71 7.33-1.24 2.1-.46 4.2-1.01 6.2-1.84.19-.07 2.49-1.17 2.44-1.25z"/><g><path fill="#ED6C30" d="M42.68 31.24c-.19-.22-.36-.46-.53-.7-4.94-7.03-3.38-15.31 2.17-19.11 7.94-5.45 16.33-2.32 19.3 2.89.82 1.43 1.47 2.97 1.8 4.59.23 1.17-.09 2.6.62 3.63.78 1.12 2.6 1.68 3.87 2 3.64.92 7.1 2.61 10.11 4.87a25.55 25.55 0 0 1 4.13 3.85c3.58 4.19 6.66 10.82 3.93 16.12-1.73 3.37-4.7 5.81-7.63 8.09-3.16 2.46-7.89 6.48-7.54 10.89.32 3.95 3.48 7.56 2.59 11.61-.92 4.21-5.52 7.16-9.7 7.05-1.68-.04-3.63-.99-4.08-2.75-1.01-3.89 3.64-6.33 1.9-10.44-.59-1.38-1.36-2.68-1.96-4.05-.46-1.05-.83-2.19-1.21-3.27-.42-1.18-.14-2.83.12-4.02.28-1.28 1.07-2.43 1.72-3.56 1.19-2.09 2.66-3.87 3.47-6.16.29-.8.79-1.59.74-2.46-.06-1.14-.77-2.32-1.42-3.21-2.12-2.86-3.87-6.06-6.4-8.6-3.06-3.06-5.06-2.5-8.96-3.22-2.61-.49-5.29-1.97-7.04-4.04z"/><path fill="#ED6C30" d="M42.47 54.9c-.73-3.88 1.41-6.67 5.42-6.67 1.05 0 2.18-.15 3.21-.06.83.07 1.58.27 2.42.05.65-.17 1.36-.58 1.96-.89 1.74-.91 3.53-2.25 3.73-4.36.18-1.76-.16-3.3-1.02-4.84-.53-.92-1.32-1.37-2.14-2.01-.49-.38-.56-.6-.57-1.2-.02-.89.06-.91.58-1.49.42-.47.67-.99 1.19-1.39.94-.74 2.19-1.11 3.38-1.2 5.73-.43 8.25 6.55 8.93 11.03.18 1.19-.05 2.28-.05 3.51 0 1.28-.21 2.48-.92 3.6-.66 1.05-1.51 2.29-2.45 3.06-1.41 1.16-2.96 2.11-4.57 2.94-1.42.73-2.83 1.61-4.37 2.04-.8.22-1.57.44-2.35.71-.65.24-1.14.62-1.76.93-3.41 1.67-9.84.49-10.62-3.76z"/><path fill="#FCC21B" d="M43.43 6.9c-.38.22-.72.48-1.06.75-1.85 1.5-3.9 4.08-4.76 6.31-1.23 3.2-.65 6.01-.82 9.3-.08 1.66-3.88 5.03-2.18 6.44 3.4 2.82 7.48-4.39 10.24-5.63 2.07-.92 4.34-1.25 6.46-2.02 3.82-1.39 7.52-3.02 11.17-4.78.52-.25 1-.55 1.49-.87.76-.5 1.38-.87 1.05-1.84-.35-1.05-.94-2.05-1.47-3C60 5.18 51.36 2.24 43.43 6.9z"/><path fill="#FCC21B" d="M55.96 20.87c1.31 3.33 2.48 7.57 1.93 11.15-.05.29-.2.85-.11 1.1 2.17-.49 1.87-6.39 1.73-8.01-.2-2.32-.85-4.6-1.85-6.7-.23-.49-.3-.55-.85-.47-.78.11-1.24.65-1.96.84.01.44.64 1.08.84 1.48.1.21.19.41.27.61z"/></g></svg>