<svg xmlns="http://www.w3.org/2000/svg" width="128" height="128" viewBox="0 0 128 128"><path fill="#FCC21B" d="M119.68 49.34c-.97-1.99-2.8-3.61-4.91-4.31-1.11-.37-2.29-.48-3.42-.23-1.41.32-3.57 1.42-4.47 2.59-1.36 1.77-.24 4.1-1.27 5.93-1.18 2.1-3.5 2.57-5.61 1.89-3.05-1-6.74-3.14-8.45-5.95-1.53-2.53-3.31-4.28-1.69-6.27 1.03-1.26 5.7-3.05 8.13-8 4.98-10.13 1.26-20.54-6.71-24.36-11.41-5.46-21.67.31-24.46 7.68-3.19 8.41.31 11.21-1.84 14.92-.68 1.18-2.69.34-4.08.1-.85-.15-9.76-3.63-20.4-1.35-6.86 1.47-13.11 5.33-14.73 12.18-.58 2.44-1.19 5.29-.2 7.71 1.45 3.56 5.52 5.41 9.1 3.94 2.7-1.11 3.96-2.79 4.24-5.38.18-1.69-.29-3.19.53-3.92 2.02-1.8 7.43-1.06 10.58-.15 2.74.79 3.34 4.47 2.41 7.65-.91 3.12-2.67 5.92-4.47 8.6-1.79 2.64-3.52 5.34-5.44 7.89-2.71 3.6-7.57 10.22-12.88 7.87-1.09-.49-2.27-1.38-3.12-2.22-.82-.83-1.23-1.98-2.13-2.74-1.04-.88-2.43-1.49-3.82-1.3-2.97.39-5.63 1.65-7.8 3.88-2.25 2.32-3.57 5.52-2.76 8.7.35 1.39 1.17 2.57 2.53 3.09 1.43.54 3.26.43 4.72.04 1.26-.33 2.32-.73 3.58-.04 1.28.7 2.2 1.92 3.41 2.73 2.44 1.63 5.25 3 8.19 3.36 5.2.62 10.06-1.97 14.43-4.45 2-1.14 5.12-2.7 7.28-.91 1.35 1.11 1.56 3.19 1.67 4.79.44 6.42 1.07 13.61 2.44 19.91.66 3.03 2.61 6.08 5.63 7.12 2.88.99 7.3 1.27 10.15.1 2.96-1.22 5.71-3.51 4.66-7.02-.64-2.14-2.05-3.49-4.04-4.48-1.12-.56-1.52-.97-1.85-2.2-.51-1.95-.52-4.16-.68-6.17-.21-2.44-.16-4.89-.16-7.34 0-1.99.19-4.01.4-5.88.63-5.73 3.06-10.86 6.05-15.71 1.11-1.8 2.18-3.6 3.48-5.28 1.04-1.34 2.41-1.83 3.86-1.81 1.98.02 4.12 1 5.78 2.04 4.3 2.7 9.85 2.8 14.87 1.2 6.01-1.91 10.94-6.47 13.18-12.38.66-1.7.91-4.38.09-6.06z"/></svg>