<svg xmlns="http://www.w3.org/2000/svg" width="128" height="128" viewBox="0 0 128 128"><path fill="#FCC21B" d="M30.23 41.25c3.09.29 6.77-1.1 9.09-3.12 1.82-1.58 2.42-3.45 5-4.14 2.21-.59 4.71-.24 6.94.05 4.74.62 9.2 2.43 11.53 6.94 1.31 2.54 3.7 7.82 1.77 10.58-1.39 1.99-3.43-.06-4.77-1.07-4.4-3.32-9.23-4.13-14.66-4.08-6.3.06-12.77 3.77-16.03 9.08-3.23 5.27-3.86 13.42-1.62 19.18 1.08 2.77 2.8 5.79 5.22 7.62 4.33 3.28 10.8 1.6 15.74 1.25 6.58-.48 12.96 1.75 19.51 1.71 1.45-.01 2.89-.12 4.33-.37 5-.88 10.13-2.15 15.22-2.95 5.26-.83 14.09.58 19.31.27 2.51-.15 8.11-.89 4.53-4.26-5.33-5.03-12.23-7.8-17.79-12.52-3.52-3-7.78-5.65-9.24-10.31-3.42-10.93-4.49-20.23-13.6-28.55-4.99-4.56-10.46-7.94-17.07-8.99-1.39-.22-2.8-.37-4.21-.44-2.01-.09-4.03-.03-6.02.26-9.13 1.32-18.08 3.53-20.32 13.89-1.01 4.7 2.2 9.51 7.14 9.97z"/><path fill="#40C0E7" d="M121.17 91.3c-2.05-.98-4.98-.09-7.17-.1-5.38-.03-10.22-2.08-15.48-2.63-8.05-.84-14.99 2.52-22.69 4.05-5.92 1.19-12.11 1.3-17.9-.55-5-1.6-10.08-2.81-15.35-2.25l-.08.01c-9.2.66-18.34 4.72-27.72 2.97-2.22-.41-7.72-3.55-9.12-.13-2.4 5.86 11.76 8.85 15.26 9.35 10.04 1.43 19.54-4.54 29.58-2.95 5.65.89 10.98 3.05 16.73 3.42 4.44.29 8.93-.18 13.19-1.49 4.15-1.27 7.92-3.82 12.28-4.38 8.99-1.15 18.59 5.25 27-.27.89-.59 2.76-1.56 2.91-2.76.1-.9-.67-1.93-1.44-2.29zM117.56 108.43c-1.06-.32-3.06-.05-4.14.05-1.94.18-3.89.27-5.83.3-1.81.03-3.5-.36-5.27-.7-4.46-.85-9.28-1.12-13.73-.21-4.49.93-8.82 2.59-13.31 3.53-5.68 1.19-11.62 1.31-17.16-.55-4.79-1.6-9.66-2.81-14.72-2.25l-.08.01c-7.76.55-15.38 2.94-23.21 2.43-2.03-.13-8.48-2.71-9.06.78-.15.95.43 1.9 1.07 2.53 4.23 4.16 10.24 5.38 15.97 5.49 6.58.13 12.83-2.15 19.37-2.15 6.73 0 12.9 3.13 19.57 3.58 4.25.29 8.56-.18 12.64-1.49 3.98-1.27 7.59-3.82 11.77-4.38.31-.04.62-.07.93-.1 2.66-.2 5.32.25 7.92.76 6.28 1.23 13.98.35 18.12-5.14.65-.86.29-2.15-.85-2.49z"/></svg>