<svg xmlns="http://www.w3.org/2000/svg" xmlns:xlink="http://www.w3.org/1999/xlink" width="128" height="128" viewBox="0 0 128 128"><path fill="#40C0E7" d="M122.58 88.92c-.33-1.85-1.68-3.23-3.38-3.88-.84-.32-1.75-.53-2.65-.5-.52.02-1.09.11-1.58.29-.25.09-.53.32-.81.24.08-.34.38-.79.59-1.07 1.15-1.59 2.74-2.96 3.6-4.78 1.06-2.24.83-4.33-.62-5.75-.97-.95-2.24-1.46-3.59-1.49-1.45-.04-6.19 2.3-5.24-.85.38-1.24.95-3.12-.47-4.1-3.45-2.39-7.94 1.39-10.29 3.73-.35.34-.75.76-1.25.8-.74.07-.58-1.03-.86-1.44-1.09-1.64-3.17-1.75-4.88-1.14-1.7.61-3.05 2.08-4.23 3.39-.26.29-.75.58-1.08.21-.59-.7-.2-1.9-.71-2.67-.52-.76-1.24-1.15-2.08-1.15-1.8 0-3.8 1.82-4.71 3.05-.88 1.19-1.89 2.48-3.17 4.06-.89 1.1-1.71 1.99-2.53 2.75-.19.17-.38.35-.57.52-.84.75-1.75 1.5-2.87 2.35-.09.07-.22.16-.38.27-1.77 1.25-2.71 2.08-2.64 2.88l.04.42.4.08c1.85.34 4.15.09 5.93-.19.4-.06.82-.15 1.24-.23 1.26-.25 2.64-.49 3.67-.28 3.17.65 6.47 1.99 9.29 3.77 1.26.79 2.56 1.7 3.68 2.5 1.45 1.03 3.88 3.25 3.83 6.57-.05 3.55-1.79 6.7-3.25 8.72-.69.96-1.63 1.71-2.62 2.33-.85.54-2 .73-2.68 1.5-.19.21-.3.5-.49.72-.14.17-.38.33-.49.52-.51.92-1.09 1.86-1.99 2.45-.41.27-.87.17-1.29.34-.33.12-.65.37-.96.54-.33.18-1.61.81-1.03 1.33.48.43 1.43.09 1.98-.01 1.72-.31 3.42-.4 5.16-.24 1.57.15 3.14.39 4.65.83.41.12.84.16 1.24.25 2.02.42 4.01.71 5.88.14 1.04-.31 2.12-.76 3.05-1.95.91-1.17.72-1.9.45-3.01-.08-.3-.19-.59-.27-.9-.07-.29-.08-.58-.15-.87-.1-.42-.2-1.12.13-1.47 1.04-1.11 2.69-.5 3.91-.12 1.6.5 3.32.85 4.99.76 1.64-.09 3.1-.78 4.1-2.1.82-1.08 1.22-2.45.79-3.79-.35-1.08-.87-2.12-1.57-3.01-.72-.92-3.25-2.07-1.35-3.05 1.78-.92 3.78-1.22 5.63-1.92 2.01-.76 3.93-2.21 4.41-4.39.19-.7.2-1.35.09-1.96z"/><path fill="#FFF" d="M111.84 94.96c2.09-.77 4.82-.65 6.42-2.4.95-1.04 1.37-2 .94-3.34-.42-1.34-1.08-2.04-2.41-2.38-2.06-.52-4.13 0-6.09 1.04.16-.98.32-1.96.8-2.82 1.05-1.85 2.8-3.21 3.75-5.12.82-1.64.87-3.4-.49-4.66-1.53-1.41-3.55-1.17-5.33-.45-1.49.61-4.01.94-3.55-1.37.23-1.13 1.35-3.15 0-4.04-2.21-1.45-5.17 1.31-6.6 2.73-.97.96-2.6 2.81-4.17 2.23-.95-.35-.81-1.57-1.3-2.27-1.03-1.48-3.23-1.37-4.41-.16-1.1 1.13-2.56 3.9-4.57 3.28-1.41-.44-.83-2.38-1.5-3.3-1.56-2.17-4.64.38-5.7 1.75-.98 1.26-2.02 2.51-3.07 3.73-.78.92-1.6 1.79-2.48 2.57-.18.16-.37.33-.55.48-.91.78-1.83 1.48-2.79 2.18-.55.4-2.76 1.75-2.7 2.42 1.84.32 3.71.1 5.54-.18 1.55-.23 3.35-.76 4.9-.46 3.14.61 6.35 1.86 9.1 3.51 1.2.72 2.42 1.52 3.57 2.3 2.18 1.47 3.95 3.71 3.91 6.45-.05 3.02-1.44 5.91-3.24 8.28-1.85 2.45-5.26 3.4-7.84 5-1.71 1.06-4.04 2.36-5.2 4.04-2.53 3.66 3.43.62 4.64.31 2.68-.7 5.57-1.21 8.32-.73 2.33.41 4.29 1.04 6.62.37 1.1-.31 1.95-.73 2.68-1.61.7-.86.59-1.3.33-2.3-.39-1.49-1.83-3.35.31-3.98 1.09-.32 2.29-.38 3.41-.38 1.5 0 2.83.83 4.32.92 2.35.15 5.92-1.45 4.95-4.29-.44-1.3-1.11-2.16-2.39-2.77-.7-.34-1.57-.43-1.8-1.24-.38-1.53 2.52-2.92 3.67-3.34z"/><path fill="#40C0E7" d="M106.01 84.57c-2.29-3.49-7.36-5.18-15.5-5.18-7.6 0-16.28 1.48-20.77 2.37-12.82 2.52-31.08 7.83-45.19 18.8-4.95 3.85-10.25 8.39-10.48 13.58-.08 1.62.33 4 2.7 6.21 3.21 3 9.36 4.4 19.35 4.4h.05c11.15 0 21.58-3.02 32.18-6.4 9.58-3.05 17.94-7.6 24.16-11.23 4.79-2.8 11.05-7.4 13.67-13.43 1.91-4.42.96-7.4-.17-9.12zm-69.85 37.07z"/><defs><path id="a" d="M106.01 84.57c-2.29-3.49-7.36-5.18-15.5-5.18-7.6 0-16.28 1.48-20.77 2.37-12.82 2.52-31.08 7.83-45.19 18.8-4.95 3.85-10.25 8.39-10.48 13.58-.08 1.62.33 4 2.7 6.21 3.21 3 9.36 4.4 19.35 4.4h.05c11.15 0 21.58-3.02 32.18-6.4 9.58-3.05 17.94-7.6 24.16-11.23 4.79-2.8 11.05-7.4 13.67-13.43 1.91-4.42.96-7.4-.17-9.12z"/></defs><clipPath id="b"><use xlink:href="#a" overflow="visible"/></clipPath><path clip-path="url(#b)" fill="#006CA2" d="M111.02 86.33L19.3 125.28 8.27 115.5l93.16-36.62z"/><g><defs><path id="c" d="M87.74 22.79c-3.11 2.46-1.88 5.23-3.47 6.79-1.04 1.02-3.58 2.42-6.46 4.03-3.41 1.91-6.86 2.73-9.01 3.12-3.62.64-7.49.22-11.16.22-4.49 0-17.42-3.95-24.31-7.32-2.23-1.08-4.5-2.43-6.09-4.48-.73-.93-1.41-2.04-1.91-3.1-.55-1.17-.62-1.52-.5-2.7.21-2.13-1.25-4.13-3.23-4.92-4.34-1.73-8.29.77-9.65 4.57-1.03 2.87-1.25 8.68 4.08 15.04 1.21 1.45 2.46 2.87 3.89 4.06 2.25 1.88 5.28 3.79 7.91 4.91 1.27.53 3.72 1.64 5.81 2.66 1.67.81 1.95 2.35 1.9 3.55-.13 2.77-1.61 6.51-1.88 14.24-.16 3.94 1.79 10.14 3.54 12.84 2.43 3.78 6.38 6.99 10.05 8.89.63.33 2.76 1.59 3.55 2.95.83 1.42.29 2.94-.03 3.59-.72 1.45-1.28 2.91-1.84 4.4-.47 1.27-1.13 2.54-1.4 3.79-.67 3.11-1.11 6.73 1.85 8.75 1.62 1.1 3.9 2.05 6.08 2.1 3.25.08 6.3-.83 6.94-2.87.58-1.84.13-3.55-2.66-4.73-.71-.34-.52-1.12-.39-1.66.47-2.04 1.15-4.17 1.78-6.17.81-2.59 1.92-4.98 1.97-7.7.04-2.56-.61-4.55-1.98-6.75-1.25-2-3.24-4.27.51-4.39 2.51-.08 5.21.43 6.75 2.63 1.6 2.3-.02 6.29-1.1 8.52-1.02 2.08-2.94 4.68-2.72 7.03.3 2.99 3.57 3.85 6.15 4.42 3.31.72 7.64.1 9.62-2.96.3-.47.56-.96.61-1.46.17-1.64-.53-4-3.81-4.71-.77-.05 0-1.47.23-1.92 1.69-3.28 2.51-7.67 2.74-11.18.6-9.08-13.75-8.33-13.81-16.69-.01-1.09 1.03-5.75 2.36-9.02.8-1.98.44-1.22 3-2.43 2.3-1.09 5.82-2.05 8.9-3.61 6.53-3.31 12.36-7.7 13.47-8.71 2.34-2.12 3.83-4.12 4.21-5.43.84-2.95.54-7.13-2.46-8.73-2.43-1.32-6.05-1.02-8.03.54z"/></defs><use xlink:href="#c" overflow="visible" fill="#FCC21B"/><clipPath id="d"><use xlink:href="#c" overflow="visible"/></clipPath><path clip-path="url(#d)" fill="#ED6C30" d="M36.56 75.17s1.95.91 8 .24c10.73-1.2 20.18-5.53 23.46-10.96l1.26-1.59 11.19 8.57.37 5.48s-1.87 4.71-12.63 5.6l-3.29-5.07-3.46.89 1.77 3.38.89 5.96-1.13 1.22s-1.45 3.37-12.07 2.5l-9.83-6.3-4.8-6.04.27-3.88z"/></g><g><g fill="#40C0E7"><path d="M84.36 125.12c.02.01.03.02.05.03 2.16 1.41 5.01-.77 3.87-3.22-.03-.07-.06-.13-.09-.19-.78-1.38-2.33-2.01-3.85-2.04-.78-.01-1.57.01-2.35.07-.38.03-.78.04-1.16.11-.22.04-.56.26-.55.51.02.38.49.92.7 1.22.92 1.34 2 2.61 3.38 3.51zM86.94 60.97c.01-.02.01-.03.02-.05.83-2.05-1.48-4.1-3.36-2.74-.04.03-.1.08-.14.11-1.04.88-1.32 2.3-1.09 3.59.12.66.27 1.32.45 1.97.09.32.17.65.29.96.07.17.32.42.52.37.32-.08.69-.56.91-.79.98-.99 1.87-2.11 2.4-3.42zM101.6 60.77c.02-.02.03-.03.03-.04 1.66-1.8.08-4.81-2.39-4.14l-.2.06c-1.41.5-2.25 1.85-2.52 3.27-.14.73-.24 1.47-.31 2.21-.04.36-.09.74-.08 1.1.01.2.16.56.39.59.35.05.94-.31 1.25-.45 1.42-.65 2.77-1.46 3.83-2.6z"/></g></g><path fill="#FCC21B" d="M56.59 6.6c4.44-.99 9.04.03 13.24 2.35 6.08 3.35 9.33 10.19 7.56 17.29-.74 2.96-2.22 6.15-4.04 8.58-1.12 1.51-2.36 3.01-3.87 4.15-1.69 1.29-3.09 1.41-5.08 1.6-4.5.43-8.89 1.34-12.96-1.4-1.67-1.12-1.64-.56-3.14-1.78-1.12-.9-2.83-3.47-3.45-4.94-1.09-2.56-1.31-4.89-1.42-7.63-.12-2.94.11-8 3.16-12.05 2.65-3.52 6.62-5.42 10-6.17z"/></svg>