<svg xmlns="http://www.w3.org/2000/svg" width="128" height="128" viewBox="0 0 128 128"><path fill="#78A3AD" d="M53.89 81.26c-.2-.5-.58-.85-.92-1.16-.13-.12-.27-.25-.38-.38-1.12-1.36-2.19-2.82-3.23-4.22l-1.22-1.65c-1.28-1.73-3.02-4.1-5.33-4.1-.88 0-1.75.35-2.57 1.04l-.27.24c-.27.25-.6.56-.94.58-.5-.1-1.13-1.25-1.51-1.93a9.54 9.54 0 0 0-.54-.91c-.71-1.03-1.86-2.44-3.67-2.84-1.46-.33-2.97.21-3.89 1.36-.23.29-.38.64-.53.98-.15.36-.38.85-.59.88-.09 0-.28-.06-.53-.25a7.57 7.57 0 0 1-.93-.85c-.58-.58-1.24-1.25-2.25-1.59-1.55-.52-3.46-.08-4.48 1.04-.62.69-.9 1.56-.81 2.51.05.46.12.94.19 1.42.12.83.25 1.68.23 2.46-.01.25-.05.33-.05.33-.07.06-.4.11-.62.14l-.28.04c-1.77.3-2.58 1.35-2.95 2.17-.82 1.85-.2 4.23.78 5.77.64 1 1.35 1.97 2.05 2.93l.42.57c.36.5.75.96 1.14 1.43.42.5.83 1 1.2 1.53.15.22.47.68 1.04.81l.31.04c.51 0 .85-.3 1.07-.5.5-.45.71-1.04.91-1.62.24-.69.49-1.4.57-2.18.03-.34.31-.64.72-1.05.8-.8 1.8-1.38 2.8-1.6 2.13-.48 4.06-.89 6.09-1.06 2.58-.21 5.05 0 8.67.7.88.17 1.75.35 2.63.54l1.78.37c.62.12 1.24.18 1.86.24.6.05 1.2.1 1.8.23l.22.05c.44.11 1.05.24 1.47.12l.38-.13.15-.32c.26-.49.14-1.87.01-2.18z"/><path fill="#FFF" d="M24.95 84.7c-.47.48-.88 1.02-1.19 1.6-.24.44-.48 1.64-1.08 1.28-.35-.22-.64-.7-.93-.98-.42-.42-.75-.91-1.08-1.41-1.22-1.86-3.17-3.52-3.66-5.77-.24-1.08-.05-2.03.89-2.68.91-.64 2.24.06 3.07-.6 2.03-1.63-2.21-7.88 2.19-7.8 2.1.04 2.56 2.88 4.54 3.1 1.86.21 1.88-2.4 2.98-3.37 1.33-1.16 3.15-.19 3.96.97.95 1.35 1.2 3.4 2.57 4.42.63.47 1.68.34 2.27-.11.72-.56 1.21-1.1 2.08-1.33.9-.23 1.69-.15 2.32.6 2.78 3.3 4.84 7.12 7.72 10.36.27.31.91.71 1.02 1.09-.34.1-.96-.11-1.3-.18-1.22-.27-2.44-.23-3.67-.47-1.48-.3-2.94-.62-4.42-.91-2.93-.56-5.91-.96-8.89-.71-2.11.18-4.14.62-6.2 1.08-1.19.27-2.3.93-3.19 1.82z"/><path fill="#ED6C30" d="M86.35 125.85c-2.32 0-4.41-.2-6.04-.59-7.23-1.7-13.09-4.95-19.31-8.39l-.94-.52c-4.07-2.24-8.18-4.41-12.29-6.58-4.91-2.59-9.99-5.28-14.92-8.05-.48-.26-.99-.54-1.53-.83-4.71-2.52-11.81-6.34-11.66-13.38.19-7.7 8.52-11.93 14.37-12.48 6.68-.62 13.12 3.7 18.71 7.5 2.68 1.83 5.21 3.55 7.51 4.57 3.16 1.41 6.53 2.79 10.29 4.22l1.66.63c4.24 1.61 8.63 3.28 12.96 4.5 1.08.3 3.13.58 5.3.88 2.06.28 4.39.6 6.71 1.04l.41.08c4.7.87 13.43 2.5 14.46 10.07.47 3.52-.51 6.81-2.86 9.5-5.05 5.78-15.46 7.83-22.83 7.83z"/><path fill="#FCC21B" d="M112.08 65.44c-.69-2.25-2.32-3.37-4.08-4.79-.86-.7-3.27-6.7-8.38-11.81-7.36-7.34-13.6-9.33-16.66-10.83-1.86-1.77-3.97-2.65-6.29-1.92-2.88.9-5.86 1.36-8.88 1.43-10.13-3.81-21.79 1.45-28.21 9.47-1.94 2.42-3.67 5.3-4.09 8.43-.29 2.21.25 6.32 2.15 7.87 3.97 3.25 10.3-1.05 10.1-5.82-.05-1.23-.42-1.96.29-3.1 1.3-2.08 5.26-3.47 7.42-4.21 1.6-.55 3.27-1.05 4.97-1.11.63 3.02 1.01 6.11 1.05 9.39.05 6.62-5.67 10.22-10.47 13.44-2.44 1.64-4.26 3.85-4.05 6.94.19 2.85 1.05 5.57 1.83 8.29.27.94.68 1.84.97 2.78.78 2.56-1.77 2.35-3.06 3.85-.95 1.11-.7 2.72.05 3.88 1.94 3 6.16 3.6 9.39 2.89.05-.01.1-.02.15-.04 2.17-.52 4.62-1.64 4.92-4.15.45-3.77-2.29-6.95-2.63-10.6-.11-1.15-.35-2.41.01-3.54.45-1.39 2.36-2.4 3.57-3.01 1.23-.63 2.93-1.36 4.23-.5 2.02 1.32-1.34 4.63-1.93 5.99a10.99 10.99 0 0 0-.9 4.67c.05 2.66 1.13 4.99 1.92 7.52.33 1.04.66 2.08.97 3.13.7 2.4-.4 3.38-2 4.96-1.2 1.19-.9 3.11.07 4.36.99 1.26 2.59 2.34 4.2 2.58 2.64.39 6.06-.52 8.23-2.01 4.1-2.79 1.78-8.62.44-12.24-1.07-2.86-2.37-6.57-.22-9.31 1.62-2.08 4.45-2.82 6.45-4.47 2.07-1.71 3.71-3.9 5.05-6.21 3.18-5.48 4.54-11.92 3.56-18.22-.1-.62-.25-1.42-.46-2.33.88.85 1.73 1.73 2.52 2.63.74.84 1.46 1.78 1.98 2.76.45.84.71 1.75.59 2.77-.47 3.95-.89 7.29 3.4 10.49 2.58 1.92 7 .84 9.56-1.15 2.76-2.11 3.24-5.96 2.27-9.15z"/><g><path fill="#FCC21B" d="M83.27 28.11c-.71-.88-1.54-1.71-2.42-2.5-4-3.6-9.61-6.12-15.62-6.45-.43-.02-.85-.08-1.28-.08-2.42 0-6.49.27-8.45 3.12-.33 1.21-.48 2.46-.54 3.72-.08 1.66.01 3.33.37 4.95C57.74 41.88 70.6 47.13 80.19 41.4c1.91-1.14 3.49-2.67 4.78-4.39.59-.79 1.09-1.64 1.55-2.51-.53-2.26-1.79-4.57-3.25-6.39z"/><path fill="#757F3F" d="M92.73 26.52c-.1-.95-.35-1.76-.65-2.45.95-4.32.88-8.68-.94-11.94-3.31-6.17-10.2-10.34-17.96-9.95-3.57.17-11.02 2.03-15.1 8.7-1.02.42-2.35 1.2-3.49 2.67-1.04 1.35-4.44 8.38.35 12.37.05-1.26.21-2.5.54-3.72 1.96-2.85 6.03-3.12 8.45-3.12.43 0 .85.05 1.28.08 6 .32 11.62 2.84 15.62 6.45.88.79 1.71 1.62 2.42 2.5 1.46 1.82 2.72 4.13 3.25 6.4-.45.88-.95 1.72-1.55 2.51l.05.03c7.12-.12 7.93-8.74 7.73-10.53z"/></g></svg>