<svg xmlns="http://www.w3.org/2000/svg" width="128" height="128" viewBox="0 0 128 128"><path fill="#2F2F2F" d="M107.85 102.14c1.58 2.37 3.24 4.76 5.42 6.62 1.17 1 2.56 1.85 4.1 2.1 1.66.26 3.28-.3 4.63-1.27 1.19-.86 1.67-1.96 1.44-3.4-.59-3.69-2.2-7.09-3.66-10.49-1.41-3.28-2.44-6.68-3.65-10.03-.63-1.74-3.91.2-4.95.76-1.71.9-3.34 2.03-4.77 3.31-.61.56-1.18 1.12-1.5 1.89-.24.59-.28 1.05-.32 1.67-.2 3.27 1.5 6.21 3.26 8.84zM86.52 107.94c.35.85.73 1.66 1.17 2.42.63 1.11 1.58 1.86 2.83 2.16 2.99.73 6.63-1.27 7.01-4.47.42-3.52.74-7.43.07-10.94-.05-.26.06-.79-.11-1-.2-.24-.68 0-.93.04-.65.12-1.26.26-1.89.45-.45.13-.93.21-1.39.35-.41.12-.82.23-1.25.32-.49.1-.96.3-1.45.43-.54.15-1.09.21-1.62.35-1.06.28-2.25.56-3.25 1.01-.57.26-.91.52-1.07 1.13-.16.6.09 1.31.2 1.9.34 1.92.9 3.96 1.68 5.85zM63.73 113.14c.21 1.23.43 2.45.64 3.68.14.81.21 1.71.48 2.5 1.84 5.28 6.72 8.01 11.11 4.67 2.13-1.63 2.36-4.67 2.37-7.15.01-2.41.02-4.82-.04-7.23-.06-2.11.05-4.49-.46-6.55-.17-.69-.85-.94-1.48-.96-1.82-.05-3.66.04-5.47.19-1.41.12-2.81.51-4.2.78-1.12.22-2.25.7-3.15 1.39-1.19.9-.44 4.13-.29 5.37.12 1.1.3 2.21.49 3.31zM25.19 100.24c-.78 2.03-1.61 4.04-2.44 6.05-.76 1.83-2.44 5.22-1.5 7.25 2.15 4.67 8.08 3.51 11.27.73 1.73-1.5 3.04-3.4 4.28-5.32 1.94-2.98 3.96-6.27 3.52-9.96-.13-1.1-1.11-1.35-2.04-1.78-.44-.2-.8-.52-1.22-.76-.38-.22-.81-.34-1.22-.49-.39-.14-.75-.37-1.13-.55-.36-.17-.75-.25-1.13-.39-1.33-.5-2.79-1.2-4.22-1.2-.5 0-1.06-.1-1.5.16-.85.5-1.06 1.9-1.37 2.75-.42 1.19-.86 2.35-1.3 3.51z"/><path fill="#FFF" d="M122.13 67.36c-.47-.88-1.07-1.6-1.77-2.14-.24-.19-.65-.31-1.18-.47-.36-.11-.73-.22-1.09-.36-.91-.35-1.59-1.01-1.9-1.86-.51-1.43.19-2.67.61-3.4l.17-.31c.57-1.22.83-2.16.83-2.99.01-1.7-.71-3.56-1.96-5.09-.74-.91-1.52-1.39-2.97-2.11l-.61-.27c-.64-.26-1.44-.59-2.16-1.2-1.98-1.68-1.29-3.49-1.04-4.17l.14-.4c.46-1.74.72-3.11.75-4.17.07-1.89-.86-3.94-2.63-5.78-2.47-2.58-6.28-4.38-9.26-4.38-.27 0-.64.08-1.04.16-.56.11-1.19.25-1.89.25-2.31-.01-3.46-2.06-4.22-3.42-.18-.34-.34-.66-.53-.88-.92-.97-2.1-1.74-3.7-2.4-2.71-1.09-5.92-1.45-8.85-.98-1.63.27-3.13 1.15-4.72 2.08l-.57.33a2.351 2.351 0 0 1-3.32-1.05C67.36 18.31 62.38 18 60.9 18c-1.86 0-3.72.39-5.23 1.11-.41.22-2.43 1.51-3.15 2.06-.68.95-1.97 1.26-3.03.7-3.12-1.68-4.74-2.38-7.53-1.51-2.35.74-5.12 2.53-5.83 5.35-.06.22-.07.48-.09.77-.04.34-.08.73-.15 1.13.05.02.1.02.15.04.84.31 3.15 1.2 2.64 2.59-.32.85-1.65.95-2.4 1.02-3.04.26-5.95 1.69-8.14 3.8-.96.92-1.58 2.04-2.44 3.03-.69.8-1.28 1.39-1.74 2.38-1.25 2.65-2.01 5.5-2.5 8.38-.54 3.08-.45 6.38-1.65 9.29-1.18 2.89-.96 6.12-.14 9.1.23.83.53 1.55.96 2.26.54.88.94 1.81 1.81 2.39.89.6 1.55 1.51 1.79 2.6.29 1.29-.31 2.33-.6 2.83-1.48 2.9-1.28 6.57.4 9.25.75 1.2 1.8 2.22 3.02 3 .14-.39.32-.77.59-1.11.48-.57 1.78-1.4 2.14-.2.28.89.27 1.84.23 2.79-.02.49 0 .98.01 1.48.1.37.17.78.17 1.27-.04 4.38 3.67 8.16 8.45 8.6.5.04.99.04 1.48.03-.03-.1-.05-.18-.08-.28-.27-1.08-.48-2.53.18-2.57.57-.03 1.05.73 1.42 1.07.44.41.82.87 1.22 1.31.46.51.97 1.05 1.41 1.61l.27.27.2.21c2.94 2.73 7.69 4.42 12.4 4.42 3.96 0 7.46-1.17 9.86-3.29l.42-.45c.21-.23.44-.48.71-.73.16-.18.32-.34.45-.54.42-.68 1-1.22 1.52-1.82.49-.56.86-1.17 1.4-1.68.36-.34 1.2-.83 1.7-.52.49.31.53 1.36.48 1.87-.06.55-.21 1.16-.41 1.75.5.11 1 .25 1.46.39.46.14.88.29 1.22.34 1.84.28 3.74.36 5.63.25 2.92-.18 7.03-.91 10.08-3.45l.28-.28c.34-.48.81-.93 1.02-1.13.59-.6 1.06-1.24 1.57-1.88.44-.54.84-1.13 1.28-1.67.34-.41.99-1.11 1.57-1.08 1.37.07.45 2.38.18 3.02-.19.46-.41.9-.64 1.33.5.13.98.28 1.42.43.7.23 1.35.45 1.88.47h.38c3.07 0 5.81-1.34 7.37-3.58.02-.04.05-.07.07-.11.11-.19.21-.44.33-.71.2-.46.44-.99.74-1.5.16-.43.31-.88.5-1.3.36-.73.49-1.48.79-2.22.5-1.2 1.5-1.43 1.97-.11.1.28.18.57.23.86.02.16.02.34.04.5.69-.12 1.06-.23 1.36-.36 2.4-1.12 4.07-4.34 4.43-6.81.14-.97.1-1.81-.12-2.44-.07-.11-.7-1.09-.94-1.43l-.3-.4c-.42-.72-.43-1.61-.02-2.35.71-1.27 2.04-1.69 2.92-1.97l.45-.16c1.27-.66 1.89-1.91 2.17-2.85.55-1.78.38-3.95-.46-5.5z"/><path fill="#AA8165" d="M72.31 50.05c-.43-.89-1.1-1.35-2.11-.96-.79.3-1.35.95-2.07 1.36-.63.36-1.41.52-2.12.67-1.5.31-3.29.16-4.51-.83-.82-.67-1.5-1.41-1.77-2.53-.26-1.05-.15-3.34-1.78-2.85-.76.23-1.4 1.1-2.08 1.53-.66.41-1.5.64-2.25.72-1.54.16-3.19-.03-4.47-1.08-.91-.74-1.07-2.25-1.85-3.08-1.37-1.45-2.82.93-3.98 1.59-1.33.76-4.26 1.27-5.65.24-1.3-.96-1.55-3.81-3.61-1.79-1.01.98-1.56 2.17-2.25 3.41-.69 1.27-1.28 2.59-1.81 3.93-.66 1.65-.98 3.58-1.28 5.35-.63 3.74-2.38 7.24-2.27 11.04.36 12.07 11.56 19.36 21.64 19.12 3.77-.09 7.84-.72 11.52-1.8 6.47-1.92 11.62-7.88 13.04-15.03.64-3.22.5-6.6.4-9.97-.07-1.29.39-6.69-.74-9.04z"/><path fill="#724941" d="M127.09 74.29c.93-3.01.62-6.52-.8-9.16-.79-1.47-1.81-2.7-3.05-3.65-.62-.47-1.25-.76-1.84-.97.52-1.16 1.13-2.8 1.14-4.65.02-2.83-1.07-5.71-3.03-8.1-1.39-1.7-2.87-2.52-4.53-3.35-.29-.15-.6-.27-.91-.41 0 0-.32-.13-.3-.18.57-2.12.86-3.77.91-5.22.13-3.18-1.27-6.46-3.94-9.24-3.4-3.54-8.37-5.83-12.66-5.83-.75 0-1.41.14-2 .26l-.47.09c-.18-.27-.41-.68-.56-.95-.36-.64-.73-1.31-1.22-1.82-1.38-1.46-3.13-2.61-5.35-3.52-3.52-1.42-7.61-1.88-11.39-1.27-1.87.3-3.47 1.04-4.92 1.84-2.43-3.1-6.46-4.89-11.27-4.89-2.58 0-5.1.54-7.26 1.56-.31.15-2.01.98-3.43 2.08-2.01-1.01-3.8-1.67-5.99-1.67-1.18 0-2.38.2-3.67.6-2.63.82-5.1 2.33-6.85 4.48-.83 1.02-1.49 2.17-1.91 3.41-.41 1.19-.41 3.57-1.49 4.27-1.33.87-2.87 1.29-4.17 2.28-.43.33-.89.44-1.32.74-.39.28-.71.73-1.09 1.06-.54.47-1.1.81-1.58 1.39-.94 1.14-1.78 2.13-2.4 3.5-1.1 2.44-1.41 5.12-1.8 7.72-.1.66.1 1.36.02 2.02-.08.69-.18 1.29-.18 2.01 0 2.07-.11 4.17.61 6.15.72 1.97-.8 2.76-1.54 4.48-.39.91-.6 1.88-.82 2.83-.29 1.27-.35 2.47-.35 3.8 0 1.46.73 2.69.91 4.09.19 1.44.82 2.62 1.65 3.84.21.31.5.65.81.99l.3.34-.04.07c-2.14 4.26-1.87 9.65.7 13.75 1.29 2.06 3.13 3.79 5.46 5.08.09.05.11 1.42.14 1.61.08.54.2 1.08.36 1.61.3 1.04.74 2.04 1.3 2.97.56.93 1.23 1.79 2 2.56 1.54 1.54 4.16 2.79 6.21 3.44 1.75.55 3.65.53 5.34 1.28 2.04.91 3.81 2.31 5.83 3.25 1.08.51 2.21.93 3.35 1.27 2.31.69 4.73 1.04 7.14 1.04 2.45 0 4.92-.34 7.24-1.14 2.51-.86 5.17-2.41 7.25-4.05.21-.17.47-.41.71-.52.6-.26 1.71.4 2.3.58.94.28 1.91.47 2.88.59 5.4.66 11.26-.92 15.76-3.93.7-.47 1.37-1.23 2.19-1.49.96-.3 1.95.38 2.86.54 2.88.51 5.86.21 8.63-.71 3.47-1.15 5.44-3.97 6.81-7.17.26-.61 1.23-.81 1.76-1.07 2-.98 4.15-1.72 5.49-3.61 1.14-1.61 1.65-3.54 1.96-5.46.14-.88.25-1.76.22-2.65-.03-.88-.46-1.8-.46-2.63 0 0-.08-.22-.19-.55 2.15-1.06 3.76-3.07 4.54-5.61zm-6.69 1.45l-.45.16c-.88.27-2.21.69-2.92 1.97-.41.73-.4 1.63.02 2.35l.3.4c.24.34.87 1.31.94 1.43.22.63.26 1.47.12 2.44-.36 2.47-2.03 5.7-4.43 6.81-.29.14-.66.24-1.36.36-.02-.16-.02-.34-.04-.5-.06-.29-.14-.58-.23-.86-.47-1.32-1.47-1.1-1.97.11-.3.74-.43 1.49-.79 2.22-.2.42-.34.86-.5 1.3-.3.52-.54 1.04-.74 1.5-.11.27-.22.52-.33.71-.02.04-.05.07-.07.11-1.56 2.24-4.3 3.58-7.37 3.58h-.38c-.52-.02-1.18-.24-1.88-.47-.45-.15-.92-.3-1.42-.43.23-.43.45-.87.64-1.33.27-.63 1.19-2.95-.18-3.02-.58-.03-1.23.67-1.57 1.08-.44.53-.84 1.13-1.28 1.67-.52.64-.98 1.29-1.57 1.88-.21.2-.68.66-1.02 1.13l-.28.28c-3.05 2.53-7.16 3.27-10.08 3.45-1.89.12-3.79.03-5.63-.25-.34-.05-.76-.2-1.22-.34-.46-.14-.95-.28-1.46-.39.2-.6.35-1.2.41-1.75.05-.52.01-1.56-.48-1.87-.5-.31-1.33.18-1.7.52-.54.51-.91 1.12-1.4 1.68-.52.6-1.11 1.15-1.52 1.82-.13.2-.29.37-.45.54-.27.25-.5.5-.71.73l-.42.45c-2.4 2.12-5.9 3.29-9.86 3.29-4.7 0-9.46-1.7-12.4-4.42l-.2-.21-.27-.27c-.44-.56-.96-1.1-1.41-1.61-.4-.44-.79-.9-1.22-1.31-.37-.34-.85-1.1-1.42-1.07-.66.04-.45 1.49-.18 2.57.02.11.04.18.08.28-.49.02-.98.02-1.48-.03-4.77-.45-8.48-4.22-8.45-8.6 0-.49-.07-.9-.17-1.27-.02-.5-.03-.99-.01-1.48.04-.95.05-1.9-.23-2.79-.36-1.2-1.67-.37-2.14.2-.28.34-.45.72-.59 1.11-1.22-.79-2.27-1.81-3.02-3-1.68-2.69-1.88-6.35-.4-9.25.29-.5.89-1.54.6-2.83-.59-2.58-4.2-3.98-3.83-6.86.18-1.39.37-2.8.66-4.19.28-1.3.7-2.54 1.31-3.72.51-.99 1.4-1.72 1.79-2.74.25-.66.6-1.9 1.46-2.01-.35.05-1.19-4.96-1.21-5.39-.14-2.63-.33-6.18.29-8.75.41-1.72 1.31-3.32 2.43-4.67 2.26-2.71 5.62-4.58 9.15-4.89.75-.07 2.09-.16 2.4-1.02.51-1.39-1.79-2.28-2.64-2.59-.05-.02-.1-.02-.15-.04.07-.4.11-.79.15-1.13.02-.28.04-.55.09-.77.71-2.82 3.48-4.62 5.83-5.35 2.79-.88 4.4-.17 7.53 1.51 1.06.56 2.35.25 3.03-.7.72-.55 2.74-1.84 3.15-2.06 1.51-.71 3.37-1.11 5.23-1.11 1.49 0 6.46.31 8.32 4.35.28.6.8 1.06 1.43 1.26.63.21 1.32.12 1.89-.21l.57-.33c1.59-.93 3.09-1.81 4.72-2.08 2.93-.47 6.14-.11 8.85.98 1.6.66 2.79 1.42 3.7 2.4.19.21.34.54.53.88.76 1.36 1.91 3.41 4.22 3.42.7 0 1.33-.13 1.89-.25.4-.08.77-.16 1.04-.16 2.98 0 6.78 1.8 9.26 4.38 1.77 1.84 2.7 3.9 2.63 5.78-.04 1.06-.29 2.43-.75 4.17l-.14.4c-.25.68-.94 2.49 1.04 4.17.72.6 1.52.93 2.16 1.2l.61.27c1.46.73 2.23 1.2 2.97 2.11 1.26 1.53 1.97 3.38 1.96 5.09 0 .83-.27 1.77-.83 2.99l-.17.31c-.42.74-1.12 1.97-.61 3.4.31.85.98 1.51 1.9 1.86.36.14.73.25 1.09.36.52.16.93.28 1.18.47.69.54 1.29 1.26 1.77 2.14.83 1.55 1.01 3.72.44 5.53-.26.9-.87 2.15-2.15 2.81z"/><path fill="#724941" d="M29.82 34.04c1.58-1.12 3.17-1.93 4.94-2.73.5-.22 1.17-.32 1.11-1-.08-.97-1.09-1.01-1.78-1.3-5.06-2.18-11.64-1.84-16.64.25-2.84 1.18-5.48 2.84-7.72 4.94-3.56 3.34-6.64 7.82-8.07 12.48C-.81 54.67.6 67.76 10.75 69.97c2.59.56 6.84-.11 8.96-1.77 3.76-2.94 7.3-7.22 8.07-11.99.7-4.32.65-9.09-2-12.83-.43-.61-1.18-1.38-1.09-2.12.1-.82.38-1.64.79-2.36.76-1.35 1.73-2.59 2.87-3.67.46-.43.95-.82 1.47-1.19z"/><path fill="#2F2F2F" d="M34.57 61.89c-2.06-.6-3.21-3.12-2.55-5.64.68-2.5 2.89-4.07 4.96-3.46 2.06.58 3.21 3.12 2.52 5.63-.66 2.51-2.87 4.05-4.93 3.47zM48.2 75.19c-.62.19-1.22.29-1.85.4-.24.04-.5.06-.75.09-.36.05-.79-.02-1.13.12-.47.19-.39 1.44-.4 1.82 0 .68.03 1.37.09 2.05.02.27.08.67-.06.93-.15.27-.4.22-.67.2-.64-.05-1.31-.12-1.76-.64-.73-.85-.42-2.23-.29-3.22.04-.31.1-.62.11-.93l.02-.44-.16-.52-.51-.42c-.97-.94-2.11-1.6-2.68-2.89-.35-.8-.54-2.37.72-2.42 1.46-.07 2.22 1.89 3.17 2.64 1.29 1.01 2.93 1.01 4.45.61.76-.2 1.4-.65 2.15-.89.27-.08.57-.16.83-.22.87-.2 1.41.26 1.45 1.13.11 1.44-1.58 2.27-2.73 2.6zM57.53 66c-2.17-.36-3.63-2.78-3.26-5.41.38-2.62 2.44-4.48 4.6-4.12 2.16.34 3.63 2.77 3.24 5.4-.36 2.63-2.42 4.46-4.58 4.13z"/><path fill="#FBB817" d="M23.61 56.75c.21-.63.39-1.28.52-1.93.5-2.46.44-5.14-.69-7.42-.82-1.63-1.58-3.35-3.32-4.16-.9-.42-1.92.25-1.71-1.14.11-.73.44-1.43.75-2.09.45-.95 1.01-1.8 1.61-2.66.9-1.29 1.74-2.29 3.03-3.2.4-.28 2.53-1.45 2.45-2.06-.07-.58-1.65-.33-2.09-.29-2.17.18-4.41.77-6.38 1.69-4.83 2.23-8.82 6.59-10.9 11.46-2.09 4.9-3.44 10.86-1.05 15.91 2.5 5.27 10.12 6.27 14.07 2.11 1.55-1.67 2.99-4.06 3.71-6.22z"/><path fill="#724941" d="M22.54 42.17c-1.48-.96-3.28-1.1-4.96-.44-1.84.73-3.36 2.14-4.53 3.7-.58.77-1.11 1.6-1.51 2.48-.84 1.84-1.3 4.94.02 6.68 1.37 1.79 5.1-.48 3.42-1.97-.45-.39-1.13-.34-1.49-.85-.69-.97.2-2.77.67-3.64.72-1.32 1.81-2.42 3.19-3.05 1.25-.58 3.47-.59 4.65.31.76.58.94 2.11 2.11 1.4 1.57-.97.05-3.26-.87-4.08-.23-.21-.46-.39-.7-.54z"/><g><path fill="#724941" d="M97.36 46.44c-6.11-5.3-17.95-8.85-22.84-.06-1.08 1.95-1.96 4.22-2.17 6.45-.05.54-.12 1.09-.07 1.64.03.34.2.72.17 1.06-.07.86-1.42 1.45-1.99 2.01-5.53 5.43-5.4 16.43-.23 22.01 1.55 1.67 3.89 3.58 6.01 4.46 9.79 4.07 23.37 1.58 27.91-8.88 3.45-7.97 3.2-15.93-1.91-23.14-1.41-1.96-3.07-3.97-4.88-5.55z"/><path fill="#FBB817" d="M94.88 49.78c-5.13-4.5-15.05-7.61-18.25.78-.43 1.13-.56 2.49-.43 3.68.1.99.83 1.67.99 2.61-.56.56-1.53.73-2.17 1.27-1.3 1.08-2.41 2.33-3.19 3.83a12.09 12.09 0 0 0-1.36 5.63c.01 1.32.01 2.5.47 3.77.36 1.01.63 2.14 1.2 3.05.52.83 1.01 1.6 1.66 2.35 1.12 1.28 2.5 2.31 4.04 3.04.75.35 1.54.64 2.34.85 8.24 2.19 18.93-.81 21.4-9.86.64-2.36 1.1-5.53.72-7.96-.46-2.96-1.66-5.79-3.3-8.28a24.03 24.03 0 0 0-4.12-4.76z"/><path fill="#724941" d="M81.79 57.35c-1.81-.64-3.89-.33-5.65.36-.88.34-1.86.77-2.44 1.53-.69.88-1.57 1.62-2.12 2.59-.51.89-.85 1.87-1.29 2.79-.23.49-.47 1.63-1.04 1.8-.86.24-.96-1.34-.92-1.87.06-.83.06-1.67.26-2.47.19-.77.6-1.45.85-2.2 1.16-3.42 5.02-5.54 8.36-6.32 7.26-1.69 15.49 6.64 12.93 13.91-.4 1.13-1.26 2.05-2.25 2.7-1.9 1.25-5.98 2.07-6.93-.82-.33-1.01.25-2.55 1.55-2.35.68.1 1.04.72 1.81.67.67-.04 1.31-.44 1.66-1 .92-1.49.6-3.95-.2-5.43-.98-1.83-2.68-3.21-4.58-3.89z"/></g></svg>