<svg xmlns="http://www.w3.org/2000/svg" xmlns:xlink="http://www.w3.org/1999/xlink" width="128" height="128" viewBox="0 0 128 128"><path fill="#2F2F2F" d="M124.47 46.83c.71-.16 1.5-.78 2.18-.61.55.14.59.9.68 1.33.71 3.19-.39 6.81-3.44 8.29-1.08.53-2.17.83-3.39.53-1.7-.43-3.45-1.21-4.1-3.01-.3-.84-.29-1.94.01-2.78.27-.75.81-1.89 1.46-2.39.88-.67 1.89-1.17 2.99-1.3 1.11-.14 2.19.02 3.3-.02.11 0 .21-.02.31-.04z"/><path fill="#2F2F2F" d="M82.43 39.2c-.03-.22-.04-.44-.02-.67.23-2.16 3.22-3.08 5.03-3.26 7.3-.73 16.82-.58 22.18 5.28 1.41 1.54 2.24 3.44 2.99 5.37.11.29.23.58.34.87.81 2.02 2.46 5.2 5.17 4.02.62-.27.86-.51 1.57-.49 1.01.03 2.01 1.06 1.7 2.15-.21.75-1.84 1.41-2.5 1.63-2.18.73-4.72-.09-6.29-1.72-1.63-1.7-2.32-3.98-3.37-6.03-1.19-2.35-2.79-3.95-5.18-5.1-3.4-1.64-7.48-1.54-11.18-1.55-1.13 0-2.23.28-3.36.37-1.03.07-2.04-.1-3.08.07-.79.13-1.54.64-2.31.72-1 .07-1.58-.75-1.69-1.66zM71.44 81.14c.89 2.45 1.12 4.78 1.48 7.34.19 1.32-.17 2.89.42 4.13.84 1.74 3.09 1.34 4.7 1.15 1.64-.2 4.52-1.02 5.18-2.81.75-2.03.27-4.64-.03-6.72-.34-2.35.22-4.78-.44-7.11-.62-2.22-2.56-3.87-4.94-3.35-1.49.33-2.68 1.42-3.97 2.16-.97.55-2.56.98-2.81 2.24-.19.97.04 1.96.41 2.97z"/><path fill="#FFF" d="M113.89 91.96c-.05-2.72-.2-5.46-.59-8.15-.59-4.06-1.36-8.1-2.31-12.09-2.71-11.38-3.91-23.27-11.9-32.51-9.11-10.53-23.65-13.55-36.95-11.44-8.25 1.31-17.76 4.16-25.06 8.31-1.62.92-2.33 1.92-2.95 3.7-1.94 5.64-3.51 11.47-6.25 16.79-.98 1.92-1.51 3.94-1.82 6.01-.11.07-.23.14-.37.25-.9.67-1.5 1.06-2.14 2.08-1.4 2.25-2.3 5.11-2.43 7.76-.12 2.46 1.22 4.21 1.97 6.42 1.25 3.7 2.7 7.37 3.33 11.24.68 4.13 1.52 8.58 1.57 12.77.03 1.92-1.49 5.4 1.07 6.2 2.35.73 5.6.06 7.92-.6 2.67-.75 2.27-3.88 2.15-6.11-.01-.16-.01-.31-.02-.46-.11-3.77.4-7.08 1.57-10.44 3.11 1.02 6.63 1.62 9.62 1.88 1 2.66 1.99 5.36 2.39 8.04.52 3.48 1.16 6.87 1.08 10.4-.05 2.08-.16 5.24 2.39 5.89.82.21 2.02.23 2.88.25 1.17.03 2.61.21 3.69-.19 4.75-1.75 3.45-10.17 3.17-13.94-.33-4.56.01-9.02.33-13.5.05-.03.11-.05.16-.08 1.55-.97 3.31-1.46 4.9-2.35 1.17-.65 2.06-1.4 3.4-1.71 4.91-1.12 9.76-2.81 14.68-3.7 1.97-.35 3.95-.67 5.93-.98 2.32.89 4.5 1.96 6.01 3.92 1.1 1.43 1.19 2.6 1.41 4.27.27 2.06.73 4.14 1.03 6.21.38 2.57 2.97 2.36 5.13 2.36 1.2 0 1.94.08 2.95-.6.74-.5 1.73-1.21 2.03-2.1.36-1.05.05-2.67.03-3.8z"/><path fill="#2F2F2F" d="M60.88 120.34c-.42 0-.85-.03-1.26-.04l-.87-.03c-.95-.03-2.13-.06-3.11-.31-4.14-1.06-4.03-5.67-3.98-7.89.07-2.87-.35-5.59-.8-8.47l-.25-1.66c-.31-2.09-1.04-4.26-1.83-6.39-2.32-.27-4.62-.69-6.71-1.24-.67 2.49-.95 5-.87 7.77l.04.9c.14 2.31.41 6.6-3.7 7.76-3.88 1.1-6.85 1.28-9.12.58-3.63-1.13-3.02-4.96-2.71-6.79.08-.52.17-1.07.17-1.39-.04-3.53-.68-7.3-1.29-10.95l-.25-1.51c-.49-2.93-1.46-5.74-2.5-8.71l-.75-2.19c-.21-.62-.48-1.2-.73-1.77-.68-1.51-1.45-3.22-1.35-5.42.14-3 1.15-6.19 2.74-8.76.77-1.24 1.54-1.83 2.37-2.44.41-2.21 1.01-4.06 1.88-5.75 2.01-3.91 3.42-8.23 4.78-12.42.45-1.37.89-2.74 1.36-4.1.67-1.96 1.59-3.53 3.89-4.84 6.93-3.94 16.32-7.06 25.77-8.56 2.75-.43 5.54-.66 8.28-.66 12.59 0 23.46 4.54 30.59 12.8 6.9 7.97 8.98 17.77 11 27.25.43 2.05.87 4.11 1.36 6.14.97 4.07 1.76 8.21 2.35 12.28.36 2.43.54 5.02.61 8.41 0 .28.04.59.06.91.09 1.14.2 2.44-.21 3.62-.48 1.42-1.65 2.36-2.85 3.17-1.31.89-2.43.96-3.47.96h-1.57c-1.55 0-5.68 0-6.29-4.16-.13-.9-.3-1.8-.46-2.71-.21-1.18-.42-2.36-.57-3.53l-.04-.28c-.18-1.39-.26-2.08-.95-2.98-1.12-1.46-2.84-2.34-4.59-3.03-1.77.27-3.55.56-5.31.88-2.76.5-5.59 1.29-8.33 2.05-2.04.57-4.15 1.15-6.26 1.63-.63.14-1.17.48-1.85.9-.32.2-.64.4-.99.59-.82.46-1.64.81-2.44 1.15-.57.24-1.12.48-1.63.74-.29 4.11-.54 8.03-.25 12.07.03.37.07.8.11 1.26.39 4.43 1.13 12.67-4.65 14.81-.71.22-1.53.35-2.57.35zM40.68 89.6c.22 0 .44.03.66.1 2.66.87 5.91 1.51 9.14 1.79.81.07 1.51.59 1.79 1.36.97 2.59 2.07 5.53 2.5 8.47l.25 1.63c.46 2.93.92 5.96.85 9.12-.04 1.85-.02 3.59.81 3.81.52.14 1.48.16 2.18.18l.96.03c.84.05 1.78.06 2.17-.09 2.77-1.02 2.22-7.18 1.92-10.49-.04-.49-.08-.93-.11-1.33-.34-4.6-.01-9.12.3-13.48l.03-.32c.05-.68.43-1.3 1.01-1.65.06-.03.19-.11.26-.13.86-.55 1.87-.97 2.83-1.38.69-.29 1.38-.58 2.03-.94.29-.16.55-.33.82-.49.85-.53 1.82-1.13 3.13-1.43 2.02-.45 4.08-1.02 6.07-1.58 2.83-.78 5.75-1.59 8.7-2.13 1.98-.36 3.98-.67 5.97-.98.37-.06.73-.02 1.08.11 2.5.96 5.06 2.18 6.93 4.6 1.38 1.81 1.58 3.36 1.79 5l.04.28c.14 1.1.34 2.21.54 3.33.17.94.34 1.89.48 2.84.05.32.09.57 2.14.57h1.57c.66 0 .81-.03 1.12-.25.95-.63 1.17-.93 1.22-1.04.12-.35.04-1.3-.01-1.92-.03-.42-.06-.81-.07-1.16-.07-3.2-.24-5.64-.56-7.9-.57-3.95-1.34-7.96-2.28-11.9-.5-2.07-.94-4.16-1.38-6.24-1.99-9.37-3.87-18.22-10.06-25.38-6.33-7.32-16.06-11.35-27.42-11.35-2.52 0-5.08.21-7.62.61-8.84 1.4-17.94 4.42-24.35 8.06-1.09.62-1.52 1.17-2 2.56-.46 1.34-.89 2.68-1.33 4.04-1.42 4.34-2.88 8.83-5.04 13.04-.77 1.5-1.29 3.2-1.61 5.36-.09.62-.46 1.17-1 1.49-.05.03-.11.07-.18.11l-.24.18c-.71.53-1.01.75-1.38 1.34-1.21 1.95-2 4.48-2.11 6.75-.06 1.19.4 2.21.98 3.5.31.69.63 1.4.88 2.15.24.72.49 1.43.74 2.15 1.05 3.01 2.14 6.13 2.68 9.42l.25 1.49c.64 3.81 1.3 7.75 1.35 11.6.01.68-.11 1.4-.22 2.1-.1.65-.3 1.85-.15 2.2 1.29.2 3.71.15 6.69-.69.65-.18.8-.99.65-3.46l-.05-1.03c-.12-4 .42-7.56 1.69-11.19.29-.9 1.1-1.44 1.97-1.44z"/><path fill="#2F2F2F" d="M67.82 42.55c.64.94 1.45 1.8 2.52 2.55 2.19 1.54 4.38 2.71 7 2.79 2.68.08 5.38.02 8.05 0 5.93-.03 7.11 7.4 12.25 8.83 1.29.36 2.87.46 4.21.63 1.34.17 3.02.07 4.2-.62 5.03-2.91-1.48-10.99-3.56-13.72-4.64-6.1-11.06-10.46-18.07-13.41-3.45-1.45-6.36-2.65-10.33-2.7-1.83-.03-5.74-1.01-7.33-.08-1.39.82-1.18 3.36-1.34 4.71-.21 1.79-.16 4.06.28 5.8.5 1.93 1.09 3.69 2.12 5.22z"/><defs><path id="a" d="M64.48 34.34c-.35-2.42-1.76-3.18-3.78-2.73-1.86.41-3.25.96-5.37.84-.77-.04-1.54-.09-2.3-.13-.11 0-.21-.01-.32-.01-.13-.17-.25-.36-.38-.52-2.08-2.47-4.71-4.08-7.57-5.12-4.22-1.53-8.99-1.84-13.35-1.9-2.62-.03-5.13.58-7.41 1.67-1.62.77-2.97 1.78-4.13 2.95-.13.1-.28.18-.43.27-.55.32-1.1.56-1.62.75-1.88.65-3.65.53-6 .41-1.8-.09-3.43-.45-4.33 1.33-.72 1.42-.47 3.75.7 5.04 1.52 1.67 4.11 2.03 6.71 1.58-.24.87-.46 1.76-.65 2.65-.96 4.68-1.63 9.51-3.41 13.85-1.13 2.73-3.37 4.9-4.7 7.51-6.7 13.05 11.14 19.09 21.06 19.07 5.52-.01 9.72-.85 13.69-4.5.94-.87 1.8-1.9 2.53-2.95 1.28-1.83 1.27-4.28 2.71-6.18 3.86-5.11 9.54-8.16 11.08-14.91.92-4.09.81-8.62-.39-12.88 1.13.04 2.29-.13 3.08-.32 2.45-.59 5.03-2.75 4.58-5.77z"/></defs><use xlink:href="#a" overflow="visible" fill="#FFF"/><clipPath id="b"><use xlink:href="#a" overflow="visible"/></clipPath><path clip-path="url(#b)" fill="#2F2F2F" d="M26.24 51.54c-2.7 2.82-6.79 5.53-10.8 5.97-4.77.54-9.57.92-14.6-.39.04-.8.58-1.59.8-2.46.49-1.79.72-3.59 1.32-5.35.61-1.69 1.75-4.3.39-5.78-1.43-1.55-3.67-2.06-4.95-3.78-2.04-2.72-1.27-7.75.16-10.3 4.21-7.51 13.72-7.31 21.41-8.77 3.24-.61 6.63-1.22 9.59 1.21 2.65 2.17 3.54 5.68 3.75 8.78.54 8.13-1.74 15.28-7.07 20.87z"/><path fill="#2F2F2F" d="M31.21 24.78h.2c4.37.06 9.13.36 13.35 1.9 2.86 1.04 5.49 2.64 7.57 5.12.13.16.25.35.38.52.12 0 .22.01.32.01.76.04 1.53.09 2.3.13.19.01.38.02.56.02 1.81 0 3.11-.49 4.8-.86.37-.08.71-.12 1.03-.12 1.46 0 2.46.87 2.75 2.85.45 3.02-2.12 5.18-4.58 5.77-.71.18-1.73.33-2.76.33-.1 0-.21 0-.32-.01 1.2 4.27 1.31 8.79.39 12.88-1.55 6.76-7.23 9.8-11.08 14.91-1.44 1.9-1.43 4.35-2.71 6.18-.73 1.05-1.59 2.08-2.53 2.95-3.97 3.66-8.17 4.5-13.69 4.5h-.05c-9.93 0-27.69-6.04-21-19.07 1.33-2.62 3.57-4.79 4.7-7.51 1.78-4.34 2.45-9.17 3.41-13.85.2-.89.42-1.79.65-2.65-.67.12-1.34.18-1.99.18-1.88 0-3.59-.52-4.72-1.76-1.17-1.29-1.41-3.62-.7-5.04.6-1.19 1.53-1.43 2.61-1.43.54 0 1.12.06 1.72.09.93.05 1.76.09 2.55.09 1.21 0 2.3-.11 3.44-.5.52-.19 1.06-.43 1.62-.75.15-.09.3-.17.43-.27 1.16-1.17 2.5-2.17 4.13-2.95 2.23-1.05 4.68-1.66 7.22-1.66m0-4.2c-3.09 0-6.12.7-9.02 2.08-1.8.86-3.46 2.01-4.94 3.42-.26.14-.55.28-.87.39-.5.17-1.1.25-2.01.25-.67 0-1.37-.04-2.14-.08l-.19-.01-.53-.03c-.49-.03-.96-.07-1.42-.07-3.7 0-5.5 2.04-6.36 3.74-1.53 3.03-.96 7.22 1.33 9.75 1.22 1.33 2.79 2.26 4.63 2.75-.05.29-.11.57-.16.87-.69 3.61-1.35 7.03-2.59 10.05-.42 1.04-1.21 2.14-2.06 3.31-.82 1.14-1.75 2.44-2.49 3.9-3.27 6.36-1.79 11.24.03 14.21 4.91 8.04 17.47 10.95 24.72 10.95 5.49-.01 11.25-.7 16.59-5.62 1.12-1.04 2.18-2.27 3.14-3.66.97-1.38 1.43-2.86 1.8-4.04.26-.84.49-1.57.79-1.97 1.11-1.47 2.43-2.78 3.84-4.17 3.14-3.11 6.7-6.64 8-12.35.75-3.3.9-6.85.48-10.32 4-1.35 7.6-5.19 6.85-10.22-.56-3.9-3.28-6.43-6.9-6.43-.63 0-1.28.08-1.95.23-.46.1-.91.21-1.34.32-.99.25-1.71.43-2.54.43-.11 0-.22 0-.34-.01-.27-.02-.53-.03-.8-.05-2.28-2.4-5.15-4.25-8.57-5.48-4.93-1.79-10.22-2.09-14.74-2.15h-.24v.01z"/><path fill="#FCC21B" d="M49.57 31.57c.83.43 1.73.69 2.51.71 1.95.08 3.05-1.81 3.74-3.36.77-1.75 1.87-4.27 1.33-6.19-.61-2.17-2.8-1.61-4.42-.95-.88.36-1.71.87-2.5 1.4-1.42.96-2.97 1.77-3.39 3.6-.47 2.07.95 3.88 2.73 4.79zM21.62 29.46c-.83.43-1.73.68-2.51.71-1.95.07-3.06-1.81-3.74-3.36-.77-1.76-1.87-4.27-1.33-6.19.61-2.17 2.8-1.6 4.42-.95.89.36 1.71.86 2.5 1.39 1.42.96 2.97 1.77 3.39 3.6.47 2.09-.95 3.89-2.73 4.8z"/><g><path fill="#2F2F2F" d="M39.68 48.2c-.41 2.24.86 4.73 2.83 5.6 1.97.83 3.93-.25 4.36-2.45.41-2.22-.82-4.73-2.81-5.6-2-.89-3.96.21-4.38 2.45z"/><path fill="#FFF" d="M18.9 44.08c-1.47.95-2.18 3.08-1.59 4.78.63 1.68 2.28 2.29 3.72 1.36 1.44-.95 2.16-3.08 1.58-4.76-.6-1.69-2.26-2.33-3.71-1.38z"/><path fill="#2F2F2F" d="M15.61 69.54c.94.66 1.63 1.62 1.65 2.67.03 1.92-1.77 2.4-3.32 2.07-2-.43-3.17-1.64-3.29-3.7-.05-.94.67-1.55 1.52-1.8 1.06-.33 2.39.03 3.44.76zM32.05 70.76c1.16.25 2.08 1.02 2.14 2.47.04 1.18-1.19 2.04-2.1 2.57-1.06.63-2.84.66-3.98.23-1.45-.55-1.72-2.44-.88-3.63.91-1.28 3.13-2.01 4.82-1.64z"/></g><path fill="#FCC21B" d="M14.56 71c-.36-.24-.77-.36-1.33-.34-.88.02-1.74.68-2.38 1.45-4.2 5.22-1.11 10.54 3.38 12.7 4.76 2.36 13.02 2.58 17.56-2.52 1.06-1.23 2.03-3.36 2.04-4.93.11-1.3-.23-3.07-1.07-4.05-.8-.86-2.46-.92-3.62-.56-.67.25-1.25.9-1.6 1.55-.34.7.01 1.25-.09 1.96.03.6-.11 1.16-.56 1.64-2.04 2.38-5.96 2.48-8.25 1.79-1.25-.39-2.59-1.12-3.32-2.06-.61-.64-.62-1.66-.49-2.56.16-1 .95-1.71.72-2.61-.2-.64-.44-1.14-.99-1.46z"/><path fill="#2F2F2F" d="M113.74 91.3c-.89 1.25-3.81 1.71-5.25 1.75-1.83.05-3.17-.13-4.85-.57-.22 1.21-.25 3.4.55 4.44.9 1.16 2.59 1.21 3.95 1.39 1.45.19 3.01-.39 4.19-1.14 1.55-.98 2.07-1.94 2.11-3.76l-.7-2.11zM66.14 110.56c-2.3.62-4.19 1.39-6.65 1.39-1.01.01-1.94.01-2.81-.34-.79-.32-1.54-1.02-2.38-1.02.02 1.56-.8 3.21-.43 4.87.32 1.44 2.47 1.94 3.87 2.1 1.63.19 3.78.01 5.25-.61.89-.37 1.8-1.13 2.38-1.88.62-.79.55-1.73 1.12-2.43l-.35-2.08zM38.13 102.5c-1.47 2.34-8.21 1.73-10.26.84-.47.62-.5 3.28-.25 4.08.43 1.42 2.46 1.31 3.86 1.47 3.47.39 6.62.32 6.65-3.93v-2.46zM37.64 87.22c.3.05.63.18.95.38 1.6.97 2.48 2.43 4.45 3 1.16.34 2.93.15 3.9.97 1.73 1.46-1.95 1.82-3.12 2.18-1.83.57-3.68.48-5.1-.89-1.07-1.04-2.69-3.17-2.31-4.79.16-.72.65-.94 1.23-.85zM64.78 71.89c-.91.94-1.33 2.22-.74 3.67.81 2.04 1.85 3.13 1.48 5.31-.55 3.2-1.72 6.32-1.3 9.7.07.59-.04.96.37 1.43.39.44.85.66 1.4.31.17-.11.29-.37.43-.53.26-.28.59-.47.89-.71.54-.44 1.07-.89 1.63-1.3 2.22-1.64 4.87-2.75 7.5-3.56 1.27-.39 2.5-.89 3.78-1.26.78-.22 1.67-.53 2.46-.64.67-.1 1.38-.11 2.04-.26 1.02-.23 1.58-.32 1.06-1.43-.44-.94-.96-1.77-1.67-2.54-1.34-1.44-3.15-2.64-5.09-3.09-1.7-.38-3.29-.18-4.39-1.9-1.03-1.62-1.58-2.81-3.25-4.05-1.91-1.39-5.01-.8-6.6.85zM108.15 62.95c-1.38-.21-3.21 1.6-4.13 2.45-.98.9-1.56 2.27-1.92 3.58-.55 2.02-.67 5.07.54 6.84 1.26 1.86 2.99 2.83 5.08 3.31.96.22 4.95 1.02 5.33-.43l-4.9-15.75z"/></svg>