<svg xmlns="http://www.w3.org/2000/svg" width="128" height="128" viewBox="0 0 128 128"><path fill="#FFF" d="M105.1 96.18c.9-.49 2.08-.94 2.91-.91 6.6.26 6.17 9.44-.19 9.85-4.65.3-7.49-5.53-3.5-8.45.22-.16.49-.33.78-.49z"/><path fill="#78A3AD" d="M107.92 95.27h.09c6.6.26 6.17 9.44-.19 9.85-.12.01-.24.01-.35.01-4.44 0-7.04-5.62-3.15-8.46.21-.16.48-.33.78-.49.87-.48 2-.91 2.82-.91m0-5.4c-2.09 0-4.1.86-5.41 1.58-.53.3-.98.58-1.38.87-3.52 2.58-4.95 6.89-3.61 10.99 1.41 4.32 5.41 7.21 9.95 7.21.23 0 .46 0 .7-.02 5.77-.37 10.07-4.96 10-10.67-.07-5.54-4.26-9.73-9.95-9.95-.07 0-.23-.01-.3-.01z"/><g fill="#78A3AD"><path d="M75.96 66.08c.31 2.36.86 4.4 2.63 6.09 1.43 1.35 2.92 2.48 4.26 3.94 3.86 4.22 10.29 5.48 14.36 9.98 2.74 3.02 4.68 6.81 5.75 10.73 1.22 4.45 2.07 9.44.96 13.99-1.54 6.33-7.02 7.31-12.76 8.43-4.51.87-8.77 1.2-13.39 1.21-2.85.01-5.51-2.43-4.04-5.52 1.25-2.63 5.27-1.18 6.91-3.2.48-.58.38-2 .57-2.72.29-1.12.66-2.25 1.36-3.19.83-1.1 5.42-3.21 3.55-4.64-1.65-1.27-5.71 1.64-6.33 2.85-.7 1.38-.56 2.76-.86 4.21-.34 1.64-.87 1.79-2.49 2.31-1.57.51-5.23.82-5.69 2.78-.56 2.36 1.52 4.48-.53 6.7-1.91 2.07-4.25 2.39-7.03 2.34-.94-.02-3.51-.12-4.14-1.04-.55-.79.1-2.98.2-3.8.23-1.79-.22-3.59-1.34-5.03-.35-.44-2.77-2.96-3.05-1.37-.3 1.77-.27 4.28-.06 6.07.65 5.48-8.65 6.98-10.97 2.93-.95-1.66.41-5.83.37-7.66-.07-3.79-.47-8-1.21-11.74-.33-1.7-.77-3.37-1.36-4.99-.32-.88-2.03-3.55-1.75-4.4.28-.88 1.12-.8 1.79-1.12.78-.38 1.3-.99 1.97-1.55 1.87-1.61 3.79-3.16 5.68-4.73 3.77-3.15 7.55-6.29 11.32-9.44 1.55-1.29 3.44-2.5 4.58-4.16 1.22-1.78 9.08-12.5 10.39-6.58.15.78.25 1.55.35 2.32z"/><path d="M74 62.02c.74 0 1.32.51 1.6 1.77.16.76.26 1.53.36 2.29.31 2.36.86 4.4 2.63 6.09 1.43 1.35 2.92 2.48 4.26 3.94 3.86 4.22 10.29 5.48 14.36 9.98 2.74 3.02 4.68 6.81 5.75 10.73 1.22 4.45 2.07 9.44.96 13.99-1.54 6.33-7.02 7.31-12.76 8.43-4.51.87-8.77 1.2-13.39 1.21h-.01c-2.85 0-5.5-2.43-4.03-5.52 1.25-2.63 5.27-1.18 6.91-3.2.48-.58.38-2 .57-2.72.29-1.12.66-2.25 1.36-3.19.83-1.1 5.42-3.21 3.55-4.64-.29-.22-.65-.32-1.04-.32-1.91 0-4.78 2.17-5.29 3.17-.7 1.38-.56 2.76-.86 4.21-.34 1.64-.87 1.79-2.49 2.31-1.57.51-5.23.82-5.69 2.78-.56 2.36 1.52 4.48-.53 6.7-1.78 1.94-3.95 2.35-6.5 2.35h-.53c-.94-.02-3.51-.12-4.14-1.04-.55-.79.1-2.98.2-3.8.23-1.79-.22-3.59-1.34-5.03-.26-.34-1.75-1.89-2.55-1.89-.25 0-.43.14-.5.52-.3 1.77-.27 4.28-.06 6.07.4 3.36-2.96 5.23-6.14 5.23-2 0-3.94-.74-4.83-2.3-.95-1.66.41-5.83.37-7.66-.07-3.79-.47-8-1.21-11.74-.33-1.7-.77-3.37-1.36-4.99-.32-.88-2.03-3.55-1.75-4.4.28-.88 1.12-.8 1.79-1.12.78-.38 1.3-.99 1.97-1.55 1.87-1.61 3.79-3.16 5.68-4.73 3.77-3.15 7.55-6.29 11.32-9.44 1.55-1.29 3.44-2.5 4.58-4.16.95-1.39 6.03-8.33 8.78-8.33m0-5.4c-3.92 0-8.37 3.59-13.24 10.68-.38.55-1.32 1.28-2.22 1.98-.47.36-.93.72-1.37 1.09l-11.32 9.44c-.64.53-1.27 1.05-1.9 1.58-1.29 1.06-2.57 2.12-3.84 3.21-.23.2-.45.4-.67.6-.06.05-.12.12-.18.17-2.32.75-3.84 2.21-4.53 4.35-.89 2.74.4 5.2 1.53 7.36.13.25.25.47.34.65.43 1.2.79 2.53 1.09 4.08.64 3.26 1.04 7.09 1.11 10.79-.01.2-.15 1-.24 1.53-.45 2.65-1.01 5.94.58 8.72 1.8 3.13 5.35 5 9.51 5 2.63 0 5.16-.76 7.17-2.1 2.04 1.68 4.87 1.98 7.25 2.03.22.01.43.01.64.01 2.58 0 6.22-.34 9.38-3.04 1.41.71 3.01 1.1 4.66 1.1 5.29-.01 9.87-.43 14.43-1.31l.21-.04c6.09-1.18 14.44-2.79 16.77-12.41 1.5-6.19.15-12.49-1-16.69-1.35-4.95-3.76-9.42-6.96-12.94-2.69-2.96-5.95-4.73-8.82-6.28-2.19-1.19-4.27-2.31-5.55-3.71-1.05-1.14-2.13-2.09-3.08-2.92-.49-.42-.97-.85-1.45-1.3-.38-.37-.73-.84-.99-2.87l-.02-.13c-.1-.79-.22-1.68-.42-2.62-.98-4.44-4.32-6.01-6.87-6.01z"/></g><path fill="#FFF" d="M75.96 66.08c.31 2.36.86 4.4 2.63 6.09 1.43 1.35 2.92 2.48 4.26 3.94 3.86 4.22 10.29 5.48 14.36 9.98 2.74 3.02 4.68 6.81 5.75 10.73 1.22 4.45 2.07 9.44.96 13.99-1.54 6.33-7.02 7.31-12.76 8.43-2.65.5-5.32.85-8.01 1.03-2.14.14-4.61.52-6.75.31-1.88-.19-2.25-2.71-1.75-4.22.52-1.61 2.13-2.27 3.61-2.62.73-.18 1.51.01 2.26-.14 1.38-.27 1.95-1.2 1.94-2.57 0-1.86.61-3.45 1.45-5.09.38-.74 1.02-1.41 1.63-1.99.63-.6 1.69-1.43 1.08-2.41-1.08-1.7-4.17.02-5.23.81-1.62 1.22-2.77 3.02-3.27 4.97-.69 2.73-1.25 2.92-3.78 3.99-1.45.61-2.77 1.52-3.39 3.03-.95 2.29.65 4.95-1.76 6.64-2.11 1.48-8.42 2.18-9.46-1.01-.31-.95.31-2.03.45-2.9.29-1.99.49-4.32.06-6.29-.16-.7-.52-1.05-1.21-1.21-.76-.17-1.57-.16-2.34-.13-.46.02-1.15.14-1.45.53-.37.47-.19 1.37-.2 1.92 0 1.19-.02 2.37-.06 3.56-.1 2.73-.41 5.31-3.29 6.49-1.96.8-4.47.8-6.32-.29-.62-.37-1.15-.86-1.51-1.48-.95-1.66.41-5.83.37-7.66-.07-3.79-.47-8-1.21-11.74-.33-1.7-.77-3.37-1.36-4.99-.32-.88-2.03-3.55-1.75-4.4.28-.88 1.12-.8 1.79-1.12.78-.38 1.3-.99 1.97-1.55 1.87-1.61 3.79-3.16 5.68-4.73 3.77-3.15 7.55-6.29 11.32-9.44 1.55-1.29 3.44-2.5 4.58-4.16 1.22-1.78 9.08-12.5 10.39-6.58.12.74.22 1.51.32 2.28z"/><g><path fill="#FFF" d="M79.8 54.27c-.03 3.11 1.67 8.72 2.9 11.25 1.83 3.75 3.44 7.69 4.11 11.82.88 5.49.15 11.33-4.02 15.29-6.39 6.06-14.86 8.8-23.54 9.05-.42.01-.85.02-1.29.02-11.23 0-28.49-3.96-32.22-15.9-1.1-3.51-.73-8.84.76-12.2 1.86-4.19 2.61-9.4 4.62-13.97 1.31-2.98 3.17-6.16 5.85-8.09.82-.59 2.05-1.08 2.14-2.22.1-1.26-1.23-3.25-1.88-4.27-5.02-7.9-12.08-14.14-18.27-21.08-1.27-1.43-2.03-3.33-2.79-5.12-.74-1.7-.95-3.48-.94-5.36 0-3.12 2.49-5.61 5.29-6.64 2.91-1.07 6.33-.59 9.21.34 2.02.65 3.91 1.66 5.64 2.88 5.42 3.83 10.12 9.02 13.13 14.95 3.27 6.43 3.75 13.36 5.27 20.29.31 1.42.63 1.79 2.16 1.79 1.63 0 3.28.16 4.91.22.92.03 2.01.14 2.83-.36 1.98-1.19 2.39-5.23 2.99-7.27C69.3 30.65 71.7 18.8 78 11.39a18.55 18.55 0 0 1 5.81-4.55c.35-.18.77-.35 1.22-.5 2.56-.88 5.73-1.21 8.25-.01 4.18 1.99 4.14 7.63 3.43 11.52-.89 4.87-4.76 11.84-7.18 16.07-2.24 3.87-9.69 15.51-9.73 20.35z"/><path fill="#78A3AD" d="M89.5 5.55c1.31 0 2.6.23 3.76.77 4.18 1.99 4.14 7.63 3.43 11.52-.89 4.87-4.76 11.84-7.18 16.07-2.22 3.87-9.67 15.51-9.72 20.35-.03 3.11 1.67 8.72 2.9 11.25 1.83 3.75 3.44 7.69 4.11 11.82.88 5.49.15 11.33-4.02 15.29-6.39 6.06-14.86 8.8-23.54 9.05-.42.01-.85.02-1.29.02-11.23 0-28.49-3.96-32.22-15.9-1.1-3.51-.73-8.84.76-12.2 1.86-4.19 2.61-9.4 4.62-13.97 1.31-2.98 3.17-6.16 5.85-8.09.82-.59 2.05-1.08 2.14-2.22.1-1.26-1.23-3.25-1.88-4.27-5.02-7.9-12.08-14.14-18.27-21.08-1.27-1.43-2.03-3.33-2.79-5.12-.74-1.7-.95-3.48-.94-5.36 0-3.12 2.49-5.61 5.29-6.64 1.17-.43 2.42-.61 3.69-.61 1.88 0 3.8.4 5.52.95 2.02.65 3.91 1.66 5.64 2.88 5.42 3.83 10.12 9.02 13.13 14.95 3.27 6.43 3.75 13.36 5.27 20.29.31 1.42.63 1.79 2.16 1.79 1.63 0 3.28.16 4.91.22.33.02.68.03 1.03.03.63 0 1.27-.07 1.8-.39 1.98-1.19 2.39-5.23 2.99-7.27 2.64-9.04 5.04-20.89 11.34-28.3a18.55 18.55 0 0 1 5.81-4.55c.35-.18.77-.35 1.22-.5 1.38-.46 2.94-.78 4.48-.78m0-5.39c-2.02 0-4.18.37-6.24 1.08-.66.22-1.29.48-1.87.77a23.94 23.94 0 0 0-7.51 5.89c-6.04 7.11-8.74 16.98-11.12 25.7-.43 1.58-.85 3.12-1.28 4.57-.17.56-.32 1.22-.48 1.95-.11.47-.26 1.18-.43 1.79-.44-.02-.88-.05-1.32-.08-.23-.01-.46-.03-.69-.04-.19-.97-.36-1.95-.54-2.97-.95-5.32-1.94-10.83-4.7-16.26C49.97 16 44.84 10.15 38.48 5.65c-2.28-1.6-4.66-2.81-7.09-3.6C28.9 1.24 26.48.84 24.2.84c-1.98 0-3.85.31-5.54.94-5.28 1.93-8.83 6.64-8.83 11.7 0 2.92.44 5.29 1.38 7.49l.18.41c.8 1.87 1.79 4.2 3.55 6.17 1.91 2.13 3.89 4.2 5.8 6.21 4.47 4.66 8.7 9.07 11.94 14.17l.04.07c-2.56 2.18-4.71 5.29-6.54 9.44-1.18 2.68-1.94 5.38-2.67 7.99-.62 2.2-1.2 4.28-1.95 5.98-2.03 4.58-2.45 11.31-.99 15.99 4.86 15.54 25.78 19.69 37.38 19.69.51 0 1 0 1.48-.03 10.76-.29 20.13-3.94 27.07-10.52 4.96-4.7 6.96-11.82 5.63-20.06-.84-5.19-2.89-9.85-4.58-13.33-1.02-2.1-2.37-6.85-2.36-8.82.08-1.88 2.66-7.07 7.65-15.44.54-.91 1-1.68 1.35-2.28 3.12-5.42 6.82-12.34 7.81-17.79 1.54-8.37-.81-14.7-6.42-17.36C93.77.59 91.72.16 89.5.16z"/><path fill="#2F2F2F" d="M41.32 72.58c-2.36-.02-4.28 2.21-4.3 4.96-.01 2.76 1.89 4.99 4.26 5.02 2.35.01 4.28-2.21 4.3-4.97.01-2.74-1.9-5-4.26-5.01zM69.91 72.58c-2.36.01-4.27 2.27-4.24 5.01 0 2.76 1.94 4.97 4.29 4.97 2.37-.02 4.27-2.26 4.26-5.02-.02-2.75-1.95-4.98-4.31-4.96zM66.05 91.35c-1.47-.75-2.9 1.6-4.29 1.6-.61 0-1.12-.1-1.71-.23-.73-.15-1.36-.3-1.58-1.08-.09-.29-.05-.62-.1-.95-.05-.26-.09-.51-.11-.77.66-.24 1.28-.58 1.76-1.09.53-.55 1.48-1.37 1.48-2.21 0-.55-.27-1.09-.81-1.15-.57-.07-.94.23-1.39.55-1.08.77-2.31 1.15-3.66 1.06-.95-.06-1.69-.47-2.39-1.09-.32-.28-.62-.59-.96-.62-.19-.02-.39.05-.59.28-1.4 1.52.39 3.21 1.76 3.77.49.21.91.44 1.37.61 0 .7-.01 1.4-.02 1.53-.07.9-1.02 1.36-1.86 1.57-.71.18-1.71.05-2.38-.23-.62-.25-1.01-.87-1.45-1.33-.45-.49-.75-.53-1.4-.37-1.3.32-1.11 1.34-.69 2.37.44 1.1 1.41 1.52 2.4 2.06 1.05.58 2.38.65 3.56.53.61-.05 1.22-.16 1.8-.37.96-.34 1.66-1.49 2.67-.72 1.37 1.05 3.72.98 5.35.73 1.09-.19 5.23-3.44 3.24-4.45z"/><path fill="#D7598B" d="M86.78 13.93c-1.66.31-3.37 1.48-4.3 2.5-1.88 2.05-3.08 4.66-4.17 7.19-1.53 3.57-3.78 9.89-5 13.57-.57 1.72-1.12 3.42-1.62 5.17-.49 1.73-1.12 3.4-1.18 5.21-.03.9.2 1.19 1.05 1.55.87.37 1.95.92 2.89 1.03.55.07.75.05 1.05-.35.25-.35.44-.87.72-1.26 1.22-1.71 1.89-4 2.89-5.86 1.18-2.23 2.47-4.4 3.63-6.64 1.61-3.11 4.49-8.72 5.87-11.95.91-2.12 3.19-7.68.89-9.6-.77-.62-1.73-.74-2.72-.56zM48.3 47.2c1.72-1.06-.14-5-.57-6.39-1.02-3.26-2.52-6.34-4.02-9.39-3.29-6.68-7.63-13.37-14.19-17.23-1.22-.72-2.4-1.32-3.82-.92-1.96.56-2.77 1.55-2.64 3.63.29 4.54 6.36 8.87 9.08 12.11 2.26 2.69 4.32 5.55 6.28 8.46 1.67 2.47 3.03 5.14 4.45 7.77.39.72.99 2.56 1.85 2.9.65.24 2.62-.36 3.58-.94z"/></g></svg>