<svg xmlns="http://www.w3.org/2000/svg" width="128" height="128" viewBox="0 0 128 128"><path fill="#FFF" d="M35.32 18.65c.45-4.72 3.68-8.4 7.2-8.19 3.54.19 6.03 4.2 5.59 8.92-.45 4.73-3.7 8.39-7.22 8.19-3.52-.22-6.03-4.19-5.57-8.92zM10.14 18.4c-.41-4.4 1.91-8.14 5.21-8.32 3.29-.2 6.3 3.24 6.72 7.64.43 4.41-1.92 8.12-5.19 8.32-3.29.19-6.31-3.23-6.74-7.64zM39.76 66.68c-1.04 1.76-2.69 3.34-4.42 4.42-3.43 2.15-7.8 2.55-11.57 1.11-1.74-.66-3.31-1.73-4.54-3.12-1.41-1.61-3.09-5.8-.54-7.22 1.53-.86 3.51.19 4.93.79 1.17.49 2.33.81 3.45.95 1.97.26 3.93-.01 6-.84 1.72-.68 3.54-1.69 5.44-.99 1.77.66 2.08 3.48 1.25 4.9z"/><path fill="#FCC21B" d="M85.5 105.11c-6.16.51-12.63-.79-17.85-4.24-12.98-8.59-9.02-27.15-11.84-40.12-.55-2.55-2.11-5.71-3.63-7.82a20.607 20.607 0 0 0-6.22-5.65c-1.55-.91-3.23-1.63-5-2.19.06-.15.1-.32.17-.47.66-1.57 1.43-3.15 2.01-4.74 2.34-6.41 10.18-8.64 12.65-15.1 1.21-3.14 1.6-7.14.99-10.91 4.14-3.07 17.4-10.99 35.92-3.67 20.8 8.23 28.57 31.71 27.05 51.32-.69 8.69-2.83 15.8-5.54 21.56-1.92 3.82-5.3 8.94-10.26 10.39-3.06.89-6.57.17-9.87-2.04-6.97-4.67-11.8-14.97-13.23-28.27-1.43-13.31 2.68-23.19 7-28 2.02-2.25 4.26-3.55 6.14-3.55 2.85 0 6.01 1.99 7.62 4.22 5.63 7.8 5.73 18.63 3.92 27.73-.76 3.8-3.76 9.69-8.16 5.76-2.06-1.85-2.44-7.56-2.38-10.11.04-2.6.17-5.48 1.03-7.96.23-.68.59-2.26-.3-2.69-1.7-.8-3.69 3.04-4.08 4.01-2.88 7.09-1.74 20.01 6.11 23.56 6.93 3.13 10.68-4.15 12.55-9.41 2.47-7 2.39-14.68.91-21.9-1.81-8.83-6.65-18.9-17.22-18.9-3.55 0-7.23 1.93-10.39 5.44-5.14 5.72-10.06 17.24-8.42 32.43 2.21 20.51 10.81 29.11 15.73 32.4 3.31 2.22 6.86 3.36 10.31 3.37-2.23 1.09-4.25 2.67-6.63 3.57-2.91 1.09-6.01 1.71-9.09 1.98z"/><path fill="#F79329" d="M94.8 4.9c-19.19-7.59-33.61-.8-39.86 3.29-1.23-2.3-3-4.21-5.4-5.35-2.97-1.41-8.45-1.09-11.44.12l-.23.1c-4.03 1.72-6.73 4.64-8.34 8.12-1.22-4.24-3.66-8.04-8.03-9.67C9.08-3.13-.35 8.5 3.08 20.11c1.49 5.05 4.55 9.49 7.7 13.64 1.72 2.26 3.11 4.88 4.11 7.53.19.5 1.16 3.81 1.5 6.02-4.24 3.04-7.28 7.74-9.04 12.69-.39 1.11-.72 2.25-.98 3.42-1.17 5.27-1.04 11.71-.09 17 3.13 17.42 13.93 33.55 29.54 42.06 6.94 3.79 15 5.34 22.87 5.04 9.29-.36 18.5-4.21 26.73-8.29 5.22-2.6 10.9-6.41 15.01-11.17 2.36-1.47 12.08-8.21 18.77-22.18 1.49-2.96 2.24-5.29 2.32-5.53.01-.02 0-.04.01-.07 1.91-5.26 3.36-11.3 3.89-18.29 1.7-21.72-7.11-47.78-30.62-57.08zM35.32 18.65c.45-4.72 3.68-8.4 7.2-8.19 3.54.19 6.03 4.2 5.59 8.92-.45 4.73-3.7 8.39-7.22 8.19-3.52-.22-6.03-4.19-5.57-8.92zM26.77 31.5c.6-1.76 1.3-3.51 1.95-5.28 1.08 3.19 3.12 5.89 3.84 9.12.59 2.65.21 5.5-.19 8.26a38.33 38.33 0 0 0-6.63.25c-.14-4.17-.35-8.31 1.03-12.35zM10.14 18.4c-.41-4.4 1.91-8.14 5.21-8.32 3.29-.2 6.3 3.24 6.72 7.64.43 4.41-1.92 8.12-5.19 8.32-3.29.19-6.31-3.23-6.74-7.64zm29.62 48.28c-1.04 1.76-2.69 3.34-4.42 4.42-3.43 2.15-7.8 2.55-11.57 1.11-1.74-.66-3.31-1.73-4.54-3.12-1.41-1.61-3.09-5.8-.54-7.22 1.53-.86 3.51.19 4.93.79 1.17.49 2.33.81 3.45.95 1.97.26 3.93-.01 6-.84 1.72-.68 3.54-1.69 5.44-.99 1.77.66 2.08 3.48 1.25 4.9zm45.74 38.43c-6.16.51-12.63-.79-17.85-4.24-12.98-8.59-9.02-27.15-11.84-40.12-.55-2.55-2.11-5.71-3.63-7.82a20.607 20.607 0 0 0-6.22-5.65c-1.55-.91-3.23-1.63-5-2.19.06-.15.1-.32.17-.47.66-1.57 1.43-3.15 2.01-4.74 2.34-6.41 10.18-8.64 12.65-15.1 1.21-3.14 1.6-7.14.99-10.91 4.14-3.07 17.4-10.99 35.92-3.67 20.8 8.23 28.57 31.71 27.05 51.32-.69 8.69-2.83 15.8-5.54 21.56-1.92 3.82-5.3 8.94-10.26 10.39-3.06.89-6.57.17-9.87-2.04-6.97-4.67-11.8-14.97-13.23-28.27-1.43-13.31 2.68-23.19 7-28 2.02-2.25 4.26-3.55 6.14-3.55 2.85 0 6.01 1.99 7.62 4.22 5.63 7.8 5.73 18.63 3.92 27.73-.76 3.8-3.76 9.69-8.16 5.76-2.06-1.85-2.44-7.56-2.38-10.11.04-2.6.17-5.48 1.03-7.96.23-.68.59-2.26-.3-2.69-1.7-.8-3.69 3.04-4.08 4.01-2.88 7.09-1.74 20.01 6.11 23.56 6.93 3.13 10.68-4.15 12.55-9.41 2.47-7 2.39-14.68.91-21.9-1.81-8.83-6.65-18.9-17.22-18.9-3.55 0-7.23 1.93-10.39 5.44-5.14 5.72-10.06 17.24-8.42 32.43 2.21 20.51 10.81 29.11 15.73 32.4 3.31 2.22 6.86 3.36 10.31 3.37-2.23 1.09-4.25 2.67-6.63 3.57-2.91 1.09-6.01 1.71-9.09 1.98z"/></svg>