<svg xmlns="http://www.w3.org/2000/svg" width="128" height="128" viewBox="0 0 128 128"><path fill="#78A3AD" d="M98.83 87.13c-.17-1.31.49-2.92 1.64-3.27 1.56-.47 3.85.34 5.35.81 6.9 2.15 14.89 7.95 15.2 15.85.49 12.66-12.37 21.35-23.25 24.27a80.947 80.947 0 0 1-13.37 2.4c-7.51.69-15.14.65-22.57-.72-3.7-.68-7.38-1.7-10.85-3.18-2.68-1.14-7.45-2.93-9.2-5.44-.34-.49-.9-1.34.07-1.47.51-.07 1.2.56 1.62.78 8.05 4.04 17.2 6.1 26.17 6.14 1.71 0 3.43-.01 5.13-.06 5.28-.16 10.58-.62 15.75-1.75 9.96-2.18 27.14-9.82 23.32-22.91-1.52-5.21-7.06-7.89-11.95-8.95-.58-.12-.81-.4-1.32-.68-.33-.19-.87-.23-1.15-.5-.34-.33-.53-.8-.59-1.32z"/><path fill="#FFF" d="M103.25 80.64c-.32-1.35-.71-2.64-1.15-3.87-3.71-10.33-13.51-17.79-22.2-24.03 2.83-.79 5.46-2.05 7.66-3.84 7.37-5.99 9.33-17 4.81-25.61-5.26-10-16.61-15.28-27.24-11.8-6.27 2.06-11.29 8.2-13.61 15.14-.98-.37-1.99-.67-3.02-.93 1.15-4.16.89-8.87-.44-12.45-3.4-9.14-16.04-13.3-25.4-8.51-4.29 2.22-7.79 5.9-8.88 10.54-.88 3.56-.7 8.87.87 12.02.98 2.01 3.57 5.76 6.27 7.71-3.03 3.46-5.66 7.57-7.59 11.86-3.17 7.01-4.5 14.53-2.8 20.53 2.69 9.45 14.34 10.12 23.14 9.98-.03 0-.79 1.93-.9 2.12-.37.67-.8 1.37-1.31 1.95-1.71 1.94-4.07 3.21-3.53 6.23.48 2.65 2.64 4.4 5.24 4.46 1.84.05 3.6-.63 5.07-1.71 1.43-1.06 2.33-3 3.92-3.8 2.18-1.09 1.96 3.8 2.23 5.02.27 1.23.88 2.46 1.4 3.62.3.68.78 1.2 1.15 1.84.93 1.62-4.13 3.95-5.05 4.47-1.31.73-2.51 1.32-3.36 2.61-.95 1.45-1.06 3.31-.15 4.8 1.37 2.23 4.06 2.46 6.38 2.46 4.19 0 7.66-2.64 10.99-4.95.73-.5 1.5-1.31 2.33-1.61 1.72-.61 3.72-.29 5.5-.29.38 0 .8-.05 1.19 0 .35.04.57.24.96.24.1.48-1.27 1.09-1.6 1.29-1.65.97-4.32 1.97-4.88 4-1.84 6.7 7.33 8.03 11.67 6.23 2-.83 3.79-2.11 5.5-3.43 3.14-2.42 6.26-3.97 9.84-5.63.77-.36 1.49-.7 2.28-1.03 3.85-1.62 7.32-3.79 10.12-6.95 4.64-5.24 6.22-11.91 4.59-18.68z"/><path fill="#78A3AD" d="M66.79 119.45c-3.8 0-7.08-1.33-8.78-3.55-.94-1.23-1.88-3.34-1.04-6.4.14-.52.35-.99.62-1.42-.17.13-.34.26-.5.37l-.68.47c-3.29 2.29-7.01 4.89-11.65 4.89-1.85 0-6.19 0-8.4-3.58-1.36-2.21-1.29-5.08.18-7.34 1.1-1.67 2.55-2.48 3.84-3.2l.9-.49c1.64-.84 2.53-1.41 3.01-1.78a7.51 7.51 0 0 1-.68-1.18l-.19-.43c-.5-1.09-1.07-2.33-1.36-3.66-.07-.34-.13-.88-.18-1.52-.01-.15-.03-.35-.05-.56-.04.05-.08.1-.12.14-.57.69-1.22 1.48-2.07 2.11-1.92 1.43-4.1 2.18-6.31 2.18-3.98-.09-7.07-2.72-7.74-6.4-.65-3.6 1.47-5.65 3.02-7.14.36-.34.73-.69 1.07-1.08.04-.04.07-.09.11-.13-6.52-.12-18.58-1.25-21.55-11.7-1.76-6.21-.73-14.07 2.92-22.14 1.7-3.78 3.91-7.41 6.44-10.61-2.36-2.31-4.29-5.3-5.1-6.96-1.93-3.87-1.98-9.79-1.03-13.62 1.17-4.95 4.85-9.36 10.09-12.08 2.9-1.49 6.23-2.27 9.62-2.27 8.73 0 16.4 4.85 19.09 12.07.93 2.51 1.37 5.36 1.32 8.21 3.08-5.53 7.7-9.71 12.81-11.39 2.41-.79 4.91-1.19 7.42-1.19 9.38 0 18.06 5.41 22.64 14.13 5.07 9.64 2.74 21.92-5.41 28.54a22.277 22.277 0 0 1-4.23 2.67c8.31 6.21 16.13 13.2 19.5 22.56.47 1.32.88 2.71 1.22 4.13 1.83 7.61.02 15-5.11 20.79-2.8 3.16-6.4 5.63-10.98 7.56-.66.28-1.27.56-1.91.86l-.29.14c-3.37 1.57-6.4 3.05-9.4 5.37-1.8 1.38-3.78 2.8-6.04 3.74-1.39.56-3.18.89-5.02.89zm-.81-16.97c1.01.11 1.86.86 2.06 1.88.44 2.14-1.68 3.25-2.58 3.73-.48.27-.85.47-1.25.68-.99.52-2.49 1.31-2.67 1.97-.36 1.3-.04 1.93.23 2.29.79 1.02 2.75 1.69 5.01 1.69 1.21 0 2.39-.2 3.23-.55 1.65-.68 3.18-1.74 4.96-3.12 3.38-2.6 6.8-4.28 10.29-5.9l.29-.14c.7-.32 1.36-.63 2.08-.93 3.91-1.64 6.94-3.72 9.27-6.34 4.07-4.6 5.51-10.47 4.05-16.54-.3-1.25-.66-2.47-1.08-3.63-3.38-9.41-12.4-16.47-21.35-22.9a2.359 2.359 0 0 1-.95-2.33c.15-.9.81-1.62 1.69-1.87 2.66-.74 4.95-1.89 6.81-3.39 6.44-5.24 8.25-14.98 4.21-22.67-3.76-7.16-10.83-11.6-18.45-11.6-2.02 0-4.02.32-5.95.95-5.23 1.72-9.87 6.95-12.11 13.65-.2.61-.65 1.11-1.22 1.39-.58.28-1.25.3-1.84.08-.87-.32-1.78-.6-2.78-.85-.62-.16-1.14-.55-1.46-1.11-.32-.54-.41-1.2-.24-1.82.97-3.52.83-7.74-.38-11-1.97-5.29-8-8.99-14.66-8.99-2.64 0-5.22.61-7.46 1.75-4.01 2.07-6.8 5.35-7.65 8.99-.83 3.35-.52 8.01.68 10.42.9 1.85 3.31 5.23 5.54 6.85.54.39.89.99.96 1.65.08.66-.13 1.32-.57 1.82-2.87 3.29-5.37 7.18-7.22 11.27-3.14 6.96-4.12 13.85-2.68 18.91 1.62 5.72 7.52 8.28 19.1 8.28.57 0 1.13 0 1.68-.01 1.36.01 2.44 1.02 2.45 2.34 0 .42-.1.8-.29 1.15-.07.18-.21.51-.35.84-.25.6-.5 1.18-.56 1.29-.54.99-1.05 1.74-1.61 2.37-.42.47-.88.92-1.32 1.35-1.47 1.42-1.83 1.89-1.65 2.9.27 1.49 1.44 2.47 2.97 2.51h.01c1.6 0 2.83-.67 3.59-1.25.39-.29.81-.79 1.25-1.33.78-.94 1.67-2.01 3.01-2.69.54-.27 1.09-.41 1.63-.41 3.37 0 3.69 4 3.87 6.15.03.37.05.68.08.89.18.83.62 1.79 1.04 2.71l.2.44c.12.26.29.48.45.72.2.29.41.59.59.91.45.78.55 1.68.29 2.55-.56 1.9-2.64 3.3-5.82 4.94l-.77.42c-1.13.63-1.75.99-2.18 1.66-.48.73-.53 1.6-.12 2.26.59.96 1.82 1.33 4.38 1.33 3.15 0 5.96-1.97 8.94-4.04l.7-.48c.19-.13.38-.29.58-.45.6-.49 1.36-1.1 2.31-1.44 1.28-.46 2.59-.51 3.46-.51.52 0 1.04.02 1.56.05.43.02.86.04 1.27.04l.82-.02c.21 0 .42.01.62.03.48.03.8.14 1.01.21z"/><path fill="#2F2F2F" d="M47.99 53.33c0 3.39-2.27 6.12-5.06 6.12-2.8 0-5.08-2.73-5.08-6.12 0-3.38 2.28-6.12 5.08-6.12 2.8 0 5.06 2.74 5.06 6.12zM16.28 67.35c.87 2.53-.44 5.27-2.95 6.13-2.49.86-5.23-.48-6.1-3-.87-2.52.45-5.27 2.95-6.13 2.5-.86 5.23.48 6.1 3z"/><path fill="#FCD4B5" d="M61.15 33.23c-.44-.43-.89-.86-1.14-1.31-1.39-2.48 1.88-6.99 3.46-8.6 6.59-6.72 19.81-1.39 21.03 7.85 1.14 8.64-6.57 15.72-14.72 14.52-.87-.13-2.55-.29-3.13-1.1-.36-.51-.34-1.8-.49-2.41-.8-3.24-2.66-6.65-5.01-8.95zM31.06 10.44c3.28.18 6.18 2.46 7.77 5.97 1.1 2.43 1.57 5.57.42 8.22-.5 1.15-1.69 1.51-2.79 2.04-1.46.73-2.98 1.26-4.44 2.04-.61.33-1.21.59-1.83.94-.43.26-.77.54-1.27.48-.32-.05-.72-.2-1.03-.27-2.71-.66-4.67-2.68-5.83-4.99-2.98-5.87 1.35-14.84 9-14.43z"/><path fill="#78A3AD" d="M61.86 89.71c-.4 1.2-1.09 2.38-1.54 2.9-2.15 2.5-5.11 3.52-8.22 2.07-2.6-1.21-5.08-4.27-4.38-7.36.64-2.79 3.29-4.64 3.87-7.38.14-.67.1-1.52.97-1.73 1.5-.35 1.71 1.79 1.57 2.78-.12.87-.44 1.73-.79 2.54-.39.92-.96 1.75-1.41 2.66-.53 1.08-1.1 2.42-.29 3.55 1.01 1.42 2.92 1.76 4.5 1.22 1.73-.59 2.97-2.38 3.96-3.81.47-.7 1.15-.62 1.73-.05.64.63.29 1.83.03 2.61zM72.06 88.64c.16.46-.43 1.19-.88 1.8-.59.82-1.02 1.58-1.3 2.56-.55 1.87-.46 4.66.5 6.37.6 1.07 1.81 1.92 1.77 3.26-.08 2.81-4.57 4.13-6.59 5.25-.27.15-.59.49-.91.52-.34.02-.39-.24-.61-.44-.59-.54-.97-1.06-1.37-1.78-.21-.38-.43-.74-.47-1.18-.08-.82.02-1.5.79-1.95.31-.18.74-.23 1.08-.31.35-.09.67-.25 1.01-.37.47-.17 1.2-.13 1.56-.54.49-.58-.31-1.61-.46-2.21-.54-2.17-.6-4.49.1-6.65.69-2.11 2.44-5.01 4.96-4.74.5.04.74.2.82.41z"/></svg>