<svg xmlns="http://www.w3.org/2000/svg" width="128" height="128" viewBox="0 0 128 128"><g fill="#78A3AD"><path d="M15.11 54.25c-5.36 0-9.75-2.3-12.69-6.64C0 44.04-.48 39.42 1.03 34.24c.72-2.44 1.93-4.68 3.5-6.48 1.09-1.27 5.01-4.44 7.8-2.97.86.45 1.25 1.12 1.55 1.74.83 1.74-2.01 4.9-2.25 5.72-.36 1.19-.34 2.27.05 2.83.89 1.26 2.99 1.09 4.13-.14.25-.27.5-.67.72-1.07.49-1.15 1.21-2.41 2.02-3.5 1.3-1.75 2.88-3.25 4.69-4.44 2.78-1.84 6.08-2.98 9.28-3.2 2.12-.13 4.52-.03 6.08.37 3.66.94 5.2 1.92 5.2 1.92s-3.67 1.24-3.69 1.73c-.07 1.92-1.79 2.77-2.71 3.22-.16.08-.33.15-.46.24-.83.56-1.69 1.51-2.55 2.85 1.01 2.23 1.18 4.74.48 7.21-1.66 5.84-7.59 10.84-12.33 12.57-2.53.94-5.03 1.41-7.43 1.41z"/><path d="M71.54 50.66c-2.29 0-4.55-.25-6.71-.74-4.71-1.07-8.78-2.76-12.79-5.32l-2.99-1.86c-3.08-1.94-6.48-4.4-7.97-9.09-.66-2.05-.49-4.1.47-5.93 1.15-2.18 3.4-3.92 6.18-4.76 4.68-1.42 9.61.59 13.51 2.48 1.67.81 2.92 2.09 4.01 3.22.34.34.66.68 1 .99 4.06 3.84 8.08 5.24 11.41 3.73 2.29-1.04 3.7-4.66 3.41-8.45-.18-2.33-1.77-4.17-1.78-5.95-.02-2.28 1.58-2.63 3.06-2.63 2.16 0 4.8 2.56 6.35 4.15 1.77 1.82 2.4 3.61 2.82 4.83 2.33 6.79.64 15.08-4.48 19.95-3.65 3.48-9.15 5.38-15.5 5.38z"/></g><path fill="#2F2F2F" d="M39.63 85.37s-1.24-1.85-2.69-5.93l24.5-25.63 8.29 3.39.95 13.38-7.73 12.81-14.32 4.52-9-2.54z"/><path fill="#FFF" d="M11.42 27.24c-.04-.1-.14-.19-.27-.26-.55-.29-1.74.13-2.25.37-.97.45-1.81 1.25-2.5 2.05-1.38 1.58-2.39 3.54-2.99 5.54-1.1 3.81-1.23 7.9 1.06 11.28 4.05 5.98 10.9 6.62 17.2 4.3 4.48-1.64 9.46-6.25 10.79-10.92 1.71-6.03-3.42-11.58-9.67-9.43-2.95 1.02-3.28 4.39-5.18 6.46-2.11 2.27-6.02 2.67-8-.14-.99-1.42-.87-3.37-.4-4.95.24-.81.59-1.66 1.12-2.32.39-.48 1.54-1.24 1.09-1.98z"/><path fill="#78A3AD" d="M124.38 86c-.06-5.5-.48-11.01-.6-16.51 0-.07-.02-.14-.02-.21.15-1.71.18-3.39.1-4.92-.23-4.51-1.61-8.88-3.75-12.83-1.22-2.24-2.58-4.4-4.11-6.44-2.76-3.67-6.58-7.9-11.42-8.45-3.56-.41-7.16 0-10.44-1.67-3.36-1.71-5.76-4.83-8.8-6.98-2.06-1.45-4.3-2.62-6.5-3.9-5.72-3.33-11.7-4.63-17.52-4.17-6.86.55-13.5 3.55-19.25 8.58-5.19 4.54.1 4.86 2 9.04 1 2.2.54 3.71-.19 5.9-1.3 3.89-2.66 7.77-4.53 11.43-.04.08-.07.16-.11.24 5.31-2.59 11.34-3.18 16.98-.6.25.11.53.24.83.38 12.28 5.49.42 13.35-4.04 18.8-1.22 1.49-1.56 3.1-2.4 4.76-1.86 3.64-6.21 6.85-10.35 6.92-.21 0-.43.02-.64.03.43.66.89 1.3 1.4 1.9 1.24 1.48 2.83 2.87 4.35 4.05 1.08.83 2.35 1.1 3.48 1.8 2.95 1.85 3.71 6.1 4.19 9.26.26 1.71.35 3.58.35 5.3 0 1.56-1.34 4.4-.15 5.67 1.81 1.97 4.76 1.43 6.85.31 2.79-1.49 3.09-3.24 2.47-6.21-.07-.31-.13-.61-.18-.9-.31-1.71.05-3.36.02-5.1-.04-2.3-.09-4.6-.02-6.89.4.04.82.11 1.2.14 1.57.13 3.24.13 4.91.06.33 1.37.84 2.7 1.2 4.1.82 3.2 1.71 6.41 2.08 9.7.15 1.36.03 2.79.37 4.12.33 1.24.64 2.37.71 3.67.04.79.07 1.81.33 2.59.49 1.48 2.31 2.18 3.81 2.23 1.69.06 3.39-.59 4.71-1.59.81-.62 1-.77 1.19-1.75.24-1.29.57-2.86.14-4.13-.5-1.49-.98-2.85-1.22-4.47-.68-4.63-.21-9.37.09-14.09 8.04.58 15.17-4.7 20.41-10.37.47-.52.88-1.08 1.36-1.6.22-.23.56-.64.84-.76.36-.14.73.11 1.02.27.47.26.95.45 1.43.68 1.01.48 2 .97 3.1 1.24 1.06.26 2.19.57 2.81 1.53 1.02 1.54 1.57 3.29 1.77 5.11.14 1.28.53 3.61.17 4.83-1.76 5.95 5.19 7.01 8.17 2.68 2.45-3.56 1.44-8.76 1.4-12.78z"/><path fill="#78A3AD" d="M52.19 26.67c-3.96-1.82-8.32-2.38-12.86-.63-3.06 1.19-6.31 1.94-9.05 3.78-2.41 1.62-4.38 3.78-5.7 6.36-2.62 5.13-2.63 11.19-2.49 16.82.06 2.28.61 5.21.03 7.39-.79 2.98-3.11 5.63-3.62 8.67-.51 2.97.88 6.84 3.1 8.84 2.68 2.41 6.79 4.42 10.39 4.63 6.1.36 13.07-.02 15.48-6.8.63-1.8.89-2.46 2.26-3.83 1.55-1.55 3.17-2.92 4.8-4.35 5.85-5.17 10.29-11.92 9.47-20-.36-3.59-.38-7.32-1.39-10.8-.39-1.33-.96-2.99-1.97-3.99-2.5-2.46-5.35-4.65-8.45-6.09zM106.45 38.53c.67 1.74 4.14 2.62 5.68 3.12 2.03.66 3.9 1.7 6.1 1.42 5.41-.71 7.28-7.01 4.39-11.2-1.23-1.76-3.09-2.97-4.88-4.08-1.86-1.14-7.68-3.47-5.56-6.52.36-.51 1.14-.71 1.72-.53.48.14.6.53.74.96.5 1.44 1.27 2.2 2.64 2.87 1.38.68 2.71 1.61 3.98 2.47 1.61 1.09 3.11 2.34 4.35 3.84 3.99 4.8 2.43 12.24-3.33 14.91-2.32 1.08-5.03 1.31-7.54.94-1.51-.22-5.59-.95-6.41-2.18l-1.88-6.02z"/><path fill="#78A3AD" d="M113.83 11.59c.6-.12 1.22-.19 1.81-.23.69-.04 2.81.09 2.24 1.29-.26.55-.77.91-.95 1.51-.68 2.22 1.17 4.47.5 6.75-1.6 5.39-9.85 3.76-9.51-1.78.12-1.9.6-3.57 1.78-5.07.54-.69 1.01-1.18 1.78-1.63.72-.42 1.52-.68 2.35-.84z"/><path fill="#2F2F2F" d="M44.94 50.74c-.95 1.96-.34 4.53 1.34 5.74 1.7 1.2 3.85.6 4.8-1.35.94-1.96.34-4.55-1.35-5.75-1.69-1.19-3.84-.59-4.79 1.36zM24.79 72.46c.42.13.85.34 1.21.61.69.52 1.36 1.23 1.12 2.16-.66 2.55-3.37.42-4.03-.9-.94-1.92.37-2.28 1.7-1.87zM39.22 74.05c1.33-.08 2.74.48 2.12 1.96-.59 1.44-2.92 2.17-4.32 2.12-1.26-.06-2.5-.57-2.02-2.02.54-1.6 2.82-1.96 4.22-2.06z"/><path fill="#FFF" d="M20.53 31.86c1.11-1.5 2.48-2.8 4.07-3.85 2.35-1.55 5.26-2.6 8.08-2.79 1.29-.08 3.06-.05 4.22.63 1.9 1.12-.46 1.71-1.36 2.31-2.91 1.95-4.95 6.33-6.26 9.56-.36.9-.62 2.1-1.26 2.86-1.33 1.59-3.38 2.31-4.73 3.83-1.2 1.35-.96 2.24-1.13 3.85-.12 1.13-.55 2.08-1.85 1.5-3.65-1.62-3.28-6.77-2.91-10a16.15 16.15 0 0 1 3.13-7.9zM50.36 40.63c.98.61 1.99 1.22 3.01 1.87 3.82 2.44 7.62 4 12 4.99 6.48 1.47 14.96.73 19.95-4.01 4.02-3.82 5.59-10.13 4.32-15.66-.38-1.64-1.58-4.44-3.52-6.39-1.75-1.76-4.38-3.81-4.42-1.71-.03.98 1.3 2.38 1.58 3.35 1.42 4.78.21 10.39-4.6 12.57-5.15 2.33-10.4-.65-14.14-4.19-1.38-1.29-2.66-2.94-4.4-3.79-3.74-1.82-7.48-3.63-11.7-2.34-3.36 1.02-6.2 3.82-5 7.55 1.21 3.83 3.89 5.85 6.92 7.76z"/></svg>