<svg xmlns="http://www.w3.org/2000/svg" xmlns:xlink="http://www.w3.org/1999/xlink" width="128" height="128" viewBox="0 0 128 128"><path fill="#2F2F2F" d="M77.653 103.659s-4.812-.267-6.24-2.494l-.267-14.604 13.356-5.343 3.188 4.393s-.042 2.066.1 4.574l-10.137 13.474z"/><path fill="#2F2F2F" d="M52.86 93.199s-2.283-1.697-5.622-1.697l-5.609-33.925 41.588-37.67s3.088-.127 7.371.392l7.539 3.754 8.681 17.363 2.938 17.096-6.277 14.425-31.522 13.624-19.087 6.638zM24.466 106.856s-1.544-16.044-1.97-21.838l2.571-3.934-3.038-7.636s-.702-10.662-.167-16.004l17.63 17.363 3.222 22.067.367 4.714-4.524 8.88-9.617-.801-4.474-2.811z"/><path fill="#005792" d="M87.791 90.186c-.017.009-.042.017-.05.025-.472.225-.927.442-1.369.618-1.853.743-3.498 1.235-5.05 1.519-.785.142-1.561.184-2.25.226a17.2 17.2 0 0 0-1.239.1c-.442 1.277-.397 3.602-.367 5.209.017.501.025.985.025 1.44 0 1.314.059 2.734.163 4.336 2.309.025 4.721.301 6.903-.626 1.515-.634 2.667-1.177 3.135-2.838.267-.951.317-1.961.342-2.951l.021-.53c.113-1.845-.133-3.715-.238-5.56-.018-.317-.018-.643-.026-.968zM43.081 101.588c-5.217 2.771-11.386 4.508-18.615 5.268-.083 1.794-.021 3.895 1.502 4.762 2.504 1.423 5.418 2.142 8.298 2.142.568 0 1.135-.034 1.694-.084 1.92-.192 4.141-.609 5.723-1.778 2.024-1.486 1.815-3.606 1.699-5.843-.075-1.486-.259-2.98-.301-4.467zM30.535 81.512c.852-.98 1.027-1.778.985-1.953-.209-.367-1.616-1.035-2.367-1.394a27.539 27.539 0 0 1-1.795-.901c-1.607-.893-3.56-2.116-5.33-3.815-.059 2.604-.017 5.201.117 7.738.066 1.285.192 2.559.35 3.831 3.473-.346 6.061-1.226 8.04-3.506z"/><defs><path id="a" d="M125.765 74.117l-.326-.042c-.893 0-1.586 1.002-2.237 1.494-.701.526-1.444.756-2.166.756-.405 0-.797-.071-1.189-.201-4.75-1.594-4.742-9.12-4.5-13.051.1-1.669.267-3.343.338-5.017.263-6.219.388-12.513-2.191-18.323-3.907-8.828-11.336-16.862-20.944-19.057a31.71 31.71 0 0 0-1.962-.376c.351.459.676.939.977 1.453 1.979 3.414 3.089 6.979 4.165 10.417.25.81.501 1.62.768 2.421.476 1.469 1.336 2.972 2.237 4.575 1.586 2.78 3.377 5.935 3.698 9.833.43 5.096-2.417 10-7.43 12.805-2.12 1.186-4.574 1.787-7.309 1.787-1.857 0-3.827-.28-5.864-.835-1.031-.275-1.92-.701-2.638-1.043l-.125-.058c-1.094 4.115-3.881 11.21-10.681 15.134-.625.359-1.248.684-1.87.984a37.232 37.232 0 0 0-5.104 3.765c-.375.334-.743.676-1.102 1.026-.042.042-.066.084-.108.125-.071.075-.146.125-.217.192-1.151 1.144-2.208 2.346-3.088 3.577a70.787 70.787 0 0 0-1.294 1.908c-.125.192-.25.442-.388.684a29.456 29.456 0 0 1-1.724 3.248c-.192.309-.421.601-.63.901.171.234.338.451.505.709 3.18 4.909 1.319 10.911 1.928 16.336.451 3.898 4.792 4.934 8.807 4.934 1.941 0 3.815-.242 5.125-.518 1.503-.309 3.432-1.119 4.2-2.525.956-1.749.304-4.02.142-5.877a106.716 106.716 0 0 1-.259-3.631 72.62 72.62 0 0 1-.092-3.302c-.008-2.83-.367-6.791 1.16-9.324 1.223-2.028 4.182-1.494 6.186-1.862 1.419-.259 2.859-.735 4.224-1.277.901-.359 1.903-.952 2.905-1.252a3.9 3.9 0 0 1 1.135-.192h.013c2.696.008 4.424 2.4 5.229 4.691 1.002 2.871.276 5.889.443 8.832.117 2.087.609 4.516 2.838 5.301 1.72.609 3.882.993 6.044.993 2.429 0 4.85-.492 6.611-1.694 2.596-1.766 2.88-5.076 3.005-7.938.217-5.076-.467-10.151-.2-15.234.008-.176-.15-.902.092-.952l.033-.004c.196 0 .384.326.48.438 1.398 1.569 3.564 2.32 5.748 2.32 2.329 0 4.679-.847 6.144-2.471.781-.873 1.565-2.388 1.653-3.573.073-.9-.26-1.752-1.195-2.01z"/></defs><use xlink:href="#a" overflow="visible" fill="#005792"/><clipPath id="b"><use xlink:href="#a" overflow="visible"/></clipPath><path clip-path="url(#b)" fill="#005792" d="M91.013 28.551c-.046.048-.083.096-.125.142.618-.693 11.87 1.327 19.458 12.459 5.209 7.64 5.418 14.686 5.418 14.686s5.159-15.667-9.124-28.576c-1.453-1.309-2.976-2.383-4.583-3.481-1.72-1.175-3.77-1.734-5.577-2.748-.952-.537-1.77-1.033-2.855-1.347-.81-.234-1.611-.374-2.442-.578-.722-.182-1.582-.266-2.308-.355-.518-.062-1.761-.171-2.137.182l4.275 9.616z"/><g><defs><path id="c" d="M47.614 70.77c0-.435.267-.827.676-.994.409-.154.873-.05 1.177.268.046.058 5.104 5.443 10.426 5.426l.288-.05c2.137-.375 4.195-1.256 6.069-2.337 4.637-2.671 7.488-7.763 8.761-12.831.351-1.394.618-2.922 2.237-3.264.25-.05.501-.075.735-.075 1.77 0 3.289 1.265 4.967 1.72 1.519.409 3.138.685 4.745.685 1.824 0 3.627-.351 5.23-1.244 3.164-1.77 5.567-4.988 5.25-8.715-.417-4.983-4.224-8.807-5.744-13.432-1.335-4.099-2.387-8.272-4.566-12.028-1.156-1.991-2.771-3.264-4.649-3.99-1.344-.518-2.813-.772-4.375-.772-.217 0-.442.004-.667.012-4.215.176-7.926 2.404-12.058 2.855a6.307 6.307 0 0 1-.735.042 7.761 7.761 0 0 1-1.766-.217c-1.035-.25-2.028-.702-2.997-1.186-.63-.317-1.248-.642-1.87-.959-2.93-1.511-5.978-2.137-9.041-2.137-4.386 0-8.798 1.286-12.922 3.131-.876.392-1.761.676-2.68.676-.484 0-.985-.083-1.486-.275-4.023-1.553-8.126-3.564-12.525-3.564-.322 0-.655.013-.973.033-3.506.247-6.595 2.171-8.949 4.683-2.58 2.747-3.206 6.236-3.84 9.809-.772 4.437-2.116 8.306-3.656 12.497-.476 1.302-1.444 2.688-1.599 4.065-.564 5.138 3.964 7.358 8.401 7.358 1.474 0 2.93-.242 4.195-.705.877-.322 2.813-1.641 4.174-1.641.642 0 1.152.292 1.369 1.119.342 1.335.133 2.713.301 4.082.008.083.033.159.042.242a20.724 20.724 0 0 0 1.231 4.708 20.451 20.451 0 0 0 1.683 3.397c.451.73.931 1.44 1.469 2.104 1.503 1.836 3.448 3.122 5.501 4.265 1.937 1.086 4.617 1.862 5.793 3.907 1.323 2.321.125 5.033-1.478 6.874-2.88 3.327-6.636 4.521-10.66 4.95-.702.075-1.419.129-2.137.167-.713.038-1.432.055-2.153.062-.852.017-1.703.017-2.551.017h-.147c-2.304 0-4.574 0-6.72.25-3.013.342-3.139 5.568-2.855 7.722.651 4.996 3.928 5.601 7.88 5.601.926 0 1.886-.029 2.863-.05a76.747 76.747 0 0 0 3.056-.117c.709-.037 1.428-.1 2.137-.158a74.177 74.177 0 0 0 2.153-.196c6.741-.764 13.39-2.583 19.083-6.302.125-.08.264-.146.393-.23 1.962-1.327 3.706-3.08 5.092-5.029.226-.322.468-.63.676-.96 1.394-2.246 2.471-4.692 2.972-7.292.021-.109.033-.217.05-.326-2.204-1.86-5.285-5.558-5.276-11.651z"/></defs><use xlink:href="#c" overflow="visible" fill="#005792"/><clipPath id="d"><use xlink:href="#c" overflow="visible"/></clipPath><path clip-path="url(#d)" fill="#005792" d="M6.063 92.838a2.452 2.452 0 0 1-.021.19c-.075.676-.442 1.267-.518 1.937-.075.639.092 2.151 1.04 2.068.576-.052.889-.887 1.056-1.344 1.06-2.953 3.639-2.296 6.131-2.272 2.183.021 4.37-.007 6.541-.165 4.304-.313 7.463-.463 11.236-2.644 2.684-1.553 5.125-4.756 5.626-7.859.709-4.454-2.412-6.432-3.489-6.962.33 1.052 2.309 2.851-1.235 6.843-1.961 2.218-4.541 3.712-7.275 4.664-3.698 1.286-8.244 1.653-12.15 1.281-.977-.092-1.911-.342-2.896-.365-1.711-.04-2.654-.046-3.477 1.548-.506.992-.456 2.018-.569 3.08zM20.672 23.43c3.919-.002 7.684 1.91 7.475 3.967-.125 1.293-1.945 2.893-1.573 4.66 1.478.668 2.834-.225 4.186-.81 1.97-.849 5.393-3.541 10.376-4.432 5.668-1.012 11.478-.737 17.054.62 1.87.455 3.54 1.152 5.134 2.141 3.456 2.141 5.781 1.438 7.88-.532 4.658-4.366 8.256-3.884 10.535-3.832 7.024.161 11.219 6.588 11.219 6.588s-.651-8.675-6.586-11.753c-.542-.28-1.219-.78-1.778-1.033-1.164-.521-2.496-.758-3.74-1.1-1.611-.444-3.239-.716-4.95-.716-2.187-.002-4.653-.121-6.761.355-1.636.367-3.506.567-5.209.317-.947-.14-1.937-.634-2.888-.847-.952-.21-1.862-.48-2.813-.716-2.421-.603-4.871-.53-7.379-.534-2.646-.004-5.251.549-7.83 1.093-2.555.539-4.8.958-7.404.687-2.313-.242-4.808-.551-7.121-1.059-1.202-.263-2.354-.591-3.56-.761-1.407-.199-2.938-.184-4.391-.142a19.76 19.76 0 0 0-5.943 1.112c-4.879 1.699-9.25 4.746-11.257 9.618C.93 32.176.608 38.537-1.971 44.405c-.363.827-.872 1.536-1.102 2.4-.2.76-.977 1.44-1.001 2.225-.017.728.443 1.094.852 1.609.367.474.551 1.035 1.052 1.423.525.416 1.244.745 1.861 1.025.843.382 1.844.534 2.78.369-.159-.405-.426-.622-.509-1.042-.059-.315-.034-.789 0-1.11.125-1.307.634-2.29 1.569-3.139 1.077-.981 3.398-3.761 4.842-7.638 1.478-3.98 1.636-6.92 2.07-9.07 1.067-5.341 4.874-8.025 10.229-8.027z"/></g><g><path fill="#FFF" d="M61.688 76.278a1.041 1.041 0 0 0-1.144-.847c-5.66.525-11.086-5.756-11.136-5.818a1.07 1.07 0 1 0-1.882.647c-.372 8.865 6.014 12.922 6.828 13.406a3.24 3.24 0 0 0 1.732.576c1.177.046 2.371-.476 3.539-1.561 2.823-2.596 2.097-6.248 2.063-6.403z"/></g><path fill="#2F2F2F" d="M63.074 62.989c-1.945.5-3.982-.994-4.55-3.364-.575-2.362.547-4.708 2.496-5.209 1.945-.518 3.99.994 4.558 3.355.568 2.372-.559 4.709-2.504 5.218zM34.316 58.807c-.567 2.371-2.613 3.865-4.558 3.373-1.945-.518-3.072-2.847-2.504-5.217.576-2.362 2.613-3.882 4.558-3.356 1.945.5 3.072 2.838 2.504 5.2z"/></svg>