<svg xmlns="http://www.w3.org/2000/svg" width="128" height="128" viewBox="0 0 128 128"><path fill="#2F2F2F" d="M107.49 99.87c1.16 2.77 2.41 5.59 4.29 7.95 1.02 1.28 2.28 2.44 3.84 3 1.67.6 3.46.35 5.05-.39 1.41-.65 2.13-1.7 2.18-3.24.12-3.94-.87-7.79-1.7-11.61-.8-3.68-1.19-7.41-1.78-11.13-.31-1.93-4.09-.57-5.28-.2a24.93 24.93 0 0 0-5.61 2.49c-.75.45-1.45.93-1.94 1.66-.37.56-.51 1.03-.67 1.66-.84 3.34.33 6.73 1.62 9.81zM85 105.23c.19.94.44 1.87.74 2.74.44 1.28 1.28 2.23 2.52 2.79 2.96 1.35 7.13-.02 8.15-3.27 1.12-3.57 2.22-7.57 2.2-11.34 0-.28.22-.81.08-1.06-.16-.29-.71-.14-.98-.14-.7 0-1.36.03-2.05.1-.5.05-1 .04-1.51.09-.45.04-.9.08-1.36.08-.53.01-1.06.12-1.59.16-.58.05-1.17 0-1.75.04-1.16.09-2.44.14-3.57.42-.64.15-1.04.37-1.33.97-.28.59-.16 1.37-.16 2 0 2.08.18 4.31.61 6.42zM57.37 110.23c.22 1.3.46 2.59.68 3.89.15.86.23 1.8.51 2.63 1.95 5.58 7.1 8.46 11.74 4.93 2.25-1.72 2.5-4.93 2.51-7.55.01-2.54.03-5.09-.04-7.63-.06-2.23.05-4.75-.49-6.92-.18-.73-.9-1-1.57-1.02-1.92-.05-3.86.04-5.78.21-1.49.13-2.97.54-4.43.82-1.18.24-2.38.74-3.33 1.47-1.25.95-.46 4.37-.31 5.67.13 1.17.31 2.34.51 3.5zM26.18 101.41c-.83 2.14-1.7 4.27-2.58 6.39-.8 1.94-2.57 5.51-1.59 7.65 2.28 4.93 8.53 3.7 11.9.77 1.82-1.58 3.21-3.59 4.52-5.62 2.05-3.15 4.19-6.62 3.72-10.52-.14-1.16-1.18-1.42-2.16-1.88-.46-.21-.85-.55-1.29-.8-.4-.23-.86-.36-1.29-.51-.42-.15-.79-.39-1.19-.58-.39-.18-.79-.27-1.19-.42-1.4-.53-2.95-1.26-4.46-1.26-.52 0-1.12-.11-1.58.17-.9.53-1.13 2.01-1.44 2.9-.44 1.26-.9 2.49-1.37 3.71z"/><path fill="#FFF" d="M45.15 71.34c.26-.05.54-.08.78-.14.66-.16 1.29-.3 1.93-.53 1.19-.42 2.92-1.38 2.75-2.89-.1-.91-.69-1.37-1.6-1.11-.27.08-.58.18-.86.28-.78.29-1.43.81-2.22 1.06-1.59.51-3.31.6-4.73-.38-1.05-.74-1.97-2.76-3.5-2.6-1.33.12-1.03 1.76-.62 2.59.68 1.33 1.92 1.96 3 2.89l.56.41.2.54.01.46c-.02 1.79-.81 4.53 1.57 4.91.3.05.63.01.94.01l1-.12c-.19-.24-.39-.5-.44-.83-.11-.79-.21-1.62-.25-2.42-.01-.4-.17-1.71.31-1.94.35-.16.8-.11 1.17-.19zM36.46 48.06c-2.16-.86-4.7.6-5.67 3.22-.97 2.64.01 5.46 2.16 6.32 2.15.82 4.69-.61 5.65-3.24.99-2.63.02-5.46-2.14-6.3z"/><path fill="#FFF" d="M121.83 61.89c-.5-.93-1.13-1.69-1.87-2.26-.25-.2-.69-.32-1.24-.49-.38-.12-.77-.24-1.15-.38-.97-.37-1.68-1.07-2.01-1.97-.54-1.51.2-2.82.64-3.6l.18-.32c.6-1.28.88-2.28.88-3.15.01-1.8-.74-3.76-2.07-5.37-.79-.96-1.6-1.47-3.14-2.23l-.64-.28c-.68-.28-1.52-.63-2.28-1.26-2.09-1.78-1.37-3.69-1.1-4.41l.15-.42c.49-1.84.76-3.29.8-4.41.08-1.99-.91-4.16-2.78-6.11-2.61-2.72-6.63-4.62-9.78-4.62-.28 0-.68.08-1.1.17-.59.12-1.26.26-2 .26-2.44-.01-3.65-2.18-4.46-3.61-.2-.35-.36-.7-.56-.93-.97-1.03-2.22-1.83-3.91-2.53-2.86-1.16-6.25-1.54-9.34-1.04-1.72.28-3.3 1.21-4.98 2.19l-.6.35c-.61.35-1.33.44-2 .22a2.46 2.46 0 0 1-1.51-1.33c-1.97-4.26-7.22-4.59-8.79-4.59-1.97 0-3.93.41-5.53 1.17-.44.23-2.57 1.6-3.33 2.18-.72 1-2.08 1.33-3.2.73-3.3-1.77-5-2.52-7.95-1.59-2.48.78-5.41 2.68-6.16 5.66-.06.23-.07.51-.1.81-.04.36-.08.77-.16 1.19.05.02.1.03.16.04.89.33 3.33 1.27 2.79 2.73-.34.9-1.74 1-2.54 1.07-9.33.87-16.25 11.09-10.39 19.27.04.06.11.13.16.2 1.85-1.07 3.92-1.01 5.63.05-.1-.27-.2-.55-.27-.86-.05-.22-.06-.54-.06-.89.01-.73.12-1.67.38-2.49.31-.95.8-1.72 1.51-1.78 1.21-.11 1.25 2.56 1.78 3.24.75.95 1.83 1.23 2.99 1.35 2.28.23 5.01-.54 6.99-1.64.78-.43 1.09-.76 1.6-1.41.43-.55 1-1.21 1.76-1.18 1.36.04 1.58 2.97 2.2 3.73.78.96 2.37 1.57 3.56 1.77 2.29.38 4.14-.39 6.21-1.22 1.21-.48 2.29-1.67 3.63-1.82.64-.07 1.01.06 1.29.66.47.97-.22 1.69-.26 2.57-.24 5.78 9.75 1.91 11.59.51 2.56-1.94 3.21-.51 2.63 1.27-.01.03-.01.06-.02.08.13 0 .26-.03.4-.03l.38.01c.85.03 2.16.22 3.43 1 .75-1.7 1.9-3.18 3.38-4.28 2.3-1.72 4.88-2.63 7.49-2.63 1.79 0 3.5.43 5.08 1.26 1.59.82 3.07 2.05 4.4 3.67 4.36 5.3 5.83 12.8 3.75 19.11-1.15 3.49-3.22 6.47-5.97 8.61-3.65 2.85-8.3 4.41-13.09 4.41-5.69 0-11.11-2.23-14.88-6.12-.09-.1-.16-.2-.24-.29-.11-.14-.23-.27-.34-.4C62.1 76.95 53.77 81.24 43 79.94c-6.26-.75-12.92-3.4-15.85-8.77-1.77-3.24-2.38-6.6-2.3-9.99-.05.04-.11.07-.17.11-2.44 1.93-5.51 3.09-8.97 3.09-.14 0-.28-.04-.42-.04.27.57.58 1.13.95 1.66l.47.55c.64.72 1.45 1.63 1.73 2.85.3 1.36-.33 2.46-.64 2.99-1.56 3.07-1.35 6.94.43 9.77.8 1.26 1.9 2.34 3.19 3.17.15-.41.33-.81.63-1.17.5-.6 1.88-1.48 2.26-.21.29.94.29 1.94.25 2.94-.02.51 0 1.03.01 1.56.11.39.18.83.18 1.34-.04 4.62 3.88 8.62 8.92 9.09.52.05 1.04.05 1.56.03-.04-.1-.06-.19-.08-.3-.28-1.14-.51-2.67.2-2.71.59-.03 1.11.77 1.49 1.13.46.44.87.92 1.29 1.39.48.54 1.03 1.11 1.49 1.7l.29.29.21.22c3.1 2.88 8.12 4.67 13.09 4.67 4.19 0 7.88-1.24 10.41-3.47l.44-.47c.22-.24.47-.51.75-.77.17-.19.34-.37.47-.58.44-.71 1.06-1.29 1.61-1.93.51-.59.9-1.23 1.48-1.77.38-.36 1.26-.88 1.79-.55.51.33.56 1.43.5 1.98-.06.58-.23 1.22-.43 1.85.53.12 1.05.26 1.54.42.49.15.93.3 1.29.36 1.94.29 3.95.38 5.95.26 3.08-.19 7.43-.97 10.64-3.64l.3-.3c.35-.5.85-.99 1.07-1.2.62-.63 1.12-1.31 1.66-1.99.47-.57.89-1.2 1.35-1.76.36-.43 1.04-1.17 1.66-1.14 1.45.07.48 2.52.19 3.18-.2.48-.43.96-.68 1.41.53.14 1.03.3 1.5.45.74.25 1.43.48 1.98.5h.4c3.24 0 6.14-1.42 7.78-3.78.02-.04.05-.07.07-.11.12-.2.22-.46.35-.75.21-.49.46-1.04.78-1.59.17-.46.32-.93.53-1.37.38-.77.51-1.56.83-2.34.53-1.27 1.58-1.51 2.08-.11.11.29.19.6.25.91.03.17.02.35.04.53.73-.13 1.12-.24 1.43-.38 2.54-1.18 4.3-4.58 4.68-7.2.15-1.02.11-1.91-.12-2.57-.08-.12-.74-1.15-1-1.51l-.32-.42a2.52 2.52 0 0 1-.03-2.48c.75-1.35 2.16-1.79 3.08-2.08l.48-.16c1.35-.7 2-2.02 2.3-3.01.61-1.91.42-4.2-.46-5.83z"/><path fill="#FFF" d="M62.09 55.87c-.05-2.81-1.99-5.09-4.3-5.08-2.32 0-4.15 2.28-4.09 5.08.06 2.81 2 5.08 4.32 5.08 2.31-.01 4.15-2.28 4.07-5.08z"/><path fill="#2F2F2F" d="M74.36 45.1c.05-.64 0-1.23-.2-1.7-.5-1.18-2.12-.04-2.73.42-1.84 1.4-11.83 5.27-11.59-.51.04-.88.73-1.6.26-2.57-.28-.6-.66-.74-1.29-.66-1.34.15-2.42 1.33-3.63 1.82-2.06.83-3.91 1.6-6.21 1.22-1.19-.2-2.78-.8-3.56-1.77-.62-.76-.84-3.7-2.2-3.73-.76-.03-1.33.63-1.76 1.18-.51.65-.82.98-1.6 1.41-1.98 1.1-4.71 1.88-6.99 1.64-1.16-.12-2.25-.4-2.99-1.35-.53-.68-.57-3.35-1.78-3.24-.72.05-1.21.83-1.51 1.78-1 3.11-1.04 6.76-1.34 9.99-.68 7.36-1.82 15.36 1.88 22.15 2.93 5.37 9.58 8.02 15.85 8.77 4.43.53 8.97.15 13.16-1.46 3.88-1.5 7.31-3.99 10.09-7.07 3.29-3.64 4.13-9.22 5.49-13.79 1.19-4.02 2.35-8.34 2.65-12.53zm-41.4 12.5c-2.15-.86-3.14-3.68-2.16-6.32.97-2.62 3.51-4.07 5.67-3.22 2.16.84 3.13 3.67 2.14 6.29-.96 2.64-3.5 4.07-5.65 3.25zm14.91 13.07c-.64.23-1.27.38-1.93.53-.25.06-.52.1-.78.14-.38.07-.83.03-1.18.2-.48.23-.32 1.54-.31 1.94.04.8.14 1.64.25 2.42.04.33.24.59.44.83l-1 .12c-.31 0-.63.04-.94-.01-2.38-.38-1.59-3.12-1.57-4.91l-.01-.46-.2-.54-.56-.41c-1.08-.93-2.32-1.56-3-2.89-.41-.83-.71-2.47.62-2.59 1.53-.16 2.45 1.86 3.5 2.6 1.42.98 3.15.89 4.73.38.79-.25 1.44-.77 2.22-1.06.29-.1.59-.2.86-.28.91-.26 1.5.19 1.6 1.11.18 1.5-1.55 2.46-2.74 2.88zm10.15-9.72c-2.32 0-4.26-2.28-4.32-5.08-.06-2.79 1.78-5.08 4.09-5.08 2.31-.01 4.25 2.27 4.3 5.08.08 2.8-1.76 5.07-4.07 5.08z"/><g><path fill="#78A3AD" d="M24.15 47.7c-.49-.54-.46-.43-.98-.03l-.54.53c-.45.49-1.03 1.09-1.83 1.54-.55.3-1.41.66-2.39.66-1.06 0-1.92-.46-2.53-1.17-.48-.56-.8-1.27-.84-2.12-.05-.97.25-1.74.58-2.3-.55-.8-.97-1.68-1.33-2.61-.32-.73-.57-1.49-.78-2.27-.28-.99-.5-1.99-.67-2.97-.22-1.25-.28-2.54-.18-3.82l-.3.24c-2.9 2.31-5.05 5.65-6.11 8.71-1.26 3.58-1.88 11.63 2.99 15.31.65.49 1.39.91 2.25 1.22.05.02.09.02.14.04.83.29 1.66.47 2.49.59.53.07 1.05.14 1.57.14 5.14 0 8.81-3.36 9.37-8.56.12-1.07-.28-2.42-.91-3.13zM94.75 47.34c-.79-.96-1.73-1.83-2.83-2.4-.92-.48-1.87-.7-2.8-.7-1.58 0-3.15.62-4.5 1.64-1.39 1.04-2.19 2.68-2.33 4.39-.17 2.05 1.93 3.18 2.37 4.97.53 2.15-1.52 3.7-3.6 3.7l-.6-.04c-2.54-.39-3.59-2.13-3.62-4.51-.01-1.6-.04-4.18-2.19-4.26h-.19c-1.38 0-2.46.64-3.29 1.63-2.31 2.75-2.62 8.29-1.46 10.95.29.68.6 1.39.95 2.06.37.7.8 1.38 1.34 1.94 2.98 3.07 7.13 4.6 11.3 4.6 3.57 0 7.15-1.12 10.01-3.36 2.04-1.58 3.51-3.79 4.31-6.24 1.58-4.8.31-10.5-2.87-14.37z"/><path fill="#855C52" d="M98.6 44.17c-1.33-1.61-2.8-2.84-4.4-3.67-1.58-.82-3.3-1.26-5.08-1.26-2.6 0-5.18.91-7.49 2.63-1.48 1.1-2.63 2.58-3.38 4.28.07-.16-1.78-.76-1.97-.81-1.49-.35-3-.2-4.41.41-2.87 1.25-4.85 3.82-5.92 6.72-1.12 3.03-1.36 6.38-.93 9.57.91 6.84 5.83 11.79 12.46 13.46 1.84.46 3.91.81 5.82.81 4.79 0 9.44-1.57 13.09-4.41 2.75-2.13 4.82-5.11 5.97-8.61 2.07-6.32.6-13.82-3.76-19.12zm-.98 17.55c-.8 2.44-2.27 4.66-4.31 6.24-2.86 2.24-6.44 3.36-10.01 3.36-4.17 0-8.32-1.53-11.3-4.6-.54-.56-.97-1.24-1.34-1.94-.35-.68-.66-1.39-.95-2.06-1.16-2.66-.84-8.2 1.46-10.95.83-.99 1.91-1.63 3.29-1.63h.19c2.14.08 2.17 2.66 2.19 4.26.03 2.38 1.09 4.12 3.62 4.51l.6.04c2.08 0 4.14-1.55 3.6-3.7-.44-1.79-2.54-2.93-2.37-4.97.14-1.71.94-3.36 2.33-4.39 1.36-1.02 2.92-1.64 4.5-1.64.93 0 1.88.22 2.8.7 1.1.57 2.04 1.44 2.83 2.4 3.18 3.86 4.45 9.56 2.87 14.37z"/><path fill="#855C52" d="M127.07 69.2c.98-3.18.66-6.88-.84-9.67-.83-1.55-1.91-2.85-3.22-3.86-.65-.5-1.32-.8-1.95-1.02.55-1.22 1.2-2.96 1.2-4.91.02-2.99-1.13-6.03-3.2-8.56-1.47-1.8-3.03-2.66-4.78-3.54-.31-.16-.63-.29-.96-.43 0 0-.34-.14-.32-.19.6-2.24.91-3.98.96-5.51.14-3.36-1.34-6.82-4.16-9.76-3.6-3.74-8.84-6.15-13.38-6.15-.8 0-1.49.15-2.11.28l-.49.1c-.19-.29-.43-.71-.59-1-.38-.68-.77-1.38-1.29-1.92-1.46-1.54-3.31-2.76-5.65-3.72-3.72-1.5-8.04-1.98-12.03-1.34-1.97.32-3.67 1.1-5.19 1.94-2.56-3.28-6.83-5.16-11.9-5.16-2.73 0-5.38.57-7.66 1.65-.33.16-2.12 1.03-3.62 2.2-2.12-1.07-4.02-1.76-6.33-1.76-1.24 0-2.51.21-3.88.63-4.88 1.53-8.44 4.97-9.51 9.19-.11.45-.17.99-.24 1.56-.03.37-.09.99-.17 1.16-4.19.53-8.17 3.28-10.64 6.93-6.7 2.12-11.58 8.36-13.59 14.13C-.91 47.53 0 59.59 9.62 63.24a17.19 17.19 0 0 0 2.5 5.59c.22.33.53.68.85 1.05l.32.36-.04.07c-2.26 4.5-1.97 10.2.74 14.52 1.36 2.18 3.3 4 5.77 5.36.1.06.11 1.5.15 1.7.09.58.21 1.14.38 1.7.32 1.1.78 2.16 1.38 3.14.59.98 1.3 1.88 2.12 2.7 1.63 1.63 4.39 2.95 6.56 3.63 1.85.59 3.86.56 5.64 1.36 2.16.96 4.03 2.43 6.16 3.44 1.14.54 2.33.98 3.54 1.34 2.45.72 4.99 1.1 7.54 1.1 2.59 0 5.2-.36 7.65-1.2 2.66-.91 5.46-2.54 7.66-4.27.23-.18.49-.44.75-.55.63-.27 1.8.42 2.43.61.99.29 2.01.49 3.04.62 5.7.7 11.89-.97 16.65-4.15.74-.49 1.45-1.3 2.31-1.57 1.01-.32 2.06.4 3.03.57 3.04.54 6.19.22 9.11-.74 3.67-1.21 5.74-4.19 7.2-7.58.28-.64 1.3-.85 1.86-1.13 2.11-1.03 4.38-1.82 5.79-3.81 1.21-1.7 1.75-3.73 2.07-5.77.15-.92.26-1.86.23-2.79-.03-.92-.49-1.9-.49-2.78 0-.01-.08-.23-.2-.58 2.22-1.18 3.92-3.3 4.75-5.98zM11.64 58.66c-.05-.02-.09-.02-.14-.04-.86-.32-1.6-.74-2.25-1.22C4.38 53.72 5 45.67 6.24 42.09c1.06-3.05 3.21-6.4 6.11-8.71l.3-.24c-.1 1.28-.04 2.56.18 3.82.17.98.39 1.99.67 2.97.22.78.47 1.54.78 2.27.36.92.78 1.81 1.33 2.61-.32.57-.62 1.34-.58 2.3.04.85.37 1.56.84 2.12.61.71 1.47 1.17 2.53 1.17.98 0 1.84-.36 2.39-.66.8-.44 1.37-1.05 1.83-1.54l.54-.53c.52-.41.49-.52.98.03.64.71 1.04 2.06.92 3.13-.56 5.2-4.23 8.56-9.37 8.56-.52 0-1.04-.08-1.57-.14-.83-.12-1.66-.3-2.48-.59zM120 70.74l-.48.16c-.93.29-2.33.73-3.08 2.08-.43.78-.42 1.72.03 2.48l.32.42c.26.36.92 1.39 1 1.51.23.66.28 1.55.12 2.57-.38 2.61-2.14 6.02-4.68 7.2-.31.14-.7.25-1.43.38-.02-.17-.02-.36-.04-.53-.06-.31-.14-.62-.25-.91-.49-1.4-1.55-1.16-2.08.11-.32.78-.45 1.57-.83 2.34-.21.44-.36.91-.53 1.37-.32.54-.58 1.1-.78 1.59-.12.29-.23.55-.35.75-.02.04-.05.07-.07.11-1.64 2.37-4.54 3.78-7.78 3.78h-.4c-.55-.02-1.25-.26-1.98-.5-.47-.15-.97-.31-1.5-.45.25-.45.48-.92.68-1.41.29-.67 1.26-3.12-.19-3.18-.61-.03-1.3.71-1.66 1.14-.46.56-.89 1.2-1.35 1.76-.55.68-1.04 1.36-1.66 1.99-.22.21-.72.7-1.07 1.2l-.3.3c-3.22 2.67-7.56 3.45-10.64 3.64-2 .12-4.01.03-5.95-.26-.35-.06-.8-.21-1.29-.36-.48-.15-1-.3-1.54-.42.21-.63.37-1.27.43-1.85.06-.54.01-1.65-.5-1.98-.53-.33-1.41.19-1.79.55-.58.54-.96 1.18-1.48 1.77-.55.64-1.17 1.21-1.61 1.93-.13.21-.3.39-.47.58-.29.26-.53.53-.75.77l-.44.47c-2.53 2.24-6.23 3.47-10.41 3.47-4.97 0-9.99-1.79-13.09-4.67l-.21-.22c-.08-.09-.19-.19-.29-.29-.47-.59-1.01-1.16-1.49-1.7-.42-.46-.83-.95-1.29-1.39-.39-.36-.9-1.16-1.49-1.13-.7.04-.48 1.57-.2 2.71.03.11.05.2.08.3-.52.02-1.04.02-1.56-.03-5.04-.47-8.96-4.46-8.92-9.09 0-.51-.07-.95-.18-1.34-.02-.52-.04-1.04-.01-1.56.04-1 .05-2-.25-2.94-.38-1.27-1.76-.4-2.26.21-.29.36-.48.76-.63 1.17-1.29-.83-2.4-1.91-3.19-3.17-1.78-2.84-1.99-6.71-.43-9.77.31-.53.94-1.63.64-2.99-.28-1.22-1.09-2.13-1.73-2.85l-.5-.56c-.37-.53-.68-1.1-.95-1.66.14 0 .28.04.42.04 7.38 0 12.53-5.17 13.37-12.36.32-2.78-.3-7.92-3.38-9.18-.5-.2-1.03-.34-1.57-.38-.57-.04-1.14 0-1.7.14-.14.03-1.56.57-1.52.62-.05-.07-.11-.14-.16-.2-5.86-8.18 1.06-18.39 10.39-19.27.8-.07 2.2-.17 2.54-1.07.54-1.47-1.89-2.41-2.79-2.73a.75.75 0 0 0-.16-.04c.07-.42.12-.83.16-1.19.03-.3.04-.58.1-.81.75-2.98 3.68-4.88 6.16-5.66 2.95-.92 4.65-.18 7.95 1.59 1.12.6 2.48.27 3.2-.73.76-.58 2.89-1.94 3.33-2.18 1.59-.75 3.56-1.17 5.53-1.17 1.57 0 6.82.33 8.79 4.59.29.64.84 1.12 1.51 1.33.67.22 1.39.13 2-.22l.6-.35c1.68-.98 3.26-1.91 4.98-2.19 3.09-.5 6.49-.12 9.34 1.04 1.69.7 2.94 1.5 3.91 2.53.2.23.36.57.56.93.81 1.44 2.02 3.6 4.46 3.61.74 0 1.41-.14 2-.26.42-.09.82-.17 1.1-.17 3.15 0 7.17 1.9 9.78 4.62 1.87 1.95 2.86 4.12 2.78 6.11-.04 1.12-.31 2.57-.8 4.41l-.15.42c-.27.72-.99 2.63 1.1 4.41.76.63 1.61.99 2.28 1.26l.64.28c1.54.77 2.36 1.28 3.14 2.23 1.33 1.61 2.08 3.57 2.07 5.37 0 .88-.28 1.87-.88 3.15l-.18.32c-.44.78-1.18 2.09-.64 3.6.32.9 1.04 1.6 2.01 1.97.37.14.76.26 1.15.38.55.17.99.3 1.24.49.73.57 1.36 1.33 1.87 2.26.88 1.63 1.06 3.93.47 5.84-.27.99-.92 2.32-2.27 3.02z"/></g></svg>