<svg xmlns="http://www.w3.org/2000/svg" width="128" height="128" viewBox="0 0 128 128"><path fill="#FCC21B" d="M57.21 108c.04 2-.05 4-.28 5.99-.15 1.27-.15 2.67-.7 3.84-.56 1.19-1.62 1.91-2.82 2.35-2.56.97-6.7.35-6.71 4.09 0 .59.06 1.09.31 1.63.73 1.58 1.99 1.27 3.43 1.5 1.25.21 2.57.06 3.81-.22.89-.19 1.94-.38 2.76-.75 2.41-1.11 4.22-2.29 5.47-4.68 1.13-2.18 1.34-4.71 1.43-7.11.05-1.63.03-3.26.11-4.89.07-1.34-.24-2.32-1.29-3.13-.46-.36-1.08-.63-1.63-.8-.56-.18-1.18 0-1.75.01-.38 0-.8-.04-1.18.02-.56.09-.74.4-.87.92-.08.4-.09.81-.09 1.23zM68.4 107.25c.38 1.07.51 2.15.93 3.19 1.32 3.27 2.76 6.93-.76 9.47-1.47 1.06-3.27 1.59-4.69 2.68-1.6 1.22-.77 3.74.88 4.5.93.41 1.96.22 2.93.04 2.61-.48 5.28-2.13 7.18-3.93 5.48-5.16.83-13.59-.14-19.58-.1-.64-.05-1.19-.69-1.33-.6-.13-1.73.41-2.31.57-.58.17-1.24.27-1.84.46-.43.13-1.44.43-1.76.76-.74.75-.11 2.16.2 2.97l.07.2z"/><path fill="#FFF" d="M59.98 26.3c-3.28-3.9-7.72-6.59-14.53-6.95-4.44-.24-7.95.93-11.5 3.73-3.97 3.13-6.8 8.71-8.2 13.5-5.11 17.33-8.3 43.53 4.84 58.39 10.5 11.89 29.58 13.34 44.28 11.26 5.24-.74 10.41-2.12 15.2-4.39 3.85-1.82 7.22-3.77 9.99-7.04 1.7-2.01 3.04-4.32 4.83-6.24 1.36-1.46 3.12-2.42 4.7-3.61 1.55-1.18 2.88-2.67 3.79-4.4.6-1.12.68-2.29.84-3.53.13-1.04.31-2.04.21-3.09-.1-1.01-.62-1.96-.69-2.97-.05-.76.34-1.06.69-1.66.8-1.34.43-3.4-.2-4.75-.79-1.67-.43-1.29.35-2.42 1.09-1.58 1.43-3.14.99-5.03-.07-.3-.45-.95-.37-1.23.11-.36.88-.46 1.14-.78 1.47-1.88 2.22-3.94 1.38-6.29-.57-1.59-2.66-2.97-4.1-3.66-2.02-.96-4.27-1.66-6.5-1.82-.69-.05-1.37-.07-2.06-.08-6.07-.01-11.17 2.09-14.14 7.56-1.19 2.21-2.38 4.47-2.82 6.96-1.49 8.37-8.66 1.59-11.54-1.85-7.41-8.84-9.24-20.89-16.58-29.61z"/><path fill="#855C52" d="M63.76 109.54c-10.79 0-25.64-2.24-35.06-12.9-16.21-18.33-8.2-51.16-5.37-60.78 1.83-6.21 5.22-11.73 9.06-14.76 4.06-3.21 8.19-4.52 13.2-4.28 6.85.37 12.19 2.94 16.33 7.85 3.9 4.64 6.31 10.09 8.64 15.36 2.29 5.2 4.46 10.11 7.93 14.26 2.6 3.1 5.27 4.95 6.36 4.95.15-.07.52-.58.76-1.93.53-2.97 1.95-5.6 3.08-7.72 3.16-5.82 8.8-8.89 16.32-8.89.81 0 1.55.03 2.28.08 2.36.17 4.92.89 7.4 2.06 1.3.62 4.41 2.36 5.39 5.08 1.05 2.93.46 5.86-1.77 8.7-.07.09-.14.17-.22.24.47 2.39 0 4.58-1.45 6.67a.55.55 0 0 1-.07.09c.83 1.88 1.31 4.75.01 6.93-.1.17-.2.32-.3.46.05.2.12.44.2.69.17.54.37 1.2.44 1.94.11 1.17-.03 2.23-.15 3.17l-.11.87c-.15 1.22-.31 2.6-1.07 4.02-1.04 1.96-2.59 3.78-4.49 5.22-.53.4-1.07.77-1.61 1.14-1.03.71-2.02 1.38-2.76 2.18-.9.95-1.68 2.06-2.52 3.22-.71 1-1.43 1.99-2.22 2.92-3.18 3.77-7.09 5.94-10.84 7.71-4.7 2.22-10.06 3.77-15.93 4.6-3.83.58-7.68.85-11.46.85zm-19.41-87.7c-3.33 0-5.97.96-8.83 3.23-3.6 2.83-6.15 8.17-7.34 12.22-2.66 9-10.18 39.62 4.3 56.01 8.18 9.25 21.52 11.19 31.28 11.19 3.54 0 7.16-.26 10.76-.77 5.36-.75 10.23-2.16 14.48-4.16 3.73-1.77 6.72-3.53 9.14-6.4.71-.83 1.34-1.72 1.98-2.61.9-1.24 1.82-2.53 2.93-3.72 1.13-1.21 2.39-2.07 3.6-2.9.48-.32.96-.65 1.42-1 1.31-.99 2.38-2.22 3.08-3.56.32-.59.41-1.33.52-2.25l.11-.93c.1-.77.19-1.43.13-2.02-.02-.24-.13-.57-.24-.94-.18-.57-.4-1.28-.46-2.09-.1-1.45.53-2.37.87-2.87l.17-.24c.18-.31.15-1.39-.32-2.39-.72-1.51-1.19-2.9.26-4.56.08-.08.18-.2.29-.36.71-1.04.88-1.88.61-3.02-.25-.55-.63-1.46-.34-2.49.36-1.22 1.3-1.75 1.83-1.99 1.17-1.64 1.03-2.71.73-3.55-.18-.51-1.31-1.51-2.8-2.22-1.92-.91-3.86-1.46-5.6-1.58-.63-.05-1.27-.07-1.9-.07-5.73 0-9.62 2.04-11.89 6.24-1.02 1.88-2.17 4.02-2.56 6.2-.95 5.31-4 6.1-5.73 6.1-4.11 0-8.52-4.73-10.23-6.77-3.93-4.7-6.34-10.16-8.68-15.46-2.28-5.18-4.45-10.07-7.88-14.15-3.24-3.84-7.28-5.77-12.73-6.06-.32-.05-.65-.06-.96-.06z"/><path fill="#855C52" d="M114.9 54.05c-.14-.09-.31-.17-.49-.24-.7-.27-1.33-.69-2.06-.85-1.2-.25-4.22-.25-4.14 1.6.04.88 1.23 1.16 1.91 1.33.95.24 2.04.65 2.71 1.41.25.28.47.59.65.93.1.21.26 1.21.38 1.27.56.31 1.15-1.07 1.29-1.37.64-1.42 1.14-3.2-.25-4.08zM108.85 60.93c-.4.16-.67.41-.75.78-.15.8.99 1.38 1.57 1.73 1.07.65 2.04 1.47 3.17 2.02 1.6.79 1.67-2.96 1-3.69-.69-.72-3.59-1.38-4.99-.84zM80.52 63.12c4 2.69 9.13 1.13 13.43 2.86.64.26 1.16.83 1.4 1.46.36.96.55 2.43-.35 3.18-.48.4-2.97.84-2.31 1.75.52.71 1.81.63 2.5.99 2.06 1.06.34 3.54-1.02 4.27-.56.3-1.8.47-1.59 1.4.18.75 1.52.72 2.1.94 2.04.8.1 3.13-1.04 3.76-1.04.58-2.2.8-3.35.97-.72.1-1.74.83-1.06 1.58.66.73 1.31.77.65 1.79-.66 1.01-2.21 1.6-3.32 1.93-1.82.56-3.75.5-5.64.64-7.49.54-16.81-1.21-21.56-7.6a24.652 24.652 0 0 1-3.89-7.81c-.11-.38-.38-1.29-.87-1.27-2.27.08 1.61 8.71 2.12 9.64 4.21 7.72 12.58 11.18 21.06 11.57 3.02.13 6.08.05 9.03-.61 1.72-.38 3.5-.86 5.03-1.74.81-.47 1.56-1.03 2.11-1.79.52-.69.59-2.02 1.23-2.57.8-.69 1.64-1.31 2.24-2.2.58-.85 1.33-1.57 1.77-2.51.3-.64.64-1.4.66-2.11 0-.34.03-.7 0-1.05-.04-.41-.35-.59-.43-.94-.11-.54.45-1.03.73-1.4.35-.47.69-1.01.8-1.58.23-1.15.14-2.42-.15-3.55-.1-.39-.35-.81-.56-1.13-.31-.47-.62-.47-.5-1.06.12-.57.36-1.14.45-1.73.19-1.26.18-2.58-.24-3.79-.45-1.29-1.46-2.16-2.75-2.52-.59-.17-1.11-.48-1.68-.63-1.5-.42-2.94-.55-4.49-.71-1.23-.12-2.48-.23-3.68-.56-.94-.25-1.88-.44-2.81-.69-.75-.19-1.43-.65-2.14-.95-.71-.3-1.55-.71-2.34-.48-1.82.55-1.21 2.88-.15 3.76.19.19.39.35.61.49z"/><path fill="#ED6C30" d="M66.95 15.43c-.45-4.68-3.15-5.62-6.79-7.73-1.37-.8-2.19-2.31-3.45-3.26-1.6-1.21-3.58-2.1-5.61-2.19-2.73-.12-4.78 1.12-7.38-.35C40.68.18 36.76.07 33.57 1.42c-1.97.83-3.54 2.28-5.42 3.23-1.81.91-4.04.92-5.67 2.18-1.72 1.32-2.75 3.79-3.23 5.83-.78 3.32-.32 7 1.59 9.66.81 1.13 1.78 2.17 2.82 3.09.5.44.71.91 1.12 1.37.01.01.03.02.03.02-.26.71-.58 1.39-.82 2.11-.68 2.06-.71 4.02-.63 6.22.08 1.89.44 4.02-.26 5.85-.31.8-.73 1.39-1.21 1.87-1.3 1.26-3.11 1.71-4.72 3.09-4.99 4.28-7.42 11.88-5.08 18.14 1.87 4.99 6.86 8.65 12.24 7.71 6.67-1.17 9.77-6.93 9.77-13.38 0-2.9 0-8.38 2.59-10.32 1.19-.9 2.65-1.34 3.85-2.31 1.54-1.25 2.96-2.71 3.98-4.42 1.31-2.18 2.2-4.69 2-7.26-.25-3.29-2.31-6.04-5.05-7.75-1.36-.85-2.87-1.47-4.42-1.95 1.33-.8 5.03-2.74 9.25-2.27 5.27.59 9.07 2.72 12.32 6.64 0 0 3.67 2.9 5.5-.92.59-1.04.95-2.48 1.39-3.19 1.53-2.53 1.72-6.38 1.44-9.23z"/><path fill="#FFF" d="M37.13 35.11c0 2.1-1.41 3.8-3.15 3.8-1.73 0-3.15-1.7-3.15-3.8 0-2.1 1.42-3.79 3.15-3.79 1.74 0 3.15 1.7 3.15 3.79z"/><path fill="#FCC21B" d="M21.6 32.63c-4.97.97-12.84 4.74-11.51 7.78.92 2.12 3.98 2.39 5.84 3.28 1.7.81 6.26 2.85 8.06 1.65 1.9-1.27 2.15-3.72 1.93-5.82-.11-1.07.13-6.5-1.05-6.96-.66-.25-1.84-.2-3.27.07z"/><path fill="#ED6C30" d="M22.48 48.24c-1.91 0-4.48-.77-7.63-2.27-.43-.21-.95-.37-1.48-.54-1.89-.61-4.48-1.45-5.59-4.01-.54-1.24-.47-2.64.21-3.93 2.11-4.01 9.75-6.67 13.12-7.34 2.04-.4 3.56-.38 4.69.06 2.32.9 2.54 3.76 2.61 8.01 0 .46 0 .83.03 1.03.49 4.75-1.38 7.07-3.04 8.19-.79.53-1.78.8-2.92.8zm-9.9-8.61c.45.39 1.56.75 2.34 1 .75.24 1.48.49 2.1.78 4.53 2.16 5.72 1.76 5.72 1.76.81-.57.78-2.36.68-3.38-.03-.27-.04-.81-.06-1.47-.01-.65-.04-2.29-.17-3.37-.28.03-.65.07-1.1.16-4.23.83-8.61 3.25-9.51 4.52z"/></svg>