<svg xmlns="http://www.w3.org/2000/svg" width="128" height="128" viewBox="0 0 128 128"><path fill="#FFF" d="M50.61 20.75c1.42-1.76 4.26-1.76 6.35-.01 1.83 1.55 2.47 3.92 1.65 5.66-.11.25-.27.49-.44.71-.46.56-1.08.93-1.77 1.12-1.42.41-3.17.05-4.57-1.14-2.09-1.74-2.63-4.59-1.22-6.34zM29.6 30.99c2.13-.71 4.54.79 5.36 3.4.62 1.96.16 3.99-1.02 5.16-.38.38-.82.68-1.35.85-.6.21-1.21.22-1.81.1-1.54-.32-2.96-1.62-3.55-3.49-.83-2.6.23-5.31 2.37-6.02z"/><path fill="#ED6C30" d="M60.7 104.19c2.79-4.01 3.86-9.2 1.63-13.53-4.57-8.9-16.54-3.77-20.6 2.51-.98 1.5-1.52 3.23-1.74 5-1.46-.84-2.86-1.74-4.12-2.73-3.11-2.44-5.89-5.19-8.24-8.2-1.69-2.16-2.98-4.61-3.97-7.04.89.2 1.81.33 2.84.26 8.63-.54 15.91-11.53 11.8-19.51-3.71-7.22-12.37-5.01-17.5-.54-.03-1.55-.03-3.04.24-4.33.07-.35.18-.7.28-1.04.19-.67.4-1.34.64-2.04.31-.9.61-1.79.87-2.74.08-.25.2-.56.6-.88.58.05 1.17.07 1.73.06.41-.01.8-.04 1.17-.08 4.93-.52 9.9-1.8 14.62-3.28 2.74-.85 5.48-1.82 8.17-2.91.93 2.3 2.96 5.69 3.97 7.5.56 1.01 1.13 2 1.72 2.99-3.04 2.19-5.35 5.38-5.73 8.93-1.18 11.17 9.71 15.31 18.23 12.45 1.1 1.87 2.2 3.73 3.3 5.6 2 3.38 7.28 13.5 10.88 19.93-5.16 2.41-11.23 3.75-17.76 3.75-1.03-.01-2.03-.07-3.03-.13zM79.21 86.67c-2.29-3.89-4.55-7.78-6.83-11.68-.37-.66-.76-1.31-1.14-1.96 2.11-1.49 3.84-3.55 4.81-6.2 1.71-4.64-.16-9.26-3.55-12.38-2.21-2.02-5.06-3.4-8-3.73-1.92-.21-3.97.14-5.95.9-1.75-2.91-3.76-6.5-5.61-9.14a6.98 6.98 0 0 0-.6-.75c2.35-1.1 4.64-2.31 6.79-3.77 1.88-1.28 3.74-2.57 5.52-4 1.56-1.24 3.09-2.61 4.42-4.15.65-.77 1.28-1.57 1.79-2.44.15-.27.3-.55.43-.83.07 0 .16 0 .22.01l.3.02c.6.03 1.25.14 1.91.28 1.49.31 3.12.85 4.73 1.54-.58.21-1.15.44-1.66.71-2.24 1.2-3.98 3.2-5 5.49-2.05 4.57-1.24 10.24 4.08 12.78 5.99 2.84 14.29-.3 17.59-6.03.1.16.2.32.3.47.44.69.86 1.38 1.27 2.07.88 1.5 1.66 3 2.31 4.4 1.55 3.36 2.63 6.92 3.27 10.57-.76-.03-1.5 0-2.25.13-6.93 1.25-15.72 9.79-9.64 17 2.59 3.07 6.68 4.17 10.68 3.75-1.29 4.25-4.52 9.72-8.15 13.78-1.67 1.86-3.64 3.49-5.83 4.9-2.2-4.23-5.59-10.7-6.21-11.74z"/><path fill="#2F2F2F" d="M126.34 70.53c-6.54-7.84-14.33-9.93-18.83-10.46-.64-5.05-1.99-9.98-4.13-14.59-.26-.55-.55-1.13-.84-1.7 3.06.01 7.56.73 13.07 3.77.51.28 1.06.41 1.61.41 1.17 0 2.31-.62 2.92-1.72a3.34 3.34 0 0 0-1.31-4.52c-8.94-4.92-16.11-4.9-19.98-4.31-2.85-4.29-6.37-8.44-10.22-11.05-3.29-2.22-8.31-4.79-13.19-5.9l1.97-7.28c.34-1.27-.1-2.63-1.12-3.46L65.89 1.3a3.334 3.334 0 0 0-4.69.49 3.313 3.313 0 0 0 .49 4.68l8.72 7.05L69 18.76c-.71-.57-1.46-1.08-2.13-1.5-2.89-1.79-6.06-2.5-9.43-2.82-.28-.03-.57-.05-.86-.07-2.72-.16-5.57.09-8.45.68-.02-.13-.04-.26-.06-.37-.14-.97-.33-1.96-.32-2.95.01-1.57.46-3.26-.46-4.68-.96-1.47-3.2-.88-3.82.7-.58 1.48-.62 3.33-.61 4.9v3.83a49.837 49.837 0 0 0-11.19 5.4c-.09-.04-.17-.08-.25-.12-1.23-.56-2.46-1.12-3.68-1.69-1.42-.66-3.13-1.39-4.72-1.48-1.68-.09-3.15 1.7-2.21 3.18.9 1.43 2.63 1.72 4.07 2.37.73.33 1.41.78 2.08 1.23-.92.79-1.81 1.6-2.61 2.43-2.81 2.92-5.06 6.42-5.87 10.44-.46 2.33-.86 4.78-.45 7.14-.29.36-.54.75-.77 1.14l-4.66-1.66-1.08-11.08a3.338 3.338 0 0 0-3.64-2.99 3.332 3.332 0 0 0-2.99 3.64l1.28 13.2c.12 1.29.98 2.38 2.2 2.82L15 52.81c-.19.61-.37 1.25-.5 1.94-.4 1.98-.4 3.99-.38 5.88.01 1.06 0 2.14-.01 3.23-.04 3.2-.08 6.51.61 9.79.66 3.13 1.78 7.12 3.62 11.07-2.03 3.01-5.44 9.86-4.27 20.89a3.331 3.331 0 0 0 3.3 2.98l.36-.02c1.84-.2 3.16-1.84 2.97-3.66-.68-6.36.44-10.78 1.63-13.59.02.02.03.04.04.05 2.69 3.43 5.84 6.57 9.38 9.34 2.55 2 5.44 3.7 8.53 5.15-.56 3.89-.51 11.04 4.43 19.9a3.36 3.36 0 0 0 2.92 1.71c.55 0 1.11-.14 1.62-.43a3.32 3.32 0 0 0 1.28-4.53c-3.46-6.18-3.98-11.09-3.83-14.12a56.78 56.78 0 0 0 17 2.6c13.26 0 25.11-4.75 32.51-13.03 4.41-4.94 8.23-11.53 9.72-16.8 1.34-4.72 1.99-9.53 2.02-14.3 3.42.61 8.69 2.46 13.26 7.94.67.79 1.61 1.2 2.57 1.2a3.335 3.335 0 0 0 2.56-5.47zM60.7 104.19c2.79-4.01 3.86-9.2 1.63-13.53-4.57-8.9-16.54-3.77-20.6 2.51-.98 1.5-1.52 3.23-1.74 5-1.46-.84-2.86-1.74-4.12-2.73-3.11-2.44-5.89-5.19-8.24-8.2-1.69-2.16-2.98-4.61-3.97-7.04.89.2 1.81.33 2.84.26 8.63-.54 15.91-11.53 11.8-19.51-3.71-7.22-12.37-5.01-17.5-.54-.03-1.55-.03-3.04.24-4.33.07-.35.18-.7.28-1.04.19-.67.4-1.34.64-2.04.31-.9.61-1.79.87-2.74.08-.25.2-.56.6-.88.58.05 1.17.07 1.73.06.41-.01.8-.04 1.17-.08 4.93-.52 9.9-1.8 14.62-3.28 2.74-.85 5.48-1.82 8.17-2.91.93 2.3 2.96 5.69 3.97 7.5.56 1.01 1.13 2 1.72 2.99-3.04 2.19-5.35 5.38-5.73 8.93-1.18 11.17 9.71 15.31 18.23 12.45 1.1 1.87 2.2 3.73 3.3 5.6 2 3.38 7.28 13.5 10.88 19.93-5.16 2.41-11.23 3.75-17.76 3.75-1.03-.01-2.03-.07-3.03-.13zm18.51-17.52c-2.29-3.89-4.55-7.78-6.83-11.68-.37-.66-.76-1.31-1.14-1.96 2.11-1.49 3.84-3.55 4.81-6.2 1.71-4.64-.16-9.26-3.55-12.38-2.21-2.02-5.06-3.4-8-3.73-1.92-.21-3.97.14-5.95.9-1.75-2.91-3.76-6.5-5.61-9.14a6.98 6.98 0 0 0-.6-.75c2.35-1.1 4.64-2.31 6.79-3.77 1.88-1.28 3.74-2.57 5.52-4 1.56-1.24 3.09-2.61 4.42-4.15.65-.77 1.28-1.57 1.79-2.44.15-.27.3-.55.43-.83.07 0 .16 0 .22.01l.3.02c.6.03 1.25.14 1.91.28 1.49.31 3.12.85 4.73 1.54-.58.21-1.15.44-1.66.71-2.24 1.2-3.98 3.2-5 5.49-2.05 4.57-1.24 10.24 4.08 12.78 5.99 2.84 14.29-.3 17.59-6.03.1.16.2.32.3.47.44.69.86 1.38 1.27 2.07.88 1.5 1.66 3 2.31 4.4 1.55 3.36 2.63 6.92 3.27 10.57-.76-.03-1.5 0-2.25.13-6.93 1.25-15.72 9.79-9.64 17 2.59 3.07 6.68 4.17 10.68 3.75-1.29 4.25-4.52 9.72-8.15 13.78-1.67 1.86-3.64 3.49-5.83 4.9-2.2-4.23-5.59-10.7-6.21-11.74zm-28.6-65.92c1.42-1.76 4.26-1.76 6.35-.01 1.83 1.55 2.47 3.92 1.65 5.66-.11.25-.27.49-.44.71-.46.56-1.08.93-1.77 1.12-1.42.41-3.17.05-4.57-1.14-2.09-1.74-2.63-4.59-1.22-6.34zM29.6 30.99c2.13-.71 4.54.79 5.36 3.4.62 1.96.16 3.99-1.02 5.16-.38.38-.82.68-1.35.85-.6.21-1.21.22-1.81.1-1.54-.32-2.96-1.62-3.55-3.49-.83-2.6.23-5.31 2.37-6.02z"/></svg>