<svg xmlns="http://www.w3.org/2000/svg" width="128" height="128" viewBox="0 0 128 128"><path fill="#FFF" d="M67.63 20.91c1.78-1.26 3.79-1.9 6-1.9 2.41 0 4.91.76 7.25 2.2 1.87 1.14 3.49 2.57 4.83 4.24 1.03 1.27 1.83 2.59 2.53 3.93a37.401 37.401 0 0 0-5.96 8.44c-3.16 6.14-5.53 12.68-7.12 19.51-2.65-5.86-7.15-11.07-12.7-14.23-.85-.49-1.76-.92-2.68-1.31-.49-7.25 1.29-16.25 7.85-20.88zM105.3 25.79c4.34 0 8.27 2.78 10.5 7.43.96 1.98 1.55 4.06 1.78 6.18 1.87 17.8-15.55 28.6-29.54 37.27l-.58.36c-.94.59-1.84 1.03-2.77 1.39-.12-.49-.03-1.44-.1-2.24-.07-.8-.32-1.45-1.12-1.28-.31.06-.76.39-1.23.73-1.01.73-2.16 1.56-2.49.28-.04-.15-.04-.37-.02-.61.02-.65.11-1.47-.45-1.75-.48-.24-1.05.06-1.61.56-.01-.19-.01-.37-.01-.56.14-1.16.23-2.33.22-3.53.06-.65.09-1.31.18-1.96 1.11-10.03 3.93-19.49 8.38-28.12.98-1.91 2.24-3.87 3.73-5.7a29.3 29.3 0 0 1 1.82-2.05c.6-.61 1.21-1.2 1.86-1.75 3.12-2.63 6.84-4.49 10.99-4.67l.46.02z"/><path fill="#2F2F2F" d="M122.95 88.99c-.21 1.73-.74 3.43-1.55 5.07-.77-5.19-3.28-10.54-5.65-14.09-1.56-2.33-3.65-4.04-5.93-5.55 1.38.15 2.74.39 3.99.83 6.09 2.15 9.85 7.8 9.14 13.74zM84.78 100.48c.45.02.9.04 1.2-.08.9-.37 1.31-.81 1.06-1.74-.19-.69-.92-1.52-.74-2.23.34-1.33 3.45.52 3.72-1.48.05-.46-.04-.77-.2-1.18-.17-.48-.47-.64-.71-1.04-.59-1 .83-1.04 1.51-1.23.7-.18 1.98-.33 1.75-1.3-.18-.71-1.34-1.5-1.87-1.93-.44-.37-.76-.62-.84-.92 1.33 1.15 2.58 2.32 3.79 3.69 1.12 1.27 1.75 2.79 2.38 4.3.65 1.51 1.34 2.96 1.71 4.52.51 2.1.8 4.37.79 6.55 0 .48-.05.93-.07 1.39-5.69-.15-11.38-2.45-13.48-7.32zM107.28 98.26c-1.5-5.57-4.2-10.33-8.2-14.46-1.62-1.67-3.41-3.72-5.34-4.95 1.46-1.08 3.12-1.98 4.86-2.71 10.43 4.84 15.52 15.43 15.44 26.41a28.421 28.421 0 0 1-5.64 3.2c.04-2.65-.57-5.44-1.12-7.49zM56.68 61.36c.74-.28 1.51-.32 2.27-.18 1.15.21 2.25.86 3.12 1.86.54.63.99 1.37 1.3 2.23.25.7.37 1.4.39 2.1.07 1.35-.27 2.62-.94 3.62-.52.78-1.21 1.4-2.09 1.74-2.56.95-5.55-.78-6.68-3.91-1.11-3.13.07-6.49 2.63-7.46zM34.73 80.26c-2.71.4-5.39-1.93-5.96-5.22-.55-3.27 1.2-6.28 3.93-6.67 2.71-.41 5.39 1.93 5.93 5.21.58 3.27-1.18 6.25-3.9 6.68zM46.72 88.88c-1.2.04-2.96-.47-4.28-1.38-1.29-.91-2.43-2.71-1.42-4.27 1.17-1.81 3.2-1.26 4.68-.29.8.52 1.52.79 2.44.65 2.3-.35 4.72-1.31 5.51-3.72.34-1.04.98-1.9 2.12-1.84 1.03.05 2.07.57 2.46 1.57 2.53 6.29-7.3 9.11-11.51 9.28z"/><path fill="#FCC21B" d="M125.62 79.55c.14-.46.23-.9.27-1.09.15-.67.45-1.44.63-2.2.14-.6.21-1.19.05-1.73-.23-.85-.82-.73-1.58-.73-.8 0-1.54.06-2.34.15-.52.05-1.07-.02-1.6.07a19.136 19.136 0 0 0-5.69-3.18c-2.39-.84-4.98-1.27-7.69-1.27-.35 0-.69.04-1.03.05 9.39-7.64 16.97-17.4 15.58-30.7-.28-2.65-1.01-5.25-2.21-7.72-3.14-6.55-8.9-10.36-15.4-10.07-4.85.21-9.17 2.19-12.8 5.01-.72-1.22-1.51-2.44-2.46-3.62a23.343 23.343 0 0 0-6.03-5.29c-6.05-3.71-13.21-3.81-18.4-.13-7.55 5.32-10.05 14.97-9.92 23.17-2.04-.47-4.18-.71-6.33-.78-.45-2.01-.92-4.01-1.41-6-1.11-4.33-3.04-8.64-6.64-11.45-2.41-1.89-5.56-3.38-8.49-4.2-2.86-.79-8.59-.76-7.46 4.04.58 2.48 4.74 2.59 6.71 3.21 7.35 2.27 8.32 7.14 10.15 13.78.08.32.14.67.19 1.03-.13.02-.25.03-.38.05-3.77.61-7.49 1.82-10.84 3.54-1.26-1.49-2.5-3-3.79-4.46-2.97-3.34-6.67-6.28-11.16-7.12-3-.56-6.49-.44-9.47.19-2.91.61-7.98 3.27-4.76 7.02 1.66 1.93 5.4.12 7.43-.24 7.56-1.35 10.67 2.52 15.35 7.57.23.24.44.54.66.84-.92.77-1.8 1.57-2.59 2.44-9.46 10.48-11.78 29.85-1.73 40.06 4.77 4.86 11.05 7.56 18.16 8.09 1.83.14 6.52.38 11.28-.41 2.21-.36 4.44-.95 6.36-1.54-1.88 1.92-4.02 4.49-6.43 4.78-1.77.22-3.65-.1-5.43-.09-1.33.02-2.93-.31-4.22.15-1.19.43-1.61 1.82-1.31 2.98.38 1.51 1.61 1.86 3 1.95 1.42.09 2.87-.24 4.3-.22 1.44.03 2.88.25 4.32.17.88-.05 1.66-.45 2.47-.68.8-.23 1.43-.58 2.12-1.07.86-.61 1.68-1.32 2.48-2.01 1.3-1.12 2.57-2.37 3.69-3.66.31-.37.65-.68.98-1.02.41.56-.39 1.59-.76 2.28-.76 1.44.53 1.47 1.64 1.37.08-.01.16-.05.24-.07-1.26 1.47-2.58 2.97-4.05 4.23-.96.82-1.91 1.62-3.02 2.22-.99.53-2.35 1.54-2.45 2.78-.11 1.46 1.56 2.95 3.05 2.4 1.29-.47 2.57-1.25 3.74-1.96 1.31-.8 4.65-3.75 7.07-6.82.01.15.01.31.03.47.1.94.57 2.06 1.71 1.54.48-.22 1.1-1.12 1.71-1.28 0 .53.02 1.06.02 1.58 0 1.37-.15 2.69-.15 4.05v4.4c0 1.7-.38 3.44-.09 5.12.16.95 1.04 1.44 1.94 1.52.64.06 2.32-.2 2.74-.72.24-.3.16-.93.23-1.31.11-.54.16-1.02.16-1.59.02-1.5.04-2.99.07-4.49.04-2.79.07-5.59-.04-8.38.21.01.45.14.76.5.44.52.72 1.17 1.4.63.55-.45.71-1.39 1.47-1.65.13-.05.27-.05.41-.07-.01.64.03 1.27.03 1.9-.01 1.37-.16 2.69-.16 4.06v4.4c0 1.7-.38 3.44-.09 5.12.17.95 1.04 1.44 1.94 1.52.64.06 2.31-.2 2.73-.72.25-.3.16-.93.24-1.3.1-.55.15-1.02.16-1.59.02-1.49.04-3 .07-4.49.03-1.58.04-3.16.04-4.74 3.78 2.95 8.91 4.37 13.77 4.37.45 0 .91-.02 1.36-.03 13.49-.7 26.07-11.19 27.47-22.88.42-3.58-.35-7.02-1.98-10.03zm-2.67 9.44c-.21 1.73-.74 3.43-1.55 5.07-.77-5.19-3.28-10.54-5.65-14.09-1.56-2.33-3.65-4.04-5.93-5.55 1.38.15 2.74.39 3.99.83 6.09 2.15 9.85 7.8 9.14 13.74zM67.63 20.91c1.78-1.26 3.79-1.9 6-1.9 2.41 0 4.91.76 7.25 2.2 1.87 1.14 3.49 2.57 4.83 4.24 1.03 1.27 1.83 2.59 2.53 3.93a37.401 37.401 0 0 0-5.96 8.44c-3.16 6.14-5.53 12.68-7.12 19.51-2.65-5.86-7.15-11.07-12.7-14.23-.85-.49-1.76-.92-2.68-1.31-.49-7.25 1.29-16.25 7.85-20.88zm37.67 4.88c4.34 0 8.27 2.78 10.5 7.43.96 1.98 1.55 4.06 1.78 6.18 1.87 17.8-15.55 28.6-29.54 37.27l-.58.36c-.94.59-1.84 1.03-2.77 1.39-.12-.49-.03-1.44-.1-2.24-.07-.8-.32-1.45-1.12-1.28-.31.06-.76.39-1.23.73-1.01.73-2.16 1.56-2.49.28-.04-.15-.04-.37-.02-.61.02-.65.11-1.47-.45-1.75-.48-.24-1.05.06-1.61.56-.01-.19-.01-.37-.01-.56.14-1.16.23-2.33.22-3.53.06-.65.09-1.31.18-1.96 1.11-10.03 3.93-19.49 8.38-28.12.98-1.91 2.24-3.87 3.73-5.7a29.3 29.3 0 0 1 1.82-2.05c.6-.61 1.21-1.2 1.86-1.75 3.12-2.63 6.84-4.49 10.99-4.67l.46.02zm-20.52 74.69c.45.02.9.04 1.2-.08.9-.37 1.31-.81 1.06-1.74-.19-.69-.92-1.52-.74-2.23.34-1.33 3.45.52 3.72-1.48.05-.46-.04-.77-.2-1.18-.17-.48-.47-.64-.71-1.04-.59-1 .83-1.04 1.51-1.23.7-.18 1.98-.33 1.75-1.3-.18-.71-1.34-1.5-1.87-1.93-.44-.37-.76-.62-.84-.92 1.33 1.15 2.58 2.32 3.79 3.69 1.12 1.27 1.75 2.79 2.38 4.3.65 1.51 1.34 2.96 1.71 4.52.51 2.1.8 4.37.79 6.55 0 .48-.05.93-.07 1.39-5.69-.15-11.38-2.45-13.48-7.32zm22.5-2.22c-1.5-5.57-4.2-10.33-8.2-14.46-1.62-1.67-3.41-3.72-5.34-4.95 1.46-1.08 3.12-1.98 4.86-2.71 10.43 4.84 15.52 15.43 15.44 26.41a28.421 28.421 0 0 1-5.64 3.2c.04-2.65-.57-5.44-1.12-7.49zm-50.6-36.9c.74-.28 1.51-.32 2.27-.18 1.15.21 2.25.86 3.12 1.86.54.63.99 1.37 1.3 2.23.25.7.37 1.4.39 2.1.07 1.35-.27 2.62-.94 3.62-.52.78-1.21 1.4-2.09 1.74-2.56.95-5.55-.78-6.68-3.91-1.11-3.13.07-6.49 2.63-7.46zm-21.95 18.9c-2.71.4-5.39-1.93-5.96-5.22-.55-3.27 1.2-6.28 3.93-6.67 2.71-.41 5.39 1.93 5.93 5.21.58 3.27-1.18 6.25-3.9 6.68zm11.99 8.62c-1.2.04-2.96-.47-4.28-1.38-1.29-.91-2.43-2.71-1.42-4.27 1.17-1.81 3.2-1.26 4.68-.29.8.52 1.52.79 2.44.65 2.3-.35 4.72-1.31 5.51-3.72.34-1.04.98-1.9 2.12-1.84 1.03.05 2.07.57 2.46 1.57 2.53 6.29-7.3 9.11-11.51 9.28z"/></svg>