<svg xmlns="http://www.w3.org/2000/svg" width="128" height="128" viewBox="0 0 128 128"><path fill="#FCC21B" d="M30.62 25.1c.07-.34.14-.67.2-1.02.24-1.56.4-3.34.23-4.95-.22-1.98-.62-4.21-1.17-6.13-.72-2.5-1.67-5.18-3.27-7.28-1.09-1.41-3.86-5.05-.25-5.3 5.42-.38 10.66 3.72 13.55 7.97 3.04 4.48 4.76 11.19 4.08 16.57-.41 3.12-3.48 2.72-5.87 2.82-.98.04-7.34.56-7.58-.74-.14-.65-.04-1.3.08-1.94zM65.38 23.54c.03-.36.05-.7.09-1.04.17-1.57.46-3.33 1.04-4.85.72-1.86 1.67-3.9 2.7-5.62 1.34-2.23 2.94-4.58 5.02-6.2 1.42-1.09 5.04-3.89 1.61-5.06C70.7-.99 64.58 1.64 60.7 5c-4.1 3.56-7.48 9.61-8.18 14.98-.4 3.12 2.67 3.51 4.94 4.22.95.3 6.96 2.44 7.51 1.23.3-.6.37-1.25.41-1.89z"/><path fill="#FFF" d="M104.52 56.16c1.34 1.08 3.8 1.07 5.42 1.27 2.61.33 5.46.81 8.04.2 1.15-.28 2.92-1.25 4.18-.7 1.15.49 1.58 2.05 1.69 3.15.37 3.91-2.56 7.96-6.21 9.14-2.01.65-4.76.79-6.85.43-.95-.16-3.02-.57-3.36-1.65l-2.91-11.84z"/><path fill="#78A3AD" d="M113.22 72.24c-1 0-1.96-.08-2.84-.22-1.9-.32-4.51-1.01-5.24-3.28l-2.94-12c-.24-1 .17-2.04 1.04-2.59.86-.54 1.99-.49 2.78.16.51.41 2.13.55 3.09.64.39.03.77.06 1.12.11l.89.11c2.23.29 4.63.53 6.3.13.23-.05.5-.15.79-.25 1.34-.48 3.36-.98 4.9-.32 2.49 1.08 3.01 3.94 3.12 5.12.46 4.87-3.06 10.09-7.86 11.64-1.46.48-3.3.75-5.15.75zm-3.61-5.35c.24.1.71.25 1.57.4 1.75.29 4.19.15 5.72-.35 2.69-.87 4.83-3.97 4.58-6.64-.06-.53-.2-.94-.3-1.14-.39.06-.96.25-1.38.4-.46.16-.89.3-1.26.39-2.37.56-5.37.31-8.04-.04l-.86-.11c-.29-.04-.61-.06-.94-.09-.28-.03-.57-.05-.86-.08l1.77 7.26z"/><path fill="#FFF" d="M113.12 82.2c-.17-7.88-1.5-15.93-5.7-22.22-1.79-2.67-4.29-4.78-7.11-6.33-3.62-1.97-7.86-3.49-12.02-4.62-5.84-1.57-12.02-2.73-18.57-4.19-3.11-.68-6.43-1.94-9.73-2.93-2.09-.61-4.13-1.67-6.2-2.58-1.67-.71-2.89-.93-4.61-1.17-3.59-.44-7.5-1.58-10.3.28-3.2 2.06-6.45 4.28-8 7.64-1.56 3.34-3.11 7.18-3.75 10.85-.46 2.83-.07 5.61 1.44 8.46 1.78 3.33 4.84 6.15 7.72 8.92 11.03 10.63 10.46 25.81 10.38 37.97-.02 1.79-.08 4.58 1.27 5.79 1.87 1.66 5.95.82 8.15.4 2.8-.52 2.42-4.36 2.42-6.58v-6.88c0-1.27-.18-2.5-.18-3.81v-3.26c0-1.37.01-3.17.94-4.3 1.2-1.46 3.53-.43 4.86.32.79.45 1.2 1 1.8 1.62 1.22 1.26 1.75 2.49 2.17 4.13 1.57 6.28 1.4 12.99 1.21 19.42-.03.94-.02 1.94.75 2.59 2.44 2.06 9.37 1.71 10.22-1.94.4-1.67.05-3.41.01-5.1-.12-4.32-.12-8.66.2-12.98.27-3.63.39-8.15 1.96-11.49.89-1.88 3.23-2.75 5.2-2.38 1.47.28 1.31 6.36 1.36 7.37.08 1.63-.52 7.4 1.38 8.18.52.21 1.23.25 1.81.32 1.34.17 2.72.03 3.98-.27 1.8-.44 1.81-1.72 1.81-3.36 0-1.7.09-3.4.14-5.1.07-1.74-.25-3.39.08-5.15 2.51-.25 3.78 2.17 4.37 4.24.46 1.6.56 3.26.55 4.91 0 1.58.27 3.06.5 4.63.14 1 0 1.3 1.07 1.59 1.36.38 3.27.31 4.72.18 4.19-.38 4.29-4.88 4.09-8.14-.33-5-.27-10-.39-15.03z"/><path fill="#78A3AD" d="M42.86 37.42c2.03 0 4.23.49 6.33.75 1.72.24 2.94.46 4.61 1.17 2.07.91 4.11 1.97 6.2 2.58 3.3.99 6.61 2.24 9.73 2.93 6.56 1.46 12.73 2.62 18.57 4.19 4.16 1.13 8.4 2.65 12.02 4.62 2.82 1.54 5.32 3.65 7.11 6.33 4.2 6.29 5.53 14.33 5.7 22.22.12 5.04.05 10.04.37 15.05.2 3.26.1 7.76-4.09 8.14-.64.06-1.38.1-2.12.1-.92 0-1.85-.06-2.61-.28-1.07-.29-.93-.59-1.07-1.59-.22-1.57-.5-3.05-.5-4.63.01-1.65-.09-3.32-.55-4.91-.56-1.97-1.73-4.26-4.01-4.26-.12 0-.23 0-.35.02-.33 1.76-.01 3.41-.08 5.15-.06 1.7-.14 3.4-.14 5.1 0 1.63-.01 2.92-1.81 3.36-.9.21-1.85.35-2.8.35-.39 0-.79-.03-1.18-.08-.58-.06-1.29-.1-1.81-.32-1.9-.78-1.3-6.54-1.38-8.18-.06-1.02.1-7.09-1.36-7.37-.3-.05-.6-.07-.91-.07-1.72 0-3.53.86-4.28 2.46-1.57 3.34-1.7 7.86-1.96 11.49-.32 4.32-.32 8.65-.2 12.98.04 1.69.39 3.43-.01 5.1-.51 2.2-3.23 3.21-5.84 3.21-1.73 0-3.41-.44-4.38-1.26-.77-.65-.78-1.65-.75-2.59.2-6.44.37-13.15-1.21-19.42-.42-1.64-.95-2.87-2.17-4.13-.61-.62-1.02-1.18-1.8-1.62-.84-.47-2.07-1.06-3.18-1.06-.64 0-1.24.21-1.68.74-.93 1.13-.94 2.93-.94 4.3v3.26c0 1.31.18 2.54.18 3.81v6.88c0 2.21.38 6.05-2.42 6.58-1.21.23-2.99.59-4.64.59-1.37 0-2.66-.24-3.5-.99-1.35-1.21-1.29-4-1.27-5.79.08-12.16.64-27.34-10.38-37.97-2.88-2.77-5.94-5.6-7.72-8.92-1.51-2.85-1.9-5.62-1.44-8.46.64-3.67 2.19-7.5 3.75-10.85 1.55-3.37 4.8-5.59 8-7.64 1.16-.82 2.52-1.07 3.97-1.07m0-4.78c-2.6 0-4.77.6-6.62 1.82-2.95 1.9-7.48 4.82-9.7 9.63-2.2 4.69-3.51 8.53-4.11 12.03-.66 4.02-.01 7.88 1.92 11.51 2.01 3.76 5.04 6.66 7.96 9.48l.67.63c9.12 8.82 9.02 21.73 8.92 33.12l-.01 1.37c-.03 2.59-.06 6.75 2.85 9.38 1.67 1.49 3.92 2.22 6.71 2.22 2.03 0 4.02-.38 5.34-.63l.2-.04c6.47-1.22 6.35-8.31 6.32-10.64l-.01-.64v-2.3-4.57c0-.81-.05-1.58-.09-2.25-.04-.51-.08-1.04-.08-1.57v-1.4c.12.27.23.61.35 1.08 1.44 5.76 1.25 12.32 1.06 18.11-.04 1.14-.13 4.2 2.44 6.39 2.45 2.08 5.73 2.39 7.47 2.39 5.4 0 9.52-2.71 10.49-6.91.45-1.91.32-3.67.21-5.08-.03-.41-.06-.82-.08-1.22-.1-4.03-.09-7.29.06-10.28.63 1.52 1.7 2.8 3.46 3.52 1.06.43 2.09.54 2.77.61l.27.04c.57.06 1.16.1 1.76.1 1.28 0 2.6-.17 3.92-.49.95-.22 1.74-.57 2.38-.98.75 1.33 2 2.24 3.73 2.72 1.11.31 2.38.45 3.88.45.79 0 1.64-.04 2.54-.12 3.45-.32 9.11-2.46 8.44-13.2-.21-3.32-.24-6.59-.29-10.04-.02-1.61-.04-3.21-.07-4.81-.24-10.47-2.37-18.58-6.5-24.77-2.12-3.16-5.15-5.88-8.81-7.87-3.64-1.99-8.04-3.69-13.05-5.05-4.17-1.12-8.4-2.02-12.87-2.97-1.93-.41-3.91-.82-5.92-1.27-1.83-.4-3.81-1.05-5.92-1.73-1.15-.38-2.32-.76-3.47-1.1-1.22-.36-2.51-.94-3.87-1.57-.6-.28-1.19-.55-1.8-.81-2.27-.97-4-1.26-5.86-1.52-.69-.08-1.31-.19-1.94-.28-1.63-.23-3.3-.49-5.05-.49z"/><path fill="#FFF" d="M73.48 55.68c.88-3.33 1.19-6.83.78-10.25-.14-1.24-.28-2.62-.69-3.81-.29-.84-.9-2.15.38-2.38 1.56-.3 3.56.74 5.12.92 2.85.33 6.33-.17 8.52-2.16 2.41-2.2 3.22-6.18-.27-7.89-1.53-.76-3.17-1.13-4.72-1.87-12.66-5.99-24.41-10.9-38.74-9.55-5.98.56-11.37 2.78-17.1 4.34-3.08.83-9.1.47-10.61 3.99-1 2.31.93 4.13 2.91 4.86 1.12.41 2.06.72 3.23.93-.29.95-1.37 1.36-2.16 1.82-1.2.69-2.3 1.5-3.44 2.31-2.85 2.01-5.3 4.61-7.05 7.63-6.04 10.35-2.96 24.88 6.72 31.97 4.12 3.03 3.79 9.64 3.2 14.17-.52 4.06 9.22.51 10.88-.21 2-.87 3.81-2.23 5.43-3.62 1.66-1.43 2.9-3.93 3.43-6.01.7-2.75.8-2.21 3.36-2.75.83-.18 1.66-.34 2.5-.49 2.1-.36 4.19-.83 6.25-1.44 4.1-1.2 8.09-2.9 11.63-5.28 5.15-3.47 8.8-9.1 10.44-15.23z"/><path fill="#78A3AD" d="M48.63 18.46c12.23 0 22.74 4.46 33.96 9.77 1.55.74 3.19 1.11 4.72 1.87 3.49 1.72 2.68 5.7.27 7.89-1.78 1.63-4.43 2.25-6.89 2.25-.55 0-1.1-.04-1.63-.09-1.37-.16-3.07-.97-4.53-.97-.2 0-.4.02-.59.06-1.28.23-.67 1.54-.38 2.38.41 1.19.55 2.57.69 3.81.41 3.42.1 6.92-.78 10.25-1.64 6.13-5.29 11.76-10.44 15.24C59.5 73.3 55.51 75 51.41 76.2c-2.05.61-4.14 1.08-6.25 1.44-.85.15-1.67.31-2.5.49-2.56.53-2.66 0-3.36 2.75-.53 2.07-1.77 4.58-3.43 6.01-1.62 1.39-3.44 2.76-5.43 3.62-1.07.48-5.55 2.13-8.42 2.13-1.55 0-2.63-.49-2.46-1.92.59-4.53.92-11.15-3.2-14.17-9.68-7.1-12.76-21.63-6.74-31.99 1.76-3.03 4.2-5.62 7.05-7.63 1.14-.8 2.24-1.62 3.44-2.31.79-.47 1.87-.87 2.16-1.82-1.17-.21-2.12-.52-3.23-.93-1.98-.73-3.91-2.55-2.91-4.86 1.51-3.51 7.54-3.16 10.61-3.99 5.74-1.55 11.12-3.78 17.1-4.34 1.64-.16 3.23-.22 4.79-.22m0-4.79v4.78-4.78c-1.73 0-3.49.07-5.23.24-4.69.45-8.92 1.76-13.02 3.03-1.68.52-3.26 1.02-4.88 1.46-.51.13-1.41.25-2.28.37-3.7.51-9.28 1.26-11.47 6.33-.87 2.01-.89 4.2-.05 6.16.36.83.86 1.61 1.49 2.3-3.14 2.35-5.79 5.31-7.7 8.6-7.27 12.51-3.66 29.67 8.05 38.25.87.64 2.19 2.75 1.29 9.7-.25 1.91.28 3.69 1.46 5.04 1.33 1.51 3.26 2.28 5.74 2.28 4.42 0 10.28-2.5 10.33-2.52 2.74-1.2 4.98-2.97 6.63-4.38 2.85-2.44 4.21-5.96 4.75-7.73.75-.16 1.49-.3 2.25-.43 2.31-.4 4.59-.93 6.77-1.56 4.9-1.44 9.26-3.42 12.95-5.92 5.88-3.96 10.4-10.51 12.38-17.97 1.07-4.02 1.38-8.04.92-11.96.56.05 1.12.07 1.68.07 4.04 0 7.63-1.24 10.11-3.5 2.65-2.41 4.01-5.89 3.56-9.11-.4-2.85-2.21-5.26-4.93-6.61-1.05-.51-2.06-.88-2.96-1.2-.67-.23-1.3-.46-1.82-.7-11.42-5.4-22.76-10.24-36.02-10.24z"/><path fill="#2F2F2F" d="M25.75 65.79c.31.02.61 0 .89-.1.9-.32 1.35-1.5.86-2.32-.48-.79-1.56-1.2-2.33-1.58-.95-.47-2.35-.97-3.07-1.76-.59-.65-.5-1.56-.59-2.37-.15-1.32-.21-2.65-.32-3.98-.12-1.35-.86-1.26-1.99-1.26-.46 0-1.05-.11-1.28.36-.15.28 0 1.12 0 1.46 0 1.79.55 4.08-.3 5.75-.83 1.63-4.65 2.47-3.39 4.86.95 1.8 2.71.79 3.88-.17.53-.43 1.15-1.27 1.9-1.29.65-.01 1.07.51 1.54.87.59.45 1.26.67 1.96.92.65.21 1.47.55 2.24.61z"/><path fill="#2F2F2F" d="M13.26 52.89c.04 1.3.88 2.68 2.2 3.57 1.07.72 2.61 1.13 4.11 1.18 1.51.06 3.06-.22 4.19-.85 1.38-.79 2.32-2.09 2.47-3.39.16-1.23-.09-2.5-1.4-3.41-.71-.52-1.63-.87-2.58-1.08-.34-.08-1.29-.28-2.26-.32a13.8 13.8 0 0 0-2.39.13c-.95.14-1.9.42-2.65.88-1.39.79-1.74 2.03-1.69 3.29z"/><g><path fill="#2F2F2F" d="M46.54 41.47c.19 3.1 2.58 5.48 5.33 5.3 2.75-.17 4.82-2.82 4.62-5.92-.19-3.1-2.59-5.47-5.33-5.3-2.74.17-4.82 2.82-4.62 5.92z"/></g><path fill="#FFF" d="M55.2 73.81c.06.07.14.14.22.2.7.51 1.86.16 2.6-.12.57-.21 1.1-.52 1.68-.71.81-.25 2.43-.79 2.56.48.23 2.26-1.41 4.53-3.19 5.75-.59.41-1.17.66-1.78 1.05-.54.35-1.7.84-1.93 1.49-.41 1.19 1 1.45 1.85 1.51.54.05 1.08.21 1.62.23.79.03 1.59-.33 2.38-.39 1.88-.16 3.37-.6 5.05-1.51 3.89-2.1 7.16-5.23 9.83-8.73 2.7-3.52 5.04-7.5 6.43-11.73.01-.03.03-.06.04-.1 1.36-4.1 3.74-9.89-.69-12.93-.42-.29-.81-.48-1.35-.39-.08.46-.09.93-.16 1.38-.06.41-.13.81-.21 1.18-.29 1.12-1.17 2.36-2.45 2.26-2.03-.15-2.68-2.31-3.03-3.95-.22-1.04-.24-2.16-.55-3.16-.57-1.85-1.59-1.55-3.24-1.39-1.31.12-2.55.85-3.49 1.75-2.26 2.14-3.54 4.89-5.12 7.51-.98 1.62-2.01 3.52-2.57 5.36-.42 1.37-.97 3.39-.83 4.82-.91 2.21-1.82 4.41-2.73 6.62-.39.93-1.76 2.58-.94 3.52z"/><path fill="#78A3AD" d="M22.4 29.87c.91-.14 1.61.1 1.27 1.57-.28 1.21-1.41 2-2.36 2.67-1.12.79-2.33 1.42-3.55 2.04-.2.1-.52.4-.75.38-.22-.02-.13-.07-.19-.26-.05-.16-.14-.26-.25-.39-.31-.37-.69-.65-1-1.02-.4-.47-.6-1.1-.81-1.67-.07-.2-.18-.38-.27-.58-.06-.13-.25-.38-.19-.52.41-.04.83-.16 1.24-.23.63-.12 1.29-.25 1.9-.43.92-.27 1.85-.57 2.77-.87.55-.17 1.44-.57 2.19-.69z"/></svg>