<svg xmlns="http://www.w3.org/2000/svg" xmlns:xlink="http://www.w3.org/1999/xlink" width="128" height="128" viewBox="0 0 128 128"><path fill="#2F2F2F" d="M62.926 99.532s6.059-1.424 9.837-5.197l-27.57-29.897-9.148 5.225 2.182 23.221 17.552 7.111 7.147-.463z"/><path fill="#F48120" d="M49.121 100.784c-.631.086-.69.227-.604.78.585 3.747.045 7.874-3.706 9.583-1.188.549-2.458.848-3.728 1.102-1.506.29-3.012.521-3.674 2.136-1.361 3.288 2.322 2.716 4.245 2.594 2.966-.187 6.467-1.129 8.857-2.921 1.551-1.175 2.114-2.961 2.136-4.821.027-2.268.576-4.708.979-6.921.118-.653.54-1.474.413-2.145-.884.213-1.755.503-2.653.667-.778.145-1.454-.153-2.265-.054zM64.341 111.759c.726-2.812.363-5.914-.2-8.726-.1-.49-.217-.979-.322-1.47-.095-.417-.213-.816-.268-1.238-.1-.739-.73-.966-1.356-.857-.485.081-1.002.09-1.497.154-.521.063-1.428.072-1.782.517-.276.335.118.834.2 1.188.109.518.231 1.057.286 1.583a16.13 16.13 0 0 1 .004 3.288c-.231 2.245-.961 4.403-1.832 6.471-.594 1.375-1.597 2.563-2.15 3.924-1.125 2.752 4.2 2.685 5.62 2.217 1.601-.535 1.991-2.1 2.313-3.56.258-1.168.675-2.33.984-3.491z"/><defs><path id="a" d="M111.749 41.566c-4.703-1.116-9.366-2.989-14.386-3.447-7.533-.694-10.159 2.581-14.954 7.556-2.526 2.617-4.707 7.9-8.376 9.039-4.349 1.351-9.075-3.084-11.642-6.05-3.719-4.317-5.479-9.814-8.155-14.753-2.68-4.948-7.506-9.306-12.762-11.37-3.139-1.229-6.912-1.683-10.277-1.474-5.043.313-9.951 2.199-14.055 5.134-11.161 7.96-11.86 22.59-6.73 34.301 4.376 10.032 1.161 22.359 9.062 30.908 8.068 8.749 21.719 11.86 33.185 10.622 2.925-.313 5.795-.975 8.576-1.923.558-.19 1.129-.386 1.691-.576-1.143-.408-2.249-.971-3.175-1.433a31.807 31.807 0 0 1-12.073-10.735c-1.81-2.712-3.447-5.574-4.544-8.654-.553-1.601-.994-3.297-1.17-4.984-.082-.78-.182-1.778.208-2.513.771-1.442 1.596.172 1.769.93 1.877 8.513 7.229 16.255 14.812 20.645a38.566 38.566 0 0 0 7.148 3.234c3.392 1.115 7.129 1.864 10.663 1.025 3.986-.953 5.605-4.427 9.138-6.091 1.469-.694 2.485-1.247 3.434-2.635.421-.617.802-1.229 1.401-1.692.59-.476 1.325-.535 1.877-1.075.503-.499.875-1.207 1.053-1.887.126-.463.272-.807.082-1.279-.272-.689-1.052-1.106-1.587-1.569-1.746-1.542-3.51-1.941-1.215-3.877 2.281-1.887 4.717-3.561 7.247-5.084 1.996-1.202 3.824-2.567 5.837-3.76 4.5-2.671 8.967-5.419 13.633-7.787 3.434-1.742 8.513-3.583 9.33-7.883.969-5.189-11.041-9.914-15.045-10.863z"/></defs><use xlink:href="#a" overflow="visible" fill="#37B4E2"/><path fill="#2F2F2F" d="M26.476 42.283c-1.329 1.963-.998 4.767.721 6.281 1.742 1.497 4.208 1.143 5.538-.812 1.315-1.963.993-4.785-.73-6.291-1.734-1.495-4.21-1.132-5.529.822z"/><path fill="#F48120" d="M10.339 45.689c-.912.019-1.864.762-2.567 1.261a25.443 25.443 0 0 0-3.325 2.875c-.971.989-1.914 2.05-2.603 3.247-.689 1.161-1.225 2.259.236 2.93 1.515.694 3.175.689 4.798.871 1.678.19 3.37.322 5.062.399 1.424.059 3.138.308 4.503-.172.885-.309.622-1.116.503-1.819-.195-1.043-.753-1.973-1.161-2.939-.853-2.027-2.567-6.553-5.292-6.653h-.154z"/></svg>