<svg xmlns="http://www.w3.org/2000/svg" width="128" height="128" viewBox="0 0 128 128"><path fill="#78A3AD" d="M124.6 33.3c-6.8-12.09-22.58-15.06-34.49-8.91-5.05 2.61-9 7.04-11.01 12.36a23.41 23.41 0 0 0-1.23 4.79c-.17 1.14-.25 2.73-1.9 2.28-.94-.26-1.87-.6-2.84-.8 0 0-.83-.15-1.77-.31-.28-.08-.52-.09-.74-.12-.67-.11-1.31-.2-1.67-.24-1.69-.15-3.33-.26-4.96-.27-1.65.01-3.29.12-4.97.27-.36.03-1 .13-1.66.24-.23.03-.46.04-.74.12-.94.15-1.77.31-1.77.31-.97.2-1.9.54-2.84.8-1.65.45-1.73-1.14-1.9-2.28-.24-1.63-.66-3.24-1.23-4.79-2-5.32-5.95-9.75-11-12.36-11.9-6.15-27.68-3.18-34.48 8.91-6.79 12.09-1.48 29.43 10.49 35.47 8.08 4.08 12.87 2.62 12.95 3.03.16.72-1.41 3.93-2.18 8.71-.9 5.64.25 11.6 2.9 16.65.92 1.75 2.04 3.45 3.29 4.97 1.3 1.59 2.87 3.12 4.53 4.34 7.2 5.26 18.3 8.05 28.63 8.23 10.32-.18 21.41-2.98 28.62-8.23 1.66-1.22 3.22-2.75 4.52-4.34 1.25-1.52 2.37-3.23 3.28-4.97 2.66-5.06 3.8-11.01 2.89-16.65-.76-4.79-2.33-8-2.18-8.71.1-.41 4.88 1.05 12.96-3.03 11.98-6.04 17.29-23.38 10.5-35.47z"/><path fill="#FFF" d="M33.01 62.41c-9.66 3.48-20.63-4.16-20.82-14.23-.16-7.73 6.72-14.19 13.98-14.81 9.47-.81 13.4 5.19 15.04 10.48 1.13 3.67.86 6.52.57 7.02-.6 1.02-7.63 11.13-8.77 11.54zM95.55 62.41c9.66 3.48 20.63-4.16 20.82-14.23.16-7.73-6.72-14.19-13.98-14.81-9.47-.81-13.4 5.19-15.04 10.48-1.13 3.67-.87 6.52-.57 7.02.6 1.02 7.64 11.13 8.77 11.54zM63.07 106.59c-.72.04-1.52-.31-2.03-.76-.91-.79-1.54-2.12-1.89-3.58-.32-1.38-.63-2.74-.68-4.17-.06-1.43 1.26-.94 2.34-1.1.99-.15 2-.97 2.83-1.47 1.21-.74 2.18.37 3.23.88.92.45 1.77.65 2.72.48.99-.19 1.21.31.95 1.84-.2 1.25-.38 2.51-.68 3.75-.26 1.14-.64 2.26-1.28 3.25-.41.63-1.19.95-1.92.91-.6-.03-.92-.3-1.37-.65-.59-.46-.76-.18-1.22.23-.27.25-.63.37-1 .39z"/><path fill="#2F2F2F" d="M62.65 90.21c-.21.03-.43.04-.64.03.08 0 .06 2.95.04 3.22-.17 1.56-1.67 2.07-3.04 2.01-1.3-.06-2.45-.56-3.58-1.17-.5-.27-1.1-.59-1.66-.3-.73.38-.66 1.23-.29 1.85.53.94 1.53 1.57 2.5 2.01 1.53.69 3.35 1.02 5.01.67.79-.17 1.49-.5 2.13-1 1.6-1.26 3.34.43 5.01.82 1.63.37 3.38.28 4.92-.37 1.08-.45 3.53-1.96 3.28-3.4-.09-.6-.49-1.07-1.14-.99-.7.09-1.38.69-1.98 1-1.69.87-3.68 1.06-5.44.24-1.15-.53-1.27-1.25-1.48-2.29-.08-.4-.18-.79-.15-1.2.03-.44.12-.86.06-1.3-.62-.07-1.3-.01-1.94-.01-.55.01-1.09.13-1.61.18zM49.53 79.69c0 3.12-2.09 5.65-4.67 5.65s-4.68-2.52-4.68-5.65c0-3.12 2.1-5.65 4.68-5.65 2.57 0 4.67 2.53 4.67 5.65zM79.04 79.69c0 3.12 2.09 5.65 4.67 5.65s4.68-2.52 4.68-5.65c0-3.12-2.1-5.65-4.68-5.65-2.59 0-4.67 2.53-4.67 5.65z"/><path fill="#2F2F2F" d="M59.04 86.68c0 3.49 2.35 6.32 5.25 6.32 2.88 0 5.24-2.83 5.24-6.32 0-3.5-2.35-6.33-5.24-6.33-2.9.01-5.25 2.83-5.25 6.33z"/></svg>