<svg xmlns="http://www.w3.org/2000/svg" xmlns:xlink="http://www.w3.org/1999/xlink" width="128" height="128" viewBox="0 0 128 128"><path fill="#FCC21B" d="M36.77 25.51c-.19-2.65-.25-5.15-.26-5.65-.18-4.18-1.64-12.45 2.58-14.36 4.35-1.97 7.35 2.42 9.18 6.28.44.93 6.05 13.52 6.2 13.37-.83.82-1.94 1.16-2.77 2.01-1.24 1.23-2.88 1.88-4.42 2.55-.7.29-1.29.45-2 .58-.87.17-1.59.66-2.42.93-.7.24-1.42.43-2.12.67-.78.27-1.53.57-2.36.63-.89.05-1.35-3.6-1.61-7.01zM90.33 25.13c.19-2.65.25-5.15.27-5.65.18-4.18 1.63-12.44-2.6-14.35-4.35-1.97-7.33 2.42-9.18 6.28-.42.93-6.05 13.53-6.19 13.37.81.82 1.92 1.16 2.77 2 1.23 1.23 2.88 1.88 4.44 2.55.69.29 1.27.45 1.97.58.88.17 1.6.66 2.43.93.7.24 1.42.42 2.12.67.78.27 1.52.57 2.36.63.89.06 1.36-3.59 1.61-7.01z"/><defs><path id="a" d="M123.72 24.98c-.65-6.47-8.3-8.03-13.61-6.94-6.11 1.25-10.37 6.98-16.64 7.66-.84.09-1.88-.06-2.91-.22-1.51-.95-3.1-1.81-4.79-2.56-13.23-5.9-31.21-5.71-42.69-.85-1.85.79-3.86 1.99-5.82 3.43-.96.15-1.94.28-2.71.19-6.29-.68-10.54-6.41-16.66-7.66-5.31-1.09-12.96.48-13.61 6.94-.76 7.6 3.67 11.08 10.53 12.56 3.13.68 6.37.89 9.5 1.63.72.17 1.82.66 3.04 1.18-1.02 6.36-.43 12.87-.66 19.3-.28 7.68-2.89 14.01-5.21 21.2-7.03 21.72 11.16 34.51 30.08 37.62 11.11 1.83 23.15 2.61 33.98-1.03 7.9-2.65 15.91-7.75 19.53-15.53 3.77-8.12 1.82-16.21-1-24.25-3.36-9.55-2.13-18.92-1.37-28.74.26-3.32-.05-6.34-.82-9.09.71-.3 1.35-.55 1.83-.66 3.12-.74 6.36-.96 9.5-1.63 6.84-1.47 11.27-4.95 10.51-12.55z"/></defs><use xlink:href="#a" overflow="visible" fill="#FFF"/><clipPath id="b"><use xlink:href="#a" overflow="visible"/></clipPath><path clip-path="url(#b)" fill="#2F2F2F" d="M20.19 76.91c-.04.12-.08.25-.12.37-.3.98-.74 2.09-.89 3.02 3.13.53 5.92-3.05 7.91-4.98 3.47-3.37 7.15-6.14 11.9-7.44 5.34-1.48 10.88-1.46 15.96-4 11.99-6 15.68-26.46 9.89-37.71-2.11-4.1-5.96-8.12-10.49-9.38-2.37-.67-5.55-1.05-7.98-.43-2.12.54-4.04 1.49-6.04 2.34-1.38.58-2.78 1.17-4.12 1.84-2.73 1.39-5.38-.8-7.42-2.55-2.17-1.84-4.23-2.81-7.02-3.46-3.47-.81-6.87-1.1-10.39-.43-1.84.35-4.25.96-5.78 2.05-1.38.96-1.81 2.46-2.89 3.6C1.39 21.14.89 22.68.44 24.51c-.77 3.17.55 6.78 2.31 9.44 1.84 2.77 5.61 4.73 8.59 5.87 2.37.9 4.92 1.33 7.39 1.71.6.09 2.1.49 2.37 1.08.2.43-.08.95-.04 1.4.04.44.26.81.29 1.25.1 1.09-.08 2.29-.05 3.4.1 4.46 1.09 8.89 1.07 13.35-.01 1.48.21 3.07.11 4.52-.22 3.54-1.23 7.03-2.29 10.38z"/><path fill="#FFF" d="M50.75 54.16c-.78 3.51-3.58 5.73-6.26 4.99-2.68-.77-4.22-4.22-3.46-7.73.79-3.5 3.6-5.74 6.29-4.98 2.68.75 4.22 4.22 3.43 7.72z"/><path fill="#2F2F2F" d="M79.51 54.51c1.12 3.39 4.12 5.24 6.71 4.18 2.59-1.09 3.78-4.72 2.66-8.12-1.12-3.37-4.13-5.25-6.72-4.17-2.58 1.09-3.78 4.73-2.65 8.11zM40.88 92.22c-.52-.29-1.07-.54-1.66-.74-1.42-.49-3.41-1.17-3.37-3.06.02-1.23 1.57-2.62 2.6-3.03 5.34-2.14 14.91-.37 16.28 6.25.41 1.92 0 5.24-1.87 6.31-2.57 1.48-5.07-.08-7.02-1.78-1.67-1.43-3.12-2.92-4.96-3.95zM85.2 92.22c.52-.29 1.07-.54 1.66-.74 1.42-.49 3.43-1.17 3.38-3.06-.04-1.23-1.57-2.62-2.61-3.03-5.36-2.14-14.9-.37-16.29 6.25-.41 1.92 0 5.24 1.88 6.31 2.56 1.48 5.06-.08 7.01-1.78 1.66-1.43 3.11-2.92 4.97-3.95z"/><path fill="#FCC21B" d="M48.05 89.76c-.88-.36-1.88-.48-3.01-.31-1.79.27-2.95 1.78-3.5 3.46-3.49 10.64 6.59 18.39 15.82 20.5 9.07 2.07 22.41.46 28.12-7.88 1.49-2.15 2.57-5.73 2.26-8.36-.28-2.33-1.31-5.45-3.11-7.04-1.73-1.52-4.86-1.23-6.8-.21-1.19.62-2.17 1.94-2.45 3.24-.28 1.39.48 2.27.74 3.57.2 1.01.1 2.03-.4 2.93-2.5 4.35-9.23 5.47-13.73 4.89-2.42-.31-5.35-1.18-7.38-2.57-1.41-.97-2.4-2.76-2.73-4.41-.37-1.85.63-3.35-.61-5.07-.92-1.27-1.96-2.23-3.22-2.74z"/><path fill="#2F2F2F" d="M68.26 123.36c-5.14 0-10.79-.51-17.26-1.58-13.89-2.29-25.03-8.81-30.57-17.89-4.25-6.98-5-15.3-2.15-24.07.4-1.23.8-2.44 1.21-3.62 1.87-5.54 3.63-10.78 3.84-16.67.07-2.12.05-4.25.05-6.38-.03-3.49-.05-7.07.31-10.67-.06-.02-.12-.04-.17-.05-1.5-.36-3.09-.58-4.75-.82-1.57-.23-3.13-.46-4.68-.79C2.16 38.23.35 30.59.94 24.65c.62-6.25 6.03-10.28 13.74-10.28 1.33 0 2.63.13 3.88.38 3.5.72 6.41 2.58 8.96 4.23 2.5 1.6 4.85 3.11 7.38 3.39.36.01.72-.02 1.06-.06 1.99-1.41 3.98-2.55 5.8-3.32 5.92-2.5 13.47-3.88 21.29-3.88 8.65 0 17.19 1.69 24.07 4.76 1.59.7 3.13 1.51 4.61 2.41.41.06.81.1 1.17.1 2.73-.28 5.08-1.79 7.57-3.4 2.56-1.65 5.47-3.51 8.97-4.23 1.25-.25 2.55-.38 3.87-.38 7.73 0 13.12 4.04 13.74 10.28.59 5.95-1.21 13.58-13.15 16.17-1.55.34-3.11.56-4.67.79-1.19.17-2.33.34-3.44.55.35 2.26.43 4.61.24 7.03l-.24 2.91c-.7 8.5-1.36 16.53 1.43 24.46 2.98 8.48 5.14 17.59.88 26.78-4.85 10.39-15.55 15.3-21.5 17.29-5.48 1.83-11.48 2.73-18.34 2.73zM14.68 21.07c-1.11 0-6.66.21-7.06 4.24-.43 4.26.76 7.41 7.9 8.96 1.39.3 2.81.5 4.22.71 1.74.25 3.54.51 5.34.94.94.23 1.99.68 3.23 1.21l.36.15c1.41.61 2.24 2.09 2 3.61-.64 3.94-.61 7.96-.58 12.22.02 2.23.04 4.45-.04 6.67-.25 6.87-2.16 12.56-4.19 18.57-.39 1.17-.79 2.34-1.18 3.54-2.25 6.96-1.75 13.19 1.51 18.52 4.45 7.3 14.14 12.82 25.92 14.76 13.93 2.29 23.85 1.97 32.37-.9 8.39-2.81 14.79-7.83 17.56-13.77 3.07-6.62 1.77-13.47-1.13-21.73-3.25-9.27-2.5-18.4-1.77-27.22l.23-2.89c.22-2.81-.02-5.48-.7-7.92-.46-1.63.37-3.34 1.92-4 1.01-.43 1.74-.69 2.34-.83 1.82-.43 3.62-.69 5.36-.94 1.41-.21 2.83-.41 4.22-.71 7.56-1.64 8.26-5.27 7.9-8.96-.4-4.04-5.96-4.24-7.08-4.24-.86 0-1.74.08-2.53.25-2.28.47-4.42 1.84-6.68 3.3-2.89 1.86-6.18 3.97-10.27 4.41-1.13.13-2.62-.06-3.78-.24-.46-.07-.89-.23-1.29-.48-1.38-.87-2.85-1.66-4.37-2.33-6.04-2.69-13.61-4.17-21.33-4.17-6.94 0-13.59 1.19-18.68 3.35-1.56.66-3.33 1.71-5.13 3.04-.44.32-.95.53-1.48.61-1.17.18-2.49.33-3.59.22-4.1-.45-7.38-2.55-10.27-4.41-2.27-1.46-4.42-2.83-6.68-3.3-.83-.16-1.71-.24-2.57-.24z"/></svg>