<svg xmlns="http://www.w3.org/2000/svg" width="128" height="128" viewBox="0 0 128 128"><path d="M38.754 42.72c0-.05 0-.1.02-.15.26-1.23 1.83-2.73 2.59-3.7 1.42-1.83 2.85-3.85 3.41-6.31.91-3.91-1.13-7.73-1.69-11.49-.28-1.92-3.76-8.95-1.27-10.25 5.04-2.65 3.85 8.41 6.63 9.7 5.08 2.38 9.59-14.44 11.52-17.6.49-.82.89-1.92 2-1.96 1.51-.05 2.08 1.26 2.25 2.84.21 1.94-.54 3.34-1.1 5.12-1.12 3.5-2.65 6.74-3.89 10.16-1.7 4.69-3.55 9.32-5.59 13.86a172.97 172.97 0 0 1-3.4 7.15c-.9 1.79-1.74 4.14-3.29 5.49-1.21 1.06-2.79.92-4.24.52-1.03-.29-4-2.01-3.95-3.38z" fill="#f79329"/><path d="M56.902 26.99c-.886.062-1.85.603-2.656.874-2.33.77-4.499 2.044-6.719 3.094-1.6.76-3.13 1.582-4.75 2.312-1.634.733-3.57 2.103-5.156 3.782-.287.202-.563.41-.844.625-.484-.03-.962-.05-1.406-.094-.75-.07-1.479.107-2.219.187-.71.08-1.75.627-2.25 1.157-.92.99-.168 2.816-.968 3.656-.55.58-1.452.347-2.032.937-.64.64-.856 1.485-.906 2.375-.03.54.108 1.147-.062 1.657-.44 1.34-2.077 2.843-1.407 4.343.27.6.41.735.22 1.375-.15.47-.31.968-.47 1.438-.19.56-.36 1.097-.53 1.687a7.145 7.145 0 0 0-.22 1.782 12.097 12.097 0 0 1-1.28 1.312c-.658.56-1.317 1.12-2 1.688-2.061 1.707-4.236 3.37-6.657 4.531-2.879 1.365-5.89 1.596-8.375 3.469a9.167 9.167 0 0 0-.531.437 9.07 9.07 0 0 0-.5.469 10.05 10.05 0 0 0-1.344 1.75c-1.13 1.848-1.625 3.982-1.625 6.187 0 .998-.001 1.59-.25 2.282a5.712 5.712 0 0 1-.344.718c-.005.01.005.022 0 .032a14.93 14.93 0 0 0-.5.968c-.004.01.004.023 0 .032a9.152 9.152 0 0 0-.406 1 6.77 6.77 0 0 0-.281 1.125c-.054.362-.056.75-.032 1.125v.03c.017.242.05.484.094.72.002.01-.002.02 0 .03.046.237.115.458.188.688.003.01-.003.022 0 .031.073.23.152.464.25.688.004.009-.004.022 0 .031.098.224.224.439.343.656.004.008-.005.024 0 .032.121.217.267.414.407.625a10.255 10.255 0 0 0 .968 1.25c.005.006-.005.025 0 .03.174.195.376.378.563.563.388.386.792.751 1.219 1.094.47.378.95.71 1.437 1.031.172 1.018.337 2.03.594 3.125.31 1.3.949 3.997 2.969 4.407.08.01.357.03.437.03 2.087 0 3.112-2.826 3.656-4.624 1.013.194 2.051.335 3.094.406.042.003.083-.003.125 0a27.7 27.7 0 0 0 1.75.063c.135 0 .272.002.406 0 .23-.003.458-.022.688-.032.367-.014.73-.033 1.094-.062.134-.011.272-.018.406-.031.074-.007.145-.024.219-.032a24.925 24.925 0 0 0 1.937-.28c.706-.132 1.39-.278 2.063-.47a41.942 41.942 0 0 0 3.03-1 40.372 40.372 0 0 0 2.563 2.344l.407.375c.67.57 1.39 1.143 2.25 1.563.68.33 1.295.5 1.875.5.78 0 1.427-.284 1.937-.844 1.48-1.69 1.166-5.329.656-9.219-.018-.12-.014-.215-.03-.344l.25-.218.312-.282c.062.015.124.02.187.032.55.1 1.053.147 1.563.187.13.01.276.011.406.031.94.49 1.681 1.365 1.781 1.875.02.14-.054.567-.094.907-.17 1.43-.467 4.05 1.563 6.78l-3.237 3.592-8.575 5.346c.202.95.538 1.953.968 2.938.215.492.451.963.72 1.437.004.008-.006.023 0 .032.263.466.561.91.874 1.343.005.007-.005.024 0 .031.155.213.334.424.5.625.005.006-.005.026 0 .032.167.201.354.374.531.562.005.006-.005.026 0 .031.178.188.374.36.563.532.189.173.394.344.594.5.06.047.126.08.187.125.149.109.284.245.438.343.44.283.892.504 1.375.688.237.09.471.155.718.219.013.003.02.028.032.03.806.207 1.65.372 2.53.532.881.16 1.79.273 2.72.375.793.087 1.592.151 2.406.188.146.007.291.026.437.03.104.004.209-.001.313 0 .27.007.54.032.812.032 1.56 0 3.114-.13 4.625-.375.356-.058.714-.114 1.063-.188.187-.039.378-.08.562-.125.094-.022.188-.039.282-.062.274-.069.543-.139.812-.219a18.69 18.69 0 0 0 1.531-.531c.305-.121.613-.237.907-.375.042-.02.082-.042.125-.063.334-.16.65-.347.968-.53.066-.039.123-.087.188-.126.37-.223.75-.43 1.094-.687.415-.31.818-.644 1.218-.969.4-.325.8-.66 1.188-1 .781-.684 1.508-1.397 2.25-2.125.731-.717 1.48-1.442 2.187-2.188.005-.006-.005-.025 0-.03.34-.36.694-.7 1.032-1.063.732-.789 1.458-1.582 2.187-2.375.333-.363.665-.733 1-1.094.005-.006-.005-.026 0-.031a120.95 120.95 0 0 1 2.125-2.25c.406-.417.833-.812 1.25-1.219.135-.007.272-.022.406-.031.608 1.63.91 3.26.969 4.844.033.874-.008 1.745-.125 2.593-.288 2.066-1.009 4.053-2.062 5.875-.431.746-.9 1.466-1.438 2.157-.7.9-1.484 1.741-2.344 2.53-.8.74-2.158 1.49-2.718 2.5-2.71 4.78 17.87 6.617 20.03 6.657.395.008.796.001 1.188 0 17.46-.04 33.507-8.987 34.094-28.156.18-5.72-.447-12.179-1.937-17.719a86.413 86.413 0 0 0-1.188-3.937c-.174-1.498-1.074-3.064-1.344-4.438-.56-2.85 1.359-3.229 3.719-4.219 1.31-.55 5.849-2.46 4.719-4.75-.51-1.04-4.628-.756-5.688-.906h-.062c-.418-.08-.832-.204-1.25-.312-.01-.002-.022.003-.031 0a12.575 12.575 0 0 1-1.282-.407c-.006-.002-.025.002-.03 0l-1-.375c-.01-.003-.023.003-.032 0-.198-.073-.391-.161-.594-.25-.009-.004-.022.004-.031 0-.837-.371-1.584-.856-1.344-1.437.03-.073.093-.174.156-.25.062-.072.126-.145.22-.219.187-.147.457-.254.75-.344.283-.086.611-.155.937-.218.072-.014.145-.018.218-.032.396-.073.781-.151 1.125-.25.179-.05.356-.119.5-.187.48-.232.948-.493 1.407-.781.104-.065.21-.12.312-.188.012-.008.02-.023.031-.031.268-.177.53-.366.782-.563.011-.009.02-.022.03-.03.03-.024.065-.04.095-.063.216-.177.424-.37.625-.563.006-.006.025.006.03 0 .78-.75 3.187-3.66 1.407-4.5-.009-.004-.022.004-.031 0-.04-.018-.082-.02-.125-.03a1.123 1.123 0 0 0-.156-.032c-.056-.007-.097-.031-.157-.031-.85 0-2.017.62-2.687.75-.66.13-1.429.187-2.219.187-.319 0-.647-.009-.969-.031-.03-.004-.063.004-.093 0a56.246 56.246 0 0 1-1.97-.313c-.021-.004-.04-.027-.062-.03-.317-.087-.626-.164-.906-.282-1.87-.78-3.535-1.296-1.375-2.906 1.75-1.3 4.88-3.338 4.5-5.938a.995.995 0 0 0-.562-.781 2.033 2.033 0 0 0-.938-.219c-1.23 0-2.879.614-3.469.844-.98.37-2.022.555-3.062.625-.175.01-.355.038-.531.063-1.589.012-3.284-.058-4.5-.282-.454-.213-.814-.54-.875-1a.596.596 0 0 1 .062-.343c.453-.258.91-.596 1.25-.813.01-.006.022-.025.031-.031.045-.023.119-.04.157-.063 1.46-.88 2.776-2.102 3.656-3.562.018-.03.041-.119.062-.156.037-.06.06-.127.094-.188.104-.183.2-.37.281-.562.008-.02.023-.043.031-.063.22-.506.426-1.102.563-1.687.03-.092.068-.19.094-.282.09-.31.147-.596.187-.906.07-.54.064-1.711-.406-2.031-.39-.26-1.065-.096-1.625.094-.31.11-.591.232-.781.312-.81.3-1.618.553-2.438.813-4.66 1.44-9.13 1.88-14 1.5-3.14-.25-6.524-.345-9.594-1.125-.26-.07-.845-.287-1.125-.157-.057.027-.08.053-.125.094-4.954-.93-9.966-1.586-14.968-1.906a37.14 37.14 0 0 0-2.094-.063c-2.34 0-4.69.254-7 .594-.323.047-.677.1-1.031.187.181-.321.371-.625.593-.843.71-.69 1.604-1.507 2.094-2.407.51-.94-.259-1.837-1.219-1.937a2.06 2.06 0 0 0-.375 0z" fill="#757f3f"/><path d="M98.559 126.145z" fill="#bdcf46"/><g fill="#2f2f2f"><path d="M28.404 75.98c1.35 1.96.62 5.06-2.66 5.26-1.45.08-5.57.39-5.86-1.56-.49-3.31 3.15-5.53 5.8-5.26 1.24.14 2.15.76 2.72 1.56zM6.324 75.2c-1.66 3.16 1.37 5.4 3.88 5.49 3.85.17 2.66-5 .45-6.65-1.75-1.3-3.5-.4-4.33 1.16z"/></g><path d="M58.894 56.39l-11.37 6.49c1.62 3.43 5.61 5.28 9.06 4.18 3.56-1.15 5.19-5 3.65-8.61-.33-.77-.8-1.45-1.34-2.06zM29.624 54.01a6.49 6.49 0 0 0-1.48 2.02c-1.35 2.88-.75 6.34 1.33 7.74 1.82 1.21 4.18.45 5.65-1.7l-5.5-8.06z" fill="#fcc21b"/><path d="M63.84 76.145c-6.69 0-13.605 3.283-19.125 6.813-.698.446-1.363.95-2 1.469 5.54 2.812 5.791 10.09 1.781 14.25-.66.68-1.31 1.37-2 2.03-1.18 1.14-2.93 2.092-4.5 2.532a9.604 9.604 0 0 0-1.687.656c.259.205.464.511.593.938.85 2.85 1.34 4.431 4.25 5.531 1.25.47 2.84.719 4.47.719 2.37 0 4.85-.503 6.5-1.563 1.92-1.24 2.945-2.71 3.905-4.75 2.18-4.67 5.027-7.363 9.657-9.593 4.01-1.92 8.433-3.368 11.093-7.188 4.41-6.32-5.667-10.997-10.687-11.687a17.29 17.29 0 0 0-1.906-.157h-.344z" fill="#ed6c30"/><path d="M96.09 92.395c-1.074.81-2.23 1.524-3.344 2.282-1.55 1.05-3.392 1.48-5.062 2.25-3.848 1.774-7.72 2.702-11.813 2.968.608 1.63.91 3.26.969 4.844 1.486.339 3.494.254 4.656.344 2.72.2 5.436.086 8.156-.094 2.29-.17 4.657-.569 6.907-.969.604-.103 1.286-.453 1.968-.75.034-3.714-.679-7.385-2.437-10.875zM98.277 106.708c-1.525.435-3.056.864-4.625 1.125-2.75.46-5.543.669-8.343.719-1.88.03-4.097-.173-5.907-.563-.862-.189-1.786-.454-2.687-.656-.288 2.065-1.01 4.053-2.063 5.875 1.336.519 3.031.83 4.032 1.125 2.62.78 5.32 1.245 8.03 1.625 2.27.33 4.648.42 6.938.5.686.023 1.534-.203 2.344-.344 1.08-3.105 1.901-6.26 2.281-9.406zM73.215 115.364c-.701.9-1.484 1.742-2.344 2.531-.8.74-2.159 1.49-2.719 2.5-2.71 4.78 17.872 6.617 20.032 6.657.393.008.795 0 1.187 0 .458-.394.918-.779 1.219-1.094 1.57-1.653 3.062-4.208 4.094-6.5-1.557.107-3.108.198-4.688.125-2.78-.13-5.562-.513-8.312-1.063a28.923 28.923 0 0 1-5.657-1.812c-.911-.413-1.867-.927-2.812-1.344z" fill="#bdcf46"/><path d="M53.324 110.36c.54.12 1.16.09 1.68.05 1.89-.17 3.91-1.69 3.42-3.84-.17-.73-.78-1.25-1.22-1.82-.55-.7-1.03-1.43-1.63-2.1-.55-.59-1.17-1.24-1.86-1.66-.28-.17-.5-.22-.84-.18-1.6.14-1.4 1.59-1.33 2.79.06.93.1 1.86.18 2.79.07.91 0 2.27.38 3.1.25.5.71.75 1.22.87z" fill="#fff"/><path d="M26.824 104.28c-2.21.83-4.15 2.05-5.59 4.67-1.41 2.55-1.96 5.41-2.1 8.3-.07 1.63.28 5.72 3.09 3.36 1.05-.89 1.72-2.85 2.27-4.04.7-1.5 1.63-2.82 2.83-3.96 4.75-4.52 11.78-4.26 17.6-6.93 5.12-2.35 7.35-7.67 10.36-12.05 1.25-1.82 2.9-3.33 4.81-4.43 1.5-.86 4.77-1.18 5.79-2.56.46-.62.59-1.64.49-2.39-.15-1.02-1.02-1.56-1.86-2.01-1.02-.54-2.35-.79-3.5-.79-6.09.03-13.22 2.7-16.54 7.99-.94 1.48-2.29 2.69-2.98 4.32-1.61 3.84-4.03 6.94-8.05 8.44-2.31.88-4.58 1.31-6.62 2.08z" fill="#fcc21b"/><path d="M100.434 7.802c-.749.128-1.345.752-1.938 1.187-3.06 2.24-13.414 16.391-17.844 12.281-2.44-2.26 2.538-12.213-3.562-11.593-3.02.29-1.838 8.225-2.188 10.125-.69 3.77.125 8.097-2.125 11.437-.952 1.41-2.25 2.483-3.625 3.406l-.03.032c-1.204 1.274-2.571 2.818-2.938 4.593-.884 4.242 6.754 2.17 9.5 1.438 1.2-1.18 2.407-2.34 3.656-3.5 4.53-4.21 8.837-8.673 12.937-13.313 2.44-2.75 5.14-5.235 7.47-8.125 1.18-1.46 2.403-2.506 2.843-4.406.36-1.54.226-2.99-1.344-3.5a1.732 1.732 0 0 0-.812-.062z" fill="#f79329"/><path d="M86.09 82.24c.09 2.12.146 4.064-.594 6.124-1.049 2.953-3.075 5.346-5.375 7.406 1.3-.433 1.752-.572 2.531-.812 1.657-.565 3.312-1.163 4.907-1.875 1.64-.74 3.232-1.36 4.812-2.25.553-.312 1.355-.744 2.031-1.219-.224-.321-.442-.65-.687-.969a23.464 23.464 0 0 0-5.668-5.256 91.25 91.25 0 0 1-1.957-1.15z" fill="#bdcf46"/><path d="M35.934 90.302a29.409 29.409 0 0 1-5.313 3.093c.578.543 1.141 1.084 1.719 1.563l.437.344c.59.5 1.13.99 1.75 1.28.45.23.757.282.907.282.14 0 .21-.055.28-.125.811-.922.483-4.28.22-6.437zM8.371 94.177c.075.386.16.772.25 1.156.55 2.38 1.029 2.762 1.219 2.812.127-.045.678-.511 1.469-2.937-1.015-.287-2.008-.62-2.938-1.031z" fill="#fff"/></svg>