<svg xmlns="http://www.w3.org/2000/svg" width="128" height="128" viewBox="0 0 128 128"><path fill="#FFF" d="M64.43 118.32c-8.49 0-16.77-1.83-19.95-2.63-8.52-2.1-16.12-5.89-21.98-10.95-9.18-7.92-13.16-20.02-12.17-37 .39-6.7 2.11-13.41 4.87-19.61 3.44-7.73 8.51-14.67 14.74-19.83 3.83-3.17 8.45-5.7 13.51-7.6 6.5-2.42 13.76-3.77 21.27-3.77H65c6.86 0 13.52 1.1 19.57 3.14 5.76 1.93 10.97 4.71 15.22 8.23 6.08 5.04 11.05 11.79 14.49 19.3 2.9 6.35 4.71 13.25 5.12 20.14.99 16.98-2.99 29.09-12.17 37-5.86 5.06-13.46 8.84-21.99 10.96-3.66.9-12.7 2.62-20.81 2.62z"/><g fill="#2F2F2F"><path d="M121.15 45.86v-1.02c.19-1.12 1.05-1.97 1.7-2.87l.4-.54c.92-1.37 1.64-2.86 2.27-4.38 2.94-7 3.02-14.82-.68-20.55-2.62-4.05-12.97-14.56-29.3-5.67-5.9 3.21-11.21 1.83-11.21 1.83v.05C78.09 10.9 71.54 9.94 65 9.94h-.29c-7.18 0-14.44 1.11-21.18 3.3-.92.2-5.71 1.02-11.02-1.87C16.17 2.49 5.82 12.99 3.2 17.04c-1.13 1.76-1.97 3.88-2.41 5.9-.81 3.83-.49 8.09.69 11.82.63 2 1.56 3.87 2.54 5.73.63 1.23 1.29 2.45 2.1 3.59 1.88 2.64 1.12 5.11 1.12 5.11h.01c-2.18 5.89-3.54 12.04-3.89 18.14-.93 15.8 1.84 31.72 14.58 42.71 7.05 6.08 15.82 10.21 24.86 12.44 3.44.86 12.32 2.83 21.63 2.83 9.31 0 19.05-1.97 22.49-2.83 9.04-2.23 17.81-6.36 24.87-12.44 12.73-10.99 15.5-26.9 14.58-42.71-.43-7.26-2.24-14.6-5.22-21.47zm-56.72 72.46c-8.49 0-16.77-1.83-19.95-2.63-8.52-2.1-16.12-5.89-21.98-10.95-9.18-7.92-13.16-20.02-12.17-37 .39-6.7 2.11-13.41 4.87-19.61 3.44-7.73 8.51-14.67 14.74-19.83 3.83-3.17 8.45-5.7 13.51-7.6 6.5-2.42 13.76-3.77 21.27-3.77H65c6.86 0 13.52 1.1 19.57 3.14 5.76 1.93 10.97 4.71 15.22 8.23 6.08 5.04 11.05 11.79 14.49 19.3 2.9 6.35 4.71 13.25 5.12 20.14.99 16.98-2.99 29.09-12.17 37-5.86 5.06-13.46 8.84-21.99 10.96-3.66.9-12.7 2.62-20.81 2.62z"/><path d="M54.44 70.25c1.04-5.2-1.59-11.12-6.27-13.73-6.69-3.71-14.78-2.48-20.78 1.9-3.47 2.53-7.67 6.37-9.88 10.09-3.87 6.54-4.64 16.42.5 22.76 3.19 3.93 8.71 5.37 13.5 4.49 5.65-1.05 9.32-5.23 12.77-9.51 3.26-4.08 7.14-8.01 9.19-12.89.43-1.02.77-2.05.97-3.11zm-12.91 3.62c-3.53 0-6.39-2.79-6.39-6.23 0-3.45 2.86-6.25 6.39-6.25s6.4 2.8 6.4 6.25c0 3.44-2.86 6.23-6.4 6.23zM111.95 92.19c5.43-6.71 4.62-17.15.52-24.06-2.32-3.93-6.77-7.99-10.43-10.66-6.33-4.64-14.89-5.94-21.95-2.01-4.97 2.76-7.73 9.02-6.63 14.51.21 1.11.58 2.21 1.01 3.28 2.18 5.16 6.27 9.31 9.73 13.63 3.62 4.52 7.52 8.93 13.48 10.04 5.06.94 10.89-.59 14.27-4.73zM87.32 73.87c-3.53 0-6.39-2.79-6.39-6.23 0-3.45 2.87-6.25 6.39-6.25 3.53 0 6.39 2.8 6.39 6.25 0 3.44-2.86 6.23-6.39 6.23zM75.21 98.63c-.14.19-3.28 4.51-10.67 4.51-7.34 0-10.49-4.29-10.65-4.51a2.306 2.306 0 0 0-3.2-.6 2.316 2.316 0 0 0-.62 3.21c.18.27 4.54 6.52 14.46 6.52 9.93 0 14.3-6.26 14.48-6.52.71-1.05.45-2.47-.6-3.19-1.03-.72-2.47-.46-3.2.58zM64.55 94.6c5.54 0 10.04-3.62 10.04-8.09s-4.5-8.09-10.04-8.09-10.03 3.62-10.03 8.09S59 94.6 64.55 94.6z"/></g></svg>