<svg xmlns="http://www.w3.org/2000/svg" width="128" height="128" viewBox="0 0 128 128"><path fill="#2F2F2F" d="M56.73 82.38s-.25-2.68-1.92-6.72l3.22-6.38 9.4-.98 4.3 7.63-3.32 7.83-11.68-1.38z"/><path fill="#855C52" d="M60.69 15.96c6.88.03 13.84 1.75 20.21 4.7 1.36.63 2.71 1.28 4.05 1.94 1.38.68 2.83 1.42 4.06 2.35 2.38 1.79 5.25 2.7 8.04 3.63 1.72.58 3.65.83 5.14 1.94 2.03 1.51.87 4.08-1 5.21-1.37.83-6.46 1.63-3.74 4.25 2.12 2.03 6.76 2.57 9.47 3.31 1.85.5 5.98 1.46 6.14 3.87.25 3.69-9.66 4.24-6.36 8.37 1.7 2.12 4.19 3.7 6.75 4.5 1.97.62 7.2 2.06 5.65 5.07-1.4 2.73-7.37 1.72-7.77 5.44-.34 3.18 3.82 5.49 6.14 6.75 2.04 1.11 7.2 2.35 7.05 5.27-.17 3.29-5.21 2.45-6.96 4.17-3.03 2.98-.37 6.32 2.32 8.28.1.08.21.15.31.22 1.59 1.12 6.16 2.2 6.74 4.12.34 1.12-.4 2.55-1.14 3.32-1.12 1.17-2.9 1.57-4.49 1.45-2.43-.18-3.85 1.16-3.23 3.61.78 3.08 3.83 5.33 6.58 6.58 2.07.94 3.67 3.38 2.65 5.57-1.35 2.92-5 3.17-7.72 3.72-3.5.72-7.05 1-10.58 1.54-.45.07-.94.35-1.38.21.16-.56.46-1.03.58-1.65.16-.81.26-1.63.46-2.42.68-2.72-.64-4.59-1.75-6.9-3.48-7.23-6.95-14.46-10.43-21.7-4.38-9.11-8.76-18.21-13.14-27.32-4.12-8.57-8.25-17.15-12.37-25.72-1.74-3.62-3.6-10.5-8-11.95-1.71-.57-3.77-.48-5.56-.29-5.52.58-10.76 3.11-16.28 3.93-1.89.29-5.35.96-7.07-.28-.96-.69-.51-2.08-.07-3.14.93-2.26 2.74-3.55 4.58-4.93 6.63-4.94 14.32-7.06 22.12-7.02z"/><path fill="#F79329" d="M113.84 107.57c.07-4.35-.11-8.72-.52-13.05-1.45-15.75-5.95-31.2-13.48-44.73-2.99-5.37-5.55-11.01-9.08-16.06-1.96-2.81-3.96-5.71-6.54-8.02-2.47-2.21-4.84-2.22-4.75-5.74.05-1.87-.18-3.88-.48-5.73-.46-2.78-.8-5.58-1.43-8.33-.71-3.13-2.6-6.44-6.19-4.21-2.71 1.69-4.8 4.25-6.32 7.03a25.67 25.67 0 0 0-1.98 4.68c-.48 1.53-.85 2.01-2.49 2.43-2.44.62-5.72.91-7.55-1.08-2.75-2.98-4.82-6.51-7.23-9.76-.71-.96-1.48-1.88-2.47-2.58-4.67-3.32-6.05 2.1-6.92 5.6-.88 3.54-.65 9 .76 14.08.16.58.35 1.15.54 1.72-2.95 1.57-5.66 3.39-7.92 5.34-2.28 1.99-2.47 4.4-2.99 7.16-.57 3.06-1.64 4.93-3.53 7.38-5.43 7.06-12.01 12.9-17.71 19.77-3.45 4.16-6.64 8.85-4.51 14.5.97 2.56 2.36 4.66 4.35 6.48 2.08 1.89 3.92 3.51 6.42 4.88 3.75 2.05 8.22 2.93 12.43 2.04 5.32-1.12 8.46-5.38 12.58-8.55 4.46-3.42 9.73-5.21 15.17-6.38 2.12-.46 4.18-1.2 6.15-2.12.66-.31 1.98-1.29 2.72-1.21 1.14.12.95 1.94.63 2.65-.59 1.32-1.95 2.36-3.09 3.17-.62.45-1.13.86-1.37 1.62-.61 1.96-.24 4.26-.09 6.25.19 2.59.25 5.19.19 7.78a91.67 91.67 0 0 1-1.64 15.31c-.44 2.31-1.02 4.58-1.74 6.8-1.55 4.76-1.71 5.88 2.82 7.6 9.09 3.43 19.15 2.53 28.59 2.72 3.9.08 7.69-.13 11.57-.54 4.2-.44 8.48-1.19 12.65-1.73 1.56-.2 3.39-1.04 4.1-2.67.71-1.61.47-3.69.53-5.43.09-3.05-.22-6.04-.18-9.07z"/><path fill="#855C52" d="M87.52 35.54c1.37 1.65 2.69 3.35 3.79 5.27 1.34 2.35.73 5.02 1.23 7.63.48 2.49.41 4.97 1.99 7.21 2.58 3.65 7.19 6.93 6.57 11.98-.16 1.3-.58 2.35-.57 3.72 0 1.32-.11 2.68 0 3.99.22 2.56 2.1 4.47 3.43 6.56 1.81 2.84 3 6.57 1.98 10.01-1.04 3.51-1.99 7.27-.53 10.79 1.08 2.58 2.97 4.83 3.64 7.57.75 3.09-.45 5.9-.89 8.97-.27 1.85-.79 3.83-.47 5.74.05.3 8.86-1.21 9.62-1.44.81-4.59-.7-9.27-.63-13.86.04-3.14-.01-6.3-.38-9.42-.71-6.1-2.11-12.07-3.23-18.06-.86-4.6-2.06-9.39-3.71-13.77-.77-2.05-1.35-4.23-2.28-6.21-1.08-2.3-2.35-4.48-3.08-6.92-.77-2.57-1.94-5.07-2.63-7.65-.2-.73-.08-1.51-.34-2.22-.36-.96-1.26-1.71-2.05-2.31-.8-.61-1.45-1.3-2.09-2.1-1.4-1.74-2.06-4.25-2.55-6.39-.5-2.19-2.3-4.24-3.75-5.9-1.71-1.97-3.86-3.43-5.93-4.99-1.16-.88-3.49-3.44-5.06-3.11-.54.12 2.06 6.05 2.24 6.47 1.49 3.31 3.34 5.62 5.68 8.44z"/><path fill="#2F2F2F" d="M44.03 48.56a5.063 5.063 0 0 1-1.12-7.09A5.082 5.082 0 0 1 50 40.34c2.27 1.64 2.77 4.82 1.13 7.1a5.103 5.103 0 0 1-7.1 1.12zM19.63 76.72c-.38 2-2.95 2.99-4.75 3.14-1.17.1-2.76-.07-3.59-1.01-.84-.96-.67-3.14.22-4.07 1.44-1.5 3.79-2.18 5.76-1.53 1.06.33 1.97 1.22 2.29 2.27.11.37.14.78.07 1.2z"/></svg>