<svg xmlns="http://www.w3.org/2000/svg" width="128" height="128" viewBox="0 0 128 128"><path fill="#78A3AD" d="M119.29 15.1c-3.97-4.3-10.87-4.63-12.88-4.63-.84 0-1.63.05-2.37.15-3.71.48-7.41 1.77-10.7 3.71-6.99 4.15-13.14 10.42-18.27 18.64a84.361 84.361 0 0 0-5.85 11.25c-.51 1.18-.89 2.5-1.3 3.89-.18.63-.45 1.54-.72 2.35l-.29-.01c.57-4.63 2.75-9.36 5.01-14.29 3.27-7.12 6.65-14.47 6.26-22.98C77.84 5.68 72.38.64 64.6.64c-3.07 0-6.32.81-9.15 2.29-18.71 9.72-19.98 34.67-20.81 51.18l-.11 2.07-.24.21c-3.36 3.05-6.09 6.96-8.15 11.64-1.41 3.2-2.32 6.45-3.2 9.59-.75 2.7-1.47 5.25-2.4 7.36-2.41 5.43-2.9 13.4-1.17 18.95 5.78 18.5 30.84 23.43 44.74 23.43.59 0 1.17-.01 1.73-.02 12.94-.37 24.17-4.72 32.47-12.6 5.85-5.56 8.21-13.99 6.64-23.76-1-6.22-3.47-11.82-5.5-16-1.25-2.58-2.92-8.41-2.93-10.94.23-.74 1.75-2.37 2.58-3.26.58-.62 1.12-1.21 1.6-1.78 1.66-1.97 3.35-3.93 5.05-5.89 2.38-2.74 4.83-5.58 7.2-8.46 4.72-5.78 15.8-19.32 6.34-29.55z"/><path fill="#FFF" d="M90.65 63.9c-.03 3.77 2.03 10.59 3.53 13.65 2.22 4.55 4.18 9.34 4.98 14.36 1.08 6.67.18 13.77-4.88 18.57-7.75 7.36-18.05 10.69-28.59 10.99-.51.02-1.03.02-1.57.02-13.63 0-34.61-4.81-39.14-19.31-1.33-4.27-.88-10.73.93-14.83 2.25-5.08 3.17-11.42 5.6-16.96 1.59-3.61 3.77-6.98 6.7-9.64.48-.44 1.79-1.11 2.08-1.65.27-.53.06-1.8.1-2.5.85-15.89 1.31-39.91 17.78-48.47 1.99-1.03 4.29-1.62 6.44-1.62 3.98 0 7.49 2.01 7.71 6.93.68 14.79-13.24 27.44-11.24 42.24.03.23 3.26.51 3.6.53.98.06 1.96.11 2.94.12.33.01 1.07.08 1.75.08.61 0 1.17-.06 1.39-.26 1.97-1.93 2.76-7.07 3.86-9.61 1.55-3.61 3.36-7.13 5.45-10.47 4.14-6.65 9.48-12.67 16.27-16.7 2.55-1.51 5.52-2.55 8.47-2.94.48-.06 1.02-.1 1.61-.1 2.91 0 6.79.82 8.58 2.74 5.99 6.48-2.5 16.86-6.59 21.86-3.97 4.85-8.17 9.51-12.2 14.3-2.01 2.38-5.54 5.29-5.56 8.67z"/><path fill="#2F2F2F" d="M43.91 86.14c-2.87-.02-5.2 2.69-5.23 6.02-.01 3.35 2.3 6.07 5.18 6.09 2.85.01 5.2-2.67 5.21-6.03.03-3.33-2.29-6.07-5.16-6.08zM78.64 86.14c-2.87.01-5.19 2.75-5.16 6.08 0 3.36 2.35 6.04 5.2 6.03 2.87-.03 5.19-2.74 5.18-6.09-.02-3.33-2.35-6.04-5.22-6.02zM73.94 108.94c-1.78-.91-3.51 1.94-5.2 1.94-.74 0-1.37-.12-2.08-.28-.88-.18-1.64-.36-1.92-1.31-.11-.36-.06-.76-.12-1.15-.05-.31-.11-.62-.13-.93.8-.29 1.55-.7 2.13-1.32.65-.68 1.8-1.66 1.79-2.68 0-.68-.33-1.32-.98-1.4-.69-.08-1.14.28-1.68.67-1.32.93-2.81 1.39-4.45 1.28-1.16-.08-2.06-.58-2.91-1.33-.38-.33-.76-.71-1.16-.76-.23-.02-.47.07-.72.35-1.69 1.84.47 3.88 2.14 4.58.59.25 1.1.53 1.66.74 0 .85-.01 1.7-.02 1.85-.09 1.1-1.24 1.65-2.26 1.91-.86.21-2.08.05-2.9-.29-.75-.3-1.22-1.05-1.75-1.62-.55-.59-.91-.64-1.7-.45-1.58.39-1.35 1.62-.84 2.88.54 1.32 1.72 1.85 2.92 2.5 1.28.71 2.9.78 4.32.65.74-.07 1.48-.21 2.18-.46 1.16-.41 2.01-1.81 3.23-.87 1.68 1.28 4.53 1.19 6.5.88 1.35-.21 6.37-4.15 3.95-5.38z"/><path fill="#D7598B" d="M104.57 27.35c-9.4.03-17.55 9.6-21.73 17.04-1.89 3.35-3.56 7.17-4.2 10.97-.44 2.64-.02 5.33 2.98 5.95 1.37.29 2.48-.21 3.42-1.03 1.32-1.17 2.31-3.02 3.2-4.32 2.5-3.7 4.77-7.32 7.77-10.68 2.37-2.64 4.5-5.28 7.05-7.77 2.26-2.2 5.31-5.12 4.46-8.63-.27-1.15-1.94-1.53-2.95-1.53zM54.11 56.28c.51-1.84.62-4.1.66-5.95.1-7.78 4.56-15.67 7.3-22.77 1.01-2.61 3.83-10.87-1.96-9.5-4.56 1.08-8.38 6.71-10.1 10.69-1.9 4.38-3.01 9.14-3.55 13.88-.27 2.37-.28 4.76-.18 7.15.1 2.18-.05 4.82.8 6.86.6 1.45 1.7 1.77 3.22 1.62 1.24-.12 2.83-.32 3.54-1.38.13-.18.21-.38.27-.6z"/></svg>