<svg xmlns="http://www.w3.org/2000/svg" width="128" height="128" viewBox="0 0 128 128"><path fill="#FFF" d="M21.26 45.62s-.68 7.85-.72 18.08c-.03 8.57.28 17.72.28 18.03 0 .85-.17 1.29-.86 1.61-.91.42-5.96.53-5.96.53s-.11-7.1-.21-19.92c-.1-12.88.55-20.69.55-20.69s4.72.11 6.08.58c.97.34.84 1.78.84 1.78zM112.62 61.61c-6.74.36-15.55.49-22.68.93-2.73.17-5.62.14-9.08.87-2.33.31-2.47 2.58.55 3.31 5.67 1.37 4.57 7.08 3.49 8.56-1.57 2.17-4.5 3.1-7.08 3.23-.56.02-1.66-.04-2.12.35-.71.6-.48 1.38-.01 2.03.64.85 1.77 1.09 2.65 1.59 1.06.6 1.25 2.22.9 3.22-.45 1.26-1.46 2.34-2.62 2.98-.63.34-1.37.63-2.07.75-1.09.19-2.29.17-3.38.02-.77-.12-1.59-.57-2.38-.52-1.38.07-.85 1.73-.15 2.27.58.45 1.5.65 1.92 1.29.77 1.17-.4 2.22-1.31 2.82-1.24.82-2.81 1.09-4.26 1.2-.61.05-1.22.06-1.83-.01-10.86-1.2-19.86-6.27-26.67-14.77-1.5-1.88-3.1-3.87-5.37-4.83-1.27-.53-3-1.12-4.64-1.34-.12-2.84-.2-6.64-.16-12.32.02-3.82.12-7.19.26-10.08 2.96.54 6.11-.48 8.73-1.79 3.83-1.92 6.49-5.43 9.2-8.62 2.75-3.23 6.22-5.98 10.37-7.09 3.96-1.06 8.07-.98 12.1-1.57 3.48-.52 8.18-3.6 11.39-.72 1.68 1.52 2.04 4.29 1.21 6.33-.57 1.39-4.04 3.58-8.61 4.47-5.63 1.09-9.69.15-11.07 1.35-2.24 1.95 2.32 2.69 3.29 2.84 3.27.52 6.61.81 9.93.87 9.53.18 30.09.65 34.12.75 4.25.1 7.34.44 9.01 1.12 2.04.83 2.96 2.33 3.16 4.67.25 2.75-1.88 5.57-6.79 5.84z"/><path fill="#D7598B" d="M123.9 47.9c-1.6-2.37-4.04-3.48-6.03-4.03-7.48-2.02-32.1-1.38-32.1-1.38s2.34-2.85 2.49-6.16c.14-3.11-1.3-7.36-3.39-8.95-4.48-3.43-10.78-3.57-15.76-1.83-1.22.43-6.27 1.18-7.43 1.4-1.6.31-7.62.69-12.27 2.63-8.48 3.54-10.87 9.43-14.63 11.98-2.97 2.02-6.02 2.76-7.64 3.03.15-1.73.27-2.66.27-2.66s.38-2.87-2.2-3.48c-3.7-.88-9.63-1.39-9.63-1.39s-.22-3.13-.79-3.71c-1.01-1.02-5.18-1.03-6.83-1.12-1.87-.09-5.48-.05-7.94 0v64.49s8.94.06 11.85-.91c1.73-.58 2.54-2.06 2.73-3.13.23-1.29.25-3.2.25-3.2s8.48.06 10.55-1.04c1.56-.83 1.94-1.95 1.87-4.06 0-.03-.01-.07-.01-.1.52.09 1.01.17 1.38.27 1.69.48 3.18 1.88 4.38 3.12 4.94 5.19 10.75 10.2 17.48 12.91 1.48.59 3.01 1.12 4.55 1.54 2.93.82 6.05 1.45 9.13 1.42 1.85-.03 6.64.03 9.81-3.03 2.23-2.16 3.02-5.65 3.02-5.65s5.09-.24 8.55-5.89c1.85-3.03.42-6.98.42-6.98s5.65-2.83 6.3-8.59c.19-1.67-.13-2.4-.13-2.4s3.89-.36 7.48-.54c4.28-.22 8.64-.28 12.29-.69 6.42-.73 9.04-2.22 11.29-4.41.93-.92 3.2-3.43 3.42-6.9.31-5.13-.93-7.88-2.73-10.56zM21.26 45.62s-.68 7.85-.72 18.08c-.03 8.57.28 17.72.28 18.03 0 .85-.17 1.29-.86 1.61-.91.42-5.96.53-5.96.53s-.11-7.1-.21-19.92c-.1-12.88.55-20.69.55-20.69s4.72.11 6.08.58c.97.34.84 1.78.84 1.78zm91.36 15.99c-6.74.36-15.55.49-22.68.93-2.73.17-5.62.14-9.08.87-2.33.31-2.47 2.58.55 3.31 5.67 1.37 4.57 7.08 3.49 8.56-1.57 2.17-4.5 3.1-7.08 3.23-.56.02-1.66-.04-2.12.35-.71.6-.48 1.38-.01 2.03.64.85 1.77 1.09 2.65 1.59 1.06.6 1.25 2.22.9 3.22-.45 1.26-1.46 2.34-2.62 2.98-.63.34-1.37.63-2.07.75-1.09.19-2.29.17-3.38.02-.77-.12-1.59-.57-2.38-.52-1.38.07-.85 1.73-.15 2.27.58.45 1.5.65 1.92 1.29.77 1.17-.4 2.22-1.31 2.82-1.24.82-2.81 1.09-4.26 1.2-.61.05-1.22.06-1.83-.01-10.86-1.2-19.86-6.27-26.67-14.77-1.5-1.88-3.1-3.87-5.37-4.83-1.27-.53-3-1.12-4.64-1.34-.12-2.84-.2-6.64-.16-12.32.02-3.82.12-7.19.26-10.08 2.96.54 6.11-.48 8.73-1.79 3.83-1.92 6.49-5.43 9.2-8.62 2.75-3.23 6.22-5.98 10.37-7.09 3.96-1.06 8.07-.98 12.1-1.57 3.48-.52 8.18-3.6 11.39-.72 1.68 1.52 2.04 4.29 1.21 6.33-.57 1.39-4.04 3.58-8.61 4.47-5.63 1.09-9.69.15-11.07 1.35-2.24 1.95 2.32 2.69 3.29 2.84 3.27.52 6.61.81 9.93.87 9.53.18 30.09.65 34.12.75 4.25.1 7.34.44 9.01 1.12 2.04.83 2.96 2.33 3.16 4.67.25 2.75-1.88 5.57-6.79 5.84z"/></svg>