<svg xmlns="http://www.w3.org/2000/svg" width="128" height="128" viewBox="0 0 128 128"><path fill="#FFF" d="M71.22 15.17c3.15-.88 6.53.08 7.7 4.09.55 1.85 2.42 7.49 4.31 13.15.32.98 2.15 7.97 2.31 8.36 1.04 2.47 1.91 5.02 2.53 7.62.53 2.27.75 4.48.67 6.62-5.28-4.83-9.27-7.67-9.38-7.74-2.38-1.64-4.67-2.83-6.44-3.34-1.04-.3-2.05-.48-3.03-.58 1.61-2.21 3.34-3.89 2.04-8.36-2.04-5.45-3.85-10.53-4.12-11.6-.58-2.36-.08-7.24 3.41-8.22zM9.91 33.52c.92-2.95 4.38-5.1 7.94-3.42 3.08 1.45 20.05 9.01 25.61 11.55-.22.38-.45.77-.66 1.15a36.958 36.958 0 0 0-3.05 6.72c-7.12-2.08-24.18-8.06-25.96-8.99-2.01-1.06-4.84-3.86-3.88-7.01zM7.66 50.33c.85-2.98 3.6-5.42 7.35-4.2 2.76.9 15.15 4.74 23.66 7.24-.5 2.2-.79 4.45-.9 6.7-.04.94-.07 1.88-.05 2.83-5.3-1.18-24.03-5.39-25.41-5.9-2.14-.81-5.52-3.58-4.65-6.67z"/><path fill="#FFF" d="M16.02 73.69c-2.22-.56-5.74-2.54-5.42-5.95.28-3.08 3.05-5.95 6.9-5.15 2.29.47 11.56 2.45 20.56 4.01.21 1.12 1.02 4.63 2.51 3.38.53-.45.43-1.44.47-2.07.07-.97.15-1.93.27-2.89.31-2.8.82-5.57 1.49-8.3.72-2.97 1.6-5.89 2.61-8.77 1.05-3 2.24-5.82 3.72-8.61.3-.58 1.17-2.28.6-2.88-.28-.3-.7-.26-1.12-.07-.81.35-1.71 1.25-2.05 1.55-.27.25-.53.53-.8.8-6.75-3.19-22.69-11.64-24.31-12.79-1.87-1.34-4.75-4.41-2.79-7.68 1.58-2.65 4.34-4.35 8.22-2.12 3.3 1.9 20.52 12.34 22.81 13.81 1.45.89 5.35 3.31 5.55 3.4 2.76 1.22 5.47 2.58 8.09 4.06 1.1.62 2.3 1.14 3.23 2.02 1.25 1.2-.15 2.59-.58 3.9 0 .02-.01.03-.02.05-3.17.52-5.74 2.2-7.27 4.85-2.57.02-4.94 1.01-6.88 2.86-1.03.99-3.49 3.8-3.2 7.98-.57.34-1.16.78-1.75 1.32-3.77 3.49-3.75 8.75-1.94 13.14-.34.26-.65.55-.96.87-.72.76-1.31 1.73-1.74 2.87-2.28-.44-3.62-.58-3.62-.58-7.2-.7-20.85-2.58-22.58-3.01z"/><path fill="#FFF" d="M112.54 105.31c-4.5 7.09-13.23 12-18.88 12.5-12.46 1.1-19.1-3.42-21.03-4.52-9.93-5.67-17.11-14.64-20.75-19.86-1.99-2.88-3.12-5.5-3.67-7.73-.9-3.58-.34-6.11.38-6.86 1.17-1.22 1.95-.34 1.95-.34.2.36.44.76.66 1.15 1.3 2.23 3.02 4.87 5.11 7.56 2.05 2.64 4.44 5.3 7.18 7.61.34.29.76.42 1.17.42.51 0 1.03-.22 1.39-.65.65-.77.54-1.91-.22-2.55a42.93 42.93 0 0 1-4.82-4.81c-1.91-2.21-3.57-4.5-4.93-6.61-2.89-4.43-4.51-7.99-4.54-8.06 0 0-3-5.01-.35-7.46 1.36-1.27 2.23-.84 2.67-.41l.33.41c2.07 2.59 7.19 8.94 12.45 14.93 1.62 1.85 3.26 3.66 4.83 5.32.35.38.82.56 1.3.56h.02c.26 0 .51-.08.76-.19.17-.08.34-.17.48-.3.73-.69.76-1.84.08-2.57-1.1-1.16-2.24-2.4-3.37-3.68-6.36-7.12-12.9-15.32-14.34-17.14-1.38-2.02-2.33-4.27-.2-6.31 2.58-2.46 5.46 0 5.46 0 .1.1 9.33 9.07 17.2 18.63.68.84 1.37 1.68 2.02 2.52.36.45.9.69 1.43.69.39 0 .79-.12 1.12-.39.78-.62.92-1.76.29-2.55-.74-.95-1.5-1.89-2.27-2.83-7.25-8.78-15.53-16.98-17.01-18.44-.38-.52-.64-1.18-.29-1.83.35-.65.93-1.21 1.75-1.56.36-.15.76-.26 1.21-.33 1.06-.16 2.37-.07 4.01.4.79.23 2.45.98 4.6 2.47.1.06 5.28 3.76 11.58 9.92.51.51 1.04 1.02 1.57 1.57l3.82 4.09c.17.18.33.38.49.56 3.18 3.64 6.35 7.75 9.05 12.26.34.57.94.88 1.56.88.32 0 .64-.08.92-.26.85-.52 1.14-1.63.63-2.49-3.25-5.41-7.07-10.22-10.83-14.35-.32-.36-.65-.75-.97-1.1h.02c-1.59-2.25-.45-3.91.88-4.35.31-.1.62-.14.93-.19 3.26-.48 6.85 1.8 8.42 2.93 1.91 1.35 3.79 3.22 5.97 5.98 6.98 8.84 6.97 22.21 6.97 22.21s-.11 8.73-4.19 15.15z"/><path fill="#F79329" d="M97.07 26.16c.51-.23.87-.81 1.17-1.37.16-.3.31-.59.46-.82.92-1.48 1.85-2.95 2.76-4.43 2.08-3.36 4.13-6.75 6.34-10.01 1.43-2.1 4.41-5.23.62-6.55-.32-.11-.65-.2-1-.29-2.78-.73-5.52-1.88-8.41-2.19-.9-.1-1.86.72-2.06 1.57-.76 3.38-.83 6.85-.89 10.3-.06 3.24-.38 6.4-.6 9.62 0 .04-.01.08-.02.12-.06.91-.19 1.98-.03 2.86.15.71.89 1.55 1.66 1.19zM126.74 38.97c-.17-1.05-.33-2.11-.6-3.14-.28-1.08-.97-1.75-1.54-2.67-.39-.61-.54-.82-1.3-.73-.64.08-1.23.25-1.81.49-1.85.76-3.45 2.16-5.19 3.09-2.24 1.2-4.29 2.75-6.57 3.88-1.55.76-3.16 1.78-4.54 2.78-1.05.76-.85 2.24.56 2.33 2.26.13 4.59-.07 6.85-.07 2.15 0 4.16-.36 6.28-.54 1.8-.15 3.57-.38 5.33-.71.63-.12 1.38-.11 1.95-.35 1.65-.69.8-3.05.58-4.36zM32.65 89l-.18-.12c-.53-.28-1.55-.05-2.11.04-2.67.4-5.25 1.04-7.88 1.65-4.76 1.1-9.53 1.88-14.14 3.57-1.02.37-1.43 1.24-1.41 2.1-.06.29-.05.61.11.95 1.12 2.52 2.5 9 6.31 9 1.63 0 3.39-1.85 4.58-2.79.98-.79 2.05-1.46 3-2.29 1.02-.89 1.9-1.91 2.95-2.76 2.06-1.65 4.14-3.28 6.13-5 .59-.52 4.15-3.23 2.64-4.35zM43.08 102.66c-.81-.08-1.78 1.01-2.28 1.52-2.93 3.03-5.38 6.48-7.78 9.94-1.1 1.6-6.23 7.1-4.07 9.1 2.33 2.16 5.67 3.23 8.72 3.86 1.15.24 3.47.98 4.28-.27.3-.46.25-1.34.36-1.88.13-.6.03-1.23.13-1.83.15-.75.21-1.51.32-2.27.22-1.62.32-3.24.53-4.85.45-3.36.68-6.75.73-10.15.02-.4.1-1.18.02-1.86-.08-.68-.32-1.25-.96-1.31z"/><path fill="#D7598B" d="M107.5 56.79c-4.23-3.02-8.35-4.4-12.08-4.15-.02-.39-.03-.78-.07-1.16-.1-1.12-.28-2.24-.51-3.35-.74-3.66-3.83-13.8-4.34-15.72-1.57-5.96-4.72-13.53-5.17-15.03-2.05-7.01-8.74-10.65-15.91-8.63-2.38.67-4.41 2.1-5.88 4.13-2.68 3.68-3.04 8.74-2.19 12.11.16.63.57 1.87 1.08 3.34.56 1.62-1.43.29-4.15-.93-.96-.57-3.88-2.38-4.98-3.06-2.34-1.52-19.58-11.96-23.08-13.98-4.72-2.71-9.71-2.55-13.69.43-1.4 1.05-2.6 2.4-3.58 4.04-1.59 2.67-1.96 5.67-1.21 8.53-3.69 1.15-6.99 4.35-8.18 8.19-1.17 3.79-.16 7.46 1.93 10.36-1.98 1.66-3.48 3.98-4.23 6.58-1.41 4.96 1.07 9.69 4.9 12.61-1.22 1.77-2 3.84-2.2 6.03-.66 6.98 4.95 11.65 10.44 13.03 2.48.62 16.94 2.54 23.53 3.2 0 0 1.36.15 3.53.6.36 3.92 1.94 8.49 5.18 13.14 4.6 6.6 12.29 15.74 22.83 21.76l.34.2c2.47 1.45 9.01 5.33 20.05 5.33 1.42 0 2.9-.06 4.36-.2 7.16-.63 17.91-6.26 23.73-15.45 4.91-7.73 5.18-17.38 5.2-18.54 0-.63-.06-15.71-8.35-26.18-2.54-3.21-4.87-5.5-7.3-7.23zM71.22 15.17c3.15-.88 6.53.08 7.7 4.09.55 1.85 2.42 7.49 4.31 13.15.32.98 2.15 7.97 2.31 8.36 1.04 2.47 1.91 5.02 2.53 7.62.53 2.27.75 4.48.67 6.62-5.28-4.83-9.27-7.67-9.38-7.74-2.38-1.64-4.67-2.83-6.44-3.34-1.04-.3-2.05-.48-3.03-.58 1.61-2.21 3.34-3.89 2.04-8.36-2.04-5.45-3.85-10.53-4.12-11.6-.58-2.36-.08-7.24 3.41-8.22zM9.91 33.52c.92-2.95 4.38-5.1 7.94-3.42 3.08 1.45 20.05 9.01 25.61 11.55-.22.38-.45.77-.66 1.15a36.958 36.958 0 0 0-3.05 6.72c-7.12-2.08-24.18-8.06-25.96-8.99-2.01-1.06-4.84-3.86-3.88-7.01zM7.66 50.33c.85-2.98 3.6-5.42 7.35-4.2 2.76.9 15.15 4.74 23.66 7.24-.5 2.2-.79 4.45-.9 6.7-.04.94-.07 1.88-.05 2.83-5.3-1.18-24.03-5.39-25.41-5.9-2.14-.81-5.52-3.58-4.65-6.67zm8.36 23.36c-2.22-.56-5.74-2.54-5.42-5.95.28-3.08 3.05-5.95 6.9-5.15 2.29.47 11.56 2.45 20.56 4.01.21 1.12 1.02 4.63 2.51 3.38.53-.45.43-1.44.47-2.07.07-.97.15-1.93.27-2.89.31-2.8.82-5.57 1.49-8.3.72-2.97 1.6-5.89 2.61-8.77 1.05-3 2.24-5.82 3.72-8.61.3-.58 1.17-2.28.6-2.88-.28-.3-.7-.26-1.12-.07-.81.35-1.71 1.25-2.05 1.55-.27.25-.53.53-.8.8-6.75-3.19-22.69-11.64-24.31-12.79-1.87-1.34-4.75-4.41-2.79-7.68 1.58-2.65 4.34-4.35 8.22-2.12 3.3 1.9 20.52 12.34 22.81 13.81 1.45.89 5.35 3.31 5.55 3.4 2.76 1.22 5.47 2.58 8.09 4.06 1.1.62 2.3 1.14 3.23 2.02 1.25 1.2-.15 2.59-.58 3.9 0 .02-.01.03-.02.05-3.17.52-5.74 2.2-7.27 4.85-2.57.02-4.94 1.01-6.88 2.86-1.03.99-3.49 3.8-3.2 7.98-.57.34-1.16.78-1.75 1.32-3.77 3.49-3.75 8.75-1.94 13.14-.34.26-.65.55-.96.87-.72.76-1.31 1.73-1.74 2.87-2.28-.44-3.62-.58-3.62-.58-7.2-.7-20.85-2.58-22.58-3.01zm96.52 31.62c-4.5 7.09-13.23 12-18.88 12.5-12.46 1.1-19.1-3.42-21.03-4.52-9.93-5.67-17.11-14.64-20.75-19.86-1.99-2.88-3.12-5.5-3.67-7.73-.9-3.58-.34-6.11.38-6.86 1.17-1.22 1.95-.34 1.95-.34.2.36.44.76.66 1.15 1.3 2.23 3.02 4.87 5.11 7.56 2.05 2.64 4.44 5.3 7.18 7.61.34.29.76.42 1.17.42.51 0 1.03-.22 1.39-.65.65-.77.54-1.91-.22-2.55a42.93 42.93 0 0 1-4.82-4.81c-1.91-2.21-3.57-4.5-4.93-6.61-2.89-4.43-4.51-7.99-4.54-8.06 0 0-3-5.01-.35-7.46 1.36-1.27 2.23-.84 2.67-.41l.33.41c2.07 2.59 7.19 8.94 12.45 14.93 1.62 1.85 3.26 3.66 4.83 5.32.35.38.82.56 1.3.56h.02c.26 0 .51-.08.76-.19.17-.08.34-.17.48-.3.73-.69.76-1.84.08-2.57-1.1-1.16-2.24-2.4-3.37-3.68-6.36-7.12-12.9-15.32-14.34-17.14-1.38-2.02-2.33-4.27-.2-6.31 2.58-2.46 5.46 0 5.46 0 .1.1 9.33 9.07 17.2 18.63.68.84 1.37 1.68 2.02 2.52.36.45.9.69 1.43.69.39 0 .79-.12 1.12-.39.78-.62.92-1.76.29-2.55-.74-.95-1.5-1.89-2.27-2.83-7.25-8.78-15.53-16.98-17.01-18.44-.38-.52-.64-1.18-.29-1.83.35-.65.93-1.21 1.75-1.56.36-.15.76-.26 1.21-.33 1.06-.16 2.37-.07 4.01.4.79.23 2.45.98 4.6 2.47.1.06 5.28 3.76 11.58 9.92.51.51 1.04 1.02 1.57 1.57l3.82 4.09c.17.18.33.38.49.56 3.18 3.64 6.35 7.75 9.05 12.26.34.57.94.88 1.56.88.32 0 .64-.08.92-.26.85-.52 1.14-1.63.63-2.49-3.25-5.41-7.07-10.22-10.83-14.35-.32-.36-.65-.75-.97-1.1h.02c-1.59-2.25-.45-3.91.88-4.35.31-.1.62-.14.93-.19 3.26-.48 6.85 1.8 8.42 2.93 1.91 1.35 3.79 3.22 5.97 5.98 6.98 8.84 6.97 22.21 6.97 22.21s-.11 8.73-4.19 15.15z"/></svg>