<svg xmlns="http://www.w3.org/2000/svg" width="128" height="128" viewBox="0 0 128 128"><path fill="#FFF" d="M100.69 34.43c.3 3.75-1.55 7.36-6.32 7.79-4.77.44-16.03 1.25-17.85 1.38-3.41.24-4.85-2.15-5.3-4.53-.46-2.38.63-5.44 3.76-6.65s15.34-3.41 18.13-3.54c2.79-.13 7.25 1.39 7.58 5.55zM71.1 16.3c2.78-1.32 11.37-3.39 13.92-3.72 2.54-.32 7.6.82 8.19 4.59.53 3.42-.91 6.85-5.25 7.58s-12.47 2.03-14.13 2.28c-3.11.46-4.58-1.63-5.16-3.78-.59-2.14-.34-5.64 2.43-6.95zM22.94 31.06s-.45 7.06-.9 16.97c-.38 8.3-.46 17.17-.47 17.47-.03.82-.22 1.24-.93 1.52-.93.36-6.01.26-6.01.26s.18-6.88.62-19.29c.44-12.48 1.42-20.01 1.42-20.01s4.16.82 5.52 1.34c.95.35.75 1.74.75 1.74zM67.52 112.8c-7.2.09-6.91-7.55-9.3-19.28-1.63-8-10.96-14.73-16.59-23.77-.42-.67-.79-1.33-1.17-2l-.02.15c-1.19-1.85-2.47-3.68-4.31-5.33-1.38-.99-3.24-1.4-4.82-1.55-.28-.02-.58-.06-.83-.07-1.06-.04-2.07-.04-2.94-.02-.03-2.87.03-6.79.35-13.1.25-5.14.62-9.46.97-12.8 1.47-.04 3.28-.17 5.37-.48.08-.02.15-.03.23-.05 4.65-.81 8.88-4.68 10.62-6.47l.15-.05v.01c3.59-4.73 7.98-7.83 12.34-9.53 2.28-.9 6.03-1.18 6.41.7.3 1.5-1.4 5.25-1.06 7.48.34 2.23 2.58 5 4.32 5.79-.96.93-3.15 5.65-2.76 8.6.39 2.94 3.65 7.11 3.65 7.11-1.9 1.58-1.63 5.93-2.82 4.78-1.19-1.14-8.78-6.73-10.13-4.51-1.34 2.23 2.11 3.81 4.4 8.34 2.29 4.53 3.14 12.62 3.14 12.62C75.09 85.59 75.91 95.04 76 101.62c.07 5.71-1.2 11.09-8.48 11.18zM103.26 73.86c-.57 3.97-2.21 6.62-7.31 6.62-2.79 0-15.08-2.38-17.83-3.03-2.32-.56-4.89-2.88-4.64-5.78.22-2.57 1.74-5.18 5.27-5.71 3.53-.52 15.38.87 18.59 1.18 2.95.29 6.54 2.33 5.92 6.72zM96.89 61.37c-1.85-.02-16.48-.63-18.87-.63s-5.21-2.28-5.3-5.18c-.09-2.58 1.1-5.36 4.53-6.31 3.44-.94 17.26-1.35 20.49-1.42 2.96-.07 6.78 1.52 6.68 5.96-.09 4-2.43 7.63-7.53 7.58z"/><path fill="#D7598B" d="M107.37 62.68c1.44-1.62 3.66-4.89 3.4-9.46-.24-4.34-3.01-7.35-4.8-8.86-.88-.75-1.16-1.73-.7-2.75.9-2.05 2.09-5.83 1.1-10.13-.92-4.11-4.19-6.33-6.17-7.32-.92-.47-1.36-1.27-1.16-2.26.31-1.64.57-4.31-.37-6.89-1.9-5.27-7.83-8-13.79-8.31-6.38-.34-11.45 1.1-22 2.97-6.18 1.1-13.9 4.52-20.2 11.31l-.02-.03c-3.1 2.98-3.45 4.3-7.85 6.15-1.69.71-3.51 1-5.11 1.09.09-.61.15-.94.15-.94s.51-2.76-2.07-3.47c-3.69-1.01-9.63-1.76-9.63-1.76s-.1-3.05-.64-3.63c-.98-1.03-5.16-1.23-6.83-1.38-3.01-.27-10.56-.4-10.56-.4L0 79.11s9 .44 11.96-.37a3.993 3.993 0 0 0 2.88-2.92c.28-1.24.38-3.08.38-3.08s8.53.42 10.66-.56c1.6-.73 2.03-1.8 2.05-3.84 0-.11-.02-.23-.03-.33 1.33-.15 2.35-.2 3.23-.06 1.14.31 1.8 1.07 2.16 1.61.5.76.97 1.79.97 1.79 2.64 5.43 6.28 8.7 8.55 11.81 2.27 3.13 8.55 11.7 9.26 15.96 1.27 7.65 2.67 15.96 8.51 19.99 4.74 3.27 10.93 2.04 12.22 1.87 3-.4 8.2-2.71 9.57-10.03 2.92-15.5-2.14-25.09-1.51-26.24.14-.26 1.58.05 3.26.49 2.09.54 11.31 1.44 13.85 1.24 4.14-.33 10.64-3.93 11.69-11.28.69-4.81-.71-8.13-2.11-9.91-.74-.94-.85-1.82-.18-2.57zm-6.68-28.25c.3 3.75-1.55 7.36-6.32 7.79-4.77.44-16.03 1.25-17.85 1.38-3.41.24-4.85-2.15-5.3-4.53-.46-2.38.63-5.44 3.76-6.65s15.34-3.41 18.13-3.54c2.79-.13 7.25 1.39 7.58 5.55zM71.1 16.3c2.78-1.32 11.37-3.39 13.92-3.72 2.54-.32 7.6.82 8.19 4.59.53 3.42-.91 6.85-5.25 7.58s-12.47 2.03-14.13 2.28c-3.11.46-4.58-1.63-5.16-3.78-.59-2.14-.34-5.64 2.43-6.95zM22.94 31.06s-.45 7.06-.9 16.97c-.38 8.3-.46 17.17-.47 17.47-.03.82-.22 1.24-.93 1.52-.93.36-6.01.26-6.01.26s.18-6.88.62-19.29c.44-12.48 1.42-20.01 1.42-20.01s4.16.82 5.52 1.34c.95.35.75 1.74.75 1.74zm44.58 81.74c-7.2.09-6.91-7.55-9.3-19.28-1.63-8-10.96-14.73-16.59-23.77-.42-.67-.79-1.33-1.17-2l-.02.15c-1.19-1.85-2.47-3.68-4.31-5.33-1.38-.99-3.24-1.4-4.82-1.55-.28-.02-.58-.06-.83-.07-1.06-.04-2.07-.04-2.94-.02-.03-2.87.03-6.79.35-13.1.25-5.14.62-9.46.97-12.8 1.47-.04 3.28-.17 5.37-.48.08-.02.15-.03.23-.05 4.65-.81 8.88-4.68 10.62-6.47l.15-.05v.01c3.59-4.73 7.98-7.83 12.34-9.53 2.28-.9 6.03-1.18 6.41.7.3 1.5-1.4 5.25-1.06 7.48.34 2.23 2.58 5 4.32 5.79-.96.93-3.15 5.65-2.76 8.6.39 2.94 3.65 7.11 3.65 7.11-1.9 1.58-1.63 5.93-2.82 4.78-1.19-1.14-8.78-6.73-10.13-4.51-1.34 2.23 2.11 3.81 4.4 8.34 2.29 4.53 3.14 12.62 3.14 12.62C75.09 85.59 75.91 95.04 76 101.62c.07 5.71-1.2 11.09-8.48 11.18zm35.74-38.94c-.57 3.97-2.21 6.62-7.31 6.62-2.79 0-15.08-2.38-17.83-3.03-2.32-.56-4.89-2.88-4.64-5.78.22-2.57 1.74-5.18 5.27-5.71 3.53-.52 15.38.87 18.59 1.18 2.95.29 6.54 2.33 5.92 6.72zm-6.37-12.49c-1.85-.02-16.48-.63-18.87-.63s-5.21-2.28-5.3-5.18c-.09-2.58 1.1-5.36 4.53-6.31 3.44-.94 17.26-1.35 20.49-1.42 2.96-.07 6.78 1.52 6.68 5.96-.09 4-2.43 7.63-7.53 7.58z"/></svg>