<svg xmlns="http://www.w3.org/2000/svg" width="128" height="128" viewBox="0 0 128 128"><path fill="#FFF" d="M24.74 54.14c.58-3.96 2.21-6.61 7.31-6.61 2.79 0 15.08 2.38 17.83 3.03 2.32.56 4.89 2.88 4.64 5.78-.23 2.57-1.73 5.19-5.27 5.71-3.53.53-15.38-.86-18.59-1.18-2.95-.3-6.53-2.34-5.92-6.73zM23.59 74.21c.08-4 2.42-7.63 7.54-7.58 1.85.02 16.47.64 18.86.64 2.39 0 5.21 2.27 5.31 5.17.09 2.58-1.1 5.36-4.54 6.3-3.44.95-17.26 1.35-20.48 1.42-2.97.07-6.79-1.52-6.69-5.95zM27.32 93.57c-.31-3.75 1.54-7.36 6.32-7.8s16.03-1.25 17.84-1.38c3.42-.24 4.85 2.15 5.31 4.53.45 2.38-.65 5.44-3.78 6.65-3.12 1.21-15.33 3.41-18.13 3.55-2.77.13-7.25-1.4-7.56-5.55zM56.89 111.7c-2.78 1.33-11.37 3.39-13.91 3.71-2.55.32-7.61-.81-8.19-4.59-.54-3.41.9-6.85 5.24-7.58 4.35-.73 12.47-2.02 14.13-2.27 3.11-.46 4.58 1.63 5.17 3.78.59 2.14.35 5.63-2.44 6.95zM70.44 109.54c-2.28.9-6.03 1.18-6.41-.7-.3-1.5 1.4-5.25 1.06-7.48-.34-2.23-2.58-5-4.31-5.79.98-.93 3.15-5.65 2.76-8.6-.39-2.95-3.65-7.11-3.65-7.11 1.9-1.58 1.63-5.92 2.82-4.78 1.18 1.14 8.78 6.73 10.13 4.51 1.35-2.22-2.12-3.8-4.41-8.34-2.29-4.53-3.13-12.61-3.13-12.61C52.91 42.4 52.09 32.96 52 26.37c-.07-5.7 1.19-11.08 8.48-11.17 7.21-.09 6.91 7.55 9.3 19.29 1.63 8 10.97 14.73 16.59 23.77.42.66.8 1.33 1.17 2l.02-.15c1.19 1.85 2.46 3.68 4.3 5.32 1.39.99 3.25 1.4 4.83 1.55.27.03.57.06.83.07 1.06.04 2.08.04 2.94.02.04 2.87-.03 6.79-.35 13.11-.25 5.14-.61 9.45-.97 12.8-1.47.04-3.28.17-5.36.49-.08.01-.15.03-.22.05-4.67.81-8.88 4.67-10.62 6.47l-.16.05v-.01c-3.59 4.72-7.98 7.81-12.34 9.51zM112.75 80.01c-.43 12.48-1.41 20.01-1.41 20.01s-4.17-.82-5.53-1.34c-.95-.36-.75-1.75-.75-1.75s.44-7.06.89-16.97c.39-8.3.46-17.17.48-17.47.03-.82.23-1.24.92-1.52.94-.36 6.03-.25 6.03-.25s-.19 6.88-.63 19.29z"/><path fill="#D7598B" d="M116.04 49.25c-1.77.48-2.65 1.88-2.88 2.92-.28 1.25-.38 3.09-.38 3.09s-8.53-.42-10.66.55c-1.61.73-2.03 1.8-2.05 3.85 0 .1.02.22.03.33-1.33.15-2.35.2-3.22.06-1.14-.31-1.8-1.07-2.16-1.61-.51-.76-.97-1.79-.97-1.79h-.01c-2.65-5.42-6.28-8.7-8.55-11.81-2.27-3.13-8.55-11.71-9.25-15.96-1.26-7.64-2.67-15.95-8.5-19.99-4.74-3.28-10.95-2.04-12.23-1.87-3 .4-8.2 2.71-9.57 10.03-2.93 15.5 2.13 25.1 1.5 26.24-.14.26-1.58-.05-3.27-.49-2.09-.54-11.31-1.44-13.85-1.24-4.15.33-10.63 3.92-11.68 11.28-.69 4.81.7 8.14 2.11 9.91.75.94.85 1.82.19 2.57-1.43 1.62-3.66 4.9-3.4 9.46.24 4.34 3 7.35 4.79 8.86.89.75 1.17 1.72.71 2.75-.9 2.05-2.1 5.83-1.11 10.13.93 4.1 4.21 6.32 6.18 7.32.92.46 1.35 1.27 1.15 2.26-.32 1.64-.57 4.3.37 6.89 1.9 5.27 7.84 8 13.8 8.31 6.38.33 11.43-1.1 22-2.98 6.18-1.1 13.89-4.53 20.19-11.31l.02.03c3.09-2.98 3.45-4.3 7.85-6.15 1.7-.71 3.51-1 5.11-1.1l-.14.94s-.5 2.76 2.06 3.47c3.68 1.01 9.64 1.76 9.64 1.76s.09 3.05.64 3.62c.97 1.03 5.16 1.23 6.82 1.38 3.02.27 10.57.4 10.57.4l.12-62.5c-.01.03-9.01-.41-11.97.39zm-91.3 4.89c.58-3.96 2.21-6.61 7.31-6.61 2.79 0 15.08 2.38 17.83 3.03 2.32.56 4.89 2.88 4.64 5.78-.23 2.57-1.73 5.19-5.27 5.71-3.53.53-15.38-.86-18.59-1.18-2.95-.3-6.53-2.34-5.92-6.73zm-1.15 20.07c.08-4 2.42-7.63 7.54-7.58 1.85.02 16.47.64 18.86.64 2.39 0 5.21 2.27 5.31 5.17.09 2.58-1.1 5.36-4.54 6.3-3.44.95-17.26 1.35-20.48 1.42-2.97.07-6.79-1.52-6.69-5.95zm3.73 19.36c-.31-3.75 1.54-7.36 6.32-7.8s16.03-1.25 17.84-1.38c3.42-.24 4.85 2.15 5.31 4.53.45 2.38-.65 5.44-3.78 6.65-3.12 1.21-15.33 3.41-18.13 3.55-2.77.13-7.25-1.4-7.56-5.55zm29.57 18.13c-2.78 1.33-11.37 3.39-13.91 3.71-2.55.32-7.61-.81-8.19-4.59-.54-3.41.9-6.85 5.24-7.58 4.35-.73 12.47-2.02 14.13-2.27 3.11-.46 4.58 1.63 5.17 3.78.59 2.14.35 5.63-2.44 6.95zm13.55-2.16c-2.28.9-6.03 1.18-6.41-.7-.3-1.5 1.4-5.25 1.06-7.48-.34-2.23-2.58-5-4.31-5.79.98-.93 3.15-5.65 2.76-8.6-.39-2.95-3.65-7.11-3.65-7.11 1.9-1.58 1.63-5.92 2.82-4.78 1.18 1.14 8.78 6.73 10.13 4.51 1.35-2.22-2.12-3.8-4.41-8.34-2.29-4.53-3.13-12.61-3.13-12.61C52.91 42.4 52.09 32.96 52 26.37c-.07-5.7 1.19-11.08 8.48-11.17 7.21-.09 6.91 7.55 9.3 19.29 1.63 8 10.97 14.73 16.59 23.77.42.66.8 1.33 1.17 2l.02-.15c1.19 1.85 2.46 3.68 4.3 5.32 1.39.99 3.25 1.4 4.83 1.55.27.03.57.06.83.07 1.06.04 2.08.04 2.94.02.04 2.87-.03 6.79-.35 13.11-.25 5.14-.61 9.45-.97 12.8-1.47.04-3.28.17-5.36.49-.08.01-.15.03-.22.05-4.67.81-8.88 4.67-10.62 6.47l-.16.05v-.01c-3.59 4.72-7.98 7.81-12.34 9.51zm42.31-29.53c-.43 12.48-1.41 20.01-1.41 20.01s-4.17-.82-5.53-1.34c-.95-.36-.75-1.75-.75-1.75s.44-7.06.89-16.97c.39-8.3.46-17.17.48-17.47.03-.82.23-1.24.92-1.52.94-.36 6.03-.25 6.03-.25s-.19 6.88-.63 19.29z"/></svg>