<svg xmlns="http://www.w3.org/2000/svg" width="128" height="128" viewBox="0 0 128 128"><path fill="#FFF" d="M63.95 113.53c-12.89.09-20.69-.56-20.69-.56s.11-4.72.59-6.08c.33-.96 1.77-.82 1.77-.82s7.85.68 18.08.71c8.57.03 17.72-.28 18.03-.28.85-.01 1.29.17 1.61.85.41.91.53 5.96.53 5.96s-7.1.12-19.92.22zM96.49 64.16c-1.18 10.87-6.26 19.86-14.76 26.68-1.88 1.5-3.87 3.09-4.83 5.37-.54 1.26-1.13 2.99-1.36 4.63-2.83.12-6.64.2-12.31.17-3.81-.03-7.19-.13-10.08-.26.54-2.97-.49-6.12-1.8-8.74-1.92-3.83-5.43-6.48-8.62-9.2-3.23-2.75-5.98-6.22-7.09-10.36-1.06-3.96-.98-8.08-1.57-12.1-.51-3.48-3.6-8.19-.72-11.39 1.51-1.69 4.28-2.05 6.32-1.22 1.4.57 3.58 4.05 4.47 8.61 1.09 5.63.15 9.7 1.35 11.07 1.95 2.24 2.69-2.31 2.85-3.28.52-3.28.81-6.61.87-9.93.17-9.53.65-30.09.74-34.12.1-4.25.45-7.35 1.13-9.01.83-2.05 2.32-2.96 4.66-3.16 2.78-.23 5.6 1.89 5.87 6.8.36 6.75.49 15.56.94 22.68.17 2.73.14 5.63.86 9.08.32 2.33 2.58 2.47 3.31-.55 1.37-5.67 7.07-4.57 8.56-3.5 2.17 1.57 3.09 4.5 3.22 7.07.03.56-.05 1.67.35 2.12.6.7 1.38.47 2.02 0 .87-.63 1.1-1.76 1.6-2.65.6-1.05 2.22-1.25 3.22-.89 1.26.44 2.34 1.46 2.98 2.62.34.62.63 1.36.75 2.06.19 1.1.18 2.29.01 3.39-.11.77-.56 1.58-.52 2.37.08 1.38 1.73.85 2.28.16.45-.58.65-1.5 1.29-1.92 1.18-.76 2.22.41 2.82 1.32.81 1.23 1.1 2.81 1.21 4.26.04.61.05 1.21-.02 1.82z"/><path fill="#D7598B" d="M100.5 53.38c-2.16-2.23-5.65-3.03-5.65-3.03s-.24-5.09-5.89-8.55c-3.03-1.85-6.98-.42-6.98-.42s-2.82-5.65-8.59-6.3c-1.67-.2-2.39.12-2.39.12s-.36-3.88-.54-7.47c-.22-4.29-.28-8.65-.69-12.3-.73-6.42-2.21-9.04-4.41-11.29-.92-.93-3.43-3.21-6.9-3.43-5.13-.33-7.88.92-10.55 2.72-2.37 1.59-3.49 4.04-4.03 6.03-2.02 7.47-1.39 32.09-1.39 32.09s-2.84-2.33-6.15-2.48c-3.11-.15-7.36 1.3-8.96 3.38-3.42 4.48-3.57 10.78-1.83 15.76.43 1.23 1.18 6.27 1.4 7.44.31 1.61.7 7.62 2.64 12.28 3.54 8.47 9.43 10.87 11.99 14.62 2.02 2.97 2.75 6.02 3.03 7.64-1.73-.15-2.67-.26-2.67-.26s-2.86-.38-3.48 2.2c-.88 3.69-1.38 9.62-1.38 9.62s-3.14.22-3.71.79c-1.02 1.02-1.04 5.17-1.11 6.83-.09 1.87-.05 5.49-.01 7.95h64.49s.06-8.95-.9-11.86c-.58-1.73-2.06-2.53-3.14-2.72-1.3-.23-3.2-.25-3.2-.25s.05-8.48-1.04-10.56c-.83-1.55-1.95-1.93-4.06-1.86-.03 0-.07.01-.1.01.09-.53.16-1.02.26-1.38.48-1.69 1.87-3.19 3.12-4.38 5.19-4.95 10.2-10.76 12.91-17.48.6-1.49 1.12-3.01 1.55-4.55.82-2.93 1.45-6.06 1.42-9.13-.05-1.82.01-6.61-3.06-9.78zm-36.55 60.15c-12.89.09-20.69-.56-20.69-.56s.11-4.72.59-6.08c.33-.96 1.77-.82 1.77-.82s7.85.68 18.08.71c8.57.03 17.72-.28 18.03-.28.85-.01 1.29.17 1.61.85.41.91.53 5.96.53 5.96s-7.1.12-19.92.22zm32.54-49.37c-1.18 10.87-6.26 19.86-14.76 26.68-1.88 1.5-3.87 3.09-4.83 5.37-.54 1.26-1.13 2.99-1.36 4.63-2.83.12-6.64.2-12.31.17-3.81-.03-7.19-.13-10.08-.26.54-2.97-.49-6.12-1.8-8.74-1.92-3.83-5.43-6.48-8.62-9.2-3.23-2.75-5.98-6.22-7.09-10.36-1.06-3.96-.98-8.08-1.57-12.1-.51-3.48-3.6-8.19-.72-11.39 1.51-1.69 4.28-2.05 6.32-1.22 1.4.57 3.58 4.05 4.47 8.61 1.09 5.63.15 9.7 1.35 11.07 1.95 2.24 2.69-2.31 2.85-3.28.52-3.28.81-6.61.87-9.93.17-9.53.65-30.09.74-34.12.1-4.25.45-7.35 1.13-9.01.83-2.05 2.32-2.96 4.66-3.16 2.78-.23 5.6 1.89 5.87 6.8.36 6.75.49 15.56.94 22.68.17 2.73.14 5.63.86 9.08.32 2.33 2.58 2.47 3.31-.55 1.37-5.67 7.07-4.57 8.56-3.5 2.17 1.57 3.09 4.5 3.22 7.07.03.56-.05 1.67.35 2.12.6.7 1.38.47 2.02 0 .87-.63 1.1-1.76 1.6-2.65.6-1.05 2.22-1.25 3.22-.89 1.26.44 2.34 1.46 2.98 2.62.34.62.63 1.36.75 2.06.19 1.1.18 2.29.01 3.39-.11.77-.56 1.58-.52 2.37.08 1.38 1.73.85 2.28.16.45-.58.65-1.5 1.29-1.92 1.18-.76 2.22.41 2.82 1.32.81 1.23 1.1 2.81 1.21 4.26.04.61.05 1.21-.02 1.82z"/></svg>