<svg xmlns="http://www.w3.org/2000/svg" width="128" height="128" viewBox="0 0 128 128"><path fill="#FFF" d="M12.838 40.526s9.354-5.297 23.626-2.279c14.276 3.019 29.02 3.977 39.119 2.279 10.094-1.699 29.716-7.847 33.207-3.206 3.468 4.642 3.014 9.171-1.4 12.885-4.414 3.714-8.828 27.161-10.33 33.777-1.511 6.616-7.151 34.241-33.76 33.546-26.595-.696-31.245-27.393-33.332-37.839-2.096-10.446-8.717-21.94-13.005-26.118-4.295-4.177-7.433-8.328-4.125-13.045z"/><path fill="#FFF" d="M126.008 29.023c-2.077-6.955-13.834-16.755-22.952-16.755-2.889 0-5.925.411-9.046 1.204C84.29 15.96 73.946 2.094 63.103 1.987c-9.964-.099-20.429 13.768-29.346 11.485-3.121-.793-6.17-1.204-9.046-1.204-9.126 0-21.164 9.854-22.921 16.898-6.496 25.948 24.027 57.033 25.159 65.958 2.88 22.801 23.06 30.889 37.496 30.889 14.45 0 34.625-8.087 37.505-30.889 1.133-8.925 31.249-42.016 24.058-66.101z"/><path fill="#CC4079" d="M39.085 23.294c1.23.625 2.773.455 4.115.598 7.918.838 15.4 4.289 23.541 2.996 1.993-.312 3.933-.883 5.912-1.347 2.136-.517 4.196-1.142 6.402-1.311 2.024-.16 4.053.107 6.082-.071.892-.081 2.929-.312 3.081-1.489.084-.518-.258-1.008-.731-1.427-.749-.642-1.854-1.115-2.425-1.302-1.921-.633-4.03-.847-6.041-.883a91.663 91.663 0 0 0-7.513.178c-3.393.223-6.772 1.043-10.174.883-2.897-.134-5.778-.401-8.658-.642-4.111-.348-9.314-1.257-13.023 1.043-1.049.652-1.959 2.061-.568 2.774zM120.421 44.035c-1.841-7.018-8.128-11.048-17.245-11.048-2.88 0-5.934.41-9.055 1.204-18.637 4.779-41.602 4.779-60.248 0-3.125-.794-6.162-1.204-9.051-1.204-9.117 0-15.399 4.03-17.245 11.048-1.98 7.535 5.337 14.089 13.451 17.246.192.08.428.142.642.223 2.604 8.061 5.987 19.635 7.111 28.561 2.889 22.8 20.773 30.888 35.219 30.888 14.445 0 32.333-8.088 35.218-30.889 1.132-8.925 4.512-20.5 7.111-28.561.21-.081.437-.143.646-.223 8.123-3.156 15.426-9.71 13.446-17.245zM88.976 99.053c-3.754 8.257-10.129 12.475-20.214 13.554-1.502.152-3.095.25-4.762.276a52.568 52.568 0 0 1-4.727-.276c-10.107-1.061-16.487-5.288-20.25-13.554-1.984-4.333-4.205-15.667-5.555-23.38-.803-4.503-2.042-8.649-2.787-11.44-.33-1.195-.553-2.131-.62-2.729-.009-.071-.027-.179-.027-.241-.036-.491 0-.918.027-1.311.316-3.085 2.465-3.353 4.967-2.827 1.931.41 14.418 3.272 18.81 4.022 2.466.419 3.446 1.114 4.213 2.612.129.241.25.508.375.794.294.74.593 1.872.865 3.228 1.203 5.912 2.091 16.193 2.358 17.995.08.588.33 4.423 2.35 4.423s2.269-3.834 2.354-4.423c.263-1.801 1.142-12.083 2.346-17.995.281-1.355.57-2.488.874-3.228.111-.286.245-.553.366-.794.767-1.498 1.757-2.193 4.222-2.612 4.392-.75 16.875-3.612 18.815-4.022 2.501-.526 4.65-.258 4.949 2.827.053.393.062.82.044 1.311 0 .062-.022.187-.044.267-.067.598-.29 1.525-.606 2.702-.754 2.791-1.984 6.938-2.787 11.44-1.352 7.714-3.586 19.047-5.556 23.381zM24.667 40.709c-.156-.588-.174-1.382.446-1.623 1.199-.473 3.656-.018 4.182.018 1.774.107 10.442 2.667 10.999 3.478.232.33.321.767.397 1.195.084.651.067 1.311.084 1.596.081.847.031 2.72-.018 4.075a37.177 37.177 0 0 1-.081 1.516c-.12.919-.37 1.061-1.328.776-2.533-.749-5.551-1.881-8.409-3.906-1.797-1.275-3.545-2.88-5.07-4.984-.294-.393-.82-1.026-1.101-1.864-.039-.098-.083-.179-.101-.277zm78.228-1.623c.616.241.588 1.035.437 1.623a1.551 1.551 0 0 1-.094.276c-.298.838-.816 1.472-1.101 1.864a22.084 22.084 0 0 1-5.069 4.984c-2.875 2.024-5.88 3.157-8.422 3.906-.94.285-1.199.143-1.315-.776a31.897 31.897 0 0 1-.089-1.516c-.058-1.355-.094-3.229-.031-4.075.031-.285.013-.945.111-1.596.058-.428.165-.865.383-1.195.571-.812 9.229-3.371 10.995-3.478.521-.035 2.983-.49 4.195-.017zm-34.616 6.349c3.041-.651 7.49-.892 11.182-1.472.517-.089 2.96-.526 3.629-.366.357.081.531.295.625.589.009.018.022.089.031.125.098.615.183 3.522.018 5.707-.04.517-.076 1.007-.161 1.399-.254 1.418-1.23 1.917-1.899 2.149-3.433 1.195-9.354 1.445-13.928 1.445-1.382 0-2.038-.687-2.051-1.649v-.384c.027-1.043.174-3.353.33-5.074.129-1.346.629-1.917 1.467-2.247.236-.088.485-.168.757-.222zm-6.192 2.47c.156 1.739.303 4.066.334 5.092v.366c-.027.963-.673 1.649-2.06 1.649-4.565 0-10.495-.25-13.919-1.445-.674-.232-1.654-.73-1.917-2.149a14.242 14.242 0 0 1-.147-1.382c-.161-2.167-.076-5.047.013-5.698.013-.053.022-.134.026-.151.098-.294.277-.508.62-.589.673-.16 3.116.277 3.642.366 3.683.58 8.141.821 11.178 1.472.281.062.535.134.763.231.842.321 1.346.9 1.467 2.238z"/></svg>