<svg xmlns="http://www.w3.org/2000/svg" width="128" height="128" viewBox="0 0 128 128"><path fill="#FFF" d="M40.38 16.28c2.76-2 7.25-1.61 9.29 2.24 1.77 3.34 11.75 21.3 14.98 27.23-.45.19-.9.4-1.35.59a41.914 41.914 0 0 0-7.17 3.92c-4.92-6.57-16.04-23.19-16.98-25.2-1.08-2.28-1.72-6.63 1.23-8.78zM27.22 29.66c2.72-2.06 6.79-2.4 9.29 1.16 1.84 2.64 10.27 14.3 16.14 22.16-1.89 1.62-3.68 3.36-5.27 5.29-.65.8-1.31 1.62-1.93 2.46-3.88-4.56-17.66-20.72-18.55-22.1-1.36-2.13-2.51-6.83.32-8.97zM77.64 114.26c-12.84.1-20.59-.55-20.59-.55s.1-4.69.59-6.06c0-.03.03-.05.03-.07.38-.87 1.72-.75 1.72-.75s7.82.68 18 .71c8.54.02 17.63-.28 17.95-.28.41 0 .71.05.97.16.27.13.47.34.63.7.42.9.53 5.93.53 5.93s-7.07.11-19.83.21z"/><path fill="#FFF" d="M95.22 88.29c-1.34 1.28-3.04 3.75-3.55 6.4-.39 2.04-.51 5.44-.54 6.84-2.77.17-6.54.29-12.65.27l-15.71-.48c-.46-.03-.9-.06-1.31-.09-.01-.24-.16-3.38-2.02-6.48-1.65-2.77-7.53-2.15-13.19-10.23-4.93-7.05-9.21-10.97-9.21-10.97-5.9-5.42-16.71-16.15-17.97-17.68-1.59-1.97-3.38-6.05-.84-8.86 2.3-2.52 6.64-3.23 9.53.03 1.71 1.93 8.59 9.85 15.52 17.2-.53 1.1-2.18 4.78-.02 4.65.76-.05 1.33-.99 1.79-1.52.71-.81 1.43-1.6 2.16-2.38 2.14-2.27 4.42-4.38 6.83-6.35 2.61-2.14 5.34-4.14 8.14-6.02 2.92-1.95 5.84-3.65 9-5.15.66-.31 2.54-1.24 2.45-2.14-.06-.45-.44-.69-.95-.82-.96-.23-2.34-.03-2.83.02-.42.04-.83.11-1.24.18-3.85-7.3-12.35-25.38-13.01-27.48-.77-2.41-1.27-7.04 2.63-8.64 3.17-1.29 6.72-.96 8.68 3.59 1.66 3.87 9.96 24.55 11 27.35.68 1.75 2.53 6.49 2.65 6.71 1.64 2.91 3.12 5.9 4.46 8.96.57 1.28 1.29 2.54 1.52 3.93.31 1.89-1.86 2.19-3.11 3.06-1.17.82-2.22 1.77-3.19 2.82-.61.67-2.37 2.42-.98 3.32 1.14.74 2.21-.25 3-.99 4.54-4.31 8.23-1.59 13.02-7.8 3.56-5.37 6.92-10.29 7.71-11.22 1.72-2.05 6.41-4.78 9.54-2.3 2.84 2.24 4.17 5.9 1.36 9.55-1.53 1.99-6.53 8.99-10.94 15.17.01.03-2.51 12.52-7.73 17.55z"/><path fill="#D7598B" d="M100.35 93.61c5.57-5.37 8.46-15.48 9.48-19.77 3.49-4.89 8.51-11.92 9.91-13.74 4.94-6.41 3.83-14.75-2.63-19.85-2.13-1.69-4.74-2.58-7.53-2.58-5.02 0-9.77 2.97-12.26 5.92-.98 1.17-3.63 5.06-5.75 8.21-1.31-2.97-2.78-5.92-4.38-8.81-.46-1.14-1.84-4.67-2.36-6.02-1.08-2.9-9.37-23.58-11.14-27.69-2.38-5.54-6.9-8.72-12.4-8.72-1.92 0-3.89.4-5.84 1.2-3.19 1.3-5.5 3.71-6.74 6.74-4.03-1.45-9.07-.81-12.67 1.8-3.55 2.58-5.09 6.5-5.17 10.44-2.86.15-5.71 1.21-8.12 3.02-4.54 3.45-5.49 9.28-4.04 14.4-2.25.75-4.3 2.08-5.94 3.88-5.21 5.75-3.35 13.6.57 18.46 1.79 2.2 13.31 13.51 18.7 18.46.03.04 3.81 3.58 8.16 9.78 4.67 6.68 9.71 8.99 12.73 10.37.19.09.4.19.61.28.25.6.38 1.15.45 1.54-.72.26-1.46.8-1.74 1.97-.87 3.68-1.38 9.59-1.38 9.59s-3.13.22-3.71.79c-1 1.01-1.02 5.15-1.1 6.8-.09 1.86-.04 5.46 0 7.91h64.21s.06-8.91-.9-11.8c-.57-1.73-2.05-2.53-3.12-2.71-1.29-.23-3.19-.25-3.19-.25s.06-8.44-1.04-10.51c-.75-1.4-1.77-1.82-3.49-1.84.07-1.7.18-3.76.38-4.8.17-.83.95-2 1.44-2.47zM40.38 16.28c2.76-2 7.25-1.61 9.29 2.24 1.77 3.34 11.75 21.3 14.98 27.23-.45.19-.9.4-1.35.59a41.914 41.914 0 0 0-7.17 3.92c-4.92-6.57-16.04-23.19-16.98-25.2-1.08-2.28-1.72-6.63 1.23-8.78zM27.22 29.66c2.72-2.06 6.79-2.4 9.29 1.16 1.84 2.64 10.27 14.3 16.14 22.16-1.89 1.62-3.68 3.36-5.27 5.29-.65.8-1.31 1.62-1.93 2.46-3.88-4.56-17.66-20.72-18.55-22.1-1.36-2.13-2.51-6.83.32-8.97zm50.42 84.6c-12.84.1-20.59-.55-20.59-.55s.1-4.69.59-6.06c0-.03.03-.05.03-.07.38-.87 1.72-.75 1.72-.75s7.82.68 18 .71c8.54.02 17.63-.28 17.95-.28.41 0 .71.05.97.16.27.13.47.34.63.7.42.9.53 5.93.53 5.93s-7.07.11-19.83.21zm17.58-25.97c-1.34 1.28-3.04 3.75-3.55 6.4-.39 2.04-.51 5.44-.54 6.84-2.77.17-6.54.29-12.65.27l-15.71-.48c-.46-.03-.9-.06-1.31-.09-.01-.24-.16-3.38-2.02-6.48-1.65-2.77-7.53-2.15-13.19-10.23-4.93-7.05-9.21-10.97-9.21-10.97-5.9-5.42-16.71-16.15-17.97-17.68-1.59-1.97-3.38-6.05-.84-8.86 2.3-2.52 6.64-3.23 9.53.03 1.71 1.93 8.59 9.85 15.52 17.2-.53 1.1-2.18 4.78-.02 4.65.76-.05 1.33-.99 1.79-1.52.71-.81 1.43-1.6 2.16-2.38 2.14-2.27 4.42-4.38 6.83-6.35 2.61-2.14 5.34-4.14 8.14-6.02 2.92-1.95 5.84-3.65 9-5.15.66-.31 2.54-1.24 2.45-2.14-.06-.45-.44-.69-.95-.82-.96-.23-2.34-.03-2.83.02-.42.04-.83.11-1.24.18-3.85-7.3-12.35-25.38-13.01-27.48-.77-2.41-1.27-7.04 2.63-8.64 3.17-1.29 6.72-.96 8.68 3.59 1.66 3.87 9.96 24.55 11 27.35.68 1.75 2.53 6.49 2.65 6.71 1.64 2.91 3.12 5.9 4.46 8.96.57 1.28 1.29 2.54 1.52 3.93.31 1.89-1.86 2.19-3.11 3.06-1.17.82-2.22 1.77-3.19 2.82-.61.67-2.37 2.42-.98 3.32 1.14.74 2.21-.25 3-.99 4.54-4.31 8.23-1.59 13.02-7.8 3.56-5.37 6.92-10.29 7.71-11.22 1.72-2.05 6.41-4.78 9.54-2.3 2.84 2.24 4.17 5.9 1.36 9.55-1.53 1.99-6.53 8.99-10.94 15.17.01.03-2.51 12.52-7.73 17.55z"/><path fill="#F79329" d="M36.2 91.54c-1.81-.33-3.61-.72-5.4-1.24-3.26-.96-6.46-2.07-9.21-4.47-2.34-2.04-4.24-4.58-5.88-7.19-.83-1.3-1.66-2.62-2.38-3.98-.25-.47-.47-1.42-.99-1.67-.5-.24-1.03.08-1.07.59-.01.18 0 .39.03.6 1.22 7.77 6.25 16.66 14.31 18.85 2.55.69 5.47 1.1 7.96 1.01.86-.03 1.68-.1 2.47-.32.62-.17 1.2-.27 1.36-1.01.2-.84-.59-1.06-1.2-1.17zM26.56 98.01c-1.18-.13-2.39-.38-3.55-.63-4.72-1.05-9.08-3.48-12.39-7.33-1.24-1.44-2.42-2.98-3.54-4.51-.28-.39-.8-.81-1.27-.82-.22-.01-.37.06-.47.17-.45.53.24 2.08.47 2.62 1.06 2.43 2.53 5.03 4.32 7.12 3.02 3.53 7 5.31 11.25 5.72 1.43.14 2.88.16 4.26.04.69-.07 4.1-.35 3.15-1.81-.45-.66-1.64-.51-2.23-.57zM85.84 9.8c1.36 1.08 2.69 2.21 3.94 3.46 2.26 2.26 4.42 4.62 5.51 7.91.94 2.78 1.24 5.79 1.28 8.75.03 1.48.06 2.98-.03 4.46-.03.52-.34 1.42-.03 1.87.29.43.92.39 1.22-.03.1-.15.2-.33.28-.53 2.98-7.2 3.3-17.04-2.42-22.48-1.81-1.72-4.07-3.36-6.25-4.38-.73-.35-1.47-.66-2.26-.82-.62-.13-1.16-.29-1.67.27-.59.62-.04 1.15.43 1.52zM103.04 10.52c2.35 3.89 3.43 8.48 2.76 13.31-.25 1.81-.62 3.65-1.03 5.43-.1.46-.07 1.1.22 1.41l.46.21c.7-.05 1.41-1.57 1.64-2.08 1.12-2.35 2.09-5.1 2.47-7.72.63-4.42-.67-8.31-3.19-11.46-.85-1.05-1.79-2.06-2.81-2.9-.5-.42-2.99-2.55-3.46-.91-.2.72.7 1.43 1.04 1.87.69.89 1.32 1.86 1.9 2.84z"/></svg>