<svg xmlns="http://www.w3.org/2000/svg" width="128" height="128" viewBox="0 0 128 128"><path fill="#FFF" d="M116.872 61.264c0 17.762-23.581 32.159-52.649 32.159S11.577 79.025 11.577 61.264s23.577-32.159 52.646-32.159 52.649 14.397 52.649 32.159z"/><path fill="#FFF" d="M126.855 66.312c0 27.489-29.761 44.054-62.203 44.054S1.145 94.115 1.145 66.622c0-27.489 31.066-55.81 63.508-55.81s62.202 28.012 62.202 55.5z"/><g fill="#CC4079"><path d="M89.975 103.947c-1.149-.331-2.385-.453-3.151-.401-3.878.261-7.582 1.576-11.447 1.976-5.91.601-11.838.488-17.749-.061-3.234-.296-6.363-1.236-9.636-1.436-2.229-.139-5.127.035-6.311 2.281-2.359 4.482 6.972 7.329 9.479 8.234 5.058 1.811 10.419 2.603 15.79 2.646 7.721.061 18.192-1.628 23.964-7.286 2.038-2.002 2.438-4.996-.939-5.953zM64.044 24.596c-26.558 0-54.926 11.438-54.926 43.558 0 24.991 40.938 26.94 53.494 26.94.823 0 1.345-.017 1.371-.017.148 0 .666.017 1.489.017 4.822 0 17.278-.339 28.903-3.429 20.33-5.397 24.595-15.764 24.595-23.511 0-32.12-28.377-43.558-54.926-43.558zM62.25 48.559c-.026 1.071-.435 1.646-.67 1.872-.54.531-1.245.6-2.602.618-1.372.018-10.307.261-13.406.444-.565.035-2.124.166-2.912-.313-.631-.383-.674-2.176-.701-2.472-.161-2.072.113-9.105.344-10.532.205-1.202.396-2.22 1.554-2.533.409-.104.801-.218 1.201-.305 5.162-1.009 11.786-1.532 14.789-1.619.67-.018 1.001-.113 1.645.174.335.148.609 1.062.618 2.594.019.661.184 11.159.14 12.072zm-32.319-5.196c2.106-1.872 5.483-4.152 5.945-4.431.452-.287 1.349-.931 1.862-.87.857.095.906 1.236.818 2.237-.043.487-.47 9.026-.505 9.653-.018.461-.174 1.393-.81 1.854-.688.522-1.872.54-2.15.566-.736.069-7.964.966-8.696 1.088-1.132.183-2.307.209-2.977-.652-.814-1.062.305-2.255.888-3.152 1.385-2.133 3.414-4.326 5.625-6.293zm6.18 40.058c-3.56-1.533-4.013-5.023-.331-7.051 3.812-2.115 8.078-3.229 12.447-3.308 4.692-.096 9.271 1.167 13.937 1.61a21.59 21.59 0 0 0 2.455.096 21.37 21.37 0 0 0 2.455-.096c4.657-.444 9.235-1.706 13.945-1.61 4.344.078 8.618 1.192 12.43 3.308 3.677 2.028 3.238 5.518-.318 7.051-2.938 1.271-6.111 1.793-9.266 2.098-6.363.626-12.822 1.001-19.246.993-6.433.008-12.879-.366-19.246-.993-3.161-.305-6.346-.827-9.262-2.098zm30.396-46.935c.013-1.532.279-2.446.627-2.594.635-.287.975-.191 1.645-.174 2.994.087 9.61.609 14.789 1.619.4.087.801.201 1.192.305 1.175.313 1.358 1.332 1.558 2.533.235 1.427.514 8.46.348 10.532-.026.296-.061 2.089-.701 2.472-.787.479-2.337.348-2.912.313-3.099-.183-12.038-.426-13.4-.444-1.371-.018-2.067-.087-2.625-.618-.227-.227-.626-.801-.662-1.872-.033-.912.133-11.41.141-12.072zm38.692 16.322c-.662.861-1.828.835-2.959.652-.736-.122-7.974-1.019-8.713-1.088-.278-.026-1.449-.044-2.15-.566-.618-.461-.783-1.393-.81-1.854-.026-.626-.453-9.166-.5-9.653-.083-1.001-.039-2.142.814-2.237.514-.061 1.414.583 1.88.87.453.279 3.83 2.559 5.945 4.431 2.207 1.967 4.239 4.161 5.606 6.293.586.897 1.696 2.09.887 3.152z"/></g></svg>