<svg xmlns="http://www.w3.org/2000/svg" width="128" height="128" viewBox="0 0 128 128"><path fill="#FFF" d="M62.23 89.4c-6.4-.75-8.22-18.98-8.58-22.1-.69-5.9-.75-12.19-.79-18.23-.03-4.75-4.41-3.79-4.98-1.27-.79 3.48-.8 5.95-.83 9.49-.08 11.56.73 20.38 2.75 25.45.75 1.88 1.37 3.98-.57 5.64-4.68 4.04-11.72 1.46-14.01-3.24a59.345 59.345 0 0 1-5.06-15.98c-.98-6.05-.53-10.61-.25-16.85.09-1.86.08-3.55-.68-3.9-1.15-.54-2.78.57-3.44 2.32-2.92 7.89-1.79 18.46-.68 24.83.46 2.62.92 4.53 1.08 5.27.34 1.44 1.71 4.42-.06 5.5-6.26 3.82-13.75-7.69-16.2-20.63-.63-3.4-1.01-6.88-.92-10.42.05-2.15.09-4.3.3-6.46.75-7.77 3.52-16.34 12.62-17.75 2.48-.39 6.11-.46 8.27.67.21-.54 1-1.15 1.5-1.54 5.44-4.27 13.29-4.63 19.06-2.32 2.16-1.94 4.48-3.8 7.24-4.65 2.92-.89 5.97-.48 8.8.05.58.11 5.62 1.71 5.69 1.65 3.24-2.83 8.43-3.48 12.31-3.46 4.36.02 8.51 1.24 11.7 4.04 2.07 1.82 3.76 4.12 4.81 6.72.69 1.75 1.58 3.37 2.03 5.24l.1.46c.74 3.45 1.18 6.99 1.37 10.55.26 5.13-.24 20.09-4.88 28.6-2.47 4.53-4.6 6.94-7.17 8.03-5.85 2.45-8.72-1.57-9.68-4.66-.58-1.86-1.03-3.9-1.38-6.04-1.98-11.98-.85-26.77-1.02-27.35-.19-.62-.09-1.3-.38-1.91-.54-1.11-1.86-1.66-3.14-1.32-.86.24-1.5.92-1.95 1.7-.25.42-.35.89-.5 1.34-1.95 6.16-.78 14.17-.61 26.34.11 8.3-1.07 11.92-2.6 13.67-2.5 2.8-6.04 2.91-9.27 2.52zM114.93 96.47c-6.68 9.47-19.54 12.15-32.83 13.97-6.1.84-9.18-1.41-10.95-3.49-2.51-2.94-.52-6.53.09-7.46 1.86-2.79 4.75-3.33 4.75-3.33s7.37 1.26 14.43.25c.95-.14 5.17-1.09 7.93-2.79 8.76-5.38 11.61-15.68 11.95-15.98.31-.25 11.56 9.02 4.63 18.83z"/><path fill="#D7598B" d="M126.99 82.82c-1.82-10.1-8.44-14.95-8.44-14.95 1.98-16.06-.57-28.09-6.78-40.34-2.18-4.31-4.85-7.27-8.79-10.05-1.4-.98-2.96-1.65-4.58-2.26-1.28-.48-2.63-.92-4.01-1.2-2.9-.59-5.66-.82-8.71-.5-6.77.71-9.96 2.86-10.25 2.79-.32-.07-.67-.35-.98-.49-.72-.34-1.45-.68-2.21-.93-1.25-.42-2.53-.78-3.86-.98-4.7-.72-10.13-.69-14.81 1.31-.87.37-1.87.79-2.65 1.35-.6.42-1.12 1.05-1.73 1.45-.42.27-.17.12-.55.03-.4-.1-.79-.24-1.2-.34-1.15-.28-2.35-.4-3.55-.56-1.16-.15-2.45-.14-3.64-.13-1.24 0-2.43.06-3.69.22-2.03.24-4.41.99-6.19 2.12-1.26.81-2.43 2.08-3.33 3.24l-.5.57-.68-.11c-1.03-.12-2.02-.23-3.08-.23-1.93 0-3.78.16-5.67.81-1.17.4-2.35.85-3.45 1.42-3.93 2.05-4.94 4.18-6.41 6C2.36 37.12.6 48.12.65 55.24.74 66.99 5.81 79.82 13.07 89c8.21 10.39 23.09 15.01 36.05 15.04 3.21.01 9.05-1.26 9.05-1.26s.27 7.04 5.84 11.26c3.27 2.49 8.74 4.59 16.58 4.59 7.45 0 16.46-2.75 17.76-3.18 2.62-.88 5.29-1.61 7.87-2.7 2.13-.9 4.19-1.87 6.2-3.06 3.96-2.34 7.5-5.4 10.4-8.99 1.03-1.28 1.79-3.01 2.51-4.47 2.38-4.83 2.2-10.35 1.66-13.41zM62.23 89.4c-6.4-.75-8.22-18.98-8.58-22.1-.69-5.9-.75-12.19-.79-18.23-.03-4.75-4.41-3.79-4.98-1.27-.79 3.48-.8 5.95-.83 9.49-.08 11.56.73 20.38 2.75 25.45.75 1.88 1.37 3.98-.57 5.64-4.68 4.04-11.72 1.46-14.01-3.24a59.345 59.345 0 0 1-5.06-15.98c-.98-6.05-.53-10.61-.25-16.85.09-1.86.08-3.55-.68-3.9-1.15-.54-2.78.57-3.44 2.32-2.92 7.89-1.79 18.46-.68 24.83.46 2.62.92 4.53 1.08 5.27.34 1.44 1.71 4.42-.06 5.5-6.26 3.82-13.75-7.69-16.2-20.63-.63-3.4-1.01-6.88-.92-10.42.05-2.15.09-4.3.3-6.46.75-7.77 3.52-16.34 12.62-17.75 2.48-.39 6.11-.46 8.27.67.21-.54 1-1.15 1.5-1.54 5.44-4.27 13.29-4.63 19.06-2.32 2.16-1.94 4.48-3.8 7.24-4.65 2.92-.89 5.97-.48 8.8.05.58.11 5.62 1.71 5.69 1.65 3.24-2.83 8.43-3.48 12.31-3.46 4.36.02 8.51 1.24 11.7 4.04 2.07 1.82 3.76 4.12 4.81 6.72.69 1.75 1.58 3.37 2.03 5.24l.1.46c.74 3.45 1.18 6.99 1.37 10.55.26 5.13-.24 20.09-4.88 28.6-2.47 4.53-4.6 6.94-7.17 8.03-5.85 2.45-8.72-1.57-9.68-4.66-.58-1.86-1.03-3.9-1.38-6.04-1.98-11.98-.85-26.77-1.02-27.35-.19-.62-.09-1.3-.38-1.91-.54-1.11-1.86-1.66-3.14-1.32-.86.24-1.5.92-1.95 1.7-.25.42-.35.89-.5 1.34-1.95 6.16-.78 14.17-.61 26.34.11 8.3-1.07 11.92-2.6 13.67-2.5 2.8-6.04 2.91-9.27 2.52zm52.7 7.07c-6.68 9.47-19.54 12.15-32.83 13.97-6.1.84-9.18-1.41-10.95-3.49-2.51-2.94-.52-6.53.09-7.46 1.86-2.79 4.75-3.33 4.75-3.33s7.37 1.26 14.43.25c.95-.14 5.17-1.09 7.93-2.79 8.76-5.38 11.61-15.68 11.95-15.98.31-.25 11.56 9.02 4.63 18.83z"/></svg>