<svg xmlns="http://www.w3.org/2000/svg" width="128" height="128" viewBox="0 0 128 128"><path fill="#FFF" d="M48.338 65.817c0 6.633-9.812 12.001-21.928 12.001-12.106 0-21.928-5.368-21.928-12.001 0-6.634 9.822-12.001 21.928-12.001 12.116-.001 21.928 5.367 21.928 12.001zM123.506 65.817c0 6.633-9.803 12.001-21.928 12.001-12.101 0-21.928-5.368-21.928-12.001 0-6.634 9.827-12.001 21.928-12.001 12.126-.001 21.928 5.367 21.928 12.001z"/><g fill="#CC4079"><path d="M34.786 50.303c-3.34-1.123-7.005-1.57-10.84-1.266-8.96.724-18.339 6.967-21.689 15.428-.338.866-.748 1.818-.928 2.722-.205 1.018-.443 2.798-.162 3.845.162.6 1.023 1.666 1.723 1.713 2.599.2 4.326-5.768 6.158-7.139.776-.58 1.937-1.741 3.018-1.58 1.594.248 1.318 3.788 1.565 4.816.552 2.17 2.141 4.701 3.75 6.244 6.429 6.205 19.173 5.206 22.804-3.502.633-1.513.971-4.007 2.489-4.911.519-.305 1.689-.105 2.185.19.732.428 1.408 1.256 2.017 1.837.99.933 1.837 2.274 3.388 1.941.98-.209 1.295-.999 1.261-1.932-.086-2.018-1.242-4.007-2.175-5.739-3.324-6.223-8.421-10.592-14.564-12.667zM126.676 67.188c-.181-.904-.59-1.856-.933-2.722-3.35-8.461-12.725-14.704-21.681-15.428-3.845-.305-7.5.143-10.85 1.266-6.139 2.075-11.235 6.444-14.557 12.668-.928 1.732-2.089 3.721-2.174 5.739-.038.933.275 1.723 1.256 1.932 1.561.333 2.403-1.008 3.393-1.941.609-.581 1.29-1.409 2.013-1.837.495-.295 1.666-.495 2.189-.19 1.518.904 1.856 3.398 2.484 4.911 3.636 8.708 16.379 9.708 22.803 3.502 1.608-1.542 3.208-4.074 3.75-6.244.256-1.028-.029-4.568 1.57-4.816 1.075-.162 2.242 1 3.017 1.58 1.827 1.371 3.56 7.338 6.158 7.139.694-.048 1.561-1.114 1.722-1.713.277-1.049.039-2.828-.16-3.846z"/></g><path fill="#FFF" d="M25.216 62.477c-1 2.712-5.164 3.816-7.105 1.589-1.518-1.742-.961-4.102.652-5.539 2.904-2.589 7.742.447 6.453 3.95zM97.933 62.477c-.999 2.712-5.167 3.816-7.104 1.589-1.518-1.742-.957-4.102.652-5.539 2.902-2.589 7.742.447 6.452 3.95z"/></svg>