<svg xmlns="http://www.w3.org/2000/svg" width="128" height="128" viewBox="0 0 128 128"><path fill="#FFF" d="M62.81 16.91c1.49-2.2 4.87-5.94 9.26-3.59 3.17 1.69 4.5 5.2 2.14 9.8-1.33 2.59-3.78 7.91-4.1 9.79-.1.6-.18 1.3-.21 2.11-.08.43-.1.88-.09 1.27.08 3.77 1.17 9.61-2.64 12.19-.39.27-.88.53-1.4.75-1.89.36-3.78.82-5.62 1.38-2.07-4.19-2.98-8.52-3.12-12.46-.42-11.74 4.17-18.87 5.78-21.24zM37.11 24.92c.13-2.66 1.09-7.6 6.06-7.85 3.59-.19 6.53 2.12 6.9 7.29 1.08 15.32 4.73 24.07 6.51 27.5-2.66 1.01-5.25 2.19-7.67 3.58-1.21.7-2.41 1.42-3.55 2.2-3.17-5.37-9.04-17.47-8.25-32.72zM48.54 113.54s.11-4.75.58-6.13c.09-.24.24-.41.42-.53.55-.38 1.38-.3 1.38-.3s2.24.2 5.86.38c3.21.17 7.5.32 12.34.34 5.52.02 11.25-.1 14.77-.19 1.99-.05 3.28-.09 3.39-.09.85 0 1.3.17 1.62.86.42.91.53 6 .53 6s-7.15.11-20.06.21c-8.25.07-14.43-.18-17.83-.36-1.95-.1-3-.19-3-.19z"/><path fill="#FFF" d="M110.21 64.59c-.21 1.63-.75 6.45-5.09 11.73v.01s-3.94 6.15-12.61 10.81v.01l-.06.02c-1.03.55-2.1 1.08-3.27 1.57-5.51 3.17-5.31 6.43-5.31 6.43v6c-3.1.22-7.39.38-15.23.33-4.88-.03-9.07-.19-12.41-.37-.12-1.59-.24-3.2-.29-4.6-.13-2.8-3.05-5.7-5.55-7.69-1.22-.76-2.38-1.58-3.47-2.44l-.1-.06v-.02c-8.71-6.9-13.35-16.37-13.35-16.37S21.56 57.17 18.08 42.62c-.62-2.59-1.22-7.58 3.45-9.31 3.37-1.25 7.15-.01 8.75 4.91 3.9 11.87 9.38 18.78 12.14 21.72-1.13 1.07-3.21 3.28-1.25 3.59.78.12 1.67-.55 2.3-.9.98-.54 1.98-1.05 2.98-1.56 2.91-1.46 5.91-2.76 8.99-3.92 3.34-1.26 6.74-2.37 10.19-3.36 1.15-.33 2.31-.64 3.46-.92.85-.2 1.55-.36 2.16-.85 1.13-.61 1.75-1.68 2.04-2.93.29-1.3.54-2.66.9-3.98 1.55-3.35 3.86-5.95 6.04-7.46a16.265 16.265 0 0 1 13.02-1.92c5.15.84 8.27 4.03 9.39 5.13 1.87 1.88 4.9 5.89 1.77 9.76-2.25 2.8-6.19 3.73-10.03.26-1.8-1.62-3.31-2.27-4.55-2.42-3.63.4-5.67 2.42-6.83 4.66-.01.02-.94 2.1-1.41 4.76-.14 1.26-.11 2.12-.11 2.12l-.12-.08c-.18 3.48.83 7.28 5.63 8.71 8.7 2.6 10.77-7.82 10.77-7.82l.02.05c1.17-4.37 4.58-5.83 7.85-5.07 4.85 1.14 4.92 6.16 4.58 8.8z"/><path fill="#D7598B" d="M112.27 51.1c1.73-5.05.03-10.74-4.63-15.4-1.42-1.42-5.75-5.73-12.8-6.99-1.32-.35-3.41-.76-5.93-.76-3.55 0-6.96.77-10.15 2.31a83.67 83.67 0 0 1 1.85-3.88c3.93-7.71 1.82-15.7-5.16-19.43-1.98-1.06-4.07-1.6-6.19-1.6-4.73 0-9.14 2.67-12.41 7.51-.7 1.04-1.36 2.12-1.97 3.21-2.55-4.08-7.05-6.46-12.08-6.22-7.38.38-12.44 6.14-12.88 14.67-.04.83-.08 1.67-.08 2.5-3.23-1.61-7.22-1.82-10.8-.49-5.41 2-10.35 7.71-7.95 17.73 3.38 14.14 13.32 26.27 16.43 29.79 1.44 2.66 6.52 11.26 14.82 17.85l.21.17c1.21.95 2.46 1.84 3.62 2.56 1.71 1.4 2.39 2.32 2.61 2.67.05 1.03.12 2.14.21 3.27-1.16-.11-1.79-.18-1.79-.18s-2.88-.39-3.5 2.21c-.9 3.73-1.4 9.7-1.4 9.7s-3.16.22-3.73.79c-1.02 1.02-1.04 5.21-1.12 6.88-.09 1.88-.05 5.52 0 8h64.94s.06-9.01-.91-11.93c-.58-1.75-2.08-2.56-3.16-2.75-1.3-.23-3.23-.25-3.23-.25s.06-8.54-1.05-10.63c-.67-1.25-1.55-1.73-2.95-1.85v-4.39c.24-.24.65-.6 1.33-1.02 1.12-.49 2.21-1.02 3.24-1.56.21-.11.43-.23.6-.33 8.95-4.9 13.55-11.03 14.71-12.73 5.35-6.66 6.15-13 6.42-15.08.75-6.1-1.1-11.3-5.12-14.35zM62.81 16.91c1.49-2.2 4.87-5.94 9.26-3.59 3.17 1.69 4.5 5.2 2.14 9.8-1.33 2.59-3.78 7.91-4.1 9.79-.1.6-.18 1.3-.21 2.11-.08.43-.1.88-.09 1.27.08 3.77 1.17 9.61-2.64 12.19-.39.27-.88.53-1.4.75-1.89.36-3.78.82-5.62 1.38-2.07-4.19-2.98-8.52-3.12-12.46-.42-11.74 4.17-18.87 5.78-21.24zm-25.7 8.01c.13-2.66 1.09-7.6 6.06-7.85 3.59-.19 6.53 2.12 6.9 7.29 1.08 15.32 4.73 24.07 6.51 27.5-2.66 1.01-5.25 2.19-7.67 3.58-1.21.7-2.41 1.42-3.55 2.2-3.17-5.37-9.04-17.47-8.25-32.72zm11.43 88.62s.11-4.75.58-6.13c.09-.24.24-.41.42-.53.55-.38 1.38-.3 1.38-.3s2.24.2 5.86.38c3.21.17 7.5.32 12.34.34 5.52.02 11.25-.1 14.77-.19 1.99-.05 3.28-.09 3.39-.09.85 0 1.3.17 1.62.86.42.91.53 6 .53 6s-7.15.11-20.06.21c-8.25.07-14.43-.18-17.83-.36-1.95-.1-3-.19-3-.19zm61.67-48.95c-.21 1.63-.75 6.45-5.09 11.73v.01s-3.94 6.15-12.61 10.81v.01l-.06.02c-1.03.55-2.1 1.08-3.27 1.57-5.51 3.17-5.31 6.43-5.31 6.43v6c-3.1.22-7.39.38-15.23.33-4.88-.03-9.07-.19-12.41-.37-.12-1.59-.24-3.2-.29-4.6-.13-2.8-3.05-5.7-5.55-7.69-1.22-.76-2.38-1.58-3.47-2.44l-.1-.06v-.02c-8.71-6.9-13.35-16.37-13.35-16.37S21.56 57.17 18.08 42.62c-.62-2.59-1.22-7.58 3.45-9.31 3.37-1.25 7.15-.01 8.75 4.91 3.9 11.87 9.38 18.78 12.14 21.72-1.13 1.07-3.21 3.28-1.25 3.59.78.12 1.67-.55 2.3-.9.98-.54 1.98-1.05 2.98-1.56 2.91-1.46 5.91-2.76 8.99-3.92 3.34-1.26 6.74-2.37 10.19-3.36 1.15-.33 2.31-.64 3.46-.92.85-.2 1.55-.36 2.16-.85 1.13-.61 1.75-1.68 2.04-2.93.29-1.3.54-2.66.9-3.98 1.55-3.35 3.86-5.95 6.04-7.46a16.265 16.265 0 0 1 13.02-1.92c5.15.84 8.27 4.03 9.39 5.13 1.87 1.88 4.9 5.89 1.77 9.76-2.25 2.8-6.19 3.73-10.03.26-1.8-1.62-3.31-2.27-4.55-2.42-3.63.4-5.67 2.42-6.83 4.66-.01.02-.94 2.1-1.41 4.76-.14 1.26-.11 2.12-.11 2.12l-.12-.08c-.18 3.48.83 7.28 5.63 8.71 8.7 2.6 10.77-7.82 10.77-7.82l.02.05c1.17-4.37 4.58-5.83 7.85-5.07 4.85 1.14 4.92 6.16 4.58 8.8zm-18.92-6.98l-.17.49c-.17.39-.3.8-.39 1.23-.2.91-.9 2.35-1.08 2.52-.05 0-.24-.01-.6-.12l-.43-.13s-.04-.08-.08-.33c.09-.48.13-.96.12-1.45 0-.03 0-.39.04-.84.24-1.3.65-2.4.76-2.68l.05-.1.04.04c.57.5 1.15.96 1.74 1.37z"/></svg>