<svg xmlns="http://www.w3.org/2000/svg" width="128" height="128" viewBox="0 0 128 128"><path fill="#FFF" d="M64.04 14.47c12.89-.1 20.68.55 20.68.55s-.1 4.72-.58 6.08c-.33.96-1.77.83-1.77.83s-7.85-.68-18.08-.72c-8.57-.03-17.72.28-18.03.28-.85 0-1.29-.18-1.61-.86-.41-.91-.53-5.96-.53-5.96s7.11-.1 19.92-.2zM94.64 79.05c-1.52 1.68-4.29 2.04-6.32 1.21-1.4-.57-3.59-4.04-4.47-8.61-1.09-5.63-.15-9.69-1.35-11.07-1.96-2.24-2.69 2.32-2.85 3.29-.52 3.28-.8 6.61-.87 9.93-.18 9.53-.65 30.09-.75 34.12-.1 4.25-.44 7.34-1.12 9.01-.83 2.04-2.32 2.96-4.66 3.16-2.78.23-5.61-1.89-5.87-6.81-.36-6.74-.5-15.55-.93-22.69-.17-2.72-.15-5.62-.87-9.07-.31-2.33-2.58-2.47-3.31.55-1.37 5.67-7.08 4.57-8.56 3.49-2.17-1.57-3.1-4.5-3.22-7.08-.03-.56.04-1.66-.35-2.12-.6-.71-1.39-.48-2.03-.01-.85.64-1.09 1.77-1.6 2.65-.59 1.06-2.21 1.25-3.22.9-1.26-.45-2.34-1.46-2.98-2.62-.34-.62-.63-1.37-.75-2.07-.19-1.09-.17-2.29-.02-3.38.12-.77.57-1.59.52-2.38-.07-1.38-1.74-.85-2.27-.15-.45.58-.65 1.5-1.3 1.92-1.17.77-2.22-.4-2.82-1.31-.81-1.24-1.09-2.81-1.2-4.26-.05-.61-.06-1.22.01-1.83 1.19-10.87 6.26-19.87 14.76-26.68 1.87-1.5 3.87-3.1 4.83-5.37.53-1.26 1.12-3 1.34-4.64 2.84-.12 6.65-.19 12.32-.16 3.81.03 7.18.12 10.08.26-.54 2.96.49 6.11 1.79 8.73 1.92 3.83 5.43 6.49 8.62 9.2 3.23 2.75 5.98 6.22 7.09 10.37 1.05 3.96.98 8.07 1.56 12.1.56 3.5 3.65 8.2.77 11.42z"/><path fill="#D7598B" d="M102.45 69.77c-.43-1.22-1.18-6.27-1.4-7.43-.31-1.6-.7-7.62-2.64-12.27-3.54-8.48-9.43-10.87-11.98-14.62-2.01-2.96-2.76-6.02-3.02-7.64 1.72.15 2.66.27 2.66.27s2.87.38 3.49-2.2c.88-3.7 1.39-9.63 1.39-9.63s3.14-.22 3.71-.79c1.02-1.01 1.03-5.18 1.11-6.83.09-1.87.05-5.48 0-7.94H31.28s-.06 8.94.91 11.85c.58 1.73 2.06 2.54 3.14 2.73 1.29.22 3.2.25 3.2.25s-.05 8.48 1.04 10.55c.83 1.56 1.95 1.94 4.06 1.87.03 0 .07-.01.1-.01-.09.52-.17 1.01-.27 1.38-.48 1.69-1.88 3.18-3.12 4.38-5.19 4.94-10.2 10.75-12.91 17.48-.59 1.48-1.11 3.01-1.54 4.55-.82 2.92-1.45 6.05-1.42 9.13.03 1.85-.03 6.64 3.03 9.81 2.16 2.22 5.65 3.02 5.65 3.02s.24 5.09 5.89 8.55c3.02 1.85 6.98.43 6.98.43s2.82 5.65 8.59 6.3c1.68.19 2.4-.13 2.4-.13s.36 3.89.54 7.47c.21 4.28.28 8.64.7 12.29.73 6.42 2.21 9.04 4.42 11.29.92.93 3.42 3.2 6.89 3.43 5.12.33 7.87-.91 10.55-2.71 2.37-1.6 3.49-4.04 4.03-6.03 2.01-7.47 1.38-32.1 1.38-32.1s2.85 2.34 6.16 2.49c3.11.14 7.36-1.3 8.95-3.39 3.41-4.52 3.56-10.81 1.82-15.8zm-38.41-55.3c12.89-.1 20.68.55 20.68.55s-.1 4.72-.58 6.08c-.33.96-1.77.83-1.77.83s-7.85-.68-18.08-.72c-8.57-.03-17.72.28-18.03.28-.85 0-1.29-.18-1.61-.86-.41-.91-.53-5.96-.53-5.96s7.11-.1 19.92-.2zm30.6 64.58c-1.52 1.68-4.29 2.04-6.32 1.21-1.4-.57-3.59-4.04-4.47-8.61-1.09-5.63-.15-9.69-1.35-11.07-1.96-2.24-2.69 2.32-2.85 3.29-.52 3.28-.8 6.61-.87 9.93-.18 9.53-.65 30.09-.75 34.12-.1 4.25-.44 7.34-1.12 9.01-.83 2.04-2.32 2.96-4.66 3.16-2.78.23-5.61-1.89-5.87-6.81-.36-6.74-.5-15.55-.93-22.69-.17-2.72-.15-5.62-.87-9.07-.31-2.33-2.58-2.47-3.31.55-1.37 5.67-7.08 4.57-8.56 3.49-2.17-1.57-3.1-4.5-3.22-7.08-.03-.56.04-1.66-.35-2.12-.6-.71-1.39-.48-2.03-.01-.85.64-1.09 1.77-1.6 2.65-.59 1.06-2.21 1.25-3.22.9-1.26-.45-2.34-1.46-2.98-2.62-.34-.62-.63-1.37-.75-2.07-.19-1.09-.17-2.29-.02-3.38.12-.77.57-1.59.52-2.38-.07-1.38-1.74-.85-2.27-.15-.45.58-.65 1.5-1.3 1.92-1.17.77-2.22-.4-2.82-1.31-.81-1.24-1.09-2.81-1.2-4.26-.05-.61-.06-1.22.01-1.83 1.19-10.87 6.26-19.87 14.76-26.68 1.87-1.5 3.87-3.1 4.83-5.37.53-1.26 1.12-3 1.34-4.64 2.84-.12 6.65-.19 12.32-.16 3.81.03 7.18.12 10.08.26-.54 2.96.49 6.11 1.79 8.73 1.92 3.83 5.43 6.49 8.62 9.2 3.23 2.75 5.98 6.22 7.09 10.37 1.05 3.96.98 8.07 1.56 12.1.56 3.5 3.65 8.2.77 11.42z"/></svg>