<svg xmlns="http://www.w3.org/2000/svg" width="128" height="128" viewBox="0 0 128 128"><path fill="#FFF" d="M96.87 76.9c-2.28.97-3.87 2.96-5.37 4.83-6.82 8.5-15.81 13.58-26.68 14.76-.61.07-1.22.06-1.83.01-1.45-.11-3.03-.39-4.26-1.2-.91-.6-2.08-1.64-1.32-2.83.42-.64 1.34-.83 1.92-1.28.69-.54 1.23-2.2-.16-2.27-.78-.04-1.6.41-2.37.52-1.1.17-2.29.18-3.39-.01-.7-.12-1.44-.41-2.06-.75-1.17-.63-2.18-1.72-2.62-2.98-.36-1.01-.16-2.63.89-3.23.89-.5 2.02-.74 2.65-1.6.48-.63.7-1.42 0-2.02-.46-.4-1.57-.33-2.12-.35-2.58-.12-5.51-1.06-7.08-3.23-1.07-1.49-2.17-7.19 3.5-8.57 3.02-.73 2.88-2.99.55-3.31-3.46-.72-6.36-.69-9.08-.86-7.12-.45-15.93-.58-22.68-.94-4.91-.26-7.03-3.08-6.8-5.87.2-2.34 1.11-3.83 3.16-4.66 1.66-.67 4.76-1.02 9.01-1.12 4.02-.09 24.59-.57 34.12-.74 3.33-.06 6.65-.35 9.93-.87.98-.16 5.53-.89 3.28-2.85-1.37-1.19-5.43-.25-11.07-1.35-4.56-.88-8.03-3.07-8.61-4.47-.83-2.03-.48-4.8 1.22-6.32 3.21-2.88 7.91.21 11.39.72 4.02.59 8.14.51 12.1 1.58 4.14 1.11 7.61 3.86 10.36 7.08 2.72 3.19 5.38 6.7 9.2 8.62 2.62 1.32 5.78 2.33 8.74 1.8.12 2.89.22 6.27.26 10.08.03 5.68-.04 9.48-.17 12.31-1.62.24-3.35.83-4.61 1.37zM114.2 63.95c-.1 12.82-.22 19.92-.22 19.92s-5.05-.12-5.96-.53c-.68-.32-.86-.76-.85-1.61 0-.31.3-9.46.27-18.03-.02-10.23-.71-18.08-.71-18.08s-.14-1.43.82-1.77c1.37-.48 6.08-.59 6.08-.59s.66 7.8.57 20.69z"/><path fill="#D7598B" d="M120.05 32.24c-1.66.08-5.82.09-6.83 1.11-.57.58-.79 3.72-.79 3.72s-5.93.51-9.63 1.38c-2.58.62-2.2 3.48-2.2 3.48s.11.94.26 2.67c-1.62-.28-4.68-1.01-7.64-3.03-3.75-2.56-6.14-8.45-14.62-11.98-4.66-1.94-10.67-2.33-12.28-2.64-1.17-.22-6.21-.97-7.43-1.39-4.98-1.74-11.28-1.59-15.76 1.82-2.08 1.6-3.53 5.85-3.38 8.96.15 3.31 2.48 6.15 2.48 6.15s-24.62-.63-32.09 1.39c-1.99.53-4.44 1.66-6.03 4.02-1.8 2.68-3.04 5.42-2.72 10.55.23 3.47 2.5 5.98 3.43 6.89 2.24 2.2 4.87 3.69 11.28 4.41 3.65.42 8.01.48 12.3.7 3.58.17 7.47.54 7.47.54s-.33.73-.13 2.4c.65 5.77 6.3 8.58 6.3 8.58s-1.43 3.96.42 6.98c3.46 5.65 8.55 5.88 8.55 5.88s.8 3.49 3.03 5.65c3.17 3.08 7.96 3.02 9.81 3.04 3.08.03 6.2-.6 9.13-1.42 1.54-.42 3.06-.95 4.55-1.55 6.72-2.7 12.53-7.71 17.48-12.9 1.18-1.25 2.68-2.64 4.38-3.13.36-.1.85-.17 1.38-.27 0 .03-.01.07-.01.1-.08 2.11.31 3.23 1.86 4.06 2.07 1.1 10.56 1.04 10.56 1.04s.02 1.9.25 3.2c.18 1.07.98 2.56 2.72 3.13 2.91.97 11.86.91 11.86.91v-64.5c-2.47 0-6.09-.05-7.96.05zM96.87 76.9c-2.28.97-3.87 2.96-5.37 4.83-6.82 8.5-15.81 13.58-26.68 14.76-.61.07-1.22.06-1.83.01-1.45-.11-3.03-.39-4.26-1.2-.91-.6-2.08-1.64-1.32-2.83.42-.64 1.34-.83 1.92-1.28.69-.54 1.23-2.2-.16-2.27-.78-.04-1.6.41-2.37.52-1.1.17-2.29.18-3.39-.01-.7-.12-1.44-.41-2.06-.75-1.17-.63-2.18-1.72-2.62-2.98-.36-1.01-.16-2.63.89-3.23.89-.5 2.02-.74 2.65-1.6.48-.63.7-1.42 0-2.02-.46-.4-1.57-.33-2.12-.35-2.58-.12-5.51-1.06-7.08-3.23-1.07-1.49-2.17-7.19 3.5-8.57 3.02-.73 2.88-2.99.55-3.31-3.46-.72-6.36-.69-9.08-.86-7.12-.45-15.93-.58-22.68-.94-4.91-.26-7.03-3.08-6.8-5.87.2-2.34 1.11-3.83 3.16-4.66 1.66-.67 4.76-1.02 9.01-1.12 4.02-.09 24.59-.57 34.12-.74 3.33-.06 6.65-.35 9.93-.87.98-.16 5.53-.89 3.28-2.85-1.37-1.19-5.43-.25-11.07-1.35-4.56-.88-8.03-3.07-8.61-4.47-.83-2.03-.48-4.8 1.22-6.32 3.21-2.88 7.91.21 11.39.72 4.02.59 8.14.51 12.1 1.58 4.14 1.11 7.61 3.86 10.36 7.08 2.72 3.19 5.38 6.7 9.2 8.62 2.62 1.32 5.78 2.33 8.74 1.8.12 2.89.22 6.27.26 10.08.03 5.68-.04 9.48-.17 12.31-1.62.24-3.35.83-4.61 1.37zm17.33-12.95c-.1 12.82-.22 19.92-.22 19.92s-5.05-.12-5.96-.53c-.68-.32-.86-.76-.85-1.61 0-.31.3-9.46.27-18.03-.02-10.23-.71-18.08-.71-18.08s-.14-1.43.82-1.77c1.37-.48 6.08-.59 6.08-.59s.66 7.8.57 20.69z"/></svg>