<svg xmlns="http://www.w3.org/2000/svg" width="128" height="128" viewBox="0 0 128 128"><path fill="#FFF" d="M113.692 103.429c2.727-8.824-.968-21.554-5.986-28.642-6.966-9.836-11.617-20.418-13.019-23.779a542.13 542.13 0 0 1-1.435-4.228c-2.226-6.643-4.741-14.188-8.112-22.655C78.44 7.257 66.791 7.056 64.688 7.056c-2.57 0-13.876.201-20.585 17.069-3.349 8.457-5.875 15.99-8.089 22.633-.367 1.124-.724 2.137-1.08 3.216-.29.734-5.308 13.309-13.453 24.813-5.43 7.667-9.414 21.977-5.285 30.756l.022-.011c.545 1.501 1.224 2.771 1.98 3.783l-.033.034s2.158 5.029 12.84 5.029c7.656 0 15.167-1.302 25.749 3.861v-.022c2.047.824 4.439 1.38 7.833 1.38s5.786-.556 7.845-1.369v.011c10.582-5.163 18.093-3.861 25.749-3.861 10.326 0 12.663-4.663 12.807-4.974 1.136-1.457 2.092-3.538 2.704-5.975z"/><path fill="#CC4079" d="M119.968 88.78c-1.792-7.065-6.776-15.311-10.07-20.763l-1.246-2.058c-3.038-5.119-5.33-11.996-8.246-20.686-2.125-6.398-4.54-13.631-7.811-21.865C83.96 1.676 66.056 1.042 63.953 1.042c-2.014 0-19.907.634-28.53 22.366-3.283 8.223-5.687 15.456-7.823 21.832-2.904 8.712-5.207 15.589-8.256 20.719l-1.235 2.058C14.815 73.469 9.831 81.704 8.028 88.78c-2.626 10.249.734 24.781 9.747 29.232 3.951 1.969 7.611 2.926 11.149 2.926 2.76 0 4.974-.556 6.921-1.046 1.435-.356 2.67-.667 4.017-.69 2.793 0 4.462 1.035 7.01 2.604 3.728 2.292 8.368 5.152 17.081 5.152 8.724 0 13.386-2.849 17.125-5.141 2.582-1.569 4.262-2.615 7.2-2.615 1.213.022 2.448.334 3.883.69 1.947.49 4.162 1.046 6.91 1.046 3.538 0 7.199-.957 11.161-2.926 9.001-4.451 12.373-18.983 9.736-29.232zm-14.155 20.296c-4.584 2.271-7.555 2.07-11.227 1.146-1.781-.445-3.805-.957-6.442-.99-5.598 0-9.135 2.169-12.263 4.072-3.227 1.98-6.02 3.683-11.928 3.683-5.875 0-8.646-1.703-11.851-3.672-3.116-1.914-6.632-4.083-12.496-4.083h-.011c-2.37.033-4.396.545-6.164.99-3.684.924-6.654 1.125-11.25-1.146-3.539-1.747-6.375-10.504-4.495-17.826 1.447-5.642 5.964-13.13 8.957-18.082l1.28-2.125c3.583-6.042 6.03-13.364 9.135-22.644 2.092-6.254 4.462-13.353 7.611-21.32 6.332-15.879 18.75-16.068 19.395-16.068.523 0 12.952.189 19.25 16.068 3.172 7.978 5.542 15.077 7.634 21.342 3.104 9.269 5.552 16.58 9.135 22.622l1.28 2.136c2.993 4.952 7.51 12.429 8.946 18.07 1.892 7.323-.957 16.081-4.496 17.827z"/></svg>