<svg xmlns="http://www.w3.org/2000/svg" width="128" height="128" viewBox="0 0 128 128"><path fill="#FFF" d="M46.455 122.825c-11.415-5.132-17.587-14.116-17.813-14.576a3.825 3.825 0 0 1-.35-2.25c.009-.009 0-.018 0-.026.16-2.179.417-4.145.443-4.729.673-11.521.682-17.755-.195-26.824-1.138-11.813-2.847-20.35-4.25-25.885-.044-.173-.027-.407-.022-.638a3.625 3.625 0 0 1-.004-1.559c.164-.771 4.065-18.934 12.929-28.966 3.365-3.817 13.611-15.427 35.901-13.558 13.279 1.116 28.223 11.751 29.781 29.245 1.267 14.297-3.462 25.106-6.588 32.257-.372.868-.735 1.687-1.062 2.461-6.283 14.949-7.288 19.603-8.962 27.307-2.342 10.773-8.156 19.469-16.392 24.473-.002.001-15.929 6.633-23.416 3.268z"/><path fill="#CC4079" d="M40.73 93.996c3.591 12.823 19.141 10.927 26.717 2.785 1.971-2.117-.695-6.035-3.214-4.171-.509.368-1.235.881-2.108 1.435-5.176 1.426-10.706.885-11.383-5.854-.474-4.857 1.558-8.461 4.273-12.292 2.041-2.891 3.338-6.319 3.17-9.896-.128-2.763-4.064-8.019.775-8.032 1.665-.004 2.865.784 3.967 2.068.748.854.917 2.121 1.763 2.909.912.868 2.183.474 2.842-.54 1.235-1.865.044-4.411-.881-6.128-.987-1.855-2.506-2.975-4.064-4.357-1.452-1.284-3.219-1.625-4.804-2.585-3.795-2.303-1.913-8.405-.5-11.482 2.271-4.941 8.169-8.86 13.606-8.262 6.407.7 11.309 8.196 11.827 14.302.226 2.687 4.339 2.771 4.251 0-.19-6.119-1.275-12.695-5.646-17.286-4.609-4.84-10.888-5.991-16.817-4.663-4.773 1.067-9.307 3.729-12.584 7.359-5.185 5.756-10.011 14.497-9.267 22.524.314 3.378 1.51 5.043 2.874 8.05 2.475 5.433-.013 11.636-2.931 16.352-2.606 4.206-3.159 13.141-1.866 17.764z"/><path fill="#CC4079" d="M105.039 31.896c-1.616-18.3-17.255-29.418-31.136-30.587C50.582-.649 39.866 11.493 36.351 15.486c-9.276 10.499-13.355 29.489-13.527 30.295a3.973 3.973 0 0 0 3.06 4.697 3.965 3.965 0 0 0 4.707-3.059c.036-.178 3.821-17.765 11.698-26.682C47.27 15.092 55.908 7.76 73.229 9.212c10.662.899 22.67 9.4 23.911 23.383 1.142 12.933-3.135 22.714-6.261 29.861-.407.943-.801 1.833-1.156 2.679-6.562 15.617-7.815 20.74-9.812 29.95-1.984 9.121-6.784 16.4-13.514 20.496-5.575 3.392-11.897 4.269-18.304 2.542-9.108-2.462-13.54-11.039-13.576-11.109a3.976 3.976 0 0 0-5.322-1.793 3.962 3.962 0 0 0-1.789 5.313c.239.483 5.991 11.836 18.632 15.25a31.972 31.972 0 0 0 8.355 1.121c5.65 0 11.189-1.537 16.122-4.543 8.616-5.233 14.7-14.323 17.148-25.592 1.75-8.059 2.808-12.925 9.383-28.559.336-.811.708-1.669 1.103-2.573 3.277-7.485 8.218-18.789 6.89-33.742z"/></svg>