<svg xmlns="http://www.w3.org/2000/svg" width="128" height="128" viewBox="0 0 128 128"><path fill="#FFF" d="M14.35 36.26c.67 1.53 3.33 7.78 6.13 13.7-.55.57-2.3 2.5-.95 2.87.48.12 1.02-.35 1.41-.58.59-.36 1.19-.71 1.8-1.04 1.78-.97 3.6-1.81 5.48-2.55 2.04-.8 4.12-1.48 6.22-2.08a46.35 46.35 0 0 1 6.58-1.38c.47-.06 1.81-.26 1.93-.83.06-.29-.13-.52-.42-.69-.54-.33-1.43-.49-1.74-.56-.26-.06-.53-.1-.81-.14-.92-5.26-2.54-18.1-2.53-19.52.01-1.64.62-4.6 3.34-4.8 2.21-.16 4.34.75 4.64 3.95.25 2.71 1.23 17.11 1.32 19.05.07 1.22.26 4.5.29 4.67.43 2.12.74 4.26.95 6.41.09.9.29 1.82.15 2.73-.19 1.23-1.58.98-2.53 1.27-.88.27-1.72.64-2.52 1.1-.52.29-1.95 1.02-1.28 1.84.56.68 1.42.29 2.05-.01 3.66-1.76 5.39.66 9.59-2.21 3.26-2.6 6.32-4.96 6.98-5.38 1.47-.92 4.91-1.67 6.35.5 1.05 1.57 1.29 3.51.05 5.08-.29.38-.64.74-1.12 1.07-.87.59-3.05 2.18-5.53 4.02-1.37 1.02-2.84 2.1-4.25 3.15l-.26.46c-1.14 1.9-2.43 3.74-3.9 5.39-5.56 6.29-13.6 7.26-21.37 4.67-4.44-1.49-6.73-5.01-9.58-8.46-1.19-1.44-2.03-3.13-2.57-4.91-1.64-5.33-3.48-8.6-3.48-8.6-2.56-4.53-7.08-13.29-7.54-14.49-.59-1.53-.88-4.41 1.25-5.63 1.91-1.09 4.74-.65 5.87 1.93z"/><path fill="#FFF" d="M22.97 28.02c.62 1.99 3.48 10.86 5.53 16.88-1.5.62-2.95 1.33-4.31 2.21-.57.36-1.13.74-1.67 1.13-1.48-3.56-6.75-16.29-7.02-17.32-.42-1.59-.19-4.71 1.98-5.47 2.08-.73 4.66-.13 5.49 2.57zM33.53 23.07c.42 2.41 2.98 15.48 3.8 19.77-.32.03-.64.07-.95.1-1.77.15-3.5.48-5.2.98-1.72-5.03-5.25-17.49-5.43-18.91-.22-1.63.26-4.44 2.5-5.17 2.11-.69 4.79.45 5.28 3.23zM63.45 87.2c.41-2.18 1.06-4.33 1.88-6.39l.19-.49c-.1-4.92-.22-10.5-.33-12.12-.03-.54.03-1 .13-1.44.46-2.01 2.16-3.05 4.08-3.18.08-.01.14.02.22.02 2.45.02 3.89 3.01 4.06 4.69.08.79.09 4.65.02 8.82.31 5.07 3.28 4.96 4.13 8.93.15.69.36 1.6 1.25 1.63 1.07.02.76-1.55.68-2.14-.13-.92-.35-1.81-.67-2.67-.36-.93-1.41-1.88-.56-2.78.64-.67 1.49-1.08 2.26-1.56 1.82-1.15 3.71-2.21 5.65-3.17.15-.08 2.87-1.94 3.87-2.62 1.58-1.13 13.56-9.17 15.87-10.63 2.7-1.73 4.74-.6 5.95 1.25 1.51 2.26-.45 4.57-1.74 5.58-1.12.88-12.25 7.46-16.98 9.96a7.82 7.82 0 0 0-.6-.55c-.24-.2-.91-.81-1.51-1.04-.31-.12-.6-.13-.8.09-.39.45.29 1.63.52 2.04 1.15 1.95 2.1 3.93 2.95 6.04.81 2.03 1.55 4.09 2.16 6.18.57 1.94 1.02 3.9 1.34 5.89.11.69.2 1.38.29 2.07.05.44.01 1.16.4 1.47 1.12.84 1.57-1.71 1.69-2.5 6.39-1.41 12.97-3.14 14.59-3.55 2.73-.69 4.8 1.27 5.11 3.46.33 2.43-2.12 3.96-3.69 4.43-1.22.36-10.92 2.16-16.07 2.91 0 0-3.71.54-8.93 2.51-1.74.67-3.58 1.04-5.45.98-4.48-.14-8.66.21-12.56-2.39-6.81-4.53-10.97-11.49-9.4-19.73z"/><path fill="#FFF" d="M118.9 73.97c.8 2.22-1.14 4.32-2.55 5.15-1.25.73-13.33 5.6-18.34 7.31-.64-1.64-1.4-3.25-2.36-4.73-.17-.27-.33-.54-.5-.81 3.9-2 15.8-7.97 17.95-9.11 2.5-1.31 5.05.12 5.8 2.19zM117.95 90.85c-.98.41-14.27 4.05-17.99 5.06-.03-.67-.08-1.35-.14-2.02-.15-1.61-.46-3.2-.89-4.76 6.02-2.07 14.77-5.24 16.73-5.98 2.64-.99 4.7.67 5.4 2.77.73 2.19-1.6 4.29-3.11 4.93z"/><path fill="#D7598B" d="M124.45 93.82c2.71-2.81 3.7-6.5 2.56-9.88-.57-1.68-1.52-3.22-2.75-4.43 1.25-2.48 1.44-5.16.54-7.67-.98-2.71-3.22-4.98-5.89-6.09.15-2.07-.38-4.12-1.55-5.88-.86-1.29-1.9-2.36-3.09-3.18-3.36-2.29-7.72-2.26-11.46.12-2.53 1.62-14.54 9.68-16.1 10.8-.77.52-2.78 1.9-3.3 2.25-1.16.59-2.29 1.2-3.39 1.82 0-2.1-.04-3.4-.09-4.01-.29-2.82-1.96-6.61-5.05-8.72-.43-.3-.89-.56-1.37-.77.88-2.91.45-6.16-1.5-9.08-1.17-1.74-2.86-3.01-4.91-3.68-3.08-.99-7.18-.4-9.98 1.36-.53.33-1.59 1.12-3.23 2.39-.18-1.25-.39-2.47-.62-3.63-.05-.71-.17-2.7-.23-3.78l-.02-.35c-.09-1.98-1.07-16.43-1.34-19.37-.41-4.5-2.94-7.83-6.92-9.12-1.37-.44-2.86-.61-4.41-.5-2.11.16-4.05.98-5.6 2.38-2.5-1.43-5.75-1.8-8.44-.93-2.53.82-4.53 2.62-5.72 5.12-1.71-.23-3.51-.05-5.19.53-3.37 1.18-5.68 4.21-6.25 8.08-1.33.19-2.64.62-3.81 1.29-5.12 2.94-5.65 8.97-3.98 13.32.74 1.92 5.72 11.39 7.93 15.3.02.02 1.56 2.82 2.95 7.36.58 1.9 1.52 3.8 2.79 5.65 2.41 3.53 4.48 6.06 6.71 8.2 4.19 4.01 10.02 6.32 16.01 6.32 3.21 0 6.36-.69 9.1-2.01 2.46-1.19 4.98-2.83 7.07-4.62.66-.56 1.27-1.17 1.86-1.79 1.15-1.21 2.23-2.56 3.28-4.03.06 2.38.12 5.13.16 6.58-1.03 2.76-1.72 5.32-2.1 7.81-.15.98-.24 1.8-.28 2.57-.13 2.74.11 5.73.69 8.42 1.85 8.63 9.75 15.87 18.77 17.2 1.95.29 4 .43 6.29.43 1.43 0 2.88-.05 4.3-.14 2.23-.13 4.31-.56 6.18-1.26 4.43-1.68 7.6-2.17 7.63-2.18 4.48-.65 15.04-2.53 16.95-3.11 4.47-1.35 8.91-5.46 8.09-11.3-.18-1.31-.62-2.62-1.29-3.79zM14.35 36.26c.67 1.53 3.33 7.78 6.13 13.7-.55.57-2.3 2.5-.95 2.87.48.12 1.02-.35 1.41-.58.59-.36 1.19-.71 1.8-1.04 1.78-.97 3.6-1.81 5.48-2.55 2.04-.8 4.12-1.48 6.22-2.08a46.35 46.35 0 0 1 6.58-1.38c.47-.06 1.81-.26 1.93-.83.06-.29-.13-.52-.42-.69-.54-.33-1.43-.49-1.74-.56-.26-.06-.53-.1-.81-.14-.92-5.26-2.54-18.1-2.53-19.52.01-1.64.62-4.6 3.34-4.8 2.21-.16 4.34.75 4.64 3.95.25 2.71 1.23 17.11 1.32 19.05.07 1.22.26 4.5.29 4.67.43 2.12.74 4.26.95 6.41.09.9.29 1.82.15 2.73-.19 1.23-1.58.98-2.53 1.27-.88.27-1.72.64-2.52 1.1-.52.29-1.95 1.02-1.28 1.84.56.68 1.42.29 2.05-.01 3.66-1.76 5.39.66 9.59-2.21 3.26-2.6 6.32-4.96 6.98-5.38 1.47-.92 4.91-1.67 6.35.5 1.05 1.57 1.29 3.51.05 5.08-.29.38-.64.74-1.12 1.07-.87.59-3.05 2.18-5.53 4.02-1.37 1.02-2.84 2.1-4.25 3.15l-.26.46c-1.14 1.9-2.43 3.74-3.9 5.39-5.56 6.29-13.6 7.26-21.37 4.67-4.44-1.49-6.73-5.01-9.58-8.46-1.19-1.44-2.03-3.13-2.57-4.91-1.64-5.33-3.48-8.6-3.48-8.6-2.56-4.53-7.08-13.29-7.54-14.49-.59-1.53-.88-4.41 1.25-5.63 1.91-1.09 4.74-.65 5.87 1.93zm8.62-8.24c.62 1.99 3.48 10.86 5.53 16.88-1.5.62-2.95 1.33-4.31 2.21-.57.36-1.13.74-1.67 1.13-1.48-3.56-6.75-16.29-7.02-17.32-.42-1.59-.19-4.71 1.98-5.47 2.08-.73 4.66-.13 5.49 2.57zm10.56-4.95c.42 2.41 2.98 15.48 3.8 19.77-.32.03-.64.07-.95.1-1.77.15-3.5.48-5.2.98-1.72-5.03-5.25-17.49-5.43-18.91-.22-1.63.26-4.44 2.5-5.17 2.11-.69 4.79.45 5.28 3.23zM63.45 87.2c.41-2.18 1.06-4.33 1.88-6.39l.19-.49c-.1-4.92-.22-10.5-.33-12.12-.03-.54.03-1 .13-1.44.46-2.01 2.16-3.05 4.08-3.18.08-.01.14.02.22.02 2.45.02 3.89 3.01 4.06 4.69.08.79.09 4.65.02 8.82.31 5.07 3.28 4.96 4.13 8.93.15.69.36 1.6 1.25 1.63 1.07.02.76-1.55.68-2.14-.13-.92-.35-1.81-.67-2.67-.36-.93-1.41-1.88-.56-2.78.64-.67 1.49-1.08 2.26-1.56 1.82-1.15 3.71-2.21 5.65-3.17.15-.08 2.87-1.94 3.87-2.62 1.58-1.13 13.56-9.17 15.87-10.63 2.7-1.73 4.74-.6 5.95 1.25 1.51 2.26-.45 4.57-1.74 5.58-1.12.88-12.25 7.46-16.98 9.96a7.82 7.82 0 0 0-.6-.55c-.24-.2-.91-.81-1.51-1.04-.31-.12-.6-.13-.8.09-.39.45.29 1.63.52 2.04 1.15 1.95 2.1 3.93 2.95 6.04.81 2.03 1.55 4.09 2.16 6.18.57 1.94 1.02 3.9 1.34 5.89.11.69.2 1.38.29 2.07.05.44.01 1.16.4 1.47 1.12.84 1.57-1.71 1.69-2.5 6.39-1.41 12.97-3.14 14.59-3.55 2.73-.69 4.8 1.27 5.11 3.46.33 2.43-2.12 3.96-3.69 4.43-1.22.36-10.92 2.16-16.07 2.91 0 0-3.71.54-8.93 2.51-1.74.67-3.58 1.04-5.45.98-4.48-.14-8.66.21-12.56-2.39-6.81-4.53-10.97-11.49-9.4-19.73zm55.45-13.23c.8 2.22-1.14 4.32-2.55 5.15-1.25.73-13.33 5.6-18.34 7.31-.64-1.64-1.4-3.25-2.36-4.73-.17-.27-.33-.54-.5-.81 3.9-2 15.8-7.97 17.95-9.11 2.5-1.31 5.05.12 5.8 2.19zm-.95 16.88c-.98.41-14.27 4.05-17.99 5.06-.03-.67-.08-1.35-.14-2.02-.15-1.61-.46-3.2-.89-4.76 6.02-2.07 14.77-5.24 16.73-5.98 2.64-.99 4.7.67 5.4 2.77.73 2.19-1.6 4.29-3.11 4.93z"/></svg>