<svg xmlns="http://www.w3.org/2000/svg" width="128" height="128" viewBox="0 0 128 128"><path fill="#006CA2" d="M127.12 59.6c-.21-3.16-.49-6.35-1.04-9.41-1.58-9-7.61-18.28-17.19-20.2-6.2-1.24-10.94 2.45-16.61 3.78-.18.04-1.64-1.44-1.88-1.62-.71-.54-1.46-1.03-2.24-1.47-1.61-.93-3.34-1.65-5.11-2.22-3.62-1.15-7.49-1.63-11.28-1.35-3.07.22-6.19.96-8.85 2.55-1.21.73-2.32 1.64-3.22 2.74-1.19 1.45-1.6 3.05-2.24 4.79-1.49 4.05-5.45 7.08-8.29 10.21-3.32 3.67-6.72 7.27-10.42 10.56-7.19 6.39-16.05 10.27-23.56 16.19C6.67 80.87-1.39 92.8.89 104.22c1.07 5.39 5.97 9.31 10.89 11.25 15.38 6.07 30.93 5.97 47.02 2.69 8.41-1.72 16.55-4.42 24.65-7.25 7.73-2.7 15.59-5.02 23.21-8.04 6.55-2.59 20.82-7.34 20.79-16.22-.04-9.05.3-18.01-.33-27.05z"/><path fill="#FFF" d="M112.25 45.8c1.06-1.03 2.07-2.29 2.69-3.64.2-.43.21-.96.26-1.45.04-.36.1-.71.26-.98.13-.21 2.49 2.84 2.71 3.2 1.88 3.13 2.12 6.73 2.28 10.29.1 2.3-1.09 2.02-2.91 1.85-1.46-.13-2.94-.16-4.41-.22-1.16-.05-2.32-.36-2.99-1.37-.61-.91-.61-2.07-1.04-3.03-1.06-2.29 1.73-3.28 3.15-4.65z"/><path fill="#40C0E7" d="M64.32 36.86c5.28-6.3 19.79-3.5 24.17 2.74.97 1.38 1.38 3.35 1.08 5-.37 1.98-1.76 2.67-3.39 3.52-.67.35-1.94 1.45-2.74 1.24-.88-.24-1.26-1.67-1.89-2.26-4.24-3.99-10.63-5.25-16.27-5.26-.75 0-1.52.23-2.25.14-.31-.04-.5-.2-.57-.45-.39-1.16 1.41-4.14 1.86-4.67z"/><path fill="#FFF" d="M56.83 47.57c.34-.53.76-.96 1.26-1.33.3-.22.65-.38 1.02-.49 4.15-1.2 9.11.36 13.13 1.5 2.59.73 10.46 3.23 7.69 7.38-.72 1.07-2.17 1.79-3.45 1.72-1.83-.1-3.16-1.48-4.71-2.29-1.75-.91-3.46-1.76-5.34-2.4a56.29 56.29 0 0 0-4.63-1.42c-1.36-.35-2.56-.29-3.94-.45-.35-.04-.64.04-.97-.13-.73-.41-.41-1.53-.06-2.09zM49.39 54.42c1.07-1.33 2.57-1.63 4.14-1.7.56-.03 1.14-.02 1.71-.02 3.44 0 6.85.79 9.95 2.3 2.07 1 4.34 2.04 5.83 3.84.87 1.05 1.76 2.08 1.35 3.54-1.33 4.67-7.24-.64-9.14-1.65-1.65-.86-3.67-1.9-5.44-2.43-.9-.27-1.84-.33-2.73-.58-1.71-.47-3.34-.58-5.06-.84-1.48-.21-1.37-1.51-.61-2.46zM41.68 61.76c.78-1.33 2.61-1.69 4.01-1.85h.08c2.92-.3 6.25.65 9.04 1.47.97.29 2.1.57 3.03.97 2.02.87 4.27 2.07 5.77 3.68 2.28 2.44-.42 4.36-3.2 4.1-.48-.04-.85-.25-1.3-.39-.68-.21-1.39-.26-2.08-.44-2.01-.56-3.86-1.41-5.67-2.41-.92-.51-1.88-.83-2.87-1.22-1.18-.48-2.32-.82-3.53-1.25-.94-.34-2.47-.29-3.27-.94-.46-.41-.31-1.22-.01-1.72zM15.81 82.08c1.84-1.79 3.85-3.4 5.91-4.92 2.42-1.77 4.92-3.41 7.44-5.04 1.28-.82 2.54-1.65 3.83-2.46.86-.54 1.79-.87 2.76-1.04 3.15-.57 6.72.52 9.53 1.61 2.14.84 4.19 1.89 6.23 2.94 3.74 1.94 3.36 5.39 3.69 9.16.24 2.74.37 5.5.37 8.25 0 1.38-.03 2.76-.1 4.13-.1 2.06-.77 3.65-2.98 4.1-1.2.24-2.43.42-3.64.6-2.4.36-4.8.63-7.23.83-5.45.45-11.08.2-16.48-.74-3.44-.6-7-1.51-9.99-3.38-2.2-1.37-4.2-3.71-4.14-6.43.06-3.27 2.62-5.49 4.8-7.61z"/><path fill="#FFF" d="M118.81 88.37c-4.51 3.56-10.12 5.12-15.36 7.26-5.8 2.37-11.46 4.87-17.45 6.8-6.45 2.08-12.95 4.04-19.37 6.21-9.43 3.18-19.51 4.99-29.46 4.68-5.51-.17-10.98-.98-16.38-2.14-3.43-.74-6.9-1.99-9.64-4.24-1.79-1.47-3.32-3.46-4-5.69-.34-1.14-.4-2.32-.17-3.48.44-2.26 1.56-1.72 2.51-.14 1.15 1.92 2.86 3.15 4.75 4.27 2.09 1.22 4.36 2.09 6.68 2.76 1.73.51 3.5.9 5.28 1.22 5.99 1.08 12.1.95 18.14.39 11.36-1.05 22.24-4.78 32.74-9.04 3.17-1.28 6.3-2.62 9.45-3.96 5.42-2.31 10.74-4.83 16.12-7.25 4.97-2.24 10.37-3.85 15.14-6.48.62-.34 1.18-.99 1.67-.33.65.86.22 3.49.18 4.69v.14c-.01 1.31.33 3.42-.83 4.33z"/><path fill="#40C0E7" d="M120.95 68.43c-.17 1.93-1.38 2.91-2.98 3.91-1.94 1.2-3.77 2.51-5.82 3.51-4.03 1.97-8.21 3.71-12.33 5.5-5.3 2.31-10.69 4.44-16.11 6.42-2.5.91-20.04 10.06-21.58 6.76-.32-.71-.19-2.25-.18-3.03.01-1.05.24-2.14.1-3.19-.22-1.79-.36-3.62-.75-5.38-.25-1.13-.48-2.26-.88-3.35-.43-1.19-.84-2.77.47-3.58.48-.3 1.28-.43 1.84-.5.8-.1 1.55-.2 2.32-.5 2.26-.87 3.63-2.48 4.11-4.85.22-1.11 1.43-.85 2.27-.88.52-.02.88-.3 1.34-.47 1.36-.5 2.66-1.2 3.59-2.33.48-.57.8-1.18 1.04-1.88.31-.85 0-1.74.3-2.55.4-1.12 2.82-.97 3.72-1.42 1.34-.67 2.49-1.8 3.02-3.2.47-1.24-.01-3.12 1.21-3.98.48-.34 1.29-.36 1.85-.56 1.25-.44 2.57-1.5 3.94-1.22 1.42.29 2.62.89 4.12.93 1.52.04 3.04-.19 4.52-.56 1.14-.28 2.15-.9 3.29-1.18 1.8-.44 1.79 2.18 1.81 3.37.03 1.89 1.15 3.6 2.87 4.44 3.88 1.88 9.12.24 12.76 2.36.1 2.47.35 4.96.14 7.41z"/></svg>