<svg xmlns="http://www.w3.org/2000/svg" width="128" height="128" viewBox="0 0 128 128"><path fill="#FBB817" d="M92.909 104.419c-12.541 12.542-45.991 8.68-70.218-15.546C-1.533 64.648-4.19 34.331 8.587 21.546c12.784-12.788 37.483-.24 58.827 31.183 18.884 27.797 38.033 39.149 25.495 51.69z"/><path fill="#FBB817" d="M75.04 82.122c-5.975 5.968-19.809.66-31.612-11.151-11.815-11.804-17.12-25.637-11.145-31.613 5.972-5.975 27.42-19.071 44.623-1.869 17.202 17.203 4.109 38.651-1.866 44.633z"/><path fill="#CC4079" d="M51.886 62.515C42.041 52.67 36.562 41.616 38.657 34.55c-2.779 1.675-4.999 3.433-6.375 4.808-5.975 5.976-.67 19.809 11.145 31.613C55.231 82.782 69.064 88.09 75.04 82.122c1.375-1.383 3.133-3.599 4.808-6.378-7.063 2.091-18.124-3.39-27.962-13.229zM120.551 76.296c2.411-2.811 3.356-5.68 3.231-9.06-2.696 3.773-5.663 6.107-9.084 7.208-4.332 1.391-9.592-2.011-13.711-3.04-4.982-1.244-12.187-1.039-17.238 2.534-.59.983-2.696 6.082-6.642 9.472 2.62-.616 8.185-2.155 9.873-2.445 6.649-1.141 9.775-.24 14.896.889 4.175.919 8.352 2.727 12.822 2.373 4.339-.346 10.078-2.891 12.259-10.686-2.042 2.207-4.328 2.586-6.406 2.755z"/></svg>