<svg xmlns="http://www.w3.org/2000/svg" width="128" height="128" viewBox="0 0 128 128"><path fill="#FFF" d="M124.08 27.85c-2.92-3.15-8.21-4.98-12.03-6.74-10.06-4.63-20.47-8.54-31.2-11.28-10.87-2.78-22.82-2.78-33.69 0-10.73 2.75-21.14 6.65-31.2 11.28-3.82 1.76-9.12 3.59-12.03 6.74-.77.84-1.01 2.57-.98 3.68.15 5.5 1.82 10.92 4.14 15.87 2.13 4.57 5.02 9.82 9.14 12.91 1.51 1.13 3.25-.17 4.62-.87 1.98-1 4.71-2.28 6.96-2.41 2.02-.11.78 10.87.67 12.32-.62 8.83-1.85 17.63-2.39 26.46-.24 3.93-.37 7.94-.5 11.88-.03.82.43 1.65.84 2.34 3.24 5.51 9.56 7.3 15.46 8.32 14.57 2.53 29.68 2.53 44.25 0 5.9-1.03 12.22-2.81 15.46-8.32.41-.69.87-1.52.84-2.34-.13-3.93-.26-7.95-.5-11.88-.54-8.83-1.77-17.63-2.39-26.46-.1-1.45-1.34-12.43.67-12.32 2.25.13 4.98 1.41 6.96 2.41 1.37.69 3.11 2 4.62.87 4.11-3.09 7-8.34 9.14-12.91 2.32-4.95 3.99-10.37 4.14-15.87.01-1.11-.22-2.84-1-3.68z"/><path fill="#78A3AD" d="M64 122.9c-7.58 0-15.17-.65-22.58-1.93-6.42-1.12-13.5-3.13-17.29-9.59-.61-1.04-1.25-2.27-1.2-3.77.12-3.72.26-7.93.5-11.95.29-4.74.78-9.52 1.26-14.15.41-4.04.84-8.23 1.13-12.33l.07-.84c.41-4.58.44-7.03.36-8.33-1.62.49-3.43 1.4-4.24 1.81l-.55.29c-.99.55-2.36 1.31-3.95 1.31-1.05 0-2.06-.34-2.91-.98-4.7-3.53-7.78-9.29-9.94-13.91C1.9 42.63.42 36.94.27 31.61c-.02-.85.03-3.76 1.69-5.55 2.73-2.95 6.88-4.75 10.56-6.33.81-.35 1.59-.69 2.31-1.02C25.84 13.64 36.2 9.9 46.5 7.26c11.25-2.88 23.75-2.88 35 0 10.3 2.64 20.66 6.38 31.65 11.44.73.33 1.51.67 2.32 1.02 3.67 1.58 7.83 3.38 10.55 6.33 1.66 1.8 1.71 4.71 1.68 5.55-.14 5.33-1.62 11.02-4.39 16.92-2.16 4.62-5.25 10.37-9.95 13.9-.84.64-1.85.98-2.9.98-1.59 0-2.95-.75-3.95-1.31-.19-.1-.38-.21-.55-.3-.8-.4-2.57-1.3-4.23-1.79-.08 1.3-.06 3.74.36 8.31l.07.84c.29 4.1.72 8.28 1.13 12.33.48 4.63.97 9.41 1.26 14.15.24 4.02.38 8.24.5 11.95.05 1.5-.59 2.74-1.2 3.77-3.79 6.46-10.87 8.47-17.29 9.59-7.39 1.31-14.98 1.96-22.56 1.96zM27.67 54.39c1.08 0 1.91.38 2.53 1.06 1.29 1.41 1.83 3.96.98 13.35l-.06.74c-.29 4.18-.73 8.41-1.15 12.5-.48 4.58-.96 9.3-1.24 13.94-.24 3.95-.38 8.12-.5 11.81.03.15.37.72.48.91 2.69 4.58 8.14 6.1 13.63 7.05 14.2 2.46 29.13 2.46 43.34 0 5.49-.95 10.94-2.47 13.63-7.05.11-.19.45-.76.48-.98-.12-3.62-.26-7.8-.5-11.74-.28-4.64-.77-9.36-1.24-13.94-.42-4.09-.86-8.31-1.15-12.5l-.06-.74c-.85-9.39-.31-11.94.98-13.35a3.18 3.18 0 0 1 2.38-1.06c2.85.16 5.73 1.45 8.18 2.69.24.12.48.25.72.39.36.2.94.52 1.27.62 3.73-2.88 6.45-8.11 8.18-11.8 2.45-5.24 3.76-10.23 3.89-14.82.02-.8-.18-1.64-.32-1.86-1.92-2.08-5.54-3.63-8.72-5.01-.85-.37-1.67-.72-2.43-1.08-10.7-4.92-20.76-8.56-30.75-11.12-10.39-2.66-21.99-2.66-32.38 0-9.99 2.56-20.05 6.2-30.76 11.12-.76.35-1.58.71-2.43 1.08-3.19 1.37-6.8 2.93-8.76 5.06-.1.17-.3 1.01-.29 1.81.13 4.6 1.44 9.58 3.89 14.82 1.73 3.7 4.45 8.93 8.18 11.8.32-.09.9-.41 1.26-.62.24-.13.48-.27.72-.38 2.47-1.25 5.35-2.54 8.01-2.7h.01z"/><path fill="#78A3AD" d="M83.24 20.89c0 3.47-8.81 6.29-19.68 6.29s-19.68-2.81-19.68-6.29 8.81-6.29 19.68-6.29 19.68 2.82 19.68 6.29z"/></svg>