<svg xmlns="http://www.w3.org/2000/svg" width="128" height="128" viewBox="0 0 128 128"><g fill="#FCC21B"><path d="M122.63 79.61c-1.52-2.17-4.88-1.19-6.84-6.81-2.37-6.76-5.92-16.06-8.95-20.01-5.55-7.25-10.07-4.84-10.07-8.03 0-.73 1.4-1.48 3.24-2.59 3.98 4.71 15.42 3.5 10.91-1.01-3.43-3.43-.97-7.8-2.12-15.55l-.01.01c-1.25-8.79-7.89-13.98-16.18-13.98-8.28 0-14.92 5.19-16.18 13.98v-.01c-1.15 7.75 1.32 12.12-2.12 15.55-4.51 4.51 6.94 5.72 10.92 1.01 1.84 1.1 3.24 1.86 3.24 2.59 0 3.19-4.53.78-10.08 8.03-3.03 3.96-6.58 13.25-8.95 20.01-1.97 5.62-5.33 4.63-6.84 6.81-3.73 5.37 3.49 9.94 6.96 6.3 3.47-3.65 5.88-8.81 7.6-14.28 1.71-5.47 2.8-8.75 3.99-8.75 2.29 0 .98 6.53-1.59 12.39-1.88 4.28-4.95 7.75-5.14 10.36-.33 4.6 7.11 4.71 8.03 6.41 1.23 2.3 3.76 17.49 1.26 19.63-1.47 1.26-3.46 2.33-3.81 4.54-.67 4.36 3.21 5.83 7.7 4.53 4.18-1.21 4.04-3.71 3.71-10.24s-1.4-16.63 1.3-16.63c2.71 0 1.62 10.09 1.31 16.63-.32 6.53-.46 9.03 3.71 10.24 4.49 1.31 8.37-.17 7.7-4.53-.35-2.21-2.34-3.27-3.81-4.54-2.5-2.14.03-17.33 1.26-19.63.92-1.7 8.36-1.81 8.03-6.41-.19-2.6-3.25-6.08-5.14-10.36-2.57-5.86-3.88-12.39-1.59-12.39 1.19 0 2.28 3.28 3.99 8.75 1.71 5.47 4.13 10.63 7.6 14.28 3.47 3.64 10.69-.93 6.96-6.3z"/><path d="M65.39 79.61c-1.52-2.17-4.87-1.19-6.84-6.81-2.36-6.76-5.92-16.06-8.95-20.01-5.55-7.25-10.07-4.84-10.07-8.03 0-.73 1.4-1.48 3.24-2.59 3.99 4.71 15.43 3.5 10.92-1.01-3.43-3.43-.97-7.8-2.12-15.55l-.01.01c-1.26-8.79-7.9-13.98-16.18-13.98s-14.92 5.19-16.17 13.98l-.01-.01c-1.14 7.75 1.32 12.12-2.11 15.55-4.51 4.51 6.93 5.72 10.91 1.01 1.84 1.1 3.25 1.86 3.25 2.59 0 3.19-4.52.78-10.07 8.03-3.03 3.96-6.59 13.25-8.96 20.01-1.97 5.62-5.33 4.63-6.85 6.81-3.72 5.37 3.49 9.94 6.97 6.3 3.46-3.65 5.88-8.81 7.59-14.28 1.72-5.47 2.8-8.75 4-8.75 2.29 0 .97 6.53-1.6 12.39-1.88 4.28-4.94 7.75-5.13 10.36-.33 4.6 7.11 4.71 8.03 6.41 1.24 2.3 3.75 17.49 1.26 19.63-1.47 1.26-3.47 2.33-3.81 4.54-.67 4.36 3.2 5.83 7.69 4.53 4.18-1.21 4.04-3.71 3.71-10.24-.32-6.53-1.4-16.63 1.3-16.63s1.62 10.09 1.3 16.63c-.32 6.53-.46 9.03 3.72 10.24 4.49 1.31 8.37-.17 7.69-4.53-.34-2.21-2.33-3.27-3.81-4.54-2.49-2.14.02-17.33 1.26-19.63.92-1.7 8.36-1.81 8.03-6.41-.19-2.6-3.26-6.08-5.13-10.36-2.57-5.86-3.89-12.39-1.59-12.39 1.18 0 2.28 3.28 3.99 8.75 1.71 5.47 4.13 10.63 7.6 14.28 3.46 3.64 10.69-.93 6.95-6.3z"/></g></svg>