<svg xmlns="http://www.w3.org/2000/svg" width="128" height="128" viewBox="0 0 128 128"><path fill="#855C52" d="M127.09 60.65c-.11-2.56-.16-5.61-.54-8.61-1.8-14.49-16.15-16.84-28.02-12.39-3.6 1.35-7.6 3.16-10.71 5.45-3.93 2.88-7.56 6.14-11.28 9.26-1.83 1.53-3.69 3.03-5.62 4.43-3.77 2.72-5.15 4.38-9.21 1.24-5.02-3.89-9.97-9.93-16.52-11.25-1.42-.29-2.9-.19-4.31.06-2.89.54-5.61 1.81-8.21 3.15-8.63 4.46-18.56 9.46-22.5 19.01-.86 2.1-1.44 4.39-1.69 6.65-.32 3.04.57 4.96-1.3 7.81-1.66 2.51-3.93 4.48-5.11 7.32-2 4.78-1.53 11.34 1.36 15.66 6.93 10.41 22.09 12.4 33.45 11.86 7.13-.33 14.24-1.63 21.08-3.65 11.15-3.29 20.59-9.76 28.11-18.56 2.43-2.85 4.3-6.15 6.37-9.26 1.65-2.49 3.48-4.4 5.47-6.05.06 1.45.17 2.89.19 4.27.06 3.65 3.9 3.82 6.62 3.67 5.6-.29 11.24-2.06 15.75-5.44 5.72-4.28 6.21-9.68 6.52-16.37.12-2.63.22-5.45.1-8.26z"/><path fill="#FCC21B" d="M37.79 108.39c-.53.32-1.21.54-2.05.65-1.85.23-3.75.22-5.65.19-9.26-.19-24.93-.54-22.68-13.76.96-5.63 6.03-8.99 10.48-11.96 2.11-1.42 4.45-2.42 6.76-3.47 11.01-4.95 12.73 14.94 14.45 21.06.78 2.82.98 5.92-1.31 7.29zM118.31 54.3c-1.15 4.53-5.75 7-9.38 9.31-.48.3-.97.62-1.45.92-5.65 3.6-11.43 7.24-16.56 11.51-.54.45-1.08 1.15-1.79 1.31-.68.16-1.66-.08-2.32-.24-1.72-.4-3.28-1.25-4.88-1.96-2.37-1.03-4.64-2.28-6.82-3.67-1.11-.7-2.17-1.48-3.26-2.21-.67-.43-1.98-.91-2.32-1.7-.48-1.12.8-1.61 1.59-1.96 1.24-.54 2.39-1.25 3.53-1.98 2.69-1.73 5.15-3.79 7.6-5.85 3.71-3.13 6.79-6.21 11.03-8.82 4.91-3.02 10.78-4.59 16.53-3.86 4.54.57 9.91 3.61 8.5 9.2z"/><path fill="#BDCF46" d="M77.68 90.41c-.37.34-.7.64-.93.88-3.82 3.9-7.82 7.68-12.37 10.7-3.74 2.49-9.79 6.3-14.44 4.55-1.72-.65-1.24-3.03-1.51-4.5-.38-2.1-.85-4.19-1.42-6.25-1.17-4.18-2.74-8.24-4.61-12.16-2.07-4.35-4.18-8.75-7.13-12.58-1.42-1.85-3.05-3.55-4.9-4.98-.95-.73-1.97-1.43-3.04-1.98-.73-.38-1.12-.68-.53-1.61.46-.71 1.54-1.06 2.27-1.47 2.3-1.28 4.67-2.44 7.06-3.55 2.04-.94 4.66-2.31 6.92-2.47 2.47-.17 5.49 2.53 7.13 4.11 5.05 4.86 10.18 9.75 15.6 14.2 3.16 2.59 6.52 4.96 10.12 6.9 1.49.8 2.9 1.24 4.46 1.77 4.69 1.59-.17 6.1-2.68 8.44z"/></svg>