<svg xmlns="http://www.w3.org/2000/svg" width="128" height="128" viewBox="0 0 128 128"><path fill="#724941" d="M105.674 57.92c4.238-.892 8.449-.116 11.513 3.098 1.417 1.48 2.611 3.407 3.455 5.269.732 1.616 1.305 5.112 3.1 5.968.824.39 2.241.145 2.837.894 1.632 2.053-2.984 5.864-4.234 6.624-8.222 5.04-21.454 4.938-26.337-4.76-3.702-7.369 1.846-15.454 9.666-17.093z"/><path fill="#CC4079" d="M120.49 46.114c.374 2.205.485 4.344-1.202 6.069-2.714 2.773-7.53 3.267-10.964 4.716-.697.294-1.345.688-2.01 1.035a15.784 15.784 0 0 1-4.341 1.488c-2.424.452-5.106-1.934-5.576-4.262-.33-1.655.187-3.359.8-4.931 1.333-3.419 3.18-6.684 5.763-9.289 2.567-2.585 7.287-6.369 11.051-4.021 1.437.897 2.778 2.183 3.789 3.523 1.254 1.671 2.332 3.589 2.69 5.672z"/><path fill="#CC4079" d="M115.826 64.991c-.056 1.669.665 6.736-2.256 5.569-.721-.288-1.293-.837-1.859-1.362-3.012-2.802-6.435-5.092-9.877-7.325-2.706-1.759-12.297-5.872-6.61-10.007.748-.543 1.671-.778 2.583-.938 3.176-.559 6.471-.33 9.559.578 5.596 1.641 11.21 3.687 15.68 7.42 4.242 3.542-7.195 2.839-7.188 3.247.008.94 0 1.879-.032 2.818z"/><g><path fill="#724941" d="M22.32 57.92c-4.234-.892-8.445-.116-11.509 3.098-1.417 1.48-2.615 3.407-3.455 5.269-.732 1.616-1.305 5.112-3.1 5.968-.824.39-2.24.145-2.837.894-1.627 2.053 2.985 5.864 4.234 6.624 8.222 5.04 21.454 4.938 26.337-4.76 3.702-7.369-1.845-15.454-9.67-17.093z"/><path fill="#CC4079" d="M7.508 46.114c-.374 2.205-.485 4.344 1.202 6.069 2.714 2.773 7.529 3.267 10.964 4.716.696.294 1.341.688 2.009 1.035a15.79 15.79 0 0 0 4.342 1.488c2.419.452 5.106-1.934 5.575-4.262.331-1.655-.187-3.359-.803-4.931-1.333-3.419-3.176-6.684-5.763-9.289-2.563-2.585-7.283-6.369-11.047-4.021-1.441.897-2.778 2.183-3.789 3.523-1.257 1.671-2.34 3.589-2.69 5.672z"/><path fill="#CC4079" d="M12.172 64.991c.056 1.669-.665 6.736 2.257 5.569.716-.288 1.293-.837 1.858-1.362 3.013-2.802 6.432-5.092 9.878-7.325 2.706-1.759 12.297-5.872 6.61-10.007-.744-.543-1.671-.778-2.583-.938-3.179-.559-6.471-.33-9.559.578-5.591 1.641-11.214 3.687-15.679 7.42-4.242 3.542 7.191 2.839 7.187 3.247-.008.94 0 1.879.031 2.818z"/></g><g><path fill="#FBB817" d="M29.452 45.583C41.216 22.7 65.619 15.333 87.228 28.666c14.45 8.926 19.735 30.535 13.866 56.113-2.412 10.554 4.031 12.241 3.693 17.82-.657 10.94-17.598 20.146-39.646 20.472-22.046.327-39.466-8.341-40.202-19.277-1.496-22.031-4.262-41.245 3.255-55.862l1.258-2.349"/><path fill="#724941" d="M31.155 17.126a40.29 40.29 0 0 0-3.765 4.085c-4.155 5.201-6.304 10.829-7.466 17.421-.652 3.733-.542 7.565.144 11.286.561 3.061 1.257 5.894 2.944 8.541.701 1.092 1.174 2.157 2.464 1.146 1.209-.947 1.981-2.503 2.845-3.743 1.763-2.529 3.833-4.758 6.22-6.65.609-.486 1.333-.971 2.085-.822.494.099.899.455 1.278.804 1.09 1.004 2.643 2.549 4.291 2.212 2.125-.436 4.266-2.127 6.145-3.16.525-.287 1.094-.585 1.687-.511 1.218.147 2.723 1.52 3.881 2.038 1.866.833 3.08 1.448 5.074.641 1.914-.774 3.462-2.251 5.516-2.7 1.576-.347 2.722.358 4.06 1.066 1.217.645 2.793 1.598 4.17 1.759 1.708.195 3.287-.511 4.843-1.118 1.31-.513 2.571-1.51 4.016-1.669 2.045-.223 3.279 1.495 4.784 2.663.7.543 1.452 1.081 2.316 1.19 1.122.141 2.197-.462 3.184-1.047 1.357-.802 2.865-2.33 4.458-1.638.748.327 1.345.959 1.838 1.634 1.942 2.625 2.698 5.778 4.441 8.467.478.736.979.74 1.664.368 1.639-.892 2.559-4.328 3.096-6.035 1.123-3.568 1.584-8.062 1.473-11.833-.239-8.303-3.589-16.553-9.026-22.57C91.586 9.846 75.592 4.688 63.438 4.929c-6.093.123-13.626 1.142-19.202 3.723-3.092 1.435-5.886 2.73-8.704 4.821a47.159 47.159 0 0 0-4.377 3.653z"/></g><g fill="#2F2F2F"><path d="M52.251 62.759c0 3.755-2.511 6.797-5.624 6.797-3.112 0-5.635-3.042-5.635-6.797 0-3.761 2.523-6.803 5.635-6.803 3.113 0 5.624 3.042 5.624 6.803M74.219 62.759c0 3.755 2.512 6.797 5.631 6.797 3.108 0 5.635-3.042 5.635-6.797 0-3.761-2.527-6.803-5.635-6.803-3.12 0-5.631 3.042-5.631 6.803M65.014 85.55c-.478 0-.971-.018-1.473-.042-11.74-.703-16.197-7.07-16.38-7.342a2.105 2.105 0 0 1 .557-2.919 2.1 2.1 0 0 1 2.901.545c.171.237 3.657 4.957 13.176 5.518 9.492.545 13.627-5.651 13.679-5.71.613-.973 1.93-1.254 2.897-.623a2.096 2.096 0 0 1 .617 2.901c-.207.328-5.086 7.672-15.974 7.672z"/></g></svg>