<svg xmlns="http://www.w3.org/2000/svg" width="128" height="128" viewBox="0 0 128 128"><path fill="#FCC21B" d="M127.71 99.22c-.07-.63-.43-1.18-.68-1.76-.47-1.08-.53-2.29-.96-3.39-.47-1.19-1.14-2.31-1.9-3.36-.7-.96-3.12-3.89-5.55-5.59-.05-.04-.1-.07-.15-.1-.16-.23-.48-.4-.65-.62-.03-.03-.01-.08-.03-.11.32-.17.63-.34.95-.55.42-.3.84-.64 1.23-1 4.92-4.67 4.04-12.53-1.74-15.99-1.58-.94-3.38-1.45-5.2-1.51-.11 0-.22.01-.32.01-.11 0-.22-.01-.33-.01-1.81.06-3.62.57-5.19 1.51-5.77 3.46-6.66 11.32-1.74 15.99.38.36.79.7 1.23 1 .33.23.67.41 1.01.59-.08.17-.2.32-.35.44-.12.1-.24.19-.35.28-.03.02-.05.05-.11.11-1 .81-1.83 1.9-2.41 3-.19.23-.34.52-.47.77-.12-.13-.22-.28-.38-.39-.89-.66-2.21-.46-3.18-.14-1.2.39-2.32 1.01-2.42 2.39-.03.44.05.86.19 1.26-.11.08-.2.17-.23.29-.03.1.03.2.11.29.1.11.24.21.32.31.37.43.66.91.98 1.37 1.21 1.68 2.53 3.37 4.81 3.15.51-.05.79-.19 1.11-.55.35-.4.7-.78.98-1.23.09-.17.16-.34.23-.51-.11.8-.25 1.61-.4 2.39-.23 1.27-.57 2.54-.56 3.84.01 1.37.4 2.71.57 4.06.02.18.05.36.06.55.25 2.12.32 4.27.31 6.41 0 .7-.05 1.52-.43 2.26-.46.9-1.32 1.17-1.99 1.83-.49.49-.73 1.23-.52 1.86.66 1.94 3.52 2.37 5.31 2.01 2.81-.56 3.05-3.19 3.16-5.47.09-1.9-.03-1.02-.1-2.69-.07-1.85-.2-3.75-.14-5.59.01-.34 0-.68 0-1.02 0-.51-.03-1.01.32-1.42.09-.08.18-.15.29-.18.29-.08.52.02.72.18.36.41.32.91.32 1.42 0 3 .14 3.42-.02 6.42-.11 2.04-.84 4.11.21 6.38.51 1.08 1.44 1.75 2.61 1.97 1.82.36 4.75-.07 5.43-2.01.21-.63-.02-1.37-.53-1.86-1-.95-2.09-1.3-2.28-2.8-.3-2.47-.17-5.18.17-7.7.07-.48.14-.96.22-1.42.25-1.51.64-3.07.28-4.59-.02-.07-.05-.09-.07-.14-.08-.91-.24-1.81-.41-2.71-.19-1.11-.11-2.24-.2-3.35-.05-.67-.1-1.39-.17-2.12-.01-.22.06-.55.38-.37.05.03.1.07.18.13.08.08.14.16.24.28.25.28.51.56.77.86 1.26 1.52 2.71 3.58 2.17 5.64-.17.68-.32 1.33-.25 2.06.07.77.59 1.4 1.35 1.69 1.06.41 2.74.38 3.68-.32.66-.56.59-1.7.51-2.43z"/><path fill="#FCC21B" d="M104.89 90.96c-1.06-1.52-3.4-.83-4.77-4.75-1.65-4.71-4.13-11.19-6.24-13.95-3.87-5.05-7.02-3.38-7.02-5.6 0-.51.97-1.03 2.26-1.8 2.78 3.28 10.75 2.44 7.61-.7-2.21-2.2-.95-4.98-1.35-9.61-.02-.34-.06-.66-.1-.99-.02-.09-.02-.16-.02-.24h-.01c-.88-6.13-5.51-9.74-11.28-9.74S73.58 47.2 72.7 53.33l-.01-.01c-.03.24-.04.44-.06.67-.02.17-.04.34-.05.51-.41 4.66.85 7.44-1.35 9.65-3.15 3.14 4.84 3.99 7.61.71 1.28.77 2.26 1.29 2.26 1.8 0 2.22-3.15.55-7.02 5.6-2.12 2.76-4.6 9.24-6.25 13.95-1.37 3.92-3.7 3.23-4.76 4.75-2.6 3.74 2.44 6.93 4.85 4.39 2.41-2.55 4.11-6.14 5.29-9.95 1.19-3.81 1.96-6.1 2.79-6.1 1.6 0 .68 4.55-1.11 8.64-1.31 2.99-3.45 5.4-3.58 7.22-.23 3.21 4.96 3.28 5.6 4.47.86 1.61 2.62 12.19.88 13.68-1.03.88-2.42 1.63-2.66 3.17-.46 3.04 2.24 4.06 5.37 3.16 2.91-.85 2.82-2.59 2.59-7.14-.22-4.55-.97-11.59.91-11.59s1.13 7.03.91 11.59c-.22 4.56-.32 6.29 2.59 7.14 3.13.91 5.83-.12 5.36-3.16-.24-1.54-1.63-2.28-2.66-3.17-1.73-1.49.02-12.07.88-13.68.63-1.19 5.82-1.26 5.59-4.47-.13-1.82-2.27-4.23-3.58-7.22-1.79-4.09-2.71-8.64-1.11-8.64.83 0 1.59 2.29 2.79 6.1 1.19 3.81 2.88 7.41 5.3 9.95 2.38 2.54 7.42-.65 4.82-4.39z"/><path fill="#FCC21B" d="M62.7 72.53c-4.06-5.15-7.25-5.46-7.25-6.97 0-1.52 5.4-3.17 5.57-11.04C61.2 46.72 55.11 42 48.6 42S36 46.72 36.17 54.52c.17 7.87 5.57 9.52 5.57 11.04 0 1.51-3.19 1.82-7.25 6.97-4.07 5.16-8.57 15.84-6.73 21.55 1.84 5.72 8.24 3.67 8.24 0s-1.52-6.4-.23-10.29c1.29-3.89 2.13-3.16 3.01-2.97 1.23.26-.48 5.45-.81 9.83-.24 3.28.72 5.78 1.44 6.99.98 1.64 1.6 13.52-.38 15.04-1.16.9-2.33 2.1-2.33 3.69 0 2.72 2.45 3.68 6.08 3.22 3.16-.4 5.33-1.89 5.08-6.53-.25-4.64-1.4-12.76.74-12.76 2.14 0 1 8.11.74 12.76-.25 4.65 1.92 6.13 5.08 6.53 3.63.46 6.08-.5 6.08-3.22 0-1.59-1.17-2.79-2.33-3.69-1.98-1.52-1.36-13.41-.38-15.04.73-1.21 1.68-3.71 1.44-6.99-.32-4.38-2.03-9.57-.81-9.83.88-.19 1.71-.92 3.01 2.97 1.29 3.89-.23 6.61-.23 10.29 0 3.67 6.4 5.72 8.24 0 1.83-5.71-2.67-16.4-6.74-21.55z"/><path fill="#FCC21B" d="M31.59 92.3c-.38-1.34-1.61-1.71-2.85-1.86-1.01-.11-2.36-.04-3.09.78-.46.51-.68 1.08-.74 1.65-.5-.33-.86-2.34-1.67-3.35-.2-.37-.45-.69-.66-1.05-.46-.8-1.12-1.6-1.87-2.3.24-.14.49-.27.72-.43.38-.27.75-.57 1.09-.91.19-.19.36-.38.53-.57.37.18.66.51 1.08.64.63.19.79-.67 1.28-.84.53-.18 1.02 1.08 1.48.35.21-.33.35-.68.48-1.05.66-1.85.66-3.85.28-5.76-.31-1.64-1.02-3.2-1.93-4.61-.09-.15-.19-.3-.29-.45-.15-.22-.29-.43-.45-.63-.31-.4-.64-.78-.99-1.14-.05-.05-.09-.11-.13-.15-.14-.13-.42-.48-.68-.59-.21-.17-.4-.35-.61-.5-.85-.61-1.78-1.11-2.78-1.46-2.49-.86-4.88-.86-7.36 0-1.01.35-1.94.85-2.78 1.46-.21.15-.4.33-.6.5-.27.1-.55.46-.69.59-.07.07-.13.15-.19.22-.32.33-.62.68-.91 1.05-.18.23-.34.46-.51.69-.08.13-.17.25-.25.38-.92 1.42-1.63 2.99-1.95 4.64-.38 1.92-.38 3.91.29 5.76.12.37.27.72.47 1.05.47.73.96-.53 1.49-.35.49.17.64 1.03 1.28.84.42-.12.71-.46 1.09-.64.17.2.34.4.53.58.34.33.71.63 1.09.91.21.15.44.27.66.4-.71.84-1.31 1.76-1.67 2.31-1.81 2.65-3.26 5.52-5.18 8.1-.29.4-.55.82-1 1.08-.15.09-.38.13-.55.19-1.95.67-3.96 2.96-1.92 4.74.64.56 1.52.8 2.38.7.7-.08 1.72-.43 2.2-.93.32-.33.46-.75.74-1.1.37-.46.76-.89 1.15-1.33-.3.81-.57 1.62-.78 2.45-.11.42-.22.85-.35 1.25-.2.63-.32 1.4.18 1.93.35.38.93.53 1.38.73.73.31 1.45.63 2.21.87.23.07.49.1.73.16.06.9.15 1.79.21 2.69.04.63.03-.59.06.04.07 1.34.36 2.72.16 4.06-.27 1.84-1.26 1.44-2.14 2.57-.41.52-.6 1.31-.4 1.96.6 2.02 3.05 2.4 4.56 1.99 2.4-.65 2.55-3.41 2.59-5.81.04-2.63.06-4.69.04-6.82.22 0 .44-.03.66-.03-.02 2.13-.01 4.2.04 6.85.04 2.39.19 5.16 2.58 5.81 1.52.41 3.97.03 4.57-1.99.19-.66.01-1.44-.4-1.96-.89-1.13-1.88-.74-2.14-2.57-.2-1.34.08-2.72.16-4.06.03-.63.02.59.06-.04.06-.93.14-1.86.21-2.79.08-.02.17-.03.25-.06.76-.23 1.48-.55 2.21-.87.45-.19 1.03-.35 1.38-.73.5-.53.38-1.3.17-1.93-.13-.4-.24-.83-.34-1.25-.33-1.27-.78-2.51-1.27-3.72.35.04.71 0 1.07-.09.55-.16 1.04-.47 1.49-.81.53-.39.97-.88 1.57-1.14.17-.07.34-.13.49-.22.37-.06.72-.16 1.05-.28.14-.05.27-.11.39-.17 1.18-.7 1.73-2.26 1.34-3.63z"/></svg>