<svg xmlns="http://www.w3.org/2000/svg" width="128" height="128" viewBox="0 0 128 128"><path fill="#FBB817" d="M28.478 48.097c12.347-23.27 37.972-30.76 60.659-17.203 15.167 9.077 20.72 31.051 14.552 57.061-2.533 10.732 4.233 12.448 3.877 18.122-.688 11.125-18.47 20.486-41.618 20.817s-41.432-8.482-42.209-19.603c-1.57-22.404-4.476-41.942 3.416-56.806l1.323-2.388"/><path fill="#724941" d="M104.692 22.105C96.861 8.533 80.014 1.222 63.883 1.103c-15.9-.227-32.966 7.715-40.808 21.289-4.007 6.952-5.577 16.404-4.464 25.095.976 7.624 3.695 12.506 5.136 12.152 1.101-.273 22.999-16.807 26.094-19.312 1.319-1.071 8.28-6.147 9.284-6.603 1.258-.575 1.918.516 1.303 1.72-.299.591-4.929 5.592-5.682 6.518-.534.643-1.457 1.568-1.076 2.531.364.921 1.646 1.073 2.444 1.095 2.064.062 6.864-1.176 14.12-4.891 3.565-1.825 6.827-4.205 10.429-6.325.522-.31.967-.617 1.594-.566 1.817.142 5.666 2.562 9.381 7.009 4.443 5.309 9.089 11.857 11.89 16.774 3.177 5.579 4.524-1.192 5.164-4.188 2.147-9.974 1.071-22.518-4-31.296z"/><g fill="#2F2F2F"><path d="M52.111 59.859c0 3.349-2.465 6.062-5.516 6.062-3.043 0-5.52-2.713-5.52-6.062 0-3.355 2.477-6.07 5.52-6.07 3.051 0 5.516 2.715 5.516 6.07M73.649 59.859c0 3.349 2.464 6.062 5.523 6.062 3.043 0 5.52-2.713 5.52-6.062 0-3.355-2.477-6.07-5.52-6.07-3.059 0-5.523 2.715-5.523 6.07M64.559 84.893c-.433 0-.886-.016-1.348-.039-10.748-.643-14.828-6.475-14.998-6.724a1.93 1.93 0 0 1 .51-2.673 1.924 1.924 0 0 1 2.659.5c.149.216 3.347 4.539 12.067 5.05 8.689.501 12.473-5.172 12.521-5.229a1.918 1.918 0 0 1 3.218 2.086c-.185.303-4.653 7.029-14.629 7.029z"/></g></svg>