<svg xmlns="http://www.w3.org/2000/svg" width="128" height="128" viewBox="0 0 128 128"><g fill="#FCC21B"><path d="M122.89 80.36c-1.5-2.17-4.86-1.19-6.83-6.81-2.37-6.76-5.92-16.06-8.96-20.02-5.55-7.24-10.07-4.84-10.07-8.03 0-.73 1.4-1.48 3.24-2.59 3.98 4.7 15.42 3.5 10.91-1.01-3.43-3.43-.96-7.8-2.12-15.55v.01c-1.26-8.79-7.9-13.98-16.18-13.98S77.96 17.57 76.7 26.36v-.01c-1.14 7.75 1.32 12.12-2.12 15.55-4.51 4.51 6.93 5.72 10.91 1.01 1.84 1.1 3.24 1.86 3.24 2.59 0 3.18-4.52.78-10.07 8.03-3.04 3.96-6.59 13.26-8.96 20.02-1.97 5.62-5.33 4.63-6.85 6.81-3.72 5.37 3.49 9.94 6.97 6.29 3.46-3.65 5.89-8.81 7.6-14.28 1.71-5.47 2.79-8.75 4-8.75 2.28 0 .97 6.53-1.6 12.39-1.88 4.28-4.95 7.76-5.13 10.36-.34 4.6 7.1 4.71 8.03 6.41 1.23 2.31 3.75 17.49 1.26 19.63-1.47 1.26-3.47 2.33-3.81 4.53-.68 4.36 3.21 5.83 7.68 4.53 4.18-1.21 4.05-3.71 3.72-10.24-.32-6.53-1.4-16.63 1.3-16.63s1.62 10.09 1.3 16.63c-.32 6.53-.46 9.03 3.72 10.24 4.49 1.31 8.37-.17 7.69-4.53-.34-2.21-2.33-3.28-3.81-4.53-2.49-2.14.03-17.33 1.27-19.63.92-1.7 8.36-1.81 8.03-6.41-.19-2.6-3.26-6.08-5.13-10.36-2.57-5.86-3.9-12.39-1.6-12.39 1.18 0 2.28 3.28 3.99 8.75 1.71 5.47 4.13 10.63 7.6 14.28 3.48 3.66 10.7-.92 6.96-6.29z"/><path d="M65.13 73.96c-1.95-2.83-2.44-6.33-3.34-9.57-1.02-3.61-2.93-6.88-4.95-10.02-.6-.91-1.23-1.8-1.92-2.65-5.83-7.24-10.43-6.35-10.43-8.48 0-2.13 7.78-4.46 8.02-15.52.24-10.98-8.51-17.6-17.88-17.6-9.36 0-18.12 6.63-17.88 17.6.25 11.06 8.03 13.38 8.03 15.52 0 2.13-4.59 1.24-10.43 8.48-5.84 7.26-12.32 23.59-9.68 31.63 2.64 8.03 11.85 5.16 11.85 0s-1.36-8.17.5-13.63c1.86-5.47 2.21-5.28 3.49-5.01 1.75.38-.7 7.68-1.16 13.83-.35 4.6 1.03 8.11 2.07 9.81 1.42 2.31 2.29 21.15-.54 23.29-1.68 1.27-3.36 2.95-3.36 5.19 0 3.83 3.53 5.18 8.74 4.53 4.55-.56 7.68-2.64 7.31-9.18-.36-6.53-2-20.08 1.07-20.08s1.45 13.54 1.07 20.08c-.37 6.53 2.76 8.62 7.3 9.18 5.22.65 8.74-.7 8.74-4.53 0-2.24-1.68-3.93-3.35-5.19-2.83-2.13-1.95-20.98-.55-23.29 1.04-1.7 2.42-5.21 2.07-9.81-.47-6.16-2.92-13.46-1.17-13.83.91-.19 1.37 0 1.83.83 2.61 4.45 3.21 10.23 5.22 15 .12.31.27.62.44.92 1.58 3.03 4.14 5.48 7.74 5.23 3.05-.22 4.92-2.72 5.15-5.68.25-3.11-2.43-4.77-4-7.05z"/></g></svg>