<svg xmlns="http://www.w3.org/2000/svg" width="128" height="128" viewBox="0 0 128 128"><g fill="#FCC21B"><path d="M63.14 74.06c-1.95-2.83-2.43-6.33-3.35-9.56-1.02-3.61-2.92-6.89-4.96-10.02-.59-.91-1.22-1.8-1.9-2.65-5.84-7.25-10.43-6.35-10.43-8.49 0-2.13 7.77-4.46 8.01-15.51.24-10.98-8.51-17.61-17.87-17.61-9.36 0-18.12 6.63-17.87 17.61.24 11.06 8.02 13.38 8.02 15.51 0 2.13-4.59 1.24-10.43 8.49C6.51 59.07.03 75.41 2.67 83.44c2.64 8.03 11.85 5.16 11.85 0s-1.36-8.16.5-13.63c1.86-5.47 2.23-5.28 3.49-5.01 1.76.37-.69 7.67-1.16 13.83-.35 4.6 1.03 8.11 2.07 9.81 1.41 2.3 2.29 21.15-.54 23.29-1.68 1.27-3.35 2.95-3.35 5.19 0 3.82 3.52 5.17 8.74 4.53 4.54-.56 7.67-2.65 7.3-9.18-.37-6.53-2-20.07 1.07-20.07 3.07 0 1.43 13.54 1.07 20.07-.37 6.53 2.76 8.62 7.3 9.18 5.23.65 8.75-.7 8.75-4.53 0-2.24-1.68-3.92-3.35-5.19-2.83-2.14-1.95-20.98-.54-23.29 1.04-1.7 2.42-5.21 2.07-9.81-.47-6.16-2.92-13.46-1.16-13.83.91-.19 1.35 0 1.83.82 2.6 4.45 3.2 10.23 5.2 15 .14.31.29.62.45.93 1.58 3.03 4.14 5.48 7.73 5.22 3.05-.22 4.93-2.72 5.15-5.68.24-3.09-2.44-4.75-4-7.03z"/><path d="M64.87 74.06c1.94-2.83 2.43-6.33 3.35-9.56 1.02-3.61 2.92-6.89 4.95-10.02.6-.91 1.22-1.8 1.91-2.65 5.84-7.25 10.43-6.35 10.43-8.49 0-2.13-7.77-4.46-8.02-15.51-.24-10.98 8.51-17.61 17.87-17.61 9.36 0 18.12 6.63 17.88 17.61-.25 11.06-8.02 13.38-8.02 15.51 0 2.13 4.58 1.24 10.43 8.49s12.33 23.58 9.68 31.62c-2.64 8.03-11.85 5.16-11.85 0s1.36-8.16-.5-13.63c-1.85-5.47-2.22-5.28-3.49-5.01-1.75.37.7 7.67 1.17 13.83.34 4.6-1.03 8.11-2.08 9.81-1.4 2.3-2.29 21.15.55 23.29 1.66 1.27 3.35 2.95 3.35 5.19 0 3.82-3.52 5.17-8.74 4.53-4.54-.56-7.67-2.65-7.3-9.18.37-6.53 2-20.07-1.07-20.07-3.07 0-1.43 13.54-1.07 20.07.37 6.53-2.77 8.62-7.3 9.18-5.23.65-8.74-.7-8.74-4.53 0-2.24 1.67-3.92 3.35-5.19 2.83-2.14 1.95-20.98.54-23.29-1.04-1.7-2.42-5.21-2.08-9.81.47-6.16 2.92-13.46 1.17-13.83-.91-.19-1.35 0-1.83.82-2.61 4.45-3.2 10.23-5.21 15-.13.31-.28.62-.44.93-1.58 3.03-4.14 5.48-7.73 5.22-3.05-.22-4.93-2.72-5.16-5.68-.25-3.1 2.44-4.76 4-7.04z"/></g></svg>