<svg xmlns="http://www.w3.org/2000/svg" width="128" height="128" viewBox="0 0 128 128"><path fill="#005792" d="M120.613 77.414c-4.877 9.271-24.496 8.542-43.806-1.624-19.31-10.175-31.002-25.935-26.113-35.207 4.881-9.269 24.491-8.541 43.81 1.628 19.302 10.166 30.986 25.935 26.109 35.203z"/><path fill="#FBB817" d="M25.982 49.817c12.072-22.743 37.117-30.064 59.291-16.814 14.824 8.872 20.243 30.349 14.223 55.771-2.476 10.489 4.137 12.167 3.789 17.711-.672 10.874-18.052 20.022-40.685 20.347-22.617.324-40.494-8.291-41.246-19.16-1.535-21.897-4.375-40.993 3.338-55.521l1.29-2.334"/><path fill="#724941" d="M103.475 32.669c-1.218-5.656-3.955-10.989-7.895-15.222C87.072 8.332 73.604 4.242 61.121 4.45l.087-.062c-13.377 0-13.203 1.691-21.596 5.345-2.595 1.306-5.134 2.759-7.444 4.525-6.352 4.857-10.715 11.416-12.637 19.381-1.277 5.304-1.594 15.349-.328 22.777.193 1.142 1.234 6.459 2.164 6.406.874-.038 4.181-3.944 8.168-7.068 5.877-4.604 9.093-7.584 11.09-8.525.68-.322 2.167-.971 2.504.128.296.931-1.629 3.156.53 3.4 1.998.221 4.541-1.201 6.364-1.861 2.088-.75 3.936-2.013 5.941-2.945.605-.277 2.191-1.177 2.875-.955 1.27.425.289 3.032.605 3.93.744 2.052 5.261-.113 6.554-.534 1.974-.646 3.777-1.687 5.708-2.413 1.985-.736 3.299-1.169 5.039.233.949.763 1.994 1.44 2.931 2.162 1.78 1.351 3.738 2.555 5.582 3.854.451.323 1.803 1.197 2.313 1.011.921-.338.819-1.972.93-2.682.206-1.301 1.068-.496 1.772 0 8.943 6.338 9.746 10.835 10.909 10.842 2.332.01 4.84-16.884 2.293-28.73z"/><path fill="#B5B5B5" d="M88.855 34.077c0 2.67-.285 5.273-.826 7.79 7.203 1.877 13.357 4.498 17.89 7.654.388-2.188.633-4.413.633-6.698 0-20.234-15.395-37.083-35.812-40.863 10.897 6.833 18.115 18.656 18.115 32.117zM56.707 1.493c-22.015 2.496-39.094 20.028-39.094 41.33 0 2.286.257 4.511.633 6.698 5.023-3.497 12.048-6.321 20.275-8.215a37.24 37.24 0 0 1-.728-7.229c-.001-13.786 7.582-25.838 18.914-32.584z"/><path fill="#37B4E2" d="M56.707 1.493C45.375 8.239 37.792 20.291 37.792 34.077c0 2.472.265 4.885.728 7.229 7.088-1.639 15.066-2.595 23.566-2.595 9.453 0 18.293 1.161 25.943 3.156a36.95 36.95 0 0 0 .826-7.79c0-13.461-7.218-25.284-18.115-32.117a47.86 47.86 0 0 0-8.654-.801c-1.823 0-3.619.134-5.379.334z"/><g fill="#2F2F2F"><path d="M51.324 62.961c0 3.73-2.496 6.754-5.589 6.754-3.089 0-5.601-3.024-5.601-6.754 0-3.74 2.512-6.764 5.601-6.764 3.093 0 5.589 3.024 5.589 6.764M73.157 62.961c0 3.73 2.5 6.754 5.601 6.754 3.085 0 5.597-3.024 5.597-6.754 0-3.74-2.511-6.764-5.597-6.764-3.101 0-5.601 3.024-5.601 6.764M64.009 85.613c-.475 0-.965-.02-1.464-.043-11.668-.696-16.098-7.027-16.272-7.298a2.081 2.081 0 0 1 .545-2.899 2.083 2.083 0 0 1 2.883.54c.17.235 3.635 4.926 13.096 5.484 9.434.542 13.543-5.614 13.595-5.676.609-.967 1.918-1.246 2.879-.619a2.083 2.083 0 0 1 .613 2.883c-.205.327-5.053 7.628-15.875 7.628z"/></g></svg>