<svg xmlns="http://www.w3.org/2000/svg" width="128" height="128" viewBox="0 0 128 128"><path fill="#FBB817" d="M29.994 50.347c11.995-22.602 36.876-29.878 58.915-16.71 14.727 8.815 20.118 30.154 14.132 55.416-2.459 10.425 4.109 12.09 3.762 17.6-.665 10.803-17.934 19.894-40.421 20.217-22.476.326-40.236-8.237-40.988-19.036-1.523-21.755-4.349-40.737 3.318-55.172l1.282-2.315"/><path fill="#CC4079" d="M72.033 81.308c-.464-.283-1.22.165-1.605.433a5.123 5.123 0 0 1-.87.472 11.569 11.569 0 0 1-4.349.874c-1.479 0-2.979-.315-4.345-.874a5.668 5.668 0 0 1-.874-.472c-.378-.268-1.133-.716-1.606-.433-.283.165-.314.685-.268.968.48 3.117 3.731 4.542 6.659 4.644.146.007.288-.016.433-.016.15 0 .291.023.433.016 2.928-.103 6.187-1.527 6.663-4.644.051-.284.02-.803-.271-.968z"/><path fill="#2F2F2F" d="M49.876 63.653c-.52-.04-1.047.139-1.543 0-.606-.184-1.137-.41-1.661-.756-.362-.246-.535-.482-.988-.543-.39-.058-.854.071-1.066.425-.425.685.346 1.612.881 2.031.197.149.771.299.606.638-.134.289-.787.268-1.039.268-.535 0-.984-.071-1.504-.181-.417-.086-.826-.291-1.231-.354-.405-.065-.657.139-.885.438-.37.498-.347.992 0 1.479.574.813 1.566 1.537 2.519 1.812 1.44.407 1.763-.317 2.495-1.346.314-.457.59-.939.96-1.346.535-.575 1.086-1.285 1.802-1.64.3-.139.654-.22.976-.268.205-.031.512.026.523-.273.008-.286-.33-.276-.539-.331a1.26 1.26 0 0 0-.306-.053zM80.541 63.653c.52-.04 1.039.139 1.543 0 .606-.184 1.141-.41 1.661-.756.362-.246.535-.482.991-.543.386-.058.842.071 1.063.425.425.685-.346 1.612-.89 2.031-.189.149-.763.299-.598.638.126.289.787.268 1.039.268.527 0 .983-.071 1.503-.181.417-.086.827-.291 1.236-.354.401-.065.653.139.881.438.374.498.346.992 0 1.479-.575.813-1.566 1.537-2.519 1.812-1.44.407-1.771-.317-2.495-1.346-.315-.457-.59-.939-.96-1.346-.531-.575-1.086-1.285-1.803-1.64a3.646 3.646 0 0 0-.976-.268c-.205-.031-.512.026-.52-.273-.007-.286.323-.276.536-.331.103-.032.21-.047.308-.053z"/><path fill="#005792" d="M55.133 69.344c0 3.188-2.353 5.777-5.242 5.777s-5.242-2.589-5.242-5.777c0-3.196 2.354-5.777 5.242-5.777s5.242 2.581 5.242 5.777zM75.283 69.344c0 3.188 2.354 5.777 5.242 5.777s5.242-2.589 5.242-5.777c0-3.196-2.354-5.777-5.242-5.777s-5.242 2.581-5.242 5.777z"/><g><path fill="#F48120" d="M64.189 1.122c1.138 0 2.263.016 3.396.039 8.029.197 14.853 1.527 19.725 3.849 5.305 2.535 10.24 6.084 14.656 10.571 9.835 9.965 17.021 24.542 15.698 38.127-.429 4.329-1.153 8.776-3.062 12.791-1.673 3.51-5.309 7.517-6.395 11.24-1.268 4.313.516 7.682-.669 12.019-.968 3.526-3.585 6.95-7.422 8.256-3.728 1.268-8.182 1.596-11.688-.173-1.527-.764-3.829-2.261-4.652-3.708-.405-.716-.886-1.37-.98-2.196.051.441 1.633.905 1.972.992 4.321 1.102 8.587-1.905 7.422-6.084-1.094-3.912-3.648-7.076-2.086-11.24.374-.984 1.114-1.938 1.984-3.038 2.133-2.7 3.558-5.754 3.648-9.099.114-3.645-1.271-7.226-2.546-10.626l-.346-.937a16.838 16.838 0 0 0-1.11-2.4c-1.413-2.566-5.667-2.298-8.233-3.416-3.314-1.448-5.888-3.747-8.131-6.344-.5-.574-1.012-1.212-1.516-1.763-.374-.409-1.082-1-1.664-1.157-.048-.008-.087-.016-.134-.023-.976-.213-1.787.244-2.44.858-3.133 2.936-6.088 5.998-10.169 7.997-2.759 1.354-5.88 1.96-8.926 2.511-5.643 1.007-12.011 1.968-15.317 6.753-3.573 5.171-3.03 11.239.685 16.151l.079.102c1.196 1.582 1.893 3.447 2.161 5.352.866 5.998-6.147 12.389.96 15.779 1.436.687 4.836 1.144 6.316.475.149-.071.338-.189.52-.189.22 0-.905 2.157-.992 2.291-3.893 5.47-15.065 4.699-19.894.488-3.916-3.417-3.936-7.273-4.231-11.807-.173-2.85-.925-5.644-1.905-8.343-.866-2.37-2.912-5.36-4.16-7.454-1.188-2.015-2.314-3.922-2.948-5.864-.716-2.18-1.181-4.589-1.456-7.58-.606-6.383.496-13.365 3.267-20.771C19.482 17.848 33.48 5.632 49.278 2.42c4.368-.889 9.106-1.298 14.911-1.298"/></g></svg>