<svg xmlns="http://www.w3.org/2000/svg" xmlns:xlink="http://www.w3.org/1999/xlink" width="128" height="128" viewBox="0 0 128 128"><path fill="#FBB817" d="M23.663 41.413C37.086 16.117 64.941 7.971 89.609 22.708c16.487 9.872 22.521 33.756 15.82 62.031-2.755 11.672 4.6 13.537 4.211 19.702-.747 12.094-20.078 22.272-45.249 22.631-25.159.363-45.042-9.221-45.886-21.31-1.701-24.353-4.861-45.597 3.717-61.754l1.441-2.595"/><g fill="#2F2F2F"><path d="M51.901 61.822c0 3.808-2.557 6.886-5.705 6.886-3.147 0-5.705-3.078-5.705-6.886 0-3.817 2.558-6.891 5.705-6.891 3.148 0 5.705 3.074 5.705 6.891M74.161 61.822c0 3.808 2.544 6.886 5.718 6.886 3.14 0 5.705-3.078 5.705-6.886 0-3.817-2.565-6.891-5.705-6.891-3.174 0-5.718 3.074-5.718 6.891M64.886 87.153c-.515 0-1.042-.025-1.574-.05-12.545-.747-17.301-7.543-17.491-7.838a2.253 2.253 0 0 1 .582-3.121 2.263 2.263 0 0 1 3.106.582c.182.256 3.912 5.3 14.064 5.899 10.148.574 14.558-6.032 14.622-6.106.65-1.04 2.055-1.335 3.093-.665 1.034.677 1.342 2.07.654 3.104-.215.346-5.422 8.195-17.056 8.195z"/></g><path fill="#2F2F2F" d="M16.683 47.352c1.583.473 3.802.984 6.676 1.486 7.798 1.363 20.517 2.61 39.468 2.61 18.744 0 31.361-1.224 39.168-2.57 2.422-.411 4.38-.844 5.924-1.247l1.376-.487v-3.361H16.683v3.569z"/><g><defs><path id="a" d="M108.632 39.927c-2.077-1.668-1.924-2.449-2.511-4.118-1.211-3.617-2.878-8.44-5.177-13.347C97.72 15.594 90.318 9.95 79.727 7.039c0 0-4.021-.521-4.021-2.161v-.804C75.705 2.386 74.038 1 72 1H54.1c-2.042 0-3.684 1.386-3.684 3.074v.804c0 1.64-4.034 2.161-4.034 2.161C35.786 9.95 28.414 15.594 25.19 22.462c-2.321 4.907-3.979 9.73-5.216 13.347-.565 1.669-.43 2.45-2.498 4.118-2.502 2.013-2.236 3.098-1.14 3.654 1.477.774 13.622 4.522 46.73 4.522 33.058 0 45.207-3.748 46.705-4.522 1.098-.556 1.363-1.641-1.139-3.654z"/></defs><use xlink:href="#a" overflow="visible" fill="#37B4E2"/><clipPath id="b"><use xlink:href="#a" overflow="visible"/></clipPath><path clip-path="url(#b)" fill="#FFF" d="M63.637 50.382c-15.136 0-43.392-3.996-43.392-3.996l1.169-4.716c1.565-1.47 1.692-2.443 1.831-3.568l.211-.692c1.173-3.439 2.789-8.161 5.055-12.955 2.853-6.079 9.457-10.824 18.618-13.389 1.933-.541 3.836-.77 5.372-2.22 1.654-1.565 1.578-3.477 4.224-3.705 4.169-.361 8.629-.217 12.791.034 3.287.198 2.607 2.098 4.709 3.798a9.52 9.52 0 0 0 4.756 2.093c9.178 2.572 15.79 7.317 18.634 13.376 2.102 4.483 3.659 8.876 5.017 12.955l.249.764c.354 1.209 3.042 7.224 4.102 8.439-5.381 1.22-19.48 3.782-43.346 3.782z"/><path clip-path="url(#b)" fill="#37B4E2" d="M23.245 38.102s-1.97 6.313 5.979 8.216l-.827 3.929-14.182.405 2-9.532 7.03-3.018zM87.538 14.491s4.198 1.658 6.629 7.935c3.106 7.999 1.941 28.948-33.64 28.825l30.792 8.178 16.744-7.697 6.882-15.258-9.042-19.445-18.365-2.538z"/><path clip-path="url(#b)" fill="#37B4E2" d="M75.705 34.313s-3.414.135-3.414-5.666V10.632s.097-5.241-2.288-5.402l2.288-2.675L77.3 9.054l.439 23.446-2.034 1.813z"/><path clip-path="url(#b)" fill="#2F2F2F" d="M75.705.059h3.751v34.254h-3.751zM46.669.059h3.747v34.254h-3.747z"/></g></svg>