<svg xmlns="http://www.w3.org/2000/svg" width="128" height="128" viewBox="0 0 128 128"><path fill="#FBB817" d="M25.518 42.904c13.16-24.795 40.46-32.779 64.634-18.333 16.16 9.671 22.071 33.081 15.508 60.795-2.703 11.437 4.507 13.263 4.128 19.308-.734 11.852-19.68 21.825-44.35 22.179-24.653.359-44.142-9.036-44.962-20.883C18.8 82.103 15.7 61.279 24.11 45.443l1.408-2.539"/><g fill="#2F2F2F"><path d="M53.193 62.903c0 3.734-2.504 6.752-5.587 6.752-3.091 0-5.591-3.018-5.591-6.752 0-3.739 2.5-6.752 5.591-6.752 3.083-.001 5.587 3.013 5.587 6.752M75.014 62.903c0 3.734 2.496 6.752 5.604 6.752 3.079 0 5.587-3.018 5.587-6.752 0-3.739-2.509-6.752-5.587-6.752-3.109-.001-5.604 3.013-5.604 6.752M65.926 87.733c-.505 0-1.023-.026-1.546-.052C52.088 86.952 47.425 80.29 47.235 80a2.203 2.203 0 0 1 .574-3.057 2.217 2.217 0 0 1 3.044.565c.181.25 3.834 5.199 13.79 5.786 9.939.565 14.261-5.911 14.326-5.984.635-1.023 2.012-1.308 3.031-.652 1.01.665 1.312 2.029.639 3.04-.207.341-5.311 8.035-16.713 8.035z"/></g><g><path fill="#005792" d="M17.258 43.547s21.536-3.605 46.737-3.605c25.206 0 46.737 3.605 46.737 3.605S108.25 1.136 63.996 1.136c-44.246 0-46.738 42.411-46.738 42.411z"/><path fill="#E75625" d="M41.415 43.547s10.414-3.605 22.581-3.605c12.176 0 22.581 3.605 22.581 3.605s-1.2-42.411-22.581-42.411c-21.372 0-22.581 42.411-22.581 42.411z"/><path fill="#2F2F2F" d="M109.273 41.052c-.721-.341-18.047-8.315-45.278-8.315-27.226 0-44.548 7.975-45.269 8.315-1.114.522-1.827 1.688-1.827 2.975v9.784c0 .958.393 1.865 1.088 2.482a2.921 2.921 0 0 0 2.496.725c.198-.034 20.301-3.548 43.512-3.548 23.194 0 43.322 3.514 43.521 3.548a2.936 2.936 0 0 0 2.496-.725 3.324 3.324 0 0 0 1.088-2.482v-9.784c0-1.287-.717-2.453-1.827-2.975z"/><path fill="#FBB817" d="M70.247 42.913c0 3.562-2.893 6.438-6.476 6.438-3.575 0-6.477-2.875-6.477-6.438 0-3.549 2.902-6.429 6.477-6.429 3.583 0 6.476 2.88 6.476 6.429z"/></g></svg>