<svg xmlns="http://www.w3.org/2000/svg" width="128" height="128" viewBox="0 0 128 128"><path fill="#ED6C30" d="M102.27 63.66c1.22.21 2.44.48 3.67.81 3.24.86 6.04 1.9 7.8 4.96 1.44 2.5 1.82 5.55 1.42 8.39-.74 5.23-5.05 8.39-10.07 8.99-.97.11-2.01.42-2.98.62-1.11.21-16.57 1.06-16.71.17-.23-1.5-.16-3.31-.07-4.82.18-2.83.09-5.72.3-8.55.18-2.22.58-4.41.63-6.62.02-1.32.01-2.41.36-3.67 5.39-1.03 10.46-1.18 15.65-.28zM25.89 64.41c-.02 0-.05.01-.07.01-2.28.38-4.45.06-6.68.89-5.24 1.93-6.96 7.59-6.27 12.51.55 3.92 2.83 7.04 7.99 8.66 2.04.65 3.9.26 5.97.26 2.35 0 4.7-.01 7.05 0 1.93 0 3.78-.31 5.7-.3 1.85.01 3.82.18 5.65-.07.68-.1 1.78-.11 2.27-.61.79-.81.83-3.1.99-4.13.56-3.54 1.45-8.26.23-11.74-.35-1-.7-1.99-.86-3.02-.11-.81.4-2.04-.35-2.61-.58-.45-2.57-.35-3.28-.36-1.84-.04-3.64-.31-5.5-.31-2.3 0-4.72-.22-7.02 0-1.98.18-3.85.49-5.82.82zM127.76 93.39c-.65-2.76-8.11-1.36-9.98-1.21-4 .34-7.98.96-11.96 1.49-2.12 4.75-5.25 8.82-9.64 12.59-4.88 4.19-11.12 7.28-18.03 9.1-.24 1.59-.4 3.2-.61 4.8-.1.87-.06 1.99.01 2.86.09 1.13.54 1.08 1.6 1.25 2.28.36 4.27-1.85 6.34-2.51 2.53-.82 5.28-.79 7.87-.29 2.56.5 5.6 2.42 7.81.07 1.39-1.47 1.66-3.7 3.21-5.06 2.04-1.79 4.66-2.76 7.22-3.55 1.25-.38 6.57-1 6.05-2.92-2.07-7.64 1.37-11.34 8.26-14.18 1.13-.45 2.17-1.04 1.85-2.44zM49.88 115.55c-6.99-1.77-13.39-4.88-18.7-9.2-4.89-3.98-7.98-8.31-9.94-12.8-3.67-.49-7.33-1.04-11.01-1.36C8.37 92.03.9 90.64.25 93.4c-.33 1.4.72 1.99 1.83 2.45 6.9 2.84 10.32 6.54 8.26 14.18-.51 1.92 4.8 2.54 6.05 2.92 2.55.79 5.17 1.76 7.22 3.55 1.56 1.36 1.83 3.58 3.22 5.06 2.2 2.36 5.25.43 7.81-.07 2.59-.5 5.34-.53 7.88.29 2.08.67 4.06 2.87 6.34 2.51 1.07-.17 1.51-.12 1.6-1.25.07-.87.12-1.99.01-2.86-.21-1.55-.37-3.1-.59-4.63z"/><g><path fill="#ED6C30" d="M93.73 40.31c-7.2-8.75-19.6-12.51-30.1-12.51s-22.9 3.75-30.11 12.51c-7.04 8.55-10.73 19.6-10.67 34.43.05 11.95 2.51 20.59 11.4 27.83 8.23 6.69 19.05 9.81 29.38 9.81 10.32 0 21.44-3.01 29.37-9.81 8.71-7.47 11.36-15.88 11.4-27.83.07-14.84-3.63-25.88-10.67-34.43z"/><path fill="#2F2F2F" d="M64.48 102.52c-2.6.03-5.25-.57-7.39-1.68-1.08-.56-2.18-1.31-3.04-2.18-.87-.88-1.69-2.44-.69-3.52.81-.87 2.03 0 2.82.46 2.23 1.27 4.78 2.2 7.37 2.32 2.87.13 5.2-.79 7.66-2.13.7-.39 2.1-1.34 2.93-.82 2.06 1.3-.38 3.65-1.44 4.58-2.27 2.02-5.21 2.94-8.22 2.97z"/><path fill="#006CA2" d="M108.51 41.12c-1.7-2.64-4.73-3.64-7.02-5.57-3.06-2.56-4.06-6.18-5.81-9.65-1.09-2.15-2.79-3.88-4.55-5.45-1.82-1.63-4.72-2.45-7.01-3.18-3.55-1.14-7.24.08-10.85-.33-3.59-.41-6.93-2.49-10.32-3.69-3.64-1.28-8.51-.8-12.06.65-3.51 1.43-5.39 4.96-8.67 6.39-3.02 1.32-6.57.73-9.75 2.04-3.78 1.57-6.7 3.71-8.22 7.79-1.13 3.06-1.37 6.54-3.05 9.37-2.33 3.92-5.87 5.72-7.51 10.31-1.79 5.05-3.13 12.56.8 16.95 1.4 1.57 2.8 3.01 3.59 5 .3.77.39 1.57.64 2.33.5 1.49 1.82 2.74 3.2 3.39.79.37 1.6.28 2.15-.44.46-.61.29-1.41.29-2.17 0-1.29-.2-2.9.44-4.12.84-1.61 2.77-2.14 4.17-3.06 1.19-.77 2.34-1.48 3.46-2.34.45-.35.83-.83 1.19-1.25.48-.56 1.19-1.32 1.43-2.03.3-.85-.19-1.34-.64-1.97-.85-1.19-1.44-2.83-1.33-4.32.06-.82.54-1.3 1.39-1.19.85.11 1.34 1.06 1.92 1.59 1.02.94 2.1 1.83 3.3 2.52 1.08.62 2.28.99 3.38 1.57 1.25.66 2.65 1.01 4.06.98.89-.02 2.56-.29 3.25-.87.7-.6-.03-1.23-.14-1.93-.14-.91-.29-1.93-.1-2.85.32-1.56 1.97-2.22 3.32-1.87.96.25 1.84.4 2.82.52 1.1.13 2.02.51 3.08-.09.69-.39.97-1.29 1.91-1.01 1.01.3.79 1.21.38 1.93-1.07 1.82-2.46 1.79-4.35 1.57-.87-.1-3.38-1.33-3.96.03-1.01 2.35 1.27 4.78 3.07 5.89 2.1 1.29 4.65 1.67 7.06 1.69 3.15.02 6.29-1.19 8.89-3.06 2.02-1.45 4.81-3.05 7.39-2.34 2.54.7 3.74 3.77 6.31 4.46 3.12.83 6.18.52 9-1.04.53-.29 1.02-.67 1.52-1.05.46-.35.97-.79 1.4-.08.26.41.36 1.4.24 1.91-.4 1.56-2.1 1.77-2.68 2.97-.17.36.32 1.57.53 1.88 1.38 2 3.59 2.11 5.63 2.96 1.14.48 2.34 1.21 2.53 2.58.1.69-.08 1.52-.33 2.16-.34.87-1.26 2-.38 2.84.47.44 1 .53 1.61.43 1.29-.2 1.92-1.27 2.64-2.24.59-.8 1.44-1.53 1.76-2.52 1.04-3.25.02-6.2-.3-9.35-.04-.38-.07-.76-.09-1.14-.13-3.64 1.99-6.87 2.2-10.48.2-3.54-.93-9.08-2.83-12.02z"/><path fill="#FCC21B" d="M38.62 76.4c-.52 2.98.25 9.86 7.67 11.41 5.21 1.08 10.2-2.86 10.73-5.84l-18.4-5.57zM88.1 76.4c.53 2.98-.26 9.86-7.67 11.41-5.2 1.08-10.19-2.86-10.72-5.84L88.1 76.4z"/><g><path fill="#ED6C30" d="M84.6 31c.51-1.44 1.57-2.79 3.16-4.04 1.3-1.02 2.67-2.02 3.75-3.29 3.16-3.75 4.7-9.6 3.99-14.48-.16-1.09-1.23-3.2-.5-4.19 1.24-1.7 4.34.06 5.33 1.04 3.1 3.06 4.97 7.25 5.88 11.45 1.13 5.24.98 10.66-.76 15.74-1.44 4.19-4.91 8.34-9.37 9.33-3.82.85-7.95-1.68-10.06-4.69-1.72-2.45-2.17-4.75-1.42-6.87zM42.71 30.4c-.51-1.43-1.57-2.78-3.16-4.04-1.3-1.02-2.67-2.02-3.74-3.3-3.15-3.75-4.7-9.6-3.99-14.49.16-1.09 1.23-3.2.5-4.19-1.24-1.7-4.34.06-5.33 1.04-3.1 3.05-4.97 7.24-5.88 11.46-1.13 5.23-.98 10.66.76 15.73 1.44 4.19 4.91 8.34 9.37 9.33 3.82.85 7.95-1.68 10.06-4.68 1.71-2.44 2.16-4.74 1.41-6.86z"/></g></g></svg>