<svg xmlns="http://www.w3.org/2000/svg" width="128" height="128" viewBox="0 0 128 128"><path fill="#FBB817" d="M27.462 47.367C39.918 23.893 65.769 16.334 88.66 30.008c15.3 9.16 20.896 31.328 14.679 57.566-2.56 10.829 4.27 12.562 3.908 18.284-.693 11.22-18.63 20.667-41.989 21-23.35.338-41.797-8.56-42.58-19.778-1.582-22.595-4.507-42.312 3.449-57.304l1.335-2.409"/><g fill="#2F2F2F"><path d="M53.666 66.308c0 3.536-2.373 6.387-5.294 6.387-2.926 0-5.29-2.851-5.29-6.387 0-3.54 2.364-6.394 5.29-6.394 2.921 0 5.294 2.854 5.294 6.394M74.325 66.308c0 3.536 2.36 6.387 5.307 6.387 2.913 0 5.291-2.851 5.291-6.387 0-3.54-2.377-6.394-5.291-6.394-2.947 0-5.307 2.854-5.307 6.394"/></g><path fill="#FFF" d="M23.435 72.289s4.261-8.188 12.796-17.318c11.107-11.905 23.193-20.152 23.193-20.152s11.937 4.723 26.612 17.32c13.425 11.524 20.338 20.611 20.338 20.611s5.219-5.211 7.451-11.964c6.141-18.579-3.469-56.819-50.646-56.819-47.738 0-54.585 39.044-48.338 57.317 2.19 6.404 8.594 11.005 8.594 11.005z"/><path fill="#66949E" d="M105.262 75c-.383-.306-8.701-9.961-21.313-20.791-11.014-9.453-20.506-14.371-24.15-16.079-3.491 2.541-12.71 9.551-21.246 18.69-8.169 8.743-17.524 18.35-17.72 18.224-2.186-1.37-3.389-2.745-4.41-3.855-2.148-2.315-3.011-4.667-4.516-9.056-3.824-11.207-3.015-29.465 7.803-43.094 6.493-8.171 19.297-17.907 43.469-17.907 23.984 0 36.712 9.583 43.154 17.628 10.763 13.408 13.191 24.876 11.218 38.585-.952 6.559-4.556 13.669-7.169 16.297-2.316 2.329-4.878 1.551-5.12 1.358zM63.179 6.798c-17.338 0-30.294 5.248-38.515 15.596-9.56 12.03-11.333 26.86-7.965 36.748.923 2.702 1.926 5.621 3.773 7.963 2.616-2.772 7.993-8.164 13.428-13.985 11.215-12.006 23.198-20.235 23.7-20.578a3.29 3.29 0 0 1 3.037-.329c.51.202 12.6 5.066 27.488 17.845 8.492 7.289 15.411 12.481 19.612 17.532 1.934-3.009 3.826-7.301 4.534-10.785 2.782-13.687-1.429-22.908-10.865-34.672C93.24 11.957 80.376 6.798 63.179 6.798z"/><path fill="#66949E" d="M98.764 13.907c-.643-1.449-2.437-2.14-4.015-1.544-23.414 8.898-36.81 19.889-37.371 20.346-1.263 1.048-1.37 2.839-.243 4.004.608.623 1.446.94 2.292.94.731 0 1.458-.234 2.049-.723.128-.104 13.242-10.825 35.619-19.323 1.575-.596 2.315-2.255 1.669-3.7z"/><path fill="#2F2F2F" d="M80.325 80.16c-.583-.26-1.271-.238-1.884-.463-1.816-.668-2.973-2.152-4.453-3.271-1.412-1.067-2.921-2.071-4.635-2.67-1.914-.67-3.823-.942-5.698-.942-1.884 0-3.793.272-5.708.942-1.709.6-3.219 1.603-4.635 2.67-1.476 1.118-2.637 2.603-4.448 3.271-.612.225-1.301.204-1.888.463-1.353.608-.948 2.177-.17 3.049.31.345.697.757 1.148.944 1.472.608 3.156.889 4.754.693 2.904-.353 5.333-1.994 7.991-2.998 1.059-.399 2.02-.519 2.956-.538.931.019 1.892.138 2.951.538 2.654 1.004 5.086 2.645 7.986 2.998 1.603.196 3.283-.085 4.763-.693.447-.188.833-.6 1.14-.944.782-.872 1.182-2.441-.17-3.049z"/></svg>