<svg xmlns="http://www.w3.org/2000/svg" xmlns:xlink="http://www.w3.org/1999/xlink" width="128" height="128" viewBox="0 0 128 128"><defs><path id="a" d="M88.803 13.555c-10.84-6.479-21.326-6.846-30.041-1.542-6.02 3.668-13.461 9.457-18.879 22.846-7.015 17.315-10.36 34.458-11.506 39.491-2.992 13.14-7.068 28.837 2.536 40.364 5.874 7.045 13.067 9.702 20.965 11.214 13.965 2.674 27.028.858 36.994-11.952 11.909-15.327 12.255-34.239 13.62-53.503.224-3.168 1.207-16.583.057-23.612-1.626-9.903-5.329-18.274-13.746-23.306z"/></defs><use xlink:href="#a" overflow="visible" fill="#FBB817"/><clipPath id="b"><use xlink:href="#a" overflow="visible"/></clipPath><g clip-path="url(#b)"><path fill="#F48120" d="M75.541 57.08c-2.837 7.66-11.072 12.773-22.046 7.66-8.592-4.006-9.966-13.537-7.641-19.735 2.333-6.202 11.665-10.047 19.562-7.072C73.337 40.905 78.41 49.32 75.541 57.08z"/><path fill="#FCCBA8" d="M61.989 63.258c-2.187 0-4.536-.582-6.999-1.728-7.162-3.337-7.373-11.147-5.828-15.284 1.251-3.305 5.771-5.8 10.527-5.8 1.569 0 3.073.269 4.483.799 6.515 2.444 10.125 8.997 8.043 14.604-1.715 4.641-5.535 7.409-10.226 7.409z"/><path fill="#37B4E2" d="M59.026 44.902c.582-1.347-.472-2.386-1.812-2.768-6.418-1.833-11.214 1.12-12.84 5.021-1.479 3.542-1.048 9.348 3.906 11.982 1.272.689 3.435 1.274 5.048 1.262 1.76-.021 5.849-.272 5.081-2.987-.378-1.35-1.663-1.602-2.89-1.626-.533-.012-1.065-.042-1.598-.016-.622.035-1.251-.043-1.792-.291-2.581-1.17-3.085-3.904-2.609-5.68.26-.949.862-2.093 1.776-2.827.638-.535 1.743-.858 2.784-.909 1.463-.073 3.825.715 4.768-.817a2.4 2.4 0 0 0 .178-.344z"/></g><path clip-path="url(#b)" fill="#2F2F2F" d="M63.005 31.859c-.105.102-2.674 2.557-6.804 1.577-4.122-.979-5.325-4.327-5.374-4.469a1.306 1.306 0 0 1 .809-1.667 1.305 1.305 0 0 1 1.67.803c.028.081.817 2.14 3.495 2.774 2.691.638 4.366-.888 4.37-.898a1.318 1.318 0 0 1 1.866.026 1.306 1.306 0 0 1-.032 1.854zM86.62 36.142c-.102.12-2.422 2.9-6.707 2.384-4.296-.514-5.89-3.764-5.955-3.898a1.335 1.335 0 0 1 .634-1.782 1.338 1.338 0 0 1 1.785.629c.032.075 1.061 2.063 3.853 2.396 2.804.335 4.308-1.406 4.316-1.416a1.326 1.326 0 0 1 1.882-.189c.57.459.659 1.3.192 1.876z"/><path clip-path="url(#b)" fill="#FFF" d="M31.709 46.465s7.698 27.029 34.402 35.873l-9.535 48.558s-32.142-1.874-34.166-28.614c-1.383-18.383 9.299-55.817 9.299-55.817z"/><path clip-path="url(#b)" fill="#F48120" d="M28.937 49.934s7.698 27.029 34.402 35.873l-9.536 48.556s-32.15-1.872-34.166-28.613c-1.389-18.382 9.3-55.816 9.3-55.816z"/><path clip-path="url(#b)" fill="#FFF" d="M25.352 80.79s20.835 3.987 46.457-7.674c23.22-10.565 33.438-28.561 33.438-28.561s2.313 29.807-2.719 48.709c-5.024 18.903-14.713 34.473-31.731 37.806-4.808.94-28.268 3.469-40.835-11.535-14.275-17.035-4.61-38.745-4.61-38.745z"/><path clip-path="url(#b)" fill="#F48120" d="M24.897 84.808s20.761 4.349 46.583-6.865c23.399-10.159 33.926-27.974 33.926-27.974s1.796 29.843-3.561 48.654c-5.357 18.812-15.319 34.21-32.39 37.247-4.821.857-28.326 2.976-40.633-12.242-13.972-17.281-3.925-38.82-3.925-38.82z"/><path fill="#F48120" d="M70.557 8.595c.528-1.676 2.479-2.979 4.081-3.444 2.171-.628 4.699-.553 6.584-1.939.448-.325.634-.723.797-1.229.082-.26.089-.909.447-.968.268-.044.544.271.707.431.415.396.87 1.03 1.041 1.585.325 1.061-.269 1.9-.39 2.922-.135 1.131.333 2.097 1.016 2.977.175.226.366.437.537.67.593.819 1.91 2.811.374 3.203-1.479.375-3.593-.026-4.755-1.024-.508-.433-.935-.958-1.487-1.329a3.33 3.33 0 0 0-1.878-.557c-.724.01-1.751.454-1.3 1.344.146.28.398.489.683.63.203.099.423.17.646.205.219.035.447.035.654.116.211.077.403.262.398.485-.008.293-.317.472-.594.565-2.21.75-4.597.221-6.356-1.287-.973-.832-1.571-2.194-1.205-3.356z"/></svg>