<svg xmlns="http://www.w3.org/2000/svg" width="128" height="128" viewBox="0 0 128 128"><path fill="#FFF" d="M105.41 107.92c2.24 5.93 6.99 7.66 11.3 8.27-5.01 1.71-14 3.43-21.65 4.22-13.99 1.44-25.96-.27-35.88-5.1-13.68-6.66-23.2-16.2-28.3-28.33-2.43-5.76-3.74-10.75-3.91-14.85-.01-.29.03-.58.04-.87.12-1.41.42-4.72-3.17-6.33-.79-.35-1.66-.53-2.61-.53-2.31 0-4.24 1.06-4.95 1.51-1.5.95-2.58 2.15-3.53 3.21-1.18 1.31-1.96 2.13-3.05 2.45-.28.08-.54.12-.75.12-.92 0-1.45-1.19-1.74-2.18-1.62-5.61 1.72-11.91 5.5-15.38 3.08-2.82 6.41-3.42 8.65-3.42.98 0 1.95.11 2.91.33.2.04.39.01.59.02.95.42 1.86.94 2.64 1.61.28.25.56.54.88.76s.67.37 1.06.32c2.52-.27-.51-4.98-1.2-5.89 2.42-10.14 7-18.79 13.31-25.04 9.92-9.83 24.08-15.72 38-15.75 6.9 0 13.52 1.61 19.69 4.78 13 6.7 21.41 19.7 21.95 33.91.08 2.18 0 4.45-.23 6.75-1.23 11.7-6.26 22.83-12.2 35.13-2.88 5.96-5.85 13.64-3.35 20.28z"/><path fill="#78A3AD" d="M127.17 53.17c.27-2.59.36-5.16.27-7.63-.63-16.47-10.34-31.51-25.34-39.24C95.05 2.67 87.45.83 79.4.83 64.02.87 48.22 7.43 37.15 18.4c-6.74 6.67-11.72 15.66-14.53 26.12-5.18-.34-10.26 1.47-14.14 5.02-5.33 4.89-9.66 13.51-7.29 21.73 1.49 5.15 5.61 7.71 10.29 6.32 2.85-.85 4.55-2.75 5.92-4.27.78-.87 1.46-1.61 2.24-2.11.34-.21.75-.39 1.14-.48-.05.55-.09 1.12-.07 1.67.2 4.84 1.68 10.56 4.39 17.01 5.7 13.57 16.25 24.18 31.33 31.53 8.5 4.14 18.33 6.23 29.27 6.23 3.19 0 6.56-.18 10-.53 6.19-.64 26.65-3.2 30.09-9.17.81-1.41.89-3 .24-4.48-1.28-2.86-4.54-2.86-5.62-2.86l-1.22.01-.32-.01c-4.61-.42-6.53-1.54-7.62-4.43-1.66-4.42.79-10.52 3.12-15.34 4.8-9.89 11.36-23.44 12.8-37.19zm-21.76 54.75c2.24 5.93 6.99 7.66 11.3 8.27-5.01 1.71-14 3.43-21.65 4.22-13.99 1.44-25.96-.27-35.88-5.1-13.68-6.66-23.2-16.2-28.3-28.33-2.43-5.76-3.74-10.75-3.91-14.85-.01-.29.03-.58.04-.87.12-1.41.42-4.72-3.17-6.33-.79-.35-1.66-.53-2.61-.53-2.31 0-4.24 1.06-4.95 1.51-1.5.95-2.58 2.15-3.53 3.21-1.18 1.31-1.96 2.13-3.05 2.45-.28.08-.54.12-.75.12-.92 0-1.45-1.19-1.74-2.18-1.62-5.61 1.72-11.91 5.5-15.38 3.08-2.82 6.41-3.42 8.65-3.42.98 0 1.95.11 2.91.33.2.04.39.01.59.02.95.42 1.86.94 2.64 1.61.28.25.56.54.88.76s.67.37 1.06.32c2.52-.27-.51-4.98-1.2-5.89 2.42-10.14 7-18.79 13.31-25.04 9.92-9.83 24.08-15.72 38-15.75 6.9 0 13.52 1.61 19.69 4.78 13 6.7 21.41 19.7 21.95 33.91.08 2.18 0 4.45-.23 6.75-1.23 11.7-6.26 22.83-12.2 35.13-2.88 5.96-5.85 13.64-3.35 20.28z"/><path fill="#78A3AD" d="M98.25 83.81c-3.28-3.09-8.04-1-11.76 1.88-1.2.92-2.14 1.97-2.97 2.88-1.26 1.39-2.24 2.49-3.76 2.93-.91.28-1.3.06-1.42 0-.49-.26-.93-.97-1.25-1.94-.03-.09-.06-.17-.09-.27-.46-1.6-.5-3.26-.27-4.89.59-4.18 3.08-8.19 5.85-10.71 3.03-2.78 8.14-4.49 12.26-3.36.12.04.26.04.38.09 1.12.36 3.49 2.33 4.52.93 1.07-1.43-1.09-4.02-2.09-4.93-.16-.13-.38-.22-.54-.35-1.81-1.25-4.39-1.76-6.52-1.67-4.43.19-8.68 2.02-11.94 5.01-3.79 3.46-7.03 8.79-7.73 14.51-.28 2.3-.17 4.66.5 6.99.77 2.65 2.19 4.63 4.12 5.68 1.02.55 2.58 1.08 4.64.76.39-.07.81-.16 1.23-.29 3.07-.91 4.84-2.86 6.4-4.59 1.22-1.35 2.71-2.93 4.32-3.82.73-.4 1.25-.65 2.09-.78.84-.13 1.64-.11 2.42.21.62.23 1.14.77 1.77.92 1.64.42 2.35-1.1 1.73-2.44-.53-1.19-1.17-2.08-1.89-2.75z"/><path fill="#2F2F2F" d="M75.54 45.63c2.01.4 4.12.92 5.96 1.88 1.87 1 3.41 2.69 5.54 3.2 1.39.33 3.17-.04 4.36-.8 2.51-1.6 3.82-4.47 3.91-7.38.05-2.09-.52-4.21-1.74-5.91-2.98-4.21-9.44-4.92-14.02-2.92-3.46 1.51-8.96 5.14-8.78 9.59.1 1.91 3.5 2.08 4.77 2.34zM46.47 33.87c1.36 1.07 3.21 1.1 4.67 1.7 1.35.56 2.46 1.48 3.41 2.36.57.53 1.73 2.11 2.93 1.3 2.88-1.92 3.96-6.83 4.17-9.96.3-4.74-2.36-10.2-7.33-10.08-2.08.05-4.22 1.08-5.98 2.72-2.35 2.22-3.84 5.37-3.6 8.42.11 1.34.79 2.79 1.73 3.54zM74.45 52.92c-4.45-1.41-9.32.77-13.57-.33-4.17-1.06-5.96-2.83-8.08-6.36-3.28-5.46-9.96-3.32-10.82 2.98-.38 2.76-.16 5.45.55 7.96 2.01 7.16 8.17 12.97 16.15 13.36 4.9.25 10.79-1.52 15.46-3.96 6.01-3.14 7.89-11.23.31-13.65z"/></svg>