<svg xmlns="http://www.w3.org/2000/svg" width="128" height="128" viewBox="0 0 128 128"><path fill="#FBB817" d="M33.739 33.923c8.823-13.503 19.864-15.539 29.268-16.115 8.379-.517 19.06 1.607 27.073 7.476 11.089 8.123 14.996 19.494 16.454 34.51.881 9.007.232 18.851-2.054 28.499-2.506 10.617 4.188 12.314 3.835 17.927-.681 11.005-18.271 20.264-41.173 20.592-22.89.329-40.985-8.389-41.746-19.391-1.073-15.309-2.362-29.216-1.153-41.277 1.246-12.496 1.954-20.682 9.496-32.221z"/><g fill="#2F2F2F"><path d="M53.459 60.5c0 3.313-2.438 5.999-5.452 5.999-3.019 0-5.464-2.686-5.464-5.999 0-3.318 2.446-6.003 5.464-6.003 3.014 0 5.452 2.685 5.452 6.003M74.764 60.5c0 3.313 2.438 5.999 5.46 5.999 3.015 0 5.468-2.686 5.468-5.999 0-3.318-2.454-6.003-5.468-6.003-3.022 0-5.46 2.685-5.46 6.003M65.697 84.717c-.388 0-.796-.016-1.213-.036-9.696-.581-13.379-5.841-13.527-6.065a1.731 1.731 0 1 1 2.855-1.961c.14.196 3.018 4.095 10.885 4.557 7.834.451 11.253-4.666 11.292-4.718a1.735 1.735 0 0 1 2.398-.514 1.733 1.733 0 0 1 .508 2.396c-.172.272-4.203 6.341-13.198 6.341z"/></g><path fill="#AA8165" d="M80.385 71.427c-.056.192-.048.408.02.628.052.212.188.388.3.573.304.528.856.917 1.249 1.377.92 1.113 1.686 2.406 2.049 3.819.296 1.145.449 2.282.689 3.439.08.436.328.769.769.905 1.041.324 1.577-.497 1.825-1.385.849-2.995-.424-6.877-2.898-8.771-.665-.516-1.658-1.093-2.506-1.257-.416-.084-.905-.076-1.233.24a.902.902 0 0 0-.264.432zM49.264 71.691c.056.192.056.398-.008.63-.056.212-.2.378-.305.563-.304.526-.856.924-1.249 1.385-.937 1.101-1.682 2.396-2.049 3.809-.305 1.157-.457 2.292-.689 3.439-.08.434-.328.776-.761.907-1.049.332-1.585-.491-1.833-1.387-.849-2.994.417-6.87 2.882-8.763.681-.526 1.673-1.091 2.526-1.267.412-.082.9-.074 1.221.24.137.14.225.286.265.444z"/><g><path fill="#878888" d="M115.188 46.378a18.754 18.754 0 0 1-1.021-2.021c-1.117-2.578-.909-4.977-1.193-7.679-.104-.993-.176-1.958-.281-2.946-.36-3.267-2.69-6.605-5.02-8.815-1.753-1.657-4.003-2.218-5.22-4.428-2.01-3.646-3.307-6.929-6.021-10.164-3.019-3.595-8.659-6.365-13.103-7.662-3.23-.957-6.581-1.417-9.94-1.477-1.633-.036-3.267.084-4.88.28-1.413.172-3.111.732-4.536.496-2.094-.34-4.171-.392-6.277-.496-4.435-.212-8.939.008-13.258 1.084-4.516 1.135-8.723 3.567-12.074 6.758-1.666 1.597-3.179 3.388-4.284 5.404-1.097 1.986-1.673 4.316-2.886 6.229-1.084 1.705-2.982 2.346-4.416 3.695-2.35 2.21-4.147 5.212-5.084 8.295-.72 2.39-.504 4.855-.876 7.294-.249 1.621-.453 2.81-1.033 4.327-.628 1.637-1.613 3.25-2.574 4.728-4.312 6.582-5.865 18.203-1.361 25.028.896 1.365 2.374 2.646 3.667 3.595 4.932 3.559 13.799 4.283 17.682-1.297 2.422-3.491 2.966-8.066 2.966-12.186 0-3.527-.841-6.906.088-10.24.889-3.243 2.826-5.761 5.945-7.314 3.318-1.649 6.401-2.73 8.675-5.873 1.953-2.687 2.458-6.297 4.948-8.643 2.811-2.654 5.917-1.954 9.375-1.169 3.163.725 6.75.641 9.796-.546 1.028-.395 2.013-.939 2.842-1.684.601-.529 1.525-2.182 2.522-1.91.581.152.516.717.524 1.203.012 3.369.981 6.603 3.631 8.883 1.614 1.391 3.627 2.2 5.349 3.429 1.874 1.333 3.247 3.219 4.407 5.164 1.045 1.775 1.153 3.959 1.397 5.905.765 6.101-2.526 12.334-.324 18.347.373.993.785 1.974 1.281 2.902.433.785.921 1.221 1.537 1.828 5.42 5.254 14.568 3.865 19.784-.931.044-.044.072-.084.124-.12 2.875-2.791 4.824-7.422 4.792-11.454-.036-4.208-.973-7.67-3.035-11.357-.821-1.507-1.806-2.948-2.635-4.462z"/></g></svg>