<svg xmlns="http://www.w3.org/2000/svg" width="128" height="128" viewBox="0 0 128 128"><path fill="#FBB817" d="M30.388 49.372c11.409-22.898 35.088-30.266 56.051-16.925 14.009 8.929 19.139 30.552 13.444 56.148-2.342 10.561 3.911 12.25 3.58 17.833-.633 10.943-17.064 20.158-38.449 20.484-21.393.327-38.282-8.346-39.003-19.29-1.45-22.046-4.134-41.271 3.158-55.902l1.219-2.348"/><path fill="#F48120" d="M79.987 22.36a4.89 4.89 0 0 1-2.995-2.636c-2.079.979-4.787.247-6.085-1.696-.032-.056-.056-.112-.08-.167-.207.199-.406.39-.637.558a4.825 4.825 0 0 1-6.284-.526c-1.617 1.641-4.413 1.896-6.308.526a5.024 5.024 0 0 1-.9-.884c-.08.167-.159.334-.263.494a4.821 4.821 0 0 1-4.022 2.15 4.779 4.779 0 0 1-2.062-.454c-.446 1.003-1.258 1.776-2.214 2.27-.342.956-.685 1.888-.956 2.804-2.644 8.737-4.5 17.698-5.894 26.713-.167 1.075-.295 2.167-.438 3.25 3.361-1.999 7.128-3.449 10.824-4.779 8.864-3.194 17.06-7.12 24.682-12.751 2.23-1.641 2.405-.462 3.735 1.616 1.45 2.262 2.947 4.405 5.049 6.117.184.144.351.287.534.43-1.243-6.945-2.82-13.834-4.858-20.596a55.778 55.778 0 0 0-.828-2.439zM91.225 12.508c-.247-.199-.494-.407-.74-.605v.047c.246.191.501.366.74.558zM56.085 12.229c.024.016.04.04.056.056.008-.008.008-.008.008-.016a.174.174 0 0 0-.064-.04z"/><g fill="#CC4079"><path d="M115.35 71.908c-.199-.964-.438-1.928-.637-2.899-1.935-9.295-8.243-34.614-10.441-39.934-2.637-6.316-7.59-13.237-12.584-16.312-.151-.096-.311-.167-.462-.255-.239-.191-.494-.367-.74-.558.016.191.04.375.032.558a4.815 4.815 0 0 1-4.309 4.619 4.81 4.81 0 0 1-.582 2.979 4.813 4.813 0 0 1-2.899 2.286c-.438.12-.884.183-1.322.183-.494 0-.964-.08-1.418-.215.295.82.582 1.641.829 2.437 2.039 6.762 3.616 13.651 4.858 20.596.366 2.039.708 4.078 1.027 6.117.972 6.292 1.402 12.767 2.143 19.179.191 1.672.415 3.337.661 4.994 3.735.812 7.598.295 11.381.191 2.438-.064 5.082-.151 7.328.972 2.333 1.187 3.313 3.934 2.724 6.419-.08.302-.199.573-.319.836-1.84 3.757-7.168 4.339-10.824 4.689-2.007.199-4.11.334-6.077.796-2.023.478-4.46 2.493-3.106 4.811 2.183 3.775 8.769 3.353 12.433 3.106.709-.047 6.658-.111 6.77-1.003.382-2.875.104-6.085-.167-9.143.573-.207 1.139-.43 1.696-.701 2.047-.988 3.903-2.643 4.516-4.912.843-3.17.174-6.723-.511-9.836zM44.625 22.392a4.81 4.81 0 0 1-2.907-2.286 4.87 4.87 0 0 1-.581-2.994c-2.31-.295-3.999-2.023-4.261-4.221-.016-.127-.047-.247-.047-.382v-.032c-.176.096-.351.184-.526.287-4.985 3.074-9.947 9.995-12.576 16.312-2.207 5.32-8.514 30.639-10.442 39.934-.207.972-.422 1.936-.645 2.899-.677 3.114-1.338 6.666-.501 9.836.605 2.27 2.461 3.924 4.508 4.912.565.271 1.123.494 1.696.701-.263 3.058-.549 6.268-.167 9.143.12.892 6.069.956 6.786 1.003 2.19.144 4.42.239 6.603-.087 2.015-.303 4.723-1.123 5.822-3.019 1.346-2.318-1.091-4.333-3.106-4.811-1.976-.462-4.078-.598-6.085-.796-1.752-.167-3.345-.375-5.042-.805a10.348 10.348 0 0 1-.828-.231c-1.721-.621-4.022-1.752-4.954-3.654a6.09 6.09 0 0 1-.311-.836c-.597-2.485.39-5.233 2.732-6.419 2.23-1.123 4.882-1.036 7.312-.972 3.783.104 7.646.621 11.381-.191.255-1.657.47-3.321.669-4.994.621-5.312 1.027-10.673 1.697-15.929.143-1.083.271-2.174.438-3.25 1.394-9.016 3.25-17.976 5.894-26.713.271-.916.613-1.848.956-2.804-.677.351-1.409.582-2.198.582-.449 0-.887-.064-1.317-.183z"/><path d="M53.505 12.763l-.629-.271-1.33-.574 1.896-.995c.143-.08.294-.175.43-.279.112-.088.168-.208.263-.311-.653-1.147-.86-2.541-.422-3.895.016-.063.055-.111.079-.175-.987-.725-2.405-.796-3.393-.016a5.332 5.332 0 0 0-.382.358l-1.402 1.617-.279-1.625V6.59l-.087-.478a4.115 4.115 0 0 0-.127-.509c-.526-1.402-2.183-2.174-3.592-1.649a2.759 2.759 0 0 0-1.584 1.45 2.777 2.777 0 0 0-.08 2.143c.063.175.144.326.239.478l.375.661.016.016.693 1.179-2.129-.328c-.056-.008-.112-.008-.184-.016h-.008a1.657 1.657 0 0 0-.191-.016c-.876.032-1.569.351-2.079.9-.23.254-.398.55-.525.86-.008.016-.016.032-.032.055a2.634 2.634 0 0 0-.175 1.091 2.787 2.787 0 0 0 2.787 2.692c.303-.008.471-.04.638-.08l2.079-.47-.94 1.919a2.008 2.008 0 0 0-.183.486 2.784 2.784 0 0 0 1.936 3.448c1.473.414 3.05-.478 3.449-1.927.048-.175.08-.343.087-.518l.191-2.167.932.924.613.605c.119.119.263.23.398.327 1.258.844 3.058.462 3.886-.773a2.808 2.808 0 0 0-.78-3.887 4.652 4.652 0 0 0-.454-.243zM82.162 20.424a2.75 2.75 0 0 0 1.688-1.314c.375-.653.454-1.41.247-2.134a3.638 3.638 0 0 0-.175-.486l-.948-1.919 2.079.47c.167.04.335.071.51.071 1.633-.087 2.859-1.179 2.915-2.684a2.796 2.796 0 0 0-2.684-2.907 2.097 2.097 0 0 0-.51.032l-2.126.327 1.099-1.856c.08-.151.167-.311.223-.478a2.783 2.783 0 0 0-.088-2.143 2.732 2.732 0 0 0-1.569-1.45c-1.417-.525-3.082.247-3.6 1.657-.056.151-.087.311-.12.461-.008.016-.008.032-.016.048l-.366 2.079-1.402-1.593c-.111-.127-.247-.247-.374-.367-.868-.676-2.095-.723-3.05-.238.063.151.144.287.191.446.485 1.474.199 3.011-.598 4.206.12.096.271.191.422.271l1.904.995-.844.358-1.131.486a2.882 2.882 0 0 0-.462.255 2.739 2.739 0 0 0-1.187 1.776 2.803 2.803 0 0 0 .414 2.103c.829 1.243 2.645 1.609 3.879.773.143-.088.279-.199.398-.319l1.139-1.139.414-.415.183 2.183c.024.175.048.342.104.51.398 1.449 1.967 2.358 3.441 1.935zM72.142 7.076a3.087 3.087 0 0 0-.223-.526 2.946 2.946 0 0 0-.708-.796c-.709-.557-1.681-.78-2.589-.478a2.907 2.907 0 0 0-.478.207l-1.88 1.027.383-2.103c.008-.04.008-.079.016-.119.024-.135.04-.271.04-.406a2.806 2.806 0 0 0-2.795-2.804 2.81 2.81 0 0 0-2.812 2.804c0 .151.024.295.056.438v.087l.382 2.135-1.887-1.068a2.82 2.82 0 0 0-.47-.207c-1.035-.335-2.15.008-2.875.749a2.779 2.779 0 0 0-.637 1.02c0 .016-.008.023-.016.032a2.823 2.823 0 0 0 .199 2.182c.199.358.462.669.796.916.239.184.502.334.805.43.167.056.342.095.501.112l2.126.255-.621.605-.924.884a2.867 2.867 0 0 0-.853 2.485c.12.741.518 1.386 1.123 1.832 1.203.868 3.035.581 3.911-.622a2.32 2.32 0 0 0 .263-.445l.916-1.936.923 1.927c.08.151.175.311.271.454.868 1.203 2.7 1.498 3.911.622a2.746 2.746 0 0 0 1.115-1.832 2.75 2.75 0 0 0-.494-2.079 3.018 3.018 0 0 0-.358-.406l-1.004-.979-.518-.509 2.11-.255c.175-.017.327-.056.494-.104.159-.056.303-.127.446-.199.327-.175.605-.398.829-.677.606-.71.837-1.706.526-2.653z"/></g><path fill="#FBB817" d="M99.883 88.595c.366-1.657.685-3.297.964-4.92-9.582 5.143-21.576 8.233-34.638 8.233-16.622 0-31.52-4.985-41.878-12.876.088 8.815 1.012 18.396 1.681 28.591.721 10.943 17.61 19.616 39.003 19.29 21.385-.326 37.815-9.541 38.449-20.484.329-5.584-5.923-7.273-3.581-17.834z"/><g><path fill="#CC4079" d="M71.497 81.12c-.486-.29-1.282.18-1.673.46a5.627 5.627 0 0 1-.916.488 12.028 12.028 0 0 1-4.555.922c-1.553 0-3.114-.329-4.56-.922a6.15 6.15 0 0 1-.904-.488c-.398-.281-1.187-.75-1.681-.46-.295.18-.342.725-.287 1.02.506 3.266 3.911 4.757 6.985 4.865.147.008.294-.018.446-.026.147.008.294.034.461.026 3.059-.108 6.471-1.599 6.969-4.865.053-.295.022-.84-.285-1.02z"/><path fill="#2F2F2F" d="M54.942 68.715c0 2.985-2.202 5.398-4.914 5.398-2.696 0-4.887-2.414-4.887-5.398 0-2.974 2.19-5.4 4.887-5.4 2.713 0 4.914 2.426 4.914 5.4z"/><path fill="#2F2F2F" d="M50.029 63.392c-.486-.032-.984.139-1.45 0a5.651 5.651 0 0 1-1.549-.701c-.338-.231-.501-.446-.924-.501-.371-.06-.8.065-1.004.386-.398.643.335 1.509.836 1.903.175.142.709.281.562.601-.131.265-.74.241-.972.241-.501 0-.924-.058-1.41-.157-.386-.084-.776-.281-1.143-.339-.383-.058-.622.132-.836.413-.343.462-.318.932 0 1.386.534.749 1.469 1.434 2.357 1.688 1.354.38 1.648-.289 2.326-1.261.295-.42.557-.874.908-1.254.501-.533 1.011-1.203 1.672-1.531.291-.133.617-.207.924-.249.187-.032.47.018.486-.263.008-.263-.311-.255-.501-.305-.095-.034-.191-.042-.282-.057z"/><g><path fill="#2F2F2F" d="M73.783 68.715c0 2.985 2.19 5.398 4.898 5.398 2.7 0 4.89-2.414 4.89-5.398 0-2.974-2.19-5.4-4.89-5.4-2.708 0-4.898 2.426-4.898 5.4z"/><path fill="#2F2F2F" d="M78.689 63.392c.482-.032.976.139 1.438 0a5.552 5.552 0 0 0 1.565-.701c.331-.231.498-.446.924-.501.358-.06.781.065.988.386.406.643-.319 1.509-.82 1.903-.191.142-.725.281-.57.601.124.265.745.241.972.241.494 0 .924-.058 1.41-.157.386-.084.769-.281 1.151-.339.382-.058.613.132.829.413.342.462.31.932 0 1.386-.534.749-1.47 1.434-2.358 1.688-1.346.38-1.648-.289-2.333-1.261-.295-.42-.542-.874-.9-1.254-.502-.533-1.012-1.203-1.68-1.531a3.166 3.166 0 0 0-.908-.249c-.195-.032-.482.018-.49-.263-.008-.263.302-.255.49-.305.109-.034.196-.042.292-.057z"/></g></g></svg>