<svg xmlns="http://www.w3.org/2000/svg" width="128" height="128" viewBox="0 0 128 128"><path fill="#D7598B" d="M123.55 78.02c-.91-2.55-1.58-5.17-2.1-7.83-1.11-5.62-1.59-11.42-2.36-17.05-.92-6.6-.41-14.16-5.16-19.44-7.46-8.28-16.22-8.66-26.43-10.08-3.62-.5-7.23-1.26-10.58-2.78-6.47-2.93-11.18-9.17-18.12-11.1-8.14-2.27-16.77 2.17-22.94 7.25-4.77 3.93-8.75 8.8-13.69 12.59-2.52 1.94-5.23 3.62-7.84 5.45-3.73 2.61-8.54 2.7-11.98 5.58-3.72 3.11-2.29 7.51.46 10.34.16.17.35.28.53.41.96 1.34 1.96 2.55 2.63 3.44 1.45 1.94 2.6 4.16 3.71 6.31 3.09 5.98 3.85 13.39 4.62 20.05.73 6.33 1.97 12.64 5.73 17.9 6.31 8.83 16.81 13.42 26.94 16.3 10.67 3.03 21.66 4.95 32.62 2.21 7.29-1.82 13.83-5.39 20.39-8.93 4.46-2.4 8.68-5.73 13.25-8.17 3.6-1.93 11.6-2.55 13.64-6.33.28-.52.46-1.01.57-1.49 1.93-4.5-2.45-10.58-3.89-14.63zm-29.09 3.51c-8.13.25-15.98 3.93-24.21 3.73-8.22-.2-16.5-2.1-23.41-6.71-8.15-5.44-11-13.87-16.64-21.39-1.29-1.73-2.76-3.32-4.35-4.79 2.36-.39 4.68-.94 6.92-1.74 10.66-3.84 15.01-9.35 25.1-1.3 3.69 2.94 8.35 4.16 12.97 4.62 4.6.46 9.78-.47 14.14 1.33 3.53 1.46 5.4 5.09 6.83 8.41 2.75 6.41 4.32 12.7 8.96 18.09-2.14-.19-4.28-.31-6.31-.25z"/><path fill="#FFF" d="M34.01 76.79c4.28-.04 9.21 5.9 8.03 10.11-1.67 5.95-9.37 2.77-11.54-1.05-1.85-3.24-1.19-8.67 3.17-9.05.11 0 .22-.01.34-.01z"/></svg>