<svg xmlns="http://www.w3.org/2000/svg" xmlns:xlink="http://www.w3.org/1999/xlink" width="128" height="128" viewBox="0 0 128 128"><path fill="#FBB817" d="M70.806 118.611c-1.012-1.597-1.914-2.45-.415-4.474 1.178-1.584 3.746-3.835 1.764-5.818-1.751-1.865-5.697-2.417-8.118-2.389-6.135.073-9.706 5.42-11.254 10.714-.739 2.54-1.268 6.972 1.365 8.683.991.642 2.202.853 3.373.987 3.201.37 11.145 1.308 13.379-1.796.63-.877.792-2.007.772-3.083-.017-.756-.126-1.524-.492-2.182a8.02 8.02 0 0 0-.374-.642z"/><defs><path id="a" d="M100.652 56.221c-4.258-15.744-12.859-35.375-29.326-41.657-5.29-2.019-10.994-3.039-16.658-2.637-7.411.528-14.724 3.583-19.876 8.93-5.083 5.274-7.841 12.481-8.719 19.75-.886 7.326-.081 14.18 1.95 21.147 1.836 6.306 2.901 14.615 1.747 21.148-1.727 9.8-2.568 20.521 6.817 26.652 4.855 3.166 10.734 4.303 16.487 4.965 7.882.906 15.837.548 23.622-.983 7.443-1.458 13.887-2.572 19.169-8.366 4.725-5.18 7.792-11.465 8.475-18.478.964-9.925-1.104-20.911-3.688-30.471z"/></defs><use xlink:href="#a" overflow="visible" fill="#FBB817"/><clipPath id="b"><use xlink:href="#a" overflow="visible"/></clipPath><path clip-path="url(#b)" fill="#2F2F2F" d="M47.444 84.556a14.676 14.676 0 0 0-2.389-5.298c-3.909-5.436-9.979-7.52-16.309-5.489-.568.179-.13 6.862-.244 7.716-.415 3.026-1.292 6.066-1.926 9.06.179-.849 4.973 1.731 5.282 2.036.91.882 1.646 1.93 2.6 2.758a7.815 7.815 0 0 0 5.859 1.833 7.823 7.823 0 0 0 5.338-3.035c2.098-2.796 2.529-6.303 1.789-9.581z"/><path fill="#FBB817" d="M30.705 68.767c-.439-3.892-1.28-8.471-3.583-11.729.829 4.055-2.34 6.407-4.478 9.308-2.324 3.157-4.225 6.716-4.562 10.686-.256 3.031.004 6.464 2.052 8.89 2.689 3.177 6.606 2.755 10.36 2.938.333-3.499.707-7.118.707-10.633.369-3.321-.114-6.087-.496-9.46zM82.471 14.848c-2.873-1.698-7.013-.898-8.35-5.505-.633-2.198.253-4.693 1.979-6.196C80.414-.62 87.46 1.969 91.592 4.695c3.275 2.157 5.648 5.518 7.037 9.186 5.16 13.656 2.036 30.241-2.564 43.652.276-.8-1.507-3.335-1.954-4.071-1.036-1.686-2.287-3.282-3.413-4.908-2.292-3.283-4.607-6.554-7.2-9.613-.366-.435-.744-.882-.918-1.422-.194-.614-.101-1.276.004-1.91.76-4.648 5.181-17.629-.113-20.761zM78.334 113.988c3.401 3.197 6.83 6.5 10.361 9.556 3.189 2.763 7.094 3.141 11.209 3.173 3.904.028 8.248-1.442 8.589-6.062.155-2.068-1.064-4.25-3.027-4.92-.492-.166-1.008-.244-1.511-.374-5.225-1.386-7.947-9.056-11.047-12.944-.326-.406-.691-.829-1.191-.976-.374-.109-.771-.048-1.158.021a26.999 26.999 0 0 0-11.803 5.262c-1.426 1.109-2.8 2.625-3.953 3.99a288.694 288.694 0 0 1 3.531 3.274z"/><g><path fill="#2F2F2F" d="M43.93 53.153c3.954-.548 5.668-4.128 4.091-4.66-1.584-.512-1.349 2.149-4.379 2.572-3.027.418-3.543-2.206-4.9-1.288-1.382.939 1.247 3.921 5.188 3.376zM59.966 49.232c-3.876.955-6.801-1.73-5.525-2.808 1.271-1.061 2.064 1.491 5.021.76 2.962-.731 2.462-3.352 4.087-3.01 1.618.366.285 4.104-3.583 5.058zM53.726 54.539c-.008.301-.13.614-.333.833-.39.415-1.203.78-1.739.951-.609.191-1.56-.016-2.052.467-.557.549-.622 1.426-.402 2.141.276.91 1.044 1.183 1.966 1.162.715-.02 1.398-.296 2.08-.512.252-.077.529-.15.772-.053.496.187.667.963.439 1.369-.26.455-1.146.72-1.581.967-.638.365-1.248.646-1.609 1.239-.483.796-.402 2.373.548 2.84 1.15.569 3.274.102 4.526.078.187-.004.39 0 .536.109 1.146.821-1.406 2.279-2.04 2.45-1.609.427-4.429-.394-5.721-1.308-1.3-.922-1.524-2.397-.748-4.083.357-.812-.902-1.341-1.276-1.848-.87-1.187-1.008-2.694-.463-4.047.601-1.503 1.523-2.267 3.088-2.633.284-.069.577-.13.816-.292.106-.073.199-.159.297-.235.39-.289.894-.378 1.373-.459.399-.065.837-.122 1.17.105.251.17.353.458.353.759z"/><path fill="#626E30" d="M37.384 63.165c3.039-.228 8.276-.236 18.86-3.714 9.174-3.014 13.972-6.456 13.972-6.456l1.069 2.21s-7.033 4.213-18.178 7.643c-7.126 2.189-15.155 2.637-15.667 2.499-.211-.061-.691-.549-.748-1.122-.08-.837.692-1.06.692-1.06z"/><path fill="#2F2F2F" d="M48.005 63.948c.784-2.828 4.583-3.022 6.785-1.617.236.146-.853.532-.91.569-.325.228-.414.443-.642.771-.967 1.431-1.829 3.056-3.835 2.962a1.82 1.82 0 0 1-.723-.162c-.683-.345-.886-1.247-.78-2.007.024-.182.057-.353.105-.516z"/><path fill="#FBB817" d="M50.739 64.594c-.126-.967.377-1.588 1.304-1.775.87-.17 1.751-.199 2.625-.365.74-.139 1.837-.199 2.259.552.626 1.122.951 2.056 1.033 3.332.04.622-.204 1.129-.683 1.532a1.605 1.605 0 0 1-.796.39c-.106.012-.618-.093-.663-.065.735-.516.687-1.414-.142-1.707-.87-.305-1.792.081-2.682-.093-.837-.163-1.82-.553-2.153-1.414a1.38 1.38 0 0 1-.102-.387z"/></g><path fill="#FBB817" d="M36.775 76.389a14.28 14.28 0 0 1 3.141 1.845c1.337 1.032 2.637 2.166 3.531 3.604 1.917 3.1 1.581 9.414-2.043 11.372-2.166 1.17-3.99.021-5.595-1.385-1.738-1.523-3.169-2.393-5.546-2.677-1.563-.188-3.758.102-5.208-.553-1.711-.772-1.044-1.345-1.224-3.271-.244-2.666-.495-5.176-.129-7.854.146-1.024.406-2.129 1.223-2.759.947-.727 2.288-.552 3.47-.337 3.001.541 5.772.894 8.38 2.015z"/><g><path fill="#E75625" d="M78.554 37.706s1.247-.541 2.417-.077c1.17.463 2.723.76 4.636 2.706.991 1.008 1.084 1.938 1.418 2.089 0 0 1.788.748 2.405 1.255 1.658 1.365 2.754 4.49 2.503 6.598-.138 1.17-.683 2.259-1.309 3.242-.357.548-.942.89-1.146 1.369-.463 1.101-.065 2.621-.463 3.791-.585 1.714-1.605 2.032-4.502 2.304-2.292.211-3.567 1.077-6.696.674-3.12-.402-5.192-2.132-5.534-2.791-.682-1.312-.771-1.751-1.129-2.063-.366-.309-1.844-1.159-2.454-2.637-.618-1.479-.789-4.132.487-5.842 0 0 .333-.232.26-1.053-.065-.82-.049-4.867 1.727-5.875 1.767-1.003 2.759-.739 3.409-1.174.644-.436.883-1.472 3.971-2.516z"/><g fill="#8E2306"><path d="M84.665 44.975c.062.041.13.081.191.122.09.057.199.113.305.097.244-.041.248-.386.187-.625-.305-1.097-.914-2.133-1.82-2.815-1.329-.991-3.092-.805-4.506-.094a6.462 6.462 0 0 0-1.894 1.455c-.756.841-1.235 2.271.463 1.467 1.279-.605 2.474-1.166 3.917-.943 1.219.182 2.141.718 3.157 1.336zM81.329 46.011c-.138.203.017.541.504.975.793.711 1.796 1.406 1.934 2.563.155 1.381-.26 2.515-.69 2.86s-.22.849.5.711c0 0 3.941-.963 3.653-3.99-.073-.788-1.032-1.84-2.345-2.506a7.876 7.876 0 0 0-2.531-.796c-.554-.073-.903 0-1.025.183zM79.33 47.396c-.048.455 0 .943.138 1.243.292.654.634 1.122 1.016 1.414.861.658.593.821.407.918-.228.122-.594.219-1.105.15-.382-.053-.898-.3-1.609-.869 0 0-1.909-1.768-1.234-3.328.398-.918 1.641-1.182 2.543-1.182.114-.004.236.008.317.089.179.19-.065.471-.211.687-.14.212-.229.537-.262.878zM87.594 53.84c0 .138-.025.317-.082.544-.422 1.723-1.918 3.722-3.811 3.892-.78.073-1.552-.24-2.194-.682-.491-.337-2.421-2.17-1.369-2.73.223-.122.492-.114.748-.093.833.069 1.654.26 2.49.244 1.012-.021 1.82-.492 2.657-1 .757-.468 1.577-.992 1.561-.175z"/></g><path fill="#8E2306" d="M73.561 50.309c-.085.634-.069 1.325.154 1.89.507 1.239 1.767 2.039 3.075 2.186.614.065 3.275-.552 1.914-1.284-.707-.386-1.471-.703-2.097-1.223a3.99 3.99 0 0 1-1.255-1.955c-.109-.398.032-1.211-.281-1.503-.707-.65-1.304.841-1.422 1.361-.04.171-.068.345-.088.528z"/></g></svg>