<svg xmlns="http://www.w3.org/2000/svg" width="128" height="128" viewBox="0 0 128 128"><path fill="#FBB817" d="M31.841 53.44C43.86 30.797 69.369 20.393 91.445 33.585c14.763 8.836 20.162 30.215 14.16 55.524-2.461 10.444 4.124 12.113 3.781 17.638-.669 10.826-17.973 19.93-40.501 20.253-22.529.327-40.312-8.254-41.073-19.075-1.532-21.796-3.245-39.524 4.43-53.988"/><g fill="#2F2F2F"><path d="M46.884 69.308c5.982 0 9.27-4.978 7.033-6.072-2.232-1.103-2.457 2.914-7.033 2.914-4.6 0-4.812-4.017-7.045-2.914-2.249 1.095 1.055 6.072 7.045 6.072zM79.041 69.308c-5.981 0-9.278-4.978-7.037-6.072 2.237-1.103 2.453 2.914 7.037 2.914s4.8-4.017 7.049-2.914c2.228 1.095-1.056 6.072-7.049 6.072zM70.834 80.899c-.646-.724-1.694-.102-2.218.378-1.771 1.623-3.792 2.237-5.832 2.332h-.196c-2.059-.095-4.083-.709-5.852-2.332-.516-.48-1.571-1.102-2.217-.378-.799.898-.173 2.245.539 2.946 1.729 1.701 3.663 2.819 7.596 2.93v.008s.004 0 .028-.008l.012.008.016-.008c3.911-.11 5.868-1.229 7.585-2.93.716-.701 1.338-2.048.539-2.946z"/></g><path fill="#FBB817" d="M107.941 18.236c-.307 7.879-.851 26.698-2.961 34.425-1.229 4.414-3.938 8.454-6.758 12.373-1.429 1.993-2.858 3.97-4.249 5.97-1.461 2.11-7.773 8.754-1.441 9.963 4.312.819 4.934-5.962 8.601-4.568 1.496.567 1.103 4.639-2.441 10.057-2.028 3.095-7.88 8.537-3.962 12.2 1.949 1.811 6.163 1.804 8.518.477 2.623-1.485 4.77-3.595 6.411-5.714 6.116-7.876 7.801-17.115 7.675-26.188-.071-4.946-1.343-9.853-1.099-14.798.182-3.891.473-7.773.973-11.632.279-2.119.492-4.229.775-6.34.382-2.946.543-5.946.827-8.907.303-3.15 1.607-12.003 1.666-13.255.067-1.658-.662-2.583-2.237-2.989-1.067-.275-2.177-.606-3.28-.744a20.61 20.61 0 0 0-4.127-.079c-1.012.079-2.158.023-2.591 1.189-.466 1.251-.257 7.24-.3 8.56zM21.016 15.125c-.264 7.883-1.071 26.687.5 34.543.886 4.497 3.312 8.718 5.848 12.83a512.318 512.318 0 0 1 3.804 6.261c1.3 2.206 7.124 9.286.721 10.034-4.355.512-4.489-6.293-8.25-5.167-1.536.457-1.434 4.544 1.713 10.203 1.815 3.233 7.253 9.077 3.083 12.451-2.083 1.674-6.276 1.359-8.529-.13-2.513-1.669-4.509-3.93-5.99-6.159-5.529-8.293-6.548-17.626-5.781-26.667.43-4.93 2.052-9.734 2.158-14.688.09-3.89.083-7.781-.142-11.672-.114-2.126-.185-4.249-.311-6.371-.185-2.969-.118-5.97-.189-8.947-.09-3.167-.756-12.09-.729-13.342.067-1.662.847-2.536 2.458-2.82 1.083-.201 2.213-.449 3.32-.504 1.374-.071 2.752 0 4.131.208 1.008.154 2.146.177 2.5 1.375.362 1.284-.28 7.238-.315 8.562z"/><path fill="#CC4079" d="M43.482 14.88a52.649 52.649 0 0 1 2.906-1.331c1.981-.811 4-1.469 6.068-1.993 5.588-1.41 11.436-1.744 17.15-1.032 5.753.717 11.365 2.481 16.441 5.269a43.162 43.162 0 0 1 8.695 6.277c1.473 1.371 2.886 3.032 3.91 4.852.46.807 1.028 2.158 1.65 3.497a482.884 482.884 0 0 0-.169 3.961c-.091 2.804-1.036 13.526-1.398 16.051-.181 1.24-.52 2.016-.957 2.985-2.804-2.252-9.14-6.742-11.652-8.061-7.23-3.8-14.586-4.91-17.366-6.052-5.048-2.064-9.856-5.718-14.054-9.203-5.872-4.875-10.691-10.762-11.991-12.235-1.057-1.197-.557-2.315.767-2.985zM27.647 31.79c.016-.496.04-1.512.09-2.835.166-.315.358-.626.559-.938 1.745-2.512 7.671-11.924 11.219-7.332 1.229 1.583 2.354 3.189 3.662 4.733a73.239 73.239 0 0 0 7.379 7.537 69.218 69.218 0 0 0 5.466 4.332c.894.646 6.363 3.914 2.429 4.146-3.752.221-9.033 1.551-12.569 2.847-4.651 1.698-12.176 4.734-16.571 8.443-.13-.284-.248-.536-.315-.705-.52-1.603-.989-2.461-1.095-4.123-.198-2.543-.372-13.31-.254-16.105z"/><path fill="#2F2F2F" d="M125.709 9.178c-1.544-1.016-3.383-.465-4.47.646-1.426 1.489-3.032 22.863-3.257 24.635-.284 2.111-.496 4.222-.775 6.34-.5 3.859-.792 7.742-.973 11.632-.244 4.946 1.028 9.853 1.099 14.798.126 9.073-1.56 18.312-7.675 26.188-1.642 2.119-3.788 4.229-6.411 5.714-2.354 1.327-6.568 1.334-8.518-.477-3.918-3.663 1.934-9.104 3.962-12.2 3.544-5.418 3.938-9.49 2.441-10.057-3.667-1.394-4.289 5.387-8.601 4.568-6.332-1.209-.02-7.853 1.441-9.963 1.39-2 2.82-3.978 4.249-5.97 2.82-3.918 5.529-7.958 6.758-12.373 2.111-7.727 2.808-30.692 3.107-38.56.083-1.843.378-5.552-2.745-6.072-2.895-.484-4.143 1.387-4.186 3.143-.039.992-.165 3.926-.331 7.403-4.839-5.064-10.79-9.025-17.303-11.613-6.571-2.625-13.687-3.878-20.768-3.705-7.037.174-14.046 1.772-20.406 4.8a46.037 46.037 0 0 0-12.857 9.077 29.568 29.568 0 0 0-1.493 1.623c.118-4.615.245-8.951.299-10.191.067-1.756-1.055-3.709-3.965-3.438-3.146.295-3.119 4.02-3.186 5.859-.252 7.872-1.201 30.826.37 38.682.886 4.497 3.312 8.718 5.848 12.83a512.318 512.318 0 0 1 3.804 6.261c1.3 2.206 7.124 9.286.721 10.034-4.355.512-4.489-6.293-8.25-5.167-1.536.457-1.434 4.544 1.713 10.203 1.815 3.233 7.253 9.077 3.083 12.451-2.083 1.674-6.276 1.359-8.529-.13-2.513-1.669-4.509-3.93-5.99-6.159-5.529-8.293-6.548-17.626-5.781-26.667.43-4.93 2.052-9.734 2.158-14.688.09-3.89.083-7.781-.142-11.672-.114-2.126-.185-4.249-.311-6.371-.101-1.787-.184-23.225-1.495-24.808-.997-1.19-2.784-1.867-4.411-.961-1.461.819-1.571 2.166-1.551 3.457.02.433.027.866.027 1.269-.091 5.363.902 30.022.815 35.385-.087 5.427-1.367 10.77-1.871 16.169-.464 4.954.295 15.2 2.154 22.713 1.886 7.632 10.621 19.705 19.587 19.76 3.607.016 7.769-.787 10.286-2.795 1.24-.973 1.886-2.517 2.229-4.005 1.004-4.348-.338-7.923-1.977-11.873-.433-1.032.532-.815 1.528-.969.859-.126 1.764-.527 2.449-.921 1.658-.949 2.517-2.434 2.784-3.973.323-1.886-.043-3.883-.721-5.722-.618-1.646-4.878-11.215-7.418-15.342-.166-.268-.461-.748-.8-1.315 18.308-11.813 42.958-16.365 63.392 1.796a87.58 87.58 0 0 1-1.177 1.717c-2.843 3.93-7.781 13.176-8.51 14.771-.803 1.788-1.319 3.753-1.13 5.659.162 1.56.914 3.095 2.509 4.163.649.441 1.524.906 2.367 1.091.977.229 1.961.079 1.465 1.079-2.123 4.28-5.336 11.79-.898 15.854 2.366 2.181 6.458 3.284 10.065 3.52 8.955.591 18.524-10.825 20.954-18.303 2.395-7.364 3.879-17.532 3.776-22.509-.125-5.418-1.028-10.837-.716-16.256.307-5.355 3.044-29.881 3.339-35.236.02-.401.075-.834.114-1.264.122-1.288.102-2.643-1.295-3.565zM58.453 41.434c-3.752.221-9.033 1.551-12.569 2.847-4.651 1.698-12.176 4.734-16.571 8.443-.13-.284-.248-.536-.315-.705-.52-1.603-.989-2.461-1.095-4.123-.201-2.543-.374-13.31-.256-16.106.016-.496.04-1.512.09-2.835.166-.315.358-.626.559-.938 1.745-2.512 7.671-11.924 11.219-7.332 1.229 1.583 2.354 3.189 3.662 4.733a73.239 73.239 0 0 0 7.379 7.537 69.218 69.218 0 0 0 5.466 4.332c.895.646 6.365 3.914 2.431 4.147zm27.672 3.921c-7.23-3.8-14.586-4.91-17.366-6.052-5.048-2.064-9.856-5.718-14.054-9.203-5.872-4.875-10.691-10.762-11.991-12.235-1.055-1.197-.555-2.315.769-2.985a52.649 52.649 0 0 1 2.906-1.331c1.981-.811 4-1.469 6.068-1.993 5.588-1.41 11.436-1.744 17.15-1.032 5.753.717 11.365 2.481 16.441 5.269a43.162 43.162 0 0 1 8.695 6.277c1.473 1.371 2.886 3.032 3.91 4.852.46.807 1.028 2.158 1.65 3.497a482.884 482.884 0 0 0-.169 3.961c-.091 2.804-1.036 13.526-1.398 16.051-.181 1.24-.52 2.016-.957 2.985-2.805-2.252-9.142-6.741-11.654-8.061z"/></svg>