<svg xmlns="http://www.w3.org/2000/svg" width="128" height="128" viewBox="0 0 128 128"><path fill="#40C0E7" d="M127.61 95.13c0-.19-.01-.39-.05-.58-.03-.11-.04-.22-.07-.32.04-.33.06-.67.05-1.01l-1.23-31.56a6.974 6.974 0 0 0-1.12-3.52l-17.83-27.29c-.59-.9-1.38-1.65-2.31-2.2L71.44 8.99a7.11 7.11 0 0 0-3.04-.94L35.88 5.89l-.46-.02c-1.1 0-2.18.26-3.16.76L4.14 21.02a6.929 6.929 0 0 0-3.52 8.04l24.56 87.99c.85 3.06 3.64 5.07 6.68 5.07.55 0 1.1-.06 1.65-.2l88.74-21.7a6.968 6.968 0 0 0 3.88-2.54c.04-.02.07-.03.11-.05.08-.04.12-.12.19-.17.17-.13.33-.27.47-.42.11-.12.21-.24.29-.37.1-.17.18-.34.25-.52.06-.16.11-.32.14-.49.01-.07.05-.13.06-.21.01-.11-.03-.21-.03-.32z"/><g fill="#FFF"><path d="M119.49 65.13l.65 16.47-9.38-15.92zM61.54 73.2c2.13-2.94 4.66-5.88 6.55-8.96 1.11-1.81 2.23-3.58 3.39-5.36.06-.09.18-.32.33-.58l6 26.86-18.34-9.33c.7-.87 1.41-1.72 2.07-2.63zM103.4 89.93c.42-1.03.36-2.64.47-3.46.79-5.85.87-11.94 1.96-17.77l13.52 22.95-15.95-1.72zM83.55 84.31l-5.8-25.96 22.92 6.31zM40.79 63.39l3.68-26.36 23.25 16.44zM30.29 39.56c2.54-1.74 5.13-3.5 7.66-5.32l1.05.15-3.7 26.42-12.68-15.6c2.58-1.87 5.05-3.87 7.67-5.65zM39.66 72.24l35.86 18.24-40.19 19.78zM67.94 14.98l33.6 19.66 16.21 24.8-11.57.73-31.04-8.54-30.39-21.49-5.14-17.05zM33.75 13.67l4.44 14.77-26.16-3.67zM10.84 39.87l23.4 28.79-4.45 39.12z"/></g></svg>