<svg xmlns="http://www.w3.org/2000/svg" xmlns:xlink="http://www.w3.org/1999/xlink" width="128" height="128" viewBox="0 0 128 128"><g fill="#FBB817"><path d="M92.045 102.107c.025-.97.084-1.939.11-2.867.093-3.07.475-6.153.788-9.21.635-6.127 1.363-12.259 1.465-18.424.508-33.02-9.299-52.257-31.826-52.562-22.452-.305-32.792 18.657-33.173 51.762-.008 1.973.009 3.925.093 5.852-.44 5.763-.66 11.835-.66 18.144 0 5.073-.009 10.087-.704 14.347-.194 1.186-.406 2.401-.093 3.565 3.066 11.488 21.909 14.024 33.562 14.143 6.936.072 14.203-.872 20.749-2.778 7.055-2.05 15.583-6.881 11.78-14.274-.423-.83-1.008-1.597-1.397-2.439-.686-1.461-.753-3.362-.694-5.259z"/><path d="M22.125 91.038c2.473 2.922 6.784 4.776 10.112 5.827.525.203 3.498-6.932 3.709-7.427-.965-1.139-2.21-1.888-3.404-2.685-.745-.496-1.508-1.05-1.957-1.905-1.448-2.731 1.55-5.539 2.016-8.122a28.26 28.26 0 0 0-.313-11.433c-.212-.89-2.625-1.681-2.625-1.681s-1.321 4.484-3.819 8.541C23.371 76.158 19.991 79.75 20 85.089c.008 2.519.847 4.433 2.125 5.949z"/></g><g fill="#CC4079"><path d="M88.31 11.812c-.458 3.341-10.18 4.781-21.714 3.218-11.543-1.562-20.537-5.539-20.08-8.875.449-3.341 10.171-4.78 21.714-3.218 11.543 1.562 20.529 5.538 20.08 8.875zM84.507 28.127c-.415 3.091-9.417 4.425-20.096 2.977-10.68-1.444-18.996-5.124-18.572-8.214.415-3.087 9.409-4.421 20.088-2.973 10.679 1.443 19.004 5.123 18.58 8.21z"/><path d="M46.736 5.511s-4.413 8.769-.788 18.212l23.103 2.858 4.742-15.913-27.057-5.157z"/><path d="M88.31 11.138s1.939 9.634-4.065 17.772l-23.036-3.388-.338-16.603 27.439 2.219z"/></g><defs><path id="a" d="M80.112 9.199c-.254 1.888-6.064 2.659-12.966 1.723-6.902-.935-12.288-3.222-12.034-5.11.253-1.885 5.124-5.581 13.33-4.467 8.215 1.109 11.924 5.97 11.67 7.854z"/></defs><use xlink:href="#a" overflow="visible" fill="#FFF"/><clipPath id="b"><use xlink:href="#a" overflow="visible"/></clipPath><path clip-path="url(#b)" fill="#37B4E2" d="M65.613 10.685s7.123.119 8.156-3.654c1.033-3.773-5.327-5.687-5.327-5.687l3.075-1.728 9.968 4.903 1.753 6.894-3.583 3.798-11.314.11-2.728-4.636z"/><g fill="#2F2F2F"><path d="M53.071 59.703c4.887.208 7.741-3.734 5.954-4.717-1.787-.965-2.1 2.295-5.844 2.134-3.743-.161-3.785-3.438-5.623-2.625-1.872.826.635 4.997 5.513 5.208zM78.13 60.779c-4.886-.212-7.402-4.383-5.53-5.208 1.854-.813 1.914 2.469 5.64 2.625 3.744.161 4.048-3.1 5.852-2.134 1.779.986-1.075 4.929-5.962 4.717zM70.187 68.888c-1.16-.237-2.295.661-3.472.779a8.362 8.362 0 0 1-3.777-.517c-.847-.322-2.176-1.13-3.006-.373-2.532 2.316 4.015 3.692 5.149 3.777 1.905.144 4.683-.152 5.886-1.859.22-.313.338-.72.211-1.076-.145-.414-.543-.638-.991-.731z"/></g><path fill="#FBB817" d="M94.729 71.293c.068.25.144.483.229.644.576 1.042 1.423 2.558 2.549 2.935 2.032.677 4.269-2.638 5.708-4.806 1.804-2.714 5.53-3.443 8.765-3.011 1.092.144 2.193.407 3.108 1.025.906.618 1.6 1.656 1.558 2.756-.051 1.292-1.067 2.359-2.177 3.032-1.101.673-2.362 1.088-3.421 1.838-2.676 1.888-3.54 5.445-5.648 7.956-3.48 4.154-10.603 4.684-14.728 1.105-1.668-1.453-2.549-3.671-2.693-5.881-.144-2.397.407-5.501 1.703-7.576.661-1.055 4.667-3.464 4.599-4.298.076.999.161 2.003.237 3.006.025.318.102.83.211 1.275z"/><path fill="#37B4E2" d="M100.268 74.549c.068.072.136.144.211.22 1.788 1.736 4.861 2.837 7.182 3.616.703.237 1.457.445 2.176.267 1.067-.267.805-1.063 1.355-1.672 2.16-2.41 9.341-3.159 9.358-7.245 0-.979-.55-1.901-1.312-2.524-.753-.618-1.693-.974-2.643-1.22-2.989-.779-6.368-1.042-9.4-.347-3.117.716-4.057 1.686-4.912 4.717-.44 1.576-3.869 2.067-2.015 4.188z"/><path fill="#FFF" d="M102.936 72.216c-.668.529-1.372 1.452-.559 2.172 1.406 1.232 3.176 1.724 4.904 2.329 1.508.525 2.143-.106 2.778-1.524.695-1.542 1.651-2.053 3.159-2.579 1.567-.542 2.914-.822 4.319-1.757.525-.352 1.042-.83 1.118-1.457.068-.589-.279-1.169-.745-1.533-.796-.622-2.101-.957-3.066-1.207-2.117-.55-4.505-.737-6.648-.246a6.046 6.046 0 0 0-3.252 1.981c-.872 1.05-.754 2.685-1.71 3.569a3.932 3.932 0 0 1-.298.252z"/><g><path fill="#37B4E2" d="M26.479 94.24c-.068-.64.026-1.33.153-1.894.406-1.816 1.533-3.603 2.879-4.835 1.152-1.055 3.658-2.765 5.183-1.715.423.292.728.724 1.092 1.088 1.575 1.579 4.005 1.757 5.835 2.964 4.074 2.685 7.19 9.442 1.33 12.263-1.914.915-5.047-.339-6.851-1.177-2.304-1.067-4.345-2.604-6.563-3.815-.94-.512-2.245-.927-2.77-1.893a2.512 2.512 0 0 1-.288-.986z"/><path fill="#FFF" d="M28.316 93.274c-.119-.339-.127-.779.008-1.385.305-1.359 1.168-2.688 2.21-3.599.898-.779 2.845-2.037 4.048-1.237.339.225.576.551.864.826 1.253 1.198 3.159 1.351 4.607 2.274 1.821 1.16 3.93 3.104 3.896 5.437-.017 1.677-1.278 3.23-2.93 3.527-2.27.411-5.378-1.321-7.123-2.63-1.084-.813-1.999-1.253-3.244-1.668-.786-.257-2.039-.681-2.336-1.545z"/></g></svg>