<svg xmlns="http://www.w3.org/2000/svg" width="128" height="128" viewBox="0 0 128 128"><path fill="#40C0E7" d="M124.61 33.36l-5.7-14.21c-.26-.66-.68-1.25-1.21-1.72L104.03 5.29c-.53-.47-1.17-.82-1.85-1L87.4.3c-.39-.1-.79-.16-1.2-.16-.42 0-.84.06-1.25.17L70.68 4.36c-2.1.6-3.49 2.59-3.33 4.76l.75 9.96c-.48.28-.95.6-1.38 1.07-1.81 1.94-2.28 4.72-2.42 7.27-.23 4.2-.52 8.41-.75 12.6-17.95-5.87-39.7-1.99-52.63 15.47-13.3 17.96-9.42 47.49 9.39 62.71 18.8 15.22 50.87 11.53 65.04-4.66 11.83-13.51 12.78-35.38 4.32-51.79 4.05-.92 8.07-1.9 12.12-2.81 2.49-.56 5.16-1.49 6.77-3.6.16-.21.29-.43.41-.65l9.25-.4a4.57 4.57 0 0 0 4.33-3.86l2.33-14.64c.13-.83.04-1.66-.27-2.43zm-50.42 75.93c-10.78 12.31-35.18 15.12-49.48 3.54-14.31-11.58-17.26-34.05-7.14-47.71 12.91-17.43 37.39-17.09 51.71-5.5 14.3 11.58 16.76 36.14 4.91 49.67z"/><g fill="#FFF"><path d="M84.44 5.23l.54 5.59-9.08-3.17zM100.98 8.71l13.67 12.15 4.78 11.91-4.71-.63-13.23-6.64-11.68-12.34-.74-7.65zM109.87 45.34l-4.48-1.41 1.1-.85 6.43-4.96 3.2 9.18zM72.57 17.28l.11.2 3.41 6.46 3.43 6.5-4.76 14.86c-.03-.02-.05-.03-.07-.04l-1.37-18.18-.72-9.57-.03-.23zM102.69 40.21l-.21-9.08 7.26 3.65zM88.53 18.48l6.91 7.3-10.01 1.57zM97.87 30.04l.23 9.94-10.56-8.31zM81.57 24.49l-2.4-4.55-1.29-2.43-2.78-5.28 9.58 3.35zM78.81 48.2c-.04-.04-.09-.07-.14-.11l4.5-14.03 12.31 9.7-16.67 4.44zM119.21 42.24l-1.78-5.11 2.54.34zM99.47 50.51l-13.7.59 14.68-3.91 2.37.74 6.81 2.14z"/></g></svg>