<svg xmlns="http://www.w3.org/2000/svg" width="128" height="128" viewBox="0 0 128 128"><path fill="#FBB817" d="M96.323 60.533c-29.906 0-30.609 33.522-30.609 40.151 0 6.644 13.698 12.018 30.609 12.018 16.904 0 30.606-5.374 30.606-12.018 0-6.629-.715-40.151-30.606-40.151z"/><path fill="#2F2F2F" d="M80.583 82.038c-.425.274-.962.35-1.464.339-1.266-.007-3.108-.551-4.133.383-.822.768-1.035 2.171-.743 3.206.426 1.598 1.962 1.555 3.174 2.305.311.188.429.606.321.931a.597.597 0 0 1-.235.325c-.512.325-1.233.173-1.81.173-.638 0-1.216-.073-1.742.335-.865.656-1.215 2.435-.768 3.416.548 1.161 2.03 1.655 2.853 2.604.429.505 2.001 2.46.84 2.929-1.154.476-3.545.339-3.866-1.154-.368-1.724-1.912-3.015-2.463-4.696-.581-1.753-.12-3.441 1.19-4.753.624-.642-.097-1.944-.162-2.705a5.595 5.595 0 0 1 .584-2.875c1.306-2.723 4.278-2.167 6.791-2.651.577-.108 1.05-.064 1.533.379.454.398.684 1.152.1 1.509z"/><path fill="#FBB817" d="M1.071 100.684c0 6.644 13.702 12.018 30.606 12.018 16.912 0 30.609-5.374 30.609-12.018 0-6.629-.703-40.151-30.609-40.151-29.891 0-30.606 33.522-30.606 40.151z"/><path fill="#2F2F2F" d="M47.417 82.038c.425.274.962.35 1.464.339 1.266-.007 3.109-.551 4.133.383.822.768 1.035 2.171.743 3.206-.426 1.598-1.962 1.555-3.174 2.305-.31.188-.429.606-.321.931a.595.595 0 0 0 .234.325c.512.325 1.233.173 1.811.173.638 0 1.215-.073 1.742.335.865.656 1.215 2.435.769 3.416-.549 1.161-2.031 1.655-2.853 2.604-.429.505-2.002 2.46-.84 2.929 1.154.476 3.545.339 3.866-1.154.368-1.724 1.912-3.015 2.464-4.696.581-1.753.119-3.441-1.19-4.753-.625-.642.097-1.944.162-2.705a5.606 5.606 0 0 0-.584-2.875c-1.306-2.723-4.277-2.167-6.792-2.651-.577-.108-1.049-.064-1.533.379-.455.398-.685 1.152-.101 1.509zM107.374 78.2c-.101.116-2.355 2.821-6.528 2.323-4.177-.502-5.728-3.665-5.792-3.794a1.296 1.296 0 0 1 .617-1.731c.638-.317 1.417-.043 1.735.613.036.069 1.031 2.005 3.75 2.33 2.727.325 4.191-1.371 4.206-1.378a1.29 1.29 0 0 1 1.829-.184c.55.447.637 1.266.183 1.821zM86.499 74.832c-.087.101-2.063 2.474-5.72 2.034-3.661-.437-5.021-3.212-5.078-3.324a1.142 1.142 0 0 1 .544-1.519 1.136 1.136 0 0 1 1.519.538c.029.061.909 1.758 3.289 2.043 2.388.285 3.668-1.203 3.679-1.21a1.127 1.127 0 0 1 1.602-.159c.481.39.561 1.11.165 1.597zM20.627 78.2c.101.116 2.355 2.821 6.527 2.323 4.177-.502 5.728-3.665 5.792-3.794a1.296 1.296 0 0 0-.617-1.731 1.293 1.293 0 0 0-1.734.613c-.037.069-1.032 2.005-3.751 2.33-2.727.325-4.191-1.371-4.206-1.378a1.29 1.29 0 0 0-1.829-.184 1.293 1.293 0 0 0-.182 1.821zM41.502 74.832c.086.101 2.063 2.474 5.72 2.034 3.661-.437 5.021-3.212 5.078-3.324a1.142 1.142 0 0 0-.544-1.519 1.136 1.136 0 0 0-1.519.538c-.029.061-.909 1.758-3.289 2.043-2.388.285-3.668-1.203-3.679-1.21a1.127 1.127 0 0 0-1.602-.159 1.137 1.137 0 0 0-.165 1.597z"/><g><path fill="#FBB817" d="M111.413 103.613c-5.378 1.937-11.311-.79-13.266-6.099-1.951-5.302.812-11.181 6.186-13.118 5.363-1.926 11.311.808 13.272 6.11 1.948 5.313-.826 11.181-6.192 13.107z"/><path fill="#FBB517" d="M111.304 103.318c-5.212 1.877-10.963-.766-12.858-5.912-1.891-5.139.787-10.837 5.996-12.714 5.198-1.867 10.963.783 12.865 5.922 1.887 5.149-.801 10.837-6.003 12.704z"/><path fill="#FAB318" d="M111.196 103.023c-5.047 1.818-10.617-.742-12.451-5.725-1.831-4.977.762-10.494 5.806-12.312 5.034-1.808 10.616.758 12.458 5.734 1.827 4.988-.776 10.496-5.813 12.303z"/><path fill="#FAB018" d="M111.087 102.729c-4.883 1.758-10.27-.717-12.044-5.538-1.771-4.814.737-10.151 5.616-11.909 4.869-1.749 10.269.733 12.05 5.547 1.768 4.823-.75 10.151-5.622 11.9z"/><path fill="#FAAE19" d="M110.979 102.434c-4.717 1.698-9.922-.694-11.637-5.351-1.711-4.651.712-9.808 5.426-11.507 4.704-1.689 9.921.708 11.643 5.36 1.708 4.66-.725 9.809-5.432 11.498z"/><path fill="#F9AB19" d="M110.87 102.139c-4.552 1.639-9.576-.669-11.23-5.164-1.651-4.489.687-9.464 5.236-11.104 4.54-1.631 9.574.683 11.235 5.172 1.649 4.498-.698 9.466-5.241 11.096z"/><path fill="#F9A81A" d="M110.762 101.844c-4.387 1.58-9.229-.645-10.823-4.976-1.591-4.326.662-9.121 5.047-10.701 4.375-1.572 9.227.659 10.828 4.984 1.587 4.334-.675 9.122-5.052 10.693z"/><path fill="#F9A61A" d="M110.653 101.55c-4.223 1.52-8.882-.622-10.416-4.79-1.532-4.164.637-8.777 4.857-10.298 4.21-1.512 8.879.634 10.42 4.797 1.529 4.17-.648 8.779-4.861 10.291z"/><path fill="#F8A31A" d="M110.544 101.255c-4.057 1.46-8.535-.597-10.009-4.602-1.472-4.001.612-8.435 4.667-9.896 4.045-1.454 8.532.608 10.014 4.609 1.468 4.008-.624 8.436-4.672 9.889z"/><path fill="#F8A01B" d="M110.436 100.96c-3.892 1.4-8.188-.573-9.602-4.416-1.412-3.838.587-8.091 4.478-9.493 3.88-1.395 8.185.584 9.606 4.421 1.408 3.846-.599 8.094-4.482 9.488z"/><path fill="#F89E1B" d="M110.328 100.666c-3.728 1.341-7.841-.549-9.195-4.229-1.352-3.675.562-7.747 4.288-9.09 3.716-1.335 7.837.559 9.198 4.234 1.348 3.681-.574 7.75-4.291 9.085z"/><path fill="#F79B1C" d="M110.219 100.371c-3.562 1.281-7.494-.525-8.788-4.042-1.292-3.513.538-7.404 4.098-8.688 3.551-1.276 7.491.534 8.792 4.047 1.287 3.519-.549 7.407-4.102 8.683z"/><path fill="#F7991C" d="M110.11 100.076c-3.397 1.222-7.147-.501-8.381-3.854-1.232-3.35.513-7.061 3.908-8.284 3.387-1.217 7.143.509 8.384 3.859 1.229 3.354-.522 7.062-3.911 8.279z"/><path fill="#F7961D" d="M110.002 99.782c-3.232 1.162-6.8-.478-7.974-3.667-1.172-3.188.487-6.718 3.718-7.882 3.222-1.158 6.796.484 7.976 3.671 1.169 3.192-.497 6.72-3.72 7.878z"/><path fill="#F6931D" d="M109.893 99.487c-3.067 1.103-6.453-.453-7.566-3.48-1.112-3.025.463-6.374 3.528-7.479 3.057-1.099 6.449.459 7.569 3.484 1.109 3.028-.472 6.376-3.531 7.475z"/><path fill="#F6911D" d="M109.785 99.192c-2.902 1.043-6.106-.429-7.16-3.293-1.052-2.862.438-6.031 3.339-7.076 2.893-1.04 6.102.434 7.162 3.296 1.048 2.865-.448 6.033-3.341 7.073z"/><path fill="#F68E1E" d="M109.676 98.897c-2.737.983-5.76-.405-6.752-3.106-.992-2.7.413-5.688 3.149-6.673 2.728-.981 5.76.407 6.754 3.108.994 2.7-.422 5.691-3.151 6.671z"/><path fill="#F58B1E" d="M109.567 98.603c-2.572.924-5.412-.381-6.345-2.919-.932-2.537.388-5.344 2.959-6.271 2.563-.921 5.413.382 6.347 2.921.934 2.537-.397 5.347-2.961 6.269z"/><path fill="#F5891F" d="M109.459 98.308c-2.407.864-5.065-.357-5.938-2.732-.872-2.375.363-5.001 2.77-5.868 2.398-.863 5.065.357 5.939 2.733.874 2.374-.372 5.004-2.771 5.867z"/><path fill="#F5861F" d="M109.351 98.013c-2.242.804-4.719-.333-5.531-2.545-.812-2.211.338-4.657 2.58-5.465 2.233-.804 4.717.333 5.532 2.546.813 2.211-.348 4.661-2.581 5.464z"/><path fill="#F48420" d="M109.242 97.719c-2.077.745-4.372-.309-5.125-2.358s.313-4.314 2.39-5.062c2.069-.745 4.37.308 5.125 2.358.754 2.047-.321 4.317-2.39 5.062z"/><path fill="#F48120" d="M109.133 97.424c-1.912.685-4.025-.285-4.717-2.171-.692-1.887.289-3.971 2.2-4.66 1.904-.685 4.018.285 4.717 2.171.689 1.886-.295 3.974-2.2 4.66z"/></g><g><path fill="#FBB817" d="M22.264 103.645c-5.298 1.944-11.138-.793-13.06-6.117-1.922-5.323.797-11.22 6.091-13.164 5.28-1.933 11.134.815 13.071 6.131 1.905 5.331-.815 11.221-6.102 13.15z"/><path fill="#FBB517" d="M22.157 103.35c-5.136 1.884-10.796-.769-12.659-5.929-1.864-5.16.772-10.876 5.904-12.76 5.118-1.874 10.808.784 12.669 5.943 1.863 5.16-.789 10.875-5.914 12.746z"/><path fill="#FAB318" d="M22.05 103.054c-4.973 1.824-10.454-.745-12.258-5.742-1.804-4.997.748-10.531 5.717-12.356 4.956-1.814 10.466.759 12.269 5.755 1.803 4.998-.765 10.532-5.728 12.343z"/><path fill="#FAB018" d="M21.943 102.758c-4.811 1.765-10.112-.721-11.857-5.554-1.746-4.833.723-10.187 5.53-11.952 4.793-1.755 10.124.734 11.867 5.567 1.745 4.834-.739 10.187-5.54 11.939z"/><path fill="#FAAE19" d="M21.837 102.463c-4.648 1.705-9.771-.697-11.457-5.367-1.687-4.67.699-9.842 5.343-11.548 4.632-1.695 9.782.709 11.466 5.378 1.686 4.672-.715 9.844-5.352 11.537z"/><path fill="#F9AB19" d="M21.73 102.167c-4.486 1.645-9.429-.672-11.056-5.179-1.628-4.508.674-9.498 5.155-11.144 4.47-1.636 9.44.685 11.065 5.19 1.627 4.508-.689 9.499-5.164 11.133z"/><path fill="#F9A81A" d="M21.623 101.872c-4.323 1.585-9.088-.648-10.656-4.991-1.569-4.344.65-9.153 4.969-10.74 4.307-1.577 9.097.66 10.664 5.002 1.568 4.344-.664 9.154-4.977 10.729z"/><path fill="#F9A61A" d="M21.516 101.576c-4.161 1.525-8.746-.624-10.255-4.804-1.51-4.181.625-8.809 4.781-10.335 4.146-1.517 8.755.635 10.263 4.814 1.509 4.181-.638 8.809-4.789 10.325z"/><path fill="#F8A31A" d="M21.409 101.281c-3.998 1.466-8.404-.6-9.854-4.617-1.451-4.018.601-8.464 4.594-9.931 3.983-1.458 8.413.61 9.862 4.625 1.45 4.018-.614 8.466-4.602 9.923z"/><path fill="#F8A01B" d="M21.303 100.985c-3.836 1.406-8.063-.575-9.454-4.429-1.392-3.855.576-8.12 4.407-9.527 3.821-1.398 8.071.585 9.461 4.438 1.391 3.854-.589 8.12-4.414 9.518z"/><path fill="#F89E1B" d="M21.196 100.689c-3.673 1.346-7.721-.551-9.053-4.241-1.333-3.692.551-7.775 4.219-9.123 3.659-1.339 7.729.56 9.061 4.249 1.332 3.691-.565 7.777-4.227 9.115z"/><path fill="#F79B1C" d="M21.089 100.394c-3.511 1.287-7.379-.527-8.652-4.054-1.274-3.529.527-7.431 4.032-8.719 3.497-1.279 7.387.535 8.659 4.061 1.273 3.528-.539 7.432-4.039 8.712z"/><path fill="#F7991C" d="M20.982 100.099a6.416 6.416 0 0 1-8.251-3.867c-1.215-3.365.502-7.086 3.845-8.315 3.335-1.22 7.045.511 8.258 3.873 1.214 3.364-.514 7.088-3.852 8.309z"/><path fill="#F7961D" d="M20.875 99.803a6.105 6.105 0 0 1-7.851-3.679c-1.157-3.202.478-6.742 3.658-7.911 3.172-1.161 6.703.485 7.857 3.684 1.156 3.202-.488 6.744-3.664 7.906z"/><path fill="#F6931D" d="M20.769 99.507a5.794 5.794 0 0 1-7.45-3.491c-1.098-3.039.453-6.397 3.471-7.507 3.011-1.101 6.361.46 7.456 3.496 1.095 3.038-.465 6.4-3.477 7.502z"/><path fill="#F6911D" d="M20.662 99.212a5.483 5.483 0 0 1-7.049-3.304c-1.039-2.875.429-6.052 3.283-7.103 2.849-1.042 6.019.436 7.055 3.308 1.037 2.875-.439 6.055-3.289 7.099z"/><path fill="#F68E1E" d="M20.555 98.916a5.17 5.17 0 0 1-6.648-3.116c-.98-2.712.404-5.708 3.096-6.698 2.686-.982 5.676.411 6.654 3.12.978 2.711-.414 5.71-3.102 6.694z"/><path fill="#F58B1E" d="M20.448 98.621a4.86 4.86 0 0 1-6.249-2.929c-.921-2.55.38-5.363 2.909-6.294 2.524-.923 5.334.386 6.253 2.932.921 2.547-.387 5.365-2.913 6.291z"/><path fill="#F5891F" d="M20.341 98.325a4.55 4.55 0 0 1-5.848-2.741c-.862-2.387.355-5.019 2.722-5.89a4.563 4.563 0 0 1 5.852 2.743c.861 2.385-.363 5.021-2.726 5.888z"/><path fill="#F5861F" d="M20.234 98.029a4.236 4.236 0 0 1-5.447-2.554c-.803-2.223.331-4.674 2.535-5.486 2.2-.804 4.65.336 5.451 2.555.802 2.222-.338 4.678-2.539 5.485z"/><path fill="#F48420" d="M20.127 97.734a3.925 3.925 0 0 1-5.046-2.366c-.744-2.06.306-4.33 2.347-5.082a3.94 3.94 0 0 1 5.05 2.367c.744 2.058-.312 4.333-2.351 5.081z"/><path fill="#F48120" d="M20.021 97.438a3.614 3.614 0 0 1-4.645-2.179 3.655 3.655 0 0 1 2.16-4.678c1.875-.685 3.96.289 4.649 2.179.678 1.897-.289 3.989-2.164 4.678z"/></g><g><path fill="#CC4079" d="M35.612 44.102c5.626 8.375 15.653 12.255 22.88 19 .771.721 1.537 1.493 2.315 2.222.837.771 1.847 2.539 3.188 2.618 1.349-.079 2.352-1.847 3.188-2.618.787-.729 1.551-1.501 2.323-2.222 7.228-6.744 17.254-10.625 22.873-19 1.688-2.503 2.921-5.194 3.427-8.166.498-2.986.476-7.271-.743-10.113-2.878-6.716-7.783-10.561-14.521-10.524-.252.007-.498.007-.75.015-2.64.043-5.201.634-7.625 1.645-2.597 1.089-4.378 2.726-6.679 4.191-.873.555-2.114.548-2.979 0-2.308-1.465-4.083-3.102-6.68-4.191-2.423-1.01-4.984-1.601-7.624-1.645-.245-.007-.505-.007-.75-.015-6.745-.036-11.649 3.809-14.521 10.524-1.219 2.842-1.241 7.126-.743 10.113.5 2.972 1.747 5.662 3.421 8.166z"/></g></svg>