<svg xmlns="http://www.w3.org/2000/svg" width="128" height="128" viewBox="0 0 128 128"><path fill="#ED6C30" d="M104.29 121.27c-.38-4.77-2.18-11.88-5.01-15.84-2.03-2.83-4.76-5.35-7.71-7.2-2.13-1.34-4.71-.82-6.85-2.3-.72-.5-1.78-1.36-2.69-1.36-2.1.02-4.4 1.24-6.54 1.52-1.49.19-3.07.33-4.66.35-1.59-.02-3.18-.16-4.66-.35-2.14-.28-4.44-1.51-6.54-1.52-.91 0-1.97.86-2.69 1.36-2.13 1.48-4.72.96-6.85 2.3-2.95 1.85-5.68 4.37-7.71 7.2-2.83 3.97-4.63 11.07-5.01 15.84-.3 3.71.22 4.42 3.69 4.83 1.52.19 3.09.09 4.6-.21 2.45-.49 1.65-3.02 1.92-4.74.42-2.61.75-5.34 1.9-7.75.52-1.1 1.37-2.64 2.61-2.98 2.35-.63 1.61 1.63 1.41 3.04-.41 2.8-1.99 8.39-.23 10.87 1.98 2.78 6.37 2.24 9.33 2.26 2.74.02 5.48.04 8.23.04s5.49-.02 8.23-.04c2.96-.03 7.35.52 9.33-2.26 1.77-2.48.17-8.07-.23-10.87-.2-1.42-.93-3.67 1.41-3.04 1.24.33 2.1 1.88 2.62 2.98 1.13 2.41 1.48 5.14 1.89 7.75.27 1.73-.52 4.25 1.93 4.74 1.5.3 3.07.4 4.59.21 3.46-.41 3.98-1.12 3.69-4.83z"/><path fill="#FFF" d="M74 104.67c1.28 1.82-.54 3.29-2.31 3.45-1.09.1-2.56-.38-3.19-1.32-.88-1.31.2-2.88 1.59-3.26 1.35-.37 3.07-.08 3.91 1.13zM74 112.77c1.28 1.83-.54 3.29-2.31 3.46-1.09.1-2.56-.39-3.19-1.32-.88-1.3.2-2.88 1.59-3.26 1.35-.38 3.07-.09 3.91 1.12zM74 120.87c1.28 1.83-.54 3.29-2.31 3.46-1.09.1-2.56-.38-3.19-1.32-.88-1.31.2-2.88 1.59-3.26 1.35-.37 3.07-.08 3.91 1.12z"/><path fill="#2F2F2F" d="M32.67 63.86c-.62-.75-2.65-.93-3.61-.7-1.41.35-1.45 2.29-1.5 3.27-.14 2.84.02 17.26-.47 21.24-.15 1.22-1.93 5.13-2.43 6.94-1.01 3.66-1.3 30.47-.74 31.27.7.66 1.57 1.08 2.59 1.28 3.29.96 6.29.69 9.56-.05 2.22-.5 2.13-4.43 2.16-6.17.05-2.68-.08-5.36-.16-8.04-.03-1-.1-1.98-.08-2.98.08-3.51.15-10.68-1.41-13.9-.95-1.96-2.54-4.61-2.93-6.74-.64-3.52-.59-18.18-.62-20.13-.01-1.45.64-3.98-.36-5.29z"/><path fill="#FBDDC1" d="M90.43 76.14c0 10.19-8.75 17.1-19.55 17.1-10.79 0-19.54-6.92-19.54-17.1 0-10.19 8.75-19.8 19.54-19.8 10.8.01 19.55 9.62 19.55 19.8z"/><path fill="#2F2F2F" d="M59.07 76.71c-.01-1.05.45-2.1 1.46-2.81 1.1-.76 3.05-.8 4.27-.21 1.61.77 2.12 2.83 1.4 4.36-.93 2-3.52 2.57-5.43 1.56-1.1-.57-1.68-1.69-1.7-2.9zM82.71 76.71c.01-1.05-.45-2.1-1.46-2.81-1.11-.76-3.06-.8-4.27-.21-1.61.77-2.12 2.83-1.4 4.36.93 2 3.52 2.57 5.43 1.56 1.09-.57 1.68-1.69 1.7-2.9z"/><path fill="#2F2F2F" d="M98.38 9.87c-4.12-4.86-9.99-7.56-16.19-8.68-7.29-1.31-15.88-1.32-23.18 0-6.2 1.12-12.07 3.82-16.19 8.68-5.07 5.98-5.22 14.15-5.1 21.62.13 7.96.57 15.91 1.59 23.81.62 4.77.89 11.21 3.27 15.49.64 1.15 1.86 1.93 2.91 2.7 1.26.92 2.73 1.79 4.33 1.85 1.51.04 2.67-1.83 3.81-2.56 4.91-3.13 11.19-3.49 16.85-3.34 5.62.14 12.22.21 17.11 3.34 1.15.73 2.3 2.6 3.81 2.56 1.61-.05 3.07-.93 4.33-1.85 1.04-.76 2.27-1.55 2.91-2.7 2.38-4.28 2.65-10.72 3.27-15.49 1.01-7.9 1.45-15.85 1.58-23.81.12-7.47-.04-15.64-5.11-21.62zM47.57 94.53c-1.8.38-3.55 1.01-4.94 2.27-1.6 1.44-2.98 3.65-1.93 5.79 1.35 2.78 3.97 2.46 6.46 1.8 2.03-.53 4.31-.73 6.2-1.67 2.45-1.22 3.43-5.26 1.3-7.22-1.3-1.19-3.38-1.35-5.04-1.25-.69.04-1.38.13-2.05.28z"/><g fill="#2F2F2F"><path d="M68.74 95.31c-.07-.44-.14-.82-.2-1.12-.19-1.02-.85-1.31-1.8-1.37-1.26-.09-2.51-.51-3.71-.87-1.83-.55-3.66-1.19-5.44-1.83-.64-.23-1.64-.77-2.36-.81-.29-.01-.55.03-.77.14-1.44.63-1.79 2.84-1.64 4.29-.06.55-.05 1.09.03 1.53.34 2.16 2.31 2.72 4.08 3.51 1.82.82 3.73 1.42 5.67 1.86 1.33.31 4.04 1.3 5.34.58.92-.5 1.05-1.88.96-3.23.09-.86-.02-1.85-.16-2.68zM87.3 89.46c-.22-.1-.48-.15-.77-.14-.72.03-1.72.57-2.36.81-1.78.63-3.61 1.28-5.43 1.83-1.21.36-2.46.78-3.71.87-.95.06-1.61.34-1.8 1.37-.05.29-.13.68-.2 1.12-.12.82-.24 1.82-.16 2.7-.09 1.35.05 2.73.96 3.23 1.31.71 4.02-.28 5.34-.58 1.94-.45 3.85-1.05 5.67-1.86 1.76-.79 3.74-1.36 4.08-3.51.07-.44.08-.98.03-1.53.15-1.46-.21-3.68-1.65-4.31z"/></g><path fill="#2F2F2F" d="M94.2 94.53c1.8.38 3.55 1.01 4.94 2.27 1.6 1.44 2.97 3.65 1.93 5.79-1.35 2.78-3.97 2.46-6.46 1.8-2.02-.53-4.3-.73-6.2-1.67-2.45-1.22-3.44-5.26-1.29-7.22 1.3-1.19 3.37-1.35 5.04-1.25.68.04 1.37.13 2.04.28z"/></svg>