<svg xmlns="http://www.w3.org/2000/svg" width="128" height="128" viewBox="0 0 128 128"><path fill="#724941" d="M27.246 80.447c-2.984 3.004-5.497 6.496-7.211 10.368-.28.632-.56 1.35-.648 2.042-.066.519.368 1.781-.066 2.167.265-.206.538-.416.858-.526.32-.114.695-.118.975.074.905.625.382 2.215-.066 2.929-.611.957-1.376 1.788-2.127 2.638-.794.909-1.759 1.938-1.567 3.134.346 2.116 4.224 1.538 5.766 1.361a16.884 16.884 0 0 0 6.803-2.314c.935-.566 1.833-1.244 2.479-2.127 1.214-1.655.905-3.727.788-5.658a52.808 52.808 0 0 0-.883-7.057c-.258-1.374.166-8.85-2.251-8.852-.883 0-1.619.625-2.252 1.234-.2.193-.399.388-.598.587zM100.677 80.447c2.987 3.004 5.497 6.496 7.219 10.368.279.632.552 1.35.647 2.042.066.519-.375 1.781.066 2.167-.268-.206-.544-.416-.861-.526-.32-.114-.699-.118-.975.074-.909.625-.387 2.215.066 2.929.607.957 1.373 1.788 2.123 2.638.802.909 1.759 1.938 1.567 3.134-.338 2.116-4.216 1.538-5.762 1.361a16.881 16.881 0 0 1-6.807-2.314c-.935-.566-1.833-1.244-2.479-2.127-1.214-1.655-.906-3.727-.788-5.658.14-2.37.441-4.728.883-7.057.257-1.374-.162-8.85 2.251-8.852.883 0 1.619.625 2.251 1.234.201.193.4.388.599.587z"/><path fill="#FBB817" d="M36.043 58.402c11.226-21.156 30.365-31.005 50.995-18.68 13.79 8.252 18.837 28.231 13.227 51.876-2.303 9.757 3.849 11.317 3.528 16.476-.629 10.114-16.792 18.625-37.837 18.926-21.045.302-37.668-7.711-38.378-17.822-1.425-20.368 1.287-37.262 8.465-50.776"/><g fill="#2F2F2F"><path d="M48.137 82.073c5.592 0 8.668-4.65 6.579-5.673-2.098-1.03-2.296 2.722-6.579 2.722-4.29 0-4.489-3.752-6.579-2.722-2.097 1.022.986 5.673 6.579 5.673zM78.189 82.073c-5.592 0-8.672-4.65-6.579-5.673 2.09-1.03 2.296 2.722 6.579 2.722 4.283 0 4.481-3.752 6.586-2.722 2.082 1.022-.993 5.673-6.586 5.673zM70.521 91.455c-.604-.677-1.585-.096-2.075.353-1.656 1.516-3.54 2.09-5.445 2.178H62.795c-1.906-.088-3.797-.662-5.445-2.178-.486-.449-1.472-1.03-2.075-.353-.744.838-.162 2.097.508 2.752 1.604 1.589 3.421 2.634 7.093 2.737v.007s.007 0 .022-.007c.008.007.015.007.015.007l.008-.007c3.664-.103 5.489-1.148 7.093-2.737.669-.655 1.251-1.914.507-2.752z"/></g><g><path fill="#724941" d="M121.086 94.788a55.984 55.984 0 0 1-2.021-3.054c-2.572-4.224-4.341-8.845-5.695-13.589-.346-1.212-.692-2.432-.971-3.661-.118-.512-.221-.975-.372-1.418-.445-1.668-.894-3.335-1.292-5.017-1.225-5.179-2.318-10.399-3.978-15.464-1.144-3.488-2.561-6.902-4.43-10.096a44.322 44.322 0 0 0-2.947-4.393c-.324-.433-.673-.833-1.008-1.251a45.037 45.037 0 0 0-2.417-2.753 45.36 45.36 0 0 0-1.203-1.2 42.769 42.769 0 0 0-2.811-2.461c-.365-.296-.721-.603-1.104-.886a42.383 42.383 0 0 0-4.077-2.729c-.059-.033-.103-.076-.162-.109v.006c-4.032-2.34-8.506-4.088-13.37-5.195-3.017-.685-6.181-1.105-9.279-1.105-3.101 0-6.262.421-9.271 1.105-12.686 2.885-22.723 10.038-29.096 20.972-1.869 3.194-3.282 6.608-4.429 10.096-1.715 5.228-2.812 10.625-4.099 15.968-.427 1.782-.993 3.594-1.332 5.427-.037.169-.081.325-.118.504-.279 1.229-.625 2.449-.971 3.661-1.354 4.744-3.127 9.365-5.703 13.589a52.093 52.093 0 0 1-2.016 3.054c-2.119 2.966-.515 4.217 2.833 3.886 3.547-.354 6.917-1.781 9.831-3.797 1.317-.912 2.62-1.917 3.896-2.943 1.387-.537 2.73-1.174 3.867-2.123.718-.596 1.339-1.299 1.928-2.024 2.627-3.258 4.526-7.029 5.88-10.979.213-.583.397-1.179.581-1.775.074-.249.169-.488.243-.738.052-.193.088-.394.14-.589.199-.727.382-1.457.544-2.195.103-.45.199-.899.287-1.354.301-1.551.585-3.109.839-4.663.235-.67.596-1.262 1.31-1.709.64-.408 1.376-.645 2.086-.925 2.321-.914 4.481-2.196 6.604-3.491 1.56-.948 4.412-3.528 6.373-3.085.699.157.699 1.461.582 1.919-.199.833-.975 1.532-1.531 2.14-.891.975-4.323 3.26-2.958 4.878 1.155 1.374 5.787.147 7.112-.25 5.081-1.547 9.96-3.215 14.809-5.578 2.52-1.222 5.647-3.002 8.422-3.216 2.388-.184 2.299.817 2.292 2.826 0 .479-.007 1.038.162 1.494.728 1.895 2.767 1.985 4.812 1.415.416-.052.825-.151 1.248-.138.1.001.203.009.283.064 1.678 1.167 1.126 4.82 1.457 6.664.692 3.924 1.428 7.653 3.23 11.255 1.379 2.75 3.215 5.241 5.32 7.5 2.7 2.901 5.842 5.421 9.029 7.622 2.914 2.016 6.284 3.444 9.823 3.797 3.356.328 4.953-.923 2.838-3.889z"/></g><g><path fill="#66949E" d="M119.761 2.132c-.835-.883-3.028-1.347-3.941-.316-.537.588-.279 1.369-.552 2.053-.438 1.17-1.221.876-2.2.78-2.17-.221-4.216-.581-6.273.419-2.233 1.089-3.867 2.833-4.934 5.062-1.428 2.995-2.454 6.026-5.151 8.161-.434.346-.89.677-1.347 1.001-.235.162-.478.316-.721.478-5.552-3.312-12.119-6.454-18.392-7.999-3.613-.898-8.437-.875-7.399.243.155.169.431.287.64.412.522.331 1.052.663 1.593.986 1.77 1.082 3.543 2.156 5.32 3.238 2.281 1.391 4.566 2.782 6.84 4.187a822.47 822.47 0 0 1 4.963 3.105 566.584 566.584 0 0 1-4.963 3.098 1376.062 1376.062 0 0 1-6.84 4.194c-1.777 1.082-3.551 2.156-5.32 3.238a51.42 51.42 0 0 0-1.593.986c-.209.118-.485.243-.64.412-1.038 1.118 3.786 1.133 7.399.243 6.273-1.545 12.84-4.695 18.392-7.999.243.162.486.316.721.478.457.324.913.648 1.347 1 2.697 2.127 3.723 5.166 5.151 8.161 1.067 2.229 2.701 3.974 4.934 5.062 3.282 1.604 6.718.663 8.929-1.472 2.333-2.259 3.297-5.857 1.259-9.206-.832-1.391-2.407-3.149-3.893-3.878-2.013-.993-4.261-1.31-6.479-1.236-.997.037-2.145.375-3.102-.029-.717-.302-1.126-1-1.611-1.575-.397-.493-.754-1.008-1.159-1.479.405-.471.762-.993 1.159-1.486.485-.567.894-1.266 1.611-1.567.957-.405 2.104-.066 3.102-.037 2.218.074 4.467-.243 6.479-1.229 1.652-.817 3.153-2.244 3.937-3.93 1.008-2.229-.64-5.688 1.839-7.211.419-.265.766-.397 1.082-.816.618-.824.677-1.84.802-2.818.141-1.074-.271-1.956-.989-2.714zm-13.845 30.066c1.129-1.302 3.146-1.169 4.632-.64 2.461.869 4.19 3.805 2.178 6.086-1.552 1.766-4.926 1.457-6.585-.913-.873-1.273-1.329-3.267-.225-4.533zm4.632-15.871c-1.486.53-3.503.655-4.632-.641-1.104-1.266-.648-3.267.225-4.54 1.659-2.369 5.033-2.671 6.585-.913 2.013 2.289.284 5.218-2.178 6.094z"/></g></svg>