<svg xmlns="http://www.w3.org/2000/svg" width="128" height="128" viewBox="0 0 128 128"><path fill="#CC4079" d="M35.667 34.688c6.072 9.038 16.892 13.226 24.692 20.504.833.778 1.658 1.611 2.499 2.397.903.833 1.993 2.74 3.44 2.826 1.456-.085 2.538-1.993 3.441-2.826.849-.786 1.673-1.619 2.506-2.397 7.8-7.279 18.62-11.467 24.684-20.504 1.822-2.701 3.153-5.604 3.698-8.812.537-3.223.514-7.847-.802-10.914-3.106-7.246-8.399-11.395-15.669-11.356-.273.008-.537.008-.81.016-2.849.046-5.612.685-8.228 1.775-2.802 1.175-4.725 2.942-7.208 4.522-.941.6-2.281.592-3.215 0-2.491-1.58-4.406-3.347-7.208-4.522-2.615-1.09-5.378-1.729-8.228-1.775-.265-.008-.545-.008-.81-.016-7.278-.039-12.571 4.11-15.669 11.357-1.315 3.067-1.339 7.691-.802 10.914.537 3.207 1.884 6.111 3.689 8.811z"/><path fill="#FBB817" d="M63.986 114.244c-1.02 6.881-15.887 10.384-33.23 7.815-17.343-2.565-30.561-10.232-29.541-17.11 1.012-6.893 6.896-41.568 37.559-37.025 30.662 4.538 26.232 39.434 25.212 46.32"/><g fill="#2F2F2F"><path d="M27.572 89.84c-.334 2.292-2.413 3.869-4.631 3.542-2.226-.327-3.76-2.444-3.425-4.737.343-2.288 2.421-3.873 4.647-3.545 2.226.33 3.744 2.451 3.409 4.74M43.28 92.16c-.334 2.292 1.184 4.41 3.417 4.741 2.227.331 4.305-1.253 4.64-3.542.342-2.292-1.191-4.41-3.41-4.74-2.233-.328-4.304 1.26-4.647 3.541M33.091 111.211c-.358-.05-.732-.121-1.105-.19-8.765-1.845-11.412-7.138-11.529-7.364a1.616 1.616 0 0 1 .748-2.141 1.606 1.606 0 0 1 2.125.736c.101.199 2.203 4.145 9.31 5.632 7.099 1.467 10.897-2.74 10.952-2.779a1.583 1.583 0 0 1 2.25-.144c.662.58.724 1.592.14 2.253-.195.223-4.687 5.22-12.891 3.997z"/></g><g><path fill="#FBB817" d="M127 109.044c.498 6.741-12.844 13.237-29.829 14.51-16.985 1.269-31.168-3.168-31.666-9.909-.506-6.745-2.343-40.875 27.696-43.121 30.031-2.246 33.293 31.775 33.799 38.52"/><g fill="#2F2F2F"><path d="M87.316 94.398c.195 2.635-1.401 4.896-3.581 5.056-2.18.167-4.11-1.837-4.305-4.464-.195-2.635 1.409-4.896 3.588-5.063 2.181-.161 4.103 1.836 4.298 4.471M102.713 93.242c.187 2.639 2.11 4.639 4.29 4.472 2.187-.164 3.791-2.425 3.596-5.056-.195-2.635-2.125-4.635-4.305-4.472-2.18.168-3.783 2.429-3.581 5.056M97.599 111.235c-.35.027-.716.043-1.082.051-8.703.128-12.354-4.324-12.501-4.519a1.548 1.548 0 0 1 .249-2.18 1.556 1.556 0 0 1 2.172.237c.141.167 2.974 3.456 10.034 3.343 7.029-.116 9.738-4.919 9.777-4.97a1.557 1.557 0 0 1 2.109-.619 1.553 1.553 0 0 1 .615 2.105c-.133.258-3.332 5.949-11.373 6.552z"/></g></g></svg>