<svg xmlns="http://www.w3.org/2000/svg" width="128" height="128" viewBox="0 0 128 128"><path fill="#7742CC" d="M96.667 15.85h-.195c-.494.002-.985.002-1.477.019-5.182.087-10.214 1.244-14.964 3.229-5.09 2.145-8.582 5.35-13.105 8.228-.853.544-1.887.814-2.921.814-1.039 0-2.078-.272-2.931-.814-4.524-2.878-8.016-6.083-13.108-8.228-4.752-1.986-9.78-3.143-14.961-3.229-.492-.017-.983-.017-1.475-.019h-.195c-13.123 0-22.688 7.536-28.296 20.649C.643 42.079.6 50.482 1.581 56.343c.976 5.837 3.413 11.11 6.716 16.032 11.029 16.429 30.709 24.047 44.895 37.286 1.514 1.415 3.008 2.938 4.55 4.355 1.644 1.514 3.625 4.986 6.259 5.148 2.634-.162 4.615-3.634 6.259-5.148 1.542-1.417 3.034-2.94 4.55-4.355 14.188-13.238 33.863-20.856 44.894-37.286 3.307-4.921 5.738-10.194 6.719-16.032.979-5.861.935-14.265-1.46-19.844-5.613-13.113-15.176-20.649-28.296-20.649z"/></svg>