<svg xmlns="http://www.w3.org/2000/svg" xmlns:xlink="http://www.w3.org/1999/xlink" width="128" height="128" viewBox="0 0 128 128"><defs><path id="a" d="M71.16 63.35l-40.12 50.78 1.95 2.13 44.24-50.17"/></defs><use xlink:href="#a" overflow="visible" fill="#855C52"/><clipPath id="b"><use xlink:href="#a" overflow="visible"/></clipPath><path clip-path="url(#b)" fill="#2F2F2F" d="M36.05 105.64s2.68 1.47 5.88 4.8l4.67-8-8.41-6-2.14 9.2z"/><g fill="#FCC21B"><path d="M31.54 107.43l-4.47 13.65L39.03 114l-4.92-1.16z"/><path d="M27.07 121.62a.534.534 0 0 1-.51-.7l4.47-13.66c.07-.21.26-.35.48-.36.2-.03.41.1.52.3l2.45 5.18 4.68 1.09c.21.05.37.22.41.44a.54.54 0 0 1-.26.54l-11.97 7.09a.53.53 0 0 1-.27.08zm4.56-12.75l-3.61 11.04 9.61-5.69-3.64-.85a.508.508 0 0 1-.36-.29l-2-4.21z"/></g><g><radialGradient id="c" cx="72.228" cy="66.113" r="49.381" gradientUnits="userSpaceOnUse"><stop offset="0" stop-color="#f79329"/><stop offset="1" stop-color="#ed6c30"/></radialGradient><path fill="url(#c)" d="M88.58 29.97h-.17c-.43 0-.85 0-1.28.02-4.48.08-8.83 1.08-12.93 2.79-4.4 1.85-7.43 4.62-11.34 7.11-.73.47-1.62.7-2.52.7-.9 0-1.8-.24-2.53-.7-3.92-2.49-6.93-5.26-11.33-7.11-4.11-1.72-8.45-2.72-12.93-2.79-.42-.01-.85-.01-1.28-.02h-.17c-11.35 0-19.61 6.51-24.46 17.85-2.07 4.82-2.11 12.09-1.26 17.16.84 5.05 2.95 9.6 5.8 13.86 9.53 14.2 26.55 20.79 38.8 32.24 1.32 1.22 2.61 2.54 3.94 3.76 1.42 1.31 3.13 4.31 5.41 4.45 2.27-.14 3.99-3.14 5.41-4.45 1.33-1.22 2.62-2.54 3.93-3.76 12.27-11.45 29.28-18.03 38.82-32.24 2.85-4.25 4.96-8.81 5.81-13.86.85-5.07.81-12.33-1.26-17.16-4.85-11.34-13.12-17.85-24.46-17.85z"/><g><path fill="#78A3AD" d="M125.65 21.12c-1.95-1.99-4.57-1.99-5.43-1.99h-.34c-.73.02-1.48.02-2.22.03l-1.95.03h-.01c-.34 0-.62-.02-.89-.03l-.65-.03-.39-.02c-.47-.02-.94-.04-1.41-.04-.16 0-.29.02-.44.03-.01-.04-.01-.11-.02-.15l-.02-.2c-.06-1.14-.3-2.18-.49-3.02l-.09-.39-.14-.6c-.07-.3-.15-.6-.2-.91l-.32-1.92c-.12-.72-.24-1.45-.35-2.18-.95-6.06-5.45-6.37-6.35-6.37-.4 0-.8.03-1.19.11-2.83.55-4.39 2.82-5.23 4.05-.1.15-.2.28-.28.39l-.09.12c-.87 1.08-1.85 2.3-2.71 3.69-.83 1.35-1.86 2.67-2.95 4.06l-.3.38c-.8 1.02-1.48 2.05-2.14 3.04-.37.56-.74 1.12-1.13 1.67l-.23.31c-.49.65-1.15 1.54-1.59 2.7-.66 1.72-.66 3.4-.58 4.67.06 1.15.25 2.19.41 2.97.17.83.37 1.64.58 2.45.17.68.34 1.36.49 2.05l.17.87c.2.97.41 1.95.61 2.93l.07.33.03.16c.18.85.58 1.61 1.14 2.25.12.64.33 1.26.71 1.82a4.976 4.976 0 0 0 3.95 2.22l.58.02c1.26.04 2.54.07 3.83.1.7.02 1.4.07 2.1.11.83.06 1.67.12 2.51.14h.65c.86 0 1.63-.04 2.36-.12 1.16-.14 2.88-.43 4.5-1.4 1.07-.64 1.82-1.45 2.38-2.05l.26-.27c.47-.49.97-.96 1.46-1.43.85-.81 1.73-1.66 2.6-2.62l.32-.35c1.18-1.32 2.29-2.58 3.48-3.64 1.22-1.08 2.25-2.27 3.15-3.31l.1-.12c.09-.1.21-.21.33-.33 1.05-1.05 3.03-2.99 3.06-5.88.05-1.64-.56-3.18-1.7-4.33z"/><path fill="#FFF" d="M95.95 31.98c-.11.19-.25.45-.34.58-.07.06-.14.11-.21.17-.4.31-.93.73-1.48 1.33-.61.69-1.22 1.37-1.82 2.03-.08-.34-.15-.69-.22-1.04-.3-1.51-.75-2.98-1.06-4.49-.15-.75-.28-1.52-.32-2.29-.05-.86-.05-1.79.27-2.61.24-.65.81-1.31 1.21-1.88 1.07-1.5 2-3.09 3.15-4.53 1.24-1.59 2.51-3.17 3.57-4.9.72-1.17 1.59-2.24 2.45-3.31.63-.79 1.48-2.46 2.56-2.67.09-.02.17-.03.25-.03 1.03 0 1.31 1.35 1.44 2.18.22 1.38.45 2.74.68 4.12.1.6.26 1.2.39 1.79.19.87.42 1.73.47 2.61.02.38.08.76.08 1.14-.1.06-.21.1-.32.17-.96.64-1.56 1.39-1.92 1.84l-.13.16c-.07.08-.29.27-.5.45-.34.3-.76.67-1.2 1.12-.15.16-.31.33-.47.51-.24.26-.47.53-.62.64-.19.16-.34.27-.49.38-.61.46-1.43 1.09-2.25 2.12l-.62.78c-.52.65-1.04 1.29-1.52 1.95-.44.62-.78 1.21-1.03 1.68zM120.23 28.38c-.91 1.03-1.8 2.08-2.83 2.99-1.5 1.35-2.83 2.88-4.18 4.38-1.23 1.38-2.62 2.58-3.91 3.9-.49.5-1.03 1.17-1.63 1.53-.75.45-1.67.63-2.52.73-.59.07-1.19.09-1.78.09-.17 0-.35 0-.53-.01-1.54-.03-3.07-.21-4.61-.25-.3 0-.6-.02-.9-.02.27-.34.5-.67.67-.92.06-.1.12-.19.18-.27.55-.71 1.1-1.42 1.65-2.12l.38-.48c.5-.65.82-1.25 1.06-1.69.04-.08.09-.17.13-.25.1-.08.33-.27.5-.41.42-.34.95-.77 1.46-1.31.58-.6 1.13-1.24 1.68-1.88l.63-.73c.89-1 1.36-1.94 1.71-2.62.08-.17.17-.34.27-.51.09-.15.31-.45.53-.73.14-.18.28-.38.43-.56.36-.5.65-.97.88-1.36.14-.23.29-.48.37-.59l.13-.15c.2-.23.47-.57.76-.98.2-.01.38-.02.58-.05.35-.04.69-.06 1.04-.06.54 0 1.07.04 1.61.06.55.02 1.12.07 1.67.07h.16c1.4-.02 2.78-.04 4.18-.07h.24c.91 0 2.2.13 2.19 1.28-.03 1.1-1.53 2.23-2.2 2.99z"/></g><path fill="#855C52" d="M114.19 18.65c-.4-.68-1.22-1.57-2.88-1.99-.38-.1-.75-.15-1.11-.15-2.03 0-3.29 1.46-4.42 2.76-1.57 1.83-3.07 3.76-4.53 5.63-.73.95-1.46 1.89-2.21 2.83-1.65 2.08-10.75 13.56-19.41 24.5-1.88 2.37-3.76 4.73-5.65 7.1-1.02 1.28-2.49 2.6-2.26 4.4.17 1.33 1.82 2.33 3.02 2.48 2.43.3 3.8-2.17 5.16-3.74 1.6-1.83 3.19-3.66 4.79-5.48 16.65-18.91 25.32-28.82 26.49-30.31l.4-.5c1.76-2.17 2.75-3.49 2.97-4.3.32-1.12.18-2.3-.36-3.23z"/></g><path fill="#FFF" d="M76.31 41.23c.45-.08 1.15-.12 1.72.03.35.1.67.24.83.54l.08.26c.3 1.55-1.99 2.84-3 3.6-1.65 1.25-2.6 3.53-4.82 4.01-1.65.35-3.17-.76-3.04-2.54.05-.8.38-1.6.92-2.2.25-.28.57-.5.85-.75 1.81-1.55 4.2-2.52 6.46-2.95zM22.78 57.48c-.83 2.05-1.95 5.89-4.64 6.22-4.99.62-2.93-9.61-2.2-11.78 2.15-6.33 7.82-11.21 14.68-11.02 1.4.04 4.45.09 5.32 1.44 1.46 2.26-1.29 3.49-2.96 4.12-3.96 1.5-7.05 4.68-9.07 8.38-.33.59-.7 1.56-1.13 2.64z"/></svg>