<svg xmlns="http://www.w3.org/2000/svg" xmlns:xlink="http://www.w3.org/1999/xlink" width="128" height="128" viewBox="0 0 128 128"><defs><path id="a" d="M81.01 26.64c-16.54-14.7-41.86-13.22-56.56 3.32C9.74 46.5 11.22 71.82 27.76 86.53c7.21 6.41 16.7 8.52 26.07 9.94 9.84 1.49 18.29 4.08 27.69 6.96 5.52 1.7 11.42-1.83 15.52-5.84 4.01-3.92 8.26-9.66 8.52-15.7.41-9.47-8.04-17.22-10.54-25.91-3.06-10.61-5.35-21.64-14.01-29.34z"/></defs><use xlink:href="#a" overflow="visible" fill="#FCC21B"/><g><path fill="#FCC21B" d="M121.61 40.9a.75.75 0 0 0-.16.05c-1.81.55-3.42 1.57-5.15 2.33-1.7.74-3.32 1.64-4.96 2.52-.63.34-1.23.52-1.36 1.3-.12.71.08 1.52.9 1.69 2.34.49 4.75.67 7.12.89 1.73.16 3.46.24 5.19.37.54.04 1.22.19 1.75 0 .75-.26.88-1.12.93-1.79.12-1.58.1-3.24-.32-4.78-.25-.92-.28-1.97-1.07-2.61-.81-.67-1.97-.25-2.87.03zM110.58 17.62c-.05.04-.08.07-.12.11-1.38 1.29-2.39 2.92-3.61 4.35-1.2 1.42-2.26 2.94-3.35 4.44-.42.58-.89 1.01-.66 1.77.21.69.74 1.33 1.55 1.12 2.31-.58 4.56-1.48 6.79-2.33 1.62-.62 3.22-1.3 4.82-1.95.5-.2 1.18-.36 1.57-.77.56-.57.3-1.39.05-2.02-.59-1.47-1.34-2.95-2.39-4.15-.63-.72-1.12-1.65-2.1-1.87-1-.23-1.87.65-2.55 1.3zM92.53 3.01c-.02.05-.03.1-.05.16-.57 1.8-.66 3.71-1.02 5.56-.35 1.82-.54 3.67-.75 5.51-.08.71-.28 1.31.29 1.86.52.5 1.3.8 1.9.22 1.73-1.64 3.25-3.52 4.78-5.35 1.11-1.33 2.17-2.71 3.25-4.06.34-.42.85-.9 1-1.44.2-.76-.42-1.36-.95-1.78-1.23-1-2.61-1.92-4.11-2.46-.9-.32-1.78-.89-2.75-.6-.99.29-1.3 1.49-1.59 2.38z"/><g><path fill="#FCC21B" d="M45.62 123.79c0-.06.01-.11.02-.16.31-1.87 1.11-3.61 1.62-5.41.51-1.79 1.19-3.51 1.85-5.25.25-.67.35-1.29 1.11-1.52.7-.21 1.52-.12 1.8.67.79 2.24 1.29 4.62 1.82 6.94.38 1.69.69 3.4 1.04 5.1.11.53.35 1.18.23 1.74-.17.77-1 1.01-1.66 1.15-1.55.33-3.2.52-4.78.31-.95-.13-1.99-.02-2.72-.72-.75-.71-.49-1.91-.33-2.85zM21.09 115.91c.04-.05.06-.09.1-.13 1.1-1.55 2.58-2.76 3.84-4.15 1.25-1.38 2.61-2.63 3.96-3.9.52-.49.88-1.01 1.67-.88.71.12 1.42.56 1.32 1.38-.28 2.37-.87 4.72-1.41 7.04-.41 1.68-.87 3.36-1.3 5.03-.13.53-.2 1.22-.55 1.66-.49.63-1.34.48-2 .31-1.54-.38-3.1-.94-4.43-1.82-.79-.53-1.78-.89-2.13-1.84-.38-.96.38-1.93.93-2.7zM4.24 99.95c.05-.03.1-.05.14-.07 1.71-.81 3.6-1.14 5.38-1.74 1.76-.59 3.57-1.01 5.37-1.47.69-.17 1.26-.45 1.88.05.57.45.96 1.18.47 1.86-1.39 1.93-3.06 3.69-4.68 5.44-1.17 1.27-2.4 2.5-3.6 3.76-.37.4-.78.96-1.3 1.18-.73.31-1.4-.24-1.89-.71-1.15-1.09-2.25-2.34-2.97-3.75-.43-.85-1.12-1.65-.96-2.64.17-1.04 1.31-1.51 2.16-1.91z"/></g></g><path fill="#78A3AD" d="M121.13 101.47c.07-.75.03-1.49-.3-2.25-.42-.94-1.18-1.42-1.98-2-.68-.49-.9-.81-.96-1.62-.06-.92-.06-1.81-.72-2.53-.48-.54-1.09-.88-1.7-1.24-.24-.12-.46-.26-.66-.43-.32-.47-.14-1.25-.17-1.79-.06-1.39-.44-2.97-1.26-4.1-.52-.71-1.45-1.49-2.36-1.57-1.32-.11-1.72.98-2.06 2.04-.11.34-.17.69-.27 1.04-1.92 6.77-6.88 12.33-12.61 16.21-1.46.99-2.98 1.91-4.6 2.61-1.27.55-2.95 1.45-2.35 3.12.5 1.42 2.05 2.3 3.39 2.78.79.28 1.73.22 2.55.19.79-.03 1.16-.01 1.61.6.41.55.9.85 1.44 1.25.74.54 1.48 1.03 2.43 1.07.92.05 1.89-.22 2.81-.1.79.11 1.44.7 2.17.99 1.19.48 2.85.54 4.1.24 1.41-.36 2.46-1.6 3.96-1.66 1.99-.08 4.08-.86 5.35-2.46 1.55-1.96 1-4.26 1.29-6.54.11-.9.56-1.72.72-2.62.07-.42.14-.82.18-1.23z"/></svg>