<svg xmlns="http://www.w3.org/2000/svg" width="128" height="128" viewBox="0 0 128 128"><g fill="#CC4079"><path d="M56.116 52.86c2.229-1.582 4.935-2.531 7.876-2.531 2.947 0 5.66.951 7.891 2.534l16.868-16.868c3.942-3.942 3.942-10.335 0-14.282L71.142 4.108c-3.947-3.942-10.335-3.942-14.278 0l-17.61 17.604c-3.942 3.945-3.946 10.34-.004 14.282L56.116 52.86zM50.329 63.997c0-2.941.95-5.649 2.532-7.88L35.995 39.252c-3.942-3.942-10.335-3.942-14.282 0L4.108 56.862c-3.942 3.947-3.942 10.335 0 14.277l17.605 17.609c3.942 3.942 10.339 3.947 14.282.004l16.868-16.868c-1.582-2.231-2.534-4.942-2.534-7.887zM123.889 56.862l-17.605-17.605c-3.942-3.942-10.335-3.947-14.277-.004L75.141 56.118c1.582 2.231 2.532 4.938 2.532 7.879 0 2.942-.95 5.652-2.532 7.883l16.866 16.873c3.942 3.938 10.335 3.938 14.277 0l17.605-17.614c3.946-3.947 3.946-10.335 0-14.277zM71.885 75.138c-2.233 1.583-4.946 2.535-7.894 2.535-2.939 0-5.645-.949-7.874-2.529L39.25 92.006c-3.938 3.942-3.938 10.335 0 14.28l17.613 17.604c3.947 3.945 10.335 3.945 14.278 0l17.601-17.604c3.946-3.94 3.951-10.337.009-14.28L71.885 75.138z"/></g><path fill="#FBB817" d="M73.668 63.998c0 5.34-4.327 9.67-9.674 9.67-5.335 0-9.662-4.331-9.662-9.67 0-5.334 4.327-9.666 9.662-9.666 5.348 0 9.674 4.332 9.674 9.666z"/></svg>