<svg xmlns="http://www.w3.org/2000/svg" width="128" height="128" viewBox="0 0 128 128"><path fill="#2F2F2F" d="M95.65 87.06c-3-1.87-5.63-2.18-5.63-2.18s-2.91.31-7.15.77l5.71-10.26c-3.3-3.56-6.76-4.08-6.76-4.08L69.47 72.6l.13-.84-24.84-7.44c-3.37.28-6 1.58-6 1.58l-.67 16.59.74.92c-6.97-.05-11.36 2.77-11.36 2.77s-1.23 14.84-1.31 15.05c-.05.14 17.38 5.92 28.4 9.57.49 1.7.83 2.82.83 2.82l7.02-.23c.17.06.39.13.52.17l.08.09.01-.07c.26.09.41.14.41.14v-.36l14.8-.48 17.42-25.82z"/><path fill="#855C52" d="M61.88 78.03c5 .83 10.49.82 15.04-1.68 4.31-2.37 7.01-7.43 5.88-12.34-.73-3.11-2.4-5.06-4.6-6.37-2.25-1.34-5.04-1.99-7.9-2.5-1.37-.25-7.16-1.06-9.55-4.38-1.93-2.69-1.99-7.54-2.52-8.98-.56-1.5-2.46-.84-4.55.55-2.43 1.62-7.46 6.82-9.4 12.02-2.62 7.07-.71 12.46 1.14 14.86 3.78 4.91 10.89 7.88 16.46 8.82z"/><path fill="#855C52" d="M55.08 99.49c4.21.54 6.91.75 11.15.44 10.39-.75 18.8-4.11 23.15-10.74 3.94-6.04 2.11-10.63-.81-13.81-.37-.42-.96-.85-1.59-1.13-1.06-.46-2.27-.49-3.02.6-4.49 6.45-15.73 8.2-25.17 6.22-3.81-.8-12.26-3.39-15.83-9.08-.86-1.38-1.21-2.87-1.45-4.04-.25-1.19-.99-2.82-3.05-1.96-2.19.91-6.88 5.12-7.3 11.56-.28 4.29.97 8.69 3.76 11.9 4.97 5.73 12.8 9.1 20.16 10.04z"/><path fill="#855C52" d="M95.65 87.06c-1.46-.75-2.33.92-2.95 2.04-4.68 8.62-13.75 12.88-23.43 13.97-8.85.98-16.48 1.31-26.58-3.32-5.23-2.41-10.44-5.44-13.08-12.12-.36-.92-.45-1.79-1.53-1.63-1.31.2-4.28 2.19-5.1 3.18-1.44 1.73-2.44 3.8-3.03 5.97-1.29 4.71-.82 10.08 1.47 14.42 1.27 2.41 3 4.98 4.91 6.94 6.24 6.41 17 8.83 25.5 10.23 10.35 1.71 21.19 1.11 30.88-2.89 14.53-6 18.39-15.64 18.97-18.36 1.27-6.05-.28-11.72-.94-13.08-.97-1.98-2.53-4.03-5.09-5.35z"/><path fill="#78A3AD" d="M117.76 66.3c-.38 1.3-1.95 1.97-3.5 1.52-2.09-.62-5.01-4.04-5.01-4.04s4.39-1.25 6.39-.66c1.55.47 2.5 1.89 2.12 3.18zM101.73 55.72c-1.05.84-1.1 2.55-.09 3.81 1.36 1.7 5.62 3.13 5.62 3.13s-.49-4.54-1.79-6.17c-1.01-1.27-2.69-1.61-3.74-.77z"/><path fill="#2F2F2F" d="M110.42 65.59a3.083 3.083 0 0 1-4.27.83 3.094 3.094 0 0 1-.84-4.27 3.074 3.074 0 0 1 4.27-.83c1.41.95 1.79 2.86.84 4.27z"/><g><path fill="#78A3AD" d="M29.05 41.94c-.94-.97-2.64-.85-3.82.28-1.56 1.5-2.58 5.88-2.58 5.88s4.47-.91 5.97-2.36c1.17-1.12 1.36-2.82.43-3.8zM13.18 52.55c-.52-1.24.26-2.76 1.75-3.38 2-.85 6.43-.05 6.43-.05s-2.6 3.74-4.53 4.55c-1.49.62-3.12.12-3.65-1.12z"/><path fill="#2F2F2F" d="M24.63 47.03c1.01 1.36.72 3.29-.64 4.3a3.078 3.078 0 0 1-4.3-.64 3.061 3.061 0 0 1 .64-4.3 3.078 3.078 0 0 1 4.3.64z"/></g><path fill="#FCC21B" d="M38.59 34.14c-.07.16-.21.33-.42.53-1.69 1.6-7.53.51-9.48 0-4.13-1.08-9.07-2.68-10.99-7.17-2.79-6.52 2.74-12.83 7.37-16.11C35.4 4.06 48.68 3.4 60.62 5.36c4.83.79 9.59 2.26 14.47 2.62 2.86.21 5.69.55 8.57.32.98-.08 4.01-.57 4.02-2.01.01-1.87-3.51-1.7-4.14-3.25C82.22-.23 92.21.39 93.12.46c4.77.35 10.57 1.41 14.78 3.88 5.21 3.06 5.5 9 .31 12.3-3.04 1.94-6.58 2.54-10.03 2.66-9.2.33-19.07-2.01-25.94-3.69-10.44-2.57-18.57-8.88-31.41-4.88-7.44 2.32-13.37 8.41-11.47 15.87 1.17 4.59 6.45 5.7 7.7 6.09.94.29 1.9.69 1.53 1.45zM104.62 46.89c-4.09 2.49-9.45 3.46-14.06 2.3-.97-.25-.96-1.13-.25-1.58 2.87-1.81 9.15-3.77 8.06-8.36-.79-3.35-5.27-3.69-8.06-3.62-1.53.04-3.04.28-4.54.55-.42.08-.84.15-1.26.23-4.72.88-8.85 1.27-13.65.89-1.42-.11-4.25-.29-5.14-1.6-1.23-1.83 4.93-1.61 5.68-1.69 4.44-.47 8.92-1.44 13.23-2.57 3.82-1 7.66-2.09 11.62-2.32 4.39-.26 10.32.51 13.4 3.96 4 4.49.15 9.99-3.67 12.88-.43.33-.89.64-1.36.93zM17.29 66.78c.41-4.46 6-4.23 8.63-6.67.37-.34.49-.78.17-1.17-.9-1.11-4.33-.2-5.47.04-4.22.85-12.64 4.33-9.95 10.21.84 1.83 2.66 2.91 4.51 3.49 1.28.4 4.28 1.25 5.17-.28.83-1.43-1.37-2.16-2.11-2.96-.76-.85-1.03-1.77-.95-2.66z"/></svg>