<svg xmlns="http://www.w3.org/2000/svg" width="128" height="128" viewBox="0 0 128 128"><g fill="#E26B34"><path d="M92.97 42.44c-2.24-2.81-5.12-4.98-8.34-6.45-3.88-1.79-8.24-2.57-12.52-2.3-15.99 1-30.7 11.62-37.77 25.87-1.73 3.49-3.12 7.57-3.66 11.44-2.02 14.48 4.68 22.39 14.39 25.64 12.43 4.15 27.37 1.29 38.4-5.39 1.72-1.04.22-3.36-1.53-2.61-6.66 2.84-14.14 4.54-21.38 4.62-6.44.07-14.34-.84-18.69-6.2-4.32-5.32-4.71-11.72-2.97-18.13 1.79-6.62 5.65-12.76 11.01-17.02 5.41-4.3 12.54-8.31 19.49-9.16 8.59-1.05 19.42 2.97 17.2 13.45-1.81 8.54-8.19 14.71-16.58 16.94-2.84.75-7.49 1.11-10.25-.17-2.83-1.32-2.9-4.69-1.87-7.24 1.22-3.05 3.83-4.96 7.06-5.39 1.2-.16 2.47-.19 3.59.35.55.27 1.02.66 1.55.95 3.3 1.81 7-1.93 5.63-5.27-3.32-8.09-15.42-3.39-20.27.49-2.04 1.64-4.29 4.32-5.34 6.72-4.2 9.54 2.34 18.48 12.38 18.59 4.42.05 8.86-.66 13.09-1.95 2.19-.67 4.34-1.51 6.38-2.53 9.5-4.72 16.74-15.86 14.48-26.67-.56-2.7-1.73-6.37-3.48-8.58z"/><path d="M125.74 59.16c-1.24-3.14-3.81-6.61-6.55-8.61-1.82-1.33-3.67-2.03-5.81-2.61-.71-.19-1.42-.63-1.75-1.34-.49-1.04.27-2.11.65-3.05 3.17-7.84 1.16-17.43-4.53-23.6-.72-.78-1.53-1.48-2.4-2.09-5-3.5-11.27-4.09-17.17-3.16-2.99.47-5.85 1.32-8.73 2.27-1.75.59-5.9 3.21-7.72 1.9-.96-.7-1.05-2.23-1.51-3.23-.59-1.25-1.43-2.56-2.28-3.65-3.6-4.61-10.91-6.05-16.37-4.96-6.84 1.36-13.15 5.43-17.31 11.01-2.39 3.21-4.09 6.99-4.57 10.98-.25 2.07.13 3.94.21 5.98.09 2.1-1.79 1.45-3.19 1.38a22.79 22.79 0 0 0-4.67.23c-3 .47-5.9 1.56-8.49 3.15C6.83 43.93 2.53 51.19 1.16 58.88c-1.1 6.18 1.35 13.98 5.38 18.7 1.7 1.98 3.71 3.68 5.99 4.94 1.08.6 2.22 1.09 3.39 1.5 1 .34 2.37.68 3.21 1.35.36.29.63.76.66 1.15.09 1.5-1.22 3.16-1.7 4.57-1.02 3.04-1.23 6.41-1.01 9.61.22 3.17 1.3 6.41 2.91 9.14 2.57 4.36 5.67 7.71 10.67 9.11 4.75 1.33 9.9 1.61 14.71.38 2.46-.62 4.75-1.65 6.85-3.06 1.44-.96 2.66-2.23 3.89-3.44.7-.7 1.64-1.81 2.68-1.07 1.03.73 1.49 2.31 2.41 3.23 5.62 5.65 12.22 6.76 19.99 6.15 3.22-.25 6.47-.75 9.53-1.83 9.54-3.37 16.7-14 15.4-24.23-.36-2.87-1.74-4.31 1.71-5.19 9.52-2.41 17.02-8.61 18.84-18.56.74-4.01.59-8.32-.93-12.17zM119 67.33c-.23 8.17-10.09 17.64-18.68 16.02-1.32-.25-2.41.17-3.18.91-1.67.87-2.72 2.82-1.4 4.85 5.73 8.88-1.19 18.38-9.72 21.92-3.47 1.44-7.3 1.72-11 1.74-7.45.03-11.03-3.68-13.47-10.2-.49-1.31-1.57-1.94-2.67-2.02-1.42-.4-3.06-.07-4.1 1.49-5.18 7.77-14.52 11.42-23.03 6.53l-.12-.07c-1.98-1.18-3.39-3.13-4.43-5.15-2.24-4.33-2.79-8.22-1.12-12.9.67-1.9 1.4-3.69 2.5-5.37 2.52-3.84 2.11-6.37-2.78-6.75-2.12-.17-4.24-.52-6.27-1.16-6.99-2.22-10.77-8-11.5-15.14C6.57 47.59 22.53 39.15 34.66 44c.45.18.87.2 1.25.12 1.66-.2 3.09-1.86 1.95-3.75l-.04-.07-.19-.36c-5.06-9.11.69-19.4 8.94-24.17 3.21-1.85 7.24-2.2 10.84-1.56 3.17.56 5.42 3.3 6.54 6.15 1.12 2.84.35 6.52 2.26 9.01 2.15 2.81 6.7-.3 8.73-1.72 2.35-1.65 4.62-3.42 7.27-4.59 4.25-1.89 8.91-2.6 13.52-1.87.39.06.79.13 1.18.21 6.18 1.28 10 6.69 9.92 12.88-.06 4.42-2.02 8.91-5.55 11.7-1.36 1.07-3.19 2.04-3.28 4.03-.15 3.51 4.42 3.33 6.8 3.25 3.94-.13 7.66-.19 10.96 2.44 3.44 2.72 3.35 7.7 3.24 11.63z"/></g></svg>