<svg xmlns="http://www.w3.org/2000/svg" xmlns:xlink="http://www.w3.org/1999/xlink" width="128" height="128" viewBox="0 0 128 128"><defs><path id="a" d="M73.79 42.33s5.7 18.94.27 20.85l19.1 1.14s5.36-1.95-1.66-20.97l-17.71-1.02z"/></defs><use xlink:href="#a" overflow="visible" fill="#ED6C30"/><clipPath id="b"><use xlink:href="#a" overflow="visible"/></clipPath><path clip-path="url(#b)" fill="#855C52" d="M64.4 4.41c-2.25.15-4.96.96-7.39 3.38-5.38 5.38-12.36 20.53-10.96 29.49s13.35 11.56 30.7 13.63c11.52 1.38 29.29 1.91 32.07-12.23 3.3-16.75 4.78-31.68-10.77-32.1-2.4-.06-10.29.31-16.73-.17-7.64-.58-15.44-2.1-16.92-2z"/><g><defs><path id="c" d="M60.53 78.48s-2 27.28-2.4 28.47c-.4 1.19-4 2.54-4.8 1.19-.8-1.36-.8-29.48-.8-29.48l8-.18zm32-1.74s5.33.48 7.33 11.27c1.64 8.85 4.13 24.93 4.53 27 .4 2.06 4 .63 4.67-.8.67-1.43-2.53-26.2-3.2-31.6-.66-5.4-2-11.12-5.86-12.7l-7.47 6.83zM72.4 81.5s2.93.4 3.6 10c.67 9.6 2.94 35.2 2.94 35.2s1.2 1.33 3.07.53c1.87-.8 3.47-1.6 3.33-3.2-.13-1.6-.4-31.74-.53-35.6-.14-3.87.53-7.47-2.8-9.73l-9.61 2.8zm-44.96-9.29s-3.27 4.61-4.27 10.8c-.53 3.23-2.18 12.03-3.65 19.73-.86 4.52-2.21 12.48-2.14 13.25.22 2.32 6.28-.57 6.84-1.69.94-1.86 1.15-4.33 1.77-6.53 1-3.51 6.24-30.02 12.8-33.74l-11.35-1.82z"/></defs><use xlink:href="#c" overflow="visible" fill="#ED6C30"/><clipPath id="d"><use xlink:href="#c" overflow="visible"/></clipPath><path clip-path="url(#d)" fill="#855C52" d="M23.31 65.83c3.85-1.71 16.19-4.29 24.99-4.23 8.22.06 14.26 2.56 16.53 3.29 4.88 1.55 8.43 2.38 16.35 2.27 11.61-.16 24.35-4.08 26.93.46 1.3 2.27 1.17 4.32.23 6.03-.95 1.72-13.61 17.29-49.07 12.81-14.24-1.8-29.72-5.86-35.8-10.69-4.27-3.37-2.74-8.8-.16-9.94z"/></g><g><path fill="#ED6C30" d="M64.05.51c-2.25.15-4.96.96-7.39 3.38-5.38 5.38-12.35 20.53-10.96 29.49s13.35 11.56 30.7 13.63c11.52 1.38 29.29 1.92 32.07-12.23 3.3-16.76 4.78-31.68-10.77-32.11-2.4-.06-10.29.31-16.73-.17C73.34 1.93 65.53.41 64.05.51zM22.64 61.1c3.85-1.71 16.19-4.29 24.99-4.23 8.22.06 14.26 2.56 16.53 3.29 4.88 1.55 8.43 2.38 16.36 2.27 11.61-.16 24.34-4.08 26.92.46 1.3 2.27 1.17 4.32.23 6.03-.95 1.72-13.61 17.29-49.08 12.81-14.24-1.8-29.72-5.86-35.81-10.69-4.24-3.38-2.72-8.8-.14-9.94z"/><path fill="#F79329" d="M101.59 16.56c0 4.01-.63 10.77-2.48 17.48-1.58 5.76-3.95 7.82-9.16 7.65-5.21-.17-12.45-2.02-7.4-9.25 3.78-5.43 8.25-9.16 11.31-13.22 2.07-2.75 4.02-5.53 5.38-6.63.88-.71 1.43-.62 1.77-.11.58.84.58 2.82.58 4.08zM54.03 73.43s13.3 3.48 23.7 1.84c10.4-1.64 17.66-6.12 18.5-7.61.85-1.49-1.57-1.42-5.56-.24-3.99 1.18-14.88 3.5-18.38 3.74-2.4.16-14.95.02-18.63-.27-3.49-.28-2.13 1.97.37 2.54z"/></g></svg>