<svg xmlns="http://www.w3.org/2000/svg" width="128" height="128" viewBox="0 0 128 128"><path fill="#D7598B" d="M124.19 108.17H14.64c-1.31 0-2.36-1.06-2.36-2.36V56.57c0-1.3 1.06-2.36 2.36-2.36h109.55c1.31 0 2.36 1.06 2.36 2.36v49.24c0 1.31-1.06 2.36-2.36 2.36z"/><path fill="#BDCF46" d="M112.69 58.82H3.14c-1.31 0-2.36-1.06-2.36-2.36V7.21c0-1.3 1.06-2.36 2.36-2.36h109.55c1.31 0 2.36 1.06 2.36 2.36v49.24c0 1.31-1.06 2.37-2.36 2.37z"/><path fill="#78A3AD" d="M99.14 70.84c-15.48 0-28.09-12.6-28.09-28.09 0-15.48 12.6-28.08 28.09-28.08 15.48 0 28.08 12.6 28.08 28.08 0 15.49-12.59 28.09-28.08 28.09z"/><path fill="#FCC21B" d="M99.14 127c-15.48 0-28.09-12.6-28.09-28.08 0-15.48 12.6-28.08 28.09-28.08 15.48 0 28.08 12.6 28.08 28.08 0 15.48-12.59 28.08-28.08 28.08z"/><g fill="#FFF"><path d="M55.32 87.75l-.34.07c-2.22 1.77-6.06 3.1-8.91 3.1-3.08 0-5.61-1.19-7.27-3.15h6c.29 0 .52-.23.52-.51v-3.73c0-.28-.23-.51-.52-.51h-8c-.05-.39-.11-.78-.11-1.19 0-.42.06-.8.11-1.2h8c.29 0 .52-.23.52-.51V76.4c0-.28-.23-.51-.52-.51h-5.99c1.66-1.95 4.19-3.14 7.26-3.14 2.99 0 6.04.96 7.98 2.51l.34.07.26-.21 3.47-6.94-.11-.48c-3.09-2.45-7.01-3.64-11.98-3.64-8.43 0-15 4.72-17.35 11.83H23.1c-.28 0-.5.23-.5.51v3.74c0 .28.23.51.5.51h4.68c-.03.4-.06.79-.06 1.2 0 .4.03.79.06 1.19H23.1c-.28 0-.5.23-.5.51v3.73c0 .28.23.51.5.51h5.57c2.35 7.1 8.92 11.83 17.35 11.83 4.85 0 9.03-1.48 12.46-4.39l.1-.45-2.99-6.79-.27-.24zM22.48 30.15h-6.49c-.33 0-.61.28-.61.61v4.02c0 .34.28.61.61.61h9.97v2.51h-9.97c-.33 0-.61.27-.61.61v4.03c0 .34.28.61.61.61h9.97v6.81c0 .42.34.77.77.77h7.77c.43 0 .77-.34.77-.77v-6.81h9.89c.34 0 .61-.27.61-.61v-4.03c0-.34-.27-.61-.61-.61h-9.89v-2.5h9.89c.34 0 .61-.28.61-.61v-4.02c0-.34-.27-.61-.61-.61h-6.41l8.51-12.69c.16-.24.18-.55.04-.79a.788.788 0 0 0-.68-.41H39.3c-.25 0-.49.12-.64.33l-8.05 11.57-8.05-11.57a.787.787 0 0 0-.64-.33h-7.31c-.29 0-.55.16-.68.41a.75.75 0 0 0 .04.79l8.51 12.68zM111.35 43.7c-.65-.51-1.42-1-2.23-1.47-1.96-1.12-4.27-2.12-6.48-2.98v-5.79c2.09.68 3.97 1.36 5.51 2 .24.11.54.01.69-.21l.28-.41 2.83-4.28.08-.45-.28-.36c-.65-.35-1.56-.77-2.62-1.21-1.83-.75-4.13-1.55-6.48-2.15v-3.4c0-.39-.31-.7-.71-.7H96.3c-.39 0-.7.31-.7.7v2.54c-5.23.24-8.79 2.06-10.83 5.57-1.59 2.75-1.59 5.86.01 8.1 1.68 2.4 4.41 3.46 7.87 4.81l.46.17c.8.31 1.64.62 2.49.93v7.05c-2.94-.7-5.68-1.95-7-2.65-.34-.18-.62-.34-.75-.42a.568.568 0 0 0-.77.12l-.23.3-2.67 3.48-.06.07-.8 1.05-.11.42.22.38c.76.56 1.65 1.1 2.6 1.62.05.02.08.05.13.07 1.87 1.02 3.99 1.95 6.11 2.6.77.24 1.93.55 3.31.82v2.65c0 .39.31.7.7.7h5.64c.39 0 .71-.31.71-.7v-2.2c.9-.07 1.76-.2 2.57-.39 2.61-.6 4.76-1.77 6.43-3.48.03-.02.05-.05.07-.07.34-.35.66-.71.96-1.11.32-.42.61-.85.87-1.32.2-.35.35-.7.5-1.05.49-1.19.67-2.38.58-3.55-.13-1.57-.78-3.08-1.95-4.47-.38-.46-.81-.91-1.31-1.33zM95.59 32.47v4.25c-1.57-.51-2.58-1.02-2.48-2.26.11-1.27 1.33-1.78 2.48-1.99zm7.05 15.27c1.17.52 2.07 1.07 2.4 1.75 0 .01.01.01.01.02.19.4.17.85-.04 1.39-.36.94-1.3 1.44-2.36 1.69v-4.85zM114.96 109.42l-2.76-3.49-.11-.05-.32-.17-.44.16c-.06.05-2.86 2.72-6.8 2.85-1.18 0-3.33-.57-5.41-1.12-.82-.22-1.6-.42-2.35-.6.18-.38.34-.75.48-1.13.42-1.1.74-2.24.94-3.37h6.45c.16 0 .31-.07.41-.17.11-.11.17-.25.17-.41v-5.11a.58.58 0 0 0-.58-.58h-6.16c-.23-3.19-.89-5.54-.94-5.75-.07-.23-.66-2.23 1.37-3.01 1.7-.67 3.49 1.91 3.97 2.85l.42.31.49-.14 4.79-4.28c.19-.18.25-.46.12-.7-.13-.27-3.44-6.59-9.97-6.59-.65 0-1.3.06-1.97.19-6.02 1.14-9 5.58-7.96 11.85.11.64.26 1.35.43 2.1.21 1 .44 2.07.6 3.18h-5.86a.58.58 0 0 0-.58.58v5.11c0 .16.06.3.17.41.11.11.25.17.41.17h5.42c-.49 1.24-1.32 2.39-2.64 3.37-.99.74-2.24 1.38-3.84 1.89l-.35.31v.47l.37.87 2.42 5.67c.05.13.15.22.26.28l.02.02h.04c.07.02.13.06.2.06l.09-.01c.11-.01 1.18-.19 2.66-.79.62-.1 1.34-.16 2.19-.16 2.41 0 5.12.48 8.13 1.45 1.98.51 3.89.77 5.64.77 8.2 0 11.1-5.39 11.22-5.62l-.06-.63-.78-1.04z"/></g></svg>