<svg xmlns="http://www.w3.org/2000/svg" width="128" height="128" viewBox="0 0 128 128"><path fill="#FCC21B" d="M80.02 9.61c.85-1.11 1.74-1.54 2.64-1.54 1.37 0 2.75 1.01 4.05 2.19a9.863 9.863 0 0 0 3.31 2.67c.9.37 1.81.48 2.74.48 1.31 0 2.64-.22 3.95-.22h.07l.59-.02c1.5 0 2.9.42 4.2 1.26 1.18 1.18 1.64 2.6 1.4 4.27-.35 1.37-.17 2.65.55 3.84 1.29 1 2.65 1.89 4.08 2.66 1.48.91 2.38 2.21 2.71 3.9.06 1.78-.81 2.87-2.61 3.27-2.33.46-4.69.76-7.07.89-1.75.18-3.45.33-5.13.74-.77-.97-1.68-1.83-2.69-2.6.48-.58.71-1.44 1.04-2.15.54-1.15 2.76-5.11 1.5-6.35-1.13-1.11-3.85.46-4.65 1-.31.21-2.8 2.46-4.21 4.08-1.87-.73-3.76-1.3-5.5-1.75-.59-.15-1.18-.25-1.79-.34-1.27-5.33-2.79-11.59.82-16.28z"/><path fill="#ED6C30" d="M74.47 34.24c-.22-.38-.21-.79-.07-1.16.15-.37.43-.7.75-.93.86-.61 1.84-.9 2.85-.99 1.4-.13 2.86.14 4.19.57 2.02.67 3.69 1.7 5.57 2.64 1.13.56 3.01 1.54 3.55 2.88.06.14.11.28.13.42.2 1.22-1.29 2.29-2.66 2.54-.46.09-.91.07-1.27-.06-3.69-2.36-7.73-4.11-12.06-5.12-.29-.22-.73-.38-.98-.79z"/><path fill="#FCC21B" d="M93.81 117.43c-16.11 3.97-38.51 3.69-54.5.52-14.97-2.96-26.44-11.79-25.12-29.17 1.33-17.58 12.99-34.15 29.02-41.44 15.51-7.06 36.32-10.51 47.28 5.52 2.73 3.99 7.94 12.84 8.18 17.19.02.35.04.66.11.96.02 1.09.46 2.19 1.53 3 6.89 5.22 11.92 12.14 12.84 21.63 1.1 11.31-9.6 19.39-19.34 21.79z"/><path fill="#2F2F2F" d="M118.95 83.5c-1.45-3.12-3.45-5.94-5.79-8.45-2.19-2.33-5.34-4.11-6.85-7.01-.2-.38-.37-.78-.52-1.19-.68-1.85-.95-3.92-1.64-5.74-2.01-5.3-4.85-9.94-8.32-13.84 1.88-1.45 2.47-3.81 2.33-6.18.81-.14 1.71-.23 2.7-.33l.35-.03c2.64-.15 5.31-.49 7.94-1.01l.17-.04c5.32-1.18 8.64-5.43 8.46-10.83-.01-.39-.06-.78-.13-1.17-.73-3.78-2.85-6.84-6.14-8.86l-.38-.21c-.21-.11-.42-.23-.63-.35.11-3.44-1.16-6.63-3.64-9.12-.37-.37-.78-.7-1.22-.98-2.52-1.64-5.31-2.47-8.28-2.47-.29 0-.57.01-.86.02-.94.01-1.72.08-2.41.14-.45.04-.88.07-1.21.08l-.35-.36c-.24-.3-.49-.57-.77-.82C89.81 2.96 86.75.58 82.65.58c-3.31 0-6.36 1.59-8.57 4.47-5.62 7.31-3.71 16.06-2.29 22.04-.74.42-1.43.92-2.04 1.57-.9.99-1.94 2.59-2.23 4.17-.07.41-.07.82-.03 1.21-3.39-.09-6.87.2-10.42.96-17.26 3.73-32.5 15.42-41.84 30.26-1.78 2.82-3.26 5.84-4.45 8.96-3.08 8.08-5.81 19.04-3.85 27.67 3.45 15.17 18.81 21.14 32.61 23.38 11.8 1.92 24.09 2.48 36.01 1.98 16.75-.7 41.87-4.42 45.59-24.55 1.2-6.46.58-13.21-2.19-19.2zM80.02 9.61c.85-1.11 1.74-1.54 2.64-1.54 1.37 0 2.75 1.01 4.05 2.19a9.863 9.863 0 0 0 3.31 2.67c.9.37 1.81.48 2.74.48 1.31 0 2.64-.22 3.95-.22h.07l.59-.02c1.5 0 2.9.42 4.2 1.26 1.18 1.18 1.64 2.6 1.4 4.27-.35 1.37-.17 2.65.55 3.84 1.29 1 2.65 1.89 4.08 2.66 1.48.91 2.38 2.21 2.71 3.9.06 1.78-.81 2.87-2.61 3.27-2.33.46-4.69.76-7.07.89-1.75.18-3.45.33-5.13.74-.77-.97-1.68-1.83-2.69-2.6.48-.58.71-1.44 1.04-2.15.54-1.15 2.76-5.11 1.5-6.35-1.13-1.11-3.85.46-4.65 1-.31.21-2.8 2.46-4.21 4.08-1.87-.73-3.76-1.3-5.5-1.75-.59-.15-1.18-.25-1.79-.34-1.27-5.33-2.79-11.59.82-16.28zm-5.55 24.63c-.22-.38-.21-.79-.07-1.16.15-.37.43-.7.75-.93.86-.61 1.84-.9 2.85-.99 1.4-.13 2.86.14 4.19.57 2.02.67 3.69 1.7 5.57 2.64 1.13.56 3.01 1.54 3.55 2.88.06.14.11.28.13.42.2 1.22-1.29 2.29-2.66 2.54-.46.09-.91.07-1.27-.06-3.69-2.36-7.73-4.11-12.06-5.12-.29-.22-.73-.38-.98-.79zm19.34 83.19c-16.11 3.97-38.51 3.69-54.5.52-14.97-2.96-26.44-11.79-25.12-29.17 1.33-17.58 12.99-34.15 29.02-41.44 15.51-7.06 36.32-10.51 47.28 5.52 2.73 3.99 7.94 12.84 8.18 17.19.02.35.04.66.11.96.02 1.09.46 2.19 1.53 3 6.89 5.22 11.92 12.14 12.84 21.63 1.1 11.31-9.6 19.39-19.34 21.79z"/><path fill="#2F2F2F" d="M81.77 88.39c-2.08-3.38-5.91-7.05-9.53-10.2l2.81-7.78c2.5 1.95 4.7 3.78 6.42 5.36.28.27.72.29 1.04.06l6.44-4.79c.18-.14.29-.34.32-.57a.8.8 0 0 0-.21-.62c-1.91-2.13-6.05-5.86-10.58-8.93l1.65-4.56c.19-.52-.07-1.09-.6-1.29l-7.57-2.74c-.52-.19-1.1.08-1.29.6l-1.23 3.41c-7.13-2.21-12.79-1.5-17.23 2.21-3.48 2.92-4.98 7.09-3.92 10.87 1.08 4.03 4.24 6.79 8.24 10.28l.51.45c.93.8 1.92 1.63 2.89 2.46l-3.42 9.46c-4.49-2.94-8.25-7.01-8.89-7.9a.806.806 0 0 0-1.08-.21l-7.42 4.74c-.18.11-.31.3-.36.52-.04.21 0 .43.12.61 2.23 3.36 5.88 7.12 9.77 10.06.93.7 2.33 1.68 4.05 2.71l-1.29 3.55c-.18.52.08 1.09.6 1.28l7.58 2.75c.52.19 1.1-.08 1.29-.6l1.07-2.96c6.92 1.88 13 .79 17.7-3.23 4.54-3.88 5.32-9.34 2.12-15zm-15.7-22.72L64 71.39c-1.93-1.5-2.96-2.63-2.23-4.25.76-1.65 2.65-1.76 4.3-1.47zm2.06 23.9c1.33 1.29 2.27 2.48 2.36 3.57.04.62-.19 1.22-.73 1.84-.94 1.09-2.44 1.3-3.99 1.11l2.36-6.52z"/></svg>