<svg xmlns="http://www.w3.org/2000/svg" width="128" height="128" viewBox="0 0 128 128"><path fill="#757F3F" d="M123.85 31.44H4.16c-1.82 0-3.29 1.47-3.29 3.29v58.54c0 1.81 1.47 3.29 3.29 3.29h119.69c1.81 0 3.29-1.47 3.29-3.29V34.73c-.01-1.81-1.48-3.29-3.29-3.29z"/><path fill="#FFF" d="M24.49 82.1c.85.26 2.11.6 3.62.89v2.89c0 .42.35.77.77.77h6.16c.43 0 .77-.35.77-.77v-2.4c5.47-.45 9.57-2.82 11.9-6.95 2.25-3.98 1.39-8.11-2.38-11.35-2.38-1.89-6.09-3.53-9.52-4.86v-6.33c2.29.74 4.35 1.48 6.02 2.19.28.11.59.02.76-.23l3.39-5.13.09-.49-.31-.4c-1.93-1.04-5.88-2.64-9.94-3.67v-3.71a.77.77 0 0 0-.77-.77h-6.16a.77.77 0 0 0-.77.77v2.78c-5.71.27-9.6 2.25-11.83 6.08-1.75 3.01-1.75 6.4 0 8.85 1.84 2.61 4.83 3.78 8.61 5.25l.5.19c.87.33 1.8.68 2.72 1.01v7.7c-4.02-.96-7.77-2.9-8.45-3.36a.624.624 0 0 0-.84.13l-4.11 5.35-.12.46.24.41c2.48 1.85 6.09 3.61 9.65 4.7zm3.62-29.2v4.66c-1.73-.56-2.82-1.13-2.71-2.48.12-1.39 1.45-1.95 2.71-2.18zM38.4 73.05c-.4 1.04-1.42 1.57-2.59 1.84v-5.31c1.3.58 2.28 1.19 2.64 1.96.2.42.18.92-.05 1.51z"/></svg>