<svg xmlns="http://www.w3.org/2000/svg" xmlns:xlink="http://www.w3.org/1999/xlink" width="128" height="128" viewBox="0 0 128 128"><defs><path id="a" d="M120.84 91.8c-.26 9.44-.15 16.49-7.9 17.52-20.48 2.73-64.2 4.18-76.89 4.85-.78.04-1.52.04-2.2.01-.73-.09-1.44-.17-2.16-.26-8.07-1.61-6.55-9.86-6.37-16.73.19-6.93.8-35.98.96-49.92.62-9.13 10.66-8.67 13.72-8.89 16.19-1.12 67.05.48 71.57.47 3.46-.01 8.23 1.9 8.52 7.68.46 8.98.87 40.93.75 45.27z"/></defs><use xlink:href="#a" overflow="visible" fill="#78A3AD"/><clipPath id="b"><use xlink:href="#a" overflow="visible"/></clipPath><path clip-path="url(#b)" fill="#FFF" d="M26.24 53.44c.78 2.16 3.35 3.28 5.47 2.43 2.9-1.16 2.25-4.53 3.62-6.78 2.72-4.44 9.33-3.75 13.87-3.84 6.43-.12 12.88-.07 19.32-.1 3.69-.01 7.37-.06 11.05-.15 5.77-.14 11.54-.16 17.31-.29 4.94-.06 9.89-.42 14.79.35 2.66.42 8.46 1.5 8.57 5.07l3.27-1.92s-.38-13.12-10.81-13.12H34.35c-1.83.85-4.25 1.8-5.67 3.24-.63.64-.71 1.38-.93 2.21-.34 1.28-.88 2.4-1.07 3.73-.11.73-.36 1.32-.38 2.1-.03 1.56.03 3.01-.27 4.53-.14.84-.08 1.74.21 2.54z"/><g fill="#2F2F2F"><path d="M112.62 52.17c-2.46-.36-5.5-.05-7.19-.01-21.4.45-42.99.09-64.33 1.53-2.27.15-8.77-.03-9.94 2.29-.5 1 .47 2.28 1.64 2.46.7.11 1.76-.04 2.47-.04 3.46 0 6.91-.16 10.35-.16 18 0 36.08-.1 54.08-.7 5.03-.17 10.1-.55 14.98-1.63 1.31-.29 2.11-1.11 1.27-2.22-.65-.87-1.89-1.3-3.33-1.52zM34.23 70.97c.86.1 1.73.18 2.6.24 3.37.22 6.75.13 10.13 0 14.02-.53 28.06-.79 42.09-1.27 8.12-.28 16.53-.3 24.59-1.21 1.6-.18 3.12-1.11 2.17-2.7-1.35-2.26-7.83-1.7-10.09-1.72-21.42-.22-42.92 1.38-64.32 2.15-1.7.05-4.76-.08-7.17.42-.77.16-2.17.42-2.45 1.16-.27.71.08 2.08.82 2.57.43.28 1.11.3 1.63.36zM112.62 80.54c-2.46-.36-5.5-.05-7.19-.01-21.4.45-42.99.08-64.33 1.53-2.27.15-8.77-.03-9.94 2.29-.5 1 .47 2.28 1.64 2.45.7.11 1.76-.04 2.47-.04 3.46 0 6.91-.16 10.35-.16 18 0 36.08-.09 54.08-.7 5.03-.17 10.1-.56 14.98-1.64 1.31-.28 2.11-1.1 1.27-2.22-.65-.85-1.89-1.28-3.33-1.5zM105.64 91.86c-21.42.02-42.9 1.85-64.28 2.86-1.7.07-4.75-.03-7.17.5-.76.17-2.16.45-2.42 1.19-.26.71.11 2.08.86 2.56.44.28 1.11.28 1.63.33.86.1 1.74.17 2.61.21 3.37.19 6.76.06 10.12-.1 14.02-.69 28.05-1.1 42.07-1.74 8.12-.37 16.53-.49 24.57-1.48 1.61-.19 3.1-1.15 2.13-2.72-1.39-2.23-7.85-1.61-10.12-1.61z"/></g><path fill="#2F2F2F" d="M126.27 44.69c-.07-.84-.16-1.65-.3-2.44-.82-5-3.01-8.86-9.1-10.32-3.37-.81-6.87-1.05-10.33-1.23-3.15-.18-13.55-1.49-41.01-1.49-20.77 0-41.83 1.68-44.78 1.97C7.78 32.45 3.21 36.04 2.17 47.89 1.99 50 .69 99 .79 99.88l-.02.12c.39 5.35 1.28 10.09 6.26 13.01 4.1 2.4 17.24 7.49 24.03 7.53 1.08.08 2.19.15 3.31.19 8.9.33 78.24-3.36 81.17-4.3 2.39-.76 5.88-1.38 7.3-3.69 3.36-5.45 3.18-11.1 3.58-17.27 1.06-16.08 1.15-35.86-.15-50.78zm-5.43 47.11c-.26 9.44-.15 16.49-7.9 17.52-20.48 2.73-64.2 4.18-76.89 4.85-.78.04-1.52.04-2.2.01-.73-.09-1.44-.17-2.16-.26-8.07-1.61-6.55-9.86-6.37-16.73.19-6.93.8-35.98.96-49.92.62-9.13 10.66-8.67 13.72-8.89 16.19-1.12 67.05.48 71.57.47 3.46-.01 8.23 1.9 8.52 7.68.46 8.98.87 40.93.75 45.27z"/><g><path fill="#78A3AD" d="M58.86 20.66s18.02-.73 20.44.48c0 0 1.87 2.2 1.97 12.72l11.76.08c.38-13.89-5.36-21.42-5.36-21.42-6.54-3.86-36.72-2.08-36.72-2.08-8.02 5.05-7.73 23.18-7.73 23.18l12.8.08c.12-3.93.61-11.85 2.84-13.04z"/><path fill="#FFF" d="M57.13 11.16c-3.1.02-6.73.74-8.88 2.99-3.13 3.26-3.22 8.36 1.28 10.37 6.08 2.72 6.91-4.6 11.85-5.26 2.84-.38 6.81-.38 9.65.01 2.52.35 5.7-.34 7.98 1.04 1.22.74 1.13 1.69 1.86 2.74.86 1.23 2.32 1.76 3.75 1.92 3.78.41 7-1.09 6.86-5.32-.46-13.56-21.55-8.49-30.1-8.49h-4.25z"/><path fill="#2F2F2F" d="M95.74 36.74l-17.22-.11-.02-2.73c-.06-6.11-.75-9.11-1.15-10.38-.99-.12-3.19-.29-7.78-.29-3.81 0-7.69.12-9.52.18-.36 1.03-1.07 4.41-1.23 10.38l-.07 2.72-18.25-.13-.04-2.72c-.04-2.02-.06-19.86 9.02-25.58l.6-.38.71-.04c.07 0 7.12-.41 15.06-.41 18.36 0 22.03 2.16 23.23 2.88l.79.71c.26.34 6.34 8.48 5.93 23.18l-.06 2.72zM83.98 31.1l6.26.04c-.31-9.16-3.45-14.85-4.47-16.47-1.65-.7-6.42-1.86-19.92-1.86-6.25 0-11.94.26-13.96.36-4.16 3.27-5.52 12.34-5.82 17.69l7.3.05c.64-10.81 3.09-12.11 4.18-12.69l.56-.3.63-.03s5.47-.22 10.82-.22c8.3 0 10.02.51 10.98.99l.87.69c.69.8 2.21 3.5 2.57 11.75z"/></g><g><defs><path id="c" d="M24.91 37.79s-3.42.7-4.64 4.25c-2.13 6.17-1.81 21.43-2.1 33.96-.34 14.27-.95 29.7.66 33.1 1.01 2.12 2.38 2.86 3.65 3.67 0 0-9.78-3.45-13.32-5.6C5 104.63 6.08 96.64 6.08 91.23c0 0 .74-17.28.74-29.3 0-10.41-.43-21.43 4.97-23.36 3.99-1.43 13.12-.78 13.12-.78z"/></defs><use xlink:href="#c" overflow="visible" fill="#FFF"/></g></svg>