<svg xmlns="http://www.w3.org/2000/svg" width="128" height="128" viewBox="0 0 128 128"><path fill="#FFF" d="M100.13 75.29c-1.2 4.49-2.41 8.98-3.65 13.45-2.37 8.52-4.52 14.86-6.98 20.57-.14.32-.35.89-.6 1.59-.38 1.02-1.28 3.48-1.89 4.63l-.34.12c-.01 0-.12.03-.42.03-.78 0-1.82-.16-2.67-.29-.43-.07-.81-.13-1.12-.16-5.33-.63-10.56-1.81-14.97-2.87-4.18-1.01-8.6-1.97-13.9-3-10.57-2.05-19.32-3.86-27.53-5.68l-1.27-.28c-4.39-.97-8.94-1.97-13.24-3.28l-.06-.01c1.54-2.8 2.97-5.84 4.27-9.06 3.47-8.59 5.67-17.62 7.79-26.34 1.49-6.09 3.03-12.4 4.97-18.4l.57-1.8c1.62-5.12 3.63-11.37 7.13-15.03l21.89.66h.1c1.21 0 2.32-.68 2.86-1.76l7.92-15.76c.24.07.47.13.61.17.34.1.62.18.79.21 2 .46 3.99.74 5.92 1.01l1.45.2c6.95 1.01 13.78 2.63 20.39 4.2l1.94.45c2.85.66 5.79 1.34 8.4 2.26 2.46.88 5.02 1.55 7.73 2.03-1.43 3.8-3.51 10.08-6.95 20.48-3.47 10.46-6.35 21.24-9.14 31.66z"/><path fill="#FFF" d="M59.78 16.61l-3.54 7.05-9.42-.28-2.2-.07c4.03-2.42 9.42-5.35 15.88-8.13l-.72 1.43z"/><g fill="#006CA2"><path d="M121.07 17.37c-3.83-.4-7.26-1.14-10.47-2.28-2.94-1.05-6.08-1.77-9.1-2.47l-1.91-.44c-6.43-1.52-13.71-3.25-20.94-4.3l-1.49-.21c-1.88-.26-3.65-.51-5.36-.91l-.48-.13c-1.83-.53-3.44-.88-4.8-.59-.16.03-.33.04-.5.1-20.21 7.21-32.96 17.15-33.5 17.57-.45.36-.77.83-.97 1.35-4.5 4.73-6.78 11.76-8.6 17.51l-.56 1.76c-2.01 6.23-3.58 12.65-5.09 18.86-2.07 8.5-4.22 17.3-7.51 25.46-1.31 3.24-2.76 6.28-4.32 9.04l-.17.28c-.6.98-2.03 3.27-.72 5.54 1 1.75 3.11 2.26 4.66 2.62l.41.1c4.55 1.38 9.22 2.41 13.73 3.41l1.27.28c8.27 1.83 17.07 3.65 27.69 5.71 5.2 1.01 9.53 1.94 13.61 2.93 4.6 1.11 10.05 2.34 15.73 3.01.25.03.55.08.89.13 1.06.17 2.38.37 3.65.37.98 0 1.82-.13 2.54-.39.48-.07 1.05-.21 1.75-.63 1.6-.97 2.6-3.14 4.38-7.95.21-.56.37-1.02.48-1.28 2.56-5.98 4.8-12.57 7.26-21.37 1.25-4.5 2.46-9 3.67-13.51 2.77-10.34 5.63-21.02 9.01-31.31.38-1.13 7.41-21.48 8.27-23.62.2-.39.33-.83.35-1.3.1-1.69-1.16-3.17-2.86-3.34zm-20.94 57.92c-1.2 4.49-2.41 8.98-3.65 13.45-2.37 8.52-4.52 14.86-6.98 20.57-.14.32-.35.89-.6 1.59-.38 1.02-1.28 3.48-1.89 4.63l-.34.12c-.01 0-.12.03-.42.03-.78 0-1.82-.16-2.67-.29-.43-.07-.81-.13-1.12-.16-5.33-.63-10.56-1.81-14.97-2.87-4.18-1.01-8.6-1.97-13.9-3-10.57-2.05-19.32-3.86-27.53-5.68l-1.27-.28c-4.39-.97-8.94-1.97-13.24-3.28l-.06-.01c1.54-2.8 2.97-5.84 4.27-9.06 3.47-8.59 5.67-17.62 7.79-26.34 1.49-6.09 3.03-12.4 4.97-18.4l.57-1.8c1.62-5.12 3.63-11.37 7.13-15.03l21.89.66h.1c1.21 0 2.32-.68 2.86-1.76l7.92-15.76c.24.07.47.13.61.17.34.1.62.18.79.21 2 .46 3.99.74 5.92 1.01l1.45.2c6.95 1.01 13.78 2.63 20.39 4.2l1.94.45c2.85.66 5.79 1.34 8.4 2.26 2.46.88 5.02 1.55 7.73 2.03-1.43 3.8-3.51 10.08-6.95 20.48-3.47 10.46-6.35 21.24-9.14 31.66zM59.78 16.61l-3.54 7.05-9.42-.28-2.2-.07c4.03-2.42 9.42-5.35 15.88-8.13l-.72 1.43z"/><path d="M95.87 45.08c-1.76-.13-3.53-.32-5.32-.53-.32-.16-.67-.27-1.08-.32-12.35-1.25-24.87-4.53-36.99-7.06-.25-.05-.47-.06-.69-.05-1.93-.42-3.85-.84-5.75-1.23-3.13-.65-4.48 4.13-1.33 4.82 1.78.39 3.57.75 5.36 1.11.27.2.59.36 1 .45 5.87 1.34 11.01 3.57 17.06 4.04 7.23.56 14.11 3.12 21.33 3.83.38.04.71 0 1.02-.08 1.8.28 3.59.52 5.38.66 3.64.28 3.61-5.37.01-5.64zM92.43 59.11c-16.69-3.57-33.57-6.17-50.34-9.55-2.94-.59-4.15 3.62-1.24 4.51 16.25 4.96 33.33 7.79 49.92 11.07 3.93.77 5.62-5.19 1.66-6.03zM86.07 72.49c-15.31-5.12-32.85-7.58-48.87-9.28-2.91-.31-3.15 4-.66 4.84 15.55 5.27 32.04 6.13 47.79 10.72 4.07 1.19 5.69-4.96 1.74-6.28zM82.46 86.54c-16.45-3.09-32.76-8.92-49.53-9.71-2.58-.12-3.86 3.94-1.37 5.05 6.54 2.91 13.87 2.87 20.81 4.68 9.28 2.42 19.03 4.06 28.46 5.9 3.87.75 5.52-5.19 1.63-5.92zM68.49 98.38C58.41 97.2 48.25 93.48 38.42 91c-2.39-.6-9.93-3.06-11.15.51l-.04.11c-.25.73.03 1.69.58 2.21 4.12 3.82 10.94 4 16.09 5.33 7.88 2.02 15.84 3.62 23.73 5.53 4.51 1.08 5.54-5.76.86-6.31z"/></g></svg>