<svg xmlns="http://www.w3.org/2000/svg" width="128" height="128" viewBox="0 0 128 128"><path fill="#FFF" d="M17.81 96.72c-2.87-.69-7.28-1.17-8.34-2.57-.53-.7.08-1.75.75-2.64.42-.56 12.74-20.17 17.07-32.85 1.6-4.69 3.25-9.37 4.48-14.17.63-2.46 1.18-4.93 1.66-7.42.38-1.95 1.37-3.62 3.59-3.44.76.06 13.7 1.01 29.08 2.03 12.98.86 28.59 1.76 31 2.21 2.02.38 2.1 1.84 1.72 3.57-.6 2.72-1.13 5.46-1.65 8.21-1.03 5.44-2.02 10.9-3.46 16.25-3.21 11.97-8.34 23.49-13.51 34.74-.85 1.84-1.62 3.66-3.49 4.29-3.55 1.18-9.18-.11-13.6-.66-20.15-2.54-36.48-5.43-45.3-7.55z"/><path fill="#FFF" d="M98.38 94.56c-1.19 9.76-3.08 23.33-3.16 23.34-10.05.1-55.32-4.3-67.56-6.19.17-1.15.24-5.92.24-5.92s11.44 1.61 14.65 2.09c5.7.85 11.41 1.67 17.12 2.42 5.86.77 11.92.95 17.82 1.44 4.69.39 7.04-1.19 8.86-5.66 2.04-5.01 4.11-10.01 6.11-15.04 1.01-2.53 7.7-25.54 7.7-25.54s-.59 19.23-1.78 29.06zM103.8 90.94c.86-11.38 1.47-22.78 1.84-34.18.18-5.69.79-28.63 1-31.09.2-2.3.2-3.3 2.78-2.96l.2.03c-.25 7.18-1.33 36.95-2.71 59.36-1.17 19.21-2.06 31.03-2.43 35.76-1.82-.01-3.11-.03-3.11-.03s1.82-18.72 2.43-26.89zM110.04 82.3c1.35-22.01 2.41-51.08 2.7-58.98.81.16 1.69.34 2.57.53-.3 8.53-1.35 36.89-2.67 58.44-1.16 18.92-2.03 30.66-2.41 35.53-.85.02-1.73.03-2.6.04.38-4.9 1.26-16.66 2.41-35.56zM121.51 30.66c-1.08 31.34-3.95 70.43-4.71 81.59-.11 1.58.04 4.73-.77 5.09-.38.17-1.37.28-2.65.36.4-5.09 1.26-16.72 2.39-35.21 1.29-21.11 2.32-48.71 2.65-57.91.55.14 1.06.29 1.48.42.29.09 1.14.21 1.4 1.07.44 1.42.23 3.93.21 4.59z"/><path fill="#FCC21B" d="M97.45 31.38c-1.68.08-3.3-.09-4.97-.16-7.7-.35-15.41-.95-23.11-1.43-6.66-.41-27.5-2.07-31.27-2.34-1.7-.13-3.53-.15-5.17-.66-1.32-.41-2.19-.67-2.19-2.24.01-1.27-.04-2.53.03-3.8.08-1.39-.24-3.91.84-5.03 1.14-1.18 3.24-.75 4.68-.74 2.62.02 32.78 2.07 45.23 2.97 3.41.24 6.83.52 10.23.95 2.12.26 4.27.26 6.38.6 4.34.69 3.58 4.5 3.62 7.97.02 3.54-1.22 3.75-4.3 3.91z"/><g fill="#2F2F2F"><path d="M125.88 20.95c-.99-1.66-3.51-2.54-5.22-2.95-5.56-1.34-11.11-3.28-16.83-3.79-6.22-.55-21.1-2.15-21.1-2.15s-.69-3.51-3.26-6c-2.36-2.28-7.41-3.33-11.88-1.03-3.45 1.77-4.36 6.23-4.36 6.23s-4.2-.02-5.84-.12c-7.83-.48-15.68-.85-23.53-.97-4.78-.07-8.19-.58-8.68 5.34-.26 3.08-.38 6.27-.53 9.35-.03.7.32 4.19 1.2 5.39.75 1.01 3.85 1.93 3.85 1.93s-1.96 8.85-4.43 15.52c-3.7 9.99-4.89 13.47-8.73 21.16-3.91 7.84-9.07 15.36-13.83 22.7-.46.72-.93 1.43-1.4 2.15-3.42 5.19 8.19 7.3 10.94 7.93 1.82.42 8.04 1.89 8.04 1.89s-.58 7.81-.17 10.03c.22 1.18.23 2.19 2.85 3.01 4.05 1.28 11.54 2.12 13.94 2.44 6.45.88 36.32 4.18 57.34 5.21 3.68.18 21.05-.97 23.66-1.2 1.05-.09 2.22-.26 3.22-.6 2.21-.75 2.08-3.93 2.13-5.75.09-3.15 1.74-28.35 2.82-51.59.88-18.95 1.23-36.97 1.25-37.69.04-2.6-.37-4.64-1.45-6.44zM71.37 8.8c4.48-.97 5.02 3.11 5.02 3.11l-7.49-.28c0 .01-.05-2.29 2.47-2.83zM17.81 96.72c-2.87-.69-7.28-1.17-8.34-2.57-.53-.7.08-1.75.75-2.64.42-.56 12.74-20.17 17.07-32.85 1.6-4.69 3.25-9.37 4.48-14.17.63-2.46 1.18-4.93 1.66-7.42.38-1.95 1.37-3.62 3.59-3.44.76.06 13.7 1.01 29.08 2.03 12.98.86 28.59 1.76 31 2.21 2.02.38 2.1 1.84 1.72 3.57-.6 2.72-1.13 5.46-1.65 8.21-1.03 5.44-2.02 10.9-3.46 16.25-3.21 11.97-8.34 23.49-13.51 34.74-.85 1.84-1.62 3.66-3.49 4.29-3.55 1.18-9.18-.11-13.6-.66-20.15-2.54-36.48-5.43-45.3-7.55zm80.57-2.16c-1.19 9.76-3.08 23.33-3.16 23.34-10.05.1-55.32-4.3-67.56-6.19.17-1.15.24-5.92.24-5.92s11.44 1.61 14.65 2.09c5.7.85 11.41 1.67 17.12 2.42 5.86.77 11.92.95 17.82 1.44 4.69.39 7.04-1.19 8.86-5.66 2.04-5.01 4.11-10.01 6.11-15.04 1.01-2.53 7.7-25.54 7.7-25.54s-.59 19.23-1.78 29.06zm-.93-63.18c-1.68.08-3.3-.09-4.97-.16-7.7-.35-15.41-.95-23.11-1.43-6.66-.41-27.5-2.07-31.27-2.34-1.7-.13-3.53-.15-5.17-.66-1.32-.41-2.19-.67-2.19-2.24.01-1.27-.04-2.53.03-3.8.08-1.39-.24-3.91.84-5.03 1.14-1.18 3.24-.75 4.68-.74 2.62.02 32.78 2.07 45.23 2.97 3.41.24 6.83.52 10.23.95 2.12.26 4.27.26 6.38.6 4.34.69 3.58 4.5 3.62 7.97.02 3.54-1.22 3.75-4.3 3.91zm6.35 59.56c.86-11.38 1.47-22.78 1.84-34.18.18-5.69.79-28.63 1-31.09.2-2.3.2-3.3 2.78-2.96l.2.03c-.25 7.18-1.33 36.95-2.71 59.36-1.17 19.21-2.06 31.03-2.43 35.76-1.82-.01-3.11-.03-3.11-.03s1.82-18.72 2.43-26.89zm6.24-8.64c1.35-22.01 2.41-51.08 2.7-58.98.81.16 1.69.34 2.57.53-.3 8.53-1.35 36.89-2.67 58.44-1.16 18.92-2.03 30.66-2.41 35.53-.85.02-1.73.03-2.6.04.38-4.9 1.26-16.66 2.41-35.56zm11.47-51.64c-1.08 31.34-3.95 70.43-4.71 81.59-.11 1.58.04 4.73-.77 5.09-.38.17-1.37.28-2.65.36.4-5.09 1.26-16.72 2.39-35.21 1.29-21.11 2.32-48.71 2.65-57.91.55.14 1.06.29 1.48.42.29.09 1.14.21 1.4 1.07.44 1.42.23 3.93.21 4.59z"/><path d="M64.73 20.08c-1.65-.09-3.11 1.31-3.2 3.09-.09 1.77 1.2 3.32 2.85 3.41 1.65.09 3.11-1.32 3.2-3.09.1-1.77-1.2-3.32-2.85-3.41zM41.99 81.72l-2.58-.32 16.54-35.95c.09-.21.07-.45-.06-.64-.12-.19-.34-.36-.57-.29l-13.56.47c-.25.01-.47.16-.58.38l-4.08 8.88c-.1.2-.08.43.04.62.11.19.31.31.53.31l3.69.15L29.92 80.2l-3-.38c-.3-.04-.56.12-.68.38l-3.88 8.43c-.09.19-.09.41.02.59.1.18.29.31.5.33l15.07 1.9.08.01c.25 0 .49-.15.6-.39l3.88-8.43c.09-.19.08-.41-.02-.59-.11-.18-.3-.3-.5-.33zM73.5 95.94c.25 0 .49-.15.6-.39l4.16-9.04a.646.646 0 0 0-.52-.92l-16.01-2.02c3.24-1.33 9.41-4.16 17.13-9.12 6.98-4.48 12.76-13.55 9.96-20.39-1.91-4.65-5.48-7.01-10.62-7.01-8.62 0-18.56 6.69-18.97 6.97-.2.13-.31.37-.29.61l.74 7.73c.02.23.16.42.36.53.2.1.44.09.63-.02.06-.04 6.5-3.92 10.87-3.92 2.14 0 3.29.9 3.62 2.82 1.6 9.32-25.4 19.81-25.67 19.92l-.34.31-4.35 9.45c-.09.19-.08.41.02.59.11.18.29.31.5.33l28.11 3.54.07.03z"/></g></svg>