<svg xmlns="http://www.w3.org/2000/svg" width="128" height="128" viewBox="0 0 128 128"><path fill="#FFF" d="M37.16 58.65c-.63-4.55-1.29-9.26-2.06-13.89-.2-1.19-.44-2.31-.71-3.38a36 36 0 0 0-.92-3.08c-.37-1.06-.77-2.08-1.21-3.01-2.07-4.44-4.8-7.5-7.47-9.59-.01-.01-.03-.02-.04-.03 9.71-1.9 24.69-4.82 34.4-6.61 1.25-.23 2.38-.44 3.43-.63 1.74-.31 3.21-.57 4.24-.74 8.58-1.37 14.34.17 17.39 4.73 1.53 2.28 2.63 5.08 3.38 8.54.52 2.38 1.05 4.8 1.6 7.24 1.64 7.4 3.34 15.05 4.58 22.27.97 5.63 2 11.4 3.36 17.13l-39.02 7.82a3.2 3.2 0 0 0-2.54 2.84 3.24 3.24 0 0 0 1.99 3.28c.03.01.16.07.37.17-1.55.31-3.09.68-4.63.91-3.66.55-2.9 6.2.77 5.68 2.95-.41 6.06-.86 8.93-1.7.82 1.4 1.49 3.13 1.82 5.27-.92.25-1.67.61-2.77.85-1.1.25-2.17.57-3.26.82-3.77.86-2.35 6.77 1.4 5.83 1.42-.36 3.14-.75 4.68-1.4-.7 4.1-2.85 5.73-3.67 6.21-.28.02-.58.05-.86.05-6.36 0-15.15-6.99-20.87-40.31-.89-5.06-1.61-10.25-2.31-15.27z"/><path fill="#FFF" d="M115.31 100.49c-.93.86-1.78 1.43-2.22 1.69l-.7.16-41.98 9.73c.01-.02.01-.05.02-.08.93-2.69 1.37-6.17.78-10.68-.67-5-2.72-8.57-4.89-11.02l32.47-6.51 3.15-.63 3.15-.63 9.33-1.87c1.47 1.6 4.08 5.06 4.72 9.85.62 4.8-1.8 8.11-3.83 9.99z"/><g fill="#006CA2"><path d="M125.47 89.66c-1.23-9.29-7.73-14.72-8-14.95-.74-.61-1.73-.86-2.66-.67l-11.4 2.28c-1.35-5.63-2.37-11.36-3.33-16.95-1.27-7.37-2.98-15.1-4.64-22.57-.54-2.43-1.08-4.85-1.59-7.21-.92-4.26-2.33-7.78-4.33-10.75-4.5-6.72-12.49-9.28-23.72-7.48-9.44 1.51-50.06 9.54-51.78 9.88l-.05.01c-.25.05-6.17 1.39-9.47 7.05-2.57 4.41-2.82 10.03-.75 16.7a3.198 3.198 0 0 0 3.05 2.25c.23 0 .45-.02.68-.08l20.65-4.45c.25.97.48 1.99.66 3.08.75 4.55 1.4 9.22 2.03 13.73.7 5.07 1.43 10.31 2.32 15.46 1.94 11.28 7.84 45.62 27.18 45.62.57 0 1.15-.06 1.73-.12h.01c.15-.02.28-.01.42-.03l.27-.05h.02l52.21-12.1c.27-.06.52-.15.76-.28.47-.24 11.36-6.06 9.73-18.37zM37.16 58.65c-.63-4.55-1.29-9.26-2.06-13.89-.2-1.19-.44-2.31-.71-3.38a36 36 0 0 0-.92-3.08c-.37-1.06-.77-2.08-1.21-3.01-2.07-4.44-4.8-7.5-7.47-9.59-.01-.01-.03-.02-.04-.03 9.71-1.9 24.69-4.82 34.4-6.61 1.25-.23 2.38-.44 3.43-.63 1.74-.31 3.21-.57 4.24-.74 8.58-1.37 14.34.17 17.39 4.73 1.53 2.28 2.63 5.08 3.38 8.54.52 2.38 1.05 4.8 1.6 7.24 1.64 7.4 3.34 15.05 4.58 22.27.97 5.63 2 11.4 3.36 17.13l-39.02 7.82a3.2 3.2 0 0 0-2.54 2.84 3.24 3.24 0 0 0 1.99 3.28c.03.01.16.07.37.17-1.55.31-3.09.68-4.63.91-3.66.55-2.9 6.2.77 5.68 2.95-.41 6.06-.86 8.93-1.7.82 1.4 1.49 3.13 1.82 5.27-.92.25-1.67.61-2.77.85-1.1.25-2.17.57-3.26.82-3.77.86-2.35 6.77 1.4 5.83 1.42-.36 3.14-.75 4.68-1.4-.7 4.1-2.85 5.73-3.67 6.21-.28.02-.58.05-.86.05-6.36 0-15.15-6.99-20.87-40.31-.89-5.06-1.61-10.25-2.31-15.27zm78.15 41.84c-.93.86-1.78 1.43-2.22 1.69l-.7.16-41.98 9.73c.01-.02.01-.05.02-.08.93-2.69 1.37-6.17.78-10.68-.67-5-2.72-8.57-4.89-11.02l32.47-6.51 3.15-.63 3.15-.63 9.33-1.87c1.47 1.6 4.08 5.06 4.72 9.85.62 4.8-1.8 8.11-3.83 9.99z"/><path d="M65.59 28.62c1.2-.13 2.39-.26 3.58-.4 2.19-.26 4.36-.57 6.48-1.1 2.98-.75 2.54-5.22-.65-4.83-3.05.37-6.04.76-9.02 1.19-1.17.17-2.33.37-3.49.55-1.16.18-2.33.35-3.49.55-5.98 1-11.91 2.2-17.99 3.77-2.69.7-2.82 4.25-1.08 5.3.48.29 1.08.4 1.82.2 5.97-1.55 11.93-3.08 17.97-4.34 1.94-.41 3.9-.66 5.87-.89zM45.99 46.56c12.35-1.72 24.53-4.44 36.74-6.92 2.86-.58 2.33-4.94-.62-4.53-12.35 1.72-24.45 4.78-36.78 6.62-3.1.46-2.46 5.26.66 4.83zM69.36 58.15c5.63-1.33 11.65-1.9 17.08-3.88 2.97-1.09 1.03-5.41-1.91-4.47-5 1.61-10.73 2.05-15.89 3.02-7.63 1.43-14.81 4.06-22.61 4.6-3.59.25-2.82 5.79.75 5.53 7.76-.58 15.03-3.02 22.58-4.8zM89.89 71.3c3.31-1.08 1.18-6.07-2.12-4.98-1.66.55-3.33 1.04-5.02 1.49h-.15c-8.73 1.56-17.24 3.43-25.81 5.34-1.88.38-3.74.8-5.59 1.25-.82.18-1.63.36-2.43.55-3.55.79-2.85 6.38.76 5.64 8.6-1.77 17.28-3.75 25.87-5.82 4.92-.87 9.78-1.94 14.49-3.47z"/></g></svg>