<svg xmlns="http://www.w3.org/2000/svg" width="128" height="128" viewBox="0 0 128 128"><path fill="#FFF" d="M3.95 26.99h120.1v84.65H3.95z"/><path fill="#2F2F2F" d="M124.05 114.84H3.95c-1.77 0-3.2-1.43-3.2-3.2V26.99c0-1.77 1.43-3.2 3.2-3.2h120.1c1.77 0 3.2 1.43 3.2 3.2v84.65c0 1.77-1.43 3.2-3.2 3.2zm-116.9-6.4h113.7V30.19H7.15v78.25z"/><path fill="#78A3AD" d="M99.07 111.64V95.01s8.98-.14 14.53-1.62c5.34-1.42 10.44-6.65 10.44-6.65s-3.11 8.27-11.3 16.18c-5.77 5.57-13.67 8.72-13.67 8.72z"/><path fill="#2F2F2F" d="M99.07 114.84a3.188 3.188 0 0 1-3.2-3.2V95.01a3.2 3.2 0 0 1 3.15-3.2c.09 0 8.65-.15 13.76-1.51 3.69-.98 7.73-4.51 8.98-5.79a3.212 3.212 0 0 1 4.01-.47c1.28.81 1.81 2.41 1.28 3.83-.14.36-3.46 9.04-12.08 17.35-6.16 5.94-14.37 9.25-14.71 9.39-.38.15-.79.23-1.19.23zm3.2-16.74v8.43c2.5-1.38 5.64-3.38 8.25-5.9 1.42-1.37 2.68-2.76 3.79-4.1-3.77.98-8.82 1.39-12.04 1.57zM90.51 30.19H37.58c-1.4 0-2.63-.9-3.05-2.23-.42-1.33.07-2.78 1.21-3.58L62.16 5.75c1.1-.78 2.58-.78 3.68 0l26.03 18.34a3.2 3.2 0 0 1 1.84 2.9c0 1.77-1.43 3.2-3.2 3.2zm-42.84-6.4h32.66L64 12.28 47.67 23.79z"/><g><path fill="#ED6C30" d="M17.6 50.9h8.8v3.29h-8.8z"/><path fill="#2F2F2F" d="M31.6 50.9h8.8v3.29h-8.8zM45.6 50.9h8.8v3.29h-8.8zM59.6 50.9h8.8v3.29h-8.8zM65.16 37.02v1.23h-2.32v-1.23H59.6v8.56h3.24v-1.14h2.32v1.14h3.24v-8.56zM73.6 50.9h8.8v3.29h-8.8zM87.61 50.9h8.8v3.29h-8.8z"/><path fill="#006CA2" d="M101.61 50.9h8.8v3.29h-8.8z"/></g><g><path fill="#2F2F2F" d="M75.8 61.62h4.4v4.27h-4.4zM89.81 61.62h4.4v4.27h-4.4z"/><path fill="#006CA2" d="M103.81 61.62h4.4v4.27h-4.4z"/><path fill="#ED6C30" d="M19.8 72.22h4.4v4.27h-4.4z"/><path fill="#2F2F2F" d="M33.8 72.22h4.4v4.27h-4.4zM47.8 72.22h4.4v4.27h-4.4zM61.8 72.22h4.4v4.27h-4.4zM75.8 72.22h4.4v4.27h-4.4zM89.81 72.22h4.4v4.27h-4.4z"/><path fill="#006CA2" d="M103.81 72.22h4.4v4.27h-4.4z"/><g><path fill="#ED6C30" d="M19.8 82.82h4.4v4.27h-4.4z"/><path fill="#2F2F2F" d="M33.8 82.82h4.4v4.27h-4.4zM47.8 82.82h4.4v4.27h-4.4zM61.8 82.82h4.4v4.27h-4.4zM75.8 82.82h4.4v4.27h-4.4zM89.81 82.82h4.4v4.27h-4.4z"/><path fill="#006CA2" d="M103.81 82.82h4.4v4.27h-4.4z"/></g><g><path fill="#ED6C30" d="M19.8 93.42h4.4v4.27h-4.4z"/><path fill="#2F2F2F" d="M33.8 93.42h4.4v4.27h-4.4zM47.8 93.42h4.4v4.27h-4.4zM61.8 93.42h4.4v4.27h-4.4z"/></g></g></svg>