<svg xmlns="http://www.w3.org/2000/svg" xmlns:xlink="http://www.w3.org/1999/xlink" width="128" height="128" viewBox="0 0 128 128"><path fill="#FFF" d="M43.53 22.03c-5.93.43-11.85.51-17.73 1.18-2.77.32-5.48 1.26-8.28 1.51-2.75.24-5.45.18-8.2.52-.86.11-1.6.52-2.66.57-1.43.07-1.89-.3-2.61 1.07-1.24 2.4.55 7.48 1.11 9.78 1.21 4.91 2.26 9.86 3.79 14.68 1.56 4.96 3.47 9.76 4.22 14.91.66 4.5 1.75 9 2.2 13.51.33 3.27.27 6.37 1.47 9.48 2.05 5.39 3.53 10.97 4.91 16.57 1.19 4.85 1.95 8.08 5.55 11.8.96.99 3.92 3.41 3.9 4.81 3.08.52 6.67.08 9.8.08 4.63 0 8.56-1.44 13.05-2.05 4.53-.62 9.06-1.74 13.56-2.41 3.95-.59 7.99-1.26 11.83-2.44 5.59-1.72 11.01-3.84 16.82-3.94 4.03-.07 7.75-1.79 11.45-3.11.78-.28 8.06-1.77 8.05-2.44-.02-2.42-3.34-5.54-4.82-7.5-2.43-3.22-4.69-6.99-6.09-10.75-.83-2.23-2.82-4.26-3.69-6.64-.86-2.34-1.98-4.2-2.88-6.4-.87-2.14-1.15-4.88-2.13-7.18-2.57-6.04-7.31-11.15-9.01-17.49-.49-1.81-.46-3.73-1.3-5.47-.76-1.58-1.87-2.91-2.49-4.59-2.05-5.58-5.27-11.21-6.48-16.97-.48-2.3-1.56-5.21-3.35-6.82-1.99-1.78-3.35.92-5.8 1.4-2.63.51-5.38.6-8.06 1.19-5.34 1.17-10.64 2.74-16.13 3.14z"/><g fill="#006CA2"><path d="M118.19 103.07c-4-5.48-7.91-10.94-10.98-17.06-2.53-5.05-4.89-10.52-7.15-15.83-1.18-2.77-2.35-5.55-3.56-8.31-.9-2.05-3.03-5.17-2.98-7.51-.86-.25-3.63 1.21-3.95 2.04-.43 1.14.44 2.82.71 3.91.81 3.17 2.69 6.12 3.9 9.15 1.53 3.84 3.15 7.65 4.57 11.54 1.91 5.25 4.69 10.35 7.37 15.26a83.72 83.72 0 0 0 2.67 4.57c.33.53.64 1.06.98 1.58 1.63 2.41-.86 3-2.73 3.58-4.69 1.45-9.55 2.18-14.35 3.2-4.47.96-8.87 2.19-13.35 3.09-10.67 2.16-21.46 4.14-32.18 6.02-2.97.52-5.98.95-8.98 1.17-1.94.14-4.09.49-5.9-.4-1.91-.93-3.18-3.09-4.18-4.87-1.47-2.59-2.7-5.32-3.75-8.11-2.77-7.36-4.27-15.11-5.92-22.77-.86-4.02-1.76-8.04-2.91-11.99-3.19-10.92-5.09-22.15-7.69-33.21-.66-2.83-1.55-5.66-1.76-8.58-.05-.61.13-1.14.16-1.74.4.01.78-.24 1.15-.33.53-.12 1.11-.15 1.65-.19.92-.06 1.85-.14 2.78-.22 1.8-.16 3.61-.34 5.41-.53 4.06-.45 8.15-.47 12.22-.93 4.38-.5 8.74-1.21 13.13-1.62 8.67-.81 17.42-1.57 25.8-4.04.71-.21 2.08-.76 2.79-.42.92.45.89 1.7 1.38 2.46.68 1.07 1.35 2.69 1.75 3.89.24.73.46 1.4.75 2.11.34.83 1.42 3.69 2.42 3.54.33-.05 3.61-3.41 3.58-3.54-.45-1.65-1.71-3.25-2.41-4.89-.46-1.07-.7-2.2-1.01-3.32-.51-1.82-1.95-4.08-3.14-5.54-1.16-1.41-4.02-.32-5.54.03-4.02.92-7.9 2.41-11.96 3.15-5.76 1.05-11.6 1.59-17.43 2.09-3.45.3-6.91.58-10.37.93-4.98.52-9.97 1.14-14.96 1.52-1.4.07-2.81.18-4.22.31-1.65.14-3.25.05-4.91.32-1.02.16-1.97.45-2.97.68C.9 23.54.2 24.8.45 26.02c3.5 16.75 5.98 33.55 10.77 50.04 4.67 16.04 5.49 33.5 16.12 47.3 1.7 2.2 4.36 2.4 6.93 2.32 16.77-.54 33.39-5.2 49.73-8.63 11.67-2.44 24.32-4.01 35.12-9.32 1.49-.73 1.56-1.27.62-2.55-.52-.71-1.03-1.41-1.55-2.11z"/><path d="M59.71 32.55c-3.1.36-6.07 1.16-9.15 1.7-2.84.49-4.98-.31-7.77.77-3.27 1.27-6.84.73-10.25 1.28-3.18.51-6.54 4.29-9.5 1.13-2.39-2.54-6.12 1.25-3.81 3.81 4.4 4.86 9.5 2.23 14.78.41 1.81-.62 4.05.28 5.92-.14 2.18-.48 4.8-1.63 6.99-1.86 4.21-.45 8.53-1.11 12.77-1.68 3.4-.46 3.51-5.83.02-5.42zM48.37 51.81c-1.94.57-3.17.62-5.23.39-1.59-.17-3.84 1.43-5.23 1.97-2.5.97-5.6-.39-8.21-.36-2.03.03-3.95 1.42-5.69 2.28-3.37 1.66-.42 6.7 2.95 5.04 4.15-2.05 8.12-.37 12.49-1.35 1.74-.39 3.14-1.87 5.04-1.69 2.34.21 3.34-.07 5.37-.82 3.39-1.25 2.06-6.52-1.49-5.46zM46.7 69.1c-.87.52-2.28.18-3.29.3-2.09.26-3.66 2.47-5.88 1.99-4.11-.88-6.46-1.01-9.82 1.94-1.52 1.34-.25 3.75 1.57 3.8 2.52.07 4.07-1.2 6.75-.33 2.26.74 4.23.3 6.29-.74 1.79-.91 1.93-1.13 4-1.22 1.71-.07 3.11-.64 3.98-2.13 1.34-2.28-1.31-4.98-3.6-3.61z"/></g><g><defs><path id="a" d="M59.83 50.83s-4.34 20.69-4.34 20.71c-.11.58-.11 1.25.28 1.73.65.76 1.85.27 2.6.04.53-.16 1.06-.31 1.59-.47.76-.22 1.52-.45 2.28-.67l2.74-.81c.99-.29 1.97-.58 2.95-.87.98-.29 1.96-.58 2.93-.87.89-.26 1.78-.52 2.66-.79.72-.21 1.44-.43 2.16-.64a247.824 247.824 0 0 0 1.82-.55l-4.83-14.49-12.84-2.32z"/></defs><use xlink:href="#a" overflow="visible" fill="#FCD4B5"/><clipPath id="b"><use xlink:href="#a" overflow="visible"/></clipPath><path clip-path="url(#b)" fill="#006CA2" d="M56.55 64.82c-.75 2.39-1.48 4.77-2.01 6.58-.17.54-.3 1.04-.42 1.45-.24.86-.16 1.87.08 2.08.39.35.79.5 1.22.45l.09-.02c.87-.17 4.34-1.53 8.3-3.16-3.25-.66-6.78-3.73-7.26-7.38z"/><g><path fill="#FCD4B5" d="M120.44 9.81c-1.32-1.88-2.98-3.67-4.5-4.45-2.89-1.5-9.25-2.91-11.73.07-2.44 2.94-1.2 9.82.16 12.98 2.4 5.53 11.46 10.46 16.89 6.12 2.25-1.8 3.17-4.34 2.52-7.2-.29-1.29-.74-2.5-1.22-3.73-.44-1.12-1.2-2.48-2.12-3.79z"/><path fill="#40C0E7" d="M101.18 9.79c-1.24.63-2.35 1.5-3.32 2.49-1.97 2.03-3.73 3.64-6.13 5.18-3.97 2.55-7.22 6.37-10.7 9.51-2.6 2.35-4.78 5.09-7.22 7.6-2.16 2.23-3.56 5.12-5.49 7.54-1.19 1.48-2.08 3.12-3.25 4.61-1.12 1.42-2.48 2.77-3.33 4.36-.27.5-.87 1.32-.76 1.89.2.95.87.85 1.64 1.07 1.42.4 3 .25 4.3.88 0 .83.62 1.85.85 2.67.37 1.35.41 2.56 1.91 2.72 1.09.11 1.74.13 2.72.54 1.27.53 1.07 1.21 1.34 2.44.22 1 .43 2.33.82 3.26.21.49.53 1.13 1.09 1.3.95.29 1.29-.53 1.94-1.03 3.26-2.45 6.64-4.86 9.96-7.27 1.97-1.43 3.58-3.34 5.37-5 1.73-1.6 3.72-2.94 5.5-4.52 2.5-2.24 5.18-4.15 7.74-6.3 1.34-1.12 2.29-2.51 3.52-3.75 1.33-1.33 2.94-2.24 4.23-3.6 1.77-1.85 2.87-3.88 3.85-6.18.19-.46 1.08-1.38.85-1.97-.34-.85-2.06-.58-2.77-.73-2.32-.5-4.25-2.01-6.43-2.85-1.58-.62-2.62-1.91-3.64-3.19-.87-1.08-1.51-2.58-2.06-3.87-.73-1.72-.33-4.08-.33-5.92v-.53l-2.2-1.35z"/><path fill="#006CA2" d="M127.16 17.65c-2.83-10.64-14.59-19.78-25.21-13.02-.06.04-.13.08-.19.13-5.1 3.97-12.72 11.75-18.51 17.79-6.59 6.89-13.42 13.74-19.14 21.42-.71.94-1.46 1.73-2.08 2.74-.99 1.6-2.28 3.36-2.42 5.29-.2 2.61 2.6 3.12 4.66 3.34.58.06 1.4.25 1.58.89.21.76.34 1.58.52 2.35.16.71.15 1.59.61 2.2.45.6 1.36.6 2.02.68.7.09 1.4.17 2.11.28.4.06.88.09 1.22.35.55.42.52 1.22.73 1.82.28.81.38 1.68.6 2.51.18.68.34.98.97 1.28 1.76.85 3.65.16 5.13-.9 6.52-4.68 12.66-9.87 18.73-15.12 3-2.59 6.01-5.16 8.96-7.81.45-.4.9-.81 1.35-1.21 4.07-3.71 8.6-7.53 12.47-11.45.56-.56 1.12-1.13 1.65-1.72 3.4-3.82 5.7-6.4 4.24-11.84zm-61.2 30.33c2.96-3.48 6.2-6.77 9.3-10.13 6.54-7.1 13.42-13.93 20.31-20.68 1.01-.98 1.88-2.14 2.93-3.08.38-.33 1.11-1.12 1.67-.98.78.2.7 1.46.76 2.07.1.94.3 1.9.56 2.85l-34.62 35-3.67-.81c.73-1.47 1.61-2.89 2.76-4.24zm36.34-27.67c.77 1.78 1.82 3.44 3.13 4.75.23.24.48.46.75.67.44.34.91.68 1.39 1L72.92 59.92l-3.82-.76-.73-4.56 33.93-34.29zm10.77 10.62c-.29.27-.58.53-.87.8-.74.69-1.48 1.38-2.23 2.06-2 1.86-4.01 3.72-6.01 5.58-2.42 2.24-4.83 4.48-7.24 6.72-2.48 2.3-4.97 4.6-7.45 6.9-2.22 2.05-4.43 4.1-6.65 6.14-1.61 1.48-3.22 2.96-4.84 4.43-.63.57-1.26 1.19-1.94 1.71l-1.33-3.87 34.96-33.5c1.03.56 2.1 1.03 3.2 1.36 1.41.4 1.41.73.4 1.67zm8.97-9.7c-1.69 4.59-6.68 2.81-9.8 1.23-3.63-1.84-5.82-5.28-6.68-9.17-.78-3.52-.45-7.25 4.14-6.87 4.09.34 7.83 3.02 10.34 6.17 1.88 2.37 2.95 6.06 2 8.64z"/><path fill="#006CA2" d="M112.19 11.26c-1.85-.07-1.91 1.44-1.54 2.84.42 1.55 1.36 2.89 2.85 3.57 1.28.58 3.32 1.2 3.92-.68.34-1.06-.17-2.52-.97-3.44-1.05-1.22-2.6-2.23-4.26-2.29z"/></g></g></svg>