<svg xmlns="http://www.w3.org/2000/svg" xmlns:xlink="http://www.w3.org/1999/xlink" width="128" height="128" viewBox="0 0 128 128"><path fill="#B89278" d="M96.41 12.04c-.22-.5-.77-.76-1.3-.64-9.79 2.34-14.83 6.36-20.16 10.61-3.63 2.9-7.39 5.9-12.92 8.47-7.07 3.29-14.01 3.56-20.49 3.56l-3.16-.01c-7.44 0-17.37 3.73-17.79 3.89-.3.11-.53.34-.65.63s-.12.62.02.91l30.66 67.8a1.136 1.136 0 0 0 1.45.59c.1-.04 9.96-3.74 16.98-3.74l3.16.01c6.75 0 13.97-.29 21.46-3.77 5.77-2.68 9.65-5.77 13.39-8.76 5.12-4.09 9.97-7.96 19.25-10.17.34-.08.61-.3.76-.61.15-.31.16-.67.01-.98L96.41 12.04z"/><path fill="#FFF" d="M115.17 74.16L92.16 22.87c-.26-.58-.94-.84-1.51-.58-5.08 2.25-8.58 5.04-12.29 7.99-3.63 2.9-7.4 5.9-12.92 8.46-7.08 3.28-14 3.56-20.48 3.56l-3.19-.01c-7.43 0-17.37 3.73-17.79 3.89-.29.11-.53.34-.65.63s-.12.62.02.91l23.17 51.22c.16.34.47.59.84.66.07.01.14.02.2.02.15 0 .29-.03.42-.08.21-.08 10.02-3.73 16.96-3.73l3.15.01c6.75 0 13.97-.29 21.47-3.77 5.79-2.68 9.65-5.77 13.4-8.76 3.54-2.83 6.89-5.5 11.63-7.62.28-.13.49-.36.6-.64.11-.28.1-.6-.02-.87z"/><g><g fill="#855C52"><path d="M14.51 29.18c.58 1.37-1.01 3.35-3.56 4.42-2.54 1.07-5.07.82-5.65-.55-.57-1.37 1.02-3.35 3.56-4.42 2.55-1.06 5.07-.82 5.65.55z"/><path d="M5.295 33.062l9.207-3.876 2.611 6.202-9.206 3.876z"/><path d="M17.12 35.39c.58 1.37-1.01 3.35-3.56 4.42-2.55 1.07-5.07.83-5.65-.54-.57-1.38 1.02-3.35 3.56-4.42 2.54-1.08 5.08-.84 5.65.54z"/></g><path fill="#FCC21B" d="M10.7 33C3.87 35.87-.4 41.19 1.14 44.87l28.16 66.87c1.54 3.68 8.33 4.34 15.16 1.47 6.82-2.87 11.1-8.19 9.56-11.88L25.86 34.47c-1.54-3.69-8.34-4.35-15.16-1.47z"/><path fill="#FFF" d="M50.7 102.73c.94 2.24-2.35 5.76-7.34 7.87-5 2.1-9.81 1.99-10.76-.25-.94-2.24 2.35-5.76 7.34-7.86 4.99-2.11 9.82-2 10.76.24z"/><path fill="#757F3F" d="M36.07 93.26c5.95-2.51 11.66-2.84 14.1-1.06L28.73 41.3c-1.55-3.68-8.33-4.34-15.15-1.47-6.84 2.88-11.11 8.19-9.57 11.87l21.43 50.9c.44-2.97 4.66-6.83 10.63-9.34z"/><g fill="#855C52"><path d="M46.56 105.33c.58 1.37-1.02 3.36-3.56 4.43-2.54 1.07-5.09.82-5.65-.55-.58-1.37 1.02-3.35 3.56-4.43 2.55-1.07 5.07-.82 5.65.55z"/><path d="M49.17 111.53l-9.21 3.88-2.6-6.2 9.2-3.88z"/><path d="M49.17 111.53c.58 1.37-1.01 3.35-3.56 4.42-2.54 1.07-5.06.83-5.65-.55-.57-1.37 1.01-3.35 3.56-4.42 2.54-1.07 5.07-.82 5.65.55z"/></g><g><defs><path id="a" d="M32.77 85.43c5.96-2.5 11.67-2.83 14.1-1.06l-15.12-35.9c-1.54-3.68-8.33-4.34-15.16-1.47-6.82 2.87-11.1 8.19-9.55 11.87l15.12 35.91c.42-2.98 4.65-6.84 10.61-9.35z"/></defs><clipPath id="b"><use xlink:href="#a" overflow="visible"/></clipPath><path clip-path="url(#b)" fill="#FFF" d="M42.88 96.96l-8.95 3.77L7.79 38.62l8.97-3.77z"/></g></g></svg>