<svg xmlns="http://www.w3.org/2000/svg" width="128" height="128" viewBox="0 0 128 128"><path fill="#FCC21B" d="M103.9 1.68c-1.83-1.39-4.43-1.28-6.11.4-.19.19-.36.41-.51.63l-.03.01-19.44 27.17.02.04a4.633 4.633 0 0 0 .45 6.03c.16.15.34.3.53.43.1.08.21.16.33.23 2.61 1.82 2.94 1.8 5.21 3.28 3.28 2.09 8.35 4.51 14.1 6.89-1.18 7.64-7.81 19.01-20.25 31.43C65.79 90.67 54.43 97.3 46.8 98.46c-2.39-5.75-4.81-10.81-6.89-14.1-1.48-2.26-1.46-2.59-3.28-5.21-.08-.1-.15-.21-.23-.33 0 0 0-.01-.01-.01-.13-.17-.26-.37-.43-.52-1.65-1.65-4.2-1.79-6.03-.46h-.03L2.7 97.23v.04c-.22.16-.43.32-.63.52-1.66 1.67-1.78 4.28-.39 6.1C10.61 116.9 20.4 128.68 32 127.14c12.45-1.65 39.86-16.48 59.26-35.88 19.4-19.4 34.23-46.83 35.87-59.26 1.57-11.59-10.21-21.39-23.23-30.32"/><g fill="#FFF"><path d="M16.97 95.04c-1.14.63-2.61 1.76-3.11 2.06-1.01.61-1.98 1.16-2.95 1.84-2.16 1.53-3 3.55-1.42 5.83 2.1 3.02 7.55 9.38 11.72 7.37 1.54-.76-1.19-7.8-1.46-9.03-.38-1.7-.33-9.42-2.78-8.07zM97.13 38.31c.33-.72-.19-1.96-.92-2.91-.7-.9-1.62-1.76-2.19-2.74-1.29-2.21.39-11.4-1.89-11.4-1.21 0-2.62 1.56-3.29 2.4-1.03 1.28-1.62 2.88-2.62 4.21-.71.95-1.74 1.96-2.02 3.14-.62 2.61 2.32 3.7 4.13 4.78 2.21 1.31 4.6 2.85 7.23 3.09.89.09 1.37-.15 1.57-.57z"/></g></svg>