<svg xmlns="http://www.w3.org/2000/svg" width="128" height="128" viewBox="0 0 128 128"><path fill="#006CA2" d="M88.46 6.33C84.22 4.43 71.85 3.22 64 3.22c-7.84 0-20.23 1.21-24.46 3.11-4.15 1.86-5.82 5.54-5.82 8.99v97.35c0 3.46 1.67 7.13 5.82 8.99 4.23 1.9 16.62 3.11 24.46 3.11 7.85 0 20.22-1.21 24.46-3.11 4.15-1.86 5.82-5.54 5.82-8.99V15.33c0-3.46-1.67-7.13-5.82-9z"/><path fill="#FFF" d="M69.57 10.75H58.44a1.04 1.04 0 1 1 0-2.08h11.13c.58 0 1.04.46 1.04 1.04 0 .57-.46 1.04-1.04 1.04zM85.88 10.49a1.989 1.989 0 1 1-3.98 0 1.989 1.989 0 1 1 3.98 0z"/><linearGradient id="a" gradientUnits="userSpaceOnUse" x1="63.999" y1="104.767" x2="63.999" y2="22.714"><stop offset="0" stop-color="#fff"/><stop offset="1" stop-color="#00a0d6"/></linearGradient><path fill="url(#a)" d="M39.21 22.71h49.57v82.05H39.21z"/><g fill="#FFF"><path d="M48.37 108.93v.7l-1.53-1.11 1.53-1.12v.7h.88c1.72 0 2.83.51 2.83 1.99 0 1.49-1.11 2-2.83 2h-1.98v-.83h1.98c1.46 0 2-.32 2-1.17 0-.84-.53-1.16-2-1.16h-.88zM66.91 111.81h-5.73v-2.89l2.87-1.21 2.87 1.21v2.89zm-4.9-.84h4.07v-1.51l-2.03-.86-2.04.86v1.51zM80.55 111.81h-4.8v-3.04h4.8v3.04zm-3.96-.84h3.14v-1.37h-3.14v1.37z"/><path d="M81.91 110.1h-.83v-1.8h-3.55v-.83h4.38z"/></g></svg>