<svg xmlns="http://www.w3.org/2000/svg" width="128" height="128" viewBox="0 0 128 128"><path fill="#78A3AD" d="M115.01 63.33c-1.45-32.39-5.43-50-5.6-50.73-.2-.87-.75-1.61-1.52-2.06a3.14 3.14 0 0 0-2.54-.28c-3.85 1.19-7.98 2.22-12.24 3.12L90.78 2.62A3.18 3.18 0 0 0 87.24.13c-52.9 6.8-74.4 25.13-75.3 25.91a3.2 3.2 0 0 0-1.09 2.61c.01.19 1.24 19.21 5.39 50.12 4.33 32.22 9.6 45.95 9.82 46.52h.01c0 .01.01.02.02.03.12.3.29.57.5.82l.12.15c.22.23.46.43.74.59l.18.09c.1.05.2.11.31.15.11.04.22.03.33.06.11.03.21.09.32.11 2.88.41 6.57.62 10.96.62 26.8 0 72.95-7.51 74.9-7.82a3.192 3.192 0 0 0 2.68-3.26c0-.23-.73-22.44-2.12-53.5z"/><path fill="#2F2F2F" d="M115.01 63.33c-1.45-32.39-5.43-50-5.6-50.73-.2-.87-.75-1.61-1.52-2.06a3.14 3.14 0 0 0-2.54-.28c-3.85 1.19-7.98 2.22-12.24 3.12L90.78 2.62A3.18 3.18 0 0 0 87.24.13c-52.9 6.8-74.4 25.13-75.3 25.91a3.2 3.2 0 0 0-1.09 2.61c.01.19 1.24 19.21 5.39 50.12 4.33 32.22 9.6 45.95 9.82 46.52h.01c0 .01.01.02.02.03.12.3.29.57.5.82l.12.15c.22.23.46.43.74.59l.18.09c.1.05.2.11.31.15.11.04.22.03.33.06.11.03.21.09.32.11 2.88.41 6.57.62 10.96.62 26.8 0 72.95-7.51 74.9-7.82a3.192 3.192 0 0 0 2.68-3.26c0-.23-.73-22.44-2.12-53.5zm-11.18-45.97c1.2 6.52 3.72 22.42 4.78 46.25.46 10.1.84 19.23 1.15 27L94.45 19.63c3.22-.68 6.36-1.43 9.38-2.27zM22.6 77.91c-3.42-25.45-4.84-42.74-5.23-47.99 1.23-.9 3.42-2.4 6.64-4.24 3.3-1.88 7.69-4.1 13.24-6.41 11.08-4.58 26.81-9.46 47.9-12.41l1.66 7.73 1.35 6.26 17.03 78.94c-11.43 1.59-47.96 7.35-73.04 19.19-.42.2-.83.39-1.24.59-1.25-4.09-3.39-12.02-5.61-24.31-.9-5.03-1.82-10.79-2.7-17.35zm20.01 43.56c28.3-11.05 66.38-15.72 66.82-15.77.32-.04.61-.14.9-.26.14 3.8.25 6.79.32 8.77-10.08 1.56-45.24 6.8-68.04 7.26z"/><path fill="#2F2F2F" d="M68.94 50.7c-2.76.82-6.23 1.37-7.15 4.52-.79 2.7-.05 5.82.32 8.53.72 5.13 2.45 10.4 3.98 15.35.33 1.07.75 2.14 1.14 3.12 1.3 3.18 5.98 2.29 8.5 1.61 5.01-1.35 10.24-2.64 14.92-4.95.88-.44 1.39-.96 2.01-1.73.92-1.18.74-3.23.35-5.14-.95-4.53-1.89-9.07-2.87-13.6-.71-3.3-.98-8.17-3.73-10.54-1.62-1.4-3.41-.93-5.4-.55-4.08.77-8.1 2.2-12.07 3.38zM28.35 59.63c.9-.31 1.79-.66 2.68-1 4.59-1.76 9.1-3.85 13.65-5.81 4.85-1.66 9.71-3.29 14.37-5.15l.01-.01c3.53-1.18 6.72-2.59 10.71-3.27 3.78-.64 9.62-2.18 12.94-4.16 2.16-1.3.73-4.63-1.7-4.02-4.22 1.06-8.42 1.89-12.51 3.57-2.25.92-5.19 1.01-7.6 1.37-2.3.34-4.03 1.75-6.07 2.72-5.14 1.02-10.38 4.05-15 5.79-2.26.85-5.81 1.65-8.91 2.89-1.89.75-3.62 1.67-4.77 2.85-.29.24-.54.52-.71.85l-.04.05c-.74 1.15-.19 2.23.75 2.74.58.55 1.36.89 2.2.59zM31.26 70.94c.32-.11.62-.24.88-.35 1.57-.69 3.34-1.02 4.86-1.8 2.16-1.12 4.06-1.63 6.33-2.42 3.76-1.31 7.53-2.68 11.14-4.39 2.49-1.17.6-4.55-1.75-4.14-4.54.79-8.57 3.43-13.06 4.28-2.51.48-4.24 2.14-6.61 2.84-.7.21-1.31.39-1.9.58-1.1.36-2.09.79-3.16 1.7-1.13.96-1.08 2.56-.02 3.56.82.77 2.18.52 3.29.14zM36.26 81.88c1.55-.55 3.33-.85 4.79-1.63 1.93-1.03 5.61-2.38 7.75-2.99 1.8-.51 3.38-1.28 5.1-1.99 2.21-.9 2-4.13-.57-4.26-2.14-.11-3.76 1.07-5.79 1.65-2.98.85-6.08 2.14-8.87 3.5-2.26 1.1-5.16 1.56-7.25 2.98-.91.62-1.67 1.39-2.14 2.51-.42 1.01.11 2.27 1.25 2.29.33 0 .66-.04.99-.1 1.64-.33 3.16-1.4 4.74-1.96zM31.74 96.76c.74.57 1.74.82 2.8.35 7.7-3.44 16.01-5.61 23.49-9.51 1.93-1 1.13-4.48-1.15-4.24-3.7.39-7.65 2.35-11.01 3.9-4.57 2.1-9.36 3.41-13.93 5.39-.1.04-.17.1-.26.15-1.67.92-1.23 2.94.06 3.96zM91.75 88.68c-18.87 5.48-39.57 7.58-57.02 17.3-1.91 1.07-.61 4.33 1.51 3.58 9.54-3.37 19.09-6.89 28.9-9.34 9.25-2.31 18.78-3.88 27.97-6.63 3.15-.93 1.81-5.83-1.36-4.91zM82.52 26.56a1.066 1.066 0 1 0-.55-2.06c-20.06 5.31-40.65 13.1-51.26 17.33-2.99 1.19-5.19 2.1-6.36 2.58-.6.25-.94.4-.97.41-.54.23-.8.86-.56 1.4.17.4.57.65.98.65l.42-.08c.01 0 .08-.03.17-.08.6-.25 2.86-1.2 6.35-2.6 10.33-4.13 31.34-12.13 51.78-17.55zM36.43 32.62c4.33.33 8.43-3.4 12.53-4.31 3.9-.87 7.81-2.6 11.67-3.97.61-.21 1.22-.44 1.82-.63 3.6-1.12 1.95-6.89-1.55-5.61-3.78 1.39-7.68 2.55-11.53 3.7-2.36.7-4.55 2.41-7.07 2.6-.99.08-1.83.62-2.65 1.2-.99.68-1.98 1.4-3.22 1.38-3.68-.08-3.58 5.37 0 5.64z"/></svg>