<svg xmlns="http://www.w3.org/2000/svg" width="128" height="128" viewBox="0 0 128 128"><path fill="#2F2F2F" d="M64.79 15.5c-7.7 0-13.18 14.26-14.98 33.94 5.16.05 8.63 7.25 8.63 16.13 0 8.66-4.1 15.71-8.32 16.1 2.07 18.11 7.37 30.95 14.68 30.95 5.27 0 14.04-21.74 14.04-48.55-.01-26.83-8.77-48.57-14.05-48.57z"/><path fill="#78A3AD" d="M39.84 64.06c0-23.58 6.5-43.29 15.23-48.56h-3.29c-3.38 0-10.21 9.87-14.31 24.51L25.22 55.38c-1.46.22-2.91.57-4.38.9-.57-6.23-1.84-10.57-4.23-10.91.1-.01-.32-.05-.32-.05H8.12C3.69 45.32.1 54.31.1 65.41c0 11.09 3.59 20.1 8.02 20.1h8.18s.42-.03.32-.05c2.42-.35 3.71-4.84 4.26-11.25l4.35 1.24L39.29 93.2s.11.05.27.08c4.35 11.73 10.01 19.32 11.73 19.32h3.8c-8.76-5.26-15.25-24.97-15.25-48.54z"/></svg>