<svg xmlns="http://www.w3.org/2000/svg" width="128" height="128" viewBox="0 0 128 128"><path fill="#006CA2" d="M64 3.69c-33.31 0-60.31 27-60.31 60.31s27.01 60.32 60.32 60.32 60.31-27 60.31-60.32c-.01-33.31-27-60.31-60.32-60.31z"/><path fill="#ED6C30" d="M64 .35C28.85.35.36 28.85.36 64s28.5 63.65 63.65 63.65c35.16 0 63.64-28.49 63.64-63.65C127.64 28.85 99.16.35 64 .35zm19.58 109.67v1.73h-4.7c-4.7 1.46-9.7 2.25-14.88 2.25-27.61 0-50-22.38-50-50 0-27.61 22.39-50 50-50 4.65 0 9.14.64 13.41 1.83h6.16v2.15C101.47 25.6 114 43.33 114 64s-12.53 38.4-30.42 46.02z"/><g fill="#FFF"><path d="M83.58 15.83c-7.6 0-13.01 14.09-14.79 33.52 5.09.04 8.52 7.15 8.52 15.93 0 8.56-4.05 15.52-8.22 15.9 2.04 17.88 7.28 30.57 14.49 30.57 5.21 0 13.87-21.47 13.87-47.95 0-26.5-8.66-47.97-13.87-47.97z"/><path d="M58.94 63.8c0-23.29 6.42-42.76 15.04-47.96h-3.25c-3.34 0-10.08 9.75-14.13 24.2L44.5 55.23c-1.44.22-2.87.56-4.33.89-.56-6.15-1.82-10.43-4.18-10.78.1-.01-.31-.04-.31-.04H27.6c-4.38 0-7.92 8.88-7.92 19.84s3.55 19.85 7.92 19.85h8.08s.41-.03.31-.05c2.4-.34 3.66-4.78 4.21-11.11l4.3 1.23 13.89 17.53s.11.04.26.08c4.3 11.59 9.9 19.08 11.58 19.08h3.75c-8.63-5.21-15.04-24.67-15.04-47.95z"/></g><path fill="#ED6C30" d="M112.89 101.57l-11.1 11.1-88.12-87.35 11.1-11.11z"/></svg>