<svg xmlns="http://www.w3.org/2000/svg" width="128" height="128" viewBox="0 0 128 128"><path fill="#2F2F2F" d="M64.79 15.5c-7.7 0-13.18 14.26-14.98 33.94 5.16.04 8.63 7.24 8.63 16.12 0 8.66-4.1 15.72-8.32 16.1 2.07 18.11 7.37 30.95 14.67 30.95 5.27 0 14.04-21.74 14.04-48.55 0-26.82-8.76-48.56-14.04-48.56z"/><path fill="#78A3AD" d="M39.84 64.06c0-23.58 6.5-43.29 15.23-48.56h-3.29c-3.39 0-10.21 9.87-14.31 24.51L25.22 55.39c-1.46.22-2.91.57-4.38.9-.57-6.23-1.84-10.57-4.23-10.91.11-.01-.31-.04-.31-.04H8.12C3.69 45.34.1 54.33.1 65.43c0 11.09 3.59 20.1 8.02 20.1h8.18s.41-.03.31-.05c2.43-.35 3.71-4.84 4.26-11.25l4.35 1.25 14.06 17.75s.11.04.27.08c4.35 11.74 10.01 19.32 11.73 19.32h3.8c-8.75-5.28-15.24-25-15.24-48.57z"/><path fill="#40C0E7" d="M84.93 44.93c2.97 4.29 4.72 11.24 4.72 19.07s-1.75 14.78-4.72 19.07l4.73 4.76c4.22-5.42 6.65-14 6.65-23.83 0-9.83-2.42-18.41-6.65-23.82l-4.73 4.75zM102.52 27.23l-4.85 4.88c4.6 7.73 7.31 19.17 7.31 31.89 0 12.72-2.7 24.16-7.31 31.9l4.84 4.88c5.83-8.85 9.12-21.93 9.12-36.78 0-14.84-3.28-27.92-9.11-36.77z"/></svg>