<svg xmlns="http://www.w3.org/2000/svg" width="128" height="128" viewBox="0 0 128 128"><path fill="#FCC21B" d="M127.88 100.37c0 15.13-12.38 27.52-27.52 27.52H27.63C12.5 127.89.11 115.51.11 100.37V27.63C.11 12.5 12.49.11 27.63.11h72.73c15.13 0 27.52 12.38 27.52 27.52v72.74z"/><path fill="#FCC21B" d="M4.16 4.16C1.67 6.65.12 10.09.12 13.87v100.26c0 3.78 1.55 7.22 4.04 9.71L64 64 4.16 4.16z"/><path fill="#FCC21B" d="M123.84 4.16a13.72 13.72 0 0 0-9.72-4.04H13.88c-3.78 0-7.22 1.55-9.72 4.04L64 64l59.84-59.84z"/><path fill="#F79329" d="M64 64l59.84 59.84c2.49-2.49 4.04-5.93 4.04-9.71V13.87c0-3.78-1.55-7.22-4.04-9.71L64 64z"/><path fill="#F79329" d="M4.16 123.84a13.72 13.72 0 0 0 9.72 4.04h100.25c3.78 0 7.22-1.55 9.72-4.04L64 64 4.16 123.84z"/><g><path fill="none" d="M127.88 100.37c0 15.13-12.38 27.52-27.52 27.52H27.63C12.5 127.89.11 115.51.11 100.37V27.63C.11 12.5 12.49.11 27.63.11h72.73c15.13 0 27.52 12.38 27.52 27.52v72.74z"/></g><g><path fill="#FCC21B" d="M112.02 98.94c0 7.2-5.89 13.08-13.08 13.08H29.06c-7.2 0-13.08-5.89-13.08-13.08V29.06c0-7.2 5.89-13.08 13.08-13.08h69.88c7.2 0 13.08 5.89 13.08 13.08v69.88z"/></g><g fill="#FFF"><path d="M29.02 45.39l5.66-.53v41.67h-4.22c-.56 0-1.01.46-1.01 1.02v14.09c0 .56.45 1.01 1.01 1.01h22.72c.56 0 1.02-.46 1.02-1.01V87.55c0-.56-.45-1.02-1.02-1.02h-4.22V26.09c0-.3-.13-.59-.36-.78-.23-.19-.54-.28-.83-.22l-19.03 3.44c-.48.09-.83.51-.83 1v14.84c0 .29.12.56.33.75.21.2.48.3.78.27zM81.44 103.13c13.68 0 22.53-15.41 22.53-39.26 0-14.18-3.14-25.34-8.55-32.09-3.69-4.6-8.43-7.18-13.98-7.18-13.68 0-22.52 15.41-22.52 39.27 0 1.61.05 3.17.13 4.7 1.09 21.15 9.63 34.56 22.39 34.56zm-7.67-49.46c1.35-6.68 4.1-10.75 7.67-10.75.82 0 1.59.24 2.31.65 3.83 2.16 6.28 9.76 6.28 20.29 0 12.52-3.45 20.94-8.59 20.94s-8.59-8.41-8.59-20.94c0-3.82.33-7.26.92-10.19z"/></g></svg>