<svg xmlns="http://www.w3.org/2000/svg" width="128" height="128" viewBox="0 0 128 128"><path fill="#006CA2" d="M1.61 64.7c0 34.07 27.62 61.69 61.69 61.69 34.07 0 61.68-27.62 61.68-61.69 0-34.07-27.61-61.69-61.68-61.69S1.61 30.63 1.61 64.7z"/><path fill="#ED6C30" d="M.28 64c0 35.19 28.53 63.72 63.72 63.72S127.71 99.19 127.71 64 99.19.28 64 .28.28 28.81.28 64zm13.66 0c0-27.64 22.41-50.05 50.06-50.05 27.64 0 50.05 22.41 50.05 50.05 0 27.65-22.41 50.05-50.05 50.05-27.65 0-50.06-22.4-50.06-50.05z"/><path fill="#FFF" d="M111.69 55.43v-.01c-.01-.01-.03-.02-.03-.04-.02-.04-.03-.07-.06-.11-.01-.01-.02-.03-.03-.04-2.58-4.4-7.74-7.23-11.93-9.5l-1.15-.63c-1.73-.95-3.52-1.88-5.34-2.81-3.74-1.91-7.59-3.89-10.98-6.24-1.73-1.19-3.4-2.46-5.08-3.7-3.42-2.56-6.95-5.2-10.86-7.34-4.74-2.6-10.36-3.6-15.88-2.87-.13-.22-.26-.43-.41-.64-2.28-3.26-6.16-4.92-10.1-4.34-1.6.24-3.15.85-4.48 1.79-4.58 3.23-5.78 9.48-2.81 14.17-1.24 1.88-3.42 5.56-4.07 9.02-.53 2.85-.56 6.15-.09 9.3.66 4.32 1.55 8.6 2.44 12.74 1.24 5.93 2.52 12.05 3.07 18.18.05.61.09 1.27.15 1.98.44 6.13 1.13 15.33 6.27 19.34 3.24 4.42 10.56 6.15 20.22 4.72 9.34-1.38 19.4-5.44 28.32-11.44 9.05-6.09 16.43-13.87 20.78-21.91 4.27-7.91 5.01-15.05 2.05-19.62zM36.35 25.98c.33-1.09.99-2.08 1.99-2.78.68-.48 1.44-.78 2.25-.9.97-.14 1.93-.01 2.8.34.3.18.55.45.44.85-.08.3-.33.5-.63.66a25.78 25.78 0 0 0-3.88 2.16c-.47.28-.92.6-1.36.86-.68.39-1.43 1.03-1.67-.07l.06-1.12zm8.21 55.85c-.19.71-.54 1.3-.88 1.88l-.4.55c-1.29 1.96-2.32 3.84-3.1 5.65-.18.31-.42.6-.72.6-.27-.01-.43-.27-.53-.59-.29-2.12-.44-4.2-.57-5.9-.06-.72-.11-1.41-.15-2.03-.55-6.4-1.88-12.65-3.14-18.71-.88-4.08-1.75-8.3-2.4-12.49-.4-2.68-.38-5.47.06-7.85.21-1.09.68-2.4 1.36-3.82.19-.22.41-.33.55.01.12.31.11.65.18.94.02.07.03.13.04.19.47 3.57 1.58 7.19 2.22 9.71 2.32 9.06 6.47 17.44 7.58 26.82.08.63.15 1.27.21 1.91.02 1.05-.05 2.11-.31 3.13zm57.87-3.91c-5.41 7.82-13.32 13.62-15.77 15.26-4.01 2.69-21.77 11.94-32.99 11.08-1.42-.11-4.63-.17-5.54-2.14-.94-2.06-.04-6.11 3.4-10.84 5.78-7.94 14.76-15.43 14.76-15.43s.92 4.11 2.2 5.92c.77 1.1 1.66 2.02 2.67 2.78.51.39 1.05.72 1.6 1.02.62.33 1.24.6 1.89.83 3.64 1.24 7.82.8 11.21-1.58 3.24-2.28 5.05-5.83 5.26-9.5.05-.69.04-1.38-.04-2.06-.06-.62-.2-1.24-.36-1.85a12.69 12.69 0 0 0-1.83-3.96c-.83-1.18-2.95-2.94-2.95-2.94s11.72-6.15 20.15-4.11c4.45 1.07 1.87 9.55-3.66 17.52z"/><path fill="#ED6C30" d="M12.98 99.54l11.12 11.12 86.31-85.72-11.12-11.12z"/></svg>