<svg xmlns="http://www.w3.org/2000/svg" width="128" height="128" viewBox="0 0 128 128"><path fill="#006CA2" d="M122.94 64c0 32.55-26.38 58.95-58.94 58.95-32.55 0-58.95-26.4-58.95-58.95S31.45 5.06 64 5.06c32.56 0 58.94 26.39 58.94 58.94z"/><path fill="#ED6C30" d="M64 .1C28.76.1.1 28.76.1 64s28.67 63.9 63.9 63.9c35.24 0 63.9-28.67 63.9-63.9S99.24.1 64 .1zM10.01 64c0-12.61 4.36-24.21 11.63-33.42l75.77 75.77c-9.2 7.27-20.8 11.63-33.41 11.63-29.76.01-53.99-24.22-53.99-53.98zm94.59 35.52L28.48 23.4c9.5-8.33 21.93-13.38 35.52-13.38 29.77 0 53.99 24.21 53.99 53.99 0 13.58-5.06 26-13.39 35.51z"/><g fill="#FFF"><path d="M94.11 62.37c2.99-3.21 4.77-7.56 4.77-12.59 0-10.6-7.81-18.29-18.57-18.29-10.76 0-18.57 7.7-18.57 18.29 0 3.31.77 6.34 2.14 8.94.71 1.35 1.6 2.56 2.62 3.65-2.37 2.03-4.21 4.62-5.38 7.62-.92 2.38-1.42 5.01-1.42 7.83 0 11.77 8.67 20.31 20.61 20.31 2.74 0 5.31-.47 7.64-1.32 3.31-1.18 6.15-3.14 8.31-5.71 2.94-3.49 4.66-8.07 4.66-13.29 0-6.38-2.57-11.79-6.81-15.44zM72.28 77.82c0-3.14 1.32-5.74 3.45-7.25 1.28-.91 2.84-1.41 4.58-1.41 4.65 0 8.03 3.64 8.03 8.66 0 1.62-.39 3.08-1.03 4.34-1.33 2.62-3.85 4.32-7 4.32-1.29 0-2.46-.31-3.52-.81-1.5-.74-2.69-1.95-3.48-3.49a9.571 9.571 0 0 1-1.03-4.36zm8.03-20.31c-.18 0-.35.02-.52.02-3.91-.27-6.71-3.42-6.71-7.75 0-4.51 3.04-7.8 7.23-7.8s7.23 3.28 7.23 7.8c0 4.33-2.79 7.48-6.71 7.75-.18 0-.35-.02-.52-.02zM54.93 83.3H50.8V33.86c0-.25-.11-.49-.3-.65a.838.838 0 0 0-.69-.2l-9.93 1.7-8.17 1.39c-.41.07-.71.42-.71.83v12.15a.856.856 0 0 0 .96.85l5.49-.67V83.3h-4.14a.85.85 0 0 0-.85.85v11.52c0 .47.38.85.85.85h21.63c.48 0 .85-.38.85-.85V84.16c0-.48-.38-.86-.86-.86z"/></g></svg>