<svg xmlns="http://www.w3.org/2000/svg" width="128" height="128" viewBox="0 0 128 128"><path fill="#2F2F2F" d="M46.93 97.27c-.6.25-1.15.51-1.56.67-.73.28-1.44.63-2.17.92-3.4 1.36-6.82 3.74-8.4 7.13-.83 1.78-.97 4.06-.23 5.89.71 1.75 2.48 2.8 4.32 2.97 2.21.21 3.98-1 5.7-2.2 1-.71 2.19-1.56 3.38-1.94 1.12-.36 2-1.11 3.1-1.55.74-.29 1.54-.46 2.27-.74 1.83-.71.24-3.8-.08-4.95-.46-1.6-.88-5.43-2.17-6.55-.98-.85-2.73-.26-4.16.35zM74.13 102.4c.93.95 2.23 1.29 3.5 1.46.98.12 2.2-.57 3.02.23 2.11 2.05.18 4.89-1.54 6.22-2.19 1.71-5.49 3.21-8.15 4.02-1.79.55-3.64 1.24-5.3 2.11-2.19 1.14-3.39 3.71-3.38 6.13.01 1.23.5 2.78 1.45 3.63.74.67 2.13 1.48 3.14 1.57 9.17.82 18.04-3.66 24.96-9.33 3.24-2.65 6.77-5.77 8.46-9.68 1.9-4.37.99-10.94-.82-15.21-.81-1.92-1.31-2.63-1.31-4.79 0-.92-.26-1.79-.55-2.67-.72-2.24-1.8-5.03-4.03-6.17-.37-.19-.74-.43-1.12-.6-.59-.27-1.14-.24-1.78-.24-1.71 0-3.26.35-4.85.99-2.13.86-4.92 2.31-5.53 4.69l-6.17 17.64z"/><path fill="#2F2F2F" d="M69.42 49.13s14.01 12.32 3.14 28.51l19.33 10.87s16.67-32.86-17.88-53.64l-4.59 14.26z"/><g fill="#2F2F2F"><path d="M68.99 104.33c-2.74 4.81-9.49 6.72-14.53 4.38-4.42-2.09-5.75-6.82-3.17-10.7 2.47-3.77 7.73-5.9 12.52-4.66 5.27 1.36 7.89 6.29 5.18 10.98z"/><path d="M59.11 114.54c-2.34 0-4.65-.5-6.69-1.45-3.48-1.64-5.9-4.42-6.85-7.84-.93-3.34-.33-6.87 1.69-9.91 2.9-4.42 8.17-7.18 13.74-7.18 1.36 0 2.71.17 4.01.5 4.19 1.08 7.48 3.78 9 7.41 1.43 3.4 1.12 7.29-.84 10.68-2.7 4.72-8.22 7.79-14.06 7.79zM61 97.83c-2.28 0-4.56 1.14-5.67 2.84-.33.49-.66 1.23-.45 2 .19.67.77 1.27 1.64 1.68.74.35 1.65.54 2.59.54 2.39 0 4.68-1.18 5.68-2.94.46-.81.56-1.51.31-2.11-.34-.81-1.27-1.48-2.5-1.79-.52-.15-1.06-.22-1.6-.22z"/></g><path fill="#FFF" d="M68.3 103.15c-2.75 4.81-9.49 6.72-14.54 4.38-4.42-2.09-5.75-6.82-3.17-10.7 2.48-3.77 7.73-5.9 12.52-4.66 5.28 1.35 7.9 6.28 5.19 10.98z"/><g fill="#2F2F2F"><path d="M26.77 81.38l-.12 4.11 65.36 3.26v-4.23z"/><path d="M43.63 68.7L27.11 80.39s-1.74 1.74 2.54 3.18c3.35 1.12 26.39 9.8 36.29 13.54 2.76 1.04 5.28 1.95 6.31 2.1 1.44.21 3.38.21 4.41-.94l14.74-12.9s2.18-1.36-1.47-2.94c-3.65-1.59-41.38-14.84-41.38-14.84s-2.22-.95-4.92 1.11z"/><path d="M43.63 72.57L27.11 84.25s-1.74 1.74 2.54 3.17c3.35 1.11 26.39 9.8 36.29 13.54 2.76 1.04 5.28 1.95 6.31 2.1 1.44.2 3.38.21 4.41-.94L91.4 89.24s2.18-1.36-1.47-2.94c-3.65-1.59-41.38-14.84-41.38-14.84s-2.22-.95-4.92 1.11z"/></g><path fill="#FFF" d="M45.26 74.25l-7.73 5.8s-1.33 1.33 1.93 2.42c2.55.85 20.08 7.46 27.62 10.3 2.11.79 4.02 1.48 4.81 1.6 1.09.15 2.57.16 3.36-.71l6.38-6.71s1.66-1.04-1.12-2.24C77.72 83.49 49 73.41 49 73.41s-1.69-.73-3.74.84z"/><path fill="#FFF" d="M51.97 66.2l.92 13.05s3.87 1.61 7.19-.56l.28-12.81-8.39.32z"/><path fill="#2F2F2F" d="M56.1 81.89c-2.17 0-3.81-.66-4-.73a2.06 2.06 0 0 1-1.27-1.76l-.92-13.05c-.04-.56.15-1.11.52-1.53.37-.42.9-.67 1.46-.68l8.4-.33c.6-.04 1.12.2 1.53.6.41.4.63.95.62 1.52l-.28 12.81c-.02.68-.36 1.31-.93 1.68-1.5.98-3.22 1.47-5.13 1.47zm-1.24-4.24c.36.06.79.11 1.24.11.71 0 1.35-.11 1.95-.34l.2-9.39-4.07.16.68 9.46z"/><path fill="#FFF" d="M44.7 58.34L34.04 68.75s1.13 4.12 5.16 5.01l11.23-9.33-5.73-6.09z"/><path fill="#2F2F2F" d="M39.2 75.69c-.14 0-.28-.02-.42-.04-5.12-1.12-6.55-6.17-6.61-6.38-.18-.68.01-1.4.51-1.89l10.66-10.4c.37-.36.83-.54 1.39-.55.52.01 1.01.23 1.36.61l5.73 6.09c.37.38.55.91.52 1.44-.03.53-.28 1.03-.69 1.37l-11.23 9.32c-.34.28-.77.43-1.22.43zm-2.88-6.47c.42.78 1.18 1.82 2.45 2.37l8.84-7.34-2.97-3.15-8.32 8.12z"/><g fill="#2F2F2F"><path d="M64.08 61.71s-5.42.2-11.7-2.08c-6.28-2.28-10.01-5.92-10.01-5.92l10.97-31.52s4.6.13 11.73 2.66c7.13 2.54 9.98 5.35 9.98 5.35L64.08 61.71z"/><path d="M63.72 63.78c-1.4 0-6.41-.16-12.04-2.21-6.62-2.41-10.58-6.23-10.75-6.39-.57-.56-.77-1.41-.51-2.16L51.39 21.5c.29-.85 1.06-1.37 2.01-1.39.2 0 5.01.16 12.36 2.79 7.48 2.66 10.61 5.69 10.73 5.82.57.56.76 1.4.5 2.15L66.03 62.39c-.28.8-1.03 1.35-1.88 1.39h-.43zM44.79 53.05c1.42 1.13 4.32 3.18 8.3 4.63 3.99 1.46 7.61 1.83 9.53 1.93l10-28.73c-1.29-.93-3.93-2.56-8.24-4.09-4.39-1.56-7.79-2.17-9.61-2.4l-9.98 28.66z"/></g><path fill="#FFF" d="M42.15 54.28s8.66 7.41 21.71 6.68c0 0-2.51 10.08-14.05 6.79-10.23-2.92-7.66-13.47-7.66-13.47z"/><path fill="#2F2F2F" d="M54.16 70.34c-1.53 0-3.16-.25-4.87-.73-9.51-2.71-10.05-11.51-9-15.79.16-.65.65-1.18 1.28-1.38.65-.2 1.34-.07 1.85.37.08.06 8.3 6.87 20.35 6.22.6-.03 1.2.22 1.6.7.39.47.53 1.1.39 1.7-.79 3.08-4.2 8.91-11.6 8.91zM43.77 57.77c.12 2.78 1.31 6.62 6.57 8.12 1.36.39 2.65.59 3.81.59 3.6 0 5.63-1.89 6.72-3.55-7.79-.27-13.79-3.13-17.1-5.16z"/><g><path fill="#FFF" d="M71.46 28.25l-15.61-5.86 6.5-18.21 15.6 5.86z"/><path fill="#2F2F2F" d="M71.46 30.31c-.25 0-.49-.04-.72-.13l-15.6-5.86a2.058 2.058 0 0 1-1.22-2.63l6.48-18.2c.19-.53.57-.95 1.08-1.18.51-.23 1.08-.26 1.6-.06l15.6 5.86c1.06.4 1.6 1.57 1.22 2.63l-6.49 18.21c-.19.52-.57.95-1.08 1.18-.27.12-.57.18-.87.18zm-12.97-9.15l11.73 4.4 5.1-14.31-11.73-4.4-5.1 14.31z"/></g><path fill="#FFF" d="M73.92 40.96c-.74 3.99-4.37 6.67-8.12 5.98-3.75-.69-6.2-4.49-5.46-8.49.74-4 4.38-6.68 8.12-5.99 3.75.7 6.19 4.49 5.46 8.5z"/><g fill="#2F2F2F"><path d="M71.83 3.37c5.02 1.71 8.72 4.13 8.25 5.41-.46 1.28-4.91.94-9.93-.77S61.44 3.88 61.9 2.6c.47-1.28 4.92-.93 9.93.77z"/><path d="M77.77 11.26c-2.13 0-5.11-.6-8.17-1.63-3.73-1.27-8.11-3.41-9.17-5.61-.41-.85-.31-1.55-.15-2C60.75.75 62.07.11 64.21.11c2.13 0 5.1.59 8.16 1.63 3.74 1.27 8.12 3.42 9.17 5.62.41.85.3 1.56.14 2-.45 1.27-1.77 1.9-3.91 1.9zM64.66 3.55c1.17.8 3.19 1.87 6.04 2.84 2.46.84 4.89 1.37 6.62 1.44-1.17-.8-3.19-1.87-6.05-2.83-2.45-.84-4.88-1.37-6.61-1.45z"/></g></svg>