<svg xmlns="http://www.w3.org/2000/svg" width="128" height="128" viewBox="0 0 128 128"><path fill="#426369" d="M67.662 73.354c-.262.111.322 1.954.387 2.105.53 1.327 1.761 2.206 2.36 3.5.73 1.58.778 3.385.133 5.005-.409 1.032-1.339 1.784.096 2.471.873.415 1.337-.497 1.828-1.057a9.164 9.164 0 0 0 1.268-1.892c.982-1.984 1.02-4.23.231-6.288a8.63 8.63 0 0 0-.303-.709s3.812-2.192.016-5.756c.001.001-6.001 2.615-6.016 2.621zM92.25 48.101h-.006c-1.462-.052-2.008-.637-2.008-2.158 0-.468.15-1.24.48-1.832.332-.592 1.395-.717 2.23-.717 1.006 0 1.778-.296 2.295-.884.688-.782.589-1.742.576-1.849a.987.987 0 0 0-.979-.862h-4.521a.986.986 0 0 0-.986.987c0 .385-1.111.861-1.89.986-1.447 0-2.244-1.275-2.273-1.323a.986.986 0 0 0-.849-.485H80.62a.987.987 0 0 0-.971.807l-2.63 14.219a.987.987 0 0 0 .917 1.164l18.577.986c.018.002.035.002.052.002a.986.986 0 0 0 .986-.986V52.95c.001-3.348-2.635-4.849-5.301-4.849z"/><path fill="#66949E" d="M2.408 40.842s.123-2.778 1.85-2.631c1.726.146 6.535 0 6.535 0l7.891 1.608H42.48s2.219-1.755 5.671-2.048c3.453-.293 30.578 0 30.578 0s2.917-1.169 2.917 3.071c0 0 .905 9.365 13.975 11.091h4.192s2.227.146 2.227 1.121c0 .973 0 0 0 0l-1.117 24.812-20.392 1.096s-2.664-4.913-7.35-4.913H58.754s-2.82.638-2.835 2.707c-.014 2.069 0 0 0 0H51.62s-.387-1.603-2.853-1.603-4.685-.493-4.685-3.452-.493-10.382-2.219-12.723v-1.316H3.641s-1.233-2.234-1.233-5.213V41.135"/><path fill="#66949E" d="M47.642 72.897s2.248.079 3.753 3.192c.512 1.059.47 6.785 4.269 11.383 1.955 2.366 5.689 4.248 10.542 4.857 8.866 1.115 15.769-1.314 18.34-8.024 1.088-2.845 1.699-4.233 3.915-4.098l.345-2.341-8.983-1.52s.888 2.903 1.123 4.716c.493 3.772-4.514 9.823-14.871 8.05-9.65-1.652-9.7-6.842-10.07-9.303-.368-2.458.042-6.565 1.32-6.49l-.181-1.724-9.323-.181-.179 1.483z"/><path fill="#5E3832" d="M85.492 82.085v-4.913s-.045-3.561 2.73-5.718c3.425-2.665 8.384-9.02 9.041-14.938 0 0-.33-1.973 3.945-1.973s3.762.869 5.918 3.945c1.757 2.507 7.3 4.68 12.056 12.11 4.648 7.263 8.565 24.262 7.569 35.367 0 0-.57 4.412-5.41 4.412h-12.407s-4.104-.035-4.939-.948c-.944-1.031-.399-1.861-1.295-3.206-.585-.879-1.098-1.042-1.751-1.434-1.516-.909-1.776-1.903-1.776-2.988 0-.929-.102-3.741-.102-5.374 0-1.672-.212-7.64-2.796-11.166-1.723-2.352-5.423-4.602-10.783-3.176z"/><g fill="#66949E"><ellipse cx="2.408" cy="46.708" rx="1.316" ry="5.866"/><path d="M2.408 40.842h79.237v11.607H2.408z"/></g><path fill="#FFF" d="M41.801 45.99H3.038s-.081-1.549.245-2.501c.299-.871.727-.722.727-.722h37.792v3.223zM44.286 42.767h4.789v3.223h-4.789z"/><path fill="#66949E" d="M52.514 42.299h25.351v22.555H52.514z"/><path fill="#426369" d="M77.865 65.838H52.514a.985.985 0 0 1-.986-.986V42.299c0-.545.441-.986.986-.986h25.351c.545 0 .986.441.986.986v22.553a.985.985 0 0 1-.986.986zM53.5 63.866h23.378V43.285H53.5v20.581z"/><g fill="#426369"><path d="M52.514 51.199h13.422v4.731H52.514z"/><path d="M65.936 56.917H52.514a.985.985 0 0 1-.986-.986v-4.733c0-.545.441-.986.986-.986h13.422c.545 0 .986.441.986.986v4.733a.985.985 0 0 1-.986.986zM53.5 54.944h11.45v-2.761H53.5v2.761z"/></g><g fill="#426369"><ellipse cx="65.935" cy="53.565" rx="4.727" ry="2.366"/><path d="M65.936 56.917c-3.258 0-5.714-1.441-5.714-3.352 0-1.913 2.456-3.354 5.714-3.354 3.256 0 5.712 1.441 5.712 3.354 0 1.911-2.456 3.352-5.712 3.352zm0-4.733c-2.322 0-3.741.894-3.741 1.381 0 .485 1.419 1.379 3.741 1.379 2.319 0 3.739-.894 3.739-1.379 0-.487-1.42-1.381-3.739-1.381z"/></g></svg>