<svg xmlns="http://www.w3.org/2000/svg" width="128" height="128" viewBox="0 0 128 128"><path fill="#FFF" d="M21.34 54.63c-1.52.57-3.08-.41-3.81-1.91-.73-1.51-.66-3.44.65-4.62 0 0 18.53-14.99 20.35-16.21 1.82-1.21 4.8-1.41 6.24.74 1.64 2.43 1.15 4.38-1.9 6.6-3.04 2.21-21.53 15.4-21.53 15.4z"/><path fill="#2F2F2F" d="M20.44 57.19c-2.07 0-4.05-1.35-5.06-3.43-1.28-2.65-.8-5.64 1.2-7.44 2-1.62 18.77-15.18 20.63-16.42 1.26-.84 2.79-1.3 4.31-1.3 2.19 0 4.1.98 5.26 2.7 2.41 3.59 1.58 6.92-2.48 9.87-3.05 2.21-21.56 15.41-21.56 15.41-.17.12-.35.22-.55.29-.57.21-1.16.32-1.75.32zm21.07-23.81c-.56 0-1.18.19-1.65.5-1.27.85-12.76 10.08-20.18 16.08-.34.31-.28 1.12 0 1.71.21.42.5.65.67.71 2.75-1.96 18.33-13.07 21.11-15.09 2.39-1.74 1.98-2.34 1.32-3.33-.09-.14-.38-.58-1.27-.58z"/><path fill="#FFF" d="M48.97 68.61H62.7v5.01H48.97z"/><path fill="#2F2F2F" d="M62.69 78.18H48.97a4.55 4.55 0 0 1-4.55-4.56v-5.01c0-2.52 2.04-4.55 4.55-4.55H62.7c2.52 0 4.56 2.04 4.56 4.55v5.01a4.573 4.573 0 0 1-4.57 4.56z"/><path fill="#FFF" d="M55.31 75.67h1.84v28.62h-1.84z"/><path fill="#2F2F2F" d="M57.15 107.25h-1.84c-1.64 0-2.96-1.32-2.96-2.96V75.67a2.96 2.96 0 0 1 2.96-2.96h1.84c1.64 0 2.96 1.32 2.96 2.96v28.62a2.96 2.96 0 0 1-2.96 2.96z"/><path fill="#FFF" d="M56.42 105.21v16"/><path fill="#2F2F2F" d="M56.42 123.61a2.4 2.4 0 0 1-2.4-2.4v-16a2.4 2.4 0 0 1 4.8 0v16c-.01 1.32-1.08 2.4-2.4 2.4z"/><path fill="#FFF" d="M51.096 75.512l1.989 1.053-16.398 30.956-1.988-1.053z"/><path fill="#2F2F2F" d="M36.71 110.48c-.48 0-.95-.12-1.39-.35l-1.99-1.05a2.964 2.964 0 0 1-1.23-4l16.37-30.97c.77-1.44 2.56-1.99 3.99-1.23l1.99 1.06c.7.36 1.22.99 1.45 1.74s.16 1.56-.21 2.25L39.32 108.9c-.37.7-.99 1.21-1.74 1.45-.29.09-.58.13-.87.13z"/><path fill="#FFF" d="M35.38 108.1l-9.15 17.31"/><path fill="#2F2F2F" d="M26.23 127.81a2.398 2.398 0 0 1-2.12-3.52l9.15-17.31a2.406 2.406 0 0 1 3.24-1c1.17.62 1.62 2.07 1 3.24l-9.15 17.31c-.43.81-1.26 1.28-2.12 1.28z"/><g><path fill="#FFF" d="M79.38 105.376l-1.924 1.168L59.276 76.6l1.923-1.168z"/><path fill="#2F2F2F" d="M77.47 109.5c-.24 0-.47-.03-.7-.08-.76-.19-1.42-.67-1.83-1.34L56.75 78.13c-.41-.68-.53-1.47-.34-2.24.19-.76.67-1.42 1.34-1.83l1.93-1.17c1.39-.85 3.21-.4 4.06.99l18.19 29.94c.85 1.39.4 3.21-.99 4.06L79 109.06c-.47.29-1 .44-1.53.44z"/><g><path fill="#FFF" d="M78.82 107.03l10.16 16.74"/><path fill="#2F2F2F" d="M88.99 126.16c-.81 0-1.6-.41-2.05-1.15l-10.16-16.74c-.69-1.13-.33-2.61.8-3.29s2.6-.33 3.29.8l10.16 16.73a2.39 2.39 0 0 1-.8 3.29c-.39.25-.82.36-1.24.36z"/></g></g><g fill="#2F2F2F"><path d="M31.87 74.75c-4.61 1.65-9.23-1.37-11.35-5.92-2.11-4.56-1.82-10.39 2.18-13.86l38.79-28.09 15.18 28.16-44.8 19.71z"/><path d="M29.27 77.9c-4.57 0-8.96-3.12-11.2-7.94-2.39-5.16-2.43-12.44 2.86-17.02l.18-.15L59.9 24.7c.63-.45 1.43-.61 2.18-.45.76.17 1.4.67 1.77 1.35l15.18 28.17c.35.66.42 1.44.18 2.15s-.77 1.29-1.46 1.59l-44.8 19.7c-1.32.48-2.49.69-3.68.69zm-4.89-20.82c-3.1 2.76-2.95 7.31-1.42 10.62 1.65 3.56 5.06 5.58 8 4.53l41.96-18.47-12.34-22.9-36.2 26.22z"/></g><g fill="#2F2F2F"><path d="M17.04 75.48c-1.85.67-3.7-.55-4.55-2.37-.85-1.83-.73-4.17.88-5.56l15.56-11.27 6.08 11.29-17.97 7.91z"/><path d="M16 76.75c-1.83 0-3.59-1.25-4.49-3.19-.96-2.06-.98-4.98 1.15-6.82l15.63-11.32a1.072 1.072 0 0 1 1.58.36l6.08 11.3c.14.26.17.58.07.86-.1.29-.31.52-.59.64l-17.97 7.9c-.51.19-.98.27-1.46.27zm12.56-18.87L14 68.42c-1.2 1.05-1.15 2.89-.53 4.23.66 1.43 2.02 2.25 3.2 1.82l16.83-7.41-4.94-9.18z"/></g><g><path fill="#FFF" d="M41.72 71.16c-5.25 1.88-10.51-1.55-12.91-6.74-2.4-5.19-2.07-11.82 2.49-15.77l44.15-31.98 17.28 32.06-51.01 22.43z"/><path fill="#2F2F2F" d="M38.76 74.74c-5.2 0-10.2-3.55-12.74-9.04-2.72-5.88-2.77-14.14 3.26-19.38.07-.06.14-.12.21-.17l44.15-31.98c.72-.52 1.62-.7 2.48-.51.86.2 1.59.76 2.01 1.53L95.4 47.25c.4.75.48 1.64.2 2.45-.28.81-.88 1.46-1.66 1.8l-51 22.44c-.06.03-.13.06-.2.08-1.28.48-2.63.72-3.98.72zM33.2 51.03c-3.51 3.14-3.3 8.45-1.62 12.09 1.86 4.01 5.68 6.31 9.01 5.18l47.85-21.05L74.4 21.19 33.2 51.03z"/></g><g><g fill="#2F2F2F"><path d="M99.62 24.98c5.19 11.19 2.63 23.39-5.69 27.24-8.33 3.86-19.28-2.09-24.46-13.28s-2.63-23.38 5.69-27.24c8.33-3.85 19.28 2.09 24.46 13.28z"/><path d="M88.51 56.34c-8.5 0-17.23-6.49-21.71-16.16-5.85-12.64-2.66-26.62 7.12-31.15 2.08-.96 4.32-1.45 6.67-1.45 8.51 0 17.24 6.5 21.71 16.16 5.85 12.64 2.66 26.62-7.12 31.15-2.08.97-4.33 1.45-6.67 1.45zm-7.93-42.87c-1.49 0-2.89.3-4.19.9-6.84 3.17-8.74 13.63-4.25 23.33 3.53 7.62 10.11 12.75 16.37 12.75 1.49 0 2.89-.3 4.19-.9 6.83-3.17 8.75-13.63 4.26-23.33-3.54-7.63-10.12-12.75-16.38-12.75z"/></g><path fill="#2F2F2F" d="M93.93 55.29a3.065 3.065 0 0 1-2.78-1.77L72.38 12.99a3.063 3.063 0 0 1 1.06-3.82l10.68-7.22c.72-.49 1.62-.65 2.47-.43.85.21 1.56.77 1.96 1.55l21.5 41.02c.38.73.46 1.58.2 2.36-.25.78-.81 1.43-1.54 1.8l-13.4 6.72c-.44.21-.91.32-1.38.32zm-14.9-42.51l16.35 35.29 7.79-3.91L84.71 8.94l-5.68 3.84z"/><path fill="#40C0E7" d="M111.28 18.3c5.39 11.64 2.74 24.33-5.92 28.34-8.66 4.01-20.05-2.18-25.44-13.82-5.39-11.63-2.74-24.32 5.91-28.33C94.5.47 105.89 6.65 111.28 18.3z"/><path fill="#2F2F2F" d="M99.72 50.92c-8.85 0-17.93-6.76-22.58-16.82-2.88-6.22-3.78-12.94-2.53-18.94 1.32-6.32 4.85-11.1 9.93-13.46C86.7.7 89.04.19 91.47.19c8.85 0 17.93 6.76 22.58 16.82 6.09 13.15 2.77 27.69-7.41 32.41-2.15.99-4.48 1.5-6.92 1.5zm-8.24-44.6c-1.54 0-3.01.31-4.36.94-3.28 1.52-5.6 4.77-6.51 9.16-.98 4.71-.24 10.08 2.09 15.11 3.67 7.94 10.51 13.27 17.02 13.27 1.54 0 3.01-.31 4.35-.94 7.11-3.29 9.1-14.19 4.42-24.27-3.66-7.94-10.5-13.27-17.01-13.27z"/><path fill-rule="evenodd" clip-rule="evenodd" fill="#FFF" d="M101.98 21.48h.22c2.71.15 3.47 5.75 3.77 7.67.53 3.43.15 7.29-2.32 9.93-.87.93-2.6 1.85-3.81 1.01-1.65-1.13-.18-2.71.48-3.9 1.76-3.23 1.48-7.25.28-10.62-.5-1.39-.63-4.02 1.38-4.09z"/></g><g fill="#2F2F2F"><path d="M21.43 45.76c.31 1.64-.09 2.51.97 3.92.58.78 1.25 1.52 2.08 2.03-.23.29-.54.47-.82.73-.73.65-1.5 1.43-2.41 1.81-1.47.62-3.06.45-3.83-1.15-.41-.85-.55-2.15-.44-3.09.17-1.44 1.98-2.71 3.08-3.48.24-.19 1.1-.84 1.37-.77z"/><path d="M19.73 55.64c-1.45 0-2.64-.76-3.28-2.1-.54-1.13-.66-2.66-.54-3.68.23-1.92 2.29-3.37 3.53-4.24 1.04-.75 1.67-1.06 2.25-.92.41.1.73.44.81.85.11.57.14 1.06.17 1.51.05.82.08 1.26.6 1.95.44.58 1.03 1.31 1.77 1.76.27.16.45.43.5.73.05.31-.03.62-.22.86-.23.28-.48.48-.69.65-.08.07-.16.13-.25.2l-.29.26c-.69.63-1.47 1.34-2.43 1.74-.65.29-1.3.43-1.93.43zm.8-8.14c-.95.67-2.37 1.74-2.47 2.62-.1.81.05 1.89.34 2.49.44.91 1.33 1.09 2.43.63.61-.26 1.22-.81 1.81-1.35l.15-.13c-.51-.48-.92-.99-1.25-1.43-.82-1.09-.95-1.98-1.01-2.83z"/></g></svg>