<svg xmlns="http://www.w3.org/2000/svg" xmlns:xlink="http://www.w3.org/1999/xlink" width="128" height="128" viewBox="0 0 128 128"><path fill="#FCC21B" d="M127.56 113.88c0 7.53-6.16 13.69-13.69 13.69H14.13c-7.53 0-13.69-6.16-13.69-13.69V14.12C.44 6.59 6.6.43 14.13.43h99.75c7.53 0 13.69 6.16 13.69 13.69v99.76z"/><defs><path id="a" d="M115.17 105.63c0 5.47-4.48 9.96-9.96 9.96H21.95c-5.48 0-9.96-4.48-9.96-9.96V22.35c0-5.47 4.48-9.96 9.96-9.96h83.26c5.47 0 9.96 4.48 9.96 9.96v83.28z"/></defs><use xlink:href="#a" overflow="visible" fill="#FFF"/><clipPath id="b"><use xlink:href="#a" overflow="visible"/></clipPath><path clip-path="url(#b)" fill="#F79329" d="M117.56 8.65L7.94 119.54h109.62l2.83-2.83V11.27z"/><g><path fill="#FCC21B" d="M32.37 100.86c-3.12 0-5.65-2.53-5.65-5.64V32.77c0-3.12 2.54-5.65 5.65-5.65H94.8c3.11 0 5.65 2.53 5.65 5.65v62.45c0 3.11-2.54 5.64-5.65 5.64H32.37z"/><defs><path id="c" d="M32.37 100.86c-3.12 0-5.65-2.53-5.65-5.64V32.77c0-3.12 2.54-5.65 5.65-5.65H94.8c3.11 0 5.65 2.53 5.65 5.65v62.45c0 3.11-2.54 5.64-5.65 5.64H32.37z"/></defs><use xlink:href="#c" overflow="visible" fill="#FFF"/><clipPath id="d"><use xlink:href="#c" overflow="visible"/></clipPath><path clip-path="url(#d)" fill="#F79329" d="M26.34 101.39l77.28-78.18H26.34l-2 2v74.34z"/><g><path fill="#FCC21B" d="M41 45.38c0-2.18 1.79-3.98 3.98-3.98H82.2c2.19 0 3.97 1.79 3.97 3.98V82.6c0 2.19-1.78 3.98-3.97 3.98H44.98A3.99 3.99 0 0 1 41 82.6V45.38z"/></g></g></svg>