<svg xmlns="http://www.w3.org/2000/svg" xmlns:xlink="http://www.w3.org/1999/xlink" width="128" height="128" viewBox="0 0 128 128"><path fill="#BDCF46" d="M127.56 113.88c0 7.53-6.16 13.69-13.69 13.69H14.12c-7.53 0-13.69-6.16-13.69-13.69V14.12C.43 6.59 6.59.43 14.12.43h99.75c7.53 0 13.69 6.16 13.69 13.69v99.76z"/><defs><path id="a" d="M115.17 105.67c0 5.48-4.48 9.96-9.96 9.96H21.95c-5.48 0-9.96-4.48-9.96-9.96V22.4c0-5.47 4.48-9.95 9.96-9.95h83.26c5.47 0 9.96 4.48 9.96 9.95v83.27z"/></defs><use xlink:href="#a" overflow="visible" fill="#FFF"/><clipPath id="b"><use xlink:href="#a" overflow="visible"/></clipPath><path clip-path="url(#b)" fill="#757F3F" d="M117.56 8.7L7.94 119.59h109.62l2.83-2.83V11.32z"/><g><path fill="#FFF" d="M32.37 100.91c-3.12 0-5.65-2.54-5.65-5.64V32.82c0-3.11 2.54-5.64 5.65-5.64H94.8c3.11 0 5.65 2.53 5.65 5.64v62.45c0 3.11-2.54 5.64-5.65 5.64H32.37z"/><defs><path id="c" d="M32.37 100.91c-3.12 0-5.65-2.54-5.65-5.64V32.82c0-3.11 2.54-5.64 5.65-5.64H94.8c3.11 0 5.65 2.53 5.65 5.64v62.45c0 3.11-2.54 5.64-5.65 5.64H32.37z"/></defs><clipPath id="d"><use xlink:href="#c" overflow="visible"/></clipPath><path clip-path="url(#d)" fill="#757F3F" d="M26.34 101.44l77.28-78.18H26.34l-2 2V99.6z"/><g><path fill="#BDCF46" d="M41 45.43c0-2.18 1.79-3.97 3.98-3.97H82.2c2.19 0 3.97 1.78 3.97 3.97v37.22a3.98 3.98 0 0 1-3.97 3.97H44.98c-2.19 0-3.98-1.79-3.98-3.97V45.43z"/></g></g></svg>