<svg xmlns="http://www.w3.org/2000/svg" width="128" height="128" viewBox="0 0 128 128"><path fill="#FFF" d="M64 121.74c-31.84 0-57.73-25.9-57.73-57.73C6.27 32.17 32.16 6.27 64 6.27c31.83 0 57.73 25.9 57.73 57.74 0 31.83-25.89 57.73-57.73 57.73z"/><path fill="#40C0E7" d="M64 .1C28.77.1.1 28.77.1 64s28.67 63.89 63.9 63.89S127.89 99.23 127.89 64C127.9 28.77 99.23.1 64 .1zm0 121.64c-31.84 0-57.73-25.9-57.73-57.73C6.27 32.17 32.16 6.27 64 6.27c31.83 0 57.73 25.9 57.73 57.74 0 31.83-25.89 57.73-57.73 57.73z"/><path fill="#2F2F2F" d="M73.79 63.99c0-3.73-2.11-6.92-5.18-8.57V11.33H59.4v44.08c-3.07 1.65-5.18 4.85-5.18 8.58 0 5.41 4.37 9.78 9.78 9.78 1.89 0 3.64-.56 5.14-1.49l21.38 12.35 4.6-7.97-21.37-12.34c0-.11.04-.22.04-.33zm-11.24 3.4A3.687 3.687 0 0 1 60.32 64c0-.18.02-.36.05-.53.14-.95.63-1.77 1.35-2.34.63-.5 1.42-.81 2.29-.81 2.04 0 3.69 1.65 3.69 3.68 0 1.52-.92 2.83-2.24 3.39-.02.01-.04.01-.06.02a3.606 3.606 0 0 1-2.79 0c-.02 0-.04-.01-.06-.02zM113.93 60.32c-2.03 0-3.69 1.65-3.69 3.69a3.685 3.685 0 0 0 7.37 0 3.672 3.672 0 0 0-3.68-3.69zM109.08 42.23a3.703 3.703 0 0 0 1.35-5.04 3.691 3.691 0 0 0-5.03-1.35 3.691 3.691 0 0 0-1.35 5.04 3.682 3.682 0 0 0 5.03 1.35zM87.13 23.95c1.76 1.01 4.01.41 5.03-1.35 1.02-1.76.41-4.01-1.35-5.03a3.671 3.671 0 0 0-5.03 1.35 3.673 3.673 0 0 0 1.35 5.03zM37.19 17.57c-1.77 1.01-2.36 3.27-1.35 5.03a3.68 3.68 0 0 0 5.03 1.35 3.66 3.66 0 0 0 1.34-5.03c-1-1.77-3.25-2.37-5.02-1.35zM22.6 35.85a3.688 3.688 0 0 0-5.03 1.34 3.68 3.68 0 0 0 1.35 5.03c1.76 1.02 4.01.42 5.03-1.35 1.02-1.76.4-4.01-1.35-5.02zM14.06 60.32c-2.03 0-3.68 1.65-3.68 3.68 0 2.03 1.65 3.68 3.68 3.68 2.04 0 3.69-1.65 3.69-3.69 0-2.03-1.65-3.67-3.69-3.67zM18.91 85.78a3.688 3.688 0 0 0-1.34 5.03 3.682 3.682 0 0 0 5.03 1.35 3.691 3.691 0 0 0 1.35-5.04 3.688 3.688 0 0 0-5.04-1.34zM40.87 104.05a3.677 3.677 0 0 0-5.03 1.35 3.691 3.691 0 0 0 1.35 5.03 3.68 3.68 0 0 0 5.03-1.35c1.02-1.75.41-4.01-1.35-5.03zM63.99 110.25c-2.04 0-3.67 1.65-3.68 3.69.01 2.03 1.65 3.68 3.68 3.68s3.69-1.65 3.68-3.68a3.672 3.672 0 0 0-3.68-3.69zM87.12 104.06a3.66 3.66 0 0 0-1.34 5.03 3.682 3.682 0 0 0 5.03 1.35c1.76-1.01 2.37-3.28 1.35-5.03a3.694 3.694 0 0 0-5.04-1.35zM109.08 85.78a3.68 3.68 0 0 0-5.03 1.35c-1.02 1.77-.42 4 1.35 5.03 1.76 1.01 4.01.42 5.03-1.35 1.02-1.75.42-4.02-1.35-5.03z"/></svg>