<svg xmlns="http://www.w3.org/2000/svg" xmlns:xlink="http://www.w3.org/1999/xlink" width="128" height="128" viewBox="0 0 128 128"><defs><path id="a" d="M64 6.26C32.17 6.26 6.27 32.17 6.27 64c0 31.83 25.9 57.73 57.74 57.73s57.73-25.9 57.73-57.73C121.73 32.17 95.84 6.26 64 6.26z"/></defs><use xlink:href="#a" overflow="visible" fill="#FFF"/><g><path fill="#40C0E7" d="M64 127.9C28.77 127.9.1 99.23.1 64S28.77.1 64 .1s63.9 28.67 63.9 63.9-28.67 63.9-63.9 63.9zM64 6.26C32.17 6.26 6.27 32.17 6.27 64c0 31.83 25.9 57.73 57.74 57.73s57.73-25.9 57.73-57.73C121.73 32.17 95.84 6.26 64 6.26z"/><path fill="#2F2F2F" d="M117.62 64a3.685 3.685 0 0 1-7.37 0 3.685 3.685 0 0 1 7.37 0zM110.43 37.2c1.01 1.76.41 4.01-1.35 5.03a3.669 3.669 0 0 1-5.03-1.35 3.669 3.669 0 0 1 1.35-5.03 3.671 3.671 0 0 1 5.03 1.35zM90.81 17.57a3.682 3.682 0 0 1 1.35 5.03 3.673 3.673 0 0 1-5.03 1.35 3.68 3.68 0 0 1-1.35-5.03 3.671 3.671 0 0 1 5.03-1.35zM37.19 17.57a3.682 3.682 0 0 1 5.03 1.35c1.02 1.77.42 4.01-1.34 5.03a3.671 3.671 0 0 1-5.03-1.35c-1.02-1.77-.42-4.02 1.34-5.03zM17.57 37.19a3.68 3.68 0 0 1 5.03-1.34 3.68 3.68 0 0 1 1.35 5.02 3.683 3.683 0 0 1-5.04 1.35 3.677 3.677 0 0 1-1.34-5.03zM10.38 64c0-2.04 1.65-3.68 3.68-3.68 2.04 0 3.68 1.64 3.68 3.67 0 2.04-1.65 3.69-3.68 3.69s-3.68-1.64-3.68-3.68zM17.56 90.81c-1.01-1.77-.41-4.02 1.35-5.03a3.69 3.69 0 0 1 5.04 1.34c1.02 1.77.41 4.02-1.35 5.04a3.694 3.694 0 0 1-5.04-1.35zM37.19 110.44a3.691 3.691 0 0 1-1.35-5.03 3.695 3.695 0 0 1 5.04-1.36 3.691 3.691 0 0 1 1.35 5.04 3.694 3.694 0 0 1-5.04 1.35zM90.8 110.44c-1.76 1.01-4.02.41-5.03-1.35a3.671 3.671 0 0 1 1.35-5.03 3.671 3.671 0 0 1 5.03 1.35c1.02 1.76.42 4.02-1.35 5.03zM110.43 90.81a3.682 3.682 0 0 1-5.03 1.35 3.673 3.673 0 0 1-1.35-5.03 3.68 3.68 0 0 1 5.03-1.35 3.673 3.673 0 0 1 1.35 5.03z"/></g><g><g fill="#2F2F2F"><path d="M73.79 64c0 5.4-4.38 9.78-9.78 9.78-5.4 0-9.78-4.38-9.78-9.78s4.37-9.78 9.78-9.78c5.39 0 9.78 4.37 9.78 9.78z"/><path d="M59.4 60.6h9.21v56.06H59.4z"/><path d="M73.79 64c0 5.4-4.38 9.78-9.78 9.78-5.4 0-9.78-4.38-9.78-9.78s4.37-9.78 9.78-9.78c5.39 0 9.78 4.37 9.78 9.78z"/></g><path fill="#2F2F2F" d="M59.52 67.56l2.38-8.88 35.45 9.49-2.38 8.91z"/><path fill="#FFF" d="M67.69 64c0 2.03-1.65 3.68-3.69 3.68s-3.69-1.65-3.69-3.68 1.65-3.68 3.69-3.68 3.69 1.65 3.69 3.68z"/></g><g><path fill="#2F2F2F" d="M64 10.38c-2.04 0-3.68 1.65-3.68 3.68 0 2.03 1.64 3.68 3.68 3.68s3.69-1.65 3.69-3.68c-.01-2.03-1.66-3.69-3.69-3.68z"/></g></svg>