<svg xmlns="http://www.w3.org/2000/svg" width="128" height="128" viewBox="0 0 128 128"><path fill="#FFF" d="M64 121.73c-31.84 0-57.73-25.9-57.73-57.73C6.27 32.16 32.16 6.27 64 6.27c31.83 0 57.73 25.9 57.73 57.74 0 31.83-25.89 57.72-57.73 57.72z"/><path fill="#40C0E7" d="M64 .1C28.77.1.1 28.76.1 64c0 35.23 28.67 63.89 63.9 63.89S127.89 99.22 127.89 64C127.9 28.76 99.23.1 64 .1zm0 121.63c-31.84 0-57.73-25.9-57.73-57.73C6.27 32.16 32.16 6.27 64 6.27c31.83 0 57.73 25.9 57.73 57.74 0 31.83-25.89 57.72-57.73 57.72z"/><path fill="#2F2F2F" d="M69.15 55.71c-.17-.11-.36-.2-.54-.3V11.33H59.4v44.09c-3.07 1.64-5.18 4.84-5.18 8.57 0 5.41 4.37 9.79 9.78 9.79 5.4 0 9.78-4.38 9.78-9.79 0-.1-.03-.2-.03-.31l21.38-12.34-4.6-7.97-21.38 12.34zm-3.7 11.68c-.02.01-.04.01-.06.02a3.606 3.606 0 0 1-2.79 0c-.02-.01-.04-.01-.06-.02a3.6 3.6 0 0 1-.82-.5 3.658 3.658 0 0 1-1.36-2.37c-.03-.17-.05-.34-.05-.52 0-2.04 1.65-3.68 3.69-3.68s3.69 1.65 3.69 3.68c0 1.52-.92 2.82-2.24 3.39zM113.93 60.32c-2.03 0-3.69 1.65-3.69 3.68a3.685 3.685 0 0 0 7.37 0 3.664 3.664 0 0 0-3.68-3.68zM109.08 42.23a3.691 3.691 0 0 0 1.35-5.03 3.673 3.673 0 0 0-5.03-1.35 3.682 3.682 0 0 0-1.35 5.03 3.691 3.691 0 0 0 5.03 1.35zM87.13 23.95a3.682 3.682 0 1 0 3.68-6.38 3.68 3.68 0 0 0-5.03 1.35 3.673 3.673 0 0 0 1.35 5.03zM37.19 17.57a3.68 3.68 0 0 0-1.35 5.03 3.671 3.671 0 0 0 5.03 1.35 3.662 3.662 0 0 0 1.34-5.03c-1-1.77-3.25-2.37-5.02-1.35zM22.6 35.84a3.682 3.682 0 0 0-5.03 1.35 3.68 3.68 0 0 0 1.35 5.03c1.76 1.02 4.01.41 5.03-1.35 1.02-1.76.4-4.01-1.35-5.03zM14.06 60.31c-2.03 0-3.68 1.65-3.68 3.68 0 2.04 1.65 3.68 3.68 3.68a3.679 3.679 0 1 0 0-7.36zM18.91 85.78a3.688 3.688 0 0 0-1.34 5.03 3.691 3.691 0 0 0 5.03 1.35 3.694 3.694 0 0 0 1.35-5.04 3.688 3.688 0 0 0-5.04-1.34zM40.87 104.05a3.677 3.677 0 0 0-5.03 1.35 3.691 3.691 0 0 0 1.35 5.03 3.68 3.68 0 0 0 5.03-1.35c1.02-1.75.41-4.01-1.35-5.03zM63.99 110.25c-2.04 0-3.67 1.65-3.68 3.68.01 2.03 1.65 3.68 3.68 3.68 2.03 0 3.69-1.65 3.68-3.68a3.67 3.67 0 0 0-3.68-3.68zM87.12 104.06a3.66 3.66 0 0 0-1.34 5.03 3.682 3.682 0 0 0 5.03 1.35 3.68 3.68 0 0 0 1.35-5.03 3.685 3.685 0 0 0-5.04-1.35zM109.08 85.78a3.68 3.68 0 0 0-5.03 1.35 3.671 3.671 0 0 0 1.35 5.03c1.76 1.01 4.01.41 5.03-1.35 1.02-1.76.42-4.02-1.35-5.03z"/></svg>