<svg xmlns="http://www.w3.org/2000/svg" xmlns:xlink="http://www.w3.org/1999/xlink" width="128" height="128" viewBox="0 0 128 128"><defs><path id="a" d="M64 6.26C32.16 6.26 6.27 32.17 6.27 64c0 31.83 25.89 57.73 57.73 57.73 31.83 0 57.73-25.9 57.73-57.73S95.83 6.26 64 6.26z"/></defs><use xlink:href="#a" overflow="visible" fill="#FFF"/><path fill="#40C0E7" d="M64 127.89C28.77 127.89.1 99.23.1 64 .1 28.76 28.77.1 64 .1s63.89 28.66 63.89 63.9c.01 35.23-28.66 63.89-63.89 63.89zM64 6.26C32.16 6.26 6.27 32.17 6.27 64c0 31.83 25.89 57.73 57.73 57.73 31.83 0 57.73-25.9 57.73-57.73S95.83 6.26 64 6.26z"/><path fill="#2F2F2F" d="M117.62 64a3.685 3.685 0 0 1-7.37 0 3.685 3.685 0 0 1 7.37 0zM110.43 37.2c1.01 1.76.41 4.01-1.35 5.03a3.673 3.673 0 0 1-5.03-1.35 3.669 3.669 0 0 1 1.35-5.03 3.671 3.671 0 0 1 5.03 1.35zM90.81 17.57a3.681 3.681 0 0 1 1.34 5.03 3.671 3.671 0 0 1-5.03 1.35 3.68 3.68 0 0 1-1.35-5.03 3.685 3.685 0 0 1 5.04-1.35zM37.19 17.57a3.682 3.682 0 0 1 5.03 1.35c1.02 1.77.42 4.01-1.35 5.03a3.671 3.671 0 0 1-5.03-1.35 3.682 3.682 0 0 1 1.35-5.03zM17.57 37.19a3.68 3.68 0 0 1 5.03-1.34 3.68 3.68 0 0 1 1.35 5.02 3.683 3.683 0 0 1-5.04 1.35c-1.76-1.01-2.36-3.26-1.34-5.03zM10.38 64c0-2.04 1.65-3.68 3.68-3.68 2.04 0 3.68 1.64 3.68 3.67 0 2.04-1.65 3.69-3.68 3.69s-3.69-1.64-3.68-3.68zM17.56 90.81a3.677 3.677 0 0 1 1.35-5.03 3.693 3.693 0 0 1 5.04 1.34c1.02 1.77.41 4.02-1.35 5.04a3.694 3.694 0 0 1-5.04-1.35zM37.19 110.44a3.682 3.682 0 0 1-1.35-5.03 3.673 3.673 0 0 1 5.03-1.35 3.671 3.671 0 0 1 1.35 5.03 3.68 3.68 0 0 1-5.03 1.35zM90.8 110.44c-1.77 1.01-4.02.41-5.03-1.35a3.668 3.668 0 0 1 1.34-5.03 3.673 3.673 0 0 1 5.03 1.35 3.66 3.66 0 0 1-1.34 5.03zM110.43 90.81a3.682 3.682 0 0 1-5.03 1.35 3.673 3.673 0 0 1-1.35-5.03 3.68 3.68 0 0 1 5.03-1.35 3.671 3.671 0 0 1 1.35 5.03zM59.4 60.61h9.2v56.05h-9.2z"/><g><g fill="#2F2F2F"><path d="M73.79 64c0 5.4-4.38 9.78-9.78 9.78-5.4 0-9.78-4.37-9.78-9.78s4.38-9.78 9.78-9.78c5.39 0 9.78 4.37 9.78 9.78z"/><path d="M73.79 64c0 5.4-4.38 9.78-9.78 9.78-5.4 0-9.78-4.37-9.78-9.78s4.38-9.78 9.78-9.78c5.39 0 9.78 4.37 9.78 9.78z"/></g><path fill="#2F2F2F" d="M33.084 77.196l-2.418-8.876 35.408-9.644 2.418 8.876z"/><path fill="#FFF" d="M67.69 64c0 2.03-1.65 3.68-3.69 3.68s-3.69-1.65-3.69-3.68 1.65-3.68 3.69-3.68 3.69 1.65 3.69 3.68z"/></g><g><path fill="#2F2F2F" d="M64 10.38c-2.04 0-3.68 1.65-3.69 3.68 0 2.03 1.64 3.68 3.67 3.68 2.04 0 3.7-1.65 3.69-3.68A3.662 3.662 0 0 0 64 10.38z"/></g></svg>