<svg xmlns="http://www.w3.org/2000/svg" xmlns:xlink="http://www.w3.org/1999/xlink" width="128" height="128" viewBox="0 0 128 128"><defs><path id="a" d="M64 6.26C32.17 6.26 6.27 32.17 6.27 64c0 31.83 25.9 57.73 57.73 57.73s57.74-25.9 57.74-57.73S95.83 6.26 64 6.26z"/></defs><use xlink:href="#a" overflow="visible" fill="#FFF"/><path fill="#40C0E7" d="M64 127.89C28.77 127.89.1 99.23.1 64 .1 28.77 28.77.11 64 .11s63.9 28.66 63.9 63.9c-.01 35.22-28.67 63.88-63.9 63.88zM64 6.26C32.17 6.26 6.27 32.17 6.27 64c0 31.83 25.9 57.73 57.73 57.73s57.74-25.9 57.74-57.73S95.83 6.26 64 6.26z"/><path fill="#2F2F2F" d="M117.61 64c0 2.03-1.66 3.68-3.69 3.68-2.03 0-3.68-1.65-3.68-3.68 0-2.04 1.65-3.68 3.68-3.68 2.04 0 3.69 1.65 3.69 3.68zM110.43 37.2c1.02 1.76.41 4.01-1.35 5.03a3.669 3.669 0 0 1-5.03-1.35 3.677 3.677 0 0 1 1.35-5.03 3.671 3.671 0 0 1 5.03 1.35zM90.81 17.57a3.68 3.68 0 0 1 1.34 5.03 3.671 3.671 0 0 1-5.03 1.35 3.68 3.68 0 0 1-1.34-5.03 3.671 3.671 0 0 1 5.03-1.35zM37.19 17.57a3.673 3.673 0 0 1 5.03 1.35c1.02 1.76.42 4.01-1.35 5.03-1.77 1.01-4.02.42-5.03-1.35-1.01-1.77-.41-4.02 1.35-5.03zM17.56 37.19a3.688 3.688 0 0 1 5.04-1.34 3.67 3.67 0 0 1 1.34 5.03 3.673 3.673 0 0 1-5.03 1.35 3.703 3.703 0 0 1-1.35-5.04zM10.38 64a3.675 3.675 0 1 1 7.35 0c0 2.04-1.64 3.69-3.67 3.69-2.03-.01-3.69-1.65-3.68-3.69zM17.56 90.81c-1.01-1.77-.41-4.02 1.35-5.03a3.68 3.68 0 1 1 3.67 6.38c-1.75 1.01-4 .41-5.02-1.35zM37.19 110.44a3.691 3.691 0 0 1-1.35-5.03c1.03-1.76 3.27-2.37 5.04-1.35s2.37 3.27 1.35 5.03c-1.03 1.76-3.29 2.37-5.04 1.35zM90.8 110.44a3.68 3.68 0 0 1-5.03-1.35 3.682 3.682 0 0 1 1.33-5.03c1.77-1.02 4.03-.42 5.04 1.34a3.68 3.68 0 0 1-1.34 5.04zM110.43 90.81a3.691 3.691 0 0 1-5.03 1.35 3.671 3.671 0 0 1-1.35-5.03 3.68 3.68 0 0 1 5.03-1.35c1.76 1.01 2.37 3.28 1.35 5.03zM59.4 60.61h9.2v56.05h-9.2z"/><g fill="#2F2F2F"><path d="M73.78 63.99c0 5.41-4.39 9.79-9.78 9.79-5.4 0-9.78-4.38-9.78-9.79 0-5.4 4.38-9.77 9.78-9.77 5.39 0 9.78 4.38 9.78 9.77z"/><path d="M73.78 63.99c0 5.41-4.39 9.79-9.78 9.79-5.4 0-9.78-4.38-9.78-9.79 0-5.4 4.38-9.77 9.78-9.77 5.39 0 9.78 4.38 9.78 9.77z"/></g><path fill="#2F2F2F" d="M69.67 63.15l-6.5 6.52-26.01-25.9 6.5-6.53z"/><circle fill="#FFF" cx="64" cy="64" r="3.69"/><g fill="#2F2F2F"><path d="M90.81 17.57a3.68 3.68 0 0 1 1.34 5.03 3.671 3.671 0 0 1-5.03 1.35 3.681 3.681 0 0 1-1.34-5.03 3.671 3.671 0 0 1 5.03-1.35zM63.99 10.38c-2.03 0-3.68 1.65-3.68 3.68a3.685 3.685 0 0 0 7.37 0c0-2.03-1.65-3.69-3.69-3.68z"/></g></svg>