<svg xmlns="http://www.w3.org/2000/svg" width="128" height="128" viewBox="0 0 128 128"><g fill="#626E30"><path d="M17.02 116.598c-.996.402-2.163 1.949-2.898 2.09-1.397.278-2.394-.269-3.617.761-.958.804-1.393 1.932-1.633 3.078-.205.987-1.727 2.62-1.27 3.612.56 1.256 2.958.739 3.856.179 1.103-.675 1.795-1.736 2.881-2.416 1.483-.928 2.287-1.676 2.869-3.296.389-1.03 1.898-2.804.816-3.864-.29-.284-.636-.289-1.004-.144zM29.101 94.433c-.248-.944.975-1.697.06-2.65-.983-1.025-3.313-1.261-4.608-2.082a6.881 6.881 0 0 0-2.039-.885c-2.689-.684-5.613.287-7.801 2.215-1.659 1.444-1.898 3.497-1.685 5.574.077.795.316 1.663.787 2.321.492.68 1.398 1.052 1.898 1.62 1.188 1.377.368 3.104.025 4.643-.508 2.309-.461 4.583 1.394 6.361 2.052 1.971 5.001.449 6.498-1.347.804-.966.974-1.988 1.385-3.155.342-.992.812-1.979 1.223-2.954.748-1.783 1.826-3.044 3.163-4.335.697-.663 1.834-1.723 1.736-2.809-.1-1.132-1.745-1.461-2.036-2.517zM98.662 44.716c-.539-.752-1-1.496-1.599-2.171-.795-.872-.851-1.467-.958-2.569-.077-.855-.269-1.706-.393-2.561-.107-.863-.65-1.607-1.385-2.022-2.048-1.158-4.541-.475-6.306.838-1.133.838-1.064 1.796-1.488 2.984-.415 1.163-1.021 2.372-1.509 3.522-.308.688-.838 1.355-.932 2.112-.248 1.731 1.355 3.432 1.043 5.489-.457 3.245-2.479 5.634-4.061 8.361-2.253 3.891-5.896 7.144-9.807 9.426-1.017.59-4.343 1.864-3.719-.509.363-1.291 2.078-2.244 1.71-3.749-1.056-.513-2.911-.171-3.903.385-1.595.898-2.125 2.262-2.33 3.916-.069.65.042 1.325-.043 1.971-.107.902-.71 1.334-1.373 1.971-.97.928-2.761 1.599-3.176 2.95-.376 1.287.069 2.292-1.351 3.022-.419.209-1.368.594-1.787.551-.808-.085-1.068-1.09-1.774-1.359-3.732-1.436-8.195.697-12.273.244a8.741 8.741 0 0 1-.984-.163c-.727-.163-1.205-.376-1.988-.273-1.773.248-2.197 1.5-3.231 2.719-1.385 1.607-2.971 2.531-4.929 3.202-1.697.577-3.886 1.009-4.446 2.911-.611 2.133.88 3.57 3.01 3.75 1.659.146 3.454.444 5.134.393 1.685-.056 2.749-1.244 4.177-1.932 1.304-.624 2.975-.646 4.489-.632.778.004 1.65-.09 2.368-.342.868-.304 1.483-1.031 2.364-1.283 1.265-.368 3.886-.847 4.792.585 1.06 1.659-1.021 3.074-1.252 4.587-.287 1.915 1.586 3.51 3.352 3.749 2.394.33 4.988-1.009 6.861-2.368 1.094-.791 4.36-2.317 3.813-4.142-.265-.876-1.428-1.231-1.607-2.164-.145-.795.564-1.752 1.376-1.791 1.086-.056 1.351.911 1.787 1.599.47.727 1.146.902 1.975.975.872.082 1.898.09 2.766 0 .876-.089 1.692-.475 2.556-.599.898-.132 1.8-.132 2.719-.23.979-.107 1.693-.547 2.608-.945 1.646-.714 3.159-1.368 4.92-1.585.838-.103 1.548.034 2.369-.201.812-.227 1.659-.561 2.368-1.159 1.351-1.137 2.719-2.945 2.214-4.741-.465-1.693-.722-3.531-.196-5.28.303-.992.632-2.022 1.334-2.809.68-.765 1.303-1.577 1.539-2.604.354-1.535.042-3.501.038-5.078-.021-2.381 1.783-2.625 3.352-3.938a6.977 6.977 0 0 0 1.988-2.817c.526-1.479 1.492-2.843 1.569-4.446.051-1.052.072-2.202-.249-3.202-.35-1.081-.926-1.676-1.542-2.548z"/><path d="M45.91 88.658c-1.004-.021-2.467-.342-3.202.542-.475.543-.338.923-1.073 1.325-.543.291-1.154.432-1.757.479-.394.03-.782-.068-1.154-.197-.714-.244-1.402-.594-2.107-.385-.804.252-1.471 1.035-2.112 1.556-1.902 1.522-2.189 5.155-1.462 7.332.342 1.009 1.316 1.71 2.411 1.778 1.146.068 1.894-.842 2.172-1.783.504-1.718 1.966-3.903 4.129-3.309 1.373.372 1.642 2.206 3.364 1.688.971-.291 1.663-1.312 2.411-1.928.765-.637 1.484-1.034 1.877-1.97.962-2.281-1.043-5.069-3.497-5.128zM117.86 16.284c-.551-.612-.551-1.843-.419-2.676.142-.863.962-1.282 1.206-2.052.338-1.064-.115-1.979-1.24-2.069-1.795-.137-2.676 1.967-4.689 1.607-4.347-.778-7.571-4.1-10.439-7.211-.714-.782-1.077-1.975-2.052-2.493-.902-.483-2.014-.277-2.984-.167-.525.06-1.094-.013-1.599.249-.607.32-.453.205-.659.825-.645 1.928.146 4.27.018 6.288-.18 2.629-.954 7.208-2.95 9.182-.547.552-1.608.573-2.369.573-.923 0-1.701-.064-2.325.765-.201.261-.325.56-.355.872-.064.47.346 1.06.227 1.449-.197.616-1.539.829-2.077 1.18-.676.453-1.24 1.176-1.39 1.949-.133.688-.159 1.736.004 2.424.239 1.048 1.133 1.394 1.607 2.258.658 1.231-.821 3.454.633 4.279.659.372 1.894-.03 2.437-.372.937-.568 1.398-1.043 2.471-1.274.786-.175 1.873.103 2.223-.778.316-.838-.402-1.53-.988-2.009-.556-.458-2.638-1.218-2.227-2.223.363-.902 2.36.287 2.941.287 1.142 0 2.035-.77 3.193-.787 2.92-.042 4.886 2.659 7.772 3.095 2.15.325 3.809-.804 4.202-2.843.479-2.376 1.735-4.057 4.112-4.783 1.654-.5 3.467-.53 5.087-1.026 1.103-.337 4.412-1.833 2.83-3.236-.615-.552-1.61-.612-2.201-1.283z"/></g></svg>