<svg xmlns="http://www.w3.org/2000/svg" xmlns:xlink="http://www.w3.org/1999/xlink" width="128" height="128" viewBox="0 0 128 128"><defs><path id="a" d="M64.174 12C2.665 12 1.215 80.947 1.215 94.602c0 13.636 28.188 24.695 62.959 24.695s62.954-11.06 62.954-24.695c0-13.655-1.46-82.602-62.954-82.602z"/></defs><use xlink:href="#a" overflow="visible" fill="#FBB817"/><clipPath id="b"><use xlink:href="#a" overflow="visible"/></clipPath><g clip-path="url(#b)"><path fill="#FBB817" d="M22.961 68.681c-9.094 2.968-18.884-1.88-21.89-10.854-2.997-8.965 1.908-18.65 10.992-21.632 9.065-2.963 18.875 1.898 21.899 10.869 2.988 8.973-1.926 18.659-11.001 21.617z"/><path fill="#FBB517" d="M22.74 68.02c-8.724 2.847-18.115-1.804-20.999-10.413-2.875-8.6 1.831-17.891 10.545-20.751 8.696-2.843 18.106 1.821 21.008 10.426 2.865 8.609-1.849 17.9-10.554 20.738z"/><path fill="#FAB318" d="M22.518 67.358c-8.354 2.726-17.347-1.727-20.108-9.97-2.753-8.235 1.753-17.131 10.098-19.871 8.327-2.722 17.338 1.744 20.116 9.984 2.744 8.243-1.77 17.14-10.106 19.857z"/><path fill="#FAB018" d="M22.296 66.697c-7.983 2.605-16.578-1.651-19.217-9.529-2.631-7.87 1.675-16.372 9.65-18.989 7.958-2.602 16.569 1.667 19.225 9.542 2.623 7.877-1.691 16.379-9.658 18.976z"/><path fill="#FAAE19" d="M22.075 66.035c-7.613 2.484-15.809-1.574-18.326-9.086-2.509-7.505 1.597-15.613 9.202-18.109 7.589-2.48 15.801 1.59 18.333 9.099 2.502 7.512-1.613 15.62-9.209 18.096z"/><path fill="#F9AB19" d="M21.853 65.374c-7.243 2.363-15.041-1.499-17.435-8.645-2.387-7.14 1.52-14.853 8.755-17.228 7.22-2.36 15.033 1.513 17.442 8.657 2.38 7.147-1.535 14.86-8.762 17.216z"/><path fill="#F9A81A" d="M21.631 64.712C14.759 66.955 7.36 63.291 5.087 56.51c-2.266-6.774 1.442-14.093 8.307-16.347 6.852-2.239 14.265 1.435 16.55 8.214 2.26 6.781-1.455 14.1-8.313 16.335z"/><path fill="#F9A61A" d="M21.409 64.051c-6.501 2.122-13.502-1.346-15.652-7.761-2.144-6.409 1.364-13.333 7.859-15.466 6.482-2.119 13.496 1.358 15.659 7.772 2.138 6.416-1.377 13.34-7.866 15.455z"/><path fill="#F8A31A" d="M21.188 63.39c-6.131 2.001-12.733-1.269-14.762-7.319-2.022-6.044 1.287-12.574 7.412-14.585 6.114-1.998 12.728 1.281 14.768 7.33 2.015 6.049-1.299 12.579-7.418 14.574z"/><path fill="#F8A01B" d="M20.966 62.729c-5.761 1.88-11.965-1.193-13.871-6.877-1.9-5.679 1.209-11.814 6.964-13.705 5.745-1.877 11.959 1.204 13.876 6.888 1.895 5.683-1.219 11.819-6.969 13.694z"/><path fill="#F89E1B" d="M20.744 62.067c-5.391 1.759-11.196-1.116-12.979-6.435-1.778-5.314 1.131-11.055 6.517-12.824 5.375-1.757 11.191 1.126 12.984 6.445 1.773 5.319-1.141 11.06-6.522 12.814z"/><path fill="#F79B1C" d="M20.522 61.406c-5.021 1.638-10.427-1.04-12.088-5.994-1.657-4.949 1.054-10.295 6.069-11.943 5.006-1.636 10.422 1.049 12.093 6.003 1.652 4.953-1.063 10.3-6.074 11.934z"/><path fill="#F7991C" d="M20.3 60.744c-4.65 1.518-9.658-.963-11.197-5.551-1.535-4.584.977-9.536 5.622-11.062 4.637-1.516 9.654.972 11.201 5.561 1.531 4.587-.984 9.539-5.626 11.052z"/><path fill="#F7961D" d="M20.079 60.083c-4.279 1.396-8.889-.887-10.306-5.11-1.413-4.218.898-8.776 5.174-10.181 4.269-1.395 8.886.895 10.31 5.118 1.409 4.222-.906 8.78-5.178 10.173z"/><path fill="#F6931D" d="M19.857 59.421c-3.909 1.276-8.121-.811-9.415-4.667-1.292-3.854.821-8.017 4.727-9.3 3.899-1.274 8.118.817 9.418 4.676 1.288 3.856-.827 8.019-4.73 9.291z"/><path fill="#F6911D" d="M19.635 58.76c-3.539 1.155-7.352-.735-8.524-4.226-1.169-3.488.743-7.257 4.279-8.419 3.531-1.153 7.349.74 8.527 4.233 1.166 3.491-.748 7.26-4.282 8.412z"/><path fill="#F68E1E" d="M19.414 58.099c-3.168 1.034-6.583-.658-7.633-3.784-1.047-3.124.666-6.498 3.832-7.539 3.162-1.033 6.581.663 7.635 3.792 1.044 3.124-.67 6.499-3.834 7.531z"/><path fill="#F58B1E" d="M19.192 57.438c-2.798.913-5.814-.582-6.742-3.342-.926-2.758.588-5.738 3.384-6.658 2.793-.912 5.812.586 6.744 3.349.923 2.759-.592 5.739-3.386 6.651z"/><path fill="#F5891F" d="M18.97 56.776c-2.428.792-5.045-.505-5.851-2.9-.804-2.393.51-4.979 2.937-5.777 2.423-.791 5.044.509 5.852 2.907.802 2.393-.513 4.979-2.938 5.77z"/><path fill="#F5861F" d="M18.749 56.115c-2.058.671-4.276-.429-4.96-2.458-.683-2.028.432-4.219 2.489-4.896 2.055-.671 4.275.431 4.96 2.464.681 2.028-.434 4.219-2.489 4.89z"/><path fill="#F48420" d="M18.526 55.454c-1.687.55-3.507-.353-4.069-2.017-.561-1.663.355-3.46 2.042-4.016 1.686-.55 3.507.354 4.069 2.022.56 1.663-.355 3.46-2.042 4.011z"/><path fill="#F48120" d="M18.305 54.792c-1.317.43-2.738-.276-3.178-1.575-.439-1.297.277-2.7 1.594-3.134a2.526 2.526 0 0 1 3.178 1.58c.438 1.297-.277 2.699-1.594 3.129z"/></g><g clip-path="url(#b)"><path fill="#FBB817" d="M101.002 82.455c-9.089 2.967-18.88-1.88-21.885-10.854-2.996-8.965 1.908-18.65 10.993-21.632 9.065-2.963 18.879 1.904 21.895 10.874 2.986 8.969-1.938 18.654-11.003 21.612z"/><path fill="#FBB517" d="M100.781 81.793C92.062 84.64 82.67 79.99 79.787 71.381c-2.874-8.6 1.831-17.891 10.545-20.751 8.696-2.842 18.11 1.826 21.002 10.431 2.866 8.604-1.857 17.895-10.553 20.732z"/><path fill="#FAB318" d="M100.559 81.133c-8.349 2.726-17.342-1.728-20.103-9.971-2.752-8.234 1.753-17.132 10.098-19.871 8.326-2.722 17.341 1.749 20.111 9.988 2.745 8.239-1.778 17.136-10.106 19.854z"/><path fill="#FAB018" d="M100.338 80.471c-7.979 2.605-16.574-1.651-19.213-9.528-2.629-7.87 1.677-16.373 9.651-18.99 7.957-2.601 16.572 1.671 19.219 9.545 2.624 7.874-1.699 16.377-9.657 18.973z"/><path fill="#FAAE19" d="M100.116 79.81c-7.609 2.484-15.805-1.574-18.322-9.086-2.507-7.504 1.599-15.613 9.204-18.11 7.587-2.48 15.803 1.594 18.328 9.102 2.502 7.509-1.62 15.617-9.21 18.094z"/><path fill="#F9AB19" d="M99.895 79.149c-7.238 2.363-15.036-1.499-17.431-8.645-2.385-7.139 1.522-14.854 8.757-17.229 7.218-2.36 15.034 1.516 17.436 8.659 2.38 7.145-1.542 14.859-8.762 17.215z"/><path fill="#F9A81A" d="M99.673 78.488c-6.869 2.243-14.268-1.422-16.54-8.203-2.263-6.774 1.445-14.095 8.31-16.349 6.849-2.239 14.265 1.439 16.544 8.217 2.259 6.779-1.462 14.099-8.314 16.335z"/><path fill="#F9A61A" d="M99.452 77.827c-6.499 2.122-13.499-1.345-15.649-7.761-2.14-6.409 1.368-13.335 7.863-15.468 6.479-2.119 13.496 1.361 15.652 7.773 2.137 6.415-1.384 13.34-7.866 15.456z"/><path fill="#F8A31A" d="M99.23 77.166c-6.128 2.001-12.73-1.269-14.758-7.319-2.018-6.044 1.291-12.576 7.416-14.587 6.109-1.998 12.727 1.284 14.76 7.331 2.016 6.048-1.304 12.58-7.418 14.575z"/><path fill="#F8A01B" d="M99.009 76.504c-5.758 1.88-11.962-1.192-13.868-6.877-1.896-5.679 1.213-11.817 6.969-13.707 5.74-1.877 11.958 1.206 13.869 6.888 1.895 5.685-1.226 11.822-6.97 13.696z"/><path fill="#F89E1B" d="M98.787 75.843c-5.388 1.759-11.193-1.116-12.977-6.435-1.773-5.314 1.136-11.058 6.522-12.826 5.371-1.756 11.188 1.129 12.977 6.445 1.774 5.319-1.146 11.062-6.522 12.816z"/><path fill="#F79B1C" d="M98.565 75.182c-5.018 1.638-10.424-1.04-12.086-5.993-1.651-4.949 1.059-10.298 6.075-11.945 5.001-1.636 10.419 1.051 12.085 6.002 1.653 4.953-1.067 10.303-6.074 11.936z"/><path fill="#F7991C" d="M98.344 74.521c-4.648 1.518-9.656-.963-11.195-5.552-1.529-4.583.981-9.539 5.627-11.064 4.632-1.515 9.65.974 11.193 5.56 1.532 4.588-.987 9.543-5.625 11.056z"/><path fill="#F7961D" d="M98.123 73.86c-4.278 1.396-8.888-.887-10.304-5.11-1.407-4.218.904-8.779 5.18-10.184 4.262-1.395 8.881.896 10.302 5.117 1.409 4.223-.91 8.784-5.178 10.177z"/><path fill="#F6931D" d="M97.901 73.199c-3.908 1.276-8.119-.811-9.414-4.668-1.285-3.853.827-8.02 4.733-9.303 3.893-1.274 8.113.819 9.41 4.674 1.289 3.858-.829 8.024-4.729 9.297z"/><path fill="#F6911D" d="M97.679 72.538c-3.537 1.155-7.35-.734-8.522-4.226-1.163-3.488.75-7.261 4.286-8.422 3.523-1.153 7.344.741 8.518 4.231 1.167 3.492-.751 7.265-4.282 8.417z"/><path fill="#F68E1E" d="M97.458 71.876c-3.167 1.034-6.582-.658-7.632-3.784-1.04-3.123.672-6.501 3.839-7.542 3.154-1.033 6.575.664 7.626 3.789 1.046 3.128-.671 6.506-3.833 7.537z"/><path fill="#F58B1E" d="M97.236 71.215c-2.797.913-5.813-.582-6.741-3.342-.918-2.758.595-5.742 3.392-6.661 2.785-.912 5.806.586 6.735 3.345.924 2.763-.593 5.747-3.386 6.658z"/><path fill="#F5891F" d="M97.015 70.554c-2.427.792-5.044-.505-5.851-2.9-.795-2.393.518-4.983 2.945-5.781 2.416-.791 5.037.509 5.843 2.903.804 2.397-.513 4.988-2.937 5.778z"/><path fill="#F5861F" d="M96.793 69.893c-2.057.671-4.28-.428-4.959-2.458-.678-2.026.441-4.224 2.498-4.9 2.046-.671 4.268.431 4.952 2.459.681 2.033-.436 4.229-2.491 4.899z"/><path fill="#F48420" d="M96.572 69.232c-1.687.55-3.512-.351-4.068-2.017-.556-1.661.363-3.464 2.05-4.02 1.676-.55 3.499.354 4.06 2.017.56 1.668-.356 3.47-2.042 4.02z"/><path fill="#F48120" d="M96.35 68.571c-1.316.43-2.738-.276-3.178-1.575-.429-1.297.287-2.705 1.604-3.139a2.52 2.52 0 0 1 3.168 1.574 2.475 2.475 0 0 1-1.594 3.14z"/></g><g fill="#2F2F2F"><path d="M87.648 55.178a2.956 2.956 0 0 1-1.594-.5c-7.539-5.005-16.146-7.777-16.222-7.796a3.043 3.043 0 0 1-2.127-2.949 3.04 3.04 0 0 1 2.232-2.881c9.418-2.615 20.249-2.719 20.697-2.734 1.632-.005 3.054 1.34 3.073 3.02a3.06 3.06 0 0 1-3.024 3.073c-.058 0-4.142.038-9.294.649 2.548 1.245 5.334 2.767 8.025 4.551a3.045 3.045 0 0 1 .859 4.218 3.064 3.064 0 0 1-2.625 1.349zM30.461 43.045a3.044 3.044 0 0 1-2.919-2.567 3.054 3.054 0 0 1 2.557-3.473c3.407-.52 7.29-.625 10.658-.577-2.5-1.737-4.656-2.763-4.694-2.777-1.518-.715-2.157-2.528-1.451-4.046a3.028 3.028 0 0 1 4.037-1.469c.333.158 8.244 3.907 12.729 9.995.706.974.782 2.267.181 3.316-.602 1.045-1.727 1.627-2.958 1.518-.095-.014-10.325-1.073-17.586.052a2.745 2.745 0 0 1-.554.028z"/></g><path fill="#E75625" d="M30.979 53.533c-1.057.79-1.796 2.385-2.021 3.624-1.813 10.048 6.723 21.601 22.155 24.888C68.866 84.333 79.716 79 83.225 67.686c.47-1.403.417-3.13-.904-4.678-3.498-4.091-12.25-1.429-27.081-4.079-13.521-2.417-19.983-8.586-24.261-5.396z"/></svg>