<svg xmlns="http://www.w3.org/2000/svg" xmlns:xlink="http://www.w3.org/1999/xlink" width="128" height="128" viewBox="0 0 128 128"><defs><path id="a" d="M122.22 79.49c9.9-31.98 1.98-59.19-20.82-70.65C67.34-8.28 35.2 4.71 15.97 33.18 3.92 51.03-1.01 73.42.58 100.39c-.07.51-.19 1.01-.19 1.52 0 13.76 28.44 24.92 63.51 24.92h.27c9.41 0 18.23-.83 26.16-2.28 19.59-3.52 33.8-10.83 36.56-19.56.39-1.02.69-2.04.79-3.09.67-6.98-9.55-9.23-5.46-22.41z"/></defs><use xlink:href="#a" overflow="visible" fill="#FCC21B"/><clipPath id="b"><use xlink:href="#a" overflow="visible"/></clipPath><g clip-path="url(#b)"><path fill="#FCC21B" d="M103.65 95.31c-9.5 3.41-19.98-1.4-23.44-10.78-3.44-9.37 1.43-19.74 10.93-23.17 9.47-3.41 19.98 1.42 23.45 10.79 3.44 9.38-1.46 19.75-10.94 23.16z"/><path fill="#FCC01C" d="M103.42 94.67c-9.15 3.29-19.24-1.35-22.56-10.37-3.31-9.02 1.38-19 10.52-22.3 9.12-3.28 19.23 1.37 22.57 10.39 3.31 9.02-1.41 19.01-10.53 22.28z"/><path fill="#FCBE1C" d="M103.19 94.04C94.4 97.2 84.7 92.75 81.5 84.07c-3.18-8.67 1.33-18.26 10.11-21.43 8.77-3.15 18.48 1.31 21.69 9.98 3.19 8.67-1.34 18.27-10.11 21.42z"/><path fill="#FBBB1D" d="M102.95 93.4c-8.44 3.03-17.74-1.24-20.81-9.57-3.05-8.32 1.27-17.53 9.71-20.57 8.41-3.03 17.74 1.26 20.82 9.58 3.04 8.33-1.3 17.54-9.72 20.56z"/><path fill="#FBB91E" d="M102.72 92.77c-8.08 2.9-17-1.19-19.93-9.17-2.93-7.97 1.22-16.79 9.3-19.7 8.06-2.9 16.99 1.21 19.94 9.18 2.91 7.97-1.25 16.79-9.31 19.69z"/><path fill="#FBB71E" d="M102.48 92.13c-7.73 2.77-16.25-1.14-19.06-8.76-2.8-7.62 1.17-16.05 8.89-18.84 7.7-2.77 16.24 1.15 19.06 8.77 2.8 7.63-1.18 16.07-8.89 18.83z"/><path fill="#FBB51F" d="M102.25 91.5c-7.37 2.65-15.5-1.09-18.18-8.36-2.67-7.27 1.11-15.31 8.48-17.97 7.35-2.64 15.5 1.1 18.19 8.37 2.66 7.27-1.14 15.32-8.49 17.96z"/><path fill="#FAB220" d="M102.02 90.86c-7.02 2.52-14.75-1.03-17.3-7.96-2.54-6.92 1.06-14.57 8.07-17.1 7-2.52 14.75 1.05 17.31 7.97 2.53 6.92-1.09 14.58-8.08 17.09z"/><path fill="#FAB020" d="M101.78 90.23c-6.66 2.39-14.01-.98-16.43-7.55-2.41-6.57 1.01-13.84 7.66-16.24 6.64-2.39 14 1 16.43 7.56 2.42 6.57-1.01 13.84-7.66 16.23z"/><path fill="#FAAE21" d="M101.55 89.6c-6.31 2.26-13.26-.93-15.55-7.15-2.28-6.22.95-13.1 7.25-15.37 6.29-2.26 13.26.94 15.56 7.16 2.28 6.21-.97 13.1-7.26 15.36z"/><path fill="#FAAC22" d="M101.32 88.96c-5.95 2.14-12.51-.88-14.68-6.75-2.16-5.87.9-12.36 6.84-14.51 5.93-2.13 12.51.89 14.68 6.76 2.16 5.87-.91 12.37-6.84 14.5z"/><path fill="#F9A922" d="M101.08 88.33c-5.59 2.01-11.77-.82-13.8-6.35-2.03-5.52.84-11.62 6.44-13.64 5.58-2.01 11.76.84 13.8 6.35 2.02 5.52-.86 11.63-6.44 13.64z"/><path fill="#F9A723" d="M100.85 87.69c-5.24 1.88-11.02-.77-12.92-5.94-1.9-5.17.79-10.88 6.03-12.77 5.23-1.88 11.01.78 12.93 5.95 1.88 5.16-.82 10.89-6.04 12.76z"/><path fill="#F9A524" d="M100.61 87.06c-4.88 1.75-10.27-.72-12.05-5.54-1.77-4.81.74-10.14 5.62-11.91 4.87-1.75 10.27.73 12.05 5.55 1.77 4.81-.74 10.15-5.62 11.9z"/><path fill="#F9A324" d="M100.38 86.42c-4.53 1.63-9.53-.67-11.17-5.14-1.64-4.46.69-9.41 5.21-11.04 4.52-1.62 9.52.68 11.17 5.14 1.64 4.47-.69 9.42-5.21 11.04z"/><path fill="#F8A025" d="M100.15 85.79c-4.17 1.5-8.78-.62-10.29-4.74-1.51-4.11.63-8.67 4.8-10.17 4.16-1.5 8.77.63 10.3 4.74 1.5 4.12-.65 8.67-4.81 10.17z"/><path fill="#F89E26" d="M99.91 85.15c-3.82 1.37-8.03-.56-9.42-4.33-1.38-3.76.58-7.93 4.39-9.31 3.81-1.37 8.03.57 9.42 4.34 1.39 3.77-.58 7.94-4.39 9.3z"/><path fill="#F89C26" d="M99.68 84.52c-3.46 1.24-7.28-.51-8.54-3.93-1.25-3.41.52-7.19 3.98-8.44 3.46-1.24 7.28.52 8.55 3.93 1.25 3.42-.54 7.2-3.99 8.44z"/><path fill="#F89A27" d="M99.44 83.89c-3.11 1.12-6.54-.46-7.67-3.53-1.13-3.06.47-6.45 3.57-7.58 3.1-1.11 6.53.47 7.67 3.53 1.14 3.07-.47 6.46-3.57 7.58z"/><path fill="#F79728" d="M99.21 83.25c-2.75.99-5.79-.41-6.79-3.12s.42-5.72 3.17-6.71c2.75-.99 5.79.41 6.79 3.13 1 2.71-.42 5.72-3.17 6.7z"/><path fill="#F79528" d="M98.98 82.62c-2.4.86-5.04-.35-5.91-2.72-.87-2.36.36-4.98 2.76-5.84 2.39-.86 5.04.36 5.92 2.72.85 2.36-.38 4.98-2.77 5.84z"/><path fill="#F79329" d="M98.74 81.98c-2.04.73-4.3-.3-5.04-2.32-.74-2.01.31-4.24 2.35-4.98 2.04-.73 4.29.31 5.04 2.32.74 2.02-.31 4.25-2.35 4.98z"/><g><path fill="#FCC21B" d="M25.25 76.95c-9.58 3.44-20.14-1.41-23.62-10.86-3.47-9.44 1.45-19.89 11.02-23.34 9.55-3.43 20.13 1.43 23.62 10.87 3.46 9.46-1.47 19.9-11.02 23.33z"/><path fill="#FCC01C" d="M25.01 76.29c-9.2 3.31-19.36-1.35-22.7-10.44-3.33-9.07 1.39-19.12 10.59-22.44 9.18-3.3 19.35 1.38 22.71 10.45 3.32 9.09-1.42 19.13-10.6 22.43z"/><path fill="#FCBE1C" d="M24.76 75.62c-8.83 3.17-18.58-1.3-21.78-10.02-3.2-8.71 1.33-18.35 10.16-21.53 8.81-3.17 18.57 1.32 21.79 10.03 3.19 8.73-1.36 18.36-10.17 21.52z"/><path fill="#FBBB1D" d="M24.52 74.96C16.06 78 6.72 73.71 3.65 65.37c-3.07-8.34 1.28-17.58 9.73-20.63 8.44-3.03 17.79 1.27 20.87 9.61 3.06 8.35-1.29 17.58-9.73 20.61z"/><path fill="#FBB91E" d="M24.27 74.3c-8.09 2.91-17.01-1.19-19.95-9.17-2.93-7.97 1.22-16.8 9.31-19.72 8.06-2.9 17 1.21 19.96 9.18 2.92 7.99-1.25 16.81-9.32 19.71z"/><path fill="#FBB71E" d="M24.03 73.63C16.31 76.41 7.8 72.5 4.99 64.88c-2.8-7.61 1.17-16.03 8.88-18.81 7.69-2.77 16.22 1.16 19.04 8.76 2.79 7.62-1.18 16.04-8.88 18.8z"/><path fill="#FBB51F" d="M23.78 72.97c-7.34 2.64-15.45-1.08-18.12-8.33C3 57.4 6.77 49.38 14.11 46.73c7.32-2.63 15.44 1.1 18.12 8.34 2.66 7.26-1.12 15.27-8.45 17.9z"/><path fill="#FAB220" d="M23.54 72.3c-6.97 2.51-14.67-1.03-17.2-7.91-2.53-6.87 1.05-14.49 8.02-17 6.95-2.5 14.66 1.04 17.2 7.92 2.53 6.89-1.07 14.5-8.02 16.99z"/><path fill="#FAB020" d="M23.29 71.64c-6.6 2.37-13.88-.97-16.28-7.49-2.39-6.51 1-13.72 7.59-16.09 6.58-2.37 13.88.99 16.29 7.5 2.39 6.52-1.01 13.72-7.6 16.08z"/><path fill="#FAAE21" d="M23.05 70.98c-6.23 2.24-13.1-.92-15.37-7.06-2.26-6.14.94-12.94 7.17-15.19 6.21-2.23 13.1.93 15.37 7.07 2.25 6.15-.96 12.95-7.17 15.18z"/><path fill="#FAAC22" d="M22.8 70.31c-5.86 2.1-12.32-.86-14.45-6.64-2.12-5.77.89-12.17 6.74-14.28 5.84-2.1 12.32.88 14.45 6.65 2.13 5.78-.89 12.18-6.74 14.27z"/><path fill="#F9A922" d="M22.56 69.65c-5.49 1.97-11.54-.81-13.53-6.22-1.99-5.41.83-11.4 6.31-13.37 5.47-1.97 11.53.82 13.54 6.23 1.98 5.41-.85 11.4-6.32 13.36z"/><path fill="#F9A723" d="M22.31 68.98c-5.11 1.84-10.76-.75-12.62-5.8-1.85-5.04.77-10.63 5.88-12.47 5.1-1.83 10.75.77 12.62 5.81 1.86 5.05-.77 10.64-5.88 12.46z"/><path fill="#F9A524" d="M22.07 68.32c-4.74 1.7-9.98-.7-11.7-5.38-1.72-4.67.72-9.85 5.46-11.56 4.73-1.7 9.97.71 11.7 5.38 1.71 4.69-.73 9.86-5.46 11.56z"/><path fill="#F9A324" d="M21.83 67.66c-4.37 1.57-9.19-.64-10.78-4.96-1.58-4.31.66-9.08 5.03-10.66 4.36-1.57 9.19.65 10.78 4.96 1.58 4.32-.67 9.09-5.03 10.66z"/><path fill="#F8A025" d="M21.58 66.99c-4 1.44-8.41-.59-9.87-4.53-1.45-3.94.61-8.31 4.6-9.75 3.99-1.43 8.41.6 9.87 4.54 1.45 3.95-.61 8.31-4.6 9.74z"/><path fill="#F89E26" d="M21.34 66.33c-3.63 1.3-7.63-.53-8.95-4.11-1.31-3.57.55-7.54 4.17-8.84 3.62-1.3 7.63.54 8.95 4.12 1.31 3.57-.55 7.53-4.17 8.83z"/><path fill="#F89C26" d="M21.09 65.67c-3.25 1.17-6.85-.48-8.03-3.69-1.18-3.21.49-6.77 3.75-7.94 3.25-1.17 6.85.49 8.03 3.7 1.18 3.21-.5 6.76-3.75 7.93z"/><path fill="#F89A27" d="M20.85 65c-2.88 1.04-6.07-.42-7.12-3.27-1.04-2.84.44-5.99 3.32-7.03s6.06.43 7.12 3.27c1.04 2.85-.44 6-3.32 7.03z"/><path fill="#F79728" d="M20.6 64.34c-2.51.9-5.28-.37-6.2-2.85-.91-2.48.38-5.22 2.89-6.12 2.51-.9 5.28.38 6.2 2.85.91 2.48-.38 5.22-2.89 6.12z"/><path fill="#F79528" d="M20.36 63.67c-2.14.77-4.5-.31-5.28-2.42-.77-2.11.33-4.45 2.46-5.22 2.14-.77 4.5.32 5.28 2.43.78 2.11-.33 4.45-2.46 5.21z"/><path fill="#F79329" d="M20.11 63.01c-1.77.63-3.72-.26-4.37-2-.64-1.74.27-3.68 2.04-4.31 1.77-.64 3.72.27 4.37 2.01.64 1.74-.27 3.67-2.04 4.3z"/></g></g><path fill="#ED6C30" d="M66.45 88.41c-5.33 1.16-11.95.95-16.33-.46-6.51-2.1-15.49-8.31-14.4-16.59.37-2.74 1.58-5.3 3.87-6.69 3.48-2.13 7.73.53 11.73 2.5 1.46.7 2.91 1.3 4.22 1.53 5.69 1.02 13.63-1.26 18.62 3.97 6.32 6.62-.84 14.18-7.71 15.74z"/><g fill="#D7598B"><path d="M48.74 21.59c-3.52.19-6.47 2.23-7.94 5.14-1.79-2.69-5.01-4.41-8.4-4.21a9.448 9.448 0 0 0-6.53 3.11c-1.69 1.87-2.54 4.27-2.4 6.75.59 11.31 17.38 19.57 18.09 19.92.17.09.36.13.55.13.23 0 .47-.07.67-.19.67-.42 16.47-10.55 15.88-21.83-.26-5.14-4.8-9.2-9.92-8.82zM108.41 40.4c-3.56-3.5-9.02-4.66-13.61-3.05 1.63-4.56.57-9.81-3.15-13.47a13.122 13.122 0 0 0-9.26-3.78c-3.49 0-6.76 1.35-9.21 3.78-11.39 11.3-4.23 36.87-3.92 37.95.12.42.45.75.87.87.35.1 8.76 2.41 18.16 2.41 9.11 0 15.9-2.16 20.17-6.4 2.45-2.43 3.8-5.68 3.8-9.12.01-3.48-1.36-6.74-3.85-9.19z"/></g></svg>