<svg xmlns="http://www.w3.org/2000/svg" width="128" height="128" viewBox="0 0 128 128"><path fill="#FCC21B" d="M64 17.43C1.98 17.43.51 86.95.51 100.71c0 13.77 28.42 24.91 63.49 24.91 35.06 0 63.49-11.14 63.49-24.91 0-13.75-1.46-83.28-63.49-83.28z"/><path fill="#2F2F2F" d="M30.44 73.69c-.77 1.26-2.43 1.68-3.7.92-1.27-.77-1.7-2.41-.95-3.68.18-.31 4.56-7.57 14.26-7.57s14.09 7.26 14.27 7.57c.76 1.28.32 2.94-.96 3.7-.44.25-.9.38-1.38.38-.91 0-1.81-.47-2.32-1.31-.14-.22-3.09-4.92-9.61-4.92-6.53-.01-9.48 4.7-9.61 4.91zM101.9 74.63c-.43.25-.9.38-1.36.38-.94 0-1.84-.48-2.34-1.33-.1-.19-3.05-4.9-9.58-4.9-6.65 0-9.57 4.85-9.61 4.9a2.717 2.717 0 0 1-3.7.96 2.705 2.705 0 0 1-.95-3.7c.18-.31 4.56-7.57 14.26-7.57s14.07 7.26 14.25 7.57c.75 1.27.31 2.94-.97 3.69zM64.65 101.39c-19.63 0-28.15-10.29-28.51-10.73a3.195 3.195 0 0 1 .48-4.5c1.37-1.11 3.37-.89 4.49.46.32.37 7.2 8.36 23.54 8.36 15.71 0 21.83-9.2 22.09-9.59a3.206 3.206 0 0 1 4.41-.97c1.48.94 1.94 2.9 1 4.39-.32.51-8.08 12.58-27.5 12.58z"/><g><path fill="#40C0E7" d="M62.5 2.38c-25.66 0-46.47 7.73-46.47 17.27 0 9.55 20.81 17.27 46.47 17.27 25.67 0 46.46-7.73 46.46-17.27.01-9.54-20.79-17.27-46.46-17.27zm0 21.27c-14.54 0-26.34-3.13-26.34-7 0-3.86 11.8-7 26.34-7 14.53 0 26.32 3.14 26.32 7-.01 3.86-11.79 7-26.32 7z"/></g></svg>