<svg xmlns="http://www.w3.org/2000/svg" width="128" height="128" viewBox="0 0 128 128"><path fill="#FCC21B" d="M64 9.81C1.88 9.81.41 79.46.41 93.25c0 13.77 28.47 24.94 63.59 24.94 35.12 0 63.59-11.17 63.59-24.94 0-13.79-1.46-83.44-63.59-83.44z"/><path fill="#2F2F2F" d="M48.29 58.58c-.17.26-4.25 6.53-13.16 6.53s-12.99-6.25-13.16-6.53c-.81-1.29-.44-3 .85-3.81 1.28-.83 2.98-.44 3.81.84.09.15 2.71 3.97 8.5 3.97 5.81 0 8.47-3.93 8.49-3.96.82-1.29 2.53-1.68 3.81-.85 1.3.81 1.68 2.52.86 3.81z"/><path fill="#ED6C30" d="M67.12 90.48c-1.01 4.78-3.81 7.57-6.62 7.87-2.8.31-6.27-1.91-8.38-6.77-3.63-8.32-2.34-20.87 5.73-20.85 7.64.01 10.92 11.66 9.27 19.75z"/><path fill="#2F2F2F" d="M95.03 58.65c-.18.27-4.33 6.65-13.4 6.65-9.09 0-13.22-6.4-13.39-6.65-.83-1.32-.44-3.05.86-3.88 1.31-.83 3.05-.45 3.88.87.09.15 2.74 4.04 8.64 4.04 5.93 0 8.64-4 8.66-4.04.83-1.32 2.57-1.7 3.88-.87s1.7 2.56.87 3.88z"/></svg>