<svg xmlns="http://www.w3.org/2000/svg" xmlns:xlink="http://www.w3.org/1999/xlink" width="128" height="128" viewBox="0 0 128 128"><defs><path id="a" d="M64 9.98C2.07 9.98.6 79.41.6 93.16c0 13.73 28.38 24.87 63.4 24.87 35.02 0 63.39-11.14 63.39-24.87 0-13.75-1.46-83.18-63.39-83.18z"/></defs><use xlink:href="#a" overflow="visible" fill="#FCC21B"/><path fill="#2F2F2F" d="M26.73 37.92c.13-.31 3.41-7.61 11.19-7.77h.05c7.81-.14 11.34 7.07 11.5 7.39.66 1.38.1 3.05-1.27 3.72-.36.19-.76.28-1.14.29a2.74 2.74 0 0 1-2.52-1.56c-.11-.2-2.21-4.33-6.47-4.24h-.02c-4.27.09-6.23 4.29-6.3 4.46-.64 1.4-2.27 2.02-3.65 1.39a2.821 2.821 0 0 1-1.37-3.68z"/><path fill="#ED6C30" d="M73.15 78.76c-8.87 5.68-21.92 5.45-31.46 2.15-5.08-1.82-12.39-6.74-15.49-14.49-1.35-3.36-1.56-8.99-.23-12.24 1.04-2.59 3.47-3.63 5.92-3.81 3.76-.27 8.34 3.17 12.09 4.45 7.07 2.43 13.82 2.37 22.04 1.38 5.28-.9 10.66-2.65 15.21.01 2.71 1.63 3.27 5.13 2.9 8.13-.56 4.49-4.19 10.07-10.98 14.42z"/><path fill="#2F2F2F" d="M85.96 50.06c-.1.01-.2.01-.31.02-1.37.03-2.59-1-2.78-2.44-.03-.2-.85-5.56-5.62-7.06-4.87-1.51-8.63 2.59-8.67 2.63a2.726 2.726 0 0 1-3.89.19c-1.11-1.04-1.2-2.81-.17-3.94.26-.29 6.18-6.77 14.36-4.22 8.19 2.57 9.41 11.32 9.46 11.7.19 1.51-.88 2.92-2.38 3.12z"/><g><path fill="#FFF" d="M111.96 67.82c-.44 1.89-1.37 4.52-3.35 5.44-1.96.91-4.18.38-5.77-.96-1.97-1.64-2.42-3.92-2.59-6.33-.12-1.42-.09-2.81.01-3.93.27-2.91-.32-5.77-.12-8.61.06-.83.4-1.88 1.37-1.64.8.19 1.87 1.01 2.54 1.47 4.46 3.14 9.28 8.76 7.91 14.56z"/></g></svg>