<svg xmlns="http://www.w3.org/2000/svg" width="128" height="128" viewBox="0 0 128 128"><path fill="#FBB817" d="M127.128 94.295c0 13.805-28.169 25.002-62.961 25.002-34.782 0-62.98-11.197-62.98-25.002 0-13.818 1.465-83.605 62.98-83.605 61.506 0 62.961 69.787 62.961 83.605"/><g fill="#2F2F2F"><path d="M48.546 58.424c0 5.385-3.606 9.751-8.068 9.751s-8.086-4.367-8.086-9.751c0-5.394 3.625-9.761 8.086-9.761s8.068 4.367 8.068 9.761M80.065 58.424c0 5.385 3.605 9.751 8.077 9.751 4.461 0 8.086-4.367 8.086-9.751 0-5.394-3.625-9.761-8.086-9.761-4.472 0-8.077 4.367-8.077 9.761"/></g><path fill="#E75625" d="M36.357 76.472c-.979.999-1.168 2.754-.866 4.036 2.312 9.868 14.718 16.156 29.913 16.156 16.439 0 25.806-7.052 27.401-16.159.202-1.158-.052-2.512-1.325-3.56-3.513-2.89-10.753.611-25.537.611-15.354.001-25.629-5.118-29.586-1.084z"/></svg>