<svg xmlns="http://www.w3.org/2000/svg" xmlns:xlink="http://www.w3.org/1999/xlink" width="128" height="128" viewBox="0 0 128 128"><path fill="#FCC21B" d="M121.35 95.94c0 12.57-25.67 22.77-57.35 22.77S6.64 108.51 6.64 95.94c0-12.58 25.68-22.78 57.36-22.78 31.68-.01 57.35 10.2 57.35 22.78"/><path fill="#FCC21B" d="M121.7 42.28C112.75 23.08 88.9 9.29 64 9.29c-24.9 0-48.75 13.79-57.7 32.99-13.6 29.15.8 56.49.8 56.49s25.23 19.94 56.9 19.94c31.68 0 56.9-19.94 56.9-19.94s14.4-27.34.8-56.49"/><path fill="#2F2F2F" d="M32.21 44.66c-.42 0-.85-.1-1.23-.33a2.485 2.485 0 0 1-.91-3.39c.16-.26 3.88-6.53 12.15-6.53s12 6.26 12.15 6.53c.68 1.18.29 2.7-.89 3.39-1.17.68-2.68.29-3.38-.89-.14-.22-2.56-4.07-7.87-4.07-5.44 0-7.85 4.02-7.86 4.06-.47.79-1.3 1.23-2.16 1.23zM95.75 44.66c-.86 0-1.69-.44-2.15-1.23-.08-.15-2.51-4.06-7.86-4.06-5.35 0-7.77 3.91-7.87 4.08a2.494 2.494 0 0 1-3.39.86c-1.16-.69-1.57-2.2-.89-3.37.16-.26 3.89-6.53 12.15-6.53 8.27 0 11.99 6.27 12.15 6.53.69 1.18.28 2.7-.9 3.38-.38.23-.81.34-1.24.34z"/><defs><path id="a" d="M19.17 53.92s5.01 29.66 45.69 29.66 45.72-29.66 45.72-29.66-13.89 2.23-45.69 2.23c-31.81 0-45.72-2.23-45.72-2.23"/></defs><use xlink:href="#a" overflow="visible" fill="#FFF"/><clipPath id="b"><use xlink:href="#a" overflow="visible"/></clipPath><g clip-path="url(#b)"><path fill="#2F2F2F" d="M32.02 95.51c-1.23 0-2.24-1.04-2.24-2.33V50.44c0-1.28 1-2.32 2.24-2.32 1.23 0 2.22 1.04 2.22 2.32v42.74c.01 1.28-.99 2.33-2.22 2.33z"/></g><g clip-path="url(#b)"><path fill="#2F2F2F" d="M48.38 95.51c-1.24 0-2.23-1.03-2.23-2.31V50.44c0-1.28.99-2.32 2.23-2.32 1.23 0 2.23 1.04 2.23 2.32V93.2c0 1.27-1 2.31-2.23 2.31z"/></g><g clip-path="url(#b)"><path fill="#2F2F2F" d="M64.74 95.51c-1.23 0-2.23-1.03-2.23-2.31V50.44c0-1.28.99-2.32 2.23-2.32 1.23 0 2.23 1.04 2.23 2.32V93.2c.01 1.27-.99 2.31-2.23 2.31z"/></g><g clip-path="url(#b)"><path fill="#2F2F2F" d="M81.12 95.51c-1.23 0-2.23-1.03-2.23-2.31V50.44c0-1.28 1-2.32 2.23-2.32s2.23 1.04 2.23 2.32V93.2c0 1.27-1.01 2.31-2.23 2.31z"/></g><g clip-path="url(#b)"><path fill="#2F2F2F" d="M97.47 95.51c-1.23 0-2.23-1.03-2.23-2.31V50.44c0-1.28 1-2.32 2.23-2.32 1.24 0 2.24 1.04 2.24 2.32V93.2c0 1.27-1 2.31-2.24 2.31z"/></g><g><path fill="#2F2F2F" d="M64.85 85.99c-42.22 0-48.02-31.35-48.07-31.67-.13-.77.12-1.55.66-2.1.55-.55 1.33-.81 2.1-.69.14.02 14.17 2.2 45.34 2.2s45.17-2.18 45.31-2.2c.77-.12 1.55.13 2.1.69.55.55.79 1.33.66 2.1-.05.32-5.86 31.67-48.1 31.67zM22.46 56.77c2.6 7.34 11.91 24.4 42.4 24.4 30.17 0 39.69-17.07 42.39-24.39-6.04.66-19.6 1.79-42.36 1.79-22.83-.01-36.42-1.14-42.43-1.8z"/></g></svg>