<svg xmlns="http://www.w3.org/2000/svg" xmlns:xlink="http://www.w3.org/1999/xlink" width="128" height="128" viewBox="0 0 128 128"><path fill="#FCC21B" d="M112.73 37.63h-.02C102.64 23.89 83.68 14.56 64 14.56c-19.69 0-38.64 9.33-48.71 23.07 0 0-14.99 12.21-14.99 31.25C.3 88.39 13 97.66 13 97.66s.02.01.06.01c5.52 9.04 26.21 15.77 50.94 15.77 24.74 0 45.43-6.73 50.95-15.77.02 0 .06-.01.06-.01s12.69-9.27 12.69-28.78c0-19.04-14.97-31.25-14.97-31.25z"/><defs><path id="a" d="M22.94 53.34s-.21 27.63 41.8 27.63c42.02 0 41.85-27.63 41.85-27.63s-12.73 3.58-41.82 3.58c-29.1 0-41.83-3.58-41.83-3.58"/></defs><use xlink:href="#a" overflow="visible" fill="#FFF"/><clipPath id="b"><use xlink:href="#a" overflow="visible"/></clipPath><path clip-path="url(#b)" fill="#2F2F2F" d="M34.7 93.17c-1.07 0-1.96-.89-1.96-2V50c0-1.11.88-2.01 1.96-2.01s1.94.9 1.94 2.01v41.17c0 1.11-.86 2-1.94 2zM49.68 93.18c-1.08 0-1.95-.9-1.95-2.01V50c0-1.11.88-2.01 1.95-2.01 1.08 0 1.94.9 1.94 2.01v41.18c0 1.1-.87 2-1.94 2zM64.65 93.18c-1.07 0-1.95-.9-1.95-2.01V50c0-1.11.88-2.01 1.95-2.01 1.08 0 1.95.9 1.95 2.01v41.18c0 1.1-.87 2-1.95 2zM79.62 93.18c-1.08 0-1.94-.9-1.94-2.01V50c0-1.11.86-2.01 1.94-2.01s1.95.9 1.95 2.01v41.18c0 1.1-.87 2-1.95 2zM94.59 93.18c-1.08 0-1.95-.9-1.95-2.01V50c0-1.11.87-2.01 1.95-2.01s1.94.9 1.94 2.01v41.18c0 1.1-.87 2-1.94 2z"/><path fill="#2F2F2F" d="M41.83 47.52c-4.58-1.45-5.19-6.82-2.89-10.52 1.82-2.6 4.7-3.84 7.08-3.44 2.51.46 4.83 2.73 4.79 6-.01 4.86-3.89 9.48-8.98 7.96zM87.5 47.52c4.59-1.45 5.19-6.82 2.88-10.52-1.81-2.6-4.7-3.84-7.08-3.44-2.51.46-4.82 2.73-4.8 6 .03 4.86 3.91 9.48 9 7.96zM64.74 83.14c-16.06 0-28.09-3.92-35.76-11.65-8.19-8.25-8.21-17.76-8.2-18.17 0-.67.33-1.31.86-1.71.54-.4 1.25-.53 1.89-.36.13.03 12.88 3.5 41.25 3.5 28.35 0 41.11-3.46 41.23-3.5.64-.18 1.35-.05 1.89.36.54.41.85 1.04.86 1.72 0 .4-.03 9.91-8.23 18.16-7.68 7.73-19.73 11.65-35.79 11.65zM25.42 56.12c1.25 6.62 7.55 22.68 39.32 22.68 31.78 0 38.11-16.05 39.37-22.68-5.37 1.06-17.95 2.96-39.34 2.96-21.4 0-33.98-1.89-39.35-2.96z"/></svg>