<svg xmlns="http://www.w3.org/2000/svg" width="128" height="128" viewBox="0 0 128 128"><path fill="#FCC21B" d="M127.51 93.55c0 13.93-28.43 25.22-63.51 25.22S.48 107.48.48 93.55C.49 79.62 1.96 9.23 64 9.23s63.51 70.39 63.51 84.32"/><path fill="#2F2F2F" d="M62.78 105.52c-3.34 0-6.53-.27-9.43-.67a2.476 2.476 0 0 1-2.12-2.8c.19-1.35 1.47-2.3 2.8-2.12 10.71 1.49 25.68 1.04 36.23-9.51a2.48 2.48 0 0 1 3.51 0c.98.97.98 2.54 0 3.51-9.04 9.05-20.72 11.59-30.99 11.59z"/><g><path fill="#2F2F2F" d="M3.36 45.68L58.4 58.89h10.9l57.44-13.09s-.57 35.09-30.61 37.72c-23.19 2.02-26.42-13.78-27.24-15.87l-10.61-.41S54.91 85.6 29.91 83.65C4.87 81.69 3.36 45.68 3.36 45.68z"/></g><g fill="#FFF"><path d="M12.45 53.96A1.236 1.236 0 0 0 11 55.41c3.02 15.02 12.36 19.04 12.76 19.2a1.251 1.251 0 0 0 1.55-.54l7.96-14.36c.19-.34.2-.76.04-1.11-.17-.35-.49-.61-.88-.69l-19.98-3.95zM89.09 60.54c-.3-.37-.78-.52-1.24-.41l-12.43 3.01c-.59.14-.98.69-.93 1.29.02.31.69 7.68 7.17 11.04.18.09.37.14.57.14.14 0 .27-.02.4-.07.32-.11.58-.35.71-.65l5.92-13.06c.2-.43.13-.94-.17-1.29z"/></g></svg>