<svg xmlns="http://www.w3.org/2000/svg" xmlns:xlink="http://www.w3.org/1999/xlink" width="128" height="128" viewBox="0 0 128 128"><defs><path id="a" d="M64 9.81C1.88 9.81.41 79.45.41 93.24c0 13.77 28.47 24.94 63.59 24.94 35.13 0 63.59-11.17 63.59-24.94 0-13.79-1.47-83.43-63.59-83.43z"/></defs><use xlink:href="#a" overflow="visible" fill="#FCC21B"/><clipPath id="b"><use xlink:href="#a" overflow="visible"/></clipPath><g clip-path="url(#b)"><path fill="#FCC21B" d="M21.72 63.5C12.63 66.76 2.6 62.16-.7 53.19-3.99 44.23.67 34.3 9.76 31.02c9.06-3.26 19.11 1.36 22.43 10.33 3.28 8.97-1.4 18.89-10.47 22.15z"/><path fill="#FCC01C" d="M21.48 62.84c-8.72 3.13-18.34-1.28-21.51-9.89-3.16-8.6 1.31-18.12 10.03-21.27 8.69-3.13 18.34 1.3 21.52 9.9 3.15 8.61-1.34 18.13-10.04 21.26z"/><path fill="#FCBE1C" d="M21.23 62.18c-8.35 3-17.56-1.23-20.6-9.47-3.02-8.23 1.26-17.35 9.61-20.36 8.32-2.99 17.56 1.25 20.6 9.48 3.02 8.24-1.27 17.36-9.61 20.35z"/><path fill="#FBBB1D" d="M20.99 61.52c-7.98 2.87-16.78-1.18-19.69-9.05-2.89-7.87 1.21-16.58 9.19-19.46 7.95-2.86 16.79 1.19 19.69 9.06 2.9 7.87-1.23 16.59-9.19 19.45z"/><path fill="#FBB91E" d="M20.75 60.86c-7.61 2.73-16-1.12-18.77-8.63-2.75-7.5 1.15-15.81 8.76-18.56 7.59-2.73 16.02 1.13 18.78 8.64 2.75 7.5-1.18 15.82-8.77 18.55z"/><path fill="#FBB71E" d="M20.5 60.19c-7.24 2.6-15.23-1.07-17.86-8.21-2.62-7.14 1.1-15.04 8.33-17.65 7.22-2.6 15.24 1.08 17.86 8.22 2.64 7.14-1.1 15.05-8.33 17.64z"/><path fill="#FBB51F" d="M20.26 59.53C13.39 62 5.81 58.52 3.31 51.74c-2.49-6.77 1.04-14.27 7.91-16.75 6.85-2.46 14.46 1.02 16.95 7.8 2.5 6.78-1.05 14.28-7.91 16.74z"/><path fill="#FAB220" d="M20.02 58.87c-6.5 2.33-13.67-.96-16.03-7.37-2.36-6.41.98-13.5 7.47-15.85 6.48-2.33 13.68.97 16.04 7.38 2.36 6.41-1 13.51-7.48 15.84z"/><path fill="#FAB020" d="M19.77 58.21c-6.13 2.2-12.89-.9-15.12-6.95-2.22-6.04.93-12.73 7.06-14.95 6.11-2.2 12.9.91 15.13 6.96 2.22 6.05-.95 12.74-7.07 14.94z"/><path fill="#FAAE21" d="M19.53 57.55c-5.76 2.07-12.11-.85-14.21-6.53-2.08-5.68.87-11.97 6.63-14.04 5.74-2.06 12.12.86 14.21 6.54 2.09 5.67-.88 11.97-6.63 14.03z"/><path fill="#FAAC22" d="M19.29 56.89c-5.39 1.93-11.34-.8-13.3-6.11-1.95-5.31.82-11.2 6.21-13.14 5.37-1.93 11.34.8 13.3 6.12 1.95 5.31-.83 11.2-6.21 13.13z"/><path fill="#F9A922" d="M19.04 56.23c-5.02 1.8-10.56-.74-12.38-5.69-1.81-4.95.76-10.43 5.78-12.24 5-1.8 10.56.75 12.39 5.7 1.82 4.94-.78 10.43-5.79 12.23z"/><path fill="#F9A723" d="M18.8 55.57c-4.65 1.67-9.78-.69-11.47-5.27-1.68-4.58.71-9.66 5.35-11.34 4.64-1.67 9.78.69 11.47 5.28 1.69 4.58-.71 9.66-5.35 11.33z"/><path fill="#F9A524" d="M18.56 54.91c-4.28 1.53-9-.63-10.56-4.85-1.55-4.22.65-8.89 4.93-10.43 4.27-1.53 9 .64 10.56 4.86 1.55 4.21-.66 8.88-4.93 10.42z"/><path fill="#F9A324" d="M18.31 54.25c-3.91 1.4-8.22-.58-9.65-4.44-1.41-3.85.59-8.12 4.5-9.53 3.9-1.4 8.23.58 9.65 4.44 1.43 3.85-.6 8.12-4.5 9.53z"/><path fill="#F8A025" d="M18.07 53.58c-3.54 1.27-7.44-.52-8.73-4.01-1.28-3.49.54-7.35 4.08-8.63 3.53-1.27 7.45.53 8.74 4.02 1.27 3.49-.56 7.35-4.09 8.62z"/><path fill="#F89E26" d="M17.83 52.92c-3.17 1.14-6.67-.47-7.82-3.6-1.14-3.12.48-6.58 3.65-7.73 3.16-1.14 6.67.47 7.82 3.6 1.15 3.13-.49 6.6-3.65 7.73z"/><path fill="#F89C26" d="M17.58 52.26c-2.8 1-5.89-.42-6.91-3.18-1.01-2.76.43-5.82 3.23-6.82 2.79-1 5.89.42 6.91 3.18 1.02 2.76-.43 5.82-3.23 6.82z"/><path fill="#F89A27" d="M17.34 51.6c-2.43.87-5.11-.36-6-2.76-.87-2.39.37-5.05 2.8-5.92 2.42-.87 5.11.36 6 2.76.88 2.39-.38 5.05-2.8 5.92z"/><path fill="#F79728" d="M17.1 50.94c-2.06.74-4.34-.31-5.08-2.34-.74-2.03.32-4.28 2.37-5.02 2.05-.74 4.33.31 5.08 2.34s-.32 4.28-2.37 5.02z"/><path fill="#F79528" d="M16.85 50.28c-1.69.6-3.56-.25-4.17-1.92-.61-1.66.26-3.51 1.95-4.12 1.69-.6 3.55.25 4.17 1.92.62 1.67-.26 3.51-1.95 4.12z"/><path fill="#F79329" d="M16.61 49.62c-1.32.47-2.78-.2-3.26-1.5a2.51 2.51 0 0 1 1.52-3.21c1.32-.47 2.76.2 3.26 1.5.47 1.29-.2 2.73-1.52 3.21z"/></g><g clip-path="url(#b)"><path fill="#FCC21B" d="M100.93 75.09c-9.09 3.26-19.12-1.34-22.42-10.31-3.3-8.96 1.37-18.89 10.46-22.17 9.06-3.26 19.11 1.36 22.42 10.32 3.29 8.98-1.4 18.91-10.46 22.16z"/><path fill="#FCC01C" d="M100.69 74.43c-8.72 3.13-18.34-1.29-21.51-9.89-3.16-8.6 1.32-18.12 10.04-21.26 8.69-3.13 18.33 1.3 21.51 9.9 3.15 8.61-1.35 18.13-10.04 21.25z"/><path fill="#FCBE1C" d="M100.44 73.77c-8.35 3-17.56-1.23-20.6-9.47-3.03-8.23 1.26-17.35 9.61-20.36 8.32-3 17.56 1.25 20.6 9.48 3.03 8.24-1.28 17.36-9.61 20.35z"/><path fill="#FBBB1D" d="M100.2 73.11c-7.98 2.87-16.78-1.18-19.68-9.05-2.89-7.87 1.21-16.58 9.18-19.46 7.95-2.86 16.78 1.19 19.68 9.06 2.89 7.88-1.22 16.59-9.18 19.45z"/><path fill="#FBB91E" d="M99.95 72.45c-7.61 2.73-16-1.12-18.77-8.63-2.76-7.5 1.15-15.81 8.76-18.56 7.58-2.73 16 1.14 18.77 8.64 2.76 7.52-1.17 15.82-8.76 18.55z"/><path fill="#FBB71E" d="M99.71 71.79c-7.24 2.6-15.22-1.07-17.86-8.21-2.63-7.14 1.09-15.04 8.33-17.65 7.22-2.6 15.22 1.08 17.86 8.22 2.63 7.14-1.11 15.05-8.33 17.64z"/><path fill="#FBB51F" d="M99.47 71.13c-6.87 2.47-14.45-1.01-16.94-7.79-2.49-6.77 1.04-14.27 7.91-16.75 6.85-2.46 14.44 1.03 16.94 7.8 2.48 6.78-1.06 14.28-7.91 16.74z"/><path fill="#FAB220" d="M99.22 70.47c-6.5 2.33-13.67-.96-16.03-7.37-2.36-6.41.98-13.5 7.48-15.85 6.48-2.33 13.66.97 16.03 7.38 2.36 6.41-.99 13.51-7.48 15.84z"/><path fill="#FAB020" d="M98.98 69.81c-6.13 2.2-12.89-.91-15.12-6.95-2.22-6.04.93-12.73 7.05-14.95 6.11-2.2 12.89.92 15.12 6.96 2.22 6.05-.94 12.74-7.05 14.94z"/><path fill="#FAAE21" d="M98.74 69.14c-5.76 2.07-12.11-.85-14.21-6.53-2.09-5.68.87-11.97 6.63-14.04 5.74-2.07 12.11.86 14.21 6.54 2.08 5.68-.89 11.97-6.63 14.03z"/><path fill="#FAAC22" d="M98.49 68.48c-5.39 1.93-11.33-.8-13.29-6.11-1.96-5.31.81-11.2 6.2-13.14 5.37-1.93 11.33.81 13.29 6.12 1.96 5.32-.82 11.2-6.2 13.13z"/><path fill="#F9A922" d="M98.25 67.82c-5.02 1.8-10.55-.74-12.38-5.69-1.82-4.95.76-10.43 5.77-12.24 5-1.8 10.55.75 12.38 5.7 1.82 4.95-.76 10.43-5.77 12.23z"/><path fill="#F9A723" d="M98.01 67.16c-4.65 1.67-9.78-.69-11.47-5.27-1.69-4.58.7-9.66 5.35-11.34 4.63-1.67 9.77.7 11.46 5.28 1.69 4.59-.71 9.67-5.34 11.33z"/><path fill="#F9A524" d="M97.76 66.5c-4.28 1.53-9-.63-10.55-4.85-1.55-4.22.65-8.89 4.92-10.43 4.27-1.53 9 .64 10.55 4.86 1.56 4.21-.65 8.89-4.92 10.42z"/><path fill="#F9A324" d="M97.52 65.84c-3.91 1.4-8.22-.58-9.64-4.43-1.42-3.85.59-8.12 4.5-9.53 3.9-1.4 8.22.58 9.64 4.44 1.41 3.85-.6 8.12-4.5 9.52z"/><path fill="#F8A025" d="M97.28 65.18c-3.54 1.27-7.44-.52-8.73-4.01-1.29-3.49.54-7.35 4.07-8.63 3.53-1.27 7.44.53 8.73 4.02 1.28 3.49-.54 7.35-4.07 8.62z"/><path fill="#F89E26" d="M97.03 64.52c-3.17 1.14-6.66-.47-7.81-3.59-1.15-3.12.48-6.58 3.64-7.73 3.16-1.14 6.66.47 7.81 3.6 1.16 3.12-.48 6.58-3.64 7.72z"/><path fill="#F89C26" d="M96.79 63.86c-2.8 1-5.88-.42-6.9-3.18-1.02-2.76.42-5.81 3.22-6.82 2.79-1 5.88.42 6.9 3.18 1.01 2.76-.43 5.81-3.22 6.82z"/><path fill="#F89A27" d="M96.55 63.2c-2.43.87-5.11-.36-5.99-2.76-.88-2.39.37-5.05 2.79-5.92 2.42-.87 5.1.36 5.99 2.76.88 2.39-.37 5.04-2.79 5.92z"/><path fill="#F79728" d="M96.3 62.53c-2.06.74-4.33-.31-5.07-2.34-.75-2.03.31-4.28 2.37-5.02 2.05-.74 4.33.31 5.07 2.34.75 2.04-.31 4.28-2.37 5.02z"/><path fill="#F79528" d="M96.06 61.87c-1.69.6-3.55-.25-4.16-1.92-.62-1.66.26-3.51 1.94-4.12 1.68-.6 3.55.25 4.16 1.92.61 1.67-.26 3.52-1.94 4.12z"/><path fill="#F79329" d="M95.82 61.21c-1.32.47-2.77-.2-3.25-1.5s.2-2.74 1.51-3.21c1.31-.47 2.77.2 3.25 1.5s-.2 2.74-1.51 3.21z"/></g><path fill="#2F2F2F" d="M26.6 37.84c.14-.31 3.43-7.63 11.23-7.8h.05c7.84-.14 11.38 7.1 11.53 7.41.66 1.38.09 3.06-1.27 3.74-.37.19-.77.28-1.15.29-1.03.02-2.04-.56-2.53-1.57-.11-.2-2.22-4.35-6.48-4.26h-.02c-4.28.09-6.24 4.3-6.31 4.48-.64 1.4-2.27 2.02-3.66 1.4-1.37-.65-2-2.28-1.39-3.69z"/><path fill="#ED6C30" d="M73.18 80.85c-8.91 6.22-21.98 5.97-31.56 2.35-5.1-2-12.43-7.38-15.54-15.87-1.35-3.68-1.57-9.85-.23-13.41 1.05-2.84 3.48-3.98 5.93-4.18 3.79-.3 8.38 3.48 12.13 4.88 7.09 2.67 13.86 2.6 22.11 1.51 5.29-.99 10.7-2.9 15.26.01 2.72 1.79 3.28 5.62 2.91 8.91-.56 4.92-4.21 11.04-11.01 15.8z"/><path fill="#2F2F2F" d="M86.03 50.01c-.1.01-.21.01-.31.02-1.38.03-2.59-1-2.78-2.44-.03-.2-.85-5.58-5.64-7.09-4.89-1.51-8.66 2.6-8.7 2.64a2.73 2.73 0 0 1-3.9.19 2.825 2.825 0 0 1-.18-3.95c.26-.29 6.2-6.79 14.4-4.23 8.22 2.58 9.45 11.35 9.49 11.73.19 1.52-.88 2.93-2.38 3.13z"/></svg>