<svg xmlns="http://www.w3.org/2000/svg" width="128" height="128" viewBox="0 0 128 128"><path fill="#FCC21B" d="M127.77 93.67c0 13.98-28.54 25.32-63.76 25.32C28.8 118.99.24 107.66.24 93.67.23 79.68 1.71 9.02 64 9.02c62.3 0 63.77 70.66 63.77 84.65"/><g fill="#2F2F2F"><path d="M24.65 71.41a2.561 2.561 0 0 1-2.21-3.84c.2-.34 4.99-8.38 15.65-8.38 10.65 0 15.44 8.04 15.64 8.38.71 1.22.3 2.79-.93 3.49-1.21.7-2.77.29-3.48-.92-.17-.27-3.62-5.85-11.23-5.85-7.75 0-11.19 5.78-11.22 5.84-.48.82-1.34 1.28-2.22 1.28z"/><path d="M52.2 67.73c1.05 1.24 1.07 2.38-.61 3.82-1.26 1.09-2.86 1.74-4.53 1.74a6.81 6.81 0 0 1-6.2-9.65c.19-.44.44-.88.73-1.25.31-.37.67-.28 1.15-.23.3.03.52.11.82.2 1.93.61 3.76 1.71 5.49 2.74.81.49 1.54 1.1 2.24 1.71.37.32.67.62.91.92M102.64 71.41c-.88 0-1.73-.46-2.21-1.27-.16-.27-3.61-5.85-11.23-5.85-7.65 0-11.1 5.61-11.24 5.85-.72 1.2-2.29 1.6-3.5.9a2.546 2.546 0 0 1-.91-3.48c.2-.34 4.99-8.38 15.65-8.38 10.65 0 15.44 8.04 15.64 8.38.7 1.22.29 2.79-.93 3.49-.39.25-.84.36-1.27.36z"/><path d="M103.32 67.73c1.06 1.24 1.08 2.38-.61 3.82-1.26 1.09-2.86 1.74-4.54 1.74a6.8 6.8 0 0 1-6.81-6.82c0-.96.2-1.94.61-2.83.2-.44.44-.88.74-1.25s.66-.28 1.14-.23c.3.03.53.11.82.2 1.93.61 3.76 1.71 5.5 2.74.8.49 1.53 1.1 2.23 1.71.36.32.67.62.92.92M60.16 99.7c-3.43 0-6.71-.27-9.68-.69a2.551 2.551 0 0 1-2.18-2.88c.19-1.39 1.51-2.37 2.88-2.18 11.01 1.53 26.39 1.06 37.23-9.77.99-1 2.61-1 3.61 0s1 2.61 0 3.61C82.71 97.09 70.7 99.7 60.16 99.7z"/></g></svg>