<svg xmlns="http://www.w3.org/2000/svg" xmlns:xlink="http://www.w3.org/1999/xlink" width="128" height="128" viewBox="0 0 128 128"><path fill="#FCC21B" d="M122.66 42.91C113.55 24.26 89.9 10.87 64 10.87c-25.89 0-49.55 13.39-58.66 32.03-13.83 28.31 4.15 54.86 4.15 54.86l.05.03C12.95 108.68 36 117.12 64 117.12c27.99 0 51.04-8.43 54.46-19.32.01 0 .04-.04.04-.04s17.98-26.55 4.16-54.85z"/><path fill="#2F2F2F" d="M32.13 46.42c-.44 0-.89-.11-1.3-.35a2.63 2.63 0 0 1-.96-3.58c.17-.28 4.11-6.89 12.83-6.89 8.73 0 12.67 6.61 12.83 6.89.72 1.25.3 2.85-.95 3.58-1.23.72-2.83.31-3.57-.94-.15-.23-2.7-4.3-8.32-4.3-5.74 0-8.27 4.24-8.3 4.29-.48.83-1.36 1.3-2.26 1.3zM96.15 46.42c-.91 0-1.78-.46-2.27-1.3-.09-.16-2.65-4.28-8.3-4.28s-8.21 4.12-8.31 4.3c-.74 1.22-2.35 1.64-3.58.91-1.23-.73-1.66-2.32-.94-3.56.17-.28 4.11-6.89 12.83-6.89 8.73 0 12.67 6.62 12.83 6.9.72 1.24.3 2.85-.95 3.57-.41.24-.86.35-1.31.35z"/><defs><path id="a" d="M25.59 60.23s3.56 27.34 39.29 27.34c35.77 0 39.35-27.34 39.35-27.34S92.27 62.4 64.91 62.4s-39.32-2.17-39.32-2.17"/></defs><use xlink:href="#a" overflow="visible" fill="#FFF"/><clipPath id="b"><use xlink:href="#a" overflow="visible"/></clipPath><g clip-path="url(#b)"><path fill="#2F2F2F" d="M36.65 101.05c-1.17 0-2.12-1.12-2.12-2.5V56.84c0-1.38.96-2.49 2.12-2.49 1.18 0 2.12 1.12 2.12 2.49v41.72c0 1.38-.94 2.49-2.12 2.49z"/></g><g clip-path="url(#b)"><path fill="#2F2F2F" d="M50.72 101.05c-1.16 0-2.12-1.12-2.12-2.5V56.84c0-1.38.96-2.49 2.12-2.49 1.18 0 2.12 1.12 2.12 2.49v41.72c.01 1.38-.94 2.49-2.12 2.49z"/></g><g clip-path="url(#b)"><path fill="#2F2F2F" d="M64.81 101.05c-1.18 0-2.12-1.12-2.12-2.5V56.84c0-1.38.94-2.49 2.12-2.49 1.18 0 2.12 1.12 2.12 2.49v41.72c0 1.38-.94 2.49-2.12 2.49z"/></g><g clip-path="url(#b)"><path fill="#2F2F2F" d="M78.87 101.05c-1.17 0-2.13-1.12-2.13-2.5V56.84c0-1.38.96-2.49 2.13-2.49 1.18 0 2.13 1.12 2.13 2.49v41.72c0 1.38-.95 2.49-2.13 2.49z"/></g><g clip-path="url(#b)"><path fill="#2F2F2F" d="M92.96 101.05c-1.18 0-2.12-1.12-2.12-2.5V56.84c0-1.38.94-2.49 2.12-2.49 1.18 0 2.11 1.12 2.11 2.49v41.72c.01 1.38-.93 2.49-2.11 2.49z"/></g><g><path fill="#FFF" d="M106.89 54.53c1.37 1.81 3.06 3.17 5.35 2.55 3.26-.87 3.5-4.8 1.81-7.2-1.4-1.97-3.54-3.21-5.89-3.71-1.44-.29-3.24-.66-4.69-.36-.61.12-1.55.23-1.94.75-.57.75.66 1.71 1.13 2.17.36.34.77.68 1.07 1.06.96 1.21 1.94 3.15 3.16 4.74M113.66 72.43c.08 2.15.78 4.88 2.66 6.16 2.48 1.7 5.89.06 7.05-2.53 1.55-3.51.62-7.36-1.64-10.31-1.24-1.6-2.82-3.3-4.45-4.52-.56-.42-1.49-1.17-2.17-1.37-.86-.23-1.18.7-1.25 1.43-.26 2.53.2 5.08-.1 7.66-.11 1-.18 2.22-.1 3.48"/></g><g><path fill="#FFF" d="M21.12 54.53c-1.37 1.81-3.06 3.17-5.35 2.55-3.26-.87-3.5-4.8-1.81-7.2 1.4-1.97 3.54-3.21 5.89-3.71 1.44-.29 3.24-.66 4.69-.36.61.12 1.54.23 1.95.75.57.75-.66 1.71-1.13 2.17-.36.34-.76.68-1.07 1.06-.98 1.21-1.95 3.15-3.17 4.74M14.34 72.43c-.08 2.15-.78 4.88-2.66 6.16-2.47 1.7-5.89.06-7.05-2.53-1.56-3.51-.62-7.36 1.64-10.31 1.24-1.6 2.82-3.3 4.45-4.52.55-.42 1.49-1.17 2.17-1.37.86-.23 1.18.7 1.25 1.43.25 2.53-.2 5.08.09 7.66.13 1 .19 2.22.11 3.48"/></g><g><path fill="#2F2F2F" d="M64.88 89.91c-37.36 0-41.58-29.08-41.62-29.38A2.345 2.345 0 0 1 26 57.92c.12.02 12.15 2.13 38.91 2.13 26.75 0 38.78-2.11 38.9-2.13a2.345 2.345 0 0 1 2.74 2.61c-.03.3-4.27 29.38-41.67 29.38zM28.65 63.04c2.11 6.78 9.82 22.19 36.23 22.19 26.16 0 34.04-15.43 36.24-22.19-5.36.65-16.98 1.7-36.21 1.7-19.28 0-30.92-1.05-36.26-1.7z"/></g></svg>