<svg xmlns="http://www.w3.org/2000/svg" width="128" height="128" viewBox="0 0 128 128"><path fill="#FCC21B" d="M127.22 93.42c0 13.86-28.29 25.1-63.22 25.1-34.92 0-63.23-11.24-63.23-25.1C.77 79.55 2.24 9.48 64 9.48c61.77 0 63.22 70.06 63.22 83.94"/><g fill="#2F2F2F"><path d="M48.32 57.41c0 5.41-3.62 9.79-8.1 9.79-4.48 0-8.12-4.38-8.12-9.79 0-5.42 3.64-9.8 8.12-9.8 4.48 0 8.1 4.38 8.1 9.8M66.77 93.4c-.72 0-1.47-.03-2.22-.06-17.82-1.07-24.59-10.73-24.87-11.15-1-1.46-.61-3.44.84-4.43 1.45-.98 3.42-.61 4.41.83.25.36 5.55 7.52 20 8.37 14.4.83 20.68-8.58 20.75-8.67.94-1.48 2.93-1.9 4.4-.94 1.47.96 1.9 2.93.94 4.4-.31.5-7.71 11.65-24.25 11.65z"/></g><path fill="#2F2F2F" d="M99.71 64.36c-.3 1.2-1.37 1.99-2.56 1.99-.21 0-.43-.02-.63-.08-8.32-2.06-18.78-.11-18.87-.09-1.19.23-2.34-.37-2.87-1.44-.53-1.07-.25-2.36.64-3.14 7.93-6.9 20.12-10.95 20.62-11.11 1.4-.45 2.87.3 3.33 1.68.44 1.38-.31 2.87-1.69 3.32-.07.02-5.06 1.67-10.49 4.56 3.29-.1 7.09.24 10.59 1.1 1.42.37 2.28 1.81 1.93 3.21z"/></svg>