<svg xmlns="http://www.w3.org/2000/svg" width="128" height="128" viewBox="0 0 128 128"><path fill="#FCC21B" d="M123.93 76.16c10.52-28.3-2.65-59.13-33.49-65.6C21.13-4.02-3.53 55.18 1.02 95.4c0 13.42 27.72 24.31 61.92 24.31s61.92-10.88 61.92-24.31c0-6.36-5.21-7.69-.93-19.24z"/><path fill="#2F2F2F" d="M62.28 69.69c-8.64-.77-12.02-7.18-12.16-7.45a2.662 2.662 0 0 1 1.16-3.6c1.31-.69 2.91-.17 3.6 1.13.12.21 2.31 4.09 7.86 4.58 5.67.46 8.56-3.08 8.59-3.11.9-1.17 2.58-1.39 3.75-.48 1.17.9 1.4 2.59.49 3.76-.17.23-4.13 5.25-11.73 5.25-.5-.01-1.02-.03-1.56-.08zM100.63 90.19a2.985 2.985 0 0 1-4.17.63c-18.09-13.37-34.79 1.02-35.49 1.65-.57.5-1.28.74-1.98.74-.83 0-1.66-.34-2.23-1-1.1-1.25-.99-3.14.25-4.23.21-.18 21.07-18.18 43-1.97 1.33.98 1.61 2.85.62 4.18zM115.3 68.23c-.16.23-3.84 5.13-10.92 5.13-.47 0-.96-.02-1.46-.07-8.03-.73-11.18-6.99-11.32-7.25-.64-1.32-.16-2.94 1.11-3.62 1.24-.69 2.77-.17 3.43 1.12.1.2 2.12 3.93 7.23 4.4 5.16.47 7.83-2.94 7.88-2.98a2.487 2.487 0 0 1 3.58-.5c1.13.92 1.33 2.6.47 3.77z"/></svg>