<svg xmlns="http://www.w3.org/2000/svg" width="128" height="128" viewBox="0 0 128 128"><path fill="#FCC21B" d="M15.99 32.83C35.23 4.03 67.35-9.12 101.4 8.21c22.78 11.6 30.71 39.11 20.8 71.46-4.07 13.34 6.13 15.6 5.47 22.68-1.29 13.85-28.42 25.21-63.48 25.21-35.06 0-62.55-11.33-63.49-25.21-1.89-27.98 3.03-51.12 15.29-69.52"/><path fill="#2F2F2F" d="M49.57 48.43c-.93.35-1.97.29-2.91.09-2.41-.5-7.15-2.73-9.21-1.51-1.67 1.02-2.49 3.33-2.37 5.19.18 2.86 2.82 3.31 4.6 4.99.46.43.52 1.18.23 1.7-.13.19-.3.35-.52.46-.97.38-2.15-.12-3.11-.32-1.1-.21-2.04-.54-3.08-.04-1.68.83-2.3 2.68-1.88 4.51.54 2.16 4.27 5.68 5.42 7.75.62 1.09 2.8 5.28.49 5.71-2.32.45-6.68-.69-6.72-3.58-.05-3.32-3.82-7.26-4.17-10.29-.38-3.18 1-5.89 3.63-7.67 1.3-.87.53-3.33.68-4.64.2-1.66.94-3.36 1.97-4.67 3.15-4.18 9.6-1.97 14.54-1.91 1.17.01 2.03.28 2.77 1.3.74.95.89 2.47-.36 2.93zM28.48 31.84c.17-.26 4.59-6.51 12.03-5.27l.06.02c7.44 1.27 9.53 8.67 9.62 8.99.39 1.42-.46 2.88-1.87 3.27-.39.11-.77.12-1.15.05-.99-.17-1.84-.89-2.11-1.91-.08-.21-1.34-4.46-5.41-5.15h-.01c-4.09-.68-6.69 2.9-6.8 3.06a2.69 2.69 0 0 1-3.72.64 2.686 2.686 0 0 1-.64-3.7zM87.49 59.32c-.09-.01-.2-.03-.3-.06a2.809 2.809 0 0 1-2.02-3.14c.02-.22.75-5.61-3.49-8.43-4.33-2.87-9.18 0-9.25.03-1.31.81-3.03.38-3.83-.95a2.81 2.81 0 0 1 .94-3.85c.34-.2 7.97-4.72 15.24.08 7.29 4.84 5.99 13.61 5.92 13.98a2.787 2.787 0 0 1-3.21 2.34z"/></svg>