<svg xmlns="http://www.w3.org/2000/svg" width="128" height="128" viewBox="0 0 128 128"><path fill="#FCC21B" d="M64 9.56C1.59 9.56.12 79.52.12 93.36c0 13.86 28.59 25.08 63.88 25.08 35.28 0 63.88-11.22 63.88-25.08 0-13.84-1.48-83.8-63.88-83.8z"/><path fill="#2F2F2F" d="M52.39 52.14c-.69.44-1.56.57-2.37.55-2.05-.01-5.03-.89-6.69.62-1.34 1.24-1.67 3.52-1.2 5.19.69 2.58 3.18 2.51 5.13 3.73.5.3.69.98.52 1.5-.06.21-.2.39-.39.53-.82.52-1.98.28-2.91.28-1.04 0-1.98-.11-2.82.54-1.4 1.07-1.98 3.94-1.24 5.53.88 1.88 3.28 2.67 4.61 4.21.7.82 3.25 3.97 1.37 4.73-1.87.77-5.74.55-6.25-1.87-.6-2.79-3.1-4.88-3.99-7.59-.94-2.84-.19-5.57 1.91-7.69 1.02-1.04-.14-3.15-.25-4.38-.13-1.55.23-3.25.94-4.65 2.11-4.41 6.94-3.51 10.99-4.29.95-.18 1.7-.1 2.48.61.72.65 1.1 1.87.16 2.45z"/><g fill="#2F2F2F"><path d="M31.19 36.07c2.31-4.6 7.31-6.8 11.15-4.92 3.83 1.89 5.09 7.14 2.78 11.74-2.3 4.6-7.29 6.79-11.14 4.9-3.82-1.88-5.09-7.14-2.79-11.72zM85.03 48.18c-1.1 5.14-5.49 8.6-9.8 7.7-4.33-.9-6.94-5.8-5.85-10.96 1.1-5.16 5.49-8.61 9.81-7.7 4.31.89 6.93 5.79 5.84 10.96z"/></g></svg>