<svg xmlns="http://www.w3.org/2000/svg" width="128" height="128" viewBox="0 0 128 128"><path fill="#FCC21B" d="M37.48 13.27C8.44 18.62-6.54 44.5 3.97 72.82c4.29 11.56-.93 12.88-.93 19.24 0 13.44 27.74 24.33 61.95 24.33 34.22 0 61.96-10.89 61.96-24.33 4.56-40.23-27.04-90.26-89.47-78.79z"/><path fill="#2F2F2F" d="M19.74 75.95c-1.19 0-2.29-.75-2.69-1.94-.51-1.49.31-3.09 1.8-3.6 9.76-3.23 9.86-10.3 9.85-10.61 0-1.55 1.25-2.83 2.8-2.87h.04c1.55 0 2.8 1.23 2.84 2.76.02.48.13 11.51-13.75 16.11-.31.12-.59.15-.89.15zM73.09 90.85c-2.81-2.6-6.77-4.99-10.48-6.18-1.5-.5-3.37-.64-4.95-.62-2.92.04-5.28 2.1-8.13 2.59-4.15.69-7.29-1.65-11.15-2.38-1.55-.29-2.97-.35-4.37.24-2.72 1.07-3.44 4.38-5.82 5.72-2.83 1.59-7.04-.51-5.92-4.06 1.22-3.85 5.94-6.81 9.85-7.59 5.77-1.16 11.77 4.89 17.06 2.84 3.34-1.31 6.13-3.19 9.86-3.49 1.72-.13 4.24.09 7 .63 6.66 1.37 14.56 4.77 14.88 10.13.28 4.45-5.25 4.58-7.83 2.17zM76.09 68.07c-.31.08-4.04 1.01-8.97.57-5.3-.48-11.96-2.54-17.34-8.9a2.982 2.982 0 0 1 .35-4.18 2.986 2.986 0 0 1 4.19.35c7.93 9.41 19.78 6.56 20.29 6.43 1.58-.41 3.2.57 3.6 2.14.4 1.57-.53 3.17-2.12 3.59z"/></svg>