<svg xmlns="http://www.w3.org/2000/svg" width="128" height="128" viewBox="0 0 128 128"><path fill="#FCC21B" d="M15.88 32.75C35.16 3.87 67.36-9.31 101.49 8.06c22.84 11.63 30.79 39.22 20.86 71.64-4.08 13.38 6.14 15.65 5.48 22.74-1.3 13.89-28.49 25.28-63.65 25.28-35.15 0-62.72-11.36-63.66-25.28-1.88-28.05 3.06-51.24 15.36-69.69"/><g fill="#2F2F2F"><path d="M35.06 28.9c.2-.88.53-1.67.9-2.42 1.7.15 3.55.22 5.63.06 3.06-.2 5.48-1.12 7.46-2.27 1.5 2.1 2.11 5.04 1.42 8.07-1.17 5.08-5.56 8.46-9.82 7.52-4.26-.97-6.76-5.88-5.59-10.96zM88.38 40.99c-1.18 5.08-5.58 8.45-9.84 7.5-4.25-.93-6.75-5.83-5.58-10.94.73-3.18 2.7-5.68 5.13-6.87 1.3 1.97 3.14 3.97 5.96 5.54 1.62.89 3.13 1.55 4.58 2.11.01.86-.05 1.75-.25 2.66zM56.85 30.62c-.21 0-.43-.06-.63-.18-.57-.34-.75-1.09-.4-1.66 1.81-3-.81-6.54-.83-6.58a1.2 1.2 0 0 1 .23-1.69c.53-.41 1.28-.3 1.69.23.15.2 3.65 4.87.98 9.29-.23.39-.62.59-1.04.59zM68.77 33.2c-.63 0-1.16-.49-1.2-1.12-.02-.25-.32-6.07 4.35-8.27.6-.28 1.32-.02 1.61.58.28.6.03 1.32-.58 1.6-3.18 1.49-2.97 5.89-2.97 5.93.04.67-.46 1.24-1.13 1.27-.03.01-.05.01-.08.01z"/></g><path fill="#2F2F2F" d="M84.76 82.89c1.52 1.03 3.5.8 4.17-.45.89-1.67-.71-3.7-1.21-4.18-1.18-1.12-2.79-2.69-4.66-4.43-2.5-2.33-5.45-4.97-8.41-7.27-5.1-3.96-14.67-12.29-26.17-14.34-7.47-1.33-11.46-.26-15.39 1.94-4.82 2.69-7.9 7.65-8.48 10.39-.74 3.47.32 4.4 1.46 4.71 1.14.31 2.5-.14 3.18-1.62.21-.46.45-.89.7-1.3 1.89-3.06 5.31-6.81 11.22-7.41 5.96-.61 14.16 1.56 28.55 12.1 2.05 1.38 14.69 11.62 15.04 11.86z"/></svg>