<svg xmlns="http://www.w3.org/2000/svg" width="128" height="128" viewBox="0 0 128 128"><path fill="#FCC21B" d="M125.74 74.99c7.79-29.66-8.73-59.22-38.23-64.63C24.09-1.31-3.8 53.67.83 94.54c0 13.63 28.17 24.69 62.93 24.69 32.58 0 59.37-9.73 62.59-22.17.22-.83.33-1.67.33-2.52.01-6.48-4.12-7.46-.94-19.55z"/><path fill="#2F2F2F" d="M31.07 40.17c2.28-4.54 7.2-6.69 10.99-4.84 3.78 1.86 5.01 7.03 2.74 11.56-2.27 4.53-7.18 6.69-10.97 4.83-3.78-1.86-5.02-7.04-2.76-11.55zM73.26 76.53a2.78 2.78 0 0 0-1.84-2.84c-.25-.09-.51-.15-.78-.17-18.1-1.23-36.02-5.94-36.2-5.99-1.52-.39-3.05.5-3.46 2.01-.38 1.51.49 3.06 2.01 3.46.75.2 18.63 4.89 37.27 6.15 1.56.11 2.89-1.06 3-2.62zM84.1 52.1c-1.09 5.07-5.41 8.47-9.65 7.59-4.27-.89-6.84-5.72-5.77-10.79 1.09-5.08 5.41-8.48 9.67-7.59 4.25.87 6.83 5.69 5.75 10.79z"/></svg>