<svg xmlns="http://www.w3.org/2000/svg" width="128" height="128" viewBox="0 0 128 128"><path fill="#FCC21B" d="M127.67 93.62c0 13.96-28.5 25.28-63.67 25.28S.32 107.58.32 93.62C.33 79.65 1.81 9.1 64.01 9.1c62.19 0 63.66 70.55 63.66 84.52"/><path fill="#2F2F2F" d="M39.17 59.8c-11-.22-20.98.63-21.12.64-1.25.11-2.38-.81-2.49-2.07-.11-1.24.81-2.35 2.08-2.46.82-.07 20.22-1.74 35.33.31 1.25.17 2.13 1.31 1.96 2.55-.01.06-.04.1-.05.15v.21c0 3.78-3.54 6.84-7.89 6.84-4.1 0-7.44-2.7-7.82-6.17z"/><path fill="#ED6C30" d="M84.3 92.5c-.29.89-.94 1.57-1.74 2.02-2.86 1.64-6.27.12-9.11-.78-3.19-.99-6.5-1.83-9.87-1.89-5.03-.09-9.64 2.44-14.65 2.42-2.12 0-4.35.09-5.18-2.26-.4-1.2.2-2.25 1.12-3.04 1.76-1.52 3.9-2.63 6.19-3.48 5.58-2.1 11.66-3.59 17.67-3.27 4.39.22 10.21 1.55 13.75 4.37 1.58 1.24 2.5 3.92 1.82 5.91z"/><path fill="#2F2F2F" d="M112.87 60.08v.21c0 3.78-3.53 6.84-7.89 6.84-4.1 0-7.42-2.72-7.82-6.17-11-.23-20.98.62-21.12.64-1.24.1-2.37-.81-2.49-2.05-.11-1.25.82-2.36 2.09-2.47.82-.07 20.22-1.74 35.32.3 1.26.17 2.14 1.31 1.96 2.56-.01.05-.04.09-.05.14z"/></svg>