<svg xmlns="http://www.w3.org/2000/svg" width="128" height="128" viewBox="0 0 128 128"><path fill="#FCC21B" d="M64 9.9C1.99 9.9.51 79.42.51 93.19c0 13.76 28.43 24.91 63.49 24.91 35.07 0 63.49-11.16 63.49-24.91 0-13.77-1.47-83.29-63.49-83.29z"/><path fill="#2F2F2F" d="M77.51 93.75H49.78c-1.82 0-3.29-1.49-3.29-3.3 0-1.82 1.47-3.29 3.29-3.29h27.73c1.83 0 3.3 1.47 3.3 3.29s-1.47 3.3-3.3 3.3z"/><g><path fill="#2F2F2F" d="M50.54 70H27.07c-1.66 0-3.01-1.35-3.01-3.01 0-1.66 1.35-3.01 3.01-3.01h23.47a3 3 0 0 1 3.01 3.01c0 1.66-1.34 3.01-3.01 3.01z"/></g><path fill="#2F2F2F" d="M98.17 69.94H74.7c-1.66 0-3.01-1.35-3.01-3.01 0-1.66 1.35-3.01 3.01-3.01h23.47c1.67 0 3.01 1.35 3.01 3.01 0 1.66-1.35 3.01-3.01 3.01z"/></svg>