<svg xmlns="http://www.w3.org/2000/svg" width="128" height="128" viewBox="0 0 128 128"><path fill="#FCC21B" d="M64 9.64C1.69 9.64.21 79.5.21 93.33c0 13.83 28.56 25.03 63.79 25.03 35.24 0 63.79-11.21 63.79-25.03 0-13.83-1.47-83.69-63.79-83.69z"/><path fill="#2F2F2F" d="M42.82 71.26c-4.49.07-8.19-4.22-8.27-9.57-.08-5.37 3.5-9.77 7.98-9.84 4.48-.07 8.19 4.22 8.28 9.59.07 5.36-3.5 9.75-7.99 9.82zM88.29 70.27c4.48-.06 8.06-4.46 7.98-9.82-.08-5.37-3.79-9.66-8.27-9.59-4.49.07-8.08 4.46-8 9.83.09 5.37 3.8 9.65 8.29 9.58z"/><path fill="#D7598B" d="M50.21 82.27c3.62 4.57.55 17.83 9.53 22.71 1.67.92 3.91 1.41 6.21 1.42 2.31-.01 4.53-.51 6.22-1.42 8.98-4.88 5.91-18.14 9.53-22.71H50.21z"/><path fill="#2F2F2F" d="M33.63 87.1c-1.21 0-2.3-.82-2.58-2.06-.33-1.42.55-2.84 1.97-3.18.9-.21 22.64-5.14 66.01-1.42 1.47.13 2.54 1.41 2.42 2.87-.12 1.46-1.45 2.54-2.87 2.41-42.4-3.64-64.13 1.25-64.36 1.3-.19.06-.4.08-.59.08z"/></svg>