<svg xmlns="http://www.w3.org/2000/svg" xmlns:xlink="http://www.w3.org/1999/xlink" width="128" height="128" viewBox="0 0 128 128"><defs><path id="a" d="M64 9.81C1.87 9.81.41 79.45.41 93.23c0 13.79 28.47 24.96 63.59 24.96 35.12 0 63.59-11.17 63.59-24.96 0-13.78-1.47-83.42-63.59-83.42z"/></defs><use xlink:href="#a" overflow="visible" fill="#FCC21B"/><clipPath id="b"><use xlink:href="#a" overflow="visible"/></clipPath><g clip-path="url(#b)"><path fill="#FCC21B" d="M38.63 71.53C33.29 82.86 19.75 88.35 8.86 83.19-1.86 78.08-4.98 64.98 1.44 54.47c6.02-9.85 18.42-13.99 28.12-9.67 9.84 4.37 14.06 16.1 9.07 26.73z"/><path fill="#FCC01C" d="M37.98 71.28C32.82 82.23 19.74 87.53 9.22 82.54-1.14 77.61-4.16 64.95 2.04 54.8c5.81-9.52 17.8-13.52 27.17-9.34 9.52 4.22 13.6 15.55 8.77 25.82z"/><path fill="#FCBE1C" d="M37.34 71.03C32.36 81.59 19.73 86.72 9.57 81.9-.42 77.14-3.34 64.92 2.65 55.12c5.61-9.19 17.18-13.05 26.22-9.02 9.19 4.08 13.12 15.02 8.47 24.93z"/><path fill="#FBBB1D" d="M36.69 70.78C31.89 80.96 19.72 85.9 9.93 81.26.29 76.67-2.51 64.89 3.26 55.45c5.41-8.85 16.56-12.58 25.27-8.69 8.85 3.93 12.65 14.47 8.16 24.02z"/><path fill="#FBB91E" d="M36.04 70.53c-4.62 9.8-16.33 14.55-25.76 10.08-9.27-4.42-11.97-15.75-6.42-24.84 5.2-8.52 15.93-12.11 24.32-8.36 8.53 3.78 12.18 13.93 7.86 23.12z"/><path fill="#FBB71E" d="M35.39 70.28c-4.44 9.42-15.7 13.98-24.75 9.69C1.73 75.72-.86 64.83 4.47 56.1c5-8.19 15.31-11.63 23.37-8.04 8.19 3.63 11.7 13.39 7.55 22.22z"/><path fill="#FBB51F" d="M34.75 70.03c-4.26 9.04-15.06 13.42-23.75 9.3-8.55-4.07-11.04-14.52-5.92-22.9 4.8-7.86 14.69-11.16 22.43-7.71 7.85 3.48 11.22 12.83 7.24 21.31z"/><path fill="#FAB220" d="M34.1 69.78c-4.08 8.65-14.42 12.85-22.74 8.9C3.17 74.78.79 64.77 5.69 56.75c4.59-7.52 14.07-10.69 21.48-7.38 7.52 3.33 10.74 12.29 6.93 20.41z"/><path fill="#FAB020" d="M33.45 69.53c-3.9 8.27-13.79 12.28-21.74 8.51-7.82-3.73-10.1-13.29-5.42-20.96 4.39-7.19 13.45-10.22 20.53-7.06 7.19 3.19 10.27 11.75 6.63 19.51z"/><path fill="#FAAE21" d="M32.8 69.28C29.08 77.17 19.65 81 12.07 77.4c-7.46-3.56-9.64-12.68-5.17-20 4.19-6.86 12.83-9.75 19.58-6.73 6.86 3.04 9.8 11.21 6.32 18.61z"/><path fill="#FAAC22" d="M32.15 69.03c-3.54 7.5-12.51 11.14-19.73 7.72-7.1-3.39-9.17-12.07-4.92-19.03 3.99-6.53 12.21-9.27 18.63-6.41 6.54 2.91 9.33 10.68 6.02 17.72z"/><path fill="#F9A922" d="M31.51 68.78c-3.36 7.12-11.87 10.58-18.73 7.33-6.74-3.21-8.7-11.45-4.67-18.06 3.78-6.19 11.58-8.8 17.68-6.08 6.2 2.75 8.86 10.13 5.72 16.81z"/><path fill="#F9A723" d="M30.86 68.54c-3.18 6.74-11.24 10.01-17.72 6.94-6.38-3.05-8.24-10.85-4.42-17.1 3.58-5.86 10.96-8.33 16.74-5.75 5.86 2.6 8.37 9.58 5.4 15.91z"/><path fill="#F9A524" d="M30.21 68.29c-3 6.36-10.6 9.44-16.72 6.54-6.02-2.87-7.77-10.22-4.17-16.12 3.38-5.53 10.34-7.86 15.79-5.43 5.53 2.45 7.9 9.04 5.1 15.01z"/><path fill="#F9A324" d="M29.56 68.04c-2.82 5.98-9.96 8.88-15.71 6.15-5.66-2.7-7.3-9.61-3.92-15.15 3.17-5.2 9.72-7.39 14.84-5.1 5.2 2.29 7.43 8.49 4.79 14.1z"/><path fill="#F8A025" d="M28.92 67.79c-2.64 5.59-9.33 8.31-14.71 5.76-5.29-2.52-6.84-8.99-3.67-14.18 2.97-4.87 9.1-6.91 13.89-4.78 4.87 2.15 6.95 7.94 4.49 13.2z"/><path fill="#F89E26" d="M28.27 67.54c-2.46 5.21-8.69 7.74-13.7 5.36-4.93-2.35-6.37-8.38-3.42-13.21 2.77-4.53 8.48-6.44 12.94-4.45 4.53 2 6.48 7.4 4.18 12.3z"/><path fill="#F89C26" d="M27.62 67.29c-2.28 4.83-8.05 7.17-12.7 4.97-4.57-2.18-5.9-7.77-3.17-12.25 2.57-4.2 7.86-5.97 11.99-4.12 4.21 1.86 6.01 6.86 3.88 11.4z"/><path fill="#F89A27" d="M26.97 67.04c-2.1 4.45-7.42 6.61-11.7 4.58-4.21-2.01-5.44-7.15-2.92-11.28 2.36-3.87 7.24-5.5 11.05-3.8 3.87 1.71 5.53 6.32 3.57 10.5z"/><path fill="#F79728" d="M26.33 66.79c-1.92 4.06-6.78 6.04-10.69 4.18-3.85-1.83-4.97-6.54-2.67-10.31 2.16-3.54 6.61-5.03 10.1-3.47 3.53 1.57 5.05 5.78 3.26 9.6z"/><path fill="#F79528" d="M25.68 66.54c-1.74 3.68-6.14 5.47-9.69 3.79-3.48-1.66-4.5-5.92-2.41-9.34 1.96-3.2 5.99-4.55 9.15-3.15 3.2 1.42 4.57 5.24 2.95 8.7z"/><path fill="#F79329" d="M25.03 66.29c-1.56 3.3-5.5 4.9-8.68 3.4-3.12-1.49-4.03-5.31-2.16-8.37 1.75-2.87 5.37-4.08 8.2-2.82 2.86 1.27 4.09 4.69 2.64 7.79z"/></g><path fill="#FCC21B" d="M86.52 95.98c-11.69 4.2-24.58-1.72-28.82-13.25-4.24-11.52 1.76-24.28 13.44-28.49 11.65-4.19 24.57 1.75 28.83 13.27 4.22 11.53-1.79 24.29-13.45 28.47z"/><path fill="#FCC01C" d="M86.28 95.34c-11.33 4.07-23.82-1.67-27.94-12.85-4.11-11.16 1.71-23.53 13.03-27.62 11.3-4.06 23.81 1.7 27.95 12.86 4.1 11.19-1.74 23.55-13.04 27.61z"/><path fill="#FCBE1C" d="M86.04 94.7c-10.97 3.94-23.07-1.62-27.05-12.44-3.98-10.81 1.66-22.79 12.62-26.74 10.94-3.93 23.06 1.64 27.06 12.46 3.97 10.82-1.68 22.79-12.63 26.72z"/><path fill="#FBBB1D" d="M85.81 94.06C75.2 97.87 63.5 92.5 59.64 82.03c-3.85-10.46 1.6-22.04 12.2-25.87 10.58-3.8 22.31 1.59 26.18 12.05 3.84 10.47-1.63 22.05-12.21 25.85z"/><path fill="#FBB91E" d="M85.57 93.42c-10.25 3.68-21.56-1.51-25.29-11.63-3.72-10.1 1.55-21.3 11.79-24.99 10.22-3.67 21.55 1.54 25.29 11.64 3.72 10.12-1.56 21.31-11.79 24.98z"/><path fill="#FBB71E" d="M85.34 92.77c-9.89 3.55-20.81-1.46-24.4-11.22-3.59-9.74 1.49-20.55 11.37-24.11 9.87-3.54 20.8 1.48 24.41 11.23 3.58 9.77-1.51 20.56-11.38 24.1z"/><path fill="#FBB51F" d="M85.1 92.13c-9.53 3.42-20.05-1.4-23.52-10.81-3.46-9.4 1.44-19.81 10.97-23.24 9.51-3.42 20.04 1.43 23.52 10.83 3.45 9.4-1.46 19.81-10.97 23.22z"/><path fill="#FAB220" d="M84.87 91.49c-9.18 3.3-19.3-1.35-22.63-10.41-3.33-9.04 1.39-19.06 10.55-22.37 9.15-3.29 19.29 1.37 22.64 10.42 3.31 9.06-1.41 19.08-10.56 22.36z"/><path fill="#FAB020" d="M84.63 90.85c-8.82 3.17-18.54-1.3-21.75-10-3.2-8.69 1.33-18.32 10.14-21.49 8.79-3.16 18.54 1.32 21.76 10.01 3.18 8.7-1.36 18.33-10.15 21.48z"/><path fill="#FAAE21" d="M84.39 90.21c-8.46 3.04-17.79-1.25-20.86-9.59-3.06-8.34 1.28-17.57 9.73-20.62 8.44-3.03 17.78 1.27 20.87 9.61 3.06 8.34-1.3 17.58-9.74 20.6z"/><path fill="#FAAC22" d="M84.16 89.57c-8.1 2.91-17.03-1.19-19.98-9.19-2.93-7.98 1.22-16.83 9.32-19.75 8.08-2.9 17.03 1.21 19.98 9.2 2.93 8-1.24 16.84-9.32 19.74z"/><path fill="#F9A922" d="M83.92 88.93c-7.74 2.78-16.28-1.14-19.09-8.78-2.81-7.63 1.17-16.08 8.9-18.87 7.72-2.77 16.27 1.16 19.1 8.79 2.8 7.64-1.19 16.09-8.91 18.86z"/><path fill="#F9A723" d="M83.69 88.29c-7.38 2.65-15.53-1.09-18.21-8.37-2.67-7.28 1.11-15.34 8.49-18 7.36-2.64 15.52 1.11 18.22 8.38 2.66 7.29-1.14 15.35-8.5 17.99z"/><path fill="#F9A524" d="M83.45 87.65c-7.02 2.52-14.77-1.04-17.32-7.96-2.54-6.92 1.06-14.59 8.08-17.12 7.01-2.52 14.77 1.05 17.33 7.98 2.53 6.92-1.09 14.59-8.09 17.1z"/><path fill="#F9A324" d="M83.21 87.01c-6.67 2.39-14.02-.98-16.44-7.56-2.41-6.57 1.01-13.85 7.66-16.25 6.65-2.39 14.01 1 16.45 7.57 2.41 6.58-1.02 13.86-7.67 16.24z"/><path fill="#F8A025" d="M82.98 86.37c-6.31 2.27-13.26-.93-15.55-7.15-2.28-6.21.95-13.1 7.25-15.37 6.29-2.26 13.26.94 15.56 7.16 2.27 6.22-.97 13.1-7.26 15.36z"/><path fill="#F89E26" d="M82.74 85.73c-5.95 2.14-12.51-.88-14.67-6.74-2.15-5.86.9-12.35 6.84-14.5 5.93-2.13 12.52.89 14.68 6.75s-.92 12.36-6.85 14.49z"/><path fill="#F89C26" d="M82.51 85.09c-5.59 2.01-11.75-.82-13.79-6.34-2.02-5.51.84-11.61 6.43-13.62 5.58-2 11.76.83 13.79 6.35 2.03 5.5-.86 11.61-6.43 13.61z"/><path fill="#F89A27" d="M82.27 84.45c-5.23 1.88-11-.77-12.9-5.93-1.89-5.15.79-10.86 6.01-12.75 5.22-1.87 11 .78 12.91 5.94 1.89 5.16-.81 10.87-6.02 12.74z"/><path fill="#F79728" d="M82.03 83.81c-4.87 1.75-10.25-.72-12.02-5.52-1.76-4.8.74-10.12 5.6-11.87 4.86-1.74 10.25.73 12.02 5.53 1.78 4.79-.74 10.11-5.6 11.86z"/><path fill="#F79528" d="M81.8 83.17c-4.51 1.62-9.49-.67-11.13-5.12-1.63-4.45.68-9.37 5.19-11 4.5-1.62 9.5.67 11.14 5.12 1.63 4.45-.7 9.38-5.2 11z"/><path fill="#F79329" d="M81.56 82.53c-4.15 1.49-8.74-.61-10.25-4.71-1.5-4.09.63-8.63 4.78-10.12 4.15-1.49 8.73.62 10.25 4.72 1.5 4.09-.64 8.62-4.78 10.11z"/><path fill="#2F2F2F" d="M27.2 36.79c-.56-1.31.05-2.83 1.36-3.39s2.81.06 3.37 1.35c.08.17 1.69 3.6 6.09 4.26 4.43.65 6.81-2.21 6.84-2.24.88-1.11 2.5-1.3 3.62-.42 1.11.88 1.31 2.5.43 3.62-.16.2-3.49 4.3-9.55 4.3-.67 0-1.36-.04-2.09-.15-7.34-1.11-9.97-7.08-10.07-7.33zM52.44 52.19c-.69.44-1.56.56-2.35.54-2.04-.01-5.01-.89-6.66.62-1.33 1.24-1.67 3.5-1.2 5.17.69 2.57 3.17 2.5 5.11 3.71.5.3.69.97.53 1.49-.07.21-.2.39-.39.53-.82.52-1.98.28-2.9.28-1.03 0-1.96-.11-2.81.54-1.39 1.06-1.96 3.92-1.24 5.5.87 1.87 3.26 2.66 4.58 4.19.7.82 3.24 3.96 1.37 4.71-1.86.77-5.71.55-6.23-1.86-.6-2.77-3.09-4.85-3.98-7.56-.93-2.83-.17-5.55 1.91-7.66 1.01-1.03-.14-3.13-.25-4.36-.13-1.55.24-3.24.93-4.63 2.11-4.39 6.91-3.5 10.94-4.27.94-.18 1.7-.11 2.47.61.73.67 1.11 1.88.17 2.45zM74.19 50.89c-7.99-1.2-10.85-7.7-10.97-7.98-.58-1.38.04-2.96 1.42-3.55 1.37-.6 2.95.04 3.54 1.41.09.21 1.91 4.03 6.81 4.76 4.91.75 7.57-2.41 7.68-2.55a2.696 2.696 0 0 1 3.79-.38c1.14.92 1.34 2.61.42 3.76-.16.21-3.81 4.69-10.44 4.69-.71 0-1.46-.05-2.25-.16z"/></svg>