<svg xmlns="http://www.w3.org/2000/svg" width="128" height="128" viewBox="0 0 128 128"><path fill="#FCC21B" d="M125.71 74.98c7.79-29.65-8.73-59.18-38.2-64.6C24.11-1.27-3.77 53.68.86 94.53c0 13.62 28.16 24.68 62.9 24.68 32.56 0 59.35-9.72 62.57-22.16.22-.83.33-1.67.33-2.52 0-6.48-4.13-7.46-.95-19.55z"/><path fill="#FFF" d="M98.92 75.87c-.62 3.96.63 9.05 5.4 9.39 4.79.34 8.1-3.31 8.52-9.03.66-8.51-4.6-18.53-5.8-18.61-1.19-.08-6.7 8.76-8.12 18.25"/><g fill="#2F2F2F"><path d="M31.1 40.18c2.27-4.53 7.19-6.69 10.98-4.84 3.77 1.86 5.01 7.03 2.74 11.56s-7.17 6.68-10.97 4.82c-3.77-1.85-5.01-7.03-2.75-11.54zM73.07 77.43a2.86 2.86 0 0 1-3.54 1.97c-17.72-5.12-36.49-6.87-36.68-6.88-1.57-.16-2.74-1.54-2.6-3.12.15-1.58 1.52-2.75 3.12-2.6.79.06 19.49 1.81 37.74 7.09 1.53.43 2.4 2.02 1.96 3.54zM84.1 52.1c-1.09 5.06-5.4 8.46-9.65 7.58-4.27-.89-6.83-5.71-5.76-10.79 1.09-5.08 5.41-8.47 9.66-7.58 4.24.88 6.83 5.7 5.75 10.79z"/></g></svg>