<svg xmlns="http://www.w3.org/2000/svg" width="128" height="128" viewBox="0 0 128 128"><path fill="#FCC21B" d="M15.95 32.79C35.2 3.96 67.36-9.2 101.44 8.14c22.82 11.61 30.74 39.16 20.83 71.54-4.09 13.36 6.13 15.62 5.47 22.71-1.3 13.88-28.45 25.24-63.56 25.24-35.1 0-62.63-11.34-63.57-25.24-1.88-28.01 3.05-51.17 15.34-69.6"/><path fill="#D7598B" d="M72.62 63.69c.11-1.9-5.63-1.97-6.84-2.35-1.73-.51-3.32-1.21-5.13-1.54-5.43-1.01-10.33-4.46-15.95-4.61-6.1-.16-10.68 3.63-13.7 8.66-1.6 2.65-2.53 6.46-1.42 9.54.69 1.91 1.7 3.45 3.61 4.74 2.91 1.97 8.45 2.49 12.38.91 6.24-2.52 9.05-6.91 13.47-10.55 5.72-4.7 11.03-4.67 13.58-4.8z"/><path fill="#2F2F2F" d="M87.54 65.92c-40.13 0-55.3-15.64-55.93-16.31a2.926 2.926 0 0 1 .13-4.14 2.923 2.923 0 0 1 4.13.12c.23.23 14.46 14.47 51.68 14.47.23 0 .42-.03.68 0a2.936 2.936 0 0 1 .01 5.87c-.23-.01-.47-.01-.7-.01zM54.22 35.5c-3.13 4.09-8.41 5.29-11.79 2.72-3.38-2.58-3.59-7.99-.46-12.07 3.12-4.11 8.39-5.31 11.77-2.71 3.37 2.56 3.59 7.99.48 12.06M90.1 51.22c-.41-.05-.81-.19-1.18-.44-6.87-4.53-14.74-7.03-14.82-7.05a2.752 2.752 0 0 1-1.93-2.68c.02-1.23.83-2.29 2.01-2.62 8.58-2.41 18.43-2.54 18.85-2.55 1.56-.02 2.77 1.21 2.79 2.73a2.77 2.77 0 0 1-2.74 2.8c-.06-.01-3.77.04-8.47.62 2.33 1.11 4.88 2.49 7.33 4.12 1.28.84 1.63 2.56.8 3.83-.59.92-1.63 1.36-2.64 1.24z"/></svg>