<svg xmlns="http://www.w3.org/2000/svg" width="128" height="128" viewBox="0 0 128 128"><path fill="#FCC21B" d="M125.74 74.99c7.8-29.67-8.74-59.2-38.23-64.63C24.09-1.31-3.79 53.68.82 94.54c0 13.63 28.19 24.69 62.94 24.69 34.74 0 62.93-11.06 62.93-24.69 0-6.47-4.13-7.45-.95-19.55z"/><path fill="#2F2F2F" d="M55.23 60.38c.15-.97.44-1.87.81-2.73 2.01.01 4.18-.1 6.6-.45 3.56-.51 6.32-1.74 8.52-3.16 1.96 2.16 2.99 5.31 2.49 8.67-.84 5.68-5.65 9.75-10.75 9.09-5.08-.62-8.51-5.74-7.67-11.42zM108.4 96.08c-1.19 1.67-3.39 1.88-4.94.43-24.42-23.09-49.02 2.49-50.14 3.68-.82.87-1.82 1.28-2.81 1.29a2.95 2.95 0 0 1-2.36-1.1c-1.27-1.58-1.01-4.16.54-5.79.34-.32 30.23-30.64 59.09-4.06 1.51 1.4 1.8 3.88.62 5.55zM113.19 66.81c-.73 5.24-4.88 9-9.25 8.4-4.38-.59-7.34-5.32-6.62-10.57.47-3.27 2.26-5.95 4.58-7.37 1.48 1.89 3.52 3.75 6.51 5.09 1.7.78 3.28 1.31 4.79 1.74.1.89.12 1.78-.01 2.71z"/></svg>