<svg xmlns="http://www.w3.org/2000/svg" width="128" height="128" viewBox="0 0 128 128"><path fill="#FCC21B" d="M16.19 32.96C35.34 4.27 67.33-8.83 101.25 8.43c22.7 11.55 30.59 38.96 20.72 71.18-4.06 13.28 6.1 15.53 5.45 22.59-1.29 13.8-28.31 25.11-63.24 25.11-34.92 0-62.31-11.28-63.24-25.11-1.88-27.88 3.03-50.92 15.25-69.24"/><g fill="#2F2F2F"><path d="M25.86 79.58c-1.46.05-2.82-.89-3.24-2.36-.49-1.73.51-3.54 2.24-4.03l46.78-13.3c.89-.25 1.82-.13 2.59.35l8.46 5.12c1.54.94 2.04 2.94 1.11 4.48-.95 1.54-2.94 2.04-4.48 1.1l-7.25-4.39-45.42 12.91c-.26.07-.52.11-.79.12zM40.28 43.13c-2.38 4.56-7.36 6.67-11.13 4.7-3.79-1.96-4.92-7.25-2.55-11.81 2.36-4.57 7.35-6.68 11.14-4.72 3.76 1.98 4.91 7.28 2.54 11.83M64.29 30.89c-.19.42-.36.85-.49 1.3-1.58 5.41 1.51 11.09 6.91 12.68 5.41 1.59 11.08-1.5 12.68-6.91.14-.45.23-.9.29-1.36l-19.39-5.71zM57.45 31.39c-.09 0-.18-.01-.3-.03-.7-.15-1.16-.87-.99-1.58.06-.27 1.51-6.48 7.09-7.36.72-.11 1.4.38 1.51 1.1.11.71-.38 1.4-1.1 1.51-3.82.6-4.92 5.28-4.92 5.32a1.33 1.33 0 0 1-1.29 1.04z"/></g></svg>