<svg xmlns="http://www.w3.org/2000/svg" width="128" height="128" viewBox="0 0 128 128"><path fill="#FCC21B" d="M16.01 32.9C35.29 4.02 67.5-9.15 101.63 8.22c22.84 11.63 30.79 39.22 20.86 71.64-4.09 13.37 6.14 15.64 5.48 22.74-1.29 13.88-28.49 25.27-63.64 25.27-35.16 0-62.72-11.36-63.66-25.27-1.9-28.06 3.04-51.25 15.34-69.7"/><path fill="#2F2F2F" d="M88.97 63.81l-5.16 1.91c-2.31.88-3.24 4.57-2.07 8.31l10.22 32.53c1.23 3.9 5.48 5.92 9.5 4.51l8.96-3.17c4.06-1.44 5.68-5.56 3.59-9.2L96.74 68.5c-1.96-3.47-5.44-5.55-7.77-4.69zm18.61 41.05l-6.32 2.24c-2.06.73-4.31-.33-5.05-2.35-.73-2.03.23-4.21 2.13-4.89l5.88-2.11c1.91-.68 4.28.33 5.28 2.26 1 1.95.14 4.12-1.92 4.85zM43.83 32.05c-5.43-1.47-6.38-7.72-3.86-12.17 1.99-3.11 5.31-4.7 8.11-4.34 2.94.4 5.75 2.94 5.88 6.77.21 5.69-4.11 11.26-10.13 9.74zM74.33 36.68c3.94 4.42 10.37 2.38 13.45-2.1 2.06-3.35 2.05-7.23.39-9.71-1.76-2.57-5.51-4.02-9.24-2.34-5.54 2.51-8.87 9.2-4.6 14.15z"/><path fill="#2F2F2F" d="M89.09 73.4c-.75-.09-1.48-.5-1.95-1.18l-7.78-11.43-10.08 3.03c-1.02.32-2.14-.08-2.78-.96l-6.41-8.72-12.2 4.1c-1.02.34-2.14-.03-2.77-.92l-4.82-6.74-8.89 4.04c-.96.44-2.09.18-2.79-.64l-4.35-5.14-5.62 2.22c-1.21.48-2.58-.14-3.04-1.38-.47-1.25.12-2.63 1.33-3.12l7.15-2.84c.93-.37 1.99-.09 2.65.68l4.29 5.03 9.02-4.12c1.04-.48 2.28-.14 2.96.8L47.95 53l12.16-4.11c1.03-.35 2.16.02 2.81.89l6.46 8.72 10.15-3.07c1.07-.33 2.24.1 2.88 1.04l8.92 13.01c.82 1.2.54 2.77-.62 3.53-.49.33-1.06.44-1.62.39z"/></svg>