<svg xmlns="http://www.w3.org/2000/svg" width="128" height="128" viewBox="0 0 128 128"><path fill="#FCC21B" d="M127.63 58.95c1.55-20.8-8.71-34.41-15-40.72-.22-.23-.45-.44-.67-.66a42.992 42.992 0 0 0-2.88-2.57c-.01-.01-.03-.02-.04-.03-.67-.54-1.08-.82-1.08-.82v.05c-2.04-1.52-4.21-2.93-6.58-4.12-12.02-6.04-23.78-8.2-34.8-7.24l.03-.05S57.21 3.06 46.7 7c-4.62 1.73-18.96 9.05-28.46 20.49-4.14 5-8.61 11.42-12.42 20.63C-1.37 65.51-.8 86.25 2.8 102.54l.05-.09c1.91 12.78 28.84 22.92 61.89 22.92.05 0 .08-.01.13-.01s.08.01.13.01c9.35 0 18.08-.84 25.92-2.29 18.79-3.45 32.44-10.46 35.28-18.82.43-1.06.77-2.14.88-3.24.34-3.51-2.13-5.81-4.08-8.95-4.79-7.84 3.37-16.06 4.63-33.12z"/><path fill="#FFF" d="M15 58.48c-.29 2.12-.82 4.12-2.63 5.46-1.51 1.09-3.5 1.46-5.18.54-1.7-.91-2.37-3.3-2.66-4.99-.88-5.2 3.68-9.91 7.79-12.45.6-.36 1.61-1.02 2.32-1.14.87-.18 1.1.79 1.12 1.5.02 2.52-.65 5.03-.57 7.61.05 1-.01 2.23-.19 3.47zM21.73 41.57c-1.86-.02-3.67-.93-4.44-2.67-.8-1.73.1-4.03.91-5.55 2.45-4.66 8.96-5.7 13.8-5.25.72.05 1.91.14 2.56.45.79.4.4 1.3-.04 1.88-1.53 2.03-3.58 3.61-5.09 5.71-.59.82-1.37 1.75-2.26 2.63-1.53 1.54-3.16 2.81-5.44 2.8z"/><path fill="#ED6C30" d="M80.71 99.91c-5.93.17-11.52-2.36-16.21-5.81-4.73-3.49-8.08-8.42-12.76-11.91-5.9-4.41-12.75-1.26-19.31-1-7.85.31-16.63-2.61-16.57-12.73.02-3.1.53-6.84 1.59-9.75 1.95-5.37 5.44-10.13 9.96-13.63 2.52-1.94 5.5-3.64 8.51-4.69 3.27-1.14 6.72-1.35 9.83.34 3.05 1.67 5.55 4.14 8.7 5.67 6.77 3.3 13.5-.42 20.36 1.47 7.92 2.19 14.5 9.12 18.61 15.98 4.94 8.24 6.7 19.29 1.51 27.92-1.21 2.01-3.04 3.98-5 5.29-2.49 1.67-6.25 2.77-9.22 2.85z"/><path fill="#FFF" d="M102.44 67.73c-2.16-1.12-3.06-3.13-3.75-5.34-.41-1.27-.67-2.57-.81-3.64-.36-2.76-1.53-5.28-1.94-7.95-.12-.78-.02-1.83.93-1.81.78.02 1.95.55 2.66.84 4.81 1.99 10.46 6.21 10.41 11.87 0 1.83-.31 4.46-1.94 5.71-1.62 1.27-3.78 1.23-5.56.32zM116.24 91.37c-.58 1.75-1.69 4.16-3.63 4.87-1.93.69-3.97 0-5.37-1.4-1.72-1.72-1.96-3.9-1.92-6.21.02-1.36.17-2.64.36-3.72.51-2.73.2-5.48.64-8.15.12-.77.53-1.75 1.42-1.44.74.25 1.69 1.11 2.26 1.61 3.97 3.35 8.05 9.07 6.24 14.44z"/><path fill="#2F2F2F" d="M91.89 47.76c-.49 0-.98-.15-1.41-.46-6.71-4.87-16.8-6.8-16.9-6.82a2.422 2.422 0 0 1-1.96-2.17 2.41 2.41 0 0 1 1.58-2.46c9.58-3.5 21.96-2.87 22.48-2.84 1.33.08 2.34 1.21 2.27 2.54-.07 1.32-1.13 2.46-2.54 2.27-.08 0-5.61-.28-11.86.54 3.19 1.19 6.73 2.84 9.75 5.03 1.08.78 1.32 2.29.54 3.36-.47.67-1.2 1.01-1.95 1.01zM54.57 34.67c-.41 0-.82-.1-1.2-.32-.06-.04-6.41-3.64-13.13-3.88a2.413 2.413 0 0 1-2.32-2.5c.05-1.33 1.18-2.46 2.49-2.32 2.94.11 5.77.73 8.18 1.49-2.96-3.75-6.29-6.67-6.35-6.72-1-.88-1.11-2.39-.23-3.4.88-1 2.4-1.11 3.4-.23.34.3 8.43 7.39 11.38 14.56.39.95.13 2.05-.64 2.73-.45.38-1.01.59-1.58.59z"/></svg>