<svg xmlns="http://www.w3.org/2000/svg" xmlns:xlink="http://www.w3.org/1999/xlink" width="128" height="128" viewBox="0 0 128 128"><defs><path id="a" d="M112.7 37.63h-.02C102.61 23.9 83.67 14.58 64 14.58c-19.68 0-38.62 9.32-48.68 23.05h-.02S.33 49.83.33 68.88C.33 88.37 13 97.64 13 97.64l.05.01c5.52 9.04 26.21 15.77 50.94 15.77 24.74 0 45.41-6.73 50.93-15.77.02 0 .06-.02.06-.02s12.69-9.26 12.69-28.76c0-19.03-14.97-31.24-14.97-31.24z"/></defs><use xlink:href="#a" overflow="visible" fill="#FCC21B"/><clipPath id="b"><use xlink:href="#a" overflow="visible"/></clipPath><g clip-path="url(#b)"><path fill="#FCC21B" d="M36.26 93.27C20.85 98.8 3.87 91-1.73 75.8-7.32 60.62.6 43.8 15.99 38.25c15.35-5.52 32.38 2.3 38 17.49 5.57 15.2-2.37 32.01-17.73 37.53z"/><path fill="#FCC01C" d="M35.83 92.12C21.07 97.42 4.8 89.94-.56 75.38-5.92 60.84 1.66 44.72 16.41 39.4c14.71-5.29 31.02 2.21 36.41 16.76 5.34 14.57-2.27 30.67-16.99 35.96z"/><path fill="#FCBE1C" d="M35.41 90.97C21.29 96.03 5.73 88.88.6 74.96c-5.12-13.9 2.13-29.32 16.24-34.41C30.9 35.5 46.5 42.66 51.65 56.58c5.11 13.93-2.17 29.33-16.24 34.39z"/><path fill="#FBBB1D" d="M34.98 89.82C21.51 94.65 6.66 87.83 1.77 74.54-3.12 61.27 3.8 46.56 17.26 41.7c13.42-4.82 28.31 2.01 33.23 15.3 4.87 13.29-2.08 27.99-15.51 32.82z"/><path fill="#FBB91E" d="M34.56 88.67c-12.82 4.6-26.96-1.9-31.62-14.55-4.65-12.63 1.94-26.64 14.75-31.26 12.78-4.59 26.95 1.92 31.64 14.56 4.63 12.66-1.98 26.65-14.77 31.25z"/><path fill="#FBB71E" d="M34.13 87.51C21.96 91.88 8.52 85.71 4.1 73.7c-4.42-12 1.84-25.3 14.01-29.69 12.14-4.36 25.6 1.82 30.05 13.83 4.4 12.02-1.88 25.31-14.03 29.67z"/><path fill="#FBB51F" d="M33.71 86.36C22.18 90.5 9.46 84.66 5.27 73.28 1.08 61.92 7.01 49.32 18.53 45.16c11.5-4.13 24.24 1.73 28.46 13.1 4.17 11.38-1.78 23.97-13.28 28.1z"/><path fill="#FAB220" d="M33.29 85.21C22.4 89.12 10.39 83.6 6.43 72.86 2.48 62.13 8.08 50.24 18.96 46.31c10.85-3.9 22.89 1.63 26.86 12.37 3.94 10.74-1.68 22.63-12.53 26.53z"/><path fill="#FAB020" d="M32.86 84.06C22.62 87.73 11.32 82.54 7.6 72.44 3.88 62.35 9.15 51.16 19.38 47.46c10.21-3.67 21.53 1.53 25.27 11.64 3.71 10.11-1.57 21.29-11.79 24.96z"/><path fill="#FAAE21" d="M32.44 82.91c-9.6 3.44-20.19-1.42-23.67-10.89-3.48-9.46 1.45-19.94 11.04-23.4 9.57-3.44 20.18 1.44 23.68 10.9 3.47 9.47-1.48 19.95-11.05 23.39z"/><path fill="#FAAC22" d="M32.01 81.76c-8.95 3.21-18.83-1.33-22.08-10.16-3.25-8.82 1.35-18.6 10.3-21.83 8.93-3.21 18.82 1.34 22.09 10.17 3.24 8.83-1.38 18.61-10.31 21.82z"/><path fill="#F9A922" d="M31.59 80.6c-8.31 2.98-17.47-1.23-20.49-9.43-3.02-8.19 1.26-17.26 9.56-20.26 8.28-2.98 17.47 1.24 20.5 9.44 3 8.2-1.28 17.28-9.57 20.25z"/><path fill="#F9A723" d="M31.16 79.45c-7.66 2.75-16.12-1.14-18.9-8.7-2.78-7.55 1.16-15.92 8.81-18.69 7.64-2.75 16.11 1.15 18.91 8.71 2.78 7.57-1.17 15.94-8.82 18.68z"/><path fill="#F9A524" d="M30.74 78.3c-7.02 2.52-14.76-1.04-17.31-7.96-2.55-6.92 1.06-14.58 8.07-17.12 7-2.52 14.77 1.04 17.32 7.97 2.55 6.92-1.08 14.6-8.08 17.11z"/><path fill="#F9A324" d="M30.32 77.15c-6.37 2.28-13.41-.95-15.72-7.23-2.32-6.28.96-13.24 7.33-15.54 6.36-2.29 13.41.95 15.73 7.24 2.31 6.28-.99 13.24-7.34 15.53z"/><path fill="#F8A025" d="M29.89 76c-5.73 2.05-12.05-.85-14.13-6.5-2.08-5.64.87-11.91 6.59-13.97 5.71-2.05 12.06.85 14.14 6.51 2.08 5.64-.88 11.9-6.6 13.96z"/><path fill="#F89E26" d="M29.47 74.85c-5.08 1.82-10.7-.76-12.54-5.77-1.85-5.01.77-10.57 5.85-12.4 5.07-1.82 10.7.75 12.55 5.77 1.84 5.01-.79 10.57-5.86 12.4z"/><path fill="#F89C26" d="M29.04 73.7c-4.44 1.59-9.34-.66-10.95-5.04-1.61-4.37.67-9.23 5.11-10.83 4.43-1.59 9.35.66 10.96 5.04 1.61 4.38-.69 9.23-5.12 10.83z"/><path fill="#F89A27" d="M28.62 72.54c-3.79 1.36-7.98-.57-9.36-4.31-1.38-3.74.58-7.89 4.36-9.26 3.79-1.36 7.99.56 9.37 4.31 1.38 3.75-.58 7.9-4.37 9.26z"/><path fill="#F79728" d="M28.19 71.39c-3.15 1.13-6.63-.47-7.77-3.58-1.15-3.1.48-6.55 3.62-7.68s6.63.47 7.78 3.58c1.15 3.1-.48 6.55-3.63 7.68z"/><path fill="#F79528" d="M27.77 70.24c-2.5.89-5.27-.38-6.18-2.84-.91-2.47.38-5.21 2.88-6.11 2.5-.9 5.28.37 6.19 2.85.91 2.46-.39 5.2-2.89 6.1z"/><path fill="#F79329" d="M27.34 69.09c-1.86.66-3.92-.28-4.59-2.11-.68-1.83.28-3.87 2.14-4.54a3.61 3.61 0 0 1 4.6 2.11c.67 1.83-.29 3.87-2.15 4.54z"/></g><g clip-path="url(#b)"><path fill="#FCC21B" d="M112.34 93.27C96.93 98.8 79.94 91 74.35 75.8c-5.59-15.17 2.32-31.99 17.72-37.55 15.35-5.52 32.38 2.3 38 17.49 5.56 15.2-2.38 32.01-17.73 37.53z"/><path fill="#FCC01C" d="M111.91 92.12c-14.76 5.3-31.04-2.18-36.4-16.74-5.35-14.54 2.22-30.65 16.98-35.98 14.71-5.29 31.02 2.21 36.41 16.76 5.33 14.57-2.27 30.67-16.99 35.96z"/><path fill="#FCBE1C" d="M111.49 90.97c-14.12 5.07-29.68-2.09-34.81-16.01-5.12-13.9 2.13-29.32 16.24-34.41 14.07-5.05 29.66 2.11 34.82 16.03 5.09 13.93-2.18 29.33-16.25 34.39z"/><path fill="#FBBB1D" d="M111.06 89.82c-13.47 4.83-28.32-1.99-33.22-15.28-4.89-13.27 2.03-27.98 15.49-32.84 13.42-4.82 28.31 2.01 33.23 15.3 4.87 13.29-2.07 27.99-15.5 32.82z"/><path fill="#FBB91E" d="M110.64 88.67c-12.83 4.6-26.97-1.9-31.63-14.55-4.65-12.63 1.93-26.64 14.75-31.26 12.78-4.59 26.95 1.92 31.64 14.56 4.63 12.66-1.98 26.65-14.76 31.25z"/><path fill="#FBB71E" d="M110.21 87.51c-12.18 4.37-25.61-1.8-30.04-13.82-4.42-12 1.84-25.3 14.01-29.69 12.14-4.36 25.6 1.82 30.04 13.83 4.41 12.03-1.86 25.32-14.01 29.68z"/><path fill="#FBB51F" d="M109.79 86.36c-11.54 4.14-24.26-1.71-28.45-13.08-4.18-11.36 1.74-23.96 13.27-28.12 11.5-4.13 24.24 1.73 28.45 13.1 4.17 11.38-1.77 23.97-13.27 28.1z"/><path fill="#FAB220" d="M109.36 85.21c-10.89 3.91-22.9-1.61-26.86-12.35-3.95-10.73 1.64-22.62 12.53-26.55 10.85-3.9 22.89 1.63 26.86 12.37 3.94 10.74-1.67 22.63-12.53 26.53z"/><path fill="#FAB020" d="M108.94 84.06c-10.25 3.68-21.54-1.52-25.27-11.62-3.72-10.09 1.55-21.28 11.79-24.98 10.21-3.67 21.53 1.53 25.27 11.64 3.7 10.11-1.58 21.29-11.79 24.96z"/><path fill="#FAAE21" d="M108.52 82.91c-9.6 3.44-20.19-1.42-23.68-10.89-3.48-9.46 1.45-19.94 11.04-23.4 9.57-3.44 20.18 1.44 23.68 10.9 3.47 9.47-1.47 19.95-11.04 23.39z"/><path fill="#FAAC22" d="M108.09 81.76C99.14 84.97 89.26 80.43 86 71.6c-3.25-8.82 1.35-18.6 10.3-21.83 8.93-3.21 18.82 1.34 22.09 10.17 3.24 8.83-1.37 18.61-10.3 21.82z"/><path fill="#F9A922" d="M107.67 80.6c-8.31 2.98-17.48-1.23-20.5-9.43-3.01-8.19 1.26-17.26 9.56-20.26 8.28-2.98 17.47 1.24 20.5 9.44 3 8.2-1.28 17.28-9.56 20.25z"/><path fill="#F9A723" d="M107.24 79.45c-7.67 2.75-16.12-1.14-18.91-8.7-2.78-7.55 1.16-15.92 8.82-18.69 7.64-2.75 16.11 1.15 18.91 8.71 2.77 7.57-1.18 15.94-8.82 18.68z"/><path fill="#F9A524" d="M106.82 78.3c-7.02 2.52-14.76-1.04-17.32-7.96-2.55-6.92 1.06-14.58 8.08-17.12 7-2.52 14.76 1.05 17.32 7.97 2.53 6.93-1.08 14.6-8.08 17.11z"/><path fill="#F9A324" d="M106.39 77.15c-6.38 2.28-13.41-.95-15.73-7.23-2.31-6.28.97-13.24 7.34-15.54 6.36-2.29 13.4.95 15.73 7.24 2.31 6.28-.98 13.24-7.34 15.53z"/><path fill="#F8A025" d="M105.97 76c-5.73 2.05-12.05-.85-14.14-6.5-2.08-5.64.87-11.91 6.59-13.97 5.71-2.05 12.05.86 14.14 6.51 2.08 5.65-.88 11.9-6.59 13.96z"/><path fill="#F89E26" d="M105.54 74.85c-5.08 1.82-10.7-.76-12.55-5.77-1.85-5.01.77-10.57 5.85-12.4 5.07-1.82 10.69.76 12.55 5.77 1.85 5.02-.78 10.57-5.85 12.4z"/><path fill="#F89C26" d="M105.12 73.7c-4.44 1.59-9.34-.66-10.96-5.04-1.61-4.37.68-9.23 5.11-10.83 4.43-1.59 9.34.66 10.96 5.04 1.61 4.38-.68 9.23-5.11 10.83z"/><path fill="#F89A27" d="M104.7 72.54c-3.8 1.36-7.99-.57-9.37-4.31-1.38-3.74.58-7.89 4.37-9.26 3.79-1.36 7.98.57 9.37 4.31 1.37 3.75-.59 7.9-4.37 9.26z"/><path fill="#F79728" d="M104.27 71.39c-3.15 1.13-6.63-.47-7.78-3.58-1.14-3.1.48-6.55 3.63-7.68 3.14-1.13 6.63.47 7.78 3.58 1.14 3.11-.49 6.55-3.63 7.68z"/><path fill="#F79528" d="M103.85 70.24c-2.51.89-5.27-.38-6.19-2.84-.91-2.47.39-5.21 2.89-6.11 2.5-.9 5.27.37 6.18 2.85.91 2.46-.39 5.2-2.88 6.1z"/><path fill="#F79329" d="M103.42 69.09c-1.86.66-3.92-.28-4.6-2.11-.68-1.83.29-3.87 2.14-4.54 1.86-.67 3.92.28 4.59 2.11.69 1.83-.28 3.87-2.13 4.54z"/></g><g fill="#FFF"><path d="M38.84 86.42c-2.86 5-9.27 6.77-14.34 3.95-.29-.16-.54-.37-.79-.56-3.16 1.91-7.23 2.17-10.69.25-5.05-2.82-6.84-9.18-3.98-14.18.06-.11.16-.2.23-.31-1.66-3.04-1.77-6.82.08-10.05 2.86-5 9.29-6.76 14.33-3.95 2.07 1.16 3.56 2.92 4.44 4.92 3.99-1.54 8.97-4.47 14.56-9.99 0 0-1.24 7.88-7.72 15.81 4.97 2.87 6.71 9.15 3.88 14.11zM116.59 89.34c-3.46 1.92-7.52 1.66-10.68-.25-.27.18-.51.39-.8.56-5.06 2.82-11.49 1.05-14.34-3.95-2.83-4.96-1.09-11.24 3.89-14.1-6.49-7.94-7.72-15.81-7.72-15.81 5.58 5.52 10.56 8.44 14.55 9.98.88-1.99 2.36-3.76 4.43-4.91 5.06-2.82 11.48-1.06 14.33 3.95 1.85 3.23 1.74 7 .09 10.04.07.11.17.2.23.32 2.87 4.99 1.07 11.35-3.98 14.17z"/></g><path fill="#2F2F2F" d="M84.07 64.53c-.48.4-1.06.6-1.63.6-.72 0-1.43-.31-1.94-.89-.18-.21-4.97-5.32-15.54-5.1-10.7.28-14.59 4.75-14.75 4.94-.9 1.05-2.48 1.2-3.54.33-1.06-.87-1.24-2.44-.38-3.51.21-.26 5.31-6.46 18.54-6.8 13.28-.44 19.29 6.59 19.53 6.88.9 1.06.77 2.65-.29 3.55z"/><g><path fill="#2F2F2F" d="M73.56 41.14c0-.88.12-1.71.3-2.51 1.72-.47 3.52-1.13 5.35-2.22 1.85-1.11 3.39-2.23 4.77-3.37 2.19 1.58 3.67 4.59 3.67 8.1 0 5.11-3.14 9.25-7.04 9.25s-7.05-4.14-7.05-9.25z"/></g><g><path fill="#2F2F2F" d="M55.9 41.14c0-.88-.12-1.71-.3-2.51-1.72-.47-3.52-1.13-5.34-2.22a37.684 37.684 0 0 1-4.77-3.37c-2.19 1.58-3.67 4.59-3.67 8.1 0 5.11 3.14 9.25 7.04 9.25 3.89 0 7.04-4.14 7.04-9.25z"/></g></svg>