<svg xmlns="http://www.w3.org/2000/svg" width="128" height="128" viewBox="0 0 128 128"><path fill="#FCC21B" d="M64 9.89C1.98 9.89.5 79.42.5 93.19c0 13.75 28.45 24.91 63.5 24.91 35.08 0 63.49-11.16 63.49-24.91.01-13.76-1.46-83.3-63.49-83.3z"/><path fill="#2F2F2F" d="M87.27 97.01c-.48.32-1.02.48-1.56.48-.92 0-1.84-.45-2.39-1.29-.22-.34-5.83-8.46-18.56-7.67-12.97.76-17.83 7.32-17.85 7.39a2.853 2.853 0 0 1-3.97.72 2.832 2.832 0 0 1-.73-3.95c.24-.37 6.3-8.92 22.22-9.85 16.14-.94 23.36 9.77 23.65 10.23.87 1.33.51 3.09-.81 3.94zM103.52 56.77c-.29-.85-.94-1.53-1.76-1.89a3.2 3.2 0 0 0-2.59.03l-20.82 9.52s-1.35.64-2.75.62c-2.87-.04-3.18-1.7-3.92-2.95-.35-.6-1.18-1.2-1.97-.86-1.35.56-1.26 3.52-1.15 4.26.31 2.19.94 3.89 1.55 5.11.75 1.49 2.42 3.56 2.98 4.11 3.1 3.08 8.41 5 13.83 4.69 2.22-.12 4.37-.61 6.38-1.43 11.28-4.65 12.3-15.24 10.22-21.21zM23.56 56.77c.3-.85.95-1.53 1.77-1.89a3.2 3.2 0 0 1 2.59.03l20.82 9.52s1.35.64 2.74.62c2.87-.04 3.18-1.7 3.9-2.95.36-.6 1.19-1.2 1.98-.86 1.36.56 1.27 3.52 1.16 4.26-.3 2.19-.94 3.89-1.55 5.11-.75 1.49-2.42 3.56-2.97 4.11-3.11 3.08-8.42 5-13.83 4.69-2.23-.12-4.37-.61-6.38-1.43-11.3-4.65-12.31-15.24-10.23-21.21z"/></svg>