<svg xmlns="http://www.w3.org/2000/svg" width="128" height="128" viewBox="0 0 128 128"><path fill="#FCC21B" d="M37.19 12.93C7.96 18.32-7.12 44.37 3.47 72.89c4.31 11.62-.94 12.97-.94 19.37 0 13.53 27.93 24.49 62.38 24.49s62.38-10.96 62.38-24.49c4.57-40.51-27.22-90.88-90.1-79.33z"/><path fill="#ED6C30" d="M82.12 89.01c-.73 7.74-5.22 13.2-15.16 13.26-9.33.11-12.26-6.57-19.98-6.52-8.21.02-8.12 2.33-14.57 3.22-5.03.55-9.96-5.57-10.83-8.4-1.59-5.45-2.74-10.59 4.05-14.4 6.46-3.91 15.54 3.86 19.43 3.76 7.4-.03 12.31-10.72 22.44-9.36 9.48 1.27 14.85 11.22 14.62 18.44z"/><path fill="#2F2F2F" d="M75.67 63.66a3.13 3.13 0 0 0 2.24-3.82 3.137 3.137 0 0 0-3.8-2.24c-.52.14-12.74 3.07-20.89-6.63a3.144 3.144 0 0 0-4.41-.39 3.133 3.133 0 0 0-.37 4.41c5.55 6.6 12.44 8.73 17.92 9.24 5.13.46 8.99-.5 9.31-.57zM16.38 70.27c.4 1.21 1.53 1.99 2.75 1.99.29 0 .61-.05.91-.16 13.89-4.59 13.76-15.65 13.74-16.12-.03-1.6-1.28-2.98-2.95-2.81-1.59.05-2.84 1.36-2.81 2.93 0 .36-.14 7.34-9.8 10.52-1.51.51-2.34 2.14-1.84 3.65z"/></svg>