<svg xmlns="http://www.w3.org/2000/svg" width="128" height="128" viewBox="0 0 128 128"><path fill="#FCC21B" d="M127.59 93.59c0 13.94-28.46 25.25-63.59 25.25-35.12 0-63.6-11.31-63.6-25.25C.41 79.63 1.88 9.17 64 9.17c62.12 0 63.59 70.46 63.59 84.42"/><path fill="#ED6C30" d="M76.54 89.43c0 6.55-5.24 10.3-11.71 10.3-6.47 0-11.71-3.75-11.71-10.3 0-6.54 5.24-11.85 11.71-11.85 6.46 0 11.71 5.31 11.71 11.85z"/><path fill="#2F2F2F" d="M35.12 61.25c-5.66-1.79-6.4-8.41-3.56-12.98 2.24-3.19 5.8-4.73 8.73-4.23 3.08.56 5.94 3.35 5.91 7.39-.03 6-4.81 11.68-11.08 9.82zM90.22 56.01c5.65-1.78 6.39-8.4 3.55-12.97-2.23-3.19-5.79-4.73-8.72-4.24-3.09.56-5.95 3.36-5.92 7.39.02 6.01 4.81 11.69 11.09 9.82z"/></svg>