<svg xmlns="http://www.w3.org/2000/svg" xmlns:xlink="http://www.w3.org/1999/xlink" width="128" height="128" viewBox="0 0 128 128"><defs><path id="a" d="M125.83 75.35c7.81-30.05-8.92-59.14-38.28-65.49C24.23-3.83-3.89 53.75.75 95.17c0 13.81 28.22 25.02 63.02 25.02 32.63 0 59.45-9.86 62.69-22.47.21-.84.32-1.7.32-2.56 0-6.56-4.13-7.55-.95-19.81z"/></defs><linearGradient id="b" gradientUnits="userSpaceOnUse" x1="68.606" y1="65.351" x2="82.306" y2="10.242"><stop offset="0" stop-color="#fcc21b"/><stop offset="1" stop-color="#42ade7"/></linearGradient><use xlink:href="#a" overflow="visible" fill="url(#b)"/><path fill="#ED6C30" d="M45.92 102.89c3.51 1.14 6.45 3.6 9.29 5.92 3.33 2.85 7.11 4.29 11.54 3.88 3.77-.35 7.42-2.04 9.8-5.17 6.58-8.68 1.86-20.47.03-23.73-3.98-6.64-10.02-11.64-16.86-14.44-3.65-1.53-8.15-2.67-12.39-2.86-10.12-.58-21.9 3.07-29.06 13.48-5.42 7.64-6.66 20.2 2.64 24.37 3.04 1.36 6.48 1.78 9.63.54 4.1-1.63 8.68-3.12 13.16-2.49.76.09 1.5.27 2.22.5z"/><path fill="#FFF" d="M90.24 51.34c-1.62 8.91-9.61 14.92-17.83 13.42-8.24-1.5-13.59-9.94-11.95-18.85C62.08 37 70.06 31 78.29 32.5c8.23 1.5 13.58 9.93 11.95 18.84zM47.9 47.75c-3.27 8.16-11.43 12.57-18.21 9.85-6.81-2.72-9.66-11.54-6.38-19.7 3.27-8.16 11.41-12.57 18.21-9.85 6.79 2.72 9.64 11.55 6.38 19.7z"/><path fill="#2F2F2F" d="M39.76 44.65c-.96 2.92-3.75 4.68-6.24 3.94-2.49-.74-3.72-3.71-2.76-6.63.95-2.92 3.74-4.69 6.23-3.94 2.48.74 3.72 3.71 2.77 6.63M78.75 49.62c-.39 3.32-2.97 5.79-5.78 5.54-2.8-.25-4.76-3.15-4.38-6.45.38-3.31 2.98-5.8 5.78-5.55 2.8.26 4.76 3.15 4.38 6.46"/><path fill="#FFF" d="M109.26 85.9c-.16-5.26-5.42-13.74-6.4-13.85-1.02-.06-5.29 6.54-5.88 13.27-.55 4.83 2.18 8.27 6.02 8.23 4.23-.04 6.33-2.93 6.26-7.65z"/></svg>