<svg xmlns="http://www.w3.org/2000/svg" width="128" height="128" viewBox="0 0 128 128"><path fill="#FCC21B" d="M124.24 72.86c10.55-28.43-4.49-54.4-33.63-59.76C27.96 1.58-3.75 51.78.82 92.17c0 13.47 27.84 24.41 62.18 24.41 34.35 0 62.17-10.94 62.17-24.41 0-6.39-5.24-7.73-.93-19.31z"/><path fill="#FFF" d="M36.06 37.95c-.83 3.33-1.95 6.57-2.76 9.91-.77 3.19-.52 6.01-1.9 9.26-1.65 3.88-6.64 5.77-10.17 3.22-3.7-2.69-3.26-7.2-1.53-10.87 2.86-6.02 6.28-9.06 11.7-12.2.61-.36 1.27-.64 1.95-.89 1.49-.54 3.24-.68 2.71 1.57z"/><path fill="#2F2F2F" d="M58.98 68.48a2.947 2.947 0 0 1-2.11-3.6c.4-1.56 2-2.5 3.57-2.12.49.13 12.02 2.9 19.69-6.25 1.04-1.25 2.9-1.41 4.16-.37 1.24 1.05 1.4 2.9.35 4.16-5.24 6.22-11.74 8.23-16.9 8.71-4.81.45-8.45-.46-8.76-.53z"/><path fill="#ED6C30" d="M108.21 94.03c-.62.82-1.17 1.52-1.89 2.13-2.18 2.18-5.23 3.05-8.31 1.85-2.23-.95-4.16-2.88-6.51-3.94-2.3-1.06-3.08-1.69-5.81-1.33-6.22.96-10.13 4.73-15.28 9.99-4.85 4.85-12.98 8.96-18.11 1.95-5.47-7.74.18-17.98 5.74-22.24 11.58-8.63 30.26-8.06 38.16-6.03 7.7 2.04 17.65 8.12 12.01 17.62z"/><path fill="#2F2F2F" d="M114.88 74.72a2.732 2.732 0 0 1-2.59 1.87 2.4 2.4 0 0 1-.86-.15c-13.1-4.33-12.98-14.76-12.96-15.2.03-1.51 1.21-2.81 2.79-2.65 1.49.04 2.67 1.28 2.64 2.76 0 .34.14 6.92 9.24 9.92 1.43.48 2.21 2.02 1.74 3.45z"/></svg>