<svg xmlns="http://www.w3.org/2000/svg" xmlns:xlink="http://www.w3.org/1999/xlink" width="128" height="128" viewBox="0 0 128 128"><path fill="#FCC21B" d="M122.96 45.44c-9.16-20.31-33.56-34.9-59.03-34.9S14.06 25.13 4.91 45.44c-13.92 30.84 6.71 56.21 6.71 56.21h.01c6.78 9.14 27.63 15.81 52.31 15.81 25.79 0 47.37-7.27 53.13-17.05h.01c-.01-.01 19.79-24.13 5.88-54.97z"/><defs><path id="a" d="M19.83 82.48S27.81 52.6 64.76 52.6c36.96 0 44.97 29.88 44.97 29.88S93.67 78 64.79 78c-28.89 0-44.96 4.48-44.96 4.48"/></defs><use xlink:href="#a" overflow="visible" fill="#FFF"/><clipPath id="b"><use xlink:href="#a" overflow="visible"/></clipPath><path clip-path="url(#b)" fill="#F3B84B" d="M14.17 91.4c-2.6 0-4.71-2.11-4.71-4.71V43.28c0-2.6 2.11-4.71 4.71-4.71s4.71 2.11 4.71 4.71v43.41c0 2.6-2.11 4.71-4.71 4.71z"/><path clip-path="url(#b)" fill="#2F2F2F" d="M31 89.04c-1.3 0-2.35-1.06-2.35-2.35v-43.4c0-1.3 1.06-2.36 2.35-2.36 1.3 0 2.36 1.06 2.36 2.36v43.4A2.362 2.362 0 0 1 31 89.04zM47.83 89.04c-1.3 0-2.35-1.06-2.35-2.35V43.28c0-1.3 1.06-2.36 2.35-2.36 1.3 0 2.36 1.06 2.36 2.36v43.41a2.369 2.369 0 0 1-2.36 2.35zM64.66 89.04c-1.3 0-2.36-1.06-2.36-2.35V43.28c0-1.3 1.06-2.36 2.36-2.36 1.3 0 2.35 1.06 2.35 2.36v43.41c0 1.3-1.05 2.35-2.35 2.35zM81.48 89.04c-1.3 0-2.35-1.06-2.35-2.35V43.28c0-1.3 1.06-2.36 2.35-2.36s2.36 1.06 2.36 2.36v43.41c0 1.3-1.06 2.35-2.36 2.35zM98.3 89.04c-1.3 0-2.35-1.06-2.35-2.35V43.28c0-1.3 1.05-2.36 2.35-2.36s2.36 1.06 2.36 2.36v43.41c0 1.3-1.06 2.35-2.36 2.35z"/><path clip-path="url(#b)" fill="#F3B84B" d="M115.14 91.4c-2.6 0-4.71-2.11-4.71-4.71V43.28c0-2.6 2.11-4.71 4.71-4.71s4.71 2.11 4.71 4.71v43.41c0 2.6-2.11 4.71-4.71 4.71z"/><path fill="#2F2F2F" d="M98.83 28.74a2.71 2.71 0 0 0-1.5-1.61c-.71-.3-1.5-.28-2.2.03l-17.71 8.1s-1.15.54-2.34.53c-2.43-.03-2.7-1.44-3.32-2.51-.29-.51-1.01-1.02-1.68-.74-1.15.48-1.08 2.99-.99 3.62.26 1.87.8 3.31 1.32 4.35.63 1.27 2.05 3.02 2.53 3.49 2.63 2.62 7.15 4.26 11.76 3.99 1.89-.1 3.71-.52 5.43-1.22 9.61-3.95 10.47-12.95 8.7-18.03zM30.83 28.74c.25-.73.8-1.31 1.5-1.61.71-.3 1.51-.28 2.21.03l17.71 8.1s1.15.54 2.34.53c2.43-.03 2.7-1.44 3.32-2.51.3-.51 1.01-1.02 1.68-.74 1.15.48 1.07 2.99.98 3.62-.26 1.87-.8 3.31-1.32 4.35-.63 1.27-2.05 3.02-2.53 3.49-2.64 2.62-7.15 4.26-11.76 3.99-1.89-.1-3.72-.52-5.43-1.22-9.61-3.95-10.47-12.95-8.7-18.03zM19.83 84.83c-.61 0-1.21-.24-1.66-.68-.6-.59-.84-1.46-.62-2.28.08-.31 8.89-31.63 47.21-31.63s47.16 31.31 47.25 31.63c.22.82-.02 1.69-.62 2.28-.6.6-1.47.83-2.29.6-.16-.05-16.16-4.4-44.31-4.4-28.16 0-44.17 4.35-44.33 4.4-.21.06-.42.08-.63.08zm44.93-29.88c-27.06 0-37.69 16.5-41.19 24.25 6.64-1.34 20.69-3.56 41.22-3.56 20.51 0 34.55 2.22 41.19 3.56-3.5-7.75-14.15-24.25-41.22-24.25z"/></svg>