<svg xmlns="http://www.w3.org/2000/svg" width="128" height="128" viewBox="0 0 128 128"><path fill="#FCC21B" d="M16.06 32.87C35.27 4.11 67.35-9.02 101.35 8.28c22.75 11.58 30.67 39.06 20.78 71.36-4.07 13.32 6.12 15.58 5.46 22.65-1.29 13.84-28.39 25.18-63.4 25.18-35.02 0-62.48-11.31-63.41-25.18-1.89-27.94 3.03-51.04 15.28-69.42"/><path fill="#ED6C30" d="M86.4 90.26c-.24-4.02-1.12-8.36-2.81-12.37-3.13-7.43-7.59-10.97-11.05-13.64-4.63-3.57-9.1-4.96-13.29-4.95-5.91 0-12.51 2.66-17.08 11.82-1.76 3.63-3.91 12.07-2.69 17.89 1.97 9.54 6.79 12.32 10.99 14.31 10.72 5.05 37.35 10.53 35.93-13.06"/><path fill="#2F2F2F" d="M88.11 46.56c-1.33-.07-2.79-.35-4.35-.95-6.96-2.68-8.26-8.88-8.31-9.14-.27-1.39.63-2.74 2.02-3.01 1.38-.27 2.72.62 3.01 1.99.05.21.91 3.75 5.12 5.37 4.28 1.65 7.35-.5 7.38-.52 1.14-.85 2.74-.62 3.59.52a2.56 2.56 0 0 1-.52 3.59c-.16.12-3.28 2.4-7.94 2.15zM53.9 35.39c-1.38-.07-2.87-.36-4.48-.97-7.15-2.76-8.45-9.1-8.51-9.36-.27-1.39.63-2.74 2.02-3.01 1.38-.27 2.72.62 3.01 2 .04.2.92 3.89 5.32 5.59 4.46 1.71 7.66-.52 7.69-.55 1.14-.85 2.74-.61 3.59.52.85 1.13.61 2.74-.52 3.59-.15.11-3.35 2.44-8.12 2.19z"/><path fill="#FFF" d="M47.74 52.43c-2.71 3.3-5.15 6.98-8.8 9.31-1.11.69-2.29 1.27-3.53 1.68-5.11 1.72-11.67.03-15.63-3.63-6.85-6.34-3.57-18.91 4.69-22.57 3.47-1.54 7.84-1.59 11.41-.32 4.39 1.56 7.29 5.41 11.1 7.86 1.67 1.08 4.01 2.04 6.02 2.19.37.02.59.1.23.38-1.65 1.25-3.28 2.53-4.66 4.09-.27.34-.56.68-.83 1.01"/></svg>