<svg xmlns="http://www.w3.org/2000/svg" width="128" height="128" viewBox="0 0 128 128"><path fill="#FCC21B" d="M15.88 32.75C35.16 3.87 67.36-9.3 101.5 8.06c22.84 11.63 30.78 39.22 20.85 71.64-4.08 13.38 6.15 15.65 5.49 22.74-1.29 13.9-28.49 25.28-63.64 25.28-35.15 0-62.73-11.36-63.66-25.28-1.9-28.04 3.04-51.24 15.34-69.69"/><path fill="#ED6C30" d="M62.61 98.08c6.34 5.58 16.18 7.81 23.71 2.22 8.51-6.06 6.88-19.74 1.89-28.11-6.15-9.94-18.33-18.04-28.69-19.06-10.27-.94-20.97 2.67-26.96 10.92-2.5 2.95-4.07 6.63-4.66 10.12-1.11 4.53-.16 8.61 2.75 11.04 3.52 2.97 6.23 2.08 12.48 1.68 6.73-.38 13.27 5.51 19.48 11.19z"/><g fill="#2F2F2F"><path d="M34.13 27.47c.25-.93.63-1.76 1.05-2.55 1.81.23 3.78.38 6 .3 3.28-.08 5.9-.97 8.06-2.11 1.51 2.31 2.04 5.46 1.17 8.66-1.47 5.38-6.29 8.79-10.79 7.6-4.5-1.19-6.95-6.53-5.49-11.9zM90.5 42.62c-1.48 5.37-6.32 8.78-10.8 7.58-4.5-1.17-6.96-6.51-5.49-11.9.9-3.36 3.12-5.95 5.75-7.12 1.31 2.16 3.18 4.37 6.12 6.17 1.7 1.01 3.27 1.78 4.8 2.45-.04.91-.13 1.86-.38 2.82zM57.31 30.23a1.24 1.24 0 0 1-.66-.22 1.29 1.29 0 0 1-.37-1.79c2.05-3.13-.58-7.01-.61-7.05-.4-.57-.27-1.38.32-1.79.58-.42 1.39-.27 1.79.31.15.22 3.68 5.35.64 9.95-.24.4-.67.6-1.11.59zM69.91 33.48c-.67-.03-1.21-.57-1.23-1.25 0-.27-.08-6.49 4.99-8.64.65-.27 1.4.04 1.69.69.28.65-.03 1.41-.69 1.68-3.45 1.45-3.41 6.16-3.42 6.2.01.72-.54 1.3-1.26 1.31-.02.01-.05.01-.08.01z"/></g></svg>