<svg xmlns="http://www.w3.org/2000/svg" width="128" height="128" viewBox="0 0 128 128"><path fill="#FCC21B" d="M63.99 13.05C-.99 13.05.31 78.53.31 91.5c0 12.95 28.5 23.45 63.68 23.45s63.7-10.5 63.7-23.45c0-12.97 1.29-78.45-63.7-78.45"/><path fill="#FFF" d="M29.58 46.1c-.68 3.03-3.01 6.35-6.56 5.25-3.55-1.11-4.9-4.68-3.59-8.93 1.94-6.33 8.56-12.08 9.46-11.8.87.28 2.34 8.23.69 15.48"/><path fill="#2F2F2F" d="M30.56 78.07c-.55-1.75.41-3.61 2.16-4.15 4.36-1.4 13.77-1.82 18.32-1.08-4.43-2.05-14.31-6.03-17.3-6.75-1.76-.47-4.18-1.75-3.71-3.52.46-1.76 2.28-2.81 4.04-2.35.66.17 16.29 4.37 26.79 12.54a3.3 3.3 0 0 1 1.03 3.88c-.57 1.38-2 2.24-3.48 2.01-.13-.02-13.46-1.69-23.68 1.57-.34.1-.67.16-1 .16-1.41 0-2.72-.9-3.17-2.31M105.45 77.39c-9.39-1.77-21.01 1.17-21.12 1.19-.28.08-.55.1-.82.1-1.17 0-2.29-.62-2.88-1.66-.73-1.31-.52-2.94.55-4 8.47-8.45 22-13.92 22.56-14.16 1.72-.67 3.64.14 4.31 1.85.69 1.69-.47 3.09-2.16 3.77-.08.03-10.66 4.95-16.13 8.21 3.81-.73 13.32-2.48 16.92-1.81 1.8.35 2.99 2.07 2.65 3.86a3.365 3.365 0 0 1-3.88 2.65"/><path fill="#ED6C30" d="M110.52 95.87c-.5 3.94-7.31 6.02-19.94 6.89-8.17.55-11.22-1.56-24.84-1.56-11.24 0-17.14 1.4-26.65 1.84-7.03.33-13.23-3.51-13.97-5.29-1.4-3.35-2.15-6.54 7.72-8.93 9.86-2.41 27.26 2.54 32.89 2.54 10.16 0 14.37-4.54 26.54-4.53 13.19 0 18.82 4.45 18.25 9.04"/></svg>