<svg xmlns="http://www.w3.org/2000/svg" xmlns:xlink="http://www.w3.org/1999/xlink" width="128" height="128" viewBox="0 0 128 128"><linearGradient id="a" gradientUnits="userSpaceOnUse" x1="65.545" y1="77.401" x2="84.495" y2="7.41"><stop offset="0" stop-color="#fcc21b"/><stop offset="1" stop-color="#42ade7"/></linearGradient><path fill="url(#a)" d="M125.823 74.839c7.812-29.709-8.738-59.295-38.275-64.729C24.041-1.55-3.883 53.486.749 94.417c0 13.646 28.22 24.715 63.02 24.715 34.799 0 63.01-11.069 63.01-24.715-.001-6.485-4.127-7.478-.956-19.578z"/><defs><path id="b" d="M72.272 27.697a17.184 17.184 0 0 0-4.747 9.082c-1.642 8.938 3.725 17.409 11.995 18.918 8.241 1.5 16.254-4.526 17.887-13.465.125-.688.134-1.36.182-2.039-3.505-3.73-11.766-10.782-25.317-12.496z"/></defs><use xlink:href="#b" overflow="visible" fill="#FFF"/><clipPath id="c"><use xlink:href="#b" overflow="visible"/></clipPath><path clip-path="url(#c)" fill="#2F2F2F" d="M80.07 27.076c3.208 1.967 4.536 5.782 2.937 8.538-1.576 2.76-5.463 3.39-8.677 1.433-3.208-1.958-4.526-5.797-2.941-8.547 1.59-2.742 5.472-3.387 8.681-1.424"/><g><defs><path id="d" d="M32.172 25.218c-.735 1.094-1.404 2.249-1.919 3.538-3.286 8.185-.43 17.027 6.398 19.768 6.809 2.722 14.993-1.709 18.269-9.894 1.987-4.966 1.681-10.156-.363-14.096-4.923-1.24-12.93-2.2-22.385.684z"/></defs><use xlink:href="#d" overflow="visible" fill="#FFF"/><clipPath id="e"><use xlink:href="#d" overflow="visible"/></clipPath><path clip-path="url(#e)" fill="#2F2F2F" d="M50.15 32.309c-3.548 1.185-7.292-.238-8.38-3.208-1.084-2.951.907-6.312 4.441-7.506 3.533-1.203 7.286.229 8.375 3.19 1.079 2.95-.907 6.33-4.436 7.524"/></g><path fill="#FFF" d="M99.694 85.392c-3.954-.315-6.179-3.687-5.807-8.356.564-6.971 6.112-14.392 7.105-14.315 1.002.095 4.364 7.926 4.326 15.786-.008 3.265-1.66 7.219-5.624 6.885z"/><path fill="#E75625" d="M39.937 100.18c-5.348 4.316-14.435 1.576-19.577-3.037-11.58-10.295-2.393-30.436 6.837-36.29 2.836-1.843 6.198-2.583 9.512-1.003 5.605 2.665 7.005 7.22 8.289 12.826 2.139 9.426 1.441 22.299-5.061 27.504z"/></svg>