<svg xmlns="http://www.w3.org/2000/svg" width="128" height="128" viewBox="0 0 128 128"><path fill="#FCC21B" d="M3.1 103.98c0 11.68 24.11 21.14 53.85 21.14 29.74 0 53.85-9.46 53.85-21.14C114.77 69 93.32 17.52 33.03 30.19 6.2 35.82-5.24 62.63 3.91 87.25c3.72 10.04-.81 11.2-.81 16.73z"/><path fill="#2F2F2F" d="M60.61 83.13c7.09-.62 9.87-5.9 9.99-6.12.55-1.08.13-2.41-.96-2.95-1.08-.57-2.39-.14-2.96.92-.1.18-1.9 3.36-6.46 3.76-4.66.38-7.02-2.52-7.05-2.55-.73-.96-2.12-1.14-3.09-.4a2.21 2.21 0 0 0-.4 3.09c.14.18 3.39 4.31 9.63 4.31.42 0 .86-.02 1.3-.06zM14.89 82.26c.13.19 3.31 4.21 9.39 4.21.41 0 .83-.01 1.26-.06 6.91-.6 9.62-5.74 9.74-5.95a2.2 2.2 0 0 0-.95-2.97 2.207 2.207 0 0 0-2.96.92c-.08.16-1.82 3.23-6.21 3.62-4.45.38-6.76-2.42-6.78-2.45a2.21 2.21 0 0 0-3.09-.41c-.97.75-1.15 2.13-.4 3.09z"/><g fill="#D7598B"><path d="M97.23 48.44c-.38-.19-.79-.33-1.2-.47-.48-.19-.96-.37-1.45-.51-.76-.24-1.52-.45-2.27-.69-.91-.29-1.83-.59-2.74-.89-1.75-.57-3.95-1.91-5.06.58-.24.52-.5 1.23-.46 1.78.05.91.68 1.31 1.47 1.64.81.33 1.65.61 2.48.88.28.09.56.17.84.25.16.06.44.1.42.3-.02.15-.2.28-.32.37-.2.15-.41.29-.62.44l-.3.2c-.62.41-1.24.82-1.85 1.21-.49.32-.98.65-1.45.99l-.6.39c-.66.42-1.22.89-1.83 1.37l-.23.2c-.56.51-1.15 1.08-1.21 1.85-.08.99.69 1.46 1.57 1.88.31.15.63.27.97.37l.03.01c1.08.46 2.29.77 3.45 1.14.92.29 1.83.59 2.74.88 1.75.57 3.95 1.91 5.06-.57.24-.52.51-1.23.47-1.79-.05-.91-.68-1.31-1.47-1.64-.81-.33-1.64-.61-2.48-.88-.19-.06-.37-.11-.55-.17-.12-.04-.37-.07-.45-.16-.22-.22.19-.4.33-.49.45-.27.89-.55 1.33-.84.46-.3.92-.59 1.35-.94.23-.15.46-.29.69-.44.49-.33 1-.64 1.46-1.03 1.17-.98 3.92-2.14 3-4.06-.21-.38-.69-.94-1.12-1.16zM112.65 31.36c-.4-.25-.83-.45-1.25-.66-.52-.25-1.02-.5-1.54-.72-.8-.33-1.6-.65-2.4-1-.95-.42-1.92-.85-2.88-1.27-1.86-.81-4.1-2.52-5.6.07-.31.54-.67 1.28-.71 1.89-.04 1 .6 1.51 1.43 1.95.85.45 1.73.85 2.6 1.24.29.13.6.25.88.38.18.07.47.15.42.37-.02.16-.24.28-.37.36-.25.14-.49.28-.74.41-.12.06-.24.13-.36.19-.71.38-1.44.75-2.15 1.11-.57.29-1.14.6-1.69.92-.23.12-.46.25-.69.36-.77.39-1.43.84-2.15 1.3-.1.07-.19.13-.28.2-.67.49-1.37 1.05-1.53 1.89-.19 1.08.6 1.67 1.51 2.22.33.2.66.36 1.02.51l.03.02c1.12.62 2.41 1.09 3.64 1.62.97.42 1.93.85 2.89 1.27 1.85.81 4.11 2.52 5.6-.07.31-.53.67-1.29.7-1.89.04-1-.59-1.51-1.42-1.95-.85-.45-1.72-.85-2.6-1.24-.2-.08-.39-.16-.59-.25-.13-.06-.38-.11-.47-.22-.22-.26.26-.42.42-.5.52-.25 1.03-.51 1.54-.77.53-.28 1.07-.54 1.58-.87.26-.13.54-.26.8-.41.58-.3 1.17-.58 1.72-.96 1.38-.94 4.5-1.91 3.71-4.1-.15-.47-.62-1.13-1.07-1.4zM126.98 7.6c-.25-.6-.92-1.44-1.53-1.78-.55-.31-1.13-.55-1.71-.8-.69-.29-1.39-.6-2.09-.86-1.08-.39-2.17-.76-3.25-1.16-1.3-.49-2.61-1-3.93-1.49-2.51-.96-5.61-3.08-7.42.46-.38.74-.81 1.75-.81 2.56 0 1.33.88 1.97 2.02 2.5 1.16.54 2.35 1.01 3.55 1.47.4.15.8.3 1.2.44.23.09.63.17.59.46-.03.22-.3.39-.48.51-.31.21-.63.4-.95.6-.14.09-.3.18-.45.27-.93.55-1.86 1.1-2.78 1.62-.74.42-1.48.87-2.2 1.33-.29.17-.6.36-.9.53-.99.57-1.85 1.21-2.78 1.87-.12.09-.23.18-.35.28-.86.69-1.75 1.49-1.89 2.6-.2 1.44.9 2.18 2.15 2.86.44.24.89.43 1.37.6l.05.02c1.53.75 3.27 1.28 4.94 1.91 1.31.49 2.62 1 3.93 1.49 2.52.96 5.62 3.08 7.43-.46.38-.73.81-1.75.8-2.56 0-1.33-.88-1.97-2.02-2.5-1.16-.54-2.35-1.01-3.55-1.47-.27-.1-.53-.19-.79-.29-.18-.07-.52-.13-.64-.27-.3-.33.31-.58.52-.69.67-.36 1.33-.74 1.99-1.13.69-.4 1.39-.79 2.04-1.26.35-.2.7-.39 1.05-.6.74-.44 1.51-.86 2.21-1.38 1.8-1.33 5.88-2.82 4.68-5.68z"/></g><path fill="#FFF" d="M54.48 106.07c3.67 0 3.79 4.99 3.9 6.43.15 1.87.2 3.91.77 5.59.67 1.96 2.44 2.82 3.7 1.99 3.42-2.24.6-8.42 3.5-14.52l-11.87.51z"/><path fill="#ED6C30" d="M66.43 102.98c-1.33-2.33-3.13-3.8-4.55-5.12-3.35-3.11-6.08-3.91-9.53-3.9-4.88 0-9.37 2.01-12.72 9.87-1.18 2.73 1.45 2.54 1.45 2.54h23.4c2.51 0 2.82-1.82 1.95-3.39z"/></svg>