<svg xmlns="http://www.w3.org/2000/svg" width="128" height="128" viewBox="0 0 128 128"><path fill="#FCC21B" d="M64 9.56C1.59 9.56.11 79.52.11 93.37c0 13.85 28.61 25.07 63.89 25.07 35.29 0 63.88-11.22 63.88-25.07.01-13.85-1.46-83.81-63.88-83.81z"/><path fill="#2F2F2F" d="M40.33 72.12c-4.19 0-7.6-4.05-7.6-9.07 0-5.01 3.41-9.06 7.6-9.06 4.2 0 7.6 4.05 7.6 9.06 0 5.02-3.41 9.07-7.6 9.07zM87.68 72.12c4.19 0 7.59-4.05 7.59-9.07 0-5.01-3.4-9.06-7.59-9.06-4.2 0-7.6 4.05-7.6 9.06 0 5.02 3.4 9.07 7.6 9.07z"/></svg>