<svg xmlns="http://www.w3.org/2000/svg" width="128" height="128" viewBox="0 0 128 128"><path fill="#2F2F2F" d="M21.963 116.713s5.594 2.357 22.852 2.74l6.672-9.994-7.693-34.258-21.23-27.949-13.745 5.192-3.97 15.273 1.985 24.741 10.442 12.935 4.687 11.32zM84.638 111.358s10.175-4.276 15.34-6.529c5.154-2.243 10.433-4.438 13.229-5.526l10.92-21.048-1.375-20.007-9.774-13.135-13.135 8.095-14.661 24.589s-6.414 20.618-6.414 21.076 5.87 12.485 5.87 12.485z"/><path fill="#FBB817" d="M105.914 102.271c-.009-.2-.019-.391-.019-.582 0-2.386.438-4.353 1.536-6.806 1.069-2.396 2.253-4.763 3.437-7.14 4.143-8.247 8.047-16.026 7.007-24.999-.487-4.267-3.332-6.176-5.909-6.176-2.311 0-5.078 1.489-5.89 5.66-1.346 6.854-5.65 12.084-9.821 17.153-1.031 1.26-2.081 2.52-3.055 3.799-3.217 4.19-4.61 9.354-4.382 16.265.114 3.36.22 6.739.315 10.109 5.899-2.463 11.244-4.955 15.998-6.969.267-.104.525-.209.783-.314z"/><linearGradient id="a" gradientUnits="userSpaceOnUse" x1="66.139" y1="70.693" x2="72.252" y2="6.194"><stop offset="0" stop-color="#fcc21b"/><stop offset="1" stop-color="#42ade7"/></linearGradient><path fill="url(#a)" d="M21.963 116.713l-.019-.754c-.01-.572-.02-.974-.02-1.146l.086-2.243c.182-3.989.354-7.76-.782-11.292-.602-1.842-1.995-3.379-3.484-5.002-.83-.896-1.651-1.804-2.367-2.768-1.871-2.511-3.475-5.536-4.916-9.269-2.873-7.503-3.962-15.11-3.159-22.021.811-7.016 5.975-10.204 10.433-10.204 4.238 0 9.078 2.893 10.347 9.336 1.127 5.728 4.897 10.309 8.896 15.158a168.932 168.932 0 0 1 3.132 3.894c3.846 5.002 5.584 11.273 5.316 19.187-.191 5.736-.363 11.482-.535 17.21l-.076 2.654c.296 0 .563.019.859.019 14.785 0 27.796-3.771 38.964-8.113-.114-3.923-.238-7.847-.362-11.76-.268-7.903 1.47-14.194 5.316-19.196a165.569 165.569 0 0 1 3.149-3.913c3.972-4.849 7.751-9.411 8.868-15.139 1.27-6.443 6.109-9.336 10.356-9.336 4.458 0 9.631 3.188 10.442 10.204 1.175 10.328-3.217 19.091-7.464 27.567-1.155 2.31-2.319 4.62-3.351 6.948-.602 1.356-.869 2.453-1.003 3.608a376.78 376.78 0 0 1 16.409-6.147c-.2-36.491-6.663-92.971-65.328-88.562C8.59 9.615 1.059 66.447 1.059 102.834c0 .563.086 1.117.162 1.671 3.914 4.801 10.338 9.402 20.742 12.208z"/><path fill="#FBB817" d="M40.348 116.656c.162-5.737.343-11.474.534-17.211.229-6.91-1.165-12.084-4.391-16.265-.974-1.27-2.005-2.521-3.036-3.771-4.171-5.088-8.494-10.318-9.841-17.182-.821-4.171-3.57-5.66-5.88-5.66-2.586 0-5.422 1.909-5.908 6.176-.716 6.186.276 13.048 2.893 19.863 1.278 3.341 2.691 6.014 4.295 8.171.64.85 1.365 1.633 2.08 2.425 1.681 1.823 3.57 3.895 4.468 6.691 1.375 4.295 1.184 8.657 1.003 12.877l-.087 2.166c0 .115.01.458.02.936l.028 1.899c4.048.792 8.591 1.346 13.736 1.575l.086-2.69z"/><path fill="#E75625" d="M56.03 100.687c6.854 3.675 16.752.716 19.759-4.648 2.815-5.021 2.988-12.619 1.451-18.843-1.403-5.66-3.675-10.576-7.045-13.573-3.131-2.787-8.438-3.913-11.96-1.394-5.088 3.627-6.538 8.991-7.989 18.651-1.432 9.602.554 17.01 5.784 19.807z"/><path fill="#FFF" d="M100.897 40.088c-.319 9.073-7.368 16.199-15.74 15.907-8.395-.296-14.933-7.885-14.604-16.962.31-9.077 7.359-16.188 15.744-15.907 8.383.296 14.916 7.89 14.6 16.962zM58.354 42.688c-2.053 8.572-9.502 14.143-16.633 12.434-7.149-1.714-11.254-10.047-9.192-18.618 2.053-8.567 9.493-14.127 16.633-12.424 7.131 1.714 11.245 10.042 9.192 18.608z"/><path fill="#2F2F2F" d="M49.83 40.799c-.529 3.036-3.039 5.193-5.612 4.816-2.572-.378-4.224-3.146-3.703-6.171.515-3.036 3.025-5.193 5.612-4.82 2.562.381 4.233 3.145 3.703 6.175M89.233 40.055c.101 3.346-2.1 6.181-4.925 6.338-2.82.163-5.179-2.424-5.283-5.765-.101-3.341 2.114-6.19 4.925-6.344 2.816-.147 5.184 2.425 5.283 5.771"/></svg>