<svg xmlns="http://www.w3.org/2000/svg" width="128" height="128" viewBox="0 0 128 128"><path fill="#FCC21B" d="M16.26 33C35.39 4.35 67.33-8.71 101.2 8.51c22.66 11.53 30.54 38.9 20.7 71.07-4.06 13.27 6.09 15.52 5.43 22.56-1.29 13.79-28.27 25.07-63.14 25.07-34.88 0-62.23-11.26-63.16-25.07C-.84 74.31 4.06 51.3 16.26 33"/><path fill="#2F2F2F" d="M53.12 34.9c-5.08 5.43-12.83 6.44-17.33 2.24-4.53-4.23-4.03-12.05 1.05-17.47 5.07-5.48 12.85-6.45 17.34-2.24 4.5 4.2 4.04 12.05-1.06 17.47M76.04 38.21c-.78 4.41 1.6 8.5 5.23 9.13 3.67.63 7.25-2.43 8.01-6.84.77-4.42-1.53-8.5-5.22-9.13-3.62-.65-7.25 2.42-8.02 6.84"/><path fill="#ED6C30" d="M42.05 76.78c8.91 3.66 8.18 13.5 19.78 18.63 13.08 5.74 23.04.95 28.79-9.69 5.41-9.93 3.77-26.46-8.59-32.06-12.52-5.61-24.64 5.91-32.79 3.22-4.34-1.45-9.83-13.58-18.42-11.17-8.23 2.28-9.74 8.24-11.12 14.76-.71 3.49.64 12.38 5.58 13.74 7.06 1.94 8.51-.79 16.77 2.57"/></svg>