<svg xmlns="http://www.w3.org/2000/svg" xmlns:xlink="http://www.w3.org/1999/xlink" width="128" height="128" viewBox="0 0 128 128"><defs><path id="a" d="M15.87 32.75C35.15 3.87 67.36-9.3 101.5 8.06c22.84 11.63 30.78 39.21 20.86 71.65-4.1 13.37 6.14 15.64 5.48 22.74-1.3 13.9-28.49 25.28-63.65 25.28-35.15 0-62.72-11.35-63.65-25.28-1.9-28.06 3.04-51.25 15.33-69.7"/></defs><use xlink:href="#a" overflow="visible" fill="#FCC21B"/><clipPath id="b"><use xlink:href="#a" overflow="visible"/></clipPath><path clip-path="url(#b)" fill="#FFF" d="M77.13 99.82c-.97-.03-1.8-.74-1.93-1.72-.14-1.1.62-2.1 1.71-2.25 30.05-4.03 42.91-15.94 48.41-25.21.56-.95 1.79-1.27 2.74-.7.95.56 1.27 1.78.7 2.73-5.95 10.04-19.68 22.9-51.31 27.14-.11.01-.21.01-.32.01zM84.55 73.63h-.28a1.994 1.994 0 0 1-1.93-2.04c.02-1.11.93-1.97 2.03-1.95.1 0 .19.01.28.01 22.98.58 33.65-4.48 41.77-10.03.91-.62 2.15-.39 2.76.52.64.91.39 2.15-.52 2.77-8.65 5.92-20 11.32-44.11 10.72zM21.47 56.12c-.39-.01-.8-.14-1.15-.39-6.64-5-9.29-14.12-9.54-20.99a2 2 0 0 1 1.92-2.07c1.09-.03 2.03.81 2.07 1.92.22 5.68 2.42 13.78 7.95 17.94.87.66 1.06 1.92.4 2.8-.4.54-1.02.81-1.65.79zM15.35 87.32c-.35 0-.7-.11-1.02-.31C1.48 78.85.61 59.09 1.94 49.77c.16-1.09 1.17-1.82 2.26-1.69 1.09.16 1.85 1.17 1.7 2.27-1.41 9.79.24 26.75 10.57 33.3.93.59 1.21 1.82.62 2.75-.39.61-1.07.94-1.74.92z"/><path clip-path="url(#b)" fill="#FFF" d="M18.06 48.4c-2.69 4.74-7.43 17.73-8.49 35.58 0 0-1.32 4.76 6.82 9.42 6.33 3.64 14.07 6.81 24.63 9.89 11.18 3.26 21.68 5.01 30.12 5.22 0 0 9.89 2.54 12.22-7.75 0 0 4.36-18.3 6.59-27.48 0 0 4.24-12.57-9.52-15.06-7.31-1.32-15.8-3.9-25.98-6.59-10.99-2.89-20.99-7.07-24.65-8.03-5.14-1.34-9.05.05-11.74 4.8"/><path fill="#FFF" d="M115.59 47.76c-.1-5.75-5.72-15.1-6.79-15.23-1.11-.09-5.88 7.07-6.62 14.41-.69 5.27 2.25 9.07 6.44 9.09 4.64.01 6.97-3.11 6.97-8.27z"/><g fill="#2F2F2F"><path d="M34.16 28.58c.27-.93.64-1.76 1.06-2.55 1.81.23 3.78.38 6 .3 3.28-.08 5.9-.97 8.06-2.11 1.51 2.31 2.04 5.46 1.17 8.66-1.47 5.38-6.29 8.79-10.79 7.6-4.51-1.18-6.96-6.53-5.5-11.9zM87.25 43.11c-1.48 5.37-6.32 8.78-10.8 7.58-4.5-1.17-6.96-6.51-5.49-11.9.9-3.36 3.12-5.95 5.75-7.12 1.3 2.16 3.18 4.37 6.12 6.17 1.69 1.01 3.27 1.78 4.79 2.45-.02.92-.12 1.86-.37 2.82z"/></g></svg>