<svg xmlns="http://www.w3.org/2000/svg" width="128" height="128" viewBox="0 0 128 128"><path fill="#FBB817" d="M121.658 78.554c9.703-29.641 1.954-54.851-20.443-65.471C72.656-.483 44.795 6.528 26.42 24.859c-7.644 7.626-14.05 16.007-20.284 32.648-7.771 20.77-4.625 38.862-3.854 43.545 2 12.017 29.334 21.361 62.182 21.361 0 0 .063-.007.113-.007l.072.007c8.379 0 16.268-.625 23.467-1.732.2-.034.426-.054.63-.095.077-.013.168-.021.24-.039 19.804-3.148 34.258-9.995 37.187-18.194.426-.995.761-2.008.861-3.035.636-6.485-9.356-8.567-5.376-20.764"/><path fill="#FFF" d="M91.207 25.736c10.281 2.813 17.659 12.806 15.93 23.42-1.99 12.208-14.785 19.722-27.723 15.2-12.353-4.319-17.675-17.267-13.001-27.687 4.108-9.151 14.876-13.646 24.794-10.933zM60.127 28.549C60.106 39.709 50.3 49.917 38.5 50.158c-11.514.236-18.793-9.204-16.732-19.981 1.863-9.752 10.886-17.453 20.488-18.036 9.803-.591 17.889 6.357 17.871 16.408z"/><path fill="#2F2F2F" d="M38.65 46.982c-2.936-.814-5.472-2.466-7.324-4.822-2.629-3.319-3.435-7.469-2.267-11.074 1.179-3.58 3.451-6.477 6.397-8.227 2.417-1.441 5.225-2.031 7.521-1.596 2.838.548 5.183 2.271 6.18 4.597.934 2.167.635 4.702-.871 7.144-1.156 1.859-3.067 3.107-5.094 3.321-1.96.2-3.711-.535-4.799-2.004-.741-.991-.435-2.453.657-3.273 1.077-.812 2.548-.694 3.287.268.25.321.567.365.795.339.42-.045.853-.348 1.168-.833.732-1.14.911-2.181.542-3.097-.447-1.118-1.73-2.047-3.176-2.319-.916-.174-2.444-.011-4.058.97-1.296.789-3.044 2.369-3.974 5.42-.648 2.146-.002 4.792 1.736 6.905 2.188 2.662 5.636 3.981 9.383 3.559 7.494-.848 10.464-6.719 11.584-11.262 2.244-9.074-5.402-15.061-10.347-16.057-5.93-1.179-12.219.966-16.642 5.783-4.463 4.858-5.43 9.73-5.273 11.87.1 1.256-.923 2.543-2.278 2.872-1.358.331-2.525-.442-2.596-1.707-.188-3.782 1.574-9.748 6.876-15.338 5.606-5.919 13.76-8.624 21.141-7.182 7.277 1.438 16.163 9.655 13.692 20.697-1.963 8.807-7.678 14.521-16.034 15.497-2.17.254-4.276.091-6.226-.451z"/><path fill="#E75625" d="M28.637 97.576c-6.717.871-12.343-2.321-13.447-9.537-.511-3.301.705-6.661 2.169-9.537C21.94 69.515 32.194 60.96 42.64 60.745c8.014-.164 16.265 4.33 21.062 10.655 4.686 6.179 8.553 17.251 6.798 25.466-1.308 6.119-6.1 10.85-12.717 10.736-7.302-.126-10.641-3.277-16.295-7.353-4.191-3.034-8.022-3.322-12.715-2.693a.869.869 0 0 0-.136.02z"/><path fill="#2F2F2F" d="M75.592 64.349c-2.441-.938-4.672-2.287-6.524-3.971-7.375-6.706-8.435-17.523-3.829-25.746 3.672-6.561 10.332-11.056 17.482-11.924 5.611-.685 11.774.668 17.151 3.965 8.902 6.012 10.061 13.255 10.502 19.11-.077 1.627-.893 2.262-2.18 2.28-1.313.012-2.176-.653-2.365-2.171-.378-5.654-1.045-10.886-8.78-16.251-4.45-2.92-9.705-3.713-14.241-3.212-5.633.623-10.876 4.223-13.69 9.487-3.457 6.463-2.954 15.104 3.058 20.163 3.631 3.058 8.861 5.005 13.595 4.035 3.987-.814 7.379-2.807 9.24-8.054 1.412-4.536.526-8.599-2.158-11.559-2.299-2.528-6.565-4.382-10.229-2.682-3.058 1.417-4.148 4.563-3.353 6.506.442 1.081 1.689 2.212 3.435 2.312.576.031 2-.005 2.648-1.002.698-1.075 2.149-1.419 3.273-.778 1.139.66 1.519 2.1.821 3.224-1.415 2.271-4.137 3.521-7.2 3.303-3.509-.254-6.084-2.634-7.07-5.336-1.451-3.972.483-9.729 5.778-12.001 6.093-2.396 12.105-.476 15.669 3.916 3.772 4.354 4.919 9.913 3.156 16.256-1.886 5.726-6.468 10.102-12.55 11.271-3.836.736-7.946.281-11.639-1.141z"/></svg>