<svg xmlns="http://www.w3.org/2000/svg" width="128" height="128" viewBox="0 0 128 128"><path fill="#FCC21B" d="M126.91 60.13c-1.33-9.43-6.81-18.97-12.84-26.39-2.43-2.98-5.12-5.75-7.94-8.34-1.39-1.28-2.86-2.45-4.28-3.7-1.96-1.74-3.14-4.02-4.48-6.23-.88-1.46-1.97-2.8-3.12-4.07-2.63-2.89-5.27-5.62-9.27-6.48-.96-.21-2.24-.28-3.18.02-2.21.68-3.13 2.22-.66 3.32.78.34 1.55.63 2.2 1.24.4.38 1.47 2.16.16 2.02-1.31-.14-2.76-1.15-4.03-1.57-1.34-.44-2.71-.68-4.12-.66-2.77.02-5.54.92-7.21 3.29-1.91 2.74-2.4 6.74-1.49 10.03.73 2.67 2.59 5.09 5.03 6.36 2.42 1.25 5.25 1.9 7.9 2.4 4.4.84 8.23 1.99 11.88 4.72 3.33 2.52 5.96 5.84 8.5 9.09 4.71 6 8.2 12.99 8.95 20.66.09.97.19 1.89.19 2.89 0 1.39.02 4.19-1.59 4.87-.28-.47-.41-.91-.41-.91v.01c-5.23-16.24-16.83-32.71-42.64-32.71-25.9 0-37.5 16.62-42.7 32.92-.08.21-.21.52-.44.85-.07.01-.13.01-.21.01-2.22-.19-2.16-3.49-2.16-5.03 0-1 .09-1.92.18-2.89.75-7.67 4.23-14.67 8.94-20.66 2.57-3.25 5.18-6.57 8.52-9.09 3.64-2.72 7.47-3.88 11.87-4.72 2.65-.51 5.49-1.16 7.9-2.4 2.44-1.27 4.29-3.69 5.03-6.36.92-3.29.42-7.29-1.49-10.03-1.65-2.37-4.44-3.26-7.2-3.29-1.41-.02-2.79.22-4.12.66-1.27.42-2.72 1.42-4.03 1.57-1.32.14-.25-1.63.16-2.02.64-.61 1.42-.9 2.2-1.24 2.46-1.1 1.54-2.64-.67-3.32-.95-.31-2.23-.23-3.19-.02-3.99.86-6.64 3.58-9.27 6.48-1.16 1.26-2.23 2.6-3.12 4.07-1.33 2.21-2.52 4.49-4.49 6.23-1.4 1.25-2.88 2.43-4.26 3.7-2.83 2.6-5.53 5.36-7.96 8.34C7.89 41.16 2.41 50.71 1.09 60.13-1.48 78.4 4.39 92.58 10.62 101c9.36 12.69 26.66 16.47 27.38 16.63 7.53 2.05 16.63 3.25 26.43 3.25 16.63 0 31.2-3.45 39.53-8.63 4.71-2.56 9.69-6.19 13.42-11.24 6.22-8.43 12.1-22.61 9.53-40.88z"/><path fill="#2F2F2F" d="M48.78 76.65c-3.1 0-5.62-3.02-5.62-6.77 0-3.74 2.52-6.78 5.62-6.78 3.09 0 5.62 3.04 5.62 6.78 0 3.75-2.53 6.77-5.62 6.77zM82.96 87.23c-.22.34-5.33 8.03-16.65 8.03-.5 0-1-.01-1.53-.05-12.12-.71-16.79-7.4-16.98-7.68-.88-1.3-.55-3.06.75-3.95 1.31-.87 3.05-.55 3.93.73.19.24 3.54 4.68 12.64 5.22 9.19.55 13.02-5.33 13.05-5.39.84-1.32 2.61-1.7 3.94-.85 1.32.86 1.7 2.62.85 3.94zM80.43 76.65c-3.1 0-5.61-3.02-5.61-6.77 0-3.74 2.52-6.78 5.61-6.78 3.09 0 5.61 3.04 5.61 6.78 0 3.75-2.52 6.77-5.61 6.77z"/></svg>