<svg xmlns="http://www.w3.org/2000/svg" width="128" height="128" viewBox="0 0 128 128"><path fill="#2F2F2F" d="M58.39 116.04s-3.6-.32-3.57.94l-10.63 2.06L8.8 105.62l3.32-16.75s9.07-6.24 9.33-6.24c.25 0 41.7 22.64 41.7 22.64l-4.76 10.77zM69.62 116.04s3.61-.32 3.57.94l10.64 2.06 35.38-13.42-3.33-16.75s-9.06-6.24-9.32-6.24-41.7 22.64-41.7 22.64l4.76 10.77z"/><path fill="#FCC21B" d="M74.76 110.39c2.85-1.66 5.85-2.51 8.75-3.34l.17-.04c3.09-.89 5.68-1.42 8.14-1.67 1.22-.13 2.44-.21 3.66-.29 2.08-.14 4.07-.27 5.97-.62 1.56-.28 3.33-.71 4.94-1.39.12-.17.25-.34.34-.52.1-.17.17-.35.24-.53.17-.35.3-.7.42-1.06.04-.17.09-.33.13-.5.12-.51.2-1.03.2-1.56 0-1.11.01-2.76-.04-4.77 0-.01.01 0 .01-.01-.09-2.4 2.28-2.33 3.58-1.14 2.82 2.61 3.8 7.84.88 10.74-2.68 2.62-6.48 3.7-10.06 4.35-.42.07-.83.09-1.23.14-2.88.4-5.78.51-8.66.81-2.56.26-5.05.84-7.52 1.55-2.77.79-5.58 1.57-8.09 3.03-.9.51-2.02 1.26-2.76 2.2-.28.35-.49.73-.62 1.12-.01.03-.02.07-.02.1-.11.4-.15.82-.04 1.26.51 2.08 3.14 2.58 4.95 2.63 1.34.04 2.69-.04 4.03-.11.54-.03 1.07-.03 1.6-.07 1.58-.13 3.17-.3 4.76-.45 10.91-1.07 23.01.63 32.49-6.03.87-.62 1.62-1.32 2.32-2.07.23-.26.44-.54.65-.81a15.348 15.348 0 0 0 1.75-2.73c.25-.5.46-1.03.67-1.56.17-.46.35-.9.49-1.37.12-.39.18-.79.28-1.19.52-2.28.68-4.68.48-7.05 0-.04 0-.08-.01-.12-.08-.9-.21-1.79-.38-2.67-.34-1.75-.81-3.46-1.49-5.01-1.78-4.05-4.47-7.65-7.42-10.9-1.71-1.89-3.53-3.68-5.4-5.39-4.01-3.66-11.24-9.47-13.61-13.83v.02c-6.17-10.41-16.82-18.71-35.28-18.71-18.47 0-29.12 8.3-35.29 18.71l-.01-.02c-2.37 4.36-9.6 10.17-13.6 13.83-1.88 1.71-3.7 3.5-5.4 5.39-2.95 3.25-5.64 6.86-7.42 10.9-.22.53-.39 1.1-.58 1.65-.33.94-.61 1.93-.83 2.94 0 .04 0 .08-.03.13-.2.95-.34 1.93-.43 2.91l-.03.43c-.06.89-.09 1.79-.06 2.68l.06.82c.05.77.13 1.54.27 2.3.07.4.18.79.27 1.19.16.63.3 1.25.51 1.86.18.5.41.99.64 1.47.21.48.4.97.66 1.42.34.58.75 1.11 1.16 1.66.23.31.42.65.7.95.72.8 1.52 1.54 2.45 2.19 9.49 6.67 21.59 4.97 32.5 6.03 1.59.15 3.18.32 4.76.45.54.04 1.07.04 1.6.07 1.34.07 2.68.15 4.03.11 1.81-.06 4.43-.55 4.94-2.63.11-.44.08-.86-.04-1.26-.01-.03-.01-.07-.02-.1-.12-.39-.34-.77-.61-1.12-.73-.94-1.87-1.69-2.76-2.2-2.51-1.46-5.32-2.24-8.09-3.03-2.46-.71-4.96-1.29-7.51-1.55-3.3-.34-6.64-.37-9.91-.95-.76-.14-1.53-.3-2.31-.5-.4-.1-.78-.22-1.19-.34-.36-.11-.71-.21-1.06-.34-.48-.17-.95-.35-1.42-.56-.25-.11-.49-.23-.72-.35-1.21-.6-2.37-1.3-3.35-2.26-2.93-2.89-1.94-8.12.87-10.74 1.3-1.19 3.67-1.26 3.58 1.14-.05 2.02-.04 3.67-.04 4.78 0 .53.08 1.05.2 1.56.04.17.09.33.14.5.11.36.25.72.41 1.07.09.17.15.34.24.52.1.17.22.34.34.51 1.63.69 3.4 1.12 4.96 1.4 1.9.35 3.88.48 5.97.62 1.22.08 2.44.16 3.65.29 2.46.26 5.05.78 8.15 1.67l.16.04c2.9.83 5.89 1.68 8.76 3.34 3.25 1.87 4.66 3.86 5.13 5.66.15.01.29.03.45.03.08.01.15.02.22.02 1.63.07 3.28.12 4.96.12 1.67 0 3.32-.05 4.95-.12.07 0 .15-.01.22-.02.14-.01.28-.02.43-.02.44-1.83 1.85-3.82 5.1-5.69z"/><path fill="#2F2F2F" d="M72.73 93c6.45-5.7 16.41-9.03 16.83-9.18 1.09-.36 2.26.22 2.61 1.31.38 1.09-.22 2.27-1.31 2.63-.07.02-4.38 1.48-8.96 3.98 2.82-.07 6.05.16 9.04.91a2.07 2.07 0 0 1 1.5 2.53c-.24.94-1.08 1.56-2 1.56-.17 0-.34-.02-.51-.06-6.83-1.72-15.35-.1-15.44-.09-.91.19-1.85-.27-2.26-1.1-.4-.85-.21-1.87.5-2.49zM55.77 95.48c-.41.83-1.35 1.29-2.27 1.1-.08-.01-8.64-1.61-15.44.09a2.081 2.081 0 0 1-2.52-1.5c-.28-1.13.39-2.25 1.5-2.53 2.99-.75 6.15-.96 9.04-.91-4.58-2.5-8.89-3.96-8.96-3.98-1.09-.35-1.67-1.54-1.31-2.63s1.54-1.69 2.63-1.31c.42.14 10.36 3.48 16.82 9.18.71.63.92 1.65.51 2.49z"/><path fill="#FFF" d="M90.26 72.06c-1.69.58-3.73.4-5.17-.58-1.75-1.24-2.04-2.88-2.38-4.89-.2-1.18-.28-2.31-.28-3.26.01-2.45-.69-4.78-.74-7.18-.02-.68.18-1.6 1-1.47.69.09 1.63.69 2.22 1.05 3.98 2.27 8.18 6.11 8.29 11.09.07 2.9-1.33 4.7-2.94 5.24z"/></svg>