<svg xmlns="http://www.w3.org/2000/svg" width="128" height="128" viewBox="0 0 128 128"><path fill="#FCC21B" d="M123.32 83.73c-3.79-8.29-13.58-19.56-19.51-31.04-4.48-8.7-14.66-26.99-39.8-26.99-25.15 0-35.32 18.29-39.81 26.99C18.27 64.17 8.47 75.44 4.69 83.73 2.34 88.86.69 94.51.54 100c0 .04-.02.07-.02.11 0 11.41 28.43 20.65 63.48 20.65s63.47-9.25 63.47-20.65c-.13-5.52-1.79-11.22-4.15-16.38z"/><path fill="#2F2F2F" d="M45.76 68.07c-3.84 0-6.95-3.75-6.95-8.4 0-3.08 1.38-5.74 3.42-7.2 3.24 2.85 6.91 3.3 9.58 3.13.56 1.2.91 2.59.91 4.07 0 4.64-3.12 8.4-6.96 8.4zM66.38 91.27c-1.48.9-4.83 1.35-5.72-.43-1.02-2.06-3.55-3.25-4.82-5.21-1.31-2.03-1.16-4.27.23-6.25.67-.95-.7-2.41-1.01-3.34-.4-1.17-.39-2.54-.07-3.74 1.01-3.73 5.32-3.82 8.64-5.06.78-.31 1.43-.36 2.23.05.75.4 1.3 1.28.59 1.87-.52.45-1.24.68-1.93.82-1.74.32-4.48.11-5.61 1.56-.92 1.16-.78 2.98-.08 4.19 1.07 1.89 3.19 1.43 5.08 2.04.5.15.78.64.75 1.07-.03.17-.11.32-.25.46-.62.55-1.66.55-2.44.69-.88.18-1.72.24-2.33.88-.99 1.04-.96 3.35-.04 4.47 1.1 1.3 3.3 1.53 4.72 2.51.76.51 3.51 2.53 2.06 3.42zM81.63 68.07c-3.83 0-6.96-3.75-6.96-8.4 0-1.49.35-2.87.91-4.07 2.67.17 6.34-.28 9.58-3.13 2.04 1.46 3.43 4.12 3.43 7.2 0 4.64-3.11 8.4-6.96 8.4z"/></svg>