<svg xmlns="http://www.w3.org/2000/svg" xmlns:xlink="http://www.w3.org/1999/xlink" width="128" height="128" viewBox="0 0 128 128"><defs><path id="a" d="M123.89 39.28c-.58-4.05-1.58-7.29-1.11-11.48.45-3.93 1.44-7.86.9-11.84-.43-3.15-1.5-6.08-3.08-8.9-1.9-3.39-5.41-5.85-9.24-6.7-2.43-.54-5-.42-7.38.53-1.31.53-2.43 1.33-3.57 2.18-5.19 3.84-3.72 7.56-.84 12.25 1.1 1.81 1.65 4.42-1.08 5-1.33.27-2.36-.93-3.67-.72-2.21.32-3.97 2.36-3.33 4.64.73 2.57 4.37 4.23 6.43 5.55 1.94 1.22 3.88 2.41 5.82 3.62 3.46 2.17 3.47 4.29 3.81 8.16.44 5.07.7 10.16.76 15.25.02 2.2-.06 4.41-.11 6.62-.09.46-.25.88-.59.88-.48 0-.99-.93-.99-.93l-.01.03c-7.22-13.68-19.99-25.1-42.6-25.1-22.61 0-35.38 11.41-42.6 25.09l-.01-.02s-.51.93-1 .93c-.35 0-.5-.44-.59-.92-.06-2.19-.14-4.39-.13-6.58.07-5.09.32-10.18.77-15.25.34-3.87.35-6 3.81-8.16 1.94-1.21 3.89-2.4 5.83-3.62 2.07-1.32 5.69-2.98 6.43-5.55.64-2.28-1.12-4.31-3.33-4.64-1.32-.2-2.34.99-3.68.72-2.74-.58-2.18-3.18-1.08-5 2.88-4.69 4.36-8.41-.85-12.25-1.14-.84-2.26-1.65-3.57-2.18-2.38-.95-4.94-1.06-7.39-.53-3.81.85-7.32 3.31-9.22 6.7-1.59 2.82-2.65 5.75-3.08 8.9-.54 3.98.46 7.9.9 11.84.48 4.19-.54 7.42-1.11 11.48C3.27 45.15 2.77 51.06 2.67 57c-.08 4.22.06 8.46.39 12.69 1.07 13.15 2.6 25.38 9.81 41.41l.02-.04c4.41 9.62 25.6 16.91 51.12 16.91 25.52 0 46.7-7.3 51.11-16.92l.02.05c7.2-16.03 8.74-28.25 9.8-41.41.33-4.22.47-8.47.39-12.69-.11-5.94-.6-11.85-1.44-17.72z"/></defs><use xlink:href="#a" overflow="visible" fill="#FCC21B"/><clipPath id="b"><use xlink:href="#a" overflow="visible"/></clipPath><g clip-path="url(#b)"><path fill="#FCC21B" d="M40.36 93.09c-7.66 2.75-16.12-1.13-18.9-8.69-2.78-7.55 1.16-15.92 8.81-18.68 7.64-2.75 16.11 1.15 18.91 8.7 2.77 7.56-1.18 15.92-8.82 18.67z"/><path fill="#FCC01C" d="M40.15 92.53c-7.35 2.64-15.46-1.08-18.13-8.34-2.66-7.25 1.11-15.27 8.46-17.92 7.33-2.64 15.45 1.1 18.14 8.35 2.65 7.25-1.14 15.28-8.47 17.91z"/><path fill="#FCBE1C" d="M39.94 91.97c-7.04 2.53-14.8-1.04-17.36-7.98-2.55-6.94 1.06-14.62 8.1-17.16 7.02-2.52 14.8 1.05 17.37 7.99 2.54 6.95-1.08 14.63-8.11 17.15z"/><path fill="#FBBB1D" d="M39.74 91.42c-6.73 2.42-14.15-.99-16.59-7.63-2.44-6.63 1.01-13.98 7.74-16.4 6.71-2.41 14.14 1.01 16.6 7.64 2.43 6.63-1.04 13.98-7.75 16.39z"/><path fill="#FBB91E" d="M39.53 90.86c-6.41 2.3-13.49-.95-15.82-7.27-2.32-6.32.97-13.33 7.38-15.64 6.4-2.3 13.49.96 15.83 7.29 2.32 6.32-.99 13.32-7.39 15.62z"/><path fill="#FBB71E" d="M39.33 90.3c-6.1 2.19-12.84-.9-15.05-6.92-2.22-6.01.92-12.68 7.02-14.88 6.08-2.19 12.83.91 15.06 6.93 2.2 6.02-.94 12.69-7.03 14.87z"/><path fill="#FBB51F" d="M39.12 89.75c-5.79 2.08-12.18-.85-14.28-6.57-2.1-5.71.87-12.03 6.66-14.12 5.77-2.08 12.17.87 14.29 6.58 2.09 5.71-.89 12.03-6.67 14.11z"/><path fill="#FAB220" d="M38.92 89.19c-5.48 1.97-11.52-.81-13.51-6.21-1.99-5.4.83-11.38 6.3-13.36 5.46-1.96 11.52.82 13.52 6.22 1.98 5.4-.85 11.38-6.31 13.35z"/><path fill="#FAB020" d="M38.71 88.63c-5.17 1.85-10.87-.76-12.74-5.86-1.87-5.09.78-10.74 5.94-12.6 5.15-1.85 10.86.77 12.75 5.87 1.87 5.1-.79 10.74-5.95 12.59z"/><path fill="#FAAE21" d="M38.51 88.07c-4.85 1.74-10.21-.72-11.97-5.51-1.76-4.79.73-10.09 5.58-11.84 4.84-1.74 10.21.73 11.98 5.51 1.75 4.8-.75 10.1-5.59 11.84z"/><path fill="#FAAC22" d="M38.3 87.52c-4.54 1.63-9.56-.67-11.2-5.15-1.65-4.48.69-9.44 5.23-11.08 4.53-1.63 9.55.68 11.21 5.16 1.63 4.48-.71 9.44-5.24 11.07z"/><path fill="#F9A922" d="M38.1 86.96c-4.23 1.52-8.9-.62-10.43-4.8-1.53-4.17.64-8.79 4.87-10.32 4.22-1.52 8.89.63 10.44 4.8 1.52 4.18-.66 8.8-4.88 10.32z"/><path fill="#F9A723" d="M37.89 86.4c-3.92 1.41-8.24-.58-9.67-4.44-1.42-3.86.59-8.14 4.51-9.56 3.91-1.41 8.24.59 9.67 4.45 1.42 3.87-.6 8.15-4.51 9.55z"/><path fill="#F9A524" d="M37.69 85.84c-3.61 1.29-7.59-.53-8.9-4.09-1.31-3.56.54-7.5 4.15-8.79 3.6-1.29 7.58.54 8.9 4.1 1.3 3.55-.56 7.49-4.15 8.78z"/><path fill="#F9A324" d="M37.48 85.29c-3.29 1.18-6.93-.49-8.13-3.74-1.2-3.25.5-6.85 3.79-8.03 3.29-1.18 6.93.49 8.13 3.74 1.2 3.25-.5 6.85-3.79 8.03z"/><path fill="#F8A025" d="M37.28 84.73c-2.98 1.07-6.27-.44-7.36-3.38-1.08-2.94.45-6.2 3.43-7.27 2.97-1.07 6.27.45 7.36 3.39 1.08 2.93-.46 6.19-3.43 7.26z"/><path fill="#F89E26" d="M37.07 84.17c-2.67.96-5.62-.4-6.59-3.03-.97-2.63.4-5.55 3.07-6.51 2.66-.96 5.61.4 6.59 3.03.97 2.64-.4 5.55-3.07 6.51z"/><path fill="#F89C26" d="M36.86 83.62c-2.36.84-4.96-.35-5.82-2.68-.86-2.33.36-4.9 2.71-5.75 2.35-.85 4.96.35 5.82 2.68.86 2.32-.35 4.9-2.71 5.75z"/><path fill="#F89A27" d="M36.66 83.06c-2.05.73-4.31-.3-5.05-2.32-.74-2.02.31-4.25 2.35-4.99 2.04-.73 4.3.31 5.05 2.32.75 2.02-.31 4.25-2.35 4.99z"/><path fill="#F79728" d="M36.45 82.5c-1.73.62-3.65-.26-4.28-1.97-.63-1.71.26-3.61 2-4.23 1.73-.62 3.65.26 4.28 1.97.63 1.72-.26 3.61-2 4.23z"/><path fill="#F79528" d="M36.25 81.94c-1.42.51-2.99-.21-3.51-1.61-.52-1.4.22-2.96 1.64-3.47 1.42-.51 2.99.21 3.51 1.62.51 1.4-.22 2.95-1.64 3.46z"/><path fill="#F79329" d="M36.04 81.39c-1.11.4-2.34-.17-2.74-1.26-.4-1.09.17-2.31 1.28-2.71 1.11-.4 2.33.17 2.74 1.26.41 1.1-.17 2.31-1.28 2.71z"/></g><g clip-path="url(#b)"><path fill="#FCC21B" d="M98.79 92.38c-7.66 2.75-16.11-1.13-18.9-8.69-2.78-7.55 1.16-15.92 8.81-18.68 7.64-2.75 16.11 1.15 18.91 8.7 2.77 7.56-1.17 15.93-8.82 18.67z"/><path fill="#FCC01C" d="M98.59 91.82c-7.35 2.64-15.46-1.08-18.13-8.34-2.66-7.25 1.11-15.27 8.46-17.92 7.33-2.64 15.45 1.1 18.14 8.35 2.65 7.25-1.14 15.28-8.47 17.91z"/><path fill="#FCBE1C" d="M98.38 91.26c-7.04 2.53-14.8-1.04-17.36-7.98-2.55-6.94 1.06-14.62 8.1-17.16 7.02-2.52 14.8 1.05 17.37 7.99 2.54 6.95-1.09 14.63-8.11 17.15z"/><path fill="#FBBB1D" d="M98.17 90.71c-6.73 2.42-14.15-.99-16.59-7.63-2.44-6.63 1.02-13.97 7.74-16.4 6.71-2.41 14.14 1.01 16.6 7.64 2.43 6.63-1.03 13.98-7.75 16.39z"/><path fill="#FBB91E" d="M97.97 90.15c-6.41 2.3-13.49-.95-15.82-7.28-2.32-6.32.97-13.33 7.38-15.64 6.4-2.3 13.49.96 15.83 7.29 2.31 6.33-.99 13.33-7.39 15.63z"/><path fill="#FBB71E" d="M97.76 89.59c-6.1 2.19-12.83-.9-15.05-6.92-2.21-6.02.92-12.68 7.02-14.88 6.09-2.19 12.83.91 15.06 6.93 2.21 6.03-.94 12.69-7.03 14.87z"/><path fill="#FBB51F" d="M97.56 89.04c-5.79 2.08-12.18-.85-14.28-6.57-2.1-5.71.87-12.03 6.66-14.12 5.77-2.08 12.17.87 14.29 6.58 2.09 5.71-.89 12.03-6.67 14.11z"/><path fill="#FAB220" d="M97.35 88.48c-5.48 1.97-11.52-.81-13.51-6.21-1.99-5.4.83-11.38 6.3-13.36 5.46-1.96 11.52.82 13.52 6.22 1.98 5.41-.84 11.39-6.31 13.35z"/><path fill="#FAB020" d="M97.15 87.92c-5.17 1.85-10.87-.76-12.74-5.86-1.87-5.09.78-10.73 5.94-12.6 5.15-1.85 10.86.77 12.75 5.87 1.86 5.1-.8 10.74-5.95 12.59z"/><path fill="#FAAE21" d="M96.94 87.36c-4.85 1.74-10.21-.72-11.97-5.51-1.76-4.78.73-10.08 5.58-11.84 4.84-1.74 10.21.73 11.98 5.51 1.76 4.81-.74 10.1-5.59 11.84z"/><path fill="#FAAC22" d="M96.74 86.81c-4.54 1.63-9.56-.67-11.2-5.15-1.65-4.48.69-9.44 5.22-11.08 4.53-1.63 9.55.68 11.21 5.16 1.64 4.48-.7 9.44-5.23 11.07z"/><path fill="#F9A922" d="M96.53 86.25c-4.23 1.52-8.9-.63-10.44-4.8-1.53-4.17.64-8.79 4.87-10.32 4.22-1.52 8.89.63 10.44 4.81 1.53 4.18-.65 8.79-4.87 10.31z"/><path fill="#F9A723" d="M96.33 85.69c-3.92 1.41-8.24-.58-9.67-4.45-1.42-3.86.59-8.14 4.51-9.55 3.91-1.4 8.24.59 9.67 4.45 1.42 3.87-.6 8.15-4.51 9.55z"/><path fill="#F9A524" d="M96.12 85.14c-3.61 1.29-7.59-.53-8.9-4.09-1.31-3.55.54-7.49 4.15-8.79 3.6-1.29 7.58.54 8.9 4.1 1.31 3.55-.55 7.48-4.15 8.78z"/><path fill="#F9A324" d="M95.92 84.58c-3.29 1.18-6.93-.49-8.13-3.74-1.19-3.25.5-6.84 3.79-8.03 3.29-1.18 6.93.49 8.13 3.74 1.19 3.25-.51 6.85-3.79 8.03z"/><path fill="#F8A025" d="M95.71 84.02c-2.98 1.07-6.27-.44-7.36-3.38-1.08-2.94.45-6.2 3.43-7.27 2.98-1.07 6.27.45 7.36 3.39 1.08 2.94-.45 6.19-3.43 7.26z"/><path fill="#F89E26" d="M95.51 83.46c-2.67.96-5.62-.4-6.59-3.03-.97-2.63.4-5.55 3.07-6.51 2.66-.96 5.61.4 6.59 3.03.97 2.64-.41 5.56-3.07 6.51z"/><path fill="#F89C26" d="M95.3 82.91c-2.36.85-4.96-.35-5.82-2.68-.86-2.32.36-4.9 2.71-5.75 2.35-.85 4.96.35 5.82 2.68.86 2.33-.36 4.9-2.71 5.75z"/><path fill="#F89A27" d="M95.1 82.35c-2.04.73-4.31-.3-5.05-2.32-.74-2.02.31-4.25 2.35-4.99 2.04-.73 4.3.31 5.05 2.33.74 2.01-.31 4.24-2.35 4.98z"/><path fill="#F79728" d="M94.89 81.79c-1.73.62-3.65-.26-4.28-1.97-.63-1.71.26-3.6 2-4.23 1.73-.62 3.65.26 4.28 1.97.63 1.72-.27 3.61-2 4.23z"/><path fill="#F79528" d="M94.68 81.24c-1.42.51-2.99-.21-3.51-1.62-.52-1.4.22-2.96 1.64-3.47 1.42-.51 2.99.21 3.51 1.62.52 1.4-.22 2.95-1.64 3.47z"/><path fill="#F79329" d="M94.48 80.68c-1.11.4-2.34-.17-2.74-1.26-.4-1.09.17-2.31 1.28-2.71 1.11-.4 2.34.17 2.74 1.26.4 1.1-.17 2.31-1.28 2.71z"/></g><path fill="#ED6C30" d="M80.41 92.54c-4.08 3.21-9.4 5.13-15.1 5.72-.4.04-.83.03-1.24.04-.41-.01-.83 0-1.23-.04-5.69-.59-11.03-2.51-15.13-5.72-4.27-3.32-7.3-9.17-4.8-13.97.99-1.93 3.13-3.17 5.47-3.54 3.44-.52 7.2 1.45 10.54 1.92 1.71.24 3.42.34 5.12.39 1.7-.04 3.39-.15 5.09-.39 3.36-.48 7.07-2.44 10.51-1.92 2.34.37 4.53 1.61 5.52 3.54 2.48 4.8-.48 10.65-4.75 13.97z"/><path fill="#2F2F2F" d="M40.81 68.87c-.35.84-1.22 1.38-2.15 1.38-.26 0-.52-.05-.78-.13-1.18-.41-1.78-1.61-1.36-2.71.1-.25 2.47-6.13 9.34-6.78 6.88-.66 10.56 4.63 10.72 4.85.69.98.37 2.29-.69 2.94-1.05.62-2.47.34-3.16-.63-.12-.16-2.47-3.28-6.42-2.92-3.97.37-5.43 3.85-5.5 4zM90.31 70.12c-.26.09-.52.13-.78.13-.94 0-1.81-.54-2.15-1.41-.06-.14-1.51-3.61-5.48-3.98-4.06-.32-6.4 2.87-6.42 2.91-.68.99-2.1 1.28-3.16.64-1.06-.63-1.37-1.95-.69-2.94.16-.23 3.79-5.51 10.72-4.85 6.88.64 9.23 6.53 9.34 6.78.42 1.12-.19 2.34-1.38 2.72z"/></svg>