<svg xmlns="http://www.w3.org/2000/svg" width="128" height="128" viewBox="0 0 128 128"><path fill="#2F2F2F" d="M109.46 92.02l-24.01 5.66L74.8 76.63l-7.46-2.53-3.61 2.32-3.36-2.28-7.46 2.54-10.65 21.05-24.01-5.67-4.9 3.72.08 8.96 8.88 8.96 24.92 6.06s7.71-.46 12.72-2.51v.01s2.45-.79 3.84-.79c1.98 0 4.77 1.04 4.77 1.04 4.99 1.79 11.93 2.2 11.93 2.2l24.92-6.05 8.88-8.96.08-8.96-4.91-3.72z"/><path fill="#FCC21B" d="M.6 93.57l-.03.28c-.11 1.27-.1 2.05-.1 2.05-.14 5.62 1.37 11.04 5.49 15.46 1.72 1.83 3.78 3.31 6 4.48 6.9 3.66 14.93 4.57 22.79 4.57 2.81 0 5.61-.12 8.31-.27 8.04-.43 17.6-2.53 18.88-12.12.12-.94.19-19.82.21-21.94-.08-2.5-.88-3.93-2.07-4.71-.46-.29-.87-.42-1.25-.42-1.83 0-2.84 3.03-3.53 4.72-.75 1.88-1.14 3.61-1.56 5.54-.37 1.71-.79 3.6-1.33 5.28-2.11 6.63-9.21 8.45-15.45 8.45h-.64c-4.66-.09-15.76-.21-18.25-5.22-.15-.33-.97-3.82-.4-3.82.43-.29.92-.37 1.45.02.79.6 1.21 1.52 1.89 2.21.35.37.83.68 1.34.97.22.14.5.28.8.41.03 0 .06.02.08.03 1.92.84 5.64 1.63 12.88 1.78l.29.01h.56c4.61 0 10.44-1.03 12.01-5.93.48-1.51.88-3.33 1.24-4.94.41-1.92.85-3.93 1.74-6.12l.19-.45c.89-2.29 2.56-6.54 6.7-6.54 1.11 0 2.19.34 3.21 1.01.8.52 1.44 1.24 1.95 2.04.5-.8 1.14-1.52 1.93-2.04 1.03-.67 2.11-1.01 3.22-1.01 4.14 0 5.81 4.25 6.7 6.54l.19.45c.88 2.2 1.32 4.2 1.74 6.13.35 1.6.75 3.42 1.24 4.93 1.56 4.9 7.39 5.93 12 5.93h.57l.29-.01c7.94-.16 11.65-1.09 13.39-2.02.02-.01.03-.01.05-.01.01 0 .02-.02.03-.02.46-.26.77-.5.98-.74.38-.38.73-.8 1.06-1.2.57-.69 1.34-1.91 2.36-1.92.46-.01.67.2.79.49h-.24c.58 0-.25 3.5-.41 3.82-2.48 5.01-13.58 5.13-18.24 5.22h-.63c-6.25 0-13.35-1.82-15.46-8.45-.53-1.68-.95-3.57-1.32-5.28-.42-1.94-.8-3.66-1.56-5.54-.69-1.69-1.69-4.72-3.52-4.72-.38 0-.79.13-1.24.42-1.2.78-1.82 3.03-2.08 4.71-.1 5.68.09 21 .21 21.94 1.28 9.59 10.84 11.69 18.88 12.12 2.7.15 5.5.27 8.3.27 7.86 0 15.89-.91 22.8-4.57 2.21-1.17 4.28-2.65 6-4.48 4.12-4.43 5.62-9.85 5.49-15.46 0 0 0-.75-.09-1.95a5.62 5.62 0 0 0-.06-.56c-.02-.27-.06-.56-.1-.87-.42-3.36-1.58-8.68-4.87-13.38-5.42-7.72-10.81-9.71-16.73-19.07-.91-2.09-1.86-4.11-2.85-5.98C98.46 45.82 88.53 28.38 64 28.38S29.54 45.82 25.17 54.1c-.99 1.87-1.93 3.89-2.85 5.98-5.92 9.35-11.31 11.34-16.73 19.07-3.28 4.67-4.45 9.94-4.87 13.31-.05.4-.09.77-.12 1.11z"/><path fill="#2F2F2F" d="M72.81 70.1c6.83-6.01 17.33-9.52 17.77-9.68 1.19-.38 2.45.25 2.83 1.42.39 1.17-.24 2.44-1.42 2.83-.06.02-4.49 1.51-9.25 4.09 2.92-.02 6.26.19 9.34.97 1.2.3 1.92 1.53 1.62 2.71a2.221 2.221 0 0 1-2.17 1.69c-.18 0-.36-.02-.55-.06-7.13-1.81-16.17-.12-16.26-.09-.98.18-1.99-.31-2.43-1.21-.46-.9-.24-1.99.52-2.67zM35.25 64.68a2.247 2.247 0 0 1-1.42-2.83 2.235 2.235 0 0 1 2.83-1.42c.44.16 10.94 3.67 17.77 9.68.75.67.98 1.76.53 2.67-.45.9-1.45 1.39-2.44 1.21-.09-.02-9.12-1.71-16.26.09-.19.04-.37.06-.55.06-1 0-1.92-.67-2.17-1.69-.3-1.19.42-2.41 1.62-2.71 3.09-.78 6.43-.99 9.34-.97-4.76-2.58-9.18-4.08-9.25-4.09z"/></svg>