<svg xmlns="http://www.w3.org/2000/svg" width="128" height="128" viewBox="0 0 128 128"><path fill="#2F2F2F" d="M60.4 113.55s3.74-1.93 4.6-1.42h49.97l1.31-28.53-9.79-22.59-84.09-1.56-9.27 18.54.52 30.29 20.11 7.05 26.64-1.78z"/><g fill="#FCC21B"><path d="M.41 94.13C.36 94.75.27 95.37.25 96c-.14 5.78 1.41 11.37 5.66 15.92 5.2 5.58 14.52 8.88 25.49 8.88 9.01 0 19.13-2.23 28.99-7.25-4.7-3.21-9.02-6.89-13.2-10.48l-.12-.11c-.25-.21-.46-.46-.71-.68-.76.22-1.53.46-2.32.59-5.5.89-9.89 1.27-13.38 1.27-11.84 0-13.36-4.37-12.68-8.15 1.02 2.98 4.8 4.55 9.32 4.25.96.1 2.04.17 3.36.17 3.42 0 7.66-.4 12.58-1.19-1.15-1.23-2.23-2.49-3.3-3.73-.68-.79-1.36-1.58-2.05-2.37a58.128 58.128 0 0 0-7.13-6.73c-.35-.29-.91-.65-1.58-1.11-1.43-.98-3.41-2.33-5.11-3.81-3.83-3.35-5.1-7.21-3.49-10.59.73-1.53 2.68-4.09 7.56-4.09.94 0 1.97.09 3.12.29 3.81.62 7.2 2.07 10.47 3.48l.18.08c3.29 1.42 7.54 3.44 11.31 6.49 2.78 2.24 5.38 4.68 7.88 7.03.97.92 1.92 1.78 2.89 2.65.96-.87 1.93-1.73 2.9-2.65 2.51-2.35 5.1-4.78 7.88-7.03 3.77-3.05 8.03-5.07 11.32-6.49l.19-.08c3.26-1.41 6.65-2.86 10.46-3.48 1.17-.2 2.18-.29 3.13-.29 4.88 0 6.83 2.56 7.57 4.09 1.62 3.39.34 7.24-3.49 10.59-1.71 1.49-3.68 2.83-5.11 3.81-.68.46-1.24.82-1.59 1.11a58.025 58.025 0 0 0-7.12 6.73c-.69.78-1.37 1.57-2.06 2.37-1.07 1.25-2.24 2.48-3.4 3.71 4.96.8 9.24 1.21 12.68 1.21 1.32 0 2.4-.07 3.36-.17 4.53.3 8.3-1.27 9.33-4.25.69 3.78-.85 8.15-12.69 8.15-3.49 0-7.88-.38-13.38-1.27-5.54-.9-10.6-3.9-15.08-7.12-6.53-4.69-11.77-10.71-17.99-15.72-3.16-2.55-6.74-4.36-10.45-5.96-3.17-1.37-6.35-2.76-9.78-3.31-.74-.12-1.63-.24-2.52-.24-1.72 0-3.46.41-4.2 1.97-1.1 2.32.96 4.75 2.58 6.17 2.39 2.09 5.44 3.91 6.57 4.83 2.71 2.16 5.28 4.56 7.58 7.16 2.87 3.23 5.53 6.67 8.83 9.49 4.49 3.85 9.01 7.75 13.97 11.02 1.11.72 2.24 1.42 3.41 2.04 10.09 5.27 20.5 7.6 29.72 7.6 10.97 0 20.3-3.3 25.51-8.88 4.24-4.54 5.79-10.13 5.65-15.92-.01-.63-.1-1.27-.16-1.89-.41-4.95-1.9-9.97-4-14.57-3.81-8.33-13.66-19.65-19.6-31.18v.01C99.48 39.62 89.27 21.25 64 21.25c-25.26 0-35.49 18.37-39.98 27.11C18.06 59.88 8.23 71.2 4.42 79.53 2.31 84.14.82 89.18.41 94.13z"/><path d="M80.64 98.13c2.36-2.37 4.47-4.98 6.69-7.48 2.32-2.6 4.88-5 7.59-7.16 1.13-.92 4.19-2.74 6.57-4.83 1.63-1.42 3.69-3.85 2.58-6.17-.75-1.55-2.48-1.97-4.2-1.97-.9 0-1.79.11-2.53.24-3.43.55-6.61 1.94-9.78 3.31-3.7 1.6-7.29 3.41-10.44 5.96-3.62 2.92-6.91 6.14-10.32 9.27 1.39 1.19 2.78 2.36 4.25 3.43 2.65 1.9 5.96 4.06 9.59 5.4z"/></g><path fill="#2F2F2F" d="M55.96 64.81c3.54-2.1 7.93-2.81 12.39-1.38 2.76.87 8.83 3.84 7.93 6.49-.46 1.37-1.91 2.31-3.64 2.16-1.66-.13-5.19-3.15-6.97-3.64-1.84-.51-2.99-.57-4.56.47-2.07 1.38-3.68 4.03-7.06 3.19-1.41-.35-2.53-1.15-2.29-2.91.22-1.68 2.76-3.53 4.2-4.38zM88.54 44.92c-.19-.53-.59-.97-1.11-1.19-.52-.22-1.11-.21-1.63.02l-13.11 5.99s-.86.41-1.73.39c-.78-.01-1.23-.23-1.57-.53l-.01.01s-.04-.04-.05-.06c-.06-.06-.12-.11-.17-.17-.29-.27-.84-.66-1.65-.4-.82.27-.93 1.28-.81 2.17.22.99.5 1.85.81 2.46.47.94 1.51 2.24 1.87 2.59 1.96 1.94 5.3 3.15 8.7 2.95 1.4-.08 2.75-.38 4.02-.9 7.11-2.91 7.75-9.56 6.44-13.33zM38.2 44.92c.18-.53.59-.97 1.11-1.19.52-.22 1.11-.21 1.63.02l13.11 5.99s.86.41 1.73.39c.78-.01 1.23-.23 1.57-.53l.02.01s.03-.04.04-.06c.06-.06.13-.11.17-.17.29-.27.85-.66 1.66-.4.82.27.93 1.28.81 2.17-.22.99-.5 1.85-.81 2.46-.46.94-1.51 2.24-1.87 2.59-1.96 1.94-5.3 3.15-8.71 2.95-1.4-.08-2.75-.38-4.02-.9-7.11-2.91-7.76-9.56-6.44-13.33z"/></svg>