<svg xmlns="http://www.w3.org/2000/svg" width="128" height="128" viewBox="0 0 128 128"><path fill="#FCC21B" d="M111.79 92.66c7.29-23.82 1.46-44.08-15.31-52.61C71.41 27.3 47.76 36.97 33.6 58.18c-1.2 1.81-2.26 3.72-3.25 5.67l-.08-.06c-.52.97-.87 1.04-1.1.83-.11-2.82-.19-5.64-.16-8.46.05-5.03.31-10.04.75-15.06.34-3.82.35-5.91 3.77-8.06 1.91-1.19 3.84-2.37 5.75-3.58 2.04-1.3 5.63-2.93 6.36-5.48.63-2.25-1.11-4.26-3.29-4.59-1.3-.19-2.31 1-3.63.72-2.7-.57-2.15-3.14-1.06-4.92 2.84-4.65 4.3-8.3-.83-12.11-1.13-.83-2.24-1.63-3.53-2.14-2.37-.95-4.91-1.06-7.3-.53-3.79.85-7.25 3.28-9.13 6.62-1.57 2.78-2.62 5.69-3.04 8.79-.54 3.93.46 7.81.88 11.68.47 4.15-.52 7.34-1.1 11.36-.83 5.79-1.32 11.62-1.42 17.47-.07 4.19.06 8.37.39 12.54 1.06 12.99 2.57 25.96 9.68 41.79l.03-.09c1.59 9.67 21.82 17.34 46.59 17.34h.2c6.98 0 13.51-.63 19.38-1.72 14.27-2.62 24.62-8 26.72-14.42.32-.79.55-1.59.63-2.41.5-5.22-7.03-6.89-4.02-16.7z"/><path fill="#2F2F2F" d="M51.29 50.32c2.11-3.58 6.22-5.06 9.16-3.31 2.96 1.75 3.65 6.05 1.54 9.62-2.1 3.57-6.2 5.04-9.16 3.3-2.95-1.73-3.65-6.05-1.54-9.61z"/><path fill="#ED6C30" d="M72.22 93.29c-2.44.31-4.9.27-7.34.01-5.63-.62-11.53-3.08-15.16-7.89-3.67-4.89-4.06-14.76 1.84-17.91 1.73-.93 5.18-1.44 7.06-.77 2.74.98 4.4 3.95 7.27 4.74 3.81 1.04 7.67-.37 11.52-.09 3.2.22 7.3 2.47 8.44 5.78 3.14 9.09-6.47 15.19-13.63 16.13z"/><path fill="#2F2F2F" d="M90 63.14c-2.1 3.56-6.2 5.04-9.15 3.3-2.97-1.72-3.65-6.04-1.54-9.6 2.1-3.59 6.21-5.06 9.16-3.32 2.95 1.75 3.64 6.05 1.53 9.62z"/></svg>