<svg xmlns="http://www.w3.org/2000/svg" xmlns:xlink="http://www.w3.org/1999/xlink" width="128" height="128" viewBox="0 0 128 128"><path fill="#78A3AD" d="M40.68 120.86h-.01c-3.56 0-7.59-.16-13.06-.51-4.54-.29-10.55-1.67-16.06-3.68-4.31-1.59-9.51-4.26-9.79-8.02-.06-.72-.18-2.34 5.1-12.52-5.43-7.07-7.35-16.1-5.22-25.09C4 61.02 11.04 52.77 20.47 48.95a65.27 65.27 0 0 1 6.4-2.2c4-6.68 10.73-13.88 26.14-13.88h.25c.3-.4.67-.9 1.2-1.39.21-.19.44-.43.68-.68.76-.79 1.62-1.69 2.7-2.27.76-.42 1.7-.63 2.8-.63 1.48 0 3.71.43 5.05 1.64 1.22 1.1 1.42 2.25 1.37 3.03-.04.62-.23 1.13-.49 1.55 18.85 3.21 30.41 11.83 41.61 20.19l4.14 3.07c1.33.98 2.66 1.95 3.97 2.96 1.5 1.15 2.88 2.38 4.23 3.59.6.55 1.22 1.09 1.83 1.63 1.48 1.28 2.63 2.93 3.43 4.92 2.18 5.47 1.38 11.42.67 16.68l-.12.92c-.8 6.07-3.15 9.08-8.97 11.53-2.86 1.21-5.73 2.39-8.63 3.51-1.98.76-3.89 1.43-5.8 2.07-4.22 1.72-26.98 10.81-43.71 13.89-7.06 1.28-12.27 1.78-18.54 1.78zM7.76 108.07c.82.78 3.14 2.1 5.82 3.09 3.87 1.41 9.69 3.03 14.41 3.34 5.34.35 9.25.5 12.68.5h.01c5.96 0 10.71-.46 17.49-1.71 16.16-2.97 38.43-11.86 42.73-13.61 2-.68 3.84-1.32 5.74-2.05 2.83-1.09 5.65-2.26 8.45-3.43 3.93-1.66 4.91-2.88 5.43-6.89l.12-.94c.64-4.76 1.3-9.69-.31-13.72-.45-1.11-1.04-1.98-1.81-2.65-.64-.56-1.28-1.13-1.91-1.7-1.32-1.18-2.56-2.29-3.88-3.31-1.28-.99-2.58-1.93-3.88-2.89l-4.17-3.1c-11.81-8.8-22.96-17.13-42.43-19.6a2.936 2.936 0 0 1-2.56-2.74l-.04-.53c-.04-.44-.09-.94-.07-1.47-.07.07-.14.15-.2.21-.33.35-.66.68-.95.95-.19.17-.32.38-.47.57-.23.31-.46.62-.72.91-.21.24-.45.44-.67.64-.56.49-1.48.81-2.12.82-14.16-.42-19.45 5.52-23.1 11.95-.39.69-1.04 1.19-1.81 1.39-2.33.61-4.64 1.38-6.87 2.29C15 57.49 9.28 64.22 7.36 72.37c-1.84 7.8.06 15.62 5.22 21.45.81.91.97 2.24.39 3.31-2.15 4.07-4.56 9.05-5.21 10.94z"/><path fill="#006CA2" d="M4.68 108.42c.19 2.4 6.13 4.85 7.88 5.49 4.53 1.66 10.44 3.2 15.24 3.51 14.18.93 20.63.64 30.9-1.25 18.43-3.38 44.27-14.17 44.27-14.17s10.41-3.07 16.31-7.03c4.64-3.11 5.09-7.26 4.99-7.63-.38-1.45-36.35 11.78-36.9 10.39-.23-.59-.37-1.8-.94-2.09-.51-.26-1.85.43-2.33.56-1.99.53-3.87.63-5.86.85-2.27.25-4.48 1.03-6.7 1.47-2.32.44-4.62.92-6.94 1.38-9.81 1.94-19.11 2.53-29.12 1.82-4-.29-7.91-.88-11.73-2.13-4.09-1.33-13.37-3.82-13.37-3.82s-5.82 10.98-5.7 12.65z"/><path fill="#FFF" d="M44.44 104.95c15.82-.45 31.65-3.62 45.67-7.49 14.25-3.93 25.22-7.63 33.41-10.49.67-5.04 1.46-10.59-.46-15.42-.58-1.46-1.43-2.75-2.62-3.78-1.97-1.71-3.85-3.52-5.93-5.11-1.73-1.33-3.5-2.61-5.25-3.9C95.2 48.37 82 37.12 55.46 35.85c-20.03-.96-25.06 9.62-29.76 19.57-4.14 8.74-10.51 19.86-4.87 46.78 5.09 1.7 13.12 3.05 23.61 2.75z"/><path fill="#40C0E7" d="M70.47 52.99c-2.3 8.52-11.36 9.85-21.89 9.06-10.54-.79-18.53-3.39-16.23-11.92 2.22-8.23 11.36-9.86 21.9-9.07 10.53.79 18.45 3.7 16.22 11.93z"/><defs><path id="a" d="M56.18 103.77c6.12-.74 10.55-.53 15.24-4.91 6.91-6.45 7.13-17 6.13-25.98-.3-2.74-.85-5.44-1.25-8.18-.27-1.84-.23-3.2-.94-4.94-.79-1.95-.88-4.28-2.76-5.52-8.13-5.37-19.64-6.26-29.14-6.67-7.53-.32-14.9 1.26-21.9 4.09-17.57 7.12-23.78 29.88-11.18 44.1 3.72 4.21 9.2 6.55 17.5 8.17 4.89.96 17.73 1.13 28.3-.16z"/></defs><use xlink:href="#a" overflow="visible" fill="#FFF"/><clipPath id="b"><use xlink:href="#a" overflow="visible"/></clipPath><path clip-path="url(#b)" fill="#78A3AD" d="M23.98 93.89c-.81 0-1.59-.05-2.4-.15-9.63-1.18-14.19-9.55-13.57-16.84.26-3.16 1-7.78 4.3-11.4 1.21-1.32 4.69-4.43 10.82-4.67.27-.01.54-.01.8-.01 10.59 0 17.21 8.22 17.49 16.17.32 9.16-5.84 16.07-14.99 16.81-.61.04-1.21.07-1.8.09h-.65zm-.05-30.72c-.23 0-.47 0-.71.01-3.65.15-7.08 1.6-9.18 3.91-2.82 3.09-3.46 7.2-3.7 10.02-.52 6.19 3.34 13.31 11.53 14.32.7.09 1.4.13 2.1.13l.58-.01c.56-.01 1.13-.04 1.69-.08 7.94-.64 13.09-6.42 12.82-14.38-.22-6.85-5.95-13.92-15.13-13.92z"/><path fill="#006CA2" d="M89.79 58.13c4.77 1.72 33.29 13.67 33.29 13.67l.6 5.75-41.61-.66s-3.13-.27-4.41-2.71c-1.76-3.35-1.79-9.72-1.63-14.12.11-8.53 8.98-3.63 13.76-1.93z"/><g fill="#40C0E7"><path d="M86.49 67.3c.56 5-.1 6.92-2.32 6.5-2.29-.44-3.53-2.82-4.13-8.09-.59-5.26.16-7.16 2.49-6.45 2.25.68 3.39 3.05 3.96 8.04zM94.7 68.87c.46 4.09-.04 5.66-1.74 5.33-1.75-.34-2.7-2.27-3.18-6.54-.49-4.27.07-5.82 1.84-5.29 1.71.5 2.61 2.41 3.08 6.5zM101.52 70.09c.39 3.38 0 4.68-1.33 4.41-1.37-.28-2.11-1.85-2.5-5.35-.4-3.49.02-4.78 1.4-4.39 1.34.4 2.05 1.97 2.43 5.33zM106.96 71.2c.31 2.71.02 3.75-1.01 3.53-1.04-.22-1.6-1.47-1.92-4.25-.31-2.77 0-3.81 1.05-3.52 1.03.3 1.58 1.55 1.88 4.24zM111.52 72.25c.24 2.07-.01 2.86-.82 2.7-.84-.17-1.29-1.13-1.54-3.28-.24-2.14.02-2.93.86-2.69.83.24 1.26 1.21 1.5 3.27zM115.67 73.19c.33 1.77.14 2.46-.6 2.34-.77-.13-1.22-.94-1.55-2.77-.33-1.81-.14-2.5.63-2.32.77.16 1.21.98 1.52 2.75zM119.04 73.96c.23 1.39.06 1.94-.54 1.84-.62-.1-.98-.74-1.22-2.18-.23-1.43-.06-1.97.56-1.83.63.14.98.79 1.2 2.17zM121.48 74.52c.18 1.11.06 1.55-.39 1.47-.47-.08-.75-.59-.93-1.74-.18-1.14-.06-1.57.41-1.46.46.11.73.62.91 1.73z"/></g><path fill="#FFF" d="M53.89 36.64c.26-.6.77-.85 1.16-1.29.48-.53.83-1.17 1.39-1.69.81-.74 1.82-2.01 2.8-2.54 1.06-.58 3.62-.17 4.5.61 1.13 1.01-.44 1.19-1 2.03-.66 1 .4 3.59-.47 4.17-.54.36-2.47-.3-3.07-.4-.4-.07-5.23-1.08-5.31-.89z"/><path fill="#78A3AD" d="M40.67 119.1c-3.52 0-7.51-.16-12.94-.51-4.38-.28-10.2-1.62-15.57-3.58-2.52-.93-8.41-3.42-8.65-6.51-.12-1.67 2.92-8.43 4.54-11.91-5.92-7.27-8.07-16.52-5.89-25.5 2.36-9.67 9.29-17.68 18.54-21.42 2.19-.88 4.53-1.5 6.79-2.09l.31-.08c3.62-6.22 9.95-13.2 26.1-12.85.74-1.14 2.46-3.65 4.58-4.74.73-.38 1.8-.46 2.56-.46.66 0 2.87.07 3.92 1.01.64.57.78 1.16.78 1.55.01.94-.68 1.58-1.18 2.05-.18.17-.39.36-.47.48-.11.17-.22.51-.28.94 19.9 2.78 31.8 11.66 43.32 20.24l4.15 3.08c1.32.97 2.64 1.94 3.94 2.94 1.44 1.11 2.81 2.33 4.13 3.5.61.55 1.23 1.1 1.86 1.65 1.26 1.09 2.25 2.51 2.94 4.23 2.01 5.04 1.25 10.75.57 15.79l-.12.93c-.72 5.46-2.64 7.93-7.91 10.14-2.83 1.2-5.69 2.38-8.57 3.48-1.95.75-3.84 1.41-5.73 2.05-4.29 1.75-26.91 10.78-43.47 13.82-7.06 1.29-11.99 1.77-18.25 1.77zm12.15-82.11c-14.44 0-19.84 6.12-23.22 12.11-.15.28-.42.48-.72.56l-.79.21c-2.19.57-4.46 1.17-6.51 1.99-8.55 3.45-14.96 10.85-17.14 19.79-2.1 8.59 0 17.12 5.89 24 .3.35.37.85.17 1.27-2.23 4.71-4.63 10.41-4.64 11.43.08 1.04 3.27 3.05 7.11 4.46 5.16 1.88 10.74 3.17 14.91 3.44 5.38.35 9.32.5 12.79.5 6.09 0 10.92-.47 17.82-1.73 16.34-3 38.75-11.95 43.08-13.72 1.92-.65 3.78-1.3 5.71-2.04 2.85-1.09 5.68-2.26 8.5-3.46 4.54-1.91 5.88-3.61 6.49-8.28l.12-.94c.67-4.98 1.36-10.13-.42-14.61-.55-1.37-1.32-2.49-2.3-3.33-.63-.55-1.26-1.11-1.89-1.67-1.28-1.15-2.61-2.34-3.98-3.39-1.29-.99-2.6-1.95-3.91-2.91l-4.16-3.09c-11.47-8.56-23.34-17.4-43.26-19.93-.56-.07-.99-.53-1.02-1.1-.08-1.31.18-2.55.7-3.32.23-.36.55-.65.83-.91.07-.06.15-.14.22-.22-.4-.17-1.17-.33-2.15-.33-.81 0-1.33.12-1.49.2-1.68.87-3.22 3.23-3.79 4.11-.22.35-.32.48-.47.61-.21.2-.48.29-.81.29-.57.02-1.13.01-1.67.01z"/><g><path fill="#FCC21B" d="M59.76 80.64a4.936 4.936 0 0 1-4.79 5.1 4.951 4.951 0 0 1-5.11-4.79 4.957 4.957 0 0 1 4.79-5.11 4.966 4.966 0 0 1 5.11 4.8z"/></g></svg>