<svg xmlns="http://www.w3.org/2000/svg" xmlns:xlink="http://www.w3.org/1999/xlink" width="128" height="128" viewBox="0 0 128 128"><path fill="#78A3AD" d="M42.11 121.26c-24.83 0-39.81-8.51-41.1-23.36-.46-5.26.72-13.7 3.81-18.98 2.69-4.58 6.09-7.91 9.37-11.13 3.98-3.9 7.74-7.59 9.74-13.2 2.37-6.64 5.92-15.19 12.36-22.52 3.31-3.76 7.75-6.75 12.84-8.66 3.98-1.49 8.85-2.28 14.08-2.28 3.29 0 6.64.31 9.71.92 11.25 2.19 20.97 8.28 30.38 14.18l1.14.71a509.15 509.15 0 0 1 17.98 11.75c1.9.89 4.68 3.3 4.68 7.53v6.9c0 .79-.31 1.55-.88 2.11l-35.35 34.81c-.85.98-7.02 7.99-15.17 13.22-5.34 3.43-11.1 5.63-17.62 6.74-2.76.47-8.48 1.26-15.97 1.26zm21.1-94.22c-4.53 0-8.68.66-12.01 1.9-4.18 1.57-7.8 4-10.46 7.03-4.58 5.2-7.93 11.36-11.23 20.6-2.46 6.9-6.89 11.24-11.17 15.44-3.14 3.08-6.12 5.99-8.41 9.9-2.1 3.59-3.47 10.53-3.04 15.47 1.41 16.21 25.1 17.96 35.21 17.96 5.15 0 10.61-.43 14.98-1.17 7.61-1.29 12.44-3.98 15.41-5.89 7.83-5.03 13.89-12.1 13.95-12.17.06-.07.12-.13.18-.19l34.56-34.03v-5.67c0-1.64-1.27-2.17-1.27-2.18-.22-.08-.42-.19-.61-.32-5.56-3.82-11.44-7.67-18-11.78l-1.14-.71c-8.95-5.61-18.21-11.4-28.38-13.39-2.7-.52-5.66-.8-8.57-.8z"/><defs><path id="a" d="M120.97 51.28c-5.94-4.09-11.99-8.01-18.1-11.84-9.49-5.94-19.37-12.32-30.52-14.5-6.85-1.34-15.55-1.26-22.19 1.23-4.4 1.65-8.53 4.3-11.65 7.84-5.57 6.34-8.97 13.68-11.79 21.57C22.78 66.61 13.13 70.6 7.36 80.42c-2.57 4.4-3.86 12.1-3.42 17.22 1.97 22.61 38.81 21.97 53.63 19.45 7.64-1.3 12.83-3.96 16.52-6.32 8.32-5.35 14.6-12.75 14.6-12.75l35.45-34.9v-6.9c0-3.71-3.17-4.94-3.17-4.94z"/></defs><use xlink:href="#a" overflow="visible" fill="#FFF"/><clipPath id="b"><use xlink:href="#a" overflow="visible"/></clipPath><path clip-path="url(#b)" fill="#40C0E7" d="M99.2 61.91c0 2.48-1.28 4.89-3 5.42l-2.08.63c-2.23.68-4.3-1.41-4.3-4.74V50.25c0-3.33 2.07-5.27 4.3-4.44l2.08.78c1.72.65 3 3.16 3 5.64v9.68zm9.6-8.02c0-1.77-.79-3.47-1.85-3.78l-1.23-.38c-1.25-.37-2.37 1.07-2.37 3.24v8.47c0 2.17 1.11 3.66 2.37 3.35l1.23-.3c1.05-.26 1.85-1.9 1.85-3.68v-6.92zm5.75.75c0-1.3-.5-2.5-1.17-2.68l-.78-.2c-.8-.21-1.53.92-1.53 2.52v6.28c0 1.61.72 2.64 1.53 2.33l.78-.31c.67-.27 1.17-1.53 1.17-2.84v-5.1zm3.39.36c0-1.01-.3-1.91-.68-2.02l-.44-.12c-.45-.12-.84.75-.84 1.92v4.6c0 1.18.39 1.99.84 1.81l.44-.18c.38-.15.68-1.1.68-2.1V55zm2.14.22c0-.82-.19-1.54-.45-1.61l-.29-.08c-.28-.07-.52.62-.52 1.56v3.62c0 .93.24 1.6.52 1.49l.29-.12c.25-.1.45-.85.45-1.67v-3.19zm1.8.2c0-.65-.13-1.22-.32-1.27l-.2-.06c-.2-.06-.37.49-.37 1.23v2.87c0 .73.17 1.26.37 1.17l.2-.09c.19-.08.32-.67.32-1.32v-2.53z"/><path clip-path="url(#b)" fill="#78A3AD" d="M4.55 96.64s3.75 7.89 15.78 11.24c12.03 3.35 29.38 4.53 39.64-.59 10.25-5.13 30.37-19.92 30.37-19.92l34.12-26.62v3.55l-42.41 41.8s-13.01 13.61-28.4 13.61c-15.38 0-29.21.85-37.47-3.75C.61 107.29 4.55 96.64 4.55 96.64z"/><path clip-path="url(#b)" fill="#FFF" d="M126.73 59.14c-.25-.12-.73-.14-1.06-.06 0 0-.11.07-.3.21-.11.01-.22 0-.31.02-.22.06-22.6 16.63-42.95 32.84-19.7 15.69-38.24 20.11-60.12 14.34-14.83-3.9-17.49-11.43-17.85-15.2.02-.15.04-.27.04-.31.03-.15-.03-.28-.08-.41-.02-.87.07-1.44.08-1.54a.75.75 0 0 0-.6-.88c-.41-.08-.8.18-.88.6-.01.03-.17.93-.05 2.33-.22 2.16-.43 13.74 18.95 18.85 22.39 5.91 41.5 1.6 61.45-14.62 21.39-17.38 43.3-35.74 43.53-35.8.34-.09.41-.26.15-.37z"/><path clip-path="url(#b)" fill="#006CA2" d="M123.55 58.71s-11.82 5.58-21.08 9.13c-8.71 3.33-14.1 4.83-14.1 4.83l-1.86 11.72 37.04-24.52v-1.16z"/><g><defs><path id="c" d="M42.14 45.55c1.03 2.01 4.46 1.94 6.32 2.03 3.2.17 6.32.21 9.47.07 2.78-.11 4.94-.23 7.26-1.93 1.61-1.18 3.11-2.29 4.8-3.12 2.36-1.15 4.41 0 5.2 2.95.43 1.63.47 3.55.16 5.26-1.65 9.01-7.48 17.25-15.94 19.45-2.83.73-5.75.96-8.67.95-5.62-.01-12.18-.29-17.38-2.75-2.67-1.27-4.05-3.28-4.05-6.8-.01-3.73 1.43-7.53 3.15-10.73.77-1.43 1.52-3.05 2.46-4.29 1.15-1.53 2.77-3.31 4.36-4.09 2.77-1.39 2.07.73 2.77 2.79.03.07.05.14.09.21z"/></defs><use xlink:href="#c" overflow="visible" fill="#40C0E7"/></g><path fill="#78A3AD" d="M42.11 119.48c-23.79 0-38.13-7.93-39.34-21.74-.44-5.06.78-13.14 3.58-17.92 2.57-4.39 5.88-7.63 9.08-10.76 4.13-4.05 8.03-7.88 10.17-13.88 2.31-6.49 5.77-14.85 12.02-21.95 3.11-3.54 7.31-6.36 12.12-8.17 3.79-1.41 8.44-2.16 13.46-2.16 3.17 0 6.41.31 9.37.88 10.93 2.13 20.51 8.13 29.79 13.94l1.14.71c6.57 4.11 12.47 7.98 18.05 11.81.72.33 3.77 1.96 3.77 5.97v7.4l-35.8 35.25c-.19.23-6.42 7.52-14.79 12.9-3.28 2.11-8.6 5.07-16.96 6.49-4.57.78-10.29 1.23-15.66 1.23zm21.1-94.21c-4.74 0-9.11.69-12.64 2.01-4.45 1.67-8.31 4.27-11.17 7.51-4.72 5.38-8.19 11.72-11.56 21.18-2.32 6.51-6.61 10.71-10.75 14.77C14 73.77 10.81 76.9 8.4 81.01c-2.52 4.31-3.67 11.93-3.26 16.52 1.54 17.67 26.37 19.58 36.98 19.58 5.25 0 10.81-.44 15.27-1.2 7.94-1.34 12.98-4.15 16.08-6.14 8.07-5.19 14.28-12.45 14.34-12.52l35.16-34.63v-6.41c0-2.86-2.39-3.82-2.41-3.83l-.25-.12c-5.58-3.84-11.48-7.7-18.07-11.82l-1.13-.71c-9.1-5.69-18.5-11.57-28.99-13.62-2.81-.56-5.89-.84-8.91-.84z"/><path fill="#FCC21B" d="M56.82 89.46c-.13 2.66-2.25 5.58-4.91 6.84-2.88 1.38-5.81.57-6.4-2.2-.68-3.19 1.99-7.25 5.71-8.46 3.37-1.11 5.75.8 5.6 3.82zM20.81 82.17c.58 2.42-.41 5.38-2.01 7.05-1.56 1.63-3.7 2.07-5.13.79-1.9-1.72-2.05-5.92.48-8.93 2.68-3.23 5.87-2.24 6.66 1.09z"/></svg>