<svg xmlns="http://www.w3.org/2000/svg" width="128" height="128" viewBox="0 0 128 128"><g fill="#ED6C30"><path d="M50.57 49.04l.2.02c.28 0 .54-.11.74-.3.24-.24.36-.59.31-.93l-.95-6.15a1.04 1.04 0 0 0-.62-.81 1.06 1.06 0 0 0-1.02.08l-7.03 4.68c-.36.24-.54.67-.45 1.1.08.42.42.76.85.83l7.97 1.48zM11.96 49.06l.19-.02 7.99-1.48c.42-.08.76-.41.85-.83.09-.43-.1-.86-.46-1.1l-7.03-4.68c-.29-.2-.68-.23-1.02-.08-.33.14-.57.45-.62.81l-.94 6.15a1.064 1.064 0 0 0 1.04 1.23z"/></g><path fill="#2F2F2F" d="M120.78 70.65H75.74V45.16l45.04 5.79z"/><path fill="#FFF" d="M112.53 65.05L16.02 18.79l7.15-14.91 96.5 46.26z"/><path fill="#2F2F2F" d="M113.53 67.9L13.18 19.8l8.99-18.76 100.35 48.1-8.99 18.76zM18.87 17.79l92.66 44.41 5.3-11.06L24.17 6.73l-5.3 11.06z"/><path fill="#2F2F2F" d="M21.239 2.968l3.842 1.84-7.14 14.908-3.842-1.84z"/><path fill="#FFF" d="M112.53 65.05l7.14-14.91"/><path fill="#2F2F2F" d="M117.751 49.221l3.85 1.848-7.153 14.902-3.85-1.848z"/><path fill="#FFF" d="M96.44 57.34l7.15-14.91"/><path fill="#2F2F2F" d="M101.662 41.514l3.843 1.84-7.14 14.908-3.842-1.84z"/><path fill="#FFF" d="M80.36 49.64l7.15-14.92"/><path fill="#2F2F2F" d="M85.584 33.8l3.85 1.848L82.28 50.55l-3.85-1.848z"/><path fill="#FFF" d="M64.27 41.92l7.15-14.9"/><path fill="#2F2F2F" d="M69.502 26.092l3.84 1.842-7.145 14.905-3.841-1.842z"/><path fill="#FFF" d="M48.19 34.21l7.15-14.9"/><path fill="#2F2F2F" d="M53.413 18.38l3.841 1.841-7.146 14.905-3.84-1.841z"/><path fill="#FFF" d="M32.11 26.51l7.14-14.92"/><path fill="#2F2F2F" d="M37.34 10.682l3.84 1.844-7.158 14.9-3.84-1.844z"/><g><path fill="#FFF" d="M39.25 11.59l-23.23 7.2"/><path fill="#2F2F2F" d="M38.63 9.56l1.264 4.078-23.23 7.199-1.264-4.079z"/></g><g><path fill="#FFF" d="M55.34 19.31l-23.23 7.2"/><path fill="#2F2F2F" d="M54.71 17.267l1.264 4.079-23.23 7.198-1.264-4.078z"/></g><g><path fill="#FFF" d="M71.42 27.02l-23.23 7.19"/><path fill="#2F2F2F" d="M70.795 24.981l1.264 4.079-23.23 7.199-1.265-4.079z"/></g><g><path fill="#FFF" d="M87.51 34.72l-23.23 7.2"/><path fill="#2F2F2F" d="M86.866 32.69l1.264 4.078-23.22 7.196-1.264-4.078z"/></g><g><path fill="#FFF" d="M103.59 42.43l-23.23 7.21"/><path fill="#2F2F2F" d="M80.99 51.67l-1.26-4.07 23.23-7.21 1.27 4.08z"/></g><g><path fill="#FFF" d="M119.67 50.14l-23.22 7.2"/><path fill="#2F2F2F" d="M119.05 48.101l1.264 4.08-23.23 7.195-1.264-4.078z"/></g><g><path fill="#ED6C30" d="M23.26 49.69c0-6.31 1.89-11.42 7.85-11.42s7.84 5.11 7.84 11.42H23.26z"/><path fill="#2F2F2F" d="M38.21 52.15H24c-1.47 0-2.68 1.2-2.68 2.67v5.09c0 1.48 1.21 2.68 2.68 2.68h14.21c1.48 0 2.68-1.2 2.68-2.68v-5.09c0-1.47-1.2-2.67-2.68-2.67z"/><path fill="#ED6C30" d="M61.22 65.98c-1.66 0-3.03-1.36-3.03-3.02v-2.33c0-1.67-1.36-3.03-3.03-3.03H51.75c0-.01-1.36-.01-3.02-.01H16.7c-2.96 0-7.28 2.25-7.95 7.4-.98 7.57-2.64 15.91-2.64 15.91-.33 1.63-.6 4.32-.6 5.99 0 0-.04 21.34-.04 25.7 0 1.92 2.36 4.54 4.14 4.54h108.14c1.66 0 3.02-1.36 3.02-3.03V69c0-1.67-1.36-3.03-3.02-3.03H61.22z"/><path fill="#2F2F2F" d="M36.87 117.14c0 5.43-4.4 9.82-9.82 9.82-5.43 0-9.83-4.39-9.83-9.82 0-5.43 4.4-9.82 9.83-9.82 5.42 0 9.82 4.39 9.82 9.82zM109.09 117.14c0 5.43-4.4 9.82-9.82 9.82-5.43 0-9.83-4.39-9.83-9.82 0-5.43 4.4-9.82 9.83-9.82 5.42 0 9.82 4.39 9.82 9.82z"/><path fill="#FFF" d="M95.91 69.61c-8.63 0-15.66 7.03-15.66 15.66 0 3.95 1.49 7.56 3.92 10.32H60.45v5.33h35.46c8.63 0 15.66-7.02 15.66-15.65s-7.03-15.66-15.66-15.66zm0 25.98c-5.69 0-10.32-4.62-10.32-10.32 0-5.69 4.63-10.32 10.32-10.32s10.33 4.63 10.33 10.32c-.01 5.69-4.64 10.32-10.33 10.32zM31.76 83.41a3.03 3.03 0 0 1-3.02 3.02H16.9c-1.66 0-2.83-1.34-2.59-2.99l2.09-14.42c.24-1.65 1.79-3 3.46-3h8.89c1.66 0 3.02 1.37 3.02 3.02v14.37zm20.26-14.87c0-1.43-1.17-2.61-2.61-2.61H39.7a2.62 2.62 0 0 0-2.62 2.61v10.04c0 1.43 1.18 2.62 2.62 2.62h9.71a2.62 2.62 0 0 0 2.61-2.62V68.54z"/></g></svg>