<svg xmlns="http://www.w3.org/2000/svg" width="128" height="128" viewBox="0 0 128 128"><path fill="#F79329" d="M33.94 29.91l-8.38 28.77H14.79c-6.58 0-11.11 4.35-11.11 10.74V99.3h104.93V29.91H33.94z"/><path fill="#2F2F2F" d="M127.43 83.35c0 2.89-2.37 5.26-5.26 5.26h-6.32c-2.89 0-5.26-2.37-5.26-5.26v-31.5c0-2.9 2.37-5.26 5.26-5.26h6.32c2.89 0 5.26 2.37 5.26 5.26v31.5z"/><path fill="#78A3AD" d="M3.91 94.35c-1.83 0-3.33-1.5-3.33-3.33v-3.99c0-1.83 1.5-3.33 3.33-3.33h3.31c1.83 0 3.33 1.5 3.33 3.33v3.99c0 1.83-1.5 3.33-3.33 3.33H3.91z"/><g><path fill="#2F2F2F" d="M51.05 103.82c0 9.62-7.8 17.4-17.41 17.4-9.62 0-17.42-7.79-17.42-17.4 0-9.62 7.8-17.4 17.42-17.4 9.61 0 17.41 7.78 17.41 17.4z"/><path fill="#78A3AD" d="M40.62 103.82a6.98 6.98 0 1 1-13.96 0c0-3.85 3.12-6.97 6.98-6.97a6.965 6.965 0 0 1 6.98 6.97z"/></g><g><path fill="#2F2F2F" d="M100.45 103.82c0 9.62-7.81 17.4-17.41 17.4-9.62 0-17.42-7.79-17.42-17.4 0-9.62 7.8-17.4 17.42-17.4 9.6 0 17.41 7.78 17.41 17.4z"/><path fill="#78A3AD" d="M90.01 103.82a6.98 6.98 0 0 1-6.98 6.98c-3.85 0-6.97-3.12-6.97-6.98a6.97 6.97 0 0 1 6.97-6.97 6.965 6.965 0 0 1 6.98 6.97z"/></g><path fill="#40C0E7" d="M78.82 37.51h21.62v25.77H78.82zM40.52 37.51h23.47v25.77H33.36l1.38-5.45z"/></svg>