<svg xmlns="http://www.w3.org/2000/svg" width="128" height="128" viewBox="0 0 128 128"><path fill="#ED6C30" d="M46.98 36.27c0-6.64 1.98-12.02 8.27-12.02 6.27 0 8.27 5.38 8.27 12.02H46.98z"/><path fill="#78A3AD" d="M62.72 38.87H47.76c-1.56 0-2.82 1.27-2.82 2.83v5.35c0 1.56 1.26 2.83 2.82 2.83h14.96c1.56 0 2.83-1.26 2.83-2.83V41.7c0-1.56-1.27-2.83-2.83-2.83z"/><path fill="#ED6C30" d="M41.47 31.05l-12.72-5.83c-.41-.19-.9-.18-1.31.04-.4.23-.68.62-.74 1.08l-1.11 7.99c-.06.46.1.92.43 1.25.28.27.64.42 1.02.42.07 0 .15-.01.22-.02l13.83-2.16c.64-.1 1.13-.61 1.22-1.24.09-.64-.25-1.26-.84-1.53zM83.79 26.34c-.06-.46-.34-.85-.75-1.08-.4-.22-.89-.24-1.31-.04L69 31.05c-.59.27-.92.89-.84 1.53.09.63.58 1.14 1.22 1.24l13.83 2.16c.09.01.17.02.24.02.38 0 .75-.15 1.03-.42.33-.32.48-.79.42-1.25l-1.11-7.99z"/><path fill="#FFF" d="M123.26 69.94c-.68-3.98-1.99-7.91-4.22-11.3-7.49-11.42-21.22-12.93-33.5-12.71-18.96.34-39.17-.68-45.8 1.47-7.2 2.32-11.89 10.06-16.1 16.96-2.47 4.02-2.93 4.99-5.8 8.71-2.04 2.64-7.08 5.33-9.53 7.7-3.37 3.26-4.76 9.43-4.76 14.04 0 12.09 9.58 15.8 17.2 15.8h87.28c16.01.01 18.38-22.14 15.23-40.67z"/><path fill="#ED6C30" d="M124.24 87.74H3.29l3.74-6.08h117.58zM71.61 64.33h-3.52V60.8c0-.71-.58-1.28-1.29-1.28h-5.6c-.7 0-1.28.57-1.28 1.28v3.53H56.4c-.71 0-1.29.58-1.29 1.28v5.6c0 .71.58 1.28 1.29 1.28h3.52v3.53c0 .7.58 1.28 1.28 1.28h5.6c.7 0 1.29-.58 1.29-1.28v-3.53h3.52c.71 0 1.28-.58 1.28-1.28v-5.6a1.27 1.27 0 0 0-1.28-1.28z"/><g><path fill="#78A3AD" d="M108.04 112.87H20.75c-8.97 0-19.45-4.73-19.45-18.04 0-4.79 1.42-11.77 5.44-15.66 1.15-1.12 2.69-2.21 4.33-3.37 1.97-1.39 4.01-2.84 4.98-4.09 2.31-2.99 2.96-4.08 4.55-6.7l1.11-1.82c4.46-7.29 9.4-15.36 17.33-17.93 3.94-1.27 11.64-1.53 22.8-1.53 2.11 0 4.29.01 6.51.02 5.56.02 11.41.04 17.15-.06.7-.01 1.4-.02 2.11-.02 10.43 0 25.22 1.42 33.31 13.74 2.23 3.41 3.77 7.5 4.56 12.16 1.04 6.17 3.76 27.12-5.18 37.7-3.14 3.71-7.26 5.6-12.26 5.6zm-46.2-64.65c-8.4 0-17.67.1-21.41 1.31-6.35 2.05-10.83 9.38-14.78 15.84l-1.19 1.97c-1.58 2.61-2.38 3.92-4.84 7.12-1.38 1.79-3.7 3.43-5.94 5.01-1.49 1.05-2.89 2.05-3.8 2.93-2.82 2.72-4.08 8.2-4.08 12.42 0 12.57 11.44 13.55 14.95 13.55h87.29c3.67 0 6.56-1.31 8.84-4 6.11-7.24 6.17-22.34 4.17-34.05-.69-4.05-2-7.56-3.88-10.44-6.81-10.38-19.37-11.71-29.55-11.71-.68 0-1.36.01-2.04.02-5.76.11-11.66.08-17.25.06-2.22-.02-4.4-.03-6.49-.03z"/></g><g><path fill="#2F2F2F" d="M46.36 110.62c0 5.71-4.63 10.34-10.35 10.34s-10.35-4.62-10.35-10.34 4.63-10.34 10.35-10.34 10.35 4.62 10.35 10.34z"/></g><g><path fill="#2F2F2F" d="M104.27 110.62c0 5.71-4.63 10.34-10.35 10.34s-10.35-4.62-10.35-10.34 4.63-10.34 10.35-10.34 10.35 4.62 10.35 10.34z"/></g><g><path fill="#40C0E7" d="M45.96 72.02c0 1.75-1.43 3.19-3.19 3.19H30.32c-1.75 0-2.76-1.37-2.24-3.04.17-.55.37-1.09.58-1.63a44.87 44.87 0 0 1 1.76-4.02c.87-1.74 1.84-3.43 2.95-5.01 1.2-1.7 2.57-3.29 4.17-4.63 1.58-1.31 3.39-2.36 5.39-2.87.64-.16 1.59-.46 2.24-.17 1.29.58.78 3.4.78 4.47v12.64c.01.36.01.71.01 1.07zm52.89-18.94c-4.26-.7-8.77-.63-12.89-.63-1.83 0-4.16.12-4.42 2.39-.22 1.9 0 3.95 0 5.85v9.38c0 1.78-.39 3.9 1.53 4.75 1.67.74 3.86.38 5.65.38h22.03c4.02 0 5.6-.24 5.61-4.6.02-3.9-2.31-7.76-4.69-10.75-3.3-4.13-7.89-5.96-12.82-6.77z"/></g></svg>