<svg xmlns="http://www.w3.org/2000/svg" width="128" height="128" viewBox="0 0 128 128"><g fill="#78A3AD"><path d="M37.7 98.66c-9.47 0-16.89-4.32-16.89-9.84s7.42-9.84 16.89-9.84 16.89 4.32 16.89 9.84c0 5.51-7.42 9.84-16.89 9.84zm0-16.49c-8.07 0-13.69 3.5-13.69 6.64 0 3.14 5.62 6.64 13.69 6.64s13.69-3.5 13.69-6.64c0-3.14-5.63-6.64-13.69-6.64z"/><path d="M37.7 122.01c-7.1 0-12.33-2.98-13.31-7.6l-3.57-25.37c-.12-.88.49-1.69 1.37-1.81.92-.12 1.68.49 1.8 1.36l3.55 25.26c.62 2.92 4.72 4.95 10.16 4.95 5.36 0 9.55-2.08 10.19-5.06l3.52-25.15c.12-.87.88-1.49 1.81-1.36.88.12 1.49.93 1.36 1.81l-3.54 25.26c-1.01 4.66-6.36 7.71-13.34 7.71z"/></g><path fill="#ED6C30" d="M87.82 49.82c0-2 7.26-4.17 7.5-14.51.23-10.26-7.96-16.47-16.72-16.47-8.76 0-16.94 6.2-16.72 16.47.08 3.33.96 6.6 2.96 9.31 1.17 1.59 2.8 2.7 4.05 4.2 1.13 1.38-.01 3.11-.68 4.48-.63 1.29-1.7 2.47-2.14 3.83-.36 1.1-.75 2.27-.85 3.42-.08.98 0 2 0 2.98 0 1.57.31 3.03.53 4.5.77 5-1.08 9.83-1.45 14.81-.32 4.31.96 7.59 1.94 9.18 1.32 2.15 2.15 17.78-.52 19.78-1.57 1.18-3.13 2.76-3.13 4.85 0 3.58 3.3 4.84 8.18 4.24 4.25-.52 7.17-2.48 6.83-8.59-.34-6.1-1.88-16.78 1-16.78s1.35 10.67 1 16.78c-.34 6.11 2.59 8.07 6.84 8.59 4.89.6 8.17-.66 8.17-4.24 0-2.09-1.57-3.67-3.13-4.85-2.66-2-1.83-17.63-.51-19.78.97-1.59 2.26-4.88 1.93-9.18-.44-5.76-2.73-12.58-1.08-12.93 1.18-.25 2.3-1.21 4.04 3.9 1.74 5.11-.31 8.7-.31 13.52 0 4.83 8.61 7.52 11.08 0 2.47-7.51-3.59-21.56-9.05-28.33-5.46-6.78-9.76-7.19-9.76-9.18z"/><path fill="#ED6C30" d="M69.13 50.74c-2.59 5.86-12.15 7.35-17.73 6.5-2.52-.38-4.83-1.44-7.28-2-2.68-.62-5.86-.21-7.64 2.05-1.89 2.4-1.85 6.52.32 8.81 6.54 6.88 18.11 3.84 25.75.79 1.2-.48 2.71-.85 3.19.74.24.82.16 1.71.53 2.56.36.83.9 1.26 1.83 1.38.75.1 1.59.28 2.35.28 1.77.01 3.21-1.96 3.49-3.55.08-.52-.04-1-.07-1.52-.05-.83.15-1.67.27-2.5.53-3.75.98-7.53.86-11.32-.05-1.55.08-3.15-.98-4.43-.21-.26-.51-.41-.79-.58-.65-.38-1.64-.46-2.38-.46-.57 0-1.62-.07-2.05.4-.37.41.22.98.36 1.37.2.56.16 1.04-.03 1.48z"/><path fill="#FCC21B" d="M36.01 76.44l-3.15 3.59 1.09 4.42 3.9 1.89 3.5-1.58 1.6-3.33-1.41-3.9z"/></svg>