<svg xmlns="http://www.w3.org/2000/svg" width="128" height="128" viewBox="0 0 128 128"><path fill="#FFF" d="M106.67 30.53c3.54 0 6.44 2.9 6.44 6.44v6.22c0 3.54-2.9 6.44-6.44 6.44H60.66c-3.54 0-6.45-2.9-6.45-6.44v-6.22c0-3.54 2.9-6.44 6.45-6.44h46.01z"/><path fill="#2F2F2F" d="M106.67 52.93H60.66c-5.37 0-9.75-4.37-9.75-9.74v-6.22c0-5.37 4.38-9.74 9.75-9.74h46.01c5.38 0 9.74 4.37 9.74 9.74v6.22c0 5.37-4.36 9.74-9.74 9.74zM60.66 33.84c-1.73 0-3.14 1.41-3.14 3.13v6.22c0 1.73 1.41 3.13 3.14 3.13h46.01c1.73 0 3.13-1.41 3.13-3.13v-6.22c0-1.72-1.4-3.13-3.13-3.13H60.66z"/><path fill="#FFF" d="M106.67 81.72c3.54 0 6.44 2.9 6.44 6.44v6.22c0 3.54-2.9 6.44-6.44 6.44H60.66c-3.54 0-6.45-2.9-6.45-6.44v-6.22c0-3.54 2.9-6.44 6.45-6.44h46.01z"/><path fill="#2F2F2F" d="M106.67 104.12H60.66c-5.37 0-9.75-4.37-9.75-9.74v-6.22c0-5.37 4.38-9.74 9.75-9.74h46.01c5.38 0 9.74 4.37 9.74 9.74v6.22c0 5.37-4.36 9.74-9.74 9.74zm-46.01-19.1c-1.73 0-3.14 1.41-3.14 3.13v6.22c0 1.73 1.41 3.13 3.14 3.13h46.01c1.73 0 3.13-1.4 3.13-3.13v-6.22c0-1.72-1.4-3.13-3.13-3.13H60.66z"/><g><g fill="#2F2F2F"><path d="M64.21 123.94c11.09 0 20.18-10.17 20.18-22.58V28.54c0-12.42-9.08-22.58-20.18-22.58S44.03 16.12 44.03 28.54v72.81c0 12.42 9.08 22.59 20.18 22.59z"/><path d="M64.21 127.24c-12.84 0-23.29-11.62-23.29-25.89V28.54c0-14.28 10.45-25.89 23.29-25.89S87.5 14.26 87.5 28.54v72.81c-.01 14.27-10.45 25.89-23.29 25.89zm0-117.97c-9.41 0-17.07 8.65-17.07 19.28v72.81c0 10.63 7.66 19.28 17.07 19.28s17.06-8.65 17.06-19.28V28.54c0-10.63-7.66-19.27-17.06-19.27z"/></g><path fill="#FFF" d="M59.11 122.04c11.09 0 20.17-10.16 20.17-22.58V26.64c0-12.42-9.08-22.58-20.17-22.58-11.1 0-20.19 10.17-20.19 22.58v72.81c0 12.43 9.08 22.59 20.19 22.59z"/><path fill="#2F2F2F" d="M59.11 125.34c-12.85 0-23.3-11.61-23.3-25.88V26.64C35.81 12.37 46.26.75 59.11.75 71.94.75 82.4 12.37 82.4 26.64v72.81c-.01 14.28-10.46 25.89-23.29 25.89zm0-117.97c-9.42 0-17.08 8.65-17.08 19.28v72.81c0 10.63 7.66 19.27 17.08 19.27 9.41 0 17.06-8.65 17.06-19.27V26.64c-.01-10.63-7.66-19.27-17.06-19.27z"/></g><g><g fill="#2F2F2F"><path d="M56.24 29.91c-2.5.61-5.25-.72-7.56-1.84-.55-.32-1.12-.6-1.66-.8-2.3-.9-4.04-2.04-5.45-3.05-1.74-1.27-2.85-3.11-3.28-4.42-2.08-5.44 3.29-8.6 8.84-9.16 1.1-.11 2.19-.14 3.26-.07 5.31.35 9.91 2.82 12.85 4.58l.15.1c2.4 1.46 4.94 2.94 5.4 4.95.29 1.22-.18 2.41-1.41 3.67-.94 1.04-2.04 1.84-3.19 2.44-1.52.86-3.42 1.45-4.82 1.88-.33.1-.52.26-.82.55-.34.24-.69.54-1.21.8-.39.16-.71.28-1.1.37z"/><path d="M47.64 11.89c.97-.11 1.9-.14 2.93-.08 4.42.25 8.38 2.1 11.96 4.23 3.55 2.12 6.86 3.99 3.77 7.02-.85.84-1.79 1.62-2.89 2.21-1.46.73-2.93 1.26-4.65 1.75-1.05.33-1.39.98-2.38 1.44-.19.1-.45.17-.65.23-2.39.58-5.74-1.74-7.94-2.6-1.91-.74-3.39-1.66-4.99-2.81-1.39-.97-2.16-2.43-2.7-3.71-1.67-4.37 2.56-7.12 7.54-7.68m-1.11-2.52h.05c-7.87.74-12.23 5.17-10.16 10.66.59 1.51 1.68 3.61 3.85 5.13 1.57 1.09 3.49 2.32 6.1 3.29.32.15.93.44 1.55.73 2.43 1.18 5.74 2.76 8.9 1.95.5-.12.92-.29 1.38-.5.65-.34 1.04-.71 1.39-.99.13-.12.39-.27.46-.28 1.45-.46 3.29-1.11 4.98-2.02 1.21-.67 2.37-1.54 3.45-2.66 1.44-1.49 1.92-3.01 1.64-4.53-.71-2.51-3.47-4.22-6.08-5.78l-.07-.09c-3.15-1.88-7.93-4.51-13.83-4.94-1.17-.09-2.41-.09-3.61.03z"/></g><g fill="#2F2F2F"><path d="M62.41 17.59c5.41 2.83 10.11 5.28 4.74 8.35-1.28.72-2.49 1.34-4.1 1.72-1.61.46-3.44.7-5.24.9-1.1.12-1.3.57-2.17.79-2.25.55-6.15-1.66-8.37-2.51-1.75-.67-3.25-1.46-5.01-2.43-1.31-.8-2.67-2.03-3.5-3.11-4.38-5.02 1.18-9.61 8.17-9.72 5.67-.12 10 3.12 15.48 6.01z"/><path d="M47.19 11.57c5.54 0 9.82 3.17 15.22 6.02 5.41 2.83 10.11 5.28 4.74 8.35-1.28.72-2.49 1.34-4.1 1.72-1.61.46-3.44.7-5.24.9-1.1.12-1.3.57-2.17.79-.25.06-.51.08-.79.08-2.29 0-5.6-1.83-7.58-2.6-1.75-.67-3.25-1.46-5.01-2.43-1.31-.8-2.67-2.03-3.5-3.11-4.38-5.02 1.18-9.61 8.17-9.72h.26m0-3.08h-.33c-5.47.08-10.32 2.32-12.34 5.7-1.67 2.78-1.23 5.99 1.19 8.82 1.07 1.38 2.72 2.86 4.36 3.87l.15.09c1.89 1.05 3.55 1.9 5.49 2.66.48.17 1 .42 1.58.68 2.2.98 4.95 2.21 7.57 2.21.65 0 1.25-.07 1.83-.21.86-.21 1.45-.52 1.79-.71 1.76-.19 3.8-.46 5.68-.99 2.16-.53 3.74-1.36 5.06-2.11 2.7-1.54 4.04-3.35 4-5.37-.09-3.55-4.32-5.77-8.79-8.11-1.08-.57-2.08-1.13-3.05-1.68-4.24-2.39-8.62-4.85-14.19-4.85z"/></g><path fill="#ED6C30" d="M71.77 31.96c0 7.98-5.75 14.45-12.83 14.45s-12.83-6.47-12.83-14.45c0-7.98 5.74-14.45 12.83-14.45s12.83 6.48 12.83 14.45z"/><path fill="#FFF" d="M47.23 11.85c.03.1.23.21.6.33 1.47.47 2.91.63 4.27 1.36 2.47 1.33 4.07 3.44 5.88 5.31.97.99 2 1.94 3.22 2.72 2.08 1.32 4.77 1.96 7.27 2.55.95.23 3.22.93 4.16.41.01-.42-.52-1.12-.78-1.48-3.18-4.51-9.24-7.98-14.91-10.03-1.79-.65-3.72-1.11-5.66-1.33-1.09-.12-2.25-.21-3.36-.1-.49.05-.72.14-.69.26z"/><path fill="#2F2F2F" d="M48.98 11.54c.77 0 1.55.07 2.3.15 1.94.23 3.86.68 5.66 1.33 5.67 2.04 11.73 5.51 14.91 10.03.26.36.79 1.05.78 1.48-.24.13-.57.19-.95.19-1.08 0-2.51-.43-3.21-.6-2.5-.59-5.19-1.23-7.27-2.55-1.22-.77-2.25-1.72-3.22-2.72-1.81-1.87-3.41-3.97-5.88-5.31-1.36-.73-2.8-.89-4.27-1.36-.37-.12-.57-.23-.6-.33-.03-.12.2-.21.7-.26.35-.04.7-.05 1.05-.05m0-3.08c-.53 0-1.03.03-1.5.07-.55.05-2.23.22-3.29 1.5-.57.69-.79 1.61-.59 2.44.21.82.87 1.94 2.9 2.59.59.19 1.17.34 1.74.48.77.19 1.38.34 1.84.59 1.4.75 2.57 2.02 3.81 3.37.4.43.79.86 1.2 1.28.92.96 2.2 2.18 3.85 3.23 2.62 1.67 5.72 2.41 8.47 3.06l.38.1c.97.25 2.43.62 3.87.62 1.15 0 2.15-.23 2.99-.69 1.03-.56 1.65-1.52 1.66-2.55.02-1.16-.63-2.15-1.24-2.99-3.22-4.58-9.29-8.7-16.68-11.36a29.13 29.13 0 0 0-6.62-1.55c-.74-.09-1.74-.19-2.79-.19z"/></g><g><g fill="#2F2F2F"><path d="M56.24 62.56c-2.5.61-5.25-.72-7.56-1.84-.55-.31-1.12-.6-1.66-.8-2.3-.9-4.04-2.04-5.45-3.05-1.74-1.26-2.85-3.11-3.28-4.41-2.08-5.44 3.29-8.6 8.84-9.17 1.1-.11 2.19-.13 3.26-.06 5.31.35 9.91 2.82 12.85 4.58l.15.1c2.4 1.46 4.94 2.94 5.4 4.96.29 1.22-.18 2.4-1.41 3.67-.94 1.04-2.04 1.83-3.19 2.43-1.52.86-3.42 1.45-4.82 1.88-.33.1-.52.26-.82.55-.34.24-.69.54-1.21.81-.39.15-.71.27-1.1.35z"/><path d="M47.64 44.55c.97-.11 1.9-.14 2.93-.08 4.42.25 8.38 2.09 11.96 4.23 3.55 2.12 6.86 3.99 3.77 7.02-.85.84-1.79 1.62-2.89 2.21-1.46.73-2.93 1.27-4.65 1.75-1.05.33-1.39.98-2.38 1.43-.19.1-.45.17-.65.23-2.39.58-5.74-1.75-7.94-2.6-1.91-.74-3.39-1.66-4.99-2.81-1.39-.96-2.16-2.43-2.7-3.7-1.67-4.37 2.56-7.13 7.54-7.68m-1.11-2.52h.05c-7.87.74-12.23 5.17-10.16 10.67.59 1.5 1.68 3.61 3.85 5.13 1.57 1.1 3.49 2.32 6.1 3.29.32.15.93.44 1.55.73 2.43 1.18 5.74 2.76 8.9 1.95.5-.12.92-.29 1.38-.51.65-.34 1.04-.71 1.39-.98.13-.13.39-.27.46-.28 1.45-.46 3.29-1.1 4.98-2.02 1.21-.67 2.37-1.54 3.45-2.67 1.44-1.49 1.92-3.01 1.64-4.53-.71-2.51-3.47-4.22-6.08-5.78l-.07-.09c-3.15-1.88-7.93-4.51-13.83-4.94-1.17-.1-2.41-.08-3.61.03z"/></g><g fill="#2F2F2F"><path d="M62.41 50.25c5.41 2.83 10.11 5.29 4.74 8.35-1.28.72-2.49 1.34-4.1 1.72-1.61.46-3.44.71-5.24.9-1.1.12-1.3.57-2.17.79-2.25.55-6.15-1.66-8.37-2.52-1.75-.67-3.25-1.45-5.01-2.43-1.31-.81-2.67-2.03-3.5-3.11-4.38-5.03 1.18-9.61 8.17-9.72 5.67-.1 10 3.13 15.48 6.02z"/><path d="M47.19 44.22c5.54 0 9.82 3.18 15.22 6.02 5.41 2.83 10.11 5.29 4.74 8.35-1.28.72-2.49 1.34-4.1 1.72-1.61.46-3.44.71-5.24.9-1.1.12-1.3.57-2.17.79-.25.06-.51.08-.79.08-2.29 0-5.6-1.83-7.58-2.6-1.75-.67-3.25-1.45-5.01-2.43-1.31-.81-2.67-2.03-3.5-3.11-4.38-5.03 1.18-9.61 8.17-9.72h.26m0-3.07h-.33c-5.47.08-10.32 2.32-12.34 5.71-1.67 2.78-1.23 5.99 1.19 8.82 1.07 1.38 2.72 2.86 4.36 3.87.05.03.1.06.15.08 1.89 1.05 3.55 1.91 5.49 2.66.48.18 1 .42 1.58.68 2.2.98 4.95 2.21 7.57 2.21.65 0 1.25-.07 1.83-.21.86-.21 1.45-.52 1.79-.71 1.76-.19 3.8-.46 5.68-.99 2.16-.53 3.74-1.37 5.06-2.11 2.7-1.54 4.04-3.35 4-5.37-.09-3.55-4.32-5.77-8.79-8.12-1.08-.57-2.08-1.12-3.05-1.68-4.24-2.38-8.62-4.84-14.19-4.84z"/></g><path fill="#FCC21B" d="M71.77 64.62c0 7.98-5.75 14.45-12.83 14.45s-12.83-6.46-12.83-14.45 5.74-14.45 12.83-14.45 12.83 6.47 12.83 14.45z"/><path fill="#FFF" d="M47.23 44.51c.03.1.23.21.6.33 1.47.47 2.91.62 4.27 1.36 2.47 1.33 4.07 3.43 5.88 5.3.97 1 2 1.94 3.22 2.72 2.08 1.32 4.77 1.96 7.27 2.55.95.23 3.22.92 4.16.41.01-.42-.52-1.12-.78-1.47-3.18-4.51-9.24-7.98-14.91-10.03-1.79-.65-3.72-1.1-5.66-1.33-1.09-.12-2.25-.22-3.36-.1-.49.05-.72.14-.69.26z"/><path fill="#2F2F2F" d="M48.98 44.2c.77 0 1.55.07 2.3.15 1.94.23 3.86.68 5.66 1.33 5.67 2.05 11.73 5.52 14.91 10.03.26.36.79 1.05.78 1.47-.24.14-.57.19-.95.19-1.08 0-2.51-.43-3.21-.6-2.5-.59-5.19-1.23-7.27-2.55-1.22-.78-2.25-1.72-3.22-2.72-1.81-1.87-3.41-3.98-5.88-5.3-1.36-.73-2.8-.89-4.27-1.36-.37-.12-.57-.23-.6-.33-.03-.12.2-.21.7-.26.35-.04.7-.05 1.05-.05m0-3.08c-.53 0-1.03.02-1.5.07-.55.05-2.23.22-3.29 1.49-.57.7-.79 1.62-.59 2.44.21.83.87 1.94 2.9 2.59.59.19 1.17.34 1.74.49.77.19 1.38.34 1.84.59 1.4.75 2.57 2.02 3.81 3.37.4.43.79.86 1.2 1.28.92.95 2.2 2.18 3.85 3.23 2.62 1.67 5.72 2.41 8.47 3.05l.38.1c.97.25 2.43.62 3.87.62 1.15 0 2.15-.23 2.99-.69 1.03-.57 1.65-1.52 1.66-2.55.02-1.16-.63-2.16-1.24-2.99-3.22-4.58-9.29-8.7-16.68-11.36-2.12-.77-4.35-1.29-6.62-1.56-.74-.07-1.74-.17-2.79-.17z"/></g><g><g fill="#2F2F2F"><path d="M56.24 95.23c-2.5.61-5.25-.72-7.56-1.84-.55-.32-1.12-.6-1.66-.8-2.3-.9-4.04-2.04-5.45-3.05-1.74-1.27-2.85-3.11-3.28-4.42-2.08-5.44 3.29-8.6 8.84-9.16 1.1-.11 2.19-.14 3.26-.07 5.31.35 9.91 2.82 12.85 4.58l.15.1c2.4 1.46 4.94 2.94 5.4 4.95.29 1.22-.18 2.41-1.41 3.67-.94 1.04-2.04 1.84-3.19 2.44-1.52.86-3.42 1.45-4.82 1.88-.33.1-.52.26-.82.55-.34.24-.69.54-1.21.81-.39.15-.71.27-1.1.36z"/><path d="M47.64 77.21c.97-.11 1.9-.14 2.93-.08 4.42.25 8.38 2.1 11.96 4.23 3.55 2.12 6.86 3.99 3.77 7.02-.85.84-1.79 1.62-2.89 2.22-1.46.73-2.93 1.26-4.65 1.75-1.05.33-1.39.98-2.38 1.44-.19.1-.45.17-.65.23-2.39.58-5.74-1.75-7.94-2.6-1.91-.74-3.39-1.66-4.99-2.81-1.39-.97-2.16-2.43-2.7-3.71-1.67-4.38 2.56-7.14 7.54-7.69m-1.11-2.52h.05c-7.87.74-12.23 5.17-10.16 10.66.59 1.51 1.68 3.61 3.85 5.13 1.57 1.09 3.49 2.32 6.1 3.29.32.15.93.44 1.55.73 2.43 1.18 5.74 2.76 8.9 1.95.5-.12.92-.29 1.38-.5.65-.34 1.04-.71 1.39-.99.13-.12.39-.27.46-.28 1.45-.46 3.29-1.11 4.98-2.02 1.21-.67 2.37-1.54 3.45-2.66 1.44-1.49 1.92-3.01 1.64-4.53-.71-2.51-3.47-4.22-6.08-5.78l-.07-.09c-3.15-1.88-7.93-4.51-13.83-4.94-1.17-.1-2.41-.09-3.61.03z"/></g><g fill="#2F2F2F"><path d="M62.41 82.91c5.41 2.83 10.11 5.28 4.74 8.35-1.28.72-2.49 1.34-4.1 1.72-1.61.46-3.44.7-5.24.9-1.1.12-1.3.57-2.17.79-2.25.55-6.15-1.66-8.37-2.51-1.75-.67-3.25-1.46-5.01-2.43-1.31-.81-2.67-2.03-3.5-3.11-4.38-5.02 1.18-9.61 8.17-9.72 5.67-.12 10 3.12 15.48 6.01z"/><path d="M47.19 76.89c5.54 0 9.82 3.17 15.22 6.02 5.41 2.83 10.11 5.28 4.74 8.35-1.28.72-2.49 1.34-4.1 1.72-1.61.46-3.44.7-5.24.9-1.1.12-1.3.57-2.17.79-.25.06-.51.08-.79.08-2.29 0-5.6-1.83-7.58-2.6-1.75-.67-3.25-1.46-5.01-2.43-1.31-.81-2.67-2.03-3.5-3.11-4.38-5.02 1.18-9.61 8.17-9.72h.26m0-3.08h-.33c-5.47.08-10.32 2.32-12.34 5.7-1.67 2.78-1.23 5.99 1.19 8.82 1.07 1.38 2.72 2.86 4.36 3.87l.15.09c1.89 1.05 3.55 1.9 5.49 2.66.48.18 1 .42 1.58.68 2.2.98 4.95 2.21 7.57 2.21.65 0 1.25-.07 1.83-.21.86-.21 1.45-.52 1.79-.71 1.76-.19 3.8-.46 5.68-.99 2.16-.53 3.74-1.36 5.06-2.11 2.7-1.54 4.04-3.35 4-5.37-.09-3.55-4.32-5.77-8.79-8.11-1.08-.57-2.08-1.13-3.05-1.68-4.24-2.39-8.62-4.85-14.19-4.85z"/></g><path fill="#40C0E7" d="M71.77 97.28c0 7.98-5.75 14.45-12.83 14.45s-12.83-6.47-12.83-14.45c0-7.98 5.74-14.45 12.83-14.45s12.83 6.47 12.83 14.45z"/><path fill="#FFF" d="M47.23 77.17c.03.1.23.21.6.33 1.47.47 2.91.63 4.27 1.36 2.47 1.33 4.07 3.44 5.88 5.31.97.99 2 1.94 3.22 2.72 2.08 1.32 4.77 1.96 7.27 2.55.95.23 3.22.93 4.16.41.01-.42-.52-1.12-.78-1.48-3.18-4.51-9.24-7.98-14.91-10.03-1.79-.65-3.72-1.1-5.66-1.33-1.09-.12-2.25-.21-3.36-.1-.49.05-.72.14-.69.26z"/><path fill="#2F2F2F" d="M48.98 76.86c.77 0 1.55.07 2.3.16 1.94.23 3.86.68 5.66 1.33 5.67 2.04 11.73 5.51 14.91 10.03.26.36.79 1.05.78 1.48-.24.13-.57.19-.95.19-1.08 0-2.51-.43-3.21-.6-2.5-.59-5.19-1.23-7.27-2.55-1.22-.77-2.25-1.72-3.22-2.72-1.81-1.87-3.41-3.98-5.88-5.31-1.36-.73-2.8-.89-4.27-1.36-.37-.12-.57-.23-.6-.33-.03-.12.2-.21.7-.26.35-.05.7-.06 1.05-.06m0-3.08c-.53 0-1.03.03-1.5.07-.55.05-2.23.22-3.29 1.5-.57.69-.79 1.61-.59 2.44.21.82.87 1.94 2.9 2.59.59.19 1.17.33 1.74.48.77.19 1.38.34 1.84.59 1.4.75 2.57 2.02 3.81 3.37.4.43.79.86 1.2 1.28.92.96 2.2 2.18 3.85 3.23 2.62 1.67 5.72 2.41 8.47 3.06l.38.1c.97.25 2.43.62 3.87.62 1.15 0 2.15-.23 2.99-.69 1.03-.56 1.65-1.52 1.66-2.54.02-1.16-.63-2.15-1.24-3-3.22-4.58-9.29-8.7-16.68-11.36a29.13 29.13 0 0 0-6.62-1.55c-.74-.09-1.74-.19-2.79-.19z"/></g></svg>