<svg xmlns="http://www.w3.org/2000/svg" width="128" height="128" viewBox="0 0 128 128"><path fill="#FFF" d="M2.56 64c0 33.93 27.5 61.43 61.44 61.43S125.43 97.92 125.43 64 97.94 2.57 64 2.57C30.07 2.57 2.56 30.07 2.56 64z"/><path fill="#ED6C30" d="M.37 64c0 35.14 28.49 63.63 63.63 63.63 35.15 0 63.63-28.49 63.63-63.63S99.15.37 64 .37C28.85.37.37 28.86.37 64zm13.57 0c0-27.65 22.41-50.07 50.06-50.07S114.06 36.35 114.06 64 91.65 114.06 64 114.06 13.94 91.65 13.94 64z"/><path fill="#006CA2" d="M80.76 41.23c0-2.01 7.33-4.2 7.56-14.64.23-10.35-8.03-16.61-16.87-16.61-8.82 0-17.09 6.26-16.86 16.61.07 3.36.96 6.67 2.98 9.38 1.19 1.61 2.82 2.72 4.08 4.24 1.14 1.39-.01 3.14-.68 4.51-.64 1.3-1.71 2.49-2.16 3.86-.36 1.11-.76 2.29-.85 3.45-.08.98.01 2.02.01 3.01 0 1.58.3 3.05.53 4.53.78 5.05-1.08 9.92-1.47 14.94-.32 4.35.98 7.66 1.96 9.26 1.33 2.17 2.16 17.93-.52 19.95-1.58 1.19-3.16 2.78-3.16 4.89 0 3.61 3.32 4.88 8.25 4.27 4.28-.53 7.23-2.5 6.89-8.67-.35-6.16-1.89-16.92 1.01-16.92s1.36 10.76 1.01 16.92c-.34 6.17 2.61 8.14 6.89 8.67 4.93.61 8.25-.66 8.25-4.27 0-2.11-1.59-3.7-3.17-4.89-2.67-2.02-1.84-17.78-.51-19.95.98-1.61 2.28-4.92 1.95-9.26-.44-5.81-2.74-12.69-1.08-13.04 1.19-.25 2.32-1.22 4.07 3.94 1.76 5.16-.31 8.77-.31 13.64 0 4.87 8.68 7.58 11.18 0 2.49-7.57-3.62-21.75-9.13-28.58-5.53-6.83-9.85-7.24-9.85-9.24z"/><path fill="#006CA2" d="M61.9 42.15c-2.61 5.91-12.25 7.42-17.88 6.56-2.53-.39-4.87-1.45-7.34-2.02-2.7-.62-5.9-.22-7.7 2.07-1.91 2.42-1.87 6.58.32 8.88 6.59 6.94 18.27 3.87 25.98.79 1.21-.48 2.73-.86 3.22.74.25.83.17 1.73.54 2.59.36.84.92 1.27 1.85 1.39.76.1 1.6.28 2.37.29 1.78.01 3.23-1.98 3.52-3.58.09-.52-.04-1.01-.07-1.53-.04-.84.15-1.69.27-2.52.53-3.78.99-7.59.87-11.42-.05-1.56.07-3.17-.98-4.46-.22-.26-.52-.42-.81-.59-.66-.38-1.66-.47-2.39-.47-.58 0-1.64-.07-2.07.41-.37.41.22.98.36 1.38.17.56.14 1.05-.06 1.49z"/><path fill="#ED6C30" d="M104.91 93.71l-8.89 9.38-74.38-69.92 8.89-9.37z"/><path fill="#006CA2" d="M34.73 66.96l-2.74 3.13.95 3.84 3.39 1.65 3.05-1.38 1.39-2.9-1.22-3.39zM35.43 82.33l-3.46-2.32-3.7 1.41-1.22 3.57 1.75 2.86 3.06 1.03 3.22-1.64z"/><g><path fill="#006CA2" d="M42.91 93.08l-3.52-2.38-3.77 1.45-1.25 3.64 1.79 2.92 3.12 1.05 3.28-1.67z"/></g></svg>