<svg xmlns="http://www.w3.org/2000/svg" width="128" height="128" viewBox="0 0 128 128"><path fill="#FCC21B" d="M49.65 70.4c-.7 2.45-1.99 4.74-3.72 6.54-1 1.05-1.85 1.94-1.33 3.4 1.75 4.95 4.72 8.62 7.56 12.91 1.33 2 3.31 4.35 3.62 6.79.46 3.55-3.15 4.83-6.05 6-1.41.58-2.97.78-4.45 1.12-1.15.26-2.18-.04-3.32.18-2.23.43-5.22 1.6-7.23-.11-8.65-7.35-1.81-19.96-4.2-29.07-.63-2.4-2.52-3.57-3.69-5.6-1.97-3.43-1.97-8.04-.4-11.66 2.48-5.69 9.13-8.66 14.96-6.65 2.04.7 3.86 1.61 5.33 3.2 1.14 1.23 2.08 2.66 2.67 4.23 1.07 2.79 1.07 5.86.25 8.72zM79.13 71.36c.08.44.18.88.31 1.3.65 2.15 1.85 4.31 3.74 5.6.97.67 1.86 1.26 2.09 2.49.28 1.45-.25 2.93-.78 4.26-1.79 4.54-4.34 8.73-6.26 13.2-.04.1-.57 1.19-.42 1.3 1 .72 2.98.62 4.15.62 2.32-.01 4.64 0 6.96 0h5.38c1.77 0 3.5.18 5.26.32.51.05.93-.01 1.33-.36.98-.86.18-2.67.05-3.77-.13-1.12-.22-2.24-.32-3.37-.23-2.59-.52-5.23-1.57-7.63-.31-.69-.65-1.36-1.09-1.98-.33-.45-.73-.83-.99-1.33-.83-1.6 1.24-1.1 2.13-1.38.4-.12.46-.15.67-.53.4-.72.75-.83 1.56-.83.48 0 .78.01 1.2-.26.31-.21.62-.43.66-.8.04-.33-.17-.46.09-.75.52-.58 3.96-.19 2.86-1.87-1.77-2.69-1.88-6.07-2.41-9.13-.53-3.1-1.92-5.99-4.46-7.93-1.34-1.03-3.12-1.95-4.77-2.34-1.75-.42-4.09-.27-5.86-.01-1.64.25-3.17.87-4.47 1.89-2.46 1.92-4.3 4.95-4.9 8.01-.33 1.65-.44 3.63-.14 5.28z"/><path fill="#FCC21B" d="M43.04 75.46c-.98-.22-1.98-.09-3 .69-2.38 1.85-2.01 5.91.19 7.8.88.75 2.15 1.15 3.16 1.69 3.37 1.8 7.37 2.3 11.14 2.11 4.39-.22 5.63-1.6 8.98-3.8 1.1-.73 2.62-.38 3.9-.42 1.26-.03 2.1-.33 2.88-1.38 2.95-3.95-1.17-9.61-5.85-7.63-.89.38-1.81 1.24-2.4 1.99-3.01 3.83-9.09 3.91-13.21 2.14-1.79-.75-3.74-2.73-5.79-3.19z"/><path fill="#ED6C30" d="M29.24 120.85h83.5c.35-.29.67-.61 1.02-.9 6.73-5.7 8.08-25.05 7.04-26.26-.7-.81-1.75-1.13-2.77-1.25-.33-.04-112.32-.63-115.68 1.16-2.52 1.35-.91 4.65.07 6.58 1.53 3.01 3.75 6.05 5.87 8.65 8.36 10.22 20.12 11.57 20.95 12.02z"/><path fill="#FCC21B" d="M52.47 116.11c-.25 0-.52-.05-.77-.14a2.127 2.127 0 0 1-1.22-2.76L66.41 72c.43-1.1 1.67-1.65 2.76-1.22 1.1.42 1.65 1.66 1.22 2.76l-15.93 41.2c-.33.85-1.13 1.37-1.99 1.37z"/><path fill="#FCC21B" d="M42.54 119.98c.48-1.75 1.35-3.68 2.21-5.27.69-1.31 1.47-2.55 2.53-3.6.97-.97 2.08-1.74 3.25-2.4 1.33-.74 2.94-1.62 4.36-1.96 1.87 2.38 3 5.13 3.6 7.89.32 1.5.53 3.22.33 4.8-.09.75-.41 1.61-.6 2.34-.17.66-.29 1.89-.74 2.46l-14.94-4.26z"/><path fill="#40C0E7" d="M14.89 120.42l.12-.15c2.77-3.04 7.32-5.56 11.28-6.43 4.58-1 9.56-1.12 14.03.44 4.98 1.73 9.81 4.6 15.15 5.08 5.61.5 10-2.8 15.18-4.34 5.59-1.66 11.12.57 16.58 1.57 6.1 1.11 10.53-.6 16.36-2.01 4.62-1.12 9.72-.32 14.05 1.5 1.63.68 10.54 4.08 9.23 6.8-.71 1.47-6.84.94-8.34 1.07-32.34 2.86-64.86 2.93-97.28 1.51-2.05-.09-6.81.49-8.29-1.22-1.03-1.18 1.28-2.99 1.93-3.82z"/></svg>