<svg xmlns="http://www.w3.org/2000/svg" width="128" height="128" viewBox="0 0 128 128"><path fill="#FFF" d="M38.07 116.68c0 3.39-2.77 6.16-6.16 6.16h-5.95c-3.39 0-6.16-2.77-6.16-6.16V19.89c0-3.38 2.77-6.16 6.16-6.16h5.95c3.39 0 6.16 2.77 6.16 6.16v96.79z"/><path fill="#2F2F2F" d="M31.91 126h-5.95c-5.14 0-9.32-4.18-9.32-9.32V19.89c0-5.14 4.18-9.32 9.32-9.32h5.95c5.13 0 9.32 4.18 9.32 9.32v96.79c0 5.14-4.19 9.32-9.32 9.32zM25.96 16.89c-1.66 0-3 1.34-3 2.99v96.79c0 1.65 1.34 3 3 3h5.95c1.65 0 3-1.35 3-3V19.89a3 3 0 0 0-3-2.99h-5.95z"/><g><path fill="#2F2F2F" d="M123.69 54.35c0 12.07-9.83 21.94-21.83 21.94H31.5c-12.01 0-21.83-9.87-21.83-21.94 0-12.06 9.82-21.93 21.83-21.93h70.37c11.99 0 21.82 9.87 21.82 21.93z"/><path fill="#2F2F2F" d="M101.86 79.67H31.5c-13.8 0-25.02-11.36-25.02-25.32S17.71 29.03 31.5 29.03h70.37c13.8 0 25.02 11.36 25.02 25.32-.01 13.96-11.23 25.32-25.03 25.32zM31.5 35.8c-10.28 0-18.64 8.32-18.64 18.55S21.22 72.9 31.5 72.9h70.37c10.28 0 18.64-8.32 18.64-18.55s-8.36-18.55-18.64-18.55H31.5z"/><path fill="#FFF" d="M118.87 51.04c0 12.06-9.82 21.93-21.82 21.93H26.67c-12 0-21.82-9.87-21.82-21.93 0-12.07 9.82-21.94 21.82-21.94h70.38c12 .01 21.82 9.88 21.82 21.94z"/><path fill="#2F2F2F" d="M97.04 76.36H26.67C12.88 76.36 1.65 65 1.65 51.04s11.23-25.32 25.02-25.32h70.38c13.79 0 25.02 11.35 25.02 25.32-.01 13.96-11.23 25.32-25.03 25.32zM26.67 32.49c-10.26 0-18.62 8.32-18.62 18.55s8.36 18.55 18.62 18.55h70.38c10.28 0 18.63-8.32 18.63-18.55s-8.35-18.55-18.63-18.55H26.67z"/><path fill="#2F2F2F" d="M18.92 51.49c-3.45 0-6.03-2.63-8.11-4.74-.57-.58-1.1-1.13-1.59-1.52-2.13-1.76-3.52-3.67-4.59-5.3-1.33-2.01-1.51-4.53-1.43-6.28.35-7.28 7.81-10.59 14.59-10.59 1.4 0 2.79.13 4.14.4 6.85 1.32 11.84 5.77 15 9l.18.19c2.72 2.77 5.53 5.64 4.99 8.85-.34 1.93-1.78 3.58-4.44 5.07-2.16 1.2-4.18 2.02-6.15 2.51-2.78.68-5.57.93-7.7 1.07-.48.03-.84.18-1.46.47-.53.23-1.17.52-1.97.71-.48.11-.98.16-1.46.16z"/><path fill="#2F2F2F" d="M17.79 24.88c1.25 0 2.48.11 3.69.35 5.64 1.09 10.06 4.51 13.87 8.41 3.95 4.03 7.76 7.75 1.2 11.4-1.75.97-3.6 1.8-5.6 2.3-2.4.59-4.83.85-7.29 1.01-1.58.1-2.4.9-3.8 1.23-.32.08-.63.11-.93.11-3.37 0-6.21-4.08-8.29-5.77-1.75-1.45-2.99-3.01-4.21-4.88-1-1.52-1.24-3.58-1.15-5.31.27-5.91 6.31-8.85 12.51-8.85m0-3.64c-9.45 0-16.31 5.07-16.66 12.33-.09 2.01.13 4.88 1.7 7.27 1.14 1.74 2.63 3.79 4.98 5.71.37.3.89.83 1.43 1.38 2.23 2.26 5.28 5.36 9.67 5.36.66 0 1.33-.07 1.99-.23 1.02-.24 1.81-.59 2.39-.85.28-.12.6-.27.68-.28 2.22-.15 5.16-.41 8.09-1.14 2.18-.53 4.37-1.43 6.7-2.72 3.15-1.75 4.96-3.89 5.38-6.33.68-4.03-2.57-7.36-5.46-10.3l-.18-.19c-3.35-3.42-8.67-8.14-16.13-9.59-1.49-.27-3.02-.42-4.58-.42z"/><path fill="#40C0E7" d="M41.87 50.59c0 7.92-6.1 14.33-13.63 14.33-7.54 0-13.63-6.42-13.63-14.33s6.1-14.34 13.63-14.34c7.53 0 13.63 6.42 13.63 14.34z"/><g><path fill="#FFF" d="M42.4 47.3c-1.49 0-2.94-.76-4.42-1.61l-.39-.22c-2.45-1.34-5.21-2.85-7.09-5.08-1.57-1.83-2.46-3.82-3.33-5.75-1.31-2.92-2.45-5.45-5.66-6.87-.35-.16-.69-.35-1.03-.54-.39-.22-.83-.47-1.05-.47-1.13 0-2.1-.79-2.11-1.77-.03-.99.82-1.81 1.94-1.85h.44c4.56 0 9.41 2.33 12.43 4.51 6.31 4.55 10.82 10.22 12.39 15.56.31 1.04.53 1.93.25 2.76-.19.58-.7 1.03-1.36 1.22-.32.06-.66.11-1.01.11z"/><path fill="#2F2F2F" d="M19.7 24.94c3.87 0 8.21 2 11.11 4.1 5.06 3.65 10.03 8.94 11.69 14.61.14.46.43 1.34.28 1.79a1.6 1.6 0 0 1-.39.05c-1.17 0-2.92-1.13-3.73-1.56-2.34-1.28-4.86-2.65-6.54-4.62-3.73-4.41-3.47-10.4-9.7-13.16-.97-.43-1.84-1.21-3.01-1.21h-.08.37m0-3.63h-.51c-2.28.07-4.06 1.76-3.99 3.76.08 1.86 1.75 3.34 3.82 3.48.11.05.22.12.33.19.4.23.81.45 1.22.63 2.41 1.07 3.3 2.85 4.68 5.92.87 1.94 1.86 4.14 3.58 6.17 2.13 2.51 5.06 4.11 7.63 5.51l.39.22c1.68.96 3.5 1.9 5.55 1.9.56 0 1.11-.07 1.62-.21 1.31-.36 2.34-1.27 2.73-2.43.46-1.38.05-2.77-.2-3.61l-.04-.12c-1.66-5.7-6.44-11.72-13.07-16.51-1.59-1.13-7.31-4.9-13.74-4.9z"/></g><g><path fill="#2F2F2F" d="M51.49 51.49c-3.45 0-6.03-2.62-8.1-4.73-.58-.59-1.11-1.13-1.59-1.53-2.14-1.75-3.53-3.66-4.6-5.3-1.33-2.01-1.5-4.53-1.42-6.28.35-7.28 7.81-10.59 14.6-10.59 1.39 0 2.78.13 4.13.4 6.84 1.32 11.84 5.77 15 9l.19.19c2.71 2.78 5.53 5.65 4.98 8.85-.33 1.92-1.78 3.58-4.45 5.07-2.15 1.2-4.16 2.02-6.15 2.51-2.77.68-5.56.93-7.69 1.07-.48.03-.83.18-1.47.47-.51.23-1.16.52-1.96.71-.5.11-.99.16-1.47.16z"/><path fill="#2F2F2F" d="M50.36 24.88c1.23 0 2.47.11 3.68.35 5.64 1.09 10.06 4.51 13.88 8.41 3.94 4.03 7.74 7.75 1.19 11.4-1.74.97-3.6 1.8-5.6 2.3-2.39.59-4.82.85-7.29 1.01-1.58.1-2.39.9-3.81 1.23-.31.08-.62.11-.93.11-3.37 0-6.22-4.08-8.29-5.77-1.77-1.45-2.99-3.01-4.23-4.88-.99-1.52-1.22-3.58-1.13-5.31.28-5.91 6.32-8.85 12.53-8.85m0-3.64c-9.47 0-16.32 5.07-16.66 12.33-.09 2 .13 4.88 1.69 7.27 1.14 1.75 2.64 3.79 4.98 5.71.37.3.89.83 1.44 1.39 2.22 2.26 5.28 5.36 9.67 5.36.66 0 1.33-.07 1.98-.23 1.03-.24 1.83-.59 2.4-.85.28-.13.59-.27.68-.28 2.22-.15 5.15-.41 8.09-1.14 2.18-.53 4.36-1.43 6.69-2.73 3.16-1.75 4.96-3.88 5.39-6.33.68-4.02-2.59-7.36-5.47-10.3l-.19-.19c-3.35-3.42-8.67-8.14-16.12-9.59-1.48-.27-3.02-.42-4.57-.42z"/><path fill="#FCC21B" d="M74.44 50.59c0 7.92-6.11 14.33-13.64 14.33-7.52 0-13.62-6.42-13.62-14.33s6.1-14.34 13.62-14.34c7.53 0 13.64 6.42 13.64 14.34z"/><g><path fill="#FFF" d="M74.97 47.3c-1.49 0-3-.8-4.43-1.62l-.38-.22c-2.46-1.34-5.22-2.85-7.1-5.07-1.56-1.83-2.45-3.82-3.32-5.75-1.31-2.93-2.44-5.45-5.66-6.88-.35-.16-.69-.35-1.03-.54-.4-.22-.84-.47-1.05-.47-1.12 0-2.09-.79-2.1-1.77-.03-.99.82-1.81 1.95-1.85h.43c4.56 0 9.42 2.33 12.43 4.51C71 32.18 75.51 37.85 77.07 43.2c.32 1.04.54 1.92.26 2.75-.2.58-.71 1.04-1.36 1.22-.31.08-.64.13-1 .13z"/><path fill="#2F2F2F" d="M52.26 24.94c3.87 0 8.22 2 11.12 4.1 5.07 3.65 10.04 8.94 11.69 14.61.13.46.43 1.34.28 1.79a1.6 1.6 0 0 1-.39.05c-1.17 0-2.92-1.13-3.72-1.56-2.35-1.28-4.88-2.65-6.53-4.62-3.74-4.41-3.47-10.4-9.7-13.16-.98-.43-1.84-1.21-3.02-1.21h-.09.36m0-3.63h-.51c-2.28.07-4.06 1.76-3.98 3.76.08 1.86 1.74 3.34 3.81 3.48.11.05.22.12.33.18.41.23.81.45 1.23.64 2.4 1.06 3.29 2.85 4.68 5.92.86 1.94 1.85 4.14 3.57 6.17 2.12 2.51 5.05 4.1 7.63 5.51l.39.21c1.67.97 3.5 1.91 5.55 1.91.56 0 1.11-.07 1.62-.21 1.31-.36 2.34-1.27 2.74-2.43.45-1.38.04-2.77-.21-3.61l-.03-.12c-1.67-5.69-6.44-11.7-13.08-16.49-1.59-1.15-7.31-4.92-13.74-4.92z"/></g></g><g><path fill="#2F2F2F" d="M84.05 51.49c-3.44 0-6.03-2.62-8.09-4.73-.58-.59-1.11-1.14-1.6-1.53-2.14-1.76-3.53-3.67-4.61-5.3-1.33-2.02-1.51-4.53-1.42-6.28.35-7.28 7.82-10.59 14.6-10.59 1.39 0 2.79.13 4.13.4 6.85 1.32 11.84 5.77 15.01 9l.18.19c2.72 2.77 5.52 5.64 4.99 8.85-.33 1.93-1.78 3.58-4.44 5.07-2.16 1.2-4.17 2.02-6.15 2.51-2.77.68-5.57.93-7.69 1.07-.48.03-.83.18-1.46.47-.52.23-1.17.52-1.97.71-.5.11-.99.16-1.48.16z"/><path fill="#2F2F2F" d="M82.93 24.88c1.24 0 2.49.11 3.68.35 5.64 1.09 10.07 4.51 13.88 8.41 3.95 4.03 7.75 7.75 1.2 11.4-1.74.97-3.61 1.8-5.6 2.3-2.4.59-4.82.85-7.29 1.01-1.58.1-2.4.9-3.81 1.23-.32.08-.63.11-.93.11-3.37 0-6.21-4.08-8.29-5.77-1.76-1.45-2.99-3.01-4.22-4.88-1.01-1.52-1.23-3.58-1.15-5.31.28-5.91 6.32-8.85 12.53-8.85m0-3.64c-9.47 0-16.32 5.07-16.67 12.33-.09 1.99.12 4.88 1.7 7.27 1.15 1.74 2.63 3.79 4.98 5.71.38.3.9.83 1.44 1.39 2.23 2.26 5.28 5.36 9.67 5.36.67 0 1.34-.07 1.99-.23 1.03-.24 1.81-.59 2.39-.85.28-.13.6-.27.68-.28 2.21-.15 5.14-.41 8.09-1.14 2.19-.53 4.37-1.43 6.7-2.73 3.16-1.75 4.97-3.88 5.39-6.32.68-4.03-2.59-7.36-5.46-10.3l-.19-.19c-3.35-3.42-8.68-8.14-16.13-9.59-1.49-.28-3.03-.43-4.58-.43z"/><path fill="#ED6C30" d="M107 50.59c0 7.92-6.1 14.33-13.63 14.33-7.53 0-13.62-6.42-13.62-14.33s6.09-14.34 13.62-14.34c7.53 0 13.63 6.42 13.63 14.34z"/><g><path fill="#FFF" d="M107.54 47.3c-1.48 0-2.94-.76-4.42-1.61l-.39-.22c-2.46-1.34-5.2-2.85-7.1-5.08-1.56-1.83-2.46-3.82-3.32-5.75-1.31-2.93-2.45-5.45-5.66-6.88-.36-.16-.7-.34-1.04-.53-.38-.23-.83-.48-1.05-.48-1.13 0-2.08-.79-2.11-1.77-.02-.99.83-1.81 1.95-1.85h.44c4.57 0 9.41 2.33 12.42 4.51 6.32 4.54 10.83 10.21 12.39 15.56.31 1.04.54 1.93.26 2.76-.2.58-.71 1.03-1.37 1.22-.32.07-.65.12-1 .12z"/><path fill="#2F2F2F" d="M84.83 24.94c3.87 0 8.22 2 11.11 4.1 5.07 3.65 10.04 8.94 11.7 14.61.13.46.44 1.34.28 1.79-.12.03-.25.05-.38.05-1.19 0-2.91-1.13-3.74-1.56-2.34-1.28-4.85-2.65-6.52-4.62-3.74-4.41-3.47-10.4-9.71-13.16-.96-.43-1.84-1.21-3.02-1.21h-.08.36m0-3.63h-.52c-2.28.07-4.06 1.76-3.97 3.76.08 1.86 1.75 3.34 3.81 3.48.12.05.22.12.34.19.4.22.8.44 1.21.63 2.41 1.07 3.31 2.85 4.68 5.92.87 1.94 1.87 4.14 3.57 6.17 2.14 2.51 5.07 4.11 7.65 5.52l.38.21c1.68.96 3.5 1.9 5.55 1.9.56 0 1.1-.07 1.61-.21 1.32-.36 2.34-1.27 2.73-2.43.47-1.38.05-2.77-.2-3.61l-.04-.12c-1.67-5.71-6.44-11.73-13.07-16.51-1.58-1.13-7.3-4.9-13.73-4.9z"/></g></g></g></svg>