<svg xmlns="http://www.w3.org/2000/svg" xmlns:xlink="http://www.w3.org/1999/xlink" width="128" height="128" viewBox="0 0 128 128"><path fill="#ED6C30" d="M124.67 66.73c0 33.51-27.16 60.68-60.68 60.68-33.51 0-60.67-27.17-60.67-60.68C3.33 33.22 30.49 6.06 64 6.06s60.67 27.16 60.67 60.67z"/><defs><path id="a" d="M110.05 66.73c0 25.43-20.61 46.04-46.05 46.04-25.43 0-46.05-20.61-46.05-46.04S38.57 20.68 64 20.68c25.43 0 46.05 20.62 46.05 46.05z"/></defs><use xlink:href="#a" overflow="visible" fill="#FFF"/><clipPath id="b"><use xlink:href="#a" overflow="visible"/></clipPath><path clip-path="url(#b)" fill="#2F2F2F" d="M90.12 73.71c0 1.27-1.04 2.3-2.3 2.3H28.38a2.3 2.3 0 0 1-2.3-2.3v-8.18a2.3 2.3 0 0 1 2.3-2.3h59.44c1.26 0 2.3 1.03 2.3 2.3v8.18z"/><g clip-path="url(#b)"><path fill="#ED6C30" d="M106.98 98.15l-11.56 11.56-74.4-74.4 11.56-11.56z"/></g><g><path fill="#ED6C30" d="M92.78 73.38c-.17 1.79 1.19 1.25 2.5 1.26 1.09 0 2.11.12 3.19.12 1.01 0 1.83-.37 2.82-.37.73 0 2.49.19 2.77-.75.15-.51 0-1.41-.04-1.95-.13-2.27.03-4.61-.3-6.87-.1-.71-.54-1.37-1.33-1.44-.5-.05-.98.2-1.48.25-.47.05-.87-.11-1.31-.15-.71-.05-1.54-.32-2.3-.35-.05 0-.11 0-.17-.01-.26 0-.51.02-.74.1-.77.26-1.06.34-1.85.24-.34-.05-1.12-.1-1.44.04-.22.09-.36.28-.45.5-.23.6-.04 1.52.16 1.97.38.87.13 1.71.13 2.65 0 1.58-.01 3.19-.16 4.76z"/><path fill="#78A3AD" d="M56.94 27.26c2.64 8.9 10.67 13.57 19.35 15.11 2.55.46 5.15.71 7.73.9 1.39.1 12.65-.13 9.26 3-1.35 1.25-3.54 2.33-4.57 3.99-.38.61-.61 1.29-.57 2.1.17 3.41 4.61 5.23 7.42 5.8.6.12 1.58.39 2.46.39.66 0 1.28-.16 1.61-.66.72-1.09-.52-1.64-1.3-2.12-1.22-.76-1.8-1.42-1.46-3 .68-3.27 5.04-3.53 7.67-4.01 1.63-.29 3.29-.8 4.72-1.61 1.72-.97 3.13-2.39 3.73-4.46.2-.68.28-1.38.3-2.08.07-2.85-1.25-5.76-3.63-7.3-3.34-2.15-7.43-1.91-11.27-2.09-.45-.02-.9-.04-1.35-.09-2.3-.2-5.42-1.1-7.16-2.63-1.6-1.4-1.01-2.74.25-3.79 1.24-1.04 3.12-1.81 4.16-2.1 1.81-.5 3.67-.62 5.55-.62 1.91 0 3.82.13 5.71.13h.03c.77 0 1.52-.02 2.28-.08 3.91-.31 7.81-1.95 10.56-4.78.43-.45.85-.92 1.22-1.43 2.81-3.82 3.05-8.97-1.21-11.75-.88-.57-2.71-1.54-4.2-1.54-.58 0-1.12.15-1.52.54-.41.4-.22 1.11.03 1.61.79 1.53.53 2.82-.4 3.59-.58.48-1.41.76-2.44.76-.64 0-1.25-.04-1.86-.11-1.74-.19-3.37-1.51-4.78-2.44-1.31-.86-2.57-1.79-3.9-2.62-1.21-.75-2.48-1.41-3.84-1.84-3.04-.97-6.47-1.42-9.99-1.42-3.16 0-6.39.37-9.46 1.04-3.07.65-5.99 1.63-8.53 2.87-.65.32-1.27.69-1.88 1.07-4.35 2.76-7.56 7.17-8.84 12.09-.79 3.1-.83 6.39.12 9.58z"/></g></svg>