<svg xmlns="http://www.w3.org/2000/svg" width="128" height="128" viewBox="0 0 128 128"><path fill="#FFF" d="M4.48 64c0 32.88 26.64 59.53 59.52 59.53S123.52 96.88 123.52 64 96.88 4.47 64 4.47 4.48 31.12 4.48 64z"/><path fill="#ED6C30" d="M.43 64c0 35.11 28.46 63.58 63.57 63.58S127.57 99.11 127.57 64 99.11.42 64 .42.43 28.89.43 64zm103.51 26.95L37.05 24.06c7.69-5.2 16.96-8.24 26.95-8.24 26.6 0 48.18 21.57 48.18 48.18 0 9.99-3.04 19.26-8.24 26.95zM15.82 64c0-9.98 3.04-19.26 8.24-26.95l66.9 66.89A48.02 48.02 0 0 1 64 112.18c-26.6 0-48.18-21.57-48.18-48.18z"/></svg>