<svg xmlns="http://www.w3.org/2000/svg" width="128" height="128" viewBox="0 0 128 128"><path fill="#2F2F2F" d="M98.92 126.33c-13.4 0-24.31-10.9-24.31-24.3s10.91-24.3 24.31-24.3 24.3 10.9 24.3 24.3-10.9 24.3-24.3 24.3zm0-41.14c-9.28 0-16.83 7.55-16.83 16.83 0 9.28 7.55 16.83 16.83 16.83 9.28 0 16.83-7.55 16.83-16.83 0-9.27-7.55-16.83-16.83-16.83zM29.09 126.33c-13.4 0-24.31-10.9-24.31-24.3s10.91-24.3 24.31-24.3c13.4 0 24.3 10.9 24.3 24.3s-10.9 24.3-24.3 24.3zm0-41.14c-9.28 0-16.84 7.55-16.84 16.83 0 9.28 7.57 16.83 16.84 16.83 9.28 0 16.83-7.55 16.83-16.83 0-9.27-7.55-16.83-16.83-16.83z"/><path fill="#FCC21B" d="M77.7 75.82c-.14 0-.27-.01-.41-.03l-37.93-5.48a2.846 2.846 0 0 1-2.42-3.23c.22-1.56 1.71-2.65 3.24-2.42l37.93 5.48c1.56.23 2.65 1.68 2.42 3.24a2.869 2.869 0 0 1-2.83 2.44z"/><path fill="#FCC21B" d="M64.46 104.15c-.9 0-1.77-.43-2.31-1.17L37.46 69.16c-.93-1.27-.65-3.06.62-3.99s3.06-.65 3.99.62L63.9 95.68l15.67-34.1a2.857 2.857 0 0 1 3.79-1.4c1.43.66 2.07 2.35 1.4 3.79L67.05 102.5a2.85 2.85 0 0 1-2.32 1.65h-.27z"/><path fill="#FCC21B" d="M98.74 104.15H64.46c-1.57 0-2.85-1.28-2.85-2.86 0-1.58 1.28-2.85 2.85-2.85h28.6L75.4 74.66c-.94-1.27-.68-3.06.59-4s3.06-.68 4 .59l21.04 28.34c.65.87.75 2.02.26 2.99-.48.96-1.47 1.57-2.55 1.57z"/><path fill-rule="evenodd" clip-rule="evenodd" fill="#2F2F2F" d="M89.05 56.98c-1.2-.68-2.54-.52-3.92-.58-1.67-.08-3.35-.16-5.03-.26-2.79-.18-5.62.04-8.38-.11-1.6-.09-3.13 1.1-3.68 2.53-.75 1.95.57 3.18 2.22 4.07 2.04 1.1 4.31 1.62 6.54 2.17 2.42.59 4.84 1.35 7.32 1.69 2.41.33 5.13-.62 6.53-2.67 1.46-2.12.85-4.96-1.18-6.54-.13-.12-.28-.21-.42-.3zM65.89 100.89c-.25.09-.5.18-.75.25-.99.3-2.06.5-3 .91-1.74.77-3.62 2.83-2.76 4.85 1.07 2.51 2.89 1.53 4.87.84 1.97-.68 5.48-1.34 6.64-3.29.86-1.45-.32-3.87-1.98-4.14-1.01-.17-2.04.23-3.02.58z"/><path fill="#ED6C30" d="M13.32 123.95c1.3-.73 2.72-1.19 4.02-1.93 1.64-.93 3.42-2.15 5.41-1.91 1.55.18 3.13.89 4.64 1.3 1.75.47 3.5 1.04 5.28 1.38 2.3.44 5.1-.7 7.27-1.35 2.73-.82 5.42-1.83 8.26-2.26 1.62-.25 2.69.39 4.19.85 2.59.79 5.24 1.23 7.85 1.9 3.81.97 7.1.22 10.8-1.08 1.28-.45 2.77-1 4-1.25 2.08-.42 4.48.58 6.5 1.05 1.52.35 3 .6 4.53.73.84.08 1.65.27 2.49.31.82.04 1.51-.25 2.27-.5 2.13-.72 4.16-1.75 6.2-2.72 1.3-.61 2.17-.3 3.38.24 1.42.63 2.93 1.03 4.4 1.56 1.34.48 2.67 1.3 4.1 1.47 1.47.18 2.69-1 4.02-1.4 1.57-.47 3.03.34 4.36 1.16 1.2.74 2.59 1.19 3.69 2.07 1.87 1.49.26 1.69-1.42 1.89-1.15.14-29.51 1.01-52.17 1.23-10.2.1-47.5.08-52.23-.55-.84-.11-1.78-.08-2.55-.46-1.25-.61-.02-1.32.71-1.73z"/><path fill="#FCC21B" d="M29.63 105.29c-.25 0-.49-.03-.74-.1a2.861 2.861 0 0 1-2.03-3.49l11.2-42.4c.41-1.52 1.98-2.44 3.49-2.03 1.54.4 2.44 1.97 2.04 3.49l-11.2 42.4a2.855 2.855 0 0 1-2.76 2.13z"/><path fill="#2F2F2F" d="M41.63 62.36c-.22 0-.44-.03-.67-.08l-8.9-2.13a2.854 2.854 0 0 1-2.11-3.45 2.87 2.87 0 0 1 3.45-2.11l8.9 2.13c1.53.37 2.48 1.91 2.11 3.45a2.868 2.868 0 0 1-2.78 2.19z"/><circle fill-rule="evenodd" clip-rule="evenodd" fill="#2F2F2F" cx="32.29" cy="57.37" r="4"/><path fill="#ED6C30" d="M39.48 30.73c-.18-.29-.36-.58-.51-.88-4.69-8.81-1.7-18.11 5.24-21.7 9.93-5.15 19.13-.34 21.8 6.08.74 1.77 1.28 3.63 1.42 5.54.11 1.38-.46 2.98.21 4.28.72 1.4 2.75 2.3 4.16 2.85 7.09 2.77 13.91 8.55 17.07 15.54 2.3 5.07 2.46 11.16-.29 16.05-1.74 3.1-4.89 5.58-7.54 7.89-1.3 1.13-2.47 2.2-3.68 3.46-4.12 4.27-6.26 9.41-6.73 15.29-.26 3.2.22 6.4.03 9.6-.17 2.86-1.38 4.84-3.81 6.28-3.76 2.23-9.82 5.41-12.76.17-1.69-3 .13-6.8 2.27-9.04 1.37-1.43.7-4.28.17-6.18-1.35-4.88-.13-11.25 1.91-15.78 2.46-5.48 8.15-11.65 4.58-17.98-2.03-3.6-3.59-7.53-6.14-10.81-3.09-3.96-5.47-3.61-9.86-4.99-2.96-.95-5.82-3.03-7.54-5.67z"/><path fill="#2F2F2F" d="M51.22 23.35c.91.9 1.77 1.83 2.69 2.73.88.86 2.02 1.69 2.22 3 .32 2.11-.47 4.26-1.21 6.21-.1.29-.29.58-.36.88.74.37 1.66-.58 2.16-.98 1.13-.9 1.86-2.17 2.3-3.52.4-1.2.26-2.78.86-3.88.22-.4.59-.71.86-1.08.95-1.35 1.52-2.87 2.23-4.34.28-.57.47-1.23.62-1.84.07-.3.2-.92.03-1.22-.15-.27-.63-.34-.9-.42-.15-.05-1.64-.52-1.7-.29-.14.53-.25 1.06-.45 1.56-.11.27-.17.55-.25.83-.38 1.25-1.15 3.58-2.32 4.33-.32.21-.6-.11-.83-.34-.43-.4-.79-.85-1.17-1.28-.73-.85-1.45-1.77-2.27-2.54-.32-.3-.6-.64-.9-.96-.23-.25-.37-.49-.77-.45-.25.03-.52.31-.73.45-.45.31-.93.57-1.32.98-.12.12-.32.27-.39.42-.11.23-.07.13.1.3.51.47 1 .96 1.5 1.45z"/><path fill="#FCC21B" d="M45.01 2.77c-1.8.78-3.46 1.85-4.89 3.23-1.7 1.64-3.61 3.92-4.6 6.08-.98 2.12-1.49 4.51-1.49 6.85 0 1.27.06 4.65 1.35 5.43.68.42 1.89.18 2.6-.03 1.33-.41 2.62-.91 4-1.2 1.01-.21 2.01-.52 2.99-.83 1.54-.48 2.72-.75 4.23.01.52.26 1.02.37 1.56.55.88.32 2.25.7 3-.12.26-.28.34-.81.38-1.2.04-.5-.21-1.02-.09-1.49.3-1.22 3-1.1 3.98-1.1 1.36 0 2.72.81 3.92 1.38 1.4.67 3.35 1.9 4.95 1.73 2.64-.27 2.23-5.56 1.92-7.38-.22-1.31-.57-2.6-.97-3.86-.7-2.14-1.93-3.98-3.64-5.44C59.04.99 51.22.11 45.01 2.77z"/><path fill="#ED6C30" d="M25.31 56.17c.02-1.59.59-3.41 1.11-4.41.33-.62.97-1.27 1.61-1.65 1.82-1.09 4.05-.59 6.04-.79 1.74-.17 3.94-.57 5.43-1.48 1.84-1.12 3.84-2.01 5.6-3.27 3.27-2.35 6.05-5.19 9.07-7.73 2.87-2.42 4.82-5.75 8.53-6.66 1.67-.41 2.8-.4 4.28.59 1.73 1.16 3.41 1.55 3.14 3.89-.29 2.45-.82 4.18-2.37 6.15-2.79 3.57-6.64 6.13-10.24 8.8-4.88 3.63-15.42 12.21-22.02 10.43-1.64-.44-2.41-2.74-4.37-2.45-1.1.16-1.52 1.51-2.76 1.69-.9.12-2.03-.15-2.55-.94-.38-.57-.51-1.34-.5-2.17z"/></svg>