<svg xmlns="http://www.w3.org/2000/svg" width="128" height="128" viewBox="0 0 128 128"><path fill="#FCC21B" d="M108.57 43.58c-3.31-1.28-9.09-1.48-10.52 3.46-.37 1.3-.19 2.39-.35 3.71-.5 4.19-6.51 5.92-10.14 4.97-1.67-.44-3.01-.86-4.1-1.25.09-.09.21-.16.3-.25 13.71-13 11.25-34.88-4.85-44.51-4.38-2.62-9.38-4.05-14.45-4.22-.3-.01-.6.02-.91.02C48.8 5.51 49.19-.85 45.88.45c-3.35 1.31-2.37 6.64 1.21 10.02-15.04 9.97-17.11 31.08-3.74 43.76.18.17.39.3.57.47-.97.33-2.11.68-3.48 1.04-3.64.95-9.64-.78-10.14-4.97-.16-1.32.03-2.41-.36-3.71-1.42-4.94-7.21-4.75-10.52-3.46-5 1.94-4.93 7.66-2.92 12.25 1.36 3.13 3.47 8.44 12.72 11.87 6 2.23 11.09 1.91 14.74.73-.06.33-.12.67-.2 1-.15.64-.31 1.26-.44 1.88-.9.48-1.72 1.17-2.43 2.1-2.18 2.85-2.9 7.19-3.12 8.92-.54 4.39.03 8.64 1.49 12.42-3.28 2.31-6.85 6.24-6.85 10.81 0 8.72 6.92 10.38 7.51 11.75.76 1.81-.43 3.24-.26 5.18.24 2.7 2.96 4.96 5.54 5.21 2.65.26 5.22-.73 7.07-2.47 3.67-3.46 5.03-9.68 1.1-13.45-2.25-2.15-5.58-1.89-4.46-3.71.28-.46 1.18-.65 2.27-.83.12.06.24.13.36.19 3.04 1.41 6.97 2.16 11.37 2.16 4.76 0 9.59-.9 13.44-2.43 1.32.2 2.41.38 2.73.9 1.12 1.82-2.21 1.56-4.46 3.71-3.92 3.77-2.56 9.99 1.11 13.45 1.84 1.74 4.41 2.72 7.06 2.47 2.58-.25 5.31-2.5 5.54-5.21.17-1.94-1.03-3.37-.26-5.18.59-1.37 7.51-3.03 7.51-11.75 0-4.35-3.25-8.14-6.4-10.48 2-4.65 2.32-10.04.74-15.67-.91-3.25-2.56-5.79-4.84-7.52.08-.56.13-1.13.09-1.7-.03-.49-.16-.99-.24-1.49 3.56.94 8.32 1.07 13.83-.99 9.25-3.43 11.35-8.74 12.72-11.87 2.02-4.61 2.09-10.32-2.91-12.27zm-51.93-8.64c0 3.18-2.1 5.76-4.69 5.76-2.59 0-4.67-2.58-4.67-5.76 0-3.19 2.08-5.76 4.67-5.76s4.69 2.57 4.69 5.76zm18.52-5.76c2.59 0 4.67 2.57 4.67 5.76 0 3.18-2.08 5.76-4.67 5.76s-4.69-2.58-4.69-5.76c0-3.19 2.1-5.76 4.69-5.76zm-3.14 15.29c.64.98.36 2.29-.62 2.93-.07.05-.15.08-.23.13-2.26 1.4-4.82 2.09-7.64 2.11h-.21c-2.48 0-4.91-.68-7.04-1.93-.18-.11-.38-.19-.57-.31a2.117 2.117 0 0 1-.62-2.93c.63-.98 1.94-1.26 2.92-.62 1.62 1.05 3.42 1.56 5.51 1.56 2.13-.03 3.96-.51 5.57-1.56.99-.64 2.3-.36 2.93.62z"/><path fill="#FFF" d="M75.92 101.18c-5.67 2.97-16.68 3.6-21.98 1.13-1.22-.57-2.46-1.3-3.76-2.22-5.05-3.55-7.64-10.1-6.79-17.08.21-1.75.79-4.13 1.7-5.64 4.1 3.82 13.14 3.97 19.31 3.92 5.11-.04 12.19-.13 16.51-2.45.71-.38 1.31-.84 1.85-1.35.75.9 1.35 2.02 1.74 3.45 2.45 8.72-.68 16.1-8.58 20.24z"/></svg>