<svg xmlns="http://www.w3.org/2000/svg" width="128" height="128" viewBox="0 0 128 128"><g fill="#FCC21B"><path d="M51.87 80.87c.23-.08.41.19.53.34.23.29.46.66.63.97 1.47 2.48 4.28 5.61 6.8 7.05 3.33 1.92 8.28 1.13 8.94-3.21.16-1.03-.13-2.12-.75-2.9-.77-.95-2.13-1.37-3.23-2.04-2.47-1.49-4.39-4.18-6.09-6.46-1.46-1.97-2.74-4.08-3.94-6.23-.7-1.26-1.7-2.29-2.65-3.37-.42-.48-1.18-1.22-1.63-1.97.05-.04.09-.09.15-.13.78-.51 1.62-.88 2.4-1.4 2.88-1.94 4.97-4.83 6.04-8.09 1.04-3.11 1.21-6.46.93-9.7-.05-.67-.15-1.34-.31-2-.05-.23-.51-1.19-.38-1.41.18-.31.79.25 1.08-.03.27-.26.15-1.02.08-1.34-.66-3.15-3.3-6.05-5.92-7.8-3.25-2.17-7.39-3.35-11.18-3.62-4.7-.33-9.67.74-13.36 3.61-6.7 5.24-9.25 13.69-5.94 21.68 1.12 2.68 2.88 5.12 5.07 7.13 1.4 1.26 4.75 2.03 2.67 4.43-.01.02-.05.06-.07.09-.74.64-1.5 1.21-2.03 1.71-5.54 5.09-10.38 11.18-12.06 18.67-.3 1.35-.31 3.1-.08 4.47.22 1.25 1.04 2.74 2.08 3.56 1.02.81 2.6.92 3.91.92.71 0 1.32-.03 1.95-.29.65-.26 1.29-.66 1.73-1.23.45-.59.65-1.36.72-2.06.05-.47 0-.97 0-1.44 0-.68-.04-1.21-.26-1.84-.21-.59-.09-1.1.04-1.7.33-1.46.67-2.93 1.4-4.24.43-.76 1-1.59 1.87-1.88.32-.1.68-.1.87.29.24.51.01 1.13-.26 1.58-.32.53-.64.9-.79 1.54-.38 1.56-.37 3.18-.25 4.78.2 2.56.04 4.16-1.1 6.45-.42.84-.78 1.72-1.22 2.55-.45.85-.95 1.63-1.5 2.44-1.36 1.96-2.87 3.71-4.56 5.41-1.25 1.25-2.64 2.51-3.48 4.04-.71 1.31-1.14 2.82-1.12 4.32.08 4.31 6.21 10.75 10.63 8.08 1.44-.86 2.27-2.58 1.83-4.22-.22-.83-.65-1.61-.78-2.46-.18-1.07.28-1.62.83-2.45 2.03-3.01 3.9-6.19 6.6-8.68 1.04-.97 2.28-1.89 3.69-2.24.63-.16 1.28-.2 1.93-.07 2.12.42 3.3 2.6 4.28 4.3 1.6 2.77 3.42 5.38 5.17 8.07 1.12 1.75 2.21 3.52 3.26 5.32 1.53 2.65 4.21 3.24 7.02 2.35 1.17-.38 2.44-1.04 3.39-1.84 1.7-1.44 3.8-4.04 3.05-6.29-.32-.96-1.08-1.86-1.88-2.45-1.09-.79-1.76-.56-2.95-.62-2.07-.11-3.38-2.38-4.27-3.96-1.43-2.54-3.02-5.1-4.24-7.79-1.29-2.84-1.71-5.66-2.21-8.72-.19-1.17-.45-2.33-.67-3.49-.11-.59-.28-1.24-.28-1.84-.04-.5-.67-2.45-.13-2.65zM105.11 68.54c.09-.07.17-.17.27-.33.32-.56.49-1.15.66-1.77.88-3.1.65-6.35-.2-9.43-.71-2.63-2.02-5.1-3.66-7.3-.17-.24-.35-.47-.54-.7-.26-.33-.53-.66-.81-.98-.54-.61-1.12-1.2-1.75-1.74-.08-.08-.15-.17-.22-.24-.23-.2-.74-.74-1.18-.88-.35-.25-.69-.52-1.05-.75-1.46-.9-3.01-1.6-4.69-2.07-4.15-1.12-8.05-.85-12 .83-1.62.69-3.07 1.6-4.37 2.7-.34.28-.62.59-.93.89-.42.2-.85.81-1.05 1.04-.11.12-.18.25-.28.38-.5.58-.95 1.18-1.38 1.82-.26.39-.5.79-.74 1.19-.12.22-.25.43-.36.66-1.34 2.42-2.33 5.06-2.66 7.78-.41 3.16-.18 6.42 1.1 9.36.26.59.53 1.15.9 1.67.84 1.13 1.5-.98 2.38-.74.83.22 1.15 1.61 2.19 1.22.67-.24 1.11-.84 1.68-1.17.29.3.61.61.94.89a13.13 13.13 0 0 0 4.13 2.35c1.43.51 2.87.62 4.35.89.78.15 1.5.25 2.28.19 3.7-.27 9.5-2.22 11.17-5.93.27.08.38.34.58.5.28.22.67.4 1.04.48 1.06.24 1.21-1.18 1.99-1.51.74-.34 1.56 1.14 2.21.7z"/><path d="M64.8 81.14c.57-1.95 2.36-2.5 4.17-2.71 1.49-.17 3.45-.06 4.52 1.14.68.75 1 1.59 1.09 2.42.73-.49 1.25-3.42 2.44-4.89.91-1.75 2.07-3.46 3.57-4.77 3.19-2.8 8.24-2.65 11.91-.94 1.88.88 3.08 2.47 4.21 4.13 2.64 3.88 4.76 8.06 7.56 11.83.44.59.81 1.2 1.48 1.57.22.13.55.2.8.28 2.86.97 5.79 4.31 2.81 6.93-.94.82-2.21 1.16-3.47 1.03-1.03-.12-2.5-.62-3.21-1.35-.48-.49-.68-1.1-1.08-1.61-.54-.67-1.1-1.31-1.68-1.95.42 1.18.83 2.37 1.14 3.58.15.6.31 1.24.5 1.82.3.92.48 2.05-.25 2.82-.53.55-1.37.78-2.02 1.06-2.03.86-4.11 1.65-6.25 2.12-3.52.77-7.22.79-10.75.12-2.57-.48-6.82-1.33-8.69-3.31-.72-.77-.55-1.9-.25-2.82.17-.59.33-1.22.49-1.82.48-1.86 1.15-3.66 1.86-5.43-.53.05-1.05 0-1.58-.14-.79-.23-1.51-.69-2.17-1.18-.76-.57-1.41-1.29-2.3-1.66-.25-.11-.49-.2-.7-.32-.54-.09-1.07-.24-1.55-.42-.19-.07-.39-.16-.56-.26-1.79-1-2.61-3.28-2.04-5.27z"/><path d="M88.96 97.49c.12-.18.24-.35.39-.52.86-.99 2.11-1.52 3.45-1.46 1.06.05 2.01 1.03 2.53 1.88.88 1.42.62 3.46.53 5.04-.17 3.36-.94 7.08-.28 10.42.52 2.65 1.94 2.01 3.33 3.59.64.73.97 1.86.73 2.83-.73 3-4.27 3.74-6.51 3.25-3.54-.78-3.97-4.79-4.21-8.28-.18-2.64-.4-5.8-.51-8.65-.08-2.36-.72-5.97.55-8.1zM81.64 96.62c.17-.11.37-.21.56-.29 1.22-.51 2.57-.42 3.75.24.92.52 1.33 1.82 1.42 2.81.14 1.67-.99 3.37-1.77 4.74-1.67 2.94-4.02 5.91-4.92 9.2-.72 2.61.84 2.66 1.38 4.69.24.94.02 2.1-.62 2.86-1.98 2.35-5.49 1.43-7.28-.01-2.82-2.27-1.41-6.06-.05-9.29 1.02-2.44 2.23-5.37 3.42-7.95.97-2.16 2-5.67 4.11-7z"/></g></svg>