<svg xmlns="http://www.w3.org/2000/svg" xmlns:xlink="http://www.w3.org/1999/xlink" width="128" height="128" viewBox="0 0 128 128"><path fill="#2F2F2F" d="M108.89 17.55h-19c-4.72 0-8.57 3.84-8.57 8.57v8.87c-.75-1.74-1.6-3.67-2.45-5.62-2.11-4.81-4.25-9.71-5.1-11.88-1.11-2.85-3.57-6.8-6.8-8.53-1.18-.63-2.59-.96-4.33-.96-.69 0-1.63.01-2.63.25-3.9.9-6.45 4.91-6.86 8.21-.62 4.86 1.08 9.25 2.88 13.32 1.53 3.47 7.54 17.48 9.04 21.08 1.51 3.59 3.09 7.34 4.69 10.97l.58 1.36c-3.48.01-6.96.08-10.44.15-3.76.08-7.53.15-11.3.15l-3.67-.01c-5.07 0-9.25.1-13.14.31-.58.03-1.2.04-1.83.04-3.66.04-12.22.13-13.25 8.9-.45 3.77.55 7.11 2.81 9.39 1.1 1.12 2.26 1.73 3.11 2.17.28.15.67.36.71.37 2.86 5.84 7.35 10.69 13 14.03 1.86 1.1 3.75 1.79 5.42 2.41.97.35 1.93.7 2.87 1.14 1.04.48 1.64 1.18 1.74 1.12-.16.24-1.01.72-1.58 1.04-1.96 1.09-5.23 2.92-5.86 7.35-.33 2.24.28 4.41 1.69 6.12 1.72 2.08 4.62 3.4 7.74 3.53l5.34.25c4.14.2 7.57.36 10.98.36 5.49 0 10.63-.44 17.2-1.47 3.06-.48 4.72-1.98 5.57-3.15.85-1.17 1.76-3.2 1.27-6.25-.73-4.53-4.31-6.45-6.55-7.51-.05-.24-.1-.53-.16-.9.18-.53 1.88-1.69 2.79-2.32 1.35-.93 2.9-1.99 4.12-3.4 3.96-4.54 6.66-10.58 7.52-16.55h12.43c4.73 0 8.57-3.84 8.57-8.57V26.12c.02-4.73-3.83-8.57-8.55-8.57z"/><defs><path id="a" d="M44.94 69.05c-4.97 0-9.05.1-12.84.3-.65.03-1.35.04-2.07.05-4.55.05-7.35.34-7.78 4-.17 1.45-.09 3.46 1.25 4.81.5.51 1.1.83 1.74 1.17 1.08.57 2.32 1.22 3.11 2.84 2.38 4.86 6.13 8.9 10.83 11.68 1.42.84 2.92 1.39 4.51 1.98 1.11.41 2.22.82 3.31 1.32 2.41 1.12 4.18 2.96 4.75 4.91.41 1.43.18 2.9-.67 4.24-.91 1.42-2.32 2.21-3.56 2.9-1.75.98-2.83 1.66-3.07 3.29-.1.69.06 1.26.47 1.76.81.98 2.44 1.47 3.69 1.52 1.94.08 3.71.17 5.36.25 4.14.2 7.41.36 10.72.36 5.18 0 10.07-.42 16.33-1.41.94-.15 1.59-.46 1.93-.92.33-.46.43-1.17.28-2.09-.29-1.76-1.65-2.52-3.55-3.4-2.42-1.11-2.68-2.44-3.11-4.65-.81-4.11 2.45-6.35 5.08-8.15 1.19-.82 3.51-3.05 4.27-3.92 4.03-4.63 6.48-9.98 6.36-15.87 0-.3.11-.59.32-.8.21-.22.5-.33.8-.33h15.48c1.65 0 3-1.35 3-3V26.12c0-1.66-1.35-3-3-3h-19c-1.64 0-3 1.35-3 3v30.79c0 .52-.36.97-.87 1.09-.54.11-1.04-.14-1.26-.62-.33-.72-.68-1.42-1.03-2.09-1.59-3.01-2.79-6.21-3.95-9.31-.42-1.12-.84-2.24-1.27-3.35-.8-2.03-2.81-6.6-4.74-11.03-2.13-4.85-4.32-9.87-5.19-12.09-.8-2.07-2.56-4.75-4.22-5.64-.37-.2-.88-.3-1.48-.3-.72 0-1.22.01-1.63.1-1.27.29-2.41 2.08-2.58 3.49-.44 3.45.97 7.01 2.45 10.37 1.52 3.44 7.51 17.43 9.04 21.08 1.54 3.65 3.1 7.37 4.69 10.97l.65 1.51c.89 2.08 1.81 4.24 3.11 5.97.26.34.3.8.11 1.18-.19.37-.58.6-.99.6h-.02c-2.23-.06-4.47-.1-6.7-.1-3.79.01-7.39.08-10.98.15-3.81.08-7.61.15-11.41.15l-3.67.01z"/></defs><use xlink:href="#a" overflow="visible" fill="#FFF"/><clipPath id="b"><use xlink:href="#a" overflow="visible"/></clipPath><g clip-path="url(#b)"><path fill="#FFF" d="M113 71.88c0 2.26-1.85 4.11-4.12 4.11h-19c-2.26 0-4.11-1.85-4.11-4.11V26.12c0-2.26 1.85-4.12 4.11-4.12h19c2.26 0 4.12 1.85 4.12 4.12v45.76z"/><path fill="#78A3AD" d="M86.82 60.95s4.74 4.18 10.86 4.46c6.13.28 14.48-.14 14.62-5.85v14.62l-1.69 2.61H85.15l1.67-15.84z"/><path fill="#FFF" d="M62.68 12.46c-.57 0-1.14.01-1.67.13-1.83.42-3.22 2.7-3.44 4.44-.49 3.79 1.04 7.56 2.53 10.96 1.54 3.48 7.57 17.54 9.04 21.06 1.52 3.6 3.1 7.35 4.7 10.99 1.41 3.17 2.65 6.87 5.28 9.27 1.5 1.37 7.6 2.55 8.78-1.02.71-2.12.06-4.16-1.08-7.33-2.6-7.24-6.22-16.06-7.27-18.73-1.67-4.24-8.27-18.87-9.92-23.11-.82-2.09-2.68-5.12-4.74-6.22-.61-.32-1.34-.44-2.02-.44h-.19z"/><defs><path id="c" d="M47.27 67.94c-5.08-.03-10.16.02-15.23.3-4.26.23-10.21-.73-10.89 5.03-.24 2.03.06 4.22 1.56 5.72 1.53 1.55 3.58 1.54 4.65 3.71 2.48 5.06 6.42 9.28 11.27 12.15 2.54 1.5 5.29 2.13 7.91 3.35 2.9 1.35 5.63 4.38 3.6 7.55-1.81 2.85-6.23 2.76-6.79 6.63-.44 3.07 2.84 4.46 5.21 4.56 13.6.58 19.16 1.31 32.64-.81 2.3-.36 3.56-1.62 3.13-4.29-.38-2.36-2.23-3.33-4.18-4.24-1.9-.88-2.07-1.71-2.49-3.85-.98-4.98 5.22-6.6 7.9-9.68 4.53-5.2 7.46-13.18 6.61-20.12-.12-1.04-.81-4.45-3.72-5.51-1.64-.6-3.99-.38-5.73-.49-3.97-.24-7.94-.31-11.91-.31-7.84.02-15.68.34-23.54.3z"/></defs><use xlink:href="#c" overflow="visible" fill="#FFF"/><clipPath id="d"><use xlink:href="#c" overflow="visible"/></clipPath><path clip-path="url(#d)" fill="#78A3AD" d="M82.4 81.59c-1.49.09-2.78.15-2.78.13.16 1.88.66 3.43.25 5.32-.45 2.11-1.33 4.18-2.57 5.95-1.17 1.67-2.59 2.88-4.23 4.01-1.51 1.05-3.42 2.46-4.26 4.13-.84 1.64-.73 3.82-.07 5.51 1.44 3.65 3.79 7.48-.34 10.24-.32.22-1.39.44-1.35.84 1.23.17 2.46.21 3.71.34.98.1 1.97.3 2.95.2 1.09-.1 2.19-.51 3.29-.67 1.3-.19 2.58-.02 3.85-.15 2.23-.25 4.89-1.96 4.88-4.41-.01-1.15.27-2.6-.34-3.63-.71-1.21-2.08-2.69-3.13-3.63-1.08-.97-2.67-1.42-3.44-2.78-1.51-2.68 3.13-4.69 4.52-6.24 2.13-2.39 4.41-4.63 6.08-7.39.73-1.22 1.25-2.55 1.65-3.91.17-.59.21-1.19.33-1.76.1-.5.45-.91.54-1.41.32-1.77-4.03-1.02-5.1-.97-.3.03-2.54.17-4.44.28z"/><path clip-path="url(#d)" fill="#78A3AD" d="M23.85 79.24h69.99v4.82H23.85z"/></g></svg>