<svg xmlns="http://www.w3.org/2000/svg" xmlns:xlink="http://www.w3.org/1999/xlink" width="128" height="128" viewBox="0 0 128 128"><path fill="#2F2F2F" d="M118.8 19.85h-18.59c-4.62 0-8.39 3.76-8.39 8.39v8.68c-.74-1.7-1.57-3.59-2.4-5.5-2.06-4.71-4.16-9.5-4.99-11.63-1.09-2.79-3.49-6.65-6.66-8.35-1.15-.61-2.53-.93-4.23-.93-.67 0-1.59.01-2.58.24-3.82.88-6.31 4.8-6.71 8.04-.61 4.76 1.06 9.05 2.81 13.04 1.5 3.4 7.38 17.11 8.85 20.63 1.48 3.52 3.03 7.19 4.59 10.74l.57 1.33c-3.4.01-6.81.08-10.22.15-3.68.07-7.37.15-11.05.15l-3.58-.01c-4.96 0-9.05.1-12.87.3-.57.03-1.17.04-1.79.04-3.58.04-11.96.13-12.96 8.71-.44 3.69.54 6.95 2.75 9.19 1.08 1.09 2.21 1.69 3.04 2.13.28.15.66.35.69.36 2.8 5.71 7.2 10.46 12.73 13.73 1.81 1.07 3.67 1.75 5.3 2.35.95.35 1.89.69 2.82 1.12 1.01.47 1.6 1.16 1.69 1.09-.15.24-1 .71-1.55 1.02-1.91 1.07-5.11 2.85-5.73 7.19-.32 2.19.27 4.31 1.66 5.98 1.69 2.03 4.52 3.33 7.57 3.45l5.22.24c4.06.2 7.42.35 10.75.35 5.38 0 10.41-.43 16.83-1.44 2.99-.47 4.62-1.94 5.44-3.08.84-1.14 1.73-3.13 1.25-6.11-.71-4.44-4.22-6.31-6.41-7.35-.05-.23-.09-.52-.16-.88.18-.52 1.84-1.66 2.73-2.27 1.33-.91 2.84-1.95 4.04-3.33 3.87-4.44 6.51-10.36 7.36-16.19h12.17c4.62 0 8.39-3.76 8.39-8.39V28.24c0-4.63-3.76-8.39-8.38-8.39z"/><defs><path id="a" d="M56.22 70.25c-4.87 0-8.86.09-12.57.29-.64.03-1.32.04-2.02.05-4.45.05-7.19.34-7.61 3.91-.17 1.42-.1 3.38 1.22 4.71.49.5 1.08.81 1.71 1.14 1.06.56 2.27 1.2 3.04 2.78 2.33 4.76 6 8.71 10.6 11.43 1.39.82 2.86 1.36 4.42 1.93 1.09.4 2.17.8 3.24 1.3 2.36 1.1 4.09 2.9 4.65 4.81.4 1.4.18 2.84-.67 4.15-.88 1.39-2.26 2.16-3.48 2.84-1.71.96-2.77 1.62-3 3.22-.09.67.06 1.24.46 1.73.79.96 2.38 1.43 3.61 1.49 1.9.08 3.63.17 5.25.24 4.05.2 7.25.35 10.5.35 5.07 0 9.85-.41 15.99-1.38.92-.14 1.55-.45 1.89-.9.33-.45.42-1.14.27-2.05-.28-1.72-1.62-2.47-3.47-3.33-2.37-1.09-2.63-2.39-3.05-4.55-.79-4.02 2.4-6.21 4.97-7.98 1.17-.8 3.44-2.98 4.18-3.84 3.95-4.53 6.35-9.77 6.23-15.53-.01-.29.11-.57.31-.78.21-.21.48-.33.78-.33h15.15c1.62 0 2.93-1.32 2.93-2.94V28.24c0-1.62-1.31-2.94-2.93-2.94h-18.59c-1.62 0-2.94 1.32-2.94 2.94v30.13c0 .51-.35.95-.85 1.06-.53.11-1.01-.14-1.23-.6-.33-.7-.67-1.39-1.01-2.04-1.55-2.95-2.72-6.08-3.86-9.11-.41-1.09-.82-2.19-1.25-3.28-.78-1.98-2.75-6.46-4.64-10.79-2.08-4.75-4.23-9.66-5.08-11.83-.79-2.03-2.51-4.65-4.13-5.52-.37-.19-.86-.3-1.45-.3-.7 0-1.18.01-1.59.1-1.23.29-2.35 2.04-2.52 3.41-.43 3.37.95 6.86 2.4 10.15 1.49 3.37 7.36 17.06 8.85 20.63 1.51 3.57 3.04 7.21 4.59 10.73l.64 1.48c.87 2.04 1.77 4.15 3.04 5.84.25.34.29.79.1 1.16-.19.36-.56.59-.97.59h-.03c-2.18-.06-4.37-.1-6.55-.1-3.71.01-7.23.08-10.75.15-3.72.07-7.44.15-11.17.15h-3.61z"/></defs><use xlink:href="#a" overflow="visible" fill="#FFF"/><clipPath id="b"><use xlink:href="#a" overflow="visible"/></clipPath><g clip-path="url(#b)"><path fill="#FFF" d="M122.82 73.02c0 2.21-1.81 4.03-4.03 4.03H100.2c-2.22 0-4.03-1.81-4.03-4.03V28.24c0-2.22 1.81-4.03 4.03-4.03h18.59c2.21 0 4.03 1.81 4.03 4.03v44.78z"/><path fill="#78A3AD" d="M97.2 62.33s4.63 4.09 10.63 4.36c5.99.27 14.17-.14 14.31-5.72v14.31l-1.65 2.56H95.56l1.64-15.51z"/><path fill="#FFF" d="M73.58 14.87c-.55 0-1.11.01-1.63.13-1.8.41-3.15 2.64-3.36 4.34-.48 3.71 1.01 7.4 2.48 10.72 1.5 3.41 7.41 17.17 8.84 20.61 1.48 3.52 3.03 7.2 4.59 10.75 1.38 3.1 2.59 6.72 5.16 9.07 1.48 1.35 7.43 2.49 8.59-1 .7-2.08.06-4.07-1.05-7.17-2.54-7.09-6.09-15.72-7.12-18.33-1.64-4.15-8.1-18.46-9.71-22.62-.8-2.05-2.62-5.01-4.64-6.08-.59-.31-1.3-.43-1.97-.43-.06.01-.13.01-.18.01z"/><defs><path id="c" d="M58.5 69.17c-4.96-.02-9.95.02-14.91.29-4.16.22-9.99-.71-10.65 4.92-.24 1.98.06 4.13 1.53 5.6 1.49 1.52 3.5 1.51 4.54 3.63 2.42 4.96 6.28 9.09 11.02 11.89 2.48 1.46 5.18 2.08 7.74 3.28 2.84 1.32 5.51 4.28 3.53 7.39-1.77 2.79-6.1 2.7-6.64 6.49-.44 3.01 2.78 4.36 5.1 4.46 13.31.57 18.75 1.28 31.94-.8 2.25-.35 3.48-1.59 3.07-4.2-.37-2.31-2.18-3.26-4.09-4.15-1.87-.85-2.03-1.68-2.44-3.77-.95-4.87 5.11-6.46 7.74-9.47 4.42-5.08 7.29-12.9 6.46-19.69-.12-1.02-.79-4.35-3.64-5.39-1.61-.58-3.9-.37-5.6-.48-3.88-.23-7.77-.3-11.66-.3-7.69.02-15.36.34-23.04.3z"/></defs><use xlink:href="#c" overflow="visible" fill="#FFF"/><clipPath id="d"><use xlink:href="#c" overflow="visible"/></clipPath><path clip-path="url(#d)" fill="#78A3AD" d="M92.88 82.52c-1.46.08-2.72.15-2.72.13.15 1.84.64 3.36.25 5.21-.44 2.06-1.3 4.09-2.51 5.82-1.15 1.63-2.54 2.82-4.14 3.93-1.48 1.03-3.35 2.41-4.18 4.05-.81 1.61-.71 3.74-.06 5.39 1.4 3.57 3.7 7.32-.33 10.02-.32.22-1.36.43-1.32.82 1.2.16 2.41.21 3.62.33.96.1 1.93.29 2.89.2 1.07-.1 2.15-.5 3.22-.65 1.27-.18 2.52-.01 3.77-.15 2.18-.24 4.78-1.92 4.77-4.31-.01-1.12.26-2.55-.34-3.55-.69-1.18-2.03-2.63-3.06-3.55-1.06-.95-2.61-1.39-3.37-2.72-1.48-2.62 3.07-4.59 4.42-6.11 2.08-2.33 4.32-4.53 5.95-7.23.72-1.19 1.22-2.5 1.62-3.83.17-.57.2-1.16.32-1.72.1-.49.44-.89.52-1.38.32-1.73-3.94-1-4.99-.95-.28.01-2.47.15-4.33.25z"/><path clip-path="url(#d)" fill="#78A3AD" d="M35.58 80.23h68.49v4.72H35.58z"/></g><g fill="#006CA2"><path d="M49.97 52.98c3.92 0 7.29-1.6 10.04-4.76l.07-.37-2.96-7.81-.26-.23-.33.11C54.88 41.68 52.08 43 49.99 43c-4.05 0-6.88-3.75-6.88-9.11 0-5.37 2.83-9.11 6.88-9.11 2.18 0 4.43.95 5.85 2.48l.33.11.28-.22 3.27-8.03-.07-.38c-2.46-2.62-5.71-3.95-9.67-3.95-8.52 0-14.7 8.03-14.7 19.1-.01 11.06 6.17 19.09 14.69 19.09zM33.97 15.86a.74.74 0 0 0-.55-.26h-6.44a.72.72 0 0 0-.71.61l-2.41 16.44-3.36-16.48c0-.01-.01-.01-.01-.01a.61.61 0 0 0-.15-.3c-.02-.03-.05-.03-.07-.06a.555.555 0 0 1-.08-.06.717.717 0 0 0-.4-.14h-4.66c-.15 0-.29.06-.4.14-.03.02-.05.04-.07.06-.03.02-.06.03-.08.06a.69.69 0 0 0-.14.3c0 .01-.01.01-.01.01l-3.37 16.49-2.41-16.45a.72.72 0 0 0-.71-.61H1.5c-.21 0-.42.09-.55.26-.14.16-.19.38-.16.59L7.24 51.6l.01.01c.02.12.07.23.14.32.02.02.05.04.07.06.02.01.04.03.08.05.12.08.25.15.4.15h5.14c.15 0 .29-.06.4-.14.03-.02.05-.03.07-.05.02-.02.05-.03.06-.05.08-.09.12-.2.15-.31 0-.01.01-.01.01-.02l3.67-19.24 3.67 19.24c.01.01.02.01.02.02.02.11.07.22.14.31.02.02.05.03.07.05.03.02.05.04.07.05.12.08.26.14.41.14h5.14c.16 0 .29-.06.4-.15.03-.02.06-.04.08-.06.02-.02.06-.03.08-.06.08-.09.12-.2.14-.31l.01-.01 6.44-35.15a.66.66 0 0 0-.14-.59z"/></g></svg>