<svg xmlns="http://www.w3.org/2000/svg" width="128" height="128" viewBox="0 0 128 128"><path fill="#FFF" d="M2.08 64c0 34.2 27.72 61.92 61.92 61.92S125.92 98.2 125.92 64 98.2 2.08 64 2.08 2.08 29.81 2.08 64z"/><path fill="#ED6C30" d="M.49 64c0 35.08 28.44 63.51 63.51 63.51 35.08 0 63.51-28.44 63.51-63.51S99.08.49 64 .49.49 28.92.49 64zm13.54 0c0-27.6 22.36-49.97 49.96-49.97S113.96 36.4 113.96 64c0 27.59-22.37 49.97-49.97 49.97-27.59 0-49.96-22.38-49.96-49.97z"/><path fill="#006CA2" d="M32.82 113.79c1.13.96 2.64 1.74 4.04 2.19 3.33 1.06 6.54.35 8.36-2.8 1.43-2.48 2.77-4.93 4.34-7.33 1.93-2.93 3.88-5.82 5.79-8.76 1.55-2.4 2.62-7.16 6.01-7.45h.36c.86.04 1.35.53 2.05.96.79.47 1.54.97 2.26 1.53 1.47 1.14 2.81 2.45 4.05 3.84 2.48 2.78 4.56 5.89 6.63 8.97.66.99 1.2 1.65 1 2.92-.17 1.02-.68 1.94-.94 2.93-.52 1.96.47 4 2.18 5.03 5.27 3.19 12.58-4.49 12.65-9.62.03-1.79-.48-3.58-1.34-5.14-1-1.82-2.65-3.32-4.14-4.81-2.01-2.02-3.81-4.1-5.43-6.44-.66-.96-1.26-1.9-1.79-2.9-.72-1.35-1.29-2.79-1.99-4.13-.69-1.31-.54-2.98-.46-4.45.22-4.02.1-8.05-1.08-11.93-.3-.95-1.25-2.95-.77-3.94.69-1.46 3.55.78 4.18 1.36 1.8 1.65 3.7 4.24 4.24 6.63.37 1.71-.29 3.32-.29 5.02 0 .56-.06 1.15 0 1.71.09.83.32 1.75.85 2.45.51.68 1.27 1.15 2.05 1.47.76.31 1.48.34 2.31.34 1.56 0 3.44-.12 4.66-1.09 1.23-.97 2.19-2.75 2.46-4.23 2.14-11.94-8.36-23.57-17.85-29.01-2.58-1.48-7.18-4.81-3.69-7.96 2.08-1.87 4.15-5.21 5.22-7.8 3.21-7.84.72-16.36-5.8-21.71-5.22-4.32-13.59-4.84-19.47-2.01-7.6 3.66-10.68 11.87-9.37 19.51.49 2.83 1.51 5.56 3.02 8 1.28 2.07 3.23 3.64 5.28 4.91.33.2.78.54.97.88.17.31.22.81.22 1.15 0 1.92-1.33 3.55-2.47 4.96-1 1.24-1.71 2.63-2.65 3.95-.87 1.21-1.67 2.5-2.58 3.68-.98 1.25-1.75 2.57-2.73 3.77-1.82 2.25-3.53 4.62-5.86 6.33-1.23.9-2.49 1.81-3.38 3.06-.82 1.15-1.39 2.72-1.23 4.1.06.42.07.68.28 1.06.27.45.64.82.91 1.25.23.36.5.68.82.96.63.54 1.41.87 2.23 1.02 1.59.3 3.36-.01 4.76-.81 1.34-.78 2.2-1.89 3.17-3.07.63-.75 1.18-1.55 1.72-2.36.27-.4.5-.85.8-1.23.22-.28.52-.49.74-.78.29-.36.44-.78.67-1.15.27-.41.56-.77.75-1.21.22-.51.45-.99.98-1.24 2.17-1 .89 3.82.89 4.65-.01.72-.21 1.49-.34 2.19-.25 1.39-.56 2.77-.79 4.16-.6 3.72-1.66 7.38-3.33 10.77-1.59 3.22-2.81 6.61-4.47 9.8-1.33 2.56-3.14 5.9-6.29 6.38-1.48.23-3.05-.06-4.3.84-1.13.81-2.24 1.76-2.69 3.13-.89 2.68 1.6 5.79 3.62 7.5z"/><path fill="#ED6C30" d="M114.34 99.38l-10.6 11.54L12.22 27.5l10.6-11.53z"/></svg>