<svg xmlns="http://www.w3.org/2000/svg" width="128" height="128" viewBox="0 0 128 128"><path fill="#2F2F2F" d="M98.92 121.1c-12.98 0-23.54-10.56-23.54-23.54 0-12.98 10.56-23.53 23.54-23.53s23.54 10.56 23.54 23.53c-.01 12.98-10.56 23.54-23.54 23.54zm0-42.81c-10.62 0-19.27 8.64-19.27 19.27 0 10.63 8.65 19.27 19.27 19.27s19.27-8.65 19.27-19.27c-.01-10.63-8.65-19.27-19.27-19.27zM29.09 121.1c-12.98 0-23.54-10.56-23.54-23.54 0-12.98 10.56-23.53 23.54-23.53 12.98 0 23.54 10.56 23.54 23.53 0 12.98-10.56 23.54-23.54 23.54zm0-42.81c-10.63 0-19.28 8.64-19.28 19.27 0 10.63 8.65 19.27 19.28 19.27s19.27-8.65 19.27-19.27c0-10.63-8.64-19.27-19.27-19.27z"/><path fill="#40C0E7" d="M29.13 99.92a2.4 2.4 0 0 1-2.05-1.16c-.57-.97-.38-2.18.41-2.91 1.06-1.99 5.85-13.72 11.75-40.94a2.348 2.348 0 0 1 4.59.99c-3.53 16.23-6.58 26.71-8.53 32.65-3.6 10.98-4.58 11.13-5.79 11.33-.14.03-.26.04-.38.04z"/><path fill="#40C0E7" d="M77.7 70.84c-.11 0-.22-.01-.34-.02l-37.93-5.48c-1.28-.18-2.17-1.38-1.99-2.66.18-1.28 1.34-2.17 2.66-1.99l37.93 5.48c1.28.19 2.18 1.38 1.98 2.66a2.343 2.343 0 0 1-2.31 2.01z"/><path fill="#40C0E7" d="M64.46 99.17c-.74 0-1.45-.35-1.9-.96L37.86 64.4a2.35 2.35 0 0 1 .52-3.28 2.36 2.36 0 0 1 3.28.51L64 92.22l16.04-34.89c.54-1.18 1.93-1.7 3.11-1.15 1.18.54 1.69 1.94 1.14 3.11L66.59 97.8c-.35.76-1.07 1.27-1.9 1.36-.07.01-.16.01-.23.01z"/><path fill="#40C0E7" d="M98.74 99.17H64.46c-1.29 0-2.35-1.05-2.35-2.35s1.05-2.35 2.35-2.35h29.62L75.81 69.89c-.77-1.04-.56-2.51.48-3.28 1.04-.78 2.51-.55 3.29.48l21.05 28.34c.53.71.61 1.66.21 2.45-.4.79-1.21 1.29-2.1 1.29z"/><path fill-rule="evenodd" clip-rule="evenodd" fill="#2F2F2F" d="M89.05 52.51c-1.2-.68-2.54-.52-3.92-.58-1.67-.08-3.35-.16-5.03-.26-2.79-.18-5.62.04-8.38-.11-1.6-.09-3.13 1.1-3.68 2.53-.75 1.95.57 3.18 2.22 4.07 2.04 1.1 4.31 1.62 6.54 2.17 2.42.59 4.84 1.35 7.32 1.69 2.41.33 5.13-.62 6.53-2.67 1.46-2.12.85-4.96-1.18-6.54-.13-.12-.28-.21-.42-.3zM67.32 103.63c-.27 0-.54 0-.79-.01-1.02-.04-2.11-.2-3.13-.12-1.88.15-4.35 1.49-4.2 3.67.18 2.72 2.23 2.38 4.32 2.38 2.09 0 5.62.53 7.36-.93 1.29-1.09.96-3.77-.52-4.57-.89-.47-2.01-.43-3.04-.42z"/><path fill-rule="evenodd" clip-rule="evenodd" fill="#2F2F2F" d="M66.07 97.25c-.5.46-.49 1.36-.72 1.96-.33.87-.52 1.69-.57 2.6-.05.94-.4 1.81-.51 2.75-.27 2.14 2.67 1.63 3.22.16.52-1.38.69-2.84.97-4.27.21-1.02 1.29-3.13-.25-3.75-.44-.17-1.74.23-2.08.5-.02.01-.05.03-.06.05z"/><path fill="#2F2F2F" d="M31.76 64.96c-.14 0-.28-.01-.43-.04-3.77-.68-5.42-2.62-6.15-4.12-1.18-2.47-.61-5.18.24-6.76 2.11-3.93 7.14-4.13 9.78-3.64l9.02 2.16c1.26.3 2.04 1.57 1.74 2.83-.31 1.26-1.57 2.05-2.83 1.73l-8.9-2.13c-.04 0-3.69-.53-4.66 1.27-.29.55-.53 1.68-.14 2.5.46.95 1.75 1.36 2.76 1.55 1.28.23 2.12 1.45 1.89 2.73a2.356 2.356 0 0 1-2.32 1.92z"/><path fill="#006CA2" d="M35.82 35.01c-.23-.26-.44-.53-.63-.81-5.74-8.16-3.92-17.76 2.52-22.18 9.22-6.33 18.96-2.7 22.4 3.35.95 1.66 1.7 3.44 2.09 5.33.28 1.35-.1 3.02.73 4.22.9 1.3 3.01 1.94 4.48 2.31C74.79 29.1 82.27 34 86.27 40.55c5.32 8.7-.14 16.58-5.34 23.7-3.3 4.54-6.39 9.59-7.35 15.21-.47 2.78-.42 5.73.05 8.52.35 2.06 1.26 3.98 1.63 6.03.75 4.31-2.12 7.3-6.01 8.73-1.52.56-2.6 1.18-4.25 1.17-7.68-.04-8.07-6.68-4.44-11.56 1.17-1.58.16-4.33-.59-6.15-1.94-4.67-1.53-11.14-.06-15.89 1.78-5.75 6.2-11.05 1.88-16.88-2.46-3.32-4.49-7.03-7.43-9.97-3.54-3.55-5.87-2.91-10.4-3.74-3.02-.58-6.11-2.3-8.14-4.71z"/><path fill="#006CA2" d="M25.65 63.71c-.84-4.5 1.65-7.74 6.3-7.74 2.05 0 4.26.97 6.17.17 6.76-2.8 10.69-9.05 10.64-16.31-.02-2.72-.24-5.58 2.77-6.65 2.18-.78 6.68-1.13 8.01 1.31 1.07 1.97.7 5.48 1 7.68C62 52.84 52.29 64.3 42.03 66.74c-.75.18-1.69-.01-2.37.3-.58.26-1.05.74-1.65 1.03-3.97 1.95-11.43.58-12.36-4.36z"/><path fill="#40C0E7" d="M37.83 9.05c-.77.36-1.52.79-2.23 1.3-2.97 2.18-4.95 5.65-5.72 9.21-.15.71-.28 1.42-.38 2.14-.21 1.55-.29 3.23.09 4.75.9 3.56 4.43 1.92 6.87 1.18 2.04-.63 4.07-1.28 6.12-1.93 6.69-2.12 13.51-4.03 20.02-6.62 2.1-.83 4.26-1.33 2.67-4.18-.65-1.17-1.74-2.07-2.78-2.89-.67-.53-1.39-1.04-2.14-1.45-3.48-1.89-7.42-2.71-11.34-2.99-3.71-.25-7.75-.1-11.18 1.48z"/></svg>