<svg xmlns="http://www.w3.org/2000/svg" width="128" height="128" viewBox="0 0 128 128"><path fill="#FCC21B" d="M96.68 111.99c-.47-1.41-1.61-2.4-2.79-3.24-1.28-.93-2.91-.63-4.45-.87-3.26-.5-5.14-3.95-6.51-6.6-1.72-3.3-2.98-6.8-4.62-10.14-1.73-3.5-2.82-7.29-3.44-11.14-.24-1.45-.56-2.87-.82-4.31-.14-.72-.35-1.52-.35-2.26-.01-.85-1.33-5.85.92-4.81.55.25.79.75 1.01 1.28.2.46.5.83.77 1.25.25.39.41.82.7 1.19.23.3.54.51.77.8.31.39.55.86.82 1.27.56.84 1.14 1.67 1.78 2.44 1.02 1.23 1.9 2.38 3.29 3.18 1.45.83 3.28 1.15 4.92.84.84-.16 1.65-.5 2.31-1.05.34-.29.61-.63.85-1 .29-.45.67-.83.93-1.3.24-.39.25-.66.3-1.1.17-1.43-.41-3.05-1.26-4.25-.93-1.29-2.24-2.24-3.5-3.16-2.42-1.77-4.18-4.22-6.07-6.55-1.01-1.25-1.81-2.61-2.82-3.9-.95-1.23-1.77-2.55-2.67-3.81-.98-1.35-1.7-2.8-2.75-4.08-1.17-1.46-2.56-3.15-2.56-5.13 0-1.51.54-1.86 1.75-2.46 3.57-1.76 5.76-5.33 7.01-9.01.45-1.3.83-2.63 1.06-4 1.34-7.91-1.84-16.41-9.7-20.19-6.09-2.93-14.75-2.4-20.18 2.06-6.73 5.54-9.32 14.35-6 22.46 1.11 2.68 3.26 6.14 5.4 8.08 4.02 3.63-2.04 7.33-4.52 9.62-6.83 6.27-12.79 13.77-14.86 23-.38 1.66-.38 3.83-.08 5.51.27 1.54 1.28 3.38 2.54 4.38 1.27 1 3.21 1.13 4.83 1.13.87 0 1.62-.03 2.4-.35.8-.33 1.58-.82 2.12-1.52.55-.73.79-1.68.88-2.54.06-.58 0-1.19 0-1.77 0-.83-.05-1.49-.33-2.27-.25-.73-.11-1.36.06-2.1.4-1.8.83-3.61 1.73-5.23.52-.94 1.23-1.95 2.29-2.32.39-.13.85-.12 1.07.35.3.63.02 1.39-.31 1.95-.4.65-.79 1.11-.98 1.9-.88 3.59-.07 7.17.12 10.78.09 1.52.24 3.25-.47 4.6-.73 1.38-1.32 2.88-2.06 4.27-.55 1.04-1.17 2.01-1.85 3-1.68 2.42-3.53 4.58-5.61 6.66-1.54 1.54-3.25 3.1-4.29 4.98-.88 1.62-1.4 3.48-1.38 5.32.08 5.31 7.64 13.25 13.1 9.96 1.76-1.07 2.79-3.18 2.25-5.2-.27-1.03-.8-1.98-.96-3.03-.22-1.31.34-2 1.03-3.02 2.15-3.19 4.3-6.4 6.86-9.28 1.28-1.44 2.66-2.79 4.19-3.97.75-.57 1.53-1.09 2.34-1.58.73-.44 1.23-.95 2.13-.99h.36c3.52.3 4.63 5.23 6.23 7.71 1.97 3.04 3.99 6.03 5.98 9.06 1.63 2.49 3.01 5.03 4.5 7.59 1.89 3.26 5.2 3.99 8.65 2.9 1.43-.46 3-1.27 4.17-2.26 2.12-1.75 4.7-4.96 3.77-7.73z"/></svg>