<svg xmlns="http://www.w3.org/2000/svg" width="128" height="128" viewBox="0 0 128 128"><path fill="#FFF" d="M2.56 64c0 33.93 27.5 61.44 61.44 61.44S125.44 97.93 125.44 64c0-33.93-27.5-61.44-61.44-61.44C30.07 2.56 2.56 30.07 2.56 64z"/><path fill="#ED6C30" d="M.45 64c0 35.1 28.45 63.55 63.55 63.55 35.1 0 63.55-28.45 63.55-63.55C127.55 28.9 99.1.45 64 .45 28.9.45.45 28.9.45 64zM14 64c0-27.61 22.38-50 50-50 27.61 0 50 22.39 50 50s-22.38 50-50 50c-27.61 0-50-22.39-50-50z"/><g fill="#006CA2"><path d="M55.65 93.16c0 3.51-6.38 6.37-14.23 6.37-7.85 0-14.23-2.85-14.23-6.37s6.37-6.37 14.23-6.37c7.85 0 14.23 2.85 14.23 6.37z"/><path d="M27.19 93.16l3.3 16.81c.73 2.84 4.89 4.89 10.92 4.89s10.21-2.09 10.92-4.89l3.3-16.81"/></g><g fill="#78A3AD"><path d="M41.42 95.34c-9.88 0-17.61-4.48-17.61-10.21 0-5.72 7.74-10.2 17.61-10.2 9.88 0 17.62 4.48 17.62 10.2 0 5.73-7.75 10.21-17.62 10.21zm0-17.31c-8.55 0-14.52 3.75-14.52 7.11 0 3.43 5.84 7.11 14.52 7.11 8.69 0 14.52-3.68 14.52-7.11 0-3.37-5.96-7.11-14.52-7.11z"/><path d="M41.42 116.2c-7.4 0-12.83-3.09-13.85-7.88l-3.74-22.94c-.13-.84.44-1.64 1.28-1.78.87-.13 1.63.44 1.78 1.28l3.73 22.87c.68 3.17 5.03 5.36 10.81 5.36 5.69 0 10.14-2.23 10.83-5.43l3.71-22.79c.14-.84.9-1.43 1.78-1.28.84.14 1.42.93 1.28 1.78l-3.73 22.87c-1.03 4.77-6.6 7.94-13.88 7.94z"/></g><g><path fill="#006CA2" d="M103.04 37.6c-1.67-2.19-4.54-2.13-7.11-1.67-.97.17-1.55.67-2.01 1.31-.47.65-.8 1.44-1.27 2.17-1.36 2.08-3.47 2.24-5.58 1.21-.93-.45-1.47-.82-1.95.34-.29.72-.27 1.55-.62 2.25-.58 1.21-1.51 2.22-2.59 3-2.3 1.64-5.24 2.31-8.03 2.31-2.69 0-6.04 0-8.9-1.66-2.14-1.25-3.12-3.1-3.86-4.92-.37-.91.07-2.53-1.06-2.78-2.95-.66-4.98 2.14-5.99 4.45-1.83 4.22-6.18 6.16-9.9 8.39-4.72 2.82-7.62 6.62-9.2 11.95-1.3 4.42-1.63 9.08-1.63 13.66 0 2.02-.25 3.52 1.52 4.72 1.9 1.29 3.92 1.94 6.22 1.94 2.06 0 4.26-.16 6.18-.99 1.13-.48 2.68-1.19 2.92-2.45.61-3.12-.21-6.32.38-9.45.54-2.88 2.85-4.74 5.62-5.35 2.53-.56 4.26.46 6.48 1.49 2.47 1.14 5.2 1.73 7.93 1.79 5.09.12 10.12-.98 13.3-5.42 1.19-1.67 1.79-5.47 3.59-6.43.87-.46 2.19-.75 3.13-.33 1.6.71 1.93 3.06 3.29 4.09 2.05 1.56 7.76.85 9.36-1.09 4.53-5.47 3.89-17.13-.22-22.53z"/><path fill="#006CA2" d="M89.76 18.42c-1.79-.07-3.62.41-5.02 1.42-1.43 1.03-3.53 1.89-5.28 2-3.13.2-2.9-1.62-2.98-4.18-.1-3.29-1.09-5.18-4.08-6.68-1.99-1-4.27-1.22-6.43-.66-2.87.74-5.49 2.73-6.12 5.73-.25 1.21-.18 2.62.32 3.77.4.92 2.85 2.59.85 3.42-2.3.96-4.57-.39-6.85-.69-2.47-.32-5.15-.08-7.44.93-2.08.92-2.98 2.94-3.13 5.11-.5 7.6 5.97 9.5 12.41 8.24 1.25-.25 2.44-.75 3.7-.96.98-.17 2.2-.57 3.18-.22.71.25 1.01.67 1.03 1.35.04 1.29-.45 2.56.04 3.78.57 1.4 1.21 2.62 2.55 3.4 2.15 1.25 4.99 1.24 7.39 1.24 3.28 0 8.12-1.37 8.25-5.33.04-1.19.12-2.55-.38-3.6-1.14-2.42-1.95-3.47 1.28-4.47 1.38-.43 2.87-.4 4.3-.44 3.22-.08 6.76.29 8.33-3.31 2.05-4.63-.88-9.66-5.92-9.85z"/><path fill="#FFF" d="M74.39 24.76c-2.53-.99-6.24-.27-8.32 1.45-2.3 1.9-1.36 4.82 1.23 5.76 2.71.99 6.83.92 8.93-1.32 1.91-2.04.67-4.9-1.84-5.89z"/></g><g><path fill="#ED6C30" d="M109.26 86.43l-7.22 10.7L17.3 40.45l7.22-10.69z"/></g></svg>