<svg xmlns="http://www.w3.org/2000/svg" width="128" height="128" viewBox="0 0 128 128"><path fill="#855C52" d="M63.96 3.82c-1.25 0-2.26 1.01-2.26 2.26v115.84c0 1.25 1.01 2.26 2.26 2.26a2.26 2.26 0 0 0 2.27-2.26V6.08a2.26 2.26 0 0 0-2.27-2.26z"/><path fill="#FCC21B" d="M37.05 48.44c0-1.94 7.04-4.04 7.27-14.08.22-9.95-7.72-15.97-16.21-15.97-8.5 0-16.44 6.02-16.21 15.97.22 10.03 7.27 12.14 7.27 14.08 0 1.93-4.15 2.32-9.46 8.9S-1.47 77.54.93 84.82c2.39 7.29 10.74 4.68 10.74 0s-1.99-8.15-.3-13.11c1.68-4.96 2.77-4.03 3.92-3.79 1.59.34-.63 6.96-1.05 12.54-.32 4.18.93 7.36 1.88 8.91 1.28 2.09 2.08 17.24-.49 19.19-1.52 1.15-3.04 2.68-3.04 4.7 0 3.47 3.2 4.7 7.93 4.11 4.13-.51 6.96-2.4 6.63-8.33-.34-5.92-1.83-16.27.97-16.27 2.79 0 1.3 10.35.96 16.27-.32 5.93 2.51 7.82 6.64 8.33 4.73.59 7.93-.64 7.93-4.11 0-2.03-1.52-3.56-3.04-4.7-2.58-1.94-1.78-17.1-.5-19.19.95-1.54 2.2-4.73 1.88-8.91-.42-5.58-2.64-12.2-1.05-12.54 1.15-.25 2.24-1.18 3.92 3.79 1.69 4.96-.3 8.43-.3 13.11s8.36 7.29 10.75 0c2.4-7.28-3.49-20.91-8.78-27.48-5.32-6.58-9.48-6.97-9.48-8.9zM126.69 79.87c-1.35-1.95-4.36-1.07-6.12-6.09-2.12-6.05-5.31-14.37-8.02-17.91-4.97-6.48-9.02-4.33-9.02-7.18 0-.65 1.25-1.33 2.91-2.32 3.56 4.21 13.8 3.13 9.77-.91-3.08-3.08-.87-6.98-1.9-13.92v.01c-1.13-7.87-7.07-12.51-14.47-12.51-7.41 0-13.36 4.64-14.49 12.51l-.01-.01c-1.02 6.93 1.18 10.84-1.89 13.92-4.05 4.03 6.21 5.12 9.76.91 1.64.99 2.9 1.66 2.9 2.32 0 2.85-4.05.7-9.01 7.18-2.72 3.54-5.9 11.87-8.02 17.91-1.76 5.03-4.76 4.15-6.12 6.09-3.34 4.8 3.12 8.9 6.22 5.64 3.1-3.27 5.27-7.88 6.81-12.78 1.53-4.89 2.5-7.83 3.57-7.83 2.05 0 .87 5.84-1.42 11.09-1.69 3.83-4.44 6.94-4.6 9.27-.28 4.11 6.37 4.21 7.19 5.73 1.11 2.07 3.36 15.66 1.13 17.57-1.32 1.13-3.1 2.09-3.41 4.07-.61 3.9 2.87 5.22 6.88 4.05 3.74-1.09 3.62-3.32 3.32-9.17-.29-5.85-1.26-14.88 1.17-14.88 2.42 0 1.45 9.03 1.16 14.88-.29 5.84-.41 8.08 3.33 9.17 4.02 1.17 7.48-.15 6.88-4.05-.3-1.98-2.09-2.93-3.41-4.07-2.23-1.91.02-15.5 1.13-17.57.82-1.52 7.48-1.62 7.19-5.73-.17-2.33-2.91-5.44-4.59-9.27-2.3-5.25-3.49-11.09-1.43-11.09 1.07 0 2.04 2.94 3.57 7.83 1.54 4.89 3.7 9.51 6.81 12.78 3.1 3.26 9.57-.84 6.23-5.64z"/></svg>