<svg xmlns="http://www.w3.org/2000/svg" width="128" height="128" viewBox="0 0 128 128"><path fill="#FCC21B" d="M86.27 50.71c-6.41-7.95-11.44-6.98-11.44-9.32s8.53-4.89 8.79-17.03C83.89 12.32 74.28 5.05 64 5.05c-10.27 0-19.88 7.28-19.61 19.32.27 12.14 8.79 14.68 8.79 17.03s-5.03 1.36-11.44 9.32c-6.41 7.95-13.53 25.88-10.63 34.69 2.9 8.82 13.01 5.66 13.01 0s-1.49-8.96.55-14.96 2.44-5.79 3.83-5.5c1.92.4-.76 8.41-1.27 15.18-.38 5.05 1.13 8.9 2.28 10.77 1.53 2.52 2.51 20.86-.61 23.21-1.84 1.39-3.67 3.23-3.67 5.7 0 4.19 3.86 5.68 9.59 4.97 4.99-.62 8.42-2.9 8.03-10.08-.41-7.17-2.2-19.68 1.16-19.68 3.38 0 1.58 12.51 1.17 19.68-.4 7.17 3.04 9.46 8.02 10.08 5.73.71 9.6-.77 9.6-4.97 0-2.46-1.84-4.31-3.68-5.7-3.11-2.35-2.14-20.69-.59-23.21 1.13-1.87 2.65-5.72 2.27-10.77-.51-6.76-3.2-14.77-1.28-15.18 1.39-.3 1.79-.5 3.83 5.5s.55 9.3.55 14.96 10.1 8.82 13 0c2.89-8.82-4.22-26.75-10.63-34.7z"/></svg>