<svg xmlns="http://www.w3.org/2000/svg" width="128" height="128" viewBox="0 0 128 128"><g fill="#006CA2"><path d="M58.06 99.39c0 3.64-6.59 6.59-14.71 6.59-8.12 0-14.71-2.95-14.71-6.59 0-3.63 6.58-6.58 14.71-6.58 8.12 0 14.71 2.95 14.71 6.58z"/><path d="M28.64 99.39l3.41 17.39c.75 2.94 5.06 5.05 11.3 5.05 6.23 0 10.55-2.15 11.29-5.05l3.42-17.39"/></g><g fill="#78A3AD"><path d="M43.35 101.65c-10.22 0-18.22-4.64-18.22-10.56 0-5.92 8-10.55 18.22-10.55 10.22 0 18.22 4.64 18.22 10.55 0 5.92-8 10.56-18.22 10.56zm0-17.91c-8.85 0-15.02 3.88-15.02 7.35 0 3.48 6.17 7.35 15.02 7.35s15.02-3.88 15.02-7.35c0-3.48-6.16-7.35-15.02-7.35z"/><path d="M43.35 123.22c-7.65 0-13.28-3.2-14.33-8.14l-3.87-23.72c-.14-.87.45-1.7 1.32-1.84.92-.13 1.7.45 1.84 1.32l3.85 23.65c.7 3.28 5.2 5.53 11.18 5.53 5.88 0 10.49-2.31 11.2-5.61l3.84-23.57c.14-.87.91-1.48 1.84-1.32a1.6 1.6 0 0 1 1.32 1.84L57.7 115c-1.06 4.94-6.82 8.22-14.35 8.22z"/></g><g><path fill="#006CA2" d="M107.07 41.94c-1.72-2.26-4.69-2.21-7.35-1.73-1 .18-1.6.7-2.08 1.35-.48.67-.82 1.5-1.32 2.25-1.41 2.15-3.58 2.31-5.76 1.25-.97-.47-1.53-.85-2.02.35-.31.74-.29 1.6-.64 2.33-.61 1.25-1.56 2.29-2.68 3.1-2.38 1.7-5.42 2.38-8.31 2.38-2.78 0-6.24 0-9.2-1.71-2.22-1.29-3.23-3.2-3.99-5.09-.38-.94.07-2.61-1.1-2.87-3.04-.68-5.15 2.22-6.19 4.6-1.89 4.37-6.38 6.38-10.23 8.68-4.88 2.92-7.88 6.85-9.51 12.35-1.35 4.57-1.69 9.4-1.69 14.14 0 2.08-.26 3.64 1.57 4.88 1.97 1.33 4.05 2.01 6.44 2.01 2.13 0 4.41-.16 6.39-1.02 1.16-.5 2.77-1.24 3.03-2.53.62-3.23-.22-6.54.38-9.78.56-2.98 2.95-4.9 5.82-5.53 2.62-.58 4.41.48 6.7 1.53 2.57 1.18 5.38 1.79 8.2 1.85 5.27.12 10.47-1.02 13.75-5.61 1.24-1.72 1.84-5.65 3.72-6.65.9-.48 2.26-.78 3.23-.35 1.65.74 2 3.17 3.4 4.24 2.12 1.61 8.02.88 9.68-1.13 4.68-5.65 4.02-17.72-.24-23.29z"/><path fill="#006CA2" d="M93.34 22.09c-1.85-.07-3.74.42-5.18 1.47-1.47 1.07-3.65 1.96-5.46 2.08-3.24.2-3-1.67-3.07-4.33-.1-3.4-1.12-5.36-4.23-6.91a9.482 9.482 0 0 0-6.64-.68c-2.97.77-5.68 2.82-6.33 5.93-.26 1.25-.2 2.71.32 3.9.42.95 2.95 2.68.89 3.53-2.38.99-4.73-.4-7.09-.71-2.55-.34-5.33-.09-7.69.96-2.15.95-3.08 3.04-3.23 5.29-.51 7.86 6.18 9.82 12.84 8.52 1.29-.25 2.52-.77 3.83-.99 1.02-.17 2.28-.59 3.3-.23.73.25 1.05.68 1.07 1.39.03 1.33-.47 2.64.05 3.91.58 1.45 1.24 2.71 2.63 3.52 2.22 1.29 5.16 1.28 7.64 1.28 3.4 0 8.4-1.42 8.53-5.51.04-1.23.12-2.64-.4-3.73-1.18-2.51-2.01-3.59 1.32-4.63 1.43-.44 2.97-.42 4.45-.45 3.33-.09 6.98.3 8.62-3.43 2.07-4.77-.95-9.97-6.17-10.18z"/><path fill="#FFF" d="M77.44 28.66c-2.62-1.02-6.46-.28-8.6 1.5-2.38 1.96-1.41 4.99 1.27 5.96 2.8 1.02 7.06.95 9.23-1.37 1.99-2.12.7-5.08-1.9-6.09z"/></g></svg>