<svg xmlns="http://www.w3.org/2000/svg" xmlns:xlink="http://www.w3.org/1999/xlink" width="128" height="128" viewBox="0 0 128 128"><path fill="#FFF" d="M114.57 65.5s6.44-7.17 7.32-7.73c1.28-.82 3.04-1.33 3.96 1.07.37.96.33 3.51.41 4.86.23 4.36.08 8.74.08 8.74l-11.77-6.94z"/><path fill="#78A3AD" d="M123.32 60.17c.08.67.11 1.83.13 2.45.01.46.02.88.04 1.23.07 1.29.1 2.58.12 3.76l-4.69-2.77c2.01-2.2 3.88-4.2 4.4-4.67m.5-3.08c-.66 0-1.34.31-1.92.68-.88.56-7.32 7.73-7.32 7.73l11.77 6.94s.15-4.38-.08-8.74c-.08-1.35-.04-3.9-.41-4.86-.51-1.3-1.26-1.75-2.04-1.75z"/><defs><path id="a" d="M69.16 49.95c.15-.5.29-1.01.41-1.54 3.17-14.36-4.77-26.38-16.04-28.73-16.13-3.36-27.31 7.11-28.55 17.3-.34 2.72-.27 5.49 0 8.2.27 2.65 1.77 5.03 2.96 7.35.66 1.31 1.89 2.2 2.55 3.52 1.51 3.08-.53 3.96-3.14 4.75-1.74.52-4.01 1.75-5.36 3.12-1.83 1.87.47 2.8 1.54 4.39.67.98.76 1.97.93 3.08.2 1.34.99 2.81.45 4.15-.41 1.06-1.25 1.72-1.56 2.88-.92 3.57-1.11 7.5-1.11 11.17 0 4.38-.55 8.48-.53 12.79 0 3.5-.26 7.58-1.04 11-.51 2.23-1.99 4.41-1.8 6.77.34 4.06 10.06 4.78 12.84 5.07 7.17.75 16.72 1.42 23.78-.32 2-.49 3.94-.52 5.88-1.27 1.86-.71 1.3-2.93.95-4.38-.53-2.18-.1-4.55-.5-6.78-.36-2.02-.15-4.01-.4-6.06-.39-3.12-.63-6.27-.63-9.42-.01-2.9.35-5.46.78-8.3.22-1.5.97-1.66 2.25-.87 1.88 1.14 3.52 2.53 5.35 3.74 2.24 1.48 4.57 3.21 7.07 4.33 6.71 3.04 15.83 7.2 23.26 4.2 2.5-1.01 5.24-2.4 6.46-4.97 1.28-2.7.87-6.84-.66-9.35-1.54-2.52-4.86-3.33-7.63-3.23-1.39.05-2.33.68-3.61.99-1.48.36-3.54-.3-4.97-.7-1.56-.43-3.11-1.12-4.51-1.87-4.66-2.48-8.91-5.75-12.73-9.37-3.38-3.21-13.85-7.47-9.38-11.88 2.89-2.86 5.42-5.77 6.69-9.76z"/></defs><use xlink:href="#a" overflow="visible" fill="#006CA2"/><clipPath id="b"><use xlink:href="#a" overflow="visible"/></clipPath><path clip-path="url(#b)" fill="#FFF" d="M59.52 107.62c-5.6.23-11.17.93-16.77.95-2.65.01-5.33-.24-7.98-.4-2.97-.18-5.92-.37-8.89-.61a98.76 98.76 0 0 1-3.42-.32c-.4-.04-.78-.1-1.16-.15-1.33-.16-2.17 2.68-2.41 3.57-.59 2.17-.85 3.62 1.56 4.23 3.73.92 7.86 1.33 11.7 1.72 2.87.29 5.77.37 8.65.25 4.32-.17 8.62-.51 12.95-.6 1.67-.03 3.27-.33 4.93-.49 1.21-.12 4.73.05 5.16-1.45.16-.54-.01-1.4-.01-1.97.01-.88-.06-1.81-.21-2.67-.12-.65-.44-1.77-1.03-1.95-.5-.15-1.03.07-1.55.03-.51-.05-.98-.17-1.52-.14z"/><path clip-path="url(#b)" fill="#FFF" d="M67.35 74.06c-1.52 3.9-4.41 7.51-6.85 10.4-7.67 9.09-16.97 17.26-27.03 23.61-.95.6-2.38 1.59-3.47 1.8-1.4.28-2.85-.24-4.25-.25-1.37 0-2.83.21-4.16-.21-.46-.15-.7-.33-1.19-.4-.62-.08-1.25-.04-1.88-.2-1.1-.28-1.35-1.09-.17-1.52 1.07-.39 1.9-1.12 2.83-1.74.85-.57 1.67-1.11 2.48-1.75 1.96-1.56 3.93-3.07 5.94-4.58 4.79-3.64 9.64-7.22 14.15-11.21 4.32-3.82 8.5-7.89 11.91-12.56 1.11-1.51 2.15-3.08 3.02-4.75 1.31-2.48 2.66-4.97 2.88-7.78.05-.62.31-.85.79-.37.87.86 1.38 1.83 2.48 2.47 1.41.83 3.23 1.11 3.58 2.97.38 2-.35 4.23-1.06 6.07z"/><g fill="#006CA2"><path d="M34.29 73.99c.21-.32.4-.65.57-.99 1.84-3.36 2.56-10.31-1.92-11.95-3.42-1.25-8.32.84-11.28 2.67-2.88 1.78-5.63 4.42-7.87 6.93-4.08 4.58-7.08 9.95-9.4 15.6-2.35 5.76-3.31 12.12-2.49 18.3.31 2.38.92 4.76 1.86 6.98.93 2.19 2.19 4.43 4.37 5.56 1.15.59 2.39.67 3.61.97 6.53 1.6 14.33-7.61 9.05-13.24-.96-1.02-2.1-1.97-2.65-3.3-.26-.67-.2-1.42-.18-2.14.05-1.71.72-3.35 1.1-5.03.54-2.3 1.99-4.12 3.08-6.14 1.06-1.99 2.38-3.72 3.94-5.35 2.78-2.9 6.04-5.46 8.21-8.87zM78.45 23.12c.1.42.15.87.15 1.3-.01 3.31-2.95 4.68-4.23 7.31-.24.54-.52 1.79-.44 2.38.1.89 1.44 1.99 2.07 2.57.82.77 1.85 1.86 1.49 3.13-.13.52-.51.77-1 1.08-1.13.74-2.42.83-3.7.99-7.64.93-15.61-.2-23.32-2.04-5.19-1.23-10.34-2.48-15.5-4.33-4.1-1.48-9.4-2.78-8.4-8.02.51-2.47.29-5.53 1.64-7.69 1.62-2.56 4.8-3.58 7.62-4.35 8.38-2.28 16.75-4.3 25.37-3.3 3.75.44 7.76 1.26 10.98 3.3 1.14.73 2.27 1.25 3.3 2.1 1.68 1.38 3.48 3.34 3.97 5.57z"/></g><path fill="#78A3AD" d="M102.62 89.84c.93.98 1.84 1.38 3.17 1.42.35.01 1.56-.33 2.03-.72 3.55-2.94 17.48-15.08 18.07-16.21.55-1.04.7-2.22.08-3.71-.87-2.08-9.81-12.35-10.08-12.7-.95-1.26-2.06-2.37-3.84-2.08-.84.14-1.63.45-2.33.96-1.34.99-2.48 2.26-3.73 3.38-3 2.69-5.86 5.55-8.56 8.55-1.76 1.95-6.04 5.37-4.54 8.33 1.15 2.31 8.2 11.18 9.73 12.78z"/></svg>