<svg xmlns="http://www.w3.org/2000/svg" width="128" height="128" viewBox="0 0 128 128"><path fill="#78A3AD" d="M27.79 104.58l-.3.21c-2.04 1.55-1.26 4.89-3.11 6.4-1.58 1.28-4.27-.06-5.86 1.23-3.34 2.71-2.24 7.21 1.48 8.79 6.51 2.76 14.22-3.41 17.29-8.67 1.16-1.98 2.55-5.53.58-7.27-1-.89-2.4-.62-3.59-.75-2.55-.28-4.06-1.54-6.49.06zM100.21 104.58c.1.07.2.14.29.21 2.06 1.55 1.26 4.89 3.13 6.4 1.57 1.28 4.25-.06 5.85 1.23 3.34 2.71 2.23 7.21-1.48 8.79-6.52 2.76-14.22-3.41-17.29-8.67-1.16-1.98-2.56-5.53-.59-7.27 1-.89 2.4-.62 3.6-.75 2.54-.28 4.06-1.54 6.49.06z"/><path fill="#FFF" d="M120.86 68.77c-1.9-.81-4.42-.99-7-.91-8.84.3-17.68.16-26.53.13-19.56-.06-39.16-.39-58.71 0-3.95.08-7.86.08-11.81-.1-6.57-.3-14.89-.73-12.64 8.52.86 3.55 4.3 3.48 6.29 5.72 2.77 3.12 3.21 10.03 5.3 13.85 2.14 3.89 5.14 6.71 9.05 8.78 9.39 4.97 19.9 6.33 30.36 6.65 16.07.48 33.42 1.09 48.06-6.65 3.91-2.07 6.91-4.88 9.05-8.78 2.09-3.82 2.54-10.73 5.31-13.85 1.99-2.24 5.43-2.17 6.29-5.72 1.04-4.29-.43-6.54-3.02-7.64z"/><path fill="#78A3AD" d="M67.6 114.34c-4.06 0-8.1-.12-12.01-.24l-.51-.01c-9.07-.27-20.86-1.31-31.53-6.96-4.49-2.37-7.81-5.6-10.14-9.86-1.05-1.91-1.7-4.3-2.33-6.62-.72-2.67-1.46-5.42-2.64-6.74-.44-.49-1.13-.86-1.94-1.3-1.75-.93-4.13-2.2-4.96-5.56-.86-3.56-.47-6.41 1.16-8.48C5.13 65.49 9.49 65.1 13 65.1c1.28 0 2.57.05 3.81.11 3.78.17 7.7.19 11.75.1 6.37-.13 13.34-.19 21.29-.19 7.16 0 14.33.05 21.49.1 5.33.04 10.66.07 15.99.09l5.57.03c2.69.02 5.37.03 8.05.03 5.03 0 9.1-.06 12.82-.19 3.34-.1 6.09.25 8.15 1.12 2.43 1.03 6.25 3.79 4.56 10.75-.82 3.36-3.2 4.63-4.95 5.56-.8.43-1.5.8-1.94 1.3-1.17 1.32-1.92 4.07-2.65 6.74-.63 2.32-1.27 4.71-2.32 6.62-2.33 4.26-5.65 7.48-10.14 9.86-12.02 6.35-25.39 7.21-36.88 7.21zM13 70.46c-3.28 0-5.33.48-6.07 1.42-.7.89-.47 2.62-.16 3.9.24.95.75 1.29 2.27 2.1 1.05.55 2.36 1.25 3.43 2.46 2.01 2.26 2.92 5.63 3.8 8.89.55 2.02 1.11 4.1 1.86 5.45 1.81 3.31 4.41 5.82 7.95 7.69 9.69 5.13 20.69 6.08 29.18 6.34l.51.02c3.87.11 7.87.24 11.83.24h.01c10.83 0 23.39-.78 34.37-6.59 3.54-1.87 6.14-4.39 7.95-7.7.74-1.35 1.3-3.43 1.85-5.44.89-3.27 1.8-6.64 3.81-8.9 1.07-1.21 2.38-1.91 3.43-2.46 1.51-.81 2.03-1.16 2.25-2.1.87-3.56-.58-4.17-1.44-4.54-1.3-.55-3.4-.79-5.87-.7-3.78.13-7.91.19-13 .19-2.69 0-5.38-.01-8.08-.03l-5.56-.03c-5.34-.01-10.67-.05-16.01-.09-7.15-.05-14.3-.1-21.45-.1-7.92 0-14.85.06-21.18.19-4.18.09-8.28.07-11.99-.1a78.87 78.87 0 0 0-3.69-.11zM46.8 18.67c-1.8.9-3.88 2.7-4.4 3.12-1.33 1.11-2.57 2.65-3.5 4.15-2.02 3.3-2.73 7.93-.48 11.27 2.18 3.25 5.91 5.13 6.38 9.34.14 1.28-.15 2.21-.6 3.39-.42 1.06-2.03 3.39-1.5 4.56 1.61 3.56 4.73-.56 5.87-2.17 2.17-3.07 3.89-7.04 3.17-10.87-.75-4.03-4.47-6.57-5.26-10.56-.58-2.88.71-5.48 1.98-7.94.6-1.15 1.25-2.25 1.15-3.57-.14-1.57-1.38-1.44-2.81-.72zM66.83 18.67c-1.8.9-3.9 2.7-4.41 3.12-1.33 1.11-2.57 2.65-3.49 4.15-2.03 3.3-2.74 7.93-.48 11.27 2.18 3.25 5.91 5.13 6.37 9.34.14 1.28-.15 2.21-.6 3.39-.42 1.06-2.02 3.39-1.5 4.56 1.61 3.56 4.73-.56 5.87-2.17 2.17-3.07 3.88-7.04 3.17-10.87-.76-4.03-4.47-6.57-5.26-10.56-.58-2.88.71-5.48 1.99-7.94.6-1.15 1.24-2.25 1.14-3.57-.13-1.57-1.37-1.44-2.8-.72zM86.85 18.67c-1.8.9-3.89 2.7-4.4 3.12-1.33 1.11-2.57 2.65-3.5 4.15-2.02 3.3-2.73 7.93-.48 11.27 2.19 3.25 5.91 5.13 6.38 9.34.15 1.28-.15 2.21-.59 3.39-.42 1.06-2.03 3.39-1.51 4.56 1.62 3.56 4.73-.56 5.87-2.17 2.16-3.07 3.89-7.04 3.17-10.87-.75-4.03-4.47-6.57-5.27-10.56-.57-2.88.71-5.48 1.99-7.94.6-1.15 1.24-2.25 1.14-3.57-.13-1.57-1.37-1.44-2.8-.72z"/></svg>