<svg xmlns="http://www.w3.org/2000/svg" width="128" height="128" viewBox="0 0 128 128"><path fill="#F79329" d="M37.34 46.55c.46 4.22-1.44 9.97 3.58 12.02 2.08.85 4.26 1.13 6.38 1.64 2.15.52 4.41 1.39 6.39 2.51.87.49 1.71.9 2.52 1.52.56.44 1.39 1 1.4 1.76-3.69.96-7.43 1.03-11.2 1.37-3.85.35-7.73.26-11.61.26-4.47 0-9.12.45-13.55-.4-1.62-.31-3.21-.72-4.83-1-1.1-.2-2.22-.39-3.28-.78-2.67-1-4.98-3.25-6.79-5.39-2.37-2.82-4.08-6.29-4.4-9.99-.78-9 5.67-17.4 14.51-18.87 3.09-.51 6.04-.61 9.03.4 2.31.78 4.5 1.96 6.34 3.56 3.78 3.27 5.05 7.14 5.51 11.39zM82.65 66.56c2.66-3.34 5.7-6.69 9.79-8.29 3.65-1.42 7.46-.63 10.75 1.27 1.65.96 3.14 2.15 4.46 3.53 1.14 1.19 2.09 3.18 3.38 4.16"/><path fill="#78A3AD" d="M27.78 104.38l-.3.21c-2.05 1.55-1.25 4.89-3.12 6.4-1.58 1.28-4.26-.06-5.85 1.23-3.34 2.71-2.23 7.21 1.48 8.79 6.52 2.76 14.22-3.41 17.3-8.67 1.16-1.98 2.55-5.53.58-7.27-1-.89-2.4-.62-3.6-.75-2.53-.28-4.06-1.54-6.49.06zM100.21 104.38l.3.21c2.05 1.55 1.25 4.89 3.12 6.4 1.57 1.28 4.26-.06 5.85 1.23 3.34 2.71 2.23 7.21-1.48 8.79-6.51 2.76-14.22-3.41-17.29-8.67-1.16-1.98-2.55-5.53-.59-7.27 1-.89 2.4-.62 3.6-.75 2.54-.28 4.06-1.54 6.49.06z"/><path fill="#FFF" d="M120.86 68.57c-1.9-.81-4.42-.99-7.01-.91-8.84.3-17.69.15-26.54.13-19.55-.06-39.16-.39-58.7 0-3.96.08-7.86.08-11.81-.1-6.56-.3-14.89-.73-12.64 8.52.87 3.55 4.31 3.48 6.3 5.72 2.76 3.12 3.22 10.03 5.31 13.85 2.13 3.89 5.13 6.71 9.04 8.78 9.39 4.97 19.91 6.34 30.36 6.65 16.07.48 33.42 1.09 48.05-6.65 3.91-2.07 6.92-4.88 9.05-8.78 2.09-3.82 2.55-10.73 5.31-13.85 1.99-2.24 5.43-2.17 6.29-5.72 1.05-4.29-.41-6.54-3.01-7.64z"/><path fill="#78A3AD" d="M67.6 114.14c-4.05 0-8.1-.12-12-.24l-.5-.01c-9.08-.27-20.86-1.31-31.54-6.96-4.49-2.38-7.81-5.61-10.14-9.86-1.04-1.91-1.7-4.3-2.32-6.62-.73-2.67-1.47-5.42-2.64-6.74-.44-.49-1.13-.86-1.94-1.3-1.74-.93-4.13-2.2-4.95-5.56-.87-3.55-.48-6.41 1.15-8.48C5.13 65.29 9.48 64.9 13 64.9c1.27 0 2.57.06 3.8.11 3.79.17 7.7.19 11.76.11 6.37-.13 13.33-.19 21.29-.19 7.16 0 14.32.05 21.49.1 5.33.04 10.65.07 15.98.09l5.58.03c2.68.02 5.36.03 8.05.03 5.03 0 9.09-.06 12.81-.19 3.34-.11 6.09.25 8.15 1.12 2.43 1.03 6.26 3.79 4.56 10.75-.81 3.36-3.2 4.63-4.95 5.56-.8.43-1.5.8-1.94 1.3-1.16 1.32-1.91 4.07-2.64 6.74-.64 2.32-1.28 4.71-2.33 6.62-2.33 4.26-5.64 7.48-10.14 9.86-12.01 6.34-25.38 7.2-36.87 7.2zM13 70.26c-3.29 0-5.33.48-6.07 1.42-.7.89-.47 2.61-.16 3.9.23.95.75 1.29 2.26 2.1 1.05.56 2.35 1.25 3.43 2.47 2 2.26 2.92 5.63 3.8 8.89.55 2.02 1.11 4.1 1.85 5.45 1.81 3.31 4.41 5.82 7.95 7.7 9.7 5.13 20.69 6.08 29.19 6.34l.51.02c3.87.12 7.86.24 11.84.24 10.83 0 23.39-.78 34.37-6.59 3.55-1.87 6.14-4.39 7.95-7.7.74-1.35 1.31-3.43 1.86-5.45.89-3.26 1.8-6.63 3.8-8.89 1.08-1.21 2.38-1.91 3.43-2.47 1.52-.81 2.03-1.15 2.26-2.1.87-3.56-.58-4.17-1.44-4.54-1.3-.55-3.38-.79-5.88-.69-3.78.13-7.91.19-12.99.19-2.69 0-5.39-.02-8.08-.03l-5.56-.03c-5.33-.02-10.66-.05-16.01-.09-7.14-.05-14.3-.1-21.44-.1-7.92 0-14.85.06-21.19.19-4.18.08-8.29.07-11.99-.11-1.28-.06-2.5-.12-3.69-.12z"/><g><path fill="#F79329" d="M28.15 60.71c-2.42-.01-4.57.01-6.4 1.76-.76.72-2 1.97-1.45 3.12.27.55.59.72.62 1.46.04.66-.11 1.31-.09 1.97.05 1.56.27 3.12.6 4.64.49 2.24 1.3 4.25 2.27 6.31 4.12 8.68 15.39 9.64 22.97 5.31 2.78-1.58 4.87-4.12 7.55-5.84 3.21-2.06 6.3-1.28 9.83-2.04 2.98-.64 4.85-3.46 4.46-6.46-.5-3.88-4.93-4.67-8.09-4.96-4.73-.43-9 1.96-12.45 5.01-.99.88-1.84 1.94-2.97 2.67-2.69 1.73-7.75 3.59-10.37.72-1.18-1.28-1.54-3.04-1.71-4.72-.11-1.11-.59-2.49-.17-3.58.39-1.06 2.62-1.07 3.53-1.06.5 0 1.04.06 1.53-.03.31-1.91-1.43-2.62-2.91-3.22-.9-.37-1.85-.73-2.78-.91-1.28-.23-2.62-.15-3.97-.15z"/></g><g><path fill="#78A3AD" d="M55.33 8.37c-1.8.9-3.89 2.7-4.4 3.12-1.33 1.11-2.57 2.65-3.5 4.15-2.02 3.3-2.73 7.93-.49 11.27 2.18 3.25 5.91 5.13 6.38 9.34.14 1.28-.14 2.21-.6 3.39-.41 1.06-2.02 3.39-1.49 4.56 1.61 3.56 4.72-.56 5.86-2.17 2.17-3.07 3.88-7.04 3.17-10.87-.76-4.02-4.47-6.56-5.26-10.55-.57-2.88.71-5.48 1.99-7.94.6-1.15 1.25-2.25 1.14-3.58-.13-1.57-1.37-1.43-2.8-.72z"/></g><g><path fill="#78A3AD" d="M75.37 8.37c-1.8.9-3.89 2.7-4.41 3.12-1.33 1.11-2.57 2.65-3.5 4.15-2.02 3.3-2.73 7.93-.49 11.27 2.19 3.25 5.91 5.13 6.38 9.34.14 1.28-.15 2.21-.61 3.39-.41 1.06-2.02 3.39-1.5 4.56 1.61 3.56 4.73-.56 5.87-2.17C79.29 38.96 81 35 80.29 31.17c-.75-4.03-4.47-6.57-5.26-10.56-.57-2.88.71-5.48 1.99-7.94.6-1.15 1.25-2.25 1.14-3.58-.13-1.57-1.37-1.43-2.79-.72z"/></g><g><path fill="#78A3AD" d="M95.39 8.37c-1.8.9-3.89 2.7-4.4 3.12-1.33 1.11-2.58 2.65-3.5 4.15-2.02 3.3-2.74 7.93-.49 11.27 2.19 3.25 5.92 5.13 6.38 9.34.14 1.28-.14 2.21-.6 3.39-.41 1.06-2.02 3.39-1.5 4.56 1.61 3.56 4.73-.56 5.86-2.17 2.17-3.07 3.89-7.04 3.17-10.87-.75-4.03-4.47-6.57-5.27-10.56-.57-2.88.72-5.48 1.99-7.94.6-1.15 1.24-2.25 1.15-3.58-.12-1.56-1.36-1.42-2.79-.71z"/></g></svg>