<svg xmlns="http://www.w3.org/2000/svg" width="128" height="128" viewBox="0 0 128 128"><path fill="#ED6C30" d="M119.07 92.37c0 6.76-5.53 12.29-12.29 12.29H21.22c-6.75 0-12.29-5.53-12.29-12.29V41.66c0-6.76 5.54-12.29 12.29-12.29h85.56c6.76 0 12.29 5.53 12.29 12.29v50.71z"/><path fill="#ED6C30" d="M79.58 49.66H48.43c-2.99 0-5.42-2.43-5.42-5.42V18.67c0-2.99 2.43-5.42 5.42-5.42h31.15c2.99 0 5.42 2.43 5.42 5.42v25.56c0 3-2.43 5.43-5.42 5.43zM53.85 38.82h20.3V24.09h-20.3v14.73z"/><path fill="#FFF" d="M25.34 29.36h9.01v75.29h-9.01zM93.66 29.36h9.02v75.29h-9.02z"/><g fill="#ED6C30"><circle cx="4.36" cy="117.05" r="4.11"/><circle cx="16.29" cy="117.05" r="4.1"/><circle cx="28.22" cy="117.05" r="4.11"/><path d="M44.25 117.05a4.106 4.106 0 0 1-8.21 0 4.106 4.106 0 0 1 8.21 0z"/><circle cx="52.07" cy="117.05" r="4.11"/><path d="M68.11 117.05a4.106 4.106 0 0 1-8.21 0c0-2.27 1.83-4.1 4.11-4.1 2.26 0 4.1 1.84 4.1 4.1zM80.04 117.05a4.106 4.106 0 0 1-8.21 0c0-2.27 1.83-4.1 4.11-4.1 2.26 0 4.1 1.84 4.1 4.1z"/><circle cx="87.86" cy="117.05" r="4.1"/><circle cx="99.79" cy="117.05" r="4.11"/><path d="M115.82 117.05a4.106 4.106 0 0 1-8.21 0 4.1 4.1 0 0 1 4.1-4.1c2.27 0 4.11 1.84 4.11 4.1zM127.75 117.05a4.106 4.106 0 0 1-8.21 0 4.1 4.1 0 0 1 4.1-4.1c2.27 0 4.11 1.84 4.11 4.1z"/></g></svg>