<svg xmlns="http://www.w3.org/2000/svg" xmlns:xlink="http://www.w3.org/1999/xlink" width="128" height="128" viewBox="0 0 128 128"><defs><path id="a" d="M59.97 54.56c-.15-.46-.28-.93-.39-1.42-2.92-13.3 4.42-24.43 14.86-26.6 14.94-3.11 25.28 6.58 26.44 16.01.37 3.07.29 6.16-.49 9.17-.6 2.28-1.87 4.53-1.93 6.92-.06 2.51 1.94 4.83 3.85 6.23.32.24.57.53.91.75.7.47 1.49.81 2.19 1.28 2.58 1.72 5.56 2.89 7.8 5.1.53.52 1.12 1.03 1.69 1.52 2.97 2.65 2.41 6.42.07 9.27-.64.78-1.45 1.56-2.4 1.94-.78.32-1.64.44-2.38.88-.47.28-.92.53-1.3.93-.43.45-.73 1.15-.5 1.74.28.74.22 1.45.22 2.25 0 4.06.5 7.85.49 11.84-.01 3.24.24 7.02.96 10.18.47 2.07 1.84 4.08 1.67 6.27-.31 3.76-9.3 4.42-11.88 4.7-6.63.7-15.48 1.32-22.02-.29-1.84-.45-3.64-.49-5.44-1.17-1.72-.66-1.2-2.71-.87-4.05.49-2.01.09-4.21.46-6.28.34-1.88.15-3.71.38-5.61.35-2.89.59-5.81.59-8.72 0-2.69-.33-5.05-.73-7.68-.2-1.38-.89-1.54-2.08-.81-1.74 1.06-3.26 2.34-4.95 3.46-2.07 1.37-4.24 2.97-6.53 4.01-6.22 2.81-14.66 6.67-21.54 3.89-2.32-.93-4.85-2.22-5.98-4.6-1.19-2.5-.82-6.33.6-8.66 1.43-2.33 4.51-3.09 7.07-2.99 1.29.05 2.15.63 3.34.91 1.37.33 3.28-.28 4.61-.65 1.44-.4 2.89-1.04 4.17-1.73 4.31-2.3 8.24-5.32 11.77-8.68 3.13-2.97 7.64-6.18 3.5-10.27-2.72-2.66-5.06-5.35-6.23-9.04z"/></defs><use xlink:href="#a" overflow="visible" fill="#006CA2"/><clipPath id="b"><use xlink:href="#a" overflow="visible"/></clipPath><path clip-path="url(#b)" fill="#FFF" d="M74.08 107.21c5.18.21 10.33.86 15.53.88 2.46.01 4.93-.22 7.39-.37 2.74-.16 5.48-.34 8.21-.56 1.06-.08 2.12-.17 3.17-.29.36-.04.72-.09 1.07-.13 1.24-.15 2.01 2.48 2.23 3.3.55 2.01.79 3.35-1.45 3.91-3.45.86-7.28 1.23-10.82 1.59-2.66.27-5.34.34-8.01.23-4-.16-7.99-.47-11.99-.55-1.55-.03-3.03-.3-4.57-.45-1.12-.11-4.37.04-4.78-1.35-.15-.5.02-1.29.01-1.82 0-.81.06-1.68.2-2.47.1-.61.4-1.64.95-1.81.46-.14.96.07 1.44.03.48-.05.92-.16 1.42-.14z"/><path clip-path="url(#b)" fill="#FFF" d="M103.7 65.77c-10.2 6.35-17.03 16.09-25.22 24.59-1.41 1.46-2.54 3-3.76 4.61-1.2 1.6-2.2 3.27-3.29 4.94-.62.95-.36 2.34-.36 3.48v2.76c0 .83-.21 1.73.04 2.54.13.43.3.66.35 1.1.07.59.02 1.16.16 1.75.25 1.02 1 1.26 1.41.17.37-.99 1.06-1.75 1.64-2.6.54-.79 1.05-1.54 1.65-2.28 1.47-1.79 2.88-3.61 4.3-5.44 4.55-5.84 9.57-11.13 14.75-16.4 3.98-4.05 7.85-8.28 12.52-11.58 1.01-.72 2.09-1.23 3.16-1.85 3.53-2.05 1.1-2.01-1.12-3.74-2.05-1.61-3.55-3.72-6.23-2.05z"/><g fill="#006CA2"><path d="M106.91 75.83c.28-.27.56-.54.83-.82.96-.97 2.11-1.63 3.08-2.56.3-.3.6-.62.93-.88.57-.43 1.47.62 1.87.97.78.68 1.54 1.4 2.32 2.07 8.35 7.15 12.93 18.8 11.48 29.77-.3 2.21-.85 4.41-1.72 6.46-.72 1.69-1.63 3.41-3.11 4.55-3.54 2.72-9.93 1.68-12.43-2.04-.32-.48-.5-1.04-.62-1.6-.33-1.55-.53-3.13-.25-4.72.26-1.44 1.04-2.86 1.98-3.99.41-.49.89-.92 1.11-1.48.25-.62.19-1.32.17-1.98-.04-1.58-.66-3.1-1.03-4.65-.31-1.35-1.16-2.61-1.6-3.94-.32-.98-.8-1.57-1.49-2.31-.39-.42-.99-.78-1.21-1.33-.22-.55-.24-1.03-.55-1.59-.64-1.18-1.2-2.41-1.64-3.67-.28-.79-.42-1.3-.28-2.11.15-.83.36-1.54.73-2.29.35-.74.88-1.31 1.43-1.86zM51.37 29.51c-.09.39-.15.79-.14 1.19.02 3.06 2.84 4.37 4.05 6.82.25.5.52 1.67.45 2.23-.1.82-1.39 1.84-1.97 2.38-.78.72-1.79 1.76-1.45 2.96.13.49.51.73.98 1.03 1.1.7 2.36.79 3.59.94 7.31.88 14.79-.17 21.91-1.88 4.66-1.11 9.27-2.25 13.78-3.9 3.53-1.3 8.12-2.41 6.96-7.07-.55-2.18-.51-4.85-1.78-6.74-1.52-2.25-4.31-3.19-6.8-3.93-7.41-2.18-14.9-4.14-22.69-3.48-3.38.29-7.08.91-10.05 2.65-1.04.62-2.09 1.07-3.05 1.81-1.61 1.22-3.3 2.95-3.79 4.99z"/></g><g fill="#78A3AD"><path d="M63.28 105.77c-1.53-.03-3.05-.02-4.59-.02-4.14 0-8.26.01-12.39 0H12.27c-.69 0-1.38 0-2.08.06-.52.04-.82.22-.89.77-.07.44-.23.88-.28 1.34-.05.46.01.96.01 1.44 0 4.72.74 10.97 5.62 13.2 1.61.73 3.54 1.19 5.29 1.38 9.99 1.08 20.35 1.05 30.38.58 5.15-.24 14.11-.04 16.92-5.47 1.33-2.55 1.35-5.45 1.27-8.25-.03-1.57.36-5.13-2.13-5.03-.66.02-1.27-.06-1.93-.04-.38 0-.77.05-1.17.04z"/><path d="M30.55 57.42c-.41 1.47-.87 2.92-1.31 4.4-1.19 3.95-2.4 7.91-3.58 11.87l-4.47 14.82c-1.32 4.36-2.64 8.72-3.95 13.08l-1.41 4.66c-.19.67-.4 1.32-.66 1.97-.19.48-.45.73-1 .64-.44-.07-.92-.04-1.37-.13-.46-.09-.92-.28-1.37-.42-4.52-1.37-10.29-3.88-11.01-9.2-.24-1.75-.12-3.74.21-5.47 1.85-9.88 4.87-19.79 8.23-29.26 1.72-4.85 4.12-13.49 10.12-14.62 2.82-.54 5.61.29 8.26 1.17 1.49.49 5.02 1.14 4.21 3.5-.21.62-.32 1.24-.52 1.86-.11.38-.27.75-.38 1.13z"/></g></svg>