<svg xmlns="http://www.w3.org/2000/svg" width="128" height="128" viewBox="0 0 128 128"><path fill="#FFF" d="M110.01 81.1c-1.07 0-2.13-.17-3.17-.51-.73-.24-1.48-.36-2.24-.36a7.245 7.245 0 0 0-6.97 5.29c-1.87 6.68-8.02 11.34-14.95 11.34-3.38 0-6.61-1.08-9.33-3.14a7.217 7.217 0 0 0-4.36-1.46c-1.63 0-3.25.55-4.58 1.63-3.91 3.19-8.63 4.87-13.68 4.87-8.29 0-15.95-4.86-19.52-12.39a7.259 7.259 0 0 0-6.54-4.14c-.27 0-.55.01-.83.05-.62.07-1.16.1-1.66.1-7.95 0-14.41-6.47-14.41-14.41 0-7.67 6.01-13.99 13.69-14.37a7.253 7.253 0 0 0 6.85-6.52c.64-6.5 6.07-11.41 12.61-11.41 2 0 3.94.47 5.75 1.4 1.05.54 2.17.79 3.29.79 2.14 0 4.24-.95 5.65-2.71 3.02-3.76 7.5-5.92 12.3-5.92 6.41 0 12.14 3.84 14.58 9.79 1.13 2.76 3.8 4.5 6.69 4.5.46 0 .93-.05 1.4-.14.67-.13 1.33-.19 1.98-.19 5.64 0 10.23 4.58 10.23 10.23 0 4 3.24 7.23 7.23 7.24 5.64 0 10.23 4.59 10.23 10.23s-4.6 10.21-10.24 10.21z"/><path fill="#40C0E7" d="M110.01 53.41c0-9.65-7.82-17.46-17.47-17.46-1.15 0-2.28.11-3.37.33-3.44-8.38-11.66-14.29-21.27-14.29-7.27 0-13.73 3.38-17.95 8.64a19.735 19.735 0 0 0-9.03-2.18c-10.33 0-18.82 7.87-19.82 17.94-11.45.57-20.57 10-20.57 21.6 0 11.96 9.69 21.65 21.65 21.65.84 0 1.67-.06 2.49-.15 4.63 9.76 14.54 16.52 26.06 16.52 6.93 0 13.29-2.44 18.26-6.5 3.81 2.87 8.54 4.6 13.7 4.6 10.45 0 19.23-7.04 21.92-16.63 1.7.56 3.52.87 5.41.87 9.65 0 17.47-7.82 17.47-17.47-.01-9.66-7.83-17.47-17.48-17.47zm0 27.69c-1.07 0-2.13-.17-3.17-.51-.73-.24-1.48-.36-2.24-.36a7.245 7.245 0 0 0-6.97 5.29c-1.87 6.68-8.02 11.34-14.95 11.34-3.38 0-6.61-1.08-9.33-3.14a7.217 7.217 0 0 0-4.36-1.46c-1.63 0-3.25.55-4.58 1.63-3.91 3.19-8.63 4.87-13.68 4.87-8.29 0-15.95-4.86-19.52-12.39a7.259 7.259 0 0 0-6.54-4.14c-.27 0-.55.01-.83.05-.62.07-1.16.1-1.66.1-7.95 0-14.41-6.47-14.41-14.41 0-7.67 6.01-13.99 13.69-14.37a7.253 7.253 0 0 0 6.85-6.52c.64-6.5 6.07-11.41 12.61-11.41 2 0 3.94.47 5.75 1.4 1.05.54 2.17.79 3.29.79 2.14 0 4.24-.95 5.65-2.71 3.02-3.76 7.5-5.92 12.3-5.92 6.41 0 12.14 3.84 14.58 9.79 1.13 2.76 3.8 4.5 6.69 4.5.46 0 .93-.05 1.4-.14.67-.13 1.33-.19 1.98-.19 5.64 0 10.23 4.58 10.23 10.23 0 4 3.24 7.23 7.23 7.24 5.64 0 10.23 4.59 10.23 10.23s-4.6 10.21-10.24 10.21z"/></svg>