<svg xmlns="http://www.w3.org/2000/svg" width="128" height="128" viewBox="0 0 128 128"><path fill="#FFF" d="M48.47 34.83c.19-.93.47-1.85.83-2.73.68-1.67 1.71-3.11 2.7-4.59 5.73-8.66 16.49-9.74 25.91-8.98 5.84.47 11.77 1.63 17.66.74 4.25-.64 9.02-3.58 11.42-7.25.47-.71.86-.42.85.35-.01 1.51-.64 3.3-1.12 4.72-1.5 4.38-4.41 8.6-8.29 11.09-2.42 1.56-5.01 2.32-7.66 2.6-6.4.69-13.25-1.4-19.58-1.72-1.26-.07-2.52-.07-3.78 0-1.73.1-3.47.3-5.19.62-2.91.55-5.79 1.5-8.32 3.09-.58.37-5.49 4.94-5.72 4.65-.36-.45.18-2.07.29-2.59zM114.28 79.91c-.02-.04-.03-.08-.05-.12-2.73-7.77-13.79-7.91-20.42-9.08-.49-.09-.99-.05-1.36-.37-1.24-1.08-2.01-2.65-3.09-3.89-1.25-1.43-2.7-2.68-4.2-3.81-2.98-2.24-6.32-3.95-9.71-5.42C63.89 52.16 50 51.95 37.8 54.15c-6.83 1.23-14.36 4.15-19.05 9.63-2.41 2.82-3.98 6.09-4.87 9.6-.06.29-.1.56-.16.84-1.31 7.4-.35 15.06 2.34 22.04.13.35.28.71.42 1.06.13.31.26.6.39.91 1.06 2.37 2.29 4.59 3.65 6.56 3.75 5.45 8.66 10.01 14.72 12.65 1.62.7 3.19 1.37 4.89 1.83 3.35.9 6.8 1.57 10.25 1.79 1.64.11 3.27.17 4.91.15.67 0 1.35-.05 2.02-.14 6.68-.83 13.46-2.39 19.39-5.74 2.5-1.41 4.81-3.2 7.1-4.93 1-.76 2.57-.74 3.77-.85 9.01-.81 18.53-5.56 23.99-12.98 1.92-2.61 3.24-5.67 3.65-9.2.27-2.3-.17-5.29-.93-7.46zm-6.18 7.8c-.14 1.24-.55 2.48-1.04 3.62-1 2.35-2.54 4.45-4.36 6.21-.56.54-1.15 1.05-1.77 1.52-2.25 1.71-4.77 3.05-7.5 3.79-1.36.36-3.49.71-4.89.59-.3-.02-.77 0-1.04-.14-.49-.24-.29-.89-.14-1.33.37-1.1.79-2.21 1.21-3.31.33-.87.62-1.75.91-2.63 1.8-5.35 2.84-10.57 3.65-16.15.03-.22.05-.7.13-.88.48-1.11 5.1-.44 6.09-.39 1.17.07 2.32.22 3.43.54 1.09.32 2.14.8 3.09 1.52 2.05 1.56 2.49 4.59 2.23 7.04z"/><path fill="#855C52" d="M63.48 57c-2.87-.55-5.88-.83-8.79-.83-8.51-.01-18.02 1.22-25.37 5.86-2.29 1.45-5.13 4.27-5.97 6.95-2.73 8.8 5.63 15.16 12.9 17.21 6.07 1.71 12.27 2.51 18.57 2.16 8.34-.46 18.75-2.51 23.88-9.93 3.73-5.38 2.4-10.2-1.02-13.92-3.58-3.9-9.46-6.59-14.2-7.5z"/><g fill="#2F2F2F"><path d="M105.88 80.67c-.95-.72-2-1.2-3.09-1.52-1.11-.32-2.26-.47-3.43-.54-.99-.05-5.61-.72-6.09.39-.08.18-.1.66-.13.88-.81 5.57-1.85 10.8-3.65 16.15-.3.88-.59 1.76-.91 2.63-.42 1.1-.85 2.21-1.21 3.31-.15.44-.35 1.09.14 1.33.27.14.74.12 1.04.14 1.4.12 3.53-.23 4.89-.59 2.73-.74 5.25-2.08 7.5-3.79.62-.47 1.21-.98 1.77-1.52 1.82-1.76 3.36-3.86 4.36-6.21.49-1.14.9-2.38 1.04-3.62.25-2.45-.19-5.48-2.23-7.04zm-4.47 10.01c-.74 1.75-1.97 3.32-3.08 4.36-.47.44-3.32 2.85-3.87 1.91-.1-.17.15-.69.2-.87.39-1.48 1-2.86 1.33-4.38.3-1.33.62-2.67.93-4 .25-1.13.41-2.21.59-3.33.04-.3-.05-.34.22-.47.12-.05.42-.03.54-.01.39.05.82.11 1.2.26.89.35 2.25 1.18 2.49 2.34.29 1.39.01 2.84-.55 4.19z"/><path d="M115.56 71.23c-.06-.05-.12-.1-.19-.15-.33-.24-.67-.47-1.01-.7-4.56-2.99-10.13-4.01-15.47-4.45-.87-.07-1.85-.09-2.48-.73-2.76-2.82-5.48-5.76-8.71-8.12-3.26-2.41-6.81-4.5-10.56-6.03-2.08-.85-4.27-1.58-6.45-2.14-5.27-1.36-10.74-1.92-16.18-1.89-10.06.05-20.67.52-29.85 5.19-7.6 3.86-15.4 10.76-17.42 19.47-1.05 4.54-.97 9.14-.67 13.76.33 4.95 1.45 9.84 3.58 14.32 5.37 11.25 15.28 21.3 27.11 25.25 3.26 1.09 6.65 1.72 10.06 2.08 7.32.75 14.87.68 21.98-1.46a38.62 38.62 0 0 0 4.57-1.72c2.23-1.02 4.38-2.21 6.47-3.5 1.06-.66 2.1-1.34 3.14-2.04.73-.5 1.37-1.12 2.08-1.64.47-.35.84-.88 1.35-1.14.5-.25 1.12-.31 1.65-.4 1.05-.17 2.1-.19 3.16-.4 1.23-.23 2.46-.5 3.68-.81 3.07-.78 6.05-1.88 8.84-3.39 4.57-2.49 8.83-5.78 12-9.99 1.05-1.39 2-2.87 2.79-4.42 1.21-2.37 2.07-4.93 2.4-7.56.79-6.17-.77-13.48-5.87-17.39zm-.35 16.15c-.41 3.54-1.73 6.59-3.65 9.2-5.45 7.41-14.98 12.17-23.99 12.98-1.2.11-2.77.09-3.77.85-2.29 1.73-4.6 3.52-7.1 4.93-5.93 3.35-12.71 4.91-19.39 5.74-.67.09-1.34.14-2.02.14-1.64.02-3.27-.04-4.91-.15-3.45-.22-6.91-.89-10.25-1.79-1.7-.46-3.28-1.13-4.89-1.83-6.05-2.64-10.97-7.2-14.72-12.65-1.35-1.98-2.59-4.2-3.65-6.56-.14-.31-.27-.6-.39-.91-.15-.35-.29-.71-.42-1.06-2.69-6.98-3.66-14.64-2.34-22.04.06-.28.1-.55.16-.84.89-3.51 2.46-6.78 4.87-9.6 4.69-5.48 12.21-8.4 19.05-9.63 12.2-2.2 26.09-1.99 37.66 3.07 3.38 1.48 6.73 3.19 9.71 5.42 1.5 1.13 2.95 2.38 4.2 3.81 1.08 1.24 1.85 2.81 3.09 3.89.37.32.87.28 1.36.37 6.62 1.17 17.68 1.31 20.42 9.08.01.04.03.08.05.12.75 2.16 1.19 5.15.92 7.46zM45.57 44.28c1.62.26 2.84-1.45 3.89-2.41 1.08-.97 2.31-1.75 3.57-2.43 5.72-3.09 12.55-4.25 18.98-4.18 5.56.06 11.02 1.39 16.58 1.48 3.22.05 6.42-.39 9.43-1.56 2.03-.8 3.98-1.85 5.71-3.18 6.92-5.3 9.33-14.34 8.72-22.77-.16-2.17-.46-4.5-1.09-6.58-.21-.71-.58-1.92-1.38-2.13-.78-.21-1.75.36-2.25.94-1.52 1.77-1.98 4.45-3.51 6.33-3.66 4.47-9.19 6.2-14.76 6.33-5.06.13-10.07-.87-15.11-1.23-5.93-.41-11.42.96-16.84 3.3-5.38 2.31-9.52 6.6-11.78 12.04-1.17 2.83-2 5.81-2.22 8.88-.14 1.92-.65 6.75 2.06 7.17zm2.9-9.45c.19-.93.47-1.85.83-2.73.68-1.67 1.71-3.11 2.7-4.59 5.73-8.66 16.49-9.74 25.91-8.98 5.84.47 11.77 1.63 17.66.74 4.25-.64 9.02-3.58 11.42-7.25.47-.71.86-.42.85.35-.01 1.51-.64 3.3-1.12 4.72-1.5 4.38-4.41 8.6-8.29 11.09-2.42 1.56-5.01 2.32-7.66 2.6-6.4.69-13.25-1.4-19.58-1.72-1.26-.07-2.52-.07-3.78 0-1.73.1-3.47.3-5.19.62-2.91.55-5.79 1.5-8.32 3.09-.58.37-5.49 4.94-5.72 4.65-.36-.45.18-2.07.29-2.59z"/></g></svg>