<svg xmlns="http://www.w3.org/2000/svg" width="128" height="128" viewBox="0 0 128 128"><path fill="#FFF" d="M48.6 67.2a4.989 4.989 0 0 0 6.15 1.85c1.86-.82 3.56-2.43 2.72-5.18-.44-1.46-3.2-10.53-4.45-14.35-1.25-3.83-4.54-4.67-7.56-3.73-3.34 1.04-3.76 4.98-3.14 7.24.64 2.25 4.71 11.83 6.28 14.17zM74.52 48.21c4.63-.84 11.06.21 11.12.21 0-1.11.29-7.64.62-14.77.42-9.19.9-19.37.9-20.22-.04-4.96-3.59-7.17-7.48-7.18-4.3-.03-6.01 4.02-6.12 6.9-.02.64-.13 11.52-.22 20.48-.03 1.9-.04 3.72-.05 5.33-.02 1.8-.01 3.42.03 4.91.37 1.25.78 2.68 1.2 4.34zM44.4 69.14c-.51-1.31-3.08-7.72-4.49-11.14-1.41-3.42-4.48-3.96-7.18-2.89-2.98 1.19-2.97 5.53-2.23 7.56.73 2.03 4.02 8.67 5.62 10.7 1.6 2.03 4.51 1.59 6.15.71 1.64-.89 3.09-2.48 2.13-4.94zM61.95 62.22c1.42 2.64 3.95 3.21 6.01 2.55.9-.3.95-.54 1.62-1.22-2.34-1.75-3.18-4.52-3.1-8.09.07-2.05.8-3.52 1.98-4.6.32-.3.65-.58 1.04-.82-.47-2.35-.94-4.62-1.27-6.14-.28-1.3-.82-2.29-1.51-3.05-1.52-1.69-3.83-2.16-6.09-1.7-3.65.74-4.24 4.16-3.64 6.58.65 2.61 3.55 13.85 4.96 16.49z"/><path fill="#FFF" d="M86.72 53.63c-1.18-.04-3.01-.34-5.01-.58-1.48-.18-3.04-.3-4.52-.26-3.16.09-5.88.99-6.29 4.07-.85 6.46 8.42 8.55 10.65 8.21 0 0-1.25 3.87-1.14 6.39 0 0-6.64 1.56-10.17 3.95-3.54 2.39-4.49 5.44-6.48 4.55-1.98-.89 2.69-8.91 2.69-8.91s-1.02.32-2.66.05c-1.37-.23-2.32-.73-2.32-.73s-2.12 3.14-4.41 4.15c-2.28 1-6.59.36-7.57-.2-.23 1.58-1.93 4.06-3.65 4.84-3 1.36-6.28.91-6.28.91s0 7.47 6.94 11.62c.05.03.12.05.17.09v.02c.75.46 3.91 2.74 5.07 7.59.12.53.26 1.05.34 1.66.1.83.17 1.6.22 2.33 2.79.29 6.33.58 10.5.79 5.78.29 9.19.33 11.68.28.1-1.7.32-3.86.79-5.57.08-.29.18-.58.28-.84.53-1.12 1.39-2.31 2.85-3.75 1.84-1.71 3.72-2.96 5.89-4.3l.01-.01h-.1c12.02-7.1 14.45-20.66 12.24-29.36-1.14-4.49-6.27-6.94-9.72-6.99zM77.8 109.51c-.26-.01-7.79-.07-14.85-.4-4.31-.2-7.98-.39-10.54-.53-2.44-.14-3.87-.22-3.87-.22s-.8-.09-1.25.35c-.08.08-.18.16-.24.29-.43 1.15-1.13 4.69-1.13 4.69s6.39.83 17 1.2c10.53.37 16.38.52 16.38.52s.08-4.31-.22-5.11c-.23-.6-.59-.76-1.28-.79z"/><path fill="#D7598B" d="M93.53 49.91c-.05-.02-.12-.05-.19-.09-1.08-1.02-1.67-1.97-1.65-2.77.16-5.43 1.58-31.69 1.56-33.69C93.17 5.7 87.55.27 79.6.16h-.23C71.59.13 67.16 6.74 66.95 13c-.03.7-.11 11.32-.18 20.51-1.69-.48-3.81-.74-6.2-.36-3.61.56-6.73 3.67-7.79 5.33-.54.82-1.31 1.15-2.22.88-1.79-.54-4.34-.26-7.1 1.26-3.1 1.7-3.83 4.23-4.45 5.99-.29.82-.91 1.26-1.77 1.2-1.4-.09-3.64-.01-5.7 1.04-4.18 2.15-7.05 6.6-6.68 11.59.39 5.34 3.13 8.63 5.82 17.23 1.46 4.67 3.25 12.28 8.75 16.67.35.27.76.49 1.12.75l-.06.03c2.53 2.63 3.66 1.68 5.24 5.41.29.7.47 1.41.62 2.12-.69-.1-1.07-.16-1.07-.16s-2.33-.43-2.94 1.76c-.86 3.13-1.49 8.18-1.49 8.18s-2.6.08-3.09.55c-.87.83-1.04 4.39-1.16 5.8-.23 2.55-.34 8.97-.34 8.97l53.09.1s.37-7.65-.32-10.17c-.4-1.5-1.6-2.24-2.47-2.44-1.06-.23-2.63-.32-2.63-.32s.36-7.25-.47-9.06c-.63-1.36-1.53-1.72-3.27-1.73-.09 0-.19.01-.28.02.09-2.2.41-4.28 1.11-5.08 1.6-1.93 4.6-3.6 4.6-3.6v-.02c16.14-8.04 19.39-25.28 16.65-36.13-1.15-4.67-5.11-7.98-8.74-9.41zM73.28 38.97c.01-1.61.03-3.43.05-5.33.09-8.96.21-19.84.22-20.48.11-2.88 1.82-6.92 6.12-6.9 3.89.02 7.44 2.23 7.48 7.18 0 .85-.48 11.03-.9 20.22-.33 7.13-.62 13.66-.62 14.77-.06 0-6.49-1.05-11.12-.21-.43-1.66-.84-3.09-1.22-4.34-.02-1.49-.03-3.11-.01-4.91zm-12.66.17c2.26-.46 4.57.01 6.09 1.7.69.76 1.23 1.75 1.51 3.05.33 1.52.8 3.79 1.27 6.14-.38.24-.72.52-1.04.82-1.17 1.08-1.91 2.55-1.98 4.6-.08 3.57.76 6.34 3.1 8.09-.67.68-.71.93-1.62 1.22-2.06.66-4.59.1-6.01-2.55-1.42-2.64-4.31-13.87-4.97-16.5-.59-2.41 0-5.83 3.65-6.57zm-15.16 6.64c3.02-.94 6.31-.1 7.56 3.73 1.24 3.83 4 12.89 4.45 14.35.84 2.75-.86 4.37-2.72 5.18-1.86.82-4.57.49-6.15-1.85-1.57-2.33-5.64-11.92-6.27-14.18-.63-2.25-.21-6.19 3.13-7.23zm-9.34 27.59c-1.6-2.03-4.89-8.67-5.62-10.7-.73-2.03-.75-6.38 2.23-7.56 2.7-1.07 5.77-.53 7.18 2.89 1.41 3.42 3.98 9.83 4.49 11.14.96 2.46-.49 4.05-2.13 4.94-1.65.88-4.56 1.32-6.15-.71zm43.19 42.04s-5.85-.15-16.38-.52c-10.62-.37-17-1.2-17-1.2s.7-3.54 1.13-4.69c.06-.13.16-.21.24-.29.45-.44 1.25-.35 1.25-.35s1.43.09 3.87.22c2.56.14 6.23.33 10.54.53 7.06.32 14.59.39 14.85.4.7.03 1.05.2 1.29.79.29.79.21 5.11.21 5.11zm4.87-25.43h.1l-.01.01c-2.17 1.34-4.04 2.59-5.89 4.3-1.46 1.44-2.32 2.63-2.85 3.75-.1.26-.2.54-.28.84-.47 1.71-.69 3.87-.79 5.57-2.48.05-5.9.01-11.68-.28-4.18-.21-7.72-.5-10.5-.79-.05-.73-.12-1.5-.22-2.33-.08-.6-.21-1.12-.34-1.66-1.16-4.85-4.32-7.12-5.07-7.59v-.02c-.06-.03-.12-.05-.17-.09-6.94-4.15-6.94-11.62-6.94-11.62s3.29.45 6.28-.91c1.73-.78 3.42-3.26 3.65-4.84.98.56 5.29 1.21 7.57.2 2.29-1.01 4.41-4.15 4.41-4.15s.96.5 2.32.73c1.64.27 2.66-.05 2.66-.05s-4.67 8.02-2.69 8.91c2 .88 2.95-2.16 6.48-4.55 3.53-2.39 10.17-3.95 10.17-3.95-.1-2.52 1.14-6.39 1.14-6.39-2.24.34-11.5-1.76-10.65-8.21.41-3.07 3.13-3.97 6.29-4.07 1.48-.04 3.04.08 4.52.26 2.01.23 3.83.54 5.01.58 3.45.05 8.57 2.5 9.7 6.98 2.23 8.7-.2 22.27-12.22 29.37z"/></svg>