<svg xmlns="http://www.w3.org/2000/svg" width="128" height="128" viewBox="0 0 128 128"><path fill="#FCC21B" d="M119.17 98.95c0 12.09-24.69 21.9-55.16 21.9-30.47 0-55.17-9.81-55.17-21.9 0-12.1 1.27-73.24 55.17-73.24 53.88.01 55.16 61.14 55.16 73.24"/><g fill="#2F2F2F"><path d="M46.39 71.71c4.17 0 7.57-4.05 7.57-9.05 0-5.01-3.4-9.07-7.57-9.07s-7.57 4.05-7.57 9.07c.01 5 3.4 9.05 7.57 9.05zM81.6 71.71c4.18 0 7.56-4.05 7.56-9.05 0-5.01-3.38-9.07-7.56-9.07-4.17 0-7.57 4.05-7.57 9.07 0 5 3.4 9.05 7.57 9.05z"/></g><path fill="#2F2F2F" d="M91.85 82.39c-1.1-.66-2.45-.43-3.47.27-1.32.91-3.13 2.87-4.6 4.27-4.59 4.38-11.83 7.55-19.79 7.55-7.94 0-15.18-3.17-19.78-7.55-1.47-1.4-3.28-3.36-4.6-4.27-1.03-.71-2.37-.93-3.48-.27-1.6.96-1.05 3.18-.59 4.72 1.05 3.5 5.07 8.83 10.94 12.73 5.38 3.57 13.38 4.83 17.5 4.83 4.13 0 12.13-1.27 17.51-4.83 5.87-3.9 9.89-9.23 10.94-12.73.48-1.54 1.02-3.77-.58-4.72z"/></svg>