<svg xmlns="http://www.w3.org/2000/svg" width="128" height="128" viewBox="0 0 128 128"><path fill="#2F2F2F" d="M65.23 2.46c-.77-.43-1.71-.43-2.48 0-2.3 1.3-56.32 32.12-56.32 69.56 0 16.59 13.49 30.08 30.07 30.08 7.37 0 14.15-2.69 19.41-7.14-2.78 16.65-8.45 26.99-8.52 27.12-.44.79-.43 1.74.02 2.52.45.77 1.28 1.24 2.18 1.24h28.82c.89 0 1.72-.47 2.18-1.24.45-.78.46-1.73.03-2.52-.08-.13-5.74-10.48-8.53-27.13 5.26 4.45 12.04 7.14 19.41 7.14 16.58 0 30.07-13.49 30.07-30.08 0-37.43-54.03-68.25-56.34-69.55z"/><path fill="#FFF" d="M78.41 127.11H49.59c-1.34 0-2.59-.72-3.27-1.86a3.812 3.812 0 0 1-.04-3.77c.05-.09 4.93-9.03 7.8-23.53a31.315 31.315 0 0 1-17.58 5.43c-17.28 0-31.33-14.06-31.33-31.34 0-38.08 54.64-69.35 56.96-70.66a3.85 3.85 0 0 1 3.71 0c2.33 1.31 56.98 32.53 56.98 70.67 0 17.28-14.06 31.34-31.33 31.34-6.27 0-12.41-1.91-17.59-5.43 2.87 14.49 7.75 23.43 7.8 23.53a3.83 3.83 0 0 1-.04 3.78 3.798 3.798 0 0 1-3.25 1.84zM57.72 91.78l-.57 3.4c-2.82 16.87-8.61 27.42-8.67 27.53-.22.4-.22.87.01 1.27.22.38.64.62 1.09.62H78.4c.44 0 .86-.24 1.09-.62.23-.39.23-.87.01-1.26-.04-.06-5.84-10.6-8.67-27.53l-.57-3.4L72.9 94c5.21 4.42 11.82 6.85 18.6 6.85 15.88 0 28.81-12.93 28.81-28.82 0-36.68-53.42-67.18-55.69-68.46-.37-.21-.86-.21-1.24 0C61.1 4.85 7.7 35.41 7.7 72.03c0 15.89 12.92 28.82 28.81 28.82 6.78 0 13.38-2.43 18.59-6.84l2.62-2.23z"/></svg>