<svg xmlns="http://www.w3.org/2000/svg" width="128" height="128" viewBox="0 0 128 128"><g fill="#006CA2"><path d="M70.91 97.06c-2.26 0-4.86-.12-7.58-.6-1.65 8.34-9.01 14.64-17.82 14.64-10.02 0-18.17-8.15-18.17-18.17 0-8.76 6.24-16.09 14.5-17.79-1.39-4.95-1.98-10.13-2.21-15.46-15.84 2.8-27.91 16.62-27.91 33.24 0 18.64 15.16 33.8 33.79 33.8 17.36 0 31.69-13.17 33.57-30.03-.2.02-.42.02-.62.03-2.5.18-4.96.34-7.55.34z"/><path d="M116.23 110.36c-.04-.28-.1-.55-.21-.84-.01-.03-.01-.06-.03-.08-.12-.3-.3-.6-.5-.9-.05-.07-.1-.15-.16-.21-.23-.31-.49-.62-.81-.93-2.53-2.38-6.45-.12-8.66-2.73-1.43-1.68-2.77-9.57-3.56-13.79-.16-.84-1.19-8.26-5.86-12.58-3.9-3.62-9.68-4.09-14.73-4.97-5.04-.86-7.41-2.69-8.98-7.42-.28-.84-.38-4.3-.41-6.28 0-.25.05-.43.12-.58.02-.05.05-.07.07-.1.08-.08.16-.13.28-.15.03-.01.04-.04.07-.04.02 0 .04.02.06.02.16.01.35.07.58.2 1.42.83 4.03 2.18 7.31 3.15 5.05 1.49 12.51 1.22 14.13 2.37.56.39 1.11.74 1.66 1.04.18.1.35.18.53.26.36.19.72.38 1.08.52.21.08.4.14.61.22.31.1.62.21.92.28.21.05.41.07.61.1.27.05.55.08.81.09.23.01.45 0 .67-.02.16-.01.32-.02.48-.05.23-.05.44-.12.64-.2.13-.05.27-.08.4-.15.22-.1.4-.25.6-.4.09-.08.19-.13.28-.21.26-.26.49-.55.69-.91 1.5-2.73-.35-5.47-1.74-6.87-1.02-1-2.45-2-4.19-2.97-4.8-2.68-19.07-2.51-27.49-10.93-2.71-2.71-4.03-4.93-5.49-6.46-1.86-1.95-3.4-3.12-5.24-3.69-.54-.17-1.13-.32-1.75-.42H59c-.61-.1-1.25-.16-1.92-.16-.23 0-.46.01-.68.03-.11.01-.22.01-.33.02-.2.02-.41.06-.62.09-.14.02-.28.04-.42.07-.19.03-.38.09-.57.14-.16.04-.32.07-.49.12-.36.12-.71.25-1.07.4-5.23 2.27-6.21 10.92-6.22 16.23 0 2.77.02 5.65.15 8.57.23 5.46.9 11 2.6 15.99.18.54.34 1.07.54 1.59.92 2.3 2.11 4.47 3.65 6.41.49.61 1.01 1.15 1.54 1.65.14.14.28.26.43.39.49.43 1 .83 1.52 1.18.07.05.12.1.19.14.58.39 1.19.72 1.81 1.02.16.09.32.16.49.24.54.24 1.08.46 1.64.66.11.04.22.08.33.11.55.18 1.12.33 1.69.46.1.03.2.05.31.08.17.04.35.07.52.1.57.11 1.14.21 1.72.28.15.03.29.05.44.07.69.08 1.4.14 2.1.18l.5.03c.59.03 1.17.04 1.76.05h.48c1.08 0 2.17-.04 3.25-.09.08 0 .17-.01.25-.01 1.14-.05 2.27-.13 3.38-.21.37-.03.77-.05 1.18-.08.14 0 .27-.01.41-.02.16-.01.33-.01.49-.01.37-.02.74-.04 1.13-.04.05 0 .09.01.14.01.41 0 .81.03 1.22.06.26.01.52.02.77.04.65.08 1.29.17 1.89.33 2.43.65 3.83 2.94 4.42 4.35 2.1 5.05 4.27 15.01 4.5 15.98.57 2.51 1.3 5.04 3.14 6.67.31.28.68.53 1.07.73.03.02.07.04.1.05.38.2.79.35 1.23.48.06.02.11.04.17.06.43.12.89.2 1.36.27l.21.03c.47.06.96.08 1.46.08h.25c.85-.01 1.73-.08 2.62-.22.09-.02.18-.03.26-.05.45-.08.89-.17 1.33-.27.01 0 .02-.01.03-.01.43-.1.85-.23 1.28-.37.08-.02.16-.05.25-.07.43-.14.85-.29 1.25-.46a.37.37 0 0 0 .11-.05c.38-.15.74-.32 1.09-.5.08-.04.15-.08.23-.12.38-.19.73-.38 1.07-.6.06-.03.1-.07.16-.1.3-.19.58-.38.85-.59.06-.05.12-.08.18-.13.3-.24.56-.47.81-.72l.14-.14c.21-.22.4-.45.58-.68.03-.05.08-.09.11-.14.18-.26.34-.53.46-.8.03-.07.05-.13.08-.19.1-.25.18-.5.23-.75.01-.05.02-.08.03-.13.05-.28.06-.57.03-.86-.03-.11-.05-.18-.06-.24zM50.49 27.62c1.36.46 2.81.72 4.33.72.77 0 1.53-.08 2.26-.21 1.41-.24 2.75-.68 3.98-1.33 4.34-2.25 7.31-6.78 7.31-12.01 0-7.47-6.06-13.53-13.54-13.53-7.48 0-13.53 6.06-13.53 13.53a13.496 13.496 0 0 0 9.19 12.83z"/></g></svg>