<svg xmlns="http://www.w3.org/2000/svg" xmlns:xlink="http://www.w3.org/1999/xlink" width="128" height="128" viewBox="0 0 128 128"><path fill="#FFF" d="M124.14 64c0 33.21-26.93 60.13-60.14 60.13S3.87 97.21 3.87 64 30.79 3.87 64 3.87 124.14 30.79 124.14 64z"/><defs><path id="a" d="M124.14 64c0 33.21-26.93 60.13-60.14 60.13S3.87 97.21 3.87 64 30.79 3.87 64 3.87 124.14 30.79 124.14 64z"/></defs><clipPath id="b"><use xlink:href="#a" overflow="visible"/></clipPath><g clip-path="url(#b)"><path fill="#ED6C30" d="M112.15 28.1c-.32 0-.64-.1-.91-.29-2.36-1.64-4.83-.82-4.95-.79-.83.29-1.76-.16-2.05-.99-.29-.84.14-1.76.97-2.05.14-.05 2.98-1.05 6.12.23 1.61-3 4.42-4.05 4.57-4.1.84-.3 1.76.13 2.06.97.3.83-.12 1.75-.95 2.06-.1.04-2.54 1-3.3 3.77a1.627 1.627 0 0 1-1.56 1.19zM115.11 36.28c-.33 0-.64-.09-.92-.29-2.35-1.64-4.83-.82-4.94-.78-.83.29-1.76-.15-2.05-.99-.29-.84.13-1.75.97-2.05.14-.05 2.98-1.04 6.12.23 1.61-3 4.42-4.05 4.56-4.1.84-.3 1.76.13 2.07.97.3.83-.12 1.75-.96 2.06-.13.05-2.54 1.01-3.29 3.76-.14.5-.51.91-1.01 1.09-.18.07-.37.1-.55.1zM115.32 44.5c-.17 0-.33-.03-.5-.07-.5-.17-.89-.56-1.04-1.07-.85-2.75-3.38-3.64-3.41-3.65a1.62 1.62 0 0 1-1.03-2.04c.27-.85 1.19-1.31 2.03-1.04.14.05 2.99 1.01 4.69 3.95 3.11-1.37 5.97-.48 6.12-.42.85.28 1.32 1.19 1.04 2.03-.27.85-1.18 1.32-2.02 1.04-.12-.04-2.61-.77-4.91.95-.29.21-.62.32-.97.32zM112.62 52.77a1.633 1.633 0 0 1-1.55-1.14c-.85-2.75-3.3-3.62-3.42-3.66-.83-.29-1.29-1.2-1.01-2.04.28-.84 1.19-1.3 2.03-1.03.14.04 3 1.01 4.69 3.95 3.11-1.37 5.97-.47 6.12-.43.84.28 1.31 1.19 1.03 2.03-.27.85-1.18 1.32-2.02 1.04-.13-.04-2.62-.76-4.91.95-.27.22-.61.33-.96.33zM113.36 62.78a1.6 1.6 0 0 1-1.4-.81c-.07-.11-1.41-2.34-4.26-2.63-.52-.06-.98-.36-1.24-.81-.25-.46-.27-1.01-.05-1.48 1.24-2.6-.01-4.98-.03-4.99-.44-.78-.16-1.77.62-2.19.78-.44 1.76-.16 2.19.62.07.13 1.52 2.77.78 6.08 3.21 1.09 4.71 3.71 4.78 3.84.44.78.16 1.76-.62 2.2-.24.1-.52.17-.77.17zM105.76 67.04c-.56 0-1.1-.29-1.4-.81-.08-.12-1.41-2.34-4.26-2.63a1.65 1.65 0 0 1-1.24-.82c-.25-.45-.27-1.01-.05-1.48 1.24-2.6-.01-4.97-.02-4.99-.44-.77-.17-1.76.62-2.19.78-.44 1.75-.16 2.19.61.08.13 1.52 2.77.78 6.08 3.21 1.09 4.71 3.71 4.78 3.84.43.78.16 1.75-.62 2.19-.23.13-.51.2-.78.2zM98.19 71.29c-.56 0-1.12-.29-1.41-.81-.07-.11-1.4-2.34-4.25-2.63-.52-.06-.99-.36-1.24-.81-.25-.46-.27-1.02-.05-1.48 1.24-2.61-.02-4.97-.03-4.99-.44-.78-.16-1.76.62-2.2.77-.44 1.76-.16 2.19.62.07.13 1.52 2.77.77 6.08 3.22 1.09 4.71 3.71 4.79 3.83.43.78.15 1.76-.62 2.2-.25.13-.52.19-.77.19zM91.04 75.34c-.52 0-1.02-.25-1.34-.7-.06-.09-1.59-2.21-4.46-2.26a1.623 1.623 0 0 1-1.49-2.18c1.02-2.7-.43-4.95-.45-4.97-.49-.73-.3-1.74.44-2.23a1.61 1.61 0 0 1 2.24.42c.08.12 1.75 2.63 1.29 5.99 3.3.81 5.01 3.28 5.1 3.41a1.61 1.61 0 0 1-1.33 2.52zM83.84 80.23c-.51 0-1.02-.24-1.33-.7-.07-.12-1.6-2.21-4.45-2.26a1.62 1.62 0 0 1-1.49-2.18c1.01-2.7-.44-4.95-.46-4.98-.5-.74-.31-1.73.43-2.24.74-.49 1.75-.31 2.24.43.08.12 1.75 2.63 1.3 5.99 3.3.81 5.01 3.29 5.1 3.41.5.74.31 1.75-.43 2.24-.28.2-.6.29-.91.29zM76.65 85.12c-.51 0-1.02-.24-1.33-.7-.08-.11-1.61-2.2-4.46-2.26a1.64 1.64 0 0 1-1.31-.7c-.3-.44-.36-.99-.18-1.47 1.02-2.7-.44-4.95-.45-4.98-.5-.74-.31-1.74.43-2.24.73-.5 1.74-.31 2.24.43.08.12 1.75 2.63 1.29 5.99 3.3.81 5.01 3.29 5.1 3.41.5.74.31 1.74-.43 2.24-.28.19-.59.28-.9.28zM65.29 88.43c-.23 0-.48-.05-.7-.15-.47-.23-.8-.67-.89-1.19-.49-2.84-2.81-4.02-2.91-4.08-.79-.39-1.13-1.36-.74-2.15a1.62 1.62 0 0 1 2.14-.76c.14.06 2.84 1.39 4.14 4.53 3.27-.96 5.99.31 6.12.37.8.38 1.15 1.35.76 2.15-.38.8-1.33 1.14-2.14.77-.11-.05-2.48-1.1-5 .3-.24.14-.51.21-.78.21zM61.54 96.27c-.23 0-.48-.05-.69-.15a1.62 1.62 0 0 1-.9-1.18c-.49-2.84-2.81-4.03-2.91-4.08a1.627 1.627 0 0 1-.73-2.16c.38-.79 1.33-1.13 2.14-.75.13.06 2.84 1.39 4.14 4.53 3.25-.96 5.98.31 6.11.37.81.38 1.15 1.34.77 2.15s-1.34 1.15-2.14.77c-.12-.04-2.49-1.1-5 .3-.24.14-.52.2-.79.2zM57.8 104.13a1.63 1.63 0 0 1-1.6-1.35c-.48-2.83-2.81-4.02-2.9-4.07a1.625 1.625 0 0 1-.74-2.16c.39-.79 1.34-1.13 2.14-.75.13.07 2.84 1.39 4.14 4.52 3.26-.96 5.99.31 6.12.38.8.38 1.14 1.35.76 2.15-.38.8-1.33 1.14-2.14.76-.11-.05-2.49-1.1-4.99.3-.25.15-.52.22-.79.22zM56.93 112.33c-.41 0-.8-.16-1.11-.44-2.1-1.98-4.73-1.51-4.76-1.5-.88.18-1.73-.39-1.9-1.26-.18-.88.39-1.73 1.26-1.9.15-.03 3.1-.6 6.03 1.12 2.02-2.73 4.97-3.36 5.11-3.39.88-.18 1.73.39 1.9 1.26.18.87-.38 1.72-1.24 1.9-.12.02-2.66.62-3.81 3.24-.21.48-.64.83-1.16.93-.11.03-.22.04-.32.04zM58.66 120.85c-.4 0-.8-.16-1.1-.44-2.1-1.98-4.74-1.51-4.76-1.5-.88.18-1.73-.39-1.9-1.26-.18-.88.38-1.73 1.26-1.9.14-.03 3.1-.6 6.03 1.12 2.02-2.73 4.96-3.35 5.11-3.39.88-.18 1.73.39 1.9 1.26.18.87-.38 1.72-1.25 1.91-.15.03-2.66.63-3.8 3.24a1.613 1.613 0 0 1-1.49.96zM60.39 129.38c-.41 0-.8-.16-1.11-.44-2.1-1.98-4.73-1.51-4.76-1.5-.87.17-1.72-.39-1.89-1.26-.18-.88.38-1.73 1.25-1.9.15-.03 3.11-.6 6.03 1.12 2.03-2.72 4.97-3.35 5.12-3.39.87-.17 1.73.39 1.9 1.26.17.87-.38 1.72-1.25 1.91-.13.03-2.66.62-3.81 3.24-.21.49-.64.83-1.16.93-.1.02-.21.03-.32.03z"/><g><path fill="#ED6C30" d="M15.5 92.89c-.26 0-.52-.05-.76-.19-.13-.07-2.76-1.54-3.9-4.73-3.3.79-5.97-.62-6.1-.69a1.6 1.6 0 0 1-.64-2.18c.42-.79 1.39-1.07 2.17-.65.1.05 2.44 1.23 5-.05a1.611 1.611 0 0 1 2.31 1.26c.34 2.86 2.6 4.16 2.7 4.21.77.44 1.06 1.42.62 2.19-.29.53-.84.83-1.4.83zM19.64 85.24c-.26 0-.52-.07-.77-.2-.13-.07-2.76-1.53-3.9-4.72-3.3.79-5.96-.61-6.1-.69-.78-.43-1.07-1.4-.64-2.18a1.61 1.61 0 0 1 2.18-.65c.11.06 2.44 1.23 4.99-.05a1.61 1.61 0 0 1 1.48.03c.47.25.78.71.84 1.23.34 2.85 2.6 4.16 2.7 4.21.76.44 1.05 1.42.62 2.19-.29.53-.84.83-1.4.83zM23.79 77.59c-.26 0-.52-.07-.77-.2-.13-.07-2.76-1.53-3.9-4.73-3.3.79-5.96-.62-6.1-.68a1.614 1.614 0 0 1-.64-2.19c.42-.78 1.39-1.07 2.18-.66.1.06 2.44 1.23 4.99-.04.48-.23 1.03-.22 1.49.03.47.25.77.71.84 1.22.34 2.86 2.59 4.16 2.7 4.22.76.44 1.05 1.41.62 2.19-.3.55-.85.84-1.41.84zM27.93 69.95c-.26 0-.52-.07-.77-.2-.13-.07-2.76-1.53-3.9-4.73-3.3.79-5.96-.61-6.1-.68a1.614 1.614 0 0 1-.64-2.19c.42-.78 1.39-1.07 2.18-.66.1.06 2.44 1.23 5-.04a1.61 1.61 0 0 1 1.48.03c.47.24.78.71.84 1.22.34 2.86 2.6 4.17 2.7 4.22.76.44 1.05 1.41.62 2.19-.3.54-.85.84-1.41.84zM30.21 59.4c-.06 0-.11 0-.17-.01-.15-.01-3.14-.36-5.41-2.88-2.75 1.99-5.75 1.71-5.89 1.7a1.61 1.61 0 0 1-1.44-1.77c.09-.89.9-1.51 1.76-1.44.14.02 2.72.2 4.6-1.95.35-.4.86-.6 1.38-.54.51.05.98.36 1.23.81 1.41 2.51 4 2.85 4.11 2.87.88.1 1.51.91 1.42 1.78-.09.82-.78 1.43-1.59 1.43zM31.12 50.75c-.06 0-.11-.01-.17-.01-.15-.02-3.15-.36-5.41-2.88-2.75 2-5.75 1.71-5.89 1.7-.89-.09-1.53-.89-1.44-1.78.09-.88.88-1.5 1.76-1.44.13.02 2.72.2 4.6-1.95.34-.39.85-.6 1.38-.54.51.06.98.36 1.23.81 1.41 2.51 4 2.86 4.11 2.87.88.11 1.51.9 1.42 1.78-.09.83-.78 1.44-1.59 1.44zM32.02 42.1c-.06 0-.11 0-.17-.01-.15-.01-3.15-.36-5.42-2.88-2.74 1.99-5.74 1.71-5.89 1.69a1.61 1.61 0 0 1-1.44-1.77c.09-.88.88-1.51 1.76-1.44.13.02 2.73.2 4.61-1.95.35-.39.86-.6 1.38-.54.51.06.98.36 1.23.82 1.41 2.51 4 2.85 4.11 2.87.88.11 1.51.9 1.42 1.79-.08.82-.78 1.42-1.59 1.42zM33.42 35.5c-.22 0-.45-.05-.66-.15-.14-.05-2.86-1.34-4.21-4.46-3.23 1.02-5.98-.21-6.12-.28a1.605 1.605 0 0 1-.79-2.14 1.61 1.61 0 0 1 2.13-.79c.12.04 2.51 1.05 4.99-.38.46-.27 1.01-.3 1.48-.07.48.21.82.65.91 1.17.53 2.83 2.88 3.99 2.97 4.04.8.38 1.15 1.34.78 2.14-.29.58-.87.92-1.48.92zM37.05 27.59c-.22 0-.45-.04-.67-.15-.13-.05-2.86-1.34-4.2-4.46-3.24 1.01-5.99-.22-6.12-.28a1.605 1.605 0 0 1-.79-2.14c.36-.81 1.32-1.16 2.13-.8.13.05 2.51 1.06 4.99-.38.45-.27 1.01-.29 1.48-.07s.81.65.91 1.17c.52 2.83 2.87 3.99 2.97 4.04.79.38 1.14 1.33.77 2.14-.28.59-.86.93-1.47.93zM40.69 19.69c-.22 0-.46-.05-.67-.14-.13-.06-2.86-1.35-4.2-4.46-3.24 1.01-5.99-.22-6.13-.28-.8-.38-1.16-1.34-.79-2.14.37-.81 1.33-1.16 2.13-.8.14.06 2.52 1.06 5-.37.45-.26 1.01-.29 1.47-.07.49.22.82.65.91 1.17.53 2.82 2.88 3.98 2.98 4.03.79.38 1.14 1.34.76 2.14-.28.57-.86.92-1.46.92zM42.81 14.67c-.52 0-1.04-.26-1.35-.74-.08-.12-1.7-2.66-1.18-6.02-3.28-.87-4.95-3.38-5.03-3.51-.49-.75-.27-1.74.48-2.23.74-.49 1.74-.28 2.22.46.08.12 1.57 2.24 4.42 2.34.53.02 1.01.3 1.3.74.27.44.33.99.14 1.48-1.06 2.68.34 4.96.35 4.98.49.75.27 1.75-.48 2.23-.26.18-.57.27-.87.27zM50.1 9.91a1.6 1.6 0 0 1-1.35-.73c-.08-.13-1.7-2.67-1.18-6.02-3.28-.88-4.95-3.38-5.03-3.51a1.61 1.61 0 0 1 .47-2.23c.75-.49 1.75-.28 2.23.47.08.11 1.57 2.23 4.42 2.34.52.02 1.01.29 1.29.73.29.44.35.99.15 1.47-1.06 2.68.35 4.96.36 4.99.48.75.28 1.75-.47 2.23-.28.18-.59.26-.89.26zM56.52 5.43c-.61 0-1.2-.36-1.47-.95-.05-.13-1.26-2.89-.23-6.13-3.1-1.37-4.37-4.11-4.42-4.24-.36-.81 0-1.77.81-2.14s1.75 0 2.13.8c.06.12 1.2 2.46 4 3a1.613 1.613 0 0 1 1.09 2.4c-1.46 2.48-.45 4.89-.41 5 .36.81-.02 1.77-.83 2.12-.22.09-.45.14-.67.14zM64 3.2c-.71 0-1.35-.46-1.55-1.19-.04-.14-.81-3.05.71-6.09-2.86-1.84-3.69-4.73-3.72-4.87-.23-.86.27-1.75 1.13-1.99.85-.23 1.74.27 1.98 1.12.04.12.8 2.6 3.49 3.57.49.18.87.59 1.01 1.09.14.51.03 1.04-.31 1.46-1.83 2.22-1.19 4.83-1.18 4.84.23.86-.27 1.75-1.13 1.99-.14.05-.28.07-.43.07z"/></g></g><g><path fill="#2F2F2F" d="M64 127.72C28.87 127.72.28 99.13.28 64 .28 28.86 28.87.28 64 .28c35.14 0 63.72 28.58 63.72 63.71 0 35.14-28.59 63.73-63.72 63.73zM64 7.45C32.82 7.45 7.45 32.82 7.45 64c0 31.19 25.36 56.55 56.54 56.55S120.54 95.19 120.54 64C120.55 32.82 95.18 7.45 64 7.45z"/></g></svg>