<svg xmlns="http://www.w3.org/2000/svg" width="128" height="128" viewBox="0 0 128 128"><path fill="#2F2F2F" d="M100.5 72.623c-.915 0-1.81-.413-2.4-1.185a3.037 3.037 0 0 1 .534-4.262l16.786-12.939a3.035 3.035 0 0 1 4.256.547 3.036 3.036 0 0 1-.561 4.262l-16.766 12.939a2.967 2.967 0 0 1-1.849.638z"/><path fill="#2F2F2F" d="M107.934 66.88a3.036 3.036 0 0 1-3.003-2.575l-1.434-9.395a3.038 3.038 0 0 1 2.553-3.464 3.043 3.043 0 0 1 3.457 2.548l1.425 9.395a3.022 3.022 0 0 1-2.544 3.454 2.49 2.49 0 0 1-.454.037zM26.876 71.977c-.723 0-1.44-.251-2.024-.772L8.188 56.301a3.032 3.032 0 0 1-.243-4.289 3.041 3.041 0 0 1 4.289-.238L28.9 66.678a3.033 3.033 0 0 1 .227 4.284 2.982 2.982 0 0 1-2.251 1.015z"/><path fill="#2F2F2F" d="M19.796 65.642a3.033 3.033 0 0 1-2.93-3.84l2.508-9.135c.449-1.615 2.118-2.575 3.732-2.122a3.019 3.019 0 0 1 2.116 3.733l-2.505 9.135a3.033 3.033 0 0 1-2.921 2.229z"/><path fill="#FFF" d="M101.316 66.305a47.926 47.926 0 0 0-1.911-2.543 42.855 42.855 0 0 0-7.327-7.133c4.74-5.837 7.587-13.159 7.587-21.127C99.665 16.447 83.554 1 63.663 1 43.777 1 27.662 16.447 27.662 35.501c0 7.672 2.642 14.733 7.07 20.458-.157.143-.321.292-.516.448-2.833 2.109-5.379 4.604-7.611 7.354-.66.83-1.301 1.674-1.909 2.543-17.049 24.417-2.06 55.957 29.444 60.166 2.836.377 5.829.619 8.861.708a87.773 87.773 0 0 0 8.879-.708c31.491-4.209 46.494-35.749 29.436-60.165z"/><path fill="#37B4E2" d="M63.663 8.286c15.835 0 28.72 12.212 28.72 27.215 0 6.012-2.063 11.732-5.971 16.537a7.26 7.26 0 0 0-1.566 5.456 7.195 7.195 0 0 0 2.827 4.935 34.869 34.869 0 0 1 6.061 5.922 33.947 33.947 0 0 1 1.608 2.127c6.342 9.072 7.562 19.759 3.367 29.306-4.607 10.476-15 17.749-27.803 19.463a80.281 80.281 0 0 1-7.905.646 80.289 80.289 0 0 1-7.892-.646c-12.812-1.714-23.205-8.987-27.803-19.463-4.2-9.547-2.977-20.234 3.345-29.288a40.432 40.432 0 0 1 1.626-2.154 35.43 35.43 0 0 1 6.342-6.128c.449-.341.854-.7 1.254-1.099a7.293 7.293 0 0 0 .624-9.606c-3.629-4.702-5.55-10.238-5.55-16.007 0-15.004 12.881-27.216 28.716-27.216m0-7.286C43.777 1 27.662 16.447 27.662 35.501c0 7.672 2.642 14.733 7.07 20.458-.157.143-.321.292-.516.448-2.833 2.109-5.379 4.604-7.611 7.354-.66.83-1.301 1.674-1.909 2.543-17.049 24.417-2.06 55.957 29.444 60.166 2.836.377 5.829.619 8.861.708a87.773 87.773 0 0 0 8.879-.708c31.49-4.208 46.494-35.749 29.436-60.165a47.926 47.926 0 0 0-1.911-2.543 42.855 42.855 0 0 0-7.327-7.133c4.74-5.837 7.587-13.159 7.587-21.127C99.665 16.447 83.554 1 63.663 1z"/><g><path fill="#2F2F2F" d="M55.886 36.066c-.094 3.176-2.344 5.653-4.966 5.563-2.645-.107-4.711-2.745-4.59-5.922.112-3.158 2.333-5.653 4.98-5.554 2.642.09 4.69 2.746 4.576 5.913zM70.067 36.066c.099 3.176 2.338 5.653 4.967 5.563 2.636-.107 4.708-2.745 4.587-5.922-.105-3.158-2.34-5.653-4.986-5.554-2.636.09-4.688 2.746-4.568 5.913z"/></g><path fill="#2F2F2F" d="M69.162 50.076c-.512.24-1.025.424-1.404.556-2.338.81-4.805.713-7.21.321-.837-.137-1.723-.332-2.515-.628-1.2-.451-3.141-.857-3.551-2.371-.215-.794.171-1.911.727-2.497.799-.855 1.643-.354 2.526.087 1.01.506 2.026.895 3.163 1.063 1.4.207 2.737.404 4.159.074 1.068-.249 1.963-.545 2.938-1.079.599-.33.92-.648 1.595-.312.625.31 1.025 1.052 1.371 1.618 1.007 1.669-.472 2.555-1.799 3.168z"/></svg>