<svg xmlns="http://www.w3.org/2000/svg" width="128" height="128" viewBox="0 0 128 128"><g fill="#FCC21B"><path d="M81.67 74.59c.75 0 1.5-.04 2.23-.12.26-.03.51-.07.77-.11.48-.06.96-.13 1.42-.21.3-.06.59-.14.88-.21.43-.1.85-.2 1.27-.32.3-.09.59-.2.88-.3.4-.14.79-.27 1.17-.43.29-.12.59-.25.87-.38.37-.17.74-.34 1.1-.53.28-.15.56-.3.84-.47.35-.2.69-.4 1.04-.62.27-.17.53-.36.79-.54.32-.23.65-.46.97-.71.24-.2.5-.41.74-.61.3-.26.6-.53.89-.8.23-.22.46-.44.69-.67.28-.29.55-.59.81-.89.21-.24.42-.48.62-.73.25-.31.5-.64.74-.97.19-.26.37-.52.55-.78.22-.34.44-.7.64-1.06.17-.27.33-.54.47-.81.21-.37.38-.76.56-1.15.13-.28.27-.55.38-.84.18-.41.32-.84.47-1.27.1-.27.2-.54.29-.82.15-.48.26-.98.38-1.48.06-.23.13-.47.18-.71.15-.75.27-1.5.35-2.27 1.29-12.72-7.97-24.09-20.69-25.39-.8-.08-1.59-.12-2.38-.12-.76 0-1.51.04-2.25.11-.25.03-.5.07-.75.1-.48.07-.97.13-1.45.22-.29.06-.58.14-.87.21-.42.1-.85.2-1.26.32-.31.09-.61.21-.9.3-.39.14-.78.26-1.17.42-.29.13-.58.26-.88.39-.36.17-.73.33-1.08.52-.29.16-.58.32-.85.48-.35.2-.68.4-1.01.61-.29.18-.55.37-.82.56-.32.22-.63.46-.94.69-.27.2-.52.42-.77.63-.3.25-.59.51-.87.78-.25.23-.48.46-.71.7-.27.28-.54.57-.79.86a16.754 16.754 0 0 0-1.35 1.7c-.2.26-.39.53-.57.81-.22.33-.42.67-.63 1.03-.17.28-.33.56-.49.84-.19.37-.36.74-.54 1.12-.13.29-.28.58-.4.87-.17.4-.31.82-.45 1.23-.1.28-.21.57-.29.86-.15.47-.26.96-.38 1.45-.05.25-.13.49-.19.74-.15.74-.26 1.5-.34 2.27-1.3 12.72 7.97 24.09 20.69 25.38.8.08 1.6.12 2.39.12zM79.43 23.69l9.92 1.01h.14c.13 0 .23-.04.36-.08.07-.02.13-.01.2-.04.2-.09.38-.21.52-.37.3-.36.42-.82.3-1.27L87.26 9c-.14-.57-.62-.99-1.21-1.04-.05-.01-.1-.01-.1-.01-.21 0-.36.08-.51.13-.09.03-.18.03-.25.07-.24.14-.44.33-.56.58L78.3 21.67c-.2.42-.19.91.05 1.31.22.4.63.66 1.08.71zM105.99 38c.23.29.58.47.95.51.04.01.09.01.14.01h.07c.49-.04.91-.29 1.14-.69l7.32-12.4c.29-.51.25-1.15-.12-1.61-.17-.21-.39-.33-.63-.42-.07-.02-.13-.03-.2-.04-.09-.02-.17-.06-.26-.06-.15 0-.31.03-.46.08l-13.62 4.68c-.43.15-.77.5-.89.94-.12.45-.03.93.26 1.28l6.3 7.72zM124.32 54.45l-12.95-6.33c-.2-.1-.4-.14-.62-.14h-.02c-.22 0-.46.06-.66.18-.4.22-.67.62-.72 1.08l-1.01 9.92a1.392 1.392 0 0 0 1.26 1.54c.04 0 .09.01.09.01.16 0 .28-.02.4-.05l13.94-3.59c.57-.15.99-.63 1.05-1.22s-.23-1.14-.76-1.4zM63.55 72.6l-6.31-7.73c-.14-.17-.32-.3-.51-.39-.06-.03-.13-.03-.2-.05-.13-.03-.25-.09-.38-.09 0 0-.06.01-.1.01-.46.03-.87.29-1.1.69l-7.32 12.41c-.19.3-.2.64-.14.97-.07.41-.04.84.24 1.17.26.34.67.52 1.09.52.16 0 .31-.02.46-.08l13.71-4.77c.44-.15.78-.51.9-.96.09-.3.04-.6-.07-.88 0-.3-.07-.6-.27-.82zM58.24 32.73c.15.44.51.76.95.89.08.02.17.04.24.05.06 0 .11.01.16.01.09 0 .17-.03.25-.05.06-.01.11-.01.17-.03.17-.05.31-.13.46-.24l7.73-6.3c.35-.29.55-.74.51-1.2-.03-.45-.29-.87-.69-1.1l-12.41-7.32c-.21-.13-.46-.2-.71-.2l-.07.02c-.04 0-.06.01-.1.01-.25.03-.51.12-.72.29-.46.37-.64.99-.45 1.55l4.68 13.62zM105.41 70.35c-.15-.44-.51-.77-.96-.9h-.01c-.13-.08-.24-.18-.39-.22-.13-.03-.25-.05-.38-.05-.07 0-.14.02-.19.03-.06.01-.11.02-.16.03-.2.05-.38.13-.54.25l-7.73 6.31c-.35.29-.54.74-.52 1.19.04.46.29.88.69 1.11l.06.03c.1.11.18.22.31.29l12.54 7.33c.22.13.47.19.71.19h.02c.87.06 1.45-.62 1.45-1.42 0-.3-.09-.57-.24-.8l-4.66-13.37zM84.93 80c-.01-.04-.01-.08-.03-.12a1.4 1.4 0 0 0-1.09-.71l-9.92-1.01h-.14c-.12 0-.23.04-.35.07-.07.01-.14.01-.21.04-.2.09-.37.21-.51.37-.31.35-.42.82-.3 1.27l3.59 13.94c.04.16.16.25.24.39l.04.15c.15.58.64 1 1.23 1.05.05 0 .09.01.14.01.54 0 1.03-.31 1.28-.8l6.32-13.07c.21-.41.19-.91-.04-1.31-.07-.11-.16-.18-.25-.27zM52.4 55.19c.24 0 .48-.06.69-.18.41-.22.69-.64.72-1.1l.02-.13c.01-.06.05-.11.05-.17l1.02-9.92c.05-.46-.14-.91-.48-1.21-.16-.14-.35-.21-.54-.27-.06-.02-.11-.02-.17-.03-.07-.01-.14-.04-.22-.04-.12 0-.23.01-.35.04l-13.95 3.6c-.37.09-.63.35-.81.66-.25.24-.43.52-.47.87-.05.59.26 1.15.8 1.42l13.07 6.32c.2.1.41.14.62.14z"/></g><path fill="#FFF" d="M118.51 69.44c-2.68-1.46-5.45-1.66-8.28-1.33-1.24.14-2.49.4-3.74.67-1.75-8.14-8.98-14.24-17.65-14.24-3.2 0-6.21.84-8.82 2.31-.99-11.2-10.38-19.97-21.83-19.97-7.37 0-13.88 3.65-17.86 9.22-.38-.02-.75-.06-1.13-.06-9.42 0-17.41 6.09-20.29 14.53-1.15 0-2.3.33-3.42.68-2.93.94-5.65 2.5-7.95 4.57C3 69.91.36 75.82.36 81.92c0 11.99 9.72 21.71 21.71 21.71.84 0 1.68-.06 2.5-.16 4.64 9.79 14.58 16.58 26.12 16.58 6.95 0 13.32-2.46 18.31-6.53 3.82 2.89 8.57 4.62 13.74 4.62 10.47 0 19.28-7.06 21.97-16.67 1.71.56 3.53.87 5.42.87 9.68 0 17.51-7.84 17.51-17.51 0-6.36-3.55-12.35-9.13-15.39z"/><path fill="#40C0E7" d="M58.18 44.38c7.52 0 13.7 5.65 14.36 13.14a7.47 7.47 0 0 0 3.97 5.97c1.09.58 2.29.86 3.5.86 1.27 0 2.53-.32 3.67-.96 1.6-.9 3.33-1.35 5.15-1.35 4.95 0 9.29 3.5 10.33 8.32a7.535 7.535 0 0 0 3.29 4.74c1.21.78 2.62 1.18 4.04 1.18.55 0 1.1-.06 1.64-.17.92-.21 1.99-.44 2.95-.55.5-.06.95-.09 1.36-.09 1.01 0 1.78.17 2.47.55 3.18 1.74 5.23 5.19 5.23 8.8 0 5.52-4.5 10.01-10.01 10.01-1.04 0-2.09-.17-3.1-.5-.76-.24-1.54-.37-2.32-.37-1.22 0-2.44.3-3.53.88a7.55 7.55 0 0 0-3.69 4.59c-1.84 6.59-7.91 11.2-14.75 11.2-3.34 0-6.52-1.07-9.21-3.1a7.438 7.438 0 0 0-4.52-1.52c-1.68 0-3.36.57-4.74 1.69-3.88 3.16-8.56 4.84-13.56 4.84-8.22 0-15.82-4.82-19.35-12.29a7.494 7.494 0 0 0-7.63-4.24c-.62.07-1.15.11-1.64.11-7.83 0-14.21-6.38-14.21-14.21 0-4.01 1.71-7.85 4.69-10.53 1.5-1.35 3.3-2.39 5.21-3 .8-.25 1.12-.32 1.15-.33a7.49 7.49 0 0 0 7.09-5.08c1.93-5.65 7.23-9.45 13.15-9.45l.28.02.5.03a7.462 7.462 0 0 0 6.49-3.13c2.71-3.79 7.1-6.06 11.74-6.06m0-7.5c-7.37 0-13.88 3.65-17.86 9.22-.38-.02-.75-.06-1.13-.06-9.42 0-17.41 6.09-20.29 14.53-1.15 0-2.3.33-3.42.68-2.93.94-5.65 2.5-7.95 4.57C3 69.91.36 75.82.36 81.92c0 11.99 9.72 21.71 21.71 21.71.84 0 1.68-.06 2.5-.16 4.64 9.79 14.58 16.58 26.12 16.58 6.95 0 13.32-2.46 18.31-6.53 3.82 2.89 8.57 4.62 13.74 4.62 10.47 0 19.28-7.06 21.97-16.67 1.71.56 3.53.87 5.42.87 9.68 0 17.51-7.84 17.51-17.51 0-6.35-3.55-12.34-9.13-15.38-1.97-1.08-4-1.46-6.06-1.46-.74 0-1.47.05-2.22.14-1.24.14-2.49.4-3.74.67-1.75-8.14-8.98-14.24-17.65-14.24-3.2 0-6.21.84-8.82 2.31-.99-11.21-10.38-19.99-21.84-19.99z"/></svg>