<svg xmlns="http://www.w3.org/2000/svg" width="128" height="128" viewBox="0 0 128 128"><path fill="#FCC21B" d="M96.23 79.73c.89 0 1.61-.05 2.14-.1 13.5-.3 24.4-11.38 24.4-24.96 0-6.85-2.71-13.24-7.65-18l-12.41 12.9a7.025 7.025 0 0 1 2.17 5.1c0 3.9-3.17 7.07-7.07 7.07l-.45-.1-.85.19c-.42.02-1.81 0-3.73-.55V11.39h-17.9v45.08L52.95 50.8V11.39h-17.9v35.04c-2.43-.28-4.33-.21-5.41-.11-13.51.3-24.41 11.38-24.41 24.97 0 6.85 2.72 13.24 7.67 17.99l12.41-12.9a6.986 6.986 0 0 1-2.17-5.09c0-3.9 3.17-7.07 7.07-7.07l.46.1.85-.2c.41-.02 1.72.01 3.54.5v31.71c0 13.64 11.1 24.74 24.73 24.74h5.91v-17.9h-5.91c-3.76 0-6.83-3.07-6.83-6.83V69.3l21.92 5.66v21.38c0 13.64 11.1 24.74 24.73 24.74h5.91v-17.9H99.6c-3.77 0-6.83-3.07-6.83-6.83V79.49c1.31.16 2.5.24 3.46.24z"/></svg>