<svg xmlns="http://www.w3.org/2000/svg" width="128" height="128" viewBox="0 0 128 128"><path fill="#E75625" d="M35.701 7.674l.544 38.245s7.034-2.584 12.035-7.283c4.541-4.265 14.387-6.463 21.005-8.838 14.651-5.261 17.414-10.716 17.414-10.716s.237 1.258-12.606-.268c-3.639-.432-12.439-2.583-17.026-3.879-5.332-1.506-6.797-2.195-10.259-3.454-7.665-2.79-9.471-3.808-9.471-3.808h-1.636z"/><path fill="#A2C02B" d="M3.338 82.864S7.104 75.24 37.021 69.58c27.59-5.221 48.155-3.152 61.068.806 30.279 9.274-7.582 14.529 4.016 22.11 9.765 6.383 24.706 4.579 24.895 13.077.126 5.789-14.432 9.788-34.226 11.01-44.865 2.771-73.312-8.98-83.042-15.01-8.311-5.152-11.26-13.117-6.394-18.709z"/><path fill="#626E30" d="M43.314 91.731l21.084-25.208c-2.791.077-5.696.235-8.707.489L40.368 89.261l2.946 2.47z"/><ellipse fill="#2F2F2F" cx="37.459" cy="91.099" rx="16.616" ry="5.5"/><path fill="#FBB817" d="M37.577 96.557c.15 0 .299-.005.454-.006V8.496a1.785 1.785 0 0 0-3.569 0v87.962c1.012.063 2.045.099 3.115.099z"/></svg>