<svg xmlns="http://www.w3.org/2000/svg" xmlns:xlink="http://www.w3.org/1999/xlink" width="128" height="128" viewBox="0 0 128 128"><path fill="#ED6C30" d="M66.81 6.77c1.22.13 2.39.52 3.68.73 6.65 1.11 33.27 4.9 34.88 5.53.71.28 1.69.75 1.9 1.56.33 1.22-1.21 1.77-2.07 2.2-3.64 1.84-31.12 10.99-35.07 12.29-1.28.42-2.38 1.04-3.74 1.09-1.26.05-2.7.85-3.86.05-1.11-.77-1.18-1.84-1.18-3.08 0-1.29-.22-2.62-.34-3.89-.12-1.27 0-2.61 0-3.89 0-1.39.17-2.69.17-4.09 0-1.53.03-3.02.17-4.53.1-1.06.31-2.31.89-3.16.46-.68.98-1.19 1.81-1.34 1.01-.19 1.78.42 2.76.53z"/><path fill="#2F2F2F" d="M64 37.97c-1.87 0-3.39-1.52-3.39-3.39V7.9a3.395 3.395 0 0 1 6.79 0v26.67a3.404 3.404 0 0 1-3.4 3.4z"/><defs><path id="a" d="M7.2 95.79l51.81 20.91 61.79-20.91s-14.87-57.13-59.25-58.15c0 0-34.23-4.08-54.35 58.15z"/></defs><use xlink:href="#a" overflow="visible" fill="#FCC21B"/><defs><path id="b" d="M14.65 100.78S25.53 60.53 41.53 66.2c13.65 4.84 3.4 47.23 3.4 47.23l-30.28-12.65z"/></defs><use xlink:href="#b" overflow="visible" fill="#2F2F2F"/><g><g fill="#2F2F2F"><path d="M60.25 37.58c.84 0 1.3.06 1.3.06 44.38 1.02 59.25 58.15 59.25 58.15L59.01 116.7 7.2 95.79c17.79-55.02 46.61-58.21 53.05-58.21m0-6.78c-9.19 0-40.63 4.54-59.51 62.9-1.1 3.39.61 7.05 3.91 8.38L56.46 123c.81.33 1.67.49 2.54.49.73 0 1.47-.12 2.17-.36l61.8-20.91a6.783 6.783 0 0 0 4.39-8.14c-.65-2.53-16.66-61.9-65.41-63.22-.37-.03-.95-.06-1.7-.06z"/><path d="M59.01 120.1a3.39 3.39 0 0 1-3.39-3.38c-.17-58.82 4.89-78.99 5.11-79.81.47-1.81 2.32-2.91 4.13-2.43 1.82.47 2.9 2.32 2.43 4.14-.05.19-5.06 20.43-4.89 78.09a3.4 3.4 0 0 1-3.39 3.39z"/></g></g></svg>