<svg xmlns="http://www.w3.org/2000/svg" width="128" height="128" viewBox="0 0 128 128"><path fill="#FFF" d="M62.58 57.37c.3-.15.62-.24.96-.28 3.76-.31 4.66 4.98.79 5.65-2.99.53-4.35-4.05-1.75-5.37z"/><path fill="#78A3AD" d="M121.76 116.07c-1.37-1.23-3.17-.65-4.75-1.25-2.7-1.03-2.03-2.83-1.8-5.11.52-5.02 1.35-9.75-.96-14.5-4.12-8.46-10.72-11.64-19.24-14.24-2.06-.63-3.62-.83-5-2.67-1.44-1.9-1.94-4.32-3.17-6.34-1.68-2.74-4.28-4.49-6.66-6.56-2.37-2.06-4.43-4.41-6.3-6.93 8.14-16.62 15.78-40.52 16.31-51.35.05-1.02-.23-6.62-1.64-6.57-.94.22-3.09 5.04-3.54 5.77-5.71 9.4-11.3 18.85-17.01 28.23-1.51 2.49-2.99 4.99-4.46 7.5-1.48-2.51-2.95-5.02-4.46-7.5-5.71-9.39-11.29-18.83-17-28.21-.44-.73-2.59-5.55-3.54-5.77-1.41-.05-1.69 5.55-1.64 6.57.54 10.83 8.18 34.73 16.31 51.35-1.87 2.51-3.93 4.87-6.3 6.93-2.38 2.07-4.98 3.82-6.66 6.56-1.23 2.02-1.73 4.43-3.17 6.34-1.39 1.83-2.95 2.04-5 2.67-8.52 2.6-15.12 5.79-19.25 14.24-3.06 6.29-2.06 15.63 2.77 20.76.15.16.31.32.47.47 4.85 4.58 13.68 4.81 19.75 3.02 4.43-1.31 8.67-5.62 10.69-9.71 3.19-6.48 3.29-13.33 2.4-20.41-.31-2.4.53-5.07 2.14-6.87.99-1.1 2.33-1.73 3.61-2.42 1.63-.86 3.5-1.46 4.93-2.65 1.34-1.12 2.68-2.11 3.95-3.21 1.26 1.1 2.61 2.1 3.94 3.21 1.43 1.19 3.3 1.79 4.93 2.65 1.28.68 2.62 1.31 3.61 2.42 1.62 1.8 2.45 4.48 2.15 6.87-.9 7.07-.79 13.93 2.4 20.41 2.01 4.09 6.25 8.4 10.68 9.71 4.89 1.44 11.84-1.62 15.09 3.65.62 1 .91 1.79 1.89 2.52 1.9 1.43 4.26 1.55 6.52 1.85 2.48.32 4.53-.64 6.27-2.29 2.06-1.94 3.13-6.99.74-9.14zm-80.9-11.53c-4.06 11.42-22.12 11.27-20.79-2.71.35-3.65 2.3-7.41 5.92-9.94 3.66-2.56 9.4-3.86 13.04-.69 3.73 3.26 3.35 9.07 1.83 13.34zm21.72-47.17c.3-.15.62-.24.96-.28 3.76-.31 4.66 4.98.79 5.65-2.99.53-4.35-4.05-1.75-5.37zm41.3 53.66c-2.59 1.46-5.92 2.35-8.94 1.97-4.29-.55-7.24-4.29-8.73-8.46-1.52-4.27-1.9-10.08 1.84-13.34 3.64-3.17 9.37-1.87 13.03.69 3.23 2.24 6.14 5.83 6.5 9.88.23 2.58-1.22 7.86-3.7 9.26z"/></svg>