<svg xmlns="http://www.w3.org/2000/svg" width="128" height="128" viewBox="0 0 128 128"><path fill="#FFF" d="M85.44 23.02c4.82-.11 9.3 2.51 9.51 8.65.08 2.37.19 5.4.27 9.05-.09 0-10.42-1.71-16.57-.54-.35-3.76-.57-7.03-.56-8.4.03-3.58 2.02-8.64 7.35-8.76zM61.73 24.74c4.79-.53 9.48 1.69 10.22 7.79.27 2.21.64 5.51 1.01 8.93-2.68 1.35-4.57 3.62-5.01 7.33-.6 5.09.24 9.15 3.34 11.96-1.03.88-1.13 1.23-2.47 1.53-3.02.68-6.57-.46-8.23-4.41-1.67-3.96-4.33-20.37-4.92-24.21-.54-3.53.75-8.33 6.06-8.92zM39.21 32.23c4.43-.94 9.03.69 10.3 6.32 1.27 5.62 4.02 18.92 4.46 21.07.83 4.04-1.81 6.12-4.57 7.04s-6.59.09-8.53-3.46c-1.94-3.53-6.48-17.75-7.08-21.06-.6-3.29.53-8.87 5.42-9.91zM22.24 70.38c-2.02-3.11-5.83-13.03-6.62-16.02-.78-2.98-.23-9.19 4.19-10.5 3.99-1.17 8.31 0 9.87 5.07 1.56 5.06 4.38 14.56 4.94 16.49 1.04 3.64-1.23 5.73-3.7 6.76-2.47 1.06-6.66 1.31-8.68-1.8z"/><path fill="#FFF" d="M74.93 104.63c-26.45 4.07-41.68-7.01-47.98-18.43-1.43-2.59-2.36-7.01-.17-7.76 1.75-.6 6.48.84 9.09.08 2.61-.75 5.55-3.87 6.23-6.06 1.26 1.01 7.24 2.86 10.69 1.94 3.46-.92 7.91-5.47 7.91-5.47 2.19 2.01 7.32 1.01 6.14 2.61-1.17 1.6-6.65 11.53-3.78 12.79 2.86 1.27 4.21-3.11 9.26-6.56 5.05-3.46 14.56-5.73 14.56-5.73-.17-3.62 1.6-9.17 1.6-9.17-3.2.51-16.5-2.44-15.32-11.7 1.18-9.25 17-4.88 22.65-4.74 4.95.06 12.31 3.54 13.96 9.95 4.08 15.9-2.46 43.27-34.84 48.25z"/><path fill="#D7598B" d="M118.17 54.47c-1.71-6.68-7.42-11.39-12.63-13.42-.75-.29-2.28-1.92-2.45-3.7-.27-2.83-.75-7.08-1.4-10.09-1.05-4.88-6.35-12.07-15.3-12.16-5.84-.06-9.59 2.12-11.49 4.08-1.01 1.04-2.04 1.3-3.04.63-2.16-1.46-6.42-3.59-11.83-2.57-5.14.98-8.29 4.73-9.81 7.12-.75 1.17-1.87 1.65-3.17 1.28-2.59-.76-7.29-1.59-12.27.26-4.75 1.77-6.88 6.02-7.75 8.54-.41 1.17-1.31 1.81-2.51 1.74-2.01-.12-5.23.01-8.16 1.53-5.98 3.1-8.31 10.61-7.74 17.76.6 7.66 3.12 13.48 7.02 25.78 4.77 15.06 22.53 36.57 61.07 30.64s46.32-38.5 41.46-57.42zM85.44 23.02c4.82-.11 9.3 2.51 9.51 8.65.08 2.37.19 5.4.27 9.05-.09 0-10.42-1.71-16.57-.54-.35-3.76-.57-7.03-.56-8.4.03-3.58 2.02-8.64 7.35-8.76zm-23.71 1.72c4.79-.53 9.48 1.69 10.22 7.79.27 2.21.64 5.51 1.01 8.93-2.68 1.35-4.57 3.62-5.01 7.33-.6 5.09.24 9.15 3.34 11.96-1.03.88-1.13 1.23-2.47 1.53-3.02.68-6.57-.46-8.23-4.41-1.67-3.96-4.33-20.37-4.92-24.21-.54-3.53.75-8.33 6.06-8.92zm-22.52 7.49c4.43-.94 9.03.69 10.3 6.32 1.27 5.62 4.02 18.92 4.46 21.07.83 4.04-1.81 6.12-4.57 7.04s-6.59.09-8.53-3.46c-1.94-3.53-6.48-17.75-7.08-21.06-.6-3.29.53-8.87 5.42-9.91zM22.24 70.38c-2.02-3.11-5.83-13.03-6.62-16.02-.78-2.98-.23-9.19 4.19-10.5 3.99-1.17 8.31 0 9.87 5.07 1.56 5.06 4.38 14.56 4.94 16.49 1.04 3.64-1.23 5.73-3.7 6.76-2.47 1.06-6.66 1.31-8.68-1.8zm52.69 34.25c-26.45 4.07-41.68-7.01-47.98-18.43-1.43-2.59-2.36-7.01-.17-7.76 1.75-.6 6.48.84 9.09.08 2.61-.75 5.55-3.87 6.23-6.06 1.26 1.01 7.24 2.86 10.69 1.94 3.46-.92 7.91-5.47 7.91-5.47 2.19 2.01 7.32 1.01 6.14 2.61-1.17 1.6-6.65 11.53-3.78 12.79 2.86 1.27 4.21-3.11 9.26-6.56 5.05-3.46 14.56-5.73 14.56-5.73-.17-3.62 1.6-9.17 1.6-9.17-3.2.51-16.5-2.44-15.32-11.7 1.18-9.25 17-4.88 22.65-4.74 4.95.06 12.31 3.54 13.96 9.95 4.08 15.9-2.46 43.27-34.84 48.25z"/></svg>