<svg xmlns="http://www.w3.org/2000/svg" width="128" height="128" viewBox="0 0 128 128"><path fill="#FFF" d="M41.68 19.72c0-3.25.62-6.63 3.62-8.03 1.52-.71 3.04-1.18 4.54-1.31 1.43-.12 2.85.03 4.23.65 2.16.96 4.48 5.02 6.02 10.27 2.81 9.55 6.44 27.45 7.06 29.58.6 2.08 1.48 4.09 2.83 5.39 1.17 1.14 2.69 1.75 4.7 1.43 3.38-.54 4.12-4.06 4.93-6.72.94-3.09 2.45-18.61 3.87-25.14 1.39-6.43 3.24-11.3 5.21-12.95 1.91-1.6 4.91-2.62 7.52-1.88 7.23 2.06 6.48 8.61 5.74 13.2-1.38 8.47-8.51 28.08-9.07 29.82-.64 2.04-1.7 7.53-2.23 10-.13.61-.71 2.55-.71 2.55s-7.2-3.01-11.68-4.24c-1.11-.3-7.18-1.97-12.63-.93-4.9.92-7.26 3.52-8.28 3.3-1.11-.23-2.61-5.49-2.9-6.68-.26-1.08-.59-2.15-.96-3.21-.6-1.69-1.33-3.35-2.11-5-1.42-3.03-9.7-22.19-9.7-30.1zM42.7 60.57c3.69-1.27 7.8-.34 9.47 4.35 1.67 4.7 5.38 15.82 5.98 17.61 1.12 3.37-.92 5.43-3.2 6.5s-5.64.75-7.66-2.08c-2.02-2.83-7.37-14.56-8.23-17.33-.86-2.77-.46-7.66 3.64-9.05zM32.04 95c-2.05-2.46-6.33-10.57-7.31-13.05-.97-2.48-1.14-7.85 2.51-9.42 3.3-1.42 7.13-.86 8.98 3.33 1.86 4.18 5.24 12.02 5.92 13.63 1.27 3.01-.47 5.04-2.47 6.18-2.01 1.14-5.58 1.78-7.63-.67z"/><path fill="#FFF" d="M100.4 95.98c-.57 2.77-2.12 5.45-3.87 7.65-7.82 9.8-18.29 13.19-30.46 14.56-1.13.13-2.27.2-3.41.2-9.03.01-19.4-2.35-23.22-9.68-.89-1.7-1.98-6.67-1.98-6.67s3.34.21 6.6-1.91c1.46-.94 3.61-4.45 3.61-4.45s1.64 1.17 4.38 1.2c4.22.05 7.08-2.85 7.08-2.85s-.73 3.83-.64 5.6c.1 2.28.38 4.64 1.32 6.74.3.67.79 1.89 1.45 2.27 1.75 1 .98-3.74 1.03-4.5.16-2.99.91-6.37 2.8-8.77.79-.99 3.03-3.18 6.34-3.19 3.69-.01 8.57 2.28 11.06 3.21.71.27 1.23-.74 1.18-2.07-.2-5.74-9.83-6.8-14.72-9.15-4.65-2.24-8.8-4.86-7.6-10.69.81-3.92 5.74-5.8 9.33-5.79 3.47 0 7.17 1.13 10.53 2 7.78 2.04 17.5 8.73 19.53 16.97.71 2.93.26 6.41-.34 9.32z"/><path fill="#D7598B" d="M100.51 71.44c-.68-.65-1.11-1.33-1.37-2.05-.94-2.59.49-6.26 1.33-9.8 1.56-6.54 3.99-13.27 6.18-19.88.89-2.69 4.23-11.9 4.09-20.93-.09-5.18-2.22-11.58-8.73-14.64-3.65-1.73-9.33-2.16-12.2-1.26-4.25 1.32-7.41 3.69-9.74 7.47-5.06 8.2-4.35 17.24-5.43 24.77-.22 1.48-.89 8.46-1.51 8.46-.57 0-1.58-4.97-2.14-8.55-.56-3.63-1.49-8.7-2.57-12.23-1.98-6.5-4.32-16.49-12.49-20-3.65-1.57-8.59-1.62-12.21-.32C36.24 5.13 33.2 10.5 33.2 18.05c0 4.16 1.62 12.66 3.99 18.2 1.91 4.45 5.76 15.35 5.66 15.36-2.72.11-10.51 2.04-11.25 12.06-.06-.01-4.86-.22-8.62 2.88-3.03 2.21-5.55 6.41-5.73 11.24 0 6.78 3.31 13.89 10.51 24.25 2.99 13.35 10.36 18.66 14.17 20.43 7.17 3.36 16.18 3.98 21.88 3.98 5.66-.01 13.56-1.37 18.53-3 5.43-1.77 10.76-4.32 16.1-9.69 4.17-4.21 8.46-9.98 9.89-15.8 3.89-15.86-6.52-25.26-7.82-26.52zM41.68 19.72c0-3.25.62-6.63 3.62-8.03 1.52-.71 3.04-1.18 4.54-1.31 1.43-.12 2.85.03 4.23.65 2.16.96 4.48 5.02 6.02 10.27 2.81 9.55 6.44 27.45 7.06 29.58.6 2.08 1.48 4.09 2.83 5.39 1.17 1.14 2.69 1.75 4.7 1.43 3.38-.54 4.12-4.06 4.93-6.72.94-3.09 2.45-18.61 3.87-25.14 1.39-6.43 3.24-11.3 5.21-12.95 1.91-1.6 4.91-2.62 7.52-1.88 7.23 2.06 6.48 8.61 5.74 13.2-1.38 8.47-8.51 28.08-9.07 29.82-.64 2.04-1.7 7.53-2.23 10-.13.61-.71 2.55-.71 2.55s-7.2-3.01-11.68-4.24c-1.11-.3-7.18-1.97-12.63-.93-4.9.92-7.26 3.52-8.28 3.3-1.11-.23-2.61-5.49-2.9-6.68-.26-1.08-.59-2.15-.96-3.21-.6-1.69-1.33-3.35-2.11-5-1.42-3.03-9.7-22.19-9.7-30.1zm1.02 40.85c3.69-1.27 7.8-.34 9.47 4.35 1.67 4.7 5.38 15.82 5.98 17.61 1.12 3.37-.92 5.43-3.2 6.5s-5.64.75-7.66-2.08c-2.02-2.83-7.37-14.56-8.23-17.33-.86-2.77-.46-7.66 3.64-9.05zM32.04 95c-2.05-2.46-6.33-10.57-7.31-13.05-.97-2.48-1.14-7.85 2.51-9.42 3.3-1.42 7.13-.86 8.98 3.33 1.86 4.18 5.24 12.02 5.92 13.63 1.27 3.01-.47 5.04-2.47 6.18-2.01 1.14-5.58 1.78-7.63-.67zm68.36.98c-.57 2.77-2.12 5.45-3.87 7.65-7.82 9.8-18.29 13.19-30.46 14.56-1.13.13-2.27.2-3.41.2-9.03.01-19.4-2.35-23.22-9.68-.89-1.7-1.98-6.67-1.98-6.67s3.34.21 6.6-1.91c1.46-.94 3.61-4.45 3.61-4.45s1.64 1.17 4.38 1.2c4.22.05 7.08-2.85 7.08-2.85s-.73 3.83-.64 5.6c.1 2.28.38 4.64 1.32 6.74.3.67.79 1.89 1.45 2.27 1.75 1 .98-3.74 1.03-4.5.16-2.99.91-6.37 2.8-8.77.79-.99 3.03-3.18 6.34-3.19 3.69-.01 8.57 2.28 11.06 3.21.71.27 1.23-.74 1.18-2.07-.2-5.74-9.83-6.8-14.72-9.15-4.65-2.24-8.8-4.86-7.6-10.69.81-3.92 5.74-5.8 9.33-5.79 3.47 0 7.17 1.13 10.53 2 7.78 2.04 17.5 8.73 19.53 16.97.71 2.93.26 6.41-.34 9.32z"/></svg>