<svg xmlns="http://www.w3.org/2000/svg" width="128" height="128" viewBox="0 0 128 128"><path fill="#40C0E7" d="M60.34 125.35c-2.16 0-4.23-.29-6.14-.84a14.28 14.28 0 0 1-5.38-2.92c-1.54-1.35-2.76-3.06-3.61-5.08-.83-1.97-1.26-4.33-1.26-7.01 0-2.77.42-5.19 1.25-7.19.86-2.07 2.09-3.78 3.66-5.09 1.52-1.27 3.33-2.2 5.37-2.76 3.73-1.03 8.18-1.08 12 0 1.98.57 3.75 1.49 5.27 2.76 1.56 1.31 2.8 3.01 3.69 5.06.86 2.01 1.3 4.44 1.3 7.22 0 2.69-.44 5.06-1.31 7.04-.87 2-2.09 3.7-3.63 5.04-1.53 1.34-3.3 2.31-5.28 2.92-1.86.56-3.86.85-5.93.85zm0-26.45c-1.67 0-3.25.2-4.71.6-1.34.37-2.45.94-3.42 1.75-.93.77-1.64 1.78-2.18 3.08-.56 1.36-.85 3.1-.85 5.18 0 1.97.28 3.64.84 4.97.55 1.3 1.28 2.34 2.23 3.17.97.85 2.08 1.44 3.41 1.83 2.77.82 6.23.87 9.09.01 1.28-.39 2.38-.99 3.36-1.84.96-.84 1.7-1.89 2.28-3.2.58-1.32.87-2.98.87-4.94 0-2.07-.29-3.79-.87-5.14-.56-1.31-1.29-2.33-2.23-3.11-.97-.81-2.07-1.38-3.35-1.75-1.4-.41-2.91-.61-4.47-.61zm9.34-13.38H49.14c-1.44 0-2.62-1.17-2.62-2.62v-5.76c0-2.85.3-5.48.9-7.83.6-2.37 1.52-4.66 2.75-6.81 1.22-2.12 2.8-4.19 4.69-6.18 1.85-1.92 4.08-3.94 6.65-5.96 2.12-1.67 3.94-3.18 5.41-4.49 1.35-1.21 2.44-2.4 3.26-3.57.76-1.07 1.31-2.21 1.64-3.37.35-1.22.52-2.67.52-4.34 0-2.24-.72-4.01-2.19-5.42-1.48-1.43-3.95-2.15-7.33-2.15-3.26 0-6.84.71-10.66 2.09-4.02 1.47-8.24 3.29-12.53 5.42-.63.31-1.37.36-2.04.11-.67-.23-1.21-.72-1.5-1.37l-7.94-17.19a2.63 2.63 0 0 1 1.06-3.36c2.32-1.35 4.85-2.64 7.52-3.83 2.69-1.2 5.53-2.28 8.43-3.21 2.96-.95 5.97-1.7 8.94-2.22 3.02-.54 6.06-.82 9.02-.82 5.52 0 10.59.68 15.06 2 4.58 1.37 8.53 3.41 11.74 6.06 3.25 2.68 5.77 5.97 7.52 9.8 1.73 3.81 2.61 8.17 2.61 12.99 0 3.5-.4 6.68-1.19 9.47-.79 2.8-1.99 5.45-3.55 7.87-1.54 2.38-3.48 4.68-5.76 6.85-2.17 2.07-4.76 4.3-7.68 6.64-2.12 1.67-3.86 3.13-5.19 4.36-1.23 1.13-2.18 2.2-2.84 3.17-.6.88-1 1.75-1.21 2.66-.24 1.02-.36 2.27-.36 3.72v4.66a2.568 2.568 0 0 1-2.59 2.63zm-17.92-5.24h15.3v-2.04c0-1.85.16-3.51.5-4.92.36-1.53 1.03-3.02 1.98-4.42.89-1.31 2.07-2.64 3.61-4.06 1.43-1.33 3.28-2.87 5.49-4.61 2.78-2.23 5.25-4.36 7.32-6.33 1.98-1.88 3.66-3.88 4.98-5.91 1.27-1.97 2.25-4.14 2.9-6.44.66-2.32.99-5.02.99-8.04 0-4.06-.72-7.7-2.14-10.81-1.41-3.1-3.46-5.77-6.09-7.94-2.66-2.2-6-3.91-9.9-5.07C72.71 8.5 68.14 7.9 63.14 7.9c-2.65 0-5.38.24-8.1.74-2.75.48-5.53 1.18-8.26 2.04-2.73.88-5.39 1.89-7.9 3.01-1.72.77-3.38 1.58-4.95 2.41l5.8 12.57c3.63-1.71 7.2-3.21 10.64-4.47 4.39-1.59 8.58-2.4 12.45-2.4 4.78 0 8.46 1.21 10.96 3.6 2.52 2.42 3.8 5.52 3.8 9.21 0 2.16-.24 4.1-.72 5.78-.5 1.72-1.3 3.38-2.4 4.95-1.04 1.47-2.4 2.98-4.05 4.44-1.55 1.39-3.45 2.97-5.66 4.71-2.37 1.87-4.43 3.72-6.11 5.47-1.61 1.68-2.93 3.42-3.94 5.17-.99 1.73-1.73 3.57-2.22 5.48-.49 1.93-.74 4.14-.74 6.55v3.12z"/></svg>