<svg xmlns="http://www.w3.org/2000/svg" width="128" height="128" viewBox="0 0 128 128"><g fill="#40C0E7"><path d="M72.43 76.67H55.57c-1.98 0-3.64-1.47-3.77-3.35L47.2 7.16c-.07-1.07.35-2.11 1.17-2.85a3.9 3.9 0 0 1 2.6-.98h26.08c.95 0 1.86.34 2.57.95.86.78 1.28 1.83 1.2 2.9l-4.6 66.14c-.14 1.88-1.8 3.35-3.79 3.35zm-15.52-5.24h14.18l4.37-62.87H52.54l4.37 62.87zM64.12 124.67c-2.17 0-4.23-.29-6.14-.84-2.05-.6-3.86-1.58-5.38-2.91-1.54-1.35-2.75-3.06-3.61-5.08-.83-1.97-1.26-4.33-1.26-7.01 0-2.77.42-5.19 1.25-7.19.86-2.07 2.09-3.78 3.66-5.09 1.52-1.27 3.33-2.21 5.38-2.77 3.72-1.03 8.17-1.08 11.99 0 1.98.57 3.75 1.5 5.28 2.77 1.56 1.3 2.8 3.01 3.68 5.06.87 2.01 1.3 4.44 1.3 7.22 0 2.69-.44 5.06-1.31 7.04-.87 2-2.1 3.7-3.63 5.04-1.53 1.33-3.3 2.31-5.28 2.91-1.87.56-3.86.85-5.93.85zm0-26.45c-1.67 0-3.26.21-4.71.6-1.33.37-2.45.94-3.41 1.74-.93.77-1.64 1.78-2.18 3.08-.57 1.36-.85 3.11-.85 5.18 0 1.97.29 3.64.84 4.97.55 1.3 1.28 2.34 2.23 3.17.97.84 2.08 1.44 3.41 1.83 2.78.82 6.24.87 9.09 0 1.28-.38 2.38-.99 3.35-1.84.96-.84 1.7-1.89 2.28-3.2.58-1.32.87-2.98.87-4.94 0-2.07-.3-3.8-.87-5.14-.57-1.31-1.3-2.33-2.23-3.12-.97-.81-2.07-1.38-3.36-1.75-1.4-.37-2.9-.58-4.46-.58z"/></g></svg>