<svg xmlns="http://www.w3.org/2000/svg" width="128" height="128" viewBox="0 0 128 128"><g fill="#757F3F"><path d="M64 32.42c8.46 0 15.31-6.85 15.31-15.31C79.31 8.66 72.46 1.8 64 1.8S48.69 8.66 48.69 17.11c0 8.46 6.86 15.31 15.31 15.31zM64 95.58c-8.46 0-15.31 6.86-15.31 15.31 0 8.46 6.85 15.31 15.31 15.31s15.31-6.85 15.31-15.31S72.46 95.58 64 95.58zM8.57 51.69c-4.36 0-7.92 3.56-7.92 7.92v8.78c0 4.36 3.56 7.92 7.92 7.92h110.86c4.36 0 7.92-3.56 7.92-7.92v-8.78c0-4.36-3.56-7.92-7.92-7.92H8.57z"/></g></svg>